<svg xmlns="http://www.w3.org/2000/svg" viewBox="0 0 6311 6546" width="1051.8" height="1091"><rect width="6311" height="6546" fill="#faf8f4"/><defs><linearGradient id="glow" x1="0" y1="0" x2="0" y2="1"><stop offset="0" stop-color="#f6d9a4" stop-opacity=".9"/><stop offset="1" stop-color="#f6d9a4" stop-opacity="0"/></linearGradient></defs><text x="260" y="170" font-family="Georgia, 'Times New Roman', serif" font-size="110" letter-spacing="8" fill="#262626">SIDE WALLS</text><text x="260" y="260" font-family="Helvetica, Arial, sans-serif" font-size="52" letter-spacing="5" fill="#8a8479">PANEL MOULDING · LOWER PANELS END AT 610, LEVEL WITH THE STUDY CUPBOARDS · COVE LIGHT UNDER THE CROWN</text><g transform="translate(260 380)"><rect x="0" y="0" width="5791" height="2743" fill="#f1ece3"/><rect x="0" y="0" width="5791" height="150" fill="#faf8f4" stroke="#262626" stroke-width="5"/><line x1="0" y1="67.5" x2="5791" y2="67.5" stroke="#262626" stroke-width="3"/><rect x="0" y="150" width="5791" height="210" fill="url(#glow)"/><rect x="0" y="2613" width="5791" height="130" fill="#faf8f4" stroke="#262626" stroke-width="5"/><rect x="5316" y="150" width="475" height="2593" fill="#e3dccf" stroke="#262626" stroke-width="5"/><rect x="0" y="2088" width="5316" height="45" fill="#faf8f4" stroke="#262626" stroke-width="5"/><rect x="4491.6" y="2213" width="674.4" height="290" fill="none" stroke="#262626" stroke-width="7"/><rect x="4546.6" y="2268" width="564.4" height="180" fill="none" stroke="#262626" stroke-width="3"/><rect x="4519.1" y="2240.5" width="619.4" height="235" fill="none" stroke="#8a8479" stroke-width="2"/><rect x="4491.6" y="310" width="674.4" height="1668" fill="none" stroke="#262626" stroke-width="7"/><rect x="4546.6" y="365" width="564.4" height="1558" fill="none" stroke="#262626" stroke-width="3"/><rect x="4519.1" y="337.5" width="619.4" height="1613" fill="none" stroke="#8a8479" stroke-width="2"/><rect x="3667.2" y="2213" width="674.4" height="290" fill="none" stroke="#262626" stroke-width="7"/><rect x="3722.2" y="2268" width="564.4" height="180" fill="none" stroke="#262626" stroke-width="3"/><rect x="3694.7" y="2240.5" width="619.4" height="235" fill="none" stroke="#8a8479" stroke-width="2"/><rect x="3667.2" y="310" width="674.4" height="1668" fill="none" stroke="#262626" stroke-width="7"/><rect x="3722.2" y="365" width="564.4" height="1558" fill="none" stroke="#262626" stroke-width="3"/><rect x="3694.7" y="337.5" width="619.4" height="1613" fill="none" stroke="#8a8479" stroke-width="2"/><rect x="2842.8" y="2213" width="674.4" height="290" fill="none" stroke="#262626" stroke-width="7"/><rect x="2897.8" y="2268" width="564.4" height="180" fill="none" stroke="#262626" stroke-width="3"/><rect x="2870.3" y="2240.5" width="619.4" height="235" fill="none" stroke="#8a8479" stroke-width="2"/><rect x="2842.8" y="310" width="674.4" height="1668" fill="none" stroke="#262626" stroke-width="7"/><rect x="2897.8" y="365" width="564.4" height="1558" fill="none" stroke="#262626" stroke-width="3"/><rect x="2870.3" y="337.5" width="619.4" height="1613" fill="none" stroke="#8a8479" stroke-width="2"/><rect x="2018.4" y="2213" width="674.4" height="290" fill="none" stroke="#262626" stroke-width="7"/><rect x="2073.4" y="2268" width="564.4" height="180" fill="none" stroke="#262626" stroke-width="3"/><rect x="2045.9" y="2240.5" width="619.4" height="235" fill="none" stroke="#8a8479" stroke-width="2"/><rect x="2018.4" y="310" width="674.4" height="1668" fill="none" stroke="#262626" stroke-width="7"/><rect x="2073.4" y="365" width="564.4" height="1558" fill="none" stroke="#262626" stroke-width="3"/><rect x="2045.9" y="337.5" width="619.4" height="1613" fill="none" stroke="#8a8479" stroke-width="2"/><rect x="1194" y="2213" width="674.4" height="290" fill="none" stroke="#262626" stroke-width="7"/><rect x="1249" y="2268" width="564.4" height="180" fill="none" stroke="#262626" stroke-width="3"/><rect x="1221.5" y="2240.5" width="619.4" height="235" fill="none" stroke="#8a8479" stroke-width="2"/><rect x="1194" y="310" width="674.4" height="1668" fill="none" stroke="#262626" stroke-width="7"/><rect x="1249" y="365" width="564.4" height="1558" fill="none" stroke="#262626" stroke-width="3"/><rect x="1221.5" y="337.5" width="619.4" height="1613" fill="none" stroke="#8a8479" stroke-width="2"/><rect x="-10" y="235" width="1054" height="2508" fill="#faf8f4" stroke="#262626" stroke-width="6"/><rect x="60" y="305" width="914" height="2438" fill="#e7e2d8" stroke="#262626" stroke-width="4"/><text x="517" y="1524" text-anchor="middle" font-family="Helvetica, Arial, sans-serif" font-size="90" letter-spacing="6" fill="#8a8479">D1</text><line x1="-200" y1="2743" x2="5991" y2="2743" stroke="#262626" stroke-width="12"/></g><text x="260" y="3273" font-family="Georgia, 'Times New Roman', serif" font-size="84" fill="#262626">LEFT WALL</text><text x="1080" y="3273" font-family="Helvetica, Arial, sans-serif" font-size="46" letter-spacing="4" fill="#8a8479">SEEN FROM INSIDE THE ROOM · STUDY WALL ON THE RIGHT · 5 PANEL BAYS</text><g transform="translate(260 3543)"><rect x="0" y="0" width="5791" height="2743" fill="#f1ece3"/><rect x="0" y="0" width="5791" height="150" fill="#faf8f4" stroke="#262626" stroke-width="5"/><line x1="0" y1="67.5" x2="5791" y2="67.5" stroke="#262626" stroke-width="3"/><rect x="0" y="150" width="5791" height="210" fill="url(#glow)"/><rect x="0" y="2613" width="5791" height="130" fill="#faf8f4" stroke="#262626" stroke-width="5"/><rect x="0" y="2133" width="475" height="610" fill="#e3dccf" stroke="#262626" stroke-width="5"/><rect x="475" y="2088" width="5316" height="45" fill="#faf8f4" stroke="#262626" stroke-width="5"/><rect x="625" y="2213" width="517.5" height="290" fill="none" stroke="#262626" stroke-width="7"/><rect x="680" y="2268" width="407.5" height="180" fill="none" stroke="#262626" stroke-width="3"/><rect x="652.5" y="2240.5" width="462.5" height="235" fill="none" stroke="#8a8479" stroke-width="2"/><rect x="625" y="310" width="517.5" height="1668" fill="none" stroke="#262626" stroke-width="7"/><rect x="680" y="365" width="407.5" height="1558" fill="none" stroke="#262626" stroke-width="3"/><rect x="652.5" y="337.5" width="462.5" height="1613" fill="none" stroke="#8a8479" stroke-width="2"/><rect x="1292.5" y="2213" width="517.5" height="290" fill="none" stroke="#262626" stroke-width="7"/><rect x="1347.5" y="2268" width="407.5" height="180" fill="none" stroke="#262626" stroke-width="3"/><rect x="1320" y="2240.5" width="462.5" height="235" fill="none" stroke="#8a8479" stroke-width="2"/><rect x="1292.5" y="310" width="517.5" height="1668" fill="none" stroke="#262626" stroke-width="7"/><rect x="1347.5" y="365" width="407.5" height="1558" fill="none" stroke="#262626" stroke-width="3"/><rect x="1320" y="337.5" width="462.5" height="1613" fill="none" stroke="#8a8479" stroke-width="2"/><rect x="3012" y="2213" width="618" height="290" fill="none" stroke="#262626" stroke-width="7"/><rect x="3067" y="2268" width="508" height="180" fill="none" stroke="#262626" stroke-width="3"/><rect x="3039.5" y="2240.5" width="563" height="235" fill="none" stroke="#8a8479" stroke-width="2"/><rect x="3012" y="310" width="618" height="1668" fill="none" stroke="#262626" stroke-width="7"/><rect x="3067" y="365" width="508" height="1558" fill="none" stroke="#262626" stroke-width="3"/><rect x="3039.5" y="337.5" width="563" height="1613" fill="none" stroke="#8a8479" stroke-width="2"/><rect x="4832" y="2213" width="809" height="290" fill="none" stroke="#262626" stroke-width="7"/><rect x="4887" y="2268" width="699" height="180" fill="none" stroke="#262626" stroke-width="3"/><rect x="4859.5" y="2240.5" width="754" height="235" fill="none" stroke="#8a8479" stroke-width="2"/><rect x="4832" y="310" width="809" height="1668" fill="none" stroke="#262626" stroke-width="7"/><rect x="4887" y="365" width="699" height="1558" fill="none" stroke="#262626" stroke-width="3"/><rect x="4859.5" y="337.5" width="754" height="1613" fill="none" stroke="#8a8479" stroke-width="2"/><rect x="1960" y="235" width="902" height="2508" fill="#faf8f4" stroke="#262626" stroke-width="6"/><rect x="2030" y="305" width="762" height="2438" fill="#e7e2d8" stroke="#262626" stroke-width="4"/><text x="2411" y="1524" text-anchor="middle" font-family="Helvetica, Arial, sans-serif" font-size="90" letter-spacing="6" fill="#8a8479">D2</text><rect x="3780" y="235" width="902" height="2508" fill="#faf8f4" stroke="#262626" stroke-width="6"/><rect x="3850" y="305" width="762" height="2438" fill="#e7e2d8" stroke="#262626" stroke-width="4"/><text x="4231" y="1524" text-anchor="middle" font-family="Helvetica, Arial, sans-serif" font-size="90" letter-spacing="6" fill="#8a8479">D3</text><line x1="-200" y1="2743" x2="5991" y2="2743" stroke="#262626" stroke-width="12"/></g><text x="260" y="6436" font-family="Georgia, 'Times New Roman', serif" font-size="84" fill="#262626">RIGHT WALL</text><text x="1080" y="6436" font-family="Helvetica, Arial, sans-serif" font-size="46" letter-spacing="4" fill="#8a8479">SEEN FROM INSIDE THE ROOM · STUDY WALL ON THE LEFT · 4 PANEL BAYS</text></svg>