  0
SECTION
  2
HEADER
  9
$ACADVER
  1
AC1024
  9
$ACADMAINTVER
 70
6
  9
$DWGCODEPAGE
  3
ANSI_1252
  9
$LASTSAVEDBY
  1
ezdxf
  9
$INSBASE
 10
0.0
 20
0.0
 30
0.0
  9
$EXTMIN
 10
1e+20
 20
1e+20
 30
1e+20
  9
$EXTMAX
 10
-1e+20
 20
-1e+20
 30
-1e+20
  9
$LIMMIN
 10
0.0
 20
0.0
  9
$LIMMAX
 10
420.0
 20
297.0
  9
$ORTHOMODE
 70
0
  9
$REGENMODE
 70
1
  9
$FILLMODE
 70
1
  9
$QTEXTMODE
 70
0
  9
$MIRRTEXT
 70
1
  9
$LTSCALE
 40
1.0
  9
$ATTMODE
 70
1
  9
$TEXTSIZE
 40
2.5
  9
$TRACEWID
 40
1.0
  9
$TEXTSTYLE
  7
OpenSans
  9
$CLAYER
  8
0
  9
$CELTYPE
  6
ByLayer
  9
$CECOLOR
 62
256
  9
$CELTSCALE
 40
1.0
  9
$DISPSILH
 70
0
  9
$DIMSCALE
 40
1.0
  9
$DIMASZ
 40
0.175
  9
$DIMEXO
 40
0.125
  9
$DIMDLI
 40
3.75
  9
$DIMRND
 40
0.0
  9
$DIMDLE
 40
0.0
  9
$DIMEXE
 40
0.375
  9
$DIMTP
 40
0.0
  9
$DIMTM
 40
0.0
  9
$DIMTXT
 40
0.25
  9
$DIMCEN
 40
2.5
  9
$DIMTSZ
 40
0.0
  9
$DIMTOL
 70
0
  9
$DIMLIM
 70
0
  9
$DIMTIH
 70
0
  9
$DIMTOH
 70
0
  9
$DIMSE1
 70
0
  9
$DIMSE2
 70
0
  9
$DIMTAD
 70
1
  9
$DIMZIN
 70
12
  9
$DIMBLK
  1
ARCHTICK
  9
$DIMASO
 70
1
  9
$DIMSHO
 70
1
  9
$DIMPOST
  1

  9
$DIMAPOST
  1

  9
$DIMALT
 70
0
  9
$DIMALTD
 70
3
  9
$DIMALTF
 40
0.03937007874
  9
$DIMLFAC
 40
100.0
  9
$DIMTOFL
 70
1
  9
$DIMTVP
 40
0.0
  9
$DIMTIX
 70
0
  9
$DIMSOXD
 70
0
  9
$DIMSAH
 70
0
  9
$DIMBLK1
  1

  9
$DIMBLK2
  1

  9
$DIMSTYLE
  2
EZDXF
  9
$DIMCLRD
 70
0
  9
$DIMCLRE
 70
0
  9
$DIMCLRT
 70
0
  9
$DIMTFAC
 40
0.5
  9
$DIMGAP
 40
0.1
  9
$DIMJUST
 70
0
  9
$DIMSD1
 70
0
  9
$DIMSD2
 70
0
  9
$DIMTOLJ
 70
0
  9
$DIMTZIN
 70
8
  9
$DIMALTZ
 70
0
  9
$DIMALTTZ
 70
0
  9
$DIMUPT
 70
1
  9
$DIMDEC
 70
2
  9
$DIMTDEC
 70
2
  9
$DIMALTU
 70
2
  9
$DIMALTTD
 70
3
  9
$DIMTXSTY
  7
OpenSansCondensed-Light
  9
$DIMAUNIT
 70
0
  9
$DIMADEC
 70
2
  9
$DIMALTRND
 40
0.0
  9
$DIMAZIN
 70
3
  9
$DIMDSEP
 70
46
  9
$DIMATFIT
 70
3
  9
$DIMFRAC
 70
0
  9
$DIMLDRBLK
  1

  9
$DIMLUNIT
 70
2
  9
$DIMLWD
 70
-2
  9
$DIMLWE
 70
-2
  9
$DIMTMOVE
 70
2
  9
$DIMFXL
 40
1.0
  9
$DIMFXLON
 70
0
  9
$DIMJOGANG
 40
0.785398163397
  9
$DIMTFILL
 70
0
  9
$DIMTFILLCLR
 70
0
  9
$DIMARCSYM
 70
0
  9
$DIMLTYPE
  6

  9
$DIMLTEX1
  6

  9
$DIMLTEX2
  6

  9
$DIMTXTDIRECTION
 70
0
  9
$LUNITS
 70
4
  9
$LUPREC
 70
4
  9
$SKETCHINC
 40
1.0
  9
$FILLETRAD
 40
10.0
  9
$AUNITS
 70
0
  9
$AUPREC
 70
3
  9
$MENU
  1
.
  9
$ELEVATION
 40
0.0
  9
$PELEVATION
 40
0.0
  9
$THICKNESS
 40
0.0
  9
$LIMCHECK
 70
0
  9
$CHAMFERA
 40
0.0
  9
$CHAMFERB
 40
0.0
  9
$CHAMFERC
 40
0.0
  9
$CHAMFERD
 40
0.0
  9
$SKPOLY
 70
0
  9
$TDCREATE
 40
2461302.997546296
  9
$TDUCREATE
 40
2458532.153996898
  9
$TDUPDATE
 40
2461302.997546296
  9
$TDUUPDATE
 40
2458532.1544311
  9
$TDINDWG
 40
0.0
  9
$TDUSRTIMER
 40
0.0
  9
$USRTIMER
 70
1
  9
$ANGBASE
 50
0.0
  9
$ANGDIR
 70
0
  9
$PDMODE
 70
0
  9
$PDSIZE
 40
0.0
  9
$PLINEWID
 40
0.0
  9
$SPLFRAME
 70
0
  9
$SPLINETYPE
 70
6
  9
$SPLINESEGS
 70
8
  9
$HANDSEED
  5
224
  9
$SURFTAB1
 70
6
  9
$SURFTAB2
 70
6
  9
$SURFTYPE
 70
6
  9
$SURFU
 70
6
  9
$SURFV
 70
6
  9
$UCSBASE
  2

  9
$UCSNAME
  2

  9
$UCSORG
 10
0.0
 20
0.0
 30
0.0
  9
$UCSXDIR
 10
1.0
 20
0.0
 30
0.0
  9
$UCSYDIR
 10
0.0
 20
1.0
 30
0.0
  9
$UCSORTHOREF
  2

  9
$UCSORTHOVIEW
 70
0
  9
$UCSORGTOP
 10
0.0
 20
0.0
 30
0.0
  9
$UCSORGBOTTOM
 10
0.0
 20
0.0
 30
0.0
  9
$UCSORGLEFT
 10
0.0
 20
0.0
 30
0.0
  9
$UCSORGRIGHT
 10
0.0
 20
0.0
 30
0.0
  9
$UCSORGFRONT
 10
0.0
 20
0.0
 30
0.0
  9
$UCSORGBACK
 10
0.0
 20
0.0
 30
0.0
  9
$PUCSBASE
  2

  9
$PUCSNAME
  2

  9
$PUCSORG
 10
0.0
 20
0.0
 30
0.0
  9
$PUCSXDIR
 10
1.0
 20
0.0
 30
0.0
  9
$PUCSYDIR
 10
0.0
 20
1.0
 30
0.0
  9
$PUCSORTHOREF
  2

  9
$PUCSORTHOVIEW
 70
0
  9
$PUCSORGTOP
 10
0.0
 20
0.0
 30
0.0
  9
$PUCSORGBOTTOM
 10
0.0
 20
0.0
 30
0.0
  9
$PUCSORGLEFT
 10
0.0
 20
0.0
 30
0.0
  9
$PUCSORGRIGHT
 10
0.0
 20
0.0
 30
0.0
  9
$PUCSORGFRONT
 10
0.0
 20
0.0
 30
0.0
  9
$PUCSORGBACK
 10
0.0
 20
0.0
 30
0.0
  9
$USERI1
 70
0
  9
$USERI2
 70
0
  9
$USERI3
 70
0
  9
$USERI4
 70
0
  9
$USERI5
 70
0
  9
$USERR1
 40
0.0
  9
$USERR2
 40
0.0
  9
$USERR3
 40
0.0
  9
$USERR4
 40
0.0
  9
$USERR5
 40
0.0
  9
$WORLDVIEW
 70
1
  9
$SHADEDGE
 70
3
  9
$SHADEDIF
 70
70
  9
$TILEMODE
 70
1
  9
$MAXACTVP
 70
64
  9
$PINSBASE
 10
0.0
 20
0.0
 30
0.0
  9
$PLIMCHECK
 70
0
  9
$PEXTMIN
 10
1e+20
 20
1e+20
 30
1e+20
  9
$PEXTMAX
 10
-1e+20
 20
-1e+20
 30
-1e+20
  9
$PLIMMIN
 10
0.0
 20
0.0
  9
$PLIMMAX
 10
420.0
 20
297.0
  9
$UNITMODE
 70
0
  9
$VISRETAIN
 70
1
  9
$PLINEGEN
 70
0
  9
$PSLTSCALE
 70
1
  9
$TREEDEPTH
 70
3020
  9
$CMLSTYLE
  2
Standard
  9
$CMLJUST
 70
0
  9
$CMLSCALE
 40
20.0
  9
$PROXYGRAPHICS
 70
1
  9
$MEASUREMENT
 70
0
  9
$CELWEIGHT
370
-1
  9
$ENDCAPS
280
0
  9
$JOINSTYLE
280
0
  9
$LWDISPLAY
290
0
  9
$INSUNITS
 70
1
  9
$HYPERLINKBASE
  1

  9
$STYLESHEET
  1

  9
$XEDIT
290
1
  9
$CEPSNTYPE
380
0
  9
$PSTYLEMODE
290
1
  9
$FINGERPRINTGUID
  2
{CA0B1C59-7FD0-4202-A1B1-BDCC8557C36D}
  9
$VERSIONGUID
  2
{FC029FE8-4A22-4A67-B2A9-2B83309B2F8D}
  9
$EXTNAMES
290
1
  9
$PSVPSCALE
 40
0.0
  9
$OLESTARTUP
290
0
  9
$SORTENTS
280
127
  9
$INDEXCTL
280
0
  9
$HIDETEXT
280
1
  9
$XCLIPFRAME
280
1
  9
$HALOGAP
280
0
  9
$OBSCOLOR
 70
257
  9
$OBSLTYPE
280
0
  9
$INTERSECTIONDISPLAY
280
0
  9
$INTERSECTIONCOLOR
 70
257
  9
$DIMASSOC
280
2
  9
$PROJECTNAME
  1

  9
$CAMERADISPLAY
290
0
  9
$LENSLENGTH
 40
50.0
  9
$CAMERAHEIGHT
 40
0.0
  9
$STEPSPERSEC
 40
24.0
  9
$STEPSIZE
 40
100.0
  9
$3DDWFPREC
 40
2.0
  9
$PSOLWIDTH
 40
0.005
  9
$PSOLHEIGHT
 40
0.08
  9
$LOFTANG1
 40
1.570796326795
  9
$LOFTANG2
 40
1.570796326795
  9
$LOFTMAG1
 40
0.0
  9
$LOFTMAG2
 40
0.0
  9
$LOFTPARAM
 70
7
  9
$LOFTNORMALS
280
1
  9
$LATITUDE
 40
37.795
  9
$LONGITUDE
 40
-122.394
  9
$NORTHDIRECTION
 40
0.0
  9
$TIMEZONE
 70
-8000
  9
$LIGHTGLYPHDISPLAY
280
1
  9
$TILEMODELIGHTSYNCH
280
1
  9
$CMATERIAL
347
20
  9
$SOLIDHIST
280
0
  9
$SHOWHIST
280
1
  9
$DWFFRAME
280
2
  9
$DGNFRAME
280
2
  9
$REALWORLDSCALE
290
1
  9
$INTERFERECOLOR
 62
256
  9
$CSHADOW
280
0
  9
$SHADOWPLANELOCATION
 40
0.0
  0
ENDSEC
  0
SECTION
  2
CLASSES
  0
CLASS
  1
ACDBDICTIONARYWDFLT
  2
AcDbDictionaryWithDefault
  3
ObjectDBX Classes
 90
0
 91
0
280
0
281
0
  0
CLASS
  1
SUN
  2
AcDbSun
  3
SCENEOE
 90
1153
 91
0
280
0
281
0
  0
CLASS
  1
VISUALSTYLE
  2
AcDbVisualStyle
  3
ObjectDBX Classes
 90
4095
 91
0
280
0
281
0
  0
CLASS
  1
MATERIAL
  2
AcDbMaterial
  3
ObjectDBX Classes
 90
1153
 91
0
280
0
281
0
  0
CLASS
  1
SCALE
  2
AcDbScale
  3
ObjectDBX Classes
 90
1153
 91
0
280
0
281
0
  0
CLASS
  1
TABLESTYLE
  2
AcDbTableStyle
  3
ObjectDBX Classes
 90
4095
 91
0
280
0
281
0
  0
CLASS
  1
MLEADERSTYLE
  2
AcDbMLeaderStyle
  3
ACDB_MLEADERSTYLE_CLASS
 90
4095
 91
0
280
0
281
0
  0
CLASS
  1
DICTIONARYVAR
  2
AcDbDictionaryVar
  3
ObjectDBX Classes
 90
0
 91
0
280
0
281
0
  0
CLASS
  1
CELLSTYLEMAP
  2
AcDbCellStyleMap
  3
ObjectDBX Classes
 90
1152
 91
0
280
0
281
0
  0
CLASS
  1
MENTALRAYRENDERSETTINGS
  2
AcDbMentalRayRenderSettings
  3
SCENEOE
 90
1024
 91
0
280
0
281
0
  0
CLASS
  1
ACDBDETAILVIEWSTYLE
  2
AcDbDetailViewStyle
  3
ObjectDBX Classes
 90
1025
 91
0
280
0
281
0
  0
CLASS
  1
ACDBSECTIONVIEWSTYLE
  2
AcDbSectionViewStyle
  3
ObjectDBX Classes
 90
1025
 91
0
280
0
281
0
  0
CLASS
  1
RASTERVARIABLES
  2
AcDbRasterVariables
  3
ISM
 90
0
 91
0
280
0
281
0
  0
CLASS
  1
LAYOUT
  2
AcDbLayout
  3
ObjectDBX Classes
 90
0
 91
0
280
0
281
0
  0
CLASS
  1
ACDBPLACEHOLDER
  2
AcDbPlaceHolder
  3
ObjectDBX Classes
 90
0
 91
0
280
0
281
0
  0
ENDSEC
  0
SECTION
  2
TABLES
  0
TABLE
  2
VPORT
  5
8
330
0
100
AcDbSymbolTable
 70
1
  0
VPORT
  5
23
330
8
100
AcDbSymbolTableRecord
100
AcDbViewportTableRecord
  2
*Active
 70
0
 10
0.0
 20
0.0
 11
1.0
 21
1.0
 12
0.0
 22
0.0
 13
0.0
 23
0.0
 14
0.5
 24
0.5
 15
0.5
 25
0.5
 16
0.0
 26
0.0
 36
1.0
 17
0.0
 27
0.0
 37
0.0
 40
1000.0
 41
1.34
 42
50.0
 43
0.0
 44
0.0
 50
0.0
 51
0.0
 71
0
 72
1000
 73
1
 74
3
 75
0
 76
0
 77
0
 78
0
281
0
 65
0
146
0.0
  0
ENDTAB
  0
TABLE
  2
LTYPE
  5
2
330
0
100
AcDbSymbolTable
 70
21
  0
LTYPE
  5
24
330
2
100
AcDbSymbolTableRecord
100
AcDbLinetypeTableRecord
  2
ByBlock
 70
0
  3

 72
65
 73
0
 40
0.0
  0
LTYPE
  5
25
330
2
100
AcDbSymbolTableRecord
100
AcDbLinetypeTableRecord
  2
ByLayer
 70
0
  3

 72
65
 73
0
 40
0.0
  0
LTYPE
  5
26
330
2
100
AcDbSymbolTableRecord
100
AcDbLinetypeTableRecord
  2
Continuous
 70
0
  3

 72
65
 73
0
 40
0.0
  0
LTYPE
  5
2F
330
2
100
AcDbSymbolTableRecord
100
AcDbLinetypeTableRecord
  2
CENTER
 70
0
  3
Center ____ _ ____ _ ____ _ ____ _ ____ _ ____
 72
65
 73
4
 40
2.0
 49
1.25
 74
0
 49
-0.25
 74
0
 49
0.25
 74
0
 49
-0.25
 74
0
  0
LTYPE
  5
30
330
2
100
AcDbSymbolTableRecord
100
AcDbLinetypeTableRecord
  2
CENTERX2
 70
0
  3
Center (2x) ________  __  ________  __  ________
 72
65
 73
4
 40
3.5
 49
2.5
 74
0
 49
-0.25
 74
0
 49
0.5
 74
0
 49
-0.25
 74
0
  0
LTYPE
  5
31
330
2
100
AcDbSymbolTableRecord
100
AcDbLinetypeTableRecord
  2
CENTER2
 70
0
  3
Center (.5x) ____ _ ____ _ ____ _ ____ _ ____
 72
65
 73
4
 40
1.0
 49
0.625
 74
0
 49
-0.125
 74
0
 49
0.125
 74
0
 49
-0.125
 74
0
  0
LTYPE
  5
32
330
2
100
AcDbSymbolTableRecord
100
AcDbLinetypeTableRecord
  2
DASHED
 70
0
  3
Dashed __ __ __ __ __ __ __ __ __ __ __ __ __ _
 72
65
 73
2
 40
0.6
 49
0.5
 74
0
 49
-0.1
 74
0
  0
LTYPE
  5
33
330
2
100
AcDbSymbolTableRecord
100
AcDbLinetypeTableRecord
  2
DASHEDX2
 70
0
  3
Dashed (2x) ____  ____  ____  ____  ____  ____
 72
65
 73
2
 40
1.2
 49
1.0
 74
0
 49
-0.2
 74
0
  0
LTYPE
  5
34
330
2
100
AcDbSymbolTableRecord
100
AcDbLinetypeTableRecord
  2
DASHED2
 70
0
  3
Dashed (.5x) _ _ _ _ _ _ _ _ _ _ _ _ _ _
 72
65
 73
2
 40
0.3
 49
0.25
 74
0
 49
-0.05
 74
0
  0
LTYPE
  5
35
330
2
100
AcDbSymbolTableRecord
100
AcDbLinetypeTableRecord
  2
PHANTOM
 70
0
  3
Phantom ______  __  __  ______  __  __  ______
 72
65
 73
6
 40
2.5
 49
1.25
 74
0
 49
-0.25
 74
0
 49
0.25
 74
0
 49
-0.25
 74
0
 49
0.25
 74
0
 49
-0.25
 74
0
  0
LTYPE
  5
36
330
2
100
AcDbSymbolTableRecord
100
AcDbLinetypeTableRecord
  2
PHANTOMX2
 70
0
  3
Phantom (2x)____________    ____    ____    ____________
 72
65
 73
6
 40
4.25
 49
2.5
 74
0
 49
-0.25
 74
0
 49
0.5
 74
0
 49
-0.25
 74
0
 49
0.5
 74
0
 49
-0.25
 74
0
  0
LTYPE
  5
37
330
2
100
AcDbSymbolTableRecord
100
AcDbLinetypeTableRecord
  2
PHANTOM2
 70
0
  3
Phantom (.5x) ___ _ _ ___ _ _ ___ _ _ ___ _ _ ___
 72
65
 73
6
 40
1.25
 49
0.625
 74
0
 49
-0.125
 74
0
 49
0.125
 74
0
 49
-0.125
 74
0
 49
0.125
 74
0
 49
-0.125
 74
0
  0
LTYPE
  5
38
330
2
100
AcDbSymbolTableRecord
100
AcDbLinetypeTableRecord
  2
DASHDOT
 70
0
  3
Dash dot __ . __ . __ . __ . __ . __ . __ . __
 72
65
 73
4
 40
1.4
 49
1.0
 74
0
 49
-0.2
 74
0
 49
0.0
 74
0
 49
-0.2
 74
0
  0
LTYPE
  5
39
330
2
100
AcDbSymbolTableRecord
100
AcDbLinetypeTableRecord
  2
DASHDOTX2
 70
0
  3
Dash dot (2x) ____  .  ____  .  ____  .  ____
 72
65
 73
4
 40
2.4
 49
2.0
 74
0
 49
-0.2
 74
0
 49
0.0
 74
0
 49
-0.2
 74
0
  0
LTYPE
  5
3A
330
2
100
AcDbSymbolTableRecord
100
AcDbLinetypeTableRecord
  2
DASHDOT2
 70
0
  3
Dash dot (.5x) _ . _ . _ . _ . _ . _ . _ . _
 72
65
 73
4
 40
0.7
 49
0.5
 74
0
 49
-0.1
 74
0
 49
0.0
 74
0
 49
-0.1
 74
0
  0
LTYPE
  5
3B
330
2
100
AcDbSymbolTableRecord
100
AcDbLinetypeTableRecord
  2
DOT
 70
0
  3
Dot .  .  .  .  .  .  .  .  .  .  .  .  .  .  .  .
 72
65
 73
2
 40
0.2
 49
0.0
 74
0
 49
-0.2
 74
0
  0
LTYPE
  5
3C
330
2
100
AcDbSymbolTableRecord
100
AcDbLinetypeTableRecord
  2
DOTX2
 70
0
  3
Dot (2x) .    .    .    .    .    .    .    . 
 72
65
 73
2
 40
0.4
 49
0.0
 74
0
 49
-0.4
 74
0
  0
LTYPE
  5
3D
330
2
100
AcDbSymbolTableRecord
100
AcDbLinetypeTableRecord
  2
DOT2
 70
0
  3
Dot (.5) . . . . . . . . . . . . . . . . . . . 
 72
65
 73
2
 40
0.1
 49
0.0
 74
0
 49
-0.1
 74
0
  0
LTYPE
  5
3E
330
2
100
AcDbSymbolTableRecord
100
AcDbLinetypeTableRecord
  2
DIVIDE
 70
0
  3
Divide __ . . __ . . __ . . __ . . __ . . __
 72
65
 73
6
 40
1.6
 49
1.0
 74
0
 49
-0.2
 74
0
 49
0.0
 74
0
 49
-0.2
 74
0
 49
0.0
 74
0
 49
-0.2
 74
0
  0
LTYPE
  5
3F
330
2
100
AcDbSymbolTableRecord
100
AcDbLinetypeTableRecord
  2
DIVIDEX2
 70
0
  3
Divide (2x) ____  . .  ____  . .  ____  . .  ____
 72
65
 73
6
 40
2.6
 49
2.0
 74
0
 49
-0.2
 74
0
 49
0.0
 74
0
 49
-0.2
 74
0
 49
0.0
 74
0
 49
-0.2
 74
0
  0
LTYPE
  5
40
330
2
100
AcDbSymbolTableRecord
100
AcDbLinetypeTableRecord
  2
DIVIDE2
 70
0
  3
Divide(.5x) _ . _ . _ . _ . _ . _ . _ . _
 72
65
 73
6
 40
0.8
 49
0.5
 74
0
 49
-0.1
 74
0
 49
0.0
 74
0
 49
-0.1
 74
0
 49
0.0
 74
0
 49
-0.1
 74
0
  0
ENDTAB
  0
TABLE
  2
LAYER
  5
1
330
0
100
AcDbSymbolTable
 70
14
  0
LAYER
  5
27
330
1
100
AcDbSymbolTableRecord
100
AcDbLayerTableRecord
  2
0
 70
0
 62
7
  6
Continuous
370
-3
390
13
347
21
  0
LAYER
  5
28
330
1
100
AcDbSymbolTableRecord
100
AcDbLayerTableRecord
  2
Defpoints
 70
0
 62
7
  6
Continuous
290
0
370
-3
390
13
347
21
  0
LAYER
  5
8A
330
1
100
AcDbSymbolTableRecord
100
AcDbLayerTableRecord
  2
Dressing door casing
 70
0
 62
7
  6
Continuous
370
-3
390
13
347
21
  0
LAYER
  5
8B
330
1
100
AcDbSymbolTableRecord
100
AcDbLayerTableRecord
  2
Dressing door casing hatch
 70
0
 62
8
  6
Continuous
370
-3
390
13
347
21
  0
LAYER
  5
127
330
1
100
AcDbSymbolTableRecord
100
AcDbLayerTableRecord
  2
Plain door casing
 70
0
 62
7
  6
Continuous
370
-3
390
13
347
21
  0
LAYER
  5
128
330
1
100
AcDbSymbolTableRecord
100
AcDbLayerTableRecord
  2
Plain door casing hatch
 70
0
 62
8
  6
Continuous
370
-3
390
13
347
21
  0
LAYER
  5
191
330
1
100
AcDbSymbolTableRecord
100
AcDbLayerTableRecord
  2
Head detail
 70
0
 62
7
  6
Continuous
370
-3
390
13
347
21
  0
LAYER
  5
192
330
1
100
AcDbSymbolTableRecord
100
AcDbLayerTableRecord
  2
Head detail hatch
 70
0
 62
8
  6
Continuous
370
-3
390
13
347
21
  0
LAYER
  5
1CE
330
1
100
AcDbSymbolTableRecord
100
AcDbLayerTableRecord
  2
Head section
 70
0
 62
7
  6
Continuous
370
-3
390
13
347
21
  0
LAYER
  5
1CF
330
1
100
AcDbSymbolTableRecord
100
AcDbLayerTableRecord
  2
Head section hatch
 70
0
 62
8
  6
Continuous
370
-3
390
13
347
21
  0
LAYER
  5
1D6
330
1
100
AcDbSymbolTableRecord
100
AcDbLayerTableRecord
  2
Corbel
 70
0
 62
7
  6
Continuous
370
-3
390
13
347
21
  0
LAYER
  5
1D7
330
1
100
AcDbSymbolTableRecord
100
AcDbLayerTableRecord
  2
Corbel hatch
 70
0
 62
8
  6
Continuous
370
-3
390
13
347
21
  0
LAYER
  5
1FD
330
1
100
AcDbSymbolTableRecord
100
AcDbLayerTableRecord
  2
Jamb section
 70
0
 62
7
  6
Continuous
370
-3
390
13
347
21
  0
LAYER
  5
1FE
330
1
100
AcDbSymbolTableRecord
100
AcDbLayerTableRecord
  2
Jamb section hatch
 70
0
 62
8
  6
Continuous
370
-3
390
13
347
21
  0
ENDTAB
  0
TABLE
  2
STYLE
  5
5
330
0
100
AcDbSymbolTable
 70
26
  0
STYLE
  5
29
330
5
100
AcDbSymbolTableRecord
100
AcDbTextStyleTableRecord
  2
Standard
 70
0
 40
0.0
 41
1.0
 50
0.0
 71
0
 42
2.5
  3
txt
  4

  0
STYLE
  5
41
330
5
100
AcDbSymbolTableRecord
100
AcDbTextStyleTableRecord
  2
OpenSans-Light
 70
0
 40
0.0
 41
1.0
 50
0.0
 71
0
 42
2.5
  3
OpenSans-Light.ttf
  4

  0
STYLE
  5
42
330
5
100
AcDbSymbolTableRecord
100
AcDbTextStyleTableRecord
  2
OpenSans-Light-Italic
 70
0
 40
0.0
 41
1.0
 50
0.0
 71
0
 42
2.5
  3
OpenSans-LightItalic.ttf
  4

  0
STYLE
  5
43
330
5
100
AcDbSymbolTableRecord
100
AcDbTextStyleTableRecord
  2
OpenSans
 70
0
 40
0.0
 41
1.0
 50
0.0
 71
0
 42
2.5
  3
OpenSans-Regular.ttf
  4

  0
STYLE
  5
44
330
5
100
AcDbSymbolTableRecord
100
AcDbTextStyleTableRecord
  2
OpenSans-Italic
 70
0
 40
0.0
 41
1.0
 50
0.0
 71
0
 42
2.5
  3
OpenSans-Italic.ttf
  4

  0
STYLE
  5
45
330
5
100
AcDbSymbolTableRecord
100
AcDbTextStyleTableRecord
  2
OpenSans-SemiBold
 70
0
 40
0.0
 41
1.0
 50
0.0
 71
0
 42
2.5
  3
OpenSans-SemiBold.ttf
  4

  0
STYLE
  5
46
330
5
100
AcDbSymbolTableRecord
100
AcDbTextStyleTableRecord
  2
OpenSans-SemiBoldItalic
 70
0
 40
0.0
 41
1.0
 50
0.0
 71
0
 42
2.5
  3
OpenSans-SemiBoldItalic.ttf
  4

  0
STYLE
  5
47
330
5
100
AcDbSymbolTableRecord
100
AcDbTextStyleTableRecord
  2
OpenSans-Bold
 70
0
 40
0.0
 41
1.0
 50
0.0
 71
0
 42
2.5
  3
OpenSans-Bold.ttf
  4

  0
STYLE
  5
48
330
5
100
AcDbSymbolTableRecord
100
AcDbTextStyleTableRecord
  2
OpenSans-BoldItalic
 70
0
 40
0.0
 41
1.0
 50
0.0
 71
0
 42
2.5
  3
OpenSans-BoldItalic.ttf
  4

  0
STYLE
  5
49
330
5
100
AcDbSymbolTableRecord
100
AcDbTextStyleTableRecord
  2
OpenSans-ExtraBold
 70
0
 40
0.0
 41
1.0
 50
0.0
 71
0
 42
2.5
  3
OpenSans-ExtraBold.ttf
  4

  0
STYLE
  5
4A
330
5
100
AcDbSymbolTableRecord
100
AcDbTextStyleTableRecord
  2
OpenSans-ExtraBoldItalic
 70
0
 40
0.0
 41
1.0
 50
0.0
 71
0
 42
2.5
  3
OpenSans-ExtraBoldItalic.ttf
  4

  0
STYLE
  5
4B
330
5
100
AcDbSymbolTableRecord
100
AcDbTextStyleTableRecord
  2
OpenSansCondensed-Bold
 70
0
 40
0.0
 41
1.0
 50
0.0
 71
0
 42
2.5
  3
OpenSansCondensed-Bold.ttf
  4

  0
STYLE
  5
4C
330
5
100
AcDbSymbolTableRecord
100
AcDbTextStyleTableRecord
  2
OpenSansCondensed-Light
 70
0
 40
0.0
 41
1.0
 50
0.0
 71
0
 42
2.5
  3
OpenSansCondensed-Light.ttf
  4

  0
STYLE
  5
4D
330
5
100
AcDbSymbolTableRecord
100
AcDbTextStyleTableRecord
  2
OpenSansCondensed-Italic
 70
0
 40
0.0
 41
1.0
 50
0.0
 71
0
 42
2.5
  3
OpenSansCondensed-LightItalic.ttf
  4

  0
STYLE
  5
4E
330
5
100
AcDbSymbolTableRecord
100
AcDbTextStyleTableRecord
  2
LiberationSans
 70
0
 40
0.0
 41
1.0
 50
0.0
 71
0
 42
2.5
  3
LiberationSans-Regular.ttf
  4

  0
STYLE
  5
4F
330
5
100
AcDbSymbolTableRecord
100
AcDbTextStyleTableRecord
  2
LiberationSans-Bold
 70
0
 40
0.0
 41
1.0
 50
0.0
 71
0
 42
2.5
  3
LiberationSans-Bold.ttf
  4

  0
STYLE
  5
50
330
5
100
AcDbSymbolTableRecord
100
AcDbTextStyleTableRecord
  2
LiberationSans-BoldItalic
 70
0
 40
0.0
 41
1.0
 50
0.0
 71
0
 42
2.5
  3
LiberationSans-BoldItalic.ttf
  4

  0
STYLE
  5
51
330
5
100
AcDbSymbolTableRecord
100
AcDbTextStyleTableRecord
  2
LiberationSans-Italic
 70
0
 40
0.0
 41
1.0
 50
0.0
 71
0
 42
2.5
  3
LiberationSans-Italic.ttf
  4

  0
STYLE
  5
52
330
5
100
AcDbSymbolTableRecord
100
AcDbTextStyleTableRecord
  2
LiberationSerif
 70
0
 40
0.0
 41
1.0
 50
0.0
 71
0
 42
2.5
  3
LiberationSerif-Regular.ttf
  4

  0
STYLE
  5
53
330
5
100
AcDbSymbolTableRecord
100
AcDbTextStyleTableRecord
  2
LiberationSerif-Bold
 70
0
 40
0.0
 41
1.0
 50
0.0
 71
0
 42
2.5
  3
LiberationSerif-Bold.ttf
  4

  0
STYLE
  5
54
330
5
100
AcDbSymbolTableRecord
100
AcDbTextStyleTableRecord
  2
LiberationSerif-BoldItalic
 70
0
 40
0.0
 41
1.0
 50
0.0
 71
0
 42
2.5
  3
LiberationSerif-BoldItalic.ttf
  4

  0
STYLE
  5
55
330
5
100
AcDbSymbolTableRecord
100
AcDbTextStyleTableRecord
  2
LiberationSerif-Italic
 70
0
 40
0.0
 41
1.0
 50
0.0
 71
0
 42
2.5
  3
LiberationSerif-Italic.ttf
  4

  0
STYLE
  5
56
330
5
100
AcDbSymbolTableRecord
100
AcDbTextStyleTableRecord
  2
LiberationMono
 70
0
 40
0.0
 41
1.0
 50
0.0
 71
0
 42
2.5
  3
LiberationMono-Regular.ttf
  4

  0
STYLE
  5
57
330
5
100
AcDbSymbolTableRecord
100
AcDbTextStyleTableRecord
  2
LiberationMono-Bold
 70
0
 40
0.0
 41
1.0
 50
0.0
 71
0
 42
2.5
  3
LiberationMono-Bold.ttf
  4

  0
STYLE
  5
58
330
5
100
AcDbSymbolTableRecord
100
AcDbTextStyleTableRecord
  2
LiberationMono-BoldItalic
 70
0
 40
0.0
 41
1.0
 50
0.0
 71
0
 42
2.5
  3
LiberationMono-BoldItalic.ttf
  4

  0
STYLE
  5
59
330
5
100
AcDbSymbolTableRecord
100
AcDbTextStyleTableRecord
  2
LiberationMono-Italic
 70
0
 40
0.0
 41
1.0
 50
0.0
 71
0
 42
2.5
  3
LiberationMono-Italic.ttf
  4

  0
ENDTAB
  0
TABLE
  2
VIEW
  5
7
330
0
100
AcDbSymbolTable
 70
0
  0
ENDTAB
  0
TABLE
  2
UCS
  5
6
330
0
100
AcDbSymbolTable
 70
0
  0
ENDTAB
  0
TABLE
  2
APPID
  5
3
330
0
100
AcDbSymbolTable
 70
3
  0
APPID
  5
2A
330
3
100
AcDbSymbolTableRecord
100
AcDbRegAppTableRecord
  2
ACAD
 70
0
  0
APPID
  5
221
330
3
100
AcDbSymbolTableRecord
100
AcDbRegAppTableRecord
  2
HATCHBACKGROUNDCOLOR
 70
0
  0
APPID
  5
222
330
3
100
AcDbSymbolTableRecord
100
AcDbRegAppTableRecord
  2
EZDXF
 70
0
  0
ENDTAB
  0
TABLE
  2
DIMSTYLE
  5
4
330
0
100
AcDbSymbolTable
 70
12
100
AcDbDimStyleTable
  0
DIMSTYLE
105
2B
330
4
100
AcDbSymbolTableRecord
100
AcDbDimStyleTableRecord
  2
Standard
 70
0
 40
1.0
 41
2.5
 42
0.625
 43
3.75
 44
1.25
 45
0.0
 46
0.0
 47
0.0
 48
0.0
 49
2.5
140
2.5
141
2.5
142
0.0
143
0.03937007874
144
1.0
145
0.0
146
1.0
147
0.625
148
0.0
 69
0
 70
0
 71
0
 72
0
 73
0
 74
0
 75
0
 76
0
 77
1
 78
8
 79
3
170
0
171
3
172
1
173
0
174
0
175
0
176
0
177
0
178
0
179
2
271
2
272
2
273
2
274
3
275
0
276
0
277
2
278
44
279
0
280
0
281
0
282
0
283
0
284
8
285
0
286
0
288
0
289
3
290
0
371
-2
372
-2
  0
DIMSTYLE
105
73
330
4
100
AcDbSymbolTableRecord
100
AcDbDimStyleTableRecord
  2
EZDXF
 70
0
 40
1.0
 41
0.175
 42
0.125
 43
3.75
 44
0.375
 45
0.0
 46
0.0
 47
0.0
 48
0.0
 49
2.5
140
0.25
141
2.5
142
0.0
143
0.03937007874
144
100.0
145
0.0
146
0.5
147
0.1
148
0.0
 69
0
 70
0
 71
0
 72
0
 73
0
 74
0
 75
0
 76
0
 77
1
 78
12
 79
3
170
0
171
3
172
1
173
0
174
0
175
0
176
0
177
0
178
0
179
2
271
2
272
2
273
2
274
3
275
0
276
0
277
2
278
46
279
2
280
0
281
0
282
0
283
0
284
8
285
0
286
0
288
1
289
3
290
0
340
4C
342
74
371
-2
372
-2
  0
DIMSTYLE
105
7C
330
4
100
AcDbSymbolTableRecord
100
AcDbDimStyleTableRecord
  2
EZ_M_100_H25_CM
 70
0
 40
1.0
 41
0.25
 42
0.125
 43
3.75
 44
0.375
 45
0.0
 46
0.0
 47
0.0
 48
0.0
 49
2.5
140
0.25
141
2.5
142
0.125
143
0.03937007874
144
100.0
145
0.0
146
0.5
147
0.1
148
0.0
 69
0
 70
0
 71
0
 72
0
 73
0
 74
0
 75
0
 76
0
 77
1
 78
12
 79
3
170
0
171
3
172
1
173
0
174
0
175
0
176
0
177
0
178
0
179
2
271
2
272
2
273
2
274
3
275
0
276
0
277
2
278
46
279
2
280
0
281
0
282
0
283
0
284
8
285
0
286
0
288
1
289
3
290
0
340
4C
371
-2
372
-2
  0
DIMSTYLE
105
7D
330
4
100
AcDbSymbolTableRecord
100
AcDbDimStyleTableRecord
  2
EZ_M_50_H25_CM
 70
0
 40
1.0
 41
0.125
 42
0.0625
 43
3.75
 44
0.1875
 45
0.0
 46
0.0
 47
0.0
 48
0.0
 49
2.5
140
0.125
141
2.5
142
0.0625
143
0.03937007874
144
100.0
145
0.0
146
0.5
147
0.05
148
0.0
 69
0
 70
0
 71
0
 72
0
 73
0
 74
0
 75
0
 76
0
 77
1
 78
12
 79
3
170
0
171
3
172
1
173
0
174
0
175
0
176
0
177
0
178
0
179
2
271
2
272
2
273
2
274
3
275
0
276
0
277
2
278
46
279
2
280
0
281
0
282
0
283
0
284
8
285
0
286
0
288
1
289
3
290
0
340
4C
371
-2
372
-2
  0
DIMSTYLE
105
7E
330
4
100
AcDbSymbolTableRecord
100
AcDbDimStyleTableRecord
  2
EZ_M_25_H25_CM
 70
0
 40
1.0
 41
0.0625
 42
0.03125
 43
3.75
 44
0.09375
 45
0.0
 46
0.0
 47
0.0
 48
0.0
 49
2.5
140
0.0625
141
2.5
142
0.03125
143
0.03937007874
144
100.0
145
0.0
146
0.5
147
0.025
148
0.0
 69
0
 70
0
 71
0
 72
0
 73
0
 74
0
 75
0
 76
0
 77
1
 78
12
 79
3
170
0
171
3
172
1
173
0
174
0
175
0
176
0
177
0
178
0
179
2
271
2
272
2
273
2
274
3
275
0
276
0
277
2
278
46
279
2
280
0
281
0
282
0
283
0
284
8
285
0
286
0
288
1
289
3
290
0
340
4C
371
-2
372
-2
  0
DIMSTYLE
105
7F
330
4
100
AcDbSymbolTableRecord
100
AcDbDimStyleTableRecord
  2
EZ_M_20_H25_CM
 70
0
 40
1.0
 41
0.05
 42
0.025
 43
3.75
 44
0.07500000000000001
 45
0.0
 46
0.0
 47
0.0
 48
0.0
 49
2.5
140
0.05
141
2.5
142
0.025
143
0.03937007874
144
100.0
145
0.0
146
0.5
147
0.020000000000000004
148
0.0
 69
0
 70
0
 71
0
 72
0
 73
0
 74
0
 75
0
 76
0
 77
1
 78
12
 79
3
170
0
171
3
172
1
173
0
174
0
175
0
176
0
177
0
178
0
179
2
271
2
272
2
273
2
274
3
275
0
276
0
277
2
278
46
279
2
280
0
281
0
282
0
283
0
284
8
285
0
286
0
288
1
289
3
290
0
340
4C
371
-2
372
-2
  0
DIMSTYLE
105
80
330
4
100
AcDbSymbolTableRecord
100
AcDbDimStyleTableRecord
  2
EZ_M_10_H25_CM
 70
0
 40
1.0
 41
0.025
 42
0.0125
 43
3.75
 44
0.037500000000000006
 45
0.0
 46
0.0
 47
0.0
 48
0.0
 49
2.5
140
0.025
141
2.5
142
0.0125
143
0.03937007874
144
100.0
145
0.0
146
0.5
147
0.010000000000000002
148
0.0
 69
0
 70
0
 71
0
 72
0
 73
0
 74
0
 75
0
 76
0
 77
1
 78
12
 79
3
170
0
171
3
172
1
173
0
174
0
175
0
176
0
177
0
178
0
179
2
271
2
272
2
273
2
274
3
275
0
276
0
277
2
278
46
279
2
280
0
281
0
282
0
283
0
284
8
285
0
286
0
288
1
289
3
290
0
340
4C
371
-2
372
-2
  0
DIMSTYLE
105
81
330
4
100
AcDbSymbolTableRecord
100
AcDbDimStyleTableRecord
  2
EZ_M_5_H25_CM
 70
0
 40
1.0
 41
0.0125
 42
0.00625
 43
3.75
 44
0.018750000000000003
 45
0.0
 46
0.0
 47
0.0
 48
0.0
 49
2.5
140
0.0125
141
2.5
142
0.00625
143
0.03937007874
144
100.0
145
0.0
146
0.5
147
0.005000000000000001
148
0.0
 69
0
 70
0
 71
0
 72
0
 73
0
 74
0
 75
0
 76
0
 77
1
 78
12
 79
3
170
0
171
3
172
1
173
0
174
0
175
0
176
0
177
0
178
0
179
2
271
2
272
2
273
2
274
3
275
0
276
0
277
2
278
46
279
2
280
0
281
0
282
0
283
0
284
8
285
0
286
0
288
1
289
3
290
0
340
4C
371
-2
372
-2
  0
DIMSTYLE
105
82
330
4
100
AcDbSymbolTableRecord
100
AcDbDimStyleTableRecord
  2
EZ_M_1_H25_CM
 70
0
 40
1.0
 41
0.0025
 42
0.00125
 43
3.75
 44
0.00375
 45
0.0
 46
0.0
 47
0.0
 48
0.0
 49
2.5
140
0.0025
141
2.5
142
0.00125
143
0.03937007874
144
100.0
145
0.0
146
0.5
147
0.001
148
0.0
 69
0
 70
0
 71
0
 72
0
 73
0
 74
0
 75
0
 76
0
 77
1
 78
12
 79
3
170
0
171
3
172
1
173
0
174
0
175
0
176
0
177
0
178
0
179
2
271
2
272
2
273
2
274
3
275
0
276
0
277
2
278
46
279
2
280
0
281
0
282
0
283
0
284
8
285
0
286
0
288
1
289
3
290
0
340
4C
371
-2
372
-2
  0
DIMSTYLE
105
83
330
4
100
AcDbSymbolTableRecord
100
AcDbDimStyleTableRecord
  2
EZ_RADIUS
 70
0
 40
1.0
 41
0.25
 42
0.125
 43
3.75
 44
0.375
 45
0.0
 46
0.0
 47
0.0
 48
0.0
 49
2.5
140
0.25
141
0.0
142
0.0
143
0.03937007874
144
100.0
145
0.0
146
0.5
147
0.1
148
0.0
 69
0
 70
0
 71
0
 72
0
 73
0
 74
0
 75
0
 76
0
 77
1
 78
12
 79
3
170
0
171
3
172
0
173
0
174
0
175
0
176
0
177
0
178
0
179
2
271
2
272
2
273
2
274
3
275
0
276
0
277
2
278
46
279
1
280
0
281
0
282
0
283
0
284
8
285
0
286
0
288
1
289
3
290
0
340
4C
342
84
371
-2
372
-2
  0
DIMSTYLE
105
88
330
4
100
AcDbSymbolTableRecord
100
AcDbDimStyleTableRecord
  2
EZ_RADIUS_INSIDE
 70
0
 40
1.0
 41
0.25
 42
0.125
 43
3.75
 44
0.375
 45
0.0
 46
0.0
 47
0.0
 48
0.0
 49
2.5
140
0.25
141
0.0
142
0.0
143
0.03937007874
144
100.0
145
0.0
146
0.5
147
0.1
148
0.0
 69
0
 70
0
 71
0
 72
0
 73
0
 74
0
 75
0
 76
0
 77
0
 78
12
 79
3
170
0
171
3
172
0
173
0
174
1
175
0
176
0
177
0
178
0
179
2
271
2
272
2
273
2
274
3
275
0
276
0
277
2
278
46
279
0
280
0
281
0
282
0
283
0
284
8
285
0
286
0
288
1
289
0
290
0
340
4C
342
84
371
-2
372
-2
  0
DIMSTYLE
105
89
330
4
100
AcDbSymbolTableRecord
100
AcDbDimStyleTableRecord
  2
EZ_CURVED
 70
0
 40
1.0
 41
0.25
 42
0.125
 43
3.75
 44
0.375
 45
0.0
 46
0.0
 47
0.0
 48
0.0
 49
2.5
140
0.25
141
2.5
142
0.0
143
0.03937007874
144
100.0
145
0.0
146
0.5
147
0.1
148
0.0
 69
0
 70
0
 71
0
 72
0
 73
0
 74
0
 75
0
 76
0
 77
1
 78
12
 79
2
 90
2
170
0
171
3
172
1
173
0
174
0
175
0
176
0
177
0
178
0
179
2
271
2
272
2
273
2
274
3
275
0
276
0
277
2
278
46
279
2
280
0
281
0
282
0
283
0
284
8
285
0
286
0
288
1
289
3
290
0
340
4C
371
-2
372
-2
  0
ENDTAB
  0
TABLE
  2
BLOCK_RECORD
  5
9
330
0
100
AcDbSymbolTable
 70
5
  0
BLOCK_RECORD
  5
17
330
9
100
AcDbSymbolTableRecord
100
AcDbBlockTableRecord
  2
*Model_Space
340
1A
 70
0
280
1
281
0
  0
BLOCK_RECORD
  5
1B
330
9
100
AcDbSymbolTableRecord
100
AcDbBlockTableRecord
  2
*Paper_Space
340
1E
 70
0
280
1
281
0
  0
BLOCK_RECORD
  5
74
330
9
100
AcDbSymbolTableRecord
100
AcDbBlockTableRecord
  2
_ARCHTICK
340
0
 70
0
280
1
281
0
  0
BLOCK_RECORD
  5
78
330
9
100
AcDbSymbolTableRecord
100
AcDbBlockTableRecord
  2
_CLOSEDFILLED
340
0
 70
0
280
1
281
0
  0
BLOCK_RECORD
  5
84
330
9
100
AcDbSymbolTableRecord
100
AcDbBlockTableRecord
  2
_CLOSEDBLANK
340
0
 70
0
280
1
281
0
  0
ENDTAB
  0
ENDSEC
  0
SECTION
  2
BLOCKS
  0
BLOCK
  5
18
330
17
100
AcDbEntity
  8
0
100
AcDbBlockBegin
  2
*Model_Space
 70
0
 10
0.0
 20
0.0
 30
0.0
  3
*Model_Space
  1

  0
ENDBLK
  5
19
330
17
100
AcDbEntity
  8
0
100
AcDbBlockEnd
  0
BLOCK
  5
1C
330
1B
100
AcDbEntity
  8
0
100
AcDbBlockBegin
  2
*Paper_Space
 70
0
 10
0.0
 20
0.0
 30
0.0
  3
*Paper_Space
  1

  0
ENDBLK
  5
1D
330
1B
100
AcDbEntity
  8
0
100
AcDbBlockEnd
  0
BLOCK
  5
75
330
74
100
AcDbEntity
  8
0
100
AcDbBlockBegin
  2
_ARCHTICK
 70
0
 10
0.0
 20
0.0
 30
0.0
  3
_ARCHTICK
  1

  0
LWPOLYLINE
  5
77
330
74
100
AcDbEntity
  8
0
  6
BYBLOCK
 62
0
100
AcDbPolyline
 90
2
 70
0
 43
0.15
 10
-0.5
 20
-0.5
 10
0.5
 20
0.5
  0
ENDBLK
  5
76
330
74
100
AcDbEntity
  8
0
100
AcDbBlockEnd
  0
BLOCK
  5
79
330
78
100
AcDbEntity
  8
0
100
AcDbBlockBegin
  2
_CLOSEDFILLED
 70
0
 10
0.0
 20
0.0
 30
0.0
  3
_CLOSEDFILLED
  1

  0
SOLID
  5
7B
330
78
100
AcDbEntity
  8
0
  6
BYBLOCK
 62
0
100
AcDbTrace
 10
-1.0
 20
0.16439898372402537
 30
0.0
 11
0.0
 21
0.0
 31
0.0
 12
-1.0
 22
-0.16439898372402537
 32
0.0
 13
-1.0
 23
-0.16439898372402537
 33
0.0
  0
ENDBLK
  5
7A
330
78
100
AcDbEntity
  8
0
100
AcDbBlockEnd
  0
BLOCK
  5
85
330
84
100
AcDbEntity
  8
0
100
AcDbBlockBegin
  2
_CLOSEDBLANK
 70
0
 10
0.0
 20
0.0
 30
0.0
  3
_CLOSEDBLANK
  1

  0
LWPOLYLINE
  5
87
330
84
100
AcDbEntity
  8
0
  6
BYBLOCK
 62
0
100
AcDbPolyline
 90
3
 70
1
 10
-1.0
 20
0.16439898372402537
 10
0.0
 20
0.0
 10
-1.0
 20
-0.16439898372402537
  0
ENDBLK
  5
86
330
84
100
AcDbEntity
  8
0
100
AcDbBlockEnd
  0
ENDSEC
  0
SECTION
  2
ENTITIES
  0
LWPOLYLINE
  5
8C
330
17
100
AcDbEntity
  8
Dressing door casing
100
AcDbPolyline
 90
5
 70
0
 10
13.503937007874015
 20
90.98425196850394
 10
43.503937007874015
 20
90.98425196850394
 10
43.503937007874015
 20
0.0
 10
13.503937007874015
 20
0.0
 10
13.503937007874015
 20
90.98425196850394
  0
LWPOLYLINE
  5
8D
330
17
100
AcDbEntity
  8
Dressing door casing
100
AcDbPolyline
 90
5
 70
0
 10
11.496062992125985
 20
91.51968503937007
 10
45.511811023622045
 20
91.51968503937007
 10
45.511811023622045
 20
0.0
 10
11.496062992125985
 20
0.0
 10
11.496062992125985
 20
91.51968503937007
  0
LWPOLYLINE
  5
8E
330
17
100
AcDbEntity
  8
Dressing door casing
100
AcDbPolyline
 90
5
 70
0
 10
7.480314960629921
 20
90.98425196850394
 10
13.503937007874015
 20
90.98425196850394
 10
13.503937007874015
 20
9.055118110236222
 10
7.480314960629921
 20
9.055118110236222
 10
7.480314960629921
 20
90.98425196850394
  0
LINE
  5
8F
330
17
100
AcDbEntity
  8
Dressing door casing
100
AcDbLine
 10
11.496062992125983
 20
90.98425196850394
 30
0.0
 11
11.496062992125983
 21
9.05511811023622
 31
0.0
  0
LINE
  5
90
330
17
100
AcDbEntity
  8
Dressing door casing
100
AcDbLine
 10
8.12992125984252
 20
37.00787401574803
 30
0.0
 11
8.12992125984252
 21
9.291338582677165
 31
0.0
  0
LINE
  5
91
330
17
100
AcDbEntity
  8
Dressing door casing
100
AcDbLine
 10
8.582677165354331
 20
37.00787401574803
 30
0.0
 11
8.582677165354331
 21
9.291338582677165
 31
0.0
  0
LINE
  5
92
330
17
100
AcDbEntity
  8
Dressing door casing
100
AcDbLine
 10
9.03543307086614
 20
37.00787401574803
 30
0.0
 11
9.03543307086614
 21
9.291338582677165
 31
0.0
  0
LINE
  5
93
330
17
100
AcDbEntity
  8
Dressing door casing
100
AcDbLine
 10
9.488188976377952
 20
37.00787401574803
 30
0.0
 11
9.488188976377952
 21
9.291338582677165
 31
0.0
  0
LINE
  5
94
330
17
100
AcDbEntity
  8
Dressing door casing
100
AcDbLine
 10
9.940944881889763
 20
37.00787401574803
 30
0.0
 11
9.940944881889763
 21
9.291338582677165
 31
0.0
  0
LINE
  5
95
330
17
100
AcDbEntity
  8
Dressing door casing
100
AcDbLine
 10
10.393700787401574
 20
37.00787401574803
 30
0.0
 11
10.393700787401574
 21
9.291338582677165
 31
0.0
  0
LINE
  5
96
330
17
100
AcDbEntity
  8
Dressing door casing
100
AcDbLine
 10
10.846456692913385
 20
37.00787401574803
 30
0.0
 11
10.846456692913385
 21
9.291338582677165
 31
0.0
  0
LINE
  5
97
330
17
100
AcDbEntity
  8
Dressing door casing
100
AcDbLine
 10
8.12992125984252
 20
90.74803149606299
 30
0.0
 11
8.12992125984252
 21
43.031496062992126
 31
0.0
  0
LINE
  5
98
330
17
100
AcDbEntity
  8
Dressing door casing
100
AcDbLine
 10
8.582677165354331
 20
90.74803149606299
 30
0.0
 11
8.582677165354331
 21
43.031496062992126
 31
0.0
  0
LINE
  5
99
330
17
100
AcDbEntity
  8
Dressing door casing
100
AcDbLine
 10
9.03543307086614
 20
90.74803149606299
 30
0.0
 11
9.03543307086614
 21
43.031496062992126
 31
0.0
  0
LINE
  5
9A
330
17
100
AcDbEntity
  8
Dressing door casing
100
AcDbLine
 10
9.488188976377952
 20
90.74803149606299
 30
0.0
 11
9.488188976377952
 21
43.031496062992126
 31
0.0
  0
LINE
  5
9B
330
17
100
AcDbEntity
  8
Dressing door casing
100
AcDbLine
 10
9.940944881889763
 20
90.74803149606299
 30
0.0
 11
9.940944881889763
 21
43.031496062992126
 31
0.0
  0
LINE
  5
9C
330
17
100
AcDbEntity
  8
Dressing door casing
100
AcDbLine
 10
10.393700787401574
 20
90.74803149606299
 30
0.0
 11
10.393700787401574
 21
43.031496062992126
 31
0.0
  0
LINE
  5
9D
330
17
100
AcDbEntity
  8
Dressing door casing
100
AcDbLine
 10
10.846456692913385
 20
90.74803149606299
 30
0.0
 11
10.846456692913385
 21
43.031496062992126
 31
0.0
  0
LWPOLYLINE
  5
9E
330
17
100
AcDbEntity
  8
Dressing door casing
100
AcDbPolyline
 90
5
 70
0
 10
7.480314960629921
 20
43.03149606299212
 10
13.503937007874015
 20
43.03149606299212
 10
13.503937007874015
 20
37.00787401574803
 10
7.480314960629921
 20
37.00787401574803
 10
7.480314960629921
 20
43.03149606299212
  0
CIRCLE
  5
9F
330
17
100
AcDbEntity
  8
Dressing door casing
100
AcDbCircle
 10
10.492125984251969
 20
40.01968503937008
 30
0.0
 40
46.0
  0
CIRCLE
  5
A0
330
17
100
AcDbEntity
  8
Dressing door casing
100
AcDbCircle
 10
10.492125984251969
 20
40.01968503937008
 30
0.0
 40
33.0
  0
LWPOLYLINE
  5
A1
330
17
100
AcDbEntity
  8
Dressing door casing
100
AcDbPolyline
 90
5
 70
0
 10
7.480314960629921
 20
9.055118110236222
 10
13.503937007874015
 20
9.055118110236222
 10
13.503937007874015
 20
0.0
 10
7.480314960629921
 20
0.0
 10
7.480314960629921
 20
9.055118110236222
  0
LINE
  5
A2
330
17
100
AcDbEntity
  8
Dressing door casing
100
AcDbLine
 10
7.480314960629921
 20
8.503937007874015
 30
0.0
 11
13.503937007874015
 21
8.503937007874015
 31
0.0
  0
LINE
  5
A3
330
17
100
AcDbEntity
  8
Dressing door casing
100
AcDbLine
 10
7.480314960629921
 20
4.015748031496063
 30
0.0
 11
13.503937007874015
 21
4.015748031496063
 31
0.0
  0
LWPOLYLINE
  5
A4
330
17
100
AcDbEntity
  8
Dressing door casing
100
AcDbPolyline
 90
5
 70
0
 10
43.503937007874015
 20
90.98425196850394
 10
49.527559055118104
 20
90.98425196850394
 10
49.527559055118104
 20
9.055118110236222
 10
43.503937007874015
 20
9.055118110236222
 10
43.503937007874015
 20
90.98425196850394
  0
LINE
  5
A5
330
17
100
AcDbEntity
  8
Dressing door casing
100
AcDbLine
 10
45.511811023622045
 20
90.98425196850394
 30
0.0
 11
45.511811023622045
 21
9.05511811023622
 31
0.0
  0
LINE
  5
A6
330
17
100
AcDbEntity
  8
Dressing door casing
100
AcDbLine
 10
46.161417322834644
 20
37.00787401574803
 30
0.0
 11
46.161417322834644
 21
9.291338582677165
 31
0.0
  0
LINE
  5
A7
330
17
100
AcDbEntity
  8
Dressing door casing
100
AcDbLine
 10
46.61417322834646
 20
37.00787401574803
 30
0.0
 11
46.61417322834646
 21
9.291338582677165
 31
0.0
  0
LINE
  5
A8
330
17
100
AcDbEntity
  8
Dressing door casing
100
AcDbLine
 10
47.06692913385827
 20
37.00787401574803
 30
0.0
 11
47.06692913385827
 21
9.291338582677165
 31
0.0
  0
LINE
  5
A9
330
17
100
AcDbEntity
  8
Dressing door casing
100
AcDbLine
 10
47.51968503937008
 20
37.00787401574803
 30
0.0
 11
47.51968503937008
 21
9.291338582677165
 31
0.0
  0
LINE
  5
AA
330
17
100
AcDbEntity
  8
Dressing door casing
100
AcDbLine
 10
47.97244094488189
 20
37.00787401574803
 30
0.0
 11
47.97244094488189
 21
9.291338582677165
 31
0.0
  0
LINE
  5
AB
330
17
100
AcDbEntity
  8
Dressing door casing
100
AcDbLine
 10
48.425196850393704
 20
37.00787401574803
 30
0.0
 11
48.425196850393704
 21
9.291338582677165
 31
0.0
  0
LINE
  5
AC
330
17
100
AcDbEntity
  8
Dressing door casing
100
AcDbLine
 10
48.87795275590551
 20
37.00787401574803
 30
0.0
 11
48.87795275590551
 21
9.291338582677165
 31
0.0
  0
LINE
  5
AD
330
17
100
AcDbEntity
  8
Dressing door casing
100
AcDbLine
 10
46.161417322834644
 20
90.74803149606299
 30
0.0
 11
46.161417322834644
 21
43.031496062992126
 31
0.0
  0
LINE
  5
AE
330
17
100
AcDbEntity
  8
Dressing door casing
100
AcDbLine
 10
46.61417322834646
 20
90.74803149606299
 30
0.0
 11
46.61417322834646
 21
43.031496062992126
 31
0.0
  0
LINE
  5
AF
330
17
100
AcDbEntity
  8
Dressing door casing
100
AcDbLine
 10
47.06692913385827
 20
90.74803149606299
 30
0.0
 11
47.06692913385827
 21
43.031496062992126
 31
0.0
  0
LINE
  5
B0
330
17
100
AcDbEntity
  8
Dressing door casing
100
AcDbLine
 10
47.51968503937008
 20
90.74803149606299
 30
0.0
 11
47.51968503937008
 21
43.031496062992126
 31
0.0
  0
LINE
  5
B1
330
17
100
AcDbEntity
  8
Dressing door casing
100
AcDbLine
 10
47.97244094488189
 20
90.74803149606299
 30
0.0
 11
47.97244094488189
 21
43.031496062992126
 31
0.0
  0
LINE
  5
B2
330
17
100
AcDbEntity
  8
Dressing door casing
100
AcDbLine
 10
48.425196850393704
 20
90.74803149606299
 30
0.0
 11
48.425196850393704
 21
43.031496062992126
 31
0.0
  0
LINE
  5
B3
330
17
100
AcDbEntity
  8
Dressing door casing
100
AcDbLine
 10
48.87795275590551
 20
90.74803149606299
 30
0.0
 11
48.87795275590551
 21
43.031496062992126
 31
0.0
  0
LWPOLYLINE
  5
B4
330
17
100
AcDbEntity
  8
Dressing door casing
100
AcDbPolyline
 90
5
 70
0
 10
43.503937007874015
 20
43.03149606299212
 10
49.527559055118104
 20
43.03149606299212
 10
49.527559055118104
 20
37.00787401574803
 10
43.503937007874015
 20
37.00787401574803
 10
43.503937007874015
 20
43.03149606299212
  0
CIRCLE
  5
B5
330
17
100
AcDbEntity
  8
Dressing door casing
100
AcDbCircle
 10
46.51574803149606
 20
40.01968503937008
 30
0.0
 40
46.0
  0
CIRCLE
  5
B6
330
17
100
AcDbEntity
  8
Dressing door casing
100
AcDbCircle
 10
46.51574803149606
 20
40.01968503937008
 30
0.0
 40
33.0
  0
LWPOLYLINE
  5
B7
330
17
100
AcDbEntity
  8
Dressing door casing
100
AcDbPolyline
 90
5
 70
0
 10
43.503937007874015
 20
9.055118110236222
 10
49.527559055118104
 20
9.055118110236222
 10
49.527559055118104
 20
0.0
 10
43.503937007874015
 20
0.0
 10
43.503937007874015
 20
9.055118110236222
  0
LINE
  5
B8
330
17
100
AcDbEntity
  8
Dressing door casing
100
AcDbLine
 10
43.503937007874015
 20
8.503937007874015
 30
0.0
 11
49.52755905511811
 21
8.503937007874015
 31
0.0
  0
LINE
  5
B9
330
17
100
AcDbEntity
  8
Dressing door casing
100
AcDbLine
 10
43.503937007874015
 20
4.015748031496063
 30
0.0
 11
49.52755905511811
 21
4.015748031496063
 31
0.0
  0
LWPOLYLINE
  5
BA
330
17
100
AcDbEntity
  8
Dressing door casing
100
AcDbPolyline
 90
5
 70
0
 10
13.503937007874015
 20
92.32283464566929
 10
43.503937007874015
 20
92.32283464566929
 10
43.503937007874015
 20
90.98425196850394
 10
13.503937007874015
 20
90.98425196850394
 10
13.503937007874015
 20
92.32283464566929
  0
LWPOLYLINE
  5
BB
330
17
100
AcDbEntity
  8
Dressing door casing
100
AcDbPolyline
 90
5
 70
0
 10
13.503937007874015
 20
92.79527559055117
 10
43.503937007874015
 20
92.79527559055117
 10
43.503937007874015
 20
92.32283464566929
 10
13.503937007874015
 20
92.32283464566929
 10
13.503937007874015
 20
92.79527559055117
  0
LWPOLYLINE
  5
BC
330
17
100
AcDbEntity
  8
Dressing door casing
100
AcDbPolyline
 90
5
 70
0
 10
13.503937007874015
 20
94.60629921259842
 10
43.503937007874015
 20
94.60629921259842
 10
43.503937007874015
 20
92.79527559055117
 10
13.503937007874015
 20
92.79527559055117
 10
13.503937007874015
 20
94.60629921259842
  0
SPLINE
  5
BD
330
17
100
AcDbEntity
  8
Dressing door casing
100
AcDbSpline
 70
0
 71
3
 72
23
 73
19
 74
0
 40
0.0
 40
0.0
 40
0.0
 40
0.0
 40
1.0
 40
1.0
 40
1.0
 40
2.0
 40
2.0
 40
2.0
 40
3.0
 40
3.0
 40
3.0
 40
4.0
 40
4.0
 40
4.0
 40
5.0
 40
5.0
 40
5.0
 40
6.0
 40
6.0
 40
6.0
 40
6.0
 10
13.503937007874015
 20
92.79527559055117
 30
0.0
 10
13.503937010918012
 20
92.67558784973248
 30
0.0
 10
13.535449047224091
 20
92.55798333912873
 30
0.0
 10
13.595292919377872
 20
92.45433071606533
 30
0.0
 10
13.655136791531657
 20
92.35067809300192
 30
0.0
 10
13.741229270058904
 20
92.2645856166318
 30
0.0
 10
13.844881894621764
 20
92.20474174707515
 30
0.0
 10
13.948534519184623
 20
92.14489787751849
 30
0.0
 10
14.066139030577936
 20
92.11338584415911
 30
0.0
 10
14.185826771396632
 20
92.11338584411402
 30
0.0
 10
14.305514512215327
 20
92.11338584406893
 30
0.0
 10
14.423119023632388
 20
92.14489787733969
 30
0.0
 10
14.526771648240342
 20
92.20474174681824
 30
0.0
 10
14.630424272848293
 20
92.26458561629678
 30
0.0
 10
14.716516751440414
 20
92.35067809260202
 30
0.0
 10
14.776360623672302
 20
92.45433071562034
 30
0.0
 10
14.836204495904187
 20
92.55798333863865
 30
0.0
 10
14.867716532298887
 20
92.67558784973248
 30
0.0
 10
14.86771653543307
 20
92.79527559055117
 30
0.0
  0
SPLINE
  5
BE
330
17
100
AcDbEntity
  8
Dressing door casing
100
AcDbSpline
 70
0
 71
3
 72
23
 73
19
 74
0
 40
0.0
 40
0.0
 40
0.0
 40
0.0
 40
1.0
 40
1.0
 40
1.0
 40
2.0
 40
2.0
 40
2.0
 40
3.0
 40
3.0
 40
3.0
 40
4.0
 40
4.0
 40
4.0
 40
5.0
 40
5.0
 40
5.0
 40
6.0
 40
6.0
 40
6.0
 40
6.0
 10
14.86771653543307
 20
92.79527559055117
 30
0.0
 10
14.870547767878474
 20
92.67747284176144
 30
0.0
 10
14.903867323129425
 20
92.56239121033808
 30
0.0
 10
14.964412846849248
 20
92.46129846550903
 30
0.0
 10
15.02495837056907
 20
92.36020572068
 30
0.0
 10
15.110687168998496
 20
92.27651254429725
 30
0.0
 10
15.213205441103026
 20
92.21841342739967
 30
0.0
 10
15.315723713207557
 20
92.1603143105021
 30
0.0
 10
15.43157268248692
 20
92.12976940961677
 30
0.0
 10
15.549409448818896
 20
92.12976940961677
 30
0.0
 10
15.667246215150875
 20
92.12976940961677
 30
0.0
 10
15.783095184430238
 20
92.16031431050209
 30
0.0
 10
15.885613456534767
 20
92.21841342739967
 30
0.0
 10
15.9881317286393
 20
92.27651254429725
 30
0.0
 10
16.073860527068724
 20
92.36020572068
 30
0.0
 10
16.134406050788545
 20
92.46129846550903
 30
0.0
 10
16.19495157450837
 20
92.56239121033808
 30
0.0
 10
16.22827112975932
 20
92.67747284176144
 30
0.0
 10
16.231102362204723
 20
92.79527559055117
 30
0.0
  0
SPLINE
  5
BF
330
17
100
AcDbEntity
  8
Dressing door casing
100
AcDbSpline
 70
0
 71
3
 72
23
 73
19
 74
0
 40
0.0
 40
0.0
 40
0.0
 40
0.0
 40
1.0
 40
1.0
 40
1.0
 40
2.0
 40
2.0
 40
2.0
 40
3.0
 40
3.0
 40
3.0
 40
4.0
 40
4.0
 40
4.0
 40
5.0
 40
5.0
 40
5.0
 40
6.0
 40
6.0
 40
6.0
 40
6.0
 10
16.231102362204723
 20
92.79527559055117
 30
0.0
 10
16.231102362204723
 20
92.67558784774386
 30
0.0
 10
16.26261439656695
 20
92.55798333445418
 30
0.0
 10
16.32245826797061
 20
92.45433070866142
 30
0.0
 10
16.382302139374275
 20
92.35067808286865
 30
0.0
 10
16.468394618301726
 20
92.2645856039412
 30
0.0
 10
16.572047244094488
 20
92.20474173253754
 30
0.0
 10
16.67569986988725
 20
92.14489786113387
 30
0.0
 10
16.793304383176928
 20
92.11338582677165
 30
0.0
 10
16.912992125984253
 20
92.11338582677165
 30
0.0
 10
17.03267986879158
 20
92.11338582677165
 30
0.0
 10
17.150284382081253
 20
92.14489786113387
 30
0.0
 10
17.25393700787402
 20
92.20474173253754
 30
0.0
 10
17.35758963366678
 20
92.2645856039412
 30
0.0
 10
17.443682112594228
 20
92.35067808286865
 30
0.0
 10
17.503525983997893
 20
92.45433070866142
 30
0.0
 10
17.563369855401557
 20
92.55798333445418
 30
0.0
 10
17.59488188976378
 20
92.67558784774386
 30
0.0
 10
17.59488188976378
 20
92.79527559055117
 30
0.0
  0
SPLINE
  5
C0
330
17
100
AcDbEntity
  8
Dressing door casing
100
AcDbSpline
 70
0
 71
3
 72
23
 73
19
 74
0
 40
0.0
 40
0.0
 40
0.0
 40
0.0
 40
1.0
 40
1.0
 40
1.0
 40
2.0
 40
2.0
 40
2.0
 40
3.0
 40
3.0
 40
3.0
 40
4.0
 40
4.0
 40
4.0
 40
5.0
 40
5.0
 40
5.0
 40
6.0
 40
6.0
 40
6.0
 40
6.0
 10
17.59488188976378
 20
92.79527559055117
 30
0.0
 10
17.594881892807773
 20
92.67558784973248
 30
0.0
 10
17.626393929113856
 20
92.55798333912873
 30
0.0
 10
17.686237801267637
 20
92.45433071606533
 30
0.0
 10
17.74608167342142
 20
92.35067809300192
 30
0.0
 10
17.832174151948667
 20
92.2645856166318
 30
0.0
 10
17.935826776511526
 20
92.20474174707515
 30
0.0
 10
18.039479401074384
 20
92.14489787751849
 30
0.0
 10
18.1570839124677
 20
92.11338584415911
 30
0.0
 10
18.2767716532864
 20
92.11338584411402
 30
0.0
 10
18.396459394105094
 20
92.11338584406893
 30
0.0
 10
18.514063905522153
 20
92.14489787733969
 30
0.0
 10
18.617716530130107
 20
92.20474174681824
 30
0.0
 10
18.721369154738056
 20
92.26458561629678
 30
0.0
 10
18.807461633330178
 20
92.35067809260202
 30
0.0
 10
18.867305505562065
 20
92.45433071562034
 30
0.0
 10
18.927149377793953
 20
92.55798333863865
 30
0.0
 10
18.95866141418865
 20
92.67558784973248
 30
0.0
 10
18.958661417322833
 20
92.79527559055117
 30
0.0
  0
SPLINE
  5
C1
330
17
100
AcDbEntity
  8
Dressing door casing
100
AcDbSpline
 70
0
 71
3
 72
23
 73
19
 74
0
 40
0.0
 40
0.0
 40
0.0
 40
0.0
 40
1.0
 40
1.0
 40
1.0
 40
2.0
 40
2.0
 40
2.0
 40
3.0
 40
3.0
 40
3.0
 40
4.0
 40
4.0
 40
4.0
 40
5.0
 40
5.0
 40
5.0
 40
6.0
 40
6.0
 40
6.0
 40
6.0
 10
18.958661417322833
 20
92.79527559055117
 30
0.0
 10
18.961492649768243
 20
92.67747284176144
 30
0.0
 10
18.994812205019198
 20
92.56239121033808
 30
0.0
 10
19.055357728739022
 20
92.46129846550905
 30
0.0
 10
19.115903252458846
 20
92.36020572068
 30
0.0
 10
19.20163205088827
 20
92.27651254429728
 30
0.0
 10
19.304150322992797
 20
92.2184134273997
 30
0.0
 10
19.406668595097326
 20
92.16031431050212
 30
0.0
 10
19.522517564376685
 20
92.12976940961678
 30
0.0
 10
19.64035433070866
 20
92.12976940961678
 30
0.0
 10
19.758191097040633
 20
92.12976940961678
 30
0.0
 10
19.874040066319996
 20
92.16031431050212
 30
0.0
 10
19.976558338424525
 20
92.2184134273997
 30
0.0
 10
20.079076610529054
 20
92.27651254429728
 30
0.0
 10
20.16480540895848
 20
92.36020572068
 30
0.0
 10
20.225350932678303
 20
92.46129846550905
 30
0.0
 10
20.285896456398127
 20
92.56239121033808
 30
0.0
 10
20.31921601164908
 20
92.67747284176144
 30
0.0
 10
20.322047244094488
 20
92.79527559055117
 30
0.0
  0
SPLINE
  5
C2
330
17
100
AcDbEntity
  8
Dressing door casing
100
AcDbSpline
 70
0
 71
3
 72
23
 73
19
 74
0
 40
0.0
 40
0.0
 40
0.0
 40
0.0
 40
1.0
 40
1.0
 40
1.0
 40
2.0
 40
2.0
 40
2.0
 40
3.0
 40
3.0
 40
3.0
 40
4.0
 40
4.0
 40
4.0
 40
5.0
 40
5.0
 40
5.0
 40
6.0
 40
6.0
 40
6.0
 40
6.0
 10
20.322047244094488
 20
92.79527559055117
 30
0.0
 10
20.32204724713848
 20
92.67558784973248
 30
0.0
 10
20.353559283444564
 20
92.55798333912873
 30
0.0
 10
20.413403155598346
 20
92.45433071606533
 30
0.0
 10
20.473247027752127
 20
92.35067809300192
 30
0.0
 10
20.559339506279375
 20
92.2645856166318
 30
0.0
 10
20.662992130842234
 20
92.20474174707515
 30
0.0
 10
20.766644755405093
 20
92.14489787751849
 30
0.0
 10
20.88424926679841
 20
92.11338584415911
 30
0.0
 10
21.003937007617107
 20
92.11338584411402
 30
0.0
 10
21.1236247484358
 20
92.11338584406893
 30
0.0
 10
21.24122925985286
 20
92.14489787733969
 30
0.0
 10
21.344881884460815
 20
92.20474174681824
 30
0.0
 10
21.448534509068764
 20
92.26458561629678
 30
0.0
 10
21.534626987660886
 20
92.35067809260202
 30
0.0
 10
21.594470859892773
 20
92.45433071562034
 30
0.0
 10
21.65431473212466
 20
92.55798333863865
 30
0.0
 10
21.68582676851936
 20
92.67558784973248
 30
0.0
 10
21.68582677165354
 20
92.79527559055117
 30
0.0
  0
SPLINE
  5
C3
330
17
100
AcDbEntity
  8
Dressing door casing
100
AcDbSpline
 70
0
 71
3
 72
23
 73
19
 74
0
 40
0.0
 40
0.0
 40
0.0
 40
0.0
 40
1.0
 40
1.0
 40
1.0
 40
2.0
 40
2.0
 40
2.0
 40
3.0
 40
3.0
 40
3.0
 40
4.0
 40
4.0
 40
4.0
 40
5.0
 40
5.0
 40
5.0
 40
6.0
 40
6.0
 40
6.0
 40
6.0
 10
21.68582677165354
 20
92.79527559055117
 30
0.0
 10
21.688658004098947
 20
92.67747284176144
 30
0.0
 10
21.721977559349906
 20
92.56239121033808
 30
0.0
 10
21.78252308306973
 20
92.46129846550905
 30
0.0
 10
21.843068606789554
 20
92.36020572068
 30
0.0
 10
21.928797405218976
 20
92.27651254429728
 30
0.0
 10
22.031315677323505
 20
92.2184134273997
 30
0.0
 10
22.133833949428034
 20
92.16031431050212
 30
0.0
 10
22.249682918707393
 20
92.12976940961678
 30
0.0
 10
22.36751968503937
 20
92.12976940961678
 30
0.0
 10
22.48535645137134
 20
92.12976940961678
 30
0.0
 10
22.601205420650704
 20
92.16031431050212
 30
0.0
 10
22.703723692755233
 20
92.2184134273997
 30
0.0
 10
22.806241964859762
 20
92.27651254429728
 30
0.0
 10
22.891970763289187
 20
92.36020572068
 30
0.0
 10
22.95251628700901
 20
92.46129846550905
 30
0.0
 10
23.013061810728836
 20
92.56239121033808
 30
0.0
 10
23.046381365979787
 20
92.67747284176144
 30
0.0
 10
23.049212598425196
 20
92.79527559055117
 30
0.0
  0
SPLINE
  5
C4
330
17
100
AcDbEntity
  8
Dressing door casing
100
AcDbSpline
 70
0
 71
3
 72
23
 73
19
 74
0
 40
0.0
 40
0.0
 40
0.0
 40
0.0
 40
1.0
 40
1.0
 40
1.0
 40
2.0
 40
2.0
 40
2.0
 40
3.0
 40
3.0
 40
3.0
 40
4.0
 40
4.0
 40
4.0
 40
5.0
 40
5.0
 40
5.0
 40
6.0
 40
6.0
 40
6.0
 40
6.0
 10
23.049212598425196
 20
92.79527559055117
 30
0.0
 10
23.04921260146919
 20
92.67558784973248
 30
0.0
 10
23.080724637775273
 20
92.55798333912873
 30
0.0
 10
23.140568509929054
 20
92.45433071606533
 30
0.0
 10
23.200412382082835
 20
92.35067809300192
 30
0.0
 10
23.286504860610084
 20
92.2645856166318
 30
0.0
 10
23.390157485172942
 20
92.20474174707515
 30
0.0
 10
23.4938101097358
 20
92.14489787751849
 30
0.0
 10
23.611414621129118
 20
92.11338584415911
 30
0.0
 10
23.731102361947816
 20
92.11338584411402
 30
0.0
 10
23.85079010276651
 20
92.11338584406893
 30
0.0
 10
23.96839461418357
 20
92.14489787733969
 30
0.0
 10
24.072047238791523
 20
92.20474174681824
 30
0.0
 10
24.175699863399476
 20
92.26458561629678
 30
0.0
 10
24.261792341991594
 20
92.35067809260202
 30
0.0
 10
24.32163621422348
 20
92.45433071562034
 30
0.0
 10
24.38148008645537
 20
92.55798333863865
 30
0.0
 10
24.41299212285007
 20
92.67558784973248
 30
0.0
 10
24.412992125984253
 20
92.79527559055117
 30
0.0
  0
SPLINE
  5
C5
330
17
100
AcDbEntity
  8
Dressing door casing
100
AcDbSpline
 70
0
 71
3
 72
23
 73
19
 74
0
 40
0.0
 40
0.0
 40
0.0
 40
0.0
 40
1.0
 40
1.0
 40
1.0
 40
2.0
 40
2.0
 40
2.0
 40
3.0
 40
3.0
 40
3.0
 40
4.0
 40
4.0
 40
4.0
 40
5.0
 40
5.0
 40
5.0
 40
6.0
 40
6.0
 40
6.0
 40
6.0
 10
24.412992125984253
 20
92.79527559055117
 30
0.0
 10
24.412992128136683
 20
92.675587848892
 30
0.0
 10
24.444504164009295
 20
92.55798333725703
 30
0.0
 10
24.5043480361881
 20
92.45433071323754
 30
0.0
 10
24.564191908366904
 20
92.35067808921806
 30
0.0
 10
24.650284387347412
 20
92.2645856120512
 30
0.0
 10
24.753937012627578
 20
92.20474174205597
 30
0.0
 10
24.857589637907743
 20
92.14489787206074
 30
0.0
 10
24.97519415020655
 20
92.11338583866562
 30
0.0
 10
25.09488189186574
 20
92.11338583903456
 30
0.0
 10
25.214569633524928
 20
92.1133858394035
 30
0.0
 10
25.332174145629455
 20
92.14489787352368
 30
0.0
 10
25.43582677054068
 20
92.20474174415793
 30
0.0
 10
25.539479395451902
 20
92.2645856147922
 30
0.0
 10
25.62557187390164
 20
92.35067809248983
 30
0.0
 10
25.685415745441418
 20
92.45433071687825
 30
0.0
 10
25.745259616981194
 20
92.55798334126666
 30
0.0
 10
25.776771652128765
 20
92.675587848892
 30
0.0
 10
25.77677165354331
 20
92.79527559055117
 30
0.0
  0
SPLINE
  5
C6
330
17
100
AcDbEntity
  8
Dressing door casing
100
AcDbSpline
 70
0
 71
3
 72
23
 73
19
 74
0
 40
0.0
 40
0.0
 40
0.0
 40
0.0
 40
1.0
 40
1.0
 40
1.0
 40
2.0
 40
2.0
 40
2.0
 40
3.0
 40
3.0
 40
3.0
 40
4.0
 40
4.0
 40
4.0
 40
5.0
 40
5.0
 40
5.0
 40
6.0
 40
6.0
 40
6.0
 40
6.0
 10
25.77677165354331
 20
92.79527559055117
 30
0.0
 10
25.779602885988716
 20
92.67747284176144
 30
0.0
 10
25.81292244123967
 20
92.56239121033808
 30
0.0
 10
25.873467964959495
 20
92.46129846550905
 30
0.0
 10
25.93401348867932
 20
92.36020572068
 30
0.0
 10
26.01974228710874
 20
92.27651254429728
 30
0.0
 10
26.12226055921327
 20
92.2184134273997
 30
0.0
 10
26.224778831317796
 20
92.16031431050212
 30
0.0
 10
26.340627800597158
 20
92.12976940961678
 30
0.0
 10
26.458464566929134
 20
92.12976940961678
 30
0.0
 10
26.576301333261107
 20
92.12976940961678
 30
0.0
 10
26.692150302540472
 20
92.16031431050212
 30
0.0
 10
26.794668574644998
 20
92.2184134273997
 30
0.0
 10
26.897186846749527
 20
92.27651254429728
 30
0.0
 10
26.982915645178952
 20
92.36020572068
 30
0.0
 10
27.043461168898776
 20
92.46129846550905
 30
0.0
 10
27.1040066926186
 20
92.56239121033808
 30
0.0
 10
27.137326247869552
 20
92.67747284176144
 30
0.0
 10
27.14015748031496
 20
92.79527559055117
 30
0.0
  0
SPLINE
  5
C7
330
17
100
AcDbEntity
  8
Dressing door casing
100
AcDbSpline
 70
0
 71
3
 72
23
 73
19
 74
0
 40
0.0
 40
0.0
 40
0.0
 40
0.0
 40
1.0
 40
1.0
 40
1.0
 40
2.0
 40
2.0
 40
2.0
 40
3.0
 40
3.0
 40
3.0
 40
4.0
 40
4.0
 40
4.0
 40
5.0
 40
5.0
 40
5.0
 40
6.0
 40
6.0
 40
6.0
 40
6.0
 10
27.14015748031496
 20
92.79527559055117
 30
0.0
 10
27.140157483358955
 20
92.67558784973248
 30
0.0
 10
27.171669519665038
 20
92.55798333912873
 30
0.0
 10
27.23151339181882
 20
92.45433071606533
 30
0.0
 10
27.2913572639726
 20
92.35067809300192
 30
0.0
 10
27.377449742499852
 20
92.2645856166318
 30
0.0
 10
27.48110236706271
 20
92.20474174707515
 30
0.0
 10
27.58475499162557
 20
92.14489787751849
 30
0.0
 10
27.702359503018886
 20
92.11338584415911
 30
0.0
 10
27.82204724383758
 20
92.11338584411402
 30
0.0
 10
27.94173498465628
 20
92.11338584406893
 30
0.0
 10
28.05933949607334
 20
92.14489787733969
 30
0.0
 10
28.16299212068129
 20
92.20474174681824
 30
0.0
 10
28.266644745289245
 20
92.26458561629678
 30
0.0
 10
28.35273722388137
 20
92.35067809260202
 30
0.0
 10
28.412581096113254
 20
92.45433071562034
 30
0.0
 10
28.472424968345138
 20
92.55798333863865
 30
0.0
 10
28.503937004739832
 20
92.67558784973248
 30
0.0
 10
28.503937007874015
 20
92.79527559055117
 30
0.0
  0
SPLINE
  5
C8
330
17
100
AcDbEntity
  8
Dressing door casing
100
AcDbSpline
 70
0
 71
3
 72
23
 73
19
 74
0
 40
0.0
 40
0.0
 40
0.0
 40
0.0
 40
1.0
 40
1.0
 40
1.0
 40
2.0
 40
2.0
 40
2.0
 40
3.0
 40
3.0
 40
3.0
 40
4.0
 40
4.0
 40
4.0
 40
5.0
 40
5.0
 40
5.0
 40
6.0
 40
6.0
 40
6.0
 40
6.0
 10
28.503937007874015
 20
92.79527559055117
 30
0.0
 10
28.503937010918012
 20
92.67558784973248
 30
0.0
 10
28.535449047224088
 20
92.55798333912873
 30
0.0
 10
28.59529291937787
 20
92.45433071606533
 30
0.0
 10
28.65513679153165
 20
92.35067809300192
 30
0.0
 10
28.741229270058902
 20
92.2645856166318
 30
0.0
 10
28.84488189462176
 20
92.20474174707515
 30
0.0
 10
28.94853451918462
 20
92.14489787751849
 30
0.0
 10
29.066139030577936
 20
92.11338584415911
 30
0.0
 10
29.18582677139663
 20
92.11338584411402
 30
0.0
 10
29.30551451221533
 20
92.11338584406893
 30
0.0
 10
29.42311902363239
 20
92.14489787733969
 30
0.0
 10
29.52677164824034
 20
92.20474174681824
 30
0.0
 10
29.630424272848295
 20
92.26458561629678
 30
0.0
 10
29.71651675144042
 20
92.35067809260202
 30
0.0
 10
29.776360623672304
 20
92.45433071562034
 30
0.0
 10
29.836204495904187
 20
92.55798333863865
 30
0.0
 10
29.867716532298886
 20
92.67558784973248
 30
0.0
 10
29.867716535433072
 20
92.79527559055117
 30
0.0
  0
SPLINE
  5
C9
330
17
100
AcDbEntity
  8
Dressing door casing
100
AcDbSpline
 70
0
 71
3
 72
23
 73
19
 74
0
 40
0.0
 40
0.0
 40
0.0
 40
0.0
 40
1.0
 40
1.0
 40
1.0
 40
2.0
 40
2.0
 40
2.0
 40
3.0
 40
3.0
 40
3.0
 40
4.0
 40
4.0
 40
4.0
 40
5.0
 40
5.0
 40
5.0
 40
6.0
 40
6.0
 40
6.0
 40
6.0
 10
29.867716535433072
 20
92.79527559055117
 30
0.0
 10
29.870547767878477
 20
92.67747284176144
 30
0.0
 10
29.903867323129425
 20
92.56239121033808
 30
0.0
 10
29.96441284684925
 20
92.46129846550905
 30
0.0
 10
30.024958370569074
 20
92.36020572068
 30
0.0
 10
30.110687168998496
 20
92.27651254429728
 30
0.0
 10
30.213205441103028
 20
92.2184134273997
 30
0.0
 10
30.315723713207557
 20
92.16031431050212
 30
0.0
 10
30.43157268248692
 20
92.12976940961678
 30
0.0
 10
30.549409448818896
 20
92.12976940961678
 30
0.0
 10
30.667246215150872
 20
92.12976940961678
 30
0.0
 10
30.78309518443023
 20
92.16031431050212
 30
0.0
 10
30.88561345653476
 20
92.2184134273997
 30
0.0
 10
30.98813172863929
 20
92.27651254429728
 30
0.0
 10
31.073860527068714
 20
92.36020572068
 30
0.0
 10
31.134406050788538
 20
92.46129846550905
 30
0.0
 10
31.194951574508362
 20
92.56239121033808
 30
0.0
 10
31.228271129759317
 20
92.67747284176144
 30
0.0
 10
31.231102362204723
 20
92.79527559055117
 30
0.0
  0
SPLINE
  5
CA
330
17
100
AcDbEntity
  8
Dressing door casing
100
AcDbSpline
 70
0
 71
3
 72
23
 73
19
 74
0
 40
0.0
 40
0.0
 40
0.0
 40
0.0
 40
1.0
 40
1.0
 40
1.0
 40
2.0
 40
2.0
 40
2.0
 40
3.0
 40
3.0
 40
3.0
 40
4.0
 40
4.0
 40
4.0
 40
5.0
 40
5.0
 40
5.0
 40
6.0
 40
6.0
 40
6.0
 40
6.0
 10
31.231102362204723
 20
92.79527559055117
 30
0.0
 10
31.23110236524872
 20
92.67558784973248
 30
0.0
 10
31.262614401554796
 20
92.55798333912873
 30
0.0
 10
31.322458273708577
 20
92.45433071606533
 30
0.0
 10
31.382302145862358
 20
92.35067809300192
 30
0.0
 10
31.46839462438961
 20
92.2645856166318
 30
0.0
 10
31.57204724895247
 20
92.20474174707515
 30
0.0
 10
31.675699873515327
 20
92.14489787751849
 30
0.0
 10
31.793304384908645
 20
92.11338584415911
 30
0.0
 10
31.91299212572734
 20
92.11338584411402
 30
0.0
 10
32.03267986654603
 20
92.11338584406893
 30
0.0
 10
32.1502843779631
 20
92.14489787733969
 30
0.0
 10
32.25393700257105
 20
92.20474174681824
 30
0.0
 10
32.357589627179
 20
92.26458561629678
 30
0.0
 10
32.443682105771124
 20
92.35067809260202
 30
0.0
 10
32.50352597800301
 20
92.45433071562034
 30
0.0
 10
32.56336985023489
 20
92.55798333863865
 30
0.0
 10
32.594881886629594
 20
92.67558784973248
 30
0.0
 10
32.594881889763776
 20
92.79527559055117
 30
0.0
  0
SPLINE
  5
CB
330
17
100
AcDbEntity
  8
Dressing door casing
100
AcDbSpline
 70
0
 71
3
 72
23
 73
19
 74
0
 40
0.0
 40
0.0
 40
0.0
 40
0.0
 40
1.0
 40
1.0
 40
1.0
 40
2.0
 40
2.0
 40
2.0
 40
3.0
 40
3.0
 40
3.0
 40
4.0
 40
4.0
 40
4.0
 40
5.0
 40
5.0
 40
5.0
 40
6.0
 40
6.0
 40
6.0
 40
6.0
 10
32.594881889763776
 20
92.79527559055117
 30
0.0
 10
32.59488189280778
 20
92.67558784973248
 30
0.0
 10
32.62639392911385
 20
92.55798333912873
 30
0.0
 10
32.68623780126764
 20
92.45433071606533
 30
0.0
 10
32.746081673421415
 20
92.35067809300192
 30
0.0
 10
32.83217415194867
 20
92.2645856166318
 30
0.0
 10
32.935826776511526
 20
92.20474174707515
 30
0.0
 10
33.03947940107438
 20
92.14489787751849
 30
0.0
 10
33.1570839124677
 20
92.11338584415911
 30
0.0
 10
33.276771653286396
 20
92.11338584411402
 30
0.0
 10
33.396459394105094
 20
92.11338584406893
 30
0.0
 10
33.51406390552216
 20
92.14489787733969
 30
0.0
 10
33.6177165301301
 20
92.20474174681824
 30
0.0
 10
33.721369154738056
 20
92.26458561629678
 30
0.0
 10
33.807461633330185
 20
92.35067809260202
 30
0.0
 10
33.867305505562065
 20
92.45433071562034
 30
0.0
 10
33.92714937779395
 20
92.55798333863865
 30
0.0
 10
33.95866141418865
 20
92.67558784973248
 30
0.0
 10
33.95866141732283
 20
92.79527559055117
 30
0.0
  0
SPLINE
  5
CC
330
17
100
AcDbEntity
  8
Dressing door casing
100
AcDbSpline
 70
0
 71
3
 72
23
 73
19
 74
0
 40
0.0
 40
0.0
 40
0.0
 40
0.0
 40
1.0
 40
1.0
 40
1.0
 40
2.0
 40
2.0
 40
2.0
 40
3.0
 40
3.0
 40
3.0
 40
4.0
 40
4.0
 40
4.0
 40
5.0
 40
5.0
 40
5.0
 40
6.0
 40
6.0
 40
6.0
 40
6.0
 10
33.95866141732283
 20
92.79527559055117
 30
0.0
 10
33.96149264976824
 20
92.67747284176144
 30
0.0
 10
33.994812205019194
 20
92.56239121033808
 30
0.0
 10
34.05535772873902
 20
92.46129846550905
 30
0.0
 10
34.11590325245884
 20
92.36020572068
 30
0.0
 10
34.201632050888264
 20
92.27651254429728
 30
0.0
 10
34.30415032299279
 20
92.2184134273997
 30
0.0
 10
34.40666859509732
 20
92.16031431050212
 30
0.0
 10
34.522517564376685
 20
92.12976940961678
 30
0.0
 10
34.64035433070866
 20
92.12976940961678
 30
0.0
 10
34.75819109704064
 20
92.12976940961678
 30
0.0
 10
34.87404006631999
 20
92.16031431050212
 30
0.0
 10
34.976558338424525
 20
92.2184134273997
 30
0.0
 10
35.07907661052906
 20
92.27651254429728
 30
0.0
 10
35.16480540895848
 20
92.36020572068
 30
0.0
 10
35.2253509326783
 20
92.46129846550905
 30
0.0
 10
35.28589645639813
 20
92.56239121033808
 30
0.0
 10
35.31921601164908
 20
92.67747284176144
 30
0.0
 10
35.322047244094485
 20
92.79527559055117
 30
0.0
  0
SPLINE
  5
CD
330
17
100
AcDbEntity
  8
Dressing door casing
100
AcDbSpline
 70
0
 71
3
 72
23
 73
19
 74
0
 40
0.0
 40
0.0
 40
0.0
 40
0.0
 40
1.0
 40
1.0
 40
1.0
 40
2.0
 40
2.0
 40
2.0
 40
3.0
 40
3.0
 40
3.0
 40
4.0
 40
4.0
 40
4.0
 40
5.0
 40
5.0
 40
5.0
 40
6.0
 40
6.0
 40
6.0
 40
6.0
 10
35.322047244094485
 20
92.79527559055117
 30
0.0
 10
35.322047244094485
 20
92.67558784774386
 30
0.0
 10
35.35355927845671
 20
92.55798333445418
 30
0.0
 10
35.41340314986037
 20
92.45433070866142
 30
0.0
 10
35.47324702126404
 20
92.35067808286865
 30
0.0
 10
35.559339500191484
 20
92.2645856039412
 30
0.0
 10
35.662992125984246
 20
92.20474173253753
 30
0.0
 10
35.76664475177701
 20
92.14489786113387
 30
0.0
 10
35.88424926506669
 20
92.11338582677165
 30
0.0
 10
36.003937007874015
 20
92.11338582677165
 30
0.0
 10
36.12362475068134
 20
92.11338582677165
 30
0.0
 10
36.241229263971015
 20
92.14489786113387
 30
0.0
 10
36.344881889763776
 20
92.20474173253753
 30
0.0
 10
36.44853451555654
 20
92.2645856039412
 30
0.0
 10
36.53462699448399
 20
92.35067808286865
 30
0.0
 10
36.59447086588766
 20
92.45433070866142
 30
0.0
 10
36.65431473729132
 20
92.55798333445418
 30
0.0
 10
36.685826771653545
 20
92.67558784774386
 30
0.0
 10
36.685826771653545
 20
92.79527559055117
 30
0.0
  0
SPLINE
  5
CE
330
17
100
AcDbEntity
  8
Dressing door casing
100
AcDbSpline
 70
0
 71
3
 72
23
 73
19
 74
0
 40
0.0
 40
0.0
 40
0.0
 40
0.0
 40
1.0
 40
1.0
 40
1.0
 40
2.0
 40
2.0
 40
2.0
 40
3.0
 40
3.0
 40
3.0
 40
4.0
 40
4.0
 40
4.0
 40
5.0
 40
5.0
 40
5.0
 40
6.0
 40
6.0
 40
6.0
 40
6.0
 10
36.685826771653545
 20
92.79527559055117
 30
0.0
 10
36.68865800409895
 20
92.67747284176144
 30
0.0
 10
36.721977559349895
 20
92.56239121033808
 30
0.0
 10
36.78252308306972
 20
92.46129846550905
 30
0.0
 10
36.843068606789544
 20
92.36020572068
 30
0.0
 10
36.92879740521897
 20
92.27651254429728
 30
0.0
 10
37.0313156773235
 20
92.2184134273997
 30
0.0
 10
37.13383394942803
 20
92.16031431050212
 30
0.0
 10
37.24968291870739
 20
92.12976940961678
 30
0.0
 10
37.36751968503937
 20
92.12976940961678
 30
0.0
 10
37.485356451371345
 20
92.12976940961678
 30
0.0
 10
37.6012054206507
 20
92.16031431050212
 30
0.0
 10
37.70372369275523
 20
92.2184134273997
 30
0.0
 10
37.806241964859765
 20
92.27651254429728
 30
0.0
 10
37.89197076328919
 20
92.36020572068
 30
0.0
 10
37.95251628700901
 20
92.46129846550905
 30
0.0
 10
38.013061810728836
 20
92.56239121033808
 30
0.0
 10
38.04638136597979
 20
92.67747284176144
 30
0.0
 10
38.0492125984252
 20
92.79527559055117
 30
0.0
  0
SPLINE
  5
CF
330
17
100
AcDbEntity
  8
Dressing door casing
100
AcDbSpline
 70
0
 71
3
 72
23
 73
19
 74
0
 40
0.0
 40
0.0
 40
0.0
 40
0.0
 40
1.0
 40
1.0
 40
1.0
 40
2.0
 40
2.0
 40
2.0
 40
3.0
 40
3.0
 40
3.0
 40
4.0
 40
4.0
 40
4.0
 40
5.0
 40
5.0
 40
5.0
 40
6.0
 40
6.0
 40
6.0
 40
6.0
 10
38.0492125984252
 20
92.79527559055117
 30
0.0
 10
38.04921260146919
 20
92.67558784973248
 30
0.0
 10
38.08072463777527
 20
92.55798333912873
 30
0.0
 10
38.140568509929054
 20
92.45433071606533
 30
0.0
 10
38.20041238208283
 20
92.35067809300192
 30
0.0
 10
38.28650486061008
 20
92.2645856166318
 30
0.0
 10
38.39015748517294
 20
92.20474174707515
 30
0.0
 10
38.4938101097358
 20
92.14489787751849
 30
0.0
 10
38.611414621129114
 20
92.11338584415911
 30
0.0
 10
38.73110236194781
 20
92.11338584411402
 30
0.0
 10
38.85079010276651
 20
92.11338584406893
 30
0.0
 10
38.968394614183566
 20
92.14489787733969
 30
0.0
 10
39.07204723879152
 20
92.20474174681824
 30
0.0
 10
39.17569986339947
 20
92.26458561629678
 30
0.0
 10
39.2617923419916
 20
92.35067809260202
 30
0.0
 10
39.32163621422348
 20
92.45433071562034
 30
0.0
 10
39.38148008645537
 20
92.55798333863865
 30
0.0
 10
39.41299212285006
 20
92.67558784973248
 30
0.0
 10
39.41299212598425
 20
92.79527559055117
 30
0.0
  0
SPLINE
  5
D0
330
17
100
AcDbEntity
  8
Dressing door casing
100
AcDbSpline
 70
0
 71
3
 72
23
 73
19
 74
0
 40
0.0
 40
0.0
 40
0.0
 40
0.0
 40
1.0
 40
1.0
 40
1.0
 40
2.0
 40
2.0
 40
2.0
 40
3.0
 40
3.0
 40
3.0
 40
4.0
 40
4.0
 40
4.0
 40
5.0
 40
5.0
 40
5.0
 40
6.0
 40
6.0
 40
6.0
 40
6.0
 10
39.41299212598425
 20
92.79527559055117
 30
0.0
 10
39.41299212902825
 20
92.67558784973248
 30
0.0
 10
39.44450416533433
 20
92.55798333912873
 30
0.0
 10
39.50434803748811
 20
92.45433071606533
 30
0.0
 10
39.56419190964189
 20
92.35067809300192
 30
0.0
 10
39.65028438816914
 20
92.2645856166318
 30
0.0
 10
39.753937012731996
 20
92.20474174707515
 30
0.0
 10
39.85758963729486
 20
92.14489787751849
 30
0.0
 10
39.975194148688175
 20
92.11338584415911
 30
0.0
 10
40.09488188950687
 20
92.11338584411402
 30
0.0
 10
40.21456963032556
 20
92.11338584406893
 30
0.0
 10
40.33217414174263
 20
92.14489787733969
 30
0.0
 10
40.43582676635058
 20
92.20474174681824
 30
0.0
 10
40.53947939095853
 20
92.26458561629678
 30
0.0
 10
40.625571869550654
 20
92.35067809260202
 30
0.0
 10
40.68541574178254
 20
92.45433071562034
 30
0.0
 10
40.74525961401443
 20
92.55798333863865
 30
0.0
 10
40.77677165040912
 20
92.67558784973248
 30
0.0
 10
40.77677165354331
 20
92.79527559055117
 30
0.0
  0
SPLINE
  5
D1
330
17
100
AcDbEntity
  8
Dressing door casing
100
AcDbSpline
 70
0
 71
3
 72
23
 73
19
 74
0
 40
0.0
 40
0.0
 40
0.0
 40
0.0
 40
1.0
 40
1.0
 40
1.0
 40
2.0
 40
2.0
 40
2.0
 40
3.0
 40
3.0
 40
3.0
 40
4.0
 40
4.0
 40
4.0
 40
5.0
 40
5.0
 40
5.0
 40
6.0
 40
6.0
 40
6.0
 40
6.0
 10
40.77677165354331
 20
92.79527559055117
 30
0.0
 10
40.77960288598871
 20
92.67747284176144
 30
0.0
 10
40.812922441239664
 20
92.56239121033808
 30
0.0
 10
40.87346796495949
 20
92.46129846550905
 30
0.0
 10
40.93401348867931
 20
92.36020572068
 30
0.0
 10
41.019742287108734
 20
92.27651254429728
 30
0.0
 10
41.12226055921327
 20
92.2184134273997
 30
0.0
 10
41.2247788313178
 20
92.16031431050212
 30
0.0
 10
41.34062780059716
 20
92.12976940961678
 30
0.0
 10
41.45846456692913
 20
92.12976940961678
 30
0.0
 10
41.57630133326111
 20
92.12976940961678
 30
0.0
 10
41.69215030254047
 20
92.16031431050212
 30
0.0
 10
41.794668574644994
 20
92.2184134273997
 30
0.0
 10
41.89718684674953
 20
92.27651254429728
 30
0.0
 10
41.98291564517895
 20
92.36020572068
 30
0.0
 10
42.04346116889877
 20
92.46129846550905
 30
0.0
 10
42.1040066926186
 20
92.56239121033808
 30
0.0
 10
42.13732624786955
 20
92.67747284176144
 30
0.0
 10
42.14015748031496
 20
92.79527559055117
 30
0.0
  0
SPLINE
  5
D2
330
17
100
AcDbEntity
  8
Dressing door casing
100
AcDbSpline
 70
0
 71
3
 72
23
 73
19
 74
0
 40
0.0
 40
0.0
 40
0.0
 40
0.0
 40
1.0
 40
1.0
 40
1.0
 40
2.0
 40
2.0
 40
2.0
 40
3.0
 40
3.0
 40
3.0
 40
4.0
 40
4.0
 40
4.0
 40
5.0
 40
5.0
 40
5.0
 40
6.0
 40
6.0
 40
6.0
 40
6.0
 10
42.14015748031496
 20
92.79527559055117
 30
0.0
 10
42.140157483358955
 20
92.67558784973248
 30
0.0
 10
42.17166951966504
 20
92.55798333912873
 30
0.0
 10
42.231513391818815
 20
92.45433071606533
 30
0.0
 10
42.2913572639726
 20
92.35067809300192
 30
0.0
 10
42.37744974249985
 20
92.2645856166318
 30
0.0
 10
42.481102367062704
 20
92.20474174707515
 30
0.0
 10
42.584754991625566
 20
92.14489787751849
 30
0.0
 10
42.70235950301888
 20
92.11338584415911
 30
0.0
 10
42.82204724383758
 20
92.11338584411402
 30
0.0
 10
42.94173498465627
 20
92.11338584406893
 30
0.0
 10
43.059339496073335
 20
92.14489787733969
 30
0.0
 10
43.16299212068129
 20
92.20474174681824
 30
0.0
 10
43.26664474528924
 20
92.26458561629678
 30
0.0
 10
43.35273722388136
 20
92.35067809260202
 30
0.0
 10
43.41258109611325
 20
92.45433071562034
 30
0.0
 10
43.47242496834513
 20
92.55798333863865
 30
0.0
 10
43.503937004739825
 20
92.67558784973248
 30
0.0
 10
43.503937007874015
 20
92.79527559055117
 30
0.0
  0
LWPOLYLINE
  5
D3
330
17
100
AcDbEntity
  8
Dressing door casing
100
AcDbPolyline
 90
5
 70
0
 10
13.503937007874015
 20
95.0
 10
43.503937007874015
 20
95.0
 10
43.503937007874015
 20
94.60629921259842
 10
13.503937007874015
 20
94.60629921259842
 10
13.503937007874015
 20
95.0
  0
LWPOLYLINE
  5
D4
330
17
100
AcDbEntity
  8
Dressing door casing
100
AcDbPolyline
 90
5
 70
0
 10
13.503937007874015
 20
99.64566929133858
 10
43.503937007874015
 20
99.64566929133858
 10
43.503937007874015
 20
95.0
 10
13.503937007874015
 20
95.0
 10
13.503937007874015
 20
99.64566929133858
  0
LINE
  5
D5
330
17
100
AcDbEntity
  8
Dressing door casing
100
AcDbLine
 10
13.503937007874015
 20
98.77952755905511
 30
0.0
 11
43.503937007874015
 21
98.77952755905511
 31
0.0
  0
LWPOLYLINE
  5
D6
330
17
100
AcDbEntity
  8
Dressing door casing
100
AcDbPolyline
 90
5
 70
0
 10
6.968503937007874
 20
100.10629921259842
 10
50.5511811023622
 20
100.10629921259842
 10
50.5511811023622
 20
99.64566929133858
 10
6.968503937007874
 20
99.64566929133858
 10
6.968503937007874
 20
100.10629921259842
  0
LWPOLYLINE
  5
D7
330
17
100
AcDbEntity
  8
Dressing door casing
100
AcDbPolyline
 90
5
 70
0
 10
6.456692913385827
 20
100.66929133858267
 10
50.5511811023622
 20
100.66929133858267
 10
50.5511811023622
 20
100.10629921259842
 10
6.456692913385827
 20
100.10629921259842
 10
6.456692913385827
 20
100.66929133858267
  0
LWPOLYLINE
  5
D8
330
17
100
AcDbEntity
  8
Dressing door casing
100
AcDbPolyline
 90
7
 70
0
 10
5.708661417322835
 20
103.58267716535433
 10
51.29921259842519
 20
103.58267716535433
 10
51.29921259842519
 20
102.35905511811023
 10
50.5511811023622
 20
100.66929133858267
 10
6.456692913385827
 20
100.66929133858267
 10
5.708661417322835
 20
102.35905511811023
 10
5.708661417322835
 20
103.58267716535433
  0
LINE
  5
D9
330
17
100
AcDbEntity
  8
Dressing door casing
100
AcDbLine
 10
5.708661417322834
 20
102.35905511811023
 30
0.0
 11
51.29921259842519
 21
102.35905511811023
 31
0.0
  0
LINE
  5
DA
330
17
100
AcDbEntity
  8
Dressing door casing
100
AcDbLine
 10
5.826771653543307
 20
103.20787401574803
 30
0.0
 11
51.181102362204726
 21
103.20787401574803
 31
0.0
  0
LINE
  5
DB
330
17
100
AcDbEntity
  8
Dressing door casing
100
AcDbLine
 10
5.826771653543307
 20
102.9511811023622
 30
0.0
 11
51.181102362204726
 21
102.9511811023622
 31
0.0
  0
LINE
  5
DC
330
17
100
AcDbEntity
  8
Dressing door casing
100
AcDbLine
 10
5.826771653543307
 20
102.69448818897638
 30
0.0
 11
51.181102362204726
 21
102.69448818897638
 31
0.0
  0
LWPOLYLINE
  5
DD
330
17
100
AcDbEntity
  8
Dressing door casing
100
AcDbPolyline
 90
5
 70
0
 10
7.480314960629921
 20
99.64566929133858
 10
13.503937007874015
 20
99.64566929133858
 10
13.503937007874015
 20
88.38582677165354
 10
7.480314960629921
 20
88.38582677165354
 10
7.480314960629921
 20
99.64566929133858
  0
LINE
  5
DE
330
17
100
AcDbEntity
  8
Dressing door casing
100
AcDbLine
 10
7.480314960629921
 20
97.83464566929133
 30
0.0
 11
13.503937007874015
 21
97.83464566929133
 31
0.0
  0
LINE
  5
DF
330
17
100
AcDbEntity
  8
Dressing door casing
100
AcDbLine
 10
7.480314960629921
 20
91.45669291338582
 30
0.0
 11
13.503937007874015
 21
91.45669291338582
 31
0.0
  0
LINE
  5
E0
330
17
100
AcDbEntity
  8
Dressing door casing
100
AcDbLine
 10
7.480314960629921
 20
89.09448818897637
 30
0.0
 11
13.503937007874015
 21
89.09448818897637
 31
0.0
  0
LINE
  5
E1
330
17
100
AcDbEntity
  8
Dressing door casing
100
AcDbLine
 10
7.874015748031496
 20
97.83464566929133
 30
0.0
 11
7.874015748031496
 21
89.09448818897637
 31
0.0
  0
LINE
  5
E2
330
17
100
AcDbEntity
  8
Dressing door casing
100
AcDbLine
 10
13.11023622047244
 20
97.83464566929133
 30
0.0
 11
13.11023622047244
 21
89.09448818897637
 31
0.0
  0
SPLINE
  5
E3
330
17
100
AcDbEntity
  8
Dressing door casing
100
AcDbSpline
 70
0
 71
3
 72
8
 73
4
 74
0
 40
0.0
 40
0.0
 40
0.0
 40
0.0
 40
1.0
 40
1.0
 40
1.0
 40
1.0
 10
10.492125984251969
 20
98.11023622047243
 30
0.0
 10
10.125721784776903
 20
98.39212598425196
 30
0.0
 10
9.864566929133858
 20
98.56824146981627
 30
0.0
 10
9.708661417322835
 20
98.63858267716535
 30
0.0
  0
SPLINE
  5
E4
330
17
100
AcDbEntity
  8
Dressing door casing
100
AcDbSpline
 70
0
 71
3
 72
8
 73
4
 74
0
 40
0.0
 40
0.0
 40
0.0
 40
0.0
 40
1.0
 40
1.0
 40
1.0
 40
1.0
 10
9.708661417322835
 20
98.63858267716535
 30
0.0
 10
10.17979002624672
 20
98.5259842519685
 30
0.0
 10
10.440944881889763
 20
98.3498687664042
 30
0.0
 10
10.492125984251969
 20
98.11023622047243
 30
0.0
  0
SPLINE
  5
E5
330
17
100
AcDbEntity
  8
Dressing door casing
100
AcDbSpline
 70
0
 71
3
 72
8
 73
4
 74
0
 40
0.0
 40
0.0
 40
0.0
 40
0.0
 40
1.0
 40
1.0
 40
1.0
 40
1.0
 10
10.492125984251969
 20
98.11023622047243
 30
0.0
 10
10.183202099737532
 20
98.64776902887138
 30
0.0
 10
10.004593175853017
 20
98.98385826771653
 30
0.0
 10
9.956299212598426
 20
99.11850393700787
 30
0.0
  0
SPLINE
  5
E6
330
17
100
AcDbEntity
  8
Dressing door casing
100
AcDbSpline
 70
0
 71
3
 72
8
 73
4
 74
0
 40
0.0
 40
0.0
 40
0.0
 40
0.0
 40
1.0
 40
1.0
 40
1.0
 40
1.0
 10
9.956299212598426
 20
99.11850393700787
 30
0.0
 10
10.336351706036746
 20
98.90328083989502
 30
0.0
 10
10.51496062992126
 20
98.56719160104987
 30
0.0
 10
10.492125984251969
 20
98.11023622047243
 30
0.0
  0
SPLINE
  5
E7
330
17
100
AcDbEntity
  8
Dressing door casing
100
AcDbSpline
 70
0
 71
3
 72
8
 73
4
 74
0
 40
0.0
 40
0.0
 40
0.0
 40
0.0
 40
1.0
 40
1.0
 40
1.0
 40
1.0
 10
10.492125984251969
 20
98.11023622047243
 30
0.0
 10
10.308398950131235
 20
98.8241469816273
 30
0.0
 10
10.308398950131235
 20
99.27034120734908
 30
0.0
 10
10.492125984251969
 20
99.44881889763779
 30
0.0
  0
SPLINE
  5
E8
330
17
100
AcDbEntity
  8
Dressing door casing
100
AcDbSpline
 70
0
 71
3
 72
8
 73
4
 74
0
 40
0.0
 40
0.0
 40
0.0
 40
0.0
 40
1.0
 40
1.0
 40
1.0
 40
1.0
 10
10.492125984251969
 20
99.44881889763779
 30
0.0
 10
10.675853018372703
 20
99.16325459317585
 30
0.0
 10
10.675853018372703
 20
98.71706036745405
 30
0.0
 10
10.492125984251969
 20
98.11023622047243
 30
0.0
  0
SPLINE
  5
E9
330
17
100
AcDbEntity
  8
Dressing door casing
100
AcDbSpline
 70
0
 71
3
 72
8
 73
4
 74
0
 40
0.0
 40
0.0
 40
0.0
 40
0.0
 40
1.0
 40
1.0
 40
1.0
 40
1.0
 10
10.492125984251969
 20
98.11023622047243
 30
0.0
 10
10.433595800524934
 20
98.64776902887138
 30
0.0
 10
10.612204724409448
 20
98.98385826771653
 30
0.0
 10
11.027952755905511
 20
99.11850393700787
 30
0.0
  0
SPLINE
  5
EA
330
17
100
AcDbEntity
  8
Dressing door casing
100
AcDbSpline
 70
0
 71
3
 72
8
 73
4
 74
0
 40
0.0
 40
0.0
 40
0.0
 40
0.0
 40
1.0
 40
1.0
 40
1.0
 40
1.0
 10
11.027952755905511
 20
99.11850393700787
 30
0.0
 10
11.01535433070866
 20
98.90328083989502
 30
0.0
 10
10.836745406824146
 20
98.56719160104987
 30
0.0
 10
10.492125984251969
 20
98.11023622047243
 30
0.0
  0
SPLINE
  5
EB
330
17
100
AcDbEntity
  8
Dressing door casing
100
AcDbSpline
 70
0
 71
3
 72
8
 73
4
 74
0
 40
0.0
 40
0.0
 40
0.0
 40
0.0
 40
1.0
 40
1.0
 40
1.0
 40
1.0
 10
10.492125984251969
 20
98.11023622047243
 30
0.0
 10
10.491076115485564
 20
98.39212598425196
 30
0.0
 10
10.75223097112861
 20
98.56824146981627
 30
0.0
 10
11.275590551181104
 20
98.63858267716535
 30
0.0
  0
SPLINE
  5
EC
330
17
100
AcDbEntity
  8
Dressing door casing
100
AcDbSpline
 70
0
 71
3
 72
8
 73
4
 74
0
 40
0.0
 40
0.0
 40
0.0
 40
0.0
 40
1.0
 40
1.0
 40
1.0
 40
1.0
 10
11.275590551181104
 20
98.63858267716535
 30
0.0
 10
11.17191601049869
 20
98.5259842519685
 30
0.0
 10
10.910761154855644
 20
98.3498687664042
 30
0.0
 10
10.492125984251969
 20
98.11023622047243
 30
0.0
  0
LWPOLYLINE
  5
ED
330
17
100
AcDbEntity
  8
Dressing door casing
100
AcDbPolyline
 90
3
 70
0
 10
8.57244094488189
 20
96.45669291338582
 10
10.492125984251969
 20
97.28346456692913
 10
12.411811023622047
 20
96.45669291338582
  0
LWPOLYLINE
  5
EE
330
17
100
AcDbEntity
  8
Dressing door casing
100
AcDbPolyline
 90
3
 70
0
 10
8.61259842519685
 20
95.97007874015748
 10
10.492125984251969
 20
96.79685039370078
 10
12.371653543307087
 20
95.97007874015748
  0
LWPOLYLINE
  5
EF
330
17
100
AcDbEntity
  8
Dressing door casing
100
AcDbPolyline
 90
3
 70
0
 10
8.653149606299213
 20
95.48307086614173
 10
10.492125984251969
 20
96.30984251968503
 10
12.331102362204724
 20
95.48307086614173
  0
LWPOLYLINE
  5
F0
330
17
100
AcDbEntity
  8
Dressing door casing
100
AcDbPolyline
 90
3
 70
0
 10
8.693307086614173
 20
94.99645669291338
 10
10.492125984251969
 20
95.82322834645669
 10
12.290944881889764
 20
94.99645669291338
  0
LWPOLYLINE
  5
F1
330
17
100
AcDbEntity
  8
Dressing door casing
100
AcDbPolyline
 90
3
 70
0
 10
8.733464566929134
 20
94.50984251968504
 10
10.492125984251969
 20
95.33661417322834
 10
12.250787401574804
 20
94.50984251968504
  0
LWPOLYLINE
  5
F2
330
17
100
AcDbEntity
  8
Dressing door casing
100
AcDbPolyline
 90
3
 70
0
 10
8.774015748031497
 20
94.02283464566929
 10
10.492125984251969
 20
94.8496062992126
 10
12.210236220472442
 20
94.02283464566929
  0
LWPOLYLINE
  5
F3
330
17
100
AcDbEntity
  8
Dressing door casing
100
AcDbPolyline
 90
3
 70
0
 10
8.814173228346457
 20
93.53622047244095
 10
10.492125984251969
 20
94.36299212598425
 10
12.17007874015748
 20
93.53622047244095
  0
LWPOLYLINE
  5
F4
330
17
100
AcDbEntity
  8
Dressing door casing
100
AcDbPolyline
 90
3
 70
0
 10
8.854724409448819
 20
93.04921259842519
 10
10.492125984251969
 20
93.8759842519685
 10
12.129527559055118
 20
93.04921259842519
  0
LWPOLYLINE
  5
F5
330
17
100
AcDbEntity
  8
Dressing door casing
100
AcDbPolyline
 90
3
 70
0
 10
8.894881889763779
 20
92.56259842519684
 10
10.492125984251969
 20
93.38937007874016
 10
12.089370078740156
 20
92.56259842519684
  0
LWPOLYLINE
  5
F6
330
17
100
AcDbEntity
  8
Dressing door casing
100
AcDbPolyline
 90
3
 70
0
 10
8.93503937007874
 20
92.07598425196849
 10
10.492125984251969
 20
92.90275590551181
 10
12.049212598425196
 20
92.07598425196849
  0
LWPOLYLINE
  5
F7
330
17
100
AcDbEntity
  8
Dressing door casing
100
AcDbPolyline
 90
3
 70
0
 10
8.975590551181103
 20
91.58897637795275
 10
10.492125984251969
 20
92.41574803149607
 10
12.008661417322834
 20
91.58897637795275
  0
LWPOLYLINE
  5
F8
330
17
100
AcDbEntity
  8
Dressing door casing
100
AcDbPolyline
 90
3
 70
0
 10
9.015748031496063
 20
91.1023622047244
 10
10.492125984251969
 20
91.9291338582677
 10
11.968503937007874
 20
91.1023622047244
  0
LINE
  5
F9
330
17
100
AcDbEntity
  8
Dressing door casing
100
AcDbLine
 10
8.503937007874015
 20
97.28346456692913
 30
0.0
 11
9.015748031496063
 21
91.10236220472441
 31
0.0
  0
LINE
  5
FA
330
17
100
AcDbEntity
  8
Dressing door casing
100
AcDbLine
 10
12.48031496062992
 20
97.28346456692913
 30
0.0
 11
11.968503937007874
 21
91.10236220472441
 31
0.0
  0
LWPOLYLINE
  5
FB
330
17
100
AcDbEntity
  8
Dressing door casing
100
AcDbPolyline
 90
5
 70
0
 10
8.60236220472441
 20
91.02362204724409
 10
12.381889763779528
 20
91.02362204724409
 10
12.381889763779528
 20
89.48818897637796
 10
8.60236220472441
 20
89.48818897637796
 10
8.60236220472441
 20
91.02362204724409
  0
LWPOLYLINE
  5
FC
330
17
100
AcDbEntity
  8
Dressing door casing
100
AcDbPolyline
 90
5
 70
0
 10
10.492125984251969
 20
91.02362204724409
 10
12.066929133858267
 20
90.25590551181102
 10
10.492125984251969
 20
89.48818897637796
 10
8.917322834645669
 20
90.25590551181102
 10
10.492125984251969
 20
91.02362204724409
  0
LWPOLYLINE
  5
FD
330
17
100
AcDbEntity
  8
Dressing door casing
100
AcDbPolyline
 90
5
 70
0
 10
10.492125984251969
 20
90.7011811023622
 10
11.405511811023622
 20
90.25590551181102
 10
10.492125984251969
 20
89.81062992125985
 10
9.578740157480315
 20
90.25590551181102
 10
10.492125984251969
 20
90.7011811023622
  0
LWPOLYLINE
  5
FE
330
17
100
AcDbEntity
  8
Dressing door casing
100
AcDbPolyline
 90
5
 70
0
 10
9.939370078740158
 20
90.73110236220472
 10
11.04488188976378
 20
90.73110236220472
 10
11.04488188976378
 20
89.78031496062992
 10
9.939370078740158
 20
89.78031496062992
 10
9.939370078740158
 20
90.73110236220472
  0
LINE
  5
FF
330
17
100
AcDbEntity
  8
Dressing door casing
100
AcDbLine
 10
9.704724409448819
 20
90.63976377952756
 30
0.0
 11
11.279527559055119
 21
89.87204724409449
 31
0.0
  0
LINE
  5
100
330
17
100
AcDbEntity
  8
Dressing door casing
100
AcDbLine
 10
9.704724409448819
 20
89.87204724409449
 30
0.0
 11
11.279527559055119
 21
90.63976377952756
 31
0.0
  0
LWPOLYLINE
  5
101
330
17
100
AcDbEntity
  8
Dressing door casing
100
AcDbPolyline
 90
5
 70
0
 10
43.503937007874015
 20
99.64566929133858
 10
49.527559055118104
 20
99.64566929133858
 10
49.527559055118104
 20
88.38582677165354
 10
43.503937007874015
 20
88.38582677165354
 10
43.503937007874015
 20
99.64566929133858
  0
LINE
  5
102
330
17
100
AcDbEntity
  8
Dressing door casing
100
AcDbLine
 10
43.503937007874015
 20
97.83464566929133
 30
0.0
 11
49.52755905511811
 21
97.83464566929133
 31
0.0
  0
LINE
  5
103
330
17
100
AcDbEntity
  8
Dressing door casing
100
AcDbLine
 10
43.503937007874015
 20
91.45669291338582
 30
0.0
 11
49.52755905511811
 21
91.45669291338582
 31
0.0
  0
LINE
  5
104
330
17
100
AcDbEntity
  8
Dressing door casing
100
AcDbLine
 10
43.503937007874015
 20
89.09448818897637
 30
0.0
 11
49.52755905511811
 21
89.09448818897637
 31
0.0
  0
LINE
  5
105
330
17
100
AcDbEntity
  8
Dressing door casing
100
AcDbLine
 10
43.89763779527559
 20
97.83464566929133
 30
0.0
 11
43.89763779527559
 21
89.09448818897637
 31
0.0
  0
LINE
  5
106
330
17
100
AcDbEntity
  8
Dressing door casing
100
AcDbLine
 10
49.13385826771653
 20
97.83464566929133
 30
0.0
 11
49.13385826771653
 21
89.09448818897637
 31
0.0
  0
SPLINE
  5
107
330
17
100
AcDbEntity
  8
Dressing door casing
100
AcDbSpline
 70
0
 71
3
 72
8
 73
4
 74
0
 40
0.0
 40
0.0
 40
0.0
 40
0.0
 40
1.0
 40
1.0
 40
1.0
 40
1.0
 10
46.51574803149606
 20
98.11023622047243
 30
0.0
 10
46.149343832020996
 20
98.39212598425196
 30
0.0
 10
45.88818897637795
 20
98.56824146981627
 30
0.0
 10
45.732283464566926
 20
98.63858267716535
 30
0.0
  0
SPLINE
  5
108
330
17
100
AcDbEntity
  8
Dressing door casing
100
AcDbSpline
 70
0
 71
3
 72
8
 73
4
 74
0
 40
0.0
 40
0.0
 40
0.0
 40
0.0
 40
1.0
 40
1.0
 40
1.0
 40
1.0
 10
45.732283464566926
 20
98.63858267716535
 30
0.0
 10
46.20341207349081
 20
98.5259842519685
 30
0.0
 10
46.46456692913385
 20
98.3498687664042
 30
0.0
 10
46.51574803149606
 20
98.11023622047243
 30
0.0
  0
SPLINE
  5
109
330
17
100
AcDbEntity
  8
Dressing door casing
100
AcDbSpline
 70
0
 71
3
 72
8
 73
4
 74
0
 40
0.0
 40
0.0
 40
0.0
 40
0.0
 40
1.0
 40
1.0
 40
1.0
 40
1.0
 10
46.51574803149606
 20
98.11023622047243
 30
0.0
 10
46.206824146981624
 20
98.64776902887138
 30
0.0
 10
46.02821522309711
 20
98.98385826771653
 30
0.0
 10
45.97992125984251
 20
99.11850393700787
 30
0.0
  0
SPLINE
  5
10A
330
17
100
AcDbEntity
  8
Dressing door casing
100
AcDbSpline
 70
0
 71
3
 72
8
 73
4
 74
0
 40
0.0
 40
0.0
 40
0.0
 40
0.0
 40
1.0
 40
1.0
 40
1.0
 40
1.0
 10
45.97992125984251
 20
99.11850393700787
 30
0.0
 10
46.35997375328083
 20
98.90328083989502
 30
0.0
 10
46.53858267716535
 20
98.56719160104987
 30
0.0
 10
46.51574803149606
 20
98.11023622047243
 30
0.0
  0
SPLINE
  5
10B
330
17
100
AcDbEntity
  8
Dressing door casing
100
AcDbSpline
 70
0
 71
3
 72
8
 73
4
 74
0
 40
0.0
 40
0.0
 40
0.0
 40
0.0
 40
1.0
 40
1.0
 40
1.0
 40
1.0
 10
46.51574803149606
 20
98.11023622047243
 30
0.0
 10
46.332020997375324
 20
98.8241469816273
 30
0.0
 10
46.332020997375324
 20
99.27034120734908
 30
0.0
 10
46.51574803149606
 20
99.44881889763779
 30
0.0
  0
SPLINE
  5
10C
330
17
100
AcDbEntity
  8
Dressing door casing
100
AcDbSpline
 70
0
 71
3
 72
8
 73
4
 74
0
 40
0.0
 40
0.0
 40
0.0
 40
0.0
 40
1.0
 40
1.0
 40
1.0
 40
1.0
 10
46.51574803149606
 20
99.44881889763779
 30
0.0
 10
46.699475065616795
 20
99.16325459317585
 30
0.0
 10
46.699475065616795
 20
98.71706036745405
 30
0.0
 10
46.51574803149606
 20
98.11023622047243
 30
0.0
  0
SPLINE
  5
10D
330
17
100
AcDbEntity
  8
Dressing door casing
100
AcDbSpline
 70
0
 71
3
 72
8
 73
4
 74
0
 40
0.0
 40
0.0
 40
0.0
 40
0.0
 40
1.0
 40
1.0
 40
1.0
 40
1.0
 10
46.51574803149606
 20
98.11023622047243
 30
0.0
 10
46.45721784776902
 20
98.64776902887138
 30
0.0
 10
46.63582677165354
 20
98.98385826771653
 30
0.0
 10
47.051574803149606
 20
99.11850393700787
 30
0.0
  0
SPLINE
  5
10E
330
17
100
AcDbEntity
  8
Dressing door casing
100
AcDbSpline
 70
0
 71
3
 72
8
 73
4
 74
0
 40
0.0
 40
0.0
 40
0.0
 40
0.0
 40
1.0
 40
1.0
 40
1.0
 40
1.0
 10
47.051574803149606
 20
99.11850393700787
 30
0.0
 10
47.03897637795276
 20
98.90328083989502
 30
0.0
 10
46.86036745406824
 20
98.56719160104987
 30
0.0
 10
46.51574803149606
 20
98.11023622047243
 30
0.0
  0
SPLINE
  5
10F
330
17
100
AcDbEntity
  8
Dressing door casing
100
AcDbSpline
 70
0
 71
3
 72
8
 73
4
 74
0
 40
0.0
 40
0.0
 40
0.0
 40
0.0
 40
1.0
 40
1.0
 40
1.0
 40
1.0
 10
46.51574803149606
 20
98.11023622047243
 30
0.0
 10
46.51469816272966
 20
98.39212598425196
 30
0.0
 10
46.7758530183727
 20
98.56824146981627
 30
0.0
 10
47.29921259842519
 20
98.63858267716535
 30
0.0
  0
SPLINE
  5
110
330
17
100
AcDbEntity
  8
Dressing door casing
100
AcDbSpline
 70
0
 71
3
 72
8
 73
4
 74
0
 40
0.0
 40
0.0
 40
0.0
 40
0.0
 40
1.0
 40
1.0
 40
1.0
 40
1.0
 10
47.29921259842519
 20
98.63858267716535
 30
0.0
 10
47.19553805774278
 20
98.5259842519685
 30
0.0
 10
46.93438320209973
 20
98.3498687664042
 30
0.0
 10
46.51574803149606
 20
98.11023622047243
 30
0.0
  0
LWPOLYLINE
  5
111
330
17
100
AcDbEntity
  8
Dressing door casing
100
AcDbPolyline
 90
3
 70
0
 10
44.59606299212598
 20
96.45669291338582
 10
46.51574803149606
 20
97.28346456692913
 10
48.43543307086614
 20
96.45669291338582
  0
LWPOLYLINE
  5
112
330
17
100
AcDbEntity
  8
Dressing door casing
100
AcDbPolyline
 90
3
 70
0
 10
44.63622047244094
 20
95.97007874015748
 10
46.51574803149606
 20
96.79685039370078
 10
48.39527559055118
 20
95.97007874015748
  0
LWPOLYLINE
  5
113
330
17
100
AcDbEntity
  8
Dressing door casing
100
AcDbPolyline
 90
3
 70
0
 10
44.676771653543305
 20
95.48307086614173
 10
46.51574803149606
 20
96.30984251968503
 10
48.35472440944882
 20
95.48307086614173
  0
LWPOLYLINE
  5
114
330
17
100
AcDbEntity
  8
Dressing door casing
100
AcDbPolyline
 90
3
 70
0
 10
44.716929133858265
 20
94.99645669291338
 10
46.51574803149606
 20
95.82322834645669
 10
48.31456692913386
 20
94.99645669291338
  0
LWPOLYLINE
  5
115
330
17
100
AcDbEntity
  8
Dressing door casing
100
AcDbPolyline
 90
3
 70
0
 10
44.757086614173225
 20
94.50984251968504
 10
46.51574803149606
 20
95.33661417322834
 10
48.2744094488189
 20
94.50984251968504
  0
LWPOLYLINE
  5
116
330
17
100
AcDbEntity
  8
Dressing door casing
100
AcDbPolyline
 90
3
 70
0
 10
44.79763779527559
 20
94.02283464566929
 10
46.51574803149606
 20
94.8496062992126
 10
48.233858267716535
 20
94.02283464566929
  0
LWPOLYLINE
  5
117
330
17
100
AcDbEntity
  8
Dressing door casing
100
AcDbPolyline
 90
3
 70
0
 10
44.83779527559055
 20
93.53622047244095
 10
46.51574803149606
 20
94.36299212598425
 10
48.19370078740157
 20
93.53622047244095
  0
LWPOLYLINE
  5
118
330
17
100
AcDbEntity
  8
Dressing door casing
100
AcDbPolyline
 90
3
 70
0
 10
44.87834645669291
 20
93.04921259842519
 10
46.51574803149606
 20
93.8759842519685
 10
48.15314960629921
 20
93.04921259842519
  0
LWPOLYLINE
  5
119
330
17
100
AcDbEntity
  8
Dressing door casing
100
AcDbPolyline
 90
3
 70
0
 10
44.91850393700787
 20
92.56259842519684
 10
46.51574803149606
 20
93.38937007874016
 10
48.11299212598425
 20
92.56259842519684
  0
LWPOLYLINE
  5
11A
330
17
100
AcDbEntity
  8
Dressing door casing
100
AcDbPolyline
 90
3
 70
0
 10
44.95866141732283
 20
92.07598425196849
 10
46.51574803149606
 20
92.90275590551181
 10
48.07283464566929
 20
92.07598425196849
  0
LWPOLYLINE
  5
11B
330
17
100
AcDbEntity
  8
Dressing door casing
100
AcDbPolyline
 90
3
 70
0
 10
44.999212598425196
 20
91.58897637795275
 10
46.51574803149606
 20
92.41574803149607
 10
48.03228346456692
 20
91.58897637795275
  0
LWPOLYLINE
  5
11C
330
17
100
AcDbEntity
  8
Dressing door casing
100
AcDbPolyline
 90
3
 70
0
 10
45.039370078740156
 20
91.1023622047244
 10
46.51574803149606
 20
91.9291338582677
 10
47.99212598425196
 20
91.1023622047244
  0
LINE
  5
11D
330
17
100
AcDbEntity
  8
Dressing door casing
100
AcDbLine
 10
44.52755905511811
 20
97.28346456692913
 30
0.0
 11
45.039370078740156
 21
91.10236220472441
 31
0.0
  0
LINE
  5
11E
330
17
100
AcDbEntity
  8
Dressing door casing
100
AcDbLine
 10
48.503937007874015
 20
97.28346456692913
 30
0.0
 11
47.99212598425197
 21
91.10236220472441
 31
0.0
  0
LWPOLYLINE
  5
11F
330
17
100
AcDbEntity
  8
Dressing door casing
100
AcDbPolyline
 90
5
 70
0
 10
44.625984251968504
 20
91.02362204724409
 10
48.40551181102362
 20
91.02362204724409
 10
48.40551181102362
 20
89.48818897637796
 10
44.625984251968504
 20
89.48818897637796
 10
44.625984251968504
 20
91.02362204724409
  0
LWPOLYLINE
  5
120
330
17
100
AcDbEntity
  8
Dressing door casing
100
AcDbPolyline
 90
5
 70
0
 10
46.51574803149606
 20
91.02362204724409
 10
48.090551181102356
 20
90.25590551181102
 10
46.51574803149606
 20
89.48818897637796
 10
44.94094488188976
 20
90.25590551181102
 10
46.51574803149606
 20
91.02362204724409
  0
LWPOLYLINE
  5
121
330
17
100
AcDbEntity
  8
Dressing door casing
100
AcDbPolyline
 90
5
 70
0
 10
46.51574803149606
 20
90.7011811023622
 10
47.42913385826772
 20
90.25590551181102
 10
46.51574803149606
 20
89.81062992125985
 10
45.60236220472441
 20
90.25590551181102
 10
46.51574803149606
 20
90.7011811023622
  0
LWPOLYLINE
  5
122
330
17
100
AcDbEntity
  8
Dressing door casing
100
AcDbPolyline
 90
5
 70
0
 10
45.96299212598425
 20
90.73110236220472
 10
47.068503937007875
 20
90.73110236220472
 10
47.068503937007875
 20
89.78031496062992
 10
45.96299212598425
 20
89.78031496062992
 10
45.96299212598425
 20
90.73110236220472
  0
LINE
  5
123
330
17
100
AcDbEntity
  8
Dressing door casing
100
AcDbLine
 10
45.72834645669291
 20
90.63976377952756
 30
0.0
 11
47.303149606299215
 21
89.87204724409449
 31
0.0
  0
LINE
  5
124
330
17
100
AcDbEntity
  8
Dressing door casing
100
AcDbLine
 10
45.72834645669291
 20
89.87204724409449
 30
0.0
 11
47.303149606299215
 21
90.63976377952756
 31
0.0
  0
LINE
  5
125
330
17
100
AcDbEntity
  8
Dressing door casing
100
AcDbLine
 10
0.0
 20
0.0
 30
0.0
 11
57.00787401574803
 21
0.0
 31
0.0
  0
TEXT
  5
126
330
17
100
AcDbEntity
  8
LABELS
100
AcDbText
 10
0.0
 20
105.94488188976378
 30
0.0
 40
1.1401574803149606
  1
DRESSING DOOR CASING  (1:1, inches)
 11
0.0
 21
105.94488188976378
 31
0.0
100
AcDbText
  0
LWPOLYLINE
  5
129
330
17
100
AcDbEntity
  8
Plain door casing
100
AcDbPolyline
 90
5
 70
0
 10
80.35433070866141
 20
90.98425196850394
 10
116.33858267716535
 20
90.98425196850394
 10
116.33858267716535
 20
0.0
 10
80.35433070866141
 20
0.0
 10
80.35433070866141
 20
90.98425196850394
  0
LWPOLYLINE
  5
12A
330
17
100
AcDbEntity
  8
Plain door casing
100
AcDbPolyline
 90
5
 70
0
 10
78.34645669291338
 20
91.51968503937007
 10
118.34645669291338
 20
91.51968503937007
 10
118.34645669291338
 20
0.0
 10
78.34645669291338
 20
0.0
 10
78.34645669291338
 20
91.51968503937007
  0
LWPOLYLINE
  5
12B
330
17
100
AcDbEntity
  8
Plain door casing
100
AcDbPolyline
 90
5
 70
0
 10
74.33070866141732
 20
90.98425196850394
 10
80.35433070866141
 20
90.98425196850394
 10
80.35433070866141
 20
9.055118110236222
 10
74.33070866141732
 20
9.055118110236222
 10
74.33070866141732
 20
90.98425196850394
  0
LINE
  5
12C
330
17
100
AcDbEntity
  8
Plain door casing
100
AcDbLine
 10
78.34645669291338
 20
90.98425196850394
 30
0.0
 11
78.34645669291338
 21
9.05511811023622
 31
0.0
  0
LINE
  5
12D
330
17
100
AcDbEntity
  8
Plain door casing
100
AcDbLine
 10
74.98031496062993
 20
37.00787401574803
 30
0.0
 11
74.98031496062993
 21
9.291338582677165
 31
0.0
  0
LINE
  5
12E
330
17
100
AcDbEntity
  8
Plain door casing
100
AcDbLine
 10
75.43307086614173
 20
37.00787401574803
 30
0.0
 11
75.43307086614173
 21
9.291338582677165
 31
0.0
  0
LINE
  5
12F
330
17
100
AcDbEntity
  8
Plain door casing
100
AcDbLine
 10
75.88582677165354
 20
37.00787401574803
 30
0.0
 11
75.88582677165354
 21
9.291338582677165
 31
0.0
  0
LINE
  5
130
330
17
100
AcDbEntity
  8
Plain door casing
100
AcDbLine
 10
76.33858267716535
 20
37.00787401574803
 30
0.0
 11
76.33858267716535
 21
9.291338582677165
 31
0.0
  0
LINE
  5
131
330
17
100
AcDbEntity
  8
Plain door casing
100
AcDbLine
 10
76.79133858267717
 20
37.00787401574803
 30
0.0
 11
76.79133858267717
 21
9.291338582677165
 31
0.0
  0
LINE
  5
132
330
17
100
AcDbEntity
  8
Plain door casing
100
AcDbLine
 10
77.24409448818898
 20
37.00787401574803
 30
0.0
 11
77.24409448818898
 21
9.291338582677165
 31
0.0
  0
LINE
  5
133
330
17
100
AcDbEntity
  8
Plain door casing
100
AcDbLine
 10
77.69685039370079
 20
37.00787401574803
 30
0.0
 11
77.69685039370079
 21
9.291338582677165
 31
0.0
  0
LINE
  5
134
330
17
100
AcDbEntity
  8
Plain door casing
100
AcDbLine
 10
74.98031496062993
 20
90.74803149606299
 30
0.0
 11
74.98031496062993
 21
43.031496062992126
 31
0.0
  0
LINE
  5
135
330
17
100
AcDbEntity
  8
Plain door casing
100
AcDbLine
 10
75.43307086614173
 20
90.74803149606299
 30
0.0
 11
75.43307086614173
 21
43.031496062992126
 31
0.0
  0
LINE
  5
136
330
17
100
AcDbEntity
  8
Plain door casing
100
AcDbLine
 10
75.88582677165354
 20
90.74803149606299
 30
0.0
 11
75.88582677165354
 21
43.031496062992126
 31
0.0
  0
LINE
  5
137
330
17
100
AcDbEntity
  8
Plain door casing
100
AcDbLine
 10
76.33858267716535
 20
90.74803149606299
 30
0.0
 11
76.33858267716535
 21
43.031496062992126
 31
0.0
  0
LINE
  5
138
330
17
100
AcDbEntity
  8
Plain door casing
100
AcDbLine
 10
76.79133858267717
 20
90.74803149606299
 30
0.0
 11
76.79133858267717
 21
43.031496062992126
 31
0.0
  0
LINE
  5
139
330
17
100
AcDbEntity
  8
Plain door casing
100
AcDbLine
 10
77.24409448818898
 20
90.74803149606299
 30
0.0
 11
77.24409448818898
 21
43.031496062992126
 31
0.0
  0
LINE
  5
13A
330
17
100
AcDbEntity
  8
Plain door casing
100
AcDbLine
 10
77.69685039370079
 20
90.74803149606299
 30
0.0
 11
77.69685039370079
 21
43.031496062992126
 31
0.0
  0
LWPOLYLINE
  5
13B
330
17
100
AcDbEntity
  8
Plain door casing
100
AcDbPolyline
 90
5
 70
0
 10
74.33070866141732
 20
43.03149606299212
 10
80.35433070866141
 20
43.03149606299212
 10
80.35433070866141
 20
37.00787401574803
 10
74.33070866141732
 20
37.00787401574803
 10
74.33070866141732
 20
43.03149606299212
  0
CIRCLE
  5
13C
330
17
100
AcDbEntity
  8
Plain door casing
100
AcDbCircle
 10
77.34251968503936
 20
40.01968503937008
 30
0.0
 40
46.0
  0
CIRCLE
  5
13D
330
17
100
AcDbEntity
  8
Plain door casing
100
AcDbCircle
 10
77.34251968503936
 20
40.01968503937008
 30
0.0
 40
33.0
  0
LWPOLYLINE
  5
13E
330
17
100
AcDbEntity
  8
Plain door casing
100
AcDbPolyline
 90
5
 70
0
 10
74.33070866141732
 20
9.055118110236222
 10
80.35433070866141
 20
9.055118110236222
 10
80.35433070866141
 20
0.0
 10
74.33070866141732
 20
0.0
 10
74.33070866141732
 20
9.055118110236222
  0
LINE
  5
13F
330
17
100
AcDbEntity
  8
Plain door casing
100
AcDbLine
 10
74.33070866141732
 20
8.503937007874015
 30
0.0
 11
80.35433070866142
 21
8.503937007874015
 31
0.0
  0
LINE
  5
140
330
17
100
AcDbEntity
  8
Plain door casing
100
AcDbLine
 10
74.33070866141732
 20
4.015748031496063
 30
0.0
 11
80.35433070866142
 21
4.015748031496063
 31
0.0
  0
LWPOLYLINE
  5
141
330
17
100
AcDbEntity
  8
Plain door casing
100
AcDbPolyline
 90
5
 70
0
 10
116.33858267716535
 20
90.98425196850394
 10
122.36220472440945
 20
90.98425196850394
 10
122.36220472440945
 20
9.055118110236222
 10
116.33858267716535
 20
9.055118110236222
 10
116.33858267716535
 20
90.98425196850394
  0
LINE
  5
142
330
17
100
AcDbEntity
  8
Plain door casing
100
AcDbLine
 10
118.34645669291338
 20
90.98425196850394
 30
0.0
 11
118.34645669291338
 21
9.05511811023622
 31
0.0
  0
LINE
  5
143
330
17
100
AcDbEntity
  8
Plain door casing
100
AcDbLine
 10
118.99606299212599
 20
37.00787401574803
 30
0.0
 11
118.99606299212599
 21
9.291338582677165
 31
0.0
  0
LINE
  5
144
330
17
100
AcDbEntity
  8
Plain door casing
100
AcDbLine
 10
119.44881889763779
 20
37.00787401574803
 30
0.0
 11
119.44881889763779
 21
9.291338582677165
 31
0.0
  0
LINE
  5
145
330
17
100
AcDbEntity
  8
Plain door casing
100
AcDbLine
 10
119.9015748031496
 20
37.00787401574803
 30
0.0
 11
119.9015748031496
 21
9.291338582677165
 31
0.0
  0
LINE
  5
146
330
17
100
AcDbEntity
  8
Plain door casing
100
AcDbLine
 10
120.35433070866142
 20
37.00787401574803
 30
0.0
 11
120.35433070866142
 21
9.291338582677165
 31
0.0
  0
LINE
  5
147
330
17
100
AcDbEntity
  8
Plain door casing
100
AcDbLine
 10
120.80708661417323
 20
37.00787401574803
 30
0.0
 11
120.80708661417323
 21
9.291338582677165
 31
0.0
  0
LINE
  5
148
330
17
100
AcDbEntity
  8
Plain door casing
100
AcDbLine
 10
121.25984251968504
 20
37.00787401574803
 30
0.0
 11
121.25984251968504
 21
9.291338582677165
 31
0.0
  0
LINE
  5
149
330
17
100
AcDbEntity
  8
Plain door casing
100
AcDbLine
 10
121.71259842519684
 20
37.00787401574803
 30
0.0
 11
121.71259842519684
 21
9.291338582677165
 31
0.0
  0
LINE
  5
14A
330
17
100
AcDbEntity
  8
Plain door casing
100
AcDbLine
 10
118.99606299212599
 20
90.74803149606299
 30
0.0
 11
118.99606299212599
 21
43.031496062992126
 31
0.0
  0
LINE
  5
14B
330
17
100
AcDbEntity
  8
Plain door casing
100
AcDbLine
 10
119.44881889763779
 20
90.74803149606299
 30
0.0
 11
119.44881889763779
 21
43.031496062992126
 31
0.0
  0
LINE
  5
14C
330
17
100
AcDbEntity
  8
Plain door casing
100
AcDbLine
 10
119.9015748031496
 20
90.74803149606299
 30
0.0
 11
119.9015748031496
 21
43.031496062992126
 31
0.0
  0
LINE
  5
14D
330
17
100
AcDbEntity
  8
Plain door casing
100
AcDbLine
 10
120.35433070866142
 20
90.74803149606299
 30
0.0
 11
120.35433070866142
 21
43.031496062992126
 31
0.0
  0
LINE
  5
14E
330
17
100
AcDbEntity
  8
Plain door casing
100
AcDbLine
 10
120.80708661417323
 20
90.74803149606299
 30
0.0
 11
120.80708661417323
 21
43.031496062992126
 31
0.0
  0
LINE
  5
14F
330
17
100
AcDbEntity
  8
Plain door casing
100
AcDbLine
 10
121.25984251968504
 20
90.74803149606299
 30
0.0
 11
121.25984251968504
 21
43.031496062992126
 31
0.0
  0
LINE
  5
150
330
17
100
AcDbEntity
  8
Plain door casing
100
AcDbLine
 10
121.71259842519684
 20
90.74803149606299
 30
0.0
 11
121.71259842519684
 21
43.031496062992126
 31
0.0
  0
LWPOLYLINE
  5
151
330
17
100
AcDbEntity
  8
Plain door casing
100
AcDbPolyline
 90
5
 70
0
 10
116.33858267716535
 20
43.03149606299212
 10
122.36220472440945
 20
43.03149606299212
 10
122.36220472440945
 20
37.00787401574803
 10
116.33858267716535
 20
37.00787401574803
 10
116.33858267716535
 20
43.03149606299212
  0
CIRCLE
  5
152
330
17
100
AcDbEntity
  8
Plain door casing
100
AcDbCircle
 10
119.3503937007874
 20
40.01968503937008
 30
0.0
 40
46.0
  0
CIRCLE
  5
153
330
17
100
AcDbEntity
  8
Plain door casing
100
AcDbCircle
 10
119.3503937007874
 20
40.01968503937008
 30
0.0
 40
33.0
  0
LWPOLYLINE
  5
154
330
17
100
AcDbEntity
  8
Plain door casing
100
AcDbPolyline
 90
5
 70
0
 10
116.33858267716535
 20
9.055118110236222
 10
122.36220472440945
 20
9.055118110236222
 10
122.36220472440945
 20
0.0
 10
116.33858267716535
 20
0.0
 10
116.33858267716535
 20
9.055118110236222
  0
LINE
  5
155
330
17
100
AcDbEntity
  8
Plain door casing
100
AcDbLine
 10
116.33858267716535
 20
8.503937007874015
 30
0.0
 11
122.36220472440945
 21
8.503937007874015
 31
0.0
  0
LINE
  5
156
330
17
100
AcDbEntity
  8
Plain door casing
100
AcDbLine
 10
116.33858267716535
 20
4.015748031496063
 30
0.0
 11
122.36220472440945
 21
4.015748031496063
 31
0.0
  0
LWPOLYLINE
  5
157
330
17
100
AcDbEntity
  8
Plain door casing
100
AcDbPolyline
 90
5
 70
0
 10
80.35433070866141
 20
92.32283464566929
 10
116.33858267716535
 20
92.32283464566929
 10
116.33858267716535
 20
90.98425196850394
 10
80.35433070866141
 20
90.98425196850394
 10
80.35433070866141
 20
92.32283464566929
  0
LWPOLYLINE
  5
158
330
17
100
AcDbEntity
  8
Plain door casing
100
AcDbPolyline
 90
5
 70
0
 10
80.35433070866141
 20
92.79527559055117
 10
116.33858267716535
 20
92.79527559055117
 10
116.33858267716535
 20
92.32283464566929
 10
80.35433070866141
 20
92.32283464566929
 10
80.35433070866141
 20
92.79527559055117
  0
LWPOLYLINE
  5
159
330
17
100
AcDbEntity
  8
Plain door casing
100
AcDbPolyline
 90
5
 70
0
 10
80.35433070866141
 20
94.60629921259842
 10
116.33858267716535
 20
94.60629921259842
 10
116.33858267716535
 20
92.79527559055117
 10
80.35433070866141
 20
92.79527559055117
 10
80.35433070866141
 20
94.60629921259842
  0
SPLINE
  5
15A
330
17
100
AcDbEntity
  8
Plain door casing
100
AcDbSpline
 70
0
 71
3
 72
23
 73
19
 74
0
 40
0.0
 40
0.0
 40
0.0
 40
0.0
 40
1.0
 40
1.0
 40
1.0
 40
2.0
 40
2.0
 40
2.0
 40
3.0
 40
3.0
 40
3.0
 40
4.0
 40
4.0
 40
4.0
 40
5.0
 40
5.0
 40
5.0
 40
6.0
 40
6.0
 40
6.0
 40
6.0
 10
80.35433070866141
 20
92.79527559055117
 30
0.0
 10
80.35712937562562
 20
92.6801469205802
 30
0.0
 10
80.38971840652314
 20
92.5676849853314
 30
0.0
 10
80.44890808842516
 20
92.46889720905112
 30
0.0
 10
80.50809777032717
 20
92.37010943277083
 30
0.0
 10
80.59189187438817
 20
92.28832752805249
 30
0.0
 10
80.69208889446564
 20
92.23155605322879
 30
0.0
 10
80.79228591454311
 20
92.17478457840508
 30
0.0
 10
80.90550660994367
 20
92.14493820596627
 30
0.0
 10
81.02066929133858
 20
92.14493820596627
 30
0.0
 10
81.13583197273348
 20
92.14493820596627
 30
0.0
 10
81.24905266813406
 20
92.17478457840508
 30
0.0
 10
81.34924968821153
 20
92.23155605322879
 30
0.0
 10
81.449446708289
 20
92.28832752805249
 30
0.0
 10
81.53324081234999
 20
92.37010943277085
 30
0.0
 10
81.592430494252
 20
92.46889720905112
 30
0.0
 10
81.65162017615401
 20
92.5676849853314
 30
0.0
 10
81.68420920705154
 20
92.6801469205802
 30
0.0
 10
81.68700787401575
 20
92.79527559055117
 30
0.0
  0
SPLINE
  5
15B
330
17
100
AcDbEntity
  8
Plain door casing
100
AcDbSpline
 70
0
 71
3
 72
23
 73
19
 74
0
 40
0.0
 40
0.0
 40
0.0
 40
0.0
 40
1.0
 40
1.0
 40
1.0
 40
2.0
 40
2.0
 40
2.0
 40
3.0
 40
3.0
 40
3.0
 40
4.0
 40
4.0
 40
4.0
 40
5.0
 40
5.0
 40
5.0
 40
6.0
 40
6.0
 40
6.0
 40
6.0
 10
81.68700787401575
 20
92.79527559055117
 30
0.0
 10
81.68980654097994
 20
92.6801469205802
 30
0.0
 10
81.72239557187748
 20
92.5676849853314
 30
0.0
 10
81.7815852537795
 20
92.46889720905112
 30
0.0
 10
81.84077493568151
 20
92.37010943277083
 30
0.0
 10
81.9245690397425
 20
92.28832752805249
 30
0.0
 10
82.02476605981997
 20
92.23155605322879
 30
0.0
 10
82.12496307989744
 20
92.17478457840508
 30
0.0
 10
82.23818377529801
 20
92.14493820596627
 30
0.0
 10
82.3533464566929
 20
92.14493820596627
 30
0.0
 10
82.46850913808781
 20
92.14493820596627
 30
0.0
 10
82.58172983348838
 20
92.17478457840508
 30
0.0
 10
82.68192685356586
 20
92.23155605322879
 30
0.0
 10
82.78212387364333
 20
92.28832752805249
 30
0.0
 10
82.86591797770431
 20
92.37010943277085
 30
0.0
 10
82.92510765960633
 20
92.46889720905112
 30
0.0
 10
82.98429734150834
 20
92.5676849853314
 30
0.0
 10
83.01688637240586
 20
92.6801469205802
 30
0.0
 10
83.01968503937007
 20
92.79527559055117
 30
0.0
  0
SPLINE
  5
15C
330
17
100
AcDbEntity
  8
Plain door casing
100
AcDbSpline
 70
0
 71
3
 72
23
 73
19
 74
0
 40
0.0
 40
0.0
 40
0.0
 40
0.0
 40
1.0
 40
1.0
 40
1.0
 40
2.0
 40
2.0
 40
2.0
 40
3.0
 40
3.0
 40
3.0
 40
4.0
 40
4.0
 40
4.0
 40
5.0
 40
5.0
 40
5.0
 40
6.0
 40
6.0
 40
6.0
 40
6.0
 10
83.01968503937007
 20
92.79527559055117
 30
0.0
 10
83.01968503937007
 20
92.67828289507034
 30
0.0
 10
83.05048750713868
 20
92.56332652035937
 30
0.0
 10
83.10898385487911
 20
92.46200787401574
 30
0.0
 10
83.16748020261953
 20
92.36068922767213
 30
0.0
 10
83.25163410956189
 20
92.27653532072976
 30
0.0
 10
83.3529527559055
 20
92.21803897298935
 30
0.0
 10
83.45427140224913
 20
92.15954262524893
 30
0.0
 10
83.5692277769601
 20
92.12874015748031
 30
0.0
 10
83.68622047244094
 20
92.12874015748031
 30
0.0
 10
83.80321316792177
 20
92.12874015748031
 30
0.0
 10
83.91816954263275
 20
92.15954262524893
 30
0.0
 10
84.01948818897637
 20
92.21803897298935
 30
0.0
 10
84.12080683532
 20
92.27653532072976
 30
0.0
 10
84.20496074226236
 20
92.36068922767213
 30
0.0
 10
84.26345709000277
 20
92.46200787401574
 30
0.0
 10
84.32195343774319
 20
92.56332652035937
 30
0.0
 10
84.3527559055118
 20
92.67828289507034
 30
0.0
 10
84.3527559055118
 20
92.79527559055117
 30
0.0
  0
SPLINE
  5
15D
330
17
100
AcDbEntity
  8
Plain door casing
100
AcDbSpline
 70
0
 71
3
 72
23
 73
19
 74
0
 40
0.0
 40
0.0
 40
0.0
 40
0.0
 40
1.0
 40
1.0
 40
1.0
 40
2.0
 40
2.0
 40
2.0
 40
3.0
 40
3.0
 40
3.0
 40
4.0
 40
4.0
 40
4.0
 40
5.0
 40
5.0
 40
5.0
 40
6.0
 40
6.0
 40
6.0
 40
6.0
 10
84.3527559055118
 20
92.79527559055117
 30
0.0
 10
84.35555457247601
 20
92.68014692058019
 30
0.0
 10
84.38814360337354
 20
92.5676849853314
 30
0.0
 10
84.44733328527555
 20
92.46889720905111
 30
0.0
 10
84.50652296717756
 20
92.37010943277082
 30
0.0
 10
84.59031707123854
 20
92.28832752805248
 30
0.0
 10
84.69051409131602
 20
92.23155605322877
 30
0.0
 10
84.79071111139349
 20
92.17478457840507
 30
0.0
 10
84.90393180679406
 20
92.14493820596626
 30
0.0
 10
85.01909448818897
 20
92.14493820596626
 30
0.0
 10
85.13425716958388
 20
92.14493820596626
 30
0.0
 10
85.24747786498445
 20
92.17478457840507
 30
0.0
 10
85.34767488506192
 20
92.23155605322877
 30
0.0
 10
85.44787190513941
 20
92.28832752805248
 30
0.0
 10
85.53166600920039
 20
92.37010943277082
 30
0.0
 10
85.5908556911024
 20
92.46889720905111
 30
0.0
 10
85.6500453730044
 20
92.5676849853314
 30
0.0
 10
85.68263440390194
 20
92.68014692058019
 30
0.0
 10
85.68543307086614
 20
92.79527559055117
 30
0.0
  0
SPLINE
  5
15E
330
17
100
AcDbEntity
  8
Plain door casing
100
AcDbSpline
 70
0
 71
3
 72
23
 73
19
 74
0
 40
0.0
 40
0.0
 40
0.0
 40
0.0
 40
1.0
 40
1.0
 40
1.0
 40
2.0
 40
2.0
 40
2.0
 40
3.0
 40
3.0
 40
3.0
 40
4.0
 40
4.0
 40
4.0
 40
5.0
 40
5.0
 40
5.0
 40
6.0
 40
6.0
 40
6.0
 40
6.0
 10
85.68543307086614
 20
92.79527559055117
 30
0.0
 10
85.68823173783035
 20
92.6801469205802
 30
0.0
 10
85.72082076872788
 20
92.56768498533141
 30
0.0
 10
85.78001045062989
 20
92.46889720905114
 30
0.0
 10
85.8392001325319
 20
92.37010943277085
 30
0.0
 10
85.9229942365929
 20
92.2883275280525
 30
0.0
 10
86.02319125667037
 20
92.23155605322881
 30
0.0
 10
86.12338827674785
 20
92.17478457840511
 30
0.0
 10
86.2366089721484
 20
92.1449382059663
 30
0.0
 10
86.35177165354331
 20
92.1449382059663
 30
0.0
 10
86.4669343349382
 20
92.1449382059663
 30
0.0
 10
86.58015503033877
 20
92.17478457840511
 30
0.0
 10
86.68035205041625
 20
92.23155605322881
 30
0.0
 10
86.78054907049372
 20
92.2883275280525
 30
0.0
 10
86.8643431745547
 20
92.37010943277085
 30
0.0
 10
86.92353285645672
 20
92.46889720905114
 30
0.0
 10
86.98272253835873
 20
92.56768498533141
 30
0.0
 10
87.01531156925626
 20
92.6801469205802
 30
0.0
 10
87.01811023622047
 20
92.79527559055117
 30
0.0
  0
SPLINE
  5
15F
330
17
100
AcDbEntity
  8
Plain door casing
100
AcDbSpline
 70
0
 71
3
 72
23
 73
19
 74
0
 40
0.0
 40
0.0
 40
0.0
 40
0.0
 40
1.0
 40
1.0
 40
1.0
 40
2.0
 40
2.0
 40
2.0
 40
3.0
 40
3.0
 40
3.0
 40
4.0
 40
4.0
 40
4.0
 40
5.0
 40
5.0
 40
5.0
 40
6.0
 40
6.0
 40
6.0
 40
6.0
 10
87.01811023622047
 20
92.79527559055117
 30
0.0
 10
87.02090890318468
 20
92.68014692058019
 30
0.0
 10
87.0534979340822
 20
92.5676849853314
 30
0.0
 10
87.11268761598421
 20
92.46889720905111
 30
0.0
 10
87.17187729788621
 20
92.37010943277082
 30
0.0
 10
87.25567140194721
 20
92.28832752805248
 30
0.0
 10
87.35586842202468
 20
92.23155605322877
 30
0.0
 10
87.45606544210216
 20
92.17478457840507
 30
0.0
 10
87.56928613750273
 20
92.14493820596626
 30
0.0
 10
87.68444881889764
 20
92.14493820596626
 30
0.0
 10
87.79961150029254
 20
92.14493820596626
 30
0.0
 10
87.91283219569311
 20
92.17478457840507
 30
0.0
 10
88.01302921577059
 20
92.23155605322877
 30
0.0
 10
88.11322623584806
 20
92.28832752805248
 30
0.0
 10
88.19702033990905
 20
92.37010943277082
 30
0.0
 10
88.25621002181106
 20
92.46889720905111
 30
0.0
 10
88.31539970371307
 20
92.5676849853314
 30
0.0
 10
88.3479887346106
 20
92.68014692058019
 30
0.0
 10
88.35078740157479
 20
92.79527559055117
 30
0.0
  0
SPLINE
  5
160
330
17
100
AcDbEntity
  8
Plain door casing
100
AcDbSpline
 70
0
 71
3
 72
23
 73
19
 74
0
 40
0.0
 40
0.0
 40
0.0
 40
0.0
 40
1.0
 40
1.0
 40
1.0
 40
2.0
 40
2.0
 40
2.0
 40
3.0
 40
3.0
 40
3.0
 40
4.0
 40
4.0
 40
4.0
 40
5.0
 40
5.0
 40
5.0
 40
6.0
 40
6.0
 40
6.0
 40
6.0
 10
88.35078740157479
 20
92.79527559055117
 30
0.0
 10
88.35358606853902
 20
92.6801469205802
 30
0.0
 10
88.38617509943654
 20
92.56768498533141
 30
0.0
 10
88.44536478133855
 20
92.46889720905114
 30
0.0
 10
88.50455446324057
 20
92.37010943277085
 30
0.0
 10
88.58834856730155
 20
92.2883275280525
 30
0.0
 10
88.68854558737902
 20
92.23155605322881
 30
0.0
 10
88.7887426074565
 20
92.17478457840511
 30
0.0
 10
88.90196330285706
 20
92.1449382059663
 30
0.0
 10
89.01712598425196
 20
92.1449382059663
 30
0.0
 10
89.13228866564687
 20
92.1449382059663
 30
0.0
 10
89.24550936104743
 20
92.17478457840511
 30
0.0
 10
89.3457063811249
 20
92.23155605322881
 30
0.0
 10
89.44590340120237
 20
92.2883275280525
 30
0.0
 10
89.52969750526336
 20
92.37010943277085
 30
0.0
 10
89.58888718716537
 20
92.46889720905114
 30
0.0
 10
89.64807686906738
 20
92.56768498533141
 30
0.0
 10
89.68066589996492
 20
92.6801469205802
 30
0.0
 10
89.68346456692913
 20
92.79527559055117
 30
0.0
  0
SPLINE
  5
161
330
17
100
AcDbEntity
  8
Plain door casing
100
AcDbSpline
 70
0
 71
3
 72
23
 73
19
 74
0
 40
0.0
 40
0.0
 40
0.0
 40
0.0
 40
1.0
 40
1.0
 40
1.0
 40
2.0
 40
2.0
 40
2.0
 40
3.0
 40
3.0
 40
3.0
 40
4.0
 40
4.0
 40
4.0
 40
5.0
 40
5.0
 40
5.0
 40
6.0
 40
6.0
 40
6.0
 40
6.0
 10
89.68346456692913
 20
92.79527559055117
 30
0.0
 10
89.68626323389333
 20
92.68014692058019
 30
0.0
 10
89.71885226479085
 20
92.5676849853314
 30
0.0
 10
89.77804194669287
 20
92.46889720905111
 30
0.0
 10
89.83723162859488
 20
92.37010943277082
 30
0.0
 10
89.92102573265586
 20
92.28832752805248
 30
0.0
 10
90.02122275273334
 20
92.23155605322877
 30
0.0
 10
90.12141977281082
 20
92.17478457840507
 30
0.0
 10
90.23464046821138
 20
92.14493820596626
 30
0.0
 10
90.34980314960629
 20
92.14493820596626
 30
0.0
 10
90.4649658310012
 20
92.14493820596626
 30
0.0
 10
90.57818652640177
 20
92.17478457840507
 30
0.0
 10
90.67838354647924
 20
92.23155605322877
 30
0.0
 10
90.77858056655673
 20
92.28832752805248
 30
0.0
 10
90.86237467061771
 20
92.37010943277082
 30
0.0
 10
90.92156435251972
 20
92.46889720905111
 30
0.0
 10
90.98075403442174
 20
92.5676849853314
 30
0.0
 10
91.01334306531926
 20
92.68014692058019
 30
0.0
 10
91.01614173228346
 20
92.79527559055117
 30
0.0
  0
SPLINE
  5
162
330
17
100
AcDbEntity
  8
Plain door casing
100
AcDbSpline
 70
0
 71
3
 72
23
 73
19
 74
0
 40
0.0
 40
0.0
 40
0.0
 40
0.0
 40
1.0
 40
1.0
 40
1.0
 40
2.0
 40
2.0
 40
2.0
 40
3.0
 40
3.0
 40
3.0
 40
4.0
 40
4.0
 40
4.0
 40
5.0
 40
5.0
 40
5.0
 40
6.0
 40
6.0
 40
6.0
 40
6.0
 10
91.01614173228346
 20
92.79527559055117
 30
0.0
 10
91.01614173228346
 20
92.67828289507034
 30
0.0
 10
91.04694420005208
 20
92.56332652035937
 30
0.0
 10
91.1054405477925
 20
92.46200787401574
 30
0.0
 10
91.16393689553291
 20
92.36068922767213
 30
0.0
 10
91.24809080247528
 20
92.27653532072976
 30
0.0
 10
91.34940944881889
 20
92.21803897298935
 30
0.0
 10
91.4507280951625
 20
92.15954262524893
 30
0.0
 10
91.56568446987349
 20
92.12874015748031
 30
0.0
 10
91.68267716535433
 20
92.12874015748031
 30
0.0
 10
91.79966986083517
 20
92.12874015748031
 30
0.0
 10
91.91462623554614
 20
92.15954262524893
 30
0.0
 10
92.01594488188977
 20
92.21803897298935
 30
0.0
 10
92.11726352823338
 20
92.27653532072976
 30
0.0
 10
92.20141743517574
 20
92.36068922767213
 30
0.0
 10
92.25991378291616
 20
92.46200787401574
 30
0.0
 10
92.31841013065657
 20
92.56332652035937
 30
0.0
 10
92.3492125984252
 20
92.67828289507034
 30
0.0
 10
92.3492125984252
 20
92.79527559055117
 30
0.0
  0
SPLINE
  5
163
330
17
100
AcDbEntity
  8
Plain door casing
100
AcDbSpline
 70
0
 71
3
 72
23
 73
19
 74
0
 40
0.0
 40
0.0
 40
0.0
 40
0.0
 40
1.0
 40
1.0
 40
1.0
 40
2.0
 40
2.0
 40
2.0
 40
3.0
 40
3.0
 40
3.0
 40
4.0
 40
4.0
 40
4.0
 40
5.0
 40
5.0
 40
5.0
 40
6.0
 40
6.0
 40
6.0
 40
6.0
 10
92.3492125984252
 20
92.79527559055117
 30
0.0
 10
92.35201126538941
 20
92.6801469205802
 30
0.0
 10
92.38460029628693
 20
92.56768498533141
 30
0.0
 10
92.44378997818895
 20
92.46889720905114
 30
0.0
 10
92.50297966009096
 20
92.37010943277085
 30
0.0
 10
92.58677376415196
 20
92.2883275280525
 30
0.0
 10
92.68697078422943
 20
92.23155605322881
 30
0.0
 10
92.7871678043069
 20
92.17478457840511
 30
0.0
 10
92.90038849970746
 20
92.1449382059663
 30
0.0
 10
93.01555118110235
 20
92.1449382059663
 30
0.0
 10
93.13071386249726
 20
92.1449382059663
 30
0.0
 10
93.24393455789783
 20
92.17478457840511
 30
0.0
 10
93.3441315779753
 20
92.23155605322881
 30
0.0
 10
93.44432859805278
 20
92.2883275280525
 30
0.0
 10
93.52812270211376
 20
92.37010943277085
 30
0.0
 10
93.58731238401577
 20
92.46889720905114
 30
0.0
 10
93.64650206591779
 20
92.56768498533141
 30
0.0
 10
93.67909109681531
 20
92.6801469205802
 30
0.0
 10
93.68188976377952
 20
92.79527559055117
 30
0.0
  0
SPLINE
  5
164
330
17
100
AcDbEntity
  8
Plain door casing
100
AcDbSpline
 70
0
 71
3
 72
23
 73
19
 74
0
 40
0.0
 40
0.0
 40
0.0
 40
0.0
 40
1.0
 40
1.0
 40
1.0
 40
2.0
 40
2.0
 40
2.0
 40
3.0
 40
3.0
 40
3.0
 40
4.0
 40
4.0
 40
4.0
 40
5.0
 40
5.0
 40
5.0
 40
6.0
 40
6.0
 40
6.0
 40
6.0
 10
93.68188976377952
 20
92.79527559055117
 30
0.0
 10
93.68468843074372
 20
92.68014692058019
 30
0.0
 10
93.71727746164126
 20
92.5676849853314
 30
0.0
 10
93.77646714354326
 20
92.46889720905111
 30
0.0
 10
93.83565682544527
 20
92.37010943277082
 30
0.0
 10
93.91945092950627
 20
92.28832752805248
 30
0.0
 10
94.01964794958374
 20
92.23155605322877
 30
0.0
 10
94.11984496966122
 20
92.17478457840507
 30
0.0
 10
94.23306566506179
 20
92.14493820596626
 30
0.0
 10
94.3482283464567
 20
92.14493820596626
 30
0.0
 10
94.4633910278516
 20
92.14493820596626
 30
0.0
 10
94.57661172325216
 20
92.17478457840507
 30
0.0
 10
94.67680874332964
 20
92.23155605322877
 30
0.0
 10
94.77700576340712
 20
92.28832752805248
 30
0.0
 10
94.8607998674681
 20
92.37010943277082
 30
0.0
 10
94.91998954937011
 20
92.46889720905111
 30
0.0
 10
94.97917923127213
 20
92.5676849853314
 30
0.0
 10
95.01176826216965
 20
92.68014692058019
 30
0.0
 10
95.01456692913385
 20
92.79527559055117
 30
0.0
  0
SPLINE
  5
165
330
17
100
AcDbEntity
  8
Plain door casing
100
AcDbSpline
 70
0
 71
3
 72
23
 73
19
 74
0
 40
0.0
 40
0.0
 40
0.0
 40
0.0
 40
1.0
 40
1.0
 40
1.0
 40
2.0
 40
2.0
 40
2.0
 40
3.0
 40
3.0
 40
3.0
 40
4.0
 40
4.0
 40
4.0
 40
5.0
 40
5.0
 40
5.0
 40
6.0
 40
6.0
 40
6.0
 40
6.0
 10
95.01456692913385
 20
92.79527559055117
 30
0.0
 10
95.01736559609806
 20
92.68014692058019
 30
0.0
 10
95.04995462699559
 20
92.5676849853314
 30
0.0
 10
95.1091443088976
 20
92.46889720905111
 30
0.0
 10
95.16833399079961
 20
92.37010943277082
 30
0.0
 10
95.2521280948606
 20
92.28832752805248
 30
0.0
 10
95.35232511493807
 20
92.23155605322877
 30
0.0
 10
95.45252213501554
 20
92.17478457840507
 30
0.0
 10
95.56574283041611
 20
92.14493820596626
 30
0.0
 10
95.68090551181102
 20
92.14493820596626
 30
0.0
 10
95.79606819320593
 20
92.14493820596626
 30
0.0
 10
95.9092888886065
 20
92.17478457840507
 30
0.0
 10
96.00948590868397
 20
92.23155605322877
 30
0.0
 10
96.10968292876146
 20
92.28832752805248
 30
0.0
 10
96.19347703282243
 20
92.37010943277082
 30
0.0
 10
96.25266671472444
 20
92.46889720905111
 30
0.0
 10
96.31185639662645
 20
92.5676849853314
 30
0.0
 10
96.34444542752398
 20
92.68014692058019
 30
0.0
 10
96.34724409448819
 20
92.79527559055117
 30
0.0
  0
SPLINE
  5
166
330
17
100
AcDbEntity
  8
Plain door casing
100
AcDbSpline
 70
0
 71
3
 72
23
 73
19
 74
0
 40
0.0
 40
0.0
 40
0.0
 40
0.0
 40
1.0
 40
1.0
 40
1.0
 40
2.0
 40
2.0
 40
2.0
 40
3.0
 40
3.0
 40
3.0
 40
4.0
 40
4.0
 40
4.0
 40
5.0
 40
5.0
 40
5.0
 40
6.0
 40
6.0
 40
6.0
 40
6.0
 10
96.34724409448819
 20
92.79527559055117
 30
0.0
 10
96.35004276145239
 20
92.68014692058019
 30
0.0
 10
96.38263179234991
 20
92.5676849853314
 30
0.0
 10
96.44182147425192
 20
92.46889720905111
 30
0.0
 10
96.50101115615394
 20
92.37010943277082
 30
0.0
 10
96.58480526021492
 20
92.28832752805248
 30
0.0
 10
96.6850022802924
 20
92.23155605322877
 30
0.0
 10
96.78519930036987
 20
92.17478457840507
 30
0.0
 10
96.89841999577044
 20
92.14493820596626
 30
0.0
 10
97.01358267716535
 20
92.14493820596626
 30
0.0
 10
97.12874535856025
 20
92.14493820596626
 30
0.0
 10
97.24196605396082
 20
92.17478457840507
 30
0.0
 10
97.3421630740383
 20
92.23155605322877
 30
0.0
 10
97.44236009411577
 20
92.28832752805248
 30
0.0
 10
97.52615419817676
 20
92.37010943277082
 30
0.0
 10
97.58534388007877
 20
92.46889720905111
 30
0.0
 10
97.64453356198078
 20
92.5676849853314
 30
0.0
 10
97.6771225928783
 20
92.68014692058019
 30
0.0
 10
97.67992125984252
 20
92.79527559055117
 30
0.0
  0
SPLINE
  5
167
330
17
100
AcDbEntity
  8
Plain door casing
100
AcDbSpline
 70
0
 71
3
 72
23
 73
19
 74
0
 40
0.0
 40
0.0
 40
0.0
 40
0.0
 40
1.0
 40
1.0
 40
1.0
 40
2.0
 40
2.0
 40
2.0
 40
3.0
 40
3.0
 40
3.0
 40
4.0
 40
4.0
 40
4.0
 40
5.0
 40
5.0
 40
5.0
 40
6.0
 40
6.0
 40
6.0
 40
6.0
 10
97.67992125984252
 20
92.79527559055117
 30
0.0
 10
97.67992126865057
 20
92.6782829007376
 30
0.0
 10
97.71072374208973
 20
92.56332653371611
 30
0.0
 10
97.7692200920832
 20
92.46200789521728
 30
0.0
 10
97.82771644207666
 20
92.36068925671844
 30
0.0
 10
97.91187034797433
 20
92.27653535715986
 30
0.0
 10
98.01318899087953
 20
92.21803901479844
 30
0.0
 10
98.11450763378473
 20
92.15954267243703
 30
0.0
 10
98.22946400312648
 20
92.12874020765722
 30
0.0
 10
98.34645669294005
 20
92.12874020766189
 30
0.0
 10
98.46344938275364
 20
92.12874020766658
 30
0.0
 10
98.57840575209292
 20
92.15954267245559
 30
0.0
 10
98.67972439499344
 20
92.21803901482512
 30
0.0
 10
98.78104303789397
 20
92.27653535719465
 30
0.0
 10
98.8651969437849
 20
92.36068925675997
 30
0.0
 10
98.92369329377024
 20
92.46200789526348
 30
0.0
 10
98.98218964375562
 20
92.563326533767
 30
0.0
 10
99.01299211718556
 20
92.6782829007376
 30
0.0
 10
99.01299212598424
 20
92.79527559055117
 30
0.0
  0
SPLINE
  5
168
330
17
100
AcDbEntity
  8
Plain door casing
100
AcDbSpline
 70
0
 71
3
 72
23
 73
19
 74
0
 40
0.0
 40
0.0
 40
0.0
 40
0.0
 40
1.0
 40
1.0
 40
1.0
 40
2.0
 40
2.0
 40
2.0
 40
3.0
 40
3.0
 40
3.0
 40
4.0
 40
4.0
 40
4.0
 40
5.0
 40
5.0
 40
5.0
 40
6.0
 40
6.0
 40
6.0
 40
6.0
 10
99.01299212598424
 20
92.79527559055117
 30
0.0
 10
99.01579079294845
 20
92.68014692058019
 30
0.0
 10
99.04837982384598
 20
92.5676849853314
 30
0.0
 10
99.10756950574799
 20
92.46889720905111
 30
0.0
 10
99.16675918765
 20
92.37010943277082
 30
0.0
 10
99.25055329171099
 20
92.28832752805248
 30
0.0
 10
99.35075031178846
 20
92.23155605322877
 30
0.0
 10
99.45094733186593
 20
92.17478457840507
 30
0.0
 10
99.5641680272665
 20
92.14493820596626
 30
0.0
 10
99.67933070866141
 20
92.14493820596626
 30
0.0
 10
99.79449339005632
 20
92.14493820596626
 30
0.0
 10
99.90771408545689
 20
92.17478457840507
 30
0.0
 10
100.00791110553436
 20
92.23155605322877
 30
0.0
 10
100.10810812561184
 20
92.28832752805248
 30
0.0
 10
100.19190222967282
 20
92.37010943277082
 30
0.0
 10
100.25109191157483
 20
92.46889720905111
 30
0.0
 10
100.31028159347684
 20
92.5676849853314
 30
0.0
 10
100.34287062437437
 20
92.68014692058019
 30
0.0
 10
100.34566929133858
 20
92.79527559055117
 30
0.0
  0
SPLINE
  5
169
330
17
100
AcDbEntity
  8
Plain door casing
100
AcDbSpline
 70
0
 71
3
 72
23
 73
19
 74
0
 40
0.0
 40
0.0
 40
0.0
 40
0.0
 40
1.0
 40
1.0
 40
1.0
 40
2.0
 40
2.0
 40
2.0
 40
3.0
 40
3.0
 40
3.0
 40
4.0
 40
4.0
 40
4.0
 40
5.0
 40
5.0
 40
5.0
 40
6.0
 40
6.0
 40
6.0
 40
6.0
 10
100.34566929133858
 20
92.79527559055117
 30
0.0
 10
100.34846795830278
 20
92.68014692058019
 30
0.0
 10
100.3810569892003
 20
92.5676849853314
 30
0.0
 10
100.44024667110232
 20
92.46889720905111
 30
0.0
 10
100.49943635300433
 20
92.37010943277082
 30
0.0
 10
100.58323045706531
 20
92.28832752805248
 30
0.0
 10
100.68342747714279
 20
92.23155605322877
 30
0.0
 10
100.78362449722027
 20
92.17478457840507
 30
0.0
 10
100.89684519262083
 20
92.14493820596626
 30
0.0
 10
101.01200787401574
 20
92.14493820596626
 30
0.0
 10
101.12717055541064
 20
92.14493820596626
 30
0.0
 10
101.24039125081121
 20
92.17478457840507
 30
0.0
 10
101.34058827088869
 20
92.23155605322877
 30
0.0
 10
101.44078529096618
 20
92.28832752805248
 30
0.0
 10
101.52457939502716
 20
92.37010943277082
 30
0.0
 10
101.58376907692917
 20
92.46889720905111
 30
0.0
 10
101.64295875883118
 20
92.5676849853314
 30
0.0
 10
101.67554778972871
 20
92.68014692058019
 30
0.0
 10
101.6783464566929
 20
92.79527559055117
 30
0.0
  0
SPLINE
  5
16A
330
17
100
AcDbEntity
  8
Plain door casing
100
AcDbSpline
 70
0
 71
3
 72
23
 73
19
 74
0
 40
0.0
 40
0.0
 40
0.0
 40
0.0
 40
1.0
 40
1.0
 40
1.0
 40
2.0
 40
2.0
 40
2.0
 40
3.0
 40
3.0
 40
3.0
 40
4.0
 40
4.0
 40
4.0
 40
5.0
 40
5.0
 40
5.0
 40
6.0
 40
6.0
 40
6.0
 40
6.0
 10
101.6783464566929
 20
92.79527559055117
 30
0.0
 10
101.68114512365712
 20
92.68014692058019
 30
0.0
 10
101.71373415455464
 20
92.5676849853314
 30
0.0
 10
101.77292383645666
 20
92.46889720905111
 30
0.0
 10
101.83211351835867
 20
92.37010943277082
 30
0.0
 10
101.91590762241965
 20
92.28832752805248
 30
0.0
 10
102.01610464249713
 20
92.23155605322877
 30
0.0
 10
102.1163016625746
 20
92.17478457840507
 30
0.0
 10
102.22952235797517
 20
92.14493820596626
 30
0.0
 10
102.34468503937008
 20
92.14493820596626
 30
0.0
 10
102.45984772076498
 20
92.14493820596626
 30
0.0
 10
102.57306841616555
 20
92.17478457840507
 30
0.0
 10
102.67326543624303
 20
92.23155605322877
 30
0.0
 10
102.7734624563205
 20
92.28832752805248
 30
0.0
 10
102.85725656038149
 20
92.37010943277082
 30
0.0
 10
102.9164462422835
 20
92.46889720905111
 30
0.0
 10
102.97563592418551
 20
92.5676849853314
 30
0.0
 10
103.00822495508304
 20
92.68014692058019
 30
0.0
 10
103.01102362204725
 20
92.79527559055117
 30
0.0
  0
SPLINE
  5
16B
330
17
100
AcDbEntity
  8
Plain door casing
100
AcDbSpline
 70
0
 71
3
 72
23
 73
19
 74
0
 40
0.0
 40
0.0
 40
0.0
 40
0.0
 40
1.0
 40
1.0
 40
1.0
 40
2.0
 40
2.0
 40
2.0
 40
3.0
 40
3.0
 40
3.0
 40
4.0
 40
4.0
 40
4.0
 40
5.0
 40
5.0
 40
5.0
 40
6.0
 40
6.0
 40
6.0
 40
6.0
 10
103.01102362204725
 20
92.79527559055117
 30
0.0
 10
103.01382228901144
 20
92.68014692058019
 30
0.0
 10
103.04641131990897
 20
92.5676849853314
 30
0.0
 10
103.10560100181098
 20
92.46889720905111
 30
0.0
 10
103.164790683713
 20
92.37010943277082
 30
0.0
 10
103.24858478777398
 20
92.28832752805248
 30
0.0
 10
103.34878180785145
 20
92.23155605322877
 30
0.0
 10
103.44897882792893
 20
92.17478457840507
 30
0.0
 10
103.5621995233295
 20
92.14493820596626
 30
0.0
 10
103.6773622047244
 20
92.14493820596626
 30
0.0
 10
103.79252488611931
 20
92.14493820596626
 30
0.0
 10
103.90574558151988
 20
92.17478457840507
 30
0.0
 10
104.00594260159735
 20
92.23155605322877
 30
0.0
 10
104.10613962167483
 20
92.28832752805248
 30
0.0
 10
104.18993372573581
 20
92.37010943277082
 30
0.0
 10
104.24912340763782
 20
92.46889720905111
 30
0.0
 10
104.30831308953984
 20
92.5676849853314
 30
0.0
 10
104.34090212043736
 20
92.68014692058019
 30
0.0
 10
104.34370078740157
 20
92.79527559055117
 30
0.0
  0
SPLINE
  5
16C
330
17
100
AcDbEntity
  8
Plain door casing
100
AcDbSpline
 70
0
 71
3
 72
23
 73
19
 74
0
 40
0.0
 40
0.0
 40
0.0
 40
0.0
 40
1.0
 40
1.0
 40
1.0
 40
2.0
 40
2.0
 40
2.0
 40
3.0
 40
3.0
 40
3.0
 40
4.0
 40
4.0
 40
4.0
 40
5.0
 40
5.0
 40
5.0
 40
6.0
 40
6.0
 40
6.0
 40
6.0
 10
104.34370078740157
 20
92.79527559055117
 30
0.0
 10
104.34370078740157
 20
92.67828289507034
 30
0.0
 10
104.37450325517018
 20
92.56332652035937
 30
0.0
 10
104.4329996029106
 20
92.46200787401574
 30
0.0
 10
104.49149595065103
 20
92.36068922767213
 30
0.0
 10
104.57564985759339
 20
92.27653532072976
 30
0.0
 10
104.676968503937
 20
92.21803897298935
 30
0.0
 10
104.77828715028062
 20
92.15954262524893
 30
0.0
 10
104.8932435249916
 20
92.12874015748031
 30
0.0
 10
105.01023622047244
 20
92.12874015748031
 30
0.0
 10
105.12722891595327
 20
92.12874015748031
 30
0.0
 10
105.24218529066425
 20
92.15954262524893
 30
0.0
 10
105.34350393700787
 20
92.21803897298935
 30
0.0
 10
105.4448225833515
 20
92.27653532072976
 30
0.0
 10
105.52897649029384
 20
92.36068922767213
 30
0.0
 10
105.58747283803427
 20
92.46200787401574
 30
0.0
 10
105.64596918577469
 20
92.56332652035937
 30
0.0
 10
105.67677165354331
 20
92.67828289507034
 30
0.0
 10
105.67677165354331
 20
92.79527559055117
 30
0.0
  0
SPLINE
  5
16D
330
17
100
AcDbEntity
  8
Plain door casing
100
AcDbSpline
 70
0
 71
3
 72
23
 73
19
 74
0
 40
0.0
 40
0.0
 40
0.0
 40
0.0
 40
1.0
 40
1.0
 40
1.0
 40
2.0
 40
2.0
 40
2.0
 40
3.0
 40
3.0
 40
3.0
 40
4.0
 40
4.0
 40
4.0
 40
5.0
 40
5.0
 40
5.0
 40
6.0
 40
6.0
 40
6.0
 40
6.0
 10
105.67677165354331
 20
92.79527559055117
 30
0.0
 10
105.67957032050752
 20
92.6801469205802
 30
0.0
 10
105.71215935140506
 20
92.56768498533143
 30
0.0
 10
105.77134903330708
 20
92.46889720905115
 30
0.0
 10
105.83053871520909
 20
92.37010943277087
 30
0.0
 10
105.91433281927007
 20
92.28832752805255
 30
0.0
 10
106.01452983934755
 20
92.23155605322884
 30
0.0
 10
106.11472685942502
 20
92.17478457840515
 30
0.0
 10
106.22794755482558
 20
92.14493820596634
 30
0.0
 10
106.34311023622047
 20
92.14493820596634
 30
0.0
 10
106.45827291761537
 20
92.14493820596634
 30
0.0
 10
106.57149361301592
 20
92.17478457840515
 30
0.0
 10
106.67169063309339
 20
92.23155605322884
 30
0.0
 10
106.77188765317086
 20
92.28832752805255
 30
0.0
 10
106.85568175723185
 20
92.37010943277087
 30
0.0
 10
106.91487143913386
 20
92.46889720905115
 30
0.0
 10
106.97406112103587
 20
92.56768498533143
 30
0.0
 10
107.00665015193341
 20
92.6801469205802
 30
0.0
 10
107.00944881889762
 20
92.79527559055117
 30
0.0
  0
SPLINE
  5
16E
330
17
100
AcDbEntity
  8
Plain door casing
100
AcDbSpline
 70
0
 71
3
 72
23
 73
19
 74
0
 40
0.0
 40
0.0
 40
0.0
 40
0.0
 40
1.0
 40
1.0
 40
1.0
 40
2.0
 40
2.0
 40
2.0
 40
3.0
 40
3.0
 40
3.0
 40
4.0
 40
4.0
 40
4.0
 40
5.0
 40
5.0
 40
5.0
 40
6.0
 40
6.0
 40
6.0
 40
6.0
 10
107.00944881889762
 20
92.79527559055117
 30
0.0
 10
107.01224748586183
 20
92.68014692058019
 30
0.0
 10
107.04483651675936
 20
92.5676849853314
 30
0.0
 10
107.10402619866137
 20
92.46889720905111
 30
0.0
 10
107.16321588056338
 20
92.37010943277082
 30
0.0
 10
107.24700998462437
 20
92.28832752805248
 30
0.0
 10
107.34720700470184
 20
92.23155605322877
 30
0.0
 10
107.44740402477933
 20
92.17478457840507
 30
0.0
 10
107.56062472017989
 20
92.14493820596626
 30
0.0
 10
107.6757874015748
 20
92.14493820596626
 30
0.0
 10
107.7909500829697
 20
92.14493820596626
 30
0.0
 10
107.90417077837027
 20
92.17478457840507
 30
0.0
 10
108.00436779844775
 20
92.23155605322877
 30
0.0
 10
108.10456481852523
 20
92.28832752805248
 30
0.0
 10
108.18835892258622
 20
92.37010943277082
 30
0.0
 10
108.24754860448823
 20
92.46889720905111
 30
0.0
 10
108.30673828639024
 20
92.5676849853314
 30
0.0
 10
108.33932731728777
 20
92.68014692058019
 30
0.0
 10
108.34212598425196
 20
92.79527559055117
 30
0.0
  0
SPLINE
  5
16F
330
17
100
AcDbEntity
  8
Plain door casing
100
AcDbSpline
 70
0
 71
3
 72
23
 73
19
 74
0
 40
0.0
 40
0.0
 40
0.0
 40
0.0
 40
1.0
 40
1.0
 40
1.0
 40
2.0
 40
2.0
 40
2.0
 40
3.0
 40
3.0
 40
3.0
 40
4.0
 40
4.0
 40
4.0
 40
5.0
 40
5.0
 40
5.0
 40
6.0
 40
6.0
 40
6.0
 40
6.0
 10
108.34212598425196
 20
92.79527559055117
 30
0.0
 10
108.34492465121616
 20
92.68014692058019
 30
0.0
 10
108.37751368211369
 20
92.5676849853314
 30
0.0
 10
108.4367033640157
 20
92.46889720905111
 30
0.0
 10
108.49589304591771
 20
92.37010943277082
 30
0.0
 10
108.5796871499787
 20
92.28832752805248
 30
0.0
 10
108.67988417005617
 20
92.23155605322877
 30
0.0
 10
108.78008119013366
 20
92.17478457840507
 30
0.0
 10
108.89330188553423
 20
92.14493820596626
 30
0.0
 10
109.00846456692913
 20
92.14493820596626
 30
0.0
 10
109.12362724832403
 20
92.14493820596626
 30
0.0
 10
109.2368479437246
 20
92.17478457840507
 30
0.0
 10
109.33704496380209
 20
92.23155605322877
 30
0.0
 10
109.43724198387956
 20
92.28832752805248
 30
0.0
 10
109.52103608794054
 20
92.37010943277082
 30
0.0
 10
109.58022576984256
 20
92.46889720905111
 30
0.0
 10
109.63941545174457
 20
92.5676849853314
 30
0.0
 10
109.6720044826421
 20
92.68014692058019
 30
0.0
 10
109.6748031496063
 20
92.79527559055117
 30
0.0
  0
SPLINE
  5
170
330
17
100
AcDbEntity
  8
Plain door casing
100
AcDbSpline
 70
0
 71
3
 72
23
 73
19
 74
0
 40
0.0
 40
0.0
 40
0.0
 40
0.0
 40
1.0
 40
1.0
 40
1.0
 40
2.0
 40
2.0
 40
2.0
 40
3.0
 40
3.0
 40
3.0
 40
4.0
 40
4.0
 40
4.0
 40
5.0
 40
5.0
 40
5.0
 40
6.0
 40
6.0
 40
6.0
 40
6.0
 10
109.6748031496063
 20
92.79527559055117
 30
0.0
 10
109.6776018165705
 20
92.68014692058019
 30
0.0
 10
109.71019084746803
 20
92.5676849853314
 30
0.0
 10
109.76938052937004
 20
92.46889720905111
 30
0.0
 10
109.82857021127205
 20
92.37010943277082
 30
0.0
 10
109.91236431533304
 20
92.28832752805248
 30
0.0
 10
110.01256133541051
 20
92.23155605322877
 30
0.0
 10
110.11275835548798
 20
92.17478457840507
 30
0.0
 10
110.22597905088855
 20
92.14493820596626
 30
0.0
 10
110.34114173228346
 20
92.14493820596626
 30
0.0
 10
110.45630441367837
 20
92.14493820596626
 30
0.0
 10
110.56952510907894
 20
92.17478457840507
 30
0.0
 10
110.66972212915641
 20
92.23155605322877
 30
0.0
 10
110.76991914923389
 20
92.28832752805248
 30
0.0
 10
110.85371325329487
 20
92.37010943277082
 30
0.0
 10
110.91290293519688
 20
92.46889720905111
 30
0.0
 10
110.9720926170989
 20
92.5676849853314
 30
0.0
 10
111.00468164799642
 20
92.68014692058019
 30
0.0
 10
111.00748031496062
 20
92.79527559055117
 30
0.0
  0
SPLINE
  5
171
330
17
100
AcDbEntity
  8
Plain door casing
100
AcDbSpline
 70
0
 71
3
 72
23
 73
19
 74
0
 40
0.0
 40
0.0
 40
0.0
 40
0.0
 40
1.0
 40
1.0
 40
1.0
 40
2.0
 40
2.0
 40
2.0
 40
3.0
 40
3.0
 40
3.0
 40
4.0
 40
4.0
 40
4.0
 40
5.0
 40
5.0
 40
5.0
 40
6.0
 40
6.0
 40
6.0
 40
6.0
 10
111.00748031496062
 20
92.79527559055117
 30
0.0
 10
111.01027898192483
 20
92.68014692058019
 30
0.0
 10
111.04286801282237
 20
92.5676849853314
 30
0.0
 10
111.10205769472438
 20
92.46889720905111
 30
0.0
 10
111.16124737662639
 20
92.37010943277082
 30
0.0
 10
111.24504148068738
 20
92.28832752805248
 30
0.0
 10
111.34523850076485
 20
92.23155605322877
 30
0.0
 10
111.44543552084232
 20
92.17478457840507
 30
0.0
 10
111.5586562162429
 20
92.14493820596626
 30
0.0
 10
111.6738188976378
 20
92.14493820596626
 30
0.0
 10
111.78898157903271
 20
92.14493820596626
 30
0.0
 10
111.90220227443328
 20
92.17478457840507
 30
0.0
 10
112.00239929451075
 20
92.23155605322877
 30
0.0
 10
112.10259631458823
 20
92.28832752805248
 30
0.0
 10
112.18639041864921
 20
92.37010943277082
 30
0.0
 10
112.24558010055122
 20
92.46889720905111
 30
0.0
 10
112.30476978245323
 20
92.5676849853314
 30
0.0
 10
112.33735881335076
 20
92.68014692058019
 30
0.0
 10
112.34015748031496
 20
92.79527559055117
 30
0.0
  0
SPLINE
  5
172
330
17
100
AcDbEntity
  8
Plain door casing
100
AcDbSpline
 70
0
 71
3
 72
23
 73
19
 74
0
 40
0.0
 40
0.0
 40
0.0
 40
0.0
 40
1.0
 40
1.0
 40
1.0
 40
2.0
 40
2.0
 40
2.0
 40
3.0
 40
3.0
 40
3.0
 40
4.0
 40
4.0
 40
4.0
 40
5.0
 40
5.0
 40
5.0
 40
6.0
 40
6.0
 40
6.0
 40
6.0
 10
112.34015748031496
 20
92.79527559055117
 30
0.0
 10
112.34015748912302
 20
92.6782829007376
 30
0.0
 10
112.37095996256217
 20
92.56332653371611
 30
0.0
 10
112.42945631255563
 20
92.46200789521728
 30
0.0
 10
112.4879526625491
 20
92.36068925671844
 30
0.0
 10
112.57210656844677
 20
92.27653535715986
 30
0.0
 10
112.67342521135197
 20
92.21803901479844
 30
0.0
 10
112.77474385425717
 20
92.15954267243703
 30
0.0
 10
112.88970022359891
 20
92.12874020765722
 30
0.0
 10
113.00669291341251
 20
92.12874020766189
 30
0.0
 10
113.12368560322608
 20
92.12874020766658
 30
0.0
 10
113.23864197256536
 20
92.15954267245559
 30
0.0
 10
113.33996061546588
 20
92.21803901482512
 30
0.0
 10
113.4412792583664
 20
92.27653535719465
 30
0.0
 10
113.52543316425732
 20
92.36068925675997
 30
0.0
 10
113.5839295142427
 20
92.46200789526348
 30
0.0
 10
113.64242586422804
 20
92.563326533767
 30
0.0
 10
113.673228337658
 20
92.6782829007376
 30
0.0
 10
113.67322834645668
 20
92.79527559055117
 30
0.0
  0
SPLINE
  5
173
330
17
100
AcDbEntity
  8
Plain door casing
100
AcDbSpline
 70
0
 71
3
 72
23
 73
19
 74
0
 40
0.0
 40
0.0
 40
0.0
 40
0.0
 40
1.0
 40
1.0
 40
1.0
 40
2.0
 40
2.0
 40
2.0
 40
3.0
 40
3.0
 40
3.0
 40
4.0
 40
4.0
 40
4.0
 40
5.0
 40
5.0
 40
5.0
 40
6.0
 40
6.0
 40
6.0
 40
6.0
 10
113.67322834645668
 20
92.79527559055117
 30
0.0
 10
113.67602701342088
 20
92.68014692058017
 30
0.0
 10
113.70861604431839
 20
92.56768498533137
 30
0.0
 10
113.7678057262204
 20
92.46889720905106
 30
0.0
 10
113.8269954081224
 20
92.37010943277078
 30
0.0
 10
113.9107895121834
 20
92.2883275280524
 30
0.0
 10
114.01098653226089
 20
92.2315560532287
 30
0.0
 10
114.11118355233836
 20
92.17478457840498
 30
0.0
 10
114.22440424773893
 20
92.14493820596616
 30
0.0
 10
114.33956692913385
 20
92.14493820596616
 30
0.0
 10
114.45472961052877
 20
92.14493820596616
 30
0.0
 10
114.56795030592934
 20
92.17478457840498
 30
0.0
 10
114.66814732600683
 20
92.2315560532287
 30
0.0
 10
114.76834434608432
 20
92.2883275280524
 30
0.0
 10
114.8521384501453
 20
92.37010943277078
 30
0.0
 10
114.91132813204732
 20
92.46889720905106
 30
0.0
 10
114.97051781394933
 20
92.56768498533137
 30
0.0
 10
115.00310684484683
 20
92.68014692058017
 30
0.0
 10
115.00590551181102
 20
92.79527559055117
 30
0.0
  0
SPLINE
  5
174
330
17
100
AcDbEntity
  8
Plain door casing
100
AcDbSpline
 70
0
 71
3
 72
23
 73
19
 74
0
 40
0.0
 40
0.0
 40
0.0
 40
0.0
 40
1.0
 40
1.0
 40
1.0
 40
2.0
 40
2.0
 40
2.0
 40
3.0
 40
3.0
 40
3.0
 40
4.0
 40
4.0
 40
4.0
 40
5.0
 40
5.0
 40
5.0
 40
6.0
 40
6.0
 40
6.0
 40
6.0
 10
115.00590551181102
 20
92.79527559055117
 30
0.0
 10
115.00870417877525
 20
92.6801469205802
 30
0.0
 10
115.04129320967277
 20
92.56768498533143
 30
0.0
 10
115.10048289157479
 20
92.46889720905115
 30
0.0
 10
115.15967257347681
 20
92.37010943277087
 30
0.0
 10
115.2434666775378
 20
92.28832752805255
 30
0.0
 10
115.34366369761526
 20
92.23155605322884
 30
0.0
 10
115.44386071769273
 20
92.17478457840515
 30
0.0
 10
115.55708141309329
 20
92.14493820596634
 30
0.0
 10
115.67224409448818
 20
92.14493820596634
 30
0.0
 10
115.78740677588308
 20
92.14493820596634
 30
0.0
 10
115.90062747128364
 20
92.17478457840515
 30
0.0
 10
116.0008244913611
 20
92.23155605322884
 30
0.0
 10
116.10102151143857
 20
92.28832752805255
 30
0.0
 10
116.18481561549956
 20
92.37010943277087
 30
0.0
 10
116.24400529740157
 20
92.46889720905115
 30
0.0
 10
116.3031949793036
 20
92.56768498533143
 30
0.0
 10
116.33578401020114
 20
92.6801469205802
 30
0.0
 10
116.33858267716535
 20
92.79527559055117
 30
0.0
  0
LWPOLYLINE
  5
175
330
17
100
AcDbEntity
  8
Plain door casing
100
AcDbPolyline
 90
5
 70
0
 10
80.35433070866141
 20
95.0
 10
116.33858267716535
 20
95.0
 10
116.33858267716535
 20
94.60629921259842
 10
80.35433070866141
 20
94.60629921259842
 10
80.35433070866141
 20
95.0
  0
LWPOLYLINE
  5
176
330
17
100
AcDbEntity
  8
Plain door casing
100
AcDbPolyline
 90
5
 70
0
 10
80.35433070866141
 20
99.64566929133858
 10
116.33858267716535
 20
99.64566929133858
 10
116.33858267716535
 20
95.0
 10
80.35433070866141
 20
95.0
 10
80.35433070866141
 20
99.64566929133858
  0
LINE
  5
177
330
17
100
AcDbEntity
  8
Plain door casing
100
AcDbLine
 10
80.35433070866142
 20
98.77952755905511
 30
0.0
 11
116.33858267716535
 21
98.77952755905511
 31
0.0
  0
LWPOLYLINE
  5
178
330
17
100
AcDbEntity
  8
Plain door casing
100
AcDbPolyline
 90
5
 70
0
 10
73.81889763779527
 20
100.10629921259842
 10
123.38582677165354
 20
100.10629921259842
 10
123.38582677165354
 20
99.64566929133858
 10
73.81889763779527
 20
99.64566929133858
 10
73.81889763779527
 20
100.10629921259842
  0
LWPOLYLINE
  5
179
330
17
100
AcDbEntity
  8
Plain door casing
100
AcDbPolyline
 90
5
 70
0
 10
73.30708661417323
 20
100.66929133858267
 10
123.38582677165354
 20
100.66929133858267
 10
123.38582677165354
 20
100.10629921259842
 10
73.30708661417323
 20
100.10629921259842
 10
73.30708661417323
 20
100.66929133858267
  0
LWPOLYLINE
  5
17A
330
17
100
AcDbEntity
  8
Plain door casing
100
AcDbPolyline
 90
7
 70
0
 10
72.55905511811024
 20
103.58267716535433
 10
124.13385826771653
 20
103.58267716535433
 10
124.13385826771653
 20
102.35905511811023
 10
123.38582677165354
 20
100.66929133858267
 10
73.30708661417323
 20
100.66929133858267
 10
72.55905511811024
 20
102.35905511811023
 10
72.55905511811024
 20
103.58267716535433
  0
LINE
  5
17B
330
17
100
AcDbEntity
  8
Plain door casing
100
AcDbLine
 10
72.55905511811024
 20
102.35905511811023
 30
0.0
 11
124.13385826771653
 21
102.35905511811023
 31
0.0
  0
LINE
  5
17C
330
17
100
AcDbEntity
  8
Plain door casing
100
AcDbLine
 10
72.67716535433071
 20
103.20787401574803
 30
0.0
 11
124.01574803149606
 21
103.20787401574803
 31
0.0
  0
LINE
  5
17D
330
17
100
AcDbEntity
  8
Plain door casing
100
AcDbLine
 10
72.67716535433071
 20
102.9511811023622
 30
0.0
 11
124.01574803149606
 21
102.9511811023622
 31
0.0
  0
LINE
  5
17E
330
17
100
AcDbEntity
  8
Plain door casing
100
AcDbLine
 10
72.67716535433071
 20
102.69448818897638
 30
0.0
 11
124.01574803149606
 21
102.69448818897638
 31
0.0
  0
LWPOLYLINE
  5
17F
330
17
100
AcDbEntity
  8
Plain door casing
100
AcDbPolyline
 90
5
 70
0
 10
74.33070866141732
 20
99.64566929133858
 10
80.35433070866141
 20
99.64566929133858
 10
80.35433070866141
 20
88.38582677165354
 10
74.33070866141732
 20
88.38582677165354
 10
74.33070866141732
 20
99.64566929133858
  0
LINE
  5
180
330
17
100
AcDbEntity
  8
Plain door casing
100
AcDbLine
 10
74.33070866141732
 20
97.83464566929133
 30
0.0
 11
80.35433070866142
 21
97.83464566929133
 31
0.0
  0
LINE
  5
181
330
17
100
AcDbEntity
  8
Plain door casing
100
AcDbLine
 10
74.33070866141732
 20
91.45669291338582
 30
0.0
 11
80.35433070866142
 21
91.45669291338582
 31
0.0
  0
LINE
  5
182
330
17
100
AcDbEntity
  8
Plain door casing
100
AcDbLine
 10
74.33070866141732
 20
89.09448818897637
 30
0.0
 11
80.35433070866142
 21
89.09448818897637
 31
0.0
  0
LINE
  5
183
330
17
100
AcDbEntity
  8
Plain door casing
100
AcDbLine
 10
74.7244094488189
 20
97.83464566929133
 30
0.0
 11
74.7244094488189
 21
89.09448818897637
 31
0.0
  0
LINE
  5
184
330
17
100
AcDbEntity
  8
Plain door casing
100
AcDbLine
 10
79.96062992125984
 20
97.83464566929133
 30
0.0
 11
79.96062992125984
 21
89.09448818897637
 31
0.0
  0
LWPOLYLINE
  5
185
330
17
100
AcDbEntity
  8
Plain door casing
100
AcDbPolyline
 90
5
 70
0
 10
75.19685039370079
 20
97.20472440944881
 10
79.48818897637796
 20
97.20472440944881
 10
79.48818897637796
 20
92.08661417322834
 10
75.19685039370079
 20
92.08661417322834
 10
75.19685039370079
 20
97.20472440944881
  0
LWPOLYLINE
  5
186
330
17
100
AcDbEntity
  8
Plain door casing
100
AcDbPolyline
 90
5
 70
0
 10
75.51181102362204
 20
90.98425196850394
 10
79.17322834645668
 20
90.98425196850394
 10
79.17322834645668
 20
89.48818897637796
 10
75.51181102362204
 20
89.48818897637796
 10
75.51181102362204
 20
90.98425196850394
  0
LWPOLYLINE
  5
187
330
17
100
AcDbEntity
  8
Plain door casing
100
AcDbPolyline
 90
5
 70
0
 10
116.33858267716535
 20
99.64566929133858
 10
122.36220472440945
 20
99.64566929133858
 10
122.36220472440945
 20
88.38582677165354
 10
116.33858267716535
 20
88.38582677165354
 10
116.33858267716535
 20
99.64566929133858
  0
LINE
  5
188
330
17
100
AcDbEntity
  8
Plain door casing
100
AcDbLine
 10
116.33858267716535
 20
97.83464566929133
 30
0.0
 11
122.36220472440945
 21
97.83464566929133
 31
0.0
  0
LINE
  5
189
330
17
100
AcDbEntity
  8
Plain door casing
100
AcDbLine
 10
116.33858267716535
 20
91.45669291338582
 30
0.0
 11
122.36220472440945
 21
91.45669291338582
 31
0.0
  0
LINE
  5
18A
330
17
100
AcDbEntity
  8
Plain door casing
100
AcDbLine
 10
116.33858267716535
 20
89.09448818897637
 30
0.0
 11
122.36220472440945
 21
89.09448818897637
 31
0.0
  0
LINE
  5
18B
330
17
100
AcDbEntity
  8
Plain door casing
100
AcDbLine
 10
116.73228346456693
 20
97.83464566929133
 30
0.0
 11
116.73228346456693
 21
89.09448818897637
 31
0.0
  0
LINE
  5
18C
330
17
100
AcDbEntity
  8
Plain door casing
100
AcDbLine
 10
121.96850393700787
 20
97.83464566929133
 30
0.0
 11
121.96850393700787
 21
89.09448818897637
 31
0.0
  0
LWPOLYLINE
  5
18D
330
17
100
AcDbEntity
  8
Plain door casing
100
AcDbPolyline
 90
5
 70
0
 10
117.20472440944881
 20
97.20472440944881
 10
121.49606299212599
 20
97.20472440944881
 10
121.49606299212599
 20
92.08661417322834
 10
117.20472440944881
 20
92.08661417322834
 10
117.20472440944881
 20
97.20472440944881
  0
LWPOLYLINE
  5
18E
330
17
100
AcDbEntity
  8
Plain door casing
100
AcDbPolyline
 90
5
 70
0
 10
117.51968503937007
 20
90.98425196850394
 10
121.18110236220471
 20
90.98425196850394
 10
121.18110236220471
 20
89.48818897637796
 10
117.51968503937007
 20
89.48818897637796
 10
117.51968503937007
 20
90.98425196850394
  0
LINE
  5
18F
330
17
100
AcDbEntity
  8
Plain door casing
100
AcDbLine
 10
66.85039370078741
 20
0.0
 30
0.0
 11
129.84251968503938
 21
0.0
 31
0.0
  0
TEXT
  5
190
330
17
100
AcDbEntity
  8
LABELS
100
AcDbText
 10
66.85039370078741
 20
105.94488188976378
 30
0.0
 40
1.2598425196850394
  1
PLAIN DOOR CASING  (1:1, inches)
 11
66.85039370078741
 21
105.94488188976378
 31
0.0
100
AcDbText
  0
LWPOLYLINE
  5
193
330
17
100
AcDbEntity
  8
Head detail
100
AcDbPolyline
 90
5
 70
0
 10
147.48031496062993
 20
4.645669291338583
 10
157.99212598425197
 20
4.645669291338583
 10
157.99212598425197
 20
3.3070866141732296
 10
147.48031496062993
 20
3.3070866141732296
 10
147.48031496062993
 20
4.645669291338583
  0
LWPOLYLINE
  5
194
330
17
100
AcDbEntity
  8
Head detail
100
AcDbPolyline
 90
5
 70
0
 10
147.48031496062993
 20
5.118110236220472
 10
157.99212598425197
 20
5.118110236220472
 10
157.99212598425197
 20
4.645669291338583
 10
147.48031496062993
 20
4.645669291338583
 10
147.48031496062993
 20
5.118110236220472
  0
LWPOLYLINE
  5
195
330
17
100
AcDbEntity
  8
Head detail
100
AcDbPolyline
 90
5
 70
0
 10
147.48031496062993
 20
6.929133858267717
 10
157.99212598425197
 20
6.929133858267717
 10
157.99212598425197
 20
5.118110236220472
 10
147.48031496062993
 20
5.118110236220472
 10
147.48031496062993
 20
6.929133858267717
  0
SPLINE
  5
196
330
17
100
AcDbEntity
  8
Head detail
100
AcDbSpline
 70
0
 71
3
 72
23
 73
19
 74
0
 40
0.0
 40
0.0
 40
0.0
 40
0.0
 40
1.0
 40
1.0
 40
1.0
 40
2.0
 40
2.0
 40
2.0
 40
3.0
 40
3.0
 40
3.0
 40
4.0
 40
4.0
 40
4.0
 40
5.0
 40
5.0
 40
5.0
 40
6.0
 40
6.0
 40
6.0
 40
6.0
 10
147.48031496062993
 20
5.118110236220472
 30
0.0
 10
147.48031496286362
 20
5.002776032757124
 30
0.0
 10
147.5106807757482
 20
4.889449283659037
 30
0.0
 10
147.5683478788067
 20
4.789566934300559
 30
0.0
 10
147.62601498186515
 20
4.689684584942082
 30
0.0
 10
147.70897592127415
 20
4.606723647232453
 30
0.0
 10
147.80885827181388
 20
4.549056546219957
 30
0.0
 10
147.9087406223536
 20
4.49138944520746
 30
0.0
 10
148.0220673720737
 20
4.461023634644228
 30
0.0
 10
148.13740157553704
 20
4.461023634773042
 30
0.0
 10
148.2527357790004
 20
4.461023634901858
 30
0.0
 10
148.36606252865266
 20
4.491389445718234
 30
0.0
 10
148.46594487906358
 20
4.549056546953842
 30
0.0
 10
148.56582722947448
 20
4.606723648189453
 30
0.0
 10
148.64878816869816
 20
4.6896845860844
 30
0.0
 10
148.7064552715335
 20
4.78956693557169
 30
0.0
 10
148.76412237436887
 20
4.88944928505898
 30
0.0
 10
148.79448818700033
 20
5.002776032757124
 30
0.0
 10
148.7944881889764
 20
5.118110236220472
 30
0.0
  0
SPLINE
  5
197
330
17
100
AcDbEntity
  8
Head detail
100
AcDbSpline
 70
0
 71
3
 72
23
 73
19
 74
0
 40
0.0
 40
0.0
 40
0.0
 40
0.0
 40
1.0
 40
1.0
 40
1.0
 40
2.0
 40
2.0
 40
2.0
 40
3.0
 40
3.0
 40
3.0
 40
4.0
 40
4.0
 40
4.0
 40
5.0
 40
5.0
 40
5.0
 40
6.0
 40
6.0
 40
6.0
 40
6.0
 10
148.7944881889764
 20
5.118110236220472
 30
0.0
 10
148.79726662892367
 20
5.004627032939119
 30
0.0
 10
148.82940598622687
 20
4.89377705531019
 30
0.0
 10
148.88776125625517
 20
4.796407554872632
 30
0.0
 10
148.9461165262835
 20
4.699038054435073
 30
0.0
 10
149.02872007143452
 20
4.6184321603783705
 30
0.0
 10
149.12748870169386
 20
4.562477582082861
 30
0.0
 10
149.22625733195324
 20
4.506523003787354
 30
0.0
 10
149.33786074192187
 20
4.477106431730675
 30
0.0
 10
149.4513779527559
 20
4.477106431730675
 30
0.0
 10
149.56489516358994
 20
4.477106431730675
 30
0.0
 10
149.6764985735586
 20
4.506523003787354
 30
0.0
 10
149.77526720381795
 20
4.562477582082861
 30
0.0
 10
149.87403583407732
 20
4.6184321603783705
 30
0.0
 10
149.95663937922833
 20
4.699038054435075
 30
0.0
 10
150.01499464925666
 20
4.7964075548726335
 30
0.0
 10
150.07334991928496
 20
4.893777055310192
 30
0.0
 10
150.10548927658817
 20
5.004627032939119
 30
0.0
 10
150.10826771653544
 20
5.118110236220472
 30
0.0
  0
SPLINE
  5
198
330
17
100
AcDbEntity
  8
Head detail
100
AcDbSpline
 70
0
 71
3
 72
23
 73
19
 74
0
 40
0.0
 40
0.0
 40
0.0
 40
0.0
 40
1.0
 40
1.0
 40
1.0
 40
2.0
 40
2.0
 40
2.0
 40
3.0
 40
3.0
 40
3.0
 40
4.0
 40
4.0
 40
4.0
 40
5.0
 40
5.0
 40
5.0
 40
6.0
 40
6.0
 40
6.0
 40
6.0
 10
150.10826771653544
 20
5.118110236220472
 30
0.0
 10
150.10826771876913
 20
5.002776032757124
 30
0.0
 10
150.13863353165374
 20
4.889449283659037
 30
0.0
 10
150.1963006347122
 20
4.789566934300559
 30
0.0
 10
150.25396773777067
 20
4.689684584942082
 30
0.0
 10
150.33692867717966
 20
4.606723647232453
 30
0.0
 10
150.4368110277194
 20
4.549056546219957
 30
0.0
 10
150.53669337825912
 20
4.49138944520746
 30
0.0
 10
150.65002012797922
 20
4.461023634644228
 30
0.0
 10
150.76535433144255
 20
4.461023634773042
 30
0.0
 10
150.88068853490591
 20
4.461023634901858
 30
0.0
 10
150.99401528455817
 20
4.491389445718234
 30
0.0
 10
151.0938976349691
 20
4.549056546953842
 30
0.0
 10
151.19377998538
 20
4.606723648189453
 30
0.0
 10
151.27674092460367
 20
4.6896845860844
 30
0.0
 10
151.33440802743903
 20
4.78956693557169
 30
0.0
 10
151.3920751302744
 20
4.88944928505898
 30
0.0
 10
151.42244094290584
 20
5.002776032757124
 30
0.0
 10
151.42244094488188
 20
5.118110236220472
 30
0.0
  0
SPLINE
  5
199
330
17
100
AcDbEntity
  8
Head detail
100
AcDbSpline
 70
0
 71
3
 72
23
 73
19
 74
0
 40
0.0
 40
0.0
 40
0.0
 40
0.0
 40
1.0
 40
1.0
 40
1.0
 40
2.0
 40
2.0
 40
2.0
 40
3.0
 40
3.0
 40
3.0
 40
4.0
 40
4.0
 40
4.0
 40
5.0
 40
5.0
 40
5.0
 40
6.0
 40
6.0
 40
6.0
 40
6.0
 10
151.42244094488188
 20
5.118110236220472
 30
0.0
 10
151.42521938482918
 20
5.004627032939119
 30
0.0
 10
151.45735874213239
 20
4.89377705531019
 30
0.0
 10
151.5157140121607
 20
4.796407554872632
 30
0.0
 10
151.57406928218901
 20
4.699038054435073
 30
0.0
 10
151.65667282734003
 20
4.6184321603783705
 30
0.0
 10
151.75544145759937
 20
4.562477582082861
 30
0.0
 10
151.85421008785875
 20
4.506523003787354
 30
0.0
 10
151.96581349782738
 20
4.477106431730675
 30
0.0
 10
152.07933070866142
 20
4.477106431730675
 30
0.0
 10
152.19284791949545
 20
4.477106431730675
 30
0.0
 10
152.30445132946411
 20
4.506523003787354
 30
0.0
 10
152.40321995972346
 20
4.562477582082861
 30
0.0
 10
152.50198858998283
 20
4.6184321603783705
 30
0.0
 10
152.58459213513385
 20
4.699038054435075
 30
0.0
 10
152.64294740516215
 20
4.7964075548726335
 30
0.0
 10
152.70130267519048
 20
4.893777055310192
 30
0.0
 10
152.73344203249368
 20
5.004627032939119
 30
0.0
 10
152.73622047244095
 20
5.118110236220472
 30
0.0
  0
SPLINE
  5
19A
330
17
100
AcDbEntity
  8
Head detail
100
AcDbSpline
 70
0
 71
3
 72
23
 73
19
 74
0
 40
0.0
 40
0.0
 40
0.0
 40
0.0
 40
1.0
 40
1.0
 40
1.0
 40
2.0
 40
2.0
 40
2.0
 40
3.0
 40
3.0
 40
3.0
 40
4.0
 40
4.0
 40
4.0
 40
5.0
 40
5.0
 40
5.0
 40
6.0
 40
6.0
 40
6.0
 40
6.0
 10
152.73622047244095
 20
5.118110236220472
 30
0.0
 10
152.73622047467464
 20
5.002776032757124
 30
0.0
 10
152.76658628755922
 20
4.889449283659037
 30
0.0
 10
152.8242533906177
 20
4.789566934300559
 30
0.0
 10
152.88192049367618
 20
4.689684584942082
 30
0.0
 10
152.96488143308517
 20
4.606723647232453
 30
0.0
 10
153.0647637836249
 20
4.549056546219957
 30
0.0
 10
153.16464613416463
 20
4.49138944520746
 30
0.0
 10
153.27797288388473
 20
4.461023634644228
 30
0.0
 10
153.39330708734806
 20
4.461023634773042
 30
0.0
 10
153.50864129081143
 20
4.461023634901858
 30
0.0
 10
153.62196804046368
 20
4.491389445718234
 30
0.0
 10
153.7218503908746
 20
4.549056546953842
 30
0.0
 10
153.8217327412855
 20
4.606723648189453
 30
0.0
 10
153.90469368050918
 20
4.6896845860844
 30
0.0
 10
153.96236078334454
 20
4.78956693557169
 30
0.0
 10
154.02002788617992
 20
4.88944928505898
 30
0.0
 10
154.05039369881138
 20
5.002776032757124
 30
0.0
 10
154.05039370078742
 20
5.118110236220472
 30
0.0
  0
SPLINE
  5
19B
330
17
100
AcDbEntity
  8
Head detail
100
AcDbSpline
 70
0
 71
3
 72
23
 73
19
 74
0
 40
0.0
 40
0.0
 40
0.0
 40
0.0
 40
1.0
 40
1.0
 40
1.0
 40
2.0
 40
2.0
 40
2.0
 40
3.0
 40
3.0
 40
3.0
 40
4.0
 40
4.0
 40
4.0
 40
5.0
 40
5.0
 40
5.0
 40
6.0
 40
6.0
 40
6.0
 40
6.0
 10
154.05039370078742
 20
5.118110236220472
 30
0.0
 10
154.0531721407347
 20
5.004627032939119
 30
0.0
 10
154.0853114980379
 20
4.89377705531019
 30
0.0
 10
154.1436667680662
 20
4.796407554872632
 30
0.0
 10
154.20202203809453
 20
4.699038054435073
 30
0.0
 10
154.28462558324554
 20
4.6184321603783705
 30
0.0
 10
154.3833942135049
 20
4.562477582082861
 30
0.0
 10
154.48216284376426
 20
4.506523003787354
 30
0.0
 10
154.5937662537329
 20
4.477106431730675
 30
0.0
 10
154.70728346456693
 20
4.477106431730675
 30
0.0
 10
154.82080067540096
 20
4.477106431730675
 30
0.0
 10
154.93240408536963
 20
4.506523003787354
 30
0.0
 10
155.03117271562897
 20
4.562477582082861
 30
0.0
 10
155.12994134588834
 20
4.6184321603783705
 30
0.0
 10
155.21254489103936
 20
4.699038054435075
 30
0.0
 10
155.2709001610677
 20
4.7964075548726335
 30
0.0
 10
155.329255431096
 20
4.893777055310192
 30
0.0
 10
155.3613947883992
 20
5.004627032939119
 30
0.0
 10
155.36417322834646
 20
5.118110236220472
 30
0.0
  0
SPLINE
  5
19C
330
17
100
AcDbEntity
  8
Head detail
100
AcDbSpline
 70
0
 71
3
 72
23
 73
19
 74
0
 40
0.0
 40
0.0
 40
0.0
 40
0.0
 40
1.0
 40
1.0
 40
1.0
 40
2.0
 40
2.0
 40
2.0
 40
3.0
 40
3.0
 40
3.0
 40
4.0
 40
4.0
 40
4.0
 40
5.0
 40
5.0
 40
5.0
 40
6.0
 40
6.0
 40
6.0
 40
6.0
 10
155.36417322834646
 20
5.118110236220472
 30
0.0
 10
155.36417323058015
 20
5.002776032757124
 30
0.0
 10
155.39453904346476
 20
4.889449283659037
 30
0.0
 10
155.45220614652322
 20
4.789566934300559
 30
0.0
 10
155.5098732495817
 20
4.689684584942082
 30
0.0
 10
155.59283418899068
 20
4.606723647232453
 30
0.0
 10
155.6927165395304
 20
4.549056546219957
 30
0.0
 10
155.79259889007014
 20
4.49138944520746
 30
0.0
 10
155.90592563979024
 20
4.461023634644228
 30
0.0
 10
156.02125984325357
 20
4.461023634773042
 30
0.0
 10
156.13659404671694
 20
4.461023634901858
 30
0.0
 10
156.2499207963692
 20
4.491389445718234
 30
0.0
 10
156.34980314678012
 20
4.549056546953842
 30
0.0
 10
156.449685497191
 20
4.606723648189453
 30
0.0
 10
156.5326464364147
 20
4.6896845860844
 30
0.0
 10
156.59031353925005
 20
4.78956693557169
 30
0.0
 10
156.64798064208543
 20
4.88944928505898
 30
0.0
 10
156.67834645471686
 20
5.002776032757124
 30
0.0
 10
156.67834645669294
 20
5.118110236220472
 30
0.0
  0
SPLINE
  5
19D
330
17
100
AcDbEntity
  8
Head detail
100
AcDbSpline
 70
0
 71
3
 72
23
 73
19
 74
0
 40
0.0
 40
0.0
 40
0.0
 40
0.0
 40
1.0
 40
1.0
 40
1.0
 40
2.0
 40
2.0
 40
2.0
 40
3.0
 40
3.0
 40
3.0
 40
4.0
 40
4.0
 40
4.0
 40
5.0
 40
5.0
 40
5.0
 40
6.0
 40
6.0
 40
6.0
 40
6.0
 10
156.67834645669294
 20
5.118110236220472
 30
0.0
 10
156.6811248966402
 20
5.004627032939119
 30
0.0
 10
156.7132642539434
 20
4.89377705531019
 30
0.0
 10
156.7716195239717
 20
4.796407554872632
 30
0.0
 10
156.82997479400004
 20
4.699038054435073
 30
0.0
 10
156.91257833915105
 20
4.6184321603783705
 30
0.0
 10
157.0113469694104
 20
4.562477582082861
 30
0.0
 10
157.11011559966977
 20
4.506523003787354
 30
0.0
 10
157.22171900963843
 20
4.477106431730675
 30
0.0
 10
157.33523622047244
 20
4.477106431730675
 30
0.0
 10
157.44875343130647
 20
4.477106431730675
 30
0.0
 10
157.56035684127514
 20
4.506523003787354
 30
0.0
 10
157.65912547153448
 20
4.562477582082861
 30
0.0
 10
157.75789410179385
 20
4.6184321603783705
 30
0.0
 10
157.84049764694487
 20
4.699038054435075
 30
0.0
 10
157.8988529169732
 20
4.7964075548726335
 30
0.0
 10
157.9572081870015
 20
4.893777055310192
 30
0.0
 10
157.9893475443047
 20
5.004627032939119
 30
0.0
 10
157.99212598425197
 20
5.118110236220472
 30
0.0
  0
LWPOLYLINE
  5
19E
330
17
100
AcDbEntity
  8
Head detail
100
AcDbPolyline
 90
5
 70
0
 10
147.48031496062993
 20
7.322834645669291
 10
157.99212598425197
 20
7.322834645669291
 10
157.99212598425197
 20
6.929133858267717
 10
147.48031496062993
 20
6.929133858267717
 10
147.48031496062993
 20
7.322834645669291
  0
LWPOLYLINE
  5
19F
330
17
100
AcDbEntity
  8
Head detail
100
AcDbPolyline
 90
5
 70
0
 10
147.48031496062993
 20
11.968503937007874
 10
157.99212598425197
 20
11.968503937007874
 10
157.99212598425197
 20
7.322834645669291
 10
147.48031496062993
 20
7.322834645669291
 10
147.48031496062993
 20
11.968503937007874
  0
LINE
  5
1A0
330
17
100
AcDbEntity
  8
Head detail
100
AcDbLine
 10
147.48031496062993
 20
11.10236220472441
 30
0.0
 11
157.99212598425197
 21
11.10236220472441
 31
0.0
  0
LWPOLYLINE
  5
1A1
330
17
100
AcDbEntity
  8
Head detail
100
AcDbPolyline
 90
5
 70
0
 10
140.9448818897638
 20
12.429133858267717
 10
157.99212598425197
 20
12.429133858267717
 10
157.99212598425197
 20
11.968503937007874
 10
140.9448818897638
 20
11.968503937007874
 10
140.9448818897638
 20
12.429133858267717
  0
LWPOLYLINE
  5
1A2
330
17
100
AcDbEntity
  8
Head detail
100
AcDbPolyline
 90
5
 70
0
 10
140.43307086614175
 20
12.992125984251969
 10
157.99212598425197
 20
12.992125984251969
 10
157.99212598425197
 20
12.429133858267717
 10
140.43307086614175
 20
12.429133858267717
 10
140.43307086614175
 20
12.992125984251969
  0
LWPOLYLINE
  5
1A3
330
17
100
AcDbEntity
  8
Head detail
100
AcDbPolyline
 90
6
 70
0
 10
139.68503937007875
 20
15.905511811023622
 10
157.99212598425197
 20
15.905511811023622
 10
157.99212598425197
 20
12.992125984251969
 10
140.43307086614175
 20
12.992125984251969
 10
139.68503937007875
 20
14.681889763779528
 10
139.68503937007875
 20
15.905511811023622
  0
LINE
  5
1A4
330
17
100
AcDbEntity
  8
Head detail
100
AcDbLine
 10
139.68503937007873
 20
14.681889763779528
 30
0.0
 11
157.99212598425197
 21
14.681889763779528
 31
0.0
  0
LINE
  5
1A5
330
17
100
AcDbEntity
  8
Head detail
100
AcDbLine
 10
139.8031496062992
 20
15.530708661417323
 30
0.0
 11
157.99212598425197
 21
15.530708661417323
 31
0.0
  0
LINE
  5
1A6
330
17
100
AcDbEntity
  8
Head detail
100
AcDbLine
 10
139.8031496062992
 20
15.274015748031495
 30
0.0
 11
157.99212598425197
 21
15.274015748031495
 31
0.0
  0
LINE
  5
1A7
330
17
100
AcDbEntity
  8
Head detail
100
AcDbLine
 10
139.8031496062992
 20
15.017322834645668
 30
0.0
 11
157.99212598425197
 21
15.017322834645668
 31
0.0
  0
LWPOLYLINE
  5
1A8
330
17
100
AcDbEntity
  8
Head detail
100
AcDbPolyline
 90
5
 70
0
 10
141.45669291338584
 20
11.968503937007874
 10
147.48031496062993
 20
11.968503937007874
 10
147.48031496062993
 20
0.7086614173228352
 10
141.45669291338584
 20
0.7086614173228352
 10
141.45669291338584
 20
11.968503937007874
  0
LINE
  5
1A9
330
17
100
AcDbEntity
  8
Head detail
100
AcDbLine
 10
141.45669291338584
 20
10.15748031496063
 30
0.0
 11
147.48031496062993
 21
10.15748031496063
 31
0.0
  0
LINE
  5
1AA
330
17
100
AcDbEntity
  8
Head detail
100
AcDbLine
 10
141.45669291338584
 20
3.779527559055118
 30
0.0
 11
147.48031496062993
 21
3.779527559055118
 31
0.0
  0
LINE
  5
1AB
330
17
100
AcDbEntity
  8
Head detail
100
AcDbLine
 10
141.45669291338584
 20
1.4173228346456692
 30
0.0
 11
147.48031496062993
 21
1.4173228346456692
 31
0.0
  0
LINE
  5
1AC
330
17
100
AcDbEntity
  8
Head detail
100
AcDbLine
 10
141.8503937007874
 20
10.15748031496063
 30
0.0
 11
141.8503937007874
 21
1.4173228346456692
 31
0.0
  0
LINE
  5
1AD
330
17
100
AcDbEntity
  8
Head detail
100
AcDbLine
 10
147.08661417322836
 20
10.15748031496063
 30
0.0
 11
147.08661417322836
 21
1.4173228346456692
 31
0.0
  0
SPLINE
  5
1AE
330
17
100
AcDbEntity
  8
Head detail
100
AcDbSpline
 70
0
 71
3
 72
8
 73
4
 74
0
 40
0.0
 40
0.0
 40
0.0
 40
0.0
 40
1.0
 40
1.0
 40
1.0
 40
1.0
 10
144.46850393700788
 20
10.433070866141733
 30
0.0
 10
144.10209973753282
 20
10.71496062992126
 30
0.0
 10
143.84094488188978
 20
10.891076115485564
 30
0.0
 10
143.68503937007875
 20
10.961417322834645
 30
0.0
  0
SPLINE
  5
1AF
330
17
100
AcDbEntity
  8
Head detail
100
AcDbSpline
 70
0
 71
3
 72
8
 73
4
 74
0
 40
0.0
 40
0.0
 40
0.0
 40
0.0
 40
1.0
 40
1.0
 40
1.0
 40
1.0
 10
143.68503937007875
 20
10.961417322834645
 30
0.0
 10
144.15616797900262
 20
10.848818897637795
 30
0.0
 10
144.41732283464566
 20
10.67270341207349
 30
0.0
 10
144.46850393700788
 20
10.433070866141733
 30
0.0
  0
SPLINE
  5
1B0
330
17
100
AcDbEntity
  8
Head detail
100
AcDbSpline
 70
0
 71
3
 72
8
 73
4
 74
0
 40
0.0
 40
0.0
 40
0.0
 40
0.0
 40
1.0
 40
1.0
 40
1.0
 40
1.0
 10
144.46850393700788
 20
10.433070866141733
 30
0.0
 10
144.15958005249345
 20
10.970603674540683
 30
0.0
 10
143.98097112860893
 20
11.306692913385827
 30
0.0
 10
143.93267716535433
 20
11.441338582677165
 30
0.0
  0
SPLINE
  5
1B1
330
17
100
AcDbEntity
  8
Head detail
100
AcDbSpline
 70
0
 71
3
 72
8
 73
4
 74
0
 40
0.0
 40
0.0
 40
0.0
 40
0.0
 40
1.0
 40
1.0
 40
1.0
 40
1.0
 10
143.93267716535433
 20
11.441338582677165
 30
0.0
 10
144.31272965879268
 20
11.226115485564305
 30
0.0
 10
144.49133858267717
 20
10.890026246719161
 30
0.0
 10
144.46850393700788
 20
10.433070866141733
 30
0.0
  0
SPLINE
  5
1B2
330
17
100
AcDbEntity
  8
Head detail
100
AcDbSpline
 70
0
 71
3
 72
8
 73
4
 74
0
 40
0.0
 40
0.0
 40
0.0
 40
0.0
 40
1.0
 40
1.0
 40
1.0
 40
1.0
 10
144.46850393700788
 20
10.433070866141733
 30
0.0
 10
144.28477690288716
 20
11.146981627296588
 30
0.0
 10
144.28477690288716
 20
11.593175853018373
 30
0.0
 10
144.46850393700788
 20
11.771653543307087
 30
0.0
  0
SPLINE
  5
1B3
330
17
100
AcDbEntity
  8
Head detail
100
AcDbSpline
 70
0
 71
3
 72
8
 73
4
 74
0
 40
0.0
 40
0.0
 40
0.0
 40
0.0
 40
1.0
 40
1.0
 40
1.0
 40
1.0
 10
144.46850393700788
 20
11.771653543307087
 30
0.0
 10
144.6522309711286
 20
11.486089238845146
 30
0.0
 10
144.6522309711286
 20
11.039895013123362
 30
0.0
 10
144.46850393700788
 20
10.433070866141733
 30
0.0
  0
SPLINE
  5
1B4
330
17
100
AcDbEntity
  8
Head detail
100
AcDbSpline
 70
0
 71
3
 72
8
 73
4
 74
0
 40
0.0
 40
0.0
 40
0.0
 40
0.0
 40
1.0
 40
1.0
 40
1.0
 40
1.0
 10
144.46850393700788
 20
10.433070866141733
 30
0.0
 10
144.40997375328087
 20
10.970603674540683
 30
0.0
 10
144.58858267716536
 20
11.306692913385827
 30
0.0
 10
145.00433070866143
 20
11.441338582677165
 30
0.0
  0
SPLINE
  5
1B5
330
17
100
AcDbEntity
  8
Head detail
100
AcDbSpline
 70
0
 71
3
 72
8
 73
4
 74
0
 40
0.0
 40
0.0
 40
0.0
 40
0.0
 40
1.0
 40
1.0
 40
1.0
 40
1.0
 10
145.00433070866143
 20
11.441338582677165
 30
0.0
 10
144.9917322834646
 20
11.226115485564305
 30
0.0
 10
144.81312335958006
 20
10.890026246719161
 30
0.0
 10
144.46850393700788
 20
10.433070866141733
 30
0.0
  0
SPLINE
  5
1B6
330
17
100
AcDbEntity
  8
Head detail
100
AcDbSpline
 70
0
 71
3
 72
8
 73
4
 74
0
 40
0.0
 40
0.0
 40
0.0
 40
0.0
 40
1.0
 40
1.0
 40
1.0
 40
1.0
 10
144.46850393700788
 20
10.433070866141733
 30
0.0
 10
144.4674540682415
 20
10.71496062992126
 30
0.0
 10
144.72860892388454
 20
10.891076115485564
 30
0.0
 10
145.251968503937
 20
10.961417322834645
 30
0.0
  0
SPLINE
  5
1B7
330
17
100
AcDbEntity
  8
Head detail
100
AcDbSpline
 70
0
 71
3
 72
8
 73
4
 74
0
 40
0.0
 40
0.0
 40
0.0
 40
0.0
 40
1.0
 40
1.0
 40
1.0
 40
1.0
 10
145.251968503937
 20
10.961417322834645
 30
0.0
 10
145.1482939632546
 20
10.848818897637795
 30
0.0
 10
144.88713910761155
 20
10.67270341207349
 30
0.0
 10
144.46850393700788
 20
10.433070866141733
 30
0.0
  0
LWPOLYLINE
  5
1B8
330
17
100
AcDbEntity
  8
Head detail
100
AcDbPolyline
 90
3
 70
0
 10
142.5488188976378
 20
8.779527559055119
 10
144.46850393700788
 20
9.606299212598426
 10
146.38818897637796
 20
8.779527559055119
  0
LWPOLYLINE
  5
1B9
330
17
100
AcDbEntity
  8
Head detail
100
AcDbPolyline
 90
3
 70
0
 10
142.58897637795278
 20
8.292913385826772
 10
144.46850393700788
 20
9.11968503937008
 10
146.34803149606302
 20
8.292913385826772
  0
LWPOLYLINE
  5
1BA
330
17
100
AcDbEntity
  8
Head detail
100
AcDbPolyline
 90
3
 70
0
 10
142.62952755905513
 20
7.805905511811025
 10
144.46850393700788
 20
8.63267716535433
 10
146.30748031496063
 20
7.805905511811025
  0
LWPOLYLINE
  5
1BB
330
17
100
AcDbEntity
  8
Head detail
100
AcDbPolyline
 90
3
 70
0
 10
142.66968503937008
 20
7.319291338582678
 10
144.46850393700788
 20
8.146062992125984
 10
146.26732283464568
 20
7.319291338582678
  0
LWPOLYLINE
  5
1BC
330
17
100
AcDbEntity
  8
Head detail
100
AcDbPolyline
 90
3
 70
0
 10
142.70984251968505
 20
6.8326771653543314
 10
144.46850393700788
 20
7.659448818897639
 10
146.2271653543307
 20
6.8326771653543314
  0
LWPOLYLINE
  5
1BD
330
17
100
AcDbEntity
  8
Head detail
100
AcDbPolyline
 90
3
 70
0
 10
142.7503937007874
 20
6.345669291338583
 10
144.46850393700788
 20
7.17244094488189
 10
146.18661417322835
 20
6.345669291338583
  0
LWPOLYLINE
  5
1BE
330
17
100
AcDbEntity
  8
Head detail
100
AcDbPolyline
 90
3
 70
0
 10
142.79055118110236
 20
5.859055118110236
 10
144.46850393700788
 20
6.685826771653543
 10
146.1464566929134
 20
5.859055118110236
  0
LWPOLYLINE
  5
1BF
330
17
100
AcDbEntity
  8
Head detail
100
AcDbPolyline
 90
3
 70
0
 10
142.83110236220475
 20
5.372047244094489
 10
144.46850393700788
 20
6.1988188976377945
 10
146.10590551181105
 20
5.372047244094489
  0
LWPOLYLINE
  5
1C0
330
17
100
AcDbEntity
  8
Head detail
100
AcDbPolyline
 90
3
 70
0
 10
142.8712598425197
 20
4.88543307086614
 10
144.46850393700788
 20
5.712204724409448
 10
146.06574803149607
 20
4.88543307086614
  0
LWPOLYLINE
  5
1C1
330
17
100
AcDbEntity
  8
Head detail
100
AcDbPolyline
 90
3
 70
0
 10
142.91141732283467
 20
4.3988188976377955
 10
144.46850393700788
 20
5.225590551181103
 10
146.02559055118112
 20
4.3988188976377955
  0
LWPOLYLINE
  5
1C2
330
17
100
AcDbEntity
  8
Head detail
100
AcDbPolyline
 90
3
 70
0
 10
142.95196850393702
 20
3.9118110236220485
 10
144.46850393700788
 20
4.738582677165356
 10
145.98503937007874
 20
3.9118110236220485
  0
LWPOLYLINE
  5
1C3
330
17
100
AcDbEntity
  8
Head detail
100
AcDbPolyline
 90
3
 70
0
 10
142.99212598425197
 20
3.425196850393702
 10
144.46850393700788
 20
4.251968503937007
 10
145.9448818897638
 20
3.425196850393702
  0
LINE
  5
1C4
330
17
100
AcDbEntity
  8
Head detail
100
AcDbLine
 10
142.48031496062993
 20
9.606299212598426
 30
0.0
 11
142.99212598425197
 21
3.425196850393701
 31
0.0
  0
LINE
  5
1C5
330
17
100
AcDbEntity
  8
Head detail
100
AcDbLine
 10
146.45669291338584
 20
9.606299212598426
 30
0.0
 11
145.94488188976376
 21
3.425196850393701
 31
0.0
  0
LWPOLYLINE
  5
1C6
330
17
100
AcDbEntity
  8
Head detail
100
AcDbPolyline
 90
5
 70
0
 10
142.57874015748033
 20
3.346456692913387
 10
146.35826771653544
 20
3.346456692913387
 10
146.35826771653544
 20
1.8110236220472444
 10
142.57874015748033
 20
1.8110236220472444
 10
142.57874015748033
 20
3.346456692913387
  0
LWPOLYLINE
  5
1C7
330
17
100
AcDbEntity
  8
Head detail
100
AcDbPolyline
 90
5
 70
0
 10
144.46850393700788
 20
3.346456692913387
 10
146.0433070866142
 20
2.578740157480315
 10
144.46850393700788
 20
1.8110236220472444
 10
142.89370078740157
 20
2.578740157480315
 10
144.46850393700788
 20
3.346456692913387
  0
LWPOLYLINE
  5
1C8
330
17
100
AcDbEntity
  8
Head detail
100
AcDbPolyline
 90
5
 70
0
 10
144.46850393700788
 20
3.0240157480314966
 10
145.38188976377953
 20
2.578740157480315
 10
144.46850393700788
 20
2.1334645669291348
 10
143.55511811023624
 20
2.578740157480315
 10
144.46850393700788
 20
3.0240157480314966
  0
LWPOLYLINE
  5
1C9
330
17
100
AcDbEntity
  8
Head detail
100
AcDbPolyline
 90
5
 70
0
 10
143.91574803149607
 20
3.0539370078740156
 10
145.0212598425197
 20
3.0539370078740156
 10
145.0212598425197
 20
2.1031496062992137
 10
143.91574803149607
 20
2.1031496062992137
 10
143.91574803149607
 20
3.0539370078740156
  0
LINE
  5
1CA
330
17
100
AcDbEntity
  8
Head detail
100
AcDbLine
 10
143.6811023622047
 20
2.9625984251968505
 30
0.0
 11
145.25590551181102
 21
2.1948818897637796
 31
0.0
  0
LINE
  5
1CB
330
17
100
AcDbEntity
  8
Head detail
100
AcDbLine
 10
143.6811023622047
 20
2.1948818897637796
 30
0.0
 11
145.25590551181102
 21
2.9625984251968505
 31
0.0
  0
LWPOLYLINE
  5
1CC
330
17
100
AcDbEntity
  8
Head detail
100
AcDbPolyline
 90
47
 70
0
 10
157.99212598425197
 20
16.299212598425196
 10
158.22834645669292
 20
15.94488188976378
 10
157.99212598425197
 20
15.590551181102363
 10
157.75590551181102
 20
15.236220472440944
 10
157.99212598425197
 20
14.881889763779528
 10
158.22834645669292
 20
14.527559055118111
 10
157.99212598425197
 20
14.173228346456693
 10
157.75590551181102
 20
13.818897637795276
 10
157.99212598425197
 20
13.46456692913386
 10
158.22834645669292
 20
13.11023622047244
 10
157.99212598425197
 20
12.755905511811024
 10
157.75590551181102
 20
12.401574803149607
 10
157.99212598425197
 20
12.047244094488189
 10
158.22834645669292
 20
11.692913385826772
 10
157.99212598425197
 20
11.338582677165356
 10
157.75590551181102
 20
10.984251968503937
 10
157.99212598425197
 20
10.62992125984252
 10
158.22834645669292
 20
10.275590551181104
 10
157.99212598425197
 20
9.921259842519685
 10
157.75590551181102
 20
9.566929133858267
 10
157.99212598425197
 20
9.212598425196852
 10
158.22834645669292
 20
8.858267716535433
 10
157.99212598425197
 20
8.503937007874015
 10
157.75590551181102
 20
8.1496062992126
 10
157.99212598425197
 20
7.7952755905511815
 10
158.22834645669292
 20
7.440944881889765
 10
157.99212598425197
 20
7.086614173228346
 10
157.75590551181102
 20
6.73228346456693
 10
157.99212598425197
 20
6.377952755905513
 10
158.22834645669292
 20
6.0236220472440944
 10
157.99212598425197
 20
5.669291338582678
 10
157.75590551181102
 20
5.314960629921259
 10
157.99212598425197
 20
4.960629921259843
 10
158.22834645669292
 20
4.606299212598426
 10
157.99212598425197
 20
4.251968503937007
 10
157.75590551181102
 20
3.8976377952755907
 10
157.99212598425197
 20
3.543307086614174
 10
158.22834645669292
 20
3.1889763779527556
 10
157.99212598425197
 20
2.834645669291339
 10
157.75590551181102
 20
2.480314960629922
 10
157.99212598425197
 20
2.1259842519685037
 10
158.22834645669292
 20
1.771653543307087
 10
157.99212598425197
 20
1.4173228346456703
 10
157.75590551181102
 20
1.0629921259842519
 10
157.99212598425197
 20
0.7086614173228352
 10
158.22834645669292
 20
0.35433070866141847
 10
157.99212598425197
 20
0.0
  0
TEXT
  5
1CD
330
17
100
AcDbEntity
  8
LABELS
100
AcDbText
 10
139.68503937007873
 20
18.661417322834644
 30
0.0
 40
0.7086614173228346
  1
HEAD DETAIL  (1:1, inches)
 11
139.68503937007873
 21
18.661417322834644
 31
0.0
100
AcDbText
  0
HATCH
  5
1D0
330
17
100
AcDbEntity
  8
Head section hatch
 62
7
100
AcDbHatch
 10
0.0
 20
0.0
 30
0.0
210
0.0
220
0.0
230
1.0
  2
ANSI31
 70
0
 71
0
 91
1
 92
3
 72
0
 73
1
 93
17
 10
169.40944881889763
 20
14.027559055118111
 10
174.0551181102362
 20
14.027559055118111
 10
174.0551181102362
 20
11.114173228346457
 10
173.18897637795274
 20
11.114173228346457
 10
173.18897637795274
 20
10.090551181102363
 10
170.748031496063
 20
10.090551181102363
 10
170.748031496063
 20
5.44488188976378
 10
171.14173228346456
 20
5.44488188976378
 10
171.14173228346456
 20
5.0511811023622055
 10
171.3779527559055
 20
5.0511811023622055
 10
171.3779527559055
 20
3.240157480314961
 10
171.06299212598424
 20
3.240157480314961
 10
171.06299212598424
 20
2.7677165354330713
 10
171.14173228346456
 20
2.7677165354330713
 10
171.14173228346456
 20
1.4291338582677169
 10
169.40944881889763
 20
1.4291338582677169
 10
169.40944881889763
 20
14.027559055118111
 97
0
 75
1
 76
1
 52
0.0
 41
0.15748031496062992
 77
0
 78
1
 53
45.0
 43
0.0
 44
0.0
 45
-0.0139194248
 46
0.0139194248
 79
0
 98
0
  0
LWPOLYLINE
  5
1D1
330
17
100
AcDbEntity
  8
Head section
100
AcDbPolyline
 90
17
 70
0
 10
169.40944881889763
 20
14.027559055118111
 10
174.0551181102362
 20
14.027559055118111
 10
174.0551181102362
 20
11.114173228346457
 10
173.18897637795274
 20
11.114173228346457
 10
173.18897637795274
 20
10.090551181102363
 10
170.748031496063
 20
10.090551181102363
 10
170.748031496063
 20
5.44488188976378
 10
171.14173228346456
 20
5.44488188976378
 10
171.14173228346456
 20
5.0511811023622055
 10
171.3779527559055
 20
5.0511811023622055
 10
171.3779527559055
 20
3.240157480314961
 10
171.06299212598424
 20
3.240157480314961
 10
171.06299212598424
 20
2.767716535433072
 10
171.14173228346456
 20
2.767716535433072
 10
171.14173228346456
 20
1.4291338582677184
 10
169.40944881889763
 20
1.4291338582677184
 10
169.40944881889763
 20
14.027559055118111
  0
LINE
  5
1D2
330
17
100
AcDbEntity
  8
Head section
100
AcDbLine
 10
168.07086614173227
 20
14.027559055118111
 30
0.0
 11
169.40944881889763
 21
14.027559055118111
 31
0.0
  0
LINE
  5
1D3
330
17
100
AcDbEntity
  8
Head section
100
AcDbLine
 10
169.40944881889763
 20
14.578740157480315
 30
0.0
 11
169.40944881889763
 21
0.8779527559055122
 31
0.0
  0
LWPOLYLINE
  5
1D4
330
17
100
AcDbEntity
  8
Head section
  6
DASHED
100
AcDbPolyline
 90
4
 70
0
 10
170.748031496063
 20
10.090551181102363
 10
172.63779527559055
 20
10.090551181102363
 10
172.63779527559055
 20
0.0
 10
170.748031496063
 20
0.0
  0
TEXT
  5
1D5
330
17
100
AcDbEntity
  8
LABELS
100
AcDbText
 10
168.07086614173227
 20
16.940944881889763
 30
0.0
 40
0.7086614173228346
  1
HEAD SECTION  (1:1, inches)
 11
168.07086614173227
 21
16.940944881889763
 31
0.0
100
AcDbText
  0
LWPOLYLINE
  5
1D8
330
17
100
AcDbEntity
  8
Corbel
100
AcDbPolyline
 90
5
 70
0
 10
183.89763779527559
 20
11.259842519685039
 10
189.92125984251967
 20
11.259842519685039
 10
189.92125984251967
 20
0.0
 10
183.89763779527559
 20
0.0
 10
183.89763779527559
 20
11.259842519685039
  0
LINE
  5
1D9
330
17
100
AcDbEntity
  8
Corbel
100
AcDbLine
 10
183.89763779527559
 20
9.448818897637794
 30
0.0
 11
189.92125984251967
 21
9.448818897637794
 31
0.0
  0
LINE
  5
1DA
330
17
100
AcDbEntity
  8
Corbel
100
AcDbLine
 10
183.89763779527559
 20
3.0708661417322833
 30
0.0
 11
189.92125984251967
 21
3.0708661417322833
 31
0.0
  0
LINE
  5
1DB
330
17
100
AcDbEntity
  8
Corbel
100
AcDbLine
 10
183.89763779527559
 20
0.7086614173228346
 30
0.0
 11
189.92125984251967
 21
0.7086614173228346
 31
0.0
  0
LINE
  5
1DC
330
17
100
AcDbEntity
  8
Corbel
100
AcDbLine
 10
184.29133858267716
 20
9.448818897637794
 30
0.0
 11
184.29133858267716
 21
0.7086614173228346
 31
0.0
  0
LINE
  5
1DD
330
17
100
AcDbEntity
  8
Corbel
100
AcDbLine
 10
189.5275590551181
 20
9.448818897637794
 30
0.0
 11
189.5275590551181
 21
0.7086614173228346
 31
0.0
  0
SPLINE
  5
1DE
330
17
100
AcDbEntity
  8
Corbel
100
AcDbSpline
 70
0
 71
3
 72
8
 73
4
 74
0
 40
0.0
 40
0.0
 40
0.0
 40
0.0
 40
1.0
 40
1.0
 40
1.0
 40
1.0
 10
186.90944881889763
 20
9.724409448818896
 30
0.0
 10
186.54304461942257
 20
10.006299212598424
 30
0.0
 10
186.28188976377953
 20
10.182414698162729
 30
0.0
 10
186.1259842519685
 20
10.25275590551181
 30
0.0
  0
SPLINE
  5
1DF
330
17
100
AcDbEntity
  8
Corbel
100
AcDbSpline
 70
0
 71
3
 72
8
 73
4
 74
0
 40
0.0
 40
0.0
 40
0.0
 40
0.0
 40
1.0
 40
1.0
 40
1.0
 40
1.0
 10
186.1259842519685
 20
10.25275590551181
 30
0.0
 10
186.59711286089237
 20
10.14015748031496
 30
0.0
 10
186.8582677165354
 20
9.964041994750655
 30
0.0
 10
186.90944881889763
 20
9.724409448818896
 30
0.0
  0
SPLINE
  5
1E0
330
17
100
AcDbEntity
  8
Corbel
100
AcDbSpline
 70
0
 71
3
 72
8
 73
4
 74
0
 40
0.0
 40
0.0
 40
0.0
 40
0.0
 40
1.0
 40
1.0
 40
1.0
 40
1.0
 10
186.90944881889763
 20
9.724409448818896
 30
0.0
 10
186.6005249343832
 20
10.261942257217846
 30
0.0
 10
186.42191601049868
 20
10.59803149606299
 30
0.0
 10
186.37362204724408
 20
10.73267716535433
 30
0.0
  0
SPLINE
  5
1E1
330
17
100
AcDbEntity
  8
Corbel
100
AcDbSpline
 70
0
 71
3
 72
8
 73
4
 74
0
 40
0.0
 40
0.0
 40
0.0
 40
0.0
 40
1.0
 40
1.0
 40
1.0
 40
1.0
 10
186.37362204724408
 20
10.73267716535433
 30
0.0
 10
186.75367454068243
 20
10.51745406824147
 30
0.0
 10
186.93228346456692
 20
10.181364829396324
 30
0.0
 10
186.90944881889763
 20
9.724409448818896
 30
0.0
  0
SPLINE
  5
1E2
330
17
100
AcDbEntity
  8
Corbel
100
AcDbSpline
 70
0
 71
3
 72
8
 73
4
 74
0
 40
0.0
 40
0.0
 40
0.0
 40
0.0
 40
1.0
 40
1.0
 40
1.0
 40
1.0
 10
186.90944881889763
 20
9.724409448818896
 30
0.0
 10
186.7257217847769
 20
10.438320209973753
 30
0.0
 10
186.7257217847769
 20
10.884514435695538
 30
0.0
 10
186.90944881889763
 20
11.062992125984252
 30
0.0
  0
SPLINE
  5
1E3
330
17
100
AcDbEntity
  8
Corbel
100
AcDbSpline
 70
0
 71
3
 72
8
 73
4
 74
0
 40
0.0
 40
0.0
 40
0.0
 40
0.0
 40
1.0
 40
1.0
 40
1.0
 40
1.0
 10
186.90944881889763
 20
11.062992125984252
 30
0.0
 10
187.09317585301835
 20
10.77742782152231
 30
0.0
 10
187.09317585301835
 20
10.331233595800525
 30
0.0
 10
186.90944881889763
 20
9.724409448818896
 30
0.0
  0
SPLINE
  5
1E4
330
17
100
AcDbEntity
  8
Corbel
100
AcDbSpline
 70
0
 71
3
 72
8
 73
4
 74
0
 40
0.0
 40
0.0
 40
0.0
 40
0.0
 40
1.0
 40
1.0
 40
1.0
 40
1.0
 10
186.90944881889763
 20
9.724409448818896
 30
0.0
 10
186.85091863517061
 20
10.261942257217846
 30
0.0
 10
187.0295275590551
 20
10.59803149606299
 30
0.0
 10
187.44527559055118
 20
10.73267716535433
 30
0.0
  0
SPLINE
  5
1E5
330
17
100
AcDbEntity
  8
Corbel
100
AcDbSpline
 70
0
 71
3
 72
8
 73
4
 74
0
 40
0.0
 40
0.0
 40
0.0
 40
0.0
 40
1.0
 40
1.0
 40
1.0
 40
1.0
 10
187.44527559055118
 20
10.73267716535433
 30
0.0
 10
187.43267716535433
 20
10.51745406824147
 30
0.0
 10
187.2540682414698
 20
10.181364829396324
 30
0.0
 10
186.90944881889763
 20
9.724409448818896
 30
0.0
  0
SPLINE
  5
1E6
330
17
100
AcDbEntity
  8
Corbel
100
AcDbSpline
 70
0
 71
3
 72
8
 73
4
 74
0
 40
0.0
 40
0.0
 40
0.0
 40
0.0
 40
1.0
 40
1.0
 40
1.0
 40
1.0
 10
186.90944881889763
 20
9.724409448818896
 30
0.0
 10
186.90839895013124
 20
10.006299212598424
 30
0.0
 10
187.16955380577429
 20
10.182414698162729
 30
0.0
 10
187.69291338582676
 20
10.25275590551181
 30
0.0
  0
SPLINE
  5
1E7
330
17
100
AcDbEntity
  8
Corbel
100
AcDbSpline
 70
0
 71
3
 72
8
 73
4
 74
0
 40
0.0
 40
0.0
 40
0.0
 40
0.0
 40
1.0
 40
1.0
 40
1.0
 40
1.0
 10
187.69291338582676
 20
10.25275590551181
 30
0.0
 10
187.58923884514434
 20
10.14015748031496
 30
0.0
 10
187.3280839895013
 20
9.964041994750655
 30
0.0
 10
186.90944881889763
 20
9.724409448818896
 30
0.0
  0
LWPOLYLINE
  5
1E8
330
17
100
AcDbEntity
  8
Corbel
100
AcDbPolyline
 90
3
 70
0
 10
184.98976377952755
 20
8.070866141732283
 10
186.90944881889763
 20
8.89763779527559
 10
188.8291338582677
 20
8.070866141732283
  0
LWPOLYLINE
  5
1E9
330
17
100
AcDbEntity
  8
Corbel
100
AcDbPolyline
 90
3
 70
0
 10
185.02992125984252
 20
7.584251968503937
 10
186.90944881889763
 20
8.411023622047244
 10
188.78897637795276
 20
7.584251968503937
  0
LWPOLYLINE
  5
1EA
330
17
100
AcDbEntity
  8
Corbel
100
AcDbPolyline
 90
3
 70
0
 10
185.07047244094488
 20
7.097244094488189
 10
186.90944881889763
 20
7.924015748031495
 10
188.74842519685038
 20
7.097244094488189
  0
LWPOLYLINE
  5
1EB
330
17
100
AcDbEntity
  8
Corbel
100
AcDbPolyline
 90
3
 70
0
 10
185.11062992125983
 20
6.610629921259842
 10
186.90944881889763
 20
7.437401574803149
 10
188.70826771653543
 20
6.610629921259842
  0
LWPOLYLINE
  5
1EC
330
17
100
AcDbEntity
  8
Corbel
100
AcDbPolyline
 90
3
 70
0
 10
185.1507874015748
 20
6.124015748031496
 10
186.90944881889763
 20
6.950787401574803
 10
188.66811023622046
 20
6.124015748031496
  0
LWPOLYLINE
  5
1ED
330
17
100
AcDbEntity
  8
Corbel
100
AcDbPolyline
 90
3
 70
0
 10
185.19133858267716
 20
5.637007874015748
 10
186.90944881889763
 20
6.463779527559055
 10
188.6275590551181
 20
5.637007874015748
  0
LWPOLYLINE
  5
1EE
330
17
100
AcDbEntity
  8
Corbel
100
AcDbPolyline
 90
3
 70
0
 10
185.2314960629921
 20
5.150393700787401
 10
186.90944881889763
 20
5.977165354330708
 10
188.58740157480315
 20
5.150393700787401
  0
LWPOLYLINE
  5
1EF
330
17
100
AcDbEntity
  8
Corbel
100
AcDbPolyline
 90
3
 70
0
 10
185.2720472440945
 20
4.663385826771653
 10
186.90944881889763
 20
5.49015748031496
 10
188.5468503937008
 20
4.663385826771653
  0
LWPOLYLINE
  5
1F0
330
17
100
AcDbEntity
  8
Corbel
100
AcDbPolyline
 90
3
 70
0
 10
185.31220472440944
 20
4.176771653543307
 10
186.90944881889763
 20
5.0035433070866135
 10
188.50669291338582
 20
4.176771653543307
  0
LWPOLYLINE
  5
1F1
330
17
100
AcDbEntity
  8
Corbel
100
AcDbPolyline
 90
3
 70
0
 10
185.35236220472441
 20
3.6901574803149595
 10
186.90944881889763
 20
4.516929133858267
 10
188.46653543307087
 20
3.6901574803149595
  0
LWPOLYLINE
  5
1F2
330
17
100
AcDbEntity
  8
Corbel
100
AcDbPolyline
 90
3
 70
0
 10
185.39291338582677
 20
3.2031496062992133
 10
186.90944881889763
 20
4.02992125984252
 10
188.4259842519685
 20
3.2031496062992133
  0
LWPOLYLINE
  5
1F3
330
17
100
AcDbEntity
  8
Corbel
100
AcDbPolyline
 90
3
 70
0
 10
185.43307086614172
 20
2.7165354330708666
 10
186.90944881889763
 20
3.543307086614173
 10
188.38582677165354
 20
2.7165354330708666
  0
LINE
  5
1F4
330
17
100
AcDbEntity
  8
Corbel
100
AcDbLine
 10
184.92125984251967
 20
8.89763779527559
 30
0.0
 11
185.43307086614172
 21
2.716535433070866
 31
0.0
  0
LINE
  5
1F5
330
17
100
AcDbEntity
  8
Corbel
100
AcDbLine
 10
188.89763779527559
 20
8.89763779527559
 30
0.0
 11
188.38582677165354
 21
2.716535433070866
 31
0.0
  0
LWPOLYLINE
  5
1F6
330
17
100
AcDbEntity
  8
Corbel
100
AcDbPolyline
 90
5
 70
0
 10
185.01968503937007
 20
2.63779527559055
 10
188.79921259842519
 20
2.63779527559055
 10
188.79921259842519
 20
1.1023622047244093
 10
185.01968503937007
 20
1.1023622047244093
 10
185.01968503937007
 20
2.63779527559055
  0
LWPOLYLINE
  5
1F7
330
17
100
AcDbEntity
  8
Corbel
100
AcDbPolyline
 90
5
 70
0
 10
186.90944881889763
 20
2.63779527559055
 10
188.48425196850394
 20
1.8700787401574797
 10
186.90944881889763
 20
1.1023622047244093
 10
185.33464566929132
 20
1.8700787401574797
 10
186.90944881889763
 20
2.63779527559055
  0
LWPOLYLINE
  5
1F8
330
17
100
AcDbEntity
  8
Corbel
100
AcDbPolyline
 90
5
 70
0
 10
186.90944881889763
 20
2.3153543307086615
 10
187.82283464566927
 20
1.8700787401574797
 10
186.90944881889763
 20
1.4248031496062996
 10
185.99606299212599
 20
1.8700787401574797
 10
186.90944881889763
 20
2.3153543307086615
  0
LWPOLYLINE
  5
1F9
330
17
100
AcDbEntity
  8
Corbel
100
AcDbPolyline
 90
5
 70
0
 10
186.3566929133858
 20
2.3452755905511804
 10
187.46220472440945
 20
2.3452755905511804
 10
187.46220472440945
 20
1.3944881889763767
 10
186.3566929133858
 20
1.3944881889763767
 10
186.3566929133858
 20
2.3452755905511804
  0
LINE
  5
1FA
330
17
100
AcDbEntity
  8
Corbel
100
AcDbLine
 10
186.1220472440945
 20
2.2539370078740157
 30
0.0
 11
187.69685039370077
 21
1.486220472440945
 31
0.0
  0
LINE
  5
1FB
330
17
100
AcDbEntity
  8
Corbel
100
AcDbLine
 10
186.1220472440945
 20
1.486220472440945
 30
0.0
 11
187.69685039370077
 21
2.2539370078740157
 31
0.0
  0
TEXT
  5
1FC
330
17
100
AcDbEntity
  8
LABELS
100
AcDbText
 10
183.89763779527559
 20
13.622047244094489
 30
0.0
 40
0.7086614173228346
  1
CORBEL  (1:1, inches)
 11
183.89763779527559
 21
13.622047244094489
 31
0.0
100
AcDbText
  0
HATCH
  5
1FF
330
17
100
AcDbEntity
  8
Jamb section hatch
 62
7
100
AcDbHatch
 10
0.0
 20
0.0
 30
0.0
210
0.0
220
0.0
230
1.0
  2
ANSI31
 70
0
 71
0
 91
1
 92
3
 72
0
 73
1
 93
82
 10
200.78740157480314
 20
0.0
 10
200.78740157480314
 20
1.1811023622047243
 10
201.33858267716536
 20
1.1811023622047243
 10
201.44931102362204
 20
1.1770423228346456
 10
201.54527559055117
 20
1.1648622047244093
 10
201.62647637795274
 20
1.1445620078740157
 10
201.69291338582676
 20
1.1161417322834646
 10
201.74458661417322
 20
1.0796013779527558
 10
201.78149606299212
 20
1.0349409448818896
 10
201.80364173228347
 20
0.9821604330708661
 10
201.81102362204723
 20
0.921259842519685
 10
201.81102362204723
 20
0.8740157480314961
 10
201.89714566929135
 20
0.936023622047244
 10
201.97834645669292
 20
0.9803149606299212
 10
202.05462598425197
 20
1.0068897637795275
 10
202.1259842519685
 20
1.015748031496063
 10
202.19242125984252
 20
1.0068897637795275
 10
202.25393700787401
 20
0.9803149606299212
 10
202.310531496063
 20
0.936023622047244
 10
202.36220472440945
 20
0.8740157480314961
 10
202.41141732283464
 20
0.936023622047244
 10
202.46062992125985
 20
0.9803149606299212
 10
202.50984251968504
 20
1.0068897637795275
 10
202.55905511811022
 20
1.015748031496063
 10
202.60826771653544
 20
1.0068897637795275
 10
202.65748031496062
 20
0.9803149606299212
 10
202.70669291338584
 20
0.936023622047244
 10
202.75590551181102
 20
0.8740157480314961
 10
202.8051181102362
 20
0.936023622047244
 10
202.85433070866142
 20
0.9803149606299212
 10
202.9035433070866
 20
1.0068897637795275
 10
202.95275590551182
 20
1.015748031496063
 10
203.001968503937
 20
1.0068897637795275
 10
203.0511811023622
 20
0.9803149606299212
 10
203.1003937007874
 20
0.936023622047244
 10
203.1496062992126
 20
0.8740157480314961
 10
203.19881889763778
 20
0.936023622047244
 10
203.248031496063
 20
0.9803149606299212
 10
203.29724409448818
 20
1.0068897637795275
 10
203.3464566929134
 20
1.015748031496063
 10
203.39566929133858
 20
1.0068897637795275
 10
203.44488188976376
 20
0.9803149606299212
 10
203.49409448818898
 20
0.936023622047244
 10
203.54330708661416
 20
0.8740157480314961
 10
203.59251968503938
 20
0.936023622047244
 10
203.64173228346456
 20
0.9803149606299212
 10
203.69094488188975
 20
1.0068897637795275
 10
203.74015748031496
 20
1.015748031496063
 10
203.78937007874015
 20
1.0068897637795275
 10
203.83858267716536
 20
0.9803149606299212
 10
203.88779527559055
 20
0.936023622047244
 10
203.93700787401573
 20
0.8740157480314961
 10
203.98622047244095
 20
0.936023622047244
 10
204.03543307086613
 20
0.9803149606299212
 10
204.08464566929135
 20
1.0068897637795275
 10
204.13385826771653
 20
1.015748031496063
 10
204.18307086614172
 20
1.0068897637795275
 10
204.23228346456693
 20
0.9803149606299212
 10
204.28149606299212
 20
0.936023622047244
 10
204.33070866141733
 20
0.8740157480314961
 10
204.37992125984252
 20
0.936023622047244
 10
204.4291338582677
 20
0.9803149606299212
 10
204.47834645669292
 20
1.0068897637795275
 10
204.5275590551181
 20
1.015748031496063
 10
204.57677165354332
 20
1.0068897637795275
 10
204.6259842519685
 20
0.9803149606299212
 10
204.6751968503937
 20
0.936023622047244
 10
204.7244094488189
 20
0.8740157480314961
 10
204.8031496062992
 20
0.8740157480314961
 10
204.8031496062992
 20
0.47244094488188976
 10
205.2755905511811
 20
0.47244094488188976
 10
205.40477362204723
 20
0.468380905511811
 10
205.51673228346456
 20
0.4562007874015748
 10
205.61146653543307
 20
0.43590059055118113
 10
205.68897637795274
 20
0.4074803149606299
 10
205.74926181102362
 20
0.37093996062992124
 10
205.79232283464566
 20
0.3262795275590551
 10
205.8181594488189
 20
0.2734990157480315
 10
205.82677165354332
 20
0.2125984251968504
 10
206.81102362204723
 20
0.2125984251968504
 10
206.81102362204723
 20
0.0
 10
200.78740157480314
 20
0.0
 97
0
 75
1
 76
1
 52
0.0
 41
0.15748031496062992
 77
0
 78
1
 53
45.0
 43
0.0
 44
0.0
 45
-0.0139194248
 46
0.0139194248
 79
0
 98
0
  0
POLYLINE
  5
200
330
17
100
AcDbEntity
  8
Jamb section
100
AcDb2dPolyline
 66
1
 10
0.0
 20
0.0
 30
0.0
 70
0
  0
VERTEX
  5
201
330
200
100
AcDbEntity
  8
Jamb section
100
AcDbVertex
100
AcDb2dVertex
 10
200.78740157480314
 20
0.0
 30
0.0
 70
0
  0
VERTEX
  5
202
330
200
100
AcDbEntity
  8
Jamb section
100
AcDbVertex
100
AcDb2dVertex
 10
200.78740157480314
 20
1.1811023622047243
 30
0.0
 70
0
  0
VERTEX
  5
203
330
200
100
AcDbEntity
  8
Jamb section
100
AcDbVertex
100
AcDb2dVertex
 10
201.33858267716533
 20
1.1811023622047243
 30
0.0
 70
0
  0
SEQEND
  5
204
330
200
100
AcDbEntity
  8
Jamb section
  0
SPLINE
  5
205
330
17
100
AcDbEntity
  8
Jamb section
100
AcDbSpline
 70
0
 71
3
 72
8
 73
4
 74
0
 40
0.0
 40
0.0
 40
0.0
 40
0.0
 40
1.0
 40
1.0
 40
1.0
 40
1.0
 10
201.33858267716533
 20
1.1811023622047243
 30
0.0
 10
201.6535433070866
 20
1.1811023622047243
 30
0.0
 10
201.81102362204723
 20
1.0944881889763778
 30
0.0
 10
201.81102362204723
 20
0.921259842519685
 30
0.0
  0
POLYLINE
  5
206
330
17
100
AcDbEntity
  8
Jamb section
100
AcDb2dPolyline
 66
1
 10
0.0
 20
0.0
 30
0.0
 70
0
  0
VERTEX
  5
207
330
206
100
AcDbEntity
  8
Jamb section
100
AcDbVertex
100
AcDb2dVertex
 10
201.81102362204723
 20
0.921259842519685
 30
0.0
 70
0
  0
VERTEX
  5
208
330
206
100
AcDbEntity
  8
Jamb section
100
AcDbVertex
100
AcDb2dVertex
 10
201.81102362204723
 20
0.8740157480314961
 30
0.0
 70
0
  0
SEQEND
  5
209
330
206
100
AcDbEntity
  8
Jamb section
  0
SPLINE
  5
20A
330
17
100
AcDbEntity
  8
Jamb section
100
AcDbSpline
 70
0
 71
3
 72
8
 73
4
 74
0
 40
0.0
 40
0.0
 40
0.0
 40
0.0
 40
1.0
 40
1.0
 40
1.0
 40
1.0
 10
201.81102362204723
 20
0.8740157480314961
 30
0.0
 10
202.04724409448818
 20
1.0629921259842519
 30
0.0
 10
202.23097112860893
 20
1.0629921259842519
 30
0.0
 10
202.36220472440945
 20
0.8740157480314961
 30
0.0
  0
SPLINE
  5
20B
330
17
100
AcDbEntity
  8
Jamb section
100
AcDbSpline
 70
0
 71
3
 72
8
 73
4
 74
0
 40
0.0
 40
0.0
 40
0.0
 40
0.0
 40
1.0
 40
1.0
 40
1.0
 40
1.0
 10
202.36220472440945
 20
0.8740157480314961
 30
0.0
 10
202.49343832020998
 20
1.0629921259842519
 30
0.0
 10
202.6246719160105
 20
1.0629921259842519
 30
0.0
 10
202.75590551181102
 20
0.8740157480314961
 30
0.0
  0
SPLINE
  5
20C
330
17
100
AcDbEntity
  8
Jamb section
100
AcDbSpline
 70
0
 71
3
 72
8
 73
4
 74
0
 40
0.0
 40
0.0
 40
0.0
 40
0.0
 40
1.0
 40
1.0
 40
1.0
 40
1.0
 10
202.75590551181102
 20
0.8740157480314961
 30
0.0
 10
202.88713910761155
 20
1.0629921259842519
 30
0.0
 10
203.01837270341207
 20
1.0629921259842519
 30
0.0
 10
203.1496062992126
 20
0.8740157480314961
 30
0.0
  0
SPLINE
  5
20D
330
17
100
AcDbEntity
  8
Jamb section
100
AcDbSpline
 70
0
 71
3
 72
8
 73
4
 74
0
 40
0.0
 40
0.0
 40
0.0
 40
0.0
 40
1.0
 40
1.0
 40
1.0
 40
1.0
 10
203.1496062992126
 20
0.8740157480314961
 30
0.0
 10
203.28083989501312
 20
1.0629921259842519
 30
0.0
 10
203.41207349081364
 20
1.0629921259842519
 30
0.0
 10
203.54330708661416
 20
0.8740157480314961
 30
0.0
  0
SPLINE
  5
20E
330
17
100
AcDbEntity
  8
Jamb section
100
AcDbSpline
 70
0
 71
3
 72
8
 73
4
 74
0
 40
0.0
 40
0.0
 40
0.0
 40
0.0
 40
1.0
 40
1.0
 40
1.0
 40
1.0
 10
203.54330708661416
 20
0.8740157480314961
 30
0.0
 10
203.6745406824147
 20
1.0629921259842519
 30
0.0
 10
203.8057742782152
 20
1.0629921259842519
 30
0.0
 10
203.93700787401573
 20
0.8740157480314961
 30
0.0
  0
SPLINE
  5
20F
330
17
100
AcDbEntity
  8
Jamb section
100
AcDbSpline
 70
0
 71
3
 72
8
 73
4
 74
0
 40
0.0
 40
0.0
 40
0.0
 40
0.0
 40
1.0
 40
1.0
 40
1.0
 40
1.0
 10
203.93700787401573
 20
0.8740157480314961
 30
0.0
 10
204.06824146981626
 20
1.0629921259842519
 30
0.0
 10
204.19947506561678
 20
1.0629921259842519
 30
0.0
 10
204.3307086614173
 20
0.8740157480314961
 30
0.0
  0
SPLINE
  5
210
330
17
100
AcDbEntity
  8
Jamb section
100
AcDbSpline
 70
0
 71
3
 72
8
 73
4
 74
0
 40
0.0
 40
0.0
 40
0.0
 40
0.0
 40
1.0
 40
1.0
 40
1.0
 40
1.0
 10
204.3307086614173
 20
0.8740157480314961
 30
0.0
 10
204.46194225721783
 20
1.0629921259842519
 30
0.0
 10
204.59317585301838
 20
1.0629921259842519
 30
0.0
 10
204.7244094488189
 20
0.8740157480314961
 30
0.0
  0
POLYLINE
  5
211
330
17
100
AcDbEntity
  8
Jamb section
100
AcDb2dPolyline
 66
1
 10
0.0
 20
0.0
 30
0.0
 70
0
  0
VERTEX
  5
212
330
211
100
AcDbEntity
  8
Jamb section
100
AcDbVertex
100
AcDb2dVertex
 10
204.7244094488189
 20
0.8740157480314961
 30
0.0
 70
0
  0
VERTEX
  5
213
330
211
100
AcDbEntity
  8
Jamb section
100
AcDbVertex
100
AcDb2dVertex
 10
204.8031496062992
 20
0.8740157480314961
 30
0.0
 70
0
  0
VERTEX
  5
214
330
211
100
AcDbEntity
  8
Jamb section
100
AcDbVertex
100
AcDb2dVertex
 10
204.8031496062992
 20
0.47244094488188976
 30
0.0
 70
0
  0
VERTEX
  5
215
330
211
100
AcDbEntity
  8
Jamb section
100
AcDbVertex
100
AcDb2dVertex
 10
205.2755905511811
 20
0.47244094488188976
 30
0.0
 70
0
  0
SEQEND
  5
216
330
211
100
AcDbEntity
  8
Jamb section
  0
SPLINE
  5
217
330
17
100
AcDbEntity
  8
Jamb section
100
AcDbSpline
 70
0
 71
3
 72
8
 73
4
 74
0
 40
0.0
 40
0.0
 40
0.0
 40
0.0
 40
1.0
 40
1.0
 40
1.0
 40
1.0
 10
205.2755905511811
 20
0.47244094488188976
 30
0.0
 10
205.64304461942257
 20
0.47244094488188976
 30
0.0
 10
205.8267716535433
 20
0.3858267716535433
 30
0.0
 10
205.8267716535433
 20
0.2125984251968504
 30
0.0
  0
POLYLINE
  5
218
330
17
100
AcDbEntity
  8
Jamb section
100
AcDb2dPolyline
 66
1
 10
0.0
 20
0.0
 30
0.0
 70
0
  0
VERTEX
  5
219
330
218
100
AcDbEntity
  8
Jamb section
100
AcDbVertex
100
AcDb2dVertex
 10
205.8267716535433
 20
0.2125984251968504
 30
0.0
 70
0
  0
VERTEX
  5
21A
330
218
100
AcDbEntity
  8
Jamb section
100
AcDbVertex
100
AcDb2dVertex
 10
206.81102362204723
 20
0.2125984251968504
 30
0.0
 70
0
  0
VERTEX
  5
21B
330
218
100
AcDbEntity
  8
Jamb section
100
AcDbVertex
100
AcDb2dVertex
 10
206.81102362204723
 20
0.0
 30
0.0
 70
0
  0
VERTEX
  5
21C
330
218
100
AcDbEntity
  8
Jamb section
100
AcDbVertex
100
AcDb2dVertex
 10
200.78740157480314
 20
0.0
 30
0.0
 70
0
  0
SEQEND
  5
21D
330
218
100
AcDbEntity
  8
Jamb section
  0
LINE
  5
21E
330
17
100
AcDbEntity
  8
Jamb section
100
AcDbLine
 10
199.76377952755905
 20
0.0
 30
0.0
 11
207.44094488188975
 21
0.0
 31
0.0
  0
TEXT
  5
21F
330
17
100
AcDbEntity
  8
LABELS
100
AcDbText
 10
199.76377952755905
 20
3.543307086614173
 30
0.0
 40
0.7086614173228346
  1
JAMB SECTION  (1:1, inches)
 11
199.76377952755905
 21
3.543307086614173
 31
0.0
100
AcDbText
  0
TEXT
  5
220
330
17
100
AcDbEntity
  8
LABELS
100
AcDbText
 10
0.0
 20
-8.661417322834646
 30
0.0
 40
1.574803149606299
  1
Door casings · AST-DR-011
 11
0.0
 21
-8.661417322834646
 31
0.0
100
AcDbText
  0
ENDSEC
  0
SECTION
  2
OBJECTS
  0
DICTIONARY
  5
A
330
0
100
AcDbDictionary
281
1
  3
ACAD_COLOR
350
B
  3
ACAD_GROUP
350
C
  3
ACAD_LAYOUT
350
D
  3
ACAD_MATERIAL
350
E
  3
ACAD_MLEADERSTYLE
350
F
  3
ACAD_MLINESTYLE
350
10
  3
ACAD_PLOTSETTINGS
350
11
  3
ACAD_PLOTSTYLENAME
350
12
  3
ACAD_SCALELIST
350
14
  3
ACAD_TABLESTYLE
350
15
  3
ACAD_VISUALSTYLE
350
16
  3
EZDXF_META
350
2D
  0
DICTIONARY
  5
B
330
A
100
AcDbDictionary
281
1
  0
DICTIONARY
  5
C
330
A
100
AcDbDictionary
281
1
  0
DICTIONARY
  5
D
330
A
100
AcDbDictionary
281
1
  3
Model
350
1A
  3
Layout1
350
1E
  0
DICTIONARY
  5
E
330
A
100
AcDbDictionary
281
1
  3
ByBlock
350
1F
  3
ByLayer
350
20
  3
Global
350
21
  0
DICTIONARY
  5
F
330
A
100
AcDbDictionary
281
1
  3
Standard
350
2C
  0
DICTIONARY
  5
10
330
A
100
AcDbDictionary
281
1
  3
Standard
350
22
  0
DICTIONARY
  5
11
330
A
100
AcDbDictionary
281
1
  0
ACDBDICTIONARYWDFLT
  5
12
330
A
100
AcDbDictionary
281
1
  3
Normal
350
13
100
AcDbDictionaryWithDefault
340
13
  0
ACDBPLACEHOLDER
  5
13
330
12
  0
DICTIONARY
  5
14
330
A
100
AcDbDictionary
281
1
  0
DICTIONARY
  5
15
330
A
100
AcDbDictionary
281
1
  0
DICTIONARY
  5
16
330
A
100
AcDbDictionary
281
1
  3
2dWireframe
350
5A
  3
Basic
350
5B
  3
Brighten
350
5C
  3
ColorChange
350
5D
  3
Conceptual
350
5E
  3
Dim
350
5F
  3
EdgeColorOff
350
60
  3
Facepattern
350
61
  3
Flat
350
62
  3
FlatWithEdges
350
63
  3
Gouraud
350
64
  3
GouraudWithEdges
350
65
  3
Hidden
350
66
  3
JitterOff
350
67
  3
Linepattern
350
68
  3
Modeling
350
69
  3
OverhangOff
350
6A
  3
Realistic
350
6B
  3
Shaded
350
6C
  3
Shaded with edges
350
6D
  3
Shades of Gray
350
6E
  3
Sketchy
350
6F
  3
Thicken
350
70
  3
Wireframe
350
71
  3
X-Ray
350
72
  0
LAYOUT
  5
1A
330
D
100
AcDbPlotSettings
  1

  4
A3
  6

 40
7.5
 41
20.0
 42
7.5
 43
20.0
 44
420.0
 45
297.0
 46
0.0
 47
0.0
 48
0.0
 49
0.0
140
0.0
141
0.0
142
1.0
143
1.0
 70
1024
 72
1
 73
0
 74
5
  7

 75
16
 76
0
 77
2
 78
300
147
1.0
148
0.0
149
0.0
100
AcDbLayout
  1
Model
 70
1
 71
0
 10
0.0
 20
0.0
 11
420.0
 21
297.0
 12
0.0
 22
0.0
 32
0.0
 14
1e+20
 24
1e+20
 34
1e+20
 15
-1e+20
 25
-1e+20
 35
-1e+20
146
0.0
 13
0.0
 23
0.0
 33
0.0
 16
1.0
 26
0.0
 36
0.0
 17
0.0
 27
1.0
 37
0.0
 76
1
330
17
  0
LAYOUT
  5
1E
330
D
100
AcDbPlotSettings
  1

  4
A3
  6

 40
7.5
 41
20.0
 42
7.5
 43
20.0
 44
420.0
 45
297.0
 46
0.0
 47
0.0
 48
0.0
 49
0.0
140
0.0
141
0.0
142
1.0
143
1.0
 70
0
 72
1
 73
0
 74
5
  7

 75
16
 76
0
 77
2
 78
300
147
1.0
148
0.0
149
0.0
100
AcDbLayout
  1
Layout1
 70
1
 71
1
 10
0.0
 20
0.0
 11
420.0
 21
297.0
 12
0.0
 22
0.0
 32
0.0
 14
1e+20
 24
1e+20
 34
1e+20
 15
-1e+20
 25
-1e+20
 35
-1e+20
146
0.0
 13
0.0
 23
0.0
 33
0.0
 16
1.0
 26
0.0
 36
0.0
 17
0.0
 27
1.0
 37
0.0
 76
1
330
1B
  0
MATERIAL
  5
1F
102
{ACAD_REACTORS
330
E
102
}
330
E
100
AcDbMaterial
  1
ByBlock
  2

 70
0
 40
1.0
 71
1
 41
1.0
 91
-1023410177
 42
1.0
 72
1
  3

 73
1
 74
1
 75
1
 44
0.5
 73
0
 45
1.0
 46
1.0
 77
1
  4

 78
1
 79
1
170
1
 48
1.0
171
1
  6

172
1
173
1
174
1
140
1.0
141
1.0
175
1
  7

176
1
177
1
178
1
143
1.0
179
1
  8

270
1
271
1
272
1
145
1.0
146
1.0
273
1
  9

274
1
275
1
276
1
 42
1.0
 72
1
  3

 73
1
 74
1
 75
1
 94
63
  0
MATERIAL
  5
20
102
{ACAD_REACTORS
330
E
102
}
330
E
100
AcDbMaterial
  1
ByLayer
  2

 70
0
 40
1.0
 71
1
 41
1.0
 91
-1023410177
 42
1.0
 72
1
  3

 73
1
 74
1
 75
1
 44
0.5
 73
0
 45
1.0
 46
1.0
 77
1
  4

 78
1
 79
1
170
1
 48
1.0
171
1
  6

172
1
173
1
174
1
140
1.0
141
1.0
175
1
  7

176
1
177
1
178
1
143
1.0
179
1
  8

270
1
271
1
272
1
145
1.0
146
1.0
273
1
  9

274
1
275
1
276
1
 42
1.0
 72
1
  3

 73
1
 74
1
 75
1
 94
63
  0
MATERIAL
  5
21
102
{ACAD_REACTORS
330
E
102
}
330
E
100
AcDbMaterial
  1
Global
  2

 70
0
 40
1.0
 71
1
 41
1.0
 91
-1023410177
 42
1.0
 72
1
  3

 73
1
 74
1
 75
1
 44
0.5
 73
0
 45
1.0
 46
1.0
 77
1
  4

 78
1
 79
1
170
1
 48
1.0
171
1
  6

172
1
173
1
174
1
140
1.0
141
1.0
175
1
  7

176
1
177
1
178
1
143
1.0
179
1
  8

270
1
271
1
272
1
145
1.0
146
1.0
273
1
  9

274
1
275
1
276
1
 42
1.0
 72
1
  3

 73
1
 74
1
 75
1
 94
63
  0
MLINESTYLE
  5
22
102
{ACAD_REACTORS
330
10
102
}
330
10
100
AcDbMlineStyle
  2
Standard
 70
0
  3

 62
256
 51
90.0
 52
90.0
 71
2
 49
0.5
 62
256
  6
BYLAYER
 49
-0.5
 62
256
  6
BYLAYER
  0
MLEADERSTYLE
  5
2C
102
{ACAD_REACTORS
330
F
102
}
330
F
100
AcDbMLeaderStyle
179
2
170
2
171
1
172
0
 90
2
 40
0.0
 41
0.0
173
1
 91
-1056964608
 92
-2
290
1
 42
2.0
291
1
 43
8.0
  3
Standard
 44
4.0
300

342
29
174
1
175
1
176
0
178
1
 93
-1056964608
 45
4.0
292
0
297
0
 46
4.0
 94
-1056964608
 47
1.0
 49
1.0
140
1.0
294
1
141
0.0
177
0
142
1.0
295
0
296
0
143
3.75
271
0
272
9
273
9
  0
DICTIONARY
  5
2D
330
A
100
AcDbDictionary
280
1
281
1
  3
CREATED_BY_EZDXF
350
2E
  3
WRITTEN_BY_EZDXF
350
223
  0
DICTIONARYVAR
  5
2E
330
2D
100
DictionaryVariables
280
0
  1
1.4.2 @ 2026-09-18T18:26:28.345697+00:00
  0
VISUALSTYLE
  5
5A
102
{ACAD_REACTORS
330
16
102
}
330
16
100
AcDbVisualStyle
  2
2dWireframe
 70
4
 90
0
 40
0.6
 62
7
290
0
291
0
  0
VISUALSTYLE
  5
5B
102
{ACAD_REACTORS
330
16
102
}
330
16
100
AcDbVisualStyle
  2
Basic
 70
7
 90
1
 40
0.6
 62
7
290
0
291
1
  0
VISUALSTYLE
  5
5C
102
{ACAD_REACTORS
330
16
102
}
330
16
100
AcDbVisualStyle
  2
Brighten
 70
12
 90
2
 40
0.6
 62
7
290
0
291
1
  0
VISUALSTYLE
  5
5D
102
{ACAD_REACTORS
330
16
102
}
330
16
100
AcDbVisualStyle
  2
ColorChange
 70
16
 90
2
 40
0.6
 62
8
290
0
291
1
  0
VISUALSTYLE
  5
5E
102
{ACAD_REACTORS
330
16
102
}
330
16
100
AcDbVisualStyle
  2
Conceptual
 70
9
 90
3
 40
0.6
 62
7
290
0
291
0
  0
VISUALSTYLE
  5
5F
102
{ACAD_REACTORS
330
16
102
}
330
16
100
AcDbVisualStyle
  2
Dim
 70
11
 90
2
 40
0.6
 62
7
290
0
291
1
  0
VISUALSTYLE
  5
60
102
{ACAD_REACTORS
330
16
102
}
330
16
100
AcDbVisualStyle
  2
EdgeColorOff
 70
22
 90
2
 40
0.6
 62
7
290
0
291
1
  0
VISUALSTYLE
  5
61
102
{ACAD_REACTORS
330
16
102
}
330
16
100
AcDbVisualStyle
  2
Facepattern
 70
15
 90
2
 40
0.6
 62
7
290
0
291
1
  0
VISUALSTYLE
  5
62
102
{ACAD_REACTORS
330
16
102
}
330
16
100
AcDbVisualStyle
  2
Flat
 70
0
 90
2
 40
0.6
 62
7
290
0
291
1
  0
VISUALSTYLE
  5
63
102
{ACAD_REACTORS
330
16
102
}
330
16
100
AcDbVisualStyle
  2
FlatWithEdges
 70
1
 90
2
 40
0.6
 62
7
290
0
291
1
  0
VISUALSTYLE
  5
64
102
{ACAD_REACTORS
330
16
102
}
330
16
100
AcDbVisualStyle
  2
Gouraud
 70
2
 90
2
 40
0.6
 62
7
290
0
291
1
  0
VISUALSTYLE
  5
65
102
{ACAD_REACTORS
330
16
102
}
330
16
100
AcDbVisualStyle
  2
GouraudWithEdges
 70
3
 90
2
 40
0.6
 62
7
290
0
291
1
  0
VISUALSTYLE
  5
66
102
{ACAD_REACTORS
330
16
102
}
330
16
100
AcDbVisualStyle
  2
Hidden
 70
6
 90
1
 40
0.6
 62
7
290
0
291
0
  0
VISUALSTYLE
  5
67
102
{ACAD_REACTORS
330
16
102
}
330
16
100
AcDbVisualStyle
  2
JitterOff
 70
20
 90
2
 40
0.6
 62
7
290
0
291
1
  0
VISUALSTYLE
  5
68
102
{ACAD_REACTORS
330
16
102
}
330
16
100
AcDbVisualStyle
  2
Linepattern
 70
14
 90
2
 40
0.6
 62
7
290
0
291
1
  0
VISUALSTYLE
  5
69
102
{ACAD_REACTORS
330
16
102
}
330
16
100
AcDbVisualStyle
  2
Modeling
 70
10
 90
2
 40
0.6
 62
7
290
0
291
0
  0
VISUALSTYLE
  5
6A
102
{ACAD_REACTORS
330
16
102
}
330
16
100
AcDbVisualStyle
  2
OverhangOff
 70
21
 90
2
 40
0.6
 62
7
290
0
291
1
  0
VISUALSTYLE
  5
6B
102
{ACAD_REACTORS
330
16
102
}
330
16
100
AcDbVisualStyle
  2
Realistic
 70
8
 90
2
 40
0.6
 62
7
290
0
291
0
  0
VISUALSTYLE
  5
6C
102
{ACAD_REACTORS
330
16
102
}
330
16
100
AcDbVisualStyle
  2
Shaded
 70
27
 90
2
 40
0.6
 62
7
290
0
291
0
  0
VISUALSTYLE
  5
6D
102
{ACAD_REACTORS
330
16
102
}
330
16
100
AcDbVisualStyle
  2
Shaded with edges
 70
26
 90
2
 40
0.6
 62
7
290
0
291
0
  0
VISUALSTYLE
  5
6E
102
{ACAD_REACTORS
330
16
102
}
330
16
100
AcDbVisualStyle
  2
Shades of Gray
 70
23
 90
2
 40
0.6
 62
7
290
0
291
0
  0
VISUALSTYLE
  5
6F
102
{ACAD_REACTORS
330
16
102
}
330
16
100
AcDbVisualStyle
  2
Sketchy
 70
24
 90
1
 40
0.6
 62
7
290
0
291
0
  0
VISUALSTYLE
  5
70
102
{ACAD_REACTORS
330
16
102
}
330
16
100
AcDbVisualStyle
  2
Thicken
 70
13
 90
2
 40
0.6
 62
7
290
0
291
1
  0
VISUALSTYLE
  5
71
102
{ACAD_REACTORS
330
16
102
}
330
16
100
AcDbVisualStyle
  2
Wireframe
 70
5
 90
0
 40
0.6
 62
7
290
0
291
0
  0
VISUALSTYLE
  5
72
102
{ACAD_REACTORS
330
16
102
}
330
16
100
AcDbVisualStyle
  2
X-Ray
 70
25
 90
2
 40
0.5
 62
7
290
0
291
0
  0
DICTIONARYVAR
  5
223
330
2D
100
DictionaryVariables
280
0
  1
1.4.2 @ 2026-09-18T18:26:28.472189+00:00
  0
ENDSEC
  0
EOF
