  0
SECTION
  2
HEADER
  9
$ACADVER
  1
AC1024
  9
$ACADMAINTVER
 70
6
  9
$DWGCODEPAGE
  3
ANSI_1252
  9
$LASTSAVEDBY
  1
ezdxf
  9
$INSBASE
 10
0.0
 20
0.0
 30
0.0
  9
$EXTMIN
 10
1e+20
 20
1e+20
 30
1e+20
  9
$EXTMAX
 10
-1e+20
 20
-1e+20
 30
-1e+20
  9
$LIMMIN
 10
0.0
 20
0.0
  9
$LIMMAX
 10
420.0
 20
297.0
  9
$ORTHOMODE
 70
0
  9
$REGENMODE
 70
1
  9
$FILLMODE
 70
1
  9
$QTEXTMODE
 70
0
  9
$MIRRTEXT
 70
1
  9
$LTSCALE
 40
0.00984251968503937
  9
$ATTMODE
 70
1
  9
$TEXTSIZE
 40
2.5
  9
$TRACEWID
 40
1.0
  9
$TEXTSTYLE
  7
OpenSans
  9
$CLAYER
  8
0
  9
$CELTYPE
  6
ByLayer
  9
$CECOLOR
 62
256
  9
$CELTSCALE
 40
1.0
  9
$DISPSILH
 70
0
  9
$DIMSCALE
 40
1.0
  9
$DIMASZ
 40
0.175
  9
$DIMEXO
 40
0.125
  9
$DIMDLI
 40
3.75
  9
$DIMRND
 40
0.0
  9
$DIMDLE
 40
0.0
  9
$DIMEXE
 40
0.375
  9
$DIMTP
 40
0.0
  9
$DIMTM
 40
0.0
  9
$DIMTXT
 40
0.25
  9
$DIMCEN
 40
2.5
  9
$DIMTSZ
 40
0.0
  9
$DIMTOL
 70
0
  9
$DIMLIM
 70
0
  9
$DIMTIH
 70
0
  9
$DIMTOH
 70
0
  9
$DIMSE1
 70
0
  9
$DIMSE2
 70
0
  9
$DIMTAD
 70
1
  9
$DIMZIN
 70
12
  9
$DIMBLK
  1
ARCHTICK
  9
$DIMASO
 70
1
  9
$DIMSHO
 70
1
  9
$DIMPOST
  1

  9
$DIMAPOST
  1

  9
$DIMALT
 70
0
  9
$DIMALTD
 70
3
  9
$DIMALTF
 40
0.03937007874
  9
$DIMLFAC
 40
100.0
  9
$DIMTOFL
 70
1
  9
$DIMTVP
 40
0.0
  9
$DIMTIX
 70
0
  9
$DIMSOXD
 70
0
  9
$DIMSAH
 70
0
  9
$DIMBLK1
  1

  9
$DIMBLK2
  1

  9
$DIMSTYLE
  2
EZDXF
  9
$DIMCLRD
 70
0
  9
$DIMCLRE
 70
0
  9
$DIMCLRT
 70
0
  9
$DIMTFAC
 40
0.5
  9
$DIMGAP
 40
0.1
  9
$DIMJUST
 70
0
  9
$DIMSD1
 70
0
  9
$DIMSD2
 70
0
  9
$DIMTOLJ
 70
0
  9
$DIMTZIN
 70
8
  9
$DIMALTZ
 70
0
  9
$DIMALTTZ
 70
0
  9
$DIMUPT
 70
1
  9
$DIMDEC
 70
2
  9
$DIMTDEC
 70
2
  9
$DIMALTU
 70
2
  9
$DIMALTTD
 70
3
  9
$DIMTXSTY
  7
OpenSansCondensed-Light
  9
$DIMAUNIT
 70
0
  9
$DIMADEC
 70
2
  9
$DIMALTRND
 40
0.0
  9
$DIMAZIN
 70
3
  9
$DIMDSEP
 70
46
  9
$DIMATFIT
 70
3
  9
$DIMFRAC
 70
0
  9
$DIMLDRBLK
  1

  9
$DIMLUNIT
 70
2
  9
$DIMLWD
 70
-2
  9
$DIMLWE
 70
-2
  9
$DIMTMOVE
 70
2
  9
$DIMFXL
 40
1.0
  9
$DIMFXLON
 70
0
  9
$DIMJOGANG
 40
0.785398163397
  9
$DIMTFILL
 70
0
  9
$DIMTFILLCLR
 70
0
  9
$DIMARCSYM
 70
0
  9
$DIMLTYPE
  6

  9
$DIMLTEX1
  6

  9
$DIMLTEX2
  6

  9
$DIMTXTDIRECTION
 70
0
  9
$LUNITS
 70
4
  9
$LUPREC
 70
4
  9
$SKETCHINC
 40
1.0
  9
$FILLETRAD
 40
10.0
  9
$AUNITS
 70
0
  9
$AUPREC
 70
3
  9
$MENU
  1
.
  9
$ELEVATION
 40
0.0
  9
$PELEVATION
 40
0.0
  9
$THICKNESS
 40
0.0
  9
$LIMCHECK
 70
0
  9
$CHAMFERA
 40
0.0
  9
$CHAMFERB
 40
0.0
  9
$CHAMFERC
 40
0.0
  9
$CHAMFERD
 40
0.0
  9
$SKPOLY
 70
0
  9
$TDCREATE
 40
2461317.8361689816
  9
$TDUCREATE
 40
2458532.153996898
  9
$TDUPDATE
 40
2461317.8361689816
  9
$TDUUPDATE
 40
2458532.1544311
  9
$TDINDWG
 40
0.0
  9
$TDUSRTIMER
 40
0.0
  9
$USRTIMER
 70
1
  9
$ANGBASE
 50
0.0
  9
$ANGDIR
 70
0
  9
$PDMODE
 70
0
  9
$PDSIZE
 40
0.0
  9
$PLINEWID
 40
0.0
  9
$SPLFRAME
 70
0
  9
$SPLINETYPE
 70
6
  9
$SPLINESEGS
 70
8
  9
$HANDSEED
  5
1EB
  9
$SURFTAB1
 70
6
  9
$SURFTAB2
 70
6
  9
$SURFTYPE
 70
6
  9
$SURFU
 70
6
  9
$SURFV
 70
6
  9
$UCSBASE
  2

  9
$UCSNAME
  2

  9
$UCSORG
 10
0.0
 20
0.0
 30
0.0
  9
$UCSXDIR
 10
1.0
 20
0.0
 30
0.0
  9
$UCSYDIR
 10
0.0
 20
1.0
 30
0.0
  9
$UCSORTHOREF
  2

  9
$UCSORTHOVIEW
 70
0
  9
$UCSORGTOP
 10
0.0
 20
0.0
 30
0.0
  9
$UCSORGBOTTOM
 10
0.0
 20
0.0
 30
0.0
  9
$UCSORGLEFT
 10
0.0
 20
0.0
 30
0.0
  9
$UCSORGRIGHT
 10
0.0
 20
0.0
 30
0.0
  9
$UCSORGFRONT
 10
0.0
 20
0.0
 30
0.0
  9
$UCSORGBACK
 10
0.0
 20
0.0
 30
0.0
  9
$PUCSBASE
  2

  9
$PUCSNAME
  2

  9
$PUCSORG
 10
0.0
 20
0.0
 30
0.0
  9
$PUCSXDIR
 10
1.0
 20
0.0
 30
0.0
  9
$PUCSYDIR
 10
0.0
 20
1.0
 30
0.0
  9
$PUCSORTHOREF
  2

  9
$PUCSORTHOVIEW
 70
0
  9
$PUCSORGTOP
 10
0.0
 20
0.0
 30
0.0
  9
$PUCSORGBOTTOM
 10
0.0
 20
0.0
 30
0.0
  9
$PUCSORGLEFT
 10
0.0
 20
0.0
 30
0.0
  9
$PUCSORGRIGHT
 10
0.0
 20
0.0
 30
0.0
  9
$PUCSORGFRONT
 10
0.0
 20
0.0
 30
0.0
  9
$PUCSORGBACK
 10
0.0
 20
0.0
 30
0.0
  9
$USERI1
 70
0
  9
$USERI2
 70
0
  9
$USERI3
 70
0
  9
$USERI4
 70
0
  9
$USERI5
 70
0
  9
$USERR1
 40
0.0
  9
$USERR2
 40
0.0
  9
$USERR3
 40
0.0
  9
$USERR4
 40
0.0
  9
$USERR5
 40
0.0
  9
$WORLDVIEW
 70
1
  9
$SHADEDGE
 70
3
  9
$SHADEDIF
 70
70
  9
$TILEMODE
 70
1
  9
$MAXACTVP
 70
64
  9
$PINSBASE
 10
0.0
 20
0.0
 30
0.0
  9
$PLIMCHECK
 70
0
  9
$PEXTMIN
 10
1e+20
 20
1e+20
 30
1e+20
  9
$PEXTMAX
 10
-1e+20
 20
-1e+20
 30
-1e+20
  9
$PLIMMIN
 10
0.0
 20
0.0
  9
$PLIMMAX
 10
420.0
 20
297.0
  9
$UNITMODE
 70
0
  9
$VISRETAIN
 70
1
  9
$PLINEGEN
 70
0
  9
$PSLTSCALE
 70
1
  9
$TREEDEPTH
 70
3020
  9
$CMLSTYLE
  2
Standard
  9
$CMLJUST
 70
0
  9
$CMLSCALE
 40
20.0
  9
$PROXYGRAPHICS
 70
1
  9
$MEASUREMENT
 70
0
  9
$CELWEIGHT
370
-1
  9
$ENDCAPS
280
0
  9
$JOINSTYLE
280
0
  9
$LWDISPLAY
290
0
  9
$INSUNITS
 70
1
  9
$HYPERLINKBASE
  1

  9
$STYLESHEET
  1

  9
$XEDIT
290
1
  9
$CEPSNTYPE
380
0
  9
$PSTYLEMODE
290
1
  9
$FINGERPRINTGUID
  2
{6A6930F4-14FF-4193-BFA5-6F60DB882E6F}
  9
$VERSIONGUID
  2
{0E3D2704-65CB-4150-A554-B0D9F328330F}
  9
$EXTNAMES
290
1
  9
$PSVPSCALE
 40
0.0
  9
$OLESTARTUP
290
0
  9
$SORTENTS
280
127
  9
$INDEXCTL
280
0
  9
$HIDETEXT
280
1
  9
$XCLIPFRAME
280
1
  9
$HALOGAP
280
0
  9
$OBSCOLOR
 70
257
  9
$OBSLTYPE
280
0
  9
$INTERSECTIONDISPLAY
280
0
  9
$INTERSECTIONCOLOR
 70
257
  9
$DIMASSOC
280
2
  9
$PROJECTNAME
  1

  9
$CAMERADISPLAY
290
0
  9
$LENSLENGTH
 40
50.0
  9
$CAMERAHEIGHT
 40
0.0
  9
$STEPSPERSEC
 40
24.0
  9
$STEPSIZE
 40
100.0
  9
$3DDWFPREC
 40
2.0
  9
$PSOLWIDTH
 40
0.005
  9
$PSOLHEIGHT
 40
0.08
  9
$LOFTANG1
 40
1.570796326795
  9
$LOFTANG2
 40
1.570796326795
  9
$LOFTMAG1
 40
0.0
  9
$LOFTMAG2
 40
0.0
  9
$LOFTPARAM
 70
7
  9
$LOFTNORMALS
280
1
  9
$LATITUDE
 40
37.795
  9
$LONGITUDE
 40
-122.394
  9
$NORTHDIRECTION
 40
0.0
  9
$TIMEZONE
 70
-8000
  9
$LIGHTGLYPHDISPLAY
280
1
  9
$TILEMODELIGHTSYNCH
280
1
  9
$CMATERIAL
347
20
  9
$SOLIDHIST
280
0
  9
$SHOWHIST
280
1
  9
$DWFFRAME
280
2
  9
$DGNFRAME
280
2
  9
$REALWORLDSCALE
290
1
  9
$INTERFERECOLOR
 62
256
  9
$CSHADOW
280
0
  9
$SHADOWPLANELOCATION
 40
0.0
  0
ENDSEC
  0
SECTION
  2
CLASSES
  0
CLASS
  1
ACDBDICTIONARYWDFLT
  2
AcDbDictionaryWithDefault
  3
ObjectDBX Classes
 90
0
 91
0
280
0
281
0
  0
CLASS
  1
SUN
  2
AcDbSun
  3
SCENEOE
 90
1153
 91
0
280
0
281
0
  0
CLASS
  1
VISUALSTYLE
  2
AcDbVisualStyle
  3
ObjectDBX Classes
 90
4095
 91
0
280
0
281
0
  0
CLASS
  1
MATERIAL
  2
AcDbMaterial
  3
ObjectDBX Classes
 90
1153
 91
0
280
0
281
0
  0
CLASS
  1
SCALE
  2
AcDbScale
  3
ObjectDBX Classes
 90
1153
 91
0
280
0
281
0
  0
CLASS
  1
TABLESTYLE
  2
AcDbTableStyle
  3
ObjectDBX Classes
 90
4095
 91
0
280
0
281
0
  0
CLASS
  1
MLEADERSTYLE
  2
AcDbMLeaderStyle
  3
ACDB_MLEADERSTYLE_CLASS
 90
4095
 91
0
280
0
281
0
  0
CLASS
  1
DICTIONARYVAR
  2
AcDbDictionaryVar
  3
ObjectDBX Classes
 90
0
 91
0
280
0
281
0
  0
CLASS
  1
CELLSTYLEMAP
  2
AcDbCellStyleMap
  3
ObjectDBX Classes
 90
1152
 91
0
280
0
281
0
  0
CLASS
  1
MENTALRAYRENDERSETTINGS
  2
AcDbMentalRayRenderSettings
  3
SCENEOE
 90
1024
 91
0
280
0
281
0
  0
CLASS
  1
ACDBDETAILVIEWSTYLE
  2
AcDbDetailViewStyle
  3
ObjectDBX Classes
 90
1025
 91
0
280
0
281
0
  0
CLASS
  1
ACDBSECTIONVIEWSTYLE
  2
AcDbSectionViewStyle
  3
ObjectDBX Classes
 90
1025
 91
0
280
0
281
0
  0
CLASS
  1
RASTERVARIABLES
  2
AcDbRasterVariables
  3
ISM
 90
0
 91
0
280
0
281
0
  0
CLASS
  1
ACDBPLACEHOLDER
  2
AcDbPlaceHolder
  3
ObjectDBX Classes
 90
0
 91
0
280
0
281
0
  0
CLASS
  1
LAYOUT
  2
AcDbLayout
  3
ObjectDBX Classes
 90
0
 91
0
280
0
281
0
  0
ENDSEC
  0
SECTION
  2
TABLES
  0
TABLE
  2
VPORT
  5
8
330
0
100
AcDbSymbolTable
 70
1
  0
VPORT
  5
23
330
8
100
AcDbSymbolTableRecord
100
AcDbViewportTableRecord
  2
*Active
 70
0
 10
0.0
 20
0.0
 11
1.0
 21
1.0
 12
0.0
 22
0.0
 13
0.0
 23
0.0
 14
0.5
 24
0.5
 15
0.5
 25
0.5
 16
0.0
 26
0.0
 36
1.0
 17
0.0
 27
0.0
 37
0.0
 40
1000.0
 41
1.34
 42
50.0
 43
0.0
 44
0.0
 50
0.0
 51
0.0
 71
0
 72
1000
 73
1
 74
3
 75
0
 76
0
 77
0
 78
0
281
0
 65
0
146
0.0
  0
ENDTAB
  0
TABLE
  2
LTYPE
  5
2
330
0
100
AcDbSymbolTable
 70
21
  0
LTYPE
  5
24
330
2
100
AcDbSymbolTableRecord
100
AcDbLinetypeTableRecord
  2
ByBlock
 70
0
  3

 72
65
 73
0
 40
0.0
  0
LTYPE
  5
25
330
2
100
AcDbSymbolTableRecord
100
AcDbLinetypeTableRecord
  2
ByLayer
 70
0
  3

 72
65
 73
0
 40
0.0
  0
LTYPE
  5
26
330
2
100
AcDbSymbolTableRecord
100
AcDbLinetypeTableRecord
  2
Continuous
 70
0
  3

 72
65
 73
0
 40
0.0
  0
LTYPE
  5
2F
330
2
100
AcDbSymbolTableRecord
100
AcDbLinetypeTableRecord
  2
CENTER
 70
0
  3
Center ____ _ ____ _ ____ _ ____ _ ____ _ ____
 72
65
 73
4
 40
2.0
 49
1.25
 74
0
 49
-0.25
 74
0
 49
0.25
 74
0
 49
-0.25
 74
0
  0
LTYPE
  5
30
330
2
100
AcDbSymbolTableRecord
100
AcDbLinetypeTableRecord
  2
CENTERX2
 70
0
  3
Center (2x) ________  __  ________  __  ________
 72
65
 73
4
 40
3.5
 49
2.5
 74
0
 49
-0.25
 74
0
 49
0.5
 74
0
 49
-0.25
 74
0
  0
LTYPE
  5
31
330
2
100
AcDbSymbolTableRecord
100
AcDbLinetypeTableRecord
  2
CENTER2
 70
0
  3
Center (.5x) ____ _ ____ _ ____ _ ____ _ ____
 72
65
 73
4
 40
1.0
 49
0.625
 74
0
 49
-0.125
 74
0
 49
0.125
 74
0
 49
-0.125
 74
0
  0
LTYPE
  5
32
330
2
100
AcDbSymbolTableRecord
100
AcDbLinetypeTableRecord
  2
DASHED
 70
0
  3
Dashed __ __ __ __ __ __ __ __ __ __ __ __ __ _
 72
65
 73
2
 40
0.6
 49
0.5
 74
0
 49
-0.1
 74
0
  0
LTYPE
  5
33
330
2
100
AcDbSymbolTableRecord
100
AcDbLinetypeTableRecord
  2
DASHEDX2
 70
0
  3
Dashed (2x) ____  ____  ____  ____  ____  ____
 72
65
 73
2
 40
1.2
 49
1.0
 74
0
 49
-0.2
 74
0
  0
LTYPE
  5
34
330
2
100
AcDbSymbolTableRecord
100
AcDbLinetypeTableRecord
  2
DASHED2
 70
0
  3
Dashed (.5x) _ _ _ _ _ _ _ _ _ _ _ _ _ _
 72
65
 73
2
 40
0.3
 49
0.25
 74
0
 49
-0.05
 74
0
  0
LTYPE
  5
35
330
2
100
AcDbSymbolTableRecord
100
AcDbLinetypeTableRecord
  2
PHANTOM
 70
0
  3
Phantom ______  __  __  ______  __  __  ______
 72
65
 73
6
 40
2.5
 49
1.25
 74
0
 49
-0.25
 74
0
 49
0.25
 74
0
 49
-0.25
 74
0
 49
0.25
 74
0
 49
-0.25
 74
0
  0
LTYPE
  5
36
330
2
100
AcDbSymbolTableRecord
100
AcDbLinetypeTableRecord
  2
PHANTOMX2
 70
0
  3
Phantom (2x)____________    ____    ____    ____________
 72
65
 73
6
 40
4.25
 49
2.5
 74
0
 49
-0.25
 74
0
 49
0.5
 74
0
 49
-0.25
 74
0
 49
0.5
 74
0
 49
-0.25
 74
0
  0
LTYPE
  5
37
330
2
100
AcDbSymbolTableRecord
100
AcDbLinetypeTableRecord
  2
PHANTOM2
 70
0
  3
Phantom (.5x) ___ _ _ ___ _ _ ___ _ _ ___ _ _ ___
 72
65
 73
6
 40
1.25
 49
0.625
 74
0
 49
-0.125
 74
0
 49
0.125
 74
0
 49
-0.125
 74
0
 49
0.125
 74
0
 49
-0.125
 74
0
  0
LTYPE
  5
38
330
2
100
AcDbSymbolTableRecord
100
AcDbLinetypeTableRecord
  2
DASHDOT
 70
0
  3
Dash dot __ . __ . __ . __ . __ . __ . __ . __
 72
65
 73
4
 40
1.4
 49
1.0
 74
0
 49
-0.2
 74
0
 49
0.0
 74
0
 49
-0.2
 74
0
  0
LTYPE
  5
39
330
2
100
AcDbSymbolTableRecord
100
AcDbLinetypeTableRecord
  2
DASHDOTX2
 70
0
  3
Dash dot (2x) ____  .  ____  .  ____  .  ____
 72
65
 73
4
 40
2.4
 49
2.0
 74
0
 49
-0.2
 74
0
 49
0.0
 74
0
 49
-0.2
 74
0
  0
LTYPE
  5
3A
330
2
100
AcDbSymbolTableRecord
100
AcDbLinetypeTableRecord
  2
DASHDOT2
 70
0
  3
Dash dot (.5x) _ . _ . _ . _ . _ . _ . _ . _
 72
65
 73
4
 40
0.7
 49
0.5
 74
0
 49
-0.1
 74
0
 49
0.0
 74
0
 49
-0.1
 74
0
  0
LTYPE
  5
3B
330
2
100
AcDbSymbolTableRecord
100
AcDbLinetypeTableRecord
  2
DOT
 70
0
  3
Dot .  .  .  .  .  .  .  .  .  .  .  .  .  .  .  .
 72
65
 73
2
 40
0.2
 49
0.0
 74
0
 49
-0.2
 74
0
  0
LTYPE
  5
3C
330
2
100
AcDbSymbolTableRecord
100
AcDbLinetypeTableRecord
  2
DOTX2
 70
0
  3
Dot (2x) .    .    .    .    .    .    .    . 
 72
65
 73
2
 40
0.4
 49
0.0
 74
0
 49
-0.4
 74
0
  0
LTYPE
  5
3D
330
2
100
AcDbSymbolTableRecord
100
AcDbLinetypeTableRecord
  2
DOT2
 70
0
  3
Dot (.5) . . . . . . . . . . . . . . . . . . . 
 72
65
 73
2
 40
0.1
 49
0.0
 74
0
 49
-0.1
 74
0
  0
LTYPE
  5
3E
330
2
100
AcDbSymbolTableRecord
100
AcDbLinetypeTableRecord
  2
DIVIDE
 70
0
  3
Divide __ . . __ . . __ . . __ . . __ . . __
 72
65
 73
6
 40
1.6
 49
1.0
 74
0
 49
-0.2
 74
0
 49
0.0
 74
0
 49
-0.2
 74
0
 49
0.0
 74
0
 49
-0.2
 74
0
  0
LTYPE
  5
3F
330
2
100
AcDbSymbolTableRecord
100
AcDbLinetypeTableRecord
  2
DIVIDEX2
 70
0
  3
Divide (2x) ____  . .  ____  . .  ____  . .  ____
 72
65
 73
6
 40
2.6
 49
2.0
 74
0
 49
-0.2
 74
0
 49
0.0
 74
0
 49
-0.2
 74
0
 49
0.0
 74
0
 49
-0.2
 74
0
  0
LTYPE
  5
40
330
2
100
AcDbSymbolTableRecord
100
AcDbLinetypeTableRecord
  2
DIVIDE2
 70
0
  3
Divide(.5x) _ . _ . _ . _ . _ . _ . _ . _
 72
65
 73
6
 40
0.8
 49
0.5
 74
0
 49
-0.1
 74
0
 49
0.0
 74
0
 49
-0.1
 74
0
 49
0.0
 74
0
 49
-0.1
 74
0
  0
ENDTAB
  0
TABLE
  2
LAYER
  5
1
330
0
100
AcDbSymbolTable
 70
6
  0
LAYER
  5
27
330
1
100
AcDbSymbolTableRecord
100
AcDbLayerTableRecord
  2
0
 70
0
 62
7
  6
Continuous
370
-3
390
13
347
21
  0
LAYER
  5
28
330
1
100
AcDbSymbolTableRecord
100
AcDbLayerTableRecord
  2
Defpoints
 70
0
 62
7
  6
Continuous
290
0
370
-3
390
13
347
21
  0
LAYER
  5
8A
330
1
100
AcDbSymbolTableRecord
100
AcDbLayerTableRecord
  2
GEOMETRY
 70
0
 62
7
  6
Continuous
370
-3
390
13
347
21
  0
LAYER
  5
8B
330
1
100
AcDbSymbolTableRecord
100
AcDbLayerTableRecord
  2
DIMENSIONS
 70
0
 62
1
  6
Continuous
370
-3
390
13
347
21
  0
LAYER
  5
8C
330
1
100
AcDbSymbolTableRecord
100
AcDbLayerTableRecord
  2
TEXT
 70
0
 62
7
  6
Continuous
370
-3
390
13
347
21
  0
LAYER
  5
8D
330
1
100
AcDbSymbolTableRecord
100
AcDbLayerTableRecord
  2
HATCH
 70
0
 62
8
  6
Continuous
370
-3
390
13
347
21
  0
ENDTAB
  0
TABLE
  2
STYLE
  5
5
330
0
100
AcDbSymbolTable
 70
26
  0
STYLE
  5
29
330
5
100
AcDbSymbolTableRecord
100
AcDbTextStyleTableRecord
  2
Standard
 70
0
 40
0.0
 41
1.0
 50
0.0
 71
0
 42
2.5
  3
txt
  4

  0
STYLE
  5
41
330
5
100
AcDbSymbolTableRecord
100
AcDbTextStyleTableRecord
  2
OpenSans-Light
 70
0
 40
0.0
 41
1.0
 50
0.0
 71
0
 42
2.5
  3
OpenSans-Light.ttf
  4

  0
STYLE
  5
42
330
5
100
AcDbSymbolTableRecord
100
AcDbTextStyleTableRecord
  2
OpenSans-Light-Italic
 70
0
 40
0.0
 41
1.0
 50
0.0
 71
0
 42
2.5
  3
OpenSans-LightItalic.ttf
  4

  0
STYLE
  5
43
330
5
100
AcDbSymbolTableRecord
100
AcDbTextStyleTableRecord
  2
OpenSans
 70
0
 40
0.0
 41
1.0
 50
0.0
 71
0
 42
2.5
  3
OpenSans-Regular.ttf
  4

  0
STYLE
  5
44
330
5
100
AcDbSymbolTableRecord
100
AcDbTextStyleTableRecord
  2
OpenSans-Italic
 70
0
 40
0.0
 41
1.0
 50
0.0
 71
0
 42
2.5
  3
OpenSans-Italic.ttf
  4

  0
STYLE
  5
45
330
5
100
AcDbSymbolTableRecord
100
AcDbTextStyleTableRecord
  2
OpenSans-SemiBold
 70
0
 40
0.0
 41
1.0
 50
0.0
 71
0
 42
2.5
  3
OpenSans-SemiBold.ttf
  4

  0
STYLE
  5
46
330
5
100
AcDbSymbolTableRecord
100
AcDbTextStyleTableRecord
  2
OpenSans-SemiBoldItalic
 70
0
 40
0.0
 41
1.0
 50
0.0
 71
0
 42
2.5
  3
OpenSans-SemiBoldItalic.ttf
  4

  0
STYLE
  5
47
330
5
100
AcDbSymbolTableRecord
100
AcDbTextStyleTableRecord
  2
OpenSans-Bold
 70
0
 40
0.0
 41
1.0
 50
0.0
 71
0
 42
2.5
  3
OpenSans-Bold.ttf
  4

  0
STYLE
  5
48
330
5
100
AcDbSymbolTableRecord
100
AcDbTextStyleTableRecord
  2
OpenSans-BoldItalic
 70
0
 40
0.0
 41
1.0
 50
0.0
 71
0
 42
2.5
  3
OpenSans-BoldItalic.ttf
  4

  0
STYLE
  5
49
330
5
100
AcDbSymbolTableRecord
100
AcDbTextStyleTableRecord
  2
OpenSans-ExtraBold
 70
0
 40
0.0
 41
1.0
 50
0.0
 71
0
 42
2.5
  3
OpenSans-ExtraBold.ttf
  4

  0
STYLE
  5
4A
330
5
100
AcDbSymbolTableRecord
100
AcDbTextStyleTableRecord
  2
OpenSans-ExtraBoldItalic
 70
0
 40
0.0
 41
1.0
 50
0.0
 71
0
 42
2.5
  3
OpenSans-ExtraBoldItalic.ttf
  4

  0
STYLE
  5
4B
330
5
100
AcDbSymbolTableRecord
100
AcDbTextStyleTableRecord
  2
OpenSansCondensed-Bold
 70
0
 40
0.0
 41
1.0
 50
0.0
 71
0
 42
2.5
  3
OpenSansCondensed-Bold.ttf
  4

  0
STYLE
  5
4C
330
5
100
AcDbSymbolTableRecord
100
AcDbTextStyleTableRecord
  2
OpenSansCondensed-Light
 70
0
 40
0.0
 41
1.0
 50
0.0
 71
0
 42
2.5
  3
OpenSansCondensed-Light.ttf
  4

  0
STYLE
  5
4D
330
5
100
AcDbSymbolTableRecord
100
AcDbTextStyleTableRecord
  2
OpenSansCondensed-Italic
 70
0
 40
0.0
 41
1.0
 50
0.0
 71
0
 42
2.5
  3
OpenSansCondensed-LightItalic.ttf
  4

  0
STYLE
  5
4E
330
5
100
AcDbSymbolTableRecord
100
AcDbTextStyleTableRecord
  2
LiberationSans
 70
0
 40
0.0
 41
1.0
 50
0.0
 71
0
 42
2.5
  3
LiberationSans-Regular.ttf
  4

  0
STYLE
  5
4F
330
5
100
AcDbSymbolTableRecord
100
AcDbTextStyleTableRecord
  2
LiberationSans-Bold
 70
0
 40
0.0
 41
1.0
 50
0.0
 71
0
 42
2.5
  3
LiberationSans-Bold.ttf
  4

  0
STYLE
  5
50
330
5
100
AcDbSymbolTableRecord
100
AcDbTextStyleTableRecord
  2
LiberationSans-BoldItalic
 70
0
 40
0.0
 41
1.0
 50
0.0
 71
0
 42
2.5
  3
LiberationSans-BoldItalic.ttf
  4

  0
STYLE
  5
51
330
5
100
AcDbSymbolTableRecord
100
AcDbTextStyleTableRecord
  2
LiberationSans-Italic
 70
0
 40
0.0
 41
1.0
 50
0.0
 71
0
 42
2.5
  3
LiberationSans-Italic.ttf
  4

  0
STYLE
  5
52
330
5
100
AcDbSymbolTableRecord
100
AcDbTextStyleTableRecord
  2
LiberationSerif
 70
0
 40
0.0
 41
1.0
 50
0.0
 71
0
 42
2.5
  3
LiberationSerif-Regular.ttf
  4

  0
STYLE
  5
53
330
5
100
AcDbSymbolTableRecord
100
AcDbTextStyleTableRecord
  2
LiberationSerif-Bold
 70
0
 40
0.0
 41
1.0
 50
0.0
 71
0
 42
2.5
  3
LiberationSerif-Bold.ttf
  4

  0
STYLE
  5
54
330
5
100
AcDbSymbolTableRecord
100
AcDbTextStyleTableRecord
  2
LiberationSerif-BoldItalic
 70
0
 40
0.0
 41
1.0
 50
0.0
 71
0
 42
2.5
  3
LiberationSerif-BoldItalic.ttf
  4

  0
STYLE
  5
55
330
5
100
AcDbSymbolTableRecord
100
AcDbTextStyleTableRecord
  2
LiberationSerif-Italic
 70
0
 40
0.0
 41
1.0
 50
0.0
 71
0
 42
2.5
  3
LiberationSerif-Italic.ttf
  4

  0
STYLE
  5
56
330
5
100
AcDbSymbolTableRecord
100
AcDbTextStyleTableRecord
  2
LiberationMono
 70
0
 40
0.0
 41
1.0
 50
0.0
 71
0
 42
2.5
  3
LiberationMono-Regular.ttf
  4

  0
STYLE
  5
57
330
5
100
AcDbSymbolTableRecord
100
AcDbTextStyleTableRecord
  2
LiberationMono-Bold
 70
0
 40
0.0
 41
1.0
 50
0.0
 71
0
 42
2.5
  3
LiberationMono-Bold.ttf
  4

  0
STYLE
  5
58
330
5
100
AcDbSymbolTableRecord
100
AcDbTextStyleTableRecord
  2
LiberationMono-BoldItalic
 70
0
 40
0.0
 41
1.0
 50
0.0
 71
0
 42
2.5
  3
LiberationMono-BoldItalic.ttf
  4

  0
STYLE
  5
59
330
5
100
AcDbSymbolTableRecord
100
AcDbTextStyleTableRecord
  2
LiberationMono-Italic
 70
0
 40
0.0
 41
1.0
 50
0.0
 71
0
 42
2.5
  3
LiberationMono-Italic.ttf
  4

  0
ENDTAB
  0
TABLE
  2
VIEW
  5
7
330
0
100
AcDbSymbolTable
 70
0
  0
ENDTAB
  0
TABLE
  2
UCS
  5
6
330
0
100
AcDbSymbolTable
 70
0
  0
ENDTAB
  0
TABLE
  2
APPID
  5
3
330
0
100
AcDbSymbolTable
 70
3
  0
APPID
  5
2A
330
3
100
AcDbSymbolTableRecord
100
AcDbRegAppTableRecord
  2
ACAD
 70
0
  0
APPID
  5
1E8
330
3
100
AcDbSymbolTableRecord
100
AcDbRegAppTableRecord
  2
HATCHBACKGROUNDCOLOR
 70
0
  0
APPID
  5
1E9
330
3
100
AcDbSymbolTableRecord
100
AcDbRegAppTableRecord
  2
EZDXF
 70
0
  0
ENDTAB
  0
TABLE
  2
DIMSTYLE
  5
4
330
0
100
AcDbSymbolTable
 70
12
100
AcDbDimStyleTable
  0
DIMSTYLE
105
2B
330
4
100
AcDbSymbolTableRecord
100
AcDbDimStyleTableRecord
  2
Standard
 70
0
 40
1.0
 41
2.5
 42
0.625
 43
3.75
 44
1.25
 45
0.0
 46
0.0
 47
0.0
 48
0.0
 49
2.5
140
2.5
141
2.5
142
0.0
143
0.03937007874
144
1.0
145
0.0
146
1.0
147
0.625
148
0.0
 69
0
 70
0
 71
0
 72
0
 73
0
 74
0
 75
0
 76
0
 77
1
 78
8
 79
3
170
0
171
3
172
1
173
0
174
0
175
0
176
0
177
0
178
0
179
2
271
2
272
2
273
2
274
3
275
0
276
0
277
2
278
44
279
0
280
0
281
0
282
0
283
0
284
8
285
0
286
0
288
0
289
3
290
0
371
-2
372
-2
  0
DIMSTYLE
105
73
330
4
100
AcDbSymbolTableRecord
100
AcDbDimStyleTableRecord
  2
EZDXF
 70
0
 40
1.0
 41
0.175
 42
0.125
 43
3.75
 44
0.375
 45
0.0
 46
0.0
 47
0.0
 48
0.0
 49
2.5
140
0.25
141
2.5
142
0.0
143
0.03937007874
144
100.0
145
0.0
146
0.5
147
0.1
148
0.0
 69
0
 70
0
 71
0
 72
0
 73
0
 74
0
 75
0
 76
0
 77
1
 78
12
 79
3
170
0
171
3
172
1
173
0
174
0
175
0
176
0
177
0
178
0
179
2
271
2
272
2
273
2
274
3
275
0
276
0
277
2
278
46
279
2
280
0
281
0
282
0
283
0
284
8
285
0
286
0
288
1
289
3
290
0
340
4C
342
74
371
-2
372
-2
  0
DIMSTYLE
105
7C
330
4
100
AcDbSymbolTableRecord
100
AcDbDimStyleTableRecord
  2
EZ_M_100_H25_CM
 70
0
 40
1.0
 41
0.25
 42
0.125
 43
3.75
 44
0.375
 45
0.0
 46
0.0
 47
0.0
 48
0.0
 49
2.5
140
0.25
141
2.5
142
0.125
143
0.03937007874
144
100.0
145
0.0
146
0.5
147
0.1
148
0.0
 69
0
 70
0
 71
0
 72
0
 73
0
 74
0
 75
0
 76
0
 77
1
 78
12
 79
3
170
0
171
3
172
1
173
0
174
0
175
0
176
0
177
0
178
0
179
2
271
2
272
2
273
2
274
3
275
0
276
0
277
2
278
46
279
2
280
0
281
0
282
0
283
0
284
8
285
0
286
0
288
1
289
3
290
0
340
4C
371
-2
372
-2
  0
DIMSTYLE
105
7D
330
4
100
AcDbSymbolTableRecord
100
AcDbDimStyleTableRecord
  2
EZ_M_50_H25_CM
 70
0
 40
1.0
 41
0.125
 42
0.0625
 43
3.75
 44
0.1875
 45
0.0
 46
0.0
 47
0.0
 48
0.0
 49
2.5
140
0.125
141
2.5
142
0.0625
143
0.03937007874
144
100.0
145
0.0
146
0.5
147
0.05
148
0.0
 69
0
 70
0
 71
0
 72
0
 73
0
 74
0
 75
0
 76
0
 77
1
 78
12
 79
3
170
0
171
3
172
1
173
0
174
0
175
0
176
0
177
0
178
0
179
2
271
2
272
2
273
2
274
3
275
0
276
0
277
2
278
46
279
2
280
0
281
0
282
0
283
0
284
8
285
0
286
0
288
1
289
3
290
0
340
4C
371
-2
372
-2
  0
DIMSTYLE
105
7E
330
4
100
AcDbSymbolTableRecord
100
AcDbDimStyleTableRecord
  2
EZ_M_25_H25_CM
 70
0
 40
1.0
 41
0.0625
 42
0.03125
 43
3.75
 44
0.09375
 45
0.0
 46
0.0
 47
0.0
 48
0.0
 49
2.5
140
0.0625
141
2.5
142
0.03125
143
0.03937007874
144
100.0
145
0.0
146
0.5
147
0.025
148
0.0
 69
0
 70
0
 71
0
 72
0
 73
0
 74
0
 75
0
 76
0
 77
1
 78
12
 79
3
170
0
171
3
172
1
173
0
174
0
175
0
176
0
177
0
178
0
179
2
271
2
272
2
273
2
274
3
275
0
276
0
277
2
278
46
279
2
280
0
281
0
282
0
283
0
284
8
285
0
286
0
288
1
289
3
290
0
340
4C
371
-2
372
-2
  0
DIMSTYLE
105
7F
330
4
100
AcDbSymbolTableRecord
100
AcDbDimStyleTableRecord
  2
EZ_M_20_H25_CM
 70
0
 40
1.0
 41
0.05
 42
0.025
 43
3.75
 44
0.07500000000000001
 45
0.0
 46
0.0
 47
0.0
 48
0.0
 49
2.5
140
0.05
141
2.5
142
0.025
143
0.03937007874
144
100.0
145
0.0
146
0.5
147
0.020000000000000004
148
0.0
 69
0
 70
0
 71
0
 72
0
 73
0
 74
0
 75
0
 76
0
 77
1
 78
12
 79
3
170
0
171
3
172
1
173
0
174
0
175
0
176
0
177
0
178
0
179
2
271
2
272
2
273
2
274
3
275
0
276
0
277
2
278
46
279
2
280
0
281
0
282
0
283
0
284
8
285
0
286
0
288
1
289
3
290
0
340
4C
371
-2
372
-2
  0
DIMSTYLE
105
80
330
4
100
AcDbSymbolTableRecord
100
AcDbDimStyleTableRecord
  2
EZ_M_10_H25_CM
 70
0
 40
1.0
 41
0.025
 42
0.0125
 43
3.75
 44
0.037500000000000006
 45
0.0
 46
0.0
 47
0.0
 48
0.0
 49
2.5
140
0.025
141
2.5
142
0.0125
143
0.03937007874
144
100.0
145
0.0
146
0.5
147
0.010000000000000002
148
0.0
 69
0
 70
0
 71
0
 72
0
 73
0
 74
0
 75
0
 76
0
 77
1
 78
12
 79
3
170
0
171
3
172
1
173
0
174
0
175
0
176
0
177
0
178
0
179
2
271
2
272
2
273
2
274
3
275
0
276
0
277
2
278
46
279
2
280
0
281
0
282
0
283
0
284
8
285
0
286
0
288
1
289
3
290
0
340
4C
371
-2
372
-2
  0
DIMSTYLE
105
81
330
4
100
AcDbSymbolTableRecord
100
AcDbDimStyleTableRecord
  2
EZ_M_5_H25_CM
 70
0
 40
1.0
 41
0.0125
 42
0.00625
 43
3.75
 44
0.018750000000000003
 45
0.0
 46
0.0
 47
0.0
 48
0.0
 49
2.5
140
0.0125
141
2.5
142
0.00625
143
0.03937007874
144
100.0
145
0.0
146
0.5
147
0.005000000000000001
148
0.0
 69
0
 70
0
 71
0
 72
0
 73
0
 74
0
 75
0
 76
0
 77
1
 78
12
 79
3
170
0
171
3
172
1
173
0
174
0
175
0
176
0
177
0
178
0
179
2
271
2
272
2
273
2
274
3
275
0
276
0
277
2
278
46
279
2
280
0
281
0
282
0
283
0
284
8
285
0
286
0
288
1
289
3
290
0
340
4C
371
-2
372
-2
  0
DIMSTYLE
105
82
330
4
100
AcDbSymbolTableRecord
100
AcDbDimStyleTableRecord
  2
EZ_M_1_H25_CM
 70
0
 40
1.0
 41
0.0025
 42
0.00125
 43
3.75
 44
0.00375
 45
0.0
 46
0.0
 47
0.0
 48
0.0
 49
2.5
140
0.0025
141
2.5
142
0.00125
143
0.03937007874
144
100.0
145
0.0
146
0.5
147
0.001
148
0.0
 69
0
 70
0
 71
0
 72
0
 73
0
 74
0
 75
0
 76
0
 77
1
 78
12
 79
3
170
0
171
3
172
1
173
0
174
0
175
0
176
0
177
0
178
0
179
2
271
2
272
2
273
2
274
3
275
0
276
0
277
2
278
46
279
2
280
0
281
0
282
0
283
0
284
8
285
0
286
0
288
1
289
3
290
0
340
4C
371
-2
372
-2
  0
DIMSTYLE
105
83
330
4
100
AcDbSymbolTableRecord
100
AcDbDimStyleTableRecord
  2
EZ_RADIUS
 70
0
 40
1.0
 41
0.25
 42
0.125
 43
3.75
 44
0.375
 45
0.0
 46
0.0
 47
0.0
 48
0.0
 49
2.5
140
0.25
141
0.0
142
0.0
143
0.03937007874
144
100.0
145
0.0
146
0.5
147
0.1
148
0.0
 69
0
 70
0
 71
0
 72
0
 73
0
 74
0
 75
0
 76
0
 77
1
 78
12
 79
3
170
0
171
3
172
0
173
0
174
0
175
0
176
0
177
0
178
0
179
2
271
2
272
2
273
2
274
3
275
0
276
0
277
2
278
46
279
1
280
0
281
0
282
0
283
0
284
8
285
0
286
0
288
1
289
3
290
0
340
4C
342
84
371
-2
372
-2
  0
DIMSTYLE
105
88
330
4
100
AcDbSymbolTableRecord
100
AcDbDimStyleTableRecord
  2
EZ_RADIUS_INSIDE
 70
0
 40
1.0
 41
0.25
 42
0.125
 43
3.75
 44
0.375
 45
0.0
 46
0.0
 47
0.0
 48
0.0
 49
2.5
140
0.25
141
0.0
142
0.0
143
0.03937007874
144
100.0
145
0.0
146
0.5
147
0.1
148
0.0
 69
0
 70
0
 71
0
 72
0
 73
0
 74
0
 75
0
 76
0
 77
0
 78
12
 79
3
170
0
171
3
172
0
173
0
174
1
175
0
176
0
177
0
178
0
179
2
271
2
272
2
273
2
274
3
275
0
276
0
277
2
278
46
279
0
280
0
281
0
282
0
283
0
284
8
285
0
286
0
288
1
289
0
290
0
340
4C
342
84
371
-2
372
-2
  0
DIMSTYLE
105
89
330
4
100
AcDbSymbolTableRecord
100
AcDbDimStyleTableRecord
  2
EZ_CURVED
 70
0
 40
1.0
 41
0.25
 42
0.125
 43
3.75
 44
0.375
 45
0.0
 46
0.0
 47
0.0
 48
0.0
 49
2.5
140
0.25
141
2.5
142
0.0
143
0.03937007874
144
100.0
145
0.0
146
0.5
147
0.1
148
0.0
 69
0
 70
0
 71
0
 72
0
 73
0
 74
0
 75
0
 76
0
 77
1
 78
12
 79
2
 90
2
170
0
171
3
172
1
173
0
174
0
175
0
176
0
177
0
178
0
179
2
271
2
272
2
273
2
274
3
275
0
276
0
277
2
278
46
279
2
280
0
281
0
282
0
283
0
284
8
285
0
286
0
288
1
289
3
290
0
340
4C
371
-2
372
-2
  0
ENDTAB
  0
TABLE
  2
BLOCK_RECORD
  5
9
330
0
100
AcDbSymbolTable
 70
5
  0
BLOCK_RECORD
  5
17
330
9
100
AcDbSymbolTableRecord
100
AcDbBlockTableRecord
  2
*Model_Space
340
1A
 70
0
280
1
281
0
  0
BLOCK_RECORD
  5
1B
330
9
100
AcDbSymbolTableRecord
100
AcDbBlockTableRecord
  2
*Paper_Space
340
1E
 70
0
280
1
281
0
  0
BLOCK_RECORD
  5
74
330
9
100
AcDbSymbolTableRecord
100
AcDbBlockTableRecord
  2
_ARCHTICK
340
0
 70
0
280
1
281
0
  0
BLOCK_RECORD
  5
78
330
9
100
AcDbSymbolTableRecord
100
AcDbBlockTableRecord
  2
_CLOSEDFILLED
340
0
 70
0
280
1
281
0
  0
BLOCK_RECORD
  5
84
330
9
100
AcDbSymbolTableRecord
100
AcDbBlockTableRecord
  2
_CLOSEDBLANK
340
0
 70
0
280
1
281
0
  0
ENDTAB
  0
ENDSEC
  0
SECTION
  2
BLOCKS
  0
BLOCK
  5
18
330
17
100
AcDbEntity
  8
0
100
AcDbBlockBegin
  2
*Model_Space
 70
0
 10
0.0
 20
0.0
 30
0.0
  3
*Model_Space
  1

  0
ENDBLK
  5
19
330
17
100
AcDbEntity
  8
0
100
AcDbBlockEnd
  0
BLOCK
  5
1C
330
1B
100
AcDbEntity
  8
0
100
AcDbBlockBegin
  2
*Paper_Space
 70
0
 10
0.0
 20
0.0
 30
0.0
  3
*Paper_Space
  1

  0
ENDBLK
  5
1D
330
1B
100
AcDbEntity
  8
0
100
AcDbBlockEnd
  0
BLOCK
  5
75
330
74
100
AcDbEntity
  8
0
100
AcDbBlockBegin
  2
_ARCHTICK
 70
0
 10
0.0
 20
0.0
 30
0.0
  3
_ARCHTICK
  1

  0
LWPOLYLINE
  5
77
330
74
100
AcDbEntity
  8
0
  6
BYBLOCK
 62
0
100
AcDbPolyline
 90
2
 70
0
 43
0.15
 10
-0.5
 20
-0.5
 10
0.5
 20
0.5
  0
ENDBLK
  5
76
330
74
100
AcDbEntity
  8
0
100
AcDbBlockEnd
  0
BLOCK
  5
79
330
78
100
AcDbEntity
  8
0
100
AcDbBlockBegin
  2
_CLOSEDFILLED
 70
0
 10
0.0
 20
0.0
 30
0.0
  3
_CLOSEDFILLED
  1

  0
SOLID
  5
7B
330
78
100
AcDbEntity
  8
0
  6
BYBLOCK
 62
0
100
AcDbTrace
 10
-1.0
 20
0.16439898372402537
 30
0.0
 11
0.0
 21
0.0
 31
0.0
 12
-1.0
 22
-0.16439898372402537
 32
0.0
 13
-1.0
 23
-0.16439898372402537
 33
0.0
  0
ENDBLK
  5
7A
330
78
100
AcDbEntity
  8
0
100
AcDbBlockEnd
  0
BLOCK
  5
85
330
84
100
AcDbEntity
  8
0
100
AcDbBlockBegin
  2
_CLOSEDBLANK
 70
0
 10
0.0
 20
0.0
 30
0.0
  3
_CLOSEDBLANK
  1

  0
LWPOLYLINE
  5
87
330
84
100
AcDbEntity
  8
0
  6
BYBLOCK
 62
0
100
AcDbPolyline
 90
3
 70
1
 10
-1.0
 20
0.16439898372402537
 10
0.0
 20
0.0
 10
-1.0
 20
-0.16439898372402537
  0
ENDBLK
  5
86
330
84
100
AcDbEntity
  8
0
100
AcDbBlockEnd
  0
ENDSEC
  0
SECTION
  2
ENTITIES
  0
LWPOLYLINE
  5
8E
330
17
100
AcDbEntity
  8
GEOMETRY
100
AcDbPolyline
 90
5
 70
0
 10
0.31496062992125984
 20
11.377952755905513
 10
16.22047244094488
 20
11.377952755905513
 10
16.22047244094488
 20
0.31496062992126106
 10
0.31496062992125984
 20
0.31496062992126106
 10
0.31496062992125984
 20
11.377952755905513
  0
TEXT
  5
8F
330
17
100
AcDbEntity
  8
TEXT
100
AcDbText
 10
0.7086614173228346
 20
11.023622047244094
 30
0.0
 40
0.09070866141732283
  1
PLAN
 11
0.7086614173228346
 21
11.023622047244094
 31
0.0
100
AcDbText
  0
LINE
  5
90
330
17
100
AcDbEntity
  8
GEOMETRY
100
AcDbLine
 10
0.7086614173228346
 20
10.964566929133857
 30
0.0
 11
6.6141732283464565
 21
10.964566929133857
 31
0.0
  0
TEXT
  5
91
330
17
100
AcDbEntity
  8
TEXT
100
AcDbText
 10
0.7086614173228346
 20
10.834645669291337
 30
0.0
 40
0.048188976377952754
  1
SCALE 1:20 · THE WINDOW WALL AT THE TOP · THE DOOR FROM THE DRESSING ROOM BOTTOM LEFT
 11
0.7086614173228346
 21
10.834645669291337
 31
0.0
100
AcDbText
  0
HATCH
  5
92
330
17
100
AcDbEntity
  8
HATCH
 62
7
100
AcDbHatch
 10
0.0
 20
0.0
 30
0.0
210
0.0
220
0.0
230
1.0
  2
ANSI31
 70
0
 71
0
 91
1
 92
3
 72
0
 73
1
 93
5
 10
1.2007874015748032
 20
10.334645669291339
 10
9.456692913385828
 20
10.334645669291339
 10
9.456692913385828
 20
9.881889763779528
 10
1.2007874015748032
 20
9.881889763779528
 10
1.2007874015748032
 20
10.334645669291339
 97
0
 75
1
 76
1
 52
0.0
 41
0.015748031496062992
 77
0
 78
1
 53
45.0
 43
0.0
 44
0.0
 45
-0.0013919425
 46
0.0013919425
 79
0
 98
0
  0
HATCH
  5
93
330
17
100
AcDbEntity
  8
HATCH
 62
7
100
AcDbHatch
 10
0.0
 20
0.0
 30
0.0
210
0.0
220
0.0
230
1.0
  2
ANSI31
 70
0
 71
0
 91
1
 92
3
 72
0
 73
1
 93
5
 10
1.2007874015748032
 20
4.531496062992126
 10
9.456692913385828
 20
4.531496062992126
 10
9.456692913385828
 20
4.078740157480315
 10
1.2007874015748032
 20
4.078740157480315
 10
1.2007874015748032
 20
4.531496062992126
 97
0
 75
1
 76
1
 52
0.0
 41
0.015748031496062992
 77
0
 78
1
 53
45.0
 43
0.0
 44
0.0
 45
-0.0013919425
 46
0.0013919425
 79
0
 98
0
  0
HATCH
  5
94
330
17
100
AcDbEntity
  8
HATCH
 62
7
100
AcDbHatch
 10
0.0
 20
0.0
 30
0.0
210
0.0
220
0.0
230
1.0
  2
ANSI31
 70
0
 71
0
 91
1
 92
3
 72
0
 73
1
 93
5
 10
1.2007874015748032
 20
9.881889763779528
 10
1.6535433070866141
 20
9.881889763779528
 10
1.6535433070866141
 20
4.531496062992126
 10
1.2007874015748032
 20
4.531496062992126
 10
1.2007874015748032
 20
9.881889763779528
 97
0
 75
1
 76
1
 52
0.0
 41
0.015748031496062992
 77
0
 78
1
 53
45.0
 43
0.0
 44
0.0
 45
-0.0013919425
 46
0.0013919425
 79
0
 98
0
  0
HATCH
  5
95
330
17
100
AcDbEntity
  8
HATCH
 62
7
100
AcDbHatch
 10
0.0
 20
0.0
 30
0.0
210
0.0
220
0.0
230
1.0
  2
ANSI31
 70
0
 71
0
 91
1
 92
3
 72
0
 73
1
 93
5
 10
9.003937007874017
 20
9.881889763779528
 10
9.456692913385828
 20
9.881889763779528
 10
9.456692913385828
 20
4.531496062992126
 10
9.003937007874017
 20
4.531496062992126
 10
9.003937007874017
 20
9.881889763779528
 97
0
 75
1
 76
1
 52
0.0
 41
0.015748031496062992
 77
0
 78
1
 53
45.0
 43
0.0
 44
0.0
 45
-0.0013919425
 46
0.0013919425
 79
0
 98
0
  0
LINE
  5
96
330
17
100
AcDbEntity
  8
GEOMETRY
100
AcDbLine
 10
2.1023622047244093
 20
10.28543307086614
 30
0.0
 11
3.901574803149606
 21
10.28543307086614
 31
0.0
  0
LINE
  5
97
330
17
100
AcDbEntity
  8
GEOMETRY
100
AcDbLine
 10
2.1023622047244093
 20
10.108267716535433
 30
0.0
 11
3.901574803149606
 21
10.108267716535433
 31
0.0
  0
LINE
  5
98
330
17
100
AcDbEntity
  8
GEOMETRY
100
AcDbLine
 10
2.1023622047244093
 20
9.931102362204724
 30
0.0
 11
3.901574803149606
 21
9.931102362204724
 31
0.0
  0
LWPOLYLINE
  5
99
330
17
100
AcDbEntity
  8
GEOMETRY
100
AcDbPolyline
 90
5
 70
0
 10
1.6535433070866141
 20
4.531496062992127
 10
1.7283464566929132
 20
4.531496062992127
 10
1.7283464566929132
 20
4.078740157480316
 10
1.6535433070866141
 20
4.078740157480316
 10
1.6535433070866141
 20
4.531496062992127
  0
LWPOLYLINE
  5
9A
330
17
100
AcDbEntity
  8
GEOMETRY
100
AcDbPolyline
 90
5
 70
0
 10
3.078740157480315
 20
4.531496062992127
 10
3.1535433070866143
 20
4.531496062992127
 10
3.1535433070866143
 20
4.078740157480316
 10
3.078740157480315
 20
4.078740157480316
 10
3.078740157480315
 20
4.531496062992127
  0
HATCH
  5
9B
330
17
100
AcDbEntity
  8
HATCH
 62
7
100
AcDbHatch
 10
0.0
 20
0.0
 30
0.0
210
0.0
220
0.0
230
1.0
  2
ANSI31
 70
0
 71
0
 91
1
 92
3
 72
0
 73
1
 93
5
 10
1.6535433070866141
 20
9.881889763779528
 10
2.0039370078740157
 20
9.881889763779528
 10
2.0039370078740157
 20
7.73228346456693
 10
1.6535433070866141
 20
7.73228346456693
 10
1.6535433070866141
 20
9.881889763779528
 97
0
 75
1
 76
1
 52
0.0
 41
0.015748031496062992
 77
0
 78
1
 53
45.0
 43
0.0
 44
0.0
 45
-0.0013919425
 46
0.0013919425
 79
0
 98
0
  0
HATCH
  5
9C
330
17
100
AcDbEntity
  8
HATCH
 62
7
100
AcDbHatch
 10
0.0
 20
0.0
 30
0.0
210
0.0
220
0.0
230
1.0
  2
ANSI31
 70
0
 71
0
 91
1
 92
3
 72
0
 73
1
 93
5
 10
6.653543307086614
 20
6.330708661417323
 10
7.153543307086614
 20
6.330708661417323
 10
7.153543307086614
 20
4.531496062992127
 10
6.653543307086614
 20
4.531496062992127
 10
6.653543307086614
 20
6.330708661417323
 97
0
 75
1
 76
1
 52
0.0
 41
0.015748031496062992
 77
0
 78
1
 53
45.0
 43
0.0
 44
0.0
 45
-0.0013919425
 46
0.0013919425
 79
0
 98
0
  0
LWPOLYLINE
  5
9D
330
17
100
AcDbEntity
  8
GEOMETRY
100
AcDbPolyline
 90
4
 70
0
 10
1.2007874015748032
 20
10.334645669291339
 10
9.456692913385828
 20
10.334645669291339
 10
9.456692913385828
 20
4.078740157480316
 10
3.153543307086614
 20
4.078740157480316
  0
LWPOLYLINE
  5
9E
330
17
100
AcDbEntity
  8
GEOMETRY
100
AcDbPolyline
 90
3
 70
0
 10
1.6535433070866141
 20
4.078740157480316
 10
1.2007874015748032
 20
4.078740157480316
 10
1.6535433070866141
 20
4.078740157480316
  0
LWPOLYLINE
  5
9F
330
17
100
AcDbEntity
  8
GEOMETRY
100
AcDbPolyline
 90
2
 70
0
 10
1.6535433070866141
 20
9.881889763779528
 10
2.1023622047244093
 20
9.881889763779528
  0
LWPOLYLINE
  5
A0
330
17
100
AcDbEntity
  8
GEOMETRY
100
AcDbPolyline
 90
4
 70
0
 10
3.901574803149606
 20
9.881889763779528
 10
9.003937007874017
 20
9.881889763779528
 10
9.003937007874017
 20
4.531496062992127
 10
3.153543307086614
 20
4.531496062992127
  0
LWPOLYLINE
  5
A1
330
17
100
AcDbEntity
  8
GEOMETRY
100
AcDbPolyline
 90
3
 70
0
 10
1.6535433070866141
 20
4.531496062992127
 10
1.6535433070866141
 20
4.531496062992127
 10
1.6535433070866141
 20
9.881889763779528
  0
LWPOLYLINE
  5
A2
330
17
100
AcDbEntity
  8
GEOMETRY
100
AcDbPolyline
 90
3
 70
0
 10
2.0039370078740157
 20
9.881889763779528
 10
2.0039370078740157
 20
7.73228346456693
 10
1.6535433070866141
 20
7.73228346456693
  0
LWPOLYLINE
  5
A3
330
17
100
AcDbEntity
  8
GEOMETRY
100
AcDbPolyline
 90
4
 70
0
 10
6.653543307086614
 20
4.531496062992127
 10
6.653543307086614
 20
6.330708661417324
 10
7.153543307086615
 20
6.330708661417324
 10
7.153543307086615
 20
4.531496062992127
  0
SPLINE
  5
A4
330
17
100
AcDbEntity
  8
GEOMETRY
  6
DASHED
100
AcDbSpline
 70
0
 71
3
 72
14
 73
10
 74
0
 40
0.0
 40
0.0
 40
0.0
 40
0.0
 40
1.0
 40
1.0
 40
1.0
 40
2.0
 40
2.0
 40
2.0
 40
3.0
 40
3.0
 40
3.0
 40
3.0
 10
3.078740157480315
 20
4.531496062992127
 30
0.0
 10
3.078740157480315
 20
4.768522020168298
 30
0.0
 10
3.0163346852733715
 20
5.00142241311494
 30
0.0
 10
2.8978217066852854
 20
5.206692913385828
 30
0.0
 10
2.7793087280971998
 20
5.411963413656714
 30
0.0
 10
2.6088138073575013
 20
5.582458334396414
 30
0.0
 10
2.4035433070866143
 20
5.700971312984499
 30
0.0
 10
2.1982728068157273
 20
5.819484291572584
 30
0.0
 10
1.9653724138690847
 20
5.881889763779527
 30
0.0
 10
1.7283464566929132
 20
5.881889763779527
 30
0.0
  0
LWPOLYLINE
  5
A5
330
17
100
AcDbEntity
  8
GEOMETRY
100
AcDbPolyline
 90
5
 70
0
 10
1.7283464566929132
 20
5.881889763779527
 10
1.8070866141732282
 20
5.881889763779527
 10
1.8070866141732282
 20
4.531496062992125
 10
1.7283464566929132
 20
4.531496062992125
 10
1.7283464566929132
 20
5.881889763779527
  0
LWPOLYLINE
  5
A6
330
17
100
AcDbEntity
  8
GEOMETRY
  6
DASHED
100
AcDbPolyline
 90
5
 70
0
 10
1.6929133858267715
 20
9.31003937007874
 10
1.9744094488188975
 20
9.31003937007874
 10
1.9744094488188975
 20
8.404527559055119
 10
1.6929133858267715
 20
8.404527559055119
 10
1.6929133858267715
 20
9.31003937007874
  0
POLYLINE
  5
A7
330
17
100
AcDbEntity
  8
GEOMETRY
100
AcDb2dPolyline
 66
1
 10
0.0
 20
0.0
 30
0.0
 70
0
  0
VERTEX
  5
A8
330
A7
100
AcDbEntity
  8
GEOMETRY
100
AcDbVertex
100
AcDb2dVertex
 10
2.0039370078740157
 20
9.211614173228346
 30
0.0
 70
0
  0
VERTEX
  5
A9
330
A7
100
AcDbEntity
  8
GEOMETRY
100
AcDbVertex
100
AcDb2dVertex
 10
2.377952755905512
 20
9.211614173228346
 30
0.0
 70
0
  0
SEQEND
  5
AA
330
A7
100
AcDbEntity
  8
GEOMETRY
  0
SPLINE
  5
AB
330
17
100
AcDbEntity
  8
GEOMETRY
100
AcDbSpline
 70
0
 71
3
 72
23
 73
19
 74
0
 40
0.0
 40
0.0
 40
0.0
 40
0.0
 40
1.0
 40
1.0
 40
1.0
 40
2.0
 40
2.0
 40
2.0
 40
3.0
 40
3.0
 40
3.0
 40
4.0
 40
4.0
 40
4.0
 40
5.0
 40
5.0
 40
5.0
 40
6.0
 40
6.0
 40
6.0
 40
6.0
 10
2.377952755905512
 20
9.211614173228346
 30
0.0
 10
2.498884366709681
 20
9.211614173228346
 30
0.0
 10
2.6177110978049067
 20
9.195239559529732
 30
0.0
 10
2.72244094488189
 20
9.16414285960866
 30
0.0
 10
2.8271707919588733
 20
9.133046159687588
 30
0.0
 10
2.9141579964179027
 20
9.088309883108659
 30
0.0
 10
2.974623801819987
 20
9.034448818897637
 30
0.0
 10
3.035089607222072
 20
8.980587754686617
 30
0.0
 10
3.066929133858268
 20
8.919476864409074
 30
0.0
 10
3.066929133858268
 20
8.85728346456693
 30
0.0
 10
3.066929133858268
 20
8.795090064724786
 30
0.0
 10
3.0350896072220723
 20
8.73397917444724
 30
0.0
 10
2.974623801819988
 20
8.68011811023622
 30
0.0
 10
2.914157996417903
 20
8.6262570460252
 30
0.0
 10
2.8271707919588733
 20
8.581520769446271
 30
0.0
 10
2.72244094488189
 20
8.5504240695252
 30
0.0
 10
2.6177110978049067
 20
8.519327369604127
 30
0.0
 10
2.498884366709681
 20
8.502952755905511
 30
0.0
 10
2.377952755905512
 20
8.502952755905511
 30
0.0
  0
POLYLINE
  5
AC
330
17
100
AcDbEntity
  8
GEOMETRY
100
AcDb2dPolyline
 66
1
 10
0.0
 20
0.0
 30
0.0
 70
0
  0
VERTEX
  5
AD
330
AC
100
AcDbEntity
  8
GEOMETRY
100
AcDbVertex
100
AcDb2dVertex
 10
2.377952755905512
 20
8.502952755905511
 30
0.0
 70
0
  0
VERTEX
  5
AE
330
AC
100
AcDbEntity
  8
GEOMETRY
100
AcDbVertex
100
AcDb2dVertex
 10
2.0039370078740157
 20
8.502952755905511
 30
0.0
 70
0
  0
VERTEX
  5
AF
330
AC
100
AcDbEntity
  8
GEOMETRY
100
AcDbVertex
100
AcDb2dVertex
 10
2.0039370078740157
 20
9.211614173228346
 30
0.0
 70
0
  0
SEQEND
  5
B0
330
AC
100
AcDbEntity
  8
GEOMETRY
  0
SPLINE
  5
B1
330
17
100
AcDbEntity
  8
GEOMETRY
100
AcDbSpline
 70
0
 71
3
 72
41
 73
37
 74
0
 40
0.0
 40
0.0
 40
0.0
 40
0.0
 40
1.0
 40
1.0
 40
1.0
 40
2.0
 40
2.0
 40
2.0
 40
3.0
 40
3.0
 40
3.0
 40
4.0
 40
4.0
 40
4.0
 40
5.0
 40
5.0
 40
5.0
 40
6.0
 40
6.0
 40
6.0
 40
7.0
 40
7.0
 40
7.0
 40
8.0
 40
8.0
 40
8.0
 40
9.0
 40
9.0
 40
9.0
 40
10.0
 40
10.0
 40
10.0
 40
11.0
 40
11.0
 40
11.0
 40
12.0
 40
12.0
 40
12.0
 40
12.0
 10
2.9881889763779528
 20
8.85728346456693
 30
0.0
 10
2.9881889763779528
 20
8.814093603565441
 30
0.0
 10
2.972724063440372
 20
8.771655485317146
 30
0.0
 10
2.943354957959359
 20
8.734251968503937
 30
0.0
 10
2.913985852478347
 20
8.696848451690729
 30
0.0
 10
2.871734924598247
 20
8.665781592955362
 30
0.0
 10
2.820866141732284
 20
8.644186662454617
 30
0.0
 10
2.7699973588663207
 20
8.622591731953872
 30
0.0
 10
2.7122815180486395
 20
8.611220472440944
 30
0.0
 10
2.6535433070866143
 20
8.611220472440944
 30
0.0
 10
2.594805096124589
 20
8.611220472440944
 30
0.0
 10
2.537089255306908
 20
8.622591731953872
 30
0.0
 10
2.486220472440945
 20
8.644186662454617
 30
0.0
 10
2.435351689574982
 20
8.665781592955362
 30
0.0
 10
2.393100761694882
 20
8.696848451690729
 30
0.0
 10
2.3637316562138695
 20
8.734251968503937
 30
0.0
 10
2.3343625507328567
 20
8.771655485317146
 30
0.0
 10
2.318897637795276
 20
8.814093603565441
 30
0.0
 10
2.318897637795276
 20
8.85728346456693
 30
0.0
 10
2.318897637795276
 20
8.900473325568418
 30
0.0
 10
2.3343625507328567
 20
8.942911443816714
 30
0.0
 10
2.363731656213869
 20
8.980314960629922
 30
0.0
 10
2.3931007616948814
 20
9.01771847744313
 30
0.0
 10
2.435351689574982
 20
9.048785336178497
 30
0.0
 10
2.486220472440945
 20
9.070380266679242
 30
0.0
 10
2.537089255306908
 20
9.091975197179988
 30
0.0
 10
2.594805096124589
 20
9.103346456692915
 30
0.0
 10
2.6535433070866143
 20
9.103346456692915
 30
0.0
 10
2.7122815180486395
 20
9.103346456692915
 30
0.0
 10
2.7699973588663207
 20
9.091975197179988
 30
0.0
 10
2.820866141732284
 20
9.070380266679242
 30
0.0
 10
2.871734924598247
 20
9.048785336178497
 30
0.0
 10
2.913985852478347
 20
9.01771847744313
 30
0.0
 10
2.943354957959359
 20
8.980314960629922
 30
0.0
 10
2.972724063440372
 20
8.942911443816714
 30
0.0
 10
2.9881889763779528
 20
8.900473325568418
 30
0.0
 10
2.9881889763779528
 20
8.85728346456693
 30
0.0
  0
LWPOLYLINE
  5
B2
330
17
100
AcDbEntity
  8
GEOMETRY
100
AcDbPolyline
 90
5
 70
0
 10
2.0039370078740157
 20
8.345472440944881
 10
2.02755905511811
 20
8.345472440944881
 10
2.02755905511811
 20
7.91240157480315
 10
2.0039370078740157
 20
7.91240157480315
 10
2.0039370078740157
 20
8.345472440944881
  0
LWPOLYLINE
  5
B3
330
17
100
AcDbEntity
  8
GEOMETRY
100
AcDbPolyline
 90
5
 70
0
 10
4.521653543307087
 20
9.744094488188978
 10
6.685039370078741
 20
9.744094488188978
 10
6.685039370078741
 20
9.625984251968504
 10
4.521653543307087
 20
9.625984251968504
 10
4.521653543307087
 20
9.744094488188978
  0
CIRCLE
  5
B4
330
17
100
AcDbEntity
  8
GEOMETRY
  6
DASHED
100
AcDbCircle
 10
5.603346456692913
 20
9.133858267716535
 30
0.0
 40
0.24606299212598426
  0
LINE
  5
B5
330
17
100
AcDbEntity
  8
GEOMETRY
  6
DASHED
100
AcDbLine
 10
5.603346456692913
 20
9.881889763779528
 30
0.0
 11
5.603346456692913
 21
9.133858267716535
 31
0.0
  0
LWPOLYLINE
  5
B6
330
17
100
AcDbEntity
  8
GEOMETRY
100
AcDbPolyline
 90
5
 70
0
 10
5.485236220472441
 20
9.881889763779528
 10
5.721456692913385
 20
9.881889763779528
 10
5.721456692913385
 20
9.803149606299213
 10
5.485236220472441
 20
9.803149606299213
 10
5.485236220472441
 20
9.881889763779528
  0
LWPOLYLINE
  5
B7
330
17
100
AcDbEntity
  8
GEOMETRY
  6
DASHED
100
AcDbPolyline
 90
5
 70
0
 10
4.462598425196851
 20
9.822834645669293
 10
6.744094488188977
 20
9.822834645669293
 10
6.744094488188977
 20
7.891732283464567
 10
4.462598425196851
 20
7.891732283464567
 10
4.462598425196851
 20
9.822834645669293
  0
LWPOLYLINE
  5
B8
330
17
100
AcDbEntity
  8
GEOMETRY
100
AcDbPolyline
 90
5
 70
0
 10
2.0039370078740157
 20
7.8326771653543314
 10
6.812992125984253
 20
7.8326771653543314
 10
6.812992125984253
 20
7.812992125984252
 10
2.0039370078740157
 20
7.812992125984252
 10
2.0039370078740157
 20
7.8326771653543314
  0
LWPOLYLINE
  5
B9
330
17
100
AcDbEntity
  8
GEOMETRY
100
AcDbPolyline
 90
5
 70
0
 10
4.393700787401575
 20
9.881889763779528
 10
4.413385826771654
 20
9.881889763779528
 10
4.413385826771654
 20
7.8326771653543314
 10
4.393700787401575
 20
7.8326771653543314
 10
4.393700787401575
 20
9.881889763779528
  0
LWPOLYLINE
  5
BA
330
17
100
AcDbEntity
  8
GEOMETRY
100
AcDbPolyline
 90
5
 70
0
 10
6.793307086614173
 20
9.881889763779528
 10
6.812992125984253
 20
9.881889763779528
 10
6.812992125984253
 20
7.8326771653543314
 10
6.793307086614173
 20
7.8326771653543314
 10
6.793307086614173
 20
9.881889763779528
  0
SPLINE
  5
BB
330
17
100
AcDbEntity
  8
GEOMETRY
  6
DASHED
100
AcDbSpline
 70
0
 71
3
 72
14
 73
10
 74
0
 40
0.0
 40
0.0
 40
0.0
 40
0.0
 40
1.0
 40
1.0
 40
1.0
 40
2.0
 40
2.0
 40
2.0
 40
3.0
 40
3.0
 40
3.0
 40
3.0
 10
4.391732283464567
 20
7.8326771653543314
 30
0.0
 10
4.391732283464567
 20
7.61569130368285
 30
0.0
 10
4.334603075671621
 20
7.402482197603417
 30
0.0
 10
4.22611014483588
 20
7.214566929133859
 30
0.0
 10
4.11761721400014
 20
7.026651660664301
 30
0.0
 10
3.961537315713653
 20
6.870571762377813
 30
0.0
 10
3.773622047244095
 20
6.762078831542073
 30
0.0
 10
3.585706778774537
 20
6.653585900706332
 30
0.0
 10
3.372497672695103
 20
6.596456692913387
 30
0.0
 10
3.155511811023622
 20
6.596456692913387
 30
0.0
  0
LWPOLYLINE
  5
BC
330
17
100
AcDbEntity
  8
GEOMETRY
100
AcDbPolyline
 90
5
 70
0
 10
3.155511811023622
 20
7.8326771653543314
 10
3.175196850393701
 20
7.8326771653543314
 10
3.175196850393701
 20
6.596456692913386
 10
3.155511811023622
 20
6.596456692913386
 10
3.155511811023622
 20
7.8326771653543314
  0
LWPOLYLINE
  5
BD
330
17
100
AcDbEntity
  8
GEOMETRY
100
AcDbPolyline
 90
5
 70
0
 10
3.1318897637795278
 20
7.743385826771654
 10
3.198818897637796
 20
7.743385826771654
 10
3.198818897637796
 20
7.6252755905511815
 10
3.1318897637795278
 20
7.6252755905511815
 10
3.1318897637795278
 20
7.743385826771654
  0
LWPOLYLINE
  5
BE
330
17
100
AcDbEntity
  8
GEOMETRY
100
AcDbPolyline
 90
5
 70
0
 10
3.1318897637795278
 20
6.803858267716535
 10
3.198818897637796
 20
6.803858267716535
 10
3.198818897637796
 20
6.685748031496063
 10
3.1318897637795278
 20
6.685748031496063
 10
3.1318897637795278
 20
6.803858267716535
  0
SPLINE
  5
BF
330
17
100
AcDbEntity
  8
GEOMETRY
  6
DASHED
100
AcDbSpline
 70
0
 71
3
 72
14
 73
10
 74
0
 40
0.0
 40
0.0
 40
0.0
 40
0.0
 40
1.0
 40
1.0
 40
1.0
 40
2.0
 40
2.0
 40
2.0
 40
3.0
 40
3.0
 40
3.0
 40
3.0
 10
5.596456692913386
 20
7.8326771653543314
 30
0.0
 10
5.596456692913386
 20
7.625365832547184
 30
0.0
 10
5.541874647251336
 20
7.421662864955368
 30
0.0
 10
5.438218980847762
 20
7.2421259842519685
 30
0.0
 10
5.334563314444189
 20
7.062589103548569
 30
0.0
 10
5.185442392514424
 20
6.9134681816188035
 30
0.0
 10
5.005905511811024
 20
6.8098125152152305
 30
0.0
 10
4.826368631107624
 20
6.7061568488116565
 30
0.0
 10
4.622665663515809
 20
6.6515748031496065
 30
0.0
 10
4.415354330708662
 20
6.6515748031496065
 30
0.0
  0
LWPOLYLINE
  5
C0
330
17
100
AcDbEntity
  8
GEOMETRY
100
AcDbPolyline
 90
5
 70
0
 10
4.415354330708662
 20
7.8326771653543314
 10
4.435039370078741
 20
7.8326771653543314
 10
4.435039370078741
 20
6.6515748031496065
 10
4.415354330708662
 20
6.6515748031496065
 10
4.415354330708662
 20
7.8326771653543314
  0
LWPOLYLINE
  5
C1
330
17
100
AcDbEntity
  8
GEOMETRY
100
AcDbPolyline
 90
5
 70
0
 10
4.391732283464567
 20
7.75
 10
4.458661417322834
 20
7.75
 10
4.458661417322834
 20
7.631889763779528
 10
4.391732283464567
 20
7.631889763779528
 10
4.391732283464567
 20
7.75
  0
LWPOLYLINE
  5
C2
330
17
100
AcDbEntity
  8
GEOMETRY
100
AcDbPolyline
 90
5
 70
0
 10
4.391732283464567
 20
6.85236220472441
 10
4.458661417322834
 20
6.85236220472441
 10
4.458661417322834
 20
6.734251968503938
 10
4.391732283464567
 20
6.734251968503938
 10
4.391732283464567
 20
6.85236220472441
  0
POLYLINE
  5
C3
330
17
100
AcDbEntity
  8
GEOMETRY
100
AcDb2dPolyline
 66
1
 10
0.0
 20
0.0
 30
0.0
 70
0
  0
VERTEX
  5
C4
330
C3
100
AcDbEntity
  8
GEOMETRY
100
AcDbVertex
100
AcDb2dVertex
 10
8.078740157480315
 20
9.38976377952756
 30
0.0
 70
0
  0
VERTEX
  5
C5
330
C3
100
AcDbEntity
  8
GEOMETRY
100
AcDbVertex
100
AcDb2dVertex
 10
8.078740157480315
 20
9.38976377952756
 30
0.0
 70
0
  0
SEQEND
  5
C6
330
C3
100
AcDbEntity
  8
GEOMETRY
  0
SPLINE
  5
C7
330
17
100
AcDbEntity
  8
GEOMETRY
100
AcDbSpline
 70
0
 71
3
 72
14
 73
10
 74
0
 40
0.0
 40
0.0
 40
0.0
 40
0.0
 40
1.0
 40
1.0
 40
1.0
 40
2.0
 40
2.0
 40
2.0
 40
3.0
 40
3.0
 40
3.0
 40
3.0
 10
8.078740157480315
 20
9.38976377952756
 30
0.0
 10
8.21694771268508
 20
9.38976377952756
 30
0.0
 10
8.352749691079625
 20
9.344642621780265
 30
0.0
 10
8.47244094488189
 20
9.258953937553311
 30
0.0
 10
8.592132198684157
 20
9.173265253326356
 30
0.0
 10
8.691546146637334
 20
9.049991957864417
 30
0.0
 10
8.760649924239715
 20
8.901574803149607
 30
0.0
 10
8.829753701842098
 20
8.753157648434797
 30
0.0
 10
8.866141732283465
 20
8.584763195225563
 30
0.0
 10
8.866141732283465
 20
8.413385826771654
 30
0.0
  0
POLYLINE
  5
C8
330
17
100
AcDbEntity
  8
GEOMETRY
100
AcDb2dPolyline
 66
1
 10
0.0
 20
0.0
 30
0.0
 70
0
  0
VERTEX
  5
C9
330
C8
100
AcDbEntity
  8
GEOMETRY
100
AcDbVertex
100
AcDb2dVertex
 10
8.866141732283465
 20
8.413385826771654
 30
0.0
 70
0
  0
VERTEX
  5
CA
330
C8
100
AcDbEntity
  8
GEOMETRY
100
AcDbVertex
100
AcDb2dVertex
 10
8.866141732283465
 20
7.01968503937008
 30
0.0
 70
0
  0
SEQEND
  5
CB
330
C8
100
AcDbEntity
  8
GEOMETRY
  0
SPLINE
  5
CC
330
17
100
AcDbEntity
  8
GEOMETRY
100
AcDbSpline
 70
0
 71
3
 72
14
 73
10
 74
0
 40
0.0
 40
0.0
 40
0.0
 40
0.0
 40
1.0
 40
1.0
 40
1.0
 40
2.0
 40
2.0
 40
2.0
 40
3.0
 40
3.0
 40
3.0
 40
3.0
 10
8.866141732283465
 20
7.01968503937008
 30
0.0
 10
8.866141732283465
 20
6.848307670916171
 30
0.0
 10
8.829753701842098
 20
6.679913217706937
 30
0.0
 10
8.760649924239715
 20
6.531496062992127
 30
0.0
 10
8.691546146637334
 20
6.383078908277316
 30
0.0
 10
8.592132198684157
 20
6.259805612815377
 30
0.0
 10
8.47244094488189
 20
6.174116928588424
 30
0.0
 10
8.352749691079625
 20
6.088428244361469
 30
0.0
 10
8.21694771268508
 20
6.043307086614174
 30
0.0
 10
8.078740157480315
 20
6.043307086614174
 30
0.0
  0
POLYLINE
  5
CD
330
17
100
AcDbEntity
  8
GEOMETRY
100
AcDb2dPolyline
 66
1
 10
0.0
 20
0.0
 30
0.0
 70
0
  0
VERTEX
  5
CE
330
CD
100
AcDbEntity
  8
GEOMETRY
100
AcDbVertex
100
AcDb2dVertex
 10
8.078740157480315
 20
6.043307086614174
 30
0.0
 70
0
  0
VERTEX
  5
CF
330
CD
100
AcDbEntity
  8
GEOMETRY
100
AcDbVertex
100
AcDb2dVertex
 10
8.078740157480315
 20
6.043307086614174
 30
0.0
 70
0
  0
SEQEND
  5
D0
330
CD
100
AcDbEntity
  8
GEOMETRY
  0
SPLINE
  5
D1
330
17
100
AcDbEntity
  8
GEOMETRY
100
AcDbSpline
 70
0
 71
3
 72
14
 73
10
 74
0
 40
0.0
 40
0.0
 40
0.0
 40
0.0
 40
1.0
 40
1.0
 40
1.0
 40
2.0
 40
2.0
 40
2.0
 40
3.0
 40
3.0
 40
3.0
 40
3.0
 10
8.078740157480315
 20
6.043307086614174
 30
0.0
 10
7.9405326022755505
 20
6.043307086614174
 30
0.0
 10
7.804730623881007
 20
6.088428244361468
 30
0.0
 10
7.685039370078741
 20
6.174116928588422
 30
0.0
 10
7.565348116276475
 20
6.259805612815376
 30
0.0
 10
7.465934168323297
 20
6.383078908277316
 30
0.0
 10
7.396830390720916
 20
6.531496062992126
 30
0.0
 10
7.327726613118533
 20
6.679913217706936
 30
0.0
 10
7.291338582677166
 20
6.848307670916171
 30
0.0
 10
7.291338582677166
 20
7.01968503937008
 30
0.0
  0
POLYLINE
  5
D2
330
17
100
AcDbEntity
  8
GEOMETRY
100
AcDb2dPolyline
 66
1
 10
0.0
 20
0.0
 30
0.0
 70
0
  0
VERTEX
  5
D3
330
D2
100
AcDbEntity
  8
GEOMETRY
100
AcDbVertex
100
AcDb2dVertex
 10
7.291338582677166
 20
7.01968503937008
 30
0.0
 70
0
  0
VERTEX
  5
D4
330
D2
100
AcDbEntity
  8
GEOMETRY
100
AcDbVertex
100
AcDb2dVertex
 10
7.291338582677166
 20
8.413385826771654
 30
0.0
 70
0
  0
SEQEND
  5
D5
330
D2
100
AcDbEntity
  8
GEOMETRY
  0
SPLINE
  5
D6
330
17
100
AcDbEntity
  8
GEOMETRY
100
AcDbSpline
 70
0
 71
3
 72
14
 73
10
 74
0
 40
0.0
 40
0.0
 40
0.0
 40
0.0
 40
1.0
 40
1.0
 40
1.0
 40
2.0
 40
2.0
 40
2.0
 40
3.0
 40
3.0
 40
3.0
 40
3.0
 10
7.291338582677166
 20
8.413385826771654
 30
0.0
 10
7.291338582677166
 20
8.584763195225563
 30
0.0
 10
7.327726613118533
 20
8.753157648434797
 30
0.0
 10
7.396830390720916
 20
8.901574803149607
 30
0.0
 10
7.465934168323297
 20
9.049991957864417
 30
0.0
 10
7.565348116276475
 20
9.173265253326356
 30
0.0
 10
7.685039370078741
 20
9.258953937553311
 30
0.0
 10
7.804730623881007
 20
9.344642621780265
 30
0.0
 10
7.9405326022755505
 20
9.38976377952756
 30
0.0
 10
8.078740157480315
 20
9.38976377952756
 30
0.0
  0
POLYLINE
  5
D7
330
17
100
AcDbEntity
  8
GEOMETRY
100
AcDb2dPolyline
 66
1
 10
0.0
 20
0.0
 30
0.0
 70
0
  0
VERTEX
  5
D8
330
D7
100
AcDbEntity
  8
GEOMETRY
100
AcDbVertex
100
AcDb2dVertex
 10
8.078740157480315
 20
9.271653543307087
 30
0.0
 70
0
  0
VERTEX
  5
D9
330
D7
100
AcDbEntity
  8
GEOMETRY
100
AcDbVertex
100
AcDb2dVertex
 10
8.078740157480315
 20
9.271653543307087
 30
0.0
 70
0
  0
SEQEND
  5
DA
330
D7
100
AcDbEntity
  8
GEOMETRY
  0
SPLINE
  5
DB
330
17
100
AcDbEntity
  8
GEOMETRY
100
AcDbSpline
 70
0
 71
3
 72
14
 73
10
 74
0
 40
0.0
 40
0.0
 40
0.0
 40
0.0
 40
1.0
 40
1.0
 40
1.0
 40
2.0
 40
2.0
 40
2.0
 40
3.0
 40
3.0
 40
3.0
 40
3.0
 10
8.078740157480315
 20
9.271653543307087
 30
0.0
 10
8.196216579404366
 20
9.271653543307087
 30
0.0
 10
8.311648261039728
 20
9.231990590125998
 30
0.0
 10
8.413385826771654
 20
9.1566674725394
 30
0.0
 10
8.51512339250358
 20
9.081344354952805
 30
0.0
 10
8.59962524826378
 20
8.972983151683842
 30
0.0
 10
8.658363459225805
 20
8.84251968503937
 30
0.0
 10
8.71710167018783
 20
8.7120562183949
 30
0.0
 10
8.748031496062993
 20
8.564032061944848
 30
0.0
 10
8.748031496062993
 20
8.413385826771654
 30
0.0
  0
POLYLINE
  5
DC
330
17
100
AcDbEntity
  8
GEOMETRY
100
AcDb2dPolyline
 66
1
 10
0.0
 20
0.0
 30
0.0
 70
0
  0
VERTEX
  5
DD
330
DC
100
AcDbEntity
  8
GEOMETRY
100
AcDbVertex
100
AcDb2dVertex
 10
8.748031496062993
 20
8.413385826771654
 30
0.0
 70
0
  0
VERTEX
  5
DE
330
DC
100
AcDbEntity
  8
GEOMETRY
100
AcDbVertex
100
AcDb2dVertex
 10
8.748031496062993
 20
7.01968503937008
 30
0.0
 70
0
  0
SEQEND
  5
DF
330
DC
100
AcDbEntity
  8
GEOMETRY
  0
SPLINE
  5
E0
330
17
100
AcDbEntity
  8
GEOMETRY
100
AcDbSpline
 70
0
 71
3
 72
14
 73
10
 74
0
 40
0.0
 40
0.0
 40
0.0
 40
0.0
 40
1.0
 40
1.0
 40
1.0
 40
2.0
 40
2.0
 40
2.0
 40
3.0
 40
3.0
 40
3.0
 40
3.0
 10
8.748031496062993
 20
7.01968503937008
 30
0.0
 10
8.748031496062993
 20
6.869038804196886
 30
0.0
 10
8.71710167018783
 20
6.721014647746833
 30
0.0
 10
8.658363459225805
 20
6.590551181102363
 30
0.0
 10
8.59962524826378
 20
6.460087714457893
 30
0.0
 10
8.51512339250358
 20
6.3517265111889305
 30
0.0
 10
8.413385826771654
 20
6.276403393602333
 30
0.0
 10
8.311648261039728
 20
6.201080276015737
 30
0.0
 10
8.196216579404366
 20
6.161417322834646
 30
0.0
 10
8.078740157480315
 20
6.161417322834646
 30
0.0
  0
POLYLINE
  5
E1
330
17
100
AcDbEntity
  8
GEOMETRY
100
AcDb2dPolyline
 66
1
 10
0.0
 20
0.0
 30
0.0
 70
0
  0
VERTEX
  5
E2
330
E1
100
AcDbEntity
  8
GEOMETRY
100
AcDbVertex
100
AcDb2dVertex
 10
8.078740157480315
 20
6.161417322834646
 30
0.0
 70
0
  0
VERTEX
  5
E3
330
E1
100
AcDbEntity
  8
GEOMETRY
100
AcDbVertex
100
AcDb2dVertex
 10
8.078740157480315
 20
6.161417322834646
 30
0.0
 70
0
  0
SEQEND
  5
E4
330
E1
100
AcDbEntity
  8
GEOMETRY
  0
SPLINE
  5
E5
330
17
100
AcDbEntity
  8
GEOMETRY
100
AcDbSpline
 70
0
 71
3
 72
14
 73
10
 74
0
 40
0.0
 40
0.0
 40
0.0
 40
0.0
 40
1.0
 40
1.0
 40
1.0
 40
2.0
 40
2.0
 40
2.0
 40
3.0
 40
3.0
 40
3.0
 40
3.0
 10
8.078740157480315
 20
6.161417322834646
 30
0.0
 10
7.961263735556265
 20
6.161417322834646
 30
0.0
 10
7.845832053920903
 20
6.201080276015735
 30
0.0
 10
7.744094488188977
 20
6.276403393602332
 30
0.0
 10
7.642356922457051
 20
6.35172651118893
 30
0.0
 10
7.557855066696851
 20
6.460087714457892
 30
0.0
 10
7.499116855734825
 20
6.590551181102362
 30
0.0
 10
7.4403786447728
 20
6.721014647746832
 30
0.0
 10
7.409448818897638
 20
6.869038804196886
 30
0.0
 10
7.409448818897638
 20
7.01968503937008
 30
0.0
  0
POLYLINE
  5
E6
330
17
100
AcDbEntity
  8
GEOMETRY
100
AcDb2dPolyline
 66
1
 10
0.0
 20
0.0
 30
0.0
 70
0
  0
VERTEX
  5
E7
330
E6
100
AcDbEntity
  8
GEOMETRY
100
AcDbVertex
100
AcDb2dVertex
 10
7.409448818897638
 20
7.01968503937008
 30
0.0
 70
0
  0
VERTEX
  5
E8
330
E6
100
AcDbEntity
  8
GEOMETRY
100
AcDbVertex
100
AcDb2dVertex
 10
7.409448818897638
 20
8.413385826771654
 30
0.0
 70
0
  0
SEQEND
  5
E9
330
E6
100
AcDbEntity
  8
GEOMETRY
  0
SPLINE
  5
EA
330
17
100
AcDbEntity
  8
GEOMETRY
100
AcDbSpline
 70
0
 71
3
 72
14
 73
10
 74
0
 40
0.0
 40
0.0
 40
0.0
 40
0.0
 40
1.0
 40
1.0
 40
1.0
 40
2.0
 40
2.0
 40
2.0
 40
3.0
 40
3.0
 40
3.0
 40
3.0
 10
7.409448818897638
 20
8.413385826771654
 30
0.0
 10
7.409448818897638
 20
8.564032061944848
 30
0.0
 10
7.4403786447728
 20
8.712056218394899
 30
0.0
 10
7.499116855734825
 20
8.84251968503937
 30
0.0
 10
7.557855066696851
 20
8.972983151683842
 30
0.0
 10
7.642356922457051
 20
9.081344354952805
 30
0.0
 10
7.744094488188977
 20
9.1566674725394
 30
0.0
 10
7.845832053920903
 20
9.231990590125998
 30
0.0
 10
7.961263735556265
 20
9.271653543307087
 30
0.0
 10
8.078740157480315
 20
9.271653543307087
 30
0.0
  0
CIRCLE
  5
EB
330
17
100
AcDbEntity
  8
GEOMETRY
100
AcDbCircle
 10
8.078740157480315
 20
6.55511811023622
 30
0.0
 40
0.05511811023622048
  0
CIRCLE
  5
EC
330
17
100
AcDbEntity
  8
GEOMETRY
100
AcDbCircle
 10
8.078740157480315
 20
9.606299212598426
 30
0.0
 40
0.0688976377952756
  0
LWPOLYLINE
  5
ED
330
17
100
AcDbEntity
  8
GEOMETRY
100
AcDbPolyline
 90
2
 70
0
 10
8.078740157480315
 20
9.606299212598426
 10
8.078740157480315
 20
9.23228346456693
  0
LWPOLYLINE
  5
EE
330
17
100
AcDbEntity
  8
GEOMETRY
100
AcDbPolyline
 90
5
 70
0
 10
3.653543307086615
 20
5.73228346456693
 10
3.9547244094488194
 20
5.73228346456693
 10
3.9547244094488194
 20
4.531496062992127
 10
3.653543307086615
 20
4.531496062992127
 10
3.653543307086615
 20
5.73228346456693
  0
LWPOLYLINE
  5
EF
330
17
100
AcDbEntity
  8
GEOMETRY
100
AcDbPolyline
 90
5
 70
0
 10
5.753937007874016
 20
5.73228346456693
 10
6.653543307086614
 20
5.73228346456693
 10
6.653543307086614
 20
4.531496062992127
 10
5.753937007874016
 20
4.531496062992127
 10
5.753937007874016
 20
5.73228346456693
  0
LWPOLYLINE
  5
F0
330
17
100
AcDbEntity
  8
GEOMETRY
100
AcDbPolyline
 90
5
 70
0
 10
3.954724409448819
 20
5.771653543307087
 10
5.753937007874016
 20
5.771653543307087
 10
5.753937007874016
 20
4.531496062992127
 10
3.954724409448819
 20
4.531496062992127
 10
3.954724409448819
 20
5.771653543307087
  0
CIRCLE
  5
F1
330
17
100
AcDbEntity
  8
GEOMETRY
100
AcDbCircle
 10
4.854330708661418
 20
5.161417322834645
 30
0.0
 40
0.39960629921259844
  0
CIRCLE
  5
F2
330
17
100
AcDbEntity
  8
GEOMETRY
100
AcDbCircle
 10
4.854330708661418
 20
5.161417322834645
 30
0.0
 40
0.049212598425196846
  0
LWPOLYLINE
  5
F3
330
17
100
AcDbEntity
  8
GEOMETRY
  6
DASHED
100
AcDbPolyline
 90
5
 70
0
 10
3.653543307086615
 20
5.8700787401574805
 10
6.653543307086614
 20
5.8700787401574805
 10
6.653543307086614
 20
5.850393700787402
 10
3.653543307086615
 20
5.850393700787402
 10
3.653543307086615
 20
5.8700787401574805
  0
LINE
  5
F4
330
17
100
AcDbEntity
  8
DIMENSIONS
100
AcDbLine
 10
1.594488188976378
 20
10.492125984251969
 30
0.0
 11
9.062992125984252
 21
10.492125984251969
 31
0.0
  0
LINE
  5
F5
330
17
100
AcDbEntity
  8
DIMENSIONS
100
AcDbLine
 10
1.6535433070866141
 20
10.354330708661417
 30
0.0
 11
1.6535433070866141
 21
10.44488188976378
 31
0.0
  0
LINE
  5
F6
330
17
100
AcDbEntity
  8
DIMENSIONS
100
AcDbLine
 10
1.6141732283464567
 20
10.452755905511811
 30
0.0
 11
1.6929133858267715
 21
10.531496062992126
 31
0.0
  0
LINE
  5
F7
330
17
100
AcDbEntity
  8
DIMENSIONS
100
AcDbLine
 10
2.0039370078740157
 20
10.354330708661417
 30
0.0
 11
2.0039370078740157
 21
10.44488188976378
 31
0.0
  0
LINE
  5
F8
330
17
100
AcDbEntity
  8
DIMENSIONS
100
AcDbLine
 10
1.964566929133858
 20
10.452755905511811
 30
0.0
 11
2.043307086614173
 21
10.531496062992126
 31
0.0
  0
LINE
  5
F9
330
17
100
AcDbEntity
  8
DIMENSIONS
100
AcDbLine
 10
4.403543307086614
 20
10.354330708661417
 30
0.0
 11
4.403543307086614
 21
10.44488188976378
 31
0.0
  0
LINE
  5
FA
330
17
100
AcDbEntity
  8
DIMENSIONS
100
AcDbLine
 10
4.3641732283464565
 20
10.452755905511811
 30
0.0
 11
4.442913385826771
 21
10.531496062992126
 31
0.0
  0
LINE
  5
FB
330
17
100
AcDbEntity
  8
DIMENSIONS
100
AcDbLine
 10
6.803149606299213
 20
10.354330708661417
 30
0.0
 11
6.803149606299213
 21
10.44488188976378
 31
0.0
  0
LINE
  5
FC
330
17
100
AcDbEntity
  8
DIMENSIONS
100
AcDbLine
 10
6.7637795275590555
 20
10.452755905511811
 30
0.0
 11
6.84251968503937
 21
10.531496062992126
 31
0.0
  0
LINE
  5
FD
330
17
100
AcDbEntity
  8
DIMENSIONS
100
AcDbLine
 10
9.003937007874015
 20
10.354330708661417
 30
0.0
 11
9.003937007874015
 21
10.44488188976378
 31
0.0
  0
LINE
  5
FE
330
17
100
AcDbEntity
  8
DIMENSIONS
100
AcDbLine
 10
8.964566929133857
 20
10.452755905511811
 30
0.0
 11
9.043307086614172
 21
10.531496062992126
 31
0.0
  0
TEXT
  5
FF
330
17
100
AcDbEntity
  8
TEXT
100
AcDbText
 10
1.828740157480315
 20
10.523622047244094
 30
0.0
 40
0.035433070866141725
  1
7"
 72
1
 11
1.828740157480315
 21
10.523622047244094
 31
0.0
100
AcDbText
  0
TEXT
  5
100
330
17
100
AcDbEntity
  8
TEXT
100
AcDbText
 10
3.2039370078740155
 20
10.523622047244094
 30
0.0
 40
0.035433070866141725
  1
4'-0" WC
 72
1
 11
3.2039370078740155
 21
10.523622047244094
 31
0.0
100
AcDbText
  0
TEXT
  5
101
330
17
100
AcDbEntity
  8
TEXT
100
AcDbText
 10
5.603149606299212
 20
10.523622047244094
 30
0.0
 40
0.035433070866141725
  1
4'-0" SHOWER
 72
1
 11
5.603149606299212
 21
10.523622047244094
 31
0.0
100
AcDbText
  0
TEXT
  5
102
330
17
100
AcDbEntity
  8
TEXT
100
AcDbText
 10
7.903543307086614
 20
10.523622047244094
 30
0.0
 40
0.035433070866141725
  1
3'-8"
 72
1
 11
7.903543307086614
 21
10.523622047244094
 31
0.0
100
AcDbText
  0
LINE
  5
103
330
17
100
AcDbEntity
  8
DIMENSIONS
100
AcDbLine
 10
1.0433070866141732
 20
9.940944881889763
 30
0.0
 11
1.0433070866141732
 21
4.47244094488189
 31
0.0
  0
LINE
  5
104
330
17
100
AcDbEntity
  8
DIMENSIONS
100
AcDbLine
 10
1.1811023622047243
 20
9.881889763779528
 30
0.0
 11
1.0905511811023623
 21
9.881889763779528
 31
0.0
  0
LINE
  5
105
330
17
100
AcDbEntity
  8
DIMENSIONS
100
AcDbLine
 10
1.0039370078740157
 20
9.84251968503937
 30
0.0
 11
1.0826771653543308
 21
9.921259842519685
 31
0.0
  0
LINE
  5
106
330
17
100
AcDbEntity
  8
DIMENSIONS
100
AcDbLine
 10
1.1811023622047243
 20
7.832677165354331
 30
0.0
 11
1.0905511811023623
 21
7.832677165354331
 31
0.0
  0
LINE
  5
107
330
17
100
AcDbEntity
  8
DIMENSIONS
100
AcDbLine
 10
1.0039370078740157
 20
7.793307086614172
 30
0.0
 11
1.0826771653543308
 21
7.872047244094488
 31
0.0
  0
LINE
  5
108
330
17
100
AcDbEntity
  8
DIMENSIONS
100
AcDbLine
 10
1.1811023622047243
 20
5.771653543307086
 30
0.0
 11
1.0905511811023623
 21
5.771653543307086
 31
0.0
  0
LINE
  5
109
330
17
100
AcDbEntity
  8
DIMENSIONS
100
AcDbLine
 10
1.0039370078740157
 20
5.732283464566929
 30
0.0
 11
1.0826771653543308
 21
5.8110236220472435
 31
0.0
  0
LINE
  5
10A
330
17
100
AcDbEntity
  8
DIMENSIONS
100
AcDbLine
 10
1.1811023622047243
 20
4.531496062992126
 30
0.0
 11
1.0905511811023623
 21
4.531496062992126
 31
0.0
  0
LINE
  5
10B
330
17
100
AcDbEntity
  8
DIMENSIONS
100
AcDbLine
 10
1.0039370078740157
 20
4.4921259842519685
 30
0.0
 11
1.0826771653543308
 21
4.570866141732283
 31
0.0
  0
TEXT
  5
10C
330
17
100
AcDbEntity
  8
TEXT
100
AcDbText
 10
1.0118110236220474
 20
8.857086614173229
 30
0.0
 40
0.03401574803149606
  1
3'-5"
 50
90.0
 72
1
 11
1.0118110236220474
 21
8.857086614173229
 31
0.0
100
AcDbText
  0
TEXT
  5
10D
330
17
100
AcDbEntity
  8
TEXT
100
AcDbText
 10
1.0118110236220474
 20
6.8023622047244094
 30
0.0
 40
0.03401574803149606
  1
3'-5¼" CLEAR
 50
90.0
 72
1
 11
1.0118110236220474
 21
6.8023622047244094
 31
0.0
100
AcDbText
  0
TEXT
  5
10E
330
17
100
AcDbEntity
  8
TEXT
100
AcDbText
 10
1.0118110236220468
 20
5.151574803149606
 30
0.0
 40
0.03401574803149606
  1
2'-¾"
 50
90.0
 72
1
 11
1.0118110236220468
 21
5.151574803149606
 31
0.0
100
AcDbText
  0
LINE
  5
10F
330
17
100
AcDbEntity
  8
DIMENSIONS
100
AcDbLine
 10
9.614173228346456
 20
9.940944881889763
 30
0.0
 11
9.614173228346456
 21
4.47244094488189
 31
0.0
  0
LINE
  5
110
330
17
100
AcDbEntity
  8
DIMENSIONS
100
AcDbLine
 10
9.476377952755906
 20
9.881889763779528
 30
0.0
 11
9.661417322834646
 21
9.881889763779528
 31
0.0
  0
LINE
  5
111
330
17
100
AcDbEntity
  8
DIMENSIONS
100
AcDbLine
 10
9.574803149606298
 20
9.84251968503937
 30
0.0
 11
9.653543307086613
 21
9.921259842519685
 31
0.0
  0
LINE
  5
112
330
17
100
AcDbEntity
  8
DIMENSIONS
100
AcDbLine
 10
9.476377952755906
 20
9.38976377952756
 30
0.0
 11
9.661417322834646
 21
9.38976377952756
 31
0.0
  0
LINE
  5
113
330
17
100
AcDbEntity
  8
DIMENSIONS
100
AcDbLine
 10
9.574803149606298
 20
9.350393700787402
 30
0.0
 11
9.653543307086613
 21
9.429133858267717
 31
0.0
  0
LINE
  5
114
330
17
100
AcDbEntity
  8
DIMENSIONS
100
AcDbLine
 10
9.476377952755906
 20
6.043307086614173
 30
0.0
 11
9.661417322834646
 21
6.043307086614173
 31
0.0
  0
LINE
  5
115
330
17
100
AcDbEntity
  8
DIMENSIONS
100
AcDbLine
 10
9.574803149606298
 20
6.003937007874016
 30
0.0
 11
9.653543307086613
 21
6.082677165354331
 31
0.0
  0
LINE
  5
116
330
17
100
AcDbEntity
  8
DIMENSIONS
100
AcDbLine
 10
9.476377952755906
 20
4.531496062992126
 30
0.0
 11
9.661417322834646
 21
4.531496062992126
 31
0.0
  0
LINE
  5
117
330
17
100
AcDbEntity
  8
DIMENSIONS
100
AcDbLine
 10
9.574803149606298
 20
4.4921259842519685
 30
0.0
 11
9.653543307086613
 21
4.570866141732283
 31
0.0
  0
TEXT
  5
118
330
17
100
AcDbEntity
  8
TEXT
100
AcDbText
 10
9.58267716535433
 20
9.635826771653544
 30
0.0
 40
0.03401574803149606
  1
9⅞"
 50
90.0
 72
1
 11
9.58267716535433
 21
9.635826771653544
 31
0.0
100
AcDbText
  0
TEXT
  5
119
330
17
100
AcDbEntity
  8
TEXT
100
AcDbText
 10
9.58267716535433
 20
7.7165354330708675
 30
0.0
 40
0.03401574803149606
  1
5'-6⅞" TUB
 50
90.0
 72
1
 11
9.58267716535433
 21
7.7165354330708675
 31
0.0
100
AcDbText
  0
TEXT
  5
11A
330
17
100
AcDbEntity
  8
TEXT
100
AcDbText
 10
9.582677165354331
 20
5.287401574803149
 30
0.0
 40
0.03401574803149606
  1
2'-6¼"
 50
90.0
 72
1
 11
9.582677165354331
 21
5.287401574803149
 31
0.0
100
AcDbText
  0
LINE
  5
11B
330
17
100
AcDbEntity
  8
DIMENSIONS
100
AcDbLine
 10
7.094488188976378
 20
5.846456692913386
 30
0.0
 11
9.062992125984252
 21
5.846456692913386
 31
0.0
  0
LINE
  5
11C
330
17
100
AcDbEntity
  8
DIMENSIONS
100
AcDbLine
 10
7.153543307086614
 20
6.279527559055118
 30
0.0
 11
7.153543307086614
 21
5.799212598425197
 31
0.0
  0
LINE
  5
11D
330
17
100
AcDbEntity
  8
DIMENSIONS
100
AcDbLine
 10
7.1141732283464565
 20
5.807086614173229
 30
0.0
 11
7.192913385826771
 21
5.8858267716535435
 31
0.0
  0
LINE
  5
11E
330
17
100
AcDbEntity
  8
DIMENSIONS
100
AcDbLine
 10
7.291338582677165
 20
6.279527559055118
 30
0.0
 11
7.291338582677165
 21
5.799212598425197
 31
0.0
  0
LINE
  5
11F
330
17
100
AcDbEntity
  8
DIMENSIONS
100
AcDbLine
 10
7.251968503937007
 20
5.807086614173229
 30
0.0
 11
7.330708661417322
 21
5.8858267716535435
 31
0.0
  0
LINE
  5
120
330
17
100
AcDbEntity
  8
DIMENSIONS
100
AcDbLine
 10
8.866141732283465
 20
6.279527559055118
 30
0.0
 11
8.866141732283465
 21
5.799212598425197
 31
0.0
  0
LINE
  5
121
330
17
100
AcDbEntity
  8
DIMENSIONS
100
AcDbLine
 10
8.826771653543307
 20
5.807086614173229
 30
0.0
 11
8.905511811023622
 21
5.8858267716535435
 31
0.0
  0
LINE
  5
122
330
17
100
AcDbEntity
  8
DIMENSIONS
100
AcDbLine
 10
9.003937007874015
 20
6.279527559055118
 30
0.0
 11
9.003937007874015
 21
5.799212598425197
 31
0.0
  0
LINE
  5
123
330
17
100
AcDbEntity
  8
DIMENSIONS
100
AcDbLine
 10
8.964566929133857
 20
5.807086614173229
 30
0.0
 11
9.043307086614172
 21
5.8858267716535435
 31
0.0
  0
TEXT
  5
124
330
17
100
AcDbEntity
  8
TEXT
100
AcDbText
 10
8.078740157480315
 20
5.877952755905512
 30
0.0
 40
0.03259842519685039
  1
2'-7½"
 72
1
 11
8.078740157480315
 21
5.877952755905512
 31
0.0
100
AcDbText
  0
TEXT
  5
125
330
17
100
AcDbEntity
  8
TEXT
100
AcDbText
 10
2.515748031496063
 20
8.266535433070866
 30
0.0
 40
0.06236220472440989
  1
WC
 72
1
 11
2.515748031496063
 21
8.266535433070866
 31
0.0
100
AcDbText
  0
TEXT
  5
126
330
17
100
AcDbEntity
  8
TEXT
100
AcDbText
 10
5.603149606299212
 20
8.404330708661417
 30
0.0
 40
0.062362204724409454
  1
SHOWER
 72
1
 11
5.603149606299212
 21
8.404330708661417
 31
0.0
100
AcDbText
  0
TEXT
  5
127
330
17
100
AcDbEntity
  8
TEXT
100
AcDbText
 10
8.078740157480315
 20
7.637795275590551
 30
0.0
 40
0.062362204724409454
  1
TUB
 72
1
 11
8.078740157480315
 21
7.637795275590551
 31
0.0
100
AcDbText
  0
TEXT
  5
128
330
17
100
AcDbEntity
  8
TEXT
100
AcDbText
 10
4.21259842519685
 20
6.811023622047244
 30
0.0
 40
0.07370078740157479
  1
BATHROOM
 72
1
 11
4.21259842519685
 21
6.811023622047244
 31
0.0
100
AcDbText
  0
LINE
  5
129
330
17
100
AcDbEntity
  8
GEOMETRY
100
AcDbLine
 10
1.828740157480315
 20
7.968503937007874
 30
0.0
 11
1.279527559055118
 21
7.2795275590551185
 31
0.0
  0
TEXT
  5
12A
330
17
100
AcDbEntity
  8
TEXT
100
AcDbText
 10
1.3188976377952755
 20
7.271653543307086
 30
0.0
 40
0.048188976377952754
  1
THE 7 IN WC WALL
 11
1.3188976377952755
 21
7.271653543307086
 31
0.0
100
AcDbText
  0
TEXT
  5
12B
330
17
100
AcDbEntity
  8
TEXT
100
AcDbText
 10
1.3188976377952755
 20
7.181102362204725
 30
0.0
 40
0.04110236220472441
  1
CISTERN AND FRAME INSIDE IT
 11
1.3188976377952755
 21
7.181102362204725
 31
0.0
100
AcDbText
  0
LINE
  5
12C
330
17
100
AcDbEntity
  8
GEOMETRY
100
AcDbLine
 10
2.2401574803149606
 20
9.093307086614173
 30
0.0
 11
2.7559055118110236
 21
9.98031496062992
 31
0.0
  0
TEXT
  5
12D
330
17
100
AcDbEntity
  8
TEXT
100
AcDbText
 10
2.795275590551181
 20
9.97244094488189
 30
0.0
 40
0.048188976377952754
  1
WALL-HUNG WC
 11
2.795275590551181
 21
9.97244094488189
 31
0.0
100
AcDbText
  0
TEXT
  5
12E
330
17
100
AcDbEntity
  8
TEXT
100
AcDbText
 10
2.795275590551181
 20
9.881889763779528
 30
0.0
 40
0.04110236220472441
  1
FACING THE SHOWER
 11
2.795275590551181
 21
9.881889763779528
 31
0.0
100
AcDbText
  0
LINE
  5
12F
330
17
100
AcDbEntity
  8
GEOMETRY
100
AcDbLine
 10
4.403543307086614
 20
9.38976377952756
 30
0.0
 11
4.1141732283464565
 21
9.98031496062992
 31
0.0
  0
TEXT
  5
130
330
17
100
AcDbEntity
  8
TEXT
100
AcDbText
 10
4.153543307086614
 20
9.97244094488189
 30
0.0
 40
0.048188976377952754
  1
GLASS BETWEEN
 11
4.153543307086614
 21
9.97244094488189
 31
0.0
100
AcDbText
  0
LINE
  5
131
330
17
100
AcDbEntity
  8
GEOMETRY
100
AcDbLine
 10
5.996850393700787
 20
9.68503937007874
 30
0.0
 11
5.8858267716535435
 21
9.98031496062992
 31
0.0
  0
TEXT
  5
132
330
17
100
AcDbEntity
  8
TEXT
100
AcDbText
 10
5.925196850393701
 20
9.97244094488189
 30
0.0
 40
0.048188976377952754
  1
LINEAR DRAIN
 11
5.925196850393701
 21
9.97244094488189
 31
0.0
100
AcDbText
  0
TEXT
  5
133
330
17
100
AcDbEntity
  8
TEXT
100
AcDbText
 10
5.925196850393701
 20
9.881889763779528
 30
0.0
 40
0.04110236220472441
  1
LEVEL FLOOR, NO TRAY
 11
5.925196850393701
 21
9.881889763779528
 31
0.0
100
AcDbText
  0
LINE
  5
134
330
17
100
AcDbEntity
  8
GEOMETRY
100
AcDbLine
 10
4.155511811023622
 20
7.822834645669291
 30
0.0
 11
2.7559055118110236
 21
6.90748031496063
 31
0.0
  0
TEXT
  5
135
330
17
100
AcDbEntity
  8
TEXT
100
AcDbText
 10
2.795275590551181
 20
6.899606299212598
 30
0.0
 40
0.048188976377952754
  1
GLASS FRONTS IN ONE LINE
 11
2.795275590551181
 21
6.899606299212598
 31
0.0
100
AcDbText
  0
TEXT
  5
136
330
17
100
AcDbEntity
  8
TEXT
100
AcDbText
 10
2.795275590551181
 20
6.809055118110236
 30
0.0
 40
0.04110236220472441
  1
DOORS OPEN OUT
 11
2.795275590551181
 21
6.809055118110236
 31
0.0
100
AcDbText
  0
LINE
  5
137
330
17
100
AcDbEntity
  8
GEOMETRY
100
AcDbLine
 10
8.078740157480315
 20
9.606299212598426
 30
0.0
 11
7.854330708661418
 21
9.98031496062992
 31
0.0
  0
TEXT
  5
138
330
17
100
AcDbEntity
  8
TEXT
100
AcDbText
 10
7.893700787401575
 20
9.97244094488189
 30
0.0
 40
0.048188976377952754
  1
TUB FILLER
 11
7.893700787401575
 21
9.97244094488189
 31
0.0
100
AcDbText
  0
TEXT
  5
139
330
17
100
AcDbEntity
  8
TEXT
100
AcDbText
 10
7.893700787401575
 20
9.881889763779528
 30
0.0
 40
0.04110236220472441
  1
FLOOR-STANDING
 11
7.893700787401575
 21
9.881889763779528
 31
0.0
100
AcDbText
  0
LINE
  5
13A
330
17
100
AcDbEntity
  8
GEOMETRY
100
AcDbLine
 10
4.21259842519685
 20
5.161417322834645
 30
0.0
 11
3.720472440944882
 21
6.043307086614173
 31
0.0
  0
TEXT
  5
13B
330
17
100
AcDbEntity
  8
TEXT
100
AcDbText
 10
3.6811023622047245
 20
6.035433070866142
 30
0.0
 40
0.048188976377952754
  1
VANITY — SCHEME C
 72
2
 11
3.6811023622047245
 21
6.035433070866142
 31
0.0
100
AcDbText
  0
TEXT
  5
13C
330
17
100
AcDbEntity
  8
TEXT
100
AcDbText
 10
3.6811023622047245
 20
5.94488188976378
 30
0.0
 40
0.04110236220472441
  1
AST-DR-021, AS DRAWN
 72
2
 11
3.6811023622047245
 21
5.94488188976378
 31
0.0
100
AcDbText
  0
LINE
  5
13D
330
17
100
AcDbEntity
  8
GEOMETRY
100
AcDbLine
 10
6.903543307086614
 20
5.122047244094488
 30
0.0
 11
7.362204724409449
 21
5.059055118110236
 31
0.0
  0
TEXT
  5
13E
330
17
100
AcDbEntity
  8
TEXT
100
AcDbText
 10
7.4015748031496065
 20
5.0511811023622055
 30
0.0
 40
0.048188976377952754
  1
PIER, 10 IN
 11
7.4015748031496065
 21
5.0511811023622055
 31
0.0
100
AcDbText
  0
LINE
  5
13F
330
17
100
AcDbEntity
  8
GEOMETRY
100
AcDbLine
 10
8.070866141732283
 20
5.15748031496063
 30
0.0
 11
7.854330708661418
 21
4.724409448818897
 31
0.0
  0
TEXT
  5
140
330
17
100
AcDbEntity
  8
TEXT
100
AcDbText
 10
7.81496062992126
 20
4.716535433070867
 30
0.0
 40
0.048188976377952754
  1
? — SEE QUESTIONS
 72
2
 11
7.81496062992126
 21
4.716535433070867
 31
0.0
100
AcDbText
  0
LWPOLYLINE
  5
141
330
17
100
AcDbEntity
  8
GEOMETRY
100
AcDbPolyline
 90
2
 70
0
 10
1.0433070866141732
 20
7.616141732283466
 10
1.279527559055118
 20
7.616141732283466
  0
LWPOLYLINE
  5
142
330
17
100
AcDbEntity
  8
GEOMETRY
100
AcDbPolyline
 90
3
 70
0
 10
1.1614173228346456
 20
7.616141732283466
 10
1.1614173228346456
 20
7.734251968503938
 10
1.1220472440944882
 20
7.687007874015749
  0
LWPOLYLINE
  5
143
330
17
100
AcDbEntity
  8
GEOMETRY
100
AcDbPolyline
 90
2
 70
0
 10
1.1614173228346456
 20
7.734251968503938
 10
1.2007874015748032
 20
7.687007874015749
  0
TEXT
  5
144
330
17
100
AcDbEntity
  8
TEXT
100
AcDbText
 10
1.3188976377952755
 20
7.5767716535433065
 30
0.0
 40
0.07370078740157479
  1
B
 11
1.3188976377952755
 21
7.5767716535433065
 31
0.0
100
AcDbText
  0
LWPOLYLINE
  5
145
330
17
100
AcDbEntity
  8
GEOMETRY
100
AcDbPolyline
 90
2
 70
0
 10
9.377952755905511
 20
7.616141732283466
 10
9.614173228346456
 20
7.616141732283466
  0
LWPOLYLINE
  5
146
330
17
100
AcDbEntity
  8
GEOMETRY
100
AcDbPolyline
 90
3
 70
0
 10
9.496062992125983
 20
7.616141732283466
 10
9.496062992125983
 20
7.734251968503938
 10
9.456692913385826
 20
7.687007874015749
  0
LWPOLYLINE
  5
147
330
17
100
AcDbEntity
  8
GEOMETRY
100
AcDbPolyline
 90
2
 70
0
 10
9.496062992125983
 20
7.734251968503938
 10
9.53543307086614
 20
7.687007874015749
  0
TEXT
  5
148
330
17
100
AcDbEntity
  8
TEXT
100
AcDbText
 10
9.653543307086613
 20
7.5767716535433065
 30
0.0
 40
0.07370078740157479
  1
B
 11
9.653543307086613
 21
7.5767716535433065
 31
0.0
100
AcDbText
  0
TEXT
  5
149
330
17
100
AcDbEntity
  8
TEXT
100
AcDbText
 10
10.15748031496063
 20
11.023622047244094
 30
0.0
 40
0.09070866141732283
  1
SECTION B–B
 11
10.15748031496063
 21
11.023622047244094
 31
0.0
100
AcDbText
  0
LINE
  5
14A
330
17
100
AcDbEntity
  8
GEOMETRY
100
AcDbLine
 10
10.15748031496063
 20
10.964566929133857
 30
0.0
 11
16.062992125984252
 21
10.964566929133857
 31
0.0
  0
TEXT
  5
14B
330
17
100
AcDbEntity
  8
TEXT
100
AcDbText
 10
10.15748031496063
 20
10.834645669291337
 30
0.0
 40
0.048188976377952754
  1
JUST IN FRONT OF THE GLASS, LOOKING AT THE WINDOW WALL · SCALE 1:30
 11
10.15748031496063
 21
10.834645669291337
 31
0.0
100
AcDbText
  0
HATCH
  5
14C
330
17
100
AcDbEntity
  8
HATCH
 62
7
100
AcDbHatch
 10
0.0
 20
0.0
 30
0.0
210
0.0
220
0.0
230
1.0
  2
ANSI31
 70
0
 71
0
 91
1
 92
3
 72
0
 73
1
 93
5
 10
10.32808398950131
 20
10.248031496062993
 10
10.62992125984252
 20
10.248031496062993
 10
10.62992125984252
 20
6.2204724409448815
 10
10.32808398950131
 20
6.2204724409448815
 10
10.32808398950131
 20
10.248031496062993
 97
0
 75
1
 76
1
 52
0.0
 41
0.015748031496062992
 77
0
 78
1
 53
45.0
 43
0.0
 44
0.0
 45
-0.0013919425
 46
0.0013919425
 79
0
 98
0
  0
HATCH
  5
14D
330
17
100
AcDbEntity
  8
HATCH
 62
7
100
AcDbHatch
 10
0.0
 20
0.0
 30
0.0
210
0.0
220
0.0
230
1.0
  2
ANSI31
 70
0
 71
0
 91
1
 92
3
 72
0
 73
1
 93
5
 10
15.530183727034121
 20
10.248031496062993
 10
15.832020997375329
 20
10.248031496062993
 10
15.832020997375329
 20
6.2204724409448815
 10
15.530183727034121
 20
6.2204724409448815
 10
15.530183727034121
 20
10.248031496062993
 97
0
 75
1
 76
1
 52
0.0
 41
0.015748031496062992
 77
0
 78
1
 53
45.0
 43
0.0
 44
0.0
 45
-0.0013919425
 46
0.0013919425
 79
0
 98
0
  0
HATCH
  5
14E
330
17
100
AcDbEntity
  8
HATCH
 62
7
100
AcDbHatch
 10
0.0
 20
0.0
 30
0.0
210
0.0
220
0.0
230
1.0
  2
ANSI31
 70
0
 71
0
 91
1
 92
3
 72
0
 73
1
 93
5
 10
10.32808398950131
 20
6.417322834645669
 10
15.832020997375327
 20
6.417322834645669
 10
15.832020997375327
 20
6.2204724409448815
 10
10.32808398950131
 20
6.2204724409448815
 10
10.32808398950131
 20
6.417322834645669
 97
0
 75
1
 76
1
 52
0.0
 41
0.015748031496062992
 77
0
 78
1
 53
45.0
 43
0.0
 44
0.0
 45
-0.0013919425
 46
0.0013919425
 79
0
 98
0
  0
HATCH
  5
14F
330
17
100
AcDbEntity
  8
HATCH
 62
7
100
AcDbHatch
 10
0.0
 20
0.0
 30
0.0
210
0.0
220
0.0
230
1.0
  2
ANSI31
 70
0
 71
0
 91
1
 92
3
 72
0
 73
1
 93
5
 10
10.32808398950131
 20
10.248031496062993
 10
15.832020997375327
 20
10.248031496062993
 10
15.832020997375327
 20
10.051181102362206
 10
10.32808398950131
 20
10.051181102362206
 10
10.32808398950131
 20
10.248031496062993
 97
0
 75
1
 76
1
 52
0.0
 41
0.015748031496062992
 77
0
 78
1
 53
45.0
 43
0.0
 44
0.0
 45
-0.0013919425
 46
0.0013919425
 79
0
 98
0
  0
LWPOLYLINE
  5
150
330
17
100
AcDbEntity
  8
GEOMETRY
100
AcDbPolyline
 90
5
 70
0
 10
10.62992125984252
 20
6.41732283464567
 10
10.62992125984252
 20
10.051181102362206
 10
15.530183727034121
 20
10.051181102362206
 10
15.530183727034121
 20
6.41732283464567
 10
10.62992125984252
 20
6.41732283464567
  0
LWPOLYLINE
  5
151
330
17
100
AcDbEntity
  8
GEOMETRY
100
AcDbPolyline
 90
5
 70
0
 10
10.929133858267717
 20
9.618110236220474
 10
12.128608923884514
 20
9.618110236220474
 10
12.128608923884514
 20
8.817585301837271
 10
10.929133858267717
 20
8.817585301837271
 10
10.929133858267717
 20
9.618110236220474
  0
LINE
  5
152
330
17
100
AcDbEntity
  8
GEOMETRY
100
AcDbLine
 10
11.528871391076114
 20
8.817585301837271
 30
0.0
 11
11.528871391076114
 21
9.618110236220472
 31
0.0
  0
LWPOLYLINE
  5
153
330
17
100
AcDbEntity
  8
GEOMETRY
100
AcDbPolyline
 90
5
 70
0
 10
10.62992125984252
 20
10.051181102362206
 10
10.863517060367455
 20
10.051181102362206
 10
10.863517060367455
 20
6.41732283464567
 10
10.62992125984252
 20
6.41732283464567
 10
10.62992125984252
 20
10.051181102362206
  0
POLYLINE
  5
154
330
17
100
AcDbEntity
  8
GEOMETRY
100
AcDb2dPolyline
 66
1
 10
0.0
 20
0.0
 30
0.0
 70
0
  0
VERTEX
  5
155
330
154
100
AcDbEntity
  8
GEOMETRY
100
AcDbVertex
100
AcDb2dVertex
 10
10.863517060367455
 20
6.94225721784777
 30
0.0
 70
0
  0
VERTEX
  5
156
330
154
100
AcDbEntity
  8
GEOMETRY
100
AcDbVertex
100
AcDb2dVertex
 10
11.51968503937008
 20
6.94225721784777
 30
0.0
 70
0
  0
SEQEND
  5
157
330
154
100
AcDbEntity
  8
GEOMETRY
  0
SPLINE
  5
158
330
17
100
AcDbEntity
  8
GEOMETRY
100
AcDbSpline
 70
0
 71
3
 72
8
 73
4
 74
0
 40
0.0
 40
0.0
 40
0.0
 40
0.0
 40
1.0
 40
1.0
 40
1.0
 40
1.0
 10
11.51968503937008
 20
6.94225721784777
 30
0.0
 10
11.554680664916885
 20
6.94225721784777
 30
0.0
 10
11.559055118110235
 20
6.907261592300963
 30
0.0
 10
11.53280839895013
 20
6.83727034120735
 30
0.0
  0
SPLINE
  5
159
330
17
100
AcDbEntity
  8
GEOMETRY
100
AcDbSpline
 70
0
 71
3
 72
8
 73
4
 74
0
 40
0.0
 40
0.0
 40
0.0
 40
0.0
 40
1.0
 40
1.0
 40
1.0
 40
1.0
 10
11.53280839895013
 20
6.83727034120735
 30
0.0
 10
11.454068241469816
 20
6.7497812773403325
 30
0.0
 10
11.327209098862642
 20
6.701662292213474
 30
0.0
 10
11.152230971128608
 20
6.692913385826772
 30
0.0
  0
POLYLINE
  5
15A
330
17
100
AcDbEntity
  8
GEOMETRY
100
AcDb2dPolyline
 66
1
 10
0.0
 20
0.0
 30
0.0
 70
0
  0
VERTEX
  5
15B
330
15A
100
AcDbEntity
  8
GEOMETRY
100
AcDbVertex
100
AcDb2dVertex
 10
11.152230971128608
 20
6.692913385826772
 30
0.0
 70
0
  0
VERTEX
  5
15C
330
15A
100
AcDbEntity
  8
GEOMETRY
100
AcDbVertex
100
AcDb2dVertex
 10
10.863517060367455
 20
6.692913385826772
 30
0.0
 70
0
  0
VERTEX
  5
15D
330
15A
100
AcDbEntity
  8
GEOMETRY
100
AcDbVertex
100
AcDb2dVertex
 10
10.863517060367455
 20
6.94225721784777
 30
0.0
 70
0
  0
SEQEND
  5
15E
330
15A
100
AcDbEntity
  8
GEOMETRY
  0
LWPOLYLINE
  5
15F
330
17
100
AcDbEntity
  8
GEOMETRY
100
AcDbPolyline
 90
5
 70
0
 10
10.863517060367455
 20
6.981627296587927
 10
11.493438320209973
 20
6.981627296587927
 10
11.493438320209973
 20
6.94225721784777
 10
10.863517060367455
 20
6.94225721784777
 10
10.863517060367455
 20
6.981627296587927
  0
LWPOLYLINE
  5
160
330
17
100
AcDbEntity
  8
GEOMETRY
100
AcDbPolyline
 90
5
 70
0
 10
10.863517060367455
 20
7.874015748031496
 10
10.879265091863516
 20
7.874015748031496
 10
10.879265091863516
 20
7.585301837270342
 10
10.863517060367455
 20
7.585301837270342
 10
10.863517060367455
 20
7.874015748031496
  0
LWPOLYLINE
  5
161
330
17
100
AcDbEntity
  8
GEOMETRY
100
AcDbPolyline
 90
5
 70
0
 10
13.171259842519685
 20
7.926509186351707
 10
13.354986876640421
 20
7.926509186351707
 10
13.354986876640421
 20
7.742782152230972
 10
13.171259842519685
 20
7.742782152230972
 10
13.171259842519685
 20
7.926509186351707
  0
CIRCLE
  5
162
330
17
100
AcDbEntity
  8
GEOMETRY
100
AcDbCircle
 10
13.263123359580051
 20
7.834645669291339
 30
0.0
 40
0.03937007874015748
  0
LWPOLYLINE
  5
163
330
17
100
AcDbEntity
  8
GEOMETRY
100
AcDbPolyline
 90
2
 70
0
 10
13.263123359580051
 20
9.409448818897639
 10
13.263123359580051
 20
9.304461942257218
  0
LWPOLYLINE
  5
164
330
17
100
AcDbEntity
  8
GEOMETRY
100
AcDbPolyline
 90
5
 70
0
 10
13.099081364829397
 20
9.304461942257218
 10
13.42716535433071
 20
9.304461942257218
 10
13.42716535433071
 20
9.278215223097114
 10
13.099081364829397
 20
9.278215223097114
 10
13.099081364829397
 20
9.304461942257218
  0
LWPOLYLINE
  5
165
330
17
100
AcDbEntity
  8
GEOMETRY
100
AcDbPolyline
 90
5
 70
0
 10
10.863517060367455
 20
9.041994750656169
 10
11.623359580052494
 20
9.041994750656169
 10
11.623359580052494
 20
6.41732283464567
 10
10.863517060367455
 20
6.41732283464567
 10
10.863517060367455
 20
9.041994750656169
  0
LWPOLYLINE
  5
166
330
17
100
AcDbEntity
  8
GEOMETRY
100
AcDbPolyline
 90
5
 70
0
 10
11.631233595800525
 20
9.041994750656169
 10
12.455380577427821
 20
9.041994750656169
 10
12.455380577427821
 20
6.41732283464567
 10
11.631233595800525
 20
6.41732283464567
 10
11.631233595800525
 20
9.041994750656169
  0
LWPOLYLINE
  5
167
330
17
100
AcDbEntity
  8
GEOMETRY
  6
DASHED
100
AcDbPolyline
 90
3
 70
0
 10
12.455380577427821
 20
6.496062992125985
 10
11.631233595800525
 20
7.72965879265092
 10
12.455380577427821
 20
8.963254593175854
  0
LWPOLYLINE
  5
168
330
17
100
AcDbEntity
  8
GEOMETRY
100
AcDbPolyline
 90
5
 70
0
 10
11.620734908136484
 20
6.784776902887139
 10
11.670603674540683
 20
6.784776902887139
 10
11.670603674540683
 20
6.679790026246719
 10
11.620734908136484
 20
6.679790026246719
 10
11.620734908136484
 20
6.784776902887139
  0
LWPOLYLINE
  5
169
330
17
100
AcDbEntity
  8
GEOMETRY
100
AcDbPolyline
 90
5
 70
0
 10
11.620734908136484
 20
8.779527559055119
 10
11.670603674540683
 20
8.779527559055119
 10
11.670603674540683
 20
8.674540682414698
 10
11.620734908136484
 20
8.674540682414698
 10
11.620734908136484
 20
8.779527559055119
  0
LWPOLYLINE
  5
16A
330
17
100
AcDbEntity
  8
GEOMETRY
100
AcDbPolyline
 90
5
 70
0
 10
12.376640419947506
 20
8.057742782152232
 10
12.396325459317586
 20
8.057742782152232
 10
12.396325459317586
 20
7.532808398950132
 10
12.376640419947506
 20
7.532808398950132
 10
12.376640419947506
 20
8.057742782152232
  0
LWPOLYLINE
  5
16B
330
17
100
AcDbEntity
  8
GEOMETRY
100
AcDbPolyline
 90
5
 70
0
 10
12.471128608923884
 20
9.041994750656169
 10
13.258530183727034
 20
9.041994750656169
 10
13.258530183727034
 20
6.41732283464567
 10
12.471128608923884
 20
6.41732283464567
 10
12.471128608923884
 20
9.041994750656169
  0
LWPOLYLINE
  5
16C
330
17
100
AcDbEntity
  8
GEOMETRY
  6
DASHED
100
AcDbPolyline
 90
3
 70
0
 10
13.258530183727034
 20
6.496062992125985
 10
12.471128608923884
 20
7.72965879265092
 10
13.258530183727034
 20
8.963254593175854
  0
LWPOLYLINE
  5
16D
330
17
100
AcDbEntity
  8
GEOMETRY
100
AcDbPolyline
 90
5
 70
0
 10
12.460629921259843
 20
6.784776902887139
 10
12.510498687664041
 20
6.784776902887139
 10
12.510498687664041
 20
6.679790026246719
 10
12.460629921259843
 20
6.679790026246719
 10
12.460629921259843
 20
6.784776902887139
  0
LWPOLYLINE
  5
16E
330
17
100
AcDbEntity
  8
GEOMETRY
100
AcDbPolyline
 90
5
 70
0
 10
12.460629921259843
 20
8.779527559055119
 10
12.510498687664041
 20
8.779527559055119
 10
12.510498687664041
 20
8.674540682414698
 10
12.460629921259843
 20
8.674540682414698
 10
12.460629921259843
 20
8.779527559055119
  0
LWPOLYLINE
  5
16F
330
17
100
AcDbEntity
  8
GEOMETRY
100
AcDbPolyline
 90
5
 70
0
 10
13.17979002624672
 20
8.057742782152232
 10
13.199475065616797
 20
8.057742782152232
 10
13.199475065616797
 20
7.532808398950132
 10
13.17979002624672
 20
7.532808398950132
 10
13.17979002624672
 20
8.057742782152232
  0
LWPOLYLINE
  5
170
330
17
100
AcDbEntity
  8
GEOMETRY
100
AcDbPolyline
 90
5
 70
0
 10
13.266404199475067
 20
9.041994750656169
 10
14.062992125984254
 20
9.041994750656169
 10
14.062992125984254
 20
6.41732283464567
 10
13.266404199475067
 20
6.41732283464567
 10
13.266404199475067
 20
9.041994750656169
  0
LWPOLYLINE
  5
171
330
17
100
AcDbEntity
  8
GEOMETRY
100
AcDbPolyline
 90
5
 70
0
 10
12.456692913385826
 20
9.041994750656169
 10
12.469816272965877
 20
9.041994750656169
 10
12.469816272965877
 20
6.41732283464567
 10
12.456692913385826
 20
6.41732283464567
 10
12.456692913385826
 20
9.041994750656169
  0
LWPOLYLINE
  5
172
330
17
100
AcDbEntity
  8
GEOMETRY
100
AcDbPolyline
 90
5
 70
0
 10
14.056430446194224
 20
9.041994750656169
 10
14.069553805774277
 20
9.041994750656169
 10
14.069553805774277
 20
6.41732283464567
 10
14.056430446194224
 20
6.41732283464567
 10
14.056430446194224
 20
9.041994750656169
  0
SPLINE
  5
173
330
17
100
AcDbEntity
  8
GEOMETRY
100
AcDbSpline
 70
0
 71
3
 72
8
 73
4
 74
0
 40
0.0
 40
0.0
 40
0.0
 40
0.0
 40
1.0
 40
1.0
 40
1.0
 40
1.0
 10
14.388451443569554
 20
7.204724409448819
 30
0.0
 10
14.375328083989501
 20
6.73228346456693
 30
0.0
 10
14.46719160104987
 20
6.41732283464567
 30
0.0
 10
14.585301837270341
 20
6.41732283464567
 30
0.0
  0
POLYLINE
  5
174
330
17
100
AcDbEntity
  8
GEOMETRY
100
AcDb2dPolyline
 66
1
 10
0.0
 20
0.0
 30
0.0
 70
0
  0
VERTEX
  5
175
330
174
100
AcDbEntity
  8
GEOMETRY
100
AcDbVertex
100
AcDb2dVertex
 10
14.585301837270341
 20
6.41732283464567
 30
0.0
 70
0
  0
VERTEX
  5
176
330
174
100
AcDbEntity
  8
GEOMETRY
100
AcDbVertex
100
AcDb2dVertex
 10
15.241469816272966
 20
6.41732283464567
 30
0.0
 70
0
  0
SEQEND
  5
177
330
174
100
AcDbEntity
  8
GEOMETRY
  0
SPLINE
  5
178
330
17
100
AcDbEntity
  8
GEOMETRY
100
AcDbSpline
 70
0
 71
3
 72
8
 73
4
 74
0
 40
0.0
 40
0.0
 40
0.0
 40
0.0
 40
1.0
 40
1.0
 40
1.0
 40
1.0
 10
15.241469816272966
 20
6.41732283464567
 30
0.0
 10
15.359580052493438
 20
6.41732283464567
 30
0.0
 10
15.451443569553806
 20
6.73228346456693
 30
0.0
 10
15.438320209973753
 20
7.204724409448819
 30
0.0
  0
POLYLINE
  5
179
330
17
100
AcDbEntity
  8
GEOMETRY
100
AcDb2dPolyline
 66
1
 10
0.0
 20
0.0
 30
0.0
 70
0
  0
VERTEX
  5
17A
330
179
100
AcDbEntity
  8
GEOMETRY
100
AcDbVertex
100
AcDb2dVertex
 10
15.438320209973753
 20
7.204724409448819
 30
0.0
 70
0
  0
VERTEX
  5
17B
330
179
100
AcDbEntity
  8
GEOMETRY
100
AcDbVertex
100
AcDb2dVertex
 10
15.412073490813649
 20
7.204724409448819
 30
0.0
 70
0
  0
SEQEND
  5
17C
330
179
100
AcDbEntity
  8
GEOMETRY
  0
SPLINE
  5
17D
330
17
100
AcDbEntity
  8
GEOMETRY
100
AcDbSpline
 70
0
 71
3
 72
8
 73
4
 74
0
 40
0.0
 40
0.0
 40
0.0
 40
0.0
 40
1.0
 40
1.0
 40
1.0
 40
1.0
 10
15.412073490813649
 20
7.204724409448819
 30
0.0
 10
15.41994750656168
 20
6.771653543307087
 30
0.0
 10
15.346456692913385
 20
6.496062992125985
 30
0.0
 10
15.228346456692913
 20
6.496062992125985
 30
0.0
  0
POLYLINE
  5
17E
330
17
100
AcDbEntity
  8
GEOMETRY
100
AcDb2dPolyline
 66
1
 10
0.0
 20
0.0
 30
0.0
 70
0
  0
VERTEX
  5
17F
330
17E
100
AcDbEntity
  8
GEOMETRY
100
AcDbVertex
100
AcDb2dVertex
 10
15.228346456692913
 20
6.496062992125985
 30
0.0
 70
0
  0
VERTEX
  5
180
330
17E
100
AcDbEntity
  8
GEOMETRY
100
AcDbVertex
100
AcDb2dVertex
 10
14.598425196850394
 20
6.496062992125985
 30
0.0
 70
0
  0
SEQEND
  5
181
330
17E
100
AcDbEntity
  8
GEOMETRY
  0
SPLINE
  5
182
330
17
100
AcDbEntity
  8
GEOMETRY
100
AcDbSpline
 70
0
 71
3
 72
8
 73
4
 74
0
 40
0.0
 40
0.0
 40
0.0
 40
0.0
 40
1.0
 40
1.0
 40
1.0
 40
1.0
 10
14.598425196850394
 20
6.496062992125985
 30
0.0
 10
14.480314960629922
 20
6.496062992125985
 30
0.0
 10
14.406824146981627
 20
6.771653543307087
 30
0.0
 10
14.414698162729659
 20
7.204724409448819
 30
0.0
  0
POLYLINE
  5
183
330
17
100
AcDbEntity
  8
GEOMETRY
100
AcDb2dPolyline
 66
1
 10
0.0
 20
0.0
 30
0.0
 70
0
  0
VERTEX
  5
184
330
183
100
AcDbEntity
  8
GEOMETRY
100
AcDbVertex
100
AcDb2dVertex
 10
14.414698162729659
 20
7.204724409448819
 30
0.0
 70
0
  0
VERTEX
  5
185
330
183
100
AcDbEntity
  8
GEOMETRY
100
AcDbVertex
100
AcDb2dVertex
 10
14.388451443569554
 20
7.204724409448819
 30
0.0
 70
0
  0
SEQEND
  5
186
330
183
100
AcDbEntity
  8
GEOMETRY
  0
POLYLINE
  5
187
330
17
100
AcDbEntity
  8
GEOMETRY
100
AcDb2dPolyline
 66
1
 10
0.0
 20
0.0
 30
0.0
 70
0
  0
VERTEX
  5
188
330
187
100
AcDbEntity
  8
GEOMETRY
100
AcDbVertex
100
AcDb2dVertex
 10
14.913385826771654
 20
6.41732283464567
 30
0.0
 70
0
  0
VERTEX
  5
189
330
187
100
AcDbEntity
  8
GEOMETRY
100
AcDbVertex
100
AcDb2dVertex
 10
14.913385826771654
 20
7.703412073490814
 30
0.0
 70
0
  0
SEQEND
  5
18A
330
187
100
AcDbEntity
  8
GEOMETRY
  0
SPLINE
  5
18B
330
17
100
AcDbEntity
  8
GEOMETRY
100
AcDbSpline
 70
0
 71
3
 72
8
 73
4
 74
0
 40
0.0
 40
0.0
 40
0.0
 40
0.0
 40
1.0
 40
1.0
 40
1.0
 40
1.0
 10
14.913385826771654
 20
7.703412073490814
 30
0.0
 10
14.913385826771654
 20
7.755905511811023
 30
0.0
 10
14.939632545931758
 20
7.782152230971128
 30
0.0
 10
14.992125984251969
 20
7.782152230971128
 30
0.0
  0
POLYLINE
  5
18C
330
17
100
AcDbEntity
  8
GEOMETRY
100
AcDb2dPolyline
 66
1
 10
0.0
 20
0.0
 30
0.0
 70
0
  0
VERTEX
  5
18D
330
18C
100
AcDbEntity
  8
GEOMETRY
100
AcDbVertex
100
AcDb2dVertex
 10
14.992125984251969
 20
7.782152230971128
 30
0.0
 70
0
  0
VERTEX
  5
18E
330
18C
100
AcDbEntity
  8
GEOMETRY
100
AcDbVertex
100
AcDb2dVertex
 10
15.11023622047244
 20
7.782152230971128
 30
0.0
 70
0
  0
VERTEX
  5
18F
330
18C
100
AcDbEntity
  8
GEOMETRY
100
AcDbVertex
100
AcDb2dVertex
 10
15.11023622047244
 20
7.72965879265092
 30
0.0
 70
0
  0
SEQEND
  5
190
330
18C
100
AcDbEntity
  8
GEOMETRY
  0
LINE
  5
191
330
17
100
AcDbEntity
  8
GEOMETRY
100
AcDbLine
 10
10.065616797900262
 20
6.417322834645669
 30
0.0
 11
16.094488188976378
 21
6.417322834645669
 31
0.0
  0
LINE
  5
192
330
17
100
AcDbEntity
  8
DIMENSIONS
100
AcDbLine
 10
10.570866141732283
 20
6.062992125984252
 30
0.0
 11
15.589370078740158
 21
6.062992125984252
 31
0.0
  0
LINE
  5
193
330
17
100
AcDbEntity
  8
DIMENSIONS
100
AcDbLine
 10
10.62992125984252
 20
6.200787401574803
 30
0.0
 11
10.62992125984252
 21
6.015748031496063
 31
0.0
  0
LINE
  5
194
330
17
100
AcDbEntity
  8
DIMENSIONS
100
AcDbLine
 10
10.590551181102363
 20
6.0236220472440944
 30
0.0
 11
10.669291338582678
 21
6.102362204724409
 31
0.0
  0
LINE
  5
195
330
17
100
AcDbEntity
  8
DIMENSIONS
100
AcDbLine
 10
10.863385826771653
 20
6.200787401574803
 30
0.0
 11
10.863385826771653
 21
6.015748031496063
 31
0.0
  0
LINE
  5
196
330
17
100
AcDbEntity
  8
DIMENSIONS
100
AcDbLine
 10
10.824015748031496
 20
6.0236220472440944
 30
0.0
 11
10.90275590551181
 21
6.102362204724409
 31
0.0
  0
LINE
  5
197
330
17
100
AcDbEntity
  8
DIMENSIONS
100
AcDbLine
 10
12.463385826771653
 20
6.200787401574803
 30
0.0
 11
12.463385826771653
 21
6.015748031496063
 31
0.0
  0
LINE
  5
198
330
17
100
AcDbEntity
  8
DIMENSIONS
100
AcDbLine
 10
12.424015748031495
 20
6.0236220472440944
 30
0.0
 11
12.50275590551181
 21
6.102362204724409
 31
0.0
  0
LINE
  5
199
330
17
100
AcDbEntity
  8
DIMENSIONS
100
AcDbLine
 10
14.062992125984252
 20
6.200787401574803
 30
0.0
 11
14.062992125984252
 21
6.015748031496063
 31
0.0
  0
LINE
  5
19A
330
17
100
AcDbEntity
  8
DIMENSIONS
100
AcDbLine
 10
14.023622047244094
 20
6.0236220472440944
 30
0.0
 11
14.10236220472441
 21
6.102362204724409
 31
0.0
  0
LINE
  5
19B
330
17
100
AcDbEntity
  8
DIMENSIONS
100
AcDbLine
 10
15.530314960629923
 20
6.200787401574803
 30
0.0
 11
15.530314960629923
 21
6.015748031496063
 31
0.0
  0
LINE
  5
19C
330
17
100
AcDbEntity
  8
DIMENSIONS
100
AcDbLine
 10
15.490944881889765
 20
6.0236220472440944
 30
0.0
 11
15.56968503937008
 21
6.102362204724409
 31
0.0
  0
TEXT
  5
19D
330
17
100
AcDbEntity
  8
TEXT
100
AcDbText
 10
10.746850393700788
 20
6.094488188976379
 30
0.0
 40
0.031181102362204727
  1
7"
 72
1
 11
10.746850393700788
 21
6.094488188976379
 31
0.0
100
AcDbText
  0
TEXT
  5
19E
330
17
100
AcDbEntity
  8
TEXT
100
AcDbText
 10
11.663385826771654
 20
6.094488188976379
 30
0.0
 40
0.031181102362204727
  1
4'-0"
 72
1
 11
11.663385826771654
 21
6.094488188976379
 31
0.0
100
AcDbText
  0
TEXT
  5
19F
330
17
100
AcDbEntity
  8
TEXT
100
AcDbText
 10
13.262992125984251
 20
6.094488188976379
 30
0.0
 40
0.031181102362204727
  1
4'-0"
 72
1
 11
13.262992125984251
 21
6.094488188976379
 31
0.0
100
AcDbText
  0
TEXT
  5
1A0
330
17
100
AcDbEntity
  8
TEXT
100
AcDbText
 10
14.796850393700787
 20
6.094488188976379
 30
0.0
 40
0.031181102362204727
  1
3'-8"
 72
1
 11
14.796850393700787
 21
6.094488188976379
 31
0.0
100
AcDbText
  0
LINE
  5
1A1
330
17
100
AcDbEntity
  8
DIMENSIONS
100
AcDbLine
 10
15.989370078740157
 20
6.4763779527559056
 30
0.0
 11
15.989370078740157
 21
9.992125984251969
 31
0.0
  0
LINE
  5
1A2
330
17
100
AcDbEntity
  8
DIMENSIONS
100
AcDbLine
 10
15.851574803149607
 20
6.417322834645669
 30
0.0
 11
16.036614173228347
 21
6.417322834645669
 31
0.0
  0
LINE
  5
1A3
330
17
100
AcDbEntity
  8
DIMENSIONS
100
AcDbLine
 10
15.95
 20
6.377952755905512
 30
0.0
 11
16.028740157480314
 21
6.456692913385827
 31
0.0
  0
LINE
  5
1A4
330
17
100
AcDbEntity
  8
DIMENSIONS
100
AcDbLine
 10
15.851574803149607
 20
9.04212598425197
 30
0.0
 11
16.036614173228347
 21
9.04212598425197
 31
0.0
  0
LINE
  5
1A5
330
17
100
AcDbEntity
  8
DIMENSIONS
100
AcDbLine
 10
15.95
 20
9.002755905511812
 30
0.0
 11
16.028740157480314
 21
9.081496062992127
 31
0.0
  0
LINE
  5
1A6
330
17
100
AcDbEntity
  8
DIMENSIONS
100
AcDbLine
 10
15.851574803149607
 20
10.051181102362206
 30
0.0
 11
16.036614173228347
 21
10.051181102362206
 31
0.0
  0
LINE
  5
1A7
330
17
100
AcDbEntity
  8
DIMENSIONS
100
AcDbLine
 10
15.95
 20
10.011811023622048
 30
0.0
 11
16.028740157480314
 21
10.090551181102363
 31
0.0
  0
TEXT
  5
1A8
330
17
100
AcDbEntity
  8
TEXT
100
AcDbText
 10
15.95787401574803
 20
7.729921259842518
 30
0.0
 40
0.031181102362204727
  1
6'-6¾" GLASS
 50
90.0
 72
1
 11
15.95787401574803
 21
7.729921259842518
 31
0.0
100
AcDbText
  0
TEXT
  5
1A9
330
17
100
AcDbEntity
  8
TEXT
100
AcDbText
 10
15.95787401574803
 20
9.546456692913386
 30
0.0
 40
0.031181102362204727
  1
2'-6¼"
 50
90.0
 72
1
 11
15.95787401574803
 21
9.546456692913386
 31
0.0
100
AcDbText
  0
LINE
  5
1AA
330
17
100
AcDbEntity
  8
DIMENSIONS
100
AcDbLine
 10
10.17047244094488
 20
6.4763779527559056
 30
0.0
 11
10.17047244094488
 21
9.559055118110237
 31
0.0
  0
LINE
  5
1AB
330
17
100
AcDbEntity
  8
DIMENSIONS
100
AcDbLine
 10
10.308267716535433
 20
6.417322834645669
 30
0.0
 11
10.21771653543307
 21
6.417322834645669
 31
0.0
  0
LINE
  5
1AC
330
17
100
AcDbEntity
  8
DIMENSIONS
100
AcDbLine
 10
10.131102362204723
 20
6.377952755905512
 30
0.0
 11
10.209842519685038
 21
6.456692913385827
 31
0.0
  0
LINE
  5
1AD
330
17
100
AcDbEntity
  8
DIMENSIONS
100
AcDbLine
 10
10.308267716535433
 20
8.817716535433071
 30
0.0
 11
10.21771653543307
 21
8.817716535433071
 31
0.0
  0
LINE
  5
1AE
330
17
100
AcDbEntity
  8
DIMENSIONS
100
AcDbLine
 10
10.131102362204723
 20
8.778346456692914
 30
0.0
 11
10.209842519685038
 21
8.857086614173229
 31
0.0
  0
LINE
  5
1AF
330
17
100
AcDbEntity
  8
DIMENSIONS
100
AcDbLine
 10
10.308267716535433
 20
9.618110236220472
 30
0.0
 11
10.21771653543307
 21
9.618110236220472
 31
0.0
  0
LINE
  5
1B0
330
17
100
AcDbEntity
  8
DIMENSIONS
100
AcDbLine
 10
10.131102362204723
 20
9.578740157480315
 30
0.0
 11
10.209842519685038
 21
9.65748031496063
 31
0.0
  0
TEXT
  5
1B1
330
17
100
AcDbEntity
  8
TEXT
100
AcDbText
 10
10.138976377952755
 20
7.61732283464567
 30
0.0
 40
0.031181102362204727
  1
6'-0"
 50
90.0
 72
1
 11
10.138976377952755
 21
7.61732283464567
 31
0.0
100
AcDbText
  0
TEXT
  5
1B2
330
17
100
AcDbEntity
  8
TEXT
100
AcDbText
 10
10.138976377952755
 20
9.21771653543307
 30
0.0
 40
0.031181102362204727
  1
2'-0"
 50
90.0
 72
1
 11
10.138976377952755
 21
9.21771653543307
 31
0.0
100
AcDbText
  0
LINE
  5
1B3
330
17
100
AcDbEntity
  8
GEOMETRY
100
AcDbLine
 10
11.971259842519684
 20
9.34251968503937
 30
0.0
 11
12.598425196850393
 21
10.472440944881889
 31
0.0
  0
TEXT
  5
1B4
330
17
100
AcDbEntity
  8
TEXT
100
AcDbText
 10
12.637795275590552
 20
10.46456692913386
 30
0.0
 40
0.048188976377952754
  1
WINDOW — NOT MEASURED
 11
12.637795275590552
 21
10.46456692913386
 31
0.0
100
AcDbText
  0
LINE
  5
1B5
330
17
100
AcDbEntity
  8
GEOMETRY
100
AcDbLine
 10
11.257086614173229
 20
6.9161417322834655
 30
0.0
 11
11.548425196850394
 21
10.196850393700787
 31
0.0
  0
TEXT
  5
1B6
330
17
100
AcDbEntity
  8
TEXT
100
AcDbText
 10
11.587795275590551
 20
10.188976377952756
 30
0.0
 40
0.048188976377952754
  1
WC IN PROFILE
 11
11.587795275590551
 21
10.188976377952756
 31
0.0
100
AcDbText
  0
LINE
  5
1B7
330
17
100
AcDbEntity
  8
GEOMETRY
100
AcDbLine
 10
13.42716535433071
 20
9.291338582677165
 30
0.0
 11
13.976377952755906
 21
10.472440944881889
 31
0.0
  0
TEXT
  5
1B8
330
17
100
AcDbEntity
  8
TEXT
100
AcDbText
 10
14.015748031496063
 20
10.46456692913386
 30
0.0
 40
0.048188976377952754
  1
RAIN HEAD ON AN ARM
 11
14.015748031496063
 21
10.46456692913386
 31
0.0
100
AcDbText
  0
LINE
  5
1B9
330
17
100
AcDbEntity
  8
GEOMETRY
100
AcDbLine
 10
13.262992125984251
 20
7.834645669291339
 30
0.0
 11
13.976377952755906
 21
10.196850393700787
 31
0.0
  0
TEXT
  5
1BA
330
17
100
AcDbEntity
  8
TEXT
100
AcDbText
 10
14.015748031496063
 20
10.188976377952756
 30
0.0
 40
0.048188976377952754
  1
MIXER
 11
14.015748031496063
 21
10.188976377952756
 31
0.0
100
AcDbText
  0
LINE
  5
1BB
330
17
100
AcDbEntity
  8
GEOMETRY
100
AcDbLine
 10
15.11023622047244
 20
7.755905511811023
 30
0.0
 11
15.091732283464566
 21
10.472440944881889
 31
0.0
  0
TEXT
  5
1BC
330
17
100
AcDbEntity
  8
TEXT
100
AcDbText
 10
15.131102362204723
 20
10.46456692913386
 30
0.0
 40
0.048188976377952754
  1
FILLER
 11
15.131102362204723
 21
10.46456692913386
 31
0.0
100
AcDbText
  0
LINE
  5
1BD
330
17
100
AcDbEntity
  8
GEOMETRY
100
AcDbLine
 10
14.585433070866143
 20
7.125984251968504
 30
0.0
 11
15.091732283464566
 21
10.196850393700787
 31
0.0
  0
TEXT
  5
1BE
330
17
100
AcDbEntity
  8
TEXT
100
AcDbText
 10
15.131102362204723
 20
10.188976377952756
 30
0.0
 40
0.048188976377952754
  1
TUB, CUT
 11
15.131102362204723
 21
10.188976377952756
 31
0.0
100
AcDbText
  0
TEXT
  5
1BF
330
17
100
AcDbEntity
  8
TEXT
100
AcDbText
 10
10.15748031496063
 20
5.47244094488189
 30
0.0
 40
0.09070866141732283
  1
ASSUMED
 11
10.15748031496063
 21
5.47244094488189
 31
0.0
100
AcDbText
  0
LINE
  5
1C0
330
17
100
AcDbEntity
  8
GEOMETRY
100
AcDbLine
 10
10.15748031496063
 20
5.413385826771654
 30
0.0
 11
16.062992125984252
 21
5.413385826771654
 31
0.0
  0
TEXT
  5
1C1
330
17
100
AcDbEntity
  8
TEXT
100
AcDbText
 10
10.15748031496063
 20
5.283464566929133
 30
0.0
 40
0.048188976377952754
  1
FROM THE SKETCH — TELL ME IF ANY OF THESE IS WRONG
 11
10.15748031496063
 21
5.283464566929133
 31
0.0
100
AcDbText
  0
TEXT
  5
1C2
330
17
100
AcDbEntity
  8
TEXT
100
AcDbText
 10
10.15748031496063
 20
5.039370078740157
 30
0.0
 40
0.03968503937007874
  1
WC and shower each 4 ft wide and 3 ft 5 in from the window wall, glass fronts in one line.
 11
10.15748031496063
 21
5.039370078740157
 31
0.0
100
AcDbText
  0
TEXT
  5
1C3
330
17
100
AcDbEntity
  8
TEXT
100
AcDbText
 10
10.15748031496063
 20
4.87007874015748
 30
0.0
 40
0.03968503937007874
  1
The WC wall-hung on the 7 in wall, its cistern hidden in it, facing the shower.
 11
10.15748031496063
 21
4.87007874015748
 31
0.0
100
AcDbText
  0
TEXT
  5
1C4
330
17
100
AcDbEntity
  8
TEXT
100
AcDbText
 10
10.15748031496063
 20
4.700787401574804
 30
0.0
 40
0.03968503937007874
  1
Glass clear, 10 mm, frameless, 6 ft 6¾ in high, open above; chrome hinges, doors opening out.
 11
10.15748031496063
 21
4.700787401574804
 31
0.0
100
AcDbText
  0
TEXT
  5
1C5
330
17
100
AcDbEntity
  8
TEXT
100
AcDbText
 10
10.15748031496063
 20
4.531496062992126
 30
0.0
 40
0.03968503937007874
  1
Shower: level floor falling to a linear drain at the back; rain head on an arm, mixer on the wall.
 11
10.15748031496063
 21
4.531496062992126
 31
0.0
100
AcDbText
  0
TEXT
  5
1C6
330
17
100
AcDbEntity
  8
TEXT
100
AcDbText
 10
10.15748031496063
 20
4.362204724409449
 30
0.0
 40
0.03968503937007874
  1
Tub: freestanding oval, 5 ft 7 × 2 ft 7½, in the 3 ft 1 in bay, a floor-standing filler at its head.
 11
10.15748031496063
 21
4.362204724409449
 31
0.0
100
AcDbText
  0
TEXT
  5
1C7
330
17
100
AcDbEntity
  8
TEXT
100
AcDbText
 10
10.15748031496063
 20
4.192913385826771
 30
0.0
 40
0.03968503937007874
  1
Vanity: scheme C, unchanged. The window's size and height are still not measured.
 11
10.15748031496063
 21
4.192913385826771
 31
0.0
100
AcDbText
  0
TEXT
  5
1C8
330
17
100
AcDbEntity
  8
TEXT
100
AcDbText
 10
10.15748031496063
 20
3.779527559055118
 30
0.0
 40
0.09070866141732283
  1
TO ASK
 11
10.15748031496063
 21
3.779527559055118
 31
0.0
100
AcDbText
  0
LINE
  5
1C9
330
17
100
AcDbEntity
  8
GEOMETRY
100
AcDbLine
 10
10.15748031496063
 20
3.720472440944882
 30
0.0
 11
16.062992125984252
 21
3.720472440944882
 31
0.0
  0
TEXT
  5
1CA
330
17
100
AcDbEntity
  8
TEXT
100
AcDbText
 10
10.15748031496063
 20
3.3464566929133857
 30
0.0
 40
0.03968503937007874
  1
The sketch writes 3'0" by the tub: the tub's width, or the pier's length (it is 3 ft)?
 11
10.15748031496063
 21
3.3464566929133857
 31
0.0
100
AcDbText
  0
TEXT
  5
1CB
330
17
100
AcDbEntity
  8
TEXT
100
AcDbText
 10
10.15748031496063
 20
3.1771653543307083
 30
0.0
 40
0.03968503937007874
  1
What is the shape along the door wall between the pier and the east wall?
 11
10.15748031496063
 21
3.1771653543307083
 31
0.0
100
AcDbText
  0
TEXT
  5
1CC
330
17
100
AcDbEntity
  8
TEXT
100
AcDbText
 10
10.15748031496063
 20
3.0078740157480315
 30
0.0
 40
0.03968503937007874
  1
Glass: clear, reeded (very 1930s) or frosted — the WC's especially? To the ceiling?
 11
10.15748031496063
 21
3.0078740157480315
 31
0.0
100
AcDbText
  0
TEXT
  5
1CD
330
17
100
AcDbEntity
  8
TEXT
100
AcDbText
 10
10.15748031496063
 20
2.838582677165354
 30
0.0
 40
0.03968503937007874
  1
Wall-hung WC, or one standing on the floor? And the walls: marble or plaster?
 11
10.15748031496063
 21
2.838582677165354
 31
0.0
100
AcDbText
  0
TEXT
  5
1CE
330
17
100
AcDbEntity
  8
TEXT
100
AcDbText
 10
0.7086614173228346
 20
3.5039370078740157
 30
0.0
 40
0.09070866141732283
  1
NOTES
 11
0.7086614173228346
 21
3.5039370078740157
 31
0.0
100
AcDbText
  0
LINE
  5
1CF
330
17
100
AcDbEntity
  8
GEOMETRY
100
AcDbLine
 10
0.7086614173228346
 20
3.4448818897637796
 30
0.0
 11
5.433070866141732
 21
3.4448818897637796
 31
0.0
  0
TEXT
  5
1D0
330
17
100
AcDbEntity
  8
TEXT
100
AcDbText
 10
0.7086614173228346
 20
3.3149606299212593
 30
0.0
 40
0.048188976377952754
  1
REVISION 1
 11
0.7086614173228346
 21
3.3149606299212593
 31
0.0
100
AcDbText
  0
TEXT
  5
1D1
330
17
100
AcDbEntity
  8
TEXT
100
AcDbText
 10
0.7086614173228346
 20
3.0708661417322833
 30
0.0
 40
0.04110236220472441
  1
From the owner's sketch and words: along the window wall, after the 7 in wall — the owner's
 11
0.7086614173228346
 21
3.0708661417322833
 31
0.0
100
AcDbText
  0
TEXT
  5
1D2
330
17
100
AcDbEntity
  8
TEXT
100
AcDbText
 10
0.7086614173228346
 20
2.901574803149606
 30
0.0
 40
0.04110236220472441
  1
"WC wall" — the WC and the shower side by side, each 4 ft wide, both behind glass and coming
 11
0.7086614173228346
 21
2.901574803149606
 31
0.0
100
AcDbText
  0
TEXT
  5
1D3
330
17
100
AcDbEntity
  8
TEXT
100
AcDbText
 10
0.7086614173228346
 20
2.732283464566929
 30
0.0
 40
0.04110236220472441
  1
the same distance off the wall (3 ft 5 in). The tub on the right, in the bay between the pier and
 11
0.7086614173228346
 21
2.732283464566929
 31
0.0
100
AcDbText
  0
TEXT
  5
1D4
330
17
100
AcDbEntity
  8
TEXT
100
AcDbText
 10
0.7086614173228346
 20
2.562992125984252
 30
0.0
 40
0.04110236220472441
  1
the east wall. The vanity stays on the door wall against the pier, as AST-DR-021.
 11
0.7086614173228346
 21
2.562992125984252
 31
0.0
100
AcDbText
  0
TEXT
  5
1D5
330
17
100
AcDbEntity
  8
TEXT
100
AcDbText
 10
0.7086614173228346
 20
2.3937007874015754
 30
0.0
 40
0.04110236220472441
  1
That leaves 3 ft 5¼ in clear between the glass and the vanity, and the door swings
 11
0.7086614173228346
 21
2.3937007874015754
 31
0.0
100
AcDbText
  0
TEXT
  5
1D6
330
17
100
AcDbEntity
  8
TEXT
100
AcDbText
 10
0.7086614173228346
 20
2.2244094488188977
 30
0.0
 40
0.04110236220472441
  1
clear of everything. The shell is the measured one; the fittings are all to choose.
 11
0.7086614173228346
 21
2.2244094488188977
 31
0.0
100
AcDbText
  0
LWPOLYLINE
  5
1D7
330
17
100
AcDbEntity
  8
GEOMETRY
100
AcDbPolyline
 90
5
 70
0
 10
11.811023622047244
 20
2.283464566929135
 10
16.22047244094488
 20
2.283464566929135
 10
16.22047244094488
 20
0.31496062992126106
 10
11.811023622047244
 20
0.31496062992126106
 10
11.811023622047244
 20
2.283464566929135
  0
LINE
  5
1D8
330
17
100
AcDbEntity
  8
GEOMETRY
100
AcDbLine
 10
11.811023622047244
 20
1.7322834645669292
 30
0.0
 11
16.22047244094488
 21
1.7322834645669292
 31
0.0
  0
LINE
  5
1D9
330
17
100
AcDbEntity
  8
GEOMETRY
100
AcDbLine
 10
11.811023622047244
 20
1.1023622047244095
 30
0.0
 11
16.22047244094488
 21
1.1023622047244095
 31
0.0
  0
LINE
  5
1DA
330
17
100
AcDbEntity
  8
GEOMETRY
100
AcDbLine
 10
11.811023622047244
 20
0.7086614173228346
 30
0.0
 11
16.22047244094488
 21
0.7086614173228346
 31
0.0
  0
LINE
  5
1DB
330
17
100
AcDbEntity
  8
GEOMETRY
100
AcDbLine
 10
14.015748031496063
 20
1.1023622047244095
 30
0.0
 11
14.015748031496063
 21
0.31496062992125984
 31
0.0
  0
TEXT
  5
1DC
330
17
100
AcDbEntity
  8
TEXT
100
AcDbText
 10
11.929133858267717
 20
2.02755905511811
 30
0.0
 40
0.09637795275590551
  1
A STUDY IN TEAK
 11
11.929133858267717
 21
2.02755905511811
 31
0.0
100
AcDbText
  0
TEXT
  5
1DD
330
17
100
AcDbEntity
  8
TEXT
100
AcDbText
 10
11.929133858267717
 20
1.8503937007874016
 30
0.0
 40
0.05385826771653543
  1
Particulars of the room
 11
11.929133858267717
 21
1.8503937007874016
 31
0.0
100
AcDbText
  0
TEXT
  5
1DE
330
17
100
AcDbEntity
  8
TEXT
100
AcDbText
 10
11.929133858267717
 20
1.4763779527559056
 30
0.0
 40
0.09637795275590551
  1
BATHROOM
 11
11.929133858267717
 21
1.4763779527559056
 31
0.0
100
AcDbText
  0
TEXT
  5
1DF
330
17
100
AcDbEntity
  8
TEXT
100
AcDbText
 10
11.929133858267717
 20
1.2598425196850394
 30
0.0
 40
0.05669291338582677
  1
Plan · Section B–B
 11
11.929133858267717
 21
1.2598425196850394
 31
0.0
100
AcDbText
  0
TEXT
  5
1E0
330
17
100
AcDbEntity
  8
TEXT
100
AcDbText
 10
11.929133858267717
 20
0.9448818897637795
 30
0.0
 40
0.04251968503937008
  1
SCALE
 11
11.929133858267717
 21
0.9448818897637795
 31
0.0
100
AcDbText
  0
TEXT
  5
1E1
330
17
100
AcDbEntity
  8
TEXT
100
AcDbText
 10
11.929133858267717
 20
0.7874015748031495
 30
0.0
 40
0.05952755905511811
  1
AS NOTED @ A3
 11
11.929133858267717
 21
0.7874015748031495
 31
0.0
100
AcDbText
  0
TEXT
  5
1E2
330
17
100
AcDbEntity
  8
TEXT
100
AcDbText
 10
14.133858267716535
 20
0.9448818897637795
 30
0.0
 40
0.04251968503937008
  1
DATE
 11
14.133858267716535
 21
0.9448818897637795
 31
0.0
100
AcDbText
  0
TEXT
  5
1E3
330
17
100
AcDbEntity
  8
TEXT
100
AcDbText
 10
14.133858267716535
 20
0.7874015748031495
 30
0.0
 40
0.05952755905511811
  1
03.10.2026
 11
14.133858267716535
 21
0.7874015748031495
 31
0.0
100
AcDbText
  0
TEXT
  5
1E4
330
17
100
AcDbEntity
  8
TEXT
100
AcDbText
 10
11.929133858267717
 20
0.5511811023622047
 30
0.0
 40
0.04251968503937008
  1
REV
 11
11.929133858267717
 21
0.5511811023622047
 31
0.0
100
AcDbText
  0
TEXT
  5
1E5
330
17
100
AcDbEntity
  8
TEXT
100
AcDbText
 10
11.929133858267717
 20
0.39370078740157477
 30
0.0
 40
0.03710808876163207
  1
1 — from the owner's sketch: WC and shower in glass, the tub east of the pier
 11
11.929133858267717
 21
0.39370078740157477
 31
0.0
100
AcDbText
  0
TEXT
  5
1E6
330
17
100
AcDbEntity
  8
TEXT
100
AcDbText
 10
14.133858267716535
 20
0.5511811023622047
 30
0.0
 40
0.04251968503937008
  1
DWG
 11
14.133858267716535
 21
0.5511811023622047
 31
0.0
100
AcDbText
  0
TEXT
  5
1E7
330
17
100
AcDbEntity
  8
TEXT
100
AcDbText
 10
14.133858267716535
 20
0.39370078740157477
 30
0.0
 40
0.05952755905511811
  1
AST-DR-037
 11
14.133858267716535
 21
0.39370078740157477
 31
0.0
100
AcDbText
  0
ENDSEC
  0
SECTION
  2
OBJECTS
  0
DICTIONARY
  5
A
330
0
100
AcDbDictionary
281
1
  3
ACAD_COLOR
350
B
  3
ACAD_GROUP
350
C
  3
ACAD_LAYOUT
350
D
  3
ACAD_MATERIAL
350
E
  3
ACAD_MLEADERSTYLE
350
F
  3
ACAD_MLINESTYLE
350
10
  3
ACAD_PLOTSETTINGS
350
11
  3
ACAD_PLOTSTYLENAME
350
12
  3
ACAD_SCALELIST
350
14
  3
ACAD_TABLESTYLE
350
15
  3
ACAD_VISUALSTYLE
350
16
  3
EZDXF_META
350
2D
  0
DICTIONARY
  5
B
330
A
100
AcDbDictionary
281
1
  0
DICTIONARY
  5
C
330
A
100
AcDbDictionary
281
1
  0
DICTIONARY
  5
D
330
A
100
AcDbDictionary
281
1
  3
Model
350
1A
  3
Layout1
350
1E
  0
DICTIONARY
  5
E
330
A
100
AcDbDictionary
281
1
  3
ByBlock
350
1F
  3
ByLayer
350
20
  3
Global
350
21
  0
DICTIONARY
  5
F
330
A
100
AcDbDictionary
281
1
  3
Standard
350
2C
  0
DICTIONARY
  5
10
330
A
100
AcDbDictionary
281
1
  3
Standard
350
22
  0
DICTIONARY
  5
11
330
A
100
AcDbDictionary
281
1
  0
ACDBDICTIONARYWDFLT
  5
12
330
A
100
AcDbDictionary
281
1
  3
Normal
350
13
100
AcDbDictionaryWithDefault
340
13
  0
ACDBPLACEHOLDER
  5
13
330
12
  0
DICTIONARY
  5
14
330
A
100
AcDbDictionary
281
1
  0
DICTIONARY
  5
15
330
A
100
AcDbDictionary
281
1
  0
DICTIONARY
  5
16
330
A
100
AcDbDictionary
281
1
  3
2dWireframe
350
5A
  3
Basic
350
5B
  3
Brighten
350
5C
  3
ColorChange
350
5D
  3
Conceptual
350
5E
  3
Dim
350
5F
  3
EdgeColorOff
350
60
  3
Facepattern
350
61
  3
Flat
350
62
  3
FlatWithEdges
350
63
  3
Gouraud
350
64
  3
GouraudWithEdges
350
65
  3
Hidden
350
66
  3
JitterOff
350
67
  3
Linepattern
350
68
  3
Modeling
350
69
  3
OverhangOff
350
6A
  3
Realistic
350
6B
  3
Shaded
350
6C
  3
Shaded with edges
350
6D
  3
Shades of Gray
350
6E
  3
Sketchy
350
6F
  3
Thicken
350
70
  3
Wireframe
350
71
  3
X-Ray
350
72
  0
LAYOUT
  5
1A
330
D
100
AcDbPlotSettings
  1

  4
A3
  6

 40
7.5
 41
20.0
 42
7.5
 43
20.0
 44
420.0
 45
297.0
 46
0.0
 47
0.0
 48
0.0
 49
0.0
140
0.0
141
0.0
142
1.0
143
1.0
 70
1024
 72
1
 73
0
 74
5
  7

 75
16
 76
0
 77
2
 78
300
147
1.0
148
0.0
149
0.0
100
AcDbLayout
  1
Model
 70
1
 71
0
 10
0.0
 20
0.0
 11
420.0
 21
297.0
 12
0.0
 22
0.0
 32
0.0
 14
1e+20
 24
1e+20
 34
1e+20
 15
-1e+20
 25
-1e+20
 35
-1e+20
146
0.0
 13
0.0
 23
0.0
 33
0.0
 16
1.0
 26
0.0
 36
0.0
 17
0.0
 27
1.0
 37
0.0
 76
1
330
17
  0
LAYOUT
  5
1E
330
D
100
AcDbPlotSettings
  1

  4
A3
  6

 40
7.5
 41
20.0
 42
7.5
 43
20.0
 44
420.0
 45
297.0
 46
0.0
 47
0.0
 48
0.0
 49
0.0
140
0.0
141
0.0
142
1.0
143
1.0
 70
0
 72
1
 73
0
 74
5
  7

 75
16
 76
0
 77
2
 78
300
147
1.0
148
0.0
149
0.0
100
AcDbLayout
  1
Layout1
 70
1
 71
1
 10
0.0
 20
0.0
 11
420.0
 21
297.0
 12
0.0
 22
0.0
 32
0.0
 14
1e+20
 24
1e+20
 34
1e+20
 15
-1e+20
 25
-1e+20
 35
-1e+20
146
0.0
 13
0.0
 23
0.0
 33
0.0
 16
1.0
 26
0.0
 36
0.0
 17
0.0
 27
1.0
 37
0.0
 76
1
330
1B
  0
MATERIAL
  5
1F
102
{ACAD_REACTORS
330
E
102
}
330
E
100
AcDbMaterial
  1
ByBlock
  2

 70
0
 40
1.0
 71
1
 41
1.0
 91
-1023410177
 42
1.0
 72
1
  3

 73
1
 74
1
 75
1
 44
0.5
 73
0
 45
1.0
 46
1.0
 77
1
  4

 78
1
 79
1
170
1
 48
1.0
171
1
  6

172
1
173
1
174
1
140
1.0
141
1.0
175
1
  7

176
1
177
1
178
1
143
1.0
179
1
  8

270
1
271
1
272
1
145
1.0
146
1.0
273
1
  9

274
1
275
1
276
1
 42
1.0
 72
1
  3

 73
1
 74
1
 75
1
 94
63
  0
MATERIAL
  5
20
102
{ACAD_REACTORS
330
E
102
}
330
E
100
AcDbMaterial
  1
ByLayer
  2

 70
0
 40
1.0
 71
1
 41
1.0
 91
-1023410177
 42
1.0
 72
1
  3

 73
1
 74
1
 75
1
 44
0.5
 73
0
 45
1.0
 46
1.0
 77
1
  4

 78
1
 79
1
170
1
 48
1.0
171
1
  6

172
1
173
1
174
1
140
1.0
141
1.0
175
1
  7

176
1
177
1
178
1
143
1.0
179
1
  8

270
1
271
1
272
1
145
1.0
146
1.0
273
1
  9

274
1
275
1
276
1
 42
1.0
 72
1
  3

 73
1
 74
1
 75
1
 94
63
  0
MATERIAL
  5
21
102
{ACAD_REACTORS
330
E
102
}
330
E
100
AcDbMaterial
  1
Global
  2

 70
0
 40
1.0
 71
1
 41
1.0
 91
-1023410177
 42
1.0
 72
1
  3

 73
1
 74
1
 75
1
 44
0.5
 73
0
 45
1.0
 46
1.0
 77
1
  4

 78
1
 79
1
170
1
 48
1.0
171
1
  6

172
1
173
1
174
1
140
1.0
141
1.0
175
1
  7

176
1
177
1
178
1
143
1.0
179
1
  8

270
1
271
1
272
1
145
1.0
146
1.0
273
1
  9

274
1
275
1
276
1
 42
1.0
 72
1
  3

 73
1
 74
1
 75
1
 94
63
  0
MLINESTYLE
  5
22
102
{ACAD_REACTORS
330
10
102
}
330
10
100
AcDbMlineStyle
  2
Standard
 70
0
  3

 62
256
 51
90.0
 52
90.0
 71
2
 49
0.5
 62
256
  6
BYLAYER
 49
-0.5
 62
256
  6
BYLAYER
  0
MLEADERSTYLE
  5
2C
102
{ACAD_REACTORS
330
F
102
}
330
F
100
AcDbMLeaderStyle
179
2
170
2
171
1
172
0
 90
2
 40
0.0
 41
0.0
173
1
 91
-1056964608
 92
-2
290
1
 42
2.0
291
1
 43
8.0
  3
Standard
 44
4.0
300

342
29
174
1
175
1
176
0
178
1
 93
-1056964608
 45
4.0
292
0
297
0
 46
4.0
 94
-1056964608
 47
1.0
 49
1.0
140
1.0
294
1
141
0.0
177
0
142
1.0
295
0
296
0
143
3.75
271
0
272
9
273
9
  0
DICTIONARY
  5
2D
330
A
100
AcDbDictionary
280
1
281
1
  3
CREATED_BY_EZDXF
350
2E
  3
WRITTEN_BY_EZDXF
350
1EA
  0
DICTIONARYVAR
  5
2E
330
2D
100
DictionaryVariables
280
0
  1
1.4.2 @ 2026-10-03T14:34:05.654150+00:00
  0
VISUALSTYLE
  5
5A
102
{ACAD_REACTORS
330
16
102
}
330
16
100
AcDbVisualStyle
  2
2dWireframe
 70
4
 90
0
 40
0.6
 62
7
290
0
291
0
  0
VISUALSTYLE
  5
5B
102
{ACAD_REACTORS
330
16
102
}
330
16
100
AcDbVisualStyle
  2
Basic
 70
7
 90
1
 40
0.6
 62
7
290
0
291
1
  0
VISUALSTYLE
  5
5C
102
{ACAD_REACTORS
330
16
102
}
330
16
100
AcDbVisualStyle
  2
Brighten
 70
12
 90
2
 40
0.6
 62
7
290
0
291
1
  0
VISUALSTYLE
  5
5D
102
{ACAD_REACTORS
330
16
102
}
330
16
100
AcDbVisualStyle
  2
ColorChange
 70
16
 90
2
 40
0.6
 62
8
290
0
291
1
  0
VISUALSTYLE
  5
5E
102
{ACAD_REACTORS
330
16
102
}
330
16
100
AcDbVisualStyle
  2
Conceptual
 70
9
 90
3
 40
0.6
 62
7
290
0
291
0
  0
VISUALSTYLE
  5
5F
102
{ACAD_REACTORS
330
16
102
}
330
16
100
AcDbVisualStyle
  2
Dim
 70
11
 90
2
 40
0.6
 62
7
290
0
291
1
  0
VISUALSTYLE
  5
60
102
{ACAD_REACTORS
330
16
102
}
330
16
100
AcDbVisualStyle
  2
EdgeColorOff
 70
22
 90
2
 40
0.6
 62
7
290
0
291
1
  0
VISUALSTYLE
  5
61
102
{ACAD_REACTORS
330
16
102
}
330
16
100
AcDbVisualStyle
  2
Facepattern
 70
15
 90
2
 40
0.6
 62
7
290
0
291
1
  0
VISUALSTYLE
  5
62
102
{ACAD_REACTORS
330
16
102
}
330
16
100
AcDbVisualStyle
  2
Flat
 70
0
 90
2
 40
0.6
 62
7
290
0
291
1
  0
VISUALSTYLE
  5
63
102
{ACAD_REACTORS
330
16
102
}
330
16
100
AcDbVisualStyle
  2
FlatWithEdges
 70
1
 90
2
 40
0.6
 62
7
290
0
291
1
  0
VISUALSTYLE
  5
64
102
{ACAD_REACTORS
330
16
102
}
330
16
100
AcDbVisualStyle
  2
Gouraud
 70
2
 90
2
 40
0.6
 62
7
290
0
291
1
  0
VISUALSTYLE
  5
65
102
{ACAD_REACTORS
330
16
102
}
330
16
100
AcDbVisualStyle
  2
GouraudWithEdges
 70
3
 90
2
 40
0.6
 62
7
290
0
291
1
  0
VISUALSTYLE
  5
66
102
{ACAD_REACTORS
330
16
102
}
330
16
100
AcDbVisualStyle
  2
Hidden
 70
6
 90
1
 40
0.6
 62
7
290
0
291
0
  0
VISUALSTYLE
  5
67
102
{ACAD_REACTORS
330
16
102
}
330
16
100
AcDbVisualStyle
  2
JitterOff
 70
20
 90
2
 40
0.6
 62
7
290
0
291
1
  0
VISUALSTYLE
  5
68
102
{ACAD_REACTORS
330
16
102
}
330
16
100
AcDbVisualStyle
  2
Linepattern
 70
14
 90
2
 40
0.6
 62
7
290
0
291
1
  0
VISUALSTYLE
  5
69
102
{ACAD_REACTORS
330
16
102
}
330
16
100
AcDbVisualStyle
  2
Modeling
 70
10
 90
2
 40
0.6
 62
7
290
0
291
0
  0
VISUALSTYLE
  5
6A
102
{ACAD_REACTORS
330
16
102
}
330
16
100
AcDbVisualStyle
  2
OverhangOff
 70
21
 90
2
 40
0.6
 62
7
290
0
291
1
  0
VISUALSTYLE
  5
6B
102
{ACAD_REACTORS
330
16
102
}
330
16
100
AcDbVisualStyle
  2
Realistic
 70
8
 90
2
 40
0.6
 62
7
290
0
291
0
  0
VISUALSTYLE
  5
6C
102
{ACAD_REACTORS
330
16
102
}
330
16
100
AcDbVisualStyle
  2
Shaded
 70
27
 90
2
 40
0.6
 62
7
290
0
291
0
  0
VISUALSTYLE
  5
6D
102
{ACAD_REACTORS
330
16
102
}
330
16
100
AcDbVisualStyle
  2
Shaded with edges
 70
26
 90
2
 40
0.6
 62
7
290
0
291
0
  0
VISUALSTYLE
  5
6E
102
{ACAD_REACTORS
330
16
102
}
330
16
100
AcDbVisualStyle
  2
Shades of Gray
 70
23
 90
2
 40
0.6
 62
7
290
0
291
0
  0
VISUALSTYLE
  5
6F
102
{ACAD_REACTORS
330
16
102
}
330
16
100
AcDbVisualStyle
  2
Sketchy
 70
24
 90
1
 40
0.6
 62
7
290
0
291
0
  0
VISUALSTYLE
  5
70
102
{ACAD_REACTORS
330
16
102
}
330
16
100
AcDbVisualStyle
  2
Thicken
 70
13
 90
2
 40
0.6
 62
7
290
0
291
1
  0
VISUALSTYLE
  5
71
102
{ACAD_REACTORS
330
16
102
}
330
16
100
AcDbVisualStyle
  2
Wireframe
 70
5
 90
0
 40
0.6
 62
7
290
0
291
0
  0
VISUALSTYLE
  5
72
102
{ACAD_REACTORS
330
16
102
}
330
16
100
AcDbVisualStyle
  2
X-Ray
 70
25
 90
2
 40
0.5
 62
7
290
0
291
0
  0
DICTIONARYVAR
  5
1EA
330
2D
100
DictionaryVariables
280
0
  1
1.4.2 @ 2026-10-03T14:34:05.677746+00:00
  0
ENDSEC
  0
EOF
