  0
SECTION
  2
HEADER
  9
$ACADVER
  1
AC1024
  9
$ACADMAINTVER
 70
6
  9
$DWGCODEPAGE
  3
ANSI_1252
  9
$LASTSAVEDBY
  1
ezdxf
  9
$INSBASE
 10
0.0
 20
0.0
 30
0.0
  9
$EXTMIN
 10
1e+20
 20
1e+20
 30
1e+20
  9
$EXTMAX
 10
-1e+20
 20
-1e+20
 30
-1e+20
  9
$LIMMIN
 10
0.0
 20
0.0
  9
$LIMMAX
 10
420.0
 20
297.0
  9
$ORTHOMODE
 70
0
  9
$REGENMODE
 70
1
  9
$FILLMODE
 70
1
  9
$QTEXTMODE
 70
0
  9
$MIRRTEXT
 70
1
  9
$LTSCALE
 40
1.0
  9
$ATTMODE
 70
1
  9
$TEXTSIZE
 40
2.5
  9
$TRACEWID
 40
1.0
  9
$TEXTSTYLE
  7
OpenSans
  9
$CLAYER
  8
0
  9
$CELTYPE
  6
ByLayer
  9
$CECOLOR
 62
256
  9
$CELTSCALE
 40
1.0
  9
$DISPSILH
 70
0
  9
$DIMSCALE
 40
1.0
  9
$DIMASZ
 40
0.175
  9
$DIMEXO
 40
0.125
  9
$DIMDLI
 40
3.75
  9
$DIMRND
 40
0.0
  9
$DIMDLE
 40
0.0
  9
$DIMEXE
 40
0.375
  9
$DIMTP
 40
0.0
  9
$DIMTM
 40
0.0
  9
$DIMTXT
 40
0.25
  9
$DIMCEN
 40
2.5
  9
$DIMTSZ
 40
0.0
  9
$DIMTOL
 70
0
  9
$DIMLIM
 70
0
  9
$DIMTIH
 70
0
  9
$DIMTOH
 70
0
  9
$DIMSE1
 70
0
  9
$DIMSE2
 70
0
  9
$DIMTAD
 70
1
  9
$DIMZIN
 70
12
  9
$DIMBLK
  1
ARCHTICK
  9
$DIMASO
 70
1
  9
$DIMSHO
 70
1
  9
$DIMPOST
  1

  9
$DIMAPOST
  1

  9
$DIMALT
 70
0
  9
$DIMALTD
 70
3
  9
$DIMALTF
 40
0.03937007874
  9
$DIMLFAC
 40
100.0
  9
$DIMTOFL
 70
1
  9
$DIMTVP
 40
0.0
  9
$DIMTIX
 70
0
  9
$DIMSOXD
 70
0
  9
$DIMSAH
 70
0
  9
$DIMBLK1
  1

  9
$DIMBLK2
  1

  9
$DIMSTYLE
  2
EZDXF
  9
$DIMCLRD
 70
0
  9
$DIMCLRE
 70
0
  9
$DIMCLRT
 70
0
  9
$DIMTFAC
 40
0.5
  9
$DIMGAP
 40
0.1
  9
$DIMJUST
 70
0
  9
$DIMSD1
 70
0
  9
$DIMSD2
 70
0
  9
$DIMTOLJ
 70
0
  9
$DIMTZIN
 70
8
  9
$DIMALTZ
 70
0
  9
$DIMALTTZ
 70
0
  9
$DIMUPT
 70
1
  9
$DIMDEC
 70
2
  9
$DIMTDEC
 70
2
  9
$DIMALTU
 70
2
  9
$DIMALTTD
 70
3
  9
$DIMTXSTY
  7
OpenSansCondensed-Light
  9
$DIMAUNIT
 70
0
  9
$DIMADEC
 70
2
  9
$DIMALTRND
 40
0.0
  9
$DIMAZIN
 70
3
  9
$DIMDSEP
 70
46
  9
$DIMATFIT
 70
3
  9
$DIMFRAC
 70
0
  9
$DIMLDRBLK
  1

  9
$DIMLUNIT
 70
2
  9
$DIMLWD
 70
-2
  9
$DIMLWE
 70
-2
  9
$DIMTMOVE
 70
2
  9
$DIMFXL
 40
1.0
  9
$DIMFXLON
 70
0
  9
$DIMJOGANG
 40
0.785398163397
  9
$DIMTFILL
 70
0
  9
$DIMTFILLCLR
 70
0
  9
$DIMARCSYM
 70
0
  9
$DIMLTYPE
  6

  9
$DIMLTEX1
  6

  9
$DIMLTEX2
  6

  9
$DIMTXTDIRECTION
 70
0
  9
$LUNITS
 70
4
  9
$LUPREC
 70
4
  9
$SKETCHINC
 40
1.0
  9
$FILLETRAD
 40
10.0
  9
$AUNITS
 70
0
  9
$AUPREC
 70
3
  9
$MENU
  1
.
  9
$ELEVATION
 40
0.0
  9
$PELEVATION
 40
0.0
  9
$THICKNESS
 40
0.0
  9
$LIMCHECK
 70
0
  9
$CHAMFERA
 40
0.0
  9
$CHAMFERB
 40
0.0
  9
$CHAMFERC
 40
0.0
  9
$CHAMFERD
 40
0.0
  9
$SKPOLY
 70
0
  9
$TDCREATE
 40
2461323.727152778
  9
$TDUCREATE
 40
2458532.153996898
  9
$TDUPDATE
 40
2461323.727152778
  9
$TDUUPDATE
 40
2458532.1544311
  9
$TDINDWG
 40
0.0
  9
$TDUSRTIMER
 40
0.0
  9
$USRTIMER
 70
1
  9
$ANGBASE
 50
0.0
  9
$ANGDIR
 70
0
  9
$PDMODE
 70
0
  9
$PDSIZE
 40
0.0
  9
$PLINEWID
 40
0.0
  9
$SPLFRAME
 70
0
  9
$SPLINETYPE
 70
6
  9
$SPLINESEGS
 70
8
  9
$HANDSEED
  5
169
  9
$SURFTAB1
 70
6
  9
$SURFTAB2
 70
6
  9
$SURFTYPE
 70
6
  9
$SURFU
 70
6
  9
$SURFV
 70
6
  9
$UCSBASE
  2

  9
$UCSNAME
  2

  9
$UCSORG
 10
0.0
 20
0.0
 30
0.0
  9
$UCSXDIR
 10
1.0
 20
0.0
 30
0.0
  9
$UCSYDIR
 10
0.0
 20
1.0
 30
0.0
  9
$UCSORTHOREF
  2

  9
$UCSORTHOVIEW
 70
0
  9
$UCSORGTOP
 10
0.0
 20
0.0
 30
0.0
  9
$UCSORGBOTTOM
 10
0.0
 20
0.0
 30
0.0
  9
$UCSORGLEFT
 10
0.0
 20
0.0
 30
0.0
  9
$UCSORGRIGHT
 10
0.0
 20
0.0
 30
0.0
  9
$UCSORGFRONT
 10
0.0
 20
0.0
 30
0.0
  9
$UCSORGBACK
 10
0.0
 20
0.0
 30
0.0
  9
$PUCSBASE
  2

  9
$PUCSNAME
  2

  9
$PUCSORG
 10
0.0
 20
0.0
 30
0.0
  9
$PUCSXDIR
 10
1.0
 20
0.0
 30
0.0
  9
$PUCSYDIR
 10
0.0
 20
1.0
 30
0.0
  9
$PUCSORTHOREF
  2

  9
$PUCSORTHOVIEW
 70
0
  9
$PUCSORGTOP
 10
0.0
 20
0.0
 30
0.0
  9
$PUCSORGBOTTOM
 10
0.0
 20
0.0
 30
0.0
  9
$PUCSORGLEFT
 10
0.0
 20
0.0
 30
0.0
  9
$PUCSORGRIGHT
 10
0.0
 20
0.0
 30
0.0
  9
$PUCSORGFRONT
 10
0.0
 20
0.0
 30
0.0
  9
$PUCSORGBACK
 10
0.0
 20
0.0
 30
0.0
  9
$USERI1
 70
0
  9
$USERI2
 70
0
  9
$USERI3
 70
0
  9
$USERI4
 70
0
  9
$USERI5
 70
0
  9
$USERR1
 40
0.0
  9
$USERR2
 40
0.0
  9
$USERR3
 40
0.0
  9
$USERR4
 40
0.0
  9
$USERR5
 40
0.0
  9
$WORLDVIEW
 70
1
  9
$SHADEDGE
 70
3
  9
$SHADEDIF
 70
70
  9
$TILEMODE
 70
1
  9
$MAXACTVP
 70
64
  9
$PINSBASE
 10
0.0
 20
0.0
 30
0.0
  9
$PLIMCHECK
 70
0
  9
$PEXTMIN
 10
1e+20
 20
1e+20
 30
1e+20
  9
$PEXTMAX
 10
-1e+20
 20
-1e+20
 30
-1e+20
  9
$PLIMMIN
 10
0.0
 20
0.0
  9
$PLIMMAX
 10
420.0
 20
297.0
  9
$UNITMODE
 70
0
  9
$VISRETAIN
 70
1
  9
$PLINEGEN
 70
0
  9
$PSLTSCALE
 70
1
  9
$TREEDEPTH
 70
3020
  9
$CMLSTYLE
  2
Standard
  9
$CMLJUST
 70
0
  9
$CMLSCALE
 40
20.0
  9
$PROXYGRAPHICS
 70
1
  9
$MEASUREMENT
 70
0
  9
$CELWEIGHT
370
-1
  9
$ENDCAPS
280
0
  9
$JOINSTYLE
280
0
  9
$LWDISPLAY
290
0
  9
$INSUNITS
 70
1
  9
$HYPERLINKBASE
  1

  9
$STYLESHEET
  1

  9
$XEDIT
290
1
  9
$CEPSNTYPE
380
0
  9
$PSTYLEMODE
290
1
  9
$FINGERPRINTGUID
  2
{8E0E0AF6-D6F8-4405-8697-08778360D7A3}
  9
$VERSIONGUID
  2
{5D0B646E-83E0-4943-9D0B-C04AA952B55A}
  9
$EXTNAMES
290
1
  9
$PSVPSCALE
 40
0.0
  9
$OLESTARTUP
290
0
  9
$SORTENTS
280
127
  9
$INDEXCTL
280
0
  9
$HIDETEXT
280
1
  9
$XCLIPFRAME
280
1
  9
$HALOGAP
280
0
  9
$OBSCOLOR
 70
257
  9
$OBSLTYPE
280
0
  9
$INTERSECTIONDISPLAY
280
0
  9
$INTERSECTIONCOLOR
 70
257
  9
$DIMASSOC
280
2
  9
$PROJECTNAME
  1

  9
$CAMERADISPLAY
290
0
  9
$LENSLENGTH
 40
50.0
  9
$CAMERAHEIGHT
 40
0.0
  9
$STEPSPERSEC
 40
24.0
  9
$STEPSIZE
 40
100.0
  9
$3DDWFPREC
 40
2.0
  9
$PSOLWIDTH
 40
0.005
  9
$PSOLHEIGHT
 40
0.08
  9
$LOFTANG1
 40
1.570796326795
  9
$LOFTANG2
 40
1.570796326795
  9
$LOFTMAG1
 40
0.0
  9
$LOFTMAG2
 40
0.0
  9
$LOFTPARAM
 70
7
  9
$LOFTNORMALS
280
1
  9
$LATITUDE
 40
37.795
  9
$LONGITUDE
 40
-122.394
  9
$NORTHDIRECTION
 40
0.0
  9
$TIMEZONE
 70
-8000
  9
$LIGHTGLYPHDISPLAY
280
1
  9
$TILEMODELIGHTSYNCH
280
1
  9
$CMATERIAL
347
20
  9
$SOLIDHIST
280
0
  9
$SHOWHIST
280
1
  9
$DWFFRAME
280
2
  9
$DGNFRAME
280
2
  9
$REALWORLDSCALE
290
1
  9
$INTERFERECOLOR
 62
256
  9
$CSHADOW
280
0
  9
$SHADOWPLANELOCATION
 40
0.0
  0
ENDSEC
  0
SECTION
  2
CLASSES
  0
CLASS
  1
ACDBDICTIONARYWDFLT
  2
AcDbDictionaryWithDefault
  3
ObjectDBX Classes
 90
0
 91
0
280
0
281
0
  0
CLASS
  1
SUN
  2
AcDbSun
  3
SCENEOE
 90
1153
 91
0
280
0
281
0
  0
CLASS
  1
VISUALSTYLE
  2
AcDbVisualStyle
  3
ObjectDBX Classes
 90
4095
 91
0
280
0
281
0
  0
CLASS
  1
MATERIAL
  2
AcDbMaterial
  3
ObjectDBX Classes
 90
1153
 91
0
280
0
281
0
  0
CLASS
  1
SCALE
  2
AcDbScale
  3
ObjectDBX Classes
 90
1153
 91
0
280
0
281
0
  0
CLASS
  1
TABLESTYLE
  2
AcDbTableStyle
  3
ObjectDBX Classes
 90
4095
 91
0
280
0
281
0
  0
CLASS
  1
MLEADERSTYLE
  2
AcDbMLeaderStyle
  3
ACDB_MLEADERSTYLE_CLASS
 90
4095
 91
0
280
0
281
0
  0
CLASS
  1
DICTIONARYVAR
  2
AcDbDictionaryVar
  3
ObjectDBX Classes
 90
0
 91
0
280
0
281
0
  0
CLASS
  1
CELLSTYLEMAP
  2
AcDbCellStyleMap
  3
ObjectDBX Classes
 90
1152
 91
0
280
0
281
0
  0
CLASS
  1
MENTALRAYRENDERSETTINGS
  2
AcDbMentalRayRenderSettings
  3
SCENEOE
 90
1024
 91
0
280
0
281
0
  0
CLASS
  1
ACDBDETAILVIEWSTYLE
  2
AcDbDetailViewStyle
  3
ObjectDBX Classes
 90
1025
 91
0
280
0
281
0
  0
CLASS
  1
ACDBSECTIONVIEWSTYLE
  2
AcDbSectionViewStyle
  3
ObjectDBX Classes
 90
1025
 91
0
280
0
281
0
  0
CLASS
  1
RASTERVARIABLES
  2
AcDbRasterVariables
  3
ISM
 90
0
 91
0
280
0
281
0
  0
CLASS
  1
ACDBPLACEHOLDER
  2
AcDbPlaceHolder
  3
ObjectDBX Classes
 90
0
 91
0
280
0
281
0
  0
CLASS
  1
LAYOUT
  2
AcDbLayout
  3
ObjectDBX Classes
 90
0
 91
0
280
0
281
0
  0
ENDSEC
  0
SECTION
  2
TABLES
  0
TABLE
  2
VPORT
  5
8
330
0
100
AcDbSymbolTable
 70
1
  0
VPORT
  5
23
330
8
100
AcDbSymbolTableRecord
100
AcDbViewportTableRecord
  2
*Active
 70
0
 10
0.0
 20
0.0
 11
1.0
 21
1.0
 12
0.0
 22
0.0
 13
0.0
 23
0.0
 14
0.5
 24
0.5
 15
0.5
 25
0.5
 16
0.0
 26
0.0
 36
1.0
 17
0.0
 27
0.0
 37
0.0
 40
1000.0
 41
1.34
 42
50.0
 43
0.0
 44
0.0
 50
0.0
 51
0.0
 71
0
 72
1000
 73
1
 74
3
 75
0
 76
0
 77
0
 78
0
281
0
 65
0
146
0.0
  0
ENDTAB
  0
TABLE
  2
LTYPE
  5
2
330
0
100
AcDbSymbolTable
 70
21
  0
LTYPE
  5
24
330
2
100
AcDbSymbolTableRecord
100
AcDbLinetypeTableRecord
  2
ByBlock
 70
0
  3

 72
65
 73
0
 40
0.0
  0
LTYPE
  5
25
330
2
100
AcDbSymbolTableRecord
100
AcDbLinetypeTableRecord
  2
ByLayer
 70
0
  3

 72
65
 73
0
 40
0.0
  0
LTYPE
  5
26
330
2
100
AcDbSymbolTableRecord
100
AcDbLinetypeTableRecord
  2
Continuous
 70
0
  3

 72
65
 73
0
 40
0.0
  0
LTYPE
  5
2F
330
2
100
AcDbSymbolTableRecord
100
AcDbLinetypeTableRecord
  2
CENTER
 70
0
  3
Center ____ _ ____ _ ____ _ ____ _ ____ _ ____
 72
65
 73
4
 40
2.0
 49
1.25
 74
0
 49
-0.25
 74
0
 49
0.25
 74
0
 49
-0.25
 74
0
  0
LTYPE
  5
30
330
2
100
AcDbSymbolTableRecord
100
AcDbLinetypeTableRecord
  2
CENTERX2
 70
0
  3
Center (2x) ________  __  ________  __  ________
 72
65
 73
4
 40
3.5
 49
2.5
 74
0
 49
-0.25
 74
0
 49
0.5
 74
0
 49
-0.25
 74
0
  0
LTYPE
  5
31
330
2
100
AcDbSymbolTableRecord
100
AcDbLinetypeTableRecord
  2
CENTER2
 70
0
  3
Center (.5x) ____ _ ____ _ ____ _ ____ _ ____
 72
65
 73
4
 40
1.0
 49
0.625
 74
0
 49
-0.125
 74
0
 49
0.125
 74
0
 49
-0.125
 74
0
  0
LTYPE
  5
32
330
2
100
AcDbSymbolTableRecord
100
AcDbLinetypeTableRecord
  2
DASHED
 70
0
  3
Dashed __ __ __ __ __ __ __ __ __ __ __ __ __ _
 72
65
 73
2
 40
0.6
 49
0.5
 74
0
 49
-0.1
 74
0
  0
LTYPE
  5
33
330
2
100
AcDbSymbolTableRecord
100
AcDbLinetypeTableRecord
  2
DASHEDX2
 70
0
  3
Dashed (2x) ____  ____  ____  ____  ____  ____
 72
65
 73
2
 40
1.2
 49
1.0
 74
0
 49
-0.2
 74
0
  0
LTYPE
  5
34
330
2
100
AcDbSymbolTableRecord
100
AcDbLinetypeTableRecord
  2
DASHED2
 70
0
  3
Dashed (.5x) _ _ _ _ _ _ _ _ _ _ _ _ _ _
 72
65
 73
2
 40
0.3
 49
0.25
 74
0
 49
-0.05
 74
0
  0
LTYPE
  5
35
330
2
100
AcDbSymbolTableRecord
100
AcDbLinetypeTableRecord
  2
PHANTOM
 70
0
  3
Phantom ______  __  __  ______  __  __  ______
 72
65
 73
6
 40
2.5
 49
1.25
 74
0
 49
-0.25
 74
0
 49
0.25
 74
0
 49
-0.25
 74
0
 49
0.25
 74
0
 49
-0.25
 74
0
  0
LTYPE
  5
36
330
2
100
AcDbSymbolTableRecord
100
AcDbLinetypeTableRecord
  2
PHANTOMX2
 70
0
  3
Phantom (2x)____________    ____    ____    ____________
 72
65
 73
6
 40
4.25
 49
2.5
 74
0
 49
-0.25
 74
0
 49
0.5
 74
0
 49
-0.25
 74
0
 49
0.5
 74
0
 49
-0.25
 74
0
  0
LTYPE
  5
37
330
2
100
AcDbSymbolTableRecord
100
AcDbLinetypeTableRecord
  2
PHANTOM2
 70
0
  3
Phantom (.5x) ___ _ _ ___ _ _ ___ _ _ ___ _ _ ___
 72
65
 73
6
 40
1.25
 49
0.625
 74
0
 49
-0.125
 74
0
 49
0.125
 74
0
 49
-0.125
 74
0
 49
0.125
 74
0
 49
-0.125
 74
0
  0
LTYPE
  5
38
330
2
100
AcDbSymbolTableRecord
100
AcDbLinetypeTableRecord
  2
DASHDOT
 70
0
  3
Dash dot __ . __ . __ . __ . __ . __ . __ . __
 72
65
 73
4
 40
1.4
 49
1.0
 74
0
 49
-0.2
 74
0
 49
0.0
 74
0
 49
-0.2
 74
0
  0
LTYPE
  5
39
330
2
100
AcDbSymbolTableRecord
100
AcDbLinetypeTableRecord
  2
DASHDOTX2
 70
0
  3
Dash dot (2x) ____  .  ____  .  ____  .  ____
 72
65
 73
4
 40
2.4
 49
2.0
 74
0
 49
-0.2
 74
0
 49
0.0
 74
0
 49
-0.2
 74
0
  0
LTYPE
  5
3A
330
2
100
AcDbSymbolTableRecord
100
AcDbLinetypeTableRecord
  2
DASHDOT2
 70
0
  3
Dash dot (.5x) _ . _ . _ . _ . _ . _ . _ . _
 72
65
 73
4
 40
0.7
 49
0.5
 74
0
 49
-0.1
 74
0
 49
0.0
 74
0
 49
-0.1
 74
0
  0
LTYPE
  5
3B
330
2
100
AcDbSymbolTableRecord
100
AcDbLinetypeTableRecord
  2
DOT
 70
0
  3
Dot .  .  .  .  .  .  .  .  .  .  .  .  .  .  .  .
 72
65
 73
2
 40
0.2
 49
0.0
 74
0
 49
-0.2
 74
0
  0
LTYPE
  5
3C
330
2
100
AcDbSymbolTableRecord
100
AcDbLinetypeTableRecord
  2
DOTX2
 70
0
  3
Dot (2x) .    .    .    .    .    .    .    . 
 72
65
 73
2
 40
0.4
 49
0.0
 74
0
 49
-0.4
 74
0
  0
LTYPE
  5
3D
330
2
100
AcDbSymbolTableRecord
100
AcDbLinetypeTableRecord
  2
DOT2
 70
0
  3
Dot (.5) . . . . . . . . . . . . . . . . . . . 
 72
65
 73
2
 40
0.1
 49
0.0
 74
0
 49
-0.1
 74
0
  0
LTYPE
  5
3E
330
2
100
AcDbSymbolTableRecord
100
AcDbLinetypeTableRecord
  2
DIVIDE
 70
0
  3
Divide __ . . __ . . __ . . __ . . __ . . __
 72
65
 73
6
 40
1.6
 49
1.0
 74
0
 49
-0.2
 74
0
 49
0.0
 74
0
 49
-0.2
 74
0
 49
0.0
 74
0
 49
-0.2
 74
0
  0
LTYPE
  5
3F
330
2
100
AcDbSymbolTableRecord
100
AcDbLinetypeTableRecord
  2
DIVIDEX2
 70
0
  3
Divide (2x) ____  . .  ____  . .  ____  . .  ____
 72
65
 73
6
 40
2.6
 49
2.0
 74
0
 49
-0.2
 74
0
 49
0.0
 74
0
 49
-0.2
 74
0
 49
0.0
 74
0
 49
-0.2
 74
0
  0
LTYPE
  5
40
330
2
100
AcDbSymbolTableRecord
100
AcDbLinetypeTableRecord
  2
DIVIDE2
 70
0
  3
Divide(.5x) _ . _ . _ . _ . _ . _ . _ . _
 72
65
 73
6
 40
0.8
 49
0.5
 74
0
 49
-0.1
 74
0
 49
0.0
 74
0
 49
-0.1
 74
0
 49
0.0
 74
0
 49
-0.1
 74
0
  0
ENDTAB
  0
TABLE
  2
LAYER
  5
1
330
0
100
AcDbSymbolTable
 70
8
  0
LAYER
  5
27
330
1
100
AcDbSymbolTableRecord
100
AcDbLayerTableRecord
  2
0
 70
0
 62
7
  6
Continuous
370
-3
390
13
347
21
  0
LAYER
  5
28
330
1
100
AcDbSymbolTableRecord
100
AcDbLayerTableRecord
  2
Defpoints
 70
0
 62
7
  6
Continuous
290
0
370
-3
390
13
347
21
  0
LAYER
  5
8A
330
1
100
AcDbSymbolTableRecord
100
AcDbLayerTableRecord
  2
Bathroom plan
 70
0
 62
7
  6
Continuous
370
-3
390
13
347
21
  0
LAYER
  5
8B
330
1
100
AcDbSymbolTableRecord
100
AcDbLayerTableRecord
  2
Bathroom plan hatch
 70
0
 62
8
  6
Continuous
370
-3
390
13
347
21
  0
LAYER
  5
F2
330
1
100
AcDbSymbolTableRecord
100
AcDbLayerTableRecord
  2
Bathroom section B-B
 70
0
 62
7
  6
Continuous
370
-3
390
13
347
21
  0
LAYER
  5
F3
330
1
100
AcDbSymbolTableRecord
100
AcDbLayerTableRecord
  2
Bathroom section B-B hatch
 70
0
 62
8
  6
Continuous
370
-3
390
13
347
21
  0
LAYER
  5
13F
330
1
100
AcDbSymbolTableRecord
100
AcDbLayerTableRecord
  2
Bathroom WC wall
 70
0
 62
7
  6
Continuous
370
-3
390
13
347
21
  0
LAYER
  5
140
330
1
100
AcDbSymbolTableRecord
100
AcDbLayerTableRecord
  2
Bathroom WC wall hatch
 70
0
 62
8
  6
Continuous
370
-3
390
13
347
21
  0
ENDTAB
  0
TABLE
  2
STYLE
  5
5
330
0
100
AcDbSymbolTable
 70
26
  0
STYLE
  5
29
330
5
100
AcDbSymbolTableRecord
100
AcDbTextStyleTableRecord
  2
Standard
 70
0
 40
0.0
 41
1.0
 50
0.0
 71
0
 42
2.5
  3
txt
  4

  0
STYLE
  5
41
330
5
100
AcDbSymbolTableRecord
100
AcDbTextStyleTableRecord
  2
OpenSans-Light
 70
0
 40
0.0
 41
1.0
 50
0.0
 71
0
 42
2.5
  3
OpenSans-Light.ttf
  4

  0
STYLE
  5
42
330
5
100
AcDbSymbolTableRecord
100
AcDbTextStyleTableRecord
  2
OpenSans-Light-Italic
 70
0
 40
0.0
 41
1.0
 50
0.0
 71
0
 42
2.5
  3
OpenSans-LightItalic.ttf
  4

  0
STYLE
  5
43
330
5
100
AcDbSymbolTableRecord
100
AcDbTextStyleTableRecord
  2
OpenSans
 70
0
 40
0.0
 41
1.0
 50
0.0
 71
0
 42
2.5
  3
OpenSans-Regular.ttf
  4

  0
STYLE
  5
44
330
5
100
AcDbSymbolTableRecord
100
AcDbTextStyleTableRecord
  2
OpenSans-Italic
 70
0
 40
0.0
 41
1.0
 50
0.0
 71
0
 42
2.5
  3
OpenSans-Italic.ttf
  4

  0
STYLE
  5
45
330
5
100
AcDbSymbolTableRecord
100
AcDbTextStyleTableRecord
  2
OpenSans-SemiBold
 70
0
 40
0.0
 41
1.0
 50
0.0
 71
0
 42
2.5
  3
OpenSans-SemiBold.ttf
  4

  0
STYLE
  5
46
330
5
100
AcDbSymbolTableRecord
100
AcDbTextStyleTableRecord
  2
OpenSans-SemiBoldItalic
 70
0
 40
0.0
 41
1.0
 50
0.0
 71
0
 42
2.5
  3
OpenSans-SemiBoldItalic.ttf
  4

  0
STYLE
  5
47
330
5
100
AcDbSymbolTableRecord
100
AcDbTextStyleTableRecord
  2
OpenSans-Bold
 70
0
 40
0.0
 41
1.0
 50
0.0
 71
0
 42
2.5
  3
OpenSans-Bold.ttf
  4

  0
STYLE
  5
48
330
5
100
AcDbSymbolTableRecord
100
AcDbTextStyleTableRecord
  2
OpenSans-BoldItalic
 70
0
 40
0.0
 41
1.0
 50
0.0
 71
0
 42
2.5
  3
OpenSans-BoldItalic.ttf
  4

  0
STYLE
  5
49
330
5
100
AcDbSymbolTableRecord
100
AcDbTextStyleTableRecord
  2
OpenSans-ExtraBold
 70
0
 40
0.0
 41
1.0
 50
0.0
 71
0
 42
2.5
  3
OpenSans-ExtraBold.ttf
  4

  0
STYLE
  5
4A
330
5
100
AcDbSymbolTableRecord
100
AcDbTextStyleTableRecord
  2
OpenSans-ExtraBoldItalic
 70
0
 40
0.0
 41
1.0
 50
0.0
 71
0
 42
2.5
  3
OpenSans-ExtraBoldItalic.ttf
  4

  0
STYLE
  5
4B
330
5
100
AcDbSymbolTableRecord
100
AcDbTextStyleTableRecord
  2
OpenSansCondensed-Bold
 70
0
 40
0.0
 41
1.0
 50
0.0
 71
0
 42
2.5
  3
OpenSansCondensed-Bold.ttf
  4

  0
STYLE
  5
4C
330
5
100
AcDbSymbolTableRecord
100
AcDbTextStyleTableRecord
  2
OpenSansCondensed-Light
 70
0
 40
0.0
 41
1.0
 50
0.0
 71
0
 42
2.5
  3
OpenSansCondensed-Light.ttf
  4

  0
STYLE
  5
4D
330
5
100
AcDbSymbolTableRecord
100
AcDbTextStyleTableRecord
  2
OpenSansCondensed-Italic
 70
0
 40
0.0
 41
1.0
 50
0.0
 71
0
 42
2.5
  3
OpenSansCondensed-LightItalic.ttf
  4

  0
STYLE
  5
4E
330
5
100
AcDbSymbolTableRecord
100
AcDbTextStyleTableRecord
  2
LiberationSans
 70
0
 40
0.0
 41
1.0
 50
0.0
 71
0
 42
2.5
  3
LiberationSans-Regular.ttf
  4

  0
STYLE
  5
4F
330
5
100
AcDbSymbolTableRecord
100
AcDbTextStyleTableRecord
  2
LiberationSans-Bold
 70
0
 40
0.0
 41
1.0
 50
0.0
 71
0
 42
2.5
  3
LiberationSans-Bold.ttf
  4

  0
STYLE
  5
50
330
5
100
AcDbSymbolTableRecord
100
AcDbTextStyleTableRecord
  2
LiberationSans-BoldItalic
 70
0
 40
0.0
 41
1.0
 50
0.0
 71
0
 42
2.5
  3
LiberationSans-BoldItalic.ttf
  4

  0
STYLE
  5
51
330
5
100
AcDbSymbolTableRecord
100
AcDbTextStyleTableRecord
  2
LiberationSans-Italic
 70
0
 40
0.0
 41
1.0
 50
0.0
 71
0
 42
2.5
  3
LiberationSans-Italic.ttf
  4

  0
STYLE
  5
52
330
5
100
AcDbSymbolTableRecord
100
AcDbTextStyleTableRecord
  2
LiberationSerif
 70
0
 40
0.0
 41
1.0
 50
0.0
 71
0
 42
2.5
  3
LiberationSerif-Regular.ttf
  4

  0
STYLE
  5
53
330
5
100
AcDbSymbolTableRecord
100
AcDbTextStyleTableRecord
  2
LiberationSerif-Bold
 70
0
 40
0.0
 41
1.0
 50
0.0
 71
0
 42
2.5
  3
LiberationSerif-Bold.ttf
  4

  0
STYLE
  5
54
330
5
100
AcDbSymbolTableRecord
100
AcDbTextStyleTableRecord
  2
LiberationSerif-BoldItalic
 70
0
 40
0.0
 41
1.0
 50
0.0
 71
0
 42
2.5
  3
LiberationSerif-BoldItalic.ttf
  4

  0
STYLE
  5
55
330
5
100
AcDbSymbolTableRecord
100
AcDbTextStyleTableRecord
  2
LiberationSerif-Italic
 70
0
 40
0.0
 41
1.0
 50
0.0
 71
0
 42
2.5
  3
LiberationSerif-Italic.ttf
  4

  0
STYLE
  5
56
330
5
100
AcDbSymbolTableRecord
100
AcDbTextStyleTableRecord
  2
LiberationMono
 70
0
 40
0.0
 41
1.0
 50
0.0
 71
0
 42
2.5
  3
LiberationMono-Regular.ttf
  4

  0
STYLE
  5
57
330
5
100
AcDbSymbolTableRecord
100
AcDbTextStyleTableRecord
  2
LiberationMono-Bold
 70
0
 40
0.0
 41
1.0
 50
0.0
 71
0
 42
2.5
  3
LiberationMono-Bold.ttf
  4

  0
STYLE
  5
58
330
5
100
AcDbSymbolTableRecord
100
AcDbTextStyleTableRecord
  2
LiberationMono-BoldItalic
 70
0
 40
0.0
 41
1.0
 50
0.0
 71
0
 42
2.5
  3
LiberationMono-BoldItalic.ttf
  4

  0
STYLE
  5
59
330
5
100
AcDbSymbolTableRecord
100
AcDbTextStyleTableRecord
  2
LiberationMono-Italic
 70
0
 40
0.0
 41
1.0
 50
0.0
 71
0
 42
2.5
  3
LiberationMono-Italic.ttf
  4

  0
ENDTAB
  0
TABLE
  2
VIEW
  5
7
330
0
100
AcDbSymbolTable
 70
0
  0
ENDTAB
  0
TABLE
  2
UCS
  5
6
330
0
100
AcDbSymbolTable
 70
0
  0
ENDTAB
  0
TABLE
  2
APPID
  5
3
330
0
100
AcDbSymbolTable
 70
3
  0
APPID
  5
2A
330
3
100
AcDbSymbolTableRecord
100
AcDbRegAppTableRecord
  2
ACAD
 70
0
  0
APPID
  5
166
330
3
100
AcDbSymbolTableRecord
100
AcDbRegAppTableRecord
  2
HATCHBACKGROUNDCOLOR
 70
0
  0
APPID
  5
167
330
3
100
AcDbSymbolTableRecord
100
AcDbRegAppTableRecord
  2
EZDXF
 70
0
  0
ENDTAB
  0
TABLE
  2
DIMSTYLE
  5
4
330
0
100
AcDbSymbolTable
 70
12
100
AcDbDimStyleTable
  0
DIMSTYLE
105
2B
330
4
100
AcDbSymbolTableRecord
100
AcDbDimStyleTableRecord
  2
Standard
 70
0
 40
1.0
 41
2.5
 42
0.625
 43
3.75
 44
1.25
 45
0.0
 46
0.0
 47
0.0
 48
0.0
 49
2.5
140
2.5
141
2.5
142
0.0
143
0.03937007874
144
1.0
145
0.0
146
1.0
147
0.625
148
0.0
 69
0
 70
0
 71
0
 72
0
 73
0
 74
0
 75
0
 76
0
 77
1
 78
8
 79
3
170
0
171
3
172
1
173
0
174
0
175
0
176
0
177
0
178
0
179
2
271
2
272
2
273
2
274
3
275
0
276
0
277
2
278
44
279
0
280
0
281
0
282
0
283
0
284
8
285
0
286
0
288
0
289
3
290
0
371
-2
372
-2
  0
DIMSTYLE
105
73
330
4
100
AcDbSymbolTableRecord
100
AcDbDimStyleTableRecord
  2
EZDXF
 70
0
 40
1.0
 41
0.175
 42
0.125
 43
3.75
 44
0.375
 45
0.0
 46
0.0
 47
0.0
 48
0.0
 49
2.5
140
0.25
141
2.5
142
0.0
143
0.03937007874
144
100.0
145
0.0
146
0.5
147
0.1
148
0.0
 69
0
 70
0
 71
0
 72
0
 73
0
 74
0
 75
0
 76
0
 77
1
 78
12
 79
3
170
0
171
3
172
1
173
0
174
0
175
0
176
0
177
0
178
0
179
2
271
2
272
2
273
2
274
3
275
0
276
0
277
2
278
46
279
2
280
0
281
0
282
0
283
0
284
8
285
0
286
0
288
1
289
3
290
0
340
4C
342
74
371
-2
372
-2
  0
DIMSTYLE
105
7C
330
4
100
AcDbSymbolTableRecord
100
AcDbDimStyleTableRecord
  2
EZ_M_100_H25_CM
 70
0
 40
1.0
 41
0.25
 42
0.125
 43
3.75
 44
0.375
 45
0.0
 46
0.0
 47
0.0
 48
0.0
 49
2.5
140
0.25
141
2.5
142
0.125
143
0.03937007874
144
100.0
145
0.0
146
0.5
147
0.1
148
0.0
 69
0
 70
0
 71
0
 72
0
 73
0
 74
0
 75
0
 76
0
 77
1
 78
12
 79
3
170
0
171
3
172
1
173
0
174
0
175
0
176
0
177
0
178
0
179
2
271
2
272
2
273
2
274
3
275
0
276
0
277
2
278
46
279
2
280
0
281
0
282
0
283
0
284
8
285
0
286
0
288
1
289
3
290
0
340
4C
371
-2
372
-2
  0
DIMSTYLE
105
7D
330
4
100
AcDbSymbolTableRecord
100
AcDbDimStyleTableRecord
  2
EZ_M_50_H25_CM
 70
0
 40
1.0
 41
0.125
 42
0.0625
 43
3.75
 44
0.1875
 45
0.0
 46
0.0
 47
0.0
 48
0.0
 49
2.5
140
0.125
141
2.5
142
0.0625
143
0.03937007874
144
100.0
145
0.0
146
0.5
147
0.05
148
0.0
 69
0
 70
0
 71
0
 72
0
 73
0
 74
0
 75
0
 76
0
 77
1
 78
12
 79
3
170
0
171
3
172
1
173
0
174
0
175
0
176
0
177
0
178
0
179
2
271
2
272
2
273
2
274
3
275
0
276
0
277
2
278
46
279
2
280
0
281
0
282
0
283
0
284
8
285
0
286
0
288
1
289
3
290
0
340
4C
371
-2
372
-2
  0
DIMSTYLE
105
7E
330
4
100
AcDbSymbolTableRecord
100
AcDbDimStyleTableRecord
  2
EZ_M_25_H25_CM
 70
0
 40
1.0
 41
0.0625
 42
0.03125
 43
3.75
 44
0.09375
 45
0.0
 46
0.0
 47
0.0
 48
0.0
 49
2.5
140
0.0625
141
2.5
142
0.03125
143
0.03937007874
144
100.0
145
0.0
146
0.5
147
0.025
148
0.0
 69
0
 70
0
 71
0
 72
0
 73
0
 74
0
 75
0
 76
0
 77
1
 78
12
 79
3
170
0
171
3
172
1
173
0
174
0
175
0
176
0
177
0
178
0
179
2
271
2
272
2
273
2
274
3
275
0
276
0
277
2
278
46
279
2
280
0
281
0
282
0
283
0
284
8
285
0
286
0
288
1
289
3
290
0
340
4C
371
-2
372
-2
  0
DIMSTYLE
105
7F
330
4
100
AcDbSymbolTableRecord
100
AcDbDimStyleTableRecord
  2
EZ_M_20_H25_CM
 70
0
 40
1.0
 41
0.05
 42
0.025
 43
3.75
 44
0.07500000000000001
 45
0.0
 46
0.0
 47
0.0
 48
0.0
 49
2.5
140
0.05
141
2.5
142
0.025
143
0.03937007874
144
100.0
145
0.0
146
0.5
147
0.020000000000000004
148
0.0
 69
0
 70
0
 71
0
 72
0
 73
0
 74
0
 75
0
 76
0
 77
1
 78
12
 79
3
170
0
171
3
172
1
173
0
174
0
175
0
176
0
177
0
178
0
179
2
271
2
272
2
273
2
274
3
275
0
276
0
277
2
278
46
279
2
280
0
281
0
282
0
283
0
284
8
285
0
286
0
288
1
289
3
290
0
340
4C
371
-2
372
-2
  0
DIMSTYLE
105
80
330
4
100
AcDbSymbolTableRecord
100
AcDbDimStyleTableRecord
  2
EZ_M_10_H25_CM
 70
0
 40
1.0
 41
0.025
 42
0.0125
 43
3.75
 44
0.037500000000000006
 45
0.0
 46
0.0
 47
0.0
 48
0.0
 49
2.5
140
0.025
141
2.5
142
0.0125
143
0.03937007874
144
100.0
145
0.0
146
0.5
147
0.010000000000000002
148
0.0
 69
0
 70
0
 71
0
 72
0
 73
0
 74
0
 75
0
 76
0
 77
1
 78
12
 79
3
170
0
171
3
172
1
173
0
174
0
175
0
176
0
177
0
178
0
179
2
271
2
272
2
273
2
274
3
275
0
276
0
277
2
278
46
279
2
280
0
281
0
282
0
283
0
284
8
285
0
286
0
288
1
289
3
290
0
340
4C
371
-2
372
-2
  0
DIMSTYLE
105
81
330
4
100
AcDbSymbolTableRecord
100
AcDbDimStyleTableRecord
  2
EZ_M_5_H25_CM
 70
0
 40
1.0
 41
0.0125
 42
0.00625
 43
3.75
 44
0.018750000000000003
 45
0.0
 46
0.0
 47
0.0
 48
0.0
 49
2.5
140
0.0125
141
2.5
142
0.00625
143
0.03937007874
144
100.0
145
0.0
146
0.5
147
0.005000000000000001
148
0.0
 69
0
 70
0
 71
0
 72
0
 73
0
 74
0
 75
0
 76
0
 77
1
 78
12
 79
3
170
0
171
3
172
1
173
0
174
0
175
0
176
0
177
0
178
0
179
2
271
2
272
2
273
2
274
3
275
0
276
0
277
2
278
46
279
2
280
0
281
0
282
0
283
0
284
8
285
0
286
0
288
1
289
3
290
0
340
4C
371
-2
372
-2
  0
DIMSTYLE
105
82
330
4
100
AcDbSymbolTableRecord
100
AcDbDimStyleTableRecord
  2
EZ_M_1_H25_CM
 70
0
 40
1.0
 41
0.0025
 42
0.00125
 43
3.75
 44
0.00375
 45
0.0
 46
0.0
 47
0.0
 48
0.0
 49
2.5
140
0.0025
141
2.5
142
0.00125
143
0.03937007874
144
100.0
145
0.0
146
0.5
147
0.001
148
0.0
 69
0
 70
0
 71
0
 72
0
 73
0
 74
0
 75
0
 76
0
 77
1
 78
12
 79
3
170
0
171
3
172
1
173
0
174
0
175
0
176
0
177
0
178
0
179
2
271
2
272
2
273
2
274
3
275
0
276
0
277
2
278
46
279
2
280
0
281
0
282
0
283
0
284
8
285
0
286
0
288
1
289
3
290
0
340
4C
371
-2
372
-2
  0
DIMSTYLE
105
83
330
4
100
AcDbSymbolTableRecord
100
AcDbDimStyleTableRecord
  2
EZ_RADIUS
 70
0
 40
1.0
 41
0.25
 42
0.125
 43
3.75
 44
0.375
 45
0.0
 46
0.0
 47
0.0
 48
0.0
 49
2.5
140
0.25
141
0.0
142
0.0
143
0.03937007874
144
100.0
145
0.0
146
0.5
147
0.1
148
0.0
 69
0
 70
0
 71
0
 72
0
 73
0
 74
0
 75
0
 76
0
 77
1
 78
12
 79
3
170
0
171
3
172
0
173
0
174
0
175
0
176
0
177
0
178
0
179
2
271
2
272
2
273
2
274
3
275
0
276
0
277
2
278
46
279
1
280
0
281
0
282
0
283
0
284
8
285
0
286
0
288
1
289
3
290
0
340
4C
342
84
371
-2
372
-2
  0
DIMSTYLE
105
88
330
4
100
AcDbSymbolTableRecord
100
AcDbDimStyleTableRecord
  2
EZ_RADIUS_INSIDE
 70
0
 40
1.0
 41
0.25
 42
0.125
 43
3.75
 44
0.375
 45
0.0
 46
0.0
 47
0.0
 48
0.0
 49
2.5
140
0.25
141
0.0
142
0.0
143
0.03937007874
144
100.0
145
0.0
146
0.5
147
0.1
148
0.0
 69
0
 70
0
 71
0
 72
0
 73
0
 74
0
 75
0
 76
0
 77
0
 78
12
 79
3
170
0
171
3
172
0
173
0
174
1
175
0
176
0
177
0
178
0
179
2
271
2
272
2
273
2
274
3
275
0
276
0
277
2
278
46
279
0
280
0
281
0
282
0
283
0
284
8
285
0
286
0
288
1
289
0
290
0
340
4C
342
84
371
-2
372
-2
  0
DIMSTYLE
105
89
330
4
100
AcDbSymbolTableRecord
100
AcDbDimStyleTableRecord
  2
EZ_CURVED
 70
0
 40
1.0
 41
0.25
 42
0.125
 43
3.75
 44
0.375
 45
0.0
 46
0.0
 47
0.0
 48
0.0
 49
2.5
140
0.25
141
2.5
142
0.0
143
0.03937007874
144
100.0
145
0.0
146
0.5
147
0.1
148
0.0
 69
0
 70
0
 71
0
 72
0
 73
0
 74
0
 75
0
 76
0
 77
1
 78
12
 79
2
 90
2
170
0
171
3
172
1
173
0
174
0
175
0
176
0
177
0
178
0
179
2
271
2
272
2
273
2
274
3
275
0
276
0
277
2
278
46
279
2
280
0
281
0
282
0
283
0
284
8
285
0
286
0
288
1
289
3
290
0
340
4C
371
-2
372
-2
  0
ENDTAB
  0
TABLE
  2
BLOCK_RECORD
  5
9
330
0
100
AcDbSymbolTable
 70
5
  0
BLOCK_RECORD
  5
17
330
9
100
AcDbSymbolTableRecord
100
AcDbBlockTableRecord
  2
*Model_Space
340
1A
 70
0
280
1
281
0
  0
BLOCK_RECORD
  5
1B
330
9
100
AcDbSymbolTableRecord
100
AcDbBlockTableRecord
  2
*Paper_Space
340
1E
 70
0
280
1
281
0
  0
BLOCK_RECORD
  5
74
330
9
100
AcDbSymbolTableRecord
100
AcDbBlockTableRecord
  2
_ARCHTICK
340
0
 70
0
280
1
281
0
  0
BLOCK_RECORD
  5
78
330
9
100
AcDbSymbolTableRecord
100
AcDbBlockTableRecord
  2
_CLOSEDFILLED
340
0
 70
0
280
1
281
0
  0
BLOCK_RECORD
  5
84
330
9
100
AcDbSymbolTableRecord
100
AcDbBlockTableRecord
  2
_CLOSEDBLANK
340
0
 70
0
280
1
281
0
  0
ENDTAB
  0
ENDSEC
  0
SECTION
  2
BLOCKS
  0
BLOCK
  5
18
330
17
100
AcDbEntity
  8
0
100
AcDbBlockBegin
  2
*Model_Space
 70
0
 10
0.0
 20
0.0
 30
0.0
  3
*Model_Space
  1

  0
ENDBLK
  5
19
330
17
100
AcDbEntity
  8
0
100
AcDbBlockEnd
  0
BLOCK
  5
1C
330
1B
100
AcDbEntity
  8
0
100
AcDbBlockBegin
  2
*Paper_Space
 70
0
 10
0.0
 20
0.0
 30
0.0
  3
*Paper_Space
  1

  0
ENDBLK
  5
1D
330
1B
100
AcDbEntity
  8
0
100
AcDbBlockEnd
  0
BLOCK
  5
75
330
74
100
AcDbEntity
  8
0
100
AcDbBlockBegin
  2
_ARCHTICK
 70
0
 10
0.0
 20
0.0
 30
0.0
  3
_ARCHTICK
  1

  0
LWPOLYLINE
  5
77
330
74
100
AcDbEntity
  8
0
  6
BYBLOCK
 62
0
100
AcDbPolyline
 90
2
 70
0
 43
0.15
 10
-0.5
 20
-0.5
 10
0.5
 20
0.5
  0
ENDBLK
  5
76
330
74
100
AcDbEntity
  8
0
100
AcDbBlockEnd
  0
BLOCK
  5
79
330
78
100
AcDbEntity
  8
0
100
AcDbBlockBegin
  2
_CLOSEDFILLED
 70
0
 10
0.0
 20
0.0
 30
0.0
  3
_CLOSEDFILLED
  1

  0
SOLID
  5
7B
330
78
100
AcDbEntity
  8
0
  6
BYBLOCK
 62
0
100
AcDbTrace
 10
-1.0
 20
0.16439898372402537
 30
0.0
 11
0.0
 21
0.0
 31
0.0
 12
-1.0
 22
-0.16439898372402537
 32
0.0
 13
-1.0
 23
-0.16439898372402537
 33
0.0
  0
ENDBLK
  5
7A
330
78
100
AcDbEntity
  8
0
100
AcDbBlockEnd
  0
BLOCK
  5
85
330
84
100
AcDbEntity
  8
0
100
AcDbBlockBegin
  2
_CLOSEDBLANK
 70
0
 10
0.0
 20
0.0
 30
0.0
  3
_CLOSEDBLANK
  1

  0
LWPOLYLINE
  5
87
330
84
100
AcDbEntity
  8
0
  6
BYBLOCK
 62
0
100
AcDbPolyline
 90
3
 70
1
 10
-1.0
 20
0.16439898372402537
 10
0.0
 20
0.0
 10
-1.0
 20
-0.16439898372402537
  0
ENDBLK
  5
86
330
84
100
AcDbEntity
  8
0
100
AcDbBlockEnd
  0
ENDSEC
  0
SECTION
  2
ENTITIES
  0
HATCH
  5
8C
330
17
100
AcDbEntity
  8
Bathroom plan hatch
 62
7
100
AcDbHatch
 10
0.0
 20
0.0
 30
0.0
210
0.0
220
0.0
230
1.0
  2
ANSI31
 70
0
 71
0
 91
1
 92
3
 72
0
 73
1
 93
5
 10
0.0
 20
125.11811023622047
 10
165.11811023622047
 20
125.11811023622047
 10
165.11811023622047
 20
116.06299212598425
 10
0.0
 20
116.06299212598425
 10
0.0
 20
125.11811023622047
 97
0
 75
1
 76
1
 52
0.0
 41
0.15748031496062992
 77
0
 78
1
 53
45.0
 43
0.0
 44
0.0
 45
-0.0139194248
 46
0.0139194248
 79
0
 98
0
  0
HATCH
  5
8D
330
17
100
AcDbEntity
  8
Bathroom plan hatch
 62
7
100
AcDbHatch
 10
0.0
 20
0.0
 30
0.0
210
0.0
220
0.0
230
1.0
  2
ANSI31
 70
0
 71
0
 91
1
 92
3
 72
0
 73
1
 93
5
 10
0.0
 20
9.05511811023622
 10
165.11811023622047
 20
9.05511811023622
 10
165.11811023622047
 20
0.0
 10
0.0
 20
0.0
 10
0.0
 20
9.05511811023622
 97
0
 75
1
 76
1
 52
0.0
 41
0.15748031496062992
 77
0
 78
1
 53
45.0
 43
0.0
 44
0.0
 45
-0.0139194248
 46
0.0139194248
 79
0
 98
0
  0
HATCH
  5
8E
330
17
100
AcDbEntity
  8
Bathroom plan hatch
 62
7
100
AcDbHatch
 10
0.0
 20
0.0
 30
0.0
210
0.0
220
0.0
230
1.0
  2
ANSI31
 70
0
 71
0
 91
1
 92
3
 72
0
 73
1
 93
5
 10
0.0
 20
116.06299212598425
 10
9.05511811023622
 20
116.06299212598425
 10
9.05511811023622
 20
9.05511811023622
 10
0.0
 20
9.05511811023622
 10
0.0
 20
116.06299212598425
 97
0
 75
1
 76
1
 52
0.0
 41
0.15748031496062992
 77
0
 78
1
 53
45.0
 43
0.0
 44
0.0
 45
-0.0139194248
 46
0.0139194248
 79
0
 98
0
  0
HATCH
  5
8F
330
17
100
AcDbEntity
  8
Bathroom plan hatch
 62
7
100
AcDbHatch
 10
0.0
 20
0.0
 30
0.0
210
0.0
220
0.0
230
1.0
  2
ANSI31
 70
0
 71
0
 91
1
 92
3
 72
0
 73
1
 93
5
 10
156.06299212598424
 20
116.06299212598425
 10
165.11811023622047
 20
116.06299212598425
 10
165.11811023622047
 20
9.05511811023622
 10
156.06299212598424
 20
9.05511811023622
 10
156.06299212598424
 20
116.06299212598425
 97
0
 75
1
 76
1
 52
0.0
 41
0.15748031496062992
 77
0
 78
1
 53
45.0
 43
0.0
 44
0.0
 45
-0.0139194248
 46
0.0139194248
 79
0
 98
0
  0
LINE
  5
90
330
17
100
AcDbEntity
  8
Bathroom plan
100
AcDbLine
 10
24.015748031496063
 20
124.13385826771653
 30
0.0
 11
48.031496062992126
 21
124.13385826771653
 31
0.0
  0
LINE
  5
91
330
17
100
AcDbEntity
  8
Bathroom plan
100
AcDbLine
 10
24.015748031496063
 20
120.59055118110236
 30
0.0
 11
48.031496062992126
 21
120.59055118110236
 31
0.0
  0
LINE
  5
92
330
17
100
AcDbEntity
  8
Bathroom plan
100
AcDbLine
 10
24.015748031496063
 20
117.04724409448819
 30
0.0
 11
48.031496062992126
 21
117.04724409448819
 31
0.0
  0
LWPOLYLINE
  5
93
330
17
100
AcDbEntity
  8
Bathroom plan
100
AcDbPolyline
 90
5
 70
0
 10
9.05511811023622
 20
9.055118110236222
 10
10.551181102362204
 20
9.055118110236222
 10
10.551181102362204
 20
0.0
 10
9.05511811023622
 20
0.0
 10
9.05511811023622
 20
9.055118110236222
  0
LWPOLYLINE
  5
94
330
17
100
AcDbEntity
  8
Bathroom plan
100
AcDbPolyline
 90
5
 70
0
 10
37.55905511811024
 20
9.055118110236222
 10
39.05511811023622
 20
9.055118110236222
 10
39.05511811023622
 20
0.0
 10
37.55905511811024
 20
0.0
 10
37.55905511811024
 20
9.055118110236222
  0
HATCH
  5
95
330
17
100
AcDbEntity
  8
Bathroom plan hatch
 62
7
100
AcDbHatch
 10
0.0
 20
0.0
 30
0.0
210
0.0
220
0.0
230
1.0
  2
ANSI31
 70
0
 71
0
 91
1
 92
3
 72
0
 73
1
 93
5
 10
9.05511811023622
 20
116.06299212598425
 10
16.062992125984252
 20
116.06299212598425
 10
16.062992125984252
 20
73.07086614173228
 10
9.05511811023622
 20
73.07086614173228
 10
9.05511811023622
 20
116.06299212598425
 97
0
 75
1
 76
1
 52
0.0
 41
0.15748031496062992
 77
0
 78
1
 53
45.0
 43
0.0
 44
0.0
 45
-0.0139194248
 46
0.0139194248
 79
0
 98
0
  0
HATCH
  5
96
330
17
100
AcDbEntity
  8
Bathroom plan hatch
 62
7
100
AcDbHatch
 10
0.0
 20
0.0
 30
0.0
210
0.0
220
0.0
230
1.0
  2
ANSI31
 70
0
 71
0
 91
1
 92
3
 72
0
 73
1
 93
5
 10
109.05511811023622
 20
45.039370078740156
 10
119.05511811023622
 20
45.039370078740156
 10
119.05511811023622
 20
9.05511811023622
 10
109.05511811023622
 20
9.05511811023622
 10
109.05511811023622
 20
45.039370078740156
 97
0
 75
1
 76
1
 52
0.0
 41
0.15748031496062992
 77
0
 78
1
 53
45.0
 43
0.0
 44
0.0
 45
-0.0139194248
 46
0.0139194248
 79
0
 98
0
  0
LWPOLYLINE
  5
97
330
17
100
AcDbEntity
  8
Bathroom plan
100
AcDbPolyline
 90
4
 70
0
 10
0.0
 20
125.11811023622047
 10
165.11811023622045
 20
125.11811023622047
 10
165.11811023622045
 20
0.0
 10
39.05511811023622
 20
0.0
  0
LWPOLYLINE
  5
98
330
17
100
AcDbEntity
  8
Bathroom plan
100
AcDbPolyline
 90
3
 70
0
 10
9.05511811023622
 20
0.0
 10
0.0
 20
0.0
 10
9.05511811023622
 20
0.0
  0
LWPOLYLINE
  5
99
330
17
100
AcDbEntity
  8
Bathroom plan
100
AcDbPolyline
 90
2
 70
0
 10
9.05511811023622
 20
116.06299212598425
 10
24.015748031496063
 20
116.06299212598425
  0
LWPOLYLINE
  5
9A
330
17
100
AcDbEntity
  8
Bathroom plan
100
AcDbPolyline
 90
4
 70
0
 10
48.031496062992126
 20
116.06299212598425
 10
156.06299212598424
 20
116.06299212598425
 10
156.06299212598424
 20
9.055118110236222
 10
39.05511811023622
 20
9.055118110236222
  0
LWPOLYLINE
  5
9B
330
17
100
AcDbEntity
  8
Bathroom plan
100
AcDbPolyline
 90
3
 70
0
 10
9.05511811023622
 20
9.055118110236222
 10
9.05511811023622
 20
9.055118110236222
 10
9.05511811023622
 20
116.06299212598425
  0
LWPOLYLINE
  5
9C
330
17
100
AcDbEntity
  8
Bathroom plan
100
AcDbPolyline
 90
3
 70
0
 10
16.062992125984252
 20
116.06299212598425
 10
16.062992125984252
 20
73.07086614173228
 10
9.05511811023622
 20
73.07086614173228
  0
LWPOLYLINE
  5
9D
330
17
100
AcDbEntity
  8
Bathroom plan
100
AcDbPolyline
 90
4
 70
0
 10
109.05511811023622
 20
9.055118110236222
 10
109.05511811023622
 20
45.03937007874016
 10
119.05511811023622
 20
45.03937007874016
 10
119.05511811023622
 20
9.055118110236222
  0
LWPOLYLINE
  5
9E
330
17
100
AcDbEntity
  8
Bathroom plan
  6
DASHED
100
AcDbPolyline
 90
5
 70
0
 10
12.125984251968504
 20
114.48818897637796
 10
16.062992125984252
 20
114.48818897637796
 10
16.062992125984252
 20
102.67716535433071
 10
12.125984251968504
 20
102.67716535433071
 10
12.125984251968504
 20
114.48818897637796
  0
LWPOLYLINE
  5
9F
330
17
100
AcDbEntity
  8
Bathroom plan
  6
DASHED
100
AcDbPolyline
 90
5
 70
0
 10
12.125984251968504
 20
101.10236220472441
 10
16.062992125984252
 20
101.10236220472441
 10
16.062992125984252
 20
86.14173228346456
 10
12.125984251968504
 20
86.14173228346456
 10
12.125984251968504
 20
101.10236220472441
  0
LWPOLYLINE
  5
A0
330
17
100
AcDbEntity
  8
Bathroom plan
  6
DASHED
100
AcDbPolyline
 90
5
 70
0
 10
64.64566929133858
 20
115.4724409448819
 10
111.45669291338582
 20
115.4724409448819
 10
111.45669291338582
 20
75.66929133858267
 10
64.64566929133858
 20
75.66929133858267
 10
64.64566929133858
 20
115.4724409448819
  0
SPLINE
  5
A1
330
17
100
AcDbEntity
  8
Bathroom plan
  6
DASHED
100
AcDbSpline
 70
0
 71
3
 72
14
 73
10
 74
0
 40
0.0
 40
0.0
 40
0.0
 40
0.0
 40
1.0
 40
1.0
 40
1.0
 40
2.0
 40
2.0
 40
2.0
 40
3.0
 40
3.0
 40
3.0
 40
3.0
 10
37.55905511811024
 20
9.055118110236222
 30
0.0
 10
37.55905511811024
 20
13.79563725375965
 30
0.0
 10
36.31094567397136
 20
18.453645112692485
 30
0.0
 10
33.940686102209646
 20
22.559055118110237
 30
0.0
 10
31.570426530447932
 20
26.66446512352799
 30
0.0
 10
28.16052811565396
 20
30.074363538321947
 30
0.0
 10
24.055118110236222
 20
32.444623110083654
 30
0.0
 10
19.949708104818484
 20
34.814882681845376
 30
0.0
 10
15.291700245885632
 20
36.06299212598425
 30
0.0
 10
10.551181102362204
 20
36.06299212598425
 30
0.0
  0
LWPOLYLINE
  5
A2
330
17
100
AcDbEntity
  8
Bathroom plan
100
AcDbPolyline
 90
5
 70
0
 10
10.551181102362204
 20
36.06299212598425
 10
12.125984251968504
 20
36.06299212598425
 10
12.125984251968504
 20
9.055118110236222
 10
10.551181102362204
 20
9.055118110236222
 10
10.551181102362204
 20
36.06299212598425
  0
LWPOLYLINE
  5
A3
330
17
100
AcDbEntity
  8
Bathroom plan
  6
DASHED
100
AcDbPolyline
 90
5
 70
0
 10
9.84251968503937
 20
104.6259842519685
 10
15.472440944881889
 20
104.6259842519685
 10
15.472440944881889
 20
86.51574803149606
 10
9.84251968503937
 20
86.51574803149606
 10
9.84251968503937
 20
104.6259842519685
  0
POLYLINE
  5
A4
330
17
100
AcDbEntity
  8
Bathroom plan
100
AcDb2dPolyline
 66
1
 10
0.0
 20
0.0
 30
0.0
 70
0
  0
VERTEX
  5
A5
330
A4
100
AcDbEntity
  8
Bathroom plan
100
AcDbVertex
100
AcDb2dVertex
 10
16.062992125984252
 20
102.65748031496062
 30
0.0
 70
0
  0
VERTEX
  5
A6
330
A4
100
AcDbEntity
  8
Bathroom plan
100
AcDbVertex
100
AcDb2dVertex
 10
23.54330708661417
 20
102.65748031496062
 30
0.0
 70
0
  0
SEQEND
  5
A7
330
A4
100
AcDbEntity
  8
Bathroom plan
  0
SPLINE
  5
A8
330
17
100
AcDbEntity
  8
Bathroom plan
100
AcDbSpline
 70
0
 71
3
 72
23
 73
19
 74
0
 40
0.0
 40
0.0
 40
0.0
 40
0.0
 40
1.0
 40
1.0
 40
1.0
 40
2.0
 40
2.0
 40
2.0
 40
3.0
 40
3.0
 40
3.0
 40
4.0
 40
4.0
 40
4.0
 40
5.0
 40
5.0
 40
5.0
 40
6.0
 40
6.0
 40
6.0
 40
6.0
 10
23.54330708661417
 20
102.65748031496062
 30
0.0
 10
25.96193930269755
 20
102.65748031496062
 30
0.0
 10
28.33847392460207
 20
102.32998804098833
 30
0.0
 10
30.433070866141733
 20
101.70805404256689
 30
0.0
 10
32.5276678076814
 20
101.08612004414545
 30
0.0
 10
34.26741189686199
 20
100.19139451256686
 30
0.0
 10
35.47672800490368
 20
99.11417322834646
 30
0.0
 10
36.686044112945375
 20
98.03695194412606
 30
0.0
 10
37.32283464566929
 20
96.81473413857516
 30
0.0
 10
37.32283464566929
 20
95.57086614173228
 30
0.0
 10
37.32283464566929
 20
94.3269981448894
 30
0.0
 10
36.686044112945375
 20
93.1047803393385
 30
0.0
 10
35.476728004903684
 20
92.0275590551181
 30
0.0
 10
34.267411896861994
 20
90.9503377708977
 30
0.0
 10
32.5276678076814
 20
90.05561223931912
 30
0.0
 10
30.433070866141733
 20
89.43367824089768
 30
0.0
 10
28.338473924602077
 20
88.81174424247624
 30
0.0
 10
25.96193930269755
 20
88.48425196850394
 30
0.0
 10
23.54330708661417
 20
88.48425196850394
 30
0.0
  0
POLYLINE
  5
A9
330
17
100
AcDbEntity
  8
Bathroom plan
100
AcDb2dPolyline
 66
1
 10
0.0
 20
0.0
 30
0.0
 70
0
  0
VERTEX
  5
AA
330
A9
100
AcDbEntity
  8
Bathroom plan
100
AcDbVertex
100
AcDb2dVertex
 10
23.54330708661417
 20
88.48425196850394
 30
0.0
 70
0
  0
VERTEX
  5
AB
330
A9
100
AcDbEntity
  8
Bathroom plan
100
AcDbVertex
100
AcDb2dVertex
 10
16.062992125984252
 20
88.48425196850394
 30
0.0
 70
0
  0
VERTEX
  5
AC
330
A9
100
AcDbEntity
  8
Bathroom plan
100
AcDbVertex
100
AcDb2dVertex
 10
16.062992125984252
 20
102.65748031496062
 30
0.0
 70
0
  0
SEQEND
  5
AD
330
A9
100
AcDbEntity
  8
Bathroom plan
  0
SPLINE
  5
AE
330
17
100
AcDbEntity
  8
Bathroom plan
100
AcDbSpline
 70
0
 71
3
 72
41
 73
37
 74
0
 40
0.0
 40
0.0
 40
0.0
 40
0.0
 40
1.0
 40
1.0
 40
1.0
 40
2.0
 40
2.0
 40
2.0
 40
3.0
 40
3.0
 40
3.0
 40
4.0
 40
4.0
 40
4.0
 40
5.0
 40
5.0
 40
5.0
 40
6.0
 40
6.0
 40
6.0
 40
7.0
 40
7.0
 40
7.0
 40
8.0
 40
8.0
 40
8.0
 40
9.0
 40
9.0
 40
9.0
 40
10.0
 40
10.0
 40
10.0
 40
11.0
 40
11.0
 40
11.0
 40
12.0
 40
12.0
 40
12.0
 40
12.0
 10
35.74803149606299
 20
95.57086614173228
 30
0.0
 10
35.74803149606299
 20
94.7070689217025
 30
0.0
 10
35.438733237311375
 20
93.85830655673661
 30
0.0
 10
34.851351127691125
 20
93.11023622047244
 30
0.0
 10
34.263969018070874
 20
92.36216588420828
 30
0.0
 10
33.41895046046887
 20
91.74082870950092
 30
0.0
 10
32.40157480314961
 20
91.30893009948603
 30
0.0
 10
31.384199145830337
 20
90.87703148947114
 30
0.0
 10
30.229882329476716
 20
90.64960629921259
 30
0.0
 10
29.055118110236222
 20
90.64960629921259
 30
0.0
 10
27.88035389099572
 20
90.64960629921259
 30
0.0
 10
26.7260370746421
 20
90.87703148947114
 30
0.0
 10
25.708661417322837
 20
91.30893009948603
 30
0.0
 10
24.69128576000357
 20
91.74082870950092
 30
0.0
 10
23.846267202401567
 20
92.36216588420828
 30
0.0
 10
23.25888509278132
 20
93.11023622047244
 30
0.0
 10
22.67150298316107
 20
93.85830655673661
 30
0.0
 10
22.362204724409448
 20
94.7070689217025
 30
0.0
 10
22.362204724409448
 20
95.57086614173228
 30
0.0
 10
22.362204724409448
 20
96.43466336176206
 30
0.0
 10
22.671502983161066
 20
97.28342572672796
 30
0.0
 10
23.258885092781313
 20
98.03149606299212
 30
0.0
 10
23.846267202401563
 20
98.7795663992563
 30
0.0
 10
24.691285760003566
 20
99.40090357396365
 30
0.0
 10
25.70866141732283
 20
99.83280218397854
 30
0.0
 10
26.726037074642093
 20
100.26470079399343
 30
0.0
 10
27.88035389099572
 20
100.49212598425197
 30
0.0
 10
29.055118110236215
 20
100.49212598425197
 30
0.0
 10
30.229882329476716
 20
100.49212598425197
 30
0.0
 10
31.384199145830337
 20
100.26470079399343
 30
0.0
 10
32.40157480314961
 20
99.83280218397854
 30
0.0
 10
33.41895046046887
 20
99.40090357396365
 30
0.0
 10
34.263969018070874
 20
98.77956639925628
 30
0.0
 10
34.851351127691125
 20
98.03149606299212
 30
0.0
 10
35.43873323731137
 20
97.28342572672796
 30
0.0
 10
35.74803149606299
 20
96.43466336176206
 30
0.0
 10
35.74803149606299
 20
95.57086614173228
 30
0.0
  0
LWPOLYLINE
  5
AF
330
17
100
AcDbEntity
  8
Bathroom plan
100
AcDbPolyline
 90
5
 70
0
 10
16.062992125984252
 20
85.33464566929135
 10
16.53543307086614
 20
85.33464566929135
 10
16.53543307086614
 20
76.6732283464567
 10
16.062992125984252
 20
76.6732283464567
 10
16.062992125984252
 20
85.33464566929135
  0
LWPOLYLINE
  5
B0
330
17
100
AcDbEntity
  8
Bathroom plan
100
AcDbPolyline
 90
5
 70
0
 10
66.41732283464566
 20
113.30708661417323
 10
109.68503937007874
 20
113.30708661417323
 10
109.68503937007874
 20
110.94488188976378
 10
66.41732283464566
 20
110.94488188976378
 10
66.41732283464566
 20
113.30708661417323
  0
CIRCLE
  5
B1
330
17
100
AcDbEntity
  8
Bathroom plan
  6
DASHED
100
AcDbCircle
 10
88.05118110236221
 20
101.10236220472441
 30
0.0
 40
4.921259842519685
  0
LINE
  5
B2
330
17
100
AcDbEntity
  8
Bathroom plan
  6
DASHED
100
AcDbLine
 10
88.05118110236221
 20
116.06299212598425
 30
0.0
 11
88.05118110236221
 21
101.10236220472441
 31
0.0
  0
LWPOLYLINE
  5
B3
330
17
100
AcDbEntity
  8
Bathroom plan
100
AcDbPolyline
 90
5
 70
0
 10
85.68897637795276
 20
116.06299212598425
 10
90.41338582677166
 20
116.06299212598425
 10
90.41338582677166
 20
114.48818897637796
 10
85.68897637795276
 20
114.48818897637796
 10
85.68897637795276
 20
116.06299212598425
  0
LWPOLYLINE
  5
B4
330
17
100
AcDbEntity
  8
Bathroom plan
  6
DASHED
100
AcDbPolyline
 90
5
 70
0
 10
65.23622047244095
 20
114.88188976377953
 10
110.86614173228347
 20
114.88188976377953
 10
110.86614173228347
 20
76.25984251968504
 10
65.23622047244095
 20
76.25984251968504
 10
65.23622047244095
 20
114.88188976377953
  0
LWPOLYLINE
  5
B5
330
17
100
AcDbEntity
  8
Bathroom plan
100
AcDbPolyline
 90
5
 70
0
 10
16.062992125984252
 20
75.07874015748033
 10
112.24409448818898
 20
75.07874015748033
 10
112.24409448818898
 20
74.68503937007874
 10
16.062992125984252
 20
74.68503937007874
 10
16.062992125984252
 20
75.07874015748033
  0
LWPOLYLINE
  5
B6
330
17
100
AcDbEntity
  8
Bathroom plan
100
AcDbPolyline
 90
5
 70
0
 10
63.85826771653544
 20
116.06299212598425
 10
64.25196850393701
 20
116.06299212598425
 10
64.25196850393701
 20
75.07874015748033
 10
63.85826771653544
 20
75.07874015748033
 10
63.85826771653544
 20
116.06299212598425
  0
LWPOLYLINE
  5
B7
330
17
100
AcDbEntity
  8
Bathroom plan
100
AcDbPolyline
 90
5
 70
0
 10
111.85039370078741
 20
116.06299212598425
 10
112.24409448818898
 20
116.06299212598425
 10
112.24409448818898
 20
75.07874015748033
 10
111.85039370078741
 20
75.07874015748033
 10
111.85039370078741
 20
116.06299212598425
  0
SPLINE
  5
B8
330
17
100
AcDbEntity
  8
Bathroom plan
  6
DASHED
100
AcDbSpline
 70
0
 71
3
 72
14
 73
10
 74
0
 40
0.0
 40
0.0
 40
0.0
 40
0.0
 40
1.0
 40
1.0
 40
1.0
 40
2.0
 40
2.0
 40
2.0
 40
3.0
 40
3.0
 40
3.0
 40
3.0
 10
63.818897637795274
 20
75.07874015748033
 30
0.0
 10
63.818897637795274
 20
70.73902292405072
 30
0.0
 10
62.676313481936354
 20
66.47484080246204
 30
0.0
 10
60.50645486522155
 20
62.71653543307087
 30
0.0
 10
58.33659624850675
 20
58.9582300636797
 30
0.0
 10
55.214998282776996
 20
55.836632097949945
 30
0.0
 10
51.45669291338583
 20
53.66677348123514
 30
0.0
 10
47.69838754399466
 20
51.496914864520335
 30
0.0
 10
43.43420542240599
 20
50.35433070866142
 30
0.0
 10
39.09448818897638
 20
50.35433070866142
 30
0.0
  0
LWPOLYLINE
  5
B9
330
17
100
AcDbEntity
  8
Bathroom plan
100
AcDbPolyline
 90
5
 70
0
 10
39.09448818897638
 20
75.07874015748033
 10
39.488188976377955
 20
75.07874015748033
 10
39.488188976377955
 20
50.35433070866142
 10
39.09448818897638
 20
50.35433070866142
 10
39.09448818897638
 20
75.07874015748033
  0
LWPOLYLINE
  5
BA
330
17
100
AcDbEntity
  8
Bathroom plan
100
AcDbPolyline
 90
5
 70
0
 10
38.62204724409449
 20
73.29291338582678
 10
39.960629921259844
 20
73.29291338582678
 10
39.960629921259844
 20
70.93070866141733
 10
38.62204724409449
 20
70.93070866141733
 10
38.62204724409449
 20
73.29291338582678
  0
LWPOLYLINE
  5
BB
330
17
100
AcDbEntity
  8
Bathroom plan
100
AcDbPolyline
 90
5
 70
0
 10
38.62204724409449
 20
54.502362204724406
 10
39.960629921259844
 20
54.502362204724406
 10
39.960629921259844
 20
52.140157480314954
 10
38.62204724409449
 20
52.140157480314954
 10
38.62204724409449
 20
54.502362204724406
  0
SPLINE
  5
BC
330
17
100
AcDbEntity
  8
Bathroom plan
  6
DASHED
100
AcDbSpline
 70
0
 71
3
 72
14
 73
10
 74
0
 40
0.0
 40
0.0
 40
0.0
 40
0.0
 40
1.0
 40
1.0
 40
1.0
 40
2.0
 40
2.0
 40
2.0
 40
3.0
 40
3.0
 40
3.0
 40
3.0
 10
87.91338582677166
 20
75.07874015748033
 30
0.0
 10
87.91338582677166
 20
70.93251350133738
 30
0.0
 10
86.82174491353065
 20
66.85845414950107
 30
0.0
 10
84.74863158545918
 20
63.267716535433074
 30
0.0
 10
82.67551825738772
 20
59.67697892136508
 30
0.0
 10
79.6930998187924
 20
56.694560482769774
 30
0.0
 10
76.10236220472441
 20
54.6214471546983
 30
0.0
 10
72.51162459065641
 20
52.54833382662682
 30
0.0
 10
68.4375652388201
 20
51.45669291338582
 30
0.0
 10
64.29133858267716
 20
51.45669291338582
 30
0.0
  0
LWPOLYLINE
  5
BD
330
17
100
AcDbEntity
  8
Bathroom plan
100
AcDbPolyline
 90
5
 70
0
 10
64.29133858267716
 20
75.07874015748033
 10
64.68503937007874
 20
75.07874015748033
 10
64.68503937007874
 20
51.45669291338582
 10
64.29133858267716
 20
51.45669291338582
 10
64.29133858267716
 20
75.07874015748033
  0
LWPOLYLINE
  5
BE
330
17
100
AcDbEntity
  8
Bathroom plan
100
AcDbPolyline
 90
5
 70
0
 10
63.818897637795274
 20
73.4251968503937
 10
65.15748031496062
 20
73.4251968503937
 10
65.15748031496062
 20
71.06299212598425
 10
63.818897637795274
 20
71.06299212598425
 10
63.818897637795274
 20
73.4251968503937
  0
LWPOLYLINE
  5
BF
330
17
100
AcDbEntity
  8
Bathroom plan
100
AcDbPolyline
 90
5
 70
0
 10
63.818897637795274
 20
55.47244094488189
 10
65.15748031496062
 20
55.47244094488189
 10
65.15748031496062
 20
53.110236220472444
 10
63.818897637795274
 20
53.110236220472444
 10
63.818897637795274
 20
55.47244094488189
  0
POLYLINE
  5
C0
330
17
100
AcDbEntity
  8
Bathroom plan
100
AcDb2dPolyline
 66
1
 10
0.0
 20
0.0
 30
0.0
 70
0
  0
VERTEX
  5
C1
330
C0
100
AcDbEntity
  8
Bathroom plan
100
AcDbVertex
100
AcDb2dVertex
 10
137.55905511811022
 20
106.22047244094489
 30
0.0
 70
0
  0
VERTEX
  5
C2
330
C0
100
AcDbEntity
  8
Bathroom plan
100
AcDbVertex
100
AcDb2dVertex
 10
137.55905511811022
 20
106.22047244094489
 30
0.0
 70
0
  0
SEQEND
  5
C3
330
C0
100
AcDbEntity
  8
Bathroom plan
  0
SPLINE
  5
C4
330
17
100
AcDbEntity
  8
Bathroom plan
100
AcDbSpline
 70
0
 71
3
 72
14
 73
10
 74
0
 40
0.0
 40
0.0
 40
0.0
 40
0.0
 40
1.0
 40
1.0
 40
1.0
 40
2.0
 40
2.0
 40
2.0
 40
3.0
 40
3.0
 40
3.0
 40
3.0
 10
137.55905511811022
 20
106.22047244094489
 30
0.0
 10
140.3232062222055
 20
106.22047244094489
 30
0.0
 10
143.0392457900964
 20
105.318049285999
 30
0.0
 10
145.43307086614172
 20
103.6042756014599
 30
0.0
 10
147.82689594218704
 20
101.89050191692083
 30
0.0
 10
149.8151749012506
 20
99.42503600768204
 30
0.0
 10
151.19725045329824
 20
96.45669291338584
 30
0.0
 10
152.57932600534588
 20
93.48834981908962
 30
0.0
 10
153.30708661417322
 20
90.12046075490494
 30
0.0
 10
153.30708661417322
 20
86.69291338582677
 30
0.0
  0
POLYLINE
  5
C5
330
17
100
AcDbEntity
  8
Bathroom plan
100
AcDb2dPolyline
 66
1
 10
0.0
 20
0.0
 30
0.0
 70
0
  0
VERTEX
  5
C6
330
C5
100
AcDbEntity
  8
Bathroom plan
100
AcDbVertex
100
AcDb2dVertex
 10
153.30708661417322
 20
86.69291338582677
 30
0.0
 70
0
  0
VERTEX
  5
C7
330
C5
100
AcDbEntity
  8
Bathroom plan
100
AcDbVertex
100
AcDb2dVertex
 10
153.30708661417322
 20
58.818897637795274
 30
0.0
 70
0
  0
SEQEND
  5
C8
330
C5
100
AcDbEntity
  8
Bathroom plan
  0
SPLINE
  5
C9
330
17
100
AcDbEntity
  8
Bathroom plan
100
AcDbSpline
 70
0
 71
3
 72
14
 73
10
 74
0
 40
0.0
 40
0.0
 40
0.0
 40
0.0
 40
1.0
 40
1.0
 40
1.0
 40
2.0
 40
2.0
 40
2.0
 40
3.0
 40
3.0
 40
3.0
 40
3.0
 10
153.30708661417322
 20
58.818897637795274
 30
0.0
 10
153.30708661417322
 20
55.39135026871711
 30
0.0
 10
152.57932600534588
 20
52.023461204532424
 30
0.0
 10
151.19725045329824
 20
49.05511811023622
 30
0.0
 10
149.8151749012506
 20
46.086775015940006
 30
0.0
 10
147.82689594218704
 20
43.62130910670123
 30
0.0
 10
145.43307086614172
 20
41.90753542216214
 30
0.0
 10
143.0392457900964
 20
40.19376173762306
 30
0.0
 10
140.3232062222055
 20
39.29133858267717
 30
0.0
 10
137.55905511811022
 20
39.29133858267717
 30
0.0
  0
POLYLINE
  5
CA
330
17
100
AcDbEntity
  8
Bathroom plan
100
AcDb2dPolyline
 66
1
 10
0.0
 20
0.0
 30
0.0
 70
0
  0
VERTEX
  5
CB
330
CA
100
AcDbEntity
  8
Bathroom plan
100
AcDbVertex
100
AcDb2dVertex
 10
137.55905511811022
 20
39.29133858267717
 30
0.0
 70
0
  0
VERTEX
  5
CC
330
CA
100
AcDbEntity
  8
Bathroom plan
100
AcDbVertex
100
AcDb2dVertex
 10
137.55905511811022
 20
39.29133858267717
 30
0.0
 70
0
  0
SEQEND
  5
CD
330
CA
100
AcDbEntity
  8
Bathroom plan
  0
SPLINE
  5
CE
330
17
100
AcDbEntity
  8
Bathroom plan
100
AcDbSpline
 70
0
 71
3
 72
14
 73
10
 74
0
 40
0.0
 40
0.0
 40
0.0
 40
0.0
 40
1.0
 40
1.0
 40
1.0
 40
2.0
 40
2.0
 40
2.0
 40
3.0
 40
3.0
 40
3.0
 40
3.0
 10
137.55905511811022
 20
39.29133858267717
 30
0.0
 10
134.79490401401495
 20
39.29133858267717
 30
0.0
 10
132.07886444612407
 20
40.19376173762306
 30
0.0
 10
129.68503937007873
 20
41.90753542216214
 30
0.0
 10
127.29121429403341
 20
43.62130910670122
 30
0.0
 10
125.30293533496989
 20
46.086775015940006
 30
0.0
 10
123.92085978292224
 20
49.05511811023621
 30
0.0
 10
122.5387842308746
 20
52.023461204532424
 30
0.0
 10
121.81102362204724
 20
55.39135026871711
 30
0.0
 10
121.81102362204724
 20
58.818897637795274
 30
0.0
  0
POLYLINE
  5
CF
330
17
100
AcDbEntity
  8
Bathroom plan
100
AcDb2dPolyline
 66
1
 10
0.0
 20
0.0
 30
0.0
 70
0
  0
VERTEX
  5
D0
330
CF
100
AcDbEntity
  8
Bathroom plan
100
AcDbVertex
100
AcDb2dVertex
 10
121.81102362204724
 20
58.818897637795274
 30
0.0
 70
0
  0
VERTEX
  5
D1
330
CF
100
AcDbEntity
  8
Bathroom plan
100
AcDbVertex
100
AcDb2dVertex
 10
121.81102362204724
 20
86.69291338582677
 30
0.0
 70
0
  0
SEQEND
  5
D2
330
CF
100
AcDbEntity
  8
Bathroom plan
  0
SPLINE
  5
D3
330
17
100
AcDbEntity
  8
Bathroom plan
100
AcDbSpline
 70
0
 71
3
 72
14
 73
10
 74
0
 40
0.0
 40
0.0
 40
0.0
 40
0.0
 40
1.0
 40
1.0
 40
1.0
 40
2.0
 40
2.0
 40
2.0
 40
3.0
 40
3.0
 40
3.0
 40
3.0
 10
121.81102362204724
 20
86.69291338582677
 30
0.0
 10
121.81102362204724
 20
90.12046075490494
 30
0.0
 10
122.53878423087457
 20
93.48834981908962
 30
0.0
 10
123.92085978292222
 20
96.45669291338582
 30
0.0
 10
125.30293533496986
 20
99.42503600768202
 30
0.0
 10
127.29121429403341
 20
101.89050191692081
 30
0.0
 10
129.68503937007873
 20
103.6042756014599
 30
0.0
 10
132.07886444612407
 20
105.31804928599898
 30
0.0
 10
134.79490401401495
 20
106.22047244094489
 30
0.0
 10
137.55905511811022
 20
106.22047244094489
 30
0.0
  0
POLYLINE
  5
D4
330
17
100
AcDbEntity
  8
Bathroom plan
100
AcDb2dPolyline
 66
1
 10
0.0
 20
0.0
 30
0.0
 70
0
  0
VERTEX
  5
D5
330
D4
100
AcDbEntity
  8
Bathroom plan
100
AcDbVertex
100
AcDb2dVertex
 10
137.55905511811022
 20
103.85826771653544
 30
0.0
 70
0
  0
VERTEX
  5
D6
330
D4
100
AcDbEntity
  8
Bathroom plan
100
AcDbVertex
100
AcDb2dVertex
 10
137.55905511811022
 20
103.85826771653544
 30
0.0
 70
0
  0
SEQEND
  5
D7
330
D4
100
AcDbEntity
  8
Bathroom plan
  0
SPLINE
  5
D8
330
17
100
AcDbEntity
  8
Bathroom plan
100
AcDbSpline
 70
0
 71
3
 72
14
 73
10
 74
0
 40
0.0
 40
0.0
 40
0.0
 40
0.0
 40
1.0
 40
1.0
 40
1.0
 40
2.0
 40
2.0
 40
2.0
 40
3.0
 40
3.0
 40
3.0
 40
3.0
 10
137.55905511811022
 20
103.85826771653544
 30
0.0
 10
139.90858355659122
 20
103.85826771653544
 30
0.0
 10
142.21721718929848
 20
103.06500865291363
 30
0.0
 10
144.251968503937
 20
101.5585463011817
 30
0.0
 10
146.2867198185755
 20
100.05208394944977
 30
0.0
 10
147.97675693377954
 20
97.88485988407051
 30
0.0
 10
149.15152115302004
 20
95.2755905511811
 30
0.0
 10
150.32628537226051
 20
92.6663212182917
 30
0.0
 10
150.94488188976376
 20
89.70583808929064
 30
0.0
 10
150.94488188976376
 20
86.69291338582677
 30
0.0
  0
POLYLINE
  5
D9
330
17
100
AcDbEntity
  8
Bathroom plan
100
AcDb2dPolyline
 66
1
 10
0.0
 20
0.0
 30
0.0
 70
0
  0
VERTEX
  5
DA
330
D9
100
AcDbEntity
  8
Bathroom plan
100
AcDbVertex
100
AcDb2dVertex
 10
150.94488188976376
 20
86.69291338582677
 30
0.0
 70
0
  0
VERTEX
  5
DB
330
D9
100
AcDbEntity
  8
Bathroom plan
100
AcDbVertex
100
AcDb2dVertex
 10
150.94488188976376
 20
58.818897637795274
 30
0.0
 70
0
  0
SEQEND
  5
DC
330
D9
100
AcDbEntity
  8
Bathroom plan
  0
SPLINE
  5
DD
330
17
100
AcDbEntity
  8
Bathroom plan
100
AcDbSpline
 70
0
 71
3
 72
14
 73
10
 74
0
 40
0.0
 40
0.0
 40
0.0
 40
0.0
 40
1.0
 40
1.0
 40
1.0
 40
2.0
 40
2.0
 40
2.0
 40
3.0
 40
3.0
 40
3.0
 40
3.0
 10
150.94488188976376
 20
58.818897637795274
 30
0.0
 10
150.94488188976376
 20
55.8059729343314
 30
0.0
 10
150.32628537226051
 20
52.84548980533035
 30
0.0
 10
149.15152115302004
 20
50.23622047244095
 30
0.0
 10
147.97675693377954
 20
47.62695113955154
 30
0.0
 10
146.2867198185755
 20
45.45972707417228
 30
0.0
 10
144.251968503937
 20
43.95326472244035
 30
0.0
 10
142.21721718929848
 20
42.44680237070841
 30
0.0
 10
139.90858355659122
 20
41.65354330708662
 30
0.0
 10
137.55905511811022
 20
41.65354330708662
 30
0.0
  0
POLYLINE
  5
DE
330
17
100
AcDbEntity
  8
Bathroom plan
100
AcDb2dPolyline
 66
1
 10
0.0
 20
0.0
 30
0.0
 70
0
  0
VERTEX
  5
DF
330
DE
100
AcDbEntity
  8
Bathroom plan
100
AcDbVertex
100
AcDb2dVertex
 10
137.55905511811022
 20
41.65354330708662
 30
0.0
 70
0
  0
VERTEX
  5
E0
330
DE
100
AcDbEntity
  8
Bathroom plan
100
AcDbVertex
100
AcDb2dVertex
 10
137.55905511811022
 20
41.65354330708662
 30
0.0
 70
0
  0
SEQEND
  5
E1
330
DE
100
AcDbEntity
  8
Bathroom plan
  0
SPLINE
  5
E2
330
17
100
AcDbEntity
  8
Bathroom plan
100
AcDbSpline
 70
0
 71
3
 72
14
 73
10
 74
0
 40
0.0
 40
0.0
 40
0.0
 40
0.0
 40
1.0
 40
1.0
 40
1.0
 40
2.0
 40
2.0
 40
2.0
 40
3.0
 40
3.0
 40
3.0
 40
3.0
 10
137.55905511811022
 20
41.65354330708662
 30
0.0
 10
135.20952667962922
 20
41.65354330708662
 30
0.0
 10
132.900893046922
 20
42.44680237070841
 30
0.0
 10
130.86614173228347
 20
43.95326472244035
 30
0.0
 10
128.83139041764494
 20
45.45972707417228
 30
0.0
 10
127.14135330244092
 20
47.62695113955152
 30
0.0
 10
125.96658908320043
 20
50.236220472440934
 30
0.0
 10
124.79182486395993
 20
52.845489805330345
 30
0.0
 10
124.1732283464567
 20
55.8059729343314
 30
0.0
 10
124.1732283464567
 20
58.818897637795274
 30
0.0
  0
POLYLINE
  5
E3
330
17
100
AcDbEntity
  8
Bathroom plan
100
AcDb2dPolyline
 66
1
 10
0.0
 20
0.0
 30
0.0
 70
0
  0
VERTEX
  5
E4
330
E3
100
AcDbEntity
  8
Bathroom plan
100
AcDbVertex
100
AcDb2dVertex
 10
124.1732283464567
 20
58.818897637795274
 30
0.0
 70
0
  0
VERTEX
  5
E5
330
E3
100
AcDbEntity
  8
Bathroom plan
100
AcDbVertex
100
AcDb2dVertex
 10
124.1732283464567
 20
86.69291338582677
 30
0.0
 70
0
  0
SEQEND
  5
E6
330
E3
100
AcDbEntity
  8
Bathroom plan
  0
SPLINE
  5
E7
330
17
100
AcDbEntity
  8
Bathroom plan
100
AcDbSpline
 70
0
 71
3
 72
14
 73
10
 74
0
 40
0.0
 40
0.0
 40
0.0
 40
0.0
 40
1.0
 40
1.0
 40
1.0
 40
2.0
 40
2.0
 40
2.0
 40
3.0
 40
3.0
 40
3.0
 40
3.0
 10
124.1732283464567
 20
86.69291338582677
 30
0.0
 10
124.1732283464567
 20
89.70583808929064
 30
0.0
 10
124.79182486395993
 20
92.66632121829169
 30
0.0
 10
125.96658908320043
 20
95.2755905511811
 30
0.0
 10
127.14135330244092
 20
97.88485988407051
 30
0.0
 10
128.83139041764494
 20
100.05208394944975
 30
0.0
 10
130.86614173228347
 20
101.55854630118169
 30
0.0
 10
132.900893046922
 20
103.06500865291363
 30
0.0
 10
135.20952667962922
 20
103.85826771653544
 30
0.0
 10
137.55905511811022
 20
103.85826771653544
 30
0.0
  0
CIRCLE
  5
E8
330
17
100
AcDbEntity
  8
Bathroom plan
100
AcDbCircle
 10
137.55905511811022
 20
49.52755905511811
 30
0.0
 40
1.1023622047244095
  0
CIRCLE
  5
E9
330
17
100
AcDbEntity
  8
Bathroom plan
100
AcDbCircle
 10
137.55905511811022
 20
110.55118110236221
 30
0.0
 40
1.3779527559055118
  0
LWPOLYLINE
  5
EA
330
17
100
AcDbEntity
  8
Bathroom plan
100
AcDbPolyline
 90
2
 70
0
 10
137.55905511811022
 20
110.55118110236221
 10
137.55905511811022
 20
103.07086614173228
  0
LWPOLYLINE
  5
EB
330
17
100
AcDbEntity
  8
Bathroom plan
100
AcDbPolyline
 90
5
 70
0
 10
49.05511811023622
 20
33.07086614173228
 10
55.07874015748032
 20
33.07086614173228
 10
55.07874015748032
 20
9.055118110236222
 10
49.05511811023622
 20
9.055118110236222
 10
49.05511811023622
 20
33.07086614173228
  0
LWPOLYLINE
  5
EC
330
17
100
AcDbEntity
  8
Bathroom plan
100
AcDbPolyline
 90
5
 70
0
 10
91.06299212598425
 20
33.07086614173228
 10
109.05511811023622
 20
33.07086614173228
 10
109.05511811023622
 20
9.055118110236222
 10
91.06299212598425
 20
9.055118110236222
 10
91.06299212598425
 20
33.07086614173228
  0
LWPOLYLINE
  5
ED
330
17
100
AcDbEntity
  8
Bathroom plan
100
AcDbPolyline
 90
5
 70
0
 10
55.07874015748032
 20
33.85826771653544
 10
91.06299212598425
 20
33.85826771653544
 10
91.06299212598425
 20
9.055118110236222
 10
55.07874015748032
 20
9.055118110236222
 10
55.07874015748032
 20
33.85826771653544
  0
CIRCLE
  5
EE
330
17
100
AcDbEntity
  8
Bathroom plan
100
AcDbCircle
 10
73.07086614173228
 20
21.653543307086615
 30
0.0
 40
7.9921259842519685
  0
CIRCLE
  5
EF
330
17
100
AcDbEntity
  8
Bathroom plan
100
AcDbCircle
 10
73.07086614173228
 20
21.653543307086615
 30
0.0
 40
0.984251968503937
  0
LWPOLYLINE
  5
F0
330
17
100
AcDbEntity
  8
Bathroom plan
  6
DASHED
100
AcDbPolyline
 90
5
 70
0
 10
49.05511811023622
 20
35.826771653543304
 10
109.05511811023622
 20
35.826771653543304
 10
109.05511811023622
 20
35.43307086614173
 10
49.05511811023622
 20
35.43307086614173
 10
49.05511811023622
 20
35.826771653543304
  0
TEXT
  5
F1
330
17
100
AcDbEntity
  8
LABELS
100
AcDbText
 10
0.0
 20
127.48031496062993
 30
0.0
 40
3.3023622047244094
  1
BATHROOM PLAN  (1:1, inches)
 11
0.0
 21
127.48031496062993
 31
0.0
100
AcDbText
  0
HATCH
  5
F4
330
17
100
AcDbEntity
  8
Bathroom section B-B hatch
 62
7
100
AcDbHatch
 10
0.0
 20
0.0
 30
0.0
210
0.0
220
0.0
230
1.0
  2
ANSI31
 70
0
 71
0
 91
1
 92
3
 72
0
 73
1
 93
5
 10
197.75984251968504
 20
120.8267716535433
 10
206.81496062992127
 20
120.8267716535433
 10
206.81496062992127
 20
0.0
 10
197.75984251968504
 20
0.0
 10
197.75984251968504
 20
120.8267716535433
 97
0
 75
1
 76
1
 52
0.0
 41
0.15748031496062992
 77
0
 78
1
 53
45.0
 43
0.0
 44
0.0
 45
-0.0139194248
 46
0.0139194248
 79
0
 98
0
  0
HATCH
  5
F5
330
17
100
AcDbEntity
  8
Bathroom section B-B hatch
 62
7
100
AcDbHatch
 10
0.0
 20
0.0
 30
0.0
210
0.0
220
0.0
230
1.0
  2
ANSI31
 70
0
 71
0
 91
1
 92
3
 72
0
 73
1
 93
5
 10
353.8228346456693
 20
120.8267716535433
 10
362.87795275590554
 20
120.8267716535433
 10
362.87795275590554
 20
0.0
 10
353.8228346456693
 20
0.0
 10
353.8228346456693
 20
120.8267716535433
 97
0
 75
1
 76
1
 52
0.0
 41
0.15748031496062992
 77
0
 78
1
 53
45.0
 43
0.0
 44
0.0
 45
-0.0139194248
 46
0.0139194248
 79
0
 98
0
  0
HATCH
  5
F6
330
17
100
AcDbEntity
  8
Bathroom section B-B hatch
 62
7
100
AcDbHatch
 10
0.0
 20
0.0
 30
0.0
210
0.0
220
0.0
230
1.0
  2
ANSI31
 70
0
 71
0
 91
1
 92
3
 72
0
 73
1
 93
5
 10
197.75984251968504
 20
5.905511811023622
 10
362.87795275590554
 20
5.905511811023622
 10
362.87795275590554
 20
0.0
 10
197.75984251968504
 20
0.0
 10
197.75984251968504
 20
5.905511811023622
 97
0
 75
1
 76
1
 52
0.0
 41
0.15748031496062992
 77
0
 78
1
 53
45.0
 43
0.0
 44
0.0
 45
-0.0139194248
 46
0.0139194248
 79
0
 98
0
  0
HATCH
  5
F7
330
17
100
AcDbEntity
  8
Bathroom section B-B hatch
 62
7
100
AcDbHatch
 10
0.0
 20
0.0
 30
0.0
210
0.0
220
0.0
230
1.0
  2
ANSI31
 70
0
 71
0
 91
1
 92
3
 72
0
 73
1
 93
5
 10
197.75984251968504
 20
120.8267716535433
 10
362.87795275590554
 20
120.8267716535433
 10
362.87795275590554
 20
114.92125984251969
 10
197.75984251968504
 20
114.92125984251969
 10
197.75984251968504
 20
120.8267716535433
 97
0
 75
1
 76
1
 52
0.0
 41
0.15748031496062992
 77
0
 78
1
 53
45.0
 43
0.0
 44
0.0
 45
-0.0139194248
 46
0.0139194248
 79
0
 98
0
  0
LWPOLYLINE
  5
F8
330
17
100
AcDbEntity
  8
Bathroom section B-B
100
AcDbPolyline
 90
5
 70
0
 10
206.81496062992127
 20
5.905511811023622
 10
206.81496062992127
 20
114.92125984251967
 10
353.82283464566933
 20
114.92125984251967
 10
353.82283464566933
 20
5.905511811023622
 10
206.81496062992127
 20
5.905511811023622
  0
LWPOLYLINE
  5
F9
330
17
100
AcDbEntity
  8
Bathroom section B-B
100
AcDbPolyline
 90
5
 70
0
 10
221.77559055118112
 20
89.92125984251967
 10
245.79133858267718
 20
89.92125984251967
 10
245.79133858267718
 20
77.91338582677164
 10
221.77559055118112
 20
77.91338582677164
 10
221.77559055118112
 20
89.92125984251967
  0
LINE
  5
FA
330
17
100
AcDbEntity
  8
Bathroom section B-B
100
AcDbLine
 10
233.78346456692915
 20
77.91338582677166
 30
0.0
 11
233.78346456692915
 21
89.92125984251969
 31
0.0
  0
LWPOLYLINE
  5
FB
330
17
100
AcDbEntity
  8
Bathroom section B-B
100
AcDbPolyline
 90
5
 70
0
 10
206.81496062992127
 20
114.92125984251967
 10
213.8228346456693
 20
114.92125984251967
 10
213.8228346456693
 20
5.905511811023622
 10
206.81496062992127
 20
5.905511811023622
 10
206.81496062992127
 20
114.92125984251967
  0
LWPOLYLINE
  5
FC
330
17
100
AcDbEntity
  8
Bathroom section B-B
  6
DASHED
100
AcDbPolyline
 90
5
 70
0
 10
209.88582677165357
 20
76.77165354330708
 10
213.8228346456693
 20
76.77165354330708
 10
213.8228346456693
 20
53.1496062992126
 10
209.88582677165357
 20
53.1496062992126
 10
209.88582677165357
 20
76.77165354330708
  0
LWPOLYLINE
  5
FD
330
17
100
AcDbEntity
  8
Bathroom section B-B
  6
DASHED
100
AcDbPolyline
 90
5
 70
0
 10
209.88582677165357
 20
92.51968503937007
 10
213.8228346456693
 20
92.51968503937007
 10
213.8228346456693
 20
53.1496062992126
 10
209.88582677165357
 20
53.1496062992126
 10
209.88582677165357
 20
92.51968503937007
  0
LWPOLYLINE
  5
FE
330
17
100
AcDbEntity
  8
Bathroom section B-B
100
AcDbPolyline
 90
5
 70
0
 10
261.8149606299213
 20
114.92125984251967
 10
309.8070866141733
 20
114.92125984251967
 10
309.8070866141733
 20
101.88976377952756
 10
261.8149606299213
 20
101.88976377952756
 10
261.8149606299213
 20
114.92125984251967
  0
LINE
  5
FF
330
17
100
AcDbEntity
  8
Bathroom section B-B
100
AcDbLine
 10
261.81496062992125
 20
102.59842519685039
 30
0.0
 11
309.8070866141732
 21
102.59842519685039
 31
0.0
  0
POLYLINE
  5
100
330
17
100
AcDbEntity
  8
Bathroom section B-B
100
AcDb2dPolyline
 66
1
 10
0.0
 20
0.0
 30
0.0
 70
0
  0
VERTEX
  5
101
330
100
100
AcDbEntity
  8
Bathroom section B-B
100
AcDbVertex
100
AcDb2dVertex
 10
213.8228346456693
 20
21.653543307086615
 30
0.0
 70
0
  0
VERTEX
  5
102
330
100
100
AcDbEntity
  8
Bathroom section B-B
100
AcDbVertex
100
AcDb2dVertex
 10
233.50787401574803
 20
21.653543307086615
 30
0.0
 70
0
  0
SEQEND
  5
103
330
100
100
AcDbEntity
  8
Bathroom section B-B
  0
SPLINE
  5
104
330
17
100
AcDbEntity
  8
Bathroom section B-B
100
AcDbSpline
 70
0
 71
3
 72
8
 73
4
 74
0
 40
0.0
 40
0.0
 40
0.0
 40
0.0
 40
1.0
 40
1.0
 40
1.0
 40
1.0
 10
233.50787401574803
 20
21.653543307086615
 30
0.0
 10
234.55774278215225
 20
21.653543307086615
 30
0.0
 10
234.68897637795277
 20
20.603674540682416
 30
0.0
 10
233.90157480314963
 20
18.503937007874015
 30
0.0
  0
SPLINE
  5
105
330
17
100
AcDbEntity
  8
Bathroom section B-B
100
AcDbSpline
 70
0
 71
3
 72
8
 73
4
 74
0
 40
0.0
 40
0.0
 40
0.0
 40
0.0
 40
1.0
 40
1.0
 40
1.0
 40
1.0
 10
233.90157480314963
 20
18.503937007874015
 30
0.0
 10
231.53937007874018
 20
15.879265091863518
 30
0.0
 10
227.73359580052494
 20
14.435695538057743
 30
0.0
 10
222.48425196850394
 20
14.173228346456693
 30
0.0
  0
POLYLINE
  5
106
330
17
100
AcDbEntity
  8
Bathroom section B-B
100
AcDb2dPolyline
 66
1
 10
0.0
 20
0.0
 30
0.0
 70
0
  0
VERTEX
  5
107
330
106
100
AcDbEntity
  8
Bathroom section B-B
100
AcDbVertex
100
AcDb2dVertex
 10
222.48425196850394
 20
14.173228346456693
 30
0.0
 70
0
  0
VERTEX
  5
108
330
106
100
AcDbEntity
  8
Bathroom section B-B
100
AcDbVertex
100
AcDb2dVertex
 10
213.8228346456693
 20
14.173228346456693
 30
0.0
 70
0
  0
VERTEX
  5
109
330
106
100
AcDbEntity
  8
Bathroom section B-B
100
AcDbVertex
100
AcDb2dVertex
 10
213.8228346456693
 20
21.653543307086615
 30
0.0
 70
0
  0
SEQEND
  5
10A
330
106
100
AcDbEntity
  8
Bathroom section B-B
  0
LWPOLYLINE
  5
10B
330
17
100
AcDbEntity
  8
Bathroom section B-B
100
AcDbPolyline
 90
5
 70
0
 10
213.8228346456693
 20
22.834645669291337
 10
232.7204724409449
 20
22.834645669291337
 10
232.7204724409449
 20
21.653543307086615
 10
213.8228346456693
 20
21.653543307086615
 10
213.8228346456693
 20
22.834645669291337
  0
LWPOLYLINE
  5
10C
330
17
100
AcDbEntity
  8
Bathroom section B-B
100
AcDbPolyline
 90
5
 70
0
 10
213.8228346456693
 20
49.60629921259842
 10
214.2952755905512
 20
49.60629921259842
 10
214.2952755905512
 20
40.94488188976378
 10
213.8228346456693
 20
40.94488188976378
 10
213.8228346456693
 20
49.60629921259842
  0
LWPOLYLINE
  5
10D
330
17
100
AcDbEntity
  8
Bathroom section B-B
100
AcDbPolyline
 90
5
 70
0
 10
283.0551181102362
 20
51.181102362204726
 10
288.56692913385825
 20
51.181102362204726
 10
288.56692913385825
 20
45.669291338582674
 10
283.0551181102362
 20
45.669291338582674
 10
283.0551181102362
 20
51.181102362204726
  0
CIRCLE
  5
10E
330
17
100
AcDbEntity
  8
Bathroom section B-B
100
AcDbCircle
 10
285.81102362204723
 20
48.425196850393704
 30
0.0
 40
1.1811023622047243
  0
LWPOLYLINE
  5
10F
330
17
100
AcDbEntity
  8
Bathroom section B-B
100
AcDbPolyline
 90
2
 70
0
 10
285.8110236220473
 20
95.66929133858267
 10
285.8110236220473
 20
92.51968503937007
  0
LWPOLYLINE
  5
110
330
17
100
AcDbEntity
  8
Bathroom section B-B
100
AcDbPolyline
 90
5
 70
0
 10
280.8897637795276
 20
92.51968503937007
 10
290.73228346456693
 20
92.51968503937007
 10
290.73228346456693
 20
91.73228346456693
 10
280.8897637795276
 20
91.73228346456693
 10
280.8897637795276
 20
92.51968503937007
  0
LWPOLYLINE
  5
111
330
17
100
AcDbEntity
  8
Bathroom section B-B
100
AcDbPolyline
 90
5
 70
0
 10
213.8228346456693
 20
114.92125984251967
 10
236.61811023622047
 20
114.92125984251967
 10
236.61811023622047
 20
5.905511811023622
 10
213.8228346456693
 20
5.905511811023622
 10
213.8228346456693
 20
114.92125984251967
  0
LWPOLYLINE
  5
112
330
17
100
AcDbEntity
  8
Bathroom section B-B
100
AcDbPolyline
 90
5
 70
0
 10
236.85433070866142
 20
114.92125984251967
 10
261.5787401574803
 20
114.92125984251967
 10
261.5787401574803
 20
5.905511811023622
 10
236.85433070866142
 20
5.905511811023622
 10
236.85433070866142
 20
114.92125984251967
  0
LWPOLYLINE
  5
113
330
17
100
AcDbEntity
  8
Bathroom section B-B
  6
DASHED
100
AcDbPolyline
 90
3
 70
0
 10
261.5787401574803
 20
8.26771653543307
 10
236.85433070866142
 20
60.41338582677165
 10
261.5787401574803
 20
112.55905511811022
  0
LWPOLYLINE
  5
114
330
17
100
AcDbEntity
  8
Bathroom section B-B
100
AcDbPolyline
 90
5
 70
0
 10
236.53937007874018
 20
20.562204724409447
 10
238.03543307086616
 20
20.562204724409447
 10
238.03543307086616
 20
17.412598425196848
 10
236.53937007874018
 20
17.412598425196848
 10
236.53937007874018
 20
20.562204724409447
  0
LWPOLYLINE
  5
115
330
17
100
AcDbEntity
  8
Bathroom section B-B
100
AcDbPolyline
 90
5
 70
0
 10
236.53937007874018
 20
103.41417322834644
 10
238.03543307086616
 20
103.41417322834644
 10
238.03543307086616
 20
100.26456692913385
 10
236.53937007874018
 20
100.26456692913385
 10
236.53937007874018
 20
103.41417322834644
  0
LWPOLYLINE
  5
116
330
17
100
AcDbEntity
  8
Bathroom section B-B
100
AcDbPolyline
 90
5
 70
0
 10
259.2165354330709
 20
55.118110236220474
 10
259.8070866141733
 20
55.118110236220474
 10
259.8070866141733
 20
39.37007874015748
 10
259.2165354330709
 20
39.37007874015748
 10
259.2165354330709
 20
55.118110236220474
  0
LWPOLYLINE
  5
117
330
17
100
AcDbEntity
  8
Bathroom section B-B
100
AcDbPolyline
 90
5
 70
0
 10
262.0511811023622
 20
114.92125984251967
 10
285.6732283464567
 20
114.92125984251967
 10
285.6732283464567
 20
5.905511811023622
 10
262.0511811023622
 20
5.905511811023622
 10
262.0511811023622
 20
114.92125984251967
  0
LWPOLYLINE
  5
118
330
17
100
AcDbEntity
  8
Bathroom section B-B
  6
DASHED
100
AcDbPolyline
 90
3
 70
0
 10
285.6732283464567
 20
8.26771653543307
 10
262.0511811023622
 20
60.41338582677165
 10
285.6732283464567
 20
112.55905511811022
  0
LWPOLYLINE
  5
119
330
17
100
AcDbEntity
  8
Bathroom section B-B
100
AcDbPolyline
 90
5
 70
0
 10
261.73622047244095
 20
20.562204724409447
 10
263.23228346456693
 20
20.562204724409447
 10
263.23228346456693
 20
17.412598425196848
 10
261.73622047244095
 20
17.412598425196848
 10
261.73622047244095
 20
20.562204724409447
  0
LWPOLYLINE
  5
11A
330
17
100
AcDbEntity
  8
Bathroom section B-B
100
AcDbPolyline
 90
5
 70
0
 10
261.73622047244095
 20
103.41417322834644
 10
263.23228346456693
 20
103.41417322834644
 10
263.23228346456693
 20
100.26456692913385
 10
261.73622047244095
 20
100.26456692913385
 10
261.73622047244095
 20
103.41417322834644
  0
LWPOLYLINE
  5
11B
330
17
100
AcDbEntity
  8
Bathroom section B-B
100
AcDbPolyline
 90
5
 70
0
 10
283.3110236220473
 20
55.118110236220474
 10
283.90157480314963
 20
55.118110236220474
 10
283.90157480314963
 20
39.37007874015748
 10
283.3110236220473
 20
39.37007874015748
 10
283.3110236220473
 20
55.118110236220474
  0
LWPOLYLINE
  5
11C
330
17
100
AcDbEntity
  8
Bathroom section B-B
100
AcDbPolyline
 90
5
 70
0
 10
285.90944881889766
 20
114.92125984251967
 10
309.8070866141733
 20
114.92125984251967
 10
309.8070866141733
 20
5.905511811023622
 10
285.90944881889766
 20
5.905511811023622
 10
285.90944881889766
 20
114.92125984251967
  0
LWPOLYLINE
  5
11D
330
17
100
AcDbEntity
  8
Bathroom section B-B
100
AcDbPolyline
 90
5
 70
0
 10
261.6181102362205
 20
114.92125984251967
 10
262.01181102362204
 20
114.92125984251967
 10
262.01181102362204
 20
5.905511811023622
 10
261.6181102362205
 20
5.905511811023622
 10
261.6181102362205
 20
114.92125984251967
  0
LWPOLYLINE
  5
11E
330
17
100
AcDbEntity
  8
Bathroom section B-B
100
AcDbPolyline
 90
5
 70
0
 10
309.6102362204725
 20
114.92125984251967
 10
310.003937007874
 20
114.92125984251967
 10
310.003937007874
 20
5.905511811023622
 10
309.6102362204725
 20
5.905511811023622
 10
309.6102362204725
 20
114.92125984251967
  0
SPLINE
  5
11F
330
17
100
AcDbEntity
  8
Bathroom section B-B
100
AcDbSpline
 70
0
 71
3
 72
8
 73
4
 74
0
 40
0.0
 40
0.0
 40
0.0
 40
0.0
 40
1.0
 40
1.0
 40
1.0
 40
1.0
 10
319.57086614173227
 20
29.52755905511811
 30
0.0
 10
319.1771653543307
 20
15.354330708661417
 30
0.0
 10
321.93307086614175
 20
5.905511811023622
 30
0.0
 10
325.4763779527559
 20
5.905511811023622
 30
0.0
  0
POLYLINE
  5
120
330
17
100
AcDbEntity
  8
Bathroom section B-B
100
AcDb2dPolyline
 66
1
 10
0.0
 20
0.0
 30
0.0
 70
0
  0
VERTEX
  5
121
330
120
100
AcDbEntity
  8
Bathroom section B-B
100
AcDbVertex
100
AcDb2dVertex
 10
325.4763779527559
 20
5.905511811023622
 30
0.0
 70
0
  0
VERTEX
  5
122
330
120
100
AcDbEntity
  8
Bathroom section B-B
100
AcDbVertex
100
AcDb2dVertex
 10
345.16141732283467
 20
5.905511811023622
 30
0.0
 70
0
  0
SEQEND
  5
123
330
120
100
AcDbEntity
  8
Bathroom section B-B
  0
SPLINE
  5
124
330
17
100
AcDbEntity
  8
Bathroom section B-B
100
AcDbSpline
 70
0
 71
3
 72
8
 73
4
 74
0
 40
0.0
 40
0.0
 40
0.0
 40
0.0
 40
1.0
 40
1.0
 40
1.0
 40
1.0
 10
345.16141732283467
 20
5.905511811023622
 30
0.0
 10
348.70472440944883
 20
5.905511811023622
 30
0.0
 10
351.46062992125985
 20
15.354330708661417
 30
0.0
 10
351.06692913385825
 20
29.52755905511811
 30
0.0
  0
POLYLINE
  5
125
330
17
100
AcDbEntity
  8
Bathroom section B-B
100
AcDb2dPolyline
 66
1
 10
0.0
 20
0.0
 30
0.0
 70
0
  0
VERTEX
  5
126
330
125
100
AcDbEntity
  8
Bathroom section B-B
100
AcDbVertex
100
AcDb2dVertex
 10
351.06692913385825
 20
29.52755905511811
 30
0.0
 70
0
  0
VERTEX
  5
127
330
125
100
AcDbEntity
  8
Bathroom section B-B
100
AcDbVertex
100
AcDb2dVertex
 10
350.27952755905517
 20
29.52755905511811
 30
0.0
 70
0
  0
SEQEND
  5
128
330
125
100
AcDbEntity
  8
Bathroom section B-B
  0
SPLINE
  5
129
330
17
100
AcDbEntity
  8
Bathroom section B-B
100
AcDbSpline
 70
0
 71
3
 72
8
 73
4
 74
0
 40
0.0
 40
0.0
 40
0.0
 40
0.0
 40
1.0
 40
1.0
 40
1.0
 40
1.0
 10
350.27952755905517
 20
29.52755905511811
 30
0.0
 10
350.51574803149606
 20
16.53543307086614
 30
0.0
 10
348.3110236220473
 20
8.26771653543307
 30
0.0
 10
344.7677165354331
 20
8.26771653543307
 30
0.0
  0
POLYLINE
  5
12A
330
17
100
AcDbEntity
  8
Bathroom section B-B
100
AcDb2dPolyline
 66
1
 10
0.0
 20
0.0
 30
0.0
 70
0
  0
VERTEX
  5
12B
330
12A
100
AcDbEntity
  8
Bathroom section B-B
100
AcDbVertex
100
AcDb2dVertex
 10
344.7677165354331
 20
8.26771653543307
 30
0.0
 70
0
  0
VERTEX
  5
12C
330
12A
100
AcDbEntity
  8
Bathroom section B-B
100
AcDbVertex
100
AcDb2dVertex
 10
325.8700787401575
 20
8.26771653543307
 30
0.0
 70
0
  0
SEQEND
  5
12D
330
12A
100
AcDbEntity
  8
Bathroom section B-B
  0
SPLINE
  5
12E
330
17
100
AcDbEntity
  8
Bathroom section B-B
100
AcDbSpline
 70
0
 71
3
 72
8
 73
4
 74
0
 40
0.0
 40
0.0
 40
0.0
 40
0.0
 40
1.0
 40
1.0
 40
1.0
 40
1.0
 10
325.8700787401575
 20
8.26771653543307
 30
0.0
 10
322.32677165354335
 20
8.26771653543307
 30
0.0
 10
320.1220472440945
 20
16.53543307086614
 30
0.0
 10
320.35826771653547
 20
29.52755905511811
 30
0.0
  0
POLYLINE
  5
12F
330
17
100
AcDbEntity
  8
Bathroom section B-B
100
AcDb2dPolyline
 66
1
 10
0.0
 20
0.0
 30
0.0
 70
0
  0
VERTEX
  5
130
330
12F
100
AcDbEntity
  8
Bathroom section B-B
100
AcDbVertex
100
AcDb2dVertex
 10
320.35826771653547
 20
29.52755905511811
 30
0.0
 70
0
  0
VERTEX
  5
131
330
12F
100
AcDbEntity
  8
Bathroom section B-B
100
AcDbVertex
100
AcDb2dVertex
 10
319.57086614173227
 20
29.52755905511811
 30
0.0
 70
0
  0
SEQEND
  5
132
330
12F
100
AcDbEntity
  8
Bathroom section B-B
  0
POLYLINE
  5
133
330
17
100
AcDbEntity
  8
Bathroom section B-B
100
AcDb2dPolyline
 66
1
 10
0.0
 20
0.0
 30
0.0
 70
0
  0
VERTEX
  5
134
330
133
100
AcDbEntity
  8
Bathroom section B-B
100
AcDbVertex
100
AcDb2dVertex
 10
335.3188976377953
 20
5.905511811023622
 30
0.0
 70
0
  0
VERTEX
  5
135
330
133
100
AcDbEntity
  8
Bathroom section B-B
100
AcDbVertex
100
AcDb2dVertex
 10
335.3188976377953
 20
44.488188976377955
 30
0.0
 70
0
  0
SEQEND
  5
136
330
133
100
AcDbEntity
  8
Bathroom section B-B
  0
SPLINE
  5
137
330
17
100
AcDbEntity
  8
Bathroom section B-B
100
AcDbSpline
 70
0
 71
3
 72
8
 73
4
 74
0
 40
0.0
 40
0.0
 40
0.0
 40
0.0
 40
1.0
 40
1.0
 40
1.0
 40
1.0
 10
335.3188976377953
 20
44.488188976377955
 30
0.0
 10
335.3188976377953
 20
46.06299212598425
 30
0.0
 10
336.10629921259846
 20
46.8503937007874
 30
0.0
 10
337.68110236220474
 20
46.8503937007874
 30
0.0
  0
POLYLINE
  5
138
330
17
100
AcDbEntity
  8
Bathroom section B-B
100
AcDb2dPolyline
 66
1
 10
0.0
 20
0.0
 30
0.0
 70
0
  0
VERTEX
  5
139
330
138
100
AcDbEntity
  8
Bathroom section B-B
100
AcDbVertex
100
AcDb2dVertex
 10
337.68110236220474
 20
46.8503937007874
 30
0.0
 70
0
  0
VERTEX
  5
13A
330
138
100
AcDbEntity
  8
Bathroom section B-B
100
AcDbVertex
100
AcDb2dVertex
 10
341.2244094488189
 20
46.8503937007874
 30
0.0
 70
0
  0
VERTEX
  5
13B
330
138
100
AcDbEntity
  8
Bathroom section B-B
100
AcDbVertex
100
AcDb2dVertex
 10
341.2244094488189
 20
45.275590551181104
 30
0.0
 70
0
  0
SEQEND
  5
13C
330
138
100
AcDbEntity
  8
Bathroom section B-B
  0
LINE
  5
13D
330
17
100
AcDbEntity
  8
Bathroom section B-B
100
AcDbLine
 10
189.88582677165354
 20
5.905511811023622
 30
0.0
 11
370.751968503937
 21
5.905511811023622
 31
0.0
  0
TEXT
  5
13E
330
17
100
AcDbEntity
  8
LABELS
100
AcDbText
 10
189.88582677165354
 20
123.18897637795276
 30
0.0
 40
3.617322834645669
  1
BATHROOM SECTION B-B  (1:1, inches)
 11
189.88582677165354
 21
123.18897637795276
 31
0.0
100
AcDbText
  0
HATCH
  5
141
330
17
100
AcDbEntity
  8
Bathroom WC wall hatch
 62
7
100
AcDbHatch
 10
0.0
 20
0.0
 30
0.0
210
0.0
220
0.0
230
1.0
  2
ANSI31
 70
0
 71
0
 91
1
 92
3
 72
0
 73
1
 93
5
 10
446.77952755905517
 20
120.8267716535433
 10
455.8346456692914
 20
120.8267716535433
 10
455.8346456692914
 20
0.0
 10
446.77952755905517
 20
0.0
 10
446.77952755905517
 20
120.8267716535433
 97
0
 75
1
 76
1
 52
0.0
 41
0.15748031496062992
 77
0
 78
1
 53
45.0
 43
0.0
 44
0.0
 45
-0.0139194248
 46
0.0139194248
 79
0
 98
0
  0
HATCH
  5
142
330
17
100
AcDbEntity
  8
Bathroom WC wall hatch
 62
7
100
AcDbHatch
 10
0.0
 20
0.0
 30
0.0
210
0.0
220
0.0
230
1.0
  2
ANSI31
 70
0
 71
0
 91
1
 92
3
 72
0
 73
1
 93
5
 10
397.88188976377955
 20
5.905511811023622
 10
455.8346456692914
 20
5.905511811023622
 10
455.8346456692914
 20
0.0
 10
397.88188976377955
 20
0.0
 10
397.88188976377955
 20
5.905511811023622
 97
0
 75
1
 76
1
 52
0.0
 41
0.15748031496062992
 77
0
 78
1
 53
45.0
 43
0.0
 44
0.0
 45
-0.0139194248
 46
0.0139194248
 79
0
 98
0
  0
HATCH
  5
143
330
17
100
AcDbEntity
  8
Bathroom WC wall hatch
 62
7
100
AcDbHatch
 10
0.0
 20
0.0
 30
0.0
210
0.0
220
0.0
230
1.0
  2
ANSI31
 70
0
 71
0
 91
1
 92
3
 72
0
 73
1
 93
5
 10
397.88188976377955
 20
120.8267716535433
 10
455.8346456692914
 20
120.8267716535433
 10
455.8346456692914
 20
114.92125984251969
 10
397.88188976377955
 20
114.92125984251969
 10
397.88188976377955
 20
120.8267716535433
 97
0
 75
1
 76
1
 52
0.0
 41
0.15748031496062992
 77
0
 78
1
 53
45.0
 43
0.0
 44
0.0
 45
-0.0139194248
 46
0.0139194248
 79
0
 98
0
  0
LINE
  5
144
330
17
100
AcDbEntity
  8
Bathroom WC wall
100
AcDbLine
 10
447.96062992125985
 20
77.91338582677166
 30
0.0
 11
447.96062992125985
 21
89.92125984251969
 31
0.0
  0
LINE
  5
145
330
17
100
AcDbEntity
  8
Bathroom WC wall
100
AcDbLine
 10
451.3070866141733
 20
77.91338582677166
 30
0.0
 11
451.3070866141733
 21
89.92125984251969
 31
0.0
  0
LINE
  5
146
330
17
100
AcDbEntity
  8
Bathroom WC wall
100
AcDbLine
 10
454.65354330708664
 20
77.91338582677166
 30
0.0
 11
454.65354330708664
 21
89.92125984251969
 31
0.0
  0
LWPOLYLINE
  5
147
330
17
100
AcDbEntity
  8
Bathroom WC wall
100
AcDbPolyline
 90
5
 70
0
 10
403.7874015748032
 20
114.92125984251967
 10
446.77952755905517
 20
114.92125984251967
 10
446.77952755905517
 20
5.905511811023622
 10
403.7874015748032
 20
5.905511811023622
 10
403.7874015748032
 20
114.92125984251967
  0
LINE
  5
148
330
17
100
AcDbEntity
  8
Bathroom WC wall
100
AcDbLine
 10
403.7874015748032
 20
29.52755905511811
 30
0.0
 11
446.77952755905517
 21
29.52755905511811
 31
0.0
  0
LINE
  5
149
330
17
100
AcDbEntity
  8
Bathroom WC wall
100
AcDbLine
 10
403.7874015748032
 20
53.1496062992126
 30
0.0
 11
446.77952755905517
 21
53.1496062992126
 31
0.0
  0
LINE
  5
14A
330
17
100
AcDbEntity
  8
Bathroom WC wall
100
AcDbLine
 10
403.7874015748032
 20
76.77165354330708
 30
0.0
 11
446.77952755905517
 21
76.77165354330708
 31
0.0
  0
LINE
  5
14B
330
17
100
AcDbEntity
  8
Bathroom WC wall
100
AcDbLine
 10
403.7874015748032
 20
100.39370078740157
 30
0.0
 11
446.77952755905517
 21
100.39370078740157
 31
0.0
  0
LWPOLYLINE
  5
14C
330
17
100
AcDbEntity
  8
Bathroom WC wall
100
AcDbPolyline
 90
5
 70
0
 10
431.8188976377953
 20
78.34645669291339
 10
446.77952755905517
 20
78.34645669291339
 10
446.77952755905517
 20
51.574803149606296
 10
431.8188976377953
 20
51.574803149606296
 10
431.8188976377953
 20
78.34645669291339
  0
LWPOLYLINE
  5
14D
330
17
100
AcDbEntity
  8
Bathroom WC wall
100
AcDbPolyline
 90
5
 70
0
 10
432.60629921259846
 20
77.55905511811022
 10
445.992125984252
 20
77.55905511811022
 10
445.992125984252
 20
52.36220472440945
 10
432.60629921259846
 20
52.36220472440945
 10
432.60629921259846
 20
77.55905511811022
  0
LWPOLYLINE
  5
14E
330
17
100
AcDbEntity
  8
Bathroom WC wall
100
AcDbPolyline
 90
5
 70
0
 10
433.3937007874016
 20
76.77165354330708
 10
445.2047244094489
 20
76.77165354330708
 10
445.2047244094489
 20
53.1496062992126
 10
433.3937007874016
 20
53.1496062992126
 10
433.3937007874016
 20
76.77165354330708
  0
LWPOLYLINE
  5
14F
330
17
100
AcDbEntity
  8
Bathroom WC wall
100
AcDbPolyline
 90
4
 70
0
 10
433.3937007874016
 20
53.1496062992126
 10
434.57480314960634
 20
54.330708661417326
 10
444.02362204724415
 20
54.330708661417326
 10
445.2047244094489
 20
53.1496062992126
  0
LWPOLYLINE
  5
150
330
17
100
AcDbEntity
  8
Bathroom WC wall
100
AcDbPolyline
 90
5
 70
0
 10
415.2834645669292
 20
94.09448818897638
 10
433.3937007874016
 20
94.09448818897638
 10
433.3937007874016
 20
51.574803149606296
 10
415.2834645669292
 20
51.574803149606296
 10
415.2834645669292
 20
94.09448818897638
  0
LWPOLYLINE
  5
151
330
17
100
AcDbEntity
  8
Bathroom WC wall
100
AcDbPolyline
 90
5
 70
0
 10
416.0708661417323
 20
93.30708661417322
 10
432.60629921259846
 20
93.30708661417322
 10
432.60629921259846
 20
52.36220472440945
 10
416.0708661417323
 20
52.36220472440945
 10
416.0708661417323
 20
93.30708661417322
  0
LWPOLYLINE
  5
152
330
17
100
AcDbEntity
  8
Bathroom WC wall
100
AcDbPolyline
 90
5
 70
0
 10
416.85826771653547
 20
92.51968503937007
 10
431.8188976377953
 20
92.51968503937007
 10
431.8188976377953
 20
53.1496062992126
 10
416.85826771653547
 20
53.1496062992126
 10
416.85826771653547
 20
92.51968503937007
  0
LWPOLYLINE
  5
153
330
17
100
AcDbEntity
  8
Bathroom WC wall
100
AcDbPolyline
 90
4
 70
0
 10
416.85826771653547
 20
53.1496062992126
 10
418.0393700787402
 20
54.330708661417326
 10
430.6377952755906
 20
54.330708661417326
 10
431.8188976377953
 20
53.1496062992126
  0
LWPOLYLINE
  5
154
330
17
100
AcDbEntity
  8
Bathroom WC wall
100
AcDbPolyline
 90
5
 70
0
 10
421.9566929133859
 20
48.425196850393704
 10
430.6181102362205
 20
48.425196850393704
 10
430.6181102362205
 20
42.125984251968504
 10
421.9566929133859
 20
42.125984251968504
 10
421.9566929133859
 20
48.425196850393704
  0
LINE
  5
155
330
17
100
AcDbEntity
  8
Bathroom WC wall
100
AcDbLine
 10
426.2874015748032
 20
48.425196850393704
 30
0.0
 11
426.2874015748032
 21
42.125984251968504
 31
0.0
  0
POLYLINE
  5
156
330
17
100
AcDbEntity
  8
Bathroom WC wall
100
AcDb2dPolyline
 66
1
 10
0.0
 20
0.0
 30
0.0
 70
0
  0
VERTEX
  5
157
330
156
100
AcDbEntity
  8
Bathroom WC wall
100
AcDbVertex
100
AcDb2dVertex
 10
419.20078740157487
 20
21.653543307086615
 30
0.0
 70
0
  0
VERTEX
  5
158
330
156
100
AcDbEntity
  8
Bathroom WC wall
100
AcDbVertex
100
AcDb2dVertex
 10
433.3740157480315
 20
21.653543307086615
 30
0.0
 70
0
  0
VERTEX
  5
159
330
156
100
AcDbEntity
  8
Bathroom WC wall
100
AcDbVertex
100
AcDb2dVertex
 10
432.5866141732284
 20
16.92913385826772
 30
0.0
 70
0
  0
SEQEND
  5
15A
330
156
100
AcDbEntity
  8
Bathroom WC wall
  0
SPLINE
  5
15B
330
17
100
AcDbEntity
  8
Bathroom WC wall
100
AcDbSpline
 70
0
 71
3
 72
8
 73
4
 74
0
 40
0.0
 40
0.0
 40
0.0
 40
0.0
 40
1.0
 40
1.0
 40
1.0
 40
1.0
 10
432.5866141732284
 20
16.92913385826772
 30
0.0
 10
431.27427821522315
 20
15.091863517060368
 30
0.0
 10
429.1745406824147
 20
14.10761154855643
 30
0.0
 10
426.2874015748032
 20
13.976377952755906
 30
0.0
  0
SPLINE
  5
15C
330
17
100
AcDbEntity
  8
Bathroom WC wall
100
AcDbSpline
 70
0
 71
3
 72
8
 73
4
 74
0
 40
0.0
 40
0.0
 40
0.0
 40
0.0
 40
1.0
 40
1.0
 40
1.0
 40
1.0
 10
426.2874015748032
 20
13.976377952755906
 30
0.0
 10
423.4002624671917
 20
14.10761154855643
 30
0.0
 10
421.30052493438325
 20
15.091863517060368
 30
0.0
 10
419.988188976378
 20
16.92913385826772
 30
0.0
  0
POLYLINE
  5
15D
330
17
100
AcDbEntity
  8
Bathroom WC wall
100
AcDb2dPolyline
 66
1
 10
0.0
 20
0.0
 30
0.0
 70
0
  0
VERTEX
  5
15E
330
15D
100
AcDbEntity
  8
Bathroom WC wall
100
AcDbVertex
100
AcDb2dVertex
 10
419.988188976378
 20
16.92913385826772
 30
0.0
 70
0
  0
VERTEX
  5
15F
330
15D
100
AcDbEntity
  8
Bathroom WC wall
100
AcDbVertex
100
AcDb2dVertex
 10
419.20078740157487
 20
21.653543307086615
 30
0.0
 70
0
  0
SEQEND
  5
160
330
15D
100
AcDbEntity
  8
Bathroom WC wall
  0
LWPOLYLINE
  5
161
330
17
100
AcDbEntity
  8
Bathroom WC wall
100
AcDbPolyline
 90
5
 70
0
 10
419.0039370078741
 20
22.637795275590552
 10
433.5708661417323
 20
22.637795275590552
 10
433.5708661417323
 20
21.653543307086615
 10
419.0039370078741
 20
21.653543307086615
 10
419.0039370078741
 20
22.637795275590552
  0
LWPOLYLINE
  5
162
330
17
100
AcDbEntity
  8
Bathroom WC wall
100
AcDbPolyline
 90
5
 70
0
 10
405.5984251968504
 20
114.92125984251967
 10
405.992125984252
 20
114.92125984251967
 10
405.992125984252
 20
5.905511811023622
 10
405.5984251968504
 20
5.905511811023622
 10
405.5984251968504
 20
114.92125984251967
  0
LINE
  5
163
330
17
100
AcDbEntity
  8
Bathroom WC wall
100
AcDbLine
 10
397.88188976377955
 20
5.905511811023622
 30
0.0
 11
455.8346456692914
 21
5.905511811023622
 31
0.0
  0
TEXT
  5
164
330
17
100
AcDbEntity
  8
LABELS
100
AcDbText
 10
397.88188976377955
 20
123.18897637795276
 30
0.0
 40
1.1590551181102362
  1
BATHROOM WC WALL  (1:1, inches)
 11
397.88188976377955
 21
123.18897637795276
 31
0.0
100
AcDbText
  0
TEXT
  5
165
330
17
100
AcDbEntity
  8
LABELS
100
AcDbText
 10
0.0
 20
-8.661417322834646
 30
0.0
 40
1.574803149606299
  1
Bathroom · AST-DR-037
 11
0.0
 21
-8.661417322834646
 31
0.0
100
AcDbText
  0
ENDSEC
  0
SECTION
  2
OBJECTS
  0
DICTIONARY
  5
A
330
0
100
AcDbDictionary
281
1
  3
ACAD_COLOR
350
B
  3
ACAD_GROUP
350
C
  3
ACAD_LAYOUT
350
D
  3
ACAD_MATERIAL
350
E
  3
ACAD_MLEADERSTYLE
350
F
  3
ACAD_MLINESTYLE
350
10
  3
ACAD_PLOTSETTINGS
350
11
  3
ACAD_PLOTSTYLENAME
350
12
  3
ACAD_SCALELIST
350
14
  3
ACAD_TABLESTYLE
350
15
  3
ACAD_VISUALSTYLE
350
16
  3
EZDXF_META
350
2D
  0
DICTIONARY
  5
B
330
A
100
AcDbDictionary
281
1
  0
DICTIONARY
  5
C
330
A
100
AcDbDictionary
281
1
  0
DICTIONARY
  5
D
330
A
100
AcDbDictionary
281
1
  3
Model
350
1A
  3
Layout1
350
1E
  0
DICTIONARY
  5
E
330
A
100
AcDbDictionary
281
1
  3
ByBlock
350
1F
  3
ByLayer
350
20
  3
Global
350
21
  0
DICTIONARY
  5
F
330
A
100
AcDbDictionary
281
1
  3
Standard
350
2C
  0
DICTIONARY
  5
10
330
A
100
AcDbDictionary
281
1
  3
Standard
350
22
  0
DICTIONARY
  5
11
330
A
100
AcDbDictionary
281
1
  0
ACDBDICTIONARYWDFLT
  5
12
330
A
100
AcDbDictionary
281
1
  3
Normal
350
13
100
AcDbDictionaryWithDefault
340
13
  0
ACDBPLACEHOLDER
  5
13
330
12
  0
DICTIONARY
  5
14
330
A
100
AcDbDictionary
281
1
  0
DICTIONARY
  5
15
330
A
100
AcDbDictionary
281
1
  0
DICTIONARY
  5
16
330
A
100
AcDbDictionary
281
1
  3
2dWireframe
350
5A
  3
Basic
350
5B
  3
Brighten
350
5C
  3
ColorChange
350
5D
  3
Conceptual
350
5E
  3
Dim
350
5F
  3
EdgeColorOff
350
60
  3
Facepattern
350
61
  3
Flat
350
62
  3
FlatWithEdges
350
63
  3
Gouraud
350
64
  3
GouraudWithEdges
350
65
  3
Hidden
350
66
  3
JitterOff
350
67
  3
Linepattern
350
68
  3
Modeling
350
69
  3
OverhangOff
350
6A
  3
Realistic
350
6B
  3
Shaded
350
6C
  3
Shaded with edges
350
6D
  3
Shades of Gray
350
6E
  3
Sketchy
350
6F
  3
Thicken
350
70
  3
Wireframe
350
71
  3
X-Ray
350
72
  0
LAYOUT
  5
1A
330
D
100
AcDbPlotSettings
  1

  4
A3
  6

 40
7.5
 41
20.0
 42
7.5
 43
20.0
 44
420.0
 45
297.0
 46
0.0
 47
0.0
 48
0.0
 49
0.0
140
0.0
141
0.0
142
1.0
143
1.0
 70
1024
 72
1
 73
0
 74
5
  7

 75
16
 76
0
 77
2
 78
300
147
1.0
148
0.0
149
0.0
100
AcDbLayout
  1
Model
 70
1
 71
0
 10
0.0
 20
0.0
 11
420.0
 21
297.0
 12
0.0
 22
0.0
 32
0.0
 14
1e+20
 24
1e+20
 34
1e+20
 15
-1e+20
 25
-1e+20
 35
-1e+20
146
0.0
 13
0.0
 23
0.0
 33
0.0
 16
1.0
 26
0.0
 36
0.0
 17
0.0
 27
1.0
 37
0.0
 76
1
330
17
  0
LAYOUT
  5
1E
330
D
100
AcDbPlotSettings
  1

  4
A3
  6

 40
7.5
 41
20.0
 42
7.5
 43
20.0
 44
420.0
 45
297.0
 46
0.0
 47
0.0
 48
0.0
 49
0.0
140
0.0
141
0.0
142
1.0
143
1.0
 70
0
 72
1
 73
0
 74
5
  7

 75
16
 76
0
 77
2
 78
300
147
1.0
148
0.0
149
0.0
100
AcDbLayout
  1
Layout1
 70
1
 71
1
 10
0.0
 20
0.0
 11
420.0
 21
297.0
 12
0.0
 22
0.0
 32
0.0
 14
1e+20
 24
1e+20
 34
1e+20
 15
-1e+20
 25
-1e+20
 35
-1e+20
146
0.0
 13
0.0
 23
0.0
 33
0.0
 16
1.0
 26
0.0
 36
0.0
 17
0.0
 27
1.0
 37
0.0
 76
1
330
1B
  0
MATERIAL
  5
1F
102
{ACAD_REACTORS
330
E
102
}
330
E
100
AcDbMaterial
  1
ByBlock
  2

 70
0
 40
1.0
 71
1
 41
1.0
 91
-1023410177
 42
1.0
 72
1
  3

 73
1
 74
1
 75
1
 44
0.5
 73
0
 45
1.0
 46
1.0
 77
1
  4

 78
1
 79
1
170
1
 48
1.0
171
1
  6

172
1
173
1
174
1
140
1.0
141
1.0
175
1
  7

176
1
177
1
178
1
143
1.0
179
1
  8

270
1
271
1
272
1
145
1.0
146
1.0
273
1
  9

274
1
275
1
276
1
 42
1.0
 72
1
  3

 73
1
 74
1
 75
1
 94
63
  0
MATERIAL
  5
20
102
{ACAD_REACTORS
330
E
102
}
330
E
100
AcDbMaterial
  1
ByLayer
  2

 70
0
 40
1.0
 71
1
 41
1.0
 91
-1023410177
 42
1.0
 72
1
  3

 73
1
 74
1
 75
1
 44
0.5
 73
0
 45
1.0
 46
1.0
 77
1
  4

 78
1
 79
1
170
1
 48
1.0
171
1
  6

172
1
173
1
174
1
140
1.0
141
1.0
175
1
  7

176
1
177
1
178
1
143
1.0
179
1
  8

270
1
271
1
272
1
145
1.0
146
1.0
273
1
  9

274
1
275
1
276
1
 42
1.0
 72
1
  3

 73
1
 74
1
 75
1
 94
63
  0
MATERIAL
  5
21
102
{ACAD_REACTORS
330
E
102
}
330
E
100
AcDbMaterial
  1
Global
  2

 70
0
 40
1.0
 71
1
 41
1.0
 91
-1023410177
 42
1.0
 72
1
  3

 73
1
 74
1
 75
1
 44
0.5
 73
0
 45
1.0
 46
1.0
 77
1
  4

 78
1
 79
1
170
1
 48
1.0
171
1
  6

172
1
173
1
174
1
140
1.0
141
1.0
175
1
  7

176
1
177
1
178
1
143
1.0
179
1
  8

270
1
271
1
272
1
145
1.0
146
1.0
273
1
  9

274
1
275
1
276
1
 42
1.0
 72
1
  3

 73
1
 74
1
 75
1
 94
63
  0
MLINESTYLE
  5
22
102
{ACAD_REACTORS
330
10
102
}
330
10
100
AcDbMlineStyle
  2
Standard
 70
0
  3

 62
256
 51
90.0
 52
90.0
 71
2
 49
0.5
 62
256
  6
BYLAYER
 49
-0.5
 62
256
  6
BYLAYER
  0
MLEADERSTYLE
  5
2C
102
{ACAD_REACTORS
330
F
102
}
330
F
100
AcDbMLeaderStyle
179
2
170
2
171
1
172
0
 90
2
 40
0.0
 41
0.0
173
1
 91
-1056964608
 92
-2
290
1
 42
2.0
291
1
 43
8.0
  3
Standard
 44
4.0
300

342
29
174
1
175
1
176
0
178
1
 93
-1056964608
 45
4.0
292
0
297
0
 46
4.0
 94
-1056964608
 47
1.0
 49
1.0
140
1.0
294
1
141
0.0
177
0
142
1.0
295
0
296
0
143
3.75
271
0
272
9
273
9
  0
DICTIONARY
  5
2D
330
A
100
AcDbDictionary
280
1
281
1
  3
CREATED_BY_EZDXF
350
2E
  3
WRITTEN_BY_EZDXF
350
168
  0
DICTIONARYVAR
  5
2E
330
2D
100
DictionaryVariables
280
0
  1
1.4.2 @ 2026-10-09T11:57:06.774599+00:00
  0
VISUALSTYLE
  5
5A
102
{ACAD_REACTORS
330
16
102
}
330
16
100
AcDbVisualStyle
  2
2dWireframe
 70
4
 90
0
 40
0.6
 62
7
290
0
291
0
  0
VISUALSTYLE
  5
5B
102
{ACAD_REACTORS
330
16
102
}
330
16
100
AcDbVisualStyle
  2
Basic
 70
7
 90
1
 40
0.6
 62
7
290
0
291
1
  0
VISUALSTYLE
  5
5C
102
{ACAD_REACTORS
330
16
102
}
330
16
100
AcDbVisualStyle
  2
Brighten
 70
12
 90
2
 40
0.6
 62
7
290
0
291
1
  0
VISUALSTYLE
  5
5D
102
{ACAD_REACTORS
330
16
102
}
330
16
100
AcDbVisualStyle
  2
ColorChange
 70
16
 90
2
 40
0.6
 62
8
290
0
291
1
  0
VISUALSTYLE
  5
5E
102
{ACAD_REACTORS
330
16
102
}
330
16
100
AcDbVisualStyle
  2
Conceptual
 70
9
 90
3
 40
0.6
 62
7
290
0
291
0
  0
VISUALSTYLE
  5
5F
102
{ACAD_REACTORS
330
16
102
}
330
16
100
AcDbVisualStyle
  2
Dim
 70
11
 90
2
 40
0.6
 62
7
290
0
291
1
  0
VISUALSTYLE
  5
60
102
{ACAD_REACTORS
330
16
102
}
330
16
100
AcDbVisualStyle
  2
EdgeColorOff
 70
22
 90
2
 40
0.6
 62
7
290
0
291
1
  0
VISUALSTYLE
  5
61
102
{ACAD_REACTORS
330
16
102
}
330
16
100
AcDbVisualStyle
  2
Facepattern
 70
15
 90
2
 40
0.6
 62
7
290
0
291
1
  0
VISUALSTYLE
  5
62
102
{ACAD_REACTORS
330
16
102
}
330
16
100
AcDbVisualStyle
  2
Flat
 70
0
 90
2
 40
0.6
 62
7
290
0
291
1
  0
VISUALSTYLE
  5
63
102
{ACAD_REACTORS
330
16
102
}
330
16
100
AcDbVisualStyle
  2
FlatWithEdges
 70
1
 90
2
 40
0.6
 62
7
290
0
291
1
  0
VISUALSTYLE
  5
64
102
{ACAD_REACTORS
330
16
102
}
330
16
100
AcDbVisualStyle
  2
Gouraud
 70
2
 90
2
 40
0.6
 62
7
290
0
291
1
  0
VISUALSTYLE
  5
65
102
{ACAD_REACTORS
330
16
102
}
330
16
100
AcDbVisualStyle
  2
GouraudWithEdges
 70
3
 90
2
 40
0.6
 62
7
290
0
291
1
  0
VISUALSTYLE
  5
66
102
{ACAD_REACTORS
330
16
102
}
330
16
100
AcDbVisualStyle
  2
Hidden
 70
6
 90
1
 40
0.6
 62
7
290
0
291
0
  0
VISUALSTYLE
  5
67
102
{ACAD_REACTORS
330
16
102
}
330
16
100
AcDbVisualStyle
  2
JitterOff
 70
20
 90
2
 40
0.6
 62
7
290
0
291
1
  0
VISUALSTYLE
  5
68
102
{ACAD_REACTORS
330
16
102
}
330
16
100
AcDbVisualStyle
  2
Linepattern
 70
14
 90
2
 40
0.6
 62
7
290
0
291
1
  0
VISUALSTYLE
  5
69
102
{ACAD_REACTORS
330
16
102
}
330
16
100
AcDbVisualStyle
  2
Modeling
 70
10
 90
2
 40
0.6
 62
7
290
0
291
0
  0
VISUALSTYLE
  5
6A
102
{ACAD_REACTORS
330
16
102
}
330
16
100
AcDbVisualStyle
  2
OverhangOff
 70
21
 90
2
 40
0.6
 62
7
290
0
291
1
  0
VISUALSTYLE
  5
6B
102
{ACAD_REACTORS
330
16
102
}
330
16
100
AcDbVisualStyle
  2
Realistic
 70
8
 90
2
 40
0.6
 62
7
290
0
291
0
  0
VISUALSTYLE
  5
6C
102
{ACAD_REACTORS
330
16
102
}
330
16
100
AcDbVisualStyle
  2
Shaded
 70
27
 90
2
 40
0.6
 62
7
290
0
291
0
  0
VISUALSTYLE
  5
6D
102
{ACAD_REACTORS
330
16
102
}
330
16
100
AcDbVisualStyle
  2
Shaded with edges
 70
26
 90
2
 40
0.6
 62
7
290
0
291
0
  0
VISUALSTYLE
  5
6E
102
{ACAD_REACTORS
330
16
102
}
330
16
100
AcDbVisualStyle
  2
Shades of Gray
 70
23
 90
2
 40
0.6
 62
7
290
0
291
0
  0
VISUALSTYLE
  5
6F
102
{ACAD_REACTORS
330
16
102
}
330
16
100
AcDbVisualStyle
  2
Sketchy
 70
24
 90
1
 40
0.6
 62
7
290
0
291
0
  0
VISUALSTYLE
  5
70
102
{ACAD_REACTORS
330
16
102
}
330
16
100
AcDbVisualStyle
  2
Thicken
 70
13
 90
2
 40
0.6
 62
7
290
0
291
1
  0
VISUALSTYLE
  5
71
102
{ACAD_REACTORS
330
16
102
}
330
16
100
AcDbVisualStyle
  2
Wireframe
 70
5
 90
0
 40
0.6
 62
7
290
0
291
0
  0
VISUALSTYLE
  5
72
102
{ACAD_REACTORS
330
16
102
}
330
16
100
AcDbVisualStyle
  2
X-Ray
 70
25
 90
2
 40
0.5
 62
7
290
0
291
0
  0
DICTIONARYVAR
  5
168
330
2D
100
DictionaryVariables
280
0
  1
1.4.2 @ 2026-10-09T11:57:06.803562+00:00
  0
ENDSEC
  0
EOF
