  0
SECTION
  2
HEADER
  9
$ACADVER
  1
AC1024
  9
$ACADMAINTVER
 70
6
  9
$DWGCODEPAGE
  3
ANSI_1252
  9
$LASTSAVEDBY
  1
ezdxf
  9
$INSBASE
 10
0.0
 20
0.0
 30
0.0
  9
$EXTMIN
 10
1e+20
 20
1e+20
 30
1e+20
  9
$EXTMAX
 10
-1e+20
 20
-1e+20
 30
-1e+20
  9
$LIMMIN
 10
0.0
 20
0.0
  9
$LIMMAX
 10
420.0
 20
297.0
  9
$ORTHOMODE
 70
0
  9
$REGENMODE
 70
1
  9
$FILLMODE
 70
1
  9
$QTEXTMODE
 70
0
  9
$MIRRTEXT
 70
1
  9
$LTSCALE
 40
1.0
  9
$ATTMODE
 70
1
  9
$TEXTSIZE
 40
2.5
  9
$TRACEWID
 40
1.0
  9
$TEXTSTYLE
  7
OpenSans
  9
$CLAYER
  8
0
  9
$CELTYPE
  6
ByLayer
  9
$CECOLOR
 62
256
  9
$CELTSCALE
 40
1.0
  9
$DISPSILH
 70
0
  9
$DIMSCALE
 40
1.0
  9
$DIMASZ
 40
0.175
  9
$DIMEXO
 40
0.125
  9
$DIMDLI
 40
3.75
  9
$DIMRND
 40
0.0
  9
$DIMDLE
 40
0.0
  9
$DIMEXE
 40
0.375
  9
$DIMTP
 40
0.0
  9
$DIMTM
 40
0.0
  9
$DIMTXT
 40
0.25
  9
$DIMCEN
 40
2.5
  9
$DIMTSZ
 40
0.0
  9
$DIMTOL
 70
0
  9
$DIMLIM
 70
0
  9
$DIMTIH
 70
0
  9
$DIMTOH
 70
0
  9
$DIMSE1
 70
0
  9
$DIMSE2
 70
0
  9
$DIMTAD
 70
1
  9
$DIMZIN
 70
12
  9
$DIMBLK
  1
ARCHTICK
  9
$DIMASO
 70
1
  9
$DIMSHO
 70
1
  9
$DIMPOST
  1

  9
$DIMAPOST
  1

  9
$DIMALT
 70
0
  9
$DIMALTD
 70
3
  9
$DIMALTF
 40
0.03937007874
  9
$DIMLFAC
 40
100.0
  9
$DIMTOFL
 70
1
  9
$DIMTVP
 40
0.0
  9
$DIMTIX
 70
0
  9
$DIMSOXD
 70
0
  9
$DIMSAH
 70
0
  9
$DIMBLK1
  1

  9
$DIMBLK2
  1

  9
$DIMSTYLE
  2
EZDXF
  9
$DIMCLRD
 70
0
  9
$DIMCLRE
 70
0
  9
$DIMCLRT
 70
0
  9
$DIMTFAC
 40
0.5
  9
$DIMGAP
 40
0.1
  9
$DIMJUST
 70
0
  9
$DIMSD1
 70
0
  9
$DIMSD2
 70
0
  9
$DIMTOLJ
 70
0
  9
$DIMTZIN
 70
8
  9
$DIMALTZ
 70
0
  9
$DIMALTTZ
 70
0
  9
$DIMUPT
 70
1
  9
$DIMDEC
 70
2
  9
$DIMTDEC
 70
2
  9
$DIMALTU
 70
2
  9
$DIMALTTD
 70
3
  9
$DIMTXSTY
  7
OpenSansCondensed-Light
  9
$DIMAUNIT
 70
0
  9
$DIMADEC
 70
2
  9
$DIMALTRND
 40
0.0
  9
$DIMAZIN
 70
3
  9
$DIMDSEP
 70
46
  9
$DIMATFIT
 70
3
  9
$DIMFRAC
 70
0
  9
$DIMLDRBLK
  1

  9
$DIMLUNIT
 70
2
  9
$DIMLWD
 70
-2
  9
$DIMLWE
 70
-2
  9
$DIMTMOVE
 70
2
  9
$DIMFXL
 40
1.0
  9
$DIMFXLON
 70
0
  9
$DIMJOGANG
 40
0.785398163397
  9
$DIMTFILL
 70
0
  9
$DIMTFILLCLR
 70
0
  9
$DIMARCSYM
 70
0
  9
$DIMLTYPE
  6

  9
$DIMLTEX1
  6

  9
$DIMLTEX2
  6

  9
$DIMTXTDIRECTION
 70
0
  9
$LUNITS
 70
4
  9
$LUPREC
 70
4
  9
$SKETCHINC
 40
1.0
  9
$FILLETRAD
 40
10.0
  9
$AUNITS
 70
0
  9
$AUPREC
 70
3
  9
$MENU
  1
.
  9
$ELEVATION
 40
0.0
  9
$PELEVATION
 40
0.0
  9
$THICKNESS
 40
0.0
  9
$LIMCHECK
 70
0
  9
$CHAMFERA
 40
0.0
  9
$CHAMFERB
 40
0.0
  9
$CHAMFERC
 40
0.0
  9
$CHAMFERD
 40
0.0
  9
$SKPOLY
 70
0
  9
$TDCREATE
 40
2461317.7930439813
  9
$TDUCREATE
 40
2458532.153996898
  9
$TDUPDATE
 40
2461317.7930439813
  9
$TDUUPDATE
 40
2458532.1544311
  9
$TDINDWG
 40
0.0
  9
$TDUSRTIMER
 40
0.0
  9
$USRTIMER
 70
1
  9
$ANGBASE
 50
0.0
  9
$ANGDIR
 70
0
  9
$PDMODE
 70
0
  9
$PDSIZE
 40
0.0
  9
$PLINEWID
 40
0.0
  9
$SPLFRAME
 70
0
  9
$SPLINETYPE
 70
6
  9
$SPLINESEGS
 70
8
  9
$HANDSEED
  5
194
  9
$SURFTAB1
 70
6
  9
$SURFTAB2
 70
6
  9
$SURFTYPE
 70
6
  9
$SURFU
 70
6
  9
$SURFV
 70
6
  9
$UCSBASE
  2

  9
$UCSNAME
  2

  9
$UCSORG
 10
0.0
 20
0.0
 30
0.0
  9
$UCSXDIR
 10
1.0
 20
0.0
 30
0.0
  9
$UCSYDIR
 10
0.0
 20
1.0
 30
0.0
  9
$UCSORTHOREF
  2

  9
$UCSORTHOVIEW
 70
0
  9
$UCSORGTOP
 10
0.0
 20
0.0
 30
0.0
  9
$UCSORGBOTTOM
 10
0.0
 20
0.0
 30
0.0
  9
$UCSORGLEFT
 10
0.0
 20
0.0
 30
0.0
  9
$UCSORGRIGHT
 10
0.0
 20
0.0
 30
0.0
  9
$UCSORGFRONT
 10
0.0
 20
0.0
 30
0.0
  9
$UCSORGBACK
 10
0.0
 20
0.0
 30
0.0
  9
$PUCSBASE
  2

  9
$PUCSNAME
  2

  9
$PUCSORG
 10
0.0
 20
0.0
 30
0.0
  9
$PUCSXDIR
 10
1.0
 20
0.0
 30
0.0
  9
$PUCSYDIR
 10
0.0
 20
1.0
 30
0.0
  9
$PUCSORTHOREF
  2

  9
$PUCSORTHOVIEW
 70
0
  9
$PUCSORGTOP
 10
0.0
 20
0.0
 30
0.0
  9
$PUCSORGBOTTOM
 10
0.0
 20
0.0
 30
0.0
  9
$PUCSORGLEFT
 10
0.0
 20
0.0
 30
0.0
  9
$PUCSORGRIGHT
 10
0.0
 20
0.0
 30
0.0
  9
$PUCSORGFRONT
 10
0.0
 20
0.0
 30
0.0
  9
$PUCSORGBACK
 10
0.0
 20
0.0
 30
0.0
  9
$USERI1
 70
0
  9
$USERI2
 70
0
  9
$USERI3
 70
0
  9
$USERI4
 70
0
  9
$USERI5
 70
0
  9
$USERR1
 40
0.0
  9
$USERR2
 40
0.0
  9
$USERR3
 40
0.0
  9
$USERR4
 40
0.0
  9
$USERR5
 40
0.0
  9
$WORLDVIEW
 70
1
  9
$SHADEDGE
 70
3
  9
$SHADEDIF
 70
70
  9
$TILEMODE
 70
1
  9
$MAXACTVP
 70
64
  9
$PINSBASE
 10
0.0
 20
0.0
 30
0.0
  9
$PLIMCHECK
 70
0
  9
$PEXTMIN
 10
1e+20
 20
1e+20
 30
1e+20
  9
$PEXTMAX
 10
-1e+20
 20
-1e+20
 30
-1e+20
  9
$PLIMMIN
 10
0.0
 20
0.0
  9
$PLIMMAX
 10
420.0
 20
297.0
  9
$UNITMODE
 70
0
  9
$VISRETAIN
 70
1
  9
$PLINEGEN
 70
0
  9
$PSLTSCALE
 70
1
  9
$TREEDEPTH
 70
3020
  9
$CMLSTYLE
  2
Standard
  9
$CMLJUST
 70
0
  9
$CMLSCALE
 40
20.0
  9
$PROXYGRAPHICS
 70
1
  9
$MEASUREMENT
 70
0
  9
$CELWEIGHT
370
-1
  9
$ENDCAPS
280
0
  9
$JOINSTYLE
280
0
  9
$LWDISPLAY
290
0
  9
$INSUNITS
 70
1
  9
$HYPERLINKBASE
  1

  9
$STYLESHEET
  1

  9
$XEDIT
290
1
  9
$CEPSNTYPE
380
0
  9
$PSTYLEMODE
290
1
  9
$FINGERPRINTGUID
  2
{68AB1676-86D2-40D4-8A37-2FE60689D8CA}
  9
$VERSIONGUID
  2
{44DB5B9F-76D8-424D-9D52-F3CC5B49EDFA}
  9
$EXTNAMES
290
1
  9
$PSVPSCALE
 40
0.0
  9
$OLESTARTUP
290
0
  9
$SORTENTS
280
127
  9
$INDEXCTL
280
0
  9
$HIDETEXT
280
1
  9
$XCLIPFRAME
280
1
  9
$HALOGAP
280
0
  9
$OBSCOLOR
 70
257
  9
$OBSLTYPE
280
0
  9
$INTERSECTIONDISPLAY
280
0
  9
$INTERSECTIONCOLOR
 70
257
  9
$DIMASSOC
280
2
  9
$PROJECTNAME
  1

  9
$CAMERADISPLAY
290
0
  9
$LENSLENGTH
 40
50.0
  9
$CAMERAHEIGHT
 40
0.0
  9
$STEPSPERSEC
 40
24.0
  9
$STEPSIZE
 40
100.0
  9
$3DDWFPREC
 40
2.0
  9
$PSOLWIDTH
 40
0.005
  9
$PSOLHEIGHT
 40
0.08
  9
$LOFTANG1
 40
1.570796326795
  9
$LOFTANG2
 40
1.570796326795
  9
$LOFTMAG1
 40
0.0
  9
$LOFTMAG2
 40
0.0
  9
$LOFTPARAM
 70
7
  9
$LOFTNORMALS
280
1
  9
$LATITUDE
 40
37.795
  9
$LONGITUDE
 40
-122.394
  9
$NORTHDIRECTION
 40
0.0
  9
$TIMEZONE
 70
-8000
  9
$LIGHTGLYPHDISPLAY
280
1
  9
$TILEMODELIGHTSYNCH
280
1
  9
$CMATERIAL
347
20
  9
$SOLIDHIST
280
0
  9
$SHOWHIST
280
1
  9
$DWFFRAME
280
2
  9
$DGNFRAME
280
2
  9
$REALWORLDSCALE
290
1
  9
$INTERFERECOLOR
 62
256
  9
$CSHADOW
280
0
  9
$SHADOWPLANELOCATION
 40
0.0
  0
ENDSEC
  0
SECTION
  2
CLASSES
  0
CLASS
  1
ACDBDICTIONARYWDFLT
  2
AcDbDictionaryWithDefault
  3
ObjectDBX Classes
 90
0
 91
0
280
0
281
0
  0
CLASS
  1
SUN
  2
AcDbSun
  3
SCENEOE
 90
1153
 91
0
280
0
281
0
  0
CLASS
  1
VISUALSTYLE
  2
AcDbVisualStyle
  3
ObjectDBX Classes
 90
4095
 91
0
280
0
281
0
  0
CLASS
  1
MATERIAL
  2
AcDbMaterial
  3
ObjectDBX Classes
 90
1153
 91
0
280
0
281
0
  0
CLASS
  1
SCALE
  2
AcDbScale
  3
ObjectDBX Classes
 90
1153
 91
0
280
0
281
0
  0
CLASS
  1
TABLESTYLE
  2
AcDbTableStyle
  3
ObjectDBX Classes
 90
4095
 91
0
280
0
281
0
  0
CLASS
  1
MLEADERSTYLE
  2
AcDbMLeaderStyle
  3
ACDB_MLEADERSTYLE_CLASS
 90
4095
 91
0
280
0
281
0
  0
CLASS
  1
DICTIONARYVAR
  2
AcDbDictionaryVar
  3
ObjectDBX Classes
 90
0
 91
0
280
0
281
0
  0
CLASS
  1
CELLSTYLEMAP
  2
AcDbCellStyleMap
  3
ObjectDBX Classes
 90
1152
 91
0
280
0
281
0
  0
CLASS
  1
MENTALRAYRENDERSETTINGS
  2
AcDbMentalRayRenderSettings
  3
SCENEOE
 90
1024
 91
0
280
0
281
0
  0
CLASS
  1
ACDBDETAILVIEWSTYLE
  2
AcDbDetailViewStyle
  3
ObjectDBX Classes
 90
1025
 91
0
280
0
281
0
  0
CLASS
  1
ACDBSECTIONVIEWSTYLE
  2
AcDbSectionViewStyle
  3
ObjectDBX Classes
 90
1025
 91
0
280
0
281
0
  0
CLASS
  1
RASTERVARIABLES
  2
AcDbRasterVariables
  3
ISM
 90
0
 91
0
280
0
281
0
  0
CLASS
  1
ACDBPLACEHOLDER
  2
AcDbPlaceHolder
  3
ObjectDBX Classes
 90
0
 91
0
280
0
281
0
  0
CLASS
  1
LAYOUT
  2
AcDbLayout
  3
ObjectDBX Classes
 90
0
 91
0
280
0
281
0
  0
ENDSEC
  0
SECTION
  2
TABLES
  0
TABLE
  2
VPORT
  5
8
330
0
100
AcDbSymbolTable
 70
1
  0
VPORT
  5
23
330
8
100
AcDbSymbolTableRecord
100
AcDbViewportTableRecord
  2
*Active
 70
0
 10
0.0
 20
0.0
 11
1.0
 21
1.0
 12
0.0
 22
0.0
 13
0.0
 23
0.0
 14
0.5
 24
0.5
 15
0.5
 25
0.5
 16
0.0
 26
0.0
 36
1.0
 17
0.0
 27
0.0
 37
0.0
 40
1000.0
 41
1.34
 42
50.0
 43
0.0
 44
0.0
 50
0.0
 51
0.0
 71
0
 72
1000
 73
1
 74
3
 75
0
 76
0
 77
0
 78
0
281
0
 65
0
146
0.0
  0
ENDTAB
  0
TABLE
  2
LTYPE
  5
2
330
0
100
AcDbSymbolTable
 70
21
  0
LTYPE
  5
24
330
2
100
AcDbSymbolTableRecord
100
AcDbLinetypeTableRecord
  2
ByBlock
 70
0
  3

 72
65
 73
0
 40
0.0
  0
LTYPE
  5
25
330
2
100
AcDbSymbolTableRecord
100
AcDbLinetypeTableRecord
  2
ByLayer
 70
0
  3

 72
65
 73
0
 40
0.0
  0
LTYPE
  5
26
330
2
100
AcDbSymbolTableRecord
100
AcDbLinetypeTableRecord
  2
Continuous
 70
0
  3

 72
65
 73
0
 40
0.0
  0
LTYPE
  5
2F
330
2
100
AcDbSymbolTableRecord
100
AcDbLinetypeTableRecord
  2
CENTER
 70
0
  3
Center ____ _ ____ _ ____ _ ____ _ ____ _ ____
 72
65
 73
4
 40
2.0
 49
1.25
 74
0
 49
-0.25
 74
0
 49
0.25
 74
0
 49
-0.25
 74
0
  0
LTYPE
  5
30
330
2
100
AcDbSymbolTableRecord
100
AcDbLinetypeTableRecord
  2
CENTERX2
 70
0
  3
Center (2x) ________  __  ________  __  ________
 72
65
 73
4
 40
3.5
 49
2.5
 74
0
 49
-0.25
 74
0
 49
0.5
 74
0
 49
-0.25
 74
0
  0
LTYPE
  5
31
330
2
100
AcDbSymbolTableRecord
100
AcDbLinetypeTableRecord
  2
CENTER2
 70
0
  3
Center (.5x) ____ _ ____ _ ____ _ ____ _ ____
 72
65
 73
4
 40
1.0
 49
0.625
 74
0
 49
-0.125
 74
0
 49
0.125
 74
0
 49
-0.125
 74
0
  0
LTYPE
  5
32
330
2
100
AcDbSymbolTableRecord
100
AcDbLinetypeTableRecord
  2
DASHED
 70
0
  3
Dashed __ __ __ __ __ __ __ __ __ __ __ __ __ _
 72
65
 73
2
 40
0.6
 49
0.5
 74
0
 49
-0.1
 74
0
  0
LTYPE
  5
33
330
2
100
AcDbSymbolTableRecord
100
AcDbLinetypeTableRecord
  2
DASHEDX2
 70
0
  3
Dashed (2x) ____  ____  ____  ____  ____  ____
 72
65
 73
2
 40
1.2
 49
1.0
 74
0
 49
-0.2
 74
0
  0
LTYPE
  5
34
330
2
100
AcDbSymbolTableRecord
100
AcDbLinetypeTableRecord
  2
DASHED2
 70
0
  3
Dashed (.5x) _ _ _ _ _ _ _ _ _ _ _ _ _ _
 72
65
 73
2
 40
0.3
 49
0.25
 74
0
 49
-0.05
 74
0
  0
LTYPE
  5
35
330
2
100
AcDbSymbolTableRecord
100
AcDbLinetypeTableRecord
  2
PHANTOM
 70
0
  3
Phantom ______  __  __  ______  __  __  ______
 72
65
 73
6
 40
2.5
 49
1.25
 74
0
 49
-0.25
 74
0
 49
0.25
 74
0
 49
-0.25
 74
0
 49
0.25
 74
0
 49
-0.25
 74
0
  0
LTYPE
  5
36
330
2
100
AcDbSymbolTableRecord
100
AcDbLinetypeTableRecord
  2
PHANTOMX2
 70
0
  3
Phantom (2x)____________    ____    ____    ____________
 72
65
 73
6
 40
4.25
 49
2.5
 74
0
 49
-0.25
 74
0
 49
0.5
 74
0
 49
-0.25
 74
0
 49
0.5
 74
0
 49
-0.25
 74
0
  0
LTYPE
  5
37
330
2
100
AcDbSymbolTableRecord
100
AcDbLinetypeTableRecord
  2
PHANTOM2
 70
0
  3
Phantom (.5x) ___ _ _ ___ _ _ ___ _ _ ___ _ _ ___
 72
65
 73
6
 40
1.25
 49
0.625
 74
0
 49
-0.125
 74
0
 49
0.125
 74
0
 49
-0.125
 74
0
 49
0.125
 74
0
 49
-0.125
 74
0
  0
LTYPE
  5
38
330
2
100
AcDbSymbolTableRecord
100
AcDbLinetypeTableRecord
  2
DASHDOT
 70
0
  3
Dash dot __ . __ . __ . __ . __ . __ . __ . __
 72
65
 73
4
 40
1.4
 49
1.0
 74
0
 49
-0.2
 74
0
 49
0.0
 74
0
 49
-0.2
 74
0
  0
LTYPE
  5
39
330
2
100
AcDbSymbolTableRecord
100
AcDbLinetypeTableRecord
  2
DASHDOTX2
 70
0
  3
Dash dot (2x) ____  .  ____  .  ____  .  ____
 72
65
 73
4
 40
2.4
 49
2.0
 74
0
 49
-0.2
 74
0
 49
0.0
 74
0
 49
-0.2
 74
0
  0
LTYPE
  5
3A
330
2
100
AcDbSymbolTableRecord
100
AcDbLinetypeTableRecord
  2
DASHDOT2
 70
0
  3
Dash dot (.5x) _ . _ . _ . _ . _ . _ . _ . _
 72
65
 73
4
 40
0.7
 49
0.5
 74
0
 49
-0.1
 74
0
 49
0.0
 74
0
 49
-0.1
 74
0
  0
LTYPE
  5
3B
330
2
100
AcDbSymbolTableRecord
100
AcDbLinetypeTableRecord
  2
DOT
 70
0
  3
Dot .  .  .  .  .  .  .  .  .  .  .  .  .  .  .  .
 72
65
 73
2
 40
0.2
 49
0.0
 74
0
 49
-0.2
 74
0
  0
LTYPE
  5
3C
330
2
100
AcDbSymbolTableRecord
100
AcDbLinetypeTableRecord
  2
DOTX2
 70
0
  3
Dot (2x) .    .    .    .    .    .    .    . 
 72
65
 73
2
 40
0.4
 49
0.0
 74
0
 49
-0.4
 74
0
  0
LTYPE
  5
3D
330
2
100
AcDbSymbolTableRecord
100
AcDbLinetypeTableRecord
  2
DOT2
 70
0
  3
Dot (.5) . . . . . . . . . . . . . . . . . . . 
 72
65
 73
2
 40
0.1
 49
0.0
 74
0
 49
-0.1
 74
0
  0
LTYPE
  5
3E
330
2
100
AcDbSymbolTableRecord
100
AcDbLinetypeTableRecord
  2
DIVIDE
 70
0
  3
Divide __ . . __ . . __ . . __ . . __ . . __
 72
65
 73
6
 40
1.6
 49
1.0
 74
0
 49
-0.2
 74
0
 49
0.0
 74
0
 49
-0.2
 74
0
 49
0.0
 74
0
 49
-0.2
 74
0
  0
LTYPE
  5
3F
330
2
100
AcDbSymbolTableRecord
100
AcDbLinetypeTableRecord
  2
DIVIDEX2
 70
0
  3
Divide (2x) ____  . .  ____  . .  ____  . .  ____
 72
65
 73
6
 40
2.6
 49
2.0
 74
0
 49
-0.2
 74
0
 49
0.0
 74
0
 49
-0.2
 74
0
 49
0.0
 74
0
 49
-0.2
 74
0
  0
LTYPE
  5
40
330
2
100
AcDbSymbolTableRecord
100
AcDbLinetypeTableRecord
  2
DIVIDE2
 70
0
  3
Divide(.5x) _ . _ . _ . _ . _ . _ . _ . _
 72
65
 73
6
 40
0.8
 49
0.5
 74
0
 49
-0.1
 74
0
 49
0.0
 74
0
 49
-0.1
 74
0
 49
0.0
 74
0
 49
-0.1
 74
0
  0
ENDTAB
  0
TABLE
  2
LAYER
  5
1
330
0
100
AcDbSymbolTable
 70
12
  0
LAYER
  5
27
330
1
100
AcDbSymbolTableRecord
100
AcDbLayerTableRecord
  2
0
 70
0
 62
7
  6
Continuous
370
-3
390
13
347
21
  0
LAYER
  5
28
330
1
100
AcDbSymbolTableRecord
100
AcDbLayerTableRecord
  2
Defpoints
 70
0
 62
7
  6
Continuous
290
0
370
-3
390
13
347
21
  0
LAYER
  5
8A
330
1
100
AcDbSymbolTableRecord
100
AcDbLayerTableRecord
  2
Bed front
 70
0
 62
7
  6
Continuous
370
-3
390
13
347
21
  0
LAYER
  5
8B
330
1
100
AcDbSymbolTableRecord
100
AcDbLayerTableRecord
  2
Bed front hatch
 70
0
 62
8
  6
Continuous
370
-3
390
13
347
21
  0
LAYER
  5
CC
330
1
100
AcDbSymbolTableRecord
100
AcDbLayerTableRecord
  2
Bed side
 70
0
 62
7
  6
Continuous
370
-3
390
13
347
21
  0
LAYER
  5
CD
330
1
100
AcDbSymbolTableRecord
100
AcDbLayerTableRecord
  2
Bed side hatch
 70
0
 62
8
  6
Continuous
370
-3
390
13
347
21
  0
LAYER
  5
11F
330
1
100
AcDbSymbolTableRecord
100
AcDbLayerTableRecord
  2
Bed plan
 70
0
 62
7
  6
Continuous
370
-3
390
13
347
21
  0
LAYER
  5
120
330
1
100
AcDbSymbolTableRecord
100
AcDbLayerTableRecord
  2
Bed plan hatch
 70
0
 62
8
  6
Continuous
370
-3
390
13
347
21
  0
LAYER
  5
14A
330
1
100
AcDbSymbolTableRecord
100
AcDbLayerTableRecord
  2
Bed foot
 70
0
 62
7
  6
Continuous
370
-3
390
13
347
21
  0
LAYER
  5
14B
330
1
100
AcDbSymbolTableRecord
100
AcDbLayerTableRecord
  2
Bed foot hatch
 70
0
 62
8
  6
Continuous
370
-3
390
13
347
21
  0
LAYER
  5
161
330
1
100
AcDbSymbolTableRecord
100
AcDbLayerTableRecord
  2
Back cushion
 70
0
 62
7
  6
Continuous
370
-3
390
13
347
21
  0
LAYER
  5
162
330
1
100
AcDbSymbolTableRecord
100
AcDbLayerTableRecord
  2
Back cushion hatch
 70
0
 62
8
  6
Continuous
370
-3
390
13
347
21
  0
ENDTAB
  0
TABLE
  2
STYLE
  5
5
330
0
100
AcDbSymbolTable
 70
26
  0
STYLE
  5
29
330
5
100
AcDbSymbolTableRecord
100
AcDbTextStyleTableRecord
  2
Standard
 70
0
 40
0.0
 41
1.0
 50
0.0
 71
0
 42
2.5
  3
txt
  4

  0
STYLE
  5
41
330
5
100
AcDbSymbolTableRecord
100
AcDbTextStyleTableRecord
  2
OpenSans-Light
 70
0
 40
0.0
 41
1.0
 50
0.0
 71
0
 42
2.5
  3
OpenSans-Light.ttf
  4

  0
STYLE
  5
42
330
5
100
AcDbSymbolTableRecord
100
AcDbTextStyleTableRecord
  2
OpenSans-Light-Italic
 70
0
 40
0.0
 41
1.0
 50
0.0
 71
0
 42
2.5
  3
OpenSans-LightItalic.ttf
  4

  0
STYLE
  5
43
330
5
100
AcDbSymbolTableRecord
100
AcDbTextStyleTableRecord
  2
OpenSans
 70
0
 40
0.0
 41
1.0
 50
0.0
 71
0
 42
2.5
  3
OpenSans-Regular.ttf
  4

  0
STYLE
  5
44
330
5
100
AcDbSymbolTableRecord
100
AcDbTextStyleTableRecord
  2
OpenSans-Italic
 70
0
 40
0.0
 41
1.0
 50
0.0
 71
0
 42
2.5
  3
OpenSans-Italic.ttf
  4

  0
STYLE
  5
45
330
5
100
AcDbSymbolTableRecord
100
AcDbTextStyleTableRecord
  2
OpenSans-SemiBold
 70
0
 40
0.0
 41
1.0
 50
0.0
 71
0
 42
2.5
  3
OpenSans-SemiBold.ttf
  4

  0
STYLE
  5
46
330
5
100
AcDbSymbolTableRecord
100
AcDbTextStyleTableRecord
  2
OpenSans-SemiBoldItalic
 70
0
 40
0.0
 41
1.0
 50
0.0
 71
0
 42
2.5
  3
OpenSans-SemiBoldItalic.ttf
  4

  0
STYLE
  5
47
330
5
100
AcDbSymbolTableRecord
100
AcDbTextStyleTableRecord
  2
OpenSans-Bold
 70
0
 40
0.0
 41
1.0
 50
0.0
 71
0
 42
2.5
  3
OpenSans-Bold.ttf
  4

  0
STYLE
  5
48
330
5
100
AcDbSymbolTableRecord
100
AcDbTextStyleTableRecord
  2
OpenSans-BoldItalic
 70
0
 40
0.0
 41
1.0
 50
0.0
 71
0
 42
2.5
  3
OpenSans-BoldItalic.ttf
  4

  0
STYLE
  5
49
330
5
100
AcDbSymbolTableRecord
100
AcDbTextStyleTableRecord
  2
OpenSans-ExtraBold
 70
0
 40
0.0
 41
1.0
 50
0.0
 71
0
 42
2.5
  3
OpenSans-ExtraBold.ttf
  4

  0
STYLE
  5
4A
330
5
100
AcDbSymbolTableRecord
100
AcDbTextStyleTableRecord
  2
OpenSans-ExtraBoldItalic
 70
0
 40
0.0
 41
1.0
 50
0.0
 71
0
 42
2.5
  3
OpenSans-ExtraBoldItalic.ttf
  4

  0
STYLE
  5
4B
330
5
100
AcDbSymbolTableRecord
100
AcDbTextStyleTableRecord
  2
OpenSansCondensed-Bold
 70
0
 40
0.0
 41
1.0
 50
0.0
 71
0
 42
2.5
  3
OpenSansCondensed-Bold.ttf
  4

  0
STYLE
  5
4C
330
5
100
AcDbSymbolTableRecord
100
AcDbTextStyleTableRecord
  2
OpenSansCondensed-Light
 70
0
 40
0.0
 41
1.0
 50
0.0
 71
0
 42
2.5
  3
OpenSansCondensed-Light.ttf
  4

  0
STYLE
  5
4D
330
5
100
AcDbSymbolTableRecord
100
AcDbTextStyleTableRecord
  2
OpenSansCondensed-Italic
 70
0
 40
0.0
 41
1.0
 50
0.0
 71
0
 42
2.5
  3
OpenSansCondensed-LightItalic.ttf
  4

  0
STYLE
  5
4E
330
5
100
AcDbSymbolTableRecord
100
AcDbTextStyleTableRecord
  2
LiberationSans
 70
0
 40
0.0
 41
1.0
 50
0.0
 71
0
 42
2.5
  3
LiberationSans-Regular.ttf
  4

  0
STYLE
  5
4F
330
5
100
AcDbSymbolTableRecord
100
AcDbTextStyleTableRecord
  2
LiberationSans-Bold
 70
0
 40
0.0
 41
1.0
 50
0.0
 71
0
 42
2.5
  3
LiberationSans-Bold.ttf
  4

  0
STYLE
  5
50
330
5
100
AcDbSymbolTableRecord
100
AcDbTextStyleTableRecord
  2
LiberationSans-BoldItalic
 70
0
 40
0.0
 41
1.0
 50
0.0
 71
0
 42
2.5
  3
LiberationSans-BoldItalic.ttf
  4

  0
STYLE
  5
51
330
5
100
AcDbSymbolTableRecord
100
AcDbTextStyleTableRecord
  2
LiberationSans-Italic
 70
0
 40
0.0
 41
1.0
 50
0.0
 71
0
 42
2.5
  3
LiberationSans-Italic.ttf
  4

  0
STYLE
  5
52
330
5
100
AcDbSymbolTableRecord
100
AcDbTextStyleTableRecord
  2
LiberationSerif
 70
0
 40
0.0
 41
1.0
 50
0.0
 71
0
 42
2.5
  3
LiberationSerif-Regular.ttf
  4

  0
STYLE
  5
53
330
5
100
AcDbSymbolTableRecord
100
AcDbTextStyleTableRecord
  2
LiberationSerif-Bold
 70
0
 40
0.0
 41
1.0
 50
0.0
 71
0
 42
2.5
  3
LiberationSerif-Bold.ttf
  4

  0
STYLE
  5
54
330
5
100
AcDbSymbolTableRecord
100
AcDbTextStyleTableRecord
  2
LiberationSerif-BoldItalic
 70
0
 40
0.0
 41
1.0
 50
0.0
 71
0
 42
2.5
  3
LiberationSerif-BoldItalic.ttf
  4

  0
STYLE
  5
55
330
5
100
AcDbSymbolTableRecord
100
AcDbTextStyleTableRecord
  2
LiberationSerif-Italic
 70
0
 40
0.0
 41
1.0
 50
0.0
 71
0
 42
2.5
  3
LiberationSerif-Italic.ttf
  4

  0
STYLE
  5
56
330
5
100
AcDbSymbolTableRecord
100
AcDbTextStyleTableRecord
  2
LiberationMono
 70
0
 40
0.0
 41
1.0
 50
0.0
 71
0
 42
2.5
  3
LiberationMono-Regular.ttf
  4

  0
STYLE
  5
57
330
5
100
AcDbSymbolTableRecord
100
AcDbTextStyleTableRecord
  2
LiberationMono-Bold
 70
0
 40
0.0
 41
1.0
 50
0.0
 71
0
 42
2.5
  3
LiberationMono-Bold.ttf
  4

  0
STYLE
  5
58
330
5
100
AcDbSymbolTableRecord
100
AcDbTextStyleTableRecord
  2
LiberationMono-BoldItalic
 70
0
 40
0.0
 41
1.0
 50
0.0
 71
0
 42
2.5
  3
LiberationMono-BoldItalic.ttf
  4

  0
STYLE
  5
59
330
5
100
AcDbSymbolTableRecord
100
AcDbTextStyleTableRecord
  2
LiberationMono-Italic
 70
0
 40
0.0
 41
1.0
 50
0.0
 71
0
 42
2.5
  3
LiberationMono-Italic.ttf
  4

  0
ENDTAB
  0
TABLE
  2
VIEW
  5
7
330
0
100
AcDbSymbolTable
 70
0
  0
ENDTAB
  0
TABLE
  2
UCS
  5
6
330
0
100
AcDbSymbolTable
 70
0
  0
ENDTAB
  0
TABLE
  2
APPID
  5
3
330
0
100
AcDbSymbolTable
 70
3
  0
APPID
  5
2A
330
3
100
AcDbSymbolTableRecord
100
AcDbRegAppTableRecord
  2
ACAD
 70
0
  0
APPID
  5
191
330
3
100
AcDbSymbolTableRecord
100
AcDbRegAppTableRecord
  2
HATCHBACKGROUNDCOLOR
 70
0
  0
APPID
  5
192
330
3
100
AcDbSymbolTableRecord
100
AcDbRegAppTableRecord
  2
EZDXF
 70
0
  0
ENDTAB
  0
TABLE
  2
DIMSTYLE
  5
4
330
0
100
AcDbSymbolTable
 70
12
100
AcDbDimStyleTable
  0
DIMSTYLE
105
2B
330
4
100
AcDbSymbolTableRecord
100
AcDbDimStyleTableRecord
  2
Standard
 70
0
 40
1.0
 41
2.5
 42
0.625
 43
3.75
 44
1.25
 45
0.0
 46
0.0
 47
0.0
 48
0.0
 49
2.5
140
2.5
141
2.5
142
0.0
143
0.03937007874
144
1.0
145
0.0
146
1.0
147
0.625
148
0.0
 69
0
 70
0
 71
0
 72
0
 73
0
 74
0
 75
0
 76
0
 77
1
 78
8
 79
3
170
0
171
3
172
1
173
0
174
0
175
0
176
0
177
0
178
0
179
2
271
2
272
2
273
2
274
3
275
0
276
0
277
2
278
44
279
0
280
0
281
0
282
0
283
0
284
8
285
0
286
0
288
0
289
3
290
0
371
-2
372
-2
  0
DIMSTYLE
105
73
330
4
100
AcDbSymbolTableRecord
100
AcDbDimStyleTableRecord
  2
EZDXF
 70
0
 40
1.0
 41
0.175
 42
0.125
 43
3.75
 44
0.375
 45
0.0
 46
0.0
 47
0.0
 48
0.0
 49
2.5
140
0.25
141
2.5
142
0.0
143
0.03937007874
144
100.0
145
0.0
146
0.5
147
0.1
148
0.0
 69
0
 70
0
 71
0
 72
0
 73
0
 74
0
 75
0
 76
0
 77
1
 78
12
 79
3
170
0
171
3
172
1
173
0
174
0
175
0
176
0
177
0
178
0
179
2
271
2
272
2
273
2
274
3
275
0
276
0
277
2
278
46
279
2
280
0
281
0
282
0
283
0
284
8
285
0
286
0
288
1
289
3
290
0
340
4C
342
74
371
-2
372
-2
  0
DIMSTYLE
105
7C
330
4
100
AcDbSymbolTableRecord
100
AcDbDimStyleTableRecord
  2
EZ_M_100_H25_CM
 70
0
 40
1.0
 41
0.25
 42
0.125
 43
3.75
 44
0.375
 45
0.0
 46
0.0
 47
0.0
 48
0.0
 49
2.5
140
0.25
141
2.5
142
0.125
143
0.03937007874
144
100.0
145
0.0
146
0.5
147
0.1
148
0.0
 69
0
 70
0
 71
0
 72
0
 73
0
 74
0
 75
0
 76
0
 77
1
 78
12
 79
3
170
0
171
3
172
1
173
0
174
0
175
0
176
0
177
0
178
0
179
2
271
2
272
2
273
2
274
3
275
0
276
0
277
2
278
46
279
2
280
0
281
0
282
0
283
0
284
8
285
0
286
0
288
1
289
3
290
0
340
4C
371
-2
372
-2
  0
DIMSTYLE
105
7D
330
4
100
AcDbSymbolTableRecord
100
AcDbDimStyleTableRecord
  2
EZ_M_50_H25_CM
 70
0
 40
1.0
 41
0.125
 42
0.0625
 43
3.75
 44
0.1875
 45
0.0
 46
0.0
 47
0.0
 48
0.0
 49
2.5
140
0.125
141
2.5
142
0.0625
143
0.03937007874
144
100.0
145
0.0
146
0.5
147
0.05
148
0.0
 69
0
 70
0
 71
0
 72
0
 73
0
 74
0
 75
0
 76
0
 77
1
 78
12
 79
3
170
0
171
3
172
1
173
0
174
0
175
0
176
0
177
0
178
0
179
2
271
2
272
2
273
2
274
3
275
0
276
0
277
2
278
46
279
2
280
0
281
0
282
0
283
0
284
8
285
0
286
0
288
1
289
3
290
0
340
4C
371
-2
372
-2
  0
DIMSTYLE
105
7E
330
4
100
AcDbSymbolTableRecord
100
AcDbDimStyleTableRecord
  2
EZ_M_25_H25_CM
 70
0
 40
1.0
 41
0.0625
 42
0.03125
 43
3.75
 44
0.09375
 45
0.0
 46
0.0
 47
0.0
 48
0.0
 49
2.5
140
0.0625
141
2.5
142
0.03125
143
0.03937007874
144
100.0
145
0.0
146
0.5
147
0.025
148
0.0
 69
0
 70
0
 71
0
 72
0
 73
0
 74
0
 75
0
 76
0
 77
1
 78
12
 79
3
170
0
171
3
172
1
173
0
174
0
175
0
176
0
177
0
178
0
179
2
271
2
272
2
273
2
274
3
275
0
276
0
277
2
278
46
279
2
280
0
281
0
282
0
283
0
284
8
285
0
286
0
288
1
289
3
290
0
340
4C
371
-2
372
-2
  0
DIMSTYLE
105
7F
330
4
100
AcDbSymbolTableRecord
100
AcDbDimStyleTableRecord
  2
EZ_M_20_H25_CM
 70
0
 40
1.0
 41
0.05
 42
0.025
 43
3.75
 44
0.07500000000000001
 45
0.0
 46
0.0
 47
0.0
 48
0.0
 49
2.5
140
0.05
141
2.5
142
0.025
143
0.03937007874
144
100.0
145
0.0
146
0.5
147
0.020000000000000004
148
0.0
 69
0
 70
0
 71
0
 72
0
 73
0
 74
0
 75
0
 76
0
 77
1
 78
12
 79
3
170
0
171
3
172
1
173
0
174
0
175
0
176
0
177
0
178
0
179
2
271
2
272
2
273
2
274
3
275
0
276
0
277
2
278
46
279
2
280
0
281
0
282
0
283
0
284
8
285
0
286
0
288
1
289
3
290
0
340
4C
371
-2
372
-2
  0
DIMSTYLE
105
80
330
4
100
AcDbSymbolTableRecord
100
AcDbDimStyleTableRecord
  2
EZ_M_10_H25_CM
 70
0
 40
1.0
 41
0.025
 42
0.0125
 43
3.75
 44
0.037500000000000006
 45
0.0
 46
0.0
 47
0.0
 48
0.0
 49
2.5
140
0.025
141
2.5
142
0.0125
143
0.03937007874
144
100.0
145
0.0
146
0.5
147
0.010000000000000002
148
0.0
 69
0
 70
0
 71
0
 72
0
 73
0
 74
0
 75
0
 76
0
 77
1
 78
12
 79
3
170
0
171
3
172
1
173
0
174
0
175
0
176
0
177
0
178
0
179
2
271
2
272
2
273
2
274
3
275
0
276
0
277
2
278
46
279
2
280
0
281
0
282
0
283
0
284
8
285
0
286
0
288
1
289
3
290
0
340
4C
371
-2
372
-2
  0
DIMSTYLE
105
81
330
4
100
AcDbSymbolTableRecord
100
AcDbDimStyleTableRecord
  2
EZ_M_5_H25_CM
 70
0
 40
1.0
 41
0.0125
 42
0.00625
 43
3.75
 44
0.018750000000000003
 45
0.0
 46
0.0
 47
0.0
 48
0.0
 49
2.5
140
0.0125
141
2.5
142
0.00625
143
0.03937007874
144
100.0
145
0.0
146
0.5
147
0.005000000000000001
148
0.0
 69
0
 70
0
 71
0
 72
0
 73
0
 74
0
 75
0
 76
0
 77
1
 78
12
 79
3
170
0
171
3
172
1
173
0
174
0
175
0
176
0
177
0
178
0
179
2
271
2
272
2
273
2
274
3
275
0
276
0
277
2
278
46
279
2
280
0
281
0
282
0
283
0
284
8
285
0
286
0
288
1
289
3
290
0
340
4C
371
-2
372
-2
  0
DIMSTYLE
105
82
330
4
100
AcDbSymbolTableRecord
100
AcDbDimStyleTableRecord
  2
EZ_M_1_H25_CM
 70
0
 40
1.0
 41
0.0025
 42
0.00125
 43
3.75
 44
0.00375
 45
0.0
 46
0.0
 47
0.0
 48
0.0
 49
2.5
140
0.0025
141
2.5
142
0.00125
143
0.03937007874
144
100.0
145
0.0
146
0.5
147
0.001
148
0.0
 69
0
 70
0
 71
0
 72
0
 73
0
 74
0
 75
0
 76
0
 77
1
 78
12
 79
3
170
0
171
3
172
1
173
0
174
0
175
0
176
0
177
0
178
0
179
2
271
2
272
2
273
2
274
3
275
0
276
0
277
2
278
46
279
2
280
0
281
0
282
0
283
0
284
8
285
0
286
0
288
1
289
3
290
0
340
4C
371
-2
372
-2
  0
DIMSTYLE
105
83
330
4
100
AcDbSymbolTableRecord
100
AcDbDimStyleTableRecord
  2
EZ_RADIUS
 70
0
 40
1.0
 41
0.25
 42
0.125
 43
3.75
 44
0.375
 45
0.0
 46
0.0
 47
0.0
 48
0.0
 49
2.5
140
0.25
141
0.0
142
0.0
143
0.03937007874
144
100.0
145
0.0
146
0.5
147
0.1
148
0.0
 69
0
 70
0
 71
0
 72
0
 73
0
 74
0
 75
0
 76
0
 77
1
 78
12
 79
3
170
0
171
3
172
0
173
0
174
0
175
0
176
0
177
0
178
0
179
2
271
2
272
2
273
2
274
3
275
0
276
0
277
2
278
46
279
1
280
0
281
0
282
0
283
0
284
8
285
0
286
0
288
1
289
3
290
0
340
4C
342
84
371
-2
372
-2
  0
DIMSTYLE
105
88
330
4
100
AcDbSymbolTableRecord
100
AcDbDimStyleTableRecord
  2
EZ_RADIUS_INSIDE
 70
0
 40
1.0
 41
0.25
 42
0.125
 43
3.75
 44
0.375
 45
0.0
 46
0.0
 47
0.0
 48
0.0
 49
2.5
140
0.25
141
0.0
142
0.0
143
0.03937007874
144
100.0
145
0.0
146
0.5
147
0.1
148
0.0
 69
0
 70
0
 71
0
 72
0
 73
0
 74
0
 75
0
 76
0
 77
0
 78
12
 79
3
170
0
171
3
172
0
173
0
174
1
175
0
176
0
177
0
178
0
179
2
271
2
272
2
273
2
274
3
275
0
276
0
277
2
278
46
279
0
280
0
281
0
282
0
283
0
284
8
285
0
286
0
288
1
289
0
290
0
340
4C
342
84
371
-2
372
-2
  0
DIMSTYLE
105
89
330
4
100
AcDbSymbolTableRecord
100
AcDbDimStyleTableRecord
  2
EZ_CURVED
 70
0
 40
1.0
 41
0.25
 42
0.125
 43
3.75
 44
0.375
 45
0.0
 46
0.0
 47
0.0
 48
0.0
 49
2.5
140
0.25
141
2.5
142
0.0
143
0.03937007874
144
100.0
145
0.0
146
0.5
147
0.1
148
0.0
 69
0
 70
0
 71
0
 72
0
 73
0
 74
0
 75
0
 76
0
 77
1
 78
12
 79
2
 90
2
170
0
171
3
172
1
173
0
174
0
175
0
176
0
177
0
178
0
179
2
271
2
272
2
273
2
274
3
275
0
276
0
277
2
278
46
279
2
280
0
281
0
282
0
283
0
284
8
285
0
286
0
288
1
289
3
290
0
340
4C
371
-2
372
-2
  0
ENDTAB
  0
TABLE
  2
BLOCK_RECORD
  5
9
330
0
100
AcDbSymbolTable
 70
5
  0
BLOCK_RECORD
  5
17
330
9
100
AcDbSymbolTableRecord
100
AcDbBlockTableRecord
  2
*Model_Space
340
1A
 70
0
280
1
281
0
  0
BLOCK_RECORD
  5
1B
330
9
100
AcDbSymbolTableRecord
100
AcDbBlockTableRecord
  2
*Paper_Space
340
1E
 70
0
280
1
281
0
  0
BLOCK_RECORD
  5
74
330
9
100
AcDbSymbolTableRecord
100
AcDbBlockTableRecord
  2
_ARCHTICK
340
0
 70
0
280
1
281
0
  0
BLOCK_RECORD
  5
78
330
9
100
AcDbSymbolTableRecord
100
AcDbBlockTableRecord
  2
_CLOSEDFILLED
340
0
 70
0
280
1
281
0
  0
BLOCK_RECORD
  5
84
330
9
100
AcDbSymbolTableRecord
100
AcDbBlockTableRecord
  2
_CLOSEDBLANK
340
0
 70
0
280
1
281
0
  0
ENDTAB
  0
ENDSEC
  0
SECTION
  2
BLOCKS
  0
BLOCK
  5
18
330
17
100
AcDbEntity
  8
0
100
AcDbBlockBegin
  2
*Model_Space
 70
0
 10
0.0
 20
0.0
 30
0.0
  3
*Model_Space
  1

  0
ENDBLK
  5
19
330
17
100
AcDbEntity
  8
0
100
AcDbBlockEnd
  0
BLOCK
  5
1C
330
1B
100
AcDbEntity
  8
0
100
AcDbBlockBegin
  2
*Paper_Space
 70
0
 10
0.0
 20
0.0
 30
0.0
  3
*Paper_Space
  1

  0
ENDBLK
  5
1D
330
1B
100
AcDbEntity
  8
0
100
AcDbBlockEnd
  0
BLOCK
  5
75
330
74
100
AcDbEntity
  8
0
100
AcDbBlockBegin
  2
_ARCHTICK
 70
0
 10
0.0
 20
0.0
 30
0.0
  3
_ARCHTICK
  1

  0
LWPOLYLINE
  5
77
330
74
100
AcDbEntity
  8
0
  6
BYBLOCK
 62
0
100
AcDbPolyline
 90
2
 70
0
 43
0.15
 10
-0.5
 20
-0.5
 10
0.5
 20
0.5
  0
ENDBLK
  5
76
330
74
100
AcDbEntity
  8
0
100
AcDbBlockEnd
  0
BLOCK
  5
79
330
78
100
AcDbEntity
  8
0
100
AcDbBlockBegin
  2
_CLOSEDFILLED
 70
0
 10
0.0
 20
0.0
 30
0.0
  3
_CLOSEDFILLED
  1

  0
SOLID
  5
7B
330
78
100
AcDbEntity
  8
0
  6
BYBLOCK
 62
0
100
AcDbTrace
 10
-1.0
 20
0.16439898372402537
 30
0.0
 11
0.0
 21
0.0
 31
0.0
 12
-1.0
 22
-0.16439898372402537
 32
0.0
 13
-1.0
 23
-0.16439898372402537
 33
0.0
  0
ENDBLK
  5
7A
330
78
100
AcDbEntity
  8
0
100
AcDbBlockEnd
  0
BLOCK
  5
85
330
84
100
AcDbEntity
  8
0
100
AcDbBlockBegin
  2
_CLOSEDBLANK
 70
0
 10
0.0
 20
0.0
 30
0.0
  3
_CLOSEDBLANK
  1

  0
LWPOLYLINE
  5
87
330
84
100
AcDbEntity
  8
0
  6
BYBLOCK
 62
0
100
AcDbPolyline
 90
3
 70
1
 10
-1.0
 20
0.16439898372402537
 10
0.0
 20
0.0
 10
-1.0
 20
-0.16439898372402537
  0
ENDBLK
  5
86
330
84
100
AcDbEntity
  8
0
100
AcDbBlockEnd
  0
ENDSEC
  0
SECTION
  2
ENTITIES
  0
POLYLINE
  5
8C
330
17
100
AcDbEntity
  8
Bed front
100
AcDb2dPolyline
 66
1
 10
0.0
 20
0.0
 30
0.0
 70
0
  0
VERTEX
  5
8D
330
8C
100
AcDbEntity
  8
Bed front
100
AcDbVertex
100
AcDb2dVertex
 10
8.700787401574804
 20
37.69566929133858
 30
0.0
 70
0
  0
VERTEX
  5
8E
330
8C
100
AcDbEntity
  8
Bed front
100
AcDbVertex
100
AcDb2dVertex
 10
76.7716535433071
 20
37.69566929133858
 30
0.0
 70
0
  0
SEQEND
  5
8F
330
8C
100
AcDbEntity
  8
Bed front
  0
SPLINE
  5
90
330
17
100
AcDbEntity
  8
Bed front
100
AcDbSpline
 70
0
 71
3
 72
14
 73
10
 74
0
 40
0.0
 40
0.0
 40
0.0
 40
0.0
 40
1.0
 40
1.0
 40
1.0
 40
2.0
 40
2.0
 40
2.0
 40
3.0
 40
3.0
 40
3.0
 40
3.0
 10
76.7716535433071
 20
37.69566929133858
 30
0.0
 10
77.117172431319
 20
37.69566929133858
 30
0.0
 10
77.45667737730535
 20
37.604699215235165
 30
0.0
 10
77.75590551181102
 20
37.43193977122921
 30
0.0
 10
78.05513364631669
 20
37.259180327223255
 30
0.0
 10
78.30366851619964
 20
37.01064545734031
 30
0.0
 10
78.4764279602056
 20
36.71141732283465
 30
0.0
 10
78.64918740421155
 20
36.41218918832898
 30
0.0
 10
78.74015748031496
 20
36.07268424234262
 30
0.0
 10
78.74015748031496
 20
35.72716535433071
 30
0.0
  0
POLYLINE
  5
91
330
17
100
AcDbEntity
  8
Bed front
100
AcDb2dPolyline
 66
1
 10
0.0
 20
0.0
 30
0.0
 70
0
  0
VERTEX
  5
92
330
91
100
AcDbEntity
  8
Bed front
100
AcDbVertex
100
AcDb2dVertex
 10
78.74015748031496
 20
35.72716535433071
 30
0.0
 70
0
  0
VERTEX
  5
93
330
91
100
AcDbEntity
  8
Bed front
100
AcDbVertex
100
AcDb2dVertex
 10
78.74015748031496
 20
22.598425196850396
 30
0.0
 70
0
  0
SEQEND
  5
94
330
91
100
AcDbEntity
  8
Bed front
  0
SPLINE
  5
95
330
17
100
AcDbEntity
  8
Bed front
100
AcDbSpline
 70
0
 71
3
 72
14
 73
10
 74
0
 40
0.0
 40
0.0
 40
0.0
 40
0.0
 40
1.0
 40
1.0
 40
1.0
 40
2.0
 40
2.0
 40
2.0
 40
3.0
 40
3.0
 40
3.0
 40
3.0
 10
78.74015748031496
 20
22.598425196850396
 30
0.0
 10
78.74015748031496
 20
22.252906308838483
 30
0.0
 10
78.64918740421155
 20
21.913401362852124
 30
0.0
 10
78.4764279602056
 20
21.61417322834646
 30
0.0
 10
78.30366851619964
 20
21.31494509384079
 30
0.0
 10
78.05513364631669
 20
21.06641022395785
 30
0.0
 10
77.75590551181102
 20
20.893650779951894
 30
0.0
 10
77.45667737730535
 20
20.720891335945936
 30
0.0
 10
77.117172431319
 20
20.629921259842522
 30
0.0
 10
76.7716535433071
 20
20.629921259842522
 30
0.0
  0
POLYLINE
  5
96
330
17
100
AcDbEntity
  8
Bed front
100
AcDb2dPolyline
 66
1
 10
0.0
 20
0.0
 30
0.0
 70
0
  0
VERTEX
  5
97
330
96
100
AcDbEntity
  8
Bed front
100
AcDbVertex
100
AcDb2dVertex
 10
76.7716535433071
 20
20.629921259842522
 30
0.0
 70
0
  0
VERTEX
  5
98
330
96
100
AcDbEntity
  8
Bed front
100
AcDbVertex
100
AcDb2dVertex
 10
8.700787401574804
 20
20.629921259842522
 30
0.0
 70
0
  0
SEQEND
  5
99
330
96
100
AcDbEntity
  8
Bed front
  0
SPLINE
  5
9A
330
17
100
AcDbEntity
  8
Bed front
100
AcDbSpline
 70
0
 71
3
 72
14
 73
10
 74
0
 40
0.0
 40
0.0
 40
0.0
 40
0.0
 40
1.0
 40
1.0
 40
1.0
 40
2.0
 40
2.0
 40
2.0
 40
3.0
 40
3.0
 40
3.0
 40
3.0
 10
8.700787401574804
 20
20.629921259842522
 30
0.0
 10
8.35526851356289
 20
20.629921259842522
 30
0.0
 10
8.015763567576531
 20
20.720891335945936
 30
0.0
 10
7.716535433070866
 20
20.893650779951894
 30
0.0
 10
7.417307298565199
 20
21.06641022395785
 30
0.0
 10
7.168772428682258
 20
21.31494509384079
 30
0.0
 10
6.996012984676302
 20
21.61417322834646
 30
0.0
 10
6.823253540670345
 20
21.913401362852124
 30
0.0
 10
6.73228346456693
 20
22.252906308838483
 30
0.0
 10
6.732283464566929
 20
22.598425196850396
 30
0.0
  0
POLYLINE
  5
9B
330
17
100
AcDbEntity
  8
Bed front
100
AcDb2dPolyline
 66
1
 10
0.0
 20
0.0
 30
0.0
 70
0
  0
VERTEX
  5
9C
330
9B
100
AcDbEntity
  8
Bed front
100
AcDbVertex
100
AcDb2dVertex
 10
6.732283464566929
 20
22.598425196850396
 30
0.0
 70
0
  0
VERTEX
  5
9D
330
9B
100
AcDbEntity
  8
Bed front
100
AcDbVertex
100
AcDb2dVertex
 10
6.732283464566929
 20
35.72716535433071
 30
0.0
 70
0
  0
SEQEND
  5
9E
330
9B
100
AcDbEntity
  8
Bed front
  0
SPLINE
  5
9F
330
17
100
AcDbEntity
  8
Bed front
100
AcDbSpline
 70
0
 71
3
 72
14
 73
10
 74
0
 40
0.0
 40
0.0
 40
0.0
 40
0.0
 40
1.0
 40
1.0
 40
1.0
 40
2.0
 40
2.0
 40
2.0
 40
3.0
 40
3.0
 40
3.0
 40
3.0
 10
6.732283464566929
 20
35.72716535433071
 30
0.0
 10
6.732283464566929
 20
36.07268424234262
 30
0.0
 10
6.823253540670345
 20
36.41218918832898
 30
0.0
 10
6.996012984676302
 20
36.71141732283465
 30
0.0
 10
7.1687724286822565
 20
37.01064545734031
 30
0.0
 10
7.417307298565198
 20
37.259180327223255
 30
0.0
 10
7.716535433070865
 20
37.43193977122921
 30
0.0
 10
8.015763567576531
 20
37.604699215235165
 30
0.0
 10
8.35526851356289
 20
37.69566929133858
 30
0.0
 10
8.700787401574804
 20
37.69566929133858
 30
0.0
  0
LWPOLYLINE
  5
A0
330
17
100
AcDbEntity
  8
Bed front
100
AcDbPolyline
 90
2
 70
0
 10
8.307086614173228
 20
37.22322834645669
 10
77.16535433070867
 20
37.22322834645669
  0
LWPOLYLINE
  5
A1
330
17
100
AcDbEntity
  8
Bed front
100
AcDbPolyline
 90
5
 70
0
 10
8.307086614173228
 20
28.897637795275593
 10
40.374015748031496
 20
28.897637795275593
 10
40.374015748031496
 20
21.023622047244096
 10
8.307086614173228
 20
21.023622047244096
 10
8.307086614173228
 20
28.897637795275593
  0
LWPOLYLINE
  5
A2
330
17
100
AcDbEntity
  8
Bed front
100
AcDbPolyline
 90
5
 70
0
 10
45.09842519685039
 20
28.897637795275593
 10
77.16535433070867
 20
28.897637795275593
 10
77.16535433070867
 20
21.023622047244096
 10
45.09842519685039
 20
21.023622047244096
 10
45.09842519685039
 20
28.897637795275593
  0
LWPOLYLINE
  5
A3
330
17
100
AcDbEntity
  8
Bed front
100
AcDbPolyline
 90
5
 70
0
 10
6.732283464566929
 20
21.023622047244096
 10
78.74015748031496
 20
21.023622047244096
 10
78.74015748031496
 20
11.023622047244096
 10
6.732283464566929
 20
11.023622047244096
 10
6.732283464566929
 20
21.023622047244096
  0
LWPOLYLINE
  5
A4
330
17
100
AcDbEntity
  8
Bed front
100
AcDbPolyline
 90
5
 70
0
 10
4.724409448818897
 20
11.023622047244096
 10
80.74803149606299
 20
11.023622047244096
 10
80.74803149606299
 20
7.00787401574803
 10
4.724409448818897
 20
7.00787401574803
 10
4.724409448818897
 20
11.023622047244096
  0
LINE
  5
A5
330
17
100
AcDbEntity
  8
Bed front
100
AcDbLine
 10
4.724409448818897
 20
10.039370078740157
 30
0.0
 11
80.74803149606299
 21
10.039370078740157
 31
0.0
  0
POLYLINE
  5
A6
330
17
100
AcDbEntity
  8
Bed front
100
AcDb2dPolyline
 66
1
 10
0.0
 20
0.0
 30
0.0
 70
0
  0
VERTEX
  5
A7
330
A6
100
AcDbEntity
  8
Bed front
100
AcDbVertex
100
AcDb2dVertex
 10
9.251968503937007
 20
7.00787401574803
 30
0.0
 70
0
  0
VERTEX
  5
A8
330
A6
100
AcDbEntity
  8
Bed front
100
AcDbVertex
100
AcDb2dVertex
 10
9.251968503937007
 20
6.377952755905511
 30
0.0
 70
0
  0
SEQEND
  5
A9
330
A6
100
AcDbEntity
  8
Bed front
  0
SPLINE
  5
AA
330
17
100
AcDbEntity
  8
Bed front
100
AcDbSpline
 70
0
 71
3
 72
8
 73
4
 74
0
 40
0.0
 40
0.0
 40
0.0
 40
0.0
 40
1.0
 40
1.0
 40
1.0
 40
1.0
 10
9.251968503937007
 20
6.377952755905511
 30
0.0
 10
8.759842519685039
 20
5.826771653543311
 30
0.0
 10
8.60236220472441
 20
3.464566929133859
 30
0.0
 10
8.759842519685039
 20
2.677165354330711
 30
0.0
  0
SPLINE
  5
AB
330
17
100
AcDbEntity
  8
Bed front
100
AcDbSpline
 70
0
 71
3
 72
8
 73
4
 74
0
 40
0.0
 40
0.0
 40
0.0
 40
0.0
 40
1.0
 40
1.0
 40
1.0
 40
1.0
 10
8.759842519685039
 20
2.677165354330711
 30
0.0
 10
8.996062992125983
 20
1.1811023622047259
 30
0.0
 10
9.448818897637794
 20
0.39370078740157766
 30
0.0
 10
9.448818897637794
 20
0.0
 30
0.0
  0
POLYLINE
  5
AC
330
17
100
AcDbEntity
  8
Bed front
100
AcDb2dPolyline
 66
1
 10
0.0
 20
0.0
 30
0.0
 70
0
  0
VERTEX
  5
AD
330
AC
100
AcDbEntity
  8
Bed front
100
AcDbVertex
100
AcDb2dVertex
 10
9.448818897637794
 20
0.0
 30
0.0
 70
0
  0
VERTEX
  5
AE
330
AC
100
AcDbEntity
  8
Bed front
100
AcDbVertex
100
AcDb2dVertex
 10
11.811023622047244
 20
0.0
 30
0.0
 70
0
  0
SEQEND
  5
AF
330
AC
100
AcDbEntity
  8
Bed front
  0
SPLINE
  5
B0
330
17
100
AcDbEntity
  8
Bed front
100
AcDbSpline
 70
0
 71
3
 72
8
 73
4
 74
0
 40
0.0
 40
0.0
 40
0.0
 40
0.0
 40
1.0
 40
1.0
 40
1.0
 40
1.0
 10
11.811023622047244
 20
0.0
 30
0.0
 10
11.811023622047244
 20
0.39370078740157766
 30
0.0
 10
12.263779527559056
 20
1.1811023622047259
 30
0.0
 10
12.5
 20
2.677165354330711
 30
0.0
  0
SPLINE
  5
B1
330
17
100
AcDbEntity
  8
Bed front
100
AcDbSpline
 70
0
 71
3
 72
8
 73
4
 74
0
 40
0.0
 40
0.0
 40
0.0
 40
0.0
 40
1.0
 40
1.0
 40
1.0
 40
1.0
 10
12.5
 20
2.677165354330711
 30
0.0
 10
12.65748031496063
 20
3.464566929133859
 30
0.0
 10
12.5
 20
5.826771653543311
 30
0.0
 10
12.00787401574803
 20
6.377952755905511
 30
0.0
  0
POLYLINE
  5
B2
330
17
100
AcDbEntity
  8
Bed front
100
AcDb2dPolyline
 66
1
 10
0.0
 20
0.0
 30
0.0
 70
0
  0
VERTEX
  5
B3
330
B2
100
AcDbEntity
  8
Bed front
100
AcDbVertex
100
AcDb2dVertex
 10
12.00787401574803
 20
6.377952755905511
 30
0.0
 70
0
  0
VERTEX
  5
B4
330
B2
100
AcDbEntity
  8
Bed front
100
AcDbVertex
100
AcDb2dVertex
 10
12.00787401574803
 20
7.00787401574803
 30
0.0
 70
0
  0
VERTEX
  5
B5
330
B2
100
AcDbEntity
  8
Bed front
100
AcDbVertex
100
AcDb2dVertex
 10
9.251968503937007
 20
7.00787401574803
 30
0.0
 70
0
  0
SEQEND
  5
B6
330
B2
100
AcDbEntity
  8
Bed front
  0
LINE
  5
B7
330
17
100
AcDbEntity
  8
Bed front
100
AcDbLine
 10
9.251968503937007
 20
6.377952755905512
 30
0.0
 11
12.007874015748031
 21
6.377952755905512
 31
0.0
  0
POLYLINE
  5
B8
330
17
100
AcDbEntity
  8
Bed front
100
AcDb2dPolyline
 66
1
 10
0.0
 20
0.0
 30
0.0
 70
0
  0
VERTEX
  5
B9
330
B8
100
AcDbEntity
  8
Bed front
100
AcDbVertex
100
AcDb2dVertex
 10
73.46456692913387
 20
7.00787401574803
 30
0.0
 70
0
  0
VERTEX
  5
BA
330
B8
100
AcDbEntity
  8
Bed front
100
AcDbVertex
100
AcDb2dVertex
 10
73.46456692913387
 20
6.377952755905511
 30
0.0
 70
0
  0
SEQEND
  5
BB
330
B8
100
AcDbEntity
  8
Bed front
  0
SPLINE
  5
BC
330
17
100
AcDbEntity
  8
Bed front
100
AcDbSpline
 70
0
 71
3
 72
8
 73
4
 74
0
 40
0.0
 40
0.0
 40
0.0
 40
0.0
 40
1.0
 40
1.0
 40
1.0
 40
1.0
 10
73.46456692913387
 20
6.377952755905511
 30
0.0
 10
72.9724409448819
 20
5.826771653543311
 30
0.0
 10
72.81496062992126
 20
3.464566929133859
 30
0.0
 10
72.9724409448819
 20
2.677165354330711
 30
0.0
  0
SPLINE
  5
BD
330
17
100
AcDbEntity
  8
Bed front
100
AcDbSpline
 70
0
 71
3
 72
8
 73
4
 74
0
 40
0.0
 40
0.0
 40
0.0
 40
0.0
 40
1.0
 40
1.0
 40
1.0
 40
1.0
 10
72.9724409448819
 20
2.677165354330711
 30
0.0
 10
73.20866141732284
 20
1.1811023622047259
 30
0.0
 10
73.66141732283465
 20
0.39370078740157766
 30
0.0
 10
73.66141732283465
 20
0.0
 30
0.0
  0
POLYLINE
  5
BE
330
17
100
AcDbEntity
  8
Bed front
100
AcDb2dPolyline
 66
1
 10
0.0
 20
0.0
 30
0.0
 70
0
  0
VERTEX
  5
BF
330
BE
100
AcDbEntity
  8
Bed front
100
AcDbVertex
100
AcDb2dVertex
 10
73.66141732283465
 20
0.0
 30
0.0
 70
0
  0
VERTEX
  5
C0
330
BE
100
AcDbEntity
  8
Bed front
100
AcDbVertex
100
AcDb2dVertex
 10
76.0236220472441
 20
0.0
 30
0.0
 70
0
  0
SEQEND
  5
C1
330
BE
100
AcDbEntity
  8
Bed front
  0
SPLINE
  5
C2
330
17
100
AcDbEntity
  8
Bed front
100
AcDbSpline
 70
0
 71
3
 72
8
 73
4
 74
0
 40
0.0
 40
0.0
 40
0.0
 40
0.0
 40
1.0
 40
1.0
 40
1.0
 40
1.0
 10
76.0236220472441
 20
0.0
 30
0.0
 10
76.0236220472441
 20
0.39370078740157766
 30
0.0
 10
76.47637795275591
 20
1.1811023622047259
 30
0.0
 10
76.71259842519686
 20
2.677165354330711
 30
0.0
  0
SPLINE
  5
C3
330
17
100
AcDbEntity
  8
Bed front
100
AcDbSpline
 70
0
 71
3
 72
8
 73
4
 74
0
 40
0.0
 40
0.0
 40
0.0
 40
0.0
 40
1.0
 40
1.0
 40
1.0
 40
1.0
 10
76.71259842519686
 20
2.677165354330711
 30
0.0
 10
76.87007874015748
 20
3.464566929133859
 30
0.0
 10
76.71259842519686
 20
5.826771653543311
 30
0.0
 10
76.22047244094489
 20
6.377952755905511
 30
0.0
  0
POLYLINE
  5
C4
330
17
100
AcDbEntity
  8
Bed front
100
AcDb2dPolyline
 66
1
 10
0.0
 20
0.0
 30
0.0
 70
0
  0
VERTEX
  5
C5
330
C4
100
AcDbEntity
  8
Bed front
100
AcDbVertex
100
AcDb2dVertex
 10
76.22047244094489
 20
6.377952755905511
 30
0.0
 70
0
  0
VERTEX
  5
C6
330
C4
100
AcDbEntity
  8
Bed front
100
AcDbVertex
100
AcDb2dVertex
 10
76.22047244094489
 20
7.00787401574803
 30
0.0
 70
0
  0
VERTEX
  5
C7
330
C4
100
AcDbEntity
  8
Bed front
100
AcDbVertex
100
AcDb2dVertex
 10
73.46456692913387
 20
7.00787401574803
 30
0.0
 70
0
  0
SEQEND
  5
C8
330
C4
100
AcDbEntity
  8
Bed front
  0
LINE
  5
C9
330
17
100
AcDbEntity
  8
Bed front
100
AcDbLine
 10
73.46456692913385
 20
6.377952755905512
 30
0.0
 11
76.22047244094487
 21
6.377952755905512
 31
0.0
  0
LINE
  5
CA
330
17
100
AcDbEntity
  8
Bed front
100
AcDbLine
 10
0.0
 20
0.0
 30
0.0
 11
85.47244094488188
 21
0.0
 31
0.0
  0
TEXT
  5
CB
330
17
100
AcDbEntity
  8
LABELS
100
AcDbText
 10
0.0
 20
40.057874015748034
 30
0.0
 40
1.7094488188976378
  1
BED FRONT  (1:1, inches)
 11
0.0
 21
40.057874015748034
 31
0.0
100
AcDbText
  0
LWPOLYLINE
  5
CE
330
17
100
AcDbEntity
  8
Bed side
100
AcDbPolyline
 90
5
 70
0
 10
105.0255905511811
 20
21.023622047244096
 10
183.01771653543307
 20
21.023622047244096
 10
183.01771653543307
 20
11.023622047244096
 10
105.0255905511811
 20
11.023622047244096
 10
105.0255905511811
 20
21.023622047244096
  0
LWPOLYLINE
  5
CF
330
17
100
AcDbEntity
  8
Bed side
100
AcDbPolyline
 90
5
 70
0
 10
114.08070866141732
 20
26.92913385826772
 10
134.94685039370077
 20
26.92913385826772
 10
134.94685039370077
 20
21.023622047244096
 10
114.08070866141732
 20
21.023622047244096
 10
114.08070866141732
 20
26.92913385826772
  0
POLYLINE
  5
D0
330
17
100
AcDbEntity
  8
Bed side
100
AcDb2dPolyline
 66
1
 10
0.0
 20
0.0
 30
0.0
 70
0
  0
VERTEX
  5
D1
330
D0
100
AcDbEntity
  8
Bed side
100
AcDbVertex
100
AcDb2dVertex
 10
106.99409448818898
 20
37.952755905511815
 30
0.0
 70
0
  0
VERTEX
  5
D2
330
D0
100
AcDbEntity
  8
Bed side
100
AcDbVertex
100
AcDb2dVertex
 10
110.93110236220473
 20
37.952755905511815
 30
0.0
 70
0
  0
SEQEND
  5
D3
330
D0
100
AcDbEntity
  8
Bed side
  0
SPLINE
  5
D4
330
17
100
AcDbEntity
  8
Bed side
100
AcDbSpline
 70
0
 71
3
 72
14
 73
10
 74
0
 40
0.0
 40
0.0
 40
0.0
 40
0.0
 40
1.0
 40
1.0
 40
1.0
 40
2.0
 40
2.0
 40
2.0
 40
3.0
 40
3.0
 40
3.0
 40
3.0
 10
110.93110236220473
 20
37.952755905511815
 30
0.0
 10
111.27662125021664
 20
37.952755905511815
 30
0.0
 10
111.616126196203
 20
37.8617858294084
 30
0.0
 10
111.91535433070865
 20
37.68902638540244
 30
0.0
 10
112.21458246521432
 20
37.51626694139648
 30
0.0
 10
112.46311733509727
 20
37.26773207151354
 30
0.0
 10
112.63587677910323
 20
36.968503937007874
 30
0.0
 10
112.80863622310918
 20
36.66927580250221
 30
0.0
 10
112.89960629921259
 20
36.32977085651585
 30
0.0
 10
112.89960629921259
 20
35.98425196850394
 30
0.0
  0
POLYLINE
  5
D5
330
17
100
AcDbEntity
  8
Bed side
100
AcDb2dPolyline
 66
1
 10
0.0
 20
0.0
 30
0.0
 70
0
  0
VERTEX
  5
D6
330
D5
100
AcDbEntity
  8
Bed side
100
AcDbVertex
100
AcDb2dVertex
 10
112.89960629921259
 20
35.98425196850394
 30
0.0
 70
0
  0
VERTEX
  5
D7
330
D5
100
AcDbEntity
  8
Bed side
100
AcDbVertex
100
AcDb2dVertex
 10
112.89960629921259
 20
22.99212598425197
 30
0.0
 70
0
  0
SEQEND
  5
D8
330
D5
100
AcDbEntity
  8
Bed side
  0
SPLINE
  5
D9
330
17
100
AcDbEntity
  8
Bed side
100
AcDbSpline
 70
0
 71
3
 72
14
 73
10
 74
0
 40
0.0
 40
0.0
 40
0.0
 40
0.0
 40
1.0
 40
1.0
 40
1.0
 40
2.0
 40
2.0
 40
2.0
 40
3.0
 40
3.0
 40
3.0
 40
3.0
 10
112.89960629921259
 20
22.99212598425197
 30
0.0
 10
112.89960629921259
 20
22.646607096240057
 30
0.0
 10
112.80863622310918
 20
22.307102150253698
 30
0.0
 10
112.63587677910323
 20
22.007874015748033
 30
0.0
 10
112.46311733509727
 20
21.70864588124237
 30
0.0
 10
112.21458246521432
 20
21.460111011359423
 30
0.0
 10
111.91535433070865
 20
21.28735156735347
 30
0.0
 10
111.616126196203
 20
21.114592123347514
 30
0.0
 10
111.27662125021664
 20
21.023622047244096
 30
0.0
 10
110.93110236220473
 20
21.023622047244096
 30
0.0
  0
POLYLINE
  5
DA
330
17
100
AcDbEntity
  8
Bed side
100
AcDb2dPolyline
 66
1
 10
0.0
 20
0.0
 30
0.0
 70
0
  0
VERTEX
  5
DB
330
DA
100
AcDbEntity
  8
Bed side
100
AcDbVertex
100
AcDb2dVertex
 10
110.93110236220473
 20
21.023622047244096
 30
0.0
 70
0
  0
VERTEX
  5
DC
330
DA
100
AcDbEntity
  8
Bed side
100
AcDbVertex
100
AcDb2dVertex
 10
106.99409448818898
 20
21.023622047244096
 30
0.0
 70
0
  0
SEQEND
  5
DD
330
DA
100
AcDbEntity
  8
Bed side
  0
SPLINE
  5
DE
330
17
100
AcDbEntity
  8
Bed side
100
AcDbSpline
 70
0
 71
3
 72
14
 73
10
 74
0
 40
0.0
 40
0.0
 40
0.0
 40
0.0
 40
1.0
 40
1.0
 40
1.0
 40
2.0
 40
2.0
 40
2.0
 40
3.0
 40
3.0
 40
3.0
 40
3.0
 10
106.99409448818898
 20
21.023622047244096
 30
0.0
 10
106.64857560017705
 20
21.023622047244096
 30
0.0
 10
106.3090706541907
 20
21.114592123347514
 30
0.0
 10
106.00984251968504
 20
21.28735156735347
 30
0.0
 10
105.71061438517937
 20
21.460111011359423
 30
0.0
 10
105.46207951529642
 20
21.70864588124237
 30
0.0
 10
105.28932007129048
 20
22.007874015748033
 30
0.0
 10
105.11656062728451
 20
22.307102150253698
 30
0.0
 10
105.0255905511811
 20
22.646607096240057
 30
0.0
 10
105.0255905511811
 20
22.99212598425197
 30
0.0
  0
POLYLINE
  5
DF
330
17
100
AcDbEntity
  8
Bed side
100
AcDb2dPolyline
 66
1
 10
0.0
 20
0.0
 30
0.0
 70
0
  0
VERTEX
  5
E0
330
DF
100
AcDbEntity
  8
Bed side
100
AcDbVertex
100
AcDb2dVertex
 10
105.0255905511811
 20
22.99212598425197
 30
0.0
 70
0
  0
VERTEX
  5
E1
330
DF
100
AcDbEntity
  8
Bed side
100
AcDbVertex
100
AcDb2dVertex
 10
105.0255905511811
 20
35.98425196850394
 30
0.0
 70
0
  0
SEQEND
  5
E2
330
DF
100
AcDbEntity
  8
Bed side
  0
SPLINE
  5
E3
330
17
100
AcDbEntity
  8
Bed side
100
AcDbSpline
 70
0
 71
3
 72
14
 73
10
 74
0
 40
0.0
 40
0.0
 40
0.0
 40
0.0
 40
1.0
 40
1.0
 40
1.0
 40
2.0
 40
2.0
 40
2.0
 40
3.0
 40
3.0
 40
3.0
 40
3.0
 10
105.0255905511811
 20
35.98425196850394
 30
0.0
 10
105.0255905511811
 20
36.32977085651585
 30
0.0
 10
105.11656062728451
 20
36.669275802502206
 30
0.0
 10
105.28932007129048
 20
36.968503937007874
 30
0.0
 10
105.46207951529642
 20
37.26773207151354
 30
0.0
 10
105.71061438517937
 20
37.51626694139648
 30
0.0
 10
106.00984251968504
 20
37.689026385402435
 30
0.0
 10
106.3090706541907
 20
37.8617858294084
 30
0.0
 10
106.64857560017705
 20
37.952755905511815
 30
0.0
 10
106.99409448818898
 20
37.952755905511815
 30
0.0
  0
LINE
  5
E4
330
17
100
AcDbEntity
  8
Bed side
  6
DASHED
100
AcDbLine
 10
101.24606299212599
 20
0.0
 30
0.0
 11
101.24606299212599
 21
42.42007874015748
 31
0.0
  0
LWPOLYLINE
  5
E5
330
17
100
AcDbEntity
  8
Bed side
100
AcDbPolyline
 90
5
 70
0
 10
103.01771653543307
 20
11.023622047244096
 10
185.0255905511811
 20
11.023622047244096
 10
185.0255905511811
 20
7.00787401574803
 10
103.01771653543307
 20
7.00787401574803
 10
103.01771653543307
 20
11.023622047244096
  0
LINE
  5
E6
330
17
100
AcDbEntity
  8
Bed side
100
AcDbLine
 10
103.01771653543307
 20
10.039370078740157
 30
0.0
 11
185.0255905511811
 21
10.039370078740157
 31
0.0
  0
POLYLINE
  5
E7
330
17
100
AcDbEntity
  8
Bed side
100
AcDb2dPolyline
 66
1
 10
0.0
 20
0.0
 30
0.0
 70
0
  0
VERTEX
  5
E8
330
E7
100
AcDbEntity
  8
Bed side
100
AcDbVertex
100
AcDb2dVertex
 10
107.54527559055117
 20
7.00787401574803
 30
0.0
 70
0
  0
VERTEX
  5
E9
330
E7
100
AcDbEntity
  8
Bed side
100
AcDbVertex
100
AcDb2dVertex
 10
107.54527559055117
 20
6.377952755905511
 30
0.0
 70
0
  0
SEQEND
  5
EA
330
E7
100
AcDbEntity
  8
Bed side
  0
SPLINE
  5
EB
330
17
100
AcDbEntity
  8
Bed side
100
AcDbSpline
 70
0
 71
3
 72
8
 73
4
 74
0
 40
0.0
 40
0.0
 40
0.0
 40
0.0
 40
1.0
 40
1.0
 40
1.0
 40
1.0
 10
107.54527559055117
 20
6.377952755905511
 30
0.0
 10
107.05314960629921
 20
5.826771653543311
 30
0.0
 10
106.89566929133858
 20
3.464566929133859
 30
0.0
 10
107.05314960629921
 20
2.677165354330711
 30
0.0
  0
SPLINE
  5
EC
330
17
100
AcDbEntity
  8
Bed side
100
AcDbSpline
 70
0
 71
3
 72
8
 73
4
 74
0
 40
0.0
 40
0.0
 40
0.0
 40
0.0
 40
1.0
 40
1.0
 40
1.0
 40
1.0
 10
107.05314960629921
 20
2.677165354330711
 30
0.0
 10
107.28937007874015
 20
1.1811023622047259
 30
0.0
 10
107.74212598425197
 20
0.39370078740157766
 30
0.0
 10
107.74212598425197
 20
0.0
 30
0.0
  0
POLYLINE
  5
ED
330
17
100
AcDbEntity
  8
Bed side
100
AcDb2dPolyline
 66
1
 10
0.0
 20
0.0
 30
0.0
 70
0
  0
VERTEX
  5
EE
330
ED
100
AcDbEntity
  8
Bed side
100
AcDbVertex
100
AcDb2dVertex
 10
107.74212598425197
 20
0.0
 30
0.0
 70
0
  0
VERTEX
  5
EF
330
ED
100
AcDbEntity
  8
Bed side
100
AcDbVertex
100
AcDb2dVertex
 10
110.10433070866141
 20
0.0
 30
0.0
 70
0
  0
SEQEND
  5
F0
330
ED
100
AcDbEntity
  8
Bed side
  0
SPLINE
  5
F1
330
17
100
AcDbEntity
  8
Bed side
100
AcDbSpline
 70
0
 71
3
 72
8
 73
4
 74
0
 40
0.0
 40
0.0
 40
0.0
 40
0.0
 40
1.0
 40
1.0
 40
1.0
 40
1.0
 10
110.10433070866141
 20
0.0
 30
0.0
 10
110.10433070866141
 20
0.39370078740157766
 30
0.0
 10
110.55708661417323
 20
1.1811023622047259
 30
0.0
 10
110.79330708661416
 20
2.677165354330711
 30
0.0
  0
SPLINE
  5
F2
330
17
100
AcDbEntity
  8
Bed side
100
AcDbSpline
 70
0
 71
3
 72
8
 73
4
 74
0
 40
0.0
 40
0.0
 40
0.0
 40
0.0
 40
1.0
 40
1.0
 40
1.0
 40
1.0
 10
110.79330708661416
 20
2.677165354330711
 30
0.0
 10
110.9507874015748
 20
3.464566929133859
 30
0.0
 10
110.79330708661416
 20
5.826771653543311
 30
0.0
 10
110.3011811023622
 20
6.377952755905511
 30
0.0
  0
POLYLINE
  5
F3
330
17
100
AcDbEntity
  8
Bed side
100
AcDb2dPolyline
 66
1
 10
0.0
 20
0.0
 30
0.0
 70
0
  0
VERTEX
  5
F4
330
F3
100
AcDbEntity
  8
Bed side
100
AcDbVertex
100
AcDb2dVertex
 10
110.3011811023622
 20
6.377952755905511
 30
0.0
 70
0
  0
VERTEX
  5
F5
330
F3
100
AcDbEntity
  8
Bed side
100
AcDbVertex
100
AcDb2dVertex
 10
110.3011811023622
 20
7.00787401574803
 30
0.0
 70
0
  0
VERTEX
  5
F6
330
F3
100
AcDbEntity
  8
Bed side
100
AcDbVertex
100
AcDb2dVertex
 10
107.54527559055117
 20
7.00787401574803
 30
0.0
 70
0
  0
SEQEND
  5
F7
330
F3
100
AcDbEntity
  8
Bed side
  0
LINE
  5
F8
330
17
100
AcDbEntity
  8
Bed side
100
AcDbLine
 10
107.54527559055119
 20
6.377952755905512
 30
0.0
 11
110.30118110236221
 21
6.377952755905512
 31
0.0
  0
POLYLINE
  5
F9
330
17
100
AcDbEntity
  8
Bed side
100
AcDb2dPolyline
 66
1
 10
0.0
 20
0.0
 30
0.0
 70
0
  0
VERTEX
  5
FA
330
F9
100
AcDbEntity
  8
Bed side
100
AcDbVertex
100
AcDb2dVertex
 10
142.64370078740157
 20
7.00787401574803
 30
0.0
 70
0
  0
VERTEX
  5
FB
330
F9
100
AcDbEntity
  8
Bed side
100
AcDbVertex
100
AcDb2dVertex
 10
142.64370078740157
 20
6.377952755905511
 30
0.0
 70
0
  0
SEQEND
  5
FC
330
F9
100
AcDbEntity
  8
Bed side
  0
SPLINE
  5
FD
330
17
100
AcDbEntity
  8
Bed side
100
AcDbSpline
 70
0
 71
3
 72
8
 73
4
 74
0
 40
0.0
 40
0.0
 40
0.0
 40
0.0
 40
1.0
 40
1.0
 40
1.0
 40
1.0
 10
142.64370078740157
 20
6.377952755905511
 30
0.0
 10
142.1515748031496
 20
5.826771653543311
 30
0.0
 10
141.99409448818898
 20
3.464566929133859
 30
0.0
 10
142.1515748031496
 20
2.677165354330711
 30
0.0
  0
SPLINE
  5
FE
330
17
100
AcDbEntity
  8
Bed side
100
AcDbSpline
 70
0
 71
3
 72
8
 73
4
 74
0
 40
0.0
 40
0.0
 40
0.0
 40
0.0
 40
1.0
 40
1.0
 40
1.0
 40
1.0
 10
142.1515748031496
 20
2.677165354330711
 30
0.0
 10
142.38779527559055
 20
1.1811023622047259
 30
0.0
 10
142.84055118110234
 20
0.39370078740157766
 30
0.0
 10
142.84055118110234
 20
0.0
 30
0.0
  0
POLYLINE
  5
FF
330
17
100
AcDbEntity
  8
Bed side
100
AcDb2dPolyline
 66
1
 10
0.0
 20
0.0
 30
0.0
 70
0
  0
VERTEX
  5
100
330
FF
100
AcDbEntity
  8
Bed side
100
AcDbVertex
100
AcDb2dVertex
 10
142.84055118110234
 20
0.0
 30
0.0
 70
0
  0
VERTEX
  5
101
330
FF
100
AcDbEntity
  8
Bed side
100
AcDbVertex
100
AcDb2dVertex
 10
145.20275590551182
 20
0.0
 30
0.0
 70
0
  0
SEQEND
  5
102
330
FF
100
AcDbEntity
  8
Bed side
  0
SPLINE
  5
103
330
17
100
AcDbEntity
  8
Bed side
100
AcDbSpline
 70
0
 71
3
 72
8
 73
4
 74
0
 40
0.0
 40
0.0
 40
0.0
 40
0.0
 40
1.0
 40
1.0
 40
1.0
 40
1.0
 10
145.20275590551182
 20
0.0
 30
0.0
 10
145.20275590551182
 20
0.39370078740157766
 30
0.0
 10
145.65551181102362
 20
1.1811023622047259
 30
0.0
 10
145.89173228346456
 20
2.677165354330711
 30
0.0
  0
SPLINE
  5
104
330
17
100
AcDbEntity
  8
Bed side
100
AcDbSpline
 70
0
 71
3
 72
8
 73
4
 74
0
 40
0.0
 40
0.0
 40
0.0
 40
0.0
 40
1.0
 40
1.0
 40
1.0
 40
1.0
 10
145.89173228346456
 20
2.677165354330711
 30
0.0
 10
146.04921259842519
 20
3.464566929133859
 30
0.0
 10
145.89173228346456
 20
5.826771653543311
 30
0.0
 10
145.3996062992126
 20
6.377952755905511
 30
0.0
  0
POLYLINE
  5
105
330
17
100
AcDbEntity
  8
Bed side
100
AcDb2dPolyline
 66
1
 10
0.0
 20
0.0
 30
0.0
 70
0
  0
VERTEX
  5
106
330
105
100
AcDbEntity
  8
Bed side
100
AcDbVertex
100
AcDb2dVertex
 10
145.3996062992126
 20
6.377952755905511
 30
0.0
 70
0
  0
VERTEX
  5
107
330
105
100
AcDbEntity
  8
Bed side
100
AcDbVertex
100
AcDb2dVertex
 10
145.3996062992126
 20
7.00787401574803
 30
0.0
 70
0
  0
VERTEX
  5
108
330
105
100
AcDbEntity
  8
Bed side
100
AcDbVertex
100
AcDb2dVertex
 10
142.64370078740157
 20
7.00787401574803
 30
0.0
 70
0
  0
SEQEND
  5
109
330
105
100
AcDbEntity
  8
Bed side
  0
LINE
  5
10A
330
17
100
AcDbEntity
  8
Bed side
100
AcDbLine
 10
142.64370078740157
 20
6.377952755905512
 30
0.0
 11
145.3996062992126
 21
6.377952755905512
 31
0.0
  0
POLYLINE
  5
10B
330
17
100
AcDbEntity
  8
Bed side
100
AcDb2dPolyline
 66
1
 10
0.0
 20
0.0
 30
0.0
 70
0
  0
VERTEX
  5
10C
330
10B
100
AcDbEntity
  8
Bed side
100
AcDbVertex
100
AcDb2dVertex
 10
177.74212598425197
 20
7.00787401574803
 30
0.0
 70
0
  0
VERTEX
  5
10D
330
10B
100
AcDbEntity
  8
Bed side
100
AcDbVertex
100
AcDb2dVertex
 10
177.74212598425197
 20
6.377952755905511
 30
0.0
 70
0
  0
SEQEND
  5
10E
330
10B
100
AcDbEntity
  8
Bed side
  0
SPLINE
  5
10F
330
17
100
AcDbEntity
  8
Bed side
100
AcDbSpline
 70
0
 71
3
 72
8
 73
4
 74
0
 40
0.0
 40
0.0
 40
0.0
 40
0.0
 40
1.0
 40
1.0
 40
1.0
 40
1.0
 10
177.74212598425197
 20
6.377952755905511
 30
0.0
 10
177.25
 20
5.826771653543311
 30
0.0
 10
177.09251968503935
 20
3.464566929133859
 30
0.0
 10
177.25
 20
2.677165354330711
 30
0.0
  0
SPLINE
  5
110
330
17
100
AcDbEntity
  8
Bed side
100
AcDbSpline
 70
0
 71
3
 72
8
 73
4
 74
0
 40
0.0
 40
0.0
 40
0.0
 40
0.0
 40
1.0
 40
1.0
 40
1.0
 40
1.0
 10
177.25
 20
2.677165354330711
 30
0.0
 10
177.48622047244095
 20
1.1811023622047259
 30
0.0
 10
177.93897637795277
 20
0.39370078740157766
 30
0.0
 10
177.93897637795277
 20
0.0
 30
0.0
  0
POLYLINE
  5
111
330
17
100
AcDbEntity
  8
Bed side
100
AcDb2dPolyline
 66
1
 10
0.0
 20
0.0
 30
0.0
 70
0
  0
VERTEX
  5
112
330
111
100
AcDbEntity
  8
Bed side
100
AcDbVertex
100
AcDb2dVertex
 10
177.93897637795277
 20
0.0
 30
0.0
 70
0
  0
VERTEX
  5
113
330
111
100
AcDbEntity
  8
Bed side
100
AcDbVertex
100
AcDb2dVertex
 10
180.3011811023622
 20
0.0
 30
0.0
 70
0
  0
SEQEND
  5
114
330
111
100
AcDbEntity
  8
Bed side
  0
SPLINE
  5
115
330
17
100
AcDbEntity
  8
Bed side
100
AcDbSpline
 70
0
 71
3
 72
8
 73
4
 74
0
 40
0.0
 40
0.0
 40
0.0
 40
0.0
 40
1.0
 40
1.0
 40
1.0
 40
1.0
 10
180.3011811023622
 20
0.0
 30
0.0
 10
180.3011811023622
 20
0.39370078740157766
 30
0.0
 10
180.75393700787401
 20
1.1811023622047259
 30
0.0
 10
180.99015748031496
 20
2.677165354330711
 30
0.0
  0
SPLINE
  5
116
330
17
100
AcDbEntity
  8
Bed side
100
AcDbSpline
 70
0
 71
3
 72
8
 73
4
 74
0
 40
0.0
 40
0.0
 40
0.0
 40
0.0
 40
1.0
 40
1.0
 40
1.0
 40
1.0
 10
180.99015748031496
 20
2.677165354330711
 30
0.0
 10
181.14763779527559
 20
3.464566929133859
 30
0.0
 10
180.99015748031496
 20
5.826771653543311
 30
0.0
 10
180.498031496063
 20
6.377952755905511
 30
0.0
  0
POLYLINE
  5
117
330
17
100
AcDbEntity
  8
Bed side
100
AcDb2dPolyline
 66
1
 10
0.0
 20
0.0
 30
0.0
 70
0
  0
VERTEX
  5
118
330
117
100
AcDbEntity
  8
Bed side
100
AcDbVertex
100
AcDb2dVertex
 10
180.498031496063
 20
6.377952755905511
 30
0.0
 70
0
  0
VERTEX
  5
119
330
117
100
AcDbEntity
  8
Bed side
100
AcDbVertex
100
AcDb2dVertex
 10
180.498031496063
 20
7.00787401574803
 30
0.0
 70
0
  0
VERTEX
  5
11A
330
117
100
AcDbEntity
  8
Bed side
100
AcDbVertex
100
AcDb2dVertex
 10
177.74212598425197
 20
7.00787401574803
 30
0.0
 70
0
  0
SEQEND
  5
11B
330
117
100
AcDbEntity
  8
Bed side
  0
LINE
  5
11C
330
17
100
AcDbEntity
  8
Bed side
100
AcDbLine
 10
177.74212598425194
 20
6.377952755905512
 30
0.0
 11
180.49803149606296
 21
6.377952755905512
 31
0.0
  0
LINE
  5
11D
330
17
100
AcDbEntity
  8
Bed side
100
AcDbLine
 10
98.29330708661418
 20
0.0
 30
0.0
 11
189.74999999999997
 21
0.0
 31
0.0
  0
TEXT
  5
11E
330
17
100
AcDbEntity
  8
LABELS
100
AcDbText
 10
98.29330708661418
 20
44.78228346456693
 30
0.0
 40
1.8291338582677166
  1
BED SIDE  (1:1, inches)
 11
98.29330708661418
 21
44.78228346456693
 31
0.0
100
AcDbText
  0
LWPOLYLINE
  5
121
330
17
100
AcDbEntity
  8
Bed plan
100
AcDbPolyline
 90
5
 70
0
 10
203.46850393700788
 20
82.00787401574803
 10
279.49212598425197
 20
82.00787401574803
 10
279.49212598425197
 20
0.0
 10
203.46850393700788
 20
0.0
 10
203.46850393700788
 20
82.00787401574803
  0
LWPOLYLINE
  5
122
330
17
100
AcDbEntity
  8
Bed plan
100
AcDbPolyline
 90
5
 70
0
 10
205.4763779527559
 20
80.0
 10
277.48425196850394
 20
80.0
 10
277.48425196850394
 20
2.0078740157480297
 10
205.4763779527559
 20
2.0078740157480297
 10
205.4763779527559
 20
80.0
  0
POLYLINE
  5
123
330
17
100
AcDbEntity
  8
Bed plan
100
AcDb2dPolyline
 66
1
 10
0.0
 20
0.0
 30
0.0
 70
0
  0
VERTEX
  5
124
330
123
100
AcDbEntity
  8
Bed plan
100
AcDbVertex
100
AcDb2dVertex
 10
207.4448818897638
 20
82.93976377952755
 30
0.0
 70
0
  0
VERTEX
  5
125
330
123
100
AcDbEntity
  8
Bed plan
100
AcDbVertex
100
AcDb2dVertex
 10
275.51574803149606
 20
82.93976377952755
 30
0.0
 70
0
  0
SEQEND
  5
126
330
123
100
AcDbEntity
  8
Bed plan
  0
SPLINE
  5
127
330
17
100
AcDbEntity
  8
Bed plan
100
AcDbSpline
 70
0
 71
3
 72
14
 73
10
 74
0
 40
0.0
 40
0.0
 40
0.0
 40
0.0
 40
1.0
 40
1.0
 40
1.0
 40
2.0
 40
2.0
 40
2.0
 40
3.0
 40
3.0
 40
3.0
 40
3.0
 10
275.51574803149606
 20
82.93976377952755
 30
0.0
 10
275.861266919508
 20
82.93976377952755
 30
0.0
 10
276.20077186549435
 20
82.84879370342414
 30
0.0
 10
276.5
 20
82.67603425941819
 30
0.0
 10
276.79922813450565
 20
82.50327481541223
 30
0.0
 10
277.0477630043886
 20
82.25473994552928
 30
0.0
 10
277.2205224483946
 20
81.95551181102363
 30
0.0
 10
277.3932818924005
 20
81.65628367651796
 30
0.0
 10
277.48425196850394
 20
81.3167787305316
 30
0.0
 10
277.48425196850394
 20
80.97125984251969
 30
0.0
  0
POLYLINE
  5
128
330
17
100
AcDbEntity
  8
Bed plan
100
AcDb2dPolyline
 66
1
 10
0.0
 20
0.0
 30
0.0
 70
0
  0
VERTEX
  5
129
330
128
100
AcDbEntity
  8
Bed plan
100
AcDbVertex
100
AcDb2dVertex
 10
277.48425196850394
 20
80.97125984251969
 30
0.0
 70
0
  0
VERTEX
  5
12A
330
128
100
AcDbEntity
  8
Bed plan
100
AcDbVertex
100
AcDb2dVertex
 10
277.48425196850394
 20
74.09448818897637
 30
0.0
 70
0
  0
SEQEND
  5
12B
330
128
100
AcDbEntity
  8
Bed plan
  0
SPLINE
  5
12C
330
17
100
AcDbEntity
  8
Bed plan
100
AcDbSpline
 70
0
 71
3
 72
14
 73
10
 74
0
 40
0.0
 40
0.0
 40
0.0
 40
0.0
 40
1.0
 40
1.0
 40
1.0
 40
2.0
 40
2.0
 40
2.0
 40
3.0
 40
3.0
 40
3.0
 40
3.0
 10
277.48425196850394
 20
74.09448818897637
 30
0.0
 10
277.48425196850394
 20
73.74896930096446
 30
0.0
 10
277.3932818924005
 20
73.4094643549781
 30
0.0
 10
277.2205224483946
 20
73.11023622047244
 30
0.0
 10
277.0477630043886
 20
72.81100808596678
 30
0.0
 10
276.79922813450565
 20
72.56247321608383
 30
0.0
 10
276.5
 20
72.38971377207787
 30
0.0
 10
276.20077186549435
 20
72.21695432807192
 30
0.0
 10
275.861266919508
 20
72.1259842519685
 30
0.0
 10
275.51574803149606
 20
72.1259842519685
 30
0.0
  0
POLYLINE
  5
12D
330
17
100
AcDbEntity
  8
Bed plan
100
AcDb2dPolyline
 66
1
 10
0.0
 20
0.0
 30
0.0
 70
0
  0
VERTEX
  5
12E
330
12D
100
AcDbEntity
  8
Bed plan
100
AcDbVertex
100
AcDb2dVertex
 10
275.51574803149606
 20
72.1259842519685
 30
0.0
 70
0
  0
VERTEX
  5
12F
330
12D
100
AcDbEntity
  8
Bed plan
100
AcDbVertex
100
AcDb2dVertex
 10
207.4448818897638
 20
72.1259842519685
 30
0.0
 70
0
  0
SEQEND
  5
130
330
12D
100
AcDbEntity
  8
Bed plan
  0
SPLINE
  5
131
330
17
100
AcDbEntity
  8
Bed plan
100
AcDbSpline
 70
0
 71
3
 72
14
 73
10
 74
0
 40
0.0
 40
0.0
 40
0.0
 40
0.0
 40
1.0
 40
1.0
 40
1.0
 40
2.0
 40
2.0
 40
2.0
 40
3.0
 40
3.0
 40
3.0
 40
3.0
 10
207.4448818897638
 20
72.1259842519685
 30
0.0
 10
207.09936300175187
 20
72.1259842519685
 30
0.0
 10
206.7598580557655
 20
72.21695432807192
 30
0.0
 10
206.46062992125985
 20
72.38971377207787
 30
0.0
 10
206.1614017867542
 20
72.56247321608383
 30
0.0
 10
205.91286691687125
 20
72.81100808596678
 30
0.0
 10
205.74010747286528
 20
73.11023622047244
 30
0.0
 10
205.56734802885933
 20
73.4094643549781
 30
0.0
 10
205.4763779527559
 20
73.74896930096446
 30
0.0
 10
205.4763779527559
 20
74.09448818897637
 30
0.0
  0
POLYLINE
  5
132
330
17
100
AcDbEntity
  8
Bed plan
100
AcDb2dPolyline
 66
1
 10
0.0
 20
0.0
 30
0.0
 70
0
  0
VERTEX
  5
133
330
132
100
AcDbEntity
  8
Bed plan
100
AcDbVertex
100
AcDb2dVertex
 10
205.4763779527559
 20
74.09448818897637
 30
0.0
 70
0
  0
VERTEX
  5
134
330
132
100
AcDbEntity
  8
Bed plan
100
AcDbVertex
100
AcDb2dVertex
 10
205.4763779527559
 20
80.97125984251969
 30
0.0
 70
0
  0
SEQEND
  5
135
330
132
100
AcDbEntity
  8
Bed plan
  0
SPLINE
  5
136
330
17
100
AcDbEntity
  8
Bed plan
100
AcDbSpline
 70
0
 71
3
 72
14
 73
10
 74
0
 40
0.0
 40
0.0
 40
0.0
 40
0.0
 40
1.0
 40
1.0
 40
1.0
 40
2.0
 40
2.0
 40
2.0
 40
3.0
 40
3.0
 40
3.0
 40
3.0
 10
205.4763779527559
 20
80.97125984251969
 30
0.0
 10
205.4763779527559
 20
81.3167787305316
 30
0.0
 10
205.56734802885933
 20
81.65628367651796
 30
0.0
 10
205.74010747286528
 20
81.95551181102363
 30
0.0
 10
205.91286691687125
 20
82.25473994552928
 30
0.0
 10
206.16140178675417
 20
82.50327481541223
 30
0.0
 10
206.46062992125985
 20
82.67603425941819
 30
0.0
 10
206.7598580557655
 20
82.84879370342414
 30
0.0
 10
207.09936300175187
 20
82.93976377952755
 30
0.0
 10
207.4448818897638
 20
82.93976377952755
 30
0.0
  0
LWPOLYLINE
  5
137
330
17
100
AcDbEntity
  8
Bed plan
  6
DASHED
100
AcDbPolyline
 90
5
 70
0
 10
205.24015748031496
 20
80.23622047244095
 10
277.7204724409449
 20
80.23622047244095
 10
277.7204724409449
 20
1.7716535433070817
 10
205.24015748031496
 20
1.7716535433070817
 10
205.24015748031496
 20
80.23622047244095
  0
LINE
  5
138
330
17
100
AcDbEntity
  8
Bed plan
  6
DASHED
100
AcDbLine
 10
241.48031496062993
 20
80.23622047244095
 30
0.0
 11
241.48031496062993
 21
1.7716535433070866
 31
0.0
  0
LINE
  5
139
330
17
100
AcDbEntity
  8
Bed plan
  6
DASHED
100
AcDbLine
 10
205.24015748031496
 20
67.83464566929133
 30
0.0
 11
277.7204724409449
 21
67.83464566929133
 31
0.0
  0
LINE
  5
13A
330
17
100
AcDbEntity
  8
Bed plan
  6
DASHED
100
AcDbLine
 10
205.24015748031496
 20
61.53543307086614
 30
0.0
 11
277.7204724409449
 21
61.53543307086614
 31
0.0
  0
LINE
  5
13B
330
17
100
AcDbEntity
  8
Bed plan
  6
DASHED
100
AcDbLine
 10
205.24015748031496
 20
55.23622047244094
 30
0.0
 11
277.7204724409449
 21
55.23622047244094
 31
0.0
  0
LINE
  5
13C
330
17
100
AcDbEntity
  8
Bed plan
  6
DASHED
100
AcDbLine
 10
205.24015748031496
 20
48.93700787401575
 30
0.0
 11
277.7204724409449
 21
48.93700787401575
 31
0.0
  0
LINE
  5
13D
330
17
100
AcDbEntity
  8
Bed plan
  6
DASHED
100
AcDbLine
 10
205.24015748031496
 20
42.63779527559055
 30
0.0
 11
277.7204724409449
 21
42.63779527559055
 31
0.0
  0
LINE
  5
13E
330
17
100
AcDbEntity
  8
Bed plan
  6
DASHED
100
AcDbLine
 10
205.24015748031496
 20
36.338582677165356
 30
0.0
 11
277.7204724409449
 21
36.338582677165356
 31
0.0
  0
LINE
  5
13F
330
17
100
AcDbEntity
  8
Bed plan
  6
DASHED
100
AcDbLine
 10
205.24015748031496
 20
30.039370078740156
 30
0.0
 11
277.7204724409449
 21
30.039370078740156
 31
0.0
  0
LINE
  5
140
330
17
100
AcDbEntity
  8
Bed plan
  6
DASHED
100
AcDbLine
 10
205.24015748031496
 20
23.74015748031496
 30
0.0
 11
277.7204724409449
 21
23.74015748031496
 31
0.0
  0
LINE
  5
141
330
17
100
AcDbEntity
  8
Bed plan
  6
DASHED
100
AcDbLine
 10
205.24015748031496
 20
17.440944881889763
 30
0.0
 11
277.7204724409449
 21
17.440944881889763
 31
0.0
  0
LINE
  5
142
330
17
100
AcDbEntity
  8
Bed plan
  6
DASHED
100
AcDbLine
 10
205.24015748031496
 20
11.141732283464567
 30
0.0
 11
277.7204724409449
 21
11.141732283464567
 31
0.0
  0
LINE
  5
143
330
17
100
AcDbEntity
  8
Bed plan
  6
DASHED
100
AcDbLine
 10
205.24015748031496
 20
4.84251968503937
 30
0.0
 11
277.7204724409449
 21
4.84251968503937
 31
0.0
  0
CIRCLE
  5
144
330
17
100
AcDbEntity
  8
Bed plan
100
AcDbCircle
 10
209.3740157480315
 20
76.10236220472441
 30
0.0
 40
1.8700787401574803
  0
CIRCLE
  5
145
330
17
100
AcDbEntity
  8
Bed plan
100
AcDbCircle
 10
273.5866141732284
 20
76.10236220472441
 30
0.0
 40
1.8700787401574803
  0
CIRCLE
  5
146
330
17
100
AcDbEntity
  8
Bed plan
100
AcDbCircle
 10
209.3740157480315
 20
5.905511811023622
 30
0.0
 40
1.8700787401574803
  0
CIRCLE
  5
147
330
17
100
AcDbEntity
  8
Bed plan
100
AcDbCircle
 10
273.5866141732284
 20
5.905511811023622
 30
0.0
 40
1.8700787401574803
  0
CIRCLE
  5
148
330
17
100
AcDbEntity
  8
Bed plan
  6
DASHED
100
AcDbCircle
 10
241.48031496062993
 20
41.003937007874015
 30
0.0
 40
1.8700787401574803
  0
TEXT
  5
149
330
17
100
AcDbEntity
  8
LABELS
100
AcDbText
 10
203.46850393700788
 20
85.301968503937
 30
0.0
 40
1.5204724409448818
  1
BED PLAN  (1:1, inches)
 11
203.46850393700788
 21
85.301968503937
 31
0.0
100
AcDbText
  0
POLYLINE
  5
14C
330
17
100
AcDbEntity
  8
Bed foot
100
AcDb2dPolyline
 66
1
 10
0.0
 20
0.0
 30
0.0
 70
0
  0
VERTEX
  5
14D
330
14C
100
AcDbEntity
  8
Bed foot
100
AcDbVertex
100
AcDb2dVertex
 10
293.06102362204723
 20
7.0078740157480315
 30
0.0
 70
0
  0
VERTEX
  5
14E
330
14C
100
AcDbEntity
  8
Bed foot
100
AcDbVertex
100
AcDb2dVertex
 10
293.06102362204723
 20
6.377952755905512
 30
0.0
 70
0
  0
SEQEND
  5
14F
330
14C
100
AcDbEntity
  8
Bed foot
  0
SPLINE
  5
150
330
17
100
AcDbEntity
  8
Bed foot
100
AcDbSpline
 70
0
 71
3
 72
8
 73
4
 74
0
 40
0.0
 40
0.0
 40
0.0
 40
0.0
 40
1.0
 40
1.0
 40
1.0
 40
1.0
 10
293.06102362204723
 20
6.377952755905512
 30
0.0
 10
292.5688976377953
 20
5.826771653543307
 30
0.0
 10
292.41141732283467
 20
3.4645669291338583
 30
0.0
 10
292.5688976377953
 20
2.6771653543307083
 30
0.0
  0
SPLINE
  5
151
330
17
100
AcDbEntity
  8
Bed foot
100
AcDbSpline
 70
0
 71
3
 72
8
 73
4
 74
0
 40
0.0
 40
0.0
 40
0.0
 40
0.0
 40
1.0
 40
1.0
 40
1.0
 40
1.0
 10
292.5688976377953
 20
2.6771653543307083
 30
0.0
 10
292.8051181102362
 20
1.181102362204724
 30
0.0
 10
293.25787401574803
 20
0.393700787401575
 30
0.0
 10
293.25787401574803
 20
0.0
 30
0.0
  0
POLYLINE
  5
152
330
17
100
AcDbEntity
  8
Bed foot
100
AcDb2dPolyline
 66
1
 10
0.0
 20
0.0
 30
0.0
 70
0
  0
VERTEX
  5
153
330
152
100
AcDbEntity
  8
Bed foot
100
AcDbVertex
100
AcDb2dVertex
 10
293.25787401574803
 20
0.0
 30
0.0
 70
0
  0
VERTEX
  5
154
330
152
100
AcDbEntity
  8
Bed foot
100
AcDbVertex
100
AcDb2dVertex
 10
295.6200787401575
 20
0.0
 30
0.0
 70
0
  0
SEQEND
  5
155
330
152
100
AcDbEntity
  8
Bed foot
  0
SPLINE
  5
156
330
17
100
AcDbEntity
  8
Bed foot
100
AcDbSpline
 70
0
 71
3
 72
8
 73
4
 74
0
 40
0.0
 40
0.0
 40
0.0
 40
0.0
 40
1.0
 40
1.0
 40
1.0
 40
1.0
 10
295.6200787401575
 20
0.0
 30
0.0
 10
295.6200787401575
 20
0.393700787401575
 30
0.0
 10
296.07283464566933
 20
1.181102362204724
 30
0.0
 10
296.3090551181102
 20
2.6771653543307083
 30
0.0
  0
SPLINE
  5
157
330
17
100
AcDbEntity
  8
Bed foot
100
AcDbSpline
 70
0
 71
3
 72
8
 73
4
 74
0
 40
0.0
 40
0.0
 40
0.0
 40
0.0
 40
1.0
 40
1.0
 40
1.0
 40
1.0
 10
296.3090551181102
 20
2.6771653543307083
 30
0.0
 10
296.4665354330709
 20
3.4645669291338583
 30
0.0
 10
296.3090551181102
 20
5.826771653543307
 30
0.0
 10
295.8169291338583
 20
6.377952755905512
 30
0.0
  0
POLYLINE
  5
158
330
17
100
AcDbEntity
  8
Bed foot
100
AcDb2dPolyline
 66
1
 10
0.0
 20
0.0
 30
0.0
 70
0
  0
VERTEX
  5
159
330
158
100
AcDbEntity
  8
Bed foot
100
AcDbVertex
100
AcDb2dVertex
 10
295.8169291338583
 20
6.377952755905512
 30
0.0
 70
0
  0
VERTEX
  5
15A
330
158
100
AcDbEntity
  8
Bed foot
100
AcDbVertex
100
AcDb2dVertex
 10
295.8169291338583
 20
7.0078740157480315
 30
0.0
 70
0
  0
VERTEX
  5
15B
330
158
100
AcDbEntity
  8
Bed foot
100
AcDbVertex
100
AcDb2dVertex
 10
293.06102362204723
 20
7.0078740157480315
 30
0.0
 70
0
  0
SEQEND
  5
15C
330
158
100
AcDbEntity
  8
Bed foot
  0
LINE
  5
15D
330
17
100
AcDbEntity
  8
Bed foot
100
AcDbLine
 10
293.06102362204723
 20
6.377952755905512
 30
0.0
 11
295.81692913385825
 21
6.377952755905512
 31
0.0
  0
LINE
  5
15E
330
17
100
AcDbEntity
  8
Bed foot
100
AcDbLine
 10
291.28937007874015
 20
0.0
 30
0.0
 11
297.58858267716533
 21
0.0
 31
0.0
  0
LWPOLYLINE
  5
15F
330
17
100
AcDbEntity
  8
Bed foot
100
AcDbPolyline
 90
5
 70
0
 10
290.8956692913386
 20
8.58267716535433
 10
297.98228346456693
 20
8.58267716535433
 10
297.98228346456693
 20
7.0078740157480315
 10
290.8956692913386
 20
7.0078740157480315
 10
290.8956692913386
 20
8.58267716535433
  0
TEXT
  5
160
330
17
100
AcDbEntity
  8
LABELS
100
AcDbText
 10
290.8956692913386
 20
10.94488188976378
 30
0.0
 40
0.7086614173228346
  1
BED FOOT  (1:1, inches)
 11
290.8956692913386
 21
10.94488188976378
 31
0.0
100
AcDbText
  0
POLYLINE
  5
163
330
17
100
AcDbEntity
  8
Back cushion
100
AcDb2dPolyline
 66
1
 10
0.0
 20
0.0
 30
0.0
 70
0
  0
VERTEX
  5
164
330
163
100
AcDbEntity
  8
Back cushion
100
AcDbVertex
100
AcDb2dVertex
 10
309.79330708661416
 20
16.929133858267715
 30
0.0
 70
0
  0
VERTEX
  5
165
330
163
100
AcDbEntity
  8
Back cushion
100
AcDbVertex
100
AcDb2dVertex
 10
313.7303149606299
 20
16.929133858267715
 30
0.0
 70
0
  0
SEQEND
  5
166
330
163
100
AcDbEntity
  8
Back cushion
  0
SPLINE
  5
167
330
17
100
AcDbEntity
  8
Back cushion
100
AcDbSpline
 70
0
 71
3
 72
14
 73
10
 74
0
 40
0.0
 40
0.0
 40
0.0
 40
0.0
 40
1.0
 40
1.0
 40
1.0
 40
2.0
 40
2.0
 40
2.0
 40
3.0
 40
3.0
 40
3.0
 40
3.0
 10
313.7303149606299
 20
16.929133858267715
 30
0.0
 10
314.0758338486418
 20
16.929133858267715
 30
0.0
 10
314.41533879462816
 20
16.838163782164298
 30
0.0
 10
314.71456692913387
 20
16.665404338158343
 30
0.0
 10
315.0137950636395
 20
16.492644894152388
 30
0.0
 10
315.26232993352244
 20
16.244110024269443
 30
0.0
 10
315.4350893775284
 20
15.944881889763778
 30
0.0
 10
315.60784882153433
 20
15.645653755258113
 30
0.0
 10
315.6988188976378
 20
15.306148809271752
 30
0.0
 10
315.6988188976378
 20
14.96062992125984
 30
0.0
  0
POLYLINE
  5
168
330
17
100
AcDbEntity
  8
Back cushion
100
AcDb2dPolyline
 66
1
 10
0.0
 20
0.0
 30
0.0
 70
0
  0
VERTEX
  5
169
330
168
100
AcDbEntity
  8
Back cushion
100
AcDbVertex
100
AcDb2dVertex
 10
315.6988188976378
 20
14.96062992125984
 30
0.0
 70
0
  0
VERTEX
  5
16A
330
168
100
AcDbEntity
  8
Back cushion
100
AcDbVertex
100
AcDb2dVertex
 10
315.6988188976378
 20
1.9685039370078723
 30
0.0
 70
0
  0
SEQEND
  5
16B
330
168
100
AcDbEntity
  8
Back cushion
  0
SPLINE
  5
16C
330
17
100
AcDbEntity
  8
Back cushion
100
AcDbSpline
 70
0
 71
3
 72
14
 73
10
 74
0
 40
0.0
 40
0.0
 40
0.0
 40
0.0
 40
1.0
 40
1.0
 40
1.0
 40
2.0
 40
2.0
 40
2.0
 40
3.0
 40
3.0
 40
3.0
 40
3.0
 10
315.6988188976378
 20
1.9685039370078723
 30
0.0
 10
315.6988188976378
 20
1.622985048995961
 30
0.0
 10
315.6078488215344
 20
1.2834801030096017
 30
0.0
 10
315.4350893775284
 20
0.9842519685039353
 30
0.0
 10
315.26232993352244
 20
0.6850238339982688
 30
0.0
 10
315.0137950636395
 20
0.4364889641153269
 30
0.0
 10
314.71456692913387
 20
0.2637295201093721
 30
0.0
 10
314.41533879462816
 20
0.09097007610341379
 30
0.0
 10
314.0758338486418
 20
0.0
 30
0.0
 10
313.7303149606299
 20
0.0
 30
0.0
  0
POLYLINE
  5
16D
330
17
100
AcDbEntity
  8
Back cushion
100
AcDb2dPolyline
 66
1
 10
0.0
 20
0.0
 30
0.0
 70
0
  0
VERTEX
  5
16E
330
16D
100
AcDbEntity
  8
Back cushion
100
AcDbVertex
100
AcDb2dVertex
 10
313.7303149606299
 20
0.0
 30
0.0
 70
0
  0
VERTEX
  5
16F
330
16D
100
AcDbEntity
  8
Back cushion
100
AcDbVertex
100
AcDb2dVertex
 10
309.79330708661416
 20
0.0
 30
0.0
 70
0
  0
SEQEND
  5
170
330
16D
100
AcDbEntity
  8
Back cushion
  0
SPLINE
  5
171
330
17
100
AcDbEntity
  8
Back cushion
100
AcDbSpline
 70
0
 71
3
 72
14
 73
10
 74
0
 40
0.0
 40
0.0
 40
0.0
 40
0.0
 40
1.0
 40
1.0
 40
1.0
 40
2.0
 40
2.0
 40
2.0
 40
3.0
 40
3.0
 40
3.0
 40
3.0
 10
309.79330708661416
 20
0.0
 30
0.0
 10
309.44778819860227
 20
0.0
 30
0.0
 10
309.1082832526159
 20
0.09097007610341379
 30
0.0
 10
308.8090551181102
 20
0.2637295201093721
 30
0.0
 10
308.50982698360457
 20
0.4364889641153269
 30
0.0
 10
308.2612921137216
 20
0.6850238339982688
 30
0.0
 10
308.0885326697157
 20
0.9842519685039353
 30
0.0
 10
307.9157732257097
 20
1.2834801030096017
 30
0.0
 10
307.8248031496063
 20
1.622985048995961
 30
0.0
 10
307.8248031496063
 20
1.9685039370078723
 30
0.0
  0
POLYLINE
  5
172
330
17
100
AcDbEntity
  8
Back cushion
100
AcDb2dPolyline
 66
1
 10
0.0
 20
0.0
 30
0.0
 70
0
  0
VERTEX
  5
173
330
172
100
AcDbEntity
  8
Back cushion
100
AcDbVertex
100
AcDb2dVertex
 10
307.8248031496063
 20
1.9685039370078723
 30
0.0
 70
0
  0
VERTEX
  5
174
330
172
100
AcDbEntity
  8
Back cushion
100
AcDbVertex
100
AcDb2dVertex
 10
307.8248031496063
 20
14.96062992125984
 30
0.0
 70
0
  0
SEQEND
  5
175
330
172
100
AcDbEntity
  8
Back cushion
  0
SPLINE
  5
176
330
17
100
AcDbEntity
  8
Back cushion
100
AcDbSpline
 70
0
 71
3
 72
14
 73
10
 74
0
 40
0.0
 40
0.0
 40
0.0
 40
0.0
 40
1.0
 40
1.0
 40
1.0
 40
2.0
 40
2.0
 40
2.0
 40
3.0
 40
3.0
 40
3.0
 40
3.0
 10
307.8248031496063
 20
14.96062992125984
 30
0.0
 10
307.8248031496063
 20
15.306148809271752
 30
0.0
 10
307.9157732257097
 20
15.645653755258111
 30
0.0
 10
308.0885326697157
 20
15.944881889763778
 30
0.0
 10
308.2612921137216
 20
16.244110024269443
 30
0.0
 10
308.50982698360457
 20
16.492644894152384
 30
0.0
 10
308.8090551181102
 20
16.665404338158343
 30
0.0
 10
309.1082832526159
 20
16.838163782164298
 30
0.0
 10
309.44778819860227
 20
16.929133858267715
 30
0.0
 10
309.79330708661416
 20
16.929133858267715
 30
0.0
  0
POLYLINE
  5
177
330
17
100
AcDbEntity
  8
Back cushion
  6
DASHED
100
AcDb2dPolyline
 66
1
 10
0.0
 20
0.0
 30
0.0
 70
0
  0
VERTEX
  5
178
330
177
100
AcDbEntity
  8
Back cushion
  6
DASHED
100
AcDbVertex
100
AcDb2dVertex
 10
309.95078740157476
 20
16.062992125984252
 30
0.0
 70
0
  0
VERTEX
  5
179
330
177
100
AcDbEntity
  8
Back cushion
  6
DASHED
100
AcDbVertex
100
AcDb2dVertex
 10
313.5728346456693
 20
16.062992125984252
 30
0.0
 70
0
  0
SEQEND
  5
17A
330
177
100
AcDbEntity
  8
Back cushion
  0
SPLINE
  5
17B
330
17
100
AcDbEntity
  8
Back cushion
  6
DASHED
100
AcDbSpline
 70
0
 71
3
 72
14
 73
10
 74
0
 40
0.0
 40
0.0
 40
0.0
 40
0.0
 40
1.0
 40
1.0
 40
1.0
 40
2.0
 40
2.0
 40
2.0
 40
3.0
 40
3.0
 40
3.0
 40
3.0
 10
313.5728346456693
 20
16.062992125984252
 30
0.0
 10
313.7939667339969
 20
16.062992125984252
 30
0.0
 10
314.01124989942815
 20
16.004771277278063
 30
0.0
 10
314.2027559055118
 20
15.894205233114253
 30
0.0
 10
314.39426191159544
 20
15.78363918895044
 30
0.0
 10
314.5533242283205
 20
15.624576872225356
 30
0.0
 10
314.6638902724843
 20
15.43307086614173
 30
0.0
 10
314.7744563166481
 20
15.241564860058105
 30
0.0
 10
314.8326771653543
 20
15.024281694626834
 30
0.0
 10
314.8326771653543
 20
14.803149606299211
 30
0.0
  0
POLYLINE
  5
17C
330
17
100
AcDbEntity
  8
Back cushion
  6
DASHED
100
AcDb2dPolyline
 66
1
 10
0.0
 20
0.0
 30
0.0
 70
0
  0
VERTEX
  5
17D
330
17C
100
AcDbEntity
  8
Back cushion
  6
DASHED
100
AcDbVertex
100
AcDb2dVertex
 10
314.8326771653543
 20
14.803149606299211
 30
0.0
 70
0
  0
VERTEX
  5
17E
330
17C
100
AcDbEntity
  8
Back cushion
  6
DASHED
100
AcDbVertex
100
AcDb2dVertex
 10
314.8326771653543
 20
2.125984251968502
 30
0.0
 70
0
  0
SEQEND
  5
17F
330
17C
100
AcDbEntity
  8
Back cushion
  0
SPLINE
  5
180
330
17
100
AcDbEntity
  8
Back cushion
  6
DASHED
100
AcDbSpline
 70
0
 71
3
 72
14
 73
10
 74
0
 40
0.0
 40
0.0
 40
0.0
 40
0.0
 40
1.0
 40
1.0
 40
1.0
 40
2.0
 40
2.0
 40
2.0
 40
3.0
 40
3.0
 40
3.0
 40
3.0
 10
314.8326771653543
 20
2.125984251968502
 30
0.0
 10
314.8326771653543
 20
1.9048521636408786
 30
0.0
 10
314.7744563166481
 20
1.6875689982096098
 30
0.0
 10
314.6638902724843
 20
1.4960629921259834
 30
0.0
 10
314.5533242283205
 20
1.304556986042357
 30
0.0
 10
314.39426191159544
 20
1.145494669317273
 30
0.0
 10
314.2027559055118
 20
1.0349286251534604
 30
0.0
 10
314.01124989942815
 20
0.9243625809896514
 30
0.0
 10
313.7939667339969
 20
0.866141732283463
 30
0.0
 10
313.5728346456693
 20
0.866141732283463
 30
0.0
  0
POLYLINE
  5
181
330
17
100
AcDbEntity
  8
Back cushion
  6
DASHED
100
AcDb2dPolyline
 66
1
 10
0.0
 20
0.0
 30
0.0
 70
0
  0
VERTEX
  5
182
330
181
100
AcDbEntity
  8
Back cushion
  6
DASHED
100
AcDbVertex
100
AcDb2dVertex
 10
313.5728346456693
 20
0.866141732283463
 30
0.0
 70
0
  0
VERTEX
  5
183
330
181
100
AcDbEntity
  8
Back cushion
  6
DASHED
100
AcDbVertex
100
AcDb2dVertex
 10
309.95078740157476
 20
0.866141732283463
 30
0.0
 70
0
  0
SEQEND
  5
184
330
181
100
AcDbEntity
  8
Back cushion
  0
SPLINE
  5
185
330
17
100
AcDbEntity
  8
Back cushion
  6
DASHED
100
AcDbSpline
 70
0
 71
3
 72
14
 73
10
 74
0
 40
0.0
 40
0.0
 40
0.0
 40
0.0
 40
1.0
 40
1.0
 40
1.0
 40
2.0
 40
2.0
 40
2.0
 40
3.0
 40
3.0
 40
3.0
 40
3.0
 10
309.95078740157476
 20
0.866141732283463
 30
0.0
 10
309.7296553132472
 20
0.866141732283463
 30
0.0
 10
309.5123721478159
 20
0.9243625809896514
 30
0.0
 10
309.32086614173227
 20
1.0349286251534604
 30
0.0
 10
309.12936013564865
 20
1.145494669317273
 30
0.0
 10
308.97029781892354
 20
1.304556986042357
 30
0.0
 10
308.8597317747597
 20
1.4960629921259834
 30
0.0
 10
308.7491657305959
 20
1.6875689982096098
 30
0.0
 10
308.6909448818897
 20
1.9048521636408786
 30
0.0
 10
308.6909448818897
 20
2.125984251968502
 30
0.0
  0
POLYLINE
  5
186
330
17
100
AcDbEntity
  8
Back cushion
  6
DASHED
100
AcDb2dPolyline
 66
1
 10
0.0
 20
0.0
 30
0.0
 70
0
  0
VERTEX
  5
187
330
186
100
AcDbEntity
  8
Back cushion
  6
DASHED
100
AcDbVertex
100
AcDb2dVertex
 10
308.6909448818897
 20
2.125984251968502
 30
0.0
 70
0
  0
VERTEX
  5
188
330
186
100
AcDbEntity
  8
Back cushion
  6
DASHED
100
AcDbVertex
100
AcDb2dVertex
 10
308.6909448818897
 20
14.803149606299211
 30
0.0
 70
0
  0
SEQEND
  5
189
330
186
100
AcDbEntity
  8
Back cushion
  0
SPLINE
  5
18A
330
17
100
AcDbEntity
  8
Back cushion
  6
DASHED
100
AcDbSpline
 70
0
 71
3
 72
14
 73
10
 74
0
 40
0.0
 40
0.0
 40
0.0
 40
0.0
 40
1.0
 40
1.0
 40
1.0
 40
2.0
 40
2.0
 40
2.0
 40
3.0
 40
3.0
 40
3.0
 40
3.0
 10
308.6909448818897
 20
14.803149606299211
 30
0.0
 10
308.6909448818897
 20
15.024281694626834
 30
0.0
 10
308.7491657305959
 20
15.241564860058105
 30
0.0
 10
308.8597317747597
 20
15.43307086614173
 30
0.0
 10
308.97029781892354
 20
15.624576872225356
 30
0.0
 10
309.12936013564865
 20
15.78363918895044
 30
0.0
 10
309.32086614173227
 20
15.894205233114251
 30
0.0
 10
309.5123721478159
 20
16.004771277278063
 30
0.0
 10
309.7296553132472
 20
16.062992125984252
 30
0.0
 10
309.95078740157476
 20
16.062992125984252
 30
0.0
  0
CIRCLE
  5
18B
330
17
100
AcDbEntity
  8
Back cushion
100
AcDbCircle
 10
308.4153543307087
 20
16.338582677165356
 30
0.0
 40
0.19685039370078738
  0
CIRCLE
  5
18C
330
17
100
AcDbEntity
  8
Back cushion
100
AcDbCircle
 10
315.1082677165354
 20
16.338582677165356
 30
0.0
 40
0.19685039370078738
  0
CIRCLE
  5
18D
330
17
100
AcDbEntity
  8
Back cushion
100
AcDbCircle
 10
308.4153543307087
 20
0.5905511811023622
 30
0.0
 40
0.19685039370078738
  0
CIRCLE
  5
18E
330
17
100
AcDbEntity
  8
Back cushion
100
AcDbCircle
 10
315.1082677165354
 20
0.5905511811023622
 30
0.0
 40
0.19685039370078738
  0
TEXT
  5
18F
330
17
100
AcDbEntity
  8
LABELS
100
AcDbText
 10
307.8248031496063
 20
19.291338582677167
 30
0.0
 40
0.7086614173228346
  1
BACK CUSHION  (1:1, inches)
 11
307.8248031496063
 21
19.291338582677167
 31
0.0
100
AcDbText
  0
TEXT
  5
190
330
17
100
AcDbEntity
  8
LABELS
100
AcDbText
 10
0.0
 20
-8.661417322834646
 30
0.0
 40
1.574803149606299
  1
The bed · AST-DR-035
 11
0.0
 21
-8.661417322834646
 31
0.0
100
AcDbText
  0
ENDSEC
  0
SECTION
  2
OBJECTS
  0
DICTIONARY
  5
A
330
0
100
AcDbDictionary
281
1
  3
ACAD_COLOR
350
B
  3
ACAD_GROUP
350
C
  3
ACAD_LAYOUT
350
D
  3
ACAD_MATERIAL
350
E
  3
ACAD_MLEADERSTYLE
350
F
  3
ACAD_MLINESTYLE
350
10
  3
ACAD_PLOTSETTINGS
350
11
  3
ACAD_PLOTSTYLENAME
350
12
  3
ACAD_SCALELIST
350
14
  3
ACAD_TABLESTYLE
350
15
  3
ACAD_VISUALSTYLE
350
16
  3
EZDXF_META
350
2D
  0
DICTIONARY
  5
B
330
A
100
AcDbDictionary
281
1
  0
DICTIONARY
  5
C
330
A
100
AcDbDictionary
281
1
  0
DICTIONARY
  5
D
330
A
100
AcDbDictionary
281
1
  3
Model
350
1A
  3
Layout1
350
1E
  0
DICTIONARY
  5
E
330
A
100
AcDbDictionary
281
1
  3
ByBlock
350
1F
  3
ByLayer
350
20
  3
Global
350
21
  0
DICTIONARY
  5
F
330
A
100
AcDbDictionary
281
1
  3
Standard
350
2C
  0
DICTIONARY
  5
10
330
A
100
AcDbDictionary
281
1
  3
Standard
350
22
  0
DICTIONARY
  5
11
330
A
100
AcDbDictionary
281
1
  0
ACDBDICTIONARYWDFLT
  5
12
330
A
100
AcDbDictionary
281
1
  3
Normal
350
13
100
AcDbDictionaryWithDefault
340
13
  0
ACDBPLACEHOLDER
  5
13
330
12
  0
DICTIONARY
  5
14
330
A
100
AcDbDictionary
281
1
  0
DICTIONARY
  5
15
330
A
100
AcDbDictionary
281
1
  0
DICTIONARY
  5
16
330
A
100
AcDbDictionary
281
1
  3
2dWireframe
350
5A
  3
Basic
350
5B
  3
Brighten
350
5C
  3
ColorChange
350
5D
  3
Conceptual
350
5E
  3
Dim
350
5F
  3
EdgeColorOff
350
60
  3
Facepattern
350
61
  3
Flat
350
62
  3
FlatWithEdges
350
63
  3
Gouraud
350
64
  3
GouraudWithEdges
350
65
  3
Hidden
350
66
  3
JitterOff
350
67
  3
Linepattern
350
68
  3
Modeling
350
69
  3
OverhangOff
350
6A
  3
Realistic
350
6B
  3
Shaded
350
6C
  3
Shaded with edges
350
6D
  3
Shades of Gray
350
6E
  3
Sketchy
350
6F
  3
Thicken
350
70
  3
Wireframe
350
71
  3
X-Ray
350
72
  0
LAYOUT
  5
1A
330
D
100
AcDbPlotSettings
  1

  4
A3
  6

 40
7.5
 41
20.0
 42
7.5
 43
20.0
 44
420.0
 45
297.0
 46
0.0
 47
0.0
 48
0.0
 49
0.0
140
0.0
141
0.0
142
1.0
143
1.0
 70
1024
 72
1
 73
0
 74
5
  7

 75
16
 76
0
 77
2
 78
300
147
1.0
148
0.0
149
0.0
100
AcDbLayout
  1
Model
 70
1
 71
0
 10
0.0
 20
0.0
 11
420.0
 21
297.0
 12
0.0
 22
0.0
 32
0.0
 14
1e+20
 24
1e+20
 34
1e+20
 15
-1e+20
 25
-1e+20
 35
-1e+20
146
0.0
 13
0.0
 23
0.0
 33
0.0
 16
1.0
 26
0.0
 36
0.0
 17
0.0
 27
1.0
 37
0.0
 76
1
330
17
  0
LAYOUT
  5
1E
330
D
100
AcDbPlotSettings
  1

  4
A3
  6

 40
7.5
 41
20.0
 42
7.5
 43
20.0
 44
420.0
 45
297.0
 46
0.0
 47
0.0
 48
0.0
 49
0.0
140
0.0
141
0.0
142
1.0
143
1.0
 70
0
 72
1
 73
0
 74
5
  7

 75
16
 76
0
 77
2
 78
300
147
1.0
148
0.0
149
0.0
100
AcDbLayout
  1
Layout1
 70
1
 71
1
 10
0.0
 20
0.0
 11
420.0
 21
297.0
 12
0.0
 22
0.0
 32
0.0
 14
1e+20
 24
1e+20
 34
1e+20
 15
-1e+20
 25
-1e+20
 35
-1e+20
146
0.0
 13
0.0
 23
0.0
 33
0.0
 16
1.0
 26
0.0
 36
0.0
 17
0.0
 27
1.0
 37
0.0
 76
1
330
1B
  0
MATERIAL
  5
1F
102
{ACAD_REACTORS
330
E
102
}
330
E
100
AcDbMaterial
  1
ByBlock
  2

 70
0
 40
1.0
 71
1
 41
1.0
 91
-1023410177
 42
1.0
 72
1
  3

 73
1
 74
1
 75
1
 44
0.5
 73
0
 45
1.0
 46
1.0
 77
1
  4

 78
1
 79
1
170
1
 48
1.0
171
1
  6

172
1
173
1
174
1
140
1.0
141
1.0
175
1
  7

176
1
177
1
178
1
143
1.0
179
1
  8

270
1
271
1
272
1
145
1.0
146
1.0
273
1
  9

274
1
275
1
276
1
 42
1.0
 72
1
  3

 73
1
 74
1
 75
1
 94
63
  0
MATERIAL
  5
20
102
{ACAD_REACTORS
330
E
102
}
330
E
100
AcDbMaterial
  1
ByLayer
  2

 70
0
 40
1.0
 71
1
 41
1.0
 91
-1023410177
 42
1.0
 72
1
  3

 73
1
 74
1
 75
1
 44
0.5
 73
0
 45
1.0
 46
1.0
 77
1
  4

 78
1
 79
1
170
1
 48
1.0
171
1
  6

172
1
173
1
174
1
140
1.0
141
1.0
175
1
  7

176
1
177
1
178
1
143
1.0
179
1
  8

270
1
271
1
272
1
145
1.0
146
1.0
273
1
  9

274
1
275
1
276
1
 42
1.0
 72
1
  3

 73
1
 74
1
 75
1
 94
63
  0
MATERIAL
  5
21
102
{ACAD_REACTORS
330
E
102
}
330
E
100
AcDbMaterial
  1
Global
  2

 70
0
 40
1.0
 71
1
 41
1.0
 91
-1023410177
 42
1.0
 72
1
  3

 73
1
 74
1
 75
1
 44
0.5
 73
0
 45
1.0
 46
1.0
 77
1
  4

 78
1
 79
1
170
1
 48
1.0
171
1
  6

172
1
173
1
174
1
140
1.0
141
1.0
175
1
  7

176
1
177
1
178
1
143
1.0
179
1
  8

270
1
271
1
272
1
145
1.0
146
1.0
273
1
  9

274
1
275
1
276
1
 42
1.0
 72
1
  3

 73
1
 74
1
 75
1
 94
63
  0
MLINESTYLE
  5
22
102
{ACAD_REACTORS
330
10
102
}
330
10
100
AcDbMlineStyle
  2
Standard
 70
0
  3

 62
256
 51
90.0
 52
90.0
 71
2
 49
0.5
 62
256
  6
BYLAYER
 49
-0.5
 62
256
  6
BYLAYER
  0
MLEADERSTYLE
  5
2C
102
{ACAD_REACTORS
330
F
102
}
330
F
100
AcDbMLeaderStyle
179
2
170
2
171
1
172
0
 90
2
 40
0.0
 41
0.0
173
1
 91
-1056964608
 92
-2
290
1
 42
2.0
291
1
 43
8.0
  3
Standard
 44
4.0
300

342
29
174
1
175
1
176
0
178
1
 93
-1056964608
 45
4.0
292
0
297
0
 46
4.0
 94
-1056964608
 47
1.0
 49
1.0
140
1.0
294
1
141
0.0
177
0
142
1.0
295
0
296
0
143
3.75
271
0
272
9
273
9
  0
DICTIONARY
  5
2D
330
A
100
AcDbDictionary
280
1
281
1
  3
CREATED_BY_EZDXF
350
2E
  3
WRITTEN_BY_EZDXF
350
193
  0
DICTIONARYVAR
  5
2E
330
2D
100
DictionaryVariables
280
0
  1
1.4.2 @ 2026-10-03T13:31:59.260229+00:00
  0
VISUALSTYLE
  5
5A
102
{ACAD_REACTORS
330
16
102
}
330
16
100
AcDbVisualStyle
  2
2dWireframe
 70
4
 90
0
 40
0.6
 62
7
290
0
291
0
  0
VISUALSTYLE
  5
5B
102
{ACAD_REACTORS
330
16
102
}
330
16
100
AcDbVisualStyle
  2
Basic
 70
7
 90
1
 40
0.6
 62
7
290
0
291
1
  0
VISUALSTYLE
  5
5C
102
{ACAD_REACTORS
330
16
102
}
330
16
100
AcDbVisualStyle
  2
Brighten
 70
12
 90
2
 40
0.6
 62
7
290
0
291
1
  0
VISUALSTYLE
  5
5D
102
{ACAD_REACTORS
330
16
102
}
330
16
100
AcDbVisualStyle
  2
ColorChange
 70
16
 90
2
 40
0.6
 62
8
290
0
291
1
  0
VISUALSTYLE
  5
5E
102
{ACAD_REACTORS
330
16
102
}
330
16
100
AcDbVisualStyle
  2
Conceptual
 70
9
 90
3
 40
0.6
 62
7
290
0
291
0
  0
VISUALSTYLE
  5
5F
102
{ACAD_REACTORS
330
16
102
}
330
16
100
AcDbVisualStyle
  2
Dim
 70
11
 90
2
 40
0.6
 62
7
290
0
291
1
  0
VISUALSTYLE
  5
60
102
{ACAD_REACTORS
330
16
102
}
330
16
100
AcDbVisualStyle
  2
EdgeColorOff
 70
22
 90
2
 40
0.6
 62
7
290
0
291
1
  0
VISUALSTYLE
  5
61
102
{ACAD_REACTORS
330
16
102
}
330
16
100
AcDbVisualStyle
  2
Facepattern
 70
15
 90
2
 40
0.6
 62
7
290
0
291
1
  0
VISUALSTYLE
  5
62
102
{ACAD_REACTORS
330
16
102
}
330
16
100
AcDbVisualStyle
  2
Flat
 70
0
 90
2
 40
0.6
 62
7
290
0
291
1
  0
VISUALSTYLE
  5
63
102
{ACAD_REACTORS
330
16
102
}
330
16
100
AcDbVisualStyle
  2
FlatWithEdges
 70
1
 90
2
 40
0.6
 62
7
290
0
291
1
  0
VISUALSTYLE
  5
64
102
{ACAD_REACTORS
330
16
102
}
330
16
100
AcDbVisualStyle
  2
Gouraud
 70
2
 90
2
 40
0.6
 62
7
290
0
291
1
  0
VISUALSTYLE
  5
65
102
{ACAD_REACTORS
330
16
102
}
330
16
100
AcDbVisualStyle
  2
GouraudWithEdges
 70
3
 90
2
 40
0.6
 62
7
290
0
291
1
  0
VISUALSTYLE
  5
66
102
{ACAD_REACTORS
330
16
102
}
330
16
100
AcDbVisualStyle
  2
Hidden
 70
6
 90
1
 40
0.6
 62
7
290
0
291
0
  0
VISUALSTYLE
  5
67
102
{ACAD_REACTORS
330
16
102
}
330
16
100
AcDbVisualStyle
  2
JitterOff
 70
20
 90
2
 40
0.6
 62
7
290
0
291
1
  0
VISUALSTYLE
  5
68
102
{ACAD_REACTORS
330
16
102
}
330
16
100
AcDbVisualStyle
  2
Linepattern
 70
14
 90
2
 40
0.6
 62
7
290
0
291
1
  0
VISUALSTYLE
  5
69
102
{ACAD_REACTORS
330
16
102
}
330
16
100
AcDbVisualStyle
  2
Modeling
 70
10
 90
2
 40
0.6
 62
7
290
0
291
0
  0
VISUALSTYLE
  5
6A
102
{ACAD_REACTORS
330
16
102
}
330
16
100
AcDbVisualStyle
  2
OverhangOff
 70
21
 90
2
 40
0.6
 62
7
290
0
291
1
  0
VISUALSTYLE
  5
6B
102
{ACAD_REACTORS
330
16
102
}
330
16
100
AcDbVisualStyle
  2
Realistic
 70
8
 90
2
 40
0.6
 62
7
290
0
291
0
  0
VISUALSTYLE
  5
6C
102
{ACAD_REACTORS
330
16
102
}
330
16
100
AcDbVisualStyle
  2
Shaded
 70
27
 90
2
 40
0.6
 62
7
290
0
291
0
  0
VISUALSTYLE
  5
6D
102
{ACAD_REACTORS
330
16
102
}
330
16
100
AcDbVisualStyle
  2
Shaded with edges
 70
26
 90
2
 40
0.6
 62
7
290
0
291
0
  0
VISUALSTYLE
  5
6E
102
{ACAD_REACTORS
330
16
102
}
330
16
100
AcDbVisualStyle
  2
Shades of Gray
 70
23
 90
2
 40
0.6
 62
7
290
0
291
0
  0
VISUALSTYLE
  5
6F
102
{ACAD_REACTORS
330
16
102
}
330
16
100
AcDbVisualStyle
  2
Sketchy
 70
24
 90
1
 40
0.6
 62
7
290
0
291
0
  0
VISUALSTYLE
  5
70
102
{ACAD_REACTORS
330
16
102
}
330
16
100
AcDbVisualStyle
  2
Thicken
 70
13
 90
2
 40
0.6
 62
7
290
0
291
1
  0
VISUALSTYLE
  5
71
102
{ACAD_REACTORS
330
16
102
}
330
16
100
AcDbVisualStyle
  2
Wireframe
 70
5
 90
0
 40
0.6
 62
7
290
0
291
0
  0
VISUALSTYLE
  5
72
102
{ACAD_REACTORS
330
16
102
}
330
16
100
AcDbVisualStyle
  2
X-Ray
 70
25
 90
2
 40
0.5
 62
7
290
0
291
0
  0
DICTIONARYVAR
  5
193
330
2D
100
DictionaryVariables
280
0
  1
1.4.2 @ 2026-10-03T13:31:59.288074+00:00
  0
ENDSEC
  0
EOF
