  0
SECTION
  2
HEADER
  9
$ACADVER
  1
AC1024
  9
$ACADMAINTVER
 70
6
  9
$DWGCODEPAGE
  3
ANSI_1252
  9
$LASTSAVEDBY
  1
ezdxf
  9
$INSBASE
 10
0.0
 20
0.0
 30
0.0
  9
$EXTMIN
 10
1e+20
 20
1e+20
 30
1e+20
  9
$EXTMAX
 10
-1e+20
 20
-1e+20
 30
-1e+20
  9
$LIMMIN
 10
0.0
 20
0.0
  9
$LIMMAX
 10
420.0
 20
297.0
  9
$ORTHOMODE
 70
0
  9
$REGENMODE
 70
1
  9
$FILLMODE
 70
1
  9
$QTEXTMODE
 70
0
  9
$MIRRTEXT
 70
1
  9
$LTSCALE
 40
0.00984251968503937
  9
$ATTMODE
 70
1
  9
$TEXTSIZE
 40
2.5
  9
$TRACEWID
 40
1.0
  9
$TEXTSTYLE
  7
OpenSans
  9
$CLAYER
  8
0
  9
$CELTYPE
  6
ByLayer
  9
$CECOLOR
 62
256
  9
$CELTSCALE
 40
1.0
  9
$DISPSILH
 70
0
  9
$DIMSCALE
 40
1.0
  9
$DIMASZ
 40
0.175
  9
$DIMEXO
 40
0.125
  9
$DIMDLI
 40
3.75
  9
$DIMRND
 40
0.0
  9
$DIMDLE
 40
0.0
  9
$DIMEXE
 40
0.375
  9
$DIMTP
 40
0.0
  9
$DIMTM
 40
0.0
  9
$DIMTXT
 40
0.25
  9
$DIMCEN
 40
2.5
  9
$DIMTSZ
 40
0.0
  9
$DIMTOL
 70
0
  9
$DIMLIM
 70
0
  9
$DIMTIH
 70
0
  9
$DIMTOH
 70
0
  9
$DIMSE1
 70
0
  9
$DIMSE2
 70
0
  9
$DIMTAD
 70
1
  9
$DIMZIN
 70
12
  9
$DIMBLK
  1
ARCHTICK
  9
$DIMASO
 70
1
  9
$DIMSHO
 70
1
  9
$DIMPOST
  1

  9
$DIMAPOST
  1

  9
$DIMALT
 70
0
  9
$DIMALTD
 70
3
  9
$DIMALTF
 40
0.03937007874
  9
$DIMLFAC
 40
100.0
  9
$DIMTOFL
 70
1
  9
$DIMTVP
 40
0.0
  9
$DIMTIX
 70
0
  9
$DIMSOXD
 70
0
  9
$DIMSAH
 70
0
  9
$DIMBLK1
  1

  9
$DIMBLK2
  1

  9
$DIMSTYLE
  2
EZDXF
  9
$DIMCLRD
 70
0
  9
$DIMCLRE
 70
0
  9
$DIMCLRT
 70
0
  9
$DIMTFAC
 40
0.5
  9
$DIMGAP
 40
0.1
  9
$DIMJUST
 70
0
  9
$DIMSD1
 70
0
  9
$DIMSD2
 70
0
  9
$DIMTOLJ
 70
0
  9
$DIMTZIN
 70
8
  9
$DIMALTZ
 70
0
  9
$DIMALTTZ
 70
0
  9
$DIMUPT
 70
1
  9
$DIMDEC
 70
2
  9
$DIMTDEC
 70
2
  9
$DIMALTU
 70
2
  9
$DIMALTTD
 70
3
  9
$DIMTXSTY
  7
OpenSansCondensed-Light
  9
$DIMAUNIT
 70
0
  9
$DIMADEC
 70
2
  9
$DIMALTRND
 40
0.0
  9
$DIMAZIN
 70
3
  9
$DIMDSEP
 70
46
  9
$DIMATFIT
 70
3
  9
$DIMFRAC
 70
0
  9
$DIMLDRBLK
  1

  9
$DIMLUNIT
 70
2
  9
$DIMLWD
 70
-2
  9
$DIMLWE
 70
-2
  9
$DIMTMOVE
 70
2
  9
$DIMFXL
 40
1.0
  9
$DIMFXLON
 70
0
  9
$DIMJOGANG
 40
0.785398163397
  9
$DIMTFILL
 70
0
  9
$DIMTFILLCLR
 70
0
  9
$DIMARCSYM
 70
0
  9
$DIMLTYPE
  6

  9
$DIMLTEX1
  6

  9
$DIMLTEX2
  6

  9
$DIMTXTDIRECTION
 70
0
  9
$LUNITS
 70
4
  9
$LUPREC
 70
4
  9
$SKETCHINC
 40
1.0
  9
$FILLETRAD
 40
10.0
  9
$AUNITS
 70
0
  9
$AUPREC
 70
3
  9
$MENU
  1
.
  9
$ELEVATION
 40
0.0
  9
$PELEVATION
 40
0.0
  9
$THICKNESS
 40
0.0
  9
$LIMCHECK
 70
0
  9
$CHAMFERA
 40
0.0
  9
$CHAMFERB
 40
0.0
  9
$CHAMFERC
 40
0.0
  9
$CHAMFERD
 40
0.0
  9
$SKPOLY
 70
0
  9
$TDCREATE
 40
2461317.7930439813
  9
$TDUCREATE
 40
2458532.153996898
  9
$TDUPDATE
 40
2461317.7930439813
  9
$TDUUPDATE
 40
2458532.1544311
  9
$TDINDWG
 40
0.0
  9
$TDUSRTIMER
 40
0.0
  9
$USRTIMER
 70
1
  9
$ANGBASE
 50
0.0
  9
$ANGDIR
 70
0
  9
$PDMODE
 70
0
  9
$PDSIZE
 40
0.0
  9
$PLINEWID
 40
0.0
  9
$SPLFRAME
 70
0
  9
$SPLINETYPE
 70
6
  9
$SPLINESEGS
 70
8
  9
$HANDSEED
  5
22E
  9
$SURFTAB1
 70
6
  9
$SURFTAB2
 70
6
  9
$SURFTYPE
 70
6
  9
$SURFU
 70
6
  9
$SURFV
 70
6
  9
$UCSBASE
  2

  9
$UCSNAME
  2

  9
$UCSORG
 10
0.0
 20
0.0
 30
0.0
  9
$UCSXDIR
 10
1.0
 20
0.0
 30
0.0
  9
$UCSYDIR
 10
0.0
 20
1.0
 30
0.0
  9
$UCSORTHOREF
  2

  9
$UCSORTHOVIEW
 70
0
  9
$UCSORGTOP
 10
0.0
 20
0.0
 30
0.0
  9
$UCSORGBOTTOM
 10
0.0
 20
0.0
 30
0.0
  9
$UCSORGLEFT
 10
0.0
 20
0.0
 30
0.0
  9
$UCSORGRIGHT
 10
0.0
 20
0.0
 30
0.0
  9
$UCSORGFRONT
 10
0.0
 20
0.0
 30
0.0
  9
$UCSORGBACK
 10
0.0
 20
0.0
 30
0.0
  9
$PUCSBASE
  2

  9
$PUCSNAME
  2

  9
$PUCSORG
 10
0.0
 20
0.0
 30
0.0
  9
$PUCSXDIR
 10
1.0
 20
0.0
 30
0.0
  9
$PUCSYDIR
 10
0.0
 20
1.0
 30
0.0
  9
$PUCSORTHOREF
  2

  9
$PUCSORTHOVIEW
 70
0
  9
$PUCSORGTOP
 10
0.0
 20
0.0
 30
0.0
  9
$PUCSORGBOTTOM
 10
0.0
 20
0.0
 30
0.0
  9
$PUCSORGLEFT
 10
0.0
 20
0.0
 30
0.0
  9
$PUCSORGRIGHT
 10
0.0
 20
0.0
 30
0.0
  9
$PUCSORGFRONT
 10
0.0
 20
0.0
 30
0.0
  9
$PUCSORGBACK
 10
0.0
 20
0.0
 30
0.0
  9
$USERI1
 70
0
  9
$USERI2
 70
0
  9
$USERI3
 70
0
  9
$USERI4
 70
0
  9
$USERI5
 70
0
  9
$USERR1
 40
0.0
  9
$USERR2
 40
0.0
  9
$USERR3
 40
0.0
  9
$USERR4
 40
0.0
  9
$USERR5
 40
0.0
  9
$WORLDVIEW
 70
1
  9
$SHADEDGE
 70
3
  9
$SHADEDIF
 70
70
  9
$TILEMODE
 70
1
  9
$MAXACTVP
 70
64
  9
$PINSBASE
 10
0.0
 20
0.0
 30
0.0
  9
$PLIMCHECK
 70
0
  9
$PEXTMIN
 10
1e+20
 20
1e+20
 30
1e+20
  9
$PEXTMAX
 10
-1e+20
 20
-1e+20
 30
-1e+20
  9
$PLIMMIN
 10
0.0
 20
0.0
  9
$PLIMMAX
 10
420.0
 20
297.0
  9
$UNITMODE
 70
0
  9
$VISRETAIN
 70
1
  9
$PLINEGEN
 70
0
  9
$PSLTSCALE
 70
1
  9
$TREEDEPTH
 70
3020
  9
$CMLSTYLE
  2
Standard
  9
$CMLJUST
 70
0
  9
$CMLSCALE
 40
20.0
  9
$PROXYGRAPHICS
 70
1
  9
$MEASUREMENT
 70
0
  9
$CELWEIGHT
370
-1
  9
$ENDCAPS
280
0
  9
$JOINSTYLE
280
0
  9
$LWDISPLAY
290
0
  9
$INSUNITS
 70
1
  9
$HYPERLINKBASE
  1

  9
$STYLESHEET
  1

  9
$XEDIT
290
1
  9
$CEPSNTYPE
380
0
  9
$PSTYLEMODE
290
1
  9
$FINGERPRINTGUID
  2
{3948F8F2-44C7-47DC-8EBD-B0F1CFB377E8}
  9
$VERSIONGUID
  2
{9C8F936A-8478-4B7B-A913-683729EF60FF}
  9
$EXTNAMES
290
1
  9
$PSVPSCALE
 40
0.0
  9
$OLESTARTUP
290
0
  9
$SORTENTS
280
127
  9
$INDEXCTL
280
0
  9
$HIDETEXT
280
1
  9
$XCLIPFRAME
280
1
  9
$HALOGAP
280
0
  9
$OBSCOLOR
 70
257
  9
$OBSLTYPE
280
0
  9
$INTERSECTIONDISPLAY
280
0
  9
$INTERSECTIONCOLOR
 70
257
  9
$DIMASSOC
280
2
  9
$PROJECTNAME
  1

  9
$CAMERADISPLAY
290
0
  9
$LENSLENGTH
 40
50.0
  9
$CAMERAHEIGHT
 40
0.0
  9
$STEPSPERSEC
 40
24.0
  9
$STEPSIZE
 40
100.0
  9
$3DDWFPREC
 40
2.0
  9
$PSOLWIDTH
 40
0.005
  9
$PSOLHEIGHT
 40
0.08
  9
$LOFTANG1
 40
1.570796326795
  9
$LOFTANG2
 40
1.570796326795
  9
$LOFTMAG1
 40
0.0
  9
$LOFTMAG2
 40
0.0
  9
$LOFTPARAM
 70
7
  9
$LOFTNORMALS
280
1
  9
$LATITUDE
 40
37.795
  9
$LONGITUDE
 40
-122.394
  9
$NORTHDIRECTION
 40
0.0
  9
$TIMEZONE
 70
-8000
  9
$LIGHTGLYPHDISPLAY
280
1
  9
$TILEMODELIGHTSYNCH
280
1
  9
$CMATERIAL
347
20
  9
$SOLIDHIST
280
0
  9
$SHOWHIST
280
1
  9
$DWFFRAME
280
2
  9
$DGNFRAME
280
2
  9
$REALWORLDSCALE
290
1
  9
$INTERFERECOLOR
 62
256
  9
$CSHADOW
280
0
  9
$SHADOWPLANELOCATION
 40
0.0
  0
ENDSEC
  0
SECTION
  2
CLASSES
  0
CLASS
  1
ACDBDICTIONARYWDFLT
  2
AcDbDictionaryWithDefault
  3
ObjectDBX Classes
 90
0
 91
0
280
0
281
0
  0
CLASS
  1
SUN
  2
AcDbSun
  3
SCENEOE
 90
1153
 91
0
280
0
281
0
  0
CLASS
  1
VISUALSTYLE
  2
AcDbVisualStyle
  3
ObjectDBX Classes
 90
4095
 91
0
280
0
281
0
  0
CLASS
  1
MATERIAL
  2
AcDbMaterial
  3
ObjectDBX Classes
 90
1153
 91
0
280
0
281
0
  0
CLASS
  1
SCALE
  2
AcDbScale
  3
ObjectDBX Classes
 90
1153
 91
0
280
0
281
0
  0
CLASS
  1
TABLESTYLE
  2
AcDbTableStyle
  3
ObjectDBX Classes
 90
4095
 91
0
280
0
281
0
  0
CLASS
  1
MLEADERSTYLE
  2
AcDbMLeaderStyle
  3
ACDB_MLEADERSTYLE_CLASS
 90
4095
 91
0
280
0
281
0
  0
CLASS
  1
DICTIONARYVAR
  2
AcDbDictionaryVar
  3
ObjectDBX Classes
 90
0
 91
0
280
0
281
0
  0
CLASS
  1
CELLSTYLEMAP
  2
AcDbCellStyleMap
  3
ObjectDBX Classes
 90
1152
 91
0
280
0
281
0
  0
CLASS
  1
MENTALRAYRENDERSETTINGS
  2
AcDbMentalRayRenderSettings
  3
SCENEOE
 90
1024
 91
0
280
0
281
0
  0
CLASS
  1
ACDBDETAILVIEWSTYLE
  2
AcDbDetailViewStyle
  3
ObjectDBX Classes
 90
1025
 91
0
280
0
281
0
  0
CLASS
  1
ACDBSECTIONVIEWSTYLE
  2
AcDbSectionViewStyle
  3
ObjectDBX Classes
 90
1025
 91
0
280
0
281
0
  0
CLASS
  1
RASTERVARIABLES
  2
AcDbRasterVariables
  3
ISM
 90
0
 91
0
280
0
281
0
  0
CLASS
  1
ACDBPLACEHOLDER
  2
AcDbPlaceHolder
  3
ObjectDBX Classes
 90
0
 91
0
280
0
281
0
  0
CLASS
  1
LAYOUT
  2
AcDbLayout
  3
ObjectDBX Classes
 90
0
 91
0
280
0
281
0
  0
ENDSEC
  0
SECTION
  2
TABLES
  0
TABLE
  2
VPORT
  5
8
330
0
100
AcDbSymbolTable
 70
1
  0
VPORT
  5
23
330
8
100
AcDbSymbolTableRecord
100
AcDbViewportTableRecord
  2
*Active
 70
0
 10
0.0
 20
0.0
 11
1.0
 21
1.0
 12
0.0
 22
0.0
 13
0.0
 23
0.0
 14
0.5
 24
0.5
 15
0.5
 25
0.5
 16
0.0
 26
0.0
 36
1.0
 17
0.0
 27
0.0
 37
0.0
 40
1000.0
 41
1.34
 42
50.0
 43
0.0
 44
0.0
 50
0.0
 51
0.0
 71
0
 72
1000
 73
1
 74
3
 75
0
 76
0
 77
0
 78
0
281
0
 65
0
146
0.0
  0
ENDTAB
  0
TABLE
  2
LTYPE
  5
2
330
0
100
AcDbSymbolTable
 70
21
  0
LTYPE
  5
24
330
2
100
AcDbSymbolTableRecord
100
AcDbLinetypeTableRecord
  2
ByBlock
 70
0
  3

 72
65
 73
0
 40
0.0
  0
LTYPE
  5
25
330
2
100
AcDbSymbolTableRecord
100
AcDbLinetypeTableRecord
  2
ByLayer
 70
0
  3

 72
65
 73
0
 40
0.0
  0
LTYPE
  5
26
330
2
100
AcDbSymbolTableRecord
100
AcDbLinetypeTableRecord
  2
Continuous
 70
0
  3

 72
65
 73
0
 40
0.0
  0
LTYPE
  5
2F
330
2
100
AcDbSymbolTableRecord
100
AcDbLinetypeTableRecord
  2
CENTER
 70
0
  3
Center ____ _ ____ _ ____ _ ____ _ ____ _ ____
 72
65
 73
4
 40
2.0
 49
1.25
 74
0
 49
-0.25
 74
0
 49
0.25
 74
0
 49
-0.25
 74
0
  0
LTYPE
  5
30
330
2
100
AcDbSymbolTableRecord
100
AcDbLinetypeTableRecord
  2
CENTERX2
 70
0
  3
Center (2x) ________  __  ________  __  ________
 72
65
 73
4
 40
3.5
 49
2.5
 74
0
 49
-0.25
 74
0
 49
0.5
 74
0
 49
-0.25
 74
0
  0
LTYPE
  5
31
330
2
100
AcDbSymbolTableRecord
100
AcDbLinetypeTableRecord
  2
CENTER2
 70
0
  3
Center (.5x) ____ _ ____ _ ____ _ ____ _ ____
 72
65
 73
4
 40
1.0
 49
0.625
 74
0
 49
-0.125
 74
0
 49
0.125
 74
0
 49
-0.125
 74
0
  0
LTYPE
  5
32
330
2
100
AcDbSymbolTableRecord
100
AcDbLinetypeTableRecord
  2
DASHED
 70
0
  3
Dashed __ __ __ __ __ __ __ __ __ __ __ __ __ _
 72
65
 73
2
 40
0.6
 49
0.5
 74
0
 49
-0.1
 74
0
  0
LTYPE
  5
33
330
2
100
AcDbSymbolTableRecord
100
AcDbLinetypeTableRecord
  2
DASHEDX2
 70
0
  3
Dashed (2x) ____  ____  ____  ____  ____  ____
 72
65
 73
2
 40
1.2
 49
1.0
 74
0
 49
-0.2
 74
0
  0
LTYPE
  5
34
330
2
100
AcDbSymbolTableRecord
100
AcDbLinetypeTableRecord
  2
DASHED2
 70
0
  3
Dashed (.5x) _ _ _ _ _ _ _ _ _ _ _ _ _ _
 72
65
 73
2
 40
0.3
 49
0.25
 74
0
 49
-0.05
 74
0
  0
LTYPE
  5
35
330
2
100
AcDbSymbolTableRecord
100
AcDbLinetypeTableRecord
  2
PHANTOM
 70
0
  3
Phantom ______  __  __  ______  __  __  ______
 72
65
 73
6
 40
2.5
 49
1.25
 74
0
 49
-0.25
 74
0
 49
0.25
 74
0
 49
-0.25
 74
0
 49
0.25
 74
0
 49
-0.25
 74
0
  0
LTYPE
  5
36
330
2
100
AcDbSymbolTableRecord
100
AcDbLinetypeTableRecord
  2
PHANTOMX2
 70
0
  3
Phantom (2x)____________    ____    ____    ____________
 72
65
 73
6
 40
4.25
 49
2.5
 74
0
 49
-0.25
 74
0
 49
0.5
 74
0
 49
-0.25
 74
0
 49
0.5
 74
0
 49
-0.25
 74
0
  0
LTYPE
  5
37
330
2
100
AcDbSymbolTableRecord
100
AcDbLinetypeTableRecord
  2
PHANTOM2
 70
0
  3
Phantom (.5x) ___ _ _ ___ _ _ ___ _ _ ___ _ _ ___
 72
65
 73
6
 40
1.25
 49
0.625
 74
0
 49
-0.125
 74
0
 49
0.125
 74
0
 49
-0.125
 74
0
 49
0.125
 74
0
 49
-0.125
 74
0
  0
LTYPE
  5
38
330
2
100
AcDbSymbolTableRecord
100
AcDbLinetypeTableRecord
  2
DASHDOT
 70
0
  3
Dash dot __ . __ . __ . __ . __ . __ . __ . __
 72
65
 73
4
 40
1.4
 49
1.0
 74
0
 49
-0.2
 74
0
 49
0.0
 74
0
 49
-0.2
 74
0
  0
LTYPE
  5
39
330
2
100
AcDbSymbolTableRecord
100
AcDbLinetypeTableRecord
  2
DASHDOTX2
 70
0
  3
Dash dot (2x) ____  .  ____  .  ____  .  ____
 72
65
 73
4
 40
2.4
 49
2.0
 74
0
 49
-0.2
 74
0
 49
0.0
 74
0
 49
-0.2
 74
0
  0
LTYPE
  5
3A
330
2
100
AcDbSymbolTableRecord
100
AcDbLinetypeTableRecord
  2
DASHDOT2
 70
0
  3
Dash dot (.5x) _ . _ . _ . _ . _ . _ . _ . _
 72
65
 73
4
 40
0.7
 49
0.5
 74
0
 49
-0.1
 74
0
 49
0.0
 74
0
 49
-0.1
 74
0
  0
LTYPE
  5
3B
330
2
100
AcDbSymbolTableRecord
100
AcDbLinetypeTableRecord
  2
DOT
 70
0
  3
Dot .  .  .  .  .  .  .  .  .  .  .  .  .  .  .  .
 72
65
 73
2
 40
0.2
 49
0.0
 74
0
 49
-0.2
 74
0
  0
LTYPE
  5
3C
330
2
100
AcDbSymbolTableRecord
100
AcDbLinetypeTableRecord
  2
DOTX2
 70
0
  3
Dot (2x) .    .    .    .    .    .    .    . 
 72
65
 73
2
 40
0.4
 49
0.0
 74
0
 49
-0.4
 74
0
  0
LTYPE
  5
3D
330
2
100
AcDbSymbolTableRecord
100
AcDbLinetypeTableRecord
  2
DOT2
 70
0
  3
Dot (.5) . . . . . . . . . . . . . . . . . . . 
 72
65
 73
2
 40
0.1
 49
0.0
 74
0
 49
-0.1
 74
0
  0
LTYPE
  5
3E
330
2
100
AcDbSymbolTableRecord
100
AcDbLinetypeTableRecord
  2
DIVIDE
 70
0
  3
Divide __ . . __ . . __ . . __ . . __ . . __
 72
65
 73
6
 40
1.6
 49
1.0
 74
0
 49
-0.2
 74
0
 49
0.0
 74
0
 49
-0.2
 74
0
 49
0.0
 74
0
 49
-0.2
 74
0
  0
LTYPE
  5
3F
330
2
100
AcDbSymbolTableRecord
100
AcDbLinetypeTableRecord
  2
DIVIDEX2
 70
0
  3
Divide (2x) ____  . .  ____  . .  ____  . .  ____
 72
65
 73
6
 40
2.6
 49
2.0
 74
0
 49
-0.2
 74
0
 49
0.0
 74
0
 49
-0.2
 74
0
 49
0.0
 74
0
 49
-0.2
 74
0
  0
LTYPE
  5
40
330
2
100
AcDbSymbolTableRecord
100
AcDbLinetypeTableRecord
  2
DIVIDE2
 70
0
  3
Divide(.5x) _ . _ . _ . _ . _ . _ . _ . _
 72
65
 73
6
 40
0.8
 49
0.5
 74
0
 49
-0.1
 74
0
 49
0.0
 74
0
 49
-0.1
 74
0
 49
0.0
 74
0
 49
-0.1
 74
0
  0
ENDTAB
  0
TABLE
  2
LAYER
  5
1
330
0
100
AcDbSymbolTable
 70
6
  0
LAYER
  5
27
330
1
100
AcDbSymbolTableRecord
100
AcDbLayerTableRecord
  2
0
 70
0
 62
7
  6
Continuous
370
-3
390
13
347
21
  0
LAYER
  5
28
330
1
100
AcDbSymbolTableRecord
100
AcDbLayerTableRecord
  2
Defpoints
 70
0
 62
7
  6
Continuous
290
0
370
-3
390
13
347
21
  0
LAYER
  5
8A
330
1
100
AcDbSymbolTableRecord
100
AcDbLayerTableRecord
  2
GEOMETRY
 70
0
 62
7
  6
Continuous
370
-3
390
13
347
21
  0
LAYER
  5
8B
330
1
100
AcDbSymbolTableRecord
100
AcDbLayerTableRecord
  2
DIMENSIONS
 70
0
 62
1
  6
Continuous
370
-3
390
13
347
21
  0
LAYER
  5
8C
330
1
100
AcDbSymbolTableRecord
100
AcDbLayerTableRecord
  2
TEXT
 70
0
 62
7
  6
Continuous
370
-3
390
13
347
21
  0
LAYER
  5
8D
330
1
100
AcDbSymbolTableRecord
100
AcDbLayerTableRecord
  2
HATCH
 70
0
 62
8
  6
Continuous
370
-3
390
13
347
21
  0
ENDTAB
  0
TABLE
  2
STYLE
  5
5
330
0
100
AcDbSymbolTable
 70
26
  0
STYLE
  5
29
330
5
100
AcDbSymbolTableRecord
100
AcDbTextStyleTableRecord
  2
Standard
 70
0
 40
0.0
 41
1.0
 50
0.0
 71
0
 42
2.5
  3
txt
  4

  0
STYLE
  5
41
330
5
100
AcDbSymbolTableRecord
100
AcDbTextStyleTableRecord
  2
OpenSans-Light
 70
0
 40
0.0
 41
1.0
 50
0.0
 71
0
 42
2.5
  3
OpenSans-Light.ttf
  4

  0
STYLE
  5
42
330
5
100
AcDbSymbolTableRecord
100
AcDbTextStyleTableRecord
  2
OpenSans-Light-Italic
 70
0
 40
0.0
 41
1.0
 50
0.0
 71
0
 42
2.5
  3
OpenSans-LightItalic.ttf
  4

  0
STYLE
  5
43
330
5
100
AcDbSymbolTableRecord
100
AcDbTextStyleTableRecord
  2
OpenSans
 70
0
 40
0.0
 41
1.0
 50
0.0
 71
0
 42
2.5
  3
OpenSans-Regular.ttf
  4

  0
STYLE
  5
44
330
5
100
AcDbSymbolTableRecord
100
AcDbTextStyleTableRecord
  2
OpenSans-Italic
 70
0
 40
0.0
 41
1.0
 50
0.0
 71
0
 42
2.5
  3
OpenSans-Italic.ttf
  4

  0
STYLE
  5
45
330
5
100
AcDbSymbolTableRecord
100
AcDbTextStyleTableRecord
  2
OpenSans-SemiBold
 70
0
 40
0.0
 41
1.0
 50
0.0
 71
0
 42
2.5
  3
OpenSans-SemiBold.ttf
  4

  0
STYLE
  5
46
330
5
100
AcDbSymbolTableRecord
100
AcDbTextStyleTableRecord
  2
OpenSans-SemiBoldItalic
 70
0
 40
0.0
 41
1.0
 50
0.0
 71
0
 42
2.5
  3
OpenSans-SemiBoldItalic.ttf
  4

  0
STYLE
  5
47
330
5
100
AcDbSymbolTableRecord
100
AcDbTextStyleTableRecord
  2
OpenSans-Bold
 70
0
 40
0.0
 41
1.0
 50
0.0
 71
0
 42
2.5
  3
OpenSans-Bold.ttf
  4

  0
STYLE
  5
48
330
5
100
AcDbSymbolTableRecord
100
AcDbTextStyleTableRecord
  2
OpenSans-BoldItalic
 70
0
 40
0.0
 41
1.0
 50
0.0
 71
0
 42
2.5
  3
OpenSans-BoldItalic.ttf
  4

  0
STYLE
  5
49
330
5
100
AcDbSymbolTableRecord
100
AcDbTextStyleTableRecord
  2
OpenSans-ExtraBold
 70
0
 40
0.0
 41
1.0
 50
0.0
 71
0
 42
2.5
  3
OpenSans-ExtraBold.ttf
  4

  0
STYLE
  5
4A
330
5
100
AcDbSymbolTableRecord
100
AcDbTextStyleTableRecord
  2
OpenSans-ExtraBoldItalic
 70
0
 40
0.0
 41
1.0
 50
0.0
 71
0
 42
2.5
  3
OpenSans-ExtraBoldItalic.ttf
  4

  0
STYLE
  5
4B
330
5
100
AcDbSymbolTableRecord
100
AcDbTextStyleTableRecord
  2
OpenSansCondensed-Bold
 70
0
 40
0.0
 41
1.0
 50
0.0
 71
0
 42
2.5
  3
OpenSansCondensed-Bold.ttf
  4

  0
STYLE
  5
4C
330
5
100
AcDbSymbolTableRecord
100
AcDbTextStyleTableRecord
  2
OpenSansCondensed-Light
 70
0
 40
0.0
 41
1.0
 50
0.0
 71
0
 42
2.5
  3
OpenSansCondensed-Light.ttf
  4

  0
STYLE
  5
4D
330
5
100
AcDbSymbolTableRecord
100
AcDbTextStyleTableRecord
  2
OpenSansCondensed-Italic
 70
0
 40
0.0
 41
1.0
 50
0.0
 71
0
 42
2.5
  3
OpenSansCondensed-LightItalic.ttf
  4

  0
STYLE
  5
4E
330
5
100
AcDbSymbolTableRecord
100
AcDbTextStyleTableRecord
  2
LiberationSans
 70
0
 40
0.0
 41
1.0
 50
0.0
 71
0
 42
2.5
  3
LiberationSans-Regular.ttf
  4

  0
STYLE
  5
4F
330
5
100
AcDbSymbolTableRecord
100
AcDbTextStyleTableRecord
  2
LiberationSans-Bold
 70
0
 40
0.0
 41
1.0
 50
0.0
 71
0
 42
2.5
  3
LiberationSans-Bold.ttf
  4

  0
STYLE
  5
50
330
5
100
AcDbSymbolTableRecord
100
AcDbTextStyleTableRecord
  2
LiberationSans-BoldItalic
 70
0
 40
0.0
 41
1.0
 50
0.0
 71
0
 42
2.5
  3
LiberationSans-BoldItalic.ttf
  4

  0
STYLE
  5
51
330
5
100
AcDbSymbolTableRecord
100
AcDbTextStyleTableRecord
  2
LiberationSans-Italic
 70
0
 40
0.0
 41
1.0
 50
0.0
 71
0
 42
2.5
  3
LiberationSans-Italic.ttf
  4

  0
STYLE
  5
52
330
5
100
AcDbSymbolTableRecord
100
AcDbTextStyleTableRecord
  2
LiberationSerif
 70
0
 40
0.0
 41
1.0
 50
0.0
 71
0
 42
2.5
  3
LiberationSerif-Regular.ttf
  4

  0
STYLE
  5
53
330
5
100
AcDbSymbolTableRecord
100
AcDbTextStyleTableRecord
  2
LiberationSerif-Bold
 70
0
 40
0.0
 41
1.0
 50
0.0
 71
0
 42
2.5
  3
LiberationSerif-Bold.ttf
  4

  0
STYLE
  5
54
330
5
100
AcDbSymbolTableRecord
100
AcDbTextStyleTableRecord
  2
LiberationSerif-BoldItalic
 70
0
 40
0.0
 41
1.0
 50
0.0
 71
0
 42
2.5
  3
LiberationSerif-BoldItalic.ttf
  4

  0
STYLE
  5
55
330
5
100
AcDbSymbolTableRecord
100
AcDbTextStyleTableRecord
  2
LiberationSerif-Italic
 70
0
 40
0.0
 41
1.0
 50
0.0
 71
0
 42
2.5
  3
LiberationSerif-Italic.ttf
  4

  0
STYLE
  5
56
330
5
100
AcDbSymbolTableRecord
100
AcDbTextStyleTableRecord
  2
LiberationMono
 70
0
 40
0.0
 41
1.0
 50
0.0
 71
0
 42
2.5
  3
LiberationMono-Regular.ttf
  4

  0
STYLE
  5
57
330
5
100
AcDbSymbolTableRecord
100
AcDbTextStyleTableRecord
  2
LiberationMono-Bold
 70
0
 40
0.0
 41
1.0
 50
0.0
 71
0
 42
2.5
  3
LiberationMono-Bold.ttf
  4

  0
STYLE
  5
58
330
5
100
AcDbSymbolTableRecord
100
AcDbTextStyleTableRecord
  2
LiberationMono-BoldItalic
 70
0
 40
0.0
 41
1.0
 50
0.0
 71
0
 42
2.5
  3
LiberationMono-BoldItalic.ttf
  4

  0
STYLE
  5
59
330
5
100
AcDbSymbolTableRecord
100
AcDbTextStyleTableRecord
  2
LiberationMono-Italic
 70
0
 40
0.0
 41
1.0
 50
0.0
 71
0
 42
2.5
  3
LiberationMono-Italic.ttf
  4

  0
ENDTAB
  0
TABLE
  2
VIEW
  5
7
330
0
100
AcDbSymbolTable
 70
0
  0
ENDTAB
  0
TABLE
  2
UCS
  5
6
330
0
100
AcDbSymbolTable
 70
0
  0
ENDTAB
  0
TABLE
  2
APPID
  5
3
330
0
100
AcDbSymbolTable
 70
3
  0
APPID
  5
2A
330
3
100
AcDbSymbolTableRecord
100
AcDbRegAppTableRecord
  2
ACAD
 70
0
  0
APPID
  5
22B
330
3
100
AcDbSymbolTableRecord
100
AcDbRegAppTableRecord
  2
HATCHBACKGROUNDCOLOR
 70
0
  0
APPID
  5
22C
330
3
100
AcDbSymbolTableRecord
100
AcDbRegAppTableRecord
  2
EZDXF
 70
0
  0
ENDTAB
  0
TABLE
  2
DIMSTYLE
  5
4
330
0
100
AcDbSymbolTable
 70
12
100
AcDbDimStyleTable
  0
DIMSTYLE
105
2B
330
4
100
AcDbSymbolTableRecord
100
AcDbDimStyleTableRecord
  2
Standard
 70
0
 40
1.0
 41
2.5
 42
0.625
 43
3.75
 44
1.25
 45
0.0
 46
0.0
 47
0.0
 48
0.0
 49
2.5
140
2.5
141
2.5
142
0.0
143
0.03937007874
144
1.0
145
0.0
146
1.0
147
0.625
148
0.0
 69
0
 70
0
 71
0
 72
0
 73
0
 74
0
 75
0
 76
0
 77
1
 78
8
 79
3
170
0
171
3
172
1
173
0
174
0
175
0
176
0
177
0
178
0
179
2
271
2
272
2
273
2
274
3
275
0
276
0
277
2
278
44
279
0
280
0
281
0
282
0
283
0
284
8
285
0
286
0
288
0
289
3
290
0
371
-2
372
-2
  0
DIMSTYLE
105
73
330
4
100
AcDbSymbolTableRecord
100
AcDbDimStyleTableRecord
  2
EZDXF
 70
0
 40
1.0
 41
0.175
 42
0.125
 43
3.75
 44
0.375
 45
0.0
 46
0.0
 47
0.0
 48
0.0
 49
2.5
140
0.25
141
2.5
142
0.0
143
0.03937007874
144
100.0
145
0.0
146
0.5
147
0.1
148
0.0
 69
0
 70
0
 71
0
 72
0
 73
0
 74
0
 75
0
 76
0
 77
1
 78
12
 79
3
170
0
171
3
172
1
173
0
174
0
175
0
176
0
177
0
178
0
179
2
271
2
272
2
273
2
274
3
275
0
276
0
277
2
278
46
279
2
280
0
281
0
282
0
283
0
284
8
285
0
286
0
288
1
289
3
290
0
340
4C
342
74
371
-2
372
-2
  0
DIMSTYLE
105
7C
330
4
100
AcDbSymbolTableRecord
100
AcDbDimStyleTableRecord
  2
EZ_M_100_H25_CM
 70
0
 40
1.0
 41
0.25
 42
0.125
 43
3.75
 44
0.375
 45
0.0
 46
0.0
 47
0.0
 48
0.0
 49
2.5
140
0.25
141
2.5
142
0.125
143
0.03937007874
144
100.0
145
0.0
146
0.5
147
0.1
148
0.0
 69
0
 70
0
 71
0
 72
0
 73
0
 74
0
 75
0
 76
0
 77
1
 78
12
 79
3
170
0
171
3
172
1
173
0
174
0
175
0
176
0
177
0
178
0
179
2
271
2
272
2
273
2
274
3
275
0
276
0
277
2
278
46
279
2
280
0
281
0
282
0
283
0
284
8
285
0
286
0
288
1
289
3
290
0
340
4C
371
-2
372
-2
  0
DIMSTYLE
105
7D
330
4
100
AcDbSymbolTableRecord
100
AcDbDimStyleTableRecord
  2
EZ_M_50_H25_CM
 70
0
 40
1.0
 41
0.125
 42
0.0625
 43
3.75
 44
0.1875
 45
0.0
 46
0.0
 47
0.0
 48
0.0
 49
2.5
140
0.125
141
2.5
142
0.0625
143
0.03937007874
144
100.0
145
0.0
146
0.5
147
0.05
148
0.0
 69
0
 70
0
 71
0
 72
0
 73
0
 74
0
 75
0
 76
0
 77
1
 78
12
 79
3
170
0
171
3
172
1
173
0
174
0
175
0
176
0
177
0
178
0
179
2
271
2
272
2
273
2
274
3
275
0
276
0
277
2
278
46
279
2
280
0
281
0
282
0
283
0
284
8
285
0
286
0
288
1
289
3
290
0
340
4C
371
-2
372
-2
  0
DIMSTYLE
105
7E
330
4
100
AcDbSymbolTableRecord
100
AcDbDimStyleTableRecord
  2
EZ_M_25_H25_CM
 70
0
 40
1.0
 41
0.0625
 42
0.03125
 43
3.75
 44
0.09375
 45
0.0
 46
0.0
 47
0.0
 48
0.0
 49
2.5
140
0.0625
141
2.5
142
0.03125
143
0.03937007874
144
100.0
145
0.0
146
0.5
147
0.025
148
0.0
 69
0
 70
0
 71
0
 72
0
 73
0
 74
0
 75
0
 76
0
 77
1
 78
12
 79
3
170
0
171
3
172
1
173
0
174
0
175
0
176
0
177
0
178
0
179
2
271
2
272
2
273
2
274
3
275
0
276
0
277
2
278
46
279
2
280
0
281
0
282
0
283
0
284
8
285
0
286
0
288
1
289
3
290
0
340
4C
371
-2
372
-2
  0
DIMSTYLE
105
7F
330
4
100
AcDbSymbolTableRecord
100
AcDbDimStyleTableRecord
  2
EZ_M_20_H25_CM
 70
0
 40
1.0
 41
0.05
 42
0.025
 43
3.75
 44
0.07500000000000001
 45
0.0
 46
0.0
 47
0.0
 48
0.0
 49
2.5
140
0.05
141
2.5
142
0.025
143
0.03937007874
144
100.0
145
0.0
146
0.5
147
0.020000000000000004
148
0.0
 69
0
 70
0
 71
0
 72
0
 73
0
 74
0
 75
0
 76
0
 77
1
 78
12
 79
3
170
0
171
3
172
1
173
0
174
0
175
0
176
0
177
0
178
0
179
2
271
2
272
2
273
2
274
3
275
0
276
0
277
2
278
46
279
2
280
0
281
0
282
0
283
0
284
8
285
0
286
0
288
1
289
3
290
0
340
4C
371
-2
372
-2
  0
DIMSTYLE
105
80
330
4
100
AcDbSymbolTableRecord
100
AcDbDimStyleTableRecord
  2
EZ_M_10_H25_CM
 70
0
 40
1.0
 41
0.025
 42
0.0125
 43
3.75
 44
0.037500000000000006
 45
0.0
 46
0.0
 47
0.0
 48
0.0
 49
2.5
140
0.025
141
2.5
142
0.0125
143
0.03937007874
144
100.0
145
0.0
146
0.5
147
0.010000000000000002
148
0.0
 69
0
 70
0
 71
0
 72
0
 73
0
 74
0
 75
0
 76
0
 77
1
 78
12
 79
3
170
0
171
3
172
1
173
0
174
0
175
0
176
0
177
0
178
0
179
2
271
2
272
2
273
2
274
3
275
0
276
0
277
2
278
46
279
2
280
0
281
0
282
0
283
0
284
8
285
0
286
0
288
1
289
3
290
0
340
4C
371
-2
372
-2
  0
DIMSTYLE
105
81
330
4
100
AcDbSymbolTableRecord
100
AcDbDimStyleTableRecord
  2
EZ_M_5_H25_CM
 70
0
 40
1.0
 41
0.0125
 42
0.00625
 43
3.75
 44
0.018750000000000003
 45
0.0
 46
0.0
 47
0.0
 48
0.0
 49
2.5
140
0.0125
141
2.5
142
0.00625
143
0.03937007874
144
100.0
145
0.0
146
0.5
147
0.005000000000000001
148
0.0
 69
0
 70
0
 71
0
 72
0
 73
0
 74
0
 75
0
 76
0
 77
1
 78
12
 79
3
170
0
171
3
172
1
173
0
174
0
175
0
176
0
177
0
178
0
179
2
271
2
272
2
273
2
274
3
275
0
276
0
277
2
278
46
279
2
280
0
281
0
282
0
283
0
284
8
285
0
286
0
288
1
289
3
290
0
340
4C
371
-2
372
-2
  0
DIMSTYLE
105
82
330
4
100
AcDbSymbolTableRecord
100
AcDbDimStyleTableRecord
  2
EZ_M_1_H25_CM
 70
0
 40
1.0
 41
0.0025
 42
0.00125
 43
3.75
 44
0.00375
 45
0.0
 46
0.0
 47
0.0
 48
0.0
 49
2.5
140
0.0025
141
2.5
142
0.00125
143
0.03937007874
144
100.0
145
0.0
146
0.5
147
0.001
148
0.0
 69
0
 70
0
 71
0
 72
0
 73
0
 74
0
 75
0
 76
0
 77
1
 78
12
 79
3
170
0
171
3
172
1
173
0
174
0
175
0
176
0
177
0
178
0
179
2
271
2
272
2
273
2
274
3
275
0
276
0
277
2
278
46
279
2
280
0
281
0
282
0
283
0
284
8
285
0
286
0
288
1
289
3
290
0
340
4C
371
-2
372
-2
  0
DIMSTYLE
105
83
330
4
100
AcDbSymbolTableRecord
100
AcDbDimStyleTableRecord
  2
EZ_RADIUS
 70
0
 40
1.0
 41
0.25
 42
0.125
 43
3.75
 44
0.375
 45
0.0
 46
0.0
 47
0.0
 48
0.0
 49
2.5
140
0.25
141
0.0
142
0.0
143
0.03937007874
144
100.0
145
0.0
146
0.5
147
0.1
148
0.0
 69
0
 70
0
 71
0
 72
0
 73
0
 74
0
 75
0
 76
0
 77
1
 78
12
 79
3
170
0
171
3
172
0
173
0
174
0
175
0
176
0
177
0
178
0
179
2
271
2
272
2
273
2
274
3
275
0
276
0
277
2
278
46
279
1
280
0
281
0
282
0
283
0
284
8
285
0
286
0
288
1
289
3
290
0
340
4C
342
84
371
-2
372
-2
  0
DIMSTYLE
105
88
330
4
100
AcDbSymbolTableRecord
100
AcDbDimStyleTableRecord
  2
EZ_RADIUS_INSIDE
 70
0
 40
1.0
 41
0.25
 42
0.125
 43
3.75
 44
0.375
 45
0.0
 46
0.0
 47
0.0
 48
0.0
 49
2.5
140
0.25
141
0.0
142
0.0
143
0.03937007874
144
100.0
145
0.0
146
0.5
147
0.1
148
0.0
 69
0
 70
0
 71
0
 72
0
 73
0
 74
0
 75
0
 76
0
 77
0
 78
12
 79
3
170
0
171
3
172
0
173
0
174
1
175
0
176
0
177
0
178
0
179
2
271
2
272
2
273
2
274
3
275
0
276
0
277
2
278
46
279
0
280
0
281
0
282
0
283
0
284
8
285
0
286
0
288
1
289
0
290
0
340
4C
342
84
371
-2
372
-2
  0
DIMSTYLE
105
89
330
4
100
AcDbSymbolTableRecord
100
AcDbDimStyleTableRecord
  2
EZ_CURVED
 70
0
 40
1.0
 41
0.25
 42
0.125
 43
3.75
 44
0.375
 45
0.0
 46
0.0
 47
0.0
 48
0.0
 49
2.5
140
0.25
141
2.5
142
0.0
143
0.03937007874
144
100.0
145
0.0
146
0.5
147
0.1
148
0.0
 69
0
 70
0
 71
0
 72
0
 73
0
 74
0
 75
0
 76
0
 77
1
 78
12
 79
2
 90
2
170
0
171
3
172
1
173
0
174
0
175
0
176
0
177
0
178
0
179
2
271
2
272
2
273
2
274
3
275
0
276
0
277
2
278
46
279
2
280
0
281
0
282
0
283
0
284
8
285
0
286
0
288
1
289
3
290
0
340
4C
371
-2
372
-2
  0
ENDTAB
  0
TABLE
  2
BLOCK_RECORD
  5
9
330
0
100
AcDbSymbolTable
 70
5
  0
BLOCK_RECORD
  5
17
330
9
100
AcDbSymbolTableRecord
100
AcDbBlockTableRecord
  2
*Model_Space
340
1A
 70
0
280
1
281
0
  0
BLOCK_RECORD
  5
1B
330
9
100
AcDbSymbolTableRecord
100
AcDbBlockTableRecord
  2
*Paper_Space
340
1E
 70
0
280
1
281
0
  0
BLOCK_RECORD
  5
74
330
9
100
AcDbSymbolTableRecord
100
AcDbBlockTableRecord
  2
_ARCHTICK
340
0
 70
0
280
1
281
0
  0
BLOCK_RECORD
  5
78
330
9
100
AcDbSymbolTableRecord
100
AcDbBlockTableRecord
  2
_CLOSEDFILLED
340
0
 70
0
280
1
281
0
  0
BLOCK_RECORD
  5
84
330
9
100
AcDbSymbolTableRecord
100
AcDbBlockTableRecord
  2
_CLOSEDBLANK
340
0
 70
0
280
1
281
0
  0
ENDTAB
  0
ENDSEC
  0
SECTION
  2
BLOCKS
  0
BLOCK
  5
18
330
17
100
AcDbEntity
  8
0
100
AcDbBlockBegin
  2
*Model_Space
 70
0
 10
0.0
 20
0.0
 30
0.0
  3
*Model_Space
  1

  0
ENDBLK
  5
19
330
17
100
AcDbEntity
  8
0
100
AcDbBlockEnd
  0
BLOCK
  5
1C
330
1B
100
AcDbEntity
  8
0
100
AcDbBlockBegin
  2
*Paper_Space
 70
0
 10
0.0
 20
0.0
 30
0.0
  3
*Paper_Space
  1

  0
ENDBLK
  5
1D
330
1B
100
AcDbEntity
  8
0
100
AcDbBlockEnd
  0
BLOCK
  5
75
330
74
100
AcDbEntity
  8
0
100
AcDbBlockBegin
  2
_ARCHTICK
 70
0
 10
0.0
 20
0.0
 30
0.0
  3
_ARCHTICK
  1

  0
LWPOLYLINE
  5
77
330
74
100
AcDbEntity
  8
0
  6
BYBLOCK
 62
0
100
AcDbPolyline
 90
2
 70
0
 43
0.15
 10
-0.5
 20
-0.5
 10
0.5
 20
0.5
  0
ENDBLK
  5
76
330
74
100
AcDbEntity
  8
0
100
AcDbBlockEnd
  0
BLOCK
  5
79
330
78
100
AcDbEntity
  8
0
100
AcDbBlockBegin
  2
_CLOSEDFILLED
 70
0
 10
0.0
 20
0.0
 30
0.0
  3
_CLOSEDFILLED
  1

  0
SOLID
  5
7B
330
78
100
AcDbEntity
  8
0
  6
BYBLOCK
 62
0
100
AcDbTrace
 10
-1.0
 20
0.16439898372402537
 30
0.0
 11
0.0
 21
0.0
 31
0.0
 12
-1.0
 22
-0.16439898372402537
 32
0.0
 13
-1.0
 23
-0.16439898372402537
 33
0.0
  0
ENDBLK
  5
7A
330
78
100
AcDbEntity
  8
0
100
AcDbBlockEnd
  0
BLOCK
  5
85
330
84
100
AcDbEntity
  8
0
100
AcDbBlockBegin
  2
_CLOSEDBLANK
 70
0
 10
0.0
 20
0.0
 30
0.0
  3
_CLOSEDBLANK
  1

  0
LWPOLYLINE
  5
87
330
84
100
AcDbEntity
  8
0
  6
BYBLOCK
 62
0
100
AcDbPolyline
 90
3
 70
1
 10
-1.0
 20
0.16439898372402537
 10
0.0
 20
0.0
 10
-1.0
 20
-0.16439898372402537
  0
ENDBLK
  5
86
330
84
100
AcDbEntity
  8
0
100
AcDbBlockEnd
  0
ENDSEC
  0
SECTION
  2
ENTITIES
  0
LWPOLYLINE
  5
8E
330
17
100
AcDbEntity
  8
GEOMETRY
100
AcDbPolyline
 90
5
 70
0
 10
0.31496062992125984
 20
11.377952755905513
 10
16.22047244094488
 20
11.377952755905513
 10
16.22047244094488
 20
0.31496062992126106
 10
0.31496062992125984
 20
0.31496062992126106
 10
0.31496062992125984
 20
11.377952755905513
  0
TEXT
  5
8F
330
17
100
AcDbEntity
  8
TEXT
100
AcDbText
 10
0.7086614173228346
 20
11.023622047244094
 30
0.0
 40
0.09070866141732283
  1
FRONT — FROM THE FOOT
 11
0.7086614173228346
 21
11.023622047244094
 31
0.0
100
AcDbText
  0
LINE
  5
90
330
17
100
AcDbEntity
  8
GEOMETRY
100
AcDbLine
 10
0.7086614173228346
 20
10.964566929133857
 30
0.0
 11
5.039370078740157
 21
10.964566929133857
 31
0.0
  0
TEXT
  5
91
330
17
100
AcDbEntity
  8
TEXT
100
AcDbText
 10
0.7086614173228346
 20
10.834645669291337
 30
0.0
 40
0.048188976377952754
  1
SCALE 1:12 · AS THE OWNER'S PHOTO
 11
0.7086614173228346
 21
10.834645669291337
 31
0.0
100
AcDbText
  0
POLYLINE
  5
92
330
17
100
AcDbEntity
  8
GEOMETRY
100
AcDb2dPolyline
 66
1
 10
0.0
 20
0.0
 30
0.0
 70
0
  0
VERTEX
  5
93
330
92
100
AcDbEntity
  8
GEOMETRY
100
AcDbVertex
100
AcDb2dVertex
 10
1.4337270341207349
 20
10.214796587926509
 30
0.0
 70
0
  0
VERTEX
  5
94
330
92
100
AcDbEntity
  8
GEOMETRY
100
AcDbVertex
100
AcDb2dVertex
 10
7.106299212598425
 20
10.214796587926509
 30
0.0
 70
0
  0
SEQEND
  5
95
330
92
100
AcDbEntity
  8
GEOMETRY
  0
SPLINE
  5
96
330
17
100
AcDbEntity
  8
GEOMETRY
100
AcDbSpline
 70
0
 71
3
 72
14
 73
10
 74
0
 40
0.0
 40
0.0
 40
0.0
 40
0.0
 40
1.0
 40
1.0
 40
1.0
 40
2.0
 40
2.0
 40
2.0
 40
3.0
 40
3.0
 40
3.0
 40
3.0
 10
7.106299212598425
 20
10.214796587926509
 30
0.0
 10
7.135092453266084
 20
10.214796587926509
 30
0.0
 10
7.16338453209828
 20
10.207215748251224
 30
0.0
 10
7.188320209973752
 20
10.192819127917396
 30
0.0
 10
7.213255887849225
 20
10.178422507583566
 30
0.0
 10
7.233967127006137
 20
10.157711268426654
 30
0.0
 10
7.248363747339966
 20
10.132775590551182
 30
0.0
 10
7.2627603676737955
 20
10.10783991267571
 30
0.0
 10
7.270341207349081
 20
10.079547833843513
 30
0.0
 10
7.270341207349081
 20
10.050754593175853
 30
0.0
  0
POLYLINE
  5
97
330
17
100
AcDbEntity
  8
GEOMETRY
100
AcDb2dPolyline
 66
1
 10
0.0
 20
0.0
 30
0.0
 70
0
  0
VERTEX
  5
98
330
97
100
AcDbEntity
  8
GEOMETRY
100
AcDbVertex
100
AcDb2dVertex
 10
7.270341207349081
 20
10.050754593175853
 30
0.0
 70
0
  0
VERTEX
  5
99
330
97
100
AcDbEntity
  8
GEOMETRY
100
AcDbVertex
100
AcDb2dVertex
 10
7.270341207349081
 20
8.956692913385828
 30
0.0
 70
0
  0
SEQEND
  5
9A
330
97
100
AcDbEntity
  8
GEOMETRY
  0
SPLINE
  5
9B
330
17
100
AcDbEntity
  8
GEOMETRY
100
AcDbSpline
 70
0
 71
3
 72
14
 73
10
 74
0
 40
0.0
 40
0.0
 40
0.0
 40
0.0
 40
1.0
 40
1.0
 40
1.0
 40
2.0
 40
2.0
 40
2.0
 40
3.0
 40
3.0
 40
3.0
 40
3.0
 10
7.270341207349081
 20
8.956692913385828
 30
0.0
 10
7.270341207349081
 20
8.92789967271817
 30
0.0
 10
7.2627603676737955
 20
8.899607593885971
 30
0.0
 10
7.248363747339966
 20
8.874671916010499
 30
0.0
 10
7.233967127006137
 20
8.849736238135026
 30
0.0
 10
7.2132558878492254
 20
8.829024998978115
 30
0.0
 10
7.188320209973754
 20
8.814628378644286
 30
0.0
 10
7.163384532098282
 20
8.800231758310456
 30
0.0
 10
7.135092453266084
 20
8.792650918635172
 30
0.0
 10
7.106299212598425
 20
8.792650918635172
 30
0.0
  0
POLYLINE
  5
9C
330
17
100
AcDbEntity
  8
GEOMETRY
100
AcDb2dPolyline
 66
1
 10
0.0
 20
0.0
 30
0.0
 70
0
  0
VERTEX
  5
9D
330
9C
100
AcDbEntity
  8
GEOMETRY
100
AcDbVertex
100
AcDb2dVertex
 10
7.106299212598425
 20
8.792650918635172
 30
0.0
 70
0
  0
VERTEX
  5
9E
330
9C
100
AcDbEntity
  8
GEOMETRY
100
AcDbVertex
100
AcDb2dVertex
 10
1.4337270341207349
 20
8.792650918635172
 30
0.0
 70
0
  0
SEQEND
  5
9F
330
9C
100
AcDbEntity
  8
GEOMETRY
  0
SPLINE
  5
A0
330
17
100
AcDbEntity
  8
GEOMETRY
100
AcDbSpline
 70
0
 71
3
 72
14
 73
10
 74
0
 40
0.0
 40
0.0
 40
0.0
 40
0.0
 40
1.0
 40
1.0
 40
1.0
 40
2.0
 40
2.0
 40
2.0
 40
3.0
 40
3.0
 40
3.0
 40
3.0
 10
1.4337270341207349
 20
8.792650918635172
 30
0.0
 10
1.4049337934530755
 20
8.792650918635172
 30
0.0
 10
1.376641714620879
 20
8.800231758310456
 30
0.0
 10
1.3517060367454068
 20
8.814628378644286
 30
0.0
 10
1.3267703588699349
 20
8.829024998978115
 30
0.0
 10
1.306059119713023
 20
8.849736238135026
 30
0.0
 10
1.2916624993791932
 20
8.874671916010499
 30
0.0
 10
1.2772658790453637
 20
8.899607593885971
 30
0.0
 10
1.2696850393700787
 20
8.92789967271817
 30
0.0
 10
1.2696850393700787
 20
8.956692913385828
 30
0.0
  0
POLYLINE
  5
A1
330
17
100
AcDbEntity
  8
GEOMETRY
100
AcDb2dPolyline
 66
1
 10
0.0
 20
0.0
 30
0.0
 70
0
  0
VERTEX
  5
A2
330
A1
100
AcDbEntity
  8
GEOMETRY
100
AcDbVertex
100
AcDb2dVertex
 10
1.2696850393700787
 20
8.956692913385828
 30
0.0
 70
0
  0
VERTEX
  5
A3
330
A1
100
AcDbEntity
  8
GEOMETRY
100
AcDbVertex
100
AcDb2dVertex
 10
1.2696850393700787
 20
10.050754593175853
 30
0.0
 70
0
  0
SEQEND
  5
A4
330
A1
100
AcDbEntity
  8
GEOMETRY
  0
SPLINE
  5
A5
330
17
100
AcDbEntity
  8
GEOMETRY
100
AcDbSpline
 70
0
 71
3
 72
14
 73
10
 74
0
 40
0.0
 40
0.0
 40
0.0
 40
0.0
 40
1.0
 40
1.0
 40
1.0
 40
2.0
 40
2.0
 40
2.0
 40
3.0
 40
3.0
 40
3.0
 40
3.0
 10
1.2696850393700787
 20
10.050754593175853
 30
0.0
 10
1.2696850393700787
 20
10.079547833843513
 30
0.0
 10
1.2772658790453633
 20
10.10783991267571
 30
0.0
 10
1.291662499379193
 20
10.132775590551182
 30
0.0
 10
1.3060591197130227
 20
10.157711268426654
 30
0.0
 10
1.3267703588699347
 20
10.178422507583566
 30
0.0
 10
1.3517060367454066
 20
10.192819127917396
 30
0.0
 10
1.3766417146208787
 20
10.207215748251224
 30
0.0
 10
1.4049337934530755
 20
10.214796587926509
 30
0.0
 10
1.4337270341207349
 20
10.214796587926509
 30
0.0
  0
LWPOLYLINE
  5
A6
330
17
100
AcDbEntity
  8
GEOMETRY
100
AcDbPolyline
 90
2
 70
0
 10
1.4009186351706038
 20
10.175426509186352
 10
7.139107611548556
 20
10.175426509186352
  0
LWPOLYLINE
  5
A7
330
17
100
AcDbEntity
  8
GEOMETRY
100
AcDbPolyline
 90
5
 70
0
 10
1.4009186351706038
 20
9.481627296587927
 10
4.073162729658793
 20
9.481627296587927
 10
4.073162729658793
 20
8.825459317585302
 10
1.4009186351706038
 20
8.825459317585302
 10
1.4009186351706038
 20
9.481627296587927
  0
LWPOLYLINE
  5
A8
330
17
100
AcDbEntity
  8
GEOMETRY
100
AcDbPolyline
 90
5
 70
0
 10
4.466863517060367
 20
9.481627296587927
 10
7.139107611548556
 20
9.481627296587927
 10
7.139107611548556
 20
8.825459317585302
 10
4.466863517060367
 20
8.825459317585302
 10
4.466863517060367
 20
9.481627296587927
  0
LWPOLYLINE
  5
A9
330
17
100
AcDbEntity
  8
GEOMETRY
100
AcDbPolyline
 90
5
 70
0
 10
1.2696850393700787
 20
8.825459317585302
 10
7.270341207349081
 20
8.825459317585302
 10
7.270341207349081
 20
7.9921259842519685
 10
1.2696850393700787
 20
7.9921259842519685
 10
1.2696850393700787
 20
8.825459317585302
  0
LWPOLYLINE
  5
AA
330
17
100
AcDbEntity
  8
GEOMETRY
100
AcDbPolyline
 90
5
 70
0
 10
1.1023622047244095
 20
7.9921259842519685
 10
7.437664041994751
 20
7.9921259842519685
 10
7.437664041994751
 20
7.6574803149606305
 10
1.1023622047244095
 20
7.6574803149606305
 10
1.1023622047244095
 20
7.9921259842519685
  0
LINE
  5
AB
330
17
100
AcDbEntity
  8
GEOMETRY
100
AcDbLine
 10
1.1023622047244095
 20
7.910104986876641
 30
0.0
 11
7.437664041994751
 21
7.910104986876641
 31
0.0
  0
POLYLINE
  5
AC
330
17
100
AcDbEntity
  8
GEOMETRY
100
AcDb2dPolyline
 66
1
 10
0.0
 20
0.0
 30
0.0
 70
0
  0
VERTEX
  5
AD
330
AC
100
AcDbEntity
  8
GEOMETRY
100
AcDbVertex
100
AcDb2dVertex
 10
1.4796587926509184
 20
7.6574803149606305
 30
0.0
 70
0
  0
VERTEX
  5
AE
330
AC
100
AcDbEntity
  8
GEOMETRY
100
AcDbVertex
100
AcDb2dVertex
 10
1.4796587926509184
 20
7.604986876640421
 30
0.0
 70
0
  0
SEQEND
  5
AF
330
AC
100
AcDbEntity
  8
GEOMETRY
  0
SPLINE
  5
B0
330
17
100
AcDbEntity
  8
GEOMETRY
100
AcDbSpline
 70
0
 71
3
 72
8
 73
4
 74
0
 40
0.0
 40
0.0
 40
0.0
 40
0.0
 40
1.0
 40
1.0
 40
1.0
 40
1.0
 10
1.4796587926509184
 20
7.604986876640421
 30
0.0
 10
1.4386482939632546
 20
7.559055118110237
 30
0.0
 10
1.425524934383202
 20
7.362204724409449
 30
0.0
 10
1.4386482939632546
 20
7.296587926509187
 30
0.0
  0
SPLINE
  5
B1
330
17
100
AcDbEntity
  8
GEOMETRY
100
AcDbSpline
 70
0
 71
3
 72
8
 73
4
 74
0
 40
0.0
 40
0.0
 40
0.0
 40
0.0
 40
1.0
 40
1.0
 40
1.0
 40
1.0
 10
1.4386482939632546
 20
7.296587926509187
 30
0.0
 10
1.4583333333333333
 20
7.1719160104986885
 30
0.0
 10
1.4960629921259843
 20
7.106299212598426
 30
0.0
 10
1.4960629921259843
 20
7.073490813648295
 30
0.0
  0
POLYLINE
  5
B2
330
17
100
AcDbEntity
  8
GEOMETRY
100
AcDb2dPolyline
 66
1
 10
0.0
 20
0.0
 30
0.0
 70
0
  0
VERTEX
  5
B3
330
B2
100
AcDbEntity
  8
GEOMETRY
100
AcDbVertex
100
AcDb2dVertex
 10
1.4960629921259843
 20
7.073490813648295
 30
0.0
 70
0
  0
VERTEX
  5
B4
330
B2
100
AcDbEntity
  8
GEOMETRY
100
AcDbVertex
100
AcDb2dVertex
 10
1.6929133858267715
 20
7.073490813648295
 30
0.0
 70
0
  0
SEQEND
  5
B5
330
B2
100
AcDbEntity
  8
GEOMETRY
  0
SPLINE
  5
B6
330
17
100
AcDbEntity
  8
GEOMETRY
100
AcDbSpline
 70
0
 71
3
 72
8
 73
4
 74
0
 40
0.0
 40
0.0
 40
0.0
 40
0.0
 40
1.0
 40
1.0
 40
1.0
 40
1.0
 10
1.6929133858267715
 20
7.073490813648295
 30
0.0
 10
1.6929133858267715
 20
7.106299212598426
 30
0.0
 10
1.7306430446194223
 20
7.1719160104986885
 30
0.0
 10
1.750328083989501
 20
7.296587926509187
 30
0.0
  0
SPLINE
  5
B7
330
17
100
AcDbEntity
  8
GEOMETRY
100
AcDbSpline
 70
0
 71
3
 72
8
 73
4
 74
0
 40
0.0
 40
0.0
 40
0.0
 40
0.0
 40
1.0
 40
1.0
 40
1.0
 40
1.0
 10
1.750328083989501
 20
7.296587926509187
 30
0.0
 10
1.7634514435695536
 20
7.362204724409449
 30
0.0
 10
1.750328083989501
 20
7.559055118110237
 30
0.0
 10
1.7093175853018372
 20
7.604986876640421
 30
0.0
  0
POLYLINE
  5
B8
330
17
100
AcDbEntity
  8
GEOMETRY
100
AcDb2dPolyline
 66
1
 10
0.0
 20
0.0
 30
0.0
 70
0
  0
VERTEX
  5
B9
330
B8
100
AcDbEntity
  8
GEOMETRY
100
AcDbVertex
100
AcDb2dVertex
 10
1.7093175853018372
 20
7.604986876640421
 30
0.0
 70
0
  0
VERTEX
  5
BA
330
B8
100
AcDbEntity
  8
GEOMETRY
100
AcDbVertex
100
AcDb2dVertex
 10
1.7093175853018372
 20
7.6574803149606305
 30
0.0
 70
0
  0
VERTEX
  5
BB
330
B8
100
AcDbEntity
  8
GEOMETRY
100
AcDbVertex
100
AcDb2dVertex
 10
1.4796587926509184
 20
7.6574803149606305
 30
0.0
 70
0
  0
SEQEND
  5
BC
330
B8
100
AcDbEntity
  8
GEOMETRY
  0
LINE
  5
BD
330
17
100
AcDbEntity
  8
GEOMETRY
100
AcDbLine
 10
1.4796587926509184
 20
7.604986876640421
 30
0.0
 11
1.7093175853018372
 21
7.604986876640421
 31
0.0
  0
POLYLINE
  5
BE
330
17
100
AcDbEntity
  8
GEOMETRY
100
AcDb2dPolyline
 66
1
 10
0.0
 20
0.0
 30
0.0
 70
0
  0
VERTEX
  5
BF
330
BE
100
AcDbEntity
  8
GEOMETRY
100
AcDbVertex
100
AcDb2dVertex
 10
6.830708661417323
 20
7.6574803149606305
 30
0.0
 70
0
  0
VERTEX
  5
C0
330
BE
100
AcDbEntity
  8
GEOMETRY
100
AcDbVertex
100
AcDb2dVertex
 10
6.830708661417323
 20
7.604986876640421
 30
0.0
 70
0
  0
SEQEND
  5
C1
330
BE
100
AcDbEntity
  8
GEOMETRY
  0
SPLINE
  5
C2
330
17
100
AcDbEntity
  8
GEOMETRY
100
AcDbSpline
 70
0
 71
3
 72
8
 73
4
 74
0
 40
0.0
 40
0.0
 40
0.0
 40
0.0
 40
1.0
 40
1.0
 40
1.0
 40
1.0
 10
6.830708661417323
 20
7.604986876640421
 30
0.0
 10
6.789698162729658
 20
7.559055118110237
 30
0.0
 10
6.7765748031496065
 20
7.362204724409449
 30
0.0
 10
6.789698162729658
 20
7.296587926509187
 30
0.0
  0
SPLINE
  5
C3
330
17
100
AcDbEntity
  8
GEOMETRY
100
AcDbSpline
 70
0
 71
3
 72
8
 73
4
 74
0
 40
0.0
 40
0.0
 40
0.0
 40
0.0
 40
1.0
 40
1.0
 40
1.0
 40
1.0
 10
6.789698162729658
 20
7.296587926509187
 30
0.0
 10
6.8093832020997365
 20
7.1719160104986885
 30
0.0
 10
6.847112860892388
 20
7.106299212598426
 30
0.0
 10
6.847112860892388
 20
7.073490813648295
 30
0.0
  0
POLYLINE
  5
C4
330
17
100
AcDbEntity
  8
GEOMETRY
100
AcDb2dPolyline
 66
1
 10
0.0
 20
0.0
 30
0.0
 70
0
  0
VERTEX
  5
C5
330
C4
100
AcDbEntity
  8
GEOMETRY
100
AcDbVertex
100
AcDb2dVertex
 10
6.847112860892388
 20
7.073490813648295
 30
0.0
 70
0
  0
VERTEX
  5
C6
330
C4
100
AcDbEntity
  8
GEOMETRY
100
AcDbVertex
100
AcDb2dVertex
 10
7.043963254593176
 20
7.073490813648295
 30
0.0
 70
0
  0
SEQEND
  5
C7
330
C4
100
AcDbEntity
  8
GEOMETRY
  0
SPLINE
  5
C8
330
17
100
AcDbEntity
  8
GEOMETRY
100
AcDbSpline
 70
0
 71
3
 72
8
 73
4
 74
0
 40
0.0
 40
0.0
 40
0.0
 40
0.0
 40
1.0
 40
1.0
 40
1.0
 40
1.0
 10
7.043963254593176
 20
7.073490813648295
 30
0.0
 10
7.043963254593176
 20
7.106299212598426
 30
0.0
 10
7.081692913385827
 20
7.1719160104986885
 30
0.0
 10
7.1013779527559056
 20
7.296587926509187
 30
0.0
  0
SPLINE
  5
C9
330
17
100
AcDbEntity
  8
GEOMETRY
100
AcDbSpline
 70
0
 71
3
 72
8
 73
4
 74
0
 40
0.0
 40
0.0
 40
0.0
 40
0.0
 40
1.0
 40
1.0
 40
1.0
 40
1.0
 10
7.1013779527559056
 20
7.296587926509187
 30
0.0
 10
7.114501312335957
 20
7.362204724409449
 30
0.0
 10
7.1013779527559056
 20
7.559055118110237
 30
0.0
 10
7.060367454068241
 20
7.604986876640421
 30
0.0
  0
POLYLINE
  5
CA
330
17
100
AcDbEntity
  8
GEOMETRY
100
AcDb2dPolyline
 66
1
 10
0.0
 20
0.0
 30
0.0
 70
0
  0
VERTEX
  5
CB
330
CA
100
AcDbEntity
  8
GEOMETRY
100
AcDbVertex
100
AcDb2dVertex
 10
7.060367454068241
 20
7.604986876640421
 30
0.0
 70
0
  0
VERTEX
  5
CC
330
CA
100
AcDbEntity
  8
GEOMETRY
100
AcDbVertex
100
AcDb2dVertex
 10
7.060367454068241
 20
7.6574803149606305
 30
0.0
 70
0
  0
VERTEX
  5
CD
330
CA
100
AcDbEntity
  8
GEOMETRY
100
AcDbVertex
100
AcDb2dVertex
 10
6.830708661417323
 20
7.6574803149606305
 30
0.0
 70
0
  0
SEQEND
  5
CE
330
CA
100
AcDbEntity
  8
GEOMETRY
  0
LINE
  5
CF
330
17
100
AcDbEntity
  8
GEOMETRY
100
AcDbLine
 10
6.830708661417323
 20
7.604986876640421
 30
0.0
 11
7.060367454068241
 21
7.604986876640421
 31
0.0
  0
LINE
  5
D0
330
17
100
AcDbEntity
  8
GEOMETRY
100
AcDbLine
 10
0.7086614173228346
 20
7.073490813648295
 30
0.0
 11
7.831364829396325
 21
7.073490813648295
 31
0.0
  0
LINE
  5
D1
330
17
100
AcDbEntity
  8
DIMENSIONS
100
AcDbLine
 10
1.0433070866141732
 20
6.876771653543307
 30
0.0
 11
7.496850393700787
 21
6.876771653543307
 31
0.0
  0
LINE
  5
D2
330
17
100
AcDbEntity
  8
DIMENSIONS
100
AcDbLine
 10
1.1023622047244095
 20
7.034251968503938
 30
0.0
 11
1.1023622047244095
 21
6.829527559055118
 31
0.0
  0
LINE
  5
D3
330
17
100
AcDbEntity
  8
DIMENSIONS
100
AcDbLine
 10
1.0629921259842519
 20
6.83740157480315
 30
0.0
 11
1.141732283464567
 21
6.9161417322834655
 31
0.0
  0
LINE
  5
D4
330
17
100
AcDbEntity
  8
DIMENSIONS
100
AcDbLine
 10
1.2696850393700787
 20
7.034251968503938
 30
0.0
 11
1.2696850393700787
 21
6.829527559055118
 31
0.0
  0
LINE
  5
D5
330
17
100
AcDbEntity
  8
DIMENSIONS
100
AcDbLine
 10
1.2303149606299213
 20
6.83740157480315
 30
0.0
 11
1.3090551181102361
 21
6.9161417322834655
 31
0.0
  0
LINE
  5
D6
330
17
100
AcDbEntity
  8
DIMENSIONS
100
AcDbLine
 10
7.270472440944881
 20
7.034251968503938
 30
0.0
 11
7.270472440944881
 21
6.829527559055118
 31
0.0
  0
LINE
  5
D7
330
17
100
AcDbEntity
  8
DIMENSIONS
100
AcDbLine
 10
7.231102362204724
 20
6.83740157480315
 30
0.0
 11
7.309842519685039
 21
6.9161417322834655
 31
0.0
  0
LINE
  5
D8
330
17
100
AcDbEntity
  8
DIMENSIONS
100
AcDbLine
 10
7.437795275590551
 20
7.034251968503938
 30
0.0
 11
7.437795275590551
 21
6.829527559055118
 31
0.0
  0
LINE
  5
D9
330
17
100
AcDbEntity
  8
DIMENSIONS
100
AcDbLine
 10
7.398425196850393
 20
6.83740157480315
 30
0.0
 11
7.477165354330708
 21
6.9161417322834655
 31
0.0
  0
TEXT
  5
DA
330
17
100
AcDbEntity
  8
TEXT
100
AcDbText
 10
1.1862204724409449
 20
6.908267716535433
 30
0.0
 40
0.03401574803149606
  1
2"
 72
1
 11
1.1862204724409449
 21
6.908267716535433
 31
0.0
100
AcDbText
  0
TEXT
  5
DB
330
17
100
AcDbEntity
  8
TEXT
100
AcDbText
 10
4.27007874015748
 20
6.908267716535433
 30
0.0
 40
0.03401574803149606
  1
6'-0" MATTRESS
 72
1
 11
4.27007874015748
 21
6.908267716535433
 31
0.0
100
AcDbText
  0
TEXT
  5
DC
330
17
100
AcDbEntity
  8
TEXT
100
AcDbText
 10
7.353937007874015
 20
6.908267716535433
 30
0.0
 40
0.03401574803149606
  1
2"
 72
1
 11
7.353937007874015
 21
6.908267716535433
 31
0.0
100
AcDbText
  0
LINE
  5
DD
330
17
100
AcDbEntity
  8
DIMENSIONS
100
AcDbLine
 10
1.0433070866141732
 20
6.640551181102362
 30
0.0
 11
7.496850393700787
 21
6.640551181102362
 31
0.0
  0
LINE
  5
DE
330
17
100
AcDbEntity
  8
DIMENSIONS
100
AcDbLine
 10
1.1023622047244095
 20
7.034251968503938
 30
0.0
 11
1.1023622047244095
 21
6.593307086614173
 31
0.0
  0
LINE
  5
DF
330
17
100
AcDbEntity
  8
DIMENSIONS
100
AcDbLine
 10
1.0629921259842519
 20
6.6011811023622045
 30
0.0
 11
1.141732283464567
 21
6.67992125984252
 31
0.0
  0
LINE
  5
E0
330
17
100
AcDbEntity
  8
DIMENSIONS
100
AcDbLine
 10
7.437795275590551
 20
7.034251968503938
 30
0.0
 11
7.437795275590551
 21
6.593307086614173
 31
0.0
  0
LINE
  5
E1
330
17
100
AcDbEntity
  8
DIMENSIONS
100
AcDbLine
 10
7.398425196850393
 20
6.6011811023622045
 30
0.0
 11
7.477165354330708
 21
6.67992125984252
 31
0.0
  0
TEXT
  5
E2
330
17
100
AcDbEntity
  8
TEXT
100
AcDbText
 10
4.27007874015748
 20
6.672047244094488
 30
0.0
 40
0.03968503937007874
  1
6'-4" OVERALL
 72
1
 11
4.27007874015748
 21
6.672047244094488
 31
0.0
100
AcDbText
  0
LINE
  5
E3
330
17
100
AcDbEntity
  8
DIMENSIONS
100
AcDbLine
 10
1.0433070866141732
 20
6.4043307086614165
 30
0.0
 11
1.6535433070866141
 21
6.4043307086614165
 31
0.0
  0
LINE
  5
E4
330
17
100
AcDbEntity
  8
DIMENSIONS
100
AcDbLine
 10
1.1023622047244095
 20
7.034251968503938
 30
0.0
 11
1.1023622047244095
 21
6.3570866141732285
 31
0.0
  0
LINE
  5
E5
330
17
100
AcDbEntity
  8
DIMENSIONS
100
AcDbLine
 10
1.0629921259842519
 20
6.364960629921259
 30
0.0
 11
1.141732283464567
 21
6.443700787401574
 31
0.0
  0
LINE
  5
E6
330
17
100
AcDbEntity
  8
DIMENSIONS
100
AcDbLine
 10
1.594488188976378
 20
7.034251968503938
 30
0.0
 11
1.594488188976378
 21
6.3570866141732285
 31
0.0
  0
LINE
  5
E7
330
17
100
AcDbEntity
  8
DIMENSIONS
100
AcDbLine
 10
1.5551181102362204
 20
6.364960629921259
 30
0.0
 11
1.6338582677165354
 21
6.443700787401574
 31
0.0
  0
TEXT
  5
E8
330
17
100
AcDbEntity
  8
TEXT
100
AcDbText
 10
1.3484251968503937
 20
6.435826771653543
 30
0.0
 40
0.031181102362204727
  1
5⅞" TO THE FOOT
 72
1
 11
1.3484251968503937
 21
6.435826771653543
 31
0.0
100
AcDbText
  0
LINE
  5
E9
330
17
100
AcDbEntity
  8
DIMENSIONS
100
AcDbLine
 10
7.674015748031495
 20
7.132677165354331
 30
0.0
 11
7.674015748031495
 21
10.155905511811023
 31
0.0
  0
LINE
  5
EA
330
17
100
AcDbEntity
  8
DIMENSIONS
100
AcDbLine
 10
7.477165354330708
 20
7.073622047244095
 30
0.0
 11
7.721259842519685
 21
7.073622047244095
 31
0.0
  0
LINE
  5
EB
330
17
100
AcDbEntity
  8
DIMENSIONS
100
AcDbLine
 10
7.634645669291338
 20
7.034251968503938
 30
0.0
 11
7.713385826771653
 21
7.112992125984253
 31
0.0
  0
LINE
  5
EC
330
17
100
AcDbEntity
  8
DIMENSIONS
100
AcDbLine
 10
7.477165354330708
 20
7.65748031496063
 30
0.0
 11
7.721259842519685
 21
7.65748031496063
 31
0.0
  0
LINE
  5
ED
330
17
100
AcDbEntity
  8
DIMENSIONS
100
AcDbLine
 10
7.634645669291338
 20
7.618110236220472
 30
0.0
 11
7.713385826771653
 21
7.696850393700787
 31
0.0
  0
LINE
  5
EE
330
17
100
AcDbEntity
  8
DIMENSIONS
100
AcDbLine
 10
7.477165354330708
 20
7.9921259842519685
 30
0.0
 11
7.721259842519685
 21
7.9921259842519685
 31
0.0
  0
LINE
  5
EF
330
17
100
AcDbEntity
  8
DIMENSIONS
100
AcDbLine
 10
7.634645669291338
 20
7.952755905511811
 30
0.0
 11
7.713385826771653
 21
8.031496062992126
 31
0.0
  0
LINE
  5
F0
330
17
100
AcDbEntity
  8
DIMENSIONS
100
AcDbLine
 10
7.477165354330708
 20
8.825590551181103
 30
0.0
 11
7.721259842519685
 21
8.825590551181103
 31
0.0
  0
LINE
  5
F1
330
17
100
AcDbEntity
  8
DIMENSIONS
100
AcDbLine
 10
7.634645669291338
 20
8.786220472440945
 30
0.0
 11
7.713385826771653
 21
8.86496062992126
 31
0.0
  0
LINE
  5
F2
330
17
100
AcDbEntity
  8
DIMENSIONS
100
AcDbLine
 10
7.477165354330708
 20
10.21496062992126
 30
0.0
 11
7.721259842519685
 21
10.21496062992126
 31
0.0
  0
LINE
  5
F3
330
17
100
AcDbEntity
  8
DIMENSIONS
100
AcDbLine
 10
7.634645669291338
 20
10.175590551181102
 30
0.0
 11
7.713385826771653
 21
10.254330708661417
 31
0.0
  0
TEXT
  5
F4
330
17
100
AcDbEntity
  8
TEXT
100
AcDbText
 10
7.64251968503937
 20
7.365748031496064
 30
0.0
 40
0.03259842519685039
  1
7"
 50
90.0
 72
1
 11
7.64251968503937
 21
7.365748031496064
 31
0.0
100
AcDbText
  0
TEXT
  5
F5
330
17
100
AcDbEntity
  8
TEXT
100
AcDbText
 10
7.64251968503937
 20
7.824803149606299
 30
0.0
 40
0.03259842519685039
  1
4"
 50
90.0
 72
1
 11
7.64251968503937
 21
7.824803149606299
 31
0.0
100
AcDbText
  0
TEXT
  5
F6
330
17
100
AcDbEntity
  8
TEXT
100
AcDbText
 10
7.64251968503937
 20
8.409055118110237
 30
0.0
 40
0.03259842519685039
  1
10"
 50
90.0
 72
1
 11
7.64251968503937
 21
8.409055118110237
 31
0.0
100
AcDbText
  0
TEXT
  5
F7
330
17
100
AcDbEntity
  8
TEXT
100
AcDbText
 10
7.64251968503937
 20
9.52007874015748
 30
0.0
 40
0.03259842519685039
  1
1'-4⅝"
 50
90.0
 72
1
 11
7.64251968503937
 21
9.52007874015748
 31
0.0
100
AcDbText
  0
LINE
  5
F8
330
17
100
AcDbEntity
  8
DIMENSIONS
100
AcDbLine
 10
7.949606299212598
 20
7.132677165354331
 30
0.0
 11
7.949606299212598
 21
10.155905511811023
 31
0.0
  0
LINE
  5
F9
330
17
100
AcDbEntity
  8
DIMENSIONS
100
AcDbLine
 10
7.477165354330708
 20
7.073622047244095
 30
0.0
 11
7.996850393700788
 21
7.073622047244095
 31
0.0
  0
LINE
  5
FA
330
17
100
AcDbEntity
  8
DIMENSIONS
100
AcDbLine
 10
7.910236220472441
 20
7.034251968503938
 30
0.0
 11
7.988976377952755
 21
7.112992125984253
 31
0.0
  0
LINE
  5
FB
330
17
100
AcDbEntity
  8
DIMENSIONS
100
AcDbLine
 10
7.477165354330708
 20
10.21496062992126
 30
0.0
 11
7.996850393700788
 21
10.21496062992126
 31
0.0
  0
LINE
  5
FC
330
17
100
AcDbEntity
  8
DIMENSIONS
100
AcDbLine
 10
7.910236220472441
 20
10.175590551181102
 30
0.0
 11
7.988976377952755
 21
10.254330708661417
 31
0.0
  0
TEXT
  5
FD
330
17
100
AcDbEntity
  8
TEXT
100
AcDbText
 10
7.918110236220473
 20
8.644094488188976
 30
0.0
 40
0.035433070866141725
  1
3'-1⅝" TO THE TOP
 50
90.0
 72
1
 11
7.918110236220473
 21
8.644094488188976
 31
0.0
100
AcDbText
  0
TEXT
  5
FE
330
17
100
AcDbEntity
  8
TEXT
100
AcDbText
 10
8.11023622047244
 20
11.023622047244094
 30
0.0
 40
0.09070866141732283
  1
SIDE
 11
8.11023622047244
 21
11.023622047244094
 31
0.0
100
AcDbText
  0
LINE
  5
FF
330
17
100
AcDbEntity
  8
GEOMETRY
100
AcDbLine
 10
8.11023622047244
 20
10.964566929133857
 30
0.0
 11
10.866141732283465
 21
10.964566929133857
 31
0.0
  0
TEXT
  5
100
330
17
100
AcDbEntity
  8
TEXT
100
AcDbText
 10
8.11023622047244
 20
10.834645669291337
 30
0.0
 40
0.048188976377952754
  1
SCALE 1:12 · THE WALL ON THE LEFT
 11
8.11023622047244
 21
10.834645669291337
 31
0.0
100
AcDbText
  0
LWPOLYLINE
  5
101
330
17
100
AcDbEntity
  8
GEOMETRY
100
AcDbPolyline
 90
5
 70
0
 10
8.513779527559056
 20
8.825459317585302
 10
15.013123359580051
 20
8.825459317585302
 10
15.013123359580051
 20
7.9921259842519685
 10
8.513779527559056
 20
7.9921259842519685
 10
8.513779527559056
 20
8.825459317585302
  0
LWPOLYLINE
  5
102
330
17
100
AcDbEntity
  8
GEOMETRY
100
AcDbPolyline
 90
5
 70
0
 10
9.268372703412073
 20
9.317585301837271
 10
11.007217847769027
 20
9.317585301837271
 10
11.007217847769027
 20
8.825459317585302
 10
9.268372703412073
 20
8.825459317585302
 10
9.268372703412073
 20
9.317585301837271
  0
POLYLINE
  5
103
330
17
100
AcDbEntity
  8
GEOMETRY
100
AcDb2dPolyline
 66
1
 10
0.0
 20
0.0
 30
0.0
 70
0
  0
VERTEX
  5
104
330
103
100
AcDbEntity
  8
GEOMETRY
100
AcDbVertex
100
AcDb2dVertex
 10
3.9763779527559056
 20
10.275590551181104
 30
0.0
 70
0
  0
VERTEX
  5
105
330
103
100
AcDbEntity
  8
GEOMETRY
100
AcDbVertex
100
AcDb2dVertex
 10
7.913385826771654
 20
10.275590551181104
 30
0.0
 70
0
  0
SEQEND
  5
106
330
103
100
AcDbEntity
  8
GEOMETRY
  0
SPLINE
  5
107
330
17
100
AcDbEntity
  8
GEOMETRY
100
AcDbSpline
 70
0
 71
3
 72
14
 73
10
 74
0
 40
0.0
 40
0.0
 40
0.0
 40
0.0
 40
1.0
 40
1.0
 40
1.0
 40
2.0
 40
2.0
 40
2.0
 40
3.0
 40
3.0
 40
3.0
 40
3.0
 10
7.913385826771654
 20
10.275590551181104
 30
0.0
 10
8.258904714783565
 20
10.275590551181104
 30
0.0
 10
8.598409660769924
 20
10.184620475077686
 30
0.0
 10
8.89763779527559
 20
10.01186103107173
 30
0.0
 10
9.196865929781255
 20
9.839101587065775
 30
0.0
 10
9.445400799664199
 20
9.590566717182831
 30
0.0
 10
9.618160243670154
 20
9.291338582677167
 30
0.0
 10
9.79091968767611
 20
8.9921104481715
 30
0.0
 10
9.881889763779528
 20
8.652605502185141
 30
0.0
 10
9.881889763779528
 20
8.30708661417323
 30
0.0
  0
POLYLINE
  5
108
330
17
100
AcDbEntity
  8
GEOMETRY
100
AcDb2dPolyline
 66
1
 10
0.0
 20
0.0
 30
0.0
 70
0
  0
VERTEX
  5
109
330
108
100
AcDbEntity
  8
GEOMETRY
100
AcDbVertex
100
AcDb2dVertex
 10
9.881889763779528
 20
8.30708661417323
 30
0.0
 70
0
  0
VERTEX
  5
10A
330
108
100
AcDbEntity
  8
GEOMETRY
100
AcDbVertex
100
AcDb2dVertex
 10
9.881889763779528
 20
-4.685039370078739
 30
0.0
 70
0
  0
SEQEND
  5
10B
330
108
100
AcDbEntity
  8
GEOMETRY
  0
SPLINE
  5
10C
330
17
100
AcDbEntity
  8
GEOMETRY
100
AcDbSpline
 70
0
 71
3
 72
14
 73
10
 74
0
 40
0.0
 40
0.0
 40
0.0
 40
0.0
 40
1.0
 40
1.0
 40
1.0
 40
2.0
 40
2.0
 40
2.0
 40
3.0
 40
3.0
 40
3.0
 40
3.0
 10
9.881889763779528
 20
-4.685039370078739
 30
0.0
 10
9.881889763779528
 20
-5.030558258090652
 30
0.0
 10
9.79091968767611
 20
-5.370063204077011
 30
0.0
 10
9.618160243670156
 20
-5.669291338582676
 30
0.0
 10
9.445400799664199
 20
-5.968519473088341
 30
0.0
 10
9.196865929781255
 20
-6.217054342971286
 30
0.0
 10
8.89763779527559
 20
-6.389813786977241
 30
0.0
 10
8.598409660769924
 20
-6.562573230983196
 30
0.0
 10
8.258904714783565
 20
-6.653543307086613
 30
0.0
 10
7.913385826771654
 20
-6.653543307086613
 30
0.0
  0
POLYLINE
  5
10D
330
17
100
AcDbEntity
  8
GEOMETRY
100
AcDb2dPolyline
 66
1
 10
0.0
 20
0.0
 30
0.0
 70
0
  0
VERTEX
  5
10E
330
10D
100
AcDbEntity
  8
GEOMETRY
100
AcDbVertex
100
AcDb2dVertex
 10
7.913385826771654
 20
-6.653543307086613
 30
0.0
 70
0
  0
VERTEX
  5
10F
330
10D
100
AcDbEntity
  8
GEOMETRY
100
AcDbVertex
100
AcDb2dVertex
 10
3.9763779527559056
 20
-6.653543307086613
 30
0.0
 70
0
  0
SEQEND
  5
110
330
10D
100
AcDbEntity
  8
GEOMETRY
  0
SPLINE
  5
111
330
17
100
AcDbEntity
  8
GEOMETRY
100
AcDbSpline
 70
0
 71
3
 72
14
 73
10
 74
0
 40
0.0
 40
0.0
 40
0.0
 40
0.0
 40
1.0
 40
1.0
 40
1.0
 40
2.0
 40
2.0
 40
2.0
 40
3.0
 40
3.0
 40
3.0
 40
3.0
 10
3.9763779527559056
 20
-6.653543307086613
 30
0.0
 10
3.630859064743994
 20
-6.653543307086613
 30
0.0
 10
3.2913541187576345
 20
-6.562573230983196
 30
0.0
 10
2.9921259842519685
 20
-6.389813786977241
 30
0.0
 10
2.692897849746302
 20
-6.217054342971286
 30
0.0
 10
2.4443629798633606
 20
-5.968519473088341
 30
0.0
 10
2.2716035358574045
 20
-5.669291338582676
 30
0.0
 10
2.0988440918514484
 20
-5.370063204077011
 30
0.0
 10
2.007874015748032
 20
-5.030558258090652
 30
0.0
 10
2.0078740157480315
 20
-4.685039370078739
 30
0.0
  0
POLYLINE
  5
112
330
17
100
AcDbEntity
  8
GEOMETRY
100
AcDb2dPolyline
 66
1
 10
0.0
 20
0.0
 30
0.0
 70
0
  0
VERTEX
  5
113
330
112
100
AcDbEntity
  8
GEOMETRY
100
AcDbVertex
100
AcDb2dVertex
 10
2.0078740157480315
 20
-4.685039370078739
 30
0.0
 70
0
  0
VERTEX
  5
114
330
112
100
AcDbEntity
  8
GEOMETRY
100
AcDbVertex
100
AcDb2dVertex
 10
2.0078740157480315
 20
8.30708661417323
 30
0.0
 70
0
  0
SEQEND
  5
115
330
112
100
AcDbEntity
  8
GEOMETRY
  0
SPLINE
  5
116
330
17
100
AcDbEntity
  8
GEOMETRY
100
AcDbSpline
 70
0
 71
3
 72
14
 73
10
 74
0
 40
0.0
 40
0.0
 40
0.0
 40
0.0
 40
1.0
 40
1.0
 40
1.0
 40
2.0
 40
2.0
 40
2.0
 40
3.0
 40
3.0
 40
3.0
 40
3.0
 10
2.0078740157480315
 20
8.30708661417323
 30
0.0
 10
2.0078740157480315
 20
8.652605502185141
 30
0.0
 10
2.0988440918514484
 20
8.992110448171498
 30
0.0
 10
2.271603535857404
 20
9.291338582677165
 30
0.0
 10
2.4443629798633597
 20
9.590566717182831
 30
0.0
 10
2.692897849746301
 20
9.839101587065773
 30
0.0
 10
2.992125984251967
 20
10.01186103107173
 30
0.0
 10
3.2913541187576336
 20
10.184620475077686
 30
0.0
 10
3.630859064743994
 20
10.275590551181104
 30
0.0
 10
3.9763779527559056
 20
10.275590551181104
 30
0.0
  0
LINE
  5
117
330
17
100
AcDbEntity
  8
GEOMETRY
  6
DASHED
100
AcDbLine
 10
8.198818897637794
 20
7.073490813648295
 30
0.0
 11
8.198818897637794
 21
10.608497375328083
 31
0.0
  0
LWPOLYLINE
  5
118
330
17
100
AcDbEntity
  8
GEOMETRY
100
AcDbPolyline
 90
5
 70
0
 10
8.346456692913385
 20
7.9921259842519685
 10
15.180446194225722
 20
7.9921259842519685
 10
15.180446194225722
 20
7.6574803149606305
 10
8.346456692913385
 20
7.6574803149606305
 10
8.346456692913385
 20
7.9921259842519685
  0
LINE
  5
119
330
17
100
AcDbEntity
  8
GEOMETRY
100
AcDbLine
 10
8.346456692913385
 20
7.910104986876641
 30
0.0
 11
15.180446194225722
 21
7.910104986876641
 31
0.0
  0
POLYLINE
  5
11A
330
17
100
AcDbEntity
  8
GEOMETRY
100
AcDb2dPolyline
 66
1
 10
0.0
 20
0.0
 30
0.0
 70
0
  0
VERTEX
  5
11B
330
11A
100
AcDbEntity
  8
GEOMETRY
100
AcDbVertex
100
AcDb2dVertex
 10
8.723753280839896
 20
7.6574803149606305
 30
0.0
 70
0
  0
VERTEX
  5
11C
330
11A
100
AcDbEntity
  8
GEOMETRY
100
AcDbVertex
100
AcDb2dVertex
 10
8.723753280839896
 20
7.604986876640421
 30
0.0
 70
0
  0
SEQEND
  5
11D
330
11A
100
AcDbEntity
  8
GEOMETRY
  0
SPLINE
  5
11E
330
17
100
AcDbEntity
  8
GEOMETRY
100
AcDbSpline
 70
0
 71
3
 72
8
 73
4
 74
0
 40
0.0
 40
0.0
 40
0.0
 40
0.0
 40
1.0
 40
1.0
 40
1.0
 40
1.0
 10
8.723753280839896
 20
7.604986876640421
 30
0.0
 10
8.68274278215223
 20
7.559055118110237
 30
0.0
 10
8.669619422572179
 20
7.362204724409449
 30
0.0
 10
8.68274278215223
 20
7.296587926509187
 30
0.0
  0
SPLINE
  5
11F
330
17
100
AcDbEntity
  8
GEOMETRY
100
AcDbSpline
 70
0
 71
3
 72
8
 73
4
 74
0
 40
0.0
 40
0.0
 40
0.0
 40
0.0
 40
1.0
 40
1.0
 40
1.0
 40
1.0
 10
8.68274278215223
 20
7.296587926509187
 30
0.0
 10
8.70242782152231
 20
7.1719160104986885
 30
0.0
 10
8.740157480314961
 20
7.106299212598426
 30
0.0
 10
8.740157480314961
 20
7.073490813648295
 30
0.0
  0
POLYLINE
  5
120
330
17
100
AcDbEntity
  8
GEOMETRY
100
AcDb2dPolyline
 66
1
 10
0.0
 20
0.0
 30
0.0
 70
0
  0
VERTEX
  5
121
330
120
100
AcDbEntity
  8
GEOMETRY
100
AcDbVertex
100
AcDb2dVertex
 10
8.740157480314961
 20
7.073490813648295
 30
0.0
 70
0
  0
VERTEX
  5
122
330
120
100
AcDbEntity
  8
GEOMETRY
100
AcDbVertex
100
AcDb2dVertex
 10
8.937007874015748
 20
7.073490813648295
 30
0.0
 70
0
  0
SEQEND
  5
123
330
120
100
AcDbEntity
  8
GEOMETRY
  0
SPLINE
  5
124
330
17
100
AcDbEntity
  8
GEOMETRY
100
AcDbSpline
 70
0
 71
3
 72
8
 73
4
 74
0
 40
0.0
 40
0.0
 40
0.0
 40
0.0
 40
1.0
 40
1.0
 40
1.0
 40
1.0
 10
8.937007874015748
 20
7.073490813648295
 30
0.0
 10
8.937007874015748
 20
7.106299212598426
 30
0.0
 10
8.9747375328084
 20
7.1719160104986885
 30
0.0
 10
8.994422572178477
 20
7.296587926509187
 30
0.0
  0
SPLINE
  5
125
330
17
100
AcDbEntity
  8
GEOMETRY
100
AcDbSpline
 70
0
 71
3
 72
8
 73
4
 74
0
 40
0.0
 40
0.0
 40
0.0
 40
0.0
 40
1.0
 40
1.0
 40
1.0
 40
1.0
 10
8.994422572178477
 20
7.296587926509187
 30
0.0
 10
9.00754593175853
 20
7.362204724409449
 30
0.0
 10
8.994422572178477
 20
7.559055118110237
 30
0.0
 10
8.953412073490814
 20
7.604986876640421
 30
0.0
  0
POLYLINE
  5
126
330
17
100
AcDbEntity
  8
GEOMETRY
100
AcDb2dPolyline
 66
1
 10
0.0
 20
0.0
 30
0.0
 70
0
  0
VERTEX
  5
127
330
126
100
AcDbEntity
  8
GEOMETRY
100
AcDbVertex
100
AcDb2dVertex
 10
8.953412073490814
 20
7.604986876640421
 30
0.0
 70
0
  0
VERTEX
  5
128
330
126
100
AcDbEntity
  8
GEOMETRY
100
AcDbVertex
100
AcDb2dVertex
 10
8.953412073490814
 20
7.6574803149606305
 30
0.0
 70
0
  0
VERTEX
  5
129
330
126
100
AcDbEntity
  8
GEOMETRY
100
AcDbVertex
100
AcDb2dVertex
 10
8.723753280839896
 20
7.6574803149606305
 30
0.0
 70
0
  0
SEQEND
  5
12A
330
126
100
AcDbEntity
  8
GEOMETRY
  0
LINE
  5
12B
330
17
100
AcDbEntity
  8
GEOMETRY
100
AcDbLine
 10
8.723753280839896
 20
7.604986876640421
 30
0.0
 11
8.953412073490814
 21
7.604986876640421
 31
0.0
  0
POLYLINE
  5
12C
330
17
100
AcDbEntity
  8
GEOMETRY
100
AcDb2dPolyline
 66
1
 10
0.0
 20
0.0
 30
0.0
 70
0
  0
VERTEX
  5
12D
330
12C
100
AcDbEntity
  8
GEOMETRY
100
AcDbVertex
100
AcDb2dVertex
 10
11.648622047244094
 20
7.6574803149606305
 30
0.0
 70
0
  0
VERTEX
  5
12E
330
12C
100
AcDbEntity
  8
GEOMETRY
100
AcDbVertex
100
AcDb2dVertex
 10
11.648622047244094
 20
7.604986876640421
 30
0.0
 70
0
  0
SEQEND
  5
12F
330
12C
100
AcDbEntity
  8
GEOMETRY
  0
SPLINE
  5
130
330
17
100
AcDbEntity
  8
GEOMETRY
100
AcDbSpline
 70
0
 71
3
 72
8
 73
4
 74
0
 40
0.0
 40
0.0
 40
0.0
 40
0.0
 40
1.0
 40
1.0
 40
1.0
 40
1.0
 10
11.648622047244094
 20
7.604986876640421
 30
0.0
 10
11.607611548556429
 20
7.559055118110237
 30
0.0
 10
11.594488188976378
 20
7.362204724409449
 30
0.0
 10
11.607611548556429
 20
7.296587926509187
 30
0.0
  0
SPLINE
  5
131
330
17
100
AcDbEntity
  8
GEOMETRY
100
AcDbSpline
 70
0
 71
3
 72
8
 73
4
 74
0
 40
0.0
 40
0.0
 40
0.0
 40
0.0
 40
1.0
 40
1.0
 40
1.0
 40
1.0
 10
11.607611548556429
 20
7.296587926509187
 30
0.0
 10
11.627296587926509
 20
7.1719160104986885
 30
0.0
 10
11.665026246719158
 20
7.106299212598426
 30
0.0
 10
11.665026246719158
 20
7.073490813648295
 30
0.0
  0
POLYLINE
  5
132
330
17
100
AcDbEntity
  8
GEOMETRY
100
AcDb2dPolyline
 66
1
 10
0.0
 20
0.0
 30
0.0
 70
0
  0
VERTEX
  5
133
330
132
100
AcDbEntity
  8
GEOMETRY
100
AcDbVertex
100
AcDb2dVertex
 10
11.665026246719158
 20
7.073490813648295
 30
0.0
 70
0
  0
VERTEX
  5
134
330
132
100
AcDbEntity
  8
GEOMETRY
100
AcDbVertex
100
AcDb2dVertex
 10
11.861876640419945
 20
7.073490813648295
 30
0.0
 70
0
  0
SEQEND
  5
135
330
132
100
AcDbEntity
  8
GEOMETRY
  0
SPLINE
  5
136
330
17
100
AcDbEntity
  8
GEOMETRY
100
AcDbSpline
 70
0
 71
3
 72
8
 73
4
 74
0
 40
0.0
 40
0.0
 40
0.0
 40
0.0
 40
1.0
 40
1.0
 40
1.0
 40
1.0
 10
11.861876640419945
 20
7.073490813648295
 30
0.0
 10
11.861876640419945
 20
7.106299212598426
 30
0.0
 10
11.899606299212598
 20
7.1719160104986885
 30
0.0
 10
11.919291338582678
 20
7.296587926509187
 30
0.0
  0
SPLINE
  5
137
330
17
100
AcDbEntity
  8
GEOMETRY
100
AcDbSpline
 70
0
 71
3
 72
8
 73
4
 74
0
 40
0.0
 40
0.0
 40
0.0
 40
0.0
 40
1.0
 40
1.0
 40
1.0
 40
1.0
 10
11.919291338582678
 20
7.296587926509187
 30
0.0
 10
11.932414698162729
 20
7.362204724409449
 30
0.0
 10
11.919291338582678
 20
7.559055118110237
 30
0.0
 10
11.878280839895012
 20
7.604986876640421
 30
0.0
  0
POLYLINE
  5
138
330
17
100
AcDbEntity
  8
GEOMETRY
100
AcDb2dPolyline
 66
1
 10
0.0
 20
0.0
 30
0.0
 70
0
  0
VERTEX
  5
139
330
138
100
AcDbEntity
  8
GEOMETRY
100
AcDbVertex
100
AcDb2dVertex
 10
11.878280839895012
 20
7.604986876640421
 30
0.0
 70
0
  0
VERTEX
  5
13A
330
138
100
AcDbEntity
  8
GEOMETRY
100
AcDbVertex
100
AcDb2dVertex
 10
11.878280839895012
 20
7.6574803149606305
 30
0.0
 70
0
  0
VERTEX
  5
13B
330
138
100
AcDbEntity
  8
GEOMETRY
100
AcDbVertex
100
AcDb2dVertex
 10
11.648622047244094
 20
7.6574803149606305
 30
0.0
 70
0
  0
SEQEND
  5
13C
330
138
100
AcDbEntity
  8
GEOMETRY
  0
LINE
  5
13D
330
17
100
AcDbEntity
  8
GEOMETRY
100
AcDbLine
 10
11.648622047244094
 20
7.604986876640421
 30
0.0
 11
11.878280839895012
 21
7.604986876640421
 31
0.0
  0
POLYLINE
  5
13E
330
17
100
AcDbEntity
  8
GEOMETRY
100
AcDb2dPolyline
 66
1
 10
0.0
 20
0.0
 30
0.0
 70
0
  0
VERTEX
  5
13F
330
13E
100
AcDbEntity
  8
GEOMETRY
100
AcDbVertex
100
AcDb2dVertex
 10
14.573490813648291
 20
7.6574803149606305
 30
0.0
 70
0
  0
VERTEX
  5
140
330
13E
100
AcDbEntity
  8
GEOMETRY
100
AcDbVertex
100
AcDb2dVertex
 10
14.573490813648291
 20
7.604986876640421
 30
0.0
 70
0
  0
SEQEND
  5
141
330
13E
100
AcDbEntity
  8
GEOMETRY
  0
SPLINE
  5
142
330
17
100
AcDbEntity
  8
GEOMETRY
100
AcDbSpline
 70
0
 71
3
 72
8
 73
4
 74
0
 40
0.0
 40
0.0
 40
0.0
 40
0.0
 40
1.0
 40
1.0
 40
1.0
 40
1.0
 10
14.573490813648291
 20
7.604986876640421
 30
0.0
 10
14.53248031496063
 20
7.559055118110237
 30
0.0
 10
14.519356955380577
 20
7.362204724409449
 30
0.0
 10
14.53248031496063
 20
7.296587926509187
 30
0.0
  0
SPLINE
  5
143
330
17
100
AcDbEntity
  8
GEOMETRY
100
AcDbSpline
 70
0
 71
3
 72
8
 73
4
 74
0
 40
0.0
 40
0.0
 40
0.0
 40
0.0
 40
1.0
 40
1.0
 40
1.0
 40
1.0
 10
14.53248031496063
 20
7.296587926509187
 30
0.0
 10
14.55216535433071
 20
7.1719160104986885
 30
0.0
 10
14.589895013123359
 20
7.106299212598426
 30
0.0
 10
14.589895013123359
 20
7.073490813648295
 30
0.0
  0
POLYLINE
  5
144
330
17
100
AcDbEntity
  8
GEOMETRY
100
AcDb2dPolyline
 66
1
 10
0.0
 20
0.0
 30
0.0
 70
0
  0
VERTEX
  5
145
330
144
100
AcDbEntity
  8
GEOMETRY
100
AcDbVertex
100
AcDb2dVertex
 10
14.589895013123359
 20
7.073490813648295
 30
0.0
 70
0
  0
VERTEX
  5
146
330
144
100
AcDbEntity
  8
GEOMETRY
100
AcDbVertex
100
AcDb2dVertex
 10
14.786745406824146
 20
7.073490813648295
 30
0.0
 70
0
  0
SEQEND
  5
147
330
144
100
AcDbEntity
  8
GEOMETRY
  0
SPLINE
  5
148
330
17
100
AcDbEntity
  8
GEOMETRY
100
AcDbSpline
 70
0
 71
3
 72
8
 73
4
 74
0
 40
0.0
 40
0.0
 40
0.0
 40
0.0
 40
1.0
 40
1.0
 40
1.0
 40
1.0
 10
14.786745406824146
 20
7.073490813648295
 30
0.0
 10
14.786745406824146
 20
7.106299212598426
 30
0.0
 10
14.824475065616797
 20
7.1719160104986885
 30
0.0
 10
14.844160104986875
 20
7.296587926509187
 30
0.0
  0
SPLINE
  5
149
330
17
100
AcDbEntity
  8
GEOMETRY
100
AcDbSpline
 70
0
 71
3
 72
8
 73
4
 74
0
 40
0.0
 40
0.0
 40
0.0
 40
0.0
 40
1.0
 40
1.0
 40
1.0
 40
1.0
 10
14.844160104986875
 20
7.296587926509187
 30
0.0
 10
14.85728346456693
 20
7.362204724409449
 30
0.0
 10
14.844160104986875
 20
7.559055118110237
 30
0.0
 10
14.803149606299213
 20
7.604986876640421
 30
0.0
  0
POLYLINE
  5
14A
330
17
100
AcDbEntity
  8
GEOMETRY
100
AcDb2dPolyline
 66
1
 10
0.0
 20
0.0
 30
0.0
 70
0
  0
VERTEX
  5
14B
330
14A
100
AcDbEntity
  8
GEOMETRY
100
AcDbVertex
100
AcDb2dVertex
 10
14.803149606299213
 20
7.604986876640421
 30
0.0
 70
0
  0
VERTEX
  5
14C
330
14A
100
AcDbEntity
  8
GEOMETRY
100
AcDbVertex
100
AcDb2dVertex
 10
14.803149606299213
 20
7.6574803149606305
 30
0.0
 70
0
  0
VERTEX
  5
14D
330
14A
100
AcDbEntity
  8
GEOMETRY
100
AcDbVertex
100
AcDb2dVertex
 10
14.573490813648291
 20
7.6574803149606305
 30
0.0
 70
0
  0
SEQEND
  5
14E
330
14A
100
AcDbEntity
  8
GEOMETRY
  0
LINE
  5
14F
330
17
100
AcDbEntity
  8
GEOMETRY
100
AcDbLine
 10
14.573490813648291
 20
7.604986876640421
 30
0.0
 11
14.803149606299213
 21
7.604986876640421
 31
0.0
  0
LINE
  5
150
330
17
100
AcDbEntity
  8
GEOMETRY
100
AcDbLine
 10
7.952755905511811
 20
7.073490813648295
 30
0.0
 11
15.574146981627296
 21
7.073490813648295
 31
0.0
  0
LINE
  5
151
330
17
100
AcDbEntity
  8
DIMENSIONS
100
AcDbLine
 10
8.28740157480315
 20
6.876771653543307
 30
0.0
 11
15.239370078740157
 21
6.876771653543307
 31
0.0
  0
LINE
  5
152
330
17
100
AcDbEntity
  8
DIMENSIONS
100
AcDbLine
 10
8.346456692913385
 20
7.034251968503938
 30
0.0
 11
8.346456692913385
 21
6.829527559055118
 31
0.0
  0
LINE
  5
153
330
17
100
AcDbEntity
  8
DIMENSIONS
100
AcDbLine
 10
8.307086614173228
 20
6.83740157480315
 30
0.0
 11
8.385826771653543
 21
6.9161417322834655
 31
0.0
  0
LINE
  5
154
330
17
100
AcDbEntity
  8
DIMENSIONS
100
AcDbLine
 10
8.513779527559056
 20
7.034251968503938
 30
0.0
 11
8.513779527559056
 21
6.829527559055118
 31
0.0
  0
LINE
  5
155
330
17
100
AcDbEntity
  8
DIMENSIONS
100
AcDbLine
 10
8.474409448818898
 20
6.83740157480315
 30
0.0
 11
8.553149606299213
 21
6.9161417322834655
 31
0.0
  0
LINE
  5
156
330
17
100
AcDbEntity
  8
DIMENSIONS
100
AcDbLine
 10
15.012992125984251
 20
7.034251968503938
 30
0.0
 11
15.012992125984251
 21
6.829527559055118
 31
0.0
  0
LINE
  5
157
330
17
100
AcDbEntity
  8
DIMENSIONS
100
AcDbLine
 10
14.973622047244094
 20
6.83740157480315
 30
0.0
 11
15.052362204724409
 21
6.9161417322834655
 31
0.0
  0
LINE
  5
158
330
17
100
AcDbEntity
  8
DIMENSIONS
100
AcDbLine
 10
15.18031496062992
 20
7.034251968503938
 30
0.0
 11
15.18031496062992
 21
6.829527559055118
 31
0.0
  0
LINE
  5
159
330
17
100
AcDbEntity
  8
DIMENSIONS
100
AcDbLine
 10
15.140944881889762
 20
6.83740157480315
 30
0.0
 11
15.219685039370077
 21
6.9161417322834655
 31
0.0
  0
TEXT
  5
15A
330
17
100
AcDbEntity
  8
TEXT
100
AcDbText
 10
8.430314960629921
 20
6.908267716535433
 30
0.0
 40
0.03401574803149606
  1
2"
 72
1
 11
8.430314960629921
 21
6.908267716535433
 31
0.0
100
AcDbText
  0
TEXT
  5
15B
330
17
100
AcDbEntity
  8
TEXT
100
AcDbText
 10
11.763385826771653
 20
6.908267716535433
 30
0.0
 40
0.03401574803149606
  1
6'-6" MATTRESS
 72
1
 11
11.763385826771653
 21
6.908267716535433
 31
0.0
100
AcDbText
  0
TEXT
  5
15C
330
17
100
AcDbEntity
  8
TEXT
100
AcDbText
 10
15.096456692913385
 20
6.908267716535433
 30
0.0
 40
0.03401574803149606
  1
2"
 72
1
 11
15.096456692913385
 21
6.908267716535433
 31
0.0
100
AcDbText
  0
LINE
  5
15D
330
17
100
AcDbEntity
  8
DIMENSIONS
100
AcDbLine
 10
8.28740157480315
 20
6.640551181102362
 30
0.0
 11
15.239370078740157
 21
6.640551181102362
 31
0.0
  0
LINE
  5
15E
330
17
100
AcDbEntity
  8
DIMENSIONS
100
AcDbLine
 10
8.346456692913385
 20
7.034251968503938
 30
0.0
 11
8.346456692913385
 21
6.593307086614173
 31
0.0
  0
LINE
  5
15F
330
17
100
AcDbEntity
  8
DIMENSIONS
100
AcDbLine
 10
8.307086614173228
 20
6.6011811023622045
 30
0.0
 11
8.385826771653543
 21
6.67992125984252
 31
0.0
  0
LINE
  5
160
330
17
100
AcDbEntity
  8
DIMENSIONS
100
AcDbLine
 10
15.18031496062992
 20
7.034251968503938
 30
0.0
 11
15.18031496062992
 21
6.593307086614173
 31
0.0
  0
LINE
  5
161
330
17
100
AcDbEntity
  8
DIMENSIONS
100
AcDbLine
 10
15.140944881889762
 20
6.6011811023622045
 30
0.0
 11
15.219685039370077
 21
6.67992125984252
 31
0.0
  0
TEXT
  5
162
330
17
100
AcDbEntity
  8
TEXT
100
AcDbText
 10
11.763385826771653
 20
6.672047244094488
 30
0.0
 40
0.03968503937007874
  1
6'-10" OVERALL
 72
1
 11
11.763385826771653
 21
6.672047244094488
 31
0.0
100
AcDbText
  0
LINE
  5
163
330
17
100
AcDbEntity
  8
GEOMETRY
100
AcDbLine
 10
8.776377952755904
 20
9.645669291338583
 30
0.0
 11
9.721259842519684
 21
10.485433070866142
 31
0.0
  0
TEXT
  5
164
330
17
100
AcDbEntity
  8
TEXT
100
AcDbText
 10
9.760629921259842
 20
10.47755905511811
 30
0.0
 40
0.048188976377952754
  1
LONG WHITE CUSHION
 11
9.760629921259842
 21
10.47755905511811
 31
0.0
100
AcDbText
  0
TEXT
  5
165
330
17
100
AcDbEntity
  8
TEXT
100
AcDbText
 10
9.760629921259842
 20
10.387007874015747
 30
0.0
 40
0.04110236220472441
  1
LOOSE · LEANS BACK 10° ON THE PLASTER — DETAIL 2
 11
9.760629921259842
 21
10.387007874015747
 31
0.0
100
AcDbText
  0
LINE
  5
166
330
17
100
AcDbEntity
  8
GEOMETRY
100
AcDbLine
 10
14.196062992125983
 20
7.827952755905511
 30
0.0
 11
14.786614173228346
 21
6.67992125984252
 31
0.0
  0
TEXT
  5
167
330
17
100
AcDbEntity
  8
TEXT
100
AcDbText
 10
14.747244094488188
 20
6.672047244094488
 30
0.0
 40
0.048188976377952754
  1
FRAME RAIL, 4 IN
 72
2
 11
14.747244094488188
 21
6.672047244094488
 31
0.0
100
AcDbText
  0
TEXT
  5
168
330
17
100
AcDbEntity
  8
TEXT
100
AcDbText
 10
14.747244094488188
 20
6.581496062992126
 30
0.0
 40
0.04110236220472441
  1
1 IN LIP ON TOP · TEAK, THE ROOM'S TONE
 72
2
 11
14.747244094488188
 21
6.581496062992126
 31
0.0
100
AcDbText
  0
LINE
  5
169
330
17
100
AcDbEntity
  8
GEOMETRY
100
AcDbLine
 10
11.763385826771653
 20
7.335826771653543
 30
0.0
 11
12.629527559055118
 21
6.67992125984252
 31
0.0
  0
TEXT
  5
16A
330
17
100
AcDbEntity
  8
TEXT
100
AcDbText
 10
12.668897637795276
 20
6.672047244094488
 30
0.0
 40
0.048188976377952754
  1
CENTRE FOOT
 11
12.668897637795276
 21
6.672047244094488
 31
0.0
100
AcDbText
  0
TEXT
  5
16B
330
17
100
AcDbEntity
  8
TEXT
100
AcDbText
 10
12.668897637795276
 20
6.581496062992126
 30
0.0
 40
0.04110236220472441
  1
UNDER THE MIDDLE RAIL
 11
12.668897637795276
 21
6.581496062992126
 31
0.0
100
AcDbText
  0
TEXT
  5
16C
330
17
100
AcDbEntity
  8
TEXT
100
AcDbText
 10
0.7086614173228346
 20
6.102362204724409
 30
0.0
 40
0.09070866141732283
  1
PLAN
 11
0.7086614173228346
 21
6.102362204724409
 31
0.0
100
AcDbText
  0
LINE
  5
16D
330
17
100
AcDbEntity
  8
GEOMETRY
100
AcDbLine
 10
0.7086614173228346
 20
6.043307086614173
 30
0.0
 11
3.858267716535433
 21
6.043307086614173
 31
0.0
  0
TEXT
  5
16E
330
17
100
AcDbEntity
  8
TEXT
100
AcDbText
 10
0.7086614173228346
 20
5.913385826771653
 30
0.0
 40
0.048188976377952754
  1
SCALE 1:20 · THE WALL AT THE TOP · SLATS DASHED
 11
0.7086614173228346
 21
5.913385826771653
 31
0.0
100
AcDbText
  0
LWPOLYLINE
  5
16F
330
17
100
AcDbEntity
  8
GEOMETRY
100
AcDbPolyline
 90
5
 70
0
 10
1.1023622047244095
 20
5.708661417322835
 10
4.903543307086615
 20
5.708661417322835
 10
4.903543307086615
 20
1.608267716535435
 10
1.1023622047244095
 20
1.608267716535435
 10
1.1023622047244095
 20
5.708661417322835
  0
LWPOLYLINE
  5
170
330
17
100
AcDbEntity
  8
GEOMETRY
100
AcDbPolyline
 90
5
 70
0
 10
1.202755905511811
 20
5.608267716535433
 10
4.803149606299213
 20
5.608267716535433
 10
4.803149606299213
 20
1.7086614173228352
 10
1.202755905511811
 20
1.7086614173228352
 10
1.202755905511811
 20
5.608267716535433
  0
POLYLINE
  5
171
330
17
100
AcDbEntity
  8
GEOMETRY
100
AcDb2dPolyline
 66
1
 10
0.0
 20
0.0
 30
0.0
 70
0
  0
VERTEX
  5
172
330
171
100
AcDbEntity
  8
GEOMETRY
100
AcDbVertex
100
AcDb2dVertex
 10
1.3011811023622046
 20
5.755255905511812
 30
0.0
 70
0
  0
VERTEX
  5
173
330
171
100
AcDbEntity
  8
GEOMETRY
100
AcDbVertex
100
AcDb2dVertex
 10
4.7047244094488185
 20
5.755255905511812
 30
0.0
 70
0
  0
SEQEND
  5
174
330
171
100
AcDbEntity
  8
GEOMETRY
  0
SPLINE
  5
175
330
17
100
AcDbEntity
  8
GEOMETRY
100
AcDbSpline
 70
0
 71
3
 72
14
 73
10
 74
0
 40
0.0
 40
0.0
 40
0.0
 40
0.0
 40
1.0
 40
1.0
 40
1.0
 40
2.0
 40
2.0
 40
2.0
 40
3.0
 40
3.0
 40
3.0
 40
3.0
 10
4.7047244094488185
 20
5.755255905511812
 30
0.0
 10
4.722000353849414
 20
5.755255905511812
 30
0.0
 10
4.7389756011487325
 20
5.7507074017066415
 30
0.0
 10
4.753937007874016
 20
5.742069429506344
 30
0.0
 10
4.768898414599299
 20
5.733431457306046
 30
0.0
 10
4.781325158093446
 20
5.721004713811898
 30
0.0
 10
4.789963130293744
 20
5.706043307086615
 30
0.0
 10
4.798601102494041
 20
5.691081900361332
 30
0.0
 10
4.803149606299213
 20
5.674106653062014
 30
0.0
 10
4.803149606299213
 20
5.656830708661419
 30
0.0
  0
POLYLINE
  5
176
330
17
100
AcDbEntity
  8
GEOMETRY
100
AcDb2dPolyline
 66
1
 10
0.0
 20
0.0
 30
0.0
 70
0
  0
VERTEX
  5
177
330
176
100
AcDbEntity
  8
GEOMETRY
100
AcDbVertex
100
AcDb2dVertex
 10
4.803149606299213
 20
5.656830708661419
 30
0.0
 70
0
  0
VERTEX
  5
178
330
176
100
AcDbEntity
  8
GEOMETRY
100
AcDbVertex
100
AcDb2dVertex
 10
4.803149606299213
 20
5.312992125984254
 30
0.0
 70
0
  0
SEQEND
  5
179
330
176
100
AcDbEntity
  8
GEOMETRY
  0
SPLINE
  5
17A
330
17
100
AcDbEntity
  8
GEOMETRY
100
AcDbSpline
 70
0
 71
3
 72
14
 73
10
 74
0
 40
0.0
 40
0.0
 40
0.0
 40
0.0
 40
1.0
 40
1.0
 40
1.0
 40
2.0
 40
2.0
 40
2.0
 40
3.0
 40
3.0
 40
3.0
 40
3.0
 10
4.803149606299213
 20
5.312992125984254
 30
0.0
 10
4.803149606299213
 20
5.295716181583657
 30
0.0
 10
4.798601102494041
 20
5.27874093428434
 30
0.0
 10
4.789963130293744
 20
5.263779527559056
 30
0.0
 10
4.781325158093446
 20
5.248818120833773
 30
0.0
 10
4.768898414599299
 20
5.236391377339626
 30
0.0
 10
4.753937007874016
 20
5.227753405139328
 30
0.0
 10
4.7389756011487325
 20
5.21911543293903
 30
0.0
 10
4.722000353849414
 20
5.214566929133859
 30
0.0
 10
4.7047244094488185
 20
5.214566929133859
 30
0.0
  0
POLYLINE
  5
17B
330
17
100
AcDbEntity
  8
GEOMETRY
100
AcDb2dPolyline
 66
1
 10
0.0
 20
0.0
 30
0.0
 70
0
  0
VERTEX
  5
17C
330
17B
100
AcDbEntity
  8
GEOMETRY
100
AcDbVertex
100
AcDb2dVertex
 10
4.7047244094488185
 20
5.214566929133859
 30
0.0
 70
0
  0
VERTEX
  5
17D
330
17B
100
AcDbEntity
  8
GEOMETRY
100
AcDbVertex
100
AcDb2dVertex
 10
1.3011811023622046
 20
5.214566929133859
 30
0.0
 70
0
  0
SEQEND
  5
17E
330
17B
100
AcDbEntity
  8
GEOMETRY
  0
SPLINE
  5
17F
330
17
100
AcDbEntity
  8
GEOMETRY
100
AcDbSpline
 70
0
 71
3
 72
14
 73
10
 74
0
 40
0.0
 40
0.0
 40
0.0
 40
0.0
 40
1.0
 40
1.0
 40
1.0
 40
2.0
 40
2.0
 40
2.0
 40
3.0
 40
3.0
 40
3.0
 40
3.0
 10
1.3011811023622046
 20
5.214566929133859
 30
0.0
 10
1.2839051579616092
 20
5.214566929133859
 30
0.0
 10
1.266929910662291
 20
5.21911543293903
 30
0.0
 10
1.2519685039370076
 20
5.227753405139328
 30
0.0
 10
1.2370070972117244
 20
5.236391377339626
 30
0.0
 10
1.2245803537175772
 20
5.248818120833773
 30
0.0
 10
1.2159423815172796
 20
5.263779527559056
 30
0.0
 10
1.2073044093169818
 20
5.27874093428434
 30
0.0
 10
1.202755905511811
 20
5.295716181583657
 30
0.0
 10
1.202755905511811
 20
5.312992125984254
 30
0.0
  0
POLYLINE
  5
180
330
17
100
AcDbEntity
  8
GEOMETRY
100
AcDb2dPolyline
 66
1
 10
0.0
 20
0.0
 30
0.0
 70
0
  0
VERTEX
  5
181
330
180
100
AcDbEntity
  8
GEOMETRY
100
AcDbVertex
100
AcDb2dVertex
 10
1.202755905511811
 20
5.312992125984254
 30
0.0
 70
0
  0
VERTEX
  5
182
330
180
100
AcDbEntity
  8
GEOMETRY
100
AcDbVertex
100
AcDb2dVertex
 10
1.202755905511811
 20
5.656830708661419
 30
0.0
 70
0
  0
SEQEND
  5
183
330
180
100
AcDbEntity
  8
GEOMETRY
  0
SPLINE
  5
184
330
17
100
AcDbEntity
  8
GEOMETRY
100
AcDbSpline
 70
0
 71
3
 72
14
 73
10
 74
0
 40
0.0
 40
0.0
 40
0.0
 40
0.0
 40
1.0
 40
1.0
 40
1.0
 40
2.0
 40
2.0
 40
2.0
 40
3.0
 40
3.0
 40
3.0
 40
3.0
 10
1.202755905511811
 20
5.656830708661419
 30
0.0
 10
1.202755905511811
 20
5.674106653062014
 30
0.0
 10
1.2073044093169818
 20
5.691081900361332
 30
0.0
 10
1.2159423815172794
 20
5.706043307086615
 30
0.0
 10
1.2245803537175772
 20
5.721004713811898
 30
0.0
 10
1.2370070972117244
 20
5.733431457306046
 30
0.0
 10
1.2519685039370076
 20
5.742069429506344
 30
0.0
 10
1.266929910662291
 20
5.7507074017066415
 30
0.0
 10
1.2839051579616092
 20
5.755255905511812
 30
0.0
 10
1.3011811023622046
 20
5.755255905511812
 30
0.0
  0
LWPOLYLINE
  5
185
330
17
100
AcDbEntity
  8
GEOMETRY
  6
DASHED
100
AcDbPolyline
 90
5
 70
0
 10
1.1909448818897637
 20
5.6200787401574805
 10
4.81496062992126
 20
5.6200787401574805
 10
4.81496062992126
 20
1.696850393700787
 10
1.1909448818897637
 20
1.696850393700787
 10
1.1909448818897637
 20
5.6200787401574805
  0
LINE
  5
186
330
17
100
AcDbEntity
  8
GEOMETRY
  6
DASHED
100
AcDbLine
 10
3.002952755905512
 20
5.6200787401574805
 30
0.0
 11
3.002952755905512
 21
1.696850393700787
 31
0.0
  0
LINE
  5
187
330
17
100
AcDbEntity
  8
GEOMETRY
  6
DASHED
100
AcDbLine
 10
1.1909448818897637
 20
5.0
 30
0.0
 11
4.81496062992126
 21
5.0
 31
0.0
  0
LINE
  5
188
330
17
100
AcDbEntity
  8
GEOMETRY
  6
DASHED
100
AcDbLine
 10
1.1909448818897637
 20
4.68503937007874
 30
0.0
 11
4.81496062992126
 21
4.68503937007874
 31
0.0
  0
LINE
  5
189
330
17
100
AcDbEntity
  8
GEOMETRY
  6
DASHED
100
AcDbLine
 10
1.1909448818897637
 20
4.3700787401574805
 30
0.0
 11
4.81496062992126
 21
4.3700787401574805
 31
0.0
  0
LINE
  5
18A
330
17
100
AcDbEntity
  8
GEOMETRY
  6
DASHED
100
AcDbLine
 10
1.1909448818897637
 20
4.05511811023622
 30
0.0
 11
4.81496062992126
 21
4.05511811023622
 31
0.0
  0
LINE
  5
18B
330
17
100
AcDbEntity
  8
GEOMETRY
  6
DASHED
100
AcDbLine
 10
1.1909448818897637
 20
3.7401574803149606
 30
0.0
 11
4.81496062992126
 21
3.7401574803149606
 31
0.0
  0
LINE
  5
18C
330
17
100
AcDbEntity
  8
GEOMETRY
  6
DASHED
100
AcDbLine
 10
1.1909448818897637
 20
3.425196850393701
 30
0.0
 11
4.81496062992126
 21
3.425196850393701
 31
0.0
  0
LINE
  5
18D
330
17
100
AcDbEntity
  8
GEOMETRY
  6
DASHED
100
AcDbLine
 10
1.1909448818897637
 20
3.1102362204724407
 30
0.0
 11
4.81496062992126
 21
3.1102362204724407
 31
0.0
  0
LINE
  5
18E
330
17
100
AcDbEntity
  8
GEOMETRY
  6
DASHED
100
AcDbLine
 10
1.1909448818897637
 20
2.795275590551181
 30
0.0
 11
4.81496062992126
 21
2.795275590551181
 31
0.0
  0
LINE
  5
18F
330
17
100
AcDbEntity
  8
GEOMETRY
  6
DASHED
100
AcDbLine
 10
1.1909448818897637
 20
2.4803149606299213
 30
0.0
 11
4.81496062992126
 21
2.4803149606299213
 31
0.0
  0
LINE
  5
190
330
17
100
AcDbEntity
  8
GEOMETRY
  6
DASHED
100
AcDbLine
 10
1.1909448818897637
 20
2.1653543307086616
 30
0.0
 11
4.81496062992126
 21
2.1653543307086616
 31
0.0
  0
LINE
  5
191
330
17
100
AcDbEntity
  8
GEOMETRY
  6
DASHED
100
AcDbLine
 10
1.1909448818897637
 20
1.8503937007874016
 30
0.0
 11
4.81496062992126
 21
1.8503937007874016
 31
0.0
  0
CIRCLE
  5
192
330
17
100
AcDbEntity
  8
GEOMETRY
100
AcDbCircle
 10
1.3976377952755905
 20
5.413385826771654
 30
0.0
 40
0.09350393700787402
  0
CIRCLE
  5
193
330
17
100
AcDbEntity
  8
GEOMETRY
100
AcDbCircle
 10
4.608267716535433
 20
5.413385826771654
 30
0.0
 40
0.09350393700787402
  0
CIRCLE
  5
194
330
17
100
AcDbEntity
  8
GEOMETRY
100
AcDbCircle
 10
1.3976377952755905
 20
1.903543307086614
 30
0.0
 40
0.09350393700787402
  0
CIRCLE
  5
195
330
17
100
AcDbEntity
  8
GEOMETRY
100
AcDbCircle
 10
4.608267716535433
 20
1.903543307086614
 30
0.0
 40
0.09350393700787402
  0
CIRCLE
  5
196
330
17
100
AcDbEntity
  8
GEOMETRY
  6
DASHED
100
AcDbCircle
 10
3.002952755905512
 20
3.6584645669291342
 30
0.0
 40
0.09350393700787402
  0
LINE
  5
197
330
17
100
AcDbEntity
  8
DIMENSIONS
100
AcDbLine
 10
5.100393700787402
 20
5.76771653543307
 30
0.0
 11
5.100393700787402
 21
1.5492125984251977
 31
0.0
  0
LINE
  5
198
330
17
100
AcDbEntity
  8
DIMENSIONS
100
AcDbLine
 10
4.942913385826771
 20
5.708661417322834
 30
0.0
 11
5.147637795275591
 21
5.708661417322834
 31
0.0
  0
LINE
  5
199
330
17
100
AcDbEntity
  8
DIMENSIONS
100
AcDbLine
 10
5.061023622047244
 20
5.669291338582677
 30
0.0
 11
5.139763779527559
 21
5.748031496062992
 31
0.0
  0
LINE
  5
19A
330
17
100
AcDbEntity
  8
DIMENSIONS
100
AcDbLine
 10
4.942913385826771
 20
1.608267716535434
 30
0.0
 11
5.147637795275591
 21
1.608267716535434
 31
0.0
  0
LINE
  5
19B
330
17
100
AcDbEntity
  8
DIMENSIONS
100
AcDbLine
 10
5.061023622047244
 20
1.5688976377952764
 30
0.0
 11
5.139763779527559
 21
1.6476377952755903
 31
0.0
  0
TEXT
  5
19C
330
17
100
AcDbEntity
  8
TEXT
100
AcDbText
 10
5.068897637795276
 20
3.658661417322835
 30
0.0
 40
0.03401574803149606
  1
6'-10"
 50
90.0
 72
1
 11
5.068897637795276
 21
3.658661417322835
 31
0.0
100
AcDbText
  0
LINE
  5
19D
330
17
100
AcDbEntity
  8
DIMENSIONS
100
AcDbLine
 10
1.0433070866141732
 20
1.4114173228346465
 30
0.0
 11
4.96259842519685
 21
1.4114173228346465
 31
0.0
  0
LINE
  5
19E
330
17
100
AcDbEntity
  8
DIMENSIONS
100
AcDbLine
 10
1.1023622047244095
 20
1.5688976377952764
 30
0.0
 11
1.1023622047244095
 21
1.3641732283464558
 31
0.0
  0
LINE
  5
19F
330
17
100
AcDbEntity
  8
DIMENSIONS
100
AcDbLine
 10
1.0629921259842519
 20
1.372047244094489
 30
0.0
 11
1.141732283464567
 21
1.4507874015748041
 31
0.0
  0
LINE
  5
1A0
330
17
100
AcDbEntity
  8
DIMENSIONS
100
AcDbLine
 10
4.903543307086614
 20
1.5688976377952764
 30
0.0
 11
4.903543307086614
 21
1.3641732283464558
 31
0.0
  0
LINE
  5
1A1
330
17
100
AcDbEntity
  8
DIMENSIONS
100
AcDbLine
 10
4.8641732283464565
 20
1.372047244094489
 30
0.0
 11
4.942913385826771
 21
1.4507874015748041
 31
0.0
  0
TEXT
  5
1A2
330
17
100
AcDbEntity
  8
TEXT
100
AcDbText
 10
3.0031496062992127
 20
1.4429133858267706
 30
0.0
 40
0.03401574803149606
  1
6'-4"
 72
1
 11
3.0031496062992127
 21
1.4429133858267706
 31
0.0
100
AcDbText
  0
TEXT
  5
1A3
330
17
100
AcDbEntity
  8
TEXT
100
AcDbText
 10
5.511811023622047
 20
6.102362204724409
 30
0.0
 40
0.09070866141732283
  1
1 · TURNED FOOT
 11
5.511811023622047
 21
6.102362204724409
 31
0.0
100
AcDbText
  0
LINE
  5
1A4
330
17
100
AcDbEntity
  8
GEOMETRY
100
AcDbLine
 10
5.511811023622047
 20
6.043307086614173
 30
0.0
 11
7.480314960629921
 21
6.043307086614173
 31
0.0
  0
TEXT
  5
1A5
330
17
100
AcDbEntity
  8
TEXT
100
AcDbText
 10
5.511811023622047
 20
5.913385826771653
 30
0.0
 40
0.048188976377952754
  1
ELEVATION · SCALE 1:4
 11
5.511811023622047
 21
5.913385826771653
 31
0.0
100
AcDbText
  0
POLYLINE
  5
1A6
330
17
100
AcDbEntity
  8
GEOMETRY
100
AcDb2dPolyline
 66
1
 10
0.0
 20
0.0
 30
0.0
 70
0
  0
VERTEX
  5
1A7
330
1A6
100
AcDbEntity
  8
GEOMETRY
100
AcDbVertex
100
AcDb2dVertex
 10
6.1515748031496065
 20
5.1574803149606305
 30
0.0
 70
0
  0
VERTEX
  5
1A8
330
1A6
100
AcDbEntity
  8
GEOMETRY
100
AcDbVertex
100
AcDb2dVertex
 10
6.1515748031496065
 20
5.000000000000001
 30
0.0
 70
0
  0
SEQEND
  5
1A9
330
1A6
100
AcDbEntity
  8
GEOMETRY
  0
SPLINE
  5
1AA
330
17
100
AcDbEntity
  8
GEOMETRY
100
AcDbSpline
 70
0
 71
3
 72
8
 73
4
 74
0
 40
0.0
 40
0.0
 40
0.0
 40
0.0
 40
1.0
 40
1.0
 40
1.0
 40
1.0
 10
6.1515748031496065
 20
5.000000000000001
 30
0.0
 10
6.028543307086614
 20
4.862204724409449
 30
0.0
 10
5.9891732283464565
 20
4.271653543307087
 30
0.0
 10
6.028543307086614
 20
4.0748031496063
 30
0.0
  0
SPLINE
  5
1AB
330
17
100
AcDbEntity
  8
GEOMETRY
100
AcDbSpline
 70
0
 71
3
 72
8
 73
4
 74
0
 40
0.0
 40
0.0
 40
0.0
 40
0.0
 40
1.0
 40
1.0
 40
1.0
 40
1.0
 10
6.028543307086614
 20
4.0748031496063
 30
0.0
 10
6.08759842519685
 20
3.7007874015748037
 30
0.0
 10
6.200787401574803
 20
3.5039370078740166
 30
0.0
 10
6.200787401574803
 20
3.405511811023622
 30
0.0
  0
POLYLINE
  5
1AC
330
17
100
AcDbEntity
  8
GEOMETRY
100
AcDb2dPolyline
 66
1
 10
0.0
 20
0.0
 30
0.0
 70
0
  0
VERTEX
  5
1AD
330
1AC
100
AcDbEntity
  8
GEOMETRY
100
AcDbVertex
100
AcDb2dVertex
 10
6.200787401574803
 20
3.405511811023622
 30
0.0
 70
0
  0
VERTEX
  5
1AE
330
1AC
100
AcDbEntity
  8
GEOMETRY
100
AcDbVertex
100
AcDb2dVertex
 10
6.791338582677165
 20
3.405511811023622
 30
0.0
 70
0
  0
SEQEND
  5
1AF
330
1AC
100
AcDbEntity
  8
GEOMETRY
  0
SPLINE
  5
1B0
330
17
100
AcDbEntity
  8
GEOMETRY
100
AcDbSpline
 70
0
 71
3
 72
8
 73
4
 74
0
 40
0.0
 40
0.0
 40
0.0
 40
0.0
 40
1.0
 40
1.0
 40
1.0
 40
1.0
 10
6.791338582677165
 20
3.405511811023622
 30
0.0
 10
6.791338582677165
 20
3.5039370078740166
 30
0.0
 10
6.904527559055118
 20
3.7007874015748037
 30
0.0
 10
6.963582677165355
 20
4.0748031496063
 30
0.0
  0
SPLINE
  5
1B1
330
17
100
AcDbEntity
  8
GEOMETRY
100
AcDbSpline
 70
0
 71
3
 72
8
 73
4
 74
0
 40
0.0
 40
0.0
 40
0.0
 40
0.0
 40
1.0
 40
1.0
 40
1.0
 40
1.0
 10
6.963582677165355
 20
4.0748031496063
 30
0.0
 10
7.002952755905512
 20
4.271653543307087
 30
0.0
 10
6.963582677165355
 20
4.862204724409449
 30
0.0
 10
6.840551181102362
 20
5.000000000000001
 30
0.0
  0
POLYLINE
  5
1B2
330
17
100
AcDbEntity
  8
GEOMETRY
100
AcDb2dPolyline
 66
1
 10
0.0
 20
0.0
 30
0.0
 70
0
  0
VERTEX
  5
1B3
330
1B2
100
AcDbEntity
  8
GEOMETRY
100
AcDbVertex
100
AcDb2dVertex
 10
6.840551181102362
 20
5.000000000000001
 30
0.0
 70
0
  0
VERTEX
  5
1B4
330
1B2
100
AcDbEntity
  8
GEOMETRY
100
AcDbVertex
100
AcDb2dVertex
 10
6.840551181102362
 20
5.1574803149606305
 30
0.0
 70
0
  0
VERTEX
  5
1B5
330
1B2
100
AcDbEntity
  8
GEOMETRY
100
AcDbVertex
100
AcDb2dVertex
 10
6.1515748031496065
 20
5.1574803149606305
 30
0.0
 70
0
  0
SEQEND
  5
1B6
330
1B2
100
AcDbEntity
  8
GEOMETRY
  0
LINE
  5
1B7
330
17
100
AcDbEntity
  8
GEOMETRY
100
AcDbLine
 10
6.1515748031496065
 20
5.0
 30
0.0
 11
6.840551181102362
 21
5.0
 31
0.0
  0
LINE
  5
1B8
330
17
100
AcDbEntity
  8
GEOMETRY
100
AcDbLine
 10
5.708661417322834
 20
3.405511811023622
 30
0.0
 11
7.283464566929133
 21
3.405511811023622
 31
0.0
  0
LWPOLYLINE
  5
1B9
330
17
100
AcDbEntity
  8
GEOMETRY
100
AcDbPolyline
 90
5
 70
0
 10
5.610236220472441
 20
5.5511811023622055
 10
7.381889763779528
 20
5.5511811023622055
 10
7.381889763779528
 20
5.1574803149606305
 10
5.610236220472441
 20
5.1574803149606305
 10
5.610236220472441
 20
5.5511811023622055
  0
LINE
  5
1BA
330
17
100
AcDbEntity
  8
DIMENSIONS
100
AcDbLine
 10
7.199999999999999
 20
5.216535433070866
 30
0.0
 11
7.199999999999999
 21
3.3464566929133857
 31
0.0
  0
LINE
  5
1BB
330
17
100
AcDbEntity
  8
DIMENSIONS
100
AcDbLine
 10
7.003149606299212
 20
5.15748031496063
 30
0.0
 11
7.247244094488189
 21
5.15748031496063
 31
0.0
  0
LINE
  5
1BC
330
17
100
AcDbEntity
  8
DIMENSIONS
100
AcDbLine
 10
7.160629921259842
 20
5.118110236220472
 30
0.0
 11
7.239370078740158
 21
5.196850393700787
 31
0.0
  0
LINE
  5
1BD
330
17
100
AcDbEntity
  8
DIMENSIONS
100
AcDbLine
 10
7.003149606299212
 20
3.405511811023622
 30
0.0
 11
7.247244094488189
 21
3.405511811023622
 31
0.0
  0
LINE
  5
1BE
330
17
100
AcDbEntity
  8
DIMENSIONS
100
AcDbLine
 10
7.160629921259842
 20
3.3661417322834644
 30
0.0
 11
7.239370078740158
 21
3.4448818897637796
 31
0.0
  0
TEXT
  5
1BF
330
17
100
AcDbEntity
  8
TEXT
100
AcDbText
 10
7.168503937007874
 20
4.281496062992125
 30
0.0
 40
0.03401574803149606
  1
7"
 50
90.0
 72
1
 11
7.168503937007874
 21
4.281496062992125
 31
0.0
100
AcDbText
  0
LINE
  5
1C0
330
17
100
AcDbEntity
  8
DIMENSIONS
100
AcDbLine
 10
5.969685039370079
 20
3.2086614173228347
 30
0.0
 11
7.022834645669291
 21
3.2086614173228347
 31
0.0
  0
LINE
  5
1C1
330
17
100
AcDbEntity
  8
DIMENSIONS
100
AcDbLine
 10
6.028740157480315
 20
3.3661417322834644
 30
0.0
 11
6.028740157480315
 21
3.1614173228346463
 31
0.0
  0
LINE
  5
1C2
330
17
100
AcDbEntity
  8
DIMENSIONS
100
AcDbLine
 10
5.989370078740158
 20
3.1692913385826773
 30
0.0
 11
6.068110236220472
 21
3.248031496062992
 31
0.0
  0
LINE
  5
1C3
330
17
100
AcDbEntity
  8
DIMENSIONS
100
AcDbLine
 10
6.963779527559055
 20
3.3661417322834644
 30
0.0
 11
6.963779527559055
 21
3.1614173228346463
 31
0.0
  0
LINE
  5
1C4
330
17
100
AcDbEntity
  8
DIMENSIONS
100
AcDbLine
 10
6.924409448818897
 20
3.1692913385826773
 30
0.0
 11
7.003149606299212
 21
3.248031496062992
 31
0.0
  0
TEXT
  5
1C5
330
17
100
AcDbEntity
  8
TEXT
100
AcDbText
 10
6.496062992125984
 20
3.240157480314961
 30
0.0
 40
0.03401574803149606
  1
3¾"
 72
1
 11
6.496062992125984
 21
3.240157480314961
 31
0.0
100
AcDbText
  0
LINE
  5
1C6
330
17
100
AcDbEntity
  8
GEOMETRY
100
AcDbLine
 10
6.496062992125984
 20
5.078740157480315
 30
0.0
 11
7.593700787401574
 21
5.452755905511811
 31
0.0
  0
TEXT
  5
1C7
330
17
100
AcDbEntity
  8
TEXT
100
AcDbText
 10
7.633070866141732
 20
5.44488188976378
 30
0.0
 40
0.048188976377952754
  1
COLLAR
 11
7.633070866141732
 21
5.44488188976378
 31
0.0
100
AcDbText
  0
TEXT
  5
1C8
330
17
100
AcDbEntity
  8
TEXT
100
AcDbText
 10
7.633070866141732
 20
5.354330708661418
 30
0.0
 40
0.04110236220472441
  1
TURNED IN THE SOLID
 11
7.633070866141732
 21
5.354330708661418
 31
0.0
100
AcDbText
  0
TEXT
  5
1C9
330
17
100
AcDbEntity
  8
TEXT
100
AcDbText
 10
8.11023622047244
 20
6.102362204724409
 30
0.0
 40
0.09070866141732283
  1
2 · THE BACK CUSHION
 11
8.11023622047244
 21
6.102362204724409
 31
0.0
100
AcDbText
  0
LINE
  5
1CA
330
17
100
AcDbEntity
  8
GEOMETRY
100
AcDbLine
 10
8.11023622047244
 20
6.043307086614173
 30
0.0
 11
10.078740157480315
 21
6.043307086614173
 31
0.0
  0
TEXT
  5
1CB
330
17
100
AcDbEntity
  8
TEXT
100
AcDbText
 10
8.11023622047244
 20
5.913385826771653
 30
0.0
 40
0.048188976377952754
  1
SECTION · SCALE 1:5
 11
8.11023622047244
 21
5.913385826771653
 31
0.0
100
AcDbText
  0
POLYLINE
  5
1CC
330
17
100
AcDbEntity
  8
GEOMETRY
100
AcDb2dPolyline
 66
1
 10
0.0
 20
0.0
 30
0.0
 70
0
  0
VERTEX
  5
1CD
330
1CC
100
AcDbEntity
  8
GEOMETRY
100
AcDbVertex
100
AcDb2dVertex
 10
8.818897637795276
 20
5.5511811023622055
 30
0.0
 70
0
  0
VERTEX
  5
1CE
330
1CC
100
AcDbEntity
  8
GEOMETRY
100
AcDbVertex
100
AcDb2dVertex
 10
9.606299212598426
 20
5.5511811023622055
 30
0.0
 70
0
  0
SEQEND
  5
1CF
330
1CC
100
AcDbEntity
  8
GEOMETRY
  0
SPLINE
  5
1D0
330
17
100
AcDbEntity
  8
GEOMETRY
100
AcDbSpline
 70
0
 71
3
 72
14
 73
10
 74
0
 40
0.0
 40
0.0
 40
0.0
 40
0.0
 40
1.0
 40
1.0
 40
1.0
 40
2.0
 40
2.0
 40
2.0
 40
3.0
 40
3.0
 40
3.0
 40
3.0
 10
9.606299212598426
 20
5.5511811023622055
 30
0.0
 10
9.675402990200807
 20
5.5511811023622055
 30
0.0
 10
9.743303979398078
 20
5.532987087141523
 30
0.0
 10
9.803149606299213
 20
5.4984351983403315
 30
0.0
 10
9.862995233200346
 20
5.463883309539139
 30
0.0
 10
9.912702207176935
 20
5.414176335562551
 30
0.0
 10
9.947254095978126
 20
5.354330708661418
 30
0.0
 10
9.981805984779317
 20
5.294485081760285
 30
0.0
 10
10.0
 20
5.226584092563012
 30
0.0
 10
10.0
 20
5.1574803149606305
 30
0.0
  0
POLYLINE
  5
1D1
330
17
100
AcDbEntity
  8
GEOMETRY
100
AcDb2dPolyline
 66
1
 10
0.0
 20
0.0
 30
0.0
 70
0
  0
VERTEX
  5
1D2
330
1D1
100
AcDbEntity
  8
GEOMETRY
100
AcDbVertex
100
AcDb2dVertex
 10
10.0
 20
5.1574803149606305
 30
0.0
 70
0
  0
VERTEX
  5
1D3
330
1D1
100
AcDbEntity
  8
GEOMETRY
100
AcDbVertex
100
AcDb2dVertex
 10
10.0
 20
2.559055118110237
 30
0.0
 70
0
  0
SEQEND
  5
1D4
330
1D1
100
AcDbEntity
  8
GEOMETRY
  0
SPLINE
  5
1D5
330
17
100
AcDbEntity
  8
GEOMETRY
100
AcDbSpline
 70
0
 71
3
 72
14
 73
10
 74
0
 40
0.0
 40
0.0
 40
0.0
 40
0.0
 40
1.0
 40
1.0
 40
1.0
 40
2.0
 40
2.0
 40
2.0
 40
3.0
 40
3.0
 40
3.0
 40
3.0
 10
10.0
 20
2.559055118110237
 30
0.0
 10
10.0
 20
2.4899513405078544
 30
0.0
 10
9.981805984779317
 20
2.422050351310583
 30
0.0
 10
9.947254095978126
 20
2.36220472440945
 30
0.0
 10
9.912702207176935
 20
2.3023590975083152
 30
0.0
 10
9.862995233200346
 20
2.2526521235317283
 30
0.0
 10
9.803149606299213
 20
2.218100234730537
 30
0.0
 10
9.743303979398078
 20
2.183548345929344
 30
0.0
 10
9.675402990200807
 20
2.165354330708663
 30
0.0
 10
9.606299212598426
 20
2.165354330708663
 30
0.0
  0
POLYLINE
  5
1D6
330
17
100
AcDbEntity
  8
GEOMETRY
100
AcDb2dPolyline
 66
1
 10
0.0
 20
0.0
 30
0.0
 70
0
  0
VERTEX
  5
1D7
330
1D6
100
AcDbEntity
  8
GEOMETRY
100
AcDbVertex
100
AcDb2dVertex
 10
9.606299212598426
 20
2.165354330708663
 30
0.0
 70
0
  0
VERTEX
  5
1D8
330
1D6
100
AcDbEntity
  8
GEOMETRY
100
AcDbVertex
100
AcDb2dVertex
 10
8.818897637795276
 20
2.165354330708663
 30
0.0
 70
0
  0
SEQEND
  5
1D9
330
1D6
100
AcDbEntity
  8
GEOMETRY
  0
SPLINE
  5
1DA
330
17
100
AcDbEntity
  8
GEOMETRY
100
AcDbSpline
 70
0
 71
3
 72
14
 73
10
 74
0
 40
0.0
 40
0.0
 40
0.0
 40
0.0
 40
1.0
 40
1.0
 40
1.0
 40
2.0
 40
2.0
 40
2.0
 40
3.0
 40
3.0
 40
3.0
 40
3.0
 10
8.818897637795276
 20
2.165354330708663
 30
0.0
 10
8.749793860192893
 20
2.165354330708663
 30
0.0
 10
8.681892870995622
 20
2.183548345929344
 30
0.0
 10
8.622047244094489
 20
2.218100234730537
 30
0.0
 10
8.562201617193354
 20
2.2526521235317283
 30
0.0
 10
8.512494643216767
 20
2.3023590975083152
 30
0.0
 10
8.477942754415574
 20
2.36220472440945
 30
0.0
 10
8.443390865614383
 20
2.422050351310583
 30
0.0
 10
8.4251968503937
 20
2.4899513405078544
 30
0.0
 10
8.4251968503937
 20
2.559055118110237
 30
0.0
  0
POLYLINE
  5
1DB
330
17
100
AcDbEntity
  8
GEOMETRY
100
AcDb2dPolyline
 66
1
 10
0.0
 20
0.0
 30
0.0
 70
0
  0
VERTEX
  5
1DC
330
1DB
100
AcDbEntity
  8
GEOMETRY
100
AcDbVertex
100
AcDb2dVertex
 10
8.4251968503937
 20
2.559055118110237
 30
0.0
 70
0
  0
VERTEX
  5
1DD
330
1DB
100
AcDbEntity
  8
GEOMETRY
100
AcDbVertex
100
AcDb2dVertex
 10
8.4251968503937
 20
5.1574803149606305
 30
0.0
 70
0
  0
SEQEND
  5
1DE
330
1DB
100
AcDbEntity
  8
GEOMETRY
  0
SPLINE
  5
1DF
330
17
100
AcDbEntity
  8
GEOMETRY
100
AcDbSpline
 70
0
 71
3
 72
14
 73
10
 74
0
 40
0.0
 40
0.0
 40
0.0
 40
0.0
 40
1.0
 40
1.0
 40
1.0
 40
2.0
 40
2.0
 40
2.0
 40
3.0
 40
3.0
 40
3.0
 40
3.0
 10
8.4251968503937
 20
5.1574803149606305
 30
0.0
 10
8.4251968503937
 20
5.226584092563012
 30
0.0
 10
8.443390865614383
 20
5.294485081760285
 30
0.0
 10
8.477942754415574
 20
5.354330708661418
 30
0.0
 10
8.512494643216767
 20
5.414176335562551
 30
0.0
 10
8.562201617193354
 20
5.463883309539139
 30
0.0
 10
8.622047244094489
 20
5.4984351983403315
 30
0.0
 10
8.681892870995622
 20
5.532987087141523
 30
0.0
 10
8.749793860192893
 20
5.5511811023622055
 30
0.0
 10
8.818897637795276
 20
5.5511811023622055
 30
0.0
  0
POLYLINE
  5
1E0
330
17
100
AcDbEntity
  8
GEOMETRY
  6
DASHED
100
AcDb2dPolyline
 66
1
 10
0.0
 20
0.0
 30
0.0
 70
0
  0
VERTEX
  5
1E1
330
1E0
100
AcDbEntity
  8
GEOMETRY
  6
DASHED
100
AcDbVertex
100
AcDb2dVertex
 10
8.850393700787402
 20
5.377952755905512
 30
0.0
 70
0
  0
VERTEX
  5
1E2
330
1E0
100
AcDbEntity
  8
GEOMETRY
  6
DASHED
100
AcDbVertex
100
AcDb2dVertex
 10
9.5748031496063
 20
5.377952755905512
 30
0.0
 70
0
  0
SEQEND
  5
1E3
330
1E0
100
AcDbEntity
  8
GEOMETRY
  0
SPLINE
  5
1E4
330
17
100
AcDbEntity
  8
GEOMETRY
  6
DASHED
100
AcDbSpline
 70
0
 71
3
 72
14
 73
10
 74
0
 40
0.0
 40
0.0
 40
0.0
 40
0.0
 40
1.0
 40
1.0
 40
1.0
 40
2.0
 40
2.0
 40
2.0
 40
3.0
 40
3.0
 40
3.0
 40
3.0
 10
9.5748031496063
 20
5.377952755905512
 30
0.0
 10
9.619029567271825
 20
5.377952755905512
 30
0.0
 10
9.662486200358078
 20
5.3663085861642745
 30
0.0
 10
9.700787401574804
 20
5.344195377331512
 30
0.0
 10
9.73908860279153
 20
5.32208216849875
 30
0.0
 10
9.770901066136545
 20
5.290269705153735
 30
0.0
 10
9.793014274969307
 20
5.251968503937008
 30
0.0
 10
9.81512748380207
 20
5.213667302720283
 30
0.0
 10
9.826771653543307
 20
5.170210669634029
 30
0.0
 10
9.826771653543307
 20
5.125984251968504
 30
0.0
  0
POLYLINE
  5
1E5
330
17
100
AcDbEntity
  8
GEOMETRY
  6
DASHED
100
AcDb2dPolyline
 66
1
 10
0.0
 20
0.0
 30
0.0
 70
0
  0
VERTEX
  5
1E6
330
1E5
100
AcDbEntity
  8
GEOMETRY
  6
DASHED
100
AcDbVertex
100
AcDb2dVertex
 10
9.826771653543307
 20
5.125984251968504
 30
0.0
 70
0
  0
VERTEX
  5
1E7
330
1E5
100
AcDbEntity
  8
GEOMETRY
  6
DASHED
100
AcDbVertex
100
AcDb2dVertex
 10
9.826771653543307
 20
2.590551181102363
 30
0.0
 70
0
  0
SEQEND
  5
1E8
330
1E5
100
AcDbEntity
  8
GEOMETRY
  0
SPLINE
  5
1E9
330
17
100
AcDbEntity
  8
GEOMETRY
  6
DASHED
100
AcDbSpline
 70
0
 71
3
 72
14
 73
10
 74
0
 40
0.0
 40
0.0
 40
0.0
 40
0.0
 40
1.0
 40
1.0
 40
1.0
 40
2.0
 40
2.0
 40
2.0
 40
3.0
 40
3.0
 40
3.0
 40
3.0
 10
9.826771653543307
 20
2.590551181102363
 30
0.0
 10
9.826771653543307
 20
2.5463247634368376
 30
0.0
 10
9.81512748380207
 20
2.502868130350585
 30
0.0
 10
9.793014274969307
 20
2.464566929133859
 30
0.0
 10
9.770901066136545
 20
2.4262657279171336
 30
0.0
 10
9.73908860279153
 20
2.3944532645721157
 30
0.0
 10
9.700787401574804
 20
2.372340055739354
 30
0.0
 10
9.662486200358078
 20
2.350226846906592
 30
0.0
 10
9.619029567271825
 20
2.3385826771653537
 30
0.0
 10
9.5748031496063
 20
2.3385826771653537
 30
0.0
  0
POLYLINE
  5
1EA
330
17
100
AcDbEntity
  8
GEOMETRY
  6
DASHED
100
AcDb2dPolyline
 66
1
 10
0.0
 20
0.0
 30
0.0
 70
0
  0
VERTEX
  5
1EB
330
1EA
100
AcDbEntity
  8
GEOMETRY
  6
DASHED
100
AcDbVertex
100
AcDb2dVertex
 10
9.5748031496063
 20
2.3385826771653537
 30
0.0
 70
0
  0
VERTEX
  5
1EC
330
1EA
100
AcDbEntity
  8
GEOMETRY
  6
DASHED
100
AcDbVertex
100
AcDb2dVertex
 10
8.850393700787402
 20
2.3385826771653537
 30
0.0
 70
0
  0
SEQEND
  5
1ED
330
1EA
100
AcDbEntity
  8
GEOMETRY
  0
SPLINE
  5
1EE
330
17
100
AcDbEntity
  8
GEOMETRY
  6
DASHED
100
AcDbSpline
 70
0
 71
3
 72
14
 73
10
 74
0
 40
0.0
 40
0.0
 40
0.0
 40
0.0
 40
1.0
 40
1.0
 40
1.0
 40
2.0
 40
2.0
 40
2.0
 40
3.0
 40
3.0
 40
3.0
 40
3.0
 10
8.850393700787402
 20
2.3385826771653537
 30
0.0
 10
8.806167283121876
 20
2.3385826771653537
 30
0.0
 10
8.762710650035624
 20
2.350226846906592
 30
0.0
 10
8.724409448818898
 20
2.372340055739354
 30
0.0
 10
8.686108247602172
 20
2.3944532645721157
 30
0.0
 10
8.654295784257156
 20
2.426265727917132
 30
0.0
 10
8.632182575424395
 20
2.4645669291338574
 30
0.0
 10
8.610069366591631
 20
2.502868130350583
 30
0.0
 10
8.598425196850394
 20
2.5463247634368376
 30
0.0
 10
8.598425196850394
 20
2.590551181102363
 30
0.0
  0
POLYLINE
  5
1EF
330
17
100
AcDbEntity
  8
GEOMETRY
  6
DASHED
100
AcDb2dPolyline
 66
1
 10
0.0
 20
0.0
 30
0.0
 70
0
  0
VERTEX
  5
1F0
330
1EF
100
AcDbEntity
  8
GEOMETRY
  6
DASHED
100
AcDbVertex
100
AcDb2dVertex
 10
8.598425196850394
 20
2.590551181102363
 30
0.0
 70
0
  0
VERTEX
  5
1F1
330
1EF
100
AcDbEntity
  8
GEOMETRY
  6
DASHED
100
AcDbVertex
100
AcDb2dVertex
 10
8.598425196850394
 20
5.125984251968504
 30
0.0
 70
0
  0
SEQEND
  5
1F2
330
1EF
100
AcDbEntity
  8
GEOMETRY
  0
SPLINE
  5
1F3
330
17
100
AcDbEntity
  8
GEOMETRY
  6
DASHED
100
AcDbSpline
 70
0
 71
3
 72
14
 73
10
 74
0
 40
0.0
 40
0.0
 40
0.0
 40
0.0
 40
1.0
 40
1.0
 40
1.0
 40
2.0
 40
2.0
 40
2.0
 40
3.0
 40
3.0
 40
3.0
 40
3.0
 10
8.598425196850394
 20
5.125984251968504
 30
0.0
 10
8.598425196850394
 20
5.170210669634029
 30
0.0
 10
8.610069366591631
 20
5.213667302720282
 30
0.0
 10
8.632182575424395
 20
5.251968503937007
 30
0.0
 10
8.654295784257156
 20
5.290269705153733
 30
0.0
 10
8.68610824760217
 20
5.32208216849875
 30
0.0
 10
8.724409448818898
 20
5.344195377331512
 30
0.0
 10
8.762710650035624
 20
5.3663085861642745
 30
0.0
 10
8.806167283121876
 20
5.377952755905512
 30
0.0
 10
8.850393700787402
 20
5.377952755905512
 30
0.0
  0
CIRCLE
  5
1F4
330
17
100
AcDbEntity
  8
GEOMETRY
100
AcDbCircle
 10
8.543307086614172
 20
5.433070866141732
 30
0.0
 40
0.03937007874015748
  0
CIRCLE
  5
1F5
330
17
100
AcDbEntity
  8
GEOMETRY
100
AcDbCircle
 10
9.881889763779528
 20
5.433070866141732
 30
0.0
 40
0.03937007874015748
  0
CIRCLE
  5
1F6
330
17
100
AcDbEntity
  8
GEOMETRY
100
AcDbCircle
 10
8.543307086614172
 20
2.283464566929134
 30
0.0
 40
0.03937007874015748
  0
CIRCLE
  5
1F7
330
17
100
AcDbEntity
  8
GEOMETRY
100
AcDbCircle
 10
9.881889763779528
 20
2.283464566929134
 30
0.0
 40
0.03937007874015748
  0
LINE
  5
1F8
330
17
100
AcDbEntity
  8
DIMENSIONS
100
AcDbLine
 10
8.366141732283465
 20
5.669291338582677
 30
0.0
 11
10.059055118110235
 21
5.669291338582677
 31
0.0
  0
LINE
  5
1F9
330
17
100
AcDbEntity
  8
DIMENSIONS
100
AcDbLine
 10
8.4251968503937
 20
5.551181102362205
 30
0.0
 11
8.4251968503937
 21
5.622047244094489
 31
0.0
  0
LINE
  5
1FA
330
17
100
AcDbEntity
  8
DIMENSIONS
100
AcDbLine
 10
8.385826771653543
 20
5.6299212598425195
 30
0.0
 11
8.464566929133857
 21
5.708661417322834
 31
0.0
  0
LINE
  5
1FB
330
17
100
AcDbEntity
  8
DIMENSIONS
100
AcDbLine
 10
10.0
 20
5.551181102362205
 30
0.0
 11
10.0
 21
5.622047244094489
 31
0.0
  0
LINE
  5
1FC
330
17
100
AcDbEntity
  8
DIMENSIONS
100
AcDbLine
 10
9.960629921259843
 20
5.6299212598425195
 30
0.0
 11
10.039370078740157
 21
5.708661417322834
 31
0.0
  0
TEXT
  5
1FD
330
17
100
AcDbEntity
  8
TEXT
100
AcDbText
 10
9.21259842519685
 20
5.700787401574804
 30
0.0
 40
0.03259842519685039
  1
7⅞"
 72
1
 11
9.21259842519685
 21
5.700787401574804
 31
0.0
100
AcDbText
  0
LINE
  5
1FE
330
17
100
AcDbEntity
  8
DIMENSIONS
100
AcDbLine
 10
10.196850393700787
 20
5.610236220472441
 30
0.0
 11
10.196850393700787
 21
2.106299212598425
 31
0.0
  0
LINE
  5
1FF
330
17
100
AcDbEntity
  8
DIMENSIONS
100
AcDbLine
 10
10.039370078740157
 20
5.551181102362205
 30
0.0
 11
10.244094488188976
 21
5.551181102362205
 31
0.0
  0
LINE
  5
200
330
17
100
AcDbEntity
  8
DIMENSIONS
100
AcDbLine
 10
10.15748031496063
 20
5.511811023622047
 30
0.0
 11
10.236220472440944
 21
5.590551181102362
 31
0.0
  0
LINE
  5
201
330
17
100
AcDbEntity
  8
DIMENSIONS
100
AcDbLine
 10
10.039370078740157
 20
2.1653543307086616
 30
0.0
 11
10.244094488188976
 21
2.1653543307086616
 31
0.0
  0
LINE
  5
202
330
17
100
AcDbEntity
  8
DIMENSIONS
100
AcDbLine
 10
10.15748031496063
 20
2.1259842519685037
 30
0.0
 11
10.236220472440944
 21
2.204724409448819
 31
0.0
  0
TEXT
  5
203
330
17
100
AcDbEntity
  8
TEXT
100
AcDbText
 10
10.165354330708661
 20
3.858267716535433
 30
0.0
 40
0.03259842519685039
  1
1'-4⅞"
 50
90.0
 72
1
 11
10.165354330708661
 21
3.858267716535433
 31
0.0
100
AcDbText
  0
LINE
  5
204
330
17
100
AcDbEntity
  8
GEOMETRY
100
AcDbLine
 10
9.21259842519685
 20
3.858267716535433
 30
0.0
 11
10.472440944881889
 21
3.543307086614173
 31
0.0
  0
TEXT
  5
205
330
17
100
AcDbEntity
  8
TEXT
100
AcDbText
 10
10.511811023622046
 20
3.535433070866142
 30
0.0
 40
0.048188976377952754
  1
FOAM
 11
10.511811023622046
 21
3.535433070866142
 31
0.0
100
AcDbText
  0
TEXT
  5
206
330
17
100
AcDbEntity
  8
TEXT
100
AcDbText
 10
10.511811023622046
 20
3.4448818897637796
 30
0.0
 40
0.04110236220472441
  1
FEATHER-WRAPPED
 11
10.511811023622046
 21
3.4448818897637796
 31
0.0
100
AcDbText
  0
LINE
  5
207
330
17
100
AcDbEntity
  8
GEOMETRY
100
AcDbLine
 10
9.881889763779528
 20
5.433070866141732
 30
0.0
 11
10.472440944881889
 21
5.0
 31
0.0
  0
TEXT
  5
208
330
17
100
AcDbEntity
  8
TEXT
100
AcDbText
 10
10.511811023622046
 20
4.9921259842519685
 30
0.0
 40
0.048188976377952754
  1
PIPED EDGES
 11
10.511811023622046
 21
4.9921259842519685
 31
0.0
100
AcDbText
  0
TEXT
  5
209
330
17
100
AcDbEntity
  8
TEXT
100
AcDbText
 10
10.511811023622046
 20
4.9015748031496065
 30
0.0
 40
0.04110236220472441
  1
CREAM WEAVE, ZIPPED
 11
10.511811023622046
 21
4.9015748031496065
 31
0.0
100
AcDbText
  0
TEXT
  5
20A
330
17
100
AcDbEntity
  8
TEXT
100
AcDbText
 10
11.811023622047244
 20
6.102362204724409
 30
0.0
 40
0.09070866141732283
  1
3 · NO HEADBOARD
 11
11.811023622047244
 21
6.102362204724409
 31
0.0
100
AcDbText
  0
LINE
  5
20B
330
17
100
AcDbEntity
  8
GEOMETRY
100
AcDbLine
 10
11.811023622047244
 20
6.043307086614173
 30
0.0
 11
13.385826771653543
 21
6.043307086614173
 31
0.0
  0
TEXT
  5
20C
330
17
100
AcDbEntity
  8
TEXT
100
AcDbText
 10
11.811023622047244
 20
5.708661417322834
 30
0.0
 40
0.04251968503937008
  1
Nothing is fixed: the cushion is loose — it sits on
 11
11.811023622047244
 21
5.708661417322834
 31
0.0
100
AcDbText
  0
TEXT
  5
20D
330
17
100
AcDbEntity
  8
TEXT
100
AcDbText
 10
11.811023622047244
 20
5.5393700787401565
 30
0.0
 40
0.04251968503937008
  1
the mattress and leans back on the parchment. The
 11
11.811023622047244
 21
5.5393700787401565
 31
0.0
100
AcDbText
  0
TEXT
  5
20E
330
17
100
AcDbEntity
  8
TEXT
100
AcDbText
 10
11.811023622047244
 20
5.3700787401574805
 30
0.0
 40
0.04251968503937008
  1
frame's head stands 1 in off the plaster. Wax the
 11
11.811023622047244
 21
5.3700787401574805
 31
0.0
100
AcDbText
  0
TEXT
  5
20F
330
17
100
AcDbEntity
  8
TEXT
100
AcDbText
 10
11.811023622047244
 20
5.200787401574803
 30
0.0
 40
0.04251968503937008
  1
plaster behind the cushion so it does not scuff.
 11
11.811023622047244
 21
5.200787401574803
 31
0.0
100
AcDbText
  0
TEXT
  5
210
330
17
100
AcDbEntity
  8
TEXT
100
AcDbText
 10
11.811023622047244
 20
4.68503937007874
 30
0.0
 40
0.09070866141732283
  1
NOTES
 11
11.811023622047244
 21
4.68503937007874
 31
0.0
100
AcDbText
  0
LINE
  5
211
330
17
100
AcDbEntity
  8
GEOMETRY
100
AcDbLine
 10
11.811023622047244
 20
4.625984251968504
 30
0.0
 11
15.748031496062993
 21
4.625984251968504
 31
0.0
  0
TEXT
  5
212
330
17
100
AcDbEntity
  8
TEXT
100
AcDbText
 10
11.811023622047244
 20
4.496062992125983
 30
0.0
 40
0.048188976377952754
  1
REVISION 2
 11
11.811023622047244
 21
4.496062992125983
 31
0.0
100
AcDbText
  0
TEXT
  5
213
330
17
100
AcDbEntity
  8
TEXT
100
AcDbText
 10
11.811023622047244
 20
4.251968503937007
 30
0.0
 40
0.04251968503937008
  1
The bed in the owner's photo, sized to the 6 ft × 6 ft 6 in mattress:
 11
11.811023622047244
 21
4.251968503937007
 31
0.0
100
AcDbText
  0
TEXT
  5
214
330
17
100
AcDbEntity
  8
TEXT
100
AcDbText
 10
11.811023622047244
 20
4.078740157480315
 30
0.0
 40
0.04251968503937008
  1
a low dark-wood platform — a 4 in rail with a 1 in lip, on five turned
 11
11.811023622047244
 21
4.078740157480315
 31
0.0
100
AcDbText
  0
TEXT
  5
215
330
17
100
AcDbEntity
  8
TEXT
100
AcDbText
 10
11.811023622047244
 20
3.9055118110236213
 30
0.0
 40
0.04251968503937008
  1
bun feet. No headboard (owner): a long white cushion along the back,
 11
11.811023622047244
 21
3.9055118110236213
 31
0.0
100
AcDbText
  0
TEXT
  5
216
330
17
100
AcDbEntity
  8
TEXT
100
AcDbText
 10
11.811023622047244
 20
3.7322834645669296
 30
0.0
 40
0.04251968503937008
  1
the mattress's width, leaning on the parchment. Proportions read off
 11
11.811023622047244
 21
3.7322834645669296
 31
0.0
100
AcDbText
  0
TEXT
  5
217
330
17
100
AcDbEntity
  8
TEXT
100
AcDbText
 10
11.811023622047244
 20
3.5590551181102366
 30
0.0
 40
0.04251968503937008
  1
the photos; mattress thickness ASSUMED until the mattress is chosen.
 11
11.811023622047244
 21
3.5590551181102366
 31
0.0
100
AcDbText
  0
TEXT
  5
218
330
17
100
AcDbEntity
  8
TEXT
100
AcDbText
 10
11.811023622047244
 20
3.385826771653543
 30
0.0
 40
0.04251968503937008
  1
Frame in solid teak, polished dark to sit with the Dark Diva wall.
 11
11.811023622047244
 21
3.385826771653543
 31
0.0
100
AcDbText
  0
TEXT
  5
219
330
17
100
AcDbEntity
  8
TEXT
100
AcDbText
 10
11.811023622047244
 20
3.21259842519685
 30
0.0
 40
0.04251968503937008
  1
Cushion: cream textured weave, piped, as the owner's photo.
 11
11.811023622047244
 21
3.21259842519685
 31
0.0
100
AcDbText
  0
LWPOLYLINE
  5
21A
330
17
100
AcDbEntity
  8
GEOMETRY
100
AcDbPolyline
 90
5
 70
0
 10
11.811023622047244
 20
2.283464566929135
 10
16.22047244094488
 20
2.283464566929135
 10
16.22047244094488
 20
0.31496062992126106
 10
11.811023622047244
 20
0.31496062992126106
 10
11.811023622047244
 20
2.283464566929135
  0
LINE
  5
21B
330
17
100
AcDbEntity
  8
GEOMETRY
100
AcDbLine
 10
11.811023622047244
 20
1.7322834645669292
 30
0.0
 11
16.22047244094488
 21
1.7322834645669292
 31
0.0
  0
LINE
  5
21C
330
17
100
AcDbEntity
  8
GEOMETRY
100
AcDbLine
 10
11.811023622047244
 20
1.1023622047244095
 30
0.0
 11
16.22047244094488
 21
1.1023622047244095
 31
0.0
  0
LINE
  5
21D
330
17
100
AcDbEntity
  8
GEOMETRY
100
AcDbLine
 10
11.811023622047244
 20
0.7086614173228346
 30
0.0
 11
16.22047244094488
 21
0.7086614173228346
 31
0.0
  0
LINE
  5
21E
330
17
100
AcDbEntity
  8
GEOMETRY
100
AcDbLine
 10
14.015748031496063
 20
1.1023622047244095
 30
0.0
 11
14.015748031496063
 21
0.31496062992125984
 31
0.0
  0
TEXT
  5
21F
330
17
100
AcDbEntity
  8
TEXT
100
AcDbText
 10
11.929133858267717
 20
2.02755905511811
 30
0.0
 40
0.09637795275590551
  1
A STUDY IN TEAK
 11
11.929133858267717
 21
2.02755905511811
 31
0.0
100
AcDbText
  0
TEXT
  5
220
330
17
100
AcDbEntity
  8
TEXT
100
AcDbText
 10
11.929133858267717
 20
1.8503937007874016
 30
0.0
 40
0.05385826771653543
  1
Particulars of the room
 11
11.929133858267717
 21
1.8503937007874016
 31
0.0
100
AcDbText
  0
TEXT
  5
221
330
17
100
AcDbEntity
  8
TEXT
100
AcDbText
 10
11.929133858267717
 20
1.4763779527559056
 30
0.0
 40
0.09637795275590551
  1
THE BED
 11
11.929133858267717
 21
1.4763779527559056
 31
0.0
100
AcDbText
  0
TEXT
  5
222
330
17
100
AcDbEntity
  8
TEXT
100
AcDbText
 10
11.929133858267717
 20
1.2598425196850394
 30
0.0
 40
0.05669291338582677
  1
Front · Side · Plan · Foot · Back cushion
 11
11.929133858267717
 21
1.2598425196850394
 31
0.0
100
AcDbText
  0
TEXT
  5
223
330
17
100
AcDbEntity
  8
TEXT
100
AcDbText
 10
11.929133858267717
 20
0.9448818897637795
 30
0.0
 40
0.04251968503937008
  1
SCALE
 11
11.929133858267717
 21
0.9448818897637795
 31
0.0
100
AcDbText
  0
TEXT
  5
224
330
17
100
AcDbEntity
  8
TEXT
100
AcDbText
 10
11.929133858267717
 20
0.7874015748031495
 30
0.0
 40
0.05952755905511811
  1
AS NOTED @ A3
 11
11.929133858267717
 21
0.7874015748031495
 31
0.0
100
AcDbText
  0
TEXT
  5
225
330
17
100
AcDbEntity
  8
TEXT
100
AcDbText
 10
14.133858267716535
 20
0.9448818897637795
 30
0.0
 40
0.04251968503937008
  1
DATE
 11
14.133858267716535
 21
0.9448818897637795
 31
0.0
100
AcDbText
  0
TEXT
  5
226
330
17
100
AcDbEntity
  8
TEXT
100
AcDbText
 10
14.133858267716535
 20
0.7874015748031495
 30
0.0
 40
0.05952755905511811
  1
03.10.2026
 11
14.133858267716535
 21
0.7874015748031495
 31
0.0
100
AcDbText
  0
TEXT
  5
227
330
17
100
AcDbEntity
  8
TEXT
100
AcDbText
 10
11.929133858267717
 20
0.5511811023622047
 30
0.0
 40
0.04251968503937008
  1
REV
 11
11.929133858267717
 21
0.5511811023622047
 31
0.0
100
AcDbText
  0
TEXT
  5
228
330
17
100
AcDbEntity
  8
TEXT
100
AcDbText
 10
11.929133858267717
 20
0.39370078740157477
 30
0.0
 40
0.051023622047244095
  1
2 — no headboard: a long white cushion along the back
 11
11.929133858267717
 21
0.39370078740157477
 31
0.0
100
AcDbText
  0
TEXT
  5
229
330
17
100
AcDbEntity
  8
TEXT
100
AcDbText
 10
14.133858267716535
 20
0.5511811023622047
 30
0.0
 40
0.04251968503937008
  1
DWG
 11
14.133858267716535
 21
0.5511811023622047
 31
0.0
100
AcDbText
  0
TEXT
  5
22A
330
17
100
AcDbEntity
  8
TEXT
100
AcDbText
 10
14.133858267716535
 20
0.39370078740157477
 30
0.0
 40
0.05952755905511811
  1
AST-DR-035
 11
14.133858267716535
 21
0.39370078740157477
 31
0.0
100
AcDbText
  0
ENDSEC
  0
SECTION
  2
OBJECTS
  0
DICTIONARY
  5
A
330
0
100
AcDbDictionary
281
1
  3
ACAD_COLOR
350
B
  3
ACAD_GROUP
350
C
  3
ACAD_LAYOUT
350
D
  3
ACAD_MATERIAL
350
E
  3
ACAD_MLEADERSTYLE
350
F
  3
ACAD_MLINESTYLE
350
10
  3
ACAD_PLOTSETTINGS
350
11
  3
ACAD_PLOTSTYLENAME
350
12
  3
ACAD_SCALELIST
350
14
  3
ACAD_TABLESTYLE
350
15
  3
ACAD_VISUALSTYLE
350
16
  3
EZDXF_META
350
2D
  0
DICTIONARY
  5
B
330
A
100
AcDbDictionary
281
1
  0
DICTIONARY
  5
C
330
A
100
AcDbDictionary
281
1
  0
DICTIONARY
  5
D
330
A
100
AcDbDictionary
281
1
  3
Model
350
1A
  3
Layout1
350
1E
  0
DICTIONARY
  5
E
330
A
100
AcDbDictionary
281
1
  3
ByBlock
350
1F
  3
ByLayer
350
20
  3
Global
350
21
  0
DICTIONARY
  5
F
330
A
100
AcDbDictionary
281
1
  3
Standard
350
2C
  0
DICTIONARY
  5
10
330
A
100
AcDbDictionary
281
1
  3
Standard
350
22
  0
DICTIONARY
  5
11
330
A
100
AcDbDictionary
281
1
  0
ACDBDICTIONARYWDFLT
  5
12
330
A
100
AcDbDictionary
281
1
  3
Normal
350
13
100
AcDbDictionaryWithDefault
340
13
  0
ACDBPLACEHOLDER
  5
13
330
12
  0
DICTIONARY
  5
14
330
A
100
AcDbDictionary
281
1
  0
DICTIONARY
  5
15
330
A
100
AcDbDictionary
281
1
  0
DICTIONARY
  5
16
330
A
100
AcDbDictionary
281
1
  3
2dWireframe
350
5A
  3
Basic
350
5B
  3
Brighten
350
5C
  3
ColorChange
350
5D
  3
Conceptual
350
5E
  3
Dim
350
5F
  3
EdgeColorOff
350
60
  3
Facepattern
350
61
  3
Flat
350
62
  3
FlatWithEdges
350
63
  3
Gouraud
350
64
  3
GouraudWithEdges
350
65
  3
Hidden
350
66
  3
JitterOff
350
67
  3
Linepattern
350
68
  3
Modeling
350
69
  3
OverhangOff
350
6A
  3
Realistic
350
6B
  3
Shaded
350
6C
  3
Shaded with edges
350
6D
  3
Shades of Gray
350
6E
  3
Sketchy
350
6F
  3
Thicken
350
70
  3
Wireframe
350
71
  3
X-Ray
350
72
  0
LAYOUT
  5
1A
330
D
100
AcDbPlotSettings
  1

  4
A3
  6

 40
7.5
 41
20.0
 42
7.5
 43
20.0
 44
420.0
 45
297.0
 46
0.0
 47
0.0
 48
0.0
 49
0.0
140
0.0
141
0.0
142
1.0
143
1.0
 70
1024
 72
1
 73
0
 74
5
  7

 75
16
 76
0
 77
2
 78
300
147
1.0
148
0.0
149
0.0
100
AcDbLayout
  1
Model
 70
1
 71
0
 10
0.0
 20
0.0
 11
420.0
 21
297.0
 12
0.0
 22
0.0
 32
0.0
 14
1e+20
 24
1e+20
 34
1e+20
 15
-1e+20
 25
-1e+20
 35
-1e+20
146
0.0
 13
0.0
 23
0.0
 33
0.0
 16
1.0
 26
0.0
 36
0.0
 17
0.0
 27
1.0
 37
0.0
 76
1
330
17
  0
LAYOUT
  5
1E
330
D
100
AcDbPlotSettings
  1

  4
A3
  6

 40
7.5
 41
20.0
 42
7.5
 43
20.0
 44
420.0
 45
297.0
 46
0.0
 47
0.0
 48
0.0
 49
0.0
140
0.0
141
0.0
142
1.0
143
1.0
 70
0
 72
1
 73
0
 74
5
  7

 75
16
 76
0
 77
2
 78
300
147
1.0
148
0.0
149
0.0
100
AcDbLayout
  1
Layout1
 70
1
 71
1
 10
0.0
 20
0.0
 11
420.0
 21
297.0
 12
0.0
 22
0.0
 32
0.0
 14
1e+20
 24
1e+20
 34
1e+20
 15
-1e+20
 25
-1e+20
 35
-1e+20
146
0.0
 13
0.0
 23
0.0
 33
0.0
 16
1.0
 26
0.0
 36
0.0
 17
0.0
 27
1.0
 37
0.0
 76
1
330
1B
  0
MATERIAL
  5
1F
102
{ACAD_REACTORS
330
E
102
}
330
E
100
AcDbMaterial
  1
ByBlock
  2

 70
0
 40
1.0
 71
1
 41
1.0
 91
-1023410177
 42
1.0
 72
1
  3

 73
1
 74
1
 75
1
 44
0.5
 73
0
 45
1.0
 46
1.0
 77
1
  4

 78
1
 79
1
170
1
 48
1.0
171
1
  6

172
1
173
1
174
1
140
1.0
141
1.0
175
1
  7

176
1
177
1
178
1
143
1.0
179
1
  8

270
1
271
1
272
1
145
1.0
146
1.0
273
1
  9

274
1
275
1
276
1
 42
1.0
 72
1
  3

 73
1
 74
1
 75
1
 94
63
  0
MATERIAL
  5
20
102
{ACAD_REACTORS
330
E
102
}
330
E
100
AcDbMaterial
  1
ByLayer
  2

 70
0
 40
1.0
 71
1
 41
1.0
 91
-1023410177
 42
1.0
 72
1
  3

 73
1
 74
1
 75
1
 44
0.5
 73
0
 45
1.0
 46
1.0
 77
1
  4

 78
1
 79
1
170
1
 48
1.0
171
1
  6

172
1
173
1
174
1
140
1.0
141
1.0
175
1
  7

176
1
177
1
178
1
143
1.0
179
1
  8

270
1
271
1
272
1
145
1.0
146
1.0
273
1
  9

274
1
275
1
276
1
 42
1.0
 72
1
  3

 73
1
 74
1
 75
1
 94
63
  0
MATERIAL
  5
21
102
{ACAD_REACTORS
330
E
102
}
330
E
100
AcDbMaterial
  1
Global
  2

 70
0
 40
1.0
 71
1
 41
1.0
 91
-1023410177
 42
1.0
 72
1
  3

 73
1
 74
1
 75
1
 44
0.5
 73
0
 45
1.0
 46
1.0
 77
1
  4

 78
1
 79
1
170
1
 48
1.0
171
1
  6

172
1
173
1
174
1
140
1.0
141
1.0
175
1
  7

176
1
177
1
178
1
143
1.0
179
1
  8

270
1
271
1
272
1
145
1.0
146
1.0
273
1
  9

274
1
275
1
276
1
 42
1.0
 72
1
  3

 73
1
 74
1
 75
1
 94
63
  0
MLINESTYLE
  5
22
102
{ACAD_REACTORS
330
10
102
}
330
10
100
AcDbMlineStyle
  2
Standard
 70
0
  3

 62
256
 51
90.0
 52
90.0
 71
2
 49
0.5
 62
256
  6
BYLAYER
 49
-0.5
 62
256
  6
BYLAYER
  0
MLEADERSTYLE
  5
2C
102
{ACAD_REACTORS
330
F
102
}
330
F
100
AcDbMLeaderStyle
179
2
170
2
171
1
172
0
 90
2
 40
0.0
 41
0.0
173
1
 91
-1056964608
 92
-2
290
1
 42
2.0
291
1
 43
8.0
  3
Standard
 44
4.0
300

342
29
174
1
175
1
176
0
178
1
 93
-1056964608
 45
4.0
292
0
297
0
 46
4.0
 94
-1056964608
 47
1.0
 49
1.0
140
1.0
294
1
141
0.0
177
0
142
1.0
295
0
296
0
143
3.75
271
0
272
9
273
9
  0
DICTIONARY
  5
2D
330
A
100
AcDbDictionary
280
1
281
1
  3
CREATED_BY_EZDXF
350
2E
  3
WRITTEN_BY_EZDXF
350
22D
  0
DICTIONARYVAR
  5
2E
330
2D
100
DictionaryVariables
280
0
  1
1.4.2 @ 2026-10-03T13:31:59.218000+00:00
  0
VISUALSTYLE
  5
5A
102
{ACAD_REACTORS
330
16
102
}
330
16
100
AcDbVisualStyle
  2
2dWireframe
 70
4
 90
0
 40
0.6
 62
7
290
0
291
0
  0
VISUALSTYLE
  5
5B
102
{ACAD_REACTORS
330
16
102
}
330
16
100
AcDbVisualStyle
  2
Basic
 70
7
 90
1
 40
0.6
 62
7
290
0
291
1
  0
VISUALSTYLE
  5
5C
102
{ACAD_REACTORS
330
16
102
}
330
16
100
AcDbVisualStyle
  2
Brighten
 70
12
 90
2
 40
0.6
 62
7
290
0
291
1
  0
VISUALSTYLE
  5
5D
102
{ACAD_REACTORS
330
16
102
}
330
16
100
AcDbVisualStyle
  2
ColorChange
 70
16
 90
2
 40
0.6
 62
8
290
0
291
1
  0
VISUALSTYLE
  5
5E
102
{ACAD_REACTORS
330
16
102
}
330
16
100
AcDbVisualStyle
  2
Conceptual
 70
9
 90
3
 40
0.6
 62
7
290
0
291
0
  0
VISUALSTYLE
  5
5F
102
{ACAD_REACTORS
330
16
102
}
330
16
100
AcDbVisualStyle
  2
Dim
 70
11
 90
2
 40
0.6
 62
7
290
0
291
1
  0
VISUALSTYLE
  5
60
102
{ACAD_REACTORS
330
16
102
}
330
16
100
AcDbVisualStyle
  2
EdgeColorOff
 70
22
 90
2
 40
0.6
 62
7
290
0
291
1
  0
VISUALSTYLE
  5
61
102
{ACAD_REACTORS
330
16
102
}
330
16
100
AcDbVisualStyle
  2
Facepattern
 70
15
 90
2
 40
0.6
 62
7
290
0
291
1
  0
VISUALSTYLE
  5
62
102
{ACAD_REACTORS
330
16
102
}
330
16
100
AcDbVisualStyle
  2
Flat
 70
0
 90
2
 40
0.6
 62
7
290
0
291
1
  0
VISUALSTYLE
  5
63
102
{ACAD_REACTORS
330
16
102
}
330
16
100
AcDbVisualStyle
  2
FlatWithEdges
 70
1
 90
2
 40
0.6
 62
7
290
0
291
1
  0
VISUALSTYLE
  5
64
102
{ACAD_REACTORS
330
16
102
}
330
16
100
AcDbVisualStyle
  2
Gouraud
 70
2
 90
2
 40
0.6
 62
7
290
0
291
1
  0
VISUALSTYLE
  5
65
102
{ACAD_REACTORS
330
16
102
}
330
16
100
AcDbVisualStyle
  2
GouraudWithEdges
 70
3
 90
2
 40
0.6
 62
7
290
0
291
1
  0
VISUALSTYLE
  5
66
102
{ACAD_REACTORS
330
16
102
}
330
16
100
AcDbVisualStyle
  2
Hidden
 70
6
 90
1
 40
0.6
 62
7
290
0
291
0
  0
VISUALSTYLE
  5
67
102
{ACAD_REACTORS
330
16
102
}
330
16
100
AcDbVisualStyle
  2
JitterOff
 70
20
 90
2
 40
0.6
 62
7
290
0
291
1
  0
VISUALSTYLE
  5
68
102
{ACAD_REACTORS
330
16
102
}
330
16
100
AcDbVisualStyle
  2
Linepattern
 70
14
 90
2
 40
0.6
 62
7
290
0
291
1
  0
VISUALSTYLE
  5
69
102
{ACAD_REACTORS
330
16
102
}
330
16
100
AcDbVisualStyle
  2
Modeling
 70
10
 90
2
 40
0.6
 62
7
290
0
291
0
  0
VISUALSTYLE
  5
6A
102
{ACAD_REACTORS
330
16
102
}
330
16
100
AcDbVisualStyle
  2
OverhangOff
 70
21
 90
2
 40
0.6
 62
7
290
0
291
1
  0
VISUALSTYLE
  5
6B
102
{ACAD_REACTORS
330
16
102
}
330
16
100
AcDbVisualStyle
  2
Realistic
 70
8
 90
2
 40
0.6
 62
7
290
0
291
0
  0
VISUALSTYLE
  5
6C
102
{ACAD_REACTORS
330
16
102
}
330
16
100
AcDbVisualStyle
  2
Shaded
 70
27
 90
2
 40
0.6
 62
7
290
0
291
0
  0
VISUALSTYLE
  5
6D
102
{ACAD_REACTORS
330
16
102
}
330
16
100
AcDbVisualStyle
  2
Shaded with edges
 70
26
 90
2
 40
0.6
 62
7
290
0
291
0
  0
VISUALSTYLE
  5
6E
102
{ACAD_REACTORS
330
16
102
}
330
16
100
AcDbVisualStyle
  2
Shades of Gray
 70
23
 90
2
 40
0.6
 62
7
290
0
291
0
  0
VISUALSTYLE
  5
6F
102
{ACAD_REACTORS
330
16
102
}
330
16
100
AcDbVisualStyle
  2
Sketchy
 70
24
 90
1
 40
0.6
 62
7
290
0
291
0
  0
VISUALSTYLE
  5
70
102
{ACAD_REACTORS
330
16
102
}
330
16
100
AcDbVisualStyle
  2
Thicken
 70
13
 90
2
 40
0.6
 62
7
290
0
291
1
  0
VISUALSTYLE
  5
71
102
{ACAD_REACTORS
330
16
102
}
330
16
100
AcDbVisualStyle
  2
Wireframe
 70
5
 90
0
 40
0.6
 62
7
290
0
291
0
  0
VISUALSTYLE
  5
72
102
{ACAD_REACTORS
330
16
102
}
330
16
100
AcDbVisualStyle
  2
X-Ray
 70
25
 90
2
 40
0.5
 62
7
290
0
291
0
  0
DICTIONARYVAR
  5
22D
330
2D
100
DictionaryVariables
280
0
  1
1.4.2 @ 2026-10-03T13:31:59.239466+00:00
  0
ENDSEC
  0
EOF
