<svg xmlns="http://www.w3.org/2000/svg" viewBox="0 0 420 297" class="sheet"><style>.dk-mm{display:none}</style><rect x="0" y="0" width="420" height="297" fill="#fff"/><rect x="8" y="8" width="404" height="281" fill="none" stroke="#1b1b1b" stroke-width="0.5"/><text x="18" y="17" font-size="3.2" text-anchor="start" fill="#1b1b1b" font-weight="700" letter-spacing="0.3" font-family="Helvetica, Arial, sans-serif">FRONT — FROM THE FOOT</text><line x1="18" y1="18.5" x2="128" y2="18.5" stroke="#1b1b1b" stroke-width="0.35"/><text x="18" y="21.8" font-size="1.7" text-anchor="start" fill="#666" font-weight="400" letter-spacing="0.2" font-family="Helvetica, Arial, sans-serif">SCALE 1:12 · AS THE OWNER'S PHOTO</text><g transform="translate(28 34) scale(0.08333333333333333)" stroke="#1b1b1b" stroke-width="3.5999999999999996" fill="none" stroke-linejoin="round" stroke-linecap="round"><rect x="51" y="42.53" width="1829" height="433.47" rx="50" fill="#f4f1ea" stroke-width="1.728"/><path d="M 91 54.53 L 1840 54.53" stroke-width="0.576"/><rect x="91" y="266" width="814.5" height="200" fill="#fff" stroke-width="1.44"/><rect x="1025.5" y="266" width="814.5" height="200" fill="#fff" stroke-width="1.44"/><rect x="51" y="466" width="1829" height="254" fill="#fff" stroke-width="1.728"/><rect x="0" y="720" width="1931" height="102" fill="#c9a88a" stroke-width="1.728"/><line x1="0" y1="745" x2="1931" y2="745" stroke-width="0.864"/><path d="M 115 822 L 115 838 C 102.5 852 98.5 912 102.5 932 C 108.5 970 120 990 120 1000 L 180 1000 C 180 990 191.5 970 197.5 932 C 201.5 912 197.5 852 185 838 L 185 822 Z" fill="#c9a88a" stroke-width="1.44"/><line x1="115" y1="838" x2="185" y2="838" stroke-width="0.864"/><path d="M 1746 822 L 1746 838 C 1733.5 852 1729.5 912 1733.5 932 C 1739.5 970 1751 990 1751 1000 L 1811 1000 C 1811 990 1822.5 970 1828.5 932 C 1832.5 912 1828.5 852 1816 838 L 1816 822 Z" fill="#c9a88a" stroke-width="1.44"/><line x1="1746" y1="838" x2="1816" y2="838" stroke-width="0.864"/><line x1="-120" y1="1000" x2="2051" y2="1000" stroke-width="4.32"/></g><g class="dk-dim"><g stroke="#8a3a22" stroke-width="0.13"><line x1="26.5" y1="122.33" x2="190.42" y2="122.33"/><line x1="28" y1="118.33" x2="28" y2="123.53"/><line x1="27" y1="123.33" x2="29" y2="121.33" stroke-width="0.3"/><line x1="32.25" y1="118.33" x2="32.25" y2="123.53"/><line x1="31.25" y1="123.33" x2="33.25" y2="121.33" stroke-width="0.3"/><line x1="184.67" y1="118.33" x2="184.67" y2="123.53"/><line x1="183.67" y1="123.33" x2="185.67" y2="121.33" stroke-width="0.3"/><line x1="188.92" y1="118.33" x2="188.92" y2="123.53"/><line x1="187.92" y1="123.33" x2="189.92" y2="121.33" stroke-width="0.3"/></g><text x="30.13" y="121.53" font-size="1.2" text-anchor="middle" fill="#8a3a22" font-weight="400" letter-spacing="0" font-family="Helvetica, Arial, sans-serif" class="dk-mm">51</text><text x="30.13" y="121.53" font-size="1.2" text-anchor="middle" fill="#8a3a22" font-weight="400" letter-spacing="0" font-family="Helvetica, Arial, sans-serif" class="dk-in">2"</text><text x="108.46" y="121.53" font-size="1.2" text-anchor="middle" fill="#8a3a22" font-weight="400" letter-spacing="0" font-family="Helvetica, Arial, sans-serif" class="dk-mm">1829 MATTRESS</text><text x="108.46" y="121.53" font-size="1.2" text-anchor="middle" fill="#8a3a22" font-weight="400" letter-spacing="0" font-family="Helvetica, Arial, sans-serif" class="dk-in">6'-0" MATTRESS</text><text x="186.79" y="121.53" font-size="1.2" text-anchor="middle" fill="#8a3a22" font-weight="400" letter-spacing="0" font-family="Helvetica, Arial, sans-serif" class="dk-mm">51</text><text x="186.79" y="121.53" font-size="1.2" text-anchor="middle" fill="#8a3a22" font-weight="400" letter-spacing="0" font-family="Helvetica, Arial, sans-serif" class="dk-in">2"</text></g><g class="dk-dim"><g stroke="#8a3a22" stroke-width="0.13"><line x1="26.5" y1="128.33" x2="190.42" y2="128.33"/><line x1="28" y1="118.33" x2="28" y2="129.53"/><line x1="27" y1="129.33" x2="29" y2="127.33" stroke-width="0.3"/><line x1="188.92" y1="118.33" x2="188.92" y2="129.53"/><line x1="187.92" y1="129.33" x2="189.92" y2="127.33" stroke-width="0.3"/></g><text x="108.46" y="127.53" font-size="1.4" text-anchor="middle" fill="#8a3a22" font-weight="400" letter-spacing="0" font-family="Helvetica, Arial, sans-serif" class="dk-mm">1931 OVERALL</text><text x="108.46" y="127.53" font-size="1.4" text-anchor="middle" fill="#8a3a22" font-weight="400" letter-spacing="0" font-family="Helvetica, Arial, sans-serif" class="dk-in">6'-4" OVERALL</text></g><g class="dk-dim"><g stroke="#8a3a22" stroke-width="0.13"><line x1="26.5" y1="134.33" x2="42" y2="134.33"/><line x1="28" y1="118.33" x2="28" y2="135.53"/><line x1="27" y1="135.33" x2="29" y2="133.33" stroke-width="0.3"/><line x1="40.5" y1="118.33" x2="40.5" y2="135.53"/><line x1="39.5" y1="135.33" x2="41.5" y2="133.33" stroke-width="0.3"/></g><text x="34.25" y="133.53" font-size="1.1" text-anchor="middle" fill="#8a3a22" font-weight="400" letter-spacing="0" font-family="Helvetica, Arial, sans-serif" class="dk-mm">150 TO THE FOOT</text><text x="34.25" y="133.53" font-size="1.1" text-anchor="middle" fill="#8a3a22" font-weight="400" letter-spacing="0" font-family="Helvetica, Arial, sans-serif" class="dk-in">5⅞" TO THE FOOT</text></g><g class="dk-dim"><g stroke="#8a3a22" stroke-width="0.13"><line x1="194.92" y1="115.83" x2="194.92" y2="39.04"/><line x1="189.92" y1="117.33" x2="196.12" y2="117.33"/><line x1="193.92" y1="118.33" x2="195.92" y2="116.33" stroke-width="0.3"/><line x1="189.92" y1="102.5" x2="196.12" y2="102.5"/><line x1="193.92" y1="103.5" x2="195.92" y2="101.5" stroke-width="0.3"/><line x1="189.92" y1="94" x2="196.12" y2="94"/><line x1="193.92" y1="95" x2="195.92" y2="93" stroke-width="0.3"/><line x1="189.92" y1="72.83" x2="196.12" y2="72.83"/><line x1="193.92" y1="73.83" x2="195.92" y2="71.83" stroke-width="0.3"/><line x1="189.92" y1="37.54" x2="196.12" y2="37.54"/><line x1="193.92" y1="38.54" x2="195.92" y2="36.54" stroke-width="0.3"/></g><text x="194.12" y="109.91" font-size="1.15" text-anchor="middle" fill="#8a3a22" font-weight="400" letter-spacing="0" font-family="Helvetica, Arial, sans-serif" class="dk-mm" transform="rotate(-90 194.12 109.91)">178</text><text x="194.12" y="109.91" font-size="1.15" text-anchor="middle" fill="#8a3a22" font-weight="400" letter-spacing="0" font-family="Helvetica, Arial, sans-serif" class="dk-in" transform="rotate(-90 194.12 109.91)">7"</text><text x="194.12" y="98.25" font-size="1.15" text-anchor="middle" fill="#8a3a22" font-weight="400" letter-spacing="0" font-family="Helvetica, Arial, sans-serif" class="dk-mm" transform="rotate(-90 194.12 98.25)">102</text><text x="194.12" y="98.25" font-size="1.15" text-anchor="middle" fill="#8a3a22" font-weight="400" letter-spacing="0" font-family="Helvetica, Arial, sans-serif" class="dk-in" transform="rotate(-90 194.12 98.25)">4"</text><text x="194.12" y="83.41" font-size="1.15" text-anchor="middle" fill="#8a3a22" font-weight="400" letter-spacing="0" font-family="Helvetica, Arial, sans-serif" class="dk-mm" transform="rotate(-90 194.12 83.41)">254</text><text x="194.12" y="83.41" font-size="1.15" text-anchor="middle" fill="#8a3a22" font-weight="400" letter-spacing="0" font-family="Helvetica, Arial, sans-serif" class="dk-in" transform="rotate(-90 194.12 83.41)">10"</text><text x="194.12" y="55.19" font-size="1.15" text-anchor="middle" fill="#8a3a22" font-weight="400" letter-spacing="0" font-family="Helvetica, Arial, sans-serif" class="dk-mm" transform="rotate(-90 194.12 55.19)">423</text><text x="194.12" y="55.19" font-size="1.15" text-anchor="middle" fill="#8a3a22" font-weight="400" letter-spacing="0" font-family="Helvetica, Arial, sans-serif" class="dk-in" transform="rotate(-90 194.12 55.19)">1'-4⅝"</text></g><g class="dk-dim"><g stroke="#8a3a22" stroke-width="0.13"><line x1="201.92" y1="115.83" x2="201.92" y2="39.04"/><line x1="189.92" y1="117.33" x2="203.12" y2="117.33"/><line x1="200.92" y1="118.33" x2="202.92" y2="116.33" stroke-width="0.3"/><line x1="189.92" y1="37.54" x2="203.12" y2="37.54"/><line x1="200.92" y1="38.54" x2="202.92" y2="36.54" stroke-width="0.3"/></g><text x="201.12" y="77.44" font-size="1.25" text-anchor="middle" fill="#8a3a22" font-weight="400" letter-spacing="0" font-family="Helvetica, Arial, sans-serif" class="dk-mm" transform="rotate(-90 201.12 77.44)">957 TO THE TOP</text><text x="201.12" y="77.44" font-size="1.25" text-anchor="middle" fill="#8a3a22" font-weight="400" letter-spacing="0" font-family="Helvetica, Arial, sans-serif" class="dk-in" transform="rotate(-90 201.12 77.44)">3'-1⅝" TO THE TOP</text></g><text x="206" y="17" font-size="3.2" text-anchor="start" fill="#1b1b1b" font-weight="700" letter-spacing="0.3" font-family="Helvetica, Arial, sans-serif">SIDE</text><line x1="206" y1="18.5" x2="276" y2="18.5" stroke="#1b1b1b" stroke-width="0.35"/><text x="206" y="21.8" font-size="1.7" text-anchor="start" fill="#666" font-weight="400" letter-spacing="0.2" font-family="Helvetica, Arial, sans-serif">SCALE 1:12 · THE WALL ON THE LEFT</text><g transform="translate(212 34) scale(0.08333333333333333)" stroke="#1b1b1b" stroke-width="3.5999999999999996" fill="none" stroke-linejoin="round" stroke-linecap="round"><rect x="51" y="466" width="1981" height="254" fill="#fff" stroke-width="1.728"/><rect x="281" y="316" width="530" height="150" fill="#fff" stroke-width="1.152"/><rect x="51" y="36" width="200" height="430" rx="50" fill="#f4f1ea" stroke-width="1.728" transform="rotate(-10 51 466)"/><line x1="-45" y1="1000" x2="-45" y2="-77.47" stroke-width="2.304" stroke-dasharray="11.52 7.199999999999999"/><rect x="0" y="720" width="2083" height="102" fill="#c9a88a" stroke-width="1.728"/><line x1="0" y1="745" x2="2083" y2="745" stroke-width="0.864"/><path d="M 115 822 L 115 838 C 102.5 852 98.5 912 102.5 932 C 108.5 970 120 990 120 1000 L 180 1000 C 180 990 191.5 970 197.5 932 C 201.5 912 197.5 852 185 838 L 185 822 Z" fill="#c9a88a" stroke-width="1.44"/><line x1="115" y1="838" x2="185" y2="838" stroke-width="0.864"/><g opacity=".45"><path d="M 1006.5 822 L 1006.5 838 C 994 852 990 912 994 932 C 1000 970 1011.5 990 1011.5 1000 L 1071.5 1000 C 1071.5 990 1083 970 1089 932 C 1093 912 1089 852 1076.5 838 L 1076.5 822 Z" fill="#c9a88a" stroke-width="1.44"/><line x1="1006.5" y1="838" x2="1076.5" y2="838" stroke-width="0.864"/></g><path d="M 1898 822 L 1898 838 C 1885.5 852 1881.5 912 1885.5 932 C 1891.5 970 1903 990 1903 1000 L 1963 1000 C 1963 990 1974.5 970 1980.5 932 C 1984.5 912 1980.5 852 1968 838 L 1968 822 Z" fill="#c9a88a" stroke-width="1.44"/><line x1="1898" y1="838" x2="1968" y2="838" stroke-width="0.864"/><line x1="-120" y1="1000" x2="2203" y2="1000" stroke-width="4.32"/></g><g class="dk-dim"><g stroke="#8a3a22" stroke-width="0.13"><line x1="210.5" y1="122.33" x2="387.08" y2="122.33"/><line x1="212" y1="118.33" x2="212" y2="123.53"/><line x1="211" y1="123.33" x2="213" y2="121.33" stroke-width="0.3"/><line x1="216.25" y1="118.33" x2="216.25" y2="123.53"/><line x1="215.25" y1="123.33" x2="217.25" y2="121.33" stroke-width="0.3"/><line x1="381.33" y1="118.33" x2="381.33" y2="123.53"/><line x1="380.33" y1="123.33" x2="382.33" y2="121.33" stroke-width="0.3"/><line x1="385.58" y1="118.33" x2="385.58" y2="123.53"/><line x1="384.58" y1="123.33" x2="386.58" y2="121.33" stroke-width="0.3"/></g><text x="214.13" y="121.53" font-size="1.2" text-anchor="middle" fill="#8a3a22" font-weight="400" letter-spacing="0" font-family="Helvetica, Arial, sans-serif" class="dk-mm">51</text><text x="214.13" y="121.53" font-size="1.2" text-anchor="middle" fill="#8a3a22" font-weight="400" letter-spacing="0" font-family="Helvetica, Arial, sans-serif" class="dk-in">2"</text><text x="298.79" y="121.53" font-size="1.2" text-anchor="middle" fill="#8a3a22" font-weight="400" letter-spacing="0" font-family="Helvetica, Arial, sans-serif" class="dk-mm">1981 MATTRESS</text><text x="298.79" y="121.53" font-size="1.2" text-anchor="middle" fill="#8a3a22" font-weight="400" letter-spacing="0" font-family="Helvetica, Arial, sans-serif" class="dk-in">6'-6" MATTRESS</text><text x="383.45" y="121.53" font-size="1.2" text-anchor="middle" fill="#8a3a22" font-weight="400" letter-spacing="0" font-family="Helvetica, Arial, sans-serif" class="dk-mm">51</text><text x="383.45" y="121.53" font-size="1.2" text-anchor="middle" fill="#8a3a22" font-weight="400" letter-spacing="0" font-family="Helvetica, Arial, sans-serif" class="dk-in">2"</text></g><g class="dk-dim"><g stroke="#8a3a22" stroke-width="0.13"><line x1="210.5" y1="128.33" x2="387.08" y2="128.33"/><line x1="212" y1="118.33" x2="212" y2="129.53"/><line x1="211" y1="129.33" x2="213" y2="127.33" stroke-width="0.3"/><line x1="385.58" y1="118.33" x2="385.58" y2="129.53"/><line x1="384.58" y1="129.33" x2="386.58" y2="127.33" stroke-width="0.3"/></g><text x="298.79" y="127.53" font-size="1.4" text-anchor="middle" fill="#8a3a22" font-weight="400" letter-spacing="0" font-family="Helvetica, Arial, sans-serif" class="dk-mm">2083 OVERALL</text><text x="298.79" y="127.53" font-size="1.4" text-anchor="middle" fill="#8a3a22" font-weight="400" letter-spacing="0" font-family="Helvetica, Arial, sans-serif" class="dk-in">6'-10" OVERALL</text></g><line x1="222.92" y1="52" x2="246.92" y2="30.67" stroke="#1b1b1b" stroke-width="0.13"/><circle cx="222.92" cy="52" r="0.4" fill="#1b1b1b"/><text x="247.92" y="30.87" font-size="1.7" text-anchor="start" fill="#1b1b1b" font-weight="400" letter-spacing="0" font-family="Helvetica, Arial, sans-serif">LONG WHITE CUSHION</text><text x="247.92" y="33.17" font-size="1.45" text-anchor="start" fill="#666" font-weight="400" letter-spacing="0" font-family="Helvetica, Arial, sans-serif">LOOSE · LEANS BACK 10° ON THE PLASTER — DETAIL 2</text><line x1="360.58" y1="98.17" x2="375.58" y2="127.33" stroke="#1b1b1b" stroke-width="0.13"/><circle cx="360.58" cy="98.17" r="0.4" fill="#1b1b1b"/><text x="374.58" y="127.53" font-size="1.7" text-anchor="end" fill="#1b1b1b" font-weight="400" letter-spacing="0" font-family="Helvetica, Arial, sans-serif">FRAME RAIL, 4 IN</text><text x="374.58" y="129.83" font-size="1.45" text-anchor="end" fill="#666" font-weight="400" letter-spacing="0" font-family="Helvetica, Arial, sans-serif">1 IN LIP ON TOP · TEAK, THE ROOM'S TONE</text><line x1="298.79" y1="110.67" x2="320.79" y2="127.33" stroke="#1b1b1b" stroke-width="0.13"/><circle cx="298.79" cy="110.67" r="0.4" fill="#1b1b1b"/><text x="321.79" y="127.53" font-size="1.7" text-anchor="start" fill="#1b1b1b" font-weight="400" letter-spacing="0" font-family="Helvetica, Arial, sans-serif">CENTRE FOOT</text><text x="321.79" y="129.83" font-size="1.45" text-anchor="start" fill="#666" font-weight="400" letter-spacing="0" font-family="Helvetica, Arial, sans-serif">UNDER THE MIDDLE RAIL</text><text x="18" y="142" font-size="3.2" text-anchor="start" fill="#1b1b1b" font-weight="700" letter-spacing="0.3" font-family="Helvetica, Arial, sans-serif">PLAN</text><line x1="18" y1="143.5" x2="98" y2="143.5" stroke="#1b1b1b" stroke-width="0.35"/><text x="18" y="146.8" font-size="1.7" text-anchor="start" fill="#666" font-weight="400" letter-spacing="0.2" font-family="Helvetica, Arial, sans-serif">SCALE 1:20 · THE WALL AT THE TOP · SLATS DASHED</text><g transform="translate(28 152) scale(0.05)" stroke="#1b1b1b" stroke-width="6" fill="none" stroke-linejoin="round" stroke-linecap="round"><rect x="0" y="0" width="1931" height="2083" fill="#c9a88a" stroke-width="2.4"/><rect x="51" y="51" width="1829" height="1981" fill="#fff" stroke-width="2"/><rect x="51" y="-23.67" width="1829" height="274.67" rx="50" fill="#f4f1ea" stroke-width="2"/><g stroke-width="1.2" stroke-dasharray="20 14"><rect x="45" y="45" width="1841" height="1993" /><line x1="965.5" y1="45" x2="965.5" y2="2038"/><line x1="45" y1="360" x2="1886" y2="360"/><line x1="45" y1="520" x2="1886" y2="520"/><line x1="45" y1="680" x2="1886" y2="680"/><line x1="45" y1="840" x2="1886" y2="840"/><line x1="45" y1="1000" x2="1886" y2="1000"/><line x1="45" y1="1160" x2="1886" y2="1160"/><line x1="45" y1="1320" x2="1886" y2="1320"/><line x1="45" y1="1480" x2="1886" y2="1480"/><line x1="45" y1="1640" x2="1886" y2="1640"/><line x1="45" y1="1800" x2="1886" y2="1800"/><line x1="45" y1="1960" x2="1886" y2="1960"/></g><circle cx="150" cy="150" r="47.5" fill="none" stroke-width="2" /><circle cx="1781" cy="150" r="47.5" fill="none" stroke-width="2" /><circle cx="150" cy="1933" r="47.5" fill="none" stroke-width="2" /><circle cx="1781" cy="1933" r="47.5" fill="none" stroke-width="2" /><circle cx="965.5" cy="1041.5" r="47.5" fill="none" stroke-width="2" stroke-dasharray="20 14"/></g><g class="dk-dim"><g stroke="#8a3a22" stroke-width="0.13"><line x1="129.55" y1="150.5" x2="129.55" y2="257.65"/><line x1="125.55" y1="152" x2="130.75" y2="152"/><line x1="128.55" y1="153" x2="130.55" y2="151" stroke-width="0.3"/><line x1="125.55" y1="256.15" x2="130.75" y2="256.15"/><line x1="128.55" y1="257.15" x2="130.55" y2="255.15" stroke-width="0.3"/></g><text x="128.75" y="204.07" font-size="1.2" text-anchor="middle" fill="#8a3a22" font-weight="400" letter-spacing="0" font-family="Helvetica, Arial, sans-serif" class="dk-mm" transform="rotate(-90 128.75 204.07)">2083</text><text x="128.75" y="204.07" font-size="1.2" text-anchor="middle" fill="#8a3a22" font-weight="400" letter-spacing="0" font-family="Helvetica, Arial, sans-serif" class="dk-in" transform="rotate(-90 128.75 204.07)">6'-10"</text></g><g class="dk-dim"><g stroke="#8a3a22" stroke-width="0.13"><line x1="26.5" y1="261.15" x2="126.05" y2="261.15"/><line x1="28" y1="257.15" x2="28" y2="262.35"/><line x1="27" y1="262.15" x2="29" y2="260.15" stroke-width="0.3"/><line x1="124.55" y1="257.15" x2="124.55" y2="262.35"/><line x1="123.55" y1="262.15" x2="125.55" y2="260.15" stroke-width="0.3"/></g><text x="76.28" y="260.35" font-size="1.2" text-anchor="middle" fill="#8a3a22" font-weight="400" letter-spacing="0" font-family="Helvetica, Arial, sans-serif" class="dk-mm">1931</text><text x="76.28" y="260.35" font-size="1.2" text-anchor="middle" fill="#8a3a22" font-weight="400" letter-spacing="0" font-family="Helvetica, Arial, sans-serif" class="dk-in">6'-4"</text></g><text x="140" y="142" font-size="3.2" text-anchor="start" fill="#1b1b1b" font-weight="700" letter-spacing="0.3" font-family="Helvetica, Arial, sans-serif">1 · TURNED FOOT</text><line x1="140" y1="143.5" x2="190" y2="143.5" stroke="#1b1b1b" stroke-width="0.35"/><text x="140" y="146.8" font-size="1.7" text-anchor="start" fill="#666" font-weight="400" letter-spacing="0.2" font-family="Helvetica, Arial, sans-serif">ELEVATION · SCALE 1:4</text><g transform="translate(165 166) scale(0.25)" stroke="#1b1b1b" stroke-width="1.2" fill="none" stroke-linejoin="round" stroke-linecap="round"><path d="M -35 0 L -35 16 C -47.5 30 -51.5 90 -47.5 110 C -41.5 148 -30 168 -30 178 L 30 178 C 30 168 41.5 148 47.5 110 C 51.5 90 47.5 30 35 16 L 35 0 Z" fill="#c9a88a" stroke-width="0.48"/><line x1="-35" y1="16" x2="35" y2="16" stroke-width="0.288"/><line x1="-80" y1="178" x2="80" y2="178" stroke-width="1.44"/><rect x="-90" y="-40" width="180" height="40" fill="#c9a88a" stroke-width="0.48"/></g><g class="dk-dim"><g stroke="#8a3a22" stroke-width="0.13"><line x1="182.88" y1="164.5" x2="182.88" y2="212"/><line x1="177.88" y1="166" x2="184.08" y2="166"/><line x1="181.88" y1="167" x2="183.88" y2="165" stroke-width="0.3"/><line x1="177.88" y1="210.5" x2="184.08" y2="210.5"/><line x1="181.88" y1="211.5" x2="183.88" y2="209.5" stroke-width="0.3"/></g><text x="182.08" y="188.25" font-size="1.2" text-anchor="middle" fill="#8a3a22" font-weight="400" letter-spacing="0" font-family="Helvetica, Arial, sans-serif" class="dk-mm" transform="rotate(-90 182.08 188.25)">178</text><text x="182.08" y="188.25" font-size="1.2" text-anchor="middle" fill="#8a3a22" font-weight="400" letter-spacing="0" font-family="Helvetica, Arial, sans-serif" class="dk-in" transform="rotate(-90 182.08 188.25)">7"</text></g><g class="dk-dim"><g stroke="#8a3a22" stroke-width="0.13"><line x1="151.63" y1="215.5" x2="178.38" y2="215.5"/><line x1="153.13" y1="211.5" x2="153.13" y2="216.7"/><line x1="152.13" y1="216.5" x2="154.13" y2="214.5" stroke-width="0.3"/><line x1="176.88" y1="211.5" x2="176.88" y2="216.7"/><line x1="175.88" y1="216.5" x2="177.88" y2="214.5" stroke-width="0.3"/></g><text x="165" y="214.7" font-size="1.2" text-anchor="middle" fill="#8a3a22" font-weight="400" letter-spacing="0" font-family="Helvetica, Arial, sans-serif" class="dk-mm">95</text><text x="165" y="214.7" font-size="1.2" text-anchor="middle" fill="#8a3a22" font-weight="400" letter-spacing="0" font-family="Helvetica, Arial, sans-serif" class="dk-in">3¾"</text></g><line x1="165" y1="168" x2="192.88" y2="158.5" stroke="#1b1b1b" stroke-width="0.13"/><circle cx="165" cy="168" r="0.4" fill="#1b1b1b"/><text x="193.88" y="158.7" font-size="1.7" text-anchor="start" fill="#1b1b1b" font-weight="400" letter-spacing="0" font-family="Helvetica, Arial, sans-serif">COLLAR</text><text x="193.88" y="161" font-size="1.45" text-anchor="start" fill="#666" font-weight="400" letter-spacing="0" font-family="Helvetica, Arial, sans-serif">TURNED IN THE SOLID</text><text x="206" y="142" font-size="3.2" text-anchor="start" fill="#1b1b1b" font-weight="700" letter-spacing="0.3" font-family="Helvetica, Arial, sans-serif">2 · THE BACK CUSHION</text><line x1="206" y1="143.5" x2="256" y2="143.5" stroke="#1b1b1b" stroke-width="0.35"/><text x="206" y="146.8" font-size="1.7" text-anchor="start" fill="#666" font-weight="400" letter-spacing="0.2" font-family="Helvetica, Arial, sans-serif">SECTION · SCALE 1:5</text><g transform="translate(214 156) scale(0.2)" stroke="#1b1b1b" stroke-width="1.5" fill="none" stroke-linejoin="round" stroke-linecap="round"><rect x="0" y="0" width="200" height="430" rx="50" fill="#f4f1ea" stroke-width="0.78"/><rect x="22" y="22" width="156" height="386" rx="32" fill="none" stroke-width="0.36" stroke-dasharray="7 5"/><circle cx="15" cy="15" r="5" fill="#fff" stroke-width="0.36"/><circle cx="185" cy="15" r="5" fill="#fff" stroke-width="0.36"/><circle cx="15" cy="415" r="5" fill="#fff" stroke-width="0.36"/><circle cx="185" cy="415" r="5" fill="#fff" stroke-width="0.36"/></g><g class="dk-dim"><g stroke="#8a3a22" stroke-width="0.13"><line x1="212.5" y1="153" x2="255.5" y2="153"/><line x1="214" y1="156" x2="214" y2="154.2"/><line x1="213" y1="154" x2="215" y2="152" stroke-width="0.3"/><line x1="254" y1="156" x2="254" y2="154.2"/><line x1="253" y1="154" x2="255" y2="152" stroke-width="0.3"/></g><text x="234" y="152.2" font-size="1.15" text-anchor="middle" fill="#8a3a22" font-weight="400" letter-spacing="0" font-family="Helvetica, Arial, sans-serif" class="dk-mm">200</text><text x="234" y="152.2" font-size="1.15" text-anchor="middle" fill="#8a3a22" font-weight="400" letter-spacing="0" font-family="Helvetica, Arial, sans-serif" class="dk-in">7⅞"</text></g><g class="dk-dim"><g stroke="#8a3a22" stroke-width="0.13"><line x1="259" y1="154.5" x2="259" y2="243.5"/><line x1="255" y1="156" x2="260.2" y2="156"/><line x1="258" y1="157" x2="260" y2="155" stroke-width="0.3"/><line x1="255" y1="242" x2="260.2" y2="242"/><line x1="258" y1="243" x2="260" y2="241" stroke-width="0.3"/></g><text x="258.2" y="199" font-size="1.15" text-anchor="middle" fill="#8a3a22" font-weight="400" letter-spacing="0" font-family="Helvetica, Arial, sans-serif" class="dk-mm" transform="rotate(-90 258.2 199)">430</text><text x="258.2" y="199" font-size="1.15" text-anchor="middle" fill="#8a3a22" font-weight="400" letter-spacing="0" font-family="Helvetica, Arial, sans-serif" class="dk-in" transform="rotate(-90 258.2 199)">1'-4⅞"</text></g><line x1="234" y1="199" x2="266" y2="207" stroke="#1b1b1b" stroke-width="0.13"/><circle cx="234" cy="199" r="0.4" fill="#1b1b1b"/><text x="267" y="207.2" font-size="1.7" text-anchor="start" fill="#1b1b1b" font-weight="400" letter-spacing="0" font-family="Helvetica, Arial, sans-serif">FOAM</text><text x="267" y="209.5" font-size="1.45" text-anchor="start" fill="#666" font-weight="400" letter-spacing="0" font-family="Helvetica, Arial, sans-serif">FEATHER-WRAPPED</text><line x1="251" y1="159" x2="266" y2="170" stroke="#1b1b1b" stroke-width="0.13"/><circle cx="251" cy="159" r="0.4" fill="#1b1b1b"/><text x="267" y="170.2" font-size="1.7" text-anchor="start" fill="#1b1b1b" font-weight="400" letter-spacing="0" font-family="Helvetica, Arial, sans-serif">PIPED EDGES</text><text x="267" y="172.5" font-size="1.45" text-anchor="start" fill="#666" font-weight="400" letter-spacing="0" font-family="Helvetica, Arial, sans-serif">CREAM WEAVE, ZIPPED</text><text x="300" y="142" font-size="3.2" text-anchor="start" fill="#1b1b1b" font-weight="700" letter-spacing="0.3" font-family="Helvetica, Arial, sans-serif">3 · NO HEADBOARD</text><line x1="300" y1="143.5" x2="340" y2="143.5" stroke="#1b1b1b" stroke-width="0.35"/><text x="300" y="146.8" font-size="1.7" text-anchor="start" fill="#666" font-weight="400" letter-spacing="0.2" font-family="Helvetica, Arial, sans-serif"></text><text x="300" y="152" font-size="1.5" text-anchor="start" fill="#1b1b1b" font-weight="400" letter-spacing="0" font-family="Helvetica, Arial, sans-serif">Nothing is fixed: the cushion is loose — it sits on</text><text x="300" y="156.3" font-size="1.5" text-anchor="start" fill="#1b1b1b" font-weight="400" letter-spacing="0" font-family="Helvetica, Arial, sans-serif">the mattress and leans back on the parchment. The</text><text x="300" y="160.6" font-size="1.5" text-anchor="start" fill="#1b1b1b" font-weight="400" letter-spacing="0" font-family="Helvetica, Arial, sans-serif">frame's head stands 1 in off the plaster. Wax the</text><text x="300" y="164.9" font-size="1.5" text-anchor="start" fill="#1b1b1b" font-weight="400" letter-spacing="0" font-family="Helvetica, Arial, sans-serif">plaster behind the cushion so it does not scuff.</text><text x="300" y="178" font-size="3.2" text-anchor="start" fill="#1b1b1b" font-weight="700" letter-spacing="0.3" font-family="Helvetica, Arial, sans-serif">NOTES</text><line x1="300" y1="179.5" x2="400" y2="179.5" stroke="#1b1b1b" stroke-width="0.35"/><text x="300" y="182.8" font-size="1.7" text-anchor="start" fill="#666" font-weight="400" letter-spacing="0.2" font-family="Helvetica, Arial, sans-serif">REVISION 2</text><text x="300" y="189" font-size="1.5" text-anchor="start" fill="#1b1b1b" font-weight="400" letter-spacing="0" font-family="Helvetica, Arial, sans-serif">The bed in the owner's photo, sized to the 6 ft × 6 ft 6 in mattress:</text><text x="300" y="193.4" font-size="1.5" text-anchor="start" fill="#1b1b1b" font-weight="400" letter-spacing="0" font-family="Helvetica, Arial, sans-serif">a low dark-wood platform — a 4 in rail with a 1 in lip, on five turned</text><text x="300" y="197.8" font-size="1.5" text-anchor="start" fill="#1b1b1b" font-weight="400" letter-spacing="0" font-family="Helvetica, Arial, sans-serif">bun feet. No headboard (owner): a long white cushion along the back,</text><text x="300" y="202.2" font-size="1.5" text-anchor="start" fill="#1b1b1b" font-weight="400" letter-spacing="0" font-family="Helvetica, Arial, sans-serif">the mattress's width, leaning on the parchment. Proportions read off</text><text x="300" y="206.6" font-size="1.5" text-anchor="start" fill="#1b1b1b" font-weight="400" letter-spacing="0" font-family="Helvetica, Arial, sans-serif">the photos; mattress thickness ASSUMED until the mattress is chosen.</text><text x="300" y="211" font-size="1.5" text-anchor="start" fill="#1b1b1b" font-weight="400" letter-spacing="0" font-family="Helvetica, Arial, sans-serif">Frame in solid teak, polished dark to sit with the Dark Diva wall.</text><text x="300" y="215.4" font-size="1.5" text-anchor="start" fill="#1b1b1b" font-weight="400" letter-spacing="0" font-family="Helvetica, Arial, sans-serif">Cushion: cream textured weave, piped, as the owner's photo.</text><g data-tb="1"><g stroke="#1b1b1b" stroke-width="0.3" fill="none"><rect x="300" y="239" width="112" height="50" fill="#fff"/>
      <line x1="300" y1="253" x2="412" y2="253"/><line x1="300" y1="269" x2="412" y2="269"/>
      <line x1="300" y1="279" x2="412" y2="279"/><line x1="356" y1="269" x2="356" y2="289"/></g><text x="303" y="245.5" font-size="3.4" text-anchor="start" fill="#1b1b1b" font-weight="700" letter-spacing="0.6" font-family="Helvetica, Arial, sans-serif">A STUDY IN TEAK</text><text x="303" y="250" font-size="1.9" text-anchor="start" fill="#666" font-weight="400" letter-spacing="0" font-family="Helvetica, Arial, sans-serif">Particulars of the room</text><text x="303" y="259.5" font-size="3.4" text-anchor="start" fill="#1b1b1b" font-weight="700" letter-spacing="0.3" font-family="Helvetica, Arial, sans-serif">THE BED</text><text x="303" y="265" font-size="2" text-anchor="start" fill="#666" font-weight="400" letter-spacing="0" font-family="Helvetica, Arial, sans-serif">Front · Side · Plan · Foot · Back cushion</text><text x="303" y="273" font-size="1.5" text-anchor="start" fill="#666" font-weight="400" letter-spacing="0" font-family="Helvetica, Arial, sans-serif">SCALE</text><text x="303" y="277" font-size="2.1" text-anchor="start" fill="#1b1b1b" font-weight="400" letter-spacing="0" font-family="Helvetica, Arial, sans-serif">AS NOTED @ A3</text><text x="359" y="273" font-size="1.5" text-anchor="start" fill="#666" font-weight="400" letter-spacing="0" font-family="Helvetica, Arial, sans-serif">DATE</text><text x="359" y="277" font-size="2.1" text-anchor="start" fill="#1b1b1b" font-weight="400" letter-spacing="0" font-family="Helvetica, Arial, sans-serif">03.10.2026</text><text x="303" y="283" font-size="1.5" text-anchor="start" fill="#666" font-weight="400" letter-spacing="0" font-family="Helvetica, Arial, sans-serif">REV</text><text x="303" y="287" font-size="1.8" text-anchor="start" fill="#1b1b1b" font-weight="400" letter-spacing="0" font-family="Helvetica, Arial, sans-serif">2 — no headboard: a long white cushion along the back</text><text x="359" y="283" font-size="1.5" text-anchor="start" fill="#666" font-weight="400" letter-spacing="0" font-family="Helvetica, Arial, sans-serif">DWG</text><text x="359" y="287" font-size="2.1" text-anchor="start" fill="#1b1b1b" font-weight="700" letter-spacing="0" font-family="Helvetica, Arial, sans-serif">AST-DR-035</text></g></svg>