  0
SECTION
  2
HEADER
  9
$ACADVER
  1
AC1024
  9
$ACADMAINTVER
 70
6
  9
$DWGCODEPAGE
  3
ANSI_1252
  9
$LASTSAVEDBY
  1
ezdxf
  9
$INSBASE
 10
0.0
 20
0.0
 30
0.0
  9
$EXTMIN
 10
1e+20
 20
1e+20
 30
1e+20
  9
$EXTMAX
 10
-1e+20
 20
-1e+20
 30
-1e+20
  9
$LIMMIN
 10
0.0
 20
0.0
  9
$LIMMAX
 10
420.0
 20
297.0
  9
$ORTHOMODE
 70
0
  9
$REGENMODE
 70
1
  9
$FILLMODE
 70
1
  9
$QTEXTMODE
 70
0
  9
$MIRRTEXT
 70
1
  9
$LTSCALE
 40
1.0
  9
$ATTMODE
 70
1
  9
$TEXTSIZE
 40
2.5
  9
$TRACEWID
 40
1.0
  9
$TEXTSTYLE
  7
OpenSans
  9
$CLAYER
  8
0
  9
$CELTYPE
  6
ByLayer
  9
$CECOLOR
 62
256
  9
$CELTSCALE
 40
1.0
  9
$DISPSILH
 70
0
  9
$DIMSCALE
 40
1.0
  9
$DIMASZ
 40
0.175
  9
$DIMEXO
 40
0.125
  9
$DIMDLI
 40
3.75
  9
$DIMRND
 40
0.0
  9
$DIMDLE
 40
0.0
  9
$DIMEXE
 40
0.375
  9
$DIMTP
 40
0.0
  9
$DIMTM
 40
0.0
  9
$DIMTXT
 40
0.25
  9
$DIMCEN
 40
2.5
  9
$DIMTSZ
 40
0.0
  9
$DIMTOL
 70
0
  9
$DIMLIM
 70
0
  9
$DIMTIH
 70
0
  9
$DIMTOH
 70
0
  9
$DIMSE1
 70
0
  9
$DIMSE2
 70
0
  9
$DIMTAD
 70
1
  9
$DIMZIN
 70
12
  9
$DIMBLK
  1
ARCHTICK
  9
$DIMASO
 70
1
  9
$DIMSHO
 70
1
  9
$DIMPOST
  1

  9
$DIMAPOST
  1

  9
$DIMALT
 70
0
  9
$DIMALTD
 70
3
  9
$DIMALTF
 40
0.03937007874
  9
$DIMLFAC
 40
100.0
  9
$DIMTOFL
 70
1
  9
$DIMTVP
 40
0.0
  9
$DIMTIX
 70
0
  9
$DIMSOXD
 70
0
  9
$DIMSAH
 70
0
  9
$DIMBLK1
  1

  9
$DIMBLK2
  1

  9
$DIMSTYLE
  2
EZDXF
  9
$DIMCLRD
 70
0
  9
$DIMCLRE
 70
0
  9
$DIMCLRT
 70
0
  9
$DIMTFAC
 40
0.5
  9
$DIMGAP
 40
0.1
  9
$DIMJUST
 70
0
  9
$DIMSD1
 70
0
  9
$DIMSD2
 70
0
  9
$DIMTOLJ
 70
0
  9
$DIMTZIN
 70
8
  9
$DIMALTZ
 70
0
  9
$DIMALTTZ
 70
0
  9
$DIMUPT
 70
1
  9
$DIMDEC
 70
2
  9
$DIMTDEC
 70
2
  9
$DIMALTU
 70
2
  9
$DIMALTTD
 70
3
  9
$DIMTXSTY
  7
OpenSansCondensed-Light
  9
$DIMAUNIT
 70
0
  9
$DIMADEC
 70
2
  9
$DIMALTRND
 40
0.0
  9
$DIMAZIN
 70
3
  9
$DIMDSEP
 70
46
  9
$DIMATFIT
 70
3
  9
$DIMFRAC
 70
0
  9
$DIMLDRBLK
  1

  9
$DIMLUNIT
 70
2
  9
$DIMLWD
 70
-2
  9
$DIMLWE
 70
-2
  9
$DIMTMOVE
 70
2
  9
$DIMFXL
 40
1.0
  9
$DIMFXLON
 70
0
  9
$DIMJOGANG
 40
0.785398163397
  9
$DIMTFILL
 70
0
  9
$DIMTFILLCLR
 70
0
  9
$DIMARCSYM
 70
0
  9
$DIMLTYPE
  6

  9
$DIMLTEX1
  6

  9
$DIMLTEX2
  6

  9
$DIMTXTDIRECTION
 70
0
  9
$LUNITS
 70
4
  9
$LUPREC
 70
4
  9
$SKETCHINC
 40
1.0
  9
$FILLETRAD
 40
10.0
  9
$AUNITS
 70
0
  9
$AUPREC
 70
3
  9
$MENU
  1
.
  9
$ELEVATION
 40
0.0
  9
$PELEVATION
 40
0.0
  9
$THICKNESS
 40
0.0
  9
$LIMCHECK
 70
0
  9
$CHAMFERA
 40
0.0
  9
$CHAMFERB
 40
0.0
  9
$CHAMFERC
 40
0.0
  9
$CHAMFERD
 40
0.0
  9
$SKPOLY
 70
0
  9
$TDCREATE
 40
2461321.8288194444
  9
$TDUCREATE
 40
2458532.153996898
  9
$TDUPDATE
 40
2461321.8288194444
  9
$TDUUPDATE
 40
2458532.1544311
  9
$TDINDWG
 40
0.0
  9
$TDUSRTIMER
 40
0.0
  9
$USRTIMER
 70
1
  9
$ANGBASE
 50
0.0
  9
$ANGDIR
 70
0
  9
$PDMODE
 70
0
  9
$PDSIZE
 40
0.0
  9
$PLINEWID
 40
0.0
  9
$SPLFRAME
 70
0
  9
$SPLINETYPE
 70
6
  9
$SPLINESEGS
 70
8
  9
$HANDSEED
  5
268
  9
$SURFTAB1
 70
6
  9
$SURFTAB2
 70
6
  9
$SURFTYPE
 70
6
  9
$SURFU
 70
6
  9
$SURFV
 70
6
  9
$UCSBASE
  2

  9
$UCSNAME
  2

  9
$UCSORG
 10
0.0
 20
0.0
 30
0.0
  9
$UCSXDIR
 10
1.0
 20
0.0
 30
0.0
  9
$UCSYDIR
 10
0.0
 20
1.0
 30
0.0
  9
$UCSORTHOREF
  2

  9
$UCSORTHOVIEW
 70
0
  9
$UCSORGTOP
 10
0.0
 20
0.0
 30
0.0
  9
$UCSORGBOTTOM
 10
0.0
 20
0.0
 30
0.0
  9
$UCSORGLEFT
 10
0.0
 20
0.0
 30
0.0
  9
$UCSORGRIGHT
 10
0.0
 20
0.0
 30
0.0
  9
$UCSORGFRONT
 10
0.0
 20
0.0
 30
0.0
  9
$UCSORGBACK
 10
0.0
 20
0.0
 30
0.0
  9
$PUCSBASE
  2

  9
$PUCSNAME
  2

  9
$PUCSORG
 10
0.0
 20
0.0
 30
0.0
  9
$PUCSXDIR
 10
1.0
 20
0.0
 30
0.0
  9
$PUCSYDIR
 10
0.0
 20
1.0
 30
0.0
  9
$PUCSORTHOREF
  2

  9
$PUCSORTHOVIEW
 70
0
  9
$PUCSORGTOP
 10
0.0
 20
0.0
 30
0.0
  9
$PUCSORGBOTTOM
 10
0.0
 20
0.0
 30
0.0
  9
$PUCSORGLEFT
 10
0.0
 20
0.0
 30
0.0
  9
$PUCSORGRIGHT
 10
0.0
 20
0.0
 30
0.0
  9
$PUCSORGFRONT
 10
0.0
 20
0.0
 30
0.0
  9
$PUCSORGBACK
 10
0.0
 20
0.0
 30
0.0
  9
$USERI1
 70
0
  9
$USERI2
 70
0
  9
$USERI3
 70
0
  9
$USERI4
 70
0
  9
$USERI5
 70
0
  9
$USERR1
 40
0.0
  9
$USERR2
 40
0.0
  9
$USERR3
 40
0.0
  9
$USERR4
 40
0.0
  9
$USERR5
 40
0.0
  9
$WORLDVIEW
 70
1
  9
$SHADEDGE
 70
3
  9
$SHADEDIF
 70
70
  9
$TILEMODE
 70
1
  9
$MAXACTVP
 70
64
  9
$PINSBASE
 10
0.0
 20
0.0
 30
0.0
  9
$PLIMCHECK
 70
0
  9
$PEXTMIN
 10
1e+20
 20
1e+20
 30
1e+20
  9
$PEXTMAX
 10
-1e+20
 20
-1e+20
 30
-1e+20
  9
$PLIMMIN
 10
0.0
 20
0.0
  9
$PLIMMAX
 10
420.0
 20
297.0
  9
$UNITMODE
 70
0
  9
$VISRETAIN
 70
1
  9
$PLINEGEN
 70
0
  9
$PSLTSCALE
 70
1
  9
$TREEDEPTH
 70
3020
  9
$CMLSTYLE
  2
Standard
  9
$CMLJUST
 70
0
  9
$CMLSCALE
 40
20.0
  9
$PROXYGRAPHICS
 70
1
  9
$MEASUREMENT
 70
0
  9
$CELWEIGHT
370
-1
  9
$ENDCAPS
280
0
  9
$JOINSTYLE
280
0
  9
$LWDISPLAY
290
0
  9
$INSUNITS
 70
1
  9
$HYPERLINKBASE
  1

  9
$STYLESHEET
  1

  9
$XEDIT
290
1
  9
$CEPSNTYPE
380
0
  9
$PSTYLEMODE
290
1
  9
$FINGERPRINTGUID
  2
{75A52059-2D83-4992-B7D8-DAA9E5BCB7A2}
  9
$VERSIONGUID
  2
{4BEA12C5-2737-4957-8462-91122B561600}
  9
$EXTNAMES
290
1
  9
$PSVPSCALE
 40
0.0
  9
$OLESTARTUP
290
0
  9
$SORTENTS
280
127
  9
$INDEXCTL
280
0
  9
$HIDETEXT
280
1
  9
$XCLIPFRAME
280
1
  9
$HALOGAP
280
0
  9
$OBSCOLOR
 70
257
  9
$OBSLTYPE
280
0
  9
$INTERSECTIONDISPLAY
280
0
  9
$INTERSECTIONCOLOR
 70
257
  9
$DIMASSOC
280
2
  9
$PROJECTNAME
  1

  9
$CAMERADISPLAY
290
0
  9
$LENSLENGTH
 40
50.0
  9
$CAMERAHEIGHT
 40
0.0
  9
$STEPSPERSEC
 40
24.0
  9
$STEPSIZE
 40
100.0
  9
$3DDWFPREC
 40
2.0
  9
$PSOLWIDTH
 40
0.005
  9
$PSOLHEIGHT
 40
0.08
  9
$LOFTANG1
 40
1.570796326795
  9
$LOFTANG2
 40
1.570796326795
  9
$LOFTMAG1
 40
0.0
  9
$LOFTMAG2
 40
0.0
  9
$LOFTPARAM
 70
7
  9
$LOFTNORMALS
280
1
  9
$LATITUDE
 40
37.795
  9
$LONGITUDE
 40
-122.394
  9
$NORTHDIRECTION
 40
0.0
  9
$TIMEZONE
 70
-8000
  9
$LIGHTGLYPHDISPLAY
280
1
  9
$TILEMODELIGHTSYNCH
280
1
  9
$CMATERIAL
347
20
  9
$SOLIDHIST
280
0
  9
$SHOWHIST
280
1
  9
$DWFFRAME
280
2
  9
$DGNFRAME
280
2
  9
$REALWORLDSCALE
290
1
  9
$INTERFERECOLOR
 62
256
  9
$CSHADOW
280
0
  9
$SHADOWPLANELOCATION
 40
0.0
  0
ENDSEC
  0
SECTION
  2
CLASSES
  0
CLASS
  1
ACDBDICTIONARYWDFLT
  2
AcDbDictionaryWithDefault
  3
ObjectDBX Classes
 90
0
 91
0
280
0
281
0
  0
CLASS
  1
SUN
  2
AcDbSun
  3
SCENEOE
 90
1153
 91
0
280
0
281
0
  0
CLASS
  1
VISUALSTYLE
  2
AcDbVisualStyle
  3
ObjectDBX Classes
 90
4095
 91
0
280
0
281
0
  0
CLASS
  1
MATERIAL
  2
AcDbMaterial
  3
ObjectDBX Classes
 90
1153
 91
0
280
0
281
0
  0
CLASS
  1
SCALE
  2
AcDbScale
  3
ObjectDBX Classes
 90
1153
 91
0
280
0
281
0
  0
CLASS
  1
TABLESTYLE
  2
AcDbTableStyle
  3
ObjectDBX Classes
 90
4095
 91
0
280
0
281
0
  0
CLASS
  1
MLEADERSTYLE
  2
AcDbMLeaderStyle
  3
ACDB_MLEADERSTYLE_CLASS
 90
4095
 91
0
280
0
281
0
  0
CLASS
  1
DICTIONARYVAR
  2
AcDbDictionaryVar
  3
ObjectDBX Classes
 90
0
 91
0
280
0
281
0
  0
CLASS
  1
CELLSTYLEMAP
  2
AcDbCellStyleMap
  3
ObjectDBX Classes
 90
1152
 91
0
280
0
281
0
  0
CLASS
  1
MENTALRAYRENDERSETTINGS
  2
AcDbMentalRayRenderSettings
  3
SCENEOE
 90
1024
 91
0
280
0
281
0
  0
CLASS
  1
ACDBDETAILVIEWSTYLE
  2
AcDbDetailViewStyle
  3
ObjectDBX Classes
 90
1025
 91
0
280
0
281
0
  0
CLASS
  1
ACDBSECTIONVIEWSTYLE
  2
AcDbSectionViewStyle
  3
ObjectDBX Classes
 90
1025
 91
0
280
0
281
0
  0
CLASS
  1
RASTERVARIABLES
  2
AcDbRasterVariables
  3
ISM
 90
0
 91
0
280
0
281
0
  0
CLASS
  1
ACDBPLACEHOLDER
  2
AcDbPlaceHolder
  3
ObjectDBX Classes
 90
0
 91
0
280
0
281
0
  0
CLASS
  1
LAYOUT
  2
AcDbLayout
  3
ObjectDBX Classes
 90
0
 91
0
280
0
281
0
  0
ENDSEC
  0
SECTION
  2
TABLES
  0
TABLE
  2
VPORT
  5
8
330
0
100
AcDbSymbolTable
 70
1
  0
VPORT
  5
23
330
8
100
AcDbSymbolTableRecord
100
AcDbViewportTableRecord
  2
*Active
 70
0
 10
0.0
 20
0.0
 11
1.0
 21
1.0
 12
0.0
 22
0.0
 13
0.0
 23
0.0
 14
0.5
 24
0.5
 15
0.5
 25
0.5
 16
0.0
 26
0.0
 36
1.0
 17
0.0
 27
0.0
 37
0.0
 40
1000.0
 41
1.34
 42
50.0
 43
0.0
 44
0.0
 50
0.0
 51
0.0
 71
0
 72
1000
 73
1
 74
3
 75
0
 76
0
 77
0
 78
0
281
0
 65
0
146
0.0
  0
ENDTAB
  0
TABLE
  2
LTYPE
  5
2
330
0
100
AcDbSymbolTable
 70
21
  0
LTYPE
  5
24
330
2
100
AcDbSymbolTableRecord
100
AcDbLinetypeTableRecord
  2
ByBlock
 70
0
  3

 72
65
 73
0
 40
0.0
  0
LTYPE
  5
25
330
2
100
AcDbSymbolTableRecord
100
AcDbLinetypeTableRecord
  2
ByLayer
 70
0
  3

 72
65
 73
0
 40
0.0
  0
LTYPE
  5
26
330
2
100
AcDbSymbolTableRecord
100
AcDbLinetypeTableRecord
  2
Continuous
 70
0
  3

 72
65
 73
0
 40
0.0
  0
LTYPE
  5
2F
330
2
100
AcDbSymbolTableRecord
100
AcDbLinetypeTableRecord
  2
CENTER
 70
0
  3
Center ____ _ ____ _ ____ _ ____ _ ____ _ ____
 72
65
 73
4
 40
2.0
 49
1.25
 74
0
 49
-0.25
 74
0
 49
0.25
 74
0
 49
-0.25
 74
0
  0
LTYPE
  5
30
330
2
100
AcDbSymbolTableRecord
100
AcDbLinetypeTableRecord
  2
CENTERX2
 70
0
  3
Center (2x) ________  __  ________  __  ________
 72
65
 73
4
 40
3.5
 49
2.5
 74
0
 49
-0.25
 74
0
 49
0.5
 74
0
 49
-0.25
 74
0
  0
LTYPE
  5
31
330
2
100
AcDbSymbolTableRecord
100
AcDbLinetypeTableRecord
  2
CENTER2
 70
0
  3
Center (.5x) ____ _ ____ _ ____ _ ____ _ ____
 72
65
 73
4
 40
1.0
 49
0.625
 74
0
 49
-0.125
 74
0
 49
0.125
 74
0
 49
-0.125
 74
0
  0
LTYPE
  5
32
330
2
100
AcDbSymbolTableRecord
100
AcDbLinetypeTableRecord
  2
DASHED
 70
0
  3
Dashed __ __ __ __ __ __ __ __ __ __ __ __ __ _
 72
65
 73
2
 40
0.6
 49
0.5
 74
0
 49
-0.1
 74
0
  0
LTYPE
  5
33
330
2
100
AcDbSymbolTableRecord
100
AcDbLinetypeTableRecord
  2
DASHEDX2
 70
0
  3
Dashed (2x) ____  ____  ____  ____  ____  ____
 72
65
 73
2
 40
1.2
 49
1.0
 74
0
 49
-0.2
 74
0
  0
LTYPE
  5
34
330
2
100
AcDbSymbolTableRecord
100
AcDbLinetypeTableRecord
  2
DASHED2
 70
0
  3
Dashed (.5x) _ _ _ _ _ _ _ _ _ _ _ _ _ _
 72
65
 73
2
 40
0.3
 49
0.25
 74
0
 49
-0.05
 74
0
  0
LTYPE
  5
35
330
2
100
AcDbSymbolTableRecord
100
AcDbLinetypeTableRecord
  2
PHANTOM
 70
0
  3
Phantom ______  __  __  ______  __  __  ______
 72
65
 73
6
 40
2.5
 49
1.25
 74
0
 49
-0.25
 74
0
 49
0.25
 74
0
 49
-0.25
 74
0
 49
0.25
 74
0
 49
-0.25
 74
0
  0
LTYPE
  5
36
330
2
100
AcDbSymbolTableRecord
100
AcDbLinetypeTableRecord
  2
PHANTOMX2
 70
0
  3
Phantom (2x)____________    ____    ____    ____________
 72
65
 73
6
 40
4.25
 49
2.5
 74
0
 49
-0.25
 74
0
 49
0.5
 74
0
 49
-0.25
 74
0
 49
0.5
 74
0
 49
-0.25
 74
0
  0
LTYPE
  5
37
330
2
100
AcDbSymbolTableRecord
100
AcDbLinetypeTableRecord
  2
PHANTOM2
 70
0
  3
Phantom (.5x) ___ _ _ ___ _ _ ___ _ _ ___ _ _ ___
 72
65
 73
6
 40
1.25
 49
0.625
 74
0
 49
-0.125
 74
0
 49
0.125
 74
0
 49
-0.125
 74
0
 49
0.125
 74
0
 49
-0.125
 74
0
  0
LTYPE
  5
38
330
2
100
AcDbSymbolTableRecord
100
AcDbLinetypeTableRecord
  2
DASHDOT
 70
0
  3
Dash dot __ . __ . __ . __ . __ . __ . __ . __
 72
65
 73
4
 40
1.4
 49
1.0
 74
0
 49
-0.2
 74
0
 49
0.0
 74
0
 49
-0.2
 74
0
  0
LTYPE
  5
39
330
2
100
AcDbSymbolTableRecord
100
AcDbLinetypeTableRecord
  2
DASHDOTX2
 70
0
  3
Dash dot (2x) ____  .  ____  .  ____  .  ____
 72
65
 73
4
 40
2.4
 49
2.0
 74
0
 49
-0.2
 74
0
 49
0.0
 74
0
 49
-0.2
 74
0
  0
LTYPE
  5
3A
330
2
100
AcDbSymbolTableRecord
100
AcDbLinetypeTableRecord
  2
DASHDOT2
 70
0
  3
Dash dot (.5x) _ . _ . _ . _ . _ . _ . _ . _
 72
65
 73
4
 40
0.7
 49
0.5
 74
0
 49
-0.1
 74
0
 49
0.0
 74
0
 49
-0.1
 74
0
  0
LTYPE
  5
3B
330
2
100
AcDbSymbolTableRecord
100
AcDbLinetypeTableRecord
  2
DOT
 70
0
  3
Dot .  .  .  .  .  .  .  .  .  .  .  .  .  .  .  .
 72
65
 73
2
 40
0.2
 49
0.0
 74
0
 49
-0.2
 74
0
  0
LTYPE
  5
3C
330
2
100
AcDbSymbolTableRecord
100
AcDbLinetypeTableRecord
  2
DOTX2
 70
0
  3
Dot (2x) .    .    .    .    .    .    .    . 
 72
65
 73
2
 40
0.4
 49
0.0
 74
0
 49
-0.4
 74
0
  0
LTYPE
  5
3D
330
2
100
AcDbSymbolTableRecord
100
AcDbLinetypeTableRecord
  2
DOT2
 70
0
  3
Dot (.5) . . . . . . . . . . . . . . . . . . . 
 72
65
 73
2
 40
0.1
 49
0.0
 74
0
 49
-0.1
 74
0
  0
LTYPE
  5
3E
330
2
100
AcDbSymbolTableRecord
100
AcDbLinetypeTableRecord
  2
DIVIDE
 70
0
  3
Divide __ . . __ . . __ . . __ . . __ . . __
 72
65
 73
6
 40
1.6
 49
1.0
 74
0
 49
-0.2
 74
0
 49
0.0
 74
0
 49
-0.2
 74
0
 49
0.0
 74
0
 49
-0.2
 74
0
  0
LTYPE
  5
3F
330
2
100
AcDbSymbolTableRecord
100
AcDbLinetypeTableRecord
  2
DIVIDEX2
 70
0
  3
Divide (2x) ____  . .  ____  . .  ____  . .  ____
 72
65
 73
6
 40
2.6
 49
2.0
 74
0
 49
-0.2
 74
0
 49
0.0
 74
0
 49
-0.2
 74
0
 49
0.0
 74
0
 49
-0.2
 74
0
  0
LTYPE
  5
40
330
2
100
AcDbSymbolTableRecord
100
AcDbLinetypeTableRecord
  2
DIVIDE2
 70
0
  3
Divide(.5x) _ . _ . _ . _ . _ . _ . _ . _
 72
65
 73
6
 40
0.8
 49
0.5
 74
0
 49
-0.1
 74
0
 49
0.0
 74
0
 49
-0.1
 74
0
 49
0.0
 74
0
 49
-0.1
 74
0
  0
ENDTAB
  0
TABLE
  2
LAYER
  5
1
330
0
100
AcDbSymbolTable
 70
16
  0
LAYER
  5
27
330
1
100
AcDbSymbolTableRecord
100
AcDbLayerTableRecord
  2
0
 70
0
 62
7
  6
Continuous
370
-3
390
13
347
21
  0
LAYER
  5
28
330
1
100
AcDbSymbolTableRecord
100
AcDbLayerTableRecord
  2
Defpoints
 70
0
 62
7
  6
Continuous
290
0
370
-3
390
13
347
21
  0
LAYER
  5
8A
330
1
100
AcDbSymbolTableRecord
100
AcDbLayerTableRecord
  2
Bed wall elevation
 70
0
 62
7
  6
Continuous
370
-3
390
13
347
21
  0
LAYER
  5
8B
330
1
100
AcDbSymbolTableRecord
100
AcDbLayerTableRecord
  2
Bed wall elevation hatch
 70
0
 62
8
  6
Continuous
370
-3
390
13
347
21
  0
LAYER
  5
12F
330
1
100
AcDbSymbolTableRecord
100
AcDbLayerTableRecord
  2
Bed wall face
 70
0
 62
7
  6
Continuous
370
-3
390
13
347
21
  0
LAYER
  5
130
330
1
100
AcDbSymbolTableRecord
100
AcDbLayerTableRecord
  2
Bed wall face hatch
 70
0
 62
8
  6
Continuous
370
-3
390
13
347
21
  0
LAYER
  5
1C0
330
1
100
AcDbSymbolTableRecord
100
AcDbLayerTableRecord
  2
Bed wall plan
 70
0
 62
7
  6
Continuous
370
-3
390
13
347
21
  0
LAYER
  5
1C1
330
1
100
AcDbSymbolTableRecord
100
AcDbLayerTableRecord
  2
Bed wall plan hatch
 70
0
 62
8
  6
Continuous
370
-3
390
13
347
21
  0
LAYER
  5
1EE
330
1
100
AcDbSymbolTableRecord
100
AcDbLayerTableRecord
  2
Bed wall section A-A
 70
0
 62
7
  6
Continuous
370
-3
390
13
347
21
  0
LAYER
  5
1EF
330
1
100
AcDbSymbolTableRecord
100
AcDbLayerTableRecord
  2
Bed wall section A-A hatch
 70
0
 62
8
  6
Continuous
370
-3
390
13
347
21
  0
LAYER
  5
228
330
1
100
AcDbSymbolTableRecord
100
AcDbLayerTableRecord
  2
Entrance corner
 70
0
 62
7
  6
Continuous
370
-3
390
13
347
21
  0
LAYER
  5
229
330
1
100
AcDbSymbolTableRecord
100
AcDbLayerTableRecord
  2
Entrance corner hatch
 70
0
 62
8
  6
Continuous
370
-3
390
13
347
21
  0
LAYER
  5
23F
330
1
100
AcDbSymbolTableRecord
100
AcDbLayerTableRecord
  2
Side table top plan
 70
0
 62
7
  6
Continuous
370
-3
390
13
347
21
  0
LAYER
  5
240
330
1
100
AcDbSymbolTableRecord
100
AcDbLayerTableRecord
  2
Side table top plan hatch
 70
0
 62
8
  6
Continuous
370
-3
390
13
347
21
  0
LAYER
  5
246
330
1
100
AcDbSymbolTableRecord
100
AcDbLayerTableRecord
  2
Side table top section
 70
0
 62
7
  6
Continuous
370
-3
390
13
347
21
  0
LAYER
  5
247
330
1
100
AcDbSymbolTableRecord
100
AcDbLayerTableRecord
  2
Side table top section hatch
 70
0
 62
8
  6
Continuous
370
-3
390
13
347
21
  0
ENDTAB
  0
TABLE
  2
STYLE
  5
5
330
0
100
AcDbSymbolTable
 70
26
  0
STYLE
  5
29
330
5
100
AcDbSymbolTableRecord
100
AcDbTextStyleTableRecord
  2
Standard
 70
0
 40
0.0
 41
1.0
 50
0.0
 71
0
 42
2.5
  3
txt
  4

  0
STYLE
  5
41
330
5
100
AcDbSymbolTableRecord
100
AcDbTextStyleTableRecord
  2
OpenSans-Light
 70
0
 40
0.0
 41
1.0
 50
0.0
 71
0
 42
2.5
  3
OpenSans-Light.ttf
  4

  0
STYLE
  5
42
330
5
100
AcDbSymbolTableRecord
100
AcDbTextStyleTableRecord
  2
OpenSans-Light-Italic
 70
0
 40
0.0
 41
1.0
 50
0.0
 71
0
 42
2.5
  3
OpenSans-LightItalic.ttf
  4

  0
STYLE
  5
43
330
5
100
AcDbSymbolTableRecord
100
AcDbTextStyleTableRecord
  2
OpenSans
 70
0
 40
0.0
 41
1.0
 50
0.0
 71
0
 42
2.5
  3
OpenSans-Regular.ttf
  4

  0
STYLE
  5
44
330
5
100
AcDbSymbolTableRecord
100
AcDbTextStyleTableRecord
  2
OpenSans-Italic
 70
0
 40
0.0
 41
1.0
 50
0.0
 71
0
 42
2.5
  3
OpenSans-Italic.ttf
  4

  0
STYLE
  5
45
330
5
100
AcDbSymbolTableRecord
100
AcDbTextStyleTableRecord
  2
OpenSans-SemiBold
 70
0
 40
0.0
 41
1.0
 50
0.0
 71
0
 42
2.5
  3
OpenSans-SemiBold.ttf
  4

  0
STYLE
  5
46
330
5
100
AcDbSymbolTableRecord
100
AcDbTextStyleTableRecord
  2
OpenSans-SemiBoldItalic
 70
0
 40
0.0
 41
1.0
 50
0.0
 71
0
 42
2.5
  3
OpenSans-SemiBoldItalic.ttf
  4

  0
STYLE
  5
47
330
5
100
AcDbSymbolTableRecord
100
AcDbTextStyleTableRecord
  2
OpenSans-Bold
 70
0
 40
0.0
 41
1.0
 50
0.0
 71
0
 42
2.5
  3
OpenSans-Bold.ttf
  4

  0
STYLE
  5
48
330
5
100
AcDbSymbolTableRecord
100
AcDbTextStyleTableRecord
  2
OpenSans-BoldItalic
 70
0
 40
0.0
 41
1.0
 50
0.0
 71
0
 42
2.5
  3
OpenSans-BoldItalic.ttf
  4

  0
STYLE
  5
49
330
5
100
AcDbSymbolTableRecord
100
AcDbTextStyleTableRecord
  2
OpenSans-ExtraBold
 70
0
 40
0.0
 41
1.0
 50
0.0
 71
0
 42
2.5
  3
OpenSans-ExtraBold.ttf
  4

  0
STYLE
  5
4A
330
5
100
AcDbSymbolTableRecord
100
AcDbTextStyleTableRecord
  2
OpenSans-ExtraBoldItalic
 70
0
 40
0.0
 41
1.0
 50
0.0
 71
0
 42
2.5
  3
OpenSans-ExtraBoldItalic.ttf
  4

  0
STYLE
  5
4B
330
5
100
AcDbSymbolTableRecord
100
AcDbTextStyleTableRecord
  2
OpenSansCondensed-Bold
 70
0
 40
0.0
 41
1.0
 50
0.0
 71
0
 42
2.5
  3
OpenSansCondensed-Bold.ttf
  4

  0
STYLE
  5
4C
330
5
100
AcDbSymbolTableRecord
100
AcDbTextStyleTableRecord
  2
OpenSansCondensed-Light
 70
0
 40
0.0
 41
1.0
 50
0.0
 71
0
 42
2.5
  3
OpenSansCondensed-Light.ttf
  4

  0
STYLE
  5
4D
330
5
100
AcDbSymbolTableRecord
100
AcDbTextStyleTableRecord
  2
OpenSansCondensed-Italic
 70
0
 40
0.0
 41
1.0
 50
0.0
 71
0
 42
2.5
  3
OpenSansCondensed-LightItalic.ttf
  4

  0
STYLE
  5
4E
330
5
100
AcDbSymbolTableRecord
100
AcDbTextStyleTableRecord
  2
LiberationSans
 70
0
 40
0.0
 41
1.0
 50
0.0
 71
0
 42
2.5
  3
LiberationSans-Regular.ttf
  4

  0
STYLE
  5
4F
330
5
100
AcDbSymbolTableRecord
100
AcDbTextStyleTableRecord
  2
LiberationSans-Bold
 70
0
 40
0.0
 41
1.0
 50
0.0
 71
0
 42
2.5
  3
LiberationSans-Bold.ttf
  4

  0
STYLE
  5
50
330
5
100
AcDbSymbolTableRecord
100
AcDbTextStyleTableRecord
  2
LiberationSans-BoldItalic
 70
0
 40
0.0
 41
1.0
 50
0.0
 71
0
 42
2.5
  3
LiberationSans-BoldItalic.ttf
  4

  0
STYLE
  5
51
330
5
100
AcDbSymbolTableRecord
100
AcDbTextStyleTableRecord
  2
LiberationSans-Italic
 70
0
 40
0.0
 41
1.0
 50
0.0
 71
0
 42
2.5
  3
LiberationSans-Italic.ttf
  4

  0
STYLE
  5
52
330
5
100
AcDbSymbolTableRecord
100
AcDbTextStyleTableRecord
  2
LiberationSerif
 70
0
 40
0.0
 41
1.0
 50
0.0
 71
0
 42
2.5
  3
LiberationSerif-Regular.ttf
  4

  0
STYLE
  5
53
330
5
100
AcDbSymbolTableRecord
100
AcDbTextStyleTableRecord
  2
LiberationSerif-Bold
 70
0
 40
0.0
 41
1.0
 50
0.0
 71
0
 42
2.5
  3
LiberationSerif-Bold.ttf
  4

  0
STYLE
  5
54
330
5
100
AcDbSymbolTableRecord
100
AcDbTextStyleTableRecord
  2
LiberationSerif-BoldItalic
 70
0
 40
0.0
 41
1.0
 50
0.0
 71
0
 42
2.5
  3
LiberationSerif-BoldItalic.ttf
  4

  0
STYLE
  5
55
330
5
100
AcDbSymbolTableRecord
100
AcDbTextStyleTableRecord
  2
LiberationSerif-Italic
 70
0
 40
0.0
 41
1.0
 50
0.0
 71
0
 42
2.5
  3
LiberationSerif-Italic.ttf
  4

  0
STYLE
  5
56
330
5
100
AcDbSymbolTableRecord
100
AcDbTextStyleTableRecord
  2
LiberationMono
 70
0
 40
0.0
 41
1.0
 50
0.0
 71
0
 42
2.5
  3
LiberationMono-Regular.ttf
  4

  0
STYLE
  5
57
330
5
100
AcDbSymbolTableRecord
100
AcDbTextStyleTableRecord
  2
LiberationMono-Bold
 70
0
 40
0.0
 41
1.0
 50
0.0
 71
0
 42
2.5
  3
LiberationMono-Bold.ttf
  4

  0
STYLE
  5
58
330
5
100
AcDbSymbolTableRecord
100
AcDbTextStyleTableRecord
  2
LiberationMono-BoldItalic
 70
0
 40
0.0
 41
1.0
 50
0.0
 71
0
 42
2.5
  3
LiberationMono-BoldItalic.ttf
  4

  0
STYLE
  5
59
330
5
100
AcDbSymbolTableRecord
100
AcDbTextStyleTableRecord
  2
LiberationMono-Italic
 70
0
 40
0.0
 41
1.0
 50
0.0
 71
0
 42
2.5
  3
LiberationMono-Italic.ttf
  4

  0
ENDTAB
  0
TABLE
  2
VIEW
  5
7
330
0
100
AcDbSymbolTable
 70
0
  0
ENDTAB
  0
TABLE
  2
UCS
  5
6
330
0
100
AcDbSymbolTable
 70
0
  0
ENDTAB
  0
TABLE
  2
APPID
  5
3
330
0
100
AcDbSymbolTable
 70
3
  0
APPID
  5
2A
330
3
100
AcDbSymbolTableRecord
100
AcDbRegAppTableRecord
  2
ACAD
 70
0
  0
APPID
  5
265
330
3
100
AcDbSymbolTableRecord
100
AcDbRegAppTableRecord
  2
HATCHBACKGROUNDCOLOR
 70
0
  0
APPID
  5
266
330
3
100
AcDbSymbolTableRecord
100
AcDbRegAppTableRecord
  2
EZDXF
 70
0
  0
ENDTAB
  0
TABLE
  2
DIMSTYLE
  5
4
330
0
100
AcDbSymbolTable
 70
12
100
AcDbDimStyleTable
  0
DIMSTYLE
105
2B
330
4
100
AcDbSymbolTableRecord
100
AcDbDimStyleTableRecord
  2
Standard
 70
0
 40
1.0
 41
2.5
 42
0.625
 43
3.75
 44
1.25
 45
0.0
 46
0.0
 47
0.0
 48
0.0
 49
2.5
140
2.5
141
2.5
142
0.0
143
0.03937007874
144
1.0
145
0.0
146
1.0
147
0.625
148
0.0
 69
0
 70
0
 71
0
 72
0
 73
0
 74
0
 75
0
 76
0
 77
1
 78
8
 79
3
170
0
171
3
172
1
173
0
174
0
175
0
176
0
177
0
178
0
179
2
271
2
272
2
273
2
274
3
275
0
276
0
277
2
278
44
279
0
280
0
281
0
282
0
283
0
284
8
285
0
286
0
288
0
289
3
290
0
371
-2
372
-2
  0
DIMSTYLE
105
73
330
4
100
AcDbSymbolTableRecord
100
AcDbDimStyleTableRecord
  2
EZDXF
 70
0
 40
1.0
 41
0.175
 42
0.125
 43
3.75
 44
0.375
 45
0.0
 46
0.0
 47
0.0
 48
0.0
 49
2.5
140
0.25
141
2.5
142
0.0
143
0.03937007874
144
100.0
145
0.0
146
0.5
147
0.1
148
0.0
 69
0
 70
0
 71
0
 72
0
 73
0
 74
0
 75
0
 76
0
 77
1
 78
12
 79
3
170
0
171
3
172
1
173
0
174
0
175
0
176
0
177
0
178
0
179
2
271
2
272
2
273
2
274
3
275
0
276
0
277
2
278
46
279
2
280
0
281
0
282
0
283
0
284
8
285
0
286
0
288
1
289
3
290
0
340
4C
342
74
371
-2
372
-2
  0
DIMSTYLE
105
7C
330
4
100
AcDbSymbolTableRecord
100
AcDbDimStyleTableRecord
  2
EZ_M_100_H25_CM
 70
0
 40
1.0
 41
0.25
 42
0.125
 43
3.75
 44
0.375
 45
0.0
 46
0.0
 47
0.0
 48
0.0
 49
2.5
140
0.25
141
2.5
142
0.125
143
0.03937007874
144
100.0
145
0.0
146
0.5
147
0.1
148
0.0
 69
0
 70
0
 71
0
 72
0
 73
0
 74
0
 75
0
 76
0
 77
1
 78
12
 79
3
170
0
171
3
172
1
173
0
174
0
175
0
176
0
177
0
178
0
179
2
271
2
272
2
273
2
274
3
275
0
276
0
277
2
278
46
279
2
280
0
281
0
282
0
283
0
284
8
285
0
286
0
288
1
289
3
290
0
340
4C
371
-2
372
-2
  0
DIMSTYLE
105
7D
330
4
100
AcDbSymbolTableRecord
100
AcDbDimStyleTableRecord
  2
EZ_M_50_H25_CM
 70
0
 40
1.0
 41
0.125
 42
0.0625
 43
3.75
 44
0.1875
 45
0.0
 46
0.0
 47
0.0
 48
0.0
 49
2.5
140
0.125
141
2.5
142
0.0625
143
0.03937007874
144
100.0
145
0.0
146
0.5
147
0.05
148
0.0
 69
0
 70
0
 71
0
 72
0
 73
0
 74
0
 75
0
 76
0
 77
1
 78
12
 79
3
170
0
171
3
172
1
173
0
174
0
175
0
176
0
177
0
178
0
179
2
271
2
272
2
273
2
274
3
275
0
276
0
277
2
278
46
279
2
280
0
281
0
282
0
283
0
284
8
285
0
286
0
288
1
289
3
290
0
340
4C
371
-2
372
-2
  0
DIMSTYLE
105
7E
330
4
100
AcDbSymbolTableRecord
100
AcDbDimStyleTableRecord
  2
EZ_M_25_H25_CM
 70
0
 40
1.0
 41
0.0625
 42
0.03125
 43
3.75
 44
0.09375
 45
0.0
 46
0.0
 47
0.0
 48
0.0
 49
2.5
140
0.0625
141
2.5
142
0.03125
143
0.03937007874
144
100.0
145
0.0
146
0.5
147
0.025
148
0.0
 69
0
 70
0
 71
0
 72
0
 73
0
 74
0
 75
0
 76
0
 77
1
 78
12
 79
3
170
0
171
3
172
1
173
0
174
0
175
0
176
0
177
0
178
0
179
2
271
2
272
2
273
2
274
3
275
0
276
0
277
2
278
46
279
2
280
0
281
0
282
0
283
0
284
8
285
0
286
0
288
1
289
3
290
0
340
4C
371
-2
372
-2
  0
DIMSTYLE
105
7F
330
4
100
AcDbSymbolTableRecord
100
AcDbDimStyleTableRecord
  2
EZ_M_20_H25_CM
 70
0
 40
1.0
 41
0.05
 42
0.025
 43
3.75
 44
0.07500000000000001
 45
0.0
 46
0.0
 47
0.0
 48
0.0
 49
2.5
140
0.05
141
2.5
142
0.025
143
0.03937007874
144
100.0
145
0.0
146
0.5
147
0.020000000000000004
148
0.0
 69
0
 70
0
 71
0
 72
0
 73
0
 74
0
 75
0
 76
0
 77
1
 78
12
 79
3
170
0
171
3
172
1
173
0
174
0
175
0
176
0
177
0
178
0
179
2
271
2
272
2
273
2
274
3
275
0
276
0
277
2
278
46
279
2
280
0
281
0
282
0
283
0
284
8
285
0
286
0
288
1
289
3
290
0
340
4C
371
-2
372
-2
  0
DIMSTYLE
105
80
330
4
100
AcDbSymbolTableRecord
100
AcDbDimStyleTableRecord
  2
EZ_M_10_H25_CM
 70
0
 40
1.0
 41
0.025
 42
0.0125
 43
3.75
 44
0.037500000000000006
 45
0.0
 46
0.0
 47
0.0
 48
0.0
 49
2.5
140
0.025
141
2.5
142
0.0125
143
0.03937007874
144
100.0
145
0.0
146
0.5
147
0.010000000000000002
148
0.0
 69
0
 70
0
 71
0
 72
0
 73
0
 74
0
 75
0
 76
0
 77
1
 78
12
 79
3
170
0
171
3
172
1
173
0
174
0
175
0
176
0
177
0
178
0
179
2
271
2
272
2
273
2
274
3
275
0
276
0
277
2
278
46
279
2
280
0
281
0
282
0
283
0
284
8
285
0
286
0
288
1
289
3
290
0
340
4C
371
-2
372
-2
  0
DIMSTYLE
105
81
330
4
100
AcDbSymbolTableRecord
100
AcDbDimStyleTableRecord
  2
EZ_M_5_H25_CM
 70
0
 40
1.0
 41
0.0125
 42
0.00625
 43
3.75
 44
0.018750000000000003
 45
0.0
 46
0.0
 47
0.0
 48
0.0
 49
2.5
140
0.0125
141
2.5
142
0.00625
143
0.03937007874
144
100.0
145
0.0
146
0.5
147
0.005000000000000001
148
0.0
 69
0
 70
0
 71
0
 72
0
 73
0
 74
0
 75
0
 76
0
 77
1
 78
12
 79
3
170
0
171
3
172
1
173
0
174
0
175
0
176
0
177
0
178
0
179
2
271
2
272
2
273
2
274
3
275
0
276
0
277
2
278
46
279
2
280
0
281
0
282
0
283
0
284
8
285
0
286
0
288
1
289
3
290
0
340
4C
371
-2
372
-2
  0
DIMSTYLE
105
82
330
4
100
AcDbSymbolTableRecord
100
AcDbDimStyleTableRecord
  2
EZ_M_1_H25_CM
 70
0
 40
1.0
 41
0.0025
 42
0.00125
 43
3.75
 44
0.00375
 45
0.0
 46
0.0
 47
0.0
 48
0.0
 49
2.5
140
0.0025
141
2.5
142
0.00125
143
0.03937007874
144
100.0
145
0.0
146
0.5
147
0.001
148
0.0
 69
0
 70
0
 71
0
 72
0
 73
0
 74
0
 75
0
 76
0
 77
1
 78
12
 79
3
170
0
171
3
172
1
173
0
174
0
175
0
176
0
177
0
178
0
179
2
271
2
272
2
273
2
274
3
275
0
276
0
277
2
278
46
279
2
280
0
281
0
282
0
283
0
284
8
285
0
286
0
288
1
289
3
290
0
340
4C
371
-2
372
-2
  0
DIMSTYLE
105
83
330
4
100
AcDbSymbolTableRecord
100
AcDbDimStyleTableRecord
  2
EZ_RADIUS
 70
0
 40
1.0
 41
0.25
 42
0.125
 43
3.75
 44
0.375
 45
0.0
 46
0.0
 47
0.0
 48
0.0
 49
2.5
140
0.25
141
0.0
142
0.0
143
0.03937007874
144
100.0
145
0.0
146
0.5
147
0.1
148
0.0
 69
0
 70
0
 71
0
 72
0
 73
0
 74
0
 75
0
 76
0
 77
1
 78
12
 79
3
170
0
171
3
172
0
173
0
174
0
175
0
176
0
177
0
178
0
179
2
271
2
272
2
273
2
274
3
275
0
276
0
277
2
278
46
279
1
280
0
281
0
282
0
283
0
284
8
285
0
286
0
288
1
289
3
290
0
340
4C
342
84
371
-2
372
-2
  0
DIMSTYLE
105
88
330
4
100
AcDbSymbolTableRecord
100
AcDbDimStyleTableRecord
  2
EZ_RADIUS_INSIDE
 70
0
 40
1.0
 41
0.25
 42
0.125
 43
3.75
 44
0.375
 45
0.0
 46
0.0
 47
0.0
 48
0.0
 49
2.5
140
0.25
141
0.0
142
0.0
143
0.03937007874
144
100.0
145
0.0
146
0.5
147
0.1
148
0.0
 69
0
 70
0
 71
0
 72
0
 73
0
 74
0
 75
0
 76
0
 77
0
 78
12
 79
3
170
0
171
3
172
0
173
0
174
1
175
0
176
0
177
0
178
0
179
2
271
2
272
2
273
2
274
3
275
0
276
0
277
2
278
46
279
0
280
0
281
0
282
0
283
0
284
8
285
0
286
0
288
1
289
0
290
0
340
4C
342
84
371
-2
372
-2
  0
DIMSTYLE
105
89
330
4
100
AcDbSymbolTableRecord
100
AcDbDimStyleTableRecord
  2
EZ_CURVED
 70
0
 40
1.0
 41
0.25
 42
0.125
 43
3.75
 44
0.375
 45
0.0
 46
0.0
 47
0.0
 48
0.0
 49
2.5
140
0.25
141
2.5
142
0.0
143
0.03937007874
144
100.0
145
0.0
146
0.5
147
0.1
148
0.0
 69
0
 70
0
 71
0
 72
0
 73
0
 74
0
 75
0
 76
0
 77
1
 78
12
 79
2
 90
2
170
0
171
3
172
1
173
0
174
0
175
0
176
0
177
0
178
0
179
2
271
2
272
2
273
2
274
3
275
0
276
0
277
2
278
46
279
2
280
0
281
0
282
0
283
0
284
8
285
0
286
0
288
1
289
3
290
0
340
4C
371
-2
372
-2
  0
ENDTAB
  0
TABLE
  2
BLOCK_RECORD
  5
9
330
0
100
AcDbSymbolTable
 70
5
  0
BLOCK_RECORD
  5
17
330
9
100
AcDbSymbolTableRecord
100
AcDbBlockTableRecord
  2
*Model_Space
340
1A
 70
0
280
1
281
0
  0
BLOCK_RECORD
  5
1B
330
9
100
AcDbSymbolTableRecord
100
AcDbBlockTableRecord
  2
*Paper_Space
340
1E
 70
0
280
1
281
0
  0
BLOCK_RECORD
  5
74
330
9
100
AcDbSymbolTableRecord
100
AcDbBlockTableRecord
  2
_ARCHTICK
340
0
 70
0
280
1
281
0
  0
BLOCK_RECORD
  5
78
330
9
100
AcDbSymbolTableRecord
100
AcDbBlockTableRecord
  2
_CLOSEDFILLED
340
0
 70
0
280
1
281
0
  0
BLOCK_RECORD
  5
84
330
9
100
AcDbSymbolTableRecord
100
AcDbBlockTableRecord
  2
_CLOSEDBLANK
340
0
 70
0
280
1
281
0
  0
ENDTAB
  0
ENDSEC
  0
SECTION
  2
BLOCKS
  0
BLOCK
  5
18
330
17
100
AcDbEntity
  8
0
100
AcDbBlockBegin
  2
*Model_Space
 70
0
 10
0.0
 20
0.0
 30
0.0
  3
*Model_Space
  1

  0
ENDBLK
  5
19
330
17
100
AcDbEntity
  8
0
100
AcDbBlockEnd
  0
BLOCK
  5
1C
330
1B
100
AcDbEntity
  8
0
100
AcDbBlockBegin
  2
*Paper_Space
 70
0
 10
0.0
 20
0.0
 30
0.0
  3
*Paper_Space
  1

  0
ENDBLK
  5
1D
330
1B
100
AcDbEntity
  8
0
100
AcDbBlockEnd
  0
BLOCK
  5
75
330
74
100
AcDbEntity
  8
0
100
AcDbBlockBegin
  2
_ARCHTICK
 70
0
 10
0.0
 20
0.0
 30
0.0
  3
_ARCHTICK
  1

  0
LWPOLYLINE
  5
77
330
74
100
AcDbEntity
  8
0
  6
BYBLOCK
 62
0
100
AcDbPolyline
 90
2
 70
0
 43
0.15
 10
-0.5
 20
-0.5
 10
0.5
 20
0.5
  0
ENDBLK
  5
76
330
74
100
AcDbEntity
  8
0
100
AcDbBlockEnd
  0
BLOCK
  5
79
330
78
100
AcDbEntity
  8
0
100
AcDbBlockBegin
  2
_CLOSEDFILLED
 70
0
 10
0.0
 20
0.0
 30
0.0
  3
_CLOSEDFILLED
  1

  0
SOLID
  5
7B
330
78
100
AcDbEntity
  8
0
  6
BYBLOCK
 62
0
100
AcDbTrace
 10
-1.0
 20
0.16439898372402537
 30
0.0
 11
0.0
 21
0.0
 31
0.0
 12
-1.0
 22
-0.16439898372402537
 32
0.0
 13
-1.0
 23
-0.16439898372402537
 33
0.0
  0
ENDBLK
  5
7A
330
78
100
AcDbEntity
  8
0
100
AcDbBlockEnd
  0
BLOCK
  5
85
330
84
100
AcDbEntity
  8
0
100
AcDbBlockBegin
  2
_CLOSEDBLANK
 70
0
 10
0.0
 20
0.0
 30
0.0
  3
_CLOSEDBLANK
  1

  0
LWPOLYLINE
  5
87
330
84
100
AcDbEntity
  8
0
  6
BYBLOCK
 62
0
100
AcDbPolyline
 90
3
 70
1
 10
-1.0
 20
0.16439898372402537
 10
0.0
 20
0.0
 10
-1.0
 20
-0.16439898372402537
  0
ENDBLK
  5
86
330
84
100
AcDbEntity
  8
0
100
AcDbBlockEnd
  0
ENDSEC
  0
SECTION
  2
ENTITIES
  0
LWPOLYLINE
  5
8C
330
17
100
AcDbEntity
  8
Bed wall elevation
100
AcDbPolyline
 90
5
 70
0
 10
5.905511811023622
 20
109.01574803149606
 10
191.88976377952756
 20
109.01574803149606
 10
191.88976377952756
 20
0.0
 10
5.905511811023622
 20
0.0
 10
5.905511811023622
 20
109.01574803149606
  0
LINE
  5
8D
330
17
100
AcDbEntity
  8
Bed wall elevation
100
AcDbLine
 10
6.299212598425196
 20
109.01574803149606
 30
0.0
 11
6.299212598425196
 21
4.015748031496063
 31
0.0
  0
LINE
  5
8E
330
17
100
AcDbEntity
  8
Bed wall elevation
100
AcDbLine
 10
179.48818897637796
 20
109.01574803149606
 30
0.0
 11
179.48818897637796
 21
4.015748031496063
 31
0.0
  0
LINE
  5
8F
330
17
100
AcDbEntity
  8
Bed wall elevation
100
AcDbLine
 10
57.460629921259844
 20
109.01574803149606
 30
0.0
 11
57.460629921259844
 21
84.96062992125984
 31
0.0
  0
LINE
  5
90
330
17
100
AcDbEntity
  8
Bed wall elevation
100
AcDbLine
 10
128.32677165354332
 20
109.01574803149606
 30
0.0
 11
128.32677165354332
 21
84.96062992125984
 31
0.0
  0
LWPOLYLINE
  5
91
330
17
100
AcDbEntity
  8
Bed wall elevation
100
AcDbPolyline
 90
4
 70
0
 10
35.755511811023624
 20
4.015748031496059
 10
35.755511811023624
 20
79.1263779527559
 10
150.0318897637795
 20
79.1263779527559
 10
150.0318897637795
 20
4.015748031496059
  0
LWPOLYLINE
  5
92
330
17
100
AcDbEntity
  8
Bed wall elevation
100
AcDbPolyline
 90
4
 70
0
 10
35.31299212598425
 20
4.015748031496059
 10
35.31299212598425
 20
79.56889763779527
 10
150.4744094488189
 20
79.56889763779527
 10
150.4744094488189
 20
4.015748031496059
  0
LWPOLYLINE
  5
93
330
17
100
AcDbEntity
  8
Bed wall elevation
100
AcDbPolyline
 90
4
 70
0
 10
34.6
 20
4.015748031496059
 10
34.6
 20
80.28188976377953
 10
151.18740157480315
 20
80.28188976377953
 10
151.18740157480315
 20
4.015748031496059
  0
LWPOLYLINE
  5
94
330
17
100
AcDbEntity
  8
Bed wall elevation
100
AcDbPolyline
 90
4
 70
0
 10
33.65236220472441
 20
4.015748031496059
 10
33.65236220472441
 20
81.22952755905511
 10
152.13503937007874
 20
81.22952755905511
 10
152.13503937007874
 20
4.015748031496059
  0
LWPOLYLINE
  5
95
330
17
100
AcDbEntity
  8
Bed wall elevation
100
AcDbPolyline
 90
4
 70
0
 10
32.517716535433074
 20
4.015748031496059
 10
32.517716535433074
 20
82.36417322834646
 10
153.26968503937007
 20
82.36417322834646
 10
153.26968503937007
 20
4.015748031496059
  0
LWPOLYLINE
  5
96
330
17
100
AcDbEntity
  8
Bed wall elevation
100
AcDbPolyline
 90
4
 70
0
 10
31.252755905511812
 20
4.015748031496059
 10
31.252755905511812
 20
83.6291338582677
 10
154.53464566929134
 20
83.6291338582677
 10
154.53464566929134
 20
4.015748031496059
  0
LWPOLYLINE
  5
97
330
17
100
AcDbEntity
  8
Bed wall elevation
100
AcDbPolyline
 90
4
 70
0
 10
35.90551181102362
 20
4.015748031496059
 10
35.90551181102362
 20
78.97637795275591
 10
149.88188976377953
 20
78.97637795275591
 10
149.88188976377953
 20
4.015748031496059
  0
LWPOLYLINE
  5
98
330
17
100
AcDbEntity
  8
Bed wall elevation
  6
DASHED
100
AcDbPolyline
 90
4
 70
0
 10
29.921259842519685
 20
4.015748031496059
 10
29.921259842519685
 20
84.96062992125984
 10
155.86614173228347
 20
84.96062992125984
 10
155.86614173228347
 20
4.015748031496059
  0
LINE
  5
99
330
17
100
AcDbEntity
  8
Bed wall elevation
100
AcDbLine
 10
36.889763779527556
 20
77.99212598425197
 30
0.0
 11
29.921259842519685
 21
84.96062992125984
 31
0.0
  0
LINE
  5
9A
330
17
100
AcDbEntity
  8
Bed wall elevation
100
AcDbLine
 10
148.89763779527559
 20
77.99212598425197
 30
0.0
 11
155.86614173228347
 21
84.96062992125984
 31
0.0
  0
LWPOLYLINE
  5
9B
330
17
100
AcDbEntity
  8
Bed wall elevation
100
AcDbPolyline
 90
5
 70
0
 10
36.889763779527556
 20
77.99212598425197
 10
148.89763779527559
 20
77.99212598425197
 10
148.89763779527559
 20
0.0
 10
36.889763779527556
 20
0.0
 10
36.889763779527556
 20
77.99212598425197
  0
LINE
  5
9C
330
17
100
AcDbEntity
  8
Bed wall elevation
100
AcDbLine
 10
59.29133858267716
 20
77.99212598425197
 30
0.0
 11
59.29133858267716
 21
4.015748031496063
 31
0.0
  0
LINE
  5
9D
330
17
100
AcDbEntity
  8
Bed wall elevation
100
AcDbLine
 10
81.69291338582677
 20
77.99212598425197
 30
0.0
 11
81.69291338582677
 21
4.015748031496063
 31
0.0
  0
LINE
  5
9E
330
17
100
AcDbEntity
  8
Bed wall elevation
100
AcDbLine
 10
104.09448818897637
 20
77.99212598425197
 30
0.0
 11
104.09448818897637
 21
4.015748031496063
 31
0.0
  0
LINE
  5
9F
330
17
100
AcDbEntity
  8
Bed wall elevation
100
AcDbLine
 10
126.49606299212599
 20
77.99212598425197
 30
0.0
 11
126.49606299212599
 21
4.015748031496063
 31
0.0
  0
LINE
  5
A0
330
17
100
AcDbEntity
  8
Bed wall elevation
100
AcDbLine
 10
36.889763779527556
 20
28.674409448818896
 30
0.0
 11
148.89763779527559
 21
28.674409448818896
 31
0.0
  0
LINE
  5
A1
330
17
100
AcDbEntity
  8
Bed wall elevation
100
AcDbLine
 10
36.889763779527556
 20
53.33346456692914
 30
0.0
 11
148.89763779527559
 21
53.33346456692914
 31
0.0
  0
LWPOLYLINE
  5
A2
330
17
100
AcDbEntity
  8
Bed wall elevation
100
AcDbPolyline
 90
5
 70
0
 10
5.905511811023622
 20
4.015748031496059
 10
191.88976377952756
 20
4.015748031496059
 10
191.88976377952756
 20
0.0
 10
5.905511811023622
 20
0.0
 10
5.905511811023622
 20
4.015748031496059
  0
LWPOLYLINE
  5
A3
330
17
100
AcDbEntity
  8
Bed wall elevation
100
AcDbPolyline
 90
5
 70
0
 10
37.89370078740157
 20
24.01574803149606
 10
53.87795275590551
 20
24.01574803149606
 10
53.87795275590551
 20
22.755905511811022
 10
37.89370078740157
 20
22.755905511811022
 10
37.89370078740157
 20
24.01574803149606
  0
LWPOLYLINE
  5
A4
330
17
100
AcDbEntity
  8
Bed wall elevation
100
AcDbPolyline
 90
5
 70
0
 10
38.28740157480315
 20
22.755905511811022
 10
53.48425196850393
 20
22.755905511811022
 10
53.48425196850393
 20
18.110236220472444
 10
38.28740157480315
 20
18.110236220472444
 10
38.28740157480315
 20
22.755905511811022
  0
LWPOLYLINE
  5
A5
330
17
100
AcDbEntity
  8
Bed wall elevation
100
AcDbPolyline
 90
5
 70
0
 10
38.996062992125985
 20
22.36220472440945
 10
52.775590551181104
 20
22.36220472440945
 10
52.775590551181104
 20
18.503937007874015
 10
38.996062992125985
 20
18.503937007874015
 10
38.996062992125985
 20
22.36220472440945
  0
CIRCLE
  5
A6
330
17
100
AcDbEntity
  8
Bed wall elevation
100
AcDbCircle
 10
45.88582677165354
 20
20.433070866141733
 30
0.0
 40
0.3543307086614173
  0
LWPOLYLINE
  5
A7
330
17
100
AcDbEntity
  8
Bed wall elevation
100
AcDbPolyline
 90
4
 70
0
 10
38.44488188976378
 20
18.110236220472444
 10
37.57874015748031
 20
0.0
 10
38.523622047244096
 20
0.0
 10
39.547244094488185
 20
18.110236220472444
  0
LWPOLYLINE
  5
A8
330
17
100
AcDbEntity
  8
Bed wall elevation
100
AcDbPolyline
 90
4
 70
0
 10
53.326771653543304
 20
18.110236220472444
 10
54.19291338582677
 20
0.0
 10
53.24803149606299
 20
0.0
 10
52.224409448818896
 20
18.110236220472444
  0
LWPOLYLINE
  5
A9
330
17
100
AcDbEntity
  8
Bed wall elevation
100
AcDbPolyline
 90
5
 70
0
 10
131.90944881889763
 20
24.01574803149606
 10
147.89370078740157
 20
24.01574803149606
 10
147.89370078740157
 20
22.755905511811022
 10
131.90944881889763
 20
22.755905511811022
 10
131.90944881889763
 20
24.01574803149606
  0
LWPOLYLINE
  5
AA
330
17
100
AcDbEntity
  8
Bed wall elevation
100
AcDbPolyline
 90
5
 70
0
 10
132.3031496062992
 20
22.755905511811022
 10
147.5
 20
22.755905511811022
 10
147.5
 20
18.110236220472444
 10
132.3031496062992
 20
18.110236220472444
 10
132.3031496062992
 20
22.755905511811022
  0
LWPOLYLINE
  5
AB
330
17
100
AcDbEntity
  8
Bed wall elevation
100
AcDbPolyline
 90
5
 70
0
 10
133.01181102362204
 20
22.36220472440945
 10
146.79133858267716
 20
22.36220472440945
 10
146.79133858267716
 20
18.503937007874015
 10
133.01181102362204
 20
18.503937007874015
 10
133.01181102362204
 20
22.36220472440945
  0
CIRCLE
  5
AC
330
17
100
AcDbEntity
  8
Bed wall elevation
100
AcDbCircle
 10
139.9015748031496
 20
20.433070866141733
 30
0.0
 40
0.3543307086614173
  0
LWPOLYLINE
  5
AD
330
17
100
AcDbEntity
  8
Bed wall elevation
100
AcDbPolyline
 90
4
 70
0
 10
132.46062992125985
 20
18.110236220472444
 10
131.59448818897638
 20
0.0
 10
132.53937007874015
 20
0.0
 10
133.56299212598424
 20
18.110236220472444
  0
LWPOLYLINE
  5
AE
330
17
100
AcDbEntity
  8
Bed wall elevation
100
AcDbPolyline
 90
4
 70
0
 10
147.34251968503935
 20
18.110236220472444
 10
148.20866141732282
 20
0.0
 10
147.26377952755905
 20
0.0
 10
146.24015748031496
 20
18.110236220472444
  0
POLYLINE
  5
AF
330
17
100
AcDbEntity
  8
Bed wall elevation
100
AcDb2dPolyline
 66
1
 10
0.0
 20
0.0
 30
0.0
 70
0
  0
VERTEX
  5
B0
330
AF
100
AcDbEntity
  8
Bed wall elevation
100
AcDbVertex
100
AcDb2dVertex
 10
16.22047244094488
 20
101.49606299212599
 30
0.0
 70
0
  0
VERTEX
  5
B1
330
AF
100
AcDbEntity
  8
Bed wall elevation
100
AcDbVertex
100
AcDb2dVertex
 10
19.606299212598426
 20
101.49606299212599
 30
0.0
 70
0
  0
SEQEND
  5
B2
330
AF
100
AcDbEntity
  8
Bed wall elevation
  0
SPLINE
  5
B3
330
17
100
AcDbEntity
  8
Bed wall elevation
100
AcDbSpline
 70
0
 71
3
 72
14
 73
10
 74
0
 40
0.0
 40
0.0
 40
0.0
 40
0.0
 40
1.0
 40
1.0
 40
1.0
 40
2.0
 40
2.0
 40
2.0
 40
3.0
 40
3.0
 40
3.0
 40
3.0
 10
19.606299212598426
 20
101.49606299212599
 30
0.0
 10
19.67540299020081
 20
101.49606299212599
 30
0.0
 10
19.74330397939808
 20
101.4778689769053
 30
0.0
 10
19.803149606299215
 20
101.44331708810411
 30
0.0
 10
19.862995233200344
 20
101.40876519930292
 30
0.0
 10
19.912702207176935
 20
101.35905822532632
 30
0.0
 10
19.947254095978124
 20
101.2992125984252
 30
0.0
 10
19.981805984779314
 20
101.23936697152406
 30
0.0
 10
20.0
 20
101.1714659823268
 30
0.0
 10
20.0
 20
101.1023622047244
 30
0.0
  0
POLYLINE
  5
B4
330
17
100
AcDbEntity
  8
Bed wall elevation
100
AcDb2dPolyline
 66
1
 10
0.0
 20
0.0
 30
0.0
 70
0
  0
VERTEX
  5
B5
330
B4
100
AcDbEntity
  8
Bed wall elevation
100
AcDbVertex
100
AcDb2dVertex
 10
20.0
 20
101.1023622047244
 30
0.0
 70
0
  0
VERTEX
  5
B6
330
B4
100
AcDbEntity
  8
Bed wall elevation
100
AcDbVertex
100
AcDb2dVertex
 10
20.0
 20
93.38582677165354
 30
0.0
 70
0
  0
SEQEND
  5
B7
330
B4
100
AcDbEntity
  8
Bed wall elevation
  0
SPLINE
  5
B8
330
17
100
AcDbEntity
  8
Bed wall elevation
100
AcDbSpline
 70
0
 71
3
 72
14
 73
10
 74
0
 40
0.0
 40
0.0
 40
0.0
 40
0.0
 40
1.0
 40
1.0
 40
1.0
 40
2.0
 40
2.0
 40
2.0
 40
3.0
 40
3.0
 40
3.0
 40
3.0
 10
20.0
 20
93.38582677165354
 30
0.0
 10
20.0
 20
93.31672299405116
 30
0.0
 10
19.981805984779314
 20
93.24882200485389
 30
0.0
 10
19.947254095978124
 20
93.18897637795276
 30
0.0
 10
19.912702207176935
 20
93.12913075105162
 30
0.0
 10
19.862995233200344
 20
93.07942377707504
 30
0.0
 10
19.803149606299215
 20
93.04487188827385
 30
0.0
 10
19.74330397939808
 20
93.01031999947264
 30
0.0
 10
19.67540299020081
 20
92.99212598425197
 30
0.0
 10
19.606299212598426
 20
92.99212598425197
 30
0.0
  0
POLYLINE
  5
B9
330
17
100
AcDbEntity
  8
Bed wall elevation
100
AcDb2dPolyline
 66
1
 10
0.0
 20
0.0
 30
0.0
 70
0
  0
VERTEX
  5
BA
330
B9
100
AcDbEntity
  8
Bed wall elevation
100
AcDbVertex
100
AcDb2dVertex
 10
19.606299212598426
 20
92.99212598425197
 30
0.0
 70
0
  0
VERTEX
  5
BB
330
B9
100
AcDbEntity
  8
Bed wall elevation
100
AcDbVertex
100
AcDb2dVertex
 10
16.22047244094488
 20
92.99212598425197
 30
0.0
 70
0
  0
SEQEND
  5
BC
330
B9
100
AcDbEntity
  8
Bed wall elevation
  0
SPLINE
  5
BD
330
17
100
AcDbEntity
  8
Bed wall elevation
100
AcDbSpline
 70
0
 71
3
 72
14
 73
10
 74
0
 40
0.0
 40
0.0
 40
0.0
 40
0.0
 40
1.0
 40
1.0
 40
1.0
 40
2.0
 40
2.0
 40
2.0
 40
3.0
 40
3.0
 40
3.0
 40
3.0
 10
16.22047244094488
 20
92.99212598425197
 30
0.0
 10
16.1513686633425
 20
92.99212598425197
 30
0.0
 10
16.083467674145226
 20
93.01031999947264
 30
0.0
 10
16.023622047244096
 20
93.04487188827385
 30
0.0
 10
15.963776420342962
 20
93.07942377707504
 30
0.0
 10
15.914069446366373
 20
93.12913075105162
 30
0.0
 10
15.879517557565181
 20
93.18897637795276
 30
0.0
 10
15.84496566876399
 20
93.24882200485389
 30
0.0
 10
15.826771653543307
 20
93.31672299405116
 30
0.0
 10
15.826771653543307
 20
93.38582677165354
 30
0.0
  0
POLYLINE
  5
BE
330
17
100
AcDbEntity
  8
Bed wall elevation
100
AcDb2dPolyline
 66
1
 10
0.0
 20
0.0
 30
0.0
 70
0
  0
VERTEX
  5
BF
330
BE
100
AcDbEntity
  8
Bed wall elevation
100
AcDbVertex
100
AcDb2dVertex
 10
15.826771653543307
 20
93.38582677165354
 30
0.0
 70
0
  0
VERTEX
  5
C0
330
BE
100
AcDbEntity
  8
Bed wall elevation
100
AcDbVertex
100
AcDb2dVertex
 10
15.826771653543307
 20
101.1023622047244
 30
0.0
 70
0
  0
SEQEND
  5
C1
330
BE
100
AcDbEntity
  8
Bed wall elevation
  0
SPLINE
  5
C2
330
17
100
AcDbEntity
  8
Bed wall elevation
100
AcDbSpline
 70
0
 71
3
 72
14
 73
10
 74
0
 40
0.0
 40
0.0
 40
0.0
 40
0.0
 40
1.0
 40
1.0
 40
1.0
 40
2.0
 40
2.0
 40
2.0
 40
3.0
 40
3.0
 40
3.0
 40
3.0
 10
15.826771653543307
 20
101.1023622047244
 30
0.0
 10
15.826771653543307
 20
101.1714659823268
 30
0.0
 10
15.84496566876399
 20
101.23936697152406
 30
0.0
 10
15.879517557565181
 20
101.2992125984252
 30
0.0
 10
15.914069446366373
 20
101.35905822532632
 30
0.0
 10
15.963776420342962
 20
101.40876519930292
 30
0.0
 10
16.023622047244096
 20
101.44331708810411
 30
0.0
 10
16.083467674145226
 20
101.4778689769053
 30
0.0
 10
16.1513686633425
 20
101.49606299212599
 30
0.0
 10
16.22047244094488
 20
101.49606299212599
 30
0.0
  0
POLYLINE
  5
C3
330
17
100
AcDbEntity
  8
Bed wall elevation
100
AcDb2dPolyline
 66
1
 10
0.0
 20
0.0
 30
0.0
 70
0
  0
VERTEX
  5
C4
330
C3
100
AcDbEntity
  8
Bed wall elevation
100
AcDbVertex
100
AcDb2dVertex
 10
16.37795275590551
 20
101.18110236220473
 30
0.0
 70
0
  0
VERTEX
  5
C5
330
C3
100
AcDbEntity
  8
Bed wall elevation
100
AcDbVertex
100
AcDb2dVertex
 10
19.448818897637793
 20
101.18110236220473
 30
0.0
 70
0
  0
SEQEND
  5
C6
330
C3
100
AcDbEntity
  8
Bed wall elevation
  0
SPLINE
  5
C7
330
17
100
AcDbEntity
  8
Bed wall elevation
100
AcDbSpline
 70
0
 71
3
 72
14
 73
10
 74
0
 40
0.0
 40
0.0
 40
0.0
 40
0.0
 40
1.0
 40
1.0
 40
1.0
 40
2.0
 40
2.0
 40
2.0
 40
3.0
 40
3.0
 40
3.0
 40
3.0
 10
19.448818897637793
 20
101.18110236220473
 30
0.0
 10
19.490281164199224
 20
101.18110236220473
 30
0.0
 10
19.53102175771759
 20
101.1701859530723
 30
0.0
 10
19.566929133858267
 20
101.1494548197916
 30
0.0
 10
19.602836509998948
 20
101.12872368651088
 30
0.0
 10
19.632660694384903
 20
101.09889950212492
 30
0.0
 10
19.653391827665615
 20
101.06299212598425
 30
0.0
 10
19.674122960946328
 20
101.02708474984357
 30
0.0
 10
19.68503937007874
 20
100.9863441563252
 30
0.0
 10
19.68503937007874
 20
100.94488188976378
 30
0.0
  0
POLYLINE
  5
C8
330
17
100
AcDbEntity
  8
Bed wall elevation
100
AcDb2dPolyline
 66
1
 10
0.0
 20
0.0
 30
0.0
 70
0
  0
VERTEX
  5
C9
330
C8
100
AcDbEntity
  8
Bed wall elevation
100
AcDbVertex
100
AcDb2dVertex
 10
19.68503937007874
 20
100.94488188976378
 30
0.0
 70
0
  0
VERTEX
  5
CA
330
C8
100
AcDbEntity
  8
Bed wall elevation
100
AcDbVertex
100
AcDb2dVertex
 10
19.68503937007874
 20
94.09448818897637
 30
0.0
 70
0
  0
SEQEND
  5
CB
330
C8
100
AcDbEntity
  8
Bed wall elevation
  0
SPLINE
  5
CC
330
17
100
AcDbEntity
  8
Bed wall elevation
100
AcDbSpline
 70
0
 71
3
 72
14
 73
10
 74
0
 40
0.0
 40
0.0
 40
0.0
 40
0.0
 40
1.0
 40
1.0
 40
1.0
 40
2.0
 40
2.0
 40
2.0
 40
3.0
 40
3.0
 40
3.0
 40
3.0
 10
19.68503937007874
 20
94.09448818897637
 30
0.0
 10
19.68503937007874
 20
94.05302592241495
 30
0.0
 10
19.674122960946328
 20
94.01228532889658
 30
0.0
 10
19.653391827665615
 20
93.9763779527559
 30
0.0
 10
19.632660694384903
 20
93.94047057661523
 30
0.0
 10
19.602836509998948
 20
93.91064639222927
 30
0.0
 10
19.566929133858267
 20
93.88991525894855
 30
0.0
 10
19.53102175771759
 20
93.86918412566784
 30
0.0
 10
19.490281164199224
 20
93.85826771653544
 30
0.0
 10
19.448818897637793
 20
93.85826771653544
 30
0.0
  0
POLYLINE
  5
CD
330
17
100
AcDbEntity
  8
Bed wall elevation
100
AcDb2dPolyline
 66
1
 10
0.0
 20
0.0
 30
0.0
 70
0
  0
VERTEX
  5
CE
330
CD
100
AcDbEntity
  8
Bed wall elevation
100
AcDbVertex
100
AcDb2dVertex
 10
19.448818897637793
 20
93.85826771653544
 30
0.0
 70
0
  0
VERTEX
  5
CF
330
CD
100
AcDbEntity
  8
Bed wall elevation
100
AcDbVertex
100
AcDb2dVertex
 10
16.37795275590551
 20
93.85826771653544
 30
0.0
 70
0
  0
SEQEND
  5
D0
330
CD
100
AcDbEntity
  8
Bed wall elevation
  0
SPLINE
  5
D1
330
17
100
AcDbEntity
  8
Bed wall elevation
100
AcDbSpline
 70
0
 71
3
 72
14
 73
10
 74
0
 40
0.0
 40
0.0
 40
0.0
 40
0.0
 40
1.0
 40
1.0
 40
1.0
 40
2.0
 40
2.0
 40
2.0
 40
3.0
 40
3.0
 40
3.0
 40
3.0
 10
16.37795275590551
 20
93.85826771653544
 30
0.0
 10
16.33649048934408
 20
93.85826771653544
 30
0.0
 10
16.29574989582572
 20
93.86918412566784
 30
0.0
 10
16.259842519685037
 20
93.88991525894855
 30
0.0
 10
16.22393514354436
 20
93.91064639222927
 30
0.0
 10
16.194110959158408
 20
93.94047057661523
 30
0.0
 10
16.173379825877692
 20
93.9763779527559
 30
0.0
 10
16.152648692596976
 20
94.01228532889658
 30
0.0
 10
16.141732283464567
 20
94.05302592241495
 30
0.0
 10
16.141732283464567
 20
94.09448818897637
 30
0.0
  0
POLYLINE
  5
D2
330
17
100
AcDbEntity
  8
Bed wall elevation
100
AcDb2dPolyline
 66
1
 10
0.0
 20
0.0
 30
0.0
 70
0
  0
VERTEX
  5
D3
330
D2
100
AcDbEntity
  8
Bed wall elevation
100
AcDbVertex
100
AcDb2dVertex
 10
16.141732283464567
 20
94.09448818897637
 30
0.0
 70
0
  0
VERTEX
  5
D4
330
D2
100
AcDbEntity
  8
Bed wall elevation
100
AcDbVertex
100
AcDb2dVertex
 10
16.141732283464567
 20
100.94488188976378
 30
0.0
 70
0
  0
SEQEND
  5
D5
330
D2
100
AcDbEntity
  8
Bed wall elevation
  0
SPLINE
  5
D6
330
17
100
AcDbEntity
  8
Bed wall elevation
100
AcDbSpline
 70
0
 71
3
 72
14
 73
10
 74
0
 40
0.0
 40
0.0
 40
0.0
 40
0.0
 40
1.0
 40
1.0
 40
1.0
 40
2.0
 40
2.0
 40
2.0
 40
3.0
 40
3.0
 40
3.0
 40
3.0
 10
16.141732283464567
 20
100.94488188976378
 30
0.0
 10
16.141732283464567
 20
100.9863441563252
 30
0.0
 10
16.152648692596976
 20
101.02708474984357
 30
0.0
 10
16.173379825877692
 20
101.06299212598425
 30
0.0
 10
16.194110959158408
 20
101.09889950212492
 30
0.0
 10
16.22393514354436
 20
101.12872368651088
 30
0.0
 10
16.259842519685037
 20
101.1494548197916
 30
0.0
 10
16.29574989582572
 20
101.1701859530723
 30
0.0
 10
16.33649048934408
 20
101.18110236220473
 30
0.0
 10
16.37795275590551
 20
101.18110236220473
 30
0.0
  0
LINE
  5
D7
330
17
100
AcDbEntity
  8
Bed wall elevation
100
AcDbLine
 10
17.440944881889763
 20
93.4251968503937
 30
0.0
 11
18.385826771653544
 21
93.4251968503937
 31
0.0
  0
POLYLINE
  5
D8
330
17
100
AcDbEntity
  8
Bed wall elevation
100
AcDb2dPolyline
 66
1
 10
0.0
 20
0.0
 30
0.0
 70
0
  0
VERTEX
  5
D9
330
D8
100
AcDbEntity
  8
Bed wall elevation
100
AcDbVertex
100
AcDb2dVertex
 10
166.1811023622047
 20
101.49606299212599
 30
0.0
 70
0
  0
VERTEX
  5
DA
330
D8
100
AcDbEntity
  8
Bed wall elevation
100
AcDbVertex
100
AcDb2dVertex
 10
169.56692913385825
 20
101.49606299212599
 30
0.0
 70
0
  0
SEQEND
  5
DB
330
D8
100
AcDbEntity
  8
Bed wall elevation
  0
SPLINE
  5
DC
330
17
100
AcDbEntity
  8
Bed wall elevation
100
AcDbSpline
 70
0
 71
3
 72
14
 73
10
 74
0
 40
0.0
 40
0.0
 40
0.0
 40
0.0
 40
1.0
 40
1.0
 40
1.0
 40
2.0
 40
2.0
 40
2.0
 40
3.0
 40
3.0
 40
3.0
 40
3.0
 10
169.56692913385825
 20
101.49606299212599
 30
0.0
 10
169.63603291146063
 20
101.49606299212599
 30
0.0
 10
169.70393390065792
 20
101.4778689769053
 30
0.0
 10
169.76377952755905
 20
101.44331708810411
 30
0.0
 10
169.82362515446016
 20
101.40876519930292
 30
0.0
 10
169.87333212843677
 20
101.35905822532632
 30
0.0
 10
169.90788401723796
 20
101.2992125984252
 30
0.0
 10
169.94243590603915
 20
101.23936697152406
 30
0.0
 10
169.96062992125982
 20
101.1714659823268
 30
0.0
 10
169.96062992125982
 20
101.1023622047244
 30
0.0
  0
POLYLINE
  5
DD
330
17
100
AcDbEntity
  8
Bed wall elevation
100
AcDb2dPolyline
 66
1
 10
0.0
 20
0.0
 30
0.0
 70
0
  0
VERTEX
  5
DE
330
DD
100
AcDbEntity
  8
Bed wall elevation
100
AcDbVertex
100
AcDb2dVertex
 10
169.96062992125982
 20
101.1023622047244
 30
0.0
 70
0
  0
VERTEX
  5
DF
330
DD
100
AcDbEntity
  8
Bed wall elevation
100
AcDbVertex
100
AcDb2dVertex
 10
169.96062992125982
 20
93.38582677165354
 30
0.0
 70
0
  0
SEQEND
  5
E0
330
DD
100
AcDbEntity
  8
Bed wall elevation
  0
SPLINE
  5
E1
330
17
100
AcDbEntity
  8
Bed wall elevation
100
AcDbSpline
 70
0
 71
3
 72
14
 73
10
 74
0
 40
0.0
 40
0.0
 40
0.0
 40
0.0
 40
1.0
 40
1.0
 40
1.0
 40
2.0
 40
2.0
 40
2.0
 40
3.0
 40
3.0
 40
3.0
 40
3.0
 10
169.96062992125982
 20
93.38582677165354
 30
0.0
 10
169.96062992125982
 20
93.31672299405116
 30
0.0
 10
169.94243590603915
 20
93.24882200485389
 30
0.0
 10
169.90788401723796
 20
93.18897637795276
 30
0.0
 10
169.87333212843677
 20
93.12913075105162
 30
0.0
 10
169.82362515446016
 20
93.07942377707504
 30
0.0
 10
169.76377952755905
 20
93.04487188827385
 30
0.0
 10
169.70393390065792
 20
93.01031999947264
 30
0.0
 10
169.63603291146063
 20
92.99212598425197
 30
0.0
 10
169.56692913385825
 20
92.99212598425197
 30
0.0
  0
POLYLINE
  5
E2
330
17
100
AcDbEntity
  8
Bed wall elevation
100
AcDb2dPolyline
 66
1
 10
0.0
 20
0.0
 30
0.0
 70
0
  0
VERTEX
  5
E3
330
E2
100
AcDbEntity
  8
Bed wall elevation
100
AcDbVertex
100
AcDb2dVertex
 10
169.56692913385825
 20
92.99212598425197
 30
0.0
 70
0
  0
VERTEX
  5
E4
330
E2
100
AcDbEntity
  8
Bed wall elevation
100
AcDbVertex
100
AcDb2dVertex
 10
166.1811023622047
 20
92.99212598425197
 30
0.0
 70
0
  0
SEQEND
  5
E5
330
E2
100
AcDbEntity
  8
Bed wall elevation
  0
SPLINE
  5
E6
330
17
100
AcDbEntity
  8
Bed wall elevation
100
AcDbSpline
 70
0
 71
3
 72
14
 73
10
 74
0
 40
0.0
 40
0.0
 40
0.0
 40
0.0
 40
1.0
 40
1.0
 40
1.0
 40
2.0
 40
2.0
 40
2.0
 40
3.0
 40
3.0
 40
3.0
 40
3.0
 10
166.1811023622047
 20
92.99212598425197
 30
0.0
 10
166.11199858460233
 20
92.99212598425197
 30
0.0
 10
166.04409759540505
 20
93.01031999947264
 30
0.0
 10
165.98425196850394
 20
93.04487188827385
 30
0.0
 10
165.9244063416028
 20
93.07942377707504
 30
0.0
 10
165.8746993676262
 20
93.12913075105162
 30
0.0
 10
165.840147478825
 20
93.18897637795276
 30
0.0
 10
165.80559559002384
 20
93.24882200485389
 30
0.0
 10
165.78740157480314
 20
93.31672299405116
 30
0.0
 10
165.78740157480314
 20
93.38582677165354
 30
0.0
  0
POLYLINE
  5
E7
330
17
100
AcDbEntity
  8
Bed wall elevation
100
AcDb2dPolyline
 66
1
 10
0.0
 20
0.0
 30
0.0
 70
0
  0
VERTEX
  5
E8
330
E7
100
AcDbEntity
  8
Bed wall elevation
100
AcDbVertex
100
AcDb2dVertex
 10
165.78740157480314
 20
93.38582677165354
 30
0.0
 70
0
  0
VERTEX
  5
E9
330
E7
100
AcDbEntity
  8
Bed wall elevation
100
AcDbVertex
100
AcDb2dVertex
 10
165.78740157480314
 20
101.1023622047244
 30
0.0
 70
0
  0
SEQEND
  5
EA
330
E7
100
AcDbEntity
  8
Bed wall elevation
  0
SPLINE
  5
EB
330
17
100
AcDbEntity
  8
Bed wall elevation
100
AcDbSpline
 70
0
 71
3
 72
14
 73
10
 74
0
 40
0.0
 40
0.0
 40
0.0
 40
0.0
 40
1.0
 40
1.0
 40
1.0
 40
2.0
 40
2.0
 40
2.0
 40
3.0
 40
3.0
 40
3.0
 40
3.0
 10
165.78740157480314
 20
101.1023622047244
 30
0.0
 10
165.78740157480314
 20
101.1714659823268
 30
0.0
 10
165.80559559002384
 20
101.23936697152406
 30
0.0
 10
165.840147478825
 20
101.2992125984252
 30
0.0
 10
165.8746993676262
 20
101.35905822532632
 30
0.0
 10
165.9244063416028
 20
101.40876519930292
 30
0.0
 10
165.98425196850394
 20
101.44331708810411
 30
0.0
 10
166.04409759540505
 20
101.4778689769053
 30
0.0
 10
166.11199858460233
 20
101.49606299212599
 30
0.0
 10
166.1811023622047
 20
101.49606299212599
 30
0.0
  0
POLYLINE
  5
EC
330
17
100
AcDbEntity
  8
Bed wall elevation
100
AcDb2dPolyline
 66
1
 10
0.0
 20
0.0
 30
0.0
 70
0
  0
VERTEX
  5
ED
330
EC
100
AcDbEntity
  8
Bed wall elevation
100
AcDbVertex
100
AcDb2dVertex
 10
166.33858267716533
 20
101.18110236220473
 30
0.0
 70
0
  0
VERTEX
  5
EE
330
EC
100
AcDbEntity
  8
Bed wall elevation
100
AcDbVertex
100
AcDb2dVertex
 10
169.40944881889763
 20
101.18110236220473
 30
0.0
 70
0
  0
SEQEND
  5
EF
330
EC
100
AcDbEntity
  8
Bed wall elevation
  0
SPLINE
  5
F0
330
17
100
AcDbEntity
  8
Bed wall elevation
100
AcDbSpline
 70
0
 71
3
 72
14
 73
10
 74
0
 40
0.0
 40
0.0
 40
0.0
 40
0.0
 40
1.0
 40
1.0
 40
1.0
 40
2.0
 40
2.0
 40
2.0
 40
3.0
 40
3.0
 40
3.0
 40
3.0
 10
169.40944881889763
 20
101.18110236220473
 30
0.0
 10
169.45091108545904
 20
101.18110236220473
 30
0.0
 10
169.4916516789774
 20
101.1701859530723
 30
0.0
 10
169.5275590551181
 20
101.1494548197916
 30
0.0
 10
169.56346643125877
 20
101.12872368651088
 30
0.0
 10
169.59329061564472
 20
101.09889950212492
 30
0.0
 10
169.61402174892544
 20
101.06299212598425
 30
0.0
 10
169.63475288220616
 20
101.02708474984357
 30
0.0
 10
169.64566929133858
 20
100.9863441563252
 30
0.0
 10
169.64566929133858
 20
100.94488188976378
 30
0.0
  0
POLYLINE
  5
F1
330
17
100
AcDbEntity
  8
Bed wall elevation
100
AcDb2dPolyline
 66
1
 10
0.0
 20
0.0
 30
0.0
 70
0
  0
VERTEX
  5
F2
330
F1
100
AcDbEntity
  8
Bed wall elevation
100
AcDbVertex
100
AcDb2dVertex
 10
169.64566929133858
 20
100.94488188976378
 30
0.0
 70
0
  0
VERTEX
  5
F3
330
F1
100
AcDbEntity
  8
Bed wall elevation
100
AcDbVertex
100
AcDb2dVertex
 10
169.64566929133858
 20
94.09448818897637
 30
0.0
 70
0
  0
SEQEND
  5
F4
330
F1
100
AcDbEntity
  8
Bed wall elevation
  0
SPLINE
  5
F5
330
17
100
AcDbEntity
  8
Bed wall elevation
100
AcDbSpline
 70
0
 71
3
 72
14
 73
10
 74
0
 40
0.0
 40
0.0
 40
0.0
 40
0.0
 40
1.0
 40
1.0
 40
1.0
 40
2.0
 40
2.0
 40
2.0
 40
3.0
 40
3.0
 40
3.0
 40
3.0
 10
169.64566929133858
 20
94.09448818897637
 30
0.0
 10
169.64566929133858
 20
94.05302592241495
 30
0.0
 10
169.63475288220616
 20
94.01228532889658
 30
0.0
 10
169.61402174892544
 20
93.9763779527559
 30
0.0
 10
169.59329061564472
 20
93.94047057661523
 30
0.0
 10
169.56346643125877
 20
93.91064639222927
 30
0.0
 10
169.5275590551181
 20
93.88991525894855
 30
0.0
 10
169.4916516789774
 20
93.86918412566784
 30
0.0
 10
169.45091108545904
 20
93.85826771653544
 30
0.0
 10
169.40944881889763
 20
93.85826771653544
 30
0.0
  0
POLYLINE
  5
F6
330
17
100
AcDbEntity
  8
Bed wall elevation
100
AcDb2dPolyline
 66
1
 10
0.0
 20
0.0
 30
0.0
 70
0
  0
VERTEX
  5
F7
330
F6
100
AcDbEntity
  8
Bed wall elevation
100
AcDbVertex
100
AcDb2dVertex
 10
169.40944881889763
 20
93.85826771653544
 30
0.0
 70
0
  0
VERTEX
  5
F8
330
F6
100
AcDbEntity
  8
Bed wall elevation
100
AcDbVertex
100
AcDb2dVertex
 10
166.33858267716533
 20
93.85826771653544
 30
0.0
 70
0
  0
SEQEND
  5
F9
330
F6
100
AcDbEntity
  8
Bed wall elevation
  0
SPLINE
  5
FA
330
17
100
AcDbEntity
  8
Bed wall elevation
100
AcDbSpline
 70
0
 71
3
 72
14
 73
10
 74
0
 40
0.0
 40
0.0
 40
0.0
 40
0.0
 40
1.0
 40
1.0
 40
1.0
 40
2.0
 40
2.0
 40
2.0
 40
3.0
 40
3.0
 40
3.0
 40
3.0
 10
166.33858267716533
 20
93.85826771653544
 30
0.0
 10
166.2971204106039
 20
93.85826771653544
 30
0.0
 10
166.25637981708556
 20
93.86918412566784
 30
0.0
 10
166.22047244094486
 20
93.88991525894855
 30
0.0
 10
166.1845650648042
 20
93.91064639222927
 30
0.0
 10
166.15474088041822
 20
93.94047057661523
 30
0.0
 10
166.13400974713753
 20
93.9763779527559
 30
0.0
 10
166.1132786138568
 20
94.01228532889658
 30
0.0
 10
166.1023622047244
 20
94.05302592241495
 30
0.0
 10
166.1023622047244
 20
94.09448818897637
 30
0.0
  0
POLYLINE
  5
FB
330
17
100
AcDbEntity
  8
Bed wall elevation
100
AcDb2dPolyline
 66
1
 10
0.0
 20
0.0
 30
0.0
 70
0
  0
VERTEX
  5
FC
330
FB
100
AcDbEntity
  8
Bed wall elevation
100
AcDbVertex
100
AcDb2dVertex
 10
166.1023622047244
 20
94.09448818897637
 30
0.0
 70
0
  0
VERTEX
  5
FD
330
FB
100
AcDbEntity
  8
Bed wall elevation
100
AcDbVertex
100
AcDb2dVertex
 10
166.1023622047244
 20
100.94488188976378
 30
0.0
 70
0
  0
SEQEND
  5
FE
330
FB
100
AcDbEntity
  8
Bed wall elevation
  0
SPLINE
  5
FF
330
17
100
AcDbEntity
  8
Bed wall elevation
100
AcDbSpline
 70
0
 71
3
 72
14
 73
10
 74
0
 40
0.0
 40
0.0
 40
0.0
 40
0.0
 40
1.0
 40
1.0
 40
1.0
 40
2.0
 40
2.0
 40
2.0
 40
3.0
 40
3.0
 40
3.0
 40
3.0
 10
166.1023622047244
 20
100.94488188976378
 30
0.0
 10
166.1023622047244
 20
100.9863441563252
 30
0.0
 10
166.1132786138568
 20
101.02708474984357
 30
0.0
 10
166.13400974713753
 20
101.06299212598425
 30
0.0
 10
166.15474088041822
 20
101.09889950212492
 30
0.0
 10
166.1845650648042
 20
101.12872368651088
 30
0.0
 10
166.22047244094486
 20
101.1494548197916
 30
0.0
 10
166.25637981708556
 20
101.1701859530723
 30
0.0
 10
166.2971204106039
 20
101.18110236220473
 30
0.0
 10
166.33858267716533
 20
101.18110236220473
 30
0.0
  0
LINE
  5
100
330
17
100
AcDbEntity
  8
Bed wall elevation
100
AcDbLine
 10
167.4015748031496
 20
93.4251968503937
 30
0.0
 11
168.3464566929134
 21
93.4251968503937
 31
0.0
  0
SPLINE
  5
101
330
17
100
AcDbEntity
  8
Bed wall elevation
100
AcDbSpline
 70
0
 71
3
 72
41
 73
37
 74
0
 40
0.0
 40
0.0
 40
0.0
 40
0.0
 40
1.0
 40
1.0
 40
1.0
 40
2.0
 40
2.0
 40
2.0
 40
3.0
 40
3.0
 40
3.0
 40
4.0
 40
4.0
 40
4.0
 40
5.0
 40
5.0
 40
5.0
 40
6.0
 40
6.0
 40
6.0
 40
7.0
 40
7.0
 40
7.0
 40
8.0
 40
8.0
 40
8.0
 40
9.0
 40
9.0
 40
9.0
 40
10.0
 40
10.0
 40
10.0
 40
11.0
 40
11.0
 40
11.0
 40
12.0
 40
12.0
 40
12.0
 40
12.0
 10
46.988188976377955
 20
50.78740157480315
 30
0.0
 10
46.988188976377955
 20
50.37277890918886
 30
0.0
 10
46.93724573376004
 20
49.96537297400523
 30
0.0
 10
46.8405004451167
 20
49.60629921259842
 30
0.0
 10
46.74375515647336
 20
49.24722545119162
 30
0.0
 10
46.60457562933892
 20
48.948983607332096
 30
0.0
 10
46.43700787401575
 20
48.741672274524944
 30
0.0
 10
46.26944011869258
 20
48.53436094171779
 30
0.0
 10
46.079317348940215
 20
48.4251968503937
 30
0.0
 10
45.88582677165354
 20
48.4251968503937
 30
0.0
 10
45.692336194366874
 20
48.4251968503937
 30
0.0
 10
45.50221342461451
 20
48.53436094171779
 30
0.0
 10
45.33464566929134
 20
48.741672274524944
 30
0.0
 10
45.167077913968164
 20
48.948983607332096
 30
0.0
 10
45.02789838683371
 20
49.24722545119162
 30
0.0
 10
44.93115309819038
 20
49.60629921259842
 30
0.0
 10
44.834407809547045
 20
49.96537297400523
 30
0.0
 10
44.78346456692913
 20
50.37277890918886
 30
0.0
 10
44.78346456692913
 20
50.78740157480315
 30
0.0
 10
44.78346456692913
 20
51.20202424041744
 30
0.0
 10
44.834407809547045
 20
51.60943017560107
 30
0.0
 10
44.93115309819038
 20
51.968503937007874
 30
0.0
 10
45.02789838683371
 20
52.32757769841467
 30
0.0
 10
45.167077913968164
 20
52.6258195422742
 30
0.0
 10
45.33464566929134
 20
52.833130875081345
 30
0.0
 10
45.50221342461451
 20
53.040442207888496
 30
0.0
 10
45.692336194366874
 20
53.14960629921259
 30
0.0
 10
45.88582677165354
 20
53.14960629921259
 30
0.0
 10
46.079317348940215
 20
53.14960629921259
 30
0.0
 10
46.26944011869258
 20
53.040442207888496
 30
0.0
 10
46.43700787401575
 20
52.833130875081345
 30
0.0
 10
46.60457562933892
 20
52.6258195422742
 30
0.0
 10
46.74375515647336
 20
52.32757769841467
 30
0.0
 10
46.8405004451167
 20
51.968503937007874
 30
0.0
 10
46.93724573376004
 20
51.60943017560107
 30
0.0
 10
46.988188976377955
 20
51.20202424041744
 30
0.0
 10
46.988188976377955
 20
50.78740157480315
 30
0.0
  0
SPLINE
  5
102
330
17
100
AcDbEntity
  8
Bed wall elevation
100
AcDbSpline
 70
0
 71
3
 72
41
 73
37
 74
0
 40
0.0
 40
0.0
 40
0.0
 40
0.0
 40
1.0
 40
1.0
 40
1.0
 40
2.0
 40
2.0
 40
2.0
 40
3.0
 40
3.0
 40
3.0
 40
4.0
 40
4.0
 40
4.0
 40
5.0
 40
5.0
 40
5.0
 40
6.0
 40
6.0
 40
6.0
 40
7.0
 40
7.0
 40
7.0
 40
8.0
 40
8.0
 40
8.0
 40
9.0
 40
9.0
 40
9.0
 40
10.0
 40
10.0
 40
10.0
 40
11.0
 40
11.0
 40
11.0
 40
12.0
 40
12.0
 40
12.0
 40
12.0
 10
46.59448818897638
 20
50.78740157480315
 30
0.0
 10
46.59448818897638
 20
50.48334495335267
 30
0.0
 10
46.561738961579145
 20
50.184580600884665
 30
0.0
 10
46.499545561737
 20
49.92125984251968
 30
0.0
 10
46.43735216189485
 20
49.6579390841547
 30
0.0
 10
46.347879608736996
 20
49.439228398657704
 30
0.0
 10
46.24015748031496
 20
49.28720008793246
 30
0.0
 10
46.132435351892916
 20
49.135171777207226
 30
0.0
 10
46.01021357133783
 20
49.055118110236215
 30
0.0
 10
45.88582677165354
 20
49.055118110236215
 30
0.0
 10
45.76143997196925
 20
49.055118110236215
 30
0.0
 10
45.639218191414166
 20
49.135171777207226
 30
0.0
 10
45.531496062992126
 20
49.28720008793246
 30
0.0
 10
45.423773934570086
 20
49.439228398657704
 30
0.0
 10
45.334301381412224
 20
49.6579390841547
 30
0.0
 10
45.27210798157008
 20
49.92125984251968
 30
0.0
 10
45.20991458172794
 20
50.184580600884665
 30
0.0
 10
45.17716535433071
 20
50.48334495335267
 30
0.0
 10
45.17716535433071
 20
50.78740157480315
 30
0.0
 10
45.17716535433071
 20
51.091458196253626
 30
0.0
 10
45.20991458172794
 20
51.390222548721624
 30
0.0
 10
45.27210798157008
 20
51.653543307086615
 30
0.0
 10
45.334301381412224
 20
51.9168640654516
 30
0.0
 10
45.423773934570086
 20
52.13557475094859
 30
0.0
 10
45.531496062992126
 20
52.28760306167383
 30
0.0
 10
45.639218191414166
 20
52.43963137239907
 30
0.0
 10
45.76143997196925
 20
52.519685039370074
 30
0.0
 10
45.88582677165354
 20
52.519685039370074
 30
0.0
 10
46.01021357133783
 20
52.519685039370074
 30
0.0
 10
46.132435351892916
 20
52.43963137239907
 30
0.0
 10
46.24015748031496
 20
52.28760306167383
 30
0.0
 10
46.347879608736996
 20
52.13557475094859
 30
0.0
 10
46.43735216189485
 20
51.9168640654516
 30
0.0
 10
46.499545561737
 20
51.653543307086615
 30
0.0
 10
46.561738961579145
 20
51.390222548721624
 30
0.0
 10
46.59448818897638
 20
51.091458196253626
 30
0.0
 10
46.59448818897638
 20
50.78740157480315
 30
0.0
  0
SPLINE
  5
103
330
17
100
AcDbEntity
  8
Bed wall elevation
100
AcDbSpline
 70
0
 71
3
 72
8
 73
4
 74
0
 40
0.0
 40
0.0
 40
0.0
 40
0.0
 40
1.0
 40
1.0
 40
1.0
 40
1.0
 10
45.41338582677165
 20
50.39370078740157
 30
0.0
 10
43.12992125984252
 20
47.63779527559055
 30
0.0
 10
40.374015748031496
 20
48.818897637795274
 30
0.0
 10
39.98031496062992
 20
51.574803149606296
 30
0.0
  0
LWPOLYLINE
  5
104
330
17
100
AcDbEntity
  8
Bed wall elevation
100
AcDbPolyline
 90
5
 70
0
 10
39.66535433070866
 20
54.33070866141732
 10
40.29527559055118
 20
54.33070866141732
 10
40.29527559055118
 20
52.204724409448815
 10
39.66535433070866
 20
52.204724409448815
 10
39.66535433070866
 20
54.33070866141732
  0
LWPOLYLINE
  5
105
330
17
100
AcDbEntity
  8
Bed wall elevation
100
AcDbPolyline
 90
5
 70
0
 10
37.618110236220474
 20
54.33070866141732
 10
42.34251968503937
 20
54.33070866141732
 10
41.39763779527559
 20
58.26771653543307
 10
38.56299212598425
 20
58.26771653543307
 10
37.618110236220474
 20
54.33070866141732
  0
LINE
  5
106
330
17
100
AcDbEntity
  8
Bed wall elevation
100
AcDbLine
 10
38.40551181102362
 20
54.40944881889764
 30
0.0
 11
39.03543307086614
 21
58.188976377952756
 31
0.0
  0
LINE
  5
107
330
17
100
AcDbEntity
  8
Bed wall elevation
100
AcDbLine
 10
39.19291338582677
 20
54.40944881889764
 30
0.0
 11
39.50787401574803
 21
58.188976377952756
 31
0.0
  0
LINE
  5
108
330
17
100
AcDbEntity
  8
Bed wall elevation
100
AcDbLine
 10
39.98031496062992
 20
54.40944881889764
 30
0.0
 11
39.98031496062992
 21
58.188976377952756
 31
0.0
  0
LINE
  5
109
330
17
100
AcDbEntity
  8
Bed wall elevation
100
AcDbLine
 10
40.76771653543307
 20
54.40944881889764
 30
0.0
 11
40.45275590551181
 21
58.188976377952756
 31
0.0
  0
LINE
  5
10A
330
17
100
AcDbEntity
  8
Bed wall elevation
100
AcDbLine
 10
41.55511811023622
 20
54.40944881889764
 30
0.0
 11
40.925196850393704
 21
58.188976377952756
 31
0.0
  0
SPLINE
  5
10B
330
17
100
AcDbEntity
  8
Bed wall elevation
100
AcDbSpline
 70
0
 71
3
 72
8
 73
4
 74
0
 40
0.0
 40
0.0
 40
0.0
 40
0.0
 40
1.0
 40
1.0
 40
1.0
 40
1.0
 10
46.35826771653543
 20
50.39370078740157
 30
0.0
 10
48.64173228346456
 20
47.63779527559055
 30
0.0
 10
51.39763779527559
 20
48.818897637795274
 30
0.0
 10
51.79133858267716
 20
51.574803149606296
 30
0.0
  0
LWPOLYLINE
  5
10C
330
17
100
AcDbEntity
  8
Bed wall elevation
100
AcDbPolyline
 90
5
 70
0
 10
51.476377952755904
 20
54.33070866141732
 10
52.10629921259842
 20
54.33070866141732
 10
52.10629921259842
 20
52.204724409448815
 10
51.476377952755904
 20
52.204724409448815
 10
51.476377952755904
 20
54.33070866141732
  0
LWPOLYLINE
  5
10D
330
17
100
AcDbEntity
  8
Bed wall elevation
100
AcDbPolyline
 90
5
 70
0
 10
49.42913385826772
 20
54.33070866141732
 10
54.153543307086615
 20
54.33070866141732
 10
53.20866141732284
 20
58.26771653543307
 10
50.374015748031496
 20
58.26771653543307
 10
49.42913385826772
 20
54.33070866141732
  0
LINE
  5
10E
330
17
100
AcDbEntity
  8
Bed wall elevation
100
AcDbLine
 10
50.21653543307087
 20
54.40944881889764
 30
0.0
 11
50.846456692913385
 21
58.188976377952756
 31
0.0
  0
LINE
  5
10F
330
17
100
AcDbEntity
  8
Bed wall elevation
100
AcDbLine
 10
51.003937007874015
 20
54.40944881889764
 30
0.0
 11
51.318897637795274
 21
58.188976377952756
 31
0.0
  0
LINE
  5
110
330
17
100
AcDbEntity
  8
Bed wall elevation
100
AcDbLine
 10
51.79133858267716
 20
54.40944881889764
 30
0.0
 11
51.79133858267716
 21
58.188976377952756
 31
0.0
  0
LINE
  5
111
330
17
100
AcDbEntity
  8
Bed wall elevation
100
AcDbLine
 10
52.57874015748031
 20
54.40944881889764
 30
0.0
 11
52.26377952755905
 21
58.188976377952756
 31
0.0
  0
LINE
  5
112
330
17
100
AcDbEntity
  8
Bed wall elevation
100
AcDbLine
 10
53.36614173228347
 20
54.40944881889764
 30
0.0
 11
52.73622047244094
 21
58.188976377952756
 31
0.0
  0
SPLINE
  5
113
330
17
100
AcDbEntity
  8
Bed wall elevation
100
AcDbSpline
 70
0
 71
3
 72
41
 73
37
 74
0
 40
0.0
 40
0.0
 40
0.0
 40
0.0
 40
1.0
 40
1.0
 40
1.0
 40
2.0
 40
2.0
 40
2.0
 40
3.0
 40
3.0
 40
3.0
 40
4.0
 40
4.0
 40
4.0
 40
5.0
 40
5.0
 40
5.0
 40
6.0
 40
6.0
 40
6.0
 40
7.0
 40
7.0
 40
7.0
 40
8.0
 40
8.0
 40
8.0
 40
9.0
 40
9.0
 40
9.0
 40
10.0
 40
10.0
 40
10.0
 40
11.0
 40
11.0
 40
11.0
 40
12.0
 40
12.0
 40
12.0
 40
12.0
 10
141.00393700787401
 20
50.78740157480315
 30
0.0
 10
141.00393700787401
 20
50.37277890918886
 30
0.0
 10
140.95299376525608
 20
49.96537297400523
 30
0.0
 10
140.85624847661276
 20
49.60629921259842
 30
0.0
 10
140.75950318796941
 20
49.24722545119162
 30
0.0
 10
140.62032366083497
 20
48.948983607332096
 30
0.0
 10
140.4527559055118
 20
48.741672274524944
 30
0.0
 10
140.28518815018865
 20
48.53436094171779
 30
0.0
 10
140.09506538043627
 20
48.4251968503937
 30
0.0
 10
139.9015748031496
 20
48.4251968503937
 30
0.0
 10
139.70808422586293
 20
48.4251968503937
 30
0.0
 10
139.51796145611056
 20
48.53436094171779
 30
0.0
 10
139.35039370078738
 20
48.741672274524944
 30
0.0
 10
139.18282594546423
 20
48.948983607332096
 30
0.0
 10
139.04364641832976
 20
49.24722545119162
 30
0.0
 10
138.94690112968644
 20
49.60629921259842
 30
0.0
 10
138.85015584104312
 20
49.96537297400523
 30
0.0
 10
138.79921259842519
 20
50.37277890918886
 30
0.0
 10
138.79921259842519
 20
50.78740157480315
 30
0.0
 10
138.79921259842519
 20
51.20202424041744
 30
0.0
 10
138.85015584104312
 20
51.60943017560107
 30
0.0
 10
138.94690112968644
 20
51.968503937007874
 30
0.0
 10
139.04364641832976
 20
52.32757769841467
 30
0.0
 10
139.18282594546423
 20
52.6258195422742
 30
0.0
 10
139.35039370078738
 20
52.833130875081345
 30
0.0
 10
139.51796145611056
 20
53.040442207888496
 30
0.0
 10
139.70808422586293
 20
53.14960629921259
 30
0.0
 10
139.9015748031496
 20
53.14960629921259
 30
0.0
 10
140.09506538043627
 20
53.14960629921259
 30
0.0
 10
140.28518815018865
 20
53.040442207888496
 30
0.0
 10
140.4527559055118
 20
52.833130875081345
 30
0.0
 10
140.62032366083497
 20
52.6258195422742
 30
0.0
 10
140.75950318796941
 20
52.32757769841467
 30
0.0
 10
140.85624847661276
 20
51.968503937007874
 30
0.0
 10
140.95299376525608
 20
51.60943017560107
 30
0.0
 10
141.00393700787401
 20
51.20202424041744
 30
0.0
 10
141.00393700787401
 20
50.78740157480315
 30
0.0
  0
SPLINE
  5
114
330
17
100
AcDbEntity
  8
Bed wall elevation
100
AcDbSpline
 70
0
 71
3
 72
41
 73
37
 74
0
 40
0.0
 40
0.0
 40
0.0
 40
0.0
 40
1.0
 40
1.0
 40
1.0
 40
2.0
 40
2.0
 40
2.0
 40
3.0
 40
3.0
 40
3.0
 40
4.0
 40
4.0
 40
4.0
 40
5.0
 40
5.0
 40
5.0
 40
6.0
 40
6.0
 40
6.0
 40
7.0
 40
7.0
 40
7.0
 40
8.0
 40
8.0
 40
8.0
 40
9.0
 40
9.0
 40
9.0
 40
10.0
 40
10.0
 40
10.0
 40
11.0
 40
11.0
 40
11.0
 40
12.0
 40
12.0
 40
12.0
 40
12.0
 10
140.61023622047244
 20
50.78740157480315
 30
0.0
 10
140.61023622047244
 20
50.48334495335267
 30
0.0
 10
140.5774869930752
 20
50.184580600884665
 30
0.0
 10
140.51529359323305
 20
49.92125984251968
 30
0.0
 10
140.4531001933909
 20
49.6579390841547
 30
0.0
 10
140.36362764023306
 20
49.439228398657704
 30
0.0
 10
140.25590551181102
 20
49.28720008793246
 30
0.0
 10
140.14818338338898
 20
49.135171777207226
 30
0.0
 10
140.0259616028339
 20
49.055118110236215
 30
0.0
 10
139.9015748031496
 20
49.055118110236215
 30
0.0
 10
139.7771880034653
 20
49.055118110236215
 30
0.0
 10
139.65496622291022
 20
49.135171777207226
 30
0.0
 10
139.54724409448818
 20
49.28720008793246
 30
0.0
 10
139.43952196606614
 20
49.439228398657704
 30
0.0
 10
139.35004941290828
 20
49.6579390841547
 30
0.0
 10
139.28785601306615
 20
49.92125984251968
 30
0.0
 10
139.225662613224
 20
50.184580600884665
 30
0.0
 10
139.19291338582676
 20
50.48334495335267
 30
0.0
 10
139.19291338582676
 20
50.78740157480315
 30
0.0
 10
139.19291338582676
 20
51.091458196253626
 30
0.0
 10
139.225662613224
 20
51.390222548721624
 30
0.0
 10
139.28785601306615
 20
51.653543307086615
 30
0.0
 10
139.35004941290828
 20
51.9168640654516
 30
0.0
 10
139.43952196606614
 20
52.13557475094859
 30
0.0
 10
139.54724409448818
 20
52.28760306167383
 30
0.0
 10
139.65496622291022
 20
52.43963137239907
 30
0.0
 10
139.7771880034653
 20
52.519685039370074
 30
0.0
 10
139.9015748031496
 20
52.519685039370074
 30
0.0
 10
140.0259616028339
 20
52.519685039370074
 30
0.0
 10
140.14818338338898
 20
52.43963137239907
 30
0.0
 10
140.25590551181102
 20
52.28760306167383
 30
0.0
 10
140.36362764023306
 20
52.13557475094859
 30
0.0
 10
140.4531001933909
 20
51.9168640654516
 30
0.0
 10
140.51529359323305
 20
51.653543307086615
 30
0.0
 10
140.5774869930752
 20
51.390222548721624
 30
0.0
 10
140.61023622047244
 20
51.091458196253626
 30
0.0
 10
140.61023622047244
 20
50.78740157480315
 30
0.0
  0
SPLINE
  5
115
330
17
100
AcDbEntity
  8
Bed wall elevation
100
AcDbSpline
 70
0
 71
3
 72
8
 73
4
 74
0
 40
0.0
 40
0.0
 40
0.0
 40
0.0
 40
1.0
 40
1.0
 40
1.0
 40
1.0
 10
139.4291338582677
 20
50.39370078740157
 30
0.0
 10
137.14566929133858
 20
47.63779527559055
 30
0.0
 10
134.38976377952756
 20
48.818897637795274
 30
0.0
 10
133.99606299212599
 20
51.574803149606296
 30
0.0
  0
LWPOLYLINE
  5
116
330
17
100
AcDbEntity
  8
Bed wall elevation
100
AcDbPolyline
 90
5
 70
0
 10
133.6811023622047
 20
54.33070866141732
 10
134.31102362204723
 20
54.33070866141732
 10
134.31102362204723
 20
52.204724409448815
 10
133.6811023622047
 20
52.204724409448815
 10
133.6811023622047
 20
54.33070866141732
  0
LWPOLYLINE
  5
117
330
17
100
AcDbEntity
  8
Bed wall elevation
100
AcDbPolyline
 90
5
 70
0
 10
131.63385826771653
 20
54.33070866141732
 10
136.35826771653544
 20
54.33070866141732
 10
135.41338582677164
 20
58.26771653543307
 10
132.57874015748033
 20
58.26771653543307
 10
131.63385826771653
 20
54.33070866141732
  0
LINE
  5
118
330
17
100
AcDbEntity
  8
Bed wall elevation
100
AcDbLine
 10
132.42125984251967
 20
54.40944881889764
 30
0.0
 11
133.0511811023622
 21
58.188976377952756
 31
0.0
  0
LINE
  5
119
330
17
100
AcDbEntity
  8
Bed wall elevation
100
AcDbLine
 10
133.20866141732284
 20
54.40944881889764
 30
0.0
 11
133.5236220472441
 21
58.188976377952756
 31
0.0
  0
LINE
  5
11A
330
17
100
AcDbEntity
  8
Bed wall elevation
100
AcDbLine
 10
133.99606299212599
 20
54.40944881889764
 30
0.0
 11
133.99606299212599
 21
58.188976377952756
 31
0.0
  0
LINE
  5
11B
330
17
100
AcDbEntity
  8
Bed wall elevation
100
AcDbLine
 10
134.78346456692913
 20
54.40944881889764
 30
0.0
 11
134.46850393700788
 21
58.188976377952756
 31
0.0
  0
LINE
  5
11C
330
17
100
AcDbEntity
  8
Bed wall elevation
100
AcDbLine
 10
135.5708661417323
 20
54.40944881889764
 30
0.0
 11
134.94094488188975
 21
58.188976377952756
 31
0.0
  0
SPLINE
  5
11D
330
17
100
AcDbEntity
  8
Bed wall elevation
100
AcDbSpline
 70
0
 71
3
 72
8
 73
4
 74
0
 40
0.0
 40
0.0
 40
0.0
 40
0.0
 40
1.0
 40
1.0
 40
1.0
 40
1.0
 10
140.3740157480315
 20
50.39370078740157
 30
0.0
 10
142.65748031496062
 20
47.63779527559055
 30
0.0
 10
145.41338582677164
 20
48.818897637795274
 30
0.0
 10
145.80708661417322
 20
51.574803149606296
 30
0.0
  0
LWPOLYLINE
  5
11E
330
17
100
AcDbEntity
  8
Bed wall elevation
100
AcDbPolyline
 90
5
 70
0
 10
145.49212598425197
 20
54.33070866141732
 10
146.1220472440945
 20
54.33070866141732
 10
146.1220472440945
 20
52.204724409448815
 10
145.49212598425197
 20
52.204724409448815
 10
145.49212598425197
 20
54.33070866141732
  0
LWPOLYLINE
  5
11F
330
17
100
AcDbEntity
  8
Bed wall elevation
100
AcDbPolyline
 90
5
 70
0
 10
143.44488188976376
 20
54.33070866141732
 10
148.16929133858267
 20
54.33070866141732
 10
147.22440944881888
 20
58.26771653543307
 10
144.38976377952756
 20
58.26771653543307
 10
143.44488188976376
 20
54.33070866141732
  0
LINE
  5
120
330
17
100
AcDbEntity
  8
Bed wall elevation
100
AcDbLine
 10
144.23228346456693
 20
54.40944881889764
 30
0.0
 11
144.86220472440945
 21
58.188976377952756
 31
0.0
  0
LINE
  5
121
330
17
100
AcDbEntity
  8
Bed wall elevation
100
AcDbLine
 10
145.01968503937007
 20
54.40944881889764
 30
0.0
 11
145.33464566929135
 21
58.188976377952756
 31
0.0
  0
LINE
  5
122
330
17
100
AcDbEntity
  8
Bed wall elevation
100
AcDbLine
 10
145.80708661417322
 20
54.40944881889764
 30
0.0
 11
145.80708661417322
 21
58.188976377952756
 31
0.0
  0
LINE
  5
123
330
17
100
AcDbEntity
  8
Bed wall elevation
100
AcDbLine
 10
146.59448818897638
 20
54.40944881889764
 30
0.0
 11
146.2795275590551
 21
58.188976377952756
 31
0.0
  0
LINE
  5
124
330
17
100
AcDbEntity
  8
Bed wall elevation
100
AcDbLine
 10
147.38188976377953
 20
54.40944881889764
 30
0.0
 11
146.751968503937
 21
58.188976377952756
 31
0.0
  0
LWPOLYLINE
  5
125
330
17
100
AcDbEntity
  8
Bed wall elevation
100
AcDbPolyline
 90
5
 70
0
 10
54.881889763779526
 20
40.0
 10
130.90551181102362
 20
40.0
 10
130.90551181102362
 20
19.448818897637793
 10
54.881889763779526
 20
19.448818897637793
 10
54.881889763779526
 20
40.0
  0
LINE
  5
126
330
17
100
AcDbEntity
  8
Bed wall elevation
100
AcDbLine
 10
55.354330708661415
 20
39.29133858267716
 30
0.0
 11
130.43307086614172
 21
39.29133858267716
 31
0.0
  0
LWPOLYLINE
  5
127
330
17
100
AcDbEntity
  8
Bed wall elevation
100
AcDbPolyline
 90
5
 70
0
 10
58.46456692913386
 20
28.897637795275585
 10
90.53149606299212
 20
28.897637795275585
 10
90.53149606299212
 20
21.02362204724409
 10
58.46456692913386
 20
21.02362204724409
 10
58.46456692913386
 20
28.897637795275585
  0
LWPOLYLINE
  5
128
330
17
100
AcDbEntity
  8
Bed wall elevation
100
AcDbPolyline
 90
5
 70
0
 10
95.25590551181102
 20
28.897637795275585
 10
127.3228346456693
 20
28.897637795275585
 10
127.3228346456693
 20
21.02362204724409
 10
95.25590551181102
 20
21.02362204724409
 10
95.25590551181102
 20
28.897637795275585
  0
LWPOLYLINE
  5
129
330
17
100
AcDbEntity
  8
Bed wall elevation
100
AcDbPolyline
 90
5
 70
0
 10
56.889763779527556
 20
21.02362204724409
 10
128.89763779527559
 20
21.02362204724409
 10
128.89763779527559
 20
11.02362204724409
 10
56.889763779527556
 20
11.02362204724409
 10
56.889763779527556
 20
21.02362204724409
  0
LWPOLYLINE
  5
12A
330
17
100
AcDbEntity
  8
Bed wall elevation
100
AcDbPolyline
 90
5
 70
0
 10
54.881889763779526
 20
11.02362204724409
 10
130.90551181102362
 20
11.02362204724409
 10
130.90551181102362
 20
0.0
 10
54.881889763779526
 20
0.0
 10
54.881889763779526
 20
11.02362204724409
  0
LWPOLYLINE
  5
12B
330
17
100
AcDbEntity
  8
Bed wall elevation
  6
DASHED
100
AcDbPolyline
 90
5
 70
0
 10
156.07125984251968
 20
90.98425196850394
 10
191.88976377952756
 20
90.98425196850394
 10
191.88976377952756
 20
0.0
 10
156.07125984251968
 20
0.0
 10
156.07125984251968
 20
90.98425196850394
  0
LINE
  5
12C
330
17
100
AcDbEntity
  8
Bed wall elevation
100
AcDbLine
 10
0.0
 20
0.0
 30
0.0
 11
197.79527559055117
 21
0.0
 31
0.0
  0
LINE
  5
12D
330
17
100
AcDbEntity
  8
Bed wall elevation
  6
DASHED
100
AcDbLine
 10
0.0
 20
109.01574803149606
 30
0.0
 11
197.79527559055117
 21
109.01574803149606
 31
0.0
  0
TEXT
  5
12E
330
17
100
AcDbEntity
  8
LABELS
100
AcDbText
 10
0.0
 20
111.37795275590551
 30
0.0
 40
3.955905511811024
  1
BED WALL ELEVATION  (1:1, inches)
 11
0.0
 21
111.37795275590551
 31
0.0
100
AcDbText
  0
LWPOLYLINE
  5
131
330
17
100
AcDbEntity
  8
Bed wall face
100
AcDbPolyline
 90
5
 70
0
 10
233.37007874015748
 20
109.01574803149606
 10
419.35433070866145
 20
109.01574803149606
 10
419.35433070866145
 20
0.0
 10
233.37007874015748
 20
0.0
 10
233.37007874015748
 20
109.01574803149606
  0
LINE
  5
132
330
17
100
AcDbEntity
  8
Bed wall face
100
AcDbLine
 10
233.76377952755908
 20
109.01574803149606
 30
0.0
 11
233.76377952755908
 21
4.015748031496063
 31
0.0
  0
LINE
  5
133
330
17
100
AcDbEntity
  8
Bed wall face
100
AcDbLine
 10
406.9527559055118
 20
109.01574803149606
 30
0.0
 11
406.9527559055118
 21
4.015748031496063
 31
0.0
  0
LINE
  5
134
330
17
100
AcDbEntity
  8
Bed wall face
100
AcDbLine
 10
284.9251968503937
 20
109.01574803149606
 30
0.0
 11
284.9251968503937
 21
84.96062992125984
 31
0.0
  0
LINE
  5
135
330
17
100
AcDbEntity
  8
Bed wall face
100
AcDbLine
 10
355.79133858267716
 20
109.01574803149606
 30
0.0
 11
355.79133858267716
 21
84.96062992125984
 31
0.0
  0
LWPOLYLINE
  5
136
330
17
100
AcDbEntity
  8
Bed wall face
100
AcDbPolyline
 90
4
 70
0
 10
263.2200787401575
 20
4.015748031496059
 10
263.2200787401575
 20
79.1263779527559
 10
377.4964566929134
 20
79.1263779527559
 10
377.4964566929134
 20
4.015748031496059
  0
LWPOLYLINE
  5
137
330
17
100
AcDbEntity
  8
Bed wall face
100
AcDbPolyline
 90
4
 70
0
 10
262.7775590551181
 20
4.015748031496059
 10
262.7775590551181
 20
79.56889763779527
 10
377.93897637795277
 20
79.56889763779527
 10
377.93897637795277
 20
4.015748031496059
  0
LWPOLYLINE
  5
138
330
17
100
AcDbEntity
  8
Bed wall face
100
AcDbPolyline
 90
4
 70
0
 10
262.0645669291339
 20
4.015748031496059
 10
262.0645669291339
 20
80.28188976377953
 10
378.65196850393704
 20
80.28188976377953
 10
378.65196850393704
 20
4.015748031496059
  0
LWPOLYLINE
  5
139
330
17
100
AcDbEntity
  8
Bed wall face
100
AcDbPolyline
 90
4
 70
0
 10
261.11692913385826
 20
4.015748031496059
 10
261.11692913385826
 20
81.22952755905511
 10
379.5996062992126
 20
81.22952755905511
 10
379.5996062992126
 20
4.015748031496059
  0
LWPOLYLINE
  5
13A
330
17
100
AcDbEntity
  8
Bed wall face
100
AcDbPolyline
 90
4
 70
0
 10
259.98228346456693
 20
4.015748031496059
 10
259.98228346456693
 20
82.36417322834646
 10
380.73425196850394
 20
82.36417322834646
 10
380.73425196850394
 20
4.015748031496059
  0
LWPOLYLINE
  5
13B
330
17
100
AcDbEntity
  8
Bed wall face
100
AcDbPolyline
 90
4
 70
0
 10
258.71732283464564
 20
4.015748031496059
 10
258.71732283464564
 20
83.6291338582677
 10
381.9992125984252
 20
83.6291338582677
 10
381.9992125984252
 20
4.015748031496059
  0
LWPOLYLINE
  5
13C
330
17
100
AcDbEntity
  8
Bed wall face
100
AcDbPolyline
 90
4
 70
0
 10
263.3700787401575
 20
4.015748031496059
 10
263.3700787401575
 20
78.97637795275591
 10
377.3464566929134
 20
78.97637795275591
 10
377.3464566929134
 20
4.015748031496059
  0
LWPOLYLINE
  5
13D
330
17
100
AcDbEntity
  8
Bed wall face
  6
DASHED
100
AcDbPolyline
 90
4
 70
0
 10
257.38582677165357
 20
4.015748031496059
 10
257.38582677165357
 20
84.96062992125984
 10
383.33070866141736
 20
84.96062992125984
 10
383.33070866141736
 20
4.015748031496059
  0
LINE
  5
13E
330
17
100
AcDbEntity
  8
Bed wall face
100
AcDbLine
 10
264.35433070866145
 20
77.99212598425197
 30
0.0
 11
257.38582677165357
 21
84.96062992125984
 31
0.0
  0
LINE
  5
13F
330
17
100
AcDbEntity
  8
Bed wall face
100
AcDbLine
 10
376.3622047244095
 20
77.99212598425197
 30
0.0
 11
383.3307086614173
 21
84.96062992125984
 31
0.0
  0
LWPOLYLINE
  5
140
330
17
100
AcDbEntity
  8
Bed wall face
100
AcDbPolyline
 90
5
 70
0
 10
264.3543307086614
 20
77.99212598425197
 10
376.3622047244095
 20
77.99212598425197
 10
376.3622047244095
 20
0.0
 10
264.3543307086614
 20
0.0
 10
264.3543307086614
 20
77.99212598425197
  0
LINE
  5
141
330
17
100
AcDbEntity
  8
Bed wall face
100
AcDbLine
 10
286.755905511811
 20
77.99212598425197
 30
0.0
 11
286.755905511811
 21
4.015748031496063
 31
0.0
  0
LINE
  5
142
330
17
100
AcDbEntity
  8
Bed wall face
100
AcDbLine
 10
309.15748031496065
 20
77.99212598425197
 30
0.0
 11
309.15748031496065
 21
4.015748031496063
 31
0.0
  0
LINE
  5
143
330
17
100
AcDbEntity
  8
Bed wall face
100
AcDbLine
 10
331.5590551181102
 20
77.99212598425197
 30
0.0
 11
331.5590551181102
 21
4.015748031496063
 31
0.0
  0
LINE
  5
144
330
17
100
AcDbEntity
  8
Bed wall face
100
AcDbLine
 10
353.96062992125985
 20
77.99212598425197
 30
0.0
 11
353.96062992125985
 21
4.015748031496063
 31
0.0
  0
LINE
  5
145
330
17
100
AcDbEntity
  8
Bed wall face
100
AcDbLine
 10
264.35433070866145
 20
28.674409448818896
 30
0.0
 11
376.3622047244095
 21
28.674409448818896
 31
0.0
  0
LINE
  5
146
330
17
100
AcDbEntity
  8
Bed wall face
100
AcDbLine
 10
264.35433070866145
 20
53.33346456692914
 30
0.0
 11
376.3622047244095
 21
53.33346456692914
 31
0.0
  0
LWPOLYLINE
  5
147
330
17
100
AcDbEntity
  8
Bed wall face
100
AcDbPolyline
 90
5
 70
0
 10
233.37007874015748
 20
4.015748031496059
 10
419.35433070866145
 20
4.015748031496059
 10
419.35433070866145
 20
0.0
 10
233.37007874015748
 20
0.0
 10
233.37007874015748
 20
4.015748031496059
  0
POLYLINE
  5
148
330
17
100
AcDbEntity
  8
Bed wall face
100
AcDb2dPolyline
 66
1
 10
0.0
 20
0.0
 30
0.0
 70
0
  0
VERTEX
  5
149
330
148
100
AcDbEntity
  8
Bed wall face
100
AcDbVertex
100
AcDb2dVertex
 10
243.68503937007875
 20
101.49606299212599
 30
0.0
 70
0
  0
VERTEX
  5
14A
330
148
100
AcDbEntity
  8
Bed wall face
100
AcDbVertex
100
AcDb2dVertex
 10
247.0708661417323
 20
101.49606299212599
 30
0.0
 70
0
  0
SEQEND
  5
14B
330
148
100
AcDbEntity
  8
Bed wall face
  0
SPLINE
  5
14C
330
17
100
AcDbEntity
  8
Bed wall face
100
AcDbSpline
 70
0
 71
3
 72
14
 73
10
 74
0
 40
0.0
 40
0.0
 40
0.0
 40
0.0
 40
1.0
 40
1.0
 40
1.0
 40
2.0
 40
2.0
 40
2.0
 40
3.0
 40
3.0
 40
3.0
 40
3.0
 10
247.0708661417323
 20
101.49606299212599
 30
0.0
 10
247.13996991933467
 20
101.49606299212599
 30
0.0
 10
247.20787090853193
 20
101.4778689769053
 30
0.0
 10
247.26771653543307
 20
101.44331708810411
 30
0.0
 10
247.3275621623342
 20
101.40876519930292
 30
0.0
 10
247.3772691363108
 20
101.35905822532632
 30
0.0
 10
247.41182102511198
 20
101.2992125984252
 30
0.0
 10
247.44637291391317
 20
101.23936697152406
 30
0.0
 10
247.46456692913387
 20
101.1714659823268
 30
0.0
 10
247.46456692913387
 20
101.1023622047244
 30
0.0
  0
POLYLINE
  5
14D
330
17
100
AcDbEntity
  8
Bed wall face
100
AcDb2dPolyline
 66
1
 10
0.0
 20
0.0
 30
0.0
 70
0
  0
VERTEX
  5
14E
330
14D
100
AcDbEntity
  8
Bed wall face
100
AcDbVertex
100
AcDb2dVertex
 10
247.46456692913387
 20
101.1023622047244
 30
0.0
 70
0
  0
VERTEX
  5
14F
330
14D
100
AcDbEntity
  8
Bed wall face
100
AcDbVertex
100
AcDb2dVertex
 10
247.46456692913387
 20
93.38582677165354
 30
0.0
 70
0
  0
SEQEND
  5
150
330
14D
100
AcDbEntity
  8
Bed wall face
  0
SPLINE
  5
151
330
17
100
AcDbEntity
  8
Bed wall face
100
AcDbSpline
 70
0
 71
3
 72
14
 73
10
 74
0
 40
0.0
 40
0.0
 40
0.0
 40
0.0
 40
1.0
 40
1.0
 40
1.0
 40
2.0
 40
2.0
 40
2.0
 40
3.0
 40
3.0
 40
3.0
 40
3.0
 10
247.46456692913387
 20
93.38582677165354
 30
0.0
 10
247.46456692913387
 20
93.31672299405116
 30
0.0
 10
247.44637291391317
 20
93.24882200485389
 30
0.0
 10
247.41182102511198
 20
93.18897637795276
 30
0.0
 10
247.3772691363108
 20
93.12913075105162
 30
0.0
 10
247.3275621623342
 20
93.07942377707504
 30
0.0
 10
247.26771653543307
 20
93.04487188827385
 30
0.0
 10
247.20787090853193
 20
93.01031999947264
 30
0.0
 10
247.13996991933467
 20
92.99212598425197
 30
0.0
 10
247.0708661417323
 20
92.99212598425197
 30
0.0
  0
POLYLINE
  5
152
330
17
100
AcDbEntity
  8
Bed wall face
100
AcDb2dPolyline
 66
1
 10
0.0
 20
0.0
 30
0.0
 70
0
  0
VERTEX
  5
153
330
152
100
AcDbEntity
  8
Bed wall face
100
AcDbVertex
100
AcDb2dVertex
 10
247.0708661417323
 20
92.99212598425197
 30
0.0
 70
0
  0
VERTEX
  5
154
330
152
100
AcDbEntity
  8
Bed wall face
100
AcDbVertex
100
AcDb2dVertex
 10
243.68503937007875
 20
92.99212598425197
 30
0.0
 70
0
  0
SEQEND
  5
155
330
152
100
AcDbEntity
  8
Bed wall face
  0
SPLINE
  5
156
330
17
100
AcDbEntity
  8
Bed wall face
100
AcDbSpline
 70
0
 71
3
 72
14
 73
10
 74
0
 40
0.0
 40
0.0
 40
0.0
 40
0.0
 40
1.0
 40
1.0
 40
1.0
 40
2.0
 40
2.0
 40
2.0
 40
3.0
 40
3.0
 40
3.0
 40
3.0
 10
243.68503937007875
 20
92.99212598425197
 30
0.0
 10
243.61593559247635
 20
92.99212598425197
 30
0.0
 10
243.5480346032791
 20
93.01031999947264
 30
0.0
 10
243.48818897637796
 20
93.04487188827385
 30
0.0
 10
243.42834334947682
 20
93.07942377707504
 30
0.0
 10
243.37863637550024
 20
93.12913075105162
 30
0.0
 10
243.34408448669905
 20
93.18897637795276
 30
0.0
 10
243.30953259789786
 20
93.24882200485389
 30
0.0
 10
243.29133858267716
 20
93.31672299405116
 30
0.0
 10
243.29133858267716
 20
93.38582677165354
 30
0.0
  0
POLYLINE
  5
157
330
17
100
AcDbEntity
  8
Bed wall face
100
AcDb2dPolyline
 66
1
 10
0.0
 20
0.0
 30
0.0
 70
0
  0
VERTEX
  5
158
330
157
100
AcDbEntity
  8
Bed wall face
100
AcDbVertex
100
AcDb2dVertex
 10
243.29133858267716
 20
93.38582677165354
 30
0.0
 70
0
  0
VERTEX
  5
159
330
157
100
AcDbEntity
  8
Bed wall face
100
AcDbVertex
100
AcDb2dVertex
 10
243.29133858267716
 20
101.1023622047244
 30
0.0
 70
0
  0
SEQEND
  5
15A
330
157
100
AcDbEntity
  8
Bed wall face
  0
SPLINE
  5
15B
330
17
100
AcDbEntity
  8
Bed wall face
100
AcDbSpline
 70
0
 71
3
 72
14
 73
10
 74
0
 40
0.0
 40
0.0
 40
0.0
 40
0.0
 40
1.0
 40
1.0
 40
1.0
 40
2.0
 40
2.0
 40
2.0
 40
3.0
 40
3.0
 40
3.0
 40
3.0
 10
243.29133858267716
 20
101.1023622047244
 30
0.0
 10
243.29133858267716
 20
101.1714659823268
 30
0.0
 10
243.30953259789786
 20
101.23936697152406
 30
0.0
 10
243.34408448669905
 20
101.2992125984252
 30
0.0
 10
243.37863637550024
 20
101.35905822532632
 30
0.0
 10
243.42834334947682
 20
101.40876519930292
 30
0.0
 10
243.48818897637796
 20
101.44331708810411
 30
0.0
 10
243.5480346032791
 20
101.4778689769053
 30
0.0
 10
243.61593559247635
 20
101.49606299212599
 30
0.0
 10
243.68503937007875
 20
101.49606299212599
 30
0.0
  0
POLYLINE
  5
15C
330
17
100
AcDbEntity
  8
Bed wall face
100
AcDb2dPolyline
 66
1
 10
0.0
 20
0.0
 30
0.0
 70
0
  0
VERTEX
  5
15D
330
15C
100
AcDbEntity
  8
Bed wall face
100
AcDbVertex
100
AcDb2dVertex
 10
243.84251968503938
 20
101.18110236220473
 30
0.0
 70
0
  0
VERTEX
  5
15E
330
15C
100
AcDbEntity
  8
Bed wall face
100
AcDbVertex
100
AcDb2dVertex
 10
246.91338582677164
 20
101.18110236220473
 30
0.0
 70
0
  0
SEQEND
  5
15F
330
15C
100
AcDbEntity
  8
Bed wall face
  0
SPLINE
  5
160
330
17
100
AcDbEntity
  8
Bed wall face
100
AcDbSpline
 70
0
 71
3
 72
14
 73
10
 74
0
 40
0.0
 40
0.0
 40
0.0
 40
0.0
 40
1.0
 40
1.0
 40
1.0
 40
2.0
 40
2.0
 40
2.0
 40
3.0
 40
3.0
 40
3.0
 40
3.0
 10
246.91338582677164
 20
101.18110236220473
 30
0.0
 10
246.95484809333308
 20
101.18110236220473
 30
0.0
 10
246.99558868685145
 20
101.1701859530723
 30
0.0
 10
247.03149606299212
 20
101.1494548197916
 30
0.0
 10
247.06740343913282
 20
101.12872368651088
 30
0.0
 10
247.09722762351876
 20
101.09889950212492
 30
0.0
 10
247.11795875679948
 20
101.06299212598425
 30
0.0
 10
247.1386898900802
 20
101.02708474984357
 30
0.0
 10
247.1496062992126
 20
100.9863441563252
 30
0.0
 10
247.1496062992126
 20
100.94488188976378
 30
0.0
  0
POLYLINE
  5
161
330
17
100
AcDbEntity
  8
Bed wall face
100
AcDb2dPolyline
 66
1
 10
0.0
 20
0.0
 30
0.0
 70
0
  0
VERTEX
  5
162
330
161
100
AcDbEntity
  8
Bed wall face
100
AcDbVertex
100
AcDb2dVertex
 10
247.1496062992126
 20
100.94488188976378
 30
0.0
 70
0
  0
VERTEX
  5
163
330
161
100
AcDbEntity
  8
Bed wall face
100
AcDbVertex
100
AcDb2dVertex
 10
247.1496062992126
 20
94.09448818897637
 30
0.0
 70
0
  0
SEQEND
  5
164
330
161
100
AcDbEntity
  8
Bed wall face
  0
SPLINE
  5
165
330
17
100
AcDbEntity
  8
Bed wall face
100
AcDbSpline
 70
0
 71
3
 72
14
 73
10
 74
0
 40
0.0
 40
0.0
 40
0.0
 40
0.0
 40
1.0
 40
1.0
 40
1.0
 40
2.0
 40
2.0
 40
2.0
 40
3.0
 40
3.0
 40
3.0
 40
3.0
 10
247.1496062992126
 20
94.09448818897637
 30
0.0
 10
247.1496062992126
 20
94.05302592241495
 30
0.0
 10
247.1386898900802
 20
94.01228532889658
 30
0.0
 10
247.11795875679948
 20
93.9763779527559
 30
0.0
 10
247.09722762351876
 20
93.94047057661523
 30
0.0
 10
247.06740343913282
 20
93.91064639222927
 30
0.0
 10
247.03149606299212
 20
93.88991525894855
 30
0.0
 10
246.99558868685145
 20
93.86918412566784
 30
0.0
 10
246.95484809333308
 20
93.85826771653544
 30
0.0
 10
246.91338582677164
 20
93.85826771653544
 30
0.0
  0
POLYLINE
  5
166
330
17
100
AcDbEntity
  8
Bed wall face
100
AcDb2dPolyline
 66
1
 10
0.0
 20
0.0
 30
0.0
 70
0
  0
VERTEX
  5
167
330
166
100
AcDbEntity
  8
Bed wall face
100
AcDbVertex
100
AcDb2dVertex
 10
246.91338582677164
 20
93.85826771653544
 30
0.0
 70
0
  0
VERTEX
  5
168
330
166
100
AcDbEntity
  8
Bed wall face
100
AcDbVertex
100
AcDb2dVertex
 10
243.84251968503938
 20
93.85826771653544
 30
0.0
 70
0
  0
SEQEND
  5
169
330
166
100
AcDbEntity
  8
Bed wall face
  0
SPLINE
  5
16A
330
17
100
AcDbEntity
  8
Bed wall face
100
AcDbSpline
 70
0
 71
3
 72
14
 73
10
 74
0
 40
0.0
 40
0.0
 40
0.0
 40
0.0
 40
1.0
 40
1.0
 40
1.0
 40
2.0
 40
2.0
 40
2.0
 40
3.0
 40
3.0
 40
3.0
 40
3.0
 10
243.84251968503938
 20
93.85826771653544
 30
0.0
 10
243.80105741847794
 20
93.85826771653544
 30
0.0
 10
243.76031682495957
 20
93.86918412566784
 30
0.0
 10
243.7244094488189
 20
93.88991525894855
 30
0.0
 10
243.6885020726782
 20
93.91064639222927
 30
0.0
 10
243.65867788829226
 20
93.94047057661523
 30
0.0
 10
243.63794675501154
 20
93.9763779527559
 30
0.0
 10
243.61721562173085
 20
94.01228532889658
 30
0.0
 10
243.60629921259843
 20
94.05302592241495
 30
0.0
 10
243.60629921259843
 20
94.09448818897637
 30
0.0
  0
POLYLINE
  5
16B
330
17
100
AcDbEntity
  8
Bed wall face
100
AcDb2dPolyline
 66
1
 10
0.0
 20
0.0
 30
0.0
 70
0
  0
VERTEX
  5
16C
330
16B
100
AcDbEntity
  8
Bed wall face
100
AcDbVertex
100
AcDb2dVertex
 10
243.60629921259843
 20
94.09448818897637
 30
0.0
 70
0
  0
VERTEX
  5
16D
330
16B
100
AcDbEntity
  8
Bed wall face
100
AcDbVertex
100
AcDb2dVertex
 10
243.60629921259843
 20
100.94488188976378
 30
0.0
 70
0
  0
SEQEND
  5
16E
330
16B
100
AcDbEntity
  8
Bed wall face
  0
SPLINE
  5
16F
330
17
100
AcDbEntity
  8
Bed wall face
100
AcDbSpline
 70
0
 71
3
 72
14
 73
10
 74
0
 40
0.0
 40
0.0
 40
0.0
 40
0.0
 40
1.0
 40
1.0
 40
1.0
 40
2.0
 40
2.0
 40
2.0
 40
3.0
 40
3.0
 40
3.0
 40
3.0
 10
243.60629921259843
 20
100.94488188976378
 30
0.0
 10
243.60629921259843
 20
100.9863441563252
 30
0.0
 10
243.61721562173085
 20
101.02708474984357
 30
0.0
 10
243.63794675501154
 20
101.06299212598425
 30
0.0
 10
243.65867788829226
 20
101.09889950212492
 30
0.0
 10
243.6885020726782
 20
101.12872368651088
 30
0.0
 10
243.7244094488189
 20
101.1494548197916
 30
0.0
 10
243.76031682495957
 20
101.1701859530723
 30
0.0
 10
243.80105741847794
 20
101.18110236220473
 30
0.0
 10
243.84251968503938
 20
101.18110236220473
 30
0.0
  0
LINE
  5
170
330
17
100
AcDbEntity
  8
Bed wall face
100
AcDbLine
 10
244.90551181102364
 20
93.4251968503937
 30
0.0
 11
245.8503937007874
 21
93.4251968503937
 31
0.0
  0
POLYLINE
  5
171
330
17
100
AcDbEntity
  8
Bed wall face
100
AcDb2dPolyline
 66
1
 10
0.0
 20
0.0
 30
0.0
 70
0
  0
VERTEX
  5
172
330
171
100
AcDbEntity
  8
Bed wall face
100
AcDbVertex
100
AcDb2dVertex
 10
393.64566929133855
 20
101.49606299212599
 30
0.0
 70
0
  0
VERTEX
  5
173
330
171
100
AcDbEntity
  8
Bed wall face
100
AcDbVertex
100
AcDb2dVertex
 10
397.0314960629921
 20
101.49606299212599
 30
0.0
 70
0
  0
SEQEND
  5
174
330
171
100
AcDbEntity
  8
Bed wall face
  0
SPLINE
  5
175
330
17
100
AcDbEntity
  8
Bed wall face
100
AcDbSpline
 70
0
 71
3
 72
14
 73
10
 74
0
 40
0.0
 40
0.0
 40
0.0
 40
0.0
 40
1.0
 40
1.0
 40
1.0
 40
2.0
 40
2.0
 40
2.0
 40
3.0
 40
3.0
 40
3.0
 40
3.0
 10
397.0314960629921
 20
101.49606299212599
 30
0.0
 10
397.1005998405945
 20
101.49606299212599
 30
0.0
 10
397.1685008297918
 20
101.4778689769053
 30
0.0
 10
397.2283464566929
 20
101.44331708810411
 30
0.0
 10
397.288192083594
 20
101.40876519930292
 30
0.0
 10
397.33789905757067
 20
101.35905822532632
 30
0.0
 10
397.3724509463718
 20
101.2992125984252
 30
0.0
 10
397.407002835173
 20
101.23936697152406
 30
0.0
 10
397.4251968503937
 20
101.1714659823268
 30
0.0
 10
397.4251968503937
 20
101.1023622047244
 30
0.0
  0
POLYLINE
  5
176
330
17
100
AcDbEntity
  8
Bed wall face
100
AcDb2dPolyline
 66
1
 10
0.0
 20
0.0
 30
0.0
 70
0
  0
VERTEX
  5
177
330
176
100
AcDbEntity
  8
Bed wall face
100
AcDbVertex
100
AcDb2dVertex
 10
397.4251968503937
 20
101.1023622047244
 30
0.0
 70
0
  0
VERTEX
  5
178
330
176
100
AcDbEntity
  8
Bed wall face
100
AcDbVertex
100
AcDb2dVertex
 10
397.4251968503937
 20
93.38582677165354
 30
0.0
 70
0
  0
SEQEND
  5
179
330
176
100
AcDbEntity
  8
Bed wall face
  0
SPLINE
  5
17A
330
17
100
AcDbEntity
  8
Bed wall face
100
AcDbSpline
 70
0
 71
3
 72
14
 73
10
 74
0
 40
0.0
 40
0.0
 40
0.0
 40
0.0
 40
1.0
 40
1.0
 40
1.0
 40
2.0
 40
2.0
 40
2.0
 40
3.0
 40
3.0
 40
3.0
 40
3.0
 10
397.4251968503937
 20
93.38582677165354
 30
0.0
 10
397.4251968503937
 20
93.31672299405116
 30
0.0
 10
397.407002835173
 20
93.24882200485389
 30
0.0
 10
397.3724509463718
 20
93.18897637795276
 30
0.0
 10
397.33789905757067
 20
93.12913075105162
 30
0.0
 10
397.288192083594
 20
93.07942377707504
 30
0.0
 10
397.2283464566929
 20
93.04487188827385
 30
0.0
 10
397.1685008297918
 20
93.01031999947264
 30
0.0
 10
397.1005998405945
 20
92.99212598425197
 30
0.0
 10
397.0314960629921
 20
92.99212598425197
 30
0.0
  0
POLYLINE
  5
17B
330
17
100
AcDbEntity
  8
Bed wall face
100
AcDb2dPolyline
 66
1
 10
0.0
 20
0.0
 30
0.0
 70
0
  0
VERTEX
  5
17C
330
17B
100
AcDbEntity
  8
Bed wall face
100
AcDbVertex
100
AcDb2dVertex
 10
397.0314960629921
 20
92.99212598425197
 30
0.0
 70
0
  0
VERTEX
  5
17D
330
17B
100
AcDbEntity
  8
Bed wall face
100
AcDbVertex
100
AcDb2dVertex
 10
393.64566929133855
 20
92.99212598425197
 30
0.0
 70
0
  0
SEQEND
  5
17E
330
17B
100
AcDbEntity
  8
Bed wall face
  0
SPLINE
  5
17F
330
17
100
AcDbEntity
  8
Bed wall face
100
AcDbSpline
 70
0
 71
3
 72
14
 73
10
 74
0
 40
0.0
 40
0.0
 40
0.0
 40
0.0
 40
1.0
 40
1.0
 40
1.0
 40
2.0
 40
2.0
 40
2.0
 40
3.0
 40
3.0
 40
3.0
 40
3.0
 10
393.64566929133855
 20
92.99212598425197
 30
0.0
 10
393.5765655137362
 20
92.99212598425197
 30
0.0
 10
393.5086645245389
 20
93.01031999947264
 30
0.0
 10
393.4488188976378
 20
93.04487188827385
 30
0.0
 10
393.38897327073664
 20
93.07942377707504
 30
0.0
 10
393.33926629676006
 20
93.12913075105162
 30
0.0
 10
393.30471440795884
 20
93.18897637795276
 30
0.0
 10
393.2701625191577
 20
93.24882200485389
 30
0.0
 10
393.251968503937
 20
93.31672299405116
 30
0.0
 10
393.251968503937
 20
93.38582677165354
 30
0.0
  0
POLYLINE
  5
180
330
17
100
AcDbEntity
  8
Bed wall face
100
AcDb2dPolyline
 66
1
 10
0.0
 20
0.0
 30
0.0
 70
0
  0
VERTEX
  5
181
330
180
100
AcDbEntity
  8
Bed wall face
100
AcDbVertex
100
AcDb2dVertex
 10
393.251968503937
 20
93.38582677165354
 30
0.0
 70
0
  0
VERTEX
  5
182
330
180
100
AcDbEntity
  8
Bed wall face
100
AcDbVertex
100
AcDb2dVertex
 10
393.251968503937
 20
101.1023622047244
 30
0.0
 70
0
  0
SEQEND
  5
183
330
180
100
AcDbEntity
  8
Bed wall face
  0
SPLINE
  5
184
330
17
100
AcDbEntity
  8
Bed wall face
100
AcDbSpline
 70
0
 71
3
 72
14
 73
10
 74
0
 40
0.0
 40
0.0
 40
0.0
 40
0.0
 40
1.0
 40
1.0
 40
1.0
 40
2.0
 40
2.0
 40
2.0
 40
3.0
 40
3.0
 40
3.0
 40
3.0
 10
393.251968503937
 20
101.1023622047244
 30
0.0
 10
393.251968503937
 20
101.1714659823268
 30
0.0
 10
393.2701625191577
 20
101.23936697152406
 30
0.0
 10
393.30471440795884
 20
101.2992125984252
 30
0.0
 10
393.33926629676006
 20
101.35905822532632
 30
0.0
 10
393.38897327073664
 20
101.40876519930292
 30
0.0
 10
393.4488188976378
 20
101.44331708810411
 30
0.0
 10
393.5086645245389
 20
101.4778689769053
 30
0.0
 10
393.5765655137362
 20
101.49606299212599
 30
0.0
 10
393.64566929133855
 20
101.49606299212599
 30
0.0
  0
POLYLINE
  5
185
330
17
100
AcDbEntity
  8
Bed wall face
100
AcDb2dPolyline
 66
1
 10
0.0
 20
0.0
 30
0.0
 70
0
  0
VERTEX
  5
186
330
185
100
AcDbEntity
  8
Bed wall face
100
AcDbVertex
100
AcDb2dVertex
 10
393.8031496062992
 20
101.18110236220473
 30
0.0
 70
0
  0
VERTEX
  5
187
330
185
100
AcDbEntity
  8
Bed wall face
100
AcDbVertex
100
AcDb2dVertex
 10
396.8740157480315
 20
101.18110236220473
 30
0.0
 70
0
  0
SEQEND
  5
188
330
185
100
AcDbEntity
  8
Bed wall face
  0
SPLINE
  5
189
330
17
100
AcDbEntity
  8
Bed wall face
100
AcDbSpline
 70
0
 71
3
 72
14
 73
10
 74
0
 40
0.0
 40
0.0
 40
0.0
 40
0.0
 40
1.0
 40
1.0
 40
1.0
 40
2.0
 40
2.0
 40
2.0
 40
3.0
 40
3.0
 40
3.0
 40
3.0
 10
396.8740157480315
 20
101.18110236220473
 30
0.0
 10
396.9154780145929
 20
101.18110236220473
 30
0.0
 10
396.95621860811127
 20
101.1701859530723
 30
0.0
 10
396.99212598425197
 20
101.1494548197916
 30
0.0
 10
397.02803336039267
 20
101.12872368651088
 30
0.0
 10
397.0578575447786
 20
101.09889950212492
 30
0.0
 10
397.0785886780593
 20
101.06299212598425
 30
0.0
 10
397.09931981134
 20
101.02708474984357
 30
0.0
 10
397.1102362204724
 20
100.9863441563252
 30
0.0
 10
397.1102362204724
 20
100.94488188976378
 30
0.0
  0
POLYLINE
  5
18A
330
17
100
AcDbEntity
  8
Bed wall face
100
AcDb2dPolyline
 66
1
 10
0.0
 20
0.0
 30
0.0
 70
0
  0
VERTEX
  5
18B
330
18A
100
AcDbEntity
  8
Bed wall face
100
AcDbVertex
100
AcDb2dVertex
 10
397.1102362204724
 20
100.94488188976378
 30
0.0
 70
0
  0
VERTEX
  5
18C
330
18A
100
AcDbEntity
  8
Bed wall face
100
AcDbVertex
100
AcDb2dVertex
 10
397.1102362204724
 20
94.09448818897637
 30
0.0
 70
0
  0
SEQEND
  5
18D
330
18A
100
AcDbEntity
  8
Bed wall face
  0
SPLINE
  5
18E
330
17
100
AcDbEntity
  8
Bed wall face
100
AcDbSpline
 70
0
 71
3
 72
14
 73
10
 74
0
 40
0.0
 40
0.0
 40
0.0
 40
0.0
 40
1.0
 40
1.0
 40
1.0
 40
2.0
 40
2.0
 40
2.0
 40
3.0
 40
3.0
 40
3.0
 40
3.0
 10
397.1102362204724
 20
94.09448818897637
 30
0.0
 10
397.1102362204724
 20
94.05302592241495
 30
0.0
 10
397.09931981134
 20
94.01228532889658
 30
0.0
 10
397.0785886780593
 20
93.9763779527559
 30
0.0
 10
397.0578575447786
 20
93.94047057661523
 30
0.0
 10
397.02803336039267
 20
93.91064639222927
 30
0.0
 10
396.99212598425197
 20
93.88991525894855
 30
0.0
 10
396.95621860811127
 20
93.86918412566784
 30
0.0
 10
396.9154780145929
 20
93.85826771653544
 30
0.0
 10
396.8740157480315
 20
93.85826771653544
 30
0.0
  0
POLYLINE
  5
18F
330
17
100
AcDbEntity
  8
Bed wall face
100
AcDb2dPolyline
 66
1
 10
0.0
 20
0.0
 30
0.0
 70
0
  0
VERTEX
  5
190
330
18F
100
AcDbEntity
  8
Bed wall face
100
AcDbVertex
100
AcDb2dVertex
 10
396.8740157480315
 20
93.85826771653544
 30
0.0
 70
0
  0
VERTEX
  5
191
330
18F
100
AcDbEntity
  8
Bed wall face
100
AcDbVertex
100
AcDb2dVertex
 10
393.8031496062992
 20
93.85826771653544
 30
0.0
 70
0
  0
SEQEND
  5
192
330
18F
100
AcDbEntity
  8
Bed wall face
  0
SPLINE
  5
193
330
17
100
AcDbEntity
  8
Bed wall face
100
AcDbSpline
 70
0
 71
3
 72
14
 73
10
 74
0
 40
0.0
 40
0.0
 40
0.0
 40
0.0
 40
1.0
 40
1.0
 40
1.0
 40
2.0
 40
2.0
 40
2.0
 40
3.0
 40
3.0
 40
3.0
 40
3.0
 10
393.8031496062992
 20
93.85826771653544
 30
0.0
 10
393.76168733973776
 20
93.85826771653544
 30
0.0
 10
393.7209467462194
 20
93.86918412566784
 30
0.0
 10
393.6850393700787
 20
93.88991525894855
 30
0.0
 10
393.64913199393806
 20
93.91064639222927
 30
0.0
 10
393.6193078095521
 20
93.94047057661523
 30
0.0
 10
393.59857667627136
 20
93.9763779527559
 30
0.0
 10
393.57784554299064
 20
94.01228532889658
 30
0.0
 10
393.56692913385825
 20
94.05302592241495
 30
0.0
 10
393.56692913385825
 20
94.09448818897637
 30
0.0
  0
POLYLINE
  5
194
330
17
100
AcDbEntity
  8
Bed wall face
100
AcDb2dPolyline
 66
1
 10
0.0
 20
0.0
 30
0.0
 70
0
  0
VERTEX
  5
195
330
194
100
AcDbEntity
  8
Bed wall face
100
AcDbVertex
100
AcDb2dVertex
 10
393.56692913385825
 20
94.09448818897637
 30
0.0
 70
0
  0
VERTEX
  5
196
330
194
100
AcDbEntity
  8
Bed wall face
100
AcDbVertex
100
AcDb2dVertex
 10
393.56692913385825
 20
100.94488188976378
 30
0.0
 70
0
  0
SEQEND
  5
197
330
194
100
AcDbEntity
  8
Bed wall face
  0
SPLINE
  5
198
330
17
100
AcDbEntity
  8
Bed wall face
100
AcDbSpline
 70
0
 71
3
 72
14
 73
10
 74
0
 40
0.0
 40
0.0
 40
0.0
 40
0.0
 40
1.0
 40
1.0
 40
1.0
 40
2.0
 40
2.0
 40
2.0
 40
3.0
 40
3.0
 40
3.0
 40
3.0
 10
393.56692913385825
 20
100.94488188976378
 30
0.0
 10
393.56692913385825
 20
100.9863441563252
 30
0.0
 10
393.57784554299064
 20
101.02708474984357
 30
0.0
 10
393.59857667627136
 20
101.06299212598425
 30
0.0
 10
393.6193078095521
 20
101.09889950212492
 30
0.0
 10
393.64913199393806
 20
101.12872368651088
 30
0.0
 10
393.6850393700787
 20
101.1494548197916
 30
0.0
 10
393.7209467462194
 20
101.1701859530723
 30
0.0
 10
393.76168733973776
 20
101.18110236220473
 30
0.0
 10
393.8031496062992
 20
101.18110236220473
 30
0.0
  0
LINE
  5
199
330
17
100
AcDbEntity
  8
Bed wall face
100
AcDbLine
 10
394.8661417322835
 20
93.4251968503937
 30
0.0
 11
395.81102362204723
 21
93.4251968503937
 31
0.0
  0
SPLINE
  5
19A
330
17
100
AcDbEntity
  8
Bed wall face
100
AcDbSpline
 70
0
 71
3
 72
41
 73
37
 74
0
 40
0.0
 40
0.0
 40
0.0
 40
0.0
 40
1.0
 40
1.0
 40
1.0
 40
2.0
 40
2.0
 40
2.0
 40
3.0
 40
3.0
 40
3.0
 40
4.0
 40
4.0
 40
4.0
 40
5.0
 40
5.0
 40
5.0
 40
6.0
 40
6.0
 40
6.0
 40
7.0
 40
7.0
 40
7.0
 40
8.0
 40
8.0
 40
8.0
 40
9.0
 40
9.0
 40
9.0
 40
10.0
 40
10.0
 40
10.0
 40
11.0
 40
11.0
 40
11.0
 40
12.0
 40
12.0
 40
12.0
 40
12.0
 10
274.4527559055118
 20
50.78740157480315
 30
0.0
 10
274.4527559055118
 20
50.37277890918886
 30
0.0
 10
274.4018126628939
 20
49.96537297400523
 30
0.0
 10
274.30506737425054
 20
49.60629921259842
 30
0.0
 10
274.2083220856072
 20
49.24722545119162
 30
0.0
 10
274.0691425584728
 20
48.948983607332096
 30
0.0
 10
273.90157480314963
 20
48.741672274524944
 30
0.0
 10
273.7340070478264
 20
48.53436094171779
 30
0.0
 10
273.5438842780741
 20
48.4251968503937
 30
0.0
 10
273.3503937007874
 20
48.4251968503937
 30
0.0
 10
273.15690312350074
 20
48.4251968503937
 30
0.0
 10
272.9667803537484
 20
48.53436094171779
 30
0.0
 10
272.7992125984252
 20
48.741672274524944
 30
0.0
 10
272.63164484310204
 20
48.948983607332096
 30
0.0
 10
272.4924653159676
 20
49.24722545119162
 30
0.0
 10
272.3957200273242
 20
49.60629921259842
 30
0.0
 10
272.2989747386809
 20
49.96537297400523
 30
0.0
 10
272.248031496063
 20
50.37277890918886
 30
0.0
 10
272.248031496063
 20
50.78740157480315
 30
0.0
 10
272.248031496063
 20
51.20202424041744
 30
0.0
 10
272.2989747386809
 20
51.60943017560107
 30
0.0
 10
272.3957200273242
 20
51.968503937007874
 30
0.0
 10
272.4924653159676
 20
52.32757769841467
 30
0.0
 10
272.63164484310204
 20
52.6258195422742
 30
0.0
 10
272.7992125984252
 20
52.833130875081345
 30
0.0
 10
272.9667803537484
 20
53.040442207888496
 30
0.0
 10
273.15690312350074
 20
53.14960629921259
 30
0.0
 10
273.3503937007874
 20
53.14960629921259
 30
0.0
 10
273.5438842780741
 20
53.14960629921259
 30
0.0
 10
273.7340070478264
 20
53.040442207888496
 30
0.0
 10
273.90157480314963
 20
52.833130875081345
 30
0.0
 10
274.0691425584728
 20
52.6258195422742
 30
0.0
 10
274.2083220856072
 20
52.32757769841467
 30
0.0
 10
274.30506737425054
 20
51.968503937007874
 30
0.0
 10
274.4018126628939
 20
51.60943017560107
 30
0.0
 10
274.4527559055118
 20
51.20202424041744
 30
0.0
 10
274.4527559055118
 20
50.78740157480315
 30
0.0
  0
SPLINE
  5
19B
330
17
100
AcDbEntity
  8
Bed wall face
100
AcDbSpline
 70
0
 71
3
 72
41
 73
37
 74
0
 40
0.0
 40
0.0
 40
0.0
 40
0.0
 40
1.0
 40
1.0
 40
1.0
 40
2.0
 40
2.0
 40
2.0
 40
3.0
 40
3.0
 40
3.0
 40
4.0
 40
4.0
 40
4.0
 40
5.0
 40
5.0
 40
5.0
 40
6.0
 40
6.0
 40
6.0
 40
7.0
 40
7.0
 40
7.0
 40
8.0
 40
8.0
 40
8.0
 40
9.0
 40
9.0
 40
9.0
 40
10.0
 40
10.0
 40
10.0
 40
11.0
 40
11.0
 40
11.0
 40
12.0
 40
12.0
 40
12.0
 40
12.0
 10
274.0590551181102
 20
50.78740157480315
 30
0.0
 10
274.0590551181102
 20
50.48334495335267
 30
0.0
 10
274.026305890713
 20
50.184580600884665
 30
0.0
 10
273.9641124908709
 20
49.92125984251968
 30
0.0
 10
273.90191909102873
 20
49.6579390841547
 30
0.0
 10
273.81244653787087
 20
49.439228398657704
 30
0.0
 10
273.70472440944883
 20
49.28720008793246
 30
0.0
 10
273.5970022810268
 20
49.135171777207226
 30
0.0
 10
273.4747805004717
 20
49.055118110236215
 30
0.0
 10
273.3503937007874
 20
49.055118110236215
 30
0.0
 10
273.2260069011031
 20
49.055118110236215
 30
0.0
 10
273.103785120548
 20
49.135171777207226
 30
0.0
 10
272.996062992126
 20
49.28720008793246
 30
0.0
 10
272.88834086370395
 20
49.439228398657704
 30
0.0
 10
272.7988683105461
 20
49.6579390841547
 30
0.0
 10
272.7366749107039
 20
49.92125984251968
 30
0.0
 10
272.6744815108618
 20
50.184580600884665
 30
0.0
 10
272.6417322834646
 20
50.48334495335267
 30
0.0
 10
272.6417322834646
 20
50.78740157480315
 30
0.0
 10
272.6417322834646
 20
51.091458196253626
 30
0.0
 10
272.6744815108618
 20
51.390222548721624
 30
0.0
 10
272.7366749107039
 20
51.653543307086615
 30
0.0
 10
272.7988683105461
 20
51.9168640654516
 30
0.0
 10
272.88834086370395
 20
52.13557475094859
 30
0.0
 10
272.996062992126
 20
52.28760306167383
 30
0.0
 10
273.103785120548
 20
52.43963137239907
 30
0.0
 10
273.2260069011031
 20
52.519685039370074
 30
0.0
 10
273.3503937007874
 20
52.519685039370074
 30
0.0
 10
273.4747805004717
 20
52.519685039370074
 30
0.0
 10
273.5970022810268
 20
52.43963137239907
 30
0.0
 10
273.70472440944883
 20
52.28760306167383
 30
0.0
 10
273.81244653787087
 20
52.13557475094859
 30
0.0
 10
273.90191909102873
 20
51.9168640654516
 30
0.0
 10
273.9641124908709
 20
51.653543307086615
 30
0.0
 10
274.026305890713
 20
51.390222548721624
 30
0.0
 10
274.0590551181102
 20
51.091458196253626
 30
0.0
 10
274.0590551181102
 20
50.78740157480315
 30
0.0
  0
SPLINE
  5
19C
330
17
100
AcDbEntity
  8
Bed wall face
100
AcDbSpline
 70
0
 71
3
 72
8
 73
4
 74
0
 40
0.0
 40
0.0
 40
0.0
 40
0.0
 40
1.0
 40
1.0
 40
1.0
 40
1.0
 10
272.87795275590554
 20
50.39370078740157
 30
0.0
 10
270.59448818897636
 20
47.63779527559055
 30
0.0
 10
267.83858267716533
 20
48.818897637795274
 30
0.0
 10
267.4448818897638
 20
51.574803149606296
 30
0.0
  0
LWPOLYLINE
  5
19D
330
17
100
AcDbEntity
  8
Bed wall face
100
AcDbPolyline
 90
5
 70
0
 10
267.1299212598425
 20
54.33070866141732
 10
267.75984251968504
 20
54.33070866141732
 10
267.75984251968504
 20
52.204724409448815
 10
267.1299212598425
 20
52.204724409448815
 10
267.1299212598425
 20
54.33070866141732
  0
LWPOLYLINE
  5
19E
330
17
100
AcDbEntity
  8
Bed wall face
100
AcDbPolyline
 90
5
 70
0
 10
265.0826771653543
 20
54.33070866141732
 10
269.8070866141732
 20
54.33070866141732
 10
268.8622047244095
 20
58.26771653543307
 10
266.0275590551181
 20
58.26771653543307
 10
265.0826771653543
 20
54.33070866141732
  0
LINE
  5
19F
330
17
100
AcDbEntity
  8
Bed wall face
100
AcDbLine
 10
265.8700787401575
 20
54.40944881889764
 30
0.0
 11
266.5
 21
58.188976377952756
 31
0.0
  0
LINE
  5
1A0
330
17
100
AcDbEntity
  8
Bed wall face
100
AcDbLine
 10
266.65748031496065
 20
54.40944881889764
 30
0.0
 11
266.9724409448819
 21
58.188976377952756
 31
0.0
  0
LINE
  5
1A1
330
17
100
AcDbEntity
  8
Bed wall face
100
AcDbLine
 10
267.4448818897638
 20
54.40944881889764
 30
0.0
 11
267.4448818897638
 21
58.188976377952756
 31
0.0
  0
LINE
  5
1A2
330
17
100
AcDbEntity
  8
Bed wall face
100
AcDbLine
 10
268.23228346456693
 20
54.40944881889764
 30
0.0
 11
267.9173228346457
 21
58.188976377952756
 31
0.0
  0
LINE
  5
1A3
330
17
100
AcDbEntity
  8
Bed wall face
100
AcDbLine
 10
269.0196850393701
 20
54.40944881889764
 30
0.0
 11
268.3897637795276
 21
58.188976377952756
 31
0.0
  0
SPLINE
  5
1A4
330
17
100
AcDbEntity
  8
Bed wall face
100
AcDbSpline
 70
0
 71
3
 72
8
 73
4
 74
0
 40
0.0
 40
0.0
 40
0.0
 40
0.0
 40
1.0
 40
1.0
 40
1.0
 40
1.0
 10
273.8228346456693
 20
50.39370078740157
 30
0.0
 10
276.1062992125984
 20
47.63779527559055
 30
0.0
 10
278.8622047244095
 20
48.818897637795274
 30
0.0
 10
279.255905511811
 20
51.574803149606296
 30
0.0
  0
LWPOLYLINE
  5
1A5
330
17
100
AcDbEntity
  8
Bed wall face
100
AcDbPolyline
 90
5
 70
0
 10
278.9409448818898
 20
54.33070866141732
 10
279.57086614173227
 20
54.33070866141732
 10
279.57086614173227
 20
52.204724409448815
 10
278.9409448818898
 20
52.204724409448815
 10
278.9409448818898
 20
54.33070866141732
  0
LWPOLYLINE
  5
1A6
330
17
100
AcDbEntity
  8
Bed wall face
100
AcDbPolyline
 90
5
 70
0
 10
276.8937007874016
 20
54.33070866141732
 10
281.61811023622045
 20
54.33070866141732
 10
280.6732283464567
 20
58.26771653543307
 10
277.83858267716533
 20
58.26771653543307
 10
276.8937007874016
 20
54.33070866141732
  0
LINE
  5
1A7
330
17
100
AcDbEntity
  8
Bed wall face
100
AcDbLine
 10
277.68110236220474
 20
54.40944881889764
 30
0.0
 11
278.31102362204723
 21
58.188976377952756
 31
0.0
  0
LINE
  5
1A8
330
17
100
AcDbEntity
  8
Bed wall face
100
AcDbLine
 10
278.4685039370079
 20
54.40944881889764
 30
0.0
 11
278.7834645669291
 21
58.188976377952756
 31
0.0
  0
LINE
  5
1A9
330
17
100
AcDbEntity
  8
Bed wall face
100
AcDbLine
 10
279.255905511811
 20
54.40944881889764
 30
0.0
 11
279.255905511811
 21
58.188976377952756
 31
0.0
  0
LINE
  5
1AA
330
17
100
AcDbEntity
  8
Bed wall face
100
AcDbLine
 10
280.04330708661416
 20
54.40944881889764
 30
0.0
 11
279.7283464566929
 21
58.188976377952756
 31
0.0
  0
LINE
  5
1AB
330
17
100
AcDbEntity
  8
Bed wall face
100
AcDbLine
 10
280.83070866141736
 20
54.40944881889764
 30
0.0
 11
280.2007874015748
 21
58.188976377952756
 31
0.0
  0
SPLINE
  5
1AC
330
17
100
AcDbEntity
  8
Bed wall face
100
AcDbSpline
 70
0
 71
3
 72
41
 73
37
 74
0
 40
0.0
 40
0.0
 40
0.0
 40
0.0
 40
1.0
 40
1.0
 40
1.0
 40
2.0
 40
2.0
 40
2.0
 40
3.0
 40
3.0
 40
3.0
 40
4.0
 40
4.0
 40
4.0
 40
5.0
 40
5.0
 40
5.0
 40
6.0
 40
6.0
 40
6.0
 40
7.0
 40
7.0
 40
7.0
 40
8.0
 40
8.0
 40
8.0
 40
9.0
 40
9.0
 40
9.0
 40
10.0
 40
10.0
 40
10.0
 40
11.0
 40
11.0
 40
11.0
 40
12.0
 40
12.0
 40
12.0
 40
12.0
 10
368.4685039370079
 20
50.78740157480315
 30
0.0
 10
368.4685039370079
 20
50.37277890918886
 30
0.0
 10
368.41756069439
 20
49.96537297400523
 30
0.0
 10
368.32081540574666
 20
49.60629921259842
 30
0.0
 10
368.2240701171033
 20
49.24722545119162
 30
0.0
 10
368.08489058996884
 20
48.948983607332096
 30
0.0
 10
367.9173228346457
 20
48.741672274524944
 30
0.0
 10
367.74975507932254
 20
48.53436094171779
 30
0.0
 10
367.55963230957013
 20
48.4251968503937
 30
0.0
 10
367.3661417322835
 20
48.4251968503937
 30
0.0
 10
367.1726511549968
 20
48.4251968503937
 30
0.0
 10
366.98252838524445
 20
48.53436094171779
 30
0.0
 10
366.81496062992125
 20
48.741672274524944
 30
0.0
 10
366.6473928745981
 20
48.948983607332096
 30
0.0
 10
366.50821334746365
 20
49.24722545119162
 30
0.0
 10
366.41146805882033
 20
49.60629921259842
 30
0.0
 10
366.314722770177
 20
49.96537297400523
 30
0.0
 10
366.26377952755905
 20
50.37277890918886
 30
0.0
 10
366.26377952755905
 20
50.78740157480315
 30
0.0
 10
366.26377952755905
 20
51.20202424041744
 30
0.0
 10
366.314722770177
 20
51.60943017560107
 30
0.0
 10
366.41146805882033
 20
51.968503937007874
 30
0.0
 10
366.50821334746365
 20
52.32757769841467
 30
0.0
 10
366.6473928745981
 20
52.6258195422742
 30
0.0
 10
366.81496062992125
 20
52.833130875081345
 30
0.0
 10
366.98252838524445
 20
53.040442207888496
 30
0.0
 10
367.1726511549968
 20
53.14960629921259
 30
0.0
 10
367.3661417322835
 20
53.14960629921259
 30
0.0
 10
367.55963230957013
 20
53.14960629921259
 30
0.0
 10
367.74975507932254
 20
53.040442207888496
 30
0.0
 10
367.9173228346457
 20
52.833130875081345
 30
0.0
 10
368.08489058996884
 20
52.6258195422742
 30
0.0
 10
368.2240701171033
 20
52.32757769841467
 30
0.0
 10
368.32081540574666
 20
51.968503937007874
 30
0.0
 10
368.41756069439
 20
51.60943017560107
 30
0.0
 10
368.4685039370079
 20
51.20202424041744
 30
0.0
 10
368.4685039370079
 20
50.78740157480315
 30
0.0
  0
SPLINE
  5
1AD
330
17
100
AcDbEntity
  8
Bed wall face
100
AcDbSpline
 70
0
 71
3
 72
41
 73
37
 74
0
 40
0.0
 40
0.0
 40
0.0
 40
0.0
 40
1.0
 40
1.0
 40
1.0
 40
2.0
 40
2.0
 40
2.0
 40
3.0
 40
3.0
 40
3.0
 40
4.0
 40
4.0
 40
4.0
 40
5.0
 40
5.0
 40
5.0
 40
6.0
 40
6.0
 40
6.0
 40
7.0
 40
7.0
 40
7.0
 40
8.0
 40
8.0
 40
8.0
 40
9.0
 40
9.0
 40
9.0
 40
10.0
 40
10.0
 40
10.0
 40
11.0
 40
11.0
 40
11.0
 40
12.0
 40
12.0
 40
12.0
 40
12.0
 10
368.0748031496063
 20
50.78740157480315
 30
0.0
 10
368.0748031496063
 20
50.48334495335267
 30
0.0
 10
368.0420539222091
 20
50.184580600884665
 30
0.0
 10
367.97986052236695
 20
49.92125984251968
 30
0.0
 10
367.9176671225248
 20
49.6579390841547
 30
0.0
 10
367.82819456936693
 20
49.439228398657704
 30
0.0
 10
367.7204724409449
 20
49.28720008793246
 30
0.0
 10
367.61275031252285
 20
49.135171777207226
 30
0.0
 10
367.49052853196775
 20
49.055118110236215
 30
0.0
 10
367.3661417322835
 20
49.055118110236215
 30
0.0
 10
367.2417549325992
 20
49.055118110236215
 30
0.0
 10
367.1195331520441
 20
49.135171777207226
 30
0.0
 10
367.01181102362204
 20
49.28720008793246
 30
0.0
 10
366.9040888952
 20
49.439228398657704
 30
0.0
 10
366.81461634204214
 20
49.6579390841547
 30
0.0
 10
366.75242294220004
 20
49.92125984251968
 30
0.0
 10
366.6902295423579
 20
50.184580600884665
 30
0.0
 10
366.6574803149606
 20
50.48334495335267
 30
0.0
 10
366.6574803149606
 20
50.78740157480315
 30
0.0
 10
366.6574803149606
 20
51.091458196253626
 30
0.0
 10
366.6902295423579
 20
51.390222548721624
 30
0.0
 10
366.75242294220004
 20
51.653543307086615
 30
0.0
 10
366.81461634204214
 20
51.9168640654516
 30
0.0
 10
366.9040888952
 20
52.13557475094859
 30
0.0
 10
367.01181102362204
 20
52.28760306167383
 30
0.0
 10
367.1195331520441
 20
52.43963137239907
 30
0.0
 10
367.2417549325992
 20
52.519685039370074
 30
0.0
 10
367.3661417322835
 20
52.519685039370074
 30
0.0
 10
367.49052853196775
 20
52.519685039370074
 30
0.0
 10
367.61275031252285
 20
52.43963137239907
 30
0.0
 10
367.7204724409449
 20
52.28760306167383
 30
0.0
 10
367.82819456936693
 20
52.13557475094859
 30
0.0
 10
367.9176671225248
 20
51.9168640654516
 30
0.0
 10
367.97986052236695
 20
51.653543307086615
 30
0.0
 10
368.0420539222091
 20
51.390222548721624
 30
0.0
 10
368.0748031496063
 20
51.091458196253626
 30
0.0
 10
368.0748031496063
 20
50.78740157480315
 30
0.0
  0
SPLINE
  5
1AE
330
17
100
AcDbEntity
  8
Bed wall face
100
AcDbSpline
 70
0
 71
3
 72
8
 73
4
 74
0
 40
0.0
 40
0.0
 40
0.0
 40
0.0
 40
1.0
 40
1.0
 40
1.0
 40
1.0
 10
366.8937007874016
 20
50.39370078740157
 30
0.0
 10
364.6102362204724
 20
47.63779527559055
 30
0.0
 10
361.85433070866145
 20
48.818897637795274
 30
0.0
 10
361.46062992125985
 20
51.574803149606296
 30
0.0
  0
LWPOLYLINE
  5
1AF
330
17
100
AcDbEntity
  8
Bed wall face
100
AcDbPolyline
 90
5
 70
0
 10
361.14566929133855
 20
54.33070866141732
 10
361.7755905511811
 20
54.33070866141732
 10
361.7755905511811
 20
52.204724409448815
 10
361.14566929133855
 20
52.204724409448815
 10
361.14566929133855
 20
54.33070866141732
  0
LWPOLYLINE
  5
1B0
330
17
100
AcDbEntity
  8
Bed wall face
100
AcDbPolyline
 90
5
 70
0
 10
359.09842519685037
 20
54.33070866141732
 10
363.82283464566933
 20
54.33070866141732
 10
362.87795275590554
 20
58.26771653543307
 10
360.04330708661416
 20
58.26771653543307
 10
359.09842519685037
 20
54.33070866141732
  0
LINE
  5
1B1
330
17
100
AcDbEntity
  8
Bed wall face
100
AcDbLine
 10
359.88582677165357
 20
54.40944881889764
 30
0.0
 11
360.51574803149606
 21
58.188976377952756
 31
0.0
  0
LINE
  5
1B2
330
17
100
AcDbEntity
  8
Bed wall face
100
AcDbLine
 10
360.6732283464567
 20
54.40944881889764
 30
0.0
 11
360.98818897637796
 21
58.188976377952756
 31
0.0
  0
LINE
  5
1B3
330
17
100
AcDbEntity
  8
Bed wall face
100
AcDbLine
 10
361.46062992125985
 20
54.40944881889764
 30
0.0
 11
361.46062992125985
 21
58.188976377952756
 31
0.0
  0
LINE
  5
1B4
330
17
100
AcDbEntity
  8
Bed wall face
100
AcDbLine
 10
362.248031496063
 20
54.40944881889764
 30
0.0
 11
361.93307086614175
 21
58.188976377952756
 31
0.0
  0
LINE
  5
1B5
330
17
100
AcDbEntity
  8
Bed wall face
100
AcDbLine
 10
363.03543307086613
 20
54.40944881889764
 30
0.0
 11
362.40551181102364
 21
58.188976377952756
 31
0.0
  0
SPLINE
  5
1B6
330
17
100
AcDbEntity
  8
Bed wall face
100
AcDbSpline
 70
0
 71
3
 72
8
 73
4
 74
0
 40
0.0
 40
0.0
 40
0.0
 40
0.0
 40
1.0
 40
1.0
 40
1.0
 40
1.0
 10
367.8385826771654
 20
50.39370078740157
 30
0.0
 10
370.12204724409446
 20
47.63779527559055
 30
0.0
 10
372.87795275590554
 20
48.818897637795274
 30
0.0
 10
373.2716535433071
 20
51.574803149606296
 30
0.0
  0
LWPOLYLINE
  5
1B7
330
17
100
AcDbEntity
  8
Bed wall face
100
AcDbPolyline
 90
5
 70
0
 10
372.95669291338584
 20
54.33070866141732
 10
373.5866141732283
 20
54.33070866141732
 10
373.5866141732283
 20
52.204724409448815
 10
372.95669291338584
 20
52.204724409448815
 10
372.95669291338584
 20
54.33070866141732
  0
LWPOLYLINE
  5
1B8
330
17
100
AcDbEntity
  8
Bed wall face
100
AcDbPolyline
 90
5
 70
0
 10
370.90944881889766
 20
54.33070866141732
 10
375.6338582677165
 20
54.33070866141732
 10
374.6889763779527
 20
58.26771653543307
 10
371.85433070866145
 20
58.26771653543307
 10
370.90944881889766
 20
54.33070866141732
  0
LINE
  5
1B9
330
17
100
AcDbEntity
  8
Bed wall face
100
AcDbLine
 10
371.6968503937008
 20
54.40944881889764
 30
0.0
 11
372.3267716535433
 21
58.188976377952756
 31
0.0
  0
LINE
  5
1BA
330
17
100
AcDbEntity
  8
Bed wall face
100
AcDbLine
 10
372.48425196850394
 20
54.40944881889764
 30
0.0
 11
372.7992125984252
 21
58.188976377952756
 31
0.0
  0
LINE
  5
1BB
330
17
100
AcDbEntity
  8
Bed wall face
100
AcDbLine
 10
373.2716535433071
 20
54.40944881889764
 30
0.0
 11
373.2716535433071
 21
58.188976377952756
 31
0.0
  0
LINE
  5
1BC
330
17
100
AcDbEntity
  8
Bed wall face
100
AcDbLine
 10
374.0590551181102
 20
54.40944881889764
 30
0.0
 11
373.744094488189
 21
58.188976377952756
 31
0.0
  0
LINE
  5
1BD
330
17
100
AcDbEntity
  8
Bed wall face
100
AcDbLine
 10
374.8464566929134
 20
54.40944881889764
 30
0.0
 11
374.2165354330709
 21
58.188976377952756
 31
0.0
  0
LINE
  5
1BE
330
17
100
AcDbEntity
  8
Bed wall face
100
AcDbLine
 10
227.46456692913387
 20
0.0
 30
0.0
 11
425.25984251968504
 21
0.0
 31
0.0
  0
TEXT
  5
1BF
330
17
100
AcDbEntity
  8
LABELS
100
AcDbText
 10
227.46456692913387
 20
111.37795275590551
 30
0.0
 40
3.955905511811024
  1
BED WALL FACE  (1:1, inches)
 11
227.46456692913387
 21
111.37795275590551
 31
0.0
100
AcDbText
  0
HATCH
  5
1C2
330
17
100
AcDbEntity
  8
Bed wall plan hatch
 62
7
100
AcDbHatch
 10
0.0
 20
0.0
 30
0.0
210
0.0
220
0.0
230
1.0
  2
ANSI31
 70
0
 71
0
 91
1
 92
3
 72
0
 73
1
 93
5
 10
454.92913385826773
 20
99.60629921259843
 10
659.0236220472441
 20
99.60629921259843
 10
659.0236220472441
 20
90.55118110236221
 10
454.92913385826773
 20
90.55118110236221
 10
454.92913385826773
 20
99.60629921259843
 97
0
 75
1
 76
1
 52
0.0
 41
0.15748031496062992
 77
0
 78
1
 53
45.0
 43
0.0
 44
0.0
 45
-0.0139194248
 46
0.0139194248
 79
0
 98
0
  0
HATCH
  5
1C3
330
17
100
AcDbEntity
  8
Bed wall plan hatch
 62
7
100
AcDbHatch
 10
0.0
 20
0.0
 30
0.0
210
0.0
220
0.0
230
1.0
  2
ANSI31
 70
0
 71
0
 91
1
 92
3
 72
0
 73
1
 93
5
 10
454.92913385826773
 20
90.55118110236221
 10
463.98425196850394
 20
90.55118110236221
 10
463.98425196850394
 20
0.0
 10
454.92913385826773
 20
0.0
 10
454.92913385826773
 20
90.55118110236221
 97
0
 75
1
 76
1
 52
0.0
 41
0.15748031496062992
 77
0
 78
1
 53
45.0
 43
0.0
 44
0.0
 45
-0.0139194248
 46
0.0139194248
 79
0
 98
0
  0
HATCH
  5
1C4
330
17
100
AcDbEntity
  8
Bed wall plan hatch
 62
7
100
AcDbHatch
 10
0.0
 20
0.0
 30
0.0
210
0.0
220
0.0
230
1.0
  2
ANSI31
 70
0
 71
0
 91
1
 92
3
 72
0
 73
1
 93
5
 10
649.9685039370079
 20
90.55118110236221
 10
659.0236220472441
 20
90.55118110236221
 10
659.0236220472441
 20
0.0
 10
649.9685039370079
 20
0.0
 10
649.9685039370079
 20
90.55118110236221
 97
0
 75
1
 76
1
 52
0.0
 41
0.15748031496062992
 77
0
 78
1
 53
45.0
 43
0.0
 44
0.0
 45
-0.0139194248
 46
0.0139194248
 79
0
 98
0
  0
LWPOLYLINE
  5
1C5
330
17
100
AcDbEntity
  8
Bed wall plan
100
AcDbPolyline
 90
3
 70
0
 10
454.92913385826773
 20
90.55118110236221
 10
463.98425196850394
 20
90.55118110236221
 10
463.98425196850394
 20
63.54330708661418
  0
LWPOLYLINE
  5
1C6
330
17
100
AcDbEntity
  8
Bed wall plan
100
AcDbPolyline
 90
2
 70
0
 10
463.98425196850394
 20
29.52755905511811
 10
463.98425196850394
 20
0.0
  0
LWPOLYLINE
  5
1C7
330
17
100
AcDbEntity
  8
Bed wall plan
100
AcDbPolyline
 90
2
 70
0
 10
649.9685039370079
 20
0.0
 10
649.9685039370079
 20
50.55118110236221
  0
LWPOLYLINE
  5
1C8
330
17
100
AcDbEntity
  8
Bed wall plan
100
AcDbPolyline
 90
2
 70
0
 10
649.9685039370079
 20
90.55118110236221
 10
659.0236220472441
 20
90.55118110236221
  0
LINE
  5
1C9
330
17
100
AcDbEntity
  8
Bed wall plan
100
AcDbLine
 10
463.98425196850394
 20
90.55118110236221
 30
0.0
 11
649.9685039370079
 21
90.55118110236221
 31
0.0
  0
LWPOLYLINE
  5
1CA
330
17
100
AcDbEntity
  8
Bed wall plan
100
AcDbPolyline
 90
5
 70
0
 10
649.9685039370079
 20
90.55118110236221
 10
651.740157480315
 20
90.55118110236221
 10
651.740157480315
 20
88.54330708661418
 10
649.9685039370079
 20
88.54330708661418
 10
649.9685039370079
 20
90.55118110236221
  0
LWPOLYLINE
  5
1CB
330
17
100
AcDbEntity
  8
Bed wall plan
100
AcDbPolyline
 90
5
 70
0
 10
649.9685039370079
 20
52.55905511811024
 10
651.740157480315
 20
52.55905511811024
 10
651.740157480315
 20
50.55118110236221
 10
649.9685039370079
 20
50.55118110236221
 10
649.9685039370079
 20
52.55905511811024
  0
HATCH
  5
1CC
330
17
100
AcDbEntity
  8
Bed wall plan hatch
 62
7
100
AcDbHatch
 10
0.0
 20
0.0
 30
0.0
210
0.0
220
0.0
230
1.0
  2
ANSI31
 70
0
 71
0
 91
1
 92
3
 72
0
 73
1
 93
24
 10
463.98425196850394
 20
90.55118110236221
 10
463.98425196850394
 20
88.54330708661418
 10
488.0
 20
88.54330708661418
 10
488.5216535433071
 20
88.49370078740156
 10
489.03897637795274
 20
88.34606299212598
 10
489.54881889763783
 20
88.1007874015748
 10
490.0468503937008
 20
87.75984251968504
 10
490.52913385826776
 20
87.3259842519685
 10
490.99212598425197
 20
86.8027559055118
 10
491.432283464567
 20
86.19370078740158
 10
491.8464566929134
 20
85.50354330708662
 10
492.2314960629921
 20
84.73818897637794
 10
492.58425196850396
 20
83.9023622047244
 10
492.90196850393704
 20
83.00314960629922
 10
493.18267716535433
 20
82.04724409448819
 10
493.4236220472441
 20
81.04173228346457
 10
493.6232283464567
 20
79.99488188976378
 10
493.78031496062994
 20
78.91377952755906
 10
493.89330708661424
 20
77.80708661417323
 10
493.9614173228347
 20
76.68346456692913
 10
493.98425196850394
 20
75.55118110236221
 10
494.9685039370079
 20
75.55118110236221
 10
494.9685039370079
 20
90.55118110236221
 10
463.98425196850394
 20
90.55118110236221
 97
0
 75
1
 76
1
 52
0.0
 41
0.15748031496062992
 77
0
 78
1
 53
45.0
 43
0.0
 44
0.0
 45
-0.0139194248
 46
0.0139194248
 79
0
 98
0
  0
LWPOLYLINE
  5
1CD
330
17
100
AcDbEntity
  8
Bed wall plan
100
AcDbPolyline
 90
24
 70
0
 10
463.98425196850394
 20
90.55118110236221
 10
463.98425196850394
 20
88.54330708661418
 10
488.0
 20
88.54330708661418
 10
488.5216535433071
 20
88.49370078740158
 10
489.03897637795274
 20
88.346062992126
 10
489.54881889763783
 20
88.1007874015748
 10
490.04685039370077
 20
87.75984251968504
 10
490.5291338582677
 20
87.3259842519685
 10
490.99212598425197
 20
86.80275590551182
 10
491.4322834645669
 20
86.19370078740158
 10
491.8464566929134
 20
85.50354330708662
 10
492.2314960629921
 20
84.73818897637796
 10
492.58425196850396
 20
83.90236220472441
 10
492.901968503937
 20
83.00314960629922
 10
493.18267716535433
 20
82.04724409448819
 10
493.4236220472441
 20
81.04173228346457
 10
493.6232283464567
 20
79.99488188976378
 10
493.78031496062994
 20
78.91377952755906
 10
493.8933070866142
 20
77.80708661417323
 10
493.9614173228347
 20
76.68346456692913
 10
493.98425196850394
 20
75.55118110236221
 10
494.9685039370079
 20
75.55118110236221
 10
494.9685039370079
 20
90.55118110236221
 10
463.98425196850394
 20
90.55118110236221
  0
HATCH
  5
1CE
330
17
100
AcDbEntity
  8
Bed wall plan hatch
 62
7
100
AcDbHatch
 10
0.0
 20
0.0
 30
0.0
210
0.0
220
0.0
230
1.0
  2
ANSI31
 70
0
 71
0
 91
1
 92
3
 72
0
 73
1
 93
24
 10
606.9763779527559
 20
90.55118110236221
 10
606.9763779527559
 20
75.55118110236221
 10
607.9606299212599
 20
75.55118110236221
 10
607.9834645669291
 20
76.68346456692913
 10
608.0515748031496
 20
77.80708661417323
 10
608.1645669291339
 20
78.91377952755906
 10
608.3216535433071
 20
79.99488188976378
 10
608.5212598425197
 20
81.04173228346457
 10
608.7622047244095
 20
82.04724409448819
 10
609.0429133858268
 20
83.00314960629922
 10
609.3606299212598
 20
83.9023622047244
 10
609.7133858267717
 20
84.73818897637794
 10
610.0984251968504
 20
85.50354330708662
 10
610.5125984251969
 20
86.19370078740158
 10
610.9527559055118
 20
86.8027559055118
 10
611.415748031496
 20
87.3259842519685
 10
611.898031496063
 20
87.75984251968504
 10
612.396062992126
 20
88.1007874015748
 10
612.905905511811
 20
88.34606299212598
 10
613.4232283464568
 20
88.49370078740156
 10
613.9448818897638
 20
88.54330708661418
 10
649.9685039370079
 20
88.54330708661418
 10
649.9685039370079
 20
90.55118110236221
 10
606.9763779527559
 20
90.55118110236221
 97
0
 75
1
 76
1
 52
0.0
 41
0.15748031496062992
 77
0
 78
1
 53
45.0
 43
0.0
 44
0.0
 45
-0.0139194248
 46
0.0139194248
 79
0
 98
0
  0
LWPOLYLINE
  5
1CF
330
17
100
AcDbEntity
  8
Bed wall plan
100
AcDbPolyline
 90
24
 70
0
 10
606.9763779527559
 20
90.55118110236221
 10
606.9763779527559
 20
75.55118110236221
 10
607.9606299212599
 20
75.55118110236221
 10
607.9834645669291
 20
76.68346456692913
 10
608.0515748031496
 20
77.80708661417323
 10
608.1645669291338
 20
78.91377952755906
 10
608.3216535433071
 20
79.99488188976378
 10
608.5212598425196
 20
81.04173228346457
 10
608.7622047244095
 20
82.04724409448819
 10
609.0429133858268
 20
83.00314960629922
 10
609.3606299212598
 20
83.90236220472441
 10
609.7133858267716
 20
84.73818897637796
 10
610.0984251968504
 20
85.50354330708662
 10
610.5125984251969
 20
86.19370078740158
 10
610.9527559055118
 20
86.80275590551182
 10
611.415748031496
 20
87.3259842519685
 10
611.898031496063
 20
87.75984251968504
 10
612.396062992126
 20
88.1007874015748
 10
612.905905511811
 20
88.346062992126
 10
613.4232283464567
 20
88.49370078740158
 10
613.9448818897638
 20
88.54330708661418
 10
649.9685039370079
 20
88.54330708661418
 10
649.9685039370079
 20
90.55118110236221
 10
606.9763779527559
 20
90.55118110236221
  0
LINE
  5
1D0
330
17
100
AcDbEntity
  8
Bed wall plan
  6
DASHED
100
AcDbLine
 10
494.9685039370079
 20
75.55118110236221
 30
0.0
 11
606.9763779527559
 21
75.55118110236221
 31
0.0
  0
LWPOLYLINE
  5
1D1
330
17
100
AcDbEntity
  8
Bed wall plan
100
AcDbPolyline
 90
5
 70
0
 10
494.9685039370079
 20
90.55118110236221
 10
606.9763779527559
 20
90.55118110236221
 10
606.9763779527559
 20
89.76377952755905
 10
494.9685039370079
 20
89.76377952755905
 10
494.9685039370079
 20
90.55118110236221
  0
LWPOLYLINE
  5
1D2
330
17
100
AcDbEntity
  8
Bed wall plan
100
AcDbPolyline
 90
5
 70
0
 10
494.18110236220474
 20
89.76377952755905
 10
494.9685039370079
 20
89.76377952755905
 10
494.9685039370079
 20
75.55118110236221
 10
494.18110236220474
 20
75.55118110236221
 10
494.18110236220474
 20
89.76377952755905
  0
LWPOLYLINE
  5
1D3
330
17
100
AcDbEntity
  8
Bed wall plan
100
AcDbPolyline
 90
5
 70
0
 10
606.9763779527559
 20
89.76377952755905
 10
607.7637795275591
 20
89.76377952755905
 10
607.7637795275591
 20
75.55118110236221
 10
606.9763779527559
 20
75.55118110236221
 10
606.9763779527559
 20
89.76377952755905
  0
LWPOLYLINE
  5
1D4
330
17
100
AcDbEntity
  8
Bed wall plan
  6
DASHED
100
AcDbPolyline
 90
5
 70
0
 10
473.90551181102364
 20
88.54330708661418
 10
478.0787401574803
 20
88.54330708661418
 10
478.0787401574803
 20
84.68503937007874
 10
473.90551181102364
 20
84.68503937007874
 10
473.90551181102364
 20
88.54330708661418
  0
LWPOLYLINE
  5
1D5
330
17
100
AcDbEntity
  8
Bed wall plan
  6
DASHED
100
AcDbPolyline
 90
5
 70
0
 10
623.8661417322835
 20
88.54330708661418
 10
628.0393700787401
 20
88.54330708661418
 10
628.0393700787401
 20
84.68503937007874
 10
623.8661417322835
 20
84.68503937007874
 10
623.8661417322835
 20
88.54330708661418
  0
LWPOLYLINE
  5
1D6
330
17
100
AcDbEntity
  8
Bed wall plan
100
AcDbPolyline
 90
5
 70
0
 10
495.9724409448819
 20
89.76377952755905
 10
511.95669291338584
 20
89.76377952755905
 10
511.95669291338584
 20
75.74803149606299
 10
495.9724409448819
 20
75.74803149606299
 10
495.9724409448819
 20
89.76377952755905
  0
LWPOLYLINE
  5
1D7
330
17
100
AcDbEntity
  8
Bed wall plan
100
AcDbPolyline
 90
5
 70
0
 10
497.744094488189
 20
87.99212598425197
 10
510.18503937007875
 20
87.99212598425197
 10
510.18503937007875
 20
77.51968503937007
 10
497.744094488189
 20
77.51968503937007
 10
497.744094488189
 20
87.99212598425197
  0
SPLINE
  5
1D8
330
17
100
AcDbEntity
  8
Bed wall plan
100
AcDbSpline
 70
0
 71
3
 72
8
 73
4
 74
0
 40
0.0
 40
0.0
 40
0.0
 40
0.0
 40
1.0
 40
1.0
 40
1.0
 40
1.0
 10
497.744094488189
 20
87.99212598425197
 30
0.0
 10
501.48425196850394
 20
86.0236220472441
 30
0.0
 10
505.65748031496065
 20
83.03149606299213
 30
0.0
 10
510.18503937007875
 20
79.88188976377953
 30
0.0
  0
SPLINE
  5
1D9
330
17
100
AcDbEntity
  8
Bed wall plan
100
AcDbSpline
 70
0
 71
3
 72
8
 73
4
 74
0
 40
0.0
 40
0.0
 40
0.0
 40
0.0
 40
1.0
 40
1.0
 40
1.0
 40
1.0
 10
497.744094488189
 20
84.92125984251969
 30
0.0
 10
501.48425196850394
 20
82.95275590551181
 30
0.0
 10
505.65748031496065
 20
80.98425196850394
 30
0.0
 10
510.18503937007875
 20
78.34645669291339
 30
0.0
  0
LWPOLYLINE
  5
1DA
330
17
100
AcDbEntity
  8
Bed wall plan
100
AcDbPolyline
 90
5
 70
0
 10
589.988188976378
 20
89.76377952755905
 10
605.9724409448819
 20
89.76377952755905
 10
605.9724409448819
 20
75.74803149606299
 10
589.988188976378
 20
75.74803149606299
 10
589.988188976378
 20
89.76377952755905
  0
LWPOLYLINE
  5
1DB
330
17
100
AcDbEntity
  8
Bed wall plan
100
AcDbPolyline
 90
5
 70
0
 10
591.759842519685
 20
87.99212598425197
 10
604.2007874015749
 20
87.99212598425197
 10
604.2007874015749
 20
77.51968503937007
 10
591.759842519685
 20
77.51968503937007
 10
591.759842519685
 20
87.99212598425197
  0
SPLINE
  5
1DC
330
17
100
AcDbEntity
  8
Bed wall plan
100
AcDbSpline
 70
0
 71
3
 72
8
 73
4
 74
0
 40
0.0
 40
0.0
 40
0.0
 40
0.0
 40
1.0
 40
1.0
 40
1.0
 40
1.0
 10
591.759842519685
 20
87.99212598425197
 30
0.0
 10
595.5
 20
86.0236220472441
 30
0.0
 10
599.6732283464567
 20
83.03149606299213
 30
0.0
 10
604.2007874015749
 20
79.88188976377953
 30
0.0
  0
SPLINE
  5
1DD
330
17
100
AcDbEntity
  8
Bed wall plan
100
AcDbSpline
 70
0
 71
3
 72
8
 73
4
 74
0
 40
0.0
 40
0.0
 40
0.0
 40
0.0
 40
1.0
 40
1.0
 40
1.0
 40
1.0
 10
591.759842519685
 20
84.92125984251969
 30
0.0
 10
595.5
 20
82.95275590551181
 30
0.0
 10
599.6732283464567
 20
80.98425196850394
 30
0.0
 10
604.2007874015749
 20
78.34645669291339
 30
0.0
  0
LWPOLYLINE
  5
1DE
330
17
100
AcDbEntity
  8
Bed wall plan
100
AcDbPolyline
 90
5
 70
0
 10
512.9606299212599
 20
88.77952755905513
 10
588.9842519685039
 20
88.77952755905513
 10
588.9842519685039
 20
85.78740157480316
 10
512.9606299212599
 20
85.78740157480316
 10
512.9606299212599
 20
88.77952755905513
  0
LWPOLYLINE
  5
1DF
330
17
100
AcDbEntity
  8
Bed wall plan
100
AcDbPolyline
 90
5
 70
0
 10
512.9606299212599
 20
85.78740157480316
 10
588.9842519685039
 20
85.78740157480316
 10
588.9842519685039
 20
5.787401574803155
 10
512.9606299212599
 20
5.787401574803155
 10
512.9606299212599
 20
85.78740157480316
  0
LWPOLYLINE
  5
1E0
330
17
100
AcDbEntity
  8
Bed wall plan
100
AcDbPolyline
 90
5
 70
0
 10
514.9685039370079
 20
85.78740157480316
 10
586.9763779527559
 20
85.78740157480316
 10
586.9763779527559
 20
7.795275590551185
 10
514.9685039370079
 20
7.795275590551185
 10
514.9685039370079
 20
85.78740157480316
  0
LWPOLYLINE
  5
1E1
330
17
100
AcDbEntity
  8
Bed wall plan
100
AcDbPolyline
 90
5
 70
0
 10
517.724409448819
 20
84.60629921259843
 10
549.3976377952756
 20
84.60629921259843
 10
549.3976377952756
 20
72.79527559055119
 10
517.724409448819
 20
72.79527559055119
 10
517.724409448819
 20
84.60629921259843
  0
LWPOLYLINE
  5
1E2
330
17
100
AcDbEntity
  8
Bed wall plan
100
AcDbPolyline
 90
5
 70
0
 10
552.5472440944882
 20
84.60629921259843
 10
584.2204724409448
 20
84.60629921259843
 10
584.2204724409448
 20
72.79527559055119
 10
552.5472440944882
 20
72.79527559055119
 10
552.5472440944882
 20
84.60629921259843
  0
LINE
  5
1E3
330
17
100
AcDbEntity
  8
Bed wall plan
100
AcDbLine
 10
514.9685039370079
 20
61.37795275590551
 30
0.0
 11
586.9763779527559
 21
61.37795275590551
 31
0.0
  0
SPLINE
  5
1E4
330
17
100
AcDbEntity
  8
Bed wall plan
  6
DASHED
100
AcDbSpline
 70
0
 71
3
 72
14
 73
10
 74
0
 40
0.0
 40
0.0
 40
0.0
 40
0.0
 40
1.0
 40
1.0
 40
1.0
 40
2.0
 40
2.0
 40
2.0
 40
3.0
 40
3.0
 40
3.0
 40
3.0
 10
649.9685039370079
 20
52.55905511811024
 30
0.0
 10
644.0423422061791
 20
52.55907078213757
 30
0.0
 10
638.2069421613894
 20
54.023034639499656
 30
0.0
 10
632.9825750629867
 20
56.82042293598469
 30
0.0
 10
627.7582079645839
 20
59.61781123246972
 30
0.0
 10
623.3048937958713
 20
63.66294123942097
 30
0.0
 10
620.0196801212826
 20
68.59515818238688
 30
0.0
 10
616.7344664466939
 20
73.5273751253528
 30
0.0
 10
614.7179778638988
 20
79.19560744714872
 30
0.0
 10
614.15
 20
85.09448818897638
 30
0.0
  0
LWPOLYLINE
  5
1E5
330
17
100
AcDbEntity
  8
Bed wall plan
100
AcDbPolyline
 90
5
 70
0
 10
613.9842519685039
 20
88.54330708661418
 10
649.9685039370079
 20
88.54330708661418
 10
649.9685039370079
 20
86.7716535433071
 10
613.9842519685039
 20
86.7716535433071
 10
613.9842519685039
 20
88.54330708661418
  0
LWPOLYLINE
  5
1E6
330
17
100
AcDbEntity
  8
Bed wall plan
100
AcDbPolyline
 90
5
 70
0
 10
616.1102362204724
 20
89.29133858267717
 10
616.8976377952756
 20
89.29133858267717
 10
616.8976377952756
 20
88.54330708661418
 10
616.1102362204724
 20
88.54330708661418
 10
616.1102362204724
 20
89.29133858267717
  0
CIRCLE
  5
1E7
330
17
100
AcDbEntity
  8
Bed wall plan
100
AcDbCircle
 10
616.503937007874
 20
90.11811023622047
 30
0.0
 40
0.984251968503937
  0
LWPOLYLINE
  5
1E8
330
17
100
AcDbEntity
  8
Bed wall plan
100
AcDbPolyline
 90
5
 70
0
 10
616.1102362204724
 20
86.7716535433071
 10
616.8976377952756
 20
86.7716535433071
 10
616.8976377952756
 20
86.0236220472441
 10
616.1102362204724
 20
86.0236220472441
 10
616.1102362204724
 20
86.7716535433071
  0
CIRCLE
  5
1E9
330
17
100
AcDbEntity
  8
Bed wall plan
100
AcDbCircle
 10
616.503937007874
 20
85.19685039370079
 30
0.0
 40
0.984251968503937
  0
CIRCLE
  5
1EA
330
17
100
AcDbEntity
  8
Bed wall plan
100
AcDbCircle
 10
622.4094488188977
 20
89.33070866141732
 30
0.0
 40
0.7874015748031495
  0
CIRCLE
  5
1EB
330
17
100
AcDbEntity
  8
Bed wall plan
100
AcDbCircle
 10
622.4094488188977
 20
89.33070866141732
 30
0.0
 40
0.2755905511811024
  0
CIRCLE
  5
1EC
330
17
100
AcDbEntity
  8
Bed wall plan
100
AcDbCircle
 10
649.9685039370079
 20
88.54330708661418
 30
0.0
 40
0.2755905511811024
  0
TEXT
  5
1ED
330
17
100
AcDbEntity
  8
LABELS
100
AcDbText
 10
454.92913385826773
 20
101.96850393700787
 30
0.0
 40
4.081889763779528
  1
BED WALL PLAN  (1:1, inches)
 11
454.92913385826773
 21
101.96850393700787
 31
0.0
100
AcDbText
  0
HATCH
  5
1F0
330
17
100
AcDbEntity
  8
Bed wall section A-A hatch
 62
7
100
AcDbHatch
 10
0.0
 20
0.0
 30
0.0
210
0.0
220
0.0
230
1.0
  2
ANSI31
 70
0
 71
0
 91
1
 92
3
 72
0
 73
1
 93
5
 10
689.6377952755906
 20
109.01574803149606
 10
698.6929133858268
 20
109.01574803149606
 10
698.6929133858268
 20
0.0
 10
689.6377952755906
 20
0.0
 10
689.6377952755906
 20
109.01574803149606
 97
0
 75
1
 76
1
 52
0.0
 41
0.15748031496062992
 77
0
 78
1
 53
45.0
 43
0.0
 44
0.0
 45
-0.0139194248
 46
0.0139194248
 79
0
 98
0
  0
LINE
  5
1F1
330
17
100
AcDbEntity
  8
Bed wall section A-A
100
AcDbLine
 10
698.6929133858268
 20
109.01574803149606
 30
0.0
 11
698.6929133858268
 21
0.0
 31
0.0
  0
HATCH
  5
1F2
330
17
100
AcDbEntity
  8
Bed wall section A-A hatch
 62
7
100
AcDbHatch
 10
0.0
 20
0.0
 30
0.0
210
0.0
220
0.0
230
1.0
  2
ANSI31
 70
0
 71
0
 91
1
 92
3
 72
0
 73
1
 93
25
 10
698.6929133858268
 20
77.99212598425197
 10
713.6929133858268
 20
77.99212598425197
 10
713.6929133858268
 20
78.97637795275591
 10
713.6929133858268
 20
78.97637795275591
 10
712.56062992126
 20
78.99921259842519
 10
711.4370078740159
 20
79.06732283464567
 10
710.3303149606301
 20
79.18031496062991
 10
709.2492125984253
 20
79.33740157480315
 10
708.2023622047245
 20
79.53700787401574
 10
707.1968503937009
 20
79.77795275590552
 10
706.24094488189
 20
80.05866141732284
 10
705.3417322834647
 20
80.3763779527559
 10
704.5059055118112
 20
80.72913385826772
 10
703.7405511811024
 20
81.11417322834646
 10
703.0503937007875
 20
81.52834645669292
 10
702.4413385826772
 20
81.96850393700787
 10
701.9181102362205
 20
82.43149606299214
 10
701.484251968504
 20
82.91377952755906
 10
701.1433070866143
 20
83.41181102362204
 10
700.898031496063
 20
83.92165354330709
 10
700.7503937007874
 20
84.43897637795276
 10
700.7007874015749
 20
84.96062992125984
 10
700.7007874015749
 20
109.01574803149606
 10
698.6929133858268
 20
109.01574803149606
 10
698.6929133858268
 20
77.99212598425197
 97
0
 75
1
 76
1
 52
0.0
 41
0.15748031496062992
 77
0
 78
1
 53
45.0
 43
0.0
 44
0.0
 45
-0.0139194248
 46
0.0139194248
 79
0
 98
0
  0
LWPOLYLINE
  5
1F3
330
17
100
AcDbEntity
  8
Bed wall section A-A
100
AcDbPolyline
 90
25
 70
0
 10
698.6929133858268
 20
77.99212598425197
 10
713.6929133858268
 20
77.99212598425197
 10
713.6929133858268
 20
78.97637795275591
 10
713.6929133858268
 20
78.97637795275591
 10
712.5606299212599
 20
78.9992125984252
 10
711.4370078740158
 20
79.06732283464567
 10
710.33031496063
 20
79.18031496062991
 10
709.2492125984253
 20
79.33740157480315
 10
708.2023622047245
 20
79.53700787401574
 10
707.1968503937009
 20
79.77795275590552
 10
706.2409448818898
 20
80.05866141732284
 10
705.3417322834646
 20
80.3763779527559
 10
704.5059055118111
 20
80.72913385826772
 10
703.7405511811024
 20
81.11417322834646
 10
703.0503937007875
 20
81.52834645669292
 10
702.4413385826772
 20
81.96850393700787
 10
701.9181102362205
 20
82.43149606299212
 10
701.484251968504
 20
82.91377952755906
 10
701.1433070866142
 20
83.41181102362205
 10
700.898031496063
 20
83.92165354330709
 10
700.7503937007875
 20
84.43897637795276
 10
700.7007874015749
 20
84.96062992125984
 10
700.7007874015749
 20
109.01574803149606
 10
698.6929133858268
 20
109.01574803149606
 10
698.6929133858268
 20
77.99212598425197
  0
LWPOLYLINE
  5
1F4
330
17
100
AcDbEntity
  8
Bed wall section A-A
100
AcDbPolyline
 90
5
 70
0
 10
698.6929133858268
 20
78.77952755905511
 10
713.6929133858268
 20
78.77952755905511
 10
713.6929133858268
 20
77.99212598425197
 10
698.6929133858268
 20
77.99212598425197
 10
698.6929133858268
 20
78.77952755905511
  0
LWPOLYLINE
  5
1F5
330
17
100
AcDbEntity
  8
Bed wall section A-A
100
AcDbPolyline
 90
5
 70
0
 10
698.6929133858268
 20
77.99212598425197
 10
699.48031496063
 20
77.99212598425197
 10
699.48031496063
 20
4.015748031496059
 10
698.6929133858268
 20
4.015748031496059
 10
698.6929133858268
 20
77.99212598425197
  0
LWPOLYLINE
  5
1F6
330
17
100
AcDbEntity
  8
Bed wall section A-A
100
AcDbPolyline
 90
5
 70
0
 10
698.6929133858268
 20
4.015748031496059
 10
699.9527559055119
 20
4.015748031496059
 10
699.9527559055119
 20
0.0
 10
698.6929133858268
 20
0.0
 10
698.6929133858268
 20
4.015748031496059
  0
LWPOLYLINE
  5
1F7
330
17
100
AcDbEntity
  8
Bed wall section A-A
  6
DASHED
100
AcDbPolyline
 90
5
 70
0
 10
699.48031496063
 20
24.01574803149606
 10
713.4960629921261
 20
24.01574803149606
 10
713.4960629921261
 20
22.755905511811022
 10
699.48031496063
 20
22.755905511811022
 10
699.48031496063
 20
24.01574803149606
  0
LWPOLYLINE
  5
1F8
330
17
100
AcDbEntity
  8
Bed wall section A-A
  6
DASHED
100
AcDbPolyline
 90
5
 70
0
 10
699.8740157480315
 20
22.755905511811022
 10
713.1023622047245
 20
22.755905511811022
 10
713.1023622047245
 20
18.110236220472444
 10
699.8740157480315
 20
18.110236220472444
 10
699.8740157480315
 20
22.755905511811022
  0
LWPOLYLINE
  5
1F9
330
17
100
AcDbEntity
  8
Bed wall section A-A
  6
DASHED
100
AcDbPolyline
 90
2
 70
0
 10
700.0314960629922
 20
18.110236220472444
 10
699.3228346456693
 20
0.0
  0
LWPOLYLINE
  5
1FA
330
17
100
AcDbEntity
  8
Bed wall section A-A
  6
DASHED
100
AcDbPolyline
 90
2
 70
0
 10
712.9448818897638
 20
18.110236220472444
 10
713.6535433070867
 20
0.0
  0
LINE
  5
1FB
330
17
100
AcDbEntity
  8
Bed wall section A-A
  6
DASHED
100
AcDbLine
 10
713.6929133858268
 20
77.99212598425197
 30
0.0
 11
713.6929133858268
 21
0.0
 31
0.0
  0
POLYLINE
  5
1FC
330
17
100
AcDbEntity
  8
Bed wall section A-A
  6
DASHED
100
AcDb2dPolyline
 66
1
 10
0.0
 20
0.0
 30
0.0
 70
0
  0
VERTEX
  5
1FD
330
1FC
100
AcDbEntity
  8
Bed wall section A-A
  6
DASHED
100
AcDbVertex
100
AcDb2dVertex
 10
701.3307086614174
 20
101.49606299212599
 30
0.0
 70
0
  0
VERTEX
  5
1FE
330
1FC
100
AcDbEntity
  8
Bed wall section A-A
  6
DASHED
100
AcDbVertex
100
AcDb2dVertex
 10
704.4015748031496
 20
101.49606299212599
 30
0.0
 70
0
  0
SEQEND
  5
1FF
330
1FC
100
AcDbEntity
  8
Bed wall section A-A
  0
SPLINE
  5
200
330
17
100
AcDbEntity
  8
Bed wall section A-A
  6
DASHED
100
AcDbSpline
 70
0
 71
3
 72
14
 73
10
 74
0
 40
0.0
 40
0.0
 40
0.0
 40
0.0
 40
1.0
 40
1.0
 40
1.0
 40
2.0
 40
2.0
 40
2.0
 40
3.0
 40
3.0
 40
3.0
 40
3.0
 10
704.4015748031496
 20
101.49606299212599
 30
0.0
 10
704.4706785807521
 20
101.49606299212599
 30
0.0
 10
704.5385795699493
 20
101.4778689769053
 30
0.0
 10
704.5984251968505
 20
101.44331708810411
 30
0.0
 10
704.6582708237516
 20
101.40876519930292
 30
0.0
 10
704.7079777977282
 20
101.35905822532632
 30
0.0
 10
704.7425296865293
 20
101.2992125984252
 30
0.0
 10
704.7770815753306
 20
101.23936697152406
 30
0.0
 10
704.7952755905512
 20
101.1714659823268
 30
0.0
 10
704.7952755905512
 20
101.1023622047244
 30
0.0
  0
POLYLINE
  5
201
330
17
100
AcDbEntity
  8
Bed wall section A-A
  6
DASHED
100
AcDb2dPolyline
 66
1
 10
0.0
 20
0.0
 30
0.0
 70
0
  0
VERTEX
  5
202
330
201
100
AcDbEntity
  8
Bed wall section A-A
  6
DASHED
100
AcDbVertex
100
AcDb2dVertex
 10
704.7952755905512
 20
101.1023622047244
 30
0.0
 70
0
  0
VERTEX
  5
203
330
201
100
AcDbEntity
  8
Bed wall section A-A
  6
DASHED
100
AcDbVertex
100
AcDb2dVertex
 10
704.7952755905512
 20
93.38582677165354
 30
0.0
 70
0
  0
SEQEND
  5
204
330
201
100
AcDbEntity
  8
Bed wall section A-A
  0
SPLINE
  5
205
330
17
100
AcDbEntity
  8
Bed wall section A-A
  6
DASHED
100
AcDbSpline
 70
0
 71
3
 72
14
 73
10
 74
0
 40
0.0
 40
0.0
 40
0.0
 40
0.0
 40
1.0
 40
1.0
 40
1.0
 40
2.0
 40
2.0
 40
2.0
 40
3.0
 40
3.0
 40
3.0
 40
3.0
 10
704.7952755905512
 20
93.38582677165354
 30
0.0
 10
704.7952755905512
 20
93.31672299405116
 30
0.0
 10
704.7770815753306
 20
93.24882200485389
 30
0.0
 10
704.7425296865293
 20
93.18897637795276
 30
0.0
 10
704.7079777977282
 20
93.12913075105162
 30
0.0
 10
704.6582708237516
 20
93.07942377707504
 30
0.0
 10
704.5984251968505
 20
93.04487188827385
 30
0.0
 10
704.5385795699493
 20
93.01031999947264
 30
0.0
 10
704.4706785807521
 20
92.99212598425197
 30
0.0
 10
704.4015748031496
 20
92.99212598425197
 30
0.0
  0
POLYLINE
  5
206
330
17
100
AcDbEntity
  8
Bed wall section A-A
  6
DASHED
100
AcDb2dPolyline
 66
1
 10
0.0
 20
0.0
 30
0.0
 70
0
  0
VERTEX
  5
207
330
206
100
AcDbEntity
  8
Bed wall section A-A
  6
DASHED
100
AcDbVertex
100
AcDb2dVertex
 10
704.4015748031496
 20
92.99212598425197
 30
0.0
 70
0
  0
VERTEX
  5
208
330
206
100
AcDbEntity
  8
Bed wall section A-A
  6
DASHED
100
AcDbVertex
100
AcDb2dVertex
 10
701.3307086614174
 20
92.99212598425197
 30
0.0
 70
0
  0
SEQEND
  5
209
330
206
100
AcDbEntity
  8
Bed wall section A-A
  0
SPLINE
  5
20A
330
17
100
AcDbEntity
  8
Bed wall section A-A
  6
DASHED
100
AcDbSpline
 70
0
 71
3
 72
14
 73
10
 74
0
 40
0.0
 40
0.0
 40
0.0
 40
0.0
 40
1.0
 40
1.0
 40
1.0
 40
2.0
 40
2.0
 40
2.0
 40
3.0
 40
3.0
 40
3.0
 40
3.0
 10
701.3307086614174
 20
92.99212598425197
 30
0.0
 10
701.261604883815
 20
92.99212598425197
 30
0.0
 10
701.1937038946178
 20
93.01031999947264
 30
0.0
 10
701.1338582677166
 20
93.04487188827385
 30
0.0
 10
701.0740126408155
 20
93.07942377707504
 30
0.0
 10
701.0243056668389
 20
93.12913075105162
 30
0.0
 10
700.9897537780377
 20
93.18897637795276
 30
0.0
 10
700.9552018892365
 20
93.24882200485389
 30
0.0
 10
700.9370078740158
 20
93.31672299405116
 30
0.0
 10
700.9370078740158
 20
93.38582677165354
 30
0.0
  0
POLYLINE
  5
20B
330
17
100
AcDbEntity
  8
Bed wall section A-A
  6
DASHED
100
AcDb2dPolyline
 66
1
 10
0.0
 20
0.0
 30
0.0
 70
0
  0
VERTEX
  5
20C
330
20B
100
AcDbEntity
  8
Bed wall section A-A
  6
DASHED
100
AcDbVertex
100
AcDb2dVertex
 10
700.9370078740158
 20
93.38582677165354
 30
0.0
 70
0
  0
VERTEX
  5
20D
330
20B
100
AcDbEntity
  8
Bed wall section A-A
  6
DASHED
100
AcDbVertex
100
AcDb2dVertex
 10
700.9370078740158
 20
101.1023622047244
 30
0.0
 70
0
  0
SEQEND
  5
20E
330
20B
100
AcDbEntity
  8
Bed wall section A-A
  0
SPLINE
  5
20F
330
17
100
AcDbEntity
  8
Bed wall section A-A
  6
DASHED
100
AcDbSpline
 70
0
 71
3
 72
14
 73
10
 74
0
 40
0.0
 40
0.0
 40
0.0
 40
0.0
 40
1.0
 40
1.0
 40
1.0
 40
2.0
 40
2.0
 40
2.0
 40
3.0
 40
3.0
 40
3.0
 40
3.0
 10
700.9370078740158
 20
101.1023622047244
 30
0.0
 10
700.9370078740158
 20
101.1714659823268
 30
0.0
 10
700.9552018892365
 20
101.23936697152406
 30
0.0
 10
700.9897537780377
 20
101.2992125984252
 30
0.0
 10
701.0243056668389
 20
101.35905822532632
 30
0.0
 10
701.0740126408155
 20
101.40876519930292
 30
0.0
 10
701.1338582677166
 20
101.44331708810411
 30
0.0
 10
701.1937038946178
 20
101.4778689769053
 30
0.0
 10
701.261604883815
 20
101.49606299212599
 30
0.0
 10
701.3307086614174
 20
101.49606299212599
 30
0.0
  0
LWPOLYLINE
  5
210
330
17
100
AcDbEntity
  8
Bed wall section A-A
  6
DASHED
100
AcDbPolyline
 90
2
 70
0
 10
700.7007874015749
 20
98.50393700787401
 10
700.9370078740158
 20
98.50393700787401
  0
LWPOLYLINE
  5
211
330
17
100
AcDbEntity
  8
Bed wall section A-A
  6
DASHED
100
AcDbPolyline
 90
5
 70
0
 10
699.48031496063
 20
53.14960629921259
 10
700.1889763779528
 20
53.14960629921259
 10
700.1889763779528
 20
48.4251968503937
 10
699.48031496063
 20
48.4251968503937
 10
699.48031496063
 20
53.14960629921259
  0
SPLINE
  5
212
330
17
100
AcDbEntity
  8
Bed wall section A-A
  6
DASHED
100
AcDbSpline
 70
0
 71
3
 72
8
 73
4
 74
0
 40
0.0
 40
0.0
 40
0.0
 40
0.0
 40
1.0
 40
1.0
 40
1.0
 40
1.0
 10
700.1889763779528
 20
50.39370078740157
 30
0.0
 10
703.0236220472442
 20
48.031496062992126
 30
0.0
 10
707.748031496063
 20
48.818897637795274
 30
0.0
 10
708.5354330708662
 20
51.574803149606296
 30
0.0
  0
LWPOLYLINE
  5
213
330
17
100
AcDbEntity
  8
Bed wall section A-A
  6
DASHED
100
AcDbPolyline
 90
5
 70
0
 10
706.1732283464568
 20
54.33070866141732
 10
710.8976377952756
 20
54.33070866141732
 10
709.9527559055119
 20
58.26771653543307
 10
707.1181102362206
 20
58.26771653543307
 10
706.1732283464568
 20
54.33070866141732
  0
LWPOLYLINE
  5
214
330
17
100
AcDbEntity
  8
Bed wall section A-A
100
AcDbPolyline
 90
5
 70
0
 10
723.1417322834646
 20
0.4724409448818818
 10
807.0787401574804
 20
0.4724409448818818
 10
807.0787401574804
 20
0.0
 10
723.1417322834646
 20
0.0
 10
723.1417322834646
 20
0.4724409448818818
  0
HATCH
  5
215
330
17
100
AcDbEntity
  8
Bed wall section A-A hatch
 62
7
100
AcDbHatch
 10
0.0
 20
0.0
 30
0.0
210
0.0
220
0.0
230
1.0
  2
ANSI31
 70
0
 71
0
 91
1
 92
3
 72
0
 73
1
 93
5
 10
700.464566929134
 20
39.84251968503937
 10
701.1732283464568
 20
39.84251968503937
 10
701.1732283464568
 20
0.0
 10
700.464566929134
 20
0.0
 10
700.464566929134
 20
39.84251968503937
 97
0
 75
1
 76
1
 52
0.0
 41
0.15748031496062992
 77
0
 78
1
 53
45.0
 43
0.0
 44
0.0
 45
-0.0139194248
 46
0.0139194248
 79
0
 98
0
  0
LWPOLYLINE
  5
216
330
17
100
AcDbEntity
  8
Bed wall section A-A
100
AcDbPolyline
 90
5
 70
0
 10
700.464566929134
 20
39.84251968503936
 10
701.1732283464568
 20
39.84251968503936
 10
701.1732283464568
 20
0.0
 10
700.464566929134
 20
0.0
 10
700.464566929134
 20
39.84251968503936
  0
POLYLINE
  5
217
330
17
100
AcDbEntity
  8
Bed wall section A-A
100
AcDb2dPolyline
 66
1
 10
0.0
 20
0.0
 30
0.0
 70
0
  0
VERTEX
  5
218
330
217
100
AcDbEntity
  8
Bed wall section A-A
100
AcDbVertex
100
AcDb2dVertex
 10
701.1732283464568
 20
40.0
 30
0.0
 70
0
  0
VERTEX
  5
219
330
217
100
AcDbEntity
  8
Bed wall section A-A
100
AcDbVertex
100
AcDb2dVertex
 10
702.748031496063
 20
40.0
 30
0.0
 70
0
  0
SEQEND
  5
21A
330
217
100
AcDbEntity
  8
Bed wall section A-A
  0
SPLINE
  5
21B
330
17
100
AcDbEntity
  8
Bed wall section A-A
100
AcDbSpline
 70
0
 71
3
 72
8
 73
4
 74
0
 40
0.0
 40
0.0
 40
0.0
 40
0.0
 40
1.0
 40
1.0
 40
1.0
 40
1.0
 10
702.748031496063
 20
40.0
 30
0.0
 10
703.220472440945
 20
40.0
 30
0.0
 10
703.456692913386
 20
39.76377952755905
 30
0.0
 10
703.456692913386
 20
39.291338582677156
 30
0.0
  0
POLYLINE
  5
21C
330
17
100
AcDbEntity
  8
Bed wall section A-A
100
AcDb2dPolyline
 66
1
 10
0.0
 20
0.0
 30
0.0
 70
0
  0
VERTEX
  5
21D
330
21C
100
AcDbEntity
  8
Bed wall section A-A
100
AcDbVertex
100
AcDb2dVertex
 10
703.456692913386
 20
39.291338582677156
 30
0.0
 70
0
  0
VERTEX
  5
21E
330
21C
100
AcDbEntity
  8
Bed wall section A-A
100
AcDbVertex
100
AcDb2dVertex
 10
703.456692913386
 20
0.23622047244094801
 30
0.0
 70
0
  0
VERTEX
  5
21F
330
21C
100
AcDbEntity
  8
Bed wall section A-A
100
AcDbVertex
100
AcDb2dVertex
 10
701.1732283464568
 20
0.23622047244094801
 30
0.0
 70
0
  0
VERTEX
  5
220
330
21C
100
AcDbEntity
  8
Bed wall section A-A
100
AcDbVertex
100
AcDb2dVertex
 10
701.1732283464568
 20
40.0
 30
0.0
 70
0
  0
SEQEND
  5
221
330
21C
100
AcDbEntity
  8
Bed wall section A-A
  0
LWPOLYLINE
  5
222
330
17
100
AcDbEntity
  8
Bed wall section A-A
100
AcDbPolyline
 90
5
 70
0
 10
703.456692913386
 20
21.02362204724409
 10
781.4488188976379
 20
21.02362204724409
 10
781.4488188976379
 20
11.02362204724409
 10
703.456692913386
 20
11.02362204724409
 10
703.456692913386
 20
21.02362204724409
  0
LWPOLYLINE
  5
223
330
17
100
AcDbEntity
  8
Bed wall section A-A
100
AcDbPolyline
 90
5
 70
0
 10
704.6377952755906
 20
26.92913385826772
 10
725.5039370078741
 20
26.92913385826772
 10
725.5039370078741
 20
21.02362204724409
 10
704.6377952755906
 20
21.02362204724409
 10
704.6377952755906
 20
26.92913385826772
  0
LWPOLYLINE
  5
224
330
17
100
AcDbEntity
  8
Bed wall section A-A
100
AcDbPolyline
 90
5
 70
0
 10
703.456692913386
 20
11.02362204724409
 10
783.456692913386
 20
11.02362204724409
 10
783.456692913386
 20
0.0
 10
703.456692913386
 20
0.0
 10
703.456692913386
 20
11.02362204724409
  0
LINE
  5
225
330
17
100
AcDbEntity
  8
Bed wall section A-A
100
AcDbLine
 10
689.6377952755906
 20
0.0
 30
0.0
 11
793.2992125984254
 21
0.0
 31
0.0
  0
LINE
  5
226
330
17
100
AcDbEntity
  8
Bed wall section A-A
  6
DASHED
100
AcDbLine
 10
689.6377952755906
 20
109.01574803149606
 30
0.0
 11
793.2992125984254
 21
109.01574803149606
 31
0.0
  0
TEXT
  5
227
330
17
100
AcDbEntity
  8
LABELS
100
AcDbText
 10
689.6377952755906
 20
111.37795275590551
 30
0.0
 40
2.3488188976377953
  1
BED WALL SECTION A-A  (1:1, inches)
 11
689.6377952755906
 21
111.37795275590551
 31
0.0
100
AcDbText
  0
HATCH
  5
22A
330
17
100
AcDbEntity
  8
Entrance corner hatch
 62
7
100
AcDbHatch
 10
0.0
 20
0.0
 30
0.0
210
0.0
220
0.0
230
1.0
  2
ANSI31
 70
0
 71
0
 91
1
 92
3
 72
0
 73
1
 93
5
 10
824.6948818897639
 20
58.26771653543307
 10
886.5846456692915
 20
58.26771653543307
 10
886.5846456692915
 20
49.21259842519685
 10
824.6948818897639
 20
49.21259842519685
 10
824.6948818897639
 20
58.26771653543307
 97
0
 75
1
 76
1
 52
0.0
 41
0.15748031496062992
 77
0
 78
1
 53
45.0
 43
0.0
 44
0.0
 45
-0.0139194248
 46
0.0139194248
 79
0
 98
0
  0
HATCH
  5
22B
330
17
100
AcDbEntity
  8
Entrance corner hatch
 62
7
100
AcDbHatch
 10
0.0
 20
0.0
 30
0.0
210
0.0
220
0.0
230
1.0
  2
ANSI31
 70
0
 71
0
 91
1
 92
3
 72
0
 73
1
 93
5
 10
877.5295275590553
 20
49.21259842519685
 10
886.5846456692915
 20
49.21259842519685
 10
886.5846456692915
 20
0.0
 10
877.5295275590553
 20
0.0
 10
877.5295275590553
 20
49.21259842519685
 97
0
 75
1
 76
1
 52
0.0
 41
0.15748031496062992
 77
0
 78
1
 53
45.0
 43
0.0
 44
0.0
 45
-0.0139194248
 46
0.0139194248
 79
0
 98
0
  0
LWPOLYLINE
  5
22C
330
17
100
AcDbEntity
  8
Entrance corner
100
AcDbPolyline
 90
2
 70
0
 10
824.6948818897639
 20
49.21259842519685
 10
877.5295275590553
 20
49.21259842519685
  0
LWPOLYLINE
  5
22D
330
17
100
AcDbEntity
  8
Entrance corner
100
AcDbPolyline
 90
2
 70
0
 10
877.5295275590553
 20
0.0
 10
877.5295275590553
 20
9.212598425196852
  0
LWPOLYLINE
  5
22E
330
17
100
AcDbEntity
  8
Entrance corner
100
AcDbPolyline
 90
5
 70
0
 10
877.5295275590553
 20
49.21259842519685
 10
879.5374015748033
 20
49.21259842519685
 10
879.5374015748033
 20
47.20472440944882
 10
877.5295275590553
 20
47.20472440944882
 10
877.5295275590553
 20
49.21259842519685
  0
LWPOLYLINE
  5
22F
330
17
100
AcDbEntity
  8
Entrance corner
100
AcDbPolyline
 90
5
 70
0
 10
877.5295275590553
 20
11.220472440944881
 10
879.5374015748033
 20
11.220472440944881
 10
879.5374015748033
 20
9.212598425196852
 10
877.5295275590553
 20
9.212598425196852
 10
877.5295275590553
 20
11.220472440944881
  0
HATCH
  5
230
330
17
100
AcDbEntity
  8
Entrance corner hatch
 62
7
100
AcDbHatch
 10
0.0
 20
0.0
 30
0.0
210
0.0
220
0.0
230
1.0
  2
ANSI31
 70
0
 71
0
 91
1
 92
3
 72
0
 73
1
 93
24
 10
834.5374015748033
 20
49.21259842519685
 10
834.5374015748033
 20
34.21259842519685
 10
835.5216535433073
 20
34.21259842519685
 10
835.5444881889764
 20
35.344881889763776
 10
835.612598425197
 20
36.468503937007874
 10
835.7255905511812
 20
37.5751968503937
 10
835.8826771653545
 20
38.65629921259843
 10
836.0822834645671
 20
39.70314960629921
 10
836.3232283464569
 20
40.70866141732284
 10
836.6039370078743
 20
41.664566929133855
 10
836.9216535433072
 20
42.56377952755905
 10
837.274409448819
 20
43.39960629921259
 10
837.6594488188978
 20
44.16496062992126
 10
838.0736220472443
 20
44.85511811023622
 10
838.5137795275592
 20
45.46417322834645
 10
838.9767716535433
 20
45.987401574803144
 10
839.4590551181103
 20
46.42125984251968
 10
839.9570866141734
 20
46.76220472440945
 10
840.4669291338585
 20
47.00748031496063
 10
840.984251968504
 20
47.155118110236224
 10
841.5059055118112
 20
47.204724409448815
 10
877.5295275590553
 20
47.204724409448815
 10
877.5295275590553
 20
49.21259842519685
 10
834.5374015748033
 20
49.21259842519685
 97
0
 75
1
 76
1
 52
0.0
 41
0.15748031496062992
 77
0
 78
1
 53
45.0
 43
0.0
 44
0.0
 45
-0.0139194248
 46
0.0139194248
 79
0
 98
0
  0
LWPOLYLINE
  5
231
330
17
100
AcDbEntity
  8
Entrance corner
100
AcDbPolyline
 90
24
 70
0
 10
834.5374015748033
 20
49.21259842519685
 10
834.5374015748033
 20
34.21259842519685
 10
835.5216535433073
 20
34.21259842519685
 10
835.5444881889765
 20
35.34488188976378
 10
835.612598425197
 20
36.468503937007874
 10
835.7255905511813
 20
37.5751968503937
 10
835.8826771653545
 20
38.65629921259843
 10
836.0822834645671
 20
39.70314960629921
 10
836.3232283464569
 20
40.70866141732284
 10
836.6039370078742
 20
41.66456692913386
 10
836.9216535433072
 20
42.563779527559056
 10
837.274409448819
 20
43.3996062992126
 10
837.6594488188978
 20
44.16496062992126
 10
838.0736220472443
 20
44.85511811023622
 10
838.5137795275592
 20
45.46417322834646
 10
838.9767716535434
 20
45.98740157480315
 10
839.4590551181104
 20
46.42125984251969
 10
839.9570866141734
 20
46.76220472440945
 10
840.4669291338585
 20
47.00748031496063
 10
840.984251968504
 20
47.155118110236224
 10
841.5059055118112
 20
47.20472440944882
 10
877.5295275590553
 20
47.20472440944882
 10
877.5295275590553
 20
49.21259842519685
 10
834.5374015748033
 20
49.21259842519685
  0
LWPOLYLINE
  5
232
330
17
100
AcDbEntity
  8
Entrance corner
100
AcDbPolyline
 90
5
 70
0
 10
824.6948818897639
 20
49.21259842519685
 10
834.5374015748033
 20
49.21259842519685
 10
834.5374015748033
 20
48.425196850393704
 10
824.6948818897639
 20
48.425196850393704
 10
824.6948818897639
 20
49.21259842519685
  0
LWPOLYLINE
  5
233
330
17
100
AcDbEntity
  8
Entrance corner
100
AcDbPolyline
 90
5
 70
0
 10
834.5374015748033
 20
48.425196850393704
 10
835.3248031496064
 20
48.425196850393704
 10
835.3248031496064
 20
34.21259842519685
 10
834.5374015748033
 20
34.21259842519685
 10
834.5374015748033
 20
48.425196850393704
  0
LINE
  5
234
330
17
100
AcDbEntity
  8
Entrance corner
  6
DASHED
100
AcDbLine
 10
841.5059055118112
 20
47.91338582677165
 30
0.0
 11
877.5295275590553
 21
47.91338582677165
 31
0.0
  0
SPLINE
  5
235
330
17
100
AcDbEntity
  8
Entrance corner
  6
DASHED
100
AcDbSpline
 70
0
 71
3
 72
14
 73
10
 74
0
 40
0.0
 40
0.0
 40
0.0
 40
0.0
 40
1.0
 40
1.0
 40
1.0
 40
2.0
 40
2.0
 40
2.0
 40
3.0
 40
3.0
 40
3.0
 40
3.0
 10
877.5295275590553
 20
11.220472440944881
 30
0.0
 10
871.6033658282265
 20
11.220488104972212
 30
0.0
 10
865.7679657834368
 20
12.6844519623343
 30
0.0
 10
860.5435986850341
 20
15.481840258819332
 30
0.0
 10
855.3192315866313
 20
18.279228555304364
 30
0.0
 10
850.8659174179186
 20
22.32435856225561
 30
0.0
 10
847.58070374333
 20
27.25657550522153
 30
0.0
 10
844.2954900687413
 20
32.18879244818745
 30
0.0
 10
842.2790014859462
 20
37.857024769983354
 30
0.0
 10
841.7110236220474
 20
43.75590551181102
 30
0.0
  0
LWPOLYLINE
  5
236
330
17
100
AcDbEntity
  8
Entrance corner
100
AcDbPolyline
 90
5
 70
0
 10
841.5452755905513
 20
47.20472440944882
 10
877.5295275590553
 20
47.20472440944882
 10
877.5295275590553
 20
45.43307086614173
 10
841.5452755905513
 20
45.43307086614173
 10
841.5452755905513
 20
47.20472440944882
  0
LWPOLYLINE
  5
237
330
17
100
AcDbEntity
  8
Entrance corner
100
AcDbPolyline
 90
5
 70
0
 10
843.6712598425198
 20
47.952755905511815
 10
844.458661417323
 20
47.952755905511815
 10
844.458661417323
 20
47.20472440944882
 10
843.6712598425198
 20
47.20472440944882
 10
843.6712598425198
 20
47.952755905511815
  0
CIRCLE
  5
238
330
17
100
AcDbEntity
  8
Entrance corner
100
AcDbCircle
 10
844.0649606299214
 20
48.77952755905512
 30
0.0
 40
0.984251968503937
  0
LWPOLYLINE
  5
239
330
17
100
AcDbEntity
  8
Entrance corner
100
AcDbPolyline
 90
5
 70
0
 10
843.6712598425198
 20
45.43307086614173
 10
844.458661417323
 20
45.43307086614173
 10
844.458661417323
 20
44.68503937007874
 10
843.6712598425198
 20
44.68503937007874
 10
843.6712598425198
 20
45.43307086614173
  0
CIRCLE
  5
23A
330
17
100
AcDbEntity
  8
Entrance corner
100
AcDbCircle
 10
844.0649606299214
 20
43.85826771653543
 30
0.0
 40
0.984251968503937
  0
CIRCLE
  5
23B
330
17
100
AcDbEntity
  8
Entrance corner
100
AcDbCircle
 10
849.9704724409451
 20
47.99212598425197
 30
0.0
 40
0.7874015748031495
  0
CIRCLE
  5
23C
330
17
100
AcDbEntity
  8
Entrance corner
100
AcDbCircle
 10
849.9704724409451
 20
47.99212598425197
 30
0.0
 40
0.2755905511811024
  0
CIRCLE
  5
23D
330
17
100
AcDbEntity
  8
Entrance corner
100
AcDbCircle
 10
877.5295275590553
 20
47.204724409448815
 30
0.0
 40
0.2755905511811024
  0
TEXT
  5
23E
330
17
100
AcDbEntity
  8
LABELS
100
AcDbText
 10
824.6948818897639
 20
60.62992125984252
 30
0.0
 40
1.2377952755905512
  1
ENTRANCE CORNER  (1:1, inches)
 11
824.6948818897639
 21
60.62992125984252
 31
0.0
100
AcDbText
  0
LWPOLYLINE
  5
241
330
17
100
AcDbEntity
  8
Side table top plan
100
AcDbPolyline
 90
5
 70
0
 10
896.4271653543309
 20
14.015748031496063
 10
912.4114173228348
 20
14.015748031496063
 10
912.4114173228348
 20
0.0
 10
896.4271653543309
 20
0.0
 10
896.4271653543309
 20
14.015748031496063
  0
LWPOLYLINE
  5
242
330
17
100
AcDbEntity
  8
Side table top plan
100
AcDbPolyline
 90
5
 70
0
 10
898.198818897638
 20
12.244094488188976
 10
910.6397637795277
 20
12.244094488188976
 10
910.6397637795277
 20
1.771653543307087
 10
898.198818897638
 20
1.771653543307087
 10
898.198818897638
 20
12.244094488188976
  0
SPLINE
  5
243
330
17
100
AcDbEntity
  8
Side table top plan
100
AcDbSpline
 70
0
 71
3
 72
8
 73
4
 74
0
 40
0.0
 40
0.0
 40
0.0
 40
0.0
 40
1.0
 40
1.0
 40
1.0
 40
1.0
 10
898.198818897638
 20
12.244094488188976
 30
0.0
 10
901.9389763779529
 20
10.275590551181102
 30
0.0
 10
906.1122047244096
 20
7.283464566929134
 30
0.0
 10
910.6397637795277
 20
4.133858267716535
 30
0.0
  0
SPLINE
  5
244
330
17
100
AcDbEntity
  8
Side table top plan
100
AcDbSpline
 70
0
 71
3
 72
8
 73
4
 74
0
 40
0.0
 40
0.0
 40
0.0
 40
0.0
 40
1.0
 40
1.0
 40
1.0
 40
1.0
 10
898.198818897638
 20
9.173228346456693
 30
0.0
 10
901.9389763779529
 20
7.2047244094488185
 30
0.0
 10
906.1122047244096
 20
5.2362204724409445
 30
0.0
 10
910.6397637795277
 20
2.5984251968503944
 30
0.0
  0
TEXT
  5
245
330
17
100
AcDbEntity
  8
LABELS
100
AcDbText
 10
896.4271653543309
 20
16.37795275590551
 30
0.0
 40
0.7086614173228346
  1
SIDE TABLE TOP PLAN  (1:1, inches)
 11
896.4271653543309
 21
16.37795275590551
 31
0.0
100
AcDbText
  0
LWPOLYLINE
  5
248
330
17
100
AcDbEntity
  8
Side table top section
100
AcDbPolyline
 90
5
 70
0
 10
922.4114173228347
 20
2.8346456692913384
 10
924.3405511811025
 20
2.8346456692913384
 10
924.3405511811025
 20
2.047244094488189
 10
922.4114173228347
 20
2.047244094488189
 10
922.4114173228347
 20
2.8346456692913384
  0
SPLINE
  5
249
330
17
100
AcDbEntity
  8
Side table top section
100
AcDbSpline
 70
0
 71
3
 72
8
 73
4
 74
0
 40
0.0
 40
0.0
 40
0.0
 40
0.0
 40
1.0
 40
1.0
 40
1.0
 40
1.0
 10
922.6476377952757
 20
2.5984251968503935
 30
0.0
 10
923.1988188976379
 20
2.4803149606299213
 30
0.0
 10
923.5925196850395
 20
2.6771653543307083
 30
0.0
 10
924.0649606299214
 20
2.3622047244094486
 30
0.0
  0
HATCH
  5
24A
330
17
100
AcDbEntity
  8
Side table top section hatch
 62
7
100
AcDbHatch
 10
0.0
 20
0.0
 30
0.0
210
0.0
220
0.0
230
1.0
  2
ANSI31
 70
0
 71
0
 91
1
 92
3
 72
0
 73
1
 93
5
 10
922.4114173228347
 20
2.047244094488189
 10
924.6948818897639
 20
2.047244094488189
 10
924.6948818897639
 20
1.574803149606299
 10
922.4114173228347
 20
1.574803149606299
 10
922.4114173228347
 20
2.047244094488189
 97
0
 75
1
 76
1
 52
0.0
 41
0.15748031496062992
 77
0
 78
1
 53
45.0
 43
0.0
 44
0.0
 45
-0.0139194248
 46
0.0139194248
 79
0
 98
0
  0
LWPOLYLINE
  5
24B
330
17
100
AcDbEntity
  8
Side table top section
100
AcDbPolyline
 90
5
 70
0
 10
922.4114173228347
 20
2.047244094488189
 10
924.6948818897639
 20
2.047244094488189
 10
924.6948818897639
 20
1.574803149606299
 10
922.4114173228347
 20
1.574803149606299
 10
922.4114173228347
 20
2.047244094488189
  0
POLYLINE
  5
24C
330
17
100
AcDbEntity
  8
Side table top section
100
AcDb2dPolyline
 66
1
 10
0.0
 20
0.0
 30
0.0
 70
0
  0
VERTEX
  5
24D
330
24C
100
AcDbEntity
  8
Side table top section
100
AcDbVertex
100
AcDb2dVertex
 10
924.3799212598426
 20
2.8346456692913384
 30
0.0
 70
0
  0
VERTEX
  5
24E
330
24C
100
AcDbEntity
  8
Side table top section
100
AcDbVertex
100
AcDb2dVertex
 10
926.0334645669293
 20
2.8346456692913384
 30
0.0
 70
0
  0
SEQEND
  5
24F
330
24C
100
AcDbEntity
  8
Side table top section
  0
SPLINE
  5
250
330
17
100
AcDbEntity
  8
Side table top section
100
AcDbSpline
 70
0
 71
3
 72
8
 73
4
 74
0
 40
0.0
 40
0.0
 40
0.0
 40
0.0
 40
1.0
 40
1.0
 40
1.0
 40
1.0
 10
926.0334645669293
 20
2.8346456692913384
 30
0.0
 10
926.1122047244096
 20
2.8346456692913384
 30
0.0
 10
926.1515748031497
 20
2.795275590551181
 30
0.0
 10
926.1515748031497
 20
2.716535433070866
 30
0.0
  0
POLYLINE
  5
251
330
17
100
AcDbEntity
  8
Side table top section
100
AcDb2dPolyline
 66
1
 10
0.0
 20
0.0
 30
0.0
 70
0
  0
VERTEX
  5
252
330
251
100
AcDbEntity
  8
Side table top section
100
AcDbVertex
100
AcDb2dVertex
 10
926.1515748031497
 20
2.716535433070866
 30
0.0
 70
0
  0
VERTEX
  5
253
330
251
100
AcDbEntity
  8
Side table top section
100
AcDbVertex
100
AcDb2dVertex
 10
926.1515748031497
 20
1.574803149606299
 30
0.0
 70
0
  0
VERTEX
  5
254
330
251
100
AcDbEntity
  8
Side table top section
100
AcDbVertex
100
AcDb2dVertex
 10
924.6948818897639
 20
1.574803149606299
 30
0.0
 70
0
  0
VERTEX
  5
255
330
251
100
AcDbEntity
  8
Side table top section
100
AcDbVertex
100
AcDb2dVertex
 10
924.6948818897639
 20
2.047244094488189
 30
0.0
 70
0
  0
VERTEX
  5
256
330
251
100
AcDbEntity
  8
Side table top section
100
AcDbVertex
100
AcDb2dVertex
 10
924.3799212598426
 20
2.047244094488189
 30
0.0
 70
0
  0
VERTEX
  5
257
330
251
100
AcDbEntity
  8
Side table top section
100
AcDbVertex
100
AcDb2dVertex
 10
924.3799212598426
 20
2.8346456692913384
 30
0.0
 70
0
  0
SEQEND
  5
258
330
251
100
AcDbEntity
  8
Side table top section
  0
SPLINE
  5
259
330
17
100
AcDbEntity
  8
Side table top section
100
AcDbSpline
 70
0
 71
3
 72
8
 73
4
 74
0
 40
0.0
 40
0.0
 40
0.0
 40
0.0
 40
1.0
 40
1.0
 40
1.0
 40
1.0
 10
924.8523622047245
 20
2.5354330708661417
 30
0.0
 10
925.1935695538059
 20
2.4566929133858264
 30
0.0
 10
925.5741469816275
 20
2.4435695538057742
 30
0.0
 10
925.9940944881891
 20
2.4960629921259843
 30
0.0
  0
SPLINE
  5
25A
330
17
100
AcDbEntity
  8
Side table top section
100
AcDbSpline
 70
0
 71
3
 72
8
 73
4
 74
0
 40
0.0
 40
0.0
 40
0.0
 40
0.0
 40
1.0
 40
1.0
 40
1.0
 40
1.0
 10
924.8523622047245
 20
2.2204724409448815
 30
0.0
 10
925.1935695538059
 20
2.1417322834645667
 30
0.0
 10
925.5741469816275
 20
2.128608923884514
 30
0.0
 10
925.9940944881891
 20
2.181102362204724
 30
0.0
  0
SPLINE
  5
25B
330
17
100
AcDbEntity
  8
Side table top section
100
AcDbSpline
 70
0
 71
3
 72
8
 73
4
 74
0
 40
0.0
 40
0.0
 40
0.0
 40
0.0
 40
1.0
 40
1.0
 40
1.0
 40
1.0
 10
924.8523622047245
 20
1.9055118110236218
 30
0.0
 10
925.1935695538059
 20
1.8267716535433067
 30
0.0
 10
925.5741469816275
 20
1.8136482939632543
 30
0.0
 10
925.9940944881891
 20
1.8661417322834644
 30
0.0
  0
LINE
  5
25C
330
17
100
AcDbEntity
  8
Side table top section
100
AcDbLine
 10
924.3602362204725
 20
2.8346456692913384
 30
0.0
 11
924.3602362204725
 21
2.047244094488189
 31
0.0
  0
LWPOLYLINE
  5
25D
330
17
100
AcDbEntity
  8
Side table top section
100
AcDbPolyline
 90
3
 70
0
 10
925.0492125984254
 20
1.574803149606299
 10
925.7578740157481
 20
1.574803149606299
 10
925.7578740157481
 20
0.0
  0
LWPOLYLINE
  5
25E
330
17
100
AcDbEntity
  8
Side table top section
100
AcDbPolyline
 90
2
 70
0
 10
925.0492125984254
 20
1.574803149606299
 10
925.0492125984254
 20
0.0
  0
LWPOLYLINE
  5
25F
330
17
100
AcDbEntity
  8
Side table top section
100
AcDbPolyline
 90
2
 70
0
 10
924.4980314960632
 20
1.4173228346456692
 10
925.0492125984254
 20
1.4173228346456692
  0
LWPOLYLINE
  5
260
330
17
100
AcDbEntity
  8
Side table top section
100
AcDbPolyline
 90
3
 70
0
 10
924.4980314960632
 20
1.574803149606299
 10
924.4980314960632
 20
1.1023622047244093
 10
925.0492125984254
 20
1.1023622047244093
  0
LWPOLYLINE
  5
261
330
17
100
AcDbEntity
  8
Side table top section
100
AcDbPolyline
 90
6
 70
0
 10
922.4114173228347
 20
2.9133858267716533
 10
922.4114173228347
 20
2.417322834645669
 10
922.2539370078741
 20
2.2755905511811023
 10
922.5688976377954
 20
2.133858267716535
 10
922.4114173228347
 20
1.9921259842519683
 10
922.4114173228347
 20
1.496062992125984
  0
LWPOLYLINE
  5
262
330
17
100
AcDbEntity
  8
Side table top section
  6
DASHED
100
AcDbPolyline
 90
2
 70
0
 10
924.970472440945
 20
0.0
 10
925.8366141732284
 20
0.0
  0
TEXT
  5
263
330
17
100
AcDbEntity
  8
LABELS
100
AcDbText
 10
922.2539370078741
 20
5.275590551181102
 30
0.0
 40
0.7086614173228346
  1
SIDE TABLE TOP SECTION  (1:1, inches)
 11
922.2539370078741
 21
5.275590551181102
 31
0.0
100
AcDbText
  0
TEXT
  5
264
330
17
100
AcDbEntity
  8
LABELS
100
AcDbText
 10
0.0
 20
-8.661417322834646
 30
0.0
 40
1.574803149606299
  1
Bed wall — the niche · AST-DR-034
 11
0.0
 21
-8.661417322834646
 31
0.0
100
AcDbText
  0
ENDSEC
  0
SECTION
  2
OBJECTS
  0
DICTIONARY
  5
A
330
0
100
AcDbDictionary
281
1
  3
ACAD_COLOR
350
B
  3
ACAD_GROUP
350
C
  3
ACAD_LAYOUT
350
D
  3
ACAD_MATERIAL
350
E
  3
ACAD_MLEADERSTYLE
350
F
  3
ACAD_MLINESTYLE
350
10
  3
ACAD_PLOTSETTINGS
350
11
  3
ACAD_PLOTSTYLENAME
350
12
  3
ACAD_SCALELIST
350
14
  3
ACAD_TABLESTYLE
350
15
  3
ACAD_VISUALSTYLE
350
16
  3
EZDXF_META
350
2D
  0
DICTIONARY
  5
B
330
A
100
AcDbDictionary
281
1
  0
DICTIONARY
  5
C
330
A
100
AcDbDictionary
281
1
  0
DICTIONARY
  5
D
330
A
100
AcDbDictionary
281
1
  3
Model
350
1A
  3
Layout1
350
1E
  0
DICTIONARY
  5
E
330
A
100
AcDbDictionary
281
1
  3
ByBlock
350
1F
  3
ByLayer
350
20
  3
Global
350
21
  0
DICTIONARY
  5
F
330
A
100
AcDbDictionary
281
1
  3
Standard
350
2C
  0
DICTIONARY
  5
10
330
A
100
AcDbDictionary
281
1
  3
Standard
350
22
  0
DICTIONARY
  5
11
330
A
100
AcDbDictionary
281
1
  0
ACDBDICTIONARYWDFLT
  5
12
330
A
100
AcDbDictionary
281
1
  3
Normal
350
13
100
AcDbDictionaryWithDefault
340
13
  0
ACDBPLACEHOLDER
  5
13
330
12
  0
DICTIONARY
  5
14
330
A
100
AcDbDictionary
281
1
  0
DICTIONARY
  5
15
330
A
100
AcDbDictionary
281
1
  0
DICTIONARY
  5
16
330
A
100
AcDbDictionary
281
1
  3
2dWireframe
350
5A
  3
Basic
350
5B
  3
Brighten
350
5C
  3
ColorChange
350
5D
  3
Conceptual
350
5E
  3
Dim
350
5F
  3
EdgeColorOff
350
60
  3
Facepattern
350
61
  3
Flat
350
62
  3
FlatWithEdges
350
63
  3
Gouraud
350
64
  3
GouraudWithEdges
350
65
  3
Hidden
350
66
  3
JitterOff
350
67
  3
Linepattern
350
68
  3
Modeling
350
69
  3
OverhangOff
350
6A
  3
Realistic
350
6B
  3
Shaded
350
6C
  3
Shaded with edges
350
6D
  3
Shades of Gray
350
6E
  3
Sketchy
350
6F
  3
Thicken
350
70
  3
Wireframe
350
71
  3
X-Ray
350
72
  0
LAYOUT
  5
1A
330
D
100
AcDbPlotSettings
  1

  4
A3
  6

 40
7.5
 41
20.0
 42
7.5
 43
20.0
 44
420.0
 45
297.0
 46
0.0
 47
0.0
 48
0.0
 49
0.0
140
0.0
141
0.0
142
1.0
143
1.0
 70
1024
 72
1
 73
0
 74
5
  7

 75
16
 76
0
 77
2
 78
300
147
1.0
148
0.0
149
0.0
100
AcDbLayout
  1
Model
 70
1
 71
0
 10
0.0
 20
0.0
 11
420.0
 21
297.0
 12
0.0
 22
0.0
 32
0.0
 14
1e+20
 24
1e+20
 34
1e+20
 15
-1e+20
 25
-1e+20
 35
-1e+20
146
0.0
 13
0.0
 23
0.0
 33
0.0
 16
1.0
 26
0.0
 36
0.0
 17
0.0
 27
1.0
 37
0.0
 76
1
330
17
  0
LAYOUT
  5
1E
330
D
100
AcDbPlotSettings
  1

  4
A3
  6

 40
7.5
 41
20.0
 42
7.5
 43
20.0
 44
420.0
 45
297.0
 46
0.0
 47
0.0
 48
0.0
 49
0.0
140
0.0
141
0.0
142
1.0
143
1.0
 70
0
 72
1
 73
0
 74
5
  7

 75
16
 76
0
 77
2
 78
300
147
1.0
148
0.0
149
0.0
100
AcDbLayout
  1
Layout1
 70
1
 71
1
 10
0.0
 20
0.0
 11
420.0
 21
297.0
 12
0.0
 22
0.0
 32
0.0
 14
1e+20
 24
1e+20
 34
1e+20
 15
-1e+20
 25
-1e+20
 35
-1e+20
146
0.0
 13
0.0
 23
0.0
 33
0.0
 16
1.0
 26
0.0
 36
0.0
 17
0.0
 27
1.0
 37
0.0
 76
1
330
1B
  0
MATERIAL
  5
1F
102
{ACAD_REACTORS
330
E
102
}
330
E
100
AcDbMaterial
  1
ByBlock
  2

 70
0
 40
1.0
 71
1
 41
1.0
 91
-1023410177
 42
1.0
 72
1
  3

 73
1
 74
1
 75
1
 44
0.5
 73
0
 45
1.0
 46
1.0
 77
1
  4

 78
1
 79
1
170
1
 48
1.0
171
1
  6

172
1
173
1
174
1
140
1.0
141
1.0
175
1
  7

176
1
177
1
178
1
143
1.0
179
1
  8

270
1
271
1
272
1
145
1.0
146
1.0
273
1
  9

274
1
275
1
276
1
 42
1.0
 72
1
  3

 73
1
 74
1
 75
1
 94
63
  0
MATERIAL
  5
20
102
{ACAD_REACTORS
330
E
102
}
330
E
100
AcDbMaterial
  1
ByLayer
  2

 70
0
 40
1.0
 71
1
 41
1.0
 91
-1023410177
 42
1.0
 72
1
  3

 73
1
 74
1
 75
1
 44
0.5
 73
0
 45
1.0
 46
1.0
 77
1
  4

 78
1
 79
1
170
1
 48
1.0
171
1
  6

172
1
173
1
174
1
140
1.0
141
1.0
175
1
  7

176
1
177
1
178
1
143
1.0
179
1
  8

270
1
271
1
272
1
145
1.0
146
1.0
273
1
  9

274
1
275
1
276
1
 42
1.0
 72
1
  3

 73
1
 74
1
 75
1
 94
63
  0
MATERIAL
  5
21
102
{ACAD_REACTORS
330
E
102
}
330
E
100
AcDbMaterial
  1
Global
  2

 70
0
 40
1.0
 71
1
 41
1.0
 91
-1023410177
 42
1.0
 72
1
  3

 73
1
 74
1
 75
1
 44
0.5
 73
0
 45
1.0
 46
1.0
 77
1
  4

 78
1
 79
1
170
1
 48
1.0
171
1
  6

172
1
173
1
174
1
140
1.0
141
1.0
175
1
  7

176
1
177
1
178
1
143
1.0
179
1
  8

270
1
271
1
272
1
145
1.0
146
1.0
273
1
  9

274
1
275
1
276
1
 42
1.0
 72
1
  3

 73
1
 74
1
 75
1
 94
63
  0
MLINESTYLE
  5
22
102
{ACAD_REACTORS
330
10
102
}
330
10
100
AcDbMlineStyle
  2
Standard
 70
0
  3

 62
256
 51
90.0
 52
90.0
 71
2
 49
0.5
 62
256
  6
BYLAYER
 49
-0.5
 62
256
  6
BYLAYER
  0
MLEADERSTYLE
  5
2C
102
{ACAD_REACTORS
330
F
102
}
330
F
100
AcDbMLeaderStyle
179
2
170
2
171
1
172
0
 90
2
 40
0.0
 41
0.0
173
1
 91
-1056964608
 92
-2
290
1
 42
2.0
291
1
 43
8.0
  3
Standard
 44
4.0
300

342
29
174
1
175
1
176
0
178
1
 93
-1056964608
 45
4.0
292
0
297
0
 46
4.0
 94
-1056964608
 47
1.0
 49
1.0
140
1.0
294
1
141
0.0
177
0
142
1.0
295
0
296
0
143
3.75
271
0
272
9
273
9
  0
DICTIONARY
  5
2D
330
A
100
AcDbDictionary
280
1
281
1
  3
CREATED_BY_EZDXF
350
2E
  3
WRITTEN_BY_EZDXF
350
267
  0
DICTIONARYVAR
  5
2E
330
2D
100
DictionaryVariables
280
0
  1
1.4.2 @ 2026-10-07T14:23:30.345824+00:00
  0
VISUALSTYLE
  5
5A
102
{ACAD_REACTORS
330
16
102
}
330
16
100
AcDbVisualStyle
  2
2dWireframe
 70
4
 90
0
 40
0.6
 62
7
290
0
291
0
  0
VISUALSTYLE
  5
5B
102
{ACAD_REACTORS
330
16
102
}
330
16
100
AcDbVisualStyle
  2
Basic
 70
7
 90
1
 40
0.6
 62
7
290
0
291
1
  0
VISUALSTYLE
  5
5C
102
{ACAD_REACTORS
330
16
102
}
330
16
100
AcDbVisualStyle
  2
Brighten
 70
12
 90
2
 40
0.6
 62
7
290
0
291
1
  0
VISUALSTYLE
  5
5D
102
{ACAD_REACTORS
330
16
102
}
330
16
100
AcDbVisualStyle
  2
ColorChange
 70
16
 90
2
 40
0.6
 62
8
290
0
291
1
  0
VISUALSTYLE
  5
5E
102
{ACAD_REACTORS
330
16
102
}
330
16
100
AcDbVisualStyle
  2
Conceptual
 70
9
 90
3
 40
0.6
 62
7
290
0
291
0
  0
VISUALSTYLE
  5
5F
102
{ACAD_REACTORS
330
16
102
}
330
16
100
AcDbVisualStyle
  2
Dim
 70
11
 90
2
 40
0.6
 62
7
290
0
291
1
  0
VISUALSTYLE
  5
60
102
{ACAD_REACTORS
330
16
102
}
330
16
100
AcDbVisualStyle
  2
EdgeColorOff
 70
22
 90
2
 40
0.6
 62
7
290
0
291
1
  0
VISUALSTYLE
  5
61
102
{ACAD_REACTORS
330
16
102
}
330
16
100
AcDbVisualStyle
  2
Facepattern
 70
15
 90
2
 40
0.6
 62
7
290
0
291
1
  0
VISUALSTYLE
  5
62
102
{ACAD_REACTORS
330
16
102
}
330
16
100
AcDbVisualStyle
  2
Flat
 70
0
 90
2
 40
0.6
 62
7
290
0
291
1
  0
VISUALSTYLE
  5
63
102
{ACAD_REACTORS
330
16
102
}
330
16
100
AcDbVisualStyle
  2
FlatWithEdges
 70
1
 90
2
 40
0.6
 62
7
290
0
291
1
  0
VISUALSTYLE
  5
64
102
{ACAD_REACTORS
330
16
102
}
330
16
100
AcDbVisualStyle
  2
Gouraud
 70
2
 90
2
 40
0.6
 62
7
290
0
291
1
  0
VISUALSTYLE
  5
65
102
{ACAD_REACTORS
330
16
102
}
330
16
100
AcDbVisualStyle
  2
GouraudWithEdges
 70
3
 90
2
 40
0.6
 62
7
290
0
291
1
  0
VISUALSTYLE
  5
66
102
{ACAD_REACTORS
330
16
102
}
330
16
100
AcDbVisualStyle
  2
Hidden
 70
6
 90
1
 40
0.6
 62
7
290
0
291
0
  0
VISUALSTYLE
  5
67
102
{ACAD_REACTORS
330
16
102
}
330
16
100
AcDbVisualStyle
  2
JitterOff
 70
20
 90
2
 40
0.6
 62
7
290
0
291
1
  0
VISUALSTYLE
  5
68
102
{ACAD_REACTORS
330
16
102
}
330
16
100
AcDbVisualStyle
  2
Linepattern
 70
14
 90
2
 40
0.6
 62
7
290
0
291
1
  0
VISUALSTYLE
  5
69
102
{ACAD_REACTORS
330
16
102
}
330
16
100
AcDbVisualStyle
  2
Modeling
 70
10
 90
2
 40
0.6
 62
7
290
0
291
0
  0
VISUALSTYLE
  5
6A
102
{ACAD_REACTORS
330
16
102
}
330
16
100
AcDbVisualStyle
  2
OverhangOff
 70
21
 90
2
 40
0.6
 62
7
290
0
291
1
  0
VISUALSTYLE
  5
6B
102
{ACAD_REACTORS
330
16
102
}
330
16
100
AcDbVisualStyle
  2
Realistic
 70
8
 90
2
 40
0.6
 62
7
290
0
291
0
  0
VISUALSTYLE
  5
6C
102
{ACAD_REACTORS
330
16
102
}
330
16
100
AcDbVisualStyle
  2
Shaded
 70
27
 90
2
 40
0.6
 62
7
290
0
291
0
  0
VISUALSTYLE
  5
6D
102
{ACAD_REACTORS
330
16
102
}
330
16
100
AcDbVisualStyle
  2
Shaded with edges
 70
26
 90
2
 40
0.6
 62
7
290
0
291
0
  0
VISUALSTYLE
  5
6E
102
{ACAD_REACTORS
330
16
102
}
330
16
100
AcDbVisualStyle
  2
Shades of Gray
 70
23
 90
2
 40
0.6
 62
7
290
0
291
0
  0
VISUALSTYLE
  5
6F
102
{ACAD_REACTORS
330
16
102
}
330
16
100
AcDbVisualStyle
  2
Sketchy
 70
24
 90
1
 40
0.6
 62
7
290
0
291
0
  0
VISUALSTYLE
  5
70
102
{ACAD_REACTORS
330
16
102
}
330
16
100
AcDbVisualStyle
  2
Thicken
 70
13
 90
2
 40
0.6
 62
7
290
0
291
1
  0
VISUALSTYLE
  5
71
102
{ACAD_REACTORS
330
16
102
}
330
16
100
AcDbVisualStyle
  2
Wireframe
 70
5
 90
0
 40
0.6
 62
7
290
0
291
0
  0
VISUALSTYLE
  5
72
102
{ACAD_REACTORS
330
16
102
}
330
16
100
AcDbVisualStyle
  2
X-Ray
 70
25
 90
2
 40
0.5
 62
7
290
0
291
0
  0
DICTIONARYVAR
  5
267
330
2D
100
DictionaryVariables
280
0
  1
1.4.2 @ 2026-10-07T14:23:30.412302+00:00
  0
ENDSEC
  0
EOF
