  0
SECTION
  2
HEADER
  9
$ACADVER
  1
AC1024
  9
$ACADMAINTVER
 70
6
  9
$DWGCODEPAGE
  3
ANSI_1252
  9
$LASTSAVEDBY
  1
ezdxf
  9
$INSBASE
 10
0.0
 20
0.0
 30
0.0
  9
$EXTMIN
 10
1e+20
 20
1e+20
 30
1e+20
  9
$EXTMAX
 10
-1e+20
 20
-1e+20
 30
-1e+20
  9
$LIMMIN
 10
0.0
 20
0.0
  9
$LIMMAX
 10
420.0
 20
297.0
  9
$ORTHOMODE
 70
0
  9
$REGENMODE
 70
1
  9
$FILLMODE
 70
1
  9
$QTEXTMODE
 70
0
  9
$MIRRTEXT
 70
1
  9
$LTSCALE
 40
1.0
  9
$ATTMODE
 70
1
  9
$TEXTSIZE
 40
2.5
  9
$TRACEWID
 40
1.0
  9
$TEXTSTYLE
  7
OpenSans
  9
$CLAYER
  8
0
  9
$CELTYPE
  6
ByLayer
  9
$CECOLOR
 62
256
  9
$CELTSCALE
 40
1.0
  9
$DISPSILH
 70
0
  9
$DIMSCALE
 40
1.0
  9
$DIMASZ
 40
0.175
  9
$DIMEXO
 40
0.125
  9
$DIMDLI
 40
3.75
  9
$DIMRND
 40
0.0
  9
$DIMDLE
 40
0.0
  9
$DIMEXE
 40
0.375
  9
$DIMTP
 40
0.0
  9
$DIMTM
 40
0.0
  9
$DIMTXT
 40
0.25
  9
$DIMCEN
 40
2.5
  9
$DIMTSZ
 40
0.0
  9
$DIMTOL
 70
0
  9
$DIMLIM
 70
0
  9
$DIMTIH
 70
0
  9
$DIMTOH
 70
0
  9
$DIMSE1
 70
0
  9
$DIMSE2
 70
0
  9
$DIMTAD
 70
1
  9
$DIMZIN
 70
12
  9
$DIMBLK
  1
ARCHTICK
  9
$DIMASO
 70
1
  9
$DIMSHO
 70
1
  9
$DIMPOST
  1

  9
$DIMAPOST
  1

  9
$DIMALT
 70
0
  9
$DIMALTD
 70
3
  9
$DIMALTF
 40
0.03937007874
  9
$DIMLFAC
 40
100.0
  9
$DIMTOFL
 70
1
  9
$DIMTVP
 40
0.0
  9
$DIMTIX
 70
0
  9
$DIMSOXD
 70
0
  9
$DIMSAH
 70
0
  9
$DIMBLK1
  1

  9
$DIMBLK2
  1

  9
$DIMSTYLE
  2
EZDXF
  9
$DIMCLRD
 70
0
  9
$DIMCLRE
 70
0
  9
$DIMCLRT
 70
0
  9
$DIMTFAC
 40
0.5
  9
$DIMGAP
 40
0.1
  9
$DIMJUST
 70
0
  9
$DIMSD1
 70
0
  9
$DIMSD2
 70
0
  9
$DIMTOLJ
 70
0
  9
$DIMTZIN
 70
8
  9
$DIMALTZ
 70
0
  9
$DIMALTTZ
 70
0
  9
$DIMUPT
 70
1
  9
$DIMDEC
 70
2
  9
$DIMTDEC
 70
2
  9
$DIMALTU
 70
2
  9
$DIMALTTD
 70
3
  9
$DIMTXSTY
  7
OpenSansCondensed-Light
  9
$DIMAUNIT
 70
0
  9
$DIMADEC
 70
2
  9
$DIMALTRND
 40
0.0
  9
$DIMAZIN
 70
3
  9
$DIMDSEP
 70
46
  9
$DIMATFIT
 70
3
  9
$DIMFRAC
 70
0
  9
$DIMLDRBLK
  1

  9
$DIMLUNIT
 70
2
  9
$DIMLWD
 70
-2
  9
$DIMLWE
 70
-2
  9
$DIMTMOVE
 70
2
  9
$DIMFXL
 40
1.0
  9
$DIMFXLON
 70
0
  9
$DIMJOGANG
 40
0.785398163397
  9
$DIMTFILL
 70
0
  9
$DIMTFILLCLR
 70
0
  9
$DIMARCSYM
 70
0
  9
$DIMLTYPE
  6

  9
$DIMLTEX1
  6

  9
$DIMLTEX2
  6

  9
$DIMTXTDIRECTION
 70
0
  9
$LUNITS
 70
4
  9
$LUPREC
 70
4
  9
$SKETCHINC
 40
1.0
  9
$FILLETRAD
 40
10.0
  9
$AUNITS
 70
0
  9
$AUPREC
 70
3
  9
$MENU
  1
.
  9
$ELEVATION
 40
0.0
  9
$PELEVATION
 40
0.0
  9
$THICKNESS
 40
0.0
  9
$LIMCHECK
 70
0
  9
$CHAMFERA
 40
0.0
  9
$CHAMFERB
 40
0.0
  9
$CHAMFERC
 40
0.0
  9
$CHAMFERD
 40
0.0
  9
$SKPOLY
 70
0
  9
$TDCREATE
 40
2461317.6860300926
  9
$TDUCREATE
 40
2458532.153996898
  9
$TDUPDATE
 40
2461317.6860300926
  9
$TDUUPDATE
 40
2458532.1544311
  9
$TDINDWG
 40
0.0
  9
$TDUSRTIMER
 40
0.0
  9
$USRTIMER
 70
1
  9
$ANGBASE
 50
0.0
  9
$ANGDIR
 70
0
  9
$PDMODE
 70
0
  9
$PDSIZE
 40
0.0
  9
$PLINEWID
 40
0.0
  9
$SPLFRAME
 70
0
  9
$SPLINETYPE
 70
6
  9
$SPLINESEGS
 70
8
  9
$HANDSEED
  5
148
  9
$SURFTAB1
 70
6
  9
$SURFTAB2
 70
6
  9
$SURFTYPE
 70
6
  9
$SURFU
 70
6
  9
$SURFV
 70
6
  9
$UCSBASE
  2

  9
$UCSNAME
  2

  9
$UCSORG
 10
0.0
 20
0.0
 30
0.0
  9
$UCSXDIR
 10
1.0
 20
0.0
 30
0.0
  9
$UCSYDIR
 10
0.0
 20
1.0
 30
0.0
  9
$UCSORTHOREF
  2

  9
$UCSORTHOVIEW
 70
0
  9
$UCSORGTOP
 10
0.0
 20
0.0
 30
0.0
  9
$UCSORGBOTTOM
 10
0.0
 20
0.0
 30
0.0
  9
$UCSORGLEFT
 10
0.0
 20
0.0
 30
0.0
  9
$UCSORGRIGHT
 10
0.0
 20
0.0
 30
0.0
  9
$UCSORGFRONT
 10
0.0
 20
0.0
 30
0.0
  9
$UCSORGBACK
 10
0.0
 20
0.0
 30
0.0
  9
$PUCSBASE
  2

  9
$PUCSNAME
  2

  9
$PUCSORG
 10
0.0
 20
0.0
 30
0.0
  9
$PUCSXDIR
 10
1.0
 20
0.0
 30
0.0
  9
$PUCSYDIR
 10
0.0
 20
1.0
 30
0.0
  9
$PUCSORTHOREF
  2

  9
$PUCSORTHOVIEW
 70
0
  9
$PUCSORGTOP
 10
0.0
 20
0.0
 30
0.0
  9
$PUCSORGBOTTOM
 10
0.0
 20
0.0
 30
0.0
  9
$PUCSORGLEFT
 10
0.0
 20
0.0
 30
0.0
  9
$PUCSORGRIGHT
 10
0.0
 20
0.0
 30
0.0
  9
$PUCSORGFRONT
 10
0.0
 20
0.0
 30
0.0
  9
$PUCSORGBACK
 10
0.0
 20
0.0
 30
0.0
  9
$USERI1
 70
0
  9
$USERI2
 70
0
  9
$USERI3
 70
0
  9
$USERI4
 70
0
  9
$USERI5
 70
0
  9
$USERR1
 40
0.0
  9
$USERR2
 40
0.0
  9
$USERR3
 40
0.0
  9
$USERR4
 40
0.0
  9
$USERR5
 40
0.0
  9
$WORLDVIEW
 70
1
  9
$SHADEDGE
 70
3
  9
$SHADEDIF
 70
70
  9
$TILEMODE
 70
1
  9
$MAXACTVP
 70
64
  9
$PINSBASE
 10
0.0
 20
0.0
 30
0.0
  9
$PLIMCHECK
 70
0
  9
$PEXTMIN
 10
1e+20
 20
1e+20
 30
1e+20
  9
$PEXTMAX
 10
-1e+20
 20
-1e+20
 30
-1e+20
  9
$PLIMMIN
 10
0.0
 20
0.0
  9
$PLIMMAX
 10
420.0
 20
297.0
  9
$UNITMODE
 70
0
  9
$VISRETAIN
 70
1
  9
$PLINEGEN
 70
0
  9
$PSLTSCALE
 70
1
  9
$TREEDEPTH
 70
3020
  9
$CMLSTYLE
  2
Standard
  9
$CMLJUST
 70
0
  9
$CMLSCALE
 40
20.0
  9
$PROXYGRAPHICS
 70
1
  9
$MEASUREMENT
 70
0
  9
$CELWEIGHT
370
-1
  9
$ENDCAPS
280
0
  9
$JOINSTYLE
280
0
  9
$LWDISPLAY
290
0
  9
$INSUNITS
 70
1
  9
$HYPERLINKBASE
  1

  9
$STYLESHEET
  1

  9
$XEDIT
290
1
  9
$CEPSNTYPE
380
0
  9
$PSTYLEMODE
290
1
  9
$FINGERPRINTGUID
  2
{6268E5B5-60BB-41D3-94EC-CA7D9CDC91F8}
  9
$VERSIONGUID
  2
{1DDA451D-4BC2-4517-A2BE-801415567B46}
  9
$EXTNAMES
290
1
  9
$PSVPSCALE
 40
0.0
  9
$OLESTARTUP
290
0
  9
$SORTENTS
280
127
  9
$INDEXCTL
280
0
  9
$HIDETEXT
280
1
  9
$XCLIPFRAME
280
1
  9
$HALOGAP
280
0
  9
$OBSCOLOR
 70
257
  9
$OBSLTYPE
280
0
  9
$INTERSECTIONDISPLAY
280
0
  9
$INTERSECTIONCOLOR
 70
257
  9
$DIMASSOC
280
2
  9
$PROJECTNAME
  1

  9
$CAMERADISPLAY
290
0
  9
$LENSLENGTH
 40
50.0
  9
$CAMERAHEIGHT
 40
0.0
  9
$STEPSPERSEC
 40
24.0
  9
$STEPSIZE
 40
100.0
  9
$3DDWFPREC
 40
2.0
  9
$PSOLWIDTH
 40
0.005
  9
$PSOLHEIGHT
 40
0.08
  9
$LOFTANG1
 40
1.570796326795
  9
$LOFTANG2
 40
1.570796326795
  9
$LOFTMAG1
 40
0.0
  9
$LOFTMAG2
 40
0.0
  9
$LOFTPARAM
 70
7
  9
$LOFTNORMALS
280
1
  9
$LATITUDE
 40
37.795
  9
$LONGITUDE
 40
-122.394
  9
$NORTHDIRECTION
 40
0.0
  9
$TIMEZONE
 70
-8000
  9
$LIGHTGLYPHDISPLAY
280
1
  9
$TILEMODELIGHTSYNCH
280
1
  9
$CMATERIAL
347
20
  9
$SOLIDHIST
280
0
  9
$SHOWHIST
280
1
  9
$DWFFRAME
280
2
  9
$DGNFRAME
280
2
  9
$REALWORLDSCALE
290
1
  9
$INTERFERECOLOR
 62
256
  9
$CSHADOW
280
0
  9
$SHADOWPLANELOCATION
 40
0.0
  0
ENDSEC
  0
SECTION
  2
CLASSES
  0
CLASS
  1
ACDBDICTIONARYWDFLT
  2
AcDbDictionaryWithDefault
  3
ObjectDBX Classes
 90
0
 91
0
280
0
281
0
  0
CLASS
  1
SUN
  2
AcDbSun
  3
SCENEOE
 90
1153
 91
0
280
0
281
0
  0
CLASS
  1
VISUALSTYLE
  2
AcDbVisualStyle
  3
ObjectDBX Classes
 90
4095
 91
0
280
0
281
0
  0
CLASS
  1
MATERIAL
  2
AcDbMaterial
  3
ObjectDBX Classes
 90
1153
 91
0
280
0
281
0
  0
CLASS
  1
SCALE
  2
AcDbScale
  3
ObjectDBX Classes
 90
1153
 91
0
280
0
281
0
  0
CLASS
  1
TABLESTYLE
  2
AcDbTableStyle
  3
ObjectDBX Classes
 90
4095
 91
0
280
0
281
0
  0
CLASS
  1
MLEADERSTYLE
  2
AcDbMLeaderStyle
  3
ACDB_MLEADERSTYLE_CLASS
 90
4095
 91
0
280
0
281
0
  0
CLASS
  1
DICTIONARYVAR
  2
AcDbDictionaryVar
  3
ObjectDBX Classes
 90
0
 91
0
280
0
281
0
  0
CLASS
  1
CELLSTYLEMAP
  2
AcDbCellStyleMap
  3
ObjectDBX Classes
 90
1152
 91
0
280
0
281
0
  0
CLASS
  1
MENTALRAYRENDERSETTINGS
  2
AcDbMentalRayRenderSettings
  3
SCENEOE
 90
1024
 91
0
280
0
281
0
  0
CLASS
  1
ACDBDETAILVIEWSTYLE
  2
AcDbDetailViewStyle
  3
ObjectDBX Classes
 90
1025
 91
0
280
0
281
0
  0
CLASS
  1
ACDBSECTIONVIEWSTYLE
  2
AcDbSectionViewStyle
  3
ObjectDBX Classes
 90
1025
 91
0
280
0
281
0
  0
CLASS
  1
RASTERVARIABLES
  2
AcDbRasterVariables
  3
ISM
 90
0
 91
0
280
0
281
0
  0
CLASS
  1
ACDBPLACEHOLDER
  2
AcDbPlaceHolder
  3
ObjectDBX Classes
 90
0
 91
0
280
0
281
0
  0
CLASS
  1
LAYOUT
  2
AcDbLayout
  3
ObjectDBX Classes
 90
0
 91
0
280
0
281
0
  0
ENDSEC
  0
SECTION
  2
TABLES
  0
TABLE
  2
VPORT
  5
8
330
0
100
AcDbSymbolTable
 70
1
  0
VPORT
  5
23
330
8
100
AcDbSymbolTableRecord
100
AcDbViewportTableRecord
  2
*Active
 70
0
 10
0.0
 20
0.0
 11
1.0
 21
1.0
 12
0.0
 22
0.0
 13
0.0
 23
0.0
 14
0.5
 24
0.5
 15
0.5
 25
0.5
 16
0.0
 26
0.0
 36
1.0
 17
0.0
 27
0.0
 37
0.0
 40
1000.0
 41
1.34
 42
50.0
 43
0.0
 44
0.0
 50
0.0
 51
0.0
 71
0
 72
1000
 73
1
 74
3
 75
0
 76
0
 77
0
 78
0
281
0
 65
0
146
0.0
  0
ENDTAB
  0
TABLE
  2
LTYPE
  5
2
330
0
100
AcDbSymbolTable
 70
21
  0
LTYPE
  5
24
330
2
100
AcDbSymbolTableRecord
100
AcDbLinetypeTableRecord
  2
ByBlock
 70
0
  3

 72
65
 73
0
 40
0.0
  0
LTYPE
  5
25
330
2
100
AcDbSymbolTableRecord
100
AcDbLinetypeTableRecord
  2
ByLayer
 70
0
  3

 72
65
 73
0
 40
0.0
  0
LTYPE
  5
26
330
2
100
AcDbSymbolTableRecord
100
AcDbLinetypeTableRecord
  2
Continuous
 70
0
  3

 72
65
 73
0
 40
0.0
  0
LTYPE
  5
2F
330
2
100
AcDbSymbolTableRecord
100
AcDbLinetypeTableRecord
  2
CENTER
 70
0
  3
Center ____ _ ____ _ ____ _ ____ _ ____ _ ____
 72
65
 73
4
 40
2.0
 49
1.25
 74
0
 49
-0.25
 74
0
 49
0.25
 74
0
 49
-0.25
 74
0
  0
LTYPE
  5
30
330
2
100
AcDbSymbolTableRecord
100
AcDbLinetypeTableRecord
  2
CENTERX2
 70
0
  3
Center (2x) ________  __  ________  __  ________
 72
65
 73
4
 40
3.5
 49
2.5
 74
0
 49
-0.25
 74
0
 49
0.5
 74
0
 49
-0.25
 74
0
  0
LTYPE
  5
31
330
2
100
AcDbSymbolTableRecord
100
AcDbLinetypeTableRecord
  2
CENTER2
 70
0
  3
Center (.5x) ____ _ ____ _ ____ _ ____ _ ____
 72
65
 73
4
 40
1.0
 49
0.625
 74
0
 49
-0.125
 74
0
 49
0.125
 74
0
 49
-0.125
 74
0
  0
LTYPE
  5
32
330
2
100
AcDbSymbolTableRecord
100
AcDbLinetypeTableRecord
  2
DASHED
 70
0
  3
Dashed __ __ __ __ __ __ __ __ __ __ __ __ __ _
 72
65
 73
2
 40
0.6
 49
0.5
 74
0
 49
-0.1
 74
0
  0
LTYPE
  5
33
330
2
100
AcDbSymbolTableRecord
100
AcDbLinetypeTableRecord
  2
DASHEDX2
 70
0
  3
Dashed (2x) ____  ____  ____  ____  ____  ____
 72
65
 73
2
 40
1.2
 49
1.0
 74
0
 49
-0.2
 74
0
  0
LTYPE
  5
34
330
2
100
AcDbSymbolTableRecord
100
AcDbLinetypeTableRecord
  2
DASHED2
 70
0
  3
Dashed (.5x) _ _ _ _ _ _ _ _ _ _ _ _ _ _
 72
65
 73
2
 40
0.3
 49
0.25
 74
0
 49
-0.05
 74
0
  0
LTYPE
  5
35
330
2
100
AcDbSymbolTableRecord
100
AcDbLinetypeTableRecord
  2
PHANTOM
 70
0
  3
Phantom ______  __  __  ______  __  __  ______
 72
65
 73
6
 40
2.5
 49
1.25
 74
0
 49
-0.25
 74
0
 49
0.25
 74
0
 49
-0.25
 74
0
 49
0.25
 74
0
 49
-0.25
 74
0
  0
LTYPE
  5
36
330
2
100
AcDbSymbolTableRecord
100
AcDbLinetypeTableRecord
  2
PHANTOMX2
 70
0
  3
Phantom (2x)____________    ____    ____    ____________
 72
65
 73
6
 40
4.25
 49
2.5
 74
0
 49
-0.25
 74
0
 49
0.5
 74
0
 49
-0.25
 74
0
 49
0.5
 74
0
 49
-0.25
 74
0
  0
LTYPE
  5
37
330
2
100
AcDbSymbolTableRecord
100
AcDbLinetypeTableRecord
  2
PHANTOM2
 70
0
  3
Phantom (.5x) ___ _ _ ___ _ _ ___ _ _ ___ _ _ ___
 72
65
 73
6
 40
1.25
 49
0.625
 74
0
 49
-0.125
 74
0
 49
0.125
 74
0
 49
-0.125
 74
0
 49
0.125
 74
0
 49
-0.125
 74
0
  0
LTYPE
  5
38
330
2
100
AcDbSymbolTableRecord
100
AcDbLinetypeTableRecord
  2
DASHDOT
 70
0
  3
Dash dot __ . __ . __ . __ . __ . __ . __ . __
 72
65
 73
4
 40
1.4
 49
1.0
 74
0
 49
-0.2
 74
0
 49
0.0
 74
0
 49
-0.2
 74
0
  0
LTYPE
  5
39
330
2
100
AcDbSymbolTableRecord
100
AcDbLinetypeTableRecord
  2
DASHDOTX2
 70
0
  3
Dash dot (2x) ____  .  ____  .  ____  .  ____
 72
65
 73
4
 40
2.4
 49
2.0
 74
0
 49
-0.2
 74
0
 49
0.0
 74
0
 49
-0.2
 74
0
  0
LTYPE
  5
3A
330
2
100
AcDbSymbolTableRecord
100
AcDbLinetypeTableRecord
  2
DASHDOT2
 70
0
  3
Dash dot (.5x) _ . _ . _ . _ . _ . _ . _ . _
 72
65
 73
4
 40
0.7
 49
0.5
 74
0
 49
-0.1
 74
0
 49
0.0
 74
0
 49
-0.1
 74
0
  0
LTYPE
  5
3B
330
2
100
AcDbSymbolTableRecord
100
AcDbLinetypeTableRecord
  2
DOT
 70
0
  3
Dot .  .  .  .  .  .  .  .  .  .  .  .  .  .  .  .
 72
65
 73
2
 40
0.2
 49
0.0
 74
0
 49
-0.2
 74
0
  0
LTYPE
  5
3C
330
2
100
AcDbSymbolTableRecord
100
AcDbLinetypeTableRecord
  2
DOTX2
 70
0
  3
Dot (2x) .    .    .    .    .    .    .    . 
 72
65
 73
2
 40
0.4
 49
0.0
 74
0
 49
-0.4
 74
0
  0
LTYPE
  5
3D
330
2
100
AcDbSymbolTableRecord
100
AcDbLinetypeTableRecord
  2
DOT2
 70
0
  3
Dot (.5) . . . . . . . . . . . . . . . . . . . 
 72
65
 73
2
 40
0.1
 49
0.0
 74
0
 49
-0.1
 74
0
  0
LTYPE
  5
3E
330
2
100
AcDbSymbolTableRecord
100
AcDbLinetypeTableRecord
  2
DIVIDE
 70
0
  3
Divide __ . . __ . . __ . . __ . . __ . . __
 72
65
 73
6
 40
1.6
 49
1.0
 74
0
 49
-0.2
 74
0
 49
0.0
 74
0
 49
-0.2
 74
0
 49
0.0
 74
0
 49
-0.2
 74
0
  0
LTYPE
  5
3F
330
2
100
AcDbSymbolTableRecord
100
AcDbLinetypeTableRecord
  2
DIVIDEX2
 70
0
  3
Divide (2x) ____  . .  ____  . .  ____  . .  ____
 72
65
 73
6
 40
2.6
 49
2.0
 74
0
 49
-0.2
 74
0
 49
0.0
 74
0
 49
-0.2
 74
0
 49
0.0
 74
0
 49
-0.2
 74
0
  0
LTYPE
  5
40
330
2
100
AcDbSymbolTableRecord
100
AcDbLinetypeTableRecord
  2
DIVIDE2
 70
0
  3
Divide(.5x) _ . _ . _ . _ . _ . _ . _ . _
 72
65
 73
6
 40
0.8
 49
0.5
 74
0
 49
-0.1
 74
0
 49
0.0
 74
0
 49
-0.1
 74
0
 49
0.0
 74
0
 49
-0.1
 74
0
  0
ENDTAB
  0
TABLE
  2
LAYER
  5
1
330
0
100
AcDbSymbolTable
 70
10
  0
LAYER
  5
27
330
1
100
AcDbSymbolTableRecord
100
AcDbLayerTableRecord
  2
0
 70
0
 62
7
  6
Continuous
370
-3
390
13
347
21
  0
LAYER
  5
28
330
1
100
AcDbSymbolTableRecord
100
AcDbLayerTableRecord
  2
Defpoints
 70
0
 62
7
  6
Continuous
290
0
370
-3
390
13
347
21
  0
LAYER
  5
8A
330
1
100
AcDbSymbolTableRecord
100
AcDbLayerTableRecord
  2
Bed wall elevation
 70
0
 62
7
  6
Continuous
370
-3
390
13
347
21
  0
LAYER
  5
8B
330
1
100
AcDbSymbolTableRecord
100
AcDbLayerTableRecord
  2
Bed wall elevation hatch
 70
0
 62
8
  6
Continuous
370
-3
390
13
347
21
  0
LAYER
  5
DF
330
1
100
AcDbSymbolTableRecord
100
AcDbLayerTableRecord
  2
Bed wall plan
 70
0
 62
7
  6
Continuous
370
-3
390
13
347
21
  0
LAYER
  5
E0
330
1
100
AcDbSymbolTableRecord
100
AcDbLayerTableRecord
  2
Bed wall plan hatch
 70
0
 62
8
  6
Continuous
370
-3
390
13
347
21
  0
LAYER
  5
F9
330
1
100
AcDbSymbolTableRecord
100
AcDbLayerTableRecord
  2
Bed wall section A-A
 70
0
 62
7
  6
Continuous
370
-3
390
13
347
21
  0
LAYER
  5
FA
330
1
100
AcDbSymbolTableRecord
100
AcDbLayerTableRecord
  2
Bed wall section A-A hatch
 70
0
 62
8
  6
Continuous
370
-3
390
13
347
21
  0
LAYER
  5
130
330
1
100
AcDbSymbolTableRecord
100
AcDbLayerTableRecord
  2
Entrance corner
 70
0
 62
7
  6
Continuous
370
-3
390
13
347
21
  0
LAYER
  5
131
330
1
100
AcDbSymbolTableRecord
100
AcDbLayerTableRecord
  2
Entrance corner hatch
 70
0
 62
8
  6
Continuous
370
-3
390
13
347
21
  0
ENDTAB
  0
TABLE
  2
STYLE
  5
5
330
0
100
AcDbSymbolTable
 70
26
  0
STYLE
  5
29
330
5
100
AcDbSymbolTableRecord
100
AcDbTextStyleTableRecord
  2
Standard
 70
0
 40
0.0
 41
1.0
 50
0.0
 71
0
 42
2.5
  3
txt
  4

  0
STYLE
  5
41
330
5
100
AcDbSymbolTableRecord
100
AcDbTextStyleTableRecord
  2
OpenSans-Light
 70
0
 40
0.0
 41
1.0
 50
0.0
 71
0
 42
2.5
  3
OpenSans-Light.ttf
  4

  0
STYLE
  5
42
330
5
100
AcDbSymbolTableRecord
100
AcDbTextStyleTableRecord
  2
OpenSans-Light-Italic
 70
0
 40
0.0
 41
1.0
 50
0.0
 71
0
 42
2.5
  3
OpenSans-LightItalic.ttf
  4

  0
STYLE
  5
43
330
5
100
AcDbSymbolTableRecord
100
AcDbTextStyleTableRecord
  2
OpenSans
 70
0
 40
0.0
 41
1.0
 50
0.0
 71
0
 42
2.5
  3
OpenSans-Regular.ttf
  4

  0
STYLE
  5
44
330
5
100
AcDbSymbolTableRecord
100
AcDbTextStyleTableRecord
  2
OpenSans-Italic
 70
0
 40
0.0
 41
1.0
 50
0.0
 71
0
 42
2.5
  3
OpenSans-Italic.ttf
  4

  0
STYLE
  5
45
330
5
100
AcDbSymbolTableRecord
100
AcDbTextStyleTableRecord
  2
OpenSans-SemiBold
 70
0
 40
0.0
 41
1.0
 50
0.0
 71
0
 42
2.5
  3
OpenSans-SemiBold.ttf
  4

  0
STYLE
  5
46
330
5
100
AcDbSymbolTableRecord
100
AcDbTextStyleTableRecord
  2
OpenSans-SemiBoldItalic
 70
0
 40
0.0
 41
1.0
 50
0.0
 71
0
 42
2.5
  3
OpenSans-SemiBoldItalic.ttf
  4

  0
STYLE
  5
47
330
5
100
AcDbSymbolTableRecord
100
AcDbTextStyleTableRecord
  2
OpenSans-Bold
 70
0
 40
0.0
 41
1.0
 50
0.0
 71
0
 42
2.5
  3
OpenSans-Bold.ttf
  4

  0
STYLE
  5
48
330
5
100
AcDbSymbolTableRecord
100
AcDbTextStyleTableRecord
  2
OpenSans-BoldItalic
 70
0
 40
0.0
 41
1.0
 50
0.0
 71
0
 42
2.5
  3
OpenSans-BoldItalic.ttf
  4

  0
STYLE
  5
49
330
5
100
AcDbSymbolTableRecord
100
AcDbTextStyleTableRecord
  2
OpenSans-ExtraBold
 70
0
 40
0.0
 41
1.0
 50
0.0
 71
0
 42
2.5
  3
OpenSans-ExtraBold.ttf
  4

  0
STYLE
  5
4A
330
5
100
AcDbSymbolTableRecord
100
AcDbTextStyleTableRecord
  2
OpenSans-ExtraBoldItalic
 70
0
 40
0.0
 41
1.0
 50
0.0
 71
0
 42
2.5
  3
OpenSans-ExtraBoldItalic.ttf
  4

  0
STYLE
  5
4B
330
5
100
AcDbSymbolTableRecord
100
AcDbTextStyleTableRecord
  2
OpenSansCondensed-Bold
 70
0
 40
0.0
 41
1.0
 50
0.0
 71
0
 42
2.5
  3
OpenSansCondensed-Bold.ttf
  4

  0
STYLE
  5
4C
330
5
100
AcDbSymbolTableRecord
100
AcDbTextStyleTableRecord
  2
OpenSansCondensed-Light
 70
0
 40
0.0
 41
1.0
 50
0.0
 71
0
 42
2.5
  3
OpenSansCondensed-Light.ttf
  4

  0
STYLE
  5
4D
330
5
100
AcDbSymbolTableRecord
100
AcDbTextStyleTableRecord
  2
OpenSansCondensed-Italic
 70
0
 40
0.0
 41
1.0
 50
0.0
 71
0
 42
2.5
  3
OpenSansCondensed-LightItalic.ttf
  4

  0
STYLE
  5
4E
330
5
100
AcDbSymbolTableRecord
100
AcDbTextStyleTableRecord
  2
LiberationSans
 70
0
 40
0.0
 41
1.0
 50
0.0
 71
0
 42
2.5
  3
LiberationSans-Regular.ttf
  4

  0
STYLE
  5
4F
330
5
100
AcDbSymbolTableRecord
100
AcDbTextStyleTableRecord
  2
LiberationSans-Bold
 70
0
 40
0.0
 41
1.0
 50
0.0
 71
0
 42
2.5
  3
LiberationSans-Bold.ttf
  4

  0
STYLE
  5
50
330
5
100
AcDbSymbolTableRecord
100
AcDbTextStyleTableRecord
  2
LiberationSans-BoldItalic
 70
0
 40
0.0
 41
1.0
 50
0.0
 71
0
 42
2.5
  3
LiberationSans-BoldItalic.ttf
  4

  0
STYLE
  5
51
330
5
100
AcDbSymbolTableRecord
100
AcDbTextStyleTableRecord
  2
LiberationSans-Italic
 70
0
 40
0.0
 41
1.0
 50
0.0
 71
0
 42
2.5
  3
LiberationSans-Italic.ttf
  4

  0
STYLE
  5
52
330
5
100
AcDbSymbolTableRecord
100
AcDbTextStyleTableRecord
  2
LiberationSerif
 70
0
 40
0.0
 41
1.0
 50
0.0
 71
0
 42
2.5
  3
LiberationSerif-Regular.ttf
  4

  0
STYLE
  5
53
330
5
100
AcDbSymbolTableRecord
100
AcDbTextStyleTableRecord
  2
LiberationSerif-Bold
 70
0
 40
0.0
 41
1.0
 50
0.0
 71
0
 42
2.5
  3
LiberationSerif-Bold.ttf
  4

  0
STYLE
  5
54
330
5
100
AcDbSymbolTableRecord
100
AcDbTextStyleTableRecord
  2
LiberationSerif-BoldItalic
 70
0
 40
0.0
 41
1.0
 50
0.0
 71
0
 42
2.5
  3
LiberationSerif-BoldItalic.ttf
  4

  0
STYLE
  5
55
330
5
100
AcDbSymbolTableRecord
100
AcDbTextStyleTableRecord
  2
LiberationSerif-Italic
 70
0
 40
0.0
 41
1.0
 50
0.0
 71
0
 42
2.5
  3
LiberationSerif-Italic.ttf
  4

  0
STYLE
  5
56
330
5
100
AcDbSymbolTableRecord
100
AcDbTextStyleTableRecord
  2
LiberationMono
 70
0
 40
0.0
 41
1.0
 50
0.0
 71
0
 42
2.5
  3
LiberationMono-Regular.ttf
  4

  0
STYLE
  5
57
330
5
100
AcDbSymbolTableRecord
100
AcDbTextStyleTableRecord
  2
LiberationMono-Bold
 70
0
 40
0.0
 41
1.0
 50
0.0
 71
0
 42
2.5
  3
LiberationMono-Bold.ttf
  4

  0
STYLE
  5
58
330
5
100
AcDbSymbolTableRecord
100
AcDbTextStyleTableRecord
  2
LiberationMono-BoldItalic
 70
0
 40
0.0
 41
1.0
 50
0.0
 71
0
 42
2.5
  3
LiberationMono-BoldItalic.ttf
  4

  0
STYLE
  5
59
330
5
100
AcDbSymbolTableRecord
100
AcDbTextStyleTableRecord
  2
LiberationMono-Italic
 70
0
 40
0.0
 41
1.0
 50
0.0
 71
0
 42
2.5
  3
LiberationMono-Italic.ttf
  4

  0
ENDTAB
  0
TABLE
  2
VIEW
  5
7
330
0
100
AcDbSymbolTable
 70
0
  0
ENDTAB
  0
TABLE
  2
UCS
  5
6
330
0
100
AcDbSymbolTable
 70
0
  0
ENDTAB
  0
TABLE
  2
APPID
  5
3
330
0
100
AcDbSymbolTable
 70
3
  0
APPID
  5
2A
330
3
100
AcDbSymbolTableRecord
100
AcDbRegAppTableRecord
  2
ACAD
 70
0
  0
APPID
  5
145
330
3
100
AcDbSymbolTableRecord
100
AcDbRegAppTableRecord
  2
HATCHBACKGROUNDCOLOR
 70
0
  0
APPID
  5
146
330
3
100
AcDbSymbolTableRecord
100
AcDbRegAppTableRecord
  2
EZDXF
 70
0
  0
ENDTAB
  0
TABLE
  2
DIMSTYLE
  5
4
330
0
100
AcDbSymbolTable
 70
12
100
AcDbDimStyleTable
  0
DIMSTYLE
105
2B
330
4
100
AcDbSymbolTableRecord
100
AcDbDimStyleTableRecord
  2
Standard
 70
0
 40
1.0
 41
2.5
 42
0.625
 43
3.75
 44
1.25
 45
0.0
 46
0.0
 47
0.0
 48
0.0
 49
2.5
140
2.5
141
2.5
142
0.0
143
0.03937007874
144
1.0
145
0.0
146
1.0
147
0.625
148
0.0
 69
0
 70
0
 71
0
 72
0
 73
0
 74
0
 75
0
 76
0
 77
1
 78
8
 79
3
170
0
171
3
172
1
173
0
174
0
175
0
176
0
177
0
178
0
179
2
271
2
272
2
273
2
274
3
275
0
276
0
277
2
278
44
279
0
280
0
281
0
282
0
283
0
284
8
285
0
286
0
288
0
289
3
290
0
371
-2
372
-2
  0
DIMSTYLE
105
73
330
4
100
AcDbSymbolTableRecord
100
AcDbDimStyleTableRecord
  2
EZDXF
 70
0
 40
1.0
 41
0.175
 42
0.125
 43
3.75
 44
0.375
 45
0.0
 46
0.0
 47
0.0
 48
0.0
 49
2.5
140
0.25
141
2.5
142
0.0
143
0.03937007874
144
100.0
145
0.0
146
0.5
147
0.1
148
0.0
 69
0
 70
0
 71
0
 72
0
 73
0
 74
0
 75
0
 76
0
 77
1
 78
12
 79
3
170
0
171
3
172
1
173
0
174
0
175
0
176
0
177
0
178
0
179
2
271
2
272
2
273
2
274
3
275
0
276
0
277
2
278
46
279
2
280
0
281
0
282
0
283
0
284
8
285
0
286
0
288
1
289
3
290
0
340
4C
342
74
371
-2
372
-2
  0
DIMSTYLE
105
7C
330
4
100
AcDbSymbolTableRecord
100
AcDbDimStyleTableRecord
  2
EZ_M_100_H25_CM
 70
0
 40
1.0
 41
0.25
 42
0.125
 43
3.75
 44
0.375
 45
0.0
 46
0.0
 47
0.0
 48
0.0
 49
2.5
140
0.25
141
2.5
142
0.125
143
0.03937007874
144
100.0
145
0.0
146
0.5
147
0.1
148
0.0
 69
0
 70
0
 71
0
 72
0
 73
0
 74
0
 75
0
 76
0
 77
1
 78
12
 79
3
170
0
171
3
172
1
173
0
174
0
175
0
176
0
177
0
178
0
179
2
271
2
272
2
273
2
274
3
275
0
276
0
277
2
278
46
279
2
280
0
281
0
282
0
283
0
284
8
285
0
286
0
288
1
289
3
290
0
340
4C
371
-2
372
-2
  0
DIMSTYLE
105
7D
330
4
100
AcDbSymbolTableRecord
100
AcDbDimStyleTableRecord
  2
EZ_M_50_H25_CM
 70
0
 40
1.0
 41
0.125
 42
0.0625
 43
3.75
 44
0.1875
 45
0.0
 46
0.0
 47
0.0
 48
0.0
 49
2.5
140
0.125
141
2.5
142
0.0625
143
0.03937007874
144
100.0
145
0.0
146
0.5
147
0.05
148
0.0
 69
0
 70
0
 71
0
 72
0
 73
0
 74
0
 75
0
 76
0
 77
1
 78
12
 79
3
170
0
171
3
172
1
173
0
174
0
175
0
176
0
177
0
178
0
179
2
271
2
272
2
273
2
274
3
275
0
276
0
277
2
278
46
279
2
280
0
281
0
282
0
283
0
284
8
285
0
286
0
288
1
289
3
290
0
340
4C
371
-2
372
-2
  0
DIMSTYLE
105
7E
330
4
100
AcDbSymbolTableRecord
100
AcDbDimStyleTableRecord
  2
EZ_M_25_H25_CM
 70
0
 40
1.0
 41
0.0625
 42
0.03125
 43
3.75
 44
0.09375
 45
0.0
 46
0.0
 47
0.0
 48
0.0
 49
2.5
140
0.0625
141
2.5
142
0.03125
143
0.03937007874
144
100.0
145
0.0
146
0.5
147
0.025
148
0.0
 69
0
 70
0
 71
0
 72
0
 73
0
 74
0
 75
0
 76
0
 77
1
 78
12
 79
3
170
0
171
3
172
1
173
0
174
0
175
0
176
0
177
0
178
0
179
2
271
2
272
2
273
2
274
3
275
0
276
0
277
2
278
46
279
2
280
0
281
0
282
0
283
0
284
8
285
0
286
0
288
1
289
3
290
0
340
4C
371
-2
372
-2
  0
DIMSTYLE
105
7F
330
4
100
AcDbSymbolTableRecord
100
AcDbDimStyleTableRecord
  2
EZ_M_20_H25_CM
 70
0
 40
1.0
 41
0.05
 42
0.025
 43
3.75
 44
0.07500000000000001
 45
0.0
 46
0.0
 47
0.0
 48
0.0
 49
2.5
140
0.05
141
2.5
142
0.025
143
0.03937007874
144
100.0
145
0.0
146
0.5
147
0.020000000000000004
148
0.0
 69
0
 70
0
 71
0
 72
0
 73
0
 74
0
 75
0
 76
0
 77
1
 78
12
 79
3
170
0
171
3
172
1
173
0
174
0
175
0
176
0
177
0
178
0
179
2
271
2
272
2
273
2
274
3
275
0
276
0
277
2
278
46
279
2
280
0
281
0
282
0
283
0
284
8
285
0
286
0
288
1
289
3
290
0
340
4C
371
-2
372
-2
  0
DIMSTYLE
105
80
330
4
100
AcDbSymbolTableRecord
100
AcDbDimStyleTableRecord
  2
EZ_M_10_H25_CM
 70
0
 40
1.0
 41
0.025
 42
0.0125
 43
3.75
 44
0.037500000000000006
 45
0.0
 46
0.0
 47
0.0
 48
0.0
 49
2.5
140
0.025
141
2.5
142
0.0125
143
0.03937007874
144
100.0
145
0.0
146
0.5
147
0.010000000000000002
148
0.0
 69
0
 70
0
 71
0
 72
0
 73
0
 74
0
 75
0
 76
0
 77
1
 78
12
 79
3
170
0
171
3
172
1
173
0
174
0
175
0
176
0
177
0
178
0
179
2
271
2
272
2
273
2
274
3
275
0
276
0
277
2
278
46
279
2
280
0
281
0
282
0
283
0
284
8
285
0
286
0
288
1
289
3
290
0
340
4C
371
-2
372
-2
  0
DIMSTYLE
105
81
330
4
100
AcDbSymbolTableRecord
100
AcDbDimStyleTableRecord
  2
EZ_M_5_H25_CM
 70
0
 40
1.0
 41
0.0125
 42
0.00625
 43
3.75
 44
0.018750000000000003
 45
0.0
 46
0.0
 47
0.0
 48
0.0
 49
2.5
140
0.0125
141
2.5
142
0.00625
143
0.03937007874
144
100.0
145
0.0
146
0.5
147
0.005000000000000001
148
0.0
 69
0
 70
0
 71
0
 72
0
 73
0
 74
0
 75
0
 76
0
 77
1
 78
12
 79
3
170
0
171
3
172
1
173
0
174
0
175
0
176
0
177
0
178
0
179
2
271
2
272
2
273
2
274
3
275
0
276
0
277
2
278
46
279
2
280
0
281
0
282
0
283
0
284
8
285
0
286
0
288
1
289
3
290
0
340
4C
371
-2
372
-2
  0
DIMSTYLE
105
82
330
4
100
AcDbSymbolTableRecord
100
AcDbDimStyleTableRecord
  2
EZ_M_1_H25_CM
 70
0
 40
1.0
 41
0.0025
 42
0.00125
 43
3.75
 44
0.00375
 45
0.0
 46
0.0
 47
0.0
 48
0.0
 49
2.5
140
0.0025
141
2.5
142
0.00125
143
0.03937007874
144
100.0
145
0.0
146
0.5
147
0.001
148
0.0
 69
0
 70
0
 71
0
 72
0
 73
0
 74
0
 75
0
 76
0
 77
1
 78
12
 79
3
170
0
171
3
172
1
173
0
174
0
175
0
176
0
177
0
178
0
179
2
271
2
272
2
273
2
274
3
275
0
276
0
277
2
278
46
279
2
280
0
281
0
282
0
283
0
284
8
285
0
286
0
288
1
289
3
290
0
340
4C
371
-2
372
-2
  0
DIMSTYLE
105
83
330
4
100
AcDbSymbolTableRecord
100
AcDbDimStyleTableRecord
  2
EZ_RADIUS
 70
0
 40
1.0
 41
0.25
 42
0.125
 43
3.75
 44
0.375
 45
0.0
 46
0.0
 47
0.0
 48
0.0
 49
2.5
140
0.25
141
0.0
142
0.0
143
0.03937007874
144
100.0
145
0.0
146
0.5
147
0.1
148
0.0
 69
0
 70
0
 71
0
 72
0
 73
0
 74
0
 75
0
 76
0
 77
1
 78
12
 79
3
170
0
171
3
172
0
173
0
174
0
175
0
176
0
177
0
178
0
179
2
271
2
272
2
273
2
274
3
275
0
276
0
277
2
278
46
279
1
280
0
281
0
282
0
283
0
284
8
285
0
286
0
288
1
289
3
290
0
340
4C
342
84
371
-2
372
-2
  0
DIMSTYLE
105
88
330
4
100
AcDbSymbolTableRecord
100
AcDbDimStyleTableRecord
  2
EZ_RADIUS_INSIDE
 70
0
 40
1.0
 41
0.25
 42
0.125
 43
3.75
 44
0.375
 45
0.0
 46
0.0
 47
0.0
 48
0.0
 49
2.5
140
0.25
141
0.0
142
0.0
143
0.03937007874
144
100.0
145
0.0
146
0.5
147
0.1
148
0.0
 69
0
 70
0
 71
0
 72
0
 73
0
 74
0
 75
0
 76
0
 77
0
 78
12
 79
3
170
0
171
3
172
0
173
0
174
1
175
0
176
0
177
0
178
0
179
2
271
2
272
2
273
2
274
3
275
0
276
0
277
2
278
46
279
0
280
0
281
0
282
0
283
0
284
8
285
0
286
0
288
1
289
0
290
0
340
4C
342
84
371
-2
372
-2
  0
DIMSTYLE
105
89
330
4
100
AcDbSymbolTableRecord
100
AcDbDimStyleTableRecord
  2
EZ_CURVED
 70
0
 40
1.0
 41
0.25
 42
0.125
 43
3.75
 44
0.375
 45
0.0
 46
0.0
 47
0.0
 48
0.0
 49
2.5
140
0.25
141
2.5
142
0.0
143
0.03937007874
144
100.0
145
0.0
146
0.5
147
0.1
148
0.0
 69
0
 70
0
 71
0
 72
0
 73
0
 74
0
 75
0
 76
0
 77
1
 78
12
 79
2
 90
2
170
0
171
3
172
1
173
0
174
0
175
0
176
0
177
0
178
0
179
2
271
2
272
2
273
2
274
3
275
0
276
0
277
2
278
46
279
2
280
0
281
0
282
0
283
0
284
8
285
0
286
0
288
1
289
3
290
0
340
4C
371
-2
372
-2
  0
ENDTAB
  0
TABLE
  2
BLOCK_RECORD
  5
9
330
0
100
AcDbSymbolTable
 70
5
  0
BLOCK_RECORD
  5
17
330
9
100
AcDbSymbolTableRecord
100
AcDbBlockTableRecord
  2
*Model_Space
340
1A
 70
0
280
1
281
0
  0
BLOCK_RECORD
  5
1B
330
9
100
AcDbSymbolTableRecord
100
AcDbBlockTableRecord
  2
*Paper_Space
340
1E
 70
0
280
1
281
0
  0
BLOCK_RECORD
  5
74
330
9
100
AcDbSymbolTableRecord
100
AcDbBlockTableRecord
  2
_ARCHTICK
340
0
 70
0
280
1
281
0
  0
BLOCK_RECORD
  5
78
330
9
100
AcDbSymbolTableRecord
100
AcDbBlockTableRecord
  2
_CLOSEDFILLED
340
0
 70
0
280
1
281
0
  0
BLOCK_RECORD
  5
84
330
9
100
AcDbSymbolTableRecord
100
AcDbBlockTableRecord
  2
_CLOSEDBLANK
340
0
 70
0
280
1
281
0
  0
ENDTAB
  0
ENDSEC
  0
SECTION
  2
BLOCKS
  0
BLOCK
  5
18
330
17
100
AcDbEntity
  8
0
100
AcDbBlockBegin
  2
*Model_Space
 70
0
 10
0.0
 20
0.0
 30
0.0
  3
*Model_Space
  1

  0
ENDBLK
  5
19
330
17
100
AcDbEntity
  8
0
100
AcDbBlockEnd
  0
BLOCK
  5
1C
330
1B
100
AcDbEntity
  8
0
100
AcDbBlockBegin
  2
*Paper_Space
 70
0
 10
0.0
 20
0.0
 30
0.0
  3
*Paper_Space
  1

  0
ENDBLK
  5
1D
330
1B
100
AcDbEntity
  8
0
100
AcDbBlockEnd
  0
BLOCK
  5
75
330
74
100
AcDbEntity
  8
0
100
AcDbBlockBegin
  2
_ARCHTICK
 70
0
 10
0.0
 20
0.0
 30
0.0
  3
_ARCHTICK
  1

  0
LWPOLYLINE
  5
77
330
74
100
AcDbEntity
  8
0
  6
BYBLOCK
 62
0
100
AcDbPolyline
 90
2
 70
0
 43
0.15
 10
-0.5
 20
-0.5
 10
0.5
 20
0.5
  0
ENDBLK
  5
76
330
74
100
AcDbEntity
  8
0
100
AcDbBlockEnd
  0
BLOCK
  5
79
330
78
100
AcDbEntity
  8
0
100
AcDbBlockBegin
  2
_CLOSEDFILLED
 70
0
 10
0.0
 20
0.0
 30
0.0
  3
_CLOSEDFILLED
  1

  0
SOLID
  5
7B
330
78
100
AcDbEntity
  8
0
  6
BYBLOCK
 62
0
100
AcDbTrace
 10
-1.0
 20
0.16439898372402537
 30
0.0
 11
0.0
 21
0.0
 31
0.0
 12
-1.0
 22
-0.16439898372402537
 32
0.0
 13
-1.0
 23
-0.16439898372402537
 33
0.0
  0
ENDBLK
  5
7A
330
78
100
AcDbEntity
  8
0
100
AcDbBlockEnd
  0
BLOCK
  5
85
330
84
100
AcDbEntity
  8
0
100
AcDbBlockBegin
  2
_CLOSEDBLANK
 70
0
 10
0.0
 20
0.0
 30
0.0
  3
_CLOSEDBLANK
  1

  0
LWPOLYLINE
  5
87
330
84
100
AcDbEntity
  8
0
  6
BYBLOCK
 62
0
100
AcDbPolyline
 90
3
 70
1
 10
-1.0
 20
0.16439898372402537
 10
0.0
 20
0.0
 10
-1.0
 20
-0.16439898372402537
  0
ENDBLK
  5
86
330
84
100
AcDbEntity
  8
0
100
AcDbBlockEnd
  0
ENDSEC
  0
SECTION
  2
ENTITIES
  0
LWPOLYLINE
  5
8C
330
17
100
AcDbEntity
  8
Bed wall elevation
100
AcDbPolyline
 90
5
 70
0
 10
5.905511811023622
 20
109.01574803149606
 10
191.88976377952756
 20
109.01574803149606
 10
191.88976377952756
 20
0.0
 10
5.905511811023622
 20
0.0
 10
5.905511811023622
 20
109.01574803149606
  0
LINE
  5
8D
330
17
100
AcDbEntity
  8
Bed wall elevation
100
AcDbLine
 10
7.283464566929133
 20
109.01574803149606
 30
0.0
 11
7.283464566929133
 21
4.015748031496063
 31
0.0
  0
LINE
  5
8E
330
17
100
AcDbEntity
  8
Bed wall elevation
100
AcDbLine
 10
178.50393700787401
 20
109.01574803149606
 30
0.0
 11
178.50393700787401
 21
4.015748031496063
 31
0.0
  0
LINE
  5
8F
330
17
100
AcDbEntity
  8
Bed wall elevation
100
AcDbLine
 10
57.460629921259844
 20
109.01574803149606
 30
0.0
 11
57.460629921259844
 21
84.01574803149606
 31
0.0
  0
LINE
  5
90
330
17
100
AcDbEntity
  8
Bed wall elevation
100
AcDbLine
 10
128.32677165354332
 20
109.01574803149606
 30
0.0
 11
128.32677165354332
 21
84.01574803149606
 31
0.0
  0
LINE
  5
91
330
17
100
AcDbEntity
  8
Bed wall elevation
100
AcDbLine
 10
35.34094488188976
 20
109.01574803149606
 30
0.0
 11
35.34094488188976
 21
4.015748031496063
 31
0.0
  0
LINE
  5
92
330
17
100
AcDbEntity
  8
Bed wall elevation
100
AcDbLine
 10
33.89763779527559
 20
109.01574803149606
 30
0.0
 11
33.89763779527559
 21
4.015748031496063
 31
0.0
  0
LINE
  5
93
330
17
100
AcDbEntity
  8
Bed wall elevation
100
AcDbLine
 10
32.658267716535434
 20
109.01574803149606
 30
0.0
 11
32.658267716535434
 21
4.015748031496063
 31
0.0
  0
LINE
  5
94
330
17
100
AcDbEntity
  8
Bed wall elevation
100
AcDbLine
 10
31.707086614173228
 20
109.01574803149606
 30
0.0
 11
31.707086614173228
 21
4.015748031496063
 31
0.0
  0
LINE
  5
95
330
17
100
AcDbEntity
  8
Bed wall elevation
100
AcDbLine
 10
31.109448818897636
 20
109.01574803149606
 30
0.0
 11
31.109448818897636
 21
4.015748031496063
 31
0.0
  0
LINE
  5
96
330
17
100
AcDbEntity
  8
Bed wall elevation
100
AcDbLine
 10
30.905511811023622
 20
109.01574803149606
 30
0.0
 11
30.905511811023622
 21
4.015748031496063
 31
0.0
  0
LINE
  5
97
330
17
100
AcDbEntity
  8
Bed wall elevation
100
AcDbLine
 10
150.4464566929134
 20
109.01574803149606
 30
0.0
 11
150.4464566929134
 21
4.015748031496063
 31
0.0
  0
LINE
  5
98
330
17
100
AcDbEntity
  8
Bed wall elevation
100
AcDbLine
 10
151.88976377952756
 20
109.01574803149606
 30
0.0
 11
151.88976377952756
 21
4.015748031496063
 31
0.0
  0
LINE
  5
99
330
17
100
AcDbEntity
  8
Bed wall elevation
100
AcDbLine
 10
153.12913385826772
 20
109.01574803149606
 30
0.0
 11
153.12913385826772
 21
4.015748031496063
 31
0.0
  0
LINE
  5
9A
330
17
100
AcDbEntity
  8
Bed wall elevation
100
AcDbLine
 10
154.08031496062992
 20
109.01574803149606
 30
0.0
 11
154.08031496062992
 21
4.015748031496063
 31
0.0
  0
LINE
  5
9B
330
17
100
AcDbEntity
  8
Bed wall elevation
100
AcDbLine
 10
154.67795275590552
 20
109.01574803149606
 30
0.0
 11
154.67795275590552
 21
4.015748031496063
 31
0.0
  0
LINE
  5
9C
330
17
100
AcDbEntity
  8
Bed wall elevation
100
AcDbLine
 10
154.88188976377953
 20
109.01574803149606
 30
0.0
 11
154.88188976377953
 21
4.015748031496063
 31
0.0
  0
LWPOLYLINE
  5
9D
330
17
100
AcDbEntity
  8
Bed wall elevation
100
AcDbPolyline
 90
5
 70
0
 10
36.889763779527556
 20
84.01574803149606
 10
148.89763779527559
 20
84.01574803149606
 10
148.89763779527559
 20
0.0
 10
36.889763779527556
 20
0.0
 10
36.889763779527556
 20
84.01574803149606
  0
LINE
  5
9E
330
17
100
AcDbEntity
  8
Bed wall elevation
100
AcDbLine
 10
59.29133858267716
 20
84.01574803149606
 30
0.0
 11
59.29133858267716
 21
4.015748031496063
 31
0.0
  0
LINE
  5
9F
330
17
100
AcDbEntity
  8
Bed wall elevation
100
AcDbLine
 10
81.69291338582677
 20
84.01574803149606
 30
0.0
 11
81.69291338582677
 21
4.015748031496063
 31
0.0
  0
LINE
  5
A0
330
17
100
AcDbEntity
  8
Bed wall elevation
100
AcDbLine
 10
104.09448818897637
 20
84.01574803149606
 30
0.0
 11
104.09448818897637
 21
4.015748031496063
 31
0.0
  0
LINE
  5
A1
330
17
100
AcDbEntity
  8
Bed wall elevation
100
AcDbLine
 10
126.49606299212599
 20
84.01574803149606
 30
0.0
 11
126.49606299212599
 21
4.015748031496063
 31
0.0
  0
LINE
  5
A2
330
17
100
AcDbEntity
  8
Bed wall elevation
100
AcDbLine
 10
36.889763779527556
 20
30.682283464566925
 30
0.0
 11
148.89763779527559
 21
30.682283464566925
 31
0.0
  0
LINE
  5
A3
330
17
100
AcDbEntity
  8
Bed wall elevation
100
AcDbLine
 10
36.889763779527556
 20
57.3492125984252
 30
0.0
 11
148.89763779527559
 21
57.3492125984252
 31
0.0
  0
LINE
  5
A4
330
17
100
AcDbEntity
  8
Bed wall elevation
  6
DASHED
100
AcDbLine
 10
36.889763779527556
 20
83.14960629921259
 30
0.0
 11
148.89763779527559
 21
83.14960629921259
 31
0.0
  0
LWPOLYLINE
  5
A5
330
17
100
AcDbEntity
  8
Bed wall elevation
100
AcDbPolyline
 90
5
 70
0
 10
5.905511811023622
 20
4.015748031496059
 10
191.88976377952756
 20
4.015748031496059
 10
191.88976377952756
 20
0.0
 10
5.905511811023622
 20
0.0
 10
5.905511811023622
 20
4.015748031496059
  0
LWPOLYLINE
  5
A6
330
17
100
AcDbEntity
  8
Bed wall elevation
100
AcDbPolyline
 90
5
 70
0
 10
36.574803149606296
 20
24.01574803149606
 10
55.196850393700785
 20
24.01574803149606
 10
55.196850393700785
 20
23.03149606299212
 10
36.574803149606296
 20
23.03149606299212
 10
36.574803149606296
 20
24.01574803149606
  0
LWPOLYLINE
  5
A7
330
17
100
AcDbEntity
  8
Bed wall elevation
100
AcDbPolyline
 90
5
 70
0
 10
36.889763779527556
 20
23.03149606299212
 10
54.881889763779526
 20
23.03149606299212
 10
54.881889763779526
 20
18.110236220472444
 10
36.889763779527556
 20
18.110236220472444
 10
36.889763779527556
 20
23.03149606299212
  0
CIRCLE
  5
A8
330
17
100
AcDbEntity
  8
Bed wall elevation
100
AcDbCircle
 10
45.88582677165354
 20
20.551181102362204
 30
0.0
 40
0.3543307086614173
  0
LWPOLYLINE
  5
A9
330
17
100
AcDbEntity
  8
Bed wall elevation
100
AcDbPolyline
 90
4
 70
0
 10
37.36220472440945
 20
18.110236220472444
 10
36.496062992125985
 20
0.0
 10
37.44094488188976
 20
0.0
 10
38.46456692913386
 20
18.110236220472444
  0
LWPOLYLINE
  5
AA
330
17
100
AcDbEntity
  8
Bed wall elevation
100
AcDbPolyline
 90
4
 70
0
 10
54.40944881889764
 20
18.110236220472444
 10
55.275590551181104
 20
0.0
 10
54.330708661417326
 20
0.0
 10
53.30708661417323
 20
18.110236220472444
  0
LWPOLYLINE
  5
AB
330
17
100
AcDbEntity
  8
Bed wall elevation
100
AcDbPolyline
 90
5
 70
0
 10
130.59055118110237
 20
24.01574803149606
 10
149.21259842519683
 20
24.01574803149606
 10
149.21259842519683
 20
23.03149606299212
 10
130.59055118110237
 20
23.03149606299212
 10
130.59055118110237
 20
24.01574803149606
  0
LWPOLYLINE
  5
AC
330
17
100
AcDbEntity
  8
Bed wall elevation
100
AcDbPolyline
 90
5
 70
0
 10
130.90551181102362
 20
23.03149606299212
 10
148.89763779527559
 20
23.03149606299212
 10
148.89763779527559
 20
18.110236220472444
 10
130.90551181102362
 20
18.110236220472444
 10
130.90551181102362
 20
23.03149606299212
  0
CIRCLE
  5
AD
330
17
100
AcDbEntity
  8
Bed wall elevation
100
AcDbCircle
 10
139.9015748031496
 20
20.551181102362204
 30
0.0
 40
0.3543307086614173
  0
LWPOLYLINE
  5
AE
330
17
100
AcDbEntity
  8
Bed wall elevation
100
AcDbPolyline
 90
4
 70
0
 10
131.3779527559055
 20
18.110236220472444
 10
130.51181102362204
 20
0.0
 10
131.45669291338584
 20
0.0
 10
132.48031496062993
 20
18.110236220472444
  0
LWPOLYLINE
  5
AF
330
17
100
AcDbEntity
  8
Bed wall elevation
100
AcDbPolyline
 90
4
 70
0
 10
148.4251968503937
 20
18.110236220472444
 10
149.29133858267716
 20
0.0
 10
148.34645669291336
 20
0.0
 10
147.32283464566927
 20
18.110236220472444
  0
LWPOLYLINE
  5
B0
330
17
100
AcDbEntity
  8
Bed wall elevation
100
AcDbPolyline
 90
5
 70
0
 10
54.881889763779526
 20
40.0
 10
130.90551181102362
 20
40.0
 10
130.90551181102362
 20
19.448818897637793
 10
54.881889763779526
 20
19.448818897637793
 10
54.881889763779526
 20
40.0
  0
LWPOLYLINE
  5
B1
330
17
100
AcDbEntity
  8
Bed wall elevation
100
AcDbPolyline
 90
2
 70
0
 10
55.86614173228347
 20
40.0
 10
129.92125984251967
 20
40.0
  0
LWPOLYLINE
  5
B2
330
17
100
AcDbEntity
  8
Bed wall elevation
100
AcDbPolyline
 90
5
 70
0
 10
58.46456692913386
 20
28.897637795275585
 10
90.53149606299212
 20
28.897637795275585
 10
90.53149606299212
 20
21.02362204724409
 10
58.46456692913386
 20
21.02362204724409
 10
58.46456692913386
 20
28.897637795275585
  0
LWPOLYLINE
  5
B3
330
17
100
AcDbEntity
  8
Bed wall elevation
100
AcDbPolyline
 90
5
 70
0
 10
95.25590551181102
 20
28.897637795275585
 10
127.3228346456693
 20
28.897637795275585
 10
127.3228346456693
 20
21.02362204724409
 10
95.25590551181102
 20
21.02362204724409
 10
95.25590551181102
 20
28.897637795275585
  0
LWPOLYLINE
  5
B4
330
17
100
AcDbEntity
  8
Bed wall elevation
100
AcDbPolyline
 90
5
 70
0
 10
56.889763779527556
 20
21.02362204724409
 10
128.89763779527559
 20
21.02362204724409
 10
128.89763779527559
 20
11.02362204724409
 10
56.889763779527556
 20
11.02362204724409
 10
56.889763779527556
 20
21.02362204724409
  0
LWPOLYLINE
  5
B5
330
17
100
AcDbEntity
  8
Bed wall elevation
100
AcDbPolyline
 90
5
 70
0
 10
54.881889763779526
 20
11.02362204724409
 10
130.90551181102362
 20
11.02362204724409
 10
130.90551181102362
 20
7.00787401574803
 10
54.881889763779526
 20
7.00787401574803
 10
54.881889763779526
 20
11.02362204724409
  0
LINE
  5
B6
330
17
100
AcDbEntity
  8
Bed wall elevation
100
AcDbLine
 10
54.881889763779526
 20
10.039370078740157
 30
0.0
 11
130.90551181102362
 21
10.039370078740157
 31
0.0
  0
POLYLINE
  5
B7
330
17
100
AcDbEntity
  8
Bed wall elevation
100
AcDb2dPolyline
 66
1
 10
0.0
 20
0.0
 30
0.0
 70
0
  0
VERTEX
  5
B8
330
B7
100
AcDbEntity
  8
Bed wall elevation
100
AcDbVertex
100
AcDb2dVertex
 10
59.40944881889764
 20
7.00787401574803
 30
0.0
 70
0
  0
VERTEX
  5
B9
330
B7
100
AcDbEntity
  8
Bed wall elevation
100
AcDbVertex
100
AcDb2dVertex
 10
59.40944881889764
 20
6.377952755905511
 30
0.0
 70
0
  0
SEQEND
  5
BA
330
B7
100
AcDbEntity
  8
Bed wall elevation
  0
SPLINE
  5
BB
330
17
100
AcDbEntity
  8
Bed wall elevation
100
AcDbSpline
 70
0
 71
3
 72
8
 73
4
 74
0
 40
0.0
 40
0.0
 40
0.0
 40
0.0
 40
1.0
 40
1.0
 40
1.0
 40
1.0
 10
59.40944881889764
 20
6.377952755905511
 30
0.0
 10
58.91732283464567
 20
5.826771653543304
 30
0.0
 10
58.75984251968504
 20
3.464566929133852
 30
0.0
 10
58.91732283464567
 20
2.677165354330711
 30
0.0
  0
SPLINE
  5
BC
330
17
100
AcDbEntity
  8
Bed wall elevation
100
AcDbSpline
 70
0
 71
3
 72
8
 73
4
 74
0
 40
0.0
 40
0.0
 40
0.0
 40
0.0
 40
1.0
 40
1.0
 40
1.0
 40
1.0
 10
58.91732283464567
 20
2.677165354330711
 30
0.0
 10
59.153543307086615
 20
1.1811023622047259
 30
0.0
 10
59.60629921259842
 20
0.39370078740157055
 30
0.0
 10
59.60629921259842
 20
0.0
 30
0.0
  0
POLYLINE
  5
BD
330
17
100
AcDbEntity
  8
Bed wall elevation
100
AcDb2dPolyline
 66
1
 10
0.0
 20
0.0
 30
0.0
 70
0
  0
VERTEX
  5
BE
330
BD
100
AcDbEntity
  8
Bed wall elevation
100
AcDbVertex
100
AcDb2dVertex
 10
59.60629921259842
 20
0.0
 30
0.0
 70
0
  0
VERTEX
  5
BF
330
BD
100
AcDbEntity
  8
Bed wall elevation
100
AcDbVertex
100
AcDb2dVertex
 10
61.968503937007874
 20
0.0
 30
0.0
 70
0
  0
SEQEND
  5
C0
330
BD
100
AcDbEntity
  8
Bed wall elevation
  0
SPLINE
  5
C1
330
17
100
AcDbEntity
  8
Bed wall elevation
100
AcDbSpline
 70
0
 71
3
 72
8
 73
4
 74
0
 40
0.0
 40
0.0
 40
0.0
 40
0.0
 40
1.0
 40
1.0
 40
1.0
 40
1.0
 10
61.968503937007874
 20
0.0
 30
0.0
 10
61.968503937007874
 20
0.39370078740157055
 30
0.0
 10
62.42125984251968
 20
1.1811023622047259
 30
0.0
 10
62.65748031496063
 20
2.677165354330711
 30
0.0
  0
SPLINE
  5
C2
330
17
100
AcDbEntity
  8
Bed wall elevation
100
AcDbSpline
 70
0
 71
3
 72
8
 73
4
 74
0
 40
0.0
 40
0.0
 40
0.0
 40
0.0
 40
1.0
 40
1.0
 40
1.0
 40
1.0
 10
62.65748031496063
 20
2.677165354330711
 30
0.0
 10
62.81496062992126
 20
3.464566929133852
 30
0.0
 10
62.65748031496063
 20
5.826771653543304
 30
0.0
 10
62.16535433070866
 20
6.377952755905511
 30
0.0
  0
POLYLINE
  5
C3
330
17
100
AcDbEntity
  8
Bed wall elevation
100
AcDb2dPolyline
 66
1
 10
0.0
 20
0.0
 30
0.0
 70
0
  0
VERTEX
  5
C4
330
C3
100
AcDbEntity
  8
Bed wall elevation
100
AcDbVertex
100
AcDb2dVertex
 10
62.16535433070866
 20
6.377952755905511
 30
0.0
 70
0
  0
VERTEX
  5
C5
330
C3
100
AcDbEntity
  8
Bed wall elevation
100
AcDbVertex
100
AcDb2dVertex
 10
62.16535433070866
 20
7.00787401574803
 30
0.0
 70
0
  0
VERTEX
  5
C6
330
C3
100
AcDbEntity
  8
Bed wall elevation
100
AcDbVertex
100
AcDb2dVertex
 10
59.40944881889764
 20
7.00787401574803
 30
0.0
 70
0
  0
SEQEND
  5
C7
330
C3
100
AcDbEntity
  8
Bed wall elevation
  0
LINE
  5
C8
330
17
100
AcDbEntity
  8
Bed wall elevation
100
AcDbLine
 10
59.40944881889764
 20
6.377952755905512
 30
0.0
 11
62.16535433070866
 21
6.377952755905512
 31
0.0
  0
POLYLINE
  5
C9
330
17
100
AcDbEntity
  8
Bed wall elevation
100
AcDb2dPolyline
 66
1
 10
0.0
 20
0.0
 30
0.0
 70
0
  0
VERTEX
  5
CA
330
C9
100
AcDbEntity
  8
Bed wall elevation
100
AcDbVertex
100
AcDb2dVertex
 10
123.62204724409449
 20
7.00787401574803
 30
0.0
 70
0
  0
VERTEX
  5
CB
330
C9
100
AcDbEntity
  8
Bed wall elevation
100
AcDbVertex
100
AcDb2dVertex
 10
123.62204724409449
 20
6.377952755905511
 30
0.0
 70
0
  0
SEQEND
  5
CC
330
C9
100
AcDbEntity
  8
Bed wall elevation
  0
SPLINE
  5
CD
330
17
100
AcDbEntity
  8
Bed wall elevation
100
AcDbSpline
 70
0
 71
3
 72
8
 73
4
 74
0
 40
0.0
 40
0.0
 40
0.0
 40
0.0
 40
1.0
 40
1.0
 40
1.0
 40
1.0
 10
123.62204724409449
 20
6.377952755905511
 30
0.0
 10
123.12992125984252
 20
5.826771653543304
 30
0.0
 10
122.9724409448819
 20
3.464566929133852
 30
0.0
 10
123.12992125984252
 20
2.677165354330711
 30
0.0
  0
SPLINE
  5
CE
330
17
100
AcDbEntity
  8
Bed wall elevation
100
AcDbSpline
 70
0
 71
3
 72
8
 73
4
 74
0
 40
0.0
 40
0.0
 40
0.0
 40
0.0
 40
1.0
 40
1.0
 40
1.0
 40
1.0
 10
123.12992125984252
 20
2.677165354330711
 30
0.0
 10
123.36614173228347
 20
1.1811023622047259
 30
0.0
 10
123.81889763779526
 20
0.39370078740157055
 30
0.0
 10
123.81889763779526
 20
0.0
 30
0.0
  0
POLYLINE
  5
CF
330
17
100
AcDbEntity
  8
Bed wall elevation
100
AcDb2dPolyline
 66
1
 10
0.0
 20
0.0
 30
0.0
 70
0
  0
VERTEX
  5
D0
330
CF
100
AcDbEntity
  8
Bed wall elevation
100
AcDbVertex
100
AcDb2dVertex
 10
123.81889763779526
 20
0.0
 30
0.0
 70
0
  0
VERTEX
  5
D1
330
CF
100
AcDbEntity
  8
Bed wall elevation
100
AcDbVertex
100
AcDb2dVertex
 10
126.18110236220471
 20
0.0
 30
0.0
 70
0
  0
SEQEND
  5
D2
330
CF
100
AcDbEntity
  8
Bed wall elevation
  0
SPLINE
  5
D3
330
17
100
AcDbEntity
  8
Bed wall elevation
100
AcDbSpline
 70
0
 71
3
 72
8
 73
4
 74
0
 40
0.0
 40
0.0
 40
0.0
 40
0.0
 40
1.0
 40
1.0
 40
1.0
 40
1.0
 10
126.18110236220471
 20
0.0
 30
0.0
 10
126.18110236220471
 20
0.39370078740157055
 30
0.0
 10
126.63385826771653
 20
1.1811023622047259
 30
0.0
 10
126.87007874015748
 20
2.677165354330711
 30
0.0
  0
SPLINE
  5
D4
330
17
100
AcDbEntity
  8
Bed wall elevation
100
AcDbSpline
 70
0
 71
3
 72
8
 73
4
 74
0
 40
0.0
 40
0.0
 40
0.0
 40
0.0
 40
1.0
 40
1.0
 40
1.0
 40
1.0
 10
126.87007874015748
 20
2.677165354330711
 30
0.0
 10
127.0275590551181
 20
3.464566929133852
 30
0.0
 10
126.87007874015748
 20
5.826771653543304
 30
0.0
 10
126.37795275590551
 20
6.377952755905511
 30
0.0
  0
POLYLINE
  5
D5
330
17
100
AcDbEntity
  8
Bed wall elevation
100
AcDb2dPolyline
 66
1
 10
0.0
 20
0.0
 30
0.0
 70
0
  0
VERTEX
  5
D6
330
D5
100
AcDbEntity
  8
Bed wall elevation
100
AcDbVertex
100
AcDb2dVertex
 10
126.37795275590551
 20
6.377952755905511
 30
0.0
 70
0
  0
VERTEX
  5
D7
330
D5
100
AcDbEntity
  8
Bed wall elevation
100
AcDbVertex
100
AcDb2dVertex
 10
126.37795275590551
 20
7.00787401574803
 30
0.0
 70
0
  0
VERTEX
  5
D8
330
D5
100
AcDbEntity
  8
Bed wall elevation
100
AcDbVertex
100
AcDb2dVertex
 10
123.62204724409449
 20
7.00787401574803
 30
0.0
 70
0
  0
SEQEND
  5
D9
330
D5
100
AcDbEntity
  8
Bed wall elevation
  0
LINE
  5
DA
330
17
100
AcDbEntity
  8
Bed wall elevation
100
AcDbLine
 10
123.62204724409449
 20
6.377952755905512
 30
0.0
 11
126.37795275590551
 21
6.377952755905512
 31
0.0
  0
LWPOLYLINE
  5
DB
330
17
100
AcDbEntity
  8
Bed wall elevation
  6
DASHED
100
AcDbPolyline
 90
5
 70
0
 10
155.90551181102362
 20
90.98425196850394
 10
191.88976377952756
 20
90.98425196850394
 10
191.88976377952756
 20
0.0
 10
155.90551181102362
 20
0.0
 10
155.90551181102362
 20
90.98425196850394
  0
LINE
  5
DC
330
17
100
AcDbEntity
  8
Bed wall elevation
100
AcDbLine
 10
0.0
 20
0.0
 30
0.0
 11
197.79527559055117
 21
0.0
 31
0.0
  0
LINE
  5
DD
330
17
100
AcDbEntity
  8
Bed wall elevation
  6
DASHED
100
AcDbLine
 10
0.0
 20
109.01574803149606
 30
0.0
 11
197.79527559055117
 21
109.01574803149606
 31
0.0
  0
TEXT
  5
DE
330
17
100
AcDbEntity
  8
LABELS
100
AcDbText
 10
0.0
 20
111.37795275590551
 30
0.0
 40
3.955905511811024
  1
BED WALL ELEVATION  (1:1, inches)
 11
0.0
 21
111.37795275590551
 31
0.0
100
AcDbText
  0
HATCH
  5
E1
330
17
100
AcDbEntity
  8
Bed wall plan hatch
 62
7
100
AcDbHatch
 10
0.0
 20
0.0
 30
0.0
210
0.0
220
0.0
230
1.0
  2
ANSI31
 70
0
 71
0
 91
1
 92
3
 72
0
 73
1
 93
5
 10
227.46456692913387
 20
99.60629921259843
 10
431.5590551181102
 20
99.60629921259843
 10
431.5590551181102
 20
90.55118110236221
 10
227.46456692913387
 20
90.55118110236221
 10
227.46456692913387
 20
99.60629921259843
 97
0
 75
1
 76
1
 52
0.0
 41
0.15748031496062992
 77
0
 78
1
 53
45.0
 43
0.0
 44
0.0
 45
-0.0139194248
 46
0.0139194248
 79
0
 98
0
  0
HATCH
  5
E2
330
17
100
AcDbEntity
  8
Bed wall plan hatch
 62
7
100
AcDbHatch
 10
0.0
 20
0.0
 30
0.0
210
0.0
220
0.0
230
1.0
  2
ANSI31
 70
0
 71
0
 91
1
 92
3
 72
0
 73
1
 93
5
 10
227.46456692913387
 20
90.55118110236221
 10
236.5196850393701
 20
90.55118110236221
 10
236.5196850393701
 20
0.0
 10
227.46456692913387
 20
0.0
 10
227.46456692913387
 20
90.55118110236221
 97
0
 75
1
 76
1
 52
0.0
 41
0.15748031496062992
 77
0
 78
1
 53
45.0
 43
0.0
 44
0.0
 45
-0.0139194248
 46
0.0139194248
 79
0
 98
0
  0
HATCH
  5
E3
330
17
100
AcDbEntity
  8
Bed wall plan hatch
 62
7
100
AcDbHatch
 10
0.0
 20
0.0
 30
0.0
210
0.0
220
0.0
230
1.0
  2
ANSI31
 70
0
 71
0
 91
1
 92
3
 72
0
 73
1
 93
5
 10
422.503937007874
 20
90.55118110236221
 10
431.5590551181102
 20
90.55118110236221
 10
431.5590551181102
 20
0.0
 10
422.503937007874
 20
0.0
 10
422.503937007874
 20
90.55118110236221
 97
0
 75
1
 76
1
 52
0.0
 41
0.15748031496062992
 77
0
 78
1
 53
45.0
 43
0.0
 44
0.0
 45
-0.0139194248
 46
0.0139194248
 79
0
 98
0
  0
LWPOLYLINE
  5
E4
330
17
100
AcDbEntity
  8
Bed wall plan
100
AcDbPolyline
 90
3
 70
0
 10
227.4645669291339
 20
90.55118110236221
 10
236.5196850393701
 20
90.55118110236221
 10
236.5196850393701
 20
63.54330708661418
  0
LWPOLYLINE
  5
E5
330
17
100
AcDbEntity
  8
Bed wall plan
100
AcDbPolyline
 90
2
 70
0
 10
236.5196850393701
 20
29.52755905511811
 10
236.5196850393701
 20
0.0
  0
LWPOLYLINE
  5
E6
330
17
100
AcDbEntity
  8
Bed wall plan
100
AcDbPolyline
 90
2
 70
0
 10
422.503937007874
 20
0.0
 10
422.503937007874
 20
50.55118110236221
  0
LWPOLYLINE
  5
E7
330
17
100
AcDbEntity
  8
Bed wall plan
100
AcDbPolyline
 90
2
 70
0
 10
422.503937007874
 20
90.55118110236221
 10
431.5590551181102
 20
90.55118110236221
  0
LINE
  5
E8
330
17
100
AcDbEntity
  8
Bed wall plan
100
AcDbLine
 10
236.5196850393701
 20
90.55118110236221
 30
0.0
 11
422.503937007874
 21
90.55118110236221
 31
0.0
  0
LWPOLYLINE
  5
E9
330
17
100
AcDbEntity
  8
Bed wall plan
100
AcDbPolyline
 90
19
 70
0
 10
236.5196850393701
 20
90.55118110236221
 10
236.5196850393701
 20
87.55905511811024
 10
261.5196850393701
 20
87.55905511811024
 10
261.5574803149607
 20
86.7744094488189
 10
261.6696850393701
 20
85.9996062992126
 10
261.85551181102363
 20
85.24448818897638
 10
262.1122047244095
 20
84.51850393700788
 10
262.43700787401576
 20
83.83070866141733
 10
262.8251968503937
 20
83.18976377952757
 10
263.2724409448819
 20
82.60354330708661
 10
263.7728346456693
 20
82.07992125984252
 10
264.3200787401575
 20
81.6251968503937
 10
264.90748031496065
 20
81.24527559055119
 10
265.5275590551181
 20
80.94448818897638
 10
266.17244094488194
 20
80.72677165354331
 10
266.83385826771655
 20
80.59527559055118
 10
267.503937007874
 20
80.55118110236221
 10
267.503937007874
 20
90.55118110236221
 10
236.5196850393701
 20
90.55118110236221
  0
LWPOLYLINE
  5
EA
330
17
100
AcDbEntity
  8
Bed wall plan
100
AcDbPolyline
 90
19
 70
0
 10
379.51181102362204
 20
90.55118110236221
 10
379.51181102362204
 20
80.55118110236221
 10
380.1818897637795
 20
80.59527559055118
 10
380.84330708661423
 20
80.72677165354331
 10
381.48818897637796
 20
80.94448818897638
 10
382.10826771653547
 20
81.24527559055119
 10
382.6956692913386
 20
81.6251968503937
 10
383.2429133858268
 20
82.07992125984252
 10
383.7433070866142
 20
82.60354330708661
 10
384.19055118110236
 20
83.18976377952757
 10
384.5787401574803
 20
83.83070866141733
 10
384.90354330708664
 20
84.51850393700788
 10
385.1602362204725
 20
85.24448818897638
 10
385.346062992126
 20
85.9996062992126
 10
385.4582677165355
 20
86.7744094488189
 10
385.496062992126
 20
87.55905511811024
 10
422.503937007874
 20
87.55905511811024
 10
422.503937007874
 20
90.55118110236221
 10
379.51181102362204
 20
90.55118110236221
  0
LINE
  5
EB
330
17
100
AcDbEntity
  8
Bed wall plan
  6
DASHED
100
AcDbLine
 10
267.503937007874
 20
80.55118110236221
 30
0.0
 11
379.51181102362204
 21
80.55118110236221
 31
0.0
  0
LWPOLYLINE
  5
EC
330
17
100
AcDbEntity
  8
Bed wall plan
100
AcDbPolyline
 90
5
 70
0
 10
267.503937007874
 20
90.55118110236221
 10
379.51181102362204
 20
90.55118110236221
 10
379.51181102362204
 20
89.76377952755905
 10
267.503937007874
 20
89.76377952755905
 10
267.503937007874
 20
90.55118110236221
  0
LWPOLYLINE
  5
ED
330
17
100
AcDbEntity
  8
Bed wall plan
100
AcDbPolyline
 90
5
 70
0
 10
267.503937007874
 20
88.77952755905513
 10
285.496062992126
 20
88.77952755905513
 10
285.496062992126
 20
72.79527559055119
 10
267.503937007874
 20
72.79527559055119
 10
267.503937007874
 20
88.77952755905513
  0
LWPOLYLINE
  5
EE
330
17
100
AcDbEntity
  8
Bed wall plan
100
AcDbPolyline
 90
5
 70
0
 10
361.5196850393701
 20
88.77952755905513
 10
379.51181102362204
 20
88.77952755905513
 10
379.51181102362204
 20
72.79527559055119
 10
361.5196850393701
 20
72.79527559055119
 10
361.5196850393701
 20
88.77952755905513
  0
LWPOLYLINE
  5
EF
330
17
100
AcDbEntity
  8
Bed wall plan
100
AcDbPolyline
 90
5
 70
0
 10
285.496062992126
 20
88.77952755905513
 10
361.5196850393701
 20
88.77952755905513
 10
361.5196850393701
 20
85.78740157480316
 10
285.496062992126
 20
85.78740157480316
 10
285.496062992126
 20
88.77952755905513
  0
LWPOLYLINE
  5
F0
330
17
100
AcDbEntity
  8
Bed wall plan
100
AcDbPolyline
 90
5
 70
0
 10
285.496062992126
 20
85.78740157480316
 10
361.5196850393701
 20
85.78740157480316
 10
361.5196850393701
 20
5.787401574803155
 10
285.496062992126
 20
5.787401574803155
 10
285.496062992126
 20
85.78740157480316
  0
LWPOLYLINE
  5
F1
330
17
100
AcDbEntity
  8
Bed wall plan
100
AcDbPolyline
 90
5
 70
0
 10
287.503937007874
 20
85.78740157480316
 10
359.51181102362204
 20
85.78740157480316
 10
359.51181102362204
 20
7.795275590551185
 10
287.503937007874
 20
7.795275590551185
 10
287.503937007874
 20
85.78740157480316
  0
LWPOLYLINE
  5
F2
330
17
100
AcDbEntity
  8
Bed wall plan
100
AcDbPolyline
 90
5
 70
0
 10
290.2598425196851
 20
83.4251968503937
 10
321.93307086614175
 20
83.4251968503937
 10
321.93307086614175
 20
70.82677165354332
 10
290.2598425196851
 20
70.82677165354332
 10
290.2598425196851
 20
83.4251968503937
  0
LWPOLYLINE
  5
F3
330
17
100
AcDbEntity
  8
Bed wall plan
100
AcDbPolyline
 90
5
 70
0
 10
325.08267716535437
 20
83.4251968503937
 10
356.7559055118111
 20
83.4251968503937
 10
356.7559055118111
 20
70.82677165354332
 10
325.08267716535437
 20
70.82677165354332
 10
325.08267716535437
 20
83.4251968503937
  0
LINE
  5
F4
330
17
100
AcDbEntity
  8
Bed wall plan
100
AcDbLine
 10
287.503937007874
 20
61.37795275590551
 30
0.0
 11
359.51181102362204
 21
61.37795275590551
 31
0.0
  0
LWPOLYLINE
  5
F5
330
17
100
AcDbEntity
  8
Bed wall plan
100
AcDbPolyline
 90
5
 70
0
 10
386.5196850393701
 20
88.54330708661418
 10
422.503937007874
 20
88.54330708661418
 10
422.503937007874
 20
86.7716535433071
 10
386.5196850393701
 20
86.7716535433071
 10
386.5196850393701
 20
88.54330708661418
  0
SPLINE
  5
F6
330
17
100
AcDbEntity
  8
Bed wall plan
  6
DASHED
100
AcDbSpline
 70
0
 71
3
 72
14
 73
10
 74
0
 40
0.0
 40
0.0
 40
0.0
 40
0.0
 40
1.0
 40
1.0
 40
1.0
 40
2.0
 40
2.0
 40
2.0
 40
3.0
 40
3.0
 40
3.0
 40
3.0
 10
422.503937007874
 20
52.55905511811024
 30
0.0
 10
416.1878517350163
 20
52.55905511811024
 30
0.0
 10
409.9817013223857
 20
54.221988109280694
 30
0.0
 10
404.51181102362204
 20
57.38003074570957
 30
0.0
 10
399.0419207248585
 20
60.53807338213844
 30
0.0
 10
394.4987033033983
 20
65.08129080359862
 30
0.0
 10
391.3406606669695
 20
70.5511811023622
 30
0.0
 10
388.18261803054054
 20
76.02107140112577
 30
0.0
 10
386.5196850393701
 20
82.22722181375643
 30
0.0
 10
386.5196850393701
 20
88.54330708661418
 30
0.0
  0
LWPOLYLINE
  5
F7
330
17
100
AcDbEntity
  8
Bed wall plan
100
AcDbPolyline
 90
5
 70
0
 10
386.5196850393701
 20
88.54330708661418
 10
422.503937007874
 20
88.54330708661418
 10
422.503937007874
 20
87.55905511811024
 10
386.5196850393701
 20
87.55905511811024
 10
386.5196850393701
 20
88.54330708661418
  0
TEXT
  5
F8
330
17
100
AcDbEntity
  8
LABELS
100
AcDbText
 10
227.46456692913387
 20
101.96850393700787
 30
0.0
 40
4.081889763779528
  1
BED WALL PLAN  (1:1, inches)
 11
227.46456692913387
 21
101.96850393700787
 31
0.0
100
AcDbText
  0
HATCH
  5
FB
330
17
100
AcDbEntity
  8
Bed wall section A-A hatch
 62
7
100
AcDbHatch
 10
0.0
 20
0.0
 30
0.0
210
0.0
220
0.0
230
1.0
  2
ANSI31
 70
0
 71
0
 91
1
 92
3
 72
0
 73
1
 93
5
 10
462.1732283464567
 20
109.01574803149606
 10
471.2283464566929
 20
109.01574803149606
 10
471.2283464566929
 20
0.0
 10
462.1732283464567
 20
0.0
 10
462.1732283464567
 20
109.01574803149606
 97
0
 75
1
 76
1
 52
0.0
 41
0.15748031496062992
 77
0
 78
1
 53
45.0
 43
0.0
 44
0.0
 45
-0.0139194248
 46
0.0139194248
 79
0
 98
0
  0
LINE
  5
FC
330
17
100
AcDbEntity
  8
Bed wall section A-A
100
AcDbLine
 10
471.2283464566929
 20
109.01574803149606
 30
0.0
 11
471.2283464566929
 21
0.0
 31
0.0
  0
LWPOLYLINE
  5
FD
330
17
100
AcDbEntity
  8
Bed wall section A-A
100
AcDbPolyline
 90
5
 70
0
 10
471.2283464566929
 20
109.01574803149606
 10
481.2283464566929
 20
109.01574803149606
 10
481.2283464566929
 20
84.01574803149606
 10
471.2283464566929
 20
84.01574803149606
 10
471.2283464566929
 20
109.01574803149606
  0
LWPOLYLINE
  5
FE
330
17
100
AcDbEntity
  8
Bed wall section A-A
100
AcDbPolyline
 90
5
 70
0
 10
471.93700787401576
 20
109.01574803149606
 10
480.5196850393701
 20
109.01574803149606
 10
480.5196850393701
 20
84.72440944881889
 10
471.93700787401576
 20
84.72440944881889
 10
471.93700787401576
 20
109.01574803149606
  0
LWPOLYLINE
  5
FF
330
17
100
AcDbEntity
  8
Bed wall section A-A
100
AcDbPolyline
 90
5
 70
0
 10
471.2283464566929
 20
84.01574803149606
 10
472.01574803149606
 20
84.01574803149606
 10
472.01574803149606
 20
4.015748031496059
 10
471.2283464566929
 20
4.015748031496059
 10
471.2283464566929
 20
84.01574803149606
  0
LWPOLYLINE
  5
100
330
17
100
AcDbEntity
  8
Bed wall section A-A
100
AcDbPolyline
 90
5
 70
0
 10
471.2283464566929
 20
4.015748031496059
 10
472.48818897637796
 20
4.015748031496059
 10
472.48818897637796
 20
0.0
 10
471.2283464566929
 20
0.0
 10
471.2283464566929
 20
4.015748031496059
  0
LWPOLYLINE
  5
101
330
17
100
AcDbEntity
  8
Bed wall section A-A
  6
DASHED
100
AcDbPolyline
 90
5
 70
0
 10
473.0
 20
24.01574803149606
 10
488.98425196850394
 20
24.01574803149606
 10
488.98425196850394
 20
0.0
 10
473.0
 20
0.0
 10
473.0
 20
24.01574803149606
  0
LINE
  5
102
330
17
100
AcDbEntity
  8
Bed wall section A-A
  6
DASHED
100
AcDbLine
 10
481.2283464566929
 20
84.01574803149606
 30
0.0
 11
481.2283464566929
 21
0.0
 31
0.0
  0
LWPOLYLINE
  5
103
330
17
100
AcDbEntity
  8
Bed wall section A-A
100
AcDbPolyline
 90
5
 70
0
 10
473.0
 20
40.0
 10
475.99212598425197
 20
40.0
 10
475.99212598425197
 20
7.00787401574803
 10
473.0
 20
7.00787401574803
 10
473.0
 20
40.0
  0
LWPOLYLINE
  5
104
330
17
100
AcDbEntity
  8
Bed wall section A-A
100
AcDbPolyline
 90
5
 70
0
 10
475.99212598425197
 20
21.02362204724409
 10
553.9842519685039
 20
21.02362204724409
 10
553.9842519685039
 20
11.02362204724409
 10
475.99212598425197
 20
11.02362204724409
 10
475.99212598425197
 20
21.02362204724409
  0
LWPOLYLINE
  5
105
330
17
100
AcDbEntity
  8
Bed wall section A-A
100
AcDbPolyline
 90
5
 70
0
 10
477.56692913385825
 20
26.92913385826772
 10
498.03937007874015
 20
26.92913385826772
 10
498.03937007874015
 20
21.02362204724409
 10
477.56692913385825
 20
21.02362204724409
 10
477.56692913385825
 20
26.92913385826772
  0
LWPOLYLINE
  5
106
330
17
100
AcDbEntity
  8
Bed wall section A-A
100
AcDbPolyline
 90
5
 70
0
 10
475.99212598425197
 20
11.02362204724409
 10
555.992125984252
 20
11.02362204724409
 10
555.992125984252
 20
7.00787401574803
 10
475.99212598425197
 20
7.00787401574803
 10
475.99212598425197
 20
11.02362204724409
  0
LINE
  5
107
330
17
100
AcDbEntity
  8
Bed wall section A-A
100
AcDbLine
 10
475.99212598425197
 20
10.039370078740157
 30
0.0
 11
555.992125984252
 21
10.039370078740157
 31
0.0
  0
POLYLINE
  5
108
330
17
100
AcDbEntity
  8
Bed wall section A-A
100
AcDb2dPolyline
 66
1
 10
0.0
 20
0.0
 30
0.0
 70
0
  0
VERTEX
  5
109
330
108
100
AcDbEntity
  8
Bed wall section A-A
100
AcDbVertex
100
AcDb2dVertex
 10
480.5196850393701
 20
7.00787401574803
 30
0.0
 70
0
  0
VERTEX
  5
10A
330
108
100
AcDbEntity
  8
Bed wall section A-A
100
AcDbVertex
100
AcDb2dVertex
 10
480.5196850393701
 20
6.377952755905511
 30
0.0
 70
0
  0
SEQEND
  5
10B
330
108
100
AcDbEntity
  8
Bed wall section A-A
  0
SPLINE
  5
10C
330
17
100
AcDbEntity
  8
Bed wall section A-A
100
AcDbSpline
 70
0
 71
3
 72
8
 73
4
 74
0
 40
0.0
 40
0.0
 40
0.0
 40
0.0
 40
1.0
 40
1.0
 40
1.0
 40
1.0
 10
480.5196850393701
 20
6.377952755905511
 30
0.0
 10
480.0275590551181
 20
5.826771653543304
 30
0.0
 10
479.8700787401575
 20
3.464566929133852
 30
0.0
 10
480.0275590551181
 20
2.677165354330711
 30
0.0
  0
SPLINE
  5
10D
330
17
100
AcDbEntity
  8
Bed wall section A-A
100
AcDbSpline
 70
0
 71
3
 72
8
 73
4
 74
0
 40
0.0
 40
0.0
 40
0.0
 40
0.0
 40
1.0
 40
1.0
 40
1.0
 40
1.0
 10
480.0275590551181
 20
2.677165354330711
 30
0.0
 10
480.26377952755905
 20
1.1811023622047259
 30
0.0
 10
480.7165354330709
 20
0.39370078740157055
 30
0.0
 10
480.7165354330709
 20
0.0
 30
0.0
  0
POLYLINE
  5
10E
330
17
100
AcDbEntity
  8
Bed wall section A-A
100
AcDb2dPolyline
 66
1
 10
0.0
 20
0.0
 30
0.0
 70
0
  0
VERTEX
  5
10F
330
10E
100
AcDbEntity
  8
Bed wall section A-A
100
AcDbVertex
100
AcDb2dVertex
 10
480.7165354330709
 20
0.0
 30
0.0
 70
0
  0
VERTEX
  5
110
330
10E
100
AcDbEntity
  8
Bed wall section A-A
100
AcDbVertex
100
AcDb2dVertex
 10
483.0787401574803
 20
0.0
 30
0.0
 70
0
  0
SEQEND
  5
111
330
10E
100
AcDbEntity
  8
Bed wall section A-A
  0
SPLINE
  5
112
330
17
100
AcDbEntity
  8
Bed wall section A-A
100
AcDbSpline
 70
0
 71
3
 72
8
 73
4
 74
0
 40
0.0
 40
0.0
 40
0.0
 40
0.0
 40
1.0
 40
1.0
 40
1.0
 40
1.0
 10
483.0787401574803
 20
0.0
 30
0.0
 10
483.0787401574803
 20
0.39370078740157055
 30
0.0
 10
483.5314960629921
 20
1.1811023622047259
 30
0.0
 10
483.76771653543307
 20
2.677165354330711
 30
0.0
  0
SPLINE
  5
113
330
17
100
AcDbEntity
  8
Bed wall section A-A
100
AcDbSpline
 70
0
 71
3
 72
8
 73
4
 74
0
 40
0.0
 40
0.0
 40
0.0
 40
0.0
 40
1.0
 40
1.0
 40
1.0
 40
1.0
 10
483.76771653543307
 20
2.677165354330711
 30
0.0
 10
483.9251968503937
 20
3.464566929133852
 30
0.0
 10
483.76771653543307
 20
5.826771653543304
 30
0.0
 10
483.2755905511811
 20
6.377952755905511
 30
0.0
  0
POLYLINE
  5
114
330
17
100
AcDbEntity
  8
Bed wall section A-A
100
AcDb2dPolyline
 66
1
 10
0.0
 20
0.0
 30
0.0
 70
0
  0
VERTEX
  5
115
330
114
100
AcDbEntity
  8
Bed wall section A-A
100
AcDbVertex
100
AcDb2dVertex
 10
483.2755905511811
 20
6.377952755905511
 30
0.0
 70
0
  0
VERTEX
  5
116
330
114
100
AcDbEntity
  8
Bed wall section A-A
100
AcDbVertex
100
AcDb2dVertex
 10
483.2755905511811
 20
7.00787401574803
 30
0.0
 70
0
  0
VERTEX
  5
117
330
114
100
AcDbEntity
  8
Bed wall section A-A
100
AcDbVertex
100
AcDb2dVertex
 10
480.5196850393701
 20
7.00787401574803
 30
0.0
 70
0
  0
SEQEND
  5
118
330
114
100
AcDbEntity
  8
Bed wall section A-A
  0
LINE
  5
119
330
17
100
AcDbEntity
  8
Bed wall section A-A
100
AcDbLine
 10
480.5196850393701
 20
6.377952755905512
 30
0.0
 11
483.2755905511811
 21
6.377952755905512
 31
0.0
  0
POLYLINE
  5
11A
330
17
100
AcDbEntity
  8
Bed wall section A-A
100
AcDb2dPolyline
 66
1
 10
0.0
 20
0.0
 30
0.0
 70
0
  0
VERTEX
  5
11B
330
11A
100
AcDbEntity
  8
Bed wall section A-A
100
AcDbVertex
100
AcDb2dVertex
 10
548.7086614173229
 20
7.00787401574803
 30
0.0
 70
0
  0
VERTEX
  5
11C
330
11A
100
AcDbEntity
  8
Bed wall section A-A
100
AcDbVertex
100
AcDb2dVertex
 10
548.7086614173229
 20
6.377952755905511
 30
0.0
 70
0
  0
SEQEND
  5
11D
330
11A
100
AcDbEntity
  8
Bed wall section A-A
  0
SPLINE
  5
11E
330
17
100
AcDbEntity
  8
Bed wall section A-A
100
AcDbSpline
 70
0
 71
3
 72
8
 73
4
 74
0
 40
0.0
 40
0.0
 40
0.0
 40
0.0
 40
1.0
 40
1.0
 40
1.0
 40
1.0
 10
548.7086614173229
 20
6.377952755905511
 30
0.0
 10
548.2165354330709
 20
5.826771653543304
 30
0.0
 10
548.0590551181102
 20
3.464566929133852
 30
0.0
 10
548.2165354330709
 20
2.677165354330711
 30
0.0
  0
SPLINE
  5
11F
330
17
100
AcDbEntity
  8
Bed wall section A-A
100
AcDbSpline
 70
0
 71
3
 72
8
 73
4
 74
0
 40
0.0
 40
0.0
 40
0.0
 40
0.0
 40
1.0
 40
1.0
 40
1.0
 40
1.0
 10
548.2165354330709
 20
2.677165354330711
 30
0.0
 10
548.4527559055118
 20
1.1811023622047259
 30
0.0
 10
548.9055118110236
 20
0.39370078740157055
 30
0.0
 10
548.9055118110236
 20
0.0
 30
0.0
  0
POLYLINE
  5
120
330
17
100
AcDbEntity
  8
Bed wall section A-A
100
AcDb2dPolyline
 66
1
 10
0.0
 20
0.0
 30
0.0
 70
0
  0
VERTEX
  5
121
330
120
100
AcDbEntity
  8
Bed wall section A-A
100
AcDbVertex
100
AcDb2dVertex
 10
548.9055118110236
 20
0.0
 30
0.0
 70
0
  0
VERTEX
  5
122
330
120
100
AcDbEntity
  8
Bed wall section A-A
100
AcDbVertex
100
AcDb2dVertex
 10
551.2677165354331
 20
0.0
 30
0.0
 70
0
  0
SEQEND
  5
123
330
120
100
AcDbEntity
  8
Bed wall section A-A
  0
SPLINE
  5
124
330
17
100
AcDbEntity
  8
Bed wall section A-A
100
AcDbSpline
 70
0
 71
3
 72
8
 73
4
 74
0
 40
0.0
 40
0.0
 40
0.0
 40
0.0
 40
1.0
 40
1.0
 40
1.0
 40
1.0
 10
551.2677165354331
 20
0.0
 30
0.0
 10
551.2677165354331
 20
0.39370078740157055
 30
0.0
 10
551.7204724409448
 20
1.1811023622047259
 30
0.0
 10
551.9566929133858
 20
2.677165354330711
 30
0.0
  0
SPLINE
  5
125
330
17
100
AcDbEntity
  8
Bed wall section A-A
100
AcDbSpline
 70
0
 71
3
 72
8
 73
4
 74
0
 40
0.0
 40
0.0
 40
0.0
 40
0.0
 40
1.0
 40
1.0
 40
1.0
 40
1.0
 10
551.9566929133858
 20
2.677165354330711
 30
0.0
 10
552.1141732283464
 20
3.464566929133852
 30
0.0
 10
551.9566929133858
 20
5.826771653543304
 30
0.0
 10
551.4645669291339
 20
6.377952755905511
 30
0.0
  0
POLYLINE
  5
126
330
17
100
AcDbEntity
  8
Bed wall section A-A
100
AcDb2dPolyline
 66
1
 10
0.0
 20
0.0
 30
0.0
 70
0
  0
VERTEX
  5
127
330
126
100
AcDbEntity
  8
Bed wall section A-A
100
AcDbVertex
100
AcDb2dVertex
 10
551.4645669291339
 20
6.377952755905511
 30
0.0
 70
0
  0
VERTEX
  5
128
330
126
100
AcDbEntity
  8
Bed wall section A-A
100
AcDbVertex
100
AcDb2dVertex
 10
551.4645669291339
 20
7.00787401574803
 30
0.0
 70
0
  0
VERTEX
  5
129
330
126
100
AcDbEntity
  8
Bed wall section A-A
100
AcDbVertex
100
AcDb2dVertex
 10
548.7086614173229
 20
7.00787401574803
 30
0.0
 70
0
  0
SEQEND
  5
12A
330
126
100
AcDbEntity
  8
Bed wall section A-A
  0
LINE
  5
12B
330
17
100
AcDbEntity
  8
Bed wall section A-A
100
AcDbLine
 10
548.7086614173229
 20
6.377952755905512
 30
0.0
 11
551.4645669291339
 21
6.377952755905512
 31
0.0
  0
LWPOLYLINE
  5
12C
330
17
100
AcDbEntity
  8
Bed wall section A-A
100
AcDbPolyline
 90
5
 70
0
 10
484.81102362204723
 20
0.5905511811023558
 10
563.8661417322835
 20
0.5905511811023558
 10
563.8661417322835
 20
0.0
 10
484.81102362204723
 20
0.0
 10
484.81102362204723
 20
0.5905511811023558
  0
LINE
  5
12D
330
17
100
AcDbEntity
  8
Bed wall section A-A
100
AcDbLine
 10
462.1732283464567
 20
0.0
 30
0.0
 11
565.8346456692914
 21
0.0
 31
0.0
  0
LINE
  5
12E
330
17
100
AcDbEntity
  8
Bed wall section A-A
  6
DASHED
100
AcDbLine
 10
462.1732283464567
 20
109.01574803149606
 30
0.0
 11
565.8346456692914
 21
109.01574803149606
 31
0.0
  0
TEXT
  5
12F
330
17
100
AcDbEntity
  8
LABELS
100
AcDbText
 10
462.1732283464567
 20
111.37795275590551
 30
0.0
 40
2.073228346456693
  1
BED WALL SECTION A-A  (1:1, inches)
 11
462.1732283464567
 21
111.37795275590551
 31
0.0
100
AcDbText
  0
HATCH
  5
132
330
17
100
AcDbEntity
  8
Entrance corner hatch
 62
7
100
AcDbHatch
 10
0.0
 20
0.0
 30
0.0
210
0.0
220
0.0
230
1.0
  2
ANSI31
 70
0
 71
0
 91
1
 92
3
 72
0
 73
1
 93
5
 10
581.3838582677166
 20
58.26771653543307
 10
643.2736220472441
 20
58.26771653543307
 10
643.2736220472441
 20
49.21259842519685
 10
581.3838582677166
 20
49.21259842519685
 10
581.3838582677166
 20
58.26771653543307
 97
0
 75
1
 76
1
 52
0.0
 41
0.15748031496062992
 77
0
 78
1
 53
45.0
 43
0.0
 44
0.0
 45
-0.0139194248
 46
0.0139194248
 79
0
 98
0
  0
HATCH
  5
133
330
17
100
AcDbEntity
  8
Entrance corner hatch
 62
7
100
AcDbHatch
 10
0.0
 20
0.0
 30
0.0
210
0.0
220
0.0
230
1.0
  2
ANSI31
 70
0
 71
0
 91
1
 92
3
 72
0
 73
1
 93
5
 10
634.2185039370079
 20
49.21259842519685
 10
643.2736220472441
 20
49.21259842519685
 10
643.2736220472441
 20
0.0
 10
634.2185039370079
 20
0.0
 10
634.2185039370079
 20
49.21259842519685
 97
0
 75
1
 76
1
 52
0.0
 41
0.15748031496062992
 77
0
 78
1
 53
45.0
 43
0.0
 44
0.0
 45
-0.0139194248
 46
0.0139194248
 79
0
 98
0
  0
LWPOLYLINE
  5
134
330
17
100
AcDbEntity
  8
Entrance corner
100
AcDbPolyline
 90
2
 70
0
 10
581.3838582677166
 20
49.21259842519685
 10
634.2185039370079
 20
49.21259842519685
  0
LWPOLYLINE
  5
135
330
17
100
AcDbEntity
  8
Entrance corner
100
AcDbPolyline
 90
2
 70
0
 10
634.2185039370079
 20
0.0
 10
634.2185039370079
 20
9.212598425196852
  0
LWPOLYLINE
  5
136
330
17
100
AcDbEntity
  8
Entrance corner
100
AcDbPolyline
 90
5
 70
0
 10
634.2185039370079
 20
49.21259842519685
 10
636.2263779527559
 20
49.21259842519685
 10
636.2263779527559
 20
47.20472440944882
 10
634.2185039370079
 20
47.20472440944882
 10
634.2185039370079
 20
49.21259842519685
  0
LWPOLYLINE
  5
137
330
17
100
AcDbEntity
  8
Entrance corner
100
AcDbPolyline
 90
5
 70
0
 10
634.2185039370079
 20
11.220472440944881
 10
636.2263779527559
 20
11.220472440944881
 10
636.2263779527559
 20
9.212598425196852
 10
634.2185039370079
 20
9.212598425196852
 10
634.2185039370079
 20
11.220472440944881
  0
LWPOLYLINE
  5
138
330
17
100
AcDbEntity
  8
Entrance corner
100
AcDbPolyline
 90
19
 70
0
 10
591.2263779527559
 20
49.21259842519685
 10
591.2263779527559
 20
39.21259842519685
 10
591.8964566929135
 20
39.25669291338583
 10
592.5578740157481
 20
39.388188976377954
 10
593.2027559055118
 20
39.605905511811024
 10
593.8228346456693
 20
39.906692913385825
 10
594.4102362204725
 20
40.286614173228344
 10
594.9574803149607
 20
40.741338582677166
 10
595.4578740157481
 20
41.26496062992126
 10
595.9051181102363
 20
41.851181102362204
 10
596.2933070866143
 20
42.49212598425197
 10
596.6181102362206
 20
43.17992125984252
 10
596.8748031496064
 20
43.90590551181103
 10
597.0606299212599
 20
44.661023622047246
 10
597.1728346456694
 20
45.435826771653545
 10
597.2106299212599
 20
46.22047244094488
 10
634.2185039370079
 20
46.22047244094488
 10
634.2185039370079
 20
49.21259842519685
 10
591.2263779527559
 20
49.21259842519685
  0
LWPOLYLINE
  5
139
330
17
100
AcDbEntity
  8
Entrance corner
100
AcDbPolyline
 90
5
 70
0
 10
581.3838582677166
 20
49.21259842519685
 10
591.2263779527559
 20
49.21259842519685
 10
591.2263779527559
 20
48.425196850393704
 10
581.3838582677166
 20
48.425196850393704
 10
581.3838582677166
 20
49.21259842519685
  0
LWPOLYLINE
  5
13A
330
17
100
AcDbEntity
  8
Entrance corner
100
AcDbPolyline
 90
5
 70
0
 10
598.2342519685039
 20
47.20472440944882
 10
634.2185039370079
 20
47.20472440944882
 10
634.2185039370079
 20
45.43307086614173
 10
598.2342519685039
 20
45.43307086614173
 10
598.2342519685039
 20
47.20472440944882
  0
LWPOLYLINE
  5
13B
330
17
100
AcDbEntity
  8
Entrance corner
100
AcDbPolyline
 90
5
 70
0
 10
598.2342519685039
 20
47.20472440944882
 10
634.2185039370079
 20
47.20472440944882
 10
634.2185039370079
 20
46.22047244094488
 10
598.2342519685039
 20
46.22047244094488
 10
598.2342519685039
 20
47.20472440944882
  0
CIRCLE
  5
13C
330
17
100
AcDbEntity
  8
Entrance corner
100
AcDbCircle
 10
634.2185039370079
 20
47.204724409448815
 30
0.0
 40
0.2755905511811024
  0
SPLINE
  5
13D
330
17
100
AcDbEntity
  8
Entrance corner
  6
DASHED
100
AcDbSpline
 70
0
 71
3
 72
14
 73
10
 74
0
 40
0.0
 40
0.0
 40
0.0
 40
0.0
 40
1.0
 40
1.0
 40
1.0
 40
2.0
 40
2.0
 40
2.0
 40
3.0
 40
3.0
 40
3.0
 40
3.0
 10
634.2185039370079
 20
11.220472440944881
 30
0.0
 10
627.9024186641502
 20
11.220472440944881
 30
0.0
 10
621.6962682515195
 20
12.883405432115339
 30
0.0
 10
616.2263779527559
 20
16.041448068544213
 30
0.0
 10
610.7564876539924
 20
19.199490704973087
 30
0.0
 10
606.2132702325322
 20
23.742708126433268
 30
0.0
 10
603.0552275961034
 20
29.21259842519684
 30
0.0
 10
599.8971849596744
 20
34.68248872396042
 30
0.0
 10
598.2342519685039
 20
40.888639136591074
 30
0.0
 10
598.2342519685039
 20
47.20472440944882
 30
0.0
  0
LWPOLYLINE
  5
13E
330
17
100
AcDbEntity
  8
Entrance corner
  6
DASHED
100
AcDbPolyline
 90
5
 70
0
 10
597.998031496063
 20
45.98425196850394
 10
634.4547244094489
 20
45.98425196850394
 10
634.4547244094489
 20
44.21259842519685
 10
597.998031496063
 20
44.21259842519685
 10
597.998031496063
 20
45.98425196850394
  0
CIRCLE
  5
13F
330
17
100
AcDbEntity
  8
Entrance corner
100
AcDbCircle
 10
634.4547244094489
 20
45.98425196850393
 30
0.0
 40
0.2755905511811024
  0
CIRCLE
  5
140
330
17
100
AcDbEntity
  8
Entrance corner
100
AcDbCircle
 10
600.7933070866143
 20
43.031496062992126
 30
0.0
 40
1.0629921259842519
  0
CIRCLE
  5
141
330
17
100
AcDbEntity
  8
Entrance corner
100
AcDbCircle
 10
606.1082677165355
 20
41.45669291338583
 30
0.0
 40
0.7874015748031495
  0
CIRCLE
  5
142
330
17
100
AcDbEntity
  8
Entrance corner
100
AcDbCircle
 10
606.1082677165355
 20
41.45669291338583
 30
0.0
 40
0.31496062992125984
  0
TEXT
  5
143
330
17
100
AcDbEntity
  8
LABELS
100
AcDbText
 10
581.3838582677166
 20
60.62992125984252
 30
0.0
 40
1.2377952755905512
  1
ENTRANCE CORNER  (1:1, inches)
 11
581.3838582677166
 21
60.62992125984252
 31
0.0
100
AcDbText
  0
TEXT
  5
144
330
17
100
AcDbEntity
  8
LABELS
100
AcDbText
 10
0.0
 20
-8.661417322834646
 30
0.0
 40
1.574803149606299
  1
Bed wall — the niche · AST-DR-034
 11
0.0
 21
-8.661417322834646
 31
0.0
100
AcDbText
  0
ENDSEC
  0
SECTION
  2
OBJECTS
  0
DICTIONARY
  5
A
330
0
100
AcDbDictionary
281
1
  3
ACAD_COLOR
350
B
  3
ACAD_GROUP
350
C
  3
ACAD_LAYOUT
350
D
  3
ACAD_MATERIAL
350
E
  3
ACAD_MLEADERSTYLE
350
F
  3
ACAD_MLINESTYLE
350
10
  3
ACAD_PLOTSETTINGS
350
11
  3
ACAD_PLOTSTYLENAME
350
12
  3
ACAD_SCALELIST
350
14
  3
ACAD_TABLESTYLE
350
15
  3
ACAD_VISUALSTYLE
350
16
  3
EZDXF_META
350
2D
  0
DICTIONARY
  5
B
330
A
100
AcDbDictionary
281
1
  0
DICTIONARY
  5
C
330
A
100
AcDbDictionary
281
1
  0
DICTIONARY
  5
D
330
A
100
AcDbDictionary
281
1
  3
Model
350
1A
  3
Layout1
350
1E
  0
DICTIONARY
  5
E
330
A
100
AcDbDictionary
281
1
  3
ByBlock
350
1F
  3
ByLayer
350
20
  3
Global
350
21
  0
DICTIONARY
  5
F
330
A
100
AcDbDictionary
281
1
  3
Standard
350
2C
  0
DICTIONARY
  5
10
330
A
100
AcDbDictionary
281
1
  3
Standard
350
22
  0
DICTIONARY
  5
11
330
A
100
AcDbDictionary
281
1
  0
ACDBDICTIONARYWDFLT
  5
12
330
A
100
AcDbDictionary
281
1
  3
Normal
350
13
100
AcDbDictionaryWithDefault
340
13
  0
ACDBPLACEHOLDER
  5
13
330
12
  0
DICTIONARY
  5
14
330
A
100
AcDbDictionary
281
1
  0
DICTIONARY
  5
15
330
A
100
AcDbDictionary
281
1
  0
DICTIONARY
  5
16
330
A
100
AcDbDictionary
281
1
  3
2dWireframe
350
5A
  3
Basic
350
5B
  3
Brighten
350
5C
  3
ColorChange
350
5D
  3
Conceptual
350
5E
  3
Dim
350
5F
  3
EdgeColorOff
350
60
  3
Facepattern
350
61
  3
Flat
350
62
  3
FlatWithEdges
350
63
  3
Gouraud
350
64
  3
GouraudWithEdges
350
65
  3
Hidden
350
66
  3
JitterOff
350
67
  3
Linepattern
350
68
  3
Modeling
350
69
  3
OverhangOff
350
6A
  3
Realistic
350
6B
  3
Shaded
350
6C
  3
Shaded with edges
350
6D
  3
Shades of Gray
350
6E
  3
Sketchy
350
6F
  3
Thicken
350
70
  3
Wireframe
350
71
  3
X-Ray
350
72
  0
LAYOUT
  5
1A
330
D
100
AcDbPlotSettings
  1

  4
A3
  6

 40
7.5
 41
20.0
 42
7.5
 43
20.0
 44
420.0
 45
297.0
 46
0.0
 47
0.0
 48
0.0
 49
0.0
140
0.0
141
0.0
142
1.0
143
1.0
 70
1024
 72
1
 73
0
 74
5
  7

 75
16
 76
0
 77
2
 78
300
147
1.0
148
0.0
149
0.0
100
AcDbLayout
  1
Model
 70
1
 71
0
 10
0.0
 20
0.0
 11
420.0
 21
297.0
 12
0.0
 22
0.0
 32
0.0
 14
1e+20
 24
1e+20
 34
1e+20
 15
-1e+20
 25
-1e+20
 35
-1e+20
146
0.0
 13
0.0
 23
0.0
 33
0.0
 16
1.0
 26
0.0
 36
0.0
 17
0.0
 27
1.0
 37
0.0
 76
1
330
17
  0
LAYOUT
  5
1E
330
D
100
AcDbPlotSettings
  1

  4
A3
  6

 40
7.5
 41
20.0
 42
7.5
 43
20.0
 44
420.0
 45
297.0
 46
0.0
 47
0.0
 48
0.0
 49
0.0
140
0.0
141
0.0
142
1.0
143
1.0
 70
0
 72
1
 73
0
 74
5
  7

 75
16
 76
0
 77
2
 78
300
147
1.0
148
0.0
149
0.0
100
AcDbLayout
  1
Layout1
 70
1
 71
1
 10
0.0
 20
0.0
 11
420.0
 21
297.0
 12
0.0
 22
0.0
 32
0.0
 14
1e+20
 24
1e+20
 34
1e+20
 15
-1e+20
 25
-1e+20
 35
-1e+20
146
0.0
 13
0.0
 23
0.0
 33
0.0
 16
1.0
 26
0.0
 36
0.0
 17
0.0
 27
1.0
 37
0.0
 76
1
330
1B
  0
MATERIAL
  5
1F
102
{ACAD_REACTORS
330
E
102
}
330
E
100
AcDbMaterial
  1
ByBlock
  2

 70
0
 40
1.0
 71
1
 41
1.0
 91
-1023410177
 42
1.0
 72
1
  3

 73
1
 74
1
 75
1
 44
0.5
 73
0
 45
1.0
 46
1.0
 77
1
  4

 78
1
 79
1
170
1
 48
1.0
171
1
  6

172
1
173
1
174
1
140
1.0
141
1.0
175
1
  7

176
1
177
1
178
1
143
1.0
179
1
  8

270
1
271
1
272
1
145
1.0
146
1.0
273
1
  9

274
1
275
1
276
1
 42
1.0
 72
1
  3

 73
1
 74
1
 75
1
 94
63
  0
MATERIAL
  5
20
102
{ACAD_REACTORS
330
E
102
}
330
E
100
AcDbMaterial
  1
ByLayer
  2

 70
0
 40
1.0
 71
1
 41
1.0
 91
-1023410177
 42
1.0
 72
1
  3

 73
1
 74
1
 75
1
 44
0.5
 73
0
 45
1.0
 46
1.0
 77
1
  4

 78
1
 79
1
170
1
 48
1.0
171
1
  6

172
1
173
1
174
1
140
1.0
141
1.0
175
1
  7

176
1
177
1
178
1
143
1.0
179
1
  8

270
1
271
1
272
1
145
1.0
146
1.0
273
1
  9

274
1
275
1
276
1
 42
1.0
 72
1
  3

 73
1
 74
1
 75
1
 94
63
  0
MATERIAL
  5
21
102
{ACAD_REACTORS
330
E
102
}
330
E
100
AcDbMaterial
  1
Global
  2

 70
0
 40
1.0
 71
1
 41
1.0
 91
-1023410177
 42
1.0
 72
1
  3

 73
1
 74
1
 75
1
 44
0.5
 73
0
 45
1.0
 46
1.0
 77
1
  4

 78
1
 79
1
170
1
 48
1.0
171
1
  6

172
1
173
1
174
1
140
1.0
141
1.0
175
1
  7

176
1
177
1
178
1
143
1.0
179
1
  8

270
1
271
1
272
1
145
1.0
146
1.0
273
1
  9

274
1
275
1
276
1
 42
1.0
 72
1
  3

 73
1
 74
1
 75
1
 94
63
  0
MLINESTYLE
  5
22
102
{ACAD_REACTORS
330
10
102
}
330
10
100
AcDbMlineStyle
  2
Standard
 70
0
  3

 62
256
 51
90.0
 52
90.0
 71
2
 49
0.5
 62
256
  6
BYLAYER
 49
-0.5
 62
256
  6
BYLAYER
  0
MLEADERSTYLE
  5
2C
102
{ACAD_REACTORS
330
F
102
}
330
F
100
AcDbMLeaderStyle
179
2
170
2
171
1
172
0
 90
2
 40
0.0
 41
0.0
173
1
 91
-1056964608
 92
-2
290
1
 42
2.0
291
1
 43
8.0
  3
Standard
 44
4.0
300

342
29
174
1
175
1
176
0
178
1
 93
-1056964608
 45
4.0
292
0
297
0
 46
4.0
 94
-1056964608
 47
1.0
 49
1.0
140
1.0
294
1
141
0.0
177
0
142
1.0
295
0
296
0
143
3.75
271
0
272
9
273
9
  0
DICTIONARY
  5
2D
330
A
100
AcDbDictionary
280
1
281
1
  3
CREATED_BY_EZDXF
350
2E
  3
WRITTEN_BY_EZDXF
350
147
  0
DICTIONARYVAR
  5
2E
330
2D
100
DictionaryVariables
280
0
  1
1.4.2 @ 2026-10-03T10:57:53.525151+00:00
  0
VISUALSTYLE
  5
5A
102
{ACAD_REACTORS
330
16
102
}
330
16
100
AcDbVisualStyle
  2
2dWireframe
 70
4
 90
0
 40
0.6
 62
7
290
0
291
0
  0
VISUALSTYLE
  5
5B
102
{ACAD_REACTORS
330
16
102
}
330
16
100
AcDbVisualStyle
  2
Basic
 70
7
 90
1
 40
0.6
 62
7
290
0
291
1
  0
VISUALSTYLE
  5
5C
102
{ACAD_REACTORS
330
16
102
}
330
16
100
AcDbVisualStyle
  2
Brighten
 70
12
 90
2
 40
0.6
 62
7
290
0
291
1
  0
VISUALSTYLE
  5
5D
102
{ACAD_REACTORS
330
16
102
}
330
16
100
AcDbVisualStyle
  2
ColorChange
 70
16
 90
2
 40
0.6
 62
8
290
0
291
1
  0
VISUALSTYLE
  5
5E
102
{ACAD_REACTORS
330
16
102
}
330
16
100
AcDbVisualStyle
  2
Conceptual
 70
9
 90
3
 40
0.6
 62
7
290
0
291
0
  0
VISUALSTYLE
  5
5F
102
{ACAD_REACTORS
330
16
102
}
330
16
100
AcDbVisualStyle
  2
Dim
 70
11
 90
2
 40
0.6
 62
7
290
0
291
1
  0
VISUALSTYLE
  5
60
102
{ACAD_REACTORS
330
16
102
}
330
16
100
AcDbVisualStyle
  2
EdgeColorOff
 70
22
 90
2
 40
0.6
 62
7
290
0
291
1
  0
VISUALSTYLE
  5
61
102
{ACAD_REACTORS
330
16
102
}
330
16
100
AcDbVisualStyle
  2
Facepattern
 70
15
 90
2
 40
0.6
 62
7
290
0
291
1
  0
VISUALSTYLE
  5
62
102
{ACAD_REACTORS
330
16
102
}
330
16
100
AcDbVisualStyle
  2
Flat
 70
0
 90
2
 40
0.6
 62
7
290
0
291
1
  0
VISUALSTYLE
  5
63
102
{ACAD_REACTORS
330
16
102
}
330
16
100
AcDbVisualStyle
  2
FlatWithEdges
 70
1
 90
2
 40
0.6
 62
7
290
0
291
1
  0
VISUALSTYLE
  5
64
102
{ACAD_REACTORS
330
16
102
}
330
16
100
AcDbVisualStyle
  2
Gouraud
 70
2
 90
2
 40
0.6
 62
7
290
0
291
1
  0
VISUALSTYLE
  5
65
102
{ACAD_REACTORS
330
16
102
}
330
16
100
AcDbVisualStyle
  2
GouraudWithEdges
 70
3
 90
2
 40
0.6
 62
7
290
0
291
1
  0
VISUALSTYLE
  5
66
102
{ACAD_REACTORS
330
16
102
}
330
16
100
AcDbVisualStyle
  2
Hidden
 70
6
 90
1
 40
0.6
 62
7
290
0
291
0
  0
VISUALSTYLE
  5
67
102
{ACAD_REACTORS
330
16
102
}
330
16
100
AcDbVisualStyle
  2
JitterOff
 70
20
 90
2
 40
0.6
 62
7
290
0
291
1
  0
VISUALSTYLE
  5
68
102
{ACAD_REACTORS
330
16
102
}
330
16
100
AcDbVisualStyle
  2
Linepattern
 70
14
 90
2
 40
0.6
 62
7
290
0
291
1
  0
VISUALSTYLE
  5
69
102
{ACAD_REACTORS
330
16
102
}
330
16
100
AcDbVisualStyle
  2
Modeling
 70
10
 90
2
 40
0.6
 62
7
290
0
291
0
  0
VISUALSTYLE
  5
6A
102
{ACAD_REACTORS
330
16
102
}
330
16
100
AcDbVisualStyle
  2
OverhangOff
 70
21
 90
2
 40
0.6
 62
7
290
0
291
1
  0
VISUALSTYLE
  5
6B
102
{ACAD_REACTORS
330
16
102
}
330
16
100
AcDbVisualStyle
  2
Realistic
 70
8
 90
2
 40
0.6
 62
7
290
0
291
0
  0
VISUALSTYLE
  5
6C
102
{ACAD_REACTORS
330
16
102
}
330
16
100
AcDbVisualStyle
  2
Shaded
 70
27
 90
2
 40
0.6
 62
7
290
0
291
0
  0
VISUALSTYLE
  5
6D
102
{ACAD_REACTORS
330
16
102
}
330
16
100
AcDbVisualStyle
  2
Shaded with edges
 70
26
 90
2
 40
0.6
 62
7
290
0
291
0
  0
VISUALSTYLE
  5
6E
102
{ACAD_REACTORS
330
16
102
}
330
16
100
AcDbVisualStyle
  2
Shades of Gray
 70
23
 90
2
 40
0.6
 62
7
290
0
291
0
  0
VISUALSTYLE
  5
6F
102
{ACAD_REACTORS
330
16
102
}
330
16
100
AcDbVisualStyle
  2
Sketchy
 70
24
 90
1
 40
0.6
 62
7
290
0
291
0
  0
VISUALSTYLE
  5
70
102
{ACAD_REACTORS
330
16
102
}
330
16
100
AcDbVisualStyle
  2
Thicken
 70
13
 90
2
 40
0.6
 62
7
290
0
291
1
  0
VISUALSTYLE
  5
71
102
{ACAD_REACTORS
330
16
102
}
330
16
100
AcDbVisualStyle
  2
Wireframe
 70
5
 90
0
 40
0.6
 62
7
290
0
291
0
  0
VISUALSTYLE
  5
72
102
{ACAD_REACTORS
330
16
102
}
330
16
100
AcDbVisualStyle
  2
X-Ray
 70
25
 90
2
 40
0.5
 62
7
290
0
291
0
  0
DICTIONARYVAR
  5
147
330
2D
100
DictionaryVariables
280
0
  1
1.4.2 @ 2026-10-03T10:57:53.551338+00:00
  0
ENDSEC
  0
EOF
