<svg xmlns="http://www.w3.org/2000/svg" viewBox="0 0 420 297" class="sheet"><style>.dk-mm{display:none}</style><rect x="0" y="0" width="420" height="297" fill="#fff"/><rect x="8" y="8" width="404" height="281" fill="none" stroke="#1b1b1b" stroke-width="0.5"/><defs><pattern id="hatchDesk2" patternUnits="userSpaceOnUse" width="3" height="3" patternTransform="rotate(45)"><line x1="0" y1="0" x2="0" y2="3" stroke="#999" stroke-width="0.25"/></pattern></defs><text x="18" y="17" font-size="3.2" text-anchor="start" fill="#1b1b1b" font-weight="700" letter-spacing="0.3" font-family="Helvetica, Arial, sans-serif">1 · TOP EDGE</text><line x1="18" y1="18.5" x2="68" y2="18.5" stroke="#1b1b1b" stroke-width="0.35"/><text x="18" y="21.8" font-size="1.7" text-anchor="start" fill="#666" font-weight="400" letter-spacing="0.2" font-family="Helvetica, Arial, sans-serif">SECTION · SCALE 1:1</text><g stroke="#1b1b1b" stroke-width="0.35" stroke-linejoin="round">
    <path fill="url(#hatchDesk2)" d="M 140 34 L 46 34 Q 44 34 44 36 L 44 38 A 4 4 0 0 0 44 46 A 4 4 0 0 0 44 54 A 4 4 0 0 0 44 62 A 4 4 0 0 0 44 70 L 44 72 Q 44 74 46 74 L 140 74"/>
    <path fill="url(#hatchDesk2)" d="M 58 74 L 70 74 L 70 86 Q 61 84 58 74 Z"/>
    <path fill="url(#hatchDesk2)" d="M 70 74 L 92 74 L 92 104 L 70 104 Z"/>
    <path fill="none" stroke-width="0.2" d="M 140 31 L 140 49 L 136 52 L 144 56 L 140 59 L 140 77"/></g><g class="dk-dim"><g stroke="#8a3a22" stroke-width="0.13"><line x1="32" y1="32.5" x2="32" y2="75.5"/><line x1="39" y1="34" x2="33.2" y2="34"/><line x1="31" y1="35" x2="33" y2="33" stroke-width="0.3"/><line x1="39" y1="38" x2="33.2" y2="38"/><line x1="31" y1="39" x2="33" y2="37" stroke-width="0.3"/><line x1="39" y1="70" x2="33.2" y2="70"/><line x1="31" y1="71" x2="33" y2="69" stroke-width="0.3"/><line x1="39" y1="74" x2="33.2" y2="74"/><line x1="31" y1="75" x2="33" y2="73" stroke-width="0.3"/></g><text x="31.2" y="54" font-size="1.5" text-anchor="middle" fill="#8a3a22" font-weight="400" letter-spacing="0" font-family="Helvetica, Arial, sans-serif" class="dk-mm" transform="rotate(-90 31.2 54)">4 REEDS × 8</text><text x="31.2" y="54" font-size="1.5" text-anchor="middle" fill="#8a3a22" font-weight="400" letter-spacing="0" font-family="Helvetica, Arial, sans-serif" class="dk-in" transform="rotate(-90 31.2 54)">⅛" REEDS × 8</text></g><g class="dk-dim"><g stroke="#8a3a22" stroke-width="0.13"><line x1="26" y1="32.5" x2="26" y2="75.5"/><line x1="39" y1="34" x2="27.2" y2="34"/><line x1="25" y1="35" x2="27" y2="33" stroke-width="0.3"/><line x1="39" y1="74" x2="27.2" y2="74"/><line x1="25" y1="75" x2="27" y2="73" stroke-width="0.3"/></g><text x="25.2" y="54" font-size="1.7" text-anchor="middle" fill="#8a3a22" font-weight="400" letter-spacing="0" font-family="Helvetica, Arial, sans-serif" class="dk-mm" transform="rotate(-90 25.2 54)">40</text><text x="25.2" y="54" font-size="1.7" text-anchor="middle" fill="#8a3a22" font-weight="400" letter-spacing="0" font-family="Helvetica, Arial, sans-serif" class="dk-in" transform="rotate(-90 25.2 54)">1⅝"</text></g><g class="dk-dim"><g stroke="#8a3a22" stroke-width="0.13"><line x1="38.5" y1="29" x2="71.5" y2="29"/><line x1="40" y1="33" x2="40" y2="30.2"/><line x1="39" y1="30" x2="41" y2="28" stroke-width="0.3"/><line x1="70" y1="33" x2="70" y2="30.2"/><line x1="69" y1="30" x2="71" y2="28" stroke-width="0.3"/></g><text x="55" y="28.2" font-size="1.5" text-anchor="middle" fill="#8a3a22" font-weight="400" letter-spacing="0" font-family="Helvetica, Arial, sans-serif" class="dk-mm">30</text><text x="55" y="28.2" font-size="1.5" text-anchor="middle" fill="#8a3a22" font-weight="400" letter-spacing="0" font-family="Helvetica, Arial, sans-serif" class="dk-in">1⅛"</text></g><line x1="128" y1="35" x2="130" y2="24" stroke="#1b1b1b" stroke-width="0.13"/><circle cx="128" cy="35" r="0.4" fill="#1b1b1b"/><text x="131" y="24.2" font-size="1.7" text-anchor="start" fill="#1b1b1b" font-weight="400" letter-spacing="0" font-family="Helvetica, Arial, sans-serif">PLAIN TEAK TOP</text><text x="131" y="26.5" font-size="1.45" text-anchor="start" fill="#666" font-weight="400" letter-spacing="0" font-family="Helvetica, Arial, sans-serif">NO LEATHER INSET</text><line x1="62" y1="79" x2="45" y2="96" stroke="#1b1b1b" stroke-width="0.13"/><circle cx="62" cy="79" r="0.4" fill="#1b1b1b"/><text x="44" y="96.2" font-size="1.7" text-anchor="end" fill="#1b1b1b" font-weight="400" letter-spacing="0" font-family="Helvetica, Arial, sans-serif">COVE 12 × 12</text><line x1="85" y1="94" x2="102" y2="96" stroke="#1b1b1b" stroke-width="0.13"/><circle cx="85" cy="94" r="0.4" fill="#1b1b1b"/><text x="103" y="96.2" font-size="1.7" text-anchor="start" fill="#1b1b1b" font-weight="400" letter-spacing="0" font-family="Helvetica, Arial, sans-serif">FRIEZE 22</text><text x="18" y="118" font-size="3.2" text-anchor="start" fill="#1b1b1b" font-weight="700" letter-spacing="0.3" font-family="Helvetica, Arial, sans-serif">2 · DRAWER RAIL</text><line x1="18" y1="119.5" x2="68" y2="119.5" stroke="#1b1b1b" stroke-width="0.35"/><text x="18" y="122.8" font-size="1.7" text-anchor="start" fill="#666" font-weight="400" letter-spacing="0.2" font-family="Helvetica, Arial, sans-serif">SECTION · SCALE 1:1</text><g stroke="#1b1b1b" stroke-width="0.35" stroke-linejoin="round">
    <path fill="url(#hatchDesk2)" d="M 48 132 L 70 132 L 70 160 L 48 160 Z"/>
    <circle fill="url(#hatchDesk2)" cx="46.5" cy="133.5" r="1.5"/><circle fill="url(#hatchDesk2)" cx="46.5" cy="158.5" r="1.5"/>
    <path fill="url(#hatchDesk2)" d="M 45 162 A 2.5 2.5 0 0 0 45 167 A 2.5 2.5 0 0 0 45 172 A 2.5 2.5 0 0 0 45 177 L 67 177 L 67 162 Z"/>
    <path fill="none" stroke-width="0.2" stroke-dasharray="1 .7" d="M 70 158 L 125 158"/></g><line x1="46.5" y1="133.5" x2="75" y2="128" stroke="#1b1b1b" stroke-width="0.13"/><circle cx="46.5" cy="133.5" r="0.4" fill="#1b1b1b"/><text x="76" y="128.2" font-size="1.7" text-anchor="start" fill="#1b1b1b" font-weight="400" letter-spacing="0" font-family="Helvetica, Arial, sans-serif">COCKBEAD Ø3 ROUND DRAWER FRONT</text><line x1="45" y1="170" x2="40" y2="187" stroke="#1b1b1b" stroke-width="0.13"/><circle cx="45" cy="170" r="0.4" fill="#1b1b1b"/><text x="41" y="187.2" font-size="1.7" text-anchor="start" fill="#1b1b1b" font-weight="400" letter-spacing="0" font-family="Helvetica, Arial, sans-serif">RAIL 15 HIGH — 3 REEDS</text><text x="41" y="189.5" font-size="1.45" text-anchor="start" fill="#666" font-weight="400" letter-spacing="0" font-family="Helvetica, Arial, sans-serif">RUNS FULL WIDTH, ALSO ACROSS KNEEHOLE</text><line x1="105" y1="158" x2="107" y2="150" stroke="#1b1b1b" stroke-width="0.13"/><circle cx="105" cy="158" r="0.4" fill="#1b1b1b"/><text x="108" y="150.2" font-size="1.7" text-anchor="start" fill="#1b1b1b" font-weight="400" letter-spacing="0" font-family="Helvetica, Arial, sans-serif">DRAWER BOTTOM</text><text x="150" y="17" font-size="3.2" text-anchor="start" fill="#1b1b1b" font-weight="700" letter-spacing="0.3" font-family="Helvetica, Arial, sans-serif">3 · MONITOR CLAMP BAY</text><line x1="150" y1="18.5" x2="290" y2="18.5" stroke="#1b1b1b" stroke-width="0.35"/><text x="150" y="21.8" font-size="1.7" text-anchor="start" fill="#666" font-weight="400" letter-spacing="0.2" font-family="Helvetica, Arial, sans-serif">SECTION AT THE BACK CENTRE · SCALE 1:4 · NO CARVING ON THIS DESK</text><g transform="translate(-26 40) scale(0.25)" stroke="#1b1b1b" stroke-width="1.2" fill="none" stroke-linejoin="round" stroke-linecap="round"><path fill="url(#hatchDesk2)" d="M 744 0 L 910 0 L 910 4 A 4 4 0 0 1 910 12 A 4 4 0 0 1 910 20 A 4 4 0 0 1 910 28 A 4 4 0 0 1 910 36 L 910 40 L 744 40 Z"/><rect fill="url(#hatchDesk2)" x="790" y="40" width="22" height="90"/><rect fill="url(#hatchDesk2)" x="794" y="130" width="18" height="70"/><rect fill="url(#hatchDesk2)" x="744" y="65" width="15" height="44"/><g fill="none" stroke="#8a3a22" stroke-width="0.96" stroke-dasharray="4.8 3.2"><rect x="838" y="-14" width="106" height="14"/><rect x="926" y="-14" width="18" height="114"/><rect x="854" y="88" width="90" height="12"/><line x1="874" y1="52" x2="874" y2="88"/><rect x="860" y="40" width="28" height="12"/><line x1="935" y1="-14" x2="935" y2="-60"/></g><line x1="965" y1="-70" x2="965" y2="210" stroke-width="1.44" stroke-dasharray="8 4"/></g><g class="dk-dim"><g stroke="#8a3a22" stroke-width="0.13"><line x1="175.5" y1="32.5" x2="216.75" y2="32.5"/><line x1="177" y1="36" x2="177" y2="33.7"/><line x1="176" y1="33.5" x2="178" y2="31.5" stroke-width="0.3"/><line x1="202.5" y1="36" x2="202.5" y2="33.7"/><line x1="201.5" y1="33.5" x2="203.5" y2="31.5" stroke-width="0.3"/><line x1="215.25" y1="36" x2="215.25" y2="33.7"/><line x1="214.25" y1="33.5" x2="216.25" y2="31.5" stroke-width="0.3"/></g><text x="189.75" y="31.7" font-size="1.3" text-anchor="middle" fill="#8a3a22" font-weight="400" letter-spacing="0" font-family="Helvetica, Arial, sans-serif" class="dk-mm">102 CLEAR</text><text x="189.75" y="31.7" font-size="1.3" text-anchor="middle" fill="#8a3a22" font-weight="400" letter-spacing="0" font-family="Helvetica, Arial, sans-serif" class="dk-in">4" CLEAR</text><text x="208.88" y="31.7" font-size="1.3" text-anchor="middle" fill="#8a3a22" font-weight="400" letter-spacing="0" font-family="Helvetica, Arial, sans-serif" class="dk-mm">51</text><text x="208.88" y="31.7" font-size="1.3" text-anchor="middle" fill="#8a3a22" font-weight="400" letter-spacing="0" font-family="Helvetica, Arial, sans-serif" class="dk-in">2"</text></g><g class="dk-dim"><g stroke="#8a3a22" stroke-width="0.13"><line x1="218.5" y1="48.5" x2="218.5" y2="73.75"/><line x1="203.5" y1="50" x2="219.7" y2="50"/><line x1="217.5" y1="51" x2="219.5" y2="49" stroke-width="0.3"/><line x1="203.5" y1="72.25" x2="219.7" y2="72.25"/><line x1="217.5" y1="73.25" x2="219.5" y2="71.25" stroke-width="0.3"/></g><text x="217.7" y="61.13" font-size="1.3" text-anchor="middle" fill="#8a3a22" font-weight="400" letter-spacing="0" font-family="Helvetica, Arial, sans-serif" class="dk-mm" transform="rotate(-90 217.7 61.13)">89</text><text x="217.7" y="61.13" font-size="1.3" text-anchor="middle" fill="#8a3a22" font-weight="400" letter-spacing="0" font-family="Helvetica, Arial, sans-serif" class="dk-in" transform="rotate(-90 217.7 61.13)">3½"</text></g><g class="dk-dim"><g stroke="#8a3a22" stroke-width="0.13"><line x1="156" y1="38.5" x2="156" y2="51.5"/><line x1="159" y1="40" x2="157.2" y2="40"/><line x1="155" y1="41" x2="157" y2="39" stroke-width="0.3"/><line x1="159" y1="50" x2="157.2" y2="50"/><line x1="155" y1="51" x2="157" y2="49" stroke-width="0.3"/></g><text x="155.2" y="45" font-size="1.3" text-anchor="middle" fill="#8a3a22" font-weight="400" letter-spacing="0" font-family="Helvetica, Arial, sans-serif" class="dk-mm" transform="rotate(-90 155.2 45)">40</text><text x="155.2" y="45" font-size="1.3" text-anchor="middle" fill="#8a3a22" font-weight="400" letter-spacing="0" font-family="Helvetica, Arial, sans-serif" class="dk-in" transform="rotate(-90 155.2 45)">1⅝"</text></g><line x1="192.5" y1="66.5" x2="158" y2="80" stroke="#1b1b1b" stroke-width="0.13"/><circle cx="192.5" cy="66.5" r="0.4" fill="#1b1b1b"/><text x="157" y="80.2" font-size="1.7" text-anchor="end" fill="#1b1b1b" font-weight="400" letter-spacing="0" font-family="Helvetica, Arial, sans-serif">CLAMP (DASHED)</text><text x="157" y="82.5" font-size="1.45" text-anchor="end" fill="#666" font-weight="400" letter-spacing="0" font-family="Helvetica, Arial, sans-serif">BITES 2–3 IN IN; BODY IN THE GAP</text><line x1="174.25" y1="60" x2="158" y2="57.5" stroke="#1b1b1b" stroke-width="0.13"/><circle cx="174.25" cy="60" r="0.4" fill="#1b1b1b"/><text x="157" y="57.7" font-size="1.7" text-anchor="end" fill="#1b1b1b" font-weight="400" letter-spacing="0" font-family="Helvetica, Arial, sans-serif">BACK RAIL, SET IN 4 IN</text><text x="157" y="60" font-size="1.45" text-anchor="end" fill="#666" font-weight="400" letter-spacing="0" font-family="Helvetica, Arial, sans-serif">AT THE BAY ONLY · 10 IN WIDE</text><line x1="215.25" y1="87.5" x2="219.25" y2="95" stroke="#1b1b1b" stroke-width="0.13"/><circle cx="215.25" cy="87.5" r="0.4" fill="#1b1b1b"/><text x="220.25" y="95.2" font-size="1.7" text-anchor="start" fill="#1b1b1b" font-weight="400" letter-spacing="0" font-family="Helvetica, Arial, sans-serif">GLASS PARTITION</text><text x="222" y="34" font-size="1.6" text-anchor="start" fill="#1b1b1b" font-weight="400" letter-spacing="0" font-family="Helvetica, Arial, sans-serif">MONITOR CLAMP BAY — back centre, 10 in wide:</text><text x="222" y="38.4" font-size="1.6" text-anchor="start" fill="#666" font-weight="400" letter-spacing="0" font-family="Helvetica, Arial, sans-serif">   underside of the top clear 4 in in from the</text><text x="222" y="42.8" font-size="1.6" text-anchor="start" fill="#666" font-weight="400" letter-spacing="0" font-family="Helvetica, Arial, sans-serif">   back edge and 3½ in down — the cove stops,</text><text x="222" y="47.2" font-size="1.6" text-anchor="start" fill="#666" font-weight="400" letter-spacing="0" font-family="Helvetica, Arial, sans-serif">   the back rail and modesty panel set in to 4 in,</text><text x="222" y="51.6" font-size="1.6" text-anchor="start" fill="#666" font-weight="400" letter-spacing="0" font-family="Helvetica, Arial, sans-serif">   the centre frieze drawer is 1½ in shorter.</text><text x="222" y="56" font-size="1.6" text-anchor="start" fill="#666" font-weight="400" letter-spacing="0" font-family="Helvetica, Arial, sans-serif">Clamp body sits in the 2 in gap to the glass.</text><text x="222" y="60.4" font-size="1.6" text-anchor="start" fill="#666" font-weight="400" letter-spacing="0" font-family="Helvetica, Arial, sans-serif">Top 1⅝ in solid teak: inside the grip of common</text><text x="222" y="64.8" font-size="1.6" text-anchor="start" fill="#666" font-weight="400" letter-spacing="0" font-family="Helvetica, Arial, sans-serif">   monitor-arm clamps (about ½–3½ in).</text><text x="222" y="69.2" font-size="1.6" text-anchor="start" fill="#666" font-weight="400" letter-spacing="0" font-family="Helvetica, Arial, sans-serif"></text><text x="222" y="73.6" font-size="1.6" text-anchor="start" fill="#1b1b1b" font-weight="400" letter-spacing="0" font-family="Helvetica, Arial, sans-serif">NO CARVING, NO CORNER MOULDINGS (owner, 2 Oct):</text><text x="222" y="78" font-size="1.6" text-anchor="start" fill="#666" font-weight="400" letter-spacing="0" font-family="Helvetica, Arial, sans-serif">   consoles, drops, collars and corner beads all</text><text x="222" y="82.4" font-size="1.6" text-anchor="start" fill="#666" font-weight="400" letter-spacing="0" font-family="Helvetica, Arial, sans-serif">   left out; just the square panel mouldings.</text><text x="300" y="17" font-size="3.2" text-anchor="start" fill="#1b1b1b" font-weight="700" letter-spacing="0.3" font-family="Helvetica, Arial, sans-serif">5 · PEDESTAL DRAWERS</text><line x1="300" y1="18.5" x2="370" y2="18.5" stroke="#1b1b1b" stroke-width="0.35"/><text x="300" y="21.8" font-size="1.7" text-anchor="start" fill="#666" font-weight="400" letter-spacing="0.2" font-family="Helvetica, Arial, sans-serif">RIGHT PEDESTAL FRONT · SCALE 1:10 · THREE EACH SIDE</text><g transform="translate(135.4 17) scale(0.1)" stroke="#1b1b1b" stroke-width="3" fill="none" stroke-linejoin="round" stroke-linecap="round"><rect x="1696" y="130" width="560" height="540"/><g stroke-width="1.2"><line x1="1734" y1="130" x2="1734" y2="670"/><line x1="2218" y1="130" x2="2218" y2="670"/></g><rect x="1744" y="142" width="464" height="140"/><rect x="1748" y="146" width="456" height="132" stroke-width="1.2"/><circle cx="1931" cy="202" r="8"/><circle cx="2021" cy="202" r="8"/><circle cx="1931" cy="202" r="3" stroke-width="1.2"/><circle cx="2021" cy="202" r="3" stroke-width="1.2"/><path d="M 1931 205 C 1931 216 1940 214 1946 222 C 1952 229 1964 228 1976 228 C 1988 228 2000 229 2006 222 C 2012 214 2021 216 2021 205"/><path stroke-width="1.2" d="M 1971 158 a 4 4 0 1 1 10 0 l 2 10 l -14 0 z"/><rect x="1744" y="300" width="464" height="160"/><rect x="1748" y="304" width="456" height="152" stroke-width="1.2"/><circle cx="1931" cy="370" r="8"/><circle cx="2021" cy="370" r="8"/><circle cx="1931" cy="370" r="3" stroke-width="1.2"/><circle cx="2021" cy="370" r="3" stroke-width="1.2"/><path d="M 1931 373 C 1931 384 1940 382 1946 390 C 1952 397 1964 396 1976 396 C 1988 396 2000 397 2006 390 C 2012 382 2021 384 2021 373"/><path stroke-width="1.2" d="M 1971 316 a 4 4 0 1 1 10 0 l 2 10 l -14 0 z"/><rect x="1744" y="478" width="464" height="180"/><rect x="1748" y="482" width="456" height="172" stroke-width="1.2"/><circle cx="1931" cy="558" r="8"/><circle cx="2021" cy="558" r="8"/><circle cx="1931" cy="558" r="3" stroke-width="1.2"/><circle cx="2021" cy="558" r="3" stroke-width="1.2"/><path d="M 1931 561 C 1931 572 1940 570 1946 578 C 1952 585 1964 584 1976 584 C 1988 584 2000 585 2006 578 C 2012 570 2021 572 2021 561"/><path stroke-width="1.2" d="M 1971 494 a 4 4 0 1 1 10 0 l 2 10 l -14 0 z"/><rect x="1681" y="670" width="590" height="80"/></g><g class="dk-dim"><g stroke="#8a3a22" stroke-width="0.13"><line x1="367" y1="29.7" x2="367" y2="84.3"/><line x1="362" y1="31.2" x2="368.2" y2="31.2"/><line x1="366" y1="32.2" x2="368" y2="30.2" stroke-width="0.3"/><line x1="362" y1="45.2" x2="368.2" y2="45.2"/><line x1="366" y1="46.2" x2="368" y2="44.2" stroke-width="0.3"/><line x1="362" y1="47" x2="368.2" y2="47"/><line x1="366" y1="48" x2="368" y2="46" stroke-width="0.3"/><line x1="362" y1="63" x2="368.2" y2="63"/><line x1="366" y1="64" x2="368" y2="62" stroke-width="0.3"/><line x1="362" y1="64.8" x2="368.2" y2="64.8"/><line x1="366" y1="65.8" x2="368" y2="63.8" stroke-width="0.3"/><line x1="362" y1="82.8" x2="368.2" y2="82.8"/><line x1="366" y1="83.8" x2="368" y2="81.8" stroke-width="0.3"/></g><text x="366.2" y="38.2" font-size="1.2" text-anchor="middle" fill="#8a3a22" font-weight="400" letter-spacing="0" font-family="Helvetica, Arial, sans-serif" class="dk-mm" transform="rotate(-90 366.2 38.2)">140</text><text x="366.2" y="38.2" font-size="1.2" text-anchor="middle" fill="#8a3a22" font-weight="400" letter-spacing="0" font-family="Helvetica, Arial, sans-serif" class="dk-in" transform="rotate(-90 366.2 38.2)">5½"</text><text x="366.2" y="46.1" font-size="1.2" text-anchor="middle" fill="#8a3a22" font-weight="400" letter-spacing="0" font-family="Helvetica, Arial, sans-serif" class="dk-mm" transform="rotate(-90 366.2 46.1)">18</text><text x="366.2" y="46.1" font-size="1.2" text-anchor="middle" fill="#8a3a22" font-weight="400" letter-spacing="0" font-family="Helvetica, Arial, sans-serif" class="dk-in" transform="rotate(-90 366.2 46.1)">¾"</text><text x="366.2" y="55" font-size="1.2" text-anchor="middle" fill="#8a3a22" font-weight="400" letter-spacing="0" font-family="Helvetica, Arial, sans-serif" class="dk-mm" transform="rotate(-90 366.2 55)">160</text><text x="366.2" y="55" font-size="1.2" text-anchor="middle" fill="#8a3a22" font-weight="400" letter-spacing="0" font-family="Helvetica, Arial, sans-serif" class="dk-in" transform="rotate(-90 366.2 55)">6¼"</text><text x="366.2" y="63.9" font-size="1.2" text-anchor="middle" fill="#8a3a22" font-weight="400" letter-spacing="0" font-family="Helvetica, Arial, sans-serif" class="dk-mm" transform="rotate(-90 366.2 63.9)">18</text><text x="366.2" y="63.9" font-size="1.2" text-anchor="middle" fill="#8a3a22" font-weight="400" letter-spacing="0" font-family="Helvetica, Arial, sans-serif" class="dk-in" transform="rotate(-90 366.2 63.9)">¾"</text><text x="366.2" y="73.8" font-size="1.2" text-anchor="middle" fill="#8a3a22" font-weight="400" letter-spacing="0" font-family="Helvetica, Arial, sans-serif" class="dk-mm" transform="rotate(-90 366.2 73.8)">180</text><text x="366.2" y="73.8" font-size="1.2" text-anchor="middle" fill="#8a3a22" font-weight="400" letter-spacing="0" font-family="Helvetica, Arial, sans-serif" class="dk-in" transform="rotate(-90 366.2 73.8)">7⅛"</text></g><g class="dk-dim"><g stroke="#8a3a22" stroke-width="0.13"><line x1="308.3" y1="27" x2="357.7" y2="27"/><line x1="309.8" y1="29.5" x2="309.8" y2="28.2"/><line x1="308.8" y1="28" x2="310.8" y2="26" stroke-width="0.3"/><line x1="356.2" y1="29.5" x2="356.2" y2="28.2"/><line x1="355.2" y1="28" x2="357.2" y2="26" stroke-width="0.3"/></g><text x="333" y="26.2" font-size="1.3" text-anchor="middle" fill="#8a3a22" font-weight="400" letter-spacing="0" font-family="Helvetica, Arial, sans-serif" class="dk-mm">464 WIDE</text><text x="333" y="26.2" font-size="1.3" text-anchor="middle" fill="#8a3a22" font-weight="400" letter-spacing="0" font-family="Helvetica, Arial, sans-serif" class="dk-in">1'-6¼" WIDE</text></g><text x="374" y="34.2" font-size="1.45" text-anchor="start" fill="#1b1b1b" font-weight="400" letter-spacing="0" font-family="Helvetica, Arial, sans-serif">GRADUATED —</text><text x="374" y="37.2" font-size="1.45" text-anchor="start" fill="#1b1b1b" font-weight="400" letter-spacing="0" font-family="Helvetica, Arial, sans-serif">SHALLOWEST AT THE TOP</text><text x="374" y="42.2" font-size="1.45" text-anchor="start" fill="#1b1b1b" font-weight="400" letter-spacing="0" font-family="Helvetica, Arial, sans-serif">COCKBEADED FRONTS,</text><text x="374" y="45.2" font-size="1.45" text-anchor="start" fill="#1b1b1b" font-weight="400" letter-spacing="0" font-family="Helvetica, Arial, sans-serif">SWAN-NECK HANDLE (6),</text><text x="374" y="48.2" font-size="1.45" text-anchor="start" fill="#1b1b1b" font-weight="400" letter-spacing="0" font-family="Helvetica, Arial, sans-serif">KEYHOLE ON EACH</text><text x="374" y="53.2" font-size="1.45" text-anchor="start" fill="#666" font-weight="400" letter-spacing="0" font-family="Helvetica, Arial, sans-serif">SAME ON THE LEFT</text><text x="374" y="56.2" font-size="1.45" text-anchor="start" fill="#666" font-weight="400" letter-spacing="0" font-family="Helvetica, Arial, sans-serif">PEDESTAL, MIRRORED</text><text x="300" y="100" font-size="3.2" text-anchor="start" fill="#1b1b1b" font-weight="700" letter-spacing="0.3" font-family="Helvetica, Arial, sans-serif">6 · DRAWER HANDLE</text><line x1="300" y1="101.5" x2="355" y2="101.5" stroke="#1b1b1b" stroke-width="0.35"/><text x="300" y="104.8" font-size="1.7" text-anchor="start" fill="#666" font-weight="400" letter-spacing="0.2" font-family="Helvetica, Arial, sans-serif">ELEVATION · SCALE 1:1</text><g transform="translate(350 120) scale(1)" stroke="#1b1b1b" stroke-width="0.3" fill="none" stroke-linejoin="round" stroke-linecap="round"><circle cx="-45" cy="0" r="8"/><circle cx="45" cy="0" r="8"/><circle cx="-45" cy="0" r="3" stroke-width="0.12"/><circle cx="45" cy="0" r="3" stroke-width="0.12"/><path d="M -45 3 C -45 14 -36 12 -30 20 C -24 27 -12 26 0 26 C 12 26 24 27 30 20 C 36 12 45 14 45 3"/></g><g class="dk-dim"><g stroke="#8a3a22" stroke-width="0.13"><line x1="303.5" y1="108" x2="396.5" y2="108"/><line x1="305" y1="112" x2="305" y2="109.2"/><line x1="304" y1="109" x2="306" y2="107" stroke-width="0.3"/><line x1="395" y1="112" x2="395" y2="109.2"/><line x1="394" y1="109" x2="396" y2="107" stroke-width="0.3"/></g><text x="350" y="107.2" font-size="1.7" text-anchor="middle" fill="#8a3a22" font-weight="400" letter-spacing="0" font-family="Helvetica, Arial, sans-serif" class="dk-mm">90 CENTRES</text><text x="350" y="107.2" font-size="1.7" text-anchor="middle" fill="#8a3a22" font-weight="400" letter-spacing="0" font-family="Helvetica, Arial, sans-serif" class="dk-in">3½" CENTRES</text></g><line x1="305" y1="112" x2="292" y2="106" stroke="#1b1b1b" stroke-width="0.13"/><circle cx="305" cy="112" r="0.4" fill="#1b1b1b"/><text x="291" y="106.2" font-size="1.7" text-anchor="end" fill="#1b1b1b" font-weight="400" letter-spacing="0" font-family="Helvetica, Arial, sans-serif">ROSETTE POST Ø16</text><line x1="370" y1="146" x2="390" y2="158" stroke="#1b1b1b" stroke-width="0.13"/><circle cx="370" cy="146" r="0.4" fill="#1b1b1b"/><text x="391" y="158.2" font-size="1.7" text-anchor="start" fill="#1b1b1b" font-weight="400" letter-spacing="0" font-family="Helvetica, Arial, sans-serif">SWAN-NECK BAIL</text><text x="391" y="160.5" font-size="1.45" text-anchor="start" fill="#666" font-weight="400" letter-spacing="0" font-family="Helvetica, Arial, sans-serif">POLISHED BRASS</text><text x="150" y="130" font-size="3.2" text-anchor="start" fill="#1b1b1b" font-weight="700" letter-spacing="0.3" font-family="Helvetica, Arial, sans-serif">7 · PLINTH</text><line x1="150" y1="131.5" x2="190" y2="131.5" stroke="#1b1b1b" stroke-width="0.35"/><text x="150" y="134.8" font-size="1.7" text-anchor="start" fill="#666" font-weight="400" letter-spacing="0.2" font-family="Helvetica, Arial, sans-serif">SECTION · SCALE 1:2</text><g transform="translate(175 152) scale(0.5)" stroke="#1b1b1b" stroke-width="0.7" stroke-linejoin="round">
    <path fill="url(#hatchDesk2)" d="M 15 0 L 60 0 L 60 80 L 0 80 L 0 22 C 0 16 6 16 8 12 C 10 8 15 8 15 0 Z"/>
    <path fill="none" stroke-width="0.4" d="M 15 -40 L 15 0 M 60 -40 L 60 -5"/></g><line x1="178" y1="158" x2="165" y2="150" stroke="#1b1b1b" stroke-width="0.13"/><circle cx="178" cy="158" r="0.4" fill="#1b1b1b"/><text x="164" y="150.2" font-size="1.7" text-anchor="end" fill="#1b1b1b" font-weight="400" letter-spacing="0" font-family="Helvetica, Arial, sans-serif">OGEE TOP MOULD</text><g class="dk-dim"><g stroke="#8a3a22" stroke-width="0.13"><line x1="173.5" y1="197" x2="184" y2="197"/><line x1="175" y1="193" x2="175" y2="198.2"/><line x1="174" y1="198" x2="176" y2="196" stroke-width="0.3"/><line x1="182.5" y1="193" x2="182.5" y2="198.2"/><line x1="181.5" y1="198" x2="183.5" y2="196" stroke-width="0.3"/></g><text x="178.75" y="196.2" font-size="1.5" text-anchor="middle" fill="#8a3a22" font-weight="400" letter-spacing="0" font-family="Helvetica, Arial, sans-serif" class="dk-mm">15</text><text x="178.75" y="196.2" font-size="1.5" text-anchor="middle" fill="#8a3a22" font-weight="400" letter-spacing="0" font-family="Helvetica, Arial, sans-serif" class="dk-in">⅝"</text></g><g class="dk-dim"><g stroke="#8a3a22" stroke-width="0.13"><line x1="211" y1="150.5" x2="211" y2="193.5"/><line x1="206" y1="152" x2="212.2" y2="152"/><line x1="210" y1="153" x2="212" y2="151" stroke-width="0.3"/><line x1="206" y1="192" x2="212.2" y2="192"/><line x1="210" y1="193" x2="212" y2="191" stroke-width="0.3"/></g><text x="210.2" y="172" font-size="1.5" text-anchor="middle" fill="#8a3a22" font-weight="400" letter-spacing="0" font-family="Helvetica, Arial, sans-serif" class="dk-mm" transform="rotate(-90 210.2 172)">80</text><text x="210.2" y="172" font-size="1.5" text-anchor="middle" fill="#8a3a22" font-weight="400" letter-spacing="0" font-family="Helvetica, Arial, sans-serif" class="dk-in" transform="rotate(-90 210.2 172)">3⅛"</text></g><line x1="182.5" y1="142" x2="195" y2="136" stroke="#1b1b1b" stroke-width="0.13"/><circle cx="182.5" cy="142" r="0.4" fill="#1b1b1b"/><text x="196" y="136.2" font-size="1.7" text-anchor="start" fill="#1b1b1b" font-weight="400" letter-spacing="0" font-family="Helvetica, Arial, sans-serif">PEDESTAL CARCASE ABOVE</text><text x="18" y="205" font-size="3.2" text-anchor="start" fill="#1b1b1b" font-weight="700" letter-spacing="0.3" font-family="Helvetica, Arial, sans-serif">8 · CORNER — SQUARE, PLAIN</text><line x1="18" y1="206.5" x2="108" y2="206.5" stroke="#1b1b1b" stroke-width="0.35"/><text x="18" y="209.8" font-size="1.7" text-anchor="start" fill="#666" font-weight="400" letter-spacing="0.2" font-family="Helvetica, Arial, sans-serif">PLAN · SCALE 1:4 · ALL FOUR CORNERS · EVERY LAYER TURNS 90°</text><g transform="translate(62 218) scale(0.25)" stroke="#1b1b1b" stroke-width="1.4" fill="none" stroke-linejoin="round" stroke-linecap="round"><clipPath id="clipD8"><rect x="-20" y="-20" width="270" height="270"/></clipPath><g clip-path="url(#clipD8)"><path d="M 0 0 L 4000 0 L 4000 4000 L 0 4000 Z"/><path stroke-width="0.48" d="M 6 6 L 3994 6 L 3994 3994 L 6 3994 Z"/><path stroke-width="0.48" stroke-dasharray="4 2.4" d="M 30 30 L 3970 30 L 3970 3970 L 30 3970 Z"/><path stroke-width="0.48" stroke-dasharray="2 3.2" d="M 15 15 L 3985 15 L 3985 3985 L 15 3985 Z"/></g></g><line x1="62" y1="218" x2="57" y2="215" stroke="#1b1b1b" stroke-width="0.13"/><circle cx="62" cy="218" r="0.4" fill="#1b1b1b"/><text x="56" y="215.2" font-size="1.7" text-anchor="end" fill="#1b1b1b" font-weight="400" letter-spacing="0" font-family="Helvetica, Arial, sans-serif">SQUARE CORNER</text><text x="56" y="217.5" font-size="1.45" text-anchor="end" fill="#666" font-weight="400" letter-spacing="0" font-family="Helvetica, Arial, sans-serif">TOP, FRIEZE, PEDESTAL, PLINTH — ALL 90°</text><line x1="62.75" y1="221.5" x2="57" y2="221.5" stroke="#1b1b1b" stroke-width="0.13"/><circle cx="62.75" cy="221.5" r="0.4" fill="#1b1b1b"/><text x="56" y="221.7" font-size="1.7" text-anchor="end" fill="#1b1b1b" font-weight="400" letter-spacing="0" font-family="Helvetica, Arial, sans-serif">REEDED EDGE</text><text x="56" y="224" font-size="1.45" text-anchor="end" fill="#666" font-weight="400" letter-spacing="0" font-family="Helvetica, Arial, sans-serif">MITRED ROUND THE CORNER</text><line x1="69.5" y1="230.5" x2="57" y2="233.25" stroke="#1b1b1b" stroke-width="0.13"/><circle cx="69.5" cy="230.5" r="0.4" fill="#1b1b1b"/><text x="56" y="233.45" font-size="1.7" text-anchor="end" fill="#1b1b1b" font-weight="400" letter-spacing="0" font-family="Helvetica, Arial, sans-serif">PLAIN CORNER</text><text x="56" y="235.75" font-size="1.45" text-anchor="end" fill="#666" font-weight="400" letter-spacing="0" font-family="Helvetica, Arial, sans-serif">NO MOULDING — 1½ IN STILES</text><line x1="84.5" y1="225.5" x2="128.5" y2="233" stroke="#1b1b1b" stroke-width="0.13"/><circle cx="84.5" cy="225.5" r="0.4" fill="#1b1b1b"/><text x="129.5" y="233.2" font-size="1.7" text-anchor="start" fill="#1b1b1b" font-weight="400" letter-spacing="0" font-family="Helvetica, Arial, sans-serif">FRIEZE + PEDESTAL FACE</text><text x="129.5" y="235.5" font-size="1.45" text-anchor="start" fill="#666" font-weight="400" letter-spacing="0" font-family="Helvetica, Arial, sans-serif">DASHED — 30 IN FROM THE TOP</text><line x1="88.25" y1="221.75" x2="128.5" y2="243" stroke="#1b1b1b" stroke-width="0.13"/><circle cx="88.25" cy="221.75" r="0.4" fill="#1b1b1b"/><text x="129.5" y="243.2" font-size="1.7" text-anchor="start" fill="#1b1b1b" font-weight="400" letter-spacing="0" font-family="Helvetica, Arial, sans-serif">PLINTH</text><text x="129.5" y="245.5" font-size="1.45" text-anchor="start" fill="#666" font-weight="400" letter-spacing="0" font-family="Helvetica, Arial, sans-serif">PROJECTS 15, MITRED</text><g class="dk-dim"><g stroke="#8a3a22" stroke-width="0.13"><line x1="60.5" y1="284.5" x2="80.5" y2="284.5"/><line x1="62" y1="281.5" x2="62" y2="285.7"/><line x1="61" y1="285.5" x2="63" y2="283.5" stroke-width="0.3"/><line x1="69.5" y1="281.5" x2="69.5" y2="285.7"/><line x1="68.5" y1="285.5" x2="70.5" y2="283.5" stroke-width="0.3"/><line x1="79" y1="281.5" x2="79" y2="285.7"/><line x1="78" y1="285.5" x2="80" y2="283.5" stroke-width="0.3"/></g><text x="65.75" y="283.7" font-size="1.4" text-anchor="middle" fill="#8a3a22" font-weight="400" letter-spacing="0" font-family="Helvetica, Arial, sans-serif" class="dk-mm">30</text><text x="65.75" y="283.7" font-size="1.4" text-anchor="middle" fill="#8a3a22" font-weight="400" letter-spacing="0" font-family="Helvetica, Arial, sans-serif" class="dk-in">1⅛"</text><text x="74.25" y="283.7" font-size="1.4" text-anchor="middle" fill="#8a3a22" font-weight="400" letter-spacing="0" font-family="Helvetica, Arial, sans-serif" class="dk-mm">38 STILE</text><text x="74.25" y="283.7" font-size="1.4" text-anchor="middle" fill="#8a3a22" font-weight="400" letter-spacing="0" font-family="Helvetica, Arial, sans-serif" class="dk-in">1½" STILE</text></g><text x="212" y="180" font-size="3.2" text-anchor="start" fill="#1b1b1b" font-weight="700" letter-spacing="0.3" font-family="Helvetica, Arial, sans-serif">8B · CORNER ELEVATION</text><line x1="212" y1="181.5" x2="272" y2="181.5" stroke="#1b1b1b" stroke-width="0.35"/><text x="212" y="184.8" font-size="1.7" text-anchor="start" fill="#666" font-weight="400" letter-spacing="0.2" font-family="Helvetica, Arial, sans-serif">FRONT LEFT CORNER · SCALE 1:10 · SQUARE</text><g transform="translate(222 196) scale(0.1)" stroke="#1b1b1b" stroke-width="3" fill="none" stroke-linejoin="round" stroke-linecap="round"><clipPath id="clip8b"><rect x="-10" y="-5" width="181" height="760"/></clipPath><g clip-path="url(#clip8b)"><rect x="0" y="0" width="2286" height="40"/><g stroke-width="1.2"><line x1="0" y1="8" x2="2286" y2="8"/><line x1="0" y1="16" x2="2286" y2="16"/><line x1="0" y1="24" x2="2286" y2="24"/><line x1="0" y1="32" x2="2286" y2="32"/></g><rect x="30" y="40" width="2226" height="75"/><rect x="73" y="46" width="474" height="63" stroke-width="1.2"/><rect x="76" y="49" width="468" height="57"/><rect x="595" y="46" width="1096" height="63" stroke-width="1.2"/><rect x="598" y="49" width="1090" height="57"/><rect x="1739" y="46" width="474" height="63" stroke-width="1.2"/><rect x="1742" y="49" width="468" height="57"/><rect x="30" y="115" width="2226" height="15"/><g stroke-width="1.2"><line x1="30" y1="120" x2="2256" y2="120"/><line x1="30" y1="125" x2="2256" y2="125"/></g><g stroke-width="1.2" opacity=".7"><rect x="610" y="130" width="1066" height="470"/><rect x="650" y="170" width="483" height="390"/><rect x="1153" y="170" width="483" height="390"/></g><rect x="30" y="130" width="560" height="540"/><g stroke-width="1.2"><line x1="68" y1="130" x2="68" y2="670"/><line x1="552" y1="130" x2="552" y2="670"/></g><rect x="78" y="142" width="464" height="140"/><rect x="82" y="146" width="456" height="132" stroke-width="1.2"/><circle cx="265" cy="202" r="8"/><circle cx="355" cy="202" r="8"/><circle cx="265" cy="202" r="3" stroke-width="1.2"/><circle cx="355" cy="202" r="3" stroke-width="1.2"/><path d="M 265 205 C 265 216 274 214 280 222 C 286 229 298 228 310 228 C 322 228 334 229 340 222 C 346 214 355 216 355 205"/><path stroke-width="1.2" d="M 305 158 a 4 4 0 1 1 10 0 l 2 10 l -14 0 z"/><rect x="78" y="300" width="464" height="160"/><rect x="82" y="304" width="456" height="152" stroke-width="1.2"/><circle cx="265" cy="370" r="8"/><circle cx="355" cy="370" r="8"/><circle cx="265" cy="370" r="3" stroke-width="1.2"/><circle cx="355" cy="370" r="3" stroke-width="1.2"/><path d="M 265 373 C 265 384 274 382 280 390 C 286 397 298 396 310 396 C 322 396 334 397 340 390 C 346 382 355 384 355 373"/><path stroke-width="1.2" d="M 305 316 a 4 4 0 1 1 10 0 l 2 10 l -14 0 z"/><rect x="78" y="478" width="464" height="180"/><rect x="82" y="482" width="456" height="172" stroke-width="1.2"/><circle cx="265" cy="558" r="8"/><circle cx="355" cy="558" r="8"/><circle cx="265" cy="558" r="3" stroke-width="1.2"/><circle cx="355" cy="558" r="3" stroke-width="1.2"/><path d="M 265 561 C 265 572 274 570 280 578 C 286 585 298 584 310 584 C 322 584 334 585 340 578 C 346 570 355 572 355 561"/><path stroke-width="1.2" d="M 305 494 a 4 4 0 1 1 10 0 l 2 10 l -14 0 z"/><rect x="15" y="670" width="590" height="80"/><g stroke-width="1.2"><line x1="15" y1="680" x2="605" y2="680"/><line x1="15" y1="692" x2="605" y2="692"/></g><rect x="1696" y="130" width="560" height="540"/><g stroke-width="1.2"><line x1="1734" y1="130" x2="1734" y2="670"/><line x1="2218" y1="130" x2="2218" y2="670"/></g><rect x="1744" y="142" width="464" height="140"/><rect x="1748" y="146" width="456" height="132" stroke-width="1.2"/><circle cx="1931" cy="202" r="8"/><circle cx="2021" cy="202" r="8"/><circle cx="1931" cy="202" r="3" stroke-width="1.2"/><circle cx="2021" cy="202" r="3" stroke-width="1.2"/><path d="M 1931 205 C 1931 216 1940 214 1946 222 C 1952 229 1964 228 1976 228 C 1988 228 2000 229 2006 222 C 2012 214 2021 216 2021 205"/><path stroke-width="1.2" d="M 1971 158 a 4 4 0 1 1 10 0 l 2 10 l -14 0 z"/><rect x="1744" y="300" width="464" height="160"/><rect x="1748" y="304" width="456" height="152" stroke-width="1.2"/><circle cx="1931" cy="370" r="8"/><circle cx="2021" cy="370" r="8"/><circle cx="1931" cy="370" r="3" stroke-width="1.2"/><circle cx="2021" cy="370" r="3" stroke-width="1.2"/><path d="M 1931 373 C 1931 384 1940 382 1946 390 C 1952 397 1964 396 1976 396 C 1988 396 2000 397 2006 390 C 2012 382 2021 384 2021 373"/><path stroke-width="1.2" d="M 1971 316 a 4 4 0 1 1 10 0 l 2 10 l -14 0 z"/><rect x="1744" y="478" width="464" height="180"/><rect x="1748" y="482" width="456" height="172" stroke-width="1.2"/><circle cx="1931" cy="558" r="8"/><circle cx="2021" cy="558" r="8"/><circle cx="1931" cy="558" r="3" stroke-width="1.2"/><circle cx="2021" cy="558" r="3" stroke-width="1.2"/><path d="M 1931 561 C 1931 572 1940 570 1946 578 C 1952 585 1964 584 1976 584 C 1988 584 2000 585 2006 578 C 2012 570 2021 572 2021 561"/><path stroke-width="1.2" d="M 1971 494 a 4 4 0 1 1 10 0 l 2 10 l -14 0 z"/><rect x="1681" y="670" width="590" height="80"/><g stroke-width="1.2"><line x1="1681" y1="680" x2="2271" y2="680"/><line x1="1681" y1="692" x2="2271" y2="692"/></g></g><line x1="-10" y1="750" x2="171" y2="750" stroke-width="5"/></g><line x1="226.9" y1="239" x2="243.1" y2="237" stroke="#1b1b1b" stroke-width="0.13"/><circle cx="226.9" cy="239" r="0.4" fill="#1b1b1b"/><text x="244.1" y="237.2" font-size="1.7" text-anchor="start" fill="#1b1b1b" font-weight="400" letter-spacing="0" font-family="Helvetica, Arial, sans-serif">PLAIN STILE, 1½ IN</text><text x="244.1" y="239.5" font-size="1.45" text-anchor="start" fill="#666" font-weight="400" letter-spacing="0" font-family="Helvetica, Arial, sans-serif">NO CORNER MOULDING</text><text x="300" y="160" font-size="3.2" text-anchor="start" fill="#1b1b1b" font-weight="700" letter-spacing="0.3" font-family="Helvetica, Arial, sans-serif">NOTES</text><line x1="300" y1="161.5" x2="340" y2="161.5" stroke="#1b1b1b" stroke-width="0.35"/><text x="300" y="164.8" font-size="1.7" text-anchor="start" fill="#666" font-weight="400" letter-spacing="0.2" font-family="Helvetica, Arial, sans-serif">DETAILS</text><text x="300" y="171" font-size="1.6" text-anchor="start" fill="#1b1b1b" font-weight="400" letter-spacing="0" font-family="Helvetica, Arial, sans-serif">Profiles are drawn from film stills and are indicative;</text><text x="300" y="175.3" font-size="1.6" text-anchor="start" fill="#1b1b1b" font-weight="400" letter-spacing="0" font-family="Helvetica, Arial, sans-serif">   the joiner to prepare a full-size mock-up of 1, 2 and 7.</text><text x="300" y="179.6" font-size="1.6" text-anchor="start" fill="#1b1b1b" font-weight="400" letter-spacing="0" font-family="Helvetica, Arial, sans-serif">No carving: every profile is a run moulding — a spindle</text><text x="300" y="183.9" font-size="1.6" text-anchor="start" fill="#1b1b1b" font-weight="400" letter-spacing="0" font-family="Helvetica, Arial, sans-serif">   moulder or router, no carver.</text><text x="300" y="188.2" font-size="1.6" text-anchor="start" fill="#1b1b1b" font-weight="400" letter-spacing="0" font-family="Helvetica, Arial, sans-serif">Hardware (6): standard 90 mm swan-neck, solid brass.</text><text x="300" y="192.5" font-size="1.6" text-anchor="start" fill="#1b1b1b" font-weight="400" letter-spacing="0" font-family="Helvetica, Arial, sans-serif">Gold/brass on handles and ring pulls only; rest plain teak.</text><text x="300" y="196.8" font-size="1.6" text-anchor="start" fill="#1b1b1b" font-weight="400" letter-spacing="0" font-family="Helvetica, Arial, sans-serif">Corners: square, every layer mitred; plain — no corner</text><text x="300" y="201.1" font-size="1.6" text-anchor="start" fill="#1b1b1b" font-weight="400" letter-spacing="0" font-family="Helvetica, Arial, sans-serif">   moulding (8, 8B). Clamp bay: detail 3.</text><g data-tb="1"><g stroke="#1b1b1b" stroke-width="0.3" fill="none"><rect x="300" y="239" width="112" height="50" fill="#fff"/>
      <line x1="300" y1="253" x2="412" y2="253"/><line x1="300" y1="269" x2="412" y2="269"/>
      <line x1="300" y1="279" x2="412" y2="279"/><line x1="356" y1="269" x2="356" y2="289"/></g><text x="303" y="245.5" font-size="3.4" text-anchor="start" fill="#1b1b1b" font-weight="700" letter-spacing="0.6" font-family="Helvetica, Arial, sans-serif">A STUDY IN TEAK</text><text x="303" y="250" font-size="1.9" text-anchor="start" fill="#666" font-weight="400" letter-spacing="0" font-family="Helvetica, Arial, sans-serif">Particulars of the room</text><text x="303" y="259.5" font-size="3.4" text-anchor="start" fill="#1b1b1b" font-weight="700" letter-spacing="0.3" font-family="Helvetica, Arial, sans-serif">DESK (PLAIN, SQUARE) — DETAILS</text><text x="303" y="265" font-size="2" text-anchor="start" fill="#666" font-weight="400" letter-spacing="0" font-family="Helvetica, Arial, sans-serif">Edge · Rail · Clamp bay · Drawers · Handle · Plinth · Corner</text><text x="303" y="273" font-size="1.5" text-anchor="start" fill="#666" font-weight="400" letter-spacing="0" font-family="Helvetica, Arial, sans-serif">SCALE</text><text x="303" y="277" font-size="2.1" text-anchor="start" fill="#1b1b1b" font-weight="400" letter-spacing="0" font-family="Helvetica, Arial, sans-serif">AS NOTED @ A3</text><text x="359" y="273" font-size="1.5" text-anchor="start" fill="#666" font-weight="400" letter-spacing="0" font-family="Helvetica, Arial, sans-serif">DATE</text><text x="359" y="277" font-size="2.1" text-anchor="start" fill="#1b1b1b" font-weight="400" letter-spacing="0" font-family="Helvetica, Arial, sans-serif">02.10.2026</text><text x="303" y="283" font-size="1.5" text-anchor="start" fill="#666" font-weight="400" letter-spacing="0" font-family="Helvetica, Arial, sans-serif">REV</text><text x="303" y="287" font-size="1.768421052631579" text-anchor="start" fill="#1b1b1b" font-weight="400" letter-spacing="0" font-family="Helvetica, Arial, sans-serif">2 — no corner mouldings, wider drawers, monitor clamp bay</text><text x="359" y="283" font-size="1.5" text-anchor="start" fill="#666" font-weight="400" letter-spacing="0" font-family="Helvetica, Arial, sans-serif">DWG</text><text x="359" y="287" font-size="2.1" text-anchor="start" fill="#1b1b1b" font-weight="700" letter-spacing="0" font-family="Helvetica, Arial, sans-serif">AST-DR-032</text></g></svg>