  0
SECTION
  2
HEADER
  9
$ACADVER
  1
AC1024
  9
$ACADMAINTVER
 70
6
  9
$DWGCODEPAGE
  3
ANSI_1252
  9
$LASTSAVEDBY
  1
ezdxf
  9
$INSBASE
 10
0.0
 20
0.0
 30
0.0
  9
$EXTMIN
 10
1e+20
 20
1e+20
 30
1e+20
  9
$EXTMAX
 10
-1e+20
 20
-1e+20
 30
-1e+20
  9
$LIMMIN
 10
0.0
 20
0.0
  9
$LIMMAX
 10
420.0
 20
297.0
  9
$ORTHOMODE
 70
0
  9
$REGENMODE
 70
1
  9
$FILLMODE
 70
1
  9
$QTEXTMODE
 70
0
  9
$MIRRTEXT
 70
1
  9
$LTSCALE
 40
1.0
  9
$ATTMODE
 70
1
  9
$TEXTSIZE
 40
2.5
  9
$TRACEWID
 40
1.0
  9
$TEXTSTYLE
  7
OpenSans
  9
$CLAYER
  8
0
  9
$CELTYPE
  6
ByLayer
  9
$CECOLOR
 62
256
  9
$CELTSCALE
 40
1.0
  9
$DISPSILH
 70
0
  9
$DIMSCALE
 40
1.0
  9
$DIMASZ
 40
0.175
  9
$DIMEXO
 40
0.125
  9
$DIMDLI
 40
3.75
  9
$DIMRND
 40
0.0
  9
$DIMDLE
 40
0.0
  9
$DIMEXE
 40
0.375
  9
$DIMTP
 40
0.0
  9
$DIMTM
 40
0.0
  9
$DIMTXT
 40
0.25
  9
$DIMCEN
 40
2.5
  9
$DIMTSZ
 40
0.0
  9
$DIMTOL
 70
0
  9
$DIMLIM
 70
0
  9
$DIMTIH
 70
0
  9
$DIMTOH
 70
0
  9
$DIMSE1
 70
0
  9
$DIMSE2
 70
0
  9
$DIMTAD
 70
1
  9
$DIMZIN
 70
12
  9
$DIMBLK
  1
ARCHTICK
  9
$DIMASO
 70
1
  9
$DIMSHO
 70
1
  9
$DIMPOST
  1

  9
$DIMAPOST
  1

  9
$DIMALT
 70
0
  9
$DIMALTD
 70
3
  9
$DIMALTF
 40
0.03937007874
  9
$DIMLFAC
 40
100.0
  9
$DIMTOFL
 70
1
  9
$DIMTVP
 40
0.0
  9
$DIMTIX
 70
0
  9
$DIMSOXD
 70
0
  9
$DIMSAH
 70
0
  9
$DIMBLK1
  1

  9
$DIMBLK2
  1

  9
$DIMSTYLE
  2
EZDXF
  9
$DIMCLRD
 70
0
  9
$DIMCLRE
 70
0
  9
$DIMCLRT
 70
0
  9
$DIMTFAC
 40
0.5
  9
$DIMGAP
 40
0.1
  9
$DIMJUST
 70
0
  9
$DIMSD1
 70
0
  9
$DIMSD2
 70
0
  9
$DIMTOLJ
 70
0
  9
$DIMTZIN
 70
8
  9
$DIMALTZ
 70
0
  9
$DIMALTTZ
 70
0
  9
$DIMUPT
 70
1
  9
$DIMDEC
 70
2
  9
$DIMTDEC
 70
2
  9
$DIMALTU
 70
2
  9
$DIMALTTD
 70
3
  9
$DIMTXSTY
  7
OpenSansCondensed-Light
  9
$DIMAUNIT
 70
0
  9
$DIMADEC
 70
2
  9
$DIMALTRND
 40
0.0
  9
$DIMAZIN
 70
3
  9
$DIMDSEP
 70
46
  9
$DIMATFIT
 70
3
  9
$DIMFRAC
 70
0
  9
$DIMLDRBLK
  1

  9
$DIMLUNIT
 70
2
  9
$DIMLWD
 70
-2
  9
$DIMLWE
 70
-2
  9
$DIMTMOVE
 70
2
  9
$DIMFXL
 40
1.0
  9
$DIMFXLON
 70
0
  9
$DIMJOGANG
 40
0.785398163397
  9
$DIMTFILL
 70
0
  9
$DIMTFILLCLR
 70
0
  9
$DIMARCSYM
 70
0
  9
$DIMLTYPE
  6

  9
$DIMLTEX1
  6

  9
$DIMLTEX2
  6

  9
$DIMTXTDIRECTION
 70
0
  9
$LUNITS
 70
4
  9
$LUPREC
 70
4
  9
$SKETCHINC
 40
1.0
  9
$FILLETRAD
 40
10.0
  9
$AUNITS
 70
0
  9
$AUPREC
 70
3
  9
$MENU
  1
.
  9
$ELEVATION
 40
0.0
  9
$PELEVATION
 40
0.0
  9
$THICKNESS
 40
0.0
  9
$LIMCHECK
 70
0
  9
$CHAMFERA
 40
0.0
  9
$CHAMFERB
 40
0.0
  9
$CHAMFERC
 40
0.0
  9
$CHAMFERD
 40
0.0
  9
$SKPOLY
 70
0
  9
$TDCREATE
 40
2461314.5020138887
  9
$TDUCREATE
 40
2458532.153996898
  9
$TDUPDATE
 40
2461314.5020138887
  9
$TDUUPDATE
 40
2458532.1544311
  9
$TDINDWG
 40
0.0
  9
$TDUSRTIMER
 40
0.0
  9
$USRTIMER
 70
1
  9
$ANGBASE
 50
0.0
  9
$ANGDIR
 70
0
  9
$PDMODE
 70
0
  9
$PDSIZE
 40
0.0
  9
$PLINEWID
 40
0.0
  9
$SPLFRAME
 70
0
  9
$SPLINETYPE
 70
6
  9
$SPLINESEGS
 70
8
  9
$HANDSEED
  5
210
  9
$SURFTAB1
 70
6
  9
$SURFTAB2
 70
6
  9
$SURFTYPE
 70
6
  9
$SURFU
 70
6
  9
$SURFV
 70
6
  9
$UCSBASE
  2

  9
$UCSNAME
  2

  9
$UCSORG
 10
0.0
 20
0.0
 30
0.0
  9
$UCSXDIR
 10
1.0
 20
0.0
 30
0.0
  9
$UCSYDIR
 10
0.0
 20
1.0
 30
0.0
  9
$UCSORTHOREF
  2

  9
$UCSORTHOVIEW
 70
0
  9
$UCSORGTOP
 10
0.0
 20
0.0
 30
0.0
  9
$UCSORGBOTTOM
 10
0.0
 20
0.0
 30
0.0
  9
$UCSORGLEFT
 10
0.0
 20
0.0
 30
0.0
  9
$UCSORGRIGHT
 10
0.0
 20
0.0
 30
0.0
  9
$UCSORGFRONT
 10
0.0
 20
0.0
 30
0.0
  9
$UCSORGBACK
 10
0.0
 20
0.0
 30
0.0
  9
$PUCSBASE
  2

  9
$PUCSNAME
  2

  9
$PUCSORG
 10
0.0
 20
0.0
 30
0.0
  9
$PUCSXDIR
 10
1.0
 20
0.0
 30
0.0
  9
$PUCSYDIR
 10
0.0
 20
1.0
 30
0.0
  9
$PUCSORTHOREF
  2

  9
$PUCSORTHOVIEW
 70
0
  9
$PUCSORGTOP
 10
0.0
 20
0.0
 30
0.0
  9
$PUCSORGBOTTOM
 10
0.0
 20
0.0
 30
0.0
  9
$PUCSORGLEFT
 10
0.0
 20
0.0
 30
0.0
  9
$PUCSORGRIGHT
 10
0.0
 20
0.0
 30
0.0
  9
$PUCSORGFRONT
 10
0.0
 20
0.0
 30
0.0
  9
$PUCSORGBACK
 10
0.0
 20
0.0
 30
0.0
  9
$USERI1
 70
0
  9
$USERI2
 70
0
  9
$USERI3
 70
0
  9
$USERI4
 70
0
  9
$USERI5
 70
0
  9
$USERR1
 40
0.0
  9
$USERR2
 40
0.0
  9
$USERR3
 40
0.0
  9
$USERR4
 40
0.0
  9
$USERR5
 40
0.0
  9
$WORLDVIEW
 70
1
  9
$SHADEDGE
 70
3
  9
$SHADEDIF
 70
70
  9
$TILEMODE
 70
1
  9
$MAXACTVP
 70
64
  9
$PINSBASE
 10
0.0
 20
0.0
 30
0.0
  9
$PLIMCHECK
 70
0
  9
$PEXTMIN
 10
1e+20
 20
1e+20
 30
1e+20
  9
$PEXTMAX
 10
-1e+20
 20
-1e+20
 30
-1e+20
  9
$PLIMMIN
 10
0.0
 20
0.0
  9
$PLIMMAX
 10
420.0
 20
297.0
  9
$UNITMODE
 70
0
  9
$VISRETAIN
 70
1
  9
$PLINEGEN
 70
0
  9
$PSLTSCALE
 70
1
  9
$TREEDEPTH
 70
3020
  9
$CMLSTYLE
  2
Standard
  9
$CMLJUST
 70
0
  9
$CMLSCALE
 40
20.0
  9
$PROXYGRAPHICS
 70
1
  9
$MEASUREMENT
 70
0
  9
$CELWEIGHT
370
-1
  9
$ENDCAPS
280
0
  9
$JOINSTYLE
280
0
  9
$LWDISPLAY
290
0
  9
$INSUNITS
 70
1
  9
$HYPERLINKBASE
  1

  9
$STYLESHEET
  1

  9
$XEDIT
290
1
  9
$CEPSNTYPE
380
0
  9
$PSTYLEMODE
290
1
  9
$FINGERPRINTGUID
  2
{ADACEA1F-E43E-43D0-95B1-C31CFD6C8291}
  9
$VERSIONGUID
  2
{76D9FAEF-A4CB-4CBA-8DAA-D9564AB73457}
  9
$EXTNAMES
290
1
  9
$PSVPSCALE
 40
0.0
  9
$OLESTARTUP
290
0
  9
$SORTENTS
280
127
  9
$INDEXCTL
280
0
  9
$HIDETEXT
280
1
  9
$XCLIPFRAME
280
1
  9
$HALOGAP
280
0
  9
$OBSCOLOR
 70
257
  9
$OBSLTYPE
280
0
  9
$INTERSECTIONDISPLAY
280
0
  9
$INTERSECTIONCOLOR
 70
257
  9
$DIMASSOC
280
2
  9
$PROJECTNAME
  1

  9
$CAMERADISPLAY
290
0
  9
$LENSLENGTH
 40
50.0
  9
$CAMERAHEIGHT
 40
0.0
  9
$STEPSPERSEC
 40
24.0
  9
$STEPSIZE
 40
100.0
  9
$3DDWFPREC
 40
2.0
  9
$PSOLWIDTH
 40
0.005
  9
$PSOLHEIGHT
 40
0.08
  9
$LOFTANG1
 40
1.570796326795
  9
$LOFTANG2
 40
1.570796326795
  9
$LOFTMAG1
 40
0.0
  9
$LOFTMAG2
 40
0.0
  9
$LOFTPARAM
 70
7
  9
$LOFTNORMALS
280
1
  9
$LATITUDE
 40
37.795
  9
$LONGITUDE
 40
-122.394
  9
$NORTHDIRECTION
 40
0.0
  9
$TIMEZONE
 70
-8000
  9
$LIGHTGLYPHDISPLAY
280
1
  9
$TILEMODELIGHTSYNCH
280
1
  9
$CMATERIAL
347
20
  9
$SOLIDHIST
280
0
  9
$SHOWHIST
280
1
  9
$DWFFRAME
280
2
  9
$DGNFRAME
280
2
  9
$REALWORLDSCALE
290
1
  9
$INTERFERECOLOR
 62
256
  9
$CSHADOW
280
0
  9
$SHADOWPLANELOCATION
 40
0.0
  0
ENDSEC
  0
SECTION
  2
CLASSES
  0
CLASS
  1
ACDBDICTIONARYWDFLT
  2
AcDbDictionaryWithDefault
  3
ObjectDBX Classes
 90
0
 91
0
280
0
281
0
  0
CLASS
  1
SUN
  2
AcDbSun
  3
SCENEOE
 90
1153
 91
0
280
0
281
0
  0
CLASS
  1
VISUALSTYLE
  2
AcDbVisualStyle
  3
ObjectDBX Classes
 90
4095
 91
0
280
0
281
0
  0
CLASS
  1
MATERIAL
  2
AcDbMaterial
  3
ObjectDBX Classes
 90
1153
 91
0
280
0
281
0
  0
CLASS
  1
SCALE
  2
AcDbScale
  3
ObjectDBX Classes
 90
1153
 91
0
280
0
281
0
  0
CLASS
  1
TABLESTYLE
  2
AcDbTableStyle
  3
ObjectDBX Classes
 90
4095
 91
0
280
0
281
0
  0
CLASS
  1
MLEADERSTYLE
  2
AcDbMLeaderStyle
  3
ACDB_MLEADERSTYLE_CLASS
 90
4095
 91
0
280
0
281
0
  0
CLASS
  1
DICTIONARYVAR
  2
AcDbDictionaryVar
  3
ObjectDBX Classes
 90
0
 91
0
280
0
281
0
  0
CLASS
  1
CELLSTYLEMAP
  2
AcDbCellStyleMap
  3
ObjectDBX Classes
 90
1152
 91
0
280
0
281
0
  0
CLASS
  1
MENTALRAYRENDERSETTINGS
  2
AcDbMentalRayRenderSettings
  3
SCENEOE
 90
1024
 91
0
280
0
281
0
  0
CLASS
  1
ACDBDETAILVIEWSTYLE
  2
AcDbDetailViewStyle
  3
ObjectDBX Classes
 90
1025
 91
0
280
0
281
0
  0
CLASS
  1
ACDBSECTIONVIEWSTYLE
  2
AcDbSectionViewStyle
  3
ObjectDBX Classes
 90
1025
 91
0
280
0
281
0
  0
CLASS
  1
RASTERVARIABLES
  2
AcDbRasterVariables
  3
ISM
 90
0
 91
0
280
0
281
0
  0
CLASS
  1
ACDBPLACEHOLDER
  2
AcDbPlaceHolder
  3
ObjectDBX Classes
 90
0
 91
0
280
0
281
0
  0
CLASS
  1
LAYOUT
  2
AcDbLayout
  3
ObjectDBX Classes
 90
0
 91
0
280
0
281
0
  0
ENDSEC
  0
SECTION
  2
TABLES
  0
TABLE
  2
VPORT
  5
8
330
0
100
AcDbSymbolTable
 70
1
  0
VPORT
  5
23
330
8
100
AcDbSymbolTableRecord
100
AcDbViewportTableRecord
  2
*Active
 70
0
 10
0.0
 20
0.0
 11
1.0
 21
1.0
 12
0.0
 22
0.0
 13
0.0
 23
0.0
 14
0.5
 24
0.5
 15
0.5
 25
0.5
 16
0.0
 26
0.0
 36
1.0
 17
0.0
 27
0.0
 37
0.0
 40
1000.0
 41
1.34
 42
50.0
 43
0.0
 44
0.0
 50
0.0
 51
0.0
 71
0
 72
1000
 73
1
 74
3
 75
0
 76
0
 77
0
 78
0
281
0
 65
0
146
0.0
  0
ENDTAB
  0
TABLE
  2
LTYPE
  5
2
330
0
100
AcDbSymbolTable
 70
21
  0
LTYPE
  5
24
330
2
100
AcDbSymbolTableRecord
100
AcDbLinetypeTableRecord
  2
ByBlock
 70
0
  3

 72
65
 73
0
 40
0.0
  0
LTYPE
  5
25
330
2
100
AcDbSymbolTableRecord
100
AcDbLinetypeTableRecord
  2
ByLayer
 70
0
  3

 72
65
 73
0
 40
0.0
  0
LTYPE
  5
26
330
2
100
AcDbSymbolTableRecord
100
AcDbLinetypeTableRecord
  2
Continuous
 70
0
  3

 72
65
 73
0
 40
0.0
  0
LTYPE
  5
2F
330
2
100
AcDbSymbolTableRecord
100
AcDbLinetypeTableRecord
  2
CENTER
 70
0
  3
Center ____ _ ____ _ ____ _ ____ _ ____ _ ____
 72
65
 73
4
 40
2.0
 49
1.25
 74
0
 49
-0.25
 74
0
 49
0.25
 74
0
 49
-0.25
 74
0
  0
LTYPE
  5
30
330
2
100
AcDbSymbolTableRecord
100
AcDbLinetypeTableRecord
  2
CENTERX2
 70
0
  3
Center (2x) ________  __  ________  __  ________
 72
65
 73
4
 40
3.5
 49
2.5
 74
0
 49
-0.25
 74
0
 49
0.5
 74
0
 49
-0.25
 74
0
  0
LTYPE
  5
31
330
2
100
AcDbSymbolTableRecord
100
AcDbLinetypeTableRecord
  2
CENTER2
 70
0
  3
Center (.5x) ____ _ ____ _ ____ _ ____ _ ____
 72
65
 73
4
 40
1.0
 49
0.625
 74
0
 49
-0.125
 74
0
 49
0.125
 74
0
 49
-0.125
 74
0
  0
LTYPE
  5
32
330
2
100
AcDbSymbolTableRecord
100
AcDbLinetypeTableRecord
  2
DASHED
 70
0
  3
Dashed __ __ __ __ __ __ __ __ __ __ __ __ __ _
 72
65
 73
2
 40
0.6
 49
0.5
 74
0
 49
-0.1
 74
0
  0
LTYPE
  5
33
330
2
100
AcDbSymbolTableRecord
100
AcDbLinetypeTableRecord
  2
DASHEDX2
 70
0
  3
Dashed (2x) ____  ____  ____  ____  ____  ____
 72
65
 73
2
 40
1.2
 49
1.0
 74
0
 49
-0.2
 74
0
  0
LTYPE
  5
34
330
2
100
AcDbSymbolTableRecord
100
AcDbLinetypeTableRecord
  2
DASHED2
 70
0
  3
Dashed (.5x) _ _ _ _ _ _ _ _ _ _ _ _ _ _
 72
65
 73
2
 40
0.3
 49
0.25
 74
0
 49
-0.05
 74
0
  0
LTYPE
  5
35
330
2
100
AcDbSymbolTableRecord
100
AcDbLinetypeTableRecord
  2
PHANTOM
 70
0
  3
Phantom ______  __  __  ______  __  __  ______
 72
65
 73
6
 40
2.5
 49
1.25
 74
0
 49
-0.25
 74
0
 49
0.25
 74
0
 49
-0.25
 74
0
 49
0.25
 74
0
 49
-0.25
 74
0
  0
LTYPE
  5
36
330
2
100
AcDbSymbolTableRecord
100
AcDbLinetypeTableRecord
  2
PHANTOMX2
 70
0
  3
Phantom (2x)____________    ____    ____    ____________
 72
65
 73
6
 40
4.25
 49
2.5
 74
0
 49
-0.25
 74
0
 49
0.5
 74
0
 49
-0.25
 74
0
 49
0.5
 74
0
 49
-0.25
 74
0
  0
LTYPE
  5
37
330
2
100
AcDbSymbolTableRecord
100
AcDbLinetypeTableRecord
  2
PHANTOM2
 70
0
  3
Phantom (.5x) ___ _ _ ___ _ _ ___ _ _ ___ _ _ ___
 72
65
 73
6
 40
1.25
 49
0.625
 74
0
 49
-0.125
 74
0
 49
0.125
 74
0
 49
-0.125
 74
0
 49
0.125
 74
0
 49
-0.125
 74
0
  0
LTYPE
  5
38
330
2
100
AcDbSymbolTableRecord
100
AcDbLinetypeTableRecord
  2
DASHDOT
 70
0
  3
Dash dot __ . __ . __ . __ . __ . __ . __ . __
 72
65
 73
4
 40
1.4
 49
1.0
 74
0
 49
-0.2
 74
0
 49
0.0
 74
0
 49
-0.2
 74
0
  0
LTYPE
  5
39
330
2
100
AcDbSymbolTableRecord
100
AcDbLinetypeTableRecord
  2
DASHDOTX2
 70
0
  3
Dash dot (2x) ____  .  ____  .  ____  .  ____
 72
65
 73
4
 40
2.4
 49
2.0
 74
0
 49
-0.2
 74
0
 49
0.0
 74
0
 49
-0.2
 74
0
  0
LTYPE
  5
3A
330
2
100
AcDbSymbolTableRecord
100
AcDbLinetypeTableRecord
  2
DASHDOT2
 70
0
  3
Dash dot (.5x) _ . _ . _ . _ . _ . _ . _ . _
 72
65
 73
4
 40
0.7
 49
0.5
 74
0
 49
-0.1
 74
0
 49
0.0
 74
0
 49
-0.1
 74
0
  0
LTYPE
  5
3B
330
2
100
AcDbSymbolTableRecord
100
AcDbLinetypeTableRecord
  2
DOT
 70
0
  3
Dot .  .  .  .  .  .  .  .  .  .  .  .  .  .  .  .
 72
65
 73
2
 40
0.2
 49
0.0
 74
0
 49
-0.2
 74
0
  0
LTYPE
  5
3C
330
2
100
AcDbSymbolTableRecord
100
AcDbLinetypeTableRecord
  2
DOTX2
 70
0
  3
Dot (2x) .    .    .    .    .    .    .    . 
 72
65
 73
2
 40
0.4
 49
0.0
 74
0
 49
-0.4
 74
0
  0
LTYPE
  5
3D
330
2
100
AcDbSymbolTableRecord
100
AcDbLinetypeTableRecord
  2
DOT2
 70
0
  3
Dot (.5) . . . . . . . . . . . . . . . . . . . 
 72
65
 73
2
 40
0.1
 49
0.0
 74
0
 49
-0.1
 74
0
  0
LTYPE
  5
3E
330
2
100
AcDbSymbolTableRecord
100
AcDbLinetypeTableRecord
  2
DIVIDE
 70
0
  3
Divide __ . . __ . . __ . . __ . . __ . . __
 72
65
 73
6
 40
1.6
 49
1.0
 74
0
 49
-0.2
 74
0
 49
0.0
 74
0
 49
-0.2
 74
0
 49
0.0
 74
0
 49
-0.2
 74
0
  0
LTYPE
  5
3F
330
2
100
AcDbSymbolTableRecord
100
AcDbLinetypeTableRecord
  2
DIVIDEX2
 70
0
  3
Divide (2x) ____  . .  ____  . .  ____  . .  ____
 72
65
 73
6
 40
2.6
 49
2.0
 74
0
 49
-0.2
 74
0
 49
0.0
 74
0
 49
-0.2
 74
0
 49
0.0
 74
0
 49
-0.2
 74
0
  0
LTYPE
  5
40
330
2
100
AcDbSymbolTableRecord
100
AcDbLinetypeTableRecord
  2
DIVIDE2
 70
0
  3
Divide(.5x) _ . _ . _ . _ . _ . _ . _ . _
 72
65
 73
6
 40
0.8
 49
0.5
 74
0
 49
-0.1
 74
0
 49
0.0
 74
0
 49
-0.1
 74
0
 49
0.0
 74
0
 49
-0.1
 74
0
  0
ENDTAB
  0
TABLE
  2
LAYER
  5
1
330
0
100
AcDbSymbolTable
 70
22
  0
LAYER
  5
27
330
1
100
AcDbSymbolTableRecord
100
AcDbLayerTableRecord
  2
0
 70
0
 62
7
  6
Continuous
370
-3
390
13
347
21
  0
LAYER
  5
28
330
1
100
AcDbSymbolTableRecord
100
AcDbLayerTableRecord
  2
Defpoints
 70
0
 62
7
  6
Continuous
290
0
370
-3
390
13
347
21
  0
LAYER
  5
8A
330
1
100
AcDbSymbolTableRecord
100
AcDbLayerTableRecord
  2
Top edge section
 70
0
 62
7
  6
Continuous
370
-3
390
13
347
21
  0
LAYER
  5
8B
330
1
100
AcDbSymbolTableRecord
100
AcDbLayerTableRecord
  2
Top edge section hatch
 70
0
 62
8
  6
Continuous
370
-3
390
13
347
21
  0
LAYER
  5
AE
330
1
100
AcDbSymbolTableRecord
100
AcDbLayerTableRecord
  2
Drawer rail section
 70
0
 62
7
  6
Continuous
370
-3
390
13
347
21
  0
LAYER
  5
AF
330
1
100
AcDbSymbolTableRecord
100
AcDbLayerTableRecord
  2
Drawer rail section hatch
 70
0
 62
8
  6
Continuous
370
-3
390
13
347
21
  0
LAYER
  5
C0
330
1
100
AcDbSymbolTableRecord
100
AcDbLayerTableRecord
  2
Console bracket - front
 70
0
 62
7
  6
Continuous
370
-3
390
13
347
21
  0
LAYER
  5
C1
330
1
100
AcDbSymbolTableRecord
100
AcDbLayerTableRecord
  2
Console bracket - front hatch
 70
0
 62
8
  6
Continuous
370
-3
390
13
347
21
  0
LAYER
  5
DF
330
1
100
AcDbSymbolTableRecord
100
AcDbLayerTableRecord
  2
Console bracket - side profile
 70
0
 62
7
  6
Continuous
370
-3
390
13
347
21
  0
LAYER
  5
E0
330
1
100
AcDbSymbolTableRecord
100
AcDbLayerTableRecord
  2
Console bracket - side profile hatch
 70
0
 62
8
  6
Continuous
370
-3
390
13
347
21
  0
LAYER
  5
105
330
1
100
AcDbSymbolTableRecord
100
AcDbLayerTableRecord
  2
Carved drop
 70
0
 62
7
  6
Continuous
370
-3
390
13
347
21
  0
LAYER
  5
106
330
1
100
AcDbSymbolTableRecord
100
AcDbLayerTableRecord
  2
Carved drop hatch
 70
0
 62
8
  6
Continuous
370
-3
390
13
347
21
  0
LAYER
  5
156
330
1
100
AcDbSymbolTableRecord
100
AcDbLayerTableRecord
  2
Pedestal ornament
 70
0
 62
7
  6
Continuous
370
-3
390
13
347
21
  0
LAYER
  5
157
330
1
100
AcDbSymbolTableRecord
100
AcDbLayerTableRecord
  2
Pedestal ornament hatch
 70
0
 62
8
  6
Continuous
370
-3
390
13
347
21
  0
LAYER
  5
173
330
1
100
AcDbSymbolTableRecord
100
AcDbLayerTableRecord
  2
Drawer handle
 70
0
 62
7
  6
Continuous
370
-3
390
13
347
21
  0
LAYER
  5
174
330
1
100
AcDbSymbolTableRecord
100
AcDbLayerTableRecord
  2
Drawer handle hatch
 70
0
 62
8
  6
Continuous
370
-3
390
13
347
21
  0
LAYER
  5
17D
330
1
100
AcDbSymbolTableRecord
100
AcDbLayerTableRecord
  2
Plinth section
 70
0
 62
7
  6
Continuous
370
-3
390
13
347
21
  0
LAYER
  5
17E
330
1
100
AcDbSymbolTableRecord
100
AcDbLayerTableRecord
  2
Plinth section hatch
 70
0
 62
8
  6
Continuous
370
-3
390
13
347
21
  0
LAYER
  5
189
330
1
100
AcDbSymbolTableRecord
100
AcDbLayerTableRecord
  2
Corner plan
 70
0
 62
7
  6
Continuous
370
-3
390
13
347
21
  0
LAYER
  5
18A
330
1
100
AcDbSymbolTableRecord
100
AcDbLayerTableRecord
  2
Corner plan hatch
 70
0
 62
8
  6
Continuous
370
-3
390
13
347
21
  0
LAYER
  5
19A
330
1
100
AcDbSymbolTableRecord
100
AcDbLayerTableRecord
  2
Corner elevation
 70
0
 62
7
  6
Continuous
370
-3
390
13
347
21
  0
LAYER
  5
19B
330
1
100
AcDbSymbolTableRecord
100
AcDbLayerTableRecord
  2
Corner elevation hatch
 70
0
 62
8
  6
Continuous
370
-3
390
13
347
21
  0
ENDTAB
  0
TABLE
  2
STYLE
  5
5
330
0
100
AcDbSymbolTable
 70
26
  0
STYLE
  5
29
330
5
100
AcDbSymbolTableRecord
100
AcDbTextStyleTableRecord
  2
Standard
 70
0
 40
0.0
 41
1.0
 50
0.0
 71
0
 42
2.5
  3
txt
  4

  0
STYLE
  5
41
330
5
100
AcDbSymbolTableRecord
100
AcDbTextStyleTableRecord
  2
OpenSans-Light
 70
0
 40
0.0
 41
1.0
 50
0.0
 71
0
 42
2.5
  3
OpenSans-Light.ttf
  4

  0
STYLE
  5
42
330
5
100
AcDbSymbolTableRecord
100
AcDbTextStyleTableRecord
  2
OpenSans-Light-Italic
 70
0
 40
0.0
 41
1.0
 50
0.0
 71
0
 42
2.5
  3
OpenSans-LightItalic.ttf
  4

  0
STYLE
  5
43
330
5
100
AcDbSymbolTableRecord
100
AcDbTextStyleTableRecord
  2
OpenSans
 70
0
 40
0.0
 41
1.0
 50
0.0
 71
0
 42
2.5
  3
OpenSans-Regular.ttf
  4

  0
STYLE
  5
44
330
5
100
AcDbSymbolTableRecord
100
AcDbTextStyleTableRecord
  2
OpenSans-Italic
 70
0
 40
0.0
 41
1.0
 50
0.0
 71
0
 42
2.5
  3
OpenSans-Italic.ttf
  4

  0
STYLE
  5
45
330
5
100
AcDbSymbolTableRecord
100
AcDbTextStyleTableRecord
  2
OpenSans-SemiBold
 70
0
 40
0.0
 41
1.0
 50
0.0
 71
0
 42
2.5
  3
OpenSans-SemiBold.ttf
  4

  0
STYLE
  5
46
330
5
100
AcDbSymbolTableRecord
100
AcDbTextStyleTableRecord
  2
OpenSans-SemiBoldItalic
 70
0
 40
0.0
 41
1.0
 50
0.0
 71
0
 42
2.5
  3
OpenSans-SemiBoldItalic.ttf
  4

  0
STYLE
  5
47
330
5
100
AcDbSymbolTableRecord
100
AcDbTextStyleTableRecord
  2
OpenSans-Bold
 70
0
 40
0.0
 41
1.0
 50
0.0
 71
0
 42
2.5
  3
OpenSans-Bold.ttf
  4

  0
STYLE
  5
48
330
5
100
AcDbSymbolTableRecord
100
AcDbTextStyleTableRecord
  2
OpenSans-BoldItalic
 70
0
 40
0.0
 41
1.0
 50
0.0
 71
0
 42
2.5
  3
OpenSans-BoldItalic.ttf
  4

  0
STYLE
  5
49
330
5
100
AcDbSymbolTableRecord
100
AcDbTextStyleTableRecord
  2
OpenSans-ExtraBold
 70
0
 40
0.0
 41
1.0
 50
0.0
 71
0
 42
2.5
  3
OpenSans-ExtraBold.ttf
  4

  0
STYLE
  5
4A
330
5
100
AcDbSymbolTableRecord
100
AcDbTextStyleTableRecord
  2
OpenSans-ExtraBoldItalic
 70
0
 40
0.0
 41
1.0
 50
0.0
 71
0
 42
2.5
  3
OpenSans-ExtraBoldItalic.ttf
  4

  0
STYLE
  5
4B
330
5
100
AcDbSymbolTableRecord
100
AcDbTextStyleTableRecord
  2
OpenSansCondensed-Bold
 70
0
 40
0.0
 41
1.0
 50
0.0
 71
0
 42
2.5
  3
OpenSansCondensed-Bold.ttf
  4

  0
STYLE
  5
4C
330
5
100
AcDbSymbolTableRecord
100
AcDbTextStyleTableRecord
  2
OpenSansCondensed-Light
 70
0
 40
0.0
 41
1.0
 50
0.0
 71
0
 42
2.5
  3
OpenSansCondensed-Light.ttf
  4

  0
STYLE
  5
4D
330
5
100
AcDbSymbolTableRecord
100
AcDbTextStyleTableRecord
  2
OpenSansCondensed-Italic
 70
0
 40
0.0
 41
1.0
 50
0.0
 71
0
 42
2.5
  3
OpenSansCondensed-LightItalic.ttf
  4

  0
STYLE
  5
4E
330
5
100
AcDbSymbolTableRecord
100
AcDbTextStyleTableRecord
  2
LiberationSans
 70
0
 40
0.0
 41
1.0
 50
0.0
 71
0
 42
2.5
  3
LiberationSans-Regular.ttf
  4

  0
STYLE
  5
4F
330
5
100
AcDbSymbolTableRecord
100
AcDbTextStyleTableRecord
  2
LiberationSans-Bold
 70
0
 40
0.0
 41
1.0
 50
0.0
 71
0
 42
2.5
  3
LiberationSans-Bold.ttf
  4

  0
STYLE
  5
50
330
5
100
AcDbSymbolTableRecord
100
AcDbTextStyleTableRecord
  2
LiberationSans-BoldItalic
 70
0
 40
0.0
 41
1.0
 50
0.0
 71
0
 42
2.5
  3
LiberationSans-BoldItalic.ttf
  4

  0
STYLE
  5
51
330
5
100
AcDbSymbolTableRecord
100
AcDbTextStyleTableRecord
  2
LiberationSans-Italic
 70
0
 40
0.0
 41
1.0
 50
0.0
 71
0
 42
2.5
  3
LiberationSans-Italic.ttf
  4

  0
STYLE
  5
52
330
5
100
AcDbSymbolTableRecord
100
AcDbTextStyleTableRecord
  2
LiberationSerif
 70
0
 40
0.0
 41
1.0
 50
0.0
 71
0
 42
2.5
  3
LiberationSerif-Regular.ttf
  4

  0
STYLE
  5
53
330
5
100
AcDbSymbolTableRecord
100
AcDbTextStyleTableRecord
  2
LiberationSerif-Bold
 70
0
 40
0.0
 41
1.0
 50
0.0
 71
0
 42
2.5
  3
LiberationSerif-Bold.ttf
  4

  0
STYLE
  5
54
330
5
100
AcDbSymbolTableRecord
100
AcDbTextStyleTableRecord
  2
LiberationSerif-BoldItalic
 70
0
 40
0.0
 41
1.0
 50
0.0
 71
0
 42
2.5
  3
LiberationSerif-BoldItalic.ttf
  4

  0
STYLE
  5
55
330
5
100
AcDbSymbolTableRecord
100
AcDbTextStyleTableRecord
  2
LiberationSerif-Italic
 70
0
 40
0.0
 41
1.0
 50
0.0
 71
0
 42
2.5
  3
LiberationSerif-Italic.ttf
  4

  0
STYLE
  5
56
330
5
100
AcDbSymbolTableRecord
100
AcDbTextStyleTableRecord
  2
LiberationMono
 70
0
 40
0.0
 41
1.0
 50
0.0
 71
0
 42
2.5
  3
LiberationMono-Regular.ttf
  4

  0
STYLE
  5
57
330
5
100
AcDbSymbolTableRecord
100
AcDbTextStyleTableRecord
  2
LiberationMono-Bold
 70
0
 40
0.0
 41
1.0
 50
0.0
 71
0
 42
2.5
  3
LiberationMono-Bold.ttf
  4

  0
STYLE
  5
58
330
5
100
AcDbSymbolTableRecord
100
AcDbTextStyleTableRecord
  2
LiberationMono-BoldItalic
 70
0
 40
0.0
 41
1.0
 50
0.0
 71
0
 42
2.5
  3
LiberationMono-BoldItalic.ttf
  4

  0
STYLE
  5
59
330
5
100
AcDbSymbolTableRecord
100
AcDbTextStyleTableRecord
  2
LiberationMono-Italic
 70
0
 40
0.0
 41
1.0
 50
0.0
 71
0
 42
2.5
  3
LiberationMono-Italic.ttf
  4

  0
ENDTAB
  0
TABLE
  2
VIEW
  5
7
330
0
100
AcDbSymbolTable
 70
0
  0
ENDTAB
  0
TABLE
  2
UCS
  5
6
330
0
100
AcDbSymbolTable
 70
0
  0
ENDTAB
  0
TABLE
  2
APPID
  5
3
330
0
100
AcDbSymbolTable
 70
3
  0
APPID
  5
2A
330
3
100
AcDbSymbolTableRecord
100
AcDbRegAppTableRecord
  2
ACAD
 70
0
  0
APPID
  5
20D
330
3
100
AcDbSymbolTableRecord
100
AcDbRegAppTableRecord
  2
HATCHBACKGROUNDCOLOR
 70
0
  0
APPID
  5
20E
330
3
100
AcDbSymbolTableRecord
100
AcDbRegAppTableRecord
  2
EZDXF
 70
0
  0
ENDTAB
  0
TABLE
  2
DIMSTYLE
  5
4
330
0
100
AcDbSymbolTable
 70
12
100
AcDbDimStyleTable
  0
DIMSTYLE
105
2B
330
4
100
AcDbSymbolTableRecord
100
AcDbDimStyleTableRecord
  2
Standard
 70
0
 40
1.0
 41
2.5
 42
0.625
 43
3.75
 44
1.25
 45
0.0
 46
0.0
 47
0.0
 48
0.0
 49
2.5
140
2.5
141
2.5
142
0.0
143
0.03937007874
144
1.0
145
0.0
146
1.0
147
0.625
148
0.0
 69
0
 70
0
 71
0
 72
0
 73
0
 74
0
 75
0
 76
0
 77
1
 78
8
 79
3
170
0
171
3
172
1
173
0
174
0
175
0
176
0
177
0
178
0
179
2
271
2
272
2
273
2
274
3
275
0
276
0
277
2
278
44
279
0
280
0
281
0
282
0
283
0
284
8
285
0
286
0
288
0
289
3
290
0
371
-2
372
-2
  0
DIMSTYLE
105
73
330
4
100
AcDbSymbolTableRecord
100
AcDbDimStyleTableRecord
  2
EZDXF
 70
0
 40
1.0
 41
0.175
 42
0.125
 43
3.75
 44
0.375
 45
0.0
 46
0.0
 47
0.0
 48
0.0
 49
2.5
140
0.25
141
2.5
142
0.0
143
0.03937007874
144
100.0
145
0.0
146
0.5
147
0.1
148
0.0
 69
0
 70
0
 71
0
 72
0
 73
0
 74
0
 75
0
 76
0
 77
1
 78
12
 79
3
170
0
171
3
172
1
173
0
174
0
175
0
176
0
177
0
178
0
179
2
271
2
272
2
273
2
274
3
275
0
276
0
277
2
278
46
279
2
280
0
281
0
282
0
283
0
284
8
285
0
286
0
288
1
289
3
290
0
340
4C
342
74
371
-2
372
-2
  0
DIMSTYLE
105
7C
330
4
100
AcDbSymbolTableRecord
100
AcDbDimStyleTableRecord
  2
EZ_M_100_H25_CM
 70
0
 40
1.0
 41
0.25
 42
0.125
 43
3.75
 44
0.375
 45
0.0
 46
0.0
 47
0.0
 48
0.0
 49
2.5
140
0.25
141
2.5
142
0.125
143
0.03937007874
144
100.0
145
0.0
146
0.5
147
0.1
148
0.0
 69
0
 70
0
 71
0
 72
0
 73
0
 74
0
 75
0
 76
0
 77
1
 78
12
 79
3
170
0
171
3
172
1
173
0
174
0
175
0
176
0
177
0
178
0
179
2
271
2
272
2
273
2
274
3
275
0
276
0
277
2
278
46
279
2
280
0
281
0
282
0
283
0
284
8
285
0
286
0
288
1
289
3
290
0
340
4C
371
-2
372
-2
  0
DIMSTYLE
105
7D
330
4
100
AcDbSymbolTableRecord
100
AcDbDimStyleTableRecord
  2
EZ_M_50_H25_CM
 70
0
 40
1.0
 41
0.125
 42
0.0625
 43
3.75
 44
0.1875
 45
0.0
 46
0.0
 47
0.0
 48
0.0
 49
2.5
140
0.125
141
2.5
142
0.0625
143
0.03937007874
144
100.0
145
0.0
146
0.5
147
0.05
148
0.0
 69
0
 70
0
 71
0
 72
0
 73
0
 74
0
 75
0
 76
0
 77
1
 78
12
 79
3
170
0
171
3
172
1
173
0
174
0
175
0
176
0
177
0
178
0
179
2
271
2
272
2
273
2
274
3
275
0
276
0
277
2
278
46
279
2
280
0
281
0
282
0
283
0
284
8
285
0
286
0
288
1
289
3
290
0
340
4C
371
-2
372
-2
  0
DIMSTYLE
105
7E
330
4
100
AcDbSymbolTableRecord
100
AcDbDimStyleTableRecord
  2
EZ_M_25_H25_CM
 70
0
 40
1.0
 41
0.0625
 42
0.03125
 43
3.75
 44
0.09375
 45
0.0
 46
0.0
 47
0.0
 48
0.0
 49
2.5
140
0.0625
141
2.5
142
0.03125
143
0.03937007874
144
100.0
145
0.0
146
0.5
147
0.025
148
0.0
 69
0
 70
0
 71
0
 72
0
 73
0
 74
0
 75
0
 76
0
 77
1
 78
12
 79
3
170
0
171
3
172
1
173
0
174
0
175
0
176
0
177
0
178
0
179
2
271
2
272
2
273
2
274
3
275
0
276
0
277
2
278
46
279
2
280
0
281
0
282
0
283
0
284
8
285
0
286
0
288
1
289
3
290
0
340
4C
371
-2
372
-2
  0
DIMSTYLE
105
7F
330
4
100
AcDbSymbolTableRecord
100
AcDbDimStyleTableRecord
  2
EZ_M_20_H25_CM
 70
0
 40
1.0
 41
0.05
 42
0.025
 43
3.75
 44
0.07500000000000001
 45
0.0
 46
0.0
 47
0.0
 48
0.0
 49
2.5
140
0.05
141
2.5
142
0.025
143
0.03937007874
144
100.0
145
0.0
146
0.5
147
0.020000000000000004
148
0.0
 69
0
 70
0
 71
0
 72
0
 73
0
 74
0
 75
0
 76
0
 77
1
 78
12
 79
3
170
0
171
3
172
1
173
0
174
0
175
0
176
0
177
0
178
0
179
2
271
2
272
2
273
2
274
3
275
0
276
0
277
2
278
46
279
2
280
0
281
0
282
0
283
0
284
8
285
0
286
0
288
1
289
3
290
0
340
4C
371
-2
372
-2
  0
DIMSTYLE
105
80
330
4
100
AcDbSymbolTableRecord
100
AcDbDimStyleTableRecord
  2
EZ_M_10_H25_CM
 70
0
 40
1.0
 41
0.025
 42
0.0125
 43
3.75
 44
0.037500000000000006
 45
0.0
 46
0.0
 47
0.0
 48
0.0
 49
2.5
140
0.025
141
2.5
142
0.0125
143
0.03937007874
144
100.0
145
0.0
146
0.5
147
0.010000000000000002
148
0.0
 69
0
 70
0
 71
0
 72
0
 73
0
 74
0
 75
0
 76
0
 77
1
 78
12
 79
3
170
0
171
3
172
1
173
0
174
0
175
0
176
0
177
0
178
0
179
2
271
2
272
2
273
2
274
3
275
0
276
0
277
2
278
46
279
2
280
0
281
0
282
0
283
0
284
8
285
0
286
0
288
1
289
3
290
0
340
4C
371
-2
372
-2
  0
DIMSTYLE
105
81
330
4
100
AcDbSymbolTableRecord
100
AcDbDimStyleTableRecord
  2
EZ_M_5_H25_CM
 70
0
 40
1.0
 41
0.0125
 42
0.00625
 43
3.75
 44
0.018750000000000003
 45
0.0
 46
0.0
 47
0.0
 48
0.0
 49
2.5
140
0.0125
141
2.5
142
0.00625
143
0.03937007874
144
100.0
145
0.0
146
0.5
147
0.005000000000000001
148
0.0
 69
0
 70
0
 71
0
 72
0
 73
0
 74
0
 75
0
 76
0
 77
1
 78
12
 79
3
170
0
171
3
172
1
173
0
174
0
175
0
176
0
177
0
178
0
179
2
271
2
272
2
273
2
274
3
275
0
276
0
277
2
278
46
279
2
280
0
281
0
282
0
283
0
284
8
285
0
286
0
288
1
289
3
290
0
340
4C
371
-2
372
-2
  0
DIMSTYLE
105
82
330
4
100
AcDbSymbolTableRecord
100
AcDbDimStyleTableRecord
  2
EZ_M_1_H25_CM
 70
0
 40
1.0
 41
0.0025
 42
0.00125
 43
3.75
 44
0.00375
 45
0.0
 46
0.0
 47
0.0
 48
0.0
 49
2.5
140
0.0025
141
2.5
142
0.00125
143
0.03937007874
144
100.0
145
0.0
146
0.5
147
0.001
148
0.0
 69
0
 70
0
 71
0
 72
0
 73
0
 74
0
 75
0
 76
0
 77
1
 78
12
 79
3
170
0
171
3
172
1
173
0
174
0
175
0
176
0
177
0
178
0
179
2
271
2
272
2
273
2
274
3
275
0
276
0
277
2
278
46
279
2
280
0
281
0
282
0
283
0
284
8
285
0
286
0
288
1
289
3
290
0
340
4C
371
-2
372
-2
  0
DIMSTYLE
105
83
330
4
100
AcDbSymbolTableRecord
100
AcDbDimStyleTableRecord
  2
EZ_RADIUS
 70
0
 40
1.0
 41
0.25
 42
0.125
 43
3.75
 44
0.375
 45
0.0
 46
0.0
 47
0.0
 48
0.0
 49
2.5
140
0.25
141
0.0
142
0.0
143
0.03937007874
144
100.0
145
0.0
146
0.5
147
0.1
148
0.0
 69
0
 70
0
 71
0
 72
0
 73
0
 74
0
 75
0
 76
0
 77
1
 78
12
 79
3
170
0
171
3
172
0
173
0
174
0
175
0
176
0
177
0
178
0
179
2
271
2
272
2
273
2
274
3
275
0
276
0
277
2
278
46
279
1
280
0
281
0
282
0
283
0
284
8
285
0
286
0
288
1
289
3
290
0
340
4C
342
84
371
-2
372
-2
  0
DIMSTYLE
105
88
330
4
100
AcDbSymbolTableRecord
100
AcDbDimStyleTableRecord
  2
EZ_RADIUS_INSIDE
 70
0
 40
1.0
 41
0.25
 42
0.125
 43
3.75
 44
0.375
 45
0.0
 46
0.0
 47
0.0
 48
0.0
 49
2.5
140
0.25
141
0.0
142
0.0
143
0.03937007874
144
100.0
145
0.0
146
0.5
147
0.1
148
0.0
 69
0
 70
0
 71
0
 72
0
 73
0
 74
0
 75
0
 76
0
 77
0
 78
12
 79
3
170
0
171
3
172
0
173
0
174
1
175
0
176
0
177
0
178
0
179
2
271
2
272
2
273
2
274
3
275
0
276
0
277
2
278
46
279
0
280
0
281
0
282
0
283
0
284
8
285
0
286
0
288
1
289
0
290
0
340
4C
342
84
371
-2
372
-2
  0
DIMSTYLE
105
89
330
4
100
AcDbSymbolTableRecord
100
AcDbDimStyleTableRecord
  2
EZ_CURVED
 70
0
 40
1.0
 41
0.25
 42
0.125
 43
3.75
 44
0.375
 45
0.0
 46
0.0
 47
0.0
 48
0.0
 49
2.5
140
0.25
141
2.5
142
0.0
143
0.03937007874
144
100.0
145
0.0
146
0.5
147
0.1
148
0.0
 69
0
 70
0
 71
0
 72
0
 73
0
 74
0
 75
0
 76
0
 77
1
 78
12
 79
2
 90
2
170
0
171
3
172
1
173
0
174
0
175
0
176
0
177
0
178
0
179
2
271
2
272
2
273
2
274
3
275
0
276
0
277
2
278
46
279
2
280
0
281
0
282
0
283
0
284
8
285
0
286
0
288
1
289
3
290
0
340
4C
371
-2
372
-2
  0
ENDTAB
  0
TABLE
  2
BLOCK_RECORD
  5
9
330
0
100
AcDbSymbolTable
 70
5
  0
BLOCK_RECORD
  5
17
330
9
100
AcDbSymbolTableRecord
100
AcDbBlockTableRecord
  2
*Model_Space
340
1A
 70
0
280
1
281
0
  0
BLOCK_RECORD
  5
1B
330
9
100
AcDbSymbolTableRecord
100
AcDbBlockTableRecord
  2
*Paper_Space
340
1E
 70
0
280
1
281
0
  0
BLOCK_RECORD
  5
74
330
9
100
AcDbSymbolTableRecord
100
AcDbBlockTableRecord
  2
_ARCHTICK
340
0
 70
0
280
1
281
0
  0
BLOCK_RECORD
  5
78
330
9
100
AcDbSymbolTableRecord
100
AcDbBlockTableRecord
  2
_CLOSEDFILLED
340
0
 70
0
280
1
281
0
  0
BLOCK_RECORD
  5
84
330
9
100
AcDbSymbolTableRecord
100
AcDbBlockTableRecord
  2
_CLOSEDBLANK
340
0
 70
0
280
1
281
0
  0
ENDTAB
  0
ENDSEC
  0
SECTION
  2
BLOCKS
  0
BLOCK
  5
18
330
17
100
AcDbEntity
  8
0
100
AcDbBlockBegin
  2
*Model_Space
 70
0
 10
0.0
 20
0.0
 30
0.0
  3
*Model_Space
  1

  0
ENDBLK
  5
19
330
17
100
AcDbEntity
  8
0
100
AcDbBlockEnd
  0
BLOCK
  5
1C
330
1B
100
AcDbEntity
  8
0
100
AcDbBlockBegin
  2
*Paper_Space
 70
0
 10
0.0
 20
0.0
 30
0.0
  3
*Paper_Space
  1

  0
ENDBLK
  5
1D
330
1B
100
AcDbEntity
  8
0
100
AcDbBlockEnd
  0
BLOCK
  5
75
330
74
100
AcDbEntity
  8
0
100
AcDbBlockBegin
  2
_ARCHTICK
 70
0
 10
0.0
 20
0.0
 30
0.0
  3
_ARCHTICK
  1

  0
LWPOLYLINE
  5
77
330
74
100
AcDbEntity
  8
0
  6
BYBLOCK
 62
0
100
AcDbPolyline
 90
2
 70
0
 43
0.15
 10
-0.5
 20
-0.5
 10
0.5
 20
0.5
  0
ENDBLK
  5
76
330
74
100
AcDbEntity
  8
0
100
AcDbBlockEnd
  0
BLOCK
  5
79
330
78
100
AcDbEntity
  8
0
100
AcDbBlockBegin
  2
_CLOSEDFILLED
 70
0
 10
0.0
 20
0.0
 30
0.0
  3
_CLOSEDFILLED
  1

  0
SOLID
  5
7B
330
78
100
AcDbEntity
  8
0
  6
BYBLOCK
 62
0
100
AcDbTrace
 10
-1.0
 20
0.16439898372402537
 30
0.0
 11
0.0
 21
0.0
 31
0.0
 12
-1.0
 22
-0.16439898372402537
 32
0.0
 13
-1.0
 23
-0.16439898372402537
 33
0.0
  0
ENDBLK
  5
7A
330
78
100
AcDbEntity
  8
0
100
AcDbBlockEnd
  0
BLOCK
  5
85
330
84
100
AcDbEntity
  8
0
100
AcDbBlockBegin
  2
_CLOSEDBLANK
 70
0
 10
0.0
 20
0.0
 30
0.0
  3
_CLOSEDBLANK
  1

  0
LWPOLYLINE
  5
87
330
84
100
AcDbEntity
  8
0
  6
BYBLOCK
 62
0
100
AcDbPolyline
 90
3
 70
1
 10
-1.0
 20
0.16439898372402537
 10
0.0
 20
0.0
 10
-1.0
 20
-0.16439898372402537
  0
ENDBLK
  5
86
330
84
100
AcDbEntity
  8
0
100
AcDbBlockEnd
  0
ENDSEC
  0
SECTION
  2
ENTITIES
  0
HATCH
  5
8C
330
17
100
AcDbEntity
  8
Top edge section hatch
 62
7
100
AcDbHatch
 10
0.0
 20
0.0
 30
0.0
210
0.0
220
0.0
230
1.0
  2
ANSI31
 70
0
 71
0
 91
1
 92
3
 72
0
 73
1
 93
109
 10
3.937007874015748
 20
2.7559055118110236
 10
0.23622047244094488
 20
2.7559055118110236
 10
0.2017716535433071
 20
2.7509842519685037
 10
0.17716535433070865
 20
2.736220472440945
 10
0.1624015748031496
 20
2.7116141732283463
 10
0.15748031496062992
 20
2.677165354330709
 10
0.15748031496062992
 20
2.5984251968503935
 10
0.13688221939711742
 20
2.5970721215940937
 10
0.11672151361528507
 20
2.5930587993661973
 10
0.09725516913604625
 20
2.586454085478212
 10
0.07874015748031496
 20
2.577326835241644
 10
0.061578221080883656
 20
2.5658559899147
 10
0.04612519882954107
 20
2.5522999980208527
 10
0.0325692069356939
 20
2.53684697576951
 10
0.021098361608749724
 20
2.5196850393700787
 10
0.011971111372181695
 20
2.501170027714347
 10
0.005366397484196213
 20
2.4817036832351085
 10
0.0013530752563002647
 20
2.461542977453276
 10
0.0
 20
2.440944881889764
 10
0.0013530752563002647
 20
2.420346786326251
 10
0.005366397484196213
 20
2.400186080544419
 10
0.011971111372181695
 20
2.38071973606518
 10
0.021098361608749724
 20
2.3622047244094486
 10
0.0325692069356939
 20
2.3450427880100175
 10
0.04612519882954107
 20
2.329589765758675
 10
0.061578221080883656
 20
2.3160337738648282
 10
0.07874015748031496
 20
2.3045629285378837
 10
0.09725516913604652
 20
2.2954356783013155
 10
0.11672151361528507
 20
2.28883096441333
 10
0.13688221939711742
 20
2.284817642185434
 10
0.15748031496062992
 20
2.283464566929134
 10
0.13688221939711742
 20
2.2821114916728336
 10
0.11672151361528507
 20
2.2780981694449376
 10
0.09725516913604625
 20
2.271493455556952
 10
0.07874015748031496
 20
2.262366205320384
 10
0.061578221080883656
 20
2.25089535999344
 10
0.04612519882954107
 20
2.2373393680995926
 10
0.0325692069356939
 20
2.22188634584825
 10
0.021098361608749724
 20
2.204724409448819
 10
0.011971111372181695
 20
2.186209397793087
 10
0.005366397484196213
 20
2.1667430533138488
 10
0.0013530752563002647
 20
2.1465823475320165
 10
0.0
 20
2.1259842519685037
 10
0.0013530752563002647
 20
2.1053861564049914
 10
0.005366397484196213
 20
2.085225450623159
 10
0.011971111372181695
 20
2.06575910614392
 10
0.021098361608749724
 20
2.047244094488189
 10
0.0325692069356939
 20
2.030082158088758
 10
0.04612519882954107
 20
2.014629135837415
 10
0.061578221080883656
 20
2.001073143943568
 10
0.07874015748031496
 20
1.989602298616624
 10
0.09725516913604652
 20
1.9804750483800557
 10
0.11672151361528507
 20
1.9738703344920703
 10
0.13688221939711742
 20
1.9698570122641743
 10
0.15748031496062992
 20
1.968503937007874
 10
0.13688221939711742
 20
1.9671508617515738
 10
0.11672151361528507
 20
1.9631375395236779
 10
0.09725516913604625
 20
1.9565328256356922
 10
0.07874015748031496
 20
1.9474055753991242
 10
0.061578221080883656
 20
1.93593473007218
 10
0.04612519882954107
 20
1.9223787381783328
 10
0.0325692069356939
 20
1.9069257159269903
 10
0.021098361608749724
 20
1.889763779527559
 10
0.011971111372181695
 20
1.8712487678718275
 10
0.005366397484196213
 20
1.851782423392589
 10
0.0013530752563002647
 20
1.8316217176107565
 10
0.0
 20
1.811023622047244
 10
0.0013530752563002647
 20
1.7904255264837317
 10
0.005366397484196213
 20
1.7702648207018992
 10
0.011971111372181695
 20
1.7507984762226605
 10
0.021098361608749724
 20
1.7322834645669292
 10
0.0325692069356939
 20
1.7151215281674979
 10
0.04612519882954107
 20
1.6996685059161551
 10
0.061578221080883656
 20
1.6861125140223083
 10
0.07874015748031496
 20
1.6746416686953642
 10
0.09725516913604652
 20
1.6655144184587958
 10
0.11672151361528507
 20
1.6589097045708103
 10
0.13688221939711742
 20
1.6548963823429144
 10
0.15748031496062992
 20
1.6535433070866141
 10
0.13688221939711742
 20
1.6521902318303139
 10
0.11672151361528507
 20
1.648176909602418
 10
0.09725516913604625
 20
1.6415721957144325
 10
0.07874015748031496
 20
1.6324449454778645
 10
0.061578221080883656
 20
1.6209741001509204
 10
0.04612519882954107
 20
1.607418108257073
 10
0.0325692069356939
 20
1.5919650860057304
 10
0.021098361608749724
 20
1.574803149606299
 10
0.011971111372181695
 20
1.556288137950568
 10
0.005366397484196213
 20
1.5368217934713289
 10
0.0013530752563002647
 20
1.5166610876894964
 10
0.0
 20
1.4960629921259843
 10
0.0013530752563002647
 20
1.475464896562472
 10
0.005366397484196213
 20
1.4553041907806397
 10
0.011971111372181695
 20
1.4358378463014005
 10
0.021098361608749724
 20
1.4173228346456692
 10
0.0325692069356939
 20
1.400160898246238
 10
0.04612519882954107
 20
1.3847078759948956
 10
0.061578221080883656
 20
1.3711518841010488
 10
0.07874015748031496
 20
1.3596810387741043
 10
0.09725516913604652
 20
1.350553788537536
 10
0.11672151361528507
 20
1.3439490746495506
 10
0.13688221939711742
 20
1.3399357524216542
 10
0.15748031496062992
 20
1.3385826771653544
 10
0.15748031496062992
 20
1.2598425196850394
 10
0.1624015748031496
 20
1.2253937007874016
 10
0.17716535433070865
 20
1.2007874015748032
 10
0.2017716535433071
 20
1.186023622047244
 10
0.23622047244094488
 20
1.1811023622047243
 10
3.937007874015748
 20
1.1811023622047243
 97
0
 75
1
 76
1
 52
0.0
 41
0.15748031496062992
 77
0
 78
1
 53
45.0
 43
0.0
 44
0.0
 45
-0.0139194248
 46
0.0139194248
 79
0
 98
0
  0
POLYLINE
  5
8D
330
17
100
AcDbEntity
  8
Top edge section
100
AcDb2dPolyline
 66
1
 10
0.0
 20
0.0
 30
0.0
 70
0
  0
VERTEX
  5
8E
330
8D
100
AcDbEntity
  8
Top edge section
100
AcDbVertex
100
AcDb2dVertex
 10
3.937007874015748
 20
2.755905511811023
 30
0.0
 70
0
  0
VERTEX
  5
8F
330
8D
100
AcDbEntity
  8
Top edge section
100
AcDbVertex
100
AcDb2dVertex
 10
0.2362204724409449
 20
2.755905511811023
 30
0.0
 70
0
  0
SEQEND
  5
90
330
8D
100
AcDbEntity
  8
Top edge section
  0
SPLINE
  5
91
330
17
100
AcDbEntity
  8
Top edge section
100
AcDbSpline
 70
0
 71
3
 72
8
 73
4
 74
0
 40
0.0
 40
0.0
 40
0.0
 40
0.0
 40
1.0
 40
1.0
 40
1.0
 40
1.0
 10
0.2362204724409449
 20
2.755905511811023
 30
0.0
 10
0.18372703412073504
 20
2.755905511811023
 30
0.0
 10
0.15748031496063009
 20
2.7296587926509184
 30
0.0
 10
0.15748031496063009
 20
2.6771653543307083
 30
0.0
  0
POLYLINE
  5
92
330
17
100
AcDbEntity
  8
Top edge section
100
AcDb2dPolyline
 66
1
 10
0.0
 20
0.0
 30
0.0
 70
0
  0
VERTEX
  5
93
330
92
100
AcDbEntity
  8
Top edge section
100
AcDbVertex
100
AcDb2dVertex
 10
0.15748031496063009
 20
2.6771653543307083
 30
0.0
 70
0
  0
VERTEX
  5
94
330
92
100
AcDbEntity
  8
Top edge section
100
AcDbVertex
100
AcDb2dVertex
 10
0.15748031496063009
 20
2.5984251968503935
 30
0.0
 70
0
  0
SEQEND
  5
95
330
92
100
AcDbEntity
  8
Top edge section
  0
SPLINE
  5
96
330
17
100
AcDbEntity
  8
Top edge section
100
AcDbSpline
 70
0
 71
3
 72
23
 73
19
 74
0
 40
0.0
 40
0.0
 40
0.0
 40
0.0
 40
1.0
 40
1.0
 40
1.0
 40
2.0
 40
2.0
 40
2.0
 40
3.0
 40
3.0
 40
3.0
 40
4.0
 40
4.0
 40
4.0
 40
5.0
 40
5.0
 40
5.0
 40
6.0
 40
6.0
 40
6.0
 40
6.0
 10
0.15748031496063009
 20
2.5984251968503935
 30
0.0
 10
0.12983880391967695
 20
2.5984251968503935
 30
0.0
 10
0.10267840824076835
 20
2.5911475907621204
 30
0.0
 10
0.07874015748031504
 20
2.577326835241644
 30
0.0
 10
0.05480190671986174
 20
2.5635060797211677
 30
0.0
 10
0.03491911712922624
 20
2.5436232901305322
 30
0.0
 10
0.021098361608749894
 20
2.5196850393700787
 30
0.0
 10
0.007277606088273547
 20
2.495746788609625
 30
0.0
 10
0.0
 20
2.4685863929307166
 30
0.0
 10
0.0
 20
2.440944881889764
 30
0.0
 10
0.0
 20
2.4133033708488103
 30
0.0
 10
0.007277606088273547
 20
2.3861429751699017
 30
0.0
 10
0.021098361608749894
 20
2.3622047244094486
 30
0.0
 10
0.03491911712922624
 20
2.3382664736489955
 30
0.0
 10
0.05480190671986174
 20
2.31838368405836
 30
0.0
 10
0.07874015748031504
 20
2.3045629285378837
 30
0.0
 10
0.10267840824076835
 20
2.2907421730174073
 30
0.0
 10
0.12983880391967695
 20
2.283464566929134
 30
0.0
 10
0.15748031496063009
 20
2.283464566929134
 30
0.0
  0
SPLINE
  5
97
330
17
100
AcDbEntity
  8
Top edge section
100
AcDbSpline
 70
0
 71
3
 72
23
 73
19
 74
0
 40
0.0
 40
0.0
 40
0.0
 40
0.0
 40
1.0
 40
1.0
 40
1.0
 40
2.0
 40
2.0
 40
2.0
 40
3.0
 40
3.0
 40
3.0
 40
4.0
 40
4.0
 40
4.0
 40
5.0
 40
5.0
 40
5.0
 40
6.0
 40
6.0
 40
6.0
 40
6.0
 10
0.15748031496063009
 20
2.283464566929134
 30
0.0
 10
0.12983880391967695
 20
2.283464566929134
 30
0.0
 10
0.10267840824076835
 20
2.2761869608408603
 30
0.0
 10
0.07874015748031504
 20
2.262366205320384
 30
0.0
 10
0.05480190671986174
 20
2.2485454497999076
 30
0.0
 10
0.03491911712922624
 20
2.228662660209272
 30
0.0
 10
0.021098361608749894
 20
2.2047244094488185
 30
0.0
 10
0.007277606088273547
 20
2.1807861586883655
 30
0.0
 10
0.0
 20
2.153625763009457
 30
0.0
 10
0.0
 20
2.1259842519685037
 30
0.0
 10
0.0
 20
2.098342740927551
 30
0.0
 10
0.007277606088273547
 20
2.071182345248642
 30
0.0
 10
0.021098361608749894
 20
2.047244094488189
 30
0.0
 10
0.03491911712922624
 20
2.0233058437277354
 30
0.0
 10
0.05480190671986174
 20
2.0034230541371003
 30
0.0
 10
0.07874015748031504
 20
1.989602298616624
 30
0.0
 10
0.10267840824076835
 20
1.9757815430961476
 30
0.0
 10
0.12983880391967695
 20
1.968503937007874
 30
0.0
 10
0.15748031496063009
 20
1.968503937007874
 30
0.0
  0
SPLINE
  5
98
330
17
100
AcDbEntity
  8
Top edge section
100
AcDbSpline
 70
0
 71
3
 72
23
 73
19
 74
0
 40
0.0
 40
0.0
 40
0.0
 40
0.0
 40
1.0
 40
1.0
 40
1.0
 40
2.0
 40
2.0
 40
2.0
 40
3.0
 40
3.0
 40
3.0
 40
4.0
 40
4.0
 40
4.0
 40
5.0
 40
5.0
 40
5.0
 40
6.0
 40
6.0
 40
6.0
 40
6.0
 10
0.15748031496063009
 20
1.968503937007874
 30
0.0
 10
0.12983880391967695
 20
1.968503937007874
 30
0.0
 10
0.10267840824076835
 20
1.9612263309196005
 30
0.0
 10
0.07874015748031504
 20
1.9474055753991242
 30
0.0
 10
0.05480190671986174
 20
1.9335848198786478
 30
0.0
 10
0.03491911712922624
 20
1.9137020302880123
 30
0.0
 10
0.021098361608749894
 20
1.8897637795275588
 30
0.0
 10
0.007277606088273547
 20
1.8658255287671057
 30
0.0
 10
0.0
 20
1.8386651330881971
 30
0.0
 10
0.0
 20
1.811023622047244
 30
0.0
 10
0.0
 20
1.7833821110062908
 30
0.0
 10
0.007277606088273547
 20
1.7562217153273822
 30
0.0
 10
0.021098361608749894
 20
1.7322834645669292
 30
0.0
 10
0.03491911712922624
 20
1.7083452138064756
 30
0.0
 10
0.05480190671986174
 20
1.6884624242158406
 30
0.0
 10
0.07874015748031504
 20
1.6746416686953642
 30
0.0
 10
0.10267840824076835
 20
1.6608209131748874
 30
0.0
 10
0.12983880391967695
 20
1.653543307086614
 30
0.0
 10
0.15748031496063009
 20
1.653543307086614
 30
0.0
  0
SPLINE
  5
99
330
17
100
AcDbEntity
  8
Top edge section
100
AcDbSpline
 70
0
 71
3
 72
23
 73
19
 74
0
 40
0.0
 40
0.0
 40
0.0
 40
0.0
 40
1.0
 40
1.0
 40
1.0
 40
2.0
 40
2.0
 40
2.0
 40
3.0
 40
3.0
 40
3.0
 40
4.0
 40
4.0
 40
4.0
 40
5.0
 40
5.0
 40
5.0
 40
6.0
 40
6.0
 40
6.0
 40
6.0
 10
0.15748031496063009
 20
1.653543307086614
 30
0.0
 10
0.12983880391967695
 20
1.653543307086614
 30
0.0
 10
0.10267840824076835
 20
1.6462657009983408
 30
0.0
 10
0.07874015748031504
 20
1.6324449454778645
 30
0.0
 10
0.05480190671986174
 20
1.618624189957388
 30
0.0
 10
0.03491911712922624
 20
1.5987414003667526
 30
0.0
 10
0.021098361608749894
 20
1.574803149606299
 30
0.0
 10
0.007277606088273547
 20
1.5508648988458456
 30
0.0
 10
0.0
 20
1.523704503166937
 30
0.0
 10
0.0
 20
1.4960629921259843
 30
0.0
 10
0.0
 20
1.4684214810850311
 30
0.0
 10
0.007277606088273547
 20
1.4412610854061225
 30
0.0
 10
0.021098361608749894
 20
1.417322834645669
 30
0.0
 10
0.03491911712922624
 20
1.393384583885216
 30
0.0
 10
0.05480190671986174
 20
1.3735017942945804
 30
0.0
 10
0.07874015748031504
 20
1.359681038774104
 30
0.0
 10
0.10267840824076835
 20
1.3458602832536277
 30
0.0
 10
0.12983880391967695
 20
1.3385826771653542
 30
0.0
 10
0.15748031496063009
 20
1.3385826771653542
 30
0.0
  0
POLYLINE
  5
9A
330
17
100
AcDbEntity
  8
Top edge section
100
AcDb2dPolyline
 66
1
 10
0.0
 20
0.0
 30
0.0
 70
0
  0
VERTEX
  5
9B
330
9A
100
AcDbEntity
  8
Top edge section
100
AcDbVertex
100
AcDb2dVertex
 10
0.15748031496063009
 20
1.3385826771653542
 30
0.0
 70
0
  0
VERTEX
  5
9C
330
9A
100
AcDbEntity
  8
Top edge section
100
AcDbVertex
100
AcDb2dVertex
 10
0.15748031496063009
 20
1.2598425196850394
 30
0.0
 70
0
  0
SEQEND
  5
9D
330
9A
100
AcDbEntity
  8
Top edge section
  0
SPLINE
  5
9E
330
17
100
AcDbEntity
  8
Top edge section
100
AcDbSpline
 70
0
 71
3
 72
8
 73
4
 74
0
 40
0.0
 40
0.0
 40
0.0
 40
0.0
 40
1.0
 40
1.0
 40
1.0
 40
1.0
 10
0.15748031496063009
 20
1.2598425196850394
 30
0.0
 10
0.15748031496063009
 20
1.207349081364829
 30
0.0
 10
0.18372703412073504
 20
1.181102362204724
 30
0.0
 10
0.2362204724409449
 20
1.181102362204724
 30
0.0
  0
POLYLINE
  5
9F
330
17
100
AcDbEntity
  8
Top edge section
100
AcDb2dPolyline
 66
1
 10
0.0
 20
0.0
 30
0.0
 70
0
  0
VERTEX
  5
A0
330
9F
100
AcDbEntity
  8
Top edge section
100
AcDbVertex
100
AcDb2dVertex
 10
0.2362204724409449
 20
1.181102362204724
 30
0.0
 70
0
  0
VERTEX
  5
A1
330
9F
100
AcDbEntity
  8
Top edge section
100
AcDbVertex
100
AcDb2dVertex
 10
3.937007874015748
 20
1.181102362204724
 30
0.0
 70
0
  0
SEQEND
  5
A2
330
9F
100
AcDbEntity
  8
Top edge section
  0
HATCH
  5
A3
330
17
100
AcDbEntity
  8
Top edge section hatch
 62
7
100
AcDbHatch
 10
0.0
 20
0.0
 30
0.0
210
0.0
220
0.0
230
1.0
  2
ANSI31
 70
0
 71
0
 91
1
 92
3
 72
0
 73
1
 93
7
 10
0.7086614173228346
 20
1.1811023622047243
 10
1.1811023622047243
 20
1.1811023622047243
 10
1.1811023622047243
 20
0.7086614173228346
 10
1.0187007874015748
 20
0.7677165354330708
 10
0.8858267716535433
 20
0.8661417322834646
 10
0.7824803149606299
 20
1.0039370078740157
 10
0.7086614173228346
 20
1.1811023622047243
 97
0
 75
1
 76
1
 52
0.0
 41
0.15748031496062992
 77
0
 78
1
 53
45.0
 43
0.0
 44
0.0
 45
-0.0139194248
 46
0.0139194248
 79
0
 98
0
  0
POLYLINE
  5
A4
330
17
100
AcDbEntity
  8
Top edge section
100
AcDb2dPolyline
 66
1
 10
0.0
 20
0.0
 30
0.0
 70
0
  0
VERTEX
  5
A5
330
A4
100
AcDbEntity
  8
Top edge section
100
AcDbVertex
100
AcDb2dVertex
 10
0.7086614173228347
 20
1.181102362204724
 30
0.0
 70
0
  0
VERTEX
  5
A6
330
A4
100
AcDbEntity
  8
Top edge section
100
AcDbVertex
100
AcDb2dVertex
 10
1.1811023622047245
 20
1.181102362204724
 30
0.0
 70
0
  0
VERTEX
  5
A7
330
A4
100
AcDbEntity
  8
Top edge section
100
AcDbVertex
100
AcDb2dVertex
 10
1.1811023622047245
 20
0.7086614173228347
 30
0.0
 70
0
  0
SEQEND
  5
A8
330
A4
100
AcDbEntity
  8
Top edge section
  0
SPLINE
  5
A9
330
17
100
AcDbEntity
  8
Top edge section
100
AcDbSpline
 70
0
 71
3
 72
8
 73
4
 74
0
 40
0.0
 40
0.0
 40
0.0
 40
0.0
 40
1.0
 40
1.0
 40
1.0
 40
1.0
 10
1.1811023622047245
 20
0.7086614173228347
 30
0.0
 10
0.9448818897637798
 20
0.7611548556430446
 30
0.0
 10
0.7874015748031499
 20
0.9186351706036744
 30
0.0
 10
0.7086614173228347
 20
1.181102362204724
 30
0.0
  0
HATCH
  5
AA
330
17
100
AcDbEntity
  8
Top edge section hatch
 62
7
100
AcDbHatch
 10
0.0
 20
0.0
 30
0.0
210
0.0
220
0.0
230
1.0
  2
ANSI31
 70
0
 71
0
 91
1
 92
3
 72
0
 73
1
 93
5
 10
1.1811023622047243
 20
1.1811023622047243
 10
2.047244094488189
 20
1.1811023622047243
 10
2.047244094488189
 20
0.0
 10
1.1811023622047243
 20
0.0
 10
1.1811023622047243
 20
1.1811023622047243
 97
0
 75
1
 76
1
 52
0.0
 41
0.15748031496062992
 77
0
 78
1
 53
45.0
 43
0.0
 44
0.0
 45
-0.0139194248
 46
0.0139194248
 79
0
 98
0
  0
LWPOLYLINE
  5
AB
330
17
100
AcDbEntity
  8
Top edge section
100
AcDbPolyline
 90
5
 70
0
 10
1.1811023622047245
 20
1.181102362204724
 10
2.047244094488189
 20
1.181102362204724
 10
2.047244094488189
 20
0.0
 10
1.1811023622047245
 20
0.0
 10
1.1811023622047245
 20
1.181102362204724
  0
LWPOLYLINE
  5
AC
330
17
100
AcDbEntity
  8
Top edge section
100
AcDbPolyline
 90
6
 70
0
 10
3.937007874015748
 20
2.874015748031496
 10
3.937007874015748
 20
2.165354330708661
 10
3.7795275590551185
 20
2.047244094488189
 10
4.094488188976378
 20
1.8897637795275588
 10
3.937007874015748
 20
1.7716535433070866
 10
3.937007874015748
 20
1.0629921259842519
  0
TEXT
  5
AD
330
17
100
AcDbEntity
  8
LABELS
100
AcDbText
 10
0.0
 20
5.2362204724409445
 30
0.0
 40
0.7086614173228346
  1
TOP EDGE SECTION  (1:1, inches)
 11
0.0
 21
5.2362204724409445
 31
0.0
100
AcDbText
  0
HATCH
  5
B0
330
17
100
AcDbEntity
  8
Drawer rail section hatch
 62
7
100
AcDbHatch
 10
0.0
 20
0.0
 30
0.0
210
0.0
220
0.0
230
1.0
  2
ANSI31
 70
0
 71
0
 91
1
 92
3
 72
0
 73
1
 93
5
 10
14.153543307086615
 20
1.7716535433070866
 10
15.019685039370078
 20
1.7716535433070866
 10
15.019685039370078
 20
0.6692913385826772
 10
14.153543307086615
 20
0.6692913385826772
 10
14.153543307086615
 20
1.7716535433070866
 97
0
 75
1
 76
1
 52
0.0
 41
0.15748031496062992
 77
0
 78
1
 53
45.0
 43
0.0
 44
0.0
 45
-0.0139194248
 46
0.0139194248
 79
0
 98
0
  0
LWPOLYLINE
  5
B1
330
17
100
AcDbEntity
  8
Drawer rail section
100
AcDbPolyline
 90
5
 70
0
 10
14.153543307086615
 20
1.771653543307087
 10
15.01968503937008
 20
1.771653543307087
 10
15.01968503937008
 20
0.6692913385826778
 10
14.153543307086615
 20
0.6692913385826778
 10
14.153543307086615
 20
1.771653543307087
  0
CIRCLE
  5
B2
330
17
100
AcDbEntity
  8
Drawer rail section
100
AcDbCircle
 10
14.094488188976378
 20
1.7125984251968505
 30
0.0
 40
0.05905511811023622
  0
CIRCLE
  5
B3
330
17
100
AcDbEntity
  8
Drawer rail section
100
AcDbCircle
 10
14.094488188976378
 20
0.7283464566929134
 30
0.0
 40
0.05905511811023622
  0
HATCH
  5
B4
330
17
100
AcDbEntity
  8
Drawer rail section hatch
 62
7
100
AcDbHatch
 10
0.0
 20
0.0
 30
0.0
210
0.0
220
0.0
230
1.0
  2
ANSI31
 70
0
 71
0
 91
1
 92
3
 72
0
 73
1
 93
76
 10
14.03543307086614
 20
0.5905511811023622
 10
14.022559261138946
 20
0.5897055090671751
 10
14.009958820025302
 20
0.5871971826747395
 10
13.997792354725778
 20
0.5830692364947493
 10
13.986220472440944
 20
0.577364705096894
 10
13.975494262191301
 20
0.5701954267675535
 10
13.96583612328421
 20
0.5617229318338998
 10
13.957363628350555
 20
0.5520647929268099
 10
13.950194350021215
 20
0.5413385826771654
 10
13.94448981862336
 20
0.5297667003923326
 10
13.94036187244337
 20
0.5176002350928094
 10
13.937853546050937
 20
0.5049997939791643
 10
13.937007874015748
 20
0.4921259842519685
 10
13.937853546050937
 20
0.47925217452477276
 10
13.94036187244337
 20
0.46665173341112764
 10
13.94448981862336
 20
0.45448526811160433
 10
13.950194350021215
 20
0.44291338582677164
 10
13.957363628350555
 20
0.43218717557712716
 10
13.96583612328421
 20
0.4225290366700372
 10
13.975494262191301
 20
0.4140565417363835
 10
13.986220472440944
 20
0.40688726340704306
 10
13.997792354725778
 20
0.40118273200918775
 10
14.009958820025302
 20
0.3970547858291975
 10
14.022559261138946
 20
0.39454645943676186
 10
14.03543307086614
 20
0.39370078740157477
 10
14.022559261138946
 20
0.39285511536638773
 10
14.009958820025302
 20
0.3903467889739521
 10
13.997792354725778
 20
0.38621884279396185
 10
13.986220472440944
 20
0.38051431139610653
 10
13.975494262191301
 20
0.3733450330667661
 10
13.96583612328421
 20
0.3648725381331124
 10
13.957363628350555
 20
0.35521439922602244
 10
13.950194350021215
 20
0.34448818897637795
 10
13.94448981862336
 20
0.33291630669154526
 10
13.94036187244337
 20
0.32074984139202195
 10
13.937853546050937
 20
0.30814940027837684
 10
13.937007874015748
 20
0.2952755905511811
 10
13.937853546050937
 20
0.2824017808239853
 10
13.94036187244337
 20
0.26980133971034026
 10
13.94448981862336
 20
0.25763487441081695
 10
13.950194350021215
 20
0.24606299212598426
 10
13.957363628350555
 20
0.23533678187633975
 10
13.96583612328421
 20
0.22567864296924983
 10
13.975494262191301
 20
0.2172061480355961
 10
13.986220472440944
 20
0.21003686970625565
 10
13.997792354725778
 20
0.20433233830840034
 10
14.009958820025302
 20
0.2002043921284101
 10
14.022559261138946
 20
0.19769606573597448
 10
14.03543307086614
 20
0.19685039370078738
 10
14.022559261138946
 20
0.19600472166560032
 10
14.009958820025302
 20
0.1934963952731647
 10
13.997792354725778
 20
0.18936844909317446
 10
13.986220472440944
 20
0.18366391769531915
 10
13.975494262191301
 20
0.1764946393659787
 10
13.96583612328421
 20
0.16802214443232497
 10
13.957363628350555
 20
0.15836400552523505
 10
13.950194350021215
 20
0.14763779527559054
 10
13.94448981862336
 20
0.13606591299075788
 10
13.94036187244337
 20
0.12389944769123455
 10
13.937853546050937
 20
0.11129900657758945
 10
13.937007874015748
 20
0.09842519685039369
 10
13.937853546050937
 20
0.08555138712319794
 10
13.94036187244337
 20
0.07295094600955285
 10
13.94448981862336
 20
0.06078448071002953
 10
13.950194350021215
 20
0.049212598425196846
 10
13.957363628350555
 20
0.038486388175552354
 10
13.96583612328421
 20
0.02882824926846243
 10
13.975494262191301
 20
0.020355754334808688
 10
13.986220472440944
 20
0.013186476005468262
 10
13.997792354725778
 20
0.0074819446076129295
 10
14.009958820025302
 20
0.003353998427622703
 10
14.022559261138946
 20
0.0008456720351870709
 10
14.03543307086614
 20
0.0
 10
14.901574803149606
 20
0.0
 10
14.901574803149606
 20
0.5905511811023622
 10
14.03543307086614
 20
0.5905511811023622
 97
0
 75
1
 76
1
 52
0.0
 41
0.15748031496062992
 77
0
 78
1
 53
45.0
 43
0.0
 44
0.0
 45
-0.0139194248
 46
0.0139194248
 79
0
 98
0
  0
SPLINE
  5
B5
330
17
100
AcDbEntity
  8
Drawer rail section
100
AcDbSpline
 70
0
 71
3
 72
23
 73
19
 74
0
 40
0.0
 40
0.0
 40
0.0
 40
0.0
 40
1.0
 40
1.0
 40
1.0
 40
2.0
 40
2.0
 40
2.0
 40
3.0
 40
3.0
 40
3.0
 40
4.0
 40
4.0
 40
4.0
 40
5.0
 40
5.0
 40
5.0
 40
6.0
 40
6.0
 40
6.0
 40
6.0
 10
14.035433070866143
 20
0.590551181102362
 30
0.0
 10
14.018157126465546
 20
0.590551181102362
 30
0.0
 10
14.001181879166229
 20
0.5860026772971922
 30
0.0
 10
13.986220472440944
 20
0.577364705096894
 30
0.0
 10
13.971259065715662
 20
0.5687267328965966
 30
0.0
 10
13.958832322221514
 20
0.556299989402449
 30
0.0
 10
13.950194350021217
 20
0.5413385826771657
 30
0.0
 10
13.94155637782092
 20
0.5263771759518825
 30
0.0
 10
13.937007874015748
 20
0.5094019286525642
 30
0.0
 10
13.937007874015748
 20
0.4921259842519685
 30
0.0
 10
13.937007874015748
 20
0.47485003985137286
 30
0.0
 10
13.94155637782092
 20
0.45787479255205543
 30
0.0
 10
13.950194350021217
 20
0.4429133858267722
 30
0.0
 10
13.958832322221514
 20
0.4279519791014881
 30
0.0
 10
13.971259065715662
 20
0.41552523560734134
 30
0.0
 10
13.986220472440944
 20
0.40688726340704306
 30
0.0
 10
14.001181879166229
 20
0.3982492912067457
 30
0.0
 10
14.018157126465546
 20
0.393700787401575
 30
0.0
 10
14.035433070866143
 20
0.393700787401575
 30
0.0
  0
SPLINE
  5
B6
330
17
100
AcDbEntity
  8
Drawer rail section
100
AcDbSpline
 70
0
 71
3
 72
23
 73
19
 74
0
 40
0.0
 40
0.0
 40
0.0
 40
0.0
 40
1.0
 40
1.0
 40
1.0
 40
2.0
 40
2.0
 40
2.0
 40
3.0
 40
3.0
 40
3.0
 40
4.0
 40
4.0
 40
4.0
 40
5.0
 40
5.0
 40
5.0
 40
6.0
 40
6.0
 40
6.0
 40
6.0
 10
14.035433070866143
 20
0.393700787401575
 30
0.0
 10
14.018157126465546
 20
0.393700787401575
 30
0.0
 10
14.001181879166229
 20
0.3891522835964043
 30
0.0
 10
13.986220472440944
 20
0.3805143113961069
 30
0.0
 10
13.971259065715662
 20
0.37187633919580865
 30
0.0
 10
13.958832322221514
 20
0.3594495957016619
 30
0.0
 10
13.950194350021217
 20
0.3444881889763778
 30
0.0
 10
13.94155637782092
 20
0.32952678225109455
 30
0.0
 10
13.937007874015748
 20
0.3125515349517771
 30
0.0
 10
13.937007874015748
 20
0.29527559055118147
 30
0.0
 10
13.937007874015748
 20
0.2779996461505858
 30
0.0
 10
13.94155637782092
 20
0.2610243988512675
 30
0.0
 10
13.950194350021217
 20
0.24606299212598426
 30
0.0
 10
13.958832322221514
 20
0.23110158540070103
 30
0.0
 10
13.971259065715662
 20
0.2186748419065534
 30
0.0
 10
13.986220472440944
 20
0.210036869706256
 30
0.0
 10
14.001181879166229
 20
0.20139889750595774
 30
0.0
 10
14.018157126465546
 20
0.19685039370078794
 30
0.0
 10
14.035433070866143
 20
0.19685039370078794
 30
0.0
  0
SPLINE
  5
B7
330
17
100
AcDbEntity
  8
Drawer rail section
100
AcDbSpline
 70
0
 71
3
 72
23
 73
19
 74
0
 40
0.0
 40
0.0
 40
0.0
 40
0.0
 40
1.0
 40
1.0
 40
1.0
 40
2.0
 40
2.0
 40
2.0
 40
3.0
 40
3.0
 40
3.0
 40
4.0
 40
4.0
 40
4.0
 40
5.0
 40
5.0
 40
5.0
 40
6.0
 40
6.0
 40
6.0
 40
6.0
 10
14.035433070866143
 20
0.19685039370078794
 30
0.0
 10
14.018157126465546
 20
0.19685039370078794
 30
0.0
 10
14.001181879166229
 20
0.19230188989561725
 30
0.0
 10
13.986220472440944
 20
0.18366391769531898
 30
0.0
 10
13.971259065715662
 20
0.1750259454950216
 30
0.0
 10
13.958832322221514
 20
0.16259920200087397
 30
0.0
 10
13.950194350021217
 20
0.14763779527559073
 30
0.0
 10
13.94155637782092
 20
0.1326763885503075
 30
0.0
 10
13.937007874015748
 20
0.11570114125099007
 30
0.0
 10
13.937007874015748
 20
0.09842519685039353
 30
0.0
 10
13.937007874015748
 20
0.08114925244979787
 30
0.0
 10
13.94155637782092
 20
0.06417400515048044
 30
0.0
 10
13.950194350021217
 20
0.04921259842519721
 30
0.0
 10
13.958832322221514
 20
0.034251191699913974
 30
0.0
 10
13.971259065715662
 20
0.021824448205766345
 30
0.0
 10
13.986220472440944
 20
0.013186476005468073
 30
0.0
 10
14.001181879166229
 20
0.004548503805170689
 30
0.0
 10
14.018157126465546
 20
0.0
 30
0.0
 10
14.035433070866143
 20
0.0
 30
0.0
  0
POLYLINE
  5
B8
330
17
100
AcDbEntity
  8
Drawer rail section
100
AcDb2dPolyline
 66
1
 10
0.0
 20
0.0
 30
0.0
 70
0
  0
VERTEX
  5
B9
330
B8
100
AcDbEntity
  8
Drawer rail section
100
AcDbVertex
100
AcDb2dVertex
 10
14.035433070866143
 20
0.0
 30
0.0
 70
0
  0
VERTEX
  5
BA
330
B8
100
AcDbEntity
  8
Drawer rail section
100
AcDbVertex
100
AcDb2dVertex
 10
14.901574803149607
 20
0.0
 30
0.0
 70
0
  0
VERTEX
  5
BB
330
B8
100
AcDbEntity
  8
Drawer rail section
100
AcDbVertex
100
AcDb2dVertex
 10
14.901574803149607
 20
0.590551181102362
 30
0.0
 70
0
  0
VERTEX
  5
BC
330
B8
100
AcDbEntity
  8
Drawer rail section
100
AcDbVertex
100
AcDb2dVertex
 10
14.035433070866143
 20
0.590551181102362
 30
0.0
 70
0
  0
SEQEND
  5
BD
330
B8
100
AcDbEntity
  8
Drawer rail section
  0
LWPOLYLINE
  5
BE
330
17
100
AcDbEntity
  8
Drawer rail section
  6
DASHED
100
AcDbPolyline
 90
2
 70
0
 10
15.01968503937008
 20
0.7480314960629926
 10
17.18503937007874
 20
0.7480314960629926
  0
TEXT
  5
BF
330
17
100
AcDbEntity
  8
LABELS
100
AcDbText
 10
13.937007874015748
 20
4.133858267716535
 30
0.0
 40
0.7086614173228346
  1
DRAWER RAIL SECTION  (1:1, inches)
 11
13.937007874015748
 21
4.133858267716535
 31
0.0
100
AcDbText
  0
LWPOLYLINE
  5
C2
330
17
100
AcDbEntity
  8
Console bracket - front
100
AcDbPolyline
 90
5
 70
0
 10
27.02755905511811
 20
7.559055118110236
 10
29.23228346456693
 20
7.559055118110236
 10
29.23228346456693
 20
7.086614173228346
 10
27.02755905511811
 20
7.086614173228346
 10
27.02755905511811
 20
7.559055118110236
  0
LWPOLYLINE
  5
C3
330
17
100
AcDbEntity
  8
Console bracket - front
100
AcDbPolyline
 90
5
 70
0
 10
27.2244094488189
 20
7.086614173228346
 10
29.03543307086614
 20
7.086614173228346
 10
28.838582677165356
 20
1.259842519685039
 10
27.421259842519685
 20
1.259842519685039
 10
27.2244094488189
 20
7.086614173228346
  0
LINE
  5
C4
330
17
100
AcDbEntity
  8
Console bracket - front
100
AcDbLine
 10
27.586614173228348
 20
6.850393700787402
 30
0.0
 11
27.70472440944882
 21
1.4960629921259843
 31
0.0
  0
LINE
  5
C5
330
17
100
AcDbEntity
  8
Console bracket - front
100
AcDbLine
 10
27.948818897637793
 20
6.850393700787402
 30
0.0
 11
27.988188976377952
 21
1.4960629921259843
 31
0.0
  0
LINE
  5
C6
330
17
100
AcDbEntity
  8
Console bracket - front
100
AcDbLine
 10
28.311023622047244
 20
6.850393700787402
 30
0.0
 11
28.27165354330709
 21
1.4960629921259843
 31
0.0
  0
LINE
  5
C7
330
17
100
AcDbEntity
  8
Console bracket - front
100
AcDbLine
 10
28.67322834645669
 20
6.850393700787402
 30
0.0
 11
28.55511811023622
 21
1.4960629921259843
 31
0.0
  0
POLYLINE
  5
C8
330
17
100
AcDbEntity
  8
Console bracket - front
100
AcDb2dPolyline
 66
1
 10
0.0
 20
0.0
 30
0.0
 70
0
  0
VERTEX
  5
C9
330
C8
100
AcDbEntity
  8
Console bracket - front
100
AcDbVertex
100
AcDb2dVertex
 10
27.65748031496063
 20
1.259842519685039
 30
0.0
 70
0
  0
VERTEX
  5
CA
330
C8
100
AcDbEntity
  8
Console bracket - front
100
AcDbVertex
100
AcDb2dVertex
 10
28.60236220472441
 20
1.259842519685039
 30
0.0
 70
0
  0
SEQEND
  5
CB
330
C8
100
AcDbEntity
  8
Console bracket - front
  0
SPLINE
  5
CC
330
17
100
AcDbEntity
  8
Console bracket - front
100
AcDbSpline
 70
0
 71
3
 72
14
 73
10
 74
0
 40
0.0
 40
0.0
 40
0.0
 40
0.0
 40
1.0
 40
1.0
 40
1.0
 40
2.0
 40
2.0
 40
2.0
 40
3.0
 40
3.0
 40
3.0
 40
3.0
 10
28.60236220472441
 20
1.259842519685039
 30
0.0
 10
28.671465982326794
 20
1.259842519685039
 30
0.0
 10
28.739366971524063
 20
1.241648504464357
 30
0.0
 10
28.799212598425196
 20
1.2070966156631648
 30
0.0
 10
28.85905822532633
 20
1.1725447268619735
 30
0.0
 10
28.90876519930292
 20
1.1228377528853848
 30
0.0
 10
28.94331708810411
 20
1.0629921259842519
 30
0.0
 10
28.977868976905302
 20
1.003146499083119
 30
0.0
 10
28.996062992125985
 20
0.9352455098858456
 30
0.0
 10
28.996062992125985
 20
0.8661417322834648
 30
0.0
  0
POLYLINE
  5
CD
330
17
100
AcDbEntity
  8
Console bracket - front
100
AcDb2dPolyline
 66
1
 10
0.0
 20
0.0
 30
0.0
 70
0
  0
VERTEX
  5
CE
330
CD
100
AcDbEntity
  8
Console bracket - front
100
AcDbVertex
100
AcDb2dVertex
 10
28.996062992125985
 20
0.8661417322834648
 30
0.0
 70
0
  0
VERTEX
  5
CF
330
CD
100
AcDbEntity
  8
Console bracket - front
100
AcDbVertex
100
AcDb2dVertex
 10
28.996062992125985
 20
0.78740157480315
 30
0.0
 70
0
  0
SEQEND
  5
D0
330
CD
100
AcDbEntity
  8
Console bracket - front
  0
SPLINE
  5
D1
330
17
100
AcDbEntity
  8
Console bracket - front
100
AcDbSpline
 70
0
 71
3
 72
14
 73
10
 74
0
 40
0.0
 40
0.0
 40
0.0
 40
0.0
 40
1.0
 40
1.0
 40
1.0
 40
2.0
 40
2.0
 40
2.0
 40
3.0
 40
3.0
 40
3.0
 40
3.0
 10
28.996062992125985
 20
0.78740157480315
 30
0.0
 10
28.996062992125985
 20
0.7182977972007674
 30
0.0
 10
28.977868976905302
 20
0.6503968080034959
 30
0.0
 10
28.94331708810411
 20
0.5905511811023629
 30
0.0
 10
28.90876519930292
 20
0.5307055542012282
 30
0.0
 10
28.85905822532633
 20
0.48099858022464126
 30
0.0
 10
28.799212598425196
 20
0.44644669142344817
 30
0.0
 10
28.739366971524063
 20
0.41189480262225686
 30
0.0
 10
28.671465982326794
 20
0.3937007874015741
 30
0.0
 10
28.60236220472441
 20
0.3937007874015741
 30
0.0
  0
POLYLINE
  5
D2
330
17
100
AcDbEntity
  8
Console bracket - front
100
AcDb2dPolyline
 66
1
 10
0.0
 20
0.0
 30
0.0
 70
0
  0
VERTEX
  5
D3
330
D2
100
AcDbEntity
  8
Console bracket - front
100
AcDbVertex
100
AcDb2dVertex
 10
28.60236220472441
 20
0.3937007874015741
 30
0.0
 70
0
  0
VERTEX
  5
D4
330
D2
100
AcDbEntity
  8
Console bracket - front
100
AcDbVertex
100
AcDb2dVertex
 10
27.65748031496063
 20
0.3937007874015741
 30
0.0
 70
0
  0
SEQEND
  5
D5
330
D2
100
AcDbEntity
  8
Console bracket - front
  0
SPLINE
  5
D6
330
17
100
AcDbEntity
  8
Console bracket - front
100
AcDbSpline
 70
0
 71
3
 72
14
 73
10
 74
0
 40
0.0
 40
0.0
 40
0.0
 40
0.0
 40
1.0
 40
1.0
 40
1.0
 40
2.0
 40
2.0
 40
2.0
 40
3.0
 40
3.0
 40
3.0
 40
3.0
 10
27.65748031496063
 20
0.3937007874015741
 30
0.0
 10
27.588376537358247
 20
0.3937007874015741
 30
0.0
 10
27.520475548160977
 20
0.41189480262225686
 30
0.0
 10
27.460629921259844
 20
0.44644669142344817
 30
0.0
 10
27.40078429435871
 20
0.48099858022464126
 30
0.0
 10
27.35107732038212
 20
0.5307055542012282
 30
0.0
 10
27.31652543158093
 20
0.5905511811023629
 30
0.0
 10
27.28197354277974
 20
0.6503968080034959
 30
0.0
 10
27.263779527559056
 20
0.7182977972007674
 30
0.0
 10
27.263779527559056
 20
0.78740157480315
 30
0.0
  0
POLYLINE
  5
D7
330
17
100
AcDbEntity
  8
Console bracket - front
100
AcDb2dPolyline
 66
1
 10
0.0
 20
0.0
 30
0.0
 70
0
  0
VERTEX
  5
D8
330
D7
100
AcDbEntity
  8
Console bracket - front
100
AcDbVertex
100
AcDb2dVertex
 10
27.263779527559056
 20
0.78740157480315
 30
0.0
 70
0
  0
VERTEX
  5
D9
330
D7
100
AcDbEntity
  8
Console bracket - front
100
AcDbVertex
100
AcDb2dVertex
 10
27.263779527559056
 20
0.8661417322834648
 30
0.0
 70
0
  0
SEQEND
  5
DA
330
D7
100
AcDbEntity
  8
Console bracket - front
  0
SPLINE
  5
DB
330
17
100
AcDbEntity
  8
Console bracket - front
100
AcDbSpline
 70
0
 71
3
 72
14
 73
10
 74
0
 40
0.0
 40
0.0
 40
0.0
 40
0.0
 40
1.0
 40
1.0
 40
1.0
 40
2.0
 40
2.0
 40
2.0
 40
3.0
 40
3.0
 40
3.0
 40
3.0
 10
27.263779527559056
 20
0.8661417322834648
 30
0.0
 10
27.263779527559056
 20
0.9352455098858456
 30
0.0
 10
27.28197354277974
 20
1.003146499083119
 30
0.0
 10
27.31652543158093
 20
1.0629921259842519
 30
0.0
 10
27.35107732038212
 20
1.1228377528853848
 30
0.0
 10
27.40078429435871
 20
1.1725447268619735
 30
0.0
 10
27.460629921259844
 20
1.2070966156631648
 30
0.0
 10
27.520475548160977
 20
1.241648504464357
 30
0.0
 10
27.588376537358247
 20
1.259842519685039
 30
0.0
 10
27.65748031496063
 20
1.259842519685039
 30
0.0
  0
CIRCLE
  5
DC
330
17
100
AcDbEntity
  8
Console bracket - front
100
AcDbCircle
 10
28.12992125984252
 20
0.8267716535433071
 30
0.0
 40
0.19685039370078738
  0
CIRCLE
  5
DD
330
17
100
AcDbEntity
  8
Console bracket - front
100
AcDbCircle
 10
28.12992125984252
 20
0.19685039370078738
 30
0.0
 40
0.19685039370078738
  0
TEXT
  5
DE
330
17
100
AcDbEntity
  8
LABELS
100
AcDbText
 10
27.02755905511811
 20
9.921259842519685
 30
0.0
 40
0.7086614173228346
  1
CONSOLE BRACKET - FRONT  (1:1, inches)
 11
27.02755905511811
 21
9.921259842519685
 31
0.0
100
AcDbText
  0
HATCH
  5
E1
330
17
100
AcDbEntity
  8
Console bracket - side profile hatch
 62
7
100
AcDbHatch
 10
0.0
 20
0.0
 30
0.0
210
0.0
220
0.0
230
1.0
  2
ANSI31
 70
0
 71
0
 91
1
 92
3
 72
0
 73
1
 93
41
 10
40.57086614173228
 20
7.874015748031496
 10
39.074803149606296
 20
7.874015748031496
 10
39.074803149606296
 20
7.4015748031496065
 10
39.311023622047244
 20
7.4015748031496065
 10
39.328094242125985
 20
7.132904773622047
 10
39.37376968503937
 20
6.905757874015748
 10
39.51771653543307
 20
6.505905511811023
 10
39.59937869094488
 20
6.298136072834645
 10
39.67642716535433
 20
6.061761811023622
 10
39.74055733267716
 20
5.779250738188976
 10
39.76518285556102
 20
5.61521515132874
 10
39.78346456692913
 20
5.433070866141732
 10
40.01968503937008
 20
1.968503937007874
 10
39.857283464566926
 20
1.9474347933070866
 10
39.724409448818896
 20
1.8885334645669292
 10
39.621062992125985
 20
1.7982591043307086
 10
39.547244094488185
 20
1.6830708661417322
 10
39.50295275590551
 20
1.5494279035433072
 10
39.488188976377955
 20
1.40378937007874
 10
39.50295275590551
 20
1.2526144192913387
 10
39.547244094488185
 20
1.1023622047244095
 10
39.62629183070866
 20
0.9474963090551181
 10
39.73671259842519
 20
0.8378444881889764
 10
39.86558809055118
 20
0.7743294783464567
 10
40.0
 20
0.7578740157480315
 10
40.12703001968504
 20
0.7894008366141733
 10
40.23375984251968
 20
0.8698326771653543
 10
40.27547520915354
 20
0.9286763348917323
 10
40.307271161417326
 20
1.0000922736220472
 10
40.32753291092519
 20
1.0841958353838583
 10
40.33464566929134
 20
1.1811023622047243
 10
40.32095841535433
 20
1.2879859744094488
 10
40.28420275590551
 20
1.3718011811023623
 10
40.230837844488185
 20
1.4316252460629921
 10
40.16732283464567
 20
1.4665354330708662
 10
40.10011687992126
 20
1.4756090059055118
 10
40.03567913385827
 20
1.4579232283464567
 10
39.98046875
 20
1.4125553641732282
 10
39.94094488188976
 20
1.3385826771653544
 10
40.57086614173228
 20
0.9448818897637795
 10
40.57086614173228
 20
7.874015748031496
 97
0
 75
1
 76
1
 52
0.0
 41
0.15748031496062992
 77
0
 78
1
 53
45.0
 43
0.0
 44
0.0
 45
-0.0139194248
 46
0.0139194248
 79
0
 98
0
  0
POLYLINE
  5
E2
330
17
100
AcDbEntity
  8
Console bracket - side profile
100
AcDb2dPolyline
 66
1
 10
0.0
 20
0.0
 30
0.0
 70
0
  0
VERTEX
  5
E3
330
E2
100
AcDbEntity
  8
Console bracket - side profile
100
AcDbVertex
100
AcDb2dVertex
 10
40.57086614173228
 20
7.874015748031496
 30
0.0
 70
0
  0
VERTEX
  5
E4
330
E2
100
AcDbEntity
  8
Console bracket - side profile
100
AcDbVertex
100
AcDb2dVertex
 10
39.074803149606296
 20
7.874015748031496
 30
0.0
 70
0
  0
VERTEX
  5
E5
330
E2
100
AcDbEntity
  8
Console bracket - side profile
100
AcDbVertex
100
AcDb2dVertex
 10
39.074803149606296
 20
7.4015748031496065
 30
0.0
 70
0
  0
VERTEX
  5
E6
330
E2
100
AcDbEntity
  8
Console bracket - side profile
100
AcDbVertex
100
AcDb2dVertex
 10
39.311023622047244
 20
7.4015748031496065
 30
0.0
 70
0
  0
SEQEND
  5
E7
330
E2
100
AcDbEntity
  8
Console bracket - side profile
  0
SPLINE
  5
E8
330
17
100
AcDbEntity
  8
Console bracket - side profile
100
AcDbSpline
 70
0
 71
3
 72
8
 73
4
 74
0
 40
0.0
 40
0.0
 40
0.0
 40
0.0
 40
1.0
 40
1.0
 40
1.0
 40
1.0
 10
39.311023622047244
 20
7.4015748031496065
 30
0.0
 10
39.311023622047244
 20
6.614173228346457
 30
0.0
 10
39.704724409448815
 20
6.456692913385827
 30
0.0
 10
39.78346456692913
 20
5.433070866141732
 30
0.0
  0
POLYLINE
  5
E9
330
17
100
AcDbEntity
  8
Console bracket - side profile
100
AcDb2dPolyline
 66
1
 10
0.0
 20
0.0
 30
0.0
 70
0
  0
VERTEX
  5
EA
330
E9
100
AcDbEntity
  8
Console bracket - side profile
100
AcDbVertex
100
AcDb2dVertex
 10
39.78346456692913
 20
5.433070866141732
 30
0.0
 70
0
  0
VERTEX
  5
EB
330
E9
100
AcDbEntity
  8
Console bracket - side profile
100
AcDbVertex
100
AcDb2dVertex
 10
40.019685039370074
 20
1.968503937007874
 30
0.0
 70
0
  0
SEQEND
  5
EC
330
E9
100
AcDbEntity
  8
Console bracket - side profile
  0
SPLINE
  5
ED
330
17
100
AcDbEntity
  8
Console bracket - side profile
100
AcDbSpline
 70
0
 71
3
 72
8
 73
4
 74
0
 40
0.0
 40
0.0
 40
0.0
 40
0.0
 40
1.0
 40
1.0
 40
1.0
 40
1.0
 10
40.019685039370074
 20
1.968503937007874
 30
0.0
 10
39.547244094488185
 20
1.968503937007874
 30
0.0
 10
39.389763779527556
 20
1.4960629921259843
 30
0.0
 10
39.547244094488185
 20
1.1023622047244102
 30
0.0
  0
SPLINE
  5
EE
330
17
100
AcDbEntity
  8
Console bracket - side profile
100
AcDbSpline
 70
0
 71
3
 72
11
 73
7
 74
0
 40
0.0
 40
0.0
 40
0.0
 40
0.0
 40
1.0
 40
1.0
 40
1.0
 40
2.0
 40
2.0
 40
2.0
 40
2.0
 10
39.547244094488185
 20
1.1023622047244102
 30
0.0
 10
39.704724409448815
 20
0.6299212598425203
 30
0.0
 10
40.33464566929133
 20
0.6299212598425203
 30
0.0
 10
40.33464566929133
 20
1.181102362204725
 30
0.0
 10
40.33464566929133
 20
1.4960629921259843
 30
0.0
 10
40.019685039370074
 20
1.5748031496063
 30
0.0
 10
39.94094488188976
 20
1.3385826771653546
 30
0.0
  0
POLYLINE
  5
EF
330
17
100
AcDbEntity
  8
Console bracket - side profile
100
AcDb2dPolyline
 66
1
 10
0.0
 20
0.0
 30
0.0
 70
0
  0
VERTEX
  5
F0
330
EF
100
AcDbEntity
  8
Console bracket - side profile
100
AcDbVertex
100
AcDb2dVertex
 10
39.94094488188976
 20
1.3385826771653546
 30
0.0
 70
0
  0
VERTEX
  5
F1
330
EF
100
AcDbEntity
  8
Console bracket - side profile
100
AcDbVertex
100
AcDb2dVertex
 10
40.57086614173228
 20
0.9448818897637796
 30
0.0
 70
0
  0
VERTEX
  5
F2
330
EF
100
AcDbEntity
  8
Console bracket - side profile
100
AcDbVertex
100
AcDb2dVertex
 10
40.57086614173228
 20
7.874015748031496
 30
0.0
 70
0
  0
SEQEND
  5
F3
330
EF
100
AcDbEntity
  8
Console bracket - side profile
  0
SPLINE
  5
F4
330
17
100
AcDbEntity
  8
Console bracket - side profile
100
AcDbSpline
 70
0
 71
3
 72
8
 73
4
 74
0
 40
0.0
 40
0.0
 40
0.0
 40
0.0
 40
1.0
 40
1.0
 40
1.0
 40
1.0
 10
39.468503937007874
 20
7.322834645669292
 30
0.0
 10
39.468503937007874
 20
6.614173228346457
 30
0.0
 10
39.862204724409445
 20
6.456692913385827
 30
0.0
 10
39.94094488188976
 20
5.433070866141732
 30
0.0
  0
POLYLINE
  5
F5
330
17
100
AcDbEntity
  8
Console bracket - side profile
100
AcDb2dPolyline
 66
1
 10
0.0
 20
0.0
 30
0.0
 70
0
  0
VERTEX
  5
F6
330
F5
100
AcDbEntity
  8
Console bracket - side profile
100
AcDbVertex
100
AcDb2dVertex
 10
39.94094488188976
 20
5.433070866141732
 30
0.0
 70
0
  0
VERTEX
  5
F7
330
F5
100
AcDbEntity
  8
Console bracket - side profile
100
AcDbVertex
100
AcDb2dVertex
 10
40.11417322834645
 20
2.047244094488189
 30
0.0
 70
0
  0
SEQEND
  5
F8
330
F5
100
AcDbEntity
  8
Console bracket - side profile
  0
SPLINE
  5
F9
330
17
100
AcDbEntity
  8
Console bracket - side profile
100
AcDbSpline
 70
0
 71
3
 72
8
 73
4
 74
0
 40
0.0
 40
0.0
 40
0.0
 40
0.0
 40
1.0
 40
1.0
 40
1.0
 40
1.0
 10
39.625984251968504
 20
7.322834645669292
 30
0.0
 10
39.625984251968504
 20
6.614173228346457
 30
0.0
 10
40.019685039370074
 20
6.456692913385827
 30
0.0
 10
40.09842519685039
 20
5.433070866141732
 30
0.0
  0
POLYLINE
  5
FA
330
17
100
AcDbEntity
  8
Console bracket - side profile
100
AcDb2dPolyline
 66
1
 10
0.0
 20
0.0
 30
0.0
 70
0
  0
VERTEX
  5
FB
330
FA
100
AcDbEntity
  8
Console bracket - side profile
100
AcDbVertex
100
AcDb2dVertex
 10
40.09842519685039
 20
5.433070866141732
 30
0.0
 70
0
  0
VERTEX
  5
FC
330
FA
100
AcDbEntity
  8
Console bracket - side profile
100
AcDbVertex
100
AcDb2dVertex
 10
40.20866141732283
 20
2.047244094488189
 30
0.0
 70
0
  0
SEQEND
  5
FD
330
FA
100
AcDbEntity
  8
Console bracket - side profile
  0
SPLINE
  5
FE
330
17
100
AcDbEntity
  8
Console bracket - side profile
100
AcDbSpline
 70
0
 71
3
 72
8
 73
4
 74
0
 40
0.0
 40
0.0
 40
0.0
 40
0.0
 40
1.0
 40
1.0
 40
1.0
 40
1.0
 10
39.78346456692913
 20
7.322834645669292
 30
0.0
 10
39.78346456692913
 20
6.614173228346457
 30
0.0
 10
40.177165354330704
 20
6.456692913385827
 30
0.0
 10
40.25590551181102
 20
5.433070866141732
 30
0.0
  0
POLYLINE
  5
FF
330
17
100
AcDbEntity
  8
Console bracket - side profile
100
AcDb2dPolyline
 66
1
 10
0.0
 20
0.0
 30
0.0
 70
0
  0
VERTEX
  5
100
330
FF
100
AcDbEntity
  8
Console bracket - side profile
100
AcDbVertex
100
AcDb2dVertex
 10
40.25590551181102
 20
5.433070866141732
 30
0.0
 70
0
  0
VERTEX
  5
101
330
FF
100
AcDbEntity
  8
Console bracket - side profile
100
AcDbVertex
100
AcDb2dVertex
 10
40.30314960629921
 20
2.047244094488189
 30
0.0
 70
0
  0
SEQEND
  5
102
330
FF
100
AcDbEntity
  8
Console bracket - side profile
  0
LINE
  5
103
330
17
100
AcDbEntity
  8
Console bracket - side profile
  6
DASHED
100
AcDbLine
 10
40.57086614173228
 20
8.26771653543307
 30
0.0
 11
40.57086614173228
 21
0.0
 31
0.0
  0
TEXT
  5
104
330
17
100
AcDbEntity
  8
LABELS
100
AcDbText
 10
39.074803149606296
 20
10.62992125984252
 30
0.0
 40
0.7086614173228346
  1
CONSOLE BRACKET - SIDE PROFILE  (1:1, inches)
 11
39.074803149606296
 21
10.62992125984252
 31
0.0
100
AcDbText
  0
LWPOLYLINE
  5
107
330
17
100
AcDbEntity
  8
Carved drop
100
AcDbPolyline
 90
5
 70
0
 10
50.41338582677165
 20
21.25984251968504
 10
52.775590551181104
 20
21.25984251968504
 10
52.775590551181104
 20
0.0
 10
50.41338582677165
 20
0.0
 10
50.41338582677165
 20
21.25984251968504
  0
SPLINE
  5
108
330
17
100
AcDbEntity
  8
Carved drop
100
AcDbSpline
 70
0
 71
3
 72
41
 73
37
 74
0
 40
0.0
 40
0.0
 40
0.0
 40
0.0
 40
1.0
 40
1.0
 40
1.0
 40
2.0
 40
2.0
 40
2.0
 40
3.0
 40
3.0
 40
3.0
 40
4.0
 40
4.0
 40
4.0
 40
5.0
 40
5.0
 40
5.0
 40
6.0
 40
6.0
 40
6.0
 40
7.0
 40
7.0
 40
7.0
 40
8.0
 40
8.0
 40
8.0
 40
9.0
 40
9.0
 40
9.0
 40
10.0
 40
10.0
 40
10.0
 40
11.0
 40
11.0
 40
11.0
 40
12.0
 40
12.0
 40
12.0
 40
12.0
 10
51.59448818897638
 20
20.393700787401578
 30
0.0
 10
51.59448818897638
 20
20.355693709720267
 30
0.0
 10
51.57811357527776
 20
20.318348165661767
 30
0.0
 10
51.54701687535669
 20
20.285433070866144
 30
0.0
 10
51.51592017543562
 20
20.25251797607052
 30
0.0
 10
51.47118389885669
 20
20.225179140383396
 30
0.0
 10
51.41732283464567
 20
20.20617560154274
 30
0.0
 10
51.36346177043465
 20
20.187172062702086
 30
0.0
 10
51.3023508801571
 20
20.17716535433071
 30
0.0
 10
51.240157480314956
 20
20.17716535433071
 30
0.0
 10
51.17796408047281
 20
20.17716535433071
 30
0.0
 10
51.11685319019527
 20
20.187172062702086
 30
0.0
 10
51.06299212598425
 20
20.20617560154274
 30
0.0
 10
51.00913106177323
 20
20.225179140383396
 30
0.0
 10
50.9643947851943
 20
20.25251797607052
 30
0.0
 10
50.93329808527323
 20
20.285433070866144
 30
0.0
 10
50.90220138535216
 20
20.318348165661767
 30
0.0
 10
50.88582677165354
 20
20.355693709720267
 30
0.0
 10
50.88582677165354
 20
20.393700787401578
 30
0.0
 10
50.88582677165354
 20
20.431707865082885
 30
0.0
 10
50.90220138535216
 20
20.469053409141384
 30
0.0
 10
50.93329808527323
 20
20.501968503937007
 30
0.0
 10
50.9643947851943
 20
20.534883598732634
 30
0.0
 10
51.00913106177323
 20
20.562222434419756
 30
0.0
 10
51.06299212598425
 20
20.581225973260413
 30
0.0
 10
51.11685319019527
 20
20.600229512101066
 30
0.0
 10
51.17796408047281
 20
20.61023622047244
 30
0.0
 10
51.240157480314956
 20
20.61023622047244
 30
0.0
 10
51.3023508801571
 20
20.61023622047244
 30
0.0
 10
51.36346177043465
 20
20.600229512101066
 30
0.0
 10
51.41732283464567
 20
20.581225973260413
 30
0.0
 10
51.47118389885669
 20
20.562222434419756
 30
0.0
 10
51.51592017543562
 20
20.534883598732634
 30
0.0
 10
51.54701687535669
 20
20.501968503937007
 30
0.0
 10
51.57811357527776
 20
20.469053409141384
 30
0.0
 10
51.59448818897638
 20
20.431707865082885
 30
0.0
 10
51.59448818897638
 20
20.393700787401578
 30
0.0
  0
SPLINE
  5
109
330
17
100
AcDbEntity
  8
Carved drop
100
AcDbSpline
 70
0
 71
3
 72
41
 73
37
 74
0
 40
0.0
 40
0.0
 40
0.0
 40
0.0
 40
1.0
 40
1.0
 40
1.0
 40
2.0
 40
2.0
 40
2.0
 40
3.0
 40
3.0
 40
3.0
 40
4.0
 40
4.0
 40
4.0
 40
5.0
 40
5.0
 40
5.0
 40
6.0
 40
6.0
 40
6.0
 40
7.0
 40
7.0
 40
7.0
 40
8.0
 40
8.0
 40
8.0
 40
9.0
 40
9.0
 40
9.0
 40
10.0
 40
10.0
 40
10.0
 40
11.0
 40
11.0
 40
11.0
 40
12.0
 40
12.0
 40
12.0
 40
12.0
 10
52.30314960629921
 20
20.393700787401578
 30
0.0
 10
52.30314960629921
 20
20.355693709720267
 30
0.0
 10
52.2867749926006
 20
20.318348165661767
 30
0.0
 10
52.25567829267953
 20
20.285433070866144
 30
0.0
 10
52.224581592758454
 20
20.25251797607052
 30
0.0
 10
52.179845316179524
 20
20.225179140383396
 30
0.0
 10
52.125984251968504
 20
20.20617560154274
 30
0.0
 10
52.072123187757484
 20
20.187172062702086
 30
0.0
 10
52.01101229747994
 20
20.17716535433071
 30
0.0
 10
51.94881889763779
 20
20.17716535433071
 30
0.0
 10
51.88662549779565
 20
20.17716535433071
 30
0.0
 10
51.8255146075181
 20
20.187172062702086
 30
0.0
 10
51.77165354330708
 20
20.20617560154274
 30
0.0
 10
51.71779247909606
 20
20.225179140383396
 30
0.0
 10
51.67305620251714
 20
20.25251797607052
 30
0.0
 10
51.641959502596066
 20
20.285433070866144
 30
0.0
 10
51.610862802674994
 20
20.318348165661767
 30
0.0
 10
51.59448818897638
 20
20.355693709720267
 30
0.0
 10
51.59448818897638
 20
20.393700787401578
 30
0.0
 10
51.59448818897638
 20
20.431707865082885
 30
0.0
 10
51.610862802674994
 20
20.469053409141384
 30
0.0
 10
51.641959502596066
 20
20.501968503937007
 30
0.0
 10
51.67305620251714
 20
20.534883598732634
 30
0.0
 10
51.71779247909606
 20
20.562222434419756
 30
0.0
 10
51.77165354330708
 20
20.581225973260413
 30
0.0
 10
51.8255146075181
 20
20.600229512101066
 30
0.0
 10
51.88662549779565
 20
20.61023622047244
 30
0.0
 10
51.94881889763779
 20
20.61023622047244
 30
0.0
 10
52.01101229747994
 20
20.61023622047244
 30
0.0
 10
52.072123187757484
 20
20.600229512101066
 30
0.0
 10
52.125984251968504
 20
20.581225973260413
 30
0.0
 10
52.179845316179524
 20
20.562222434419756
 30
0.0
 10
52.224581592758454
 20
20.534883598732634
 30
0.0
 10
52.25567829267953
 20
20.501968503937007
 30
0.0
 10
52.2867749926006
 20
20.469053409141384
 30
0.0
 10
52.30314960629921
 20
20.431707865082885
 30
0.0
 10
52.30314960629921
 20
20.393700787401578
 30
0.0
  0
CIRCLE
  5
10A
330
17
100
AcDbEntity
  8
Carved drop
100
AcDbCircle
 10
51.59448818897638
 20
20.393700787401574
 30
0.0
 40
0.1377952755905512
  0
LWPOLYLINE
  5
10B
330
17
100
AcDbEntity
  8
Carved drop
100
AcDbPolyline
 90
2
 70
0
 10
51.51574803149606
 20
20.275590551181104
 10
51.27952755905512
 20
19.68503937007874
  0
LWPOLYLINE
  5
10C
330
17
100
AcDbEntity
  8
Carved drop
100
AcDbPolyline
 90
2
 70
0
 10
51.67322834645669
 20
20.275590551181104
 10
51.90944881889764
 20
19.68503937007874
  0
SPLINE
  5
10D
330
17
100
AcDbEntity
  8
Carved drop
100
AcDbSpline
 70
0
 71
3
 72
8
 73
4
 74
0
 40
0.0
 40
0.0
 40
0.0
 40
0.0
 40
1.0
 40
1.0
 40
1.0
 40
1.0
 10
51.59448818897638
 20
19.52755905511811
 30
0.0
 10
52.11417322834645
 20
19.52755905511811
 30
0.0
 10
52.06692913385827
 20
18.818897637795278
 30
0.0
 10
51.59448818897638
 20
18.440944881889767
 30
0.0
  0
SPLINE
  5
10E
330
17
100
AcDbEntity
  8
Carved drop
100
AcDbSpline
 70
0
 71
3
 72
8
 73
4
 74
0
 40
0.0
 40
0.0
 40
0.0
 40
0.0
 40
1.0
 40
1.0
 40
1.0
 40
1.0
 10
51.59448818897638
 20
18.440944881889767
 30
0.0
 10
51.12204724409449
 20
18.818897637795278
 30
0.0
 10
51.074803149606296
 20
19.52755905511811
 30
0.0
 10
51.59448818897638
 20
19.52755905511811
 30
0.0
  0
LWPOLYLINE
  5
10F
330
17
100
AcDbEntity
  8
Carved drop
100
AcDbPolyline
 90
2
 70
0
 10
51.59448818897638
 20
19.385826771653544
 10
51.59448818897638
 20
18.67716535433071
  0
SPLINE
  5
110
330
17
100
AcDbEntity
  8
Carved drop
100
AcDbSpline
 70
0
 71
3
 72
8
 73
4
 74
0
 40
0.0
 40
0.0
 40
0.0
 40
0.0
 40
1.0
 40
1.0
 40
1.0
 40
1.0
 10
51.386614173228345
 20
19.291338582677167
 30
0.0
 10
51.462204724409446
 20
19.070866141732285
 30
0.0
 10
51.531496062992126
 20
18.866141732283467
 30
0.0
 10
51.59448818897638
 20
18.67716535433071
 30
0.0
  0
SPLINE
  5
111
330
17
100
AcDbEntity
  8
Carved drop
100
AcDbSpline
 70
0
 71
3
 72
8
 73
4
 74
0
 40
0.0
 40
0.0
 40
0.0
 40
0.0
 40
1.0
 40
1.0
 40
1.0
 40
1.0
 10
51.80236220472441
 20
19.291338582677167
 30
0.0
 10
51.72677165354331
 20
19.070866141732285
 30
0.0
 10
51.65748031496063
 20
18.866141732283467
 30
0.0
 10
51.59448818897638
 20
18.67716535433071
 30
0.0
  0
CIRCLE
  5
112
330
17
100
AcDbEntity
  8
Carved drop
100
AcDbCircle
 10
51.59448818897638
 20
18.283464566929133
 30
0.0
 40
0.09842519685039369
  0
SPLINE
  5
113
330
17
100
AcDbEntity
  8
Carved drop
100
AcDbSpline
 70
0
 71
3
 72
8
 73
4
 74
0
 40
0.0
 40
0.0
 40
0.0
 40
0.0
 40
1.0
 40
1.0
 40
1.0
 40
1.0
 10
51.59448818897638
 20
18.086614173228348
 30
0.0
 10
52.06220472440945
 20
18.086614173228348
 30
0.0
 10
52.019685039370074
 20
17.448818897637796
 30
0.0
 10
51.59448818897638
 20
17.108661417322836
 30
0.0
  0
SPLINE
  5
114
330
17
100
AcDbEntity
  8
Carved drop
100
AcDbSpline
 70
0
 71
3
 72
8
 73
4
 74
0
 40
0.0
 40
0.0
 40
0.0
 40
0.0
 40
1.0
 40
1.0
 40
1.0
 40
1.0
 10
51.59448818897638
 20
17.108661417322836
 30
0.0
 10
51.169291338582674
 20
17.448818897637796
 30
0.0
 10
51.12677165354331
 20
18.086614173228348
 30
0.0
 10
51.59448818897638
 20
18.086614173228348
 30
0.0
  0
LWPOLYLINE
  5
115
330
17
100
AcDbEntity
  8
Carved drop
100
AcDbPolyline
 90
2
 70
0
 10
51.59448818897638
 20
17.95905511811024
 10
51.59448818897638
 20
17.321259842519687
  0
SPLINE
  5
116
330
17
100
AcDbEntity
  8
Carved drop
100
AcDbSpline
 70
0
 71
3
 72
8
 73
4
 74
0
 40
0.0
 40
0.0
 40
0.0
 40
0.0
 40
1.0
 40
1.0
 40
1.0
 40
1.0
 10
51.407401574803146
 20
17.874015748031496
 30
0.0
 10
51.47543307086614
 20
17.675590551181102
 30
0.0
 10
51.537795275590554
 20
17.491338582677166
 30
0.0
 10
51.59448818897638
 20
17.321259842519687
 30
0.0
  0
SPLINE
  5
117
330
17
100
AcDbEntity
  8
Carved drop
100
AcDbSpline
 70
0
 71
3
 72
8
 73
4
 74
0
 40
0.0
 40
0.0
 40
0.0
 40
0.0
 40
1.0
 40
1.0
 40
1.0
 40
1.0
 10
51.7815748031496
 20
17.874015748031496
 30
0.0
 10
51.71354330708661
 20
17.675590551181102
 30
0.0
 10
51.6511811023622
 20
17.491338582677166
 30
0.0
 10
51.59448818897638
 20
17.321259842519687
 30
0.0
  0
CIRCLE
  5
118
330
17
100
AcDbEntity
  8
Carved drop
100
AcDbCircle
 10
51.59448818897638
 20
16.951181102362206
 30
0.0
 40
0.09842519685039369
  0
SPLINE
  5
119
330
17
100
AcDbEntity
  8
Carved drop
100
AcDbSpline
 70
0
 71
3
 72
8
 73
4
 74
0
 40
0.0
 40
0.0
 40
0.0
 40
0.0
 40
1.0
 40
1.0
 40
1.0
 40
1.0
 10
51.59448818897638
 20
16.75433070866142
 30
0.0
 10
52.01543307086614
 20
16.75433070866142
 30
0.0
 10
51.97716535433071
 20
16.18031496062992
 30
0.0
 10
51.59448818897638
 20
15.874173228346457
 30
0.0
  0
SPLINE
  5
11A
330
17
100
AcDbEntity
  8
Carved drop
100
AcDbSpline
 70
0
 71
3
 72
8
 73
4
 74
0
 40
0.0
 40
0.0
 40
0.0
 40
0.0
 40
1.0
 40
1.0
 40
1.0
 40
1.0
 10
51.59448818897638
 20
15.874173228346457
 30
0.0
 10
51.21181102362205
 20
16.18031496062992
 30
0.0
 10
51.17354330708661
 20
16.75433070866142
 30
0.0
 10
51.59448818897638
 20
16.75433070866142
 30
0.0
  0
LWPOLYLINE
  5
11B
330
17
100
AcDbEntity
  8
Carved drop
100
AcDbPolyline
 90
2
 70
0
 10
51.59448818897638
 20
16.639527559055118
 10
51.59448818897638
 20
16.065511811023622
  0
SPLINE
  5
11C
330
17
100
AcDbEntity
  8
Carved drop
100
AcDbSpline
 70
0
 71
3
 72
8
 73
4
 74
0
 40
0.0
 40
0.0
 40
0.0
 40
0.0
 40
1.0
 40
1.0
 40
1.0
 40
1.0
 10
51.426110236220474
 20
16.562992125984252
 30
0.0
 10
51.48733858267717
 20
16.384409448818896
 30
0.0
 10
51.54346456692913
 20
16.218582677165355
 30
0.0
 10
51.59448818897638
 20
16.065511811023622
 30
0.0
  0
SPLINE
  5
11D
330
17
100
AcDbEntity
  8
Carved drop
100
AcDbSpline
 70
0
 71
3
 72
8
 73
4
 74
0
 40
0.0
 40
0.0
 40
0.0
 40
0.0
 40
1.0
 40
1.0
 40
1.0
 40
1.0
 10
51.76286614173228
 20
16.562992125984252
 30
0.0
 10
51.70163779527559
 20
16.384409448818896
 30
0.0
 10
51.645511811023624
 20
16.218582677165355
 30
0.0
 10
51.59448818897638
 20
16.065511811023622
 30
0.0
  0
CIRCLE
  5
11E
330
17
100
AcDbEntity
  8
Carved drop
100
AcDbCircle
 10
51.59448818897638
 20
15.716692913385828
 30
0.0
 40
0.09842519685039369
  0
SPLINE
  5
11F
330
17
100
AcDbEntity
  8
Carved drop
100
AcDbSpline
 70
0
 71
3
 72
8
 73
4
 74
0
 40
0.0
 40
0.0
 40
0.0
 40
0.0
 40
1.0
 40
1.0
 40
1.0
 40
1.0
 10
51.59448818897638
 20
15.519842519685042
 30
0.0
 10
51.973338582677165
 20
15.519842519685042
 30
0.0
 10
51.93889763779527
 20
15.003228346456694
 30
0.0
 10
51.59448818897638
 20
14.727700787401577
 30
0.0
  0
SPLINE
  5
120
330
17
100
AcDbEntity
  8
Carved drop
100
AcDbSpline
 70
0
 71
3
 72
8
 73
4
 74
0
 40
0.0
 40
0.0
 40
0.0
 40
0.0
 40
1.0
 40
1.0
 40
1.0
 40
1.0
 10
51.59448818897638
 20
14.727700787401577
 30
0.0
 10
51.25007874015748
 20
15.003228346456694
 30
0.0
 10
51.21563779527559
 20
15.519842519685042
 30
0.0
 10
51.59448818897638
 20
15.519842519685042
 30
0.0
  0
LWPOLYLINE
  5
121
330
17
100
AcDbEntity
  8
Carved drop
100
AcDbPolyline
 90
2
 70
0
 10
51.59448818897638
 20
15.416519685039372
 10
51.59448818897638
 20
14.899905511811026
  0
SPLINE
  5
122
330
17
100
AcDbEntity
  8
Carved drop
100
AcDbSpline
 70
0
 71
3
 72
8
 73
4
 74
0
 40
0.0
 40
0.0
 40
0.0
 40
0.0
 40
1.0
 40
1.0
 40
1.0
 40
1.0
 10
51.44294803149606
 20
15.347637795275592
 30
0.0
 10
51.49805354330709
 20
15.186913385826774
 30
0.0
 10
51.548566929133855
 20
15.037669291338585
 30
0.0
 10
51.59448818897638
 20
14.899905511811026
 30
0.0
  0
SPLINE
  5
123
330
17
100
AcDbEntity
  8
Carved drop
100
AcDbSpline
 70
0
 71
3
 72
8
 73
4
 74
0
 40
0.0
 40
0.0
 40
0.0
 40
0.0
 40
1.0
 40
1.0
 40
1.0
 40
1.0
 10
51.74602834645669
 20
15.347637795275592
 30
0.0
 10
51.69092283464567
 20
15.186913385826774
 30
0.0
 10
51.6404094488189
 20
15.037669291338585
 30
0.0
 10
51.59448818897638
 20
14.899905511811026
 30
0.0
  0
CIRCLE
  5
124
330
17
100
AcDbEntity
  8
Carved drop
100
AcDbCircle
 10
51.59448818897638
 20
14.570220472440946
 30
0.0
 40
0.09842519685039369
  0
SPLINE
  5
125
330
17
100
AcDbEntity
  8
Carved drop
100
AcDbSpline
 70
0
 71
3
 72
8
 73
4
 74
0
 40
0.0
 40
0.0
 40
0.0
 40
0.0
 40
1.0
 40
1.0
 40
1.0
 40
1.0
 10
51.59448818897638
 20
14.373370078740159
 30
0.0
 10
51.935453543307084
 20
14.373370078740159
 30
0.0
 10
51.904456692913385
 20
13.908417322834648
 30
0.0
 10
51.59448818897638
 20
13.660442519685041
 30
0.0
  0
SPLINE
  5
126
330
17
100
AcDbEntity
  8
Carved drop
100
AcDbSpline
 70
0
 71
3
 72
8
 73
4
 74
0
 40
0.0
 40
0.0
 40
0.0
 40
0.0
 40
1.0
 40
1.0
 40
1.0
 40
1.0
 10
51.59448818897638
 20
13.660442519685041
 30
0.0
 10
51.28451968503937
 20
13.908417322834648
 30
0.0
 10
51.253522834645665
 20
14.373370078740159
 30
0.0
 10
51.59448818897638
 20
14.373370078740159
 30
0.0
  0
LWPOLYLINE
  5
127
330
17
100
AcDbEntity
  8
Carved drop
100
AcDbPolyline
 90
2
 70
0
 10
51.59448818897638
 20
14.280379527559056
 10
51.59448818897638
 20
13.815426771653545
  0
SPLINE
  5
128
330
17
100
AcDbEntity
  8
Carved drop
100
AcDbSpline
 70
0
 71
3
 72
8
 73
4
 74
0
 40
0.0
 40
0.0
 40
0.0
 40
0.0
 40
1.0
 40
1.0
 40
1.0
 40
1.0
 10
51.45810204724409
 20
14.218385826771655
 30
0.0
 10
51.507697007874015
 20
14.073733858267719
 30
0.0
 10
51.55315905511811
 20
13.939414173228348
 30
0.0
 10
51.59448818897638
 20
13.815426771653545
 30
0.0
  0
SPLINE
  5
129
330
17
100
AcDbEntity
  8
Carved drop
100
AcDbSpline
 70
0
 71
3
 72
8
 73
4
 74
0
 40
0.0
 40
0.0
 40
0.0
 40
0.0
 40
1.0
 40
1.0
 40
1.0
 40
1.0
 10
51.73087433070866
 20
14.218385826771655
 30
0.0
 10
51.681279370078734
 20
14.073733858267719
 30
0.0
 10
51.63581732283464
 20
13.939414173228348
 30
0.0
 10
51.59448818897638
 20
13.815426771653545
 30
0.0
  0
CIRCLE
  5
12A
330
17
100
AcDbEntity
  8
Carved drop
100
AcDbCircle
 10
51.59448818897638
 20
13.502962204724408
 30
0.0
 40
0.09842519685039369
  0
SPLINE
  5
12B
330
17
100
AcDbEntity
  8
Carved drop
100
AcDbSpline
 70
0
 71
3
 72
8
 73
4
 74
0
 40
0.0
 40
0.0
 40
0.0
 40
0.0
 40
1.0
 40
1.0
 40
1.0
 40
1.0
 10
51.59448818897638
 20
13.306111811023623
 30
0.0
 10
51.90135700787401
 20
13.306111811023623
 30
0.0
 10
51.873459842519686
 20
12.887654330708664
 30
0.0
 10
51.59448818897638
 20
12.664477007874018
 30
0.0
  0
SPLINE
  5
12C
330
17
100
AcDbEntity
  8
Carved drop
100
AcDbSpline
 70
0
 71
3
 72
8
 73
4
 74
0
 40
0.0
 40
0.0
 40
0.0
 40
0.0
 40
1.0
 40
1.0
 40
1.0
 40
1.0
 10
51.59448818897638
 20
12.664477007874018
 30
0.0
 10
51.31551653543307
 20
12.887654330708664
 30
0.0
 10
51.28761937007874
 20
13.306111811023623
 30
0.0
 10
51.59448818897638
 20
13.306111811023623
 30
0.0
  0
LWPOLYLINE
  5
12D
330
17
100
AcDbEntity
  8
Carved drop
100
AcDbPolyline
 90
2
 70
0
 10
51.59448818897638
 20
13.222420314960631
 10
51.59448818897638
 20
12.803962834645672
  0
SPLINE
  5
12E
330
17
100
AcDbEntity
  8
Carved drop
100
AcDbSpline
 70
0
 71
3
 72
8
 73
4
 74
0
 40
0.0
 40
0.0
 40
0.0
 40
0.0
 40
1.0
 40
1.0
 40
1.0
 40
1.0
 10
51.47174066141732
 20
13.16662598425197
 30
0.0
 10
51.51637612598425
 20
13.036439212598427
 30
0.0
 10
51.55729196850393
 20
12.915551496062996
 30
0.0
 10
51.59448818897638
 20
12.803962834645672
 30
0.0
  0
SPLINE
  5
12F
330
17
100
AcDbEntity
  8
Carved drop
100
AcDbSpline
 70
0
 71
3
 72
8
 73
4
 74
0
 40
0.0
 40
0.0
 40
0.0
 40
0.0
 40
1.0
 40
1.0
 40
1.0
 40
1.0
 10
51.717235716535434
 20
13.16662598425197
 30
0.0
 10
51.672600251968504
 20
13.036439212598427
 30
0.0
 10
51.631684409448816
 20
12.915551496062996
 30
0.0
 10
51.59448818897638
 20
12.803962834645672
 30
0.0
  0
CIRCLE
  5
130
330
17
100
AcDbEntity
  8
Carved drop
100
AcDbCircle
 10
51.59448818897638
 20
12.506996692913386
 30
0.0
 40
0.09842519685039369
  0
SPLINE
  5
131
330
17
100
AcDbEntity
  8
Carved drop
100
AcDbSpline
 70
0
 71
3
 72
8
 73
4
 74
0
 40
0.0
 40
0.0
 40
0.0
 40
0.0
 40
1.0
 40
1.0
 40
1.0
 40
1.0
 10
51.59448818897638
 20
12.3101462992126
 30
0.0
 10
51.87067012598425
 20
12.3101462992126
 30
0.0
 10
51.845562677165354
 20
11.933534566929136
 30
0.0
 10
51.59448818897638
 20
11.732674976377954
 30
0.0
  0
SPLINE
  5
132
330
17
100
AcDbEntity
  8
Carved drop
100
AcDbSpline
 70
0
 71
3
 72
8
 73
4
 74
0
 40
0.0
 40
0.0
 40
0.0
 40
0.0
 40
1.0
 40
1.0
 40
1.0
 40
1.0
 10
51.59448818897638
 20
11.732674976377954
 30
0.0
 10
51.3434137007874
 20
11.933534566929136
 30
0.0
 10
51.3183062519685
 20
12.3101462992126
 30
0.0
 10
51.59448818897638
 20
12.3101462992126
 30
0.0
  0
LWPOLYLINE
  5
133
330
17
100
AcDbEntity
  8
Carved drop
100
AcDbPolyline
 90
2
 70
0
 10
51.59448818897638
 20
12.234823952755908
 10
51.59448818897638
 20
11.858212220472442
  0
SPLINE
  5
134
330
17
100
AcDbEntity
  8
Carved drop
100
AcDbSpline
 70
0
 71
3
 72
8
 73
4
 74
0
 40
0.0
 40
0.0
 40
0.0
 40
0.0
 40
1.0
 40
1.0
 40
1.0
 40
1.0
 10
51.48401541417323
 20
12.184609055118111
 30
0.0
 10
51.52418733228347
 20
12.067440960629924
 30
0.0
 10
51.56101159055118
 20
11.958642015748033
 30
0.0
 10
51.59448818897638
 20
11.858212220472442
 30
0.0
  0
SPLINE
  5
135
330
17
100
AcDbEntity
  8
Carved drop
100
AcDbSpline
 70
0
 71
3
 72
8
 73
4
 74
0
 40
0.0
 40
0.0
 40
0.0
 40
0.0
 40
1.0
 40
1.0
 40
1.0
 40
1.0
 10
51.70496096377953
 20
12.184609055118111
 30
0.0
 10
51.66478904566929
 20
12.067440960629924
 30
0.0
 10
51.627964787401574
 20
11.958642015748033
 30
0.0
 10
51.59448818897638
 20
11.858212220472442
 30
0.0
  0
CIRCLE
  5
136
330
17
100
AcDbEntity
  8
Carved drop
100
AcDbCircle
 10
51.59448818897638
 20
11.575194661417322
 30
0.0
 40
0.09842519685039369
  0
SPLINE
  5
137
330
17
100
AcDbEntity
  8
Carved drop
100
AcDbSpline
 70
0
 71
3
 72
8
 73
4
 74
0
 40
0.0
 40
0.0
 40
0.0
 40
0.0
 40
1.0
 40
1.0
 40
1.0
 40
1.0
 10
51.59448818897638
 20
11.378344267716537
 30
0.0
 10
51.843051932283466
 20
11.378344267716537
 30
0.0
 10
51.820455228346454
 20
11.039393708661418
 30
0.0
 10
51.59448818897638
 20
10.858620077165357
 30
0.0
  0
SPLINE
  5
138
330
17
100
AcDbEntity
  8
Carved drop
100
AcDbSpline
 70
0
 71
3
 72
8
 73
4
 74
0
 40
0.0
 40
0.0
 40
0.0
 40
0.0
 40
1.0
 40
1.0
 40
1.0
 40
1.0
 10
51.59448818897638
 20
10.858620077165357
 30
0.0
 10
51.368521149606295
 20
11.039393708661418
 30
0.0
 10
51.34592444566929
 20
11.378344267716537
 30
0.0
 10
51.59448818897638
 20
11.378344267716537
 30
0.0
  0
LWPOLYLINE
  5
139
330
17
100
AcDbEntity
  8
Carved drop
100
AcDbPolyline
 90
2
 70
0
 10
51.59448818897638
 20
11.310554155905512
 10
51.59448818897638
 20
10.971603596850395
  0
SPLINE
  5
13A
330
17
100
AcDbEntity
  8
Carved drop
100
AcDbSpline
 70
0
 71
3
 72
8
 73
4
 74
0
 40
0.0
 40
0.0
 40
0.0
 40
0.0
 40
1.0
 40
1.0
 40
1.0
 40
1.0
 10
51.495062691653544
 20
11.265360748031497
 30
0.0
 10
51.53121741795275
 20
11.159909462992127
 30
0.0
 10
51.5643592503937
 20
11.061990412598426
 30
0.0
 10
51.59448818897638
 20
10.971603596850395
 30
0.0
  0
SPLINE
  5
13B
330
17
100
AcDbEntity
  8
Carved drop
100
AcDbSpline
 70
0
 71
3
 72
8
 73
4
 74
0
 40
0.0
 40
0.0
 40
0.0
 40
0.0
 40
1.0
 40
1.0
 40
1.0
 40
1.0
 10
51.69391368629921
 20
11.265360748031497
 30
0.0
 10
51.65775896
 20
11.159909462992127
 30
0.0
 10
51.624617127559056
 20
11.061990412598426
 30
0.0
 10
51.59448818897638
 20
10.971603596850395
 30
0.0
  0
CIRCLE
  5
13C
330
17
100
AcDbEntity
  8
Carved drop
100
AcDbCircle
 10
51.59448818897638
 20
10.701139762204724
 30
0.0
 40
0.09842519685039369
  0
SPLINE
  5
13D
330
17
100
AcDbEntity
  8
Carved drop
100
AcDbSpline
 70
0
 71
3
 72
8
 73
4
 74
0
 40
0.0
 40
0.0
 40
0.0
 40
0.0
 40
1.0
 40
1.0
 40
1.0
 40
1.0
 10
51.59448818897638
 20
10.504289368503938
 30
0.0
 10
51.818195557952755
 20
10.504289368503938
 30
0.0
 10
51.79785852440945
 20
10.199233865354332
 30
0.0
 10
51.59448818897638
 20
10.036537597007875
 30
0.0
  0
SPLINE
  5
13E
330
17
100
AcDbEntity
  8
Carved drop
100
AcDbSpline
 70
0
 71
3
 72
8
 73
4
 74
0
 40
0.0
 40
0.0
 40
0.0
 40
0.0
 40
1.0
 40
1.0
 40
1.0
 40
1.0
 10
51.59448818897638
 20
10.036537597007875
 30
0.0
 10
51.39111785354331
 20
10.199233865354332
 30
0.0
 10
51.37078082
 20
10.504289368503938
 30
0.0
 10
51.59448818897638
 20
10.504289368503938
 30
0.0
  0
LWPOLYLINE
  5
13F
330
17
100
AcDbEntity
  8
Carved drop
100
AcDbPolyline
 90
2
 70
0
 10
51.59448818897638
 20
10.44327826787402
 10
51.59448818897638
 20
10.13822276472441
  0
SPLINE
  5
140
330
17
100
AcDbEntity
  8
Carved drop
100
AcDbSpline
 70
0
 71
3
 72
8
 73
4
 74
0
 40
0.0
 40
0.0
 40
0.0
 40
0.0
 40
1.0
 40
1.0
 40
1.0
 40
1.0
 10
51.505005241385824
 20
10.402604200787403
 30
0.0
 10
51.537544495055116
 20
10.30769804425197
 30
0.0
 10
51.56737214425197
 20
10.219570898897638
 30
0.0
 10
51.59448818897638
 20
10.13822276472441
 30
0.0
  0
SPLINE
  5
141
330
17
100
AcDbEntity
  8
Carved drop
100
AcDbSpline
 70
0
 71
3
 72
8
 73
4
 74
0
 40
0.0
 40
0.0
 40
0.0
 40
0.0
 40
1.0
 40
1.0
 40
1.0
 40
1.0
 10
51.683971136566925
 20
10.402604200787403
 30
0.0
 10
51.65143188289763
 20
10.30769804425197
 30
0.0
 10
51.621604233700786
 20
10.219570898897638
 30
0.0
 10
51.59448818897638
 20
10.13822276472441
 30
0.0
  0
CIRCLE
  5
142
330
17
100
AcDbEntity
  8
Carved drop
100
AcDbCircle
 10
51.59448818897638
 20
9.879057282047244
 30
0.0
 40
0.09842519685039369
  0
SPLINE
  5
143
330
17
100
AcDbEntity
  8
Carved drop
100
AcDbSpline
 70
0
 71
3
 72
8
 73
4
 74
0
 40
0.0
 40
0.0
 40
0.0
 40
0.0
 40
1.0
 40
1.0
 40
1.0
 40
1.0
 10
51.59448818897638
 20
9.682206888346458
 30
0.0
 10
51.79582482105511
 20
9.682206888346458
 30
0.0
 10
51.77752149086614
 20
9.407656935511813
 30
0.0
 10
51.59448818897638
 20
9.261230294
 30
0.0
  0
SPLINE
  5
144
330
17
100
AcDbEntity
  8
Carved drop
100
AcDbSpline
 70
0
 71
3
 72
8
 73
4
 74
0
 40
0.0
 40
0.0
 40
0.0
 40
0.0
 40
1.0
 40
1.0
 40
1.0
 40
1.0
 10
51.59448818897638
 20
9.261230294
 30
0.0
 10
51.41145488708661
 20
9.407656935511813
 30
0.0
 10
51.393151556897635
 20
9.682206888346458
 30
0.0
 10
51.59448818897638
 20
9.682206888346458
 30
0.0
  0
LWPOLYLINE
  5
145
330
17
100
AcDbEntity
  8
Carved drop
100
AcDbPolyline
 90
2
 70
0
 10
51.59448818897638
 20
9.627296897779528
 10
51.59448818897638
 20
9.352746944944885
  0
SPLINE
  5
146
330
17
100
AcDbEntity
  8
Carved drop
100
AcDbSpline
 70
0
 71
3
 72
8
 73
4
 74
0
 40
0.0
 40
0.0
 40
0.0
 40
0.0
 40
1.0
 40
1.0
 40
1.0
 40
1.0
 10
51.51395353614488
 20
9.590690237401576
 30
0.0
 10
51.54323886444724
 20
9.505274696519688
 30
0.0
 10
51.57008374872441
 20
9.425960265700791
 30
0.0
 10
51.59448818897638
 20
9.352746944944885
 30
0.0
  0
SPLINE
  5
147
330
17
100
AcDbEntity
  8
Carved drop
100
AcDbSpline
 70
0
 71
3
 72
8
 73
4
 74
0
 40
0.0
 40
0.0
 40
0.0
 40
0.0
 40
1.0
 40
1.0
 40
1.0
 40
1.0
 10
51.67502284180787
 20
9.590690237401576
 30
0.0
 10
51.64573751350551
 20
9.505274696519688
 30
0.0
 10
51.61889262922834
 20
9.425960265700791
 30
0.0
 10
51.59448818897638
 20
9.352746944944885
 30
0.0
  0
CIRCLE
  5
148
330
17
100
AcDbEntity
  8
Carved drop
100
AcDbCircle
 10
51.59448818897638
 20
9.10374997903937
 30
0.0
 40
0.09842519685039369
  0
SPLINE
  5
149
330
17
100
AcDbEntity
  8
Carved drop
100
AcDbSpline
 70
0
 71
3
 72
8
 73
4
 74
0
 40
0.0
 40
0.0
 40
0.0
 40
0.0
 40
1.0
 40
1.0
 40
1.0
 40
1.0
 10
51.59448818897638
 20
8.906899585338584
 30
0.0
 10
51.77569115784724
 20
8.906899585338584
 30
0.0
 10
51.759218160677165
 20
8.659804627787404
 30
0.0
 10
51.59448818897638
 20
8.528020650426772
 30
0.0
  0
SPLINE
  5
14A
330
17
100
AcDbEntity
  8
Carved drop
100
AcDbSpline
 70
0
 71
3
 72
8
 73
4
 74
0
 40
0.0
 40
0.0
 40
0.0
 40
0.0
 40
1.0
 40
1.0
 40
1.0
 40
1.0
 10
51.59448818897638
 20
8.528020650426772
 30
0.0
 10
51.42975821727559
 20
8.659804627787404
 30
0.0
 10
51.41328522010551
 20
8.906899585338584
 30
0.0
 10
51.59448818897638
 20
8.906899585338584
 30
0.0
  0
LWPOLYLINE
  5
14B
330
17
100
AcDbEntity
  8
Carved drop
100
AcDbPolyline
 90
2
 70
0
 10
51.59448818897638
 20
8.857480593828349
 10
51.59448818897638
 20
8.610385636277167
  0
SPLINE
  5
14C
330
17
100
AcDbEntity
  8
Carved drop
100
AcDbSpline
 70
0
 71
3
 72
8
 73
4
 74
0
 40
0.0
 40
0.0
 40
0.0
 40
0.0
 40
1.0
 40
1.0
 40
1.0
 40
1.0
 10
51.52200700142803
 20
8.82453459948819
 30
0.0
 10
51.548363796900155
 20
8.747660612694489
 30
0.0
 10
51.572524192749604
 20
8.676277624957482
 30
0.0
 10
51.59448818897638
 20
8.610385636277167
 30
0.0
  0
SPLINE
  5
14D
330
17
100
AcDbEntity
  8
Carved drop
100
AcDbSpline
 70
0
 71
3
 72
8
 73
4
 74
0
 40
0.0
 40
0.0
 40
0.0
 40
0.0
 40
1.0
 40
1.0
 40
1.0
 40
1.0
 10
51.666969376524726
 20
8.82453459948819
 30
0.0
 10
51.640612581052594
 20
8.747660612694489
 30
0.0
 10
51.616452185203144
 20
8.676277624957482
 30
0.0
 10
51.59448818897638
 20
8.610385636277167
 30
0.0
  0
CIRCLE
  5
14E
330
17
100
AcDbEntity
  8
Carved drop
100
AcDbCircle
 10
51.59448818897638
 20
8.37054033546614
 30
0.0
 40
0.09842519685039369
  0
SPLINE
  5
14F
330
17
100
AcDbEntity
  8
Carved drop
100
AcDbSpline
 70
0
 71
3
 72
8
 73
4
 74
0
 40
0.0
 40
0.0
 40
0.0
 40
0.0
 40
1.0
 40
1.0
 40
1.0
 40
1.0
 10
51.59448818897638
 20
8.173689941765355
 30
0.0
 10
51.75757086096016
 20
8.173689941765355
 30
0.0
 10
51.74274516350709
 20
7.951304479969291
 30
0.0
 10
51.59448818897638
 20
7.832698900344726
 30
0.0
  0
SPLINE
  5
150
330
17
100
AcDbEntity
  8
Carved drop
100
AcDbSpline
 70
0
 71
3
 72
8
 73
4
 74
0
 40
0.0
 40
0.0
 40
0.0
 40
0.0
 40
1.0
 40
1.0
 40
1.0
 40
1.0
 10
51.59448818897638
 20
7.832698900344726
 30
0.0
 10
51.44623121444567
 20
7.951304479969291
 30
0.0
 10
51.4314055169926
 20
8.173689941765355
 30
0.0
 10
51.59448818897638
 20
8.173689941765355
 30
0.0
  0
LWPOLYLINE
  5
151
330
17
100
AcDbEntity
  8
Carved drop
100
AcDbPolyline
 90
2
 70
0
 10
51.59448818897638
 20
8.12921284940614
 10
51.59448818897638
 20
7.906827387610079
  0
SPLINE
  5
152
330
17
100
AcDbEntity
  8
Carved drop
100
AcDbSpline
 70
0
 71
3
 72
8
 73
4
 74
0
 40
0.0
 40
0.0
 40
0.0
 40
0.0
 40
1.0
 40
1.0
 40
1.0
 40
1.0
 10
51.52925512018287
 20
8.099561454500002
 30
0.0
 10
51.552976236107774
 20
8.030374866385669
 30
0.0
 10
51.57472059237228
 20
7.966130177422362
 30
0.0
 10
51.59448818897638
 20
7.906827387610079
 30
0.0
  0
SPLINE
  5
153
330
17
100
AcDbEntity
  8
Carved drop
100
AcDbSpline
 70
0
 71
3
 72
8
 73
4
 74
0
 40
0.0
 40
0.0
 40
0.0
 40
0.0
 40
1.0
 40
1.0
 40
1.0
 40
1.0
 10
51.65972125776989
 20
8.099561454500002
 30
0.0
 10
51.636000141844974
 20
8.030374866385669
 30
0.0
 10
51.61425578558047
 20
7.966130177422362
 30
0.0
 10
51.59448818897638
 20
7.906827387610079
 30
0.0
  0
CIRCLE
  5
154
330
17
100
AcDbEntity
  8
Carved drop
100
AcDbCircle
 10
51.59448818897638
 20
7.675218585384094
 30
0.0
 40
0.09842519685039369
  0
TEXT
  5
155
330
17
100
AcDbEntity
  8
LABELS
100
AcDbText
 10
50.41338582677165
 20
23.62204724409449
 30
0.0
 40
0.7086614173228346
  1
CARVED DROP  (1:1, inches)
 11
50.41338582677165
 21
23.62204724409449
 31
0.0
100
AcDbText
  0
SPLINE
  5
158
330
17
100
AcDbEntity
  8
Pedestal ornament
100
AcDbSpline
 70
0
 71
3
 72
8
 73
4
 74
0
 40
0.0
 40
0.0
 40
0.0
 40
0.0
 40
1.0
 40
1.0
 40
1.0
 40
1.0
 10
66.24015748031496
 20
2.322834645669291
 30
0.0
 10
67.34251968503936
 20
3.5826771653543306
 30
0.0
 10
68.83858267716535
 20
2.637795275590551
 30
0.0
 10
68.20866141732283
 20
1.6929133858267715
 30
0.0
  0
SPLINE
  5
159
330
17
100
AcDbEntity
  8
Pedestal ornament
100
AcDbSpline
 70
0
 71
3
 72
8
 73
4
 74
0
 40
0.0
 40
0.0
 40
0.0
 40
0.0
 40
1.0
 40
1.0
 40
1.0
 40
1.0
 10
68.20866141732283
 20
1.6929133858267715
 30
0.0
 10
67.81496062992126
 20
1.141732283464567
 30
0.0
 10
67.10629921259842
 20
1.6141732283464565
 30
0.0
 10
67.5
 20
2.0866141732283463
 30
0.0
  0
SPLINE
  5
15A
330
17
100
AcDbEntity
  8
Pedestal ornament
100
AcDbSpline
 70
0
 71
3
 72
8
 73
4
 74
0
 40
0.0
 40
0.0
 40
0.0
 40
0.0
 40
1.0
 40
1.0
 40
1.0
 40
1.0
 10
66.55511811023622
 20
2.7165354330708658
 30
0.0
 10
67.26377952755905
 20
3.267716535433071
 30
0.0
 10
68.20866141732283
 20
2.795275590551181
 30
0.0
 10
68.12992125984252
 20
2.0866141732283463
 30
0.0
  0
SPLINE
  5
15B
330
17
100
AcDbEntity
  8
Pedestal ornament
100
AcDbSpline
 70
0
 71
3
 72
8
 73
4
 74
0
 40
0.0
 40
0.0
 40
0.0
 40
0.0
 40
1.0
 40
1.0
 40
1.0
 40
1.0
 10
66.31889763779527
 20
1.8503937007874014
 30
0.0
 10
66.94881889763779
 20
0.905511811023622
 30
0.0
 10
68.12992125984252
 20
0.590551181102362
 30
0.0
 10
68.91732283464566
 20
0.905511811023622
 30
0.0
  0
SPLINE
  5
15C
330
17
100
AcDbEntity
  8
Pedestal ornament
100
AcDbSpline
 70
0
 71
3
 72
8
 73
4
 74
0
 40
0.0
 40
0.0
 40
0.0
 40
0.0
 40
1.0
 40
1.0
 40
1.0
 40
1.0
 10
68.91732283464566
 20
0.905511811023622
 30
0.0
 10
68.28740157480314
 20
1.141732283464567
 30
0.0
 10
67.34251968503936
 20
1.2992125984251968
 30
0.0
 10
66.71259842519684
 20
2.0078740157480315
 30
0.0
  0
SPLINE
  5
15D
330
17
100
AcDbEntity
  8
Pedestal ornament
100
AcDbSpline
 70
0
 71
3
 72
8
 73
4
 74
0
 40
0.0
 40
0.0
 40
0.0
 40
0.0
 40
1.0
 40
1.0
 40
1.0
 40
1.0
 10
65.76771653543307
 20
2.952755905511811
 30
0.0
 10
66.16141732283464
 20
3.6614173228346454
 30
0.0
 10
66.94881889763779
 20
3.5039370078740157
 30
0.0
 10
66.4763779527559
 20
3.1102362204724407
 30
0.0
  0
SPLINE
  5
15E
330
17
100
AcDbEntity
  8
Pedestal ornament
100
AcDbSpline
 70
0
 71
3
 72
8
 73
4
 74
0
 40
0.0
 40
0.0
 40
0.0
 40
0.0
 40
1.0
 40
1.0
 40
1.0
 40
1.0
 10
66.4763779527559
 20
3.1102362204724407
 30
0.0
 10
66.16141732283464
 20
2.874015748031496
 30
0.0
 10
65.9251968503937
 20
2.952755905511811
 30
0.0
 10
65.76771653543307
 20
2.952755905511811
 30
0.0
  0
SPLINE
  5
15F
330
17
100
AcDbEntity
  8
Pedestal ornament
100
AcDbSpline
 70
0
 71
3
 72
8
 73
4
 74
0
 40
0.0
 40
0.0
 40
0.0
 40
0.0
 40
1.0
 40
1.0
 40
1.0
 40
1.0
 10
65.29527559055117
 20
2.322834645669291
 30
0.0
 10
64.19291338582677
 20
3.5826771653543306
 30
0.0
 10
62.696850393700785
 20
2.637795275590551
 30
0.0
 10
63.326771653543304
 20
1.6929133858267715
 30
0.0
  0
SPLINE
  5
160
330
17
100
AcDbEntity
  8
Pedestal ornament
100
AcDbSpline
 70
0
 71
3
 72
8
 73
4
 74
0
 40
0.0
 40
0.0
 40
0.0
 40
0.0
 40
1.0
 40
1.0
 40
1.0
 40
1.0
 10
63.326771653543304
 20
1.6929133858267715
 30
0.0
 10
63.720472440944874
 20
1.141732283464567
 30
0.0
 10
64.42913385826772
 20
1.6141732283464565
 30
0.0
 10
64.03543307086613
 20
2.0866141732283463
 30
0.0
  0
SPLINE
  5
161
330
17
100
AcDbEntity
  8
Pedestal ornament
100
AcDbSpline
 70
0
 71
3
 72
8
 73
4
 74
0
 40
0.0
 40
0.0
 40
0.0
 40
0.0
 40
1.0
 40
1.0
 40
1.0
 40
1.0
 10
64.98031496062991
 20
2.7165354330708658
 30
0.0
 10
64.27165354330708
 20
3.267716535433071
 30
0.0
 10
63.326771653543304
 20
2.795275590551181
 30
0.0
 10
63.405511811023615
 20
2.0866141732283463
 30
0.0
  0
SPLINE
  5
162
330
17
100
AcDbEntity
  8
Pedestal ornament
100
AcDbSpline
 70
0
 71
3
 72
8
 73
4
 74
0
 40
0.0
 40
0.0
 40
0.0
 40
0.0
 40
1.0
 40
1.0
 40
1.0
 40
1.0
 10
65.21653543307086
 20
1.8503937007874014
 30
0.0
 10
64.58661417322834
 20
0.905511811023622
 30
0.0
 10
63.405511811023615
 20
0.590551181102362
 30
0.0
 10
62.61811023622047
 20
0.905511811023622
 30
0.0
  0
SPLINE
  5
163
330
17
100
AcDbEntity
  8
Pedestal ornament
100
AcDbSpline
 70
0
 71
3
 72
8
 73
4
 74
0
 40
0.0
 40
0.0
 40
0.0
 40
0.0
 40
1.0
 40
1.0
 40
1.0
 40
1.0
 10
62.61811023622047
 20
0.905511811023622
 30
0.0
 10
63.248031496062985
 20
1.141732283464567
 30
0.0
 10
64.19291338582677
 20
1.2992125984251968
 30
0.0
 10
64.82283464566929
 20
2.0078740157480315
 30
0.0
  0
SPLINE
  5
164
330
17
100
AcDbEntity
  8
Pedestal ornament
100
AcDbSpline
 70
0
 71
3
 72
8
 73
4
 74
0
 40
0.0
 40
0.0
 40
0.0
 40
0.0
 40
1.0
 40
1.0
 40
1.0
 40
1.0
 10
65.76771653543307
 20
2.952755905511811
 30
0.0
 10
65.3740157480315
 20
3.6614173228346454
 30
0.0
 10
64.58661417322834
 20
3.5039370078740157
 30
0.0
 10
65.05905511811024
 20
3.1102362204724407
 30
0.0
  0
SPLINE
  5
165
330
17
100
AcDbEntity
  8
Pedestal ornament
100
AcDbSpline
 70
0
 71
3
 72
8
 73
4
 74
0
 40
0.0
 40
0.0
 40
0.0
 40
0.0
 40
1.0
 40
1.0
 40
1.0
 40
1.0
 10
65.05905511811024
 20
3.1102362204724407
 30
0.0
 10
65.3740157480315
 20
2.874015748031496
 30
0.0
 10
65.61023622047243
 20
2.952755905511811
 30
0.0
 10
65.76771653543307
 20
2.952755905511811
 30
0.0
  0
CIRCLE
  5
166
330
17
100
AcDbEntity
  8
Pedestal ornament
100
AcDbCircle
 10
65.76771653543307
 20
2.322834645669291
 30
0.0
 40
0.4330708661417323
  0
CIRCLE
  5
167
330
17
100
AcDbEntity
  8
Pedestal ornament
100
AcDbCircle
 10
65.76771653543307
 20
2.322834645669291
 30
0.0
 40
0.19685039370078738
  0
LINE
  5
168
330
17
100
AcDbEntity
  8
Pedestal ornament
100
AcDbLine
 10
65.96456692913385
 20
2.322834645669291
 30
0.0
 11
66.2007874015748
 21
2.322834645669291
 31
0.0
  0
LINE
  5
169
330
17
100
AcDbEntity
  8
Pedestal ornament
100
AcDbLine
 10
65.90708661417322
 20
2.1834645669291337
 30
0.0
 11
66.0740157480315
 21
2.016535433070866
 31
0.0
  0
LINE
  5
16A
330
17
100
AcDbEntity
  8
Pedestal ornament
100
AcDbLine
 10
65.76771653543307
 20
2.1259842519685037
 30
0.0
 11
65.76771653543307
 21
1.889763779527559
 31
0.0
  0
LINE
  5
16B
330
17
100
AcDbEntity
  8
Pedestal ornament
100
AcDbLine
 10
65.62834645669291
 20
2.1834645669291337
 30
0.0
 11
65.46141732283465
 21
2.016535433070866
 31
0.0
  0
LINE
  5
16C
330
17
100
AcDbEntity
  8
Pedestal ornament
100
AcDbLine
 10
65.57086614173228
 20
2.322834645669291
 30
0.0
 11
65.33464566929133
 21
2.322834645669291
 31
0.0
  0
LINE
  5
16D
330
17
100
AcDbEntity
  8
Pedestal ornament
100
AcDbLine
 10
65.62834645669291
 20
2.4622047244094487
 30
0.0
 11
65.46141732283465
 21
2.6291338582677164
 31
0.0
  0
LINE
  5
16E
330
17
100
AcDbEntity
  8
Pedestal ornament
100
AcDbLine
 10
65.76771653543307
 20
2.5196850393700787
 30
0.0
 11
65.76771653543307
 21
2.7559055118110236
 31
0.0
  0
LINE
  5
16F
330
17
100
AcDbEntity
  8
Pedestal ornament
100
AcDbLine
 10
65.90708661417322
 20
2.4622047244094487
 30
0.0
 11
66.0740157480315
 21
2.6291338582677164
 31
0.0
  0
CIRCLE
  5
170
330
17
100
AcDbEntity
  8
Pedestal ornament
100
AcDbCircle
 10
65.76771653543307
 20
0.9448818897637795
 30
0.0
 40
0.9448818897637795
  0
CIRCLE
  5
171
330
17
100
AcDbEntity
  8
Pedestal ornament
100
AcDbCircle
 10
65.76771653543307
 20
0.9448818897637795
 30
0.0
 40
0.7086614173228346
  0
TEXT
  5
172
330
17
100
AcDbEntity
  8
LABELS
100
AcDbText
 10
62.618110236220474
 20
5.807086614173229
 30
0.0
 40
0.7086614173228346
  1
PEDESTAL ORNAMENT  (1:1, inches)
 11
62.618110236220474
 21
5.807086614173229
 31
0.0
100
AcDbText
  0
CIRCLE
  5
175
330
17
100
AcDbEntity
  8
Drawer handle
100
AcDbCircle
 10
79.0748031496063
 20
1.0255662486633617
 30
0.0
 40
0.31496062992125984
  0
CIRCLE
  5
176
330
17
100
AcDbEntity
  8
Drawer handle
100
AcDbCircle
 10
82.61811023622047
 20
1.0255662486633617
 30
0.0
 40
0.31496062992125984
  0
CIRCLE
  5
177
330
17
100
AcDbEntity
  8
Drawer handle
100
AcDbCircle
 10
79.0748031496063
 20
1.0255662486633617
 30
0.0
 40
0.11811023622047244
  0
CIRCLE
  5
178
330
17
100
AcDbEntity
  8
Drawer handle
100
AcDbCircle
 10
82.61811023622047
 20
1.0255662486633617
 30
0.0
 40
0.11811023622047244
  0
SPLINE
  5
179
330
17
100
AcDbEntity
  8
Drawer handle
100
AcDbSpline
 70
0
 71
3
 72
8
 73
4
 74
0
 40
0.0
 40
0.0
 40
0.0
 40
0.0
 40
1.0
 40
1.0
 40
1.0
 40
1.0
 10
79.0748031496063
 20
0.9074560124428892
 30
0.0
 10
79.0748031496063
 20
0.4743851463011569
 30
0.0
 10
79.4291338582677
 20
0.5531253037814718
 30
0.0
 10
79.66535433070865
 20
0.23816467386021212
 30
0.0
  0
SPLINE
  5
17A
330
17
100
AcDbEntity
  8
Drawer handle
100
AcDbSpline
 70
0
 71
3
 72
11
 73
7
 74
0
 40
0.0
 40
0.0
 40
0.0
 40
0.0
 40
1.0
 40
1.0
 40
1.0
 40
2.0
 40
2.0
 40
2.0
 40
2.0
 10
79.66535433070865
 20
0.23816467386021212
 30
0.0
 10
79.9015748031496
 20
-0.0374258773208902
 30
0.0
 10
80.37401574803148
 20
0.0019442014192672108
 30
0.0
 10
80.84645669291338
 20
0.0019442014192672108
 30
0.0
 10
81.31889763779527
 20
0.0019442014192672108
 30
0.0
 10
81.79133858267716
 20
-0.0374258773208902
 30
0.0
 10
82.0275590551181
 20
0.23816467386021212
 30
0.0
  0
SPLINE
  5
17B
330
17
100
AcDbEntity
  8
Drawer handle
100
AcDbSpline
 70
0
 71
3
 72
8
 73
4
 74
0
 40
0.0
 40
0.0
 40
0.0
 40
0.0
 40
1.0
 40
1.0
 40
1.0
 40
1.0
 10
82.0275590551181
 20
0.23816467386021212
 30
0.0
 10
82.26377952755905
 20
0.5531253037814718
 30
0.0
 10
82.61811023622046
 20
0.4743851463011569
 30
0.0
 10
82.61811023622046
 20
0.9074560124428892
 30
0.0
  0
TEXT
  5
17C
330
17
100
AcDbEntity
  8
LABELS
100
AcDbText
 10
78.75984251968504
 20
3.7027316029940707
 30
0.0
 40
0.7086614173228346
  1
DRAWER HANDLE  (1:1, inches)
 11
78.75984251968504
 21
3.7027316029940707
 31
0.0
100
AcDbText
  0
HATCH
  5
17F
330
17
100
AcDbEntity
  8
Plinth section hatch
 62
7
100
AcDbHatch
 10
0.0
 20
0.0
 30
0.0
210
0.0
220
0.0
230
1.0
  2
ANSI31
 70
0
 71
0
 91
1
 92
3
 72
0
 73
1
 93
15
 10
93.36614173228347
 20
3.149606299212598
 10
95.13779527559055
 20
3.149606299212598
 10
95.13779527559055
 20
0.0
 10
92.7755905511811
 20
0.0
 10
92.7755905511811
 20
2.283464566929134
 10
92.78589443897637
 20
2.3617433562992125
 10
92.81373031496062
 20
2.422490157480315
 10
92.90354330708661
 20
2.5098425196850394
 10
93.00812007874016
 20
2.5824311023622046
 10
93.09055118110236
 20
2.677165354330709
 10
93.16683070866142
 20
2.7731299212598426
 10
93.25787401574803
 20
2.854330708661417
 10
93.33415354330708
 20
2.96505905511811
 10
93.35752952755905
 20
3.0453371062992125
 10
93.36614173228347
 20
3.149606299212598
 97
0
 75
1
 76
1
 52
0.0
 41
0.15748031496062992
 77
0
 78
1
 53
45.0
 43
0.0
 44
0.0
 45
-0.0139194248
 46
0.0139194248
 79
0
 98
0
  0
POLYLINE
  5
180
330
17
100
AcDbEntity
  8
Plinth section
100
AcDb2dPolyline
 66
1
 10
0.0
 20
0.0
 30
0.0
 70
0
  0
VERTEX
  5
181
330
180
100
AcDbEntity
  8
Plinth section
100
AcDbVertex
100
AcDb2dVertex
 10
93.36614173228345
 20
3.149606299212598
 30
0.0
 70
0
  0
VERTEX
  5
182
330
180
100
AcDbEntity
  8
Plinth section
100
AcDbVertex
100
AcDb2dVertex
 10
95.13779527559055
 20
3.149606299212598
 30
0.0
 70
0
  0
VERTEX
  5
183
330
180
100
AcDbEntity
  8
Plinth section
100
AcDbVertex
100
AcDb2dVertex
 10
95.13779527559055
 20
0.0
 30
0.0
 70
0
  0
VERTEX
  5
184
330
180
100
AcDbEntity
  8
Plinth section
100
AcDbVertex
100
AcDb2dVertex
 10
92.7755905511811
 20
0.0
 30
0.0
 70
0
  0
VERTEX
  5
185
330
180
100
AcDbEntity
  8
Plinth section
100
AcDbVertex
100
AcDb2dVertex
 10
92.7755905511811
 20
2.2834645669291334
 30
0.0
 70
0
  0
SEQEND
  5
186
330
180
100
AcDbEntity
  8
Plinth section
  0
SPLINE
  5
187
330
17
100
AcDbEntity
  8
Plinth section
100
AcDbSpline
 70
0
 71
3
 72
11
 73
7
 74
0
 40
0.0
 40
0.0
 40
0.0
 40
0.0
 40
1.0
 40
1.0
 40
1.0
 40
2.0
 40
2.0
 40
2.0
 40
2.0
 10
92.7755905511811
 20
2.2834645669291334
 30
0.0
 10
92.7755905511811
 20
2.5196850393700787
 30
0.0
 10
93.01181102362204
 20
2.5196850393700787
 30
0.0
 10
93.09055118110236
 20
2.6771653543307083
 30
0.0
 10
93.16929133858267
 20
2.8346456692913384
 30
0.0
 10
93.36614173228345
 20
2.8346456692913384
 30
0.0
 10
93.36614173228345
 20
3.149606299212598
 30
0.0
  0
TEXT
  5
188
330
17
100
AcDbEntity
  8
LABELS
100
AcDbText
 10
92.7755905511811
 20
5.511811023622047
 30
0.0
 40
0.7086614173228346
  1
PLINTH SECTION  (1:1, inches)
 11
92.7755905511811
 21
5.511811023622047
 31
0.0
100
AcDbText
  0
LWPOLYLINE
  5
18B
330
17
100
AcDbEntity
  8
Corner plan
100
AcDbPolyline
 90
2
 70
0
 10
105.76771653543307
 20
9.84251968503937
 10
115.61023622047244
 20
9.84251968503937
  0
LWPOLYLINE
  5
18C
330
17
100
AcDbEntity
  8
Corner plan
100
AcDbPolyline
 90
2
 70
0
 10
105.76771653543307
 20
0.0
 10
105.76771653543307
 20
9.84251968503937
  0
LWPOLYLINE
  5
18D
330
17
100
AcDbEntity
  8
Corner plan
100
AcDbPolyline
 90
2
 70
0
 10
106.00393700787401
 20
9.606299212598426
 10
115.61023622047244
 20
9.606299212598426
  0
LWPOLYLINE
  5
18E
330
17
100
AcDbEntity
  8
Corner plan
100
AcDbPolyline
 90
2
 70
0
 10
106.00393700787401
 20
0.0
 10
106.00393700787401
 20
9.606299212598426
  0
LWPOLYLINE
  5
18F
330
17
100
AcDbEntity
  8
Corner plan
  6
DASHED
100
AcDbPolyline
 90
2
 70
0
 10
106.94881889763779
 20
8.661417322834646
 10
115.61023622047244
 20
8.661417322834646
  0
LWPOLYLINE
  5
190
330
17
100
AcDbEntity
  8
Corner plan
  6
DASHED
100
AcDbPolyline
 90
2
 70
0
 10
106.94881889763779
 20
0.0
 10
106.94881889763779
 20
8.661417322834646
  0
LWPOLYLINE
  5
191
330
17
100
AcDbEntity
  8
Corner plan
  6
DASHED
100
AcDbPolyline
 90
2
 70
0
 10
106.35826771653544
 20
9.251968503937007
 10
115.61023622047244
 20
9.251968503937007
  0
LWPOLYLINE
  5
192
330
17
100
AcDbEntity
  8
Corner plan
  6
DASHED
100
AcDbPolyline
 90
2
 70
0
 10
106.35826771653544
 20
0.0
 10
106.35826771653544
 20
9.251968503937007
  0
LWPOLYLINE
  5
193
330
17
100
AcDbEntity
  8
Corner plan
100
AcDbPolyline
 90
16
 70
0
 10
107.26377952755905
 20
8.661417322834646
 10
107.26377952755905
 20
8.779527559055119
 10
107.42125984251969
 20
8.779527559055119
 10
107.43858267716536
 20
8.888976377952757
 10
107.48897637795275
 20
8.987795275590551
 10
107.56732283464567
 20
9.066141732283464
 10
107.66614173228345
 20
9.116535433070865
 10
107.7755905511811
 20
9.133858267716535
 10
107.88503937007874
 20
9.116535433070865
 10
107.98385826771653
 20
9.066141732283464
 10
108.06220472440945
 20
8.987795275590551
 10
108.11259842519685
 20
8.888976377952757
 10
108.12992125984252
 20
8.779527559055119
 10
108.28740157480314
 20
8.779527559055119
 10
108.28740157480314
 20
8.661417322834646
 10
107.26377952755905
 20
8.661417322834646
  0
LWPOLYLINE
  5
194
330
17
100
AcDbEntity
  8
Corner plan
100
AcDbPolyline
 90
16
 70
0
 10
106.94881889763779
 20
8.346456692913385
 10
106.83070866141732
 20
8.346456692913385
 10
106.83070866141732
 20
8.188976377952756
 10
106.72125984251967
 20
8.171653543307087
 10
106.62244094488189
 20
8.121259842519684
 10
106.54409448818896
 20
8.042913385826772
 10
106.49370078740158
 20
7.944094488188976
 10
106.47637795275591
 20
7.834645669291339
 10
106.49370078740158
 20
7.725196850393701
 10
106.54409448818896
 20
7.626377952755906
 10
106.62244094488189
 20
7.548031496062992
 10
106.72125984251967
 20
7.49763779527559
 10
106.83070866141732
 20
7.480314960629921
 10
106.83070866141732
 20
7.322834645669292
 10
106.94881889763779
 20
7.322834645669292
 10
106.94881889763779
 20
8.346456692913385
  0
LWPOLYLINE
  5
195
330
17
100
AcDbEntity
  8
Corner plan
  6
DASHED
100
AcDbPolyline
 90
5
 70
0
 10
107.0275590551181
 20
9.606299212598426
 10
108.52362204724409
 20
9.606299212598426
 10
108.52362204724409
 20
8.661417322834646
 10
107.0275590551181
 20
8.661417322834646
 10
107.0275590551181
 20
9.606299212598426
  0
LWPOLYLINE
  5
196
330
17
100
AcDbEntity
  8
Corner plan
  6
DASHED
100
AcDbPolyline
 90
5
 70
0
 10
106.00393700787401
 20
8.582677165354331
 10
106.94881889763779
 20
8.582677165354331
 10
106.94881889763779
 20
7.086614173228346
 10
106.00393700787401
 20
7.086614173228346
 10
106.00393700787401
 20
8.582677165354331
  0
LWPOLYLINE
  5
197
330
17
100
AcDbEntity
  8
Corner plan
  6
DASHED
100
AcDbPolyline
 90
5
 70
0
 10
107.10629921259843
 20
9.291338582677165
 10
108.44488188976378
 20
9.291338582677165
 10
108.44488188976378
 20
8.661417322834646
 10
107.10629921259843
 20
8.661417322834646
 10
107.10629921259843
 20
9.291338582677165
  0
LWPOLYLINE
  5
198
330
17
100
AcDbEntity
  8
Corner plan
  6
DASHED
100
AcDbPolyline
 90
5
 70
0
 10
106.31889763779527
 20
8.503937007874015
 10
106.94881889763779
 20
8.503937007874015
 10
106.94881889763779
 20
7.165354330708661
 10
106.31889763779527
 20
7.165354330708661
 10
106.31889763779527
 20
8.503937007874015
  0
TEXT
  5
199
330
17
100
AcDbEntity
  8
LABELS
100
AcDbText
 10
104.98031496062993
 20
12.992125984251969
 30
0.0
 40
0.7086614173228346
  1
CORNER PLAN  (1:1, inches)
 11
104.98031496062993
 21
12.992125984251969
 31
0.0
100
AcDbText
  0
LWPOLYLINE
  5
19C
330
17
100
AcDbEntity
  8
Corner elevation
100
AcDbPolyline
 90
2
 70
0
 10
125.84645669291338
 20
29.724409448818896
 10
132.57874015748033
 20
29.724409448818896
  0
LWPOLYLINE
  5
19D
330
17
100
AcDbEntity
  8
Corner elevation
100
AcDbPolyline
 90
3
 70
0
 10
132.57874015748033
 20
28.149606299212596
 10
125.84645669291338
 20
28.149606299212596
 10
125.84645669291338
 20
29.724409448818896
  0
LWPOLYLINE
  5
19E
330
17
100
AcDbEntity
  8
Corner elevation
100
AcDbPolyline
 90
2
 70
0
 10
125.84645669291338
 20
29.409448818897637
 10
132.57874015748033
 20
29.409448818897637
  0
LWPOLYLINE
  5
19F
330
17
100
AcDbEntity
  8
Corner elevation
100
AcDbPolyline
 90
2
 70
0
 10
125.84645669291338
 20
29.094488188976378
 10
132.57874015748033
 20
29.094488188976378
  0
LWPOLYLINE
  5
1A0
330
17
100
AcDbEntity
  8
Corner elevation
100
AcDbPolyline
 90
2
 70
0
 10
125.84645669291338
 20
28.77952755905512
 10
132.57874015748033
 20
28.77952755905512
  0
LWPOLYLINE
  5
1A1
330
17
100
AcDbEntity
  8
Corner elevation
100
AcDbPolyline
 90
2
 70
0
 10
125.84645669291338
 20
28.46456692913386
 10
132.57874015748033
 20
28.46456692913386
  0
LWPOLYLINE
  5
1A2
330
17
100
AcDbEntity
  8
Corner elevation
100
AcDbPolyline
 90
2
 70
0
 10
127.0275590551181
 20
28.149606299212596
 10
132.57874015748033
 20
28.149606299212596
  0
LWPOLYLINE
  5
1A3
330
17
100
AcDbEntity
  8
Corner elevation
100
AcDbPolyline
 90
3
 70
0
 10
132.57874015748033
 20
25.196850393700785
 10
127.0275590551181
 20
25.196850393700785
 10
127.0275590551181
 20
28.149606299212596
  0
LWPOLYLINE
  5
1A4
330
17
100
AcDbEntity
  8
Corner elevation
100
AcDbPolyline
 90
2
 70
0
 10
128.95669291338584
 20
27.913385826771652
 10
132.57874015748033
 20
27.913385826771652
  0
LWPOLYLINE
  5
1A5
330
17
100
AcDbEntity
  8
Corner elevation
100
AcDbPolyline
 90
3
 70
0
 10
132.57874015748033
 20
25.433070866141733
 10
128.95669291338584
 20
25.433070866141733
 10
128.95669291338584
 20
27.913385826771652
  0
LWPOLYLINE
  5
1A6
330
17
100
AcDbEntity
  8
Corner elevation
100
AcDbPolyline
 90
2
 70
0
 10
129.0748031496063
 20
27.79527559055118
 10
132.57874015748033
 20
27.79527559055118
  0
LWPOLYLINE
  5
1A7
330
17
100
AcDbEntity
  8
Corner elevation
100
AcDbPolyline
 90
3
 70
0
 10
132.57874015748033
 20
25.551181102362204
 10
129.0748031496063
 20
25.551181102362204
 10
129.0748031496063
 20
27.79527559055118
  0
LWPOLYLINE
  5
1A8
330
17
100
AcDbEntity
  8
Corner elevation
100
AcDbPolyline
 90
2
 70
0
 10
127.0275590551181
 20
25.196850393700785
 10
132.57874015748033
 20
25.196850393700785
  0
LWPOLYLINE
  5
1A9
330
17
100
AcDbEntity
  8
Corner elevation
100
AcDbPolyline
 90
3
 70
0
 10
132.57874015748033
 20
24.606299212598426
 10
127.0275590551181
 20
24.606299212598426
 10
127.0275590551181
 20
25.196850393700785
  0
LWPOLYLINE
  5
1AA
330
17
100
AcDbEntity
  8
Corner elevation
100
AcDbPolyline
 90
2
 70
0
 10
127.0275590551181
 20
25.0
 10
132.57874015748033
 20
25.0
  0
LWPOLYLINE
  5
1AB
330
17
100
AcDbEntity
  8
Corner elevation
100
AcDbPolyline
 90
2
 70
0
 10
127.0275590551181
 20
24.80314960629921
 10
132.57874015748033
 20
24.80314960629921
  0
LWPOLYLINE
  5
1AC
330
17
100
AcDbEntity
  8
Corner elevation
100
AcDbPolyline
 90
2
 70
0
 10
127.0275590551181
 20
24.606299212598426
 10
132.57874015748033
 20
24.606299212598426
  0
LWPOLYLINE
  5
1AD
330
17
100
AcDbEntity
  8
Corner elevation
100
AcDbPolyline
 90
3
 70
0
 10
132.57874015748033
 20
3.3464566929133857
 10
127.0275590551181
 20
3.3464566929133857
 10
127.0275590551181
 20
24.606299212598426
  0
LWPOLYLINE
  5
1AE
330
17
100
AcDbEntity
  8
Corner elevation
100
AcDbPolyline
 90
2
 70
0
 10
128.75984251968504
 20
24.606299212598426
 10
128.75984251968504
 20
3.3464566929133857
  0
LWPOLYLINE
  5
1AF
330
17
100
AcDbEntity
  8
Corner elevation
100
AcDbPolyline
 90
2
 70
0
 10
129.1535433070866
 20
24.133858267716533
 10
132.57874015748033
 20
24.133858267716533
  0
LWPOLYLINE
  5
1B0
330
17
100
AcDbEntity
  8
Corner elevation
100
AcDbPolyline
 90
3
 70
0
 10
132.57874015748033
 20
3.8188976377952755
 10
129.1535433070866
 20
3.8188976377952755
 10
129.1535433070866
 20
24.133858267716533
  0
LWPOLYLINE
  5
1B1
330
17
100
AcDbEntity
  8
Corner elevation
100
AcDbPolyline
 90
2
 70
0
 10
130.6496062992126
 20
22.637795275590552
 10
132.57874015748033
 20
22.637795275590552
  0
LWPOLYLINE
  5
1B2
330
17
100
AcDbEntity
  8
Corner elevation
100
AcDbPolyline
 90
3
 70
0
 10
132.57874015748033
 20
5.31496062992126
 10
130.6496062992126
 20
5.31496062992126
 10
130.6496062992126
 20
22.637795275590552
  0
LWPOLYLINE
  5
1B3
330
17
100
AcDbEntity
  8
Corner elevation
100
AcDbPolyline
 90
2
 70
0
 10
130.96456692913387
 20
22.322834645669293
 10
132.57874015748033
 20
22.322834645669293
  0
LWPOLYLINE
  5
1B4
330
17
100
AcDbEntity
  8
Corner elevation
100
AcDbPolyline
 90
3
 70
0
 10
132.57874015748033
 20
5.6299212598425195
 10
130.96456692913387
 20
5.6299212598425195
 10
130.96456692913387
 20
22.322834645669293
  0
LWPOLYLINE
  5
1B5
330
17
100
AcDbEntity
  8
Corner elevation
100
AcDbPolyline
 90
2
 70
0
 10
126.43700787401575
 20
3.3464566929133857
 10
132.57874015748033
 20
3.3464566929133857
  0
LWPOLYLINE
  5
1B6
330
17
100
AcDbEntity
  8
Corner elevation
100
AcDbPolyline
 90
3
 70
0
 10
132.57874015748033
 20
0.19685039370078738
 10
126.43700787401575
 20
0.19685039370078738
 10
126.43700787401575
 20
3.3464566929133857
  0
LWPOLYLINE
  5
1B7
330
17
100
AcDbEntity
  8
Corner elevation
100
AcDbPolyline
 90
2
 70
0
 10
126.43700787401575
 20
2.952755905511811
 10
132.57874015748033
 20
2.952755905511811
  0
LWPOLYLINE
  5
1B8
330
17
100
AcDbEntity
  8
Corner elevation
100
AcDbPolyline
 90
2
 70
0
 10
126.43700787401575
 20
2.4803149606299213
 10
132.57874015748033
 20
2.4803149606299213
  0
LWPOLYLINE
  5
1B9
330
17
100
AcDbEntity
  8
Corner elevation
100
AcDbPolyline
 90
5
 70
0
 10
127.34251968503936
 20
24.606299212598426
 10
128.36614173228347
 20
24.606299212598426
 10
128.36614173228347
 20
5.708661417322834
 10
127.34251968503936
 20
5.708661417322834
 10
127.34251968503936
 20
24.606299212598426
  0
LWPOLYLINE
  5
1BA
330
17
100
AcDbEntity
  8
Corner elevation
100
AcDbPolyline
 90
2
 70
0
 10
127.5
 20
24.606299212598426
 10
127.5
 20
5.708661417322834
  0
LWPOLYLINE
  5
1BB
330
17
100
AcDbEntity
  8
Corner elevation
100
AcDbPolyline
 90
2
 70
0
 10
128.20866141732284
 20
24.606299212598426
 10
128.20866141732284
 20
5.708661417322834
  0
LWPOLYLINE
  5
1BC
330
17
100
AcDbEntity
  8
Corner elevation
100
AcDbPolyline
 90
2
 70
0
 10
127.65944881889764
 20
24.606299212598426
 10
127.65944881889764
 20
5.708661417322834
  0
LWPOLYLINE
  5
1BD
330
17
100
AcDbEntity
  8
Corner elevation
100
AcDbPolyline
 90
2
 70
0
 10
128.04921259842519
 20
24.606299212598426
 10
128.04921259842519
 20
5.708661417322834
  0
LWPOLYLINE
  5
1BE
330
17
100
AcDbEntity
  8
Corner elevation
100
AcDbPolyline
 90
5
 70
0
 10
127.22440944881889
 20
20.511811023622048
 10
128.48425196850394
 20
20.511811023622048
 10
128.48425196850394
 20
20.039370078740156
 10
127.22440944881889
 20
20.039370078740156
 10
127.22440944881889
 20
20.511811023622048
  0
LWPOLYLINE
  5
1BF
330
17
100
AcDbEntity
  8
Corner elevation
100
AcDbPolyline
 90
2
 70
0
 10
127.22440944881889
 20
20.275590551181104
 10
128.48425196850394
 20
20.275590551181104
  0
LWPOLYLINE
  5
1C0
330
17
100
AcDbEntity
  8
Corner elevation
100
AcDbPolyline
 90
5
 70
0
 10
127.22440944881889
 20
7.440944881889764
 10
128.48425196850394
 20
7.440944881889764
 10
128.48425196850394
 20
6.968503937007874
 10
127.22440944881889
 20
6.968503937007874
 10
127.22440944881889
 20
7.440944881889764
  0
LWPOLYLINE
  5
1C1
330
17
100
AcDbEntity
  8
Corner elevation
100
AcDbPolyline
 90
2
 70
0
 10
127.22440944881889
 20
7.2047244094488185
 10
128.48425196850394
 20
7.2047244094488185
  0
LWPOLYLINE
  5
1C2
330
17
100
AcDbEntity
  8
Corner elevation
100
AcDbPolyline
 90
49
 70
0
 10
127.85433070866142
 20
19.566929133858267
 10
127.85128628933474
 20
19.53860675245844
 10
127.84225631432197
 20
19.51088578200842
 10
127.82739570807402
 20
19.484119558349466
 10
127.80685939504173
 20
19.458661417322833
 10
127.7810499930561
 20
19.435063754773616
 10
127.75054901129495
 20
19.41381584917802
 10
127.71577971122943
 20
19.39517636032398
 10
127.67716535433071
 20
19.379403947999432
 10
127.6355065781053
 20
19.36685397892415
 10
127.59170730302702
 20
19.35777249732817
 10
127.5463457150179
 20
19.352254179264815
 10
127.5
 20
19.3503937007874
 10
127.4536542849821
 20
19.352254179264815
 10
127.40829269697296
 20
19.35777249732817
 10
127.36449342189468
 20
19.36685397892415
 10
127.32283464566929
 20
19.379403947999432
 10
127.28422028877057
 20
19.39517636032398
 10
127.24945098870505
 20
19.41381584917802
 10
127.21895000694389
 20
19.435063754773616
 10
127.19314060495827
 20
19.458661417322833
 10
127.17260429192598
 20
19.484119558349466
 10
127.15774368567801
 20
19.51088578200842
 10
127.14871371066526
 20
19.53860675245844
 10
127.14566929133858
 20
19.566929133858267
 10
127.14871371066526
 20
19.595251515258095
 10
127.15774368567801
 20
19.622972485708114
 10
127.17260429192598
 20
19.64973870936707
 10
127.19314060495827
 20
19.6751968503937
 10
127.21895000694389
 20
19.69879451294292
 10
127.24945098870505
 20
19.720042418538515
 10
127.28422028877057
 20
19.738681907392554
 10
127.32283464566929
 20
19.7544543197171
 10
127.36449342189468
 20
19.767004288792386
 10
127.40829269697296
 20
19.776085770388363
 10
127.4536542849821
 20
19.78160408845172
 10
127.5
 20
19.783464566929133
 10
127.5463457150179
 20
19.78160408845172
 10
127.59170730302702
 20
19.776085770388363
 10
127.6355065781053
 20
19.767004288792386
 10
127.67716535433071
 20
19.7544543197171
 10
127.71577971122943
 20
19.738681907392554
 10
127.75054901129495
 20
19.720042418538515
 10
127.7810499930561
 20
19.69879451294292
 10
127.80685939504173
 20
19.6751968503937
 10
127.82739570807402
 20
19.64973870936707
 10
127.84225631432197
 20
19.622972485708114
 10
127.85128628933474
 20
19.595251515258095
 10
127.85433070866142
 20
19.566929133858267
  0
LWPOLYLINE
  5
1C3
330
17
100
AcDbEntity
  8
Corner elevation
100
AcDbPolyline
 90
49
 70
0
 10
128.56299212598424
 20
19.566929133858267
 10
128.55994770665757
 20
19.53860675245844
 10
128.5509177316448
 20
19.51088578200842
 10
128.53605712539684
 20
19.484119558349466
 10
128.51552081236457
 20
19.458661417322833
 10
128.48971141037893
 20
19.435063754773616
 10
128.45921042861778
 20
19.41381584917802
 10
128.42444112855225
 20
19.39517636032398
 10
128.38582677165354
 20
19.379403947999432
 10
128.34416799542814
 20
19.36685397892415
 10
128.30036872034987
 20
19.35777249732817
 10
128.25500713234075
 20
19.352254179264815
 10
128.20866141732284
 20
19.3503937007874
 10
128.16231570230494
 20
19.352254179264815
 10
128.1169541142958
 20
19.35777249732817
 10
128.07315483921752
 20
19.36685397892415
 10
128.03149606299212
 20
19.379403947999432
 10
127.99288170609341
 20
19.39517636032398
 10
127.95811240602788
 20
19.41381584917802
 10
127.92761142426673
 20
19.435063754773616
 10
127.9018020222811
 20
19.458661417322833
 10
127.88126570924882
 20
19.484119558349466
 10
127.86640510300086
 20
19.51088578200842
 10
127.85737512798809
 20
19.53860675245844
 10
127.85433070866142
 20
19.566929133858267
 10
127.85737512798809
 20
19.595251515258095
 10
127.86640510300086
 20
19.622972485708114
 10
127.88126570924882
 20
19.64973870936707
 10
127.9018020222811
 20
19.6751968503937
 10
127.92761142426673
 20
19.69879451294292
 10
127.95811240602788
 20
19.720042418538515
 10
127.99288170609341
 20
19.738681907392554
 10
128.03149606299212
 20
19.7544543197171
 10
128.07315483921752
 20
19.767004288792386
 10
128.1169541142958
 20
19.776085770388363
 10
128.16231570230494
 20
19.78160408845172
 10
128.20866141732284
 20
19.783464566929133
 10
128.25500713234075
 20
19.78160408845172
 10
128.30036872034987
 20
19.776085770388363
 10
128.34416799542814
 20
19.767004288792386
 10
128.38582677165354
 20
19.7544543197171
 10
128.42444112855225
 20
19.738681907392554
 10
128.45921042861778
 20
19.720042418538515
 10
128.48971141037893
 20
19.69879451294292
 10
128.51552081236457
 20
19.6751968503937
 10
128.53605712539684
 20
19.64973870936707
 10
128.5509177316448
 20
19.622972485708114
 10
128.55994770665757
 20
19.595251515258095
 10
128.56299212598424
 20
19.566929133858267
  0
LWPOLYLINE
  5
1C4
330
17
100
AcDbEntity
  8
Corner elevation
100
AcDbPolyline
 90
49
 70
0
 10
127.99212598425197
 20
19.566929133858267
 10
127.99094204340271
 20
19.548905800240195
 10
127.9874303864533
 20
19.53126518268109
 10
127.9816512618013
 20
19.514232131261757
 10
127.97366491784432
 20
19.498031496062993
 10
127.96362792818324
 20
19.483014801713487
 10
127.95176643527611
 20
19.469493407243565
 10
127.9382450408062
 20
19.45763191433645
 10
127.9232283464567
 20
19.44759492467537
 10
127.90702771125792
 20
19.439608580718374
 10
127.88999465983858
 20
19.433829456066388
 10
127.87235404227948
 20
19.43031779911698
 10
127.85433070866142
 20
19.429133858267715
 10
127.83630737504335
 20
19.43031779911698
 10
127.81866675748425
 20
19.433829456066388
 10
127.8016337060649
 20
19.439608580718374
 10
127.78543307086613
 20
19.44759492467537
 10
127.77041637651664
 20
19.45763191433645
 10
127.75689498204672
 20
19.469493407243565
 10
127.74503348913959
 20
19.483014801713487
 10
127.73499649947851
 20
19.498031496062993
 10
127.72701015552153
 20
19.514232131261757
 10
127.72123103086953
 20
19.53126518268109
 10
127.71771937392012
 20
19.548905800240195
 10
127.71653543307086
 20
19.566929133858267
 10
127.71771937392012
 20
19.58495246747634
 10
127.72123103086953
 20
19.602593085035444
 10
127.72701015552153
 20
19.61962613645478
 10
127.73499649947851
 20
19.635826771653544
 10
127.74503348913959
 20
19.650843466003046
 10
127.75689498204672
 20
19.66436486047297
 10
127.77041637651664
 20
19.676226353380084
 10
127.78543307086613
 20
19.686263343041162
 10
127.8016337060649
 20
19.694249686998162
 10
127.81866675748425
 20
19.700028811650146
 10
127.83630737504335
 20
19.703540468599556
 10
127.85433070866142
 20
19.70472440944882
 10
127.87235404227948
 20
19.703540468599556
 10
127.88999465983858
 20
19.700028811650146
 10
127.90702771125792
 20
19.694249686998162
 10
127.9232283464567
 20
19.686263343041162
 10
127.9382450408062
 20
19.676226353380084
 10
127.95176643527611
 20
19.66436486047297
 10
127.96362792818324
 20
19.650843466003046
 10
127.97366491784432
 20
19.635826771653544
 10
127.9816512618013
 20
19.61962613645478
 10
127.9874303864533
 20
19.602593085035444
 10
127.99094204340271
 20
19.58495246747634
 10
127.99212598425197
 20
19.566929133858267
  0
LWPOLYLINE
  5
1C5
330
17
100
AcDbEntity
  8
Corner elevation
100
AcDbPolyline
 90
2
 70
0
 10
127.7755905511811
 20
19.448818897637796
 10
127.53937007874016
 20
18.858267716535433
  0
LWPOLYLINE
  5
1C6
330
17
100
AcDbEntity
  8
Corner elevation
100
AcDbPolyline
 90
2
 70
0
 10
127.93307086614173
 20
19.448818897637796
 10
128.16929133858267
 20
18.858267716535433
  0
LWPOLYLINE
  5
1C7
330
17
100
AcDbEntity
  8
Corner elevation
100
AcDbPolyline
 90
27
 70
0
 10
127.85433070866142
 20
18.700787401574804
 10
127.94516255536418
 20
18.69273652805118
 10
128.02291461614172
 20
18.669598917322833
 10
128.0877945066437
 20
18.632897084153544
 10
128.14000984251967
 20
18.58415354330709
 10
128.1797682394193
 20
18.524890809547244
 10
128.20727731299212
 20
18.456631397637793
 10
128.22274467888778
 20
18.38089782234252
 10
128.22637795275588
 20
18.299212598425196
 10
128.19897268700788
 20
18.124077263779526
 10
128.12672244094486
 20
17.943405511811022
 10
128.01128813976376
 20
17.76937746062992
 10
127.93789600762796
 20
17.688661109744093
 10
127.85433070866142
 20
17.614173228346456
 10
127.77076540969487
 20
17.688661109744093
 10
127.69737327755905
 20
17.76937746062992
 10
127.58193897637796
 20
17.943405511811022
 10
127.50968873031496
 20
18.124077263779526
 10
127.48228346456693
 20
18.299212598425196
 10
127.48591673843505
 20
18.38089782234252
 10
127.50138410433071
 20
18.456631397637793
 10
127.52889317790354
 20
18.524890809547244
 10
127.56865157480316
 20
18.58415354330709
 10
127.62086691067914
 20
18.632897084153544
 10
127.68574680118111
 20
18.669598917322833
 10
127.76349886195867
 20
18.69273652805118
 10
127.85433070866142
 20
18.700787401574804
  0
LWPOLYLINE
  5
1C8
330
17
100
AcDbEntity
  8
Corner elevation
100
AcDbPolyline
 90
2
 70
0
 10
127.85433070866142
 20
18.559055118110233
 10
127.85433070866142
 20
17.8503937007874
  0
LWPOLYLINE
  5
1C9
330
17
100
AcDbEntity
  8
Corner elevation
100
AcDbPolyline
 90
5
 70
0
 10
127.64645669291338
 20
18.46456692913386
 10
127.70196850393701
 20
18.302165354330707
 10
127.75511811023622
 20
18.14566929133858
 10
127.80590551181102
 20
17.995078740157478
 10
127.85433070866142
 20
17.8503937007874
  0
LWPOLYLINE
  5
1CA
330
17
100
AcDbEntity
  8
Corner elevation
100
AcDbPolyline
 90
5
 70
0
 10
128.06220472440947
 20
18.46456692913386
 10
128.00669291338582
 20
18.302165354330707
 10
127.9535433070866
 20
18.14566929133858
 10
127.90275590551181
 20
17.995078740157478
 10
127.85433070866142
 20
17.8503937007874
  0
LWPOLYLINE
  5
1CB
330
17
100
AcDbEntity
  8
Corner elevation
100
AcDbPolyline
 90
49
 70
0
 10
127.95275590551181
 20
17.456692913385826
 10
127.95191023347662
 20
17.44381910365863
 10
127.9494019070842
 20
17.431218662544985
 10
127.94527396090419
 20
17.41905219724546
 10
127.93956942950634
 20
17.40748031496063
 10
127.932400151177
 20
17.396754104710983
 10
127.92392765624335
 20
17.387095965803894
 10
127.91426951733627
 20
17.378623470870238
 10
127.90354330708661
 20
17.3714541925409
 10
127.89197142480178
 20
17.365749661143045
 10
127.87980495950225
 20
17.361621714963054
 10
127.8672045183886
 20
17.35911338857062
 10
127.85433070866142
 20
17.358267716535433
 10
127.84145689893423
 20
17.35911338857062
 10
127.82885645782058
 20
17.361621714963054
 10
127.81668999252105
 20
17.365749661143045
 10
127.80511811023622
 20
17.3714541925409
 10
127.79439189998658
 20
17.378623470870238
 10
127.78473376107948
 20
17.387095965803894
 10
127.77626126614582
 20
17.396754104710983
 10
127.7690919878165
 20
17.40748031496063
 10
127.76338745641864
 20
17.41905219724546
 10
127.75925951023864
 20
17.431218662544985
 10
127.7567511838462
 20
17.44381910365863
 10
127.75590551181102
 20
17.456692913385826
 10
127.7567511838462
 20
17.46956672311302
 10
127.75925951023864
 20
17.482167164226667
 10
127.76338745641864
 20
17.49433362952619
 10
127.7690919878165
 20
17.505905511811022
 10
127.77626126614582
 20
17.516631722060666
 10
127.78473376107948
 20
17.526289860967758
 10
127.79439189998658
 20
17.53476235590141
 10
127.80511811023622
 20
17.54193163423075
 10
127.81668999252105
 20
17.547636165628607
 10
127.82885645782058
 20
17.5517641118086
 10
127.84145689893423
 20
17.554272438201032
 10
127.85433070866142
 20
17.55511811023622
 10
127.8672045183886
 20
17.554272438201032
 10
127.87980495950225
 20
17.5517641118086
 10
127.89197142480178
 20
17.547636165628607
 10
127.90354330708661
 20
17.54193163423075
 10
127.91426951733627
 20
17.53476235590141
 10
127.92392765624335
 20
17.526289860967758
 10
127.932400151177
 20
17.516631722060666
 10
127.93956942950634
 20
17.505905511811022
 10
127.94527396090419
 20
17.49433362952619
 10
127.9494019070842
 20
17.482167164226667
 10
127.95191023347662
 20
17.46956672311302
 10
127.95275590551181
 20
17.456692913385826
  0
LWPOLYLINE
  5
1CC
330
17
100
AcDbEntity
  8
Corner elevation
100
AcDbPolyline
 90
25
 70
0
 10
127.85433070866142
 20
17.259842519685037
 10
127.93607937069389
 20
17.252596733513776
 10
128.0060562253937
 20
17.231772883858266
 10
128.06444812684546
 20
17.198741234005904
 10
128.11144192913386
 20
17.154872047244094
 10
128.1472244863435
 20
17.101535586860233
 10
128.17198265255905
 20
17.040102116141732
 10
128.18590328186514
 20
16.971941898375984
 10
128.18917322834645
 20
16.898425196850393
 10
128.16450848917324
 20
16.74080339566929
 10
128.09948326771652
 20
16.578198818897636
 10
127.99559239665355
 20
16.421573572834646
 10
127.85433070866142
 20
16.281889763779528
 10
127.71306902066928
 20
16.421573572834646
 10
127.60917814960631
 20
16.578198818897636
 10
127.5441529281496
 20
16.74080339566929
 10
127.51948818897637
 20
16.898425196850393
 10
127.52275813545768
 20
16.971941898375984
 10
127.53667876476378
 20
17.040102116141732
 10
127.56143693097934
 20
17.101535586860233
 10
127.59721948818898
 20
17.154872047244094
 10
127.64421329047737
 20
17.198741234005904
 10
127.70260519192914
 20
17.231772883858266
 10
127.77258204662894
 20
17.252596733513776
 10
127.85433070866142
 20
17.259842519685037
  0
LWPOLYLINE
  5
1CD
330
17
100
AcDbEntity
  8
Corner elevation
100
AcDbPolyline
 90
2
 70
0
 10
127.85433070866142
 20
17.132283464566928
 10
127.85433070866142
 20
16.494488188976376
  0
LWPOLYLINE
  5
1CE
330
17
100
AcDbEntity
  8
Corner elevation
100
AcDbPolyline
 90
5
 70
0
 10
127.66724409448818
 20
17.04724409448819
 10
127.71720472440944
 20
16.901082677165356
 10
127.76503937007874
 20
16.76023622047244
 10
127.81074803149606
 20
16.624704724409447
 10
127.85433070866142
 20
16.494488188976376
  0
LWPOLYLINE
  5
1CF
330
17
100
AcDbEntity
  8
Corner elevation
100
AcDbPolyline
 90
5
 70
0
 10
128.04141732283463
 20
17.04724409448819
 10
127.99145669291339
 20
16.901082677165356
 10
127.94362204724409
 20
16.76023622047244
 10
127.89791338582677
 20
16.624704724409447
 10
127.85433070866142
 20
16.494488188976376
  0
LWPOLYLINE
  5
1D0
330
17
100
AcDbEntity
  8
Corner elevation
100
AcDbPolyline
 90
49
 70
0
 10
127.95275590551181
 20
16.1244094488189
 10
127.95191023347662
 20
16.111535639091702
 10
127.9494019070842
 20
16.098935197978058
 10
127.94527396090419
 20
16.086768732678532
 10
127.93956942950634
 20
16.075196850393702
 10
127.932400151177
 20
16.064470640144055
 10
127.92392765624335
 20
16.054812501236967
 10
127.91426951733627
 20
16.04634000630331
 10
127.90354330708661
 20
16.03917072797397
 10
127.89197142480178
 20
16.033466196576118
 10
127.87980495950225
 20
16.029338250396126
 10
127.8672045183886
 20
16.026829924003692
 10
127.85433070866142
 20
16.025984251968502
 10
127.84145689893423
 20
16.026829924003692
 10
127.82885645782058
 20
16.029338250396126
 10
127.81668999252105
 20
16.033466196576118
 10
127.80511811023622
 20
16.03917072797397
 10
127.79439189998658
 20
16.04634000630331
 10
127.78473376107948
 20
16.054812501236967
 10
127.77626126614582
 20
16.064470640144055
 10
127.7690919878165
 20
16.075196850393702
 10
127.76338745641864
 20
16.086768732678532
 10
127.75925951023864
 20
16.098935197978058
 10
127.7567511838462
 20
16.111535639091702
 10
127.75590551181102
 20
16.1244094488189
 10
127.7567511838462
 20
16.13728325854609
 10
127.75925951023864
 20
16.149883699659735
 10
127.76338745641864
 20
16.16205016495926
 10
127.7690919878165
 20
16.173622047244095
 10
127.77626126614582
 20
16.18434825749374
 10
127.78473376107948
 20
16.19400639640083
 10
127.79439189998658
 20
16.202478891334483
 10
127.80511811023622
 20
16.209648169663822
 10
127.81668999252105
 20
16.21535270106168
 10
127.82885645782058
 20
16.219480647241667
 10
127.84145689893423
 20
16.221988973634105
 10
127.85433070866142
 20
16.22283464566929
 10
127.8672045183886
 20
16.221988973634105
 10
127.87980495950225
 20
16.219480647241667
 10
127.89197142480178
 20
16.21535270106168
 10
127.90354330708661
 20
16.209648169663822
 10
127.91426951733627
 20
16.202478891334483
 10
127.92392765624335
 20
16.19400639640083
 10
127.932400151177
 20
16.18434825749374
 10
127.93956942950634
 20
16.173622047244095
 10
127.94527396090419
 20
16.16205016495926
 10
127.9494019070842
 20
16.149883699659735
 10
127.95191023347662
 20
16.13728325854609
 10
127.95275590551181
 20
16.1244094488189
  0
LWPOLYLINE
  5
1D1
330
17
100
AcDbEntity
  8
Corner elevation
100
AcDbPolyline
 90
23
 70
0
 10
127.85433070866142
 20
15.92755905511811
 10
127.92790450449064
 20
15.921037847563976
 10
127.99088367372048
 20
15.902296382874017
 10
128.04343638502706
 20
15.872567898006888
 10
128.0857308070866
 20
15.833085629921259
 10
128.1179351085753
 20
15.785082815575787
 10
128.14021745816927
 20
15.729792691929132
 10
128.15568897637795
 20
15.602283464566929
 10
128.13349071112205
 20
15.460423843503937
 10
128.07496801181102
 20
15.314079724409448
 10
127.98146622785433
 20
15.173117002952758
 10
127.85433070866142
 20
15.04740157480315
 10
127.7271951894685
 20
15.173117002952758
 10
127.6336934055118
 20
15.314079724409448
 10
127.5751707062008
 20
15.460423843503937
 10
127.55297244094487
 20
15.602283464566929
 10
127.56844395915356
 20
15.729792691929136
 10
127.59072630874753
 20
15.785082815575787
 10
127.62293061023622
 20
15.833085629921259
 10
127.66522503229577
 20
15.872567898006888
 10
127.71777774360235
 20
15.902296382874017
 10
127.78075691283219
 20
15.921037847563976
 10
127.85433070866142
 20
15.92755905511811
  0
LWPOLYLINE
  5
1D2
330
17
100
AcDbEntity
  8
Corner elevation
100
AcDbPolyline
 90
2
 70
0
 10
127.85433070866142
 20
15.81275590551181
 10
127.85433070866142
 20
15.238740157480315
  0
LWPOLYLINE
  5
1D3
330
17
100
AcDbEntity
  8
Corner elevation
100
AcDbPolyline
 90
5
 70
0
 10
127.6859527559055
 20
15.736220472440944
 10
127.73091732283464
 20
15.604675196850392
 10
127.773968503937
 20
15.477913385826772
 10
127.8151062992126
 20
15.35593503937008
 10
127.85433070866142
 20
15.238740157480315
  0
LWPOLYLINE
  5
1D4
330
17
100
AcDbEntity
  8
Corner elevation
100
AcDbPolyline
 90
5
 70
0
 10
128.0227086614173
 20
15.736220472440944
 10
127.97774409448819
 20
15.604675196850392
 10
127.93469291338583
 20
15.477913385826772
 10
127.89355511811023
 20
15.35593503937008
 10
127.85433070866142
 20
15.238740157480315
  0
LWPOLYLINE
  5
1D5
330
17
100
AcDbEntity
  8
Corner elevation
100
AcDbPolyline
 90
49
 70
0
 10
127.95275590551181
 20
14.88992125984252
 10
127.95191023347662
 20
14.877047450115326
 10
127.9494019070842
 20
14.86444700900168
 10
127.94527396090419
 20
14.852280543702156
 10
127.93956942950634
 20
14.840708661417324
 10
127.932400151177
 20
14.829982451167679
 10
127.92392765624335
 20
14.820324312260588
 10
127.91426951733627
 20
14.811851817326934
 10
127.90354330708661
 20
14.804682538997595
 10
127.89197142480178
 20
14.79897800759974
 10
127.87980495950225
 20
14.79485006141975
 10
127.8672045183886
 20
14.792341735027314
 10
127.85433070866142
 20
14.791496062992126
 10
127.84145689893423
 20
14.792341735027314
 10
127.82885645782058
 20
14.79485006141975
 10
127.81668999252105
 20
14.79897800759974
 10
127.80511811023622
 20
14.804682538997595
 10
127.79439189998658
 20
14.811851817326934
 10
127.78473376107948
 20
14.820324312260588
 10
127.77626126614582
 20
14.829982451167679
 10
127.7690919878165
 20
14.840708661417324
 10
127.76338745641864
 20
14.852280543702156
 10
127.75925951023864
 20
14.86444700900168
 10
127.7567511838462
 20
14.877047450115326
 10
127.75590551181102
 20
14.88992125984252
 10
127.7567511838462
 20
14.902795069569715
 10
127.75925951023864
 20
14.915395510683359
 10
127.76338745641864
 20
14.927561975982885
 10
127.7690919878165
 20
14.939133858267716
 10
127.77626126614582
 20
14.949860068517362
 10
127.78473376107948
 20
14.959518207424452
 10
127.79439189998658
 20
14.967990702358106
 10
127.80511811023622
 20
14.975159980687446
 10
127.81668999252105
 20
14.9808645120853
 10
127.82885645782058
 20
14.98499245826529
 10
127.84145689893423
 20
14.987500784657726
 10
127.85433070866142
 20
14.988346456692913
 10
127.8672045183886
 20
14.987500784657726
 10
127.87980495950225
 20
14.98499245826529
 10
127.89197142480178
 20
14.9808645120853
 10
127.90354330708661
 20
14.975159980687446
 10
127.91426951733627
 20
14.967990702358106
 10
127.92392765624335
 20
14.959518207424452
 10
127.932400151177
 20
14.949860068517362
 10
127.93956942950634
 20
14.939133858267716
 10
127.94527396090419
 20
14.927561975982885
 10
127.9494019070842
 20
14.915395510683359
 10
127.95191023347662
 20
14.902795069569715
 10
127.95275590551181
 20
14.88992125984252
  0
LWPOLYLINE
  5
1D6
330
17
100
AcDbEntity
  8
Corner elevation
100
AcDbPolyline
 90
21
 70
0
 10
127.85433070866142
 20
14.693070866141733
 10
127.92054712490773
 20
14.687201779343013
 10
127.97722837721456
 20
14.670334461122048
 10
128.0245258173905
 20
14.643578824741635
 10
128.0625907972441
 20
14.608044783464566
 10
128.11162878321852
 20
14.515081139271652
 10
128.12555314960628
 20
14.400322834645669
 10
128.10557471087597
 20
14.272649175688976
 10
128.05290428149604
 20
14.140939468503937
 10
127.96875267593504
 20
14.014073019192912
 10
127.85433070866142
 20
13.900929133858266
 10
127.7399087413878
 20
14.014073019192912
 10
127.65575713582678
 20
14.140939468503937
 10
127.60308670644685
 20
14.272649175688976
 10
127.58310826771654
 20
14.400322834645669
 10
127.59703263410432
 20
14.515081139271652
 10
127.64607062007875
 20
14.608044783464566
 10
127.68413559993233
 20
14.643578824741635
 10
127.73143304010827
 20
14.670334461122048
 10
127.7881142924151
 20
14.687201779343013
 10
127.85433070866142
 20
14.693070866141733
  0
LWPOLYLINE
  5
1D7
330
17
100
AcDbEntity
  8
Corner elevation
100
AcDbPolyline
 90
2
 70
0
 10
127.85433070866142
 20
14.589748031496065
 10
127.85433070866142
 20
14.073133858267717
  0
LWPOLYLINE
  5
1D8
330
17
100
AcDbEntity
  8
Corner elevation
100
AcDbPolyline
 90
5
 70
0
 10
127.70279055118111
 20
14.520866141732283
 10
127.74325866141731
 20
14.402475393700788
 10
127.78200472440946
 20
14.288389763779529
 10
127.81902874015748
 20
14.178609251968505
 10
127.85433070866142
 20
14.073133858267717
  0
LWPOLYLINE
  5
1D9
330
17
100
AcDbEntity
  8
Corner elevation
100
AcDbPolyline
 90
5
 70
0
 10
128.00587086614172
 20
14.520866141732283
 10
127.96540275590552
 20
14.402475393700788
 10
127.92665669291337
 20
14.288389763779529
 10
127.88963267716535
 20
14.178609251968505
 10
127.85433070866142
 20
14.073133858267717
  0
LWPOLYLINE
  5
1DA
330
17
100
AcDbEntity
  8
Corner elevation
100
AcDbPolyline
 90
49
 70
0
 10
127.95275590551181
 20
13.743448818897637
 10
127.95191023347662
 20
13.730575009170442
 10
127.9494019070842
 20
13.717974568056798
 10
127.94527396090419
 20
13.705808102757272
 10
127.93956942950634
 20
13.69423622047244
 10
127.932400151177
 20
13.683510010222795
 10
127.92392765624335
 20
13.673851871315707
 10
127.91426951733627
 20
13.66537937638205
 10
127.90354330708661
 20
13.658210098052711
 10
127.89197142480178
 20
13.652505566654856
 10
127.87980495950225
 20
13.648377620474866
 10
127.8672045183886
 20
13.645869294082432
 10
127.85433070866142
 20
13.645023622047244
 10
127.84145689893423
 20
13.645869294082432
 10
127.82885645782058
 20
13.648377620474866
 10
127.81668999252105
 20
13.652505566654856
 10
127.80511811023622
 20
13.658210098052711
 10
127.79439189998658
 20
13.66537937638205
 10
127.78473376107948
 20
13.673851871315707
 10
127.77626126614582
 20
13.683510010222795
 10
127.7690919878165
 20
13.69423622047244
 10
127.76338745641864
 20
13.705808102757272
 10
127.75925951023864
 20
13.717974568056798
 10
127.7567511838462
 20
13.730575009170442
 10
127.75590551181102
 20
13.743448818897637
 10
127.7567511838462
 20
13.756322628624831
 10
127.75925951023864
 20
13.768923069738477
 10
127.76338745641864
 20
13.781089535038001
 10
127.7690919878165
 20
13.792661417322835
 10
127.77626126614582
 20
13.803387627572478
 10
127.78473376107948
 20
13.813045766479568
 10
127.79439189998658
 20
13.821518261413223
 10
127.80511811023622
 20
13.828687539742562
 10
127.81668999252105
 20
13.834392071140417
 10
127.82885645782058
 20
13.838520017320409
 10
127.84145689893423
 20
13.841028343712843
 10
127.85433070866142
 20
13.841874015748031
 10
127.8672045183886
 20
13.841028343712843
 10
127.87980495950225
 20
13.838520017320409
 10
127.89197142480178
 20
13.834392071140417
 10
127.90354330708661
 20
13.828687539742562
 10
127.91426951733627
 20
13.821518261413223
 10
127.92392765624335
 20
13.813045766479568
 10
127.932400151177
 20
13.803387627572478
 10
127.93956942950634
 20
13.792661417322835
 10
127.94527396090419
 20
13.781089535038001
 10
127.9494019070842
 20
13.768923069738477
 10
127.95191023347662
 20
13.756322628624831
 10
127.95275590551181
 20
13.743448818897637
  0
LWPOLYLINE
  5
1DB
330
17
100
AcDbEntity
  8
Corner elevation
100
AcDbPolyline
 90
19
 70
0
 10
127.85433070866142
 20
13.54659842519685
 10
127.9139254832831
 20
13.541316247078
 10
127.96493861035924
 20
13.526135660679133
 10
128.04176478838582
 20
13.470074950787401
 10
128.0858989757628
 20
13.386407671013778
 10
128.0984309055118
 20
13.283125196850392
 10
128.08045031065453
 20
13.16821890378937
 10
128.0330469242126
 20
13.049680167322833
 10
127.95731047920768
 20
12.935500362942912
 10
127.85433070866142
 20
12.833670866141732
 10
127.75135093811515
 20
12.935500362942912
 10
127.67561449311023
 20
13.049680167322833
 10
127.6282111066683
 20
13.16821890378937
 10
127.61023051181103
 20
13.283125196850392
 10
127.62276244156003
 20
13.386407671013778
 10
127.66689662893701
 20
13.470074950787401
 10
127.74372280696359
 20
13.526135660679133
 10
127.79473593403974
 20
13.541316247078
 10
127.85433070866142
 20
13.54659842519685
  0
LWPOLYLINE
  5
1DC
330
17
100
AcDbEntity
  8
Corner elevation
100
AcDbPolyline
 90
2
 70
0
 10
127.85433070866142
 20
13.453607874015747
 10
127.85433070866142
 20
12.988655118110236
  0
LWPOLYLINE
  5
1DD
330
17
100
AcDbEntity
  8
Corner elevation
100
AcDbPolyline
 90
5
 70
0
 10
127.71794456692913
 20
13.391614173228346
 10
127.75436586614173
 20
13.285062499999999
 10
127.78923732283464
 20
13.182385433070865
 10
127.82255893700787
 20
13.083582972440945
 10
127.85433070866142
 20
12.988655118110236
  0
LWPOLYLINE
  5
1DE
330
17
100
AcDbEntity
  8
Corner elevation
100
AcDbPolyline
 90
5
 70
0
 10
127.9907168503937
 20
13.391614173228346
 10
127.9542955511811
 20
13.285062499999999
 10
127.91942409448819
 20
13.182385433070865
 10
127.88610248031496
 20
13.083582972440945
 10
127.85433070866142
 20
12.988655118110236
  0
LWPOLYLINE
  5
1DF
330
17
100
AcDbEntity
  8
Corner elevation
100
AcDbPolyline
 90
49
 70
0
 10
127.95275590551181
 20
12.6761905511811
 10
127.95191023347662
 20
12.663316741453906
 10
127.9494019070842
 20
12.650716300340262
 10
127.94527396090419
 20
12.638549835040738
 10
127.93956942950634
 20
12.626977952755905
 10
127.932400151177
 20
12.616251742506261
 10
127.92392765624335
 20
12.60659360359917
 10
127.91426951733627
 20
12.598121108665515
 10
127.90354330708661
 20
12.590951830336175
 10
127.89197142480178
 20
12.58524729893832
 10
127.87980495950225
 20
12.58111935275833
 10
127.8672045183886
 20
12.578611026365897
 10
127.85433070866142
 20
12.577765354330708
 10
127.84145689893423
 20
12.578611026365897
 10
127.82885645782058
 20
12.58111935275833
 10
127.81668999252105
 20
12.58524729893832
 10
127.80511811023622
 20
12.590951830336175
 10
127.79439189998658
 20
12.598121108665515
 10
127.78473376107948
 20
12.60659360359917
 10
127.77626126614582
 20
12.616251742506261
 10
127.7690919878165
 20
12.626977952755905
 10
127.76338745641864
 20
12.638549835040738
 10
127.75925951023864
 20
12.650716300340262
 10
127.7567511838462
 20
12.663316741453906
 10
127.75590551181102
 20
12.6761905511811
 10
127.7567511838462
 20
12.689064360908295
 10
127.75925951023864
 20
12.701664802021941
 10
127.76338745641864
 20
12.713831267321465
 10
127.7690919878165
 20
12.725403149606299
 10
127.77626126614582
 20
12.736129359855942
 10
127.78473376107948
 20
12.745787498763033
 10
127.79439189998658
 20
12.754259993696687
 10
127.80511811023622
 20
12.761429272026026
 10
127.81668999252105
 20
12.767133803423881
 10
127.82885645782058
 20
12.771261749603873
 10
127.84145689893423
 20
12.773770075996307
 10
127.85433070866142
 20
12.774615748031495
 10
127.8672045183886
 20
12.773770075996307
 10
127.87980495950225
 20
12.771261749603873
 10
127.89197142480178
 20
12.767133803423881
 10
127.90354330708661
 20
12.761429272026026
 10
127.91426951733627
 20
12.754259993696687
 10
127.92392765624335
 20
12.745787498763033
 10
127.932400151177
 20
12.736129359855942
 10
127.93956942950634
 20
12.725403149606299
 10
127.94527396090419
 20
12.713831267321465
 10
127.9494019070842
 20
12.701664802021941
 10
127.95191023347662
 20
12.689064360908295
 10
127.95275590551181
 20
12.6761905511811
  0
LWPOLYLINE
  5
1E0
330
17
100
AcDbEntity
  8
Corner elevation
100
AcDbPolyline
 90
17
 70
0
 10
127.85433070866142
 20
12.479340157480314
 10
127.95387782018948
 20
12.46092366941437
 10
128.02302138041338
 20
12.41046903051181
 10
128.06274214905267
 20
12.33516847871555
 10
128.07402088582677
 20
12.242214251968502
 10
128.05783835045523
 20
12.13879858821358
 10
128.01517530265747
 20
12.0321137253937
 10
127.94701250215304
 20
11.92935190145177
 10
127.85433070866142
 20
11.837705354330707
 10
127.76164891516979
 20
11.92935190145177
 10
127.69348611466535
 20
12.0321137253937
 10
127.65082306686762
 20
12.13879858821358
 10
127.63464053149606
 20
12.242214251968502
 10
127.64591926827018
 20
12.33516847871555
 10
127.68564003690943
 20
12.41046903051181
 10
127.75478359713335
 20
12.46092366941437
 10
127.85433070866142
 20
12.479340157480314
  0
LWPOLYLINE
  5
1E1
330
17
100
AcDbEntity
  8
Corner elevation
100
AcDbPolyline
 90
2
 70
0
 10
127.85433070866142
 20
12.395648661417322
 10
127.85433070866142
 20
11.977191181102361
  0
LWPOLYLINE
  5
1E2
330
17
100
AcDbEntity
  8
Corner elevation
100
AcDbPolyline
 90
5
 70
0
 10
127.73158318110237
 20
12.339854330708661
 10
127.76436235039371
 20
12.243957824803148
 10
127.79574666141731
 20
12.151548464566927
 10
127.82573611417322
 20
12.06262625
 10
127.85433070866142
 20
11.977191181102361
  0
LWPOLYLINE
  5
1E3
330
17
100
AcDbEntity
  8
Corner elevation
100
AcDbPolyline
 90
5
 70
0
 10
127.97707823622046
 20
12.339854330708661
 10
127.94429906692912
 20
12.243957824803148
 10
127.91291475590552
 20
12.151548464566927
 10
127.8829253031496
 20
12.06262625
 10
127.85433070866142
 20
11.977191181102361
  0
LWPOLYLINE
  5
1E4
330
17
100
AcDbEntity
  8
Corner elevation
100
AcDbPolyline
 90
49
 70
0
 10
127.95275590551181
 20
11.680225039370077
 10
127.95191023347662
 20
11.667351229642883
 10
127.9494019070842
 20
11.654750788529238
 10
127.94527396090419
 20
11.642584323229713
 10
127.93956942950634
 20
11.63101244094488
 10
127.932400151177
 20
11.620286230695235
 10
127.92392765624335
 20
11.610628091788147
 10
127.91426951733627
 20
11.602155596854491
 10
127.90354330708661
 20
11.594986318525152
 10
127.89197142480178
 20
11.589281787127296
 10
127.87980495950225
 20
11.585153840947306
 10
127.8672045183886
 20
11.582645514554873
 10
127.85433070866142
 20
11.581799842519684
 10
127.84145689893423
 20
11.582645514554873
 10
127.82885645782058
 20
11.585153840947306
 10
127.81668999252105
 20
11.589281787127296
 10
127.80511811023622
 20
11.594986318525152
 10
127.79439189998658
 20
11.602155596854491
 10
127.78473376107948
 20
11.610628091788147
 10
127.77626126614582
 20
11.620286230695235
 10
127.7690919878165
 20
11.63101244094488
 10
127.76338745641864
 20
11.642584323229713
 10
127.75925951023864
 20
11.654750788529238
 10
127.7567511838462
 20
11.667351229642883
 10
127.75590551181102
 20
11.680225039370077
 10
127.7567511838462
 20
11.693098849097272
 10
127.75925951023864
 20
11.705699290210918
 10
127.76338745641864
 20
11.717865755510442
 10
127.7690919878165
 20
11.729437637795275
 10
127.77626126614582
 20
11.740163848044919
 10
127.78473376107948
 20
11.749821986952009
 10
127.79439189998658
 20
11.758294481885663
 10
127.80511811023622
 20
11.765463760215003
 10
127.81668999252105
 20
11.771168291612858
 10
127.82885645782058
 20
11.77529623779285
 10
127.84145689893423
 20
11.777804564185283
 10
127.85433070866142
 20
11.778650236220471
 10
127.8672045183886
 20
11.777804564185283
 10
127.87980495950225
 20
11.77529623779285
 10
127.89197142480178
 20
11.771168291612858
 10
127.90354330708661
 20
11.765463760215003
 10
127.91426951733627
 20
11.758294481885663
 10
127.92392765624335
 20
11.749821986952009
 10
127.932400151177
 20
11.740163848044919
 10
127.93956942950634
 20
11.729437637795275
 10
127.94527396090419
 20
11.717865755510442
 10
127.9494019070842
 20
11.705699290210918
 10
127.95191023347662
 20
11.693098849097272
 10
127.95275590551181
 20
11.680225039370077
  0
LWPOLYLINE
  5
1E5
330
17
100
AcDbEntity
  8
Corner elevation
100
AcDbPolyline
 90
17
 70
0
 10
127.85433070866142
 20
11.48337464566929
 10
127.94392310903667
 20
11.46679980640994
 10
128.00615231323818
 20
11.421390631397637
 10
128.04190100501353
 20
11.353620134781004
 10
128.05205186811025
 20
11.26996133070866
 10
128.03748758627583
 20
11.176887233329232
 10
127.99909084325787
 20
11.08087085679134
 10
127.9377443228039
 20
10.988385215243602
 10
127.85433070866142
 20
10.905903322834645
 10
127.77091709451895
 20
10.988385215243602
 10
127.70957057406495
 20
11.08087085679134
 10
127.671173831047
 20
11.176887233329232
 10
127.65660954921259
 20
11.26996133070866
 10
127.6667604123093
 20
11.353620134781004
 10
127.70250910408465
 20
11.421390631397637
 10
127.76473830828617
 20
11.46679980640994
 10
127.85433070866142
 20
11.48337464566929
  0
LWPOLYLINE
  5
1E6
330
17
100
AcDbEntity
  8
Corner elevation
100
AcDbPolyline
 90
2
 70
0
 10
127.85433070866142
 20
11.408052299212597
 10
127.85433070866142
 20
11.031440566929131
  0
LWPOLYLINE
  5
1E7
330
17
100
AcDbEntity
  8
Corner elevation
100
AcDbPolyline
 90
5
 70
0
 10
127.74385793385827
 20
11.357837401574802
 10
127.77335918622047
 20
11.271530546259841
 10
127.80160506614172
 20
11.188362122047243
 10
127.82859557362205
 20
11.108332128937006
 10
127.85433070866142
 20
11.031440566929131
  0
LWPOLYLINE
  5
1E8
330
17
100
AcDbEntity
  8
Corner elevation
100
AcDbPolyline
 90
5
 70
0
 10
127.96480348346456
 20
11.357837401574802
 10
127.93530223110236
 20
11.271530546259841
 10
127.90705635118111
 20
11.188362122047243
 10
127.88006584370078
 20
11.108332128937006
 10
127.85433070866142
 20
11.031440566929131
  0
LWPOLYLINE
  5
1E9
330
17
100
AcDbEntity
  8
Corner elevation
100
AcDbPolyline
 90
49
 70
0
 10
127.95275590551181
 20
10.748423007874015
 10
127.95191023347662
 20
10.73554919814682
 10
127.9494019070842
 20
10.722948757033176
 10
127.94527396090419
 20
10.71078229173365
 10
127.93956942950634
 20
10.699210409448819
 10
127.932400151177
 20
10.688484199199173
 10
127.92392765624335
 20
10.678826060292083
 10
127.91426951733627
 20
10.670353565358429
 10
127.90354330708661
 20
10.66318428702909
 10
127.89197142480178
 20
10.657479755631234
 10
127.87980495950225
 20
10.653351809451244
 10
127.8672045183886
 20
10.650843483058809
 10
127.85433070866142
 20
10.649997811023622
 10
127.84145689893423
 20
10.650843483058809
 10
127.82885645782058
 20
10.653351809451244
 10
127.81668999252105
 20
10.657479755631234
 10
127.80511811023622
 20
10.66318428702909
 10
127.79439189998658
 20
10.670353565358429
 10
127.78473376107948
 20
10.678826060292083
 10
127.77626126614582
 20
10.688484199199173
 10
127.7690919878165
 20
10.699210409448819
 10
127.76338745641864
 20
10.71078229173365
 10
127.75925951023864
 20
10.722948757033176
 10
127.7567511838462
 20
10.73554919814682
 10
127.75590551181102
 20
10.748423007874015
 10
127.7567511838462
 20
10.76129681760121
 10
127.75925951023864
 20
10.773897258714856
 10
127.76338745641864
 20
10.78606372401438
 10
127.7690919878165
 20
10.797635606299211
 10
127.77626126614582
 20
10.808361816548857
 10
127.78473376107948
 20
10.818019955455947
 10
127.79439189998658
 20
10.826492450389601
 10
127.80511811023622
 20
10.83366172871894
 10
127.81668999252105
 20
10.839366260116796
 10
127.82885645782058
 20
10.843494206296786
 10
127.84145689893423
 20
10.846002532689221
 10
127.85433070866142
 20
10.84684820472441
 10
127.8672045183886
 20
10.846002532689221
 10
127.87980495950225
 20
10.843494206296786
 10
127.89197142480178
 20
10.839366260116796
 10
127.90354330708661
 20
10.83366172871894
 10
127.91426951733627
 20
10.826492450389601
 10
127.92392765624335
 20
10.818019955455947
 10
127.932400151177
 20
10.808361816548857
 10
127.93956942950634
 20
10.797635606299211
 10
127.94527396090419
 20
10.78606372401438
 10
127.9494019070842
 20
10.773897258714856
 10
127.95191023347662
 20
10.76129681760121
 10
127.95275590551181
 20
10.748423007874015
  0
LWPOLYLINE
  5
1EA
330
17
100
AcDbEntity
  8
Corner elevation
100
AcDbPolyline
 90
17
 70
0
 10
127.85433070866142
 20
10.551572614173228
 10
127.93496386899913
 20
10.536655258839813
 10
127.9909701527805
 20
10.49578700132874
 10
128.02314397537833
 20
10.434793554373769
 10
128.03227975216535
 20
10.359500630708661
 10
128.0191718985144
 20
10.275733943067175
 10
127.98461482979823
 20
10.189319204183072
 10
127.92940296138963
 20
10.106082126790108
 10
127.85433070866142
 20
10.031848423622048
 10
127.7792584559332
 20
10.106082126790108
 10
127.7240465875246
 20
10.189319204183072
 10
127.68948951880843
 20
10.275733943067175
 10
127.67638166515748
 20
10.359500630708661
 10
127.68551744194451
 20
10.434793554373769
 10
127.71769126454232
 20
10.49578700132874
 10
127.7736975483237
 20
10.536655258839813
 10
127.85433070866142
 20
10.551572614173228
  0
LWPOLYLINE
  5
1EB
330
17
100
AcDbEntity
  8
Corner elevation
100
AcDbPolyline
 90
2
 70
0
 10
127.85433070866142
 20
10.483782502362203
 10
127.85433070866142
 20
10.144831943307086
  0
LWPOLYLINE
  5
1EC
330
17
100
AcDbEntity
  8
Corner elevation
100
AcDbPolyline
 90
5
 70
0
 10
127.75490521133857
 20
10.438589094488188
 10
127.78145633846457
 20
10.360912924704724
 10
127.8068776303937
 20
10.286061342913385
 10
127.83116908712599
 20
10.214034349114172
 10
127.85433070866142
 20
10.144831943307086
  0
LWPOLYLINE
  5
1ED
330
17
100
AcDbEntity
  8
Corner elevation
100
AcDbPolyline
 90
5
 70
0
 10
127.95375620598426
 20
10.438589094488188
 10
127.92720507885826
 20
10.360912924704724
 10
127.90178378692913
 20
10.286061342913385
 10
127.87749233019684
 20
10.214034349114172
 10
127.85433070866142
 20
10.144831943307086
  0
LWPOLYLINE
  5
1EE
330
17
100
AcDbEntity
  8
Corner elevation
100
AcDbPolyline
 90
49
 70
0
 10
127.95275590551181
 20
9.874368108661418
 10
127.95191023347662
 20
9.861494298934224
 10
127.9494019070842
 20
9.848893857820578
 10
127.94527396090419
 20
9.836727392521054
 10
127.93956942950634
 20
9.82515551023622
 10
127.932400151177
 20
9.814429299986577
 10
127.92392765624335
 20
9.804771161079486
 10
127.91426951733627
 20
9.796298666145832
 10
127.90354330708661
 20
9.789129387816493
 10
127.89197142480178
 20
9.783424856418637
 10
127.87980495950225
 20
9.779296910238646
 10
127.8672045183886
 20
9.776788583846212
 10
127.85433070866142
 20
9.775942911811024
 10
127.84145689893423
 20
9.776788583846212
 10
127.82885645782058
 20
9.779296910238646
 10
127.81668999252105
 20
9.783424856418637
 10
127.80511811023622
 20
9.789129387816493
 10
127.79439189998658
 20
9.796298666145832
 10
127.78473376107948
 20
9.804771161079486
 10
127.77626126614582
 20
9.814429299986577
 10
127.7690919878165
 20
9.82515551023622
 10
127.76338745641864
 20
9.836727392521054
 10
127.75925951023864
 20
9.848893857820578
 10
127.7567511838462
 20
9.861494298934224
 10
127.75590551181102
 20
9.874368108661418
 10
127.7567511838462
 20
9.887241918388613
 10
127.75925951023864
 20
9.899842359502257
 10
127.76338745641864
 20
9.91200882480178
 10
127.7690919878165
 20
9.923580707086614
 10
127.77626126614582
 20
9.934306917336258
 10
127.78473376107948
 20
9.943965056243348
 10
127.79439189998658
 20
9.952437551177004
 10
127.80511811023622
 20
9.959606829506344
 10
127.81668999252105
 20
9.965311360904199
 10
127.82885645782058
 20
9.969439307084189
 10
127.84145689893423
 20
9.971947633476622
 10
127.85433070866142
 20
9.97279330551181
 10
127.8672045183886
 20
9.971947633476622
 10
127.87980495950225
 20
9.969439307084189
 10
127.89197142480178
 20
9.965311360904199
 10
127.90354330708661
 20
9.959606829506344
 10
127.91426951733627
 20
9.952437551177004
 10
127.92392765624335
 20
9.943965056243348
 10
127.932400151177
 20
9.934306917336258
 10
127.93956942950634
 20
9.923580707086614
 10
127.94527396090419
 20
9.91200882480178
 10
127.9494019070842
 20
9.899842359502257
 10
127.95191023347662
 20
9.887241918388613
 10
127.95275590551181
 20
9.874368108661418
  0
LWPOLYLINE
  5
1EF
330
17
100
AcDbEntity
  8
Corner elevation
100
AcDbPolyline
 90
17
 70
0
 10
127.85433070866142
 20
9.67751771496063
 10
127.92690055296536
 20
9.664092095160557
 10
127.97730620836859
 20
9.627310663400591
 10
128.00626264870664
 20
9.572416561141116
 10
128.01448484781494
 20
9.50465292984252
 10
128.0026877795291
 20
9.42926291096518
 10
127.97158641768455
 20
9.351489645969487
 10
127.92189573611681
 20
9.276576276315824
 10
127.85433070866142
 20
9.209765943464568
 10
127.78676568120602
 20
9.276576276315824
 10
127.73707499963828
 20
9.351489645969487
 10
127.70597363779373
 20
9.42926291096518
 10
127.69417656950787
 20
9.50465292984252
 10
127.7023987686162
 20
9.572416561141116
 10
127.73135520895424
 20
9.627310663400591
 10
127.78176086435747
 20
9.664092095160557
 10
127.85433070866142
 20
9.67751771496063
  0
LWPOLYLINE
  5
1F0
330
17
100
AcDbEntity
  8
Corner elevation
100
AcDbPolyline
 90
2
 70
0
 10
127.85433070866142
 20
9.61650661433071
 10
127.85433070866142
 20
9.311451111181102
  0
LWPOLYLINE
  5
1F1
330
17
100
AcDbEntity
  8
Corner elevation
100
AcDbPolyline
 90
5
 70
0
 10
127.76484776107087
 20
9.575832547244095
 10
127.78874377548425
 20
9.505923994438978
 10
127.81162293822048
 20
9.438557570826774
 10
127.83348524927953
 20
9.37373327640748
 10
127.85433070866142
 20
9.311451111181102
  0
LWPOLYLINE
  5
1F2
330
17
100
AcDbEntity
  8
Corner elevation
100
AcDbPolyline
 90
5
 70
0
 10
127.94381365625198
 20
9.575832547244095
 10
127.91991764183858
 20
9.505923994438978
 10
127.89703847910235
 20
9.438557570826774
 10
127.8751761680433
 20
9.37373327640748
 10
127.85433070866142
 20
9.311451111181102
  0
LWPOLYLINE
  5
1F3
330
17
100
AcDbEntity
  8
Corner elevation
100
AcDbPolyline
 90
49
 70
0
 10
127.95275590551181
 20
9.052285628503938
 10
127.95191023347662
 20
9.03941181877674
 10
127.9494019070842
 20
9.026811377663098
 10
127.94527396090419
 20
9.01464491236357
 10
127.93956942950634
 20
9.00307303007874
 10
127.932400151177
 20
8.992346819829098
 10
127.92392765624335
 20
8.982688680922006
 10
127.91426951733627
 20
8.974216185988352
 10
127.90354330708661
 20
8.967046907659013
 10
127.89197142480178
 20
8.96134237626116
 10
127.87980495950225
 20
8.957214430081166
 10
127.8672045183886
 20
8.954706103688732
 10
127.85433070866142
 20
8.953860431653544
 10
127.84145689893423
 20
8.954706103688732
 10
127.82885645782058
 20
8.957214430081166
 10
127.81668999252105
 20
8.96134237626116
 10
127.80511811023622
 20
8.967046907659013
 10
127.79439189998658
 20
8.974216185988352
 10
127.78473376107948
 20
8.982688680922006
 10
127.77626126614582
 20
8.992346819829098
 10
127.7690919878165
 20
9.00307303007874
 10
127.76338745641864
 20
9.01464491236357
 10
127.75925951023864
 20
9.026811377663098
 10
127.7567511838462
 20
9.03941181877674
 10
127.75590551181102
 20
9.052285628503938
 10
127.7567511838462
 20
9.065159438231134
 10
127.75925951023864
 20
9.077759879344777
 10
127.76338745641864
 20
9.089926344644304
 10
127.7690919878165
 20
9.101498226929134
 10
127.77626126614582
 20
9.112224437178776
 10
127.78473376107948
 20
9.121882576085868
 10
127.79439189998658
 20
9.130355071019524
 10
127.80511811023622
 20
9.137524349348864
 10
127.81668999252105
 20
9.143228880746715
 10
127.82885645782058
 20
9.147356826926709
 10
127.84145689893423
 20
9.149865153319142
 10
127.85433070866142
 20
9.15071082535433
 10
127.8672045183886
 20
9.149865153319142
 10
127.87980495950225
 20
9.147356826926709
 10
127.89197142480178
 20
9.143228880746715
 10
127.90354330708661
 20
9.137524349348864
 10
127.91426951733627
 20
9.130355071019524
 10
127.92392765624335
 20
9.121882576085868
 10
127.932400151177
 20
9.112224437178776
 10
127.93956942950634
 20
9.101498226929134
 10
127.94527396090419
 20
9.089926344644304
 10
127.9494019070842
 20
9.077759879344777
 10
127.95191023347662
 20
9.065159438231134
 10
127.95275590551181
 20
9.052285628503938
  0
LWPOLYLINE
  5
1F4
330
17
100
AcDbEntity
  8
Corner elevation
100
AcDbPolyline
 90
17
 70
0
 10
127.85433070866142
 20
8.85543523480315
 10
127.91964356853497
 20
8.843352176983082
 10
127.96500865839789
 20
8.810248888399114
 10
127.99106945470211
 20
8.760844196365587
 10
127.99846943389961
 20
8.69985692819685
 10
127.98785207244232
 20
8.632005911207246
 10
127.95986084678223
 20
8.562009972711122
 10
127.91513923337128
 20
8.494587940022821
 10
127.85433070866142
 20
8.434458640456695
 10
127.79352218395155
 20
8.494587940022821
 10
127.7488005705406
 20
8.562009972711122
 10
127.72080934488051
 20
8.632005911207246
 10
127.71019198342321
 20
8.69985692819685
 10
127.71759196262072
 20
8.760844196365587
 10
127.74365275892494
 20
8.810248888399114
 10
127.78901784878786
 20
8.843352176983082
 10
127.85433070866142
 20
8.85543523480315
  0
LWPOLYLINE
  5
1F5
330
17
100
AcDbEntity
  8
Corner elevation
100
AcDbPolyline
 90
2
 70
0
 10
127.85433070866142
 20
8.800525244236221
 10
127.85433070866142
 20
8.525975291401574
  0
LWPOLYLINE
  5
1F6
330
17
100
AcDbEntity
  8
Corner elevation
100
AcDbPolyline
 90
5
 70
0
 10
127.77379605582992
 20
8.763918583858267
 10
127.79530246880196
 20
8.701000886333658
 10
127.81589371526455
 20
8.640371105082677
 10
127.83556979521771
 20
8.582029240105312
 10
127.85433070866142
 20
8.525975291401574
  0
LWPOLYLINE
  5
1F7
330
17
100
AcDbEntity
  8
Corner elevation
100
AcDbPolyline
 90
5
 70
0
 10
127.93486536149291
 20
8.763918583858267
 10
127.91335894852087
 20
8.701000886333658
 10
127.89276770205828
 20
8.640371105082677
 10
127.87309162210512
 20
8.582029240105312
 10
127.85433070866142
 20
8.525975291401574
  0
LWPOLYLINE
  5
1F8
330
17
100
AcDbEntity
  8
Corner elevation
100
AcDbPolyline
 90
49
 70
0
 10
127.95275590551181
 20
8.276978325496065
 10
127.95191023347662
 20
8.264104515768869
 10
127.9494019070842
 20
8.251504074655225
 10
127.94527396090419
 20
8.2393376093557
 10
127.93956942950634
 20
8.227765727070869
 10
127.932400151177
 20
8.217039516821226
 10
127.92392765624335
 20
8.207381377914134
 10
127.91426951733627
 20
8.19890888298048
 10
127.90354330708661
 20
8.19173960465114
 10
127.89197142480178
 20
8.186035073253286
 10
127.87980495950225
 20
8.181907127073295
 10
127.8672045183886
 20
8.17939880068086
 10
127.85433070866142
 20
8.178553128645671
 10
127.84145689893423
 20
8.17939880068086
 10
127.82885645782058
 20
8.181907127073295
 10
127.81668999252105
 20
8.186035073253286
 10
127.80511811023622
 20
8.19173960465114
 10
127.79439189998658
 20
8.19890888298048
 10
127.78473376107948
 20
8.207381377914134
 10
127.77626126614582
 20
8.217039516821226
 10
127.7690919878165
 20
8.227765727070869
 10
127.76338745641864
 20
8.2393376093557
 10
127.75925951023864
 20
8.251504074655225
 10
127.7567511838462
 20
8.264104515768869
 10
127.75590551181102
 20
8.276978325496065
 10
127.7567511838462
 20
8.289852135223262
 10
127.75925951023864
 20
8.302452576336904
 10
127.76338745641864
 20
8.314619041636432
 10
127.7690919878165
 20
8.326190923921262
 10
127.77626126614582
 20
8.336917134170903
 10
127.78473376107948
 20
8.346575273077997
 10
127.79439189998658
 20
8.355047768011651
 10
127.80511811023622
 20
8.36221704634099
 10
127.81668999252105
 20
8.367921577738844
 10
127.82885645782058
 20
8.372049523918836
 10
127.84145689893423
 20
8.374557850311271
 10
127.85433070866142
 20
8.375403522346458
 10
127.8672045183886
 20
8.374557850311271
 10
127.87980495950225
 20
8.372049523918836
 10
127.89197142480178
 20
8.367921577738844
 10
127.90354330708661
 20
8.36221704634099
 10
127.91426951733627
 20
8.355047768011651
 10
127.92392765624335
 20
8.346575273077997
 10
127.932400151177
 20
8.336917134170903
 10
127.93956942950634
 20
8.326190923921262
 10
127.94527396090419
 20
8.314619041636432
 10
127.9494019070842
 20
8.302452576336904
 10
127.95191023347662
 20
8.289852135223262
 10
127.95275590551181
 20
8.276978325496065
  0
LWPOLYLINE
  5
1F9
330
17
100
AcDbEntity
  8
Corner elevation
100
AcDbPolyline
 90
5
 70
0
 10
127.18503937007874
 20
5.708661417322834
 10
128.5236220472441
 20
5.708661417322834
 10
128.5236220472441
 20
3.3464566929133857
 10
127.18503937007874
 20
3.3464566929133857
 10
127.18503937007874
 20
5.708661417322834
  0
LWPOLYLINE
  5
1FA
330
17
100
AcDbEntity
  8
Corner elevation
100
AcDbPolyline
 90
2
 70
0
 10
127.18503937007874
 20
5.393700787401575
 10
128.5236220472441
 20
5.393700787401575
  0
LWPOLYLINE
  5
1FB
330
17
100
AcDbEntity
  8
Corner elevation
100
AcDbPolyline
 90
5
 70
0
 10
127.06692913385827
 20
28.149606299212596
 10
128.64173228346456
 20
28.149606299212596
 10
128.64173228346456
 20
27.677165354330707
 10
127.06692913385827
 20
27.677165354330707
 10
127.06692913385827
 20
28.149606299212596
  0
LWPOLYLINE
  5
1FC
330
17
100
AcDbEntity
  8
Corner elevation
100
AcDbPolyline
 90
5
 70
0
 10
127.26377952755905
 20
27.677165354330707
 10
128.44488188976376
 20
27.677165354330707
 10
128.248031496063
 20
21.8503937007874
 10
127.46062992125984
 20
21.8503937007874
 10
127.26377952755905
 20
27.677165354330707
  0
LWPOLYLINE
  5
1FD
330
17
100
AcDbEntity
  8
Corner elevation
100
AcDbPolyline
 90
2
 70
0
 10
127.5
 20
27.440944881889763
 10
127.61811023622047
 20
22.086614173228345
  0
LWPOLYLINE
  5
1FE
330
17
100
AcDbEntity
  8
Corner elevation
100
AcDbPolyline
 90
2
 70
0
 10
127.73622047244095
 20
27.440944881889763
 10
127.7755905511811
 20
22.086614173228345
  0
LWPOLYLINE
  5
1FF
330
17
100
AcDbEntity
  8
Corner elevation
100
AcDbPolyline
 90
2
 70
0
 10
127.97244094488188
 20
27.440944881889763
 10
127.93307086614173
 20
22.086614173228345
  0
LWPOLYLINE
  5
200
330
17
100
AcDbEntity
  8
Corner elevation
100
AcDbPolyline
 90
2
 70
0
 10
128.20866141732284
 20
27.440944881889763
 10
128.09055118110237
 20
22.086614173228345
  0
LWPOLYLINE
  5
201
330
17
100
AcDbEntity
  8
Corner elevation
100
AcDbPolyline
 90
53
 70
0
 10
127.69685039370079
 20
21.8503937007874
 10
128.01181102362204
 20
21.8503937007874
 10
128.06330626253083
 20
21.84701101264665
 10
128.1137080269854
 20
21.83697770707691
 10
128.1623738881835
 20
21.82046592235695
 10
128.20866141732284
 20
21.797647796765528
 10
128.25156625832142
 20
21.768970683448167
 10
128.29019881394976
 20
21.735080703713553
 10
128.32408879368438
 20
21.696448148085192
 10
128.35276590700175
 20
21.653543307086615
 10
128.37558403259317
 20
21.607255777947284
 10
128.39209581731313
 20
21.558589916749188
 10
128.40212912288285
 20
21.508188152294604
 10
128.40551181102362
 20
21.456692913385826
 10
128.40551181102362
 20
21.37795275590551
 10
128.40212912288285
 20
21.326457516996733
 10
128.39209581731313
 20
21.27605575254215
 10
128.37558403259317
 20
21.227389891344053
 10
128.35276590700175
 20
21.181102362204726
 10
128.32408879368438
 20
21.138197521206145
 10
128.29019881394976
 20
21.099564965577787
 10
128.25156625832142
 20
21.06567498584317
 10
128.20866141732284
 20
21.03699787252581
 10
128.1623738881835
 20
21.01417974693439
 10
128.1137080269854
 20
20.99766796221443
 10
128.06330626253083
 20
20.98763465664469
 10
128.01181102362204
 20
20.984251968503937
 10
127.69685039370079
 20
20.984251968503937
 10
127.645355154792
 20
20.98763465664469
 10
127.59495339033742
 20
20.99766796221443
 10
127.54628752913932
 20
21.01417974693439
 10
127.5
 20
21.03699787252581
 10
127.45709515900141
 20
21.06567498584317
 10
127.41846260337306
 20
21.099564965577787
 10
127.38457262363845
 20
21.138197521206145
 10
127.35589551032109
 20
21.181102362204726
 10
127.33307738472968
 20
21.227389891344053
 10
127.3165656000097
 20
21.27605575254215
 10
127.30653229443996
 20
21.326457516996733
 10
127.30314960629921
 20
21.37795275590551
 10
127.30314960629921
 20
21.456692913385826
 10
127.30653229443996
 20
21.508188152294604
 10
127.3165656000097
 20
21.558589916749188
 10
127.33307738472968
 20
21.607255777947284
 10
127.35589551032109
 20
21.653543307086615
 10
127.38457262363845
 20
21.696448148085192
 10
127.41846260337306
 20
21.735080703713553
 10
127.45709515900141
 20
21.768970683448167
 10
127.5
 20
21.797647796765528
 10
127.54628752913932
 20
21.82046592235695
 10
127.59495339033742
 20
21.83697770707691
 10
127.645355154792
 20
21.84701101264665
 10
127.69685039370079
 20
21.8503937007874
  0
LWPOLYLINE
  5
202
330
17
100
AcDbEntity
  8
Corner elevation
100
AcDbPolyline
 90
49
 70
0
 10
128.0511811023622
 20
21.41732283464567
 10
128.04948975829183
 20
21.39157521519128
 10
128.04447310550697
 20
21.36637433296399
 10
128.03621721314698
 20
21.34204140236494
 10
128.02480815035128
 20
21.318897637795274
 10
128.0104695936926
 20
21.297445217295987
 10
127.99352460382526
 20
21.278128939481807
 10
127.97420832601111
 20
21.2611839496145
 10
127.95275590551181
 20
21.24684539295582
 10
127.92961214094214
 20
21.23543633016011
 10
127.9052792103431
 20
21.227180437800126
 10
127.88007832811581
 20
21.22216378501526
 10
127.85433070866142
 20
21.22047244094488
 10
127.82858308920702
 20
21.22216378501526
 10
127.80338220697973
 20
21.227180437800126
 10
127.77904927638069
 20
21.23543633016011
 10
127.75590551181102
 20
21.24684539295582
 10
127.73445309131174
 20
21.2611839496145
 10
127.71513681349757
 20
21.278128939481807
 10
127.69819182363025
 20
21.297445217295987
 10
127.68385326697157
 20
21.318897637795274
 10
127.67244420417586
 20
21.34204140236494
 10
127.66418831181586
 20
21.36637433296399
 10
127.659171659031
 20
21.39157521519128
 10
127.65748031496062
 20
21.41732283464567
 10
127.659171659031
 20
21.44307045410006
 10
127.66418831181586
 20
21.468271336327348
 10
127.67244420417586
 20
21.492604266926396
 10
127.68385326697157
 20
21.515748031496063
 10
127.69819182363025
 20
21.53720045199535
 10
127.71513681349757
 20
21.55651672980953
 10
127.73445309131174
 20
21.573461719676835
 10
127.75590551181102
 20
21.58780027633552
 10
127.77904927638069
 20
21.59920933913123
 10
127.80338220697973
 20
21.60746523149121
 10
127.82858308920702
 20
21.61248188427608
 10
127.85433070866142
 20
21.614173228346456
 10
127.88007832811581
 20
21.61248188427608
 10
127.9052792103431
 20
21.60746523149121
 10
127.92961214094214
 20
21.59920933913123
 10
127.95275590551181
 20
21.58780027633552
 10
127.97420832601111
 20
21.573461719676835
 10
127.99352460382526
 20
21.55651672980953
 10
128.0104695936926
 20
21.53720045199535
 10
128.02480815035128
 20
21.515748031496063
 10
128.03621721314698
 20
21.492604266926396
 10
128.04447310550697
 20
21.468271336327348
 10
128.04948975829183
 20
21.44307045410006
 10
128.0511811023622
 20
21.41732283464567
  0
LWPOLYLINE
  5
203
330
17
100
AcDbEntity
  8
Corner elevation
100
AcDbPolyline
 90
49
 70
0
 10
128.0511811023622
 20
20.787401574803148
 10
128.04948975829183
 20
20.76165395534876
 10
128.04447310550697
 20
20.73645307312147
 10
128.03621721314698
 20
20.71212014252242
 10
128.02480815035128
 20
20.688976377952756
 10
128.0104695936926
 20
20.667523957453465
 10
127.99352460382526
 20
20.648207679639288
 10
127.97420832601111
 20
20.631262689771983
 10
127.95275590551181
 20
20.616924133113297
 10
127.92961214094214
 20
20.605515070317587
 10
127.9052792103431
 20
20.597259177957607
 10
127.88007832811581
 20
20.59224252517274
 10
127.85433070866142
 20
20.590551181102363
 10
127.82858308920702
 20
20.59224252517274
 10
127.80338220697973
 20
20.597259177957607
 10
127.77904927638069
 20
20.605515070317587
 10
127.75590551181102
 20
20.616924133113297
 10
127.73445309131174
 20
20.631262689771983
 10
127.71513681349757
 20
20.648207679639288
 10
127.69819182363025
 20
20.667523957453465
 10
127.68385326697157
 20
20.688976377952756
 10
127.67244420417586
 20
20.71212014252242
 10
127.66418831181586
 20
20.73645307312147
 10
127.659171659031
 20
20.76165395534876
 10
127.65748031496062
 20
20.787401574803148
 10
127.659171659031
 20
20.813149194257537
 10
127.66418831181586
 20
20.83835007648483
 10
127.67244420417586
 20
20.862683007083877
 10
127.68385326697157
 20
20.885826771653544
 10
127.69819182363025
 20
20.90727919215283
 10
127.71513681349757
 20
20.926595469967012
 10
127.73445309131174
 20
20.943540459834317
 10
127.75590551181102
 20
20.957879016493
 10
127.77904927638069
 20
20.96928807928871
 10
127.80338220697973
 20
20.977543971648693
 10
127.82858308920702
 20
20.98256062443356
 10
127.85433070866142
 20
20.984251968503937
 10
127.88007832811581
 20
20.98256062443356
 10
127.9052792103431
 20
20.977543971648693
 10
127.92961214094214
 20
20.96928807928871
 10
127.95275590551181
 20
20.957879016493
 10
127.97420832601111
 20
20.943540459834317
 10
127.99352460382526
 20
20.926595469967012
 10
128.0104695936926
 20
20.90727919215283
 10
128.02480815035128
 20
20.885826771653544
 10
128.03621721314698
 20
20.862683007083877
 10
128.04447310550697
 20
20.83835007648483
 10
128.04948975829183
 20
20.813149194257537
 10
128.0511811023622
 20
20.787401574803148
  0
LWPOLYLINE
  5
204
330
17
100
AcDbEntity
  8
Corner elevation
100
AcDbPolyline
 90
4
 70
0
 10
127.0275590551181
 20
24.606299212598426
 10
126.55511811023622
 20
24.606299212598426
 10
126.55511811023622
 20
5.708661417322834
 10
127.0275590551181
 20
5.708661417322834
  0
LWPOLYLINE
  5
205
330
17
100
AcDbEntity
  8
Corner elevation
100
AcDbPolyline
 90
2
 70
0
 10
126.81496062992126
 20
24.606299212598426
 10
126.81496062992126
 20
5.708661417322834
  0
LWPOLYLINE
  5
206
330
17
100
AcDbEntity
  8
Corner elevation
100
AcDbPolyline
 90
5
 70
0
 10
126.43700787401575
 20
20.511811023622048
 10
127.0275590551181
 20
20.511811023622048
 10
127.0275590551181
 20
20.039370078740156
 10
126.43700787401575
 20
20.039370078740156
 10
126.43700787401575
 20
20.511811023622048
  0
LWPOLYLINE
  5
207
330
17
100
AcDbEntity
  8
Corner elevation
100
AcDbPolyline
 90
5
 70
0
 10
126.43700787401575
 20
7.440944881889764
 10
127.0275590551181
 20
7.440944881889764
 10
127.0275590551181
 20
6.968503937007874
 10
126.43700787401575
 20
6.968503937007874
 10
126.43700787401575
 20
7.440944881889764
  0
LWPOLYLINE
  5
208
330
17
100
AcDbEntity
  8
Corner elevation
100
AcDbPolyline
 90
5
 70
0
 10
126.39763779527559
 20
5.708661417322834
 10
127.0275590551181
 20
5.708661417322834
 10
127.0275590551181
 20
3.3464566929133857
 10
126.39763779527559
 20
3.3464566929133857
 10
126.39763779527559
 20
5.708661417322834
  0
LWPOLYLINE
  5
209
330
17
100
AcDbEntity
  8
Corner elevation
100
AcDbPolyline
 90
35
 70
0
 10
127.0275590551181
 20
27.677165354330707
 10
126.16141732283464
 20
27.677165354330707
 10
126.16141732283464
 20
27.362204724409448
 10
126.35826771653544
 20
27.362204724409448
 10
126.36181448388287
 20
27.079712875246063
 10
126.3718780757874
 20
26.818559301181104
 10
126.40809547244095
 20
26.334891732283463
 10
126.45999938484252
 20
25.860451525590552
 10
126.48967112143208
 20
25.610832154281496
 10
126.52066929133858
 20
25.344488188976378
 10
126.55212882935531
 20
25.055075818159448
 10
126.58318467027559
 20
24.73625123031496
 10
126.61297174889272
 20
24.381670613927167
 10
126.640625
 20
23.984990157480315
 10
126.65338110736036
 20
23.768880048136072
 10
126.66527935839075
 20
23.53986604945866
 10
126.67621161994033
 20
23.297155185008613
 10
126.68606975885827
 20
23.039954478346456
 10
126.69474564199372
 20
22.767470953032728
 10
126.70213113619586
 20
22.478911632627952
 10
126.70811810831385
 20
22.17348354069267
 10
126.71259842519684
 20
21.8503937007874
 10
126.65634996309055
 20
21.827652097687007
 10
126.60586860236221
 20
21.790262057086615
 10
126.56138502706693
 20
21.740184393454726
 10
126.52312992125984
 20
21.67937992125984
 10
126.46622785433071
 20
21.53343380905512
 10
126.43700787401575
 20
21.36811023622047
 10
126.4373154527559
 20
21.199095718503937
 10
126.46899606299212
 20
21.042076771653544
 10
126.49717796505905
 20
20.972967673474407
 10
126.53389517716535
 20
20.912739911417322
 10
126.57937838336613
 20
20.86335429995079
 10
126.63385826771653
 20
20.826771653543307
 10
127.0275590551181
 20
20.905511811023622
  0
LINE
  5
20A
330
17
100
AcDbEntity
  8
Corner elevation
100
AcDbLine
 10
125.45275590551181
 20
0.19685039370078738
 30
0.0
 11
132.57874015748033
 21
0.19685039370078738
 31
0.0
  0
TEXT
  5
20B
330
17
100
AcDbEntity
  8
LABELS
100
AcDbText
 10
125.45275590551181
 20
32.28346456692913
 30
0.0
 40
0.7086614173228346
  1
CORNER ELEVATION  (1:1, inches)
 11
125.45275590551181
 21
32.28346456692913
 31
0.0
100
AcDbText
  0
TEXT
  5
20C
330
17
100
AcDbEntity
  8
LABELS
100
AcDbText
 10
0.0
 20
-8.661417322834646
 30
0.0
 40
1.574803149606299
  1
Desk (square corners) — Details · AST-DR-029
 11
0.0
 21
-8.661417322834646
 31
0.0
100
AcDbText
  0
ENDSEC
  0
SECTION
  2
OBJECTS
  0
DICTIONARY
  5
A
330
0
100
AcDbDictionary
281
1
  3
ACAD_COLOR
350
B
  3
ACAD_GROUP
350
C
  3
ACAD_LAYOUT
350
D
  3
ACAD_MATERIAL
350
E
  3
ACAD_MLEADERSTYLE
350
F
  3
ACAD_MLINESTYLE
350
10
  3
ACAD_PLOTSETTINGS
350
11
  3
ACAD_PLOTSTYLENAME
350
12
  3
ACAD_SCALELIST
350
14
  3
ACAD_TABLESTYLE
350
15
  3
ACAD_VISUALSTYLE
350
16
  3
EZDXF_META
350
2D
  0
DICTIONARY
  5
B
330
A
100
AcDbDictionary
281
1
  0
DICTIONARY
  5
C
330
A
100
AcDbDictionary
281
1
  0
DICTIONARY
  5
D
330
A
100
AcDbDictionary
281
1
  3
Model
350
1A
  3
Layout1
350
1E
  0
DICTIONARY
  5
E
330
A
100
AcDbDictionary
281
1
  3
ByBlock
350
1F
  3
ByLayer
350
20
  3
Global
350
21
  0
DICTIONARY
  5
F
330
A
100
AcDbDictionary
281
1
  3
Standard
350
2C
  0
DICTIONARY
  5
10
330
A
100
AcDbDictionary
281
1
  3
Standard
350
22
  0
DICTIONARY
  5
11
330
A
100
AcDbDictionary
281
1
  0
ACDBDICTIONARYWDFLT
  5
12
330
A
100
AcDbDictionary
281
1
  3
Normal
350
13
100
AcDbDictionaryWithDefault
340
13
  0
ACDBPLACEHOLDER
  5
13
330
12
  0
DICTIONARY
  5
14
330
A
100
AcDbDictionary
281
1
  0
DICTIONARY
  5
15
330
A
100
AcDbDictionary
281
1
  0
DICTIONARY
  5
16
330
A
100
AcDbDictionary
281
1
  3
2dWireframe
350
5A
  3
Basic
350
5B
  3
Brighten
350
5C
  3
ColorChange
350
5D
  3
Conceptual
350
5E
  3
Dim
350
5F
  3
EdgeColorOff
350
60
  3
Facepattern
350
61
  3
Flat
350
62
  3
FlatWithEdges
350
63
  3
Gouraud
350
64
  3
GouraudWithEdges
350
65
  3
Hidden
350
66
  3
JitterOff
350
67
  3
Linepattern
350
68
  3
Modeling
350
69
  3
OverhangOff
350
6A
  3
Realistic
350
6B
  3
Shaded
350
6C
  3
Shaded with edges
350
6D
  3
Shades of Gray
350
6E
  3
Sketchy
350
6F
  3
Thicken
350
70
  3
Wireframe
350
71
  3
X-Ray
350
72
  0
LAYOUT
  5
1A
330
D
100
AcDbPlotSettings
  1

  4
A3
  6

 40
7.5
 41
20.0
 42
7.5
 43
20.0
 44
420.0
 45
297.0
 46
0.0
 47
0.0
 48
0.0
 49
0.0
140
0.0
141
0.0
142
1.0
143
1.0
 70
1024
 72
1
 73
0
 74
5
  7

 75
16
 76
0
 77
2
 78
300
147
1.0
148
0.0
149
0.0
100
AcDbLayout
  1
Model
 70
1
 71
0
 10
0.0
 20
0.0
 11
420.0
 21
297.0
 12
0.0
 22
0.0
 32
0.0
 14
1e+20
 24
1e+20
 34
1e+20
 15
-1e+20
 25
-1e+20
 35
-1e+20
146
0.0
 13
0.0
 23
0.0
 33
0.0
 16
1.0
 26
0.0
 36
0.0
 17
0.0
 27
1.0
 37
0.0
 76
1
330
17
  0
LAYOUT
  5
1E
330
D
100
AcDbPlotSettings
  1

  4
A3
  6

 40
7.5
 41
20.0
 42
7.5
 43
20.0
 44
420.0
 45
297.0
 46
0.0
 47
0.0
 48
0.0
 49
0.0
140
0.0
141
0.0
142
1.0
143
1.0
 70
0
 72
1
 73
0
 74
5
  7

 75
16
 76
0
 77
2
 78
300
147
1.0
148
0.0
149
0.0
100
AcDbLayout
  1
Layout1
 70
1
 71
1
 10
0.0
 20
0.0
 11
420.0
 21
297.0
 12
0.0
 22
0.0
 32
0.0
 14
1e+20
 24
1e+20
 34
1e+20
 15
-1e+20
 25
-1e+20
 35
-1e+20
146
0.0
 13
0.0
 23
0.0
 33
0.0
 16
1.0
 26
0.0
 36
0.0
 17
0.0
 27
1.0
 37
0.0
 76
1
330
1B
  0
MATERIAL
  5
1F
102
{ACAD_REACTORS
330
E
102
}
330
E
100
AcDbMaterial
  1
ByBlock
  2

 70
0
 40
1.0
 71
1
 41
1.0
 91
-1023410177
 42
1.0
 72
1
  3

 73
1
 74
1
 75
1
 44
0.5
 73
0
 45
1.0
 46
1.0
 77
1
  4

 78
1
 79
1
170
1
 48
1.0
171
1
  6

172
1
173
1
174
1
140
1.0
141
1.0
175
1
  7

176
1
177
1
178
1
143
1.0
179
1
  8

270
1
271
1
272
1
145
1.0
146
1.0
273
1
  9

274
1
275
1
276
1
 42
1.0
 72
1
  3

 73
1
 74
1
 75
1
 94
63
  0
MATERIAL
  5
20
102
{ACAD_REACTORS
330
E
102
}
330
E
100
AcDbMaterial
  1
ByLayer
  2

 70
0
 40
1.0
 71
1
 41
1.0
 91
-1023410177
 42
1.0
 72
1
  3

 73
1
 74
1
 75
1
 44
0.5
 73
0
 45
1.0
 46
1.0
 77
1
  4

 78
1
 79
1
170
1
 48
1.0
171
1
  6

172
1
173
1
174
1
140
1.0
141
1.0
175
1
  7

176
1
177
1
178
1
143
1.0
179
1
  8

270
1
271
1
272
1
145
1.0
146
1.0
273
1
  9

274
1
275
1
276
1
 42
1.0
 72
1
  3

 73
1
 74
1
 75
1
 94
63
  0
MATERIAL
  5
21
102
{ACAD_REACTORS
330
E
102
}
330
E
100
AcDbMaterial
  1
Global
  2

 70
0
 40
1.0
 71
1
 41
1.0
 91
-1023410177
 42
1.0
 72
1
  3

 73
1
 74
1
 75
1
 44
0.5
 73
0
 45
1.0
 46
1.0
 77
1
  4

 78
1
 79
1
170
1
 48
1.0
171
1
  6

172
1
173
1
174
1
140
1.0
141
1.0
175
1
  7

176
1
177
1
178
1
143
1.0
179
1
  8

270
1
271
1
272
1
145
1.0
146
1.0
273
1
  9

274
1
275
1
276
1
 42
1.0
 72
1
  3

 73
1
 74
1
 75
1
 94
63
  0
MLINESTYLE
  5
22
102
{ACAD_REACTORS
330
10
102
}
330
10
100
AcDbMlineStyle
  2
Standard
 70
0
  3

 62
256
 51
90.0
 52
90.0
 71
2
 49
0.5
 62
256
  6
BYLAYER
 49
-0.5
 62
256
  6
BYLAYER
  0
MLEADERSTYLE
  5
2C
102
{ACAD_REACTORS
330
F
102
}
330
F
100
AcDbMLeaderStyle
179
2
170
2
171
1
172
0
 90
2
 40
0.0
 41
0.0
173
1
 91
-1056964608
 92
-2
290
1
 42
2.0
291
1
 43
8.0
  3
Standard
 44
4.0
300

342
29
174
1
175
1
176
0
178
1
 93
-1056964608
 45
4.0
292
0
297
0
 46
4.0
 94
-1056964608
 47
1.0
 49
1.0
140
1.0
294
1
141
0.0
177
0
142
1.0
295
0
296
0
143
3.75
271
0
272
9
273
9
  0
DICTIONARY
  5
2D
330
A
100
AcDbDictionary
280
1
281
1
  3
CREATED_BY_EZDXF
350
2E
  3
WRITTEN_BY_EZDXF
350
20F
  0
DICTIONARYVAR
  5
2E
330
2D
100
DictionaryVariables
280
0
  1
1.4.2 @ 2026-09-30T06:32:54.426764+00:00
  0
VISUALSTYLE
  5
5A
102
{ACAD_REACTORS
330
16
102
}
330
16
100
AcDbVisualStyle
  2
2dWireframe
 70
4
 90
0
 40
0.6
 62
7
290
0
291
0
  0
VISUALSTYLE
  5
5B
102
{ACAD_REACTORS
330
16
102
}
330
16
100
AcDbVisualStyle
  2
Basic
 70
7
 90
1
 40
0.6
 62
7
290
0
291
1
  0
VISUALSTYLE
  5
5C
102
{ACAD_REACTORS
330
16
102
}
330
16
100
AcDbVisualStyle
  2
Brighten
 70
12
 90
2
 40
0.6
 62
7
290
0
291
1
  0
VISUALSTYLE
  5
5D
102
{ACAD_REACTORS
330
16
102
}
330
16
100
AcDbVisualStyle
  2
ColorChange
 70
16
 90
2
 40
0.6
 62
8
290
0
291
1
  0
VISUALSTYLE
  5
5E
102
{ACAD_REACTORS
330
16
102
}
330
16
100
AcDbVisualStyle
  2
Conceptual
 70
9
 90
3
 40
0.6
 62
7
290
0
291
0
  0
VISUALSTYLE
  5
5F
102
{ACAD_REACTORS
330
16
102
}
330
16
100
AcDbVisualStyle
  2
Dim
 70
11
 90
2
 40
0.6
 62
7
290
0
291
1
  0
VISUALSTYLE
  5
60
102
{ACAD_REACTORS
330
16
102
}
330
16
100
AcDbVisualStyle
  2
EdgeColorOff
 70
22
 90
2
 40
0.6
 62
7
290
0
291
1
  0
VISUALSTYLE
  5
61
102
{ACAD_REACTORS
330
16
102
}
330
16
100
AcDbVisualStyle
  2
Facepattern
 70
15
 90
2
 40
0.6
 62
7
290
0
291
1
  0
VISUALSTYLE
  5
62
102
{ACAD_REACTORS
330
16
102
}
330
16
100
AcDbVisualStyle
  2
Flat
 70
0
 90
2
 40
0.6
 62
7
290
0
291
1
  0
VISUALSTYLE
  5
63
102
{ACAD_REACTORS
330
16
102
}
330
16
100
AcDbVisualStyle
  2
FlatWithEdges
 70
1
 90
2
 40
0.6
 62
7
290
0
291
1
  0
VISUALSTYLE
  5
64
102
{ACAD_REACTORS
330
16
102
}
330
16
100
AcDbVisualStyle
  2
Gouraud
 70
2
 90
2
 40
0.6
 62
7
290
0
291
1
  0
VISUALSTYLE
  5
65
102
{ACAD_REACTORS
330
16
102
}
330
16
100
AcDbVisualStyle
  2
GouraudWithEdges
 70
3
 90
2
 40
0.6
 62
7
290
0
291
1
  0
VISUALSTYLE
  5
66
102
{ACAD_REACTORS
330
16
102
}
330
16
100
AcDbVisualStyle
  2
Hidden
 70
6
 90
1
 40
0.6
 62
7
290
0
291
0
  0
VISUALSTYLE
  5
67
102
{ACAD_REACTORS
330
16
102
}
330
16
100
AcDbVisualStyle
  2
JitterOff
 70
20
 90
2
 40
0.6
 62
7
290
0
291
1
  0
VISUALSTYLE
  5
68
102
{ACAD_REACTORS
330
16
102
}
330
16
100
AcDbVisualStyle
  2
Linepattern
 70
14
 90
2
 40
0.6
 62
7
290
0
291
1
  0
VISUALSTYLE
  5
69
102
{ACAD_REACTORS
330
16
102
}
330
16
100
AcDbVisualStyle
  2
Modeling
 70
10
 90
2
 40
0.6
 62
7
290
0
291
0
  0
VISUALSTYLE
  5
6A
102
{ACAD_REACTORS
330
16
102
}
330
16
100
AcDbVisualStyle
  2
OverhangOff
 70
21
 90
2
 40
0.6
 62
7
290
0
291
1
  0
VISUALSTYLE
  5
6B
102
{ACAD_REACTORS
330
16
102
}
330
16
100
AcDbVisualStyle
  2
Realistic
 70
8
 90
2
 40
0.6
 62
7
290
0
291
0
  0
VISUALSTYLE
  5
6C
102
{ACAD_REACTORS
330
16
102
}
330
16
100
AcDbVisualStyle
  2
Shaded
 70
27
 90
2
 40
0.6
 62
7
290
0
291
0
  0
VISUALSTYLE
  5
6D
102
{ACAD_REACTORS
330
16
102
}
330
16
100
AcDbVisualStyle
  2
Shaded with edges
 70
26
 90
2
 40
0.6
 62
7
290
0
291
0
  0
VISUALSTYLE
  5
6E
102
{ACAD_REACTORS
330
16
102
}
330
16
100
AcDbVisualStyle
  2
Shades of Gray
 70
23
 90
2
 40
0.6
 62
7
290
0
291
0
  0
VISUALSTYLE
  5
6F
102
{ACAD_REACTORS
330
16
102
}
330
16
100
AcDbVisualStyle
  2
Sketchy
 70
24
 90
1
 40
0.6
 62
7
290
0
291
0
  0
VISUALSTYLE
  5
70
102
{ACAD_REACTORS
330
16
102
}
330
16
100
AcDbVisualStyle
  2
Thicken
 70
13
 90
2
 40
0.6
 62
7
290
0
291
1
  0
VISUALSTYLE
  5
71
102
{ACAD_REACTORS
330
16
102
}
330
16
100
AcDbVisualStyle
  2
Wireframe
 70
5
 90
0
 40
0.6
 62
7
290
0
291
0
  0
VISUALSTYLE
  5
72
102
{ACAD_REACTORS
330
16
102
}
330
16
100
AcDbVisualStyle
  2
X-Ray
 70
25
 90
2
 40
0.5
 62
7
290
0
291
0
  0
DICTIONARYVAR
  5
20F
330
2D
100
DictionaryVariables
280
0
  1
1.4.2 @ 2026-09-30T06:32:54.548799+00:00
  0
ENDSEC
  0
EOF
