  0
SECTION
  2
HEADER
  9
$ACADVER
  1
AC1024
  9
$ACADMAINTVER
 70
6
  9
$DWGCODEPAGE
  3
ANSI_1252
  9
$LASTSAVEDBY
  1
ezdxf
  9
$INSBASE
 10
0.0
 20
0.0
 30
0.0
  9
$EXTMIN
 10
1e+20
 20
1e+20
 30
1e+20
  9
$EXTMAX
 10
-1e+20
 20
-1e+20
 30
-1e+20
  9
$LIMMIN
 10
0.0
 20
0.0
  9
$LIMMAX
 10
420.0
 20
297.0
  9
$ORTHOMODE
 70
0
  9
$REGENMODE
 70
1
  9
$FILLMODE
 70
1
  9
$QTEXTMODE
 70
0
  9
$MIRRTEXT
 70
1
  9
$LTSCALE
 40
1.0
  9
$ATTMODE
 70
1
  9
$TEXTSIZE
 40
2.5
  9
$TRACEWID
 40
1.0
  9
$TEXTSTYLE
  7
OpenSans
  9
$CLAYER
  8
0
  9
$CELTYPE
  6
ByLayer
  9
$CECOLOR
 62
256
  9
$CELTSCALE
 40
1.0
  9
$DISPSILH
 70
0
  9
$DIMSCALE
 40
1.0
  9
$DIMASZ
 40
0.175
  9
$DIMEXO
 40
0.125
  9
$DIMDLI
 40
3.75
  9
$DIMRND
 40
0.0
  9
$DIMDLE
 40
0.0
  9
$DIMEXE
 40
0.375
  9
$DIMTP
 40
0.0
  9
$DIMTM
 40
0.0
  9
$DIMTXT
 40
0.25
  9
$DIMCEN
 40
2.5
  9
$DIMTSZ
 40
0.0
  9
$DIMTOL
 70
0
  9
$DIMLIM
 70
0
  9
$DIMTIH
 70
0
  9
$DIMTOH
 70
0
  9
$DIMSE1
 70
0
  9
$DIMSE2
 70
0
  9
$DIMTAD
 70
1
  9
$DIMZIN
 70
12
  9
$DIMBLK
  1
ARCHTICK
  9
$DIMASO
 70
1
  9
$DIMSHO
 70
1
  9
$DIMPOST
  1

  9
$DIMAPOST
  1

  9
$DIMALT
 70
0
  9
$DIMALTD
 70
3
  9
$DIMALTF
 40
0.03937007874
  9
$DIMLFAC
 40
100.0
  9
$DIMTOFL
 70
1
  9
$DIMTVP
 40
0.0
  9
$DIMTIX
 70
0
  9
$DIMSOXD
 70
0
  9
$DIMSAH
 70
0
  9
$DIMBLK1
  1

  9
$DIMBLK2
  1

  9
$DIMSTYLE
  2
EZDXF
  9
$DIMCLRD
 70
0
  9
$DIMCLRE
 70
0
  9
$DIMCLRT
 70
0
  9
$DIMTFAC
 40
0.5
  9
$DIMGAP
 40
0.1
  9
$DIMJUST
 70
0
  9
$DIMSD1
 70
0
  9
$DIMSD2
 70
0
  9
$DIMTOLJ
 70
0
  9
$DIMTZIN
 70
8
  9
$DIMALTZ
 70
0
  9
$DIMALTTZ
 70
0
  9
$DIMUPT
 70
1
  9
$DIMDEC
 70
2
  9
$DIMTDEC
 70
2
  9
$DIMALTU
 70
2
  9
$DIMALTTD
 70
3
  9
$DIMTXSTY
  7
OpenSansCondensed-Light
  9
$DIMAUNIT
 70
0
  9
$DIMADEC
 70
2
  9
$DIMALTRND
 40
0.0
  9
$DIMAZIN
 70
3
  9
$DIMDSEP
 70
46
  9
$DIMATFIT
 70
3
  9
$DIMFRAC
 70
0
  9
$DIMLDRBLK
  1

  9
$DIMLUNIT
 70
2
  9
$DIMLWD
 70
-2
  9
$DIMLWE
 70
-2
  9
$DIMTMOVE
 70
2
  9
$DIMFXL
 40
1.0
  9
$DIMFXLON
 70
0
  9
$DIMJOGANG
 40
0.785398163397
  9
$DIMTFILL
 70
0
  9
$DIMTFILLCLR
 70
0
  9
$DIMARCSYM
 70
0
  9
$DIMLTYPE
  6

  9
$DIMLTEX1
  6

  9
$DIMLTEX2
  6

  9
$DIMTXTDIRECTION
 70
0
  9
$LUNITS
 70
4
  9
$LUPREC
 70
4
  9
$SKETCHINC
 40
1.0
  9
$FILLETRAD
 40
10.0
  9
$AUNITS
 70
0
  9
$AUPREC
 70
3
  9
$MENU
  1
.
  9
$ELEVATION
 40
0.0
  9
$PELEVATION
 40
0.0
  9
$THICKNESS
 40
0.0
  9
$LIMCHECK
 70
0
  9
$CHAMFERA
 40
0.0
  9
$CHAMFERB
 40
0.0
  9
$CHAMFERC
 40
0.0
  9
$CHAMFERD
 40
0.0
  9
$SKPOLY
 70
0
  9
$TDCREATE
 40
2461302.6590393516
  9
$TDUCREATE
 40
2458532.153996898
  9
$TDUPDATE
 40
2461302.6590393516
  9
$TDUUPDATE
 40
2458532.1544311
  9
$TDINDWG
 40
0.0
  9
$TDUSRTIMER
 40
0.0
  9
$USRTIMER
 70
1
  9
$ANGBASE
 50
0.0
  9
$ANGDIR
 70
0
  9
$PDMODE
 70
0
  9
$PDSIZE
 40
0.0
  9
$PLINEWID
 40
0.0
  9
$SPLFRAME
 70
0
  9
$SPLINETYPE
 70
6
  9
$SPLINESEGS
 70
8
  9
$HANDSEED
  5
17B
  9
$SURFTAB1
 70
6
  9
$SURFTAB2
 70
6
  9
$SURFTYPE
 70
6
  9
$SURFU
 70
6
  9
$SURFV
 70
6
  9
$UCSBASE
  2

  9
$UCSNAME
  2

  9
$UCSORG
 10
0.0
 20
0.0
 30
0.0
  9
$UCSXDIR
 10
1.0
 20
0.0
 30
0.0
  9
$UCSYDIR
 10
0.0
 20
1.0
 30
0.0
  9
$UCSORTHOREF
  2

  9
$UCSORTHOVIEW
 70
0
  9
$UCSORGTOP
 10
0.0
 20
0.0
 30
0.0
  9
$UCSORGBOTTOM
 10
0.0
 20
0.0
 30
0.0
  9
$UCSORGLEFT
 10
0.0
 20
0.0
 30
0.0
  9
$UCSORGRIGHT
 10
0.0
 20
0.0
 30
0.0
  9
$UCSORGFRONT
 10
0.0
 20
0.0
 30
0.0
  9
$UCSORGBACK
 10
0.0
 20
0.0
 30
0.0
  9
$PUCSBASE
  2

  9
$PUCSNAME
  2

  9
$PUCSORG
 10
0.0
 20
0.0
 30
0.0
  9
$PUCSXDIR
 10
1.0
 20
0.0
 30
0.0
  9
$PUCSYDIR
 10
0.0
 20
1.0
 30
0.0
  9
$PUCSORTHOREF
  2

  9
$PUCSORTHOVIEW
 70
0
  9
$PUCSORGTOP
 10
0.0
 20
0.0
 30
0.0
  9
$PUCSORGBOTTOM
 10
0.0
 20
0.0
 30
0.0
  9
$PUCSORGLEFT
 10
0.0
 20
0.0
 30
0.0
  9
$PUCSORGRIGHT
 10
0.0
 20
0.0
 30
0.0
  9
$PUCSORGFRONT
 10
0.0
 20
0.0
 30
0.0
  9
$PUCSORGBACK
 10
0.0
 20
0.0
 30
0.0
  9
$USERI1
 70
0
  9
$USERI2
 70
0
  9
$USERI3
 70
0
  9
$USERI4
 70
0
  9
$USERI5
 70
0
  9
$USERR1
 40
0.0
  9
$USERR2
 40
0.0
  9
$USERR3
 40
0.0
  9
$USERR4
 40
0.0
  9
$USERR5
 40
0.0
  9
$WORLDVIEW
 70
1
  9
$SHADEDGE
 70
3
  9
$SHADEDIF
 70
70
  9
$TILEMODE
 70
1
  9
$MAXACTVP
 70
64
  9
$PINSBASE
 10
0.0
 20
0.0
 30
0.0
  9
$PLIMCHECK
 70
0
  9
$PEXTMIN
 10
1e+20
 20
1e+20
 30
1e+20
  9
$PEXTMAX
 10
-1e+20
 20
-1e+20
 30
-1e+20
  9
$PLIMMIN
 10
0.0
 20
0.0
  9
$PLIMMAX
 10
420.0
 20
297.0
  9
$UNITMODE
 70
0
  9
$VISRETAIN
 70
1
  9
$PLINEGEN
 70
0
  9
$PSLTSCALE
 70
1
  9
$TREEDEPTH
 70
3020
  9
$CMLSTYLE
  2
Standard
  9
$CMLJUST
 70
0
  9
$CMLSCALE
 40
20.0
  9
$PROXYGRAPHICS
 70
1
  9
$MEASUREMENT
 70
0
  9
$CELWEIGHT
370
-1
  9
$ENDCAPS
280
0
  9
$JOINSTYLE
280
0
  9
$LWDISPLAY
290
0
  9
$INSUNITS
 70
1
  9
$HYPERLINKBASE
  1

  9
$STYLESHEET
  1

  9
$XEDIT
290
1
  9
$CEPSNTYPE
380
0
  9
$PSTYLEMODE
290
1
  9
$FINGERPRINTGUID
  2
{411E5BE7-AFEB-4E6A-8528-DF0AFC024D2A}
  9
$VERSIONGUID
  2
{5C56AA9B-2ADA-471F-8D75-3EB469BE3A41}
  9
$EXTNAMES
290
1
  9
$PSVPSCALE
 40
0.0
  9
$OLESTARTUP
290
0
  9
$SORTENTS
280
127
  9
$INDEXCTL
280
0
  9
$HIDETEXT
280
1
  9
$XCLIPFRAME
280
1
  9
$HALOGAP
280
0
  9
$OBSCOLOR
 70
257
  9
$OBSLTYPE
280
0
  9
$INTERSECTIONDISPLAY
280
0
  9
$INTERSECTIONCOLOR
 70
257
  9
$DIMASSOC
280
2
  9
$PROJECTNAME
  1

  9
$CAMERADISPLAY
290
0
  9
$LENSLENGTH
 40
50.0
  9
$CAMERAHEIGHT
 40
0.0
  9
$STEPSPERSEC
 40
24.0
  9
$STEPSIZE
 40
100.0
  9
$3DDWFPREC
 40
2.0
  9
$PSOLWIDTH
 40
0.005
  9
$PSOLHEIGHT
 40
0.08
  9
$LOFTANG1
 40
1.570796326795
  9
$LOFTANG2
 40
1.570796326795
  9
$LOFTMAG1
 40
0.0
  9
$LOFTMAG2
 40
0.0
  9
$LOFTPARAM
 70
7
  9
$LOFTNORMALS
280
1
  9
$LATITUDE
 40
37.795
  9
$LONGITUDE
 40
-122.394
  9
$NORTHDIRECTION
 40
0.0
  9
$TIMEZONE
 70
-8000
  9
$LIGHTGLYPHDISPLAY
280
1
  9
$TILEMODELIGHTSYNCH
280
1
  9
$CMATERIAL
347
20
  9
$SOLIDHIST
280
0
  9
$SHOWHIST
280
1
  9
$DWFFRAME
280
2
  9
$DGNFRAME
280
2
  9
$REALWORLDSCALE
290
1
  9
$INTERFERECOLOR
 62
256
  9
$CSHADOW
280
0
  9
$SHADOWPLANELOCATION
 40
0.0
  0
ENDSEC
  0
SECTION
  2
CLASSES
  0
CLASS
  1
ACDBDICTIONARYWDFLT
  2
AcDbDictionaryWithDefault
  3
ObjectDBX Classes
 90
0
 91
0
280
0
281
0
  0
CLASS
  1
SUN
  2
AcDbSun
  3
SCENEOE
 90
1153
 91
0
280
0
281
0
  0
CLASS
  1
VISUALSTYLE
  2
AcDbVisualStyle
  3
ObjectDBX Classes
 90
4095
 91
0
280
0
281
0
  0
CLASS
  1
MATERIAL
  2
AcDbMaterial
  3
ObjectDBX Classes
 90
1153
 91
0
280
0
281
0
  0
CLASS
  1
SCALE
  2
AcDbScale
  3
ObjectDBX Classes
 90
1153
 91
0
280
0
281
0
  0
CLASS
  1
TABLESTYLE
  2
AcDbTableStyle
  3
ObjectDBX Classes
 90
4095
 91
0
280
0
281
0
  0
CLASS
  1
MLEADERSTYLE
  2
AcDbMLeaderStyle
  3
ACDB_MLEADERSTYLE_CLASS
 90
4095
 91
0
280
0
281
0
  0
CLASS
  1
DICTIONARYVAR
  2
AcDbDictionaryVar
  3
ObjectDBX Classes
 90
0
 91
0
280
0
281
0
  0
CLASS
  1
CELLSTYLEMAP
  2
AcDbCellStyleMap
  3
ObjectDBX Classes
 90
1152
 91
0
280
0
281
0
  0
CLASS
  1
MENTALRAYRENDERSETTINGS
  2
AcDbMentalRayRenderSettings
  3
SCENEOE
 90
1024
 91
0
280
0
281
0
  0
CLASS
  1
ACDBDETAILVIEWSTYLE
  2
AcDbDetailViewStyle
  3
ObjectDBX Classes
 90
1025
 91
0
280
0
281
0
  0
CLASS
  1
ACDBSECTIONVIEWSTYLE
  2
AcDbSectionViewStyle
  3
ObjectDBX Classes
 90
1025
 91
0
280
0
281
0
  0
CLASS
  1
RASTERVARIABLES
  2
AcDbRasterVariables
  3
ISM
 90
0
 91
0
280
0
281
0
  0
CLASS
  1
ACDBPLACEHOLDER
  2
AcDbPlaceHolder
  3
ObjectDBX Classes
 90
0
 91
0
280
0
281
0
  0
CLASS
  1
LAYOUT
  2
AcDbLayout
  3
ObjectDBX Classes
 90
0
 91
0
280
0
281
0
  0
ENDSEC
  0
SECTION
  2
TABLES
  0
TABLE
  2
VPORT
  5
8
330
0
100
AcDbSymbolTable
 70
1
  0
VPORT
  5
23
330
8
100
AcDbSymbolTableRecord
100
AcDbViewportTableRecord
  2
*Active
 70
0
 10
0.0
 20
0.0
 11
1.0
 21
1.0
 12
0.0
 22
0.0
 13
0.0
 23
0.0
 14
0.5
 24
0.5
 15
0.5
 25
0.5
 16
0.0
 26
0.0
 36
1.0
 17
0.0
 27
0.0
 37
0.0
 40
1000.0
 41
1.34
 42
50.0
 43
0.0
 44
0.0
 50
0.0
 51
0.0
 71
0
 72
1000
 73
1
 74
3
 75
0
 76
0
 77
0
 78
0
281
0
 65
0
146
0.0
  0
ENDTAB
  0
TABLE
  2
LTYPE
  5
2
330
0
100
AcDbSymbolTable
 70
21
  0
LTYPE
  5
24
330
2
100
AcDbSymbolTableRecord
100
AcDbLinetypeTableRecord
  2
ByBlock
 70
0
  3

 72
65
 73
0
 40
0.0
  0
LTYPE
  5
25
330
2
100
AcDbSymbolTableRecord
100
AcDbLinetypeTableRecord
  2
ByLayer
 70
0
  3

 72
65
 73
0
 40
0.0
  0
LTYPE
  5
26
330
2
100
AcDbSymbolTableRecord
100
AcDbLinetypeTableRecord
  2
Continuous
 70
0
  3

 72
65
 73
0
 40
0.0
  0
LTYPE
  5
2F
330
2
100
AcDbSymbolTableRecord
100
AcDbLinetypeTableRecord
  2
CENTER
 70
0
  3
Center ____ _ ____ _ ____ _ ____ _ ____ _ ____
 72
65
 73
4
 40
2.0
 49
1.25
 74
0
 49
-0.25
 74
0
 49
0.25
 74
0
 49
-0.25
 74
0
  0
LTYPE
  5
30
330
2
100
AcDbSymbolTableRecord
100
AcDbLinetypeTableRecord
  2
CENTERX2
 70
0
  3
Center (2x) ________  __  ________  __  ________
 72
65
 73
4
 40
3.5
 49
2.5
 74
0
 49
-0.25
 74
0
 49
0.5
 74
0
 49
-0.25
 74
0
  0
LTYPE
  5
31
330
2
100
AcDbSymbolTableRecord
100
AcDbLinetypeTableRecord
  2
CENTER2
 70
0
  3
Center (.5x) ____ _ ____ _ ____ _ ____ _ ____
 72
65
 73
4
 40
1.0
 49
0.625
 74
0
 49
-0.125
 74
0
 49
0.125
 74
0
 49
-0.125
 74
0
  0
LTYPE
  5
32
330
2
100
AcDbSymbolTableRecord
100
AcDbLinetypeTableRecord
  2
DASHED
 70
0
  3
Dashed __ __ __ __ __ __ __ __ __ __ __ __ __ _
 72
65
 73
2
 40
0.6
 49
0.5
 74
0
 49
-0.1
 74
0
  0
LTYPE
  5
33
330
2
100
AcDbSymbolTableRecord
100
AcDbLinetypeTableRecord
  2
DASHEDX2
 70
0
  3
Dashed (2x) ____  ____  ____  ____  ____  ____
 72
65
 73
2
 40
1.2
 49
1.0
 74
0
 49
-0.2
 74
0
  0
LTYPE
  5
34
330
2
100
AcDbSymbolTableRecord
100
AcDbLinetypeTableRecord
  2
DASHED2
 70
0
  3
Dashed (.5x) _ _ _ _ _ _ _ _ _ _ _ _ _ _
 72
65
 73
2
 40
0.3
 49
0.25
 74
0
 49
-0.05
 74
0
  0
LTYPE
  5
35
330
2
100
AcDbSymbolTableRecord
100
AcDbLinetypeTableRecord
  2
PHANTOM
 70
0
  3
Phantom ______  __  __  ______  __  __  ______
 72
65
 73
6
 40
2.5
 49
1.25
 74
0
 49
-0.25
 74
0
 49
0.25
 74
0
 49
-0.25
 74
0
 49
0.25
 74
0
 49
-0.25
 74
0
  0
LTYPE
  5
36
330
2
100
AcDbSymbolTableRecord
100
AcDbLinetypeTableRecord
  2
PHANTOMX2
 70
0
  3
Phantom (2x)____________    ____    ____    ____________
 72
65
 73
6
 40
4.25
 49
2.5
 74
0
 49
-0.25
 74
0
 49
0.5
 74
0
 49
-0.25
 74
0
 49
0.5
 74
0
 49
-0.25
 74
0
  0
LTYPE
  5
37
330
2
100
AcDbSymbolTableRecord
100
AcDbLinetypeTableRecord
  2
PHANTOM2
 70
0
  3
Phantom (.5x) ___ _ _ ___ _ _ ___ _ _ ___ _ _ ___
 72
65
 73
6
 40
1.25
 49
0.625
 74
0
 49
-0.125
 74
0
 49
0.125
 74
0
 49
-0.125
 74
0
 49
0.125
 74
0
 49
-0.125
 74
0
  0
LTYPE
  5
38
330
2
100
AcDbSymbolTableRecord
100
AcDbLinetypeTableRecord
  2
DASHDOT
 70
0
  3
Dash dot __ . __ . __ . __ . __ . __ . __ . __
 72
65
 73
4
 40
1.4
 49
1.0
 74
0
 49
-0.2
 74
0
 49
0.0
 74
0
 49
-0.2
 74
0
  0
LTYPE
  5
39
330
2
100
AcDbSymbolTableRecord
100
AcDbLinetypeTableRecord
  2
DASHDOTX2
 70
0
  3
Dash dot (2x) ____  .  ____  .  ____  .  ____
 72
65
 73
4
 40
2.4
 49
2.0
 74
0
 49
-0.2
 74
0
 49
0.0
 74
0
 49
-0.2
 74
0
  0
LTYPE
  5
3A
330
2
100
AcDbSymbolTableRecord
100
AcDbLinetypeTableRecord
  2
DASHDOT2
 70
0
  3
Dash dot (.5x) _ . _ . _ . _ . _ . _ . _ . _
 72
65
 73
4
 40
0.7
 49
0.5
 74
0
 49
-0.1
 74
0
 49
0.0
 74
0
 49
-0.1
 74
0
  0
LTYPE
  5
3B
330
2
100
AcDbSymbolTableRecord
100
AcDbLinetypeTableRecord
  2
DOT
 70
0
  3
Dot .  .  .  .  .  .  .  .  .  .  .  .  .  .  .  .
 72
65
 73
2
 40
0.2
 49
0.0
 74
0
 49
-0.2
 74
0
  0
LTYPE
  5
3C
330
2
100
AcDbSymbolTableRecord
100
AcDbLinetypeTableRecord
  2
DOTX2
 70
0
  3
Dot (2x) .    .    .    .    .    .    .    . 
 72
65
 73
2
 40
0.4
 49
0.0
 74
0
 49
-0.4
 74
0
  0
LTYPE
  5
3D
330
2
100
AcDbSymbolTableRecord
100
AcDbLinetypeTableRecord
  2
DOT2
 70
0
  3
Dot (.5) . . . . . . . . . . . . . . . . . . . 
 72
65
 73
2
 40
0.1
 49
0.0
 74
0
 49
-0.1
 74
0
  0
LTYPE
  5
3E
330
2
100
AcDbSymbolTableRecord
100
AcDbLinetypeTableRecord
  2
DIVIDE
 70
0
  3
Divide __ . . __ . . __ . . __ . . __ . . __
 72
65
 73
6
 40
1.6
 49
1.0
 74
0
 49
-0.2
 74
0
 49
0.0
 74
0
 49
-0.2
 74
0
 49
0.0
 74
0
 49
-0.2
 74
0
  0
LTYPE
  5
3F
330
2
100
AcDbSymbolTableRecord
100
AcDbLinetypeTableRecord
  2
DIVIDEX2
 70
0
  3
Divide (2x) ____  . .  ____  . .  ____  . .  ____
 72
65
 73
6
 40
2.6
 49
2.0
 74
0
 49
-0.2
 74
0
 49
0.0
 74
0
 49
-0.2
 74
0
 49
0.0
 74
0
 49
-0.2
 74
0
  0
LTYPE
  5
40
330
2
100
AcDbSymbolTableRecord
100
AcDbLinetypeTableRecord
  2
DIVIDE2
 70
0
  3
Divide(.5x) _ . _ . _ . _ . _ . _ . _ . _
 72
65
 73
6
 40
0.8
 49
0.5
 74
0
 49
-0.1
 74
0
 49
0.0
 74
0
 49
-0.1
 74
0
 49
0.0
 74
0
 49
-0.1
 74
0
  0
ENDTAB
  0
TABLE
  2
LAYER
  5
1
330
0
100
AcDbSymbolTable
 70
10
  0
LAYER
  5
27
330
1
100
AcDbSymbolTableRecord
100
AcDbLayerTableRecord
  2
0
 70
0
 62
7
  6
Continuous
370
-3
390
13
347
21
  0
LAYER
  5
28
330
1
100
AcDbSymbolTableRecord
100
AcDbLayerTableRecord
  2
Defpoints
 70
0
 62
7
  6
Continuous
290
0
370
-3
390
13
347
21
  0
LAYER
  5
8A
330
1
100
AcDbSymbolTableRecord
100
AcDbLayerTableRecord
  2
Front elevation
 70
0
 62
7
  6
Continuous
370
-3
390
13
347
21
  0
LAYER
  5
8B
330
1
100
AcDbSymbolTableRecord
100
AcDbLayerTableRecord
  2
Front elevation hatch
 70
0
 62
8
  6
Continuous
370
-3
390
13
347
21
  0
LAYER
  5
11D
330
1
100
AcDbSymbolTableRecord
100
AcDbLayerTableRecord
  2
Panel head - detail A
 70
0
 62
7
  6
Continuous
370
-3
390
13
347
21
  0
LAYER
  5
11E
330
1
100
AcDbSymbolTableRecord
100
AcDbLayerTableRecord
  2
Panel head - detail A hatch
 70
0
 62
8
  6
Continuous
370
-3
390
13
347
21
  0
LAYER
  5
12E
330
1
100
AcDbSymbolTableRecord
100
AcDbLayerTableRecord
  2
Section B-B
 70
0
 62
7
  6
Continuous
370
-3
390
13
347
21
  0
LAYER
  5
12F
330
1
100
AcDbSymbolTableRecord
100
AcDbLayerTableRecord
  2
Section B-B hatch
 70
0
 62
8
  6
Continuous
370
-3
390
13
347
21
  0
LAYER
  5
160
330
1
100
AcDbSymbolTableRecord
100
AcDbLayerTableRecord
  2
Lock rail - detail C
 70
0
 62
7
  6
Continuous
370
-3
390
13
347
21
  0
LAYER
  5
161
330
1
100
AcDbSymbolTableRecord
100
AcDbLayerTableRecord
  2
Lock rail - detail C hatch
 70
0
 62
8
  6
Continuous
370
-3
390
13
347
21
  0
ENDTAB
  0
TABLE
  2
STYLE
  5
5
330
0
100
AcDbSymbolTable
 70
26
  0
STYLE
  5
29
330
5
100
AcDbSymbolTableRecord
100
AcDbTextStyleTableRecord
  2
Standard
 70
0
 40
0.0
 41
1.0
 50
0.0
 71
0
 42
2.5
  3
txt
  4

  0
STYLE
  5
41
330
5
100
AcDbSymbolTableRecord
100
AcDbTextStyleTableRecord
  2
OpenSans-Light
 70
0
 40
0.0
 41
1.0
 50
0.0
 71
0
 42
2.5
  3
OpenSans-Light.ttf
  4

  0
STYLE
  5
42
330
5
100
AcDbSymbolTableRecord
100
AcDbTextStyleTableRecord
  2
OpenSans-Light-Italic
 70
0
 40
0.0
 41
1.0
 50
0.0
 71
0
 42
2.5
  3
OpenSans-LightItalic.ttf
  4

  0
STYLE
  5
43
330
5
100
AcDbSymbolTableRecord
100
AcDbTextStyleTableRecord
  2
OpenSans
 70
0
 40
0.0
 41
1.0
 50
0.0
 71
0
 42
2.5
  3
OpenSans-Regular.ttf
  4

  0
STYLE
  5
44
330
5
100
AcDbSymbolTableRecord
100
AcDbTextStyleTableRecord
  2
OpenSans-Italic
 70
0
 40
0.0
 41
1.0
 50
0.0
 71
0
 42
2.5
  3
OpenSans-Italic.ttf
  4

  0
STYLE
  5
45
330
5
100
AcDbSymbolTableRecord
100
AcDbTextStyleTableRecord
  2
OpenSans-SemiBold
 70
0
 40
0.0
 41
1.0
 50
0.0
 71
0
 42
2.5
  3
OpenSans-SemiBold.ttf
  4

  0
STYLE
  5
46
330
5
100
AcDbSymbolTableRecord
100
AcDbTextStyleTableRecord
  2
OpenSans-SemiBoldItalic
 70
0
 40
0.0
 41
1.0
 50
0.0
 71
0
 42
2.5
  3
OpenSans-SemiBoldItalic.ttf
  4

  0
STYLE
  5
47
330
5
100
AcDbSymbolTableRecord
100
AcDbTextStyleTableRecord
  2
OpenSans-Bold
 70
0
 40
0.0
 41
1.0
 50
0.0
 71
0
 42
2.5
  3
OpenSans-Bold.ttf
  4

  0
STYLE
  5
48
330
5
100
AcDbSymbolTableRecord
100
AcDbTextStyleTableRecord
  2
OpenSans-BoldItalic
 70
0
 40
0.0
 41
1.0
 50
0.0
 71
0
 42
2.5
  3
OpenSans-BoldItalic.ttf
  4

  0
STYLE
  5
49
330
5
100
AcDbSymbolTableRecord
100
AcDbTextStyleTableRecord
  2
OpenSans-ExtraBold
 70
0
 40
0.0
 41
1.0
 50
0.0
 71
0
 42
2.5
  3
OpenSans-ExtraBold.ttf
  4

  0
STYLE
  5
4A
330
5
100
AcDbSymbolTableRecord
100
AcDbTextStyleTableRecord
  2
OpenSans-ExtraBoldItalic
 70
0
 40
0.0
 41
1.0
 50
0.0
 71
0
 42
2.5
  3
OpenSans-ExtraBoldItalic.ttf
  4

  0
STYLE
  5
4B
330
5
100
AcDbSymbolTableRecord
100
AcDbTextStyleTableRecord
  2
OpenSansCondensed-Bold
 70
0
 40
0.0
 41
1.0
 50
0.0
 71
0
 42
2.5
  3
OpenSansCondensed-Bold.ttf
  4

  0
STYLE
  5
4C
330
5
100
AcDbSymbolTableRecord
100
AcDbTextStyleTableRecord
  2
OpenSansCondensed-Light
 70
0
 40
0.0
 41
1.0
 50
0.0
 71
0
 42
2.5
  3
OpenSansCondensed-Light.ttf
  4

  0
STYLE
  5
4D
330
5
100
AcDbSymbolTableRecord
100
AcDbTextStyleTableRecord
  2
OpenSansCondensed-Italic
 70
0
 40
0.0
 41
1.0
 50
0.0
 71
0
 42
2.5
  3
OpenSansCondensed-LightItalic.ttf
  4

  0
STYLE
  5
4E
330
5
100
AcDbSymbolTableRecord
100
AcDbTextStyleTableRecord
  2
LiberationSans
 70
0
 40
0.0
 41
1.0
 50
0.0
 71
0
 42
2.5
  3
LiberationSans-Regular.ttf
  4

  0
STYLE
  5
4F
330
5
100
AcDbSymbolTableRecord
100
AcDbTextStyleTableRecord
  2
LiberationSans-Bold
 70
0
 40
0.0
 41
1.0
 50
0.0
 71
0
 42
2.5
  3
LiberationSans-Bold.ttf
  4

  0
STYLE
  5
50
330
5
100
AcDbSymbolTableRecord
100
AcDbTextStyleTableRecord
  2
LiberationSans-BoldItalic
 70
0
 40
0.0
 41
1.0
 50
0.0
 71
0
 42
2.5
  3
LiberationSans-BoldItalic.ttf
  4

  0
STYLE
  5
51
330
5
100
AcDbSymbolTableRecord
100
AcDbTextStyleTableRecord
  2
LiberationSans-Italic
 70
0
 40
0.0
 41
1.0
 50
0.0
 71
0
 42
2.5
  3
LiberationSans-Italic.ttf
  4

  0
STYLE
  5
52
330
5
100
AcDbSymbolTableRecord
100
AcDbTextStyleTableRecord
  2
LiberationSerif
 70
0
 40
0.0
 41
1.0
 50
0.0
 71
0
 42
2.5
  3
LiberationSerif-Regular.ttf
  4

  0
STYLE
  5
53
330
5
100
AcDbSymbolTableRecord
100
AcDbTextStyleTableRecord
  2
LiberationSerif-Bold
 70
0
 40
0.0
 41
1.0
 50
0.0
 71
0
 42
2.5
  3
LiberationSerif-Bold.ttf
  4

  0
STYLE
  5
54
330
5
100
AcDbSymbolTableRecord
100
AcDbTextStyleTableRecord
  2
LiberationSerif-BoldItalic
 70
0
 40
0.0
 41
1.0
 50
0.0
 71
0
 42
2.5
  3
LiberationSerif-BoldItalic.ttf
  4

  0
STYLE
  5
55
330
5
100
AcDbSymbolTableRecord
100
AcDbTextStyleTableRecord
  2
LiberationSerif-Italic
 70
0
 40
0.0
 41
1.0
 50
0.0
 71
0
 42
2.5
  3
LiberationSerif-Italic.ttf
  4

  0
STYLE
  5
56
330
5
100
AcDbSymbolTableRecord
100
AcDbTextStyleTableRecord
  2
LiberationMono
 70
0
 40
0.0
 41
1.0
 50
0.0
 71
0
 42
2.5
  3
LiberationMono-Regular.ttf
  4

  0
STYLE
  5
57
330
5
100
AcDbSymbolTableRecord
100
AcDbTextStyleTableRecord
  2
LiberationMono-Bold
 70
0
 40
0.0
 41
1.0
 50
0.0
 71
0
 42
2.5
  3
LiberationMono-Bold.ttf
  4

  0
STYLE
  5
58
330
5
100
AcDbSymbolTableRecord
100
AcDbTextStyleTableRecord
  2
LiberationMono-BoldItalic
 70
0
 40
0.0
 41
1.0
 50
0.0
 71
0
 42
2.5
  3
LiberationMono-BoldItalic.ttf
  4

  0
STYLE
  5
59
330
5
100
AcDbSymbolTableRecord
100
AcDbTextStyleTableRecord
  2
LiberationMono-Italic
 70
0
 40
0.0
 41
1.0
 50
0.0
 71
0
 42
2.5
  3
LiberationMono-Italic.ttf
  4

  0
ENDTAB
  0
TABLE
  2
VIEW
  5
7
330
0
100
AcDbSymbolTable
 70
0
  0
ENDTAB
  0
TABLE
  2
UCS
  5
6
330
0
100
AcDbSymbolTable
 70
0
  0
ENDTAB
  0
TABLE
  2
APPID
  5
3
330
0
100
AcDbSymbolTable
 70
3
  0
APPID
  5
2A
330
3
100
AcDbSymbolTableRecord
100
AcDbRegAppTableRecord
  2
ACAD
 70
0
  0
APPID
  5
178
330
3
100
AcDbSymbolTableRecord
100
AcDbRegAppTableRecord
  2
HATCHBACKGROUNDCOLOR
 70
0
  0
APPID
  5
179
330
3
100
AcDbSymbolTableRecord
100
AcDbRegAppTableRecord
  2
EZDXF
 70
0
  0
ENDTAB
  0
TABLE
  2
DIMSTYLE
  5
4
330
0
100
AcDbSymbolTable
 70
12
100
AcDbDimStyleTable
  0
DIMSTYLE
105
2B
330
4
100
AcDbSymbolTableRecord
100
AcDbDimStyleTableRecord
  2
Standard
 70
0
 40
1.0
 41
2.5
 42
0.625
 43
3.75
 44
1.25
 45
0.0
 46
0.0
 47
0.0
 48
0.0
 49
2.5
140
2.5
141
2.5
142
0.0
143
0.03937007874
144
1.0
145
0.0
146
1.0
147
0.625
148
0.0
 69
0
 70
0
 71
0
 72
0
 73
0
 74
0
 75
0
 76
0
 77
1
 78
8
 79
3
170
0
171
3
172
1
173
0
174
0
175
0
176
0
177
0
178
0
179
2
271
2
272
2
273
2
274
3
275
0
276
0
277
2
278
44
279
0
280
0
281
0
282
0
283
0
284
8
285
0
286
0
288
0
289
3
290
0
371
-2
372
-2
  0
DIMSTYLE
105
73
330
4
100
AcDbSymbolTableRecord
100
AcDbDimStyleTableRecord
  2
EZDXF
 70
0
 40
1.0
 41
0.175
 42
0.125
 43
3.75
 44
0.375
 45
0.0
 46
0.0
 47
0.0
 48
0.0
 49
2.5
140
0.25
141
2.5
142
0.0
143
0.03937007874
144
100.0
145
0.0
146
0.5
147
0.1
148
0.0
 69
0
 70
0
 71
0
 72
0
 73
0
 74
0
 75
0
 76
0
 77
1
 78
12
 79
3
170
0
171
3
172
1
173
0
174
0
175
0
176
0
177
0
178
0
179
2
271
2
272
2
273
2
274
3
275
0
276
0
277
2
278
46
279
2
280
0
281
0
282
0
283
0
284
8
285
0
286
0
288
1
289
3
290
0
340
4C
342
74
371
-2
372
-2
  0
DIMSTYLE
105
7C
330
4
100
AcDbSymbolTableRecord
100
AcDbDimStyleTableRecord
  2
EZ_M_100_H25_CM
 70
0
 40
1.0
 41
0.25
 42
0.125
 43
3.75
 44
0.375
 45
0.0
 46
0.0
 47
0.0
 48
0.0
 49
2.5
140
0.25
141
2.5
142
0.125
143
0.03937007874
144
100.0
145
0.0
146
0.5
147
0.1
148
0.0
 69
0
 70
0
 71
0
 72
0
 73
0
 74
0
 75
0
 76
0
 77
1
 78
12
 79
3
170
0
171
3
172
1
173
0
174
0
175
0
176
0
177
0
178
0
179
2
271
2
272
2
273
2
274
3
275
0
276
0
277
2
278
46
279
2
280
0
281
0
282
0
283
0
284
8
285
0
286
0
288
1
289
3
290
0
340
4C
371
-2
372
-2
  0
DIMSTYLE
105
7D
330
4
100
AcDbSymbolTableRecord
100
AcDbDimStyleTableRecord
  2
EZ_M_50_H25_CM
 70
0
 40
1.0
 41
0.125
 42
0.0625
 43
3.75
 44
0.1875
 45
0.0
 46
0.0
 47
0.0
 48
0.0
 49
2.5
140
0.125
141
2.5
142
0.0625
143
0.03937007874
144
100.0
145
0.0
146
0.5
147
0.05
148
0.0
 69
0
 70
0
 71
0
 72
0
 73
0
 74
0
 75
0
 76
0
 77
1
 78
12
 79
3
170
0
171
3
172
1
173
0
174
0
175
0
176
0
177
0
178
0
179
2
271
2
272
2
273
2
274
3
275
0
276
0
277
2
278
46
279
2
280
0
281
0
282
0
283
0
284
8
285
0
286
0
288
1
289
3
290
0
340
4C
371
-2
372
-2
  0
DIMSTYLE
105
7E
330
4
100
AcDbSymbolTableRecord
100
AcDbDimStyleTableRecord
  2
EZ_M_25_H25_CM
 70
0
 40
1.0
 41
0.0625
 42
0.03125
 43
3.75
 44
0.09375
 45
0.0
 46
0.0
 47
0.0
 48
0.0
 49
2.5
140
0.0625
141
2.5
142
0.03125
143
0.03937007874
144
100.0
145
0.0
146
0.5
147
0.025
148
0.0
 69
0
 70
0
 71
0
 72
0
 73
0
 74
0
 75
0
 76
0
 77
1
 78
12
 79
3
170
0
171
3
172
1
173
0
174
0
175
0
176
0
177
0
178
0
179
2
271
2
272
2
273
2
274
3
275
0
276
0
277
2
278
46
279
2
280
0
281
0
282
0
283
0
284
8
285
0
286
0
288
1
289
3
290
0
340
4C
371
-2
372
-2
  0
DIMSTYLE
105
7F
330
4
100
AcDbSymbolTableRecord
100
AcDbDimStyleTableRecord
  2
EZ_M_20_H25_CM
 70
0
 40
1.0
 41
0.05
 42
0.025
 43
3.75
 44
0.07500000000000001
 45
0.0
 46
0.0
 47
0.0
 48
0.0
 49
2.5
140
0.05
141
2.5
142
0.025
143
0.03937007874
144
100.0
145
0.0
146
0.5
147
0.020000000000000004
148
0.0
 69
0
 70
0
 71
0
 72
0
 73
0
 74
0
 75
0
 76
0
 77
1
 78
12
 79
3
170
0
171
3
172
1
173
0
174
0
175
0
176
0
177
0
178
0
179
2
271
2
272
2
273
2
274
3
275
0
276
0
277
2
278
46
279
2
280
0
281
0
282
0
283
0
284
8
285
0
286
0
288
1
289
3
290
0
340
4C
371
-2
372
-2
  0
DIMSTYLE
105
80
330
4
100
AcDbSymbolTableRecord
100
AcDbDimStyleTableRecord
  2
EZ_M_10_H25_CM
 70
0
 40
1.0
 41
0.025
 42
0.0125
 43
3.75
 44
0.037500000000000006
 45
0.0
 46
0.0
 47
0.0
 48
0.0
 49
2.5
140
0.025
141
2.5
142
0.0125
143
0.03937007874
144
100.0
145
0.0
146
0.5
147
0.010000000000000002
148
0.0
 69
0
 70
0
 71
0
 72
0
 73
0
 74
0
 75
0
 76
0
 77
1
 78
12
 79
3
170
0
171
3
172
1
173
0
174
0
175
0
176
0
177
0
178
0
179
2
271
2
272
2
273
2
274
3
275
0
276
0
277
2
278
46
279
2
280
0
281
0
282
0
283
0
284
8
285
0
286
0
288
1
289
3
290
0
340
4C
371
-2
372
-2
  0
DIMSTYLE
105
81
330
4
100
AcDbSymbolTableRecord
100
AcDbDimStyleTableRecord
  2
EZ_M_5_H25_CM
 70
0
 40
1.0
 41
0.0125
 42
0.00625
 43
3.75
 44
0.018750000000000003
 45
0.0
 46
0.0
 47
0.0
 48
0.0
 49
2.5
140
0.0125
141
2.5
142
0.00625
143
0.03937007874
144
100.0
145
0.0
146
0.5
147
0.005000000000000001
148
0.0
 69
0
 70
0
 71
0
 72
0
 73
0
 74
0
 75
0
 76
0
 77
1
 78
12
 79
3
170
0
171
3
172
1
173
0
174
0
175
0
176
0
177
0
178
0
179
2
271
2
272
2
273
2
274
3
275
0
276
0
277
2
278
46
279
2
280
0
281
0
282
0
283
0
284
8
285
0
286
0
288
1
289
3
290
0
340
4C
371
-2
372
-2
  0
DIMSTYLE
105
82
330
4
100
AcDbSymbolTableRecord
100
AcDbDimStyleTableRecord
  2
EZ_M_1_H25_CM
 70
0
 40
1.0
 41
0.0025
 42
0.00125
 43
3.75
 44
0.00375
 45
0.0
 46
0.0
 47
0.0
 48
0.0
 49
2.5
140
0.0025
141
2.5
142
0.00125
143
0.03937007874
144
100.0
145
0.0
146
0.5
147
0.001
148
0.0
 69
0
 70
0
 71
0
 72
0
 73
0
 74
0
 75
0
 76
0
 77
1
 78
12
 79
3
170
0
171
3
172
1
173
0
174
0
175
0
176
0
177
0
178
0
179
2
271
2
272
2
273
2
274
3
275
0
276
0
277
2
278
46
279
2
280
0
281
0
282
0
283
0
284
8
285
0
286
0
288
1
289
3
290
0
340
4C
371
-2
372
-2
  0
DIMSTYLE
105
83
330
4
100
AcDbSymbolTableRecord
100
AcDbDimStyleTableRecord
  2
EZ_RADIUS
 70
0
 40
1.0
 41
0.25
 42
0.125
 43
3.75
 44
0.375
 45
0.0
 46
0.0
 47
0.0
 48
0.0
 49
2.5
140
0.25
141
0.0
142
0.0
143
0.03937007874
144
100.0
145
0.0
146
0.5
147
0.1
148
0.0
 69
0
 70
0
 71
0
 72
0
 73
0
 74
0
 75
0
 76
0
 77
1
 78
12
 79
3
170
0
171
3
172
0
173
0
174
0
175
0
176
0
177
0
178
0
179
2
271
2
272
2
273
2
274
3
275
0
276
0
277
2
278
46
279
1
280
0
281
0
282
0
283
0
284
8
285
0
286
0
288
1
289
3
290
0
340
4C
342
84
371
-2
372
-2
  0
DIMSTYLE
105
88
330
4
100
AcDbSymbolTableRecord
100
AcDbDimStyleTableRecord
  2
EZ_RADIUS_INSIDE
 70
0
 40
1.0
 41
0.25
 42
0.125
 43
3.75
 44
0.375
 45
0.0
 46
0.0
 47
0.0
 48
0.0
 49
2.5
140
0.25
141
0.0
142
0.0
143
0.03937007874
144
100.0
145
0.0
146
0.5
147
0.1
148
0.0
 69
0
 70
0
 71
0
 72
0
 73
0
 74
0
 75
0
 76
0
 77
0
 78
12
 79
3
170
0
171
3
172
0
173
0
174
1
175
0
176
0
177
0
178
0
179
2
271
2
272
2
273
2
274
3
275
0
276
0
277
2
278
46
279
0
280
0
281
0
282
0
283
0
284
8
285
0
286
0
288
1
289
0
290
0
340
4C
342
84
371
-2
372
-2
  0
DIMSTYLE
105
89
330
4
100
AcDbSymbolTableRecord
100
AcDbDimStyleTableRecord
  2
EZ_CURVED
 70
0
 40
1.0
 41
0.25
 42
0.125
 43
3.75
 44
0.375
 45
0.0
 46
0.0
 47
0.0
 48
0.0
 49
2.5
140
0.25
141
2.5
142
0.0
143
0.03937007874
144
100.0
145
0.0
146
0.5
147
0.1
148
0.0
 69
0
 70
0
 71
0
 72
0
 73
0
 74
0
 75
0
 76
0
 77
1
 78
12
 79
2
 90
2
170
0
171
3
172
1
173
0
174
0
175
0
176
0
177
0
178
0
179
2
271
2
272
2
273
2
274
3
275
0
276
0
277
2
278
46
279
2
280
0
281
0
282
0
283
0
284
8
285
0
286
0
288
1
289
3
290
0
340
4C
371
-2
372
-2
  0
ENDTAB
  0
TABLE
  2
BLOCK_RECORD
  5
9
330
0
100
AcDbSymbolTable
 70
5
  0
BLOCK_RECORD
  5
17
330
9
100
AcDbSymbolTableRecord
100
AcDbBlockTableRecord
  2
*Model_Space
340
1A
 70
0
280
1
281
0
  0
BLOCK_RECORD
  5
1B
330
9
100
AcDbSymbolTableRecord
100
AcDbBlockTableRecord
  2
*Paper_Space
340
1E
 70
0
280
1
281
0
  0
BLOCK_RECORD
  5
74
330
9
100
AcDbSymbolTableRecord
100
AcDbBlockTableRecord
  2
_ARCHTICK
340
0
 70
0
280
1
281
0
  0
BLOCK_RECORD
  5
78
330
9
100
AcDbSymbolTableRecord
100
AcDbBlockTableRecord
  2
_CLOSEDFILLED
340
0
 70
0
280
1
281
0
  0
BLOCK_RECORD
  5
84
330
9
100
AcDbSymbolTableRecord
100
AcDbBlockTableRecord
  2
_CLOSEDBLANK
340
0
 70
0
280
1
281
0
  0
ENDTAB
  0
ENDSEC
  0
SECTION
  2
BLOCKS
  0
BLOCK
  5
18
330
17
100
AcDbEntity
  8
0
100
AcDbBlockBegin
  2
*Model_Space
 70
0
 10
0.0
 20
0.0
 30
0.0
  3
*Model_Space
  1

  0
ENDBLK
  5
19
330
17
100
AcDbEntity
  8
0
100
AcDbBlockEnd
  0
BLOCK
  5
1C
330
1B
100
AcDbEntity
  8
0
100
AcDbBlockBegin
  2
*Paper_Space
 70
0
 10
0.0
 20
0.0
 30
0.0
  3
*Paper_Space
  1

  0
ENDBLK
  5
1D
330
1B
100
AcDbEntity
  8
0
100
AcDbBlockEnd
  0
BLOCK
  5
75
330
74
100
AcDbEntity
  8
0
100
AcDbBlockBegin
  2
_ARCHTICK
 70
0
 10
0.0
 20
0.0
 30
0.0
  3
_ARCHTICK
  1

  0
LWPOLYLINE
  5
77
330
74
100
AcDbEntity
  8
0
  6
BYBLOCK
 62
0
100
AcDbPolyline
 90
2
 70
0
 43
0.15
 10
-0.5
 20
-0.5
 10
0.5
 20
0.5
  0
ENDBLK
  5
76
330
74
100
AcDbEntity
  8
0
100
AcDbBlockEnd
  0
BLOCK
  5
79
330
78
100
AcDbEntity
  8
0
100
AcDbBlockBegin
  2
_CLOSEDFILLED
 70
0
 10
0.0
 20
0.0
 30
0.0
  3
_CLOSEDFILLED
  1

  0
SOLID
  5
7B
330
78
100
AcDbEntity
  8
0
  6
BYBLOCK
 62
0
100
AcDbTrace
 10
-1.0
 20
0.16439898372402537
 30
0.0
 11
0.0
 21
0.0
 31
0.0
 12
-1.0
 22
-0.16439898372402537
 32
0.0
 13
-1.0
 23
-0.16439898372402537
 33
0.0
  0
ENDBLK
  5
7A
330
78
100
AcDbEntity
  8
0
100
AcDbBlockEnd
  0
BLOCK
  5
85
330
84
100
AcDbEntity
  8
0
100
AcDbBlockBegin
  2
_CLOSEDBLANK
 70
0
 10
0.0
 20
0.0
 30
0.0
  3
_CLOSEDBLANK
  1

  0
LWPOLYLINE
  5
87
330
84
100
AcDbEntity
  8
0
  6
BYBLOCK
 62
0
100
AcDbPolyline
 90
3
 70
1
 10
-1.0
 20
0.16439898372402537
 10
0.0
 20
0.0
 10
-1.0
 20
-0.16439898372402537
  0
ENDBLK
  5
86
330
84
100
AcDbEntity
  8
0
100
AcDbBlockEnd
  0
ENDSEC
  0
SECTION
  2
ENTITIES
  0
LWPOLYLINE
  5
8C
330
17
100
AcDbEntity
  8
Front elevation
100
AcDbPolyline
 90
4
 70
0
 10
9.094488188976378
 20
0.0
 10
9.094488188976378
 20
92.99212598425197
 10
49.09448818897638
 20
92.99212598425197
 10
49.09448818897638
 20
0.0
  0
LWPOLYLINE
  5
8D
330
17
100
AcDbEntity
  8
Front elevation
  6
DASHED
100
AcDbPolyline
 90
4
 70
0
 10
7.086614173228346
 20
0.0
 10
7.086614173228346
 20
95.0
 10
51.10236220472441
 20
95.0
 10
51.10236220472441
 20
0.0
  0
LWPOLYLINE
  5
8E
330
17
100
AcDbEntity
  8
Front elevation
100
AcDbPolyline
 90
5
 70
0
 10
11.10236220472441
 20
90.98425196850394
 10
29.094488188976378
 20
90.98425196850394
 10
29.094488188976378
 20
0.0
 10
11.10236220472441
 20
0.0
 10
11.10236220472441
 20
90.98425196850394
  0
LINE
  5
8F
330
17
100
AcDbEntity
  8
Front elevation
100
AcDbLine
 10
15.039370078740157
 20
87.04724409448819
 30
0.0
 11
25.15748031496063
 21
87.04724409448819
 31
0.0
  0
LINE
  5
90
330
17
100
AcDbEntity
  8
Front elevation
100
AcDbLine
 10
15.039370078740157
 20
9.05511811023622
 30
0.0
 11
25.15748031496063
 21
9.05511811023622
 31
0.0
  0
LINE
  5
91
330
17
100
AcDbEntity
  8
Front elevation
100
AcDbLine
 10
15.039370078740157
 20
42.24409448818898
 30
0.0
 11
15.039370078740157
 21
33.188976377952756
 31
0.0
  0
LINE
  5
92
330
17
100
AcDbEntity
  8
Front elevation
100
AcDbLine
 10
25.15748031496063
 20
42.24409448818898
 30
0.0
 11
25.15748031496063
 21
33.188976377952756
 31
0.0
  0
LINE
  5
93
330
17
100
AcDbEntity
  8
Front elevation
100
AcDbLine
 10
15.039370078740157
 20
90.98425196850394
 30
0.0
 11
15.039370078740157
 21
87.04724409448819
 31
0.0
  0
LINE
  5
94
330
17
100
AcDbEntity
  8
Front elevation
100
AcDbLine
 10
25.15748031496063
 20
90.98425196850394
 30
0.0
 11
25.15748031496063
 21
87.04724409448819
 31
0.0
  0
LINE
  5
95
330
17
100
AcDbEntity
  8
Front elevation
100
AcDbLine
 10
15.039370078740157
 20
9.05511811023622
 30
0.0
 11
15.039370078740157
 21
0.0
 31
0.0
  0
LINE
  5
96
330
17
100
AcDbEntity
  8
Front elevation
100
AcDbLine
 10
25.15748031496063
 20
9.05511811023622
 30
0.0
 11
25.15748031496063
 21
0.0
 31
0.0
  0
LWPOLYLINE
  5
97
330
17
100
AcDbEntity
  8
Front elevation
100
AcDbPolyline
 90
5
 70
0
 10
15.039370078740157
 20
87.04724409448819
 10
25.15748031496063
 20
87.04724409448819
 10
25.15748031496063
 20
42.24409448818898
 10
15.039370078740157
 20
42.24409448818898
 10
15.039370078740157
 20
87.04724409448819
  0
LWPOLYLINE
  5
98
330
17
100
AcDbEntity
  8
Front elevation
100
AcDbPolyline
 90
5
 70
0
 10
15.826771653543307
 20
86.25984251968504
 10
24.37007874015748
 20
86.25984251968504
 10
24.37007874015748
 20
43.03149606299213
 10
15.826771653543307
 20
43.03149606299213
 10
15.826771653543307
 20
86.25984251968504
  0
LINE
  5
99
330
17
100
AcDbEntity
  8
Front elevation
100
AcDbLine
 10
15.039370078740157
 20
87.04724409448819
 30
0.0
 11
15.826771653543307
 21
86.25984251968504
 31
0.0
  0
LINE
  5
9A
330
17
100
AcDbEntity
  8
Front elevation
100
AcDbLine
 10
25.15748031496063
 20
87.04724409448819
 30
0.0
 11
24.37007874015748
 21
86.25984251968504
 31
0.0
  0
LINE
  5
9B
330
17
100
AcDbEntity
  8
Front elevation
100
AcDbLine
 10
15.039370078740157
 20
42.24409448818898
 30
0.0
 11
15.826771653543307
 21
43.031496062992126
 31
0.0
  0
LINE
  5
9C
330
17
100
AcDbEntity
  8
Front elevation
100
AcDbLine
 10
25.15748031496063
 20
42.24409448818898
 30
0.0
 11
24.37007874015748
 21
43.031496062992126
 31
0.0
  0
POLYLINE
  5
9D
330
17
100
AcDbEntity
  8
Front elevation
100
AcDb2dPolyline
 66
1
 10
0.0
 20
0.0
 30
0.0
 70
0
  0
VERTEX
  5
9E
330
9D
100
AcDbEntity
  8
Front elevation
100
AcDbVertex
100
AcDb2dVertex
 10
16.8503937007874
 20
46.417322834645674
 30
0.0
 70
0
  0
VERTEX
  5
9F
330
9D
100
AcDbEntity
  8
Front elevation
100
AcDbVertex
100
AcDb2dVertex
 10
16.8503937007874
 20
82.8740157480315
 30
0.0
 70
0
  0
SEQEND
  5
A0
330
9D
100
AcDbEntity
  8
Front elevation
  0
SPLINE
  5
A1
330
17
100
AcDbEntity
  8
Front elevation
100
AcDbSpline
 70
0
 71
3
 72
14
 73
10
 74
0
 40
0.0
 40
0.0
 40
0.0
 40
0.0
 40
1.0
 40
1.0
 40
1.0
 40
2.0
 40
2.0
 40
2.0
 40
3.0
 40
3.0
 40
3.0
 40
3.0
 10
16.8503937007874
 20
82.8740157480315
 30
0.0
 10
17.030063522553597
 20
82.8740157480315
 30
0.0
 10
17.2066060944665
 20
82.92132018760528
 30
0.0
 10
17.362204724409448
 20
83.01115509848837
 30
0.0
 10
17.517803354352395
 20
83.10099000937147
 30
0.0
 10
17.647041486691524
 20
83.2302281417106
 30
0.0
 10
17.736876397574623
 20
83.38582677165354
 30
0.0
 10
17.826711308457718
 20
83.5414254015965
 30
0.0
 10
17.874015748031496
 20
83.7179679735094
 30
0.0
 10
17.874015748031496
 20
83.8976377952756
 30
0.0
  0
SPLINE
  5
A2
330
17
100
AcDbEntity
  8
Front elevation
100
AcDbSpline
 70
0
 71
3
 72
11
 73
7
 74
0
 40
0.0
 40
0.0
 40
0.0
 40
0.0
 40
1.0
 40
1.0
 40
1.0
 40
2.0
 40
2.0
 40
2.0
 40
2.0
 10
17.874015748031496
 20
83.8976377952756
 30
0.0
 10
18.986220472440944
 20
83.8976377952756
 30
0.0
 10
18.71929133858268
 20
85.23622047244095
 30
0.0
 10
20.098425196850393
 20
85.23622047244095
 30
0.0
 10
21.477559055118107
 20
85.23622047244095
 30
0.0
 10
21.210629921259844
 20
83.8976377952756
 30
0.0
 10
22.32283464566929
 20
83.8976377952756
 30
0.0
  0
SPLINE
  5
A3
330
17
100
AcDbEntity
  8
Front elevation
100
AcDbSpline
 70
0
 71
3
 72
14
 73
10
 74
0
 40
0.0
 40
0.0
 40
0.0
 40
0.0
 40
1.0
 40
1.0
 40
1.0
 40
2.0
 40
2.0
 40
2.0
 40
3.0
 40
3.0
 40
3.0
 40
3.0
 10
22.32283464566929
 20
83.8976377952756
 30
0.0
 10
22.32283464566929
 20
83.7179679735094
 30
0.0
 10
22.370139085243068
 20
83.5414254015965
 30
0.0
 10
22.459973996126166
 20
83.38582677165354
 30
0.0
 10
22.54980890700926
 20
83.2302281417106
 30
0.0
 10
22.67904703934839
 20
83.10099000937147
 30
0.0
 10
22.83464566929134
 20
83.01115509848837
 30
0.0
 10
22.990244299234284
 20
82.92132018760528
 30
0.0
 10
23.166786871147192
 20
82.8740157480315
 30
0.0
 10
23.346456692913385
 20
82.8740157480315
 30
0.0
  0
POLYLINE
  5
A4
330
17
100
AcDbEntity
  8
Front elevation
100
AcDb2dPolyline
 66
1
 10
0.0
 20
0.0
 30
0.0
 70
0
  0
VERTEX
  5
A5
330
A4
100
AcDbEntity
  8
Front elevation
100
AcDbVertex
100
AcDb2dVertex
 10
23.346456692913385
 20
82.8740157480315
 30
0.0
 70
0
  0
VERTEX
  5
A6
330
A4
100
AcDbEntity
  8
Front elevation
100
AcDbVertex
100
AcDb2dVertex
 10
23.346456692913385
 20
46.417322834645674
 30
0.0
 70
0
  0
SEQEND
  5
A7
330
A4
100
AcDbEntity
  8
Front elevation
  0
SPLINE
  5
A8
330
17
100
AcDbEntity
  8
Front elevation
100
AcDbSpline
 70
0
 71
3
 72
14
 73
10
 74
0
 40
0.0
 40
0.0
 40
0.0
 40
0.0
 40
1.0
 40
1.0
 40
1.0
 40
2.0
 40
2.0
 40
2.0
 40
3.0
 40
3.0
 40
3.0
 40
3.0
 10
23.346456692913385
 20
46.417322834645674
 30
0.0
 10
23.166786871147192
 20
46.417322834645674
 30
0.0
 10
22.990244299234284
 20
46.37001839507189
 30
0.0
 10
22.83464566929134
 20
46.2801834841888
 30
0.0
 10
22.67904703934839
 20
46.190348573305705
 30
0.0
 10
22.54980890700926
 20
46.06111044096657
 30
0.0
 10
22.459973996126166
 20
45.90551181102363
 30
0.0
 10
22.370139085243068
 20
45.74991318108068
 30
0.0
 10
22.32283464566929
 20
45.573370609167775
 30
0.0
 10
22.32283464566929
 20
45.39370078740158
 30
0.0
  0
SPLINE
  5
A9
330
17
100
AcDbEntity
  8
Front elevation
100
AcDbSpline
 70
0
 71
3
 72
11
 73
7
 74
0
 40
0.0
 40
0.0
 40
0.0
 40
0.0
 40
1.0
 40
1.0
 40
1.0
 40
2.0
 40
2.0
 40
2.0
 40
2.0
 10
22.32283464566929
 20
45.39370078740158
 30
0.0
 10
21.210629921259844
 20
45.39370078740158
 30
0.0
 10
21.477559055118107
 20
44.05511811023622
 30
0.0
 10
20.098425196850393
 20
44.05511811023622
 30
0.0
 10
18.71929133858268
 20
44.05511811023622
 30
0.0
 10
18.986220472440944
 20
45.39370078740158
 30
0.0
 10
17.874015748031496
 20
45.39370078740158
 30
0.0
  0
SPLINE
  5
AA
330
17
100
AcDbEntity
  8
Front elevation
100
AcDbSpline
 70
0
 71
3
 72
14
 73
10
 74
0
 40
0.0
 40
0.0
 40
0.0
 40
0.0
 40
1.0
 40
1.0
 40
1.0
 40
2.0
 40
2.0
 40
2.0
 40
3.0
 40
3.0
 40
3.0
 40
3.0
 10
17.874015748031496
 20
45.39370078740158
 30
0.0
 10
17.874015748031496
 20
45.573370609167775
 30
0.0
 10
17.826711308457718
 20
45.74991318108068
 30
0.0
 10
17.736876397574623
 20
45.90551181102363
 30
0.0
 10
17.647041486691524
 20
46.06111044096657
 30
0.0
 10
17.517803354352395
 20
46.190348573305705
 30
0.0
 10
17.362204724409448
 20
46.2801834841888
 30
0.0
 10
17.2066060944665
 20
46.37001839507189
 30
0.0
 10
17.030063522553597
 20
46.417322834645674
 30
0.0
 10
16.8503937007874
 20
46.417322834645674
 30
0.0
  0
CIRCLE
  5
AB
330
17
100
AcDbEntity
  8
Front elevation
100
AcDbCircle
 10
16.95275590551181
 20
84.0
 30
0.0
 40
9.0
  0
CIRCLE
  5
AC
330
17
100
AcDbEntity
  8
Front elevation
100
AcDbCircle
 10
16.95275590551181
 20
84.0
 30
0.0
 40
3.6
  0
CIRCLE
  5
AD
330
17
100
AcDbEntity
  8
Front elevation
100
AcDbCircle
 10
23.244094488188974
 20
84.0
 30
0.0
 40
9.0
  0
CIRCLE
  5
AE
330
17
100
AcDbEntity
  8
Front elevation
100
AcDbCircle
 10
23.244094488188974
 20
84.0
 30
0.0
 40
3.6
  0
CIRCLE
  5
AF
330
17
100
AcDbEntity
  8
Front elevation
100
AcDbCircle
 10
16.95275590551181
 20
45.29133858267717
 30
0.0
 40
9.0
  0
CIRCLE
  5
B0
330
17
100
AcDbEntity
  8
Front elevation
100
AcDbCircle
 10
16.95275590551181
 20
45.29133858267717
 30
0.0
 40
3.6
  0
CIRCLE
  5
B1
330
17
100
AcDbEntity
  8
Front elevation
100
AcDbCircle
 10
23.244094488188974
 20
45.29133858267717
 30
0.0
 40
9.0
  0
CIRCLE
  5
B2
330
17
100
AcDbEntity
  8
Front elevation
100
AcDbCircle
 10
23.244094488188974
 20
45.29133858267717
 30
0.0
 40
3.6
  0
LWPOLYLINE
  5
B3
330
17
100
AcDbEntity
  8
Front elevation
100
AcDbPolyline
 90
5
 70
0
 10
15.039370078740157
 20
33.18897637795276
 10
25.15748031496063
 20
33.18897637795276
 10
25.15748031496063
 20
9.055118110236222
 10
15.039370078740157
 20
9.055118110236222
 10
15.039370078740157
 20
33.18897637795276
  0
LWPOLYLINE
  5
B4
330
17
100
AcDbEntity
  8
Front elevation
100
AcDbPolyline
 90
5
 70
0
 10
15.826771653543307
 20
32.40157480314961
 10
24.37007874015748
 20
32.40157480314961
 10
24.37007874015748
 20
9.842519685039377
 10
15.826771653543307
 20
9.842519685039377
 10
15.826771653543307
 20
32.40157480314961
  0
LINE
  5
B5
330
17
100
AcDbEntity
  8
Front elevation
100
AcDbLine
 10
15.039370078740157
 20
33.188976377952756
 30
0.0
 11
15.826771653543307
 21
32.40157480314961
 31
0.0
  0
LINE
  5
B6
330
17
100
AcDbEntity
  8
Front elevation
100
AcDbLine
 10
25.15748031496063
 20
33.188976377952756
 30
0.0
 11
24.37007874015748
 21
32.40157480314961
 31
0.0
  0
LINE
  5
B7
330
17
100
AcDbEntity
  8
Front elevation
100
AcDbLine
 10
15.039370078740157
 20
9.05511811023622
 30
0.0
 11
15.826771653543307
 21
9.84251968503937
 31
0.0
  0
LINE
  5
B8
330
17
100
AcDbEntity
  8
Front elevation
100
AcDbLine
 10
25.15748031496063
 20
9.05511811023622
 30
0.0
 11
24.37007874015748
 21
9.84251968503937
 31
0.0
  0
POLYLINE
  5
B9
330
17
100
AcDbEntity
  8
Front elevation
100
AcDb2dPolyline
 66
1
 10
0.0
 20
0.0
 30
0.0
 70
0
  0
VERTEX
  5
BA
330
B9
100
AcDbEntity
  8
Front elevation
100
AcDbVertex
100
AcDb2dVertex
 10
16.8503937007874
 20
13.228346456692918
 30
0.0
 70
0
  0
VERTEX
  5
BB
330
B9
100
AcDbEntity
  8
Front elevation
100
AcDbVertex
100
AcDb2dVertex
 10
16.8503937007874
 20
29.015748031496067
 30
0.0
 70
0
  0
SEQEND
  5
BC
330
B9
100
AcDbEntity
  8
Front elevation
  0
SPLINE
  5
BD
330
17
100
AcDbEntity
  8
Front elevation
100
AcDbSpline
 70
0
 71
3
 72
14
 73
10
 74
0
 40
0.0
 40
0.0
 40
0.0
 40
0.0
 40
1.0
 40
1.0
 40
1.0
 40
2.0
 40
2.0
 40
2.0
 40
3.0
 40
3.0
 40
3.0
 40
3.0
 10
16.8503937007874
 20
29.015748031496067
 30
0.0
 10
17.030063522553597
 20
29.015748031496067
 30
0.0
 10
17.2066060944665
 20
29.063052471069852
 30
0.0
 10
17.362204724409448
 20
29.152887381952944
 30
0.0
 10
17.517803354352395
 20
29.242722292836035
 30
0.0
 10
17.647041486691524
 20
29.371960425175168
 30
0.0
 10
17.736876397574623
 20
29.527559055118118
 30
0.0
 10
17.826711308457718
 20
29.68315768506106
 30
0.0
 10
17.874015748031496
 20
29.859700256973966
 30
0.0
 10
17.874015748031496
 20
30.039370078740163
 30
0.0
  0
SPLINE
  5
BE
330
17
100
AcDbEntity
  8
Front elevation
100
AcDbSpline
 70
0
 71
3
 72
11
 73
7
 74
0
 40
0.0
 40
0.0
 40
0.0
 40
0.0
 40
1.0
 40
1.0
 40
1.0
 40
2.0
 40
2.0
 40
2.0
 40
2.0
 10
17.874015748031496
 20
30.039370078740163
 30
0.0
 10
18.986220472440944
 20
30.039370078740163
 30
0.0
 10
18.71929133858268
 20
31.37795275590552
 30
0.0
 10
20.098425196850393
 20
31.37795275590552
 30
0.0
 10
21.477559055118107
 20
31.37795275590552
 30
0.0
 10
21.210629921259844
 20
30.039370078740163
 30
0.0
 10
22.32283464566929
 20
30.039370078740163
 30
0.0
  0
SPLINE
  5
BF
330
17
100
AcDbEntity
  8
Front elevation
100
AcDbSpline
 70
0
 71
3
 72
14
 73
10
 74
0
 40
0.0
 40
0.0
 40
0.0
 40
0.0
 40
1.0
 40
1.0
 40
1.0
 40
2.0
 40
2.0
 40
2.0
 40
3.0
 40
3.0
 40
3.0
 40
3.0
 10
22.32283464566929
 20
30.039370078740163
 30
0.0
 10
22.32283464566929
 20
29.859700256973966
 30
0.0
 10
22.370139085243068
 20
29.68315768506106
 30
0.0
 10
22.459973996126166
 20
29.527559055118118
 30
0.0
 10
22.54980890700926
 20
29.371960425175168
 30
0.0
 10
22.67904703934839
 20
29.242722292836035
 30
0.0
 10
22.83464566929134
 20
29.152887381952944
 30
0.0
 10
22.990244299234284
 20
29.063052471069852
 30
0.0
 10
23.166786871147192
 20
29.015748031496067
 30
0.0
 10
23.346456692913385
 20
29.015748031496067
 30
0.0
  0
POLYLINE
  5
C0
330
17
100
AcDbEntity
  8
Front elevation
100
AcDb2dPolyline
 66
1
 10
0.0
 20
0.0
 30
0.0
 70
0
  0
VERTEX
  5
C1
330
C0
100
AcDbEntity
  8
Front elevation
100
AcDbVertex
100
AcDb2dVertex
 10
23.346456692913385
 20
29.015748031496067
 30
0.0
 70
0
  0
VERTEX
  5
C2
330
C0
100
AcDbEntity
  8
Front elevation
100
AcDbVertex
100
AcDb2dVertex
 10
23.346456692913385
 20
13.228346456692918
 30
0.0
 70
0
  0
SEQEND
  5
C3
330
C0
100
AcDbEntity
  8
Front elevation
  0
SPLINE
  5
C4
330
17
100
AcDbEntity
  8
Front elevation
100
AcDbSpline
 70
0
 71
3
 72
14
 73
10
 74
0
 40
0.0
 40
0.0
 40
0.0
 40
0.0
 40
1.0
 40
1.0
 40
1.0
 40
2.0
 40
2.0
 40
2.0
 40
3.0
 40
3.0
 40
3.0
 40
3.0
 10
23.346456692913385
 20
13.228346456692918
 30
0.0
 10
23.166786871147192
 20
13.228346456692918
 30
0.0
 10
22.990244299234284
 20
13.18104201711914
 30
0.0
 10
22.83464566929134
 20
13.091207106236041
 30
0.0
 10
22.67904703934839
 20
13.001372195352957
 30
0.0
 10
22.54980890700926
 20
12.872134063013817
 30
0.0
 10
22.459973996126166
 20
12.716535433070874
 30
0.0
 10
22.370139085243068
 20
12.560936803127916
 30
0.0
 10
22.32283464566929
 20
12.384394231215012
 30
0.0
 10
22.32283464566929
 20
12.20472440944883
 30
0.0
  0
SPLINE
  5
C5
330
17
100
AcDbEntity
  8
Front elevation
100
AcDbSpline
 70
0
 71
3
 72
11
 73
7
 74
0
 40
0.0
 40
0.0
 40
0.0
 40
0.0
 40
1.0
 40
1.0
 40
1.0
 40
2.0
 40
2.0
 40
2.0
 40
2.0
 10
22.32283464566929
 20
12.20472440944883
 30
0.0
 10
21.210629921259844
 20
12.20472440944883
 30
0.0
 10
21.477559055118107
 20
10.866141732283467
 30
0.0
 10
20.098425196850393
 20
10.866141732283467
 30
0.0
 10
18.71929133858268
 20
10.866141732283467
 30
0.0
 10
18.986220472440944
 20
12.20472440944883
 30
0.0
 10
17.874015748031496
 20
12.20472440944883
 30
0.0
  0
SPLINE
  5
C6
330
17
100
AcDbEntity
  8
Front elevation
100
AcDbSpline
 70
0
 71
3
 72
14
 73
10
 74
0
 40
0.0
 40
0.0
 40
0.0
 40
0.0
 40
1.0
 40
1.0
 40
1.0
 40
2.0
 40
2.0
 40
2.0
 40
3.0
 40
3.0
 40
3.0
 40
3.0
 10
17.874015748031496
 20
12.20472440944883
 30
0.0
 10
17.874015748031496
 20
12.384394231215012
 30
0.0
 10
17.826711308457718
 20
12.560936803127916
 30
0.0
 10
17.736876397574623
 20
12.716535433070874
 30
0.0
 10
17.647041486691524
 20
12.872134063013817
 30
0.0
 10
17.517803354352395
 20
13.001372195352957
 30
0.0
 10
17.362204724409448
 20
13.091207106236041
 30
0.0
 10
17.2066060944665
 20
13.18104201711914
 30
0.0
 10
17.030063522553597
 20
13.228346456692918
 30
0.0
 10
16.8503937007874
 20
13.228346456692918
 30
0.0
  0
CIRCLE
  5
C7
330
17
100
AcDbEntity
  8
Front elevation
100
AcDbCircle
 10
16.95275590551181
 20
30.141732283464563
 30
0.0
 40
9.0
  0
CIRCLE
  5
C8
330
17
100
AcDbEntity
  8
Front elevation
100
AcDbCircle
 10
16.95275590551181
 20
30.141732283464563
 30
0.0
 40
3.6
  0
CIRCLE
  5
C9
330
17
100
AcDbEntity
  8
Front elevation
100
AcDbCircle
 10
23.244094488188974
 20
30.141732283464563
 30
0.0
 40
9.0
  0
CIRCLE
  5
CA
330
17
100
AcDbEntity
  8
Front elevation
100
AcDbCircle
 10
23.244094488188974
 20
30.141732283464563
 30
0.0
 40
3.6
  0
CIRCLE
  5
CB
330
17
100
AcDbEntity
  8
Front elevation
100
AcDbCircle
 10
16.95275590551181
 20
12.102362204724413
 30
0.0
 40
9.0
  0
CIRCLE
  5
CC
330
17
100
AcDbEntity
  8
Front elevation
100
AcDbCircle
 10
16.95275590551181
 20
12.102362204724413
 30
0.0
 40
3.6
  0
CIRCLE
  5
CD
330
17
100
AcDbEntity
  8
Front elevation
100
AcDbCircle
 10
23.244094488188974
 20
12.102362204724413
 30
0.0
 40
9.0
  0
CIRCLE
  5
CE
330
17
100
AcDbEntity
  8
Front elevation
100
AcDbCircle
 10
23.244094488188974
 20
12.102362204724413
 30
0.0
 40
3.6
  0
CIRCLE
  5
CF
330
17
100
AcDbEntity
  8
Front elevation
100
AcDbCircle
 10
16.22047244094488
 20
37.71653543307087
 30
0.0
 40
27.5
  0
CIRCLE
  5
D0
330
17
100
AcDbEntity
  8
Front elevation
100
AcDbCircle
 10
16.22047244094488
 20
37.71653543307087
 30
0.0
 40
17.5
  0
CIRCLE
  5
D1
330
17
100
AcDbEntity
  8
Front elevation
100
AcDbCircle
 10
12.755905511811024
 20
37.71653543307087
 30
0.0
 40
17.0
  0
SPLINE
  5
D2
330
17
100
AcDbEntity
  8
Front elevation
100
AcDbSpline
 70
0
 71
3
 72
35
 73
31
 74
0
 40
0.0
 40
0.0
 40
0.0
 40
0.0
 40
1.0
 40
1.0
 40
1.0
 40
2.0
 40
2.0
 40
2.0
 40
3.0
 40
3.0
 40
3.0
 40
4.0
 40
4.0
 40
4.0
 40
5.0
 40
5.0
 40
5.0
 40
6.0
 40
6.0
 40
6.0
 40
7.0
 40
7.0
 40
7.0
 40
8.0
 40
8.0
 40
8.0
 40
9.0
 40
9.0
 40
9.0
 40
10.0
 40
10.0
 40
10.0
 40
10.0
 10
12.637795275590552
 20
37.75590551181103
 30
0.0
 10
12.616460234270079
 20
37.774988152889165
 30
0.0
 10
12.600064290096489
 20
37.79896009865495
 30
0.0
 10
12.590015756296504
 20
37.825762302801884
 30
0.0
 10
12.579967222496519
 20
37.852564506948816
 30
0.0
 10
12.576562282105641
 20
37.8814069678368
 30
0.0
 10
12.580093399073364
 20
37.9098122911341
 30
0.0
 10
12.583624516041086
 20
37.938217614431395
 30
0.0
 10
12.593987609815652
 20
37.9653485461618
 30
0.0
 10
12.610292552821736
 20
37.98887470207882
 30
0.0
 10
12.626597495827822
 20
38.01240085799583
 30
0.0
 10
12.64836369581093
 20
38.031628798796554
 30
0.0
 10
12.673721566792544
 20
38.04490695973635
 30
0.0
 10
12.699079437774158
 20
38.05818512067615
 30
0.0
 10
12.72728155019382
 20
38.0651221246555
 30
0.0
 10
12.755905511811028
 20
38.0651221246555
 30
0.0
 10
12.784529473428236
 20
38.0651221246555
 30
0.0
 10
12.812731585847898
 20
38.05818512067615
 30
0.0
 10
12.838089456829511
 20
38.04490695973635
 30
0.0
 10
12.863447327811123
 20
38.031628798796554
 30
0.0
 10
12.885213527794232
 20
38.01240085799582
 30
0.0
 10
12.901518470800315
 20
37.98887470207881
 30
0.0
 10
12.9178234138064
 20
37.96534854616179
 30
0.0
 10
12.928186507580964
 20
37.93821761443139
 30
0.0
 10
12.931717624548684
 20
37.90981229113409
 30
0.0
 10
12.935248741516405
 20
37.881406967836796
 30
0.0
 10
12.931843801125526
 20
37.8525645069488
 30
0.0
 10
12.921795267325539
 20
37.82576230280188
 30
0.0
 10
12.911746733525554
 20
37.798960098654945
 30
0.0
 10
12.89535078935197
 20
37.774988152889165
 30
0.0
 10
12.874015748031496
 20
37.75590551181103
 30
0.0
  0
POLYLINE
  5
D3
330
17
100
AcDbEntity
  8
Front elevation
100
AcDb2dPolyline
 66
1
 10
0.0
 20
0.0
 30
0.0
 70
0
  0
VERTEX
  5
D4
330
D3
100
AcDbEntity
  8
Front elevation
100
AcDbVertex
100
AcDb2dVertex
 10
12.874015748031496
 20
37.75590551181103
 30
0.0
 70
0
  0
VERTEX
  5
D5
330
D3
100
AcDbEntity
  8
Front elevation
100
AcDbVertex
100
AcDb2dVertex
 10
12.933070866141732
 20
37.322834645669296
 30
0.0
 70
0
  0
VERTEX
  5
D6
330
D3
100
AcDbEntity
  8
Front elevation
100
AcDbVertex
100
AcDb2dVertex
 10
12.578740157480315
 20
37.322834645669296
 30
0.0
 70
0
  0
VERTEX
  5
D7
330
D3
100
AcDbEntity
  8
Front elevation
100
AcDbVertex
100
AcDb2dVertex
 10
12.637795275590552
 20
37.75590551181103
 30
0.0
 70
0
  0
SEQEND
  5
D8
330
D3
100
AcDbEntity
  8
Front elevation
  0
LWPOLYLINE
  5
D9
330
17
100
AcDbEntity
  8
Front elevation
100
AcDbPolyline
 90
5
 70
0
 10
29.094488188976378
 20
90.98425196850394
 10
47.08661417322834
 20
90.98425196850394
 10
47.08661417322834
 20
0.0
 10
29.094488188976378
 20
0.0
 10
29.094488188976378
 20
90.98425196850394
  0
LINE
  5
DA
330
17
100
AcDbEntity
  8
Front elevation
100
AcDbLine
 10
33.031496062992126
 20
87.04724409448819
 30
0.0
 11
43.1496062992126
 21
87.04724409448819
 31
0.0
  0
LINE
  5
DB
330
17
100
AcDbEntity
  8
Front elevation
100
AcDbLine
 10
33.031496062992126
 20
9.05511811023622
 30
0.0
 11
43.1496062992126
 21
9.05511811023622
 31
0.0
  0
LINE
  5
DC
330
17
100
AcDbEntity
  8
Front elevation
100
AcDbLine
 10
33.031496062992126
 20
42.24409448818898
 30
0.0
 11
33.031496062992126
 21
33.188976377952756
 31
0.0
  0
LINE
  5
DD
330
17
100
AcDbEntity
  8
Front elevation
100
AcDbLine
 10
43.1496062992126
 20
42.24409448818898
 30
0.0
 11
43.1496062992126
 21
33.188976377952756
 31
0.0
  0
LINE
  5
DE
330
17
100
AcDbEntity
  8
Front elevation
100
AcDbLine
 10
33.031496062992126
 20
90.98425196850394
 30
0.0
 11
33.031496062992126
 21
87.04724409448819
 31
0.0
  0
LINE
  5
DF
330
17
100
AcDbEntity
  8
Front elevation
100
AcDbLine
 10
43.1496062992126
 20
90.98425196850394
 30
0.0
 11
43.1496062992126
 21
87.04724409448819
 31
0.0
  0
LINE
  5
E0
330
17
100
AcDbEntity
  8
Front elevation
100
AcDbLine
 10
33.031496062992126
 20
9.05511811023622
 30
0.0
 11
33.031496062992126
 21
0.0
 31
0.0
  0
LINE
  5
E1
330
17
100
AcDbEntity
  8
Front elevation
100
AcDbLine
 10
43.1496062992126
 20
9.05511811023622
 30
0.0
 11
43.1496062992126
 21
0.0
 31
0.0
  0
LWPOLYLINE
  5
E2
330
17
100
AcDbEntity
  8
Front elevation
100
AcDbPolyline
 90
5
 70
0
 10
33.031496062992126
 20
87.04724409448819
 10
43.14960629921259
 20
87.04724409448819
 10
43.14960629921259
 20
42.24409448818898
 10
33.031496062992126
 20
42.24409448818898
 10
33.031496062992126
 20
87.04724409448819
  0
LWPOLYLINE
  5
E3
330
17
100
AcDbEntity
  8
Front elevation
100
AcDbPolyline
 90
5
 70
0
 10
33.818897637795274
 20
86.25984251968504
 10
42.36220472440945
 20
86.25984251968504
 10
42.36220472440945
 20
43.03149606299213
 10
33.818897637795274
 20
43.03149606299213
 10
33.818897637795274
 20
86.25984251968504
  0
LINE
  5
E4
330
17
100
AcDbEntity
  8
Front elevation
100
AcDbLine
 10
33.031496062992126
 20
87.04724409448819
 30
0.0
 11
33.818897637795274
 21
86.25984251968504
 31
0.0
  0
LINE
  5
E5
330
17
100
AcDbEntity
  8
Front elevation
100
AcDbLine
 10
43.1496062992126
 20
87.04724409448819
 30
0.0
 11
42.36220472440945
 21
86.25984251968504
 31
0.0
  0
LINE
  5
E6
330
17
100
AcDbEntity
  8
Front elevation
100
AcDbLine
 10
33.031496062992126
 20
42.24409448818898
 30
0.0
 11
33.818897637795274
 21
43.031496062992126
 31
0.0
  0
LINE
  5
E7
330
17
100
AcDbEntity
  8
Front elevation
100
AcDbLine
 10
43.1496062992126
 20
42.24409448818898
 30
0.0
 11
42.36220472440945
 21
43.031496062992126
 31
0.0
  0
POLYLINE
  5
E8
330
17
100
AcDbEntity
  8
Front elevation
100
AcDb2dPolyline
 66
1
 10
0.0
 20
0.0
 30
0.0
 70
0
  0
VERTEX
  5
E9
330
E8
100
AcDbEntity
  8
Front elevation
100
AcDbVertex
100
AcDb2dVertex
 10
34.84251968503937
 20
46.417322834645674
 30
0.0
 70
0
  0
VERTEX
  5
EA
330
E8
100
AcDbEntity
  8
Front elevation
100
AcDbVertex
100
AcDb2dVertex
 10
34.84251968503937
 20
82.8740157480315
 30
0.0
 70
0
  0
SEQEND
  5
EB
330
E8
100
AcDbEntity
  8
Front elevation
  0
SPLINE
  5
EC
330
17
100
AcDbEntity
  8
Front elevation
100
AcDbSpline
 70
0
 71
3
 72
14
 73
10
 74
0
 40
0.0
 40
0.0
 40
0.0
 40
0.0
 40
1.0
 40
1.0
 40
1.0
 40
2.0
 40
2.0
 40
2.0
 40
3.0
 40
3.0
 40
3.0
 40
3.0
 10
34.84251968503937
 20
82.8740157480315
 30
0.0
 10
35.02218950680557
 20
82.8740157480315
 30
0.0
 10
35.19873207871847
 20
82.92132018760528
 30
0.0
 10
35.354330708661415
 20
83.01115509848837
 30
0.0
 10
35.50992933860436
 20
83.10099000937147
 30
0.0
 10
35.63916747094349
 20
83.2302281417106
 30
0.0
 10
35.72900238182659
 20
83.38582677165354
 30
0.0
 10
35.81883729270969
 20
83.5414254015965
 30
0.0
 10
35.86614173228347
 20
83.7179679735094
 30
0.0
 10
35.86614173228347
 20
83.8976377952756
 30
0.0
  0
SPLINE
  5
ED
330
17
100
AcDbEntity
  8
Front elevation
100
AcDbSpline
 70
0
 71
3
 72
11
 73
7
 74
0
 40
0.0
 40
0.0
 40
0.0
 40
0.0
 40
1.0
 40
1.0
 40
1.0
 40
2.0
 40
2.0
 40
2.0
 40
2.0
 10
35.86614173228347
 20
83.8976377952756
 30
0.0
 10
36.97834645669291
 20
83.8976377952756
 30
0.0
 10
36.71141732283465
 20
85.23622047244095
 30
0.0
 10
38.09055118110236
 20
85.23622047244095
 30
0.0
 10
39.46968503937008
 20
85.23622047244095
 30
0.0
 10
39.20275590551181
 20
83.8976377952756
 30
0.0
 10
40.31496062992126
 20
83.8976377952756
 30
0.0
  0
SPLINE
  5
EE
330
17
100
AcDbEntity
  8
Front elevation
100
AcDbSpline
 70
0
 71
3
 72
14
 73
10
 74
0
 40
0.0
 40
0.0
 40
0.0
 40
0.0
 40
1.0
 40
1.0
 40
1.0
 40
2.0
 40
2.0
 40
2.0
 40
3.0
 40
3.0
 40
3.0
 40
3.0
 10
40.31496062992126
 20
83.8976377952756
 30
0.0
 10
40.31496062992126
 20
83.7179679735094
 30
0.0
 10
40.36226506949504
 20
83.5414254015965
 30
0.0
 10
40.45209998037814
 20
83.38582677165354
 30
0.0
 10
40.541934891261235
 20
83.2302281417106
 30
0.0
 10
40.67117302360036
 20
83.10099000937147
 30
0.0
 10
40.826771653543304
 20
83.01115509848837
 30
0.0
 10
40.982370283486254
 20
82.92132018760528
 30
0.0
 10
41.15891285539916
 20
82.8740157480315
 30
0.0
 10
41.338582677165356
 20
82.8740157480315
 30
0.0
  0
POLYLINE
  5
EF
330
17
100
AcDbEntity
  8
Front elevation
100
AcDb2dPolyline
 66
1
 10
0.0
 20
0.0
 30
0.0
 70
0
  0
VERTEX
  5
F0
330
EF
100
AcDbEntity
  8
Front elevation
100
AcDbVertex
100
AcDb2dVertex
 10
41.338582677165356
 20
82.8740157480315
 30
0.0
 70
0
  0
VERTEX
  5
F1
330
EF
100
AcDbEntity
  8
Front elevation
100
AcDbVertex
100
AcDb2dVertex
 10
41.338582677165356
 20
46.417322834645674
 30
0.0
 70
0
  0
SEQEND
  5
F2
330
EF
100
AcDbEntity
  8
Front elevation
  0
SPLINE
  5
F3
330
17
100
AcDbEntity
  8
Front elevation
100
AcDbSpline
 70
0
 71
3
 72
14
 73
10
 74
0
 40
0.0
 40
0.0
 40
0.0
 40
0.0
 40
1.0
 40
1.0
 40
1.0
 40
2.0
 40
2.0
 40
2.0
 40
3.0
 40
3.0
 40
3.0
 40
3.0
 10
41.338582677165356
 20
46.417322834645674
 30
0.0
 10
41.15891285539916
 20
46.417322834645674
 30
0.0
 10
40.982370283486254
 20
46.37001839507189
 30
0.0
 10
40.826771653543304
 20
46.2801834841888
 30
0.0
 10
40.67117302360036
 20
46.190348573305705
 30
0.0
 10
40.541934891261235
 20
46.06111044096657
 30
0.0
 10
40.45209998037814
 20
45.90551181102363
 30
0.0
 10
40.36226506949504
 20
45.74991318108068
 30
0.0
 10
40.31496062992126
 20
45.573370609167775
 30
0.0
 10
40.31496062992126
 20
45.39370078740158
 30
0.0
  0
SPLINE
  5
F4
330
17
100
AcDbEntity
  8
Front elevation
100
AcDbSpline
 70
0
 71
3
 72
11
 73
7
 74
0
 40
0.0
 40
0.0
 40
0.0
 40
0.0
 40
1.0
 40
1.0
 40
1.0
 40
2.0
 40
2.0
 40
2.0
 40
2.0
 10
40.31496062992126
 20
45.39370078740158
 30
0.0
 10
39.20275590551181
 20
45.39370078740158
 30
0.0
 10
39.46968503937008
 20
44.05511811023622
 30
0.0
 10
38.09055118110236
 20
44.05511811023622
 30
0.0
 10
36.71141732283465
 20
44.05511811023622
 30
0.0
 10
36.97834645669291
 20
45.39370078740158
 30
0.0
 10
35.86614173228347
 20
45.39370078740158
 30
0.0
  0
SPLINE
  5
F5
330
17
100
AcDbEntity
  8
Front elevation
100
AcDbSpline
 70
0
 71
3
 72
14
 73
10
 74
0
 40
0.0
 40
0.0
 40
0.0
 40
0.0
 40
1.0
 40
1.0
 40
1.0
 40
2.0
 40
2.0
 40
2.0
 40
3.0
 40
3.0
 40
3.0
 40
3.0
 10
35.86614173228347
 20
45.39370078740158
 30
0.0
 10
35.86614173228347
 20
45.573370609167775
 30
0.0
 10
35.81883729270969
 20
45.74991318108068
 30
0.0
 10
35.72900238182659
 20
45.90551181102363
 30
0.0
 10
35.63916747094349
 20
46.06111044096657
 30
0.0
 10
35.50992933860436
 20
46.190348573305705
 30
0.0
 10
35.354330708661415
 20
46.2801834841888
 30
0.0
 10
35.19873207871847
 20
46.37001839507189
 30
0.0
 10
35.02218950680557
 20
46.417322834645674
 30
0.0
 10
34.84251968503937
 20
46.417322834645674
 30
0.0
  0
CIRCLE
  5
F6
330
17
100
AcDbEntity
  8
Front elevation
100
AcDbCircle
 10
34.94488188976378
 20
84.0
 30
0.0
 40
9.0
  0
CIRCLE
  5
F7
330
17
100
AcDbEntity
  8
Front elevation
100
AcDbCircle
 10
34.94488188976378
 20
84.0
 30
0.0
 40
3.6
  0
CIRCLE
  5
F8
330
17
100
AcDbEntity
  8
Front elevation
100
AcDbCircle
 10
41.23622047244095
 20
84.0
 30
0.0
 40
9.0
  0
CIRCLE
  5
F9
330
17
100
AcDbEntity
  8
Front elevation
100
AcDbCircle
 10
41.23622047244095
 20
84.0
 30
0.0
 40
3.6
  0
CIRCLE
  5
FA
330
17
100
AcDbEntity
  8
Front elevation
100
AcDbCircle
 10
34.94488188976378
 20
45.29133858267717
 30
0.0
 40
9.0
  0
CIRCLE
  5
FB
330
17
100
AcDbEntity
  8
Front elevation
100
AcDbCircle
 10
34.94488188976378
 20
45.29133858267717
 30
0.0
 40
3.6
  0
CIRCLE
  5
FC
330
17
100
AcDbEntity
  8
Front elevation
100
AcDbCircle
 10
41.23622047244095
 20
45.29133858267717
 30
0.0
 40
9.0
  0
CIRCLE
  5
FD
330
17
100
AcDbEntity
  8
Front elevation
100
AcDbCircle
 10
41.23622047244095
 20
45.29133858267717
 30
0.0
 40
3.6
  0
LWPOLYLINE
  5
FE
330
17
100
AcDbEntity
  8
Front elevation
100
AcDbPolyline
 90
5
 70
0
 10
33.031496062992126
 20
33.18897637795276
 10
43.14960629921259
 20
33.18897637795276
 10
43.14960629921259
 20
9.055118110236222
 10
33.031496062992126
 20
9.055118110236222
 10
33.031496062992126
 20
33.18897637795276
  0
LWPOLYLINE
  5
FF
330
17
100
AcDbEntity
  8
Front elevation
100
AcDbPolyline
 90
5
 70
0
 10
33.818897637795274
 20
32.40157480314961
 10
42.36220472440945
 20
32.40157480314961
 10
42.36220472440945
 20
9.842519685039377
 10
33.818897637795274
 20
9.842519685039377
 10
33.818897637795274
 20
32.40157480314961
  0
LINE
  5
100
330
17
100
AcDbEntity
  8
Front elevation
100
AcDbLine
 10
33.031496062992126
 20
33.188976377952756
 30
0.0
 11
33.818897637795274
 21
32.40157480314961
 31
0.0
  0
LINE
  5
101
330
17
100
AcDbEntity
  8
Front elevation
100
AcDbLine
 10
43.1496062992126
 20
33.188976377952756
 30
0.0
 11
42.36220472440945
 21
32.40157480314961
 31
0.0
  0
LINE
  5
102
330
17
100
AcDbEntity
  8
Front elevation
100
AcDbLine
 10
33.031496062992126
 20
9.05511811023622
 30
0.0
 11
33.818897637795274
 21
9.84251968503937
 31
0.0
  0
LINE
  5
103
330
17
100
AcDbEntity
  8
Front elevation
100
AcDbLine
 10
43.1496062992126
 20
9.05511811023622
 30
0.0
 11
42.36220472440945
 21
9.84251968503937
 31
0.0
  0
POLYLINE
  5
104
330
17
100
AcDbEntity
  8
Front elevation
100
AcDb2dPolyline
 66
1
 10
0.0
 20
0.0
 30
0.0
 70
0
  0
VERTEX
  5
105
330
104
100
AcDbEntity
  8
Front elevation
100
AcDbVertex
100
AcDb2dVertex
 10
34.84251968503937
 20
13.228346456692918
 30
0.0
 70
0
  0
VERTEX
  5
106
330
104
100
AcDbEntity
  8
Front elevation
100
AcDbVertex
100
AcDb2dVertex
 10
34.84251968503937
 20
29.015748031496067
 30
0.0
 70
0
  0
SEQEND
  5
107
330
104
100
AcDbEntity
  8
Front elevation
  0
SPLINE
  5
108
330
17
100
AcDbEntity
  8
Front elevation
100
AcDbSpline
 70
0
 71
3
 72
14
 73
10
 74
0
 40
0.0
 40
0.0
 40
0.0
 40
0.0
 40
1.0
 40
1.0
 40
1.0
 40
2.0
 40
2.0
 40
2.0
 40
3.0
 40
3.0
 40
3.0
 40
3.0
 10
34.84251968503937
 20
29.015748031496067
 30
0.0
 10
35.02218950680557
 20
29.015748031496067
 30
0.0
 10
35.19873207871847
 20
29.063052471069852
 30
0.0
 10
35.354330708661415
 20
29.152887381952944
 30
0.0
 10
35.50992933860436
 20
29.242722292836035
 30
0.0
 10
35.63916747094349
 20
29.371960425175168
 30
0.0
 10
35.72900238182659
 20
29.527559055118118
 30
0.0
 10
35.81883729270969
 20
29.68315768506106
 30
0.0
 10
35.86614173228347
 20
29.859700256973966
 30
0.0
 10
35.86614173228347
 20
30.039370078740163
 30
0.0
  0
SPLINE
  5
109
330
17
100
AcDbEntity
  8
Front elevation
100
AcDbSpline
 70
0
 71
3
 72
11
 73
7
 74
0
 40
0.0
 40
0.0
 40
0.0
 40
0.0
 40
1.0
 40
1.0
 40
1.0
 40
2.0
 40
2.0
 40
2.0
 40
2.0
 10
35.86614173228347
 20
30.039370078740163
 30
0.0
 10
36.97834645669291
 20
30.039370078740163
 30
0.0
 10
36.71141732283465
 20
31.37795275590552
 30
0.0
 10
38.09055118110236
 20
31.37795275590552
 30
0.0
 10
39.46968503937008
 20
31.37795275590552
 30
0.0
 10
39.20275590551181
 20
30.039370078740163
 30
0.0
 10
40.31496062992126
 20
30.039370078740163
 30
0.0
  0
SPLINE
  5
10A
330
17
100
AcDbEntity
  8
Front elevation
100
AcDbSpline
 70
0
 71
3
 72
14
 73
10
 74
0
 40
0.0
 40
0.0
 40
0.0
 40
0.0
 40
1.0
 40
1.0
 40
1.0
 40
2.0
 40
2.0
 40
2.0
 40
3.0
 40
3.0
 40
3.0
 40
3.0
 10
40.31496062992126
 20
30.039370078740163
 30
0.0
 10
40.31496062992126
 20
29.859700256973966
 30
0.0
 10
40.36226506949504
 20
29.68315768506106
 30
0.0
 10
40.45209998037814
 20
29.527559055118118
 30
0.0
 10
40.541934891261235
 20
29.371960425175168
 30
0.0
 10
40.67117302360036
 20
29.242722292836035
 30
0.0
 10
40.826771653543304
 20
29.152887381952944
 30
0.0
 10
40.982370283486254
 20
29.063052471069852
 30
0.0
 10
41.15891285539916
 20
29.015748031496067
 30
0.0
 10
41.338582677165356
 20
29.015748031496067
 30
0.0
  0
POLYLINE
  5
10B
330
17
100
AcDbEntity
  8
Front elevation
100
AcDb2dPolyline
 66
1
 10
0.0
 20
0.0
 30
0.0
 70
0
  0
VERTEX
  5
10C
330
10B
100
AcDbEntity
  8
Front elevation
100
AcDbVertex
100
AcDb2dVertex
 10
41.338582677165356
 20
29.015748031496067
 30
0.0
 70
0
  0
VERTEX
  5
10D
330
10B
100
AcDbEntity
  8
Front elevation
100
AcDbVertex
100
AcDb2dVertex
 10
41.338582677165356
 20
13.228346456692918
 30
0.0
 70
0
  0
SEQEND
  5
10E
330
10B
100
AcDbEntity
  8
Front elevation
  0
SPLINE
  5
10F
330
17
100
AcDbEntity
  8
Front elevation
100
AcDbSpline
 70
0
 71
3
 72
14
 73
10
 74
0
 40
0.0
 40
0.0
 40
0.0
 40
0.0
 40
1.0
 40
1.0
 40
1.0
 40
2.0
 40
2.0
 40
2.0
 40
3.0
 40
3.0
 40
3.0
 40
3.0
 10
41.338582677165356
 20
13.228346456692918
 30
0.0
 10
41.15891285539916
 20
13.228346456692918
 30
0.0
 10
40.982370283486254
 20
13.18104201711914
 30
0.0
 10
40.826771653543304
 20
13.091207106236041
 30
0.0
 10
40.67117302360036
 20
13.001372195352957
 30
0.0
 10
40.541934891261235
 20
12.872134063013817
 30
0.0
 10
40.45209998037814
 20
12.716535433070874
 30
0.0
 10
40.36226506949504
 20
12.560936803127916
 30
0.0
 10
40.31496062992126
 20
12.384394231215012
 30
0.0
 10
40.31496062992126
 20
12.20472440944883
 30
0.0
  0
SPLINE
  5
110
330
17
100
AcDbEntity
  8
Front elevation
100
AcDbSpline
 70
0
 71
3
 72
11
 73
7
 74
0
 40
0.0
 40
0.0
 40
0.0
 40
0.0
 40
1.0
 40
1.0
 40
1.0
 40
2.0
 40
2.0
 40
2.0
 40
2.0
 10
40.31496062992126
 20
12.20472440944883
 30
0.0
 10
39.20275590551181
 20
12.20472440944883
 30
0.0
 10
39.46968503937008
 20
10.866141732283467
 30
0.0
 10
38.09055118110236
 20
10.866141732283467
 30
0.0
 10
36.71141732283465
 20
10.866141732283467
 30
0.0
 10
36.97834645669291
 20
12.20472440944883
 30
0.0
 10
35.86614173228347
 20
12.20472440944883
 30
0.0
  0
SPLINE
  5
111
330
17
100
AcDbEntity
  8
Front elevation
100
AcDbSpline
 70
0
 71
3
 72
14
 73
10
 74
0
 40
0.0
 40
0.0
 40
0.0
 40
0.0
 40
1.0
 40
1.0
 40
1.0
 40
2.0
 40
2.0
 40
2.0
 40
3.0
 40
3.0
 40
3.0
 40
3.0
 10
35.86614173228347
 20
12.20472440944883
 30
0.0
 10
35.86614173228347
 20
12.384394231215012
 30
0.0
 10
35.81883729270969
 20
12.560936803127916
 30
0.0
 10
35.72900238182659
 20
12.716535433070874
 30
0.0
 10
35.63916747094349
 20
12.872134063013817
 30
0.0
 10
35.50992933860436
 20
13.001372195352957
 30
0.0
 10
35.354330708661415
 20
13.091207106236041
 30
0.0
 10
35.19873207871847
 20
13.18104201711914
 30
0.0
 10
35.02218950680557
 20
13.228346456692918
 30
0.0
 10
34.84251968503937
 20
13.228346456692918
 30
0.0
  0
CIRCLE
  5
112
330
17
100
AcDbEntity
  8
Front elevation
100
AcDbCircle
 10
34.94488188976378
 20
30.141732283464563
 30
0.0
 40
9.0
  0
CIRCLE
  5
113
330
17
100
AcDbEntity
  8
Front elevation
100
AcDbCircle
 10
34.94488188976378
 20
30.141732283464563
 30
0.0
 40
3.6
  0
CIRCLE
  5
114
330
17
100
AcDbEntity
  8
Front elevation
100
AcDbCircle
 10
41.23622047244095
 20
30.141732283464563
 30
0.0
 40
9.0
  0
CIRCLE
  5
115
330
17
100
AcDbEntity
  8
Front elevation
100
AcDbCircle
 10
41.23622047244095
 20
30.141732283464563
 30
0.0
 40
3.6
  0
CIRCLE
  5
116
330
17
100
AcDbEntity
  8
Front elevation
100
AcDbCircle
 10
34.94488188976378
 20
12.102362204724413
 30
0.0
 40
9.0
  0
CIRCLE
  5
117
330
17
100
AcDbEntity
  8
Front elevation
100
AcDbCircle
 10
34.94488188976378
 20
12.102362204724413
 30
0.0
 40
3.6
  0
CIRCLE
  5
118
330
17
100
AcDbEntity
  8
Front elevation
100
AcDbCircle
 10
41.23622047244095
 20
12.102362204724413
 30
0.0
 40
9.0
  0
CIRCLE
  5
119
330
17
100
AcDbEntity
  8
Front elevation
100
AcDbCircle
 10
41.23622047244095
 20
12.102362204724413
 30
0.0
 40
3.6
  0
LINE
  5
11A
330
17
100
AcDbEntity
  8
Front elevation
100
AcDbLine
 10
29.330708661417322
 20
90.98425196850394
 30
0.0
 11
29.330708661417322
 21
0.0
 31
0.0
  0
LINE
  5
11B
330
17
100
AcDbEntity
  8
Front elevation
100
AcDbLine
 10
0.0
 20
0.0
 30
0.0
 11
58.188976377952756
 21
0.0
 31
0.0
  0
TEXT
  5
11C
330
17
100
AcDbEntity
  8
LABELS
100
AcDbText
 10
0.0
 20
97.36220472440945
 30
0.0
 40
1.1637795275590552
  1
FRONT ELEVATION  (1:1, inches)
 11
0.0
 21
97.36220472440945
 31
0.0
100
AcDbText
  0
LWPOLYLINE
  5
11F
330
17
100
AcDbEntity
  8
Panel head - detail A
100
AcDbPolyline
 90
2
 70
0
 10
69.80314960629921
 20
8.937007874015748
 10
69.80314960629921
 20
7.362204724409449
  0
LWPOLYLINE
  5
120
330
17
100
AcDbEntity
  8
Panel head - detail A
100
AcDbPolyline
 90
2
 70
0
 10
79.92125984251969
 20
8.937007874015748
 10
79.92125984251969
 20
7.362204724409449
  0
LWPOLYLINE
  5
121
330
17
100
AcDbEntity
  8
Panel head - detail A
100
AcDbPolyline
 90
3
 70
0
 10
69.80314960629921
 20
7.362204724409449
 10
79.92125984251969
 20
7.362204724409449
 10
79.92125984251969
 20
0.47244094488188976
  0
LWPOLYLINE
  5
122
330
17
100
AcDbEntity
  8
Panel head - detail A
100
AcDbPolyline
 90
2
 70
0
 10
69.80314960629921
 20
0.47244094488188976
 10
69.80314960629921
 20
7.362204724409449
  0
LWPOLYLINE
  5
123
330
17
100
AcDbEntity
  8
Panel head - detail A
100
AcDbPolyline
 90
3
 70
0
 10
70.59055118110236
 20
6.574803149606299
 10
79.13385826771653
 20
6.574803149606299
 10
79.13385826771653
 20
0.47244094488188976
  0
LWPOLYLINE
  5
124
330
17
100
AcDbEntity
  8
Panel head - detail A
100
AcDbPolyline
 90
2
 70
0
 10
70.59055118110236
 20
0.47244094488188976
 10
70.59055118110236
 20
6.574803149606299
  0
LWPOLYLINE
  5
125
330
17
100
AcDbEntity
  8
Panel head - detail A
100
AcDbPolyline
 90
2
 70
0
 10
69.80314960629921
 20
7.362204724409449
 10
70.59055118110236
 20
6.574803149606299
  0
LWPOLYLINE
  5
126
330
17
100
AcDbEntity
  8
Panel head - detail A
100
AcDbPolyline
 90
2
 70
0
 10
79.92125984251969
 20
7.362204724409449
 10
79.13385826771653
 20
6.574803149606299
  0
LWPOLYLINE
  5
127
330
17
100
AcDbEntity
  8
Panel head - detail A
100
AcDbPolyline
 90
55
 70
0
 10
71.61417322834646
 20
0.47244094488188976
 10
71.61417322834646
 20
3.188976377952756
 10
71.74806084950929
 20
3.1977713671187074
 10
71.8791054370912
 20
3.2238579616000314
 10
72.00563667620625
 20
3.2667886018719368
 10
72.1259842519685
 20
3.32611572840963
 10
72.23753683856481
 20
3.4006762230347682
 10
72.33798148319853
 20
3.4887901703447732
 10
72.42609543050854
 20
3.5892348149785
 10
72.50065592513367
 20
3.7007874015748032
 10
72.55998305167138
 20
3.8211349773370578
 10
72.60291369194327
 20
3.9476662164521086
 10
72.6290002864246
 20
4.07871080403402
 10
72.63779527559055
 20
4.21259842519685
 10
72.83091050996555
 20
4.227631336122047
 10
72.99613373523621
 20
4.270115649606299
 10
73.13789639210137
 20
4.336129736712598
 10
73.26062992125983
 20
4.421751968503937
 10
73.36876576341044
 20
4.523060716043307
 10
73.46673535925197
 20
4.636134350393701
 10
73.64990157480315
 20
4.881889763779528
 10
73.84558009350394
 20
5.127645177165355
 10
73.95919006828248
 20
5.240718811515748
 10
74.08922244094488
 20
5.342027559055118
 10
74.24010865218996
 20
5.4276497908464565
 10
74.41628014271653
 20
5.493663877952756
 10
74.62216835322343
 20
5.536148191437007
 10
74.86220472440945
 20
5.551181102362205
 10
75.10224109559547
 20
5.536148191437007
 10
75.30812930610236
 20
5.493663877952756
 10
75.48430079662893
 20
5.4276497908464565
 10
75.63518700787401
 20
5.342027559055118
 10
75.76521938053642
 20
5.240718811515748
 10
75.87882935531496
 20
5.127645177165355
 10
76.07450787401575
 20
4.881889763779528
 10
76.25767408956693
 20
4.636134350393701
 10
76.35564368540847
 20
4.523060716043307
 10
76.46377952755905
 20
4.421751968503937
 10
76.58651305671752
 20
4.336129736712598
 10
76.72827571358268
 20
4.270115649606299
 10
76.89349893885334
 20
4.227631336122047
 10
77.08661417322834
 20
4.21259842519685
 10
77.09540916239429
 20
4.07871080403402
 10
77.12149575687562
 20
3.9476662164521086
 10
77.16442639714752
 20
3.8211349773370578
 10
77.22375352368522
 20
3.7007874015748032
 10
77.29831401831035
 20
3.5892348149785
 10
77.38642796562036
 20
3.4887901703447732
 10
77.4868726102541
 20
3.4006762230347682
 10
77.59842519685039
 20
3.32611572840963
 10
77.71877277261265
 20
3.2667886018719368
 10
77.84530401172769
 20
3.2238579616000314
 10
77.97634859930962
 20
3.1977713671187074
 10
78.11023622047244
 20
3.188976377952756
 10
78.11023622047244
 20
0.47244094488188976
  0
LWPOLYLINE
  5
128
330
17
100
AcDbEntity
  8
Panel head - detail A
100
AcDbPolyline
 90
49
 70
0
 10
72.07086614173228
 20
4.314960629921259
 10
72.06782172240561
 20
4.268614914903356
 10
72.05879174739285
 20
4.223253326894234
 10
72.04393114114488
 20
4.179454051815947
 10
72.0233948281126
 20
4.137795275590551
 10
71.99758542612697
 20
4.0991809186918315
 10
71.96708444436582
 20
4.06441161862631
 10
71.93231514430029
 20
4.033910636865155
 10
71.89370078740157
 20
4.008101234879529
 10
71.85204201117618
 20
3.9875649218472504
 10
71.8082427360979
 20
3.9727043155992834
 10
71.76288114808877
 20
3.9636743405865174
 10
71.71653543307086
 20
3.960629921259842
 10
71.67018971805297
 20
3.9636743405865174
 10
71.62482813004384
 20
3.9727043155992834
 10
71.58102885496555
 20
3.9875649218472504
 10
71.53937007874015
 20
4.008101234879529
 10
71.50075572184143
 20
4.033910636865155
 10
71.46598642177591
 20
4.06441161862631
 10
71.43548544001476
 20
4.0991809186918315
 10
71.40967603802913
 20
4.137795275590551
 10
71.38913972499685
 20
4.179454051815947
 10
71.37427911874889
 20
4.223253326894234
 10
71.36524914373612
 20
4.268614914903356
 10
71.36220472440944
 20
4.314960629921259
 10
71.36524914373612
 20
4.3613063449391625
 10
71.37427911874889
 20
4.406667932948285
 10
71.38913972499685
 20
4.450467208026572
 10
71.40967603802913
 20
4.4921259842519685
 10
71.43548544001476
 20
4.530740341150688
 10
71.46598642177591
 20
4.565509641216209
 10
71.50075572184143
 20
4.5960106229773645
 10
71.53937007874015
 20
4.6218200249629895
 10
71.58102885496555
 20
4.642356337995269
 10
71.62482813004384
 20
4.657216944243236
 10
71.67018971805297
 20
4.666246919256001
 10
71.71653543307086
 20
4.669291338582677
 10
71.76288114808877
 20
4.666246919256001
 10
71.8082427360979
 20
4.657216944243236
 10
71.85204201117618
 20
4.642356337995269
 10
71.89370078740157
 20
4.6218200249629895
 10
71.93231514430029
 20
4.5960106229773645
 10
71.96708444436582
 20
4.565509641216209
 10
71.99758542612697
 20
4.530740341150688
 10
72.0233948281126
 20
4.4921259842519685
 10
72.04393114114488
 20
4.450467208026572
 10
72.05879174739285
 20
4.406667932948285
 10
72.06782172240561
 20
4.3613063449391625
 10
72.07086614173228
 20
4.314960629921259
  0
LWPOLYLINE
  5
129
330
17
100
AcDbEntity
  8
Panel head - detail A
100
AcDbPolyline
 90
49
 70
0
 10
71.85826771653544
 20
4.314960629921259
 10
71.85704994880476
 20
4.2964223439141
 10
71.85343795879965
 20
4.2782777087104495
 10
71.84749371630048
 20
4.260757998679135
 10
71.83927919108756
 20
4.244094488188977
 10
71.8289554302933
 20
4.2286487454294885
 10
71.81675503758885
 20
4.21474102540328
 10
71.80284731756264
 20
4.202540632698818
 10
71.78740157480316
 20
4.192216871904568
 10
71.770738064313
 20
4.184002346691656
 10
71.75321835428167
 20
4.17805810419247
 10
71.73507371907803
 20
4.174446114187362
 10
71.71653543307086
 20
4.173228346456693
 10
71.6979971470637
 20
4.174446114187362
 10
71.67985251186005
 20
4.17805810419247
 10
71.66233280182874
 20
4.184002346691656
 10
71.64566929133858
 20
4.192216871904568
 10
71.6302235485791
 20
4.202540632698818
 10
71.61631582855289
 20
4.21474102540328
 10
71.60411543584841
 20
4.2286487454294885
 10
71.59379167505418
 20
4.244094488188976
 10
71.58557714984126
 20
4.260757998679134
 10
71.57963290734207
 20
4.2782777087104495
 10
71.57602091733698
 20
4.296422343914098
 10
71.5748031496063
 20
4.314960629921259
 10
71.57602091733698
 20
4.33349891592842
 10
71.57963290734207
 20
4.35164355113207
 10
71.58557714984126
 20
4.369163261163384
 10
71.59379167505418
 20
4.385826771653543
 10
71.60411543584841
 20
4.401272514413031
 10
71.61631582855289
 20
4.415180234439239
 10
71.6302235485791
 20
4.427380627143701
 10
71.64566929133858
 20
4.437704387937951
 10
71.66233280182874
 20
4.445918913150862
 10
71.67985251186005
 20
4.45186315565005
 10
71.6979971470637
 20
4.455475145655156
 10
71.71653543307086
 20
4.456692913385826
 10
71.73507371907803
 20
4.455475145655156
 10
71.75321835428167
 20
4.45186315565005
 10
71.770738064313
 20
4.445918913150862
 10
71.78740157480316
 20
4.437704387937951
 10
71.80284731756264
 20
4.427380627143701
 10
71.81675503758885
 20
4.415180234439239
 10
71.8289554302933
 20
4.401272514413031
 10
71.83927919108756
 20
4.3858267716535435
 10
71.84749371630048
 20
4.369163261163385
 10
71.85343795879965
 20
4.35164355113207
 10
71.85704994880476
 20
4.333498915928421
 10
71.85826771653544
 20
4.314960629921259
  0
LWPOLYLINE
  5
12A
330
17
100
AcDbEntity
  8
Panel head - detail A
100
AcDbPolyline
 90
49
 70
0
 10
78.36220472440945
 20
4.314960629921259
 10
78.35916030508277
 20
4.268614914903356
 10
78.35013033007
 20
4.223253326894234
 10
78.33526972382204
 20
4.179454051815947
 10
78.31473341078976
 20
4.137795275590551
 10
78.28892400880413
 20
4.0991809186918315
 10
78.25842302704298
 20
4.06441161862631
 10
78.22365372697746
 20
4.033910636865155
 10
78.18503937007874
 20
4.008101234879529
 10
78.14338059385335
 20
3.9875649218472504
 10
78.09958131877505
 20
3.9727043155992834
 10
78.05421973076594
 20
3.9636743405865174
 10
78.00787401574803
 20
3.960629921259842
 10
77.96152830073012
 20
3.9636743405865174
 10
77.91616671272101
 20
3.9727043155992834
 10
77.87236743764272
 20
3.9875649218472504
 10
77.83070866141732
 20
4.008101234879529
 10
77.7920943045186
 20
4.033910636865155
 10
77.75732500445308
 20
4.06441161862631
 10
77.72682402269193
 20
4.0991809186918315
 10
77.7010146207063
 20
4.137795275590551
 10
77.68047830767402
 20
4.179454051815947
 10
77.66561770142606
 20
4.223253326894234
 10
77.65658772641329
 20
4.268614914903356
 10
77.65354330708662
 20
4.314960629921259
 10
77.65658772641329
 20
4.3613063449391625
 10
77.66561770142606
 20
4.406667932948285
 10
77.68047830767402
 20
4.450467208026572
 10
77.7010146207063
 20
4.4921259842519685
 10
77.72682402269193
 20
4.530740341150688
 10
77.75732500445308
 20
4.565509641216209
 10
77.7920943045186
 20
4.5960106229773645
 10
77.83070866141732
 20
4.6218200249629895
 10
77.87236743764272
 20
4.642356337995269
 10
77.91616671272101
 20
4.657216944243236
 10
77.96152830073012
 20
4.666246919256001
 10
78.00787401574803
 20
4.669291338582677
 10
78.05421973076594
 20
4.666246919256001
 10
78.09958131877505
 20
4.657216944243236
 10
78.14338059385335
 20
4.642356337995269
 10
78.18503937007874
 20
4.6218200249629895
 10
78.22365372697746
 20
4.5960106229773645
 10
78.25842302704298
 20
4.565509641216209
 10
78.28892400880413
 20
4.530740341150688
 10
78.31473341078976
 20
4.4921259842519685
 10
78.33526972382204
 20
4.450467208026572
 10
78.35013033007
 20
4.406667932948285
 10
78.35916030508277
 20
4.3613063449391625
 10
78.36220472440945
 20
4.314960629921259
  0
LWPOLYLINE
  5
12B
330
17
100
AcDbEntity
  8
Panel head - detail A
100
AcDbPolyline
 90
49
 70
0
 10
78.14960629921259
 20
4.314960629921259
 10
78.14838853148193
 20
4.2964223439141
 10
78.14477654147683
 20
4.2782777087104495
 10
78.13883229897763
 20
4.260757998679135
 10
78.13061777376473
 20
4.244094488188977
 10
78.12029401297048
 20
4.2286487454294885
 10
78.108093620266
 20
4.21474102540328
 10
78.09418590023981
 20
4.202540632698818
 10
78.07874015748031
 20
4.192216871904568
 10
78.06207664699016
 20
4.184002346691656
 10
78.04455693695884
 20
4.17805810419247
 10
78.02641230175519
 20
4.174446114187362
 10
78.00787401574803
 20
4.173228346456693
 10
77.98933572974087
 20
4.174446114187362
 10
77.97119109453722
 20
4.17805810419247
 10
77.95367138450591
 20
4.184002346691656
 10
77.93700787401575
 20
4.192216871904568
 10
77.92156213125625
 20
4.202540632698818
 10
77.90765441123004
 20
4.21474102540328
 10
77.89545401852558
 20
4.2286487454294885
 10
77.88513025773133
 20
4.244094488188976
 10
77.87691573251843
 20
4.260757998679134
 10
77.87097149001924
 20
4.2782777087104495
 10
77.86735950001413
 20
4.296422343914098
 10
77.86614173228347
 20
4.314960629921259
 10
77.86735950001413
 20
4.33349891592842
 10
77.87097149001924
 20
4.35164355113207
 10
77.87691573251843
 20
4.369163261163384
 10
77.88513025773133
 20
4.385826771653543
 10
77.89545401852558
 20
4.401272514413031
 10
77.90765441123004
 20
4.415180234439239
 10
77.92156213125625
 20
4.427380627143701
 10
77.93700787401575
 20
4.437704387937951
 10
77.95367138450591
 20
4.445918913150862
 10
77.97119109453722
 20
4.45186315565005
 10
77.98933572974087
 20
4.455475145655156
 10
78.00787401574803
 20
4.456692913385826
 10
78.02641230175519
 20
4.455475145655156
 10
78.04455693695884
 20
4.45186315565005
 10
78.06207664699016
 20
4.445918913150862
 10
78.07874015748031
 20
4.437704387937951
 10
78.09418590023981
 20
4.427380627143701
 10
78.108093620266
 20
4.415180234439239
 10
78.12029401297048
 20
4.401272514413031
 10
78.13061777376473
 20
4.3858267716535435
 10
78.13883229897763
 20
4.369163261163385
 10
78.14477654147683
 20
4.35164355113207
 10
78.14838853148193
 20
4.333498915928421
 10
78.14960629921259
 20
4.314960629921259
  0
LWPOLYLINE
  5
12C
330
17
100
AcDbEntity
  8
Panel head - detail A
100
AcDbPolyline
 90
6
 70
0
 10
68.03149606299213
 20
0.4724409448818889
 10
74.38976377952756
 20
0.4724409448818889
 10
74.70472440944881
 20
0.9448818897637796
 10
75.01968503937007
 20
0.0
 10
75.33464566929135
 20
0.4724409448818889
 10
81.69291338582677
 20
0.4724409448818889
  0
TEXT
  5
12D
330
17
100
AcDbEntity
  8
LABELS
100
AcDbText
 10
68.03149606299212
 20
11.299212598425196
 30
0.0
 40
0.7086614173228346
  1
PANEL HEAD - DETAIL A  (1:1, inches)
 11
68.03149606299212
 21
11.299212598425196
 31
0.0
100
AcDbText
  0
POLYLINE
  5
130
330
17
100
AcDbEntity
  8
Section B-B
100
AcDb2dPolyline
 66
1
 10
0.0
 20
0.0
 30
0.0
 70
0
  0
VERTEX
  5
131
330
130
100
AcDbEntity
  8
Section B-B
100
AcDbVertex
100
AcDb2dVertex
 10
91.53543307086613
 20
2.559055118110236
 30
0.0
 70
0
  0
VERTEX
  5
132
330
130
100
AcDbEntity
  8
Section B-B
100
AcDbVertex
100
AcDb2dVertex
 10
94.68503937007873
 20
2.559055118110236
 30
0.0
 70
0
  0
VERTEX
  5
133
330
130
100
AcDbEntity
  8
Section B-B
100
AcDbVertex
100
AcDb2dVertex
 10
94.68503937007873
 20
2.4803149606299213
 30
0.0
 70
0
  0
SEQEND
  5
134
330
130
100
AcDbEntity
  8
Section B-B
  0
SPLINE
  5
135
330
17
100
AcDbEntity
  8
Section B-B
100
AcDbSpline
 70
0
 71
3
 72
8
 73
4
 74
0
 40
0.0
 40
0.0
 40
0.0
 40
0.0
 40
1.0
 40
1.0
 40
1.0
 40
1.0
 10
94.68503937007873
 20
2.4803149606299213
 30
0.0
 10
95.20997375328083
 20
2.4803149606299213
 30
0.0
 10
95.47244094488188
 20
2.3293963254593177
 30
0.0
 10
95.47244094488188
 20
2.02755905511811
 30
0.0
  0
POLYLINE
  5
136
330
17
100
AcDbEntity
  8
Section B-B
100
AcDb2dPolyline
 66
1
 10
0.0
 20
0.0
 30
0.0
 70
0
  0
VERTEX
  5
137
330
136
100
AcDbEntity
  8
Section B-B
100
AcDbVertex
100
AcDb2dVertex
 10
95.47244094488188
 20
2.02755905511811
 30
0.0
 70
0
  0
VERTEX
  5
138
330
136
100
AcDbEntity
  8
Section B-B
100
AcDbVertex
100
AcDb2dVertex
 10
95.47244094488188
 20
1.3188976377952755
 30
0.0
 70
0
  0
SEQEND
  5
139
330
136
100
AcDbEntity
  8
Section B-B
  0
SPLINE
  5
13A
330
17
100
AcDbEntity
  8
Section B-B
100
AcDbSpline
 70
0
 71
3
 72
8
 73
4
 74
0
 40
0.0
 40
0.0
 40
0.0
 40
0.0
 40
1.0
 40
1.0
 40
1.0
 40
1.0
 10
95.47244094488188
 20
1.3188976377952755
 30
0.0
 10
95.47244094488188
 20
1.0170603674540684
 30
0.0
 10
95.20997375328083
 20
0.8661417322834646
 30
0.0
 10
94.68503937007873
 20
0.8661417322834646
 30
0.0
  0
POLYLINE
  5
13B
330
17
100
AcDbEntity
  8
Section B-B
100
AcDb2dPolyline
 66
1
 10
0.0
 20
0.0
 30
0.0
 70
0
  0
VERTEX
  5
13C
330
13B
100
AcDbEntity
  8
Section B-B
100
AcDbVertex
100
AcDb2dVertex
 10
94.68503937007873
 20
0.8661417322834646
 30
0.0
 70
0
  0
VERTEX
  5
13D
330
13B
100
AcDbEntity
  8
Section B-B
100
AcDbVertex
100
AcDb2dVertex
 10
94.68503937007873
 20
0.7874015748031495
 30
0.0
 70
0
  0
VERTEX
  5
13E
330
13B
100
AcDbEntity
  8
Section B-B
100
AcDbVertex
100
AcDb2dVertex
 10
91.53543307086613
 20
0.7874015748031495
 30
0.0
 70
0
  0
VERTEX
  5
13F
330
13B
100
AcDbEntity
  8
Section B-B
100
AcDbVertex
100
AcDb2dVertex
 10
91.53543307086613
 20
2.559055118110236
 30
0.0
 70
0
  0
SEQEND
  5
140
330
13B
100
AcDbEntity
  8
Section B-B
  0
LWPOLYLINE
  5
141
330
17
100
AcDbEntity
  8
Section B-B
  6
DASHED
100
AcDbPolyline
 90
5
 70
0
 10
95.47244094488188
 20
2.02755905511811
 10
95.94488188976378
 20
2.02755905511811
 10
95.94488188976378
 20
1.3188976377952755
 10
95.47244094488188
 20
1.3188976377952755
 10
95.47244094488188
 20
2.02755905511811
  0
POLYLINE
  5
142
330
17
100
AcDbEntity
  8
Section B-B
100
AcDb2dPolyline
 66
1
 10
0.0
 20
0.0
 30
0.0
 70
0
  0
VERTEX
  5
143
330
142
100
AcDbEntity
  8
Section B-B
100
AcDbVertex
100
AcDb2dVertex
 10
110.0
 20
2.559055118110236
 30
0.0
 70
0
  0
VERTEX
  5
144
330
142
100
AcDbEntity
  8
Section B-B
100
AcDbVertex
100
AcDb2dVertex
 10
106.37795275590551
 20
2.559055118110236
 30
0.0
 70
0
  0
VERTEX
  5
145
330
142
100
AcDbEntity
  8
Section B-B
100
AcDbVertex
100
AcDb2dVertex
 10
106.37795275590551
 20
2.4803149606299213
 30
0.0
 70
0
  0
SEQEND
  5
146
330
142
100
AcDbEntity
  8
Section B-B
  0
SPLINE
  5
147
330
17
100
AcDbEntity
  8
Section B-B
100
AcDbSpline
 70
0
 71
3
 72
8
 73
4
 74
0
 40
0.0
 40
0.0
 40
0.0
 40
0.0
 40
1.0
 40
1.0
 40
1.0
 40
1.0
 10
106.37795275590551
 20
2.4803149606299213
 30
0.0
 10
105.8530183727034
 20
2.4803149606299213
 30
0.0
 10
105.59055118110236
 20
2.3293963254593177
 30
0.0
 10
105.59055118110236
 20
2.02755905511811
 30
0.0
  0
POLYLINE
  5
148
330
17
100
AcDbEntity
  8
Section B-B
100
AcDb2dPolyline
 66
1
 10
0.0
 20
0.0
 30
0.0
 70
0
  0
VERTEX
  5
149
330
148
100
AcDbEntity
  8
Section B-B
100
AcDbVertex
100
AcDb2dVertex
 10
105.59055118110236
 20
2.02755905511811
 30
0.0
 70
0
  0
VERTEX
  5
14A
330
148
100
AcDbEntity
  8
Section B-B
100
AcDbVertex
100
AcDb2dVertex
 10
105.59055118110236
 20
1.3188976377952755
 30
0.0
 70
0
  0
SEQEND
  5
14B
330
148
100
AcDbEntity
  8
Section B-B
  0
SPLINE
  5
14C
330
17
100
AcDbEntity
  8
Section B-B
100
AcDbSpline
 70
0
 71
3
 72
8
 73
4
 74
0
 40
0.0
 40
0.0
 40
0.0
 40
0.0
 40
1.0
 40
1.0
 40
1.0
 40
1.0
 10
105.59055118110236
 20
1.3188976377952755
 30
0.0
 10
105.59055118110236
 20
1.0170603674540684
 30
0.0
 10
105.8530183727034
 20
0.8661417322834646
 30
0.0
 10
106.37795275590551
 20
0.8661417322834646
 30
0.0
  0
POLYLINE
  5
14D
330
17
100
AcDbEntity
  8
Section B-B
100
AcDb2dPolyline
 66
1
 10
0.0
 20
0.0
 30
0.0
 70
0
  0
VERTEX
  5
14E
330
14D
100
AcDbEntity
  8
Section B-B
100
AcDbVertex
100
AcDb2dVertex
 10
106.37795275590551
 20
0.8661417322834646
 30
0.0
 70
0
  0
VERTEX
  5
14F
330
14D
100
AcDbEntity
  8
Section B-B
100
AcDbVertex
100
AcDb2dVertex
 10
106.37795275590551
 20
0.7874015748031495
 30
0.0
 70
0
  0
VERTEX
  5
150
330
14D
100
AcDbEntity
  8
Section B-B
100
AcDbVertex
100
AcDb2dVertex
 10
109.5275590551181
 20
0.7874015748031495
 30
0.0
 70
0
  0
VERTEX
  5
151
330
14D
100
AcDbEntity
  8
Section B-B
100
AcDbVertex
100
AcDb2dVertex
 10
109.5275590551181
 20
1.6732283464566928
 30
0.0
 70
0
  0
VERTEX
  5
152
330
14D
100
AcDbEntity
  8
Section B-B
100
AcDbVertex
100
AcDb2dVertex
 10
110.0
 20
1.6732283464566928
 30
0.0
 70
0
  0
VERTEX
  5
153
330
14D
100
AcDbEntity
  8
Section B-B
100
AcDbVertex
100
AcDb2dVertex
 10
110.0
 20
2.559055118110236
 30
0.0
 70
0
  0
SEQEND
  5
154
330
14D
100
AcDbEntity
  8
Section B-B
  0
LWPOLYLINE
  5
155
330
17
100
AcDbEntity
  8
Section B-B
  6
DASHED
100
AcDbPolyline
 90
5
 70
0
 10
105.11811023622046
 20
2.02755905511811
 10
105.59055118110236
 20
2.02755905511811
 10
105.59055118110236
 20
1.3188976377952755
 10
105.11811023622046
 20
1.3188976377952755
 10
105.11811023622046
 20
2.02755905511811
  0
LWPOLYLINE
  5
156
330
17
100
AcDbEntity
  8
Section B-B
100
AcDbPolyline
 90
5
 70
0
 10
95.51181102362204
 20
2.02755905511811
 10
105.5511811023622
 20
2.02755905511811
 10
105.5511811023622
 20
1.3188976377952755
 10
95.51181102362204
 20
1.3188976377952755
 10
95.51181102362204
 20
2.02755905511811
  0
LWPOLYLINE
  5
157
330
17
100
AcDbEntity
  8
Section B-B
100
AcDbPolyline
 90
3
 70
0
 10
97.16535433070865
 20
2.02755905511811
 10
97.28346456692913
 20
1.9291338582677164
 10
97.4015748031496
 20
2.02755905511811
  0
LWPOLYLINE
  5
158
330
17
100
AcDbEntity
  8
Section B-B
100
AcDbPolyline
 90
3
 70
0
 10
103.66141732283464
 20
2.02755905511811
 10
103.77952755905511
 20
1.9291338582677164
 10
103.89763779527559
 20
2.02755905511811
  0
LWPOLYLINE
  5
159
330
17
100
AcDbEntity
  8
Section B-B
100
AcDbPolyline
 90
25
 70
0
 10
109.5275590551181
 20
2.559055118110236
 10
112.67716535433071
 20
2.559055118110236
 10
112.67716535433071
 20
2.4803149606299213
 10
112.8617125984252
 20
2.473240649606299
 10
113.02165354330708
 20
2.452017716535433
 10
113.15698818897637
 20
2.4166461614173227
 10
113.26771653543307
 20
2.3671259842519685
 10
113.35383858267717
 20
2.30345718503937
 10
113.41535433070867
 20
2.2256397637795273
 10
113.45226377952756
 20
2.1336737204724407
 10
113.46456692913385
 20
2.02755905511811
 10
113.46456692913385
 20
1.3188976377952755
 10
113.45226377952756
 20
1.212782972440945
 10
113.41535433070867
 20
1.1208169291338583
 10
113.35383858267717
 20
1.0429995078740157
 10
113.26771653543307
 20
0.9793307086614174
 10
113.15698818897637
 20
0.929810531496063
 10
113.02165354330708
 20
0.8944389763779528
 10
112.8617125984252
 20
0.8732160433070866
 10
112.67716535433071
 20
0.8661417322834646
 10
112.67716535433071
 20
0.7874015748031495
 10
109.05511811023622
 20
0.7874015748031495
 10
109.05511811023622
 20
1.6732283464566928
 10
109.5275590551181
 20
1.6732283464566928
 10
109.5275590551181
 20
2.559055118110236
  0
LWPOLYLINE
  5
15A
330
17
100
AcDbEntity
  8
Section B-B
  6
DASHED
100
AcDbPolyline
 90
5
 70
0
 10
113.46456692913385
 20
2.02755905511811
 10
113.93700787401575
 20
2.02755905511811
 10
113.93700787401575
 20
1.3188976377952755
 10
113.46456692913385
 20
1.3188976377952755
 10
113.46456692913385
 20
2.02755905511811
  0
LWPOLYLINE
  5
15B
330
17
100
AcDbEntity
  8
Section B-B
100
AcDbPolyline
 90
2
 70
0
 10
113.50393700787401
 20
2.02755905511811
 10
119.37007874015748
 20
2.02755905511811
  0
LWPOLYLINE
  5
15C
330
17
100
AcDbEntity
  8
Section B-B
100
AcDbPolyline
 90
3
 70
0
 10
119.37007874015748
 20
1.3188976377952755
 10
113.50393700787401
 20
1.3188976377952755
 10
113.50393700787401
 20
2.02755905511811
  0
CIRCLE
  5
15D
330
17
100
AcDbEntity
  8
Section B-B
100
AcDbCircle
 10
109.25196850393701
 20
2.716535433070866
 30
0.0
 40
5.0
  0
LWPOLYLINE
  5
15E
330
17
100
AcDbEntity
  8
Section B-B
100
AcDbPolyline
 90
6
 70
0
 10
119.37007874015747
 20
3.031496062992126
 10
119.37007874015747
 20
1.9881889763779528
 10
119.05511811023621
 20
1.7913385826771653
 10
119.68503937007873
 20
1.5551181102362204
 10
119.37007874015747
 20
1.3582677165354329
 10
119.37007874015747
 20
0.3149606299212597
  0
TEXT
  5
15F
330
17
100
AcDbEntity
  8
LABELS
100
AcDbText
 10
91.53543307086613
 20
5.708661417322834
 30
0.0
 40
0.7086614173228346
  1
SECTION B-B  (1:1, inches)
 11
91.53543307086613
 21
5.708661417322834
 31
0.0
100
AcDbText
  0
LWPOLYLINE
  5
162
330
17
100
AcDbEntity
  8
Lock rail - detail C
100
AcDbPolyline
 90
2
 70
0
 10
147.91338582677164
 20
13.779527559055119
 10
147.91338582677164
 20
0.0
  0
LWPOLYLINE
  5
163
330
17
100
AcDbEntity
  8
Lock rail - detail C
100
AcDbPolyline
 90
2
 70
0
 10
129.92125984251967
 20
0.0
 10
129.92125984251967
 20
13.779527559055119
  0
LWPOLYLINE
  5
164
330
17
100
AcDbEntity
  8
Lock rail - detail C
100
AcDbPolyline
 90
2
 70
0
 10
133.85826771653544
 20
11.417322834645669
 10
133.85826771653544
 20
2.3622047244094486
  0
LWPOLYLINE
  5
165
330
17
100
AcDbEntity
  8
Lock rail - detail C
100
AcDbPolyline
 90
2
 70
0
 10
143.9763779527559
 20
11.417322834645669
 10
143.9763779527559
 20
2.3622047244094486
  0
LWPOLYLINE
  5
166
330
17
100
AcDbEntity
  8
Lock rail - detail C
100
AcDbPolyline
 90
4
 70
0
 10
143.9763779527559
 20
13.779527559055119
 10
143.9763779527559
 20
11.417322834645669
 10
133.85826771653544
 20
11.417322834645669
 10
133.85826771653544
 20
13.779527559055119
  0
LWPOLYLINE
  5
167
330
17
100
AcDbEntity
  8
Lock rail - detail C
100
AcDbPolyline
 90
4
 70
0
 10
143.18897637795274
 20
13.779527559055119
 10
143.18897637795274
 20
12.204724409448819
 10
134.64566929133858
 20
12.204724409448819
 10
134.64566929133858
 20
13.779527559055119
  0
LWPOLYLINE
  5
168
330
17
100
AcDbEntity
  8
Lock rail - detail C
100
AcDbPolyline
 90
2
 70
0
 10
133.85826771653544
 20
11.417322834645669
 10
134.64566929133858
 20
12.204724409448819
  0
LWPOLYLINE
  5
169
330
17
100
AcDbEntity
  8
Lock rail - detail C
100
AcDbPolyline
 90
2
 70
0
 10
143.9763779527559
 20
11.417322834645669
 10
143.18897637795274
 20
12.204724409448819
  0
LWPOLYLINE
  5
16A
330
17
100
AcDbEntity
  8
Lock rail - detail C
100
AcDbPolyline
 90
15
 70
0
 10
140.0355827412218
 20
13.779527559055119
 10
139.93394746555117
 20
13.651882381889763
 10
139.82033749077263
 20
13.53880874753937
 10
139.69030511811025
 20
13.4375
 10
139.53941890686514
 20
13.351877768208661
 10
139.36324741633857
 20
13.285863681102361
 10
139.15735920583168
 20
13.24337936761811
 10
138.91732283464566
 20
13.228346456692913
 10
138.67728646345964
 20
13.24337936761811
 10
138.47139825295275
 20
13.285863681102361
 10
138.29522676242618
 20
13.351877768208661
 10
138.1443405511811
 20
13.4375
 10
138.01430817851872
 20
13.53880874753937
 10
137.90069820374015
 20
13.651882381889763
 10
137.79906292806953
 20
13.779527559055119
  0
LWPOLYLINE
  5
16B
330
17
100
AcDbEntity
  8
Lock rail - detail C
100
AcDbPolyline
 90
3
 70
0
 10
133.85826771653544
 20
2.3622047244094486
 10
143.9763779527559
 20
2.3622047244094486
 10
143.9763779527559
 20
0.0
  0
LWPOLYLINE
  5
16C
330
17
100
AcDbEntity
  8
Lock rail - detail C
100
AcDbPolyline
 90
2
 70
0
 10
133.85826771653544
 20
0.0
 10
133.85826771653544
 20
2.3622047244094486
  0
LWPOLYLINE
  5
16D
330
17
100
AcDbEntity
  8
Lock rail - detail C
100
AcDbPolyline
 90
3
 70
0
 10
134.64566929133858
 20
1.574803149606299
 10
143.18897637795274
 20
1.574803149606299
 10
143.18897637795274
 20
0.0
  0
LWPOLYLINE
  5
16E
330
17
100
AcDbEntity
  8
Lock rail - detail C
100
AcDbPolyline
 90
2
 70
0
 10
134.64566929133858
 20
0.0
 10
134.64566929133858
 20
1.574803149606299
  0
LWPOLYLINE
  5
16F
330
17
100
AcDbEntity
  8
Lock rail - detail C
100
AcDbPolyline
 90
2
 70
0
 10
133.85826771653544
 20
2.3622047244094486
 10
134.64566929133858
 20
1.574803149606299
  0
LWPOLYLINE
  5
170
330
17
100
AcDbEntity
  8
Lock rail - detail C
100
AcDbPolyline
 90
2
 70
0
 10
143.9763779527559
 20
2.3622047244094486
 10
143.18897637795274
 20
1.574803149606299
  0
LWPOLYLINE
  5
171
330
17
100
AcDbEntity
  8
Lock rail - detail C
100
AcDbPolyline
 90
15
 70
0
 10
137.79906292806953
 20
0.0
 10
137.90069820374015
 20
0.12764517716535434
 10
138.01430817851872
 20
0.24071881151574803
 10
138.1443405511811
 20
0.3420275590551181
 10
138.29522676242618
 20
0.4276497908464567
 10
138.47139825295275
 20
0.4936638779527559
 10
138.67728646345964
 20
0.5361481914370079
 10
138.91732283464566
 20
0.5511811023622047
 10
139.15735920583168
 20
0.5361481914370079
 10
139.36324741633857
 20
0.4936638779527559
 10
139.53941890686517
 20
0.4276497908464567
 10
139.69030511811025
 20
0.3420275590551181
 10
139.82033749077263
 20
0.24071881151574803
 10
139.93394746555117
 20
0.12764517716535434
 10
140.0355827412218
 20
0.0
  0
LWPOLYLINE
  5
172
330
17
100
AcDbEntity
  8
Lock rail - detail C
100
AcDbPolyline
 90
49
 70
0
 10
136.1220472440945
 20
6.889763779527559
 10
136.11274485170742
 20
6.748151872528411
 10
136.08515326139064
 20
6.609547020278313
 10
136.03974585341075
 20
6.475715901983551
 10
135.97699600803435
 20
6.3484251968503935
 10
135.89813394641158
 20
6.230436884104297
 10
135.8049365021414
 20
6.124197356126319
 10
135.69869697416343
 20
6.030999911856125
 10
135.58070866141733
 20
5.952137850233379
 10
135.45341795628417
 20
5.889388004856977
 10
135.3195868379894
 20
5.843980596877073
 10
135.1809819857393
 20
5.816389006560289
 10
135.03937007874015
 20
5.807086614173229
 10
134.897758171741
 20
5.816389006560289
 10
134.7591533194909
 20
5.843980596877073
 10
134.62532220119616
 20
5.889388004856977
 10
134.498031496063
 20
5.952137850233379
 10
134.3800431833169
 20
6.030999911856125
 10
134.27380365533892
 20
6.124197356126319
 10
134.18060621106872
 20
6.230436884104297
 10
134.10174414944598
 20
6.3484251968503935
 10
134.03899430406958
 20
6.475715901983551
 10
133.99358689608968
 20
6.609547020278313
 10
133.96599530577288
 20
6.748151872528411
 10
133.95669291338584
 20
6.889763779527559
 10
133.96599530577288
 20
7.031375686526706
 10
133.99358689608968
 20
7.169980538776805
 10
134.03899430406958
 20
7.303811657071567
 10
134.10174414944598
 20
7.431102362204724
 10
134.18060621106872
 20
7.54909067495082
 10
134.27380365533892
 20
7.655330202928798
 10
134.3800431833169
 20
7.748527647198993
 10
134.498031496063
 20
7.827389708821738
 10
134.62532220119616
 20
7.89013955419814
 10
134.7591533194909
 20
7.935546962178044
 10
134.897758171741
 20
7.963138552494828
 10
135.03937007874015
 20
7.97244094488189
 10
135.18098198573932
 20
7.963138552494828
 10
135.3195868379894
 20
7.935546962178044
 10
135.45341795628417
 20
7.89013955419814
 10
135.58070866141733
 20
7.827389708821738
 10
135.69869697416343
 20
7.748527647198993
 10
135.8049365021414
 20
7.655330202928798
 10
135.89813394641158
 20
7.54909067495082
 10
135.97699600803435
 20
7.431102362204724
 10
136.03974585341075
 20
7.303811657071567
 10
136.08515326139064
 20
7.169980538776805
 10
136.11274485170742
 20
7.031375686526706
 10
136.1220472440945
 20
6.889763779527559
  0
LWPOLYLINE
  5
173
330
17
100
AcDbEntity
  8
Lock rail - detail C
100
AcDbPolyline
 90
49
 70
0
 10
135.72834645669292
 20
6.889763779527559
 10
135.7224267524466
 20
6.7996471114371895
 10
135.70486846769955
 20
6.711444023641681
 10
135.67597284443963
 20
6.626278766545007
 10
135.63604112465464
 20
6.545275590551181
 10
135.58585617634927
 20
6.470192118803672
 10
135.52654871181366
 20
6.402585146454045
 10
135.45894173946405
 20
6.343277681918461
 10
135.38385826771653
 20
6.293092733613081
 10
135.3028550917227
 20
6.2531610138281
 10
135.21768983462604
 20
6.224265390568157
 10
135.12948674683054
 20
6.2067071058211205
 10
135.03937007874015
 20
6.200787401574803
 10
134.9492534106498
 20
6.2067071058211205
 10
134.86105032285428
 20
6.224265390568157
 10
134.7758850657576
 20
6.2531610138281
 10
134.69488188976376
 20
6.293092733613081
 10
134.61979841801627
 20
6.343277681918461
 10
134.55219144566664
 20
6.402585146454045
 10
134.49288398113106
 20
6.470192118803672
 10
134.4426990328257
 20
6.545275590551181
 10
134.4027673130407
 20
6.626278766545007
 10
134.37387168978077
 20
6.711444023641681
 10
134.35631340503372
 20
6.7996471114371895
 10
134.3503937007874
 20
6.889763779527559
 10
134.35631340503372
 20
6.979880447617928
 10
134.37387168978077
 20
7.068083535413437
 10
134.4027673130407
 20
7.1532487925101105
 10
134.4426990328257
 20
7.234251968503937
 10
134.49288398113106
 20
7.309335440251446
 10
134.55219144566664
 20
7.376942412601073
 10
134.61979841801627
 20
7.436249877136658
 10
134.69488188976376
 20
7.486434825442037
 10
134.7758850657576
 20
7.526366545227018
 10
134.86105032285428
 20
7.55526216848696
 10
134.9492534106498
 20
7.572820453233997
 10
135.03937007874015
 20
7.578740157480315
 10
135.12948674683054
 20
7.572820453233997
 10
135.21768983462604
 20
7.55526216848696
 10
135.3028550917227
 20
7.526366545227018
 10
135.38385826771653
 20
7.486434825442037
 10
135.45894173946405
 20
7.436249877136658
 10
135.52654871181366
 20
7.376942412601073
 10
135.58585617634927
 20
7.309335440251446
 10
135.63604112465464
 20
7.234251968503937
 10
135.67597284443963
 20
7.1532487925101105
 10
135.70486846769955
 20
7.068083535413437
 10
135.7224267524466
 20
6.979880447617928
 10
135.72834645669292
 20
6.889763779527559
  0
LWPOLYLINE
  5
174
330
17
100
AcDbEntity
  8
Lock rail - detail C
100
AcDbPolyline
 90
49
 70
0
 10
132.24409448818898
 20
6.889763779527559
 10
132.2383439183497
 20
6.802221873382629
 10
132.22128729888115
 20
6.716538873809845
 10
132.1932172648572
 20
6.633806909773083
 10
132.15442645135178
 20
6.55511811023622
 10
132.1056753587123
 20
6.482179880538637
 10
132.04806239316343
 20
6.416504535970433
 10
131.98238704859523
 20
6.358891570421578
 10
131.90944881889763
 20
6.310140477782068
 10
131.83076001936078
 20
6.271349664276649
 10
131.748028055324
 20
6.243279630252711
 10
131.66234505575122
 20
6.226223010784152
 10
131.5748031496063
 20
6.2204724409448815
 10
131.48726124346138
 20
6.226223010784152
 10
131.4015782438886
 20
6.243279630252711
 10
131.3188462798518
 20
6.271349664276649
 10
131.24015748031496
 20
6.310140477782068
 10
131.16721925061736
 20
6.358891570421578
 10
131.10154390604916
 20
6.416504535970433
 10
131.0439309405003
 20
6.482179880538637
 10
130.9951798478608
 20
6.55511811023622
 10
130.9563890343554
 20
6.633806909773083
 10
130.92831900033144
 20
6.716538873809845
 10
130.9112623808629
 20
6.802221873382629
 10
130.90551181102362
 20
6.889763779527559
 10
130.9112623808629
 20
6.977305685672489
 10
130.92831900033144
 20
7.062988685245273
 10
130.9563890343554
 20
7.145720649282034
 10
130.9951798478608
 20
7.224409448818897
 10
131.0439309405003
 20
7.297347678516481
 10
131.10154390604916
 20
7.3630230230846845
 10
131.16721925061736
 20
7.420635988633539
 10
131.24015748031496
 20
7.46938708127305
 10
131.3188462798518
 20
7.508177894778469
 10
131.4015782438886
 20
7.536247928802407
 10
131.48726124346138
 20
7.553304548270965
 10
131.5748031496063
 20
7.559055118110236
 10
131.66234505575122
 20
7.553304548270965
 10
131.748028055324
 20
7.536247928802407
 10
131.83076001936078
 20
7.508177894778469
 10
131.90944881889763
 20
7.46938708127305
 10
131.98238704859523
 20
7.420635988633539
 10
132.04806239316343
 20
7.3630230230846845
 10
132.1056753587123
 20
7.297347678516481
 10
132.15442645135178
 20
7.224409448818897
 10
132.1932172648572
 20
7.145720649282034
 10
132.22128729888115
 20
7.062988685245273
 10
132.2383439183497
 20
6.977305685672489
 10
132.24409448818898
 20
6.889763779527559
  0
LWPOLYLINE
  5
175
330
17
100
AcDbEntity
  8
Lock rail - detail C
100
AcDbPolyline
 90
44
 70
0
 10
131.45669291338584
 20
6.929133858267717
 10
131.4416397180047
 20
6.944330411106716
 10
131.42857071341862
 20
6.961167417612348
 10
131.41761792899266
 20
6.979451842193377
 10
131.4089133940918
 20
6.998990649258571
 10
131.4026272372552
 20
7.019436141221283
 10
131.39885984644232
 20
7.040414473743293
 10
131.39763864014836
 20
7.061693391105992
 10
131.39899103686864
 20
7.083040637590788
 10
131.40290646200236
 20
7.104069269391114
 10
131.40930042897844
 20
7.124401530830749
 10
131.41808948833673
 20
7.143818948386587
 10
131.42919019061702
 20
7.162103048535505
 10
131.44241367127387
 20
7.178915944439823
 10
131.4575098496116
 20
7.1939621754807295
 10
131.47430345194473
 20
7.207086907463398
 10
131.4926192045878
 20
7.218135306193039
 10
131.5121330532149
 20
7.226895649858129
 10
131.5324863931087
 20
7.233222199005034
 10
131.55345212499668
 20
7.2370590929757315
 10
131.5748031496063
 20
7.238350471112188
 10
131.5961541742159
 20
7.2370590929757315
 10
131.6171199061039
 20
7.233222199005034
 10
131.63747324599768
 20
7.226895649858129
 10
131.65698709462478
 20
7.218135306193039
 10
131.67530284726786
 20
7.207086907463398
 10
131.69209644960102
 20
7.193962175480721
 10
131.70719262793875
 20
7.178915944439814
 10
131.7204161085956
 20
7.162103048535496
 10
131.73151681087586
 20
7.143818948386578
 10
131.74030587023415
 20
7.12440153083074
 10
131.74669983721026
 20
7.104069269391105
 10
131.75061526234396
 20
7.083040637590779
 10
131.75196765906423
 20
7.061693391105983
 10
131.75074645277027
 20
7.040414473743284
 10
131.74697906195738
 20
7.0194361412212745
 10
131.74069290512082
 20
6.9989906492585625
 10
131.73198837021994
 20
6.9794518421933684
 10
131.72103558579397
 20
6.961167417612338
 10
131.70796658120793
 20
6.944330411106716
 10
131.69291338582676
 20
6.929133858267717
 10
131.751968503937
 20
6.496062992125984
 10
131.39763779527559
 20
6.496062992125984
 10
131.45669291338584
 20
6.929133858267717
  0
TEXT
  5
176
330
17
100
AcDbEntity
  8
LABELS
100
AcDbText
 10
129.5275590551181
 20
16.141732283464567
 30
0.0
 40
0.7086614173228346
  1
LOCK RAIL - DETAIL C  (1:1, inches)
 11
129.5275590551181
 21
16.141732283464567
 31
0.0
100
AcDbText
  0
TEXT
  5
177
330
17
100
AcDbEntity
  8
LABELS
100
AcDbText
 10
0.0
 20
-8.661417322834646
 30
0.0
 40
1.574803149606299
  1
Doors D1 · AST-DR-001
 11
0.0
 21
-8.661417322834646
 31
0.0
100
AcDbText
  0
ENDSEC
  0
SECTION
  2
OBJECTS
  0
DICTIONARY
  5
A
330
0
100
AcDbDictionary
281
1
  3
ACAD_COLOR
350
B
  3
ACAD_GROUP
350
C
  3
ACAD_LAYOUT
350
D
  3
ACAD_MATERIAL
350
E
  3
ACAD_MLEADERSTYLE
350
F
  3
ACAD_MLINESTYLE
350
10
  3
ACAD_PLOTSETTINGS
350
11
  3
ACAD_PLOTSTYLENAME
350
12
  3
ACAD_SCALELIST
350
14
  3
ACAD_TABLESTYLE
350
15
  3
ACAD_VISUALSTYLE
350
16
  3
EZDXF_META
350
2D
  0
DICTIONARY
  5
B
330
A
100
AcDbDictionary
281
1
  0
DICTIONARY
  5
C
330
A
100
AcDbDictionary
281
1
  0
DICTIONARY
  5
D
330
A
100
AcDbDictionary
281
1
  3
Model
350
1A
  3
Layout1
350
1E
  0
DICTIONARY
  5
E
330
A
100
AcDbDictionary
281
1
  3
ByBlock
350
1F
  3
ByLayer
350
20
  3
Global
350
21
  0
DICTIONARY
  5
F
330
A
100
AcDbDictionary
281
1
  3
Standard
350
2C
  0
DICTIONARY
  5
10
330
A
100
AcDbDictionary
281
1
  3
Standard
350
22
  0
DICTIONARY
  5
11
330
A
100
AcDbDictionary
281
1
  0
ACDBDICTIONARYWDFLT
  5
12
330
A
100
AcDbDictionary
281
1
  3
Normal
350
13
100
AcDbDictionaryWithDefault
340
13
  0
ACDBPLACEHOLDER
  5
13
330
12
  0
DICTIONARY
  5
14
330
A
100
AcDbDictionary
281
1
  0
DICTIONARY
  5
15
330
A
100
AcDbDictionary
281
1
  0
DICTIONARY
  5
16
330
A
100
AcDbDictionary
281
1
  3
2dWireframe
350
5A
  3
Basic
350
5B
  3
Brighten
350
5C
  3
ColorChange
350
5D
  3
Conceptual
350
5E
  3
Dim
350
5F
  3
EdgeColorOff
350
60
  3
Facepattern
350
61
  3
Flat
350
62
  3
FlatWithEdges
350
63
  3
Gouraud
350
64
  3
GouraudWithEdges
350
65
  3
Hidden
350
66
  3
JitterOff
350
67
  3
Linepattern
350
68
  3
Modeling
350
69
  3
OverhangOff
350
6A
  3
Realistic
350
6B
  3
Shaded
350
6C
  3
Shaded with edges
350
6D
  3
Shades of Gray
350
6E
  3
Sketchy
350
6F
  3
Thicken
350
70
  3
Wireframe
350
71
  3
X-Ray
350
72
  0
LAYOUT
  5
1A
330
D
100
AcDbPlotSettings
  1

  4
A3
  6

 40
7.5
 41
20.0
 42
7.5
 43
20.0
 44
420.0
 45
297.0
 46
0.0
 47
0.0
 48
0.0
 49
0.0
140
0.0
141
0.0
142
1.0
143
1.0
 70
1024
 72
1
 73
0
 74
5
  7

 75
16
 76
0
 77
2
 78
300
147
1.0
148
0.0
149
0.0
100
AcDbLayout
  1
Model
 70
1
 71
0
 10
0.0
 20
0.0
 11
420.0
 21
297.0
 12
0.0
 22
0.0
 32
0.0
 14
1e+20
 24
1e+20
 34
1e+20
 15
-1e+20
 25
-1e+20
 35
-1e+20
146
0.0
 13
0.0
 23
0.0
 33
0.0
 16
1.0
 26
0.0
 36
0.0
 17
0.0
 27
1.0
 37
0.0
 76
1
330
17
  0
LAYOUT
  5
1E
330
D
100
AcDbPlotSettings
  1

  4
A3
  6

 40
7.5
 41
20.0
 42
7.5
 43
20.0
 44
420.0
 45
297.0
 46
0.0
 47
0.0
 48
0.0
 49
0.0
140
0.0
141
0.0
142
1.0
143
1.0
 70
0
 72
1
 73
0
 74
5
  7

 75
16
 76
0
 77
2
 78
300
147
1.0
148
0.0
149
0.0
100
AcDbLayout
  1
Layout1
 70
1
 71
1
 10
0.0
 20
0.0
 11
420.0
 21
297.0
 12
0.0
 22
0.0
 32
0.0
 14
1e+20
 24
1e+20
 34
1e+20
 15
-1e+20
 25
-1e+20
 35
-1e+20
146
0.0
 13
0.0
 23
0.0
 33
0.0
 16
1.0
 26
0.0
 36
0.0
 17
0.0
 27
1.0
 37
0.0
 76
1
330
1B
  0
MATERIAL
  5
1F
102
{ACAD_REACTORS
330
E
102
}
330
E
100
AcDbMaterial
  1
ByBlock
  2

 70
0
 40
1.0
 71
1
 41
1.0
 91
-1023410177
 42
1.0
 72
1
  3

 73
1
 74
1
 75
1
 44
0.5
 73
0
 45
1.0
 46
1.0
 77
1
  4

 78
1
 79
1
170
1
 48
1.0
171
1
  6

172
1
173
1
174
1
140
1.0
141
1.0
175
1
  7

176
1
177
1
178
1
143
1.0
179
1
  8

270
1
271
1
272
1
145
1.0
146
1.0
273
1
  9

274
1
275
1
276
1
 42
1.0
 72
1
  3

 73
1
 74
1
 75
1
 94
63
  0
MATERIAL
  5
20
102
{ACAD_REACTORS
330
E
102
}
330
E
100
AcDbMaterial
  1
ByLayer
  2

 70
0
 40
1.0
 71
1
 41
1.0
 91
-1023410177
 42
1.0
 72
1
  3

 73
1
 74
1
 75
1
 44
0.5
 73
0
 45
1.0
 46
1.0
 77
1
  4

 78
1
 79
1
170
1
 48
1.0
171
1
  6

172
1
173
1
174
1
140
1.0
141
1.0
175
1
  7

176
1
177
1
178
1
143
1.0
179
1
  8

270
1
271
1
272
1
145
1.0
146
1.0
273
1
  9

274
1
275
1
276
1
 42
1.0
 72
1
  3

 73
1
 74
1
 75
1
 94
63
  0
MATERIAL
  5
21
102
{ACAD_REACTORS
330
E
102
}
330
E
100
AcDbMaterial
  1
Global
  2

 70
0
 40
1.0
 71
1
 41
1.0
 91
-1023410177
 42
1.0
 72
1
  3

 73
1
 74
1
 75
1
 44
0.5
 73
0
 45
1.0
 46
1.0
 77
1
  4

 78
1
 79
1
170
1
 48
1.0
171
1
  6

172
1
173
1
174
1
140
1.0
141
1.0
175
1
  7

176
1
177
1
178
1
143
1.0
179
1
  8

270
1
271
1
272
1
145
1.0
146
1.0
273
1
  9

274
1
275
1
276
1
 42
1.0
 72
1
  3

 73
1
 74
1
 75
1
 94
63
  0
MLINESTYLE
  5
22
102
{ACAD_REACTORS
330
10
102
}
330
10
100
AcDbMlineStyle
  2
Standard
 70
0
  3

 62
256
 51
90.0
 52
90.0
 71
2
 49
0.5
 62
256
  6
BYLAYER
 49
-0.5
 62
256
  6
BYLAYER
  0
MLEADERSTYLE
  5
2C
102
{ACAD_REACTORS
330
F
102
}
330
F
100
AcDbMLeaderStyle
179
2
170
2
171
1
172
0
 90
2
 40
0.0
 41
0.0
173
1
 91
-1056964608
 92
-2
290
1
 42
2.0
291
1
 43
8.0
  3
Standard
 44
4.0
300

342
29
174
1
175
1
176
0
178
1
 93
-1056964608
 45
4.0
292
0
297
0
 46
4.0
 94
-1056964608
 47
1.0
 49
1.0
140
1.0
294
1
141
0.0
177
0
142
1.0
295
0
296
0
143
3.75
271
0
272
9
273
9
  0
DICTIONARY
  5
2D
330
A
100
AcDbDictionary
280
1
281
1
  3
CREATED_BY_EZDXF
350
2E
  3
WRITTEN_BY_EZDXF
350
17A
  0
DICTIONARYVAR
  5
2E
330
2D
100
DictionaryVariables
280
0
  1
1.4.2 @ 2026-09-18T10:19:01.234711+00:00
  0
VISUALSTYLE
  5
5A
102
{ACAD_REACTORS
330
16
102
}
330
16
100
AcDbVisualStyle
  2
2dWireframe
 70
4
 90
0
 40
0.6
 62
7
290
0
291
0
  0
VISUALSTYLE
  5
5B
102
{ACAD_REACTORS
330
16
102
}
330
16
100
AcDbVisualStyle
  2
Basic
 70
7
 90
1
 40
0.6
 62
7
290
0
291
1
  0
VISUALSTYLE
  5
5C
102
{ACAD_REACTORS
330
16
102
}
330
16
100
AcDbVisualStyle
  2
Brighten
 70
12
 90
2
 40
0.6
 62
7
290
0
291
1
  0
VISUALSTYLE
  5
5D
102
{ACAD_REACTORS
330
16
102
}
330
16
100
AcDbVisualStyle
  2
ColorChange
 70
16
 90
2
 40
0.6
 62
8
290
0
291
1
  0
VISUALSTYLE
  5
5E
102
{ACAD_REACTORS
330
16
102
}
330
16
100
AcDbVisualStyle
  2
Conceptual
 70
9
 90
3
 40
0.6
 62
7
290
0
291
0
  0
VISUALSTYLE
  5
5F
102
{ACAD_REACTORS
330
16
102
}
330
16
100
AcDbVisualStyle
  2
Dim
 70
11
 90
2
 40
0.6
 62
7
290
0
291
1
  0
VISUALSTYLE
  5
60
102
{ACAD_REACTORS
330
16
102
}
330
16
100
AcDbVisualStyle
  2
EdgeColorOff
 70
22
 90
2
 40
0.6
 62
7
290
0
291
1
  0
VISUALSTYLE
  5
61
102
{ACAD_REACTORS
330
16
102
}
330
16
100
AcDbVisualStyle
  2
Facepattern
 70
15
 90
2
 40
0.6
 62
7
290
0
291
1
  0
VISUALSTYLE
  5
62
102
{ACAD_REACTORS
330
16
102
}
330
16
100
AcDbVisualStyle
  2
Flat
 70
0
 90
2
 40
0.6
 62
7
290
0
291
1
  0
VISUALSTYLE
  5
63
102
{ACAD_REACTORS
330
16
102
}
330
16
100
AcDbVisualStyle
  2
FlatWithEdges
 70
1
 90
2
 40
0.6
 62
7
290
0
291
1
  0
VISUALSTYLE
  5
64
102
{ACAD_REACTORS
330
16
102
}
330
16
100
AcDbVisualStyle
  2
Gouraud
 70
2
 90
2
 40
0.6
 62
7
290
0
291
1
  0
VISUALSTYLE
  5
65
102
{ACAD_REACTORS
330
16
102
}
330
16
100
AcDbVisualStyle
  2
GouraudWithEdges
 70
3
 90
2
 40
0.6
 62
7
290
0
291
1
  0
VISUALSTYLE
  5
66
102
{ACAD_REACTORS
330
16
102
}
330
16
100
AcDbVisualStyle
  2
Hidden
 70
6
 90
1
 40
0.6
 62
7
290
0
291
0
  0
VISUALSTYLE
  5
67
102
{ACAD_REACTORS
330
16
102
}
330
16
100
AcDbVisualStyle
  2
JitterOff
 70
20
 90
2
 40
0.6
 62
7
290
0
291
1
  0
VISUALSTYLE
  5
68
102
{ACAD_REACTORS
330
16
102
}
330
16
100
AcDbVisualStyle
  2
Linepattern
 70
14
 90
2
 40
0.6
 62
7
290
0
291
1
  0
VISUALSTYLE
  5
69
102
{ACAD_REACTORS
330
16
102
}
330
16
100
AcDbVisualStyle
  2
Modeling
 70
10
 90
2
 40
0.6
 62
7
290
0
291
0
  0
VISUALSTYLE
  5
6A
102
{ACAD_REACTORS
330
16
102
}
330
16
100
AcDbVisualStyle
  2
OverhangOff
 70
21
 90
2
 40
0.6
 62
7
290
0
291
1
  0
VISUALSTYLE
  5
6B
102
{ACAD_REACTORS
330
16
102
}
330
16
100
AcDbVisualStyle
  2
Realistic
 70
8
 90
2
 40
0.6
 62
7
290
0
291
0
  0
VISUALSTYLE
  5
6C
102
{ACAD_REACTORS
330
16
102
}
330
16
100
AcDbVisualStyle
  2
Shaded
 70
27
 90
2
 40
0.6
 62
7
290
0
291
0
  0
VISUALSTYLE
  5
6D
102
{ACAD_REACTORS
330
16
102
}
330
16
100
AcDbVisualStyle
  2
Shaded with edges
 70
26
 90
2
 40
0.6
 62
7
290
0
291
0
  0
VISUALSTYLE
  5
6E
102
{ACAD_REACTORS
330
16
102
}
330
16
100
AcDbVisualStyle
  2
Shades of Gray
 70
23
 90
2
 40
0.6
 62
7
290
0
291
0
  0
VISUALSTYLE
  5
6F
102
{ACAD_REACTORS
330
16
102
}
330
16
100
AcDbVisualStyle
  2
Sketchy
 70
24
 90
1
 40
0.6
 62
7
290
0
291
0
  0
VISUALSTYLE
  5
70
102
{ACAD_REACTORS
330
16
102
}
330
16
100
AcDbVisualStyle
  2
Thicken
 70
13
 90
2
 40
0.6
 62
7
290
0
291
1
  0
VISUALSTYLE
  5
71
102
{ACAD_REACTORS
330
16
102
}
330
16
100
AcDbVisualStyle
  2
Wireframe
 70
5
 90
0
 40
0.6
 62
7
290
0
291
0
  0
VISUALSTYLE
  5
72
102
{ACAD_REACTORS
330
16
102
}
330
16
100
AcDbVisualStyle
  2
X-Ray
 70
25
 90
2
 40
0.5
 62
7
290
0
291
0
  0
DICTIONARYVAR
  5
17A
330
2D
100
DictionaryVariables
280
0
  1
1.4.2 @ 2026-09-18T10:19:01.301105+00:00
  0
ENDSEC
  0
EOF
