  0
SECTION
  2
HEADER
  9
$ACADVER
  1
AC1024
  9
$ACADMAINTVER
 70
6
  9
$DWGCODEPAGE
  3
ANSI_1252
  9
$LASTSAVEDBY
  1
ezdxf
  9
$INSBASE
 10
0.0
 20
0.0
 30
0.0
  9
$EXTMIN
 10
1e+20
 20
1e+20
 30
1e+20
  9
$EXTMAX
 10
-1e+20
 20
-1e+20
 30
-1e+20
  9
$LIMMIN
 10
0.0
 20
0.0
  9
$LIMMAX
 10
420.0
 20
297.0
  9
$ORTHOMODE
 70
0
  9
$REGENMODE
 70
1
  9
$FILLMODE
 70
1
  9
$QTEXTMODE
 70
0
  9
$MIRRTEXT
 70
1
  9
$LTSCALE
 40
1.0
  9
$ATTMODE
 70
1
  9
$TEXTSIZE
 40
2.5
  9
$TRACEWID
 40
1.0
  9
$TEXTSTYLE
  7
OpenSans
  9
$CLAYER
  8
0
  9
$CELTYPE
  6
ByLayer
  9
$CECOLOR
 62
256
  9
$CELTSCALE
 40
1.0
  9
$DISPSILH
 70
0
  9
$DIMSCALE
 40
1.0
  9
$DIMASZ
 40
0.175
  9
$DIMEXO
 40
0.125
  9
$DIMDLI
 40
3.75
  9
$DIMRND
 40
0.0
  9
$DIMDLE
 40
0.0
  9
$DIMEXE
 40
0.375
  9
$DIMTP
 40
0.0
  9
$DIMTM
 40
0.0
  9
$DIMTXT
 40
0.25
  9
$DIMCEN
 40
2.5
  9
$DIMTSZ
 40
0.0
  9
$DIMTOL
 70
0
  9
$DIMLIM
 70
0
  9
$DIMTIH
 70
0
  9
$DIMTOH
 70
0
  9
$DIMSE1
 70
0
  9
$DIMSE2
 70
0
  9
$DIMTAD
 70
1
  9
$DIMZIN
 70
12
  9
$DIMBLK
  1
ARCHTICK
  9
$DIMASO
 70
1
  9
$DIMSHO
 70
1
  9
$DIMPOST
  1

  9
$DIMAPOST
  1

  9
$DIMALT
 70
0
  9
$DIMALTD
 70
3
  9
$DIMALTF
 40
0.03937007874
  9
$DIMLFAC
 40
100.0
  9
$DIMTOFL
 70
1
  9
$DIMTVP
 40
0.0
  9
$DIMTIX
 70
0
  9
$DIMSOXD
 70
0
  9
$DIMSAH
 70
0
  9
$DIMBLK1
  1

  9
$DIMBLK2
  1

  9
$DIMSTYLE
  2
EZDXF
  9
$DIMCLRD
 70
0
  9
$DIMCLRE
 70
0
  9
$DIMCLRT
 70
0
  9
$DIMTFAC
 40
0.5
  9
$DIMGAP
 40
0.1
  9
$DIMJUST
 70
0
  9
$DIMSD1
 70
0
  9
$DIMSD2
 70
0
  9
$DIMTOLJ
 70
0
  9
$DIMTZIN
 70
8
  9
$DIMALTZ
 70
0
  9
$DIMALTTZ
 70
0
  9
$DIMUPT
 70
1
  9
$DIMDEC
 70
2
  9
$DIMTDEC
 70
2
  9
$DIMALTU
 70
2
  9
$DIMALTTD
 70
3
  9
$DIMTXSTY
  7
OpenSansCondensed-Light
  9
$DIMAUNIT
 70
0
  9
$DIMADEC
 70
2
  9
$DIMALTRND
 40
0.0
  9
$DIMAZIN
 70
3
  9
$DIMDSEP
 70
46
  9
$DIMATFIT
 70
3
  9
$DIMFRAC
 70
0
  9
$DIMLDRBLK
  1

  9
$DIMLUNIT
 70
2
  9
$DIMLWD
 70
-2
  9
$DIMLWE
 70
-2
  9
$DIMTMOVE
 70
2
  9
$DIMFXL
 40
1.0
  9
$DIMFXLON
 70
0
  9
$DIMJOGANG
 40
0.785398163397
  9
$DIMTFILL
 70
0
  9
$DIMTFILLCLR
 70
0
  9
$DIMARCSYM
 70
0
  9
$DIMLTYPE
  6

  9
$DIMLTEX1
  6

  9
$DIMLTEX2
  6

  9
$DIMTXTDIRECTION
 70
0
  9
$LUNITS
 70
4
  9
$LUPREC
 70
4
  9
$SKETCHINC
 40
1.0
  9
$FILLETRAD
 40
10.0
  9
$AUNITS
 70
0
  9
$AUPREC
 70
3
  9
$MENU
  1
.
  9
$ELEVATION
 40
0.0
  9
$PELEVATION
 40
0.0
  9
$THICKNESS
 40
0.0
  9
$LIMCHECK
 70
0
  9
$CHAMFERA
 40
0.0
  9
$CHAMFERB
 40
0.0
  9
$CHAMFERC
 40
0.0
  9
$CHAMFERD
 40
0.0
  9
$SKPOLY
 70
0
  9
$TDCREATE
 40
2461303.0570717594
  9
$TDUCREATE
 40
2458532.153996898
  9
$TDUPDATE
 40
2461303.0570717594
  9
$TDUUPDATE
 40
2458532.1544311
  9
$TDINDWG
 40
0.0
  9
$TDUSRTIMER
 40
0.0
  9
$USRTIMER
 70
1
  9
$ANGBASE
 50
0.0
  9
$ANGDIR
 70
0
  9
$PDMODE
 70
0
  9
$PDSIZE
 40
0.0
  9
$PLINEWID
 40
0.0
  9
$SPLFRAME
 70
0
  9
$SPLINETYPE
 70
6
  9
$SPLINESEGS
 70
8
  9
$HANDSEED
  5
131
  9
$SURFTAB1
 70
6
  9
$SURFTAB2
 70
6
  9
$SURFTYPE
 70
6
  9
$SURFU
 70
6
  9
$SURFV
 70
6
  9
$UCSBASE
  2

  9
$UCSNAME
  2

  9
$UCSORG
 10
0.0
 20
0.0
 30
0.0
  9
$UCSXDIR
 10
1.0
 20
0.0
 30
0.0
  9
$UCSYDIR
 10
0.0
 20
1.0
 30
0.0
  9
$UCSORTHOREF
  2

  9
$UCSORTHOVIEW
 70
0
  9
$UCSORGTOP
 10
0.0
 20
0.0
 30
0.0
  9
$UCSORGBOTTOM
 10
0.0
 20
0.0
 30
0.0
  9
$UCSORGLEFT
 10
0.0
 20
0.0
 30
0.0
  9
$UCSORGRIGHT
 10
0.0
 20
0.0
 30
0.0
  9
$UCSORGFRONT
 10
0.0
 20
0.0
 30
0.0
  9
$UCSORGBACK
 10
0.0
 20
0.0
 30
0.0
  9
$PUCSBASE
  2

  9
$PUCSNAME
  2

  9
$PUCSORG
 10
0.0
 20
0.0
 30
0.0
  9
$PUCSXDIR
 10
1.0
 20
0.0
 30
0.0
  9
$PUCSYDIR
 10
0.0
 20
1.0
 30
0.0
  9
$PUCSORTHOREF
  2

  9
$PUCSORTHOVIEW
 70
0
  9
$PUCSORGTOP
 10
0.0
 20
0.0
 30
0.0
  9
$PUCSORGBOTTOM
 10
0.0
 20
0.0
 30
0.0
  9
$PUCSORGLEFT
 10
0.0
 20
0.0
 30
0.0
  9
$PUCSORGRIGHT
 10
0.0
 20
0.0
 30
0.0
  9
$PUCSORGFRONT
 10
0.0
 20
0.0
 30
0.0
  9
$PUCSORGBACK
 10
0.0
 20
0.0
 30
0.0
  9
$USERI1
 70
0
  9
$USERI2
 70
0
  9
$USERI3
 70
0
  9
$USERI4
 70
0
  9
$USERI5
 70
0
  9
$USERR1
 40
0.0
  9
$USERR2
 40
0.0
  9
$USERR3
 40
0.0
  9
$USERR4
 40
0.0
  9
$USERR5
 40
0.0
  9
$WORLDVIEW
 70
1
  9
$SHADEDGE
 70
3
  9
$SHADEDIF
 70
70
  9
$TILEMODE
 70
1
  9
$MAXACTVP
 70
64
  9
$PINSBASE
 10
0.0
 20
0.0
 30
0.0
  9
$PLIMCHECK
 70
0
  9
$PEXTMIN
 10
1e+20
 20
1e+20
 30
1e+20
  9
$PEXTMAX
 10
-1e+20
 20
-1e+20
 30
-1e+20
  9
$PLIMMIN
 10
0.0
 20
0.0
  9
$PLIMMAX
 10
420.0
 20
297.0
  9
$UNITMODE
 70
0
  9
$VISRETAIN
 70
1
  9
$PLINEGEN
 70
0
  9
$PSLTSCALE
 70
1
  9
$TREEDEPTH
 70
3020
  9
$CMLSTYLE
  2
Standard
  9
$CMLJUST
 70
0
  9
$CMLSCALE
 40
20.0
  9
$PROXYGRAPHICS
 70
1
  9
$MEASUREMENT
 70
0
  9
$CELWEIGHT
370
-1
  9
$ENDCAPS
280
0
  9
$JOINSTYLE
280
0
  9
$LWDISPLAY
290
0
  9
$INSUNITS
 70
1
  9
$HYPERLINKBASE
  1

  9
$STYLESHEET
  1

  9
$XEDIT
290
1
  9
$CEPSNTYPE
380
0
  9
$PSTYLEMODE
290
1
  9
$FINGERPRINTGUID
  2
{C44D0DA3-35CD-4DA1-9E00-CFFD3FCA2877}
  9
$VERSIONGUID
  2
{C229D54A-5969-42F4-9426-348B454A0739}
  9
$EXTNAMES
290
1
  9
$PSVPSCALE
 40
0.0
  9
$OLESTARTUP
290
0
  9
$SORTENTS
280
127
  9
$INDEXCTL
280
0
  9
$HIDETEXT
280
1
  9
$XCLIPFRAME
280
1
  9
$HALOGAP
280
0
  9
$OBSCOLOR
 70
257
  9
$OBSLTYPE
280
0
  9
$INTERSECTIONDISPLAY
280
0
  9
$INTERSECTIONCOLOR
 70
257
  9
$DIMASSOC
280
2
  9
$PROJECTNAME
  1

  9
$CAMERADISPLAY
290
0
  9
$LENSLENGTH
 40
50.0
  9
$CAMERAHEIGHT
 40
0.0
  9
$STEPSPERSEC
 40
24.0
  9
$STEPSIZE
 40
100.0
  9
$3DDWFPREC
 40
2.0
  9
$PSOLWIDTH
 40
0.005
  9
$PSOLHEIGHT
 40
0.08
  9
$LOFTANG1
 40
1.570796326795
  9
$LOFTANG2
 40
1.570796326795
  9
$LOFTMAG1
 40
0.0
  9
$LOFTMAG2
 40
0.0
  9
$LOFTPARAM
 70
7
  9
$LOFTNORMALS
280
1
  9
$LATITUDE
 40
37.795
  9
$LONGITUDE
 40
-122.394
  9
$NORTHDIRECTION
 40
0.0
  9
$TIMEZONE
 70
-8000
  9
$LIGHTGLYPHDISPLAY
280
1
  9
$TILEMODELIGHTSYNCH
280
1
  9
$CMATERIAL
347
20
  9
$SOLIDHIST
280
0
  9
$SHOWHIST
280
1
  9
$DWFFRAME
280
2
  9
$DGNFRAME
280
2
  9
$REALWORLDSCALE
290
1
  9
$INTERFERECOLOR
 62
256
  9
$CSHADOW
280
0
  9
$SHADOWPLANELOCATION
 40
0.0
  0
ENDSEC
  0
SECTION
  2
CLASSES
  0
CLASS
  1
ACDBDICTIONARYWDFLT
  2
AcDbDictionaryWithDefault
  3
ObjectDBX Classes
 90
0
 91
0
280
0
281
0
  0
CLASS
  1
SUN
  2
AcDbSun
  3
SCENEOE
 90
1153
 91
0
280
0
281
0
  0
CLASS
  1
VISUALSTYLE
  2
AcDbVisualStyle
  3
ObjectDBX Classes
 90
4095
 91
0
280
0
281
0
  0
CLASS
  1
MATERIAL
  2
AcDbMaterial
  3
ObjectDBX Classes
 90
1153
 91
0
280
0
281
0
  0
CLASS
  1
SCALE
  2
AcDbScale
  3
ObjectDBX Classes
 90
1153
 91
0
280
0
281
0
  0
CLASS
  1
TABLESTYLE
  2
AcDbTableStyle
  3
ObjectDBX Classes
 90
4095
 91
0
280
0
281
0
  0
CLASS
  1
MLEADERSTYLE
  2
AcDbMLeaderStyle
  3
ACDB_MLEADERSTYLE_CLASS
 90
4095
 91
0
280
0
281
0
  0
CLASS
  1
DICTIONARYVAR
  2
AcDbDictionaryVar
  3
ObjectDBX Classes
 90
0
 91
0
280
0
281
0
  0
CLASS
  1
CELLSTYLEMAP
  2
AcDbCellStyleMap
  3
ObjectDBX Classes
 90
1152
 91
0
280
0
281
0
  0
CLASS
  1
MENTALRAYRENDERSETTINGS
  2
AcDbMentalRayRenderSettings
  3
SCENEOE
 90
1024
 91
0
280
0
281
0
  0
CLASS
  1
ACDBDETAILVIEWSTYLE
  2
AcDbDetailViewStyle
  3
ObjectDBX Classes
 90
1025
 91
0
280
0
281
0
  0
CLASS
  1
ACDBSECTIONVIEWSTYLE
  2
AcDbSectionViewStyle
  3
ObjectDBX Classes
 90
1025
 91
0
280
0
281
0
  0
CLASS
  1
RASTERVARIABLES
  2
AcDbRasterVariables
  3
ISM
 90
0
 91
0
280
0
281
0
  0
CLASS
  1
LAYOUT
  2
AcDbLayout
  3
ObjectDBX Classes
 90
0
 91
0
280
0
281
0
  0
CLASS
  1
ACDBPLACEHOLDER
  2
AcDbPlaceHolder
  3
ObjectDBX Classes
 90
0
 91
0
280
0
281
0
  0
ENDSEC
  0
SECTION
  2
TABLES
  0
TABLE
  2
VPORT
  5
8
330
0
100
AcDbSymbolTable
 70
1
  0
VPORT
  5
23
330
8
100
AcDbSymbolTableRecord
100
AcDbViewportTableRecord
  2
*Active
 70
0
 10
0.0
 20
0.0
 11
1.0
 21
1.0
 12
0.0
 22
0.0
 13
0.0
 23
0.0
 14
0.5
 24
0.5
 15
0.5
 25
0.5
 16
0.0
 26
0.0
 36
1.0
 17
0.0
 27
0.0
 37
0.0
 40
1000.0
 41
1.34
 42
50.0
 43
0.0
 44
0.0
 50
0.0
 51
0.0
 71
0
 72
1000
 73
1
 74
3
 75
0
 76
0
 77
0
 78
0
281
0
 65
0
146
0.0
  0
ENDTAB
  0
TABLE
  2
LTYPE
  5
2
330
0
100
AcDbSymbolTable
 70
21
  0
LTYPE
  5
24
330
2
100
AcDbSymbolTableRecord
100
AcDbLinetypeTableRecord
  2
ByBlock
 70
0
  3

 72
65
 73
0
 40
0.0
  0
LTYPE
  5
25
330
2
100
AcDbSymbolTableRecord
100
AcDbLinetypeTableRecord
  2
ByLayer
 70
0
  3

 72
65
 73
0
 40
0.0
  0
LTYPE
  5
26
330
2
100
AcDbSymbolTableRecord
100
AcDbLinetypeTableRecord
  2
Continuous
 70
0
  3

 72
65
 73
0
 40
0.0
  0
LTYPE
  5
2F
330
2
100
AcDbSymbolTableRecord
100
AcDbLinetypeTableRecord
  2
CENTER
 70
0
  3
Center ____ _ ____ _ ____ _ ____ _ ____ _ ____
 72
65
 73
4
 40
2.0
 49
1.25
 74
0
 49
-0.25
 74
0
 49
0.25
 74
0
 49
-0.25
 74
0
  0
LTYPE
  5
30
330
2
100
AcDbSymbolTableRecord
100
AcDbLinetypeTableRecord
  2
CENTERX2
 70
0
  3
Center (2x) ________  __  ________  __  ________
 72
65
 73
4
 40
3.5
 49
2.5
 74
0
 49
-0.25
 74
0
 49
0.5
 74
0
 49
-0.25
 74
0
  0
LTYPE
  5
31
330
2
100
AcDbSymbolTableRecord
100
AcDbLinetypeTableRecord
  2
CENTER2
 70
0
  3
Center (.5x) ____ _ ____ _ ____ _ ____ _ ____
 72
65
 73
4
 40
1.0
 49
0.625
 74
0
 49
-0.125
 74
0
 49
0.125
 74
0
 49
-0.125
 74
0
  0
LTYPE
  5
32
330
2
100
AcDbSymbolTableRecord
100
AcDbLinetypeTableRecord
  2
DASHED
 70
0
  3
Dashed __ __ __ __ __ __ __ __ __ __ __ __ __ _
 72
65
 73
2
 40
0.6
 49
0.5
 74
0
 49
-0.1
 74
0
  0
LTYPE
  5
33
330
2
100
AcDbSymbolTableRecord
100
AcDbLinetypeTableRecord
  2
DASHEDX2
 70
0
  3
Dashed (2x) ____  ____  ____  ____  ____  ____
 72
65
 73
2
 40
1.2
 49
1.0
 74
0
 49
-0.2
 74
0
  0
LTYPE
  5
34
330
2
100
AcDbSymbolTableRecord
100
AcDbLinetypeTableRecord
  2
DASHED2
 70
0
  3
Dashed (.5x) _ _ _ _ _ _ _ _ _ _ _ _ _ _
 72
65
 73
2
 40
0.3
 49
0.25
 74
0
 49
-0.05
 74
0
  0
LTYPE
  5
35
330
2
100
AcDbSymbolTableRecord
100
AcDbLinetypeTableRecord
  2
PHANTOM
 70
0
  3
Phantom ______  __  __  ______  __  __  ______
 72
65
 73
6
 40
2.5
 49
1.25
 74
0
 49
-0.25
 74
0
 49
0.25
 74
0
 49
-0.25
 74
0
 49
0.25
 74
0
 49
-0.25
 74
0
  0
LTYPE
  5
36
330
2
100
AcDbSymbolTableRecord
100
AcDbLinetypeTableRecord
  2
PHANTOMX2
 70
0
  3
Phantom (2x)____________    ____    ____    ____________
 72
65
 73
6
 40
4.25
 49
2.5
 74
0
 49
-0.25
 74
0
 49
0.5
 74
0
 49
-0.25
 74
0
 49
0.5
 74
0
 49
-0.25
 74
0
  0
LTYPE
  5
37
330
2
100
AcDbSymbolTableRecord
100
AcDbLinetypeTableRecord
  2
PHANTOM2
 70
0
  3
Phantom (.5x) ___ _ _ ___ _ _ ___ _ _ ___ _ _ ___
 72
65
 73
6
 40
1.25
 49
0.625
 74
0
 49
-0.125
 74
0
 49
0.125
 74
0
 49
-0.125
 74
0
 49
0.125
 74
0
 49
-0.125
 74
0
  0
LTYPE
  5
38
330
2
100
AcDbSymbolTableRecord
100
AcDbLinetypeTableRecord
  2
DASHDOT
 70
0
  3
Dash dot __ . __ . __ . __ . __ . __ . __ . __
 72
65
 73
4
 40
1.4
 49
1.0
 74
0
 49
-0.2
 74
0
 49
0.0
 74
0
 49
-0.2
 74
0
  0
LTYPE
  5
39
330
2
100
AcDbSymbolTableRecord
100
AcDbLinetypeTableRecord
  2
DASHDOTX2
 70
0
  3
Dash dot (2x) ____  .  ____  .  ____  .  ____
 72
65
 73
4
 40
2.4
 49
2.0
 74
0
 49
-0.2
 74
0
 49
0.0
 74
0
 49
-0.2
 74
0
  0
LTYPE
  5
3A
330
2
100
AcDbSymbolTableRecord
100
AcDbLinetypeTableRecord
  2
DASHDOT2
 70
0
  3
Dash dot (.5x) _ . _ . _ . _ . _ . _ . _ . _
 72
65
 73
4
 40
0.7
 49
0.5
 74
0
 49
-0.1
 74
0
 49
0.0
 74
0
 49
-0.1
 74
0
  0
LTYPE
  5
3B
330
2
100
AcDbSymbolTableRecord
100
AcDbLinetypeTableRecord
  2
DOT
 70
0
  3
Dot .  .  .  .  .  .  .  .  .  .  .  .  .  .  .  .
 72
65
 73
2
 40
0.2
 49
0.0
 74
0
 49
-0.2
 74
0
  0
LTYPE
  5
3C
330
2
100
AcDbSymbolTableRecord
100
AcDbLinetypeTableRecord
  2
DOTX2
 70
0
  3
Dot (2x) .    .    .    .    .    .    .    . 
 72
65
 73
2
 40
0.4
 49
0.0
 74
0
 49
-0.4
 74
0
  0
LTYPE
  5
3D
330
2
100
AcDbSymbolTableRecord
100
AcDbLinetypeTableRecord
  2
DOT2
 70
0
  3
Dot (.5) . . . . . . . . . . . . . . . . . . . 
 72
65
 73
2
 40
0.1
 49
0.0
 74
0
 49
-0.1
 74
0
  0
LTYPE
  5
3E
330
2
100
AcDbSymbolTableRecord
100
AcDbLinetypeTableRecord
  2
DIVIDE
 70
0
  3
Divide __ . . __ . . __ . . __ . . __ . . __
 72
65
 73
6
 40
1.6
 49
1.0
 74
0
 49
-0.2
 74
0
 49
0.0
 74
0
 49
-0.2
 74
0
 49
0.0
 74
0
 49
-0.2
 74
0
  0
LTYPE
  5
3F
330
2
100
AcDbSymbolTableRecord
100
AcDbLinetypeTableRecord
  2
DIVIDEX2
 70
0
  3
Divide (2x) ____  . .  ____  . .  ____  . .  ____
 72
65
 73
6
 40
2.6
 49
2.0
 74
0
 49
-0.2
 74
0
 49
0.0
 74
0
 49
-0.2
 74
0
 49
0.0
 74
0
 49
-0.2
 74
0
  0
LTYPE
  5
40
330
2
100
AcDbSymbolTableRecord
100
AcDbLinetypeTableRecord
  2
DIVIDE2
 70
0
  3
Divide(.5x) _ . _ . _ . _ . _ . _ . _ . _
 72
65
 73
6
 40
0.8
 49
0.5
 74
0
 49
-0.1
 74
0
 49
0.0
 74
0
 49
-0.1
 74
0
 49
0.0
 74
0
 49
-0.1
 74
0
  0
ENDTAB
  0
TABLE
  2
LAYER
  5
1
330
0
100
AcDbSymbolTable
 70
10
  0
LAYER
  5
27
330
1
100
AcDbSymbolTableRecord
100
AcDbLayerTableRecord
  2
0
 70
0
 62
7
  6
Continuous
370
-3
390
13
347
21
  0
LAYER
  5
28
330
1
100
AcDbSymbolTableRecord
100
AcDbLayerTableRecord
  2
Defpoints
 70
0
 62
7
  6
Continuous
290
0
370
-3
390
13
347
21
  0
LAYER
  5
8A
330
1
100
AcDbSymbolTableRecord
100
AcDbLayerTableRecord
  2
Front elevation
 70
0
 62
7
  6
Continuous
370
-3
390
13
347
21
  0
LAYER
  5
8B
330
1
100
AcDbSymbolTableRecord
100
AcDbLayerTableRecord
  2
Front elevation hatch
 70
0
 62
8
  6
Continuous
370
-3
390
13
347
21
  0
LAYER
  5
DB
330
1
100
AcDbSymbolTableRecord
100
AcDbLayerTableRecord
  2
Panel head - detail A
 70
0
 62
7
  6
Continuous
370
-3
390
13
347
21
  0
LAYER
  5
DC
330
1
100
AcDbSymbolTableRecord
100
AcDbLayerTableRecord
  2
Panel head - detail A hatch
 70
0
 62
8
  6
Continuous
370
-3
390
13
347
21
  0
LAYER
  5
EC
330
1
100
AcDbSymbolTableRecord
100
AcDbLayerTableRecord
  2
Section B-B
 70
0
 62
7
  6
Continuous
370
-3
390
13
347
21
  0
LAYER
  5
ED
330
1
100
AcDbSymbolTableRecord
100
AcDbLayerTableRecord
  2
Section B-B hatch
 70
0
 62
8
  6
Continuous
370
-3
390
13
347
21
  0
LAYER
  5
116
330
1
100
AcDbSymbolTableRecord
100
AcDbLayerTableRecord
  2
Lock rail - detail C
 70
0
 62
7
  6
Continuous
370
-3
390
13
347
21
  0
LAYER
  5
117
330
1
100
AcDbSymbolTableRecord
100
AcDbLayerTableRecord
  2
Lock rail - detail C hatch
 70
0
 62
8
  6
Continuous
370
-3
390
13
347
21
  0
ENDTAB
  0
TABLE
  2
STYLE
  5
5
330
0
100
AcDbSymbolTable
 70
26
  0
STYLE
  5
29
330
5
100
AcDbSymbolTableRecord
100
AcDbTextStyleTableRecord
  2
Standard
 70
0
 40
0.0
 41
1.0
 50
0.0
 71
0
 42
2.5
  3
txt
  4

  0
STYLE
  5
41
330
5
100
AcDbSymbolTableRecord
100
AcDbTextStyleTableRecord
  2
OpenSans-Light
 70
0
 40
0.0
 41
1.0
 50
0.0
 71
0
 42
2.5
  3
OpenSans-Light.ttf
  4

  0
STYLE
  5
42
330
5
100
AcDbSymbolTableRecord
100
AcDbTextStyleTableRecord
  2
OpenSans-Light-Italic
 70
0
 40
0.0
 41
1.0
 50
0.0
 71
0
 42
2.5
  3
OpenSans-LightItalic.ttf
  4

  0
STYLE
  5
43
330
5
100
AcDbSymbolTableRecord
100
AcDbTextStyleTableRecord
  2
OpenSans
 70
0
 40
0.0
 41
1.0
 50
0.0
 71
0
 42
2.5
  3
OpenSans-Regular.ttf
  4

  0
STYLE
  5
44
330
5
100
AcDbSymbolTableRecord
100
AcDbTextStyleTableRecord
  2
OpenSans-Italic
 70
0
 40
0.0
 41
1.0
 50
0.0
 71
0
 42
2.5
  3
OpenSans-Italic.ttf
  4

  0
STYLE
  5
45
330
5
100
AcDbSymbolTableRecord
100
AcDbTextStyleTableRecord
  2
OpenSans-SemiBold
 70
0
 40
0.0
 41
1.0
 50
0.0
 71
0
 42
2.5
  3
OpenSans-SemiBold.ttf
  4

  0
STYLE
  5
46
330
5
100
AcDbSymbolTableRecord
100
AcDbTextStyleTableRecord
  2
OpenSans-SemiBoldItalic
 70
0
 40
0.0
 41
1.0
 50
0.0
 71
0
 42
2.5
  3
OpenSans-SemiBoldItalic.ttf
  4

  0
STYLE
  5
47
330
5
100
AcDbSymbolTableRecord
100
AcDbTextStyleTableRecord
  2
OpenSans-Bold
 70
0
 40
0.0
 41
1.0
 50
0.0
 71
0
 42
2.5
  3
OpenSans-Bold.ttf
  4

  0
STYLE
  5
48
330
5
100
AcDbSymbolTableRecord
100
AcDbTextStyleTableRecord
  2
OpenSans-BoldItalic
 70
0
 40
0.0
 41
1.0
 50
0.0
 71
0
 42
2.5
  3
OpenSans-BoldItalic.ttf
  4

  0
STYLE
  5
49
330
5
100
AcDbSymbolTableRecord
100
AcDbTextStyleTableRecord
  2
OpenSans-ExtraBold
 70
0
 40
0.0
 41
1.0
 50
0.0
 71
0
 42
2.5
  3
OpenSans-ExtraBold.ttf
  4

  0
STYLE
  5
4A
330
5
100
AcDbSymbolTableRecord
100
AcDbTextStyleTableRecord
  2
OpenSans-ExtraBoldItalic
 70
0
 40
0.0
 41
1.0
 50
0.0
 71
0
 42
2.5
  3
OpenSans-ExtraBoldItalic.ttf
  4

  0
STYLE
  5
4B
330
5
100
AcDbSymbolTableRecord
100
AcDbTextStyleTableRecord
  2
OpenSansCondensed-Bold
 70
0
 40
0.0
 41
1.0
 50
0.0
 71
0
 42
2.5
  3
OpenSansCondensed-Bold.ttf
  4

  0
STYLE
  5
4C
330
5
100
AcDbSymbolTableRecord
100
AcDbTextStyleTableRecord
  2
OpenSansCondensed-Light
 70
0
 40
0.0
 41
1.0
 50
0.0
 71
0
 42
2.5
  3
OpenSansCondensed-Light.ttf
  4

  0
STYLE
  5
4D
330
5
100
AcDbSymbolTableRecord
100
AcDbTextStyleTableRecord
  2
OpenSansCondensed-Italic
 70
0
 40
0.0
 41
1.0
 50
0.0
 71
0
 42
2.5
  3
OpenSansCondensed-LightItalic.ttf
  4

  0
STYLE
  5
4E
330
5
100
AcDbSymbolTableRecord
100
AcDbTextStyleTableRecord
  2
LiberationSans
 70
0
 40
0.0
 41
1.0
 50
0.0
 71
0
 42
2.5
  3
LiberationSans-Regular.ttf
  4

  0
STYLE
  5
4F
330
5
100
AcDbSymbolTableRecord
100
AcDbTextStyleTableRecord
  2
LiberationSans-Bold
 70
0
 40
0.0
 41
1.0
 50
0.0
 71
0
 42
2.5
  3
LiberationSans-Bold.ttf
  4

  0
STYLE
  5
50
330
5
100
AcDbSymbolTableRecord
100
AcDbTextStyleTableRecord
  2
LiberationSans-BoldItalic
 70
0
 40
0.0
 41
1.0
 50
0.0
 71
0
 42
2.5
  3
LiberationSans-BoldItalic.ttf
  4

  0
STYLE
  5
51
330
5
100
AcDbSymbolTableRecord
100
AcDbTextStyleTableRecord
  2
LiberationSans-Italic
 70
0
 40
0.0
 41
1.0
 50
0.0
 71
0
 42
2.5
  3
LiberationSans-Italic.ttf
  4

  0
STYLE
  5
52
330
5
100
AcDbSymbolTableRecord
100
AcDbTextStyleTableRecord
  2
LiberationSerif
 70
0
 40
0.0
 41
1.0
 50
0.0
 71
0
 42
2.5
  3
LiberationSerif-Regular.ttf
  4

  0
STYLE
  5
53
330
5
100
AcDbSymbolTableRecord
100
AcDbTextStyleTableRecord
  2
LiberationSerif-Bold
 70
0
 40
0.0
 41
1.0
 50
0.0
 71
0
 42
2.5
  3
LiberationSerif-Bold.ttf
  4

  0
STYLE
  5
54
330
5
100
AcDbSymbolTableRecord
100
AcDbTextStyleTableRecord
  2
LiberationSerif-BoldItalic
 70
0
 40
0.0
 41
1.0
 50
0.0
 71
0
 42
2.5
  3
LiberationSerif-BoldItalic.ttf
  4

  0
STYLE
  5
55
330
5
100
AcDbSymbolTableRecord
100
AcDbTextStyleTableRecord
  2
LiberationSerif-Italic
 70
0
 40
0.0
 41
1.0
 50
0.0
 71
0
 42
2.5
  3
LiberationSerif-Italic.ttf
  4

  0
STYLE
  5
56
330
5
100
AcDbSymbolTableRecord
100
AcDbTextStyleTableRecord
  2
LiberationMono
 70
0
 40
0.0
 41
1.0
 50
0.0
 71
0
 42
2.5
  3
LiberationMono-Regular.ttf
  4

  0
STYLE
  5
57
330
5
100
AcDbSymbolTableRecord
100
AcDbTextStyleTableRecord
  2
LiberationMono-Bold
 70
0
 40
0.0
 41
1.0
 50
0.0
 71
0
 42
2.5
  3
LiberationMono-Bold.ttf
  4

  0
STYLE
  5
58
330
5
100
AcDbSymbolTableRecord
100
AcDbTextStyleTableRecord
  2
LiberationMono-BoldItalic
 70
0
 40
0.0
 41
1.0
 50
0.0
 71
0
 42
2.5
  3
LiberationMono-BoldItalic.ttf
  4

  0
STYLE
  5
59
330
5
100
AcDbSymbolTableRecord
100
AcDbTextStyleTableRecord
  2
LiberationMono-Italic
 70
0
 40
0.0
 41
1.0
 50
0.0
 71
0
 42
2.5
  3
LiberationMono-Italic.ttf
  4

  0
ENDTAB
  0
TABLE
  2
VIEW
  5
7
330
0
100
AcDbSymbolTable
 70
0
  0
ENDTAB
  0
TABLE
  2
UCS
  5
6
330
0
100
AcDbSymbolTable
 70
0
  0
ENDTAB
  0
TABLE
  2
APPID
  5
3
330
0
100
AcDbSymbolTable
 70
3
  0
APPID
  5
2A
330
3
100
AcDbSymbolTableRecord
100
AcDbRegAppTableRecord
  2
ACAD
 70
0
  0
APPID
  5
12E
330
3
100
AcDbSymbolTableRecord
100
AcDbRegAppTableRecord
  2
HATCHBACKGROUNDCOLOR
 70
0
  0
APPID
  5
12F
330
3
100
AcDbSymbolTableRecord
100
AcDbRegAppTableRecord
  2
EZDXF
 70
0
  0
ENDTAB
  0
TABLE
  2
DIMSTYLE
  5
4
330
0
100
AcDbSymbolTable
 70
12
100
AcDbDimStyleTable
  0
DIMSTYLE
105
2B
330
4
100
AcDbSymbolTableRecord
100
AcDbDimStyleTableRecord
  2
Standard
 70
0
 40
1.0
 41
2.5
 42
0.625
 43
3.75
 44
1.25
 45
0.0
 46
0.0
 47
0.0
 48
0.0
 49
2.5
140
2.5
141
2.5
142
0.0
143
0.03937007874
144
1.0
145
0.0
146
1.0
147
0.625
148
0.0
 69
0
 70
0
 71
0
 72
0
 73
0
 74
0
 75
0
 76
0
 77
1
 78
8
 79
3
170
0
171
3
172
1
173
0
174
0
175
0
176
0
177
0
178
0
179
2
271
2
272
2
273
2
274
3
275
0
276
0
277
2
278
44
279
0
280
0
281
0
282
0
283
0
284
8
285
0
286
0
288
0
289
3
290
0
371
-2
372
-2
  0
DIMSTYLE
105
73
330
4
100
AcDbSymbolTableRecord
100
AcDbDimStyleTableRecord
  2
EZDXF
 70
0
 40
1.0
 41
0.175
 42
0.125
 43
3.75
 44
0.375
 45
0.0
 46
0.0
 47
0.0
 48
0.0
 49
2.5
140
0.25
141
2.5
142
0.0
143
0.03937007874
144
100.0
145
0.0
146
0.5
147
0.1
148
0.0
 69
0
 70
0
 71
0
 72
0
 73
0
 74
0
 75
0
 76
0
 77
1
 78
12
 79
3
170
0
171
3
172
1
173
0
174
0
175
0
176
0
177
0
178
0
179
2
271
2
272
2
273
2
274
3
275
0
276
0
277
2
278
46
279
2
280
0
281
0
282
0
283
0
284
8
285
0
286
0
288
1
289
3
290
0
340
4C
342
74
371
-2
372
-2
  0
DIMSTYLE
105
7C
330
4
100
AcDbSymbolTableRecord
100
AcDbDimStyleTableRecord
  2
EZ_M_100_H25_CM
 70
0
 40
1.0
 41
0.25
 42
0.125
 43
3.75
 44
0.375
 45
0.0
 46
0.0
 47
0.0
 48
0.0
 49
2.5
140
0.25
141
2.5
142
0.125
143
0.03937007874
144
100.0
145
0.0
146
0.5
147
0.1
148
0.0
 69
0
 70
0
 71
0
 72
0
 73
0
 74
0
 75
0
 76
0
 77
1
 78
12
 79
3
170
0
171
3
172
1
173
0
174
0
175
0
176
0
177
0
178
0
179
2
271
2
272
2
273
2
274
3
275
0
276
0
277
2
278
46
279
2
280
0
281
0
282
0
283
0
284
8
285
0
286
0
288
1
289
3
290
0
340
4C
371
-2
372
-2
  0
DIMSTYLE
105
7D
330
4
100
AcDbSymbolTableRecord
100
AcDbDimStyleTableRecord
  2
EZ_M_50_H25_CM
 70
0
 40
1.0
 41
0.125
 42
0.0625
 43
3.75
 44
0.1875
 45
0.0
 46
0.0
 47
0.0
 48
0.0
 49
2.5
140
0.125
141
2.5
142
0.0625
143
0.03937007874
144
100.0
145
0.0
146
0.5
147
0.05
148
0.0
 69
0
 70
0
 71
0
 72
0
 73
0
 74
0
 75
0
 76
0
 77
1
 78
12
 79
3
170
0
171
3
172
1
173
0
174
0
175
0
176
0
177
0
178
0
179
2
271
2
272
2
273
2
274
3
275
0
276
0
277
2
278
46
279
2
280
0
281
0
282
0
283
0
284
8
285
0
286
0
288
1
289
3
290
0
340
4C
371
-2
372
-2
  0
DIMSTYLE
105
7E
330
4
100
AcDbSymbolTableRecord
100
AcDbDimStyleTableRecord
  2
EZ_M_25_H25_CM
 70
0
 40
1.0
 41
0.0625
 42
0.03125
 43
3.75
 44
0.09375
 45
0.0
 46
0.0
 47
0.0
 48
0.0
 49
2.5
140
0.0625
141
2.5
142
0.03125
143
0.03937007874
144
100.0
145
0.0
146
0.5
147
0.025
148
0.0
 69
0
 70
0
 71
0
 72
0
 73
0
 74
0
 75
0
 76
0
 77
1
 78
12
 79
3
170
0
171
3
172
1
173
0
174
0
175
0
176
0
177
0
178
0
179
2
271
2
272
2
273
2
274
3
275
0
276
0
277
2
278
46
279
2
280
0
281
0
282
0
283
0
284
8
285
0
286
0
288
1
289
3
290
0
340
4C
371
-2
372
-2
  0
DIMSTYLE
105
7F
330
4
100
AcDbSymbolTableRecord
100
AcDbDimStyleTableRecord
  2
EZ_M_20_H25_CM
 70
0
 40
1.0
 41
0.05
 42
0.025
 43
3.75
 44
0.07500000000000001
 45
0.0
 46
0.0
 47
0.0
 48
0.0
 49
2.5
140
0.05
141
2.5
142
0.025
143
0.03937007874
144
100.0
145
0.0
146
0.5
147
0.020000000000000004
148
0.0
 69
0
 70
0
 71
0
 72
0
 73
0
 74
0
 75
0
 76
0
 77
1
 78
12
 79
3
170
0
171
3
172
1
173
0
174
0
175
0
176
0
177
0
178
0
179
2
271
2
272
2
273
2
274
3
275
0
276
0
277
2
278
46
279
2
280
0
281
0
282
0
283
0
284
8
285
0
286
0
288
1
289
3
290
0
340
4C
371
-2
372
-2
  0
DIMSTYLE
105
80
330
4
100
AcDbSymbolTableRecord
100
AcDbDimStyleTableRecord
  2
EZ_M_10_H25_CM
 70
0
 40
1.0
 41
0.025
 42
0.0125
 43
3.75
 44
0.037500000000000006
 45
0.0
 46
0.0
 47
0.0
 48
0.0
 49
2.5
140
0.025
141
2.5
142
0.0125
143
0.03937007874
144
100.0
145
0.0
146
0.5
147
0.010000000000000002
148
0.0
 69
0
 70
0
 71
0
 72
0
 73
0
 74
0
 75
0
 76
0
 77
1
 78
12
 79
3
170
0
171
3
172
1
173
0
174
0
175
0
176
0
177
0
178
0
179
2
271
2
272
2
273
2
274
3
275
0
276
0
277
2
278
46
279
2
280
0
281
0
282
0
283
0
284
8
285
0
286
0
288
1
289
3
290
0
340
4C
371
-2
372
-2
  0
DIMSTYLE
105
81
330
4
100
AcDbSymbolTableRecord
100
AcDbDimStyleTableRecord
  2
EZ_M_5_H25_CM
 70
0
 40
1.0
 41
0.0125
 42
0.00625
 43
3.75
 44
0.018750000000000003
 45
0.0
 46
0.0
 47
0.0
 48
0.0
 49
2.5
140
0.0125
141
2.5
142
0.00625
143
0.03937007874
144
100.0
145
0.0
146
0.5
147
0.005000000000000001
148
0.0
 69
0
 70
0
 71
0
 72
0
 73
0
 74
0
 75
0
 76
0
 77
1
 78
12
 79
3
170
0
171
3
172
1
173
0
174
0
175
0
176
0
177
0
178
0
179
2
271
2
272
2
273
2
274
3
275
0
276
0
277
2
278
46
279
2
280
0
281
0
282
0
283
0
284
8
285
0
286
0
288
1
289
3
290
0
340
4C
371
-2
372
-2
  0
DIMSTYLE
105
82
330
4
100
AcDbSymbolTableRecord
100
AcDbDimStyleTableRecord
  2
EZ_M_1_H25_CM
 70
0
 40
1.0
 41
0.0025
 42
0.00125
 43
3.75
 44
0.00375
 45
0.0
 46
0.0
 47
0.0
 48
0.0
 49
2.5
140
0.0025
141
2.5
142
0.00125
143
0.03937007874
144
100.0
145
0.0
146
0.5
147
0.001
148
0.0
 69
0
 70
0
 71
0
 72
0
 73
0
 74
0
 75
0
 76
0
 77
1
 78
12
 79
3
170
0
171
3
172
1
173
0
174
0
175
0
176
0
177
0
178
0
179
2
271
2
272
2
273
2
274
3
275
0
276
0
277
2
278
46
279
2
280
0
281
0
282
0
283
0
284
8
285
0
286
0
288
1
289
3
290
0
340
4C
371
-2
372
-2
  0
DIMSTYLE
105
83
330
4
100
AcDbSymbolTableRecord
100
AcDbDimStyleTableRecord
  2
EZ_RADIUS
 70
0
 40
1.0
 41
0.25
 42
0.125
 43
3.75
 44
0.375
 45
0.0
 46
0.0
 47
0.0
 48
0.0
 49
2.5
140
0.25
141
0.0
142
0.0
143
0.03937007874
144
100.0
145
0.0
146
0.5
147
0.1
148
0.0
 69
0
 70
0
 71
0
 72
0
 73
0
 74
0
 75
0
 76
0
 77
1
 78
12
 79
3
170
0
171
3
172
0
173
0
174
0
175
0
176
0
177
0
178
0
179
2
271
2
272
2
273
2
274
3
275
0
276
0
277
2
278
46
279
1
280
0
281
0
282
0
283
0
284
8
285
0
286
0
288
1
289
3
290
0
340
4C
342
84
371
-2
372
-2
  0
DIMSTYLE
105
88
330
4
100
AcDbSymbolTableRecord
100
AcDbDimStyleTableRecord
  2
EZ_RADIUS_INSIDE
 70
0
 40
1.0
 41
0.25
 42
0.125
 43
3.75
 44
0.375
 45
0.0
 46
0.0
 47
0.0
 48
0.0
 49
2.5
140
0.25
141
0.0
142
0.0
143
0.03937007874
144
100.0
145
0.0
146
0.5
147
0.1
148
0.0
 69
0
 70
0
 71
0
 72
0
 73
0
 74
0
 75
0
 76
0
 77
0
 78
12
 79
3
170
0
171
3
172
0
173
0
174
1
175
0
176
0
177
0
178
0
179
2
271
2
272
2
273
2
274
3
275
0
276
0
277
2
278
46
279
0
280
0
281
0
282
0
283
0
284
8
285
0
286
0
288
1
289
0
290
0
340
4C
342
84
371
-2
372
-2
  0
DIMSTYLE
105
89
330
4
100
AcDbSymbolTableRecord
100
AcDbDimStyleTableRecord
  2
EZ_CURVED
 70
0
 40
1.0
 41
0.25
 42
0.125
 43
3.75
 44
0.375
 45
0.0
 46
0.0
 47
0.0
 48
0.0
 49
2.5
140
0.25
141
2.5
142
0.0
143
0.03937007874
144
100.0
145
0.0
146
0.5
147
0.1
148
0.0
 69
0
 70
0
 71
0
 72
0
 73
0
 74
0
 75
0
 76
0
 77
1
 78
12
 79
2
 90
2
170
0
171
3
172
1
173
0
174
0
175
0
176
0
177
0
178
0
179
2
271
2
272
2
273
2
274
3
275
0
276
0
277
2
278
46
279
2
280
0
281
0
282
0
283
0
284
8
285
0
286
0
288
1
289
3
290
0
340
4C
371
-2
372
-2
  0
ENDTAB
  0
TABLE
  2
BLOCK_RECORD
  5
9
330
0
100
AcDbSymbolTable
 70
5
  0
BLOCK_RECORD
  5
17
330
9
100
AcDbSymbolTableRecord
100
AcDbBlockTableRecord
  2
*Model_Space
340
1A
 70
0
280
1
281
0
  0
BLOCK_RECORD
  5
1B
330
9
100
AcDbSymbolTableRecord
100
AcDbBlockTableRecord
  2
*Paper_Space
340
1E
 70
0
280
1
281
0
  0
BLOCK_RECORD
  5
74
330
9
100
AcDbSymbolTableRecord
100
AcDbBlockTableRecord
  2
_ARCHTICK
340
0
 70
0
280
1
281
0
  0
BLOCK_RECORD
  5
78
330
9
100
AcDbSymbolTableRecord
100
AcDbBlockTableRecord
  2
_CLOSEDFILLED
340
0
 70
0
280
1
281
0
  0
BLOCK_RECORD
  5
84
330
9
100
AcDbSymbolTableRecord
100
AcDbBlockTableRecord
  2
_CLOSEDBLANK
340
0
 70
0
280
1
281
0
  0
ENDTAB
  0
ENDSEC
  0
SECTION
  2
BLOCKS
  0
BLOCK
  5
18
330
17
100
AcDbEntity
  8
0
100
AcDbBlockBegin
  2
*Model_Space
 70
0
 10
0.0
 20
0.0
 30
0.0
  3
*Model_Space
  1

  0
ENDBLK
  5
19
330
17
100
AcDbEntity
  8
0
100
AcDbBlockEnd
  0
BLOCK
  5
1C
330
1B
100
AcDbEntity
  8
0
100
AcDbBlockBegin
  2
*Paper_Space
 70
0
 10
0.0
 20
0.0
 30
0.0
  3
*Paper_Space
  1

  0
ENDBLK
  5
1D
330
1B
100
AcDbEntity
  8
0
100
AcDbBlockEnd
  0
BLOCK
  5
75
330
74
100
AcDbEntity
  8
0
100
AcDbBlockBegin
  2
_ARCHTICK
 70
0
 10
0.0
 20
0.0
 30
0.0
  3
_ARCHTICK
  1

  0
LWPOLYLINE
  5
77
330
74
100
AcDbEntity
  8
0
  6
BYBLOCK
 62
0
100
AcDbPolyline
 90
2
 70
0
 43
0.15
 10
-0.5
 20
-0.5
 10
0.5
 20
0.5
  0
ENDBLK
  5
76
330
74
100
AcDbEntity
  8
0
100
AcDbBlockEnd
  0
BLOCK
  5
79
330
78
100
AcDbEntity
  8
0
100
AcDbBlockBegin
  2
_CLOSEDFILLED
 70
0
 10
0.0
 20
0.0
 30
0.0
  3
_CLOSEDFILLED
  1

  0
SOLID
  5
7B
330
78
100
AcDbEntity
  8
0
  6
BYBLOCK
 62
0
100
AcDbTrace
 10
-1.0
 20
0.16439898372402537
 30
0.0
 11
0.0
 21
0.0
 31
0.0
 12
-1.0
 22
-0.16439898372402537
 32
0.0
 13
-1.0
 23
-0.16439898372402537
 33
0.0
  0
ENDBLK
  5
7A
330
78
100
AcDbEntity
  8
0
100
AcDbBlockEnd
  0
BLOCK
  5
85
330
84
100
AcDbEntity
  8
0
100
AcDbBlockBegin
  2
_CLOSEDBLANK
 70
0
 10
0.0
 20
0.0
 30
0.0
  3
_CLOSEDBLANK
  1

  0
LWPOLYLINE
  5
87
330
84
100
AcDbEntity
  8
0
  6
BYBLOCK
 62
0
100
AcDbPolyline
 90
3
 70
1
 10
-1.0
 20
0.16439898372402537
 10
0.0
 20
0.0
 10
-1.0
 20
-0.16439898372402537
  0
ENDBLK
  5
86
330
84
100
AcDbEntity
  8
0
100
AcDbBlockEnd
  0
ENDSEC
  0
SECTION
  2
ENTITIES
  0
LWPOLYLINE
  5
8C
330
17
100
AcDbEntity
  8
Front elevation
100
AcDbPolyline
 90
4
 70
0
 10
11.10236220472441
 20
0.0
 10
11.10236220472441
 20
92.99212598425197
 10
45.118110236220474
 20
92.99212598425197
 10
45.118110236220474
 20
0.0
  0
LWPOLYLINE
  5
8D
330
17
100
AcDbEntity
  8
Front elevation
  6
DASHED
100
AcDbPolyline
 90
4
 70
0
 10
7.086614173228346
 20
0.0
 10
7.086614173228346
 20
97.00787401574803
 10
49.13385826771653
 20
97.00787401574803
 10
49.13385826771653
 20
0.0
  0
LWPOLYLINE
  5
8E
330
17
100
AcDbEntity
  8
Front elevation
100
AcDbPolyline
 90
5
 70
0
 10
13.11023622047244
 20
90.98425196850394
 10
43.110236220472444
 20
90.98425196850394
 10
43.110236220472444
 20
0.0
 10
13.11023622047244
 20
0.0
 10
13.11023622047244
 20
90.98425196850394
  0
LINE
  5
8F
330
17
100
AcDbEntity
  8
Front elevation
100
AcDbLine
 10
17.04724409448819
 20
87.04724409448819
 30
0.0
 11
39.17322834645669
 21
87.04724409448819
 31
0.0
  0
LINE
  5
90
330
17
100
AcDbEntity
  8
Front elevation
100
AcDbLine
 10
17.04724409448819
 20
9.05511811023622
 30
0.0
 11
39.17322834645669
 21
9.05511811023622
 31
0.0
  0
LINE
  5
91
330
17
100
AcDbEntity
  8
Front elevation
100
AcDbLine
 10
17.04724409448819
 20
42.24409448818898
 30
0.0
 11
17.04724409448819
 21
33.188976377952756
 31
0.0
  0
LINE
  5
92
330
17
100
AcDbEntity
  8
Front elevation
100
AcDbLine
 10
39.17322834645669
 20
42.24409448818898
 30
0.0
 11
39.17322834645669
 21
33.188976377952756
 31
0.0
  0
LINE
  5
93
330
17
100
AcDbEntity
  8
Front elevation
100
AcDbLine
 10
17.04724409448819
 20
90.98425196850394
 30
0.0
 11
17.04724409448819
 21
87.04724409448819
 31
0.0
  0
LINE
  5
94
330
17
100
AcDbEntity
  8
Front elevation
100
AcDbLine
 10
39.17322834645669
 20
90.98425196850394
 30
0.0
 11
39.17322834645669
 21
87.04724409448819
 31
0.0
  0
LINE
  5
95
330
17
100
AcDbEntity
  8
Front elevation
100
AcDbLine
 10
17.04724409448819
 20
9.05511811023622
 30
0.0
 11
17.04724409448819
 21
0.0
 31
0.0
  0
LINE
  5
96
330
17
100
AcDbEntity
  8
Front elevation
100
AcDbLine
 10
39.17322834645669
 20
9.05511811023622
 30
0.0
 11
39.17322834645669
 21
0.0
 31
0.0
  0
LWPOLYLINE
  5
97
330
17
100
AcDbEntity
  8
Front elevation
100
AcDbPolyline
 90
5
 70
0
 10
17.04724409448819
 20
87.04724409448819
 10
39.173228346456696
 20
87.04724409448819
 10
39.173228346456696
 20
42.24409448818898
 10
17.04724409448819
 20
42.24409448818898
 10
17.04724409448819
 20
87.04724409448819
  0
LWPOLYLINE
  5
98
330
17
100
AcDbEntity
  8
Front elevation
100
AcDbPolyline
 90
5
 70
0
 10
17.834645669291337
 20
86.25984251968504
 10
38.38582677165354
 20
86.25984251968504
 10
38.38582677165354
 20
43.03149606299213
 10
17.834645669291337
 20
43.03149606299213
 10
17.834645669291337
 20
86.25984251968504
  0
LINE
  5
99
330
17
100
AcDbEntity
  8
Front elevation
100
AcDbLine
 10
17.04724409448819
 20
87.04724409448819
 30
0.0
 11
17.834645669291337
 21
86.25984251968504
 31
0.0
  0
LINE
  5
9A
330
17
100
AcDbEntity
  8
Front elevation
100
AcDbLine
 10
39.17322834645669
 20
87.04724409448819
 30
0.0
 11
38.38582677165354
 21
86.25984251968504
 31
0.0
  0
LINE
  5
9B
330
17
100
AcDbEntity
  8
Front elevation
100
AcDbLine
 10
17.04724409448819
 20
42.24409448818898
 30
0.0
 11
17.834645669291337
 21
43.031496062992126
 31
0.0
  0
LINE
  5
9C
330
17
100
AcDbEntity
  8
Front elevation
100
AcDbLine
 10
39.17322834645669
 20
42.24409448818898
 30
0.0
 11
38.38582677165354
 21
43.031496062992126
 31
0.0
  0
POLYLINE
  5
9D
330
17
100
AcDbEntity
  8
Front elevation
100
AcDb2dPolyline
 66
1
 10
0.0
 20
0.0
 30
0.0
 70
0
  0
VERTEX
  5
9E
330
9D
100
AcDbEntity
  8
Front elevation
100
AcDbVertex
100
AcDb2dVertex
 10
18.858267716535433
 20
46.417322834645674
 30
0.0
 70
0
  0
VERTEX
  5
9F
330
9D
100
AcDbEntity
  8
Front elevation
100
AcDbVertex
100
AcDb2dVertex
 10
18.858267716535433
 20
82.8740157480315
 30
0.0
 70
0
  0
SEQEND
  5
A0
330
9D
100
AcDbEntity
  8
Front elevation
  0
SPLINE
  5
A1
330
17
100
AcDbEntity
  8
Front elevation
100
AcDbSpline
 70
0
 71
3
 72
14
 73
10
 74
0
 40
0.0
 40
0.0
 40
0.0
 40
0.0
 40
1.0
 40
1.0
 40
1.0
 40
2.0
 40
2.0
 40
2.0
 40
3.0
 40
3.0
 40
3.0
 40
3.0
 10
18.858267716535433
 20
82.8740157480315
 30
0.0
 10
19.037937538301627
 20
82.8740157480315
 30
0.0
 10
19.214480110214534
 20
82.92132018760528
 30
0.0
 10
19.37007874015748
 20
83.01115509848837
 30
0.0
 10
19.525677370100425
 20
83.10099000937147
 30
0.0
 10
19.654915502439557
 20
83.2302281417106
 30
0.0
 10
19.744750413322652
 20
83.38582677165354
 30
0.0
 10
19.83458532420575
 20
83.5414254015965
 30
0.0
 10
19.881889763779526
 20
83.7179679735094
 30
0.0
 10
19.881889763779526
 20
83.8976377952756
 30
0.0
  0
SPLINE
  5
A2
330
17
100
AcDbEntity
  8
Front elevation
100
AcDbSpline
 70
0
 71
3
 72
11
 73
7
 74
0
 40
0.0
 40
0.0
 40
0.0
 40
0.0
 40
1.0
 40
1.0
 40
1.0
 40
2.0
 40
2.0
 40
2.0
 40
2.0
 10
19.881889763779526
 20
83.8976377952756
 30
0.0
 10
23.996062992125985
 20
83.8976377952756
 30
0.0
 10
23.008661417322834
 20
85.23622047244095
 30
0.0
 10
28.11023622047244
 20
85.23622047244095
 30
0.0
 10
33.21181102362205
 20
85.23622047244095
 30
0.0
 10
32.224409448818896
 20
83.8976377952756
 30
0.0
 10
36.338582677165356
 20
83.8976377952756
 30
0.0
  0
SPLINE
  5
A3
330
17
100
AcDbEntity
  8
Front elevation
100
AcDbSpline
 70
0
 71
3
 72
14
 73
10
 74
0
 40
0.0
 40
0.0
 40
0.0
 40
0.0
 40
1.0
 40
1.0
 40
1.0
 40
2.0
 40
2.0
 40
2.0
 40
3.0
 40
3.0
 40
3.0
 40
3.0
 10
36.338582677165356
 20
83.8976377952756
 30
0.0
 10
36.338582677165356
 20
83.7179679735094
 30
0.0
 10
36.38588711673913
 20
83.5414254015965
 30
0.0
 10
36.475722027622226
 20
83.38582677165354
 30
0.0
 10
36.565556938505324
 20
83.2302281417106
 30
0.0
 10
36.69479507084446
 20
83.10099000937147
 30
0.0
 10
36.8503937007874
 20
83.01115509848837
 30
0.0
 10
37.00599233073035
 20
82.92132018760528
 30
0.0
 10
37.182534902643255
 20
82.8740157480315
 30
0.0
 10
37.36220472440945
 20
82.8740157480315
 30
0.0
  0
POLYLINE
  5
A4
330
17
100
AcDbEntity
  8
Front elevation
100
AcDb2dPolyline
 66
1
 10
0.0
 20
0.0
 30
0.0
 70
0
  0
VERTEX
  5
A5
330
A4
100
AcDbEntity
  8
Front elevation
100
AcDbVertex
100
AcDb2dVertex
 10
37.36220472440945
 20
82.8740157480315
 30
0.0
 70
0
  0
VERTEX
  5
A6
330
A4
100
AcDbEntity
  8
Front elevation
100
AcDbVertex
100
AcDb2dVertex
 10
37.36220472440945
 20
46.417322834645674
 30
0.0
 70
0
  0
SEQEND
  5
A7
330
A4
100
AcDbEntity
  8
Front elevation
  0
SPLINE
  5
A8
330
17
100
AcDbEntity
  8
Front elevation
100
AcDbSpline
 70
0
 71
3
 72
14
 73
10
 74
0
 40
0.0
 40
0.0
 40
0.0
 40
0.0
 40
1.0
 40
1.0
 40
1.0
 40
2.0
 40
2.0
 40
2.0
 40
3.0
 40
3.0
 40
3.0
 40
3.0
 10
37.36220472440945
 20
46.417322834645674
 30
0.0
 10
37.182534902643255
 20
46.417322834645674
 30
0.0
 10
37.00599233073035
 20
46.37001839507189
 30
0.0
 10
36.8503937007874
 20
46.2801834841888
 30
0.0
 10
36.69479507084446
 20
46.190348573305705
 30
0.0
 10
36.565556938505324
 20
46.06111044096657
 30
0.0
 10
36.475722027622226
 20
45.90551181102363
 30
0.0
 10
36.38588711673913
 20
45.74991318108068
 30
0.0
 10
36.338582677165356
 20
45.573370609167775
 30
0.0
 10
36.338582677165356
 20
45.39370078740158
 30
0.0
  0
SPLINE
  5
A9
330
17
100
AcDbEntity
  8
Front elevation
100
AcDbSpline
 70
0
 71
3
 72
11
 73
7
 74
0
 40
0.0
 40
0.0
 40
0.0
 40
0.0
 40
1.0
 40
1.0
 40
1.0
 40
2.0
 40
2.0
 40
2.0
 40
2.0
 10
36.338582677165356
 20
45.39370078740158
 30
0.0
 10
32.224409448818896
 20
45.39370078740158
 30
0.0
 10
33.21181102362205
 20
44.05511811023622
 30
0.0
 10
28.11023622047244
 20
44.05511811023622
 30
0.0
 10
23.008661417322834
 20
44.05511811023622
 30
0.0
 10
23.996062992125985
 20
45.39370078740158
 30
0.0
 10
19.881889763779526
 20
45.39370078740158
 30
0.0
  0
SPLINE
  5
AA
330
17
100
AcDbEntity
  8
Front elevation
100
AcDbSpline
 70
0
 71
3
 72
14
 73
10
 74
0
 40
0.0
 40
0.0
 40
0.0
 40
0.0
 40
1.0
 40
1.0
 40
1.0
 40
2.0
 40
2.0
 40
2.0
 40
3.0
 40
3.0
 40
3.0
 40
3.0
 10
19.881889763779526
 20
45.39370078740158
 30
0.0
 10
19.881889763779526
 20
45.573370609167775
 30
0.0
 10
19.83458532420575
 20
45.74991318108068
 30
0.0
 10
19.744750413322652
 20
45.90551181102363
 30
0.0
 10
19.654915502439557
 20
46.06111044096657
 30
0.0
 10
19.525677370100425
 20
46.190348573305705
 30
0.0
 10
19.37007874015748
 20
46.2801834841888
 30
0.0
 10
19.214480110214534
 20
46.37001839507189
 30
0.0
 10
19.037937538301627
 20
46.417322834645674
 30
0.0
 10
18.858267716535433
 20
46.417322834645674
 30
0.0
  0
CIRCLE
  5
AB
330
17
100
AcDbEntity
  8
Front elevation
100
AcDbCircle
 10
18.960629921259844
 20
84.0
 30
0.0
 40
9.0
  0
CIRCLE
  5
AC
330
17
100
AcDbEntity
  8
Front elevation
100
AcDbCircle
 10
18.960629921259844
 20
84.0
 30
0.0
 40
3.6
  0
CIRCLE
  5
AD
330
17
100
AcDbEntity
  8
Front elevation
100
AcDbCircle
 10
37.25984251968504
 20
84.0
 30
0.0
 40
9.0
  0
CIRCLE
  5
AE
330
17
100
AcDbEntity
  8
Front elevation
100
AcDbCircle
 10
37.25984251968504
 20
84.0
 30
0.0
 40
3.6
  0
CIRCLE
  5
AF
330
17
100
AcDbEntity
  8
Front elevation
100
AcDbCircle
 10
18.960629921259844
 20
45.29133858267717
 30
0.0
 40
9.0
  0
CIRCLE
  5
B0
330
17
100
AcDbEntity
  8
Front elevation
100
AcDbCircle
 10
18.960629921259844
 20
45.29133858267717
 30
0.0
 40
3.6
  0
CIRCLE
  5
B1
330
17
100
AcDbEntity
  8
Front elevation
100
AcDbCircle
 10
37.25984251968504
 20
45.29133858267717
 30
0.0
 40
9.0
  0
CIRCLE
  5
B2
330
17
100
AcDbEntity
  8
Front elevation
100
AcDbCircle
 10
37.25984251968504
 20
45.29133858267717
 30
0.0
 40
3.6
  0
LWPOLYLINE
  5
B3
330
17
100
AcDbEntity
  8
Front elevation
100
AcDbPolyline
 90
5
 70
0
 10
17.04724409448819
 20
33.18897637795276
 10
39.173228346456696
 20
33.18897637795276
 10
39.173228346456696
 20
9.055118110236222
 10
17.04724409448819
 20
9.055118110236222
 10
17.04724409448819
 20
33.18897637795276
  0
LWPOLYLINE
  5
B4
330
17
100
AcDbEntity
  8
Front elevation
100
AcDbPolyline
 90
5
 70
0
 10
17.834645669291337
 20
32.40157480314961
 10
38.38582677165354
 20
32.40157480314961
 10
38.38582677165354
 20
9.842519685039377
 10
17.834645669291337
 20
9.842519685039377
 10
17.834645669291337
 20
32.40157480314961
  0
LINE
  5
B5
330
17
100
AcDbEntity
  8
Front elevation
100
AcDbLine
 10
17.04724409448819
 20
33.188976377952756
 30
0.0
 11
17.834645669291337
 21
32.40157480314961
 31
0.0
  0
LINE
  5
B6
330
17
100
AcDbEntity
  8
Front elevation
100
AcDbLine
 10
39.17322834645669
 20
33.188976377952756
 30
0.0
 11
38.38582677165354
 21
32.40157480314961
 31
0.0
  0
LINE
  5
B7
330
17
100
AcDbEntity
  8
Front elevation
100
AcDbLine
 10
17.04724409448819
 20
9.05511811023622
 30
0.0
 11
17.834645669291337
 21
9.84251968503937
 31
0.0
  0
LINE
  5
B8
330
17
100
AcDbEntity
  8
Front elevation
100
AcDbLine
 10
39.17322834645669
 20
9.05511811023622
 30
0.0
 11
38.38582677165354
 21
9.84251968503937
 31
0.0
  0
POLYLINE
  5
B9
330
17
100
AcDbEntity
  8
Front elevation
100
AcDb2dPolyline
 66
1
 10
0.0
 20
0.0
 30
0.0
 70
0
  0
VERTEX
  5
BA
330
B9
100
AcDbEntity
  8
Front elevation
100
AcDbVertex
100
AcDb2dVertex
 10
18.858267716535433
 20
13.228346456692918
 30
0.0
 70
0
  0
VERTEX
  5
BB
330
B9
100
AcDbEntity
  8
Front elevation
100
AcDbVertex
100
AcDb2dVertex
 10
18.858267716535433
 20
29.015748031496067
 30
0.0
 70
0
  0
SEQEND
  5
BC
330
B9
100
AcDbEntity
  8
Front elevation
  0
SPLINE
  5
BD
330
17
100
AcDbEntity
  8
Front elevation
100
AcDbSpline
 70
0
 71
3
 72
14
 73
10
 74
0
 40
0.0
 40
0.0
 40
0.0
 40
0.0
 40
1.0
 40
1.0
 40
1.0
 40
2.0
 40
2.0
 40
2.0
 40
3.0
 40
3.0
 40
3.0
 40
3.0
 10
18.858267716535433
 20
29.015748031496067
 30
0.0
 10
19.037937538301627
 20
29.015748031496067
 30
0.0
 10
19.214480110214534
 20
29.063052471069852
 30
0.0
 10
19.37007874015748
 20
29.152887381952944
 30
0.0
 10
19.525677370100425
 20
29.242722292836035
 30
0.0
 10
19.654915502439557
 20
29.371960425175168
 30
0.0
 10
19.744750413322652
 20
29.527559055118118
 30
0.0
 10
19.83458532420575
 20
29.68315768506106
 30
0.0
 10
19.881889763779526
 20
29.859700256973966
 30
0.0
 10
19.881889763779526
 20
30.039370078740163
 30
0.0
  0
SPLINE
  5
BE
330
17
100
AcDbEntity
  8
Front elevation
100
AcDbSpline
 70
0
 71
3
 72
11
 73
7
 74
0
 40
0.0
 40
0.0
 40
0.0
 40
0.0
 40
1.0
 40
1.0
 40
1.0
 40
2.0
 40
2.0
 40
2.0
 40
2.0
 10
19.881889763779526
 20
30.039370078740163
 30
0.0
 10
23.996062992125985
 20
30.039370078740163
 30
0.0
 10
23.008661417322834
 20
31.37795275590552
 30
0.0
 10
28.11023622047244
 20
31.37795275590552
 30
0.0
 10
33.21181102362205
 20
31.37795275590552
 30
0.0
 10
32.224409448818896
 20
30.039370078740163
 30
0.0
 10
36.338582677165356
 20
30.039370078740163
 30
0.0
  0
SPLINE
  5
BF
330
17
100
AcDbEntity
  8
Front elevation
100
AcDbSpline
 70
0
 71
3
 72
14
 73
10
 74
0
 40
0.0
 40
0.0
 40
0.0
 40
0.0
 40
1.0
 40
1.0
 40
1.0
 40
2.0
 40
2.0
 40
2.0
 40
3.0
 40
3.0
 40
3.0
 40
3.0
 10
36.338582677165356
 20
30.039370078740163
 30
0.0
 10
36.338582677165356
 20
29.859700256973966
 30
0.0
 10
36.38588711673913
 20
29.68315768506106
 30
0.0
 10
36.475722027622226
 20
29.527559055118118
 30
0.0
 10
36.565556938505324
 20
29.371960425175168
 30
0.0
 10
36.69479507084446
 20
29.242722292836035
 30
0.0
 10
36.8503937007874
 20
29.152887381952944
 30
0.0
 10
37.00599233073035
 20
29.063052471069852
 30
0.0
 10
37.182534902643255
 20
29.015748031496067
 30
0.0
 10
37.36220472440945
 20
29.015748031496067
 30
0.0
  0
POLYLINE
  5
C0
330
17
100
AcDbEntity
  8
Front elevation
100
AcDb2dPolyline
 66
1
 10
0.0
 20
0.0
 30
0.0
 70
0
  0
VERTEX
  5
C1
330
C0
100
AcDbEntity
  8
Front elevation
100
AcDbVertex
100
AcDb2dVertex
 10
37.36220472440945
 20
29.015748031496067
 30
0.0
 70
0
  0
VERTEX
  5
C2
330
C0
100
AcDbEntity
  8
Front elevation
100
AcDbVertex
100
AcDb2dVertex
 10
37.36220472440945
 20
13.228346456692918
 30
0.0
 70
0
  0
SEQEND
  5
C3
330
C0
100
AcDbEntity
  8
Front elevation
  0
SPLINE
  5
C4
330
17
100
AcDbEntity
  8
Front elevation
100
AcDbSpline
 70
0
 71
3
 72
14
 73
10
 74
0
 40
0.0
 40
0.0
 40
0.0
 40
0.0
 40
1.0
 40
1.0
 40
1.0
 40
2.0
 40
2.0
 40
2.0
 40
3.0
 40
3.0
 40
3.0
 40
3.0
 10
37.36220472440945
 20
13.228346456692918
 30
0.0
 10
37.182534902643255
 20
13.228346456692918
 30
0.0
 10
37.00599233073035
 20
13.18104201711914
 30
0.0
 10
36.8503937007874
 20
13.091207106236041
 30
0.0
 10
36.69479507084446
 20
13.001372195352957
 30
0.0
 10
36.565556938505324
 20
12.872134063013817
 30
0.0
 10
36.475722027622226
 20
12.716535433070874
 30
0.0
 10
36.38588711673913
 20
12.560936803127916
 30
0.0
 10
36.338582677165356
 20
12.384394231215012
 30
0.0
 10
36.338582677165356
 20
12.20472440944883
 30
0.0
  0
SPLINE
  5
C5
330
17
100
AcDbEntity
  8
Front elevation
100
AcDbSpline
 70
0
 71
3
 72
11
 73
7
 74
0
 40
0.0
 40
0.0
 40
0.0
 40
0.0
 40
1.0
 40
1.0
 40
1.0
 40
2.0
 40
2.0
 40
2.0
 40
2.0
 10
36.338582677165356
 20
12.20472440944883
 30
0.0
 10
32.224409448818896
 20
12.20472440944883
 30
0.0
 10
33.21181102362205
 20
10.866141732283467
 30
0.0
 10
28.11023622047244
 20
10.866141732283467
 30
0.0
 10
23.008661417322834
 20
10.866141732283467
 30
0.0
 10
23.996062992125985
 20
12.20472440944883
 30
0.0
 10
19.881889763779526
 20
12.20472440944883
 30
0.0
  0
SPLINE
  5
C6
330
17
100
AcDbEntity
  8
Front elevation
100
AcDbSpline
 70
0
 71
3
 72
14
 73
10
 74
0
 40
0.0
 40
0.0
 40
0.0
 40
0.0
 40
1.0
 40
1.0
 40
1.0
 40
2.0
 40
2.0
 40
2.0
 40
3.0
 40
3.0
 40
3.0
 40
3.0
 10
19.881889763779526
 20
12.20472440944883
 30
0.0
 10
19.881889763779526
 20
12.384394231215012
 30
0.0
 10
19.83458532420575
 20
12.560936803127916
 30
0.0
 10
19.744750413322652
 20
12.716535433070874
 30
0.0
 10
19.654915502439557
 20
12.872134063013817
 30
0.0
 10
19.525677370100425
 20
13.001372195352957
 30
0.0
 10
19.37007874015748
 20
13.091207106236041
 30
0.0
 10
19.214480110214534
 20
13.18104201711914
 30
0.0
 10
19.037937538301627
 20
13.228346456692918
 30
0.0
 10
18.858267716535433
 20
13.228346456692918
 30
0.0
  0
CIRCLE
  5
C7
330
17
100
AcDbEntity
  8
Front elevation
100
AcDbCircle
 10
18.960629921259844
 20
30.141732283464563
 30
0.0
 40
9.0
  0
CIRCLE
  5
C8
330
17
100
AcDbEntity
  8
Front elevation
100
AcDbCircle
 10
18.960629921259844
 20
30.141732283464563
 30
0.0
 40
3.6
  0
CIRCLE
  5
C9
330
17
100
AcDbEntity
  8
Front elevation
100
AcDbCircle
 10
37.25984251968504
 20
30.141732283464563
 30
0.0
 40
9.0
  0
CIRCLE
  5
CA
330
17
100
AcDbEntity
  8
Front elevation
100
AcDbCircle
 10
37.25984251968504
 20
30.141732283464563
 30
0.0
 40
3.6
  0
CIRCLE
  5
CB
330
17
100
AcDbEntity
  8
Front elevation
100
AcDbCircle
 10
18.960629921259844
 20
12.102362204724413
 30
0.0
 40
9.0
  0
CIRCLE
  5
CC
330
17
100
AcDbEntity
  8
Front elevation
100
AcDbCircle
 10
18.960629921259844
 20
12.102362204724413
 30
0.0
 40
3.6
  0
CIRCLE
  5
CD
330
17
100
AcDbEntity
  8
Front elevation
100
AcDbCircle
 10
37.25984251968504
 20
12.102362204724413
 30
0.0
 40
9.0
  0
CIRCLE
  5
CE
330
17
100
AcDbEntity
  8
Front elevation
100
AcDbCircle
 10
37.25984251968504
 20
12.102362204724413
 30
0.0
 40
3.6
  0
CIRCLE
  5
CF
330
17
100
AcDbEntity
  8
Front elevation
100
AcDbCircle
 10
18.228346456692915
 20
37.71653543307087
 30
0.0
 40
27.5
  0
CIRCLE
  5
D0
330
17
100
AcDbEntity
  8
Front elevation
100
AcDbCircle
 10
18.228346456692915
 20
37.71653543307087
 30
0.0
 40
17.5
  0
CIRCLE
  5
D1
330
17
100
AcDbEntity
  8
Front elevation
100
AcDbCircle
 10
14.763779527559056
 20
37.71653543307087
 30
0.0
 40
17.0
  0
SPLINE
  5
D2
330
17
100
AcDbEntity
  8
Front elevation
100
AcDbSpline
 70
0
 71
3
 72
35
 73
31
 74
0
 40
0.0
 40
0.0
 40
0.0
 40
0.0
 40
1.0
 40
1.0
 40
1.0
 40
2.0
 40
2.0
 40
2.0
 40
3.0
 40
3.0
 40
3.0
 40
4.0
 40
4.0
 40
4.0
 40
5.0
 40
5.0
 40
5.0
 40
6.0
 40
6.0
 40
6.0
 40
7.0
 40
7.0
 40
7.0
 40
8.0
 40
8.0
 40
8.0
 40
9.0
 40
9.0
 40
9.0
 40
10.0
 40
10.0
 40
10.0
 40
10.0
 10
14.645669291338582
 20
37.75590551181103
 30
0.0
 10
14.62433425001811
 20
37.774988152889165
 30
0.0
 10
14.60793830584452
 20
37.79896009865495
 30
0.0
 10
14.597889772044535
 20
37.825762302801884
 30
0.0
 10
14.58784123824455
 20
37.852564506948816
 30
0.0
 10
14.584436297853673
 20
37.8814069678368
 30
0.0
 10
14.587967414821396
 20
37.9098122911341
 30
0.0
 10
14.591498531789117
 20
37.938217614431395
 30
0.0
 10
14.601861625563682
 20
37.9653485461618
 30
0.0
 10
14.618166568569768
 20
37.98887470207882
 30
0.0
 10
14.634471511575853
 20
38.01240085799583
 30
0.0
 10
14.656237711558962
 20
38.031628798796554
 30
0.0
 10
14.681595582540576
 20
38.04490695973635
 30
0.0
 10
14.706953453522189
 20
38.05818512067615
 30
0.0
 10
14.735155565941852
 20
38.0651221246555
 30
0.0
 10
14.763779527559059
 20
38.0651221246555
 30
0.0
 10
14.792403489176266
 20
38.0651221246555
 30
0.0
 10
14.820605601595929
 20
38.05818512067615
 30
0.0
 10
14.845963472577543
 20
38.04490695973635
 30
0.0
 10
14.871321343559154
 20
38.031628798796554
 30
0.0
 10
14.893087543542261
 20
38.01240085799582
 30
0.0
 10
14.909392486548347
 20
37.98887470207881
 30
0.0
 10
14.92569742955443
 20
37.96534854616179
 30
0.0
 10
14.936060523328996
 20
37.93821761443139
 30
0.0
 10
14.939591640296715
 20
37.90981229113409
 30
0.0
 10
14.943122757264437
 20
37.881406967836796
 30
0.0
 10
14.939717816873557
 20
37.8525645069488
 30
0.0
 10
14.92966928307357
 20
37.82576230280188
 30
0.0
 10
14.919620749273586
 20
37.798960098654945
 30
0.0
 10
14.9032248051
 20
37.774988152889165
 30
0.0
 10
14.881889763779528
 20
37.75590551181103
 30
0.0
  0
POLYLINE
  5
D3
330
17
100
AcDbEntity
  8
Front elevation
100
AcDb2dPolyline
 66
1
 10
0.0
 20
0.0
 30
0.0
 70
0
  0
VERTEX
  5
D4
330
D3
100
AcDbEntity
  8
Front elevation
100
AcDbVertex
100
AcDb2dVertex
 10
14.881889763779528
 20
37.75590551181103
 30
0.0
 70
0
  0
VERTEX
  5
D5
330
D3
100
AcDbEntity
  8
Front elevation
100
AcDbVertex
100
AcDb2dVertex
 10
14.940944881889763
 20
37.322834645669296
 30
0.0
 70
0
  0
VERTEX
  5
D6
330
D3
100
AcDbEntity
  8
Front elevation
100
AcDbVertex
100
AcDb2dVertex
 10
14.586614173228346
 20
37.322834645669296
 30
0.0
 70
0
  0
VERTEX
  5
D7
330
D3
100
AcDbEntity
  8
Front elevation
100
AcDbVertex
100
AcDb2dVertex
 10
14.645669291338582
 20
37.75590551181103
 30
0.0
 70
0
  0
SEQEND
  5
D8
330
D3
100
AcDbEntity
  8
Front elevation
  0
LINE
  5
D9
330
17
100
AcDbEntity
  8
Front elevation
100
AcDbLine
 10
0.0
 20
0.0
 30
0.0
 11
56.22047244094488
 21
0.0
 31
0.0
  0
TEXT
  5
DA
330
17
100
AcDbEntity
  8
LABELS
100
AcDbText
 10
0.0
 20
99.37007874015748
 30
0.0
 40
1.1244094488188978
  1
FRONT ELEVATION  (1:1, inches)
 11
0.0
 21
99.37007874015748
 31
0.0
100
AcDbText
  0
LWPOLYLINE
  5
DD
330
17
100
AcDbEntity
  8
Panel head - detail A
100
AcDbPolyline
 90
2
 70
0
 10
67.83464566929133
 20
8.937007874015748
 10
67.83464566929133
 20
7.362204724409449
  0
LWPOLYLINE
  5
DE
330
17
100
AcDbEntity
  8
Panel head - detail A
100
AcDbPolyline
 90
2
 70
0
 10
89.96062992125984
 20
8.937007874015748
 10
89.96062992125984
 20
7.362204724409449
  0
LWPOLYLINE
  5
DF
330
17
100
AcDbEntity
  8
Panel head - detail A
100
AcDbPolyline
 90
3
 70
0
 10
67.83464566929133
 20
7.362204724409449
 10
89.96062992125984
 20
7.362204724409449
 10
89.96062992125984
 20
0.47244094488188976
  0
LWPOLYLINE
  5
E0
330
17
100
AcDbEntity
  8
Panel head - detail A
100
AcDbPolyline
 90
2
 70
0
 10
67.83464566929133
 20
0.47244094488188976
 10
67.83464566929133
 20
7.362204724409449
  0
LWPOLYLINE
  5
E1
330
17
100
AcDbEntity
  8
Panel head - detail A
100
AcDbPolyline
 90
3
 70
0
 10
68.62204724409449
 20
6.574803149606299
 10
89.1732283464567
 20
6.574803149606299
 10
89.1732283464567
 20
0.47244094488188976
  0
LWPOLYLINE
  5
E2
330
17
100
AcDbEntity
  8
Panel head - detail A
100
AcDbPolyline
 90
2
 70
0
 10
68.62204724409449
 20
0.47244094488188976
 10
68.62204724409449
 20
6.574803149606299
  0
LWPOLYLINE
  5
E3
330
17
100
AcDbEntity
  8
Panel head - detail A
100
AcDbPolyline
 90
2
 70
0
 10
67.83464566929133
 20
7.362204724409449
 10
68.62204724409449
 20
6.574803149606299
  0
LWPOLYLINE
  5
E4
330
17
100
AcDbEntity
  8
Panel head - detail A
100
AcDbPolyline
 90
2
 70
0
 10
89.96062992125984
 20
7.362204724409449
 10
89.1732283464567
 20
6.574803149606299
  0
LWPOLYLINE
  5
E5
330
17
100
AcDbEntity
  8
Panel head - detail A
100
AcDbPolyline
 90
79
 70
0
 10
69.64566929133858
 20
0.47244094488188976
 10
69.64566929133858
 20
3.188976377952756
 10
69.7795569125014
 20
3.1977713671187074
 10
69.91060150008333
 20
3.2238579616000314
 10
70.03713273919837
 20
3.2667886018719368
 10
70.15748031496062
 20
3.32611572840963
 10
70.26903290155693
 20
3.4006762230347682
 10
70.36947754619067
 20
3.4887901703447732
 10
70.45759149350066
 20
3.5892348149785
 10
70.5321519881258
 20
3.7007874015748032
 10
70.5914791146635
 20
3.8211349773370578
 10
70.6344097549354
 20
3.9476662164521086
 10
70.66049634941673
 20
4.07871080403402
 10
70.66929133858268
 20
4.21259842519685
 10
71.04039056732898
 20
4.216438353531004
 10
71.38364680733268
 20
4.227631336122047
 10
71.70110910971333
 20
4.245687169352855
 10
71.99482652559055
 20
4.270115649606299
 10
72.26684810608391
 20
4.300426573265256
 10
72.51922290231299
 20
4.336129736712598
 10
72.75399996539738
 20
4.376734936331201
 10
72.9732283464567
 20
4.421751968503937
 10
73.17895709661049
 20
4.4706906296136815
 10
73.37323526697834
 20
4.523060716043307
 10
73.73563607283464
 20
4.636134350393701
 10
74.41318897637795
 20
4.881889763779528
 10
74.76112589197834
 20
5.0067282849409445
 10
75.13702632874016
 20
5.127645177165355
 10
75.34058549535555
 20
5.185407503383366
 10
75.55728269562007
 20
5.240718811515748
 10
75.78916698065329
 20
5.293088897945374
 10
76.0382874015748
 20
5.342027559055118
 10
76.30669300950419
 20
5.387044591227855
 10
76.59643285556102
 20
5.4276497908464565
 10
76.90955599086492
 20
5.463352954293799
 10
77.24811146653543
 20
5.493663877952756
 10
77.61414833369219
 20
5.518092358206201
 10
78.00971564345473
 20
5.536148191437007
 10
78.43686244694267
 20
5.547341174028051
 10
78.89763779527559
 20
5.551181102362205
 10
79.35841314360852
 20
5.547341174028051
 10
79.78555994709646
 20
5.536148191437007
 10
80.181127256859
 20
5.518092358206201
 10
80.54716412401575
 20
5.493663877952756
 10
80.88571959968627
 20
5.463352954293799
 10
81.19884273499015
 20
5.4276497908464565
 10
81.488582581047
 20
5.387044591227855
 10
81.75698818897638
 20
5.342027559055118
 10
82.00610860989788
 20
5.293088897945374
 10
82.2379928949311
 20
5.240718811515748
 10
82.45469009519562
 20
5.185407503383366
 10
82.65824926181102
 20
5.127645177165355
 10
83.03414969857283
 20
5.0067282849409445
 10
83.38208661417323
 20
4.881889763779528
 10
84.05963951771653
 20
4.636134350393701
 10
84.42204032357283
 20
4.523060716043307
 10
84.61631849394071
 20
4.4706906296136815
 10
84.82204724409449
 20
4.421751968503937
 10
85.04127562515379
 20
4.376734936331201
 10
85.2760526882382
 20
4.336129736712598
 10
85.52842748446727
 20
4.300426573265256
 10
85.80044906496062
 20
4.270115649606299
 10
86.09416648083784
 20
4.245687169352855
 10
86.4116287832185
 20
4.227631336122047
 10
86.75488502322219
 20
4.216438353531004
 10
87.1259842519685
 20
4.21259842519685
 10
87.13477924113445
 20
4.07871080403402
 10
87.1608658356158
 20
3.9476662164521086
 10
87.20379647588769
 20
3.8211349773370578
 10
87.26312360242538
 20
3.7007874015748032
 10
87.33768409705053
 20
3.5892348149785
 10
87.42579804436052
 20
3.4887901703447732
 10
87.52624268899424
 20
3.4006762230347682
 10
87.63779527559055
 20
3.32611572840963
 10
87.7581428513528
 20
3.2667886018719368
 10
87.88467409046785
 20
3.2238579616000314
 10
88.01571867804977
 20
3.1977713671187074
 10
88.14960629921259
 20
3.188976377952756
 10
88.14960629921259
 20
0.47244094488188976
  0
LWPOLYLINE
  5
E6
330
17
100
AcDbEntity
  8
Panel head - detail A
100
AcDbPolyline
 90
49
 70
0
 10
70.1023622047244
 20
4.314960629921259
 10
70.09931778539773
 20
4.268614914903356
 10
70.09028781038496
 20
4.223253326894234
 10
70.075427204137
 20
4.179454051815947
 10
70.05489089110472
 20
4.137795275590551
 10
70.0290814891191
 20
4.0991809186918315
 10
69.99858050735794
 20
4.06441161862631
 10
69.96381120729242
 20
4.033910636865155
 10
69.92519685039369
 20
4.008101234879529
 10
69.8835380741683
 20
3.9875649218472504
 10
69.83973879909001
 20
3.9727043155992834
 10
69.7943772110809
 20
3.9636743405865174
 10
69.74803149606299
 20
3.960629921259842
 10
69.70168578104509
 20
3.9636743405865174
 10
69.65632419303597
 20
3.9727043155992834
 10
69.61252491795767
 20
3.9875649218472504
 10
69.57086614173228
 20
4.008101234879529
 10
69.53225178483356
 20
4.033910636865155
 10
69.49748248476804
 20
4.06441161862631
 10
69.46698150300689
 20
4.0991809186918315
 10
69.44117210102127
 20
4.137795275590551
 10
69.42063578798899
 20
4.179454051815947
 10
69.405775181741
 20
4.223253326894234
 10
69.39674520672824
 20
4.268614914903356
 10
69.39370078740157
 20
4.314960629921259
 10
69.39674520672824
 20
4.3613063449391625
 10
69.405775181741
 20
4.406667932948285
 10
69.42063578798899
 20
4.450467208026572
 10
69.44117210102127
 20
4.4921259842519685
 10
69.46698150300689
 20
4.530740341150688
 10
69.49748248476804
 20
4.565509641216209
 10
69.53225178483356
 20
4.5960106229773645
 10
69.57086614173228
 20
4.6218200249629895
 10
69.61252491795767
 20
4.642356337995269
 10
69.65632419303597
 20
4.657216944243236
 10
69.70168578104509
 20
4.666246919256001
 10
69.74803149606299
 20
4.669291338582677
 10
69.7943772110809
 20
4.666246919256001
 10
69.83973879909001
 20
4.657216944243236
 10
69.8835380741683
 20
4.642356337995269
 10
69.92519685039369
 20
4.6218200249629895
 10
69.96381120729242
 20
4.5960106229773645
 10
69.99858050735794
 20
4.565509641216209
 10
70.0290814891191
 20
4.530740341150688
 10
70.05489089110472
 20
4.4921259842519685
 10
70.075427204137
 20
4.450467208026572
 10
70.09028781038496
 20
4.406667932948285
 10
70.09931778539773
 20
4.3613063449391625
 10
70.1023622047244
 20
4.314960629921259
  0
LWPOLYLINE
  5
E7
330
17
100
AcDbEntity
  8
Panel head - detail A
100
AcDbPolyline
 90
49
 70
0
 10
69.88976377952756
 20
4.314960629921259
 10
69.88854601179689
 20
4.2964223439141
 10
69.88493402179178
 20
4.2782777087104495
 10
69.8789897792926
 20
4.260757998679135
 10
69.87077525407969
 20
4.244094488188977
 10
69.86045149328542
 20
4.2286487454294885
 10
69.84825110058097
 20
4.21474102540328
 10
69.83434338055477
 20
4.202540632698818
 10
69.81889763779527
 20
4.192216871904568
 10
69.80223412730511
 20
4.184002346691656
 10
69.7847144172738
 20
4.17805810419247
 10
69.76656978207015
 20
4.174446114187362
 10
69.74803149606299
 20
4.173228346456693
 10
69.72949321005584
 20
4.174446114187362
 10
69.71134857485218
 20
4.17805810419247
 10
69.69382886482086
 20
4.184002346691656
 10
69.67716535433071
 20
4.192216871904568
 10
69.66171961157121
 20
4.202540632698818
 10
69.64781189154502
 20
4.21474102540328
 10
69.63561149884055
 20
4.2286487454294885
 10
69.6252877380463
 20
4.244094488188976
 10
69.61707321283339
 20
4.260757998679134
 10
69.61112897033419
 20
4.2782777087104495
 10
69.6075169803291
 20
4.296422343914098
 10
69.60629921259843
 20
4.314960629921259
 10
69.6075169803291
 20
4.33349891592842
 10
69.61112897033419
 20
4.35164355113207
 10
69.61707321283339
 20
4.369163261163384
 10
69.6252877380463
 20
4.385826771653543
 10
69.63561149884055
 20
4.401272514413031
 10
69.64781189154502
 20
4.415180234439239
 10
69.66171961157121
 20
4.427380627143701
 10
69.67716535433071
 20
4.437704387937951
 10
69.69382886482086
 20
4.445918913150862
 10
69.71134857485218
 20
4.45186315565005
 10
69.72949321005584
 20
4.455475145655156
 10
69.74803149606299
 20
4.456692913385826
 10
69.76656978207015
 20
4.455475145655156
 10
69.7847144172738
 20
4.45186315565005
 10
69.80223412730511
 20
4.445918913150862
 10
69.81889763779527
 20
4.437704387937951
 10
69.83434338055477
 20
4.427380627143701
 10
69.84825110058097
 20
4.415180234439239
 10
69.86045149328542
 20
4.401272514413031
 10
69.87077525407969
 20
4.3858267716535435
 10
69.8789897792926
 20
4.369163261163385
 10
69.88493402179178
 20
4.35164355113207
 10
69.88854601179689
 20
4.333498915928421
 10
69.88976377952756
 20
4.314960629921259
  0
LWPOLYLINE
  5
E8
330
17
100
AcDbEntity
  8
Panel head - detail A
100
AcDbPolyline
 90
49
 70
0
 10
88.40157480314961
 20
4.314960629921259
 10
88.39853038382293
 20
4.268614914903356
 10
88.38950040881016
 20
4.223253326894234
 10
88.37463980256219
 20
4.179454051815947
 10
88.35410348952992
 20
4.137795275590551
 10
88.3282940875443
 20
4.0991809186918315
 10
88.29779310578314
 20
4.06441161862631
 10
88.26302380571762
 20
4.033910636865155
 10
88.2244094488189
 20
4.008101234879529
 10
88.1827506725935
 20
3.9875649218472504
 10
88.1389513975152
 20
3.9727043155992834
 10
88.0935898095061
 20
3.9636743405865174
 10
88.04724409448819
 20
3.960629921259842
 10
88.00089837947029
 20
3.9636743405865174
 10
87.95553679146116
 20
3.9727043155992834
 10
87.91173751638287
 20
3.9875649218472504
 10
87.87007874015748
 20
4.008101234879529
 10
87.83146438325876
 20
4.033910636865155
 10
87.79669508319324
 20
4.06441161862631
 10
87.76619410143208
 20
4.0991809186918315
 10
87.74038469944647
 20
4.137795275590551
 10
87.71984838641417
 20
4.179454051815947
 10
87.70498778016622
 20
4.223253326894234
 10
87.69595780515345
 20
4.268614914903356
 10
87.69291338582677
 20
4.314960629921259
 10
87.69595780515345
 20
4.3613063449391625
 10
87.70498778016622
 20
4.406667932948285
 10
87.71984838641417
 20
4.450467208026572
 10
87.74038469944647
 20
4.4921259842519685
 10
87.76619410143208
 20
4.530740341150688
 10
87.79669508319323
 20
4.565509641216209
 10
87.83146438325876
 20
4.5960106229773645
 10
87.87007874015748
 20
4.6218200249629895
 10
87.91173751638287
 20
4.642356337995269
 10
87.95553679146116
 20
4.657216944243236
 10
88.00089837947029
 20
4.666246919256001
 10
88.04724409448819
 20
4.669291338582677
 10
88.0935898095061
 20
4.666246919256001
 10
88.1389513975152
 20
4.657216944243236
 10
88.1827506725935
 20
4.642356337995269
 10
88.2244094488189
 20
4.6218200249629895
 10
88.26302380571762
 20
4.5960106229773645
 10
88.29779310578314
 20
4.565509641216209
 10
88.3282940875443
 20
4.530740341150688
 10
88.35410348952992
 20
4.4921259842519685
 10
88.37463980256219
 20
4.450467208026572
 10
88.38950040881015
 20
4.406667932948285
 10
88.39853038382293
 20
4.3613063449391625
 10
88.40157480314961
 20
4.314960629921259
  0
LWPOLYLINE
  5
E9
330
17
100
AcDbEntity
  8
Panel head - detail A
100
AcDbPolyline
 90
49
 70
0
 10
88.18897637795276
 20
4.314960629921259
 10
88.18775861022209
 20
4.2964223439141
 10
88.18414662021698
 20
4.2782777087104495
 10
88.1782023777178
 20
4.260757998679135
 10
88.16998785250489
 20
4.244094488188977
 10
88.15966409171062
 20
4.2286487454294885
 10
88.14746369900618
 20
4.21474102540328
 10
88.13355597897996
 20
4.202540632698818
 10
88.11811023622046
 20
4.192216871904568
 10
88.10144672573031
 20
4.184002346691656
 10
88.08392701569899
 20
4.17805810419247
 10
88.06578238049536
 20
4.174446114187362
 10
88.04724409448819
 20
4.173228346456693
 10
88.02870580848102
 20
4.174446114187362
 10
88.0105611732774
 20
4.17805810419247
 10
87.99304146324607
 20
4.184002346691656
 10
87.9763779527559
 20
4.192216871904568
 10
87.96093220999643
 20
4.202540632698818
 10
87.9470244899702
 20
4.21474102540328
 10
87.93482409726575
 20
4.2286487454294885
 10
87.9245003364715
 20
4.244094488188976
 10
87.91628581125858
 20
4.260757998679134
 10
87.9103415687594
 20
4.2782777087104495
 10
87.9067295787543
 20
4.296422343914098
 10
87.90551181102363
 20
4.314960629921259
 10
87.9067295787543
 20
4.33349891592842
 10
87.9103415687594
 20
4.35164355113207
 10
87.91628581125858
 20
4.369163261163384
 10
87.9245003364715
 20
4.385826771653543
 10
87.93482409726575
 20
4.401272514413031
 10
87.9470244899702
 20
4.415180234439239
 10
87.9609322099964
 20
4.427380627143701
 10
87.9763779527559
 20
4.437704387937951
 10
87.99304146324607
 20
4.445918913150862
 10
88.01056117327737
 20
4.45186315565005
 10
88.02870580848102
 20
4.455475145655156
 10
88.04724409448819
 20
4.456692913385826
 10
88.06578238049534
 20
4.455475145655156
 10
88.08392701569899
 20
4.45186315565005
 10
88.1014467257303
 20
4.445918913150862
 10
88.11811023622046
 20
4.437704387937951
 10
88.13355597897996
 20
4.427380627143701
 10
88.14746369900617
 20
4.415180234439239
 10
88.15966409171062
 20
4.401272514413031
 10
88.16998785250489
 20
4.3858267716535435
 10
88.1782023777178
 20
4.369163261163385
 10
88.18414662021698
 20
4.35164355113207
 10
88.18775861022209
 20
4.333498915928421
 10
88.18897637795276
 20
4.314960629921259
  0
LWPOLYLINE
  5
EA
330
17
100
AcDbEntity
  8
Panel head - detail A
100
AcDbPolyline
 90
6
 70
0
 10
66.06299212598425
 20
0.4724409448818889
 10
78.4251968503937
 20
0.4724409448818889
 10
78.74015748031496
 20
0.9448818897637796
 10
79.05511811023622
 20
0.0
 10
79.37007874015748
 20
0.4724409448818889
 10
91.73228346456693
 20
0.4724409448818889
  0
TEXT
  5
EB
330
17
100
AcDbEntity
  8
LABELS
100
AcDbText
 10
66.06299212598425
 20
11.299212598425196
 30
0.0
 40
0.7086614173228346
  1
PANEL HEAD - DETAIL A  (1:1, inches)
 11
66.06299212598425
 21
11.299212598425196
 31
0.0
100
AcDbText
  0
POLYLINE
  5
EE
330
17
100
AcDbEntity
  8
Section B-B
100
AcDb2dPolyline
 66
1
 10
0.0
 20
0.0
 30
0.0
 70
0
  0
VERTEX
  5
EF
330
EE
100
AcDbEntity
  8
Section B-B
100
AcDbVertex
100
AcDb2dVertex
 10
101.5748031496063
 20
1.7716535433070866
 30
0.0
 70
0
  0
VERTEX
  5
F0
330
EE
100
AcDbEntity
  8
Section B-B
100
AcDbVertex
100
AcDb2dVertex
 10
104.72440944881889
 20
1.7716535433070866
 30
0.0
 70
0
  0
VERTEX
  5
F1
330
EE
100
AcDbEntity
  8
Section B-B
100
AcDbVertex
100
AcDb2dVertex
 10
104.72440944881889
 20
1.6929133858267715
 30
0.0
 70
0
  0
SEQEND
  5
F2
330
EE
100
AcDbEntity
  8
Section B-B
  0
SPLINE
  5
F3
330
17
100
AcDbEntity
  8
Section B-B
100
AcDbSpline
 70
0
 71
3
 72
8
 73
4
 74
0
 40
0.0
 40
0.0
 40
0.0
 40
0.0
 40
1.0
 40
1.0
 40
1.0
 40
1.0
 10
104.72440944881889
 20
1.6929133858267715
 30
0.0
 10
105.249343832021
 20
1.6929133858267715
 30
0.0
 10
105.51181102362204
 20
1.5419947506561678
 30
0.0
 10
105.51181102362204
 20
1.2401574803149606
 30
0.0
  0
POLYLINE
  5
F4
330
17
100
AcDbEntity
  8
Section B-B
100
AcDb2dPolyline
 66
1
 10
0.0
 20
0.0
 30
0.0
 70
0
  0
VERTEX
  5
F5
330
F4
100
AcDbEntity
  8
Section B-B
100
AcDbVertex
100
AcDb2dVertex
 10
105.51181102362204
 20
1.2401574803149606
 30
0.0
 70
0
  0
VERTEX
  5
F6
330
F4
100
AcDbEntity
  8
Section B-B
100
AcDbVertex
100
AcDb2dVertex
 10
105.51181102362204
 20
0.5314960629921259
 30
0.0
 70
0
  0
SEQEND
  5
F7
330
F4
100
AcDbEntity
  8
Section B-B
  0
SPLINE
  5
F8
330
17
100
AcDbEntity
  8
Section B-B
100
AcDbSpline
 70
0
 71
3
 72
8
 73
4
 74
0
 40
0.0
 40
0.0
 40
0.0
 40
0.0
 40
1.0
 40
1.0
 40
1.0
 40
1.0
 10
105.51181102362204
 20
0.5314960629921259
 30
0.0
 10
105.51181102362204
 20
0.2296587926509187
 30
0.0
 10
105.249343832021
 20
0.07874015748031504
 30
0.0
 10
104.72440944881889
 20
0.07874015748031504
 30
0.0
  0
POLYLINE
  5
F9
330
17
100
AcDbEntity
  8
Section B-B
100
AcDb2dPolyline
 66
1
 10
0.0
 20
0.0
 30
0.0
 70
0
  0
VERTEX
  5
FA
330
F9
100
AcDbEntity
  8
Section B-B
100
AcDbVertex
100
AcDb2dVertex
 10
104.72440944881889
 20
0.07874015748031504
 30
0.0
 70
0
  0
VERTEX
  5
FB
330
F9
100
AcDbEntity
  8
Section B-B
100
AcDbVertex
100
AcDb2dVertex
 10
104.72440944881889
 20
0.0
 30
0.0
 70
0
  0
VERTEX
  5
FC
330
F9
100
AcDbEntity
  8
Section B-B
100
AcDbVertex
100
AcDb2dVertex
 10
101.5748031496063
 20
0.0
 30
0.0
 70
0
  0
VERTEX
  5
FD
330
F9
100
AcDbEntity
  8
Section B-B
100
AcDbVertex
100
AcDb2dVertex
 10
101.5748031496063
 20
1.7716535433070866
 30
0.0
 70
0
  0
SEQEND
  5
FE
330
F9
100
AcDbEntity
  8
Section B-B
  0
LWPOLYLINE
  5
FF
330
17
100
AcDbEntity
  8
Section B-B
  6
DASHED
100
AcDbPolyline
 90
5
 70
0
 10
105.51181102362204
 20
1.2401574803149606
 10
105.98425196850394
 20
1.2401574803149606
 10
105.98425196850394
 20
0.5314960629921259
 10
105.51181102362204
 20
0.5314960629921259
 10
105.51181102362204
 20
1.2401574803149606
  0
POLYLINE
  5
100
330
17
100
AcDbEntity
  8
Section B-B
100
AcDb2dPolyline
 66
1
 10
0.0
 20
0.0
 30
0.0
 70
0
  0
VERTEX
  5
101
330
100
100
AcDbEntity
  8
Section B-B
100
AcDbVertex
100
AcDb2dVertex
 10
131.57480314960628
 20
1.7716535433070866
 30
0.0
 70
0
  0
VERTEX
  5
102
330
100
100
AcDbEntity
  8
Section B-B
100
AcDbVertex
100
AcDb2dVertex
 10
128.4251968503937
 20
1.7716535433070866
 30
0.0
 70
0
  0
VERTEX
  5
103
330
100
100
AcDbEntity
  8
Section B-B
100
AcDbVertex
100
AcDb2dVertex
 10
128.4251968503937
 20
1.6929133858267715
 30
0.0
 70
0
  0
SEQEND
  5
104
330
100
100
AcDbEntity
  8
Section B-B
  0
SPLINE
  5
105
330
17
100
AcDbEntity
  8
Section B-B
100
AcDbSpline
 70
0
 71
3
 72
8
 73
4
 74
0
 40
0.0
 40
0.0
 40
0.0
 40
0.0
 40
1.0
 40
1.0
 40
1.0
 40
1.0
 10
128.4251968503937
 20
1.6929133858267715
 30
0.0
 10
127.9002624671916
 20
1.6929133858267715
 30
0.0
 10
127.63779527559055
 20
1.5419947506561678
 30
0.0
 10
127.63779527559055
 20
1.2401574803149606
 30
0.0
  0
POLYLINE
  5
106
330
17
100
AcDbEntity
  8
Section B-B
100
AcDb2dPolyline
 66
1
 10
0.0
 20
0.0
 30
0.0
 70
0
  0
VERTEX
  5
107
330
106
100
AcDbEntity
  8
Section B-B
100
AcDbVertex
100
AcDb2dVertex
 10
127.63779527559055
 20
1.2401574803149606
 30
0.0
 70
0
  0
VERTEX
  5
108
330
106
100
AcDbEntity
  8
Section B-B
100
AcDbVertex
100
AcDb2dVertex
 10
127.63779527559055
 20
0.5314960629921259
 30
0.0
 70
0
  0
SEQEND
  5
109
330
106
100
AcDbEntity
  8
Section B-B
  0
SPLINE
  5
10A
330
17
100
AcDbEntity
  8
Section B-B
100
AcDbSpline
 70
0
 71
3
 72
8
 73
4
 74
0
 40
0.0
 40
0.0
 40
0.0
 40
0.0
 40
1.0
 40
1.0
 40
1.0
 40
1.0
 10
127.63779527559055
 20
0.5314960629921259
 30
0.0
 10
127.63779527559055
 20
0.2296587926509187
 30
0.0
 10
127.9002624671916
 20
0.07874015748031504
 30
0.0
 10
128.4251968503937
 20
0.07874015748031504
 30
0.0
  0
POLYLINE
  5
10B
330
17
100
AcDbEntity
  8
Section B-B
100
AcDb2dPolyline
 66
1
 10
0.0
 20
0.0
 30
0.0
 70
0
  0
VERTEX
  5
10C
330
10B
100
AcDbEntity
  8
Section B-B
100
AcDbVertex
100
AcDb2dVertex
 10
128.4251968503937
 20
0.07874015748031504
 30
0.0
 70
0
  0
VERTEX
  5
10D
330
10B
100
AcDbEntity
  8
Section B-B
100
AcDbVertex
100
AcDb2dVertex
 10
128.4251968503937
 20
0.0
 30
0.0
 70
0
  0
VERTEX
  5
10E
330
10B
100
AcDbEntity
  8
Section B-B
100
AcDbVertex
100
AcDb2dVertex
 10
131.57480314960628
 20
0.0
 30
0.0
 70
0
  0
VERTEX
  5
10F
330
10B
100
AcDbEntity
  8
Section B-B
100
AcDbVertex
100
AcDb2dVertex
 10
131.57480314960628
 20
1.7716535433070866
 30
0.0
 70
0
  0
SEQEND
  5
110
330
10B
100
AcDbEntity
  8
Section B-B
  0
LWPOLYLINE
  5
111
330
17
100
AcDbEntity
  8
Section B-B
  6
DASHED
100
AcDbPolyline
 90
5
 70
0
 10
127.16535433070865
 20
1.2401574803149606
 10
127.63779527559055
 20
1.2401574803149606
 10
127.63779527559055
 20
0.5314960629921259
 10
127.16535433070865
 20
0.5314960629921259
 10
127.16535433070865
 20
1.2401574803149606
  0
LWPOLYLINE
  5
112
330
17
100
AcDbEntity
  8
Section B-B
100
AcDbPolyline
 90
5
 70
0
 10
105.55118110236221
 20
1.2401574803149606
 10
127.59842519685039
 20
1.2401574803149606
 10
127.59842519685039
 20
0.5314960629921259
 10
105.55118110236221
 20
0.5314960629921259
 10
105.55118110236221
 20
1.2401574803149606
  0
LWPOLYLINE
  5
113
330
17
100
AcDbEntity
  8
Section B-B
100
AcDbPolyline
 90
3
 70
0
 10
107.20472440944881
 20
1.2401574803149606
 10
107.32283464566929
 20
1.141732283464567
 10
107.44094488188976
 20
1.2401574803149606
  0
LWPOLYLINE
  5
114
330
17
100
AcDbEntity
  8
Section B-B
100
AcDbPolyline
 90
3
 70
0
 10
125.70866141732283
 20
1.2401574803149606
 10
125.8267716535433
 20
1.141732283464567
 10
125.94488188976378
 20
1.2401574803149606
  0
TEXT
  5
115
330
17
100
AcDbEntity
  8
LABELS
100
AcDbText
 10
101.5748031496063
 20
4.133858267716535
 30
0.0
 40
0.7086614173228346
  1
SECTION B-B  (1:1, inches)
 11
101.5748031496063
 21
4.133858267716535
 31
0.0
100
AcDbText
  0
LWPOLYLINE
  5
118
330
17
100
AcDbEntity
  8
Lock rail - detail C
100
AcDbPolyline
 90
2
 70
0
 10
171.81102362204723
 20
13.779527559055119
 10
171.81102362204723
 20
0.0
  0
LWPOLYLINE
  5
119
330
17
100
AcDbEntity
  8
Lock rail - detail C
100
AcDbPolyline
 90
2
 70
0
 10
141.81102362204723
 20
0.0
 10
141.81102362204723
 20
13.779527559055119
  0
LWPOLYLINE
  5
11A
330
17
100
AcDbEntity
  8
Lock rail - detail C
100
AcDbPolyline
 90
2
 70
0
 10
145.748031496063
 20
11.417322834645669
 10
145.748031496063
 20
2.3622047244094486
  0
LWPOLYLINE
  5
11B
330
17
100
AcDbEntity
  8
Lock rail - detail C
100
AcDbPolyline
 90
2
 70
0
 10
167.8740157480315
 20
11.417322834645669
 10
167.8740157480315
 20
2.3622047244094486
  0
LWPOLYLINE
  5
11C
330
17
100
AcDbEntity
  8
Lock rail - detail C
100
AcDbPolyline
 90
4
 70
0
 10
167.8740157480315
 20
13.779527559055119
 10
167.8740157480315
 20
11.417322834645669
 10
145.748031496063
 20
11.417322834645669
 10
145.748031496063
 20
13.779527559055119
  0
LWPOLYLINE
  5
11D
330
17
100
AcDbEntity
  8
Lock rail - detail C
100
AcDbPolyline
 90
4
 70
0
 10
167.08661417322836
 20
13.779527559055119
 10
167.08661417322836
 20
12.204724409448819
 10
146.53543307086613
 20
12.204724409448819
 10
146.53543307086613
 20
13.779527559055119
  0
LWPOLYLINE
  5
11E
330
17
100
AcDbEntity
  8
Lock rail - detail C
100
AcDbPolyline
 90
2
 70
0
 10
145.748031496063
 20
11.417322834645669
 10
146.53543307086613
 20
12.204724409448819
  0
LWPOLYLINE
  5
11F
330
17
100
AcDbEntity
  8
Lock rail - detail C
100
AcDbPolyline
 90
2
 70
0
 10
167.8740157480315
 20
11.417322834645669
 10
167.08661417322836
 20
12.204724409448819
  0
LWPOLYLINE
  5
120
330
17
100
AcDbEntity
  8
Lock rail - detail C
100
AcDbPolyline
 90
29
 70
0
 10
160.96628789991487
 20
13.779527559055119
 10
160.94753552534448
 20
13.772799274114172
 10
160.57163508858267
 20
13.651882381889763
 10
160.36807592196726
 20
13.594120055671752
 10
160.15137872170274
 20
13.53880874753937
 10
159.91949443666954
 20
13.486438661109744
 10
159.67037401574802
 20
13.4375
 10
159.40196840781866
 20
13.392482967827263
 10
159.1122285617618
 20
13.351877768208661
 10
158.7991054264579
 20
13.316174604761319
 10
158.4605499507874
 20
13.285863681102361
 10
158.09451308363066
 20
13.261435200848917
 10
157.6989457738681
 20
13.24337936761811
 10
157.27179897038016
 20
13.232186385027067
 10
156.81102362204723
 20
13.228346456692913
 10
156.35024827371433
 20
13.232186385027067
 10
155.92310147022638
 20
13.24337936761811
 10
155.52753416046383
 20
13.261435200848917
 10
155.1614972933071
 20
13.285863681102361
 10
154.82294181763658
 20
13.316174604761319
 10
154.50981868233268
 20
13.351877768208661
 10
154.22007883627583
 20
13.392482967827263
 10
153.95167322834646
 20
13.4375
 10
153.70255280742495
 20
13.486438661109744
 10
153.47066852239175
 20
13.53880874753937
 10
153.25397132212723
 20
13.594120055671752
 10
153.05041215551182
 20
13.651882381889763
 10
152.67451171875
 20
13.772799274114172
 10
152.6557593441796
 20
13.779527559055119
  0
LWPOLYLINE
  5
121
330
17
100
AcDbEntity
  8
Lock rail - detail C
100
AcDbPolyline
 90
3
 70
0
 10
145.748031496063
 20
2.3622047244094486
 10
167.8740157480315
 20
2.3622047244094486
 10
167.8740157480315
 20
0.0
  0
LWPOLYLINE
  5
122
330
17
100
AcDbEntity
  8
Lock rail - detail C
100
AcDbPolyline
 90
2
 70
0
 10
145.748031496063
 20
0.0
 10
145.748031496063
 20
2.3622047244094486
  0
LWPOLYLINE
  5
123
330
17
100
AcDbEntity
  8
Lock rail - detail C
100
AcDbPolyline
 90
3
 70
0
 10
146.53543307086613
 20
1.574803149606299
 10
167.08661417322836
 20
1.574803149606299
 10
167.08661417322836
 20
0.0
  0
LWPOLYLINE
  5
124
330
17
100
AcDbEntity
  8
Lock rail - detail C
100
AcDbPolyline
 90
2
 70
0
 10
146.53543307086613
 20
0.0
 10
146.53543307086613
 20
1.574803149606299
  0
LWPOLYLINE
  5
125
330
17
100
AcDbEntity
  8
Lock rail - detail C
100
AcDbPolyline
 90
2
 70
0
 10
145.748031496063
 20
2.3622047244094486
 10
146.53543307086613
 20
1.574803149606299
  0
LWPOLYLINE
  5
126
330
17
100
AcDbEntity
  8
Lock rail - detail C
100
AcDbPolyline
 90
2
 70
0
 10
167.8740157480315
 20
2.3622047244094486
 10
167.08661417322836
 20
1.574803149606299
  0
LWPOLYLINE
  5
127
330
17
100
AcDbEntity
  8
Lock rail - detail C
100
AcDbPolyline
 90
29
 70
0
 10
152.6557593441796
 20
0.0
 10
152.67451171875
 20
0.006728284940944882
 10
153.05041215551182
 20
0.12764517716535434
 10
153.25397132212723
 20
0.18540750338336615
 10
153.47066852239175
 20
0.24071881151574803
 10
153.70255280742495
 20
0.293088897945374
 10
153.95167322834646
 20
0.3420275590551181
 10
154.22007883627583
 20
0.38704459122785434
 10
154.50981868233268
 20
0.4276497908464567
 10
154.82294181763658
 20
0.4633529542937992
 10
155.1614972933071
 20
0.4936638779527559
 10
155.52753416046383
 20
0.5180923582062008
 10
155.92310147022638
 20
0.5361481914370079
 10
156.35024827371433
 20
0.5473411740280512
 10
156.81102362204723
 20
0.5511811023622047
 10
157.27179897038016
 20
0.5473411740280512
 10
157.6989457738681
 20
0.5361481914370079
 10
158.09451308363066
 20
0.5180923582062008
 10
158.4605499507874
 20
0.4936638779527559
 10
158.7991054264579
 20
0.4633529542937992
 10
159.1122285617618
 20
0.4276497908464567
 10
159.40196840781866
 20
0.38704459122785434
 10
159.67037401574802
 20
0.3420275590551181
 10
159.91949443666954
 20
0.293088897945374
 10
160.15137872170274
 20
0.24071881151574803
 10
160.36807592196726
 20
0.18540750338336615
 10
160.57163508858267
 20
0.12764517716535434
 10
160.94753552534448
 20
0.006728284940944882
 10
160.96628789991487
 20
0.0
  0
LWPOLYLINE
  5
128
330
17
100
AcDbEntity
  8
Lock rail - detail C
100
AcDbPolyline
 90
49
 70
0
 10
148.01181102362204
 20
6.889763779527559
 10
148.00250863123497
 20
6.748151872528411
 10
147.9749170409182
 20
6.609547020278313
 10
147.9295096329383
 20
6.475715901983551
 10
147.8667597875619
 20
6.3484251968503935
 10
147.78789772593913
 20
6.230436884104297
 10
147.69470028166896
 20
6.124197356126319
 10
147.58846075369098
 20
6.030999911856125
 10
147.4704724409449
 20
5.952137850233379
 10
147.34318173581173
 20
5.889388004856977
 10
147.20935061751695
 20
5.843980596877073
 10
147.07074576526685
 20
5.816389006560289
 10
146.9291338582677
 20
5.807086614173229
 10
146.78752195126856
 20
5.816389006560289
 10
146.6489170990185
 20
5.843980596877073
 10
146.5150859807237
 20
5.889388004856977
 10
146.38779527559055
 20
5.952137850233379
 10
146.26980696284446
 20
6.030999911856125
 10
146.16356743486648
 20
6.124197356126319
 10
146.07036999059628
 20
6.230436884104297
 10
145.99150792897353
 20
6.3484251968503935
 10
145.92875808359713
 20
6.475715901983551
 10
145.88335067561724
 20
6.609547020278313
 10
145.85575908530043
 20
6.748151872528411
 10
145.8464566929134
 20
6.889763779527559
 10
145.85575908530043
 20
7.031375686526706
 10
145.88335067561724
 20
7.169980538776805
 10
145.92875808359713
 20
7.303811657071567
 10
145.99150792897353
 20
7.431102362204724
 10
146.07036999059628
 20
7.54909067495082
 10
146.16356743486648
 20
7.655330202928798
 10
146.26980696284446
 20
7.748527647198993
 10
146.38779527559055
 20
7.827389708821738
 10
146.5150859807237
 20
7.89013955419814
 10
146.6489170990185
 20
7.935546962178044
 10
146.78752195126856
 20
7.963138552494828
 10
146.9291338582677
 20
7.97244094488189
 10
147.07074576526688
 20
7.963138552494828
 10
147.20935061751695
 20
7.935546962178044
 10
147.34318173581173
 20
7.89013955419814
 10
147.4704724409449
 20
7.827389708821738
 10
147.58846075369098
 20
7.748527647198993
 10
147.69470028166896
 20
7.655330202928798
 10
147.78789772593913
 20
7.54909067495082
 10
147.8667597875619
 20
7.431102362204724
 10
147.9295096329383
 20
7.303811657071567
 10
147.9749170409182
 20
7.169980538776805
 10
148.00250863123497
 20
7.031375686526706
 10
148.01181102362204
 20
6.889763779527559
  0
LWPOLYLINE
  5
129
330
17
100
AcDbEntity
  8
Lock rail - detail C
100
AcDbPolyline
 90
49
 70
0
 10
147.61811023622047
 20
6.889763779527559
 10
147.61219053197416
 20
6.7996471114371895
 10
147.5946322472271
 20
6.711444023641681
 10
147.56573662396718
 20
6.626278766545007
 10
147.5258049041822
 20
6.545275590551181
 10
147.47561995587682
 20
6.470192118803672
 10
147.41631249134122
 20
6.402585146454045
 10
147.3487055189916
 20
6.343277681918461
 10
147.2736220472441
 20
6.293092733613081
 10
147.19261887125026
 20
6.2531610138281
 10
147.1074536141536
 20
6.224265390568157
 10
147.0192505263581
 20
6.2067071058211205
 10
146.9291338582677
 20
6.200787401574803
 10
146.83901719017734
 20
6.2067071058211205
 10
146.75081410238184
 20
6.224265390568157
 10
146.66564884528515
 20
6.2531610138281
 10
146.58464566929135
 20
6.293092733613081
 10
146.50956219754383
 20
6.343277681918461
 10
146.4419552251942
 20
6.402585146454045
 10
146.3826477606586
 20
6.470192118803672
 10
146.33246281235324
 20
6.545275590551181
 10
146.29253109256825
 20
6.626278766545007
 10
146.26363546930833
 20
6.711444023641681
 10
146.24607718456127
 20
6.7996471114371895
 10
146.24015748031496
 20
6.889763779527559
 10
146.24607718456127
 20
6.979880447617928
 10
146.26363546930833
 20
7.068083535413437
 10
146.29253109256825
 20
7.1532487925101105
 10
146.33246281235324
 20
7.234251968503937
 10
146.3826477606586
 20
7.309335440251446
 10
146.4419552251942
 20
7.376942412601073
 10
146.50956219754383
 20
7.436249877136658
 10
146.58464566929135
 20
7.486434825442037
 10
146.66564884528515
 20
7.526366545227018
 10
146.75081410238184
 20
7.55526216848696
 10
146.83901719017734
 20
7.572820453233997
 10
146.9291338582677
 20
7.578740157480315
 10
147.0192505263581
 20
7.572820453233997
 10
147.1074536141536
 20
7.55526216848696
 10
147.19261887125026
 20
7.526366545227018
 10
147.2736220472441
 20
7.486434825442037
 10
147.3487055189916
 20
7.436249877136658
 10
147.41631249134122
 20
7.376942412601073
 10
147.47561995587682
 20
7.309335440251446
 10
147.5258049041822
 20
7.234251968503937
 10
147.56573662396718
 20
7.1532487925101105
 10
147.5946322472271
 20
7.068083535413437
 10
147.61219053197416
 20
6.979880447617928
 10
147.61811023622047
 20
6.889763779527559
  0
LWPOLYLINE
  5
12A
330
17
100
AcDbEntity
  8
Lock rail - detail C
100
AcDbPolyline
 90
49
 70
0
 10
144.13385826771653
 20
6.889763779527559
 10
144.12810769787725
 20
6.802221873382629
 10
144.1110510784087
 20
6.716538873809845
 10
144.08298104438475
 20
6.633806909773083
 10
144.04419023087934
 20
6.55511811023622
 10
143.99543913823985
 20
6.482179880538637
 10
143.937826172691
 20
6.416504535970433
 10
143.87215082812278
 20
6.358891570421578
 10
143.79921259842519
 20
6.310140477782068
 10
143.72052379888834
 20
6.271349664276649
 10
143.63779183485158
 20
6.243279630252711
 10
143.55210883527877
 20
6.226223010784152
 10
143.46456692913387
 20
6.2204724409448815
 10
143.37702502298893
 20
6.226223010784152
 10
143.29134202341615
 20
6.243279630252711
 10
143.20861005937937
 20
6.271349664276649
 10
143.12992125984252
 20
6.310140477782068
 10
143.05698303014492
 20
6.358891570421578
 10
142.99130768557671
 20
6.416504535970433
 10
142.9336947200279
 20
6.482179880538637
 10
142.88494362738837
 20
6.55511811023622
 10
142.84615281388295
 20
6.633806909773083
 10
142.818082779859
 20
6.716538873809845
 10
142.80102616039045
 20
6.802221873382629
 10
142.79527559055117
 20
6.889763779527559
 10
142.80102616039045
 20
6.977305685672489
 10
142.818082779859
 20
7.062988685245273
 10
142.84615281388295
 20
7.145720649282034
 10
142.88494362738837
 20
7.224409448818897
 10
142.9336947200279
 20
7.297347678516481
 10
142.99130768557671
 20
7.3630230230846845
 10
143.05698303014492
 20
7.420635988633539
 10
143.12992125984252
 20
7.46938708127305
 10
143.20861005937937
 20
7.508177894778469
 10
143.29134202341615
 20
7.536247928802407
 10
143.37702502298893
 20
7.553304548270965
 10
143.46456692913387
 20
7.559055118110236
 10
143.55210883527877
 20
7.553304548270965
 10
143.63779183485158
 20
7.536247928802407
 10
143.72052379888834
 20
7.508177894778469
 10
143.79921259842519
 20
7.46938708127305
 10
143.87215082812278
 20
7.420635988633539
 10
143.937826172691
 20
7.3630230230846845
 10
143.99543913823985
 20
7.297347678516481
 10
144.04419023087934
 20
7.224409448818897
 10
144.08298104438475
 20
7.145720649282034
 10
144.1110510784087
 20
7.062988685245273
 10
144.12810769787725
 20
6.977305685672489
 10
144.13385826771653
 20
6.889763779527559
  0
LWPOLYLINE
  5
12B
330
17
100
AcDbEntity
  8
Lock rail - detail C
100
AcDbPolyline
 90
44
 70
0
 10
143.3464566929134
 20
6.929133858267717
 10
143.33140349753225
 20
6.944330411106716
 10
143.31833449294618
 20
6.961167417612348
 10
143.3073817085202
 20
6.979451842193377
 10
143.29867717361935
 20
6.998990649258571
 10
143.29239101678277
 20
7.019436141221283
 10
143.28862362596988
 20
7.040414473743293
 10
143.2874024196759
 20
7.061693391105992
 10
143.2887548163962
 20
7.083040637590788
 10
143.29267024152992
 20
7.104069269391114
 10
143.299064208506
 20
7.124401530830749
 10
143.3078532678643
 20
7.143818948386587
 10
143.31895397014458
 20
7.162103048535505
 10
143.33217745080142
 20
7.178915944439823
 10
143.34727362913915
 20
7.1939621754807295
 10
143.3640672314723
 20
7.207086907463398
 10
143.38238298411537
 20
7.218135306193039
 10
143.40189683274247
 20
7.226895649858129
 10
143.42225017263627
 20
7.233222199005034
 10
143.44321590452427
 20
7.2370590929757315
 10
143.46456692913387
 20
7.238350471112188
 10
143.48591795374347
 20
7.2370590929757315
 10
143.50688368563146
 20
7.233222199005034
 10
143.52723702552524
 20
7.226895649858129
 10
143.54675087415234
 20
7.218135306193039
 10
143.5650666267954
 20
7.207086907463398
 10
143.58186022912858
 20
7.193962175480721
 10
143.5969564074663
 20
7.178915944439814
 10
143.61017988812316
 20
7.162103048535496
 10
143.62128059040342
 20
7.143818948386578
 10
143.6300696497617
 20
7.12440153083074
 10
143.6364636167378
 20
7.104069269391105
 10
143.6403790418715
 20
7.083040637590779
 10
143.6417314385918
 20
7.061693391105983
 10
143.64051023229783
 20
7.040414473743284
 10
143.63674284148493
 20
7.0194361412212745
 10
143.63045668464838
 20
6.9989906492585625
 10
143.6217521497475
 20
6.9794518421933684
 10
143.61079936532153
 20
6.961167417612338
 10
143.59773036073548
 20
6.944330411106716
 10
143.58267716535434
 20
6.929133858267717
 10
143.64173228346456
 20
6.496062992125984
 10
143.28740157480314
 20
6.496062992125984
 10
143.3464566929134
 20
6.929133858267717
  0
TEXT
  5
12C
330
17
100
AcDbEntity
  8
LABELS
100
AcDbText
 10
141.41732283464566
 20
16.141732283464567
 30
0.0
 40
0.7086614173228346
  1
LOCK RAIL - DETAIL C  (1:1, inches)
 11
141.41732283464566
 21
16.141732283464567
 31
0.0
100
AcDbText
  0
TEXT
  5
12D
330
17
100
AcDbEntity
  8
LABELS
100
AcDbText
 10
0.0
 20
-8.661417322834646
 30
0.0
 40
1.574803149606299
  1
Doors D2 and D3 · AST-DR-009
 11
0.0
 21
-8.661417322834646
 31
0.0
100
AcDbText
  0
ENDSEC
  0
SECTION
  2
OBJECTS
  0
DICTIONARY
  5
A
330
0
100
AcDbDictionary
281
1
  3
ACAD_COLOR
350
B
  3
ACAD_GROUP
350
C
  3
ACAD_LAYOUT
350
D
  3
ACAD_MATERIAL
350
E
  3
ACAD_MLEADERSTYLE
350
F
  3
ACAD_MLINESTYLE
350
10
  3
ACAD_PLOTSETTINGS
350
11
  3
ACAD_PLOTSTYLENAME
350
12
  3
ACAD_SCALELIST
350
14
  3
ACAD_TABLESTYLE
350
15
  3
ACAD_VISUALSTYLE
350
16
  3
EZDXF_META
350
2D
  0
DICTIONARY
  5
B
330
A
100
AcDbDictionary
281
1
  0
DICTIONARY
  5
C
330
A
100
AcDbDictionary
281
1
  0
DICTIONARY
  5
D
330
A
100
AcDbDictionary
281
1
  3
Model
350
1A
  3
Layout1
350
1E
  0
DICTIONARY
  5
E
330
A
100
AcDbDictionary
281
1
  3
ByBlock
350
1F
  3
ByLayer
350
20
  3
Global
350
21
  0
DICTIONARY
  5
F
330
A
100
AcDbDictionary
281
1
  3
Standard
350
2C
  0
DICTIONARY
  5
10
330
A
100
AcDbDictionary
281
1
  3
Standard
350
22
  0
DICTIONARY
  5
11
330
A
100
AcDbDictionary
281
1
  0
ACDBDICTIONARYWDFLT
  5
12
330
A
100
AcDbDictionary
281
1
  3
Normal
350
13
100
AcDbDictionaryWithDefault
340
13
  0
ACDBPLACEHOLDER
  5
13
330
12
  0
DICTIONARY
  5
14
330
A
100
AcDbDictionary
281
1
  0
DICTIONARY
  5
15
330
A
100
AcDbDictionary
281
1
  0
DICTIONARY
  5
16
330
A
100
AcDbDictionary
281
1
  3
2dWireframe
350
5A
  3
Basic
350
5B
  3
Brighten
350
5C
  3
ColorChange
350
5D
  3
Conceptual
350
5E
  3
Dim
350
5F
  3
EdgeColorOff
350
60
  3
Facepattern
350
61
  3
Flat
350
62
  3
FlatWithEdges
350
63
  3
Gouraud
350
64
  3
GouraudWithEdges
350
65
  3
Hidden
350
66
  3
JitterOff
350
67
  3
Linepattern
350
68
  3
Modeling
350
69
  3
OverhangOff
350
6A
  3
Realistic
350
6B
  3
Shaded
350
6C
  3
Shaded with edges
350
6D
  3
Shades of Gray
350
6E
  3
Sketchy
350
6F
  3
Thicken
350
70
  3
Wireframe
350
71
  3
X-Ray
350
72
  0
LAYOUT
  5
1A
330
D
100
AcDbPlotSettings
  1

  4
A3
  6

 40
7.5
 41
20.0
 42
7.5
 43
20.0
 44
420.0
 45
297.0
 46
0.0
 47
0.0
 48
0.0
 49
0.0
140
0.0
141
0.0
142
1.0
143
1.0
 70
1024
 72
1
 73
0
 74
5
  7

 75
16
 76
0
 77
2
 78
300
147
1.0
148
0.0
149
0.0
100
AcDbLayout
  1
Model
 70
1
 71
0
 10
0.0
 20
0.0
 11
420.0
 21
297.0
 12
0.0
 22
0.0
 32
0.0
 14
1e+20
 24
1e+20
 34
1e+20
 15
-1e+20
 25
-1e+20
 35
-1e+20
146
0.0
 13
0.0
 23
0.0
 33
0.0
 16
1.0
 26
0.0
 36
0.0
 17
0.0
 27
1.0
 37
0.0
 76
1
330
17
  0
LAYOUT
  5
1E
330
D
100
AcDbPlotSettings
  1

  4
A3
  6

 40
7.5
 41
20.0
 42
7.5
 43
20.0
 44
420.0
 45
297.0
 46
0.0
 47
0.0
 48
0.0
 49
0.0
140
0.0
141
0.0
142
1.0
143
1.0
 70
0
 72
1
 73
0
 74
5
  7

 75
16
 76
0
 77
2
 78
300
147
1.0
148
0.0
149
0.0
100
AcDbLayout
  1
Layout1
 70
1
 71
1
 10
0.0
 20
0.0
 11
420.0
 21
297.0
 12
0.0
 22
0.0
 32
0.0
 14
1e+20
 24
1e+20
 34
1e+20
 15
-1e+20
 25
-1e+20
 35
-1e+20
146
0.0
 13
0.0
 23
0.0
 33
0.0
 16
1.0
 26
0.0
 36
0.0
 17
0.0
 27
1.0
 37
0.0
 76
1
330
1B
  0
MATERIAL
  5
1F
102
{ACAD_REACTORS
330
E
102
}
330
E
100
AcDbMaterial
  1
ByBlock
  2

 70
0
 40
1.0
 71
1
 41
1.0
 91
-1023410177
 42
1.0
 72
1
  3

 73
1
 74
1
 75
1
 44
0.5
 73
0
 45
1.0
 46
1.0
 77
1
  4

 78
1
 79
1
170
1
 48
1.0
171
1
  6

172
1
173
1
174
1
140
1.0
141
1.0
175
1
  7

176
1
177
1
178
1
143
1.0
179
1
  8

270
1
271
1
272
1
145
1.0
146
1.0
273
1
  9

274
1
275
1
276
1
 42
1.0
 72
1
  3

 73
1
 74
1
 75
1
 94
63
  0
MATERIAL
  5
20
102
{ACAD_REACTORS
330
E
102
}
330
E
100
AcDbMaterial
  1
ByLayer
  2

 70
0
 40
1.0
 71
1
 41
1.0
 91
-1023410177
 42
1.0
 72
1
  3

 73
1
 74
1
 75
1
 44
0.5
 73
0
 45
1.0
 46
1.0
 77
1
  4

 78
1
 79
1
170
1
 48
1.0
171
1
  6

172
1
173
1
174
1
140
1.0
141
1.0
175
1
  7

176
1
177
1
178
1
143
1.0
179
1
  8

270
1
271
1
272
1
145
1.0
146
1.0
273
1
  9

274
1
275
1
276
1
 42
1.0
 72
1
  3

 73
1
 74
1
 75
1
 94
63
  0
MATERIAL
  5
21
102
{ACAD_REACTORS
330
E
102
}
330
E
100
AcDbMaterial
  1
Global
  2

 70
0
 40
1.0
 71
1
 41
1.0
 91
-1023410177
 42
1.0
 72
1
  3

 73
1
 74
1
 75
1
 44
0.5
 73
0
 45
1.0
 46
1.0
 77
1
  4

 78
1
 79
1
170
1
 48
1.0
171
1
  6

172
1
173
1
174
1
140
1.0
141
1.0
175
1
  7

176
1
177
1
178
1
143
1.0
179
1
  8

270
1
271
1
272
1
145
1.0
146
1.0
273
1
  9

274
1
275
1
276
1
 42
1.0
 72
1
  3

 73
1
 74
1
 75
1
 94
63
  0
MLINESTYLE
  5
22
102
{ACAD_REACTORS
330
10
102
}
330
10
100
AcDbMlineStyle
  2
Standard
 70
0
  3

 62
256
 51
90.0
 52
90.0
 71
2
 49
0.5
 62
256
  6
BYLAYER
 49
-0.5
 62
256
  6
BYLAYER
  0
MLEADERSTYLE
  5
2C
102
{ACAD_REACTORS
330
F
102
}
330
F
100
AcDbMLeaderStyle
179
2
170
2
171
1
172
0
 90
2
 40
0.0
 41
0.0
173
1
 91
-1056964608
 92
-2
290
1
 42
2.0
291
1
 43
8.0
  3
Standard
 44
4.0
300

342
29
174
1
175
1
176
0
178
1
 93
-1056964608
 45
4.0
292
0
297
0
 46
4.0
 94
-1056964608
 47
1.0
 49
1.0
140
1.0
294
1
141
0.0
177
0
142
1.0
295
0
296
0
143
3.75
271
0
272
9
273
9
  0
DICTIONARY
  5
2D
330
A
100
AcDbDictionary
280
1
281
1
  3
CREATED_BY_EZDXF
350
2E
  3
WRITTEN_BY_EZDXF
350
130
  0
DICTIONARYVAR
  5
2E
330
2D
100
DictionaryVariables
280
0
  1
1.4.2 @ 2026-09-18T19:52:11.554314+00:00
  0
VISUALSTYLE
  5
5A
102
{ACAD_REACTORS
330
16
102
}
330
16
100
AcDbVisualStyle
  2
2dWireframe
 70
4
 90
0
 40
0.6
 62
7
290
0
291
0
  0
VISUALSTYLE
  5
5B
102
{ACAD_REACTORS
330
16
102
}
330
16
100
AcDbVisualStyle
  2
Basic
 70
7
 90
1
 40
0.6
 62
7
290
0
291
1
  0
VISUALSTYLE
  5
5C
102
{ACAD_REACTORS
330
16
102
}
330
16
100
AcDbVisualStyle
  2
Brighten
 70
12
 90
2
 40
0.6
 62
7
290
0
291
1
  0
VISUALSTYLE
  5
5D
102
{ACAD_REACTORS
330
16
102
}
330
16
100
AcDbVisualStyle
  2
ColorChange
 70
16
 90
2
 40
0.6
 62
8
290
0
291
1
  0
VISUALSTYLE
  5
5E
102
{ACAD_REACTORS
330
16
102
}
330
16
100
AcDbVisualStyle
  2
Conceptual
 70
9
 90
3
 40
0.6
 62
7
290
0
291
0
  0
VISUALSTYLE
  5
5F
102
{ACAD_REACTORS
330
16
102
}
330
16
100
AcDbVisualStyle
  2
Dim
 70
11
 90
2
 40
0.6
 62
7
290
0
291
1
  0
VISUALSTYLE
  5
60
102
{ACAD_REACTORS
330
16
102
}
330
16
100
AcDbVisualStyle
  2
EdgeColorOff
 70
22
 90
2
 40
0.6
 62
7
290
0
291
1
  0
VISUALSTYLE
  5
61
102
{ACAD_REACTORS
330
16
102
}
330
16
100
AcDbVisualStyle
  2
Facepattern
 70
15
 90
2
 40
0.6
 62
7
290
0
291
1
  0
VISUALSTYLE
  5
62
102
{ACAD_REACTORS
330
16
102
}
330
16
100
AcDbVisualStyle
  2
Flat
 70
0
 90
2
 40
0.6
 62
7
290
0
291
1
  0
VISUALSTYLE
  5
63
102
{ACAD_REACTORS
330
16
102
}
330
16
100
AcDbVisualStyle
  2
FlatWithEdges
 70
1
 90
2
 40
0.6
 62
7
290
0
291
1
  0
VISUALSTYLE
  5
64
102
{ACAD_REACTORS
330
16
102
}
330
16
100
AcDbVisualStyle
  2
Gouraud
 70
2
 90
2
 40
0.6
 62
7
290
0
291
1
  0
VISUALSTYLE
  5
65
102
{ACAD_REACTORS
330
16
102
}
330
16
100
AcDbVisualStyle
  2
GouraudWithEdges
 70
3
 90
2
 40
0.6
 62
7
290
0
291
1
  0
VISUALSTYLE
  5
66
102
{ACAD_REACTORS
330
16
102
}
330
16
100
AcDbVisualStyle
  2
Hidden
 70
6
 90
1
 40
0.6
 62
7
290
0
291
0
  0
VISUALSTYLE
  5
67
102
{ACAD_REACTORS
330
16
102
}
330
16
100
AcDbVisualStyle
  2
JitterOff
 70
20
 90
2
 40
0.6
 62
7
290
0
291
1
  0
VISUALSTYLE
  5
68
102
{ACAD_REACTORS
330
16
102
}
330
16
100
AcDbVisualStyle
  2
Linepattern
 70
14
 90
2
 40
0.6
 62
7
290
0
291
1
  0
VISUALSTYLE
  5
69
102
{ACAD_REACTORS
330
16
102
}
330
16
100
AcDbVisualStyle
  2
Modeling
 70
10
 90
2
 40
0.6
 62
7
290
0
291
0
  0
VISUALSTYLE
  5
6A
102
{ACAD_REACTORS
330
16
102
}
330
16
100
AcDbVisualStyle
  2
OverhangOff
 70
21
 90
2
 40
0.6
 62
7
290
0
291
1
  0
VISUALSTYLE
  5
6B
102
{ACAD_REACTORS
330
16
102
}
330
16
100
AcDbVisualStyle
  2
Realistic
 70
8
 90
2
 40
0.6
 62
7
290
0
291
0
  0
VISUALSTYLE
  5
6C
102
{ACAD_REACTORS
330
16
102
}
330
16
100
AcDbVisualStyle
  2
Shaded
 70
27
 90
2
 40
0.6
 62
7
290
0
291
0
  0
VISUALSTYLE
  5
6D
102
{ACAD_REACTORS
330
16
102
}
330
16
100
AcDbVisualStyle
  2
Shaded with edges
 70
26
 90
2
 40
0.6
 62
7
290
0
291
0
  0
VISUALSTYLE
  5
6E
102
{ACAD_REACTORS
330
16
102
}
330
16
100
AcDbVisualStyle
  2
Shades of Gray
 70
23
 90
2
 40
0.6
 62
7
290
0
291
0
  0
VISUALSTYLE
  5
6F
102
{ACAD_REACTORS
330
16
102
}
330
16
100
AcDbVisualStyle
  2
Sketchy
 70
24
 90
1
 40
0.6
 62
7
290
0
291
0
  0
VISUALSTYLE
  5
70
102
{ACAD_REACTORS
330
16
102
}
330
16
100
AcDbVisualStyle
  2
Thicken
 70
13
 90
2
 40
0.6
 62
7
290
0
291
1
  0
VISUALSTYLE
  5
71
102
{ACAD_REACTORS
330
16
102
}
330
16
100
AcDbVisualStyle
  2
Wireframe
 70
5
 90
0
 40
0.6
 62
7
290
0
291
0
  0
VISUALSTYLE
  5
72
102
{ACAD_REACTORS
330
16
102
}
330
16
100
AcDbVisualStyle
  2
X-Ray
 70
25
 90
2
 40
0.5
 62
7
290
0
291
0
  0
DICTIONARYVAR
  5
130
330
2D
100
DictionaryVariables
280
0
  1
1.4.2 @ 2026-09-18T19:52:11.637134+00:00
  0
ENDSEC
  0
EOF
