  0
SECTION
  2
HEADER
  9
$ACADVER
  1
AC1024
  9
$ACADMAINTVER
 70
6
  9
$DWGCODEPAGE
  3
ANSI_1252
  9
$LASTSAVEDBY
  1
ezdxf
  9
$INSBASE
 10
0.0
 20
0.0
 30
0.0
  9
$EXTMIN
 10
1e+20
 20
1e+20
 30
1e+20
  9
$EXTMAX
 10
-1e+20
 20
-1e+20
 30
-1e+20
  9
$LIMMIN
 10
0.0
 20
0.0
  9
$LIMMAX
 10
420.0
 20
297.0
  9
$ORTHOMODE
 70
0
  9
$REGENMODE
 70
1
  9
$FILLMODE
 70
1
  9
$QTEXTMODE
 70
0
  9
$MIRRTEXT
 70
1
  9
$LTSCALE
 40
1.0
  9
$ATTMODE
 70
1
  9
$TEXTSIZE
 40
2.5
  9
$TRACEWID
 40
1.0
  9
$TEXTSTYLE
  7
OpenSans
  9
$CLAYER
  8
0
  9
$CELTYPE
  6
ByLayer
  9
$CECOLOR
 62
256
  9
$CELTSCALE
 40
1.0
  9
$DISPSILH
 70
0
  9
$DIMSCALE
 40
1.0
  9
$DIMASZ
 40
0.175
  9
$DIMEXO
 40
0.125
  9
$DIMDLI
 40
3.75
  9
$DIMRND
 40
0.0
  9
$DIMDLE
 40
0.0
  9
$DIMEXE
 40
0.375
  9
$DIMTP
 40
0.0
  9
$DIMTM
 40
0.0
  9
$DIMTXT
 40
0.25
  9
$DIMCEN
 40
2.5
  9
$DIMTSZ
 40
0.0
  9
$DIMTOL
 70
0
  9
$DIMLIM
 70
0
  9
$DIMTIH
 70
0
  9
$DIMTOH
 70
0
  9
$DIMSE1
 70
0
  9
$DIMSE2
 70
0
  9
$DIMTAD
 70
1
  9
$DIMZIN
 70
12
  9
$DIMBLK
  1
ARCHTICK
  9
$DIMASO
 70
1
  9
$DIMSHO
 70
1
  9
$DIMPOST
  1

  9
$DIMAPOST
  1

  9
$DIMALT
 70
0
  9
$DIMALTD
 70
3
  9
$DIMALTF
 40
0.03937007874
  9
$DIMLFAC
 40
100.0
  9
$DIMTOFL
 70
1
  9
$DIMTVP
 40
0.0
  9
$DIMTIX
 70
0
  9
$DIMSOXD
 70
0
  9
$DIMSAH
 70
0
  9
$DIMBLK1
  1

  9
$DIMBLK2
  1

  9
$DIMSTYLE
  2
EZDXF
  9
$DIMCLRD
 70
0
  9
$DIMCLRE
 70
0
  9
$DIMCLRT
 70
0
  9
$DIMTFAC
 40
0.5
  9
$DIMGAP
 40
0.1
  9
$DIMJUST
 70
0
  9
$DIMSD1
 70
0
  9
$DIMSD2
 70
0
  9
$DIMTOLJ
 70
0
  9
$DIMTZIN
 70
8
  9
$DIMALTZ
 70
0
  9
$DIMALTTZ
 70
0
  9
$DIMUPT
 70
1
  9
$DIMDEC
 70
2
  9
$DIMTDEC
 70
2
  9
$DIMALTU
 70
2
  9
$DIMALTTD
 70
3
  9
$DIMTXSTY
  7
OpenSansCondensed-Light
  9
$DIMAUNIT
 70
0
  9
$DIMADEC
 70
2
  9
$DIMALTRND
 40
0.0
  9
$DIMAZIN
 70
3
  9
$DIMDSEP
 70
46
  9
$DIMATFIT
 70
3
  9
$DIMFRAC
 70
0
  9
$DIMLDRBLK
  1

  9
$DIMLUNIT
 70
2
  9
$DIMLWD
 70
-2
  9
$DIMLWE
 70
-2
  9
$DIMTMOVE
 70
2
  9
$DIMFXL
 40
1.0
  9
$DIMFXLON
 70
0
  9
$DIMJOGANG
 40
0.785398163397
  9
$DIMTFILL
 70
0
  9
$DIMTFILLCLR
 70
0
  9
$DIMARCSYM
 70
0
  9
$DIMLTYPE
  6

  9
$DIMLTEX1
  6

  9
$DIMLTEX2
  6

  9
$DIMTXTDIRECTION
 70
0
  9
$LUNITS
 70
4
  9
$LUPREC
 70
4
  9
$SKETCHINC
 40
1.0
  9
$FILLETRAD
 40
10.0
  9
$AUNITS
 70
0
  9
$AUPREC
 70
3
  9
$MENU
  1
.
  9
$ELEVATION
 40
0.0
  9
$PELEVATION
 40
0.0
  9
$THICKNESS
 40
0.0
  9
$LIMCHECK
 70
0
  9
$CHAMFERA
 40
0.0
  9
$CHAMFERB
 40
0.0
  9
$CHAMFERC
 40
0.0
  9
$CHAMFERD
 40
0.0
  9
$SKPOLY
 70
0
  9
$TDCREATE
 40
2461302.972141204
  9
$TDUCREATE
 40
2458532.153996898
  9
$TDUPDATE
 40
2461302.972141204
  9
$TDUUPDATE
 40
2458532.1544311
  9
$TDINDWG
 40
0.0
  9
$TDUSRTIMER
 40
0.0
  9
$USRTIMER
 70
1
  9
$ANGBASE
 50
0.0
  9
$ANGDIR
 70
0
  9
$PDMODE
 70
0
  9
$PDSIZE
 40
0.0
  9
$PLINEWID
 40
0.0
  9
$SPLFRAME
 70
0
  9
$SPLINETYPE
 70
6
  9
$SPLINESEGS
 70
8
  9
$HANDSEED
  5
131
  9
$SURFTAB1
 70
6
  9
$SURFTAB2
 70
6
  9
$SURFTYPE
 70
6
  9
$SURFU
 70
6
  9
$SURFV
 70
6
  9
$UCSBASE
  2

  9
$UCSNAME
  2

  9
$UCSORG
 10
0.0
 20
0.0
 30
0.0
  9
$UCSXDIR
 10
1.0
 20
0.0
 30
0.0
  9
$UCSYDIR
 10
0.0
 20
1.0
 30
0.0
  9
$UCSORTHOREF
  2

  9
$UCSORTHOVIEW
 70
0
  9
$UCSORGTOP
 10
0.0
 20
0.0
 30
0.0
  9
$UCSORGBOTTOM
 10
0.0
 20
0.0
 30
0.0
  9
$UCSORGLEFT
 10
0.0
 20
0.0
 30
0.0
  9
$UCSORGRIGHT
 10
0.0
 20
0.0
 30
0.0
  9
$UCSORGFRONT
 10
0.0
 20
0.0
 30
0.0
  9
$UCSORGBACK
 10
0.0
 20
0.0
 30
0.0
  9
$PUCSBASE
  2

  9
$PUCSNAME
  2

  9
$PUCSORG
 10
0.0
 20
0.0
 30
0.0
  9
$PUCSXDIR
 10
1.0
 20
0.0
 30
0.0
  9
$PUCSYDIR
 10
0.0
 20
1.0
 30
0.0
  9
$PUCSORTHOREF
  2

  9
$PUCSORTHOVIEW
 70
0
  9
$PUCSORGTOP
 10
0.0
 20
0.0
 30
0.0
  9
$PUCSORGBOTTOM
 10
0.0
 20
0.0
 30
0.0
  9
$PUCSORGLEFT
 10
0.0
 20
0.0
 30
0.0
  9
$PUCSORGRIGHT
 10
0.0
 20
0.0
 30
0.0
  9
$PUCSORGFRONT
 10
0.0
 20
0.0
 30
0.0
  9
$PUCSORGBACK
 10
0.0
 20
0.0
 30
0.0
  9
$USERI1
 70
0
  9
$USERI2
 70
0
  9
$USERI3
 70
0
  9
$USERI4
 70
0
  9
$USERI5
 70
0
  9
$USERR1
 40
0.0
  9
$USERR2
 40
0.0
  9
$USERR3
 40
0.0
  9
$USERR4
 40
0.0
  9
$USERR5
 40
0.0
  9
$WORLDVIEW
 70
1
  9
$SHADEDGE
 70
3
  9
$SHADEDIF
 70
70
  9
$TILEMODE
 70
1
  9
$MAXACTVP
 70
64
  9
$PINSBASE
 10
0.0
 20
0.0
 30
0.0
  9
$PLIMCHECK
 70
0
  9
$PEXTMIN
 10
1e+20
 20
1e+20
 30
1e+20
  9
$PEXTMAX
 10
-1e+20
 20
-1e+20
 30
-1e+20
  9
$PLIMMIN
 10
0.0
 20
0.0
  9
$PLIMMAX
 10
420.0
 20
297.0
  9
$UNITMODE
 70
0
  9
$VISRETAIN
 70
1
  9
$PLINEGEN
 70
0
  9
$PSLTSCALE
 70
1
  9
$TREEDEPTH
 70
3020
  9
$CMLSTYLE
  2
Standard
  9
$CMLJUST
 70
0
  9
$CMLSCALE
 40
20.0
  9
$PROXYGRAPHICS
 70
1
  9
$MEASUREMENT
 70
0
  9
$CELWEIGHT
370
-1
  9
$ENDCAPS
280
0
  9
$JOINSTYLE
280
0
  9
$LWDISPLAY
290
0
  9
$INSUNITS
 70
1
  9
$HYPERLINKBASE
  1

  9
$STYLESHEET
  1

  9
$XEDIT
290
1
  9
$CEPSNTYPE
380
0
  9
$PSTYLEMODE
290
1
  9
$FINGERPRINTGUID
  2
{A55032E2-C1B5-4785-9A6B-1FA27ACF8DE0}
  9
$VERSIONGUID
  2
{82AFEEA2-F878-4033-A0AC-D3041515C885}
  9
$EXTNAMES
290
1
  9
$PSVPSCALE
 40
0.0
  9
$OLESTARTUP
290
0
  9
$SORTENTS
280
127
  9
$INDEXCTL
280
0
  9
$HIDETEXT
280
1
  9
$XCLIPFRAME
280
1
  9
$HALOGAP
280
0
  9
$OBSCOLOR
 70
257
  9
$OBSLTYPE
280
0
  9
$INTERSECTIONDISPLAY
280
0
  9
$INTERSECTIONCOLOR
 70
257
  9
$DIMASSOC
280
2
  9
$PROJECTNAME
  1

  9
$CAMERADISPLAY
290
0
  9
$LENSLENGTH
 40
50.0
  9
$CAMERAHEIGHT
 40
0.0
  9
$STEPSPERSEC
 40
24.0
  9
$STEPSIZE
 40
100.0
  9
$3DDWFPREC
 40
2.0
  9
$PSOLWIDTH
 40
0.005
  9
$PSOLHEIGHT
 40
0.08
  9
$LOFTANG1
 40
1.570796326795
  9
$LOFTANG2
 40
1.570796326795
  9
$LOFTMAG1
 40
0.0
  9
$LOFTMAG2
 40
0.0
  9
$LOFTPARAM
 70
7
  9
$LOFTNORMALS
280
1
  9
$LATITUDE
 40
37.795
  9
$LONGITUDE
 40
-122.394
  9
$NORTHDIRECTION
 40
0.0
  9
$TIMEZONE
 70
-8000
  9
$LIGHTGLYPHDISPLAY
280
1
  9
$TILEMODELIGHTSYNCH
280
1
  9
$CMATERIAL
347
20
  9
$SOLIDHIST
280
0
  9
$SHOWHIST
280
1
  9
$DWFFRAME
280
2
  9
$DGNFRAME
280
2
  9
$REALWORLDSCALE
290
1
  9
$INTERFERECOLOR
 62
256
  9
$CSHADOW
280
0
  9
$SHADOWPLANELOCATION
 40
0.0
  0
ENDSEC
  0
SECTION
  2
CLASSES
  0
CLASS
  1
ACDBDICTIONARYWDFLT
  2
AcDbDictionaryWithDefault
  3
ObjectDBX Classes
 90
0
 91
0
280
0
281
0
  0
CLASS
  1
SUN
  2
AcDbSun
  3
SCENEOE
 90
1153
 91
0
280
0
281
0
  0
CLASS
  1
VISUALSTYLE
  2
AcDbVisualStyle
  3
ObjectDBX Classes
 90
4095
 91
0
280
0
281
0
  0
CLASS
  1
MATERIAL
  2
AcDbMaterial
  3
ObjectDBX Classes
 90
1153
 91
0
280
0
281
0
  0
CLASS
  1
SCALE
  2
AcDbScale
  3
ObjectDBX Classes
 90
1153
 91
0
280
0
281
0
  0
CLASS
  1
TABLESTYLE
  2
AcDbTableStyle
  3
ObjectDBX Classes
 90
4095
 91
0
280
0
281
0
  0
CLASS
  1
MLEADERSTYLE
  2
AcDbMLeaderStyle
  3
ACDB_MLEADERSTYLE_CLASS
 90
4095
 91
0
280
0
281
0
  0
CLASS
  1
DICTIONARYVAR
  2
AcDbDictionaryVar
  3
ObjectDBX Classes
 90
0
 91
0
280
0
281
0
  0
CLASS
  1
CELLSTYLEMAP
  2
AcDbCellStyleMap
  3
ObjectDBX Classes
 90
1152
 91
0
280
0
281
0
  0
CLASS
  1
MENTALRAYRENDERSETTINGS
  2
AcDbMentalRayRenderSettings
  3
SCENEOE
 90
1024
 91
0
280
0
281
0
  0
CLASS
  1
ACDBDETAILVIEWSTYLE
  2
AcDbDetailViewStyle
  3
ObjectDBX Classes
 90
1025
 91
0
280
0
281
0
  0
CLASS
  1
ACDBSECTIONVIEWSTYLE
  2
AcDbSectionViewStyle
  3
ObjectDBX Classes
 90
1025
 91
0
280
0
281
0
  0
CLASS
  1
RASTERVARIABLES
  2
AcDbRasterVariables
  3
ISM
 90
0
 91
0
280
0
281
0
  0
CLASS
  1
ACDBPLACEHOLDER
  2
AcDbPlaceHolder
  3
ObjectDBX Classes
 90
0
 91
0
280
0
281
0
  0
CLASS
  1
LAYOUT
  2
AcDbLayout
  3
ObjectDBX Classes
 90
0
 91
0
280
0
281
0
  0
ENDSEC
  0
SECTION
  2
TABLES
  0
TABLE
  2
VPORT
  5
8
330
0
100
AcDbSymbolTable
 70
1
  0
VPORT
  5
23
330
8
100
AcDbSymbolTableRecord
100
AcDbViewportTableRecord
  2
*Active
 70
0
 10
0.0
 20
0.0
 11
1.0
 21
1.0
 12
0.0
 22
0.0
 13
0.0
 23
0.0
 14
0.5
 24
0.5
 15
0.5
 25
0.5
 16
0.0
 26
0.0
 36
1.0
 17
0.0
 27
0.0
 37
0.0
 40
1000.0
 41
1.34
 42
50.0
 43
0.0
 44
0.0
 50
0.0
 51
0.0
 71
0
 72
1000
 73
1
 74
3
 75
0
 76
0
 77
0
 78
0
281
0
 65
0
146
0.0
  0
ENDTAB
  0
TABLE
  2
LTYPE
  5
2
330
0
100
AcDbSymbolTable
 70
21
  0
LTYPE
  5
24
330
2
100
AcDbSymbolTableRecord
100
AcDbLinetypeTableRecord
  2
ByBlock
 70
0
  3

 72
65
 73
0
 40
0.0
  0
LTYPE
  5
25
330
2
100
AcDbSymbolTableRecord
100
AcDbLinetypeTableRecord
  2
ByLayer
 70
0
  3

 72
65
 73
0
 40
0.0
  0
LTYPE
  5
26
330
2
100
AcDbSymbolTableRecord
100
AcDbLinetypeTableRecord
  2
Continuous
 70
0
  3

 72
65
 73
0
 40
0.0
  0
LTYPE
  5
2F
330
2
100
AcDbSymbolTableRecord
100
AcDbLinetypeTableRecord
  2
CENTER
 70
0
  3
Center ____ _ ____ _ ____ _ ____ _ ____ _ ____
 72
65
 73
4
 40
2.0
 49
1.25
 74
0
 49
-0.25
 74
0
 49
0.25
 74
0
 49
-0.25
 74
0
  0
LTYPE
  5
30
330
2
100
AcDbSymbolTableRecord
100
AcDbLinetypeTableRecord
  2
CENTERX2
 70
0
  3
Center (2x) ________  __  ________  __  ________
 72
65
 73
4
 40
3.5
 49
2.5
 74
0
 49
-0.25
 74
0
 49
0.5
 74
0
 49
-0.25
 74
0
  0
LTYPE
  5
31
330
2
100
AcDbSymbolTableRecord
100
AcDbLinetypeTableRecord
  2
CENTER2
 70
0
  3
Center (.5x) ____ _ ____ _ ____ _ ____ _ ____
 72
65
 73
4
 40
1.0
 49
0.625
 74
0
 49
-0.125
 74
0
 49
0.125
 74
0
 49
-0.125
 74
0
  0
LTYPE
  5
32
330
2
100
AcDbSymbolTableRecord
100
AcDbLinetypeTableRecord
  2
DASHED
 70
0
  3
Dashed __ __ __ __ __ __ __ __ __ __ __ __ __ _
 72
65
 73
2
 40
0.6
 49
0.5
 74
0
 49
-0.1
 74
0
  0
LTYPE
  5
33
330
2
100
AcDbSymbolTableRecord
100
AcDbLinetypeTableRecord
  2
DASHEDX2
 70
0
  3
Dashed (2x) ____  ____  ____  ____  ____  ____
 72
65
 73
2
 40
1.2
 49
1.0
 74
0
 49
-0.2
 74
0
  0
LTYPE
  5
34
330
2
100
AcDbSymbolTableRecord
100
AcDbLinetypeTableRecord
  2
DASHED2
 70
0
  3
Dashed (.5x) _ _ _ _ _ _ _ _ _ _ _ _ _ _
 72
65
 73
2
 40
0.3
 49
0.25
 74
0
 49
-0.05
 74
0
  0
LTYPE
  5
35
330
2
100
AcDbSymbolTableRecord
100
AcDbLinetypeTableRecord
  2
PHANTOM
 70
0
  3
Phantom ______  __  __  ______  __  __  ______
 72
65
 73
6
 40
2.5
 49
1.25
 74
0
 49
-0.25
 74
0
 49
0.25
 74
0
 49
-0.25
 74
0
 49
0.25
 74
0
 49
-0.25
 74
0
  0
LTYPE
  5
36
330
2
100
AcDbSymbolTableRecord
100
AcDbLinetypeTableRecord
  2
PHANTOMX2
 70
0
  3
Phantom (2x)____________    ____    ____    ____________
 72
65
 73
6
 40
4.25
 49
2.5
 74
0
 49
-0.25
 74
0
 49
0.5
 74
0
 49
-0.25
 74
0
 49
0.5
 74
0
 49
-0.25
 74
0
  0
LTYPE
  5
37
330
2
100
AcDbSymbolTableRecord
100
AcDbLinetypeTableRecord
  2
PHANTOM2
 70
0
  3
Phantom (.5x) ___ _ _ ___ _ _ ___ _ _ ___ _ _ ___
 72
65
 73
6
 40
1.25
 49
0.625
 74
0
 49
-0.125
 74
0
 49
0.125
 74
0
 49
-0.125
 74
0
 49
0.125
 74
0
 49
-0.125
 74
0
  0
LTYPE
  5
38
330
2
100
AcDbSymbolTableRecord
100
AcDbLinetypeTableRecord
  2
DASHDOT
 70
0
  3
Dash dot __ . __ . __ . __ . __ . __ . __ . __
 72
65
 73
4
 40
1.4
 49
1.0
 74
0
 49
-0.2
 74
0
 49
0.0
 74
0
 49
-0.2
 74
0
  0
LTYPE
  5
39
330
2
100
AcDbSymbolTableRecord
100
AcDbLinetypeTableRecord
  2
DASHDOTX2
 70
0
  3
Dash dot (2x) ____  .  ____  .  ____  .  ____
 72
65
 73
4
 40
2.4
 49
2.0
 74
0
 49
-0.2
 74
0
 49
0.0
 74
0
 49
-0.2
 74
0
  0
LTYPE
  5
3A
330
2
100
AcDbSymbolTableRecord
100
AcDbLinetypeTableRecord
  2
DASHDOT2
 70
0
  3
Dash dot (.5x) _ . _ . _ . _ . _ . _ . _ . _
 72
65
 73
4
 40
0.7
 49
0.5
 74
0
 49
-0.1
 74
0
 49
0.0
 74
0
 49
-0.1
 74
0
  0
LTYPE
  5
3B
330
2
100
AcDbSymbolTableRecord
100
AcDbLinetypeTableRecord
  2
DOT
 70
0
  3
Dot .  .  .  .  .  .  .  .  .  .  .  .  .  .  .  .
 72
65
 73
2
 40
0.2
 49
0.0
 74
0
 49
-0.2
 74
0
  0
LTYPE
  5
3C
330
2
100
AcDbSymbolTableRecord
100
AcDbLinetypeTableRecord
  2
DOTX2
 70
0
  3
Dot (2x) .    .    .    .    .    .    .    . 
 72
65
 73
2
 40
0.4
 49
0.0
 74
0
 49
-0.4
 74
0
  0
LTYPE
  5
3D
330
2
100
AcDbSymbolTableRecord
100
AcDbLinetypeTableRecord
  2
DOT2
 70
0
  3
Dot (.5) . . . . . . . . . . . . . . . . . . . 
 72
65
 73
2
 40
0.1
 49
0.0
 74
0
 49
-0.1
 74
0
  0
LTYPE
  5
3E
330
2
100
AcDbSymbolTableRecord
100
AcDbLinetypeTableRecord
  2
DIVIDE
 70
0
  3
Divide __ . . __ . . __ . . __ . . __ . . __
 72
65
 73
6
 40
1.6
 49
1.0
 74
0
 49
-0.2
 74
0
 49
0.0
 74
0
 49
-0.2
 74
0
 49
0.0
 74
0
 49
-0.2
 74
0
  0
LTYPE
  5
3F
330
2
100
AcDbSymbolTableRecord
100
AcDbLinetypeTableRecord
  2
DIVIDEX2
 70
0
  3
Divide (2x) ____  . .  ____  . .  ____  . .  ____
 72
65
 73
6
 40
2.6
 49
2.0
 74
0
 49
-0.2
 74
0
 49
0.0
 74
0
 49
-0.2
 74
0
 49
0.0
 74
0
 49
-0.2
 74
0
  0
LTYPE
  5
40
330
2
100
AcDbSymbolTableRecord
100
AcDbLinetypeTableRecord
  2
DIVIDE2
 70
0
  3
Divide(.5x) _ . _ . _ . _ . _ . _ . _ . _
 72
65
 73
6
 40
0.8
 49
0.5
 74
0
 49
-0.1
 74
0
 49
0.0
 74
0
 49
-0.1
 74
0
 49
0.0
 74
0
 49
-0.1
 74
0
  0
ENDTAB
  0
TABLE
  2
LAYER
  5
1
330
0
100
AcDbSymbolTable
 70
10
  0
LAYER
  5
27
330
1
100
AcDbSymbolTableRecord
100
AcDbLayerTableRecord
  2
0
 70
0
 62
7
  6
Continuous
370
-3
390
13
347
21
  0
LAYER
  5
28
330
1
100
AcDbSymbolTableRecord
100
AcDbLayerTableRecord
  2
Defpoints
 70
0
 62
7
  6
Continuous
290
0
370
-3
390
13
347
21
  0
LAYER
  5
8A
330
1
100
AcDbSymbolTableRecord
100
AcDbLayerTableRecord
  2
Front elevation
 70
0
 62
7
  6
Continuous
370
-3
390
13
347
21
  0
LAYER
  5
8B
330
1
100
AcDbSymbolTableRecord
100
AcDbLayerTableRecord
  2
Front elevation hatch
 70
0
 62
8
  6
Continuous
370
-3
390
13
347
21
  0
LAYER
  5
DB
330
1
100
AcDbSymbolTableRecord
100
AcDbLayerTableRecord
  2
Panel head - detail A
 70
0
 62
7
  6
Continuous
370
-3
390
13
347
21
  0
LAYER
  5
DC
330
1
100
AcDbSymbolTableRecord
100
AcDbLayerTableRecord
  2
Panel head - detail A hatch
 70
0
 62
8
  6
Continuous
370
-3
390
13
347
21
  0
LAYER
  5
EC
330
1
100
AcDbSymbolTableRecord
100
AcDbLayerTableRecord
  2
Section B-B
 70
0
 62
7
  6
Continuous
370
-3
390
13
347
21
  0
LAYER
  5
ED
330
1
100
AcDbSymbolTableRecord
100
AcDbLayerTableRecord
  2
Section B-B hatch
 70
0
 62
8
  6
Continuous
370
-3
390
13
347
21
  0
LAYER
  5
116
330
1
100
AcDbSymbolTableRecord
100
AcDbLayerTableRecord
  2
Lock rail - detail C
 70
0
 62
7
  6
Continuous
370
-3
390
13
347
21
  0
LAYER
  5
117
330
1
100
AcDbSymbolTableRecord
100
AcDbLayerTableRecord
  2
Lock rail - detail C hatch
 70
0
 62
8
  6
Continuous
370
-3
390
13
347
21
  0
ENDTAB
  0
TABLE
  2
STYLE
  5
5
330
0
100
AcDbSymbolTable
 70
26
  0
STYLE
  5
29
330
5
100
AcDbSymbolTableRecord
100
AcDbTextStyleTableRecord
  2
Standard
 70
0
 40
0.0
 41
1.0
 50
0.0
 71
0
 42
2.5
  3
txt
  4

  0
STYLE
  5
41
330
5
100
AcDbSymbolTableRecord
100
AcDbTextStyleTableRecord
  2
OpenSans-Light
 70
0
 40
0.0
 41
1.0
 50
0.0
 71
0
 42
2.5
  3
OpenSans-Light.ttf
  4

  0
STYLE
  5
42
330
5
100
AcDbSymbolTableRecord
100
AcDbTextStyleTableRecord
  2
OpenSans-Light-Italic
 70
0
 40
0.0
 41
1.0
 50
0.0
 71
0
 42
2.5
  3
OpenSans-LightItalic.ttf
  4

  0
STYLE
  5
43
330
5
100
AcDbSymbolTableRecord
100
AcDbTextStyleTableRecord
  2
OpenSans
 70
0
 40
0.0
 41
1.0
 50
0.0
 71
0
 42
2.5
  3
OpenSans-Regular.ttf
  4

  0
STYLE
  5
44
330
5
100
AcDbSymbolTableRecord
100
AcDbTextStyleTableRecord
  2
OpenSans-Italic
 70
0
 40
0.0
 41
1.0
 50
0.0
 71
0
 42
2.5
  3
OpenSans-Italic.ttf
  4

  0
STYLE
  5
45
330
5
100
AcDbSymbolTableRecord
100
AcDbTextStyleTableRecord
  2
OpenSans-SemiBold
 70
0
 40
0.0
 41
1.0
 50
0.0
 71
0
 42
2.5
  3
OpenSans-SemiBold.ttf
  4

  0
STYLE
  5
46
330
5
100
AcDbSymbolTableRecord
100
AcDbTextStyleTableRecord
  2
OpenSans-SemiBoldItalic
 70
0
 40
0.0
 41
1.0
 50
0.0
 71
0
 42
2.5
  3
OpenSans-SemiBoldItalic.ttf
  4

  0
STYLE
  5
47
330
5
100
AcDbSymbolTableRecord
100
AcDbTextStyleTableRecord
  2
OpenSans-Bold
 70
0
 40
0.0
 41
1.0
 50
0.0
 71
0
 42
2.5
  3
OpenSans-Bold.ttf
  4

  0
STYLE
  5
48
330
5
100
AcDbSymbolTableRecord
100
AcDbTextStyleTableRecord
  2
OpenSans-BoldItalic
 70
0
 40
0.0
 41
1.0
 50
0.0
 71
0
 42
2.5
  3
OpenSans-BoldItalic.ttf
  4

  0
STYLE
  5
49
330
5
100
AcDbSymbolTableRecord
100
AcDbTextStyleTableRecord
  2
OpenSans-ExtraBold
 70
0
 40
0.0
 41
1.0
 50
0.0
 71
0
 42
2.5
  3
OpenSans-ExtraBold.ttf
  4

  0
STYLE
  5
4A
330
5
100
AcDbSymbolTableRecord
100
AcDbTextStyleTableRecord
  2
OpenSans-ExtraBoldItalic
 70
0
 40
0.0
 41
1.0
 50
0.0
 71
0
 42
2.5
  3
OpenSans-ExtraBoldItalic.ttf
  4

  0
STYLE
  5
4B
330
5
100
AcDbSymbolTableRecord
100
AcDbTextStyleTableRecord
  2
OpenSansCondensed-Bold
 70
0
 40
0.0
 41
1.0
 50
0.0
 71
0
 42
2.5
  3
OpenSansCondensed-Bold.ttf
  4

  0
STYLE
  5
4C
330
5
100
AcDbSymbolTableRecord
100
AcDbTextStyleTableRecord
  2
OpenSansCondensed-Light
 70
0
 40
0.0
 41
1.0
 50
0.0
 71
0
 42
2.5
  3
OpenSansCondensed-Light.ttf
  4

  0
STYLE
  5
4D
330
5
100
AcDbSymbolTableRecord
100
AcDbTextStyleTableRecord
  2
OpenSansCondensed-Italic
 70
0
 40
0.0
 41
1.0
 50
0.0
 71
0
 42
2.5
  3
OpenSansCondensed-LightItalic.ttf
  4

  0
STYLE
  5
4E
330
5
100
AcDbSymbolTableRecord
100
AcDbTextStyleTableRecord
  2
LiberationSans
 70
0
 40
0.0
 41
1.0
 50
0.0
 71
0
 42
2.5
  3
LiberationSans-Regular.ttf
  4

  0
STYLE
  5
4F
330
5
100
AcDbSymbolTableRecord
100
AcDbTextStyleTableRecord
  2
LiberationSans-Bold
 70
0
 40
0.0
 41
1.0
 50
0.0
 71
0
 42
2.5
  3
LiberationSans-Bold.ttf
  4

  0
STYLE
  5
50
330
5
100
AcDbSymbolTableRecord
100
AcDbTextStyleTableRecord
  2
LiberationSans-BoldItalic
 70
0
 40
0.0
 41
1.0
 50
0.0
 71
0
 42
2.5
  3
LiberationSans-BoldItalic.ttf
  4

  0
STYLE
  5
51
330
5
100
AcDbSymbolTableRecord
100
AcDbTextStyleTableRecord
  2
LiberationSans-Italic
 70
0
 40
0.0
 41
1.0
 50
0.0
 71
0
 42
2.5
  3
LiberationSans-Italic.ttf
  4

  0
STYLE
  5
52
330
5
100
AcDbSymbolTableRecord
100
AcDbTextStyleTableRecord
  2
LiberationSerif
 70
0
 40
0.0
 41
1.0
 50
0.0
 71
0
 42
2.5
  3
LiberationSerif-Regular.ttf
  4

  0
STYLE
  5
53
330
5
100
AcDbSymbolTableRecord
100
AcDbTextStyleTableRecord
  2
LiberationSerif-Bold
 70
0
 40
0.0
 41
1.0
 50
0.0
 71
0
 42
2.5
  3
LiberationSerif-Bold.ttf
  4

  0
STYLE
  5
54
330
5
100
AcDbSymbolTableRecord
100
AcDbTextStyleTableRecord
  2
LiberationSerif-BoldItalic
 70
0
 40
0.0
 41
1.0
 50
0.0
 71
0
 42
2.5
  3
LiberationSerif-BoldItalic.ttf
  4

  0
STYLE
  5
55
330
5
100
AcDbSymbolTableRecord
100
AcDbTextStyleTableRecord
  2
LiberationSerif-Italic
 70
0
 40
0.0
 41
1.0
 50
0.0
 71
0
 42
2.5
  3
LiberationSerif-Italic.ttf
  4

  0
STYLE
  5
56
330
5
100
AcDbSymbolTableRecord
100
AcDbTextStyleTableRecord
  2
LiberationMono
 70
0
 40
0.0
 41
1.0
 50
0.0
 71
0
 42
2.5
  3
LiberationMono-Regular.ttf
  4

  0
STYLE
  5
57
330
5
100
AcDbSymbolTableRecord
100
AcDbTextStyleTableRecord
  2
LiberationMono-Bold
 70
0
 40
0.0
 41
1.0
 50
0.0
 71
0
 42
2.5
  3
LiberationMono-Bold.ttf
  4

  0
STYLE
  5
58
330
5
100
AcDbSymbolTableRecord
100
AcDbTextStyleTableRecord
  2
LiberationMono-BoldItalic
 70
0
 40
0.0
 41
1.0
 50
0.0
 71
0
 42
2.5
  3
LiberationMono-BoldItalic.ttf
  4

  0
STYLE
  5
59
330
5
100
AcDbSymbolTableRecord
100
AcDbTextStyleTableRecord
  2
LiberationMono-Italic
 70
0
 40
0.0
 41
1.0
 50
0.0
 71
0
 42
2.5
  3
LiberationMono-Italic.ttf
  4

  0
ENDTAB
  0
TABLE
  2
VIEW
  5
7
330
0
100
AcDbSymbolTable
 70
0
  0
ENDTAB
  0
TABLE
  2
UCS
  5
6
330
0
100
AcDbSymbolTable
 70
0
  0
ENDTAB
  0
TABLE
  2
APPID
  5
3
330
0
100
AcDbSymbolTable
 70
3
  0
APPID
  5
2A
330
3
100
AcDbSymbolTableRecord
100
AcDbRegAppTableRecord
  2
ACAD
 70
0
  0
APPID
  5
12E
330
3
100
AcDbSymbolTableRecord
100
AcDbRegAppTableRecord
  2
HATCHBACKGROUNDCOLOR
 70
0
  0
APPID
  5
12F
330
3
100
AcDbSymbolTableRecord
100
AcDbRegAppTableRecord
  2
EZDXF
 70
0
  0
ENDTAB
  0
TABLE
  2
DIMSTYLE
  5
4
330
0
100
AcDbSymbolTable
 70
12
100
AcDbDimStyleTable
  0
DIMSTYLE
105
2B
330
4
100
AcDbSymbolTableRecord
100
AcDbDimStyleTableRecord
  2
Standard
 70
0
 40
1.0
 41
2.5
 42
0.625
 43
3.75
 44
1.25
 45
0.0
 46
0.0
 47
0.0
 48
0.0
 49
2.5
140
2.5
141
2.5
142
0.0
143
0.03937007874
144
1.0
145
0.0
146
1.0
147
0.625
148
0.0
 69
0
 70
0
 71
0
 72
0
 73
0
 74
0
 75
0
 76
0
 77
1
 78
8
 79
3
170
0
171
3
172
1
173
0
174
0
175
0
176
0
177
0
178
0
179
2
271
2
272
2
273
2
274
3
275
0
276
0
277
2
278
44
279
0
280
0
281
0
282
0
283
0
284
8
285
0
286
0
288
0
289
3
290
0
371
-2
372
-2
  0
DIMSTYLE
105
73
330
4
100
AcDbSymbolTableRecord
100
AcDbDimStyleTableRecord
  2
EZDXF
 70
0
 40
1.0
 41
0.175
 42
0.125
 43
3.75
 44
0.375
 45
0.0
 46
0.0
 47
0.0
 48
0.0
 49
2.5
140
0.25
141
2.5
142
0.0
143
0.03937007874
144
100.0
145
0.0
146
0.5
147
0.1
148
0.0
 69
0
 70
0
 71
0
 72
0
 73
0
 74
0
 75
0
 76
0
 77
1
 78
12
 79
3
170
0
171
3
172
1
173
0
174
0
175
0
176
0
177
0
178
0
179
2
271
2
272
2
273
2
274
3
275
0
276
0
277
2
278
46
279
2
280
0
281
0
282
0
283
0
284
8
285
0
286
0
288
1
289
3
290
0
340
4C
342
74
371
-2
372
-2
  0
DIMSTYLE
105
7C
330
4
100
AcDbSymbolTableRecord
100
AcDbDimStyleTableRecord
  2
EZ_M_100_H25_CM
 70
0
 40
1.0
 41
0.25
 42
0.125
 43
3.75
 44
0.375
 45
0.0
 46
0.0
 47
0.0
 48
0.0
 49
2.5
140
0.25
141
2.5
142
0.125
143
0.03937007874
144
100.0
145
0.0
146
0.5
147
0.1
148
0.0
 69
0
 70
0
 71
0
 72
0
 73
0
 74
0
 75
0
 76
0
 77
1
 78
12
 79
3
170
0
171
3
172
1
173
0
174
0
175
0
176
0
177
0
178
0
179
2
271
2
272
2
273
2
274
3
275
0
276
0
277
2
278
46
279
2
280
0
281
0
282
0
283
0
284
8
285
0
286
0
288
1
289
3
290
0
340
4C
371
-2
372
-2
  0
DIMSTYLE
105
7D
330
4
100
AcDbSymbolTableRecord
100
AcDbDimStyleTableRecord
  2
EZ_M_50_H25_CM
 70
0
 40
1.0
 41
0.125
 42
0.0625
 43
3.75
 44
0.1875
 45
0.0
 46
0.0
 47
0.0
 48
0.0
 49
2.5
140
0.125
141
2.5
142
0.0625
143
0.03937007874
144
100.0
145
0.0
146
0.5
147
0.05
148
0.0
 69
0
 70
0
 71
0
 72
0
 73
0
 74
0
 75
0
 76
0
 77
1
 78
12
 79
3
170
0
171
3
172
1
173
0
174
0
175
0
176
0
177
0
178
0
179
2
271
2
272
2
273
2
274
3
275
0
276
0
277
2
278
46
279
2
280
0
281
0
282
0
283
0
284
8
285
0
286
0
288
1
289
3
290
0
340
4C
371
-2
372
-2
  0
DIMSTYLE
105
7E
330
4
100
AcDbSymbolTableRecord
100
AcDbDimStyleTableRecord
  2
EZ_M_25_H25_CM
 70
0
 40
1.0
 41
0.0625
 42
0.03125
 43
3.75
 44
0.09375
 45
0.0
 46
0.0
 47
0.0
 48
0.0
 49
2.5
140
0.0625
141
2.5
142
0.03125
143
0.03937007874
144
100.0
145
0.0
146
0.5
147
0.025
148
0.0
 69
0
 70
0
 71
0
 72
0
 73
0
 74
0
 75
0
 76
0
 77
1
 78
12
 79
3
170
0
171
3
172
1
173
0
174
0
175
0
176
0
177
0
178
0
179
2
271
2
272
2
273
2
274
3
275
0
276
0
277
2
278
46
279
2
280
0
281
0
282
0
283
0
284
8
285
0
286
0
288
1
289
3
290
0
340
4C
371
-2
372
-2
  0
DIMSTYLE
105
7F
330
4
100
AcDbSymbolTableRecord
100
AcDbDimStyleTableRecord
  2
EZ_M_20_H25_CM
 70
0
 40
1.0
 41
0.05
 42
0.025
 43
3.75
 44
0.07500000000000001
 45
0.0
 46
0.0
 47
0.0
 48
0.0
 49
2.5
140
0.05
141
2.5
142
0.025
143
0.03937007874
144
100.0
145
0.0
146
0.5
147
0.020000000000000004
148
0.0
 69
0
 70
0
 71
0
 72
0
 73
0
 74
0
 75
0
 76
0
 77
1
 78
12
 79
3
170
0
171
3
172
1
173
0
174
0
175
0
176
0
177
0
178
0
179
2
271
2
272
2
273
2
274
3
275
0
276
0
277
2
278
46
279
2
280
0
281
0
282
0
283
0
284
8
285
0
286
0
288
1
289
3
290
0
340
4C
371
-2
372
-2
  0
DIMSTYLE
105
80
330
4
100
AcDbSymbolTableRecord
100
AcDbDimStyleTableRecord
  2
EZ_M_10_H25_CM
 70
0
 40
1.0
 41
0.025
 42
0.0125
 43
3.75
 44
0.037500000000000006
 45
0.0
 46
0.0
 47
0.0
 48
0.0
 49
2.5
140
0.025
141
2.5
142
0.0125
143
0.03937007874
144
100.0
145
0.0
146
0.5
147
0.010000000000000002
148
0.0
 69
0
 70
0
 71
0
 72
0
 73
0
 74
0
 75
0
 76
0
 77
1
 78
12
 79
3
170
0
171
3
172
1
173
0
174
0
175
0
176
0
177
0
178
0
179
2
271
2
272
2
273
2
274
3
275
0
276
0
277
2
278
46
279
2
280
0
281
0
282
0
283
0
284
8
285
0
286
0
288
1
289
3
290
0
340
4C
371
-2
372
-2
  0
DIMSTYLE
105
81
330
4
100
AcDbSymbolTableRecord
100
AcDbDimStyleTableRecord
  2
EZ_M_5_H25_CM
 70
0
 40
1.0
 41
0.0125
 42
0.00625
 43
3.75
 44
0.018750000000000003
 45
0.0
 46
0.0
 47
0.0
 48
0.0
 49
2.5
140
0.0125
141
2.5
142
0.00625
143
0.03937007874
144
100.0
145
0.0
146
0.5
147
0.005000000000000001
148
0.0
 69
0
 70
0
 71
0
 72
0
 73
0
 74
0
 75
0
 76
0
 77
1
 78
12
 79
3
170
0
171
3
172
1
173
0
174
0
175
0
176
0
177
0
178
0
179
2
271
2
272
2
273
2
274
3
275
0
276
0
277
2
278
46
279
2
280
0
281
0
282
0
283
0
284
8
285
0
286
0
288
1
289
3
290
0
340
4C
371
-2
372
-2
  0
DIMSTYLE
105
82
330
4
100
AcDbSymbolTableRecord
100
AcDbDimStyleTableRecord
  2
EZ_M_1_H25_CM
 70
0
 40
1.0
 41
0.0025
 42
0.00125
 43
3.75
 44
0.00375
 45
0.0
 46
0.0
 47
0.0
 48
0.0
 49
2.5
140
0.0025
141
2.5
142
0.00125
143
0.03937007874
144
100.0
145
0.0
146
0.5
147
0.001
148
0.0
 69
0
 70
0
 71
0
 72
0
 73
0
 74
0
 75
0
 76
0
 77
1
 78
12
 79
3
170
0
171
3
172
1
173
0
174
0
175
0
176
0
177
0
178
0
179
2
271
2
272
2
273
2
274
3
275
0
276
0
277
2
278
46
279
2
280
0
281
0
282
0
283
0
284
8
285
0
286
0
288
1
289
3
290
0
340
4C
371
-2
372
-2
  0
DIMSTYLE
105
83
330
4
100
AcDbSymbolTableRecord
100
AcDbDimStyleTableRecord
  2
EZ_RADIUS
 70
0
 40
1.0
 41
0.25
 42
0.125
 43
3.75
 44
0.375
 45
0.0
 46
0.0
 47
0.0
 48
0.0
 49
2.5
140
0.25
141
0.0
142
0.0
143
0.03937007874
144
100.0
145
0.0
146
0.5
147
0.1
148
0.0
 69
0
 70
0
 71
0
 72
0
 73
0
 74
0
 75
0
 76
0
 77
1
 78
12
 79
3
170
0
171
3
172
0
173
0
174
0
175
0
176
0
177
0
178
0
179
2
271
2
272
2
273
2
274
3
275
0
276
0
277
2
278
46
279
1
280
0
281
0
282
0
283
0
284
8
285
0
286
0
288
1
289
3
290
0
340
4C
342
84
371
-2
372
-2
  0
DIMSTYLE
105
88
330
4
100
AcDbSymbolTableRecord
100
AcDbDimStyleTableRecord
  2
EZ_RADIUS_INSIDE
 70
0
 40
1.0
 41
0.25
 42
0.125
 43
3.75
 44
0.375
 45
0.0
 46
0.0
 47
0.0
 48
0.0
 49
2.5
140
0.25
141
0.0
142
0.0
143
0.03937007874
144
100.0
145
0.0
146
0.5
147
0.1
148
0.0
 69
0
 70
0
 71
0
 72
0
 73
0
 74
0
 75
0
 76
0
 77
0
 78
12
 79
3
170
0
171
3
172
0
173
0
174
1
175
0
176
0
177
0
178
0
179
2
271
2
272
2
273
2
274
3
275
0
276
0
277
2
278
46
279
0
280
0
281
0
282
0
283
0
284
8
285
0
286
0
288
1
289
0
290
0
340
4C
342
84
371
-2
372
-2
  0
DIMSTYLE
105
89
330
4
100
AcDbSymbolTableRecord
100
AcDbDimStyleTableRecord
  2
EZ_CURVED
 70
0
 40
1.0
 41
0.25
 42
0.125
 43
3.75
 44
0.375
 45
0.0
 46
0.0
 47
0.0
 48
0.0
 49
2.5
140
0.25
141
2.5
142
0.0
143
0.03937007874
144
100.0
145
0.0
146
0.5
147
0.1
148
0.0
 69
0
 70
0
 71
0
 72
0
 73
0
 74
0
 75
0
 76
0
 77
1
 78
12
 79
2
 90
2
170
0
171
3
172
1
173
0
174
0
175
0
176
0
177
0
178
0
179
2
271
2
272
2
273
2
274
3
275
0
276
0
277
2
278
46
279
2
280
0
281
0
282
0
283
0
284
8
285
0
286
0
288
1
289
3
290
0
340
4C
371
-2
372
-2
  0
ENDTAB
  0
TABLE
  2
BLOCK_RECORD
  5
9
330
0
100
AcDbSymbolTable
 70
5
  0
BLOCK_RECORD
  5
17
330
9
100
AcDbSymbolTableRecord
100
AcDbBlockTableRecord
  2
*Model_Space
340
1A
 70
0
280
1
281
0
  0
BLOCK_RECORD
  5
1B
330
9
100
AcDbSymbolTableRecord
100
AcDbBlockTableRecord
  2
*Paper_Space
340
1E
 70
0
280
1
281
0
  0
BLOCK_RECORD
  5
74
330
9
100
AcDbSymbolTableRecord
100
AcDbBlockTableRecord
  2
_ARCHTICK
340
0
 70
0
280
1
281
0
  0
BLOCK_RECORD
  5
78
330
9
100
AcDbSymbolTableRecord
100
AcDbBlockTableRecord
  2
_CLOSEDFILLED
340
0
 70
0
280
1
281
0
  0
BLOCK_RECORD
  5
84
330
9
100
AcDbSymbolTableRecord
100
AcDbBlockTableRecord
  2
_CLOSEDBLANK
340
0
 70
0
280
1
281
0
  0
ENDTAB
  0
ENDSEC
  0
SECTION
  2
BLOCKS
  0
BLOCK
  5
18
330
17
100
AcDbEntity
  8
0
100
AcDbBlockBegin
  2
*Model_Space
 70
0
 10
0.0
 20
0.0
 30
0.0
  3
*Model_Space
  1

  0
ENDBLK
  5
19
330
17
100
AcDbEntity
  8
0
100
AcDbBlockEnd
  0
BLOCK
  5
1C
330
1B
100
AcDbEntity
  8
0
100
AcDbBlockBegin
  2
*Paper_Space
 70
0
 10
0.0
 20
0.0
 30
0.0
  3
*Paper_Space
  1

  0
ENDBLK
  5
1D
330
1B
100
AcDbEntity
  8
0
100
AcDbBlockEnd
  0
BLOCK
  5
75
330
74
100
AcDbEntity
  8
0
100
AcDbBlockBegin
  2
_ARCHTICK
 70
0
 10
0.0
 20
0.0
 30
0.0
  3
_ARCHTICK
  1

  0
LWPOLYLINE
  5
77
330
74
100
AcDbEntity
  8
0
  6
BYBLOCK
 62
0
100
AcDbPolyline
 90
2
 70
0
 43
0.15
 10
-0.5
 20
-0.5
 10
0.5
 20
0.5
  0
ENDBLK
  5
76
330
74
100
AcDbEntity
  8
0
100
AcDbBlockEnd
  0
BLOCK
  5
79
330
78
100
AcDbEntity
  8
0
100
AcDbBlockBegin
  2
_CLOSEDFILLED
 70
0
 10
0.0
 20
0.0
 30
0.0
  3
_CLOSEDFILLED
  1

  0
SOLID
  5
7B
330
78
100
AcDbEntity
  8
0
  6
BYBLOCK
 62
0
100
AcDbTrace
 10
-1.0
 20
0.16439898372402537
 30
0.0
 11
0.0
 21
0.0
 31
0.0
 12
-1.0
 22
-0.16439898372402537
 32
0.0
 13
-1.0
 23
-0.16439898372402537
 33
0.0
  0
ENDBLK
  5
7A
330
78
100
AcDbEntity
  8
0
100
AcDbBlockEnd
  0
BLOCK
  5
85
330
84
100
AcDbEntity
  8
0
100
AcDbBlockBegin
  2
_CLOSEDBLANK
 70
0
 10
0.0
 20
0.0
 30
0.0
  3
_CLOSEDBLANK
  1

  0
LWPOLYLINE
  5
87
330
84
100
AcDbEntity
  8
0
  6
BYBLOCK
 62
0
100
AcDbPolyline
 90
3
 70
1
 10
-1.0
 20
0.16439898372402537
 10
0.0
 20
0.0
 10
-1.0
 20
-0.16439898372402537
  0
ENDBLK
  5
86
330
84
100
AcDbEntity
  8
0
100
AcDbBlockEnd
  0
ENDSEC
  0
SECTION
  2
ENTITIES
  0
LWPOLYLINE
  5
8C
330
17
100
AcDbEntity
  8
Front elevation
100
AcDbPolyline
 90
4
 70
0
 10
9.094488188976378
 20
0.0
 10
9.094488188976378
 20
92.99212598425197
 10
43.11023622047244
 20
92.99212598425197
 10
43.11023622047244
 20
0.0
  0
LWPOLYLINE
  5
8D
330
17
100
AcDbEntity
  8
Front elevation
  6
DASHED
100
AcDbPolyline
 90
4
 70
0
 10
7.086614173228346
 20
0.0
 10
7.086614173228346
 20
95.0
 10
45.11811023622047
 20
95.0
 10
45.11811023622047
 20
0.0
  0
LWPOLYLINE
  5
8E
330
17
100
AcDbEntity
  8
Front elevation
100
AcDbPolyline
 90
5
 70
0
 10
11.10236220472441
 20
90.98425196850394
 10
41.10236220472441
 20
90.98425196850394
 10
41.10236220472441
 20
0.0
 10
11.10236220472441
 20
0.0
 10
11.10236220472441
 20
90.98425196850394
  0
LINE
  5
8F
330
17
100
AcDbEntity
  8
Front elevation
100
AcDbLine
 10
15.039370078740157
 20
87.04724409448819
 30
0.0
 11
37.16535433070866
 21
87.04724409448819
 31
0.0
  0
LINE
  5
90
330
17
100
AcDbEntity
  8
Front elevation
100
AcDbLine
 10
15.039370078740157
 20
9.05511811023622
 30
0.0
 11
37.16535433070866
 21
9.05511811023622
 31
0.0
  0
LINE
  5
91
330
17
100
AcDbEntity
  8
Front elevation
100
AcDbLine
 10
15.039370078740157
 20
42.24409448818898
 30
0.0
 11
15.039370078740157
 21
33.188976377952756
 31
0.0
  0
LINE
  5
92
330
17
100
AcDbEntity
  8
Front elevation
100
AcDbLine
 10
37.16535433070866
 20
42.24409448818898
 30
0.0
 11
37.16535433070866
 21
33.188976377952756
 31
0.0
  0
LINE
  5
93
330
17
100
AcDbEntity
  8
Front elevation
100
AcDbLine
 10
15.039370078740157
 20
90.98425196850394
 30
0.0
 11
15.039370078740157
 21
87.04724409448819
 31
0.0
  0
LINE
  5
94
330
17
100
AcDbEntity
  8
Front elevation
100
AcDbLine
 10
37.16535433070866
 20
90.98425196850394
 30
0.0
 11
37.16535433070866
 21
87.04724409448819
 31
0.0
  0
LINE
  5
95
330
17
100
AcDbEntity
  8
Front elevation
100
AcDbLine
 10
15.039370078740157
 20
9.05511811023622
 30
0.0
 11
15.039370078740157
 21
0.0
 31
0.0
  0
LINE
  5
96
330
17
100
AcDbEntity
  8
Front elevation
100
AcDbLine
 10
37.16535433070866
 20
9.05511811023622
 30
0.0
 11
37.16535433070866
 21
0.0
 31
0.0
  0
LWPOLYLINE
  5
97
330
17
100
AcDbEntity
  8
Front elevation
100
AcDbPolyline
 90
5
 70
0
 10
15.039370078740157
 20
87.04724409448819
 10
37.16535433070866
 20
87.04724409448819
 10
37.16535433070866
 20
42.24409448818898
 10
15.039370078740157
 20
42.24409448818898
 10
15.039370078740157
 20
87.04724409448819
  0
LWPOLYLINE
  5
98
330
17
100
AcDbEntity
  8
Front elevation
100
AcDbPolyline
 90
5
 70
0
 10
15.826771653543307
 20
86.25984251968504
 10
36.37795275590551
 20
86.25984251968504
 10
36.37795275590551
 20
43.03149606299213
 10
15.826771653543307
 20
43.03149606299213
 10
15.826771653543307
 20
86.25984251968504
  0
LINE
  5
99
330
17
100
AcDbEntity
  8
Front elevation
100
AcDbLine
 10
15.039370078740157
 20
87.04724409448819
 30
0.0
 11
15.826771653543307
 21
86.25984251968504
 31
0.0
  0
LINE
  5
9A
330
17
100
AcDbEntity
  8
Front elevation
100
AcDbLine
 10
37.16535433070866
 20
87.04724409448819
 30
0.0
 11
36.37795275590551
 21
86.25984251968504
 31
0.0
  0
LINE
  5
9B
330
17
100
AcDbEntity
  8
Front elevation
100
AcDbLine
 10
15.039370078740157
 20
42.24409448818898
 30
0.0
 11
15.826771653543307
 21
43.031496062992126
 31
0.0
  0
LINE
  5
9C
330
17
100
AcDbEntity
  8
Front elevation
100
AcDbLine
 10
37.16535433070866
 20
42.24409448818898
 30
0.0
 11
36.37795275590551
 21
43.031496062992126
 31
0.0
  0
POLYLINE
  5
9D
330
17
100
AcDbEntity
  8
Front elevation
100
AcDb2dPolyline
 66
1
 10
0.0
 20
0.0
 30
0.0
 70
0
  0
VERTEX
  5
9E
330
9D
100
AcDbEntity
  8
Front elevation
100
AcDbVertex
100
AcDb2dVertex
 10
16.8503937007874
 20
46.417322834645674
 30
0.0
 70
0
  0
VERTEX
  5
9F
330
9D
100
AcDbEntity
  8
Front elevation
100
AcDbVertex
100
AcDb2dVertex
 10
16.8503937007874
 20
82.8740157480315
 30
0.0
 70
0
  0
SEQEND
  5
A0
330
9D
100
AcDbEntity
  8
Front elevation
  0
SPLINE
  5
A1
330
17
100
AcDbEntity
  8
Front elevation
100
AcDbSpline
 70
0
 71
3
 72
14
 73
10
 74
0
 40
0.0
 40
0.0
 40
0.0
 40
0.0
 40
1.0
 40
1.0
 40
1.0
 40
2.0
 40
2.0
 40
2.0
 40
3.0
 40
3.0
 40
3.0
 40
3.0
 10
16.8503937007874
 20
82.8740157480315
 30
0.0
 10
17.030063522553597
 20
82.8740157480315
 30
0.0
 10
17.2066060944665
 20
82.92132018760528
 30
0.0
 10
17.362204724409448
 20
83.01115509848837
 30
0.0
 10
17.517803354352395
 20
83.10099000937147
 30
0.0
 10
17.647041486691524
 20
83.2302281417106
 30
0.0
 10
17.736876397574623
 20
83.38582677165354
 30
0.0
 10
17.826711308457718
 20
83.5414254015965
 30
0.0
 10
17.874015748031496
 20
83.7179679735094
 30
0.0
 10
17.874015748031496
 20
83.8976377952756
 30
0.0
  0
SPLINE
  5
A2
330
17
100
AcDbEntity
  8
Front elevation
100
AcDbSpline
 70
0
 71
3
 72
11
 73
7
 74
0
 40
0.0
 40
0.0
 40
0.0
 40
0.0
 40
1.0
 40
1.0
 40
1.0
 40
2.0
 40
2.0
 40
2.0
 40
2.0
 10
17.874015748031496
 20
83.8976377952756
 30
0.0
 10
21.988188976377952
 20
83.8976377952756
 30
0.0
 10
21.000787401574804
 20
85.23622047244095
 30
0.0
 10
26.102362204724407
 20
85.23622047244095
 30
0.0
 10
31.203937007874018
 20
85.23622047244095
 30
0.0
 10
30.216535433070867
 20
83.8976377952756
 30
0.0
 10
34.330708661417326
 20
83.8976377952756
 30
0.0
  0
SPLINE
  5
A3
330
17
100
AcDbEntity
  8
Front elevation
100
AcDbSpline
 70
0
 71
3
 72
14
 73
10
 74
0
 40
0.0
 40
0.0
 40
0.0
 40
0.0
 40
1.0
 40
1.0
 40
1.0
 40
2.0
 40
2.0
 40
2.0
 40
3.0
 40
3.0
 40
3.0
 40
3.0
 10
34.330708661417326
 20
83.8976377952756
 30
0.0
 10
34.330708661417326
 20
83.7179679735094
 30
0.0
 10
34.3780131009911
 20
83.5414254015965
 30
0.0
 10
34.467848011874196
 20
83.38582677165354
 30
0.0
 10
34.557682922757294
 20
83.2302281417106
 30
0.0
 10
34.68692105509643
 20
83.10099000937147
 30
0.0
 10
34.84251968503937
 20
83.01115509848837
 30
0.0
 10
34.998118314982314
 20
82.92132018760528
 30
0.0
 10
35.174660886895225
 20
82.8740157480315
 30
0.0
 10
35.354330708661415
 20
82.8740157480315
 30
0.0
  0
POLYLINE
  5
A4
330
17
100
AcDbEntity
  8
Front elevation
100
AcDb2dPolyline
 66
1
 10
0.0
 20
0.0
 30
0.0
 70
0
  0
VERTEX
  5
A5
330
A4
100
AcDbEntity
  8
Front elevation
100
AcDbVertex
100
AcDb2dVertex
 10
35.354330708661415
 20
82.8740157480315
 30
0.0
 70
0
  0
VERTEX
  5
A6
330
A4
100
AcDbEntity
  8
Front elevation
100
AcDbVertex
100
AcDb2dVertex
 10
35.354330708661415
 20
46.417322834645674
 30
0.0
 70
0
  0
SEQEND
  5
A7
330
A4
100
AcDbEntity
  8
Front elevation
  0
SPLINE
  5
A8
330
17
100
AcDbEntity
  8
Front elevation
100
AcDbSpline
 70
0
 71
3
 72
14
 73
10
 74
0
 40
0.0
 40
0.0
 40
0.0
 40
0.0
 40
1.0
 40
1.0
 40
1.0
 40
2.0
 40
2.0
 40
2.0
 40
3.0
 40
3.0
 40
3.0
 40
3.0
 10
35.354330708661415
 20
46.417322834645674
 30
0.0
 10
35.174660886895225
 20
46.417322834645674
 30
0.0
 10
34.998118314982314
 20
46.37001839507189
 30
0.0
 10
34.84251968503937
 20
46.2801834841888
 30
0.0
 10
34.68692105509643
 20
46.190348573305705
 30
0.0
 10
34.557682922757294
 20
46.06111044096657
 30
0.0
 10
34.467848011874196
 20
45.90551181102363
 30
0.0
 10
34.3780131009911
 20
45.74991318108068
 30
0.0
 10
34.330708661417326
 20
45.573370609167775
 30
0.0
 10
34.330708661417326
 20
45.39370078740158
 30
0.0
  0
SPLINE
  5
A9
330
17
100
AcDbEntity
  8
Front elevation
100
AcDbSpline
 70
0
 71
3
 72
11
 73
7
 74
0
 40
0.0
 40
0.0
 40
0.0
 40
0.0
 40
1.0
 40
1.0
 40
1.0
 40
2.0
 40
2.0
 40
2.0
 40
2.0
 10
34.330708661417326
 20
45.39370078740158
 30
0.0
 10
30.216535433070867
 20
45.39370078740158
 30
0.0
 10
31.203937007874018
 20
44.05511811023622
 30
0.0
 10
26.102362204724407
 20
44.05511811023622
 30
0.0
 10
21.000787401574804
 20
44.05511811023622
 30
0.0
 10
21.988188976377952
 20
45.39370078740158
 30
0.0
 10
17.874015748031496
 20
45.39370078740158
 30
0.0
  0
SPLINE
  5
AA
330
17
100
AcDbEntity
  8
Front elevation
100
AcDbSpline
 70
0
 71
3
 72
14
 73
10
 74
0
 40
0.0
 40
0.0
 40
0.0
 40
0.0
 40
1.0
 40
1.0
 40
1.0
 40
2.0
 40
2.0
 40
2.0
 40
3.0
 40
3.0
 40
3.0
 40
3.0
 10
17.874015748031496
 20
45.39370078740158
 30
0.0
 10
17.874015748031496
 20
45.573370609167775
 30
0.0
 10
17.826711308457718
 20
45.74991318108068
 30
0.0
 10
17.736876397574623
 20
45.90551181102363
 30
0.0
 10
17.647041486691524
 20
46.06111044096657
 30
0.0
 10
17.517803354352395
 20
46.190348573305705
 30
0.0
 10
17.362204724409448
 20
46.2801834841888
 30
0.0
 10
17.2066060944665
 20
46.37001839507189
 30
0.0
 10
17.030063522553597
 20
46.417322834645674
 30
0.0
 10
16.8503937007874
 20
46.417322834645674
 30
0.0
  0
CIRCLE
  5
AB
330
17
100
AcDbEntity
  8
Front elevation
100
AcDbCircle
 10
16.95275590551181
 20
84.0
 30
0.0
 40
9.0
  0
CIRCLE
  5
AC
330
17
100
AcDbEntity
  8
Front elevation
100
AcDbCircle
 10
16.95275590551181
 20
84.0
 30
0.0
 40
3.6
  0
CIRCLE
  5
AD
330
17
100
AcDbEntity
  8
Front elevation
100
AcDbCircle
 10
35.25196850393701
 20
84.0
 30
0.0
 40
9.0
  0
CIRCLE
  5
AE
330
17
100
AcDbEntity
  8
Front elevation
100
AcDbCircle
 10
35.25196850393701
 20
84.0
 30
0.0
 40
3.6
  0
CIRCLE
  5
AF
330
17
100
AcDbEntity
  8
Front elevation
100
AcDbCircle
 10
16.95275590551181
 20
45.29133858267717
 30
0.0
 40
9.0
  0
CIRCLE
  5
B0
330
17
100
AcDbEntity
  8
Front elevation
100
AcDbCircle
 10
16.95275590551181
 20
45.29133858267717
 30
0.0
 40
3.6
  0
CIRCLE
  5
B1
330
17
100
AcDbEntity
  8
Front elevation
100
AcDbCircle
 10
35.25196850393701
 20
45.29133858267717
 30
0.0
 40
9.0
  0
CIRCLE
  5
B2
330
17
100
AcDbEntity
  8
Front elevation
100
AcDbCircle
 10
35.25196850393701
 20
45.29133858267717
 30
0.0
 40
3.6
  0
LWPOLYLINE
  5
B3
330
17
100
AcDbEntity
  8
Front elevation
100
AcDbPolyline
 90
5
 70
0
 10
15.039370078740157
 20
33.18897637795276
 10
37.16535433070866
 20
33.18897637795276
 10
37.16535433070866
 20
9.055118110236222
 10
15.039370078740157
 20
9.055118110236222
 10
15.039370078740157
 20
33.18897637795276
  0
LWPOLYLINE
  5
B4
330
17
100
AcDbEntity
  8
Front elevation
100
AcDbPolyline
 90
5
 70
0
 10
15.826771653543307
 20
32.40157480314961
 10
36.37795275590551
 20
32.40157480314961
 10
36.37795275590551
 20
9.842519685039377
 10
15.826771653543307
 20
9.842519685039377
 10
15.826771653543307
 20
32.40157480314961
  0
LINE
  5
B5
330
17
100
AcDbEntity
  8
Front elevation
100
AcDbLine
 10
15.039370078740157
 20
33.188976377952756
 30
0.0
 11
15.826771653543307
 21
32.40157480314961
 31
0.0
  0
LINE
  5
B6
330
17
100
AcDbEntity
  8
Front elevation
100
AcDbLine
 10
37.16535433070866
 20
33.188976377952756
 30
0.0
 11
36.37795275590551
 21
32.40157480314961
 31
0.0
  0
LINE
  5
B7
330
17
100
AcDbEntity
  8
Front elevation
100
AcDbLine
 10
15.039370078740157
 20
9.05511811023622
 30
0.0
 11
15.826771653543307
 21
9.84251968503937
 31
0.0
  0
LINE
  5
B8
330
17
100
AcDbEntity
  8
Front elevation
100
AcDbLine
 10
37.16535433070866
 20
9.05511811023622
 30
0.0
 11
36.37795275590551
 21
9.84251968503937
 31
0.0
  0
POLYLINE
  5
B9
330
17
100
AcDbEntity
  8
Front elevation
100
AcDb2dPolyline
 66
1
 10
0.0
 20
0.0
 30
0.0
 70
0
  0
VERTEX
  5
BA
330
B9
100
AcDbEntity
  8
Front elevation
100
AcDbVertex
100
AcDb2dVertex
 10
16.8503937007874
 20
13.228346456692918
 30
0.0
 70
0
  0
VERTEX
  5
BB
330
B9
100
AcDbEntity
  8
Front elevation
100
AcDbVertex
100
AcDb2dVertex
 10
16.8503937007874
 20
29.015748031496067
 30
0.0
 70
0
  0
SEQEND
  5
BC
330
B9
100
AcDbEntity
  8
Front elevation
  0
SPLINE
  5
BD
330
17
100
AcDbEntity
  8
Front elevation
100
AcDbSpline
 70
0
 71
3
 72
14
 73
10
 74
0
 40
0.0
 40
0.0
 40
0.0
 40
0.0
 40
1.0
 40
1.0
 40
1.0
 40
2.0
 40
2.0
 40
2.0
 40
3.0
 40
3.0
 40
3.0
 40
3.0
 10
16.8503937007874
 20
29.015748031496067
 30
0.0
 10
17.030063522553597
 20
29.015748031496067
 30
0.0
 10
17.2066060944665
 20
29.063052471069852
 30
0.0
 10
17.362204724409448
 20
29.152887381952944
 30
0.0
 10
17.517803354352395
 20
29.242722292836035
 30
0.0
 10
17.647041486691524
 20
29.371960425175168
 30
0.0
 10
17.736876397574623
 20
29.527559055118118
 30
0.0
 10
17.826711308457718
 20
29.68315768506106
 30
0.0
 10
17.874015748031496
 20
29.859700256973966
 30
0.0
 10
17.874015748031496
 20
30.039370078740163
 30
0.0
  0
SPLINE
  5
BE
330
17
100
AcDbEntity
  8
Front elevation
100
AcDbSpline
 70
0
 71
3
 72
11
 73
7
 74
0
 40
0.0
 40
0.0
 40
0.0
 40
0.0
 40
1.0
 40
1.0
 40
1.0
 40
2.0
 40
2.0
 40
2.0
 40
2.0
 10
17.874015748031496
 20
30.039370078740163
 30
0.0
 10
21.988188976377952
 20
30.039370078740163
 30
0.0
 10
21.000787401574804
 20
31.37795275590552
 30
0.0
 10
26.102362204724407
 20
31.37795275590552
 30
0.0
 10
31.203937007874018
 20
31.37795275590552
 30
0.0
 10
30.216535433070867
 20
30.039370078740163
 30
0.0
 10
34.330708661417326
 20
30.039370078740163
 30
0.0
  0
SPLINE
  5
BF
330
17
100
AcDbEntity
  8
Front elevation
100
AcDbSpline
 70
0
 71
3
 72
14
 73
10
 74
0
 40
0.0
 40
0.0
 40
0.0
 40
0.0
 40
1.0
 40
1.0
 40
1.0
 40
2.0
 40
2.0
 40
2.0
 40
3.0
 40
3.0
 40
3.0
 40
3.0
 10
34.330708661417326
 20
30.039370078740163
 30
0.0
 10
34.330708661417326
 20
29.859700256973966
 30
0.0
 10
34.3780131009911
 20
29.68315768506106
 30
0.0
 10
34.467848011874196
 20
29.527559055118118
 30
0.0
 10
34.557682922757294
 20
29.371960425175168
 30
0.0
 10
34.68692105509643
 20
29.242722292836035
 30
0.0
 10
34.84251968503937
 20
29.152887381952944
 30
0.0
 10
34.998118314982314
 20
29.063052471069852
 30
0.0
 10
35.174660886895225
 20
29.015748031496067
 30
0.0
 10
35.354330708661415
 20
29.015748031496067
 30
0.0
  0
POLYLINE
  5
C0
330
17
100
AcDbEntity
  8
Front elevation
100
AcDb2dPolyline
 66
1
 10
0.0
 20
0.0
 30
0.0
 70
0
  0
VERTEX
  5
C1
330
C0
100
AcDbEntity
  8
Front elevation
100
AcDbVertex
100
AcDb2dVertex
 10
35.354330708661415
 20
29.015748031496067
 30
0.0
 70
0
  0
VERTEX
  5
C2
330
C0
100
AcDbEntity
  8
Front elevation
100
AcDbVertex
100
AcDb2dVertex
 10
35.354330708661415
 20
13.228346456692918
 30
0.0
 70
0
  0
SEQEND
  5
C3
330
C0
100
AcDbEntity
  8
Front elevation
  0
SPLINE
  5
C4
330
17
100
AcDbEntity
  8
Front elevation
100
AcDbSpline
 70
0
 71
3
 72
14
 73
10
 74
0
 40
0.0
 40
0.0
 40
0.0
 40
0.0
 40
1.0
 40
1.0
 40
1.0
 40
2.0
 40
2.0
 40
2.0
 40
3.0
 40
3.0
 40
3.0
 40
3.0
 10
35.354330708661415
 20
13.228346456692918
 30
0.0
 10
35.174660886895225
 20
13.228346456692918
 30
0.0
 10
34.998118314982314
 20
13.18104201711914
 30
0.0
 10
34.84251968503937
 20
13.091207106236041
 30
0.0
 10
34.68692105509643
 20
13.001372195352957
 30
0.0
 10
34.557682922757294
 20
12.872134063013817
 30
0.0
 10
34.467848011874196
 20
12.716535433070874
 30
0.0
 10
34.3780131009911
 20
12.560936803127916
 30
0.0
 10
34.330708661417326
 20
12.384394231215012
 30
0.0
 10
34.330708661417326
 20
12.20472440944883
 30
0.0
  0
SPLINE
  5
C5
330
17
100
AcDbEntity
  8
Front elevation
100
AcDbSpline
 70
0
 71
3
 72
11
 73
7
 74
0
 40
0.0
 40
0.0
 40
0.0
 40
0.0
 40
1.0
 40
1.0
 40
1.0
 40
2.0
 40
2.0
 40
2.0
 40
2.0
 10
34.330708661417326
 20
12.20472440944883
 30
0.0
 10
30.216535433070867
 20
12.20472440944883
 30
0.0
 10
31.203937007874018
 20
10.866141732283467
 30
0.0
 10
26.102362204724407
 20
10.866141732283467
 30
0.0
 10
21.000787401574804
 20
10.866141732283467
 30
0.0
 10
21.988188976377952
 20
12.20472440944883
 30
0.0
 10
17.874015748031496
 20
12.20472440944883
 30
0.0
  0
SPLINE
  5
C6
330
17
100
AcDbEntity
  8
Front elevation
100
AcDbSpline
 70
0
 71
3
 72
14
 73
10
 74
0
 40
0.0
 40
0.0
 40
0.0
 40
0.0
 40
1.0
 40
1.0
 40
1.0
 40
2.0
 40
2.0
 40
2.0
 40
3.0
 40
3.0
 40
3.0
 40
3.0
 10
17.874015748031496
 20
12.20472440944883
 30
0.0
 10
17.874015748031496
 20
12.384394231215012
 30
0.0
 10
17.826711308457718
 20
12.560936803127916
 30
0.0
 10
17.736876397574623
 20
12.716535433070874
 30
0.0
 10
17.647041486691524
 20
12.872134063013817
 30
0.0
 10
17.517803354352395
 20
13.001372195352957
 30
0.0
 10
17.362204724409448
 20
13.091207106236041
 30
0.0
 10
17.2066060944665
 20
13.18104201711914
 30
0.0
 10
17.030063522553597
 20
13.228346456692918
 30
0.0
 10
16.8503937007874
 20
13.228346456692918
 30
0.0
  0
CIRCLE
  5
C7
330
17
100
AcDbEntity
  8
Front elevation
100
AcDbCircle
 10
16.95275590551181
 20
30.141732283464563
 30
0.0
 40
9.0
  0
CIRCLE
  5
C8
330
17
100
AcDbEntity
  8
Front elevation
100
AcDbCircle
 10
16.95275590551181
 20
30.141732283464563
 30
0.0
 40
3.6
  0
CIRCLE
  5
C9
330
17
100
AcDbEntity
  8
Front elevation
100
AcDbCircle
 10
35.25196850393701
 20
30.141732283464563
 30
0.0
 40
9.0
  0
CIRCLE
  5
CA
330
17
100
AcDbEntity
  8
Front elevation
100
AcDbCircle
 10
35.25196850393701
 20
30.141732283464563
 30
0.0
 40
3.6
  0
CIRCLE
  5
CB
330
17
100
AcDbEntity
  8
Front elevation
100
AcDbCircle
 10
16.95275590551181
 20
12.102362204724413
 30
0.0
 40
9.0
  0
CIRCLE
  5
CC
330
17
100
AcDbEntity
  8
Front elevation
100
AcDbCircle
 10
16.95275590551181
 20
12.102362204724413
 30
0.0
 40
3.6
  0
CIRCLE
  5
CD
330
17
100
AcDbEntity
  8
Front elevation
100
AcDbCircle
 10
35.25196850393701
 20
12.102362204724413
 30
0.0
 40
9.0
  0
CIRCLE
  5
CE
330
17
100
AcDbEntity
  8
Front elevation
100
AcDbCircle
 10
35.25196850393701
 20
12.102362204724413
 30
0.0
 40
3.6
  0
CIRCLE
  5
CF
330
17
100
AcDbEntity
  8
Front elevation
100
AcDbCircle
 10
16.22047244094488
 20
37.71653543307087
 30
0.0
 40
27.5
  0
CIRCLE
  5
D0
330
17
100
AcDbEntity
  8
Front elevation
100
AcDbCircle
 10
16.22047244094488
 20
37.71653543307087
 30
0.0
 40
17.5
  0
CIRCLE
  5
D1
330
17
100
AcDbEntity
  8
Front elevation
100
AcDbCircle
 10
12.755905511811024
 20
37.71653543307087
 30
0.0
 40
17.0
  0
SPLINE
  5
D2
330
17
100
AcDbEntity
  8
Front elevation
100
AcDbSpline
 70
0
 71
3
 72
35
 73
31
 74
0
 40
0.0
 40
0.0
 40
0.0
 40
0.0
 40
1.0
 40
1.0
 40
1.0
 40
2.0
 40
2.0
 40
2.0
 40
3.0
 40
3.0
 40
3.0
 40
4.0
 40
4.0
 40
4.0
 40
5.0
 40
5.0
 40
5.0
 40
6.0
 40
6.0
 40
6.0
 40
7.0
 40
7.0
 40
7.0
 40
8.0
 40
8.0
 40
8.0
 40
9.0
 40
9.0
 40
9.0
 40
10.0
 40
10.0
 40
10.0
 40
10.0
 10
12.637795275590552
 20
37.75590551181103
 30
0.0
 10
12.616460234270079
 20
37.774988152889165
 30
0.0
 10
12.600064290096489
 20
37.79896009865495
 30
0.0
 10
12.590015756296504
 20
37.825762302801884
 30
0.0
 10
12.579967222496519
 20
37.852564506948816
 30
0.0
 10
12.576562282105641
 20
37.8814069678368
 30
0.0
 10
12.580093399073364
 20
37.9098122911341
 30
0.0
 10
12.583624516041086
 20
37.938217614431395
 30
0.0
 10
12.593987609815652
 20
37.9653485461618
 30
0.0
 10
12.610292552821736
 20
37.98887470207882
 30
0.0
 10
12.626597495827822
 20
38.01240085799583
 30
0.0
 10
12.64836369581093
 20
38.031628798796554
 30
0.0
 10
12.673721566792544
 20
38.04490695973635
 30
0.0
 10
12.699079437774158
 20
38.05818512067615
 30
0.0
 10
12.72728155019382
 20
38.0651221246555
 30
0.0
 10
12.755905511811028
 20
38.0651221246555
 30
0.0
 10
12.784529473428236
 20
38.0651221246555
 30
0.0
 10
12.812731585847898
 20
38.05818512067615
 30
0.0
 10
12.838089456829511
 20
38.04490695973635
 30
0.0
 10
12.863447327811123
 20
38.031628798796554
 30
0.0
 10
12.885213527794232
 20
38.01240085799582
 30
0.0
 10
12.901518470800315
 20
37.98887470207881
 30
0.0
 10
12.9178234138064
 20
37.96534854616179
 30
0.0
 10
12.928186507580964
 20
37.93821761443139
 30
0.0
 10
12.931717624548684
 20
37.90981229113409
 30
0.0
 10
12.935248741516405
 20
37.881406967836796
 30
0.0
 10
12.931843801125526
 20
37.8525645069488
 30
0.0
 10
12.921795267325539
 20
37.82576230280188
 30
0.0
 10
12.911746733525554
 20
37.798960098654945
 30
0.0
 10
12.89535078935197
 20
37.774988152889165
 30
0.0
 10
12.874015748031496
 20
37.75590551181103
 30
0.0
  0
POLYLINE
  5
D3
330
17
100
AcDbEntity
  8
Front elevation
100
AcDb2dPolyline
 66
1
 10
0.0
 20
0.0
 30
0.0
 70
0
  0
VERTEX
  5
D4
330
D3
100
AcDbEntity
  8
Front elevation
100
AcDbVertex
100
AcDb2dVertex
 10
12.874015748031496
 20
37.75590551181103
 30
0.0
 70
0
  0
VERTEX
  5
D5
330
D3
100
AcDbEntity
  8
Front elevation
100
AcDbVertex
100
AcDb2dVertex
 10
12.933070866141732
 20
37.322834645669296
 30
0.0
 70
0
  0
VERTEX
  5
D6
330
D3
100
AcDbEntity
  8
Front elevation
100
AcDbVertex
100
AcDb2dVertex
 10
12.578740157480315
 20
37.322834645669296
 30
0.0
 70
0
  0
VERTEX
  5
D7
330
D3
100
AcDbEntity
  8
Front elevation
100
AcDbVertex
100
AcDb2dVertex
 10
12.637795275590552
 20
37.75590551181103
 30
0.0
 70
0
  0
SEQEND
  5
D8
330
D3
100
AcDbEntity
  8
Front elevation
  0
LINE
  5
D9
330
17
100
AcDbEntity
  8
Front elevation
100
AcDbLine
 10
0.0
 20
0.0
 30
0.0
 11
52.204724409448815
 21
0.0
 31
0.0
  0
TEXT
  5
DA
330
17
100
AcDbEntity
  8
LABELS
100
AcDbText
 10
0.0
 20
97.36220472440945
 30
0.0
 40
1.0440944881889764
  1
FRONT ELEVATION  (1:1, inches)
 11
0.0
 21
97.36220472440945
 31
0.0
100
AcDbText
  0
LWPOLYLINE
  5
DD
330
17
100
AcDbEntity
  8
Panel head - detail A
100
AcDbPolyline
 90
2
 70
0
 10
63.818897637795274
 20
8.937007874015748
 10
63.818897637795274
 20
7.362204724409449
  0
LWPOLYLINE
  5
DE
330
17
100
AcDbEntity
  8
Panel head - detail A
100
AcDbPolyline
 90
2
 70
0
 10
85.94488188976378
 20
8.937007874015748
 10
85.94488188976378
 20
7.362204724409449
  0
LWPOLYLINE
  5
DF
330
17
100
AcDbEntity
  8
Panel head - detail A
100
AcDbPolyline
 90
3
 70
0
 10
63.818897637795274
 20
7.362204724409449
 10
85.94488188976378
 20
7.362204724409449
 10
85.94488188976378
 20
0.47244094488188976
  0
LWPOLYLINE
  5
E0
330
17
100
AcDbEntity
  8
Panel head - detail A
100
AcDbPolyline
 90
2
 70
0
 10
63.818897637795274
 20
0.47244094488188976
 10
63.818897637795274
 20
7.362204724409449
  0
LWPOLYLINE
  5
E1
330
17
100
AcDbEntity
  8
Panel head - detail A
100
AcDbPolyline
 90
3
 70
0
 10
64.60629921259843
 20
6.574803149606299
 10
85.15748031496062
 20
6.574803149606299
 10
85.15748031496062
 20
0.47244094488188976
  0
LWPOLYLINE
  5
E2
330
17
100
AcDbEntity
  8
Panel head - detail A
100
AcDbPolyline
 90
2
 70
0
 10
64.60629921259843
 20
0.47244094488188976
 10
64.60629921259843
 20
6.574803149606299
  0
LWPOLYLINE
  5
E3
330
17
100
AcDbEntity
  8
Panel head - detail A
100
AcDbPolyline
 90
2
 70
0
 10
63.818897637795274
 20
7.362204724409449
 10
64.60629921259843
 20
6.574803149606299
  0
LWPOLYLINE
  5
E4
330
17
100
AcDbEntity
  8
Panel head - detail A
100
AcDbPolyline
 90
2
 70
0
 10
85.94488188976378
 20
7.362204724409449
 10
85.15748031496062
 20
6.574803149606299
  0
LWPOLYLINE
  5
E5
330
17
100
AcDbEntity
  8
Panel head - detail A
100
AcDbPolyline
 90
79
 70
0
 10
65.62992125984252
 20
0.47244094488188976
 10
65.62992125984252
 20
3.188976377952756
 10
65.76380888100535
 20
3.1977713671187074
 10
65.89485346858726
 20
3.2238579616000314
 10
66.02138470770231
 20
3.2667886018719368
 10
66.14173228346456
 20
3.32611572840963
 10
66.25328487006087
 20
3.4006762230347682
 10
66.3537295146946
 20
3.4887901703447732
 10
66.4418434620046
 20
3.5892348149785
 10
66.51640395662974
 20
3.7007874015748032
 10
66.57573108316744
 20
3.8211349773370578
 10
66.61866172343933
 20
3.9476662164521086
 10
66.64474831792066
 20
4.07871080403402
 10
66.65354330708661
 20
4.21259842519685
 10
67.02464253583292
 20
4.216438353531004
 10
67.36789877583662
 20
4.227631336122047
 10
67.68536107821727
 20
4.245687169352855
 10
67.9790784940945
 20
4.270115649606299
 10
68.25110007458784
 20
4.300426573265256
 10
68.50347487081693
 20
4.336129736712598
 10
68.73825193390132
 20
4.376734936331201
 10
68.95748031496063
 20
4.421751968503937
 10
69.16320906511442
 20
4.4706906296136815
 10
69.35748723548228
 20
4.523060716043307
 10
69.71988804133858
 20
4.636134350393701
 10
70.3974409448819
 20
4.881889763779528
 10
70.74537786048228
 20
5.0067282849409445
 10
71.12127829724409
 20
5.127645177165355
 10
71.3248374638595
 20
5.185407503383366
 10
71.54153466412401
 20
5.240718811515748
 10
71.77341894915723
 20
5.293088897945374
 10
72.02253937007873
 20
5.342027559055118
 10
72.29094497800811
 20
5.387044591227855
 10
72.58068482406496
 20
5.4276497908464565
 10
72.89380795936886
 20
5.463352954293799
 10
73.23236343503937
 20
5.493663877952756
 10
73.59840030219611
 20
5.518092358206201
 10
73.99396761195867
 20
5.536148191437007
 10
74.4211144154466
 20
5.547341174028051
 10
74.88188976377953
 20
5.551181102362205
 10
75.34266511211246
 20
5.547341174028051
 10
75.7698119156004
 20
5.536148191437007
 10
76.16537922536294
 20
5.518092358206201
 10
76.53141609251969
 20
5.493663877952756
 10
76.8699715681902
 20
5.463352954293799
 10
77.18309470349409
 20
5.4276497908464565
 10
77.47283454955094
 20
5.387044591227855
 10
77.74124015748032
 20
5.342027559055118
 10
77.99036057840182
 20
5.293088897945374
 10
78.22224486343504
 20
5.240718811515748
 10
78.43894206369956
 20
5.185407503383366
 10
78.64250123031496
 20
5.127645177165355
 10
79.01840166707677
 20
5.0067282849409445
 10
79.36633858267716
 20
4.881889763779528
 10
80.04389148622047
 20
4.636134350393701
 10
80.40629229207677
 20
4.523060716043307
 10
80.60057046244464
 20
4.4706906296136815
 10
80.80629921259842
 20
4.421751968503937
 10
81.02552759365773
 20
4.376734936331201
 10
81.26030465674212
 20
4.336129736712598
 10
81.51267945297121
 20
4.300426573265256
 10
81.78470103346456
 20
4.270115649606299
 10
82.07841844934178
 20
4.245687169352855
 10
82.39588075172243
 20
4.227631336122047
 10
82.73913699172613
 20
4.216438353531004
 10
83.11023622047244
 20
4.21259842519685
 10
83.1190312096384
 20
4.07871080403402
 10
83.14511780411972
 20
3.9476662164521086
 10
83.18804844439161
 20
3.8211349773370578
 10
83.24737557092932
 20
3.7007874015748032
 10
83.32193606555447
 20
3.5892348149785
 10
83.41005001286446
 20
3.4887901703447732
 10
83.51049465749819
 20
3.4006762230347682
 10
83.62204724409449
 20
3.32611572840963
 10
83.74239481985674
 20
3.2667886018719368
 10
83.8689260589718
 20
3.2238579616000314
 10
83.9999706465537
 20
3.1977713671187074
 10
84.13385826771653
 20
3.188976377952756
 10
84.13385826771653
 20
0.47244094488188976
  0
LWPOLYLINE
  5
E6
330
17
100
AcDbEntity
  8
Panel head - detail A
100
AcDbPolyline
 90
49
 70
0
 10
66.08661417322834
 20
4.314960629921259
 10
66.08356975390167
 20
4.268614914903356
 10
66.0745397788889
 20
4.223253326894234
 10
66.05967917264094
 20
4.179454051815947
 10
66.03914285960866
 20
4.137795275590551
 10
66.01333345762303
 20
4.0991809186918315
 10
65.98283247586188
 20
4.06441161862631
 10
65.94806317579636
 20
4.033910636865155
 10
65.90944881889763
 20
4.008101234879529
 10
65.86779004267224
 20
3.9875649218472504
 10
65.82399076759395
 20
3.9727043155992834
 10
65.77862917958484
 20
3.9636743405865174
 10
65.73228346456692
 20
3.960629921259842
 10
65.68593774954903
 20
3.9636743405865174
 10
65.6405761615399
 20
3.9727043155992834
 10
65.59677688646161
 20
3.9875649218472504
 10
65.55511811023622
 20
4.008101234879529
 10
65.5165037533375
 20
4.033910636865155
 10
65.48173445327198
 20
4.06441161862631
 10
65.45123347151083
 20
4.0991809186918315
 10
65.42542406952519
 20
4.137795275590551
 10
65.40488775649291
 20
4.179454051815947
 10
65.39002715024495
 20
4.223253326894234
 10
65.38099717523218
 20
4.268614914903356
 10
65.37795275590551
 20
4.314960629921259
 10
65.38099717523218
 20
4.3613063449391625
 10
65.39002715024495
 20
4.406667932948285
 10
65.40488775649291
 20
4.450467208026572
 10
65.42542406952519
 20
4.4921259842519685
 10
65.45123347151083
 20
4.530740341150688
 10
65.48173445327198
 20
4.565509641216209
 10
65.5165037533375
 20
4.5960106229773645
 10
65.55511811023622
 20
4.6218200249629895
 10
65.59677688646161
 20
4.642356337995269
 10
65.6405761615399
 20
4.657216944243236
 10
65.68593774954903
 20
4.666246919256001
 10
65.73228346456692
 20
4.669291338582677
 10
65.77862917958484
 20
4.666246919256001
 10
65.82399076759395
 20
4.657216944243236
 10
65.86779004267224
 20
4.642356337995269
 10
65.90944881889763
 20
4.6218200249629895
 10
65.94806317579636
 20
4.5960106229773645
 10
65.98283247586188
 20
4.565509641216209
 10
66.01333345762303
 20
4.530740341150688
 10
66.03914285960866
 20
4.4921259842519685
 10
66.05967917264094
 20
4.450467208026572
 10
66.0745397788889
 20
4.406667932948285
 10
66.08356975390167
 20
4.3613063449391625
 10
66.08661417322834
 20
4.314960629921259
  0
LWPOLYLINE
  5
E7
330
17
100
AcDbEntity
  8
Panel head - detail A
100
AcDbPolyline
 90
49
 70
0
 10
65.8740157480315
 20
4.314960629921259
 10
65.87279798030083
 20
4.2964223439141
 10
65.86918599029572
 20
4.2782777087104495
 10
65.86324174779654
 20
4.260757998679135
 10
65.85502722258362
 20
4.244094488188977
 10
65.84470346178936
 20
4.2286487454294885
 10
65.83250306908491
 20
4.21474102540328
 10
65.8185953490587
 20
4.202540632698818
 10
65.80314960629921
 20
4.192216871904568
 10
65.78648609580905
 20
4.184002346691656
 10
65.76896638577773
 20
4.17805810419247
 10
65.75082175057409
 20
4.174446114187362
 10
65.73228346456692
 20
4.173228346456693
 10
65.71374517855976
 20
4.174446114187362
 10
65.69560054335611
 20
4.17805810419247
 10
65.6780808333248
 20
4.184002346691656
 10
65.66141732283464
 20
4.192216871904568
 10
65.64597158007516
 20
4.202540632698818
 10
65.63206386004896
 20
4.21474102540328
 10
65.61986346734449
 20
4.2286487454294885
 10
65.60953970655024
 20
4.244094488188976
 10
65.60132518133733
 20
4.260757998679134
 10
65.59538093883813
 20
4.2782777087104495
 10
65.59176894883304
 20
4.296422343914098
 10
65.59055118110236
 20
4.314960629921259
 10
65.59176894883304
 20
4.33349891592842
 10
65.59538093883813
 20
4.35164355113207
 10
65.60132518133733
 20
4.369163261163384
 10
65.60953970655024
 20
4.385826771653543
 10
65.61986346734449
 20
4.401272514413031
 10
65.63206386004896
 20
4.415180234439239
 10
65.64597158007516
 20
4.427380627143701
 10
65.66141732283464
 20
4.437704387937951
 10
65.6780808333248
 20
4.445918913150862
 10
65.69560054335611
 20
4.45186315565005
 10
65.71374517855976
 20
4.455475145655156
 10
65.73228346456692
 20
4.456692913385826
 10
65.75082175057409
 20
4.455475145655156
 10
65.76896638577773
 20
4.45186315565005
 10
65.78648609580905
 20
4.445918913150862
 10
65.80314960629921
 20
4.437704387937951
 10
65.8185953490587
 20
4.427380627143701
 10
65.83250306908491
 20
4.415180234439239
 10
65.84470346178936
 20
4.401272514413031
 10
65.85502722258362
 20
4.3858267716535435
 10
65.86324174779654
 20
4.369163261163385
 10
65.86918599029572
 20
4.35164355113207
 10
65.87279798030083
 20
4.333498915928421
 10
65.8740157480315
 20
4.314960629921259
  0
LWPOLYLINE
  5
E8
330
17
100
AcDbEntity
  8
Panel head - detail A
100
AcDbPolyline
 90
49
 70
0
 10
84.38582677165354
 20
4.314960629921259
 10
84.38278235232687
 20
4.268614914903356
 10
84.3737523773141
 20
4.223253326894234
 10
84.35889177106613
 20
4.179454051815947
 10
84.33835545803386
 20
4.137795275590551
 10
84.31254605604823
 20
4.0991809186918315
 10
84.28204507428707
 20
4.06441161862631
 10
84.24727577422155
 20
4.033910636865155
 10
84.20866141732284
 20
4.008101234879529
 10
84.16700264109744
 20
3.9875649218472504
 10
84.12320336601914
 20
3.9727043155992834
 10
84.07784177801004
 20
3.9636743405865174
 10
84.03149606299213
 20
3.960629921259842
 10
83.98515034797423
 20
3.9636743405865174
 10
83.9397887599651
 20
3.9727043155992834
 10
83.89598948488681
 20
3.9875649218472504
 10
83.85433070866142
 20
4.008101234879529
 10
83.8157163517627
 20
4.033910636865155
 10
83.78094705169718
 20
4.06441161862631
 10
83.75044606993602
 20
4.0991809186918315
 10
83.7246366679504
 20
4.137795275590551
 10
83.70410035491811
 20
4.179454051815947
 10
83.68923974867015
 20
4.223253326894234
 10
83.6802097736574
 20
4.268614914903356
 10
83.67716535433071
 20
4.314960629921259
 10
83.6802097736574
 20
4.3613063449391625
 10
83.68923974867015
 20
4.406667932948285
 10
83.70410035491811
 20
4.450467208026572
 10
83.7246366679504
 20
4.4921259842519685
 10
83.75044606993602
 20
4.530740341150688
 10
83.78094705169717
 20
4.565509641216209
 10
83.8157163517627
 20
4.5960106229773645
 10
83.85433070866142
 20
4.6218200249629895
 10
83.89598948488681
 20
4.642356337995269
 10
83.9397887599651
 20
4.657216944243236
 10
83.98515034797423
 20
4.666246919256001
 10
84.03149606299213
 20
4.669291338582677
 10
84.07784177801004
 20
4.666246919256001
 10
84.12320336601914
 20
4.657216944243236
 10
84.16700264109744
 20
4.642356337995269
 10
84.20866141732284
 20
4.6218200249629895
 10
84.24727577422155
 20
4.5960106229773645
 10
84.28204507428707
 20
4.565509641216209
 10
84.31254605604823
 20
4.530740341150688
 10
84.33835545803386
 20
4.4921259842519685
 10
84.35889177106613
 20
4.450467208026572
 10
84.37375237731409
 20
4.406667932948285
 10
84.38278235232687
 20
4.3613063449391625
 10
84.38582677165354
 20
4.314960629921259
  0
LWPOLYLINE
  5
E9
330
17
100
AcDbEntity
  8
Panel head - detail A
100
AcDbPolyline
 90
49
 70
0
 10
84.1732283464567
 20
4.314960629921259
 10
84.17201057872602
 20
4.2964223439141
 10
84.16839858872092
 20
4.2782777087104495
 10
84.16245434622172
 20
4.260757998679135
 10
84.15423982100883
 20
4.244094488188977
 10
84.14391606021456
 20
4.2286487454294885
 10
84.13171566751012
 20
4.21474102540328
 10
84.1178079474839
 20
4.202540632698818
 10
84.1023622047244
 20
4.192216871904568
 10
84.08569869423425
 20
4.184002346691656
 10
84.06817898420293
 20
4.17805810419247
 10
84.05003434899929
 20
4.174446114187362
 10
84.03149606299213
 20
4.173228346456693
 10
84.01295777698496
 20
4.174446114187362
 10
83.99481314178132
 20
4.17805810419247
 10
83.97729343175
 20
4.184002346691656
 10
83.96062992125984
 20
4.192216871904568
 10
83.94518417850036
 20
4.202540632698818
 10
83.93127645847414
 20
4.21474102540328
 10
83.91907606576967
 20
4.2286487454294885
 10
83.90875230497544
 20
4.244094488188976
 10
83.90053777976252
 20
4.260757998679134
 10
83.89459353726333
 20
4.2782777087104495
 10
83.89098154725824
 20
4.296422343914098
 10
83.88976377952757
 20
4.314960629921259
 10
83.89098154725824
 20
4.33349891592842
 10
83.89459353726333
 20
4.35164355113207
 10
83.90053777976252
 20
4.369163261163384
 10
83.90875230497544
 20
4.385826771653543
 10
83.91907606576967
 20
4.401272514413031
 10
83.93127645847414
 20
4.415180234439239
 10
83.94518417850034
 20
4.427380627143701
 10
83.96062992125984
 20
4.437704387937951
 10
83.97729343175
 20
4.445918913150862
 10
83.99481314178131
 20
4.45186315565005
 10
84.01295777698496
 20
4.455475145655156
 10
84.03149606299213
 20
4.456692913385826
 10
84.05003434899928
 20
4.455475145655156
 10
84.06817898420293
 20
4.45186315565005
 10
84.08569869423424
 20
4.445918913150862
 10
84.1023622047244
 20
4.437704387937951
 10
84.1178079474839
 20
4.427380627143701
 10
84.1317156675101
 20
4.415180234439239
 10
84.14391606021456
 20
4.401272514413031
 10
84.15423982100883
 20
4.3858267716535435
 10
84.16245434622172
 20
4.369163261163385
 10
84.16839858872092
 20
4.35164355113207
 10
84.17201057872602
 20
4.333498915928421
 10
84.1732283464567
 20
4.314960629921259
  0
LWPOLYLINE
  5
EA
330
17
100
AcDbEntity
  8
Panel head - detail A
100
AcDbPolyline
 90
6
 70
0
 10
62.047244094488185
 20
0.4724409448818889
 10
74.40944881889763
 20
0.4724409448818889
 10
74.7244094488189
 20
0.9448818897637796
 10
75.03937007874015
 20
0.0
 10
75.35433070866142
 20
0.4724409448818889
 10
87.71653543307086
 20
0.4724409448818889
  0
TEXT
  5
EB
330
17
100
AcDbEntity
  8
LABELS
100
AcDbText
 10
62.047244094488185
 20
11.299212598425196
 30
0.0
 40
0.7086614173228346
  1
PANEL HEAD - DETAIL A  (1:1, inches)
 11
62.047244094488185
 21
11.299212598425196
 31
0.0
100
AcDbText
  0
POLYLINE
  5
EE
330
17
100
AcDbEntity
  8
Section B-B
100
AcDb2dPolyline
 66
1
 10
0.0
 20
0.0
 30
0.0
 70
0
  0
VERTEX
  5
EF
330
EE
100
AcDbEntity
  8
Section B-B
100
AcDbVertex
100
AcDb2dVertex
 10
97.55905511811024
 20
1.7716535433070866
 30
0.0
 70
0
  0
VERTEX
  5
F0
330
EE
100
AcDbEntity
  8
Section B-B
100
AcDbVertex
100
AcDb2dVertex
 10
100.70866141732283
 20
1.7716535433070866
 30
0.0
 70
0
  0
VERTEX
  5
F1
330
EE
100
AcDbEntity
  8
Section B-B
100
AcDbVertex
100
AcDb2dVertex
 10
100.70866141732283
 20
1.6929133858267715
 30
0.0
 70
0
  0
SEQEND
  5
F2
330
EE
100
AcDbEntity
  8
Section B-B
  0
SPLINE
  5
F3
330
17
100
AcDbEntity
  8
Section B-B
100
AcDbSpline
 70
0
 71
3
 72
8
 73
4
 74
0
 40
0.0
 40
0.0
 40
0.0
 40
0.0
 40
1.0
 40
1.0
 40
1.0
 40
1.0
 10
100.70866141732283
 20
1.6929133858267715
 30
0.0
 10
101.23359580052494
 20
1.6929133858267715
 30
0.0
 10
101.49606299212599
 20
1.5419947506561678
 30
0.0
 10
101.49606299212599
 20
1.2401574803149606
 30
0.0
  0
POLYLINE
  5
F4
330
17
100
AcDbEntity
  8
Section B-B
100
AcDb2dPolyline
 66
1
 10
0.0
 20
0.0
 30
0.0
 70
0
  0
VERTEX
  5
F5
330
F4
100
AcDbEntity
  8
Section B-B
100
AcDbVertex
100
AcDb2dVertex
 10
101.49606299212599
 20
1.2401574803149606
 30
0.0
 70
0
  0
VERTEX
  5
F6
330
F4
100
AcDbEntity
  8
Section B-B
100
AcDbVertex
100
AcDb2dVertex
 10
101.49606299212599
 20
0.5314960629921259
 30
0.0
 70
0
  0
SEQEND
  5
F7
330
F4
100
AcDbEntity
  8
Section B-B
  0
SPLINE
  5
F8
330
17
100
AcDbEntity
  8
Section B-B
100
AcDbSpline
 70
0
 71
3
 72
8
 73
4
 74
0
 40
0.0
 40
0.0
 40
0.0
 40
0.0
 40
1.0
 40
1.0
 40
1.0
 40
1.0
 10
101.49606299212599
 20
0.5314960629921259
 30
0.0
 10
101.49606299212599
 20
0.2296587926509187
 30
0.0
 10
101.23359580052494
 20
0.07874015748031504
 30
0.0
 10
100.70866141732283
 20
0.07874015748031504
 30
0.0
  0
POLYLINE
  5
F9
330
17
100
AcDbEntity
  8
Section B-B
100
AcDb2dPolyline
 66
1
 10
0.0
 20
0.0
 30
0.0
 70
0
  0
VERTEX
  5
FA
330
F9
100
AcDbEntity
  8
Section B-B
100
AcDbVertex
100
AcDb2dVertex
 10
100.70866141732283
 20
0.07874015748031504
 30
0.0
 70
0
  0
VERTEX
  5
FB
330
F9
100
AcDbEntity
  8
Section B-B
100
AcDbVertex
100
AcDb2dVertex
 10
100.70866141732283
 20
0.0
 30
0.0
 70
0
  0
VERTEX
  5
FC
330
F9
100
AcDbEntity
  8
Section B-B
100
AcDbVertex
100
AcDb2dVertex
 10
97.55905511811024
 20
0.0
 30
0.0
 70
0
  0
VERTEX
  5
FD
330
F9
100
AcDbEntity
  8
Section B-B
100
AcDbVertex
100
AcDb2dVertex
 10
97.55905511811024
 20
1.7716535433070866
 30
0.0
 70
0
  0
SEQEND
  5
FE
330
F9
100
AcDbEntity
  8
Section B-B
  0
LWPOLYLINE
  5
FF
330
17
100
AcDbEntity
  8
Section B-B
  6
DASHED
100
AcDbPolyline
 90
5
 70
0
 10
101.49606299212599
 20
1.2401574803149606
 10
101.96850393700788
 20
1.2401574803149606
 10
101.96850393700788
 20
0.5314960629921259
 10
101.49606299212599
 20
0.5314960629921259
 10
101.49606299212599
 20
1.2401574803149606
  0
POLYLINE
  5
100
330
17
100
AcDbEntity
  8
Section B-B
100
AcDb2dPolyline
 66
1
 10
0.0
 20
0.0
 30
0.0
 70
0
  0
VERTEX
  5
101
330
100
100
AcDbEntity
  8
Section B-B
100
AcDbVertex
100
AcDb2dVertex
 10
127.55905511811024
 20
1.7716535433070866
 30
0.0
 70
0
  0
VERTEX
  5
102
330
100
100
AcDbEntity
  8
Section B-B
100
AcDbVertex
100
AcDb2dVertex
 10
124.40944881889763
 20
1.7716535433070866
 30
0.0
 70
0
  0
VERTEX
  5
103
330
100
100
AcDbEntity
  8
Section B-B
100
AcDbVertex
100
AcDb2dVertex
 10
124.40944881889763
 20
1.6929133858267715
 30
0.0
 70
0
  0
SEQEND
  5
104
330
100
100
AcDbEntity
  8
Section B-B
  0
SPLINE
  5
105
330
17
100
AcDbEntity
  8
Section B-B
100
AcDbSpline
 70
0
 71
3
 72
8
 73
4
 74
0
 40
0.0
 40
0.0
 40
0.0
 40
0.0
 40
1.0
 40
1.0
 40
1.0
 40
1.0
 10
124.40944881889763
 20
1.6929133858267715
 30
0.0
 10
123.88451443569554
 20
1.6929133858267715
 30
0.0
 10
123.62204724409449
 20
1.5419947506561678
 30
0.0
 10
123.62204724409449
 20
1.2401574803149606
 30
0.0
  0
POLYLINE
  5
106
330
17
100
AcDbEntity
  8
Section B-B
100
AcDb2dPolyline
 66
1
 10
0.0
 20
0.0
 30
0.0
 70
0
  0
VERTEX
  5
107
330
106
100
AcDbEntity
  8
Section B-B
100
AcDbVertex
100
AcDb2dVertex
 10
123.62204724409449
 20
1.2401574803149606
 30
0.0
 70
0
  0
VERTEX
  5
108
330
106
100
AcDbEntity
  8
Section B-B
100
AcDbVertex
100
AcDb2dVertex
 10
123.62204724409449
 20
0.5314960629921259
 30
0.0
 70
0
  0
SEQEND
  5
109
330
106
100
AcDbEntity
  8
Section B-B
  0
SPLINE
  5
10A
330
17
100
AcDbEntity
  8
Section B-B
100
AcDbSpline
 70
0
 71
3
 72
8
 73
4
 74
0
 40
0.0
 40
0.0
 40
0.0
 40
0.0
 40
1.0
 40
1.0
 40
1.0
 40
1.0
 10
123.62204724409449
 20
0.5314960629921259
 30
0.0
 10
123.62204724409449
 20
0.2296587926509187
 30
0.0
 10
123.88451443569554
 20
0.07874015748031504
 30
0.0
 10
124.40944881889763
 20
0.07874015748031504
 30
0.0
  0
POLYLINE
  5
10B
330
17
100
AcDbEntity
  8
Section B-B
100
AcDb2dPolyline
 66
1
 10
0.0
 20
0.0
 30
0.0
 70
0
  0
VERTEX
  5
10C
330
10B
100
AcDbEntity
  8
Section B-B
100
AcDbVertex
100
AcDb2dVertex
 10
124.40944881889763
 20
0.07874015748031504
 30
0.0
 70
0
  0
VERTEX
  5
10D
330
10B
100
AcDbEntity
  8
Section B-B
100
AcDbVertex
100
AcDb2dVertex
 10
124.40944881889763
 20
0.0
 30
0.0
 70
0
  0
VERTEX
  5
10E
330
10B
100
AcDbEntity
  8
Section B-B
100
AcDbVertex
100
AcDb2dVertex
 10
127.55905511811024
 20
0.0
 30
0.0
 70
0
  0
VERTEX
  5
10F
330
10B
100
AcDbEntity
  8
Section B-B
100
AcDbVertex
100
AcDb2dVertex
 10
127.55905511811024
 20
1.7716535433070866
 30
0.0
 70
0
  0
SEQEND
  5
110
330
10B
100
AcDbEntity
  8
Section B-B
  0
LWPOLYLINE
  5
111
330
17
100
AcDbEntity
  8
Section B-B
  6
DASHED
100
AcDbPolyline
 90
5
 70
0
 10
123.14960629921259
 20
1.2401574803149606
 10
123.62204724409449
 20
1.2401574803149606
 10
123.62204724409449
 20
0.5314960629921259
 10
123.14960629921259
 20
0.5314960629921259
 10
123.14960629921259
 20
1.2401574803149606
  0
LWPOLYLINE
  5
112
330
17
100
AcDbEntity
  8
Section B-B
100
AcDbPolyline
 90
5
 70
0
 10
101.53543307086615
 20
1.2401574803149606
 10
123.58267716535433
 20
1.2401574803149606
 10
123.58267716535433
 20
0.5314960629921259
 10
101.53543307086615
 20
0.5314960629921259
 10
101.53543307086615
 20
1.2401574803149606
  0
LWPOLYLINE
  5
113
330
17
100
AcDbEntity
  8
Section B-B
100
AcDbPolyline
 90
3
 70
0
 10
103.18897637795276
 20
1.2401574803149606
 10
103.30708661417323
 20
1.141732283464567
 10
103.4251968503937
 20
1.2401574803149606
  0
LWPOLYLINE
  5
114
330
17
100
AcDbEntity
  8
Section B-B
100
AcDbPolyline
 90
3
 70
0
 10
121.69291338582677
 20
1.2401574803149606
 10
121.81102362204724
 20
1.141732283464567
 10
121.92913385826772
 20
1.2401574803149606
  0
TEXT
  5
115
330
17
100
AcDbEntity
  8
LABELS
100
AcDbText
 10
97.55905511811024
 20
4.133858267716535
 30
0.0
 40
0.7086614173228346
  1
SECTION B-B  (1:1, inches)
 11
97.55905511811024
 21
4.133858267716535
 31
0.0
100
AcDbText
  0
LWPOLYLINE
  5
118
330
17
100
AcDbEntity
  8
Lock rail - detail C
100
AcDbPolyline
 90
2
 70
0
 10
167.79527559055117
 20
13.779527559055119
 10
167.79527559055117
 20
0.0
  0
LWPOLYLINE
  5
119
330
17
100
AcDbEntity
  8
Lock rail - detail C
100
AcDbPolyline
 90
2
 70
0
 10
137.79527559055117
 20
0.0
 10
137.79527559055117
 20
13.779527559055119
  0
LWPOLYLINE
  5
11A
330
17
100
AcDbEntity
  8
Lock rail - detail C
100
AcDbPolyline
 90
2
 70
0
 10
141.73228346456693
 20
11.417322834645669
 10
141.73228346456693
 20
2.3622047244094486
  0
LWPOLYLINE
  5
11B
330
17
100
AcDbEntity
  8
Lock rail - detail C
100
AcDbPolyline
 90
2
 70
0
 10
163.85826771653544
 20
11.417322834645669
 10
163.85826771653544
 20
2.3622047244094486
  0
LWPOLYLINE
  5
11C
330
17
100
AcDbEntity
  8
Lock rail - detail C
100
AcDbPolyline
 90
4
 70
0
 10
163.85826771653544
 20
13.779527559055119
 10
163.85826771653544
 20
11.417322834645669
 10
141.73228346456693
 20
11.417322834645669
 10
141.73228346456693
 20
13.779527559055119
  0
LWPOLYLINE
  5
11D
330
17
100
AcDbEntity
  8
Lock rail - detail C
100
AcDbPolyline
 90
4
 70
0
 10
163.07086614173227
 20
13.779527559055119
 10
163.07086614173227
 20
12.204724409448819
 10
142.51968503937007
 20
12.204724409448819
 10
142.51968503937007
 20
13.779527559055119
  0
LWPOLYLINE
  5
11E
330
17
100
AcDbEntity
  8
Lock rail - detail C
100
AcDbPolyline
 90
2
 70
0
 10
141.73228346456693
 20
11.417322834645669
 10
142.51968503937007
 20
12.204724409448819
  0
LWPOLYLINE
  5
11F
330
17
100
AcDbEntity
  8
Lock rail - detail C
100
AcDbPolyline
 90
2
 70
0
 10
163.85826771653544
 20
11.417322834645669
 10
163.07086614173227
 20
12.204724409448819
  0
LWPOLYLINE
  5
120
330
17
100
AcDbEntity
  8
Lock rail - detail C
100
AcDbPolyline
 90
29
 70
0
 10
156.95053986841882
 20
13.779527559055119
 10
156.93178749384842
 20
13.772799274114172
 10
156.5558870570866
 20
13.651882381889763
 10
156.3523278904712
 20
13.594120055671752
 10
156.13563069020668
 20
13.53880874753937
 10
155.90374640517348
 20
13.486438661109744
 10
155.65462598425196
 20
13.4375
 10
155.3862203763226
 20
13.392482967827263
 10
155.09648053026575
 20
13.351877768208661
 10
154.78335739496185
 20
13.316174604761319
 10
154.44480191929134
 20
13.285863681102361
 10
154.0787650521346
 20
13.261435200848917
 10
153.68319774237204
 20
13.24337936761811
 10
153.2560509388841
 20
13.232186385027067
 10
152.79527559055117
 20
13.228346456692913
 10
152.33450024221827
 20
13.232186385027067
 10
151.90735343873033
 20
13.24337936761811
 10
151.51178612896777
 20
13.261435200848917
 10
151.14574926181103
 20
13.285863681102361
 10
150.80719378614052
 20
13.316174604761319
 10
150.49407065083662
 20
13.351877768208661
 10
150.20433080477977
 20
13.392482967827263
 10
149.93592519685038
 20
13.4375
 10
149.6868047759289
 20
13.486438661109744
 10
149.4549204908957
 20
13.53880874753937
 10
149.23822329063117
 20
13.594120055671752
 10
149.03466412401573
 20
13.651882381889763
 10
148.65876368725392
 20
13.772799274114172
 10
148.64001131268353
 20
13.779527559055119
  0
LWPOLYLINE
  5
121
330
17
100
AcDbEntity
  8
Lock rail - detail C
100
AcDbPolyline
 90
3
 70
0
 10
141.73228346456693
 20
2.3622047244094486
 10
163.85826771653544
 20
2.3622047244094486
 10
163.85826771653544
 20
0.0
  0
LWPOLYLINE
  5
122
330
17
100
AcDbEntity
  8
Lock rail - detail C
100
AcDbPolyline
 90
2
 70
0
 10
141.73228346456693
 20
0.0
 10
141.73228346456693
 20
2.3622047244094486
  0
LWPOLYLINE
  5
123
330
17
100
AcDbEntity
  8
Lock rail - detail C
100
AcDbPolyline
 90
3
 70
0
 10
142.51968503937007
 20
1.574803149606299
 10
163.07086614173227
 20
1.574803149606299
 10
163.07086614173227
 20
0.0
  0
LWPOLYLINE
  5
124
330
17
100
AcDbEntity
  8
Lock rail - detail C
100
AcDbPolyline
 90
2
 70
0
 10
142.51968503937007
 20
0.0
 10
142.51968503937007
 20
1.574803149606299
  0
LWPOLYLINE
  5
125
330
17
100
AcDbEntity
  8
Lock rail - detail C
100
AcDbPolyline
 90
2
 70
0
 10
141.73228346456693
 20
2.3622047244094486
 10
142.51968503937007
 20
1.574803149606299
  0
LWPOLYLINE
  5
126
330
17
100
AcDbEntity
  8
Lock rail - detail C
100
AcDbPolyline
 90
2
 70
0
 10
163.85826771653544
 20
2.3622047244094486
 10
163.07086614173227
 20
1.574803149606299
  0
LWPOLYLINE
  5
127
330
17
100
AcDbEntity
  8
Lock rail - detail C
100
AcDbPolyline
 90
29
 70
0
 10
148.64001131268353
 20
0.0
 10
148.65876368725392
 20
0.006728284940944882
 10
149.03466412401573
 20
0.12764517716535434
 10
149.23822329063117
 20
0.18540750338336615
 10
149.4549204908957
 20
0.24071881151574803
 10
149.6868047759289
 20
0.293088897945374
 10
149.93592519685038
 20
0.3420275590551181
 10
150.20433080477977
 20
0.38704459122785434
 10
150.49407065083662
 20
0.4276497908464567
 10
150.80719378614052
 20
0.4633529542937992
 10
151.14574926181103
 20
0.4936638779527559
 10
151.51178612896777
 20
0.5180923582062008
 10
151.90735343873033
 20
0.5361481914370079
 10
152.33450024221827
 20
0.5473411740280512
 10
152.79527559055117
 20
0.5511811023622047
 10
153.2560509388841
 20
0.5473411740280512
 10
153.68319774237204
 20
0.5361481914370079
 10
154.0787650521346
 20
0.5180923582062008
 10
154.44480191929134
 20
0.4936638779527559
 10
154.78335739496185
 20
0.4633529542937992
 10
155.09648053026575
 20
0.4276497908464567
 10
155.3862203763226
 20
0.38704459122785434
 10
155.65462598425196
 20
0.3420275590551181
 10
155.90374640517348
 20
0.293088897945374
 10
156.13563069020668
 20
0.24071881151574803
 10
156.3523278904712
 20
0.18540750338336615
 10
156.5558870570866
 20
0.12764517716535434
 10
156.93178749384842
 20
0.006728284940944882
 10
156.95053986841882
 20
0.0
  0
LWPOLYLINE
  5
128
330
17
100
AcDbEntity
  8
Lock rail - detail C
100
AcDbPolyline
 90
49
 70
0
 10
143.99606299212599
 20
6.889763779527559
 10
143.98676059973891
 20
6.748151872528411
 10
143.95916900942214
 20
6.609547020278313
 10
143.91376160144225
 20
6.475715901983551
 10
143.85101175606584
 20
6.3484251968503935
 10
143.77214969444307
 20
6.230436884104297
 10
143.6789522501729
 20
6.124197356126319
 10
143.57271272219492
 20
6.030999911856125
 10
143.45472440944883
 20
5.952137850233379
 10
143.32743370431567
 20
5.889388004856977
 10
143.1936025860209
 20
5.843980596877073
 10
143.0549977337708
 20
5.816389006560289
 10
142.91338582677164
 20
5.807086614173229
 10
142.7717739197725
 20
5.816389006560289
 10
142.6331690675224
 20
5.843980596877073
 10
142.49933794922765
 20
5.889388004856977
 10
142.3720472440945
 20
5.952137850233379
 10
142.2540589313484
 20
6.030999911856125
 10
142.14781940337042
 20
6.124197356126319
 10
142.05462195910022
 20
6.230436884104297
 10
141.97575989747747
 20
6.3484251968503935
 10
141.91301005210107
 20
6.475715901983551
 10
141.86760264412118
 20
6.609547020278313
 10
141.84001105380437
 20
6.748151872528411
 10
141.83070866141733
 20
6.889763779527559
 10
141.84001105380437
 20
7.031375686526706
 10
141.86760264412118
 20
7.169980538776805
 10
141.91301005210107
 20
7.303811657071567
 10
141.97575989747747
 20
7.431102362204724
 10
142.05462195910022
 20
7.54909067495082
 10
142.14781940337042
 20
7.655330202928798
 10
142.2540589313484
 20
7.748527647198993
 10
142.3720472440945
 20
7.827389708821738
 10
142.49933794922765
 20
7.89013955419814
 10
142.6331690675224
 20
7.935546962178044
 10
142.7717739197725
 20
7.963138552494828
 10
142.91338582677164
 20
7.97244094488189
 10
143.05499773377082
 20
7.963138552494828
 10
143.1936025860209
 20
7.935546962178044
 10
143.32743370431567
 20
7.89013955419814
 10
143.45472440944883
 20
7.827389708821738
 10
143.57271272219492
 20
7.748527647198993
 10
143.6789522501729
 20
7.655330202928798
 10
143.77214969444307
 20
7.54909067495082
 10
143.85101175606584
 20
7.431102362204724
 10
143.91376160144225
 20
7.303811657071567
 10
143.95916900942214
 20
7.169980538776805
 10
143.98676059973891
 20
7.031375686526706
 10
143.99606299212599
 20
6.889763779527559
  0
LWPOLYLINE
  5
129
330
17
100
AcDbEntity
  8
Lock rail - detail C
100
AcDbPolyline
 90
49
 70
0
 10
143.60236220472441
 20
6.889763779527559
 10
143.5964425004781
 20
6.7996471114371895
 10
143.57888421573105
 20
6.711444023641681
 10
143.54998859247112
 20
6.626278766545007
 10
143.51005687268614
 20
6.545275590551181
 10
143.45987192438076
 20
6.470192118803672
 10
143.40056445984516
 20
6.402585146454045
 10
143.33295748749555
 20
6.343277681918461
 10
143.25787401574803
 20
6.293092733613081
 10
143.1768708397542
 20
6.2531610138281
 10
143.09170558265754
 20
6.224265390568157
 10
143.00350249486203
 20
6.2067071058211205
 10
142.91338582677164
 20
6.200787401574803
 10
142.82326915868128
 20
6.2067071058211205
 10
142.73506607088578
 20
6.224265390568157
 10
142.6499008137891
 20
6.2531610138281
 10
142.56889763779526
 20
6.293092733613081
 10
142.49381416604777
 20
6.343277681918461
 10
142.42620719369813
 20
6.402585146454045
 10
142.36689972916255
 20
6.470192118803672
 10
142.31671478085718
 20
6.545275590551181
 10
142.2767830610722
 20
6.626278766545007
 10
142.24788743781227
 20
6.711444023641681
 10
142.2303291530652
 20
6.7996471114371895
 10
142.2244094488189
 20
6.889763779527559
 10
142.2303291530652
 20
6.979880447617928
 10
142.24788743781227
 20
7.068083535413437
 10
142.2767830610722
 20
7.1532487925101105
 10
142.31671478085718
 20
7.234251968503937
 10
142.36689972916255
 20
7.309335440251446
 10
142.42620719369813
 20
7.376942412601073
 10
142.49381416604777
 20
7.436249877136658
 10
142.56889763779526
 20
7.486434825442037
 10
142.6499008137891
 20
7.526366545227018
 10
142.73506607088578
 20
7.55526216848696
 10
142.82326915868128
 20
7.572820453233997
 10
142.91338582677164
 20
7.578740157480315
 10
143.00350249486203
 20
7.572820453233997
 10
143.09170558265754
 20
7.55526216848696
 10
143.1768708397542
 20
7.526366545227018
 10
143.25787401574803
 20
7.486434825442037
 10
143.33295748749555
 20
7.436249877136658
 10
143.40056445984516
 20
7.376942412601073
 10
143.45987192438076
 20
7.309335440251446
 10
143.51005687268614
 20
7.234251968503937
 10
143.54998859247112
 20
7.1532487925101105
 10
143.57888421573105
 20
7.068083535413437
 10
143.5964425004781
 20
6.979880447617928
 10
143.60236220472441
 20
6.889763779527559
  0
LWPOLYLINE
  5
12A
330
17
100
AcDbEntity
  8
Lock rail - detail C
100
AcDbPolyline
 90
49
 70
0
 10
140.11811023622047
 20
6.889763779527559
 10
140.1123596663812
 20
6.802221873382629
 10
140.09530304691265
 20
6.716538873809845
 10
140.0672330128887
 20
6.633806909773083
 10
140.02844219938328
 20
6.55511811023622
 10
139.9796911067438
 20
6.482179880538637
 10
139.92207814119493
 20
6.416504535970433
 10
139.85640279662672
 20
6.358891570421578
 10
139.78346456692913
 20
6.310140477782068
 10
139.70477576739228
 20
6.271349664276649
 10
139.6220438033555
 20
6.243279630252711
 10
139.5363608037827
 20
6.226223010784152
 10
139.4488188976378
 20
6.2204724409448815
 10
139.36127699149287
 20
6.226223010784152
 10
139.2755939919201
 20
6.243279630252711
 10
139.1928620278833
 20
6.271349664276649
 10
139.11417322834646
 20
6.310140477782068
 10
139.04123499864886
 20
6.358891570421578
 10
138.97555965408066
 20
6.416504535970433
 10
138.9179466885318
 20
6.482179880538637
 10
138.8691955958923
 20
6.55511811023622
 10
138.8304047823869
 20
6.633806909773083
 10
138.80233474836294
 20
6.716538873809845
 10
138.7852781288944
 20
6.802221873382629
 10
138.7795275590551
 20
6.889763779527559
 10
138.7852781288944
 20
6.977305685672489
 10
138.80233474836294
 20
7.062988685245273
 10
138.8304047823869
 20
7.145720649282034
 10
138.8691955958923
 20
7.224409448818897
 10
138.9179466885318
 20
7.297347678516481
 10
138.97555965408066
 20
7.3630230230846845
 10
139.04123499864886
 20
7.420635988633539
 10
139.11417322834646
 20
7.46938708127305
 10
139.1928620278833
 20
7.508177894778469
 10
139.2755939919201
 20
7.536247928802407
 10
139.36127699149287
 20
7.553304548270965
 10
139.4488188976378
 20
7.559055118110236
 10
139.5363608037827
 20
7.553304548270965
 10
139.6220438033555
 20
7.536247928802407
 10
139.70477576739228
 20
7.508177894778469
 10
139.78346456692913
 20
7.46938708127305
 10
139.85640279662672
 20
7.420635988633539
 10
139.92207814119493
 20
7.3630230230846845
 10
139.9796911067438
 20
7.297347678516481
 10
140.02844219938328
 20
7.224409448818897
 10
140.0672330128887
 20
7.145720649282034
 10
140.09530304691265
 20
7.062988685245273
 10
140.1123596663812
 20
6.977305685672489
 10
140.11811023622047
 20
6.889763779527559
  0
LWPOLYLINE
  5
12B
330
17
100
AcDbEntity
  8
Lock rail - detail C
100
AcDbPolyline
 90
44
 70
0
 10
139.33070866141733
 20
6.929133858267717
 10
139.3156554660362
 20
6.944330411106716
 10
139.30258646145012
 20
6.961167417612348
 10
139.29163367702415
 20
6.979451842193377
 10
139.28292914212327
 20
6.998990649258571
 10
139.27664298528668
 20
7.019436141221283
 10
139.27287559447382
 20
7.040414473743293
 10
139.27165438817985
 20
7.061693391105992
 10
139.27300678490013
 20
7.083040637590788
 10
139.27692221003386
 20
7.104069269391114
 10
139.28331617700994
 20
7.124401530830749
 10
139.29210523636823
 20
7.143818948386587
 10
139.30320593864852
 20
7.162103048535505
 10
139.31642941930536
 20
7.178915944439823
 10
139.3315255976431
 20
7.1939621754807295
 10
139.34831919997623
 20
7.207086907463398
 10
139.3666349526193
 20
7.218135306193039
 10
139.3861488012464
 20
7.226895649858129
 10
139.4065021411402
 20
7.233222199005034
 10
139.42746787302818
 20
7.2370590929757315
 10
139.4488188976378
 20
7.238350471112188
 10
139.4701699222474
 20
7.2370590929757315
 10
139.4911356541354
 20
7.233222199005034
 10
139.51148899402918
 20
7.226895649858129
 10
139.53100284265628
 20
7.218135306193039
 10
139.54931859529935
 20
7.207086907463398
 10
139.56611219763252
 20
7.193962175480721
 10
139.58120837597025
 20
7.178915944439814
 10
139.5944318566271
 20
7.162103048535496
 10
139.60553255890736
 20
7.143818948386578
 10
139.61432161826565
 20
7.12440153083074
 10
139.62071558524175
 20
7.104069269391105
 10
139.62463101037545
 20
7.083040637590779
 10
139.62598340709573
 20
7.061693391105983
 10
139.62476220080177
 20
7.040414473743284
 10
139.62099480998887
 20
7.0194361412212745
 10
139.61470865315232
 20
6.9989906492585625
 10
139.60600411825143
 20
6.9794518421933684
 10
139.59505133382547
 20
6.961167417612338
 10
139.58198232923942
 20
6.944330411106716
 10
139.56692913385825
 20
6.929133858267717
 10
139.6259842519685
 20
6.496062992125984
 10
139.27165354330708
 20
6.496062992125984
 10
139.33070866141733
 20
6.929133858267717
  0
TEXT
  5
12C
330
17
100
AcDbEntity
  8
LABELS
100
AcDbText
 10
137.4015748031496
 20
16.141732283464567
 30
0.0
 40
0.7086614173228346
  1
LOCK RAIL - DETAIL C  (1:1, inches)
 11
137.4015748031496
 21
16.141732283464567
 31
0.0
100
AcDbText
  0
TEXT
  5
12D
330
17
100
AcDbEntity
  8
LABELS
100
AcDbText
 10
0.0
 20
-8.661417322834646
 30
0.0
 40
1.574803149606299
  1
Doors D2 and D3 · AST-DR-009
 11
0.0
 21
-8.661417322834646
 31
0.0
100
AcDbText
  0
ENDSEC
  0
SECTION
  2
OBJECTS
  0
DICTIONARY
  5
A
330
0
100
AcDbDictionary
281
1
  3
ACAD_COLOR
350
B
  3
ACAD_GROUP
350
C
  3
ACAD_LAYOUT
350
D
  3
ACAD_MATERIAL
350
E
  3
ACAD_MLEADERSTYLE
350
F
  3
ACAD_MLINESTYLE
350
10
  3
ACAD_PLOTSETTINGS
350
11
  3
ACAD_PLOTSTYLENAME
350
12
  3
ACAD_SCALELIST
350
14
  3
ACAD_TABLESTYLE
350
15
  3
ACAD_VISUALSTYLE
350
16
  3
EZDXF_META
350
2D
  0
DICTIONARY
  5
B
330
A
100
AcDbDictionary
281
1
  0
DICTIONARY
  5
C
330
A
100
AcDbDictionary
281
1
  0
DICTIONARY
  5
D
330
A
100
AcDbDictionary
281
1
  3
Model
350
1A
  3
Layout1
350
1E
  0
DICTIONARY
  5
E
330
A
100
AcDbDictionary
281
1
  3
ByBlock
350
1F
  3
ByLayer
350
20
  3
Global
350
21
  0
DICTIONARY
  5
F
330
A
100
AcDbDictionary
281
1
  3
Standard
350
2C
  0
DICTIONARY
  5
10
330
A
100
AcDbDictionary
281
1
  3
Standard
350
22
  0
DICTIONARY
  5
11
330
A
100
AcDbDictionary
281
1
  0
ACDBDICTIONARYWDFLT
  5
12
330
A
100
AcDbDictionary
281
1
  3
Normal
350
13
100
AcDbDictionaryWithDefault
340
13
  0
ACDBPLACEHOLDER
  5
13
330
12
  0
DICTIONARY
  5
14
330
A
100
AcDbDictionary
281
1
  0
DICTIONARY
  5
15
330
A
100
AcDbDictionary
281
1
  0
DICTIONARY
  5
16
330
A
100
AcDbDictionary
281
1
  3
2dWireframe
350
5A
  3
Basic
350
5B
  3
Brighten
350
5C
  3
ColorChange
350
5D
  3
Conceptual
350
5E
  3
Dim
350
5F
  3
EdgeColorOff
350
60
  3
Facepattern
350
61
  3
Flat
350
62
  3
FlatWithEdges
350
63
  3
Gouraud
350
64
  3
GouraudWithEdges
350
65
  3
Hidden
350
66
  3
JitterOff
350
67
  3
Linepattern
350
68
  3
Modeling
350
69
  3
OverhangOff
350
6A
  3
Realistic
350
6B
  3
Shaded
350
6C
  3
Shaded with edges
350
6D
  3
Shades of Gray
350
6E
  3
Sketchy
350
6F
  3
Thicken
350
70
  3
Wireframe
350
71
  3
X-Ray
350
72
  0
LAYOUT
  5
1A
330
D
100
AcDbPlotSettings
  1

  4
A3
  6

 40
7.5
 41
20.0
 42
7.5
 43
20.0
 44
420.0
 45
297.0
 46
0.0
 47
0.0
 48
0.0
 49
0.0
140
0.0
141
0.0
142
1.0
143
1.0
 70
1024
 72
1
 73
0
 74
5
  7

 75
16
 76
0
 77
2
 78
300
147
1.0
148
0.0
149
0.0
100
AcDbLayout
  1
Model
 70
1
 71
0
 10
0.0
 20
0.0
 11
420.0
 21
297.0
 12
0.0
 22
0.0
 32
0.0
 14
1e+20
 24
1e+20
 34
1e+20
 15
-1e+20
 25
-1e+20
 35
-1e+20
146
0.0
 13
0.0
 23
0.0
 33
0.0
 16
1.0
 26
0.0
 36
0.0
 17
0.0
 27
1.0
 37
0.0
 76
1
330
17
  0
LAYOUT
  5
1E
330
D
100
AcDbPlotSettings
  1

  4
A3
  6

 40
7.5
 41
20.0
 42
7.5
 43
20.0
 44
420.0
 45
297.0
 46
0.0
 47
0.0
 48
0.0
 49
0.0
140
0.0
141
0.0
142
1.0
143
1.0
 70
0
 72
1
 73
0
 74
5
  7

 75
16
 76
0
 77
2
 78
300
147
1.0
148
0.0
149
0.0
100
AcDbLayout
  1
Layout1
 70
1
 71
1
 10
0.0
 20
0.0
 11
420.0
 21
297.0
 12
0.0
 22
0.0
 32
0.0
 14
1e+20
 24
1e+20
 34
1e+20
 15
-1e+20
 25
-1e+20
 35
-1e+20
146
0.0
 13
0.0
 23
0.0
 33
0.0
 16
1.0
 26
0.0
 36
0.0
 17
0.0
 27
1.0
 37
0.0
 76
1
330
1B
  0
MATERIAL
  5
1F
102
{ACAD_REACTORS
330
E
102
}
330
E
100
AcDbMaterial
  1
ByBlock
  2

 70
0
 40
1.0
 71
1
 41
1.0
 91
-1023410177
 42
1.0
 72
1
  3

 73
1
 74
1
 75
1
 44
0.5
 73
0
 45
1.0
 46
1.0
 77
1
  4

 78
1
 79
1
170
1
 48
1.0
171
1
  6

172
1
173
1
174
1
140
1.0
141
1.0
175
1
  7

176
1
177
1
178
1
143
1.0
179
1
  8

270
1
271
1
272
1
145
1.0
146
1.0
273
1
  9

274
1
275
1
276
1
 42
1.0
 72
1
  3

 73
1
 74
1
 75
1
 94
63
  0
MATERIAL
  5
20
102
{ACAD_REACTORS
330
E
102
}
330
E
100
AcDbMaterial
  1
ByLayer
  2

 70
0
 40
1.0
 71
1
 41
1.0
 91
-1023410177
 42
1.0
 72
1
  3

 73
1
 74
1
 75
1
 44
0.5
 73
0
 45
1.0
 46
1.0
 77
1
  4

 78
1
 79
1
170
1
 48
1.0
171
1
  6

172
1
173
1
174
1
140
1.0
141
1.0
175
1
  7

176
1
177
1
178
1
143
1.0
179
1
  8

270
1
271
1
272
1
145
1.0
146
1.0
273
1
  9

274
1
275
1
276
1
 42
1.0
 72
1
  3

 73
1
 74
1
 75
1
 94
63
  0
MATERIAL
  5
21
102
{ACAD_REACTORS
330
E
102
}
330
E
100
AcDbMaterial
  1
Global
  2

 70
0
 40
1.0
 71
1
 41
1.0
 91
-1023410177
 42
1.0
 72
1
  3

 73
1
 74
1
 75
1
 44
0.5
 73
0
 45
1.0
 46
1.0
 77
1
  4

 78
1
 79
1
170
1
 48
1.0
171
1
  6

172
1
173
1
174
1
140
1.0
141
1.0
175
1
  7

176
1
177
1
178
1
143
1.0
179
1
  8

270
1
271
1
272
1
145
1.0
146
1.0
273
1
  9

274
1
275
1
276
1
 42
1.0
 72
1
  3

 73
1
 74
1
 75
1
 94
63
  0
MLINESTYLE
  5
22
102
{ACAD_REACTORS
330
10
102
}
330
10
100
AcDbMlineStyle
  2
Standard
 70
0
  3

 62
256
 51
90.0
 52
90.0
 71
2
 49
0.5
 62
256
  6
BYLAYER
 49
-0.5
 62
256
  6
BYLAYER
  0
MLEADERSTYLE
  5
2C
102
{ACAD_REACTORS
330
F
102
}
330
F
100
AcDbMLeaderStyle
179
2
170
2
171
1
172
0
 90
2
 40
0.0
 41
0.0
173
1
 91
-1056964608
 92
-2
290
1
 42
2.0
291
1
 43
8.0
  3
Standard
 44
4.0
300

342
29
174
1
175
1
176
0
178
1
 93
-1056964608
 45
4.0
292
0
297
0
 46
4.0
 94
-1056964608
 47
1.0
 49
1.0
140
1.0
294
1
141
0.0
177
0
142
1.0
295
0
296
0
143
3.75
271
0
272
9
273
9
  0
DICTIONARY
  5
2D
330
A
100
AcDbDictionary
280
1
281
1
  3
CREATED_BY_EZDXF
350
2E
  3
WRITTEN_BY_EZDXF
350
130
  0
DICTIONARYVAR
  5
2E
330
2D
100
DictionaryVariables
280
0
  1
1.4.2 @ 2026-09-18T17:49:53.775740+00:00
  0
VISUALSTYLE
  5
5A
102
{ACAD_REACTORS
330
16
102
}
330
16
100
AcDbVisualStyle
  2
2dWireframe
 70
4
 90
0
 40
0.6
 62
7
290
0
291
0
  0
VISUALSTYLE
  5
5B
102
{ACAD_REACTORS
330
16
102
}
330
16
100
AcDbVisualStyle
  2
Basic
 70
7
 90
1
 40
0.6
 62
7
290
0
291
1
  0
VISUALSTYLE
  5
5C
102
{ACAD_REACTORS
330
16
102
}
330
16
100
AcDbVisualStyle
  2
Brighten
 70
12
 90
2
 40
0.6
 62
7
290
0
291
1
  0
VISUALSTYLE
  5
5D
102
{ACAD_REACTORS
330
16
102
}
330
16
100
AcDbVisualStyle
  2
ColorChange
 70
16
 90
2
 40
0.6
 62
8
290
0
291
1
  0
VISUALSTYLE
  5
5E
102
{ACAD_REACTORS
330
16
102
}
330
16
100
AcDbVisualStyle
  2
Conceptual
 70
9
 90
3
 40
0.6
 62
7
290
0
291
0
  0
VISUALSTYLE
  5
5F
102
{ACAD_REACTORS
330
16
102
}
330
16
100
AcDbVisualStyle
  2
Dim
 70
11
 90
2
 40
0.6
 62
7
290
0
291
1
  0
VISUALSTYLE
  5
60
102
{ACAD_REACTORS
330
16
102
}
330
16
100
AcDbVisualStyle
  2
EdgeColorOff
 70
22
 90
2
 40
0.6
 62
7
290
0
291
1
  0
VISUALSTYLE
  5
61
102
{ACAD_REACTORS
330
16
102
}
330
16
100
AcDbVisualStyle
  2
Facepattern
 70
15
 90
2
 40
0.6
 62
7
290
0
291
1
  0
VISUALSTYLE
  5
62
102
{ACAD_REACTORS
330
16
102
}
330
16
100
AcDbVisualStyle
  2
Flat
 70
0
 90
2
 40
0.6
 62
7
290
0
291
1
  0
VISUALSTYLE
  5
63
102
{ACAD_REACTORS
330
16
102
}
330
16
100
AcDbVisualStyle
  2
FlatWithEdges
 70
1
 90
2
 40
0.6
 62
7
290
0
291
1
  0
VISUALSTYLE
  5
64
102
{ACAD_REACTORS
330
16
102
}
330
16
100
AcDbVisualStyle
  2
Gouraud
 70
2
 90
2
 40
0.6
 62
7
290
0
291
1
  0
VISUALSTYLE
  5
65
102
{ACAD_REACTORS
330
16
102
}
330
16
100
AcDbVisualStyle
  2
GouraudWithEdges
 70
3
 90
2
 40
0.6
 62
7
290
0
291
1
  0
VISUALSTYLE
  5
66
102
{ACAD_REACTORS
330
16
102
}
330
16
100
AcDbVisualStyle
  2
Hidden
 70
6
 90
1
 40
0.6
 62
7
290
0
291
0
  0
VISUALSTYLE
  5
67
102
{ACAD_REACTORS
330
16
102
}
330
16
100
AcDbVisualStyle
  2
JitterOff
 70
20
 90
2
 40
0.6
 62
7
290
0
291
1
  0
VISUALSTYLE
  5
68
102
{ACAD_REACTORS
330
16
102
}
330
16
100
AcDbVisualStyle
  2
Linepattern
 70
14
 90
2
 40
0.6
 62
7
290
0
291
1
  0
VISUALSTYLE
  5
69
102
{ACAD_REACTORS
330
16
102
}
330
16
100
AcDbVisualStyle
  2
Modeling
 70
10
 90
2
 40
0.6
 62
7
290
0
291
0
  0
VISUALSTYLE
  5
6A
102
{ACAD_REACTORS
330
16
102
}
330
16
100
AcDbVisualStyle
  2
OverhangOff
 70
21
 90
2
 40
0.6
 62
7
290
0
291
1
  0
VISUALSTYLE
  5
6B
102
{ACAD_REACTORS
330
16
102
}
330
16
100
AcDbVisualStyle
  2
Realistic
 70
8
 90
2
 40
0.6
 62
7
290
0
291
0
  0
VISUALSTYLE
  5
6C
102
{ACAD_REACTORS
330
16
102
}
330
16
100
AcDbVisualStyle
  2
Shaded
 70
27
 90
2
 40
0.6
 62
7
290
0
291
0
  0
VISUALSTYLE
  5
6D
102
{ACAD_REACTORS
330
16
102
}
330
16
100
AcDbVisualStyle
  2
Shaded with edges
 70
26
 90
2
 40
0.6
 62
7
290
0
291
0
  0
VISUALSTYLE
  5
6E
102
{ACAD_REACTORS
330
16
102
}
330
16
100
AcDbVisualStyle
  2
Shades of Gray
 70
23
 90
2
 40
0.6
 62
7
290
0
291
0
  0
VISUALSTYLE
  5
6F
102
{ACAD_REACTORS
330
16
102
}
330
16
100
AcDbVisualStyle
  2
Sketchy
 70
24
 90
1
 40
0.6
 62
7
290
0
291
0
  0
VISUALSTYLE
  5
70
102
{ACAD_REACTORS
330
16
102
}
330
16
100
AcDbVisualStyle
  2
Thicken
 70
13
 90
2
 40
0.6
 62
7
290
0
291
1
  0
VISUALSTYLE
  5
71
102
{ACAD_REACTORS
330
16
102
}
330
16
100
AcDbVisualStyle
  2
Wireframe
 70
5
 90
0
 40
0.6
 62
7
290
0
291
0
  0
VISUALSTYLE
  5
72
102
{ACAD_REACTORS
330
16
102
}
330
16
100
AcDbVisualStyle
  2
X-Ray
 70
25
 90
2
 40
0.5
 62
7
290
0
291
0
  0
DICTIONARYVAR
  5
130
330
2D
100
DictionaryVariables
280
0
  1
1.4.2 @ 2026-09-18T17:49:53.851619+00:00
  0
ENDSEC
  0
EOF
