  0
SECTION
  2
HEADER
  9
$ACADVER
  1
AC1024
  9
$ACADMAINTVER
 70
6
  9
$DWGCODEPAGE
  3
ANSI_1252
  9
$LASTSAVEDBY
  1
ezdxf
  9
$INSBASE
 10
0.0
 20
0.0
 30
0.0
  9
$EXTMIN
 10
1e+20
 20
1e+20
 30
1e+20
  9
$EXTMAX
 10
-1e+20
 20
-1e+20
 30
-1e+20
  9
$LIMMIN
 10
0.0
 20
0.0
  9
$LIMMAX
 10
420.0
 20
297.0
  9
$ORTHOMODE
 70
0
  9
$REGENMODE
 70
1
  9
$FILLMODE
 70
1
  9
$QTEXTMODE
 70
0
  9
$MIRRTEXT
 70
1
  9
$LTSCALE
 40
1.0
  9
$ATTMODE
 70
1
  9
$TEXTSIZE
 40
2.5
  9
$TRACEWID
 40
1.0
  9
$TEXTSTYLE
  7
OpenSans
  9
$CLAYER
  8
0
  9
$CELTYPE
  6
ByLayer
  9
$CECOLOR
 62
256
  9
$CELTSCALE
 40
1.0
  9
$DISPSILH
 70
0
  9
$DIMSCALE
 40
1.0
  9
$DIMASZ
 40
0.175
  9
$DIMEXO
 40
0.125
  9
$DIMDLI
 40
3.75
  9
$DIMRND
 40
0.0
  9
$DIMDLE
 40
0.0
  9
$DIMEXE
 40
0.375
  9
$DIMTP
 40
0.0
  9
$DIMTM
 40
0.0
  9
$DIMTXT
 40
0.25
  9
$DIMCEN
 40
2.5
  9
$DIMTSZ
 40
0.0
  9
$DIMTOL
 70
0
  9
$DIMLIM
 70
0
  9
$DIMTIH
 70
0
  9
$DIMTOH
 70
0
  9
$DIMSE1
 70
0
  9
$DIMSE2
 70
0
  9
$DIMTAD
 70
1
  9
$DIMZIN
 70
12
  9
$DIMBLK
  1
ARCHTICK
  9
$DIMASO
 70
1
  9
$DIMSHO
 70
1
  9
$DIMPOST
  1

  9
$DIMAPOST
  1

  9
$DIMALT
 70
0
  9
$DIMALTD
 70
3
  9
$DIMALTF
 40
0.03937007874
  9
$DIMLFAC
 40
100.0
  9
$DIMTOFL
 70
1
  9
$DIMTVP
 40
0.0
  9
$DIMTIX
 70
0
  9
$DIMSOXD
 70
0
  9
$DIMSAH
 70
0
  9
$DIMBLK1
  1

  9
$DIMBLK2
  1

  9
$DIMSTYLE
  2
EZDXF
  9
$DIMCLRD
 70
0
  9
$DIMCLRE
 70
0
  9
$DIMCLRT
 70
0
  9
$DIMTFAC
 40
0.5
  9
$DIMGAP
 40
0.1
  9
$DIMJUST
 70
0
  9
$DIMSD1
 70
0
  9
$DIMSD2
 70
0
  9
$DIMTOLJ
 70
0
  9
$DIMTZIN
 70
8
  9
$DIMALTZ
 70
0
  9
$DIMALTTZ
 70
0
  9
$DIMUPT
 70
1
  9
$DIMDEC
 70
2
  9
$DIMTDEC
 70
2
  9
$DIMALTU
 70
2
  9
$DIMALTTD
 70
3
  9
$DIMTXSTY
  7
OpenSansCondensed-Light
  9
$DIMAUNIT
 70
0
  9
$DIMADEC
 70
2
  9
$DIMALTRND
 40
0.0
  9
$DIMAZIN
 70
3
  9
$DIMDSEP
 70
46
  9
$DIMATFIT
 70
3
  9
$DIMFRAC
 70
0
  9
$DIMLDRBLK
  1

  9
$DIMLUNIT
 70
2
  9
$DIMLWD
 70
-2
  9
$DIMLWE
 70
-2
  9
$DIMTMOVE
 70
2
  9
$DIMFXL
 40
1.0
  9
$DIMFXLON
 70
0
  9
$DIMJOGANG
 40
0.785398163397
  9
$DIMTFILL
 70
0
  9
$DIMTFILLCLR
 70
0
  9
$DIMARCSYM
 70
0
  9
$DIMLTYPE
  6

  9
$DIMLTEX1
  6

  9
$DIMLTEX2
  6

  9
$DIMTXTDIRECTION
 70
0
  9
$LUNITS
 70
4
  9
$LUPREC
 70
4
  9
$SKETCHINC
 40
1.0
  9
$FILLETRAD
 40
10.0
  9
$AUNITS
 70
0
  9
$AUPREC
 70
3
  9
$MENU
  1
.
  9
$ELEVATION
 40
0.0
  9
$PELEVATION
 40
0.0
  9
$THICKNESS
 40
0.0
  9
$LIMCHECK
 70
0
  9
$CHAMFERA
 40
0.0
  9
$CHAMFERB
 40
0.0
  9
$CHAMFERC
 40
0.0
  9
$CHAMFERD
 40
0.0
  9
$SKPOLY
 70
0
  9
$TDCREATE
 40
2461307.539872685
  9
$TDUCREATE
 40
2458532.153996898
  9
$TDUPDATE
 40
2461307.539872685
  9
$TDUUPDATE
 40
2458532.1544311
  9
$TDINDWG
 40
0.0
  9
$TDUSRTIMER
 40
0.0
  9
$USRTIMER
 70
1
  9
$ANGBASE
 50
0.0
  9
$ANGDIR
 70
0
  9
$PDMODE
 70
0
  9
$PDSIZE
 40
0.0
  9
$PLINEWID
 40
0.0
  9
$SPLFRAME
 70
0
  9
$SPLINETYPE
 70
6
  9
$SPLINESEGS
 70
8
  9
$HANDSEED
  5
188
  9
$SURFTAB1
 70
6
  9
$SURFTAB2
 70
6
  9
$SURFTYPE
 70
6
  9
$SURFU
 70
6
  9
$SURFV
 70
6
  9
$UCSBASE
  2

  9
$UCSNAME
  2

  9
$UCSORG
 10
0.0
 20
0.0
 30
0.0
  9
$UCSXDIR
 10
1.0
 20
0.0
 30
0.0
  9
$UCSYDIR
 10
0.0
 20
1.0
 30
0.0
  9
$UCSORTHOREF
  2

  9
$UCSORTHOVIEW
 70
0
  9
$UCSORGTOP
 10
0.0
 20
0.0
 30
0.0
  9
$UCSORGBOTTOM
 10
0.0
 20
0.0
 30
0.0
  9
$UCSORGLEFT
 10
0.0
 20
0.0
 30
0.0
  9
$UCSORGRIGHT
 10
0.0
 20
0.0
 30
0.0
  9
$UCSORGFRONT
 10
0.0
 20
0.0
 30
0.0
  9
$UCSORGBACK
 10
0.0
 20
0.0
 30
0.0
  9
$PUCSBASE
  2

  9
$PUCSNAME
  2

  9
$PUCSORG
 10
0.0
 20
0.0
 30
0.0
  9
$PUCSXDIR
 10
1.0
 20
0.0
 30
0.0
  9
$PUCSYDIR
 10
0.0
 20
1.0
 30
0.0
  9
$PUCSORTHOREF
  2

  9
$PUCSORTHOVIEW
 70
0
  9
$PUCSORGTOP
 10
0.0
 20
0.0
 30
0.0
  9
$PUCSORGBOTTOM
 10
0.0
 20
0.0
 30
0.0
  9
$PUCSORGLEFT
 10
0.0
 20
0.0
 30
0.0
  9
$PUCSORGRIGHT
 10
0.0
 20
0.0
 30
0.0
  9
$PUCSORGFRONT
 10
0.0
 20
0.0
 30
0.0
  9
$PUCSORGBACK
 10
0.0
 20
0.0
 30
0.0
  9
$USERI1
 70
0
  9
$USERI2
 70
0
  9
$USERI3
 70
0
  9
$USERI4
 70
0
  9
$USERI5
 70
0
  9
$USERR1
 40
0.0
  9
$USERR2
 40
0.0
  9
$USERR3
 40
0.0
  9
$USERR4
 40
0.0
  9
$USERR5
 40
0.0
  9
$WORLDVIEW
 70
1
  9
$SHADEDGE
 70
3
  9
$SHADEDIF
 70
70
  9
$TILEMODE
 70
1
  9
$MAXACTVP
 70
64
  9
$PINSBASE
 10
0.0
 20
0.0
 30
0.0
  9
$PLIMCHECK
 70
0
  9
$PEXTMIN
 10
1e+20
 20
1e+20
 30
1e+20
  9
$PEXTMAX
 10
-1e+20
 20
-1e+20
 30
-1e+20
  9
$PLIMMIN
 10
0.0
 20
0.0
  9
$PLIMMAX
 10
420.0
 20
297.0
  9
$UNITMODE
 70
0
  9
$VISRETAIN
 70
1
  9
$PLINEGEN
 70
0
  9
$PSLTSCALE
 70
1
  9
$TREEDEPTH
 70
3020
  9
$CMLSTYLE
  2
Standard
  9
$CMLJUST
 70
0
  9
$CMLSCALE
 40
20.0
  9
$PROXYGRAPHICS
 70
1
  9
$MEASUREMENT
 70
0
  9
$CELWEIGHT
370
-1
  9
$ENDCAPS
280
0
  9
$JOINSTYLE
280
0
  9
$LWDISPLAY
290
0
  9
$INSUNITS
 70
1
  9
$HYPERLINKBASE
  1

  9
$STYLESHEET
  1

  9
$XEDIT
290
1
  9
$CEPSNTYPE
380
0
  9
$PSTYLEMODE
290
1
  9
$FINGERPRINTGUID
  2
{2AFDC4C7-7BBB-4ADB-8B01-3DD302B0D263}
  9
$VERSIONGUID
  2
{52E31BC6-1D25-4E18-BF5B-E92A51588951}
  9
$EXTNAMES
290
1
  9
$PSVPSCALE
 40
0.0
  9
$OLESTARTUP
290
0
  9
$SORTENTS
280
127
  9
$INDEXCTL
280
0
  9
$HIDETEXT
280
1
  9
$XCLIPFRAME
280
1
  9
$HALOGAP
280
0
  9
$OBSCOLOR
 70
257
  9
$OBSLTYPE
280
0
  9
$INTERSECTIONDISPLAY
280
0
  9
$INTERSECTIONCOLOR
 70
257
  9
$DIMASSOC
280
2
  9
$PROJECTNAME
  1

  9
$CAMERADISPLAY
290
0
  9
$LENSLENGTH
 40
50.0
  9
$CAMERAHEIGHT
 40
0.0
  9
$STEPSPERSEC
 40
24.0
  9
$STEPSIZE
 40
100.0
  9
$3DDWFPREC
 40
2.0
  9
$PSOLWIDTH
 40
0.005
  9
$PSOLHEIGHT
 40
0.08
  9
$LOFTANG1
 40
1.570796326795
  9
$LOFTANG2
 40
1.570796326795
  9
$LOFTMAG1
 40
0.0
  9
$LOFTMAG2
 40
0.0
  9
$LOFTPARAM
 70
7
  9
$LOFTNORMALS
280
1
  9
$LATITUDE
 40
37.795
  9
$LONGITUDE
 40
-122.394
  9
$NORTHDIRECTION
 40
0.0
  9
$TIMEZONE
 70
-8000
  9
$LIGHTGLYPHDISPLAY
280
1
  9
$TILEMODELIGHTSYNCH
280
1
  9
$CMATERIAL
347
20
  9
$SOLIDHIST
280
0
  9
$SHOWHIST
280
1
  9
$DWFFRAME
280
2
  9
$DGNFRAME
280
2
  9
$REALWORLDSCALE
290
1
  9
$INTERFERECOLOR
 62
256
  9
$CSHADOW
280
0
  9
$SHADOWPLANELOCATION
 40
0.0
  0
ENDSEC
  0
SECTION
  2
CLASSES
  0
CLASS
  1
ACDBDICTIONARYWDFLT
  2
AcDbDictionaryWithDefault
  3
ObjectDBX Classes
 90
0
 91
0
280
0
281
0
  0
CLASS
  1
SUN
  2
AcDbSun
  3
SCENEOE
 90
1153
 91
0
280
0
281
0
  0
CLASS
  1
VISUALSTYLE
  2
AcDbVisualStyle
  3
ObjectDBX Classes
 90
4095
 91
0
280
0
281
0
  0
CLASS
  1
MATERIAL
  2
AcDbMaterial
  3
ObjectDBX Classes
 90
1153
 91
0
280
0
281
0
  0
CLASS
  1
SCALE
  2
AcDbScale
  3
ObjectDBX Classes
 90
1153
 91
0
280
0
281
0
  0
CLASS
  1
TABLESTYLE
  2
AcDbTableStyle
  3
ObjectDBX Classes
 90
4095
 91
0
280
0
281
0
  0
CLASS
  1
MLEADERSTYLE
  2
AcDbMLeaderStyle
  3
ACDB_MLEADERSTYLE_CLASS
 90
4095
 91
0
280
0
281
0
  0
CLASS
  1
DICTIONARYVAR
  2
AcDbDictionaryVar
  3
ObjectDBX Classes
 90
0
 91
0
280
0
281
0
  0
CLASS
  1
CELLSTYLEMAP
  2
AcDbCellStyleMap
  3
ObjectDBX Classes
 90
1152
 91
0
280
0
281
0
  0
CLASS
  1
MENTALRAYRENDERSETTINGS
  2
AcDbMentalRayRenderSettings
  3
SCENEOE
 90
1024
 91
0
280
0
281
0
  0
CLASS
  1
ACDBDETAILVIEWSTYLE
  2
AcDbDetailViewStyle
  3
ObjectDBX Classes
 90
1025
 91
0
280
0
281
0
  0
CLASS
  1
ACDBSECTIONVIEWSTYLE
  2
AcDbSectionViewStyle
  3
ObjectDBX Classes
 90
1025
 91
0
280
0
281
0
  0
CLASS
  1
RASTERVARIABLES
  2
AcDbRasterVariables
  3
ISM
 90
0
 91
0
280
0
281
0
  0
CLASS
  1
LAYOUT
  2
AcDbLayout
  3
ObjectDBX Classes
 90
0
 91
0
280
0
281
0
  0
CLASS
  1
ACDBPLACEHOLDER
  2
AcDbPlaceHolder
  3
ObjectDBX Classes
 90
0
 91
0
280
0
281
0
  0
ENDSEC
  0
SECTION
  2
TABLES
  0
TABLE
  2
VPORT
  5
8
330
0
100
AcDbSymbolTable
 70
1
  0
VPORT
  5
23
330
8
100
AcDbSymbolTableRecord
100
AcDbViewportTableRecord
  2
*Active
 70
0
 10
0.0
 20
0.0
 11
1.0
 21
1.0
 12
0.0
 22
0.0
 13
0.0
 23
0.0
 14
0.5
 24
0.5
 15
0.5
 25
0.5
 16
0.0
 26
0.0
 36
1.0
 17
0.0
 27
0.0
 37
0.0
 40
1000.0
 41
1.34
 42
50.0
 43
0.0
 44
0.0
 50
0.0
 51
0.0
 71
0
 72
1000
 73
1
 74
3
 75
0
 76
0
 77
0
 78
0
281
0
 65
0
146
0.0
  0
ENDTAB
  0
TABLE
  2
LTYPE
  5
2
330
0
100
AcDbSymbolTable
 70
21
  0
LTYPE
  5
24
330
2
100
AcDbSymbolTableRecord
100
AcDbLinetypeTableRecord
  2
ByBlock
 70
0
  3

 72
65
 73
0
 40
0.0
  0
LTYPE
  5
25
330
2
100
AcDbSymbolTableRecord
100
AcDbLinetypeTableRecord
  2
ByLayer
 70
0
  3

 72
65
 73
0
 40
0.0
  0
LTYPE
  5
26
330
2
100
AcDbSymbolTableRecord
100
AcDbLinetypeTableRecord
  2
Continuous
 70
0
  3

 72
65
 73
0
 40
0.0
  0
LTYPE
  5
2F
330
2
100
AcDbSymbolTableRecord
100
AcDbLinetypeTableRecord
  2
CENTER
 70
0
  3
Center ____ _ ____ _ ____ _ ____ _ ____ _ ____
 72
65
 73
4
 40
2.0
 49
1.25
 74
0
 49
-0.25
 74
0
 49
0.25
 74
0
 49
-0.25
 74
0
  0
LTYPE
  5
30
330
2
100
AcDbSymbolTableRecord
100
AcDbLinetypeTableRecord
  2
CENTERX2
 70
0
  3
Center (2x) ________  __  ________  __  ________
 72
65
 73
4
 40
3.5
 49
2.5
 74
0
 49
-0.25
 74
0
 49
0.5
 74
0
 49
-0.25
 74
0
  0
LTYPE
  5
31
330
2
100
AcDbSymbolTableRecord
100
AcDbLinetypeTableRecord
  2
CENTER2
 70
0
  3
Center (.5x) ____ _ ____ _ ____ _ ____ _ ____
 72
65
 73
4
 40
1.0
 49
0.625
 74
0
 49
-0.125
 74
0
 49
0.125
 74
0
 49
-0.125
 74
0
  0
LTYPE
  5
32
330
2
100
AcDbSymbolTableRecord
100
AcDbLinetypeTableRecord
  2
DASHED
 70
0
  3
Dashed __ __ __ __ __ __ __ __ __ __ __ __ __ _
 72
65
 73
2
 40
0.6
 49
0.5
 74
0
 49
-0.1
 74
0
  0
LTYPE
  5
33
330
2
100
AcDbSymbolTableRecord
100
AcDbLinetypeTableRecord
  2
DASHEDX2
 70
0
  3
Dashed (2x) ____  ____  ____  ____  ____  ____
 72
65
 73
2
 40
1.2
 49
1.0
 74
0
 49
-0.2
 74
0
  0
LTYPE
  5
34
330
2
100
AcDbSymbolTableRecord
100
AcDbLinetypeTableRecord
  2
DASHED2
 70
0
  3
Dashed (.5x) _ _ _ _ _ _ _ _ _ _ _ _ _ _
 72
65
 73
2
 40
0.3
 49
0.25
 74
0
 49
-0.05
 74
0
  0
LTYPE
  5
35
330
2
100
AcDbSymbolTableRecord
100
AcDbLinetypeTableRecord
  2
PHANTOM
 70
0
  3
Phantom ______  __  __  ______  __  __  ______
 72
65
 73
6
 40
2.5
 49
1.25
 74
0
 49
-0.25
 74
0
 49
0.25
 74
0
 49
-0.25
 74
0
 49
0.25
 74
0
 49
-0.25
 74
0
  0
LTYPE
  5
36
330
2
100
AcDbSymbolTableRecord
100
AcDbLinetypeTableRecord
  2
PHANTOMX2
 70
0
  3
Phantom (2x)____________    ____    ____    ____________
 72
65
 73
6
 40
4.25
 49
2.5
 74
0
 49
-0.25
 74
0
 49
0.5
 74
0
 49
-0.25
 74
0
 49
0.5
 74
0
 49
-0.25
 74
0
  0
LTYPE
  5
37
330
2
100
AcDbSymbolTableRecord
100
AcDbLinetypeTableRecord
  2
PHANTOM2
 70
0
  3
Phantom (.5x) ___ _ _ ___ _ _ ___ _ _ ___ _ _ ___
 72
65
 73
6
 40
1.25
 49
0.625
 74
0
 49
-0.125
 74
0
 49
0.125
 74
0
 49
-0.125
 74
0
 49
0.125
 74
0
 49
-0.125
 74
0
  0
LTYPE
  5
38
330
2
100
AcDbSymbolTableRecord
100
AcDbLinetypeTableRecord
  2
DASHDOT
 70
0
  3
Dash dot __ . __ . __ . __ . __ . __ . __ . __
 72
65
 73
4
 40
1.4
 49
1.0
 74
0
 49
-0.2
 74
0
 49
0.0
 74
0
 49
-0.2
 74
0
  0
LTYPE
  5
39
330
2
100
AcDbSymbolTableRecord
100
AcDbLinetypeTableRecord
  2
DASHDOTX2
 70
0
  3
Dash dot (2x) ____  .  ____  .  ____  .  ____
 72
65
 73
4
 40
2.4
 49
2.0
 74
0
 49
-0.2
 74
0
 49
0.0
 74
0
 49
-0.2
 74
0
  0
LTYPE
  5
3A
330
2
100
AcDbSymbolTableRecord
100
AcDbLinetypeTableRecord
  2
DASHDOT2
 70
0
  3
Dash dot (.5x) _ . _ . _ . _ . _ . _ . _ . _
 72
65
 73
4
 40
0.7
 49
0.5
 74
0
 49
-0.1
 74
0
 49
0.0
 74
0
 49
-0.1
 74
0
  0
LTYPE
  5
3B
330
2
100
AcDbSymbolTableRecord
100
AcDbLinetypeTableRecord
  2
DOT
 70
0
  3
Dot .  .  .  .  .  .  .  .  .  .  .  .  .  .  .  .
 72
65
 73
2
 40
0.2
 49
0.0
 74
0
 49
-0.2
 74
0
  0
LTYPE
  5
3C
330
2
100
AcDbSymbolTableRecord
100
AcDbLinetypeTableRecord
  2
DOTX2
 70
0
  3
Dot (2x) .    .    .    .    .    .    .    . 
 72
65
 73
2
 40
0.4
 49
0.0
 74
0
 49
-0.4
 74
0
  0
LTYPE
  5
3D
330
2
100
AcDbSymbolTableRecord
100
AcDbLinetypeTableRecord
  2
DOT2
 70
0
  3
Dot (.5) . . . . . . . . . . . . . . . . . . . 
 72
65
 73
2
 40
0.1
 49
0.0
 74
0
 49
-0.1
 74
0
  0
LTYPE
  5
3E
330
2
100
AcDbSymbolTableRecord
100
AcDbLinetypeTableRecord
  2
DIVIDE
 70
0
  3
Divide __ . . __ . . __ . . __ . . __ . . __
 72
65
 73
6
 40
1.6
 49
1.0
 74
0
 49
-0.2
 74
0
 49
0.0
 74
0
 49
-0.2
 74
0
 49
0.0
 74
0
 49
-0.2
 74
0
  0
LTYPE
  5
3F
330
2
100
AcDbSymbolTableRecord
100
AcDbLinetypeTableRecord
  2
DIVIDEX2
 70
0
  3
Divide (2x) ____  . .  ____  . .  ____  . .  ____
 72
65
 73
6
 40
2.6
 49
2.0
 74
0
 49
-0.2
 74
0
 49
0.0
 74
0
 49
-0.2
 74
0
 49
0.0
 74
0
 49
-0.2
 74
0
  0
LTYPE
  5
40
330
2
100
AcDbSymbolTableRecord
100
AcDbLinetypeTableRecord
  2
DIVIDE2
 70
0
  3
Divide(.5x) _ . _ . _ . _ . _ . _ . _ . _
 72
65
 73
6
 40
0.8
 49
0.5
 74
0
 49
-0.1
 74
0
 49
0.0
 74
0
 49
-0.1
 74
0
 49
0.0
 74
0
 49
-0.1
 74
0
  0
ENDTAB
  0
TABLE
  2
LAYER
  5
1
330
0
100
AcDbSymbolTable
 70
8
  0
LAYER
  5
27
330
1
100
AcDbSymbolTableRecord
100
AcDbLayerTableRecord
  2
0
 70
0
 62
7
  6
Continuous
370
-3
390
13
347
21
  0
LAYER
  5
28
330
1
100
AcDbSymbolTableRecord
100
AcDbLayerTableRecord
  2
Defpoints
 70
0
 62
7
  6
Continuous
290
0
370
-3
390
13
347
21
  0
LAYER
  5
8A
330
1
100
AcDbSymbolTableRecord
100
AcDbLayerTableRecord
  2
door-narrow leaf
 70
0
 62
7
  6
Continuous
370
-3
390
13
347
21
  0
LAYER
  5
8B
330
1
100
AcDbSymbolTableRecord
100
AcDbLayerTableRecord
  2
door-narrow leaf hatch
 70
0
 62
8
  6
Continuous
370
-3
390
13
347
21
  0
LAYER
  5
D9
330
1
100
AcDbSymbolTableRecord
100
AcDbLayerTableRecord
  2
door leaf
 70
0
 62
7
  6
Continuous
370
-3
390
13
347
21
  0
LAYER
  5
DA
330
1
100
AcDbSymbolTableRecord
100
AcDbLayerTableRecord
  2
door leaf hatch
 70
0
 62
8
  6
Continuous
370
-3
390
13
347
21
  0
LAYER
  5
16A
330
1
100
AcDbSymbolTableRecord
100
AcDbLayerTableRecord
  2
Leaf section
 70
0
 62
7
  6
Continuous
370
-3
390
13
347
21
  0
LAYER
  5
16B
330
1
100
AcDbSymbolTableRecord
100
AcDbLayerTableRecord
  2
Leaf section hatch
 70
0
 62
8
  6
Continuous
370
-3
390
13
347
21
  0
ENDTAB
  0
TABLE
  2
STYLE
  5
5
330
0
100
AcDbSymbolTable
 70
26
  0
STYLE
  5
29
330
5
100
AcDbSymbolTableRecord
100
AcDbTextStyleTableRecord
  2
Standard
 70
0
 40
0.0
 41
1.0
 50
0.0
 71
0
 42
2.5
  3
txt
  4

  0
STYLE
  5
41
330
5
100
AcDbSymbolTableRecord
100
AcDbTextStyleTableRecord
  2
OpenSans-Light
 70
0
 40
0.0
 41
1.0
 50
0.0
 71
0
 42
2.5
  3
OpenSans-Light.ttf
  4

  0
STYLE
  5
42
330
5
100
AcDbSymbolTableRecord
100
AcDbTextStyleTableRecord
  2
OpenSans-Light-Italic
 70
0
 40
0.0
 41
1.0
 50
0.0
 71
0
 42
2.5
  3
OpenSans-LightItalic.ttf
  4

  0
STYLE
  5
43
330
5
100
AcDbSymbolTableRecord
100
AcDbTextStyleTableRecord
  2
OpenSans
 70
0
 40
0.0
 41
1.0
 50
0.0
 71
0
 42
2.5
  3
OpenSans-Regular.ttf
  4

  0
STYLE
  5
44
330
5
100
AcDbSymbolTableRecord
100
AcDbTextStyleTableRecord
  2
OpenSans-Italic
 70
0
 40
0.0
 41
1.0
 50
0.0
 71
0
 42
2.5
  3
OpenSans-Italic.ttf
  4

  0
STYLE
  5
45
330
5
100
AcDbSymbolTableRecord
100
AcDbTextStyleTableRecord
  2
OpenSans-SemiBold
 70
0
 40
0.0
 41
1.0
 50
0.0
 71
0
 42
2.5
  3
OpenSans-SemiBold.ttf
  4

  0
STYLE
  5
46
330
5
100
AcDbSymbolTableRecord
100
AcDbTextStyleTableRecord
  2
OpenSans-SemiBoldItalic
 70
0
 40
0.0
 41
1.0
 50
0.0
 71
0
 42
2.5
  3
OpenSans-SemiBoldItalic.ttf
  4

  0
STYLE
  5
47
330
5
100
AcDbSymbolTableRecord
100
AcDbTextStyleTableRecord
  2
OpenSans-Bold
 70
0
 40
0.0
 41
1.0
 50
0.0
 71
0
 42
2.5
  3
OpenSans-Bold.ttf
  4

  0
STYLE
  5
48
330
5
100
AcDbSymbolTableRecord
100
AcDbTextStyleTableRecord
  2
OpenSans-BoldItalic
 70
0
 40
0.0
 41
1.0
 50
0.0
 71
0
 42
2.5
  3
OpenSans-BoldItalic.ttf
  4

  0
STYLE
  5
49
330
5
100
AcDbSymbolTableRecord
100
AcDbTextStyleTableRecord
  2
OpenSans-ExtraBold
 70
0
 40
0.0
 41
1.0
 50
0.0
 71
0
 42
2.5
  3
OpenSans-ExtraBold.ttf
  4

  0
STYLE
  5
4A
330
5
100
AcDbSymbolTableRecord
100
AcDbTextStyleTableRecord
  2
OpenSans-ExtraBoldItalic
 70
0
 40
0.0
 41
1.0
 50
0.0
 71
0
 42
2.5
  3
OpenSans-ExtraBoldItalic.ttf
  4

  0
STYLE
  5
4B
330
5
100
AcDbSymbolTableRecord
100
AcDbTextStyleTableRecord
  2
OpenSansCondensed-Bold
 70
0
 40
0.0
 41
1.0
 50
0.0
 71
0
 42
2.5
  3
OpenSansCondensed-Bold.ttf
  4

  0
STYLE
  5
4C
330
5
100
AcDbSymbolTableRecord
100
AcDbTextStyleTableRecord
  2
OpenSansCondensed-Light
 70
0
 40
0.0
 41
1.0
 50
0.0
 71
0
 42
2.5
  3
OpenSansCondensed-Light.ttf
  4

  0
STYLE
  5
4D
330
5
100
AcDbSymbolTableRecord
100
AcDbTextStyleTableRecord
  2
OpenSansCondensed-Italic
 70
0
 40
0.0
 41
1.0
 50
0.0
 71
0
 42
2.5
  3
OpenSansCondensed-LightItalic.ttf
  4

  0
STYLE
  5
4E
330
5
100
AcDbSymbolTableRecord
100
AcDbTextStyleTableRecord
  2
LiberationSans
 70
0
 40
0.0
 41
1.0
 50
0.0
 71
0
 42
2.5
  3
LiberationSans-Regular.ttf
  4

  0
STYLE
  5
4F
330
5
100
AcDbSymbolTableRecord
100
AcDbTextStyleTableRecord
  2
LiberationSans-Bold
 70
0
 40
0.0
 41
1.0
 50
0.0
 71
0
 42
2.5
  3
LiberationSans-Bold.ttf
  4

  0
STYLE
  5
50
330
5
100
AcDbSymbolTableRecord
100
AcDbTextStyleTableRecord
  2
LiberationSans-BoldItalic
 70
0
 40
0.0
 41
1.0
 50
0.0
 71
0
 42
2.5
  3
LiberationSans-BoldItalic.ttf
  4

  0
STYLE
  5
51
330
5
100
AcDbSymbolTableRecord
100
AcDbTextStyleTableRecord
  2
LiberationSans-Italic
 70
0
 40
0.0
 41
1.0
 50
0.0
 71
0
 42
2.5
  3
LiberationSans-Italic.ttf
  4

  0
STYLE
  5
52
330
5
100
AcDbSymbolTableRecord
100
AcDbTextStyleTableRecord
  2
LiberationSerif
 70
0
 40
0.0
 41
1.0
 50
0.0
 71
0
 42
2.5
  3
LiberationSerif-Regular.ttf
  4

  0
STYLE
  5
53
330
5
100
AcDbSymbolTableRecord
100
AcDbTextStyleTableRecord
  2
LiberationSerif-Bold
 70
0
 40
0.0
 41
1.0
 50
0.0
 71
0
 42
2.5
  3
LiberationSerif-Bold.ttf
  4

  0
STYLE
  5
54
330
5
100
AcDbSymbolTableRecord
100
AcDbTextStyleTableRecord
  2
LiberationSerif-BoldItalic
 70
0
 40
0.0
 41
1.0
 50
0.0
 71
0
 42
2.5
  3
LiberationSerif-BoldItalic.ttf
  4

  0
STYLE
  5
55
330
5
100
AcDbSymbolTableRecord
100
AcDbTextStyleTableRecord
  2
LiberationSerif-Italic
 70
0
 40
0.0
 41
1.0
 50
0.0
 71
0
 42
2.5
  3
LiberationSerif-Italic.ttf
  4

  0
STYLE
  5
56
330
5
100
AcDbSymbolTableRecord
100
AcDbTextStyleTableRecord
  2
LiberationMono
 70
0
 40
0.0
 41
1.0
 50
0.0
 71
0
 42
2.5
  3
LiberationMono-Regular.ttf
  4

  0
STYLE
  5
57
330
5
100
AcDbSymbolTableRecord
100
AcDbTextStyleTableRecord
  2
LiberationMono-Bold
 70
0
 40
0.0
 41
1.0
 50
0.0
 71
0
 42
2.5
  3
LiberationMono-Bold.ttf
  4

  0
STYLE
  5
58
330
5
100
AcDbSymbolTableRecord
100
AcDbTextStyleTableRecord
  2
LiberationMono-BoldItalic
 70
0
 40
0.0
 41
1.0
 50
0.0
 71
0
 42
2.5
  3
LiberationMono-BoldItalic.ttf
  4

  0
STYLE
  5
59
330
5
100
AcDbSymbolTableRecord
100
AcDbTextStyleTableRecord
  2
LiberationMono-Italic
 70
0
 40
0.0
 41
1.0
 50
0.0
 71
0
 42
2.5
  3
LiberationMono-Italic.ttf
  4

  0
ENDTAB
  0
TABLE
  2
VIEW
  5
7
330
0
100
AcDbSymbolTable
 70
0
  0
ENDTAB
  0
TABLE
  2
UCS
  5
6
330
0
100
AcDbSymbolTable
 70
0
  0
ENDTAB
  0
TABLE
  2
APPID
  5
3
330
0
100
AcDbSymbolTable
 70
3
  0
APPID
  5
2A
330
3
100
AcDbSymbolTableRecord
100
AcDbRegAppTableRecord
  2
ACAD
 70
0
  0
APPID
  5
185
330
3
100
AcDbSymbolTableRecord
100
AcDbRegAppTableRecord
  2
HATCHBACKGROUNDCOLOR
 70
0
  0
APPID
  5
186
330
3
100
AcDbSymbolTableRecord
100
AcDbRegAppTableRecord
  2
EZDXF
 70
0
  0
ENDTAB
  0
TABLE
  2
DIMSTYLE
  5
4
330
0
100
AcDbSymbolTable
 70
12
100
AcDbDimStyleTable
  0
DIMSTYLE
105
2B
330
4
100
AcDbSymbolTableRecord
100
AcDbDimStyleTableRecord
  2
Standard
 70
0
 40
1.0
 41
2.5
 42
0.625
 43
3.75
 44
1.25
 45
0.0
 46
0.0
 47
0.0
 48
0.0
 49
2.5
140
2.5
141
2.5
142
0.0
143
0.03937007874
144
1.0
145
0.0
146
1.0
147
0.625
148
0.0
 69
0
 70
0
 71
0
 72
0
 73
0
 74
0
 75
0
 76
0
 77
1
 78
8
 79
3
170
0
171
3
172
1
173
0
174
0
175
0
176
0
177
0
178
0
179
2
271
2
272
2
273
2
274
3
275
0
276
0
277
2
278
44
279
0
280
0
281
0
282
0
283
0
284
8
285
0
286
0
288
0
289
3
290
0
371
-2
372
-2
  0
DIMSTYLE
105
73
330
4
100
AcDbSymbolTableRecord
100
AcDbDimStyleTableRecord
  2
EZDXF
 70
0
 40
1.0
 41
0.175
 42
0.125
 43
3.75
 44
0.375
 45
0.0
 46
0.0
 47
0.0
 48
0.0
 49
2.5
140
0.25
141
2.5
142
0.0
143
0.03937007874
144
100.0
145
0.0
146
0.5
147
0.1
148
0.0
 69
0
 70
0
 71
0
 72
0
 73
0
 74
0
 75
0
 76
0
 77
1
 78
12
 79
3
170
0
171
3
172
1
173
0
174
0
175
0
176
0
177
0
178
0
179
2
271
2
272
2
273
2
274
3
275
0
276
0
277
2
278
46
279
2
280
0
281
0
282
0
283
0
284
8
285
0
286
0
288
1
289
3
290
0
340
4C
342
74
371
-2
372
-2
  0
DIMSTYLE
105
7C
330
4
100
AcDbSymbolTableRecord
100
AcDbDimStyleTableRecord
  2
EZ_M_100_H25_CM
 70
0
 40
1.0
 41
0.25
 42
0.125
 43
3.75
 44
0.375
 45
0.0
 46
0.0
 47
0.0
 48
0.0
 49
2.5
140
0.25
141
2.5
142
0.125
143
0.03937007874
144
100.0
145
0.0
146
0.5
147
0.1
148
0.0
 69
0
 70
0
 71
0
 72
0
 73
0
 74
0
 75
0
 76
0
 77
1
 78
12
 79
3
170
0
171
3
172
1
173
0
174
0
175
0
176
0
177
0
178
0
179
2
271
2
272
2
273
2
274
3
275
0
276
0
277
2
278
46
279
2
280
0
281
0
282
0
283
0
284
8
285
0
286
0
288
1
289
3
290
0
340
4C
371
-2
372
-2
  0
DIMSTYLE
105
7D
330
4
100
AcDbSymbolTableRecord
100
AcDbDimStyleTableRecord
  2
EZ_M_50_H25_CM
 70
0
 40
1.0
 41
0.125
 42
0.0625
 43
3.75
 44
0.1875
 45
0.0
 46
0.0
 47
0.0
 48
0.0
 49
2.5
140
0.125
141
2.5
142
0.0625
143
0.03937007874
144
100.0
145
0.0
146
0.5
147
0.05
148
0.0
 69
0
 70
0
 71
0
 72
0
 73
0
 74
0
 75
0
 76
0
 77
1
 78
12
 79
3
170
0
171
3
172
1
173
0
174
0
175
0
176
0
177
0
178
0
179
2
271
2
272
2
273
2
274
3
275
0
276
0
277
2
278
46
279
2
280
0
281
0
282
0
283
0
284
8
285
0
286
0
288
1
289
3
290
0
340
4C
371
-2
372
-2
  0
DIMSTYLE
105
7E
330
4
100
AcDbSymbolTableRecord
100
AcDbDimStyleTableRecord
  2
EZ_M_25_H25_CM
 70
0
 40
1.0
 41
0.0625
 42
0.03125
 43
3.75
 44
0.09375
 45
0.0
 46
0.0
 47
0.0
 48
0.0
 49
2.5
140
0.0625
141
2.5
142
0.03125
143
0.03937007874
144
100.0
145
0.0
146
0.5
147
0.025
148
0.0
 69
0
 70
0
 71
0
 72
0
 73
0
 74
0
 75
0
 76
0
 77
1
 78
12
 79
3
170
0
171
3
172
1
173
0
174
0
175
0
176
0
177
0
178
0
179
2
271
2
272
2
273
2
274
3
275
0
276
0
277
2
278
46
279
2
280
0
281
0
282
0
283
0
284
8
285
0
286
0
288
1
289
3
290
0
340
4C
371
-2
372
-2
  0
DIMSTYLE
105
7F
330
4
100
AcDbSymbolTableRecord
100
AcDbDimStyleTableRecord
  2
EZ_M_20_H25_CM
 70
0
 40
1.0
 41
0.05
 42
0.025
 43
3.75
 44
0.07500000000000001
 45
0.0
 46
0.0
 47
0.0
 48
0.0
 49
2.5
140
0.05
141
2.5
142
0.025
143
0.03937007874
144
100.0
145
0.0
146
0.5
147
0.020000000000000004
148
0.0
 69
0
 70
0
 71
0
 72
0
 73
0
 74
0
 75
0
 76
0
 77
1
 78
12
 79
3
170
0
171
3
172
1
173
0
174
0
175
0
176
0
177
0
178
0
179
2
271
2
272
2
273
2
274
3
275
0
276
0
277
2
278
46
279
2
280
0
281
0
282
0
283
0
284
8
285
0
286
0
288
1
289
3
290
0
340
4C
371
-2
372
-2
  0
DIMSTYLE
105
80
330
4
100
AcDbSymbolTableRecord
100
AcDbDimStyleTableRecord
  2
EZ_M_10_H25_CM
 70
0
 40
1.0
 41
0.025
 42
0.0125
 43
3.75
 44
0.037500000000000006
 45
0.0
 46
0.0
 47
0.0
 48
0.0
 49
2.5
140
0.025
141
2.5
142
0.0125
143
0.03937007874
144
100.0
145
0.0
146
0.5
147
0.010000000000000002
148
0.0
 69
0
 70
0
 71
0
 72
0
 73
0
 74
0
 75
0
 76
0
 77
1
 78
12
 79
3
170
0
171
3
172
1
173
0
174
0
175
0
176
0
177
0
178
0
179
2
271
2
272
2
273
2
274
3
275
0
276
0
277
2
278
46
279
2
280
0
281
0
282
0
283
0
284
8
285
0
286
0
288
1
289
3
290
0
340
4C
371
-2
372
-2
  0
DIMSTYLE
105
81
330
4
100
AcDbSymbolTableRecord
100
AcDbDimStyleTableRecord
  2
EZ_M_5_H25_CM
 70
0
 40
1.0
 41
0.0125
 42
0.00625
 43
3.75
 44
0.018750000000000003
 45
0.0
 46
0.0
 47
0.0
 48
0.0
 49
2.5
140
0.0125
141
2.5
142
0.00625
143
0.03937007874
144
100.0
145
0.0
146
0.5
147
0.005000000000000001
148
0.0
 69
0
 70
0
 71
0
 72
0
 73
0
 74
0
 75
0
 76
0
 77
1
 78
12
 79
3
170
0
171
3
172
1
173
0
174
0
175
0
176
0
177
0
178
0
179
2
271
2
272
2
273
2
274
3
275
0
276
0
277
2
278
46
279
2
280
0
281
0
282
0
283
0
284
8
285
0
286
0
288
1
289
3
290
0
340
4C
371
-2
372
-2
  0
DIMSTYLE
105
82
330
4
100
AcDbSymbolTableRecord
100
AcDbDimStyleTableRecord
  2
EZ_M_1_H25_CM
 70
0
 40
1.0
 41
0.0025
 42
0.00125
 43
3.75
 44
0.00375
 45
0.0
 46
0.0
 47
0.0
 48
0.0
 49
2.5
140
0.0025
141
2.5
142
0.00125
143
0.03937007874
144
100.0
145
0.0
146
0.5
147
0.001
148
0.0
 69
0
 70
0
 71
0
 72
0
 73
0
 74
0
 75
0
 76
0
 77
1
 78
12
 79
3
170
0
171
3
172
1
173
0
174
0
175
0
176
0
177
0
178
0
179
2
271
2
272
2
273
2
274
3
275
0
276
0
277
2
278
46
279
2
280
0
281
0
282
0
283
0
284
8
285
0
286
0
288
1
289
3
290
0
340
4C
371
-2
372
-2
  0
DIMSTYLE
105
83
330
4
100
AcDbSymbolTableRecord
100
AcDbDimStyleTableRecord
  2
EZ_RADIUS
 70
0
 40
1.0
 41
0.25
 42
0.125
 43
3.75
 44
0.375
 45
0.0
 46
0.0
 47
0.0
 48
0.0
 49
2.5
140
0.25
141
0.0
142
0.0
143
0.03937007874
144
100.0
145
0.0
146
0.5
147
0.1
148
0.0
 69
0
 70
0
 71
0
 72
0
 73
0
 74
0
 75
0
 76
0
 77
1
 78
12
 79
3
170
0
171
3
172
0
173
0
174
0
175
0
176
0
177
0
178
0
179
2
271
2
272
2
273
2
274
3
275
0
276
0
277
2
278
46
279
1
280
0
281
0
282
0
283
0
284
8
285
0
286
0
288
1
289
3
290
0
340
4C
342
84
371
-2
372
-2
  0
DIMSTYLE
105
88
330
4
100
AcDbSymbolTableRecord
100
AcDbDimStyleTableRecord
  2
EZ_RADIUS_INSIDE
 70
0
 40
1.0
 41
0.25
 42
0.125
 43
3.75
 44
0.375
 45
0.0
 46
0.0
 47
0.0
 48
0.0
 49
2.5
140
0.25
141
0.0
142
0.0
143
0.03937007874
144
100.0
145
0.0
146
0.5
147
0.1
148
0.0
 69
0
 70
0
 71
0
 72
0
 73
0
 74
0
 75
0
 76
0
 77
0
 78
12
 79
3
170
0
171
3
172
0
173
0
174
1
175
0
176
0
177
0
178
0
179
2
271
2
272
2
273
2
274
3
275
0
276
0
277
2
278
46
279
0
280
0
281
0
282
0
283
0
284
8
285
0
286
0
288
1
289
0
290
0
340
4C
342
84
371
-2
372
-2
  0
DIMSTYLE
105
89
330
4
100
AcDbSymbolTableRecord
100
AcDbDimStyleTableRecord
  2
EZ_CURVED
 70
0
 40
1.0
 41
0.25
 42
0.125
 43
3.75
 44
0.375
 45
0.0
 46
0.0
 47
0.0
 48
0.0
 49
2.5
140
0.25
141
2.5
142
0.0
143
0.03937007874
144
100.0
145
0.0
146
0.5
147
0.1
148
0.0
 69
0
 70
0
 71
0
 72
0
 73
0
 74
0
 75
0
 76
0
 77
1
 78
12
 79
2
 90
2
170
0
171
3
172
1
173
0
174
0
175
0
176
0
177
0
178
0
179
2
271
2
272
2
273
2
274
3
275
0
276
0
277
2
278
46
279
2
280
0
281
0
282
0
283
0
284
8
285
0
286
0
288
1
289
3
290
0
340
4C
371
-2
372
-2
  0
ENDTAB
  0
TABLE
  2
BLOCK_RECORD
  5
9
330
0
100
AcDbSymbolTable
 70
5
  0
BLOCK_RECORD
  5
17
330
9
100
AcDbSymbolTableRecord
100
AcDbBlockTableRecord
  2
*Model_Space
340
1A
 70
0
280
1
281
0
  0
BLOCK_RECORD
  5
1B
330
9
100
AcDbSymbolTableRecord
100
AcDbBlockTableRecord
  2
*Paper_Space
340
1E
 70
0
280
1
281
0
  0
BLOCK_RECORD
  5
74
330
9
100
AcDbSymbolTableRecord
100
AcDbBlockTableRecord
  2
_ARCHTICK
340
0
 70
0
280
1
281
0
  0
BLOCK_RECORD
  5
78
330
9
100
AcDbSymbolTableRecord
100
AcDbBlockTableRecord
  2
_CLOSEDFILLED
340
0
 70
0
280
1
281
0
  0
BLOCK_RECORD
  5
84
330
9
100
AcDbSymbolTableRecord
100
AcDbBlockTableRecord
  2
_CLOSEDBLANK
340
0
 70
0
280
1
281
0
  0
ENDTAB
  0
ENDSEC
  0
SECTION
  2
BLOCKS
  0
BLOCK
  5
18
330
17
100
AcDbEntity
  8
0
100
AcDbBlockBegin
  2
*Model_Space
 70
0
 10
0.0
 20
0.0
 30
0.0
  3
*Model_Space
  1

  0
ENDBLK
  5
19
330
17
100
AcDbEntity
  8
0
100
AcDbBlockEnd
  0
BLOCK
  5
1C
330
1B
100
AcDbEntity
  8
0
100
AcDbBlockBegin
  2
*Paper_Space
 70
0
 10
0.0
 20
0.0
 30
0.0
  3
*Paper_Space
  1

  0
ENDBLK
  5
1D
330
1B
100
AcDbEntity
  8
0
100
AcDbBlockEnd
  0
BLOCK
  5
75
330
74
100
AcDbEntity
  8
0
100
AcDbBlockBegin
  2
_ARCHTICK
 70
0
 10
0.0
 20
0.0
 30
0.0
  3
_ARCHTICK
  1

  0
LWPOLYLINE
  5
77
330
74
100
AcDbEntity
  8
0
  6
BYBLOCK
 62
0
100
AcDbPolyline
 90
2
 70
0
 43
0.15
 10
-0.5
 20
-0.5
 10
0.5
 20
0.5
  0
ENDBLK
  5
76
330
74
100
AcDbEntity
  8
0
100
AcDbBlockEnd
  0
BLOCK
  5
79
330
78
100
AcDbEntity
  8
0
100
AcDbBlockBegin
  2
_CLOSEDFILLED
 70
0
 10
0.0
 20
0.0
 30
0.0
  3
_CLOSEDFILLED
  1

  0
SOLID
  5
7B
330
78
100
AcDbEntity
  8
0
  6
BYBLOCK
 62
0
100
AcDbTrace
 10
-1.0
 20
0.16439898372402537
 30
0.0
 11
0.0
 21
0.0
 31
0.0
 12
-1.0
 22
-0.16439898372402537
 32
0.0
 13
-1.0
 23
-0.16439898372402537
 33
0.0
  0
ENDBLK
  5
7A
330
78
100
AcDbEntity
  8
0
100
AcDbBlockEnd
  0
BLOCK
  5
85
330
84
100
AcDbEntity
  8
0
100
AcDbBlockBegin
  2
_CLOSEDBLANK
 70
0
 10
0.0
 20
0.0
 30
0.0
  3
_CLOSEDBLANK
  1

  0
LWPOLYLINE
  5
87
330
84
100
AcDbEntity
  8
0
  6
BYBLOCK
 62
0
100
AcDbPolyline
 90
3
 70
1
 10
-1.0
 20
0.16439898372402537
 10
0.0
 20
0.0
 10
-1.0
 20
-0.16439898372402537
  0
ENDBLK
  5
86
330
84
100
AcDbEntity
  8
0
100
AcDbBlockEnd
  0
ENDSEC
  0
SECTION
  2
ENTITIES
  0
LWPOLYLINE
  5
8C
330
17
100
AcDbEntity
  8
door-narrow leaf
100
AcDbPolyline
 90
5
 70
0
 10
5.905511811023622
 20
90.98425196850394
 10
35.90551181102362
 20
90.98425196850394
 10
35.90551181102362
 20
0.0
 10
5.905511811023622
 20
0.0
 10
5.905511811023622
 20
90.98425196850394
  0
LINE
  5
8D
330
17
100
AcDbEntity
  8
door-narrow leaf
100
AcDbLine
 10
9.84251968503937
 20
87.04724409448819
 30
0.0
 11
31.968503937007874
 21
87.04724409448819
 31
0.0
  0
LINE
  5
8E
330
17
100
AcDbEntity
  8
door-narrow leaf
100
AcDbLine
 10
9.84251968503937
 20
11.614173228346457
 30
0.0
 11
31.968503937007874
 21
11.614173228346457
 31
0.0
  0
LINE
  5
8F
330
17
100
AcDbEntity
  8
door-narrow leaf
100
AcDbLine
 10
9.84251968503937
 20
42.79527559055118
 30
0.0
 11
9.84251968503937
 21
33.74015748031496
 31
0.0
  0
LINE
  5
90
330
17
100
AcDbEntity
  8
door-narrow leaf
100
AcDbLine
 10
31.968503937007874
 20
42.79527559055118
 30
0.0
 11
31.968503937007874
 21
33.74015748031496
 31
0.0
  0
LINE
  5
91
330
17
100
AcDbEntity
  8
door-narrow leaf
100
AcDbLine
 10
9.84251968503937
 20
90.98425196850394
 30
0.0
 11
9.84251968503937
 21
87.04724409448819
 31
0.0
  0
LINE
  5
92
330
17
100
AcDbEntity
  8
door-narrow leaf
100
AcDbLine
 10
31.968503937007874
 20
90.98425196850394
 30
0.0
 11
31.968503937007874
 21
87.04724409448819
 31
0.0
  0
LINE
  5
93
330
17
100
AcDbEntity
  8
door-narrow leaf
100
AcDbLine
 10
9.84251968503937
 20
11.614173228346457
 30
0.0
 11
9.84251968503937
 21
0.0
 31
0.0
  0
LINE
  5
94
330
17
100
AcDbEntity
  8
door-narrow leaf
100
AcDbLine
 10
31.968503937007874
 20
11.614173228346457
 30
0.0
 11
31.968503937007874
 21
0.0
 31
0.0
  0
LWPOLYLINE
  5
95
330
17
100
AcDbEntity
  8
door-narrow leaf
100
AcDbPolyline
 90
5
 70
0
 10
9.84251968503937
 20
87.04724409448819
 10
31.968503937007874
 20
87.04724409448819
 10
31.968503937007874
 20
42.795275590551185
 10
9.84251968503937
 20
42.795275590551185
 10
9.84251968503937
 20
87.04724409448819
  0
LWPOLYLINE
  5
96
330
17
100
AcDbEntity
  8
door-narrow leaf
100
AcDbPolyline
 90
5
 70
0
 10
10.629921259842519
 20
86.25984251968504
 10
31.181102362204726
 20
86.25984251968504
 10
31.181102362204726
 20
43.58267716535433
 10
10.629921259842519
 20
43.58267716535433
 10
10.629921259842519
 20
86.25984251968504
  0
LINE
  5
97
330
17
100
AcDbEntity
  8
door-narrow leaf
100
AcDbLine
 10
9.84251968503937
 20
87.04724409448819
 30
0.0
 11
10.62992125984252
 21
86.25984251968504
 31
0.0
  0
LINE
  5
98
330
17
100
AcDbEntity
  8
door-narrow leaf
100
AcDbLine
 10
31.968503937007874
 20
87.04724409448819
 30
0.0
 11
31.181102362204722
 21
86.25984251968504
 31
0.0
  0
LINE
  5
99
330
17
100
AcDbEntity
  8
door-narrow leaf
100
AcDbLine
 10
9.84251968503937
 20
42.79527559055118
 30
0.0
 11
10.62992125984252
 21
43.58267716535433
 31
0.0
  0
LINE
  5
9A
330
17
100
AcDbEntity
  8
door-narrow leaf
100
AcDbLine
 10
31.968503937007874
 20
42.79527559055118
 30
0.0
 11
31.181102362204722
 21
43.58267716535433
 31
0.0
  0
POLYLINE
  5
9B
330
17
100
AcDbEntity
  8
door-narrow leaf
100
AcDb2dPolyline
 66
1
 10
0.0
 20
0.0
 30
0.0
 70
0
  0
VERTEX
  5
9C
330
9B
100
AcDbEntity
  8
door-narrow leaf
100
AcDbVertex
100
AcDb2dVertex
 10
11.811023622047244
 20
47.44094488188977
 30
0.0
 70
0
  0
VERTEX
  5
9D
330
9B
100
AcDbEntity
  8
door-narrow leaf
100
AcDbVertex
100
AcDb2dVertex
 10
11.811023622047244
 20
82.40157480314961
 30
0.0
 70
0
  0
SEQEND
  5
9E
330
9B
100
AcDbEntity
  8
door-narrow leaf
  0
SPLINE
  5
9F
330
17
100
AcDbEntity
  8
door-narrow leaf
100
AcDbSpline
 70
0
 71
3
 72
14
 73
10
 74
0
 40
0.0
 40
0.0
 40
0.0
 40
0.0
 40
1.0
 40
1.0
 40
1.0
 40
2.0
 40
2.0
 40
2.0
 40
3.0
 40
3.0
 40
3.0
 40
3.0
 10
11.811023622047244
 20
82.40157480314961
 30
0.0
 10
12.018334954854392
 20
82.40157480314961
 30
0.0
 10
12.222037922446207
 20
82.45615684881166
 30
0.0
 10
12.401574803149607
 20
82.55981251521523
 30
0.0
 10
12.581111683853006
 20
82.66346818161881
 30
0.0
 10
12.73023260578277
 20
82.81258910354858
 30
0.0
 10
12.833888272186345
 20
82.99212598425197
 30
0.0
 10
12.937543938589918
 20
83.17166286495537
 30
0.0
 10
12.992125984251969
 20
83.37536583254719
 30
0.0
 10
12.992125984251969
 20
83.58267716535434
 30
0.0
  0
SPLINE
  5
A0
330
17
100
AcDbEntity
  8
door-narrow leaf
100
AcDbSpline
 70
0
 71
3
 72
11
 73
7
 74
0
 40
0.0
 40
0.0
 40
0.0
 40
0.0
 40
1.0
 40
1.0
 40
1.0
 40
2.0
 40
2.0
 40
2.0
 40
2.0
 10
12.992125984251969
 20
83.58267716535434
 30
0.0
 10
16.948818897637793
 20
83.58267716535434
 30
0.0
 10
15.999212598425197
 20
85.07874015748033
 30
0.0
 10
20.905511811023622
 20
85.07874015748033
 30
0.0
 10
25.81181102362205
 20
85.07874015748033
 30
0.0
 10
24.862204724409448
 20
83.58267716535434
 30
0.0
 10
28.818897637795274
 20
83.58267716535434
 30
0.0
  0
SPLINE
  5
A1
330
17
100
AcDbEntity
  8
door-narrow leaf
100
AcDbSpline
 70
0
 71
3
 72
14
 73
10
 74
0
 40
0.0
 40
0.0
 40
0.0
 40
0.0
 40
1.0
 40
1.0
 40
1.0
 40
2.0
 40
2.0
 40
2.0
 40
3.0
 40
3.0
 40
3.0
 40
3.0
 10
28.818897637795274
 20
83.58267716535434
 30
0.0
 10
28.818897637795274
 20
83.37536583254719
 30
0.0
 10
28.873479683457326
 20
83.17166286495537
 30
0.0
 10
28.977135349860898
 20
82.99212598425197
 30
0.0
 10
29.080791016264474
 20
82.81258910354858
 30
0.0
 10
29.22991193819424
 20
82.66346818161881
 30
0.0
 10
29.409448818897637
 20
82.55981251521523
 30
0.0
 10
29.58898569960104
 20
82.45615684881166
 30
0.0
 10
29.792688667192856
 20
82.40157480314961
 30
0.0
 10
30.0
 20
82.40157480314961
 30
0.0
  0
POLYLINE
  5
A2
330
17
100
AcDbEntity
  8
door-narrow leaf
100
AcDb2dPolyline
 66
1
 10
0.0
 20
0.0
 30
0.0
 70
0
  0
VERTEX
  5
A3
330
A2
100
AcDbEntity
  8
door-narrow leaf
100
AcDbVertex
100
AcDb2dVertex
 10
30.0
 20
82.40157480314961
 30
0.0
 70
0
  0
VERTEX
  5
A4
330
A2
100
AcDbEntity
  8
door-narrow leaf
100
AcDbVertex
100
AcDb2dVertex
 10
30.0
 20
47.44094488188977
 30
0.0
 70
0
  0
SEQEND
  5
A5
330
A2
100
AcDbEntity
  8
door-narrow leaf
  0
SPLINE
  5
A6
330
17
100
AcDbEntity
  8
door-narrow leaf
100
AcDbSpline
 70
0
 71
3
 72
14
 73
10
 74
0
 40
0.0
 40
0.0
 40
0.0
 40
0.0
 40
1.0
 40
1.0
 40
1.0
 40
2.0
 40
2.0
 40
2.0
 40
3.0
 40
3.0
 40
3.0
 40
3.0
 10
30.0
 20
47.44094488188977
 30
0.0
 10
29.792688667192856
 20
47.44094488188977
 30
0.0
 10
29.58898569960104
 20
47.386362836227725
 30
0.0
 10
29.409448818897637
 20
47.28270716982415
 30
0.0
 10
29.22991193819424
 20
47.179051503420574
 30
0.0
 10
29.080791016264474
 20
47.02993058149081
 30
0.0
 10
28.977135349860898
 20
46.85039370078741
 30
0.0
 10
28.873479683457326
 20
46.670856820084005
 30
0.0
 10
28.818897637795274
 20
46.467153852492196
 30
0.0
 10
28.818897637795274
 20
46.259842519685044
 30
0.0
  0
SPLINE
  5
A7
330
17
100
AcDbEntity
  8
door-narrow leaf
100
AcDbSpline
 70
0
 71
3
 72
11
 73
7
 74
0
 40
0.0
 40
0.0
 40
0.0
 40
0.0
 40
1.0
 40
1.0
 40
1.0
 40
2.0
 40
2.0
 40
2.0
 40
2.0
 10
28.818897637795274
 20
46.259842519685044
 30
0.0
 10
24.862204724409448
 20
46.259842519685044
 30
0.0
 10
25.81181102362205
 20
44.76377952755906
 30
0.0
 10
20.905511811023622
 20
44.76377952755906
 30
0.0
 10
15.999212598425197
 20
44.76377952755906
 30
0.0
 10
16.948818897637793
 20
46.259842519685044
 30
0.0
 10
12.992125984251969
 20
46.259842519685044
 30
0.0
  0
SPLINE
  5
A8
330
17
100
AcDbEntity
  8
door-narrow leaf
100
AcDbSpline
 70
0
 71
3
 72
14
 73
10
 74
0
 40
0.0
 40
0.0
 40
0.0
 40
0.0
 40
1.0
 40
1.0
 40
1.0
 40
2.0
 40
2.0
 40
2.0
 40
3.0
 40
3.0
 40
3.0
 40
3.0
 10
12.992125984251969
 20
46.259842519685044
 30
0.0
 10
12.992125984251969
 20
46.467153852492196
 30
0.0
 10
12.937543938589918
 20
46.670856820084005
 30
0.0
 10
12.833888272186345
 20
46.85039370078741
 30
0.0
 10
12.73023260578277
 20
47.02993058149081
 30
0.0
 10
12.581111683853006
 20
47.17905150342057
 30
0.0
 10
12.401574803149607
 20
47.28270716982414
 30
0.0
 10
12.222037922446207
 20
47.38636283622771
 30
0.0
 10
12.018334954854392
 20
47.44094488188977
 30
0.0
 10
11.811023622047244
 20
47.44094488188977
 30
0.0
  0
CIRCLE
  5
A9
330
17
100
AcDbEntity
  8
door-narrow leaf
100
AcDbCircle
 10
11.929133858267717
 20
83.7007874015748
 30
0.0
 40
0.5118110236220472
  0
CIRCLE
  5
AA
330
17
100
AcDbEntity
  8
door-narrow leaf
100
AcDbCircle
 10
11.929133858267717
 20
83.7007874015748
 30
0.0
 40
0.2047244094488189
  0
CIRCLE
  5
AB
330
17
100
AcDbEntity
  8
door-narrow leaf
100
AcDbCircle
 10
29.881889763779526
 20
83.7007874015748
 30
0.0
 40
0.5118110236220472
  0
CIRCLE
  5
AC
330
17
100
AcDbEntity
  8
door-narrow leaf
100
AcDbCircle
 10
29.881889763779526
 20
83.7007874015748
 30
0.0
 40
0.2047244094488189
  0
CIRCLE
  5
AD
330
17
100
AcDbEntity
  8
door-narrow leaf
100
AcDbCircle
 10
11.929133858267717
 20
46.14173228346456
 30
0.0
 40
0.5118110236220472
  0
CIRCLE
  5
AE
330
17
100
AcDbEntity
  8
door-narrow leaf
100
AcDbCircle
 10
11.929133858267717
 20
46.14173228346456
 30
0.0
 40
0.2047244094488189
  0
CIRCLE
  5
AF
330
17
100
AcDbEntity
  8
door-narrow leaf
100
AcDbCircle
 10
29.881889763779526
 20
46.14173228346456
 30
0.0
 40
0.5118110236220472
  0
CIRCLE
  5
B0
330
17
100
AcDbEntity
  8
door-narrow leaf
100
AcDbCircle
 10
29.881889763779526
 20
46.14173228346456
 30
0.0
 40
0.2047244094488189
  0
LWPOLYLINE
  5
B1
330
17
100
AcDbEntity
  8
door-narrow leaf
100
AcDbPolyline
 90
5
 70
0
 10
9.84251968503937
 20
33.74015748031496
 10
31.968503937007874
 20
33.74015748031496
 10
31.968503937007874
 20
11.61417322834646
 10
9.84251968503937
 20
11.61417322834646
 10
9.84251968503937
 20
33.74015748031496
  0
LWPOLYLINE
  5
B2
330
17
100
AcDbEntity
  8
door-narrow leaf
100
AcDbPolyline
 90
5
 70
0
 10
10.629921259842519
 20
32.952755905511815
 10
31.181102362204726
 20
32.952755905511815
 10
31.181102362204726
 20
12.401574803149614
 10
10.629921259842519
 20
12.401574803149614
 10
10.629921259842519
 20
32.952755905511815
  0
LINE
  5
B3
330
17
100
AcDbEntity
  8
door-narrow leaf
100
AcDbLine
 10
9.84251968503937
 20
33.74015748031496
 30
0.0
 11
10.62992125984252
 21
32.95275590551181
 31
0.0
  0
LINE
  5
B4
330
17
100
AcDbEntity
  8
door-narrow leaf
100
AcDbLine
 10
31.968503937007874
 20
33.74015748031496
 30
0.0
 11
31.181102362204722
 21
32.95275590551181
 31
0.0
  0
LINE
  5
B5
330
17
100
AcDbEntity
  8
door-narrow leaf
100
AcDbLine
 10
9.84251968503937
 20
11.614173228346457
 30
0.0
 11
10.62992125984252
 21
12.401574803149606
 31
0.0
  0
LINE
  5
B6
330
17
100
AcDbEntity
  8
door-narrow leaf
100
AcDbLine
 10
31.968503937007874
 20
11.614173228346457
 30
0.0
 11
31.181102362204722
 21
12.401574803149606
 31
0.0
  0
POLYLINE
  5
B7
330
17
100
AcDbEntity
  8
door-narrow leaf
100
AcDb2dPolyline
 66
1
 10
0.0
 20
0.0
 30
0.0
 70
0
  0
VERTEX
  5
B8
330
B7
100
AcDbEntity
  8
door-narrow leaf
100
AcDbVertex
100
AcDb2dVertex
 10
11.811023622047244
 20
16.259842519685037
 30
0.0
 70
0
  0
VERTEX
  5
B9
330
B7
100
AcDbEntity
  8
door-narrow leaf
100
AcDbVertex
100
AcDb2dVertex
 10
11.811023622047244
 20
29.094488188976385
 30
0.0
 70
0
  0
SEQEND
  5
BA
330
B7
100
AcDbEntity
  8
door-narrow leaf
  0
SPLINE
  5
BB
330
17
100
AcDbEntity
  8
door-narrow leaf
100
AcDbSpline
 70
0
 71
3
 72
14
 73
10
 74
0
 40
0.0
 40
0.0
 40
0.0
 40
0.0
 40
1.0
 40
1.0
 40
1.0
 40
2.0
 40
2.0
 40
2.0
 40
3.0
 40
3.0
 40
3.0
 40
3.0
 10
11.811023622047244
 20
29.094488188976385
 30
0.0
 10
12.018334954854392
 20
29.094488188976385
 30
0.0
 10
12.222037922446207
 20
29.14907023463843
 30
0.0
 10
12.401574803149607
 20
29.252725901041998
 30
0.0
 10
12.581111683853006
 20
29.356381567445574
 30
0.0
 10
12.73023260578277
 20
29.505502489375345
 30
0.0
 10
12.833888272186345
 20
29.685039370078748
 30
0.0
 10
12.937543938589918
 20
29.864576250782143
 30
0.0
 10
12.992125984251969
 20
30.06827921837396
 30
0.0
 10
12.992125984251969
 20
30.275590551181104
 30
0.0
  0
SPLINE
  5
BC
330
17
100
AcDbEntity
  8
door-narrow leaf
100
AcDbSpline
 70
0
 71
3
 72
11
 73
7
 74
0
 40
0.0
 40
0.0
 40
0.0
 40
0.0
 40
1.0
 40
1.0
 40
1.0
 40
2.0
 40
2.0
 40
2.0
 40
2.0
 10
12.992125984251969
 20
30.275590551181104
 30
0.0
 10
16.948818897637793
 20
30.275590551181104
 30
0.0
 10
15.999212598425197
 20
31.77165354330709
 30
0.0
 10
20.905511811023622
 20
31.77165354330709
 30
0.0
 10
25.81181102362205
 20
31.77165354330709
 30
0.0
 10
24.862204724409448
 20
30.275590551181104
 30
0.0
 10
28.818897637795274
 20
30.275590551181104
 30
0.0
  0
SPLINE
  5
BD
330
17
100
AcDbEntity
  8
door-narrow leaf
100
AcDbSpline
 70
0
 71
3
 72
14
 73
10
 74
0
 40
0.0
 40
0.0
 40
0.0
 40
0.0
 40
1.0
 40
1.0
 40
1.0
 40
2.0
 40
2.0
 40
2.0
 40
3.0
 40
3.0
 40
3.0
 40
3.0
 10
28.818897637795274
 20
30.275590551181104
 30
0.0
 10
28.818897637795274
 20
30.06827921837396
 30
0.0
 10
28.873479683457326
 20
29.864576250782143
 30
0.0
 10
28.977135349860898
 20
29.685039370078748
 30
0.0
 10
29.080791016264474
 20
29.505502489375345
 30
0.0
 10
29.22991193819424
 20
29.356381567445588
 30
0.0
 10
29.409448818897637
 20
29.252725901042012
 30
0.0
 10
29.58898569960104
 20
29.149070234638437
 30
0.0
 10
29.792688667192856
 20
29.094488188976385
 30
0.0
 10
30.0
 20
29.094488188976385
 30
0.0
  0
POLYLINE
  5
BE
330
17
100
AcDbEntity
  8
door-narrow leaf
100
AcDb2dPolyline
 66
1
 10
0.0
 20
0.0
 30
0.0
 70
0
  0
VERTEX
  5
BF
330
BE
100
AcDbEntity
  8
door-narrow leaf
100
AcDbVertex
100
AcDb2dVertex
 10
30.0
 20
29.094488188976385
 30
0.0
 70
0
  0
VERTEX
  5
C0
330
BE
100
AcDbEntity
  8
door-narrow leaf
100
AcDbVertex
100
AcDb2dVertex
 10
30.0
 20
16.259842519685037
 30
0.0
 70
0
  0
SEQEND
  5
C1
330
BE
100
AcDbEntity
  8
door-narrow leaf
  0
SPLINE
  5
C2
330
17
100
AcDbEntity
  8
door-narrow leaf
100
AcDbSpline
 70
0
 71
3
 72
14
 73
10
 74
0
 40
0.0
 40
0.0
 40
0.0
 40
0.0
 40
1.0
 40
1.0
 40
1.0
 40
2.0
 40
2.0
 40
2.0
 40
3.0
 40
3.0
 40
3.0
 40
3.0
 10
30.0
 20
16.259842519685037
 30
0.0
 10
29.792688667192856
 20
16.259842519685037
 30
0.0
 10
29.58898569960104
 20
16.205260474022992
 30
0.0
 10
29.409448818897637
 20
16.101604807619424
 30
0.0
 10
29.22991193819424
 20
15.997949141215855
 30
0.0
 10
29.080791016264474
 20
15.848828219286077
 30
0.0
 10
28.977135349860898
 20
15.669291338582681
 30
0.0
 10
28.873479683457326
 20
15.489754457879286
 30
0.0
 10
28.818897637795274
 20
15.286051490287463
 30
0.0
 10
28.818897637795274
 20
15.078740157480325
 30
0.0
  0
SPLINE
  5
C3
330
17
100
AcDbEntity
  8
door-narrow leaf
100
AcDbSpline
 70
0
 71
3
 72
11
 73
7
 74
0
 40
0.0
 40
0.0
 40
0.0
 40
0.0
 40
1.0
 40
1.0
 40
1.0
 40
2.0
 40
2.0
 40
2.0
 40
2.0
 10
28.818897637795274
 20
15.078740157480325
 30
0.0
 10
24.862204724409448
 20
15.078740157480325
 30
0.0
 10
25.81181102362205
 20
13.58267716535434
 30
0.0
 10
20.905511811023622
 20
13.58267716535434
 30
0.0
 10
15.999212598425197
 20
13.58267716535434
 30
0.0
 10
16.948818897637793
 20
15.078740157480325
 30
0.0
 10
12.992125984251969
 20
15.078740157480325
 30
0.0
  0
SPLINE
  5
C4
330
17
100
AcDbEntity
  8
door-narrow leaf
100
AcDbSpline
 70
0
 71
3
 72
14
 73
10
 74
0
 40
0.0
 40
0.0
 40
0.0
 40
0.0
 40
1.0
 40
1.0
 40
1.0
 40
2.0
 40
2.0
 40
2.0
 40
3.0
 40
3.0
 40
3.0
 40
3.0
 10
12.992125984251969
 20
15.078740157480325
 30
0.0
 10
12.992125984251969
 20
15.286051490287463
 30
0.0
 10
12.937543938589918
 20
15.489754457879286
 30
0.0
 10
12.833888272186345
 20
15.669291338582681
 30
0.0
 10
12.73023260578277
 20
15.848828219286077
 30
0.0
 10
12.581111683853006
 20
15.997949141215841
 30
0.0
 10
12.401574803149607
 20
16.10160480761941
 30
0.0
 10
12.222037922446207
 20
16.205260474022992
 30
0.0
 10
12.018334954854392
 20
16.259842519685037
 30
0.0
 10
11.811023622047244
 20
16.259842519685037
 30
0.0
  0
CIRCLE
  5
C5
330
17
100
AcDbEntity
  8
door-narrow leaf
100
AcDbCircle
 10
11.929133858267717
 20
30.393700787401574
 30
0.0
 40
0.5118110236220472
  0
CIRCLE
  5
C6
330
17
100
AcDbEntity
  8
door-narrow leaf
100
AcDbCircle
 10
11.929133858267717
 20
30.393700787401574
 30
0.0
 40
0.2047244094488189
  0
CIRCLE
  5
C7
330
17
100
AcDbEntity
  8
door-narrow leaf
100
AcDbCircle
 10
29.881889763779526
 20
30.393700787401574
 30
0.0
 40
0.5118110236220472
  0
CIRCLE
  5
C8
330
17
100
AcDbEntity
  8
door-narrow leaf
100
AcDbCircle
 10
29.881889763779526
 20
30.393700787401574
 30
0.0
 40
0.2047244094488189
  0
CIRCLE
  5
C9
330
17
100
AcDbEntity
  8
door-narrow leaf
100
AcDbCircle
 10
11.929133858267717
 20
14.960629921259843
 30
0.0
 40
0.5118110236220472
  0
CIRCLE
  5
CA
330
17
100
AcDbEntity
  8
door-narrow leaf
100
AcDbCircle
 10
11.929133858267717
 20
14.960629921259843
 30
0.0
 40
0.2047244094488189
  0
CIRCLE
  5
CB
330
17
100
AcDbEntity
  8
door-narrow leaf
100
AcDbCircle
 10
29.881889763779526
 20
14.960629921259843
 30
0.0
 40
0.5118110236220472
  0
CIRCLE
  5
CC
330
17
100
AcDbEntity
  8
door-narrow leaf
100
AcDbCircle
 10
29.881889763779526
 20
14.960629921259843
 30
0.0
 40
0.2047244094488189
  0
CIRCLE
  5
CD
330
17
100
AcDbEntity
  8
door-narrow leaf
100
AcDbCircle
 10
11.023622047244094
 20
38.26771653543307
 30
0.0
 40
1.0826771653543308
  0
CIRCLE
  5
CE
330
17
100
AcDbEntity
  8
door-narrow leaf
100
AcDbCircle
 10
11.023622047244094
 20
38.26771653543307
 30
0.0
 40
0.6889763779527559
  0
CIRCLE
  5
CF
330
17
100
AcDbEntity
  8
door-narrow leaf
100
AcDbCircle
 10
7.559055118110236
 20
38.26771653543307
 30
0.0
 40
0.6692913385826772
  0
SPLINE
  5
D0
330
17
100
AcDbEntity
  8
door-narrow leaf
100
AcDbSpline
 70
0
 71
3
 72
35
 73
31
 74
0
 40
0.0
 40
0.0
 40
0.0
 40
0.0
 40
1.0
 40
1.0
 40
1.0
 40
2.0
 40
2.0
 40
2.0
 40
3.0
 40
3.0
 40
3.0
 40
4.0
 40
4.0
 40
4.0
 40
5.0
 40
5.0
 40
5.0
 40
6.0
 40
6.0
 40
6.0
 40
7.0
 40
7.0
 40
7.0
 40
8.0
 40
8.0
 40
8.0
 40
9.0
 40
9.0
 40
9.0
 40
10.0
 40
10.0
 40
10.0
 40
10.0
 10
7.440944881889764
 20
38.30708661417323
 30
0.0
 10
7.419609840569291
 20
38.326169255251365
 30
0.0
 10
7.403213896395702
 20
38.35014120101716
 30
0.0
 10
7.393165362595717
 20
38.376943405164084
 30
0.0
 10
7.383116828795732
 20
38.40374560931102
 30
0.0
 10
7.379711888404855
 20
38.43258807019901
 30
0.0
 10
7.383243005372576
 20
38.4609933934963
 30
0.0
 10
7.386774122340299
 20
38.4893987167936
 30
0.0
 10
7.3971372161148645
 20
38.516529648524006
 30
0.0
 10
7.41344215912095
 20
38.54005580444102
 30
0.0
 10
7.429747102127035
 20
38.563581960358036
 30
0.0
 10
7.451513302110143
 20
38.582809901158754
 30
0.0
 10
7.476871173091757
 20
38.59608806209855
 30
0.0
 10
7.5022290440733705
 20
38.60936622303835
 30
0.0
 10
7.530431156493034
 20
38.6163032270177
 30
0.0
 10
7.5590551181102414
 20
38.6163032270177
 30
0.0
 10
7.587679079727448
 20
38.6163032270177
 30
0.0
 10
7.615881192147111
 20
38.60936622303835
 30
0.0
 10
7.641239063128724
 20
38.59608806209855
 30
0.0
 10
7.666596934110337
 20
38.582809901158754
 30
0.0
 10
7.688363134093444
 20
38.56358196035803
 30
0.0
 10
7.704668077099528
 20
38.54005580444101
 30
0.0
 10
7.720973020105612
 20
38.516529648524
 30
0.0
 10
7.731336113880177
 20
38.48939871679359
 30
0.0
 10
7.734867230847897
 20
38.460993393496295
 30
0.0
 10
7.738398347815618
 20
38.432588070199
 30
0.0
 10
7.734993407424739
 20
38.40374560931101
 30
0.0
 10
7.724944873624753
 20
38.37694340516408
 30
0.0
 10
7.714896339824766
 20
38.350141201017145
 30
0.0
 10
7.698500395651182
 20
38.326169255251365
 30
0.0
 10
7.677165354330709
 20
38.30708661417323
 30
0.0
  0
POLYLINE
  5
D1
330
17
100
AcDbEntity
  8
door-narrow leaf
100
AcDb2dPolyline
 66
1
 10
0.0
 20
0.0
 30
0.0
 70
0
  0
VERTEX
  5
D2
330
D1
100
AcDbEntity
  8
door-narrow leaf
100
AcDbVertex
100
AcDb2dVertex
 10
7.677165354330709
 20
38.30708661417323
 30
0.0
 70
0
  0
VERTEX
  5
D3
330
D1
100
AcDbEntity
  8
door-narrow leaf
100
AcDbVertex
100
AcDb2dVertex
 10
7.736220472440945
 20
37.8740157480315
 30
0.0
 70
0
  0
VERTEX
  5
D4
330
D1
100
AcDbEntity
  8
door-narrow leaf
100
AcDbVertex
100
AcDb2dVertex
 10
7.381889763779528
 20
37.8740157480315
 30
0.0
 70
0
  0
VERTEX
  5
D5
330
D1
100
AcDbEntity
  8
door-narrow leaf
100
AcDbVertex
100
AcDb2dVertex
 10
7.440944881889764
 20
38.30708661417323
 30
0.0
 70
0
  0
SEQEND
  5
D6
330
D1
100
AcDbEntity
  8
door-narrow leaf
  0
LINE
  5
D7
330
17
100
AcDbEntity
  8
door-narrow leaf
100
AcDbLine
 10
0.0
 20
0.0
 30
0.0
 11
41.811023622047244
 21
0.0
 31
0.0
  0
TEXT
  5
D8
330
17
100
AcDbEntity
  8
LABELS
100
AcDbText
 10
0.0
 20
93.34645669291338
 30
0.0
 40
0.836220472440945
  1
DOOR-NARROW LEAF  (1:1, inches)
 11
0.0
 21
93.34645669291338
 31
0.0
100
AcDbText
  0
LWPOLYLINE
  5
DB
330
17
100
AcDbEntity
  8
door leaf
100
AcDbPolyline
 90
5
 70
0
 10
57.55905511811024
 20
90.98425196850394
 10
75.55118110236221
 20
90.98425196850394
 10
75.55118110236221
 20
0.0
 10
57.55905511811024
 20
0.0
 10
57.55905511811024
 20
90.98425196850394
  0
LINE
  5
DC
330
17
100
AcDbEntity
  8
door leaf
100
AcDbLine
 10
61.496062992125985
 20
87.04724409448819
 30
0.0
 11
71.61417322834646
 21
87.04724409448819
 31
0.0
  0
LINE
  5
DD
330
17
100
AcDbEntity
  8
door leaf
100
AcDbLine
 10
61.496062992125985
 20
11.614173228346457
 30
0.0
 11
71.61417322834646
 21
11.614173228346457
 31
0.0
  0
LINE
  5
DE
330
17
100
AcDbEntity
  8
door leaf
100
AcDbLine
 10
61.496062992125985
 20
42.79527559055118
 30
0.0
 11
61.496062992125985
 21
33.74015748031496
 31
0.0
  0
LINE
  5
DF
330
17
100
AcDbEntity
  8
door leaf
100
AcDbLine
 10
71.61417322834646
 20
42.79527559055118
 30
0.0
 11
71.61417322834646
 21
33.74015748031496
 31
0.0
  0
LINE
  5
E0
330
17
100
AcDbEntity
  8
door leaf
100
AcDbLine
 10
61.496062992125985
 20
90.98425196850394
 30
0.0
 11
61.496062992125985
 21
87.04724409448819
 31
0.0
  0
LINE
  5
E1
330
17
100
AcDbEntity
  8
door leaf
100
AcDbLine
 10
71.61417322834646
 20
90.98425196850394
 30
0.0
 11
71.61417322834646
 21
87.04724409448819
 31
0.0
  0
LINE
  5
E2
330
17
100
AcDbEntity
  8
door leaf
100
AcDbLine
 10
61.496062992125985
 20
11.614173228346457
 30
0.0
 11
61.496062992125985
 21
0.0
 31
0.0
  0
LINE
  5
E3
330
17
100
AcDbEntity
  8
door leaf
100
AcDbLine
 10
71.61417322834646
 20
11.614173228346457
 30
0.0
 11
71.61417322834646
 21
0.0
 31
0.0
  0
LWPOLYLINE
  5
E4
330
17
100
AcDbEntity
  8
door leaf
100
AcDbPolyline
 90
5
 70
0
 10
61.496062992125985
 20
87.04724409448819
 10
71.61417322834646
 20
87.04724409448819
 10
71.61417322834646
 20
42.795275590551185
 10
61.496062992125985
 20
42.795275590551185
 10
61.496062992125985
 20
87.04724409448819
  0
LWPOLYLINE
  5
E5
330
17
100
AcDbEntity
  8
door leaf
100
AcDbPolyline
 90
5
 70
0
 10
62.28346456692913
 20
86.25984251968504
 10
70.8267716535433
 20
86.25984251968504
 10
70.8267716535433
 20
43.58267716535433
 10
62.28346456692913
 20
43.58267716535433
 10
62.28346456692913
 20
86.25984251968504
  0
LINE
  5
E6
330
17
100
AcDbEntity
  8
door leaf
100
AcDbLine
 10
61.496062992125985
 20
87.04724409448819
 30
0.0
 11
62.28346456692913
 21
86.25984251968504
 31
0.0
  0
LINE
  5
E7
330
17
100
AcDbEntity
  8
door leaf
100
AcDbLine
 10
71.61417322834646
 20
87.04724409448819
 30
0.0
 11
70.8267716535433
 21
86.25984251968504
 31
0.0
  0
LINE
  5
E8
330
17
100
AcDbEntity
  8
door leaf
100
AcDbLine
 10
61.496062992125985
 20
42.79527559055118
 30
0.0
 11
62.28346456692913
 21
43.58267716535433
 31
0.0
  0
LINE
  5
E9
330
17
100
AcDbEntity
  8
door leaf
100
AcDbLine
 10
71.61417322834646
 20
42.79527559055118
 30
0.0
 11
70.8267716535433
 21
43.58267716535433
 31
0.0
  0
POLYLINE
  5
EA
330
17
100
AcDbEntity
  8
door leaf
100
AcDb2dPolyline
 66
1
 10
0.0
 20
0.0
 30
0.0
 70
0
  0
VERTEX
  5
EB
330
EA
100
AcDbEntity
  8
door leaf
100
AcDbVertex
100
AcDb2dVertex
 10
63.46456692913386
 20
47.44094488188977
 30
0.0
 70
0
  0
VERTEX
  5
EC
330
EA
100
AcDbEntity
  8
door leaf
100
AcDbVertex
100
AcDb2dVertex
 10
63.46456692913386
 20
82.40157480314961
 30
0.0
 70
0
  0
SEQEND
  5
ED
330
EA
100
AcDbEntity
  8
door leaf
  0
SPLINE
  5
EE
330
17
100
AcDbEntity
  8
door leaf
100
AcDbSpline
 70
0
 71
3
 72
14
 73
10
 74
0
 40
0.0
 40
0.0
 40
0.0
 40
0.0
 40
1.0
 40
1.0
 40
1.0
 40
2.0
 40
2.0
 40
2.0
 40
3.0
 40
3.0
 40
3.0
 40
3.0
 10
63.46456692913386
 20
82.40157480314961
 30
0.0
 10
63.671878261941
 20
82.40157480314961
 30
0.0
 10
63.87558122953282
 20
82.45615684881166
 30
0.0
 10
64.05511811023622
 20
82.55981251521523
 30
0.0
 10
64.23465499093962
 20
82.66346818161881
 30
0.0
 10
64.38377591286938
 20
82.81258910354858
 30
0.0
 10
64.48743157927296
 20
82.99212598425197
 30
0.0
 10
64.59108724567653
 20
83.17166286495537
 30
0.0
 10
64.64566929133858
 20
83.37536583254719
 30
0.0
 10
64.64566929133858
 20
83.58267716535434
 30
0.0
  0
SPLINE
  5
EF
330
17
100
AcDbEntity
  8
door leaf
100
AcDbSpline
 70
0
 71
3
 72
11
 73
7
 74
0
 40
0.0
 40
0.0
 40
0.0
 40
0.0
 40
1.0
 40
1.0
 40
1.0
 40
2.0
 40
2.0
 40
2.0
 40
2.0
 10
64.64566929133858
 20
83.58267716535434
 30
0.0
 10
65.60039370078741
 20
83.58267716535434
 30
0.0
 10
65.37125984251969
 20
85.07874015748033
 30
0.0
 10
66.55511811023622
 20
85.07874015748033
 30
0.0
 10
67.73897637795275
 20
85.07874015748033
 30
0.0
 10
67.50984251968504
 20
83.58267716535434
 30
0.0
 10
68.46456692913387
 20
83.58267716535434
 30
0.0
  0
SPLINE
  5
F0
330
17
100
AcDbEntity
  8
door leaf
100
AcDbSpline
 70
0
 71
3
 72
14
 73
10
 74
0
 40
0.0
 40
0.0
 40
0.0
 40
0.0
 40
1.0
 40
1.0
 40
1.0
 40
2.0
 40
2.0
 40
2.0
 40
3.0
 40
3.0
 40
3.0
 40
3.0
 10
68.46456692913387
 20
83.58267716535434
 30
0.0
 10
68.46456692913387
 20
83.37536583254719
 30
0.0
 10
68.51914897479591
 20
83.17166286495537
 30
0.0
 10
68.62280464119948
 20
82.99212598425197
 30
0.0
 10
68.72646030760305
 20
82.81258910354858
 30
0.0
 10
68.87558122953283
 20
82.66346818161881
 30
0.0
 10
69.05511811023622
 20
82.55981251521523
 30
0.0
 10
69.23465499093962
 20
82.45615684881166
 30
0.0
 10
69.43835795853144
 20
82.40157480314961
 30
0.0
 10
69.64566929133858
 20
82.40157480314961
 30
0.0
  0
POLYLINE
  5
F1
330
17
100
AcDbEntity
  8
door leaf
100
AcDb2dPolyline
 66
1
 10
0.0
 20
0.0
 30
0.0
 70
0
  0
VERTEX
  5
F2
330
F1
100
AcDbEntity
  8
door leaf
100
AcDbVertex
100
AcDb2dVertex
 10
69.64566929133858
 20
82.40157480314961
 30
0.0
 70
0
  0
VERTEX
  5
F3
330
F1
100
AcDbEntity
  8
door leaf
100
AcDbVertex
100
AcDb2dVertex
 10
69.64566929133858
 20
47.44094488188977
 30
0.0
 70
0
  0
SEQEND
  5
F4
330
F1
100
AcDbEntity
  8
door leaf
  0
SPLINE
  5
F5
330
17
100
AcDbEntity
  8
door leaf
100
AcDbSpline
 70
0
 71
3
 72
14
 73
10
 74
0
 40
0.0
 40
0.0
 40
0.0
 40
0.0
 40
1.0
 40
1.0
 40
1.0
 40
2.0
 40
2.0
 40
2.0
 40
3.0
 40
3.0
 40
3.0
 40
3.0
 10
69.64566929133858
 20
47.44094488188977
 30
0.0
 10
69.43835795853144
 20
47.44094488188977
 30
0.0
 10
69.23465499093962
 20
47.386362836227725
 30
0.0
 10
69.05511811023622
 20
47.28270716982415
 30
0.0
 10
68.87558122953283
 20
47.179051503420574
 30
0.0
 10
68.72646030760306
 20
47.02993058149081
 30
0.0
 10
68.62280464119948
 20
46.85039370078741
 30
0.0
 10
68.51914897479591
 20
46.670856820084005
 30
0.0
 10
68.46456692913387
 20
46.467153852492196
 30
0.0
 10
68.46456692913387
 20
46.259842519685044
 30
0.0
  0
SPLINE
  5
F6
330
17
100
AcDbEntity
  8
door leaf
100
AcDbSpline
 70
0
 71
3
 72
11
 73
7
 74
0
 40
0.0
 40
0.0
 40
0.0
 40
0.0
 40
1.0
 40
1.0
 40
1.0
 40
2.0
 40
2.0
 40
2.0
 40
2.0
 10
68.46456692913387
 20
46.259842519685044
 30
0.0
 10
67.50984251968504
 20
46.259842519685044
 30
0.0
 10
67.73897637795275
 20
44.76377952755906
 30
0.0
 10
66.55511811023622
 20
44.76377952755906
 30
0.0
 10
65.37125984251969
 20
44.76377952755906
 30
0.0
 10
65.60039370078741
 20
46.259842519685044
 30
0.0
 10
64.64566929133858
 20
46.259842519685044
 30
0.0
  0
SPLINE
  5
F7
330
17
100
AcDbEntity
  8
door leaf
100
AcDbSpline
 70
0
 71
3
 72
14
 73
10
 74
0
 40
0.0
 40
0.0
 40
0.0
 40
0.0
 40
1.0
 40
1.0
 40
1.0
 40
2.0
 40
2.0
 40
2.0
 40
3.0
 40
3.0
 40
3.0
 40
3.0
 10
64.64566929133858
 20
46.259842519685044
 30
0.0
 10
64.64566929133858
 20
46.467153852492196
 30
0.0
 10
64.59108724567653
 20
46.670856820084005
 30
0.0
 10
64.48743157927296
 20
46.85039370078741
 30
0.0
 10
64.38377591286938
 20
47.02993058149081
 30
0.0
 10
64.23465499093962
 20
47.17905150342057
 30
0.0
 10
64.05511811023622
 20
47.28270716982414
 30
0.0
 10
63.87558122953282
 20
47.38636283622771
 30
0.0
 10
63.671878261941
 20
47.44094488188977
 30
0.0
 10
63.46456692913386
 20
47.44094488188977
 30
0.0
  0
CIRCLE
  5
F8
330
17
100
AcDbEntity
  8
door leaf
100
AcDbCircle
 10
63.58267716535433
 20
83.7007874015748
 30
0.0
 40
0.5118110236220472
  0
CIRCLE
  5
F9
330
17
100
AcDbEntity
  8
door leaf
100
AcDbCircle
 10
63.58267716535433
 20
83.7007874015748
 30
0.0
 40
0.2047244094488189
  0
CIRCLE
  5
FA
330
17
100
AcDbEntity
  8
door leaf
100
AcDbCircle
 10
69.5275590551181
 20
83.7007874015748
 30
0.0
 40
0.5118110236220472
  0
CIRCLE
  5
FB
330
17
100
AcDbEntity
  8
door leaf
100
AcDbCircle
 10
69.5275590551181
 20
83.7007874015748
 30
0.0
 40
0.2047244094488189
  0
CIRCLE
  5
FC
330
17
100
AcDbEntity
  8
door leaf
100
AcDbCircle
 10
63.58267716535433
 20
46.14173228346456
 30
0.0
 40
0.5118110236220472
  0
CIRCLE
  5
FD
330
17
100
AcDbEntity
  8
door leaf
100
AcDbCircle
 10
63.58267716535433
 20
46.14173228346456
 30
0.0
 40
0.2047244094488189
  0
CIRCLE
  5
FE
330
17
100
AcDbEntity
  8
door leaf
100
AcDbCircle
 10
69.5275590551181
 20
46.14173228346456
 30
0.0
 40
0.5118110236220472
  0
CIRCLE
  5
FF
330
17
100
AcDbEntity
  8
door leaf
100
AcDbCircle
 10
69.5275590551181
 20
46.14173228346456
 30
0.0
 40
0.2047244094488189
  0
LWPOLYLINE
  5
100
330
17
100
AcDbEntity
  8
door leaf
100
AcDbPolyline
 90
5
 70
0
 10
61.496062992125985
 20
33.74015748031496
 10
71.61417322834646
 20
33.74015748031496
 10
71.61417322834646
 20
11.61417322834646
 10
61.496062992125985
 20
11.61417322834646
 10
61.496062992125985
 20
33.74015748031496
  0
LWPOLYLINE
  5
101
330
17
100
AcDbEntity
  8
door leaf
100
AcDbPolyline
 90
5
 70
0
 10
62.28346456692913
 20
32.952755905511815
 10
70.8267716535433
 20
32.952755905511815
 10
70.8267716535433
 20
12.401574803149614
 10
62.28346456692913
 20
12.401574803149614
 10
62.28346456692913
 20
32.952755905511815
  0
LINE
  5
102
330
17
100
AcDbEntity
  8
door leaf
100
AcDbLine
 10
61.496062992125985
 20
33.74015748031496
 30
0.0
 11
62.28346456692913
 21
32.95275590551181
 31
0.0
  0
LINE
  5
103
330
17
100
AcDbEntity
  8
door leaf
100
AcDbLine
 10
71.61417322834646
 20
33.74015748031496
 30
0.0
 11
70.8267716535433
 21
32.95275590551181
 31
0.0
  0
LINE
  5
104
330
17
100
AcDbEntity
  8
door leaf
100
AcDbLine
 10
61.496062992125985
 20
11.614173228346457
 30
0.0
 11
62.28346456692913
 21
12.401574803149606
 31
0.0
  0
LINE
  5
105
330
17
100
AcDbEntity
  8
door leaf
100
AcDbLine
 10
71.61417322834646
 20
11.614173228346457
 30
0.0
 11
70.8267716535433
 21
12.401574803149606
 31
0.0
  0
POLYLINE
  5
106
330
17
100
AcDbEntity
  8
door leaf
100
AcDb2dPolyline
 66
1
 10
0.0
 20
0.0
 30
0.0
 70
0
  0
VERTEX
  5
107
330
106
100
AcDbEntity
  8
door leaf
100
AcDbVertex
100
AcDb2dVertex
 10
63.46456692913386
 20
16.259842519685037
 30
0.0
 70
0
  0
VERTEX
  5
108
330
106
100
AcDbEntity
  8
door leaf
100
AcDbVertex
100
AcDb2dVertex
 10
63.46456692913386
 20
29.094488188976385
 30
0.0
 70
0
  0
SEQEND
  5
109
330
106
100
AcDbEntity
  8
door leaf
  0
SPLINE
  5
10A
330
17
100
AcDbEntity
  8
door leaf
100
AcDbSpline
 70
0
 71
3
 72
14
 73
10
 74
0
 40
0.0
 40
0.0
 40
0.0
 40
0.0
 40
1.0
 40
1.0
 40
1.0
 40
2.0
 40
2.0
 40
2.0
 40
3.0
 40
3.0
 40
3.0
 40
3.0
 10
63.46456692913386
 20
29.094488188976385
 30
0.0
 10
63.671878261941
 20
29.094488188976385
 30
0.0
 10
63.87558122953282
 20
29.14907023463843
 30
0.0
 10
64.05511811023622
 20
29.252725901041998
 30
0.0
 10
64.23465499093962
 20
29.356381567445574
 30
0.0
 10
64.38377591286938
 20
29.505502489375345
 30
0.0
 10
64.48743157927296
 20
29.685039370078748
 30
0.0
 10
64.59108724567653
 20
29.864576250782143
 30
0.0
 10
64.64566929133858
 20
30.06827921837396
 30
0.0
 10
64.64566929133858
 20
30.275590551181104
 30
0.0
  0
SPLINE
  5
10B
330
17
100
AcDbEntity
  8
door leaf
100
AcDbSpline
 70
0
 71
3
 72
11
 73
7
 74
0
 40
0.0
 40
0.0
 40
0.0
 40
0.0
 40
1.0
 40
1.0
 40
1.0
 40
2.0
 40
2.0
 40
2.0
 40
2.0
 10
64.64566929133858
 20
30.275590551181104
 30
0.0
 10
65.60039370078741
 20
30.275590551181104
 30
0.0
 10
65.37125984251969
 20
31.77165354330709
 30
0.0
 10
66.55511811023622
 20
31.77165354330709
 30
0.0
 10
67.73897637795275
 20
31.77165354330709
 30
0.0
 10
67.50984251968504
 20
30.275590551181104
 30
0.0
 10
68.46456692913387
 20
30.275590551181104
 30
0.0
  0
SPLINE
  5
10C
330
17
100
AcDbEntity
  8
door leaf
100
AcDbSpline
 70
0
 71
3
 72
14
 73
10
 74
0
 40
0.0
 40
0.0
 40
0.0
 40
0.0
 40
1.0
 40
1.0
 40
1.0
 40
2.0
 40
2.0
 40
2.0
 40
3.0
 40
3.0
 40
3.0
 40
3.0
 10
68.46456692913387
 20
30.275590551181104
 30
0.0
 10
68.46456692913387
 20
30.06827921837396
 30
0.0
 10
68.51914897479591
 20
29.864576250782143
 30
0.0
 10
68.62280464119948
 20
29.685039370078748
 30
0.0
 10
68.72646030760305
 20
29.505502489375345
 30
0.0
 10
68.87558122953283
 20
29.356381567445588
 30
0.0
 10
69.05511811023622
 20
29.252725901042012
 30
0.0
 10
69.23465499093962
 20
29.149070234638437
 30
0.0
 10
69.43835795853144
 20
29.094488188976385
 30
0.0
 10
69.64566929133858
 20
29.094488188976385
 30
0.0
  0
POLYLINE
  5
10D
330
17
100
AcDbEntity
  8
door leaf
100
AcDb2dPolyline
 66
1
 10
0.0
 20
0.0
 30
0.0
 70
0
  0
VERTEX
  5
10E
330
10D
100
AcDbEntity
  8
door leaf
100
AcDbVertex
100
AcDb2dVertex
 10
69.64566929133858
 20
29.094488188976385
 30
0.0
 70
0
  0
VERTEX
  5
10F
330
10D
100
AcDbEntity
  8
door leaf
100
AcDbVertex
100
AcDb2dVertex
 10
69.64566929133858
 20
16.259842519685037
 30
0.0
 70
0
  0
SEQEND
  5
110
330
10D
100
AcDbEntity
  8
door leaf
  0
SPLINE
  5
111
330
17
100
AcDbEntity
  8
door leaf
100
AcDbSpline
 70
0
 71
3
 72
14
 73
10
 74
0
 40
0.0
 40
0.0
 40
0.0
 40
0.0
 40
1.0
 40
1.0
 40
1.0
 40
2.0
 40
2.0
 40
2.0
 40
3.0
 40
3.0
 40
3.0
 40
3.0
 10
69.64566929133858
 20
16.259842519685037
 30
0.0
 10
69.43835795853144
 20
16.259842519685037
 30
0.0
 10
69.23465499093962
 20
16.205260474022992
 30
0.0
 10
69.05511811023622
 20
16.101604807619424
 30
0.0
 10
68.87558122953283
 20
15.997949141215855
 30
0.0
 10
68.72646030760306
 20
15.848828219286077
 30
0.0
 10
68.62280464119948
 20
15.669291338582681
 30
0.0
 10
68.51914897479591
 20
15.489754457879286
 30
0.0
 10
68.46456692913387
 20
15.286051490287463
 30
0.0
 10
68.46456692913387
 20
15.078740157480325
 30
0.0
  0
SPLINE
  5
112
330
17
100
AcDbEntity
  8
door leaf
100
AcDbSpline
 70
0
 71
3
 72
11
 73
7
 74
0
 40
0.0
 40
0.0
 40
0.0
 40
0.0
 40
1.0
 40
1.0
 40
1.0
 40
2.0
 40
2.0
 40
2.0
 40
2.0
 10
68.46456692913387
 20
15.078740157480325
 30
0.0
 10
67.50984251968504
 20
15.078740157480325
 30
0.0
 10
67.73897637795275
 20
13.58267716535434
 30
0.0
 10
66.55511811023622
 20
13.58267716535434
 30
0.0
 10
65.37125984251969
 20
13.58267716535434
 30
0.0
 10
65.60039370078741
 20
15.078740157480325
 30
0.0
 10
64.64566929133858
 20
15.078740157480325
 30
0.0
  0
SPLINE
  5
113
330
17
100
AcDbEntity
  8
door leaf
100
AcDbSpline
 70
0
 71
3
 72
14
 73
10
 74
0
 40
0.0
 40
0.0
 40
0.0
 40
0.0
 40
1.0
 40
1.0
 40
1.0
 40
2.0
 40
2.0
 40
2.0
 40
3.0
 40
3.0
 40
3.0
 40
3.0
 10
64.64566929133858
 20
15.078740157480325
 30
0.0
 10
64.64566929133858
 20
15.286051490287463
 30
0.0
 10
64.59108724567653
 20
15.489754457879286
 30
0.0
 10
64.48743157927296
 20
15.669291338582681
 30
0.0
 10
64.38377591286938
 20
15.848828219286077
 30
0.0
 10
64.23465499093962
 20
15.997949141215841
 30
0.0
 10
64.05511811023622
 20
16.10160480761941
 30
0.0
 10
63.87558122953282
 20
16.205260474022992
 30
0.0
 10
63.671878261941
 20
16.259842519685037
 30
0.0
 10
63.46456692913386
 20
16.259842519685037
 30
0.0
  0
CIRCLE
  5
114
330
17
100
AcDbEntity
  8
door leaf
100
AcDbCircle
 10
63.58267716535433
 20
30.393700787401574
 30
0.0
 40
0.5118110236220472
  0
CIRCLE
  5
115
330
17
100
AcDbEntity
  8
door leaf
100
AcDbCircle
 10
63.58267716535433
 20
30.393700787401574
 30
0.0
 40
0.2047244094488189
  0
CIRCLE
  5
116
330
17
100
AcDbEntity
  8
door leaf
100
AcDbCircle
 10
69.5275590551181
 20
30.393700787401574
 30
0.0
 40
0.5118110236220472
  0
CIRCLE
  5
117
330
17
100
AcDbEntity
  8
door leaf
100
AcDbCircle
 10
69.5275590551181
 20
30.393700787401574
 30
0.0
 40
0.2047244094488189
  0
CIRCLE
  5
118
330
17
100
AcDbEntity
  8
door leaf
100
AcDbCircle
 10
63.58267716535433
 20
14.960629921259843
 30
0.0
 40
0.5118110236220472
  0
CIRCLE
  5
119
330
17
100
AcDbEntity
  8
door leaf
100
AcDbCircle
 10
63.58267716535433
 20
14.960629921259843
 30
0.0
 40
0.2047244094488189
  0
CIRCLE
  5
11A
330
17
100
AcDbEntity
  8
door leaf
100
AcDbCircle
 10
69.5275590551181
 20
14.960629921259843
 30
0.0
 40
0.5118110236220472
  0
CIRCLE
  5
11B
330
17
100
AcDbEntity
  8
door leaf
100
AcDbCircle
 10
69.5275590551181
 20
14.960629921259843
 30
0.0
 40
0.2047244094488189
  0
CIRCLE
  5
11C
330
17
100
AcDbEntity
  8
door leaf
100
AcDbCircle
 10
62.67716535433071
 20
38.26771653543307
 30
0.0
 40
1.0826771653543308
  0
CIRCLE
  5
11D
330
17
100
AcDbEntity
  8
door leaf
100
AcDbCircle
 10
62.67716535433071
 20
38.26771653543307
 30
0.0
 40
0.6889763779527559
  0
CIRCLE
  5
11E
330
17
100
AcDbEntity
  8
door leaf
100
AcDbCircle
 10
59.21259842519685
 20
38.26771653543307
 30
0.0
 40
0.6692913385826772
  0
SPLINE
  5
11F
330
17
100
AcDbEntity
  8
door leaf
100
AcDbSpline
 70
0
 71
3
 72
35
 73
31
 74
0
 40
0.0
 40
0.0
 40
0.0
 40
0.0
 40
1.0
 40
1.0
 40
1.0
 40
2.0
 40
2.0
 40
2.0
 40
3.0
 40
3.0
 40
3.0
 40
4.0
 40
4.0
 40
4.0
 40
5.0
 40
5.0
 40
5.0
 40
6.0
 40
6.0
 40
6.0
 40
7.0
 40
7.0
 40
7.0
 40
8.0
 40
8.0
 40
8.0
 40
9.0
 40
9.0
 40
9.0
 40
10.0
 40
10.0
 40
10.0
 40
10.0
 10
59.09448818897638
 20
38.30708661417323
 30
0.0
 10
59.07315314765591
 20
38.326169255251365
 30
0.0
 10
59.05675720348232
 20
38.35014120101716
 30
0.0
 10
59.04670866968233
 20
38.376943405164084
 30
0.0
 10
59.03666013588235
 20
38.40374560931102
 30
0.0
 10
59.03325519549147
 20
38.43258807019901
 30
0.0
 10
59.03678631245919
 20
38.4609933934963
 30
0.0
 10
59.04031742942691
 20
38.4893987167936
 30
0.0
 10
59.05068052320148
 20
38.516529648524006
 30
0.0
 10
59.06698546620756
 20
38.54005580444102
 30
0.0
 10
59.08329040921365
 20
38.563581960358036
 30
0.0
 10
59.10505660919676
 20
38.582809901158754
 30
0.0
 10
59.13041448017837
 20
38.59608806209855
 30
0.0
 10
59.15577235115998
 20
38.60936622303835
 30
0.0
 10
59.18397446357965
 20
38.6163032270177
 30
0.0
 10
59.21259842519686
 20
38.6163032270177
 30
0.0
 10
59.241222386814066
 20
38.6163032270177
 30
0.0
 10
59.26942449923373
 20
38.60936622303835
 30
0.0
 10
59.29478237021534
 20
38.59608806209855
 30
0.0
 10
59.32014024119695
 20
38.582809901158754
 30
0.0
 10
59.34190644118006
 20
38.56358196035803
 30
0.0
 10
59.35821138418614
 20
38.54005580444101
 30
0.0
 10
59.374516327192225
 20
38.516529648524
 30
0.0
 10
59.38487942096679
 20
38.48939871679359
 30
0.0
 10
59.38841053793451
 20
38.460993393496295
 30
0.0
 10
59.39194165490223
 20
38.432588070199
 30
0.0
 10
59.38853671451135
 20
38.40374560931101
 30
0.0
 10
59.378488180711365
 20
38.37694340516408
 30
0.0
 10
59.36843964691138
 20
38.350141201017145
 30
0.0
 10
59.352043702737795
 20
38.326169255251365
 30
0.0
 10
59.330708661417326
 20
38.30708661417323
 30
0.0
  0
POLYLINE
  5
120
330
17
100
AcDbEntity
  8
door leaf
100
AcDb2dPolyline
 66
1
 10
0.0
 20
0.0
 30
0.0
 70
0
  0
VERTEX
  5
121
330
120
100
AcDbEntity
  8
door leaf
100
AcDbVertex
100
AcDb2dVertex
 10
59.330708661417326
 20
38.30708661417323
 30
0.0
 70
0
  0
VERTEX
  5
122
330
120
100
AcDbEntity
  8
door leaf
100
AcDbVertex
100
AcDb2dVertex
 10
59.38976377952756
 20
37.8740157480315
 30
0.0
 70
0
  0
VERTEX
  5
123
330
120
100
AcDbEntity
  8
door leaf
100
AcDbVertex
100
AcDb2dVertex
 10
59.03543307086614
 20
37.8740157480315
 30
0.0
 70
0
  0
VERTEX
  5
124
330
120
100
AcDbEntity
  8
door leaf
100
AcDbVertex
100
AcDb2dVertex
 10
59.09448818897638
 20
38.30708661417323
 30
0.0
 70
0
  0
SEQEND
  5
125
330
120
100
AcDbEntity
  8
door leaf
  0
LWPOLYLINE
  5
126
330
17
100
AcDbEntity
  8
door leaf
100
AcDbPolyline
 90
5
 70
0
 10
75.55118110236221
 20
90.98425196850394
 10
93.54330708661416
 20
90.98425196850394
 10
93.54330708661416
 20
0.0
 10
75.55118110236221
 20
0.0
 10
75.55118110236221
 20
90.98425196850394
  0
LINE
  5
127
330
17
100
AcDbEntity
  8
door leaf
100
AcDbLine
 10
79.48818897637796
 20
87.04724409448819
 30
0.0
 11
89.60629921259843
 21
87.04724409448819
 31
0.0
  0
LINE
  5
128
330
17
100
AcDbEntity
  8
door leaf
100
AcDbLine
 10
79.48818897637796
 20
11.614173228346457
 30
0.0
 11
89.60629921259843
 21
11.614173228346457
 31
0.0
  0
LINE
  5
129
330
17
100
AcDbEntity
  8
door leaf
100
AcDbLine
 10
79.48818897637796
 20
42.79527559055118
 30
0.0
 11
79.48818897637796
 21
33.74015748031496
 31
0.0
  0
LINE
  5
12A
330
17
100
AcDbEntity
  8
door leaf
100
AcDbLine
 10
89.60629921259843
 20
42.79527559055118
 30
0.0
 11
89.60629921259843
 21
33.74015748031496
 31
0.0
  0
LINE
  5
12B
330
17
100
AcDbEntity
  8
door leaf
100
AcDbLine
 10
79.48818897637796
 20
90.98425196850394
 30
0.0
 11
79.48818897637796
 21
87.04724409448819
 31
0.0
  0
LINE
  5
12C
330
17
100
AcDbEntity
  8
door leaf
100
AcDbLine
 10
89.60629921259843
 20
90.98425196850394
 30
0.0
 11
89.60629921259843
 21
87.04724409448819
 31
0.0
  0
LINE
  5
12D
330
17
100
AcDbEntity
  8
door leaf
100
AcDbLine
 10
79.48818897637796
 20
11.614173228346457
 30
0.0
 11
79.48818897637796
 21
0.0
 31
0.0
  0
LINE
  5
12E
330
17
100
AcDbEntity
  8
door leaf
100
AcDbLine
 10
89.60629921259843
 20
11.614173228346457
 30
0.0
 11
89.60629921259843
 21
0.0
 31
0.0
  0
LWPOLYLINE
  5
12F
330
17
100
AcDbEntity
  8
door leaf
100
AcDbPolyline
 90
5
 70
0
 10
79.48818897637796
 20
87.04724409448819
 10
89.60629921259843
 20
87.04724409448819
 10
89.60629921259843
 20
42.795275590551185
 10
79.48818897637796
 20
42.795275590551185
 10
79.48818897637796
 20
87.04724409448819
  0
LWPOLYLINE
  5
130
330
17
100
AcDbEntity
  8
door leaf
100
AcDbPolyline
 90
5
 70
0
 10
80.2755905511811
 20
86.25984251968504
 10
88.81889763779527
 20
86.25984251968504
 10
88.81889763779527
 20
43.58267716535433
 10
80.2755905511811
 20
43.58267716535433
 10
80.2755905511811
 20
86.25984251968504
  0
LINE
  5
131
330
17
100
AcDbEntity
  8
door leaf
100
AcDbLine
 10
79.48818897637796
 20
87.04724409448819
 30
0.0
 11
80.2755905511811
 21
86.25984251968504
 31
0.0
  0
LINE
  5
132
330
17
100
AcDbEntity
  8
door leaf
100
AcDbLine
 10
89.60629921259843
 20
87.04724409448819
 30
0.0
 11
88.81889763779527
 21
86.25984251968504
 31
0.0
  0
LINE
  5
133
330
17
100
AcDbEntity
  8
door leaf
100
AcDbLine
 10
79.48818897637796
 20
42.79527559055118
 30
0.0
 11
80.2755905511811
 21
43.58267716535433
 31
0.0
  0
LINE
  5
134
330
17
100
AcDbEntity
  8
door leaf
100
AcDbLine
 10
89.60629921259843
 20
42.79527559055118
 30
0.0
 11
88.81889763779527
 21
43.58267716535433
 31
0.0
  0
POLYLINE
  5
135
330
17
100
AcDbEntity
  8
door leaf
100
AcDb2dPolyline
 66
1
 10
0.0
 20
0.0
 30
0.0
 70
0
  0
VERTEX
  5
136
330
135
100
AcDbEntity
  8
door leaf
100
AcDbVertex
100
AcDb2dVertex
 10
81.45669291338582
 20
47.44094488188977
 30
0.0
 70
0
  0
VERTEX
  5
137
330
135
100
AcDbEntity
  8
door leaf
100
AcDbVertex
100
AcDb2dVertex
 10
81.45669291338582
 20
82.40157480314961
 30
0.0
 70
0
  0
SEQEND
  5
138
330
135
100
AcDbEntity
  8
door leaf
  0
SPLINE
  5
139
330
17
100
AcDbEntity
  8
door leaf
100
AcDbSpline
 70
0
 71
3
 72
14
 73
10
 74
0
 40
0.0
 40
0.0
 40
0.0
 40
0.0
 40
1.0
 40
1.0
 40
1.0
 40
2.0
 40
2.0
 40
2.0
 40
3.0
 40
3.0
 40
3.0
 40
3.0
 10
81.45669291338582
 20
82.40157480314961
 30
0.0
 10
81.66400424619297
 20
82.40157480314961
 30
0.0
 10
81.8677072137848
 20
82.45615684881166
 30
0.0
 10
82.04724409448819
 20
82.55981251521523
 30
0.0
 10
82.22678097519159
 20
82.66346818161881
 30
0.0
 10
82.37590189712135
 20
82.81258910354858
 30
0.0
 10
82.47955756352493
 20
82.99212598425197
 30
0.0
 10
82.5832132299285
 20
83.17166286495537
 30
0.0
 10
82.63779527559055
 20
83.37536583254719
 30
0.0
 10
82.63779527559055
 20
83.58267716535434
 30
0.0
  0
SPLINE
  5
13A
330
17
100
AcDbEntity
  8
door leaf
100
AcDbSpline
 70
0
 71
3
 72
11
 73
7
 74
0
 40
0.0
 40
0.0
 40
0.0
 40
0.0
 40
1.0
 40
1.0
 40
1.0
 40
2.0
 40
2.0
 40
2.0
 40
2.0
 10
82.63779527559055
 20
83.58267716535434
 30
0.0
 10
83.59251968503938
 20
83.58267716535434
 30
0.0
 10
83.36338582677165
 20
85.07874015748033
 30
0.0
 10
84.54724409448819
 20
85.07874015748033
 30
0.0
 10
85.73110236220472
 20
85.07874015748033
 30
0.0
 10
85.50196850393701
 20
83.58267716535434
 30
0.0
 10
86.45669291338582
 20
83.58267716535434
 30
0.0
  0
SPLINE
  5
13B
330
17
100
AcDbEntity
  8
door leaf
100
AcDbSpline
 70
0
 71
3
 72
14
 73
10
 74
0
 40
0.0
 40
0.0
 40
0.0
 40
0.0
 40
1.0
 40
1.0
 40
1.0
 40
2.0
 40
2.0
 40
2.0
 40
3.0
 40
3.0
 40
3.0
 40
3.0
 10
86.45669291338582
 20
83.58267716535434
 30
0.0
 10
86.45669291338582
 20
83.37536583254719
 30
0.0
 10
86.51127495904788
 20
83.17166286495537
 30
0.0
 10
86.61493062545145
 20
82.99212598425197
 30
0.0
 10
86.71858629185502
 20
82.81258910354858
 30
0.0
 10
86.8677072137848
 20
82.66346818161881
 30
0.0
 10
87.04724409448819
 20
82.55981251521523
 30
0.0
 10
87.22678097519159
 20
82.45615684881166
 30
0.0
 10
87.43048394278341
 20
82.40157480314961
 30
0.0
 10
87.63779527559055
 20
82.40157480314961
 30
0.0
  0
POLYLINE
  5
13C
330
17
100
AcDbEntity
  8
door leaf
100
AcDb2dPolyline
 66
1
 10
0.0
 20
0.0
 30
0.0
 70
0
  0
VERTEX
  5
13D
330
13C
100
AcDbEntity
  8
door leaf
100
AcDbVertex
100
AcDb2dVertex
 10
87.63779527559055
 20
82.40157480314961
 30
0.0
 70
0
  0
VERTEX
  5
13E
330
13C
100
AcDbEntity
  8
door leaf
100
AcDbVertex
100
AcDb2dVertex
 10
87.63779527559055
 20
47.44094488188977
 30
0.0
 70
0
  0
SEQEND
  5
13F
330
13C
100
AcDbEntity
  8
door leaf
  0
SPLINE
  5
140
330
17
100
AcDbEntity
  8
door leaf
100
AcDbSpline
 70
0
 71
3
 72
14
 73
10
 74
0
 40
0.0
 40
0.0
 40
0.0
 40
0.0
 40
1.0
 40
1.0
 40
1.0
 40
2.0
 40
2.0
 40
2.0
 40
3.0
 40
3.0
 40
3.0
 40
3.0
 10
87.63779527559055
 20
47.44094488188977
 30
0.0
 10
87.43048394278341
 20
47.44094488188977
 30
0.0
 10
87.22678097519159
 20
47.386362836227725
 30
0.0
 10
87.04724409448819
 20
47.28270716982415
 30
0.0
 10
86.8677072137848
 20
47.179051503420574
 30
0.0
 10
86.71858629185502
 20
47.02993058149081
 30
0.0
 10
86.61493062545145
 20
46.85039370078741
 30
0.0
 10
86.51127495904788
 20
46.670856820084005
 30
0.0
 10
86.45669291338582
 20
46.467153852492196
 30
0.0
 10
86.45669291338582
 20
46.259842519685044
 30
0.0
  0
SPLINE
  5
141
330
17
100
AcDbEntity
  8
door leaf
100
AcDbSpline
 70
0
 71
3
 72
11
 73
7
 74
0
 40
0.0
 40
0.0
 40
0.0
 40
0.0
 40
1.0
 40
1.0
 40
1.0
 40
2.0
 40
2.0
 40
2.0
 40
2.0
 10
86.45669291338582
 20
46.259842519685044
 30
0.0
 10
85.50196850393701
 20
46.259842519685044
 30
0.0
 10
85.73110236220472
 20
44.76377952755906
 30
0.0
 10
84.54724409448819
 20
44.76377952755906
 30
0.0
 10
83.36338582677165
 20
44.76377952755906
 30
0.0
 10
83.59251968503938
 20
46.259842519685044
 30
0.0
 10
82.63779527559055
 20
46.259842519685044
 30
0.0
  0
SPLINE
  5
142
330
17
100
AcDbEntity
  8
door leaf
100
AcDbSpline
 70
0
 71
3
 72
14
 73
10
 74
0
 40
0.0
 40
0.0
 40
0.0
 40
0.0
 40
1.0
 40
1.0
 40
1.0
 40
2.0
 40
2.0
 40
2.0
 40
3.0
 40
3.0
 40
3.0
 40
3.0
 10
82.63779527559055
 20
46.259842519685044
 30
0.0
 10
82.63779527559055
 20
46.467153852492196
 30
0.0
 10
82.5832132299285
 20
46.670856820084005
 30
0.0
 10
82.47955756352493
 20
46.85039370078741
 30
0.0
 10
82.37590189712135
 20
47.02993058149081
 30
0.0
 10
82.22678097519159
 20
47.17905150342057
 30
0.0
 10
82.04724409448819
 20
47.28270716982414
 30
0.0
 10
81.8677072137848
 20
47.38636283622771
 30
0.0
 10
81.66400424619297
 20
47.44094488188977
 30
0.0
 10
81.45669291338582
 20
47.44094488188977
 30
0.0
  0
CIRCLE
  5
143
330
17
100
AcDbEntity
  8
door leaf
100
AcDbCircle
 10
81.5748031496063
 20
83.7007874015748
 30
0.0
 40
0.5118110236220472
  0
CIRCLE
  5
144
330
17
100
AcDbEntity
  8
door leaf
100
AcDbCircle
 10
81.5748031496063
 20
83.7007874015748
 30
0.0
 40
0.2047244094488189
  0
CIRCLE
  5
145
330
17
100
AcDbEntity
  8
door leaf
100
AcDbCircle
 10
87.51968503937007
 20
83.7007874015748
 30
0.0
 40
0.5118110236220472
  0
CIRCLE
  5
146
330
17
100
AcDbEntity
  8
door leaf
100
AcDbCircle
 10
87.51968503937007
 20
83.7007874015748
 30
0.0
 40
0.2047244094488189
  0
CIRCLE
  5
147
330
17
100
AcDbEntity
  8
door leaf
100
AcDbCircle
 10
81.5748031496063
 20
46.14173228346456
 30
0.0
 40
0.5118110236220472
  0
CIRCLE
  5
148
330
17
100
AcDbEntity
  8
door leaf
100
AcDbCircle
 10
81.5748031496063
 20
46.14173228346456
 30
0.0
 40
0.2047244094488189
  0
CIRCLE
  5
149
330
17
100
AcDbEntity
  8
door leaf
100
AcDbCircle
 10
87.51968503937007
 20
46.14173228346456
 30
0.0
 40
0.5118110236220472
  0
CIRCLE
  5
14A
330
17
100
AcDbEntity
  8
door leaf
100
AcDbCircle
 10
87.51968503937007
 20
46.14173228346456
 30
0.0
 40
0.2047244094488189
  0
LWPOLYLINE
  5
14B
330
17
100
AcDbEntity
  8
door leaf
100
AcDbPolyline
 90
5
 70
0
 10
79.48818897637796
 20
33.74015748031496
 10
89.60629921259843
 20
33.74015748031496
 10
89.60629921259843
 20
11.61417322834646
 10
79.48818897637796
 20
11.61417322834646
 10
79.48818897637796
 20
33.74015748031496
  0
LWPOLYLINE
  5
14C
330
17
100
AcDbEntity
  8
door leaf
100
AcDbPolyline
 90
5
 70
0
 10
80.2755905511811
 20
32.952755905511815
 10
88.81889763779527
 20
32.952755905511815
 10
88.81889763779527
 20
12.401574803149614
 10
80.2755905511811
 20
12.401574803149614
 10
80.2755905511811
 20
32.952755905511815
  0
LINE
  5
14D
330
17
100
AcDbEntity
  8
door leaf
100
AcDbLine
 10
79.48818897637796
 20
33.74015748031496
 30
0.0
 11
80.2755905511811
 21
32.95275590551181
 31
0.0
  0
LINE
  5
14E
330
17
100
AcDbEntity
  8
door leaf
100
AcDbLine
 10
89.60629921259843
 20
33.74015748031496
 30
0.0
 11
88.81889763779527
 21
32.95275590551181
 31
0.0
  0
LINE
  5
14F
330
17
100
AcDbEntity
  8
door leaf
100
AcDbLine
 10
79.48818897637796
 20
11.614173228346457
 30
0.0
 11
80.2755905511811
 21
12.401574803149606
 31
0.0
  0
LINE
  5
150
330
17
100
AcDbEntity
  8
door leaf
100
AcDbLine
 10
89.60629921259843
 20
11.614173228346457
 30
0.0
 11
88.81889763779527
 21
12.401574803149606
 31
0.0
  0
POLYLINE
  5
151
330
17
100
AcDbEntity
  8
door leaf
100
AcDb2dPolyline
 66
1
 10
0.0
 20
0.0
 30
0.0
 70
0
  0
VERTEX
  5
152
330
151
100
AcDbEntity
  8
door leaf
100
AcDbVertex
100
AcDb2dVertex
 10
81.45669291338582
 20
16.259842519685037
 30
0.0
 70
0
  0
VERTEX
  5
153
330
151
100
AcDbEntity
  8
door leaf
100
AcDbVertex
100
AcDb2dVertex
 10
81.45669291338582
 20
29.094488188976385
 30
0.0
 70
0
  0
SEQEND
  5
154
330
151
100
AcDbEntity
  8
door leaf
  0
SPLINE
  5
155
330
17
100
AcDbEntity
  8
door leaf
100
AcDbSpline
 70
0
 71
3
 72
14
 73
10
 74
0
 40
0.0
 40
0.0
 40
0.0
 40
0.0
 40
1.0
 40
1.0
 40
1.0
 40
2.0
 40
2.0
 40
2.0
 40
3.0
 40
3.0
 40
3.0
 40
3.0
 10
81.45669291338582
 20
29.094488188976385
 30
0.0
 10
81.66400424619297
 20
29.094488188976385
 30
0.0
 10
81.8677072137848
 20
29.14907023463843
 30
0.0
 10
82.04724409448819
 20
29.252725901041998
 30
0.0
 10
82.22678097519159
 20
29.356381567445574
 30
0.0
 10
82.37590189712135
 20
29.505502489375345
 30
0.0
 10
82.47955756352493
 20
29.685039370078748
 30
0.0
 10
82.5832132299285
 20
29.864576250782143
 30
0.0
 10
82.63779527559055
 20
30.06827921837396
 30
0.0
 10
82.63779527559055
 20
30.275590551181104
 30
0.0
  0
SPLINE
  5
156
330
17
100
AcDbEntity
  8
door leaf
100
AcDbSpline
 70
0
 71
3
 72
11
 73
7
 74
0
 40
0.0
 40
0.0
 40
0.0
 40
0.0
 40
1.0
 40
1.0
 40
1.0
 40
2.0
 40
2.0
 40
2.0
 40
2.0
 10
82.63779527559055
 20
30.275590551181104
 30
0.0
 10
83.59251968503938
 20
30.275590551181104
 30
0.0
 10
83.36338582677165
 20
31.77165354330709
 30
0.0
 10
84.54724409448819
 20
31.77165354330709
 30
0.0
 10
85.73110236220472
 20
31.77165354330709
 30
0.0
 10
85.50196850393701
 20
30.275590551181104
 30
0.0
 10
86.45669291338582
 20
30.275590551181104
 30
0.0
  0
SPLINE
  5
157
330
17
100
AcDbEntity
  8
door leaf
100
AcDbSpline
 70
0
 71
3
 72
14
 73
10
 74
0
 40
0.0
 40
0.0
 40
0.0
 40
0.0
 40
1.0
 40
1.0
 40
1.0
 40
2.0
 40
2.0
 40
2.0
 40
3.0
 40
3.0
 40
3.0
 40
3.0
 10
86.45669291338582
 20
30.275590551181104
 30
0.0
 10
86.45669291338582
 20
30.06827921837396
 30
0.0
 10
86.51127495904788
 20
29.864576250782143
 30
0.0
 10
86.61493062545145
 20
29.685039370078748
 30
0.0
 10
86.71858629185502
 20
29.505502489375345
 30
0.0
 10
86.8677072137848
 20
29.356381567445588
 30
0.0
 10
87.04724409448819
 20
29.252725901042012
 30
0.0
 10
87.22678097519159
 20
29.149070234638437
 30
0.0
 10
87.43048394278341
 20
29.094488188976385
 30
0.0
 10
87.63779527559055
 20
29.094488188976385
 30
0.0
  0
POLYLINE
  5
158
330
17
100
AcDbEntity
  8
door leaf
100
AcDb2dPolyline
 66
1
 10
0.0
 20
0.0
 30
0.0
 70
0
  0
VERTEX
  5
159
330
158
100
AcDbEntity
  8
door leaf
100
AcDbVertex
100
AcDb2dVertex
 10
87.63779527559055
 20
29.094488188976385
 30
0.0
 70
0
  0
VERTEX
  5
15A
330
158
100
AcDbEntity
  8
door leaf
100
AcDbVertex
100
AcDb2dVertex
 10
87.63779527559055
 20
16.259842519685037
 30
0.0
 70
0
  0
SEQEND
  5
15B
330
158
100
AcDbEntity
  8
door leaf
  0
SPLINE
  5
15C
330
17
100
AcDbEntity
  8
door leaf
100
AcDbSpline
 70
0
 71
3
 72
14
 73
10
 74
0
 40
0.0
 40
0.0
 40
0.0
 40
0.0
 40
1.0
 40
1.0
 40
1.0
 40
2.0
 40
2.0
 40
2.0
 40
3.0
 40
3.0
 40
3.0
 40
3.0
 10
87.63779527559055
 20
16.259842519685037
 30
0.0
 10
87.43048394278341
 20
16.259842519685037
 30
0.0
 10
87.22678097519159
 20
16.205260474022992
 30
0.0
 10
87.04724409448819
 20
16.101604807619424
 30
0.0
 10
86.8677072137848
 20
15.997949141215855
 30
0.0
 10
86.71858629185502
 20
15.848828219286077
 30
0.0
 10
86.61493062545145
 20
15.669291338582681
 30
0.0
 10
86.51127495904788
 20
15.489754457879286
 30
0.0
 10
86.45669291338582
 20
15.286051490287463
 30
0.0
 10
86.45669291338582
 20
15.078740157480325
 30
0.0
  0
SPLINE
  5
15D
330
17
100
AcDbEntity
  8
door leaf
100
AcDbSpline
 70
0
 71
3
 72
11
 73
7
 74
0
 40
0.0
 40
0.0
 40
0.0
 40
0.0
 40
1.0
 40
1.0
 40
1.0
 40
2.0
 40
2.0
 40
2.0
 40
2.0
 10
86.45669291338582
 20
15.078740157480325
 30
0.0
 10
85.50196850393701
 20
15.078740157480325
 30
0.0
 10
85.73110236220472
 20
13.58267716535434
 30
0.0
 10
84.54724409448819
 20
13.58267716535434
 30
0.0
 10
83.36338582677165
 20
13.58267716535434
 30
0.0
 10
83.59251968503938
 20
15.078740157480325
 30
0.0
 10
82.63779527559055
 20
15.078740157480325
 30
0.0
  0
SPLINE
  5
15E
330
17
100
AcDbEntity
  8
door leaf
100
AcDbSpline
 70
0
 71
3
 72
14
 73
10
 74
0
 40
0.0
 40
0.0
 40
0.0
 40
0.0
 40
1.0
 40
1.0
 40
1.0
 40
2.0
 40
2.0
 40
2.0
 40
3.0
 40
3.0
 40
3.0
 40
3.0
 10
82.63779527559055
 20
15.078740157480325
 30
0.0
 10
82.63779527559055
 20
15.286051490287463
 30
0.0
 10
82.5832132299285
 20
15.489754457879286
 30
0.0
 10
82.47955756352493
 20
15.669291338582681
 30
0.0
 10
82.37590189712135
 20
15.848828219286077
 30
0.0
 10
82.22678097519159
 20
15.997949141215841
 30
0.0
 10
82.04724409448819
 20
16.10160480761941
 30
0.0
 10
81.8677072137848
 20
16.205260474022992
 30
0.0
 10
81.66400424619297
 20
16.259842519685037
 30
0.0
 10
81.45669291338582
 20
16.259842519685037
 30
0.0
  0
CIRCLE
  5
15F
330
17
100
AcDbEntity
  8
door leaf
100
AcDbCircle
 10
81.5748031496063
 20
30.393700787401574
 30
0.0
 40
0.5118110236220472
  0
CIRCLE
  5
160
330
17
100
AcDbEntity
  8
door leaf
100
AcDbCircle
 10
81.5748031496063
 20
30.393700787401574
 30
0.0
 40
0.2047244094488189
  0
CIRCLE
  5
161
330
17
100
AcDbEntity
  8
door leaf
100
AcDbCircle
 10
87.51968503937007
 20
30.393700787401574
 30
0.0
 40
0.5118110236220472
  0
CIRCLE
  5
162
330
17
100
AcDbEntity
  8
door leaf
100
AcDbCircle
 10
87.51968503937007
 20
30.393700787401574
 30
0.0
 40
0.2047244094488189
  0
CIRCLE
  5
163
330
17
100
AcDbEntity
  8
door leaf
100
AcDbCircle
 10
81.5748031496063
 20
14.960629921259843
 30
0.0
 40
0.5118110236220472
  0
CIRCLE
  5
164
330
17
100
AcDbEntity
  8
door leaf
100
AcDbCircle
 10
81.5748031496063
 20
14.960629921259843
 30
0.0
 40
0.2047244094488189
  0
CIRCLE
  5
165
330
17
100
AcDbEntity
  8
door leaf
100
AcDbCircle
 10
87.51968503937007
 20
14.960629921259843
 30
0.0
 40
0.5118110236220472
  0
CIRCLE
  5
166
330
17
100
AcDbEntity
  8
door leaf
100
AcDbCircle
 10
87.51968503937007
 20
14.960629921259843
 30
0.0
 40
0.2047244094488189
  0
LINE
  5
167
330
17
100
AcDbEntity
  8
door leaf
100
AcDbLine
 10
75.78740157480316
 20
90.98425196850394
 30
0.0
 11
75.78740157480316
 21
0.0
 31
0.0
  0
LINE
  5
168
330
17
100
AcDbEntity
  8
door leaf
100
AcDbLine
 10
51.653543307086615
 20
0.0
 30
0.0
 11
99.44881889763779
 21
0.0
 31
0.0
  0
TEXT
  5
169
330
17
100
AcDbEntity
  8
LABELS
100
AcDbText
 10
51.653543307086615
 20
93.34645669291338
 30
0.0
 40
0.9559055118110237
  1
DOOR LEAF  (1:1, inches)
 11
51.653543307086615
 21
93.34645669291338
 31
0.0
100
AcDbText
  0
HATCH
  5
16C
330
17
100
AcDbEntity
  8
Leaf section hatch
 62
7
100
AcDbHatch
 10
0.0
 20
0.0
 30
0.0
210
0.0
220
0.0
230
1.0
  2
ANSI31
 70
0
 71
0
 91
1
 92
3
 72
0
 73
1
 93
5
 10
110.78740157480314
 20
1.5826771653543308
 10
120.62992125984252
 20
1.5826771653543308
 10
120.62992125984252
 20
0.08661417322834657
 10
110.78740157480314
 20
0.08661417322834657
 10
110.78740157480314
 20
1.5826771653543308
 97
0
 75
1
 76
1
 52
0.0
 41
0.15748031496062992
 77
0
 78
1
 53
45.0
 43
0.0
 44
0.0
 45
-0.0139194248
 46
0.0139194248
 79
0
 98
0
  0
LWPOLYLINE
  5
16D
330
17
100
AcDbEntity
  8
Leaf section
100
AcDbPolyline
 90
5
 70
0
 10
110.78740157480314
 20
1.5826771653543308
 10
120.62992125984252
 20
1.5826771653543308
 10
120.62992125984252
 20
0.08661417322834652
 10
110.78740157480314
 20
0.08661417322834652
 10
110.78740157480314
 20
1.5826771653543308
  0
LWPOLYLINE
  5
16E
330
17
100
AcDbEntity
  8
Leaf section
100
AcDbPolyline
 90
5
 70
0
 10
110.78740157480314
 20
1.6692913385826773
 10
120.62992125984252
 20
1.6692913385826773
 10
120.62992125984252
 20
1.5826771653543308
 10
110.78740157480314
 20
1.5826771653543308
 10
110.78740157480314
 20
1.6692913385826773
  0
LWPOLYLINE
  5
16F
330
17
100
AcDbEntity
  8
Leaf section
100
AcDbPolyline
 90
5
 70
0
 10
110.78740157480314
 20
0.08661417322834652
 10
120.62992125984252
 20
0.08661417322834652
 10
120.62992125984252
 20
0.0
 10
110.78740157480314
 20
0.0
 10
110.78740157480314
 20
0.08661417322834652
  0
LWPOLYLINE
  5
170
330
17
100
AcDbEntity
  8
Leaf section
100
AcDbPolyline
 90
5
 70
0
 10
110.31496062992125
 20
1.6692913385826773
 10
110.78740157480314
 20
1.6692913385826773
 10
110.78740157480314
 20
2.220446049250313e-16
 10
110.31496062992125
 20
2.220446049250313e-16
 10
110.31496062992125
 20
1.6692913385826773
  0
POLYLINE
  5
171
330
17
100
AcDbEntity
  8
Leaf section
100
AcDb2dPolyline
 66
1
 10
0.0
 20
0.0
 30
0.0
 70
0
  0
VERTEX
  5
172
330
171
100
AcDbEntity
  8
Leaf section
100
AcDbVertex
100
AcDb2dVertex
 10
113.85826771653542
 20
1.6692913385826773
 30
0.0
 70
0
  0
VERTEX
  5
173
330
171
100
AcDbEntity
  8
Leaf section
100
AcDbVertex
100
AcDb2dVertex
 10
113.85826771653542
 20
1.8346456692913387
 30
0.0
 70
0
  0
SEQEND
  5
174
330
171
100
AcDbEntity
  8
Leaf section
  0
SPLINE
  5
175
330
17
100
AcDbEntity
  8
Leaf section
100
AcDbSpline
 70
0
 71
3
 72
8
 73
4
 74
0
 40
0.0
 40
0.0
 40
0.0
 40
0.0
 40
1.0
 40
1.0
 40
1.0
 40
1.0
 10
113.85826771653542
 20
1.8346456692913387
 30
0.0
 10
113.88451443569554
 20
2.0393700787401574
 30
0.0
 10
114.01049868766404
 20
2.141732283464567
 30
0.0
 10
114.23622047244093
 20
2.141732283464567
 30
0.0
  0
POLYLINE
  5
176
330
17
100
AcDbEntity
  8
Leaf section
100
AcDb2dPolyline
 66
1
 10
0.0
 20
0.0
 30
0.0
 70
0
  0
VERTEX
  5
177
330
176
100
AcDbEntity
  8
Leaf section
100
AcDbVertex
100
AcDb2dVertex
 10
114.23622047244093
 20
2.141732283464567
 30
0.0
 70
0
  0
VERTEX
  5
178
330
176
100
AcDbEntity
  8
Leaf section
100
AcDbVertex
100
AcDb2dVertex
 10
114.5275590551181
 20
2.141732283464567
 30
0.0
 70
0
  0
VERTEX
  5
179
330
176
100
AcDbEntity
  8
Leaf section
100
AcDbVertex
100
AcDb2dVertex
 10
114.64566929133858
 20
2.0
 30
0.0
 70
0
  0
VERTEX
  5
17A
330
176
100
AcDbEntity
  8
Leaf section
100
AcDbVertex
100
AcDb2dVertex
 10
114.64566929133858
 20
1.6692913385826773
 30
0.0
 70
0
  0
VERTEX
  5
17B
330
176
100
AcDbEntity
  8
Leaf section
100
AcDbVertex
100
AcDb2dVertex
 10
113.85826771653542
 20
1.6692913385826773
 30
0.0
 70
0
  0
SEQEND
  5
17C
330
176
100
AcDbEntity
  8
Leaf section
  0
SPLINE
  5
17D
330
17
100
AcDbEntity
  8
Leaf section
100
AcDbSpline
 70
0
 71
3
 72
11
 73
7
 74
0
 40
0.0
 40
0.0
 40
0.0
 40
0.0
 40
1.0
 40
1.0
 40
1.0
 40
2.0
 40
2.0
 40
2.0
 40
2.0
 10
116.45669291338582
 20
1.6692913385826773
 30
0.0
 10
116.45669291338582
 20
1.8267716535433072
 30
0.0
 10
116.52230971128608
 20
1.9055118110236222
 30
0.0
 10
116.65354330708661
 20
1.9055118110236222
 30
0.0
 10
116.78477690288713
 20
1.9055118110236222
 30
0.0
 10
116.8503937007874
 20
1.8267716535433072
 30
0.0
 10
116.8503937007874
 20
1.6692913385826773
 30
0.0
  0
POLYLINE
  5
17E
330
17
100
AcDbEntity
  8
Leaf section
100
AcDb2dPolyline
 66
1
 10
0.0
 20
0.0
 30
0.0
 70
0
  0
VERTEX
  5
17F
330
17E
100
AcDbEntity
  8
Leaf section
100
AcDbVertex
100
AcDb2dVertex
 10
116.8503937007874
 20
1.6692913385826773
 30
0.0
 70
0
  0
VERTEX
  5
180
330
17E
100
AcDbEntity
  8
Leaf section
100
AcDbVertex
100
AcDb2dVertex
 10
116.45669291338582
 20
1.6692913385826773
 30
0.0
 70
0
  0
SEQEND
  5
181
330
17E
100
AcDbEntity
  8
Leaf section
  0
LINE
  5
182
330
17
100
AcDbEntity
  8
Leaf section
100
AcDbLine
 10
109.29133858267717
 20
1.6692913385826773
 30
0.0
 11
121.02362204724409
 21
1.6692913385826773
 31
0.0
  0
TEXT
  5
183
330
17
100
AcDbEntity
  8
LABELS
100
AcDbText
 10
109.29133858267717
 20
4.503937007874016
 30
0.0
 40
0.7086614173228346
  1
LEAF SECTION  (1:1, inches)
 11
109.29133858267717
 21
4.503937007874016
 31
0.0
100
AcDbText
  0
TEXT
  5
184
330
17
100
AcDbEntity
  8
LABELS
100
AcDbText
 10
0.0
 20
-8.661417322834646
 30
0.0
 40
1.574803149606299
  1
Doors in veneer · AST-DR-015
 11
0.0
 21
-8.661417322834646
 31
0.0
100
AcDbText
  0
ENDSEC
  0
SECTION
  2
OBJECTS
  0
DICTIONARY
  5
A
330
0
100
AcDbDictionary
281
1
  3
ACAD_COLOR
350
B
  3
ACAD_GROUP
350
C
  3
ACAD_LAYOUT
350
D
  3
ACAD_MATERIAL
350
E
  3
ACAD_MLEADERSTYLE
350
F
  3
ACAD_MLINESTYLE
350
10
  3
ACAD_PLOTSETTINGS
350
11
  3
ACAD_PLOTSTYLENAME
350
12
  3
ACAD_SCALELIST
350
14
  3
ACAD_TABLESTYLE
350
15
  3
ACAD_VISUALSTYLE
350
16
  3
EZDXF_META
350
2D
  0
DICTIONARY
  5
B
330
A
100
AcDbDictionary
281
1
  0
DICTIONARY
  5
C
330
A
100
AcDbDictionary
281
1
  0
DICTIONARY
  5
D
330
A
100
AcDbDictionary
281
1
  3
Model
350
1A
  3
Layout1
350
1E
  0
DICTIONARY
  5
E
330
A
100
AcDbDictionary
281
1
  3
ByBlock
350
1F
  3
ByLayer
350
20
  3
Global
350
21
  0
DICTIONARY
  5
F
330
A
100
AcDbDictionary
281
1
  3
Standard
350
2C
  0
DICTIONARY
  5
10
330
A
100
AcDbDictionary
281
1
  3
Standard
350
22
  0
DICTIONARY
  5
11
330
A
100
AcDbDictionary
281
1
  0
ACDBDICTIONARYWDFLT
  5
12
330
A
100
AcDbDictionary
281
1
  3
Normal
350
13
100
AcDbDictionaryWithDefault
340
13
  0
ACDBPLACEHOLDER
  5
13
330
12
  0
DICTIONARY
  5
14
330
A
100
AcDbDictionary
281
1
  0
DICTIONARY
  5
15
330
A
100
AcDbDictionary
281
1
  0
DICTIONARY
  5
16
330
A
100
AcDbDictionary
281
1
  3
2dWireframe
350
5A
  3
Basic
350
5B
  3
Brighten
350
5C
  3
ColorChange
350
5D
  3
Conceptual
350
5E
  3
Dim
350
5F
  3
EdgeColorOff
350
60
  3
Facepattern
350
61
  3
Flat
350
62
  3
FlatWithEdges
350
63
  3
Gouraud
350
64
  3
GouraudWithEdges
350
65
  3
Hidden
350
66
  3
JitterOff
350
67
  3
Linepattern
350
68
  3
Modeling
350
69
  3
OverhangOff
350
6A
  3
Realistic
350
6B
  3
Shaded
350
6C
  3
Shaded with edges
350
6D
  3
Shades of Gray
350
6E
  3
Sketchy
350
6F
  3
Thicken
350
70
  3
Wireframe
350
71
  3
X-Ray
350
72
  0
LAYOUT
  5
1A
330
D
100
AcDbPlotSettings
  1

  4
A3
  6

 40
7.5
 41
20.0
 42
7.5
 43
20.0
 44
420.0
 45
297.0
 46
0.0
 47
0.0
 48
0.0
 49
0.0
140
0.0
141
0.0
142
1.0
143
1.0
 70
1024
 72
1
 73
0
 74
5
  7

 75
16
 76
0
 77
2
 78
300
147
1.0
148
0.0
149
0.0
100
AcDbLayout
  1
Model
 70
1
 71
0
 10
0.0
 20
0.0
 11
420.0
 21
297.0
 12
0.0
 22
0.0
 32
0.0
 14
1e+20
 24
1e+20
 34
1e+20
 15
-1e+20
 25
-1e+20
 35
-1e+20
146
0.0
 13
0.0
 23
0.0
 33
0.0
 16
1.0
 26
0.0
 36
0.0
 17
0.0
 27
1.0
 37
0.0
 76
1
330
17
  0
LAYOUT
  5
1E
330
D
100
AcDbPlotSettings
  1

  4
A3
  6

 40
7.5
 41
20.0
 42
7.5
 43
20.0
 44
420.0
 45
297.0
 46
0.0
 47
0.0
 48
0.0
 49
0.0
140
0.0
141
0.0
142
1.0
143
1.0
 70
0
 72
1
 73
0
 74
5
  7

 75
16
 76
0
 77
2
 78
300
147
1.0
148
0.0
149
0.0
100
AcDbLayout
  1
Layout1
 70
1
 71
1
 10
0.0
 20
0.0
 11
420.0
 21
297.0
 12
0.0
 22
0.0
 32
0.0
 14
1e+20
 24
1e+20
 34
1e+20
 15
-1e+20
 25
-1e+20
 35
-1e+20
146
0.0
 13
0.0
 23
0.0
 33
0.0
 16
1.0
 26
0.0
 36
0.0
 17
0.0
 27
1.0
 37
0.0
 76
1
330
1B
  0
MATERIAL
  5
1F
102
{ACAD_REACTORS
330
E
102
}
330
E
100
AcDbMaterial
  1
ByBlock
  2

 70
0
 40
1.0
 71
1
 41
1.0
 91
-1023410177
 42
1.0
 72
1
  3

 73
1
 74
1
 75
1
 44
0.5
 73
0
 45
1.0
 46
1.0
 77
1
  4

 78
1
 79
1
170
1
 48
1.0
171
1
  6

172
1
173
1
174
1
140
1.0
141
1.0
175
1
  7

176
1
177
1
178
1
143
1.0
179
1
  8

270
1
271
1
272
1
145
1.0
146
1.0
273
1
  9

274
1
275
1
276
1
 42
1.0
 72
1
  3

 73
1
 74
1
 75
1
 94
63
  0
MATERIAL
  5
20
102
{ACAD_REACTORS
330
E
102
}
330
E
100
AcDbMaterial
  1
ByLayer
  2

 70
0
 40
1.0
 71
1
 41
1.0
 91
-1023410177
 42
1.0
 72
1
  3

 73
1
 74
1
 75
1
 44
0.5
 73
0
 45
1.0
 46
1.0
 77
1
  4

 78
1
 79
1
170
1
 48
1.0
171
1
  6

172
1
173
1
174
1
140
1.0
141
1.0
175
1
  7

176
1
177
1
178
1
143
1.0
179
1
  8

270
1
271
1
272
1
145
1.0
146
1.0
273
1
  9

274
1
275
1
276
1
 42
1.0
 72
1
  3

 73
1
 74
1
 75
1
 94
63
  0
MATERIAL
  5
21
102
{ACAD_REACTORS
330
E
102
}
330
E
100
AcDbMaterial
  1
Global
  2

 70
0
 40
1.0
 71
1
 41
1.0
 91
-1023410177
 42
1.0
 72
1
  3

 73
1
 74
1
 75
1
 44
0.5
 73
0
 45
1.0
 46
1.0
 77
1
  4

 78
1
 79
1
170
1
 48
1.0
171
1
  6

172
1
173
1
174
1
140
1.0
141
1.0
175
1
  7

176
1
177
1
178
1
143
1.0
179
1
  8

270
1
271
1
272
1
145
1.0
146
1.0
273
1
  9

274
1
275
1
276
1
 42
1.0
 72
1
  3

 73
1
 74
1
 75
1
 94
63
  0
MLINESTYLE
  5
22
102
{ACAD_REACTORS
330
10
102
}
330
10
100
AcDbMlineStyle
  2
Standard
 70
0
  3

 62
256
 51
90.0
 52
90.0
 71
2
 49
0.5
 62
256
  6
BYLAYER
 49
-0.5
 62
256
  6
BYLAYER
  0
MLEADERSTYLE
  5
2C
102
{ACAD_REACTORS
330
F
102
}
330
F
100
AcDbMLeaderStyle
179
2
170
2
171
1
172
0
 90
2
 40
0.0
 41
0.0
173
1
 91
-1056964608
 92
-2
290
1
 42
2.0
291
1
 43
8.0
  3
Standard
 44
4.0
300

342
29
174
1
175
1
176
0
178
1
 93
-1056964608
 45
4.0
292
0
297
0
 46
4.0
 94
-1056964608
 47
1.0
 49
1.0
140
1.0
294
1
141
0.0
177
0
142
1.0
295
0
296
0
143
3.75
271
0
272
9
273
9
  0
DICTIONARY
  5
2D
330
A
100
AcDbDictionary
280
1
281
1
  3
CREATED_BY_EZDXF
350
2E
  3
WRITTEN_BY_EZDXF
350
187
  0
DICTIONARYVAR
  5
2E
330
2D
100
DictionaryVariables
280
0
  1
1.4.2 @ 2026-09-23T07:27:25.203151+00:00
  0
VISUALSTYLE
  5
5A
102
{ACAD_REACTORS
330
16
102
}
330
16
100
AcDbVisualStyle
  2
2dWireframe
 70
4
 90
0
 40
0.6
 62
7
290
0
291
0
  0
VISUALSTYLE
  5
5B
102
{ACAD_REACTORS
330
16
102
}
330
16
100
AcDbVisualStyle
  2
Basic
 70
7
 90
1
 40
0.6
 62
7
290
0
291
1
  0
VISUALSTYLE
  5
5C
102
{ACAD_REACTORS
330
16
102
}
330
16
100
AcDbVisualStyle
  2
Brighten
 70
12
 90
2
 40
0.6
 62
7
290
0
291
1
  0
VISUALSTYLE
  5
5D
102
{ACAD_REACTORS
330
16
102
}
330
16
100
AcDbVisualStyle
  2
ColorChange
 70
16
 90
2
 40
0.6
 62
8
290
0
291
1
  0
VISUALSTYLE
  5
5E
102
{ACAD_REACTORS
330
16
102
}
330
16
100
AcDbVisualStyle
  2
Conceptual
 70
9
 90
3
 40
0.6
 62
7
290
0
291
0
  0
VISUALSTYLE
  5
5F
102
{ACAD_REACTORS
330
16
102
}
330
16
100
AcDbVisualStyle
  2
Dim
 70
11
 90
2
 40
0.6
 62
7
290
0
291
1
  0
VISUALSTYLE
  5
60
102
{ACAD_REACTORS
330
16
102
}
330
16
100
AcDbVisualStyle
  2
EdgeColorOff
 70
22
 90
2
 40
0.6
 62
7
290
0
291
1
  0
VISUALSTYLE
  5
61
102
{ACAD_REACTORS
330
16
102
}
330
16
100
AcDbVisualStyle
  2
Facepattern
 70
15
 90
2
 40
0.6
 62
7
290
0
291
1
  0
VISUALSTYLE
  5
62
102
{ACAD_REACTORS
330
16
102
}
330
16
100
AcDbVisualStyle
  2
Flat
 70
0
 90
2
 40
0.6
 62
7
290
0
291
1
  0
VISUALSTYLE
  5
63
102
{ACAD_REACTORS
330
16
102
}
330
16
100
AcDbVisualStyle
  2
FlatWithEdges
 70
1
 90
2
 40
0.6
 62
7
290
0
291
1
  0
VISUALSTYLE
  5
64
102
{ACAD_REACTORS
330
16
102
}
330
16
100
AcDbVisualStyle
  2
Gouraud
 70
2
 90
2
 40
0.6
 62
7
290
0
291
1
  0
VISUALSTYLE
  5
65
102
{ACAD_REACTORS
330
16
102
}
330
16
100
AcDbVisualStyle
  2
GouraudWithEdges
 70
3
 90
2
 40
0.6
 62
7
290
0
291
1
  0
VISUALSTYLE
  5
66
102
{ACAD_REACTORS
330
16
102
}
330
16
100
AcDbVisualStyle
  2
Hidden
 70
6
 90
1
 40
0.6
 62
7
290
0
291
0
  0
VISUALSTYLE
  5
67
102
{ACAD_REACTORS
330
16
102
}
330
16
100
AcDbVisualStyle
  2
JitterOff
 70
20
 90
2
 40
0.6
 62
7
290
0
291
1
  0
VISUALSTYLE
  5
68
102
{ACAD_REACTORS
330
16
102
}
330
16
100
AcDbVisualStyle
  2
Linepattern
 70
14
 90
2
 40
0.6
 62
7
290
0
291
1
  0
VISUALSTYLE
  5
69
102
{ACAD_REACTORS
330
16
102
}
330
16
100
AcDbVisualStyle
  2
Modeling
 70
10
 90
2
 40
0.6
 62
7
290
0
291
0
  0
VISUALSTYLE
  5
6A
102
{ACAD_REACTORS
330
16
102
}
330
16
100
AcDbVisualStyle
  2
OverhangOff
 70
21
 90
2
 40
0.6
 62
7
290
0
291
1
  0
VISUALSTYLE
  5
6B
102
{ACAD_REACTORS
330
16
102
}
330
16
100
AcDbVisualStyle
  2
Realistic
 70
8
 90
2
 40
0.6
 62
7
290
0
291
0
  0
VISUALSTYLE
  5
6C
102
{ACAD_REACTORS
330
16
102
}
330
16
100
AcDbVisualStyle
  2
Shaded
 70
27
 90
2
 40
0.6
 62
7
290
0
291
0
  0
VISUALSTYLE
  5
6D
102
{ACAD_REACTORS
330
16
102
}
330
16
100
AcDbVisualStyle
  2
Shaded with edges
 70
26
 90
2
 40
0.6
 62
7
290
0
291
0
  0
VISUALSTYLE
  5
6E
102
{ACAD_REACTORS
330
16
102
}
330
16
100
AcDbVisualStyle
  2
Shades of Gray
 70
23
 90
2
 40
0.6
 62
7
290
0
291
0
  0
VISUALSTYLE
  5
6F
102
{ACAD_REACTORS
330
16
102
}
330
16
100
AcDbVisualStyle
  2
Sketchy
 70
24
 90
1
 40
0.6
 62
7
290
0
291
0
  0
VISUALSTYLE
  5
70
102
{ACAD_REACTORS
330
16
102
}
330
16
100
AcDbVisualStyle
  2
Thicken
 70
13
 90
2
 40
0.6
 62
7
290
0
291
1
  0
VISUALSTYLE
  5
71
102
{ACAD_REACTORS
330
16
102
}
330
16
100
AcDbVisualStyle
  2
Wireframe
 70
5
 90
0
 40
0.6
 62
7
290
0
291
0
  0
VISUALSTYLE
  5
72
102
{ACAD_REACTORS
330
16
102
}
330
16
100
AcDbVisualStyle
  2
X-Ray
 70
25
 90
2
 40
0.5
 62
7
290
0
291
0
  0
DICTIONARYVAR
  5
187
330
2D
100
DictionaryVariables
280
0
  1
1.4.2 @ 2026-09-23T07:27:25.275479+00:00
  0
ENDSEC
  0
EOF
