  0
SECTION
  2
HEADER
  9
$ACADVER
  1
AC1024
  9
$ACADMAINTVER
 70
6
  9
$DWGCODEPAGE
  3
ANSI_1252
  9
$LASTSAVEDBY
  1
ezdxf
  9
$INSBASE
 10
0.0
 20
0.0
 30
0.0
  9
$EXTMIN
 10
1e+20
 20
1e+20
 30
1e+20
  9
$EXTMAX
 10
-1e+20
 20
-1e+20
 30
-1e+20
  9
$LIMMIN
 10
0.0
 20
0.0
  9
$LIMMAX
 10
420.0
 20
297.0
  9
$ORTHOMODE
 70
0
  9
$REGENMODE
 70
1
  9
$FILLMODE
 70
1
  9
$QTEXTMODE
 70
0
  9
$MIRRTEXT
 70
1
  9
$LTSCALE
 40
0.00984251968503937
  9
$ATTMODE
 70
1
  9
$TEXTSIZE
 40
2.5
  9
$TRACEWID
 40
1.0
  9
$TEXTSTYLE
  7
OpenSans
  9
$CLAYER
  8
0
  9
$CELTYPE
  6
ByLayer
  9
$CECOLOR
 62
256
  9
$CELTSCALE
 40
1.0
  9
$DISPSILH
 70
0
  9
$DIMSCALE
 40
1.0
  9
$DIMASZ
 40
0.175
  9
$DIMEXO
 40
0.125
  9
$DIMDLI
 40
3.75
  9
$DIMRND
 40
0.0
  9
$DIMDLE
 40
0.0
  9
$DIMEXE
 40
0.375
  9
$DIMTP
 40
0.0
  9
$DIMTM
 40
0.0
  9
$DIMTXT
 40
0.25
  9
$DIMCEN
 40
2.5
  9
$DIMTSZ
 40
0.0
  9
$DIMTOL
 70
0
  9
$DIMLIM
 70
0
  9
$DIMTIH
 70
0
  9
$DIMTOH
 70
0
  9
$DIMSE1
 70
0
  9
$DIMSE2
 70
0
  9
$DIMTAD
 70
1
  9
$DIMZIN
 70
12
  9
$DIMBLK
  1
ARCHTICK
  9
$DIMASO
 70
1
  9
$DIMSHO
 70
1
  9
$DIMPOST
  1

  9
$DIMAPOST
  1

  9
$DIMALT
 70
0
  9
$DIMALTD
 70
3
  9
$DIMALTF
 40
0.03937007874
  9
$DIMLFAC
 40
100.0
  9
$DIMTOFL
 70
1
  9
$DIMTVP
 40
0.0
  9
$DIMTIX
 70
0
  9
$DIMSOXD
 70
0
  9
$DIMSAH
 70
0
  9
$DIMBLK1
  1

  9
$DIMBLK2
  1

  9
$DIMSTYLE
  2
EZDXF
  9
$DIMCLRD
 70
0
  9
$DIMCLRE
 70
0
  9
$DIMCLRT
 70
0
  9
$DIMTFAC
 40
0.5
  9
$DIMGAP
 40
0.1
  9
$DIMJUST
 70
0
  9
$DIMSD1
 70
0
  9
$DIMSD2
 70
0
  9
$DIMTOLJ
 70
0
  9
$DIMTZIN
 70
8
  9
$DIMALTZ
 70
0
  9
$DIMALTTZ
 70
0
  9
$DIMUPT
 70
1
  9
$DIMDEC
 70
2
  9
$DIMTDEC
 70
2
  9
$DIMALTU
 70
2
  9
$DIMALTTD
 70
3
  9
$DIMTXSTY
  7
OpenSansCondensed-Light
  9
$DIMAUNIT
 70
0
  9
$DIMADEC
 70
2
  9
$DIMALTRND
 40
0.0
  9
$DIMAZIN
 70
3
  9
$DIMDSEP
 70
46
  9
$DIMATFIT
 70
3
  9
$DIMFRAC
 70
0
  9
$DIMLDRBLK
  1

  9
$DIMLUNIT
 70
2
  9
$DIMLWD
 70
-2
  9
$DIMLWE
 70
-2
  9
$DIMTMOVE
 70
2
  9
$DIMFXL
 40
1.0
  9
$DIMFXLON
 70
0
  9
$DIMJOGANG
 40
0.785398163397
  9
$DIMTFILL
 70
0
  9
$DIMTFILLCLR
 70
0
  9
$DIMARCSYM
 70
0
  9
$DIMLTYPE
  6

  9
$DIMLTEX1
  6

  9
$DIMLTEX2
  6

  9
$DIMTXTDIRECTION
 70
0
  9
$LUNITS
 70
4
  9
$LUPREC
 70
4
  9
$SKETCHINC
 40
1.0
  9
$FILLETRAD
 40
10.0
  9
$AUNITS
 70
0
  9
$AUPREC
 70
3
  9
$MENU
  1
.
  9
$ELEVATION
 40
0.0
  9
$PELEVATION
 40
0.0
  9
$THICKNESS
 40
0.0
  9
$LIMCHECK
 70
0
  9
$CHAMFERA
 40
0.0
  9
$CHAMFERB
 40
0.0
  9
$CHAMFERC
 40
0.0
  9
$CHAMFERD
 40
0.0
  9
$SKPOLY
 70
0
  9
$TDCREATE
 40
2461307.493321759
  9
$TDUCREATE
 40
2458532.153996898
  9
$TDUPDATE
 40
2461307.493321759
  9
$TDUUPDATE
 40
2458532.1544311
  9
$TDINDWG
 40
0.0
  9
$TDUSRTIMER
 40
0.0
  9
$USRTIMER
 70
1
  9
$ANGBASE
 50
0.0
  9
$ANGDIR
 70
0
  9
$PDMODE
 70
0
  9
$PDSIZE
 40
0.0
  9
$PLINEWID
 40
0.0
  9
$SPLFRAME
 70
0
  9
$SPLINETYPE
 70
6
  9
$SPLINESEGS
 70
8
  9
$HANDSEED
  5
1A9
  9
$SURFTAB1
 70
6
  9
$SURFTAB2
 70
6
  9
$SURFTYPE
 70
6
  9
$SURFU
 70
6
  9
$SURFV
 70
6
  9
$UCSBASE
  2

  9
$UCSNAME
  2

  9
$UCSORG
 10
0.0
 20
0.0
 30
0.0
  9
$UCSXDIR
 10
1.0
 20
0.0
 30
0.0
  9
$UCSYDIR
 10
0.0
 20
1.0
 30
0.0
  9
$UCSORTHOREF
  2

  9
$UCSORTHOVIEW
 70
0
  9
$UCSORGTOP
 10
0.0
 20
0.0
 30
0.0
  9
$UCSORGBOTTOM
 10
0.0
 20
0.0
 30
0.0
  9
$UCSORGLEFT
 10
0.0
 20
0.0
 30
0.0
  9
$UCSORGRIGHT
 10
0.0
 20
0.0
 30
0.0
  9
$UCSORGFRONT
 10
0.0
 20
0.0
 30
0.0
  9
$UCSORGBACK
 10
0.0
 20
0.0
 30
0.0
  9
$PUCSBASE
  2

  9
$PUCSNAME
  2

  9
$PUCSORG
 10
0.0
 20
0.0
 30
0.0
  9
$PUCSXDIR
 10
1.0
 20
0.0
 30
0.0
  9
$PUCSYDIR
 10
0.0
 20
1.0
 30
0.0
  9
$PUCSORTHOREF
  2

  9
$PUCSORTHOVIEW
 70
0
  9
$PUCSORGTOP
 10
0.0
 20
0.0
 30
0.0
  9
$PUCSORGBOTTOM
 10
0.0
 20
0.0
 30
0.0
  9
$PUCSORGLEFT
 10
0.0
 20
0.0
 30
0.0
  9
$PUCSORGRIGHT
 10
0.0
 20
0.0
 30
0.0
  9
$PUCSORGFRONT
 10
0.0
 20
0.0
 30
0.0
  9
$PUCSORGBACK
 10
0.0
 20
0.0
 30
0.0
  9
$USERI1
 70
0
  9
$USERI2
 70
0
  9
$USERI3
 70
0
  9
$USERI4
 70
0
  9
$USERI5
 70
0
  9
$USERR1
 40
0.0
  9
$USERR2
 40
0.0
  9
$USERR3
 40
0.0
  9
$USERR4
 40
0.0
  9
$USERR5
 40
0.0
  9
$WORLDVIEW
 70
1
  9
$SHADEDGE
 70
3
  9
$SHADEDIF
 70
70
  9
$TILEMODE
 70
1
  9
$MAXACTVP
 70
64
  9
$PINSBASE
 10
0.0
 20
0.0
 30
0.0
  9
$PLIMCHECK
 70
0
  9
$PEXTMIN
 10
1e+20
 20
1e+20
 30
1e+20
  9
$PEXTMAX
 10
-1e+20
 20
-1e+20
 30
-1e+20
  9
$PLIMMIN
 10
0.0
 20
0.0
  9
$PLIMMAX
 10
420.0
 20
297.0
  9
$UNITMODE
 70
0
  9
$VISRETAIN
 70
1
  9
$PLINEGEN
 70
0
  9
$PSLTSCALE
 70
1
  9
$TREEDEPTH
 70
3020
  9
$CMLSTYLE
  2
Standard
  9
$CMLJUST
 70
0
  9
$CMLSCALE
 40
20.0
  9
$PROXYGRAPHICS
 70
1
  9
$MEASUREMENT
 70
0
  9
$CELWEIGHT
370
-1
  9
$ENDCAPS
280
0
  9
$JOINSTYLE
280
0
  9
$LWDISPLAY
290
0
  9
$INSUNITS
 70
1
  9
$HYPERLINKBASE
  1

  9
$STYLESHEET
  1

  9
$XEDIT
290
1
  9
$CEPSNTYPE
380
0
  9
$PSTYLEMODE
290
1
  9
$FINGERPRINTGUID
  2
{7C3D2F82-504B-4718-BAEF-860912BDB860}
  9
$VERSIONGUID
  2
{D7592C26-65C7-4BE1-B624-258DFCA53AC5}
  9
$EXTNAMES
290
1
  9
$PSVPSCALE
 40
0.0
  9
$OLESTARTUP
290
0
  9
$SORTENTS
280
127
  9
$INDEXCTL
280
0
  9
$HIDETEXT
280
1
  9
$XCLIPFRAME
280
1
  9
$HALOGAP
280
0
  9
$OBSCOLOR
 70
257
  9
$OBSLTYPE
280
0
  9
$INTERSECTIONDISPLAY
280
0
  9
$INTERSECTIONCOLOR
 70
257
  9
$DIMASSOC
280
2
  9
$PROJECTNAME
  1

  9
$CAMERADISPLAY
290
0
  9
$LENSLENGTH
 40
50.0
  9
$CAMERAHEIGHT
 40
0.0
  9
$STEPSPERSEC
 40
24.0
  9
$STEPSIZE
 40
100.0
  9
$3DDWFPREC
 40
2.0
  9
$PSOLWIDTH
 40
0.005
  9
$PSOLHEIGHT
 40
0.08
  9
$LOFTANG1
 40
1.570796326795
  9
$LOFTANG2
 40
1.570796326795
  9
$LOFTMAG1
 40
0.0
  9
$LOFTMAG2
 40
0.0
  9
$LOFTPARAM
 70
7
  9
$LOFTNORMALS
280
1
  9
$LATITUDE
 40
37.795
  9
$LONGITUDE
 40
-122.394
  9
$NORTHDIRECTION
 40
0.0
  9
$TIMEZONE
 70
-8000
  9
$LIGHTGLYPHDISPLAY
280
1
  9
$TILEMODELIGHTSYNCH
280
1
  9
$CMATERIAL
347
20
  9
$SOLIDHIST
280
0
  9
$SHOWHIST
280
1
  9
$DWFFRAME
280
2
  9
$DGNFRAME
280
2
  9
$REALWORLDSCALE
290
1
  9
$INTERFERECOLOR
 62
256
  9
$CSHADOW
280
0
  9
$SHADOWPLANELOCATION
 40
0.0
  0
ENDSEC
  0
SECTION
  2
CLASSES
  0
CLASS
  1
ACDBDICTIONARYWDFLT
  2
AcDbDictionaryWithDefault
  3
ObjectDBX Classes
 90
0
 91
0
280
0
281
0
  0
CLASS
  1
SUN
  2
AcDbSun
  3
SCENEOE
 90
1153
 91
0
280
0
281
0
  0
CLASS
  1
VISUALSTYLE
  2
AcDbVisualStyle
  3
ObjectDBX Classes
 90
4095
 91
0
280
0
281
0
  0
CLASS
  1
MATERIAL
  2
AcDbMaterial
  3
ObjectDBX Classes
 90
1153
 91
0
280
0
281
0
  0
CLASS
  1
SCALE
  2
AcDbScale
  3
ObjectDBX Classes
 90
1153
 91
0
280
0
281
0
  0
CLASS
  1
TABLESTYLE
  2
AcDbTableStyle
  3
ObjectDBX Classes
 90
4095
 91
0
280
0
281
0
  0
CLASS
  1
MLEADERSTYLE
  2
AcDbMLeaderStyle
  3
ACDB_MLEADERSTYLE_CLASS
 90
4095
 91
0
280
0
281
0
  0
CLASS
  1
DICTIONARYVAR
  2
AcDbDictionaryVar
  3
ObjectDBX Classes
 90
0
 91
0
280
0
281
0
  0
CLASS
  1
CELLSTYLEMAP
  2
AcDbCellStyleMap
  3
ObjectDBX Classes
 90
1152
 91
0
280
0
281
0
  0
CLASS
  1
MENTALRAYRENDERSETTINGS
  2
AcDbMentalRayRenderSettings
  3
SCENEOE
 90
1024
 91
0
280
0
281
0
  0
CLASS
  1
ACDBDETAILVIEWSTYLE
  2
AcDbDetailViewStyle
  3
ObjectDBX Classes
 90
1025
 91
0
280
0
281
0
  0
CLASS
  1
ACDBSECTIONVIEWSTYLE
  2
AcDbSectionViewStyle
  3
ObjectDBX Classes
 90
1025
 91
0
280
0
281
0
  0
CLASS
  1
RASTERVARIABLES
  2
AcDbRasterVariables
  3
ISM
 90
0
 91
0
280
0
281
0
  0
CLASS
  1
LAYOUT
  2
AcDbLayout
  3
ObjectDBX Classes
 90
0
 91
0
280
0
281
0
  0
CLASS
  1
ACDBPLACEHOLDER
  2
AcDbPlaceHolder
  3
ObjectDBX Classes
 90
0
 91
0
280
0
281
0
  0
ENDSEC
  0
SECTION
  2
TABLES
  0
TABLE
  2
VPORT
  5
8
330
0
100
AcDbSymbolTable
 70
1
  0
VPORT
  5
23
330
8
100
AcDbSymbolTableRecord
100
AcDbViewportTableRecord
  2
*Active
 70
0
 10
0.0
 20
0.0
 11
1.0
 21
1.0
 12
0.0
 22
0.0
 13
0.0
 23
0.0
 14
0.5
 24
0.5
 15
0.5
 25
0.5
 16
0.0
 26
0.0
 36
1.0
 17
0.0
 27
0.0
 37
0.0
 40
1000.0
 41
1.34
 42
50.0
 43
0.0
 44
0.0
 50
0.0
 51
0.0
 71
0
 72
1000
 73
1
 74
3
 75
0
 76
0
 77
0
 78
0
281
0
 65
0
146
0.0
  0
ENDTAB
  0
TABLE
  2
LTYPE
  5
2
330
0
100
AcDbSymbolTable
 70
21
  0
LTYPE
  5
24
330
2
100
AcDbSymbolTableRecord
100
AcDbLinetypeTableRecord
  2
ByBlock
 70
0
  3

 72
65
 73
0
 40
0.0
  0
LTYPE
  5
25
330
2
100
AcDbSymbolTableRecord
100
AcDbLinetypeTableRecord
  2
ByLayer
 70
0
  3

 72
65
 73
0
 40
0.0
  0
LTYPE
  5
26
330
2
100
AcDbSymbolTableRecord
100
AcDbLinetypeTableRecord
  2
Continuous
 70
0
  3

 72
65
 73
0
 40
0.0
  0
LTYPE
  5
2F
330
2
100
AcDbSymbolTableRecord
100
AcDbLinetypeTableRecord
  2
CENTER
 70
0
  3
Center ____ _ ____ _ ____ _ ____ _ ____ _ ____
 72
65
 73
4
 40
2.0
 49
1.25
 74
0
 49
-0.25
 74
0
 49
0.25
 74
0
 49
-0.25
 74
0
  0
LTYPE
  5
30
330
2
100
AcDbSymbolTableRecord
100
AcDbLinetypeTableRecord
  2
CENTERX2
 70
0
  3
Center (2x) ________  __  ________  __  ________
 72
65
 73
4
 40
3.5
 49
2.5
 74
0
 49
-0.25
 74
0
 49
0.5
 74
0
 49
-0.25
 74
0
  0
LTYPE
  5
31
330
2
100
AcDbSymbolTableRecord
100
AcDbLinetypeTableRecord
  2
CENTER2
 70
0
  3
Center (.5x) ____ _ ____ _ ____ _ ____ _ ____
 72
65
 73
4
 40
1.0
 49
0.625
 74
0
 49
-0.125
 74
0
 49
0.125
 74
0
 49
-0.125
 74
0
  0
LTYPE
  5
32
330
2
100
AcDbSymbolTableRecord
100
AcDbLinetypeTableRecord
  2
DASHED
 70
0
  3
Dashed __ __ __ __ __ __ __ __ __ __ __ __ __ _
 72
65
 73
2
 40
0.6
 49
0.5
 74
0
 49
-0.1
 74
0
  0
LTYPE
  5
33
330
2
100
AcDbSymbolTableRecord
100
AcDbLinetypeTableRecord
  2
DASHEDX2
 70
0
  3
Dashed (2x) ____  ____  ____  ____  ____  ____
 72
65
 73
2
 40
1.2
 49
1.0
 74
0
 49
-0.2
 74
0
  0
LTYPE
  5
34
330
2
100
AcDbSymbolTableRecord
100
AcDbLinetypeTableRecord
  2
DASHED2
 70
0
  3
Dashed (.5x) _ _ _ _ _ _ _ _ _ _ _ _ _ _
 72
65
 73
2
 40
0.3
 49
0.25
 74
0
 49
-0.05
 74
0
  0
LTYPE
  5
35
330
2
100
AcDbSymbolTableRecord
100
AcDbLinetypeTableRecord
  2
PHANTOM
 70
0
  3
Phantom ______  __  __  ______  __  __  ______
 72
65
 73
6
 40
2.5
 49
1.25
 74
0
 49
-0.25
 74
0
 49
0.25
 74
0
 49
-0.25
 74
0
 49
0.25
 74
0
 49
-0.25
 74
0
  0
LTYPE
  5
36
330
2
100
AcDbSymbolTableRecord
100
AcDbLinetypeTableRecord
  2
PHANTOMX2
 70
0
  3
Phantom (2x)____________    ____    ____    ____________
 72
65
 73
6
 40
4.25
 49
2.5
 74
0
 49
-0.25
 74
0
 49
0.5
 74
0
 49
-0.25
 74
0
 49
0.5
 74
0
 49
-0.25
 74
0
  0
LTYPE
  5
37
330
2
100
AcDbSymbolTableRecord
100
AcDbLinetypeTableRecord
  2
PHANTOM2
 70
0
  3
Phantom (.5x) ___ _ _ ___ _ _ ___ _ _ ___ _ _ ___
 72
65
 73
6
 40
1.25
 49
0.625
 74
0
 49
-0.125
 74
0
 49
0.125
 74
0
 49
-0.125
 74
0
 49
0.125
 74
0
 49
-0.125
 74
0
  0
LTYPE
  5
38
330
2
100
AcDbSymbolTableRecord
100
AcDbLinetypeTableRecord
  2
DASHDOT
 70
0
  3
Dash dot __ . __ . __ . __ . __ . __ . __ . __
 72
65
 73
4
 40
1.4
 49
1.0
 74
0
 49
-0.2
 74
0
 49
0.0
 74
0
 49
-0.2
 74
0
  0
LTYPE
  5
39
330
2
100
AcDbSymbolTableRecord
100
AcDbLinetypeTableRecord
  2
DASHDOTX2
 70
0
  3
Dash dot (2x) ____  .  ____  .  ____  .  ____
 72
65
 73
4
 40
2.4
 49
2.0
 74
0
 49
-0.2
 74
0
 49
0.0
 74
0
 49
-0.2
 74
0
  0
LTYPE
  5
3A
330
2
100
AcDbSymbolTableRecord
100
AcDbLinetypeTableRecord
  2
DASHDOT2
 70
0
  3
Dash dot (.5x) _ . _ . _ . _ . _ . _ . _ . _
 72
65
 73
4
 40
0.7
 49
0.5
 74
0
 49
-0.1
 74
0
 49
0.0
 74
0
 49
-0.1
 74
0
  0
LTYPE
  5
3B
330
2
100
AcDbSymbolTableRecord
100
AcDbLinetypeTableRecord
  2
DOT
 70
0
  3
Dot .  .  .  .  .  .  .  .  .  .  .  .  .  .  .  .
 72
65
 73
2
 40
0.2
 49
0.0
 74
0
 49
-0.2
 74
0
  0
LTYPE
  5
3C
330
2
100
AcDbSymbolTableRecord
100
AcDbLinetypeTableRecord
  2
DOTX2
 70
0
  3
Dot (2x) .    .    .    .    .    .    .    . 
 72
65
 73
2
 40
0.4
 49
0.0
 74
0
 49
-0.4
 74
0
  0
LTYPE
  5
3D
330
2
100
AcDbSymbolTableRecord
100
AcDbLinetypeTableRecord
  2
DOT2
 70
0
  3
Dot (.5) . . . . . . . . . . . . . . . . . . . 
 72
65
 73
2
 40
0.1
 49
0.0
 74
0
 49
-0.1
 74
0
  0
LTYPE
  5
3E
330
2
100
AcDbSymbolTableRecord
100
AcDbLinetypeTableRecord
  2
DIVIDE
 70
0
  3
Divide __ . . __ . . __ . . __ . . __ . . __
 72
65
 73
6
 40
1.6
 49
1.0
 74
0
 49
-0.2
 74
0
 49
0.0
 74
0
 49
-0.2
 74
0
 49
0.0
 74
0
 49
-0.2
 74
0
  0
LTYPE
  5
3F
330
2
100
AcDbSymbolTableRecord
100
AcDbLinetypeTableRecord
  2
DIVIDEX2
 70
0
  3
Divide (2x) ____  . .  ____  . .  ____  . .  ____
 72
65
 73
6
 40
2.6
 49
2.0
 74
0
 49
-0.2
 74
0
 49
0.0
 74
0
 49
-0.2
 74
0
 49
0.0
 74
0
 49
-0.2
 74
0
  0
LTYPE
  5
40
330
2
100
AcDbSymbolTableRecord
100
AcDbLinetypeTableRecord
  2
DIVIDE2
 70
0
  3
Divide(.5x) _ . _ . _ . _ . _ . _ . _ . _
 72
65
 73
6
 40
0.8
 49
0.5
 74
0
 49
-0.1
 74
0
 49
0.0
 74
0
 49
-0.1
 74
0
 49
0.0
 74
0
 49
-0.1
 74
0
  0
ENDTAB
  0
TABLE
  2
LAYER
  5
1
330
0
100
AcDbSymbolTable
 70
6
  0
LAYER
  5
27
330
1
100
AcDbSymbolTableRecord
100
AcDbLayerTableRecord
  2
0
 70
0
 62
7
  6
Continuous
370
-3
390
13
347
21
  0
LAYER
  5
28
330
1
100
AcDbSymbolTableRecord
100
AcDbLayerTableRecord
  2
Defpoints
 70
0
 62
7
  6
Continuous
290
0
370
-3
390
13
347
21
  0
LAYER
  5
8A
330
1
100
AcDbSymbolTableRecord
100
AcDbLayerTableRecord
  2
GEOMETRY
 70
0
 62
7
  6
Continuous
370
-3
390
13
347
21
  0
LAYER
  5
8B
330
1
100
AcDbSymbolTableRecord
100
AcDbLayerTableRecord
  2
DIMENSIONS
 70
0
 62
1
  6
Continuous
370
-3
390
13
347
21
  0
LAYER
  5
8C
330
1
100
AcDbSymbolTableRecord
100
AcDbLayerTableRecord
  2
TEXT
 70
0
 62
7
  6
Continuous
370
-3
390
13
347
21
  0
LAYER
  5
8D
330
1
100
AcDbSymbolTableRecord
100
AcDbLayerTableRecord
  2
HATCH
 70
0
 62
8
  6
Continuous
370
-3
390
13
347
21
  0
ENDTAB
  0
TABLE
  2
STYLE
  5
5
330
0
100
AcDbSymbolTable
 70
26
  0
STYLE
  5
29
330
5
100
AcDbSymbolTableRecord
100
AcDbTextStyleTableRecord
  2
Standard
 70
0
 40
0.0
 41
1.0
 50
0.0
 71
0
 42
2.5
  3
txt
  4

  0
STYLE
  5
41
330
5
100
AcDbSymbolTableRecord
100
AcDbTextStyleTableRecord
  2
OpenSans-Light
 70
0
 40
0.0
 41
1.0
 50
0.0
 71
0
 42
2.5
  3
OpenSans-Light.ttf
  4

  0
STYLE
  5
42
330
5
100
AcDbSymbolTableRecord
100
AcDbTextStyleTableRecord
  2
OpenSans-Light-Italic
 70
0
 40
0.0
 41
1.0
 50
0.0
 71
0
 42
2.5
  3
OpenSans-LightItalic.ttf
  4

  0
STYLE
  5
43
330
5
100
AcDbSymbolTableRecord
100
AcDbTextStyleTableRecord
  2
OpenSans
 70
0
 40
0.0
 41
1.0
 50
0.0
 71
0
 42
2.5
  3
OpenSans-Regular.ttf
  4

  0
STYLE
  5
44
330
5
100
AcDbSymbolTableRecord
100
AcDbTextStyleTableRecord
  2
OpenSans-Italic
 70
0
 40
0.0
 41
1.0
 50
0.0
 71
0
 42
2.5
  3
OpenSans-Italic.ttf
  4

  0
STYLE
  5
45
330
5
100
AcDbSymbolTableRecord
100
AcDbTextStyleTableRecord
  2
OpenSans-SemiBold
 70
0
 40
0.0
 41
1.0
 50
0.0
 71
0
 42
2.5
  3
OpenSans-SemiBold.ttf
  4

  0
STYLE
  5
46
330
5
100
AcDbSymbolTableRecord
100
AcDbTextStyleTableRecord
  2
OpenSans-SemiBoldItalic
 70
0
 40
0.0
 41
1.0
 50
0.0
 71
0
 42
2.5
  3
OpenSans-SemiBoldItalic.ttf
  4

  0
STYLE
  5
47
330
5
100
AcDbSymbolTableRecord
100
AcDbTextStyleTableRecord
  2
OpenSans-Bold
 70
0
 40
0.0
 41
1.0
 50
0.0
 71
0
 42
2.5
  3
OpenSans-Bold.ttf
  4

  0
STYLE
  5
48
330
5
100
AcDbSymbolTableRecord
100
AcDbTextStyleTableRecord
  2
OpenSans-BoldItalic
 70
0
 40
0.0
 41
1.0
 50
0.0
 71
0
 42
2.5
  3
OpenSans-BoldItalic.ttf
  4

  0
STYLE
  5
49
330
5
100
AcDbSymbolTableRecord
100
AcDbTextStyleTableRecord
  2
OpenSans-ExtraBold
 70
0
 40
0.0
 41
1.0
 50
0.0
 71
0
 42
2.5
  3
OpenSans-ExtraBold.ttf
  4

  0
STYLE
  5
4A
330
5
100
AcDbSymbolTableRecord
100
AcDbTextStyleTableRecord
  2
OpenSans-ExtraBoldItalic
 70
0
 40
0.0
 41
1.0
 50
0.0
 71
0
 42
2.5
  3
OpenSans-ExtraBoldItalic.ttf
  4

  0
STYLE
  5
4B
330
5
100
AcDbSymbolTableRecord
100
AcDbTextStyleTableRecord
  2
OpenSansCondensed-Bold
 70
0
 40
0.0
 41
1.0
 50
0.0
 71
0
 42
2.5
  3
OpenSansCondensed-Bold.ttf
  4

  0
STYLE
  5
4C
330
5
100
AcDbSymbolTableRecord
100
AcDbTextStyleTableRecord
  2
OpenSansCondensed-Light
 70
0
 40
0.0
 41
1.0
 50
0.0
 71
0
 42
2.5
  3
OpenSansCondensed-Light.ttf
  4

  0
STYLE
  5
4D
330
5
100
AcDbSymbolTableRecord
100
AcDbTextStyleTableRecord
  2
OpenSansCondensed-Italic
 70
0
 40
0.0
 41
1.0
 50
0.0
 71
0
 42
2.5
  3
OpenSansCondensed-LightItalic.ttf
  4

  0
STYLE
  5
4E
330
5
100
AcDbSymbolTableRecord
100
AcDbTextStyleTableRecord
  2
LiberationSans
 70
0
 40
0.0
 41
1.0
 50
0.0
 71
0
 42
2.5
  3
LiberationSans-Regular.ttf
  4

  0
STYLE
  5
4F
330
5
100
AcDbSymbolTableRecord
100
AcDbTextStyleTableRecord
  2
LiberationSans-Bold
 70
0
 40
0.0
 41
1.0
 50
0.0
 71
0
 42
2.5
  3
LiberationSans-Bold.ttf
  4

  0
STYLE
  5
50
330
5
100
AcDbSymbolTableRecord
100
AcDbTextStyleTableRecord
  2
LiberationSans-BoldItalic
 70
0
 40
0.0
 41
1.0
 50
0.0
 71
0
 42
2.5
  3
LiberationSans-BoldItalic.ttf
  4

  0
STYLE
  5
51
330
5
100
AcDbSymbolTableRecord
100
AcDbTextStyleTableRecord
  2
LiberationSans-Italic
 70
0
 40
0.0
 41
1.0
 50
0.0
 71
0
 42
2.5
  3
LiberationSans-Italic.ttf
  4

  0
STYLE
  5
52
330
5
100
AcDbSymbolTableRecord
100
AcDbTextStyleTableRecord
  2
LiberationSerif
 70
0
 40
0.0
 41
1.0
 50
0.0
 71
0
 42
2.5
  3
LiberationSerif-Regular.ttf
  4

  0
STYLE
  5
53
330
5
100
AcDbSymbolTableRecord
100
AcDbTextStyleTableRecord
  2
LiberationSerif-Bold
 70
0
 40
0.0
 41
1.0
 50
0.0
 71
0
 42
2.5
  3
LiberationSerif-Bold.ttf
  4

  0
STYLE
  5
54
330
5
100
AcDbSymbolTableRecord
100
AcDbTextStyleTableRecord
  2
LiberationSerif-BoldItalic
 70
0
 40
0.0
 41
1.0
 50
0.0
 71
0
 42
2.5
  3
LiberationSerif-BoldItalic.ttf
  4

  0
STYLE
  5
55
330
5
100
AcDbSymbolTableRecord
100
AcDbTextStyleTableRecord
  2
LiberationSerif-Italic
 70
0
 40
0.0
 41
1.0
 50
0.0
 71
0
 42
2.5
  3
LiberationSerif-Italic.ttf
  4

  0
STYLE
  5
56
330
5
100
AcDbSymbolTableRecord
100
AcDbTextStyleTableRecord
  2
LiberationMono
 70
0
 40
0.0
 41
1.0
 50
0.0
 71
0
 42
2.5
  3
LiberationMono-Regular.ttf
  4

  0
STYLE
  5
57
330
5
100
AcDbSymbolTableRecord
100
AcDbTextStyleTableRecord
  2
LiberationMono-Bold
 70
0
 40
0.0
 41
1.0
 50
0.0
 71
0
 42
2.5
  3
LiberationMono-Bold.ttf
  4

  0
STYLE
  5
58
330
5
100
AcDbSymbolTableRecord
100
AcDbTextStyleTableRecord
  2
LiberationMono-BoldItalic
 70
0
 40
0.0
 41
1.0
 50
0.0
 71
0
 42
2.5
  3
LiberationMono-BoldItalic.ttf
  4

  0
STYLE
  5
59
330
5
100
AcDbSymbolTableRecord
100
AcDbTextStyleTableRecord
  2
LiberationMono-Italic
 70
0
 40
0.0
 41
1.0
 50
0.0
 71
0
 42
2.5
  3
LiberationMono-Italic.ttf
  4

  0
ENDTAB
  0
TABLE
  2
VIEW
  5
7
330
0
100
AcDbSymbolTable
 70
0
  0
ENDTAB
  0
TABLE
  2
UCS
  5
6
330
0
100
AcDbSymbolTable
 70
0
  0
ENDTAB
  0
TABLE
  2
APPID
  5
3
330
0
100
AcDbSymbolTable
 70
3
  0
APPID
  5
2A
330
3
100
AcDbSymbolTableRecord
100
AcDbRegAppTableRecord
  2
ACAD
 70
0
  0
APPID
  5
1A6
330
3
100
AcDbSymbolTableRecord
100
AcDbRegAppTableRecord
  2
HATCHBACKGROUNDCOLOR
 70
0
  0
APPID
  5
1A7
330
3
100
AcDbSymbolTableRecord
100
AcDbRegAppTableRecord
  2
EZDXF
 70
0
  0
ENDTAB
  0
TABLE
  2
DIMSTYLE
  5
4
330
0
100
AcDbSymbolTable
 70
12
100
AcDbDimStyleTable
  0
DIMSTYLE
105
2B
330
4
100
AcDbSymbolTableRecord
100
AcDbDimStyleTableRecord
  2
Standard
 70
0
 40
1.0
 41
2.5
 42
0.625
 43
3.75
 44
1.25
 45
0.0
 46
0.0
 47
0.0
 48
0.0
 49
2.5
140
2.5
141
2.5
142
0.0
143
0.03937007874
144
1.0
145
0.0
146
1.0
147
0.625
148
0.0
 69
0
 70
0
 71
0
 72
0
 73
0
 74
0
 75
0
 76
0
 77
1
 78
8
 79
3
170
0
171
3
172
1
173
0
174
0
175
0
176
0
177
0
178
0
179
2
271
2
272
2
273
2
274
3
275
0
276
0
277
2
278
44
279
0
280
0
281
0
282
0
283
0
284
8
285
0
286
0
288
0
289
3
290
0
371
-2
372
-2
  0
DIMSTYLE
105
73
330
4
100
AcDbSymbolTableRecord
100
AcDbDimStyleTableRecord
  2
EZDXF
 70
0
 40
1.0
 41
0.175
 42
0.125
 43
3.75
 44
0.375
 45
0.0
 46
0.0
 47
0.0
 48
0.0
 49
2.5
140
0.25
141
2.5
142
0.0
143
0.03937007874
144
100.0
145
0.0
146
0.5
147
0.1
148
0.0
 69
0
 70
0
 71
0
 72
0
 73
0
 74
0
 75
0
 76
0
 77
1
 78
12
 79
3
170
0
171
3
172
1
173
0
174
0
175
0
176
0
177
0
178
0
179
2
271
2
272
2
273
2
274
3
275
0
276
0
277
2
278
46
279
2
280
0
281
0
282
0
283
0
284
8
285
0
286
0
288
1
289
3
290
0
340
4C
342
74
371
-2
372
-2
  0
DIMSTYLE
105
7C
330
4
100
AcDbSymbolTableRecord
100
AcDbDimStyleTableRecord
  2
EZ_M_100_H25_CM
 70
0
 40
1.0
 41
0.25
 42
0.125
 43
3.75
 44
0.375
 45
0.0
 46
0.0
 47
0.0
 48
0.0
 49
2.5
140
0.25
141
2.5
142
0.125
143
0.03937007874
144
100.0
145
0.0
146
0.5
147
0.1
148
0.0
 69
0
 70
0
 71
0
 72
0
 73
0
 74
0
 75
0
 76
0
 77
1
 78
12
 79
3
170
0
171
3
172
1
173
0
174
0
175
0
176
0
177
0
178
0
179
2
271
2
272
2
273
2
274
3
275
0
276
0
277
2
278
46
279
2
280
0
281
0
282
0
283
0
284
8
285
0
286
0
288
1
289
3
290
0
340
4C
371
-2
372
-2
  0
DIMSTYLE
105
7D
330
4
100
AcDbSymbolTableRecord
100
AcDbDimStyleTableRecord
  2
EZ_M_50_H25_CM
 70
0
 40
1.0
 41
0.125
 42
0.0625
 43
3.75
 44
0.1875
 45
0.0
 46
0.0
 47
0.0
 48
0.0
 49
2.5
140
0.125
141
2.5
142
0.0625
143
0.03937007874
144
100.0
145
0.0
146
0.5
147
0.05
148
0.0
 69
0
 70
0
 71
0
 72
0
 73
0
 74
0
 75
0
 76
0
 77
1
 78
12
 79
3
170
0
171
3
172
1
173
0
174
0
175
0
176
0
177
0
178
0
179
2
271
2
272
2
273
2
274
3
275
0
276
0
277
2
278
46
279
2
280
0
281
0
282
0
283
0
284
8
285
0
286
0
288
1
289
3
290
0
340
4C
371
-2
372
-2
  0
DIMSTYLE
105
7E
330
4
100
AcDbSymbolTableRecord
100
AcDbDimStyleTableRecord
  2
EZ_M_25_H25_CM
 70
0
 40
1.0
 41
0.0625
 42
0.03125
 43
3.75
 44
0.09375
 45
0.0
 46
0.0
 47
0.0
 48
0.0
 49
2.5
140
0.0625
141
2.5
142
0.03125
143
0.03937007874
144
100.0
145
0.0
146
0.5
147
0.025
148
0.0
 69
0
 70
0
 71
0
 72
0
 73
0
 74
0
 75
0
 76
0
 77
1
 78
12
 79
3
170
0
171
3
172
1
173
0
174
0
175
0
176
0
177
0
178
0
179
2
271
2
272
2
273
2
274
3
275
0
276
0
277
2
278
46
279
2
280
0
281
0
282
0
283
0
284
8
285
0
286
0
288
1
289
3
290
0
340
4C
371
-2
372
-2
  0
DIMSTYLE
105
7F
330
4
100
AcDbSymbolTableRecord
100
AcDbDimStyleTableRecord
  2
EZ_M_20_H25_CM
 70
0
 40
1.0
 41
0.05
 42
0.025
 43
3.75
 44
0.07500000000000001
 45
0.0
 46
0.0
 47
0.0
 48
0.0
 49
2.5
140
0.05
141
2.5
142
0.025
143
0.03937007874
144
100.0
145
0.0
146
0.5
147
0.020000000000000004
148
0.0
 69
0
 70
0
 71
0
 72
0
 73
0
 74
0
 75
0
 76
0
 77
1
 78
12
 79
3
170
0
171
3
172
1
173
0
174
0
175
0
176
0
177
0
178
0
179
2
271
2
272
2
273
2
274
3
275
0
276
0
277
2
278
46
279
2
280
0
281
0
282
0
283
0
284
8
285
0
286
0
288
1
289
3
290
0
340
4C
371
-2
372
-2
  0
DIMSTYLE
105
80
330
4
100
AcDbSymbolTableRecord
100
AcDbDimStyleTableRecord
  2
EZ_M_10_H25_CM
 70
0
 40
1.0
 41
0.025
 42
0.0125
 43
3.75
 44
0.037500000000000006
 45
0.0
 46
0.0
 47
0.0
 48
0.0
 49
2.5
140
0.025
141
2.5
142
0.0125
143
0.03937007874
144
100.0
145
0.0
146
0.5
147
0.010000000000000002
148
0.0
 69
0
 70
0
 71
0
 72
0
 73
0
 74
0
 75
0
 76
0
 77
1
 78
12
 79
3
170
0
171
3
172
1
173
0
174
0
175
0
176
0
177
0
178
0
179
2
271
2
272
2
273
2
274
3
275
0
276
0
277
2
278
46
279
2
280
0
281
0
282
0
283
0
284
8
285
0
286
0
288
1
289
3
290
0
340
4C
371
-2
372
-2
  0
DIMSTYLE
105
81
330
4
100
AcDbSymbolTableRecord
100
AcDbDimStyleTableRecord
  2
EZ_M_5_H25_CM
 70
0
 40
1.0
 41
0.0125
 42
0.00625
 43
3.75
 44
0.018750000000000003
 45
0.0
 46
0.0
 47
0.0
 48
0.0
 49
2.5
140
0.0125
141
2.5
142
0.00625
143
0.03937007874
144
100.0
145
0.0
146
0.5
147
0.005000000000000001
148
0.0
 69
0
 70
0
 71
0
 72
0
 73
0
 74
0
 75
0
 76
0
 77
1
 78
12
 79
3
170
0
171
3
172
1
173
0
174
0
175
0
176
0
177
0
178
0
179
2
271
2
272
2
273
2
274
3
275
0
276
0
277
2
278
46
279
2
280
0
281
0
282
0
283
0
284
8
285
0
286
0
288
1
289
3
290
0
340
4C
371
-2
372
-2
  0
DIMSTYLE
105
82
330
4
100
AcDbSymbolTableRecord
100
AcDbDimStyleTableRecord
  2
EZ_M_1_H25_CM
 70
0
 40
1.0
 41
0.0025
 42
0.00125
 43
3.75
 44
0.00375
 45
0.0
 46
0.0
 47
0.0
 48
0.0
 49
2.5
140
0.0025
141
2.5
142
0.00125
143
0.03937007874
144
100.0
145
0.0
146
0.5
147
0.001
148
0.0
 69
0
 70
0
 71
0
 72
0
 73
0
 74
0
 75
0
 76
0
 77
1
 78
12
 79
3
170
0
171
3
172
1
173
0
174
0
175
0
176
0
177
0
178
0
179
2
271
2
272
2
273
2
274
3
275
0
276
0
277
2
278
46
279
2
280
0
281
0
282
0
283
0
284
8
285
0
286
0
288
1
289
3
290
0
340
4C
371
-2
372
-2
  0
DIMSTYLE
105
83
330
4
100
AcDbSymbolTableRecord
100
AcDbDimStyleTableRecord
  2
EZ_RADIUS
 70
0
 40
1.0
 41
0.25
 42
0.125
 43
3.75
 44
0.375
 45
0.0
 46
0.0
 47
0.0
 48
0.0
 49
2.5
140
0.25
141
0.0
142
0.0
143
0.03937007874
144
100.0
145
0.0
146
0.5
147
0.1
148
0.0
 69
0
 70
0
 71
0
 72
0
 73
0
 74
0
 75
0
 76
0
 77
1
 78
12
 79
3
170
0
171
3
172
0
173
0
174
0
175
0
176
0
177
0
178
0
179
2
271
2
272
2
273
2
274
3
275
0
276
0
277
2
278
46
279
1
280
0
281
0
282
0
283
0
284
8
285
0
286
0
288
1
289
3
290
0
340
4C
342
84
371
-2
372
-2
  0
DIMSTYLE
105
88
330
4
100
AcDbSymbolTableRecord
100
AcDbDimStyleTableRecord
  2
EZ_RADIUS_INSIDE
 70
0
 40
1.0
 41
0.25
 42
0.125
 43
3.75
 44
0.375
 45
0.0
 46
0.0
 47
0.0
 48
0.0
 49
2.5
140
0.25
141
0.0
142
0.0
143
0.03937007874
144
100.0
145
0.0
146
0.5
147
0.1
148
0.0
 69
0
 70
0
 71
0
 72
0
 73
0
 74
0
 75
0
 76
0
 77
0
 78
12
 79
3
170
0
171
3
172
0
173
0
174
1
175
0
176
0
177
0
178
0
179
2
271
2
272
2
273
2
274
3
275
0
276
0
277
2
278
46
279
0
280
0
281
0
282
0
283
0
284
8
285
0
286
0
288
1
289
0
290
0
340
4C
342
84
371
-2
372
-2
  0
DIMSTYLE
105
89
330
4
100
AcDbSymbolTableRecord
100
AcDbDimStyleTableRecord
  2
EZ_CURVED
 70
0
 40
1.0
 41
0.25
 42
0.125
 43
3.75
 44
0.375
 45
0.0
 46
0.0
 47
0.0
 48
0.0
 49
2.5
140
0.25
141
2.5
142
0.0
143
0.03937007874
144
100.0
145
0.0
146
0.5
147
0.1
148
0.0
 69
0
 70
0
 71
0
 72
0
 73
0
 74
0
 75
0
 76
0
 77
1
 78
12
 79
2
 90
2
170
0
171
3
172
1
173
0
174
0
175
0
176
0
177
0
178
0
179
2
271
2
272
2
273
2
274
3
275
0
276
0
277
2
278
46
279
2
280
0
281
0
282
0
283
0
284
8
285
0
286
0
288
1
289
3
290
0
340
4C
371
-2
372
-2
  0
ENDTAB
  0
TABLE
  2
BLOCK_RECORD
  5
9
330
0
100
AcDbSymbolTable
 70
5
  0
BLOCK_RECORD
  5
17
330
9
100
AcDbSymbolTableRecord
100
AcDbBlockTableRecord
  2
*Model_Space
340
1A
 70
0
280
1
281
0
  0
BLOCK_RECORD
  5
1B
330
9
100
AcDbSymbolTableRecord
100
AcDbBlockTableRecord
  2
*Paper_Space
340
1E
 70
0
280
1
281
0
  0
BLOCK_RECORD
  5
74
330
9
100
AcDbSymbolTableRecord
100
AcDbBlockTableRecord
  2
_ARCHTICK
340
0
 70
0
280
1
281
0
  0
BLOCK_RECORD
  5
78
330
9
100
AcDbSymbolTableRecord
100
AcDbBlockTableRecord
  2
_CLOSEDFILLED
340
0
 70
0
280
1
281
0
  0
BLOCK_RECORD
  5
84
330
9
100
AcDbSymbolTableRecord
100
AcDbBlockTableRecord
  2
_CLOSEDBLANK
340
0
 70
0
280
1
281
0
  0
ENDTAB
  0
ENDSEC
  0
SECTION
  2
BLOCKS
  0
BLOCK
  5
18
330
17
100
AcDbEntity
  8
0
100
AcDbBlockBegin
  2
*Model_Space
 70
0
 10
0.0
 20
0.0
 30
0.0
  3
*Model_Space
  1

  0
ENDBLK
  5
19
330
17
100
AcDbEntity
  8
0
100
AcDbBlockEnd
  0
BLOCK
  5
1C
330
1B
100
AcDbEntity
  8
0
100
AcDbBlockBegin
  2
*Paper_Space
 70
0
 10
0.0
 20
0.0
 30
0.0
  3
*Paper_Space
  1

  0
ENDBLK
  5
1D
330
1B
100
AcDbEntity
  8
0
100
AcDbBlockEnd
  0
BLOCK
  5
75
330
74
100
AcDbEntity
  8
0
100
AcDbBlockBegin
  2
_ARCHTICK
 70
0
 10
0.0
 20
0.0
 30
0.0
  3
_ARCHTICK
  1

  0
LWPOLYLINE
  5
77
330
74
100
AcDbEntity
  8
0
  6
BYBLOCK
 62
0
100
AcDbPolyline
 90
2
 70
0
 43
0.15
 10
-0.5
 20
-0.5
 10
0.5
 20
0.5
  0
ENDBLK
  5
76
330
74
100
AcDbEntity
  8
0
100
AcDbBlockEnd
  0
BLOCK
  5
79
330
78
100
AcDbEntity
  8
0
100
AcDbBlockBegin
  2
_CLOSEDFILLED
 70
0
 10
0.0
 20
0.0
 30
0.0
  3
_CLOSEDFILLED
  1

  0
SOLID
  5
7B
330
78
100
AcDbEntity
  8
0
  6
BYBLOCK
 62
0
100
AcDbTrace
 10
-1.0
 20
0.16439898372402537
 30
0.0
 11
0.0
 21
0.0
 31
0.0
 12
-1.0
 22
-0.16439898372402537
 32
0.0
 13
-1.0
 23
-0.16439898372402537
 33
0.0
  0
ENDBLK
  5
7A
330
78
100
AcDbEntity
  8
0
100
AcDbBlockEnd
  0
BLOCK
  5
85
330
84
100
AcDbEntity
  8
0
100
AcDbBlockBegin
  2
_CLOSEDBLANK
 70
0
 10
0.0
 20
0.0
 30
0.0
  3
_CLOSEDBLANK
  1

  0
LWPOLYLINE
  5
87
330
84
100
AcDbEntity
  8
0
  6
BYBLOCK
 62
0
100
AcDbPolyline
 90
3
 70
1
 10
-1.0
 20
0.16439898372402537
 10
0.0
 20
0.0
 10
-1.0
 20
-0.16439898372402537
  0
ENDBLK
  5
86
330
84
100
AcDbEntity
  8
0
100
AcDbBlockEnd
  0
ENDSEC
  0
SECTION
  2
ENTITIES
  0
LWPOLYLINE
  5
8E
330
17
100
AcDbEntity
  8
GEOMETRY
100
AcDbPolyline
 90
5
 70
0
 10
0.31496062992125984
 20
11.377952755905513
 10
16.22047244094488
 20
11.377952755905513
 10
16.22047244094488
 20
0.31496062992126106
 10
0.31496062992125984
 20
0.31496062992126106
 10
0.31496062992125984
 20
11.377952755905513
  0
TEXT
  5
8F
330
17
100
AcDbEntity
  8
TEXT
100
AcDbText
 10
0.7874015748031495
 20
11.023622047244094
 30
0.0
 40
0.09070866141732283
  1
D2 · D3
 11
0.7874015748031495
 21
11.023622047244094
 31
0.0
100
AcDbText
  0
LINE
  5
90
330
17
100
AcDbEntity
  8
GEOMETRY
100
AcDbLine
 10
0.7874015748031495
 20
10.964566929133857
 30
0.0
 11
4.173228346456693
 21
10.964566929133857
 31
0.0
  0
TEXT
  5
91
330
17
100
AcDbEntity
  8
TEXT
100
AcDbText
 10
0.7874015748031495
 20
10.834645669291337
 30
0.0
 40
0.048188976377952754
  1
DRESSING AND BATHROOM · 2 FT 6
 11
0.7874015748031495
 21
10.834645669291337
 31
0.0
100
AcDbText
  0
LWPOLYLINE
  5
92
330
17
100
AcDbEntity
  8
GEOMETRY
100
AcDbPolyline
 90
5
 70
0
 10
1.0236220472440944
 20
10.354330708661418
 10
3.5236220472440944
 20
10.354330708661418
 10
3.5236220472440944
 20
2.7723097112860913
 10
1.0236220472440944
 20
2.7723097112860913
 10
1.0236220472440944
 20
10.354330708661418
  0
LINE
  5
93
330
17
100
AcDbEntity
  8
GEOMETRY
100
AcDbLine
 10
1.0629921259842519
 20
10.354330708661417
 30
0.0
 11
1.0629921259842519
 21
2.77230971128609
 31
0.0
  0
LINE
  5
94
330
17
100
AcDbEntity
  8
GEOMETRY
100
AcDbLine
 10
3.484251968503937
 20
10.354330708661417
 30
0.0
 11
3.484251968503937
 21
2.77230971128609
 31
0.0
  0
LINE
  5
95
330
17
100
AcDbEntity
  8
GEOMETRY
100
AcDbLine
 10
1.0236220472440944
 20
10.31496062992126
 30
0.0
 11
3.5236220472440944
 21
10.31496062992126
 31
0.0
  0
LINE
  5
96
330
17
100
AcDbEntity
  8
GEOMETRY
100
AcDbLine
 10
1.0236220472440944
 20
2.8116797900262473
 30
0.0
 11
3.5236220472440944
 21
2.8116797900262473
 31
0.0
  0
LWPOLYLINE
  5
97
330
17
100
AcDbEntity
  8
GEOMETRY
100
AcDbPolyline
 90
5
 70
0
 10
1.3517060367454066
 20
10.026246719160106
 10
3.1955380577427817
 20
10.026246719160106
 10
3.1955380577427817
 20
6.338582677165355
 10
1.3517060367454066
 20
6.338582677165355
 10
1.3517060367454066
 20
10.026246719160106
  0
LWPOLYLINE
  5
98
330
17
100
AcDbEntity
  8
GEOMETRY
100
AcDbPolyline
 90
5
 70
0
 10
1.499343832020997
 20
9.878608923884515
 10
3.0479002624671914
 20
9.878608923884515
 10
3.0479002624671914
 20
6.486220472440945
 10
1.499343832020997
 20
6.486220472440945
 10
1.499343832020997
 20
9.878608923884515
  0
LINE
  5
99
330
17
100
AcDbEntity
  8
GEOMETRY
100
AcDbLine
 10
1.3517060367454066
 20
10.026246719160106
 30
0.0
 11
1.499343832020997
 21
9.878608923884515
 31
0.0
  0
LINE
  5
9A
330
17
100
AcDbEntity
  8
GEOMETRY
100
AcDbLine
 10
3.1955380577427817
 20
10.026246719160106
 30
0.0
 11
3.0479002624671914
 21
9.878608923884515
 31
0.0
  0
LINE
  5
9B
330
17
100
AcDbEntity
  8
GEOMETRY
100
AcDbLine
 10
1.3517060367454066
 20
6.338582677165355
 30
0.0
 11
1.499343832020997
 21
6.4862204724409445
 31
0.0
  0
LINE
  5
9C
330
17
100
AcDbEntity
  8
GEOMETRY
100
AcDbLine
 10
3.1955380577427817
 20
6.338582677165355
 30
0.0
 11
3.0479002624671914
 21
6.4862204724409445
 31
0.0
  0
LWPOLYLINE
  5
9D
330
17
100
AcDbEntity
  8
GEOMETRY
100
AcDbPolyline
 90
5
 70
0
 10
1.256561679790026
 20
10.121391076115486
 10
1.4468503937007873
 20
10.121391076115486
 10
1.4468503937007873
 20
9.931102362204726
 10
1.256561679790026
 20
9.931102362204726
 10
1.256561679790026
 20
10.121391076115486
  0
LWPOLYLINE
  5
9E
330
17
100
AcDbEntity
  8
GEOMETRY
100
AcDbPolyline
 90
5
 70
0
 10
1.2926509186351707
 20
10.085301837270341
 10
1.4107611548556431
 20
10.085301837270341
 10
1.4107611548556431
 20
9.96719160104987
 10
1.2926509186351707
 20
9.96719160104987
 10
1.2926509186351707
 20
10.085301837270341
  0
LWPOLYLINE
  5
9F
330
17
100
AcDbEntity
  8
GEOMETRY
100
AcDbPolyline
 90
5
 70
0
 10
3.1003937007874014
 20
10.121391076115486
 10
3.2906824146981624
 20
10.121391076115486
 10
3.2906824146981624
 20
9.931102362204726
 10
3.1003937007874014
 20
9.931102362204726
 10
3.1003937007874014
 20
10.121391076115486
  0
LWPOLYLINE
  5
A0
330
17
100
AcDbEntity
  8
GEOMETRY
100
AcDbPolyline
 90
5
 70
0
 10
3.1364829396325455
 20
10.085301837270341
 10
3.2545931758530178
 20
10.085301837270341
 10
3.2545931758530178
 20
9.96719160104987
 10
3.1364829396325455
 20
9.96719160104987
 10
3.1364829396325455
 20
10.085301837270341
  0
LWPOLYLINE
  5
A1
330
17
100
AcDbEntity
  8
GEOMETRY
100
AcDbPolyline
 90
5
 70
0
 10
1.256561679790026
 20
6.433727034120737
 10
1.4468503937007873
 20
6.433727034120737
 10
1.4468503937007873
 20
6.243438320209974
 10
1.256561679790026
 20
6.243438320209974
 10
1.256561679790026
 20
6.433727034120737
  0
LWPOLYLINE
  5
A2
330
17
100
AcDbEntity
  8
GEOMETRY
100
AcDbPolyline
 90
5
 70
0
 10
1.2926509186351707
 20
6.397637795275591
 10
1.4107611548556431
 20
6.397637795275591
 10
1.4107611548556431
 20
6.2795275590551185
 10
1.2926509186351707
 20
6.2795275590551185
 10
1.2926509186351707
 20
6.397637795275591
  0
LWPOLYLINE
  5
A3
330
17
100
AcDbEntity
  8
GEOMETRY
100
AcDbPolyline
 90
5
 70
0
 10
3.1003937007874014
 20
6.433727034120737
 10
3.2906824146981624
 20
6.433727034120737
 10
3.2906824146981624
 20
6.243438320209974
 10
3.1003937007874014
 20
6.243438320209974
 10
3.1003937007874014
 20
6.433727034120737
  0
LWPOLYLINE
  5
A4
330
17
100
AcDbEntity
  8
GEOMETRY
100
AcDbPolyline
 90
5
 70
0
 10
3.1364829396325455
 20
6.397637795275591
 10
3.2545931758530178
 20
6.397637795275591
 10
3.2545931758530178
 20
6.2795275590551185
 10
3.1364829396325455
 20
6.2795275590551185
 10
3.1364829396325455
 20
6.397637795275591
  0
LWPOLYLINE
  5
A5
330
17
100
AcDbEntity
  8
GEOMETRY
100
AcDbPolyline
 90
5
 70
0
 10
1.3517060367454066
 20
5.583989501312337
 10
3.1955380577427817
 20
5.583989501312337
 10
3.1955380577427817
 20
3.740157480314961
 10
1.3517060367454066
 20
3.740157480314961
 10
1.3517060367454066
 20
5.583989501312337
  0
LWPOLYLINE
  5
A6
330
17
100
AcDbEntity
  8
GEOMETRY
100
AcDbPolyline
 90
5
 70
0
 10
1.499343832020997
 20
5.436351706036747
 10
3.0479002624671914
 20
5.436351706036747
 10
3.0479002624671914
 20
3.887795275590552
 10
1.499343832020997
 20
3.887795275590552
 10
1.499343832020997
 20
5.436351706036747
  0
LINE
  5
A7
330
17
100
AcDbEntity
  8
GEOMETRY
100
AcDbLine
 10
1.3517060367454066
 20
5.583989501312336
 30
0.0
 11
1.499343832020997
 21
5.436351706036746
 31
0.0
  0
LINE
  5
A8
330
17
100
AcDbEntity
  8
GEOMETRY
100
AcDbLine
 10
3.1955380577427817
 20
5.583989501312336
 30
0.0
 11
3.0479002624671914
 21
5.436351706036746
 31
0.0
  0
LINE
  5
A9
330
17
100
AcDbEntity
  8
GEOMETRY
100
AcDbLine
 10
1.3517060367454066
 20
3.7401574803149606
 30
0.0
 11
1.499343832020997
 21
3.887795275590551
 31
0.0
  0
LINE
  5
AA
330
17
100
AcDbEntity
  8
GEOMETRY
100
AcDbLine
 10
3.1955380577427817
 20
3.7401574803149606
 30
0.0
 11
3.0479002624671914
 21
3.887795275590551
 31
0.0
  0
LWPOLYLINE
  5
AB
330
17
100
AcDbEntity
  8
GEOMETRY
100
AcDbPolyline
 90
5
 70
0
 10
1.256561679790026
 20
5.6791338582677175
 10
1.4468503937007873
 20
5.6791338582677175
 10
1.4468503937007873
 20
5.488845144356955
 10
1.256561679790026
 20
5.488845144356955
 10
1.256561679790026
 20
5.6791338582677175
  0
LWPOLYLINE
  5
AC
330
17
100
AcDbEntity
  8
GEOMETRY
100
AcDbPolyline
 90
5
 70
0
 10
1.2926509186351707
 20
5.643044619422573
 10
1.4107611548556431
 20
5.643044619422573
 10
1.4107611548556431
 20
5.524934383202101
 10
1.2926509186351707
 20
5.524934383202101
 10
1.2926509186351707
 20
5.643044619422573
  0
LWPOLYLINE
  5
AD
330
17
100
AcDbEntity
  8
GEOMETRY
100
AcDbPolyline
 90
5
 70
0
 10
3.1003937007874014
 20
5.6791338582677175
 10
3.2906824146981624
 20
5.6791338582677175
 10
3.2906824146981624
 20
5.488845144356955
 10
3.1003937007874014
 20
5.488845144356955
 10
3.1003937007874014
 20
5.6791338582677175
  0
LWPOLYLINE
  5
AE
330
17
100
AcDbEntity
  8
GEOMETRY
100
AcDbPolyline
 90
5
 70
0
 10
3.1364829396325455
 20
5.643044619422573
 10
3.2545931758530178
 20
5.643044619422573
 10
3.2545931758530178
 20
5.524934383202101
 10
3.1364829396325455
 20
5.524934383202101
 10
3.1364829396325455
 20
5.643044619422573
  0
LWPOLYLINE
  5
AF
330
17
100
AcDbEntity
  8
GEOMETRY
100
AcDbPolyline
 90
5
 70
0
 10
1.256561679790026
 20
3.8353018372703422
 10
1.4468503937007873
 20
3.8353018372703422
 10
1.4468503937007873
 20
3.645013123359581
 10
1.256561679790026
 20
3.645013123359581
 10
1.256561679790026
 20
3.8353018372703422
  0
LWPOLYLINE
  5
B0
330
17
100
AcDbEntity
  8
GEOMETRY
100
AcDbPolyline
 90
5
 70
0
 10
1.2926509186351707
 20
3.799212598425197
 10
1.4107611548556431
 20
3.799212598425197
 10
1.4107611548556431
 20
3.681102362204726
 10
1.2926509186351707
 20
3.681102362204726
 10
1.2926509186351707
 20
3.799212598425197
  0
LWPOLYLINE
  5
B1
330
17
100
AcDbEntity
  8
GEOMETRY
100
AcDbPolyline
 90
5
 70
0
 10
3.1003937007874014
 20
3.8353018372703422
 10
3.2906824146981624
 20
3.8353018372703422
 10
3.2906824146981624
 20
3.645013123359581
 10
3.1003937007874014
 20
3.645013123359581
 10
3.1003937007874014
 20
3.8353018372703422
  0
LWPOLYLINE
  5
B2
330
17
100
AcDbEntity
  8
GEOMETRY
100
AcDbPolyline
 90
5
 70
0
 10
3.1364829396325455
 20
3.799212598425197
 10
3.2545931758530178
 20
3.799212598425197
 10
3.2545931758530178
 20
3.681102362204726
 10
3.1364829396325455
 20
3.681102362204726
 10
3.1364829396325455
 20
3.799212598425197
  0
CIRCLE
  5
B3
330
17
100
AcDbEntity
  8
GEOMETRY
100
AcDbCircle
 10
3.097112860892388
 20
5.961286089238846
 30
0.0
 40
0.09022309711286089
  0
CIRCLE
  5
B4
330
17
100
AcDbEntity
  8
GEOMETRY
100
AcDbCircle
 10
3.097112860892388
 20
5.961286089238846
 30
0.0
 40
0.057414698162729656
  0
CIRCLE
  5
B5
330
17
100
AcDbEntity
  8
GEOMETRY
100
AcDbCircle
 10
3.385826771653543
 20
5.961286089238846
 30
0.0
 40
0.05577427821522309
  0
LINE
  5
B6
330
17
100
AcDbEntity
  8
GEOMETRY
100
AcDbLine
 10
0.49868766404199477
 20
2.77230971128609
 30
0.0
 11
4.048556430446194
 21
2.77230971128609
 31
0.0
  0
LINE
  5
B7
330
17
100
AcDbEntity
  8
DIMENSIONS
100
AcDbLine
 10
0.9645669291338582
 20
2.5362204724409443
 30
0.0
 11
3.5826771653543306
 21
2.5362204724409443
 31
0.0
  0
LINE
  5
B8
330
17
100
AcDbEntity
  8
DIMENSIONS
100
AcDbLine
 10
1.0236220472440944
 20
2.733070866141732
 30
0.0
 11
1.0236220472440944
 21
2.488976377952756
 31
0.0
  0
LINE
  5
B9
330
17
100
AcDbEntity
  8
DIMENSIONS
100
AcDbLine
 10
0.984251968503937
 20
2.496850393700787
 30
0.0
 11
1.0629921259842519
 21
2.5755905511811017
 31
0.0
  0
LINE
  5
BA
330
17
100
AcDbEntity
  8
DIMENSIONS
100
AcDbLine
 10
1.3515748031496062
 20
2.733070866141732
 30
0.0
 11
1.3515748031496062
 21
2.488976377952756
 31
0.0
  0
LINE
  5
BB
330
17
100
AcDbEntity
  8
DIMENSIONS
100
AcDbLine
 10
1.3122047244094488
 20
2.496850393700787
 30
0.0
 11
1.3909448818897636
 21
2.5755905511811017
 31
0.0
  0
LINE
  5
BC
330
17
100
AcDbEntity
  8
DIMENSIONS
100
AcDbLine
 10
3.1956692913385827
 20
2.733070866141732
 30
0.0
 11
3.1956692913385827
 21
2.488976377952756
 31
0.0
  0
LINE
  5
BD
330
17
100
AcDbEntity
  8
DIMENSIONS
100
AcDbLine
 10
3.1562992125984253
 20
2.496850393700787
 30
0.0
 11
3.23503937007874
 21
2.5755905511811017
 31
0.0
  0
LINE
  5
BE
330
17
100
AcDbEntity
  8
DIMENSIONS
100
AcDbLine
 10
3.5236220472440944
 20
2.733070866141732
 30
0.0
 11
3.5236220472440944
 21
2.488976377952756
 31
0.0
  0
LINE
  5
BF
330
17
100
AcDbEntity
  8
DIMENSIONS
100
AcDbLine
 10
3.484251968503937
 20
2.496850393700787
 30
0.0
 11
3.562992125984252
 21
2.5755905511811017
 31
0.0
  0
TEXT
  5
C0
330
17
100
AcDbEntity
  8
TEXT
100
AcDbText
 10
1.1874015748031497
 20
2.5677165354330707
 30
0.0
 40
0.035433070866141725
  1
3⅞"
 72
1
 11
1.1874015748031497
 21
2.5677165354330707
 31
0.0
100
AcDbText
  0
TEXT
  5
C1
330
17
100
AcDbEntity
  8
TEXT
100
AcDbText
 10
2.2736220472440944
 20
2.5677165354330707
 30
0.0
 40
0.035433070866141725
  1
1'-10⅛"
 72
1
 11
2.2736220472440944
 21
2.5677165354330707
 31
0.0
100
AcDbText
  0
TEXT
  5
C2
330
17
100
AcDbEntity
  8
TEXT
100
AcDbText
 10
3.3598425196850394
 20
2.5677165354330707
 30
0.0
 40
0.035433070866141725
  1
3⅞"
 72
1
 11
3.3598425196850394
 21
2.5677165354330707
 31
0.0
100
AcDbText
  0
LINE
  5
C3
330
17
100
AcDbEntity
  8
DIMENSIONS
100
AcDbLine
 10
0.9645669291338582
 20
2.2999999999999994
 30
0.0
 11
3.5826771653543306
 21
2.2999999999999994
 31
0.0
  0
LINE
  5
C4
330
17
100
AcDbEntity
  8
DIMENSIONS
100
AcDbLine
 10
1.0236220472440944
 20
2.733070866141732
 30
0.0
 11
1.0236220472440944
 21
2.252755905511811
 31
0.0
  0
LINE
  5
C5
330
17
100
AcDbEntity
  8
DIMENSIONS
100
AcDbLine
 10
0.984251968503937
 20
2.260629921259842
 30
0.0
 11
1.0629921259842519
 21
2.339370078740157
 31
0.0
  0
LINE
  5
C6
330
17
100
AcDbEntity
  8
DIMENSIONS
100
AcDbLine
 10
3.5236220472440944
 20
2.733070866141732
 30
0.0
 11
3.5236220472440944
 21
2.252755905511811
 31
0.0
  0
LINE
  5
C7
330
17
100
AcDbEntity
  8
DIMENSIONS
100
AcDbLine
 10
3.484251968503937
 20
2.260629921259842
 30
0.0
 11
3.562992125984252
 21
2.339370078740157
 31
0.0
  0
TEXT
  5
C8
330
17
100
AcDbEntity
  8
TEXT
100
AcDbText
 10
2.2736220472440944
 20
2.3314960629921258
 30
0.0
 40
0.03968503937007874
  1
2'-6"
 72
1
 11
2.2736220472440944
 21
2.3314960629921258
 31
0.0
100
AcDbText
  0
LINE
  5
C9
330
17
100
AcDbEntity
  8
DIMENSIONS
100
AcDbLine
 10
3.7598425196850394
 20
2.8314960629921253
 30
0.0
 11
3.7598425196850394
 21
10.295275590551181
 31
0.0
  0
LINE
  5
CA
330
17
100
AcDbEntity
  8
DIMENSIONS
100
AcDbLine
 10
3.562992125984252
 20
2.772440944881889
 30
0.0
 11
3.8070866141732282
 21
2.772440944881889
 31
0.0
  0
LINE
  5
CB
330
17
100
AcDbEntity
  8
DIMENSIONS
100
AcDbLine
 10
3.720472440944882
 20
2.733070866141732
 30
0.0
 11
3.7992125984251968
 21
2.8118110236220466
 31
0.0
  0
LINE
  5
CC
330
17
100
AcDbEntity
  8
DIMENSIONS
100
AcDbLine
 10
3.562992125984252
 20
3.7401574803149606
 30
0.0
 11
3.8070866141732282
 21
3.7401574803149606
 31
0.0
  0
LINE
  5
CD
330
17
100
AcDbEntity
  8
DIMENSIONS
100
AcDbLine
 10
3.720472440944882
 20
3.7007874015748032
 30
0.0
 11
3.7992125984251968
 21
3.779527559055118
 31
0.0
  0
LINE
  5
CE
330
17
100
AcDbEntity
  8
DIMENSIONS
100
AcDbLine
 10
3.562992125984252
 20
5.583858267716536
 30
0.0
 11
3.8070866141732282
 21
5.583858267716536
 31
0.0
  0
LINE
  5
CF
330
17
100
AcDbEntity
  8
DIMENSIONS
100
AcDbLine
 10
3.720472440944882
 20
5.544488188976378
 30
0.0
 11
3.7992125984251968
 21
5.623228346456694
 31
0.0
  0
LINE
  5
D0
330
17
100
AcDbEntity
  8
DIMENSIONS
100
AcDbLine
 10
3.562992125984252
 20
6.338582677165355
 30
0.0
 11
3.8070866141732282
 21
6.338582677165355
 31
0.0
  0
LINE
  5
D1
330
17
100
AcDbEntity
  8
DIMENSIONS
100
AcDbLine
 10
3.720472440944882
 20
6.299212598425196
 30
0.0
 11
3.7992125984251968
 21
6.377952755905512
 31
0.0
  0
LINE
  5
D2
330
17
100
AcDbEntity
  8
DIMENSIONS
100
AcDbLine
 10
3.562992125984252
 20
10.026377952755906
 30
0.0
 11
3.8070866141732282
 21
10.026377952755906
 31
0.0
  0
LINE
  5
D3
330
17
100
AcDbEntity
  8
DIMENSIONS
100
AcDbLine
 10
3.720472440944882
 20
9.987007874015749
 30
0.0
 11
3.7992125984251968
 21
10.065748031496064
 31
0.0
  0
LINE
  5
D4
330
17
100
AcDbEntity
  8
DIMENSIONS
100
AcDbLine
 10
3.562992125984252
 20
10.354330708661417
 30
0.0
 11
3.8070866141732282
 21
10.354330708661417
 31
0.0
  0
LINE
  5
D5
330
17
100
AcDbEntity
  8
DIMENSIONS
100
AcDbLine
 10
3.720472440944882
 20
10.31496062992126
 30
0.0
 11
3.7992125984251968
 21
10.393700787401574
 31
0.0
  0
TEXT
  5
D6
330
17
100
AcDbEntity
  8
TEXT
100
AcDbText
 10
3.7283464566929134
 20
3.2562992125984245
 30
0.0
 40
0.03401574803149606
  1
11⅝"
 50
90.0
 72
1
 11
3.7283464566929134
 21
3.2562992125984245
 31
0.0
100
AcDbText
  0
TEXT
  5
D7
330
17
100
AcDbEntity
  8
TEXT
100
AcDbText
 10
3.7283464566929134
 20
4.66220472440945
 30
0.0
 40
0.03401574803149606
  1
1'-10⅛"
 50
90.0
 72
1
 11
3.7283464566929134
 21
4.66220472440945
 31
0.0
100
AcDbText
  0
TEXT
  5
D8
330
17
100
AcDbEntity
  8
TEXT
100
AcDbText
 10
3.7283464566929134
 20
5.961417322834645
 30
0.0
 40
0.03401574803149606
  1
9"
 50
90.0
 72
1
 11
3.7283464566929134
 21
5.961417322834645
 31
0.0
100
AcDbText
  0
TEXT
  5
D9
330
17
100
AcDbEntity
  8
TEXT
100
AcDbText
 10
3.7283464566929134
 20
8.18267716535433
 30
0.0
 40
0.03401574803149606
  1
3'-8¼"
 50
90.0
 72
1
 11
3.7283464566929134
 21
8.18267716535433
 31
0.0
100
AcDbText
  0
TEXT
  5
DA
330
17
100
AcDbEntity
  8
TEXT
100
AcDbText
 10
3.7283464566929134
 20
10.19055118110236
 30
0.0
 40
0.03401574803149606
  1
3⅞"
 50
90.0
 72
1
 11
3.7283464566929134
 21
10.19055118110236
 31
0.0
100
AcDbText
  0
LINE
  5
DB
330
17
100
AcDbEntity
  8
DIMENSIONS
100
AcDbLine
 10
0.8267716535433071
 20
2.8314960629921253
 30
0.0
 11
0.8267716535433071
 21
5.902362204724409
 31
0.0
  0
LINE
  5
DC
330
17
100
AcDbEntity
  8
DIMENSIONS
100
AcDbLine
 10
0.984251968503937
 20
2.772440944881889
 30
0.0
 11
0.8740157480314961
 21
2.772440944881889
 31
0.0
  0
LINE
  5
DD
330
17
100
AcDbEntity
  8
DIMENSIONS
100
AcDbLine
 10
0.7874015748031495
 20
2.733070866141732
 30
0.0
 11
0.8661417322834646
 21
2.8118110236220466
 31
0.0
  0
LINE
  5
DE
330
17
100
AcDbEntity
  8
DIMENSIONS
100
AcDbLine
 10
0.984251968503937
 20
5.961417322834645
 30
0.0
 11
0.8740157480314961
 21
5.961417322834645
 31
0.0
  0
LINE
  5
DF
330
17
100
AcDbEntity
  8
DIMENSIONS
100
AcDbLine
 10
0.7874015748031495
 20
5.922047244094488
 30
0.0
 11
0.8661417322834646
 21
6.000787401574803
 31
0.0
  0
TEXT
  5
E0
330
17
100
AcDbEntity
  8
TEXT
100
AcDbText
 10
0.7952755905511807
 20
4.366929133858267
 30
0.0
 40
0.03401574803149606
  1
3'-2¼"
 50
90.0
 72
1
 11
0.7952755905511807
 21
4.366929133858267
 31
0.0
100
AcDbText
  0
TEXT
  5
E1
330
17
100
AcDbEntity
  8
TEXT
100
AcDbText
 10
4.488188976377953
 20
11.023622047244094
 30
0.0
 40
0.09070866141732283
  1
D1
 11
4.488188976377953
 21
11.023622047244094
 31
0.0
100
AcDbText
  0
LINE
  5
E2
330
17
100
AcDbEntity
  8
GEOMETRY
100
AcDbLine
 10
4.488188976377953
 20
10.964566929133857
 30
0.0
 11
7.874015748031496
 21
10.964566929133857
 31
0.0
  0
TEXT
  5
E3
330
17
100
AcDbEntity
  8
TEXT
100
AcDbText
 10
4.488188976377953
 20
10.834645669291337
 30
0.0
 40
0.048188976377952754
  1
MAIN DOOR · 3 FT
 11
4.488188976377953
 21
10.834645669291337
 31
0.0
100
AcDbText
  0
LWPOLYLINE
  5
E4
330
17
100
AcDbEntity
  8
GEOMETRY
100
AcDbPolyline
 90
5
 70
0
 10
4.724409448818897
 20
10.354330708661418
 10
7.723097112860892
 20
10.354330708661418
 10
7.723097112860892
 20
2.7723097112860913
 10
4.724409448818897
 20
2.7723097112860913
 10
4.724409448818897
 20
10.354330708661418
  0
LINE
  5
E5
330
17
100
AcDbEntity
  8
GEOMETRY
100
AcDbLine
 10
4.763779527559055
 20
10.354330708661417
 30
0.0
 11
4.763779527559055
 21
2.77230971128609
 31
0.0
  0
LINE
  5
E6
330
17
100
AcDbEntity
  8
GEOMETRY
100
AcDbLine
 10
7.683727034120734
 20
10.354330708661417
 30
0.0
 11
7.683727034120734
 21
2.77230971128609
 31
0.0
  0
LINE
  5
E7
330
17
100
AcDbEntity
  8
GEOMETRY
100
AcDbLine
 10
4.724409448818897
 20
10.31496062992126
 30
0.0
 11
7.723097112860892
 21
10.31496062992126
 31
0.0
  0
LINE
  5
E8
330
17
100
AcDbEntity
  8
GEOMETRY
100
AcDbLine
 10
4.724409448818897
 20
2.8116797900262473
 30
0.0
 11
7.723097112860892
 21
2.8116797900262473
 31
0.0
  0
LWPOLYLINE
  5
E9
330
17
100
AcDbEntity
  8
GEOMETRY
100
AcDbPolyline
 90
5
 70
0
 10
5.0524934383202105
 20
10.026246719160106
 10
7.39501312335958
 20
10.026246719160106
 10
7.39501312335958
 20
6.338582677165355
 10
5.0524934383202105
 20
6.338582677165355
 10
5.0524934383202105
 20
10.026246719160106
  0
LWPOLYLINE
  5
EA
330
17
100
AcDbEntity
  8
GEOMETRY
100
AcDbPolyline
 90
5
 70
0
 10
5.200131233595801
 20
9.878608923884515
 10
7.24737532808399
 20
9.878608923884515
 10
7.24737532808399
 20
6.486220472440945
 10
5.200131233595801
 20
6.486220472440945
 10
5.200131233595801
 20
9.878608923884515
  0
LINE
  5
EB
330
17
100
AcDbEntity
  8
GEOMETRY
100
AcDbLine
 10
5.0524934383202105
 20
10.026246719160106
 30
0.0
 11
5.200131233595801
 21
9.878608923884515
 31
0.0
  0
LINE
  5
EC
330
17
100
AcDbEntity
  8
GEOMETRY
100
AcDbLine
 10
7.395013123359579
 20
10.026246719160106
 30
0.0
 11
7.247375328083988
 21
9.878608923884515
 31
0.0
  0
LINE
  5
ED
330
17
100
AcDbEntity
  8
GEOMETRY
100
AcDbLine
 10
5.0524934383202105
 20
6.338582677165355
 30
0.0
 11
5.200131233595801
 21
6.4862204724409445
 31
0.0
  0
LINE
  5
EE
330
17
100
AcDbEntity
  8
GEOMETRY
100
AcDbLine
 10
7.395013123359579
 20
6.338582677165355
 30
0.0
 11
7.247375328083988
 21
6.4862204724409445
 31
0.0
  0
LWPOLYLINE
  5
EF
330
17
100
AcDbEntity
  8
GEOMETRY
100
AcDbPolyline
 90
5
 70
0
 10
4.957349081364829
 20
10.121391076115486
 10
5.147637795275591
 20
10.121391076115486
 10
5.147637795275591
 20
9.931102362204726
 10
4.957349081364829
 20
9.931102362204726
 10
4.957349081364829
 20
10.121391076115486
  0
LWPOLYLINE
  5
F0
330
17
100
AcDbEntity
  8
GEOMETRY
100
AcDbPolyline
 90
5
 70
0
 10
4.9934383202099735
 20
10.085301837270341
 10
5.111548556430446
 20
10.085301837270341
 10
5.111548556430446
 20
9.96719160104987
 10
4.9934383202099735
 20
9.96719160104987
 10
4.9934383202099735
 20
10.085301837270341
  0
LWPOLYLINE
  5
F1
330
17
100
AcDbEntity
  8
GEOMETRY
100
AcDbPolyline
 90
5
 70
0
 10
7.299868766404199
 20
10.121391076115486
 10
7.49015748031496
 20
10.121391076115486
 10
7.49015748031496
 20
9.931102362204726
 10
7.299868766404199
 20
9.931102362204726
 10
7.299868766404199
 20
10.121391076115486
  0
LWPOLYLINE
  5
F2
330
17
100
AcDbEntity
  8
GEOMETRY
100
AcDbPolyline
 90
5
 70
0
 10
7.335958005249343
 20
10.085301837270341
 10
7.454068241469815
 20
10.085301837270341
 10
7.454068241469815
 20
9.96719160104987
 10
7.335958005249343
 20
9.96719160104987
 10
7.335958005249343
 20
10.085301837270341
  0
LWPOLYLINE
  5
F3
330
17
100
AcDbEntity
  8
GEOMETRY
100
AcDbPolyline
 90
5
 70
0
 10
4.957349081364829
 20
6.433727034120737
 10
5.147637795275591
 20
6.433727034120737
 10
5.147637795275591
 20
6.243438320209974
 10
4.957349081364829
 20
6.243438320209974
 10
4.957349081364829
 20
6.433727034120737
  0
LWPOLYLINE
  5
F4
330
17
100
AcDbEntity
  8
GEOMETRY
100
AcDbPolyline
 90
5
 70
0
 10
4.9934383202099735
 20
6.397637795275591
 10
5.111548556430446
 20
6.397637795275591
 10
5.111548556430446
 20
6.2795275590551185
 10
4.9934383202099735
 20
6.2795275590551185
 10
4.9934383202099735
 20
6.397637795275591
  0
LWPOLYLINE
  5
F5
330
17
100
AcDbEntity
  8
GEOMETRY
100
AcDbPolyline
 90
5
 70
0
 10
7.299868766404199
 20
6.433727034120737
 10
7.49015748031496
 20
6.433727034120737
 10
7.49015748031496
 20
6.243438320209974
 10
7.299868766404199
 20
6.243438320209974
 10
7.299868766404199
 20
6.433727034120737
  0
LWPOLYLINE
  5
F6
330
17
100
AcDbEntity
  8
GEOMETRY
100
AcDbPolyline
 90
5
 70
0
 10
7.335958005249343
 20
6.397637795275591
 10
7.454068241469815
 20
6.397637795275591
 10
7.454068241469815
 20
6.2795275590551185
 10
7.335958005249343
 20
6.2795275590551185
 10
7.335958005249343
 20
6.397637795275591
  0
LWPOLYLINE
  5
F7
330
17
100
AcDbEntity
  8
GEOMETRY
100
AcDbPolyline
 90
5
 70
0
 10
5.0524934383202105
 20
5.583989501312337
 10
7.39501312335958
 20
5.583989501312337
 10
7.39501312335958
 20
3.740157480314961
 10
5.0524934383202105
 20
3.740157480314961
 10
5.0524934383202105
 20
5.583989501312337
  0
LWPOLYLINE
  5
F8
330
17
100
AcDbEntity
  8
GEOMETRY
100
AcDbPolyline
 90
5
 70
0
 10
5.200131233595801
 20
5.436351706036747
 10
7.24737532808399
 20
5.436351706036747
 10
7.24737532808399
 20
3.887795275590552
 10
5.200131233595801
 20
3.887795275590552
 10
5.200131233595801
 20
5.436351706036747
  0
LINE
  5
F9
330
17
100
AcDbEntity
  8
GEOMETRY
100
AcDbLine
 10
5.0524934383202105
 20
5.583989501312336
 30
0.0
 11
5.200131233595801
 21
5.436351706036746
 31
0.0
  0
LINE
  5
FA
330
17
100
AcDbEntity
  8
GEOMETRY
100
AcDbLine
 10
7.395013123359579
 20
5.583989501312336
 30
0.0
 11
7.247375328083988
 21
5.436351706036746
 31
0.0
  0
LINE
  5
FB
330
17
100
AcDbEntity
  8
GEOMETRY
100
AcDbLine
 10
5.0524934383202105
 20
3.7401574803149606
 30
0.0
 11
5.200131233595801
 21
3.887795275590551
 31
0.0
  0
LINE
  5
FC
330
17
100
AcDbEntity
  8
GEOMETRY
100
AcDbLine
 10
7.395013123359579
 20
3.7401574803149606
 30
0.0
 11
7.247375328083988
 21
3.887795275590551
 31
0.0
  0
LWPOLYLINE
  5
FD
330
17
100
AcDbEntity
  8
GEOMETRY
100
AcDbPolyline
 90
5
 70
0
 10
4.957349081364829
 20
5.6791338582677175
 10
5.147637795275591
 20
5.6791338582677175
 10
5.147637795275591
 20
5.488845144356955
 10
4.957349081364829
 20
5.488845144356955
 10
4.957349081364829
 20
5.6791338582677175
  0
LWPOLYLINE
  5
FE
330
17
100
AcDbEntity
  8
GEOMETRY
100
AcDbPolyline
 90
5
 70
0
 10
4.9934383202099735
 20
5.643044619422573
 10
5.111548556430446
 20
5.643044619422573
 10
5.111548556430446
 20
5.524934383202101
 10
4.9934383202099735
 20
5.524934383202101
 10
4.9934383202099735
 20
5.643044619422573
  0
LWPOLYLINE
  5
FF
330
17
100
AcDbEntity
  8
GEOMETRY
100
AcDbPolyline
 90
5
 70
0
 10
7.299868766404199
 20
5.6791338582677175
 10
7.49015748031496
 20
5.6791338582677175
 10
7.49015748031496
 20
5.488845144356955
 10
7.299868766404199
 20
5.488845144356955
 10
7.299868766404199
 20
5.6791338582677175
  0
LWPOLYLINE
  5
100
330
17
100
AcDbEntity
  8
GEOMETRY
100
AcDbPolyline
 90
5
 70
0
 10
7.335958005249343
 20
5.643044619422573
 10
7.454068241469815
 20
5.643044619422573
 10
7.454068241469815
 20
5.524934383202101
 10
7.335958005249343
 20
5.524934383202101
 10
7.335958005249343
 20
5.643044619422573
  0
LWPOLYLINE
  5
101
330
17
100
AcDbEntity
  8
GEOMETRY
100
AcDbPolyline
 90
5
 70
0
 10
4.957349081364829
 20
3.8353018372703422
 10
5.147637795275591
 20
3.8353018372703422
 10
5.147637795275591
 20
3.645013123359581
 10
4.957349081364829
 20
3.645013123359581
 10
4.957349081364829
 20
3.8353018372703422
  0
LWPOLYLINE
  5
102
330
17
100
AcDbEntity
  8
GEOMETRY
100
AcDbPolyline
 90
5
 70
0
 10
4.9934383202099735
 20
3.799212598425197
 10
5.111548556430446
 20
3.799212598425197
 10
5.111548556430446
 20
3.681102362204726
 10
4.9934383202099735
 20
3.681102362204726
 10
4.9934383202099735
 20
3.799212598425197
  0
LWPOLYLINE
  5
103
330
17
100
AcDbEntity
  8
GEOMETRY
100
AcDbPolyline
 90
5
 70
0
 10
7.299868766404199
 20
3.8353018372703422
 10
7.49015748031496
 20
3.8353018372703422
 10
7.49015748031496
 20
3.645013123359581
 10
7.299868766404199
 20
3.645013123359581
 10
7.299868766404199
 20
3.8353018372703422
  0
LWPOLYLINE
  5
104
330
17
100
AcDbEntity
  8
GEOMETRY
100
AcDbPolyline
 90
5
 70
0
 10
7.335958005249343
 20
3.799212598425197
 10
7.454068241469815
 20
3.799212598425197
 10
7.454068241469815
 20
3.681102362204726
 10
7.335958005249343
 20
3.681102362204726
 10
7.335958005249343
 20
3.799212598425197
  0
CIRCLE
  5
105
330
17
100
AcDbEntity
  8
GEOMETRY
100
AcDbCircle
 10
7.2965879265091855
 20
5.961286089238846
 30
0.0
 40
0.09022309711286089
  0
CIRCLE
  5
106
330
17
100
AcDbEntity
  8
GEOMETRY
100
AcDbCircle
 10
7.2965879265091855
 20
5.961286089238846
 30
0.0
 40
0.057414698162729656
  0
CIRCLE
  5
107
330
17
100
AcDbEntity
  8
GEOMETRY
100
AcDbCircle
 10
7.5853018372703405
 20
5.961286089238846
 30
0.0
 40
0.05577427821522309
  0
LINE
  5
108
330
17
100
AcDbEntity
  8
GEOMETRY
100
AcDbLine
 10
4.199475065616798
 20
2.77230971128609
 30
0.0
 11
8.248031496062993
 21
2.77230971128609
 31
0.0
  0
LINE
  5
109
330
17
100
AcDbEntity
  8
DIMENSIONS
100
AcDbLine
 10
4.665354330708661
 20
2.5362204724409443
 30
0.0
 11
7.7822834645669285
 21
2.5362204724409443
 31
0.0
  0
LINE
  5
10A
330
17
100
AcDbEntity
  8
DIMENSIONS
100
AcDbLine
 10
4.724409448818897
 20
2.733070866141732
 30
0.0
 11
4.724409448818897
 21
2.488976377952756
 31
0.0
  0
LINE
  5
10B
330
17
100
AcDbEntity
  8
DIMENSIONS
100
AcDbLine
 10
4.68503937007874
 20
2.496850393700787
 30
0.0
 11
4.763779527559055
 21
2.5755905511811017
 31
0.0
  0
LINE
  5
10C
330
17
100
AcDbEntity
  8
DIMENSIONS
100
AcDbLine
 10
5.0523622047244094
 20
2.733070866141732
 30
0.0
 11
5.0523622047244094
 21
2.488976377952756
 31
0.0
  0
LINE
  5
10D
330
17
100
AcDbEntity
  8
DIMENSIONS
100
AcDbLine
 10
5.012992125984252
 20
2.496850393700787
 30
0.0
 11
5.091732283464568
 21
2.5755905511811017
 31
0.0
  0
LINE
  5
10E
330
17
100
AcDbEntity
  8
DIMENSIONS
100
AcDbLine
 10
7.39488188976378
 20
2.733070866141732
 30
0.0
 11
7.39488188976378
 21
2.488976377952756
 31
0.0
  0
LINE
  5
10F
330
17
100
AcDbEntity
  8
DIMENSIONS
100
AcDbLine
 10
7.355511811023622
 20
2.496850393700787
 30
0.0
 11
7.434251968503937
 21
2.5755905511811017
 31
0.0
  0
LINE
  5
110
330
17
100
AcDbEntity
  8
DIMENSIONS
100
AcDbLine
 10
7.723228346456692
 20
2.733070866141732
 30
0.0
 11
7.723228346456692
 21
2.488976377952756
 31
0.0
  0
LINE
  5
111
330
17
100
AcDbEntity
  8
DIMENSIONS
100
AcDbLine
 10
7.683858267716535
 20
2.496850393700787
 30
0.0
 11
7.76259842519685
 21
2.5755905511811017
 31
0.0
  0
TEXT
  5
112
330
17
100
AcDbEntity
  8
TEXT
100
AcDbText
 10
4.888582677165354
 20
2.5677165354330707
 30
0.0
 40
0.035433070866141725
  1
3⅞"
 72
1
 11
4.888582677165354
 21
2.5677165354330707
 31
0.0
100
AcDbText
  0
TEXT
  5
113
330
17
100
AcDbEntity
  8
TEXT
100
AcDbText
 10
6.223622047244095
 20
2.5677165354330707
 30
0.0
 40
0.035433070866141725
  1
2'-4⅛"
 72
1
 11
6.223622047244095
 21
2.5677165354330707
 31
0.0
100
AcDbText
  0
TEXT
  5
114
330
17
100
AcDbEntity
  8
TEXT
100
AcDbText
 10
7.559055118110236
 20
2.5677165354330707
 30
0.0
 40
0.035433070866141725
  1
3⅞"
 72
1
 11
7.559055118110236
 21
2.5677165354330707
 31
0.0
100
AcDbText
  0
LINE
  5
115
330
17
100
AcDbEntity
  8
DIMENSIONS
100
AcDbLine
 10
4.665354330708661
 20
2.2999999999999994
 30
0.0
 11
7.7822834645669285
 21
2.2999999999999994
 31
0.0
  0
LINE
  5
116
330
17
100
AcDbEntity
  8
DIMENSIONS
100
AcDbLine
 10
4.724409448818897
 20
2.733070866141732
 30
0.0
 11
4.724409448818897
 21
2.252755905511811
 31
0.0
  0
LINE
  5
117
330
17
100
AcDbEntity
  8
DIMENSIONS
100
AcDbLine
 10
4.68503937007874
 20
2.260629921259842
 30
0.0
 11
4.763779527559055
 21
2.339370078740157
 31
0.0
  0
LINE
  5
118
330
17
100
AcDbEntity
  8
DIMENSIONS
100
AcDbLine
 10
7.723228346456692
 20
2.733070866141732
 30
0.0
 11
7.723228346456692
 21
2.252755905511811
 31
0.0
  0
LINE
  5
119
330
17
100
AcDbEntity
  8
DIMENSIONS
100
AcDbLine
 10
7.683858267716535
 20
2.260629921259842
 30
0.0
 11
7.76259842519685
 21
2.339370078740157
 31
0.0
  0
TEXT
  5
11A
330
17
100
AcDbEntity
  8
TEXT
100
AcDbText
 10
6.223622047244095
 20
2.3314960629921258
 30
0.0
 40
0.03968503937007874
  1
3'-0"
 72
1
 11
6.223622047244095
 21
2.3314960629921258
 31
0.0
100
AcDbText
  0
LINE
  5
11B
330
17
100
AcDbEntity
  8
DIMENSIONS
100
AcDbLine
 10
4.52755905511811
 20
2.8314960629921253
 30
0.0
 11
4.52755905511811
 21
5.902362204724409
 31
0.0
  0
LINE
  5
11C
330
17
100
AcDbEntity
  8
DIMENSIONS
100
AcDbLine
 10
4.68503937007874
 20
2.772440944881889
 30
0.0
 11
4.574803149606299
 21
2.772440944881889
 31
0.0
  0
LINE
  5
11D
330
17
100
AcDbEntity
  8
DIMENSIONS
100
AcDbLine
 10
4.488188976377953
 20
2.733070866141732
 30
0.0
 11
4.566929133858268
 21
2.8118110236220466
 31
0.0
  0
LINE
  5
11E
330
17
100
AcDbEntity
  8
DIMENSIONS
100
AcDbLine
 10
4.68503937007874
 20
5.961417322834645
 30
0.0
 11
4.574803149606299
 21
5.961417322834645
 31
0.0
  0
LINE
  5
11F
330
17
100
AcDbEntity
  8
DIMENSIONS
100
AcDbLine
 10
4.488188976377953
 20
5.922047244094488
 30
0.0
 11
4.566929133858268
 21
6.000787401574803
 31
0.0
  0
TEXT
  5
120
330
17
100
AcDbEntity
  8
TEXT
100
AcDbText
 10
4.496062992125984
 20
4.366929133858268
 30
0.0
 40
0.03401574803149606
  1
3'-2¼"
 50
90.0
 72
1
 11
4.496062992125984
 21
4.366929133858268
 31
0.0
100
AcDbText
  0
TEXT
  5
121
330
17
100
AcDbEntity
  8
TEXT
100
AcDbText
 10
8.346456692913385
 20
11.023622047244094
 30
0.0
 40
0.09070866141732283
  1
1 · THROUGH THE LEAF
 11
8.346456692913385
 21
11.023622047244094
 31
0.0
100
AcDbText
  0
LINE
  5
122
330
17
100
AcDbEntity
  8
GEOMETRY
100
AcDbLine
 10
8.346456692913385
 20
10.964566929133857
 30
0.0
 11
11.968503937007874
 21
10.964566929133857
 31
0.0
  0
TEXT
  5
123
330
17
100
AcDbEntity
  8
TEXT
100
AcDbText
 10
8.346456692913385
 20
10.834645669291337
 30
0.0
 40
0.048188976377952754
  1
SECTION · 1:2 · BLOCKBOARD, LIPPING, VENEER, MOULDING ON TOP
 11
8.346456692913385
 21
10.834645669291337
 31
0.0
100
AcDbText
  0
HATCH
  5
124
330
17
100
AcDbEntity
  8
HATCH
 62
7
100
AcDbHatch
 10
0.0
 20
0.0
 30
0.0
210
0.0
220
0.0
230
1.0
  2
ANSI31
 70
0
 71
0
 91
1
 92
3
 72
0
 73
1
 93
5
 10
8.661417322834646
 20
9.409448818897637
 10
12.204724409448819
 20
9.409448818897637
 10
12.204724409448819
 20
8.661417322834646
 10
8.661417322834646
 20
8.661417322834646
 10
8.661417322834646
 20
9.409448818897637
 97
0
 75
1
 76
1
 52
0.0
 41
0.015748031496062992
 77
0
 78
1
 53
45.0
 43
0.0
 44
0.0
 45
-0.0013919425
 46
0.0013919425
 79
0
 98
0
  0
LWPOLYLINE
  5
125
330
17
100
AcDbEntity
  8
GEOMETRY
100
AcDbPolyline
 90
5
 70
0
 10
8.661417322834646
 20
9.409448818897639
 10
12.204724409448819
 20
9.409448818897639
 10
12.204724409448819
 20
8.661417322834646
 10
8.661417322834646
 20
8.661417322834646
 10
8.661417322834646
 20
9.409448818897639
  0
LWPOLYLINE
  5
126
330
17
100
AcDbEntity
  8
GEOMETRY
100
AcDbPolyline
 90
5
 70
0
 10
8.661417322834646
 20
9.468503937007874
 10
12.204724409448819
 20
9.468503937007874
 10
12.204724409448819
 20
9.409448818897639
 10
8.661417322834646
 20
9.409448818897639
 10
8.661417322834646
 20
9.468503937007874
  0
LWPOLYLINE
  5
127
330
17
100
AcDbEntity
  8
GEOMETRY
100
AcDbPolyline
 90
5
 70
0
 10
8.661417322834646
 20
8.661417322834646
 10
12.204724409448819
 20
8.661417322834646
 10
12.204724409448819
 20
8.602362204724411
 10
8.661417322834646
 20
8.602362204724411
 10
8.661417322834646
 20
8.661417322834646
  0
LWPOLYLINE
  5
128
330
17
100
AcDbEntity
  8
GEOMETRY
100
AcDbPolyline
 90
5
 70
0
 10
8.4251968503937
 20
9.468503937007874
 10
8.661417322834646
 20
9.468503937007874
 10
8.661417322834646
 20
8.602362204724411
 10
8.4251968503937
 20
8.602362204724411
 10
8.4251968503937
 20
9.468503937007874
  0
POLYLINE
  5
129
330
17
100
AcDbEntity
  8
GEOMETRY
100
AcDb2dPolyline
 66
1
 10
0.0
 20
0.0
 30
0.0
 70
0
  0
VERTEX
  5
12A
330
129
100
AcDbEntity
  8
GEOMETRY
100
AcDbVertex
100
AcDb2dVertex
 10
10.039370078740157
 20
9.468503937007874
 30
0.0
 70
0
  0
VERTEX
  5
12B
330
129
100
AcDbEntity
  8
GEOMETRY
100
AcDbVertex
100
AcDb2dVertex
 10
10.039370078740157
 20
9.5748031496063
 30
0.0
 70
0
  0
SEQEND
  5
12C
330
129
100
AcDbEntity
  8
GEOMETRY
  0
SPLINE
  5
12D
330
17
100
AcDbEntity
  8
GEOMETRY
100
AcDbSpline
 70
0
 71
3
 72
8
 73
4
 74
0
 40
0.0
 40
0.0
 40
0.0
 40
0.0
 40
1.0
 40
1.0
 40
1.0
 40
1.0
 10
10.039370078740157
 20
9.5748031496063
 30
0.0
 10
10.118110236220472
 20
9.740157480314961
 30
0.0
 10
10.236220472440944
 20
9.822834645669293
 30
0.0
 10
10.393700787401574
 20
9.822834645669293
 30
0.0
  0
POLYLINE
  5
12E
330
17
100
AcDbEntity
  8
GEOMETRY
100
AcDb2dPolyline
 66
1
 10
0.0
 20
0.0
 30
0.0
 70
0
  0
VERTEX
  5
12F
330
12E
100
AcDbEntity
  8
GEOMETRY
100
AcDbVertex
100
AcDb2dVertex
 10
10.393700787401574
 20
9.822834645669293
 30
0.0
 70
0
  0
VERTEX
  5
130
330
12E
100
AcDbEntity
  8
GEOMETRY
100
AcDbVertex
100
AcDb2dVertex
 10
10.61023622047244
 20
9.822834645669293
 30
0.0
 70
0
  0
SEQEND
  5
131
330
12E
100
AcDbEntity
  8
GEOMETRY
  0
SPLINE
  5
132
330
17
100
AcDbEntity
  8
GEOMETRY
100
AcDbSpline
 70
0
 71
3
 72
8
 73
4
 74
0
 40
0.0
 40
0.0
 40
0.0
 40
0.0
 40
1.0
 40
1.0
 40
1.0
 40
1.0
 10
10.61023622047244
 20
9.822834645669293
 30
0.0
 10
10.76771653543307
 20
9.822834645669293
 30
0.0
 10
10.846456692913385
 20
9.76968503937008
 30
0.0
 10
10.846456692913385
 20
9.663385826771654
 30
0.0
  0
POLYLINE
  5
133
330
17
100
AcDbEntity
  8
GEOMETRY
100
AcDb2dPolyline
 66
1
 10
0.0
 20
0.0
 30
0.0
 70
0
  0
VERTEX
  5
134
330
133
100
AcDbEntity
  8
GEOMETRY
100
AcDbVertex
100
AcDb2dVertex
 10
10.846456692913385
 20
9.663385826771654
 30
0.0
 70
0
  0
VERTEX
  5
135
330
133
100
AcDbEntity
  8
GEOMETRY
100
AcDbVertex
100
AcDb2dVertex
 10
10.9251968503937
 20
9.539370078740157
 30
0.0
 70
0
  0
VERTEX
  5
136
330
133
100
AcDbEntity
  8
GEOMETRY
100
AcDbVertex
100
AcDb2dVertex
 10
10.9251968503937
 20
9.468503937007874
 30
0.0
 70
0
  0
VERTEX
  5
137
330
133
100
AcDbEntity
  8
GEOMETRY
100
AcDbVertex
100
AcDb2dVertex
 10
10.039370078740157
 20
9.468503937007874
 30
0.0
 70
0
  0
SEQEND
  5
138
330
133
100
AcDbEntity
  8
GEOMETRY
  0
LINE
  5
139
330
17
100
AcDbEntity
  8
DIMENSIONS
100
AcDbLine
 10
8.366141732283465
 20
8.228346456692913
 30
0.0
 11
10.984251968503937
 21
8.228346456692913
 31
0.0
  0
LINE
  5
13A
330
17
100
AcDbEntity
  8
DIMENSIONS
100
AcDbLine
 10
8.4251968503937
 20
8.543307086614172
 30
0.0
 11
8.4251968503937
 21
8.181102362204724
 31
0.0
  0
LINE
  5
13B
330
17
100
AcDbEntity
  8
DIMENSIONS
100
AcDbLine
 10
8.385826771653543
 20
8.188976377952756
 30
0.0
 11
8.464566929133857
 21
8.26771653543307
 31
0.0
  0
LINE
  5
13C
330
17
100
AcDbEntity
  8
DIMENSIONS
100
AcDbLine
 10
8.661417322834646
 20
8.543307086614172
 30
0.0
 11
8.661417322834646
 21
8.181102362204724
 31
0.0
  0
LINE
  5
13D
330
17
100
AcDbEntity
  8
DIMENSIONS
100
AcDbLine
 10
8.622047244094489
 20
8.188976377952756
 30
0.0
 11
8.700787401574804
 21
8.26771653543307
 31
0.0
  0
LINE
  5
13E
330
17
100
AcDbEntity
  8
DIMENSIONS
100
AcDbLine
 10
10.039370078740157
 20
8.543307086614172
 30
0.0
 11
10.039370078740157
 21
8.181102362204724
 31
0.0
  0
LINE
  5
13F
330
17
100
AcDbEntity
  8
DIMENSIONS
100
AcDbLine
 10
10.0
 20
8.188976377952756
 30
0.0
 11
10.078740157480315
 21
8.26771653543307
 31
0.0
  0
LINE
  5
140
330
17
100
AcDbEntity
  8
DIMENSIONS
100
AcDbLine
 10
10.9251968503937
 20
8.543307086614172
 30
0.0
 11
10.9251968503937
 21
8.181102362204724
 31
0.0
  0
LINE
  5
141
330
17
100
AcDbEntity
  8
DIMENSIONS
100
AcDbLine
 10
10.885826771653543
 20
8.188976377952756
 30
0.0
 11
10.964566929133857
 21
8.26771653543307
 31
0.0
  0
TEXT
  5
142
330
17
100
AcDbEntity
  8
TEXT
100
AcDbText
 10
8.543307086614172
 20
8.259842519685039
 30
0.0
 40
0.03401574803149606
  1
0½"
 72
1
 11
8.543307086614172
 21
8.259842519685039
 31
0.0
100
AcDbText
  0
TEXT
  5
143
330
17
100
AcDbEntity
  8
TEXT
100
AcDbText
 10
9.350393700787402
 20
8.259842519685039
 30
0.0
 40
0.03401574803149606
  1
2¾"
 72
1
 11
9.350393700787402
 21
8.259842519685039
 31
0.0
100
AcDbText
  0
TEXT
  5
144
330
17
100
AcDbEntity
  8
TEXT
100
AcDbText
 10
10.48228346456693
 20
8.259842519685039
 30
0.0
 40
0.03401574803149606
  1
1¾"
 72
1
 11
10.48228346456693
 21
8.259842519685039
 31
0.0
100
AcDbText
  0
LINE
  5
145
330
17
100
AcDbEntity
  8
DIMENSIONS
100
AcDbLine
 10
8.188976377952756
 20
9.881889763779528
 30
0.0
 11
8.188976377952756
 21
8.543307086614172
 31
0.0
  0
LINE
  5
146
330
17
100
AcDbEntity
  8
DIMENSIONS
100
AcDbLine
 10
8.385826771653543
 20
9.82283464566929
 30
0.0
 11
8.236220472440944
 21
9.82283464566929
 31
0.0
  0
LINE
  5
147
330
17
100
AcDbEntity
  8
DIMENSIONS
100
AcDbLine
 10
8.149606299212598
 20
9.783464566929133
 30
0.0
 11
8.228346456692913
 21
9.862204724409448
 31
0.0
  0
LINE
  5
148
330
17
100
AcDbEntity
  8
DIMENSIONS
100
AcDbLine
 10
8.385826771653543
 20
9.468503937007874
 30
0.0
 11
8.236220472440944
 21
9.468503937007874
 31
0.0
  0
LINE
  5
149
330
17
100
AcDbEntity
  8
DIMENSIONS
100
AcDbLine
 10
8.149606299212598
 20
9.429133858267717
 30
0.0
 11
8.228346456692913
 21
9.507874015748031
 31
0.0
  0
LINE
  5
14A
330
17
100
AcDbEntity
  8
DIMENSIONS
100
AcDbLine
 10
8.385826771653543
 20
8.60236220472441
 30
0.0
 11
8.236220472440944
 21
8.60236220472441
 31
0.0
  0
LINE
  5
14B
330
17
100
AcDbEntity
  8
DIMENSIONS
100
AcDbLine
 10
8.149606299212598
 20
8.562992125984252
 30
0.0
 11
8.228346456692913
 21
8.641732283464567
 31
0.0
  0
TEXT
  5
14C
330
17
100
AcDbEntity
  8
TEXT
100
AcDbText
 10
8.15748031496063
 20
9.645669291338583
 30
0.0
 40
0.03401574803149606
  1
0¾"
 50
90.0
 72
1
 11
8.15748031496063
 21
9.645669291338583
 31
0.0
100
AcDbText
  0
TEXT
  5
14D
330
17
100
AcDbEntity
  8
TEXT
100
AcDbText
 10
8.15748031496063
 20
9.03543307086614
 30
0.0
 40
0.03401574803149606
  1
1¾"
 50
90.0
 72
1
 11
8.15748031496063
 21
9.03543307086614
 31
0.0
100
AcDbText
  0
TEXT
  5
14E
330
17
100
AcDbEntity
  8
TEXT
100
AcDbText
 10
8.346456692913385
 20
7.913385826771654
 30
0.0
 40
0.09070866141732283
  1
2 · CORNER BLOCK
 11
8.346456692913385
 21
7.913385826771654
 31
0.0
100
AcDbText
  0
LINE
  5
14F
330
17
100
AcDbEntity
  8
GEOMETRY
100
AcDbLine
 10
8.346456692913385
 20
7.854330708661418
 30
0.0
 11
11.968503937007874
 21
7.854330708661418
 31
0.0
  0
TEXT
  5
150
330
17
100
AcDbEntity
  8
TEXT
100
AcDbText
 10
8.346456692913385
 20
7.724409448818897
 30
0.0
 40
0.048188976377952754
  1
ELEVATION AND SECTION · 1:2
 11
8.346456692913385
 21
7.724409448818897
 31
0.0
100
AcDbText
  0
LWPOLYLINE
  5
151
330
17
100
AcDbEntity
  8
GEOMETRY
100
AcDbPolyline
 90
5
 70
0
 10
9.133858267716535
 20
7.125984251968505
 10
10.275590551181102
 20
7.125984251968505
 10
10.275590551181102
 20
5.984251968503938
 10
9.133858267716535
 20
5.984251968503938
 10
9.133858267716535
 20
7.125984251968505
  0
LWPOLYLINE
  5
152
330
17
100
AcDbEntity
  8
GEOMETRY
100
AcDbPolyline
 90
5
 70
0
 10
9.350393700787402
 20
6.909448818897639
 10
10.059055118110235
 20
6.909448818897639
 10
10.059055118110235
 20
6.200787401574804
 10
9.350393700787402
 20
6.200787401574804
 10
9.350393700787402
 20
6.909448818897639
  0
LWPOLYLINE
  5
153
330
17
100
AcDbEntity
  8
GEOMETRY
100
AcDbPolyline
 90
5
 70
0
 10
11.062992125984252
 20
7.125984251968505
 10
11.496062992125983
 20
7.125984251968505
 10
11.496062992125983
 20
5.984251968503938
 10
11.062992125984252
 20
5.984251968503938
 10
11.062992125984252
 20
7.125984251968505
  0
LINE
  5
154
330
17
100
AcDbEntity
  8
GEOMETRY
100
AcDbLine
 10
11.062992125984252
 20
7.125984251968504
 30
0.0
 11
11.062992125984252
 21
5.984251968503937
 31
0.0
  0
LINE
  5
155
330
17
100
AcDbEntity
  8
DIMENSIONS
100
AcDbLine
 10
9.0748031496063
 20
5.787401574803149
 30
0.0
 11
10.334645669291339
 21
5.787401574803149
 31
0.0
  0
LINE
  5
156
330
17
100
AcDbEntity
  8
DIMENSIONS
100
AcDbLine
 10
9.133858267716535
 20
5.94488188976378
 30
0.0
 11
9.133858267716535
 21
5.740157480314961
 31
0.0
  0
LINE
  5
157
330
17
100
AcDbEntity
  8
DIMENSIONS
100
AcDbLine
 10
9.094488188976378
 20
5.748031496062992
 30
0.0
 11
9.173228346456693
 21
5.826771653543307
 31
0.0
  0
LINE
  5
158
330
17
100
AcDbEntity
  8
DIMENSIONS
100
AcDbLine
 10
10.275590551181102
 20
5.94488188976378
 30
0.0
 11
10.275590551181102
 21
5.740157480314961
 31
0.0
  0
LINE
  5
159
330
17
100
AcDbEntity
  8
DIMENSIONS
100
AcDbLine
 10
10.236220472440944
 20
5.748031496062992
 30
0.0
 11
10.31496062992126
 21
5.826771653543307
 31
0.0
  0
TEXT
  5
15A
330
17
100
AcDbEntity
  8
TEXT
100
AcDbText
 10
9.704724409448819
 20
5.818897637795276
 30
0.0
 40
0.03401574803149606
  1
2¼"
 72
1
 11
9.704724409448819
 21
5.818897637795276
 31
0.0
100
AcDbText
  0
LINE
  5
15B
330
17
100
AcDbEntity
  8
DIMENSIONS
100
AcDbLine
 10
11.003937007874015
 20
5.787401574803149
 30
0.0
 11
11.55511811023622
 21
5.787401574803149
 31
0.0
  0
LINE
  5
15C
330
17
100
AcDbEntity
  8
DIMENSIONS
100
AcDbLine
 10
11.062992125984252
 20
5.94488188976378
 30
0.0
 11
11.062992125984252
 21
5.740157480314961
 31
0.0
  0
LINE
  5
15D
330
17
100
AcDbEntity
  8
DIMENSIONS
100
AcDbLine
 10
11.023622047244094
 20
5.748031496062992
 30
0.0
 11
11.10236220472441
 21
5.826771653543307
 31
0.0
  0
LINE
  5
15E
330
17
100
AcDbEntity
  8
DIMENSIONS
100
AcDbLine
 10
11.496062992125983
 20
5.94488188976378
 30
0.0
 11
11.496062992125983
 21
5.740157480314961
 31
0.0
  0
LINE
  5
15F
330
17
100
AcDbEntity
  8
DIMENSIONS
100
AcDbLine
 10
11.456692913385826
 20
5.748031496062992
 30
0.0
 11
11.53543307086614
 21
5.826771653543307
 31
0.0
  0
TEXT
  5
160
330
17
100
AcDbEntity
  8
TEXT
100
AcDbText
 10
11.279527559055119
 20
5.818897637795276
 30
0.0
 40
0.03401574803149606
  1
0⅞"
 72
1
 11
11.279527559055119
 21
5.818897637795276
 31
0.0
100
AcDbText
  0
TEXT
  5
161
330
17
100
AcDbEntity
  8
TEXT
100
AcDbText
 10
12.204724409448819
 20
11.023622047244094
 30
0.0
 40
0.09070866141732283
  1
WHY THIS SHEET
 11
12.204724409448819
 21
11.023622047244094
 31
0.0
100
AcDbText
  0
LINE
  5
162
330
17
100
AcDbEntity
  8
GEOMETRY
100
AcDbLine
 10
12.204724409448819
 20
10.964566929133857
 30
0.0
 11
16.141732283464567
 21
10.964566929133857
 31
0.0
  0
TEXT
  5
163
330
17
100
AcDbEntity
  8
TEXT
100
AcDbText
 10
12.204724409448819
 20
10.834645669291337
 30
0.0
 40
0.048188976377952754
  1
AST-DR-001 AND -009 CANNOT BE MADE IN VENEER
 11
12.204724409448819
 21
10.834645669291337
 31
0.0
100
AcDbText
  0
TEXT
  5
164
330
17
100
AcDbEntity
  8
TEXT
100
AcDbText
 10
12.204724409448819
 20
10.511811023622046
 30
0.0
 40
0.048188976377952754
  1
The other door sheets draw the leaf as solid timber: the panel
 11
12.204724409448819
 21
10.511811023622046
 31
0.0
100
AcDbText
  0
TEXT
  5
165
330
17
100
AcDbEntity
  8
TEXT
100
AcDbText
 10
12.204724409448819
 20
10.338582677165356
 30
0.0
 40
0.048188976377952754
  1
fields are sunk into it, the shaped bead is carved, and the four
 11
12.204724409448819
 21
10.338582677165356
 31
0.0
100
AcDbText
  0
TEXT
  5
166
330
17
100
AcDbEntity
  8
TEXT
100
AcDbText
 10
12.204724409448819
 20
10.165354330708661
 30
0.0
 40
0.048188976377952754
  1
roundels are carved bosses.
 11
12.204724409448819
 21
10.165354330708661
 31
0.0
100
AcDbText
  0
TEXT
  5
167
330
17
100
AcDbEntity
  8
TEXT
100
AcDbText
 10
12.204724409448819
 20
9.818897637795276
 30
0.0
 40
0.048188976377952754
  1
A veneered door is a blockboard core with a face 0.6 mm thick.
 11
12.204724409448819
 21
9.818897637795276
 31
0.0
100
AcDbText
  0
TEXT
  5
168
330
17
100
AcDbEntity
  8
TEXT
100
AcDbText
 10
12.204724409448819
 20
9.645669291338583
 30
0.0
 40
0.048188976377952754
  1
Cut a sunk field or a carved boss into that and the cutter goes
 11
12.204724409448819
 21
9.645669291338583
 31
0.0
100
AcDbText
  0
TEXT
  5
169
330
17
100
AcDbEntity
  8
TEXT
100
AcDbText
 10
12.204724409448819
 20
9.472440944881889
 30
0.0
 40
0.048188976377952754
  1
straight through the veneer into the core, which then shows.
 11
12.204724409448819
 21
9.472440944881889
 31
0.0
100
AcDbText
  0
TEXT
  5
16A
330
17
100
AcDbEntity
  8
TEXT
100
AcDbText
 10
12.204724409448819
 20
9.299212598425196
 30
0.0
 40
0.048188976377952754
  1
There is no way to CNC it and no way to hand-carve it.
 11
12.204724409448819
 21
9.299212598425196
 31
0.0
100
AcDbText
  0
TEXT
  5
16B
330
17
100
AcDbEntity
  8
TEXT
100
AcDbText
 10
12.204724409448819
 20
8.952755905511811
 30
0.0
 40
0.048188976377952754
  1
So on this sheet nothing is cut into the leaf. The face stays
 11
12.204724409448819
 21
8.952755905511811
 31
0.0
100
AcDbText
  0
TEXT
  5
16C
330
17
100
AcDbEntity
  8
TEXT
100
AcDbText
 10
12.204724409448819
 20
8.779527559055119
 30
0.0
 40
0.048188976377952754
  1
flat and veneered, and every line is a moulding planted on top:
 11
12.204724409448819
 21
8.779527559055119
 31
0.0
100
AcDbText
  0
TEXT
  5
16D
330
17
100
AcDbEntity
  8
TEXT
100
AcDbText
 10
12.204724409448819
 20
8.606299212598424
 30
0.0
 40
0.048188976377952754
  1
mitred at the corners, glued and pinned, with a small applied
 11
12.204724409448819
 21
8.606299212598424
 31
0.0
100
AcDbText
  0
TEXT
  5
16E
330
17
100
AcDbEntity
  8
TEXT
100
AcDbText
 10
12.204724409448819
 20
8.433070866141732
 30
0.0
 40
0.048188976377952754
  1
block where each carved roundel was.
 11
12.204724409448819
 21
8.433070866141732
 31
0.0
100
AcDbText
  0
TEXT
  5
16F
330
17
100
AcDbEntity
  8
TEXT
100
AcDbText
 10
12.204724409448819
 20
8.086614173228346
 30
0.0
 40
0.048188976377952754
  1
The panel layout does not change — the upper opening is still
 11
12.204724409448819
 21
8.086614173228346
 31
0.0
100
AcDbText
  0
TEXT
  5
170
330
17
100
AcDbEntity
  8
TEXT
100
AcDbText
 10
12.204724409448819
 20
7.913385826771654
 30
0.0
 40
0.048188976377952754
  1
two panel squares and the lower one is one — so from a step
 11
12.204724409448819
 21
7.913385826771654
 31
0.0
100
AcDbText
  0
TEXT
  5
171
330
17
100
AcDbEntity
  8
TEXT
100
AcDbText
 10
12.204724409448819
 20
7.74015748031496
 30
0.0
 40
0.048188976377952754
  1
away it reads as the same door.
 11
12.204724409448819
 21
7.74015748031496
 31
0.0
100
AcDbText
  0
TEXT
  5
172
330
17
100
AcDbEntity
  8
TEXT
100
AcDbText
 10
12.204724409448819
 20
6.574803149606299
 30
0.0
 40
0.09070866141732283
  1
RELIEF
 11
12.204724409448819
 21
6.574803149606299
 31
0.0
100
AcDbText
  0
LINE
  5
173
330
17
100
AcDbEntity
  8
GEOMETRY
100
AcDbLine
 10
12.204724409448819
 20
6.515748031496063
 30
0.0
 11
16.141732283464567
 21
6.515748031496063
 31
0.0
  0
TEXT
  5
174
330
17
100
AcDbEntity
  8
TEXT
100
AcDbText
 10
12.204724409448819
 20
6.385826771653543
 30
0.0
 40
0.048188976377952754
  1
FACE OF THE VENEER = DATUM 0 · EVERYTHING STANDS OUT, NOTHING GOES IN
 11
12.204724409448819
 21
6.385826771653543
 31
0.0
100
AcDbText
  0
TEXT
  5
175
330
17
100
AcDbEntity
  8
TEXT
100
AcDbText
 10
12.204724409448819
 20
6.062992125984252
 30
0.0
 40
0.04677165354330708
  1
Blockboard core
 11
12.204724409448819
 21
6.062992125984252
 31
0.0
100
AcDbText
  0
TEXT
  5
176
330
17
100
AcDbEntity
  8
TEXT
100
AcDbText
 10
16.141732283464567
 20
6.062992125984252
 30
0.0
 40
0.04677165354330708
  1
38 THICK
 72
2
 11
16.141732283464567
 21
6.062992125984252
 31
0.0
100
AcDbText
  0
TEXT
  5
177
330
17
100
AcDbEntity
  8
TEXT
100
AcDbText
 10
12.204724409448819
 20
5.889763779527558
 30
0.0
 40
0.04677165354330708
  1
Veneer, both faces
 11
12.204724409448819
 21
5.889763779527558
 31
0.0
100
AcDbText
  0
TEXT
  5
178
330
17
100
AcDbEntity
  8
TEXT
100
AcDbText
 10
16.141732283464567
 20
5.889763779527558
 30
0.0
 40
0.04677165354330708
  1
0.6 EACH
 72
2
 11
16.141732283464567
 21
5.889763779527558
 31
0.0
100
AcDbText
  0
TEXT
  5
179
330
17
100
AcDbEntity
  8
TEXT
100
AcDbText
 10
12.204724409448819
 20
5.716535433070866
 30
0.0
 40
0.04677165354330708
  1
Solid lipping, all four edges
 11
12.204724409448819
 21
5.716535433070866
 31
0.0
100
AcDbText
  0
TEXT
  5
17A
330
17
100
AcDbEntity
  8
TEXT
100
AcDbText
 10
16.141732283464567
 20
5.716535433070866
 30
0.0
 40
0.04677165354330708
  1
12 WIDE
 72
2
 11
16.141732283464567
 21
5.716535433070866
 31
0.0
100
AcDbText
  0
TEXT
  5
17B
330
17
100
AcDbEntity
  8
TEXT
100
AcDbText
 10
12.204724409448819
 20
5.543307086614174
 30
0.0
 40
0.04677165354330708
  1
Leaf overall
 11
12.204724409448819
 21
5.543307086614174
 31
0.0
100
AcDbText
  0
TEXT
  5
17C
330
17
100
AcDbEntity
  8
TEXT
100
AcDbText
 10
16.141732283464567
 20
5.543307086614174
 30
0.0
 40
0.04677165354330708
  1
45 THICK
 72
2
 11
16.141732283464567
 21
5.543307086614174
 31
0.0
100
AcDbText
  0
TEXT
  5
17D
330
17
100
AcDbEntity
  8
TEXT
100
AcDbText
 10
12.204724409448819
 20
5.3700787401574805
 30
0.0
 40
0.04677165354330708
  1
Applied panel moulding
 11
12.204724409448819
 21
5.3700787401574805
 31
0.0
100
AcDbText
  0
TEXT
  5
17E
330
17
100
AcDbEntity
  8
TEXT
100
AcDbText
 10
16.141732283464567
 20
5.3700787401574805
 30
0.0
 40
0.04677165354330708
  1
45 WIDE · 18 OUT
 72
2
 11
16.141732283464567
 21
5.3700787401574805
 31
0.0
100
AcDbText
  0
TEXT
  5
17F
330
17
100
AcDbEntity
  8
TEXT
100
AcDbText
 10
12.204724409448819
 20
5.196850393700787
 30
0.0
 40
0.04677165354330708
  1
Applied corner block
 11
12.204724409448819
 21
5.196850393700787
 31
0.0
100
AcDbText
  0
TEXT
  5
180
330
17
100
AcDbEntity
  8
TEXT
100
AcDbText
 10
16.141732283464567
 20
5.196850393700787
 30
0.0
 40
0.04677165354330708
  1
58 SQ · 22 OUT
 72
2
 11
16.141732283464567
 21
5.196850393700787
 31
0.0
100
AcDbText
  0
TEXT
  5
181
330
17
100
AcDbEntity
  8
TEXT
100
AcDbText
 10
12.204724409448819
 20
5.0236220472440944
 30
0.0
 40
0.04677165354330708
  1
Mitres at the moulding corners
 11
12.204724409448819
 21
5.0236220472440944
 31
0.0
100
AcDbText
  0
TEXT
  5
182
330
17
100
AcDbEntity
  8
TEXT
100
AcDbText
 10
16.141732283464567
 20
5.0236220472440944
 30
0.0
 40
0.04677165354330708
  1
CUT, NOT SCRIBED
 72
2
 11
16.141732283464567
 21
5.0236220472440944
 31
0.0
100
AcDbText
  0
TEXT
  5
183
330
17
100
AcDbEntity
  8
TEXT
100
AcDbText
 10
12.204724409448819
 20
4.850393700787401
 30
0.0
 40
0.04677165354330708
  1
Anything cut INTO the face
 11
12.204724409448819
 21
4.850393700787401
 31
0.0
100
AcDbText
  0
TEXT
  5
184
330
17
100
AcDbEntity
  8
TEXT
100
AcDbText
 10
16.141732283464567
 20
4.850393700787401
 30
0.0
 40
0.04677165354330708
  1
NONE
 72
2
 11
16.141732283464567
 21
4.850393700787401
 31
0.0
100
AcDbText
  0
TEXT
  5
185
330
17
100
AcDbEntity
  8
TEXT
100
AcDbText
 10
8.346456692913385
 20
5.787401574803149
 30
0.0
 40
0.09070866141732283
  1
NOTES
 11
8.346456692913385
 21
5.787401574803149
 31
0.0
100
AcDbText
  0
LINE
  5
186
330
17
100
AcDbEntity
  8
GEOMETRY
100
AcDbLine
 10
8.346456692913385
 20
5.728346456692913
 30
0.0
 11
11.968503937007874
 21
5.728346456692913
 31
0.0
  0
TEXT
  5
187
330
17
100
AcDbEntity
  8
TEXT
100
AcDbText
 10
8.346456692913385
 20
5.5984251968503935
 30
0.0
 40
0.048188976377952754
  1
REVISION 1
 11
8.346456692913385
 21
5.5984251968503935
 31
0.0
100
AcDbText
  0
TEXT
  5
188
330
17
100
AcDbEntity
  8
TEXT
100
AcDbText
 10
8.346456692913385
 20
5.275590551181102
 30
0.0
 40
0.04677165354330708
  1
Leaf 7 ft 7 in tall, 45 thick. Widths 2 ft 6 in and 3 ft 0 in.
 11
8.346456692913385
 21
5.275590551181102
 31
0.0
100
AcDbText
  0
TEXT
  5
189
330
17
100
AcDbEntity
  8
TEXT
100
AcDbText
 10
8.346456692913385
 20
5.102362204724409
 30
0.0
 40
0.04677165354330708
  1
Moulding margin 3⅞ in from every leaf edge, as the old stile.
 11
8.346456692913385
 21
5.102362204724409
 31
0.0
100
AcDbText
  0
TEXT
  5
18A
330
17
100
AcDbEntity
  8
TEXT
100
AcDbText
 10
8.346456692913385
 20
4.929133858267716
 30
0.0
 40
0.04677165354330708
  1
Bottom rail 11⅝ in, lock rail 9 in, top 3⅞ in.
 11
8.346456692913385
 21
4.929133858267716
 31
0.0
100
AcDbText
  0
TEXT
  5
18B
330
17
100
AcDbEntity
  8
TEXT
100
AcDbText
 10
8.346456692913385
 20
4.755905511811024
 30
0.0
 40
0.04677165354330708
  1
Both widths share the same horizontal lines, so the three doors
 11
8.346456692913385
 21
4.755905511811024
 31
0.0
100
AcDbText
  0
TEXT
  5
18C
330
17
100
AcDbEntity
  8
TEXT
100
AcDbText
 10
8.346456692913385
 20
4.582677165354331
 30
0.0
 40
0.04677165354330708
  1
line up with each other; only the panel width changes.
 11
8.346456692913385
 21
4.582677165354331
 31
0.0
100
AcDbText
  0
TEXT
  5
18D
330
17
100
AcDbEntity
  8
TEXT
100
AcDbText
 10
8.346456692913385
 20
4.409448818897638
 30
0.0
 40
0.04677165354330708
  1
Lipping is solid teak so the edges can be cleaned up and the
 11
8.346456692913385
 21
4.409448818897638
 31
0.0
100
AcDbText
  0
TEXT
  5
18E
330
17
100
AcDbEntity
  8
TEXT
100
AcDbText
 10
8.346456692913385
 20
4.2362204724409445
 30
0.0
 40
0.04677165354330708
  1
hinges and lock screwed into wood, not into board.
 11
8.346456692913385
 21
4.2362204724409445
 31
0.0
100
AcDbText
  0
TEXT
  5
18F
330
17
100
AcDbEntity
  8
TEXT
100
AcDbText
 10
8.346456692913385
 20
4.062992125984252
 30
0.0
 40
0.04677165354330708
  1
Veneer both faces of the core, and balance it: the same
 11
8.346456692913385
 21
4.062992125984252
 31
0.0
100
AcDbText
  0
TEXT
  5
190
330
17
100
AcDbEntity
  8
TEXT
100
AcDbText
 10
8.346456692913385
 20
3.8897637795275593
 30
0.0
 40
0.04677165354330708
  1
thickness on the back or the leaf will bow.
 11
8.346456692913385
 21
3.8897637795275593
 31
0.0
100
AcDbText
  0
TEXT
  5
191
330
17
100
AcDbEntity
  8
TEXT
100
AcDbText
 10
8.346456692913385
 20
3.716535433070866
 30
0.0
 40
0.04677165354330708
  1
Moulding and blocks in solid teak, veneered faces polished to
 11
8.346456692913385
 21
3.716535433070866
 31
0.0
100
AcDbText
  0
TEXT
  5
192
330
17
100
AcDbEntity
  8
TEXT
100
AcDbText
 10
8.346456692913385
 20
3.543307086614173
 30
0.0
 40
0.04677165354330708
  1
match — the moulding is small enough to take solid.
 11
8.346456692913385
 21
3.543307086614173
 31
0.0
100
AcDbText
  0
TEXT
  5
193
330
17
100
AcDbEntity
  8
TEXT
100
AcDbText
 10
8.346456692913385
 20
3.37007874015748
 30
0.0
 40
0.04677165354330708
  1
OPEN: mitre the moulding at the blocks, or butt it into them?
 11
8.346456692913385
 21
3.37007874015748
 31
0.0
100
AcDbText
  0
TEXT
  5
194
330
17
100
AcDbEntity
  8
TEXT
100
AcDbText
 10
8.346456692913385
 20
3.196850393700787
 30
0.0
 40
0.04677165354330708
  1
Butting is easier and is what the casing already does.
 11
8.346456692913385
 21
3.196850393700787
 31
0.0
100
AcDbText
  0
LWPOLYLINE
  5
195
330
17
100
AcDbEntity
  8
GEOMETRY
100
AcDbPolyline
 90
5
 70
0
 10
11.811023622047244
 20
2.283464566929135
 10
16.22047244094488
 20
2.283464566929135
 10
16.22047244094488
 20
0.31496062992126106
 10
11.811023622047244
 20
0.31496062992126106
 10
11.811023622047244
 20
2.283464566929135
  0
LINE
  5
196
330
17
100
AcDbEntity
  8
GEOMETRY
100
AcDbLine
 10
11.811023622047244
 20
1.7322834645669292
 30
0.0
 11
16.22047244094488
 21
1.7322834645669292
 31
0.0
  0
LINE
  5
197
330
17
100
AcDbEntity
  8
GEOMETRY
100
AcDbLine
 10
11.811023622047244
 20
1.1023622047244095
 30
0.0
 11
16.22047244094488
 21
1.1023622047244095
 31
0.0
  0
LINE
  5
198
330
17
100
AcDbEntity
  8
GEOMETRY
100
AcDbLine
 10
11.811023622047244
 20
0.7086614173228346
 30
0.0
 11
16.22047244094488
 21
0.7086614173228346
 31
0.0
  0
LINE
  5
199
330
17
100
AcDbEntity
  8
GEOMETRY
100
AcDbLine
 10
14.015748031496063
 20
1.1023622047244095
 30
0.0
 11
14.015748031496063
 21
0.31496062992125984
 31
0.0
  0
TEXT
  5
19A
330
17
100
AcDbEntity
  8
TEXT
100
AcDbText
 10
11.929133858267717
 20
2.02755905511811
 30
0.0
 40
0.09637795275590551
  1
A STUDY IN TEAK
 11
11.929133858267717
 21
2.02755905511811
 31
0.0
100
AcDbText
  0
TEXT
  5
19B
330
17
100
AcDbEntity
  8
TEXT
100
AcDbText
 10
11.929133858267717
 20
1.8503937007874016
 30
0.0
 40
0.05385826771653543
  1
Particulars of the room
 11
11.929133858267717
 21
1.8503937007874016
 31
0.0
100
AcDbText
  0
TEXT
  5
19C
330
17
100
AcDbEntity
  8
TEXT
100
AcDbText
 10
11.929133858267717
 20
1.4763779527559056
 30
0.0
 40
0.09637795275590551
  1
DOORS — AS MADE IN VENEER
 11
11.929133858267717
 21
1.4763779527559056
 31
0.0
100
AcDbText
  0
TEXT
  5
19D
330
17
100
AcDbEntity
  8
TEXT
100
AcDbText
 10
11.929133858267717
 20
1.2598425196850394
 30
0.0
 40
0.05669291338582677
  1
Applied mouldings · No engraving · Both widths
 11
11.929133858267717
 21
1.2598425196850394
 31
0.0
100
AcDbText
  0
TEXT
  5
19E
330
17
100
AcDbEntity
  8
TEXT
100
AcDbText
 10
11.929133858267717
 20
0.9448818897637795
 30
0.0
 40
0.04251968503937008
  1
SCALE
 11
11.929133858267717
 21
0.9448818897637795
 31
0.0
100
AcDbText
  0
TEXT
  5
19F
330
17
100
AcDbEntity
  8
TEXT
100
AcDbText
 10
11.929133858267717
 20
0.7874015748031495
 30
0.0
 40
0.05952755905511811
  1
AS NOTED @ A3
 11
11.929133858267717
 21
0.7874015748031495
 31
0.0
100
AcDbText
  0
TEXT
  5
1A0
330
17
100
AcDbEntity
  8
TEXT
100
AcDbText
 10
14.133858267716535
 20
0.9448818897637795
 30
0.0
 40
0.04251968503937008
  1
DATE
 11
14.133858267716535
 21
0.9448818897637795
 31
0.0
100
AcDbText
  0
TEXT
  5
1A1
330
17
100
AcDbEntity
  8
TEXT
100
AcDbText
 10
14.133858267716535
 20
0.7874015748031495
 30
0.0
 40
0.05952755905511811
  1
23.09.2026
 11
14.133858267716535
 21
0.7874015748031495
 31
0.0
100
AcDbText
  0
TEXT
  5
1A2
330
17
100
AcDbEntity
  8
TEXT
100
AcDbText
 10
11.929133858267717
 20
0.5511811023622047
 30
0.0
 40
0.04251968503937008
  1
REV
 11
11.929133858267717
 21
0.5511811023622047
 31
0.0
100
AcDbText
  0
TEXT
  5
1A3
330
17
100
AcDbEntity
  8
TEXT
100
AcDbText
 10
11.929133858267717
 20
0.39370078740157477
 30
0.0
 40
0.051023622047244095
  1
1 — the buildable version: applied mouldings on a flat veneered leaf
 11
11.929133858267717
 21
0.39370078740157477
 31
0.0
100
AcDbText
  0
TEXT
  5
1A4
330
17
100
AcDbEntity
  8
TEXT
100
AcDbText
 10
14.133858267716535
 20
0.5511811023622047
 30
0.0
 40
0.04251968503937008
  1
DWG
 11
14.133858267716535
 21
0.5511811023622047
 31
0.0
100
AcDbText
  0
TEXT
  5
1A5
330
17
100
AcDbEntity
  8
TEXT
100
AcDbText
 10
14.133858267716535
 20
0.39370078740157477
 30
0.0
 40
0.05952755905511811
  1
AST-DR-015
 11
14.133858267716535
 21
0.39370078740157477
 31
0.0
100
AcDbText
  0
ENDSEC
  0
SECTION
  2
OBJECTS
  0
DICTIONARY
  5
A
330
0
100
AcDbDictionary
281
1
  3
ACAD_COLOR
350
B
  3
ACAD_GROUP
350
C
  3
ACAD_LAYOUT
350
D
  3
ACAD_MATERIAL
350
E
  3
ACAD_MLEADERSTYLE
350
F
  3
ACAD_MLINESTYLE
350
10
  3
ACAD_PLOTSETTINGS
350
11
  3
ACAD_PLOTSTYLENAME
350
12
  3
ACAD_SCALELIST
350
14
  3
ACAD_TABLESTYLE
350
15
  3
ACAD_VISUALSTYLE
350
16
  3
EZDXF_META
350
2D
  0
DICTIONARY
  5
B
330
A
100
AcDbDictionary
281
1
  0
DICTIONARY
  5
C
330
A
100
AcDbDictionary
281
1
  0
DICTIONARY
  5
D
330
A
100
AcDbDictionary
281
1
  3
Model
350
1A
  3
Layout1
350
1E
  0
DICTIONARY
  5
E
330
A
100
AcDbDictionary
281
1
  3
ByBlock
350
1F
  3
ByLayer
350
20
  3
Global
350
21
  0
DICTIONARY
  5
F
330
A
100
AcDbDictionary
281
1
  3
Standard
350
2C
  0
DICTIONARY
  5
10
330
A
100
AcDbDictionary
281
1
  3
Standard
350
22
  0
DICTIONARY
  5
11
330
A
100
AcDbDictionary
281
1
  0
ACDBDICTIONARYWDFLT
  5
12
330
A
100
AcDbDictionary
281
1
  3
Normal
350
13
100
AcDbDictionaryWithDefault
340
13
  0
ACDBPLACEHOLDER
  5
13
330
12
  0
DICTIONARY
  5
14
330
A
100
AcDbDictionary
281
1
  0
DICTIONARY
  5
15
330
A
100
AcDbDictionary
281
1
  0
DICTIONARY
  5
16
330
A
100
AcDbDictionary
281
1
  3
2dWireframe
350
5A
  3
Basic
350
5B
  3
Brighten
350
5C
  3
ColorChange
350
5D
  3
Conceptual
350
5E
  3
Dim
350
5F
  3
EdgeColorOff
350
60
  3
Facepattern
350
61
  3
Flat
350
62
  3
FlatWithEdges
350
63
  3
Gouraud
350
64
  3
GouraudWithEdges
350
65
  3
Hidden
350
66
  3
JitterOff
350
67
  3
Linepattern
350
68
  3
Modeling
350
69
  3
OverhangOff
350
6A
  3
Realistic
350
6B
  3
Shaded
350
6C
  3
Shaded with edges
350
6D
  3
Shades of Gray
350
6E
  3
Sketchy
350
6F
  3
Thicken
350
70
  3
Wireframe
350
71
  3
X-Ray
350
72
  0
LAYOUT
  5
1A
330
D
100
AcDbPlotSettings
  1

  4
A3
  6

 40
7.5
 41
20.0
 42
7.5
 43
20.0
 44
420.0
 45
297.0
 46
0.0
 47
0.0
 48
0.0
 49
0.0
140
0.0
141
0.0
142
1.0
143
1.0
 70
1024
 72
1
 73
0
 74
5
  7

 75
16
 76
0
 77
2
 78
300
147
1.0
148
0.0
149
0.0
100
AcDbLayout
  1
Model
 70
1
 71
0
 10
0.0
 20
0.0
 11
420.0
 21
297.0
 12
0.0
 22
0.0
 32
0.0
 14
1e+20
 24
1e+20
 34
1e+20
 15
-1e+20
 25
-1e+20
 35
-1e+20
146
0.0
 13
0.0
 23
0.0
 33
0.0
 16
1.0
 26
0.0
 36
0.0
 17
0.0
 27
1.0
 37
0.0
 76
1
330
17
  0
LAYOUT
  5
1E
330
D
100
AcDbPlotSettings
  1

  4
A3
  6

 40
7.5
 41
20.0
 42
7.5
 43
20.0
 44
420.0
 45
297.0
 46
0.0
 47
0.0
 48
0.0
 49
0.0
140
0.0
141
0.0
142
1.0
143
1.0
 70
0
 72
1
 73
0
 74
5
  7

 75
16
 76
0
 77
2
 78
300
147
1.0
148
0.0
149
0.0
100
AcDbLayout
  1
Layout1
 70
1
 71
1
 10
0.0
 20
0.0
 11
420.0
 21
297.0
 12
0.0
 22
0.0
 32
0.0
 14
1e+20
 24
1e+20
 34
1e+20
 15
-1e+20
 25
-1e+20
 35
-1e+20
146
0.0
 13
0.0
 23
0.0
 33
0.0
 16
1.0
 26
0.0
 36
0.0
 17
0.0
 27
1.0
 37
0.0
 76
1
330
1B
  0
MATERIAL
  5
1F
102
{ACAD_REACTORS
330
E
102
}
330
E
100
AcDbMaterial
  1
ByBlock
  2

 70
0
 40
1.0
 71
1
 41
1.0
 91
-1023410177
 42
1.0
 72
1
  3

 73
1
 74
1
 75
1
 44
0.5
 73
0
 45
1.0
 46
1.0
 77
1
  4

 78
1
 79
1
170
1
 48
1.0
171
1
  6

172
1
173
1
174
1
140
1.0
141
1.0
175
1
  7

176
1
177
1
178
1
143
1.0
179
1
  8

270
1
271
1
272
1
145
1.0
146
1.0
273
1
  9

274
1
275
1
276
1
 42
1.0
 72
1
  3

 73
1
 74
1
 75
1
 94
63
  0
MATERIAL
  5
20
102
{ACAD_REACTORS
330
E
102
}
330
E
100
AcDbMaterial
  1
ByLayer
  2

 70
0
 40
1.0
 71
1
 41
1.0
 91
-1023410177
 42
1.0
 72
1
  3

 73
1
 74
1
 75
1
 44
0.5
 73
0
 45
1.0
 46
1.0
 77
1
  4

 78
1
 79
1
170
1
 48
1.0
171
1
  6

172
1
173
1
174
1
140
1.0
141
1.0
175
1
  7

176
1
177
1
178
1
143
1.0
179
1
  8

270
1
271
1
272
1
145
1.0
146
1.0
273
1
  9

274
1
275
1
276
1
 42
1.0
 72
1
  3

 73
1
 74
1
 75
1
 94
63
  0
MATERIAL
  5
21
102
{ACAD_REACTORS
330
E
102
}
330
E
100
AcDbMaterial
  1
Global
  2

 70
0
 40
1.0
 71
1
 41
1.0
 91
-1023410177
 42
1.0
 72
1
  3

 73
1
 74
1
 75
1
 44
0.5
 73
0
 45
1.0
 46
1.0
 77
1
  4

 78
1
 79
1
170
1
 48
1.0
171
1
  6

172
1
173
1
174
1
140
1.0
141
1.0
175
1
  7

176
1
177
1
178
1
143
1.0
179
1
  8

270
1
271
1
272
1
145
1.0
146
1.0
273
1
  9

274
1
275
1
276
1
 42
1.0
 72
1
  3

 73
1
 74
1
 75
1
 94
63
  0
MLINESTYLE
  5
22
102
{ACAD_REACTORS
330
10
102
}
330
10
100
AcDbMlineStyle
  2
Standard
 70
0
  3

 62
256
 51
90.0
 52
90.0
 71
2
 49
0.5
 62
256
  6
BYLAYER
 49
-0.5
 62
256
  6
BYLAYER
  0
MLEADERSTYLE
  5
2C
102
{ACAD_REACTORS
330
F
102
}
330
F
100
AcDbMLeaderStyle
179
2
170
2
171
1
172
0
 90
2
 40
0.0
 41
0.0
173
1
 91
-1056964608
 92
-2
290
1
 42
2.0
291
1
 43
8.0
  3
Standard
 44
4.0
300

342
29
174
1
175
1
176
0
178
1
 93
-1056964608
 45
4.0
292
0
297
0
 46
4.0
 94
-1056964608
 47
1.0
 49
1.0
140
1.0
294
1
141
0.0
177
0
142
1.0
295
0
296
0
143
3.75
271
0
272
9
273
9
  0
DICTIONARY
  5
2D
330
A
100
AcDbDictionary
280
1
281
1
  3
CREATED_BY_EZDXF
350
2E
  3
WRITTEN_BY_EZDXF
350
1A8
  0
DICTIONARYVAR
  5
2E
330
2D
100
DictionaryVariables
280
0
  1
1.4.2 @ 2026-09-23T06:20:23.558775+00:00
  0
VISUALSTYLE
  5
5A
102
{ACAD_REACTORS
330
16
102
}
330
16
100
AcDbVisualStyle
  2
2dWireframe
 70
4
 90
0
 40
0.6
 62
7
290
0
291
0
  0
VISUALSTYLE
  5
5B
102
{ACAD_REACTORS
330
16
102
}
330
16
100
AcDbVisualStyle
  2
Basic
 70
7
 90
1
 40
0.6
 62
7
290
0
291
1
  0
VISUALSTYLE
  5
5C
102
{ACAD_REACTORS
330
16
102
}
330
16
100
AcDbVisualStyle
  2
Brighten
 70
12
 90
2
 40
0.6
 62
7
290
0
291
1
  0
VISUALSTYLE
  5
5D
102
{ACAD_REACTORS
330
16
102
}
330
16
100
AcDbVisualStyle
  2
ColorChange
 70
16
 90
2
 40
0.6
 62
8
290
0
291
1
  0
VISUALSTYLE
  5
5E
102
{ACAD_REACTORS
330
16
102
}
330
16
100
AcDbVisualStyle
  2
Conceptual
 70
9
 90
3
 40
0.6
 62
7
290
0
291
0
  0
VISUALSTYLE
  5
5F
102
{ACAD_REACTORS
330
16
102
}
330
16
100
AcDbVisualStyle
  2
Dim
 70
11
 90
2
 40
0.6
 62
7
290
0
291
1
  0
VISUALSTYLE
  5
60
102
{ACAD_REACTORS
330
16
102
}
330
16
100
AcDbVisualStyle
  2
EdgeColorOff
 70
22
 90
2
 40
0.6
 62
7
290
0
291
1
  0
VISUALSTYLE
  5
61
102
{ACAD_REACTORS
330
16
102
}
330
16
100
AcDbVisualStyle
  2
Facepattern
 70
15
 90
2
 40
0.6
 62
7
290
0
291
1
  0
VISUALSTYLE
  5
62
102
{ACAD_REACTORS
330
16
102
}
330
16
100
AcDbVisualStyle
  2
Flat
 70
0
 90
2
 40
0.6
 62
7
290
0
291
1
  0
VISUALSTYLE
  5
63
102
{ACAD_REACTORS
330
16
102
}
330
16
100
AcDbVisualStyle
  2
FlatWithEdges
 70
1
 90
2
 40
0.6
 62
7
290
0
291
1
  0
VISUALSTYLE
  5
64
102
{ACAD_REACTORS
330
16
102
}
330
16
100
AcDbVisualStyle
  2
Gouraud
 70
2
 90
2
 40
0.6
 62
7
290
0
291
1
  0
VISUALSTYLE
  5
65
102
{ACAD_REACTORS
330
16
102
}
330
16
100
AcDbVisualStyle
  2
GouraudWithEdges
 70
3
 90
2
 40
0.6
 62
7
290
0
291
1
  0
VISUALSTYLE
  5
66
102
{ACAD_REACTORS
330
16
102
}
330
16
100
AcDbVisualStyle
  2
Hidden
 70
6
 90
1
 40
0.6
 62
7
290
0
291
0
  0
VISUALSTYLE
  5
67
102
{ACAD_REACTORS
330
16
102
}
330
16
100
AcDbVisualStyle
  2
JitterOff
 70
20
 90
2
 40
0.6
 62
7
290
0
291
1
  0
VISUALSTYLE
  5
68
102
{ACAD_REACTORS
330
16
102
}
330
16
100
AcDbVisualStyle
  2
Linepattern
 70
14
 90
2
 40
0.6
 62
7
290
0
291
1
  0
VISUALSTYLE
  5
69
102
{ACAD_REACTORS
330
16
102
}
330
16
100
AcDbVisualStyle
  2
Modeling
 70
10
 90
2
 40
0.6
 62
7
290
0
291
0
  0
VISUALSTYLE
  5
6A
102
{ACAD_REACTORS
330
16
102
}
330
16
100
AcDbVisualStyle
  2
OverhangOff
 70
21
 90
2
 40
0.6
 62
7
290
0
291
1
  0
VISUALSTYLE
  5
6B
102
{ACAD_REACTORS
330
16
102
}
330
16
100
AcDbVisualStyle
  2
Realistic
 70
8
 90
2
 40
0.6
 62
7
290
0
291
0
  0
VISUALSTYLE
  5
6C
102
{ACAD_REACTORS
330
16
102
}
330
16
100
AcDbVisualStyle
  2
Shaded
 70
27
 90
2
 40
0.6
 62
7
290
0
291
0
  0
VISUALSTYLE
  5
6D
102
{ACAD_REACTORS
330
16
102
}
330
16
100
AcDbVisualStyle
  2
Shaded with edges
 70
26
 90
2
 40
0.6
 62
7
290
0
291
0
  0
VISUALSTYLE
  5
6E
102
{ACAD_REACTORS
330
16
102
}
330
16
100
AcDbVisualStyle
  2
Shades of Gray
 70
23
 90
2
 40
0.6
 62
7
290
0
291
0
  0
VISUALSTYLE
  5
6F
102
{ACAD_REACTORS
330
16
102
}
330
16
100
AcDbVisualStyle
  2
Sketchy
 70
24
 90
1
 40
0.6
 62
7
290
0
291
0
  0
VISUALSTYLE
  5
70
102
{ACAD_REACTORS
330
16
102
}
330
16
100
AcDbVisualStyle
  2
Thicken
 70
13
 90
2
 40
0.6
 62
7
290
0
291
1
  0
VISUALSTYLE
  5
71
102
{ACAD_REACTORS
330
16
102
}
330
16
100
AcDbVisualStyle
  2
Wireframe
 70
5
 90
0
 40
0.6
 62
7
290
0
291
0
  0
VISUALSTYLE
  5
72
102
{ACAD_REACTORS
330
16
102
}
330
16
100
AcDbVisualStyle
  2
X-Ray
 70
25
 90
2
 40
0.5
 62
7
290
0
291
0
  0
DICTIONARYVAR
  5
1A8
330
2D
100
DictionaryVariables
280
0
  1
1.4.2 @ 2026-09-23T06:20:23.576114+00:00
  0
ENDSEC
  0
EOF
