  0
SECTION
  2
HEADER
  9
$ACADVER
  1
AC1024
  9
$ACADMAINTVER
 70
6
  9
$DWGCODEPAGE
  3
ANSI_1252
  9
$LASTSAVEDBY
  1
ezdxf
  9
$INSBASE
 10
0.0
 20
0.0
 30
0.0
  9
$EXTMIN
 10
1e+20
 20
1e+20
 30
1e+20
  9
$EXTMAX
 10
-1e+20
 20
-1e+20
 30
-1e+20
  9
$LIMMIN
 10
0.0
 20
0.0
  9
$LIMMAX
 10
420.0
 20
297.0
  9
$ORTHOMODE
 70
0
  9
$REGENMODE
 70
1
  9
$FILLMODE
 70
1
  9
$QTEXTMODE
 70
0
  9
$MIRRTEXT
 70
1
  9
$LTSCALE
 40
1.0
  9
$ATTMODE
 70
1
  9
$TEXTSIZE
 40
2.5
  9
$TRACEWID
 40
1.0
  9
$TEXTSTYLE
  7
OpenSans
  9
$CLAYER
  8
0
  9
$CELTYPE
  6
ByLayer
  9
$CECOLOR
 62
256
  9
$CELTSCALE
 40
1.0
  9
$DISPSILH
 70
0
  9
$DIMSCALE
 40
1.0
  9
$DIMASZ
 40
0.175
  9
$DIMEXO
 40
0.125
  9
$DIMDLI
 40
3.75
  9
$DIMRND
 40
0.0
  9
$DIMDLE
 40
0.0
  9
$DIMEXE
 40
0.375
  9
$DIMTP
 40
0.0
  9
$DIMTM
 40
0.0
  9
$DIMTXT
 40
0.25
  9
$DIMCEN
 40
2.5
  9
$DIMTSZ
 40
0.0
  9
$DIMTOL
 70
0
  9
$DIMLIM
 70
0
  9
$DIMTIH
 70
0
  9
$DIMTOH
 70
0
  9
$DIMSE1
 70
0
  9
$DIMSE2
 70
0
  9
$DIMTAD
 70
1
  9
$DIMZIN
 70
12
  9
$DIMBLK
  1
ARCHTICK
  9
$DIMASO
 70
1
  9
$DIMSHO
 70
1
  9
$DIMPOST
  1

  9
$DIMAPOST
  1

  9
$DIMALT
 70
0
  9
$DIMALTD
 70
3
  9
$DIMALTF
 40
0.03937007874
  9
$DIMLFAC
 40
100.0
  9
$DIMTOFL
 70
1
  9
$DIMTVP
 40
0.0
  9
$DIMTIX
 70
0
  9
$DIMSOXD
 70
0
  9
$DIMSAH
 70
0
  9
$DIMBLK1
  1

  9
$DIMBLK2
  1

  9
$DIMSTYLE
  2
EZDXF
  9
$DIMCLRD
 70
0
  9
$DIMCLRE
 70
0
  9
$DIMCLRT
 70
0
  9
$DIMTFAC
 40
0.5
  9
$DIMGAP
 40
0.1
  9
$DIMJUST
 70
0
  9
$DIMSD1
 70
0
  9
$DIMSD2
 70
0
  9
$DIMTOLJ
 70
0
  9
$DIMTZIN
 70
8
  9
$DIMALTZ
 70
0
  9
$DIMALTTZ
 70
0
  9
$DIMUPT
 70
1
  9
$DIMDEC
 70
2
  9
$DIMTDEC
 70
2
  9
$DIMALTU
 70
2
  9
$DIMALTTD
 70
3
  9
$DIMTXSTY
  7
OpenSansCondensed-Light
  9
$DIMAUNIT
 70
0
  9
$DIMADEC
 70
2
  9
$DIMALTRND
 40
0.0
  9
$DIMAZIN
 70
3
  9
$DIMDSEP
 70
46
  9
$DIMATFIT
 70
3
  9
$DIMFRAC
 70
0
  9
$DIMLDRBLK
  1

  9
$DIMLUNIT
 70
2
  9
$DIMLWD
 70
-2
  9
$DIMLWE
 70
-2
  9
$DIMTMOVE
 70
2
  9
$DIMFXL
 40
1.0
  9
$DIMFXLON
 70
0
  9
$DIMJOGANG
 40
0.785398163397
  9
$DIMTFILL
 70
0
  9
$DIMTFILLCLR
 70
0
  9
$DIMARCSYM
 70
0
  9
$DIMLTYPE
  6

  9
$DIMLTEX1
  6

  9
$DIMLTEX2
  6

  9
$DIMTXTDIRECTION
 70
0
  9
$LUNITS
 70
4
  9
$LUPREC
 70
4
  9
$SKETCHINC
 40
1.0
  9
$FILLETRAD
 40
10.0
  9
$AUNITS
 70
0
  9
$AUPREC
 70
3
  9
$MENU
  1
.
  9
$ELEVATION
 40
0.0
  9
$PELEVATION
 40
0.0
  9
$THICKNESS
 40
0.0
  9
$LIMCHECK
 70
0
  9
$CHAMFERA
 40
0.0
  9
$CHAMFERB
 40
0.0
  9
$CHAMFERC
 40
0.0
  9
$CHAMFERD
 40
0.0
  9
$SKPOLY
 70
0
  9
$TDCREATE
 40
2461303.0570717594
  9
$TDUCREATE
 40
2458532.153996898
  9
$TDUPDATE
 40
2461303.0570717594
  9
$TDUUPDATE
 40
2458532.1544311
  9
$TDINDWG
 40
0.0
  9
$TDUSRTIMER
 40
0.0
  9
$USRTIMER
 70
1
  9
$ANGBASE
 50
0.0
  9
$ANGDIR
 70
0
  9
$PDMODE
 70
0
  9
$PDSIZE
 40
0.0
  9
$PLINEWID
 40
0.0
  9
$SPLFRAME
 70
0
  9
$SPLINETYPE
 70
6
  9
$SPLINESEGS
 70
8
  9
$HANDSEED
  5
17B
  9
$SURFTAB1
 70
6
  9
$SURFTAB2
 70
6
  9
$SURFTYPE
 70
6
  9
$SURFU
 70
6
  9
$SURFV
 70
6
  9
$UCSBASE
  2

  9
$UCSNAME
  2

  9
$UCSORG
 10
0.0
 20
0.0
 30
0.0
  9
$UCSXDIR
 10
1.0
 20
0.0
 30
0.0
  9
$UCSYDIR
 10
0.0
 20
1.0
 30
0.0
  9
$UCSORTHOREF
  2

  9
$UCSORTHOVIEW
 70
0
  9
$UCSORGTOP
 10
0.0
 20
0.0
 30
0.0
  9
$UCSORGBOTTOM
 10
0.0
 20
0.0
 30
0.0
  9
$UCSORGLEFT
 10
0.0
 20
0.0
 30
0.0
  9
$UCSORGRIGHT
 10
0.0
 20
0.0
 30
0.0
  9
$UCSORGFRONT
 10
0.0
 20
0.0
 30
0.0
  9
$UCSORGBACK
 10
0.0
 20
0.0
 30
0.0
  9
$PUCSBASE
  2

  9
$PUCSNAME
  2

  9
$PUCSORG
 10
0.0
 20
0.0
 30
0.0
  9
$PUCSXDIR
 10
1.0
 20
0.0
 30
0.0
  9
$PUCSYDIR
 10
0.0
 20
1.0
 30
0.0
  9
$PUCSORTHOREF
  2

  9
$PUCSORTHOVIEW
 70
0
  9
$PUCSORGTOP
 10
0.0
 20
0.0
 30
0.0
  9
$PUCSORGBOTTOM
 10
0.0
 20
0.0
 30
0.0
  9
$PUCSORGLEFT
 10
0.0
 20
0.0
 30
0.0
  9
$PUCSORGRIGHT
 10
0.0
 20
0.0
 30
0.0
  9
$PUCSORGFRONT
 10
0.0
 20
0.0
 30
0.0
  9
$PUCSORGBACK
 10
0.0
 20
0.0
 30
0.0
  9
$USERI1
 70
0
  9
$USERI2
 70
0
  9
$USERI3
 70
0
  9
$USERI4
 70
0
  9
$USERI5
 70
0
  9
$USERR1
 40
0.0
  9
$USERR2
 40
0.0
  9
$USERR3
 40
0.0
  9
$USERR4
 40
0.0
  9
$USERR5
 40
0.0
  9
$WORLDVIEW
 70
1
  9
$SHADEDGE
 70
3
  9
$SHADEDIF
 70
70
  9
$TILEMODE
 70
1
  9
$MAXACTVP
 70
64
  9
$PINSBASE
 10
0.0
 20
0.0
 30
0.0
  9
$PLIMCHECK
 70
0
  9
$PEXTMIN
 10
1e+20
 20
1e+20
 30
1e+20
  9
$PEXTMAX
 10
-1e+20
 20
-1e+20
 30
-1e+20
  9
$PLIMMIN
 10
0.0
 20
0.0
  9
$PLIMMAX
 10
420.0
 20
297.0
  9
$UNITMODE
 70
0
  9
$VISRETAIN
 70
1
  9
$PLINEGEN
 70
0
  9
$PSLTSCALE
 70
1
  9
$TREEDEPTH
 70
3020
  9
$CMLSTYLE
  2
Standard
  9
$CMLJUST
 70
0
  9
$CMLSCALE
 40
20.0
  9
$PROXYGRAPHICS
 70
1
  9
$MEASUREMENT
 70
0
  9
$CELWEIGHT
370
-1
  9
$ENDCAPS
280
0
  9
$JOINSTYLE
280
0
  9
$LWDISPLAY
290
0
  9
$INSUNITS
 70
1
  9
$HYPERLINKBASE
  1

  9
$STYLESHEET
  1

  9
$XEDIT
290
1
  9
$CEPSNTYPE
380
0
  9
$PSTYLEMODE
290
1
  9
$FINGERPRINTGUID
  2
{36F06B85-BDDE-4534-9341-3A5781E79150}
  9
$VERSIONGUID
  2
{BB5DB2A7-8819-4A01-AAD6-CC7A22F77FA7}
  9
$EXTNAMES
290
1
  9
$PSVPSCALE
 40
0.0
  9
$OLESTARTUP
290
0
  9
$SORTENTS
280
127
  9
$INDEXCTL
280
0
  9
$HIDETEXT
280
1
  9
$XCLIPFRAME
280
1
  9
$HALOGAP
280
0
  9
$OBSCOLOR
 70
257
  9
$OBSLTYPE
280
0
  9
$INTERSECTIONDISPLAY
280
0
  9
$INTERSECTIONCOLOR
 70
257
  9
$DIMASSOC
280
2
  9
$PROJECTNAME
  1

  9
$CAMERADISPLAY
290
0
  9
$LENSLENGTH
 40
50.0
  9
$CAMERAHEIGHT
 40
0.0
  9
$STEPSPERSEC
 40
24.0
  9
$STEPSIZE
 40
100.0
  9
$3DDWFPREC
 40
2.0
  9
$PSOLWIDTH
 40
0.005
  9
$PSOLHEIGHT
 40
0.08
  9
$LOFTANG1
 40
1.570796326795
  9
$LOFTANG2
 40
1.570796326795
  9
$LOFTMAG1
 40
0.0
  9
$LOFTMAG2
 40
0.0
  9
$LOFTPARAM
 70
7
  9
$LOFTNORMALS
280
1
  9
$LATITUDE
 40
37.795
  9
$LONGITUDE
 40
-122.394
  9
$NORTHDIRECTION
 40
0.0
  9
$TIMEZONE
 70
-8000
  9
$LIGHTGLYPHDISPLAY
280
1
  9
$TILEMODELIGHTSYNCH
280
1
  9
$CMATERIAL
347
20
  9
$SOLIDHIST
280
0
  9
$SHOWHIST
280
1
  9
$DWFFRAME
280
2
  9
$DGNFRAME
280
2
  9
$REALWORLDSCALE
290
1
  9
$INTERFERECOLOR
 62
256
  9
$CSHADOW
280
0
  9
$SHADOWPLANELOCATION
 40
0.0
  0
ENDSEC
  0
SECTION
  2
CLASSES
  0
CLASS
  1
ACDBDICTIONARYWDFLT
  2
AcDbDictionaryWithDefault
  3
ObjectDBX Classes
 90
0
 91
0
280
0
281
0
  0
CLASS
  1
SUN
  2
AcDbSun
  3
SCENEOE
 90
1153
 91
0
280
0
281
0
  0
CLASS
  1
VISUALSTYLE
  2
AcDbVisualStyle
  3
ObjectDBX Classes
 90
4095
 91
0
280
0
281
0
  0
CLASS
  1
MATERIAL
  2
AcDbMaterial
  3
ObjectDBX Classes
 90
1153
 91
0
280
0
281
0
  0
CLASS
  1
SCALE
  2
AcDbScale
  3
ObjectDBX Classes
 90
1153
 91
0
280
0
281
0
  0
CLASS
  1
TABLESTYLE
  2
AcDbTableStyle
  3
ObjectDBX Classes
 90
4095
 91
0
280
0
281
0
  0
CLASS
  1
MLEADERSTYLE
  2
AcDbMLeaderStyle
  3
ACDB_MLEADERSTYLE_CLASS
 90
4095
 91
0
280
0
281
0
  0
CLASS
  1
DICTIONARYVAR
  2
AcDbDictionaryVar
  3
ObjectDBX Classes
 90
0
 91
0
280
0
281
0
  0
CLASS
  1
CELLSTYLEMAP
  2
AcDbCellStyleMap
  3
ObjectDBX Classes
 90
1152
 91
0
280
0
281
0
  0
CLASS
  1
MENTALRAYRENDERSETTINGS
  2
AcDbMentalRayRenderSettings
  3
SCENEOE
 90
1024
 91
0
280
0
281
0
  0
CLASS
  1
ACDBDETAILVIEWSTYLE
  2
AcDbDetailViewStyle
  3
ObjectDBX Classes
 90
1025
 91
0
280
0
281
0
  0
CLASS
  1
ACDBSECTIONVIEWSTYLE
  2
AcDbSectionViewStyle
  3
ObjectDBX Classes
 90
1025
 91
0
280
0
281
0
  0
CLASS
  1
RASTERVARIABLES
  2
AcDbRasterVariables
  3
ISM
 90
0
 91
0
280
0
281
0
  0
CLASS
  1
LAYOUT
  2
AcDbLayout
  3
ObjectDBX Classes
 90
0
 91
0
280
0
281
0
  0
CLASS
  1
ACDBPLACEHOLDER
  2
AcDbPlaceHolder
  3
ObjectDBX Classes
 90
0
 91
0
280
0
281
0
  0
ENDSEC
  0
SECTION
  2
TABLES
  0
TABLE
  2
VPORT
  5
8
330
0
100
AcDbSymbolTable
 70
1
  0
VPORT
  5
23
330
8
100
AcDbSymbolTableRecord
100
AcDbViewportTableRecord
  2
*Active
 70
0
 10
0.0
 20
0.0
 11
1.0
 21
1.0
 12
0.0
 22
0.0
 13
0.0
 23
0.0
 14
0.5
 24
0.5
 15
0.5
 25
0.5
 16
0.0
 26
0.0
 36
1.0
 17
0.0
 27
0.0
 37
0.0
 40
1000.0
 41
1.34
 42
50.0
 43
0.0
 44
0.0
 50
0.0
 51
0.0
 71
0
 72
1000
 73
1
 74
3
 75
0
 76
0
 77
0
 78
0
281
0
 65
0
146
0.0
  0
ENDTAB
  0
TABLE
  2
LTYPE
  5
2
330
0
100
AcDbSymbolTable
 70
21
  0
LTYPE
  5
24
330
2
100
AcDbSymbolTableRecord
100
AcDbLinetypeTableRecord
  2
ByBlock
 70
0
  3

 72
65
 73
0
 40
0.0
  0
LTYPE
  5
25
330
2
100
AcDbSymbolTableRecord
100
AcDbLinetypeTableRecord
  2
ByLayer
 70
0
  3

 72
65
 73
0
 40
0.0
  0
LTYPE
  5
26
330
2
100
AcDbSymbolTableRecord
100
AcDbLinetypeTableRecord
  2
Continuous
 70
0
  3

 72
65
 73
0
 40
0.0
  0
LTYPE
  5
2F
330
2
100
AcDbSymbolTableRecord
100
AcDbLinetypeTableRecord
  2
CENTER
 70
0
  3
Center ____ _ ____ _ ____ _ ____ _ ____ _ ____
 72
65
 73
4
 40
2.0
 49
1.25
 74
0
 49
-0.25
 74
0
 49
0.25
 74
0
 49
-0.25
 74
0
  0
LTYPE
  5
30
330
2
100
AcDbSymbolTableRecord
100
AcDbLinetypeTableRecord
  2
CENTERX2
 70
0
  3
Center (2x) ________  __  ________  __  ________
 72
65
 73
4
 40
3.5
 49
2.5
 74
0
 49
-0.25
 74
0
 49
0.5
 74
0
 49
-0.25
 74
0
  0
LTYPE
  5
31
330
2
100
AcDbSymbolTableRecord
100
AcDbLinetypeTableRecord
  2
CENTER2
 70
0
  3
Center (.5x) ____ _ ____ _ ____ _ ____ _ ____
 72
65
 73
4
 40
1.0
 49
0.625
 74
0
 49
-0.125
 74
0
 49
0.125
 74
0
 49
-0.125
 74
0
  0
LTYPE
  5
32
330
2
100
AcDbSymbolTableRecord
100
AcDbLinetypeTableRecord
  2
DASHED
 70
0
  3
Dashed __ __ __ __ __ __ __ __ __ __ __ __ __ _
 72
65
 73
2
 40
0.6
 49
0.5
 74
0
 49
-0.1
 74
0
  0
LTYPE
  5
33
330
2
100
AcDbSymbolTableRecord
100
AcDbLinetypeTableRecord
  2
DASHEDX2
 70
0
  3
Dashed (2x) ____  ____  ____  ____  ____  ____
 72
65
 73
2
 40
1.2
 49
1.0
 74
0
 49
-0.2
 74
0
  0
LTYPE
  5
34
330
2
100
AcDbSymbolTableRecord
100
AcDbLinetypeTableRecord
  2
DASHED2
 70
0
  3
Dashed (.5x) _ _ _ _ _ _ _ _ _ _ _ _ _ _
 72
65
 73
2
 40
0.3
 49
0.25
 74
0
 49
-0.05
 74
0
  0
LTYPE
  5
35
330
2
100
AcDbSymbolTableRecord
100
AcDbLinetypeTableRecord
  2
PHANTOM
 70
0
  3
Phantom ______  __  __  ______  __  __  ______
 72
65
 73
6
 40
2.5
 49
1.25
 74
0
 49
-0.25
 74
0
 49
0.25
 74
0
 49
-0.25
 74
0
 49
0.25
 74
0
 49
-0.25
 74
0
  0
LTYPE
  5
36
330
2
100
AcDbSymbolTableRecord
100
AcDbLinetypeTableRecord
  2
PHANTOMX2
 70
0
  3
Phantom (2x)____________    ____    ____    ____________
 72
65
 73
6
 40
4.25
 49
2.5
 74
0
 49
-0.25
 74
0
 49
0.5
 74
0
 49
-0.25
 74
0
 49
0.5
 74
0
 49
-0.25
 74
0
  0
LTYPE
  5
37
330
2
100
AcDbSymbolTableRecord
100
AcDbLinetypeTableRecord
  2
PHANTOM2
 70
0
  3
Phantom (.5x) ___ _ _ ___ _ _ ___ _ _ ___ _ _ ___
 72
65
 73
6
 40
1.25
 49
0.625
 74
0
 49
-0.125
 74
0
 49
0.125
 74
0
 49
-0.125
 74
0
 49
0.125
 74
0
 49
-0.125
 74
0
  0
LTYPE
  5
38
330
2
100
AcDbSymbolTableRecord
100
AcDbLinetypeTableRecord
  2
DASHDOT
 70
0
  3
Dash dot __ . __ . __ . __ . __ . __ . __ . __
 72
65
 73
4
 40
1.4
 49
1.0
 74
0
 49
-0.2
 74
0
 49
0.0
 74
0
 49
-0.2
 74
0
  0
LTYPE
  5
39
330
2
100
AcDbSymbolTableRecord
100
AcDbLinetypeTableRecord
  2
DASHDOTX2
 70
0
  3
Dash dot (2x) ____  .  ____  .  ____  .  ____
 72
65
 73
4
 40
2.4
 49
2.0
 74
0
 49
-0.2
 74
0
 49
0.0
 74
0
 49
-0.2
 74
0
  0
LTYPE
  5
3A
330
2
100
AcDbSymbolTableRecord
100
AcDbLinetypeTableRecord
  2
DASHDOT2
 70
0
  3
Dash dot (.5x) _ . _ . _ . _ . _ . _ . _ . _
 72
65
 73
4
 40
0.7
 49
0.5
 74
0
 49
-0.1
 74
0
 49
0.0
 74
0
 49
-0.1
 74
0
  0
LTYPE
  5
3B
330
2
100
AcDbSymbolTableRecord
100
AcDbLinetypeTableRecord
  2
DOT
 70
0
  3
Dot .  .  .  .  .  .  .  .  .  .  .  .  .  .  .  .
 72
65
 73
2
 40
0.2
 49
0.0
 74
0
 49
-0.2
 74
0
  0
LTYPE
  5
3C
330
2
100
AcDbSymbolTableRecord
100
AcDbLinetypeTableRecord
  2
DOTX2
 70
0
  3
Dot (2x) .    .    .    .    .    .    .    . 
 72
65
 73
2
 40
0.4
 49
0.0
 74
0
 49
-0.4
 74
0
  0
LTYPE
  5
3D
330
2
100
AcDbSymbolTableRecord
100
AcDbLinetypeTableRecord
  2
DOT2
 70
0
  3
Dot (.5) . . . . . . . . . . . . . . . . . . . 
 72
65
 73
2
 40
0.1
 49
0.0
 74
0
 49
-0.1
 74
0
  0
LTYPE
  5
3E
330
2
100
AcDbSymbolTableRecord
100
AcDbLinetypeTableRecord
  2
DIVIDE
 70
0
  3
Divide __ . . __ . . __ . . __ . . __ . . __
 72
65
 73
6
 40
1.6
 49
1.0
 74
0
 49
-0.2
 74
0
 49
0.0
 74
0
 49
-0.2
 74
0
 49
0.0
 74
0
 49
-0.2
 74
0
  0
LTYPE
  5
3F
330
2
100
AcDbSymbolTableRecord
100
AcDbLinetypeTableRecord
  2
DIVIDEX2
 70
0
  3
Divide (2x) ____  . .  ____  . .  ____  . .  ____
 72
65
 73
6
 40
2.6
 49
2.0
 74
0
 49
-0.2
 74
0
 49
0.0
 74
0
 49
-0.2
 74
0
 49
0.0
 74
0
 49
-0.2
 74
0
  0
LTYPE
  5
40
330
2
100
AcDbSymbolTableRecord
100
AcDbLinetypeTableRecord
  2
DIVIDE2
 70
0
  3
Divide(.5x) _ . _ . _ . _ . _ . _ . _ . _
 72
65
 73
6
 40
0.8
 49
0.5
 74
0
 49
-0.1
 74
0
 49
0.0
 74
0
 49
-0.1
 74
0
 49
0.0
 74
0
 49
-0.1
 74
0
  0
ENDTAB
  0
TABLE
  2
LAYER
  5
1
330
0
100
AcDbSymbolTable
 70
10
  0
LAYER
  5
27
330
1
100
AcDbSymbolTableRecord
100
AcDbLayerTableRecord
  2
0
 70
0
 62
7
  6
Continuous
370
-3
390
13
347
21
  0
LAYER
  5
28
330
1
100
AcDbSymbolTableRecord
100
AcDbLayerTableRecord
  2
Defpoints
 70
0
 62
7
  6
Continuous
290
0
370
-3
390
13
347
21
  0
LAYER
  5
8A
330
1
100
AcDbSymbolTableRecord
100
AcDbLayerTableRecord
  2
Front elevation
 70
0
 62
7
  6
Continuous
370
-3
390
13
347
21
  0
LAYER
  5
8B
330
1
100
AcDbSymbolTableRecord
100
AcDbLayerTableRecord
  2
Front elevation hatch
 70
0
 62
8
  6
Continuous
370
-3
390
13
347
21
  0
LAYER
  5
11D
330
1
100
AcDbSymbolTableRecord
100
AcDbLayerTableRecord
  2
Panel head - detail A
 70
0
 62
7
  6
Continuous
370
-3
390
13
347
21
  0
LAYER
  5
11E
330
1
100
AcDbSymbolTableRecord
100
AcDbLayerTableRecord
  2
Panel head - detail A hatch
 70
0
 62
8
  6
Continuous
370
-3
390
13
347
21
  0
LAYER
  5
12E
330
1
100
AcDbSymbolTableRecord
100
AcDbLayerTableRecord
  2
Section B-B
 70
0
 62
7
  6
Continuous
370
-3
390
13
347
21
  0
LAYER
  5
12F
330
1
100
AcDbSymbolTableRecord
100
AcDbLayerTableRecord
  2
Section B-B hatch
 70
0
 62
8
  6
Continuous
370
-3
390
13
347
21
  0
LAYER
  5
160
330
1
100
AcDbSymbolTableRecord
100
AcDbLayerTableRecord
  2
Lock rail - detail C
 70
0
 62
7
  6
Continuous
370
-3
390
13
347
21
  0
LAYER
  5
161
330
1
100
AcDbSymbolTableRecord
100
AcDbLayerTableRecord
  2
Lock rail - detail C hatch
 70
0
 62
8
  6
Continuous
370
-3
390
13
347
21
  0
ENDTAB
  0
TABLE
  2
STYLE
  5
5
330
0
100
AcDbSymbolTable
 70
26
  0
STYLE
  5
29
330
5
100
AcDbSymbolTableRecord
100
AcDbTextStyleTableRecord
  2
Standard
 70
0
 40
0.0
 41
1.0
 50
0.0
 71
0
 42
2.5
  3
txt
  4

  0
STYLE
  5
41
330
5
100
AcDbSymbolTableRecord
100
AcDbTextStyleTableRecord
  2
OpenSans-Light
 70
0
 40
0.0
 41
1.0
 50
0.0
 71
0
 42
2.5
  3
OpenSans-Light.ttf
  4

  0
STYLE
  5
42
330
5
100
AcDbSymbolTableRecord
100
AcDbTextStyleTableRecord
  2
OpenSans-Light-Italic
 70
0
 40
0.0
 41
1.0
 50
0.0
 71
0
 42
2.5
  3
OpenSans-LightItalic.ttf
  4

  0
STYLE
  5
43
330
5
100
AcDbSymbolTableRecord
100
AcDbTextStyleTableRecord
  2
OpenSans
 70
0
 40
0.0
 41
1.0
 50
0.0
 71
0
 42
2.5
  3
OpenSans-Regular.ttf
  4

  0
STYLE
  5
44
330
5
100
AcDbSymbolTableRecord
100
AcDbTextStyleTableRecord
  2
OpenSans-Italic
 70
0
 40
0.0
 41
1.0
 50
0.0
 71
0
 42
2.5
  3
OpenSans-Italic.ttf
  4

  0
STYLE
  5
45
330
5
100
AcDbSymbolTableRecord
100
AcDbTextStyleTableRecord
  2
OpenSans-SemiBold
 70
0
 40
0.0
 41
1.0
 50
0.0
 71
0
 42
2.5
  3
OpenSans-SemiBold.ttf
  4

  0
STYLE
  5
46
330
5
100
AcDbSymbolTableRecord
100
AcDbTextStyleTableRecord
  2
OpenSans-SemiBoldItalic
 70
0
 40
0.0
 41
1.0
 50
0.0
 71
0
 42
2.5
  3
OpenSans-SemiBoldItalic.ttf
  4

  0
STYLE
  5
47
330
5
100
AcDbSymbolTableRecord
100
AcDbTextStyleTableRecord
  2
OpenSans-Bold
 70
0
 40
0.0
 41
1.0
 50
0.0
 71
0
 42
2.5
  3
OpenSans-Bold.ttf
  4

  0
STYLE
  5
48
330
5
100
AcDbSymbolTableRecord
100
AcDbTextStyleTableRecord
  2
OpenSans-BoldItalic
 70
0
 40
0.0
 41
1.0
 50
0.0
 71
0
 42
2.5
  3
OpenSans-BoldItalic.ttf
  4

  0
STYLE
  5
49
330
5
100
AcDbSymbolTableRecord
100
AcDbTextStyleTableRecord
  2
OpenSans-ExtraBold
 70
0
 40
0.0
 41
1.0
 50
0.0
 71
0
 42
2.5
  3
OpenSans-ExtraBold.ttf
  4

  0
STYLE
  5
4A
330
5
100
AcDbSymbolTableRecord
100
AcDbTextStyleTableRecord
  2
OpenSans-ExtraBoldItalic
 70
0
 40
0.0
 41
1.0
 50
0.0
 71
0
 42
2.5
  3
OpenSans-ExtraBoldItalic.ttf
  4

  0
STYLE
  5
4B
330
5
100
AcDbSymbolTableRecord
100
AcDbTextStyleTableRecord
  2
OpenSansCondensed-Bold
 70
0
 40
0.0
 41
1.0
 50
0.0
 71
0
 42
2.5
  3
OpenSansCondensed-Bold.ttf
  4

  0
STYLE
  5
4C
330
5
100
AcDbSymbolTableRecord
100
AcDbTextStyleTableRecord
  2
OpenSansCondensed-Light
 70
0
 40
0.0
 41
1.0
 50
0.0
 71
0
 42
2.5
  3
OpenSansCondensed-Light.ttf
  4

  0
STYLE
  5
4D
330
5
100
AcDbSymbolTableRecord
100
AcDbTextStyleTableRecord
  2
OpenSansCondensed-Italic
 70
0
 40
0.0
 41
1.0
 50
0.0
 71
0
 42
2.5
  3
OpenSansCondensed-LightItalic.ttf
  4

  0
STYLE
  5
4E
330
5
100
AcDbSymbolTableRecord
100
AcDbTextStyleTableRecord
  2
LiberationSans
 70
0
 40
0.0
 41
1.0
 50
0.0
 71
0
 42
2.5
  3
LiberationSans-Regular.ttf
  4

  0
STYLE
  5
4F
330
5
100
AcDbSymbolTableRecord
100
AcDbTextStyleTableRecord
  2
LiberationSans-Bold
 70
0
 40
0.0
 41
1.0
 50
0.0
 71
0
 42
2.5
  3
LiberationSans-Bold.ttf
  4

  0
STYLE
  5
50
330
5
100
AcDbSymbolTableRecord
100
AcDbTextStyleTableRecord
  2
LiberationSans-BoldItalic
 70
0
 40
0.0
 41
1.0
 50
0.0
 71
0
 42
2.5
  3
LiberationSans-BoldItalic.ttf
  4

  0
STYLE
  5
51
330
5
100
AcDbSymbolTableRecord
100
AcDbTextStyleTableRecord
  2
LiberationSans-Italic
 70
0
 40
0.0
 41
1.0
 50
0.0
 71
0
 42
2.5
  3
LiberationSans-Italic.ttf
  4

  0
STYLE
  5
52
330
5
100
AcDbSymbolTableRecord
100
AcDbTextStyleTableRecord
  2
LiberationSerif
 70
0
 40
0.0
 41
1.0
 50
0.0
 71
0
 42
2.5
  3
LiberationSerif-Regular.ttf
  4

  0
STYLE
  5
53
330
5
100
AcDbSymbolTableRecord
100
AcDbTextStyleTableRecord
  2
LiberationSerif-Bold
 70
0
 40
0.0
 41
1.0
 50
0.0
 71
0
 42
2.5
  3
LiberationSerif-Bold.ttf
  4

  0
STYLE
  5
54
330
5
100
AcDbSymbolTableRecord
100
AcDbTextStyleTableRecord
  2
LiberationSerif-BoldItalic
 70
0
 40
0.0
 41
1.0
 50
0.0
 71
0
 42
2.5
  3
LiberationSerif-BoldItalic.ttf
  4

  0
STYLE
  5
55
330
5
100
AcDbSymbolTableRecord
100
AcDbTextStyleTableRecord
  2
LiberationSerif-Italic
 70
0
 40
0.0
 41
1.0
 50
0.0
 71
0
 42
2.5
  3
LiberationSerif-Italic.ttf
  4

  0
STYLE
  5
56
330
5
100
AcDbSymbolTableRecord
100
AcDbTextStyleTableRecord
  2
LiberationMono
 70
0
 40
0.0
 41
1.0
 50
0.0
 71
0
 42
2.5
  3
LiberationMono-Regular.ttf
  4

  0
STYLE
  5
57
330
5
100
AcDbSymbolTableRecord
100
AcDbTextStyleTableRecord
  2
LiberationMono-Bold
 70
0
 40
0.0
 41
1.0
 50
0.0
 71
0
 42
2.5
  3
LiberationMono-Bold.ttf
  4

  0
STYLE
  5
58
330
5
100
AcDbSymbolTableRecord
100
AcDbTextStyleTableRecord
  2
LiberationMono-BoldItalic
 70
0
 40
0.0
 41
1.0
 50
0.0
 71
0
 42
2.5
  3
LiberationMono-BoldItalic.ttf
  4

  0
STYLE
  5
59
330
5
100
AcDbSymbolTableRecord
100
AcDbTextStyleTableRecord
  2
LiberationMono-Italic
 70
0
 40
0.0
 41
1.0
 50
0.0
 71
0
 42
2.5
  3
LiberationMono-Italic.ttf
  4

  0
ENDTAB
  0
TABLE
  2
VIEW
  5
7
330
0
100
AcDbSymbolTable
 70
0
  0
ENDTAB
  0
TABLE
  2
UCS
  5
6
330
0
100
AcDbSymbolTable
 70
0
  0
ENDTAB
  0
TABLE
  2
APPID
  5
3
330
0
100
AcDbSymbolTable
 70
3
  0
APPID
  5
2A
330
3
100
AcDbSymbolTableRecord
100
AcDbRegAppTableRecord
  2
ACAD
 70
0
  0
APPID
  5
178
330
3
100
AcDbSymbolTableRecord
100
AcDbRegAppTableRecord
  2
HATCHBACKGROUNDCOLOR
 70
0
  0
APPID
  5
179
330
3
100
AcDbSymbolTableRecord
100
AcDbRegAppTableRecord
  2
EZDXF
 70
0
  0
ENDTAB
  0
TABLE
  2
DIMSTYLE
  5
4
330
0
100
AcDbSymbolTable
 70
12
100
AcDbDimStyleTable
  0
DIMSTYLE
105
2B
330
4
100
AcDbSymbolTableRecord
100
AcDbDimStyleTableRecord
  2
Standard
 70
0
 40
1.0
 41
2.5
 42
0.625
 43
3.75
 44
1.25
 45
0.0
 46
0.0
 47
0.0
 48
0.0
 49
2.5
140
2.5
141
2.5
142
0.0
143
0.03937007874
144
1.0
145
0.0
146
1.0
147
0.625
148
0.0
 69
0
 70
0
 71
0
 72
0
 73
0
 74
0
 75
0
 76
0
 77
1
 78
8
 79
3
170
0
171
3
172
1
173
0
174
0
175
0
176
0
177
0
178
0
179
2
271
2
272
2
273
2
274
3
275
0
276
0
277
2
278
44
279
0
280
0
281
0
282
0
283
0
284
8
285
0
286
0
288
0
289
3
290
0
371
-2
372
-2
  0
DIMSTYLE
105
73
330
4
100
AcDbSymbolTableRecord
100
AcDbDimStyleTableRecord
  2
EZDXF
 70
0
 40
1.0
 41
0.175
 42
0.125
 43
3.75
 44
0.375
 45
0.0
 46
0.0
 47
0.0
 48
0.0
 49
2.5
140
0.25
141
2.5
142
0.0
143
0.03937007874
144
100.0
145
0.0
146
0.5
147
0.1
148
0.0
 69
0
 70
0
 71
0
 72
0
 73
0
 74
0
 75
0
 76
0
 77
1
 78
12
 79
3
170
0
171
3
172
1
173
0
174
0
175
0
176
0
177
0
178
0
179
2
271
2
272
2
273
2
274
3
275
0
276
0
277
2
278
46
279
2
280
0
281
0
282
0
283
0
284
8
285
0
286
0
288
1
289
3
290
0
340
4C
342
74
371
-2
372
-2
  0
DIMSTYLE
105
7C
330
4
100
AcDbSymbolTableRecord
100
AcDbDimStyleTableRecord
  2
EZ_M_100_H25_CM
 70
0
 40
1.0
 41
0.25
 42
0.125
 43
3.75
 44
0.375
 45
0.0
 46
0.0
 47
0.0
 48
0.0
 49
2.5
140
0.25
141
2.5
142
0.125
143
0.03937007874
144
100.0
145
0.0
146
0.5
147
0.1
148
0.0
 69
0
 70
0
 71
0
 72
0
 73
0
 74
0
 75
0
 76
0
 77
1
 78
12
 79
3
170
0
171
3
172
1
173
0
174
0
175
0
176
0
177
0
178
0
179
2
271
2
272
2
273
2
274
3
275
0
276
0
277
2
278
46
279
2
280
0
281
0
282
0
283
0
284
8
285
0
286
0
288
1
289
3
290
0
340
4C
371
-2
372
-2
  0
DIMSTYLE
105
7D
330
4
100
AcDbSymbolTableRecord
100
AcDbDimStyleTableRecord
  2
EZ_M_50_H25_CM
 70
0
 40
1.0
 41
0.125
 42
0.0625
 43
3.75
 44
0.1875
 45
0.0
 46
0.0
 47
0.0
 48
0.0
 49
2.5
140
0.125
141
2.5
142
0.0625
143
0.03937007874
144
100.0
145
0.0
146
0.5
147
0.05
148
0.0
 69
0
 70
0
 71
0
 72
0
 73
0
 74
0
 75
0
 76
0
 77
1
 78
12
 79
3
170
0
171
3
172
1
173
0
174
0
175
0
176
0
177
0
178
0
179
2
271
2
272
2
273
2
274
3
275
0
276
0
277
2
278
46
279
2
280
0
281
0
282
0
283
0
284
8
285
0
286
0
288
1
289
3
290
0
340
4C
371
-2
372
-2
  0
DIMSTYLE
105
7E
330
4
100
AcDbSymbolTableRecord
100
AcDbDimStyleTableRecord
  2
EZ_M_25_H25_CM
 70
0
 40
1.0
 41
0.0625
 42
0.03125
 43
3.75
 44
0.09375
 45
0.0
 46
0.0
 47
0.0
 48
0.0
 49
2.5
140
0.0625
141
2.5
142
0.03125
143
0.03937007874
144
100.0
145
0.0
146
0.5
147
0.025
148
0.0
 69
0
 70
0
 71
0
 72
0
 73
0
 74
0
 75
0
 76
0
 77
1
 78
12
 79
3
170
0
171
3
172
1
173
0
174
0
175
0
176
0
177
0
178
0
179
2
271
2
272
2
273
2
274
3
275
0
276
0
277
2
278
46
279
2
280
0
281
0
282
0
283
0
284
8
285
0
286
0
288
1
289
3
290
0
340
4C
371
-2
372
-2
  0
DIMSTYLE
105
7F
330
4
100
AcDbSymbolTableRecord
100
AcDbDimStyleTableRecord
  2
EZ_M_20_H25_CM
 70
0
 40
1.0
 41
0.05
 42
0.025
 43
3.75
 44
0.07500000000000001
 45
0.0
 46
0.0
 47
0.0
 48
0.0
 49
2.5
140
0.05
141
2.5
142
0.025
143
0.03937007874
144
100.0
145
0.0
146
0.5
147
0.020000000000000004
148
0.0
 69
0
 70
0
 71
0
 72
0
 73
0
 74
0
 75
0
 76
0
 77
1
 78
12
 79
3
170
0
171
3
172
1
173
0
174
0
175
0
176
0
177
0
178
0
179
2
271
2
272
2
273
2
274
3
275
0
276
0
277
2
278
46
279
2
280
0
281
0
282
0
283
0
284
8
285
0
286
0
288
1
289
3
290
0
340
4C
371
-2
372
-2
  0
DIMSTYLE
105
80
330
4
100
AcDbSymbolTableRecord
100
AcDbDimStyleTableRecord
  2
EZ_M_10_H25_CM
 70
0
 40
1.0
 41
0.025
 42
0.0125
 43
3.75
 44
0.037500000000000006
 45
0.0
 46
0.0
 47
0.0
 48
0.0
 49
2.5
140
0.025
141
2.5
142
0.0125
143
0.03937007874
144
100.0
145
0.0
146
0.5
147
0.010000000000000002
148
0.0
 69
0
 70
0
 71
0
 72
0
 73
0
 74
0
 75
0
 76
0
 77
1
 78
12
 79
3
170
0
171
3
172
1
173
0
174
0
175
0
176
0
177
0
178
0
179
2
271
2
272
2
273
2
274
3
275
0
276
0
277
2
278
46
279
2
280
0
281
0
282
0
283
0
284
8
285
0
286
0
288
1
289
3
290
0
340
4C
371
-2
372
-2
  0
DIMSTYLE
105
81
330
4
100
AcDbSymbolTableRecord
100
AcDbDimStyleTableRecord
  2
EZ_M_5_H25_CM
 70
0
 40
1.0
 41
0.0125
 42
0.00625
 43
3.75
 44
0.018750000000000003
 45
0.0
 46
0.0
 47
0.0
 48
0.0
 49
2.5
140
0.0125
141
2.5
142
0.00625
143
0.03937007874
144
100.0
145
0.0
146
0.5
147
0.005000000000000001
148
0.0
 69
0
 70
0
 71
0
 72
0
 73
0
 74
0
 75
0
 76
0
 77
1
 78
12
 79
3
170
0
171
3
172
1
173
0
174
0
175
0
176
0
177
0
178
0
179
2
271
2
272
2
273
2
274
3
275
0
276
0
277
2
278
46
279
2
280
0
281
0
282
0
283
0
284
8
285
0
286
0
288
1
289
3
290
0
340
4C
371
-2
372
-2
  0
DIMSTYLE
105
82
330
4
100
AcDbSymbolTableRecord
100
AcDbDimStyleTableRecord
  2
EZ_M_1_H25_CM
 70
0
 40
1.0
 41
0.0025
 42
0.00125
 43
3.75
 44
0.00375
 45
0.0
 46
0.0
 47
0.0
 48
0.0
 49
2.5
140
0.0025
141
2.5
142
0.00125
143
0.03937007874
144
100.0
145
0.0
146
0.5
147
0.001
148
0.0
 69
0
 70
0
 71
0
 72
0
 73
0
 74
0
 75
0
 76
0
 77
1
 78
12
 79
3
170
0
171
3
172
1
173
0
174
0
175
0
176
0
177
0
178
0
179
2
271
2
272
2
273
2
274
3
275
0
276
0
277
2
278
46
279
2
280
0
281
0
282
0
283
0
284
8
285
0
286
0
288
1
289
3
290
0
340
4C
371
-2
372
-2
  0
DIMSTYLE
105
83
330
4
100
AcDbSymbolTableRecord
100
AcDbDimStyleTableRecord
  2
EZ_RADIUS
 70
0
 40
1.0
 41
0.25
 42
0.125
 43
3.75
 44
0.375
 45
0.0
 46
0.0
 47
0.0
 48
0.0
 49
2.5
140
0.25
141
0.0
142
0.0
143
0.03937007874
144
100.0
145
0.0
146
0.5
147
0.1
148
0.0
 69
0
 70
0
 71
0
 72
0
 73
0
 74
0
 75
0
 76
0
 77
1
 78
12
 79
3
170
0
171
3
172
0
173
0
174
0
175
0
176
0
177
0
178
0
179
2
271
2
272
2
273
2
274
3
275
0
276
0
277
2
278
46
279
1
280
0
281
0
282
0
283
0
284
8
285
0
286
0
288
1
289
3
290
0
340
4C
342
84
371
-2
372
-2
  0
DIMSTYLE
105
88
330
4
100
AcDbSymbolTableRecord
100
AcDbDimStyleTableRecord
  2
EZ_RADIUS_INSIDE
 70
0
 40
1.0
 41
0.25
 42
0.125
 43
3.75
 44
0.375
 45
0.0
 46
0.0
 47
0.0
 48
0.0
 49
2.5
140
0.25
141
0.0
142
0.0
143
0.03937007874
144
100.0
145
0.0
146
0.5
147
0.1
148
0.0
 69
0
 70
0
 71
0
 72
0
 73
0
 74
0
 75
0
 76
0
 77
0
 78
12
 79
3
170
0
171
3
172
0
173
0
174
1
175
0
176
0
177
0
178
0
179
2
271
2
272
2
273
2
274
3
275
0
276
0
277
2
278
46
279
0
280
0
281
0
282
0
283
0
284
8
285
0
286
0
288
1
289
0
290
0
340
4C
342
84
371
-2
372
-2
  0
DIMSTYLE
105
89
330
4
100
AcDbSymbolTableRecord
100
AcDbDimStyleTableRecord
  2
EZ_CURVED
 70
0
 40
1.0
 41
0.25
 42
0.125
 43
3.75
 44
0.375
 45
0.0
 46
0.0
 47
0.0
 48
0.0
 49
2.5
140
0.25
141
2.5
142
0.0
143
0.03937007874
144
100.0
145
0.0
146
0.5
147
0.1
148
0.0
 69
0
 70
0
 71
0
 72
0
 73
0
 74
0
 75
0
 76
0
 77
1
 78
12
 79
2
 90
2
170
0
171
3
172
1
173
0
174
0
175
0
176
0
177
0
178
0
179
2
271
2
272
2
273
2
274
3
275
0
276
0
277
2
278
46
279
2
280
0
281
0
282
0
283
0
284
8
285
0
286
0
288
1
289
3
290
0
340
4C
371
-2
372
-2
  0
ENDTAB
  0
TABLE
  2
BLOCK_RECORD
  5
9
330
0
100
AcDbSymbolTable
 70
5
  0
BLOCK_RECORD
  5
17
330
9
100
AcDbSymbolTableRecord
100
AcDbBlockTableRecord
  2
*Model_Space
340
1A
 70
0
280
1
281
0
  0
BLOCK_RECORD
  5
1B
330
9
100
AcDbSymbolTableRecord
100
AcDbBlockTableRecord
  2
*Paper_Space
340
1E
 70
0
280
1
281
0
  0
BLOCK_RECORD
  5
74
330
9
100
AcDbSymbolTableRecord
100
AcDbBlockTableRecord
  2
_ARCHTICK
340
0
 70
0
280
1
281
0
  0
BLOCK_RECORD
  5
78
330
9
100
AcDbSymbolTableRecord
100
AcDbBlockTableRecord
  2
_CLOSEDFILLED
340
0
 70
0
280
1
281
0
  0
BLOCK_RECORD
  5
84
330
9
100
AcDbSymbolTableRecord
100
AcDbBlockTableRecord
  2
_CLOSEDBLANK
340
0
 70
0
280
1
281
0
  0
ENDTAB
  0
ENDSEC
  0
SECTION
  2
BLOCKS
  0
BLOCK
  5
18
330
17
100
AcDbEntity
  8
0
100
AcDbBlockBegin
  2
*Model_Space
 70
0
 10
0.0
 20
0.0
 30
0.0
  3
*Model_Space
  1

  0
ENDBLK
  5
19
330
17
100
AcDbEntity
  8
0
100
AcDbBlockEnd
  0
BLOCK
  5
1C
330
1B
100
AcDbEntity
  8
0
100
AcDbBlockBegin
  2
*Paper_Space
 70
0
 10
0.0
 20
0.0
 30
0.0
  3
*Paper_Space
  1

  0
ENDBLK
  5
1D
330
1B
100
AcDbEntity
  8
0
100
AcDbBlockEnd
  0
BLOCK
  5
75
330
74
100
AcDbEntity
  8
0
100
AcDbBlockBegin
  2
_ARCHTICK
 70
0
 10
0.0
 20
0.0
 30
0.0
  3
_ARCHTICK
  1

  0
LWPOLYLINE
  5
77
330
74
100
AcDbEntity
  8
0
  6
BYBLOCK
 62
0
100
AcDbPolyline
 90
2
 70
0
 43
0.15
 10
-0.5
 20
-0.5
 10
0.5
 20
0.5
  0
ENDBLK
  5
76
330
74
100
AcDbEntity
  8
0
100
AcDbBlockEnd
  0
BLOCK
  5
79
330
78
100
AcDbEntity
  8
0
100
AcDbBlockBegin
  2
_CLOSEDFILLED
 70
0
 10
0.0
 20
0.0
 30
0.0
  3
_CLOSEDFILLED
  1

  0
SOLID
  5
7B
330
78
100
AcDbEntity
  8
0
  6
BYBLOCK
 62
0
100
AcDbTrace
 10
-1.0
 20
0.16439898372402537
 30
0.0
 11
0.0
 21
0.0
 31
0.0
 12
-1.0
 22
-0.16439898372402537
 32
0.0
 13
-1.0
 23
-0.16439898372402537
 33
0.0
  0
ENDBLK
  5
7A
330
78
100
AcDbEntity
  8
0
100
AcDbBlockEnd
  0
BLOCK
  5
85
330
84
100
AcDbEntity
  8
0
100
AcDbBlockBegin
  2
_CLOSEDBLANK
 70
0
 10
0.0
 20
0.0
 30
0.0
  3
_CLOSEDBLANK
  1

  0
LWPOLYLINE
  5
87
330
84
100
AcDbEntity
  8
0
  6
BYBLOCK
 62
0
100
AcDbPolyline
 90
3
 70
1
 10
-1.0
 20
0.16439898372402537
 10
0.0
 20
0.0
 10
-1.0
 20
-0.16439898372402537
  0
ENDBLK
  5
86
330
84
100
AcDbEntity
  8
0
100
AcDbBlockEnd
  0
ENDSEC
  0
SECTION
  2
ENTITIES
  0
LWPOLYLINE
  5
8C
330
17
100
AcDbEntity
  8
Front elevation
100
AcDbPolyline
 90
4
 70
0
 10
11.10236220472441
 20
0.0
 10
11.10236220472441
 20
92.99212598425197
 10
51.102362204724415
 20
92.99212598425197
 10
51.102362204724415
 20
0.0
  0
LWPOLYLINE
  5
8D
330
17
100
AcDbEntity
  8
Front elevation
  6
DASHED
100
AcDbPolyline
 90
4
 70
0
 10
7.086614173228346
 20
0.0
 10
7.086614173228346
 20
97.00787401574803
 10
55.118110236220474
 20
97.00787401574803
 10
55.118110236220474
 20
0.0
  0
LWPOLYLINE
  5
8E
330
17
100
AcDbEntity
  8
Front elevation
100
AcDbPolyline
 90
5
 70
0
 10
13.11023622047244
 20
90.98425196850394
 10
31.102362204724407
 20
90.98425196850394
 10
31.102362204724407
 20
0.0
 10
13.11023622047244
 20
0.0
 10
13.11023622047244
 20
90.98425196850394
  0
LINE
  5
8F
330
17
100
AcDbEntity
  8
Front elevation
100
AcDbLine
 10
17.04724409448819
 20
87.04724409448819
 30
0.0
 11
27.16535433070866
 21
87.04724409448819
 31
0.0
  0
LINE
  5
90
330
17
100
AcDbEntity
  8
Front elevation
100
AcDbLine
 10
17.04724409448819
 20
9.05511811023622
 30
0.0
 11
27.16535433070866
 21
9.05511811023622
 31
0.0
  0
LINE
  5
91
330
17
100
AcDbEntity
  8
Front elevation
100
AcDbLine
 10
17.04724409448819
 20
42.24409448818898
 30
0.0
 11
17.04724409448819
 21
33.188976377952756
 31
0.0
  0
LINE
  5
92
330
17
100
AcDbEntity
  8
Front elevation
100
AcDbLine
 10
27.16535433070866
 20
42.24409448818898
 30
0.0
 11
27.16535433070866
 21
33.188976377952756
 31
0.0
  0
LINE
  5
93
330
17
100
AcDbEntity
  8
Front elevation
100
AcDbLine
 10
17.04724409448819
 20
90.98425196850394
 30
0.0
 11
17.04724409448819
 21
87.04724409448819
 31
0.0
  0
LINE
  5
94
330
17
100
AcDbEntity
  8
Front elevation
100
AcDbLine
 10
27.16535433070866
 20
90.98425196850394
 30
0.0
 11
27.16535433070866
 21
87.04724409448819
 31
0.0
  0
LINE
  5
95
330
17
100
AcDbEntity
  8
Front elevation
100
AcDbLine
 10
17.04724409448819
 20
9.05511811023622
 30
0.0
 11
17.04724409448819
 21
0.0
 31
0.0
  0
LINE
  5
96
330
17
100
AcDbEntity
  8
Front elevation
100
AcDbLine
 10
27.16535433070866
 20
9.05511811023622
 30
0.0
 11
27.16535433070866
 21
0.0
 31
0.0
  0
LWPOLYLINE
  5
97
330
17
100
AcDbEntity
  8
Front elevation
100
AcDbPolyline
 90
5
 70
0
 10
17.04724409448819
 20
87.04724409448819
 10
27.16535433070866
 20
87.04724409448819
 10
27.16535433070866
 20
42.24409448818898
 10
17.04724409448819
 20
42.24409448818898
 10
17.04724409448819
 20
87.04724409448819
  0
LWPOLYLINE
  5
98
330
17
100
AcDbEntity
  8
Front elevation
100
AcDbPolyline
 90
5
 70
0
 10
17.834645669291337
 20
86.25984251968504
 10
26.37795275590551
 20
86.25984251968504
 10
26.37795275590551
 20
43.03149606299213
 10
17.834645669291337
 20
43.03149606299213
 10
17.834645669291337
 20
86.25984251968504
  0
LINE
  5
99
330
17
100
AcDbEntity
  8
Front elevation
100
AcDbLine
 10
17.04724409448819
 20
87.04724409448819
 30
0.0
 11
17.834645669291337
 21
86.25984251968504
 31
0.0
  0
LINE
  5
9A
330
17
100
AcDbEntity
  8
Front elevation
100
AcDbLine
 10
27.16535433070866
 20
87.04724409448819
 30
0.0
 11
26.37795275590551
 21
86.25984251968504
 31
0.0
  0
LINE
  5
9B
330
17
100
AcDbEntity
  8
Front elevation
100
AcDbLine
 10
17.04724409448819
 20
42.24409448818898
 30
0.0
 11
17.834645669291337
 21
43.031496062992126
 31
0.0
  0
LINE
  5
9C
330
17
100
AcDbEntity
  8
Front elevation
100
AcDbLine
 10
27.16535433070866
 20
42.24409448818898
 30
0.0
 11
26.37795275590551
 21
43.031496062992126
 31
0.0
  0
POLYLINE
  5
9D
330
17
100
AcDbEntity
  8
Front elevation
100
AcDb2dPolyline
 66
1
 10
0.0
 20
0.0
 30
0.0
 70
0
  0
VERTEX
  5
9E
330
9D
100
AcDbEntity
  8
Front elevation
100
AcDbVertex
100
AcDb2dVertex
 10
18.858267716535433
 20
46.417322834645674
 30
0.0
 70
0
  0
VERTEX
  5
9F
330
9D
100
AcDbEntity
  8
Front elevation
100
AcDbVertex
100
AcDb2dVertex
 10
18.858267716535433
 20
82.8740157480315
 30
0.0
 70
0
  0
SEQEND
  5
A0
330
9D
100
AcDbEntity
  8
Front elevation
  0
SPLINE
  5
A1
330
17
100
AcDbEntity
  8
Front elevation
100
AcDbSpline
 70
0
 71
3
 72
14
 73
10
 74
0
 40
0.0
 40
0.0
 40
0.0
 40
0.0
 40
1.0
 40
1.0
 40
1.0
 40
2.0
 40
2.0
 40
2.0
 40
3.0
 40
3.0
 40
3.0
 40
3.0
 10
18.858267716535433
 20
82.8740157480315
 30
0.0
 10
19.037937538301627
 20
82.8740157480315
 30
0.0
 10
19.214480110214534
 20
82.92132018760528
 30
0.0
 10
19.37007874015748
 20
83.01115509848837
 30
0.0
 10
19.525677370100425
 20
83.10099000937147
 30
0.0
 10
19.654915502439557
 20
83.2302281417106
 30
0.0
 10
19.744750413322652
 20
83.38582677165354
 30
0.0
 10
19.83458532420575
 20
83.5414254015965
 30
0.0
 10
19.881889763779526
 20
83.7179679735094
 30
0.0
 10
19.881889763779526
 20
83.8976377952756
 30
0.0
  0
SPLINE
  5
A2
330
17
100
AcDbEntity
  8
Front elevation
100
AcDbSpline
 70
0
 71
3
 72
11
 73
7
 74
0
 40
0.0
 40
0.0
 40
0.0
 40
0.0
 40
1.0
 40
1.0
 40
1.0
 40
2.0
 40
2.0
 40
2.0
 40
2.0
 10
19.881889763779526
 20
83.8976377952756
 30
0.0
 10
20.994094488188978
 20
83.8976377952756
 30
0.0
 10
20.727165354330708
 20
85.23622047244095
 30
0.0
 10
22.106299212598422
 20
85.23622047244095
 30
0.0
 10
23.48543307086614
 20
85.23622047244095
 30
0.0
 10
23.218503937007874
 20
83.8976377952756
 30
0.0
 10
24.330708661417322
 20
83.8976377952756
 30
0.0
  0
SPLINE
  5
A3
330
17
100
AcDbEntity
  8
Front elevation
100
AcDbSpline
 70
0
 71
3
 72
14
 73
10
 74
0
 40
0.0
 40
0.0
 40
0.0
 40
0.0
 40
1.0
 40
1.0
 40
1.0
 40
2.0
 40
2.0
 40
2.0
 40
3.0
 40
3.0
 40
3.0
 40
3.0
 10
24.330708661417322
 20
83.8976377952756
 30
0.0
 10
24.330708661417322
 20
83.7179679735094
 30
0.0
 10
24.378013100991097
 20
83.5414254015965
 30
0.0
 10
24.467848011874196
 20
83.38582677165354
 30
0.0
 10
24.557682922757294
 20
83.2302281417106
 30
0.0
 10
24.686921055096423
 20
83.10099000937147
 30
0.0
 10
24.84251968503937
 20
83.01115509848837
 30
0.0
 10
24.998118314982317
 20
82.92132018760528
 30
0.0
 10
25.174660886895225
 20
82.8740157480315
 30
0.0
 10
25.354330708661415
 20
82.8740157480315
 30
0.0
  0
POLYLINE
  5
A4
330
17
100
AcDbEntity
  8
Front elevation
100
AcDb2dPolyline
 66
1
 10
0.0
 20
0.0
 30
0.0
 70
0
  0
VERTEX
  5
A5
330
A4
100
AcDbEntity
  8
Front elevation
100
AcDbVertex
100
AcDb2dVertex
 10
25.354330708661415
 20
82.8740157480315
 30
0.0
 70
0
  0
VERTEX
  5
A6
330
A4
100
AcDbEntity
  8
Front elevation
100
AcDbVertex
100
AcDb2dVertex
 10
25.354330708661415
 20
46.417322834645674
 30
0.0
 70
0
  0
SEQEND
  5
A7
330
A4
100
AcDbEntity
  8
Front elevation
  0
SPLINE
  5
A8
330
17
100
AcDbEntity
  8
Front elevation
100
AcDbSpline
 70
0
 71
3
 72
14
 73
10
 74
0
 40
0.0
 40
0.0
 40
0.0
 40
0.0
 40
1.0
 40
1.0
 40
1.0
 40
2.0
 40
2.0
 40
2.0
 40
3.0
 40
3.0
 40
3.0
 40
3.0
 10
25.354330708661415
 20
46.417322834645674
 30
0.0
 10
25.174660886895225
 20
46.417322834645674
 30
0.0
 10
24.998118314982317
 20
46.37001839507189
 30
0.0
 10
24.84251968503937
 20
46.2801834841888
 30
0.0
 10
24.686921055096423
 20
46.190348573305705
 30
0.0
 10
24.557682922757294
 20
46.06111044096657
 30
0.0
 10
24.467848011874196
 20
45.90551181102363
 30
0.0
 10
24.378013100991097
 20
45.74991318108068
 30
0.0
 10
24.330708661417322
 20
45.573370609167775
 30
0.0
 10
24.330708661417322
 20
45.39370078740158
 30
0.0
  0
SPLINE
  5
A9
330
17
100
AcDbEntity
  8
Front elevation
100
AcDbSpline
 70
0
 71
3
 72
11
 73
7
 74
0
 40
0.0
 40
0.0
 40
0.0
 40
0.0
 40
1.0
 40
1.0
 40
1.0
 40
2.0
 40
2.0
 40
2.0
 40
2.0
 10
24.330708661417322
 20
45.39370078740158
 30
0.0
 10
23.218503937007874
 20
45.39370078740158
 30
0.0
 10
23.48543307086614
 20
44.05511811023622
 30
0.0
 10
22.106299212598422
 20
44.05511811023622
 30
0.0
 10
20.727165354330708
 20
44.05511811023622
 30
0.0
 10
20.994094488188978
 20
45.39370078740158
 30
0.0
 10
19.881889763779526
 20
45.39370078740158
 30
0.0
  0
SPLINE
  5
AA
330
17
100
AcDbEntity
  8
Front elevation
100
AcDbSpline
 70
0
 71
3
 72
14
 73
10
 74
0
 40
0.0
 40
0.0
 40
0.0
 40
0.0
 40
1.0
 40
1.0
 40
1.0
 40
2.0
 40
2.0
 40
2.0
 40
3.0
 40
3.0
 40
3.0
 40
3.0
 10
19.881889763779526
 20
45.39370078740158
 30
0.0
 10
19.881889763779526
 20
45.573370609167775
 30
0.0
 10
19.83458532420575
 20
45.74991318108068
 30
0.0
 10
19.744750413322652
 20
45.90551181102363
 30
0.0
 10
19.654915502439557
 20
46.06111044096657
 30
0.0
 10
19.525677370100425
 20
46.190348573305705
 30
0.0
 10
19.37007874015748
 20
46.2801834841888
 30
0.0
 10
19.214480110214534
 20
46.37001839507189
 30
0.0
 10
19.037937538301627
 20
46.417322834645674
 30
0.0
 10
18.858267716535433
 20
46.417322834645674
 30
0.0
  0
CIRCLE
  5
AB
330
17
100
AcDbEntity
  8
Front elevation
100
AcDbCircle
 10
18.960629921259844
 20
84.0
 30
0.0
 40
9.0
  0
CIRCLE
  5
AC
330
17
100
AcDbEntity
  8
Front elevation
100
AcDbCircle
 10
18.960629921259844
 20
84.0
 30
0.0
 40
3.6
  0
CIRCLE
  5
AD
330
17
100
AcDbEntity
  8
Front elevation
100
AcDbCircle
 10
25.251968503937007
 20
84.0
 30
0.0
 40
9.0
  0
CIRCLE
  5
AE
330
17
100
AcDbEntity
  8
Front elevation
100
AcDbCircle
 10
25.251968503937007
 20
84.0
 30
0.0
 40
3.6
  0
CIRCLE
  5
AF
330
17
100
AcDbEntity
  8
Front elevation
100
AcDbCircle
 10
18.960629921259844
 20
45.29133858267717
 30
0.0
 40
9.0
  0
CIRCLE
  5
B0
330
17
100
AcDbEntity
  8
Front elevation
100
AcDbCircle
 10
18.960629921259844
 20
45.29133858267717
 30
0.0
 40
3.6
  0
CIRCLE
  5
B1
330
17
100
AcDbEntity
  8
Front elevation
100
AcDbCircle
 10
25.251968503937007
 20
45.29133858267717
 30
0.0
 40
9.0
  0
CIRCLE
  5
B2
330
17
100
AcDbEntity
  8
Front elevation
100
AcDbCircle
 10
25.251968503937007
 20
45.29133858267717
 30
0.0
 40
3.6
  0
LWPOLYLINE
  5
B3
330
17
100
AcDbEntity
  8
Front elevation
100
AcDbPolyline
 90
5
 70
0
 10
17.04724409448819
 20
33.18897637795276
 10
27.16535433070866
 20
33.18897637795276
 10
27.16535433070866
 20
9.055118110236222
 10
17.04724409448819
 20
9.055118110236222
 10
17.04724409448819
 20
33.18897637795276
  0
LWPOLYLINE
  5
B4
330
17
100
AcDbEntity
  8
Front elevation
100
AcDbPolyline
 90
5
 70
0
 10
17.834645669291337
 20
32.40157480314961
 10
26.37795275590551
 20
32.40157480314961
 10
26.37795275590551
 20
9.842519685039377
 10
17.834645669291337
 20
9.842519685039377
 10
17.834645669291337
 20
32.40157480314961
  0
LINE
  5
B5
330
17
100
AcDbEntity
  8
Front elevation
100
AcDbLine
 10
17.04724409448819
 20
33.188976377952756
 30
0.0
 11
17.834645669291337
 21
32.40157480314961
 31
0.0
  0
LINE
  5
B6
330
17
100
AcDbEntity
  8
Front elevation
100
AcDbLine
 10
27.16535433070866
 20
33.188976377952756
 30
0.0
 11
26.37795275590551
 21
32.40157480314961
 31
0.0
  0
LINE
  5
B7
330
17
100
AcDbEntity
  8
Front elevation
100
AcDbLine
 10
17.04724409448819
 20
9.05511811023622
 30
0.0
 11
17.834645669291337
 21
9.84251968503937
 31
0.0
  0
LINE
  5
B8
330
17
100
AcDbEntity
  8
Front elevation
100
AcDbLine
 10
27.16535433070866
 20
9.05511811023622
 30
0.0
 11
26.37795275590551
 21
9.84251968503937
 31
0.0
  0
POLYLINE
  5
B9
330
17
100
AcDbEntity
  8
Front elevation
100
AcDb2dPolyline
 66
1
 10
0.0
 20
0.0
 30
0.0
 70
0
  0
VERTEX
  5
BA
330
B9
100
AcDbEntity
  8
Front elevation
100
AcDbVertex
100
AcDb2dVertex
 10
18.858267716535433
 20
13.228346456692918
 30
0.0
 70
0
  0
VERTEX
  5
BB
330
B9
100
AcDbEntity
  8
Front elevation
100
AcDbVertex
100
AcDb2dVertex
 10
18.858267716535433
 20
29.015748031496067
 30
0.0
 70
0
  0
SEQEND
  5
BC
330
B9
100
AcDbEntity
  8
Front elevation
  0
SPLINE
  5
BD
330
17
100
AcDbEntity
  8
Front elevation
100
AcDbSpline
 70
0
 71
3
 72
14
 73
10
 74
0
 40
0.0
 40
0.0
 40
0.0
 40
0.0
 40
1.0
 40
1.0
 40
1.0
 40
2.0
 40
2.0
 40
2.0
 40
3.0
 40
3.0
 40
3.0
 40
3.0
 10
18.858267716535433
 20
29.015748031496067
 30
0.0
 10
19.037937538301627
 20
29.015748031496067
 30
0.0
 10
19.214480110214534
 20
29.063052471069852
 30
0.0
 10
19.37007874015748
 20
29.152887381952944
 30
0.0
 10
19.525677370100425
 20
29.242722292836035
 30
0.0
 10
19.654915502439557
 20
29.371960425175168
 30
0.0
 10
19.744750413322652
 20
29.527559055118118
 30
0.0
 10
19.83458532420575
 20
29.68315768506106
 30
0.0
 10
19.881889763779526
 20
29.859700256973966
 30
0.0
 10
19.881889763779526
 20
30.039370078740163
 30
0.0
  0
SPLINE
  5
BE
330
17
100
AcDbEntity
  8
Front elevation
100
AcDbSpline
 70
0
 71
3
 72
11
 73
7
 74
0
 40
0.0
 40
0.0
 40
0.0
 40
0.0
 40
1.0
 40
1.0
 40
1.0
 40
2.0
 40
2.0
 40
2.0
 40
2.0
 10
19.881889763779526
 20
30.039370078740163
 30
0.0
 10
20.994094488188978
 20
30.039370078740163
 30
0.0
 10
20.727165354330708
 20
31.37795275590552
 30
0.0
 10
22.106299212598422
 20
31.37795275590552
 30
0.0
 10
23.48543307086614
 20
31.37795275590552
 30
0.0
 10
23.218503937007874
 20
30.039370078740163
 30
0.0
 10
24.330708661417322
 20
30.039370078740163
 30
0.0
  0
SPLINE
  5
BF
330
17
100
AcDbEntity
  8
Front elevation
100
AcDbSpline
 70
0
 71
3
 72
14
 73
10
 74
0
 40
0.0
 40
0.0
 40
0.0
 40
0.0
 40
1.0
 40
1.0
 40
1.0
 40
2.0
 40
2.0
 40
2.0
 40
3.0
 40
3.0
 40
3.0
 40
3.0
 10
24.330708661417322
 20
30.039370078740163
 30
0.0
 10
24.330708661417322
 20
29.859700256973966
 30
0.0
 10
24.378013100991097
 20
29.68315768506106
 30
0.0
 10
24.467848011874196
 20
29.527559055118118
 30
0.0
 10
24.557682922757294
 20
29.371960425175168
 30
0.0
 10
24.686921055096423
 20
29.242722292836035
 30
0.0
 10
24.84251968503937
 20
29.152887381952944
 30
0.0
 10
24.998118314982317
 20
29.063052471069852
 30
0.0
 10
25.174660886895225
 20
29.015748031496067
 30
0.0
 10
25.354330708661415
 20
29.015748031496067
 30
0.0
  0
POLYLINE
  5
C0
330
17
100
AcDbEntity
  8
Front elevation
100
AcDb2dPolyline
 66
1
 10
0.0
 20
0.0
 30
0.0
 70
0
  0
VERTEX
  5
C1
330
C0
100
AcDbEntity
  8
Front elevation
100
AcDbVertex
100
AcDb2dVertex
 10
25.354330708661415
 20
29.015748031496067
 30
0.0
 70
0
  0
VERTEX
  5
C2
330
C0
100
AcDbEntity
  8
Front elevation
100
AcDbVertex
100
AcDb2dVertex
 10
25.354330708661415
 20
13.228346456692918
 30
0.0
 70
0
  0
SEQEND
  5
C3
330
C0
100
AcDbEntity
  8
Front elevation
  0
SPLINE
  5
C4
330
17
100
AcDbEntity
  8
Front elevation
100
AcDbSpline
 70
0
 71
3
 72
14
 73
10
 74
0
 40
0.0
 40
0.0
 40
0.0
 40
0.0
 40
1.0
 40
1.0
 40
1.0
 40
2.0
 40
2.0
 40
2.0
 40
3.0
 40
3.0
 40
3.0
 40
3.0
 10
25.354330708661415
 20
13.228346456692918
 30
0.0
 10
25.174660886895225
 20
13.228346456692918
 30
0.0
 10
24.998118314982317
 20
13.18104201711914
 30
0.0
 10
24.84251968503937
 20
13.091207106236041
 30
0.0
 10
24.686921055096423
 20
13.001372195352957
 30
0.0
 10
24.557682922757294
 20
12.872134063013817
 30
0.0
 10
24.467848011874196
 20
12.716535433070874
 30
0.0
 10
24.378013100991097
 20
12.560936803127916
 30
0.0
 10
24.330708661417322
 20
12.384394231215012
 30
0.0
 10
24.330708661417322
 20
12.20472440944883
 30
0.0
  0
SPLINE
  5
C5
330
17
100
AcDbEntity
  8
Front elevation
100
AcDbSpline
 70
0
 71
3
 72
11
 73
7
 74
0
 40
0.0
 40
0.0
 40
0.0
 40
0.0
 40
1.0
 40
1.0
 40
1.0
 40
2.0
 40
2.0
 40
2.0
 40
2.0
 10
24.330708661417322
 20
12.20472440944883
 30
0.0
 10
23.218503937007874
 20
12.20472440944883
 30
0.0
 10
23.48543307086614
 20
10.866141732283467
 30
0.0
 10
22.106299212598422
 20
10.866141732283467
 30
0.0
 10
20.727165354330708
 20
10.866141732283467
 30
0.0
 10
20.994094488188978
 20
12.20472440944883
 30
0.0
 10
19.881889763779526
 20
12.20472440944883
 30
0.0
  0
SPLINE
  5
C6
330
17
100
AcDbEntity
  8
Front elevation
100
AcDbSpline
 70
0
 71
3
 72
14
 73
10
 74
0
 40
0.0
 40
0.0
 40
0.0
 40
0.0
 40
1.0
 40
1.0
 40
1.0
 40
2.0
 40
2.0
 40
2.0
 40
3.0
 40
3.0
 40
3.0
 40
3.0
 10
19.881889763779526
 20
12.20472440944883
 30
0.0
 10
19.881889763779526
 20
12.384394231215012
 30
0.0
 10
19.83458532420575
 20
12.560936803127916
 30
0.0
 10
19.744750413322652
 20
12.716535433070874
 30
0.0
 10
19.654915502439557
 20
12.872134063013817
 30
0.0
 10
19.525677370100425
 20
13.001372195352957
 30
0.0
 10
19.37007874015748
 20
13.091207106236041
 30
0.0
 10
19.214480110214534
 20
13.18104201711914
 30
0.0
 10
19.037937538301627
 20
13.228346456692918
 30
0.0
 10
18.858267716535433
 20
13.228346456692918
 30
0.0
  0
CIRCLE
  5
C7
330
17
100
AcDbEntity
  8
Front elevation
100
AcDbCircle
 10
18.960629921259844
 20
30.141732283464563
 30
0.0
 40
9.0
  0
CIRCLE
  5
C8
330
17
100
AcDbEntity
  8
Front elevation
100
AcDbCircle
 10
18.960629921259844
 20
30.141732283464563
 30
0.0
 40
3.6
  0
CIRCLE
  5
C9
330
17
100
AcDbEntity
  8
Front elevation
100
AcDbCircle
 10
25.251968503937007
 20
30.141732283464563
 30
0.0
 40
9.0
  0
CIRCLE
  5
CA
330
17
100
AcDbEntity
  8
Front elevation
100
AcDbCircle
 10
25.251968503937007
 20
30.141732283464563
 30
0.0
 40
3.6
  0
CIRCLE
  5
CB
330
17
100
AcDbEntity
  8
Front elevation
100
AcDbCircle
 10
18.960629921259844
 20
12.102362204724413
 30
0.0
 40
9.0
  0
CIRCLE
  5
CC
330
17
100
AcDbEntity
  8
Front elevation
100
AcDbCircle
 10
18.960629921259844
 20
12.102362204724413
 30
0.0
 40
3.6
  0
CIRCLE
  5
CD
330
17
100
AcDbEntity
  8
Front elevation
100
AcDbCircle
 10
25.251968503937007
 20
12.102362204724413
 30
0.0
 40
9.0
  0
CIRCLE
  5
CE
330
17
100
AcDbEntity
  8
Front elevation
100
AcDbCircle
 10
25.251968503937007
 20
12.102362204724413
 30
0.0
 40
3.6
  0
CIRCLE
  5
CF
330
17
100
AcDbEntity
  8
Front elevation
100
AcDbCircle
 10
18.228346456692915
 20
37.71653543307087
 30
0.0
 40
27.5
  0
CIRCLE
  5
D0
330
17
100
AcDbEntity
  8
Front elevation
100
AcDbCircle
 10
18.228346456692915
 20
37.71653543307087
 30
0.0
 40
17.5
  0
CIRCLE
  5
D1
330
17
100
AcDbEntity
  8
Front elevation
100
AcDbCircle
 10
14.763779527559056
 20
37.71653543307087
 30
0.0
 40
17.0
  0
SPLINE
  5
D2
330
17
100
AcDbEntity
  8
Front elevation
100
AcDbSpline
 70
0
 71
3
 72
35
 73
31
 74
0
 40
0.0
 40
0.0
 40
0.0
 40
0.0
 40
1.0
 40
1.0
 40
1.0
 40
2.0
 40
2.0
 40
2.0
 40
3.0
 40
3.0
 40
3.0
 40
4.0
 40
4.0
 40
4.0
 40
5.0
 40
5.0
 40
5.0
 40
6.0
 40
6.0
 40
6.0
 40
7.0
 40
7.0
 40
7.0
 40
8.0
 40
8.0
 40
8.0
 40
9.0
 40
9.0
 40
9.0
 40
10.0
 40
10.0
 40
10.0
 40
10.0
 10
14.645669291338582
 20
37.75590551181103
 30
0.0
 10
14.62433425001811
 20
37.774988152889165
 30
0.0
 10
14.60793830584452
 20
37.79896009865495
 30
0.0
 10
14.597889772044535
 20
37.825762302801884
 30
0.0
 10
14.58784123824455
 20
37.852564506948816
 30
0.0
 10
14.584436297853673
 20
37.8814069678368
 30
0.0
 10
14.587967414821396
 20
37.9098122911341
 30
0.0
 10
14.591498531789117
 20
37.938217614431395
 30
0.0
 10
14.601861625563682
 20
37.9653485461618
 30
0.0
 10
14.618166568569768
 20
37.98887470207882
 30
0.0
 10
14.634471511575853
 20
38.01240085799583
 30
0.0
 10
14.656237711558962
 20
38.031628798796554
 30
0.0
 10
14.681595582540576
 20
38.04490695973635
 30
0.0
 10
14.706953453522189
 20
38.05818512067615
 30
0.0
 10
14.735155565941852
 20
38.0651221246555
 30
0.0
 10
14.763779527559059
 20
38.0651221246555
 30
0.0
 10
14.792403489176266
 20
38.0651221246555
 30
0.0
 10
14.820605601595929
 20
38.05818512067615
 30
0.0
 10
14.845963472577543
 20
38.04490695973635
 30
0.0
 10
14.871321343559154
 20
38.031628798796554
 30
0.0
 10
14.893087543542261
 20
38.01240085799582
 30
0.0
 10
14.909392486548347
 20
37.98887470207881
 30
0.0
 10
14.92569742955443
 20
37.96534854616179
 30
0.0
 10
14.936060523328996
 20
37.93821761443139
 30
0.0
 10
14.939591640296715
 20
37.90981229113409
 30
0.0
 10
14.943122757264437
 20
37.881406967836796
 30
0.0
 10
14.939717816873557
 20
37.8525645069488
 30
0.0
 10
14.92966928307357
 20
37.82576230280188
 30
0.0
 10
14.919620749273586
 20
37.798960098654945
 30
0.0
 10
14.9032248051
 20
37.774988152889165
 30
0.0
 10
14.881889763779528
 20
37.75590551181103
 30
0.0
  0
POLYLINE
  5
D3
330
17
100
AcDbEntity
  8
Front elevation
100
AcDb2dPolyline
 66
1
 10
0.0
 20
0.0
 30
0.0
 70
0
  0
VERTEX
  5
D4
330
D3
100
AcDbEntity
  8
Front elevation
100
AcDbVertex
100
AcDb2dVertex
 10
14.881889763779528
 20
37.75590551181103
 30
0.0
 70
0
  0
VERTEX
  5
D5
330
D3
100
AcDbEntity
  8
Front elevation
100
AcDbVertex
100
AcDb2dVertex
 10
14.940944881889763
 20
37.322834645669296
 30
0.0
 70
0
  0
VERTEX
  5
D6
330
D3
100
AcDbEntity
  8
Front elevation
100
AcDbVertex
100
AcDb2dVertex
 10
14.586614173228346
 20
37.322834645669296
 30
0.0
 70
0
  0
VERTEX
  5
D7
330
D3
100
AcDbEntity
  8
Front elevation
100
AcDbVertex
100
AcDb2dVertex
 10
14.645669291338582
 20
37.75590551181103
 30
0.0
 70
0
  0
SEQEND
  5
D8
330
D3
100
AcDbEntity
  8
Front elevation
  0
LWPOLYLINE
  5
D9
330
17
100
AcDbEntity
  8
Front elevation
100
AcDbPolyline
 90
5
 70
0
 10
31.102362204724407
 20
90.98425196850394
 10
49.09448818897637
 20
90.98425196850394
 10
49.09448818897637
 20
0.0
 10
31.102362204724407
 20
0.0
 10
31.102362204724407
 20
90.98425196850394
  0
LINE
  5
DA
330
17
100
AcDbEntity
  8
Front elevation
100
AcDbLine
 10
35.039370078740156
 20
87.04724409448819
 30
0.0
 11
45.15748031496063
 21
87.04724409448819
 31
0.0
  0
LINE
  5
DB
330
17
100
AcDbEntity
  8
Front elevation
100
AcDbLine
 10
35.039370078740156
 20
9.05511811023622
 30
0.0
 11
45.15748031496063
 21
9.05511811023622
 31
0.0
  0
LINE
  5
DC
330
17
100
AcDbEntity
  8
Front elevation
100
AcDbLine
 10
35.039370078740156
 20
42.24409448818898
 30
0.0
 11
35.039370078740156
 21
33.188976377952756
 31
0.0
  0
LINE
  5
DD
330
17
100
AcDbEntity
  8
Front elevation
100
AcDbLine
 10
45.15748031496063
 20
42.24409448818898
 30
0.0
 11
45.15748031496063
 21
33.188976377952756
 31
0.0
  0
LINE
  5
DE
330
17
100
AcDbEntity
  8
Front elevation
100
AcDbLine
 10
35.039370078740156
 20
90.98425196850394
 30
0.0
 11
35.039370078740156
 21
87.04724409448819
 31
0.0
  0
LINE
  5
DF
330
17
100
AcDbEntity
  8
Front elevation
100
AcDbLine
 10
45.15748031496063
 20
90.98425196850394
 30
0.0
 11
45.15748031496063
 21
87.04724409448819
 31
0.0
  0
LINE
  5
E0
330
17
100
AcDbEntity
  8
Front elevation
100
AcDbLine
 10
35.039370078740156
 20
9.05511811023622
 30
0.0
 11
35.039370078740156
 21
0.0
 31
0.0
  0
LINE
  5
E1
330
17
100
AcDbEntity
  8
Front elevation
100
AcDbLine
 10
45.15748031496063
 20
9.05511811023622
 30
0.0
 11
45.15748031496063
 21
0.0
 31
0.0
  0
LWPOLYLINE
  5
E2
330
17
100
AcDbEntity
  8
Front elevation
100
AcDbPolyline
 90
5
 70
0
 10
35.039370078740156
 20
87.04724409448819
 10
45.15748031496062
 20
87.04724409448819
 10
45.15748031496062
 20
42.24409448818898
 10
35.039370078740156
 20
42.24409448818898
 10
35.039370078740156
 20
87.04724409448819
  0
LWPOLYLINE
  5
E3
330
17
100
AcDbEntity
  8
Front elevation
100
AcDbPolyline
 90
5
 70
0
 10
35.826771653543304
 20
86.25984251968504
 10
44.37007874015748
 20
86.25984251968504
 10
44.37007874015748
 20
43.03149606299213
 10
35.826771653543304
 20
43.03149606299213
 10
35.826771653543304
 20
86.25984251968504
  0
LINE
  5
E4
330
17
100
AcDbEntity
  8
Front elevation
100
AcDbLine
 10
35.039370078740156
 20
87.04724409448819
 30
0.0
 11
35.826771653543304
 21
86.25984251968504
 31
0.0
  0
LINE
  5
E5
330
17
100
AcDbEntity
  8
Front elevation
100
AcDbLine
 10
45.15748031496063
 20
87.04724409448819
 30
0.0
 11
44.37007874015748
 21
86.25984251968504
 31
0.0
  0
LINE
  5
E6
330
17
100
AcDbEntity
  8
Front elevation
100
AcDbLine
 10
35.039370078740156
 20
42.24409448818898
 30
0.0
 11
35.826771653543304
 21
43.031496062992126
 31
0.0
  0
LINE
  5
E7
330
17
100
AcDbEntity
  8
Front elevation
100
AcDbLine
 10
45.15748031496063
 20
42.24409448818898
 30
0.0
 11
44.37007874015748
 21
43.031496062992126
 31
0.0
  0
POLYLINE
  5
E8
330
17
100
AcDbEntity
  8
Front elevation
100
AcDb2dPolyline
 66
1
 10
0.0
 20
0.0
 30
0.0
 70
0
  0
VERTEX
  5
E9
330
E8
100
AcDbEntity
  8
Front elevation
100
AcDbVertex
100
AcDb2dVertex
 10
36.8503937007874
 20
46.417322834645674
 30
0.0
 70
0
  0
VERTEX
  5
EA
330
E8
100
AcDbEntity
  8
Front elevation
100
AcDbVertex
100
AcDb2dVertex
 10
36.8503937007874
 20
82.8740157480315
 30
0.0
 70
0
  0
SEQEND
  5
EB
330
E8
100
AcDbEntity
  8
Front elevation
  0
SPLINE
  5
EC
330
17
100
AcDbEntity
  8
Front elevation
100
AcDbSpline
 70
0
 71
3
 72
14
 73
10
 74
0
 40
0.0
 40
0.0
 40
0.0
 40
0.0
 40
1.0
 40
1.0
 40
1.0
 40
2.0
 40
2.0
 40
2.0
 40
3.0
 40
3.0
 40
3.0
 40
3.0
 10
36.8503937007874
 20
82.8740157480315
 30
0.0
 10
37.0300635225536
 20
82.8740157480315
 30
0.0
 10
37.20660609446651
 20
82.92132018760528
 30
0.0
 10
37.36220472440945
 20
83.01115509848837
 30
0.0
 10
37.517803354352395
 20
83.10099000937147
 30
0.0
 10
37.64704148669152
 20
83.2302281417106
 30
0.0
 10
37.73687639757462
 20
83.38582677165354
 30
0.0
 10
37.82671130845772
 20
83.5414254015965
 30
0.0
 10
37.874015748031496
 20
83.7179679735094
 30
0.0
 10
37.874015748031496
 20
83.8976377952756
 30
0.0
  0
SPLINE
  5
ED
330
17
100
AcDbEntity
  8
Front elevation
100
AcDbSpline
 70
0
 71
3
 72
11
 73
7
 74
0
 40
0.0
 40
0.0
 40
0.0
 40
0.0
 40
1.0
 40
1.0
 40
1.0
 40
2.0
 40
2.0
 40
2.0
 40
2.0
 10
37.874015748031496
 20
83.8976377952756
 30
0.0
 10
38.98622047244095
 20
83.8976377952756
 30
0.0
 10
38.71929133858268
 20
85.23622047244095
 30
0.0
 10
40.09842519685039
 20
85.23622047244095
 30
0.0
 10
41.47755905511811
 20
85.23622047244095
 30
0.0
 10
41.21062992125984
 20
83.8976377952756
 30
0.0
 10
42.32283464566929
 20
83.8976377952756
 30
0.0
  0
SPLINE
  5
EE
330
17
100
AcDbEntity
  8
Front elevation
100
AcDbSpline
 70
0
 71
3
 72
14
 73
10
 74
0
 40
0.0
 40
0.0
 40
0.0
 40
0.0
 40
1.0
 40
1.0
 40
1.0
 40
2.0
 40
2.0
 40
2.0
 40
3.0
 40
3.0
 40
3.0
 40
3.0
 10
42.32283464566929
 20
83.8976377952756
 30
0.0
 10
42.32283464566929
 20
83.7179679735094
 30
0.0
 10
42.37013908524307
 20
83.5414254015965
 30
0.0
 10
42.459973996126166
 20
83.38582677165354
 30
0.0
 10
42.549808907009265
 20
83.2302281417106
 30
0.0
 10
42.67904703934839
 20
83.10099000937147
 30
0.0
 10
42.83464566929133
 20
83.01115509848837
 30
0.0
 10
42.990244299234284
 20
82.92132018760528
 30
0.0
 10
43.166786871147195
 20
82.8740157480315
 30
0.0
 10
43.346456692913385
 20
82.8740157480315
 30
0.0
  0
POLYLINE
  5
EF
330
17
100
AcDbEntity
  8
Front elevation
100
AcDb2dPolyline
 66
1
 10
0.0
 20
0.0
 30
0.0
 70
0
  0
VERTEX
  5
F0
330
EF
100
AcDbEntity
  8
Front elevation
100
AcDbVertex
100
AcDb2dVertex
 10
43.346456692913385
 20
82.8740157480315
 30
0.0
 70
0
  0
VERTEX
  5
F1
330
EF
100
AcDbEntity
  8
Front elevation
100
AcDbVertex
100
AcDb2dVertex
 10
43.346456692913385
 20
46.417322834645674
 30
0.0
 70
0
  0
SEQEND
  5
F2
330
EF
100
AcDbEntity
  8
Front elevation
  0
SPLINE
  5
F3
330
17
100
AcDbEntity
  8
Front elevation
100
AcDbSpline
 70
0
 71
3
 72
14
 73
10
 74
0
 40
0.0
 40
0.0
 40
0.0
 40
0.0
 40
1.0
 40
1.0
 40
1.0
 40
2.0
 40
2.0
 40
2.0
 40
3.0
 40
3.0
 40
3.0
 40
3.0
 10
43.346456692913385
 20
46.417322834645674
 30
0.0
 10
43.166786871147195
 20
46.417322834645674
 30
0.0
 10
42.990244299234284
 20
46.37001839507189
 30
0.0
 10
42.83464566929133
 20
46.2801834841888
 30
0.0
 10
42.67904703934839
 20
46.190348573305705
 30
0.0
 10
42.549808907009265
 20
46.06111044096657
 30
0.0
 10
42.459973996126166
 20
45.90551181102363
 30
0.0
 10
42.37013908524307
 20
45.74991318108068
 30
0.0
 10
42.32283464566929
 20
45.573370609167775
 30
0.0
 10
42.32283464566929
 20
45.39370078740158
 30
0.0
  0
SPLINE
  5
F4
330
17
100
AcDbEntity
  8
Front elevation
100
AcDbSpline
 70
0
 71
3
 72
11
 73
7
 74
0
 40
0.0
 40
0.0
 40
0.0
 40
0.0
 40
1.0
 40
1.0
 40
1.0
 40
2.0
 40
2.0
 40
2.0
 40
2.0
 10
42.32283464566929
 20
45.39370078740158
 30
0.0
 10
41.21062992125984
 20
45.39370078740158
 30
0.0
 10
41.47755905511811
 20
44.05511811023622
 30
0.0
 10
40.09842519685039
 20
44.05511811023622
 30
0.0
 10
38.71929133858268
 20
44.05511811023622
 30
0.0
 10
38.98622047244095
 20
45.39370078740158
 30
0.0
 10
37.874015748031496
 20
45.39370078740158
 30
0.0
  0
SPLINE
  5
F5
330
17
100
AcDbEntity
  8
Front elevation
100
AcDbSpline
 70
0
 71
3
 72
14
 73
10
 74
0
 40
0.0
 40
0.0
 40
0.0
 40
0.0
 40
1.0
 40
1.0
 40
1.0
 40
2.0
 40
2.0
 40
2.0
 40
3.0
 40
3.0
 40
3.0
 40
3.0
 10
37.874015748031496
 20
45.39370078740158
 30
0.0
 10
37.874015748031496
 20
45.573370609167775
 30
0.0
 10
37.82671130845772
 20
45.74991318108068
 30
0.0
 10
37.73687639757462
 20
45.90551181102363
 30
0.0
 10
37.64704148669152
 20
46.06111044096657
 30
0.0
 10
37.517803354352395
 20
46.190348573305705
 30
0.0
 10
37.36220472440945
 20
46.2801834841888
 30
0.0
 10
37.20660609446651
 20
46.37001839507189
 30
0.0
 10
37.0300635225536
 20
46.417322834645674
 30
0.0
 10
36.8503937007874
 20
46.417322834645674
 30
0.0
  0
CIRCLE
  5
F6
330
17
100
AcDbEntity
  8
Front elevation
100
AcDbCircle
 10
36.952755905511815
 20
84.0
 30
0.0
 40
9.0
  0
CIRCLE
  5
F7
330
17
100
AcDbEntity
  8
Front elevation
100
AcDbCircle
 10
36.952755905511815
 20
84.0
 30
0.0
 40
3.6
  0
CIRCLE
  5
F8
330
17
100
AcDbEntity
  8
Front elevation
100
AcDbCircle
 10
43.24409448818898
 20
84.0
 30
0.0
 40
9.0
  0
CIRCLE
  5
F9
330
17
100
AcDbEntity
  8
Front elevation
100
AcDbCircle
 10
43.24409448818898
 20
84.0
 30
0.0
 40
3.6
  0
CIRCLE
  5
FA
330
17
100
AcDbEntity
  8
Front elevation
100
AcDbCircle
 10
36.952755905511815
 20
45.29133858267717
 30
0.0
 40
9.0
  0
CIRCLE
  5
FB
330
17
100
AcDbEntity
  8
Front elevation
100
AcDbCircle
 10
36.952755905511815
 20
45.29133858267717
 30
0.0
 40
3.6
  0
CIRCLE
  5
FC
330
17
100
AcDbEntity
  8
Front elevation
100
AcDbCircle
 10
43.24409448818898
 20
45.29133858267717
 30
0.0
 40
9.0
  0
CIRCLE
  5
FD
330
17
100
AcDbEntity
  8
Front elevation
100
AcDbCircle
 10
43.24409448818898
 20
45.29133858267717
 30
0.0
 40
3.6
  0
LWPOLYLINE
  5
FE
330
17
100
AcDbEntity
  8
Front elevation
100
AcDbPolyline
 90
5
 70
0
 10
35.039370078740156
 20
33.18897637795276
 10
45.15748031496062
 20
33.18897637795276
 10
45.15748031496062
 20
9.055118110236222
 10
35.039370078740156
 20
9.055118110236222
 10
35.039370078740156
 20
33.18897637795276
  0
LWPOLYLINE
  5
FF
330
17
100
AcDbEntity
  8
Front elevation
100
AcDbPolyline
 90
5
 70
0
 10
35.826771653543304
 20
32.40157480314961
 10
44.37007874015748
 20
32.40157480314961
 10
44.37007874015748
 20
9.842519685039377
 10
35.826771653543304
 20
9.842519685039377
 10
35.826771653543304
 20
32.40157480314961
  0
LINE
  5
100
330
17
100
AcDbEntity
  8
Front elevation
100
AcDbLine
 10
35.039370078740156
 20
33.188976377952756
 30
0.0
 11
35.826771653543304
 21
32.40157480314961
 31
0.0
  0
LINE
  5
101
330
17
100
AcDbEntity
  8
Front elevation
100
AcDbLine
 10
45.15748031496063
 20
33.188976377952756
 30
0.0
 11
44.37007874015748
 21
32.40157480314961
 31
0.0
  0
LINE
  5
102
330
17
100
AcDbEntity
  8
Front elevation
100
AcDbLine
 10
35.039370078740156
 20
9.05511811023622
 30
0.0
 11
35.826771653543304
 21
9.84251968503937
 31
0.0
  0
LINE
  5
103
330
17
100
AcDbEntity
  8
Front elevation
100
AcDbLine
 10
45.15748031496063
 20
9.05511811023622
 30
0.0
 11
44.37007874015748
 21
9.84251968503937
 31
0.0
  0
POLYLINE
  5
104
330
17
100
AcDbEntity
  8
Front elevation
100
AcDb2dPolyline
 66
1
 10
0.0
 20
0.0
 30
0.0
 70
0
  0
VERTEX
  5
105
330
104
100
AcDbEntity
  8
Front elevation
100
AcDbVertex
100
AcDb2dVertex
 10
36.8503937007874
 20
13.228346456692918
 30
0.0
 70
0
  0
VERTEX
  5
106
330
104
100
AcDbEntity
  8
Front elevation
100
AcDbVertex
100
AcDb2dVertex
 10
36.8503937007874
 20
29.015748031496067
 30
0.0
 70
0
  0
SEQEND
  5
107
330
104
100
AcDbEntity
  8
Front elevation
  0
SPLINE
  5
108
330
17
100
AcDbEntity
  8
Front elevation
100
AcDbSpline
 70
0
 71
3
 72
14
 73
10
 74
0
 40
0.0
 40
0.0
 40
0.0
 40
0.0
 40
1.0
 40
1.0
 40
1.0
 40
2.0
 40
2.0
 40
2.0
 40
3.0
 40
3.0
 40
3.0
 40
3.0
 10
36.8503937007874
 20
29.015748031496067
 30
0.0
 10
37.0300635225536
 20
29.015748031496067
 30
0.0
 10
37.20660609446651
 20
29.063052471069852
 30
0.0
 10
37.36220472440945
 20
29.152887381952944
 30
0.0
 10
37.517803354352395
 20
29.242722292836035
 30
0.0
 10
37.64704148669152
 20
29.371960425175168
 30
0.0
 10
37.73687639757462
 20
29.527559055118118
 30
0.0
 10
37.82671130845772
 20
29.68315768506106
 30
0.0
 10
37.874015748031496
 20
29.859700256973966
 30
0.0
 10
37.874015748031496
 20
30.039370078740163
 30
0.0
  0
SPLINE
  5
109
330
17
100
AcDbEntity
  8
Front elevation
100
AcDbSpline
 70
0
 71
3
 72
11
 73
7
 74
0
 40
0.0
 40
0.0
 40
0.0
 40
0.0
 40
1.0
 40
1.0
 40
1.0
 40
2.0
 40
2.0
 40
2.0
 40
2.0
 10
37.874015748031496
 20
30.039370078740163
 30
0.0
 10
38.98622047244095
 20
30.039370078740163
 30
0.0
 10
38.71929133858268
 20
31.37795275590552
 30
0.0
 10
40.09842519685039
 20
31.37795275590552
 30
0.0
 10
41.47755905511811
 20
31.37795275590552
 30
0.0
 10
41.21062992125984
 20
30.039370078740163
 30
0.0
 10
42.32283464566929
 20
30.039370078740163
 30
0.0
  0
SPLINE
  5
10A
330
17
100
AcDbEntity
  8
Front elevation
100
AcDbSpline
 70
0
 71
3
 72
14
 73
10
 74
0
 40
0.0
 40
0.0
 40
0.0
 40
0.0
 40
1.0
 40
1.0
 40
1.0
 40
2.0
 40
2.0
 40
2.0
 40
3.0
 40
3.0
 40
3.0
 40
3.0
 10
42.32283464566929
 20
30.039370078740163
 30
0.0
 10
42.32283464566929
 20
29.859700256973966
 30
0.0
 10
42.37013908524307
 20
29.68315768506106
 30
0.0
 10
42.459973996126166
 20
29.527559055118118
 30
0.0
 10
42.549808907009265
 20
29.371960425175168
 30
0.0
 10
42.67904703934839
 20
29.242722292836035
 30
0.0
 10
42.83464566929133
 20
29.152887381952944
 30
0.0
 10
42.990244299234284
 20
29.063052471069852
 30
0.0
 10
43.166786871147195
 20
29.015748031496067
 30
0.0
 10
43.346456692913385
 20
29.015748031496067
 30
0.0
  0
POLYLINE
  5
10B
330
17
100
AcDbEntity
  8
Front elevation
100
AcDb2dPolyline
 66
1
 10
0.0
 20
0.0
 30
0.0
 70
0
  0
VERTEX
  5
10C
330
10B
100
AcDbEntity
  8
Front elevation
100
AcDbVertex
100
AcDb2dVertex
 10
43.346456692913385
 20
29.015748031496067
 30
0.0
 70
0
  0
VERTEX
  5
10D
330
10B
100
AcDbEntity
  8
Front elevation
100
AcDbVertex
100
AcDb2dVertex
 10
43.346456692913385
 20
13.228346456692918
 30
0.0
 70
0
  0
SEQEND
  5
10E
330
10B
100
AcDbEntity
  8
Front elevation
  0
SPLINE
  5
10F
330
17
100
AcDbEntity
  8
Front elevation
100
AcDbSpline
 70
0
 71
3
 72
14
 73
10
 74
0
 40
0.0
 40
0.0
 40
0.0
 40
0.0
 40
1.0
 40
1.0
 40
1.0
 40
2.0
 40
2.0
 40
2.0
 40
3.0
 40
3.0
 40
3.0
 40
3.0
 10
43.346456692913385
 20
13.228346456692918
 30
0.0
 10
43.166786871147195
 20
13.228346456692918
 30
0.0
 10
42.990244299234284
 20
13.18104201711914
 30
0.0
 10
42.83464566929133
 20
13.091207106236041
 30
0.0
 10
42.67904703934839
 20
13.001372195352957
 30
0.0
 10
42.549808907009265
 20
12.872134063013817
 30
0.0
 10
42.459973996126166
 20
12.716535433070874
 30
0.0
 10
42.37013908524307
 20
12.560936803127916
 30
0.0
 10
42.32283464566929
 20
12.384394231215012
 30
0.0
 10
42.32283464566929
 20
12.20472440944883
 30
0.0
  0
SPLINE
  5
110
330
17
100
AcDbEntity
  8
Front elevation
100
AcDbSpline
 70
0
 71
3
 72
11
 73
7
 74
0
 40
0.0
 40
0.0
 40
0.0
 40
0.0
 40
1.0
 40
1.0
 40
1.0
 40
2.0
 40
2.0
 40
2.0
 40
2.0
 10
42.32283464566929
 20
12.20472440944883
 30
0.0
 10
41.21062992125984
 20
12.20472440944883
 30
0.0
 10
41.47755905511811
 20
10.866141732283467
 30
0.0
 10
40.09842519685039
 20
10.866141732283467
 30
0.0
 10
38.71929133858268
 20
10.866141732283467
 30
0.0
 10
38.98622047244095
 20
12.20472440944883
 30
0.0
 10
37.874015748031496
 20
12.20472440944883
 30
0.0
  0
SPLINE
  5
111
330
17
100
AcDbEntity
  8
Front elevation
100
AcDbSpline
 70
0
 71
3
 72
14
 73
10
 74
0
 40
0.0
 40
0.0
 40
0.0
 40
0.0
 40
1.0
 40
1.0
 40
1.0
 40
2.0
 40
2.0
 40
2.0
 40
3.0
 40
3.0
 40
3.0
 40
3.0
 10
37.874015748031496
 20
12.20472440944883
 30
0.0
 10
37.874015748031496
 20
12.384394231215012
 30
0.0
 10
37.82671130845772
 20
12.560936803127916
 30
0.0
 10
37.73687639757462
 20
12.716535433070874
 30
0.0
 10
37.64704148669152
 20
12.872134063013817
 30
0.0
 10
37.517803354352395
 20
13.001372195352957
 30
0.0
 10
37.36220472440945
 20
13.091207106236041
 30
0.0
 10
37.20660609446651
 20
13.18104201711914
 30
0.0
 10
37.0300635225536
 20
13.228346456692918
 30
0.0
 10
36.8503937007874
 20
13.228346456692918
 30
0.0
  0
CIRCLE
  5
112
330
17
100
AcDbEntity
  8
Front elevation
100
AcDbCircle
 10
36.952755905511815
 20
30.141732283464563
 30
0.0
 40
9.0
  0
CIRCLE
  5
113
330
17
100
AcDbEntity
  8
Front elevation
100
AcDbCircle
 10
36.952755905511815
 20
30.141732283464563
 30
0.0
 40
3.6
  0
CIRCLE
  5
114
330
17
100
AcDbEntity
  8
Front elevation
100
AcDbCircle
 10
43.24409448818898
 20
30.141732283464563
 30
0.0
 40
9.0
  0
CIRCLE
  5
115
330
17
100
AcDbEntity
  8
Front elevation
100
AcDbCircle
 10
43.24409448818898
 20
30.141732283464563
 30
0.0
 40
3.6
  0
CIRCLE
  5
116
330
17
100
AcDbEntity
  8
Front elevation
100
AcDbCircle
 10
36.952755905511815
 20
12.102362204724413
 30
0.0
 40
9.0
  0
CIRCLE
  5
117
330
17
100
AcDbEntity
  8
Front elevation
100
AcDbCircle
 10
36.952755905511815
 20
12.102362204724413
 30
0.0
 40
3.6
  0
CIRCLE
  5
118
330
17
100
AcDbEntity
  8
Front elevation
100
AcDbCircle
 10
43.24409448818898
 20
12.102362204724413
 30
0.0
 40
9.0
  0
CIRCLE
  5
119
330
17
100
AcDbEntity
  8
Front elevation
100
AcDbCircle
 10
43.24409448818898
 20
12.102362204724413
 30
0.0
 40
3.6
  0
LINE
  5
11A
330
17
100
AcDbEntity
  8
Front elevation
100
AcDbLine
 10
31.338582677165356
 20
90.98425196850394
 30
0.0
 11
31.338582677165356
 21
0.0
 31
0.0
  0
LINE
  5
11B
330
17
100
AcDbEntity
  8
Front elevation
100
AcDbLine
 10
0.0
 20
0.0
 30
0.0
 11
62.204724409448815
 21
0.0
 31
0.0
  0
TEXT
  5
11C
330
17
100
AcDbEntity
  8
LABELS
100
AcDbText
 10
0.0
 20
99.37007874015748
 30
0.0
 40
1.2440944881889764
  1
FRONT ELEVATION  (1:1, inches)
 11
0.0
 21
99.37007874015748
 31
0.0
100
AcDbText
  0
LWPOLYLINE
  5
11F
330
17
100
AcDbEntity
  8
Panel head - detail A
100
AcDbPolyline
 90
2
 70
0
 10
73.81889763779527
 20
8.937007874015748
 10
73.81889763779527
 20
7.362204724409449
  0
LWPOLYLINE
  5
120
330
17
100
AcDbEntity
  8
Panel head - detail A
100
AcDbPolyline
 90
2
 70
0
 10
83.93700787401575
 20
8.937007874015748
 10
83.93700787401575
 20
7.362204724409449
  0
LWPOLYLINE
  5
121
330
17
100
AcDbEntity
  8
Panel head - detail A
100
AcDbPolyline
 90
3
 70
0
 10
73.81889763779527
 20
7.362204724409449
 10
83.93700787401575
 20
7.362204724409449
 10
83.93700787401575
 20
0.47244094488188976
  0
LWPOLYLINE
  5
122
330
17
100
AcDbEntity
  8
Panel head - detail A
100
AcDbPolyline
 90
2
 70
0
 10
73.81889763779527
 20
0.47244094488188976
 10
73.81889763779527
 20
7.362204724409449
  0
LWPOLYLINE
  5
123
330
17
100
AcDbEntity
  8
Panel head - detail A
100
AcDbPolyline
 90
3
 70
0
 10
74.60629921259843
 20
6.574803149606299
 10
83.14960629921259
 20
6.574803149606299
 10
83.14960629921259
 20
0.47244094488188976
  0
LWPOLYLINE
  5
124
330
17
100
AcDbEntity
  8
Panel head - detail A
100
AcDbPolyline
 90
2
 70
0
 10
74.60629921259843
 20
0.47244094488188976
 10
74.60629921259843
 20
6.574803149606299
  0
LWPOLYLINE
  5
125
330
17
100
AcDbEntity
  8
Panel head - detail A
100
AcDbPolyline
 90
2
 70
0
 10
73.81889763779527
 20
7.362204724409449
 10
74.60629921259843
 20
6.574803149606299
  0
LWPOLYLINE
  5
126
330
17
100
AcDbEntity
  8
Panel head - detail A
100
AcDbPolyline
 90
2
 70
0
 10
83.93700787401575
 20
7.362204724409449
 10
83.14960629921259
 20
6.574803149606299
  0
LWPOLYLINE
  5
127
330
17
100
AcDbEntity
  8
Panel head - detail A
100
AcDbPolyline
 90
55
 70
0
 10
75.62992125984252
 20
0.47244094488188976
 10
75.62992125984252
 20
3.188976377952756
 10
75.76380888100535
 20
3.1977713671187074
 10
75.89485346858726
 20
3.2238579616000314
 10
76.02138470770231
 20
3.2667886018719368
 10
76.14173228346456
 20
3.32611572840963
 10
76.25328487006087
 20
3.4006762230347682
 10
76.3537295146946
 20
3.4887901703447732
 10
76.4418434620046
 20
3.5892348149785
 10
76.51640395662974
 20
3.7007874015748032
 10
76.57573108316744
 20
3.8211349773370578
 10
76.61866172343933
 20
3.9476662164521086
 10
76.64474831792066
 20
4.07871080403402
 10
76.65354330708661
 20
4.21259842519685
 10
76.84665854146162
 20
4.227631336122047
 10
77.01188176673229
 20
4.270115649606299
 10
77.15364442359744
 20
4.336129736712598
 10
77.27637795275591
 20
4.421751968503937
 10
77.3845137949065
 20
4.523060716043307
 10
77.48248339074803
 20
4.636134350393701
 10
77.66564960629921
 20
4.881889763779528
 10
77.861328125
 20
5.127645177165355
 10
77.97493809977854
 20
5.240718811515748
 10
78.10497047244094
 20
5.342027559055118
 10
78.25585668368602
 20
5.4276497908464565
 10
78.43202817421259
 20
5.493663877952756
 10
78.63791638471949
 20
5.536148191437007
 10
78.87795275590551
 20
5.551181102362205
 10
79.11798912709153
 20
5.536148191437007
 10
79.32387733759843
 20
5.493663877952756
 10
79.500048828125
 20
5.4276497908464565
 10
79.65093503937008
 20
5.342027559055118
 10
79.78096741203248
 20
5.240718811515748
 10
79.89457738681102
 20
5.127645177165355
 10
80.09025590551181
 20
4.881889763779528
 10
80.27342212106299
 20
4.636134350393701
 10
80.37139171690453
 20
4.523060716043307
 10
80.47952755905511
 20
4.421751968503937
 10
80.60226108821358
 20
4.336129736712598
 10
80.74402374507874
 20
4.270115649606299
 10
80.9092469703494
 20
4.227631336122047
 10
81.10236220472441
 20
4.21259842519685
 10
81.11115719389036
 20
4.07871080403402
 10
81.13724378837168
 20
3.9476662164521086
 10
81.18017442864358
 20
3.8211349773370578
 10
81.23950155518128
 20
3.7007874015748032
 10
81.31406204980641
 20
3.5892348149785
 10
81.40217599711642
 20
3.4887901703447732
 10
81.50262064175016
 20
3.4006762230347682
 10
81.61417322834646
 20
3.32611572840963
 10
81.73452080410871
 20
3.2667886018719368
 10
81.86105204322376
 20
3.2238579616000314
 10
81.99209663080568
 20
3.1977713671187074
 10
82.1259842519685
 20
3.188976377952756
 10
82.1259842519685
 20
0.47244094488188976
  0
LWPOLYLINE
  5
128
330
17
100
AcDbEntity
  8
Panel head - detail A
100
AcDbPolyline
 90
49
 70
0
 10
76.08661417322834
 20
4.314960629921259
 10
76.08356975390167
 20
4.268614914903356
 10
76.0745397788889
 20
4.223253326894234
 10
76.05967917264094
 20
4.179454051815947
 10
76.03914285960866
 20
4.137795275590551
 10
76.01333345762303
 20
4.0991809186918315
 10
75.98283247586188
 20
4.06441161862631
 10
75.94806317579636
 20
4.033910636865155
 10
75.90944881889763
 20
4.008101234879529
 10
75.86779004267224
 20
3.9875649218472504
 10
75.82399076759395
 20
3.9727043155992834
 10
75.77862917958484
 20
3.9636743405865174
 10
75.73228346456692
 20
3.960629921259842
 10
75.68593774954903
 20
3.9636743405865174
 10
75.6405761615399
 20
3.9727043155992834
 10
75.59677688646161
 20
3.9875649218472504
 10
75.55511811023622
 20
4.008101234879529
 10
75.5165037533375
 20
4.033910636865155
 10
75.48173445327198
 20
4.06441161862631
 10
75.45123347151082
 20
4.0991809186918315
 10
75.42542406952519
 20
4.137795275590551
 10
75.40488775649291
 20
4.179454051815947
 10
75.39002715024495
 20
4.223253326894234
 10
75.38099717523218
 20
4.268614914903356
 10
75.37795275590551
 20
4.314960629921259
 10
75.38099717523218
 20
4.3613063449391625
 10
75.39002715024495
 20
4.406667932948285
 10
75.40488775649291
 20
4.450467208026572
 10
75.42542406952519
 20
4.4921259842519685
 10
75.45123347151082
 20
4.530740341150688
 10
75.48173445327198
 20
4.565509641216209
 10
75.5165037533375
 20
4.5960106229773645
 10
75.55511811023622
 20
4.6218200249629895
 10
75.59677688646161
 20
4.642356337995269
 10
75.6405761615399
 20
4.657216944243236
 10
75.68593774954903
 20
4.666246919256001
 10
75.73228346456692
 20
4.669291338582677
 10
75.77862917958484
 20
4.666246919256001
 10
75.82399076759395
 20
4.657216944243236
 10
75.86779004267224
 20
4.642356337995269
 10
75.90944881889763
 20
4.6218200249629895
 10
75.94806317579636
 20
4.5960106229773645
 10
75.98283247586188
 20
4.565509641216209
 10
76.01333345762303
 20
4.530740341150688
 10
76.03914285960866
 20
4.4921259842519685
 10
76.05967917264094
 20
4.450467208026572
 10
76.0745397788889
 20
4.406667932948285
 10
76.08356975390167
 20
4.3613063449391625
 10
76.08661417322834
 20
4.314960629921259
  0
LWPOLYLINE
  5
129
330
17
100
AcDbEntity
  8
Panel head - detail A
100
AcDbPolyline
 90
49
 70
0
 10
75.8740157480315
 20
4.314960629921259
 10
75.87279798030083
 20
4.2964223439141
 10
75.86918599029572
 20
4.2782777087104495
 10
75.86324174779654
 20
4.260757998679135
 10
75.85502722258362
 20
4.244094488188977
 10
75.84470346178936
 20
4.2286487454294885
 10
75.83250306908491
 20
4.21474102540328
 10
75.8185953490587
 20
4.202540632698818
 10
75.80314960629921
 20
4.192216871904568
 10
75.78648609580905
 20
4.184002346691656
 10
75.76896638577773
 20
4.17805810419247
 10
75.75082175057409
 20
4.174446114187362
 10
75.73228346456692
 20
4.173228346456693
 10
75.71374517855976
 20
4.174446114187362
 10
75.69560054335611
 20
4.17805810419247
 10
75.6780808333248
 20
4.184002346691656
 10
75.66141732283464
 20
4.192216871904568
 10
75.64597158007516
 20
4.202540632698818
 10
75.63206386004896
 20
4.21474102540328
 10
75.61986346734449
 20
4.2286487454294885
 10
75.60953970655024
 20
4.244094488188976
 10
75.60132518133733
 20
4.260757998679134
 10
75.59538093883813
 20
4.2782777087104495
 10
75.59176894883304
 20
4.296422343914098
 10
75.59055118110236
 20
4.314960629921259
 10
75.59176894883304
 20
4.33349891592842
 10
75.59538093883813
 20
4.35164355113207
 10
75.60132518133733
 20
4.369163261163384
 10
75.60953970655024
 20
4.385826771653543
 10
75.61986346734449
 20
4.401272514413031
 10
75.63206386004896
 20
4.415180234439239
 10
75.64597158007516
 20
4.427380627143701
 10
75.66141732283464
 20
4.437704387937951
 10
75.6780808333248
 20
4.445918913150862
 10
75.69560054335611
 20
4.45186315565005
 10
75.71374517855976
 20
4.455475145655156
 10
75.73228346456692
 20
4.456692913385826
 10
75.75082175057409
 20
4.455475145655156
 10
75.76896638577773
 20
4.45186315565005
 10
75.78648609580905
 20
4.445918913150862
 10
75.80314960629921
 20
4.437704387937951
 10
75.8185953490587
 20
4.427380627143701
 10
75.83250306908491
 20
4.415180234439239
 10
75.84470346178936
 20
4.401272514413031
 10
75.85502722258362
 20
4.3858267716535435
 10
75.86324174779654
 20
4.369163261163385
 10
75.86918599029572
 20
4.35164355113207
 10
75.87279798030083
 20
4.333498915928421
 10
75.8740157480315
 20
4.314960629921259
  0
LWPOLYLINE
  5
12A
330
17
100
AcDbEntity
  8
Panel head - detail A
100
AcDbPolyline
 90
49
 70
0
 10
82.37795275590551
 20
4.314960629921259
 10
82.37490833657884
 20
4.268614914903356
 10
82.36587836156608
 20
4.223253326894234
 10
82.3510177553181
 20
4.179454051815947
 10
82.33048144228583
 20
4.137795275590551
 10
82.3046720403002
 20
4.0991809186918315
 10
82.27417105853904
 20
4.06441161862631
 10
82.23940175847352
 20
4.033910636865155
 10
82.2007874015748
 20
4.008101234879529
 10
82.15912862534941
 20
3.9875649218472504
 10
82.11532935027111
 20
3.9727043155992834
 10
82.06996776226198
 20
3.9636743405865174
 10
82.0236220472441
 20
3.960629921259842
 10
81.97727633222618
 20
3.9636743405865174
 10
81.93191474421707
 20
3.9727043155992834
 10
81.88811546913878
 20
3.9875649218472504
 10
81.84645669291339
 20
4.008101234879529
 10
81.80784233601467
 20
4.033910636865155
 10
81.77307303594914
 20
4.06441161862631
 10
81.74257205418799
 20
4.0991809186918315
 10
81.71676265220236
 20
4.137795275590551
 10
81.69622633917008
 20
4.179454051815947
 10
81.68136573292212
 20
4.223253326894234
 10
81.67233575790935
 20
4.268614914903356
 10
81.66929133858268
 20
4.314960629921259
 10
81.67233575790935
 20
4.3613063449391625
 10
81.68136573292212
 20
4.406667932948285
 10
81.69622633917008
 20
4.450467208026572
 10
81.71676265220236
 20
4.4921259842519685
 10
81.74257205418799
 20
4.530740341150688
 10
81.77307303594914
 20
4.565509641216209
 10
81.80784233601467
 20
4.5960106229773645
 10
81.84645669291339
 20
4.6218200249629895
 10
81.88811546913878
 20
4.642356337995269
 10
81.93191474421707
 20
4.657216944243236
 10
81.97727633222618
 20
4.666246919256001
 10
82.0236220472441
 20
4.669291338582677
 10
82.06996776226198
 20
4.666246919256001
 10
82.11532935027111
 20
4.657216944243236
 10
82.15912862534941
 20
4.642356337995269
 10
82.2007874015748
 20
4.6218200249629895
 10
82.23940175847352
 20
4.5960106229773645
 10
82.27417105853904
 20
4.565509641216209
 10
82.3046720403002
 20
4.530740341150688
 10
82.33048144228583
 20
4.4921259842519685
 10
82.3510177553181
 20
4.450467208026572
 10
82.36587836156608
 20
4.406667932948285
 10
82.37490833657884
 20
4.3613063449391625
 10
82.37795275590551
 20
4.314960629921259
  0
LWPOLYLINE
  5
12B
330
17
100
AcDbEntity
  8
Panel head - detail A
100
AcDbPolyline
 90
49
 70
0
 10
82.16535433070867
 20
4.314960629921259
 10
82.16413656297799
 20
4.2964223439141
 10
82.16052457297289
 20
4.2782777087104495
 10
82.15458033047369
 20
4.260757998679135
 10
82.14636580526079
 20
4.244094488188977
 10
82.13604204446654
 20
4.2286487454294885
 10
82.12384165176206
 20
4.21474102540328
 10
82.10993393173587
 20
4.202540632698818
 10
82.09448818897637
 20
4.192216871904568
 10
82.07782467848622
 20
4.184002346691656
 10
82.0603049684549
 20
4.17805810419247
 10
82.04216033325126
 20
4.174446114187362
 10
82.0236220472441
 20
4.173228346456693
 10
82.00508376123693
 20
4.174446114187362
 10
81.98693912603328
 20
4.17805810419247
 10
81.96941941600197
 20
4.184002346691656
 10
81.95275590551181
 20
4.192216871904568
 10
81.93731016275233
 20
4.202540632698818
 10
81.9234024427261
 20
4.21474102540328
 10
81.91120205002164
 20
4.2286487454294885
 10
81.9008782892274
 20
4.244094488188976
 10
81.89266376401449
 20
4.260757998679134
 10
81.8867195215153
 20
4.2782777087104495
 10
81.8831075315102
 20
4.296422343914098
 10
81.88188976377954
 20
4.314960629921259
 10
81.8831075315102
 20
4.33349891592842
 10
81.8867195215153
 20
4.35164355113207
 10
81.89266376401449
 20
4.369163261163384
 10
81.9008782892274
 20
4.385826771653543
 10
81.91120205002164
 20
4.401272514413031
 10
81.9234024427261
 20
4.415180234439239
 10
81.93731016275233
 20
4.427380627143701
 10
81.95275590551181
 20
4.437704387937951
 10
81.96941941600197
 20
4.445918913150862
 10
81.98693912603328
 20
4.45186315565005
 10
82.00508376123693
 20
4.455475145655156
 10
82.0236220472441
 20
4.456692913385826
 10
82.04216033325126
 20
4.455475145655156
 10
82.0603049684549
 20
4.45186315565005
 10
82.07782467848622
 20
4.445918913150862
 10
82.09448818897637
 20
4.437704387937951
 10
82.10993393173587
 20
4.427380627143701
 10
82.12384165176206
 20
4.415180234439239
 10
82.13604204446654
 20
4.401272514413031
 10
82.14636580526079
 20
4.3858267716535435
 10
82.15458033047369
 20
4.369163261163385
 10
82.16052457297289
 20
4.35164355113207
 10
82.16413656297799
 20
4.333498915928421
 10
82.16535433070867
 20
4.314960629921259
  0
LWPOLYLINE
  5
12C
330
17
100
AcDbEntity
  8
Panel head - detail A
100
AcDbPolyline
 90
6
 70
0
 10
72.04724409448819
 20
0.4724409448818889
 10
78.40551181102362
 20
0.4724409448818889
 10
78.72047244094487
 20
0.9448818897637796
 10
79.03543307086613
 20
0.0
 10
79.35039370078741
 20
0.4724409448818889
 10
85.70866141732283
 20
0.4724409448818889
  0
TEXT
  5
12D
330
17
100
AcDbEntity
  8
LABELS
100
AcDbText
 10
72.04724409448819
 20
11.299212598425196
 30
0.0
 40
0.7086614173228346
  1
PANEL HEAD - DETAIL A  (1:1, inches)
 11
72.04724409448819
 21
11.299212598425196
 31
0.0
100
AcDbText
  0
POLYLINE
  5
130
330
17
100
AcDbEntity
  8
Section B-B
100
AcDb2dPolyline
 66
1
 10
0.0
 20
0.0
 30
0.0
 70
0
  0
VERTEX
  5
131
330
130
100
AcDbEntity
  8
Section B-B
100
AcDbVertex
100
AcDb2dVertex
 10
95.55118110236221
 20
2.559055118110236
 30
0.0
 70
0
  0
VERTEX
  5
132
330
130
100
AcDbEntity
  8
Section B-B
100
AcDbVertex
100
AcDb2dVertex
 10
98.7007874015748
 20
2.559055118110236
 30
0.0
 70
0
  0
VERTEX
  5
133
330
130
100
AcDbEntity
  8
Section B-B
100
AcDbVertex
100
AcDb2dVertex
 10
98.7007874015748
 20
2.4803149606299213
 30
0.0
 70
0
  0
SEQEND
  5
134
330
130
100
AcDbEntity
  8
Section B-B
  0
SPLINE
  5
135
330
17
100
AcDbEntity
  8
Section B-B
100
AcDbSpline
 70
0
 71
3
 72
8
 73
4
 74
0
 40
0.0
 40
0.0
 40
0.0
 40
0.0
 40
1.0
 40
1.0
 40
1.0
 40
1.0
 10
98.7007874015748
 20
2.4803149606299213
 30
0.0
 10
99.22572178477691
 20
2.4803149606299213
 30
0.0
 10
99.48818897637796
 20
2.3293963254593177
 30
0.0
 10
99.48818897637796
 20
2.02755905511811
 30
0.0
  0
POLYLINE
  5
136
330
17
100
AcDbEntity
  8
Section B-B
100
AcDb2dPolyline
 66
1
 10
0.0
 20
0.0
 30
0.0
 70
0
  0
VERTEX
  5
137
330
136
100
AcDbEntity
  8
Section B-B
100
AcDbVertex
100
AcDb2dVertex
 10
99.48818897637796
 20
2.02755905511811
 30
0.0
 70
0
  0
VERTEX
  5
138
330
136
100
AcDbEntity
  8
Section B-B
100
AcDbVertex
100
AcDb2dVertex
 10
99.48818897637796
 20
1.3188976377952755
 30
0.0
 70
0
  0
SEQEND
  5
139
330
136
100
AcDbEntity
  8
Section B-B
  0
SPLINE
  5
13A
330
17
100
AcDbEntity
  8
Section B-B
100
AcDbSpline
 70
0
 71
3
 72
8
 73
4
 74
0
 40
0.0
 40
0.0
 40
0.0
 40
0.0
 40
1.0
 40
1.0
 40
1.0
 40
1.0
 10
99.48818897637796
 20
1.3188976377952755
 30
0.0
 10
99.48818897637796
 20
1.0170603674540684
 30
0.0
 10
99.22572178477691
 20
0.8661417322834646
 30
0.0
 10
98.7007874015748
 20
0.8661417322834646
 30
0.0
  0
POLYLINE
  5
13B
330
17
100
AcDbEntity
  8
Section B-B
100
AcDb2dPolyline
 66
1
 10
0.0
 20
0.0
 30
0.0
 70
0
  0
VERTEX
  5
13C
330
13B
100
AcDbEntity
  8
Section B-B
100
AcDbVertex
100
AcDb2dVertex
 10
98.7007874015748
 20
0.8661417322834646
 30
0.0
 70
0
  0
VERTEX
  5
13D
330
13B
100
AcDbEntity
  8
Section B-B
100
AcDbVertex
100
AcDb2dVertex
 10
98.7007874015748
 20
0.7874015748031495
 30
0.0
 70
0
  0
VERTEX
  5
13E
330
13B
100
AcDbEntity
  8
Section B-B
100
AcDbVertex
100
AcDb2dVertex
 10
95.55118110236221
 20
0.7874015748031495
 30
0.0
 70
0
  0
VERTEX
  5
13F
330
13B
100
AcDbEntity
  8
Section B-B
100
AcDbVertex
100
AcDb2dVertex
 10
95.55118110236221
 20
2.559055118110236
 30
0.0
 70
0
  0
SEQEND
  5
140
330
13B
100
AcDbEntity
  8
Section B-B
  0
LWPOLYLINE
  5
141
330
17
100
AcDbEntity
  8
Section B-B
  6
DASHED
100
AcDbPolyline
 90
5
 70
0
 10
99.48818897637796
 20
2.02755905511811
 10
99.96062992125985
 20
2.02755905511811
 10
99.96062992125985
 20
1.3188976377952755
 10
99.48818897637796
 20
1.3188976377952755
 10
99.48818897637796
 20
2.02755905511811
  0
POLYLINE
  5
142
330
17
100
AcDbEntity
  8
Section B-B
100
AcDb2dPolyline
 66
1
 10
0.0
 20
0.0
 30
0.0
 70
0
  0
VERTEX
  5
143
330
142
100
AcDbEntity
  8
Section B-B
100
AcDbVertex
100
AcDb2dVertex
 10
114.01574803149606
 20
2.559055118110236
 30
0.0
 70
0
  0
VERTEX
  5
144
330
142
100
AcDbEntity
  8
Section B-B
100
AcDbVertex
100
AcDb2dVertex
 10
110.39370078740157
 20
2.559055118110236
 30
0.0
 70
0
  0
VERTEX
  5
145
330
142
100
AcDbEntity
  8
Section B-B
100
AcDbVertex
100
AcDb2dVertex
 10
110.39370078740157
 20
2.4803149606299213
 30
0.0
 70
0
  0
SEQEND
  5
146
330
142
100
AcDbEntity
  8
Section B-B
  0
SPLINE
  5
147
330
17
100
AcDbEntity
  8
Section B-B
100
AcDbSpline
 70
0
 71
3
 72
8
 73
4
 74
0
 40
0.0
 40
0.0
 40
0.0
 40
0.0
 40
1.0
 40
1.0
 40
1.0
 40
1.0
 10
110.39370078740157
 20
2.4803149606299213
 30
0.0
 10
109.86876640419948
 20
2.4803149606299213
 30
0.0
 10
109.60629921259843
 20
2.3293963254593177
 30
0.0
 10
109.60629921259843
 20
2.02755905511811
 30
0.0
  0
POLYLINE
  5
148
330
17
100
AcDbEntity
  8
Section B-B
100
AcDb2dPolyline
 66
1
 10
0.0
 20
0.0
 30
0.0
 70
0
  0
VERTEX
  5
149
330
148
100
AcDbEntity
  8
Section B-B
100
AcDbVertex
100
AcDb2dVertex
 10
109.60629921259843
 20
2.02755905511811
 30
0.0
 70
0
  0
VERTEX
  5
14A
330
148
100
AcDbEntity
  8
Section B-B
100
AcDbVertex
100
AcDb2dVertex
 10
109.60629921259843
 20
1.3188976377952755
 30
0.0
 70
0
  0
SEQEND
  5
14B
330
148
100
AcDbEntity
  8
Section B-B
  0
SPLINE
  5
14C
330
17
100
AcDbEntity
  8
Section B-B
100
AcDbSpline
 70
0
 71
3
 72
8
 73
4
 74
0
 40
0.0
 40
0.0
 40
0.0
 40
0.0
 40
1.0
 40
1.0
 40
1.0
 40
1.0
 10
109.60629921259843
 20
1.3188976377952755
 30
0.0
 10
109.60629921259843
 20
1.0170603674540684
 30
0.0
 10
109.86876640419948
 20
0.8661417322834646
 30
0.0
 10
110.39370078740157
 20
0.8661417322834646
 30
0.0
  0
POLYLINE
  5
14D
330
17
100
AcDbEntity
  8
Section B-B
100
AcDb2dPolyline
 66
1
 10
0.0
 20
0.0
 30
0.0
 70
0
  0
VERTEX
  5
14E
330
14D
100
AcDbEntity
  8
Section B-B
100
AcDbVertex
100
AcDb2dVertex
 10
110.39370078740157
 20
0.8661417322834646
 30
0.0
 70
0
  0
VERTEX
  5
14F
330
14D
100
AcDbEntity
  8
Section B-B
100
AcDbVertex
100
AcDb2dVertex
 10
110.39370078740157
 20
0.7874015748031495
 30
0.0
 70
0
  0
VERTEX
  5
150
330
14D
100
AcDbEntity
  8
Section B-B
100
AcDbVertex
100
AcDb2dVertex
 10
113.54330708661418
 20
0.7874015748031495
 30
0.0
 70
0
  0
VERTEX
  5
151
330
14D
100
AcDbEntity
  8
Section B-B
100
AcDbVertex
100
AcDb2dVertex
 10
113.54330708661418
 20
1.6732283464566928
 30
0.0
 70
0
  0
VERTEX
  5
152
330
14D
100
AcDbEntity
  8
Section B-B
100
AcDbVertex
100
AcDb2dVertex
 10
114.01574803149606
 20
1.6732283464566928
 30
0.0
 70
0
  0
VERTEX
  5
153
330
14D
100
AcDbEntity
  8
Section B-B
100
AcDbVertex
100
AcDb2dVertex
 10
114.01574803149606
 20
2.559055118110236
 30
0.0
 70
0
  0
SEQEND
  5
154
330
14D
100
AcDbEntity
  8
Section B-B
  0
LWPOLYLINE
  5
155
330
17
100
AcDbEntity
  8
Section B-B
  6
DASHED
100
AcDbPolyline
 90
5
 70
0
 10
109.13385826771653
 20
2.02755905511811
 10
109.60629921259843
 20
2.02755905511811
 10
109.60629921259843
 20
1.3188976377952755
 10
109.13385826771653
 20
1.3188976377952755
 10
109.13385826771653
 20
2.02755905511811
  0
LWPOLYLINE
  5
156
330
17
100
AcDbEntity
  8
Section B-B
100
AcDbPolyline
 90
5
 70
0
 10
99.52755905511812
 20
2.02755905511811
 10
109.56692913385827
 20
2.02755905511811
 10
109.56692913385827
 20
1.3188976377952755
 10
99.52755905511812
 20
1.3188976377952755
 10
99.52755905511812
 20
2.02755905511811
  0
LWPOLYLINE
  5
157
330
17
100
AcDbEntity
  8
Section B-B
100
AcDbPolyline
 90
3
 70
0
 10
101.18110236220473
 20
2.02755905511811
 10
101.2992125984252
 20
1.9291338582677164
 10
101.41732283464567
 20
2.02755905511811
  0
LWPOLYLINE
  5
158
330
17
100
AcDbEntity
  8
Section B-B
100
AcDbPolyline
 90
3
 70
0
 10
107.67716535433071
 20
2.02755905511811
 10
107.79527559055119
 20
1.9291338582677164
 10
107.91338582677166
 20
2.02755905511811
  0
LWPOLYLINE
  5
159
330
17
100
AcDbEntity
  8
Section B-B
100
AcDbPolyline
 90
25
 70
0
 10
113.54330708661418
 20
2.559055118110236
 10
116.69291338582677
 20
2.559055118110236
 10
116.69291338582677
 20
2.4803149606299213
 10
116.87746062992126
 20
2.473240649606299
 10
117.03740157480314
 20
2.452017716535433
 10
117.17273622047244
 20
2.4166461614173227
 10
117.28346456692913
 20
2.3671259842519685
 10
117.36958661417323
 20
2.30345718503937
 10
117.43110236220473
 20
2.2256397637795273
 10
117.46801181102362
 20
2.1336737204724407
 10
117.48031496062993
 20
2.02755905511811
 10
117.48031496062993
 20
1.3188976377952755
 10
117.46801181102362
 20
1.212782972440945
 10
117.43110236220473
 20
1.1208169291338583
 10
117.36958661417323
 20
1.0429995078740157
 10
117.28346456692913
 20
0.9793307086614174
 10
117.17273622047244
 20
0.929810531496063
 10
117.03740157480314
 20
0.8944389763779528
 10
116.87746062992126
 20
0.8732160433070866
 10
116.69291338582677
 20
0.8661417322834646
 10
116.69291338582677
 20
0.7874015748031495
 10
113.07086614173228
 20
0.7874015748031495
 10
113.07086614173228
 20
1.6732283464566928
 10
113.54330708661418
 20
1.6732283464566928
 10
113.54330708661418
 20
2.559055118110236
  0
LWPOLYLINE
  5
15A
330
17
100
AcDbEntity
  8
Section B-B
  6
DASHED
100
AcDbPolyline
 90
5
 70
0
 10
117.48031496062993
 20
2.02755905511811
 10
117.95275590551181
 20
2.02755905511811
 10
117.95275590551181
 20
1.3188976377952755
 10
117.48031496062993
 20
1.3188976377952755
 10
117.48031496062993
 20
2.02755905511811
  0
LWPOLYLINE
  5
15B
330
17
100
AcDbEntity
  8
Section B-B
100
AcDbPolyline
 90
2
 70
0
 10
117.51968503937007
 20
2.02755905511811
 10
123.38582677165354
 20
2.02755905511811
  0
LWPOLYLINE
  5
15C
330
17
100
AcDbEntity
  8
Section B-B
100
AcDbPolyline
 90
3
 70
0
 10
123.38582677165354
 20
1.3188976377952755
 10
117.51968503937007
 20
1.3188976377952755
 10
117.51968503937007
 20
2.02755905511811
  0
CIRCLE
  5
15D
330
17
100
AcDbEntity
  8
Section B-B
100
AcDbCircle
 10
113.26771653543307
 20
2.716535433070866
 30
0.0
 40
5.0
  0
LWPOLYLINE
  5
15E
330
17
100
AcDbEntity
  8
Section B-B
100
AcDbPolyline
 90
6
 70
0
 10
123.38582677165354
 20
3.031496062992126
 10
123.38582677165354
 20
1.9881889763779528
 10
123.07086614173228
 20
1.7913385826771653
 10
123.7007874015748
 20
1.5551181102362204
 10
123.38582677165354
 20
1.3582677165354329
 10
123.38582677165354
 20
0.3149606299212597
  0
TEXT
  5
15F
330
17
100
AcDbEntity
  8
LABELS
100
AcDbText
 10
95.55118110236221
 20
5.708661417322834
 30
0.0
 40
0.7086614173228346
  1
SECTION B-B  (1:1, inches)
 11
95.55118110236221
 21
5.708661417322834
 31
0.0
100
AcDbText
  0
LWPOLYLINE
  5
162
330
17
100
AcDbEntity
  8
Lock rail - detail C
100
AcDbPolyline
 90
2
 70
0
 10
151.9291338582677
 20
13.779527559055119
 10
151.9291338582677
 20
0.0
  0
LWPOLYLINE
  5
163
330
17
100
AcDbEntity
  8
Lock rail - detail C
100
AcDbPolyline
 90
2
 70
0
 10
133.93700787401573
 20
0.0
 10
133.93700787401573
 20
13.779527559055119
  0
LWPOLYLINE
  5
164
330
17
100
AcDbEntity
  8
Lock rail - detail C
100
AcDbPolyline
 90
2
 70
0
 10
137.8740157480315
 20
11.417322834645669
 10
137.8740157480315
 20
2.3622047244094486
  0
LWPOLYLINE
  5
165
330
17
100
AcDbEntity
  8
Lock rail - detail C
100
AcDbPolyline
 90
2
 70
0
 10
147.99212598425197
 20
11.417322834645669
 10
147.99212598425197
 20
2.3622047244094486
  0
LWPOLYLINE
  5
166
330
17
100
AcDbEntity
  8
Lock rail - detail C
100
AcDbPolyline
 90
4
 70
0
 10
147.99212598425197
 20
13.779527559055119
 10
147.99212598425197
 20
11.417322834645669
 10
137.8740157480315
 20
11.417322834645669
 10
137.8740157480315
 20
13.779527559055119
  0
LWPOLYLINE
  5
167
330
17
100
AcDbEntity
  8
Lock rail - detail C
100
AcDbPolyline
 90
4
 70
0
 10
147.20472440944883
 20
13.779527559055119
 10
147.20472440944883
 20
12.204724409448819
 10
138.66141732283464
 20
12.204724409448819
 10
138.66141732283464
 20
13.779527559055119
  0
LWPOLYLINE
  5
168
330
17
100
AcDbEntity
  8
Lock rail - detail C
100
AcDbPolyline
 90
2
 70
0
 10
137.8740157480315
 20
11.417322834645669
 10
138.66141732283464
 20
12.204724409448819
  0
LWPOLYLINE
  5
169
330
17
100
AcDbEntity
  8
Lock rail - detail C
100
AcDbPolyline
 90
2
 70
0
 10
147.99212598425197
 20
11.417322834645669
 10
147.20472440944883
 20
12.204724409448819
  0
LWPOLYLINE
  5
16A
330
17
100
AcDbEntity
  8
Lock rail - detail C
100
AcDbPolyline
 90
15
 70
0
 10
144.05133077271788
 20
13.779527559055119
 10
143.94969549704723
 20
13.651882381889763
 10
143.8360855222687
 20
13.53880874753937
 10
143.7060531496063
 20
13.4375
 10
143.5551669383612
 20
13.351877768208661
 10
143.37899544783463
 20
13.285863681102361
 10
143.17310723732774
 20
13.24337936761811
 10
142.93307086614172
 20
13.228346456692913
 10
142.6930344949557
 20
13.24337936761811
 10
142.4871462844488
 20
13.285863681102361
 10
142.31097479392224
 20
13.351877768208661
 10
142.16008858267716
 20
13.4375
 10
142.03005621001478
 20
13.53880874753937
 10
141.9164462352362
 20
13.651882381889763
 10
141.8148109595656
 20
13.779527559055119
  0
LWPOLYLINE
  5
16B
330
17
100
AcDbEntity
  8
Lock rail - detail C
100
AcDbPolyline
 90
3
 70
0
 10
137.8740157480315
 20
2.3622047244094486
 10
147.99212598425197
 20
2.3622047244094486
 10
147.99212598425197
 20
0.0
  0
LWPOLYLINE
  5
16C
330
17
100
AcDbEntity
  8
Lock rail - detail C
100
AcDbPolyline
 90
2
 70
0
 10
137.8740157480315
 20
0.0
 10
137.8740157480315
 20
2.3622047244094486
  0
LWPOLYLINE
  5
16D
330
17
100
AcDbEntity
  8
Lock rail - detail C
100
AcDbPolyline
 90
3
 70
0
 10
138.66141732283464
 20
1.574803149606299
 10
147.20472440944883
 20
1.574803149606299
 10
147.20472440944883
 20
0.0
  0
LWPOLYLINE
  5
16E
330
17
100
AcDbEntity
  8
Lock rail - detail C
100
AcDbPolyline
 90
2
 70
0
 10
138.66141732283464
 20
0.0
 10
138.66141732283464
 20
1.574803149606299
  0
LWPOLYLINE
  5
16F
330
17
100
AcDbEntity
  8
Lock rail - detail C
100
AcDbPolyline
 90
2
 70
0
 10
137.8740157480315
 20
2.3622047244094486
 10
138.66141732283464
 20
1.574803149606299
  0
LWPOLYLINE
  5
170
330
17
100
AcDbEntity
  8
Lock rail - detail C
100
AcDbPolyline
 90
2
 70
0
 10
147.99212598425197
 20
2.3622047244094486
 10
147.20472440944883
 20
1.574803149606299
  0
LWPOLYLINE
  5
171
330
17
100
AcDbEntity
  8
Lock rail - detail C
100
AcDbPolyline
 90
15
 70
0
 10
141.8148109595656
 20
0.0
 10
141.9164462352362
 20
0.12764517716535434
 10
142.03005621001478
 20
0.24071881151574803
 10
142.16008858267716
 20
0.3420275590551181
 10
142.31097479392224
 20
0.4276497908464567
 10
142.4871462844488
 20
0.4936638779527559
 10
142.6930344949557
 20
0.5361481914370079
 10
142.93307086614172
 20
0.5511811023622047
 10
143.17310723732774
 20
0.5361481914370079
 10
143.37899544783463
 20
0.4936638779527559
 10
143.55516693836122
 20
0.4276497908464567
 10
143.7060531496063
 20
0.3420275590551181
 10
143.8360855222687
 20
0.24071881151574803
 10
143.94969549704723
 20
0.12764517716535434
 10
144.05133077271788
 20
0.0
  0
LWPOLYLINE
  5
172
330
17
100
AcDbEntity
  8
Lock rail - detail C
100
AcDbPolyline
 90
49
 70
0
 10
140.13779527559055
 20
6.889763779527559
 10
140.12849288320348
 20
6.748151872528411
 10
140.1009012928867
 20
6.609547020278313
 10
140.0554938849068
 20
6.475715901983551
 10
139.9927440395304
 20
6.3484251968503935
 10
139.91388197790764
 20
6.230436884104297
 10
139.82068453363746
 20
6.124197356126319
 10
139.71444500565948
 20
6.030999911856125
 10
139.5964566929134
 20
5.952137850233379
 10
139.46916598778023
 20
5.889388004856977
 10
139.33533486948545
 20
5.843980596877073
 10
139.19673001723535
 20
5.816389006560289
 10
139.0551181102362
 20
5.807086614173229
 10
138.91350620323706
 20
5.816389006560289
 10
138.774901350987
 20
5.843980596877073
 10
138.64107023269221
 20
5.889388004856977
 10
138.51377952755905
 20
5.952137850233379
 10
138.39579121481296
 20
6.030999911856125
 10
138.28955168683498
 20
6.124197356126319
 10
138.19635424256478
 20
6.230436884104297
 10
138.11749218094204
 20
6.3484251968503935
 10
138.05474233556563
 20
6.475715901983551
 10
138.00933492758574
 20
6.609547020278313
 10
137.98174333726894
 20
6.748151872528411
 10
137.9724409448819
 20
6.889763779527559
 10
137.98174333726894
 20
7.031375686526706
 10
138.00933492758574
 20
7.169980538776805
 10
138.05474233556563
 20
7.303811657071567
 10
138.11749218094204
 20
7.431102362204724
 10
138.19635424256478
 20
7.54909067495082
 10
138.28955168683498
 20
7.655330202928798
 10
138.39579121481296
 20
7.748527647198993
 10
138.51377952755905
 20
7.827389708821738
 10
138.64107023269221
 20
7.89013955419814
 10
138.774901350987
 20
7.935546962178044
 10
138.91350620323706
 20
7.963138552494828
 10
139.0551181102362
 20
7.97244094488189
 10
139.19673001723538
 20
7.963138552494828
 10
139.33533486948545
 20
7.935546962178044
 10
139.46916598778023
 20
7.89013955419814
 10
139.5964566929134
 20
7.827389708821738
 10
139.71444500565948
 20
7.748527647198993
 10
139.82068453363746
 20
7.655330202928798
 10
139.91388197790764
 20
7.54909067495082
 10
139.9927440395304
 20
7.431102362204724
 10
140.0554938849068
 20
7.303811657071567
 10
140.1009012928867
 20
7.169980538776805
 10
140.12849288320348
 20
7.031375686526706
 10
140.13779527559055
 20
6.889763779527559
  0
LWPOLYLINE
  5
173
330
17
100
AcDbEntity
  8
Lock rail - detail C
100
AcDbPolyline
 90
49
 70
0
 10
139.74409448818898
 20
6.889763779527559
 10
139.73817478394267
 20
6.7996471114371895
 10
139.72061649919561
 20
6.711444023641681
 10
139.6917208759357
 20
6.626278766545007
 10
139.6517891561507
 20
6.545275590551181
 10
139.60160420784533
 20
6.470192118803672
 10
139.54229674330972
 20
6.402585146454045
 10
139.4746897709601
 20
6.343277681918461
 10
139.3996062992126
 20
6.293092733613081
 10
139.3186031232188
 20
6.2531610138281
 10
139.2334378661221
 20
6.224265390568157
 10
139.1452347783266
 20
6.2067071058211205
 10
139.0551181102362
 20
6.200787401574803
 10
138.96500144214585
 20
6.2067071058211205
 10
138.87679835435034
 20
6.224265390568157
 10
138.79163309725365
 20
6.2531610138281
 10
138.71062992125985
 20
6.293092733613081
 10
138.63554644951233
 20
6.343277681918461
 10
138.5679394771627
 20
6.402585146454045
 10
138.50863201262712
 20
6.470192118803672
 10
138.45844706432175
 20
6.545275590551181
 10
138.41851534453676
 20
6.626278766545007
 10
138.38961972127683
 20
6.711444023641681
 10
138.37206143652978
 20
6.7996471114371895
 10
138.36614173228347
 20
6.889763779527559
 10
138.37206143652978
 20
6.979880447617928
 10
138.38961972127683
 20
7.068083535413437
 10
138.41851534453676
 20
7.1532487925101105
 10
138.45844706432175
 20
7.234251968503937
 10
138.50863201262712
 20
7.309335440251446
 10
138.5679394771627
 20
7.376942412601073
 10
138.63554644951233
 20
7.436249877136658
 10
138.71062992125985
 20
7.486434825442037
 10
138.79163309725365
 20
7.526366545227018
 10
138.87679835435034
 20
7.55526216848696
 10
138.96500144214585
 20
7.572820453233997
 10
139.0551181102362
 20
7.578740157480315
 10
139.1452347783266
 20
7.572820453233997
 10
139.2334378661221
 20
7.55526216848696
 10
139.3186031232188
 20
7.526366545227018
 10
139.3996062992126
 20
7.486434825442037
 10
139.4746897709601
 20
7.436249877136658
 10
139.54229674330972
 20
7.376942412601073
 10
139.60160420784533
 20
7.309335440251446
 10
139.6517891561507
 20
7.234251968503937
 10
139.6917208759357
 20
7.1532487925101105
 10
139.72061649919561
 20
7.068083535413437
 10
139.73817478394267
 20
6.979880447617928
 10
139.74409448818898
 20
6.889763779527559
  0
LWPOLYLINE
  5
174
330
17
100
AcDbEntity
  8
Lock rail - detail C
100
AcDbPolyline
 90
49
 70
0
 10
136.25984251968504
 20
6.889763779527559
 10
136.25409194984576
 20
6.802221873382629
 10
136.2370353303772
 20
6.716538873809845
 10
136.20896529635326
 20
6.633806909773083
 10
136.17017448284784
 20
6.55511811023622
 10
136.12142339020835
 20
6.482179880538637
 10
136.0638104246595
 20
6.416504535970433
 10
135.9981350800913
 20
6.358891570421578
 10
135.9251968503937
 20
6.310140477782068
 10
135.84650805085684
 20
6.271349664276649
 10
135.7637760868201
 20
6.243279630252711
 10
135.67809308724728
 20
6.226223010784152
 10
135.59055118110237
 20
6.2204724409448815
 10
135.50300927495744
 20
6.226223010784152
 10
135.41732627538465
 20
6.243279630252711
 10
135.33459431134787
 20
6.271349664276649
 10
135.25590551181102
 20
6.310140477782068
 10
135.18296728211345
 20
6.358891570421578
 10
135.11729193754522
 20
6.416504535970433
 10
135.0596789719964
 20
6.482179880538637
 10
135.01092787935687
 20
6.55511811023622
 10
134.97213706585146
 20
6.633806909773083
 10
134.9440670318275
 20
6.716538873809845
 10
134.92701041235895
 20
6.802221873382629
 10
134.92125984251967
 20
6.889763779527559
 10
134.92701041235895
 20
6.977305685672489
 10
134.9440670318275
 20
7.062988685245273
 10
134.97213706585146
 20
7.145720649282034
 10
135.01092787935687
 20
7.224409448818897
 10
135.0596789719964
 20
7.297347678516481
 10
135.11729193754522
 20
7.3630230230846845
 10
135.18296728211345
 20
7.420635988633539
 10
135.25590551181102
 20
7.46938708127305
 10
135.33459431134787
 20
7.508177894778469
 10
135.41732627538465
 20
7.536247928802407
 10
135.50300927495744
 20
7.553304548270965
 10
135.59055118110237
 20
7.559055118110236
 10
135.67809308724728
 20
7.553304548270965
 10
135.7637760868201
 20
7.536247928802407
 10
135.84650805085684
 20
7.508177894778469
 10
135.9251968503937
 20
7.46938708127305
 10
135.9981350800913
 20
7.420635988633539
 10
136.0638104246595
 20
7.3630230230846845
 10
136.12142339020835
 20
7.297347678516481
 10
136.17017448284784
 20
7.224409448818897
 10
136.20896529635326
 20
7.145720649282034
 10
136.2370353303772
 20
7.062988685245273
 10
136.25409194984576
 20
6.977305685672489
 10
136.25984251968504
 20
6.889763779527559
  0
LWPOLYLINE
  5
175
330
17
100
AcDbEntity
  8
Lock rail - detail C
100
AcDbPolyline
 90
44
 70
0
 10
135.4724409448819
 20
6.929133858267717
 10
135.45738774950075
 20
6.944330411106716
 10
135.44431874491468
 20
6.961167417612348
 10
135.43336596048871
 20
6.979451842193377
 10
135.42466142558786
 20
6.998990649258571
 10
135.41837526875128
 20
7.019436141221283
 10
135.41460787793838
 20
7.040414473743293
 10
135.41338667164442
 20
7.061693391105992
 10
135.4147390683647
 20
7.083040637590788
 10
135.41865449349842
 20
7.104069269391114
 10
135.4250484604745
 20
7.124401530830749
 10
135.4338375198328
 20
7.143818948386587
 10
135.44493822211308
 20
7.162103048535505
 10
135.45816170276993
 20
7.178915944439823
 10
135.47325788110766
 20
7.1939621754807295
 10
135.4900514834408
 20
7.207086907463398
 10
135.50836723608387
 20
7.218135306193039
 10
135.52788108471097
 20
7.226895649858129
 10
135.54823442460477
 20
7.233222199005034
 10
135.56920015649277
 20
7.2370590929757315
 10
135.59055118110237
 20
7.238350471112188
 10
135.61190220571197
 20
7.2370590929757315
 10
135.63286793759997
 20
7.233222199005034
 10
135.65322127749374
 20
7.226895649858129
 10
135.67273512612084
 20
7.218135306193039
 10
135.69105087876395
 20
7.207086907463398
 10
135.70784448109708
 20
7.193962175480721
 10
135.7229406594348
 20
7.178915944439814
 10
135.73616414009166
 20
7.162103048535496
 10
135.74726484237192
 20
7.143818948386578
 10
135.7560539017302
 20
7.12440153083074
 10
135.76244786870632
 20
7.104069269391105
 10
135.76636329384002
 20
7.083040637590779
 10
135.7677156905603
 20
7.061693391105983
 10
135.76649448426633
 20
7.040414473743284
 10
135.76272709345344
 20
7.0194361412212745
 10
135.75644093661688
 20
6.9989906492585625
 10
135.747736401716
 20
6.9794518421933684
 10
135.73678361729003
 20
6.961167417612338
 10
135.723714612704
 20
6.944330411106716
 10
135.70866141732284
 20
6.929133858267717
 10
135.76771653543307
 20
6.496062992125984
 10
135.41338582677164
 20
6.496062992125984
 10
135.4724409448819
 20
6.929133858267717
  0
TEXT
  5
176
330
17
100
AcDbEntity
  8
LABELS
100
AcDbText
 10
133.54330708661416
 20
16.141732283464567
 30
0.0
 40
0.7086614173228346
  1
LOCK RAIL - DETAIL C  (1:1, inches)
 11
133.54330708661416
 21
16.141732283464567
 31
0.0
100
AcDbText
  0
TEXT
  5
177
330
17
100
AcDbEntity
  8
LABELS
100
AcDbText
 10
0.0
 20
-8.661417322834646
 30
0.0
 40
1.574803149606299
  1
Doors D1 · AST-DR-001
 11
0.0
 21
-8.661417322834646
 31
0.0
100
AcDbText
  0
ENDSEC
  0
SECTION
  2
OBJECTS
  0
DICTIONARY
  5
A
330
0
100
AcDbDictionary
281
1
  3
ACAD_COLOR
350
B
  3
ACAD_GROUP
350
C
  3
ACAD_LAYOUT
350
D
  3
ACAD_MATERIAL
350
E
  3
ACAD_MLEADERSTYLE
350
F
  3
ACAD_MLINESTYLE
350
10
  3
ACAD_PLOTSETTINGS
350
11
  3
ACAD_PLOTSTYLENAME
350
12
  3
ACAD_SCALELIST
350
14
  3
ACAD_TABLESTYLE
350
15
  3
ACAD_VISUALSTYLE
350
16
  3
EZDXF_META
350
2D
  0
DICTIONARY
  5
B
330
A
100
AcDbDictionary
281
1
  0
DICTIONARY
  5
C
330
A
100
AcDbDictionary
281
1
  0
DICTIONARY
  5
D
330
A
100
AcDbDictionary
281
1
  3
Model
350
1A
  3
Layout1
350
1E
  0
DICTIONARY
  5
E
330
A
100
AcDbDictionary
281
1
  3
ByBlock
350
1F
  3
ByLayer
350
20
  3
Global
350
21
  0
DICTIONARY
  5
F
330
A
100
AcDbDictionary
281
1
  3
Standard
350
2C
  0
DICTIONARY
  5
10
330
A
100
AcDbDictionary
281
1
  3
Standard
350
22
  0
DICTIONARY
  5
11
330
A
100
AcDbDictionary
281
1
  0
ACDBDICTIONARYWDFLT
  5
12
330
A
100
AcDbDictionary
281
1
  3
Normal
350
13
100
AcDbDictionaryWithDefault
340
13
  0
ACDBPLACEHOLDER
  5
13
330
12
  0
DICTIONARY
  5
14
330
A
100
AcDbDictionary
281
1
  0
DICTIONARY
  5
15
330
A
100
AcDbDictionary
281
1
  0
DICTIONARY
  5
16
330
A
100
AcDbDictionary
281
1
  3
2dWireframe
350
5A
  3
Basic
350
5B
  3
Brighten
350
5C
  3
ColorChange
350
5D
  3
Conceptual
350
5E
  3
Dim
350
5F
  3
EdgeColorOff
350
60
  3
Facepattern
350
61
  3
Flat
350
62
  3
FlatWithEdges
350
63
  3
Gouraud
350
64
  3
GouraudWithEdges
350
65
  3
Hidden
350
66
  3
JitterOff
350
67
  3
Linepattern
350
68
  3
Modeling
350
69
  3
OverhangOff
350
6A
  3
Realistic
350
6B
  3
Shaded
350
6C
  3
Shaded with edges
350
6D
  3
Shades of Gray
350
6E
  3
Sketchy
350
6F
  3
Thicken
350
70
  3
Wireframe
350
71
  3
X-Ray
350
72
  0
LAYOUT
  5
1A
330
D
100
AcDbPlotSettings
  1

  4
A3
  6

 40
7.5
 41
20.0
 42
7.5
 43
20.0
 44
420.0
 45
297.0
 46
0.0
 47
0.0
 48
0.0
 49
0.0
140
0.0
141
0.0
142
1.0
143
1.0
 70
1024
 72
1
 73
0
 74
5
  7

 75
16
 76
0
 77
2
 78
300
147
1.0
148
0.0
149
0.0
100
AcDbLayout
  1
Model
 70
1
 71
0
 10
0.0
 20
0.0
 11
420.0
 21
297.0
 12
0.0
 22
0.0
 32
0.0
 14
1e+20
 24
1e+20
 34
1e+20
 15
-1e+20
 25
-1e+20
 35
-1e+20
146
0.0
 13
0.0
 23
0.0
 33
0.0
 16
1.0
 26
0.0
 36
0.0
 17
0.0
 27
1.0
 37
0.0
 76
1
330
17
  0
LAYOUT
  5
1E
330
D
100
AcDbPlotSettings
  1

  4
A3
  6

 40
7.5
 41
20.0
 42
7.5
 43
20.0
 44
420.0
 45
297.0
 46
0.0
 47
0.0
 48
0.0
 49
0.0
140
0.0
141
0.0
142
1.0
143
1.0
 70
0
 72
1
 73
0
 74
5
  7

 75
16
 76
0
 77
2
 78
300
147
1.0
148
0.0
149
0.0
100
AcDbLayout
  1
Layout1
 70
1
 71
1
 10
0.0
 20
0.0
 11
420.0
 21
297.0
 12
0.0
 22
0.0
 32
0.0
 14
1e+20
 24
1e+20
 34
1e+20
 15
-1e+20
 25
-1e+20
 35
-1e+20
146
0.0
 13
0.0
 23
0.0
 33
0.0
 16
1.0
 26
0.0
 36
0.0
 17
0.0
 27
1.0
 37
0.0
 76
1
330
1B
  0
MATERIAL
  5
1F
102
{ACAD_REACTORS
330
E
102
}
330
E
100
AcDbMaterial
  1
ByBlock
  2

 70
0
 40
1.0
 71
1
 41
1.0
 91
-1023410177
 42
1.0
 72
1
  3

 73
1
 74
1
 75
1
 44
0.5
 73
0
 45
1.0
 46
1.0
 77
1
  4

 78
1
 79
1
170
1
 48
1.0
171
1
  6

172
1
173
1
174
1
140
1.0
141
1.0
175
1
  7

176
1
177
1
178
1
143
1.0
179
1
  8

270
1
271
1
272
1
145
1.0
146
1.0
273
1
  9

274
1
275
1
276
1
 42
1.0
 72
1
  3

 73
1
 74
1
 75
1
 94
63
  0
MATERIAL
  5
20
102
{ACAD_REACTORS
330
E
102
}
330
E
100
AcDbMaterial
  1
ByLayer
  2

 70
0
 40
1.0
 71
1
 41
1.0
 91
-1023410177
 42
1.0
 72
1
  3

 73
1
 74
1
 75
1
 44
0.5
 73
0
 45
1.0
 46
1.0
 77
1
  4

 78
1
 79
1
170
1
 48
1.0
171
1
  6

172
1
173
1
174
1
140
1.0
141
1.0
175
1
  7

176
1
177
1
178
1
143
1.0
179
1
  8

270
1
271
1
272
1
145
1.0
146
1.0
273
1
  9

274
1
275
1
276
1
 42
1.0
 72
1
  3

 73
1
 74
1
 75
1
 94
63
  0
MATERIAL
  5
21
102
{ACAD_REACTORS
330
E
102
}
330
E
100
AcDbMaterial
  1
Global
  2

 70
0
 40
1.0
 71
1
 41
1.0
 91
-1023410177
 42
1.0
 72
1
  3

 73
1
 74
1
 75
1
 44
0.5
 73
0
 45
1.0
 46
1.0
 77
1
  4

 78
1
 79
1
170
1
 48
1.0
171
1
  6

172
1
173
1
174
1
140
1.0
141
1.0
175
1
  7

176
1
177
1
178
1
143
1.0
179
1
  8

270
1
271
1
272
1
145
1.0
146
1.0
273
1
  9

274
1
275
1
276
1
 42
1.0
 72
1
  3

 73
1
 74
1
 75
1
 94
63
  0
MLINESTYLE
  5
22
102
{ACAD_REACTORS
330
10
102
}
330
10
100
AcDbMlineStyle
  2
Standard
 70
0
  3

 62
256
 51
90.0
 52
90.0
 71
2
 49
0.5
 62
256
  6
BYLAYER
 49
-0.5
 62
256
  6
BYLAYER
  0
MLEADERSTYLE
  5
2C
102
{ACAD_REACTORS
330
F
102
}
330
F
100
AcDbMLeaderStyle
179
2
170
2
171
1
172
0
 90
2
 40
0.0
 41
0.0
173
1
 91
-1056964608
 92
-2
290
1
 42
2.0
291
1
 43
8.0
  3
Standard
 44
4.0
300

342
29
174
1
175
1
176
0
178
1
 93
-1056964608
 45
4.0
292
0
297
0
 46
4.0
 94
-1056964608
 47
1.0
 49
1.0
140
1.0
294
1
141
0.0
177
0
142
1.0
295
0
296
0
143
3.75
271
0
272
9
273
9
  0
DICTIONARY
  5
2D
330
A
100
AcDbDictionary
280
1
281
1
  3
CREATED_BY_EZDXF
350
2E
  3
WRITTEN_BY_EZDXF
350
17A
  0
DICTIONARYVAR
  5
2E
330
2D
100
DictionaryVariables
280
0
  1
1.4.2 @ 2026-09-18T19:52:11.103477+00:00
  0
VISUALSTYLE
  5
5A
102
{ACAD_REACTORS
330
16
102
}
330
16
100
AcDbVisualStyle
  2
2dWireframe
 70
4
 90
0
 40
0.6
 62
7
290
0
291
0
  0
VISUALSTYLE
  5
5B
102
{ACAD_REACTORS
330
16
102
}
330
16
100
AcDbVisualStyle
  2
Basic
 70
7
 90
1
 40
0.6
 62
7
290
0
291
1
  0
VISUALSTYLE
  5
5C
102
{ACAD_REACTORS
330
16
102
}
330
16
100
AcDbVisualStyle
  2
Brighten
 70
12
 90
2
 40
0.6
 62
7
290
0
291
1
  0
VISUALSTYLE
  5
5D
102
{ACAD_REACTORS
330
16
102
}
330
16
100
AcDbVisualStyle
  2
ColorChange
 70
16
 90
2
 40
0.6
 62
8
290
0
291
1
  0
VISUALSTYLE
  5
5E
102
{ACAD_REACTORS
330
16
102
}
330
16
100
AcDbVisualStyle
  2
Conceptual
 70
9
 90
3
 40
0.6
 62
7
290
0
291
0
  0
VISUALSTYLE
  5
5F
102
{ACAD_REACTORS
330
16
102
}
330
16
100
AcDbVisualStyle
  2
Dim
 70
11
 90
2
 40
0.6
 62
7
290
0
291
1
  0
VISUALSTYLE
  5
60
102
{ACAD_REACTORS
330
16
102
}
330
16
100
AcDbVisualStyle
  2
EdgeColorOff
 70
22
 90
2
 40
0.6
 62
7
290
0
291
1
  0
VISUALSTYLE
  5
61
102
{ACAD_REACTORS
330
16
102
}
330
16
100
AcDbVisualStyle
  2
Facepattern
 70
15
 90
2
 40
0.6
 62
7
290
0
291
1
  0
VISUALSTYLE
  5
62
102
{ACAD_REACTORS
330
16
102
}
330
16
100
AcDbVisualStyle
  2
Flat
 70
0
 90
2
 40
0.6
 62
7
290
0
291
1
  0
VISUALSTYLE
  5
63
102
{ACAD_REACTORS
330
16
102
}
330
16
100
AcDbVisualStyle
  2
FlatWithEdges
 70
1
 90
2
 40
0.6
 62
7
290
0
291
1
  0
VISUALSTYLE
  5
64
102
{ACAD_REACTORS
330
16
102
}
330
16
100
AcDbVisualStyle
  2
Gouraud
 70
2
 90
2
 40
0.6
 62
7
290
0
291
1
  0
VISUALSTYLE
  5
65
102
{ACAD_REACTORS
330
16
102
}
330
16
100
AcDbVisualStyle
  2
GouraudWithEdges
 70
3
 90
2
 40
0.6
 62
7
290
0
291
1
  0
VISUALSTYLE
  5
66
102
{ACAD_REACTORS
330
16
102
}
330
16
100
AcDbVisualStyle
  2
Hidden
 70
6
 90
1
 40
0.6
 62
7
290
0
291
0
  0
VISUALSTYLE
  5
67
102
{ACAD_REACTORS
330
16
102
}
330
16
100
AcDbVisualStyle
  2
JitterOff
 70
20
 90
2
 40
0.6
 62
7
290
0
291
1
  0
VISUALSTYLE
  5
68
102
{ACAD_REACTORS
330
16
102
}
330
16
100
AcDbVisualStyle
  2
Linepattern
 70
14
 90
2
 40
0.6
 62
7
290
0
291
1
  0
VISUALSTYLE
  5
69
102
{ACAD_REACTORS
330
16
102
}
330
16
100
AcDbVisualStyle
  2
Modeling
 70
10
 90
2
 40
0.6
 62
7
290
0
291
0
  0
VISUALSTYLE
  5
6A
102
{ACAD_REACTORS
330
16
102
}
330
16
100
AcDbVisualStyle
  2
OverhangOff
 70
21
 90
2
 40
0.6
 62
7
290
0
291
1
  0
VISUALSTYLE
  5
6B
102
{ACAD_REACTORS
330
16
102
}
330
16
100
AcDbVisualStyle
  2
Realistic
 70
8
 90
2
 40
0.6
 62
7
290
0
291
0
  0
VISUALSTYLE
  5
6C
102
{ACAD_REACTORS
330
16
102
}
330
16
100
AcDbVisualStyle
  2
Shaded
 70
27
 90
2
 40
0.6
 62
7
290
0
291
0
  0
VISUALSTYLE
  5
6D
102
{ACAD_REACTORS
330
16
102
}
330
16
100
AcDbVisualStyle
  2
Shaded with edges
 70
26
 90
2
 40
0.6
 62
7
290
0
291
0
  0
VISUALSTYLE
  5
6E
102
{ACAD_REACTORS
330
16
102
}
330
16
100
AcDbVisualStyle
  2
Shades of Gray
 70
23
 90
2
 40
0.6
 62
7
290
0
291
0
  0
VISUALSTYLE
  5
6F
102
{ACAD_REACTORS
330
16
102
}
330
16
100
AcDbVisualStyle
  2
Sketchy
 70
24
 90
1
 40
0.6
 62
7
290
0
291
0
  0
VISUALSTYLE
  5
70
102
{ACAD_REACTORS
330
16
102
}
330
16
100
AcDbVisualStyle
  2
Thicken
 70
13
 90
2
 40
0.6
 62
7
290
0
291
1
  0
VISUALSTYLE
  5
71
102
{ACAD_REACTORS
330
16
102
}
330
16
100
AcDbVisualStyle
  2
Wireframe
 70
5
 90
0
 40
0.6
 62
7
290
0
291
0
  0
VISUALSTYLE
  5
72
102
{ACAD_REACTORS
330
16
102
}
330
16
100
AcDbVisualStyle
  2
X-Ray
 70
25
 90
2
 40
0.5
 62
7
290
0
291
0
  0
DICTIONARYVAR
  5
17A
330
2D
100
DictionaryVariables
280
0
  1
1.4.2 @ 2026-09-18T19:52:11.223234+00:00
  0
ENDSEC
  0
EOF
