  0
SECTION
  2
HEADER
  9
$ACADVER
  1
AC1024
  9
$ACADMAINTVER
 70
6
  9
$DWGCODEPAGE
  3
ANSI_1252
  9
$LASTSAVEDBY
  1
ezdxf
  9
$INSBASE
 10
0.0
 20
0.0
 30
0.0
  9
$EXTMIN
 10
1e+20
 20
1e+20
 30
1e+20
  9
$EXTMAX
 10
-1e+20
 20
-1e+20
 30
-1e+20
  9
$LIMMIN
 10
0.0
 20
0.0
  9
$LIMMAX
 10
420.0
 20
297.0
  9
$ORTHOMODE
 70
0
  9
$REGENMODE
 70
1
  9
$FILLMODE
 70
1
  9
$QTEXTMODE
 70
0
  9
$MIRRTEXT
 70
1
  9
$LTSCALE
 40
0.00984251968503937
  9
$ATTMODE
 70
1
  9
$TEXTSIZE
 40
2.5
  9
$TRACEWID
 40
1.0
  9
$TEXTSTYLE
  7
OpenSans
  9
$CLAYER
  8
0
  9
$CELTYPE
  6
ByLayer
  9
$CECOLOR
 62
256
  9
$CELTSCALE
 40
1.0
  9
$DISPSILH
 70
0
  9
$DIMSCALE
 40
1.0
  9
$DIMASZ
 40
0.175
  9
$DIMEXO
 40
0.125
  9
$DIMDLI
 40
3.75
  9
$DIMRND
 40
0.0
  9
$DIMDLE
 40
0.0
  9
$DIMEXE
 40
0.375
  9
$DIMTP
 40
0.0
  9
$DIMTM
 40
0.0
  9
$DIMTXT
 40
0.25
  9
$DIMCEN
 40
2.5
  9
$DIMTSZ
 40
0.0
  9
$DIMTOL
 70
0
  9
$DIMLIM
 70
0
  9
$DIMTIH
 70
0
  9
$DIMTOH
 70
0
  9
$DIMSE1
 70
0
  9
$DIMSE2
 70
0
  9
$DIMTAD
 70
1
  9
$DIMZIN
 70
12
  9
$DIMBLK
  1
ARCHTICK
  9
$DIMASO
 70
1
  9
$DIMSHO
 70
1
  9
$DIMPOST
  1

  9
$DIMAPOST
  1

  9
$DIMALT
 70
0
  9
$DIMALTD
 70
3
  9
$DIMALTF
 40
0.03937007874
  9
$DIMLFAC
 40
100.0
  9
$DIMTOFL
 70
1
  9
$DIMTVP
 40
0.0
  9
$DIMTIX
 70
0
  9
$DIMSOXD
 70
0
  9
$DIMSAH
 70
0
  9
$DIMBLK1
  1

  9
$DIMBLK2
  1

  9
$DIMSTYLE
  2
EZDXF
  9
$DIMCLRD
 70
0
  9
$DIMCLRE
 70
0
  9
$DIMCLRT
 70
0
  9
$DIMTFAC
 40
0.5
  9
$DIMGAP
 40
0.1
  9
$DIMJUST
 70
0
  9
$DIMSD1
 70
0
  9
$DIMSD2
 70
0
  9
$DIMTOLJ
 70
0
  9
$DIMTZIN
 70
8
  9
$DIMALTZ
 70
0
  9
$DIMALTTZ
 70
0
  9
$DIMUPT
 70
1
  9
$DIMDEC
 70
2
  9
$DIMTDEC
 70
2
  9
$DIMALTU
 70
2
  9
$DIMALTTD
 70
3
  9
$DIMTXSTY
  7
OpenSansCondensed-Light
  9
$DIMAUNIT
 70
0
  9
$DIMADEC
 70
2
  9
$DIMALTRND
 40
0.0
  9
$DIMAZIN
 70
3
  9
$DIMDSEP
 70
46
  9
$DIMATFIT
 70
3
  9
$DIMFRAC
 70
0
  9
$DIMLDRBLK
  1

  9
$DIMLUNIT
 70
2
  9
$DIMLWD
 70
-2
  9
$DIMLWE
 70
-2
  9
$DIMTMOVE
 70
2
  9
$DIMFXL
 40
1.0
  9
$DIMFXLON
 70
0
  9
$DIMJOGANG
 40
0.785398163397
  9
$DIMTFILL
 70
0
  9
$DIMTFILLCLR
 70
0
  9
$DIMARCSYM
 70
0
  9
$DIMLTYPE
  6

  9
$DIMLTEX1
  6

  9
$DIMLTEX2
  6

  9
$DIMTXTDIRECTION
 70
0
  9
$LUNITS
 70
4
  9
$LUPREC
 70
4
  9
$SKETCHINC
 40
1.0
  9
$FILLETRAD
 40
10.0
  9
$AUNITS
 70
0
  9
$AUPREC
 70
3
  9
$MENU
  1
.
  9
$ELEVATION
 40
0.0
  9
$PELEVATION
 40
0.0
  9
$THICKNESS
 40
0.0
  9
$LIMCHECK
 70
0
  9
$CHAMFERA
 40
0.0
  9
$CHAMFERB
 40
0.0
  9
$CHAMFERC
 40
0.0
  9
$CHAMFERD
 40
0.0
  9
$SKPOLY
 70
0
  9
$TDCREATE
 40
2461302.972141204
  9
$TDUCREATE
 40
2458532.153996898
  9
$TDUPDATE
 40
2461302.972141204
  9
$TDUUPDATE
 40
2458532.1544311
  9
$TDINDWG
 40
0.0
  9
$TDUSRTIMER
 40
0.0
  9
$USRTIMER
 70
1
  9
$ANGBASE
 50
0.0
  9
$ANGDIR
 70
0
  9
$PDMODE
 70
0
  9
$PDSIZE
 40
0.0
  9
$PLINEWID
 40
0.0
  9
$SPLFRAME
 70
0
  9
$SPLINETYPE
 70
6
  9
$SPLINESEGS
 70
8
  9
$HANDSEED
  5
28D
  9
$SURFTAB1
 70
6
  9
$SURFTAB2
 70
6
  9
$SURFTYPE
 70
6
  9
$SURFU
 70
6
  9
$SURFV
 70
6
  9
$UCSBASE
  2

  9
$UCSNAME
  2

  9
$UCSORG
 10
0.0
 20
0.0
 30
0.0
  9
$UCSXDIR
 10
1.0
 20
0.0
 30
0.0
  9
$UCSYDIR
 10
0.0
 20
1.0
 30
0.0
  9
$UCSORTHOREF
  2

  9
$UCSORTHOVIEW
 70
0
  9
$UCSORGTOP
 10
0.0
 20
0.0
 30
0.0
  9
$UCSORGBOTTOM
 10
0.0
 20
0.0
 30
0.0
  9
$UCSORGLEFT
 10
0.0
 20
0.0
 30
0.0
  9
$UCSORGRIGHT
 10
0.0
 20
0.0
 30
0.0
  9
$UCSORGFRONT
 10
0.0
 20
0.0
 30
0.0
  9
$UCSORGBACK
 10
0.0
 20
0.0
 30
0.0
  9
$PUCSBASE
  2

  9
$PUCSNAME
  2

  9
$PUCSORG
 10
0.0
 20
0.0
 30
0.0
  9
$PUCSXDIR
 10
1.0
 20
0.0
 30
0.0
  9
$PUCSYDIR
 10
0.0
 20
1.0
 30
0.0
  9
$PUCSORTHOREF
  2

  9
$PUCSORTHOVIEW
 70
0
  9
$PUCSORGTOP
 10
0.0
 20
0.0
 30
0.0
  9
$PUCSORGBOTTOM
 10
0.0
 20
0.0
 30
0.0
  9
$PUCSORGLEFT
 10
0.0
 20
0.0
 30
0.0
  9
$PUCSORGRIGHT
 10
0.0
 20
0.0
 30
0.0
  9
$PUCSORGFRONT
 10
0.0
 20
0.0
 30
0.0
  9
$PUCSORGBACK
 10
0.0
 20
0.0
 30
0.0
  9
$USERI1
 70
0
  9
$USERI2
 70
0
  9
$USERI3
 70
0
  9
$USERI4
 70
0
  9
$USERI5
 70
0
  9
$USERR1
 40
0.0
  9
$USERR2
 40
0.0
  9
$USERR3
 40
0.0
  9
$USERR4
 40
0.0
  9
$USERR5
 40
0.0
  9
$WORLDVIEW
 70
1
  9
$SHADEDGE
 70
3
  9
$SHADEDIF
 70
70
  9
$TILEMODE
 70
1
  9
$MAXACTVP
 70
64
  9
$PINSBASE
 10
0.0
 20
0.0
 30
0.0
  9
$PLIMCHECK
 70
0
  9
$PEXTMIN
 10
1e+20
 20
1e+20
 30
1e+20
  9
$PEXTMAX
 10
-1e+20
 20
-1e+20
 30
-1e+20
  9
$PLIMMIN
 10
0.0
 20
0.0
  9
$PLIMMAX
 10
420.0
 20
297.0
  9
$UNITMODE
 70
0
  9
$VISRETAIN
 70
1
  9
$PLINEGEN
 70
0
  9
$PSLTSCALE
 70
1
  9
$TREEDEPTH
 70
3020
  9
$CMLSTYLE
  2
Standard
  9
$CMLJUST
 70
0
  9
$CMLSCALE
 40
20.0
  9
$PROXYGRAPHICS
 70
1
  9
$MEASUREMENT
 70
0
  9
$CELWEIGHT
370
-1
  9
$ENDCAPS
280
0
  9
$JOINSTYLE
280
0
  9
$LWDISPLAY
290
0
  9
$INSUNITS
 70
1
  9
$HYPERLINKBASE
  1

  9
$STYLESHEET
  1

  9
$XEDIT
290
1
  9
$CEPSNTYPE
380
0
  9
$PSTYLEMODE
290
1
  9
$FINGERPRINTGUID
  2
{50E6E064-D5CE-4A4D-9B9E-8669149CE963}
  9
$VERSIONGUID
  2
{5315EF87-EF33-445E-B5F7-57AF76C71BD3}
  9
$EXTNAMES
290
1
  9
$PSVPSCALE
 40
0.0
  9
$OLESTARTUP
290
0
  9
$SORTENTS
280
127
  9
$INDEXCTL
280
0
  9
$HIDETEXT
280
1
  9
$XCLIPFRAME
280
1
  9
$HALOGAP
280
0
  9
$OBSCOLOR
 70
257
  9
$OBSLTYPE
280
0
  9
$INTERSECTIONDISPLAY
280
0
  9
$INTERSECTIONCOLOR
 70
257
  9
$DIMASSOC
280
2
  9
$PROJECTNAME
  1

  9
$CAMERADISPLAY
290
0
  9
$LENSLENGTH
 40
50.0
  9
$CAMERAHEIGHT
 40
0.0
  9
$STEPSPERSEC
 40
24.0
  9
$STEPSIZE
 40
100.0
  9
$3DDWFPREC
 40
2.0
  9
$PSOLWIDTH
 40
0.005
  9
$PSOLHEIGHT
 40
0.08
  9
$LOFTANG1
 40
1.570796326795
  9
$LOFTANG2
 40
1.570796326795
  9
$LOFTMAG1
 40
0.0
  9
$LOFTMAG2
 40
0.0
  9
$LOFTPARAM
 70
7
  9
$LOFTNORMALS
280
1
  9
$LATITUDE
 40
37.795
  9
$LONGITUDE
 40
-122.394
  9
$NORTHDIRECTION
 40
0.0
  9
$TIMEZONE
 70
-8000
  9
$LIGHTGLYPHDISPLAY
280
1
  9
$TILEMODELIGHTSYNCH
280
1
  9
$CMATERIAL
347
20
  9
$SOLIDHIST
280
0
  9
$SHOWHIST
280
1
  9
$DWFFRAME
280
2
  9
$DGNFRAME
280
2
  9
$REALWORLDSCALE
290
1
  9
$INTERFERECOLOR
 62
256
  9
$CSHADOW
280
0
  9
$SHADOWPLANELOCATION
 40
0.0
  0
ENDSEC
  0
SECTION
  2
CLASSES
  0
CLASS
  1
ACDBDICTIONARYWDFLT
  2
AcDbDictionaryWithDefault
  3
ObjectDBX Classes
 90
0
 91
0
280
0
281
0
  0
CLASS
  1
SUN
  2
AcDbSun
  3
SCENEOE
 90
1153
 91
0
280
0
281
0
  0
CLASS
  1
VISUALSTYLE
  2
AcDbVisualStyle
  3
ObjectDBX Classes
 90
4095
 91
0
280
0
281
0
  0
CLASS
  1
MATERIAL
  2
AcDbMaterial
  3
ObjectDBX Classes
 90
1153
 91
0
280
0
281
0
  0
CLASS
  1
SCALE
  2
AcDbScale
  3
ObjectDBX Classes
 90
1153
 91
0
280
0
281
0
  0
CLASS
  1
TABLESTYLE
  2
AcDbTableStyle
  3
ObjectDBX Classes
 90
4095
 91
0
280
0
281
0
  0
CLASS
  1
MLEADERSTYLE
  2
AcDbMLeaderStyle
  3
ACDB_MLEADERSTYLE_CLASS
 90
4095
 91
0
280
0
281
0
  0
CLASS
  1
DICTIONARYVAR
  2
AcDbDictionaryVar
  3
ObjectDBX Classes
 90
0
 91
0
280
0
281
0
  0
CLASS
  1
CELLSTYLEMAP
  2
AcDbCellStyleMap
  3
ObjectDBX Classes
 90
1152
 91
0
280
0
281
0
  0
CLASS
  1
MENTALRAYRENDERSETTINGS
  2
AcDbMentalRayRenderSettings
  3
SCENEOE
 90
1024
 91
0
280
0
281
0
  0
CLASS
  1
ACDBDETAILVIEWSTYLE
  2
AcDbDetailViewStyle
  3
ObjectDBX Classes
 90
1025
 91
0
280
0
281
0
  0
CLASS
  1
ACDBSECTIONVIEWSTYLE
  2
AcDbSectionViewStyle
  3
ObjectDBX Classes
 90
1025
 91
0
280
0
281
0
  0
CLASS
  1
RASTERVARIABLES
  2
AcDbRasterVariables
  3
ISM
 90
0
 91
0
280
0
281
0
  0
CLASS
  1
ACDBPLACEHOLDER
  2
AcDbPlaceHolder
  3
ObjectDBX Classes
 90
0
 91
0
280
0
281
0
  0
CLASS
  1
LAYOUT
  2
AcDbLayout
  3
ObjectDBX Classes
 90
0
 91
0
280
0
281
0
  0
ENDSEC
  0
SECTION
  2
TABLES
  0
TABLE
  2
VPORT
  5
8
330
0
100
AcDbSymbolTable
 70
1
  0
VPORT
  5
23
330
8
100
AcDbSymbolTableRecord
100
AcDbViewportTableRecord
  2
*Active
 70
0
 10
0.0
 20
0.0
 11
1.0
 21
1.0
 12
0.0
 22
0.0
 13
0.0
 23
0.0
 14
0.5
 24
0.5
 15
0.5
 25
0.5
 16
0.0
 26
0.0
 36
1.0
 17
0.0
 27
0.0
 37
0.0
 40
1000.0
 41
1.34
 42
50.0
 43
0.0
 44
0.0
 50
0.0
 51
0.0
 71
0
 72
1000
 73
1
 74
3
 75
0
 76
0
 77
0
 78
0
281
0
 65
0
146
0.0
  0
ENDTAB
  0
TABLE
  2
LTYPE
  5
2
330
0
100
AcDbSymbolTable
 70
21
  0
LTYPE
  5
24
330
2
100
AcDbSymbolTableRecord
100
AcDbLinetypeTableRecord
  2
ByBlock
 70
0
  3

 72
65
 73
0
 40
0.0
  0
LTYPE
  5
25
330
2
100
AcDbSymbolTableRecord
100
AcDbLinetypeTableRecord
  2
ByLayer
 70
0
  3

 72
65
 73
0
 40
0.0
  0
LTYPE
  5
26
330
2
100
AcDbSymbolTableRecord
100
AcDbLinetypeTableRecord
  2
Continuous
 70
0
  3

 72
65
 73
0
 40
0.0
  0
LTYPE
  5
2F
330
2
100
AcDbSymbolTableRecord
100
AcDbLinetypeTableRecord
  2
CENTER
 70
0
  3
Center ____ _ ____ _ ____ _ ____ _ ____ _ ____
 72
65
 73
4
 40
2.0
 49
1.25
 74
0
 49
-0.25
 74
0
 49
0.25
 74
0
 49
-0.25
 74
0
  0
LTYPE
  5
30
330
2
100
AcDbSymbolTableRecord
100
AcDbLinetypeTableRecord
  2
CENTERX2
 70
0
  3
Center (2x) ________  __  ________  __  ________
 72
65
 73
4
 40
3.5
 49
2.5
 74
0
 49
-0.25
 74
0
 49
0.5
 74
0
 49
-0.25
 74
0
  0
LTYPE
  5
31
330
2
100
AcDbSymbolTableRecord
100
AcDbLinetypeTableRecord
  2
CENTER2
 70
0
  3
Center (.5x) ____ _ ____ _ ____ _ ____ _ ____
 72
65
 73
4
 40
1.0
 49
0.625
 74
0
 49
-0.125
 74
0
 49
0.125
 74
0
 49
-0.125
 74
0
  0
LTYPE
  5
32
330
2
100
AcDbSymbolTableRecord
100
AcDbLinetypeTableRecord
  2
DASHED
 70
0
  3
Dashed __ __ __ __ __ __ __ __ __ __ __ __ __ _
 72
65
 73
2
 40
0.6
 49
0.5
 74
0
 49
-0.1
 74
0
  0
LTYPE
  5
33
330
2
100
AcDbSymbolTableRecord
100
AcDbLinetypeTableRecord
  2
DASHEDX2
 70
0
  3
Dashed (2x) ____  ____  ____  ____  ____  ____
 72
65
 73
2
 40
1.2
 49
1.0
 74
0
 49
-0.2
 74
0
  0
LTYPE
  5
34
330
2
100
AcDbSymbolTableRecord
100
AcDbLinetypeTableRecord
  2
DASHED2
 70
0
  3
Dashed (.5x) _ _ _ _ _ _ _ _ _ _ _ _ _ _
 72
65
 73
2
 40
0.3
 49
0.25
 74
0
 49
-0.05
 74
0
  0
LTYPE
  5
35
330
2
100
AcDbSymbolTableRecord
100
AcDbLinetypeTableRecord
  2
PHANTOM
 70
0
  3
Phantom ______  __  __  ______  __  __  ______
 72
65
 73
6
 40
2.5
 49
1.25
 74
0
 49
-0.25
 74
0
 49
0.25
 74
0
 49
-0.25
 74
0
 49
0.25
 74
0
 49
-0.25
 74
0
  0
LTYPE
  5
36
330
2
100
AcDbSymbolTableRecord
100
AcDbLinetypeTableRecord
  2
PHANTOMX2
 70
0
  3
Phantom (2x)____________    ____    ____    ____________
 72
65
 73
6
 40
4.25
 49
2.5
 74
0
 49
-0.25
 74
0
 49
0.5
 74
0
 49
-0.25
 74
0
 49
0.5
 74
0
 49
-0.25
 74
0
  0
LTYPE
  5
37
330
2
100
AcDbSymbolTableRecord
100
AcDbLinetypeTableRecord
  2
PHANTOM2
 70
0
  3
Phantom (.5x) ___ _ _ ___ _ _ ___ _ _ ___ _ _ ___
 72
65
 73
6
 40
1.25
 49
0.625
 74
0
 49
-0.125
 74
0
 49
0.125
 74
0
 49
-0.125
 74
0
 49
0.125
 74
0
 49
-0.125
 74
0
  0
LTYPE
  5
38
330
2
100
AcDbSymbolTableRecord
100
AcDbLinetypeTableRecord
  2
DASHDOT
 70
0
  3
Dash dot __ . __ . __ . __ . __ . __ . __ . __
 72
65
 73
4
 40
1.4
 49
1.0
 74
0
 49
-0.2
 74
0
 49
0.0
 74
0
 49
-0.2
 74
0
  0
LTYPE
  5
39
330
2
100
AcDbSymbolTableRecord
100
AcDbLinetypeTableRecord
  2
DASHDOTX2
 70
0
  3
Dash dot (2x) ____  .  ____  .  ____  .  ____
 72
65
 73
4
 40
2.4
 49
2.0
 74
0
 49
-0.2
 74
0
 49
0.0
 74
0
 49
-0.2
 74
0
  0
LTYPE
  5
3A
330
2
100
AcDbSymbolTableRecord
100
AcDbLinetypeTableRecord
  2
DASHDOT2
 70
0
  3
Dash dot (.5x) _ . _ . _ . _ . _ . _ . _ . _
 72
65
 73
4
 40
0.7
 49
0.5
 74
0
 49
-0.1
 74
0
 49
0.0
 74
0
 49
-0.1
 74
0
  0
LTYPE
  5
3B
330
2
100
AcDbSymbolTableRecord
100
AcDbLinetypeTableRecord
  2
DOT
 70
0
  3
Dot .  .  .  .  .  .  .  .  .  .  .  .  .  .  .  .
 72
65
 73
2
 40
0.2
 49
0.0
 74
0
 49
-0.2
 74
0
  0
LTYPE
  5
3C
330
2
100
AcDbSymbolTableRecord
100
AcDbLinetypeTableRecord
  2
DOTX2
 70
0
  3
Dot (2x) .    .    .    .    .    .    .    . 
 72
65
 73
2
 40
0.4
 49
0.0
 74
0
 49
-0.4
 74
0
  0
LTYPE
  5
3D
330
2
100
AcDbSymbolTableRecord
100
AcDbLinetypeTableRecord
  2
DOT2
 70
0
  3
Dot (.5) . . . . . . . . . . . . . . . . . . . 
 72
65
 73
2
 40
0.1
 49
0.0
 74
0
 49
-0.1
 74
0
  0
LTYPE
  5
3E
330
2
100
AcDbSymbolTableRecord
100
AcDbLinetypeTableRecord
  2
DIVIDE
 70
0
  3
Divide __ . . __ . . __ . . __ . . __ . . __
 72
65
 73
6
 40
1.6
 49
1.0
 74
0
 49
-0.2
 74
0
 49
0.0
 74
0
 49
-0.2
 74
0
 49
0.0
 74
0
 49
-0.2
 74
0
  0
LTYPE
  5
3F
330
2
100
AcDbSymbolTableRecord
100
AcDbLinetypeTableRecord
  2
DIVIDEX2
 70
0
  3
Divide (2x) ____  . .  ____  . .  ____  . .  ____
 72
65
 73
6
 40
2.6
 49
2.0
 74
0
 49
-0.2
 74
0
 49
0.0
 74
0
 49
-0.2
 74
0
 49
0.0
 74
0
 49
-0.2
 74
0
  0
LTYPE
  5
40
330
2
100
AcDbSymbolTableRecord
100
AcDbLinetypeTableRecord
  2
DIVIDE2
 70
0
  3
Divide(.5x) _ . _ . _ . _ . _ . _ . _ . _
 72
65
 73
6
 40
0.8
 49
0.5
 74
0
 49
-0.1
 74
0
 49
0.0
 74
0
 49
-0.1
 74
0
 49
0.0
 74
0
 49
-0.1
 74
0
  0
ENDTAB
  0
TABLE
  2
LAYER
  5
1
330
0
100
AcDbSymbolTable
 70
6
  0
LAYER
  5
27
330
1
100
AcDbSymbolTableRecord
100
AcDbLayerTableRecord
  2
0
 70
0
 62
7
  6
Continuous
370
-3
390
13
347
21
  0
LAYER
  5
28
330
1
100
AcDbSymbolTableRecord
100
AcDbLayerTableRecord
  2
Defpoints
 70
0
 62
7
  6
Continuous
290
0
370
-3
390
13
347
21
  0
LAYER
  5
8A
330
1
100
AcDbSymbolTableRecord
100
AcDbLayerTableRecord
  2
GEOMETRY
 70
0
 62
7
  6
Continuous
370
-3
390
13
347
21
  0
LAYER
  5
8B
330
1
100
AcDbSymbolTableRecord
100
AcDbLayerTableRecord
  2
DIMENSIONS
 70
0
 62
1
  6
Continuous
370
-3
390
13
347
21
  0
LAYER
  5
8C
330
1
100
AcDbSymbolTableRecord
100
AcDbLayerTableRecord
  2
TEXT
 70
0
 62
7
  6
Continuous
370
-3
390
13
347
21
  0
LAYER
  5
8D
330
1
100
AcDbSymbolTableRecord
100
AcDbLayerTableRecord
  2
HATCH
 70
0
 62
8
  6
Continuous
370
-3
390
13
347
21
  0
ENDTAB
  0
TABLE
  2
STYLE
  5
5
330
0
100
AcDbSymbolTable
 70
26
  0
STYLE
  5
29
330
5
100
AcDbSymbolTableRecord
100
AcDbTextStyleTableRecord
  2
Standard
 70
0
 40
0.0
 41
1.0
 50
0.0
 71
0
 42
2.5
  3
txt
  4

  0
STYLE
  5
41
330
5
100
AcDbSymbolTableRecord
100
AcDbTextStyleTableRecord
  2
OpenSans-Light
 70
0
 40
0.0
 41
1.0
 50
0.0
 71
0
 42
2.5
  3
OpenSans-Light.ttf
  4

  0
STYLE
  5
42
330
5
100
AcDbSymbolTableRecord
100
AcDbTextStyleTableRecord
  2
OpenSans-Light-Italic
 70
0
 40
0.0
 41
1.0
 50
0.0
 71
0
 42
2.5
  3
OpenSans-LightItalic.ttf
  4

  0
STYLE
  5
43
330
5
100
AcDbSymbolTableRecord
100
AcDbTextStyleTableRecord
  2
OpenSans
 70
0
 40
0.0
 41
1.0
 50
0.0
 71
0
 42
2.5
  3
OpenSans-Regular.ttf
  4

  0
STYLE
  5
44
330
5
100
AcDbSymbolTableRecord
100
AcDbTextStyleTableRecord
  2
OpenSans-Italic
 70
0
 40
0.0
 41
1.0
 50
0.0
 71
0
 42
2.5
  3
OpenSans-Italic.ttf
  4

  0
STYLE
  5
45
330
5
100
AcDbSymbolTableRecord
100
AcDbTextStyleTableRecord
  2
OpenSans-SemiBold
 70
0
 40
0.0
 41
1.0
 50
0.0
 71
0
 42
2.5
  3
OpenSans-SemiBold.ttf
  4

  0
STYLE
  5
46
330
5
100
AcDbSymbolTableRecord
100
AcDbTextStyleTableRecord
  2
OpenSans-SemiBoldItalic
 70
0
 40
0.0
 41
1.0
 50
0.0
 71
0
 42
2.5
  3
OpenSans-SemiBoldItalic.ttf
  4

  0
STYLE
  5
47
330
5
100
AcDbSymbolTableRecord
100
AcDbTextStyleTableRecord
  2
OpenSans-Bold
 70
0
 40
0.0
 41
1.0
 50
0.0
 71
0
 42
2.5
  3
OpenSans-Bold.ttf
  4

  0
STYLE
  5
48
330
5
100
AcDbSymbolTableRecord
100
AcDbTextStyleTableRecord
  2
OpenSans-BoldItalic
 70
0
 40
0.0
 41
1.0
 50
0.0
 71
0
 42
2.5
  3
OpenSans-BoldItalic.ttf
  4

  0
STYLE
  5
49
330
5
100
AcDbSymbolTableRecord
100
AcDbTextStyleTableRecord
  2
OpenSans-ExtraBold
 70
0
 40
0.0
 41
1.0
 50
0.0
 71
0
 42
2.5
  3
OpenSans-ExtraBold.ttf
  4

  0
STYLE
  5
4A
330
5
100
AcDbSymbolTableRecord
100
AcDbTextStyleTableRecord
  2
OpenSans-ExtraBoldItalic
 70
0
 40
0.0
 41
1.0
 50
0.0
 71
0
 42
2.5
  3
OpenSans-ExtraBoldItalic.ttf
  4

  0
STYLE
  5
4B
330
5
100
AcDbSymbolTableRecord
100
AcDbTextStyleTableRecord
  2
OpenSansCondensed-Bold
 70
0
 40
0.0
 41
1.0
 50
0.0
 71
0
 42
2.5
  3
OpenSansCondensed-Bold.ttf
  4

  0
STYLE
  5
4C
330
5
100
AcDbSymbolTableRecord
100
AcDbTextStyleTableRecord
  2
OpenSansCondensed-Light
 70
0
 40
0.0
 41
1.0
 50
0.0
 71
0
 42
2.5
  3
OpenSansCondensed-Light.ttf
  4

  0
STYLE
  5
4D
330
5
100
AcDbSymbolTableRecord
100
AcDbTextStyleTableRecord
  2
OpenSansCondensed-Italic
 70
0
 40
0.0
 41
1.0
 50
0.0
 71
0
 42
2.5
  3
OpenSansCondensed-LightItalic.ttf
  4

  0
STYLE
  5
4E
330
5
100
AcDbSymbolTableRecord
100
AcDbTextStyleTableRecord
  2
LiberationSans
 70
0
 40
0.0
 41
1.0
 50
0.0
 71
0
 42
2.5
  3
LiberationSans-Regular.ttf
  4

  0
STYLE
  5
4F
330
5
100
AcDbSymbolTableRecord
100
AcDbTextStyleTableRecord
  2
LiberationSans-Bold
 70
0
 40
0.0
 41
1.0
 50
0.0
 71
0
 42
2.5
  3
LiberationSans-Bold.ttf
  4

  0
STYLE
  5
50
330
5
100
AcDbSymbolTableRecord
100
AcDbTextStyleTableRecord
  2
LiberationSans-BoldItalic
 70
0
 40
0.0
 41
1.0
 50
0.0
 71
0
 42
2.5
  3
LiberationSans-BoldItalic.ttf
  4

  0
STYLE
  5
51
330
5
100
AcDbSymbolTableRecord
100
AcDbTextStyleTableRecord
  2
LiberationSans-Italic
 70
0
 40
0.0
 41
1.0
 50
0.0
 71
0
 42
2.5
  3
LiberationSans-Italic.ttf
  4

  0
STYLE
  5
52
330
5
100
AcDbSymbolTableRecord
100
AcDbTextStyleTableRecord
  2
LiberationSerif
 70
0
 40
0.0
 41
1.0
 50
0.0
 71
0
 42
2.5
  3
LiberationSerif-Regular.ttf
  4

  0
STYLE
  5
53
330
5
100
AcDbSymbolTableRecord
100
AcDbTextStyleTableRecord
  2
LiberationSerif-Bold
 70
0
 40
0.0
 41
1.0
 50
0.0
 71
0
 42
2.5
  3
LiberationSerif-Bold.ttf
  4

  0
STYLE
  5
54
330
5
100
AcDbSymbolTableRecord
100
AcDbTextStyleTableRecord
  2
LiberationSerif-BoldItalic
 70
0
 40
0.0
 41
1.0
 50
0.0
 71
0
 42
2.5
  3
LiberationSerif-BoldItalic.ttf
  4

  0
STYLE
  5
55
330
5
100
AcDbSymbolTableRecord
100
AcDbTextStyleTableRecord
  2
LiberationSerif-Italic
 70
0
 40
0.0
 41
1.0
 50
0.0
 71
0
 42
2.5
  3
LiberationSerif-Italic.ttf
  4

  0
STYLE
  5
56
330
5
100
AcDbSymbolTableRecord
100
AcDbTextStyleTableRecord
  2
LiberationMono
 70
0
 40
0.0
 41
1.0
 50
0.0
 71
0
 42
2.5
  3
LiberationMono-Regular.ttf
  4

  0
STYLE
  5
57
330
5
100
AcDbSymbolTableRecord
100
AcDbTextStyleTableRecord
  2
LiberationMono-Bold
 70
0
 40
0.0
 41
1.0
 50
0.0
 71
0
 42
2.5
  3
LiberationMono-Bold.ttf
  4

  0
STYLE
  5
58
330
5
100
AcDbSymbolTableRecord
100
AcDbTextStyleTableRecord
  2
LiberationMono-BoldItalic
 70
0
 40
0.0
 41
1.0
 50
0.0
 71
0
 42
2.5
  3
LiberationMono-BoldItalic.ttf
  4

  0
STYLE
  5
59
330
5
100
AcDbSymbolTableRecord
100
AcDbTextStyleTableRecord
  2
LiberationMono-Italic
 70
0
 40
0.0
 41
1.0
 50
0.0
 71
0
 42
2.5
  3
LiberationMono-Italic.ttf
  4

  0
ENDTAB
  0
TABLE
  2
VIEW
  5
7
330
0
100
AcDbSymbolTable
 70
0
  0
ENDTAB
  0
TABLE
  2
UCS
  5
6
330
0
100
AcDbSymbolTable
 70
0
  0
ENDTAB
  0
TABLE
  2
APPID
  5
3
330
0
100
AcDbSymbolTable
 70
3
  0
APPID
  5
2A
330
3
100
AcDbSymbolTableRecord
100
AcDbRegAppTableRecord
  2
ACAD
 70
0
  0
APPID
  5
28A
330
3
100
AcDbSymbolTableRecord
100
AcDbRegAppTableRecord
  2
HATCHBACKGROUNDCOLOR
 70
0
  0
APPID
  5
28B
330
3
100
AcDbSymbolTableRecord
100
AcDbRegAppTableRecord
  2
EZDXF
 70
0
  0
ENDTAB
  0
TABLE
  2
DIMSTYLE
  5
4
330
0
100
AcDbSymbolTable
 70
12
100
AcDbDimStyleTable
  0
DIMSTYLE
105
2B
330
4
100
AcDbSymbolTableRecord
100
AcDbDimStyleTableRecord
  2
Standard
 70
0
 40
1.0
 41
2.5
 42
0.625
 43
3.75
 44
1.25
 45
0.0
 46
0.0
 47
0.0
 48
0.0
 49
2.5
140
2.5
141
2.5
142
0.0
143
0.03937007874
144
1.0
145
0.0
146
1.0
147
0.625
148
0.0
 69
0
 70
0
 71
0
 72
0
 73
0
 74
0
 75
0
 76
0
 77
1
 78
8
 79
3
170
0
171
3
172
1
173
0
174
0
175
0
176
0
177
0
178
0
179
2
271
2
272
2
273
2
274
3
275
0
276
0
277
2
278
44
279
0
280
0
281
0
282
0
283
0
284
8
285
0
286
0
288
0
289
3
290
0
371
-2
372
-2
  0
DIMSTYLE
105
73
330
4
100
AcDbSymbolTableRecord
100
AcDbDimStyleTableRecord
  2
EZDXF
 70
0
 40
1.0
 41
0.175
 42
0.125
 43
3.75
 44
0.375
 45
0.0
 46
0.0
 47
0.0
 48
0.0
 49
2.5
140
0.25
141
2.5
142
0.0
143
0.03937007874
144
100.0
145
0.0
146
0.5
147
0.1
148
0.0
 69
0
 70
0
 71
0
 72
0
 73
0
 74
0
 75
0
 76
0
 77
1
 78
12
 79
3
170
0
171
3
172
1
173
0
174
0
175
0
176
0
177
0
178
0
179
2
271
2
272
2
273
2
274
3
275
0
276
0
277
2
278
46
279
2
280
0
281
0
282
0
283
0
284
8
285
0
286
0
288
1
289
3
290
0
340
4C
342
74
371
-2
372
-2
  0
DIMSTYLE
105
7C
330
4
100
AcDbSymbolTableRecord
100
AcDbDimStyleTableRecord
  2
EZ_M_100_H25_CM
 70
0
 40
1.0
 41
0.25
 42
0.125
 43
3.75
 44
0.375
 45
0.0
 46
0.0
 47
0.0
 48
0.0
 49
2.5
140
0.25
141
2.5
142
0.125
143
0.03937007874
144
100.0
145
0.0
146
0.5
147
0.1
148
0.0
 69
0
 70
0
 71
0
 72
0
 73
0
 74
0
 75
0
 76
0
 77
1
 78
12
 79
3
170
0
171
3
172
1
173
0
174
0
175
0
176
0
177
0
178
0
179
2
271
2
272
2
273
2
274
3
275
0
276
0
277
2
278
46
279
2
280
0
281
0
282
0
283
0
284
8
285
0
286
0
288
1
289
3
290
0
340
4C
371
-2
372
-2
  0
DIMSTYLE
105
7D
330
4
100
AcDbSymbolTableRecord
100
AcDbDimStyleTableRecord
  2
EZ_M_50_H25_CM
 70
0
 40
1.0
 41
0.125
 42
0.0625
 43
3.75
 44
0.1875
 45
0.0
 46
0.0
 47
0.0
 48
0.0
 49
2.5
140
0.125
141
2.5
142
0.0625
143
0.03937007874
144
100.0
145
0.0
146
0.5
147
0.05
148
0.0
 69
0
 70
0
 71
0
 72
0
 73
0
 74
0
 75
0
 76
0
 77
1
 78
12
 79
3
170
0
171
3
172
1
173
0
174
0
175
0
176
0
177
0
178
0
179
2
271
2
272
2
273
2
274
3
275
0
276
0
277
2
278
46
279
2
280
0
281
0
282
0
283
0
284
8
285
0
286
0
288
1
289
3
290
0
340
4C
371
-2
372
-2
  0
DIMSTYLE
105
7E
330
4
100
AcDbSymbolTableRecord
100
AcDbDimStyleTableRecord
  2
EZ_M_25_H25_CM
 70
0
 40
1.0
 41
0.0625
 42
0.03125
 43
3.75
 44
0.09375
 45
0.0
 46
0.0
 47
0.0
 48
0.0
 49
2.5
140
0.0625
141
2.5
142
0.03125
143
0.03937007874
144
100.0
145
0.0
146
0.5
147
0.025
148
0.0
 69
0
 70
0
 71
0
 72
0
 73
0
 74
0
 75
0
 76
0
 77
1
 78
12
 79
3
170
0
171
3
172
1
173
0
174
0
175
0
176
0
177
0
178
0
179
2
271
2
272
2
273
2
274
3
275
0
276
0
277
2
278
46
279
2
280
0
281
0
282
0
283
0
284
8
285
0
286
0
288
1
289
3
290
0
340
4C
371
-2
372
-2
  0
DIMSTYLE
105
7F
330
4
100
AcDbSymbolTableRecord
100
AcDbDimStyleTableRecord
  2
EZ_M_20_H25_CM
 70
0
 40
1.0
 41
0.05
 42
0.025
 43
3.75
 44
0.07500000000000001
 45
0.0
 46
0.0
 47
0.0
 48
0.0
 49
2.5
140
0.05
141
2.5
142
0.025
143
0.03937007874
144
100.0
145
0.0
146
0.5
147
0.020000000000000004
148
0.0
 69
0
 70
0
 71
0
 72
0
 73
0
 74
0
 75
0
 76
0
 77
1
 78
12
 79
3
170
0
171
3
172
1
173
0
174
0
175
0
176
0
177
0
178
0
179
2
271
2
272
2
273
2
274
3
275
0
276
0
277
2
278
46
279
2
280
0
281
0
282
0
283
0
284
8
285
0
286
0
288
1
289
3
290
0
340
4C
371
-2
372
-2
  0
DIMSTYLE
105
80
330
4
100
AcDbSymbolTableRecord
100
AcDbDimStyleTableRecord
  2
EZ_M_10_H25_CM
 70
0
 40
1.0
 41
0.025
 42
0.0125
 43
3.75
 44
0.037500000000000006
 45
0.0
 46
0.0
 47
0.0
 48
0.0
 49
2.5
140
0.025
141
2.5
142
0.0125
143
0.03937007874
144
100.0
145
0.0
146
0.5
147
0.010000000000000002
148
0.0
 69
0
 70
0
 71
0
 72
0
 73
0
 74
0
 75
0
 76
0
 77
1
 78
12
 79
3
170
0
171
3
172
1
173
0
174
0
175
0
176
0
177
0
178
0
179
2
271
2
272
2
273
2
274
3
275
0
276
0
277
2
278
46
279
2
280
0
281
0
282
0
283
0
284
8
285
0
286
0
288
1
289
3
290
0
340
4C
371
-2
372
-2
  0
DIMSTYLE
105
81
330
4
100
AcDbSymbolTableRecord
100
AcDbDimStyleTableRecord
  2
EZ_M_5_H25_CM
 70
0
 40
1.0
 41
0.0125
 42
0.00625
 43
3.75
 44
0.018750000000000003
 45
0.0
 46
0.0
 47
0.0
 48
0.0
 49
2.5
140
0.0125
141
2.5
142
0.00625
143
0.03937007874
144
100.0
145
0.0
146
0.5
147
0.005000000000000001
148
0.0
 69
0
 70
0
 71
0
 72
0
 73
0
 74
0
 75
0
 76
0
 77
1
 78
12
 79
3
170
0
171
3
172
1
173
0
174
0
175
0
176
0
177
0
178
0
179
2
271
2
272
2
273
2
274
3
275
0
276
0
277
2
278
46
279
2
280
0
281
0
282
0
283
0
284
8
285
0
286
0
288
1
289
3
290
0
340
4C
371
-2
372
-2
  0
DIMSTYLE
105
82
330
4
100
AcDbSymbolTableRecord
100
AcDbDimStyleTableRecord
  2
EZ_M_1_H25_CM
 70
0
 40
1.0
 41
0.0025
 42
0.00125
 43
3.75
 44
0.00375
 45
0.0
 46
0.0
 47
0.0
 48
0.0
 49
2.5
140
0.0025
141
2.5
142
0.00125
143
0.03937007874
144
100.0
145
0.0
146
0.5
147
0.001
148
0.0
 69
0
 70
0
 71
0
 72
0
 73
0
 74
0
 75
0
 76
0
 77
1
 78
12
 79
3
170
0
171
3
172
1
173
0
174
0
175
0
176
0
177
0
178
0
179
2
271
2
272
2
273
2
274
3
275
0
276
0
277
2
278
46
279
2
280
0
281
0
282
0
283
0
284
8
285
0
286
0
288
1
289
3
290
0
340
4C
371
-2
372
-2
  0
DIMSTYLE
105
83
330
4
100
AcDbSymbolTableRecord
100
AcDbDimStyleTableRecord
  2
EZ_RADIUS
 70
0
 40
1.0
 41
0.25
 42
0.125
 43
3.75
 44
0.375
 45
0.0
 46
0.0
 47
0.0
 48
0.0
 49
2.5
140
0.25
141
0.0
142
0.0
143
0.03937007874
144
100.0
145
0.0
146
0.5
147
0.1
148
0.0
 69
0
 70
0
 71
0
 72
0
 73
0
 74
0
 75
0
 76
0
 77
1
 78
12
 79
3
170
0
171
3
172
0
173
0
174
0
175
0
176
0
177
0
178
0
179
2
271
2
272
2
273
2
274
3
275
0
276
0
277
2
278
46
279
1
280
0
281
0
282
0
283
0
284
8
285
0
286
0
288
1
289
3
290
0
340
4C
342
84
371
-2
372
-2
  0
DIMSTYLE
105
88
330
4
100
AcDbSymbolTableRecord
100
AcDbDimStyleTableRecord
  2
EZ_RADIUS_INSIDE
 70
0
 40
1.0
 41
0.25
 42
0.125
 43
3.75
 44
0.375
 45
0.0
 46
0.0
 47
0.0
 48
0.0
 49
2.5
140
0.25
141
0.0
142
0.0
143
0.03937007874
144
100.0
145
0.0
146
0.5
147
0.1
148
0.0
 69
0
 70
0
 71
0
 72
0
 73
0
 74
0
 75
0
 76
0
 77
0
 78
12
 79
3
170
0
171
3
172
0
173
0
174
1
175
0
176
0
177
0
178
0
179
2
271
2
272
2
273
2
274
3
275
0
276
0
277
2
278
46
279
0
280
0
281
0
282
0
283
0
284
8
285
0
286
0
288
1
289
0
290
0
340
4C
342
84
371
-2
372
-2
  0
DIMSTYLE
105
89
330
4
100
AcDbSymbolTableRecord
100
AcDbDimStyleTableRecord
  2
EZ_CURVED
 70
0
 40
1.0
 41
0.25
 42
0.125
 43
3.75
 44
0.375
 45
0.0
 46
0.0
 47
0.0
 48
0.0
 49
2.5
140
0.25
141
2.5
142
0.0
143
0.03937007874
144
100.0
145
0.0
146
0.5
147
0.1
148
0.0
 69
0
 70
0
 71
0
 72
0
 73
0
 74
0
 75
0
 76
0
 77
1
 78
12
 79
2
 90
2
170
0
171
3
172
1
173
0
174
0
175
0
176
0
177
0
178
0
179
2
271
2
272
2
273
2
274
3
275
0
276
0
277
2
278
46
279
2
280
0
281
0
282
0
283
0
284
8
285
0
286
0
288
1
289
3
290
0
340
4C
371
-2
372
-2
  0
ENDTAB
  0
TABLE
  2
BLOCK_RECORD
  5
9
330
0
100
AcDbSymbolTable
 70
5
  0
BLOCK_RECORD
  5
17
330
9
100
AcDbSymbolTableRecord
100
AcDbBlockTableRecord
  2
*Model_Space
340
1A
 70
0
280
1
281
0
  0
BLOCK_RECORD
  5
1B
330
9
100
AcDbSymbolTableRecord
100
AcDbBlockTableRecord
  2
*Paper_Space
340
1E
 70
0
280
1
281
0
  0
BLOCK_RECORD
  5
74
330
9
100
AcDbSymbolTableRecord
100
AcDbBlockTableRecord
  2
_ARCHTICK
340
0
 70
0
280
1
281
0
  0
BLOCK_RECORD
  5
78
330
9
100
AcDbSymbolTableRecord
100
AcDbBlockTableRecord
  2
_CLOSEDFILLED
340
0
 70
0
280
1
281
0
  0
BLOCK_RECORD
  5
84
330
9
100
AcDbSymbolTableRecord
100
AcDbBlockTableRecord
  2
_CLOSEDBLANK
340
0
 70
0
280
1
281
0
  0
ENDTAB
  0
ENDSEC
  0
SECTION
  2
BLOCKS
  0
BLOCK
  5
18
330
17
100
AcDbEntity
  8
0
100
AcDbBlockBegin
  2
*Model_Space
 70
0
 10
0.0
 20
0.0
 30
0.0
  3
*Model_Space
  1

  0
ENDBLK
  5
19
330
17
100
AcDbEntity
  8
0
100
AcDbBlockEnd
  0
BLOCK
  5
1C
330
1B
100
AcDbEntity
  8
0
100
AcDbBlockBegin
  2
*Paper_Space
 70
0
 10
0.0
 20
0.0
 30
0.0
  3
*Paper_Space
  1

  0
ENDBLK
  5
1D
330
1B
100
AcDbEntity
  8
0
100
AcDbBlockEnd
  0
BLOCK
  5
75
330
74
100
AcDbEntity
  8
0
100
AcDbBlockBegin
  2
_ARCHTICK
 70
0
 10
0.0
 20
0.0
 30
0.0
  3
_ARCHTICK
  1

  0
LWPOLYLINE
  5
77
330
74
100
AcDbEntity
  8
0
  6
BYBLOCK
 62
0
100
AcDbPolyline
 90
2
 70
0
 43
0.15
 10
-0.5
 20
-0.5
 10
0.5
 20
0.5
  0
ENDBLK
  5
76
330
74
100
AcDbEntity
  8
0
100
AcDbBlockEnd
  0
BLOCK
  5
79
330
78
100
AcDbEntity
  8
0
100
AcDbBlockBegin
  2
_CLOSEDFILLED
 70
0
 10
0.0
 20
0.0
 30
0.0
  3
_CLOSEDFILLED
  1

  0
SOLID
  5
7B
330
78
100
AcDbEntity
  8
0
  6
BYBLOCK
 62
0
100
AcDbTrace
 10
-1.0
 20
0.16439898372402537
 30
0.0
 11
0.0
 21
0.0
 31
0.0
 12
-1.0
 22
-0.16439898372402537
 32
0.0
 13
-1.0
 23
-0.16439898372402537
 33
0.0
  0
ENDBLK
  5
7A
330
78
100
AcDbEntity
  8
0
100
AcDbBlockEnd
  0
BLOCK
  5
85
330
84
100
AcDbEntity
  8
0
100
AcDbBlockBegin
  2
_CLOSEDBLANK
 70
0
 10
0.0
 20
0.0
 30
0.0
  3
_CLOSEDBLANK
  1

  0
LWPOLYLINE
  5
87
330
84
100
AcDbEntity
  8
0
  6
BYBLOCK
 62
0
100
AcDbPolyline
 90
3
 70
1
 10
-1.0
 20
0.16439898372402537
 10
0.0
 20
0.0
 10
-1.0
 20
-0.16439898372402537
  0
ENDBLK
  5
86
330
84
100
AcDbEntity
  8
0
100
AcDbBlockEnd
  0
ENDSEC
  0
SECTION
  2
ENTITIES
  0
LWPOLYLINE
  5
8E
330
17
100
AcDbEntity
  8
GEOMETRY
100
AcDbPolyline
 90
5
 70
0
 10
0.31496062992125984
 20
11.377952755905513
 10
16.22047244094488
 20
11.377952755905513
 10
16.22047244094488
 20
0.31496062992126106
 10
0.31496062992125984
 20
0.31496062992126106
 10
0.31496062992125984
 20
11.377952755905513
  0
LWPOLYLINE
  5
8F
330
17
100
AcDbEntity
  8
GEOMETRY
100
AcDbPolyline
 90
4
 70
0
 10
1.8011811023622046
 20
2.6935695538057765
 10
1.8011811023622046
 20
10.442913385826772
 10
5.134514435695538
 20
10.442913385826772
 10
5.134514435695538
 20
2.6935695538057765
  0
LWPOLYLINE
  5
90
330
17
100
AcDbEntity
  8
GEOMETRY
  6
DASHED
100
AcDbPolyline
 90
4
 70
0
 10
1.6338582677165354
 20
2.6935695538057765
 10
1.6338582677165354
 20
10.61023622047244
 10
5.301837270341207
 20
10.61023622047244
 10
5.301837270341207
 20
2.6935695538057765
  0
LWPOLYLINE
  5
91
330
17
100
AcDbEntity
  8
GEOMETRY
100
AcDbPolyline
 90
5
 70
0
 10
1.968503937007874
 20
10.275590551181104
 10
3.467847769028871
 20
10.275590551181104
 10
3.467847769028871
 20
2.6935695538057765
 10
1.968503937007874
 20
2.6935695538057765
 10
1.968503937007874
 20
10.275590551181104
  0
LINE
  5
92
330
17
100
AcDbEntity
  8
GEOMETRY
100
AcDbLine
 10
2.296587926509186
 20
9.947506561679791
 30
0.0
 11
3.139763779527559
 21
9.947506561679791
 31
0.0
  0
LINE
  5
93
330
17
100
AcDbEntity
  8
GEOMETRY
100
AcDbLine
 10
2.296587926509186
 20
3.448162729658793
 30
0.0
 11
3.139763779527559
 21
3.448162729658793
 31
0.0
  0
LINE
  5
94
330
17
100
AcDbEntity
  8
GEOMETRY
100
AcDbLine
 10
2.296587926509186
 20
6.213910761154856
 30
0.0
 11
2.296587926509186
 21
5.459317585301838
 31
0.0
  0
LINE
  5
95
330
17
100
AcDbEntity
  8
GEOMETRY
100
AcDbLine
 10
3.139763779527559
 20
6.213910761154856
 30
0.0
 11
3.139763779527559
 21
5.459317585301838
 31
0.0
  0
LINE
  5
96
330
17
100
AcDbEntity
  8
GEOMETRY
100
AcDbLine
 10
2.296587926509186
 20
10.275590551181102
 30
0.0
 11
2.296587926509186
 21
9.947506561679791
 31
0.0
  0
LINE
  5
97
330
17
100
AcDbEntity
  8
GEOMETRY
100
AcDbLine
 10
3.139763779527559
 20
10.275590551181102
 30
0.0
 11
3.139763779527559
 21
9.947506561679791
 31
0.0
  0
LINE
  5
98
330
17
100
AcDbEntity
  8
GEOMETRY
100
AcDbLine
 10
2.296587926509186
 20
3.448162729658793
 30
0.0
 11
2.296587926509186
 21
2.693569553805775
 31
0.0
  0
LINE
  5
99
330
17
100
AcDbEntity
  8
GEOMETRY
100
AcDbLine
 10
3.139763779527559
 20
3.448162729658793
 30
0.0
 11
3.139763779527559
 21
2.693569553805775
 31
0.0
  0
LWPOLYLINE
  5
9A
330
17
100
AcDbEntity
  8
GEOMETRY
100
AcDbPolyline
 90
5
 70
0
 10
2.296587926509186
 20
9.947506561679791
 10
3.139763779527559
 20
9.947506561679791
 10
3.139763779527559
 20
6.213910761154857
 10
2.296587926509186
 20
6.213910761154857
 10
2.296587926509186
 20
9.947506561679791
  0
LWPOLYLINE
  5
9B
330
17
100
AcDbEntity
  8
GEOMETRY
100
AcDbPolyline
 90
5
 70
0
 10
2.3622047244094486
 20
9.881889763779528
 10
3.074146981627296
 20
9.881889763779528
 10
3.074146981627296
 20
6.2795275590551185
 10
2.3622047244094486
 20
6.2795275590551185
 10
2.3622047244094486
 20
9.881889763779528
  0
LINE
  5
9C
330
17
100
AcDbEntity
  8
GEOMETRY
100
AcDbLine
 10
2.296587926509186
 20
9.947506561679791
 30
0.0
 11
2.3622047244094486
 21
9.881889763779528
 31
0.0
  0
LINE
  5
9D
330
17
100
AcDbEntity
  8
GEOMETRY
100
AcDbLine
 10
3.139763779527559
 20
9.947506561679791
 30
0.0
 11
3.074146981627296
 21
9.881889763779528
 31
0.0
  0
LINE
  5
9E
330
17
100
AcDbEntity
  8
GEOMETRY
100
AcDbLine
 10
2.296587926509186
 20
6.213910761154856
 30
0.0
 11
2.3622047244094486
 21
6.279527559055118
 31
0.0
  0
LINE
  5
9F
330
17
100
AcDbEntity
  8
GEOMETRY
100
AcDbLine
 10
3.139763779527559
 20
6.213910761154856
 30
0.0
 11
3.074146981627296
 21
6.279527559055118
 31
0.0
  0
POLYLINE
  5
A0
330
17
100
AcDbEntity
  8
GEOMETRY
100
AcDb2dPolyline
 66
1
 10
0.0
 20
0.0
 30
0.0
 70
0
  0
VERTEX
  5
A1
330
A0
100
AcDbEntity
  8
GEOMETRY
100
AcDbVertex
100
AcDb2dVertex
 10
2.44750656167979
 20
6.561679790026248
 30
0.0
 70
0
  0
VERTEX
  5
A2
330
A0
100
AcDbEntity
  8
GEOMETRY
100
AcDbVertex
100
AcDb2dVertex
 10
2.44750656167979
 20
9.5997375328084
 30
0.0
 70
0
  0
SEQEND
  5
A3
330
A0
100
AcDbEntity
  8
GEOMETRY
  0
SPLINE
  5
A4
330
17
100
AcDbEntity
  8
GEOMETRY
100
AcDbSpline
 70
0
 71
3
 72
14
 73
10
 74
0
 40
0.0
 40
0.0
 40
0.0
 40
0.0
 40
1.0
 40
1.0
 40
1.0
 40
2.0
 40
2.0
 40
2.0
 40
3.0
 40
3.0
 40
3.0
 40
3.0
 10
2.44750656167979
 20
9.5997375328084
 30
0.0
 10
2.4624790468269726
 20
9.5997375328084
 30
0.0
 10
2.477190927819715
 20
9.603679569439548
 30
0.0
 10
2.49015748031496
 20
9.61116581201314
 30
0.0
 10
2.503124032810206
 20
9.61865205458673
 30
0.0
 10
2.5138938771718005
 20
9.629421898948324
 30
0.0
 10
2.5213801197453916
 20
9.64238845144357
 30
0.0
 10
2.528866362318983
 20
9.655355003938816
 30
0.0
 10
2.532808398950131
 20
9.670066884931558
 30
0.0
 10
2.532808398950131
 20
9.68503937007874
 30
0.0
  0
SPLINE
  5
A5
330
17
100
AcDbEntity
  8
GEOMETRY
100
AcDbSpline
 70
0
 71
3
 72
11
 73
7
 74
0
 40
0.0
 40
0.0
 40
0.0
 40
0.0
 40
1.0
 40
1.0
 40
1.0
 40
2.0
 40
2.0
 40
2.0
 40
2.0
 10
2.532808398950131
 20
9.68503937007874
 30
0.0
 10
2.625492125984252
 20
9.68503937007874
 30
0.0
 10
2.603248031496063
 20
9.796587926509186
 30
0.0
 10
2.7181758530183724
 20
9.796587926509186
 30
0.0
 10
2.833103674540682
 20
9.796587926509186
 30
0.0
 10
2.8108595800524934
 20
9.68503937007874
 30
0.0
 10
2.9035433070866143
 20
9.68503937007874
 30
0.0
  0
SPLINE
  5
A6
330
17
100
AcDbEntity
  8
GEOMETRY
100
AcDbSpline
 70
0
 71
3
 72
14
 73
10
 74
0
 40
0.0
 40
0.0
 40
0.0
 40
0.0
 40
1.0
 40
1.0
 40
1.0
 40
2.0
 40
2.0
 40
2.0
 40
3.0
 40
3.0
 40
3.0
 40
3.0
 10
2.9035433070866143
 20
9.68503937007874
 30
0.0
 10
2.9035433070866143
 20
9.670066884931558
 30
0.0
 10
2.9074853437177612
 20
9.655355003938816
 30
0.0
 10
2.914971586291353
 20
9.642388451443571
 30
0.0
 10
2.9224578288649443
 20
9.629421898948324
 30
0.0
 10
2.9332276732265385
 20
9.61865205458673
 30
0.0
 10
2.946194225721784
 20
9.61116581201314
 30
0.0
 10
2.9591607782170293
 20
9.603679569439548
 30
0.0
 10
2.973872659209772
 20
9.5997375328084
 30
0.0
 10
2.988845144356955
 20
9.5997375328084
 30
0.0
  0
POLYLINE
  5
A7
330
17
100
AcDbEntity
  8
GEOMETRY
100
AcDb2dPolyline
 66
1
 10
0.0
 20
0.0
 30
0.0
 70
0
  0
VERTEX
  5
A8
330
A7
100
AcDbEntity
  8
GEOMETRY
100
AcDbVertex
100
AcDb2dVertex
 10
2.988845144356955
 20
9.5997375328084
 30
0.0
 70
0
  0
VERTEX
  5
A9
330
A7
100
AcDbEntity
  8
GEOMETRY
100
AcDbVertex
100
AcDb2dVertex
 10
2.988845144356955
 20
6.561679790026248
 30
0.0
 70
0
  0
SEQEND
  5
AA
330
A7
100
AcDbEntity
  8
GEOMETRY
  0
SPLINE
  5
AB
330
17
100
AcDbEntity
  8
GEOMETRY
100
AcDbSpline
 70
0
 71
3
 72
14
 73
10
 74
0
 40
0.0
 40
0.0
 40
0.0
 40
0.0
 40
1.0
 40
1.0
 40
1.0
 40
2.0
 40
2.0
 40
2.0
 40
3.0
 40
3.0
 40
3.0
 40
3.0
 10
2.988845144356955
 20
6.561679790026248
 30
0.0
 10
2.973872659209772
 20
6.561679790026248
 30
0.0
 10
2.9591607782170297
 20
6.5577377533951
 30
0.0
 10
2.9461942257217846
 20
6.550251510821508
 30
0.0
 10
2.933227673226539
 20
6.5427652682479165
 30
0.0
 10
2.9224578288649448
 20
6.531995423886323
 30
0.0
 10
2.9149715862913532
 20
6.519028871391077
 30
0.0
 10
2.907485343717762
 20
6.5060623188958315
 30
0.0
 10
2.9035433070866143
 20
6.491350437903089
 30
0.0
 10
2.9035433070866143
 20
6.476377952755906
 30
0.0
  0
SPLINE
  5
AC
330
17
100
AcDbEntity
  8
GEOMETRY
100
AcDbSpline
 70
0
 71
3
 72
11
 73
7
 74
0
 40
0.0
 40
0.0
 40
0.0
 40
0.0
 40
1.0
 40
1.0
 40
1.0
 40
2.0
 40
2.0
 40
2.0
 40
2.0
 10
2.9035433070866143
 20
6.476377952755906
 30
0.0
 10
2.8108595800524934
 20
6.476377952755906
 30
0.0
 10
2.833103674540682
 20
6.364829396325461
 30
0.0
 10
2.7181758530183724
 20
6.364829396325461
 30
0.0
 10
2.603248031496063
 20
6.364829396325461
 30
0.0
 10
2.625492125984252
 20
6.476377952755906
 30
0.0
 10
2.532808398950131
 20
6.476377952755906
 30
0.0
  0
SPLINE
  5
AD
330
17
100
AcDbEntity
  8
GEOMETRY
100
AcDbSpline
 70
0
 71
3
 72
14
 73
10
 74
0
 40
0.0
 40
0.0
 40
0.0
 40
0.0
 40
1.0
 40
1.0
 40
1.0
 40
2.0
 40
2.0
 40
2.0
 40
3.0
 40
3.0
 40
3.0
 40
3.0
 10
2.532808398950131
 20
6.476377952755906
 30
0.0
 10
2.532808398950131
 20
6.491350437903089
 30
0.0
 10
2.528866362318983
 20
6.506062318895831
 30
0.0
 10
2.5213801197453916
 20
6.519028871391076
 30
0.0
 10
2.5138938771718005
 20
6.531995423886321
 30
0.0
 10
2.503124032810206
 20
6.5427652682479165
 30
0.0
 10
2.4901574803149606
 20
6.550251510821508
 30
0.0
 10
2.477190927819715
 20
6.5577377533951
 30
0.0
 10
2.4624790468269726
 20
6.561679790026248
 30
0.0
 10
2.44750656167979
 20
6.561679790026248
 30
0.0
  0
CIRCLE
  5
AE
330
17
100
AcDbEntity
  8
GEOMETRY
100
AcDbCircle
 10
2.456036745406824
 20
9.693569553805775
 30
0.0
 40
0.75
  0
CIRCLE
  5
AF
330
17
100
AcDbEntity
  8
GEOMETRY
100
AcDbCircle
 10
2.456036745406824
 20
9.693569553805775
 30
0.0
 40
0.3
  0
CIRCLE
  5
B0
330
17
100
AcDbEntity
  8
GEOMETRY
100
AcDbCircle
 10
2.980314960629921
 20
9.693569553805775
 30
0.0
 40
0.75
  0
CIRCLE
  5
B1
330
17
100
AcDbEntity
  8
GEOMETRY
100
AcDbCircle
 10
2.980314960629921
 20
9.693569553805775
 30
0.0
 40
0.3
  0
CIRCLE
  5
B2
330
17
100
AcDbEntity
  8
GEOMETRY
100
AcDbCircle
 10
2.456036745406824
 20
6.4678477690288725
 30
0.0
 40
0.75
  0
CIRCLE
  5
B3
330
17
100
AcDbEntity
  8
GEOMETRY
100
AcDbCircle
 10
2.456036745406824
 20
6.4678477690288725
 30
0.0
 40
0.3
  0
CIRCLE
  5
B4
330
17
100
AcDbEntity
  8
GEOMETRY
100
AcDbCircle
 10
2.980314960629921
 20
6.4678477690288725
 30
0.0
 40
0.75
  0
CIRCLE
  5
B5
330
17
100
AcDbEntity
  8
GEOMETRY
100
AcDbCircle
 10
2.980314960629921
 20
6.4678477690288725
 30
0.0
 40
0.3
  0
LWPOLYLINE
  5
B6
330
17
100
AcDbEntity
  8
GEOMETRY
100
AcDbPolyline
 90
5
 70
0
 10
2.296587926509186
 20
5.4593175853018385
 10
3.139763779527559
 20
5.4593175853018385
 10
3.139763779527559
 20
3.4481627296587956
 10
2.296587926509186
 20
3.4481627296587956
 10
2.296587926509186
 20
5.4593175853018385
  0
LWPOLYLINE
  5
B7
330
17
100
AcDbEntity
  8
GEOMETRY
100
AcDbPolyline
 90
5
 70
0
 10
2.3622047244094486
 20
5.393700787401576
 10
3.074146981627296
 20
5.393700787401576
 10
3.074146981627296
 20
3.5137795275590555
 10
2.3622047244094486
 20
3.5137795275590555
 10
2.3622047244094486
 20
5.393700787401576
  0
LINE
  5
B8
330
17
100
AcDbEntity
  8
GEOMETRY
100
AcDbLine
 10
2.296587926509186
 20
5.459317585301838
 30
0.0
 11
2.3622047244094486
 21
5.393700787401575
 31
0.0
  0
LINE
  5
B9
330
17
100
AcDbEntity
  8
GEOMETRY
100
AcDbLine
 10
3.139763779527559
 20
5.459317585301838
 30
0.0
 11
3.074146981627296
 21
5.393700787401575
 31
0.0
  0
LINE
  5
BA
330
17
100
AcDbEntity
  8
GEOMETRY
100
AcDbLine
 10
2.296587926509186
 20
3.448162729658793
 30
0.0
 11
2.3622047244094486
 21
3.513779527559055
 31
0.0
  0
LINE
  5
BB
330
17
100
AcDbEntity
  8
GEOMETRY
100
AcDbLine
 10
3.139763779527559
 20
3.448162729658793
 30
0.0
 11
3.074146981627296
 21
3.513779527559055
 31
0.0
  0
POLYLINE
  5
BC
330
17
100
AcDbEntity
  8
GEOMETRY
100
AcDb2dPolyline
 66
1
 10
0.0
 20
0.0
 30
0.0
 70
0
  0
VERTEX
  5
BD
330
BC
100
AcDbEntity
  8
GEOMETRY
100
AcDbVertex
100
AcDb2dVertex
 10
2.44750656167979
 20
3.795931758530185
 30
0.0
 70
0
  0
VERTEX
  5
BE
330
BC
100
AcDbEntity
  8
GEOMETRY
100
AcDbVertex
100
AcDb2dVertex
 10
2.44750656167979
 20
5.1115485564304475
 30
0.0
 70
0
  0
SEQEND
  5
BF
330
BC
100
AcDbEntity
  8
GEOMETRY
  0
SPLINE
  5
C0
330
17
100
AcDbEntity
  8
GEOMETRY
100
AcDbSpline
 70
0
 71
3
 72
14
 73
10
 74
0
 40
0.0
 40
0.0
 40
0.0
 40
0.0
 40
1.0
 40
1.0
 40
1.0
 40
2.0
 40
2.0
 40
2.0
 40
3.0
 40
3.0
 40
3.0
 40
3.0
 10
2.44750656167979
 20
5.1115485564304475
 30
0.0
 10
2.4624790468269726
 20
5.1115485564304475
 30
0.0
 10
2.477190927819715
 20
5.115490593061595
 30
0.0
 10
2.49015748031496
 20
5.122976835635186
 30
0.0
 10
2.503124032810206
 20
5.130463078208778
 30
0.0
 10
2.5138938771718005
 20
5.141232922570372
 30
0.0
 10
2.5213801197453916
 20
5.154199475065617
 30
0.0
 10
2.528866362318983
 20
5.167166027560863
 30
0.0
 10
2.532808398950131
 20
5.181877908553605
 30
0.0
 10
2.532808398950131
 20
5.196850393700788
 30
0.0
  0
SPLINE
  5
C1
330
17
100
AcDbEntity
  8
GEOMETRY
100
AcDbSpline
 70
0
 71
3
 72
11
 73
7
 74
0
 40
0.0
 40
0.0
 40
0.0
 40
0.0
 40
1.0
 40
1.0
 40
1.0
 40
2.0
 40
2.0
 40
2.0
 40
2.0
 10
2.532808398950131
 20
5.196850393700788
 30
0.0
 10
2.625492125984252
 20
5.196850393700788
 30
0.0
 10
2.603248031496063
 20
5.3083989501312345
 30
0.0
 10
2.7181758530183724
 20
5.3083989501312345
 30
0.0
 10
2.833103674540682
 20
5.3083989501312345
 30
0.0
 10
2.8108595800524934
 20
5.196850393700788
 30
0.0
 10
2.9035433070866143
 20
5.196850393700788
 30
0.0
  0
SPLINE
  5
C2
330
17
100
AcDbEntity
  8
GEOMETRY
100
AcDbSpline
 70
0
 71
3
 72
14
 73
10
 74
0
 40
0.0
 40
0.0
 40
0.0
 40
0.0
 40
1.0
 40
1.0
 40
1.0
 40
2.0
 40
2.0
 40
2.0
 40
3.0
 40
3.0
 40
3.0
 40
3.0
 10
2.9035433070866143
 20
5.196850393700788
 30
0.0
 10
2.9035433070866143
 20
5.181877908553605
 30
0.0
 10
2.9074853437177612
 20
5.167166027560864
 30
0.0
 10
2.914971586291353
 20
5.154199475065618
 30
0.0
 10
2.9224578288649443
 20
5.141232922570373
 30
0.0
 10
2.9332276732265385
 20
5.130463078208778
 30
0.0
 10
2.946194225721784
 20
5.122976835635186
 30
0.0
 10
2.9591607782170293
 20
5.115490593061595
 30
0.0
 10
2.973872659209772
 20
5.1115485564304475
 30
0.0
 10
2.988845144356955
 20
5.1115485564304475
 30
0.0
  0
POLYLINE
  5
C3
330
17
100
AcDbEntity
  8
GEOMETRY
100
AcDb2dPolyline
 66
1
 10
0.0
 20
0.0
 30
0.0
 70
0
  0
VERTEX
  5
C4
330
C3
100
AcDbEntity
  8
GEOMETRY
100
AcDbVertex
100
AcDb2dVertex
 10
2.988845144356955
 20
5.1115485564304475
 30
0.0
 70
0
  0
VERTEX
  5
C5
330
C3
100
AcDbEntity
  8
GEOMETRY
100
AcDbVertex
100
AcDb2dVertex
 10
2.988845144356955
 20
3.795931758530185
 30
0.0
 70
0
  0
SEQEND
  5
C6
330
C3
100
AcDbEntity
  8
GEOMETRY
  0
SPLINE
  5
C7
330
17
100
AcDbEntity
  8
GEOMETRY
100
AcDbSpline
 70
0
 71
3
 72
14
 73
10
 74
0
 40
0.0
 40
0.0
 40
0.0
 40
0.0
 40
1.0
 40
1.0
 40
1.0
 40
2.0
 40
2.0
 40
2.0
 40
3.0
 40
3.0
 40
3.0
 40
3.0
 10
2.988845144356955
 20
3.795931758530185
 30
0.0
 10
2.973872659209772
 20
3.795931758530185
 30
0.0
 10
2.9591607782170297
 20
3.7919897218990366
 30
0.0
 10
2.9461942257217846
 20
3.784503479325445
 30
0.0
 10
2.933227673226539
 20
3.7770172367518535
 30
0.0
 10
2.9224578288649448
 20
3.7662473923902597
 30
0.0
 10
2.9149715862913532
 20
3.753280839895014
 30
0.0
 10
2.907485343717762
 20
3.7403142873997686
 30
0.0
 10
2.9035433070866143
 20
3.7256024064070257
 30
0.0
 10
2.9035433070866143
 20
3.7106299212598435
 30
0.0
  0
SPLINE
  5
C8
330
17
100
AcDbEntity
  8
GEOMETRY
100
AcDbSpline
 70
0
 71
3
 72
11
 73
7
 74
0
 40
0.0
 40
0.0
 40
0.0
 40
0.0
 40
1.0
 40
1.0
 40
1.0
 40
2.0
 40
2.0
 40
2.0
 40
2.0
 10
2.9035433070866143
 20
3.7106299212598435
 30
0.0
 10
2.8108595800524934
 20
3.7106299212598435
 30
0.0
 10
2.833103674540682
 20
3.599081364829397
 30
0.0
 10
2.7181758530183724
 20
3.599081364829397
 30
0.0
 10
2.603248031496063
 20
3.599081364829397
 30
0.0
 10
2.625492125984252
 20
3.7106299212598435
 30
0.0
 10
2.532808398950131
 20
3.7106299212598435
 30
0.0
  0
SPLINE
  5
C9
330
17
100
AcDbEntity
  8
GEOMETRY
100
AcDbSpline
 70
0
 71
3
 72
14
 73
10
 74
0
 40
0.0
 40
0.0
 40
0.0
 40
0.0
 40
1.0
 40
1.0
 40
1.0
 40
2.0
 40
2.0
 40
2.0
 40
3.0
 40
3.0
 40
3.0
 40
3.0
 10
2.532808398950131
 20
3.7106299212598435
 30
0.0
 10
2.532808398950131
 20
3.7256024064070257
 30
0.0
 10
2.528866362318983
 20
3.7403142873997677
 30
0.0
 10
2.5213801197453916
 20
3.7532808398950133
 30
0.0
 10
2.5138938771718005
 20
3.766247392390259
 30
0.0
 10
2.503124032810206
 20
3.7770172367518535
 30
0.0
 10
2.4901574803149606
 20
3.784503479325445
 30
0.0
 10
2.477190927819715
 20
3.7919897218990366
 30
0.0
 10
2.4624790468269726
 20
3.795931758530185
 30
0.0
 10
2.44750656167979
 20
3.795931758530185
 30
0.0
  0
CIRCLE
  5
CA
330
17
100
AcDbEntity
  8
GEOMETRY
100
AcDbCircle
 10
2.456036745406824
 20
5.205380577427822
 30
0.0
 40
0.75
  0
CIRCLE
  5
CB
330
17
100
AcDbEntity
  8
GEOMETRY
100
AcDbCircle
 10
2.456036745406824
 20
5.205380577427822
 30
0.0
 40
0.3
  0
CIRCLE
  5
CC
330
17
100
AcDbEntity
  8
GEOMETRY
100
AcDbCircle
 10
2.980314960629921
 20
5.205380577427822
 30
0.0
 40
0.75
  0
CIRCLE
  5
CD
330
17
100
AcDbEntity
  8
GEOMETRY
100
AcDbCircle
 10
2.980314960629921
 20
5.205380577427822
 30
0.0
 40
0.3
  0
CIRCLE
  5
CE
330
17
100
AcDbEntity
  8
GEOMETRY
100
AcDbCircle
 10
2.456036745406824
 20
3.7020997375328095
 30
0.0
 40
0.75
  0
CIRCLE
  5
CF
330
17
100
AcDbEntity
  8
GEOMETRY
100
AcDbCircle
 10
2.456036745406824
 20
3.7020997375328095
 30
0.0
 40
0.3
  0
CIRCLE
  5
D0
330
17
100
AcDbEntity
  8
GEOMETRY
100
AcDbCircle
 10
2.980314960629921
 20
3.7020997375328095
 30
0.0
 40
0.75
  0
CIRCLE
  5
D1
330
17
100
AcDbEntity
  8
GEOMETRY
100
AcDbCircle
 10
2.980314960629921
 20
3.7020997375328095
 30
0.0
 40
0.3
  0
CIRCLE
  5
D2
330
17
100
AcDbEntity
  8
GEOMETRY
100
AcDbCircle
 10
2.39501312335958
 20
5.836614173228346
 30
0.0
 40
2.2916666666666665
  0
CIRCLE
  5
D3
330
17
100
AcDbEntity
  8
GEOMETRY
100
AcDbCircle
 10
2.39501312335958
 20
5.836614173228346
 30
0.0
 40
1.4583333333333333
  0
CIRCLE
  5
D4
330
17
100
AcDbEntity
  8
GEOMETRY
100
AcDbCircle
 10
2.106299212598425
 20
5.836614173228346
 30
0.0
 40
1.4166666666666665
  0
SPLINE
  5
D5
330
17
100
AcDbEntity
  8
GEOMETRY
100
AcDbSpline
 70
0
 71
3
 72
35
 73
31
 74
0
 40
0.0
 40
0.0
 40
0.0
 40
0.0
 40
1.0
 40
1.0
 40
1.0
 40
2.0
 40
2.0
 40
2.0
 40
3.0
 40
3.0
 40
3.0
 40
4.0
 40
4.0
 40
4.0
 40
5.0
 40
5.0
 40
5.0
 40
6.0
 40
6.0
 40
6.0
 40
7.0
 40
7.0
 40
7.0
 40
8.0
 40
8.0
 40
8.0
 40
9.0
 40
9.0
 40
9.0
 40
10.0
 40
10.0
 40
10.0
 40
10.0
 10
2.0964566929133857
 20
5.8398950131233605
 30
0.0
 10
2.0946787728033462
 20
5.841485233213206
 30
0.0
 10
2.093312444122214
 20
5.843482895360354
 30
0.0
 10
2.0924750663055485
 20
5.845716412372599
 30
0.0
 10
2.091637688488883
 20
5.847949929384843
 30
0.0
 10
2.09135394345631
 20
5.850353467792176
 30
0.0
 10
2.0916482032036203
 20
5.85272057806695
 30
0.0
 10
2.0919424629509304
 20
5.855087688341724
 30
0.0
 10
2.0928060540988107
 20
5.857348599319259
 30
0.0
 10
2.094164799349318
 20
5.859309112312343
 30
0.0
 10
2.0955235445998253
 20
5.861269625305427
 30
0.0
 10
2.0973373945984175
 20
5.862871953705488
 30
0.0
 10
2.099450550513552
 20
5.863978467117138
 30
0.0
 10
2.1015637064286863
 20
5.865084980528788
 30
0.0
 10
2.1039138824636585
 20
5.8656630641937335
 30
0.0
 10
2.106299212598426
 20
5.8656630641937335
 30
0.0
 10
2.1086845427331933
 20
5.8656630641937335
 30
0.0
 10
2.1110347187681646
 20
5.865084980528787
 30
0.0
 10
2.1131478746832992
 20
5.863978467117137
 30
0.0
 10
2.1152610305984334
 20
5.862871953705487
 30
0.0
 10
2.1170748805970256
 20
5.861269625305426
 30
0.0
 10
2.118433625847533
 20
5.859309112312342
 30
0.0
 10
2.11979237109804
 20
5.857348599319257
 30
0.0
 10
2.1206559622459205
 20
5.855087688341723
 30
0.0
 10
2.1209502219932306
 20
5.852720578066949
 30
0.0
 10
2.1212444817405403
 20
5.850353467792175
 30
0.0
 10
2.120960736707967
 20
5.847949929384842
 30
0.0
 10
2.1201233588913015
 20
5.845716412372598
 30
0.0
 10
2.119285981074636
 20
5.843482895360353
 30
0.0
 10
2.117919652393504
 20
5.841485233213206
 30
0.0
 10
2.1161417322834644
 20
5.8398950131233605
 30
0.0
  0
POLYLINE
  5
D6
330
17
100
AcDbEntity
  8
GEOMETRY
100
AcDb2dPolyline
 66
1
 10
0.0
 20
0.0
 30
0.0
 70
0
  0
VERTEX
  5
D7
330
D6
100
AcDbEntity
  8
GEOMETRY
100
AcDbVertex
100
AcDb2dVertex
 10
2.1161417322834644
 20
5.8398950131233605
 30
0.0
 70
0
  0
VERTEX
  5
D8
330
D6
100
AcDbEntity
  8
GEOMETRY
100
AcDbVertex
100
AcDb2dVertex
 10
2.1210629921259843
 20
5.803805774278216
 30
0.0
 70
0
  0
VERTEX
  5
D9
330
D6
100
AcDbEntity
  8
GEOMETRY
100
AcDbVertex
100
AcDb2dVertex
 10
2.091535433070866
 20
5.803805774278216
 30
0.0
 70
0
  0
VERTEX
  5
DA
330
D6
100
AcDbEntity
  8
GEOMETRY
100
AcDbVertex
100
AcDb2dVertex
 10
2.0964566929133857
 20
5.8398950131233605
 30
0.0
 70
0
  0
SEQEND
  5
DB
330
D6
100
AcDbEntity
  8
GEOMETRY
  0
LWPOLYLINE
  5
DC
330
17
100
AcDbEntity
  8
GEOMETRY
100
AcDbPolyline
 90
5
 70
0
 10
3.467847769028871
 20
10.275590551181104
 10
4.967191601049868
 20
10.275590551181104
 10
4.967191601049868
 20
2.6935695538057765
 10
3.467847769028871
 20
2.6935695538057765
 10
3.467847769028871
 20
10.275590551181104
  0
LINE
  5
DD
330
17
100
AcDbEntity
  8
GEOMETRY
100
AcDbLine
 10
3.7959317585301835
 20
9.947506561679791
 30
0.0
 11
4.639107611548556
 21
9.947506561679791
 31
0.0
  0
LINE
  5
DE
330
17
100
AcDbEntity
  8
GEOMETRY
100
AcDbLine
 10
3.7959317585301835
 20
3.448162729658793
 30
0.0
 11
4.639107611548556
 21
3.448162729658793
 31
0.0
  0
LINE
  5
DF
330
17
100
AcDbEntity
  8
GEOMETRY
100
AcDbLine
 10
3.7959317585301835
 20
6.213910761154856
 30
0.0
 11
3.7959317585301835
 21
5.459317585301838
 31
0.0
  0
LINE
  5
E0
330
17
100
AcDbEntity
  8
GEOMETRY
100
AcDbLine
 10
4.639107611548556
 20
6.213910761154856
 30
0.0
 11
4.639107611548556
 21
5.459317585301838
 31
0.0
  0
LINE
  5
E1
330
17
100
AcDbEntity
  8
GEOMETRY
100
AcDbLine
 10
3.7959317585301835
 20
10.275590551181102
 30
0.0
 11
3.7959317585301835
 21
9.947506561679791
 31
0.0
  0
LINE
  5
E2
330
17
100
AcDbEntity
  8
GEOMETRY
100
AcDbLine
 10
4.639107611548556
 20
10.275590551181102
 30
0.0
 11
4.639107611548556
 21
9.947506561679791
 31
0.0
  0
LINE
  5
E3
330
17
100
AcDbEntity
  8
GEOMETRY
100
AcDbLine
 10
3.7959317585301835
 20
3.448162729658793
 30
0.0
 11
3.7959317585301835
 21
2.693569553805775
 31
0.0
  0
LINE
  5
E4
330
17
100
AcDbEntity
  8
GEOMETRY
100
AcDbLine
 10
4.639107611548556
 20
3.448162729658793
 30
0.0
 11
4.639107611548556
 21
2.693569553805775
 31
0.0
  0
LWPOLYLINE
  5
E5
330
17
100
AcDbEntity
  8
GEOMETRY
100
AcDbPolyline
 90
5
 70
0
 10
3.7959317585301835
 20
9.947506561679791
 10
4.639107611548556
 20
9.947506561679791
 10
4.639107611548556
 20
6.213910761154857
 10
3.7959317585301835
 20
6.213910761154857
 10
3.7959317585301835
 20
9.947506561679791
  0
LWPOLYLINE
  5
E6
330
17
100
AcDbEntity
  8
GEOMETRY
100
AcDbPolyline
 90
5
 70
0
 10
3.861548556430446
 20
9.881889763779528
 10
4.573490813648293
 20
9.881889763779528
 10
4.573490813648293
 20
6.2795275590551185
 10
3.861548556430446
 20
6.2795275590551185
 10
3.861548556430446
 20
9.881889763779528
  0
LINE
  5
E7
330
17
100
AcDbEntity
  8
GEOMETRY
100
AcDbLine
 10
3.7959317585301835
 20
9.947506561679791
 30
0.0
 11
3.861548556430446
 21
9.881889763779528
 31
0.0
  0
LINE
  5
E8
330
17
100
AcDbEntity
  8
GEOMETRY
100
AcDbLine
 10
4.639107611548556
 20
9.947506561679791
 30
0.0
 11
4.573490813648293
 21
9.881889763779528
 31
0.0
  0
LINE
  5
E9
330
17
100
AcDbEntity
  8
GEOMETRY
100
AcDbLine
 10
3.7959317585301835
 20
6.213910761154856
 30
0.0
 11
3.861548556430446
 21
6.279527559055118
 31
0.0
  0
LINE
  5
EA
330
17
100
AcDbEntity
  8
GEOMETRY
100
AcDbLine
 10
4.639107611548556
 20
6.213910761154856
 30
0.0
 11
4.573490813648293
 21
6.279527559055118
 31
0.0
  0
POLYLINE
  5
EB
330
17
100
AcDbEntity
  8
GEOMETRY
100
AcDb2dPolyline
 66
1
 10
0.0
 20
0.0
 30
0.0
 70
0
  0
VERTEX
  5
EC
330
EB
100
AcDbEntity
  8
GEOMETRY
100
AcDbVertex
100
AcDb2dVertex
 10
3.9468503937007875
 20
6.561679790026248
 30
0.0
 70
0
  0
VERTEX
  5
ED
330
EB
100
AcDbEntity
  8
GEOMETRY
100
AcDbVertex
100
AcDb2dVertex
 10
3.9468503937007875
 20
9.5997375328084
 30
0.0
 70
0
  0
SEQEND
  5
EE
330
EB
100
AcDbEntity
  8
GEOMETRY
  0
SPLINE
  5
EF
330
17
100
AcDbEntity
  8
GEOMETRY
100
AcDbSpline
 70
0
 71
3
 72
14
 73
10
 74
0
 40
0.0
 40
0.0
 40
0.0
 40
0.0
 40
1.0
 40
1.0
 40
1.0
 40
2.0
 40
2.0
 40
2.0
 40
3.0
 40
3.0
 40
3.0
 40
3.0
 10
3.9468503937007875
 20
9.5997375328084
 30
0.0
 10
3.96182287884797
 20
9.5997375328084
 30
0.0
 10
3.9765347598407126
 20
9.603679569439548
 30
0.0
 10
3.9895013123359577
 20
9.61116581201314
 30
0.0
 10
4.002467864831203
 20
9.61865205458673
 30
0.0
 10
4.013237709192797
 20
9.629421898948324
 30
0.0
 10
4.020723951766389
 20
9.64238845144357
 30
0.0
 10
4.02821019433998
 20
9.655355003938816
 30
0.0
 10
4.032152230971128
 20
9.670066884931558
 30
0.0
 10
4.032152230971128
 20
9.68503937007874
 30
0.0
  0
SPLINE
  5
F0
330
17
100
AcDbEntity
  8
GEOMETRY
100
AcDbSpline
 70
0
 71
3
 72
11
 73
7
 74
0
 40
0.0
 40
0.0
 40
0.0
 40
0.0
 40
1.0
 40
1.0
 40
1.0
 40
2.0
 40
2.0
 40
2.0
 40
2.0
 10
4.032152230971128
 20
9.68503937007874
 30
0.0
 10
4.124835958005249
 20
9.68503937007874
 30
0.0
 10
4.10259186351706
 20
9.796587926509186
 30
0.0
 10
4.21751968503937
 20
9.796587926509186
 30
0.0
 10
4.332447506561679
 20
9.796587926509186
 30
0.0
 10
4.3102034120734904
 20
9.68503937007874
 30
0.0
 10
4.402887139107611
 20
9.68503937007874
 30
0.0
  0
SPLINE
  5
F1
330
17
100
AcDbEntity
  8
GEOMETRY
100
AcDbSpline
 70
0
 71
3
 72
14
 73
10
 74
0
 40
0.0
 40
0.0
 40
0.0
 40
0.0
 40
1.0
 40
1.0
 40
1.0
 40
2.0
 40
2.0
 40
2.0
 40
3.0
 40
3.0
 40
3.0
 40
3.0
 10
4.402887139107611
 20
9.68503937007874
 30
0.0
 10
4.402887139107611
 20
9.670066884931558
 30
0.0
 10
4.40682917573876
 20
9.655355003938816
 30
0.0
 10
4.414315418312351
 20
9.642388451443571
 30
0.0
 10
4.421801660885943
 20
9.629421898948324
 30
0.0
 10
4.4325715052475365
 20
9.61865205458673
 30
0.0
 10
4.445538057742782
 20
9.61116581201314
 30
0.0
 10
4.458504610238028
 20
9.603679569439548
 30
0.0
 10
4.47321649123077
 20
9.5997375328084
 30
0.0
 10
4.488188976377953
 20
9.5997375328084
 30
0.0
  0
POLYLINE
  5
F2
330
17
100
AcDbEntity
  8
GEOMETRY
100
AcDb2dPolyline
 66
1
 10
0.0
 20
0.0
 30
0.0
 70
0
  0
VERTEX
  5
F3
330
F2
100
AcDbEntity
  8
GEOMETRY
100
AcDbVertex
100
AcDb2dVertex
 10
4.488188976377953
 20
9.5997375328084
 30
0.0
 70
0
  0
VERTEX
  5
F4
330
F2
100
AcDbEntity
  8
GEOMETRY
100
AcDbVertex
100
AcDb2dVertex
 10
4.488188976377953
 20
6.561679790026248
 30
0.0
 70
0
  0
SEQEND
  5
F5
330
F2
100
AcDbEntity
  8
GEOMETRY
  0
SPLINE
  5
F6
330
17
100
AcDbEntity
  8
GEOMETRY
100
AcDbSpline
 70
0
 71
3
 72
14
 73
10
 74
0
 40
0.0
 40
0.0
 40
0.0
 40
0.0
 40
1.0
 40
1.0
 40
1.0
 40
2.0
 40
2.0
 40
2.0
 40
3.0
 40
3.0
 40
3.0
 40
3.0
 10
4.488188976377953
 20
6.561679790026248
 30
0.0
 10
4.47321649123077
 20
6.561679790026248
 30
0.0
 10
4.458504610238028
 20
6.5577377533951
 30
0.0
 10
4.445538057742782
 20
6.550251510821508
 30
0.0
 10
4.4325715052475365
 20
6.5427652682479165
 30
0.0
 10
4.421801660885943
 20
6.531995423886323
 30
0.0
 10
4.414315418312351
 20
6.519028871391077
 30
0.0
 10
4.40682917573876
 20
6.5060623188958315
 30
0.0
 10
4.402887139107611
 20
6.491350437903089
 30
0.0
 10
4.402887139107611
 20
6.476377952755906
 30
0.0
  0
SPLINE
  5
F7
330
17
100
AcDbEntity
  8
GEOMETRY
100
AcDbSpline
 70
0
 71
3
 72
11
 73
7
 74
0
 40
0.0
 40
0.0
 40
0.0
 40
0.0
 40
1.0
 40
1.0
 40
1.0
 40
2.0
 40
2.0
 40
2.0
 40
2.0
 10
4.402887139107611
 20
6.476377952755906
 30
0.0
 10
4.3102034120734904
 20
6.476377952755906
 30
0.0
 10
4.332447506561679
 20
6.364829396325461
 30
0.0
 10
4.21751968503937
 20
6.364829396325461
 30
0.0
 10
4.10259186351706
 20
6.364829396325461
 30
0.0
 10
4.124835958005249
 20
6.476377952755906
 30
0.0
 10
4.032152230971128
 20
6.476377952755906
 30
0.0
  0
SPLINE
  5
F8
330
17
100
AcDbEntity
  8
GEOMETRY
100
AcDbSpline
 70
0
 71
3
 72
14
 73
10
 74
0
 40
0.0
 40
0.0
 40
0.0
 40
0.0
 40
1.0
 40
1.0
 40
1.0
 40
2.0
 40
2.0
 40
2.0
 40
3.0
 40
3.0
 40
3.0
 40
3.0
 10
4.032152230971128
 20
6.476377952755906
 30
0.0
 10
4.032152230971128
 20
6.491350437903089
 30
0.0
 10
4.02821019433998
 20
6.506062318895831
 30
0.0
 10
4.020723951766389
 20
6.519028871391076
 30
0.0
 10
4.013237709192797
 20
6.531995423886321
 30
0.0
 10
4.002467864831203
 20
6.5427652682479165
 30
0.0
 10
3.9895013123359577
 20
6.550251510821508
 30
0.0
 10
3.9765347598407126
 20
6.5577377533951
 30
0.0
 10
3.96182287884797
 20
6.561679790026248
 30
0.0
 10
3.9468503937007875
 20
6.561679790026248
 30
0.0
  0
CIRCLE
  5
F9
330
17
100
AcDbEntity
  8
GEOMETRY
100
AcDbCircle
 10
3.9553805774278215
 20
9.693569553805775
 30
0.0
 40
0.75
  0
CIRCLE
  5
FA
330
17
100
AcDbEntity
  8
GEOMETRY
100
AcDbCircle
 10
3.9553805774278215
 20
9.693569553805775
 30
0.0
 40
0.3
  0
CIRCLE
  5
FB
330
17
100
AcDbEntity
  8
GEOMETRY
100
AcDbCircle
 10
4.479658792650919
 20
9.693569553805775
 30
0.0
 40
0.75
  0
CIRCLE
  5
FC
330
17
100
AcDbEntity
  8
GEOMETRY
100
AcDbCircle
 10
4.479658792650919
 20
9.693569553805775
 30
0.0
 40
0.3
  0
CIRCLE
  5
FD
330
17
100
AcDbEntity
  8
GEOMETRY
100
AcDbCircle
 10
3.9553805774278215
 20
6.4678477690288725
 30
0.0
 40
0.75
  0
CIRCLE
  5
FE
330
17
100
AcDbEntity
  8
GEOMETRY
100
AcDbCircle
 10
3.9553805774278215
 20
6.4678477690288725
 30
0.0
 40
0.3
  0
CIRCLE
  5
FF
330
17
100
AcDbEntity
  8
GEOMETRY
100
AcDbCircle
 10
4.479658792650919
 20
6.4678477690288725
 30
0.0
 40
0.75
  0
CIRCLE
  5
100
330
17
100
AcDbEntity
  8
GEOMETRY
100
AcDbCircle
 10
4.479658792650919
 20
6.4678477690288725
 30
0.0
 40
0.3
  0
LWPOLYLINE
  5
101
330
17
100
AcDbEntity
  8
GEOMETRY
100
AcDbPolyline
 90
5
 70
0
 10
3.7959317585301835
 20
5.4593175853018385
 10
4.639107611548556
 20
5.4593175853018385
 10
4.639107611548556
 20
3.4481627296587956
 10
3.7959317585301835
 20
3.4481627296587956
 10
3.7959317585301835
 20
5.4593175853018385
  0
LWPOLYLINE
  5
102
330
17
100
AcDbEntity
  8
GEOMETRY
100
AcDbPolyline
 90
5
 70
0
 10
3.861548556430446
 20
5.393700787401576
 10
4.573490813648293
 20
5.393700787401576
 10
4.573490813648293
 20
3.5137795275590555
 10
3.861548556430446
 20
3.5137795275590555
 10
3.861548556430446
 20
5.393700787401576
  0
LINE
  5
103
330
17
100
AcDbEntity
  8
GEOMETRY
100
AcDbLine
 10
3.7959317585301835
 20
5.459317585301838
 30
0.0
 11
3.861548556430446
 21
5.393700787401575
 31
0.0
  0
LINE
  5
104
330
17
100
AcDbEntity
  8
GEOMETRY
100
AcDbLine
 10
4.639107611548556
 20
5.459317585301838
 30
0.0
 11
4.573490813648293
 21
5.393700787401575
 31
0.0
  0
LINE
  5
105
330
17
100
AcDbEntity
  8
GEOMETRY
100
AcDbLine
 10
3.7959317585301835
 20
3.448162729658793
 30
0.0
 11
3.861548556430446
 21
3.513779527559055
 31
0.0
  0
LINE
  5
106
330
17
100
AcDbEntity
  8
GEOMETRY
100
AcDbLine
 10
4.639107611548556
 20
3.448162729658793
 30
0.0
 11
4.573490813648293
 21
3.513779527559055
 31
0.0
  0
POLYLINE
  5
107
330
17
100
AcDbEntity
  8
GEOMETRY
100
AcDb2dPolyline
 66
1
 10
0.0
 20
0.0
 30
0.0
 70
0
  0
VERTEX
  5
108
330
107
100
AcDbEntity
  8
GEOMETRY
100
AcDbVertex
100
AcDb2dVertex
 10
3.9468503937007875
 20
3.795931758530185
 30
0.0
 70
0
  0
VERTEX
  5
109
330
107
100
AcDbEntity
  8
GEOMETRY
100
AcDbVertex
100
AcDb2dVertex
 10
3.9468503937007875
 20
5.1115485564304475
 30
0.0
 70
0
  0
SEQEND
  5
10A
330
107
100
AcDbEntity
  8
GEOMETRY
  0
SPLINE
  5
10B
330
17
100
AcDbEntity
  8
GEOMETRY
100
AcDbSpline
 70
0
 71
3
 72
14
 73
10
 74
0
 40
0.0
 40
0.0
 40
0.0
 40
0.0
 40
1.0
 40
1.0
 40
1.0
 40
2.0
 40
2.0
 40
2.0
 40
3.0
 40
3.0
 40
3.0
 40
3.0
 10
3.9468503937007875
 20
5.1115485564304475
 30
0.0
 10
3.96182287884797
 20
5.1115485564304475
 30
0.0
 10
3.9765347598407126
 20
5.115490593061595
 30
0.0
 10
3.9895013123359577
 20
5.122976835635186
 30
0.0
 10
4.002467864831203
 20
5.130463078208778
 30
0.0
 10
4.013237709192797
 20
5.141232922570372
 30
0.0
 10
4.020723951766389
 20
5.154199475065617
 30
0.0
 10
4.02821019433998
 20
5.167166027560863
 30
0.0
 10
4.032152230971128
 20
5.181877908553605
 30
0.0
 10
4.032152230971128
 20
5.196850393700788
 30
0.0
  0
SPLINE
  5
10C
330
17
100
AcDbEntity
  8
GEOMETRY
100
AcDbSpline
 70
0
 71
3
 72
11
 73
7
 74
0
 40
0.0
 40
0.0
 40
0.0
 40
0.0
 40
1.0
 40
1.0
 40
1.0
 40
2.0
 40
2.0
 40
2.0
 40
2.0
 10
4.032152230971128
 20
5.196850393700788
 30
0.0
 10
4.124835958005249
 20
5.196850393700788
 30
0.0
 10
4.10259186351706
 20
5.3083989501312345
 30
0.0
 10
4.21751968503937
 20
5.3083989501312345
 30
0.0
 10
4.332447506561679
 20
5.3083989501312345
 30
0.0
 10
4.3102034120734904
 20
5.196850393700788
 30
0.0
 10
4.402887139107611
 20
5.196850393700788
 30
0.0
  0
SPLINE
  5
10D
330
17
100
AcDbEntity
  8
GEOMETRY
100
AcDbSpline
 70
0
 71
3
 72
14
 73
10
 74
0
 40
0.0
 40
0.0
 40
0.0
 40
0.0
 40
1.0
 40
1.0
 40
1.0
 40
2.0
 40
2.0
 40
2.0
 40
3.0
 40
3.0
 40
3.0
 40
3.0
 10
4.402887139107611
 20
5.196850393700788
 30
0.0
 10
4.402887139107611
 20
5.181877908553605
 30
0.0
 10
4.40682917573876
 20
5.167166027560864
 30
0.0
 10
4.414315418312351
 20
5.154199475065618
 30
0.0
 10
4.421801660885943
 20
5.141232922570373
 30
0.0
 10
4.4325715052475365
 20
5.130463078208778
 30
0.0
 10
4.445538057742782
 20
5.122976835635186
 30
0.0
 10
4.458504610238028
 20
5.115490593061595
 30
0.0
 10
4.47321649123077
 20
5.1115485564304475
 30
0.0
 10
4.488188976377953
 20
5.1115485564304475
 30
0.0
  0
POLYLINE
  5
10E
330
17
100
AcDbEntity
  8
GEOMETRY
100
AcDb2dPolyline
 66
1
 10
0.0
 20
0.0
 30
0.0
 70
0
  0
VERTEX
  5
10F
330
10E
100
AcDbEntity
  8
GEOMETRY
100
AcDbVertex
100
AcDb2dVertex
 10
4.488188976377953
 20
5.1115485564304475
 30
0.0
 70
0
  0
VERTEX
  5
110
330
10E
100
AcDbEntity
  8
GEOMETRY
100
AcDbVertex
100
AcDb2dVertex
 10
4.488188976377953
 20
3.795931758530185
 30
0.0
 70
0
  0
SEQEND
  5
111
330
10E
100
AcDbEntity
  8
GEOMETRY
  0
SPLINE
  5
112
330
17
100
AcDbEntity
  8
GEOMETRY
100
AcDbSpline
 70
0
 71
3
 72
14
 73
10
 74
0
 40
0.0
 40
0.0
 40
0.0
 40
0.0
 40
1.0
 40
1.0
 40
1.0
 40
2.0
 40
2.0
 40
2.0
 40
3.0
 40
3.0
 40
3.0
 40
3.0
 10
4.488188976377953
 20
3.795931758530185
 30
0.0
 10
4.47321649123077
 20
3.795931758530185
 30
0.0
 10
4.458504610238028
 20
3.7919897218990366
 30
0.0
 10
4.445538057742782
 20
3.784503479325445
 30
0.0
 10
4.4325715052475365
 20
3.7770172367518535
 30
0.0
 10
4.421801660885943
 20
3.7662473923902597
 30
0.0
 10
4.414315418312351
 20
3.753280839895014
 30
0.0
 10
4.40682917573876
 20
3.7403142873997686
 30
0.0
 10
4.402887139107611
 20
3.7256024064070257
 30
0.0
 10
4.402887139107611
 20
3.7106299212598435
 30
0.0
  0
SPLINE
  5
113
330
17
100
AcDbEntity
  8
GEOMETRY
100
AcDbSpline
 70
0
 71
3
 72
11
 73
7
 74
0
 40
0.0
 40
0.0
 40
0.0
 40
0.0
 40
1.0
 40
1.0
 40
1.0
 40
2.0
 40
2.0
 40
2.0
 40
2.0
 10
4.402887139107611
 20
3.7106299212598435
 30
0.0
 10
4.3102034120734904
 20
3.7106299212598435
 30
0.0
 10
4.332447506561679
 20
3.599081364829397
 30
0.0
 10
4.21751968503937
 20
3.599081364829397
 30
0.0
 10
4.10259186351706
 20
3.599081364829397
 30
0.0
 10
4.124835958005249
 20
3.7106299212598435
 30
0.0
 10
4.032152230971128
 20
3.7106299212598435
 30
0.0
  0
SPLINE
  5
114
330
17
100
AcDbEntity
  8
GEOMETRY
100
AcDbSpline
 70
0
 71
3
 72
14
 73
10
 74
0
 40
0.0
 40
0.0
 40
0.0
 40
0.0
 40
1.0
 40
1.0
 40
1.0
 40
2.0
 40
2.0
 40
2.0
 40
3.0
 40
3.0
 40
3.0
 40
3.0
 10
4.032152230971128
 20
3.7106299212598435
 30
0.0
 10
4.032152230971128
 20
3.7256024064070257
 30
0.0
 10
4.02821019433998
 20
3.7403142873997677
 30
0.0
 10
4.020723951766389
 20
3.7532808398950133
 30
0.0
 10
4.013237709192797
 20
3.766247392390259
 30
0.0
 10
4.002467864831203
 20
3.7770172367518535
 30
0.0
 10
3.9895013123359577
 20
3.784503479325445
 30
0.0
 10
3.9765347598407126
 20
3.7919897218990366
 30
0.0
 10
3.96182287884797
 20
3.795931758530185
 30
0.0
 10
3.9468503937007875
 20
3.795931758530185
 30
0.0
  0
CIRCLE
  5
115
330
17
100
AcDbEntity
  8
GEOMETRY
100
AcDbCircle
 10
3.9553805774278215
 20
5.205380577427822
 30
0.0
 40
0.75
  0
CIRCLE
  5
116
330
17
100
AcDbEntity
  8
GEOMETRY
100
AcDbCircle
 10
3.9553805774278215
 20
5.205380577427822
 30
0.0
 40
0.3
  0
CIRCLE
  5
117
330
17
100
AcDbEntity
  8
GEOMETRY
100
AcDbCircle
 10
4.479658792650919
 20
5.205380577427822
 30
0.0
 40
0.75
  0
CIRCLE
  5
118
330
17
100
AcDbEntity
  8
GEOMETRY
100
AcDbCircle
 10
4.479658792650919
 20
5.205380577427822
 30
0.0
 40
0.3
  0
CIRCLE
  5
119
330
17
100
AcDbEntity
  8
GEOMETRY
100
AcDbCircle
 10
3.9553805774278215
 20
3.7020997375328095
 30
0.0
 40
0.75
  0
CIRCLE
  5
11A
330
17
100
AcDbEntity
  8
GEOMETRY
100
AcDbCircle
 10
3.9553805774278215
 20
3.7020997375328095
 30
0.0
 40
0.3
  0
CIRCLE
  5
11B
330
17
100
AcDbEntity
  8
GEOMETRY
100
AcDbCircle
 10
4.479658792650919
 20
3.7020997375328095
 30
0.0
 40
0.75
  0
CIRCLE
  5
11C
330
17
100
AcDbEntity
  8
GEOMETRY
100
AcDbCircle
 10
4.479658792650919
 20
3.7020997375328095
 30
0.0
 40
0.3
  0
LINE
  5
11D
330
17
100
AcDbEntity
  8
GEOMETRY
100
AcDbLine
 10
3.48753280839895
 20
10.275590551181102
 30
0.0
 11
3.48753280839895
 21
2.693569553805775
 31
0.0
  0
LINE
  5
11E
330
17
100
AcDbEntity
  8
GEOMETRY
100
AcDbLine
 10
1.0433070866141732
 20
2.693569553805775
 30
0.0
 11
5.892388451443569
 21
2.693569553805775
 31
0.0
  0
TEXT
  5
11F
330
17
100
AcDbEntity
  8
TEXT
100
AcDbText
 10
0.8661417322834646
 20
11.023622047244094
 30
0.0
 40
0.09070866141732283
  1
FRONT ELEVATION — D1
 11
0.8661417322834646
 21
11.023622047244094
 31
0.0
100
AcDbText
  0
LINE
  5
120
330
17
100
AcDbEntity
  8
GEOMETRY
100
AcDbLine
 10
0.8661417322834646
 20
10.964566929133857
 30
0.0
 11
3.2283464566929134
 21
10.964566929133857
 31
0.0
  0
TEXT
  5
121
330
17
100
AcDbEntity
  8
TEXT
100
AcDbText
 10
0.8661417322834646
 20
10.834645669291337
 30
0.0
 40
0.048188976377952754
  1
7 ft 7 in × 3 ft · PAIR OF LEAVES · SCALE 1:12
 11
0.8661417322834646
 21
10.834645669291337
 31
0.0
100
AcDbText
  0
TEXT
  5
122
330
17
100
AcDbEntity
  8
TEXT
100
AcDbText
 10
1.0433070866141732
 20
2.733070866141732
 30
0.0
 40
0.04535433070866141
  1
FFL ±0
 11
1.0433070866141732
 21
2.733070866141732
 31
0.0
100
AcDbText
  0
LINE
  5
123
330
17
100
AcDbEntity
  8
GEOMETRY
100
AcDbLine
 10
1.358267716535433
 20
8.11023622047244
 30
0.0
 11
1.5551181102362204
 21
8.11023622047244
 31
0.0
  0
LINE
  5
124
330
17
100
AcDbEntity
  8
GEOMETRY
100
AcDbLine
 10
5.380708661417322
 20
8.11023622047244
 30
0.0
 11
5.57755905511811
 21
8.11023622047244
 31
0.0
  0
TEXT
  5
125
330
17
100
AcDbEntity
  8
TEXT
100
AcDbText
 10
1.3188976377952755
 20
8.070866141732283
 30
0.0
 40
0.07937007874015747
  1
B
 72
2
 11
1.3188976377952755
 21
8.070866141732283
 31
0.0
100
AcDbText
  0
TEXT
  5
126
330
17
100
AcDbEntity
  8
TEXT
100
AcDbText
 10
5.616929133858267
 20
8.070866141732283
 30
0.0
 40
0.07937007874015747
  1
B
 11
5.616929133858267
 21
8.070866141732283
 31
0.0
100
AcDbText
  0
CIRCLE
  5
127
330
17
100
AcDbEntity
  8
GEOMETRY
  6
DASHED
100
AcDbCircle
 10
2.7181102362204728
 20
9.65236220472441
 30
0.0
 40
5.5
  0
TEXT
  5
128
330
17
100
AcDbEntity
  8
TEXT
100
AcDbText
 10
2.4622047244094487
 20
9.80984251968504
 30
0.0
 40
0.07370078740157479
  1
A
 72
2
 11
2.4622047244094487
 21
9.80984251968504
 31
0.0
100
AcDbText
  0
LWPOLYLINE
  5
129
330
17
100
AcDbEntity
  8
GEOMETRY
  6
DASHED
100
AcDbPolyline
 90
5
 70
0
 10
1.9094488188976377
 20
6.272834645669293
 10
3.526902887139108
 20
6.272834645669293
 10
3.526902887139108
 20
5.400131233595802
 10
1.9094488188976377
 20
5.400131233595802
 10
1.9094488188976377
 20
6.272834645669293
  0
TEXT
  5
12A
330
17
100
AcDbEntity
  8
TEXT
100
AcDbText
 10
1.8700787401574803
 20
6.233464566929134
 30
0.0
 40
0.07370078740157479
  1
C
 72
2
 11
1.8700787401574803
 21
6.233464566929134
 31
0.0
100
AcDbText
  0
LINE
  5
12B
330
17
100
AcDbEntity
  8
DIMENSIONS
100
AcDbLine
 10
1.9094488188976377
 20
2.418110236220472
 30
0.0
 11
3.526771653543307
 21
2.418110236220472
 31
0.0
  0
LINE
  5
12C
330
17
100
AcDbEntity
  8
DIMENSIONS
100
AcDbLine
 10
1.968503937007874
 20
2.614960629921259
 30
0.0
 11
1.968503937007874
 21
2.3708661417322836
 31
0.0
  0
LINE
  5
12D
330
17
100
AcDbEntity
  8
DIMENSIONS
100
AcDbLine
 10
1.9291338582677164
 20
2.3787401574803146
 30
0.0
 11
2.0078740157480315
 21
2.4574803149606295
 31
0.0
  0
LINE
  5
12E
330
17
100
AcDbEntity
  8
DIMENSIONS
100
AcDbLine
 10
2.296456692913386
 20
2.614960629921259
 30
0.0
 11
2.296456692913386
 21
2.3708661417322836
 31
0.0
  0
LINE
  5
12F
330
17
100
AcDbEntity
  8
DIMENSIONS
100
AcDbLine
 10
2.2570866141732284
 20
2.3787401574803146
 30
0.0
 11
2.3358267716535432
 21
2.4574803149606295
 31
0.0
  0
LINE
  5
130
330
17
100
AcDbEntity
  8
DIMENSIONS
100
AcDbLine
 10
3.139763779527559
 20
2.614960629921259
 30
0.0
 11
3.139763779527559
 21
2.3708661417322836
 31
0.0
  0
LINE
  5
131
330
17
100
AcDbEntity
  8
DIMENSIONS
100
AcDbLine
 10
3.1003937007874014
 20
2.3787401574803146
 30
0.0
 11
3.1791338582677167
 21
2.4574803149606295
 31
0.0
  0
LINE
  5
132
330
17
100
AcDbEntity
  8
DIMENSIONS
100
AcDbLine
 10
3.4677165354330706
 20
2.614960629921259
 30
0.0
 11
3.4677165354330706
 21
2.3708661417322836
 31
0.0
  0
LINE
  5
133
330
17
100
AcDbEntity
  8
DIMENSIONS
100
AcDbLine
 10
3.428346456692913
 20
2.3787401574803146
 30
0.0
 11
3.5070866141732284
 21
2.4574803149606295
 31
0.0
  0
TEXT
  5
134
330
17
100
AcDbEntity
  8
TEXT
100
AcDbText
 10
2.132283464566929
 20
2.4496062992125984
 30
0.0
 40
0.048188976377952754
  1
3⅞"
 72
1
 11
2.132283464566929
 21
2.4496062992125984
 31
0.0
100
AcDbText
  0
TEXT
  5
135
330
17
100
AcDbEntity
  8
TEXT
100
AcDbText
 10
2.7181102362204728
 20
2.4496062992125984
 30
0.0
 40
0.048188976377952754
  1
10⅛"
 72
1
 11
2.7181102362204728
 21
2.4496062992125984
 31
0.0
100
AcDbText
  0
TEXT
  5
136
330
17
100
AcDbEntity
  8
TEXT
100
AcDbText
 10
3.303543307086614
 20
2.4496062992125984
 30
0.0
 40
0.048188976377952754
  1
3⅞"
 72
1
 11
3.303543307086614
 21
2.4496062992125984
 31
0.0
100
AcDbText
  0
LINE
  5
137
330
17
100
AcDbEntity
  8
DIMENSIONS
100
AcDbLine
 10
1.9094488188976377
 20
2.181889763779527
 30
0.0
 11
5.026377952755905
 21
2.181889763779527
 31
0.0
  0
LINE
  5
138
330
17
100
AcDbEntity
  8
DIMENSIONS
100
AcDbLine
 10
1.968503937007874
 20
2.614960629921259
 30
0.0
 11
1.968503937007874
 21
2.1346456692913387
 31
0.0
  0
LINE
  5
139
330
17
100
AcDbEntity
  8
DIMENSIONS
100
AcDbLine
 10
1.9291338582677164
 20
2.1425196850393697
 30
0.0
 11
2.0078740157480315
 21
2.2212598425196846
 31
0.0
  0
LINE
  5
13A
330
17
100
AcDbEntity
  8
DIMENSIONS
100
AcDbLine
 10
3.4677165354330706
 20
2.614960629921259
 30
0.0
 11
3.4677165354330706
 21
2.1346456692913387
 31
0.0
  0
LINE
  5
13B
330
17
100
AcDbEntity
  8
DIMENSIONS
100
AcDbLine
 10
3.428346456692913
 20
2.1425196850393697
 30
0.0
 11
3.5070866141732284
 21
2.2212598425196846
 31
0.0
  0
LINE
  5
13C
330
17
100
AcDbEntity
  8
DIMENSIONS
100
AcDbLine
 10
4.967322834645669
 20
2.614960629921259
 30
0.0
 11
4.967322834645669
 21
2.1346456692913387
 31
0.0
  0
LINE
  5
13D
330
17
100
AcDbEntity
  8
DIMENSIONS
100
AcDbLine
 10
4.927952755905512
 20
2.1425196850393697
 30
0.0
 11
5.006692913385827
 21
2.2212598425196846
 31
0.0
  0
TEXT
  5
13E
330
17
100
AcDbEntity
  8
TEXT
100
AcDbText
 10
2.7181102362204728
 20
2.2133858267716535
 30
0.0
 40
0.048188976377952754
  1
1'-6"
 72
1
 11
2.7181102362204728
 21
2.2133858267716535
 31
0.0
100
AcDbText
  0
TEXT
  5
13F
330
17
100
AcDbEntity
  8
TEXT
100
AcDbText
 10
4.217716535433071
 20
2.2133858267716535
 30
0.0
 40
0.048188976377952754
  1
1'-6"
 72
1
 11
4.217716535433071
 21
2.2133858267716535
 31
0.0
100
AcDbText
  0
LINE
  5
140
330
17
100
AcDbEntity
  8
DIMENSIONS
100
AcDbLine
 10
1.9094488188976377
 20
1.9456692913385822
 30
0.0
 11
5.026377952755905
 21
1.9456692913385822
 31
0.0
  0
LINE
  5
141
330
17
100
AcDbEntity
  8
DIMENSIONS
100
AcDbLine
 10
1.968503937007874
 20
2.614960629921259
 30
0.0
 11
1.968503937007874
 21
1.8984251968503936
 31
0.0
  0
LINE
  5
142
330
17
100
AcDbEntity
  8
DIMENSIONS
100
AcDbLine
 10
1.9291338582677164
 20
1.9062992125984246
 30
0.0
 11
2.0078740157480315
 21
1.9850393700787397
 31
0.0
  0
LINE
  5
143
330
17
100
AcDbEntity
  8
DIMENSIONS
100
AcDbLine
 10
4.967322834645669
 20
2.614960629921259
 30
0.0
 11
4.967322834645669
 21
1.8984251968503936
 31
0.0
  0
LINE
  5
144
330
17
100
AcDbEntity
  8
DIMENSIONS
100
AcDbLine
 10
4.927952755905512
 20
1.9062992125984246
 30
0.0
 11
5.006692913385827
 21
1.9850393700787397
 31
0.0
  0
TEXT
  5
145
330
17
100
AcDbEntity
  8
TEXT
100
AcDbText
 10
3.4681102362204723
 20
1.9771653543307086
 30
0.0
 40
0.048188976377952754
  1
3'-0" OPENING · D1
 72
1
 11
3.4681102362204723
 21
1.9771653543307086
 31
0.0
100
AcDbText
  0
LINE
  5
146
330
17
100
AcDbEntity
  8
DIMENSIONS
100
AcDbLine
 10
5.774409448818897
 20
10.334645669291339
 30
0.0
 11
5.774409448818897
 21
2.6346456692913383
 31
0.0
  0
LINE
  5
147
330
17
100
AcDbEntity
  8
DIMENSIONS
100
AcDbLine
 10
5.046062992125984
 20
10.275590551181102
 30
0.0
 11
5.821653543307087
 21
10.275590551181102
 31
0.0
  0
LINE
  5
148
330
17
100
AcDbEntity
  8
DIMENSIONS
100
AcDbLine
 10
5.73503937007874
 20
10.236220472440944
 30
0.0
 11
5.8137795275590545
 21
10.31496062992126
 31
0.0
  0
LINE
  5
149
330
17
100
AcDbEntity
  8
DIMENSIONS
100
AcDbLine
 10
5.046062992125984
 20
9.947637795275591
 30
0.0
 11
5.821653543307087
 21
9.947637795275591
 31
0.0
  0
LINE
  5
14A
330
17
100
AcDbEntity
  8
DIMENSIONS
100
AcDbLine
 10
5.73503937007874
 20
9.908267716535434
 30
0.0
 11
5.8137795275590545
 21
9.987007874015749
 31
0.0
  0
LINE
  5
14B
330
17
100
AcDbEntity
  8
DIMENSIONS
100
AcDbLine
 10
5.046062992125984
 20
6.213779527559056
 30
0.0
 11
5.821653543307087
 21
6.213779527559056
 31
0.0
  0
LINE
  5
14C
330
17
100
AcDbEntity
  8
DIMENSIONS
100
AcDbLine
 10
5.73503937007874
 20
6.174409448818898
 30
0.0
 11
5.8137795275590545
 21
6.253149606299213
 31
0.0
  0
LINE
  5
14D
330
17
100
AcDbEntity
  8
DIMENSIONS
100
AcDbLine
 10
5.046062992125984
 20
5.459448818897637
 30
0.0
 11
5.821653543307087
 21
5.459448818897637
 31
0.0
  0
LINE
  5
14E
330
17
100
AcDbEntity
  8
DIMENSIONS
100
AcDbLine
 10
5.73503937007874
 20
5.4200787401574795
 30
0.0
 11
5.8137795275590545
 21
5.498818897637794
 31
0.0
  0
LINE
  5
14F
330
17
100
AcDbEntity
  8
DIMENSIONS
100
AcDbLine
 10
5.046062992125984
 20
3.4480314960629928
 30
0.0
 11
5.821653543307087
 21
3.4480314960629928
 31
0.0
  0
LINE
  5
150
330
17
100
AcDbEntity
  8
DIMENSIONS
100
AcDbLine
 10
5.73503937007874
 20
3.408661417322835
 30
0.0
 11
5.8137795275590545
 21
3.48740157480315
 31
0.0
  0
LINE
  5
151
330
17
100
AcDbEntity
  8
DIMENSIONS
100
AcDbLine
 10
5.046062992125984
 20
2.6937007874015744
 30
0.0
 11
5.821653543307087
 21
2.6937007874015744
 31
0.0
  0
LINE
  5
152
330
17
100
AcDbEntity
  8
DIMENSIONS
100
AcDbLine
 10
5.73503937007874
 20
2.654330708661417
 30
0.0
 11
5.8137795275590545
 21
2.733070866141732
 31
0.0
  0
TEXT
  5
153
330
17
100
AcDbEntity
  8
TEXT
100
AcDbText
 10
5.742913385826772
 20
10.111811023622048
 30
0.0
 40
0.048188976377952754
  1
3⅞"
 50
90.0
 72
1
 11
5.742913385826772
 21
10.111811023622048
 31
0.0
100
AcDbText
  0
TEXT
  5
154
330
17
100
AcDbEntity
  8
TEXT
100
AcDbText
 10
5.742913385826772
 20
8.080708661417322
 30
0.0
 40
0.048188976377952754
  1
3'-8¾"
 50
90.0
 72
1
 11
5.742913385826772
 21
8.080708661417322
 31
0.0
100
AcDbText
  0
TEXT
  5
155
330
17
100
AcDbEntity
  8
TEXT
100
AcDbText
 10
5.742913385826772
 20
5.836614173228346
 30
0.0
 40
0.048188976377952754
  1
9"
 50
90.0
 72
1
 11
5.742913385826772
 21
5.836614173228346
 31
0.0
100
AcDbText
  0
TEXT
  5
156
330
17
100
AcDbEntity
  8
TEXT
100
AcDbText
 10
5.742913385826772
 20
4.453543307086615
 30
0.0
 40
0.048188976377952754
  1
2'-0⅛"
 50
90.0
 72
1
 11
5.742913385826772
 21
4.453543307086615
 31
0.0
100
AcDbText
  0
TEXT
  5
157
330
17
100
AcDbEntity
  8
TEXT
100
AcDbText
 10
5.742913385826772
 20
3.0708661417322833
 30
0.0
 40
0.048188976377952754
  1
9"
 50
90.0
 72
1
 11
5.742913385826772
 21
3.0708661417322833
 31
0.0
100
AcDbText
  0
LINE
  5
158
330
17
100
AcDbEntity
  8
DIMENSIONS
100
AcDbLine
 10
6.05
 20
10.334645669291339
 30
0.0
 11
6.05
 21
2.6346456692913383
 31
0.0
  0
LINE
  5
159
330
17
100
AcDbEntity
  8
DIMENSIONS
100
AcDbLine
 10
5.046062992125984
 20
10.275590551181102
 30
0.0
 11
6.097244094488189
 21
10.275590551181102
 31
0.0
  0
LINE
  5
15A
330
17
100
AcDbEntity
  8
DIMENSIONS
100
AcDbLine
 10
6.0106299212598415
 20
10.236220472440944
 30
0.0
 11
6.089370078740157
 21
10.31496062992126
 31
0.0
  0
LINE
  5
15B
330
17
100
AcDbEntity
  8
DIMENSIONS
100
AcDbLine
 10
5.046062992125984
 20
2.6937007874015744
 30
0.0
 11
6.097244094488189
 21
2.6937007874015744
 31
0.0
  0
LINE
  5
15C
330
17
100
AcDbEntity
  8
DIMENSIONS
100
AcDbLine
 10
6.0106299212598415
 20
2.654330708661417
 30
0.0
 11
6.089370078740157
 21
2.733070866141732
 31
0.0
  0
TEXT
  5
15D
330
17
100
AcDbEntity
  8
TEXT
100
AcDbText
 10
6.018503937007874
 20
6.48464566929134
 30
0.0
 40
0.048188976377952754
  1
7'-7" LEAF
 50
90.0
 72
1
 11
6.018503937007874
 21
6.48464566929134
 31
0.0
100
AcDbText
  0
LINE
  5
15E
330
17
100
AcDbEntity
  8
DIMENSIONS
100
AcDbLine
 10
1.0826771653543308
 20
5.895669291338582
 30
0.0
 11
1.0826771653543308
 21
2.6346456692913383
 31
0.0
  0
LINE
  5
15F
330
17
100
AcDbEntity
  8
DIMENSIONS
100
AcDbLine
 10
2.3948818897637794
 20
5.836614173228346
 30
0.0
 11
1.1299212598425197
 21
5.836614173228346
 31
0.0
  0
LINE
  5
160
330
17
100
AcDbEntity
  8
DIMENSIONS
100
AcDbLine
 10
1.0433070866141732
 20
5.797244094488189
 30
0.0
 11
1.1220472440944882
 21
5.875984251968504
 31
0.0
  0
LINE
  5
161
330
17
100
AcDbEntity
  8
DIMENSIONS
100
AcDbLine
 10
2.3948818897637794
 20
2.6937007874015744
 30
0.0
 11
1.1299212598425197
 21
2.6937007874015744
 31
0.0
  0
LINE
  5
162
330
17
100
AcDbEntity
  8
DIMENSIONS
100
AcDbLine
 10
1.0433070866141732
 20
2.654330708661417
 30
0.0
 11
1.1220472440944882
 21
2.733070866141732
 31
0.0
  0
TEXT
  5
163
330
17
100
AcDbEntity
  8
TEXT
100
AcDbText
 10
1.0511811023622042
 20
4.26496062992126
 30
0.0
 40
0.048188976377952754
  1
3'-1¾" KNOB C/L
 50
90.0
 72
1
 11
1.0511811023622042
 21
4.26496062992126
 31
0.0
100
AcDbText
  0
CIRCLE
  5
164
330
17
100
AcDbEntity
  8
GEOMETRY
100
AcDbCircle
 10
4.803149606299213
 20
7.322834645669292
 30
0.0
 40
2.0
  0
TEXT
  5
165
330
17
100
AcDbEntity
  8
TEXT
100
AcDbText
 10
4.803149606299213
 20
7.293307086614173
 30
0.0
 40
0.05669291338582677
  1
1
 72
1
 11
4.803149606299213
 21
7.293307086614173
 31
0.0
100
AcDbText
  0
CIRCLE
  5
166
330
17
100
AcDbEntity
  8
GEOMETRY
100
AcDbCircle
 10
4.217716535433071
 20
10.111417322834646
 30
0.0
 40
2.0
  0
TEXT
  5
167
330
17
100
AcDbEntity
  8
TEXT
100
AcDbText
 10
4.217716535433071
 20
10.081889763779527
 30
0.0
 40
0.05669291338582677
  1
2
 72
1
 11
4.217716535433071
 21
10.081889763779527
 31
0.0
100
AcDbText
  0
CIRCLE
  5
168
330
17
100
AcDbEntity
  8
GEOMETRY
100
AcDbCircle
 10
4.217716535433071
 20
7.979133858267717
 30
0.0
 40
2.0
  0
TEXT
  5
169
330
17
100
AcDbEntity
  8
TEXT
100
AcDbText
 10
4.217716535433071
 20
7.949606299212599
 30
0.0
 40
0.05669291338582677
  1
3
 72
1
 11
4.217716535433071
 21
7.949606299212599
 31
0.0
100
AcDbText
  0
CIRCLE
  5
16A
330
17
100
AcDbEntity
  8
GEOMETRY
100
AcDbCircle
 10
4.217716535433071
 20
5.836614173228346
 30
0.0
 40
2.0
  0
TEXT
  5
16B
330
17
100
AcDbEntity
  8
TEXT
100
AcDbText
 10
4.217716535433071
 20
5.807086614173229
 30
0.0
 40
0.05669291338582677
  1
4
 72
1
 11
4.217716535433071
 21
5.807086614173229
 31
0.0
100
AcDbText
  0
CIRCLE
  5
16C
330
17
100
AcDbEntity
  8
GEOMETRY
100
AcDbCircle
 10
4.217716535433071
 20
4.453543307086615
 30
0.0
 40
2.0
  0
TEXT
  5
16D
330
17
100
AcDbEntity
  8
TEXT
100
AcDbText
 10
4.217716535433071
 20
4.424015748031496
 30
0.0
 40
0.05669291338582677
  1
5
 72
1
 11
4.217716535433071
 21
4.424015748031496
 31
0.0
100
AcDbText
  0
CIRCLE
  5
16E
330
17
100
AcDbEntity
  8
GEOMETRY
100
AcDbCircle
 10
4.217716535433071
 20
3.0708661417322833
 30
0.0
 40
2.0
  0
TEXT
  5
16F
330
17
100
AcDbEntity
  8
TEXT
100
AcDbText
 10
4.217716535433071
 20
3.0413385826771653
 30
0.0
 40
0.05669291338582677
  1
6
 72
1
 11
4.217716535433071
 21
3.0413385826771653
 31
0.0
100
AcDbText
  0
CIRCLE
  5
170
330
17
100
AcDbEntity
  8
GEOMETRY
100
AcDbCircle
 10
3.4874015748031493
 20
4.862204724409449
 30
0.0
 40
2.0
  0
TEXT
  5
171
330
17
100
AcDbEntity
  8
TEXT
100
AcDbText
 10
3.4874015748031493
 20
4.832677165354331
 30
0.0
 40
0.05669291338582677
  1
9
 72
1
 11
3.4874015748031493
 21
4.832677165354331
 31
0.0
100
AcDbText
  0
CIRCLE
  5
172
330
17
100
AcDbEntity
  8
GEOMETRY
100
AcDbCircle
 10
1.8011811023622046
 20
7.322834645669292
 30
0.0
 40
2.0
  0
TEXT
  5
173
330
17
100
AcDbEntity
  8
TEXT
100
AcDbText
 10
1.8011811023622046
 20
7.293307086614173
 30
0.0
 40
0.05669291338582677
  1
10
 72
1
 11
1.8011811023622046
 21
7.293307086614173
 31
0.0
100
AcDbText
  0
LINE
  5
174
330
17
100
AcDbEntity
  8
GEOMETRY
100
AcDbLine
 10
2.3948818897637794
 20
5.836614173228346
 30
0.0
 11
1.515748031496063
 21
6.387795275590551
 31
0.0
  0
CIRCLE
  5
175
330
17
100
AcDbEntity
  8
GEOMETRY
100
AcDbCircle
 10
1.437007874015748
 20
6.387795275590551
 30
0.0
 40
2.0
  0
TEXT
  5
176
330
17
100
AcDbEntity
  8
TEXT
100
AcDbText
 10
1.437007874015748
 20
6.358267716535433
 30
0.0
 40
0.05669291338582677
  1
7
 72
1
 11
1.437007874015748
 21
6.358267716535433
 31
0.0
100
AcDbText
  0
LINE
  5
177
330
17
100
AcDbEntity
  8
GEOMETRY
100
AcDbLine
 10
2.106299212598425
 20
5.797244094488189
 30
0.0
 11
1.515748031496063
 21
5.3641732283464565
 31
0.0
  0
CIRCLE
  5
178
330
17
100
AcDbEntity
  8
GEOMETRY
100
AcDbCircle
 10
1.437007874015748
 20
5.3641732283464565
 30
0.0
 40
2.0
  0
TEXT
  5
179
330
17
100
AcDbEntity
  8
TEXT
100
AcDbText
 10
1.437007874015748
 20
5.334645669291339
 30
0.0
 40
0.05669291338582677
  1
8
 72
1
 11
1.437007874015748
 21
5.334645669291339
 31
0.0
100
AcDbText
  0
LWPOLYLINE
  5
17A
330
17
100
AcDbEntity
  8
GEOMETRY
100
AcDbPolyline
 90
2
 70
0
 10
8.031496062992126
 20
9.960629921259843
 10
8.031496062992126
 20
9.330708661417322
  0
LWPOLYLINE
  5
17B
330
17
100
AcDbEntity
  8
GEOMETRY
100
AcDbPolyline
 90
2
 70
0
 10
12.078740157480315
 20
9.960629921259843
 10
12.078740157480315
 20
9.330708661417322
  0
LWPOLYLINE
  5
17C
330
17
100
AcDbEntity
  8
GEOMETRY
100
AcDbPolyline
 90
3
 70
0
 10
8.031496062992126
 20
9.330708661417322
 10
12.078740157480315
 20
9.330708661417322
 10
12.078740157480315
 20
6.574803149606299
  0
LWPOLYLINE
  5
17D
330
17
100
AcDbEntity
  8
GEOMETRY
100
AcDbPolyline
 90
2
 70
0
 10
8.031496062992126
 20
6.574803149606299
 10
8.031496062992126
 20
9.330708661417322
  0
LWPOLYLINE
  5
17E
330
17
100
AcDbEntity
  8
GEOMETRY
100
AcDbPolyline
 90
3
 70
0
 10
8.346456692913385
 20
9.015748031496063
 10
11.763779527559056
 20
9.015748031496063
 10
11.763779527559056
 20
6.574803149606299
  0
LWPOLYLINE
  5
17F
330
17
100
AcDbEntity
  8
GEOMETRY
100
AcDbPolyline
 90
2
 70
0
 10
8.346456692913385
 20
6.574803149606299
 10
8.346456692913385
 20
9.015748031496063
  0
LWPOLYLINE
  5
180
330
17
100
AcDbEntity
  8
GEOMETRY
100
AcDbPolyline
 90
2
 70
0
 10
8.031496062992126
 20
9.330708661417322
 10
8.346456692913385
 20
9.015748031496063
  0
LWPOLYLINE
  5
181
330
17
100
AcDbEntity
  8
GEOMETRY
100
AcDbPolyline
 90
2
 70
0
 10
12.078740157480315
 20
9.330708661417322
 10
11.763779527559056
 20
9.015748031496063
  0
LWPOLYLINE
  5
182
330
17
100
AcDbEntity
  8
GEOMETRY
100
AcDbPolyline
 90
49
 70
0
 10
8.755905511811024
 20
6.574803149606299
 10
8.755905511811024
 20
7.661417322834645
 10
8.809460560276156
 20
7.664935318501026
 10
8.861878395308919
 20
7.675369956293555
 10
8.91249089095494
 20
7.6925422124023175
 10
8.960629921259843
 20
7.716273063017395
 10
9.005250955898363
 20
7.74609726086745
 10
9.045428813751855
 20
7.781342839791452
 10
9.080674392675856
 20
7.821520697644944
 10
9.110498590525912
 20
7.866141732283465
 10
9.13422944114099
 20
7.914280762588366
 10
9.151401697249751
 20
7.964893258234386
 10
9.161836335042281
 20
8.01731109326715
 10
9.165354330708661
 20
8.070866141732283
 10
9.242600424458661
 20
8.076879306102361
 10
9.30868971456693
 20
8.093873031496063
 10
9.414488188976378
 20
8.154527559055119
 10
9.49693036417323
 20
8.240280511811024
 10
9.570196850393701
 20
8.338582677165356
 10
9.648468257874017
 20
8.436884842519685
 10
9.745925196850393
 20
8.52263779527559
 10
9.806279681348425
 20
8.556886687992126
 10
9.876748277559054
 20
8.583292322834646
 10
9.959103561761811
 20
8.600286048228346
 10
10.05511811023622
 20
8.606299212598424
 10
10.151132658710631
 20
8.600286048228346
 10
10.233487942913387
 20
8.583292322834646
 10
10.303956539124016
 20
8.556886687992126
 10
10.364311023622045
 20
8.52263779527559
 10
10.461767962598424
 20
8.436884842519685
 10
10.54003937007874
 20
8.338582677165356
 10
10.613305856299212
 20
8.240280511811024
 10
10.695748031496061
 20
8.154527559055119
 10
10.801546505905511
 20
8.093873031496063
 10
10.86763579601378
 20
8.076879306102361
 10
10.94488188976378
 20
8.070866141732283
 10
10.94839988543016
 20
8.01731109326715
 10
10.958834523222688
 20
7.964893258234386
 10
10.97600677933145
 20
7.914280762588366
 10
10.999737629946528
 20
7.866141732283465
 10
11.029561827796583
 20
7.821520697644944
 10
11.064807406720583
 20
7.781342839791452
 10
11.104985264574074
 20
7.74609726086745
 10
11.149606299212596
 20
7.716273063017395
 10
11.197745329517497
 20
7.6925422124023175
 10
11.248357825163518
 20
7.675369956293555
 10
11.300775660196283
 20
7.664935318501026
 10
11.354330708661417
 20
7.661417322834645
 10
11.354330708661417
 20
6.574803149606299
  0
LWPOLYLINE
  5
183
330
17
100
AcDbEntity
  8
GEOMETRY
100
AcDbPolyline
 90
49
 70
0
 10
8.938582677165353
 20
8.111811023622046
 10
8.937364909434685
 20
8.093272737614885
 10
8.933752919429576
 20
8.075128102411236
 10
8.92780867693039
 20
8.057608392379922
 10
8.91959415171748
 20
8.040944881889764
 10
8.90927039092323
 20
8.025499139130275
 10
8.897069998218766
 20
8.011591419104068
 10
8.88316227819256
 20
7.999391026399604
 10
8.867716535433072
 20
7.989067265605355
 10
8.851053024942912
 20
7.980852740392444
 10
8.833533314911598
 20
7.974908497893257
 10
8.815388679707949
 20
7.971296507888151
 10
8.796850393700787
 20
7.97007874015748
 10
8.778312107693626
 20
7.971296507888151
 10
8.760167472489977
 20
7.974908497893257
 10
8.742647762458663
 20
7.980852740392444
 10
8.725984251968505
 20
7.989067265605355
 10
8.710538509209016
 20
7.999391026399604
 10
8.696630789182807
 20
8.011591419104068
 10
8.684430396478346
 20
8.025499139130275
 10
8.674106635684096
 20
8.040944881889764
 10
8.665892110471184
 20
8.057608392379922
 10
8.659947867971997
 20
8.075128102411236
 10
8.65633587796689
 20
8.093272737614885
 10
8.65511811023622
 20
8.111811023622046
 10
8.65633587796689
 20
8.130349309629208
 10
8.659947867971997
 20
8.148493944832857
 10
8.665892110471184
 20
8.166013654864171
 10
8.674106635684096
 20
8.18267716535433
 10
8.684430396478346
 20
8.198122908113818
 10
8.696630789182807
 20
8.212030628140026
 10
8.710538509209016
 20
8.22423102084449
 10
8.725984251968503
 20
8.234554781638739
 10
8.742647762458661
 20
8.242769306851649
 10
8.760167472489977
 20
8.248713549350837
 10
8.778312107693626
 20
8.252325539355942
 10
8.796850393700787
 20
8.253543307086613
 10
8.815388679707947
 20
8.252325539355942
 10
8.833533314911598
 20
8.248713549350837
 10
8.851053024942912
 20
8.242769306851649
 10
8.86771653543307
 20
8.234554781638739
 10
8.88316227819256
 20
8.22423102084449
 10
8.897069998218766
 20
8.212030628140026
 10
8.90927039092323
 20
8.198122908113818
 10
8.91959415171748
 20
8.18267716535433
 10
8.92780867693039
 20
8.166013654864171
 10
8.933752919429576
 20
8.148493944832857
 10
8.937364909434685
 20
8.130349309629208
 10
8.938582677165353
 20
8.111811023622046
  0
LWPOLYLINE
  5
184
330
17
100
AcDbEntity
  8
GEOMETRY
100
AcDbPolyline
 90
49
 70
0
 10
8.853543307086614
 20
8.111811023622046
 10
8.853056199994347
 20
8.104395709219181
 10
8.851611403992303
 20
8.097137855137722
 10
8.849233706992628
 20
8.090129971125197
 10
8.845947896907465
 20
8.083464566929134
 10
8.841818392589765
 20
8.077286269825338
 10
8.83693823550798
 20
8.071723181814855
 10
8.831375147497495
 20
8.06684302473307
 10
8.8251968503937
 20
8.06271352041537
 10
8.818531446197637
 20
8.059427710330205
 10
8.81152356218511
 20
8.057050013330532
 10
8.804265708103651
 20
8.055605217328488
 10
8.796850393700787
 20
8.05511811023622
 10
8.789435079297922
 20
8.055605217328488
 10
8.782177225216463
 20
8.057050013330532
 10
8.775169341203936
 20
8.059427710330205
 10
8.768503937007873
 20
8.06271352041537
 10
8.762325639904079
 20
8.06684302473307
 10
8.756762551893596
 20
8.071723181814855
 10
8.75188239481181
 20
8.077286269825338
 10
8.74775289049411
 20
8.083464566929134
 10
8.744467080408947
 20
8.090129971125197
 10
8.742089383409272
 20
8.097137855137722
 10
8.740644587407228
 20
8.104395709219181
 10
8.740157480314961
 20
8.111811023622046
 10
8.740644587407228
 20
8.11922633802491
 10
8.742089383409272
 20
8.126484192106371
 10
8.744467080408947
 20
8.133492076118896
 10
8.74775289049411
 20
8.14015748031496
 10
8.75188239481181
 20
8.146335777418756
 10
8.756762551893596
 20
8.151898865429239
 10
8.762325639904079
 20
8.156779022511024
 10
8.768503937007873
 20
8.160908526828724
 10
8.775169341203936
 20
8.164194336913889
 10
8.782177225216463
 20
8.166572033913562
 10
8.789435079297922
 20
8.168016829915606
 10
8.796850393700787
 20
8.168503937007873
 10
8.804265708103651
 20
8.168016829915606
 10
8.81152356218511
 20
8.166572033913562
 10
8.818531446197637
 20
8.164194336913889
 10
8.8251968503937
 20
8.160908526828724
 10
8.831375147497495
 20
8.156779022511024
 10
8.83693823550798
 20
8.151898865429239
 10
8.841818392589765
 20
8.146335777418756
 10
8.845947896907465
 20
8.14015748031496
 10
8.849233706992628
 20
8.133492076118896
 10
8.851611403992303
 20
8.126484192106371
 10
8.853056199994347
 20
8.11922633802491
 10
8.853543307086614
 20
8.111811023622046
  0
LWPOLYLINE
  5
185
330
17
100
AcDbEntity
  8
GEOMETRY
100
AcDbPolyline
 90
49
 70
0
 10
11.455118110236223
 20
8.111811023622046
 10
11.45390034250555
 20
8.093272737614885
 10
11.450288352500445
 20
8.075128102411236
 10
11.444344110001259
 20
8.057608392379922
 10
11.436129584788347
 20
8.040944881889764
 10
11.425805823994098
 20
8.025499139130275
 10
11.413605431289634
 20
8.011591419104068
 10
11.399697711263425
 20
7.999391026399604
 10
11.384251968503937
 20
7.989067265605355
 10
11.36758845801378
 20
7.980852740392444
 10
11.350068747982464
 20
7.974908497893257
 10
11.331924112778816
 20
7.971296507888151
 10
11.313385826771654
 20
7.97007874015748
 10
11.294847540764492
 20
7.971296507888151
 10
11.276702905560844
 20
7.974908497893257
 10
11.259183195529529
 20
7.980852740392444
 10
11.24251968503937
 20
7.989067265605355
 10
11.227073942279883
 20
7.999391026399604
 10
11.213166222253673
 20
8.011591419104068
 10
11.20096582954921
 20
8.025499139130275
 10
11.190642068754961
 20
8.040944881889764
 10
11.18242754354205
 20
8.057608392379922
 10
11.176483301042863
 20
8.075128102411236
 10
11.172871311037756
 20
8.093272737614885
 10
11.171653543307086
 20
8.111811023622046
 10
11.172871311037756
 20
8.130349309629208
 10
11.176483301042863
 20
8.148493944832857
 10
11.18242754354205
 20
8.166013654864171
 10
11.190642068754961
 20
8.18267716535433
 10
11.20096582954921
 20
8.198122908113818
 10
11.213166222253673
 20
8.212030628140026
 10
11.227073942279883
 20
8.22423102084449
 10
11.24251968503937
 20
8.234554781638739
 10
11.259183195529529
 20
8.242769306851649
 10
11.276702905560844
 20
8.248713549350837
 10
11.294847540764492
 20
8.252325539355942
 10
11.313385826771654
 20
8.253543307086613
 10
11.331924112778816
 20
8.252325539355942
 10
11.350068747982464
 20
8.248713549350837
 10
11.36758845801378
 20
8.242769306851649
 10
11.384251968503937
 20
8.234554781638739
 10
11.399697711263425
 20
8.22423102084449
 10
11.413605431289634
 20
8.212030628140026
 10
11.425805823994098
 20
8.198122908113818
 10
11.436129584788347
 20
8.18267716535433
 10
11.444344110001259
 20
8.166013654864171
 10
11.450288352500445
 20
8.148493944832857
 10
11.45390034250555
 20
8.130349309629208
 10
11.455118110236223
 20
8.111811023622046
  0
LWPOLYLINE
  5
186
330
17
100
AcDbEntity
  8
GEOMETRY
100
AcDbPolyline
 90
49
 70
0
 10
11.370078740157481
 20
8.111811023622046
 10
11.369591633065212
 20
8.104395709219181
 10
11.368146837063168
 20
8.097137855137722
 10
11.365769140063495
 20
8.090129971125197
 10
11.36248332997833
 20
8.083464566929134
 10
11.35835382566063
 20
8.077286269825338
 10
11.353473668578847
 20
8.071723181814855
 10
11.347910580568364
 20
8.06684302473307
 10
11.341732283464568
 20
8.06271352041537
 10
11.335066879268505
 20
8.059427710330205
 10
11.328058995255978
 20
8.057050013330532
 10
11.320801141174519
 20
8.055605217328488
 10
11.313385826771654
 20
8.05511811023622
 10
11.30597051236879
 20
8.055605217328488
 10
11.29871265828733
 20
8.057050013330532
 10
11.291704774274805
 20
8.059427710330205
 10
11.285039370078742
 20
8.06271352041537
 10
11.278861072974946
 20
8.06684302473307
 10
11.273297984964463
 20
8.071723181814855
 10
11.268417827882677
 20
8.077286269825338
 10
11.264288323564978
 20
8.083464566929134
 10
11.261002513479813
 20
8.090129971125197
 10
11.25862481648014
 20
8.097137855137722
 10
11.257180020478096
 20
8.104395709219181
 10
11.256692913385827
 20
8.111811023622046
 10
11.257180020478096
 20
8.11922633802491
 10
11.25862481648014
 20
8.126484192106371
 10
11.261002513479813
 20
8.133492076118896
 10
11.264288323564978
 20
8.14015748031496
 10
11.268417827882677
 20
8.146335777418756
 10
11.273297984964461
 20
8.151898865429239
 10
11.278861072974944
 20
8.156779022511024
 10
11.285039370078739
 20
8.160908526828724
 10
11.291704774274804
 20
8.164194336913889
 10
11.29871265828733
 20
8.166572033913562
 10
11.30597051236879
 20
8.168016829915606
 10
11.313385826771654
 20
8.168503937007873
 10
11.320801141174519
 20
8.168016829915606
 10
11.328058995255978
 20
8.166572033913562
 10
11.335066879268503
 20
8.164194336913889
 10
11.341732283464566
 20
8.160908526828724
 10
11.347910580568362
 20
8.156779022511024
 10
11.353473668578845
 20
8.151898865429239
 10
11.35835382566063
 20
8.146335777418756
 10
11.36248332997833
 20
8.14015748031496
 10
11.365769140063495
 20
8.133492076118896
 10
11.368146837063168
 20
8.126484192106371
 10
11.369591633065212
 20
8.11922633802491
 10
11.370078740157481
 20
8.111811023622046
  0
LWPOLYLINE
  5
187
330
17
100
AcDbEntity
  8
GEOMETRY
100
AcDbPolyline
 90
6
 70
0
 10
7.322834645669292
 20
6.5748031496063
 10
9.866141732283465
 20
6.5748031496063
 10
9.992125984251969
 20
6.7637795275590555
 10
10.118110236220472
 20
6.3858267716535435
 10
10.244094488188976
 20
6.5748031496063
 10
12.78740157480315
 20
6.5748031496063
  0
TEXT
  5
188
330
17
100
AcDbEntity
  8
TEXT
100
AcDbText
 10
6.692913385826771
 20
11.023622047244094
 30
0.0
 40
0.09070866141732283
  1
DETAIL A — PANEL HEAD
 11
6.692913385826771
 21
11.023622047244094
 31
0.0
100
AcDbText
  0
LINE
  5
189
330
17
100
AcDbEntity
  8
GEOMETRY
100
AcDbLine
 10
6.692913385826771
 20
10.964566929133857
 30
0.0
 11
9.05511811023622
 21
10.964566929133857
 31
0.0
  0
TEXT
  5
18A
330
17
100
AcDbEntity
  8
TEXT
100
AcDbText
 10
6.692913385826771
 20
10.834645669291337
 30
0.0
 40
0.048188976377952754
  1
SCALE 1:2.5 · FOOT OF PANEL IS THE MIRROR
 11
6.692913385826771
 21
10.834645669291337
 31
0.0
100
AcDbText
  0
LINE
  5
18B
330
17
100
AcDbEntity
  8
DIMENSIONS
100
AcDbLine
 10
7.97244094488189
 20
10.078740157480315
 30
0.0
 11
12.137795275590552
 21
10.078740157480315
 31
0.0
  0
LINE
  5
18C
330
17
100
AcDbEntity
  8
DIMENSIONS
100
AcDbLine
 10
8.031496062992126
 20
9.37007874015748
 30
0.0
 11
8.031496062992126
 21
10.031496062992126
 31
0.0
  0
LINE
  5
18D
330
17
100
AcDbEntity
  8
DIMENSIONS
100
AcDbLine
 10
7.9921259842519685
 20
10.039370078740157
 30
0.0
 11
8.070866141732283
 21
10.118110236220472
 31
0.0
  0
LINE
  5
18E
330
17
100
AcDbEntity
  8
DIMENSIONS
100
AcDbLine
 10
8.346456692913385
 20
9.37007874015748
 30
0.0
 11
8.346456692913385
 21
10.031496062992126
 31
0.0
  0
LINE
  5
18F
330
17
100
AcDbEntity
  8
DIMENSIONS
100
AcDbLine
 10
8.307086614173228
 20
10.039370078740157
 30
0.0
 11
8.385826771653543
 21
10.118110236220472
 31
0.0
  0
LINE
  5
190
330
17
100
AcDbEntity
  8
DIMENSIONS
100
AcDbLine
 10
8.755905511811024
 20
9.37007874015748
 30
0.0
 11
8.755905511811024
 21
10.031496062992126
 31
0.0
  0
LINE
  5
191
330
17
100
AcDbEntity
  8
DIMENSIONS
100
AcDbLine
 10
8.716535433070867
 20
10.039370078740157
 30
0.0
 11
8.795275590551181
 21
10.118110236220472
 31
0.0
  0
LINE
  5
192
330
17
100
AcDbEntity
  8
DIMENSIONS
100
AcDbLine
 10
11.354330708661417
 20
9.37007874015748
 30
0.0
 11
11.354330708661417
 21
10.031496062992126
 31
0.0
  0
LINE
  5
193
330
17
100
AcDbEntity
  8
DIMENSIONS
100
AcDbLine
 10
11.31496062992126
 20
10.039370078740157
 30
0.0
 11
11.393700787401574
 21
10.118110236220472
 31
0.0
  0
LINE
  5
194
330
17
100
AcDbEntity
  8
DIMENSIONS
100
AcDbLine
 10
11.763779527559056
 20
9.37007874015748
 30
0.0
 11
11.763779527559056
 21
10.031496062992126
 31
0.0
  0
LINE
  5
195
330
17
100
AcDbEntity
  8
DIMENSIONS
100
AcDbLine
 10
11.724409448818898
 20
10.039370078740157
 30
0.0
 11
11.803149606299213
 21
10.118110236220472
 31
0.0
  0
LINE
  5
196
330
17
100
AcDbEntity
  8
DIMENSIONS
100
AcDbLine
 10
12.078740157480315
 20
9.37007874015748
 30
0.0
 11
12.078740157480315
 21
10.031496062992126
 31
0.0
  0
LINE
  5
197
330
17
100
AcDbEntity
  8
DIMENSIONS
100
AcDbLine
 10
12.039370078740157
 20
10.039370078740157
 30
0.0
 11
12.118110236220472
 21
10.118110236220472
 31
0.0
  0
TEXT
  5
198
330
17
100
AcDbEntity
  8
TEXT
100
AcDbText
 10
8.188976377952756
 20
10.11023622047244
 30
0.0
 40
0.04251968503937008
  1
0¾"
 72
1
 11
8.188976377952756
 21
10.11023622047244
 31
0.0
100
AcDbText
  0
TEXT
  5
199
330
17
100
AcDbEntity
  8
TEXT
100
AcDbText
 10
8.551181102362204
 20
10.11023622047244
 30
0.0
 40
0.04251968503937008
  1
1"
 72
1
 11
8.551181102362204
 21
10.11023622047244
 31
0.0
100
AcDbText
  0
TEXT
  5
19A
330
17
100
AcDbEntity
  8
TEXT
100
AcDbText
 10
10.05511811023622
 20
10.11023622047244
 30
0.0
 40
0.042519685039368864
  1
6½"
 72
1
 11
10.05511811023622
 21
10.11023622047244
 31
0.0
100
AcDbText
  0
TEXT
  5
19B
330
17
100
AcDbEntity
  8
TEXT
100
AcDbText
 10
11.559055118110237
 20
10.11023622047244
 30
0.0
 40
0.04251968503937008
  1
1"
 72
1
 11
11.559055118110237
 21
10.11023622047244
 31
0.0
100
AcDbText
  0
TEXT
  5
19C
330
17
100
AcDbEntity
  8
TEXT
100
AcDbText
 10
11.921259842519685
 20
10.11023622047244
 30
0.0
 40
0.04251968503937008
  1
0¾"
 72
1
 11
11.921259842519685
 21
10.11023622047244
 31
0.0
100
AcDbText
  0
LINE
  5
19D
330
17
100
AcDbEntity
  8
DIMENSIONS
100
AcDbLine
 10
7.97244094488189
 20
10.31496062992126
 30
0.0
 11
12.137795275590552
 21
10.31496062992126
 31
0.0
  0
LINE
  5
19E
330
17
100
AcDbEntity
  8
DIMENSIONS
100
AcDbLine
 10
8.031496062992126
 20
10.118110236220472
 30
0.0
 11
8.031496062992126
 21
10.26771653543307
 31
0.0
  0
LINE
  5
19F
330
17
100
AcDbEntity
  8
DIMENSIONS
100
AcDbLine
 10
7.9921259842519685
 20
10.275590551181102
 30
0.0
 11
8.070866141732283
 21
10.354330708661417
 31
0.0
  0
LINE
  5
1A0
330
17
100
AcDbEntity
  8
DIMENSIONS
100
AcDbLine
 10
12.078740157480315
 20
10.118110236220472
 30
0.0
 11
12.078740157480315
 21
10.26771653543307
 31
0.0
  0
LINE
  5
1A1
330
17
100
AcDbEntity
  8
DIMENSIONS
100
AcDbLine
 10
12.039370078740157
 20
10.275590551181102
 30
0.0
 11
12.118110236220472
 21
10.354330708661417
 31
0.0
  0
TEXT
  5
1A2
330
17
100
AcDbEntity
  8
TEXT
100
AcDbText
 10
10.05511811023622
 20
10.346456692913387
 30
0.0
 40
0.04818897637795138
  1
10⅛" PANEL OPENING
 72
1
 11
10.05511811023622
 21
10.346456692913387
 31
0.0
100
AcDbText
  0
LINE
  5
1A3
330
17
100
AcDbEntity
  8
DIMENSIONS
100
AcDbLine
 10
13.023622047244094
 20
9.38976377952756
 30
0.0
 11
13.023622047244094
 21
7.602362204724409
 31
0.0
  0
LINE
  5
1A4
330
17
100
AcDbEntity
  8
DIMENSIONS
100
AcDbLine
 10
12.118110236220472
 20
9.330708661417322
 30
0.0
 11
13.070866141732283
 21
9.330708661417322
 31
0.0
  0
LINE
  5
1A5
330
17
100
AcDbEntity
  8
DIMENSIONS
100
AcDbLine
 10
12.984251968503937
 20
9.291338582677165
 30
0.0
 11
13.062992125984252
 21
9.37007874015748
 31
0.0
  0
LINE
  5
1A6
330
17
100
AcDbEntity
  8
DIMENSIONS
100
AcDbLine
 10
12.118110236220472
 20
8.606299212598424
 30
0.0
 11
13.070866141732283
 21
8.606299212598424
 31
0.0
  0
LINE
  5
1A7
330
17
100
AcDbEntity
  8
DIMENSIONS
100
AcDbLine
 10
12.984251968503937
 20
8.566929133858267
 30
0.0
 11
13.062992125984252
 21
8.645669291338582
 31
0.0
  0
LINE
  5
1A8
330
17
100
AcDbEntity
  8
DIMENSIONS
100
AcDbLine
 10
12.118110236220472
 20
8.070866141732283
 30
0.0
 11
13.070866141732283
 21
8.070866141732283
 31
0.0
  0
LINE
  5
1A9
330
17
100
AcDbEntity
  8
DIMENSIONS
100
AcDbLine
 10
12.984251968503937
 20
8.031496062992126
 30
0.0
 11
13.062992125984252
 21
8.11023622047244
 31
0.0
  0
LINE
  5
1AA
330
17
100
AcDbEntity
  8
DIMENSIONS
100
AcDbLine
 10
12.118110236220472
 20
7.661417322834645
 30
0.0
 11
13.070866141732283
 21
7.661417322834645
 31
0.0
  0
LINE
  5
1AB
330
17
100
AcDbEntity
  8
DIMENSIONS
100
AcDbLine
 10
12.984251968503937
 20
7.622047244094488
 30
0.0
 11
13.062992125984252
 21
7.700787401574803
 31
0.0
  0
TEXT
  5
1AC
330
17
100
AcDbEntity
  8
TEXT
100
AcDbText
 10
12.992125984251969
 20
8.968503937007874
 30
0.0
 40
0.04251968503937008
  1
1¾"
 50
90.0
 72
1
 11
12.992125984251969
 21
8.968503937007874
 31
0.0
100
AcDbText
  0
TEXT
  5
1AD
330
17
100
AcDbEntity
  8
TEXT
100
AcDbText
 10
12.992125984251969
 20
8.338582677165356
 30
0.0
 40
0.04251968503937008
  1
1⅜"
 50
90.0
 72
1
 11
12.992125984251969
 21
8.338582677165356
 31
0.0
100
AcDbText
  0
TEXT
  5
1AE
330
17
100
AcDbEntity
  8
TEXT
100
AcDbText
 10
12.992125984251969
 20
7.866141732283465
 30
0.0
 40
0.04251968503937008
  1
R26
 50
90.0
 72
1
 11
12.992125984251969
 21
7.866141732283465
 31
0.0
100
AcDbText
  0
LINE
  5
1AF
330
17
100
AcDbEntity
  8
GEOMETRY
100
AcDbLine
 10
8.69763779527559
 20
8.211023622047245
 30
0.0
 11
7.165354330708661
 21
9.173228346456693
 31
0.0
  0
TEXT
  5
1B0
330
17
100
AcDbEntity
  8
TEXT
100
AcDbText
 10
7.125984251968504
 20
9.165354330708661
 30
0.0
 40
0.048188976377952754
  1
ROUNDEL Ø18
 72
2
 11
7.125984251968504
 21
9.165354330708661
 31
0.0
100
AcDbText
  0
TEXT
  5
1B1
330
17
100
AcDbEntity
  8
TEXT
100
AcDbText
 10
7.125984251968504
 20
9.0748031496063
 30
0.0
 40
0.04110236220472441
  1
CARVED BOSS, 4 PER PANEL
 72
2
 11
7.125984251968504
 21
9.0748031496063
 31
0.0
100
AcDbText
  0
LINE
  5
1B2
330
17
100
AcDbEntity
  8
GEOMETRY
100
AcDbLine
 10
9.740157480314961
 20
8.559055118110237
 30
0.0
 11
7.165354330708661
 21
8.464566929133857
 31
0.0
  0
TEXT
  5
1B3
330
17
100
AcDbEntity
  8
TEXT
100
AcDbText
 10
7.125984251968504
 20
8.456692913385828
 30
0.0
 40
0.048188976377952754
  1
ROUNDED CROWN
 72
2
 11
7.125984251968504
 21
8.456692913385828
 31
0.0
100
AcDbText
  0
TEXT
  5
1B4
330
17
100
AcDbEntity
  8
TEXT
100
AcDbText
 10
7.125984251968504
 20
8.366141732283465
 30
0.0
 40
0.04110236220472441
  1
SHAPED BEAD LINE
 72
2
 11
7.125984251968504
 21
8.366141732283465
 31
0.0
100
AcDbText
  0
LINE
  5
1B5
330
17
100
AcDbEntity
  8
GEOMETRY
100
AcDbLine
 10
8.878740157480316
 20
7.784251968503937
 30
0.0
 11
7.165354330708661
 21
7.755905511811023
 31
0.0
  0
TEXT
  5
1B6
330
17
100
AcDbEntity
  8
TEXT
100
AcDbText
 10
7.125984251968504
 20
7.748031496062993
 30
0.0
 40
0.048188976377952754
  1
CONCAVE SHOULDER R26
 72
2
 11
7.125984251968504
 21
7.748031496062993
 31
0.0
100
AcDbText
  0
TEXT
  5
1B7
330
17
100
AcDbEntity
  8
TEXT
100
AcDbText
 10
7.125984251968504
 20
7.65748031496063
 30
0.0
 40
0.04110236220472441
  1
WRAPS THE ROUNDEL
 72
2
 11
7.125984251968504
 21
7.65748031496063
 31
0.0
100
AcDbText
  0
LINE
  5
1B8
330
17
100
AcDbEntity
  8
GEOMETRY
100
AcDbLine
 10
8.188976377952756
 20
6.968503937007874
 30
0.0
 11
7.165354330708661
 21
7.125984251968504
 31
0.0
  0
TEXT
  5
1B9
330
17
100
AcDbEntity
  8
TEXT
100
AcDbText
 10
7.125984251968504
 20
7.118110236220473
 30
0.0
 40
0.048188976377952754
  1
OVOLO STICKING 20
 72
2
 11
7.125984251968504
 21
7.118110236220473
 31
0.0
100
AcDbText
  0
TEXT
  5
1BA
330
17
100
AcDbEntity
  8
TEXT
100
AcDbText
 10
7.125984251968504
 20
7.02755905511811
 30
0.0
 40
0.04110236220472441
  1
MITRED AT CORNERS
 72
2
 11
7.125984251968504
 21
7.02755905511811
 31
0.0
100
AcDbText
  0
LINE
  5
1BB
330
17
100
AcDbEntity
  8
GEOMETRY
100
AcDbLine
 10
10.842519685039369
 20
6.968503937007874
 30
0.0
 11
12.905511811023622
 21
6.811023622047244
 31
0.0
  0
TEXT
  5
1BC
330
17
100
AcDbEntity
  8
TEXT
100
AcDbText
 10
12.94488188976378
 20
6.803149606299213
 30
0.0
 40
0.048188976377952754
  1
SUNK FIELD
 11
12.94488188976378
 21
6.803149606299213
 31
0.0
100
AcDbText
  0
TEXT
  5
1BD
330
17
100
AcDbEntity
  8
TEXT
100
AcDbText
 10
12.94488188976378
 20
6.71259842519685
 30
0.0
 40
0.04110236220472441
  1
PANEL 18 THK
 11
12.94488188976378
 21
6.71259842519685
 31
0.0
100
AcDbText
  0
POLYLINE
  5
1BE
330
17
100
AcDbEntity
  8
GEOMETRY
100
AcDb2dPolyline
 66
1
 10
0.0
 20
0.0
 30
0.0
 70
0
  0
VERTEX
  5
1BF
330
1BE
100
AcDbEntity
  8
GEOMETRY
100
AcDbVertex
100
AcDb2dVertex
 10
7.559055118110236
 20
5.393700787401576
 30
0.0
 70
0
  0
VERTEX
  5
1C0
330
1BE
100
AcDbEntity
  8
GEOMETRY
100
AcDbVertex
100
AcDb2dVertex
 10
8.346456692913385
 20
5.393700787401576
 30
0.0
 70
0
  0
VERTEX
  5
1C1
330
1BE
100
AcDbEntity
  8
GEOMETRY
100
AcDbVertex
100
AcDb2dVertex
 10
8.346456692913385
 20
5.374015748031496
 30
0.0
 70
0
  0
SEQEND
  5
1C2
330
1BE
100
AcDbEntity
  8
GEOMETRY
  0
SPLINE
  5
1C3
330
17
100
AcDbEntity
  8
GEOMETRY
100
AcDbSpline
 70
0
 71
3
 72
8
 73
4
 74
0
 40
0.0
 40
0.0
 40
0.0
 40
0.0
 40
1.0
 40
1.0
 40
1.0
 40
1.0
 10
8.346456692913385
 20
5.374015748031496
 30
0.0
 10
8.47769028871391
 20
5.374015748031496
 30
0.0
 10
8.543307086614172
 20
5.336286089238845
 30
0.0
 10
8.543307086614172
 20
5.2608267716535435
 30
0.0
  0
POLYLINE
  5
1C4
330
17
100
AcDbEntity
  8
GEOMETRY
100
AcDb2dPolyline
 66
1
 10
0.0
 20
0.0
 30
0.0
 70
0
  0
VERTEX
  5
1C5
330
1C4
100
AcDbEntity
  8
GEOMETRY
100
AcDbVertex
100
AcDb2dVertex
 10
8.543307086614172
 20
5.2608267716535435
 30
0.0
 70
0
  0
VERTEX
  5
1C6
330
1C4
100
AcDbEntity
  8
GEOMETRY
100
AcDbVertex
100
AcDb2dVertex
 10
8.543307086614172
 20
5.083661417322835
 30
0.0
 70
0
  0
SEQEND
  5
1C7
330
1C4
100
AcDbEntity
  8
GEOMETRY
  0
SPLINE
  5
1C8
330
17
100
AcDbEntity
  8
GEOMETRY
100
AcDbSpline
 70
0
 71
3
 72
8
 73
4
 74
0
 40
0.0
 40
0.0
 40
0.0
 40
0.0
 40
1.0
 40
1.0
 40
1.0
 40
1.0
 10
8.543307086614172
 20
5.083661417322835
 30
0.0
 10
8.543307086614172
 20
5.008202099737534
 30
0.0
 10
8.47769028871391
 20
4.970472440944882
 30
0.0
 10
8.346456692913385
 20
4.970472440944882
 30
0.0
  0
POLYLINE
  5
1C9
330
17
100
AcDbEntity
  8
GEOMETRY
100
AcDb2dPolyline
 66
1
 10
0.0
 20
0.0
 30
0.0
 70
0
  0
VERTEX
  5
1CA
330
1C9
100
AcDbEntity
  8
GEOMETRY
100
AcDbVertex
100
AcDb2dVertex
 10
8.346456692913385
 20
4.970472440944882
 30
0.0
 70
0
  0
VERTEX
  5
1CB
330
1C9
100
AcDbEntity
  8
GEOMETRY
100
AcDbVertex
100
AcDb2dVertex
 10
8.346456692913385
 20
4.950787401574804
 30
0.0
 70
0
  0
VERTEX
  5
1CC
330
1C9
100
AcDbEntity
  8
GEOMETRY
100
AcDbVertex
100
AcDb2dVertex
 10
7.559055118110236
 20
4.950787401574804
 30
0.0
 70
0
  0
VERTEX
  5
1CD
330
1C9
100
AcDbEntity
  8
GEOMETRY
100
AcDbVertex
100
AcDb2dVertex
 10
7.559055118110236
 20
5.393700787401576
 30
0.0
 70
0
  0
SEQEND
  5
1CE
330
1C9
100
AcDbEntity
  8
GEOMETRY
  0
LWPOLYLINE
  5
1CF
330
17
100
AcDbEntity
  8
GEOMETRY
  6
DASHED
100
AcDbPolyline
 90
5
 70
0
 10
8.543307086614172
 20
5.2608267716535435
 10
8.661417322834646
 20
5.2608267716535435
 10
8.661417322834646
 20
5.083661417322835
 10
8.543307086614172
 20
5.083661417322835
 10
8.543307086614172
 20
5.2608267716535435
  0
POLYLINE
  5
1D0
330
17
100
AcDbEntity
  8
GEOMETRY
100
AcDb2dPolyline
 66
1
 10
0.0
 20
0.0
 30
0.0
 70
0
  0
VERTEX
  5
1D1
330
1D0
100
AcDbEntity
  8
GEOMETRY
100
AcDbVertex
100
AcDb2dVertex
 10
12.1751968503937
 20
5.393700787401576
 30
0.0
 70
0
  0
VERTEX
  5
1D2
330
1D0
100
AcDbEntity
  8
GEOMETRY
100
AcDbVertex
100
AcDb2dVertex
 10
11.269685039370078
 20
5.393700787401576
 30
0.0
 70
0
  0
VERTEX
  5
1D3
330
1D0
100
AcDbEntity
  8
GEOMETRY
100
AcDbVertex
100
AcDb2dVertex
 10
11.269685039370078
 20
5.374015748031496
 30
0.0
 70
0
  0
SEQEND
  5
1D4
330
1D0
100
AcDbEntity
  8
GEOMETRY
  0
SPLINE
  5
1D5
330
17
100
AcDbEntity
  8
GEOMETRY
100
AcDbSpline
 70
0
 71
3
 72
8
 73
4
 74
0
 40
0.0
 40
0.0
 40
0.0
 40
0.0
 40
1.0
 40
1.0
 40
1.0
 40
1.0
 10
11.269685039370078
 20
5.374015748031496
 30
0.0
 10
11.138451443569553
 20
5.374015748031496
 30
0.0
 10
11.07283464566929
 20
5.336286089238845
 30
0.0
 10
11.07283464566929
 20
5.2608267716535435
 30
0.0
  0
POLYLINE
  5
1D6
330
17
100
AcDbEntity
  8
GEOMETRY
100
AcDb2dPolyline
 66
1
 10
0.0
 20
0.0
 30
0.0
 70
0
  0
VERTEX
  5
1D7
330
1D6
100
AcDbEntity
  8
GEOMETRY
100
AcDbVertex
100
AcDb2dVertex
 10
11.07283464566929
 20
5.2608267716535435
 30
0.0
 70
0
  0
VERTEX
  5
1D8
330
1D6
100
AcDbEntity
  8
GEOMETRY
100
AcDbVertex
100
AcDb2dVertex
 10
11.07283464566929
 20
5.083661417322835
 30
0.0
 70
0
  0
SEQEND
  5
1D9
330
1D6
100
AcDbEntity
  8
GEOMETRY
  0
SPLINE
  5
1DA
330
17
100
AcDbEntity
  8
GEOMETRY
100
AcDbSpline
 70
0
 71
3
 72
8
 73
4
 74
0
 40
0.0
 40
0.0
 40
0.0
 40
0.0
 40
1.0
 40
1.0
 40
1.0
 40
1.0
 10
11.07283464566929
 20
5.083661417322835
 30
0.0
 10
11.07283464566929
 20
5.008202099737534
 30
0.0
 10
11.138451443569553
 20
4.970472440944882
 30
0.0
 10
11.269685039370078
 20
4.970472440944882
 30
0.0
  0
POLYLINE
  5
1DB
330
17
100
AcDbEntity
  8
GEOMETRY
100
AcDb2dPolyline
 66
1
 10
0.0
 20
0.0
 30
0.0
 70
0
  0
VERTEX
  5
1DC
330
1DB
100
AcDbEntity
  8
GEOMETRY
100
AcDbVertex
100
AcDb2dVertex
 10
11.269685039370078
 20
4.970472440944882
 30
0.0
 70
0
  0
VERTEX
  5
1DD
330
1DB
100
AcDbEntity
  8
GEOMETRY
100
AcDbVertex
100
AcDb2dVertex
 10
11.269685039370078
 20
4.950787401574804
 30
0.0
 70
0
  0
VERTEX
  5
1DE
330
1DB
100
AcDbEntity
  8
GEOMETRY
100
AcDbVertex
100
AcDb2dVertex
 10
12.057086614173228
 20
4.950787401574804
 30
0.0
 70
0
  0
VERTEX
  5
1DF
330
1DB
100
AcDbEntity
  8
GEOMETRY
100
AcDbVertex
100
AcDb2dVertex
 10
12.057086614173228
 20
5.17224409448819
 30
0.0
 70
0
  0
VERTEX
  5
1E0
330
1DB
100
AcDbEntity
  8
GEOMETRY
100
AcDbVertex
100
AcDb2dVertex
 10
12.1751968503937
 20
5.17224409448819
 30
0.0
 70
0
  0
VERTEX
  5
1E1
330
1DB
100
AcDbEntity
  8
GEOMETRY
100
AcDbVertex
100
AcDb2dVertex
 10
12.1751968503937
 20
5.393700787401576
 30
0.0
 70
0
  0
SEQEND
  5
1E2
330
1DB
100
AcDbEntity
  8
GEOMETRY
  0
LWPOLYLINE
  5
1E3
330
17
100
AcDbEntity
  8
GEOMETRY
  6
DASHED
100
AcDbPolyline
 90
5
 70
0
 10
10.954724409448819
 20
5.2608267716535435
 10
11.07283464566929
 20
5.2608267716535435
 10
11.07283464566929
 20
5.083661417322835
 10
10.954724409448819
 20
5.083661417322835
 10
10.954724409448819
 20
5.2608267716535435
  0
LWPOLYLINE
  5
1E4
330
17
100
AcDbEntity
  8
GEOMETRY
100
AcDbPolyline
 90
5
 70
0
 10
8.553149606299213
 20
5.2608267716535435
 10
11.062992125984252
 20
5.2608267716535435
 10
11.062992125984252
 20
5.083661417322835
 10
8.553149606299213
 20
5.083661417322835
 10
8.553149606299213
 20
5.2608267716535435
  0
LWPOLYLINE
  5
1E5
330
17
100
AcDbEntity
  8
GEOMETRY
100
AcDbPolyline
 90
3
 70
0
 10
8.966535433070867
 20
5.2608267716535435
 10
8.996062992125983
 20
5.236220472440945
 10
9.025590551181102
 20
5.2608267716535435
  0
LWPOLYLINE
  5
1E6
330
17
100
AcDbEntity
  8
GEOMETRY
100
AcDbPolyline
 90
3
 70
0
 10
10.590551181102363
 20
5.2608267716535435
 10
10.62007874015748
 20
5.236220472440945
 10
10.649606299212598
 20
5.2608267716535435
  0
LWPOLYLINE
  5
1E7
330
17
100
AcDbEntity
  8
GEOMETRY
100
AcDbPolyline
 90
17
 70
0
 10
12.057086614173228
 20
5.393700787401575
 10
12.844488188976378
 20
5.393700787401575
 10
12.844488188976378
 20
5.374015748031496
 10
12.930610236220472
 20
5.366941437007874
 10
12.992125984251969
 20
5.345718503937007
 10
13.029035433070867
 20
5.310346948818897
 10
13.041338582677165
 20
5.2608267716535435
 10
13.041338582677165
 20
5.083661417322834
 10
13.029035433070867
 20
5.0341412401574805
 10
12.992125984251969
 20
4.99876968503937
 10
12.930610236220472
 20
4.977546751968504
 10
12.844488188976378
 20
4.9704724409448815
 10
12.844488188976378
 20
4.950787401574803
 10
11.938976377952756
 20
4.950787401574803
 10
11.938976377952756
 20
5.172244094488189
 10
12.057086614173228
 20
5.172244094488189
 10
12.057086614173228
 20
5.393700787401575
  0
LWPOLYLINE
  5
1E8
330
17
100
AcDbEntity
  8
GEOMETRY
  6
DASHED
100
AcDbPolyline
 90
5
 70
0
 10
13.041338582677165
 20
5.2608267716535435
 10
13.159448818897637
 20
5.2608267716535435
 10
13.159448818897637
 20
5.083661417322834
 10
13.041338582677165
 20
5.083661417322834
 10
13.041338582677165
 20
5.2608267716535435
  0
LWPOLYLINE
  5
1E9
330
17
100
AcDbEntity
  8
GEOMETRY
100
AcDbPolyline
 90
2
 70
0
 10
13.051181102362204
 20
5.2608267716535435
 10
14.51771653543307
 20
5.2608267716535435
  0
LWPOLYLINE
  5
1EA
330
17
100
AcDbEntity
  8
GEOMETRY
100
AcDbPolyline
 90
3
 70
0
 10
14.51771653543307
 20
5.083661417322834
 10
13.051181102362204
 20
5.083661417322834
 10
13.051181102362204
 20
5.2608267716535435
  0
CIRCLE
  5
1EB
330
17
100
AcDbEntity
  8
GEOMETRY
100
AcDbCircle
 10
11.988188976377952
 20
5.433070866141732
 30
0.0
 40
1.25
  0
LWPOLYLINE
  5
1EC
330
17
100
AcDbEntity
  8
GEOMETRY
100
AcDbPolyline
 90
6
 70
0
 10
14.51771653543307
 20
5.511811023622048
 10
14.51771653543307
 20
5.250984251968505
 10
14.438976377952756
 20
5.201771653543307
 10
14.596456692913385
 20
5.142716535433071
 10
14.51771653543307
 20
5.093503937007875
 10
14.51771653543307
 20
4.8326771653543314
  0
TEXT
  5
1ED
330
17
100
AcDbEntity
  8
TEXT
100
AcDbText
 10
6.692913385826771
 20
6.653543307086614
 30
0.0
 40
0.09070866141732283
  1
SECTION B–B
 11
6.692913385826771
 21
6.653543307086614
 31
0.0
100
AcDbText
  0
LINE
  5
1EE
330
17
100
AcDbEntity
  8
GEOMETRY
100
AcDbLine
 10
6.692913385826771
 20
6.594488188976378
 30
0.0
 11
9.05511811023622
 21
6.594488188976378
 31
0.0
  0
TEXT
  5
1EF
330
17
100
AcDbEntity
  8
TEXT
100
AcDbText
 10
6.692913385826771
 20
6.464566929133857
 30
0.0
 40
0.048188976377952754
  1
HORIZONTAL THROUGH UPPER PANELS · SCALE 1:4
 11
6.692913385826771
 21
6.464566929133857
 31
0.0
100
AcDbText
  0
TEXT
  5
1F0
330
17
100
AcDbEntity
  8
TEXT
100
AcDbText
 10
7.559055118110236
 20
4.399606299212598
 30
0.0
 40
0.04110236220472441
  1
↑ ROOM SIDE (FACE SHOWN IN ELEVATION)
 11
7.559055118110236
 21
4.399606299212598
 31
0.0
100
AcDbText
  0
LINE
  5
1F1
330
17
100
AcDbEntity
  8
DIMENSIONS
100
AcDbLine
 10
7.322834645669292
 20
5.452755905511811
 30
0.0
 11
7.322834645669292
 21
4.891732283464567
 31
0.0
  0
LINE
  5
1F2
330
17
100
AcDbEntity
  8
DIMENSIONS
100
AcDbLine
 10
7.519685039370079
 20
5.393700787401575
 30
0.0
 11
7.37007874015748
 21
5.393700787401575
 31
0.0
  0
LINE
  5
1F3
330
17
100
AcDbEntity
  8
DIMENSIONS
100
AcDbLine
 10
7.283464566929133
 20
5.354330708661418
 30
0.0
 11
7.362204724409449
 21
5.433070866141732
 31
0.0
  0
LINE
  5
1F4
330
17
100
AcDbEntity
  8
DIMENSIONS
100
AcDbLine
 10
7.519685039370079
 20
5.260629921259842
 30
0.0
 11
7.37007874015748
 21
5.260629921259842
 31
0.0
  0
LINE
  5
1F5
330
17
100
AcDbEntity
  8
DIMENSIONS
100
AcDbLine
 10
7.283464566929133
 20
5.221259842519685
 30
0.0
 11
7.362204724409449
 21
5.3
 31
0.0
  0
LINE
  5
1F6
330
17
100
AcDbEntity
  8
DIMENSIONS
100
AcDbLine
 10
7.519685039370079
 20
5.083464566929134
 30
0.0
 11
7.37007874015748
 21
5.083464566929134
 31
0.0
  0
LINE
  5
1F7
330
17
100
AcDbEntity
  8
DIMENSIONS
100
AcDbLine
 10
7.283464566929133
 20
5.044094488188977
 30
0.0
 11
7.362204724409449
 21
5.1228346456692915
 31
0.0
  0
LINE
  5
1F8
330
17
100
AcDbEntity
  8
DIMENSIONS
100
AcDbLine
 10
7.519685039370079
 20
4.950787401574803
 30
0.0
 11
7.37007874015748
 21
4.950787401574803
 31
0.0
  0
LINE
  5
1F9
330
17
100
AcDbEntity
  8
DIMENSIONS
100
AcDbLine
 10
7.283464566929133
 20
4.911417322834645
 30
0.0
 11
7.362204724409449
 21
4.99015748031496
 31
0.0
  0
TEXT
  5
1FA
330
17
100
AcDbEntity
  8
TEXT
100
AcDbText
 10
7.291338582677165
 20
5.172047244094489
 30
0.0
 40
0.03968503937007874
  1
0¾"
 50
90.0
 72
1
 11
7.291338582677165
 21
5.172047244094489
 31
0.0
100
AcDbText
  0
LINE
  5
1FB
330
17
100
AcDbEntity
  8
DIMENSIONS
100
AcDbLine
 10
7.086614173228346
 20
5.452755905511811
 30
0.0
 11
7.086614173228346
 21
4.891732283464567
 31
0.0
  0
LINE
  5
1FC
330
17
100
AcDbEntity
  8
DIMENSIONS
100
AcDbLine
 10
7.519685039370079
 20
5.393700787401575
 30
0.0
 11
7.133858267716535
 21
5.393700787401575
 31
0.0
  0
LINE
  5
1FD
330
17
100
AcDbEntity
  8
DIMENSIONS
100
AcDbLine
 10
7.047244094488189
 20
5.354330708661418
 30
0.0
 11
7.125984251968504
 21
5.433070866141732
 31
0.0
  0
LINE
  5
1FE
330
17
100
AcDbEntity
  8
DIMENSIONS
100
AcDbLine
 10
7.519685039370079
 20
4.950787401574803
 30
0.0
 11
7.133858267716535
 21
4.950787401574803
 31
0.0
  0
LINE
  5
1FF
330
17
100
AcDbEntity
  8
DIMENSIONS
100
AcDbLine
 10
7.047244094488189
 20
4.911417322834645
 30
0.0
 11
7.125984251968504
 21
4.99015748031496
 31
0.0
  0
TEXT
  5
200
330
17
100
AcDbEntity
  8
TEXT
100
AcDbText
 10
7.0551181102362195
 20
5.172047244094489
 30
0.0
 40
0.04251968503937008
  1
1¾"
 50
90.0
 72
1
 11
7.0551181102362195
 21
5.172047244094489
 31
0.0
100
AcDbText
  0
LINE
  5
201
330
17
100
AcDbEntity
  8
DIMENSIONS
100
AcDbLine
 10
7.5
 20
4.675196850393701
 30
0.0
 11
12.116141732283465
 21
4.675196850393701
 31
0.0
  0
LINE
  5
202
330
17
100
AcDbEntity
  8
DIMENSIONS
100
AcDbLine
 10
7.559055118110236
 20
4.911417322834645
 30
0.0
 11
7.559055118110236
 21
4.627952755905512
 31
0.0
  0
LINE
  5
203
330
17
100
AcDbEntity
  8
DIMENSIONS
100
AcDbLine
 10
7.519685039370079
 20
4.6358267716535435
 30
0.0
 11
7.5984251968503935
 21
4.714566929133858
 31
0.0
  0
LINE
  5
204
330
17
100
AcDbEntity
  8
DIMENSIONS
100
AcDbLine
 10
8.543307086614172
 20
4.911417322834645
 30
0.0
 11
8.543307086614172
 21
4.627952755905512
 31
0.0
  0
LINE
  5
205
330
17
100
AcDbEntity
  8
DIMENSIONS
100
AcDbLine
 10
8.503937007874015
 20
4.6358267716535435
 30
0.0
 11
8.582677165354331
 21
4.714566929133858
 31
0.0
  0
LINE
  5
206
330
17
100
AcDbEntity
  8
DIMENSIONS
100
AcDbLine
 10
11.07283464566929
 20
4.911417322834645
 30
0.0
 11
11.07283464566929
 21
4.627952755905512
 31
0.0
  0
LINE
  5
207
330
17
100
AcDbEntity
  8
DIMENSIONS
100
AcDbLine
 10
11.033464566929133
 20
4.6358267716535435
 30
0.0
 11
11.112204724409448
 21
4.714566929133858
 31
0.0
  0
LINE
  5
208
330
17
100
AcDbEntity
  8
DIMENSIONS
100
AcDbLine
 10
12.057086614173228
 20
4.911417322834645
 30
0.0
 11
12.057086614173228
 21
4.627952755905512
 31
0.0
  0
LINE
  5
209
330
17
100
AcDbEntity
  8
DIMENSIONS
100
AcDbLine
 10
12.01771653543307
 20
4.6358267716535435
 30
0.0
 11
12.096456692913385
 21
4.714566929133858
 31
0.0
  0
TEXT
  5
20A
330
17
100
AcDbEntity
  8
TEXT
100
AcDbText
 10
8.051181102362204
 20
4.706692913385827
 30
0.0
 40
0.048188976377952754
  1
3⅞"
 72
1
 11
8.051181102362204
 21
4.706692913385827
 31
0.0
100
AcDbText
  0
TEXT
  5
20B
330
17
100
AcDbEntity
  8
TEXT
100
AcDbText
 10
9.808267716535433
 20
4.706692913385827
 30
0.0
 40
0.048188976377952754
  1
10⅛"
 72
1
 11
9.808267716535433
 21
4.706692913385827
 31
0.0
100
AcDbText
  0
TEXT
  5
20C
330
17
100
AcDbEntity
  8
TEXT
100
AcDbText
 10
11.56496062992126
 20
4.706692913385827
 30
0.0
 40
0.048188976377952754
  1
3⅞"
 72
1
 11
11.56496062992126
 21
4.706692913385827
 31
0.0
100
AcDbText
  0
LINE
  5
20D
330
17
100
AcDbEntity
  8
GEOMETRY
100
AcDbLine
 10
8.484251968503937
 20
5.3641732283464565
 30
0.0
 11
8.248031496062993
 21
5.866141732283465
 31
0.0
  0
TEXT
  5
20E
330
17
100
AcDbEntity
  8
TEXT
100
AcDbText
 10
8.208661417322835
 20
5.858267716535433
 30
0.0
 40
0.048188976377952754
  1
OVOLO STICKING
 72
2
 11
8.208661417322835
 21
5.858267716535433
 31
0.0
100
AcDbText
  0
TEXT
  5
20F
330
17
100
AcDbEntity
  8
TEXT
100
AcDbText
 10
8.208661417322835
 20
5.76771653543307
 30
0.0
 40
0.04110236220472441
  1
20 × 13.5 BOTH FACES
 72
2
 11
8.208661417322835
 21
5.76771653543307
 31
0.0
100
AcDbText
  0
LINE
  5
210
330
17
100
AcDbEntity
  8
GEOMETRY
100
AcDbLine
 10
8.582677165354331
 20
5.172047244094489
 30
0.0
 11
10.019685039370078
 21
5.590551181102362
 31
0.0
  0
TEXT
  5
211
330
17
100
AcDbEntity
  8
TEXT
100
AcDbText
 10
10.059055118110235
 20
5.5826771653543314
 30
0.0
 40
0.048188976377952754
  1
PANEL 18 IN 12 GROOVE
 11
10.059055118110235
 21
5.5826771653543314
 31
0.0
100
AcDbText
  0
TEXT
  5
212
330
17
100
AcDbEntity
  8
TEXT
100
AcDbText
 10
10.059055118110235
 20
5.4921259842519685
 30
0.0
 40
0.04110236220472441
  1
LOOSE — ALLOWS MOVEMENT
 11
10.059055118110235
 21
5.4921259842519685
 31
0.0
100
AcDbText
  0
LINE
  5
213
330
17
100
AcDbEntity
  8
GEOMETRY
100
AcDbLine
 10
8.996062992125983
 20
5.2507874015748035
 30
0.0
 11
9.291338582677165
 21
5.866141732283465
 31
0.0
  0
TEXT
  5
214
330
17
100
AcDbEntity
  8
TEXT
100
AcDbText
 10
9.330708661417322
 20
5.858267716535433
 30
0.0
 40
0.048188976377952754
  1
V-GROOVE (SHAPED BEAD)
 11
9.330708661417322
 21
5.858267716535433
 31
0.0
100
AcDbText
  0
TEXT
  5
215
330
17
100
AcDbEntity
  8
TEXT
100
AcDbText
 10
9.330708661417322
 20
5.76771653543307
 30
0.0
 40
0.04110236220472441
  1
3 WIDE × 2.5 DEEP, BOTH FACES
 11
9.330708661417322
 21
5.76771653543307
 31
0.0
100
AcDbText
  0
LINE
  5
216
330
17
100
AcDbEntity
  8
GEOMETRY
100
AcDbLine
 10
11.988188976377952
 20
5.47244094488189
 30
0.0
 11
12.253937007874015
 21
5.866141732283465
 31
0.0
  0
TEXT
  5
217
330
17
100
AcDbEntity
  8
TEXT
100
AcDbText
 10
12.293307086614172
 20
5.858267716535433
 30
0.0
 40
0.048188976377952754
  1
MEETING BEAD Ø10
 11
12.293307086614172
 21
5.858267716535433
 31
0.0
100
AcDbText
  0
TEXT
  5
218
330
17
100
AcDbEntity
  8
TEXT
100
AcDbText
 10
12.293307086614172
 20
5.76771653543307
 30
0.0
 40
0.04110236220472441
  1
12 REBATE, HALF THICKNESS
 11
12.293307086614172
 21
5.76771653543307
 31
0.0
100
AcDbText
  0
LWPOLYLINE
  5
219
330
17
100
AcDbEntity
  8
GEOMETRY
100
AcDbPolyline
 90
2
 70
0
 10
9.740157480314961
 20
3.4251968503936996
 10
9.740157480314961
 20
0.6692913385826772
  0
LWPOLYLINE
  5
21A
330
17
100
AcDbEntity
  8
GEOMETRY
100
AcDbPolyline
 90
2
 70
0
 10
6.141732283464567
 20
0.6692913385826772
 10
6.141732283464567
 20
3.4251968503936996
  0
LWPOLYLINE
  5
21B
330
17
100
AcDbEntity
  8
GEOMETRY
100
AcDbPolyline
 90
2
 70
0
 10
6.929133858267717
 20
2.9527559055118098
 10
6.929133858267717
 20
1.141732283464567
  0
LWPOLYLINE
  5
21C
330
17
100
AcDbEntity
  8
GEOMETRY
100
AcDbPolyline
 90
2
 70
0
 10
8.952755905511811
 20
2.9527559055118098
 10
8.952755905511811
 20
1.141732283464567
  0
LWPOLYLINE
  5
21D
330
17
100
AcDbEntity
  8
GEOMETRY
100
AcDbPolyline
 90
4
 70
0
 10
8.952755905511811
 20
3.4251968503936996
 10
8.952755905511811
 20
2.9527559055118098
 10
6.929133858267717
 20
2.9527559055118098
 10
6.929133858267717
 20
3.4251968503936996
  0
LWPOLYLINE
  5
21E
330
17
100
AcDbEntity
  8
GEOMETRY
100
AcDbPolyline
 90
4
 70
0
 10
8.795275590551181
 20
3.4251968503936996
 10
8.795275590551181
 20
3.11023622047244
 10
7.086614173228346
 20
3.11023622047244
 10
7.086614173228346
 20
3.4251968503936996
  0
LWPOLYLINE
  5
21F
330
17
100
AcDbEntity
  8
GEOMETRY
100
AcDbPolyline
 90
2
 70
0
 10
6.929133858267717
 20
2.9527559055118098
 10
7.086614173228346
 20
3.11023622047244
  0
LWPOLYLINE
  5
220
330
17
100
AcDbEntity
  8
GEOMETRY
100
AcDbPolyline
 90
2
 70
0
 10
8.952755905511811
 20
2.9527559055118098
 10
8.795275590551181
 20
3.11023622047244
  0
LWPOLYLINE
  5
221
330
17
100
AcDbEntity
  8
GEOMETRY
100
AcDbPolyline
 90
7
 70
0
 10
8.160852141142785
 20
3.4251968503936996
 10
8.095541338582677
 20
3.356791338582677
 10
8.030129798228346
 20
3.3264640748031495
 10
7.940944881889763
 20
3.3149606299212593
 10
7.851759965551181
 20
3.3264640748031495
 10
7.7863484251968496
 20
3.356791338582677
 10
7.721037622636743
 20
3.4251968503936996
  0
LWPOLYLINE
  5
222
330
17
100
AcDbEntity
  8
GEOMETRY
100
AcDbPolyline
 90
3
 70
0
 10
6.929133858267717
 20
1.141732283464567
 10
8.952755905511811
 20
1.141732283464567
 10
8.952755905511811
 20
0.6692913385826772
  0
LWPOLYLINE
  5
223
330
17
100
AcDbEntity
  8
GEOMETRY
100
AcDbPolyline
 90
2
 70
0
 10
6.929133858267717
 20
0.6692913385826772
 10
6.929133858267717
 20
1.141732283464567
  0
LWPOLYLINE
  5
224
330
17
100
AcDbEntity
  8
GEOMETRY
100
AcDbPolyline
 90
3
 70
0
 10
7.086614173228346
 20
0.984251968503937
 10
8.795275590551181
 20
0.984251968503937
 10
8.795275590551181
 20
0.6692913385826772
  0
LWPOLYLINE
  5
225
330
17
100
AcDbEntity
  8
GEOMETRY
100
AcDbPolyline
 90
2
 70
0
 10
7.086614173228346
 20
0.6692913385826772
 10
7.086614173228346
 20
0.984251968503937
  0
LWPOLYLINE
  5
226
330
17
100
AcDbEntity
  8
GEOMETRY
100
AcDbPolyline
 90
2
 70
0
 10
6.929133858267717
 20
1.141732283464567
 10
7.086614173228346
 20
0.984251968503937
  0
LWPOLYLINE
  5
227
330
17
100
AcDbEntity
  8
GEOMETRY
100
AcDbPolyline
 90
2
 70
0
 10
8.952755905511811
 20
1.141732283464567
 10
8.795275590551181
 20
0.984251968503937
  0
LWPOLYLINE
  5
228
330
17
100
AcDbEntity
  8
GEOMETRY
100
AcDbPolyline
 90
7
 70
0
 10
7.721037622636744
 20
0.6692913385826772
 10
7.786348425196851
 20
0.737696850393699
 10
7.851759965551181
 20
0.7680241141732261
 10
7.940944881889763
 20
0.7795275590551163
 10
8.030129798228346
 20
0.7680241141732261
 10
8.095541338582677
 20
0.737696850393699
 10
8.160852141142783
 20
0.6692913385826772
  0
LWPOLYLINE
  5
229
330
17
100
AcDbEntity
  8
GEOMETRY
100
AcDbPolyline
 90
49
 70
0
 10
7.381889763779528
 20
2.047244094488188
 10
7.380029285302115
 20
2.018921713088358
 10
7.374510967238757
 20
1.9912007426383385
 10
7.365429485642778
 20
1.9644345189793857
 10
7.352879516567497
 20
1.9389763779527547
 10
7.337107104242948
 20
1.9153787154035367
 10
7.318467615388908
 20
1.8941308098079408
 10
7.297219709793312
 20
1.8754913209539008
 10
7.2736220472440944
 20
1.8597189086293524
 10
7.248163906217464
 20
1.8471689395540711
 10
7.221397682558511
 20
1.8380874579580915
 10
7.193676712108491
 20
1.8325691398947346
 10
7.165354330708661
 20
1.8307086614173216
 10
7.137031949308832
 20
1.8325691398947346
 10
7.109310978858812
 20
1.8380874579580915
 10
7.0825447551998595
 20
1.8471689395540711
 10
7.057086614173229
 20
1.8597189086293524
 10
7.03348895162401
 20
1.8754913209539008
 10
7.012241046028414
 20
1.8941308098079408
 10
6.993601557174374
 20
1.9153787154035367
 10
6.977829144849826
 20
1.9389763779527547
 10
6.965279175774545
 20
1.9644345189793857
 10
6.956197694178565
 20
1.9912007426383385
 10
6.950679376115208
 20
2.018921713088358
 10
6.948818897637795
 20
2.047244094488188
 10
6.950679376115208
 20
2.0755664758880177
 10
6.956197694178565
 20
2.103287446338037
 10
6.965279175774545
 20
2.13005366999699
 10
6.977829144849826
 20
2.155511811023621
 10
6.993601557174374
 20
2.179109473572839
 10
7.012241046028414
 20
2.2003573791684348
 10
7.03348895162401
 20
2.218996868022475
 10
7.057086614173229
 20
2.2347692803470234
 10
7.0825447551998595
 20
2.2473192494223047
 10
7.109310978858812
 20
2.2564007310182843
 10
7.137031949308832
 20
2.261919049081641
 10
7.165354330708661
 20
2.2637795275590538
 10
7.193676712108491
 20
2.261919049081641
 10
7.221397682558511
 20
2.2564007310182843
 10
7.248163906217464
 20
2.2473192494223047
 10
7.2736220472440944
 20
2.2347692803470234
 10
7.297219709793312
 20
2.218996868022475
 10
7.318467615388908
 20
2.2003573791684348
 10
7.337107104242948
 20
2.179109473572839
 10
7.352879516567497
 20
2.155511811023621
 10
7.365429485642778
 20
2.13005366999699
 10
7.374510967238757
 20
2.103287446338037
 10
7.380029285302115
 20
2.0755664758880177
 10
7.381889763779528
 20
2.047244094488188
  0
LWPOLYLINE
  5
22A
330
17
100
AcDbEntity
  8
GEOMETRY
100
AcDbPolyline
 90
49
 70
0
 10
7.303149606299212
 20
2.047244094488188
 10
7.30196566544995
 20
2.0292207608701145
 10
7.298454008500541
 20
2.0115801433110114
 10
7.292674883848553
 20
1.9945470918916772
 10
7.284688539891556
 20
1.9783464566929123
 10
7.274651550230479
 20
1.9633297623434107
 10
7.262790057323364
 20
1.9498083678734854
 10
7.249268662853439
 20
1.93794687496637
 10
7.234251968503937
 20
1.9279098853052932
 10
7.218051333305172
 20
1.9199235413482953
 10
7.201018281885838
 20
1.914144416696308
 10
7.183377664326735
 20
1.910632759746899
 10
7.165354330708661
 20
1.9094488188976366
 10
7.147330997090588
 20
1.910632759746899
 10
7.129690379531485
 20
1.914144416696308
 10
7.112657328112151
 20
1.9199235413482953
 10
7.096456692913386
 20
1.9279098853052932
 10
7.0814399985638845
 20
1.93794687496637
 10
7.067918604093959
 20
1.9498083678734854
 10
7.056057111186844
 20
1.9633297623434107
 10
7.046020121525767
 20
1.9783464566929123
 10
7.038033777568769
 20
1.9945470918916772
 10
7.032254652916781
 20
2.0115801433110114
 10
7.028742995967373
 20
2.0292207608701145
 10
7.02755905511811
 20
2.047244094488188
 10
7.028742995967373
 20
2.065267428106261
 10
7.032254652916781
 20
2.082908045665364
 10
7.038033777568769
 20
2.0999410970846983
 10
7.046020121525767
 20
2.1161417322834635
 10
7.056057111186844
 20
2.131158426632965
 10
7.067918604093959
 20
2.14467982110289
 10
7.0814399985638845
 20
2.156541314010006
 10
7.096456692913386
 20
2.1665783036710824
 10
7.112657328112151
 20
2.17456464762808
 10
7.129690379531485
 20
2.1803437722800676
 10
7.147330997090588
 20
2.1838554292294767
 10
7.165354330708661
 20
2.185039370078739
 10
7.183377664326735
 20
2.1838554292294767
 10
7.201018281885838
 20
2.1803437722800676
 10
7.218051333305172
 20
2.17456464762808
 10
7.234251968503937
 20
2.1665783036710824
 10
7.249268662853439
 20
2.156541314010006
 10
7.262790057323364
 20
2.14467982110289
 10
7.274651550230479
 20
2.131158426632965
 10
7.284688539891556
 20
2.1161417322834635
 10
7.292674883848553
 20
2.0999410970846983
 10
7.298454008500541
 20
2.082908045665364
 10
7.30196566544995
 20
2.065267428106261
 10
7.303149606299212
 20
2.047244094488188
  0
LWPOLYLINE
  5
22B
330
17
100
AcDbEntity
  8
GEOMETRY
100
AcDbPolyline
 90
49
 70
0
 10
6.606299212598426
 20
2.047244094488188
 10
6.60514909863057
 20
2.0297357132592024
 10
6.601737774736859
 20
2.0125991133446446
 10
6.59612376793207
 20
1.9960527205372922
 10
6.588365605230988
 20
1.9803149606299206
 10
6.578615386703086
 20
1.9657273146904037
 10
6.567092793593315
 20
1.9525922457767626
 10
6.553957724679674
 20
1.9410696526669924
 10
6.539370078740158
 20
1.9313194341390898
 10
6.523632318832787
 20
1.923561271438007
 10
6.507085926025433
 20
1.9179472646332192
 10
6.489949326110875
 20
1.914535940739507
 10
6.47244094488189
 20
1.9133858267716521
 10
6.454932563652904
 20
1.914535940739507
 10
6.437795963738346
 20
1.9179472646332192
 10
6.4212495709309945
 20
1.923561271438007
 10
6.405511811023622
 20
1.9313194341390898
 10
6.3909241650841055
 20
1.9410696526669924
 10
6.377789096170464
 20
1.9525922457767626
 10
6.366266503060695
 20
1.9657273146904037
 10
6.356516284532792
 20
1.9803149606299195
 10
6.348758121831709
 20
1.996052720537291
 10
6.343144115026921
 20
2.0125991133446446
 10
6.339732791133209
 20
2.0297357132592024
 10
6.338582677165355
 20
2.047244094488188
 10
6.339732791133209
 20
2.064752475717173
 10
6.343144115026921
 20
2.0818890756317314
 10
6.348758121831709
 20
2.0984354684390834
 10
6.356516284532792
 20
2.114173228346455
 10
6.366266503060695
 20
2.128760874285972
 10
6.377789096170464
 20
2.141895943199613
 10
6.3909241650841055
 20
2.1534185363093834
 10
6.405511811023621
 20
2.1631687548372858
 10
6.421249570930994
 20
2.1709269175383685
 10
6.437795963738346
 20
2.1765409243431564
 10
6.454932563652904
 20
2.1799522482368685
 10
6.47244094488189
 20
2.1811023622047236
 10
6.489949326110875
 20
2.1799522482368685
 10
6.507085926025433
 20
2.1765409243431564
 10
6.523632318832785
 20
2.1709269175383685
 10
6.539370078740157
 20
2.1631687548372858
 10
6.553957724679674
 20
2.1534185363093834
 10
6.567092793593315
 20
2.141895943199613
 10
6.578615386703086
 20
2.128760874285972
 10
6.588365605230988
 20
2.114173228346456
 10
6.59612376793207
 20
2.0984354684390847
 10
6.601737774736859
 20
2.0818890756317314
 10
6.60514909863057
 20
2.064752475717173
 10
6.606299212598426
 20
2.047244094488188
  0
LWPOLYLINE
  5
22C
330
17
100
AcDbEntity
  8
GEOMETRY
100
AcDbPolyline
 90
44
 70
0
 10
6.448818897637795
 20
2.055118110236219
 10
6.445808258561566
 20
2.0581574208040188
 10
6.4431944576443545
 20
2.0615248221051443
 10
6.441003900759161
 20
2.0651817070213494
 10
6.439262993778986
 20
2.0690894684343886
 10
6.438005762411672
 20
2.073178566826931
 10
6.437252284249094
 20
2.077374233331333
 10
6.437008042990304
 20
2.0816300168038735
 10
6.437278522334357
 20
2.0858994661008317
 10
6.438061607361099
 20
2.090105192460897
 10
6.4393404007563175
 20
2.0941716447488243
 10
6.441098212627974
 20
2.0980551282599906
 10
6.443318353084032
 20
2.1017119482897755
 10
6.4459630492154
 20
2.1050745274706393
 10
6.4489822848829474
 20
2.1080837736788203
 10
6.452341005349578
 20
2.1107087200753556
 10
6.456004155878193
 20
2.1129183998212833
 10
6.45990692560361
 20
2.1146704685543027
 10
6.463977593582372
 20
2.1159357783836827
 10
6.468170739959968
 20
2.1167031571778216
 10
6.47244094488189
 20
2.1169614328051125
 10
6.476711149803812
 20
2.1167031571778216
 10
6.480904296181408
 20
2.1159357783836827
 10
6.48497496416017
 20
2.1146704685543027
 10
6.4888777338855865
 20
2.1129183998212833
 10
6.492540884414201
 20
2.1107087200753556
 10
6.495899604880831
 20
2.1080837736788203
 10
6.49891884054838
 20
2.1050745274706393
 10
6.501563536679748
 20
2.1017119482897755
 10
6.503783677135806
 20
2.0980551282599915
 10
6.505541489007463
 20
2.0941716447488243
 10
6.506820282402681
 20
2.0901051924608978
 10
6.5076033674294225
 20
2.085899466100833
 10
6.507873846773475
 20
2.081630016803875
 10
6.507629605514686
 20
2.077374233331334
 10
6.506876127352108
 20
2.073178566826932
 10
6.505618895984794
 20
2.0690894684343895
 10
6.503877989004619
 20
2.0651817070213503
 10
6.501687432119426
 20
2.061524822105145
 10
6.499073631202213
 20
2.0581574208040188
 10
6.496062992125984
 20
2.055118110236219
 10
6.5078740157480315
 20
1.968503937007873
 10
6.437007874015748
 20
1.968503937007873
 10
6.448818897637795
 20
2.055118110236219
  0
TEXT
  5
22D
330
17
100
AcDbEntity
  8
TEXT
100
AcDbText
 10
5.905511811023622
 20
3.858267716535433
 30
0.0
 40
0.09070866141732283
  1
DETAIL C — LOCK RAIL
 11
5.905511811023622
 21
3.858267716535433
 31
0.0
100
AcDbText
  0
LINE
  5
22E
330
17
100
AcDbEntity
  8
GEOMETRY
100
AcDbLine
 10
5.905511811023622
 20
3.7992125984251968
 30
0.0
 11
8.26771653543307
 21
3.7992125984251968
 31
0.0
  0
TEXT
  5
22F
330
17
100
AcDbEntity
  8
TEXT
100
AcDbText
 10
5.905511811023622
 20
3.669291338582677
 30
0.0
 40
0.048188976377952754
  1
SCALE 1:5 · ACTIVE LEAF
 11
5.905511811023622
 21
3.669291338582677
 31
0.0
100
AcDbText
  0
LINE
  5
230
330
17
100
AcDbEntity
  8
DIMENSIONS
100
AcDbLine
 10
6.082677165354331
 20
0.47244094488188976
 30
0.0
 11
7.224409448818897
 21
0.47244094488188976
 31
0.0
  0
LINE
  5
231
330
17
100
AcDbEntity
  8
DIMENSIONS
100
AcDbLine
 10
6.141732283464567
 20
2.047244094488189
 30
0.0
 11
6.141732283464567
 21
0.42519685039370125
 31
0.0
  0
LINE
  5
232
330
17
100
AcDbEntity
  8
DIMENSIONS
100
AcDbLine
 10
6.102362204724409
 20
0.4330708661417323
 30
0.0
 11
6.181102362204724
 21
0.5118110236220472
 31
0.0
  0
LINE
  5
233
330
17
100
AcDbEntity
  8
DIMENSIONS
100
AcDbLine
 10
6.47244094488189
 20
2.047244094488189
 30
0.0
 11
6.47244094488189
 21
0.42519685039370125
 31
0.0
  0
LINE
  5
234
330
17
100
AcDbEntity
  8
DIMENSIONS
100
AcDbLine
 10
6.433070866141732
 20
0.4330708661417323
 30
0.0
 11
6.511811023622047
 21
0.5118110236220472
 31
0.0
  0
LINE
  5
235
330
17
100
AcDbEntity
  8
DIMENSIONS
100
AcDbLine
 10
7.165354330708661
 20
2.047244094488189
 30
0.0
 11
7.165354330708661
 21
0.42519685039370125
 31
0.0
  0
LINE
  5
236
330
17
100
AcDbEntity
  8
DIMENSIONS
100
AcDbLine
 10
7.125984251968504
 20
0.4330708661417323
 30
0.0
 11
7.2047244094488185
 21
0.5118110236220472
 31
0.0
  0
TEXT
  5
237
330
17
100
AcDbEntity
  8
TEXT
100
AcDbText
 10
6.307086614173228
 20
0.5039370078740162
 30
0.0
 40
0.048188976377952754
  1
1⅝"
 72
1
 11
6.307086614173228
 21
0.5039370078740162
 31
0.0
100
AcDbText
  0
TEXT
  5
238
330
17
100
AcDbEntity
  8
TEXT
100
AcDbText
 10
6.818897637795275
 20
0.5039370078740162
 30
0.0
 40
0.048188976377952754
  1
3½"
 72
1
 11
6.818897637795275
 21
0.5039370078740162
 31
0.0
100
AcDbText
  0
LINE
  5
239
330
17
100
AcDbEntity
  8
DIMENSIONS
100
AcDbLine
 10
9.976377952755906
 20
3.0118110236220472
 30
0.0
 11
9.976377952755906
 21
1.0826771653543308
 31
0.0
  0
LINE
  5
23A
330
17
100
AcDbEntity
  8
DIMENSIONS
100
AcDbLine
 10
9.779527559055119
 20
2.952755905511811
 30
0.0
 11
10.023622047244094
 21
2.952755905511811
 31
0.0
  0
LINE
  5
23B
330
17
100
AcDbEntity
  8
DIMENSIONS
100
AcDbLine
 10
9.937007874015748
 20
2.9133858267716537
 30
0.0
 11
10.015748031496063
 21
2.9921259842519685
 31
0.0
  0
LINE
  5
23C
330
17
100
AcDbEntity
  8
DIMENSIONS
100
AcDbLine
 10
9.779527559055119
 20
2.047244094488189
 30
0.0
 11
10.023622047244094
 21
2.047244094488189
 31
0.0
  0
LINE
  5
23D
330
17
100
AcDbEntity
  8
DIMENSIONS
100
AcDbLine
 10
9.937007874015748
 20
2.0078740157480315
 30
0.0
 11
10.015748031496063
 21
2.0866141732283463
 31
0.0
  0
LINE
  5
23E
330
17
100
AcDbEntity
  8
DIMENSIONS
100
AcDbLine
 10
9.779527559055119
 20
1.141732283464567
 30
0.0
 11
10.023622047244094
 21
1.141732283464567
 31
0.0
  0
LINE
  5
23F
330
17
100
AcDbEntity
  8
DIMENSIONS
100
AcDbLine
 10
9.937007874015748
 20
1.1023622047244095
 30
0.0
 11
10.015748031496063
 21
1.1811023622047243
 31
0.0
  0
TEXT
  5
240
330
17
100
AcDbEntity
  8
TEXT
100
AcDbText
 10
9.94488188976378
 20
2.5
 30
0.0
 40
0.048188976377952754
  1
4½"
 50
90.0
 72
1
 11
9.94488188976378
 21
2.5
 31
0.0
100
AcDbText
  0
TEXT
  5
241
330
17
100
AcDbEntity
  8
TEXT
100
AcDbText
 10
9.94488188976378
 20
1.594488188976378
 30
0.0
 40
0.048188976377952754
  1
4½"
 50
90.0
 72
1
 11
9.94488188976378
 21
1.594488188976378
 31
0.0
100
AcDbText
  0
LWPOLYLINE
  5
242
330
17
100
AcDbEntity
  8
GEOMETRY
100
AcDbPolyline
 90
3
 70
0
 10
7.350393700787401
 20
2.1889763779527556
 10
11.73228346456693
 20
3.1574803149606296
 10
11.496062992125983
 20
3.1574803149606296
  0
TEXT
  5
243
330
17
100
AcDbEntity
  8
TEXT
100
AcDbText
 10
11.433070866141732
 20
3.133858267716535
 30
0.0
 40
0.051023622047244095
  1
KNOB Ø55
 72
2
 11
11.433070866141732
 21
3.133858267716535
 31
0.0
100
AcDbText
  0
TEXT
  5
244
330
17
100
AcDbEntity
  8
TEXT
100
AcDbText
 10
11.433070866141732
 20
3.023622047244095
 30
0.0
 40
0.04110236220472441
  1
EBONISED / BRASS — TBC
 72
2
 11
11.433070866141732
 21
3.023622047244095
 31
0.0
100
AcDbText
  0
LWPOLYLINE
  5
245
330
17
100
AcDbEntity
  8
GEOMETRY
100
AcDbPolyline
 90
3
 70
0
 10
6.47244094488189
 20
1.9370078740157481
 10
11.73228346456693
 20
2.8110236220472444
 10
11.496062992125983
 20
2.8110236220472444
  0
TEXT
  5
246
330
17
100
AcDbEntity
  8
TEXT
100
AcDbText
 10
11.433070866141732
 20
2.78740157480315
 30
0.0
 40
0.051023622047244095
  1
ESCUTCHEON Ø34
 72
2
 11
11.433070866141732
 21
2.78740157480315
 31
0.0
100
AcDbText
  0
TEXT
  5
247
330
17
100
AcDbEntity
  8
TEXT
100
AcDbText
 10
11.433070866141732
 20
2.677165354330709
 30
0.0
 40
0.04110236220472441
  1
KEYHOLE, MORTICE LOCK
 72
2
 11
11.433070866141732
 21
2.677165354330709
 31
0.0
100
AcDbText
  0
TEXT
  5
248
330
17
100
AcDbEntity
  8
TEXT
100
AcDbText
 10
13.700787401574804
 20
11.023622047244094
 30
0.0
 40
0.09070866141732283
  1
KEY
 11
13.700787401574804
 21
11.023622047244094
 31
0.0
100
AcDbText
  0
LINE
  5
249
330
17
100
AcDbEntity
  8
GEOMETRY
100
AcDbLine
 10
13.700787401574804
 20
10.964566929133857
 30
0.0
 11
16.062992125984252
 21
10.964566929133857
 31
0.0
  0
TEXT
  5
24A
330
17
100
AcDbEntity
  8
TEXT
100
AcDbText
 10
13.700787401574804
 20
10.834645669291337
 30
0.0
 40
0.048188976377952754
  1
PARTS OF THE LEAF
 11
13.700787401574804
 21
10.834645669291337
 31
0.0
100
AcDbText
  0
CIRCLE
  5
24B
330
17
100
AcDbEntity
  8
GEOMETRY
100
AcDbCircle
 10
13.779527559055119
 20
10.551181102362204
 30
0.0
 40
2.0
  0
TEXT
  5
24C
330
17
100
AcDbEntity
  8
TEXT
100
AcDbText
 10
13.779527559055119
 20
10.521653543307087
 30
0.0
 40
0.05669291338582677
  1
1
 72
1
 11
13.779527559055119
 21
10.521653543307087
 31
0.0
100
AcDbText
  0
TEXT
  5
24D
330
17
100
AcDbEntity
  8
TEXT
100
AcDbText
 10
13.937007874015748
 20
10.523622047244094
 30
0.0
 40
0.051023622047244095
  1
Stile
 11
13.937007874015748
 21
10.523622047244094
 31
0.0
100
AcDbText
  0
CIRCLE
  5
24E
330
17
100
AcDbEntity
  8
GEOMETRY
100
AcDbCircle
 10
13.779527559055119
 20
10.330708661417322
 30
0.0
 40
2.0
  0
TEXT
  5
24F
330
17
100
AcDbEntity
  8
TEXT
100
AcDbText
 10
13.779527559055119
 20
10.301181102362204
 30
0.0
 40
0.05669291338582677
  1
2
 72
1
 11
13.779527559055119
 21
10.301181102362204
 31
0.0
100
AcDbText
  0
TEXT
  5
250
330
17
100
AcDbEntity
  8
TEXT
100
AcDbText
 10
13.937007874015748
 20
10.303149606299211
 30
0.0
 40
0.051023622047244095
  1
Top rail
 11
13.937007874015748
 21
10.303149606299211
 31
0.0
100
AcDbText
  0
CIRCLE
  5
251
330
17
100
AcDbEntity
  8
GEOMETRY
100
AcDbCircle
 10
13.779527559055119
 20
10.11023622047244
 30
0.0
 40
2.0
  0
TEXT
  5
252
330
17
100
AcDbEntity
  8
TEXT
100
AcDbText
 10
13.779527559055119
 20
10.080708661417324
 30
0.0
 40
0.05669291338582677
  1
3
 72
1
 11
13.779527559055119
 21
10.080708661417324
 31
0.0
100
AcDbText
  0
TEXT
  5
253
330
17
100
AcDbEntity
  8
TEXT
100
AcDbText
 10
13.937007874015748
 20
10.082677165354331
 30
0.0
 40
0.051023622047244095
  1
Upper panel — shaped bead, 4 roundels
 11
13.937007874015748
 21
10.082677165354331
 31
0.0
100
AcDbText
  0
CIRCLE
  5
254
330
17
100
AcDbEntity
  8
GEOMETRY
100
AcDbCircle
 10
13.779527559055119
 20
9.88976377952756
 30
0.0
 40
2.0
  0
TEXT
  5
255
330
17
100
AcDbEntity
  8
TEXT
100
AcDbText
 10
13.779527559055119
 20
9.86023622047244
 30
0.0
 40
0.05669291338582677
  1
4
 72
1
 11
13.779527559055119
 21
9.86023622047244
 31
0.0
100
AcDbText
  0
TEXT
  5
256
330
17
100
AcDbEntity
  8
TEXT
100
AcDbText
 10
13.937007874015748
 20
9.862204724409448
 30
0.0
 40
0.051023622047244095
  1
Lock rail
 11
13.937007874015748
 21
9.862204724409448
 31
0.0
100
AcDbText
  0
CIRCLE
  5
257
330
17
100
AcDbEntity
  8
GEOMETRY
100
AcDbCircle
 10
13.779527559055119
 20
9.669291338582676
 30
0.0
 40
2.0
  0
TEXT
  5
258
330
17
100
AcDbEntity
  8
TEXT
100
AcDbText
 10
13.779527559055119
 20
9.63976377952756
 30
0.0
 40
0.05669291338582677
  1
5
 72
1
 11
13.779527559055119
 21
9.63976377952756
 31
0.0
100
AcDbText
  0
TEXT
  5
259
330
17
100
AcDbEntity
  8
TEXT
100
AcDbText
 10
13.937007874015748
 20
9.641732283464567
 30
0.0
 40
0.051023622047244095
  1
Lower panel — same pattern
 11
13.937007874015748
 21
9.641732283464567
 31
0.0
100
AcDbText
  0
CIRCLE
  5
25A
330
17
100
AcDbEntity
  8
GEOMETRY
100
AcDbCircle
 10
13.779527559055119
 20
9.448818897637794
 30
0.0
 40
2.0
  0
TEXT
  5
25B
330
17
100
AcDbEntity
  8
TEXT
100
AcDbText
 10
13.779527559055119
 20
9.419291338582678
 30
0.0
 40
0.05669291338582677
  1
6
 72
1
 11
13.779527559055119
 21
9.419291338582678
 31
0.0
100
AcDbText
  0
TEXT
  5
25C
330
17
100
AcDbEntity
  8
TEXT
100
AcDbText
 10
13.937007874015748
 20
9.421259842519685
 30
0.0
 40
0.051023622047244095
  1
Bottom rail
 11
13.937007874015748
 21
9.421259842519685
 31
0.0
100
AcDbText
  0
CIRCLE
  5
25D
330
17
100
AcDbEntity
  8
GEOMETRY
100
AcDbCircle
 10
13.779527559055119
 20
9.228346456692913
 30
0.0
 40
2.0
  0
TEXT
  5
25E
330
17
100
AcDbEntity
  8
TEXT
100
AcDbText
 10
13.779527559055119
 20
9.198818897637796
 30
0.0
 40
0.05669291338582677
  1
7
 72
1
 11
13.779527559055119
 21
9.198818897637796
 31
0.0
100
AcDbText
  0
TEXT
  5
25F
330
17
100
AcDbEntity
  8
TEXT
100
AcDbText
 10
13.937007874015748
 20
9.200787401574802
 30
0.0
 40
0.051023622047244095
  1
Knob Ø55
 11
13.937007874015748
 21
9.200787401574802
 31
0.0
100
AcDbText
  0
CIRCLE
  5
260
330
17
100
AcDbEntity
  8
GEOMETRY
100
AcDbCircle
 10
13.779527559055119
 20
9.007874015748031
 30
0.0
 40
2.0
  0
TEXT
  5
261
330
17
100
AcDbEntity
  8
TEXT
100
AcDbText
 10
13.779527559055119
 20
8.978346456692913
 30
0.0
 40
0.05669291338582677
  1
8
 72
1
 11
13.779527559055119
 21
8.978346456692913
 31
0.0
100
AcDbText
  0
TEXT
  5
262
330
17
100
AcDbEntity
  8
TEXT
100
AcDbText
 10
13.937007874015748
 20
8.98031496062992
 30
0.0
 40
0.051023622047244095
  1
Keyhole escutcheon
 11
13.937007874015748
 21
8.98031496062992
 31
0.0
100
AcDbText
  0
CIRCLE
  5
263
330
17
100
AcDbEntity
  8
GEOMETRY
100
AcDbCircle
 10
13.779527559055119
 20
8.787401574803148
 30
0.0
 40
2.0
  0
TEXT
  5
264
330
17
100
AcDbEntity
  8
TEXT
100
AcDbText
 10
13.779527559055119
 20
8.757874015748031
 30
0.0
 40
0.05669291338582677
  1
9
 72
1
 11
13.779527559055119
 21
8.757874015748031
 31
0.0
100
AcDbText
  0
TEXT
  5
265
330
17
100
AcDbEntity
  8
TEXT
100
AcDbText
 10
13.937007874015748
 20
8.759842519685039
 30
0.0
 40
0.051023622047244095
  1
Meeting bead (pair only)
 11
13.937007874015748
 21
8.759842519685039
 31
0.0
100
AcDbText
  0
CIRCLE
  5
266
330
17
100
AcDbEntity
  8
GEOMETRY
100
AcDbCircle
 10
13.779527559055119
 20
8.566929133858267
 30
0.0
 40
2.0
  0
TEXT
  5
267
330
17
100
AcDbEntity
  8
TEXT
100
AcDbText
 10
13.779527559055119
 20
8.53740157480315
 30
0.0
 40
0.05669291338582677
  1
10
 72
1
 11
13.779527559055119
 21
8.53740157480315
 31
0.0
100
AcDbText
  0
TEXT
  5
268
330
17
100
AcDbEntity
  8
TEXT
100
AcDbText
 10
13.937007874015748
 20
8.539370078740157
 30
0.0
 40
0.051023622047244095
  1
Architrave — to design
 11
13.937007874015748
 21
8.539370078740157
 31
0.0
100
AcDbText
  0
TEXT
  5
269
330
17
100
AcDbEntity
  8
TEXT
100
AcDbText
 10
13.700787401574804
 20
7.9921259842519685
 30
0.0
 40
0.09070866141732283
  1
NOTES
 11
13.700787401574804
 21
7.9921259842519685
 31
0.0
100
AcDbText
  0
LINE
  5
26A
330
17
100
AcDbEntity
  8
GEOMETRY
100
AcDbLine
 10
13.700787401574804
 20
7.933070866141732
 30
0.0
 11
16.062992125984252
 21
7.933070866141732
 31
0.0
  0
TEXT
  5
26B
330
17
100
AcDbEntity
  8
TEXT
100
AcDbText
 10
13.700787401574804
 20
7.803149606299212
 30
0.0
 40
0.048188976377952754
  1
READ BEFORE MAKING
 11
13.700787401574804
 21
7.803149606299212
 31
0.0
100
AcDbText
  0
TEXT
  5
26C
330
17
100
AcDbEntity
  8
TEXT
100
AcDbText
 10
13.700787401574804
 20
7.559055118110236
 30
0.0
 40
0.048188976377952754
  1
Dimensions in feet and inches. Do not scale.
 11
13.700787401574804
 21
7.559055118110236
 31
0.0
100
AcDbText
  0
TEXT
  5
26D
330
17
100
AcDbEntity
  8
TEXT
100
AcDbText
 10
13.700787401574804
 20
7.393700787401575
 30
0.0
 40
0.048188976377952754
  1
Proportions taken from a film-still reference;
 11
13.700787401574804
 21
7.393700787401575
 31
0.0
100
AcDbText
  0
TEXT
  5
26E
330
17
100
AcDbEntity
  8
TEXT
100
AcDbText
 10
13.700787401574804
 20
7.228346456692913
 30
0.0
 40
0.048188976377952754
  1
leaf size, opening and thickness are ASSUMED.
 11
13.700787401574804
 21
7.228346456692913
 31
0.0
100
AcDbText
  0
TEXT
  5
26F
330
17
100
AcDbEntity
  8
TEXT
100
AcDbText
 10
13.700787401574804
 20
7.062992125984252
 30
0.0
 40
0.048188976377952754
  1
Knob centre lands 958 above the floor — normal height.
 11
13.700787401574804
 21
7.062992125984252
 31
0.0
100
AcDbText
  0
TEXT
  5
270
330
17
100
AcDbEntity
  8
TEXT
100
AcDbText
 10
13.700787401574804
 20
6.89763779527559
 30
0.0
 40
0.048188976377952754
  1
D1 — MAIN DOOR, 7 ft 7 in × 3 ft.
 11
13.700787401574804
 21
6.89763779527559
 31
0.0
100
AcDbText
  0
TEXT
  5
271
330
17
100
AcDbEntity
  8
TEXT
100
AcDbText
 10
13.700787401574804
 20
6.732283464566929
 30
0.0
 40
0.048188976377952754
  1
Same design at both widths: stiles 100, rails and
 11
13.700787401574804
 21
6.732283464566929
 31
0.0
100
AcDbText
  0
TEXT
  5
272
330
17
100
AcDbEntity
  8
TEXT
100
AcDbText
 10
13.700787401574804
 20
6.5669291338582685
 30
0.0
 40
0.048188976377952754
  1
mouldings identical. Only the panel width changes,
 11
13.700787401574804
 21
6.5669291338582685
 31
0.0
100
AcDbText
  0
TEXT
  5
273
330
17
100
AcDbEntity
  8
TEXT
100
AcDbText
 10
13.700787401574804
 20
6.401574803149606
 30
0.0
 40
0.048188976377952754
  1
here 257 per panel. Details A, B and C serve both doors.
 11
13.700787401574804
 21
6.401574803149606
 31
0.0
100
AcDbText
  0
TEXT
  5
274
330
17
100
AcDbEntity
  8
TEXT
100
AcDbText
 10
13.700787401574804
 20
6.236220472440945
 30
0.0
 40
0.048188976377952754
  1
Solid teak frame. Veneer and polish per
 11
13.700787401574804
 21
6.236220472440945
 31
0.0
100
AcDbText
  0
TEXT
  5
275
330
17
100
AcDbEntity
  8
TEXT
100
AcDbText
 10
13.700787401574804
 20
6.070866141732283
 30
0.0
 40
0.048188976377952754
  1
Materials; polish to match the teak desk.
 11
13.700787401574804
 21
6.070866141732283
 31
0.0
100
AcDbText
  0
TEXT
  5
276
330
17
100
AcDbEntity
  8
TEXT
100
AcDbText
 10
13.700787401574804
 20
5.905511811023622
 30
0.0
 40
0.048188976377952754
  1
Casing: 2 in frame plus 2 in moulding over it, so the
 11
13.700787401574804
 21
5.905511811023622
 31
0.0
100
AcDbText
  0
TEXT
  5
277
330
17
100
AcDbEntity
  8
TEXT
100
AcDbText
 10
13.700787401574804
 20
5.740157480314961
 30
0.0
 40
0.048188976377952754
  1
casing head sits 102 (4 in) above the leaf, at 7 ft 11 in.
 11
13.700787401574804
 21
5.740157480314961
 31
0.0
100
AcDbText
  0
TEXT
  5
278
330
17
100
AcDbEntity
  8
TEXT
100
AcDbText
 10
13.700787401574804
 20
5.574803149606299
 30
0.0
 40
0.048188976377952754
  1
Hinges and lock not yet designed.
 11
13.700787401574804
 21
5.574803149606299
 31
0.0
100
AcDbText
  0
LWPOLYLINE
  5
279
330
17
100
AcDbEntity
  8
GEOMETRY
100
AcDbPolyline
 90
5
 70
0
 10
11.811023622047244
 20
2.283464566929135
 10
16.22047244094488
 20
2.283464566929135
 10
16.22047244094488
 20
0.31496062992126106
 10
11.811023622047244
 20
0.31496062992126106
 10
11.811023622047244
 20
2.283464566929135
  0
LINE
  5
27A
330
17
100
AcDbEntity
  8
GEOMETRY
100
AcDbLine
 10
11.811023622047244
 20
1.7322834645669292
 30
0.0
 11
16.22047244094488
 21
1.7322834645669292
 31
0.0
  0
LINE
  5
27B
330
17
100
AcDbEntity
  8
GEOMETRY
100
AcDbLine
 10
11.811023622047244
 20
1.1023622047244095
 30
0.0
 11
16.22047244094488
 21
1.1023622047244095
 31
0.0
  0
LINE
  5
27C
330
17
100
AcDbEntity
  8
GEOMETRY
100
AcDbLine
 10
11.811023622047244
 20
0.7086614173228346
 30
0.0
 11
16.22047244094488
 21
0.7086614173228346
 31
0.0
  0
LINE
  5
27D
330
17
100
AcDbEntity
  8
GEOMETRY
100
AcDbLine
 10
14.015748031496063
 20
1.1023622047244095
 30
0.0
 11
14.015748031496063
 21
0.31496062992125984
 31
0.0
  0
TEXT
  5
27E
330
17
100
AcDbEntity
  8
TEXT
100
AcDbText
 10
11.929133858267717
 20
2.02755905511811
 30
0.0
 40
0.09637795275590551
  1
A STUDY IN TEAK
 11
11.929133858267717
 21
2.02755905511811
 31
0.0
100
AcDbText
  0
TEXT
  5
27F
330
17
100
AcDbEntity
  8
TEXT
100
AcDbText
 10
11.929133858267717
 20
1.8503937007874016
 30
0.0
 40
0.05385826771653543
  1
Particulars of the room
 11
11.929133858267717
 21
1.8503937007874016
 31
0.0
100
AcDbText
  0
TEXT
  5
280
330
17
100
AcDbEntity
  8
TEXT
100
AcDbText
 10
11.929133858267717
 20
1.4763779527559056
 30
0.0
 40
0.09637795275590551
  1
DOOR D1 — 7 FT 7 IN × 3 FT
 11
11.929133858267717
 21
1.4763779527559056
 31
0.0
100
AcDbText
  0
TEXT
  5
281
330
17
100
AcDbEntity
  8
TEXT
100
AcDbText
 10
11.929133858267717
 20
1.2598425196850394
 30
0.0
 40
0.05669291338582677
  1
Elevation · Panel head · Section · Lock rail
 11
11.929133858267717
 21
1.2598425196850394
 31
0.0
100
AcDbText
  0
TEXT
  5
282
330
17
100
AcDbEntity
  8
TEXT
100
AcDbText
 10
11.929133858267717
 20
0.9448818897637795
 30
0.0
 40
0.04251968503937008
  1
SCALE
 11
11.929133858267717
 21
0.9448818897637795
 31
0.0
100
AcDbText
  0
TEXT
  5
283
330
17
100
AcDbEntity
  8
TEXT
100
AcDbText
 10
11.929133858267717
 20
0.7874015748031495
 30
0.0
 40
0.05952755905511811
  1
AS NOTED @ A3
 11
11.929133858267717
 21
0.7874015748031495
 31
0.0
100
AcDbText
  0
TEXT
  5
284
330
17
100
AcDbEntity
  8
TEXT
100
AcDbText
 10
14.133858267716535
 20
0.9448818897637795
 30
0.0
 40
0.04251968503937008
  1
DATE
 11
14.133858267716535
 21
0.9448818897637795
 31
0.0
100
AcDbText
  0
TEXT
  5
285
330
17
100
AcDbEntity
  8
TEXT
100
AcDbText
 10
14.133858267716535
 20
0.7874015748031495
 30
0.0
 40
0.05952755905511811
  1
17.09.2026
 11
14.133858267716535
 21
0.7874015748031495
 31
0.0
100
AcDbText
  0
TEXT
  5
286
330
17
100
AcDbEntity
  8
TEXT
100
AcDbText
 10
11.929133858267717
 20
0.5511811023622047
 30
0.0
 40
0.04251968503937008
  1
REV
 11
11.929133858267717
 21
0.5511811023622047
 31
0.0
100
AcDbText
  0
TEXT
  5
287
330
17
100
AcDbEntity
  8
TEXT
100
AcDbText
 10
11.929133858267717
 20
0.39370078740157477
 30
0.0
 40
0.051023622047244095
  1
4 — casing drawn as 2 in frame + 2 in moulding
 11
11.929133858267717
 21
0.39370078740157477
 31
0.0
100
AcDbText
  0
TEXT
  5
288
330
17
100
AcDbEntity
  8
TEXT
100
AcDbText
 10
14.133858267716535
 20
0.5511811023622047
 30
0.0
 40
0.04251968503937008
  1
DWG
 11
14.133858267716535
 21
0.5511811023622047
 31
0.0
100
AcDbText
  0
TEXT
  5
289
330
17
100
AcDbEntity
  8
TEXT
100
AcDbText
 10
14.133858267716535
 20
0.39370078740157477
 30
0.0
 40
0.05952755905511811
  1
AST-DR-001
 11
14.133858267716535
 21
0.39370078740157477
 31
0.0
100
AcDbText
  0
ENDSEC
  0
SECTION
  2
OBJECTS
  0
DICTIONARY
  5
A
330
0
100
AcDbDictionary
281
1
  3
ACAD_COLOR
350
B
  3
ACAD_GROUP
350
C
  3
ACAD_LAYOUT
350
D
  3
ACAD_MATERIAL
350
E
  3
ACAD_MLEADERSTYLE
350
F
  3
ACAD_MLINESTYLE
350
10
  3
ACAD_PLOTSETTINGS
350
11
  3
ACAD_PLOTSTYLENAME
350
12
  3
ACAD_SCALELIST
350
14
  3
ACAD_TABLESTYLE
350
15
  3
ACAD_VISUALSTYLE
350
16
  3
EZDXF_META
350
2D
  0
DICTIONARY
  5
B
330
A
100
AcDbDictionary
281
1
  0
DICTIONARY
  5
C
330
A
100
AcDbDictionary
281
1
  0
DICTIONARY
  5
D
330
A
100
AcDbDictionary
281
1
  3
Model
350
1A
  3
Layout1
350
1E
  0
DICTIONARY
  5
E
330
A
100
AcDbDictionary
281
1
  3
ByBlock
350
1F
  3
ByLayer
350
20
  3
Global
350
21
  0
DICTIONARY
  5
F
330
A
100
AcDbDictionary
281
1
  3
Standard
350
2C
  0
DICTIONARY
  5
10
330
A
100
AcDbDictionary
281
1
  3
Standard
350
22
  0
DICTIONARY
  5
11
330
A
100
AcDbDictionary
281
1
  0
ACDBDICTIONARYWDFLT
  5
12
330
A
100
AcDbDictionary
281
1
  3
Normal
350
13
100
AcDbDictionaryWithDefault
340
13
  0
ACDBPLACEHOLDER
  5
13
330
12
  0
DICTIONARY
  5
14
330
A
100
AcDbDictionary
281
1
  0
DICTIONARY
  5
15
330
A
100
AcDbDictionary
281
1
  0
DICTIONARY
  5
16
330
A
100
AcDbDictionary
281
1
  3
2dWireframe
350
5A
  3
Basic
350
5B
  3
Brighten
350
5C
  3
ColorChange
350
5D
  3
Conceptual
350
5E
  3
Dim
350
5F
  3
EdgeColorOff
350
60
  3
Facepattern
350
61
  3
Flat
350
62
  3
FlatWithEdges
350
63
  3
Gouraud
350
64
  3
GouraudWithEdges
350
65
  3
Hidden
350
66
  3
JitterOff
350
67
  3
Linepattern
350
68
  3
Modeling
350
69
  3
OverhangOff
350
6A
  3
Realistic
350
6B
  3
Shaded
350
6C
  3
Shaded with edges
350
6D
  3
Shades of Gray
350
6E
  3
Sketchy
350
6F
  3
Thicken
350
70
  3
Wireframe
350
71
  3
X-Ray
350
72
  0
LAYOUT
  5
1A
330
D
100
AcDbPlotSettings
  1

  4
A3
  6

 40
7.5
 41
20.0
 42
7.5
 43
20.0
 44
420.0
 45
297.0
 46
0.0
 47
0.0
 48
0.0
 49
0.0
140
0.0
141
0.0
142
1.0
143
1.0
 70
1024
 72
1
 73
0
 74
5
  7

 75
16
 76
0
 77
2
 78
300
147
1.0
148
0.0
149
0.0
100
AcDbLayout
  1
Model
 70
1
 71
0
 10
0.0
 20
0.0
 11
420.0
 21
297.0
 12
0.0
 22
0.0
 32
0.0
 14
1e+20
 24
1e+20
 34
1e+20
 15
-1e+20
 25
-1e+20
 35
-1e+20
146
0.0
 13
0.0
 23
0.0
 33
0.0
 16
1.0
 26
0.0
 36
0.0
 17
0.0
 27
1.0
 37
0.0
 76
1
330
17
  0
LAYOUT
  5
1E
330
D
100
AcDbPlotSettings
  1

  4
A3
  6

 40
7.5
 41
20.0
 42
7.5
 43
20.0
 44
420.0
 45
297.0
 46
0.0
 47
0.0
 48
0.0
 49
0.0
140
0.0
141
0.0
142
1.0
143
1.0
 70
0
 72
1
 73
0
 74
5
  7

 75
16
 76
0
 77
2
 78
300
147
1.0
148
0.0
149
0.0
100
AcDbLayout
  1
Layout1
 70
1
 71
1
 10
0.0
 20
0.0
 11
420.0
 21
297.0
 12
0.0
 22
0.0
 32
0.0
 14
1e+20
 24
1e+20
 34
1e+20
 15
-1e+20
 25
-1e+20
 35
-1e+20
146
0.0
 13
0.0
 23
0.0
 33
0.0
 16
1.0
 26
0.0
 36
0.0
 17
0.0
 27
1.0
 37
0.0
 76
1
330
1B
  0
MATERIAL
  5
1F
102
{ACAD_REACTORS
330
E
102
}
330
E
100
AcDbMaterial
  1
ByBlock
  2

 70
0
 40
1.0
 71
1
 41
1.0
 91
-1023410177
 42
1.0
 72
1
  3

 73
1
 74
1
 75
1
 44
0.5
 73
0
 45
1.0
 46
1.0
 77
1
  4

 78
1
 79
1
170
1
 48
1.0
171
1
  6

172
1
173
1
174
1
140
1.0
141
1.0
175
1
  7

176
1
177
1
178
1
143
1.0
179
1
  8

270
1
271
1
272
1
145
1.0
146
1.0
273
1
  9

274
1
275
1
276
1
 42
1.0
 72
1
  3

 73
1
 74
1
 75
1
 94
63
  0
MATERIAL
  5
20
102
{ACAD_REACTORS
330
E
102
}
330
E
100
AcDbMaterial
  1
ByLayer
  2

 70
0
 40
1.0
 71
1
 41
1.0
 91
-1023410177
 42
1.0
 72
1
  3

 73
1
 74
1
 75
1
 44
0.5
 73
0
 45
1.0
 46
1.0
 77
1
  4

 78
1
 79
1
170
1
 48
1.0
171
1
  6

172
1
173
1
174
1
140
1.0
141
1.0
175
1
  7

176
1
177
1
178
1
143
1.0
179
1
  8

270
1
271
1
272
1
145
1.0
146
1.0
273
1
  9

274
1
275
1
276
1
 42
1.0
 72
1
  3

 73
1
 74
1
 75
1
 94
63
  0
MATERIAL
  5
21
102
{ACAD_REACTORS
330
E
102
}
330
E
100
AcDbMaterial
  1
Global
  2

 70
0
 40
1.0
 71
1
 41
1.0
 91
-1023410177
 42
1.0
 72
1
  3

 73
1
 74
1
 75
1
 44
0.5
 73
0
 45
1.0
 46
1.0
 77
1
  4

 78
1
 79
1
170
1
 48
1.0
171
1
  6

172
1
173
1
174
1
140
1.0
141
1.0
175
1
  7

176
1
177
1
178
1
143
1.0
179
1
  8

270
1
271
1
272
1
145
1.0
146
1.0
273
1
  9

274
1
275
1
276
1
 42
1.0
 72
1
  3

 73
1
 74
1
 75
1
 94
63
  0
MLINESTYLE
  5
22
102
{ACAD_REACTORS
330
10
102
}
330
10
100
AcDbMlineStyle
  2
Standard
 70
0
  3

 62
256
 51
90.0
 52
90.0
 71
2
 49
0.5
 62
256
  6
BYLAYER
 49
-0.5
 62
256
  6
BYLAYER
  0
MLEADERSTYLE
  5
2C
102
{ACAD_REACTORS
330
F
102
}
330
F
100
AcDbMLeaderStyle
179
2
170
2
171
1
172
0
 90
2
 40
0.0
 41
0.0
173
1
 91
-1056964608
 92
-2
290
1
 42
2.0
291
1
 43
8.0
  3
Standard
 44
4.0
300

342
29
174
1
175
1
176
0
178
1
 93
-1056964608
 45
4.0
292
0
297
0
 46
4.0
 94
-1056964608
 47
1.0
 49
1.0
140
1.0
294
1
141
0.0
177
0
142
1.0
295
0
296
0
143
3.75
271
0
272
9
273
9
  0
DICTIONARY
  5
2D
330
A
100
AcDbDictionary
280
1
281
1
  3
CREATED_BY_EZDXF
350
2E
  3
WRITTEN_BY_EZDXF
350
28C
  0
DICTIONARYVAR
  5
2E
330
2D
100
DictionaryVariables
280
0
  1
1.4.2 @ 2026-09-18T17:49:53.223290+00:00
  0
VISUALSTYLE
  5
5A
102
{ACAD_REACTORS
330
16
102
}
330
16
100
AcDbVisualStyle
  2
2dWireframe
 70
4
 90
0
 40
0.6
 62
7
290
0
291
0
  0
VISUALSTYLE
  5
5B
102
{ACAD_REACTORS
330
16
102
}
330
16
100
AcDbVisualStyle
  2
Basic
 70
7
 90
1
 40
0.6
 62
7
290
0
291
1
  0
VISUALSTYLE
  5
5C
102
{ACAD_REACTORS
330
16
102
}
330
16
100
AcDbVisualStyle
  2
Brighten
 70
12
 90
2
 40
0.6
 62
7
290
0
291
1
  0
VISUALSTYLE
  5
5D
102
{ACAD_REACTORS
330
16
102
}
330
16
100
AcDbVisualStyle
  2
ColorChange
 70
16
 90
2
 40
0.6
 62
8
290
0
291
1
  0
VISUALSTYLE
  5
5E
102
{ACAD_REACTORS
330
16
102
}
330
16
100
AcDbVisualStyle
  2
Conceptual
 70
9
 90
3
 40
0.6
 62
7
290
0
291
0
  0
VISUALSTYLE
  5
5F
102
{ACAD_REACTORS
330
16
102
}
330
16
100
AcDbVisualStyle
  2
Dim
 70
11
 90
2
 40
0.6
 62
7
290
0
291
1
  0
VISUALSTYLE
  5
60
102
{ACAD_REACTORS
330
16
102
}
330
16
100
AcDbVisualStyle
  2
EdgeColorOff
 70
22
 90
2
 40
0.6
 62
7
290
0
291
1
  0
VISUALSTYLE
  5
61
102
{ACAD_REACTORS
330
16
102
}
330
16
100
AcDbVisualStyle
  2
Facepattern
 70
15
 90
2
 40
0.6
 62
7
290
0
291
1
  0
VISUALSTYLE
  5
62
102
{ACAD_REACTORS
330
16
102
}
330
16
100
AcDbVisualStyle
  2
Flat
 70
0
 90
2
 40
0.6
 62
7
290
0
291
1
  0
VISUALSTYLE
  5
63
102
{ACAD_REACTORS
330
16
102
}
330
16
100
AcDbVisualStyle
  2
FlatWithEdges
 70
1
 90
2
 40
0.6
 62
7
290
0
291
1
  0
VISUALSTYLE
  5
64
102
{ACAD_REACTORS
330
16
102
}
330
16
100
AcDbVisualStyle
  2
Gouraud
 70
2
 90
2
 40
0.6
 62
7
290
0
291
1
  0
VISUALSTYLE
  5
65
102
{ACAD_REACTORS
330
16
102
}
330
16
100
AcDbVisualStyle
  2
GouraudWithEdges
 70
3
 90
2
 40
0.6
 62
7
290
0
291
1
  0
VISUALSTYLE
  5
66
102
{ACAD_REACTORS
330
16
102
}
330
16
100
AcDbVisualStyle
  2
Hidden
 70
6
 90
1
 40
0.6
 62
7
290
0
291
0
  0
VISUALSTYLE
  5
67
102
{ACAD_REACTORS
330
16
102
}
330
16
100
AcDbVisualStyle
  2
JitterOff
 70
20
 90
2
 40
0.6
 62
7
290
0
291
1
  0
VISUALSTYLE
  5
68
102
{ACAD_REACTORS
330
16
102
}
330
16
100
AcDbVisualStyle
  2
Linepattern
 70
14
 90
2
 40
0.6
 62
7
290
0
291
1
  0
VISUALSTYLE
  5
69
102
{ACAD_REACTORS
330
16
102
}
330
16
100
AcDbVisualStyle
  2
Modeling
 70
10
 90
2
 40
0.6
 62
7
290
0
291
0
  0
VISUALSTYLE
  5
6A
102
{ACAD_REACTORS
330
16
102
}
330
16
100
AcDbVisualStyle
  2
OverhangOff
 70
21
 90
2
 40
0.6
 62
7
290
0
291
1
  0
VISUALSTYLE
  5
6B
102
{ACAD_REACTORS
330
16
102
}
330
16
100
AcDbVisualStyle
  2
Realistic
 70
8
 90
2
 40
0.6
 62
7
290
0
291
0
  0
VISUALSTYLE
  5
6C
102
{ACAD_REACTORS
330
16
102
}
330
16
100
AcDbVisualStyle
  2
Shaded
 70
27
 90
2
 40
0.6
 62
7
290
0
291
0
  0
VISUALSTYLE
  5
6D
102
{ACAD_REACTORS
330
16
102
}
330
16
100
AcDbVisualStyle
  2
Shaded with edges
 70
26
 90
2
 40
0.6
 62
7
290
0
291
0
  0
VISUALSTYLE
  5
6E
102
{ACAD_REACTORS
330
16
102
}
330
16
100
AcDbVisualStyle
  2
Shades of Gray
 70
23
 90
2
 40
0.6
 62
7
290
0
291
0
  0
VISUALSTYLE
  5
6F
102
{ACAD_REACTORS
330
16
102
}
330
16
100
AcDbVisualStyle
  2
Sketchy
 70
24
 90
1
 40
0.6
 62
7
290
0
291
0
  0
VISUALSTYLE
  5
70
102
{ACAD_REACTORS
330
16
102
}
330
16
100
AcDbVisualStyle
  2
Thicken
 70
13
 90
2
 40
0.6
 62
7
290
0
291
1
  0
VISUALSTYLE
  5
71
102
{ACAD_REACTORS
330
16
102
}
330
16
100
AcDbVisualStyle
  2
Wireframe
 70
5
 90
0
 40
0.6
 62
7
290
0
291
0
  0
VISUALSTYLE
  5
72
102
{ACAD_REACTORS
330
16
102
}
330
16
100
AcDbVisualStyle
  2
X-Ray
 70
25
 90
2
 40
0.5
 62
7
290
0
291
0
  0
DICTIONARYVAR
  5
28C
330
2D
100
DictionaryVariables
280
0
  1
1.4.2 @ 2026-09-18T17:49:53.300708+00:00
  0
ENDSEC
  0
EOF
