  0
SECTION
  2
HEADER
  9
$ACADVER
  1
AC1024
  9
$ACADMAINTVER
 70
6
  9
$DWGCODEPAGE
  3
ANSI_1252
  9
$LASTSAVEDBY
  1
ezdxf
  9
$INSBASE
 10
0.0
 20
0.0
 30
0.0
  9
$EXTMIN
 10
1e+20
 20
1e+20
 30
1e+20
  9
$EXTMAX
 10
-1e+20
 20
-1e+20
 30
-1e+20
  9
$LIMMIN
 10
0.0
 20
0.0
  9
$LIMMAX
 10
420.0
 20
297.0
  9
$ORTHOMODE
 70
0
  9
$REGENMODE
 70
1
  9
$FILLMODE
 70
1
  9
$QTEXTMODE
 70
0
  9
$MIRRTEXT
 70
1
  9
$LTSCALE
 40
1.0
  9
$ATTMODE
 70
1
  9
$TEXTSIZE
 40
2.5
  9
$TRACEWID
 40
1.0
  9
$TEXTSTYLE
  7
OpenSans
  9
$CLAYER
  8
0
  9
$CELTYPE
  6
ByLayer
  9
$CECOLOR
 62
256
  9
$CELTSCALE
 40
1.0
  9
$DISPSILH
 70
0
  9
$DIMSCALE
 40
1.0
  9
$DIMASZ
 40
0.175
  9
$DIMEXO
 40
0.125
  9
$DIMDLI
 40
3.75
  9
$DIMRND
 40
0.0
  9
$DIMDLE
 40
0.0
  9
$DIMEXE
 40
0.375
  9
$DIMTP
 40
0.0
  9
$DIMTM
 40
0.0
  9
$DIMTXT
 40
0.25
  9
$DIMCEN
 40
2.5
  9
$DIMTSZ
 40
0.0
  9
$DIMTOL
 70
0
  9
$DIMLIM
 70
0
  9
$DIMTIH
 70
0
  9
$DIMTOH
 70
0
  9
$DIMSE1
 70
0
  9
$DIMSE2
 70
0
  9
$DIMTAD
 70
1
  9
$DIMZIN
 70
12
  9
$DIMBLK
  1
ARCHTICK
  9
$DIMASO
 70
1
  9
$DIMSHO
 70
1
  9
$DIMPOST
  1

  9
$DIMAPOST
  1

  9
$DIMALT
 70
0
  9
$DIMALTD
 70
3
  9
$DIMALTF
 40
0.03937007874
  9
$DIMLFAC
 40
100.0
  9
$DIMTOFL
 70
1
  9
$DIMTVP
 40
0.0
  9
$DIMTIX
 70
0
  9
$DIMSOXD
 70
0
  9
$DIMSAH
 70
0
  9
$DIMBLK1
  1

  9
$DIMBLK2
  1

  9
$DIMSTYLE
  2
EZDXF
  9
$DIMCLRD
 70
0
  9
$DIMCLRE
 70
0
  9
$DIMCLRT
 70
0
  9
$DIMTFAC
 40
0.5
  9
$DIMGAP
 40
0.1
  9
$DIMJUST
 70
0
  9
$DIMSD1
 70
0
  9
$DIMSD2
 70
0
  9
$DIMTOLJ
 70
0
  9
$DIMTZIN
 70
8
  9
$DIMALTZ
 70
0
  9
$DIMALTTZ
 70
0
  9
$DIMUPT
 70
1
  9
$DIMDEC
 70
2
  9
$DIMTDEC
 70
2
  9
$DIMALTU
 70
2
  9
$DIMALTTD
 70
3
  9
$DIMTXSTY
  7
OpenSansCondensed-Light
  9
$DIMAUNIT
 70
0
  9
$DIMADEC
 70
2
  9
$DIMALTRND
 40
0.0
  9
$DIMAZIN
 70
3
  9
$DIMDSEP
 70
46
  9
$DIMATFIT
 70
3
  9
$DIMFRAC
 70
0
  9
$DIMLDRBLK
  1

  9
$DIMLUNIT
 70
2
  9
$DIMLWD
 70
-2
  9
$DIMLWE
 70
-2
  9
$DIMTMOVE
 70
2
  9
$DIMFXL
 40
1.0
  9
$DIMFXLON
 70
0
  9
$DIMJOGANG
 40
0.785398163397
  9
$DIMTFILL
 70
0
  9
$DIMTFILLCLR
 70
0
  9
$DIMARCSYM
 70
0
  9
$DIMLTYPE
  6

  9
$DIMLTEX1
  6

  9
$DIMLTEX2
  6

  9
$DIMTXTDIRECTION
 70
0
  9
$LUNITS
 70
4
  9
$LUPREC
 70
4
  9
$SKETCHINC
 40
1.0
  9
$FILLETRAD
 40
10.0
  9
$AUNITS
 70
0
  9
$AUPREC
 70
3
  9
$MENU
  1
.
  9
$ELEVATION
 40
0.0
  9
$PELEVATION
 40
0.0
  9
$THICKNESS
 40
0.0
  9
$LIMCHECK
 70
0
  9
$CHAMFERA
 40
0.0
  9
$CHAMFERB
 40
0.0
  9
$CHAMFERC
 40
0.0
  9
$CHAMFERD
 40
0.0
  9
$SKPOLY
 70
0
  9
$TDCREATE
 40
2461304.0615625
  9
$TDUCREATE
 40
2458532.153996898
  9
$TDUPDATE
 40
2461304.0615625
  9
$TDUUPDATE
 40
2458532.1544311
  9
$TDINDWG
 40
0.0
  9
$TDUSRTIMER
 40
0.0
  9
$USRTIMER
 70
1
  9
$ANGBASE
 50
0.0
  9
$ANGDIR
 70
0
  9
$PDMODE
 70
0
  9
$PDSIZE
 40
0.0
  9
$PLINEWID
 40
0.0
  9
$SPLFRAME
 70
0
  9
$SPLINETYPE
 70
6
  9
$SPLINESEGS
 70
8
  9
$HANDSEED
  5
17B
  9
$SURFTAB1
 70
6
  9
$SURFTAB2
 70
6
  9
$SURFTYPE
 70
6
  9
$SURFU
 70
6
  9
$SURFV
 70
6
  9
$UCSBASE
  2

  9
$UCSNAME
  2

  9
$UCSORG
 10
0.0
 20
0.0
 30
0.0
  9
$UCSXDIR
 10
1.0
 20
0.0
 30
0.0
  9
$UCSYDIR
 10
0.0
 20
1.0
 30
0.0
  9
$UCSORTHOREF
  2

  9
$UCSORTHOVIEW
 70
0
  9
$UCSORGTOP
 10
0.0
 20
0.0
 30
0.0
  9
$UCSORGBOTTOM
 10
0.0
 20
0.0
 30
0.0
  9
$UCSORGLEFT
 10
0.0
 20
0.0
 30
0.0
  9
$UCSORGRIGHT
 10
0.0
 20
0.0
 30
0.0
  9
$UCSORGFRONT
 10
0.0
 20
0.0
 30
0.0
  9
$UCSORGBACK
 10
0.0
 20
0.0
 30
0.0
  9
$PUCSBASE
  2

  9
$PUCSNAME
  2

  9
$PUCSORG
 10
0.0
 20
0.0
 30
0.0
  9
$PUCSXDIR
 10
1.0
 20
0.0
 30
0.0
  9
$PUCSYDIR
 10
0.0
 20
1.0
 30
0.0
  9
$PUCSORTHOREF
  2

  9
$PUCSORTHOVIEW
 70
0
  9
$PUCSORGTOP
 10
0.0
 20
0.0
 30
0.0
  9
$PUCSORGBOTTOM
 10
0.0
 20
0.0
 30
0.0
  9
$PUCSORGLEFT
 10
0.0
 20
0.0
 30
0.0
  9
$PUCSORGRIGHT
 10
0.0
 20
0.0
 30
0.0
  9
$PUCSORGFRONT
 10
0.0
 20
0.0
 30
0.0
  9
$PUCSORGBACK
 10
0.0
 20
0.0
 30
0.0
  9
$USERI1
 70
0
  9
$USERI2
 70
0
  9
$USERI3
 70
0
  9
$USERI4
 70
0
  9
$USERI5
 70
0
  9
$USERR1
 40
0.0
  9
$USERR2
 40
0.0
  9
$USERR3
 40
0.0
  9
$USERR4
 40
0.0
  9
$USERR5
 40
0.0
  9
$WORLDVIEW
 70
1
  9
$SHADEDGE
 70
3
  9
$SHADEDIF
 70
70
  9
$TILEMODE
 70
1
  9
$MAXACTVP
 70
64
  9
$PINSBASE
 10
0.0
 20
0.0
 30
0.0
  9
$PLIMCHECK
 70
0
  9
$PEXTMIN
 10
1e+20
 20
1e+20
 30
1e+20
  9
$PEXTMAX
 10
-1e+20
 20
-1e+20
 30
-1e+20
  9
$PLIMMIN
 10
0.0
 20
0.0
  9
$PLIMMAX
 10
420.0
 20
297.0
  9
$UNITMODE
 70
0
  9
$VISRETAIN
 70
1
  9
$PLINEGEN
 70
0
  9
$PSLTSCALE
 70
1
  9
$TREEDEPTH
 70
3020
  9
$CMLSTYLE
  2
Standard
  9
$CMLJUST
 70
0
  9
$CMLSCALE
 40
20.0
  9
$PROXYGRAPHICS
 70
1
  9
$MEASUREMENT
 70
0
  9
$CELWEIGHT
370
-1
  9
$ENDCAPS
280
0
  9
$JOINSTYLE
280
0
  9
$LWDISPLAY
290
0
  9
$INSUNITS
 70
1
  9
$HYPERLINKBASE
  1

  9
$STYLESHEET
  1

  9
$XEDIT
290
1
  9
$CEPSNTYPE
380
0
  9
$PSTYLEMODE
290
1
  9
$FINGERPRINTGUID
  2
{2E7AB0F7-E2F0-4694-ABEB-8AA416F1F320}
  9
$VERSIONGUID
  2
{D37A91E0-1932-4A05-A77C-0240F2CC5563}
  9
$EXTNAMES
290
1
  9
$PSVPSCALE
 40
0.0
  9
$OLESTARTUP
290
0
  9
$SORTENTS
280
127
  9
$INDEXCTL
280
0
  9
$HIDETEXT
280
1
  9
$XCLIPFRAME
280
1
  9
$HALOGAP
280
0
  9
$OBSCOLOR
 70
257
  9
$OBSLTYPE
280
0
  9
$INTERSECTIONDISPLAY
280
0
  9
$INTERSECTIONCOLOR
 70
257
  9
$DIMASSOC
280
2
  9
$PROJECTNAME
  1

  9
$CAMERADISPLAY
290
0
  9
$LENSLENGTH
 40
50.0
  9
$CAMERAHEIGHT
 40
0.0
  9
$STEPSPERSEC
 40
24.0
  9
$STEPSIZE
 40
100.0
  9
$3DDWFPREC
 40
2.0
  9
$PSOLWIDTH
 40
0.005
  9
$PSOLHEIGHT
 40
0.08
  9
$LOFTANG1
 40
1.570796326795
  9
$LOFTANG2
 40
1.570796326795
  9
$LOFTMAG1
 40
0.0
  9
$LOFTMAG2
 40
0.0
  9
$LOFTPARAM
 70
7
  9
$LOFTNORMALS
280
1
  9
$LATITUDE
 40
37.795
  9
$LONGITUDE
 40
-122.394
  9
$NORTHDIRECTION
 40
0.0
  9
$TIMEZONE
 70
-8000
  9
$LIGHTGLYPHDISPLAY
280
1
  9
$TILEMODELIGHTSYNCH
280
1
  9
$CMATERIAL
347
20
  9
$SOLIDHIST
280
0
  9
$SHOWHIST
280
1
  9
$DWFFRAME
280
2
  9
$DGNFRAME
280
2
  9
$REALWORLDSCALE
290
1
  9
$INTERFERECOLOR
 62
256
  9
$CSHADOW
280
0
  9
$SHADOWPLANELOCATION
 40
0.0
  0
ENDSEC
  0
SECTION
  2
CLASSES
  0
CLASS
  1
ACDBDICTIONARYWDFLT
  2
AcDbDictionaryWithDefault
  3
ObjectDBX Classes
 90
0
 91
0
280
0
281
0
  0
CLASS
  1
SUN
  2
AcDbSun
  3
SCENEOE
 90
1153
 91
0
280
0
281
0
  0
CLASS
  1
VISUALSTYLE
  2
AcDbVisualStyle
  3
ObjectDBX Classes
 90
4095
 91
0
280
0
281
0
  0
CLASS
  1
MATERIAL
  2
AcDbMaterial
  3
ObjectDBX Classes
 90
1153
 91
0
280
0
281
0
  0
CLASS
  1
SCALE
  2
AcDbScale
  3
ObjectDBX Classes
 90
1153
 91
0
280
0
281
0
  0
CLASS
  1
TABLESTYLE
  2
AcDbTableStyle
  3
ObjectDBX Classes
 90
4095
 91
0
280
0
281
0
  0
CLASS
  1
MLEADERSTYLE
  2
AcDbMLeaderStyle
  3
ACDB_MLEADERSTYLE_CLASS
 90
4095
 91
0
280
0
281
0
  0
CLASS
  1
DICTIONARYVAR
  2
AcDbDictionaryVar
  3
ObjectDBX Classes
 90
0
 91
0
280
0
281
0
  0
CLASS
  1
CELLSTYLEMAP
  2
AcDbCellStyleMap
  3
ObjectDBX Classes
 90
1152
 91
0
280
0
281
0
  0
CLASS
  1
MENTALRAYRENDERSETTINGS
  2
AcDbMentalRayRenderSettings
  3
SCENEOE
 90
1024
 91
0
280
0
281
0
  0
CLASS
  1
ACDBDETAILVIEWSTYLE
  2
AcDbDetailViewStyle
  3
ObjectDBX Classes
 90
1025
 91
0
280
0
281
0
  0
CLASS
  1
ACDBSECTIONVIEWSTYLE
  2
AcDbSectionViewStyle
  3
ObjectDBX Classes
 90
1025
 91
0
280
0
281
0
  0
CLASS
  1
RASTERVARIABLES
  2
AcDbRasterVariables
  3
ISM
 90
0
 91
0
280
0
281
0
  0
CLASS
  1
LAYOUT
  2
AcDbLayout
  3
ObjectDBX Classes
 90
0
 91
0
280
0
281
0
  0
CLASS
  1
ACDBPLACEHOLDER
  2
AcDbPlaceHolder
  3
ObjectDBX Classes
 90
0
 91
0
280
0
281
0
  0
ENDSEC
  0
SECTION
  2
TABLES
  0
TABLE
  2
VPORT
  5
8
330
0
100
AcDbSymbolTable
 70
1
  0
VPORT
  5
23
330
8
100
AcDbSymbolTableRecord
100
AcDbViewportTableRecord
  2
*Active
 70
0
 10
0.0
 20
0.0
 11
1.0
 21
1.0
 12
0.0
 22
0.0
 13
0.0
 23
0.0
 14
0.5
 24
0.5
 15
0.5
 25
0.5
 16
0.0
 26
0.0
 36
1.0
 17
0.0
 27
0.0
 37
0.0
 40
1000.0
 41
1.34
 42
50.0
 43
0.0
 44
0.0
 50
0.0
 51
0.0
 71
0
 72
1000
 73
1
 74
3
 75
0
 76
0
 77
0
 78
0
281
0
 65
0
146
0.0
  0
ENDTAB
  0
TABLE
  2
LTYPE
  5
2
330
0
100
AcDbSymbolTable
 70
21
  0
LTYPE
  5
24
330
2
100
AcDbSymbolTableRecord
100
AcDbLinetypeTableRecord
  2
ByBlock
 70
0
  3

 72
65
 73
0
 40
0.0
  0
LTYPE
  5
25
330
2
100
AcDbSymbolTableRecord
100
AcDbLinetypeTableRecord
  2
ByLayer
 70
0
  3

 72
65
 73
0
 40
0.0
  0
LTYPE
  5
26
330
2
100
AcDbSymbolTableRecord
100
AcDbLinetypeTableRecord
  2
Continuous
 70
0
  3

 72
65
 73
0
 40
0.0
  0
LTYPE
  5
2F
330
2
100
AcDbSymbolTableRecord
100
AcDbLinetypeTableRecord
  2
CENTER
 70
0
  3
Center ____ _ ____ _ ____ _ ____ _ ____ _ ____
 72
65
 73
4
 40
2.0
 49
1.25
 74
0
 49
-0.25
 74
0
 49
0.25
 74
0
 49
-0.25
 74
0
  0
LTYPE
  5
30
330
2
100
AcDbSymbolTableRecord
100
AcDbLinetypeTableRecord
  2
CENTERX2
 70
0
  3
Center (2x) ________  __  ________  __  ________
 72
65
 73
4
 40
3.5
 49
2.5
 74
0
 49
-0.25
 74
0
 49
0.5
 74
0
 49
-0.25
 74
0
  0
LTYPE
  5
31
330
2
100
AcDbSymbolTableRecord
100
AcDbLinetypeTableRecord
  2
CENTER2
 70
0
  3
Center (.5x) ____ _ ____ _ ____ _ ____ _ ____
 72
65
 73
4
 40
1.0
 49
0.625
 74
0
 49
-0.125
 74
0
 49
0.125
 74
0
 49
-0.125
 74
0
  0
LTYPE
  5
32
330
2
100
AcDbSymbolTableRecord
100
AcDbLinetypeTableRecord
  2
DASHED
 70
0
  3
Dashed __ __ __ __ __ __ __ __ __ __ __ __ __ _
 72
65
 73
2
 40
0.6
 49
0.5
 74
0
 49
-0.1
 74
0
  0
LTYPE
  5
33
330
2
100
AcDbSymbolTableRecord
100
AcDbLinetypeTableRecord
  2
DASHEDX2
 70
0
  3
Dashed (2x) ____  ____  ____  ____  ____  ____
 72
65
 73
2
 40
1.2
 49
1.0
 74
0
 49
-0.2
 74
0
  0
LTYPE
  5
34
330
2
100
AcDbSymbolTableRecord
100
AcDbLinetypeTableRecord
  2
DASHED2
 70
0
  3
Dashed (.5x) _ _ _ _ _ _ _ _ _ _ _ _ _ _
 72
65
 73
2
 40
0.3
 49
0.25
 74
0
 49
-0.05
 74
0
  0
LTYPE
  5
35
330
2
100
AcDbSymbolTableRecord
100
AcDbLinetypeTableRecord
  2
PHANTOM
 70
0
  3
Phantom ______  __  __  ______  __  __  ______
 72
65
 73
6
 40
2.5
 49
1.25
 74
0
 49
-0.25
 74
0
 49
0.25
 74
0
 49
-0.25
 74
0
 49
0.25
 74
0
 49
-0.25
 74
0
  0
LTYPE
  5
36
330
2
100
AcDbSymbolTableRecord
100
AcDbLinetypeTableRecord
  2
PHANTOMX2
 70
0
  3
Phantom (2x)____________    ____    ____    ____________
 72
65
 73
6
 40
4.25
 49
2.5
 74
0
 49
-0.25
 74
0
 49
0.5
 74
0
 49
-0.25
 74
0
 49
0.5
 74
0
 49
-0.25
 74
0
  0
LTYPE
  5
37
330
2
100
AcDbSymbolTableRecord
100
AcDbLinetypeTableRecord
  2
PHANTOM2
 70
0
  3
Phantom (.5x) ___ _ _ ___ _ _ ___ _ _ ___ _ _ ___
 72
65
 73
6
 40
1.25
 49
0.625
 74
0
 49
-0.125
 74
0
 49
0.125
 74
0
 49
-0.125
 74
0
 49
0.125
 74
0
 49
-0.125
 74
0
  0
LTYPE
  5
38
330
2
100
AcDbSymbolTableRecord
100
AcDbLinetypeTableRecord
  2
DASHDOT
 70
0
  3
Dash dot __ . __ . __ . __ . __ . __ . __ . __
 72
65
 73
4
 40
1.4
 49
1.0
 74
0
 49
-0.2
 74
0
 49
0.0
 74
0
 49
-0.2
 74
0
  0
LTYPE
  5
39
330
2
100
AcDbSymbolTableRecord
100
AcDbLinetypeTableRecord
  2
DASHDOTX2
 70
0
  3
Dash dot (2x) ____  .  ____  .  ____  .  ____
 72
65
 73
4
 40
2.4
 49
2.0
 74
0
 49
-0.2
 74
0
 49
0.0
 74
0
 49
-0.2
 74
0
  0
LTYPE
  5
3A
330
2
100
AcDbSymbolTableRecord
100
AcDbLinetypeTableRecord
  2
DASHDOT2
 70
0
  3
Dash dot (.5x) _ . _ . _ . _ . _ . _ . _ . _
 72
65
 73
4
 40
0.7
 49
0.5
 74
0
 49
-0.1
 74
0
 49
0.0
 74
0
 49
-0.1
 74
0
  0
LTYPE
  5
3B
330
2
100
AcDbSymbolTableRecord
100
AcDbLinetypeTableRecord
  2
DOT
 70
0
  3
Dot .  .  .  .  .  .  .  .  .  .  .  .  .  .  .  .
 72
65
 73
2
 40
0.2
 49
0.0
 74
0
 49
-0.2
 74
0
  0
LTYPE
  5
3C
330
2
100
AcDbSymbolTableRecord
100
AcDbLinetypeTableRecord
  2
DOTX2
 70
0
  3
Dot (2x) .    .    .    .    .    .    .    . 
 72
65
 73
2
 40
0.4
 49
0.0
 74
0
 49
-0.4
 74
0
  0
LTYPE
  5
3D
330
2
100
AcDbSymbolTableRecord
100
AcDbLinetypeTableRecord
  2
DOT2
 70
0
  3
Dot (.5) . . . . . . . . . . . . . . . . . . . 
 72
65
 73
2
 40
0.1
 49
0.0
 74
0
 49
-0.1
 74
0
  0
LTYPE
  5
3E
330
2
100
AcDbSymbolTableRecord
100
AcDbLinetypeTableRecord
  2
DIVIDE
 70
0
  3
Divide __ . . __ . . __ . . __ . . __ . . __
 72
65
 73
6
 40
1.6
 49
1.0
 74
0
 49
-0.2
 74
0
 49
0.0
 74
0
 49
-0.2
 74
0
 49
0.0
 74
0
 49
-0.2
 74
0
  0
LTYPE
  5
3F
330
2
100
AcDbSymbolTableRecord
100
AcDbLinetypeTableRecord
  2
DIVIDEX2
 70
0
  3
Divide (2x) ____  . .  ____  . .  ____  . .  ____
 72
65
 73
6
 40
2.6
 49
2.0
 74
0
 49
-0.2
 74
0
 49
0.0
 74
0
 49
-0.2
 74
0
 49
0.0
 74
0
 49
-0.2
 74
0
  0
LTYPE
  5
40
330
2
100
AcDbSymbolTableRecord
100
AcDbLinetypeTableRecord
  2
DIVIDE2
 70
0
  3
Divide(.5x) _ . _ . _ . _ . _ . _ . _ . _
 72
65
 73
6
 40
0.8
 49
0.5
 74
0
 49
-0.1
 74
0
 49
0.0
 74
0
 49
-0.1
 74
0
 49
0.0
 74
0
 49
-0.1
 74
0
  0
ENDTAB
  0
TABLE
  2
LAYER
  5
1
330
0
100
AcDbSymbolTable
 70
10
  0
LAYER
  5
27
330
1
100
AcDbSymbolTableRecord
100
AcDbLayerTableRecord
  2
0
 70
0
 62
7
  6
Continuous
370
-3
390
13
347
21
  0
LAYER
  5
28
330
1
100
AcDbSymbolTableRecord
100
AcDbLayerTableRecord
  2
Defpoints
 70
0
 62
7
  6
Continuous
290
0
370
-3
390
13
347
21
  0
LAYER
  5
8A
330
1
100
AcDbSymbolTableRecord
100
AcDbLayerTableRecord
  2
Front elevation
 70
0
 62
7
  6
Continuous
370
-3
390
13
347
21
  0
LAYER
  5
8B
330
1
100
AcDbSymbolTableRecord
100
AcDbLayerTableRecord
  2
Front elevation hatch
 70
0
 62
8
  6
Continuous
370
-3
390
13
347
21
  0
LAYER
  5
11D
330
1
100
AcDbSymbolTableRecord
100
AcDbLayerTableRecord
  2
Panel head - detail A
 70
0
 62
7
  6
Continuous
370
-3
390
13
347
21
  0
LAYER
  5
11E
330
1
100
AcDbSymbolTableRecord
100
AcDbLayerTableRecord
  2
Panel head - detail A hatch
 70
0
 62
8
  6
Continuous
370
-3
390
13
347
21
  0
LAYER
  5
12E
330
1
100
AcDbSymbolTableRecord
100
AcDbLayerTableRecord
  2
Section B-B
 70
0
 62
7
  6
Continuous
370
-3
390
13
347
21
  0
LAYER
  5
12F
330
1
100
AcDbSymbolTableRecord
100
AcDbLayerTableRecord
  2
Section B-B hatch
 70
0
 62
8
  6
Continuous
370
-3
390
13
347
21
  0
LAYER
  5
160
330
1
100
AcDbSymbolTableRecord
100
AcDbLayerTableRecord
  2
Lock rail - detail C
 70
0
 62
7
  6
Continuous
370
-3
390
13
347
21
  0
LAYER
  5
161
330
1
100
AcDbSymbolTableRecord
100
AcDbLayerTableRecord
  2
Lock rail - detail C hatch
 70
0
 62
8
  6
Continuous
370
-3
390
13
347
21
  0
ENDTAB
  0
TABLE
  2
STYLE
  5
5
330
0
100
AcDbSymbolTable
 70
26
  0
STYLE
  5
29
330
5
100
AcDbSymbolTableRecord
100
AcDbTextStyleTableRecord
  2
Standard
 70
0
 40
0.0
 41
1.0
 50
0.0
 71
0
 42
2.5
  3
txt
  4

  0
STYLE
  5
41
330
5
100
AcDbSymbolTableRecord
100
AcDbTextStyleTableRecord
  2
OpenSans-Light
 70
0
 40
0.0
 41
1.0
 50
0.0
 71
0
 42
2.5
  3
OpenSans-Light.ttf
  4

  0
STYLE
  5
42
330
5
100
AcDbSymbolTableRecord
100
AcDbTextStyleTableRecord
  2
OpenSans-Light-Italic
 70
0
 40
0.0
 41
1.0
 50
0.0
 71
0
 42
2.5
  3
OpenSans-LightItalic.ttf
  4

  0
STYLE
  5
43
330
5
100
AcDbSymbolTableRecord
100
AcDbTextStyleTableRecord
  2
OpenSans
 70
0
 40
0.0
 41
1.0
 50
0.0
 71
0
 42
2.5
  3
OpenSans-Regular.ttf
  4

  0
STYLE
  5
44
330
5
100
AcDbSymbolTableRecord
100
AcDbTextStyleTableRecord
  2
OpenSans-Italic
 70
0
 40
0.0
 41
1.0
 50
0.0
 71
0
 42
2.5
  3
OpenSans-Italic.ttf
  4

  0
STYLE
  5
45
330
5
100
AcDbSymbolTableRecord
100
AcDbTextStyleTableRecord
  2
OpenSans-SemiBold
 70
0
 40
0.0
 41
1.0
 50
0.0
 71
0
 42
2.5
  3
OpenSans-SemiBold.ttf
  4

  0
STYLE
  5
46
330
5
100
AcDbSymbolTableRecord
100
AcDbTextStyleTableRecord
  2
OpenSans-SemiBoldItalic
 70
0
 40
0.0
 41
1.0
 50
0.0
 71
0
 42
2.5
  3
OpenSans-SemiBoldItalic.ttf
  4

  0
STYLE
  5
47
330
5
100
AcDbSymbolTableRecord
100
AcDbTextStyleTableRecord
  2
OpenSans-Bold
 70
0
 40
0.0
 41
1.0
 50
0.0
 71
0
 42
2.5
  3
OpenSans-Bold.ttf
  4

  0
STYLE
  5
48
330
5
100
AcDbSymbolTableRecord
100
AcDbTextStyleTableRecord
  2
OpenSans-BoldItalic
 70
0
 40
0.0
 41
1.0
 50
0.0
 71
0
 42
2.5
  3
OpenSans-BoldItalic.ttf
  4

  0
STYLE
  5
49
330
5
100
AcDbSymbolTableRecord
100
AcDbTextStyleTableRecord
  2
OpenSans-ExtraBold
 70
0
 40
0.0
 41
1.0
 50
0.0
 71
0
 42
2.5
  3
OpenSans-ExtraBold.ttf
  4

  0
STYLE
  5
4A
330
5
100
AcDbSymbolTableRecord
100
AcDbTextStyleTableRecord
  2
OpenSans-ExtraBoldItalic
 70
0
 40
0.0
 41
1.0
 50
0.0
 71
0
 42
2.5
  3
OpenSans-ExtraBoldItalic.ttf
  4

  0
STYLE
  5
4B
330
5
100
AcDbSymbolTableRecord
100
AcDbTextStyleTableRecord
  2
OpenSansCondensed-Bold
 70
0
 40
0.0
 41
1.0
 50
0.0
 71
0
 42
2.5
  3
OpenSansCondensed-Bold.ttf
  4

  0
STYLE
  5
4C
330
5
100
AcDbSymbolTableRecord
100
AcDbTextStyleTableRecord
  2
OpenSansCondensed-Light
 70
0
 40
0.0
 41
1.0
 50
0.0
 71
0
 42
2.5
  3
OpenSansCondensed-Light.ttf
  4

  0
STYLE
  5
4D
330
5
100
AcDbSymbolTableRecord
100
AcDbTextStyleTableRecord
  2
OpenSansCondensed-Italic
 70
0
 40
0.0
 41
1.0
 50
0.0
 71
0
 42
2.5
  3
OpenSansCondensed-LightItalic.ttf
  4

  0
STYLE
  5
4E
330
5
100
AcDbSymbolTableRecord
100
AcDbTextStyleTableRecord
  2
LiberationSans
 70
0
 40
0.0
 41
1.0
 50
0.0
 71
0
 42
2.5
  3
LiberationSans-Regular.ttf
  4

  0
STYLE
  5
4F
330
5
100
AcDbSymbolTableRecord
100
AcDbTextStyleTableRecord
  2
LiberationSans-Bold
 70
0
 40
0.0
 41
1.0
 50
0.0
 71
0
 42
2.5
  3
LiberationSans-Bold.ttf
  4

  0
STYLE
  5
50
330
5
100
AcDbSymbolTableRecord
100
AcDbTextStyleTableRecord
  2
LiberationSans-BoldItalic
 70
0
 40
0.0
 41
1.0
 50
0.0
 71
0
 42
2.5
  3
LiberationSans-BoldItalic.ttf
  4

  0
STYLE
  5
51
330
5
100
AcDbSymbolTableRecord
100
AcDbTextStyleTableRecord
  2
LiberationSans-Italic
 70
0
 40
0.0
 41
1.0
 50
0.0
 71
0
 42
2.5
  3
LiberationSans-Italic.ttf
  4

  0
STYLE
  5
52
330
5
100
AcDbSymbolTableRecord
100
AcDbTextStyleTableRecord
  2
LiberationSerif
 70
0
 40
0.0
 41
1.0
 50
0.0
 71
0
 42
2.5
  3
LiberationSerif-Regular.ttf
  4

  0
STYLE
  5
53
330
5
100
AcDbSymbolTableRecord
100
AcDbTextStyleTableRecord
  2
LiberationSerif-Bold
 70
0
 40
0.0
 41
1.0
 50
0.0
 71
0
 42
2.5
  3
LiberationSerif-Bold.ttf
  4

  0
STYLE
  5
54
330
5
100
AcDbSymbolTableRecord
100
AcDbTextStyleTableRecord
  2
LiberationSerif-BoldItalic
 70
0
 40
0.0
 41
1.0
 50
0.0
 71
0
 42
2.5
  3
LiberationSerif-BoldItalic.ttf
  4

  0
STYLE
  5
55
330
5
100
AcDbSymbolTableRecord
100
AcDbTextStyleTableRecord
  2
LiberationSerif-Italic
 70
0
 40
0.0
 41
1.0
 50
0.0
 71
0
 42
2.5
  3
LiberationSerif-Italic.ttf
  4

  0
STYLE
  5
56
330
5
100
AcDbSymbolTableRecord
100
AcDbTextStyleTableRecord
  2
LiberationMono
 70
0
 40
0.0
 41
1.0
 50
0.0
 71
0
 42
2.5
  3
LiberationMono-Regular.ttf
  4

  0
STYLE
  5
57
330
5
100
AcDbSymbolTableRecord
100
AcDbTextStyleTableRecord
  2
LiberationMono-Bold
 70
0
 40
0.0
 41
1.0
 50
0.0
 71
0
 42
2.5
  3
LiberationMono-Bold.ttf
  4

  0
STYLE
  5
58
330
5
100
AcDbSymbolTableRecord
100
AcDbTextStyleTableRecord
  2
LiberationMono-BoldItalic
 70
0
 40
0.0
 41
1.0
 50
0.0
 71
0
 42
2.5
  3
LiberationMono-BoldItalic.ttf
  4

  0
STYLE
  5
59
330
5
100
AcDbSymbolTableRecord
100
AcDbTextStyleTableRecord
  2
LiberationMono-Italic
 70
0
 40
0.0
 41
1.0
 50
0.0
 71
0
 42
2.5
  3
LiberationMono-Italic.ttf
  4

  0
ENDTAB
  0
TABLE
  2
VIEW
  5
7
330
0
100
AcDbSymbolTable
 70
0
  0
ENDTAB
  0
TABLE
  2
UCS
  5
6
330
0
100
AcDbSymbolTable
 70
0
  0
ENDTAB
  0
TABLE
  2
APPID
  5
3
330
0
100
AcDbSymbolTable
 70
3
  0
APPID
  5
2A
330
3
100
AcDbSymbolTableRecord
100
AcDbRegAppTableRecord
  2
ACAD
 70
0
  0
APPID
  5
178
330
3
100
AcDbSymbolTableRecord
100
AcDbRegAppTableRecord
  2
HATCHBACKGROUNDCOLOR
 70
0
  0
APPID
  5
179
330
3
100
AcDbSymbolTableRecord
100
AcDbRegAppTableRecord
  2
EZDXF
 70
0
  0
ENDTAB
  0
TABLE
  2
DIMSTYLE
  5
4
330
0
100
AcDbSymbolTable
 70
12
100
AcDbDimStyleTable
  0
DIMSTYLE
105
2B
330
4
100
AcDbSymbolTableRecord
100
AcDbDimStyleTableRecord
  2
Standard
 70
0
 40
1.0
 41
2.5
 42
0.625
 43
3.75
 44
1.25
 45
0.0
 46
0.0
 47
0.0
 48
0.0
 49
2.5
140
2.5
141
2.5
142
0.0
143
0.03937007874
144
1.0
145
0.0
146
1.0
147
0.625
148
0.0
 69
0
 70
0
 71
0
 72
0
 73
0
 74
0
 75
0
 76
0
 77
1
 78
8
 79
3
170
0
171
3
172
1
173
0
174
0
175
0
176
0
177
0
178
0
179
2
271
2
272
2
273
2
274
3
275
0
276
0
277
2
278
44
279
0
280
0
281
0
282
0
283
0
284
8
285
0
286
0
288
0
289
3
290
0
371
-2
372
-2
  0
DIMSTYLE
105
73
330
4
100
AcDbSymbolTableRecord
100
AcDbDimStyleTableRecord
  2
EZDXF
 70
0
 40
1.0
 41
0.175
 42
0.125
 43
3.75
 44
0.375
 45
0.0
 46
0.0
 47
0.0
 48
0.0
 49
2.5
140
0.25
141
2.5
142
0.0
143
0.03937007874
144
100.0
145
0.0
146
0.5
147
0.1
148
0.0
 69
0
 70
0
 71
0
 72
0
 73
0
 74
0
 75
0
 76
0
 77
1
 78
12
 79
3
170
0
171
3
172
1
173
0
174
0
175
0
176
0
177
0
178
0
179
2
271
2
272
2
273
2
274
3
275
0
276
0
277
2
278
46
279
2
280
0
281
0
282
0
283
0
284
8
285
0
286
0
288
1
289
3
290
0
340
4C
342
74
371
-2
372
-2
  0
DIMSTYLE
105
7C
330
4
100
AcDbSymbolTableRecord
100
AcDbDimStyleTableRecord
  2
EZ_M_100_H25_CM
 70
0
 40
1.0
 41
0.25
 42
0.125
 43
3.75
 44
0.375
 45
0.0
 46
0.0
 47
0.0
 48
0.0
 49
2.5
140
0.25
141
2.5
142
0.125
143
0.03937007874
144
100.0
145
0.0
146
0.5
147
0.1
148
0.0
 69
0
 70
0
 71
0
 72
0
 73
0
 74
0
 75
0
 76
0
 77
1
 78
12
 79
3
170
0
171
3
172
1
173
0
174
0
175
0
176
0
177
0
178
0
179
2
271
2
272
2
273
2
274
3
275
0
276
0
277
2
278
46
279
2
280
0
281
0
282
0
283
0
284
8
285
0
286
0
288
1
289
3
290
0
340
4C
371
-2
372
-2
  0
DIMSTYLE
105
7D
330
4
100
AcDbSymbolTableRecord
100
AcDbDimStyleTableRecord
  2
EZ_M_50_H25_CM
 70
0
 40
1.0
 41
0.125
 42
0.0625
 43
3.75
 44
0.1875
 45
0.0
 46
0.0
 47
0.0
 48
0.0
 49
2.5
140
0.125
141
2.5
142
0.0625
143
0.03937007874
144
100.0
145
0.0
146
0.5
147
0.05
148
0.0
 69
0
 70
0
 71
0
 72
0
 73
0
 74
0
 75
0
 76
0
 77
1
 78
12
 79
3
170
0
171
3
172
1
173
0
174
0
175
0
176
0
177
0
178
0
179
2
271
2
272
2
273
2
274
3
275
0
276
0
277
2
278
46
279
2
280
0
281
0
282
0
283
0
284
8
285
0
286
0
288
1
289
3
290
0
340
4C
371
-2
372
-2
  0
DIMSTYLE
105
7E
330
4
100
AcDbSymbolTableRecord
100
AcDbDimStyleTableRecord
  2
EZ_M_25_H25_CM
 70
0
 40
1.0
 41
0.0625
 42
0.03125
 43
3.75
 44
0.09375
 45
0.0
 46
0.0
 47
0.0
 48
0.0
 49
2.5
140
0.0625
141
2.5
142
0.03125
143
0.03937007874
144
100.0
145
0.0
146
0.5
147
0.025
148
0.0
 69
0
 70
0
 71
0
 72
0
 73
0
 74
0
 75
0
 76
0
 77
1
 78
12
 79
3
170
0
171
3
172
1
173
0
174
0
175
0
176
0
177
0
178
0
179
2
271
2
272
2
273
2
274
3
275
0
276
0
277
2
278
46
279
2
280
0
281
0
282
0
283
0
284
8
285
0
286
0
288
1
289
3
290
0
340
4C
371
-2
372
-2
  0
DIMSTYLE
105
7F
330
4
100
AcDbSymbolTableRecord
100
AcDbDimStyleTableRecord
  2
EZ_M_20_H25_CM
 70
0
 40
1.0
 41
0.05
 42
0.025
 43
3.75
 44
0.07500000000000001
 45
0.0
 46
0.0
 47
0.0
 48
0.0
 49
2.5
140
0.05
141
2.5
142
0.025
143
0.03937007874
144
100.0
145
0.0
146
0.5
147
0.020000000000000004
148
0.0
 69
0
 70
0
 71
0
 72
0
 73
0
 74
0
 75
0
 76
0
 77
1
 78
12
 79
3
170
0
171
3
172
1
173
0
174
0
175
0
176
0
177
0
178
0
179
2
271
2
272
2
273
2
274
3
275
0
276
0
277
2
278
46
279
2
280
0
281
0
282
0
283
0
284
8
285
0
286
0
288
1
289
3
290
0
340
4C
371
-2
372
-2
  0
DIMSTYLE
105
80
330
4
100
AcDbSymbolTableRecord
100
AcDbDimStyleTableRecord
  2
EZ_M_10_H25_CM
 70
0
 40
1.0
 41
0.025
 42
0.0125
 43
3.75
 44
0.037500000000000006
 45
0.0
 46
0.0
 47
0.0
 48
0.0
 49
2.5
140
0.025
141
2.5
142
0.0125
143
0.03937007874
144
100.0
145
0.0
146
0.5
147
0.010000000000000002
148
0.0
 69
0
 70
0
 71
0
 72
0
 73
0
 74
0
 75
0
 76
0
 77
1
 78
12
 79
3
170
0
171
3
172
1
173
0
174
0
175
0
176
0
177
0
178
0
179
2
271
2
272
2
273
2
274
3
275
0
276
0
277
2
278
46
279
2
280
0
281
0
282
0
283
0
284
8
285
0
286
0
288
1
289
3
290
0
340
4C
371
-2
372
-2
  0
DIMSTYLE
105
81
330
4
100
AcDbSymbolTableRecord
100
AcDbDimStyleTableRecord
  2
EZ_M_5_H25_CM
 70
0
 40
1.0
 41
0.0125
 42
0.00625
 43
3.75
 44
0.018750000000000003
 45
0.0
 46
0.0
 47
0.0
 48
0.0
 49
2.5
140
0.0125
141
2.5
142
0.00625
143
0.03937007874
144
100.0
145
0.0
146
0.5
147
0.005000000000000001
148
0.0
 69
0
 70
0
 71
0
 72
0
 73
0
 74
0
 75
0
 76
0
 77
1
 78
12
 79
3
170
0
171
3
172
1
173
0
174
0
175
0
176
0
177
0
178
0
179
2
271
2
272
2
273
2
274
3
275
0
276
0
277
2
278
46
279
2
280
0
281
0
282
0
283
0
284
8
285
0
286
0
288
1
289
3
290
0
340
4C
371
-2
372
-2
  0
DIMSTYLE
105
82
330
4
100
AcDbSymbolTableRecord
100
AcDbDimStyleTableRecord
  2
EZ_M_1_H25_CM
 70
0
 40
1.0
 41
0.0025
 42
0.00125
 43
3.75
 44
0.00375
 45
0.0
 46
0.0
 47
0.0
 48
0.0
 49
2.5
140
0.0025
141
2.5
142
0.00125
143
0.03937007874
144
100.0
145
0.0
146
0.5
147
0.001
148
0.0
 69
0
 70
0
 71
0
 72
0
 73
0
 74
0
 75
0
 76
0
 77
1
 78
12
 79
3
170
0
171
3
172
1
173
0
174
0
175
0
176
0
177
0
178
0
179
2
271
2
272
2
273
2
274
3
275
0
276
0
277
2
278
46
279
2
280
0
281
0
282
0
283
0
284
8
285
0
286
0
288
1
289
3
290
0
340
4C
371
-2
372
-2
  0
DIMSTYLE
105
83
330
4
100
AcDbSymbolTableRecord
100
AcDbDimStyleTableRecord
  2
EZ_RADIUS
 70
0
 40
1.0
 41
0.25
 42
0.125
 43
3.75
 44
0.375
 45
0.0
 46
0.0
 47
0.0
 48
0.0
 49
2.5
140
0.25
141
0.0
142
0.0
143
0.03937007874
144
100.0
145
0.0
146
0.5
147
0.1
148
0.0
 69
0
 70
0
 71
0
 72
0
 73
0
 74
0
 75
0
 76
0
 77
1
 78
12
 79
3
170
0
171
3
172
0
173
0
174
0
175
0
176
0
177
0
178
0
179
2
271
2
272
2
273
2
274
3
275
0
276
0
277
2
278
46
279
1
280
0
281
0
282
0
283
0
284
8
285
0
286
0
288
1
289
3
290
0
340
4C
342
84
371
-2
372
-2
  0
DIMSTYLE
105
88
330
4
100
AcDbSymbolTableRecord
100
AcDbDimStyleTableRecord
  2
EZ_RADIUS_INSIDE
 70
0
 40
1.0
 41
0.25
 42
0.125
 43
3.75
 44
0.375
 45
0.0
 46
0.0
 47
0.0
 48
0.0
 49
2.5
140
0.25
141
0.0
142
0.0
143
0.03937007874
144
100.0
145
0.0
146
0.5
147
0.1
148
0.0
 69
0
 70
0
 71
0
 72
0
 73
0
 74
0
 75
0
 76
0
 77
0
 78
12
 79
3
170
0
171
3
172
0
173
0
174
1
175
0
176
0
177
0
178
0
179
2
271
2
272
2
273
2
274
3
275
0
276
0
277
2
278
46
279
0
280
0
281
0
282
0
283
0
284
8
285
0
286
0
288
1
289
0
290
0
340
4C
342
84
371
-2
372
-2
  0
DIMSTYLE
105
89
330
4
100
AcDbSymbolTableRecord
100
AcDbDimStyleTableRecord
  2
EZ_CURVED
 70
0
 40
1.0
 41
0.25
 42
0.125
 43
3.75
 44
0.375
 45
0.0
 46
0.0
 47
0.0
 48
0.0
 49
2.5
140
0.25
141
2.5
142
0.0
143
0.03937007874
144
100.0
145
0.0
146
0.5
147
0.1
148
0.0
 69
0
 70
0
 71
0
 72
0
 73
0
 74
0
 75
0
 76
0
 77
1
 78
12
 79
2
 90
2
170
0
171
3
172
1
173
0
174
0
175
0
176
0
177
0
178
0
179
2
271
2
272
2
273
2
274
3
275
0
276
0
277
2
278
46
279
2
280
0
281
0
282
0
283
0
284
8
285
0
286
0
288
1
289
3
290
0
340
4C
371
-2
372
-2
  0
ENDTAB
  0
TABLE
  2
BLOCK_RECORD
  5
9
330
0
100
AcDbSymbolTable
 70
5
  0
BLOCK_RECORD
  5
17
330
9
100
AcDbSymbolTableRecord
100
AcDbBlockTableRecord
  2
*Model_Space
340
1A
 70
0
280
1
281
0
  0
BLOCK_RECORD
  5
1B
330
9
100
AcDbSymbolTableRecord
100
AcDbBlockTableRecord
  2
*Paper_Space
340
1E
 70
0
280
1
281
0
  0
BLOCK_RECORD
  5
74
330
9
100
AcDbSymbolTableRecord
100
AcDbBlockTableRecord
  2
_ARCHTICK
340
0
 70
0
280
1
281
0
  0
BLOCK_RECORD
  5
78
330
9
100
AcDbSymbolTableRecord
100
AcDbBlockTableRecord
  2
_CLOSEDFILLED
340
0
 70
0
280
1
281
0
  0
BLOCK_RECORD
  5
84
330
9
100
AcDbSymbolTableRecord
100
AcDbBlockTableRecord
  2
_CLOSEDBLANK
340
0
 70
0
280
1
281
0
  0
ENDTAB
  0
ENDSEC
  0
SECTION
  2
BLOCKS
  0
BLOCK
  5
18
330
17
100
AcDbEntity
  8
0
100
AcDbBlockBegin
  2
*Model_Space
 70
0
 10
0.0
 20
0.0
 30
0.0
  3
*Model_Space
  1

  0
ENDBLK
  5
19
330
17
100
AcDbEntity
  8
0
100
AcDbBlockEnd
  0
BLOCK
  5
1C
330
1B
100
AcDbEntity
  8
0
100
AcDbBlockBegin
  2
*Paper_Space
 70
0
 10
0.0
 20
0.0
 30
0.0
  3
*Paper_Space
  1

  0
ENDBLK
  5
1D
330
1B
100
AcDbEntity
  8
0
100
AcDbBlockEnd
  0
BLOCK
  5
75
330
74
100
AcDbEntity
  8
0
100
AcDbBlockBegin
  2
_ARCHTICK
 70
0
 10
0.0
 20
0.0
 30
0.0
  3
_ARCHTICK
  1

  0
LWPOLYLINE
  5
77
330
74
100
AcDbEntity
  8
0
  6
BYBLOCK
 62
0
100
AcDbPolyline
 90
2
 70
0
 43
0.15
 10
-0.5
 20
-0.5
 10
0.5
 20
0.5
  0
ENDBLK
  5
76
330
74
100
AcDbEntity
  8
0
100
AcDbBlockEnd
  0
BLOCK
  5
79
330
78
100
AcDbEntity
  8
0
100
AcDbBlockBegin
  2
_CLOSEDFILLED
 70
0
 10
0.0
 20
0.0
 30
0.0
  3
_CLOSEDFILLED
  1

  0
SOLID
  5
7B
330
78
100
AcDbEntity
  8
0
  6
BYBLOCK
 62
0
100
AcDbTrace
 10
-1.0
 20
0.16439898372402537
 30
0.0
 11
0.0
 21
0.0
 31
0.0
 12
-1.0
 22
-0.16439898372402537
 32
0.0
 13
-1.0
 23
-0.16439898372402537
 33
0.0
  0
ENDBLK
  5
7A
330
78
100
AcDbEntity
  8
0
100
AcDbBlockEnd
  0
BLOCK
  5
85
330
84
100
AcDbEntity
  8
0
100
AcDbBlockBegin
  2
_CLOSEDBLANK
 70
0
 10
0.0
 20
0.0
 30
0.0
  3
_CLOSEDBLANK
  1

  0
LWPOLYLINE
  5
87
330
84
100
AcDbEntity
  8
0
  6
BYBLOCK
 62
0
100
AcDbPolyline
 90
3
 70
1
 10
-1.0
 20
0.16439898372402537
 10
0.0
 20
0.0
 10
-1.0
 20
-0.16439898372402537
  0
ENDBLK
  5
86
330
84
100
AcDbEntity
  8
0
100
AcDbBlockEnd
  0
ENDSEC
  0
SECTION
  2
ENTITIES
  0
LWPOLYLINE
  5
8C
330
17
100
AcDbEntity
  8
Front elevation
100
AcDbPolyline
 90
4
 70
0
 10
11.10236220472441
 20
0.0
 10
11.10236220472441
 20
92.99212598425197
 10
51.102362204724415
 20
92.99212598425197
 10
51.102362204724415
 20
0.0
  0
LWPOLYLINE
  5
8D
330
17
100
AcDbEntity
  8
Front elevation
  6
DASHED
100
AcDbPolyline
 90
4
 70
0
 10
7.086614173228346
 20
0.0
 10
7.086614173228346
 20
97.00787401574803
 10
55.118110236220474
 20
97.00787401574803
 10
55.118110236220474
 20
0.0
  0
LWPOLYLINE
  5
8E
330
17
100
AcDbEntity
  8
Front elevation
100
AcDbPolyline
 90
5
 70
0
 10
13.11023622047244
 20
90.98425196850394
 10
31.102362204724407
 20
90.98425196850394
 10
31.102362204724407
 20
0.0
 10
13.11023622047244
 20
0.0
 10
13.11023622047244
 20
90.98425196850394
  0
LINE
  5
8F
330
17
100
AcDbEntity
  8
Front elevation
100
AcDbLine
 10
17.04724409448819
 20
87.04724409448819
 30
0.0
 11
27.16535433070866
 21
87.04724409448819
 31
0.0
  0
LINE
  5
90
330
17
100
AcDbEntity
  8
Front elevation
100
AcDbLine
 10
17.04724409448819
 20
11.614173228346457
 30
0.0
 11
27.16535433070866
 21
11.614173228346457
 31
0.0
  0
LINE
  5
91
330
17
100
AcDbEntity
  8
Front elevation
100
AcDbLine
 10
17.04724409448819
 20
42.79527559055118
 30
0.0
 11
17.04724409448819
 21
33.74015748031496
 31
0.0
  0
LINE
  5
92
330
17
100
AcDbEntity
  8
Front elevation
100
AcDbLine
 10
27.16535433070866
 20
42.79527559055118
 30
0.0
 11
27.16535433070866
 21
33.74015748031496
 31
0.0
  0
LINE
  5
93
330
17
100
AcDbEntity
  8
Front elevation
100
AcDbLine
 10
17.04724409448819
 20
90.98425196850394
 30
0.0
 11
17.04724409448819
 21
87.04724409448819
 31
0.0
  0
LINE
  5
94
330
17
100
AcDbEntity
  8
Front elevation
100
AcDbLine
 10
27.16535433070866
 20
90.98425196850394
 30
0.0
 11
27.16535433070866
 21
87.04724409448819
 31
0.0
  0
LINE
  5
95
330
17
100
AcDbEntity
  8
Front elevation
100
AcDbLine
 10
17.04724409448819
 20
11.614173228346457
 30
0.0
 11
17.04724409448819
 21
0.0
 31
0.0
  0
LINE
  5
96
330
17
100
AcDbEntity
  8
Front elevation
100
AcDbLine
 10
27.16535433070866
 20
11.614173228346457
 30
0.0
 11
27.16535433070866
 21
0.0
 31
0.0
  0
LWPOLYLINE
  5
97
330
17
100
AcDbEntity
  8
Front elevation
100
AcDbPolyline
 90
5
 70
0
 10
17.04724409448819
 20
87.04724409448819
 10
27.16535433070866
 20
87.04724409448819
 10
27.16535433070866
 20
42.795275590551185
 10
17.04724409448819
 20
42.795275590551185
 10
17.04724409448819
 20
87.04724409448819
  0
LWPOLYLINE
  5
98
330
17
100
AcDbEntity
  8
Front elevation
100
AcDbPolyline
 90
5
 70
0
 10
17.834645669291337
 20
86.25984251968504
 10
26.37795275590551
 20
86.25984251968504
 10
26.37795275590551
 20
43.58267716535433
 10
17.834645669291337
 20
43.58267716535433
 10
17.834645669291337
 20
86.25984251968504
  0
LINE
  5
99
330
17
100
AcDbEntity
  8
Front elevation
100
AcDbLine
 10
17.04724409448819
 20
87.04724409448819
 30
0.0
 11
17.834645669291337
 21
86.25984251968504
 31
0.0
  0
LINE
  5
9A
330
17
100
AcDbEntity
  8
Front elevation
100
AcDbLine
 10
27.16535433070866
 20
87.04724409448819
 30
0.0
 11
26.37795275590551
 21
86.25984251968504
 31
0.0
  0
LINE
  5
9B
330
17
100
AcDbEntity
  8
Front elevation
100
AcDbLine
 10
17.04724409448819
 20
42.79527559055118
 30
0.0
 11
17.834645669291337
 21
43.58267716535433
 31
0.0
  0
LINE
  5
9C
330
17
100
AcDbEntity
  8
Front elevation
100
AcDbLine
 10
27.16535433070866
 20
42.79527559055118
 30
0.0
 11
26.37795275590551
 21
43.58267716535433
 31
0.0
  0
POLYLINE
  5
9D
330
17
100
AcDbEntity
  8
Front elevation
100
AcDb2dPolyline
 66
1
 10
0.0
 20
0.0
 30
0.0
 70
0
  0
VERTEX
  5
9E
330
9D
100
AcDbEntity
  8
Front elevation
100
AcDbVertex
100
AcDb2dVertex
 10
19.015748031496063
 20
47.44094488188977
 30
0.0
 70
0
  0
VERTEX
  5
9F
330
9D
100
AcDbEntity
  8
Front elevation
100
AcDbVertex
100
AcDb2dVertex
 10
19.015748031496063
 20
82.40157480314961
 30
0.0
 70
0
  0
SEQEND
  5
A0
330
9D
100
AcDbEntity
  8
Front elevation
  0
SPLINE
  5
A1
330
17
100
AcDbEntity
  8
Front elevation
100
AcDbSpline
 70
0
 71
3
 72
14
 73
10
 74
0
 40
0.0
 40
0.0
 40
0.0
 40
0.0
 40
1.0
 40
1.0
 40
1.0
 40
2.0
 40
2.0
 40
2.0
 40
3.0
 40
3.0
 40
3.0
 40
3.0
 10
19.015748031496063
 20
82.40157480314961
 30
0.0
 10
19.22305936430321
 20
82.40157480314961
 30
0.0
 10
19.426762331895027
 20
82.45615684881166
 30
0.0
 10
19.606299212598426
 20
82.55981251521523
 30
0.0
 10
19.785836093301825
 20
82.66346818161881
 30
0.0
 10
19.93495701523159
 20
82.81258910354858
 30
0.0
 10
20.038612681635165
 20
82.99212598425197
 30
0.0
 10
20.142268348038737
 20
83.17166286495537
 30
0.0
 10
20.196850393700785
 20
83.37536583254719
 30
0.0
 10
20.196850393700785
 20
83.58267716535434
 30
0.0
  0
SPLINE
  5
A2
330
17
100
AcDbEntity
  8
Front elevation
100
AcDbSpline
 70
0
 71
3
 72
11
 73
7
 74
0
 40
0.0
 40
0.0
 40
0.0
 40
0.0
 40
1.0
 40
1.0
 40
1.0
 40
2.0
 40
2.0
 40
2.0
 40
2.0
 10
20.196850393700785
 20
83.58267716535434
 30
0.0
 10
21.151574803149607
 20
83.58267716535434
 30
0.0
 10
20.92244094488189
 20
85.07874015748033
 30
0.0
 10
22.106299212598422
 20
85.07874015748033
 30
0.0
 10
23.29015748031496
 20
85.07874015748033
 30
0.0
 10
23.061023622047244
 20
83.58267716535434
 30
0.0
 10
24.015748031496063
 20
83.58267716535434
 30
0.0
  0
SPLINE
  5
A3
330
17
100
AcDbEntity
  8
Front elevation
100
AcDbSpline
 70
0
 71
3
 72
14
 73
10
 74
0
 40
0.0
 40
0.0
 40
0.0
 40
0.0
 40
1.0
 40
1.0
 40
1.0
 40
2.0
 40
2.0
 40
2.0
 40
3.0
 40
3.0
 40
3.0
 40
3.0
 10
24.015748031496063
 20
83.58267716535434
 30
0.0
 10
24.015748031496063
 20
83.37536583254719
 30
0.0
 10
24.07033007715811
 20
83.17166286495537
 30
0.0
 10
24.173985743561687
 20
82.99212598425197
 30
0.0
 10
24.27764140996526
 20
82.81258910354858
 30
0.0
 10
24.426762331895024
 20
82.66346818161881
 30
0.0
 10
24.606299212598422
 20
82.55981251521523
 30
0.0
 10
24.785836093301825
 20
82.45615684881166
 30
0.0
 10
24.98953906089364
 20
82.40157480314961
 30
0.0
 10
25.196850393700785
 20
82.40157480314961
 30
0.0
  0
POLYLINE
  5
A4
330
17
100
AcDbEntity
  8
Front elevation
100
AcDb2dPolyline
 66
1
 10
0.0
 20
0.0
 30
0.0
 70
0
  0
VERTEX
  5
A5
330
A4
100
AcDbEntity
  8
Front elevation
100
AcDbVertex
100
AcDb2dVertex
 10
25.196850393700785
 20
82.40157480314961
 30
0.0
 70
0
  0
VERTEX
  5
A6
330
A4
100
AcDbEntity
  8
Front elevation
100
AcDbVertex
100
AcDb2dVertex
 10
25.196850393700785
 20
47.44094488188977
 30
0.0
 70
0
  0
SEQEND
  5
A7
330
A4
100
AcDbEntity
  8
Front elevation
  0
SPLINE
  5
A8
330
17
100
AcDbEntity
  8
Front elevation
100
AcDbSpline
 70
0
 71
3
 72
14
 73
10
 74
0
 40
0.0
 40
0.0
 40
0.0
 40
0.0
 40
1.0
 40
1.0
 40
1.0
 40
2.0
 40
2.0
 40
2.0
 40
3.0
 40
3.0
 40
3.0
 40
3.0
 10
25.196850393700785
 20
47.44094488188977
 30
0.0
 10
24.98953906089364
 20
47.44094488188977
 30
0.0
 10
24.785836093301825
 20
47.386362836227725
 30
0.0
 10
24.606299212598422
 20
47.28270716982415
 30
0.0
 10
24.426762331895024
 20
47.179051503420574
 30
0.0
 10
24.277641409965263
 20
47.02993058149081
 30
0.0
 10
24.173985743561687
 20
46.85039370078741
 30
0.0
 10
24.07033007715811
 20
46.670856820084005
 30
0.0
 10
24.015748031496063
 20
46.467153852492196
 30
0.0
 10
24.015748031496063
 20
46.259842519685044
 30
0.0
  0
SPLINE
  5
A9
330
17
100
AcDbEntity
  8
Front elevation
100
AcDbSpline
 70
0
 71
3
 72
11
 73
7
 74
0
 40
0.0
 40
0.0
 40
0.0
 40
0.0
 40
1.0
 40
1.0
 40
1.0
 40
2.0
 40
2.0
 40
2.0
 40
2.0
 10
24.015748031496063
 20
46.259842519685044
 30
0.0
 10
23.061023622047244
 20
46.259842519685044
 30
0.0
 10
23.29015748031496
 20
44.76377952755906
 30
0.0
 10
22.106299212598422
 20
44.76377952755906
 30
0.0
 10
20.92244094488189
 20
44.76377952755906
 30
0.0
 10
21.151574803149607
 20
46.259842519685044
 30
0.0
 10
20.196850393700785
 20
46.259842519685044
 30
0.0
  0
SPLINE
  5
AA
330
17
100
AcDbEntity
  8
Front elevation
100
AcDbSpline
 70
0
 71
3
 72
14
 73
10
 74
0
 40
0.0
 40
0.0
 40
0.0
 40
0.0
 40
1.0
 40
1.0
 40
1.0
 40
2.0
 40
2.0
 40
2.0
 40
3.0
 40
3.0
 40
3.0
 40
3.0
 10
20.196850393700785
 20
46.259842519685044
 30
0.0
 10
20.196850393700785
 20
46.467153852492196
 30
0.0
 10
20.142268348038737
 20
46.670856820084005
 30
0.0
 10
20.038612681635165
 20
46.85039370078741
 30
0.0
 10
19.93495701523159
 20
47.02993058149081
 30
0.0
 10
19.785836093301825
 20
47.17905150342057
 30
0.0
 10
19.606299212598426
 20
47.28270716982414
 30
0.0
 10
19.426762331895027
 20
47.38636283622771
 30
0.0
 10
19.22305936430321
 20
47.44094488188977
 30
0.0
 10
19.015748031496063
 20
47.44094488188977
 30
0.0
  0
CIRCLE
  5
AB
330
17
100
AcDbEntity
  8
Front elevation
100
AcDbCircle
 10
19.133858267716533
 20
83.7007874015748
 30
0.0
 40
0.5118110236220472
  0
CIRCLE
  5
AC
330
17
100
AcDbEntity
  8
Front elevation
100
AcDbCircle
 10
19.133858267716533
 20
83.7007874015748
 30
0.0
 40
0.2047244094488189
  0
CIRCLE
  5
AD
330
17
100
AcDbEntity
  8
Front elevation
100
AcDbCircle
 10
25.078740157480315
 20
83.7007874015748
 30
0.0
 40
0.5118110236220472
  0
CIRCLE
  5
AE
330
17
100
AcDbEntity
  8
Front elevation
100
AcDbCircle
 10
25.078740157480315
 20
83.7007874015748
 30
0.0
 40
0.2047244094488189
  0
CIRCLE
  5
AF
330
17
100
AcDbEntity
  8
Front elevation
100
AcDbCircle
 10
19.133858267716533
 20
46.14173228346456
 30
0.0
 40
0.5118110236220472
  0
CIRCLE
  5
B0
330
17
100
AcDbEntity
  8
Front elevation
100
AcDbCircle
 10
19.133858267716533
 20
46.14173228346456
 30
0.0
 40
0.2047244094488189
  0
CIRCLE
  5
B1
330
17
100
AcDbEntity
  8
Front elevation
100
AcDbCircle
 10
25.078740157480315
 20
46.14173228346456
 30
0.0
 40
0.5118110236220472
  0
CIRCLE
  5
B2
330
17
100
AcDbEntity
  8
Front elevation
100
AcDbCircle
 10
25.078740157480315
 20
46.14173228346456
 30
0.0
 40
0.2047244094488189
  0
LWPOLYLINE
  5
B3
330
17
100
AcDbEntity
  8
Front elevation
100
AcDbPolyline
 90
5
 70
0
 10
17.04724409448819
 20
33.74015748031496
 10
27.16535433070866
 20
33.74015748031496
 10
27.16535433070866
 20
11.61417322834646
 10
17.04724409448819
 20
11.61417322834646
 10
17.04724409448819
 20
33.74015748031496
  0
LWPOLYLINE
  5
B4
330
17
100
AcDbEntity
  8
Front elevation
100
AcDbPolyline
 90
5
 70
0
 10
17.834645669291337
 20
32.952755905511815
 10
26.37795275590551
 20
32.952755905511815
 10
26.37795275590551
 20
12.401574803149614
 10
17.834645669291337
 20
12.401574803149614
 10
17.834645669291337
 20
32.952755905511815
  0
LINE
  5
B5
330
17
100
AcDbEntity
  8
Front elevation
100
AcDbLine
 10
17.04724409448819
 20
33.74015748031496
 30
0.0
 11
17.834645669291337
 21
32.95275590551181
 31
0.0
  0
LINE
  5
B6
330
17
100
AcDbEntity
  8
Front elevation
100
AcDbLine
 10
27.16535433070866
 20
33.74015748031496
 30
0.0
 11
26.37795275590551
 21
32.95275590551181
 31
0.0
  0
LINE
  5
B7
330
17
100
AcDbEntity
  8
Front elevation
100
AcDbLine
 10
17.04724409448819
 20
11.614173228346457
 30
0.0
 11
17.834645669291337
 21
12.401574803149606
 31
0.0
  0
LINE
  5
B8
330
17
100
AcDbEntity
  8
Front elevation
100
AcDbLine
 10
27.16535433070866
 20
11.614173228346457
 30
0.0
 11
26.37795275590551
 21
12.401574803149606
 31
0.0
  0
POLYLINE
  5
B9
330
17
100
AcDbEntity
  8
Front elevation
100
AcDb2dPolyline
 66
1
 10
0.0
 20
0.0
 30
0.0
 70
0
  0
VERTEX
  5
BA
330
B9
100
AcDbEntity
  8
Front elevation
100
AcDbVertex
100
AcDb2dVertex
 10
19.015748031496063
 20
16.259842519685037
 30
0.0
 70
0
  0
VERTEX
  5
BB
330
B9
100
AcDbEntity
  8
Front elevation
100
AcDbVertex
100
AcDb2dVertex
 10
19.015748031496063
 20
29.094488188976385
 30
0.0
 70
0
  0
SEQEND
  5
BC
330
B9
100
AcDbEntity
  8
Front elevation
  0
SPLINE
  5
BD
330
17
100
AcDbEntity
  8
Front elevation
100
AcDbSpline
 70
0
 71
3
 72
14
 73
10
 74
0
 40
0.0
 40
0.0
 40
0.0
 40
0.0
 40
1.0
 40
1.0
 40
1.0
 40
2.0
 40
2.0
 40
2.0
 40
3.0
 40
3.0
 40
3.0
 40
3.0
 10
19.015748031496063
 20
29.094488188976385
 30
0.0
 10
19.22305936430321
 20
29.094488188976385
 30
0.0
 10
19.426762331895027
 20
29.14907023463843
 30
0.0
 10
19.606299212598426
 20
29.252725901041998
 30
0.0
 10
19.785836093301825
 20
29.356381567445574
 30
0.0
 10
19.93495701523159
 20
29.505502489375345
 30
0.0
 10
20.038612681635165
 20
29.685039370078748
 30
0.0
 10
20.142268348038737
 20
29.864576250782143
 30
0.0
 10
20.196850393700785
 20
30.06827921837396
 30
0.0
 10
20.196850393700785
 20
30.275590551181104
 30
0.0
  0
SPLINE
  5
BE
330
17
100
AcDbEntity
  8
Front elevation
100
AcDbSpline
 70
0
 71
3
 72
11
 73
7
 74
0
 40
0.0
 40
0.0
 40
0.0
 40
0.0
 40
1.0
 40
1.0
 40
1.0
 40
2.0
 40
2.0
 40
2.0
 40
2.0
 10
20.196850393700785
 20
30.275590551181104
 30
0.0
 10
21.151574803149607
 20
30.275590551181104
 30
0.0
 10
20.92244094488189
 20
31.77165354330709
 30
0.0
 10
22.106299212598422
 20
31.77165354330709
 30
0.0
 10
23.29015748031496
 20
31.77165354330709
 30
0.0
 10
23.061023622047244
 20
30.275590551181104
 30
0.0
 10
24.015748031496063
 20
30.275590551181104
 30
0.0
  0
SPLINE
  5
BF
330
17
100
AcDbEntity
  8
Front elevation
100
AcDbSpline
 70
0
 71
3
 72
14
 73
10
 74
0
 40
0.0
 40
0.0
 40
0.0
 40
0.0
 40
1.0
 40
1.0
 40
1.0
 40
2.0
 40
2.0
 40
2.0
 40
3.0
 40
3.0
 40
3.0
 40
3.0
 10
24.015748031496063
 20
30.275590551181104
 30
0.0
 10
24.015748031496063
 20
30.06827921837396
 30
0.0
 10
24.07033007715811
 20
29.864576250782143
 30
0.0
 10
24.173985743561687
 20
29.685039370078748
 30
0.0
 10
24.27764140996526
 20
29.505502489375345
 30
0.0
 10
24.426762331895024
 20
29.356381567445588
 30
0.0
 10
24.606299212598422
 20
29.252725901042012
 30
0.0
 10
24.785836093301825
 20
29.149070234638437
 30
0.0
 10
24.98953906089364
 20
29.094488188976385
 30
0.0
 10
25.196850393700785
 20
29.094488188976385
 30
0.0
  0
POLYLINE
  5
C0
330
17
100
AcDbEntity
  8
Front elevation
100
AcDb2dPolyline
 66
1
 10
0.0
 20
0.0
 30
0.0
 70
0
  0
VERTEX
  5
C1
330
C0
100
AcDbEntity
  8
Front elevation
100
AcDbVertex
100
AcDb2dVertex
 10
25.196850393700785
 20
29.094488188976385
 30
0.0
 70
0
  0
VERTEX
  5
C2
330
C0
100
AcDbEntity
  8
Front elevation
100
AcDbVertex
100
AcDb2dVertex
 10
25.196850393700785
 20
16.259842519685037
 30
0.0
 70
0
  0
SEQEND
  5
C3
330
C0
100
AcDbEntity
  8
Front elevation
  0
SPLINE
  5
C4
330
17
100
AcDbEntity
  8
Front elevation
100
AcDbSpline
 70
0
 71
3
 72
14
 73
10
 74
0
 40
0.0
 40
0.0
 40
0.0
 40
0.0
 40
1.0
 40
1.0
 40
1.0
 40
2.0
 40
2.0
 40
2.0
 40
3.0
 40
3.0
 40
3.0
 40
3.0
 10
25.196850393700785
 20
16.259842519685037
 30
0.0
 10
24.98953906089364
 20
16.259842519685037
 30
0.0
 10
24.785836093301825
 20
16.205260474022992
 30
0.0
 10
24.606299212598422
 20
16.101604807619424
 30
0.0
 10
24.426762331895024
 20
15.997949141215855
 30
0.0
 10
24.277641409965263
 20
15.848828219286077
 30
0.0
 10
24.173985743561687
 20
15.669291338582681
 30
0.0
 10
24.07033007715811
 20
15.489754457879286
 30
0.0
 10
24.015748031496063
 20
15.286051490287463
 30
0.0
 10
24.015748031496063
 20
15.078740157480325
 30
0.0
  0
SPLINE
  5
C5
330
17
100
AcDbEntity
  8
Front elevation
100
AcDbSpline
 70
0
 71
3
 72
11
 73
7
 74
0
 40
0.0
 40
0.0
 40
0.0
 40
0.0
 40
1.0
 40
1.0
 40
1.0
 40
2.0
 40
2.0
 40
2.0
 40
2.0
 10
24.015748031496063
 20
15.078740157480325
 30
0.0
 10
23.061023622047244
 20
15.078740157480325
 30
0.0
 10
23.29015748031496
 20
13.58267716535434
 30
0.0
 10
22.106299212598422
 20
13.58267716535434
 30
0.0
 10
20.92244094488189
 20
13.58267716535434
 30
0.0
 10
21.151574803149607
 20
15.078740157480325
 30
0.0
 10
20.196850393700785
 20
15.078740157480325
 30
0.0
  0
SPLINE
  5
C6
330
17
100
AcDbEntity
  8
Front elevation
100
AcDbSpline
 70
0
 71
3
 72
14
 73
10
 74
0
 40
0.0
 40
0.0
 40
0.0
 40
0.0
 40
1.0
 40
1.0
 40
1.0
 40
2.0
 40
2.0
 40
2.0
 40
3.0
 40
3.0
 40
3.0
 40
3.0
 10
20.196850393700785
 20
15.078740157480325
 30
0.0
 10
20.196850393700785
 20
15.286051490287463
 30
0.0
 10
20.142268348038737
 20
15.489754457879286
 30
0.0
 10
20.038612681635165
 20
15.669291338582681
 30
0.0
 10
19.93495701523159
 20
15.848828219286077
 30
0.0
 10
19.785836093301825
 20
15.997949141215841
 30
0.0
 10
19.606299212598426
 20
16.10160480761941
 30
0.0
 10
19.426762331895027
 20
16.205260474022992
 30
0.0
 10
19.22305936430321
 20
16.259842519685037
 30
0.0
 10
19.015748031496063
 20
16.259842519685037
 30
0.0
  0
CIRCLE
  5
C7
330
17
100
AcDbEntity
  8
Front elevation
100
AcDbCircle
 10
19.133858267716533
 20
30.393700787401574
 30
0.0
 40
0.5118110236220472
  0
CIRCLE
  5
C8
330
17
100
AcDbEntity
  8
Front elevation
100
AcDbCircle
 10
19.133858267716533
 20
30.393700787401574
 30
0.0
 40
0.2047244094488189
  0
CIRCLE
  5
C9
330
17
100
AcDbEntity
  8
Front elevation
100
AcDbCircle
 10
25.078740157480315
 20
30.393700787401574
 30
0.0
 40
0.5118110236220472
  0
CIRCLE
  5
CA
330
17
100
AcDbEntity
  8
Front elevation
100
AcDbCircle
 10
25.078740157480315
 20
30.393700787401574
 30
0.0
 40
0.2047244094488189
  0
CIRCLE
  5
CB
330
17
100
AcDbEntity
  8
Front elevation
100
AcDbCircle
 10
19.133858267716533
 20
14.960629921259843
 30
0.0
 40
0.5118110236220472
  0
CIRCLE
  5
CC
330
17
100
AcDbEntity
  8
Front elevation
100
AcDbCircle
 10
19.133858267716533
 20
14.960629921259843
 30
0.0
 40
0.2047244094488189
  0
CIRCLE
  5
CD
330
17
100
AcDbEntity
  8
Front elevation
100
AcDbCircle
 10
25.078740157480315
 20
14.960629921259843
 30
0.0
 40
0.5118110236220472
  0
CIRCLE
  5
CE
330
17
100
AcDbEntity
  8
Front elevation
100
AcDbCircle
 10
25.078740157480315
 20
14.960629921259843
 30
0.0
 40
0.2047244094488189
  0
CIRCLE
  5
CF
330
17
100
AcDbEntity
  8
Front elevation
100
AcDbCircle
 10
18.228346456692915
 20
38.26771653543307
 30
0.0
 40
1.0826771653543308
  0
CIRCLE
  5
D0
330
17
100
AcDbEntity
  8
Front elevation
100
AcDbCircle
 10
18.228346456692915
 20
38.26771653543307
 30
0.0
 40
0.6889763779527559
  0
CIRCLE
  5
D1
330
17
100
AcDbEntity
  8
Front elevation
100
AcDbCircle
 10
14.763779527559056
 20
38.26771653543307
 30
0.0
 40
0.6692913385826772
  0
SPLINE
  5
D2
330
17
100
AcDbEntity
  8
Front elevation
100
AcDbSpline
 70
0
 71
3
 72
35
 73
31
 74
0
 40
0.0
 40
0.0
 40
0.0
 40
0.0
 40
1.0
 40
1.0
 40
1.0
 40
2.0
 40
2.0
 40
2.0
 40
3.0
 40
3.0
 40
3.0
 40
4.0
 40
4.0
 40
4.0
 40
5.0
 40
5.0
 40
5.0
 40
6.0
 40
6.0
 40
6.0
 40
7.0
 40
7.0
 40
7.0
 40
8.0
 40
8.0
 40
8.0
 40
9.0
 40
9.0
 40
9.0
 40
10.0
 40
10.0
 40
10.0
 40
10.0
 10
14.645669291338582
 20
38.30708661417323
 30
0.0
 10
14.62433425001811
 20
38.326169255251365
 30
0.0
 10
14.60793830584452
 20
38.35014120101716
 30
0.0
 10
14.597889772044535
 20
38.376943405164084
 30
0.0
 10
14.58784123824455
 20
38.40374560931102
 30
0.0
 10
14.584436297853673
 20
38.43258807019901
 30
0.0
 10
14.587967414821396
 20
38.4609933934963
 30
0.0
 10
14.591498531789117
 20
38.4893987167936
 30
0.0
 10
14.601861625563682
 20
38.516529648524006
 30
0.0
 10
14.618166568569768
 20
38.54005580444102
 30
0.0
 10
14.634471511575853
 20
38.563581960358036
 30
0.0
 10
14.656237711558962
 20
38.582809901158754
 30
0.0
 10
14.681595582540576
 20
38.59608806209855
 30
0.0
 10
14.706953453522189
 20
38.60936622303835
 30
0.0
 10
14.735155565941852
 20
38.6163032270177
 30
0.0
 10
14.763779527559059
 20
38.6163032270177
 30
0.0
 10
14.792403489176266
 20
38.6163032270177
 30
0.0
 10
14.820605601595929
 20
38.60936622303835
 30
0.0
 10
14.845963472577543
 20
38.59608806209855
 30
0.0
 10
14.871321343559154
 20
38.582809901158754
 30
0.0
 10
14.893087543542261
 20
38.56358196035803
 30
0.0
 10
14.909392486548347
 20
38.54005580444101
 30
0.0
 10
14.92569742955443
 20
38.516529648524
 30
0.0
 10
14.936060523328996
 20
38.48939871679359
 30
0.0
 10
14.939591640296715
 20
38.460993393496295
 30
0.0
 10
14.943122757264437
 20
38.432588070199
 30
0.0
 10
14.939717816873557
 20
38.40374560931101
 30
0.0
 10
14.92966928307357
 20
38.37694340516408
 30
0.0
 10
14.919620749273586
 20
38.350141201017145
 30
0.0
 10
14.9032248051
 20
38.326169255251365
 30
0.0
 10
14.881889763779528
 20
38.30708661417323
 30
0.0
  0
POLYLINE
  5
D3
330
17
100
AcDbEntity
  8
Front elevation
100
AcDb2dPolyline
 66
1
 10
0.0
 20
0.0
 30
0.0
 70
0
  0
VERTEX
  5
D4
330
D3
100
AcDbEntity
  8
Front elevation
100
AcDbVertex
100
AcDb2dVertex
 10
14.881889763779528
 20
38.30708661417323
 30
0.0
 70
0
  0
VERTEX
  5
D5
330
D3
100
AcDbEntity
  8
Front elevation
100
AcDbVertex
100
AcDb2dVertex
 10
14.940944881889763
 20
37.8740157480315
 30
0.0
 70
0
  0
VERTEX
  5
D6
330
D3
100
AcDbEntity
  8
Front elevation
100
AcDbVertex
100
AcDb2dVertex
 10
14.586614173228346
 20
37.8740157480315
 30
0.0
 70
0
  0
VERTEX
  5
D7
330
D3
100
AcDbEntity
  8
Front elevation
100
AcDbVertex
100
AcDb2dVertex
 10
14.645669291338582
 20
38.30708661417323
 30
0.0
 70
0
  0
SEQEND
  5
D8
330
D3
100
AcDbEntity
  8
Front elevation
  0
LWPOLYLINE
  5
D9
330
17
100
AcDbEntity
  8
Front elevation
100
AcDbPolyline
 90
5
 70
0
 10
31.102362204724407
 20
90.98425196850394
 10
49.09448818897637
 20
90.98425196850394
 10
49.09448818897637
 20
0.0
 10
31.102362204724407
 20
0.0
 10
31.102362204724407
 20
90.98425196850394
  0
LINE
  5
DA
330
17
100
AcDbEntity
  8
Front elevation
100
AcDbLine
 10
35.039370078740156
 20
87.04724409448819
 30
0.0
 11
45.15748031496063
 21
87.04724409448819
 31
0.0
  0
LINE
  5
DB
330
17
100
AcDbEntity
  8
Front elevation
100
AcDbLine
 10
35.039370078740156
 20
11.614173228346457
 30
0.0
 11
45.15748031496063
 21
11.614173228346457
 31
0.0
  0
LINE
  5
DC
330
17
100
AcDbEntity
  8
Front elevation
100
AcDbLine
 10
35.039370078740156
 20
42.79527559055118
 30
0.0
 11
35.039370078740156
 21
33.74015748031496
 31
0.0
  0
LINE
  5
DD
330
17
100
AcDbEntity
  8
Front elevation
100
AcDbLine
 10
45.15748031496063
 20
42.79527559055118
 30
0.0
 11
45.15748031496063
 21
33.74015748031496
 31
0.0
  0
LINE
  5
DE
330
17
100
AcDbEntity
  8
Front elevation
100
AcDbLine
 10
35.039370078740156
 20
90.98425196850394
 30
0.0
 11
35.039370078740156
 21
87.04724409448819
 31
0.0
  0
LINE
  5
DF
330
17
100
AcDbEntity
  8
Front elevation
100
AcDbLine
 10
45.15748031496063
 20
90.98425196850394
 30
0.0
 11
45.15748031496063
 21
87.04724409448819
 31
0.0
  0
LINE
  5
E0
330
17
100
AcDbEntity
  8
Front elevation
100
AcDbLine
 10
35.039370078740156
 20
11.614173228346457
 30
0.0
 11
35.039370078740156
 21
0.0
 31
0.0
  0
LINE
  5
E1
330
17
100
AcDbEntity
  8
Front elevation
100
AcDbLine
 10
45.15748031496063
 20
11.614173228346457
 30
0.0
 11
45.15748031496063
 21
0.0
 31
0.0
  0
LWPOLYLINE
  5
E2
330
17
100
AcDbEntity
  8
Front elevation
100
AcDbPolyline
 90
5
 70
0
 10
35.039370078740156
 20
87.04724409448819
 10
45.15748031496062
 20
87.04724409448819
 10
45.15748031496062
 20
42.795275590551185
 10
35.039370078740156
 20
42.795275590551185
 10
35.039370078740156
 20
87.04724409448819
  0
LWPOLYLINE
  5
E3
330
17
100
AcDbEntity
  8
Front elevation
100
AcDbPolyline
 90
5
 70
0
 10
35.826771653543304
 20
86.25984251968504
 10
44.37007874015748
 20
86.25984251968504
 10
44.37007874015748
 20
43.58267716535433
 10
35.826771653543304
 20
43.58267716535433
 10
35.826771653543304
 20
86.25984251968504
  0
LINE
  5
E4
330
17
100
AcDbEntity
  8
Front elevation
100
AcDbLine
 10
35.039370078740156
 20
87.04724409448819
 30
0.0
 11
35.826771653543304
 21
86.25984251968504
 31
0.0
  0
LINE
  5
E5
330
17
100
AcDbEntity
  8
Front elevation
100
AcDbLine
 10
45.15748031496063
 20
87.04724409448819
 30
0.0
 11
44.37007874015748
 21
86.25984251968504
 31
0.0
  0
LINE
  5
E6
330
17
100
AcDbEntity
  8
Front elevation
100
AcDbLine
 10
35.039370078740156
 20
42.79527559055118
 30
0.0
 11
35.826771653543304
 21
43.58267716535433
 31
0.0
  0
LINE
  5
E7
330
17
100
AcDbEntity
  8
Front elevation
100
AcDbLine
 10
45.15748031496063
 20
42.79527559055118
 30
0.0
 11
44.37007874015748
 21
43.58267716535433
 31
0.0
  0
POLYLINE
  5
E8
330
17
100
AcDbEntity
  8
Front elevation
100
AcDb2dPolyline
 66
1
 10
0.0
 20
0.0
 30
0.0
 70
0
  0
VERTEX
  5
E9
330
E8
100
AcDbEntity
  8
Front elevation
100
AcDbVertex
100
AcDb2dVertex
 10
37.00787401574803
 20
47.44094488188977
 30
0.0
 70
0
  0
VERTEX
  5
EA
330
E8
100
AcDbEntity
  8
Front elevation
100
AcDbVertex
100
AcDb2dVertex
 10
37.00787401574803
 20
82.40157480314961
 30
0.0
 70
0
  0
SEQEND
  5
EB
330
E8
100
AcDbEntity
  8
Front elevation
  0
SPLINE
  5
EC
330
17
100
AcDbEntity
  8
Front elevation
100
AcDbSpline
 70
0
 71
3
 72
14
 73
10
 74
0
 40
0.0
 40
0.0
 40
0.0
 40
0.0
 40
1.0
 40
1.0
 40
1.0
 40
2.0
 40
2.0
 40
2.0
 40
3.0
 40
3.0
 40
3.0
 40
3.0
 10
37.00787401574803
 20
82.40157480314961
 30
0.0
 10
37.215185348555174
 20
82.40157480314961
 30
0.0
 10
37.41888831614699
 20
82.45615684881166
 30
0.0
 10
37.59842519685039
 20
82.55981251521523
 30
0.0
 10
37.777962077553795
 20
82.66346818161881
 30
0.0
 10
37.92708299948356
 20
82.81258910354858
 30
0.0
 10
38.03073866588713
 20
82.99212598425197
 30
0.0
 10
38.13439433229071
 20
83.17166286495537
 30
0.0
 10
38.188976377952756
 20
83.37536583254719
 30
0.0
 10
38.188976377952756
 20
83.58267716535434
 30
0.0
  0
SPLINE
  5
ED
330
17
100
AcDbEntity
  8
Front elevation
100
AcDbSpline
 70
0
 71
3
 72
11
 73
7
 74
0
 40
0.0
 40
0.0
 40
0.0
 40
0.0
 40
1.0
 40
1.0
 40
1.0
 40
2.0
 40
2.0
 40
2.0
 40
2.0
 10
38.188976377952756
 20
83.58267716535434
 30
0.0
 10
39.14370078740157
 20
83.58267716535434
 30
0.0
 10
38.914566929133855
 20
85.07874015748033
 30
0.0
 10
40.09842519685039
 20
85.07874015748033
 30
0.0
 10
41.28228346456693
 20
85.07874015748033
 30
0.0
 10
41.053149606299215
 20
83.58267716535434
 30
0.0
 10
42.00787401574803
 20
83.58267716535434
 30
0.0
  0
SPLINE
  5
EE
330
17
100
AcDbEntity
  8
Front elevation
100
AcDbSpline
 70
0
 71
3
 72
14
 73
10
 74
0
 40
0.0
 40
0.0
 40
0.0
 40
0.0
 40
1.0
 40
1.0
 40
1.0
 40
2.0
 40
2.0
 40
2.0
 40
3.0
 40
3.0
 40
3.0
 40
3.0
 10
42.00787401574803
 20
83.58267716535434
 30
0.0
 10
42.00787401574803
 20
83.37536583254719
 30
0.0
 10
42.06245606141008
 20
83.17166286495537
 30
0.0
 10
42.16611172781366
 20
82.99212598425197
 30
0.0
 10
42.269767394217226
 20
82.81258910354858
 30
0.0
 10
42.41888831614699
 20
82.66346818161881
 30
0.0
 10
42.59842519685039
 20
82.55981251521523
 30
0.0
 10
42.777962077553795
 20
82.45615684881166
 30
0.0
 10
42.98166504514561
 20
82.40157480314961
 30
0.0
 10
43.188976377952756
 20
82.40157480314961
 30
0.0
  0
POLYLINE
  5
EF
330
17
100
AcDbEntity
  8
Front elevation
100
AcDb2dPolyline
 66
1
 10
0.0
 20
0.0
 30
0.0
 70
0
  0
VERTEX
  5
F0
330
EF
100
AcDbEntity
  8
Front elevation
100
AcDbVertex
100
AcDb2dVertex
 10
43.188976377952756
 20
82.40157480314961
 30
0.0
 70
0
  0
VERTEX
  5
F1
330
EF
100
AcDbEntity
  8
Front elevation
100
AcDbVertex
100
AcDb2dVertex
 10
43.188976377952756
 20
47.44094488188977
 30
0.0
 70
0
  0
SEQEND
  5
F2
330
EF
100
AcDbEntity
  8
Front elevation
  0
SPLINE
  5
F3
330
17
100
AcDbEntity
  8
Front elevation
100
AcDbSpline
 70
0
 71
3
 72
14
 73
10
 74
0
 40
0.0
 40
0.0
 40
0.0
 40
0.0
 40
1.0
 40
1.0
 40
1.0
 40
2.0
 40
2.0
 40
2.0
 40
3.0
 40
3.0
 40
3.0
 40
3.0
 10
43.188976377952756
 20
47.44094488188977
 30
0.0
 10
42.98166504514561
 20
47.44094488188977
 30
0.0
 10
42.777962077553795
 20
47.386362836227725
 30
0.0
 10
42.59842519685039
 20
47.28270716982415
 30
0.0
 10
42.41888831614699
 20
47.179051503420574
 30
0.0
 10
42.269767394217226
 20
47.02993058149081
 30
0.0
 10
42.16611172781366
 20
46.85039370078741
 30
0.0
 10
42.06245606141008
 20
46.670856820084005
 30
0.0
 10
42.00787401574803
 20
46.467153852492196
 30
0.0
 10
42.00787401574803
 20
46.259842519685044
 30
0.0
  0
SPLINE
  5
F4
330
17
100
AcDbEntity
  8
Front elevation
100
AcDbSpline
 70
0
 71
3
 72
11
 73
7
 74
0
 40
0.0
 40
0.0
 40
0.0
 40
0.0
 40
1.0
 40
1.0
 40
1.0
 40
2.0
 40
2.0
 40
2.0
 40
2.0
 10
42.00787401574803
 20
46.259842519685044
 30
0.0
 10
41.053149606299215
 20
46.259842519685044
 30
0.0
 10
41.28228346456693
 20
44.76377952755906
 30
0.0
 10
40.09842519685039
 20
44.76377952755906
 30
0.0
 10
38.914566929133855
 20
44.76377952755906
 30
0.0
 10
39.14370078740157
 20
46.259842519685044
 30
0.0
 10
38.188976377952756
 20
46.259842519685044
 30
0.0
  0
SPLINE
  5
F5
330
17
100
AcDbEntity
  8
Front elevation
100
AcDbSpline
 70
0
 71
3
 72
14
 73
10
 74
0
 40
0.0
 40
0.0
 40
0.0
 40
0.0
 40
1.0
 40
1.0
 40
1.0
 40
2.0
 40
2.0
 40
2.0
 40
3.0
 40
3.0
 40
3.0
 40
3.0
 10
38.188976377952756
 20
46.259842519685044
 30
0.0
 10
38.188976377952756
 20
46.467153852492196
 30
0.0
 10
38.13439433229071
 20
46.670856820084005
 30
0.0
 10
38.03073866588713
 20
46.85039370078741
 30
0.0
 10
37.92708299948356
 20
47.02993058149081
 30
0.0
 10
37.777962077553795
 20
47.17905150342057
 30
0.0
 10
37.59842519685039
 20
47.28270716982414
 30
0.0
 10
37.41888831614699
 20
47.38636283622771
 30
0.0
 10
37.215185348555174
 20
47.44094488188977
 30
0.0
 10
37.00787401574803
 20
47.44094488188977
 30
0.0
  0
CIRCLE
  5
F6
330
17
100
AcDbEntity
  8
Front elevation
100
AcDbCircle
 10
37.125984251968504
 20
83.7007874015748
 30
0.0
 40
0.5118110236220472
  0
CIRCLE
  5
F7
330
17
100
AcDbEntity
  8
Front elevation
100
AcDbCircle
 10
37.125984251968504
 20
83.7007874015748
 30
0.0
 40
0.2047244094488189
  0
CIRCLE
  5
F8
330
17
100
AcDbEntity
  8
Front elevation
100
AcDbCircle
 10
43.07086614173228
 20
83.7007874015748
 30
0.0
 40
0.5118110236220472
  0
CIRCLE
  5
F9
330
17
100
AcDbEntity
  8
Front elevation
100
AcDbCircle
 10
43.07086614173228
 20
83.7007874015748
 30
0.0
 40
0.2047244094488189
  0
CIRCLE
  5
FA
330
17
100
AcDbEntity
  8
Front elevation
100
AcDbCircle
 10
37.125984251968504
 20
46.14173228346456
 30
0.0
 40
0.5118110236220472
  0
CIRCLE
  5
FB
330
17
100
AcDbEntity
  8
Front elevation
100
AcDbCircle
 10
37.125984251968504
 20
46.14173228346456
 30
0.0
 40
0.2047244094488189
  0
CIRCLE
  5
FC
330
17
100
AcDbEntity
  8
Front elevation
100
AcDbCircle
 10
43.07086614173228
 20
46.14173228346456
 30
0.0
 40
0.5118110236220472
  0
CIRCLE
  5
FD
330
17
100
AcDbEntity
  8
Front elevation
100
AcDbCircle
 10
43.07086614173228
 20
46.14173228346456
 30
0.0
 40
0.2047244094488189
  0
LWPOLYLINE
  5
FE
330
17
100
AcDbEntity
  8
Front elevation
100
AcDbPolyline
 90
5
 70
0
 10
35.039370078740156
 20
33.74015748031496
 10
45.15748031496062
 20
33.74015748031496
 10
45.15748031496062
 20
11.61417322834646
 10
35.039370078740156
 20
11.61417322834646
 10
35.039370078740156
 20
33.74015748031496
  0
LWPOLYLINE
  5
FF
330
17
100
AcDbEntity
  8
Front elevation
100
AcDbPolyline
 90
5
 70
0
 10
35.826771653543304
 20
32.952755905511815
 10
44.37007874015748
 20
32.952755905511815
 10
44.37007874015748
 20
12.401574803149614
 10
35.826771653543304
 20
12.401574803149614
 10
35.826771653543304
 20
32.952755905511815
  0
LINE
  5
100
330
17
100
AcDbEntity
  8
Front elevation
100
AcDbLine
 10
35.039370078740156
 20
33.74015748031496
 30
0.0
 11
35.826771653543304
 21
32.95275590551181
 31
0.0
  0
LINE
  5
101
330
17
100
AcDbEntity
  8
Front elevation
100
AcDbLine
 10
45.15748031496063
 20
33.74015748031496
 30
0.0
 11
44.37007874015748
 21
32.95275590551181
 31
0.0
  0
LINE
  5
102
330
17
100
AcDbEntity
  8
Front elevation
100
AcDbLine
 10
35.039370078740156
 20
11.614173228346457
 30
0.0
 11
35.826771653543304
 21
12.401574803149606
 31
0.0
  0
LINE
  5
103
330
17
100
AcDbEntity
  8
Front elevation
100
AcDbLine
 10
45.15748031496063
 20
11.614173228346457
 30
0.0
 11
44.37007874015748
 21
12.401574803149606
 31
0.0
  0
POLYLINE
  5
104
330
17
100
AcDbEntity
  8
Front elevation
100
AcDb2dPolyline
 66
1
 10
0.0
 20
0.0
 30
0.0
 70
0
  0
VERTEX
  5
105
330
104
100
AcDbEntity
  8
Front elevation
100
AcDbVertex
100
AcDb2dVertex
 10
37.00787401574803
 20
16.259842519685037
 30
0.0
 70
0
  0
VERTEX
  5
106
330
104
100
AcDbEntity
  8
Front elevation
100
AcDbVertex
100
AcDb2dVertex
 10
37.00787401574803
 20
29.094488188976385
 30
0.0
 70
0
  0
SEQEND
  5
107
330
104
100
AcDbEntity
  8
Front elevation
  0
SPLINE
  5
108
330
17
100
AcDbEntity
  8
Front elevation
100
AcDbSpline
 70
0
 71
3
 72
14
 73
10
 74
0
 40
0.0
 40
0.0
 40
0.0
 40
0.0
 40
1.0
 40
1.0
 40
1.0
 40
2.0
 40
2.0
 40
2.0
 40
3.0
 40
3.0
 40
3.0
 40
3.0
 10
37.00787401574803
 20
29.094488188976385
 30
0.0
 10
37.215185348555174
 20
29.094488188976385
 30
0.0
 10
37.41888831614699
 20
29.14907023463843
 30
0.0
 10
37.59842519685039
 20
29.252725901041998
 30
0.0
 10
37.777962077553795
 20
29.356381567445574
 30
0.0
 10
37.92708299948356
 20
29.505502489375345
 30
0.0
 10
38.03073866588713
 20
29.685039370078748
 30
0.0
 10
38.13439433229071
 20
29.864576250782143
 30
0.0
 10
38.188976377952756
 20
30.06827921837396
 30
0.0
 10
38.188976377952756
 20
30.275590551181104
 30
0.0
  0
SPLINE
  5
109
330
17
100
AcDbEntity
  8
Front elevation
100
AcDbSpline
 70
0
 71
3
 72
11
 73
7
 74
0
 40
0.0
 40
0.0
 40
0.0
 40
0.0
 40
1.0
 40
1.0
 40
1.0
 40
2.0
 40
2.0
 40
2.0
 40
2.0
 10
38.188976377952756
 20
30.275590551181104
 30
0.0
 10
39.14370078740157
 20
30.275590551181104
 30
0.0
 10
38.914566929133855
 20
31.77165354330709
 30
0.0
 10
40.09842519685039
 20
31.77165354330709
 30
0.0
 10
41.28228346456693
 20
31.77165354330709
 30
0.0
 10
41.053149606299215
 20
30.275590551181104
 30
0.0
 10
42.00787401574803
 20
30.275590551181104
 30
0.0
  0
SPLINE
  5
10A
330
17
100
AcDbEntity
  8
Front elevation
100
AcDbSpline
 70
0
 71
3
 72
14
 73
10
 74
0
 40
0.0
 40
0.0
 40
0.0
 40
0.0
 40
1.0
 40
1.0
 40
1.0
 40
2.0
 40
2.0
 40
2.0
 40
3.0
 40
3.0
 40
3.0
 40
3.0
 10
42.00787401574803
 20
30.275590551181104
 30
0.0
 10
42.00787401574803
 20
30.06827921837396
 30
0.0
 10
42.06245606141008
 20
29.864576250782143
 30
0.0
 10
42.16611172781366
 20
29.685039370078748
 30
0.0
 10
42.269767394217226
 20
29.505502489375345
 30
0.0
 10
42.41888831614699
 20
29.356381567445588
 30
0.0
 10
42.59842519685039
 20
29.252725901042012
 30
0.0
 10
42.777962077553795
 20
29.149070234638437
 30
0.0
 10
42.98166504514561
 20
29.094488188976385
 30
0.0
 10
43.188976377952756
 20
29.094488188976385
 30
0.0
  0
POLYLINE
  5
10B
330
17
100
AcDbEntity
  8
Front elevation
100
AcDb2dPolyline
 66
1
 10
0.0
 20
0.0
 30
0.0
 70
0
  0
VERTEX
  5
10C
330
10B
100
AcDbEntity
  8
Front elevation
100
AcDbVertex
100
AcDb2dVertex
 10
43.188976377952756
 20
29.094488188976385
 30
0.0
 70
0
  0
VERTEX
  5
10D
330
10B
100
AcDbEntity
  8
Front elevation
100
AcDbVertex
100
AcDb2dVertex
 10
43.188976377952756
 20
16.259842519685037
 30
0.0
 70
0
  0
SEQEND
  5
10E
330
10B
100
AcDbEntity
  8
Front elevation
  0
SPLINE
  5
10F
330
17
100
AcDbEntity
  8
Front elevation
100
AcDbSpline
 70
0
 71
3
 72
14
 73
10
 74
0
 40
0.0
 40
0.0
 40
0.0
 40
0.0
 40
1.0
 40
1.0
 40
1.0
 40
2.0
 40
2.0
 40
2.0
 40
3.0
 40
3.0
 40
3.0
 40
3.0
 10
43.188976377952756
 20
16.259842519685037
 30
0.0
 10
42.98166504514561
 20
16.259842519685037
 30
0.0
 10
42.777962077553795
 20
16.205260474022992
 30
0.0
 10
42.59842519685039
 20
16.101604807619424
 30
0.0
 10
42.41888831614699
 20
15.997949141215855
 30
0.0
 10
42.269767394217226
 20
15.848828219286077
 30
0.0
 10
42.16611172781366
 20
15.669291338582681
 30
0.0
 10
42.06245606141008
 20
15.489754457879286
 30
0.0
 10
42.00787401574803
 20
15.286051490287463
 30
0.0
 10
42.00787401574803
 20
15.078740157480325
 30
0.0
  0
SPLINE
  5
110
330
17
100
AcDbEntity
  8
Front elevation
100
AcDbSpline
 70
0
 71
3
 72
11
 73
7
 74
0
 40
0.0
 40
0.0
 40
0.0
 40
0.0
 40
1.0
 40
1.0
 40
1.0
 40
2.0
 40
2.0
 40
2.0
 40
2.0
 10
42.00787401574803
 20
15.078740157480325
 30
0.0
 10
41.053149606299215
 20
15.078740157480325
 30
0.0
 10
41.28228346456693
 20
13.58267716535434
 30
0.0
 10
40.09842519685039
 20
13.58267716535434
 30
0.0
 10
38.914566929133855
 20
13.58267716535434
 30
0.0
 10
39.14370078740157
 20
15.078740157480325
 30
0.0
 10
38.188976377952756
 20
15.078740157480325
 30
0.0
  0
SPLINE
  5
111
330
17
100
AcDbEntity
  8
Front elevation
100
AcDbSpline
 70
0
 71
3
 72
14
 73
10
 74
0
 40
0.0
 40
0.0
 40
0.0
 40
0.0
 40
1.0
 40
1.0
 40
1.0
 40
2.0
 40
2.0
 40
2.0
 40
3.0
 40
3.0
 40
3.0
 40
3.0
 10
38.188976377952756
 20
15.078740157480325
 30
0.0
 10
38.188976377952756
 20
15.286051490287463
 30
0.0
 10
38.13439433229071
 20
15.489754457879286
 30
0.0
 10
38.03073866588713
 20
15.669291338582681
 30
0.0
 10
37.92708299948356
 20
15.848828219286077
 30
0.0
 10
37.777962077553795
 20
15.997949141215841
 30
0.0
 10
37.59842519685039
 20
16.10160480761941
 30
0.0
 10
37.41888831614699
 20
16.205260474022992
 30
0.0
 10
37.215185348555174
 20
16.259842519685037
 30
0.0
 10
37.00787401574803
 20
16.259842519685037
 30
0.0
  0
CIRCLE
  5
112
330
17
100
AcDbEntity
  8
Front elevation
100
AcDbCircle
 10
37.125984251968504
 20
30.393700787401574
 30
0.0
 40
0.5118110236220472
  0
CIRCLE
  5
113
330
17
100
AcDbEntity
  8
Front elevation
100
AcDbCircle
 10
37.125984251968504
 20
30.393700787401574
 30
0.0
 40
0.2047244094488189
  0
CIRCLE
  5
114
330
17
100
AcDbEntity
  8
Front elevation
100
AcDbCircle
 10
43.07086614173228
 20
30.393700787401574
 30
0.0
 40
0.5118110236220472
  0
CIRCLE
  5
115
330
17
100
AcDbEntity
  8
Front elevation
100
AcDbCircle
 10
43.07086614173228
 20
30.393700787401574
 30
0.0
 40
0.2047244094488189
  0
CIRCLE
  5
116
330
17
100
AcDbEntity
  8
Front elevation
100
AcDbCircle
 10
37.125984251968504
 20
14.960629921259843
 30
0.0
 40
0.5118110236220472
  0
CIRCLE
  5
117
330
17
100
AcDbEntity
  8
Front elevation
100
AcDbCircle
 10
37.125984251968504
 20
14.960629921259843
 30
0.0
 40
0.2047244094488189
  0
CIRCLE
  5
118
330
17
100
AcDbEntity
  8
Front elevation
100
AcDbCircle
 10
43.07086614173228
 20
14.960629921259843
 30
0.0
 40
0.5118110236220472
  0
CIRCLE
  5
119
330
17
100
AcDbEntity
  8
Front elevation
100
AcDbCircle
 10
43.07086614173228
 20
14.960629921259843
 30
0.0
 40
0.2047244094488189
  0
LINE
  5
11A
330
17
100
AcDbEntity
  8
Front elevation
100
AcDbLine
 10
31.338582677165356
 20
90.98425196850394
 30
0.0
 11
31.338582677165356
 21
0.0
 31
0.0
  0
LINE
  5
11B
330
17
100
AcDbEntity
  8
Front elevation
100
AcDbLine
 10
0.0
 20
0.0
 30
0.0
 11
62.204724409448815
 21
0.0
 31
0.0
  0
TEXT
  5
11C
330
17
100
AcDbEntity
  8
LABELS
100
AcDbText
 10
0.0
 20
99.37007874015748
 30
0.0
 40
1.2440944881889764
  1
FRONT ELEVATION  (1:1, inches)
 11
0.0
 21
99.37007874015748
 31
0.0
100
AcDbText
  0
LWPOLYLINE
  5
11F
330
17
100
AcDbEntity
  8
Panel head - detail A
100
AcDbPolyline
 90
2
 70
0
 10
73.81889763779527
 20
8.937007874015748
 10
73.81889763779527
 20
7.362204724409449
  0
LWPOLYLINE
  5
120
330
17
100
AcDbEntity
  8
Panel head - detail A
100
AcDbPolyline
 90
2
 70
0
 10
83.93700787401575
 20
8.937007874015748
 10
83.93700787401575
 20
7.362204724409449
  0
LWPOLYLINE
  5
121
330
17
100
AcDbEntity
  8
Panel head - detail A
100
AcDbPolyline
 90
3
 70
0
 10
73.81889763779527
 20
7.362204724409449
 10
83.93700787401575
 20
7.362204724409449
 10
83.93700787401575
 20
0.47244094488188976
  0
LWPOLYLINE
  5
122
330
17
100
AcDbEntity
  8
Panel head - detail A
100
AcDbPolyline
 90
2
 70
0
 10
73.81889763779527
 20
0.47244094488188976
 10
73.81889763779527
 20
7.362204724409449
  0
LWPOLYLINE
  5
123
330
17
100
AcDbEntity
  8
Panel head - detail A
100
AcDbPolyline
 90
3
 70
0
 10
74.60629921259843
 20
6.574803149606299
 10
83.14960629921259
 20
6.574803149606299
 10
83.14960629921259
 20
0.47244094488188976
  0
LWPOLYLINE
  5
124
330
17
100
AcDbEntity
  8
Panel head - detail A
100
AcDbPolyline
 90
2
 70
0
 10
74.60629921259843
 20
0.47244094488188976
 10
74.60629921259843
 20
6.574803149606299
  0
LWPOLYLINE
  5
125
330
17
100
AcDbEntity
  8
Panel head - detail A
100
AcDbPolyline
 90
2
 70
0
 10
73.81889763779527
 20
7.362204724409449
 10
74.60629921259843
 20
6.574803149606299
  0
LWPOLYLINE
  5
126
330
17
100
AcDbEntity
  8
Panel head - detail A
100
AcDbPolyline
 90
2
 70
0
 10
83.93700787401575
 20
7.362204724409449
 10
83.14960629921259
 20
6.574803149606299
  0
LWPOLYLINE
  5
127
330
17
100
AcDbEntity
  8
Panel head - detail A
100
AcDbPolyline
 90
55
 70
0
 10
75.78740157480316
 20
0.47244094488188976
 10
75.78740157480316
 20
2.716535433070866
 10
75.9418872915295
 20
2.726683497493118
 10
76.09309258489323
 20
2.7567834142023373
 10
76.23909016848752
 20
2.806318768362228
 10
76.37795275590551
 20
2.8747731451364897
 10
76.50666727890125
 20
2.9608044850885724
 10
76.62256494578631
 20
3.0624744242924242
 10
76.72423488499017
 20
3.178372091177493
 10
76.81026622494225
 20
3.3070866141732282
 10
76.87872060171651
 20
3.4459492015912137
 10
76.9282559558764
 20
3.591946785185504
 10
76.95835587258563
 20
3.743152078549247
 10
76.96850393700787
 20
3.8976377952755903
 10
77.13427542138287
 20
3.914439283956693
 10
77.27610420767716
 20
3.9619217519685037
 10
77.39779427595964
 20
4.03570220226378
 10
77.5031496062992
 20
4.131397637795276
 10
77.59597417876476
 20
4.244625061515748
 10
77.6800719734252
 20
4.371001476377953
 10
77.8373031496063
 20
4.645669291338582
 10
78.0052749753937
 20
4.920337106299213
 10
78.10279858206201
 20
5.046713521161418
 10
78.21441929133859
 20
5.15994094488189
 10
78.34394108329232
 20
5.255636380413386
 10
78.49516793799212
 20
5.329416830708661
 10
78.67190383550688
 20
5.376899298720472
 10
78.87795275590551
 20
5.393700787401575
 10
79.08400167630413
 20
5.376899298720472
 10
79.2607375738189
 20
5.329416830708661
 10
79.4119644285187
 20
5.255636380413386
 10
79.54148622047244
 20
5.15994094488189
 10
79.65310692974901
 20
5.046713521161418
 10
79.75063053641732
 20
4.920337106299213
 10
79.91860236220472
 20
4.645669291338582
 10
80.07583353838582
 20
4.371001476377953
 10
80.15993133304626
 20
4.244625061515748
 10
80.25275590551182
 20
4.131397637795276
 10
80.35811123585138
 20
4.03570220226378
 10
80.47980130413386
 20
3.9619217519685037
 10
80.62163009042816
 20
3.914439283956693
 10
80.78740157480316
 20
3.8976377952755903
 10
80.79754963922541
 20
3.743152078549247
 10
80.82764955593463
 20
3.591946785185504
 10
80.87718491009451
 20
3.4459492015912137
 10
80.94563928686877
 20
3.3070866141732282
 10
81.03167062682085
 20
3.178372091177493
 10
81.13334056602471
 20
3.0624744242924242
 10
81.24923823290976
 20
2.9608044850885724
 10
81.37795275590551
 20
2.8747731451364897
 10
81.5168153433235
 20
2.806318768362228
 10
81.6628129269178
 20
2.7567834142023373
 10
81.81401822028153
 20
2.726683497493118
 10
81.96850393700787
 20
2.716535433070866
 10
81.96850393700787
 20
0.47244094488188976
  0
LWPOLYLINE
  5
128
330
17
100
AcDbEntity
  8
Panel head - detail A
100
AcDbPolyline
 90
49
 70
0
 10
76.41732283464567
 20
4.015748031496063
 10
76.41292534006269
 20
3.948804220914647
 10
76.39988204282203
 20
3.8832819271236922
 10
76.37841672268608
 20
3.820016307566166
 10
76.34875315941723
 20
3.7598425196850394
 10
76.31147291210466
 20
3.7040662263868875
 10
76.26741593844966
 20
3.6538439040700244
 10
76.21719361613279
 20
3.6097869304150207
 10
76.16141732283465
 20
3.572506683102452
 10
76.10124353495351
 20
3.542843119833606
 10
76.037977915396
 20
3.5213777996976536
 10
75.97245562160504
 20
3.5083345024569907
 10
75.90551181102362
 20
3.5039370078740157
 10
75.83856800044221
 20
3.5083345024569907
 10
75.77304570665125
 20
3.5213777996976536
 10
75.70978008709373
 20
3.542843119833606
 10
75.64960629921259
 20
3.572506683102452
 10
75.59383000591444
 20
3.6097869304150207
 10
75.54360768359759
 20
3.6538439040700244
 10
75.49955070994258
 20
3.7040662263868875
 10
75.46227046263
 20
3.7598425196850394
 10
75.43260689936116
 20
3.820016307566166
 10
75.4111415792252
 20
3.8832819271236922
 10
75.39809828198456
 20
3.948804220914647
 10
75.39370078740157
 20
4.015748031496063
 10
75.39809828198456
 20
4.0826918420774785
 10
75.4111415792252
 20
4.148214135868434
 10
75.43260689936116
 20
4.21147975542596
 10
75.46227046263
 20
4.271653543307086
 10
75.49955070994258
 20
4.327429836605238
 10
75.54360768359759
 20
4.377652158922102
 10
75.59383000591444
 20
4.421709132577104
 10
75.64960629921259
 20
4.4589893798896725
 10
75.70978008709373
 20
4.4886529431585185
 10
75.77304570665125
 20
4.510118263294473
 10
75.83856800044221
 20
4.523161560535135
 10
75.90551181102362
 20
4.52755905511811
 10
75.97245562160504
 20
4.523161560535135
 10
76.037977915396
 20
4.510118263294473
 10
76.10124353495351
 20
4.488652943158519
 10
76.16141732283465
 20
4.458989379889673
 10
76.21719361613279
 20
4.421709132577105
 10
76.26741593844966
 20
4.377652158922102
 10
76.31147291210466
 20
4.327429836605238
 10
76.34875315941723
 20
4.271653543307086
 10
76.37841672268608
 20
4.21147975542596
 10
76.39988204282203
 20
4.148214135868434
 10
76.41292534006269
 20
4.0826918420774785
 10
76.41732283464567
 20
4.015748031496063
  0
LWPOLYLINE
  5
129
330
17
100
AcDbEntity
  8
Panel head - detail A
100
AcDbPolyline
 90
49
 70
0
 10
76.11023622047244
 20
4.015748031496063
 10
76.10847722263925
 20
3.9889705072634962
 10
76.103259903743
 20
3.9627615897471142
 10
76.0946737756886
 20
3.9374553419241045
 10
76.08280835038106
 20
3.9133858267716537
 10
76.06789625145603
 20
3.891075309452393
 10
76.05027346199404
 20
3.8709863805256473
 10
76.0301845330673
 20
3.853363591063647
 10
76.00787401574803
 20
3.838451492138619
 10
75.98380450059558
 20
3.82658606683108
 10
75.95849825277257
 20
3.8179999387766985
 10
75.93228933525619
 20
3.812782619880435
 10
75.90551181102362
 20
3.8110236220472444
 10
75.87873428679106
 20
3.812782619880435
 10
75.85252536927467
 20
3.8179999387766985
 10
75.82721912145166
 20
3.82658606683108
 10
75.80314960629921
 20
3.838451492138619
 10
75.78083908897995
 20
3.853363591063647
 10
75.7607501600532
 20
3.8709863805256473
 10
75.7431273705912
 20
3.891075309452393
 10
75.72821527166617
 20
3.9133858267716537
 10
75.71634984635864
 20
3.9374553419241045
 10
75.70776371830425
 20
3.9627615897471142
 10
75.70254639940799
 20
3.9889705072634962
 10
75.7007874015748
 20
4.015748031496063
 10
75.70254639940799
 20
4.04252555572863
 10
75.70776371830425
 20
4.068734473245011
 10
75.71634984635864
 20
4.094040721068021
 10
75.72821527166617
 20
4.118110236220472
 10
75.7431273705912
 20
4.140420753539733
 10
75.7607501600532
 20
4.160509682466477
 10
75.78083908897995
 20
4.178132471928478
 10
75.80314960629921
 20
4.193044570853506
 10
75.82721912145166
 20
4.204909996161045
 10
75.85252536927467
 20
4.213496124215426
 10
75.87873428679106
 20
4.2187134431116915
 10
75.90551181102362
 20
4.2204724409448815
 10
75.93228933525619
 20
4.2187134431116915
 10
75.95849825277257
 20
4.213496124215427
 10
75.98380450059558
 20
4.204909996161046
 10
76.00787401574803
 20
4.193044570853507
 10
76.0301845330673
 20
4.178132471928479
 10
76.05027346199404
 20
4.160509682466478
 10
76.06789625145603
 20
4.140420753539733
 10
76.08280835038106
 20
4.118110236220472
 10
76.0946737756886
 20
4.094040721068021
 10
76.103259903743
 20
4.068734473245011
 10
76.10847722263925
 20
4.04252555572863
 10
76.11023622047244
 20
4.015748031496063
  0
LWPOLYLINE
  5
12A
330
17
100
AcDbEntity
  8
Panel head - detail A
100
AcDbPolyline
 90
49
 70
0
 10
82.36220472440945
 20
4.015748031496063
 10
82.35780722982646
 20
3.948804220914647
 10
82.3447639325858
 20
3.8832819271236922
 10
82.32329861244986
 20
3.820016307566166
 10
82.293635049181
 20
3.7598425196850394
 10
82.25635480186844
 20
3.7040662263868875
 10
82.21229782821344
 20
3.6538439040700244
 10
82.16207550589657
 20
3.6097869304150207
 10
82.10629921259843
 20
3.572506683102452
 10
82.0461254247173
 20
3.542843119833606
 10
81.98285980515978
 20
3.5213777996976536
 10
81.9173375113688
 20
3.5083345024569907
 10
81.85039370078741
 20
3.5039370078740157
 10
81.783449890206
 20
3.5083345024569907
 10
81.71792759641502
 20
3.5213777996976536
 10
81.6546619768575
 20
3.542843119833606
 10
81.59448818897637
 20
3.572506683102452
 10
81.53871189567823
 20
3.6097869304150207
 10
81.48848957336136
 20
3.6538439040700244
 10
81.44443259970636
 20
3.7040662263868875
 10
81.4071523523938
 20
3.7598425196850394
 10
81.37748878912494
 20
3.820016307566166
 10
81.356023468989
 20
3.8832819271236922
 10
81.34298017174834
 20
3.948804220914647
 10
81.33858267716535
 20
4.015748031496063
 10
81.34298017174834
 20
4.0826918420774785
 10
81.356023468989
 20
4.148214135868434
 10
81.37748878912494
 20
4.21147975542596
 10
81.4071523523938
 20
4.271653543307086
 10
81.44443259970636
 20
4.327429836605238
 10
81.48848957336136
 20
4.377652158922102
 10
81.53871189567823
 20
4.421709132577104
 10
81.59448818897637
 20
4.4589893798896725
 10
81.6546619768575
 20
4.4886529431585185
 10
81.71792759641502
 20
4.510118263294473
 10
81.783449890206
 20
4.523161560535135
 10
81.85039370078741
 20
4.52755905511811
 10
81.9173375113688
 20
4.523161560535135
 10
81.98285980515978
 20
4.510118263294473
 10
82.0461254247173
 20
4.488652943158519
 10
82.10629921259843
 20
4.458989379889673
 10
82.16207550589657
 20
4.421709132577105
 10
82.21229782821344
 20
4.377652158922102
 10
82.25635480186844
 20
4.327429836605238
 10
82.293635049181
 20
4.271653543307086
 10
82.32329861244986
 20
4.21147975542596
 10
82.3447639325858
 20
4.148214135868434
 10
82.35780722982646
 20
4.0826918420774785
 10
82.36220472440945
 20
4.015748031496063
  0
LWPOLYLINE
  5
12B
330
17
100
AcDbEntity
  8
Panel head - detail A
100
AcDbPolyline
 90
49
 70
0
 10
82.05511811023621
 20
4.015748031496063
 10
82.05335911240302
 20
3.9889705072634962
 10
82.04814179350677
 20
3.9627615897471142
 10
82.03955566545238
 20
3.9374553419241045
 10
82.02769024014485
 20
3.9133858267716537
 10
82.01277814121981
 20
3.891075309452393
 10
81.99515535175783
 20
3.8709863805256473
 10
81.97506642283108
 20
3.853363591063647
 10
81.95275590551181
 20
3.838451492138619
 10
81.92868639035936
 20
3.82658606683108
 10
81.90338014253635
 20
3.8179999387766985
 10
81.87717122501996
 20
3.812782619880435
 10
81.85039370078741
 20
3.8110236220472444
 10
81.82361617655484
 20
3.812782619880435
 10
81.79740725903845
 20
3.8179999387766985
 10
81.77210101121544
 20
3.82658606683108
 10
81.74803149606299
 20
3.838451492138619
 10
81.72572097874372
 20
3.853363591063647
 10
81.70563204981698
 20
3.8709863805256473
 10
81.68800926035499
 20
3.891075309452393
 10
81.67309716142996
 20
3.9133858267716537
 10
81.66123173612242
 20
3.9374553419241045
 10
81.65264560806803
 20
3.9627615897471142
 10
81.64742828917178
 20
3.9889705072634962
 10
81.64566929133859
 20
4.015748031496063
 10
81.64742828917178
 20
4.04252555572863
 10
81.65264560806803
 20
4.068734473245011
 10
81.66123173612242
 20
4.094040721068021
 10
81.67309716142996
 20
4.118110236220472
 10
81.68800926035499
 20
4.140420753539733
 10
81.70563204981698
 20
4.160509682466477
 10
81.72572097874372
 20
4.178132471928478
 10
81.74803149606299
 20
4.193044570853506
 10
81.77210101121544
 20
4.204909996161045
 10
81.79740725903845
 20
4.213496124215426
 10
81.82361617655484
 20
4.2187134431116915
 10
81.85039370078741
 20
4.2204724409448815
 10
81.87717122501996
 20
4.2187134431116915
 10
81.90338014253635
 20
4.213496124215427
 10
81.92868639035936
 20
4.204909996161046
 10
81.95275590551181
 20
4.193044570853507
 10
81.97506642283108
 20
4.178132471928479
 10
81.99515535175783
 20
4.160509682466478
 10
82.01277814121981
 20
4.140420753539733
 10
82.02769024014485
 20
4.118110236220472
 10
82.03955566545238
 20
4.094040721068021
 10
82.04814179350677
 20
4.068734473245011
 10
82.05335911240302
 20
4.04252555572863
 10
82.05511811023621
 20
4.015748031496063
  0
LWPOLYLINE
  5
12C
330
17
100
AcDbEntity
  8
Panel head - detail A
100
AcDbPolyline
 90
6
 70
0
 10
72.04724409448819
 20
0.4724409448818889
 10
78.40551181102362
 20
0.4724409448818889
 10
78.72047244094487
 20
0.9448818897637796
 10
79.03543307086613
 20
0.0
 10
79.35039370078741
 20
0.4724409448818889
 10
85.70866141732283
 20
0.4724409448818889
  0
TEXT
  5
12D
330
17
100
AcDbEntity
  8
LABELS
100
AcDbText
 10
72.04724409448819
 20
11.299212598425196
 30
0.0
 40
0.7086614173228346
  1
PANEL HEAD - DETAIL A  (1:1, inches)
 11
72.04724409448819
 21
11.299212598425196
 31
0.0
100
AcDbText
  0
POLYLINE
  5
130
330
17
100
AcDbEntity
  8
Section B-B
100
AcDb2dPolyline
 66
1
 10
0.0
 20
0.0
 30
0.0
 70
0
  0
VERTEX
  5
131
330
130
100
AcDbEntity
  8
Section B-B
100
AcDbVertex
100
AcDb2dVertex
 10
95.55118110236221
 20
2.559055118110236
 30
0.0
 70
0
  0
VERTEX
  5
132
330
130
100
AcDbEntity
  8
Section B-B
100
AcDbVertex
100
AcDb2dVertex
 10
98.7007874015748
 20
2.559055118110236
 30
0.0
 70
0
  0
VERTEX
  5
133
330
130
100
AcDbEntity
  8
Section B-B
100
AcDbVertex
100
AcDb2dVertex
 10
98.7007874015748
 20
2.4803149606299213
 30
0.0
 70
0
  0
SEQEND
  5
134
330
130
100
AcDbEntity
  8
Section B-B
  0
SPLINE
  5
135
330
17
100
AcDbEntity
  8
Section B-B
100
AcDbSpline
 70
0
 71
3
 72
8
 73
4
 74
0
 40
0.0
 40
0.0
 40
0.0
 40
0.0
 40
1.0
 40
1.0
 40
1.0
 40
1.0
 10
98.7007874015748
 20
2.4803149606299213
 30
0.0
 10
99.22572178477691
 20
2.4803149606299213
 30
0.0
 10
99.48818897637796
 20
2.3293963254593177
 30
0.0
 10
99.48818897637796
 20
2.02755905511811
 30
0.0
  0
POLYLINE
  5
136
330
17
100
AcDbEntity
  8
Section B-B
100
AcDb2dPolyline
 66
1
 10
0.0
 20
0.0
 30
0.0
 70
0
  0
VERTEX
  5
137
330
136
100
AcDbEntity
  8
Section B-B
100
AcDbVertex
100
AcDb2dVertex
 10
99.48818897637796
 20
2.02755905511811
 30
0.0
 70
0
  0
VERTEX
  5
138
330
136
100
AcDbEntity
  8
Section B-B
100
AcDbVertex
100
AcDb2dVertex
 10
99.48818897637796
 20
1.3188976377952755
 30
0.0
 70
0
  0
SEQEND
  5
139
330
136
100
AcDbEntity
  8
Section B-B
  0
SPLINE
  5
13A
330
17
100
AcDbEntity
  8
Section B-B
100
AcDbSpline
 70
0
 71
3
 72
8
 73
4
 74
0
 40
0.0
 40
0.0
 40
0.0
 40
0.0
 40
1.0
 40
1.0
 40
1.0
 40
1.0
 10
99.48818897637796
 20
1.3188976377952755
 30
0.0
 10
99.48818897637796
 20
1.0170603674540684
 30
0.0
 10
99.22572178477691
 20
0.8661417322834646
 30
0.0
 10
98.7007874015748
 20
0.8661417322834646
 30
0.0
  0
POLYLINE
  5
13B
330
17
100
AcDbEntity
  8
Section B-B
100
AcDb2dPolyline
 66
1
 10
0.0
 20
0.0
 30
0.0
 70
0
  0
VERTEX
  5
13C
330
13B
100
AcDbEntity
  8
Section B-B
100
AcDbVertex
100
AcDb2dVertex
 10
98.7007874015748
 20
0.8661417322834646
 30
0.0
 70
0
  0
VERTEX
  5
13D
330
13B
100
AcDbEntity
  8
Section B-B
100
AcDbVertex
100
AcDb2dVertex
 10
98.7007874015748
 20
0.7874015748031495
 30
0.0
 70
0
  0
VERTEX
  5
13E
330
13B
100
AcDbEntity
  8
Section B-B
100
AcDbVertex
100
AcDb2dVertex
 10
95.55118110236221
 20
0.7874015748031495
 30
0.0
 70
0
  0
VERTEX
  5
13F
330
13B
100
AcDbEntity
  8
Section B-B
100
AcDbVertex
100
AcDb2dVertex
 10
95.55118110236221
 20
2.559055118110236
 30
0.0
 70
0
  0
SEQEND
  5
140
330
13B
100
AcDbEntity
  8
Section B-B
  0
LWPOLYLINE
  5
141
330
17
100
AcDbEntity
  8
Section B-B
  6
DASHED
100
AcDbPolyline
 90
5
 70
0
 10
99.48818897637796
 20
2.02755905511811
 10
99.96062992125985
 20
2.02755905511811
 10
99.96062992125985
 20
1.3188976377952755
 10
99.48818897637796
 20
1.3188976377952755
 10
99.48818897637796
 20
2.02755905511811
  0
POLYLINE
  5
142
330
17
100
AcDbEntity
  8
Section B-B
100
AcDb2dPolyline
 66
1
 10
0.0
 20
0.0
 30
0.0
 70
0
  0
VERTEX
  5
143
330
142
100
AcDbEntity
  8
Section B-B
100
AcDbVertex
100
AcDb2dVertex
 10
114.01574803149606
 20
2.559055118110236
 30
0.0
 70
0
  0
VERTEX
  5
144
330
142
100
AcDbEntity
  8
Section B-B
100
AcDbVertex
100
AcDb2dVertex
 10
110.39370078740157
 20
2.559055118110236
 30
0.0
 70
0
  0
VERTEX
  5
145
330
142
100
AcDbEntity
  8
Section B-B
100
AcDbVertex
100
AcDb2dVertex
 10
110.39370078740157
 20
2.4803149606299213
 30
0.0
 70
0
  0
SEQEND
  5
146
330
142
100
AcDbEntity
  8
Section B-B
  0
SPLINE
  5
147
330
17
100
AcDbEntity
  8
Section B-B
100
AcDbSpline
 70
0
 71
3
 72
8
 73
4
 74
0
 40
0.0
 40
0.0
 40
0.0
 40
0.0
 40
1.0
 40
1.0
 40
1.0
 40
1.0
 10
110.39370078740157
 20
2.4803149606299213
 30
0.0
 10
109.86876640419948
 20
2.4803149606299213
 30
0.0
 10
109.60629921259843
 20
2.3293963254593177
 30
0.0
 10
109.60629921259843
 20
2.02755905511811
 30
0.0
  0
POLYLINE
  5
148
330
17
100
AcDbEntity
  8
Section B-B
100
AcDb2dPolyline
 66
1
 10
0.0
 20
0.0
 30
0.0
 70
0
  0
VERTEX
  5
149
330
148
100
AcDbEntity
  8
Section B-B
100
AcDbVertex
100
AcDb2dVertex
 10
109.60629921259843
 20
2.02755905511811
 30
0.0
 70
0
  0
VERTEX
  5
14A
330
148
100
AcDbEntity
  8
Section B-B
100
AcDbVertex
100
AcDb2dVertex
 10
109.60629921259843
 20
1.3188976377952755
 30
0.0
 70
0
  0
SEQEND
  5
14B
330
148
100
AcDbEntity
  8
Section B-B
  0
SPLINE
  5
14C
330
17
100
AcDbEntity
  8
Section B-B
100
AcDbSpline
 70
0
 71
3
 72
8
 73
4
 74
0
 40
0.0
 40
0.0
 40
0.0
 40
0.0
 40
1.0
 40
1.0
 40
1.0
 40
1.0
 10
109.60629921259843
 20
1.3188976377952755
 30
0.0
 10
109.60629921259843
 20
1.0170603674540684
 30
0.0
 10
109.86876640419948
 20
0.8661417322834646
 30
0.0
 10
110.39370078740157
 20
0.8661417322834646
 30
0.0
  0
POLYLINE
  5
14D
330
17
100
AcDbEntity
  8
Section B-B
100
AcDb2dPolyline
 66
1
 10
0.0
 20
0.0
 30
0.0
 70
0
  0
VERTEX
  5
14E
330
14D
100
AcDbEntity
  8
Section B-B
100
AcDbVertex
100
AcDb2dVertex
 10
110.39370078740157
 20
0.8661417322834646
 30
0.0
 70
0
  0
VERTEX
  5
14F
330
14D
100
AcDbEntity
  8
Section B-B
100
AcDbVertex
100
AcDb2dVertex
 10
110.39370078740157
 20
0.7874015748031495
 30
0.0
 70
0
  0
VERTEX
  5
150
330
14D
100
AcDbEntity
  8
Section B-B
100
AcDbVertex
100
AcDb2dVertex
 10
113.54330708661418
 20
0.7874015748031495
 30
0.0
 70
0
  0
VERTEX
  5
151
330
14D
100
AcDbEntity
  8
Section B-B
100
AcDbVertex
100
AcDb2dVertex
 10
113.54330708661418
 20
1.6732283464566928
 30
0.0
 70
0
  0
VERTEX
  5
152
330
14D
100
AcDbEntity
  8
Section B-B
100
AcDbVertex
100
AcDb2dVertex
 10
114.01574803149606
 20
1.6732283464566928
 30
0.0
 70
0
  0
VERTEX
  5
153
330
14D
100
AcDbEntity
  8
Section B-B
100
AcDbVertex
100
AcDb2dVertex
 10
114.01574803149606
 20
2.559055118110236
 30
0.0
 70
0
  0
SEQEND
  5
154
330
14D
100
AcDbEntity
  8
Section B-B
  0
LWPOLYLINE
  5
155
330
17
100
AcDbEntity
  8
Section B-B
  6
DASHED
100
AcDbPolyline
 90
5
 70
0
 10
109.13385826771653
 20
2.02755905511811
 10
109.60629921259843
 20
2.02755905511811
 10
109.60629921259843
 20
1.3188976377952755
 10
109.13385826771653
 20
1.3188976377952755
 10
109.13385826771653
 20
2.02755905511811
  0
LWPOLYLINE
  5
156
330
17
100
AcDbEntity
  8
Section B-B
100
AcDbPolyline
 90
5
 70
0
 10
99.52755905511812
 20
2.02755905511811
 10
109.56692913385827
 20
2.02755905511811
 10
109.56692913385827
 20
1.3188976377952755
 10
99.52755905511812
 20
1.3188976377952755
 10
99.52755905511812
 20
2.02755905511811
  0
LWPOLYLINE
  5
157
330
17
100
AcDbEntity
  8
Section B-B
100
AcDbPolyline
 90
3
 70
0
 10
101.33858267716536
 20
2.02755905511811
 10
101.45669291338584
 20
1.9291338582677164
 10
101.5748031496063
 20
2.02755905511811
  0
LWPOLYLINE
  5
158
330
17
100
AcDbEntity
  8
Section B-B
100
AcDbPolyline
 90
3
 70
0
 10
107.51968503937007
 20
2.02755905511811
 10
107.63779527559055
 20
1.9291338582677164
 10
107.75590551181102
 20
2.02755905511811
  0
LWPOLYLINE
  5
159
330
17
100
AcDbEntity
  8
Section B-B
100
AcDbPolyline
 90
25
 70
0
 10
113.54330708661418
 20
2.559055118110236
 10
116.69291338582677
 20
2.559055118110236
 10
116.69291338582677
 20
2.4803149606299213
 10
116.87746062992126
 20
2.473240649606299
 10
117.03740157480314
 20
2.452017716535433
 10
117.17273622047244
 20
2.4166461614173227
 10
117.28346456692913
 20
2.3671259842519685
 10
117.36958661417323
 20
2.30345718503937
 10
117.43110236220473
 20
2.2256397637795273
 10
117.46801181102362
 20
2.1336737204724407
 10
117.48031496062993
 20
2.02755905511811
 10
117.48031496062993
 20
1.3188976377952755
 10
117.46801181102362
 20
1.212782972440945
 10
117.43110236220473
 20
1.1208169291338583
 10
117.36958661417323
 20
1.0429995078740157
 10
117.28346456692913
 20
0.9793307086614174
 10
117.17273622047244
 20
0.929810531496063
 10
117.03740157480314
 20
0.8944389763779528
 10
116.87746062992126
 20
0.8732160433070866
 10
116.69291338582677
 20
0.8661417322834646
 10
116.69291338582677
 20
0.7874015748031495
 10
113.07086614173228
 20
0.7874015748031495
 10
113.07086614173228
 20
1.6732283464566928
 10
113.54330708661418
 20
1.6732283464566928
 10
113.54330708661418
 20
2.559055118110236
  0
LWPOLYLINE
  5
15A
330
17
100
AcDbEntity
  8
Section B-B
  6
DASHED
100
AcDbPolyline
 90
5
 70
0
 10
117.48031496062993
 20
2.02755905511811
 10
117.95275590551181
 20
2.02755905511811
 10
117.95275590551181
 20
1.3188976377952755
 10
117.48031496062993
 20
1.3188976377952755
 10
117.48031496062993
 20
2.02755905511811
  0
LWPOLYLINE
  5
15B
330
17
100
AcDbEntity
  8
Section B-B
100
AcDbPolyline
 90
2
 70
0
 10
117.51968503937007
 20
2.02755905511811
 10
123.38582677165354
 20
2.02755905511811
  0
LWPOLYLINE
  5
15C
330
17
100
AcDbEntity
  8
Section B-B
100
AcDbPolyline
 90
3
 70
0
 10
123.38582677165354
 20
1.3188976377952755
 10
117.51968503937007
 20
1.3188976377952755
 10
117.51968503937007
 20
2.02755905511811
  0
CIRCLE
  5
15D
330
17
100
AcDbEntity
  8
Section B-B
100
AcDbCircle
 10
113.26771653543307
 20
2.716535433070866
 30
0.0
 40
0.19685039370078738
  0
LWPOLYLINE
  5
15E
330
17
100
AcDbEntity
  8
Section B-B
100
AcDbPolyline
 90
6
 70
0
 10
123.38582677165354
 20
3.031496062992126
 10
123.38582677165354
 20
1.9881889763779528
 10
123.07086614173228
 20
1.7913385826771653
 10
123.7007874015748
 20
1.5551181102362204
 10
123.38582677165354
 20
1.3582677165354329
 10
123.38582677165354
 20
0.3149606299212597
  0
TEXT
  5
15F
330
17
100
AcDbEntity
  8
LABELS
100
AcDbText
 10
95.55118110236221
 20
5.708661417322834
 30
0.0
 40
0.7086614173228346
  1
SECTION B-B  (1:1, inches)
 11
95.55118110236221
 21
5.708661417322834
 31
0.0
100
AcDbText
  0
LWPOLYLINE
  5
162
330
17
100
AcDbEntity
  8
Lock rail - detail C
100
AcDbPolyline
 90
2
 70
0
 10
151.9291338582677
 20
13.779527559055119
 10
151.9291338582677
 20
0.0
  0
LWPOLYLINE
  5
163
330
17
100
AcDbEntity
  8
Lock rail - detail C
100
AcDbPolyline
 90
2
 70
0
 10
133.93700787401573
 20
0.0
 10
133.93700787401573
 20
13.779527559055119
  0
LWPOLYLINE
  5
164
330
17
100
AcDbEntity
  8
Lock rail - detail C
100
AcDbPolyline
 90
2
 70
0
 10
137.8740157480315
 20
11.417322834645669
 10
137.8740157480315
 20
2.3622047244094486
  0
LWPOLYLINE
  5
165
330
17
100
AcDbEntity
  8
Lock rail - detail C
100
AcDbPolyline
 90
2
 70
0
 10
147.99212598425197
 20
11.417322834645669
 10
147.99212598425197
 20
2.3622047244094486
  0
LWPOLYLINE
  5
166
330
17
100
AcDbEntity
  8
Lock rail - detail C
100
AcDbPolyline
 90
4
 70
0
 10
147.99212598425197
 20
13.779527559055119
 10
147.99212598425197
 20
11.417322834645669
 10
137.8740157480315
 20
11.417322834645669
 10
137.8740157480315
 20
13.779527559055119
  0
LWPOLYLINE
  5
167
330
17
100
AcDbEntity
  8
Lock rail - detail C
100
AcDbPolyline
 90
4
 70
0
 10
147.20472440944883
 20
13.779527559055119
 10
147.20472440944883
 20
12.204724409448819
 10
138.66141732283464
 20
12.204724409448819
 10
138.66141732283464
 20
13.779527559055119
  0
LWPOLYLINE
  5
168
330
17
100
AcDbEntity
  8
Lock rail - detail C
100
AcDbPolyline
 90
2
 70
0
 10
137.8740157480315
 20
11.417322834645669
 10
138.66141732283464
 20
12.204724409448819
  0
LWPOLYLINE
  5
169
330
17
100
AcDbEntity
  8
Lock rail - detail C
100
AcDbPolyline
 90
2
 70
0
 10
147.99212598425197
 20
11.417322834645669
 10
147.20472440944883
 20
12.204724409448819
  0
LWPOLYLINE
  5
16A
330
17
100
AcDbEntity
  8
Lock rail - detail C
100
AcDbPolyline
 90
13
 70
0
 10
143.74427346776193
 20
13.779527559055119
 10
143.70822503998525
 20
13.7328140378937
 10
143.59660433070866
 20
13.619586614173228
 10
143.46708253875494
 20
13.523891178641732
 10
143.31585568405512
 20
13.450110728346457
 10
143.13911978654036
 20
13.402628260334646
 10
142.93307086614172
 20
13.385826771653543
 10
142.7270219457431
 20
13.402628260334646
 10
142.55028604822834
 20
13.450110728346457
 10
142.39905919352853
 20
13.523891178641732
 10
142.26953740157478
 20
13.619586614173228
 10
142.15791669229822
 20
13.7328140378937
 10
142.12186826452154
 20
13.779527559055119
  0
LWPOLYLINE
  5
16B
330
17
100
AcDbEntity
  8
Lock rail - detail C
100
AcDbPolyline
 90
3
 70
0
 10
137.8740157480315
 20
2.3622047244094486
 10
147.99212598425197
 20
2.3622047244094486
 10
147.99212598425197
 20
0.0
  0
LWPOLYLINE
  5
16C
330
17
100
AcDbEntity
  8
Lock rail - detail C
100
AcDbPolyline
 90
2
 70
0
 10
137.8740157480315
 20
0.0
 10
137.8740157480315
 20
2.3622047244094486
  0
LWPOLYLINE
  5
16D
330
17
100
AcDbEntity
  8
Lock rail - detail C
100
AcDbPolyline
 90
3
 70
0
 10
138.66141732283464
 20
1.574803149606299
 10
147.20472440944883
 20
1.574803149606299
 10
147.20472440944883
 20
0.0
  0
LWPOLYLINE
  5
16E
330
17
100
AcDbEntity
  8
Lock rail - detail C
100
AcDbPolyline
 90
2
 70
0
 10
138.66141732283464
 20
0.0
 10
138.66141732283464
 20
1.574803149606299
  0
LWPOLYLINE
  5
16F
330
17
100
AcDbEntity
  8
Lock rail - detail C
100
AcDbPolyline
 90
2
 70
0
 10
137.8740157480315
 20
2.3622047244094486
 10
138.66141732283464
 20
1.574803149606299
  0
LWPOLYLINE
  5
170
330
17
100
AcDbEntity
  8
Lock rail - detail C
100
AcDbPolyline
 90
2
 70
0
 10
147.99212598425197
 20
2.3622047244094486
 10
147.20472440944883
 20
1.574803149606299
  0
LWPOLYLINE
  5
171
330
17
100
AcDbEntity
  8
Lock rail - detail C
100
AcDbPolyline
 90
13
 70
0
 10
142.12186826452154
 20
0.0
 10
142.15791669229822
 20
0.046713521161417325
 10
142.26953740157478
 20
0.15994094488188976
 10
142.39905919352853
 20
0.2556363804133858
 10
142.55028604822834
 20
0.3294168307086614
 10
142.7270219457431
 20
0.37689929872047245
 10
142.93307086614172
 20
0.39370078740157477
 10
143.13911978654036
 20
0.37689929872047245
 10
143.31585568405512
 20
0.3294168307086614
 10
143.46708253875494
 20
0.2556363804133858
 10
143.59660433070866
 20
0.15994094488188976
 10
143.70822503998525
 20
0.046713521161417325
 10
143.74427346776193
 20
0.0
  0
LWPOLYLINE
  5
172
330
17
100
AcDbEntity
  8
Lock rail - detail C
100
AcDbPolyline
 90
49
 70
0
 10
140.13779527559055
 20
6.889763779527559
 10
140.12849288320348
 20
6.748151872528411
 10
140.1009012928867
 20
6.609547020278313
 10
140.0554938849068
 20
6.475715901983551
 10
139.9927440395304
 20
6.3484251968503935
 10
139.91388197790764
 20
6.230436884104297
 10
139.82068453363746
 20
6.124197356126319
 10
139.71444500565948
 20
6.030999911856125
 10
139.5964566929134
 20
5.952137850233379
 10
139.46916598778023
 20
5.889388004856977
 10
139.33533486948545
 20
5.843980596877073
 10
139.19673001723535
 20
5.816389006560289
 10
139.0551181102362
 20
5.807086614173229
 10
138.91350620323706
 20
5.816389006560289
 10
138.774901350987
 20
5.843980596877073
 10
138.64107023269221
 20
5.889388004856977
 10
138.51377952755905
 20
5.952137850233379
 10
138.39579121481296
 20
6.030999911856125
 10
138.28955168683498
 20
6.124197356126319
 10
138.19635424256478
 20
6.230436884104297
 10
138.11749218094204
 20
6.3484251968503935
 10
138.05474233556563
 20
6.475715901983551
 10
138.00933492758574
 20
6.609547020278313
 10
137.98174333726894
 20
6.748151872528411
 10
137.9724409448819
 20
6.889763779527559
 10
137.98174333726894
 20
7.031375686526706
 10
138.00933492758574
 20
7.169980538776805
 10
138.05474233556563
 20
7.303811657071567
 10
138.11749218094204
 20
7.431102362204724
 10
138.19635424256478
 20
7.54909067495082
 10
138.28955168683498
 20
7.655330202928798
 10
138.39579121481296
 20
7.748527647198993
 10
138.51377952755905
 20
7.827389708821738
 10
138.64107023269221
 20
7.89013955419814
 10
138.774901350987
 20
7.935546962178044
 10
138.91350620323706
 20
7.963138552494828
 10
139.0551181102362
 20
7.97244094488189
 10
139.19673001723538
 20
7.963138552494828
 10
139.33533486948545
 20
7.935546962178044
 10
139.46916598778023
 20
7.89013955419814
 10
139.5964566929134
 20
7.827389708821738
 10
139.71444500565948
 20
7.748527647198993
 10
139.82068453363746
 20
7.655330202928798
 10
139.91388197790764
 20
7.54909067495082
 10
139.9927440395304
 20
7.431102362204724
 10
140.0554938849068
 20
7.303811657071567
 10
140.1009012928867
 20
7.169980538776805
 10
140.12849288320348
 20
7.031375686526706
 10
140.13779527559055
 20
6.889763779527559
  0
LWPOLYLINE
  5
173
330
17
100
AcDbEntity
  8
Lock rail - detail C
100
AcDbPolyline
 90
49
 70
0
 10
139.74409448818898
 20
6.889763779527559
 10
139.73817478394267
 20
6.7996471114371895
 10
139.72061649919561
 20
6.711444023641681
 10
139.6917208759357
 20
6.626278766545007
 10
139.6517891561507
 20
6.545275590551181
 10
139.60160420784533
 20
6.470192118803672
 10
139.54229674330972
 20
6.402585146454045
 10
139.4746897709601
 20
6.343277681918461
 10
139.3996062992126
 20
6.293092733613081
 10
139.3186031232188
 20
6.2531610138281
 10
139.2334378661221
 20
6.224265390568157
 10
139.1452347783266
 20
6.2067071058211205
 10
139.0551181102362
 20
6.200787401574803
 10
138.96500144214585
 20
6.2067071058211205
 10
138.87679835435034
 20
6.224265390568157
 10
138.79163309725365
 20
6.2531610138281
 10
138.71062992125985
 20
6.293092733613081
 10
138.63554644951233
 20
6.343277681918461
 10
138.5679394771627
 20
6.402585146454045
 10
138.50863201262712
 20
6.470192118803672
 10
138.45844706432175
 20
6.545275590551181
 10
138.41851534453676
 20
6.626278766545007
 10
138.38961972127683
 20
6.711444023641681
 10
138.37206143652978
 20
6.7996471114371895
 10
138.36614173228347
 20
6.889763779527559
 10
138.37206143652978
 20
6.979880447617928
 10
138.38961972127683
 20
7.068083535413437
 10
138.41851534453676
 20
7.1532487925101105
 10
138.45844706432175
 20
7.234251968503937
 10
138.50863201262712
 20
7.309335440251446
 10
138.5679394771627
 20
7.376942412601073
 10
138.63554644951233
 20
7.436249877136658
 10
138.71062992125985
 20
7.486434825442037
 10
138.79163309725365
 20
7.526366545227018
 10
138.87679835435034
 20
7.55526216848696
 10
138.96500144214585
 20
7.572820453233997
 10
139.0551181102362
 20
7.578740157480315
 10
139.1452347783266
 20
7.572820453233997
 10
139.2334378661221
 20
7.55526216848696
 10
139.3186031232188
 20
7.526366545227018
 10
139.3996062992126
 20
7.486434825442037
 10
139.4746897709601
 20
7.436249877136658
 10
139.54229674330972
 20
7.376942412601073
 10
139.60160420784533
 20
7.309335440251446
 10
139.6517891561507
 20
7.234251968503937
 10
139.6917208759357
 20
7.1532487925101105
 10
139.72061649919561
 20
7.068083535413437
 10
139.73817478394267
 20
6.979880447617928
 10
139.74409448818898
 20
6.889763779527559
  0
LWPOLYLINE
  5
174
330
17
100
AcDbEntity
  8
Lock rail - detail C
100
AcDbPolyline
 90
49
 70
0
 10
136.25984251968504
 20
6.889763779527559
 10
136.25409194984576
 20
6.802221873382629
 10
136.2370353303772
 20
6.716538873809845
 10
136.20896529635326
 20
6.633806909773083
 10
136.17017448284784
 20
6.55511811023622
 10
136.12142339020835
 20
6.482179880538637
 10
136.0638104246595
 20
6.416504535970433
 10
135.9981350800913
 20
6.358891570421578
 10
135.9251968503937
 20
6.310140477782068
 10
135.84650805085684
 20
6.271349664276649
 10
135.7637760868201
 20
6.243279630252711
 10
135.67809308724728
 20
6.226223010784152
 10
135.59055118110237
 20
6.2204724409448815
 10
135.50300927495744
 20
6.226223010784152
 10
135.41732627538465
 20
6.243279630252711
 10
135.33459431134787
 20
6.271349664276649
 10
135.25590551181102
 20
6.310140477782068
 10
135.18296728211345
 20
6.358891570421578
 10
135.11729193754522
 20
6.416504535970433
 10
135.0596789719964
 20
6.482179880538637
 10
135.01092787935687
 20
6.55511811023622
 10
134.97213706585146
 20
6.633806909773083
 10
134.9440670318275
 20
6.716538873809845
 10
134.92701041235895
 20
6.802221873382629
 10
134.92125984251967
 20
6.889763779527559
 10
134.92701041235895
 20
6.977305685672489
 10
134.9440670318275
 20
7.062988685245273
 10
134.97213706585146
 20
7.145720649282034
 10
135.01092787935687
 20
7.224409448818897
 10
135.0596789719964
 20
7.297347678516481
 10
135.11729193754522
 20
7.3630230230846845
 10
135.18296728211345
 20
7.420635988633539
 10
135.25590551181102
 20
7.46938708127305
 10
135.33459431134787
 20
7.508177894778469
 10
135.41732627538465
 20
7.536247928802407
 10
135.50300927495744
 20
7.553304548270965
 10
135.59055118110237
 20
7.559055118110236
 10
135.67809308724728
 20
7.553304548270965
 10
135.7637760868201
 20
7.536247928802407
 10
135.84650805085684
 20
7.508177894778469
 10
135.9251968503937
 20
7.46938708127305
 10
135.9981350800913
 20
7.420635988633539
 10
136.0638104246595
 20
7.3630230230846845
 10
136.12142339020835
 20
7.297347678516481
 10
136.17017448284784
 20
7.224409448818897
 10
136.20896529635326
 20
7.145720649282034
 10
136.2370353303772
 20
7.062988685245273
 10
136.25409194984576
 20
6.977305685672489
 10
136.25984251968504
 20
6.889763779527559
  0
LWPOLYLINE
  5
175
330
17
100
AcDbEntity
  8
Lock rail - detail C
100
AcDbPolyline
 90
44
 70
0
 10
135.4724409448819
 20
6.929133858267717
 10
135.45738774950075
 20
6.944330411106716
 10
135.44431874491468
 20
6.961167417612348
 10
135.43336596048871
 20
6.979451842193377
 10
135.42466142558786
 20
6.998990649258571
 10
135.41837526875128
 20
7.019436141221283
 10
135.41460787793838
 20
7.040414473743293
 10
135.41338667164442
 20
7.061693391105992
 10
135.4147390683647
 20
7.083040637590788
 10
135.41865449349842
 20
7.104069269391114
 10
135.4250484604745
 20
7.124401530830749
 10
135.4338375198328
 20
7.143818948386587
 10
135.44493822211308
 20
7.162103048535505
 10
135.45816170276993
 20
7.178915944439823
 10
135.47325788110766
 20
7.1939621754807295
 10
135.4900514834408
 20
7.207086907463398
 10
135.50836723608387
 20
7.218135306193039
 10
135.52788108471097
 20
7.226895649858129
 10
135.54823442460477
 20
7.233222199005034
 10
135.56920015649277
 20
7.2370590929757315
 10
135.59055118110237
 20
7.238350471112188
 10
135.61190220571197
 20
7.2370590929757315
 10
135.63286793759997
 20
7.233222199005034
 10
135.65322127749374
 20
7.226895649858129
 10
135.67273512612084
 20
7.218135306193039
 10
135.69105087876395
 20
7.207086907463398
 10
135.70784448109708
 20
7.193962175480721
 10
135.7229406594348
 20
7.178915944439814
 10
135.73616414009166
 20
7.162103048535496
 10
135.74726484237192
 20
7.143818948386578
 10
135.7560539017302
 20
7.12440153083074
 10
135.76244786870632
 20
7.104069269391105
 10
135.76636329384002
 20
7.083040637590779
 10
135.7677156905603
 20
7.061693391105983
 10
135.76649448426633
 20
7.040414473743284
 10
135.76272709345344
 20
7.0194361412212745
 10
135.75644093661688
 20
6.9989906492585625
 10
135.747736401716
 20
6.9794518421933684
 10
135.73678361729003
 20
6.961167417612338
 10
135.723714612704
 20
6.944330411106716
 10
135.70866141732284
 20
6.929133858267717
 10
135.76771653543307
 20
6.496062992125984
 10
135.41338582677164
 20
6.496062992125984
 10
135.4724409448819
 20
6.929133858267717
  0
TEXT
  5
176
330
17
100
AcDbEntity
  8
LABELS
100
AcDbText
 10
133.54330708661416
 20
16.141732283464567
 30
0.0
 40
0.7086614173228346
  1
LOCK RAIL - DETAIL C  (1:1, inches)
 11
133.54330708661416
 21
16.141732283464567
 31
0.0
100
AcDbText
  0
TEXT
  5
177
330
17
100
AcDbEntity
  8
LABELS
100
AcDbText
 10
0.0
 20
-8.661417322834646
 30
0.0
 40
1.574803149606299
  1
Doors D1 · AST-DR-001
 11
0.0
 21
-8.661417322834646
 31
0.0
100
AcDbText
  0
ENDSEC
  0
SECTION
  2
OBJECTS
  0
DICTIONARY
  5
A
330
0
100
AcDbDictionary
281
1
  3
ACAD_COLOR
350
B
  3
ACAD_GROUP
350
C
  3
ACAD_LAYOUT
350
D
  3
ACAD_MATERIAL
350
E
  3
ACAD_MLEADERSTYLE
350
F
  3
ACAD_MLINESTYLE
350
10
  3
ACAD_PLOTSETTINGS
350
11
  3
ACAD_PLOTSTYLENAME
350
12
  3
ACAD_SCALELIST
350
14
  3
ACAD_TABLESTYLE
350
15
  3
ACAD_VISUALSTYLE
350
16
  3
EZDXF_META
350
2D
  0
DICTIONARY
  5
B
330
A
100
AcDbDictionary
281
1
  0
DICTIONARY
  5
C
330
A
100
AcDbDictionary
281
1
  0
DICTIONARY
  5
D
330
A
100
AcDbDictionary
281
1
  3
Model
350
1A
  3
Layout1
350
1E
  0
DICTIONARY
  5
E
330
A
100
AcDbDictionary
281
1
  3
ByBlock
350
1F
  3
ByLayer
350
20
  3
Global
350
21
  0
DICTIONARY
  5
F
330
A
100
AcDbDictionary
281
1
  3
Standard
350
2C
  0
DICTIONARY
  5
10
330
A
100
AcDbDictionary
281
1
  3
Standard
350
22
  0
DICTIONARY
  5
11
330
A
100
AcDbDictionary
281
1
  0
ACDBDICTIONARYWDFLT
  5
12
330
A
100
AcDbDictionary
281
1
  3
Normal
350
13
100
AcDbDictionaryWithDefault
340
13
  0
ACDBPLACEHOLDER
  5
13
330
12
  0
DICTIONARY
  5
14
330
A
100
AcDbDictionary
281
1
  0
DICTIONARY
  5
15
330
A
100
AcDbDictionary
281
1
  0
DICTIONARY
  5
16
330
A
100
AcDbDictionary
281
1
  3
2dWireframe
350
5A
  3
Basic
350
5B
  3
Brighten
350
5C
  3
ColorChange
350
5D
  3
Conceptual
350
5E
  3
Dim
350
5F
  3
EdgeColorOff
350
60
  3
Facepattern
350
61
  3
Flat
350
62
  3
FlatWithEdges
350
63
  3
Gouraud
350
64
  3
GouraudWithEdges
350
65
  3
Hidden
350
66
  3
JitterOff
350
67
  3
Linepattern
350
68
  3
Modeling
350
69
  3
OverhangOff
350
6A
  3
Realistic
350
6B
  3
Shaded
350
6C
  3
Shaded with edges
350
6D
  3
Shades of Gray
350
6E
  3
Sketchy
350
6F
  3
Thicken
350
70
  3
Wireframe
350
71
  3
X-Ray
350
72
  0
LAYOUT
  5
1A
330
D
100
AcDbPlotSettings
  1

  4
A3
  6

 40
7.5
 41
20.0
 42
7.5
 43
20.0
 44
420.0
 45
297.0
 46
0.0
 47
0.0
 48
0.0
 49
0.0
140
0.0
141
0.0
142
1.0
143
1.0
 70
1024
 72
1
 73
0
 74
5
  7

 75
16
 76
0
 77
2
 78
300
147
1.0
148
0.0
149
0.0
100
AcDbLayout
  1
Model
 70
1
 71
0
 10
0.0
 20
0.0
 11
420.0
 21
297.0
 12
0.0
 22
0.0
 32
0.0
 14
1e+20
 24
1e+20
 34
1e+20
 15
-1e+20
 25
-1e+20
 35
-1e+20
146
0.0
 13
0.0
 23
0.0
 33
0.0
 16
1.0
 26
0.0
 36
0.0
 17
0.0
 27
1.0
 37
0.0
 76
1
330
17
  0
LAYOUT
  5
1E
330
D
100
AcDbPlotSettings
  1

  4
A3
  6

 40
7.5
 41
20.0
 42
7.5
 43
20.0
 44
420.0
 45
297.0
 46
0.0
 47
0.0
 48
0.0
 49
0.0
140
0.0
141
0.0
142
1.0
143
1.0
 70
0
 72
1
 73
0
 74
5
  7

 75
16
 76
0
 77
2
 78
300
147
1.0
148
0.0
149
0.0
100
AcDbLayout
  1
Layout1
 70
1
 71
1
 10
0.0
 20
0.0
 11
420.0
 21
297.0
 12
0.0
 22
0.0
 32
0.0
 14
1e+20
 24
1e+20
 34
1e+20
 15
-1e+20
 25
-1e+20
 35
-1e+20
146
0.0
 13
0.0
 23
0.0
 33
0.0
 16
1.0
 26
0.0
 36
0.0
 17
0.0
 27
1.0
 37
0.0
 76
1
330
1B
  0
MATERIAL
  5
1F
102
{ACAD_REACTORS
330
E
102
}
330
E
100
AcDbMaterial
  1
ByBlock
  2

 70
0
 40
1.0
 71
1
 41
1.0
 91
-1023410177
 42
1.0
 72
1
  3

 73
1
 74
1
 75
1
 44
0.5
 73
0
 45
1.0
 46
1.0
 77
1
  4

 78
1
 79
1
170
1
 48
1.0
171
1
  6

172
1
173
1
174
1
140
1.0
141
1.0
175
1
  7

176
1
177
1
178
1
143
1.0
179
1
  8

270
1
271
1
272
1
145
1.0
146
1.0
273
1
  9

274
1
275
1
276
1
 42
1.0
 72
1
  3

 73
1
 74
1
 75
1
 94
63
  0
MATERIAL
  5
20
102
{ACAD_REACTORS
330
E
102
}
330
E
100
AcDbMaterial
  1
ByLayer
  2

 70
0
 40
1.0
 71
1
 41
1.0
 91
-1023410177
 42
1.0
 72
1
  3

 73
1
 74
1
 75
1
 44
0.5
 73
0
 45
1.0
 46
1.0
 77
1
  4

 78
1
 79
1
170
1
 48
1.0
171
1
  6

172
1
173
1
174
1
140
1.0
141
1.0
175
1
  7

176
1
177
1
178
1
143
1.0
179
1
  8

270
1
271
1
272
1
145
1.0
146
1.0
273
1
  9

274
1
275
1
276
1
 42
1.0
 72
1
  3

 73
1
 74
1
 75
1
 94
63
  0
MATERIAL
  5
21
102
{ACAD_REACTORS
330
E
102
}
330
E
100
AcDbMaterial
  1
Global
  2

 70
0
 40
1.0
 71
1
 41
1.0
 91
-1023410177
 42
1.0
 72
1
  3

 73
1
 74
1
 75
1
 44
0.5
 73
0
 45
1.0
 46
1.0
 77
1
  4

 78
1
 79
1
170
1
 48
1.0
171
1
  6

172
1
173
1
174
1
140
1.0
141
1.0
175
1
  7

176
1
177
1
178
1
143
1.0
179
1
  8

270
1
271
1
272
1
145
1.0
146
1.0
273
1
  9

274
1
275
1
276
1
 42
1.0
 72
1
  3

 73
1
 74
1
 75
1
 94
63
  0
MLINESTYLE
  5
22
102
{ACAD_REACTORS
330
10
102
}
330
10
100
AcDbMlineStyle
  2
Standard
 70
0
  3

 62
256
 51
90.0
 52
90.0
 71
2
 49
0.5
 62
256
  6
BYLAYER
 49
-0.5
 62
256
  6
BYLAYER
  0
MLEADERSTYLE
  5
2C
102
{ACAD_REACTORS
330
F
102
}
330
F
100
AcDbMLeaderStyle
179
2
170
2
171
1
172
0
 90
2
 40
0.0
 41
0.0
173
1
 91
-1056964608
 92
-2
290
1
 42
2.0
291
1
 43
8.0
  3
Standard
 44
4.0
300

342
29
174
1
175
1
176
0
178
1
 93
-1056964608
 45
4.0
292
0
297
0
 46
4.0
 94
-1056964608
 47
1.0
 49
1.0
140
1.0
294
1
141
0.0
177
0
142
1.0
295
0
296
0
143
3.75
271
0
272
9
273
9
  0
DICTIONARY
  5
2D
330
A
100
AcDbDictionary
280
1
281
1
  3
CREATED_BY_EZDXF
350
2E
  3
WRITTEN_BY_EZDXF
350
17A
  0
DICTIONARYVAR
  5
2E
330
2D
100
DictionaryVariables
280
0
  1
1.4.2 @ 2026-09-19T19:58:39.257419+00:00
  0
VISUALSTYLE
  5
5A
102
{ACAD_REACTORS
330
16
102
}
330
16
100
AcDbVisualStyle
  2
2dWireframe
 70
4
 90
0
 40
0.6
 62
7
290
0
291
0
  0
VISUALSTYLE
  5
5B
102
{ACAD_REACTORS
330
16
102
}
330
16
100
AcDbVisualStyle
  2
Basic
 70
7
 90
1
 40
0.6
 62
7
290
0
291
1
  0
VISUALSTYLE
  5
5C
102
{ACAD_REACTORS
330
16
102
}
330
16
100
AcDbVisualStyle
  2
Brighten
 70
12
 90
2
 40
0.6
 62
7
290
0
291
1
  0
VISUALSTYLE
  5
5D
102
{ACAD_REACTORS
330
16
102
}
330
16
100
AcDbVisualStyle
  2
ColorChange
 70
16
 90
2
 40
0.6
 62
8
290
0
291
1
  0
VISUALSTYLE
  5
5E
102
{ACAD_REACTORS
330
16
102
}
330
16
100
AcDbVisualStyle
  2
Conceptual
 70
9
 90
3
 40
0.6
 62
7
290
0
291
0
  0
VISUALSTYLE
  5
5F
102
{ACAD_REACTORS
330
16
102
}
330
16
100
AcDbVisualStyle
  2
Dim
 70
11
 90
2
 40
0.6
 62
7
290
0
291
1
  0
VISUALSTYLE
  5
60
102
{ACAD_REACTORS
330
16
102
}
330
16
100
AcDbVisualStyle
  2
EdgeColorOff
 70
22
 90
2
 40
0.6
 62
7
290
0
291
1
  0
VISUALSTYLE
  5
61
102
{ACAD_REACTORS
330
16
102
}
330
16
100
AcDbVisualStyle
  2
Facepattern
 70
15
 90
2
 40
0.6
 62
7
290
0
291
1
  0
VISUALSTYLE
  5
62
102
{ACAD_REACTORS
330
16
102
}
330
16
100
AcDbVisualStyle
  2
Flat
 70
0
 90
2
 40
0.6
 62
7
290
0
291
1
  0
VISUALSTYLE
  5
63
102
{ACAD_REACTORS
330
16
102
}
330
16
100
AcDbVisualStyle
  2
FlatWithEdges
 70
1
 90
2
 40
0.6
 62
7
290
0
291
1
  0
VISUALSTYLE
  5
64
102
{ACAD_REACTORS
330
16
102
}
330
16
100
AcDbVisualStyle
  2
Gouraud
 70
2
 90
2
 40
0.6
 62
7
290
0
291
1
  0
VISUALSTYLE
  5
65
102
{ACAD_REACTORS
330
16
102
}
330
16
100
AcDbVisualStyle
  2
GouraudWithEdges
 70
3
 90
2
 40
0.6
 62
7
290
0
291
1
  0
VISUALSTYLE
  5
66
102
{ACAD_REACTORS
330
16
102
}
330
16
100
AcDbVisualStyle
  2
Hidden
 70
6
 90
1
 40
0.6
 62
7
290
0
291
0
  0
VISUALSTYLE
  5
67
102
{ACAD_REACTORS
330
16
102
}
330
16
100
AcDbVisualStyle
  2
JitterOff
 70
20
 90
2
 40
0.6
 62
7
290
0
291
1
  0
VISUALSTYLE
  5
68
102
{ACAD_REACTORS
330
16
102
}
330
16
100
AcDbVisualStyle
  2
Linepattern
 70
14
 90
2
 40
0.6
 62
7
290
0
291
1
  0
VISUALSTYLE
  5
69
102
{ACAD_REACTORS
330
16
102
}
330
16
100
AcDbVisualStyle
  2
Modeling
 70
10
 90
2
 40
0.6
 62
7
290
0
291
0
  0
VISUALSTYLE
  5
6A
102
{ACAD_REACTORS
330
16
102
}
330
16
100
AcDbVisualStyle
  2
OverhangOff
 70
21
 90
2
 40
0.6
 62
7
290
0
291
1
  0
VISUALSTYLE
  5
6B
102
{ACAD_REACTORS
330
16
102
}
330
16
100
AcDbVisualStyle
  2
Realistic
 70
8
 90
2
 40
0.6
 62
7
290
0
291
0
  0
VISUALSTYLE
  5
6C
102
{ACAD_REACTORS
330
16
102
}
330
16
100
AcDbVisualStyle
  2
Shaded
 70
27
 90
2
 40
0.6
 62
7
290
0
291
0
  0
VISUALSTYLE
  5
6D
102
{ACAD_REACTORS
330
16
102
}
330
16
100
AcDbVisualStyle
  2
Shaded with edges
 70
26
 90
2
 40
0.6
 62
7
290
0
291
0
  0
VISUALSTYLE
  5
6E
102
{ACAD_REACTORS
330
16
102
}
330
16
100
AcDbVisualStyle
  2
Shades of Gray
 70
23
 90
2
 40
0.6
 62
7
290
0
291
0
  0
VISUALSTYLE
  5
6F
102
{ACAD_REACTORS
330
16
102
}
330
16
100
AcDbVisualStyle
  2
Sketchy
 70
24
 90
1
 40
0.6
 62
7
290
0
291
0
  0
VISUALSTYLE
  5
70
102
{ACAD_REACTORS
330
16
102
}
330
16
100
AcDbVisualStyle
  2
Thicken
 70
13
 90
2
 40
0.6
 62
7
290
0
291
1
  0
VISUALSTYLE
  5
71
102
{ACAD_REACTORS
330
16
102
}
330
16
100
AcDbVisualStyle
  2
Wireframe
 70
5
 90
0
 40
0.6
 62
7
290
0
291
0
  0
VISUALSTYLE
  5
72
102
{ACAD_REACTORS
330
16
102
}
330
16
100
AcDbVisualStyle
  2
X-Ray
 70
25
 90
2
 40
0.5
 62
7
290
0
291
0
  0
DICTIONARYVAR
  5
17A
330
2D
100
DictionaryVariables
280
0
  1
1.4.2 @ 2026-09-19T19:58:39.376625+00:00
  0
ENDSEC
  0
EOF
