  0
SECTION
  2
HEADER
  9
$ACADVER
  1
AC1024
  9
$ACADMAINTVER
 70
6
  9
$DWGCODEPAGE
  3
ANSI_1252
  9
$LASTSAVEDBY
  1
ezdxf
  9
$INSBASE
 10
0.0
 20
0.0
 30
0.0
  9
$EXTMIN
 10
1e+20
 20
1e+20
 30
1e+20
  9
$EXTMAX
 10
-1e+20
 20
-1e+20
 30
-1e+20
  9
$LIMMIN
 10
0.0
 20
0.0
  9
$LIMMAX
 10
420.0
 20
297.0
  9
$ORTHOMODE
 70
0
  9
$REGENMODE
 70
1
  9
$FILLMODE
 70
1
  9
$QTEXTMODE
 70
0
  9
$MIRRTEXT
 70
1
  9
$LTSCALE
 40
1.0
  9
$ATTMODE
 70
1
  9
$TEXTSIZE
 40
2.5
  9
$TRACEWID
 40
1.0
  9
$TEXTSTYLE
  7
OpenSans
  9
$CLAYER
  8
0
  9
$CELTYPE
  6
ByLayer
  9
$CECOLOR
 62
256
  9
$CELTSCALE
 40
1.0
  9
$DISPSILH
 70
0
  9
$DIMSCALE
 40
1.0
  9
$DIMASZ
 40
0.175
  9
$DIMEXO
 40
0.125
  9
$DIMDLI
 40
3.75
  9
$DIMRND
 40
0.0
  9
$DIMDLE
 40
0.0
  9
$DIMEXE
 40
0.375
  9
$DIMTP
 40
0.0
  9
$DIMTM
 40
0.0
  9
$DIMTXT
 40
0.25
  9
$DIMCEN
 40
2.5
  9
$DIMTSZ
 40
0.0
  9
$DIMTOL
 70
0
  9
$DIMLIM
 70
0
  9
$DIMTIH
 70
0
  9
$DIMTOH
 70
0
  9
$DIMSE1
 70
0
  9
$DIMSE2
 70
0
  9
$DIMTAD
 70
1
  9
$DIMZIN
 70
12
  9
$DIMBLK
  1
ARCHTICK
  9
$DIMASO
 70
1
  9
$DIMSHO
 70
1
  9
$DIMPOST
  1

  9
$DIMAPOST
  1

  9
$DIMALT
 70
0
  9
$DIMALTD
 70
3
  9
$DIMALTF
 40
0.03937007874
  9
$DIMLFAC
 40
100.0
  9
$DIMTOFL
 70
1
  9
$DIMTVP
 40
0.0
  9
$DIMTIX
 70
0
  9
$DIMSOXD
 70
0
  9
$DIMSAH
 70
0
  9
$DIMBLK1
  1

  9
$DIMBLK2
  1

  9
$DIMSTYLE
  2
EZDXF
  9
$DIMCLRD
 70
0
  9
$DIMCLRE
 70
0
  9
$DIMCLRT
 70
0
  9
$DIMTFAC
 40
0.5
  9
$DIMGAP
 40
0.1
  9
$DIMJUST
 70
0
  9
$DIMSD1
 70
0
  9
$DIMSD2
 70
0
  9
$DIMTOLJ
 70
0
  9
$DIMTZIN
 70
8
  9
$DIMALTZ
 70
0
  9
$DIMALTTZ
 70
0
  9
$DIMUPT
 70
1
  9
$DIMDEC
 70
2
  9
$DIMTDEC
 70
2
  9
$DIMALTU
 70
2
  9
$DIMALTTD
 70
3
  9
$DIMTXSTY
  7
OpenSansCondensed-Light
  9
$DIMAUNIT
 70
0
  9
$DIMADEC
 70
2
  9
$DIMALTRND
 40
0.0
  9
$DIMAZIN
 70
3
  9
$DIMDSEP
 70
46
  9
$DIMATFIT
 70
3
  9
$DIMFRAC
 70
0
  9
$DIMLDRBLK
  1

  9
$DIMLUNIT
 70
2
  9
$DIMLWD
 70
-2
  9
$DIMLWE
 70
-2
  9
$DIMTMOVE
 70
2
  9
$DIMFXL
 40
1.0
  9
$DIMFXLON
 70
0
  9
$DIMJOGANG
 40
0.785398163397
  9
$DIMTFILL
 70
0
  9
$DIMTFILLCLR
 70
0
  9
$DIMARCSYM
 70
0
  9
$DIMLTYPE
  6

  9
$DIMLTEX1
  6

  9
$DIMLTEX2
  6

  9
$DIMTXTDIRECTION
 70
0
  9
$LUNITS
 70
4
  9
$LUPREC
 70
4
  9
$SKETCHINC
 40
1.0
  9
$FILLETRAD
 40
10.0
  9
$AUNITS
 70
0
  9
$AUPREC
 70
3
  9
$MENU
  1
.
  9
$ELEVATION
 40
0.0
  9
$PELEVATION
 40
0.0
  9
$THICKNESS
 40
0.0
  9
$LIMCHECK
 70
0
  9
$CHAMFERA
 40
0.0
  9
$CHAMFERB
 40
0.0
  9
$CHAMFERC
 40
0.0
  9
$CHAMFERD
 40
0.0
  9
$SKPOLY
 70
0
  9
$TDCREATE
 40
2461307.4854050926
  9
$TDUCREATE
 40
2458532.153996898
  9
$TDUPDATE
 40
2461307.4854050926
  9
$TDUUPDATE
 40
2458532.1544311
  9
$TDINDWG
 40
0.0
  9
$TDUSRTIMER
 40
0.0
  9
$USRTIMER
 70
1
  9
$ANGBASE
 50
0.0
  9
$ANGDIR
 70
0
  9
$PDMODE
 70
0
  9
$PDSIZE
 40
0.0
  9
$PLINEWID
 40
0.0
  9
$SPLFRAME
 70
0
  9
$SPLINETYPE
 70
6
  9
$SPLINESEGS
 70
8
  9
$HANDSEED
  5
131
  9
$SURFTAB1
 70
6
  9
$SURFTAB2
 70
6
  9
$SURFTYPE
 70
6
  9
$SURFU
 70
6
  9
$SURFV
 70
6
  9
$UCSBASE
  2

  9
$UCSNAME
  2

  9
$UCSORG
 10
0.0
 20
0.0
 30
0.0
  9
$UCSXDIR
 10
1.0
 20
0.0
 30
0.0
  9
$UCSYDIR
 10
0.0
 20
1.0
 30
0.0
  9
$UCSORTHOREF
  2

  9
$UCSORTHOVIEW
 70
0
  9
$UCSORGTOP
 10
0.0
 20
0.0
 30
0.0
  9
$UCSORGBOTTOM
 10
0.0
 20
0.0
 30
0.0
  9
$UCSORGLEFT
 10
0.0
 20
0.0
 30
0.0
  9
$UCSORGRIGHT
 10
0.0
 20
0.0
 30
0.0
  9
$UCSORGFRONT
 10
0.0
 20
0.0
 30
0.0
  9
$UCSORGBACK
 10
0.0
 20
0.0
 30
0.0
  9
$PUCSBASE
  2

  9
$PUCSNAME
  2

  9
$PUCSORG
 10
0.0
 20
0.0
 30
0.0
  9
$PUCSXDIR
 10
1.0
 20
0.0
 30
0.0
  9
$PUCSYDIR
 10
0.0
 20
1.0
 30
0.0
  9
$PUCSORTHOREF
  2

  9
$PUCSORTHOVIEW
 70
0
  9
$PUCSORGTOP
 10
0.0
 20
0.0
 30
0.0
  9
$PUCSORGBOTTOM
 10
0.0
 20
0.0
 30
0.0
  9
$PUCSORGLEFT
 10
0.0
 20
0.0
 30
0.0
  9
$PUCSORGRIGHT
 10
0.0
 20
0.0
 30
0.0
  9
$PUCSORGFRONT
 10
0.0
 20
0.0
 30
0.0
  9
$PUCSORGBACK
 10
0.0
 20
0.0
 30
0.0
  9
$USERI1
 70
0
  9
$USERI2
 70
0
  9
$USERI3
 70
0
  9
$USERI4
 70
0
  9
$USERI5
 70
0
  9
$USERR1
 40
0.0
  9
$USERR2
 40
0.0
  9
$USERR3
 40
0.0
  9
$USERR4
 40
0.0
  9
$USERR5
 40
0.0
  9
$WORLDVIEW
 70
1
  9
$SHADEDGE
 70
3
  9
$SHADEDIF
 70
70
  9
$TILEMODE
 70
1
  9
$MAXACTVP
 70
64
  9
$PINSBASE
 10
0.0
 20
0.0
 30
0.0
  9
$PLIMCHECK
 70
0
  9
$PEXTMIN
 10
1e+20
 20
1e+20
 30
1e+20
  9
$PEXTMAX
 10
-1e+20
 20
-1e+20
 30
-1e+20
  9
$PLIMMIN
 10
0.0
 20
0.0
  9
$PLIMMAX
 10
420.0
 20
297.0
  9
$UNITMODE
 70
0
  9
$VISRETAIN
 70
1
  9
$PLINEGEN
 70
0
  9
$PSLTSCALE
 70
1
  9
$TREEDEPTH
 70
3020
  9
$CMLSTYLE
  2
Standard
  9
$CMLJUST
 70
0
  9
$CMLSCALE
 40
20.0
  9
$PROXYGRAPHICS
 70
1
  9
$MEASUREMENT
 70
0
  9
$CELWEIGHT
370
-1
  9
$ENDCAPS
280
0
  9
$JOINSTYLE
280
0
  9
$LWDISPLAY
290
0
  9
$INSUNITS
 70
1
  9
$HYPERLINKBASE
  1

  9
$STYLESHEET
  1

  9
$XEDIT
290
1
  9
$CEPSNTYPE
380
0
  9
$PSTYLEMODE
290
1
  9
$FINGERPRINTGUID
  2
{A585C56E-7F4D-4524-9D40-C20FE0DDEBBB}
  9
$VERSIONGUID
  2
{518CAACA-D8DF-4787-8031-33D5DC19162E}
  9
$EXTNAMES
290
1
  9
$PSVPSCALE
 40
0.0
  9
$OLESTARTUP
290
0
  9
$SORTENTS
280
127
  9
$INDEXCTL
280
0
  9
$HIDETEXT
280
1
  9
$XCLIPFRAME
280
1
  9
$HALOGAP
280
0
  9
$OBSCOLOR
 70
257
  9
$OBSLTYPE
280
0
  9
$INTERSECTIONDISPLAY
280
0
  9
$INTERSECTIONCOLOR
 70
257
  9
$DIMASSOC
280
2
  9
$PROJECTNAME
  1

  9
$CAMERADISPLAY
290
0
  9
$LENSLENGTH
 40
50.0
  9
$CAMERAHEIGHT
 40
0.0
  9
$STEPSPERSEC
 40
24.0
  9
$STEPSIZE
 40
100.0
  9
$3DDWFPREC
 40
2.0
  9
$PSOLWIDTH
 40
0.005
  9
$PSOLHEIGHT
 40
0.08
  9
$LOFTANG1
 40
1.570796326795
  9
$LOFTANG2
 40
1.570796326795
  9
$LOFTMAG1
 40
0.0
  9
$LOFTMAG2
 40
0.0
  9
$LOFTPARAM
 70
7
  9
$LOFTNORMALS
280
1
  9
$LATITUDE
 40
37.795
  9
$LONGITUDE
 40
-122.394
  9
$NORTHDIRECTION
 40
0.0
  9
$TIMEZONE
 70
-8000
  9
$LIGHTGLYPHDISPLAY
280
1
  9
$TILEMODELIGHTSYNCH
280
1
  9
$CMATERIAL
347
20
  9
$SOLIDHIST
280
0
  9
$SHOWHIST
280
1
  9
$DWFFRAME
280
2
  9
$DGNFRAME
280
2
  9
$REALWORLDSCALE
290
1
  9
$INTERFERECOLOR
 62
256
  9
$CSHADOW
280
0
  9
$SHADOWPLANELOCATION
 40
0.0
  0
ENDSEC
  0
SECTION
  2
CLASSES
  0
CLASS
  1
ACDBDICTIONARYWDFLT
  2
AcDbDictionaryWithDefault
  3
ObjectDBX Classes
 90
0
 91
0
280
0
281
0
  0
CLASS
  1
SUN
  2
AcDbSun
  3
SCENEOE
 90
1153
 91
0
280
0
281
0
  0
CLASS
  1
VISUALSTYLE
  2
AcDbVisualStyle
  3
ObjectDBX Classes
 90
4095
 91
0
280
0
281
0
  0
CLASS
  1
MATERIAL
  2
AcDbMaterial
  3
ObjectDBX Classes
 90
1153
 91
0
280
0
281
0
  0
CLASS
  1
SCALE
  2
AcDbScale
  3
ObjectDBX Classes
 90
1153
 91
0
280
0
281
0
  0
CLASS
  1
TABLESTYLE
  2
AcDbTableStyle
  3
ObjectDBX Classes
 90
4095
 91
0
280
0
281
0
  0
CLASS
  1
MLEADERSTYLE
  2
AcDbMLeaderStyle
  3
ACDB_MLEADERSTYLE_CLASS
 90
4095
 91
0
280
0
281
0
  0
CLASS
  1
DICTIONARYVAR
  2
AcDbDictionaryVar
  3
ObjectDBX Classes
 90
0
 91
0
280
0
281
0
  0
CLASS
  1
CELLSTYLEMAP
  2
AcDbCellStyleMap
  3
ObjectDBX Classes
 90
1152
 91
0
280
0
281
0
  0
CLASS
  1
MENTALRAYRENDERSETTINGS
  2
AcDbMentalRayRenderSettings
  3
SCENEOE
 90
1024
 91
0
280
0
281
0
  0
CLASS
  1
ACDBDETAILVIEWSTYLE
  2
AcDbDetailViewStyle
  3
ObjectDBX Classes
 90
1025
 91
0
280
0
281
0
  0
CLASS
  1
ACDBSECTIONVIEWSTYLE
  2
AcDbSectionViewStyle
  3
ObjectDBX Classes
 90
1025
 91
0
280
0
281
0
  0
CLASS
  1
RASTERVARIABLES
  2
AcDbRasterVariables
  3
ISM
 90
0
 91
0
280
0
281
0
  0
CLASS
  1
ACDBPLACEHOLDER
  2
AcDbPlaceHolder
  3
ObjectDBX Classes
 90
0
 91
0
280
0
281
0
  0
CLASS
  1
LAYOUT
  2
AcDbLayout
  3
ObjectDBX Classes
 90
0
 91
0
280
0
281
0
  0
ENDSEC
  0
SECTION
  2
TABLES
  0
TABLE
  2
VPORT
  5
8
330
0
100
AcDbSymbolTable
 70
1
  0
VPORT
  5
23
330
8
100
AcDbSymbolTableRecord
100
AcDbViewportTableRecord
  2
*Active
 70
0
 10
0.0
 20
0.0
 11
1.0
 21
1.0
 12
0.0
 22
0.0
 13
0.0
 23
0.0
 14
0.5
 24
0.5
 15
0.5
 25
0.5
 16
0.0
 26
0.0
 36
1.0
 17
0.0
 27
0.0
 37
0.0
 40
1000.0
 41
1.34
 42
50.0
 43
0.0
 44
0.0
 50
0.0
 51
0.0
 71
0
 72
1000
 73
1
 74
3
 75
0
 76
0
 77
0
 78
0
281
0
 65
0
146
0.0
  0
ENDTAB
  0
TABLE
  2
LTYPE
  5
2
330
0
100
AcDbSymbolTable
 70
21
  0
LTYPE
  5
24
330
2
100
AcDbSymbolTableRecord
100
AcDbLinetypeTableRecord
  2
ByBlock
 70
0
  3

 72
65
 73
0
 40
0.0
  0
LTYPE
  5
25
330
2
100
AcDbSymbolTableRecord
100
AcDbLinetypeTableRecord
  2
ByLayer
 70
0
  3

 72
65
 73
0
 40
0.0
  0
LTYPE
  5
26
330
2
100
AcDbSymbolTableRecord
100
AcDbLinetypeTableRecord
  2
Continuous
 70
0
  3

 72
65
 73
0
 40
0.0
  0
LTYPE
  5
2F
330
2
100
AcDbSymbolTableRecord
100
AcDbLinetypeTableRecord
  2
CENTER
 70
0
  3
Center ____ _ ____ _ ____ _ ____ _ ____ _ ____
 72
65
 73
4
 40
2.0
 49
1.25
 74
0
 49
-0.25
 74
0
 49
0.25
 74
0
 49
-0.25
 74
0
  0
LTYPE
  5
30
330
2
100
AcDbSymbolTableRecord
100
AcDbLinetypeTableRecord
  2
CENTERX2
 70
0
  3
Center (2x) ________  __  ________  __  ________
 72
65
 73
4
 40
3.5
 49
2.5
 74
0
 49
-0.25
 74
0
 49
0.5
 74
0
 49
-0.25
 74
0
  0
LTYPE
  5
31
330
2
100
AcDbSymbolTableRecord
100
AcDbLinetypeTableRecord
  2
CENTER2
 70
0
  3
Center (.5x) ____ _ ____ _ ____ _ ____ _ ____
 72
65
 73
4
 40
1.0
 49
0.625
 74
0
 49
-0.125
 74
0
 49
0.125
 74
0
 49
-0.125
 74
0
  0
LTYPE
  5
32
330
2
100
AcDbSymbolTableRecord
100
AcDbLinetypeTableRecord
  2
DASHED
 70
0
  3
Dashed __ __ __ __ __ __ __ __ __ __ __ __ __ _
 72
65
 73
2
 40
0.6
 49
0.5
 74
0
 49
-0.1
 74
0
  0
LTYPE
  5
33
330
2
100
AcDbSymbolTableRecord
100
AcDbLinetypeTableRecord
  2
DASHEDX2
 70
0
  3
Dashed (2x) ____  ____  ____  ____  ____  ____
 72
65
 73
2
 40
1.2
 49
1.0
 74
0
 49
-0.2
 74
0
  0
LTYPE
  5
34
330
2
100
AcDbSymbolTableRecord
100
AcDbLinetypeTableRecord
  2
DASHED2
 70
0
  3
Dashed (.5x) _ _ _ _ _ _ _ _ _ _ _ _ _ _
 72
65
 73
2
 40
0.3
 49
0.25
 74
0
 49
-0.05
 74
0
  0
LTYPE
  5
35
330
2
100
AcDbSymbolTableRecord
100
AcDbLinetypeTableRecord
  2
PHANTOM
 70
0
  3
Phantom ______  __  __  ______  __  __  ______
 72
65
 73
6
 40
2.5
 49
1.25
 74
0
 49
-0.25
 74
0
 49
0.25
 74
0
 49
-0.25
 74
0
 49
0.25
 74
0
 49
-0.25
 74
0
  0
LTYPE
  5
36
330
2
100
AcDbSymbolTableRecord
100
AcDbLinetypeTableRecord
  2
PHANTOMX2
 70
0
  3
Phantom (2x)____________    ____    ____    ____________
 72
65
 73
6
 40
4.25
 49
2.5
 74
0
 49
-0.25
 74
0
 49
0.5
 74
0
 49
-0.25
 74
0
 49
0.5
 74
0
 49
-0.25
 74
0
  0
LTYPE
  5
37
330
2
100
AcDbSymbolTableRecord
100
AcDbLinetypeTableRecord
  2
PHANTOM2
 70
0
  3
Phantom (.5x) ___ _ _ ___ _ _ ___ _ _ ___ _ _ ___
 72
65
 73
6
 40
1.25
 49
0.625
 74
0
 49
-0.125
 74
0
 49
0.125
 74
0
 49
-0.125
 74
0
 49
0.125
 74
0
 49
-0.125
 74
0
  0
LTYPE
  5
38
330
2
100
AcDbSymbolTableRecord
100
AcDbLinetypeTableRecord
  2
DASHDOT
 70
0
  3
Dash dot __ . __ . __ . __ . __ . __ . __ . __
 72
65
 73
4
 40
1.4
 49
1.0
 74
0
 49
-0.2
 74
0
 49
0.0
 74
0
 49
-0.2
 74
0
  0
LTYPE
  5
39
330
2
100
AcDbSymbolTableRecord
100
AcDbLinetypeTableRecord
  2
DASHDOTX2
 70
0
  3
Dash dot (2x) ____  .  ____  .  ____  .  ____
 72
65
 73
4
 40
2.4
 49
2.0
 74
0
 49
-0.2
 74
0
 49
0.0
 74
0
 49
-0.2
 74
0
  0
LTYPE
  5
3A
330
2
100
AcDbSymbolTableRecord
100
AcDbLinetypeTableRecord
  2
DASHDOT2
 70
0
  3
Dash dot (.5x) _ . _ . _ . _ . _ . _ . _ . _
 72
65
 73
4
 40
0.7
 49
0.5
 74
0
 49
-0.1
 74
0
 49
0.0
 74
0
 49
-0.1
 74
0
  0
LTYPE
  5
3B
330
2
100
AcDbSymbolTableRecord
100
AcDbLinetypeTableRecord
  2
DOT
 70
0
  3
Dot .  .  .  .  .  .  .  .  .  .  .  .  .  .  .  .
 72
65
 73
2
 40
0.2
 49
0.0
 74
0
 49
-0.2
 74
0
  0
LTYPE
  5
3C
330
2
100
AcDbSymbolTableRecord
100
AcDbLinetypeTableRecord
  2
DOTX2
 70
0
  3
Dot (2x) .    .    .    .    .    .    .    . 
 72
65
 73
2
 40
0.4
 49
0.0
 74
0
 49
-0.4
 74
0
  0
LTYPE
  5
3D
330
2
100
AcDbSymbolTableRecord
100
AcDbLinetypeTableRecord
  2
DOT2
 70
0
  3
Dot (.5) . . . . . . . . . . . . . . . . . . . 
 72
65
 73
2
 40
0.1
 49
0.0
 74
0
 49
-0.1
 74
0
  0
LTYPE
  5
3E
330
2
100
AcDbSymbolTableRecord
100
AcDbLinetypeTableRecord
  2
DIVIDE
 70
0
  3
Divide __ . . __ . . __ . . __ . . __ . . __
 72
65
 73
6
 40
1.6
 49
1.0
 74
0
 49
-0.2
 74
0
 49
0.0
 74
0
 49
-0.2
 74
0
 49
0.0
 74
0
 49
-0.2
 74
0
  0
LTYPE
  5
3F
330
2
100
AcDbSymbolTableRecord
100
AcDbLinetypeTableRecord
  2
DIVIDEX2
 70
0
  3
Divide (2x) ____  . .  ____  . .  ____  . .  ____
 72
65
 73
6
 40
2.6
 49
2.0
 74
0
 49
-0.2
 74
0
 49
0.0
 74
0
 49
-0.2
 74
0
 49
0.0
 74
0
 49
-0.2
 74
0
  0
LTYPE
  5
40
330
2
100
AcDbSymbolTableRecord
100
AcDbLinetypeTableRecord
  2
DIVIDE2
 70
0
  3
Divide(.5x) _ . _ . _ . _ . _ . _ . _ . _
 72
65
 73
6
 40
0.8
 49
0.5
 74
0
 49
-0.1
 74
0
 49
0.0
 74
0
 49
-0.1
 74
0
 49
0.0
 74
0
 49
-0.1
 74
0
  0
ENDTAB
  0
TABLE
  2
LAYER
  5
1
330
0
100
AcDbSymbolTable
 70
10
  0
LAYER
  5
27
330
1
100
AcDbSymbolTableRecord
100
AcDbLayerTableRecord
  2
0
 70
0
 62
7
  6
Continuous
370
-3
390
13
347
21
  0
LAYER
  5
28
330
1
100
AcDbSymbolTableRecord
100
AcDbLayerTableRecord
  2
Defpoints
 70
0
 62
7
  6
Continuous
290
0
370
-3
390
13
347
21
  0
LAYER
  5
8A
330
1
100
AcDbSymbolTableRecord
100
AcDbLayerTableRecord
  2
Front elevation
 70
0
 62
7
  6
Continuous
370
-3
390
13
347
21
  0
LAYER
  5
8B
330
1
100
AcDbSymbolTableRecord
100
AcDbLayerTableRecord
  2
Front elevation hatch
 70
0
 62
8
  6
Continuous
370
-3
390
13
347
21
  0
LAYER
  5
DB
330
1
100
AcDbSymbolTableRecord
100
AcDbLayerTableRecord
  2
Panel head - detail A
 70
0
 62
7
  6
Continuous
370
-3
390
13
347
21
  0
LAYER
  5
DC
330
1
100
AcDbSymbolTableRecord
100
AcDbLayerTableRecord
  2
Panel head - detail A hatch
 70
0
 62
8
  6
Continuous
370
-3
390
13
347
21
  0
LAYER
  5
EC
330
1
100
AcDbSymbolTableRecord
100
AcDbLayerTableRecord
  2
Section B-B
 70
0
 62
7
  6
Continuous
370
-3
390
13
347
21
  0
LAYER
  5
ED
330
1
100
AcDbSymbolTableRecord
100
AcDbLayerTableRecord
  2
Section B-B hatch
 70
0
 62
8
  6
Continuous
370
-3
390
13
347
21
  0
LAYER
  5
116
330
1
100
AcDbSymbolTableRecord
100
AcDbLayerTableRecord
  2
Lock rail - detail C
 70
0
 62
7
  6
Continuous
370
-3
390
13
347
21
  0
LAYER
  5
117
330
1
100
AcDbSymbolTableRecord
100
AcDbLayerTableRecord
  2
Lock rail - detail C hatch
 70
0
 62
8
  6
Continuous
370
-3
390
13
347
21
  0
ENDTAB
  0
TABLE
  2
STYLE
  5
5
330
0
100
AcDbSymbolTable
 70
26
  0
STYLE
  5
29
330
5
100
AcDbSymbolTableRecord
100
AcDbTextStyleTableRecord
  2
Standard
 70
0
 40
0.0
 41
1.0
 50
0.0
 71
0
 42
2.5
  3
txt
  4

  0
STYLE
  5
41
330
5
100
AcDbSymbolTableRecord
100
AcDbTextStyleTableRecord
  2
OpenSans-Light
 70
0
 40
0.0
 41
1.0
 50
0.0
 71
0
 42
2.5
  3
OpenSans-Light.ttf
  4

  0
STYLE
  5
42
330
5
100
AcDbSymbolTableRecord
100
AcDbTextStyleTableRecord
  2
OpenSans-Light-Italic
 70
0
 40
0.0
 41
1.0
 50
0.0
 71
0
 42
2.5
  3
OpenSans-LightItalic.ttf
  4

  0
STYLE
  5
43
330
5
100
AcDbSymbolTableRecord
100
AcDbTextStyleTableRecord
  2
OpenSans
 70
0
 40
0.0
 41
1.0
 50
0.0
 71
0
 42
2.5
  3
OpenSans-Regular.ttf
  4

  0
STYLE
  5
44
330
5
100
AcDbSymbolTableRecord
100
AcDbTextStyleTableRecord
  2
OpenSans-Italic
 70
0
 40
0.0
 41
1.0
 50
0.0
 71
0
 42
2.5
  3
OpenSans-Italic.ttf
  4

  0
STYLE
  5
45
330
5
100
AcDbSymbolTableRecord
100
AcDbTextStyleTableRecord
  2
OpenSans-SemiBold
 70
0
 40
0.0
 41
1.0
 50
0.0
 71
0
 42
2.5
  3
OpenSans-SemiBold.ttf
  4

  0
STYLE
  5
46
330
5
100
AcDbSymbolTableRecord
100
AcDbTextStyleTableRecord
  2
OpenSans-SemiBoldItalic
 70
0
 40
0.0
 41
1.0
 50
0.0
 71
0
 42
2.5
  3
OpenSans-SemiBoldItalic.ttf
  4

  0
STYLE
  5
47
330
5
100
AcDbSymbolTableRecord
100
AcDbTextStyleTableRecord
  2
OpenSans-Bold
 70
0
 40
0.0
 41
1.0
 50
0.0
 71
0
 42
2.5
  3
OpenSans-Bold.ttf
  4

  0
STYLE
  5
48
330
5
100
AcDbSymbolTableRecord
100
AcDbTextStyleTableRecord
  2
OpenSans-BoldItalic
 70
0
 40
0.0
 41
1.0
 50
0.0
 71
0
 42
2.5
  3
OpenSans-BoldItalic.ttf
  4

  0
STYLE
  5
49
330
5
100
AcDbSymbolTableRecord
100
AcDbTextStyleTableRecord
  2
OpenSans-ExtraBold
 70
0
 40
0.0
 41
1.0
 50
0.0
 71
0
 42
2.5
  3
OpenSans-ExtraBold.ttf
  4

  0
STYLE
  5
4A
330
5
100
AcDbSymbolTableRecord
100
AcDbTextStyleTableRecord
  2
OpenSans-ExtraBoldItalic
 70
0
 40
0.0
 41
1.0
 50
0.0
 71
0
 42
2.5
  3
OpenSans-ExtraBoldItalic.ttf
  4

  0
STYLE
  5
4B
330
5
100
AcDbSymbolTableRecord
100
AcDbTextStyleTableRecord
  2
OpenSansCondensed-Bold
 70
0
 40
0.0
 41
1.0
 50
0.0
 71
0
 42
2.5
  3
OpenSansCondensed-Bold.ttf
  4

  0
STYLE
  5
4C
330
5
100
AcDbSymbolTableRecord
100
AcDbTextStyleTableRecord
  2
OpenSansCondensed-Light
 70
0
 40
0.0
 41
1.0
 50
0.0
 71
0
 42
2.5
  3
OpenSansCondensed-Light.ttf
  4

  0
STYLE
  5
4D
330
5
100
AcDbSymbolTableRecord
100
AcDbTextStyleTableRecord
  2
OpenSansCondensed-Italic
 70
0
 40
0.0
 41
1.0
 50
0.0
 71
0
 42
2.5
  3
OpenSansCondensed-LightItalic.ttf
  4

  0
STYLE
  5
4E
330
5
100
AcDbSymbolTableRecord
100
AcDbTextStyleTableRecord
  2
LiberationSans
 70
0
 40
0.0
 41
1.0
 50
0.0
 71
0
 42
2.5
  3
LiberationSans-Regular.ttf
  4

  0
STYLE
  5
4F
330
5
100
AcDbSymbolTableRecord
100
AcDbTextStyleTableRecord
  2
LiberationSans-Bold
 70
0
 40
0.0
 41
1.0
 50
0.0
 71
0
 42
2.5
  3
LiberationSans-Bold.ttf
  4

  0
STYLE
  5
50
330
5
100
AcDbSymbolTableRecord
100
AcDbTextStyleTableRecord
  2
LiberationSans-BoldItalic
 70
0
 40
0.0
 41
1.0
 50
0.0
 71
0
 42
2.5
  3
LiberationSans-BoldItalic.ttf
  4

  0
STYLE
  5
51
330
5
100
AcDbSymbolTableRecord
100
AcDbTextStyleTableRecord
  2
LiberationSans-Italic
 70
0
 40
0.0
 41
1.0
 50
0.0
 71
0
 42
2.5
  3
LiberationSans-Italic.ttf
  4

  0
STYLE
  5
52
330
5
100
AcDbSymbolTableRecord
100
AcDbTextStyleTableRecord
  2
LiberationSerif
 70
0
 40
0.0
 41
1.0
 50
0.0
 71
0
 42
2.5
  3
LiberationSerif-Regular.ttf
  4

  0
STYLE
  5
53
330
5
100
AcDbSymbolTableRecord
100
AcDbTextStyleTableRecord
  2
LiberationSerif-Bold
 70
0
 40
0.0
 41
1.0
 50
0.0
 71
0
 42
2.5
  3
LiberationSerif-Bold.ttf
  4

  0
STYLE
  5
54
330
5
100
AcDbSymbolTableRecord
100
AcDbTextStyleTableRecord
  2
LiberationSerif-BoldItalic
 70
0
 40
0.0
 41
1.0
 50
0.0
 71
0
 42
2.5
  3
LiberationSerif-BoldItalic.ttf
  4

  0
STYLE
  5
55
330
5
100
AcDbSymbolTableRecord
100
AcDbTextStyleTableRecord
  2
LiberationSerif-Italic
 70
0
 40
0.0
 41
1.0
 50
0.0
 71
0
 42
2.5
  3
LiberationSerif-Italic.ttf
  4

  0
STYLE
  5
56
330
5
100
AcDbSymbolTableRecord
100
AcDbTextStyleTableRecord
  2
LiberationMono
 70
0
 40
0.0
 41
1.0
 50
0.0
 71
0
 42
2.5
  3
LiberationMono-Regular.ttf
  4

  0
STYLE
  5
57
330
5
100
AcDbSymbolTableRecord
100
AcDbTextStyleTableRecord
  2
LiberationMono-Bold
 70
0
 40
0.0
 41
1.0
 50
0.0
 71
0
 42
2.5
  3
LiberationMono-Bold.ttf
  4

  0
STYLE
  5
58
330
5
100
AcDbSymbolTableRecord
100
AcDbTextStyleTableRecord
  2
LiberationMono-BoldItalic
 70
0
 40
0.0
 41
1.0
 50
0.0
 71
0
 42
2.5
  3
LiberationMono-BoldItalic.ttf
  4

  0
STYLE
  5
59
330
5
100
AcDbSymbolTableRecord
100
AcDbTextStyleTableRecord
  2
LiberationMono-Italic
 70
0
 40
0.0
 41
1.0
 50
0.0
 71
0
 42
2.5
  3
LiberationMono-Italic.ttf
  4

  0
ENDTAB
  0
TABLE
  2
VIEW
  5
7
330
0
100
AcDbSymbolTable
 70
0
  0
ENDTAB
  0
TABLE
  2
UCS
  5
6
330
0
100
AcDbSymbolTable
 70
0
  0
ENDTAB
  0
TABLE
  2
APPID
  5
3
330
0
100
AcDbSymbolTable
 70
3
  0
APPID
  5
2A
330
3
100
AcDbSymbolTableRecord
100
AcDbRegAppTableRecord
  2
ACAD
 70
0
  0
APPID
  5
12E
330
3
100
AcDbSymbolTableRecord
100
AcDbRegAppTableRecord
  2
HATCHBACKGROUNDCOLOR
 70
0
  0
APPID
  5
12F
330
3
100
AcDbSymbolTableRecord
100
AcDbRegAppTableRecord
  2
EZDXF
 70
0
  0
ENDTAB
  0
TABLE
  2
DIMSTYLE
  5
4
330
0
100
AcDbSymbolTable
 70
12
100
AcDbDimStyleTable
  0
DIMSTYLE
105
2B
330
4
100
AcDbSymbolTableRecord
100
AcDbDimStyleTableRecord
  2
Standard
 70
0
 40
1.0
 41
2.5
 42
0.625
 43
3.75
 44
1.25
 45
0.0
 46
0.0
 47
0.0
 48
0.0
 49
2.5
140
2.5
141
2.5
142
0.0
143
0.03937007874
144
1.0
145
0.0
146
1.0
147
0.625
148
0.0
 69
0
 70
0
 71
0
 72
0
 73
0
 74
0
 75
0
 76
0
 77
1
 78
8
 79
3
170
0
171
3
172
1
173
0
174
0
175
0
176
0
177
0
178
0
179
2
271
2
272
2
273
2
274
3
275
0
276
0
277
2
278
44
279
0
280
0
281
0
282
0
283
0
284
8
285
0
286
0
288
0
289
3
290
0
371
-2
372
-2
  0
DIMSTYLE
105
73
330
4
100
AcDbSymbolTableRecord
100
AcDbDimStyleTableRecord
  2
EZDXF
 70
0
 40
1.0
 41
0.175
 42
0.125
 43
3.75
 44
0.375
 45
0.0
 46
0.0
 47
0.0
 48
0.0
 49
2.5
140
0.25
141
2.5
142
0.0
143
0.03937007874
144
100.0
145
0.0
146
0.5
147
0.1
148
0.0
 69
0
 70
0
 71
0
 72
0
 73
0
 74
0
 75
0
 76
0
 77
1
 78
12
 79
3
170
0
171
3
172
1
173
0
174
0
175
0
176
0
177
0
178
0
179
2
271
2
272
2
273
2
274
3
275
0
276
0
277
2
278
46
279
2
280
0
281
0
282
0
283
0
284
8
285
0
286
0
288
1
289
3
290
0
340
4C
342
74
371
-2
372
-2
  0
DIMSTYLE
105
7C
330
4
100
AcDbSymbolTableRecord
100
AcDbDimStyleTableRecord
  2
EZ_M_100_H25_CM
 70
0
 40
1.0
 41
0.25
 42
0.125
 43
3.75
 44
0.375
 45
0.0
 46
0.0
 47
0.0
 48
0.0
 49
2.5
140
0.25
141
2.5
142
0.125
143
0.03937007874
144
100.0
145
0.0
146
0.5
147
0.1
148
0.0
 69
0
 70
0
 71
0
 72
0
 73
0
 74
0
 75
0
 76
0
 77
1
 78
12
 79
3
170
0
171
3
172
1
173
0
174
0
175
0
176
0
177
0
178
0
179
2
271
2
272
2
273
2
274
3
275
0
276
0
277
2
278
46
279
2
280
0
281
0
282
0
283
0
284
8
285
0
286
0
288
1
289
3
290
0
340
4C
371
-2
372
-2
  0
DIMSTYLE
105
7D
330
4
100
AcDbSymbolTableRecord
100
AcDbDimStyleTableRecord
  2
EZ_M_50_H25_CM
 70
0
 40
1.0
 41
0.125
 42
0.0625
 43
3.75
 44
0.1875
 45
0.0
 46
0.0
 47
0.0
 48
0.0
 49
2.5
140
0.125
141
2.5
142
0.0625
143
0.03937007874
144
100.0
145
0.0
146
0.5
147
0.05
148
0.0
 69
0
 70
0
 71
0
 72
0
 73
0
 74
0
 75
0
 76
0
 77
1
 78
12
 79
3
170
0
171
3
172
1
173
0
174
0
175
0
176
0
177
0
178
0
179
2
271
2
272
2
273
2
274
3
275
0
276
0
277
2
278
46
279
2
280
0
281
0
282
0
283
0
284
8
285
0
286
0
288
1
289
3
290
0
340
4C
371
-2
372
-2
  0
DIMSTYLE
105
7E
330
4
100
AcDbSymbolTableRecord
100
AcDbDimStyleTableRecord
  2
EZ_M_25_H25_CM
 70
0
 40
1.0
 41
0.0625
 42
0.03125
 43
3.75
 44
0.09375
 45
0.0
 46
0.0
 47
0.0
 48
0.0
 49
2.5
140
0.0625
141
2.5
142
0.03125
143
0.03937007874
144
100.0
145
0.0
146
0.5
147
0.025
148
0.0
 69
0
 70
0
 71
0
 72
0
 73
0
 74
0
 75
0
 76
0
 77
1
 78
12
 79
3
170
0
171
3
172
1
173
0
174
0
175
0
176
0
177
0
178
0
179
2
271
2
272
2
273
2
274
3
275
0
276
0
277
2
278
46
279
2
280
0
281
0
282
0
283
0
284
8
285
0
286
0
288
1
289
3
290
0
340
4C
371
-2
372
-2
  0
DIMSTYLE
105
7F
330
4
100
AcDbSymbolTableRecord
100
AcDbDimStyleTableRecord
  2
EZ_M_20_H25_CM
 70
0
 40
1.0
 41
0.05
 42
0.025
 43
3.75
 44
0.07500000000000001
 45
0.0
 46
0.0
 47
0.0
 48
0.0
 49
2.5
140
0.05
141
2.5
142
0.025
143
0.03937007874
144
100.0
145
0.0
146
0.5
147
0.020000000000000004
148
0.0
 69
0
 70
0
 71
0
 72
0
 73
0
 74
0
 75
0
 76
0
 77
1
 78
12
 79
3
170
0
171
3
172
1
173
0
174
0
175
0
176
0
177
0
178
0
179
2
271
2
272
2
273
2
274
3
275
0
276
0
277
2
278
46
279
2
280
0
281
0
282
0
283
0
284
8
285
0
286
0
288
1
289
3
290
0
340
4C
371
-2
372
-2
  0
DIMSTYLE
105
80
330
4
100
AcDbSymbolTableRecord
100
AcDbDimStyleTableRecord
  2
EZ_M_10_H25_CM
 70
0
 40
1.0
 41
0.025
 42
0.0125
 43
3.75
 44
0.037500000000000006
 45
0.0
 46
0.0
 47
0.0
 48
0.0
 49
2.5
140
0.025
141
2.5
142
0.0125
143
0.03937007874
144
100.0
145
0.0
146
0.5
147
0.010000000000000002
148
0.0
 69
0
 70
0
 71
0
 72
0
 73
0
 74
0
 75
0
 76
0
 77
1
 78
12
 79
3
170
0
171
3
172
1
173
0
174
0
175
0
176
0
177
0
178
0
179
2
271
2
272
2
273
2
274
3
275
0
276
0
277
2
278
46
279
2
280
0
281
0
282
0
283
0
284
8
285
0
286
0
288
1
289
3
290
0
340
4C
371
-2
372
-2
  0
DIMSTYLE
105
81
330
4
100
AcDbSymbolTableRecord
100
AcDbDimStyleTableRecord
  2
EZ_M_5_H25_CM
 70
0
 40
1.0
 41
0.0125
 42
0.00625
 43
3.75
 44
0.018750000000000003
 45
0.0
 46
0.0
 47
0.0
 48
0.0
 49
2.5
140
0.0125
141
2.5
142
0.00625
143
0.03937007874
144
100.0
145
0.0
146
0.5
147
0.005000000000000001
148
0.0
 69
0
 70
0
 71
0
 72
0
 73
0
 74
0
 75
0
 76
0
 77
1
 78
12
 79
3
170
0
171
3
172
1
173
0
174
0
175
0
176
0
177
0
178
0
179
2
271
2
272
2
273
2
274
3
275
0
276
0
277
2
278
46
279
2
280
0
281
0
282
0
283
0
284
8
285
0
286
0
288
1
289
3
290
0
340
4C
371
-2
372
-2
  0
DIMSTYLE
105
82
330
4
100
AcDbSymbolTableRecord
100
AcDbDimStyleTableRecord
  2
EZ_M_1_H25_CM
 70
0
 40
1.0
 41
0.0025
 42
0.00125
 43
3.75
 44
0.00375
 45
0.0
 46
0.0
 47
0.0
 48
0.0
 49
2.5
140
0.0025
141
2.5
142
0.00125
143
0.03937007874
144
100.0
145
0.0
146
0.5
147
0.001
148
0.0
 69
0
 70
0
 71
0
 72
0
 73
0
 74
0
 75
0
 76
0
 77
1
 78
12
 79
3
170
0
171
3
172
1
173
0
174
0
175
0
176
0
177
0
178
0
179
2
271
2
272
2
273
2
274
3
275
0
276
0
277
2
278
46
279
2
280
0
281
0
282
0
283
0
284
8
285
0
286
0
288
1
289
3
290
0
340
4C
371
-2
372
-2
  0
DIMSTYLE
105
83
330
4
100
AcDbSymbolTableRecord
100
AcDbDimStyleTableRecord
  2
EZ_RADIUS
 70
0
 40
1.0
 41
0.25
 42
0.125
 43
3.75
 44
0.375
 45
0.0
 46
0.0
 47
0.0
 48
0.0
 49
2.5
140
0.25
141
0.0
142
0.0
143
0.03937007874
144
100.0
145
0.0
146
0.5
147
0.1
148
0.0
 69
0
 70
0
 71
0
 72
0
 73
0
 74
0
 75
0
 76
0
 77
1
 78
12
 79
3
170
0
171
3
172
0
173
0
174
0
175
0
176
0
177
0
178
0
179
2
271
2
272
2
273
2
274
3
275
0
276
0
277
2
278
46
279
1
280
0
281
0
282
0
283
0
284
8
285
0
286
0
288
1
289
3
290
0
340
4C
342
84
371
-2
372
-2
  0
DIMSTYLE
105
88
330
4
100
AcDbSymbolTableRecord
100
AcDbDimStyleTableRecord
  2
EZ_RADIUS_INSIDE
 70
0
 40
1.0
 41
0.25
 42
0.125
 43
3.75
 44
0.375
 45
0.0
 46
0.0
 47
0.0
 48
0.0
 49
2.5
140
0.25
141
0.0
142
0.0
143
0.03937007874
144
100.0
145
0.0
146
0.5
147
0.1
148
0.0
 69
0
 70
0
 71
0
 72
0
 73
0
 74
0
 75
0
 76
0
 77
0
 78
12
 79
3
170
0
171
3
172
0
173
0
174
1
175
0
176
0
177
0
178
0
179
2
271
2
272
2
273
2
274
3
275
0
276
0
277
2
278
46
279
0
280
0
281
0
282
0
283
0
284
8
285
0
286
0
288
1
289
0
290
0
340
4C
342
84
371
-2
372
-2
  0
DIMSTYLE
105
89
330
4
100
AcDbSymbolTableRecord
100
AcDbDimStyleTableRecord
  2
EZ_CURVED
 70
0
 40
1.0
 41
0.25
 42
0.125
 43
3.75
 44
0.375
 45
0.0
 46
0.0
 47
0.0
 48
0.0
 49
2.5
140
0.25
141
2.5
142
0.0
143
0.03937007874
144
100.0
145
0.0
146
0.5
147
0.1
148
0.0
 69
0
 70
0
 71
0
 72
0
 73
0
 74
0
 75
0
 76
0
 77
1
 78
12
 79
2
 90
2
170
0
171
3
172
1
173
0
174
0
175
0
176
0
177
0
178
0
179
2
271
2
272
2
273
2
274
3
275
0
276
0
277
2
278
46
279
2
280
0
281
0
282
0
283
0
284
8
285
0
286
0
288
1
289
3
290
0
340
4C
371
-2
372
-2
  0
ENDTAB
  0
TABLE
  2
BLOCK_RECORD
  5
9
330
0
100
AcDbSymbolTable
 70
5
  0
BLOCK_RECORD
  5
17
330
9
100
AcDbSymbolTableRecord
100
AcDbBlockTableRecord
  2
*Model_Space
340
1A
 70
0
280
1
281
0
  0
BLOCK_RECORD
  5
1B
330
9
100
AcDbSymbolTableRecord
100
AcDbBlockTableRecord
  2
*Paper_Space
340
1E
 70
0
280
1
281
0
  0
BLOCK_RECORD
  5
74
330
9
100
AcDbSymbolTableRecord
100
AcDbBlockTableRecord
  2
_ARCHTICK
340
0
 70
0
280
1
281
0
  0
BLOCK_RECORD
  5
78
330
9
100
AcDbSymbolTableRecord
100
AcDbBlockTableRecord
  2
_CLOSEDFILLED
340
0
 70
0
280
1
281
0
  0
BLOCK_RECORD
  5
84
330
9
100
AcDbSymbolTableRecord
100
AcDbBlockTableRecord
  2
_CLOSEDBLANK
340
0
 70
0
280
1
281
0
  0
ENDTAB
  0
ENDSEC
  0
SECTION
  2
BLOCKS
  0
BLOCK
  5
18
330
17
100
AcDbEntity
  8
0
100
AcDbBlockBegin
  2
*Model_Space
 70
0
 10
0.0
 20
0.0
 30
0.0
  3
*Model_Space
  1

  0
ENDBLK
  5
19
330
17
100
AcDbEntity
  8
0
100
AcDbBlockEnd
  0
BLOCK
  5
1C
330
1B
100
AcDbEntity
  8
0
100
AcDbBlockBegin
  2
*Paper_Space
 70
0
 10
0.0
 20
0.0
 30
0.0
  3
*Paper_Space
  1

  0
ENDBLK
  5
1D
330
1B
100
AcDbEntity
  8
0
100
AcDbBlockEnd
  0
BLOCK
  5
75
330
74
100
AcDbEntity
  8
0
100
AcDbBlockBegin
  2
_ARCHTICK
 70
0
 10
0.0
 20
0.0
 30
0.0
  3
_ARCHTICK
  1

  0
LWPOLYLINE
  5
77
330
74
100
AcDbEntity
  8
0
  6
BYBLOCK
 62
0
100
AcDbPolyline
 90
2
 70
0
 43
0.15
 10
-0.5
 20
-0.5
 10
0.5
 20
0.5
  0
ENDBLK
  5
76
330
74
100
AcDbEntity
  8
0
100
AcDbBlockEnd
  0
BLOCK
  5
79
330
78
100
AcDbEntity
  8
0
100
AcDbBlockBegin
  2
_CLOSEDFILLED
 70
0
 10
0.0
 20
0.0
 30
0.0
  3
_CLOSEDFILLED
  1

  0
SOLID
  5
7B
330
78
100
AcDbEntity
  8
0
  6
BYBLOCK
 62
0
100
AcDbTrace
 10
-1.0
 20
0.16439898372402537
 30
0.0
 11
0.0
 21
0.0
 31
0.0
 12
-1.0
 22
-0.16439898372402537
 32
0.0
 13
-1.0
 23
-0.16439898372402537
 33
0.0
  0
ENDBLK
  5
7A
330
78
100
AcDbEntity
  8
0
100
AcDbBlockEnd
  0
BLOCK
  5
85
330
84
100
AcDbEntity
  8
0
100
AcDbBlockBegin
  2
_CLOSEDBLANK
 70
0
 10
0.0
 20
0.0
 30
0.0
  3
_CLOSEDBLANK
  1

  0
LWPOLYLINE
  5
87
330
84
100
AcDbEntity
  8
0
  6
BYBLOCK
 62
0
100
AcDbPolyline
 90
3
 70
1
 10
-1.0
 20
0.16439898372402537
 10
0.0
 20
0.0
 10
-1.0
 20
-0.16439898372402537
  0
ENDBLK
  5
86
330
84
100
AcDbEntity
  8
0
100
AcDbBlockEnd
  0
ENDSEC
  0
SECTION
  2
ENTITIES
  0
LWPOLYLINE
  5
8C
330
17
100
AcDbEntity
  8
Front elevation
100
AcDbPolyline
 90
4
 70
0
 10
11.10236220472441
 20
0.0
 10
11.10236220472441
 20
92.99212598425197
 10
45.118110236220474
 20
92.99212598425197
 10
45.118110236220474
 20
0.0
  0
LWPOLYLINE
  5
8D
330
17
100
AcDbEntity
  8
Front elevation
  6
DASHED
100
AcDbPolyline
 90
4
 70
0
 10
7.086614173228346
 20
0.0
 10
7.086614173228346
 20
97.00787401574803
 10
49.13385826771653
 20
97.00787401574803
 10
49.13385826771653
 20
0.0
  0
LWPOLYLINE
  5
8E
330
17
100
AcDbEntity
  8
Front elevation
100
AcDbPolyline
 90
5
 70
0
 10
13.11023622047244
 20
90.98425196850394
 10
43.110236220472444
 20
90.98425196850394
 10
43.110236220472444
 20
0.0
 10
13.11023622047244
 20
0.0
 10
13.11023622047244
 20
90.98425196850394
  0
LINE
  5
8F
330
17
100
AcDbEntity
  8
Front elevation
100
AcDbLine
 10
17.04724409448819
 20
87.04724409448819
 30
0.0
 11
39.17322834645669
 21
87.04724409448819
 31
0.0
  0
LINE
  5
90
330
17
100
AcDbEntity
  8
Front elevation
100
AcDbLine
 10
17.04724409448819
 20
11.614173228346457
 30
0.0
 11
39.17322834645669
 21
11.614173228346457
 31
0.0
  0
LINE
  5
91
330
17
100
AcDbEntity
  8
Front elevation
100
AcDbLine
 10
17.04724409448819
 20
42.79527559055118
 30
0.0
 11
17.04724409448819
 21
33.74015748031496
 31
0.0
  0
LINE
  5
92
330
17
100
AcDbEntity
  8
Front elevation
100
AcDbLine
 10
39.17322834645669
 20
42.79527559055118
 30
0.0
 11
39.17322834645669
 21
33.74015748031496
 31
0.0
  0
LINE
  5
93
330
17
100
AcDbEntity
  8
Front elevation
100
AcDbLine
 10
17.04724409448819
 20
90.98425196850394
 30
0.0
 11
17.04724409448819
 21
87.04724409448819
 31
0.0
  0
LINE
  5
94
330
17
100
AcDbEntity
  8
Front elevation
100
AcDbLine
 10
39.17322834645669
 20
90.98425196850394
 30
0.0
 11
39.17322834645669
 21
87.04724409448819
 31
0.0
  0
LINE
  5
95
330
17
100
AcDbEntity
  8
Front elevation
100
AcDbLine
 10
17.04724409448819
 20
11.614173228346457
 30
0.0
 11
17.04724409448819
 21
0.0
 31
0.0
  0
LINE
  5
96
330
17
100
AcDbEntity
  8
Front elevation
100
AcDbLine
 10
39.17322834645669
 20
11.614173228346457
 30
0.0
 11
39.17322834645669
 21
0.0
 31
0.0
  0
LWPOLYLINE
  5
97
330
17
100
AcDbEntity
  8
Front elevation
100
AcDbPolyline
 90
5
 70
0
 10
17.04724409448819
 20
87.04724409448819
 10
39.173228346456696
 20
87.04724409448819
 10
39.173228346456696
 20
42.795275590551185
 10
17.04724409448819
 20
42.795275590551185
 10
17.04724409448819
 20
87.04724409448819
  0
LWPOLYLINE
  5
98
330
17
100
AcDbEntity
  8
Front elevation
100
AcDbPolyline
 90
5
 70
0
 10
17.834645669291337
 20
86.25984251968504
 10
38.38582677165354
 20
86.25984251968504
 10
38.38582677165354
 20
43.58267716535433
 10
17.834645669291337
 20
43.58267716535433
 10
17.834645669291337
 20
86.25984251968504
  0
LINE
  5
99
330
17
100
AcDbEntity
  8
Front elevation
100
AcDbLine
 10
17.04724409448819
 20
87.04724409448819
 30
0.0
 11
17.834645669291337
 21
86.25984251968504
 31
0.0
  0
LINE
  5
9A
330
17
100
AcDbEntity
  8
Front elevation
100
AcDbLine
 10
39.17322834645669
 20
87.04724409448819
 30
0.0
 11
38.38582677165354
 21
86.25984251968504
 31
0.0
  0
LINE
  5
9B
330
17
100
AcDbEntity
  8
Front elevation
100
AcDbLine
 10
17.04724409448819
 20
42.79527559055118
 30
0.0
 11
17.834645669291337
 21
43.58267716535433
 31
0.0
  0
LINE
  5
9C
330
17
100
AcDbEntity
  8
Front elevation
100
AcDbLine
 10
39.17322834645669
 20
42.79527559055118
 30
0.0
 11
38.38582677165354
 21
43.58267716535433
 31
0.0
  0
POLYLINE
  5
9D
330
17
100
AcDbEntity
  8
Front elevation
100
AcDb2dPolyline
 66
1
 10
0.0
 20
0.0
 30
0.0
 70
0
  0
VERTEX
  5
9E
330
9D
100
AcDbEntity
  8
Front elevation
100
AcDbVertex
100
AcDb2dVertex
 10
19.015748031496063
 20
47.44094488188977
 30
0.0
 70
0
  0
VERTEX
  5
9F
330
9D
100
AcDbEntity
  8
Front elevation
100
AcDbVertex
100
AcDb2dVertex
 10
19.015748031496063
 20
82.40157480314961
 30
0.0
 70
0
  0
SEQEND
  5
A0
330
9D
100
AcDbEntity
  8
Front elevation
  0
SPLINE
  5
A1
330
17
100
AcDbEntity
  8
Front elevation
100
AcDbSpline
 70
0
 71
3
 72
14
 73
10
 74
0
 40
0.0
 40
0.0
 40
0.0
 40
0.0
 40
1.0
 40
1.0
 40
1.0
 40
2.0
 40
2.0
 40
2.0
 40
3.0
 40
3.0
 40
3.0
 40
3.0
 10
19.015748031496063
 20
82.40157480314961
 30
0.0
 10
19.22305936430321
 20
82.40157480314961
 30
0.0
 10
19.426762331895027
 20
82.45615684881166
 30
0.0
 10
19.606299212598426
 20
82.55981251521523
 30
0.0
 10
19.785836093301825
 20
82.66346818161881
 30
0.0
 10
19.93495701523159
 20
82.81258910354858
 30
0.0
 10
20.038612681635165
 20
82.99212598425197
 30
0.0
 10
20.142268348038737
 20
83.17166286495537
 30
0.0
 10
20.196850393700785
 20
83.37536583254719
 30
0.0
 10
20.196850393700785
 20
83.58267716535434
 30
0.0
  0
SPLINE
  5
A2
330
17
100
AcDbEntity
  8
Front elevation
100
AcDbSpline
 70
0
 71
3
 72
11
 73
7
 74
0
 40
0.0
 40
0.0
 40
0.0
 40
0.0
 40
1.0
 40
1.0
 40
1.0
 40
2.0
 40
2.0
 40
2.0
 40
2.0
 10
20.196850393700785
 20
83.58267716535434
 30
0.0
 10
24.153543307086615
 20
83.58267716535434
 30
0.0
 10
23.203937007874018
 20
85.07874015748033
 30
0.0
 10
28.11023622047244
 20
85.07874015748033
 30
0.0
 10
33.01653543307087
 20
85.07874015748033
 30
0.0
 10
32.06692913385827
 20
83.58267716535434
 30
0.0
 10
36.02362204724409
 20
83.58267716535434
 30
0.0
  0
SPLINE
  5
A3
330
17
100
AcDbEntity
  8
Front elevation
100
AcDbSpline
 70
0
 71
3
 72
14
 73
10
 74
0
 40
0.0
 40
0.0
 40
0.0
 40
0.0
 40
1.0
 40
1.0
 40
1.0
 40
2.0
 40
2.0
 40
2.0
 40
3.0
 40
3.0
 40
3.0
 40
3.0
 10
36.02362204724409
 20
83.58267716535434
 30
0.0
 10
36.02362204724409
 20
83.37536583254719
 30
0.0
 10
36.07820409290615
 20
83.17166286495537
 30
0.0
 10
36.18185975930972
 20
82.99212598425197
 30
0.0
 10
36.28551542571329
 20
82.81258910354858
 30
0.0
 10
36.43463634764306
 20
82.66346818161881
 30
0.0
 10
36.61417322834646
 20
82.55981251521523
 30
0.0
 10
36.793710109049854
 20
82.45615684881166
 30
0.0
 10
36.99741307664168
 20
82.40157480314961
 30
0.0
 10
37.204724409448815
 20
82.40157480314961
 30
0.0
  0
POLYLINE
  5
A4
330
17
100
AcDbEntity
  8
Front elevation
100
AcDb2dPolyline
 66
1
 10
0.0
 20
0.0
 30
0.0
 70
0
  0
VERTEX
  5
A5
330
A4
100
AcDbEntity
  8
Front elevation
100
AcDbVertex
100
AcDb2dVertex
 10
37.204724409448815
 20
82.40157480314961
 30
0.0
 70
0
  0
VERTEX
  5
A6
330
A4
100
AcDbEntity
  8
Front elevation
100
AcDbVertex
100
AcDb2dVertex
 10
37.204724409448815
 20
47.44094488188977
 30
0.0
 70
0
  0
SEQEND
  5
A7
330
A4
100
AcDbEntity
  8
Front elevation
  0
SPLINE
  5
A8
330
17
100
AcDbEntity
  8
Front elevation
100
AcDbSpline
 70
0
 71
3
 72
14
 73
10
 74
0
 40
0.0
 40
0.0
 40
0.0
 40
0.0
 40
1.0
 40
1.0
 40
1.0
 40
2.0
 40
2.0
 40
2.0
 40
3.0
 40
3.0
 40
3.0
 40
3.0
 10
37.204724409448815
 20
47.44094488188977
 30
0.0
 10
36.99741307664168
 20
47.44094488188977
 30
0.0
 10
36.793710109049854
 20
47.386362836227725
 30
0.0
 10
36.61417322834646
 20
47.28270716982415
 30
0.0
 10
36.43463634764306
 20
47.179051503420574
 30
0.0
 10
36.28551542571329
 20
47.02993058149081
 30
0.0
 10
36.18185975930972
 20
46.85039370078741
 30
0.0
 10
36.07820409290615
 20
46.670856820084005
 30
0.0
 10
36.02362204724409
 20
46.467153852492196
 30
0.0
 10
36.02362204724409
 20
46.259842519685044
 30
0.0
  0
SPLINE
  5
A9
330
17
100
AcDbEntity
  8
Front elevation
100
AcDbSpline
 70
0
 71
3
 72
11
 73
7
 74
0
 40
0.0
 40
0.0
 40
0.0
 40
0.0
 40
1.0
 40
1.0
 40
1.0
 40
2.0
 40
2.0
 40
2.0
 40
2.0
 10
36.02362204724409
 20
46.259842519685044
 30
0.0
 10
32.06692913385827
 20
46.259842519685044
 30
0.0
 10
33.01653543307087
 20
44.76377952755906
 30
0.0
 10
28.11023622047244
 20
44.76377952755906
 30
0.0
 10
23.203937007874018
 20
44.76377952755906
 30
0.0
 10
24.153543307086615
 20
46.259842519685044
 30
0.0
 10
20.196850393700785
 20
46.259842519685044
 30
0.0
  0
SPLINE
  5
AA
330
17
100
AcDbEntity
  8
Front elevation
100
AcDbSpline
 70
0
 71
3
 72
14
 73
10
 74
0
 40
0.0
 40
0.0
 40
0.0
 40
0.0
 40
1.0
 40
1.0
 40
1.0
 40
2.0
 40
2.0
 40
2.0
 40
3.0
 40
3.0
 40
3.0
 40
3.0
 10
20.196850393700785
 20
46.259842519685044
 30
0.0
 10
20.196850393700785
 20
46.467153852492196
 30
0.0
 10
20.142268348038737
 20
46.670856820084005
 30
0.0
 10
20.038612681635165
 20
46.85039370078741
 30
0.0
 10
19.93495701523159
 20
47.02993058149081
 30
0.0
 10
19.785836093301825
 20
47.17905150342057
 30
0.0
 10
19.606299212598426
 20
47.28270716982414
 30
0.0
 10
19.426762331895027
 20
47.38636283622771
 30
0.0
 10
19.22305936430321
 20
47.44094488188977
 30
0.0
 10
19.015748031496063
 20
47.44094488188977
 30
0.0
  0
CIRCLE
  5
AB
330
17
100
AcDbEntity
  8
Front elevation
100
AcDbCircle
 10
19.133858267716533
 20
83.7007874015748
 30
0.0
 40
0.5118110236220472
  0
CIRCLE
  5
AC
330
17
100
AcDbEntity
  8
Front elevation
100
AcDbCircle
 10
19.133858267716533
 20
83.7007874015748
 30
0.0
 40
0.2047244094488189
  0
CIRCLE
  5
AD
330
17
100
AcDbEntity
  8
Front elevation
100
AcDbCircle
 10
37.08661417322835
 20
83.7007874015748
 30
0.0
 40
0.5118110236220472
  0
CIRCLE
  5
AE
330
17
100
AcDbEntity
  8
Front elevation
100
AcDbCircle
 10
37.08661417322835
 20
83.7007874015748
 30
0.0
 40
0.2047244094488189
  0
CIRCLE
  5
AF
330
17
100
AcDbEntity
  8
Front elevation
100
AcDbCircle
 10
19.133858267716533
 20
46.14173228346456
 30
0.0
 40
0.5118110236220472
  0
CIRCLE
  5
B0
330
17
100
AcDbEntity
  8
Front elevation
100
AcDbCircle
 10
19.133858267716533
 20
46.14173228346456
 30
0.0
 40
0.2047244094488189
  0
CIRCLE
  5
B1
330
17
100
AcDbEntity
  8
Front elevation
100
AcDbCircle
 10
37.08661417322835
 20
46.14173228346456
 30
0.0
 40
0.5118110236220472
  0
CIRCLE
  5
B2
330
17
100
AcDbEntity
  8
Front elevation
100
AcDbCircle
 10
37.08661417322835
 20
46.14173228346456
 30
0.0
 40
0.2047244094488189
  0
LWPOLYLINE
  5
B3
330
17
100
AcDbEntity
  8
Front elevation
100
AcDbPolyline
 90
5
 70
0
 10
17.04724409448819
 20
33.74015748031496
 10
39.173228346456696
 20
33.74015748031496
 10
39.173228346456696
 20
11.61417322834646
 10
17.04724409448819
 20
11.61417322834646
 10
17.04724409448819
 20
33.74015748031496
  0
LWPOLYLINE
  5
B4
330
17
100
AcDbEntity
  8
Front elevation
100
AcDbPolyline
 90
5
 70
0
 10
17.834645669291337
 20
32.952755905511815
 10
38.38582677165354
 20
32.952755905511815
 10
38.38582677165354
 20
12.401574803149614
 10
17.834645669291337
 20
12.401574803149614
 10
17.834645669291337
 20
32.952755905511815
  0
LINE
  5
B5
330
17
100
AcDbEntity
  8
Front elevation
100
AcDbLine
 10
17.04724409448819
 20
33.74015748031496
 30
0.0
 11
17.834645669291337
 21
32.95275590551181
 31
0.0
  0
LINE
  5
B6
330
17
100
AcDbEntity
  8
Front elevation
100
AcDbLine
 10
39.17322834645669
 20
33.74015748031496
 30
0.0
 11
38.38582677165354
 21
32.95275590551181
 31
0.0
  0
LINE
  5
B7
330
17
100
AcDbEntity
  8
Front elevation
100
AcDbLine
 10
17.04724409448819
 20
11.614173228346457
 30
0.0
 11
17.834645669291337
 21
12.401574803149606
 31
0.0
  0
LINE
  5
B8
330
17
100
AcDbEntity
  8
Front elevation
100
AcDbLine
 10
39.17322834645669
 20
11.614173228346457
 30
0.0
 11
38.38582677165354
 21
12.401574803149606
 31
0.0
  0
POLYLINE
  5
B9
330
17
100
AcDbEntity
  8
Front elevation
100
AcDb2dPolyline
 66
1
 10
0.0
 20
0.0
 30
0.0
 70
0
  0
VERTEX
  5
BA
330
B9
100
AcDbEntity
  8
Front elevation
100
AcDbVertex
100
AcDb2dVertex
 10
19.015748031496063
 20
16.259842519685037
 30
0.0
 70
0
  0
VERTEX
  5
BB
330
B9
100
AcDbEntity
  8
Front elevation
100
AcDbVertex
100
AcDb2dVertex
 10
19.015748031496063
 20
29.094488188976385
 30
0.0
 70
0
  0
SEQEND
  5
BC
330
B9
100
AcDbEntity
  8
Front elevation
  0
SPLINE
  5
BD
330
17
100
AcDbEntity
  8
Front elevation
100
AcDbSpline
 70
0
 71
3
 72
14
 73
10
 74
0
 40
0.0
 40
0.0
 40
0.0
 40
0.0
 40
1.0
 40
1.0
 40
1.0
 40
2.0
 40
2.0
 40
2.0
 40
3.0
 40
3.0
 40
3.0
 40
3.0
 10
19.015748031496063
 20
29.094488188976385
 30
0.0
 10
19.22305936430321
 20
29.094488188976385
 30
0.0
 10
19.426762331895027
 20
29.14907023463843
 30
0.0
 10
19.606299212598426
 20
29.252725901041998
 30
0.0
 10
19.785836093301825
 20
29.356381567445574
 30
0.0
 10
19.93495701523159
 20
29.505502489375345
 30
0.0
 10
20.038612681635165
 20
29.685039370078748
 30
0.0
 10
20.142268348038737
 20
29.864576250782143
 30
0.0
 10
20.196850393700785
 20
30.06827921837396
 30
0.0
 10
20.196850393700785
 20
30.275590551181104
 30
0.0
  0
SPLINE
  5
BE
330
17
100
AcDbEntity
  8
Front elevation
100
AcDbSpline
 70
0
 71
3
 72
11
 73
7
 74
0
 40
0.0
 40
0.0
 40
0.0
 40
0.0
 40
1.0
 40
1.0
 40
1.0
 40
2.0
 40
2.0
 40
2.0
 40
2.0
 10
20.196850393700785
 20
30.275590551181104
 30
0.0
 10
24.153543307086615
 20
30.275590551181104
 30
0.0
 10
23.203937007874018
 20
31.77165354330709
 30
0.0
 10
28.11023622047244
 20
31.77165354330709
 30
0.0
 10
33.01653543307087
 20
31.77165354330709
 30
0.0
 10
32.06692913385827
 20
30.275590551181104
 30
0.0
 10
36.02362204724409
 20
30.275590551181104
 30
0.0
  0
SPLINE
  5
BF
330
17
100
AcDbEntity
  8
Front elevation
100
AcDbSpline
 70
0
 71
3
 72
14
 73
10
 74
0
 40
0.0
 40
0.0
 40
0.0
 40
0.0
 40
1.0
 40
1.0
 40
1.0
 40
2.0
 40
2.0
 40
2.0
 40
3.0
 40
3.0
 40
3.0
 40
3.0
 10
36.02362204724409
 20
30.275590551181104
 30
0.0
 10
36.02362204724409
 20
30.06827921837396
 30
0.0
 10
36.07820409290615
 20
29.864576250782143
 30
0.0
 10
36.18185975930972
 20
29.685039370078748
 30
0.0
 10
36.28551542571329
 20
29.505502489375345
 30
0.0
 10
36.43463634764306
 20
29.356381567445588
 30
0.0
 10
36.61417322834646
 20
29.252725901042012
 30
0.0
 10
36.793710109049854
 20
29.149070234638437
 30
0.0
 10
36.99741307664168
 20
29.094488188976385
 30
0.0
 10
37.204724409448815
 20
29.094488188976385
 30
0.0
  0
POLYLINE
  5
C0
330
17
100
AcDbEntity
  8
Front elevation
100
AcDb2dPolyline
 66
1
 10
0.0
 20
0.0
 30
0.0
 70
0
  0
VERTEX
  5
C1
330
C0
100
AcDbEntity
  8
Front elevation
100
AcDbVertex
100
AcDb2dVertex
 10
37.204724409448815
 20
29.094488188976385
 30
0.0
 70
0
  0
VERTEX
  5
C2
330
C0
100
AcDbEntity
  8
Front elevation
100
AcDbVertex
100
AcDb2dVertex
 10
37.204724409448815
 20
16.259842519685037
 30
0.0
 70
0
  0
SEQEND
  5
C3
330
C0
100
AcDbEntity
  8
Front elevation
  0
SPLINE
  5
C4
330
17
100
AcDbEntity
  8
Front elevation
100
AcDbSpline
 70
0
 71
3
 72
14
 73
10
 74
0
 40
0.0
 40
0.0
 40
0.0
 40
0.0
 40
1.0
 40
1.0
 40
1.0
 40
2.0
 40
2.0
 40
2.0
 40
3.0
 40
3.0
 40
3.0
 40
3.0
 10
37.204724409448815
 20
16.259842519685037
 30
0.0
 10
36.99741307664168
 20
16.259842519685037
 30
0.0
 10
36.793710109049854
 20
16.205260474022992
 30
0.0
 10
36.61417322834646
 20
16.101604807619424
 30
0.0
 10
36.43463634764306
 20
15.997949141215855
 30
0.0
 10
36.28551542571329
 20
15.848828219286077
 30
0.0
 10
36.18185975930972
 20
15.669291338582681
 30
0.0
 10
36.07820409290615
 20
15.489754457879286
 30
0.0
 10
36.02362204724409
 20
15.286051490287463
 30
0.0
 10
36.02362204724409
 20
15.078740157480325
 30
0.0
  0
SPLINE
  5
C5
330
17
100
AcDbEntity
  8
Front elevation
100
AcDbSpline
 70
0
 71
3
 72
11
 73
7
 74
0
 40
0.0
 40
0.0
 40
0.0
 40
0.0
 40
1.0
 40
1.0
 40
1.0
 40
2.0
 40
2.0
 40
2.0
 40
2.0
 10
36.02362204724409
 20
15.078740157480325
 30
0.0
 10
32.06692913385827
 20
15.078740157480325
 30
0.0
 10
33.01653543307087
 20
13.58267716535434
 30
0.0
 10
28.11023622047244
 20
13.58267716535434
 30
0.0
 10
23.203937007874018
 20
13.58267716535434
 30
0.0
 10
24.153543307086615
 20
15.078740157480325
 30
0.0
 10
20.196850393700785
 20
15.078740157480325
 30
0.0
  0
SPLINE
  5
C6
330
17
100
AcDbEntity
  8
Front elevation
100
AcDbSpline
 70
0
 71
3
 72
14
 73
10
 74
0
 40
0.0
 40
0.0
 40
0.0
 40
0.0
 40
1.0
 40
1.0
 40
1.0
 40
2.0
 40
2.0
 40
2.0
 40
3.0
 40
3.0
 40
3.0
 40
3.0
 10
20.196850393700785
 20
15.078740157480325
 30
0.0
 10
20.196850393700785
 20
15.286051490287463
 30
0.0
 10
20.142268348038737
 20
15.489754457879286
 30
0.0
 10
20.038612681635165
 20
15.669291338582681
 30
0.0
 10
19.93495701523159
 20
15.848828219286077
 30
0.0
 10
19.785836093301825
 20
15.997949141215841
 30
0.0
 10
19.606299212598426
 20
16.10160480761941
 30
0.0
 10
19.426762331895027
 20
16.205260474022992
 30
0.0
 10
19.22305936430321
 20
16.259842519685037
 30
0.0
 10
19.015748031496063
 20
16.259842519685037
 30
0.0
  0
CIRCLE
  5
C7
330
17
100
AcDbEntity
  8
Front elevation
100
AcDbCircle
 10
19.133858267716533
 20
30.393700787401574
 30
0.0
 40
0.5118110236220472
  0
CIRCLE
  5
C8
330
17
100
AcDbEntity
  8
Front elevation
100
AcDbCircle
 10
19.133858267716533
 20
30.393700787401574
 30
0.0
 40
0.2047244094488189
  0
CIRCLE
  5
C9
330
17
100
AcDbEntity
  8
Front elevation
100
AcDbCircle
 10
37.08661417322835
 20
30.393700787401574
 30
0.0
 40
0.5118110236220472
  0
CIRCLE
  5
CA
330
17
100
AcDbEntity
  8
Front elevation
100
AcDbCircle
 10
37.08661417322835
 20
30.393700787401574
 30
0.0
 40
0.2047244094488189
  0
CIRCLE
  5
CB
330
17
100
AcDbEntity
  8
Front elevation
100
AcDbCircle
 10
19.133858267716533
 20
14.960629921259843
 30
0.0
 40
0.5118110236220472
  0
CIRCLE
  5
CC
330
17
100
AcDbEntity
  8
Front elevation
100
AcDbCircle
 10
19.133858267716533
 20
14.960629921259843
 30
0.0
 40
0.2047244094488189
  0
CIRCLE
  5
CD
330
17
100
AcDbEntity
  8
Front elevation
100
AcDbCircle
 10
37.08661417322835
 20
14.960629921259843
 30
0.0
 40
0.5118110236220472
  0
CIRCLE
  5
CE
330
17
100
AcDbEntity
  8
Front elevation
100
AcDbCircle
 10
37.08661417322835
 20
14.960629921259843
 30
0.0
 40
0.2047244094488189
  0
CIRCLE
  5
CF
330
17
100
AcDbEntity
  8
Front elevation
100
AcDbCircle
 10
18.228346456692915
 20
38.26771653543307
 30
0.0
 40
1.0826771653543308
  0
CIRCLE
  5
D0
330
17
100
AcDbEntity
  8
Front elevation
100
AcDbCircle
 10
18.228346456692915
 20
38.26771653543307
 30
0.0
 40
0.6889763779527559
  0
CIRCLE
  5
D1
330
17
100
AcDbEntity
  8
Front elevation
100
AcDbCircle
 10
14.763779527559056
 20
38.26771653543307
 30
0.0
 40
0.6692913385826772
  0
SPLINE
  5
D2
330
17
100
AcDbEntity
  8
Front elevation
100
AcDbSpline
 70
0
 71
3
 72
35
 73
31
 74
0
 40
0.0
 40
0.0
 40
0.0
 40
0.0
 40
1.0
 40
1.0
 40
1.0
 40
2.0
 40
2.0
 40
2.0
 40
3.0
 40
3.0
 40
3.0
 40
4.0
 40
4.0
 40
4.0
 40
5.0
 40
5.0
 40
5.0
 40
6.0
 40
6.0
 40
6.0
 40
7.0
 40
7.0
 40
7.0
 40
8.0
 40
8.0
 40
8.0
 40
9.0
 40
9.0
 40
9.0
 40
10.0
 40
10.0
 40
10.0
 40
10.0
 10
14.645669291338582
 20
38.30708661417323
 30
0.0
 10
14.62433425001811
 20
38.326169255251365
 30
0.0
 10
14.60793830584452
 20
38.35014120101716
 30
0.0
 10
14.597889772044535
 20
38.376943405164084
 30
0.0
 10
14.58784123824455
 20
38.40374560931102
 30
0.0
 10
14.584436297853673
 20
38.43258807019901
 30
0.0
 10
14.587967414821396
 20
38.4609933934963
 30
0.0
 10
14.591498531789117
 20
38.4893987167936
 30
0.0
 10
14.601861625563682
 20
38.516529648524006
 30
0.0
 10
14.618166568569768
 20
38.54005580444102
 30
0.0
 10
14.634471511575853
 20
38.563581960358036
 30
0.0
 10
14.656237711558962
 20
38.582809901158754
 30
0.0
 10
14.681595582540576
 20
38.59608806209855
 30
0.0
 10
14.706953453522189
 20
38.60936622303835
 30
0.0
 10
14.735155565941852
 20
38.6163032270177
 30
0.0
 10
14.763779527559059
 20
38.6163032270177
 30
0.0
 10
14.792403489176266
 20
38.6163032270177
 30
0.0
 10
14.820605601595929
 20
38.60936622303835
 30
0.0
 10
14.845963472577543
 20
38.59608806209855
 30
0.0
 10
14.871321343559154
 20
38.582809901158754
 30
0.0
 10
14.893087543542261
 20
38.56358196035803
 30
0.0
 10
14.909392486548347
 20
38.54005580444101
 30
0.0
 10
14.92569742955443
 20
38.516529648524
 30
0.0
 10
14.936060523328996
 20
38.48939871679359
 30
0.0
 10
14.939591640296715
 20
38.460993393496295
 30
0.0
 10
14.943122757264437
 20
38.432588070199
 30
0.0
 10
14.939717816873557
 20
38.40374560931101
 30
0.0
 10
14.92966928307357
 20
38.37694340516408
 30
0.0
 10
14.919620749273586
 20
38.350141201017145
 30
0.0
 10
14.9032248051
 20
38.326169255251365
 30
0.0
 10
14.881889763779528
 20
38.30708661417323
 30
0.0
  0
POLYLINE
  5
D3
330
17
100
AcDbEntity
  8
Front elevation
100
AcDb2dPolyline
 66
1
 10
0.0
 20
0.0
 30
0.0
 70
0
  0
VERTEX
  5
D4
330
D3
100
AcDbEntity
  8
Front elevation
100
AcDbVertex
100
AcDb2dVertex
 10
14.881889763779528
 20
38.30708661417323
 30
0.0
 70
0
  0
VERTEX
  5
D5
330
D3
100
AcDbEntity
  8
Front elevation
100
AcDbVertex
100
AcDb2dVertex
 10
14.940944881889763
 20
37.8740157480315
 30
0.0
 70
0
  0
VERTEX
  5
D6
330
D3
100
AcDbEntity
  8
Front elevation
100
AcDbVertex
100
AcDb2dVertex
 10
14.586614173228346
 20
37.8740157480315
 30
0.0
 70
0
  0
VERTEX
  5
D7
330
D3
100
AcDbEntity
  8
Front elevation
100
AcDbVertex
100
AcDb2dVertex
 10
14.645669291338582
 20
38.30708661417323
 30
0.0
 70
0
  0
SEQEND
  5
D8
330
D3
100
AcDbEntity
  8
Front elevation
  0
LINE
  5
D9
330
17
100
AcDbEntity
  8
Front elevation
100
AcDbLine
 10
0.0
 20
0.0
 30
0.0
 11
56.22047244094488
 21
0.0
 31
0.0
  0
TEXT
  5
DA
330
17
100
AcDbEntity
  8
LABELS
100
AcDbText
 10
0.0
 20
99.37007874015748
 30
0.0
 40
1.1244094488188978
  1
FRONT ELEVATION  (1:1, inches)
 11
0.0
 21
99.37007874015748
 31
0.0
100
AcDbText
  0
LWPOLYLINE
  5
DD
330
17
100
AcDbEntity
  8
Panel head - detail A
100
AcDbPolyline
 90
2
 70
0
 10
67.83464566929133
 20
8.937007874015748
 10
67.83464566929133
 20
7.362204724409449
  0
LWPOLYLINE
  5
DE
330
17
100
AcDbEntity
  8
Panel head - detail A
100
AcDbPolyline
 90
2
 70
0
 10
89.96062992125984
 20
8.937007874015748
 10
89.96062992125984
 20
7.362204724409449
  0
LWPOLYLINE
  5
DF
330
17
100
AcDbEntity
  8
Panel head - detail A
100
AcDbPolyline
 90
3
 70
0
 10
67.83464566929133
 20
7.362204724409449
 10
89.96062992125984
 20
7.362204724409449
 10
89.96062992125984
 20
0.47244094488188976
  0
LWPOLYLINE
  5
E0
330
17
100
AcDbEntity
  8
Panel head - detail A
100
AcDbPolyline
 90
2
 70
0
 10
67.83464566929133
 20
0.47244094488188976
 10
67.83464566929133
 20
7.362204724409449
  0
LWPOLYLINE
  5
E1
330
17
100
AcDbEntity
  8
Panel head - detail A
100
AcDbPolyline
 90
3
 70
0
 10
68.62204724409449
 20
6.574803149606299
 10
89.1732283464567
 20
6.574803149606299
 10
89.1732283464567
 20
0.47244094488188976
  0
LWPOLYLINE
  5
E2
330
17
100
AcDbEntity
  8
Panel head - detail A
100
AcDbPolyline
 90
2
 70
0
 10
68.62204724409449
 20
0.47244094488188976
 10
68.62204724409449
 20
6.574803149606299
  0
LWPOLYLINE
  5
E3
330
17
100
AcDbEntity
  8
Panel head - detail A
100
AcDbPolyline
 90
2
 70
0
 10
67.83464566929133
 20
7.362204724409449
 10
68.62204724409449
 20
6.574803149606299
  0
LWPOLYLINE
  5
E4
330
17
100
AcDbEntity
  8
Panel head - detail A
100
AcDbPolyline
 90
2
 70
0
 10
89.96062992125984
 20
7.362204724409449
 10
89.1732283464567
 20
6.574803149606299
  0
LWPOLYLINE
  5
E5
330
17
100
AcDbEntity
  8
Panel head - detail A
100
AcDbPolyline
 90
77
 70
0
 10
69.80314960629921
 20
0.47244094488188976
 10
69.80314960629921
 20
2.716535433070866
 10
69.95763532302556
 20
2.726683497493118
 10
70.1088406163893
 20
2.7567834142023373
 10
70.2548381999836
 20
2.806318768362228
 10
70.39370078740157
 20
2.8747731451364897
 10
70.5224153103973
 20
2.9608044850885724
 10
70.63831297728238
 20
3.0624744242924242
 10
70.73998291648623
 20
3.178372091177493
 10
70.82601425643831
 20
3.3070866141732282
 10
70.89446863321257
 20
3.4459492015912137
 10
70.94400398737247
 20
3.591946785185504
 10
70.97410390408169
 20
3.743152078549247
 10
70.98425196850394
 20
3.8976377952755903
 10
71.34114644208293
 20
3.9019294798843505
 10
71.67126368725393
 20
3.914439283956693
 10
71.97657432255782
 20
3.9346193328617125
 10
72.25904896653543
 20
3.9619217519685037
 10
72.5206582377276
 20
3.9957986666461616
 10
72.76337275467519
 20
4.03570220226378
 10
72.98916313591904
 20
4.081084484190453
 10
73.2
 20
4.131397637795276
 10
73.58469565083661
 20
4.244625061515748
 10
73.93322465551181
 20
4.371001476377953
 10
74.58484251968504
 20
4.645669291338582
 10
74.91946127583661
 20
4.7851946973425195
 10
75.28097317913385
 20
4.920337106299213
 10
75.47674060731423
 20
4.984895000307579
 10
75.68514317790354
 20
5.046713521161418
 10
75.90815150944266
 20
5.105244794229823
 10
76.14773622047244
 20
5.15994094488189
 10
76.40586792953371
 20
5.210254098486713
 10
76.68451725516732
 20
5.255636380413386
 10
76.98565481591412
 20
5.295539916031004
 10
77.31125123031495
 20
5.329416830708661
 10
77.66327711691068
 20
5.356719249815453
 10
78.04370309424212
 20
5.376899298720472
 10
78.45449978085014
 20
5.389409102792815
 10
78.89763779527559
 20
5.393700787401575
 10
79.34077580970103
 20
5.389409102792815
 10
79.75157249630905
 20
5.376899298720472
 10
80.13199847364051
 20
5.356719249815453
 10
80.48402436023622
 20
5.329416830708661
 10
80.80962077463705
 20
5.295539916031004
 10
81.11075833538385
 20
5.255636380413386
 10
81.38940766101747
 20
5.210254098486713
 10
81.64753937007873
 20
5.15994094488189
 10
81.88712408110852
 20
5.105244794229823
 10
82.11013241264764
 20
5.046713521161418
 10
82.31853498323696
 20
4.984895000307579
 10
82.51430241141732
 20
4.920337106299213
 10
82.87581431471457
 20
4.7851946973425195
 10
83.21043307086615
 20
4.645669291338582
 10
83.86205093503936
 20
4.371001476377953
 10
84.21057993971456
 20
4.244625061515748
 10
84.5952755905512
 20
4.131397637795276
 10
84.80611245463213
 20
4.081084484190453
 10
85.031902835876
 20
4.03570220226378
 10
85.27461735282357
 20
3.9957986666461616
 10
85.53622662401575
 20
3.9619217519685037
 10
85.81870126799336
 20
3.9346193328617125
 10
86.12401190329724
 20
3.914439283956693
 10
86.45412914846825
 20
3.9019294798843505
 10
86.81102362204724
 20
3.8976377952755903
 10
86.8211716864695
 20
3.743152078549247
 10
86.85127160317872
 20
3.591946785185504
 10
86.9008069573386
 20
3.4459492015912137
 10
86.96926133411286
 20
3.3070866141732282
 10
87.05529267406496
 20
3.178372091177493
 10
87.1569626132688
 20
3.0624744242924242
 10
87.27286028015388
 20
2.9608044850885724
 10
87.4015748031496
 20
2.8747731451364897
 10
87.54043739056759
 20
2.806318768362228
 10
87.68643497416188
 20
2.7567834142023373
 10
87.83764026752563
 20
2.726683497493118
 10
87.99212598425197
 20
2.716535433070866
 10
87.99212598425197
 20
0.47244094488188976
  0
LWPOLYLINE
  5
E6
330
17
100
AcDbEntity
  8
Panel head - detail A
100
AcDbPolyline
 90
49
 70
0
 10
70.43307086614173
 20
4.015748031496063
 10
70.42867337155876
 20
3.948804220914647
 10
70.4156300743181
 20
3.8832819271236922
 10
70.39416475418214
 20
3.820016307566166
 10
70.3645011909133
 20
3.7598425196850394
 10
70.32722094360072
 20
3.7040662263868875
 10
70.28316396994572
 20
3.6538439040700244
 10
70.23294164762886
 20
3.6097869304150207
 10
70.17716535433071
 20
3.572506683102452
 10
70.11699156644958
 20
3.542843119833606
 10
70.05372594689206
 20
3.5213777996976536
 10
69.9882036531011
 20
3.5083345024569907
 10
69.92125984251969
 20
3.5039370078740157
 10
69.85431603193827
 20
3.5083345024569907
 10
69.7887937381473
 20
3.5213777996976536
 10
69.72552811858979
 20
3.542843119833606
 10
69.66535433070867
 20
3.572506683102452
 10
69.60957803741051
 20
3.6097869304150207
 10
69.55935571509364
 20
3.6538439040700244
 10
69.51529874143864
 20
3.7040662263868875
 10
69.47801849412608
 20
3.7598425196850394
 10
69.44835493085722
 20
3.820016307566166
 10
69.42688961072128
 20
3.8832819271236922
 10
69.41384631348062
 20
3.948804220914647
 10
69.40944881889763
 20
4.015748031496063
 10
69.41384631348062
 20
4.0826918420774785
 10
69.42688961072128
 20
4.148214135868434
 10
69.44835493085722
 20
4.21147975542596
 10
69.47801849412608
 20
4.271653543307086
 10
69.51529874143864
 20
4.327429836605238
 10
69.55935571509364
 20
4.377652158922102
 10
69.60957803741051
 20
4.421709132577104
 10
69.66535433070867
 20
4.4589893798896725
 10
69.72552811858979
 20
4.4886529431585185
 10
69.7887937381473
 20
4.510118263294473
 10
69.85431603193827
 20
4.523161560535135
 10
69.92125984251969
 20
4.52755905511811
 10
69.9882036531011
 20
4.523161560535135
 10
70.05372594689206
 20
4.510118263294473
 10
70.11699156644958
 20
4.488652943158519
 10
70.17716535433071
 20
4.458989379889673
 10
70.23294164762886
 20
4.421709132577105
 10
70.28316396994572
 20
4.377652158922102
 10
70.32722094360072
 20
4.327429836605238
 10
70.3645011909133
 20
4.271653543307086
 10
70.39416475418214
 20
4.21147975542596
 10
70.4156300743181
 20
4.148214135868434
 10
70.42867337155876
 20
4.0826918420774785
 10
70.43307086614173
 20
4.015748031496063
  0
LWPOLYLINE
  5
E7
330
17
100
AcDbEntity
  8
Panel head - detail A
100
AcDbPolyline
 90
49
 70
0
 10
70.1259842519685
 20
4.015748031496063
 10
70.12422525413531
 20
3.9889705072634962
 10
70.11900793523905
 20
3.9627615897471142
 10
70.11042180718466
 20
3.9374553419241045
 10
70.09855638187713
 20
3.9133858267716537
 10
70.08364428295211
 20
3.891075309452393
 10
70.0660214934901
 20
3.8709863805256473
 10
70.04593256456336
 20
3.853363591063647
 10
70.02362204724409
 20
3.838451492138619
 10
69.99955253209164
 20
3.82658606683108
 10
69.97424628426863
 20
3.8179999387766985
 10
69.94803736675225
 20
3.812782619880435
 10
69.92125984251969
 20
3.8110236220472444
 10
69.89448231828712
 20
3.812782619880435
 10
69.86827340077073
 20
3.8179999387766985
 10
69.84296715294772
 20
3.82658606683108
 10
69.81889763779527
 20
3.838451492138619
 10
69.796587120476
 20
3.853363591063647
 10
69.77649819154927
 20
3.8709863805256473
 10
69.75887540208727
 20
3.891075309452393
 10
69.74396330316225
 20
3.9133858267716537
 10
69.7320978778547
 20
3.9374553419241045
 10
69.72351174980031
 20
3.9627615897471142
 10
69.71829443090405
 20
3.9889705072634962
 10
69.71653543307086
 20
4.015748031496063
 10
69.71829443090405
 20
4.04252555572863
 10
69.72351174980031
 20
4.068734473245011
 10
69.7320978778547
 20
4.094040721068021
 10
69.74396330316225
 20
4.118110236220472
 10
69.75887540208727
 20
4.140420753539733
 10
69.77649819154927
 20
4.160509682466477
 10
69.796587120476
 20
4.178132471928478
 10
69.81889763779527
 20
4.193044570853506
 10
69.84296715294772
 20
4.204909996161045
 10
69.86827340077073
 20
4.213496124215426
 10
69.89448231828712
 20
4.2187134431116915
 10
69.92125984251969
 20
4.2204724409448815
 10
69.94803736675225
 20
4.2187134431116915
 10
69.97424628426863
 20
4.213496124215427
 10
69.99955253209164
 20
4.204909996161046
 10
70.02362204724409
 20
4.193044570853507
 10
70.04593256456336
 20
4.178132471928479
 10
70.0660214934901
 20
4.160509682466478
 10
70.08364428295211
 20
4.140420753539733
 10
70.09855638187713
 20
4.118110236220472
 10
70.11042180718466
 20
4.094040721068021
 10
70.11900793523905
 20
4.068734473245011
 10
70.12422525413531
 20
4.04252555572863
 10
70.1259842519685
 20
4.015748031496063
  0
LWPOLYLINE
  5
E8
330
17
100
AcDbEntity
  8
Panel head - detail A
100
AcDbPolyline
 90
49
 70
0
 10
88.38582677165354
 20
4.015748031496063
 10
88.38142927707057
 20
3.948804220914647
 10
88.3683859798299
 20
3.8832819271236922
 10
88.34692065969395
 20
3.820016307566166
 10
88.3172570964251
 20
3.7598425196850394
 10
88.27997684911253
 20
3.7040662263868875
 10
88.23591987545754
 20
3.6538439040700244
 10
88.18569755314066
 20
3.6097869304150207
 10
88.12992125984252
 20
3.572506683102452
 10
88.06974747196138
 20
3.542843119833606
 10
88.00648185240388
 20
3.5213777996976536
 10
87.9409595586129
 20
3.5083345024569907
 10
87.8740157480315
 20
3.5039370078740157
 10
87.80707193745009
 20
3.5083345024569907
 10
87.74154964365911
 20
3.5213777996976536
 10
87.67828402410161
 20
3.542843119833606
 10
87.61811023622047
 20
3.572506683102452
 10
87.56233394292234
 20
3.6097869304150207
 10
87.51211162060545
 20
3.6538439040700244
 10
87.46805464695046
 20
3.7040662263868875
 10
87.43077439963788
 20
3.7598425196850394
 10
87.40111083636904
 20
3.820016307566166
 10
87.3796455162331
 20
3.8832819271236922
 10
87.36660221899243
 20
3.948804220914647
 10
87.36220472440945
 20
4.015748031496063
 10
87.36660221899243
 20
4.0826918420774785
 10
87.3796455162331
 20
4.148214135868434
 10
87.40111083636904
 20
4.21147975542596
 10
87.43077439963788
 20
4.271653543307086
 10
87.46805464695046
 20
4.327429836605238
 10
87.51211162060545
 20
4.377652158922102
 10
87.56233394292234
 20
4.421709132577104
 10
87.61811023622047
 20
4.4589893798896725
 10
87.67828402410161
 20
4.4886529431585185
 10
87.74154964365911
 20
4.510118263294473
 10
87.80707193745009
 20
4.523161560535135
 10
87.8740157480315
 20
4.52755905511811
 10
87.9409595586129
 20
4.523161560535135
 10
88.00648185240388
 20
4.510118263294473
 10
88.06974747196138
 20
4.488652943158519
 10
88.12992125984252
 20
4.458989379889673
 10
88.18569755314066
 20
4.421709132577105
 10
88.23591987545754
 20
4.377652158922102
 10
88.27997684911253
 20
4.327429836605238
 10
88.3172570964251
 20
4.271653543307086
 10
88.34692065969395
 20
4.21147975542596
 10
88.3683859798299
 20
4.148214135868434
 10
88.38142927707057
 20
4.0826918420774785
 10
88.38582677165354
 20
4.015748031496063
  0
LWPOLYLINE
  5
E9
330
17
100
AcDbEntity
  8
Panel head - detail A
100
AcDbPolyline
 90
49
 70
0
 10
88.07874015748031
 20
4.015748031496063
 10
88.07698115964712
 20
3.9889705072634962
 10
88.07176384075086
 20
3.9627615897471142
 10
88.06317771269649
 20
3.9374553419241045
 10
88.05131228738894
 20
3.9133858267716537
 10
88.03640018846393
 20
3.891075309452393
 10
88.01877739900192
 20
3.8709863805256473
 10
87.99868847007517
 20
3.853363591063647
 10
87.9763779527559
 20
3.838451492138619
 10
87.95230843760346
 20
3.82658606683108
 10
87.92700218978044
 20
3.8179999387766985
 10
87.90079327226407
 20
3.812782619880435
 10
87.8740157480315
 20
3.8110236220472444
 10
87.84723822379893
 20
3.812782619880435
 10
87.82102930628255
 20
3.8179999387766985
 10
87.79572305845953
 20
3.82658606683108
 10
87.7716535433071
 20
3.838451492138619
 10
87.74934302598783
 20
3.853363591063647
 10
87.72925409706107
 20
3.8709863805256473
 10
87.71163130759906
 20
3.891075309452393
 10
87.69671920867405
 20
3.9133858267716537
 10
87.6848537833665
 20
3.9374553419241045
 10
87.67626765531213
 20
3.9627615897471142
 10
87.67105033641587
 20
3.9889705072634962
 10
87.66929133858268
 20
4.015748031496063
 10
87.67105033641587
 20
4.04252555572863
 10
87.67626765531213
 20
4.068734473245011
 10
87.6848537833665
 20
4.094040721068021
 10
87.69671920867405
 20
4.118110236220472
 10
87.71163130759906
 20
4.140420753539733
 10
87.72925409706107
 20
4.160509682466477
 10
87.74934302598783
 20
4.178132471928478
 10
87.7716535433071
 20
4.193044570853506
 10
87.79572305845953
 20
4.204909996161045
 10
87.82102930628255
 20
4.213496124215426
 10
87.84723822379893
 20
4.2187134431116915
 10
87.8740157480315
 20
4.2204724409448815
 10
87.90079327226407
 20
4.2187134431116915
 10
87.92700218978044
 20
4.213496124215427
 10
87.95230843760346
 20
4.204909996161046
 10
87.9763779527559
 20
4.193044570853507
 10
87.99868847007517
 20
4.178132471928479
 10
88.01877739900192
 20
4.160509682466478
 10
88.03640018846393
 20
4.140420753539733
 10
88.05131228738894
 20
4.118110236220472
 10
88.06317771269649
 20
4.094040721068021
 10
88.07176384075086
 20
4.068734473245011
 10
88.07698115964712
 20
4.04252555572863
 10
88.07874015748031
 20
4.015748031496063
  0
LWPOLYLINE
  5
EA
330
17
100
AcDbEntity
  8
Panel head - detail A
100
AcDbPolyline
 90
6
 70
0
 10
66.06299212598425
 20
0.4724409448818889
 10
78.4251968503937
 20
0.4724409448818889
 10
78.74015748031496
 20
0.9448818897637796
 10
79.05511811023622
 20
0.0
 10
79.37007874015748
 20
0.4724409448818889
 10
91.73228346456693
 20
0.4724409448818889
  0
TEXT
  5
EB
330
17
100
AcDbEntity
  8
LABELS
100
AcDbText
 10
66.06299212598425
 20
11.299212598425196
 30
0.0
 40
0.7086614173228346
  1
PANEL HEAD - DETAIL A  (1:1, inches)
 11
66.06299212598425
 21
11.299212598425196
 31
0.0
100
AcDbText
  0
POLYLINE
  5
EE
330
17
100
AcDbEntity
  8
Section B-B
100
AcDb2dPolyline
 66
1
 10
0.0
 20
0.0
 30
0.0
 70
0
  0
VERTEX
  5
EF
330
EE
100
AcDbEntity
  8
Section B-B
100
AcDbVertex
100
AcDb2dVertex
 10
101.5748031496063
 20
1.7716535433070866
 30
0.0
 70
0
  0
VERTEX
  5
F0
330
EE
100
AcDbEntity
  8
Section B-B
100
AcDbVertex
100
AcDb2dVertex
 10
104.72440944881889
 20
1.7716535433070866
 30
0.0
 70
0
  0
VERTEX
  5
F1
330
EE
100
AcDbEntity
  8
Section B-B
100
AcDbVertex
100
AcDb2dVertex
 10
104.72440944881889
 20
1.6929133858267715
 30
0.0
 70
0
  0
SEQEND
  5
F2
330
EE
100
AcDbEntity
  8
Section B-B
  0
SPLINE
  5
F3
330
17
100
AcDbEntity
  8
Section B-B
100
AcDbSpline
 70
0
 71
3
 72
8
 73
4
 74
0
 40
0.0
 40
0.0
 40
0.0
 40
0.0
 40
1.0
 40
1.0
 40
1.0
 40
1.0
 10
104.72440944881889
 20
1.6929133858267715
 30
0.0
 10
105.249343832021
 20
1.6929133858267715
 30
0.0
 10
105.51181102362204
 20
1.5419947506561678
 30
0.0
 10
105.51181102362204
 20
1.2401574803149606
 30
0.0
  0
POLYLINE
  5
F4
330
17
100
AcDbEntity
  8
Section B-B
100
AcDb2dPolyline
 66
1
 10
0.0
 20
0.0
 30
0.0
 70
0
  0
VERTEX
  5
F5
330
F4
100
AcDbEntity
  8
Section B-B
100
AcDbVertex
100
AcDb2dVertex
 10
105.51181102362204
 20
1.2401574803149606
 30
0.0
 70
0
  0
VERTEX
  5
F6
330
F4
100
AcDbEntity
  8
Section B-B
100
AcDbVertex
100
AcDb2dVertex
 10
105.51181102362204
 20
0.5314960629921259
 30
0.0
 70
0
  0
SEQEND
  5
F7
330
F4
100
AcDbEntity
  8
Section B-B
  0
SPLINE
  5
F8
330
17
100
AcDbEntity
  8
Section B-B
100
AcDbSpline
 70
0
 71
3
 72
8
 73
4
 74
0
 40
0.0
 40
0.0
 40
0.0
 40
0.0
 40
1.0
 40
1.0
 40
1.0
 40
1.0
 10
105.51181102362204
 20
0.5314960629921259
 30
0.0
 10
105.51181102362204
 20
0.2296587926509187
 30
0.0
 10
105.249343832021
 20
0.07874015748031504
 30
0.0
 10
104.72440944881889
 20
0.07874015748031504
 30
0.0
  0
POLYLINE
  5
F9
330
17
100
AcDbEntity
  8
Section B-B
100
AcDb2dPolyline
 66
1
 10
0.0
 20
0.0
 30
0.0
 70
0
  0
VERTEX
  5
FA
330
F9
100
AcDbEntity
  8
Section B-B
100
AcDbVertex
100
AcDb2dVertex
 10
104.72440944881889
 20
0.07874015748031504
 30
0.0
 70
0
  0
VERTEX
  5
FB
330
F9
100
AcDbEntity
  8
Section B-B
100
AcDbVertex
100
AcDb2dVertex
 10
104.72440944881889
 20
0.0
 30
0.0
 70
0
  0
VERTEX
  5
FC
330
F9
100
AcDbEntity
  8
Section B-B
100
AcDbVertex
100
AcDb2dVertex
 10
101.5748031496063
 20
0.0
 30
0.0
 70
0
  0
VERTEX
  5
FD
330
F9
100
AcDbEntity
  8
Section B-B
100
AcDbVertex
100
AcDb2dVertex
 10
101.5748031496063
 20
1.7716535433070866
 30
0.0
 70
0
  0
SEQEND
  5
FE
330
F9
100
AcDbEntity
  8
Section B-B
  0
LWPOLYLINE
  5
FF
330
17
100
AcDbEntity
  8
Section B-B
  6
DASHED
100
AcDbPolyline
 90
5
 70
0
 10
105.51181102362204
 20
1.2401574803149606
 10
105.98425196850394
 20
1.2401574803149606
 10
105.98425196850394
 20
0.5314960629921259
 10
105.51181102362204
 20
0.5314960629921259
 10
105.51181102362204
 20
1.2401574803149606
  0
POLYLINE
  5
100
330
17
100
AcDbEntity
  8
Section B-B
100
AcDb2dPolyline
 66
1
 10
0.0
 20
0.0
 30
0.0
 70
0
  0
VERTEX
  5
101
330
100
100
AcDbEntity
  8
Section B-B
100
AcDbVertex
100
AcDb2dVertex
 10
131.57480314960628
 20
1.7716535433070866
 30
0.0
 70
0
  0
VERTEX
  5
102
330
100
100
AcDbEntity
  8
Section B-B
100
AcDbVertex
100
AcDb2dVertex
 10
128.4251968503937
 20
1.7716535433070866
 30
0.0
 70
0
  0
VERTEX
  5
103
330
100
100
AcDbEntity
  8
Section B-B
100
AcDbVertex
100
AcDb2dVertex
 10
128.4251968503937
 20
1.6929133858267715
 30
0.0
 70
0
  0
SEQEND
  5
104
330
100
100
AcDbEntity
  8
Section B-B
  0
SPLINE
  5
105
330
17
100
AcDbEntity
  8
Section B-B
100
AcDbSpline
 70
0
 71
3
 72
8
 73
4
 74
0
 40
0.0
 40
0.0
 40
0.0
 40
0.0
 40
1.0
 40
1.0
 40
1.0
 40
1.0
 10
128.4251968503937
 20
1.6929133858267715
 30
0.0
 10
127.9002624671916
 20
1.6929133858267715
 30
0.0
 10
127.63779527559055
 20
1.5419947506561678
 30
0.0
 10
127.63779527559055
 20
1.2401574803149606
 30
0.0
  0
POLYLINE
  5
106
330
17
100
AcDbEntity
  8
Section B-B
100
AcDb2dPolyline
 66
1
 10
0.0
 20
0.0
 30
0.0
 70
0
  0
VERTEX
  5
107
330
106
100
AcDbEntity
  8
Section B-B
100
AcDbVertex
100
AcDb2dVertex
 10
127.63779527559055
 20
1.2401574803149606
 30
0.0
 70
0
  0
VERTEX
  5
108
330
106
100
AcDbEntity
  8
Section B-B
100
AcDbVertex
100
AcDb2dVertex
 10
127.63779527559055
 20
0.5314960629921259
 30
0.0
 70
0
  0
SEQEND
  5
109
330
106
100
AcDbEntity
  8
Section B-B
  0
SPLINE
  5
10A
330
17
100
AcDbEntity
  8
Section B-B
100
AcDbSpline
 70
0
 71
3
 72
8
 73
4
 74
0
 40
0.0
 40
0.0
 40
0.0
 40
0.0
 40
1.0
 40
1.0
 40
1.0
 40
1.0
 10
127.63779527559055
 20
0.5314960629921259
 30
0.0
 10
127.63779527559055
 20
0.2296587926509187
 30
0.0
 10
127.9002624671916
 20
0.07874015748031504
 30
0.0
 10
128.4251968503937
 20
0.07874015748031504
 30
0.0
  0
POLYLINE
  5
10B
330
17
100
AcDbEntity
  8
Section B-B
100
AcDb2dPolyline
 66
1
 10
0.0
 20
0.0
 30
0.0
 70
0
  0
VERTEX
  5
10C
330
10B
100
AcDbEntity
  8
Section B-B
100
AcDbVertex
100
AcDb2dVertex
 10
128.4251968503937
 20
0.07874015748031504
 30
0.0
 70
0
  0
VERTEX
  5
10D
330
10B
100
AcDbEntity
  8
Section B-B
100
AcDbVertex
100
AcDb2dVertex
 10
128.4251968503937
 20
0.0
 30
0.0
 70
0
  0
VERTEX
  5
10E
330
10B
100
AcDbEntity
  8
Section B-B
100
AcDbVertex
100
AcDb2dVertex
 10
131.57480314960628
 20
0.0
 30
0.0
 70
0
  0
VERTEX
  5
10F
330
10B
100
AcDbEntity
  8
Section B-B
100
AcDbVertex
100
AcDb2dVertex
 10
131.57480314960628
 20
1.7716535433070866
 30
0.0
 70
0
  0
SEQEND
  5
110
330
10B
100
AcDbEntity
  8
Section B-B
  0
LWPOLYLINE
  5
111
330
17
100
AcDbEntity
  8
Section B-B
  6
DASHED
100
AcDbPolyline
 90
5
 70
0
 10
127.16535433070865
 20
1.2401574803149606
 10
127.63779527559055
 20
1.2401574803149606
 10
127.63779527559055
 20
0.5314960629921259
 10
127.16535433070865
 20
0.5314960629921259
 10
127.16535433070865
 20
1.2401574803149606
  0
LWPOLYLINE
  5
112
330
17
100
AcDbEntity
  8
Section B-B
100
AcDbPolyline
 90
5
 70
0
 10
105.55118110236221
 20
1.2401574803149606
 10
127.59842519685039
 20
1.2401574803149606
 10
127.59842519685039
 20
0.5314960629921259
 10
105.55118110236221
 20
0.5314960629921259
 10
105.55118110236221
 20
1.2401574803149606
  0
LWPOLYLINE
  5
113
330
17
100
AcDbEntity
  8
Section B-B
100
AcDbPolyline
 90
3
 70
0
 10
107.36220472440945
 20
1.2401574803149606
 10
107.48031496062993
 20
1.141732283464567
 10
107.59842519685039
 20
1.2401574803149606
  0
LWPOLYLINE
  5
114
330
17
100
AcDbEntity
  8
Section B-B
100
AcDbPolyline
 90
3
 70
0
 10
125.5511811023622
 20
1.2401574803149606
 10
125.66929133858267
 20
1.141732283464567
 10
125.78740157480314
 20
1.2401574803149606
  0
TEXT
  5
115
330
17
100
AcDbEntity
  8
LABELS
100
AcDbText
 10
101.5748031496063
 20
4.133858267716535
 30
0.0
 40
0.7086614173228346
  1
SECTION B-B  (1:1, inches)
 11
101.5748031496063
 21
4.133858267716535
 31
0.0
100
AcDbText
  0
LWPOLYLINE
  5
118
330
17
100
AcDbEntity
  8
Lock rail - detail C
100
AcDbPolyline
 90
2
 70
0
 10
171.81102362204723
 20
13.779527559055119
 10
171.81102362204723
 20
0.0
  0
LWPOLYLINE
  5
119
330
17
100
AcDbEntity
  8
Lock rail - detail C
100
AcDbPolyline
 90
2
 70
0
 10
141.81102362204723
 20
0.0
 10
141.81102362204723
 20
13.779527559055119
  0
LWPOLYLINE
  5
11A
330
17
100
AcDbEntity
  8
Lock rail - detail C
100
AcDbPolyline
 90
2
 70
0
 10
145.748031496063
 20
11.417322834645669
 10
145.748031496063
 20
2.3622047244094486
  0
LWPOLYLINE
  5
11B
330
17
100
AcDbEntity
  8
Lock rail - detail C
100
AcDbPolyline
 90
2
 70
0
 10
167.8740157480315
 20
11.417322834645669
 10
167.8740157480315
 20
2.3622047244094486
  0
LWPOLYLINE
  5
11C
330
17
100
AcDbEntity
  8
Lock rail - detail C
100
AcDbPolyline
 90
4
 70
0
 10
167.8740157480315
 20
13.779527559055119
 10
167.8740157480315
 20
11.417322834645669
 10
145.748031496063
 20
11.417322834645669
 10
145.748031496063
 20
13.779527559055119
  0
LWPOLYLINE
  5
11D
330
17
100
AcDbEntity
  8
Lock rail - detail C
100
AcDbPolyline
 90
4
 70
0
 10
167.08661417322836
 20
13.779527559055119
 10
167.08661417322836
 20
12.204724409448819
 10
146.53543307086613
 20
12.204724409448819
 10
146.53543307086613
 20
13.779527559055119
  0
LWPOLYLINE
  5
11E
330
17
100
AcDbEntity
  8
Lock rail - detail C
100
AcDbPolyline
 90
2
 70
0
 10
145.748031496063
 20
11.417322834645669
 10
146.53543307086613
 20
12.204724409448819
  0
LWPOLYLINE
  5
11F
330
17
100
AcDbEntity
  8
Lock rail - detail C
100
AcDbPolyline
 90
2
 70
0
 10
167.8740157480315
 20
11.417322834645669
 10
167.08661417322836
 20
12.204724409448819
  0
LWPOLYLINE
  5
120
330
17
100
AcDbEntity
  8
Lock rail - detail C
100
AcDbPolyline
 90
23
 70
0
 10
160.1809988416216
 20
13.779527559055119
 10
160.0235182394193
 20
13.7328140378937
 10
159.80050990788018
 20
13.674282764825294
 10
159.56092519685038
 20
13.619586614173228
 10
159.30279348778913
 20
13.569273460568406
 10
159.0241441621555
 20
13.523891178641732
 10
158.7230066014087
 20
13.483987643024115
 10
158.3974101870079
 20
13.450110728346457
 10
158.04538430041217
 20
13.422808309239665
 10
157.6649583230807
 20
13.402628260334646
 10
157.2541616364727
 20
13.390118456262304
 10
156.81102362204723
 20
13.385826771653543
 10
156.3678856076218
 20
13.390118456262304
 10
155.95708892101376
 20
13.402628260334646
 10
155.57666294368232
 20
13.422808309239665
 10
155.2246370570866
 20
13.450110728346457
 10
154.89904064268578
 20
13.483987643024115
 10
154.59790308193897
 20
13.523891178641732
 10
154.31925375630536
 20
13.569273460568406
 10
154.0611220472441
 20
13.619586614173228
 10
153.8215373362143
 20
13.674282764825294
 10
153.59852900467519
 20
13.7328140378937
 10
153.4410484024729
 20
13.779527559055119
  0
LWPOLYLINE
  5
121
330
17
100
AcDbEntity
  8
Lock rail - detail C
100
AcDbPolyline
 90
3
 70
0
 10
145.748031496063
 20
2.3622047244094486
 10
167.8740157480315
 20
2.3622047244094486
 10
167.8740157480315
 20
0.0
  0
LWPOLYLINE
  5
122
330
17
100
AcDbEntity
  8
Lock rail - detail C
100
AcDbPolyline
 90
2
 70
0
 10
145.748031496063
 20
0.0
 10
145.748031496063
 20
2.3622047244094486
  0
LWPOLYLINE
  5
123
330
17
100
AcDbEntity
  8
Lock rail - detail C
100
AcDbPolyline
 90
3
 70
0
 10
146.53543307086613
 20
1.574803149606299
 10
167.08661417322836
 20
1.574803149606299
 10
167.08661417322836
 20
0.0
  0
LWPOLYLINE
  5
124
330
17
100
AcDbEntity
  8
Lock rail - detail C
100
AcDbPolyline
 90
2
 70
0
 10
146.53543307086613
 20
0.0
 10
146.53543307086613
 20
1.574803149606299
  0
LWPOLYLINE
  5
125
330
17
100
AcDbEntity
  8
Lock rail - detail C
100
AcDbPolyline
 90
2
 70
0
 10
145.748031496063
 20
2.3622047244094486
 10
146.53543307086613
 20
1.574803149606299
  0
LWPOLYLINE
  5
126
330
17
100
AcDbEntity
  8
Lock rail - detail C
100
AcDbPolyline
 90
2
 70
0
 10
167.8740157480315
 20
2.3622047244094486
 10
167.08661417322836
 20
1.574803149606299
  0
LWPOLYLINE
  5
127
330
17
100
AcDbEntity
  8
Lock rail - detail C
100
AcDbPolyline
 90
23
 70
0
 10
153.4410484024729
 20
0.0
 10
153.59852900467519
 20
0.046713521161417325
 10
153.8215373362143
 20
0.10524479422982283
 10
154.0611220472441
 20
0.15994094488188976
 10
154.31925375630536
 20
0.2102540984867126
 10
154.59790308193897
 20
0.2556363804133858
 10
154.89904064268578
 20
0.29553991603100394
 10
155.2246370570866
 20
0.3294168307086614
 10
155.57666294368232
 20
0.3567192498154528
 10
155.95708892101376
 20
0.37689929872047245
 10
156.3678856076218
 20
0.38940910279281493
 10
156.81102362204723
 20
0.39370078740157477
 10
157.2541616364727
 20
0.38940910279281493
 10
157.6649583230807
 20
0.37689929872047245
 10
158.04538430041217
 20
0.3567192498154528
 10
158.3974101870079
 20
0.3294168307086614
 10
158.7230066014087
 20
0.29553991603100394
 10
159.0241441621555
 20
0.2556363804133858
 10
159.30279348778913
 20
0.2102540984867126
 10
159.56092519685038
 20
0.15994094488188976
 10
159.80050990788018
 20
0.10524479422982283
 10
160.0235182394193
 20
0.046713521161417325
 10
160.1809988416216
 20
0.0
  0
LWPOLYLINE
  5
128
330
17
100
AcDbEntity
  8
Lock rail - detail C
100
AcDbPolyline
 90
49
 70
0
 10
148.01181102362204
 20
6.889763779527559
 10
148.00250863123497
 20
6.748151872528411
 10
147.9749170409182
 20
6.609547020278313
 10
147.9295096329383
 20
6.475715901983551
 10
147.8667597875619
 20
6.3484251968503935
 10
147.78789772593913
 20
6.230436884104297
 10
147.69470028166896
 20
6.124197356126319
 10
147.58846075369098
 20
6.030999911856125
 10
147.4704724409449
 20
5.952137850233379
 10
147.34318173581173
 20
5.889388004856977
 10
147.20935061751695
 20
5.843980596877073
 10
147.07074576526685
 20
5.816389006560289
 10
146.9291338582677
 20
5.807086614173229
 10
146.78752195126856
 20
5.816389006560289
 10
146.6489170990185
 20
5.843980596877073
 10
146.5150859807237
 20
5.889388004856977
 10
146.38779527559055
 20
5.952137850233379
 10
146.26980696284446
 20
6.030999911856125
 10
146.16356743486648
 20
6.124197356126319
 10
146.07036999059628
 20
6.230436884104297
 10
145.99150792897353
 20
6.3484251968503935
 10
145.92875808359713
 20
6.475715901983551
 10
145.88335067561724
 20
6.609547020278313
 10
145.85575908530043
 20
6.748151872528411
 10
145.8464566929134
 20
6.889763779527559
 10
145.85575908530043
 20
7.031375686526706
 10
145.88335067561724
 20
7.169980538776805
 10
145.92875808359713
 20
7.303811657071567
 10
145.99150792897353
 20
7.431102362204724
 10
146.07036999059628
 20
7.54909067495082
 10
146.16356743486648
 20
7.655330202928798
 10
146.26980696284446
 20
7.748527647198993
 10
146.38779527559055
 20
7.827389708821738
 10
146.5150859807237
 20
7.89013955419814
 10
146.6489170990185
 20
7.935546962178044
 10
146.78752195126856
 20
7.963138552494828
 10
146.9291338582677
 20
7.97244094488189
 10
147.07074576526688
 20
7.963138552494828
 10
147.20935061751695
 20
7.935546962178044
 10
147.34318173581173
 20
7.89013955419814
 10
147.4704724409449
 20
7.827389708821738
 10
147.58846075369098
 20
7.748527647198993
 10
147.69470028166896
 20
7.655330202928798
 10
147.78789772593913
 20
7.54909067495082
 10
147.8667597875619
 20
7.431102362204724
 10
147.9295096329383
 20
7.303811657071567
 10
147.9749170409182
 20
7.169980538776805
 10
148.00250863123497
 20
7.031375686526706
 10
148.01181102362204
 20
6.889763779527559
  0
LWPOLYLINE
  5
129
330
17
100
AcDbEntity
  8
Lock rail - detail C
100
AcDbPolyline
 90
49
 70
0
 10
147.61811023622047
 20
6.889763779527559
 10
147.61219053197416
 20
6.7996471114371895
 10
147.5946322472271
 20
6.711444023641681
 10
147.56573662396718
 20
6.626278766545007
 10
147.5258049041822
 20
6.545275590551181
 10
147.47561995587682
 20
6.470192118803672
 10
147.41631249134122
 20
6.402585146454045
 10
147.3487055189916
 20
6.343277681918461
 10
147.2736220472441
 20
6.293092733613081
 10
147.19261887125026
 20
6.2531610138281
 10
147.1074536141536
 20
6.224265390568157
 10
147.0192505263581
 20
6.2067071058211205
 10
146.9291338582677
 20
6.200787401574803
 10
146.83901719017734
 20
6.2067071058211205
 10
146.75081410238184
 20
6.224265390568157
 10
146.66564884528515
 20
6.2531610138281
 10
146.58464566929135
 20
6.293092733613081
 10
146.50956219754383
 20
6.343277681918461
 10
146.4419552251942
 20
6.402585146454045
 10
146.3826477606586
 20
6.470192118803672
 10
146.33246281235324
 20
6.545275590551181
 10
146.29253109256825
 20
6.626278766545007
 10
146.26363546930833
 20
6.711444023641681
 10
146.24607718456127
 20
6.7996471114371895
 10
146.24015748031496
 20
6.889763779527559
 10
146.24607718456127
 20
6.979880447617928
 10
146.26363546930833
 20
7.068083535413437
 10
146.29253109256825
 20
7.1532487925101105
 10
146.33246281235324
 20
7.234251968503937
 10
146.3826477606586
 20
7.309335440251446
 10
146.4419552251942
 20
7.376942412601073
 10
146.50956219754383
 20
7.436249877136658
 10
146.58464566929135
 20
7.486434825442037
 10
146.66564884528515
 20
7.526366545227018
 10
146.75081410238184
 20
7.55526216848696
 10
146.83901719017734
 20
7.572820453233997
 10
146.9291338582677
 20
7.578740157480315
 10
147.0192505263581
 20
7.572820453233997
 10
147.1074536141536
 20
7.55526216848696
 10
147.19261887125026
 20
7.526366545227018
 10
147.2736220472441
 20
7.486434825442037
 10
147.3487055189916
 20
7.436249877136658
 10
147.41631249134122
 20
7.376942412601073
 10
147.47561995587682
 20
7.309335440251446
 10
147.5258049041822
 20
7.234251968503937
 10
147.56573662396718
 20
7.1532487925101105
 10
147.5946322472271
 20
7.068083535413437
 10
147.61219053197416
 20
6.979880447617928
 10
147.61811023622047
 20
6.889763779527559
  0
LWPOLYLINE
  5
12A
330
17
100
AcDbEntity
  8
Lock rail - detail C
100
AcDbPolyline
 90
49
 70
0
 10
144.13385826771653
 20
6.889763779527559
 10
144.12810769787725
 20
6.802221873382629
 10
144.1110510784087
 20
6.716538873809845
 10
144.08298104438475
 20
6.633806909773083
 10
144.04419023087934
 20
6.55511811023622
 10
143.99543913823985
 20
6.482179880538637
 10
143.937826172691
 20
6.416504535970433
 10
143.87215082812278
 20
6.358891570421578
 10
143.79921259842519
 20
6.310140477782068
 10
143.72052379888834
 20
6.271349664276649
 10
143.63779183485158
 20
6.243279630252711
 10
143.55210883527877
 20
6.226223010784152
 10
143.46456692913387
 20
6.2204724409448815
 10
143.37702502298893
 20
6.226223010784152
 10
143.29134202341615
 20
6.243279630252711
 10
143.20861005937937
 20
6.271349664276649
 10
143.12992125984252
 20
6.310140477782068
 10
143.05698303014492
 20
6.358891570421578
 10
142.99130768557671
 20
6.416504535970433
 10
142.9336947200279
 20
6.482179880538637
 10
142.88494362738837
 20
6.55511811023622
 10
142.84615281388295
 20
6.633806909773083
 10
142.818082779859
 20
6.716538873809845
 10
142.80102616039045
 20
6.802221873382629
 10
142.79527559055117
 20
6.889763779527559
 10
142.80102616039045
 20
6.977305685672489
 10
142.818082779859
 20
7.062988685245273
 10
142.84615281388295
 20
7.145720649282034
 10
142.88494362738837
 20
7.224409448818897
 10
142.9336947200279
 20
7.297347678516481
 10
142.99130768557671
 20
7.3630230230846845
 10
143.05698303014492
 20
7.420635988633539
 10
143.12992125984252
 20
7.46938708127305
 10
143.20861005937937
 20
7.508177894778469
 10
143.29134202341615
 20
7.536247928802407
 10
143.37702502298893
 20
7.553304548270965
 10
143.46456692913387
 20
7.559055118110236
 10
143.55210883527877
 20
7.553304548270965
 10
143.63779183485158
 20
7.536247928802407
 10
143.72052379888834
 20
7.508177894778469
 10
143.79921259842519
 20
7.46938708127305
 10
143.87215082812278
 20
7.420635988633539
 10
143.937826172691
 20
7.3630230230846845
 10
143.99543913823985
 20
7.297347678516481
 10
144.04419023087934
 20
7.224409448818897
 10
144.08298104438475
 20
7.145720649282034
 10
144.1110510784087
 20
7.062988685245273
 10
144.12810769787725
 20
6.977305685672489
 10
144.13385826771653
 20
6.889763779527559
  0
LWPOLYLINE
  5
12B
330
17
100
AcDbEntity
  8
Lock rail - detail C
100
AcDbPolyline
 90
44
 70
0
 10
143.3464566929134
 20
6.929133858267717
 10
143.33140349753225
 20
6.944330411106716
 10
143.31833449294618
 20
6.961167417612348
 10
143.3073817085202
 20
6.979451842193377
 10
143.29867717361935
 20
6.998990649258571
 10
143.29239101678277
 20
7.019436141221283
 10
143.28862362596988
 20
7.040414473743293
 10
143.2874024196759
 20
7.061693391105992
 10
143.2887548163962
 20
7.083040637590788
 10
143.29267024152992
 20
7.104069269391114
 10
143.299064208506
 20
7.124401530830749
 10
143.3078532678643
 20
7.143818948386587
 10
143.31895397014458
 20
7.162103048535505
 10
143.33217745080142
 20
7.178915944439823
 10
143.34727362913915
 20
7.1939621754807295
 10
143.3640672314723
 20
7.207086907463398
 10
143.38238298411537
 20
7.218135306193039
 10
143.40189683274247
 20
7.226895649858129
 10
143.42225017263627
 20
7.233222199005034
 10
143.44321590452427
 20
7.2370590929757315
 10
143.46456692913387
 20
7.238350471112188
 10
143.48591795374347
 20
7.2370590929757315
 10
143.50688368563146
 20
7.233222199005034
 10
143.52723702552524
 20
7.226895649858129
 10
143.54675087415234
 20
7.218135306193039
 10
143.5650666267954
 20
7.207086907463398
 10
143.58186022912858
 20
7.193962175480721
 10
143.5969564074663
 20
7.178915944439814
 10
143.61017988812316
 20
7.162103048535496
 10
143.62128059040342
 20
7.143818948386578
 10
143.6300696497617
 20
7.12440153083074
 10
143.6364636167378
 20
7.104069269391105
 10
143.6403790418715
 20
7.083040637590779
 10
143.6417314385918
 20
7.061693391105983
 10
143.64051023229783
 20
7.040414473743284
 10
143.63674284148493
 20
7.0194361412212745
 10
143.63045668464838
 20
6.9989906492585625
 10
143.6217521497475
 20
6.9794518421933684
 10
143.61079936532153
 20
6.961167417612338
 10
143.59773036073548
 20
6.944330411106716
 10
143.58267716535434
 20
6.929133858267717
 10
143.64173228346456
 20
6.496062992125984
 10
143.28740157480314
 20
6.496062992125984
 10
143.3464566929134
 20
6.929133858267717
  0
TEXT
  5
12C
330
17
100
AcDbEntity
  8
LABELS
100
AcDbText
 10
141.41732283464566
 20
16.141732283464567
 30
0.0
 40
0.7086614173228346
  1
LOCK RAIL - DETAIL C  (1:1, inches)
 11
141.41732283464566
 21
16.141732283464567
 31
0.0
100
AcDbText
  0
TEXT
  5
12D
330
17
100
AcDbEntity
  8
LABELS
100
AcDbText
 10
0.0
 20
-8.661417322834646
 30
0.0
 40
1.574803149606299
  1
Doors D2 and D3 · AST-DR-009
 11
0.0
 21
-8.661417322834646
 31
0.0
100
AcDbText
  0
ENDSEC
  0
SECTION
  2
OBJECTS
  0
DICTIONARY
  5
A
330
0
100
AcDbDictionary
281
1
  3
ACAD_COLOR
350
B
  3
ACAD_GROUP
350
C
  3
ACAD_LAYOUT
350
D
  3
ACAD_MATERIAL
350
E
  3
ACAD_MLEADERSTYLE
350
F
  3
ACAD_MLINESTYLE
350
10
  3
ACAD_PLOTSETTINGS
350
11
  3
ACAD_PLOTSTYLENAME
350
12
  3
ACAD_SCALELIST
350
14
  3
ACAD_TABLESTYLE
350
15
  3
ACAD_VISUALSTYLE
350
16
  3
EZDXF_META
350
2D
  0
DICTIONARY
  5
B
330
A
100
AcDbDictionary
281
1
  0
DICTIONARY
  5
C
330
A
100
AcDbDictionary
281
1
  0
DICTIONARY
  5
D
330
A
100
AcDbDictionary
281
1
  3
Model
350
1A
  3
Layout1
350
1E
  0
DICTIONARY
  5
E
330
A
100
AcDbDictionary
281
1
  3
ByBlock
350
1F
  3
ByLayer
350
20
  3
Global
350
21
  0
DICTIONARY
  5
F
330
A
100
AcDbDictionary
281
1
  3
Standard
350
2C
  0
DICTIONARY
  5
10
330
A
100
AcDbDictionary
281
1
  3
Standard
350
22
  0
DICTIONARY
  5
11
330
A
100
AcDbDictionary
281
1
  0
ACDBDICTIONARYWDFLT
  5
12
330
A
100
AcDbDictionary
281
1
  3
Normal
350
13
100
AcDbDictionaryWithDefault
340
13
  0
ACDBPLACEHOLDER
  5
13
330
12
  0
DICTIONARY
  5
14
330
A
100
AcDbDictionary
281
1
  0
DICTIONARY
  5
15
330
A
100
AcDbDictionary
281
1
  0
DICTIONARY
  5
16
330
A
100
AcDbDictionary
281
1
  3
2dWireframe
350
5A
  3
Basic
350
5B
  3
Brighten
350
5C
  3
ColorChange
350
5D
  3
Conceptual
350
5E
  3
Dim
350
5F
  3
EdgeColorOff
350
60
  3
Facepattern
350
61
  3
Flat
350
62
  3
FlatWithEdges
350
63
  3
Gouraud
350
64
  3
GouraudWithEdges
350
65
  3
Hidden
350
66
  3
JitterOff
350
67
  3
Linepattern
350
68
  3
Modeling
350
69
  3
OverhangOff
350
6A
  3
Realistic
350
6B
  3
Shaded
350
6C
  3
Shaded with edges
350
6D
  3
Shades of Gray
350
6E
  3
Sketchy
350
6F
  3
Thicken
350
70
  3
Wireframe
350
71
  3
X-Ray
350
72
  0
LAYOUT
  5
1A
330
D
100
AcDbPlotSettings
  1

  4
A3
  6

 40
7.5
 41
20.0
 42
7.5
 43
20.0
 44
420.0
 45
297.0
 46
0.0
 47
0.0
 48
0.0
 49
0.0
140
0.0
141
0.0
142
1.0
143
1.0
 70
1024
 72
1
 73
0
 74
5
  7

 75
16
 76
0
 77
2
 78
300
147
1.0
148
0.0
149
0.0
100
AcDbLayout
  1
Model
 70
1
 71
0
 10
0.0
 20
0.0
 11
420.0
 21
297.0
 12
0.0
 22
0.0
 32
0.0
 14
1e+20
 24
1e+20
 34
1e+20
 15
-1e+20
 25
-1e+20
 35
-1e+20
146
0.0
 13
0.0
 23
0.0
 33
0.0
 16
1.0
 26
0.0
 36
0.0
 17
0.0
 27
1.0
 37
0.0
 76
1
330
17
  0
LAYOUT
  5
1E
330
D
100
AcDbPlotSettings
  1

  4
A3
  6

 40
7.5
 41
20.0
 42
7.5
 43
20.0
 44
420.0
 45
297.0
 46
0.0
 47
0.0
 48
0.0
 49
0.0
140
0.0
141
0.0
142
1.0
143
1.0
 70
0
 72
1
 73
0
 74
5
  7

 75
16
 76
0
 77
2
 78
300
147
1.0
148
0.0
149
0.0
100
AcDbLayout
  1
Layout1
 70
1
 71
1
 10
0.0
 20
0.0
 11
420.0
 21
297.0
 12
0.0
 22
0.0
 32
0.0
 14
1e+20
 24
1e+20
 34
1e+20
 15
-1e+20
 25
-1e+20
 35
-1e+20
146
0.0
 13
0.0
 23
0.0
 33
0.0
 16
1.0
 26
0.0
 36
0.0
 17
0.0
 27
1.0
 37
0.0
 76
1
330
1B
  0
MATERIAL
  5
1F
102
{ACAD_REACTORS
330
E
102
}
330
E
100
AcDbMaterial
  1
ByBlock
  2

 70
0
 40
1.0
 71
1
 41
1.0
 91
-1023410177
 42
1.0
 72
1
  3

 73
1
 74
1
 75
1
 44
0.5
 73
0
 45
1.0
 46
1.0
 77
1
  4

 78
1
 79
1
170
1
 48
1.0
171
1
  6

172
1
173
1
174
1
140
1.0
141
1.0
175
1
  7

176
1
177
1
178
1
143
1.0
179
1
  8

270
1
271
1
272
1
145
1.0
146
1.0
273
1
  9

274
1
275
1
276
1
 42
1.0
 72
1
  3

 73
1
 74
1
 75
1
 94
63
  0
MATERIAL
  5
20
102
{ACAD_REACTORS
330
E
102
}
330
E
100
AcDbMaterial
  1
ByLayer
  2

 70
0
 40
1.0
 71
1
 41
1.0
 91
-1023410177
 42
1.0
 72
1
  3

 73
1
 74
1
 75
1
 44
0.5
 73
0
 45
1.0
 46
1.0
 77
1
  4

 78
1
 79
1
170
1
 48
1.0
171
1
  6

172
1
173
1
174
1
140
1.0
141
1.0
175
1
  7

176
1
177
1
178
1
143
1.0
179
1
  8

270
1
271
1
272
1
145
1.0
146
1.0
273
1
  9

274
1
275
1
276
1
 42
1.0
 72
1
  3

 73
1
 74
1
 75
1
 94
63
  0
MATERIAL
  5
21
102
{ACAD_REACTORS
330
E
102
}
330
E
100
AcDbMaterial
  1
Global
  2

 70
0
 40
1.0
 71
1
 41
1.0
 91
-1023410177
 42
1.0
 72
1
  3

 73
1
 74
1
 75
1
 44
0.5
 73
0
 45
1.0
 46
1.0
 77
1
  4

 78
1
 79
1
170
1
 48
1.0
171
1
  6

172
1
173
1
174
1
140
1.0
141
1.0
175
1
  7

176
1
177
1
178
1
143
1.0
179
1
  8

270
1
271
1
272
1
145
1.0
146
1.0
273
1
  9

274
1
275
1
276
1
 42
1.0
 72
1
  3

 73
1
 74
1
 75
1
 94
63
  0
MLINESTYLE
  5
22
102
{ACAD_REACTORS
330
10
102
}
330
10
100
AcDbMlineStyle
  2
Standard
 70
0
  3

 62
256
 51
90.0
 52
90.0
 71
2
 49
0.5
 62
256
  6
BYLAYER
 49
-0.5
 62
256
  6
BYLAYER
  0
MLEADERSTYLE
  5
2C
102
{ACAD_REACTORS
330
F
102
}
330
F
100
AcDbMLeaderStyle
179
2
170
2
171
1
172
0
 90
2
 40
0.0
 41
0.0
173
1
 91
-1056964608
 92
-2
290
1
 42
2.0
291
1
 43
8.0
  3
Standard
 44
4.0
300

342
29
174
1
175
1
176
0
178
1
 93
-1056964608
 45
4.0
292
0
297
0
 46
4.0
 94
-1056964608
 47
1.0
 49
1.0
140
1.0
294
1
141
0.0
177
0
142
1.0
295
0
296
0
143
3.75
271
0
272
9
273
9
  0
DICTIONARY
  5
2D
330
A
100
AcDbDictionary
280
1
281
1
  3
CREATED_BY_EZDXF
350
2E
  3
WRITTEN_BY_EZDXF
350
130
  0
DICTIONARYVAR
  5
2E
330
2D
100
DictionaryVariables
280
0
  1
1.4.2 @ 2026-09-23T06:08:59.332170+00:00
  0
VISUALSTYLE
  5
5A
102
{ACAD_REACTORS
330
16
102
}
330
16
100
AcDbVisualStyle
  2
2dWireframe
 70
4
 90
0
 40
0.6
 62
7
290
0
291
0
  0
VISUALSTYLE
  5
5B
102
{ACAD_REACTORS
330
16
102
}
330
16
100
AcDbVisualStyle
  2
Basic
 70
7
 90
1
 40
0.6
 62
7
290
0
291
1
  0
VISUALSTYLE
  5
5C
102
{ACAD_REACTORS
330
16
102
}
330
16
100
AcDbVisualStyle
  2
Brighten
 70
12
 90
2
 40
0.6
 62
7
290
0
291
1
  0
VISUALSTYLE
  5
5D
102
{ACAD_REACTORS
330
16
102
}
330
16
100
AcDbVisualStyle
  2
ColorChange
 70
16
 90
2
 40
0.6
 62
8
290
0
291
1
  0
VISUALSTYLE
  5
5E
102
{ACAD_REACTORS
330
16
102
}
330
16
100
AcDbVisualStyle
  2
Conceptual
 70
9
 90
3
 40
0.6
 62
7
290
0
291
0
  0
VISUALSTYLE
  5
5F
102
{ACAD_REACTORS
330
16
102
}
330
16
100
AcDbVisualStyle
  2
Dim
 70
11
 90
2
 40
0.6
 62
7
290
0
291
1
  0
VISUALSTYLE
  5
60
102
{ACAD_REACTORS
330
16
102
}
330
16
100
AcDbVisualStyle
  2
EdgeColorOff
 70
22
 90
2
 40
0.6
 62
7
290
0
291
1
  0
VISUALSTYLE
  5
61
102
{ACAD_REACTORS
330
16
102
}
330
16
100
AcDbVisualStyle
  2
Facepattern
 70
15
 90
2
 40
0.6
 62
7
290
0
291
1
  0
VISUALSTYLE
  5
62
102
{ACAD_REACTORS
330
16
102
}
330
16
100
AcDbVisualStyle
  2
Flat
 70
0
 90
2
 40
0.6
 62
7
290
0
291
1
  0
VISUALSTYLE
  5
63
102
{ACAD_REACTORS
330
16
102
}
330
16
100
AcDbVisualStyle
  2
FlatWithEdges
 70
1
 90
2
 40
0.6
 62
7
290
0
291
1
  0
VISUALSTYLE
  5
64
102
{ACAD_REACTORS
330
16
102
}
330
16
100
AcDbVisualStyle
  2
Gouraud
 70
2
 90
2
 40
0.6
 62
7
290
0
291
1
  0
VISUALSTYLE
  5
65
102
{ACAD_REACTORS
330
16
102
}
330
16
100
AcDbVisualStyle
  2
GouraudWithEdges
 70
3
 90
2
 40
0.6
 62
7
290
0
291
1
  0
VISUALSTYLE
  5
66
102
{ACAD_REACTORS
330
16
102
}
330
16
100
AcDbVisualStyle
  2
Hidden
 70
6
 90
1
 40
0.6
 62
7
290
0
291
0
  0
VISUALSTYLE
  5
67
102
{ACAD_REACTORS
330
16
102
}
330
16
100
AcDbVisualStyle
  2
JitterOff
 70
20
 90
2
 40
0.6
 62
7
290
0
291
1
  0
VISUALSTYLE
  5
68
102
{ACAD_REACTORS
330
16
102
}
330
16
100
AcDbVisualStyle
  2
Linepattern
 70
14
 90
2
 40
0.6
 62
7
290
0
291
1
  0
VISUALSTYLE
  5
69
102
{ACAD_REACTORS
330
16
102
}
330
16
100
AcDbVisualStyle
  2
Modeling
 70
10
 90
2
 40
0.6
 62
7
290
0
291
0
  0
VISUALSTYLE
  5
6A
102
{ACAD_REACTORS
330
16
102
}
330
16
100
AcDbVisualStyle
  2
OverhangOff
 70
21
 90
2
 40
0.6
 62
7
290
0
291
1
  0
VISUALSTYLE
  5
6B
102
{ACAD_REACTORS
330
16
102
}
330
16
100
AcDbVisualStyle
  2
Realistic
 70
8
 90
2
 40
0.6
 62
7
290
0
291
0
  0
VISUALSTYLE
  5
6C
102
{ACAD_REACTORS
330
16
102
}
330
16
100
AcDbVisualStyle
  2
Shaded
 70
27
 90
2
 40
0.6
 62
7
290
0
291
0
  0
VISUALSTYLE
  5
6D
102
{ACAD_REACTORS
330
16
102
}
330
16
100
AcDbVisualStyle
  2
Shaded with edges
 70
26
 90
2
 40
0.6
 62
7
290
0
291
0
  0
VISUALSTYLE
  5
6E
102
{ACAD_REACTORS
330
16
102
}
330
16
100
AcDbVisualStyle
  2
Shades of Gray
 70
23
 90
2
 40
0.6
 62
7
290
0
291
0
  0
VISUALSTYLE
  5
6F
102
{ACAD_REACTORS
330
16
102
}
330
16
100
AcDbVisualStyle
  2
Sketchy
 70
24
 90
1
 40
0.6
 62
7
290
0
291
0
  0
VISUALSTYLE
  5
70
102
{ACAD_REACTORS
330
16
102
}
330
16
100
AcDbVisualStyle
  2
Thicken
 70
13
 90
2
 40
0.6
 62
7
290
0
291
1
  0
VISUALSTYLE
  5
71
102
{ACAD_REACTORS
330
16
102
}
330
16
100
AcDbVisualStyle
  2
Wireframe
 70
5
 90
0
 40
0.6
 62
7
290
0
291
0
  0
VISUALSTYLE
  5
72
102
{ACAD_REACTORS
330
16
102
}
330
16
100
AcDbVisualStyle
  2
X-Ray
 70
25
 90
2
 40
0.5
 62
7
290
0
291
0
  0
DICTIONARYVAR
  5
130
330
2D
100
DictionaryVariables
280
0
  1
1.4.2 @ 2026-09-23T06:08:59.376818+00:00
  0
ENDSEC
  0
EOF
