  0
SECTION
  2
HEADER
  9
$ACADVER
  1
AC1024
  9
$ACADMAINTVER
 70
6
  9
$DWGCODEPAGE
  3
ANSI_1252
  9
$LASTSAVEDBY
  1
ezdxf
  9
$INSBASE
 10
0.0
 20
0.0
 30
0.0
  9
$EXTMIN
 10
1e+20
 20
1e+20
 30
1e+20
  9
$EXTMAX
 10
-1e+20
 20
-1e+20
 30
-1e+20
  9
$LIMMIN
 10
0.0
 20
0.0
  9
$LIMMAX
 10
420.0
 20
297.0
  9
$ORTHOMODE
 70
0
  9
$REGENMODE
 70
1
  9
$FILLMODE
 70
1
  9
$QTEXTMODE
 70
0
  9
$MIRRTEXT
 70
1
  9
$LTSCALE
 40
1.0
  9
$ATTMODE
 70
1
  9
$TEXTSIZE
 40
2.5
  9
$TRACEWID
 40
1.0
  9
$TEXTSTYLE
  7
OpenSans
  9
$CLAYER
  8
0
  9
$CELTYPE
  6
ByLayer
  9
$CECOLOR
 62
256
  9
$CELTSCALE
 40
1.0
  9
$DISPSILH
 70
0
  9
$DIMSCALE
 40
1.0
  9
$DIMASZ
 40
0.175
  9
$DIMEXO
 40
0.125
  9
$DIMDLI
 40
3.75
  9
$DIMRND
 40
0.0
  9
$DIMDLE
 40
0.0
  9
$DIMEXE
 40
0.375
  9
$DIMTP
 40
0.0
  9
$DIMTM
 40
0.0
  9
$DIMTXT
 40
0.25
  9
$DIMCEN
 40
2.5
  9
$DIMTSZ
 40
0.0
  9
$DIMTOL
 70
0
  9
$DIMLIM
 70
0
  9
$DIMTIH
 70
0
  9
$DIMTOH
 70
0
  9
$DIMSE1
 70
0
  9
$DIMSE2
 70
0
  9
$DIMTAD
 70
1
  9
$DIMZIN
 70
12
  9
$DIMBLK
  1
ARCHTICK
  9
$DIMASO
 70
1
  9
$DIMSHO
 70
1
  9
$DIMPOST
  1

  9
$DIMAPOST
  1

  9
$DIMALT
 70
0
  9
$DIMALTD
 70
3
  9
$DIMALTF
 40
0.03937007874
  9
$DIMLFAC
 40
100.0
  9
$DIMTOFL
 70
1
  9
$DIMTVP
 40
0.0
  9
$DIMTIX
 70
0
  9
$DIMSOXD
 70
0
  9
$DIMSAH
 70
0
  9
$DIMBLK1
  1

  9
$DIMBLK2
  1

  9
$DIMSTYLE
  2
EZDXF
  9
$DIMCLRD
 70
0
  9
$DIMCLRE
 70
0
  9
$DIMCLRT
 70
0
  9
$DIMTFAC
 40
0.5
  9
$DIMGAP
 40
0.1
  9
$DIMJUST
 70
0
  9
$DIMSD1
 70
0
  9
$DIMSD2
 70
0
  9
$DIMTOLJ
 70
0
  9
$DIMTZIN
 70
8
  9
$DIMALTZ
 70
0
  9
$DIMALTTZ
 70
0
  9
$DIMUPT
 70
1
  9
$DIMDEC
 70
2
  9
$DIMTDEC
 70
2
  9
$DIMALTU
 70
2
  9
$DIMALTTD
 70
3
  9
$DIMTXSTY
  7
OpenSansCondensed-Light
  9
$DIMAUNIT
 70
0
  9
$DIMADEC
 70
2
  9
$DIMALTRND
 40
0.0
  9
$DIMAZIN
 70
3
  9
$DIMDSEP
 70
46
  9
$DIMATFIT
 70
3
  9
$DIMFRAC
 70
0
  9
$DIMLDRBLK
  1

  9
$DIMLUNIT
 70
2
  9
$DIMLWD
 70
-2
  9
$DIMLWE
 70
-2
  9
$DIMTMOVE
 70
2
  9
$DIMFXL
 40
1.0
  9
$DIMFXLON
 70
0
  9
$DIMJOGANG
 40
0.785398163397
  9
$DIMTFILL
 70
0
  9
$DIMTFILLCLR
 70
0
  9
$DIMARCSYM
 70
0
  9
$DIMLTYPE
  6

  9
$DIMLTEX1
  6

  9
$DIMLTEX2
  6

  9
$DIMTXTDIRECTION
 70
0
  9
$LUNITS
 70
4
  9
$LUPREC
 70
4
  9
$SKETCHINC
 40
1.0
  9
$FILLETRAD
 40
10.0
  9
$AUNITS
 70
0
  9
$AUPREC
 70
3
  9
$MENU
  1
.
  9
$ELEVATION
 40
0.0
  9
$PELEVATION
 40
0.0
  9
$THICKNESS
 40
0.0
  9
$LIMCHECK
 70
0
  9
$CHAMFERA
 40
0.0
  9
$CHAMFERB
 40
0.0
  9
$CHAMFERC
 40
0.0
  9
$CHAMFERD
 40
0.0
  9
$SKPOLY
 70
0
  9
$TDCREATE
 40
2461302.6519791665
  9
$TDUCREATE
 40
2458532.153996898
  9
$TDUPDATE
 40
2461302.6519791665
  9
$TDUUPDATE
 40
2458532.1544311
  9
$TDINDWG
 40
0.0
  9
$TDUSRTIMER
 40
0.0
  9
$USRTIMER
 70
1
  9
$ANGBASE
 50
0.0
  9
$ANGDIR
 70
0
  9
$PDMODE
 70
0
  9
$PDSIZE
 40
0.0
  9
$PLINEWID
 40
0.0
  9
$SPLFRAME
 70
0
  9
$SPLINETYPE
 70
6
  9
$SPLINESEGS
 70
8
  9
$HANDSEED
  5
130
  9
$SURFTAB1
 70
6
  9
$SURFTAB2
 70
6
  9
$SURFTYPE
 70
6
  9
$SURFU
 70
6
  9
$SURFV
 70
6
  9
$UCSBASE
  2

  9
$UCSNAME
  2

  9
$UCSORG
 10
0.0
 20
0.0
 30
0.0
  9
$UCSXDIR
 10
1.0
 20
0.0
 30
0.0
  9
$UCSYDIR
 10
0.0
 20
1.0
 30
0.0
  9
$UCSORTHOREF
  2

  9
$UCSORTHOVIEW
 70
0
  9
$UCSORGTOP
 10
0.0
 20
0.0
 30
0.0
  9
$UCSORGBOTTOM
 10
0.0
 20
0.0
 30
0.0
  9
$UCSORGLEFT
 10
0.0
 20
0.0
 30
0.0
  9
$UCSORGRIGHT
 10
0.0
 20
0.0
 30
0.0
  9
$UCSORGFRONT
 10
0.0
 20
0.0
 30
0.0
  9
$UCSORGBACK
 10
0.0
 20
0.0
 30
0.0
  9
$PUCSBASE
  2

  9
$PUCSNAME
  2

  9
$PUCSORG
 10
0.0
 20
0.0
 30
0.0
  9
$PUCSXDIR
 10
1.0
 20
0.0
 30
0.0
  9
$PUCSYDIR
 10
0.0
 20
1.0
 30
0.0
  9
$PUCSORTHOREF
  2

  9
$PUCSORTHOVIEW
 70
0
  9
$PUCSORGTOP
 10
0.0
 20
0.0
 30
0.0
  9
$PUCSORGBOTTOM
 10
0.0
 20
0.0
 30
0.0
  9
$PUCSORGLEFT
 10
0.0
 20
0.0
 30
0.0
  9
$PUCSORGRIGHT
 10
0.0
 20
0.0
 30
0.0
  9
$PUCSORGFRONT
 10
0.0
 20
0.0
 30
0.0
  9
$PUCSORGBACK
 10
0.0
 20
0.0
 30
0.0
  9
$USERI1
 70
0
  9
$USERI2
 70
0
  9
$USERI3
 70
0
  9
$USERI4
 70
0
  9
$USERI5
 70
0
  9
$USERR1
 40
0.0
  9
$USERR2
 40
0.0
  9
$USERR3
 40
0.0
  9
$USERR4
 40
0.0
  9
$USERR5
 40
0.0
  9
$WORLDVIEW
 70
1
  9
$SHADEDGE
 70
3
  9
$SHADEDIF
 70
70
  9
$TILEMODE
 70
1
  9
$MAXACTVP
 70
64
  9
$PINSBASE
 10
0.0
 20
0.0
 30
0.0
  9
$PLIMCHECK
 70
0
  9
$PEXTMIN
 10
1e+20
 20
1e+20
 30
1e+20
  9
$PEXTMAX
 10
-1e+20
 20
-1e+20
 30
-1e+20
  9
$PLIMMIN
 10
0.0
 20
0.0
  9
$PLIMMAX
 10
420.0
 20
297.0
  9
$UNITMODE
 70
0
  9
$VISRETAIN
 70
1
  9
$PLINEGEN
 70
0
  9
$PSLTSCALE
 70
1
  9
$TREEDEPTH
 70
3020
  9
$CMLSTYLE
  2
Standard
  9
$CMLJUST
 70
0
  9
$CMLSCALE
 40
20.0
  9
$PROXYGRAPHICS
 70
1
  9
$MEASUREMENT
 70
0
  9
$CELWEIGHT
370
-1
  9
$ENDCAPS
280
0
  9
$JOINSTYLE
280
0
  9
$LWDISPLAY
290
0
  9
$INSUNITS
 70
1
  9
$HYPERLINKBASE
  1

  9
$STYLESHEET
  1

  9
$XEDIT
290
1
  9
$CEPSNTYPE
380
0
  9
$PSTYLEMODE
290
1
  9
$FINGERPRINTGUID
  2
{5BA77D56-C22F-43A0-996E-604C78478F64}
  9
$VERSIONGUID
  2
{6E1E7C68-0DD9-47FE-93E3-816E09AC4C8C}
  9
$EXTNAMES
290
1
  9
$PSVPSCALE
 40
0.0
  9
$OLESTARTUP
290
0
  9
$SORTENTS
280
127
  9
$INDEXCTL
280
0
  9
$HIDETEXT
280
1
  9
$XCLIPFRAME
280
1
  9
$HALOGAP
280
0
  9
$OBSCOLOR
 70
257
  9
$OBSLTYPE
280
0
  9
$INTERSECTIONDISPLAY
280
0
  9
$INTERSECTIONCOLOR
 70
257
  9
$DIMASSOC
280
2
  9
$PROJECTNAME
  1

  9
$CAMERADISPLAY
290
0
  9
$LENSLENGTH
 40
50.0
  9
$CAMERAHEIGHT
 40
0.0
  9
$STEPSPERSEC
 40
24.0
  9
$STEPSIZE
 40
100.0
  9
$3DDWFPREC
 40
2.0
  9
$PSOLWIDTH
 40
0.005
  9
$PSOLHEIGHT
 40
0.08
  9
$LOFTANG1
 40
1.570796326795
  9
$LOFTANG2
 40
1.570796326795
  9
$LOFTMAG1
 40
0.0
  9
$LOFTMAG2
 40
0.0
  9
$LOFTPARAM
 70
7
  9
$LOFTNORMALS
280
1
  9
$LATITUDE
 40
37.795
  9
$LONGITUDE
 40
-122.394
  9
$NORTHDIRECTION
 40
0.0
  9
$TIMEZONE
 70
-8000
  9
$LIGHTGLYPHDISPLAY
280
1
  9
$TILEMODELIGHTSYNCH
280
1
  9
$CMATERIAL
347
20
  9
$SOLIDHIST
280
0
  9
$SHOWHIST
280
1
  9
$DWFFRAME
280
2
  9
$DGNFRAME
280
2
  9
$REALWORLDSCALE
290
1
  9
$INTERFERECOLOR
 62
256
  9
$CSHADOW
280
0
  9
$SHADOWPLANELOCATION
 40
0.0
  0
ENDSEC
  0
SECTION
  2
CLASSES
  0
CLASS
  1
ACDBDICTIONARYWDFLT
  2
AcDbDictionaryWithDefault
  3
ObjectDBX Classes
 90
0
 91
0
280
0
281
0
  0
CLASS
  1
SUN
  2
AcDbSun
  3
SCENEOE
 90
1153
 91
0
280
0
281
0
  0
CLASS
  1
VISUALSTYLE
  2
AcDbVisualStyle
  3
ObjectDBX Classes
 90
4095
 91
0
280
0
281
0
  0
CLASS
  1
MATERIAL
  2
AcDbMaterial
  3
ObjectDBX Classes
 90
1153
 91
0
280
0
281
0
  0
CLASS
  1
SCALE
  2
AcDbScale
  3
ObjectDBX Classes
 90
1153
 91
0
280
0
281
0
  0
CLASS
  1
TABLESTYLE
  2
AcDbTableStyle
  3
ObjectDBX Classes
 90
4095
 91
0
280
0
281
0
  0
CLASS
  1
MLEADERSTYLE
  2
AcDbMLeaderStyle
  3
ACDB_MLEADERSTYLE_CLASS
 90
4095
 91
0
280
0
281
0
  0
CLASS
  1
DICTIONARYVAR
  2
AcDbDictionaryVar
  3
ObjectDBX Classes
 90
0
 91
0
280
0
281
0
  0
CLASS
  1
CELLSTYLEMAP
  2
AcDbCellStyleMap
  3
ObjectDBX Classes
 90
1152
 91
0
280
0
281
0
  0
CLASS
  1
MENTALRAYRENDERSETTINGS
  2
AcDbMentalRayRenderSettings
  3
SCENEOE
 90
1024
 91
0
280
0
281
0
  0
CLASS
  1
ACDBDETAILVIEWSTYLE
  2
AcDbDetailViewStyle
  3
ObjectDBX Classes
 90
1025
 91
0
280
0
281
0
  0
CLASS
  1
ACDBSECTIONVIEWSTYLE
  2
AcDbSectionViewStyle
  3
ObjectDBX Classes
 90
1025
 91
0
280
0
281
0
  0
CLASS
  1
RASTERVARIABLES
  2
AcDbRasterVariables
  3
ISM
 90
0
 91
0
280
0
281
0
  0
CLASS
  1
ACDBPLACEHOLDER
  2
AcDbPlaceHolder
  3
ObjectDBX Classes
 90
0
 91
0
280
0
281
0
  0
CLASS
  1
LAYOUT
  2
AcDbLayout
  3
ObjectDBX Classes
 90
0
 91
0
280
0
281
0
  0
ENDSEC
  0
SECTION
  2
TABLES
  0
TABLE
  2
VPORT
  5
8
330
0
100
AcDbSymbolTable
 70
1
  0
VPORT
  5
23
330
8
100
AcDbSymbolTableRecord
100
AcDbViewportTableRecord
  2
*Active
 70
0
 10
0.0
 20
0.0
 11
1.0
 21
1.0
 12
0.0
 22
0.0
 13
0.0
 23
0.0
 14
0.5
 24
0.5
 15
0.5
 25
0.5
 16
0.0
 26
0.0
 36
1.0
 17
0.0
 27
0.0
 37
0.0
 40
1000.0
 41
1.34
 42
50.0
 43
0.0
 44
0.0
 50
0.0
 51
0.0
 71
0
 72
1000
 73
1
 74
3
 75
0
 76
0
 77
0
 78
0
281
0
 65
0
146
0.0
  0
ENDTAB
  0
TABLE
  2
LTYPE
  5
2
330
0
100
AcDbSymbolTable
 70
21
  0
LTYPE
  5
24
330
2
100
AcDbSymbolTableRecord
100
AcDbLinetypeTableRecord
  2
ByBlock
 70
0
  3

 72
65
 73
0
 40
0.0
  0
LTYPE
  5
25
330
2
100
AcDbSymbolTableRecord
100
AcDbLinetypeTableRecord
  2
ByLayer
 70
0
  3

 72
65
 73
0
 40
0.0
  0
LTYPE
  5
26
330
2
100
AcDbSymbolTableRecord
100
AcDbLinetypeTableRecord
  2
Continuous
 70
0
  3

 72
65
 73
0
 40
0.0
  0
LTYPE
  5
2F
330
2
100
AcDbSymbolTableRecord
100
AcDbLinetypeTableRecord
  2
CENTER
 70
0
  3
Center ____ _ ____ _ ____ _ ____ _ ____ _ ____
 72
65
 73
4
 40
2.0
 49
1.25
 74
0
 49
-0.25
 74
0
 49
0.25
 74
0
 49
-0.25
 74
0
  0
LTYPE
  5
30
330
2
100
AcDbSymbolTableRecord
100
AcDbLinetypeTableRecord
  2
CENTERX2
 70
0
  3
Center (2x) ________  __  ________  __  ________
 72
65
 73
4
 40
3.5
 49
2.5
 74
0
 49
-0.25
 74
0
 49
0.5
 74
0
 49
-0.25
 74
0
  0
LTYPE
  5
31
330
2
100
AcDbSymbolTableRecord
100
AcDbLinetypeTableRecord
  2
CENTER2
 70
0
  3
Center (.5x) ____ _ ____ _ ____ _ ____ _ ____
 72
65
 73
4
 40
1.0
 49
0.625
 74
0
 49
-0.125
 74
0
 49
0.125
 74
0
 49
-0.125
 74
0
  0
LTYPE
  5
32
330
2
100
AcDbSymbolTableRecord
100
AcDbLinetypeTableRecord
  2
DASHED
 70
0
  3
Dashed __ __ __ __ __ __ __ __ __ __ __ __ __ _
 72
65
 73
2
 40
0.6
 49
0.5
 74
0
 49
-0.1
 74
0
  0
LTYPE
  5
33
330
2
100
AcDbSymbolTableRecord
100
AcDbLinetypeTableRecord
  2
DASHEDX2
 70
0
  3
Dashed (2x) ____  ____  ____  ____  ____  ____
 72
65
 73
2
 40
1.2
 49
1.0
 74
0
 49
-0.2
 74
0
  0
LTYPE
  5
34
330
2
100
AcDbSymbolTableRecord
100
AcDbLinetypeTableRecord
  2
DASHED2
 70
0
  3
Dashed (.5x) _ _ _ _ _ _ _ _ _ _ _ _ _ _
 72
65
 73
2
 40
0.3
 49
0.25
 74
0
 49
-0.05
 74
0
  0
LTYPE
  5
35
330
2
100
AcDbSymbolTableRecord
100
AcDbLinetypeTableRecord
  2
PHANTOM
 70
0
  3
Phantom ______  __  __  ______  __  __  ______
 72
65
 73
6
 40
2.5
 49
1.25
 74
0
 49
-0.25
 74
0
 49
0.25
 74
0
 49
-0.25
 74
0
 49
0.25
 74
0
 49
-0.25
 74
0
  0
LTYPE
  5
36
330
2
100
AcDbSymbolTableRecord
100
AcDbLinetypeTableRecord
  2
PHANTOMX2
 70
0
  3
Phantom (2x)____________    ____    ____    ____________
 72
65
 73
6
 40
4.25
 49
2.5
 74
0
 49
-0.25
 74
0
 49
0.5
 74
0
 49
-0.25
 74
0
 49
0.5
 74
0
 49
-0.25
 74
0
  0
LTYPE
  5
37
330
2
100
AcDbSymbolTableRecord
100
AcDbLinetypeTableRecord
  2
PHANTOM2
 70
0
  3
Phantom (.5x) ___ _ _ ___ _ _ ___ _ _ ___ _ _ ___
 72
65
 73
6
 40
1.25
 49
0.625
 74
0
 49
-0.125
 74
0
 49
0.125
 74
0
 49
-0.125
 74
0
 49
0.125
 74
0
 49
-0.125
 74
0
  0
LTYPE
  5
38
330
2
100
AcDbSymbolTableRecord
100
AcDbLinetypeTableRecord
  2
DASHDOT
 70
0
  3
Dash dot __ . __ . __ . __ . __ . __ . __ . __
 72
65
 73
4
 40
1.4
 49
1.0
 74
0
 49
-0.2
 74
0
 49
0.0
 74
0
 49
-0.2
 74
0
  0
LTYPE
  5
39
330
2
100
AcDbSymbolTableRecord
100
AcDbLinetypeTableRecord
  2
DASHDOTX2
 70
0
  3
Dash dot (2x) ____  .  ____  .  ____  .  ____
 72
65
 73
4
 40
2.4
 49
2.0
 74
0
 49
-0.2
 74
0
 49
0.0
 74
0
 49
-0.2
 74
0
  0
LTYPE
  5
3A
330
2
100
AcDbSymbolTableRecord
100
AcDbLinetypeTableRecord
  2
DASHDOT2
 70
0
  3
Dash dot (.5x) _ . _ . _ . _ . _ . _ . _ . _
 72
65
 73
4
 40
0.7
 49
0.5
 74
0
 49
-0.1
 74
0
 49
0.0
 74
0
 49
-0.1
 74
0
  0
LTYPE
  5
3B
330
2
100
AcDbSymbolTableRecord
100
AcDbLinetypeTableRecord
  2
DOT
 70
0
  3
Dot .  .  .  .  .  .  .  .  .  .  .  .  .  .  .  .
 72
65
 73
2
 40
0.2
 49
0.0
 74
0
 49
-0.2
 74
0
  0
LTYPE
  5
3C
330
2
100
AcDbSymbolTableRecord
100
AcDbLinetypeTableRecord
  2
DOTX2
 70
0
  3
Dot (2x) .    .    .    .    .    .    .    . 
 72
65
 73
2
 40
0.4
 49
0.0
 74
0
 49
-0.4
 74
0
  0
LTYPE
  5
3D
330
2
100
AcDbSymbolTableRecord
100
AcDbLinetypeTableRecord
  2
DOT2
 70
0
  3
Dot (.5) . . . . . . . . . . . . . . . . . . . 
 72
65
 73
2
 40
0.1
 49
0.0
 74
0
 49
-0.1
 74
0
  0
LTYPE
  5
3E
330
2
100
AcDbSymbolTableRecord
100
AcDbLinetypeTableRecord
  2
DIVIDE
 70
0
  3
Divide __ . . __ . . __ . . __ . . __ . . __
 72
65
 73
6
 40
1.6
 49
1.0
 74
0
 49
-0.2
 74
0
 49
0.0
 74
0
 49
-0.2
 74
0
 49
0.0
 74
0
 49
-0.2
 74
0
  0
LTYPE
  5
3F
330
2
100
AcDbSymbolTableRecord
100
AcDbLinetypeTableRecord
  2
DIVIDEX2
 70
0
  3
Divide (2x) ____  . .  ____  . .  ____  . .  ____
 72
65
 73
6
 40
2.6
 49
2.0
 74
0
 49
-0.2
 74
0
 49
0.0
 74
0
 49
-0.2
 74
0
 49
0.0
 74
0
 49
-0.2
 74
0
  0
LTYPE
  5
40
330
2
100
AcDbSymbolTableRecord
100
AcDbLinetypeTableRecord
  2
DIVIDE2
 70
0
  3
Divide(.5x) _ . _ . _ . _ . _ . _ . _ . _
 72
65
 73
6
 40
0.8
 49
0.5
 74
0
 49
-0.1
 74
0
 49
0.0
 74
0
 49
-0.1
 74
0
 49
0.0
 74
0
 49
-0.1
 74
0
  0
ENDTAB
  0
TABLE
  2
LAYER
  5
1
330
0
100
AcDbSymbolTable
 70
10
  0
LAYER
  5
27
330
1
100
AcDbSymbolTableRecord
100
AcDbLayerTableRecord
  2
0
 70
0
 62
7
  6
Continuous
370
-3
390
13
347
21
  0
LAYER
  5
28
330
1
100
AcDbSymbolTableRecord
100
AcDbLayerTableRecord
  2
Defpoints
 70
0
 62
7
  6
Continuous
290
0
370
-3
390
13
347
21
  0
LAYER
  5
8A
330
1
100
AcDbSymbolTableRecord
100
AcDbLayerTableRecord
  2
Front elevation
 70
0
 62
7
  6
Continuous
370
-3
390
13
347
21
  0
LAYER
  5
8B
330
1
100
AcDbSymbolTableRecord
100
AcDbLayerTableRecord
  2
Front elevation hatch
 70
0
 62
8
  6
Continuous
370
-3
390
13
347
21
  0
LAYER
  5
DA
330
1
100
AcDbSymbolTableRecord
100
AcDbLayerTableRecord
  2
Panel head - detail A
 70
0
 62
7
  6
Continuous
370
-3
390
13
347
21
  0
LAYER
  5
DB
330
1
100
AcDbSymbolTableRecord
100
AcDbLayerTableRecord
  2
Panel head - detail A hatch
 70
0
 62
8
  6
Continuous
370
-3
390
13
347
21
  0
LAYER
  5
EB
330
1
100
AcDbSymbolTableRecord
100
AcDbLayerTableRecord
  2
Section B-B
 70
0
 62
7
  6
Continuous
370
-3
390
13
347
21
  0
LAYER
  5
EC
330
1
100
AcDbSymbolTableRecord
100
AcDbLayerTableRecord
  2
Section B-B hatch
 70
0
 62
8
  6
Continuous
370
-3
390
13
347
21
  0
LAYER
  5
115
330
1
100
AcDbSymbolTableRecord
100
AcDbLayerTableRecord
  2
Lock rail - detail C
 70
0
 62
7
  6
Continuous
370
-3
390
13
347
21
  0
LAYER
  5
116
330
1
100
AcDbSymbolTableRecord
100
AcDbLayerTableRecord
  2
Lock rail - detail C hatch
 70
0
 62
8
  6
Continuous
370
-3
390
13
347
21
  0
ENDTAB
  0
TABLE
  2
STYLE
  5
5
330
0
100
AcDbSymbolTable
 70
26
  0
STYLE
  5
29
330
5
100
AcDbSymbolTableRecord
100
AcDbTextStyleTableRecord
  2
Standard
 70
0
 40
0.0
 41
1.0
 50
0.0
 71
0
 42
2.5
  3
txt
  4

  0
STYLE
  5
41
330
5
100
AcDbSymbolTableRecord
100
AcDbTextStyleTableRecord
  2
OpenSans-Light
 70
0
 40
0.0
 41
1.0
 50
0.0
 71
0
 42
2.5
  3
OpenSans-Light.ttf
  4

  0
STYLE
  5
42
330
5
100
AcDbSymbolTableRecord
100
AcDbTextStyleTableRecord
  2
OpenSans-Light-Italic
 70
0
 40
0.0
 41
1.0
 50
0.0
 71
0
 42
2.5
  3
OpenSans-LightItalic.ttf
  4

  0
STYLE
  5
43
330
5
100
AcDbSymbolTableRecord
100
AcDbTextStyleTableRecord
  2
OpenSans
 70
0
 40
0.0
 41
1.0
 50
0.0
 71
0
 42
2.5
  3
OpenSans-Regular.ttf
  4

  0
STYLE
  5
44
330
5
100
AcDbSymbolTableRecord
100
AcDbTextStyleTableRecord
  2
OpenSans-Italic
 70
0
 40
0.0
 41
1.0
 50
0.0
 71
0
 42
2.5
  3
OpenSans-Italic.ttf
  4

  0
STYLE
  5
45
330
5
100
AcDbSymbolTableRecord
100
AcDbTextStyleTableRecord
  2
OpenSans-SemiBold
 70
0
 40
0.0
 41
1.0
 50
0.0
 71
0
 42
2.5
  3
OpenSans-SemiBold.ttf
  4

  0
STYLE
  5
46
330
5
100
AcDbSymbolTableRecord
100
AcDbTextStyleTableRecord
  2
OpenSans-SemiBoldItalic
 70
0
 40
0.0
 41
1.0
 50
0.0
 71
0
 42
2.5
  3
OpenSans-SemiBoldItalic.ttf
  4

  0
STYLE
  5
47
330
5
100
AcDbSymbolTableRecord
100
AcDbTextStyleTableRecord
  2
OpenSans-Bold
 70
0
 40
0.0
 41
1.0
 50
0.0
 71
0
 42
2.5
  3
OpenSans-Bold.ttf
  4

  0
STYLE
  5
48
330
5
100
AcDbSymbolTableRecord
100
AcDbTextStyleTableRecord
  2
OpenSans-BoldItalic
 70
0
 40
0.0
 41
1.0
 50
0.0
 71
0
 42
2.5
  3
OpenSans-BoldItalic.ttf
  4

  0
STYLE
  5
49
330
5
100
AcDbSymbolTableRecord
100
AcDbTextStyleTableRecord
  2
OpenSans-ExtraBold
 70
0
 40
0.0
 41
1.0
 50
0.0
 71
0
 42
2.5
  3
OpenSans-ExtraBold.ttf
  4

  0
STYLE
  5
4A
330
5
100
AcDbSymbolTableRecord
100
AcDbTextStyleTableRecord
  2
OpenSans-ExtraBoldItalic
 70
0
 40
0.0
 41
1.0
 50
0.0
 71
0
 42
2.5
  3
OpenSans-ExtraBoldItalic.ttf
  4

  0
STYLE
  5
4B
330
5
100
AcDbSymbolTableRecord
100
AcDbTextStyleTableRecord
  2
OpenSansCondensed-Bold
 70
0
 40
0.0
 41
1.0
 50
0.0
 71
0
 42
2.5
  3
OpenSansCondensed-Bold.ttf
  4

  0
STYLE
  5
4C
330
5
100
AcDbSymbolTableRecord
100
AcDbTextStyleTableRecord
  2
OpenSansCondensed-Light
 70
0
 40
0.0
 41
1.0
 50
0.0
 71
0
 42
2.5
  3
OpenSansCondensed-Light.ttf
  4

  0
STYLE
  5
4D
330
5
100
AcDbSymbolTableRecord
100
AcDbTextStyleTableRecord
  2
OpenSansCondensed-Italic
 70
0
 40
0.0
 41
1.0
 50
0.0
 71
0
 42
2.5
  3
OpenSansCondensed-LightItalic.ttf
  4

  0
STYLE
  5
4E
330
5
100
AcDbSymbolTableRecord
100
AcDbTextStyleTableRecord
  2
LiberationSans
 70
0
 40
0.0
 41
1.0
 50
0.0
 71
0
 42
2.5
  3
LiberationSans-Regular.ttf
  4

  0
STYLE
  5
4F
330
5
100
AcDbSymbolTableRecord
100
AcDbTextStyleTableRecord
  2
LiberationSans-Bold
 70
0
 40
0.0
 41
1.0
 50
0.0
 71
0
 42
2.5
  3
LiberationSans-Bold.ttf
  4

  0
STYLE
  5
50
330
5
100
AcDbSymbolTableRecord
100
AcDbTextStyleTableRecord
  2
LiberationSans-BoldItalic
 70
0
 40
0.0
 41
1.0
 50
0.0
 71
0
 42
2.5
  3
LiberationSans-BoldItalic.ttf
  4

  0
STYLE
  5
51
330
5
100
AcDbSymbolTableRecord
100
AcDbTextStyleTableRecord
  2
LiberationSans-Italic
 70
0
 40
0.0
 41
1.0
 50
0.0
 71
0
 42
2.5
  3
LiberationSans-Italic.ttf
  4

  0
STYLE
  5
52
330
5
100
AcDbSymbolTableRecord
100
AcDbTextStyleTableRecord
  2
LiberationSerif
 70
0
 40
0.0
 41
1.0
 50
0.0
 71
0
 42
2.5
  3
LiberationSerif-Regular.ttf
  4

  0
STYLE
  5
53
330
5
100
AcDbSymbolTableRecord
100
AcDbTextStyleTableRecord
  2
LiberationSerif-Bold
 70
0
 40
0.0
 41
1.0
 50
0.0
 71
0
 42
2.5
  3
LiberationSerif-Bold.ttf
  4

  0
STYLE
  5
54
330
5
100
AcDbSymbolTableRecord
100
AcDbTextStyleTableRecord
  2
LiberationSerif-BoldItalic
 70
0
 40
0.0
 41
1.0
 50
0.0
 71
0
 42
2.5
  3
LiberationSerif-BoldItalic.ttf
  4

  0
STYLE
  5
55
330
5
100
AcDbSymbolTableRecord
100
AcDbTextStyleTableRecord
  2
LiberationSerif-Italic
 70
0
 40
0.0
 41
1.0
 50
0.0
 71
0
 42
2.5
  3
LiberationSerif-Italic.ttf
  4

  0
STYLE
  5
56
330
5
100
AcDbSymbolTableRecord
100
AcDbTextStyleTableRecord
  2
LiberationMono
 70
0
 40
0.0
 41
1.0
 50
0.0
 71
0
 42
2.5
  3
LiberationMono-Regular.ttf
  4

  0
STYLE
  5
57
330
5
100
AcDbSymbolTableRecord
100
AcDbTextStyleTableRecord
  2
LiberationMono-Bold
 70
0
 40
0.0
 41
1.0
 50
0.0
 71
0
 42
2.5
  3
LiberationMono-Bold.ttf
  4

  0
STYLE
  5
58
330
5
100
AcDbSymbolTableRecord
100
AcDbTextStyleTableRecord
  2
LiberationMono-BoldItalic
 70
0
 40
0.0
 41
1.0
 50
0.0
 71
0
 42
2.5
  3
LiberationMono-BoldItalic.ttf
  4

  0
STYLE
  5
59
330
5
100
AcDbSymbolTableRecord
100
AcDbTextStyleTableRecord
  2
LiberationMono-Italic
 70
0
 40
0.0
 41
1.0
 50
0.0
 71
0
 42
2.5
  3
LiberationMono-Italic.ttf
  4

  0
ENDTAB
  0
TABLE
  2
VIEW
  5
7
330
0
100
AcDbSymbolTable
 70
0
  0
ENDTAB
  0
TABLE
  2
UCS
  5
6
330
0
100
AcDbSymbolTable
 70
0
  0
ENDTAB
  0
TABLE
  2
APPID
  5
3
330
0
100
AcDbSymbolTable
 70
3
  0
APPID
  5
2A
330
3
100
AcDbSymbolTableRecord
100
AcDbRegAppTableRecord
  2
ACAD
 70
0
  0
APPID
  5
12D
330
3
100
AcDbSymbolTableRecord
100
AcDbRegAppTableRecord
  2
HATCHBACKGROUNDCOLOR
 70
0
  0
APPID
  5
12E
330
3
100
AcDbSymbolTableRecord
100
AcDbRegAppTableRecord
  2
EZDXF
 70
0
  0
ENDTAB
  0
TABLE
  2
DIMSTYLE
  5
4
330
0
100
AcDbSymbolTable
 70
12
100
AcDbDimStyleTable
  0
DIMSTYLE
105
2B
330
4
100
AcDbSymbolTableRecord
100
AcDbDimStyleTableRecord
  2
Standard
 70
0
 40
1.0
 41
2.5
 42
0.625
 43
3.75
 44
1.25
 45
0.0
 46
0.0
 47
0.0
 48
0.0
 49
2.5
140
2.5
141
2.5
142
0.0
143
0.03937007874
144
1.0
145
0.0
146
1.0
147
0.625
148
0.0
 69
0
 70
0
 71
0
 72
0
 73
0
 74
0
 75
0
 76
0
 77
1
 78
8
 79
3
170
0
171
3
172
1
173
0
174
0
175
0
176
0
177
0
178
0
179
2
271
2
272
2
273
2
274
3
275
0
276
0
277
2
278
44
279
0
280
0
281
0
282
0
283
0
284
8
285
0
286
0
288
0
289
3
290
0
371
-2
372
-2
  0
DIMSTYLE
105
73
330
4
100
AcDbSymbolTableRecord
100
AcDbDimStyleTableRecord
  2
EZDXF
 70
0
 40
1.0
 41
0.175
 42
0.125
 43
3.75
 44
0.375
 45
0.0
 46
0.0
 47
0.0
 48
0.0
 49
2.5
140
0.25
141
2.5
142
0.0
143
0.03937007874
144
100.0
145
0.0
146
0.5
147
0.1
148
0.0
 69
0
 70
0
 71
0
 72
0
 73
0
 74
0
 75
0
 76
0
 77
1
 78
12
 79
3
170
0
171
3
172
1
173
0
174
0
175
0
176
0
177
0
178
0
179
2
271
2
272
2
273
2
274
3
275
0
276
0
277
2
278
46
279
2
280
0
281
0
282
0
283
0
284
8
285
0
286
0
288
1
289
3
290
0
340
4C
342
74
371
-2
372
-2
  0
DIMSTYLE
105
7C
330
4
100
AcDbSymbolTableRecord
100
AcDbDimStyleTableRecord
  2
EZ_M_100_H25_CM
 70
0
 40
1.0
 41
0.25
 42
0.125
 43
3.75
 44
0.375
 45
0.0
 46
0.0
 47
0.0
 48
0.0
 49
2.5
140
0.25
141
2.5
142
0.125
143
0.03937007874
144
100.0
145
0.0
146
0.5
147
0.1
148
0.0
 69
0
 70
0
 71
0
 72
0
 73
0
 74
0
 75
0
 76
0
 77
1
 78
12
 79
3
170
0
171
3
172
1
173
0
174
0
175
0
176
0
177
0
178
0
179
2
271
2
272
2
273
2
274
3
275
0
276
0
277
2
278
46
279
2
280
0
281
0
282
0
283
0
284
8
285
0
286
0
288
1
289
3
290
0
340
4C
371
-2
372
-2
  0
DIMSTYLE
105
7D
330
4
100
AcDbSymbolTableRecord
100
AcDbDimStyleTableRecord
  2
EZ_M_50_H25_CM
 70
0
 40
1.0
 41
0.125
 42
0.0625
 43
3.75
 44
0.1875
 45
0.0
 46
0.0
 47
0.0
 48
0.0
 49
2.5
140
0.125
141
2.5
142
0.0625
143
0.03937007874
144
100.0
145
0.0
146
0.5
147
0.05
148
0.0
 69
0
 70
0
 71
0
 72
0
 73
0
 74
0
 75
0
 76
0
 77
1
 78
12
 79
3
170
0
171
3
172
1
173
0
174
0
175
0
176
0
177
0
178
0
179
2
271
2
272
2
273
2
274
3
275
0
276
0
277
2
278
46
279
2
280
0
281
0
282
0
283
0
284
8
285
0
286
0
288
1
289
3
290
0
340
4C
371
-2
372
-2
  0
DIMSTYLE
105
7E
330
4
100
AcDbSymbolTableRecord
100
AcDbDimStyleTableRecord
  2
EZ_M_25_H25_CM
 70
0
 40
1.0
 41
0.0625
 42
0.03125
 43
3.75
 44
0.09375
 45
0.0
 46
0.0
 47
0.0
 48
0.0
 49
2.5
140
0.0625
141
2.5
142
0.03125
143
0.03937007874
144
100.0
145
0.0
146
0.5
147
0.025
148
0.0
 69
0
 70
0
 71
0
 72
0
 73
0
 74
0
 75
0
 76
0
 77
1
 78
12
 79
3
170
0
171
3
172
1
173
0
174
0
175
0
176
0
177
0
178
0
179
2
271
2
272
2
273
2
274
3
275
0
276
0
277
2
278
46
279
2
280
0
281
0
282
0
283
0
284
8
285
0
286
0
288
1
289
3
290
0
340
4C
371
-2
372
-2
  0
DIMSTYLE
105
7F
330
4
100
AcDbSymbolTableRecord
100
AcDbDimStyleTableRecord
  2
EZ_M_20_H25_CM
 70
0
 40
1.0
 41
0.05
 42
0.025
 43
3.75
 44
0.07500000000000001
 45
0.0
 46
0.0
 47
0.0
 48
0.0
 49
2.5
140
0.05
141
2.5
142
0.025
143
0.03937007874
144
100.0
145
0.0
146
0.5
147
0.020000000000000004
148
0.0
 69
0
 70
0
 71
0
 72
0
 73
0
 74
0
 75
0
 76
0
 77
1
 78
12
 79
3
170
0
171
3
172
1
173
0
174
0
175
0
176
0
177
0
178
0
179
2
271
2
272
2
273
2
274
3
275
0
276
0
277
2
278
46
279
2
280
0
281
0
282
0
283
0
284
8
285
0
286
0
288
1
289
3
290
0
340
4C
371
-2
372
-2
  0
DIMSTYLE
105
80
330
4
100
AcDbSymbolTableRecord
100
AcDbDimStyleTableRecord
  2
EZ_M_10_H25_CM
 70
0
 40
1.0
 41
0.025
 42
0.0125
 43
3.75
 44
0.037500000000000006
 45
0.0
 46
0.0
 47
0.0
 48
0.0
 49
2.5
140
0.025
141
2.5
142
0.0125
143
0.03937007874
144
100.0
145
0.0
146
0.5
147
0.010000000000000002
148
0.0
 69
0
 70
0
 71
0
 72
0
 73
0
 74
0
 75
0
 76
0
 77
1
 78
12
 79
3
170
0
171
3
172
1
173
0
174
0
175
0
176
0
177
0
178
0
179
2
271
2
272
2
273
2
274
3
275
0
276
0
277
2
278
46
279
2
280
0
281
0
282
0
283
0
284
8
285
0
286
0
288
1
289
3
290
0
340
4C
371
-2
372
-2
  0
DIMSTYLE
105
81
330
4
100
AcDbSymbolTableRecord
100
AcDbDimStyleTableRecord
  2
EZ_M_5_H25_CM
 70
0
 40
1.0
 41
0.0125
 42
0.00625
 43
3.75
 44
0.018750000000000003
 45
0.0
 46
0.0
 47
0.0
 48
0.0
 49
2.5
140
0.0125
141
2.5
142
0.00625
143
0.03937007874
144
100.0
145
0.0
146
0.5
147
0.005000000000000001
148
0.0
 69
0
 70
0
 71
0
 72
0
 73
0
 74
0
 75
0
 76
0
 77
1
 78
12
 79
3
170
0
171
3
172
1
173
0
174
0
175
0
176
0
177
0
178
0
179
2
271
2
272
2
273
2
274
3
275
0
276
0
277
2
278
46
279
2
280
0
281
0
282
0
283
0
284
8
285
0
286
0
288
1
289
3
290
0
340
4C
371
-2
372
-2
  0
DIMSTYLE
105
82
330
4
100
AcDbSymbolTableRecord
100
AcDbDimStyleTableRecord
  2
EZ_M_1_H25_CM
 70
0
 40
1.0
 41
0.0025
 42
0.00125
 43
3.75
 44
0.00375
 45
0.0
 46
0.0
 47
0.0
 48
0.0
 49
2.5
140
0.0025
141
2.5
142
0.00125
143
0.03937007874
144
100.0
145
0.0
146
0.5
147
0.001
148
0.0
 69
0
 70
0
 71
0
 72
0
 73
0
 74
0
 75
0
 76
0
 77
1
 78
12
 79
3
170
0
171
3
172
1
173
0
174
0
175
0
176
0
177
0
178
0
179
2
271
2
272
2
273
2
274
3
275
0
276
0
277
2
278
46
279
2
280
0
281
0
282
0
283
0
284
8
285
0
286
0
288
1
289
3
290
0
340
4C
371
-2
372
-2
  0
DIMSTYLE
105
83
330
4
100
AcDbSymbolTableRecord
100
AcDbDimStyleTableRecord
  2
EZ_RADIUS
 70
0
 40
1.0
 41
0.25
 42
0.125
 43
3.75
 44
0.375
 45
0.0
 46
0.0
 47
0.0
 48
0.0
 49
2.5
140
0.25
141
0.0
142
0.0
143
0.03937007874
144
100.0
145
0.0
146
0.5
147
0.1
148
0.0
 69
0
 70
0
 71
0
 72
0
 73
0
 74
0
 75
0
 76
0
 77
1
 78
12
 79
3
170
0
171
3
172
0
173
0
174
0
175
0
176
0
177
0
178
0
179
2
271
2
272
2
273
2
274
3
275
0
276
0
277
2
278
46
279
1
280
0
281
0
282
0
283
0
284
8
285
0
286
0
288
1
289
3
290
0
340
4C
342
84
371
-2
372
-2
  0
DIMSTYLE
105
88
330
4
100
AcDbSymbolTableRecord
100
AcDbDimStyleTableRecord
  2
EZ_RADIUS_INSIDE
 70
0
 40
1.0
 41
0.25
 42
0.125
 43
3.75
 44
0.375
 45
0.0
 46
0.0
 47
0.0
 48
0.0
 49
2.5
140
0.25
141
0.0
142
0.0
143
0.03937007874
144
100.0
145
0.0
146
0.5
147
0.1
148
0.0
 69
0
 70
0
 71
0
 72
0
 73
0
 74
0
 75
0
 76
0
 77
0
 78
12
 79
3
170
0
171
3
172
0
173
0
174
1
175
0
176
0
177
0
178
0
179
2
271
2
272
2
273
2
274
3
275
0
276
0
277
2
278
46
279
0
280
0
281
0
282
0
283
0
284
8
285
0
286
0
288
1
289
0
290
0
340
4C
342
84
371
-2
372
-2
  0
DIMSTYLE
105
89
330
4
100
AcDbSymbolTableRecord
100
AcDbDimStyleTableRecord
  2
EZ_CURVED
 70
0
 40
1.0
 41
0.25
 42
0.125
 43
3.75
 44
0.375
 45
0.0
 46
0.0
 47
0.0
 48
0.0
 49
2.5
140
0.25
141
2.5
142
0.0
143
0.03937007874
144
100.0
145
0.0
146
0.5
147
0.1
148
0.0
 69
0
 70
0
 71
0
 72
0
 73
0
 74
0
 75
0
 76
0
 77
1
 78
12
 79
2
 90
2
170
0
171
3
172
1
173
0
174
0
175
0
176
0
177
0
178
0
179
2
271
2
272
2
273
2
274
3
275
0
276
0
277
2
278
46
279
2
280
0
281
0
282
0
283
0
284
8
285
0
286
0
288
1
289
3
290
0
340
4C
371
-2
372
-2
  0
ENDTAB
  0
TABLE
  2
BLOCK_RECORD
  5
9
330
0
100
AcDbSymbolTable
 70
5
  0
BLOCK_RECORD
  5
17
330
9
100
AcDbSymbolTableRecord
100
AcDbBlockTableRecord
  2
*Model_Space
340
1A
 70
0
280
1
281
0
  0
BLOCK_RECORD
  5
1B
330
9
100
AcDbSymbolTableRecord
100
AcDbBlockTableRecord
  2
*Paper_Space
340
1E
 70
0
280
1
281
0
  0
BLOCK_RECORD
  5
74
330
9
100
AcDbSymbolTableRecord
100
AcDbBlockTableRecord
  2
_ARCHTICK
340
0
 70
0
280
1
281
0
  0
BLOCK_RECORD
  5
78
330
9
100
AcDbSymbolTableRecord
100
AcDbBlockTableRecord
  2
_CLOSEDFILLED
340
0
 70
0
280
1
281
0
  0
BLOCK_RECORD
  5
84
330
9
100
AcDbSymbolTableRecord
100
AcDbBlockTableRecord
  2
_CLOSEDBLANK
340
0
 70
0
280
1
281
0
  0
ENDTAB
  0
ENDSEC
  0
SECTION
  2
BLOCKS
  0
BLOCK
  5
18
330
17
100
AcDbEntity
  8
0
100
AcDbBlockBegin
  2
*Model_Space
 70
0
 10
0.0
 20
0.0
 30
0.0
  3
*Model_Space
  1

  0
ENDBLK
  5
19
330
17
100
AcDbEntity
  8
0
100
AcDbBlockEnd
  0
BLOCK
  5
1C
330
1B
100
AcDbEntity
  8
0
100
AcDbBlockBegin
  2
*Paper_Space
 70
0
 10
0.0
 20
0.0
 30
0.0
  3
*Paper_Space
  1

  0
ENDBLK
  5
1D
330
1B
100
AcDbEntity
  8
0
100
AcDbBlockEnd
  0
BLOCK
  5
75
330
74
100
AcDbEntity
  8
0
100
AcDbBlockBegin
  2
_ARCHTICK
 70
0
 10
0.0
 20
0.0
 30
0.0
  3
_ARCHTICK
  1

  0
LWPOLYLINE
  5
77
330
74
100
AcDbEntity
  8
0
  6
BYBLOCK
 62
0
100
AcDbPolyline
 90
2
 70
0
 43
0.15
 10
-0.5
 20
-0.5
 10
0.5
 20
0.5
  0
ENDBLK
  5
76
330
74
100
AcDbEntity
  8
0
100
AcDbBlockEnd
  0
BLOCK
  5
79
330
78
100
AcDbEntity
  8
0
100
AcDbBlockBegin
  2
_CLOSEDFILLED
 70
0
 10
0.0
 20
0.0
 30
0.0
  3
_CLOSEDFILLED
  1

  0
SOLID
  5
7B
330
78
100
AcDbEntity
  8
0
  6
BYBLOCK
 62
0
100
AcDbTrace
 10
-1.0
 20
0.16439898372402537
 30
0.0
 11
0.0
 21
0.0
 31
0.0
 12
-1.0
 22
-0.16439898372402537
 32
0.0
 13
-1.0
 23
-0.16439898372402537
 33
0.0
  0
ENDBLK
  5
7A
330
78
100
AcDbEntity
  8
0
100
AcDbBlockEnd
  0
BLOCK
  5
85
330
84
100
AcDbEntity
  8
0
100
AcDbBlockBegin
  2
_CLOSEDBLANK
 70
0
 10
0.0
 20
0.0
 30
0.0
  3
_CLOSEDBLANK
  1

  0
LWPOLYLINE
  5
87
330
84
100
AcDbEntity
  8
0
  6
BYBLOCK
 62
0
100
AcDbPolyline
 90
3
 70
1
 10
-1.0
 20
0.16439898372402537
 10
0.0
 20
0.0
 10
-1.0
 20
-0.16439898372402537
  0
ENDBLK
  5
86
330
84
100
AcDbEntity
  8
0
100
AcDbBlockEnd
  0
ENDSEC
  0
SECTION
  2
ENTITIES
  0
LWPOLYLINE
  5
8C
330
17
100
AcDbEntity
  8
Front elevation
  6
DASHED
100
AcDbPolyline
 90
4
 70
0
 10
7.086614173228346
 20
0.0
 10
7.086614173228346
 20
93.93700787401575
 10
42.99212598425196
 20
93.93700787401575
 10
42.99212598425196
 20
0.0
  0
LWPOLYLINE
  5
8D
330
17
100
AcDbEntity
  8
Front elevation
100
AcDbPolyline
 90
5
 70
0
 10
10.039370078740157
 20
90.98425196850394
 10
40.039370078740156
 20
90.98425196850394
 10
40.039370078740156
 20
0.0
 10
10.039370078740157
 20
0.0
 10
10.039370078740157
 20
90.98425196850394
  0
LINE
  5
8E
330
17
100
AcDbEntity
  8
Front elevation
100
AcDbLine
 10
13.976377952755906
 20
87.04724409448819
 30
0.0
 11
36.10236220472441
 21
87.04724409448819
 31
0.0
  0
LINE
  5
8F
330
17
100
AcDbEntity
  8
Front elevation
100
AcDbLine
 10
13.976377952755906
 20
9.05511811023622
 30
0.0
 11
36.10236220472441
 21
9.05511811023622
 31
0.0
  0
LINE
  5
90
330
17
100
AcDbEntity
  8
Front elevation
100
AcDbLine
 10
13.976377952755906
 20
42.24409448818898
 30
0.0
 11
13.976377952755906
 21
33.188976377952756
 31
0.0
  0
LINE
  5
91
330
17
100
AcDbEntity
  8
Front elevation
100
AcDbLine
 10
36.10236220472441
 20
42.24409448818898
 30
0.0
 11
36.10236220472441
 21
33.188976377952756
 31
0.0
  0
LINE
  5
92
330
17
100
AcDbEntity
  8
Front elevation
100
AcDbLine
 10
13.976377952755906
 20
90.98425196850394
 30
0.0
 11
13.976377952755906
 21
87.04724409448819
 31
0.0
  0
LINE
  5
93
330
17
100
AcDbEntity
  8
Front elevation
100
AcDbLine
 10
36.10236220472441
 20
90.98425196850394
 30
0.0
 11
36.10236220472441
 21
87.04724409448819
 31
0.0
  0
LINE
  5
94
330
17
100
AcDbEntity
  8
Front elevation
100
AcDbLine
 10
13.976377952755906
 20
9.05511811023622
 30
0.0
 11
13.976377952755906
 21
0.0
 31
0.0
  0
LINE
  5
95
330
17
100
AcDbEntity
  8
Front elevation
100
AcDbLine
 10
36.10236220472441
 20
9.05511811023622
 30
0.0
 11
36.10236220472441
 21
0.0
 31
0.0
  0
LWPOLYLINE
  5
96
330
17
100
AcDbEntity
  8
Front elevation
100
AcDbPolyline
 90
5
 70
0
 10
13.976377952755906
 20
87.04724409448819
 10
36.10236220472441
 20
87.04724409448819
 10
36.10236220472441
 20
42.24409448818898
 10
13.976377952755906
 20
42.24409448818898
 10
13.976377952755906
 20
87.04724409448819
  0
LWPOLYLINE
  5
97
330
17
100
AcDbEntity
  8
Front elevation
100
AcDbPolyline
 90
5
 70
0
 10
14.763779527559056
 20
86.25984251968504
 10
35.31496062992126
 20
86.25984251968504
 10
35.31496062992126
 20
43.03149606299213
 10
14.763779527559056
 20
43.03149606299213
 10
14.763779527559056
 20
86.25984251968504
  0
LINE
  5
98
330
17
100
AcDbEntity
  8
Front elevation
100
AcDbLine
 10
13.976377952755906
 20
87.04724409448819
 30
0.0
 11
14.763779527559056
 21
86.25984251968504
 31
0.0
  0
LINE
  5
99
330
17
100
AcDbEntity
  8
Front elevation
100
AcDbLine
 10
36.10236220472441
 20
87.04724409448819
 30
0.0
 11
35.31496062992126
 21
86.25984251968504
 31
0.0
  0
LINE
  5
9A
330
17
100
AcDbEntity
  8
Front elevation
100
AcDbLine
 10
13.976377952755906
 20
42.24409448818898
 30
0.0
 11
14.763779527559056
 21
43.031496062992126
 31
0.0
  0
LINE
  5
9B
330
17
100
AcDbEntity
  8
Front elevation
100
AcDbLine
 10
36.10236220472441
 20
42.24409448818898
 30
0.0
 11
35.31496062992126
 21
43.031496062992126
 31
0.0
  0
POLYLINE
  5
9C
330
17
100
AcDbEntity
  8
Front elevation
100
AcDb2dPolyline
 66
1
 10
0.0
 20
0.0
 30
0.0
 70
0
  0
VERTEX
  5
9D
330
9C
100
AcDbEntity
  8
Front elevation
100
AcDbVertex
100
AcDb2dVertex
 10
15.787401574803148
 20
46.417322834645674
 30
0.0
 70
0
  0
VERTEX
  5
9E
330
9C
100
AcDbEntity
  8
Front elevation
100
AcDbVertex
100
AcDb2dVertex
 10
15.787401574803148
 20
82.8740157480315
 30
0.0
 70
0
  0
SEQEND
  5
9F
330
9C
100
AcDbEntity
  8
Front elevation
  0
SPLINE
  5
A0
330
17
100
AcDbEntity
  8
Front elevation
100
AcDbSpline
 70
0
 71
3
 72
14
 73
10
 74
0
 40
0.0
 40
0.0
 40
0.0
 40
0.0
 40
1.0
 40
1.0
 40
1.0
 40
2.0
 40
2.0
 40
2.0
 40
3.0
 40
3.0
 40
3.0
 40
3.0
 10
15.787401574803148
 20
82.8740157480315
 30
0.0
 10
15.967071396569343
 20
82.8740157480315
 30
0.0
 10
16.14361396848225
 20
82.92132018760528
 30
0.0
 10
16.299212598425196
 20
83.01115509848837
 30
0.0
 10
16.454811228368143
 20
83.10099000937147
 30
0.0
 10
16.584049360707272
 20
83.2302281417106
 30
0.0
 10
16.67388427159037
 20
83.38582677165354
 30
0.0
 10
16.763719182473466
 20
83.5414254015965
 30
0.0
 10
16.811023622047244
 20
83.7179679735094
 30
0.0
 10
16.811023622047244
 20
83.8976377952756
 30
0.0
  0
SPLINE
  5
A1
330
17
100
AcDbEntity
  8
Front elevation
100
AcDbSpline
 70
0
 71
3
 72
11
 73
7
 74
0
 40
0.0
 40
0.0
 40
0.0
 40
0.0
 40
1.0
 40
1.0
 40
1.0
 40
2.0
 40
2.0
 40
2.0
 40
2.0
 10
16.811023622047244
 20
83.8976377952756
 30
0.0
 10
20.9251968503937
 20
83.8976377952756
 30
0.0
 10
19.937795275590553
 20
85.23622047244095
 30
0.0
 10
25.039370078740156
 20
85.23622047244095
 30
0.0
 10
30.140944881889766
 20
85.23622047244095
 30
0.0
 10
29.153543307086615
 20
83.8976377952756
 30
0.0
 10
33.267716535433074
 20
83.8976377952756
 30
0.0
  0
SPLINE
  5
A2
330
17
100
AcDbEntity
  8
Front elevation
100
AcDbSpline
 70
0
 71
3
 72
14
 73
10
 74
0
 40
0.0
 40
0.0
 40
0.0
 40
0.0
 40
1.0
 40
1.0
 40
1.0
 40
2.0
 40
2.0
 40
2.0
 40
3.0
 40
3.0
 40
3.0
 40
3.0
 10
33.267716535433074
 20
83.8976377952756
 30
0.0
 10
33.267716535433074
 20
83.7179679735094
 30
0.0
 10
33.315020975006846
 20
83.5414254015965
 30
0.0
 10
33.404855885889944
 20
83.38582677165354
 30
0.0
 10
33.49469079677304
 20
83.2302281417106
 30
0.0
 10
33.623928929112175
 20
83.10099000937147
 30
0.0
 10
33.77952755905512
 20
83.01115509848837
 30
0.0
 10
33.93512618899806
 20
82.92132018760528
 30
0.0
 10
34.11166876091097
 20
82.8740157480315
 30
0.0
 10
34.29133858267716
 20
82.8740157480315
 30
0.0
  0
POLYLINE
  5
A3
330
17
100
AcDbEntity
  8
Front elevation
100
AcDb2dPolyline
 66
1
 10
0.0
 20
0.0
 30
0.0
 70
0
  0
VERTEX
  5
A4
330
A3
100
AcDbEntity
  8
Front elevation
100
AcDbVertex
100
AcDb2dVertex
 10
34.29133858267716
 20
82.8740157480315
 30
0.0
 70
0
  0
VERTEX
  5
A5
330
A3
100
AcDbEntity
  8
Front elevation
100
AcDbVertex
100
AcDb2dVertex
 10
34.29133858267716
 20
46.417322834645674
 30
0.0
 70
0
  0
SEQEND
  5
A6
330
A3
100
AcDbEntity
  8
Front elevation
  0
SPLINE
  5
A7
330
17
100
AcDbEntity
  8
Front elevation
100
AcDbSpline
 70
0
 71
3
 72
14
 73
10
 74
0
 40
0.0
 40
0.0
 40
0.0
 40
0.0
 40
1.0
 40
1.0
 40
1.0
 40
2.0
 40
2.0
 40
2.0
 40
3.0
 40
3.0
 40
3.0
 40
3.0
 10
34.29133858267716
 20
46.417322834645674
 30
0.0
 10
34.11166876091097
 20
46.417322834645674
 30
0.0
 10
33.93512618899806
 20
46.37001839507189
 30
0.0
 10
33.77952755905512
 20
46.2801834841888
 30
0.0
 10
33.623928929112175
 20
46.190348573305705
 30
0.0
 10
33.49469079677304
 20
46.06111044096657
 30
0.0
 10
33.404855885889944
 20
45.90551181102363
 30
0.0
 10
33.315020975006846
 20
45.74991318108068
 30
0.0
 10
33.267716535433074
 20
45.573370609167775
 30
0.0
 10
33.267716535433074
 20
45.39370078740158
 30
0.0
  0
SPLINE
  5
A8
330
17
100
AcDbEntity
  8
Front elevation
100
AcDbSpline
 70
0
 71
3
 72
11
 73
7
 74
0
 40
0.0
 40
0.0
 40
0.0
 40
0.0
 40
1.0
 40
1.0
 40
1.0
 40
2.0
 40
2.0
 40
2.0
 40
2.0
 10
33.267716535433074
 20
45.39370078740158
 30
0.0
 10
29.153543307086615
 20
45.39370078740158
 30
0.0
 10
30.140944881889766
 20
44.05511811023622
 30
0.0
 10
25.039370078740156
 20
44.05511811023622
 30
0.0
 10
19.937795275590553
 20
44.05511811023622
 30
0.0
 10
20.9251968503937
 20
45.39370078740158
 30
0.0
 10
16.811023622047244
 20
45.39370078740158
 30
0.0
  0
SPLINE
  5
A9
330
17
100
AcDbEntity
  8
Front elevation
100
AcDbSpline
 70
0
 71
3
 72
14
 73
10
 74
0
 40
0.0
 40
0.0
 40
0.0
 40
0.0
 40
1.0
 40
1.0
 40
1.0
 40
2.0
 40
2.0
 40
2.0
 40
3.0
 40
3.0
 40
3.0
 40
3.0
 10
16.811023622047244
 20
45.39370078740158
 30
0.0
 10
16.811023622047244
 20
45.573370609167775
 30
0.0
 10
16.763719182473466
 20
45.74991318108068
 30
0.0
 10
16.67388427159037
 20
45.90551181102363
 30
0.0
 10
16.584049360707272
 20
46.06111044096657
 30
0.0
 10
16.454811228368143
 20
46.190348573305705
 30
0.0
 10
16.299212598425196
 20
46.2801834841888
 30
0.0
 10
16.14361396848225
 20
46.37001839507189
 30
0.0
 10
15.967071396569343
 20
46.417322834645674
 30
0.0
 10
15.787401574803148
 20
46.417322834645674
 30
0.0
  0
CIRCLE
  5
AA
330
17
100
AcDbEntity
  8
Front elevation
100
AcDbCircle
 10
15.88976377952756
 20
84.0
 30
0.0
 40
9.0
  0
CIRCLE
  5
AB
330
17
100
AcDbEntity
  8
Front elevation
100
AcDbCircle
 10
15.88976377952756
 20
84.0
 30
0.0
 40
3.6
  0
CIRCLE
  5
AC
330
17
100
AcDbEntity
  8
Front elevation
100
AcDbCircle
 10
34.188976377952756
 20
84.0
 30
0.0
 40
9.0
  0
CIRCLE
  5
AD
330
17
100
AcDbEntity
  8
Front elevation
100
AcDbCircle
 10
34.188976377952756
 20
84.0
 30
0.0
 40
3.6
  0
CIRCLE
  5
AE
330
17
100
AcDbEntity
  8
Front elevation
100
AcDbCircle
 10
15.88976377952756
 20
45.29133858267717
 30
0.0
 40
9.0
  0
CIRCLE
  5
AF
330
17
100
AcDbEntity
  8
Front elevation
100
AcDbCircle
 10
15.88976377952756
 20
45.29133858267717
 30
0.0
 40
3.6
  0
CIRCLE
  5
B0
330
17
100
AcDbEntity
  8
Front elevation
100
AcDbCircle
 10
34.188976377952756
 20
45.29133858267717
 30
0.0
 40
9.0
  0
CIRCLE
  5
B1
330
17
100
AcDbEntity
  8
Front elevation
100
AcDbCircle
 10
34.188976377952756
 20
45.29133858267717
 30
0.0
 40
3.6
  0
LWPOLYLINE
  5
B2
330
17
100
AcDbEntity
  8
Front elevation
100
AcDbPolyline
 90
5
 70
0
 10
13.976377952755906
 20
33.18897637795276
 10
36.10236220472441
 20
33.18897637795276
 10
36.10236220472441
 20
9.055118110236222
 10
13.976377952755906
 20
9.055118110236222
 10
13.976377952755906
 20
33.18897637795276
  0
LWPOLYLINE
  5
B3
330
17
100
AcDbEntity
  8
Front elevation
100
AcDbPolyline
 90
5
 70
0
 10
14.763779527559056
 20
32.40157480314961
 10
35.31496062992126
 20
32.40157480314961
 10
35.31496062992126
 20
9.842519685039377
 10
14.763779527559056
 20
9.842519685039377
 10
14.763779527559056
 20
32.40157480314961
  0
LINE
  5
B4
330
17
100
AcDbEntity
  8
Front elevation
100
AcDbLine
 10
13.976377952755906
 20
33.188976377952756
 30
0.0
 11
14.763779527559056
 21
32.40157480314961
 31
0.0
  0
LINE
  5
B5
330
17
100
AcDbEntity
  8
Front elevation
100
AcDbLine
 10
36.10236220472441
 20
33.188976377952756
 30
0.0
 11
35.31496062992126
 21
32.40157480314961
 31
0.0
  0
LINE
  5
B6
330
17
100
AcDbEntity
  8
Front elevation
100
AcDbLine
 10
13.976377952755906
 20
9.05511811023622
 30
0.0
 11
14.763779527559056
 21
9.84251968503937
 31
0.0
  0
LINE
  5
B7
330
17
100
AcDbEntity
  8
Front elevation
100
AcDbLine
 10
36.10236220472441
 20
9.05511811023622
 30
0.0
 11
35.31496062992126
 21
9.84251968503937
 31
0.0
  0
POLYLINE
  5
B8
330
17
100
AcDbEntity
  8
Front elevation
100
AcDb2dPolyline
 66
1
 10
0.0
 20
0.0
 30
0.0
 70
0
  0
VERTEX
  5
B9
330
B8
100
AcDbEntity
  8
Front elevation
100
AcDbVertex
100
AcDb2dVertex
 10
15.787401574803148
 20
13.228346456692918
 30
0.0
 70
0
  0
VERTEX
  5
BA
330
B8
100
AcDbEntity
  8
Front elevation
100
AcDbVertex
100
AcDb2dVertex
 10
15.787401574803148
 20
29.015748031496067
 30
0.0
 70
0
  0
SEQEND
  5
BB
330
B8
100
AcDbEntity
  8
Front elevation
  0
SPLINE
  5
BC
330
17
100
AcDbEntity
  8
Front elevation
100
AcDbSpline
 70
0
 71
3
 72
14
 73
10
 74
0
 40
0.0
 40
0.0
 40
0.0
 40
0.0
 40
1.0
 40
1.0
 40
1.0
 40
2.0
 40
2.0
 40
2.0
 40
3.0
 40
3.0
 40
3.0
 40
3.0
 10
15.787401574803148
 20
29.015748031496067
 30
0.0
 10
15.967071396569343
 20
29.015748031496067
 30
0.0
 10
16.14361396848225
 20
29.063052471069852
 30
0.0
 10
16.299212598425196
 20
29.152887381952944
 30
0.0
 10
16.454811228368143
 20
29.242722292836035
 30
0.0
 10
16.584049360707272
 20
29.371960425175168
 30
0.0
 10
16.67388427159037
 20
29.527559055118118
 30
0.0
 10
16.763719182473466
 20
29.68315768506106
 30
0.0
 10
16.811023622047244
 20
29.859700256973966
 30
0.0
 10
16.811023622047244
 20
30.039370078740163
 30
0.0
  0
SPLINE
  5
BD
330
17
100
AcDbEntity
  8
Front elevation
100
AcDbSpline
 70
0
 71
3
 72
11
 73
7
 74
0
 40
0.0
 40
0.0
 40
0.0
 40
0.0
 40
1.0
 40
1.0
 40
1.0
 40
2.0
 40
2.0
 40
2.0
 40
2.0
 10
16.811023622047244
 20
30.039370078740163
 30
0.0
 10
20.9251968503937
 20
30.039370078740163
 30
0.0
 10
19.937795275590553
 20
31.37795275590552
 30
0.0
 10
25.039370078740156
 20
31.37795275590552
 30
0.0
 10
30.140944881889766
 20
31.37795275590552
 30
0.0
 10
29.153543307086615
 20
30.039370078740163
 30
0.0
 10
33.267716535433074
 20
30.039370078740163
 30
0.0
  0
SPLINE
  5
BE
330
17
100
AcDbEntity
  8
Front elevation
100
AcDbSpline
 70
0
 71
3
 72
14
 73
10
 74
0
 40
0.0
 40
0.0
 40
0.0
 40
0.0
 40
1.0
 40
1.0
 40
1.0
 40
2.0
 40
2.0
 40
2.0
 40
3.0
 40
3.0
 40
3.0
 40
3.0
 10
33.267716535433074
 20
30.039370078740163
 30
0.0
 10
33.267716535433074
 20
29.859700256973966
 30
0.0
 10
33.315020975006846
 20
29.68315768506106
 30
0.0
 10
33.404855885889944
 20
29.527559055118118
 30
0.0
 10
33.49469079677304
 20
29.371960425175168
 30
0.0
 10
33.623928929112175
 20
29.242722292836035
 30
0.0
 10
33.77952755905512
 20
29.152887381952944
 30
0.0
 10
33.93512618899806
 20
29.063052471069852
 30
0.0
 10
34.11166876091097
 20
29.015748031496067
 30
0.0
 10
34.29133858267716
 20
29.015748031496067
 30
0.0
  0
POLYLINE
  5
BF
330
17
100
AcDbEntity
  8
Front elevation
100
AcDb2dPolyline
 66
1
 10
0.0
 20
0.0
 30
0.0
 70
0
  0
VERTEX
  5
C0
330
BF
100
AcDbEntity
  8
Front elevation
100
AcDbVertex
100
AcDb2dVertex
 10
34.29133858267716
 20
29.015748031496067
 30
0.0
 70
0
  0
VERTEX
  5
C1
330
BF
100
AcDbEntity
  8
Front elevation
100
AcDbVertex
100
AcDb2dVertex
 10
34.29133858267716
 20
13.228346456692918
 30
0.0
 70
0
  0
SEQEND
  5
C2
330
BF
100
AcDbEntity
  8
Front elevation
  0
SPLINE
  5
C3
330
17
100
AcDbEntity
  8
Front elevation
100
AcDbSpline
 70
0
 71
3
 72
14
 73
10
 74
0
 40
0.0
 40
0.0
 40
0.0
 40
0.0
 40
1.0
 40
1.0
 40
1.0
 40
2.0
 40
2.0
 40
2.0
 40
3.0
 40
3.0
 40
3.0
 40
3.0
 10
34.29133858267716
 20
13.228346456692918
 30
0.0
 10
34.11166876091097
 20
13.228346456692918
 30
0.0
 10
33.93512618899806
 20
13.18104201711914
 30
0.0
 10
33.77952755905512
 20
13.091207106236041
 30
0.0
 10
33.623928929112175
 20
13.001372195352957
 30
0.0
 10
33.49469079677304
 20
12.872134063013817
 30
0.0
 10
33.404855885889944
 20
12.716535433070874
 30
0.0
 10
33.315020975006846
 20
12.560936803127916
 30
0.0
 10
33.267716535433074
 20
12.384394231215012
 30
0.0
 10
33.267716535433074
 20
12.20472440944883
 30
0.0
  0
SPLINE
  5
C4
330
17
100
AcDbEntity
  8
Front elevation
100
AcDbSpline
 70
0
 71
3
 72
11
 73
7
 74
0
 40
0.0
 40
0.0
 40
0.0
 40
0.0
 40
1.0
 40
1.0
 40
1.0
 40
2.0
 40
2.0
 40
2.0
 40
2.0
 10
33.267716535433074
 20
12.20472440944883
 30
0.0
 10
29.153543307086615
 20
12.20472440944883
 30
0.0
 10
30.140944881889766
 20
10.866141732283467
 30
0.0
 10
25.039370078740156
 20
10.866141732283467
 30
0.0
 10
19.937795275590553
 20
10.866141732283467
 30
0.0
 10
20.9251968503937
 20
12.20472440944883
 30
0.0
 10
16.811023622047244
 20
12.20472440944883
 30
0.0
  0
SPLINE
  5
C5
330
17
100
AcDbEntity
  8
Front elevation
100
AcDbSpline
 70
0
 71
3
 72
14
 73
10
 74
0
 40
0.0
 40
0.0
 40
0.0
 40
0.0
 40
1.0
 40
1.0
 40
1.0
 40
2.0
 40
2.0
 40
2.0
 40
3.0
 40
3.0
 40
3.0
 40
3.0
 10
16.811023622047244
 20
12.20472440944883
 30
0.0
 10
16.811023622047244
 20
12.384394231215012
 30
0.0
 10
16.763719182473466
 20
12.560936803127916
 30
0.0
 10
16.67388427159037
 20
12.716535433070874
 30
0.0
 10
16.584049360707272
 20
12.872134063013817
 30
0.0
 10
16.454811228368143
 20
13.001372195352957
 30
0.0
 10
16.299212598425196
 20
13.091207106236041
 30
0.0
 10
16.14361396848225
 20
13.18104201711914
 30
0.0
 10
15.967071396569343
 20
13.228346456692918
 30
0.0
 10
15.787401574803148
 20
13.228346456692918
 30
0.0
  0
CIRCLE
  5
C6
330
17
100
AcDbEntity
  8
Front elevation
100
AcDbCircle
 10
15.88976377952756
 20
30.141732283464563
 30
0.0
 40
9.0
  0
CIRCLE
  5
C7
330
17
100
AcDbEntity
  8
Front elevation
100
AcDbCircle
 10
15.88976377952756
 20
30.141732283464563
 30
0.0
 40
3.6
  0
CIRCLE
  5
C8
330
17
100
AcDbEntity
  8
Front elevation
100
AcDbCircle
 10
34.188976377952756
 20
30.141732283464563
 30
0.0
 40
9.0
  0
CIRCLE
  5
C9
330
17
100
AcDbEntity
  8
Front elevation
100
AcDbCircle
 10
34.188976377952756
 20
30.141732283464563
 30
0.0
 40
3.6
  0
CIRCLE
  5
CA
330
17
100
AcDbEntity
  8
Front elevation
100
AcDbCircle
 10
15.88976377952756
 20
12.102362204724413
 30
0.0
 40
9.0
  0
CIRCLE
  5
CB
330
17
100
AcDbEntity
  8
Front elevation
100
AcDbCircle
 10
15.88976377952756
 20
12.102362204724413
 30
0.0
 40
3.6
  0
CIRCLE
  5
CC
330
17
100
AcDbEntity
  8
Front elevation
100
AcDbCircle
 10
34.188976377952756
 20
12.102362204724413
 30
0.0
 40
9.0
  0
CIRCLE
  5
CD
330
17
100
AcDbEntity
  8
Front elevation
100
AcDbCircle
 10
34.188976377952756
 20
12.102362204724413
 30
0.0
 40
3.6
  0
CIRCLE
  5
CE
330
17
100
AcDbEntity
  8
Front elevation
100
AcDbCircle
 10
15.15748031496063
 20
37.71653543307087
 30
0.0
 40
27.5
  0
CIRCLE
  5
CF
330
17
100
AcDbEntity
  8
Front elevation
100
AcDbCircle
 10
15.15748031496063
 20
37.71653543307087
 30
0.0
 40
17.5
  0
CIRCLE
  5
D0
330
17
100
AcDbEntity
  8
Front elevation
100
AcDbCircle
 10
11.692913385826772
 20
37.71653543307087
 30
0.0
 40
17.0
  0
SPLINE
  5
D1
330
17
100
AcDbEntity
  8
Front elevation
100
AcDbSpline
 70
0
 71
3
 72
35
 73
31
 74
0
 40
0.0
 40
0.0
 40
0.0
 40
0.0
 40
1.0
 40
1.0
 40
1.0
 40
2.0
 40
2.0
 40
2.0
 40
3.0
 40
3.0
 40
3.0
 40
4.0
 40
4.0
 40
4.0
 40
5.0
 40
5.0
 40
5.0
 40
6.0
 40
6.0
 40
6.0
 40
7.0
 40
7.0
 40
7.0
 40
8.0
 40
8.0
 40
8.0
 40
9.0
 40
9.0
 40
9.0
 40
10.0
 40
10.0
 40
10.0
 40
10.0
 10
11.5748031496063
 20
37.75590551181103
 30
0.0
 10
11.553468108285827
 20
37.774988152889165
 30
0.0
 10
11.537072164112237
 20
37.79896009865495
 30
0.0
 10
11.527023630312252
 20
37.825762302801884
 30
0.0
 10
11.516975096512267
 20
37.852564506948816
 30
0.0
 10
11.51357015612139
 20
37.8814069678368
 30
0.0
 10
11.517101273089112
 20
37.9098122911341
 30
0.0
 10
11.520632390056834
 20
37.938217614431395
 30
0.0
 10
11.5309954838314
 20
37.9653485461618
 30
0.0
 10
11.547300426837484
 20
37.98887470207882
 30
0.0
 10
11.56360536984357
 20
38.01240085799583
 30
0.0
 10
11.585371569826679
 20
38.031628798796554
 30
0.0
 10
11.610729440808292
 20
38.04490695973635
 30
0.0
 10
11.636087311789906
 20
38.05818512067615
 30
0.0
 10
11.664289424209569
 20
38.0651221246555
 30
0.0
 10
11.692913385826776
 20
38.0651221246555
 30
0.0
 10
11.721537347443984
 20
38.0651221246555
 30
0.0
 10
11.749739459863646
 20
38.05818512067615
 30
0.0
 10
11.77509733084526
 20
38.04490695973635
 30
0.0
 10
11.800455201826871
 20
38.031628798796554
 30
0.0
 10
11.82222140180998
 20
38.01240085799582
 30
0.0
 10
11.838526344816064
 20
37.98887470207881
 30
0.0
 10
11.854831287822147
 20
37.96534854616179
 30
0.0
 10
11.865194381596712
 20
37.93821761443139
 30
0.0
 10
11.868725498564432
 20
37.90981229113409
 30
0.0
 10
11.872256615532153
 20
37.881406967836796
 30
0.0
 10
11.868851675141274
 20
37.8525645069488
 30
0.0
 10
11.858803141341287
 20
37.82576230280188
 30
0.0
 10
11.848754607541302
 20
37.798960098654945
 30
0.0
 10
11.832358663367717
 20
37.774988152889165
 30
0.0
 10
11.811023622047244
 20
37.75590551181103
 30
0.0
  0
POLYLINE
  5
D2
330
17
100
AcDbEntity
  8
Front elevation
100
AcDb2dPolyline
 66
1
 10
0.0
 20
0.0
 30
0.0
 70
0
  0
VERTEX
  5
D3
330
D2
100
AcDbEntity
  8
Front elevation
100
AcDbVertex
100
AcDb2dVertex
 10
11.811023622047244
 20
37.75590551181103
 30
0.0
 70
0
  0
VERTEX
  5
D4
330
D2
100
AcDbEntity
  8
Front elevation
100
AcDbVertex
100
AcDb2dVertex
 10
11.87007874015748
 20
37.322834645669296
 30
0.0
 70
0
  0
VERTEX
  5
D5
330
D2
100
AcDbEntity
  8
Front elevation
100
AcDbVertex
100
AcDb2dVertex
 10
11.515748031496063
 20
37.322834645669296
 30
0.0
 70
0
  0
VERTEX
  5
D6
330
D2
100
AcDbEntity
  8
Front elevation
100
AcDbVertex
100
AcDb2dVertex
 10
11.5748031496063
 20
37.75590551181103
 30
0.0
 70
0
  0
SEQEND
  5
D7
330
D2
100
AcDbEntity
  8
Front elevation
  0
LINE
  5
D8
330
17
100
AcDbEntity
  8
Front elevation
100
AcDbLine
 10
0.0
 20
0.0
 30
0.0
 11
50.07874015748031
 21
0.0
 31
0.0
  0
TEXT
  5
D9
330
17
100
AcDbEntity
  8
LABELS
100
AcDbText
 10
0.0
 20
96.2992125984252
 30
0.0
 40
1.0015748031496063
  1
FRONT ELEVATION  (1:1, inches)
 11
0.0
 21
96.2992125984252
 31
0.0
100
AcDbText
  0
LWPOLYLINE
  5
DC
330
17
100
AcDbEntity
  8
Panel head - detail A
100
AcDbPolyline
 90
2
 70
0
 10
61.69291338582677
 20
8.937007874015748
 10
61.69291338582677
 20
7.362204724409449
  0
LWPOLYLINE
  5
DD
330
17
100
AcDbEntity
  8
Panel head - detail A
100
AcDbPolyline
 90
2
 70
0
 10
83.81889763779527
 20
8.937007874015748
 10
83.81889763779527
 20
7.362204724409449
  0
LWPOLYLINE
  5
DE
330
17
100
AcDbEntity
  8
Panel head - detail A
100
AcDbPolyline
 90
3
 70
0
 10
61.69291338582677
 20
7.362204724409449
 10
83.81889763779527
 20
7.362204724409449
 10
83.81889763779527
 20
0.47244094488188976
  0
LWPOLYLINE
  5
DF
330
17
100
AcDbEntity
  8
Panel head - detail A
100
AcDbPolyline
 90
2
 70
0
 10
61.69291338582677
 20
0.47244094488188976
 10
61.69291338582677
 20
7.362204724409449
  0
LWPOLYLINE
  5
E0
330
17
100
AcDbEntity
  8
Panel head - detail A
100
AcDbPolyline
 90
3
 70
0
 10
62.48031496062992
 20
6.574803149606299
 10
83.03149606299212
 20
6.574803149606299
 10
83.03149606299212
 20
0.47244094488188976
  0
LWPOLYLINE
  5
E1
330
17
100
AcDbEntity
  8
Panel head - detail A
100
AcDbPolyline
 90
2
 70
0
 10
62.48031496062992
 20
0.47244094488188976
 10
62.48031496062992
 20
6.574803149606299
  0
LWPOLYLINE
  5
E2
330
17
100
AcDbEntity
  8
Panel head - detail A
100
AcDbPolyline
 90
2
 70
0
 10
61.69291338582677
 20
7.362204724409449
 10
62.48031496062992
 20
6.574803149606299
  0
LWPOLYLINE
  5
E3
330
17
100
AcDbEntity
  8
Panel head - detail A
100
AcDbPolyline
 90
2
 70
0
 10
83.81889763779527
 20
7.362204724409449
 10
83.03149606299212
 20
6.574803149606299
  0
LWPOLYLINE
  5
E4
330
17
100
AcDbEntity
  8
Panel head - detail A
100
AcDbPolyline
 90
79
 70
0
 10
63.503937007874015
 20
0.47244094488188976
 10
63.503937007874015
 20
3.188976377952756
 10
63.63782462903684
 20
3.1977713671187074
 10
63.76886921661876
 20
3.2238579616000314
 10
63.89540045573381
 20
3.2667886018719368
 10
64.01574803149606
 20
3.32611572840963
 10
64.12730061809236
 20
3.4006762230347682
 10
64.2277452627261
 20
3.4887901703447732
 10
64.3158592100361
 20
3.5892348149785
 10
64.39041970466124
 20
3.7007874015748032
 10
64.44974683119894
 20
3.8211349773370578
 10
64.49267747147083
 20
3.9476662164521086
 10
64.51876406595215
 20
4.07871080403402
 10
64.5275590551181
 20
4.21259842519685
 10
64.89865828386442
 20
4.216438353531004
 10
65.24191452386812
 20
4.227631336122047
 10
65.55937682624877
 20
4.245687169352855
 10
65.85309424212599
 20
4.270115649606299
 10
66.12511582261934
 20
4.300426573265256
 10
66.37749061884843
 20
4.336129736712598
 10
66.61226768193282
 20
4.376734936331201
 10
66.83149606299213
 20
4.421751968503937
 10
67.03722481314591
 20
4.4706906296136815
 10
67.23150298351378
 20
4.523060716043307
 10
67.59390378937007
 20
4.636134350393701
 10
68.27145669291339
 20
4.881889763779528
 10
68.61939360851378
 20
5.0067282849409445
 10
68.99529404527559
 20
5.127645177165355
 10
69.19885321189099
 20
5.185407503383366
 10
69.41555041215551
 20
5.240718811515748
 10
69.64743469718873
 20
5.293088897945374
 10
69.89655511811023
 20
5.342027559055118
 10
70.16496072603961
 20
5.387044591227855
 10
70.45470057209646
 20
5.4276497908464565
 10
70.76782370740035
 20
5.463352954293799
 10
71.10637918307087
 20
5.493663877952756
 10
71.47241605022761
 20
5.518092358206201
 10
71.86798335999016
 20
5.536148191437007
 10
72.29513016347809
 20
5.547341174028051
 10
72.75590551181102
 20
5.551181102362205
 10
73.21668086014395
 20
5.547341174028051
 10
73.64382766363188
 20
5.536148191437007
 10
74.03939497339444
 20
5.518092358206201
 10
74.40543184055119
 20
5.493663877952756
 10
74.74398731622169
 20
5.463352954293799
 10
75.05711045152559
 20
5.4276497908464565
 10
75.34685029758244
 20
5.387044591227855
 10
75.61525590551182
 20
5.342027559055118
 10
75.86437632643332
 20
5.293088897945374
 10
76.09626061146653
 20
5.240718811515748
 10
76.31295781173105
 20
5.185407503383366
 10
76.51651697834646
 20
5.127645177165355
 10
76.89241741510827
 20
5.0067282849409445
 10
77.24035433070866
 20
4.881889763779528
 10
77.91790723425197
 20
4.636134350393701
 10
78.28030804010827
 20
4.523060716043307
 10
78.47458621047613
 20
4.4706906296136815
 10
78.68031496062991
 20
4.421751968503937
 10
78.89954334168922
 20
4.376734936331201
 10
79.13432040477362
 20
4.336129736712598
 10
79.38669520100271
 20
4.300426573265256
 10
79.65871678149605
 20
4.270115649606299
 10
79.95243419737328
 20
4.245687169352855
 10
80.26989649975393
 20
4.227631336122047
 10
80.61315273975762
 20
4.216438353531004
 10
80.98425196850394
 20
4.21259842519685
 10
80.99304695766989
 20
4.07871080403402
 10
81.01913355215122
 20
3.9476662164521086
 10
81.06206419242311
 20
3.8211349773370578
 10
81.12139131896082
 20
3.7007874015748032
 10
81.19595181358596
 20
3.5892348149785
 10
81.28406576089594
 20
3.4887901703447732
 10
81.38451040552968
 20
3.4006762230347682
 10
81.49606299212599
 20
3.32611572840963
 10
81.61641056788824
 20
3.2667886018719368
 10
81.74294180700329
 20
3.2238579616000314
 10
81.8739863945852
 20
3.1977713671187074
 10
82.00787401574803
 20
3.188976377952756
 10
82.00787401574803
 20
0.47244094488188976
  0
LWPOLYLINE
  5
E5
330
17
100
AcDbEntity
  8
Panel head - detail A
100
AcDbPolyline
 90
49
 70
0
 10
63.96062992125984
 20
4.314960629921259
 10
63.95758550193317
 20
4.268614914903356
 10
63.9485555269204
 20
4.223253326894234
 10
63.93369492067244
 20
4.179454051815947
 10
63.913158607640156
 20
4.137795275590551
 10
63.88734920565453
 20
4.0991809186918315
 10
63.85684822389338
 20
4.06441161862631
 10
63.82207892382785
 20
4.033910636865155
 10
63.783464566929126
 20
4.008101234879529
 10
63.74180579070374
 20
3.9875649218472504
 10
63.69800651562545
 20
3.9727043155992834
 10
63.65264492761633
 20
3.9636743405865174
 10
63.60629921259842
 20
3.960629921259842
 10
63.55995349758052
 20
3.9636743405865174
 10
63.5145919095714
 20
3.9727043155992834
 10
63.47079263449311
 20
3.9875649218472504
 10
63.42913385826771
 20
4.008101234879529
 10
63.39051950136899
 20
4.033910636865155
 10
63.35575020130347
 20
4.06441161862631
 10
63.32524921954232
 20
4.0991809186918315
 10
63.299439817556696
 20
4.137795275590551
 10
63.278903504524415
 20
4.179454051815947
 10
63.26404289827644
 20
4.223253326894234
 10
63.25501292326368
 20
4.268614914903356
 10
63.251968503937
 20
4.314960629921259
 10
63.25501292326368
 20
4.3613063449391625
 10
63.26404289827644
 20
4.406667932948285
 10
63.278903504524415
 20
4.450467208026572
 10
63.299439817556696
 20
4.4921259842519685
 10
63.32524921954232
 20
4.530740341150688
 10
63.35575020130347
 20
4.565509641216209
 10
63.39051950136899
 20
4.5960106229773645
 10
63.42913385826771
 20
4.6218200249629895
 10
63.47079263449311
 20
4.642356337995269
 10
63.5145919095714
 20
4.657216944243236
 10
63.55995349758052
 20
4.666246919256001
 10
63.60629921259842
 20
4.669291338582677
 10
63.65264492761633
 20
4.666246919256001
 10
63.69800651562545
 20
4.657216944243236
 10
63.74180579070374
 20
4.642356337995269
 10
63.783464566929126
 20
4.6218200249629895
 10
63.82207892382785
 20
4.5960106229773645
 10
63.85684822389338
 20
4.565509641216209
 10
63.88734920565453
 20
4.530740341150688
 10
63.913158607640156
 20
4.4921259842519685
 10
63.93369492067244
 20
4.450467208026572
 10
63.9485555269204
 20
4.406667932948285
 10
63.95758550193317
 20
4.3613063449391625
 10
63.96062992125984
 20
4.314960629921259
  0
LWPOLYLINE
  5
E6
330
17
100
AcDbEntity
  8
Panel head - detail A
100
AcDbPolyline
 90
49
 70
0
 10
63.74803149606299
 20
4.314960629921259
 10
63.74681372833232
 20
4.2964223439141
 10
63.74320173832721
 20
4.2782777087104495
 10
63.73725749582803
 20
4.260757998679135
 10
63.72904297061512
 20
4.244094488188977
 10
63.71871920982086
 20
4.2286487454294885
 10
63.706518817116404
 20
4.21474102540328
 10
63.69261109709019
 20
4.202540632698818
 10
63.67716535433071
 20
4.192216871904568
 10
63.66050184384055
 20
4.184002346691656
 10
63.642982133809234
 20
4.17805810419247
 10
63.62483749860559
 20
4.174446114187362
 10
63.60629921259842
 20
4.173228346456693
 10
63.587760926591265
 20
4.174446114187362
 10
63.56961629138761
 20
4.17805810419247
 10
63.552096581356295
 20
4.184002346691656
 10
63.53543307086614
 20
4.192216871904568
 10
63.51998732810665
 20
4.202540632698818
 10
63.50607960808045
 20
4.21474102540328
 10
63.493879215375976
 20
4.2286487454294885
 10
63.48355545458173
 20
4.244094488188976
 10
63.47534092936882
 20
4.260757998679134
 10
63.46939668686963
 20
4.2782777087104495
 10
63.46578469686453
 20
4.296422343914098
 10
63.46456692913386
 20
4.314960629921259
 10
63.46578469686453
 20
4.33349891592842
 10
63.46939668686963
 20
4.35164355113207
 10
63.47534092936882
 20
4.369163261163384
 10
63.48355545458173
 20
4.385826771653543
 10
63.493879215375976
 20
4.401272514413031
 10
63.50607960808045
 20
4.415180234439239
 10
63.51998732810665
 20
4.427380627143701
 10
63.53543307086614
 20
4.437704387937951
 10
63.552096581356295
 20
4.445918913150862
 10
63.56961629138761
 20
4.45186315565005
 10
63.587760926591265
 20
4.455475145655156
 10
63.60629921259842
 20
4.456692913385826
 10
63.62483749860559
 20
4.455475145655156
 10
63.642982133809234
 20
4.45186315565005
 10
63.66050184384055
 20
4.445918913150862
 10
63.67716535433071
 20
4.437704387937951
 10
63.69261109709019
 20
4.427380627143701
 10
63.706518817116404
 20
4.415180234439239
 10
63.71871920982086
 20
4.401272514413031
 10
63.72904297061512
 20
4.3858267716535435
 10
63.73725749582803
 20
4.369163261163385
 10
63.74320173832721
 20
4.35164355113207
 10
63.74681372833232
 20
4.333498915928421
 10
63.74803149606299
 20
4.314960629921259
  0
LWPOLYLINE
  5
E7
330
17
100
AcDbEntity
  8
Panel head - detail A
100
AcDbPolyline
 90
49
 70
0
 10
82.25984251968504
 20
4.314960629921259
 10
82.25679810035837
 20
4.268614914903356
 10
82.2477681253456
 20
4.223253326894234
 10
82.23290751909762
 20
4.179454051815947
 10
82.21237120606536
 20
4.137795275590551
 10
82.18656180407973
 20
4.0991809186918315
 10
82.15606082231857
 20
4.06441161862631
 10
82.12129152225305
 20
4.033910636865155
 10
82.08267716535433
 20
4.008101234879529
 10
82.04101838912894
 20
3.9875649218472504
 10
81.99721911405064
 20
3.9727043155992834
 10
81.95185752604154
 20
3.9636743405865174
 10
81.90551181102363
 20
3.960629921259842
 10
81.85916609600572
 20
3.9636743405865174
 10
81.8138045079966
 20
3.9727043155992834
 10
81.77000523291831
 20
3.9875649218472504
 10
81.72834645669292
 20
4.008101234879529
 10
81.6897320997942
 20
4.033910636865155
 10
81.65496279972868
 20
4.06441161862631
 10
81.62446181796751
 20
4.0991809186918315
 10
81.5986524159819
 20
4.137795275590551
 10
81.57811610294961
 20
4.179454051815947
 10
81.56325549670164
 20
4.223253326894234
 10
81.55422552168888
 20
4.268614914903356
 10
81.55118110236221
 20
4.314960629921259
 10
81.55422552168888
 20
4.3613063449391625
 10
81.56325549670164
 20
4.406667932948285
 10
81.57811610294961
 20
4.450467208026572
 10
81.5986524159819
 20
4.4921259842519685
 10
81.62446181796751
 20
4.530740341150688
 10
81.65496279972866
 20
4.565509641216209
 10
81.6897320997942
 20
4.5960106229773645
 10
81.72834645669292
 20
4.6218200249629895
 10
81.77000523291831
 20
4.642356337995269
 10
81.8138045079966
 20
4.657216944243236
 10
81.85916609600572
 20
4.666246919256001
 10
81.90551181102363
 20
4.669291338582677
 10
81.95185752604154
 20
4.666246919256001
 10
81.99721911405064
 20
4.657216944243236
 10
82.04101838912894
 20
4.642356337995269
 10
82.08267716535433
 20
4.6218200249629895
 10
82.12129152225305
 20
4.5960106229773645
 10
82.15606082231857
 20
4.565509641216209
 10
82.18656180407973
 20
4.530740341150688
 10
82.21237120606536
 20
4.4921259842519685
 10
82.23290751909762
 20
4.450467208026572
 10
82.24776812534559
 20
4.406667932948285
 10
82.25679810035837
 20
4.3613063449391625
 10
82.25984251968504
 20
4.314960629921259
  0
LWPOLYLINE
  5
E8
330
17
100
AcDbEntity
  8
Panel head - detail A
100
AcDbPolyline
 90
49
 70
0
 10
82.04724409448819
 20
4.314960629921259
 10
82.04602632675751
 20
4.2964223439141
 10
82.04241433675242
 20
4.2782777087104495
 10
82.03647009425322
 20
4.260757998679135
 10
82.02825556904033
 20
4.244094488188977
 10
82.01793180824606
 20
4.2286487454294885
 10
82.00573141554162
 20
4.21474102540328
 10
81.9918236955154
 20
4.202540632698818
 10
81.9763779527559
 20
4.192216871904568
 10
81.95971444226575
 20
4.184002346691656
 10
81.94219473223443
 20
4.17805810419247
 10
81.92405009703079
 20
4.174446114187362
 10
81.90551181102363
 20
4.173228346456693
 10
81.88697352501646
 20
4.174446114187362
 10
81.86882888981282
 20
4.17805810419247
 10
81.8513091797815
 20
4.184002346691656
 10
81.83464566929133
 20
4.192216871904568
 10
81.81919992653185
 20
4.202540632698818
 10
81.80529220650564
 20
4.21474102540328
 10
81.79309181380117
 20
4.2286487454294885
 10
81.78276805300693
 20
4.244094488188976
 10
81.77455352779401
 20
4.260757998679134
 10
81.76860928529483
 20
4.2782777087104495
 10
81.76499729528973
 20
4.296422343914098
 10
81.76377952755907
 20
4.314960629921259
 10
81.76499729528973
 20
4.33349891592842
 10
81.76860928529483
 20
4.35164355113207
 10
81.77455352779401
 20
4.369163261163384
 10
81.78276805300693
 20
4.385826771653543
 10
81.79309181380117
 20
4.401272514413031
 10
81.80529220650564
 20
4.415180234439239
 10
81.81919992653184
 20
4.427380627143701
 10
81.83464566929133
 20
4.437704387937951
 10
81.8513091797815
 20
4.445918913150862
 10
81.8688288898128
 20
4.45186315565005
 10
81.88697352501646
 20
4.455475145655156
 10
81.90551181102363
 20
4.456692913385826
 10
81.92405009703077
 20
4.455475145655156
 10
81.94219473223443
 20
4.45186315565005
 10
81.95971444226574
 20
4.445918913150862
 10
81.9763779527559
 20
4.437704387937951
 10
81.9918236955154
 20
4.427380627143701
 10
82.00573141554159
 20
4.415180234439239
 10
82.01793180824606
 20
4.401272514413031
 10
82.02825556904033
 20
4.3858267716535435
 10
82.03647009425322
 20
4.369163261163385
 10
82.04241433675242
 20
4.35164355113207
 10
82.04602632675751
 20
4.333498915928421
 10
82.04724409448819
 20
4.314960629921259
  0
LWPOLYLINE
  5
E9
330
17
100
AcDbEntity
  8
Panel head - detail A
100
AcDbPolyline
 90
6
 70
0
 10
59.92125984251968
 20
0.4724409448818889
 10
72.28346456692913
 20
0.4724409448818889
 10
72.5984251968504
 20
0.9448818897637796
 10
72.91338582677164
 20
0.0
 10
73.22834645669292
 20
0.4724409448818889
 10
85.59055118110236
 20
0.4724409448818889
  0
TEXT
  5
EA
330
17
100
AcDbEntity
  8
LABELS
100
AcDbText
 10
59.92125984251968
 20
11.299212598425196
 30
0.0
 40
0.7086614173228346
  1
PANEL HEAD - DETAIL A  (1:1, inches)
 11
59.92125984251968
 21
11.299212598425196
 31
0.0
100
AcDbText
  0
POLYLINE
  5
ED
330
17
100
AcDbEntity
  8
Section B-B
100
AcDb2dPolyline
 66
1
 10
0.0
 20
0.0
 30
0.0
 70
0
  0
VERTEX
  5
EE
330
ED
100
AcDbEntity
  8
Section B-B
100
AcDbVertex
100
AcDb2dVertex
 10
95.43307086614173
 20
1.7716535433070866
 30
0.0
 70
0
  0
VERTEX
  5
EF
330
ED
100
AcDbEntity
  8
Section B-B
100
AcDbVertex
100
AcDb2dVertex
 10
98.58267716535433
 20
1.7716535433070866
 30
0.0
 70
0
  0
VERTEX
  5
F0
330
ED
100
AcDbEntity
  8
Section B-B
100
AcDbVertex
100
AcDb2dVertex
 10
98.58267716535433
 20
1.6929133858267715
 30
0.0
 70
0
  0
SEQEND
  5
F1
330
ED
100
AcDbEntity
  8
Section B-B
  0
SPLINE
  5
F2
330
17
100
AcDbEntity
  8
Section B-B
100
AcDbSpline
 70
0
 71
3
 72
8
 73
4
 74
0
 40
0.0
 40
0.0
 40
0.0
 40
0.0
 40
1.0
 40
1.0
 40
1.0
 40
1.0
 10
98.58267716535433
 20
1.6929133858267715
 30
0.0
 10
99.10761154855643
 20
1.6929133858267715
 30
0.0
 10
99.37007874015748
 20
1.5419947506561678
 30
0.0
 10
99.37007874015748
 20
1.2401574803149606
 30
0.0
  0
POLYLINE
  5
F3
330
17
100
AcDbEntity
  8
Section B-B
100
AcDb2dPolyline
 66
1
 10
0.0
 20
0.0
 30
0.0
 70
0
  0
VERTEX
  5
F4
330
F3
100
AcDbEntity
  8
Section B-B
100
AcDbVertex
100
AcDb2dVertex
 10
99.37007874015748
 20
1.2401574803149606
 30
0.0
 70
0
  0
VERTEX
  5
F5
330
F3
100
AcDbEntity
  8
Section B-B
100
AcDbVertex
100
AcDb2dVertex
 10
99.37007874015748
 20
0.5314960629921259
 30
0.0
 70
0
  0
SEQEND
  5
F6
330
F3
100
AcDbEntity
  8
Section B-B
  0
SPLINE
  5
F7
330
17
100
AcDbEntity
  8
Section B-B
100
AcDbSpline
 70
0
 71
3
 72
8
 73
4
 74
0
 40
0.0
 40
0.0
 40
0.0
 40
0.0
 40
1.0
 40
1.0
 40
1.0
 40
1.0
 10
99.37007874015748
 20
0.5314960629921259
 30
0.0
 10
99.37007874015748
 20
0.2296587926509187
 30
0.0
 10
99.10761154855643
 20
0.07874015748031504
 30
0.0
 10
98.58267716535433
 20
0.07874015748031504
 30
0.0
  0
POLYLINE
  5
F8
330
17
100
AcDbEntity
  8
Section B-B
100
AcDb2dPolyline
 66
1
 10
0.0
 20
0.0
 30
0.0
 70
0
  0
VERTEX
  5
F9
330
F8
100
AcDbEntity
  8
Section B-B
100
AcDbVertex
100
AcDb2dVertex
 10
98.58267716535433
 20
0.07874015748031504
 30
0.0
 70
0
  0
VERTEX
  5
FA
330
F8
100
AcDbEntity
  8
Section B-B
100
AcDbVertex
100
AcDb2dVertex
 10
98.58267716535433
 20
0.0
 30
0.0
 70
0
  0
VERTEX
  5
FB
330
F8
100
AcDbEntity
  8
Section B-B
100
AcDbVertex
100
AcDb2dVertex
 10
95.43307086614173
 20
0.0
 30
0.0
 70
0
  0
VERTEX
  5
FC
330
F8
100
AcDbEntity
  8
Section B-B
100
AcDbVertex
100
AcDb2dVertex
 10
95.43307086614173
 20
1.7716535433070866
 30
0.0
 70
0
  0
SEQEND
  5
FD
330
F8
100
AcDbEntity
  8
Section B-B
  0
LWPOLYLINE
  5
FE
330
17
100
AcDbEntity
  8
Section B-B
  6
DASHED
100
AcDbPolyline
 90
5
 70
0
 10
99.37007874015748
 20
1.2401574803149606
 10
99.84251968503938
 20
1.2401574803149606
 10
99.84251968503938
 20
0.5314960629921259
 10
99.37007874015748
 20
0.5314960629921259
 10
99.37007874015748
 20
1.2401574803149606
  0
POLYLINE
  5
FF
330
17
100
AcDbEntity
  8
Section B-B
100
AcDb2dPolyline
 66
1
 10
0.0
 20
0.0
 30
0.0
 70
0
  0
VERTEX
  5
100
330
FF
100
AcDbEntity
  8
Section B-B
100
AcDbVertex
100
AcDb2dVertex
 10
125.43307086614173
 20
1.7716535433070866
 30
0.0
 70
0
  0
VERTEX
  5
101
330
FF
100
AcDbEntity
  8
Section B-B
100
AcDbVertex
100
AcDb2dVertex
 10
122.28346456692913
 20
1.7716535433070866
 30
0.0
 70
0
  0
VERTEX
  5
102
330
FF
100
AcDbEntity
  8
Section B-B
100
AcDbVertex
100
AcDb2dVertex
 10
122.28346456692913
 20
1.6929133858267715
 30
0.0
 70
0
  0
SEQEND
  5
103
330
FF
100
AcDbEntity
  8
Section B-B
  0
SPLINE
  5
104
330
17
100
AcDbEntity
  8
Section B-B
100
AcDbSpline
 70
0
 71
3
 72
8
 73
4
 74
0
 40
0.0
 40
0.0
 40
0.0
 40
0.0
 40
1.0
 40
1.0
 40
1.0
 40
1.0
 10
122.28346456692913
 20
1.6929133858267715
 30
0.0
 10
121.75853018372703
 20
1.6929133858267715
 30
0.0
 10
121.49606299212599
 20
1.5419947506561678
 30
0.0
 10
121.49606299212599
 20
1.2401574803149606
 30
0.0
  0
POLYLINE
  5
105
330
17
100
AcDbEntity
  8
Section B-B
100
AcDb2dPolyline
 66
1
 10
0.0
 20
0.0
 30
0.0
 70
0
  0
VERTEX
  5
106
330
105
100
AcDbEntity
  8
Section B-B
100
AcDbVertex
100
AcDb2dVertex
 10
121.49606299212599
 20
1.2401574803149606
 30
0.0
 70
0
  0
VERTEX
  5
107
330
105
100
AcDbEntity
  8
Section B-B
100
AcDbVertex
100
AcDb2dVertex
 10
121.49606299212599
 20
0.5314960629921259
 30
0.0
 70
0
  0
SEQEND
  5
108
330
105
100
AcDbEntity
  8
Section B-B
  0
SPLINE
  5
109
330
17
100
AcDbEntity
  8
Section B-B
100
AcDbSpline
 70
0
 71
3
 72
8
 73
4
 74
0
 40
0.0
 40
0.0
 40
0.0
 40
0.0
 40
1.0
 40
1.0
 40
1.0
 40
1.0
 10
121.49606299212599
 20
0.5314960629921259
 30
0.0
 10
121.49606299212599
 20
0.2296587926509187
 30
0.0
 10
121.75853018372703
 20
0.07874015748031504
 30
0.0
 10
122.28346456692913
 20
0.07874015748031504
 30
0.0
  0
POLYLINE
  5
10A
330
17
100
AcDbEntity
  8
Section B-B
100
AcDb2dPolyline
 66
1
 10
0.0
 20
0.0
 30
0.0
 70
0
  0
VERTEX
  5
10B
330
10A
100
AcDbEntity
  8
Section B-B
100
AcDbVertex
100
AcDb2dVertex
 10
122.28346456692913
 20
0.07874015748031504
 30
0.0
 70
0
  0
VERTEX
  5
10C
330
10A
100
AcDbEntity
  8
Section B-B
100
AcDbVertex
100
AcDb2dVertex
 10
122.28346456692913
 20
0.0
 30
0.0
 70
0
  0
VERTEX
  5
10D
330
10A
100
AcDbEntity
  8
Section B-B
100
AcDbVertex
100
AcDb2dVertex
 10
125.43307086614173
 20
0.0
 30
0.0
 70
0
  0
VERTEX
  5
10E
330
10A
100
AcDbEntity
  8
Section B-B
100
AcDbVertex
100
AcDb2dVertex
 10
125.43307086614173
 20
1.7716535433070866
 30
0.0
 70
0
  0
SEQEND
  5
10F
330
10A
100
AcDbEntity
  8
Section B-B
  0
LWPOLYLINE
  5
110
330
17
100
AcDbEntity
  8
Section B-B
  6
DASHED
100
AcDbPolyline
 90
5
 70
0
 10
121.02362204724409
 20
1.2401574803149606
 10
121.49606299212599
 20
1.2401574803149606
 10
121.49606299212599
 20
0.5314960629921259
 10
121.02362204724409
 20
0.5314960629921259
 10
121.02362204724409
 20
1.2401574803149606
  0
LWPOLYLINE
  5
111
330
17
100
AcDbEntity
  8
Section B-B
100
AcDbPolyline
 90
5
 70
0
 10
99.40944881889764
 20
1.2401574803149606
 10
121.45669291338582
 20
1.2401574803149606
 10
121.45669291338582
 20
0.5314960629921259
 10
99.40944881889764
 20
0.5314960629921259
 10
99.40944881889764
 20
1.2401574803149606
  0
LWPOLYLINE
  5
112
330
17
100
AcDbEntity
  8
Section B-B
100
AcDbPolyline
 90
3
 70
0
 10
101.06299212598425
 20
1.2401574803149606
 10
101.18110236220473
 20
1.141732283464567
 10
101.2992125984252
 20
1.2401574803149606
  0
LWPOLYLINE
  5
113
330
17
100
AcDbEntity
  8
Section B-B
100
AcDbPolyline
 90
3
 70
0
 10
119.56692913385827
 20
1.2401574803149606
 10
119.68503937007874
 20
1.141732283464567
 10
119.80314960629921
 20
1.2401574803149606
  0
TEXT
  5
114
330
17
100
AcDbEntity
  8
LABELS
100
AcDbText
 10
95.43307086614173
 20
4.133858267716535
 30
0.0
 40
0.7086614173228346
  1
SECTION B-B  (1:1, inches)
 11
95.43307086614173
 21
4.133858267716535
 31
0.0
100
AcDbText
  0
LWPOLYLINE
  5
117
330
17
100
AcDbEntity
  8
Lock rail - detail C
100
AcDbPolyline
 90
2
 70
0
 10
165.66929133858267
 20
13.779527559055119
 10
165.66929133858267
 20
0.0
  0
LWPOLYLINE
  5
118
330
17
100
AcDbEntity
  8
Lock rail - detail C
100
AcDbPolyline
 90
2
 70
0
 10
135.66929133858267
 20
0.0
 10
135.66929133858267
 20
13.779527559055119
  0
LWPOLYLINE
  5
119
330
17
100
AcDbEntity
  8
Lock rail - detail C
100
AcDbPolyline
 90
2
 70
0
 10
139.60629921259843
 20
11.417322834645669
 10
139.60629921259843
 20
2.3622047244094486
  0
LWPOLYLINE
  5
11A
330
17
100
AcDbEntity
  8
Lock rail - detail C
100
AcDbPolyline
 90
2
 70
0
 10
161.73228346456693
 20
11.417322834645669
 10
161.73228346456693
 20
2.3622047244094486
  0
LWPOLYLINE
  5
11B
330
17
100
AcDbEntity
  8
Lock rail - detail C
100
AcDbPolyline
 90
4
 70
0
 10
161.73228346456693
 20
13.779527559055119
 10
161.73228346456693
 20
11.417322834645669
 10
139.60629921259843
 20
11.417322834645669
 10
139.60629921259843
 20
13.779527559055119
  0
LWPOLYLINE
  5
11C
330
17
100
AcDbEntity
  8
Lock rail - detail C
100
AcDbPolyline
 90
4
 70
0
 10
160.94488188976376
 20
13.779527559055119
 10
160.94488188976376
 20
12.204724409448819
 10
140.39370078740157
 20
12.204724409448819
 10
140.39370078740157
 20
13.779527559055119
  0
LWPOLYLINE
  5
11D
330
17
100
AcDbEntity
  8
Lock rail - detail C
100
AcDbPolyline
 90
2
 70
0
 10
139.60629921259843
 20
11.417322834645669
 10
140.39370078740157
 20
12.204724409448819
  0
LWPOLYLINE
  5
11E
330
17
100
AcDbEntity
  8
Lock rail - detail C
100
AcDbPolyline
 90
2
 70
0
 10
161.73228346456693
 20
11.417322834645669
 10
160.94488188976376
 20
12.204724409448819
  0
LWPOLYLINE
  5
11F
330
17
100
AcDbEntity
  8
Lock rail - detail C
100
AcDbPolyline
 90
29
 70
0
 10
154.8245556164503
 20
13.779527559055119
 10
154.80580324187991
 20
13.772799274114172
 10
154.4299028051181
 20
13.651882381889763
 10
154.2263436385027
 20
13.594120055671752
 10
154.00964643823818
 20
13.53880874753937
 10
153.77776215320497
 20
13.486438661109744
 10
153.52864173228346
 20
13.4375
 10
153.2602361243541
 20
13.392482967827263
 10
152.97049627829725
 20
13.351877768208661
 10
152.65737314299335
 20
13.316174604761319
 10
152.31881766732283
 20
13.285863681102361
 10
151.9527808001661
 20
13.261435200848917
 10
151.55721349040354
 20
13.24337936761811
 10
151.1300666869156
 20
13.232186385027067
 10
150.66929133858267
 20
13.228346456692913
 10
150.20851599024977
 20
13.232186385027067
 10
149.78136918676182
 20
13.24337936761811
 10
149.38580187699927
 20
13.261435200848917
 10
149.01976500984253
 20
13.285863681102361
 10
148.681209534172
 20
13.316174604761319
 10
148.36808639886812
 20
13.351877768208661
 10
148.07834655281127
 20
13.392482967827263
 10
147.80994094488187
 20
13.4375
 10
147.5608205239604
 20
13.486438661109744
 10
147.32893623892718
 20
13.53880874753937
 10
147.11223903866266
 20
13.594120055671752
 10
146.90867987204723
 20
13.651882381889763
 10
146.53277943528542
 20
13.772799274114172
 10
146.51402706071502
 20
13.779527559055119
  0
LWPOLYLINE
  5
120
330
17
100
AcDbEntity
  8
Lock rail - detail C
100
AcDbPolyline
 90
3
 70
0
 10
139.60629921259843
 20
2.3622047244094486
 10
161.73228346456693
 20
2.3622047244094486
 10
161.73228346456693
 20
0.0
  0
LWPOLYLINE
  5
121
330
17
100
AcDbEntity
  8
Lock rail - detail C
100
AcDbPolyline
 90
2
 70
0
 10
139.60629921259843
 20
0.0
 10
139.60629921259843
 20
2.3622047244094486
  0
LWPOLYLINE
  5
122
330
17
100
AcDbEntity
  8
Lock rail - detail C
100
AcDbPolyline
 90
3
 70
0
 10
140.39370078740157
 20
1.574803149606299
 10
160.94488188976376
 20
1.574803149606299
 10
160.94488188976376
 20
0.0
  0
LWPOLYLINE
  5
123
330
17
100
AcDbEntity
  8
Lock rail - detail C
100
AcDbPolyline
 90
2
 70
0
 10
140.39370078740157
 20
0.0
 10
140.39370078740157
 20
1.574803149606299
  0
LWPOLYLINE
  5
124
330
17
100
AcDbEntity
  8
Lock rail - detail C
100
AcDbPolyline
 90
2
 70
0
 10
139.60629921259843
 20
2.3622047244094486
 10
140.39370078740157
 20
1.574803149606299
  0
LWPOLYLINE
  5
125
330
17
100
AcDbEntity
  8
Lock rail - detail C
100
AcDbPolyline
 90
2
 70
0
 10
161.73228346456693
 20
2.3622047244094486
 10
160.94488188976376
 20
1.574803149606299
  0
LWPOLYLINE
  5
126
330
17
100
AcDbEntity
  8
Lock rail - detail C
100
AcDbPolyline
 90
29
 70
0
 10
146.51402706071502
 20
0.0
 10
146.53277943528542
 20
0.006728284940944882
 10
146.90867987204723
 20
0.12764517716535434
 10
147.11223903866266
 20
0.18540750338336615
 10
147.32893623892718
 20
0.24071881151574803
 10
147.5608205239604
 20
0.293088897945374
 10
147.80994094488187
 20
0.3420275590551181
 10
148.07834655281127
 20
0.38704459122785434
 10
148.36808639886812
 20
0.4276497908464567
 10
148.681209534172
 20
0.4633529542937992
 10
149.01976500984253
 20
0.4936638779527559
 10
149.38580187699927
 20
0.5180923582062008
 10
149.78136918676182
 20
0.5361481914370079
 10
150.20851599024977
 20
0.5473411740280512
 10
150.66929133858267
 20
0.5511811023622047
 10
151.1300666869156
 20
0.5473411740280512
 10
151.55721349040354
 20
0.5361481914370079
 10
151.9527808001661
 20
0.5180923582062008
 10
152.31881766732283
 20
0.4936638779527559
 10
152.65737314299335
 20
0.4633529542937992
 10
152.97049627829725
 20
0.4276497908464567
 10
153.2602361243541
 20
0.38704459122785434
 10
153.52864173228346
 20
0.3420275590551181
 10
153.77776215320497
 20
0.293088897945374
 10
154.00964643823818
 20
0.24071881151574803
 10
154.2263436385027
 20
0.18540750338336615
 10
154.4299028051181
 20
0.12764517716535434
 10
154.80580324187991
 20
0.006728284940944882
 10
154.8245556164503
 20
0.0
  0
LWPOLYLINE
  5
127
330
17
100
AcDbEntity
  8
Lock rail - detail C
100
AcDbPolyline
 90
49
 70
0
 10
141.87007874015748
 20
6.889763779527559
 10
141.8607763477704
 20
6.748151872528411
 10
141.83318475745364
 20
6.609547020278313
 10
141.78777734947374
 20
6.475715901983551
 10
141.72502750409734
 20
6.3484251968503935
 10
141.64616544247457
 20
6.230436884104297
 10
141.5529679982044
 20
6.124197356126319
 10
141.44672847022642
 20
6.030999911856125
 10
141.32874015748033
 20
5.952137850233379
 10
141.20144945234716
 20
5.889388004856977
 10
141.06761833405238
 20
5.843980596877073
 10
140.9290134818023
 20
5.816389006560289
 10
140.78740157480314
 20
5.807086614173229
 10
140.645789667804
 20
5.816389006560289
 10
140.5071848155539
 20
5.843980596877073
 10
140.37335369725915
 20
5.889388004856977
 10
140.24606299212599
 20
5.952137850233379
 10
140.1280746793799
 20
6.030999911856125
 10
140.02183515140192
 20
6.124197356126319
 10
139.9286377071317
 20
6.230436884104297
 10
139.84977564550897
 20
6.3484251968503935
 10
139.78702580013257
 20
6.475715901983551
 10
139.74161839215267
 20
6.609547020278313
 10
139.71402680183587
 20
6.748151872528411
 10
139.70472440944883
 20
6.889763779527559
 10
139.71402680183587
 20
7.031375686526706
 10
139.74161839215267
 20
7.169980538776805
 10
139.78702580013257
 20
7.303811657071567
 10
139.84977564550897
 20
7.431102362204724
 10
139.9286377071317
 20
7.54909067495082
 10
140.02183515140192
 20
7.655330202928798
 10
140.1280746793799
 20
7.748527647198993
 10
140.24606299212599
 20
7.827389708821738
 10
140.37335369725915
 20
7.89013955419814
 10
140.5071848155539
 20
7.935546962178044
 10
140.645789667804
 20
7.963138552494828
 10
140.78740157480314
 20
7.97244094488189
 10
140.92901348180231
 20
7.963138552494828
 10
141.06761833405238
 20
7.935546962178044
 10
141.20144945234716
 20
7.89013955419814
 10
141.32874015748033
 20
7.827389708821738
 10
141.44672847022642
 20
7.748527647198993
 10
141.5529679982044
 20
7.655330202928798
 10
141.64616544247457
 20
7.54909067495082
 10
141.72502750409734
 20
7.431102362204724
 10
141.78777734947374
 20
7.303811657071567
 10
141.83318475745364
 20
7.169980538776805
 10
141.8607763477704
 20
7.031375686526706
 10
141.87007874015748
 20
6.889763779527559
  0
LWPOLYLINE
  5
128
330
17
100
AcDbEntity
  8
Lock rail - detail C
100
AcDbPolyline
 90
49
 70
0
 10
141.4763779527559
 20
6.889763779527559
 10
141.4704582485096
 20
6.7996471114371895
 10
141.45289996376255
 20
6.711444023641681
 10
141.42400434050262
 20
6.626278766545007
 10
141.38407262071763
 20
6.545275590551181
 10
141.33388767241226
 20
6.470192118803672
 10
141.27458020787665
 20
6.402585146454045
 10
141.20697323552704
 20
6.343277681918461
 10
141.13188976377953
 20
6.293092733613081
 10
141.0508865877857
 20
6.2531610138281
 10
140.96572133068904
 20
6.224265390568157
 10
140.87751824289353
 20
6.2067071058211205
 10
140.78740157480314
 20
6.200787401574803
 10
140.69728490671278
 20
6.2067071058211205
 10
140.60908181891728
 20
6.224265390568157
 10
140.52391656182058
 20
6.2531610138281
 10
140.44291338582676
 20
6.293092733613081
 10
140.36782991407927
 20
6.343277681918461
 10
140.30022294172963
 20
6.402585146454045
 10
140.24091547719405
 20
6.470192118803672
 10
140.19073052888868
 20
6.545275590551181
 10
140.1507988091037
 20
6.626278766545007
 10
140.12190318584376
 20
6.711444023641681
 10
140.1043449010967
 20
6.7996471114371895
 10
140.0984251968504
 20
6.889763779527559
 10
140.1043449010967
 20
6.979880447617928
 10
140.12190318584376
 20
7.068083535413437
 10
140.1507988091037
 20
7.1532487925101105
 10
140.19073052888868
 20
7.234251968503937
 10
140.24091547719405
 20
7.309335440251446
 10
140.30022294172963
 20
7.376942412601073
 10
140.36782991407927
 20
7.436249877136658
 10
140.44291338582676
 20
7.486434825442037
 10
140.52391656182058
 20
7.526366545227018
 10
140.60908181891728
 20
7.55526216848696
 10
140.69728490671278
 20
7.572820453233997
 10
140.78740157480314
 20
7.578740157480315
 10
140.87751824289353
 20
7.572820453233997
 10
140.96572133068904
 20
7.55526216848696
 10
141.0508865877857
 20
7.526366545227018
 10
141.13188976377953
 20
7.486434825442037
 10
141.20697323552704
 20
7.436249877136658
 10
141.27458020787665
 20
7.376942412601073
 10
141.33388767241226
 20
7.309335440251446
 10
141.38407262071763
 20
7.234251968503937
 10
141.42400434050262
 20
7.1532487925101105
 10
141.45289996376255
 20
7.068083535413437
 10
141.4704582485096
 20
6.979880447617928
 10
141.4763779527559
 20
6.889763779527559
  0
LWPOLYLINE
  5
129
330
17
100
AcDbEntity
  8
Lock rail - detail C
100
AcDbPolyline
 90
49
 70
0
 10
137.99212598425197
 20
6.889763779527559
 10
137.9863754144127
 20
6.802221873382629
 10
137.96931879494414
 20
6.716538873809845
 10
137.9412487609202
 20
6.633806909773083
 10
137.90245794741477
 20
6.55511811023622
 10
137.85370685477528
 20
6.482179880538637
 10
137.79609388922643
 20
6.416504535970433
 10
137.73041854465822
 20
6.358891570421578
 10
137.65748031496062
 20
6.310140477782068
 10
137.57879151542377
 20
6.271349664276649
 10
137.496059551387
 20
6.243279630252711
 10
137.4103765518142
 20
6.226223010784152
 10
137.3228346456693
 20
6.2204724409448815
 10
137.23529273952437
 20
6.226223010784152
 10
137.1496097399516
 20
6.243279630252711
 10
137.0668777759148
 20
6.271349664276649
 10
136.98818897637796
 20
6.310140477782068
 10
136.91525074668036
 20
6.358891570421578
 10
136.84957540211215
 20
6.416504535970433
 10
136.7919624365633
 20
6.482179880538637
 10
136.7432113439238
 20
6.55511811023622
 10
136.7044205304184
 20
6.633806909773083
 10
136.67635049639443
 20
6.716538873809845
 10
136.6592938769259
 20
6.802221873382629
 10
136.6535433070866
 20
6.889763779527559
 10
136.6592938769259
 20
6.977305685672489
 10
136.67635049639443
 20
7.062988685245273
 10
136.7044205304184
 20
7.145720649282034
 10
136.7432113439238
 20
7.224409448818897
 10
136.7919624365633
 20
7.297347678516481
 10
136.84957540211215
 20
7.3630230230846845
 10
136.91525074668036
 20
7.420635988633539
 10
136.98818897637796
 20
7.46938708127305
 10
137.0668777759148
 20
7.508177894778469
 10
137.1496097399516
 20
7.536247928802407
 10
137.23529273952437
 20
7.553304548270965
 10
137.3228346456693
 20
7.559055118110236
 10
137.4103765518142
 20
7.553304548270965
 10
137.496059551387
 20
7.536247928802407
 10
137.57879151542377
 20
7.508177894778469
 10
137.65748031496062
 20
7.46938708127305
 10
137.73041854465822
 20
7.420635988633539
 10
137.79609388922643
 20
7.3630230230846845
 10
137.85370685477528
 20
7.297347678516481
 10
137.90245794741477
 20
7.224409448818897
 10
137.9412487609202
 20
7.145720649282034
 10
137.96931879494414
 20
7.062988685245273
 10
137.9863754144127
 20
6.977305685672489
 10
137.99212598425197
 20
6.889763779527559
  0
LWPOLYLINE
  5
12A
330
17
100
AcDbEntity
  8
Lock rail - detail C
100
AcDbPolyline
 90
44
 70
0
 10
137.20472440944883
 20
6.929133858267717
 10
137.1896712140677
 20
6.944330411106716
 10
137.17660220948162
 20
6.961167417612348
 10
137.16564942505565
 20
6.979451842193377
 10
137.15694489015476
 20
6.998990649258571
 10
137.15065873331818
 20
7.019436141221283
 10
137.1468913425053
 20
7.040414473743293
 10
137.14567013621135
 20
7.061693391105992
 10
137.14702253293163
 20
7.083040637590788
 10
137.15093795806536
 20
7.104069269391114
 10
137.15733192504143
 20
7.124401530830749
 10
137.16612098439973
 20
7.143818948386587
 10
137.17722168668
 20
7.162103048535505
 10
137.19044516733686
 20
7.178915944439823
 10
137.2055413456746
 20
7.1939621754807295
 10
137.22233494800773
 20
7.207086907463398
 10
137.2406507006508
 20
7.218135306193039
 10
137.2601645492779
 20
7.226895649858129
 10
137.2805178891717
 20
7.233222199005034
 10
137.30148362105967
 20
7.2370590929757315
 10
137.3228346456693
 20
7.238350471112188
 10
137.3441856702789
 20
7.2370590929757315
 10
137.3651514021669
 20
7.233222199005034
 10
137.38550474206068
 20
7.226895649858129
 10
137.40501859068777
 20
7.218135306193039
 10
137.42333434333085
 20
7.207086907463398
 10
137.44012794566402
 20
7.193962175480721
 10
137.45522412400175
 20
7.178915944439814
 10
137.4684476046586
 20
7.162103048535496
 10
137.47954830693885
 20
7.143818948386578
 10
137.48833736629715
 20
7.12440153083074
 10
137.49473133327325
 20
7.104069269391105
 10
137.49864675840695
 20
7.083040637590779
 10
137.49999915512723
 20
7.061693391105983
 10
137.49877794883326
 20
7.040414473743284
 10
137.49501055802037
 20
7.0194361412212745
 10
137.48872440118382
 20
6.9989906492585625
 10
137.48001986628293
 20
6.9794518421933684
 10
137.46906708185696
 20
6.961167417612338
 10
137.45599807727092
 20
6.944330411106716
 10
137.44094488188975
 20
6.929133858267717
 10
137.5
 20
6.496062992125984
 10
137.14566929133858
 20
6.496062992125984
 10
137.20472440944883
 20
6.929133858267717
  0
TEXT
  5
12B
330
17
100
AcDbEntity
  8
LABELS
100
AcDbText
 10
135.2755905511811
 20
16.141732283464567
 30
0.0
 40
0.7086614173228346
  1
LOCK RAIL - DETAIL C  (1:1, inches)
 11
135.2755905511811
 21
16.141732283464567
 31
0.0
100
AcDbText
  0
TEXT
  5
12C
330
17
100
AcDbEntity
  8
LABELS
100
AcDbText
 10
0.0
 20
-8.661417322834646
 30
0.0
 40
1.574803149606299
  1
Doors D2 and D3 · AST-DR-009
 11
0.0
 21
-8.661417322834646
 31
0.0
100
AcDbText
  0
ENDSEC
  0
SECTION
  2
OBJECTS
  0
DICTIONARY
  5
A
330
0
100
AcDbDictionary
281
1
  3
ACAD_COLOR
350
B
  3
ACAD_GROUP
350
C
  3
ACAD_LAYOUT
350
D
  3
ACAD_MATERIAL
350
E
  3
ACAD_MLEADERSTYLE
350
F
  3
ACAD_MLINESTYLE
350
10
  3
ACAD_PLOTSETTINGS
350
11
  3
ACAD_PLOTSTYLENAME
350
12
  3
ACAD_SCALELIST
350
14
  3
ACAD_TABLESTYLE
350
15
  3
ACAD_VISUALSTYLE
350
16
  3
EZDXF_META
350
2D
  0
DICTIONARY
  5
B
330
A
100
AcDbDictionary
281
1
  0
DICTIONARY
  5
C
330
A
100
AcDbDictionary
281
1
  0
DICTIONARY
  5
D
330
A
100
AcDbDictionary
281
1
  3
Model
350
1A
  3
Layout1
350
1E
  0
DICTIONARY
  5
E
330
A
100
AcDbDictionary
281
1
  3
ByBlock
350
1F
  3
ByLayer
350
20
  3
Global
350
21
  0
DICTIONARY
  5
F
330
A
100
AcDbDictionary
281
1
  3
Standard
350
2C
  0
DICTIONARY
  5
10
330
A
100
AcDbDictionary
281
1
  3
Standard
350
22
  0
DICTIONARY
  5
11
330
A
100
AcDbDictionary
281
1
  0
ACDBDICTIONARYWDFLT
  5
12
330
A
100
AcDbDictionary
281
1
  3
Normal
350
13
100
AcDbDictionaryWithDefault
340
13
  0
ACDBPLACEHOLDER
  5
13
330
12
  0
DICTIONARY
  5
14
330
A
100
AcDbDictionary
281
1
  0
DICTIONARY
  5
15
330
A
100
AcDbDictionary
281
1
  0
DICTIONARY
  5
16
330
A
100
AcDbDictionary
281
1
  3
2dWireframe
350
5A
  3
Basic
350
5B
  3
Brighten
350
5C
  3
ColorChange
350
5D
  3
Conceptual
350
5E
  3
Dim
350
5F
  3
EdgeColorOff
350
60
  3
Facepattern
350
61
  3
Flat
350
62
  3
FlatWithEdges
350
63
  3
Gouraud
350
64
  3
GouraudWithEdges
350
65
  3
Hidden
350
66
  3
JitterOff
350
67
  3
Linepattern
350
68
  3
Modeling
350
69
  3
OverhangOff
350
6A
  3
Realistic
350
6B
  3
Shaded
350
6C
  3
Shaded with edges
350
6D
  3
Shades of Gray
350
6E
  3
Sketchy
350
6F
  3
Thicken
350
70
  3
Wireframe
350
71
  3
X-Ray
350
72
  0
LAYOUT
  5
1A
330
D
100
AcDbPlotSettings
  1

  4
A3
  6

 40
7.5
 41
20.0
 42
7.5
 43
20.0
 44
420.0
 45
297.0
 46
0.0
 47
0.0
 48
0.0
 49
0.0
140
0.0
141
0.0
142
1.0
143
1.0
 70
1024
 72
1
 73
0
 74
5
  7

 75
16
 76
0
 77
2
 78
300
147
1.0
148
0.0
149
0.0
100
AcDbLayout
  1
Model
 70
1
 71
0
 10
0.0
 20
0.0
 11
420.0
 21
297.0
 12
0.0
 22
0.0
 32
0.0
 14
1e+20
 24
1e+20
 34
1e+20
 15
-1e+20
 25
-1e+20
 35
-1e+20
146
0.0
 13
0.0
 23
0.0
 33
0.0
 16
1.0
 26
0.0
 36
0.0
 17
0.0
 27
1.0
 37
0.0
 76
1
330
17
  0
LAYOUT
  5
1E
330
D
100
AcDbPlotSettings
  1

  4
A3
  6

 40
7.5
 41
20.0
 42
7.5
 43
20.0
 44
420.0
 45
297.0
 46
0.0
 47
0.0
 48
0.0
 49
0.0
140
0.0
141
0.0
142
1.0
143
1.0
 70
0
 72
1
 73
0
 74
5
  7

 75
16
 76
0
 77
2
 78
300
147
1.0
148
0.0
149
0.0
100
AcDbLayout
  1
Layout1
 70
1
 71
1
 10
0.0
 20
0.0
 11
420.0
 21
297.0
 12
0.0
 22
0.0
 32
0.0
 14
1e+20
 24
1e+20
 34
1e+20
 15
-1e+20
 25
-1e+20
 35
-1e+20
146
0.0
 13
0.0
 23
0.0
 33
0.0
 16
1.0
 26
0.0
 36
0.0
 17
0.0
 27
1.0
 37
0.0
 76
1
330
1B
  0
MATERIAL
  5
1F
102
{ACAD_REACTORS
330
E
102
}
330
E
100
AcDbMaterial
  1
ByBlock
  2

 70
0
 40
1.0
 71
1
 41
1.0
 91
-1023410177
 42
1.0
 72
1
  3

 73
1
 74
1
 75
1
 44
0.5
 73
0
 45
1.0
 46
1.0
 77
1
  4

 78
1
 79
1
170
1
 48
1.0
171
1
  6

172
1
173
1
174
1
140
1.0
141
1.0
175
1
  7

176
1
177
1
178
1
143
1.0
179
1
  8

270
1
271
1
272
1
145
1.0
146
1.0
273
1
  9

274
1
275
1
276
1
 42
1.0
 72
1
  3

 73
1
 74
1
 75
1
 94
63
  0
MATERIAL
  5
20
102
{ACAD_REACTORS
330
E
102
}
330
E
100
AcDbMaterial
  1
ByLayer
  2

 70
0
 40
1.0
 71
1
 41
1.0
 91
-1023410177
 42
1.0
 72
1
  3

 73
1
 74
1
 75
1
 44
0.5
 73
0
 45
1.0
 46
1.0
 77
1
  4

 78
1
 79
1
170
1
 48
1.0
171
1
  6

172
1
173
1
174
1
140
1.0
141
1.0
175
1
  7

176
1
177
1
178
1
143
1.0
179
1
  8

270
1
271
1
272
1
145
1.0
146
1.0
273
1
  9

274
1
275
1
276
1
 42
1.0
 72
1
  3

 73
1
 74
1
 75
1
 94
63
  0
MATERIAL
  5
21
102
{ACAD_REACTORS
330
E
102
}
330
E
100
AcDbMaterial
  1
Global
  2

 70
0
 40
1.0
 71
1
 41
1.0
 91
-1023410177
 42
1.0
 72
1
  3

 73
1
 74
1
 75
1
 44
0.5
 73
0
 45
1.0
 46
1.0
 77
1
  4

 78
1
 79
1
170
1
 48
1.0
171
1
  6

172
1
173
1
174
1
140
1.0
141
1.0
175
1
  7

176
1
177
1
178
1
143
1.0
179
1
  8

270
1
271
1
272
1
145
1.0
146
1.0
273
1
  9

274
1
275
1
276
1
 42
1.0
 72
1
  3

 73
1
 74
1
 75
1
 94
63
  0
MLINESTYLE
  5
22
102
{ACAD_REACTORS
330
10
102
}
330
10
100
AcDbMlineStyle
  2
Standard
 70
0
  3

 62
256
 51
90.0
 52
90.0
 71
2
 49
0.5
 62
256
  6
BYLAYER
 49
-0.5
 62
256
  6
BYLAYER
  0
MLEADERSTYLE
  5
2C
102
{ACAD_REACTORS
330
F
102
}
330
F
100
AcDbMLeaderStyle
179
2
170
2
171
1
172
0
 90
2
 40
0.0
 41
0.0
173
1
 91
-1056964608
 92
-2
290
1
 42
2.0
291
1
 43
8.0
  3
Standard
 44
4.0
300

342
29
174
1
175
1
176
0
178
1
 93
-1056964608
 45
4.0
292
0
297
0
 46
4.0
 94
-1056964608
 47
1.0
 49
1.0
140
1.0
294
1
141
0.0
177
0
142
1.0
295
0
296
0
143
3.75
271
0
272
9
273
9
  0
DICTIONARY
  5
2D
330
A
100
AcDbDictionary
280
1
281
1
  3
CREATED_BY_EZDXF
350
2E
  3
WRITTEN_BY_EZDXF
350
12F
  0
DICTIONARYVAR
  5
2E
330
2D
100
DictionaryVariables
280
0
  1
1.4.2 @ 2026-09-18T10:08:51.315756+00:00
  0
VISUALSTYLE
  5
5A
102
{ACAD_REACTORS
330
16
102
}
330
16
100
AcDbVisualStyle
  2
2dWireframe
 70
4
 90
0
 40
0.6
 62
7
290
0
291
0
  0
VISUALSTYLE
  5
5B
102
{ACAD_REACTORS
330
16
102
}
330
16
100
AcDbVisualStyle
  2
Basic
 70
7
 90
1
 40
0.6
 62
7
290
0
291
1
  0
VISUALSTYLE
  5
5C
102
{ACAD_REACTORS
330
16
102
}
330
16
100
AcDbVisualStyle
  2
Brighten
 70
12
 90
2
 40
0.6
 62
7
290
0
291
1
  0
VISUALSTYLE
  5
5D
102
{ACAD_REACTORS
330
16
102
}
330
16
100
AcDbVisualStyle
  2
ColorChange
 70
16
 90
2
 40
0.6
 62
8
290
0
291
1
  0
VISUALSTYLE
  5
5E
102
{ACAD_REACTORS
330
16
102
}
330
16
100
AcDbVisualStyle
  2
Conceptual
 70
9
 90
3
 40
0.6
 62
7
290
0
291
0
  0
VISUALSTYLE
  5
5F
102
{ACAD_REACTORS
330
16
102
}
330
16
100
AcDbVisualStyle
  2
Dim
 70
11
 90
2
 40
0.6
 62
7
290
0
291
1
  0
VISUALSTYLE
  5
60
102
{ACAD_REACTORS
330
16
102
}
330
16
100
AcDbVisualStyle
  2
EdgeColorOff
 70
22
 90
2
 40
0.6
 62
7
290
0
291
1
  0
VISUALSTYLE
  5
61
102
{ACAD_REACTORS
330
16
102
}
330
16
100
AcDbVisualStyle
  2
Facepattern
 70
15
 90
2
 40
0.6
 62
7
290
0
291
1
  0
VISUALSTYLE
  5
62
102
{ACAD_REACTORS
330
16
102
}
330
16
100
AcDbVisualStyle
  2
Flat
 70
0
 90
2
 40
0.6
 62
7
290
0
291
1
  0
VISUALSTYLE
  5
63
102
{ACAD_REACTORS
330
16
102
}
330
16
100
AcDbVisualStyle
  2
FlatWithEdges
 70
1
 90
2
 40
0.6
 62
7
290
0
291
1
  0
VISUALSTYLE
  5
64
102
{ACAD_REACTORS
330
16
102
}
330
16
100
AcDbVisualStyle
  2
Gouraud
 70
2
 90
2
 40
0.6
 62
7
290
0
291
1
  0
VISUALSTYLE
  5
65
102
{ACAD_REACTORS
330
16
102
}
330
16
100
AcDbVisualStyle
  2
GouraudWithEdges
 70
3
 90
2
 40
0.6
 62
7
290
0
291
1
  0
VISUALSTYLE
  5
66
102
{ACAD_REACTORS
330
16
102
}
330
16
100
AcDbVisualStyle
  2
Hidden
 70
6
 90
1
 40
0.6
 62
7
290
0
291
0
  0
VISUALSTYLE
  5
67
102
{ACAD_REACTORS
330
16
102
}
330
16
100
AcDbVisualStyle
  2
JitterOff
 70
20
 90
2
 40
0.6
 62
7
290
0
291
1
  0
VISUALSTYLE
  5
68
102
{ACAD_REACTORS
330
16
102
}
330
16
100
AcDbVisualStyle
  2
Linepattern
 70
14
 90
2
 40
0.6
 62
7
290
0
291
1
  0
VISUALSTYLE
  5
69
102
{ACAD_REACTORS
330
16
102
}
330
16
100
AcDbVisualStyle
  2
Modeling
 70
10
 90
2
 40
0.6
 62
7
290
0
291
0
  0
VISUALSTYLE
  5
6A
102
{ACAD_REACTORS
330
16
102
}
330
16
100
AcDbVisualStyle
  2
OverhangOff
 70
21
 90
2
 40
0.6
 62
7
290
0
291
1
  0
VISUALSTYLE
  5
6B
102
{ACAD_REACTORS
330
16
102
}
330
16
100
AcDbVisualStyle
  2
Realistic
 70
8
 90
2
 40
0.6
 62
7
290
0
291
0
  0
VISUALSTYLE
  5
6C
102
{ACAD_REACTORS
330
16
102
}
330
16
100
AcDbVisualStyle
  2
Shaded
 70
27
 90
2
 40
0.6
 62
7
290
0
291
0
  0
VISUALSTYLE
  5
6D
102
{ACAD_REACTORS
330
16
102
}
330
16
100
AcDbVisualStyle
  2
Shaded with edges
 70
26
 90
2
 40
0.6
 62
7
290
0
291
0
  0
VISUALSTYLE
  5
6E
102
{ACAD_REACTORS
330
16
102
}
330
16
100
AcDbVisualStyle
  2
Shades of Gray
 70
23
 90
2
 40
0.6
 62
7
290
0
291
0
  0
VISUALSTYLE
  5
6F
102
{ACAD_REACTORS
330
16
102
}
330
16
100
AcDbVisualStyle
  2
Sketchy
 70
24
 90
1
 40
0.6
 62
7
290
0
291
0
  0
VISUALSTYLE
  5
70
102
{ACAD_REACTORS
330
16
102
}
330
16
100
AcDbVisualStyle
  2
Thicken
 70
13
 90
2
 40
0.6
 62
7
290
0
291
1
  0
VISUALSTYLE
  5
71
102
{ACAD_REACTORS
330
16
102
}
330
16
100
AcDbVisualStyle
  2
Wireframe
 70
5
 90
0
 40
0.6
 62
7
290
0
291
0
  0
VISUALSTYLE
  5
72
102
{ACAD_REACTORS
330
16
102
}
330
16
100
AcDbVisualStyle
  2
X-Ray
 70
25
 90
2
 40
0.5
 62
7
290
0
291
0
  0
DICTIONARYVAR
  5
12F
330
2D
100
DictionaryVariables
280
0
  1
1.4.2 @ 2026-09-18T10:08:51.359555+00:00
  0
ENDSEC
  0
EOF
