  0
SECTION
  2
HEADER
  9
$ACADVER
  1
AC1024
  9
$ACADMAINTVER
 70
6
  9
$DWGCODEPAGE
  3
ANSI_1252
  9
$LASTSAVEDBY
  1
ezdxf
  9
$INSBASE
 10
0.0
 20
0.0
 30
0.0
  9
$EXTMIN
 10
1e+20
 20
1e+20
 30
1e+20
  9
$EXTMAX
 10
-1e+20
 20
-1e+20
 30
-1e+20
  9
$LIMMIN
 10
0.0
 20
0.0
  9
$LIMMAX
 10
420.0
 20
297.0
  9
$ORTHOMODE
 70
0
  9
$REGENMODE
 70
1
  9
$FILLMODE
 70
1
  9
$QTEXTMODE
 70
0
  9
$MIRRTEXT
 70
1
  9
$LTSCALE
 40
0.00984251968503937
  9
$ATTMODE
 70
1
  9
$TEXTSIZE
 40
2.5
  9
$TRACEWID
 40
1.0
  9
$TEXTSTYLE
  7
OpenSans
  9
$CLAYER
  8
0
  9
$CELTYPE
  6
ByLayer
  9
$CECOLOR
 62
256
  9
$CELTSCALE
 40
1.0
  9
$DISPSILH
 70
0
  9
$DIMSCALE
 40
1.0
  9
$DIMASZ
 40
0.175
  9
$DIMEXO
 40
0.125
  9
$DIMDLI
 40
3.75
  9
$DIMRND
 40
0.0
  9
$DIMDLE
 40
0.0
  9
$DIMEXE
 40
0.375
  9
$DIMTP
 40
0.0
  9
$DIMTM
 40
0.0
  9
$DIMTXT
 40
0.25
  9
$DIMCEN
 40
2.5
  9
$DIMTSZ
 40
0.0
  9
$DIMTOL
 70
0
  9
$DIMLIM
 70
0
  9
$DIMTIH
 70
0
  9
$DIMTOH
 70
0
  9
$DIMSE1
 70
0
  9
$DIMSE2
 70
0
  9
$DIMTAD
 70
1
  9
$DIMZIN
 70
12
  9
$DIMBLK
  1
ARCHTICK
  9
$DIMASO
 70
1
  9
$DIMSHO
 70
1
  9
$DIMPOST
  1

  9
$DIMAPOST
  1

  9
$DIMALT
 70
0
  9
$DIMALTD
 70
3
  9
$DIMALTF
 40
0.03937007874
  9
$DIMLFAC
 40
100.0
  9
$DIMTOFL
 70
1
  9
$DIMTVP
 40
0.0
  9
$DIMTIX
 70
0
  9
$DIMSOXD
 70
0
  9
$DIMSAH
 70
0
  9
$DIMBLK1
  1

  9
$DIMBLK2
  1

  9
$DIMSTYLE
  2
EZDXF
  9
$DIMCLRD
 70
0
  9
$DIMCLRE
 70
0
  9
$DIMCLRT
 70
0
  9
$DIMTFAC
 40
0.5
  9
$DIMGAP
 40
0.1
  9
$DIMJUST
 70
0
  9
$DIMSD1
 70
0
  9
$DIMSD2
 70
0
  9
$DIMTOLJ
 70
0
  9
$DIMTZIN
 70
8
  9
$DIMALTZ
 70
0
  9
$DIMALTTZ
 70
0
  9
$DIMUPT
 70
1
  9
$DIMDEC
 70
2
  9
$DIMTDEC
 70
2
  9
$DIMALTU
 70
2
  9
$DIMALTTD
 70
3
  9
$DIMTXSTY
  7
OpenSansCondensed-Light
  9
$DIMAUNIT
 70
0
  9
$DIMADEC
 70
2
  9
$DIMALTRND
 40
0.0
  9
$DIMAZIN
 70
3
  9
$DIMDSEP
 70
46
  9
$DIMATFIT
 70
3
  9
$DIMFRAC
 70
0
  9
$DIMLDRBLK
  1

  9
$DIMLUNIT
 70
2
  9
$DIMLWD
 70
-2
  9
$DIMLWE
 70
-2
  9
$DIMTMOVE
 70
2
  9
$DIMFXL
 40
1.0
  9
$DIMFXLON
 70
0
  9
$DIMJOGANG
 40
0.785398163397
  9
$DIMTFILL
 70
0
  9
$DIMTFILLCLR
 70
0
  9
$DIMARCSYM
 70
0
  9
$DIMLTYPE
  6

  9
$DIMLTEX1
  6

  9
$DIMLTEX2
  6

  9
$DIMTXTDIRECTION
 70
0
  9
$LUNITS
 70
4
  9
$LUPREC
 70
4
  9
$SKETCHINC
 40
1.0
  9
$FILLETRAD
 40
10.0
  9
$AUNITS
 70
0
  9
$AUPREC
 70
3
  9
$MENU
  1
.
  9
$ELEVATION
 40
0.0
  9
$PELEVATION
 40
0.0
  9
$THICKNESS
 40
0.0
  9
$LIMCHECK
 70
0
  9
$CHAMFERA
 40
0.0
  9
$CHAMFERB
 40
0.0
  9
$CHAMFERC
 40
0.0
  9
$CHAMFERD
 40
0.0
  9
$SKPOLY
 70
0
  9
$TDCREATE
 40
2461307.5141782407
  9
$TDUCREATE
 40
2458532.153996898
  9
$TDUPDATE
 40
2461307.5141782407
  9
$TDUUPDATE
 40
2458532.1544311
  9
$TDINDWG
 40
0.0
  9
$TDUSRTIMER
 40
0.0
  9
$USRTIMER
 70
1
  9
$ANGBASE
 50
0.0
  9
$ANGDIR
 70
0
  9
$PDMODE
 70
0
  9
$PDSIZE
 40
0.0
  9
$PLINEWID
 40
0.0
  9
$SPLFRAME
 70
0
  9
$SPLINETYPE
 70
6
  9
$SPLINESEGS
 70
8
  9
$HANDSEED
  5
208
  9
$SURFTAB1
 70
6
  9
$SURFTAB2
 70
6
  9
$SURFTYPE
 70
6
  9
$SURFU
 70
6
  9
$SURFV
 70
6
  9
$UCSBASE
  2

  9
$UCSNAME
  2

  9
$UCSORG
 10
0.0
 20
0.0
 30
0.0
  9
$UCSXDIR
 10
1.0
 20
0.0
 30
0.0
  9
$UCSYDIR
 10
0.0
 20
1.0
 30
0.0
  9
$UCSORTHOREF
  2

  9
$UCSORTHOVIEW
 70
0
  9
$UCSORGTOP
 10
0.0
 20
0.0
 30
0.0
  9
$UCSORGBOTTOM
 10
0.0
 20
0.0
 30
0.0
  9
$UCSORGLEFT
 10
0.0
 20
0.0
 30
0.0
  9
$UCSORGRIGHT
 10
0.0
 20
0.0
 30
0.0
  9
$UCSORGFRONT
 10
0.0
 20
0.0
 30
0.0
  9
$UCSORGBACK
 10
0.0
 20
0.0
 30
0.0
  9
$PUCSBASE
  2

  9
$PUCSNAME
  2

  9
$PUCSORG
 10
0.0
 20
0.0
 30
0.0
  9
$PUCSXDIR
 10
1.0
 20
0.0
 30
0.0
  9
$PUCSYDIR
 10
0.0
 20
1.0
 30
0.0
  9
$PUCSORTHOREF
  2

  9
$PUCSORTHOVIEW
 70
0
  9
$PUCSORGTOP
 10
0.0
 20
0.0
 30
0.0
  9
$PUCSORGBOTTOM
 10
0.0
 20
0.0
 30
0.0
  9
$PUCSORGLEFT
 10
0.0
 20
0.0
 30
0.0
  9
$PUCSORGRIGHT
 10
0.0
 20
0.0
 30
0.0
  9
$PUCSORGFRONT
 10
0.0
 20
0.0
 30
0.0
  9
$PUCSORGBACK
 10
0.0
 20
0.0
 30
0.0
  9
$USERI1
 70
0
  9
$USERI2
 70
0
  9
$USERI3
 70
0
  9
$USERI4
 70
0
  9
$USERI5
 70
0
  9
$USERR1
 40
0.0
  9
$USERR2
 40
0.0
  9
$USERR3
 40
0.0
  9
$USERR4
 40
0.0
  9
$USERR5
 40
0.0
  9
$WORLDVIEW
 70
1
  9
$SHADEDGE
 70
3
  9
$SHADEDIF
 70
70
  9
$TILEMODE
 70
1
  9
$MAXACTVP
 70
64
  9
$PINSBASE
 10
0.0
 20
0.0
 30
0.0
  9
$PLIMCHECK
 70
0
  9
$PEXTMIN
 10
1e+20
 20
1e+20
 30
1e+20
  9
$PEXTMAX
 10
-1e+20
 20
-1e+20
 30
-1e+20
  9
$PLIMMIN
 10
0.0
 20
0.0
  9
$PLIMMAX
 10
420.0
 20
297.0
  9
$UNITMODE
 70
0
  9
$VISRETAIN
 70
1
  9
$PLINEGEN
 70
0
  9
$PSLTSCALE
 70
1
  9
$TREEDEPTH
 70
3020
  9
$CMLSTYLE
  2
Standard
  9
$CMLJUST
 70
0
  9
$CMLSCALE
 40
20.0
  9
$PROXYGRAPHICS
 70
1
  9
$MEASUREMENT
 70
0
  9
$CELWEIGHT
370
-1
  9
$ENDCAPS
280
0
  9
$JOINSTYLE
280
0
  9
$LWDISPLAY
290
0
  9
$INSUNITS
 70
1
  9
$HYPERLINKBASE
  1

  9
$STYLESHEET
  1

  9
$XEDIT
290
1
  9
$CEPSNTYPE
380
0
  9
$PSTYLEMODE
290
1
  9
$FINGERPRINTGUID
  2
{C9D33C44-DD64-4061-80EA-350D786C769C}
  9
$VERSIONGUID
  2
{CF92B7F1-B718-46F6-AD51-43C7EEA44AF1}
  9
$EXTNAMES
290
1
  9
$PSVPSCALE
 40
0.0
  9
$OLESTARTUP
290
0
  9
$SORTENTS
280
127
  9
$INDEXCTL
280
0
  9
$HIDETEXT
280
1
  9
$XCLIPFRAME
280
1
  9
$HALOGAP
280
0
  9
$OBSCOLOR
 70
257
  9
$OBSLTYPE
280
0
  9
$INTERSECTIONDISPLAY
280
0
  9
$INTERSECTIONCOLOR
 70
257
  9
$DIMASSOC
280
2
  9
$PROJECTNAME
  1

  9
$CAMERADISPLAY
290
0
  9
$LENSLENGTH
 40
50.0
  9
$CAMERAHEIGHT
 40
0.0
  9
$STEPSPERSEC
 40
24.0
  9
$STEPSIZE
 40
100.0
  9
$3DDWFPREC
 40
2.0
  9
$PSOLWIDTH
 40
0.005
  9
$PSOLHEIGHT
 40
0.08
  9
$LOFTANG1
 40
1.570796326795
  9
$LOFTANG2
 40
1.570796326795
  9
$LOFTMAG1
 40
0.0
  9
$LOFTMAG2
 40
0.0
  9
$LOFTPARAM
 70
7
  9
$LOFTNORMALS
280
1
  9
$LATITUDE
 40
37.795
  9
$LONGITUDE
 40
-122.394
  9
$NORTHDIRECTION
 40
0.0
  9
$TIMEZONE
 70
-8000
  9
$LIGHTGLYPHDISPLAY
280
1
  9
$TILEMODELIGHTSYNCH
280
1
  9
$CMATERIAL
347
20
  9
$SOLIDHIST
280
0
  9
$SHOWHIST
280
1
  9
$DWFFRAME
280
2
  9
$DGNFRAME
280
2
  9
$REALWORLDSCALE
290
1
  9
$INTERFERECOLOR
 62
256
  9
$CSHADOW
280
0
  9
$SHADOWPLANELOCATION
 40
0.0
  0
ENDSEC
  0
SECTION
  2
CLASSES
  0
CLASS
  1
ACDBDICTIONARYWDFLT
  2
AcDbDictionaryWithDefault
  3
ObjectDBX Classes
 90
0
 91
0
280
0
281
0
  0
CLASS
  1
SUN
  2
AcDbSun
  3
SCENEOE
 90
1153
 91
0
280
0
281
0
  0
CLASS
  1
VISUALSTYLE
  2
AcDbVisualStyle
  3
ObjectDBX Classes
 90
4095
 91
0
280
0
281
0
  0
CLASS
  1
MATERIAL
  2
AcDbMaterial
  3
ObjectDBX Classes
 90
1153
 91
0
280
0
281
0
  0
CLASS
  1
SCALE
  2
AcDbScale
  3
ObjectDBX Classes
 90
1153
 91
0
280
0
281
0
  0
CLASS
  1
TABLESTYLE
  2
AcDbTableStyle
  3
ObjectDBX Classes
 90
4095
 91
0
280
0
281
0
  0
CLASS
  1
MLEADERSTYLE
  2
AcDbMLeaderStyle
  3
ACDB_MLEADERSTYLE_CLASS
 90
4095
 91
0
280
0
281
0
  0
CLASS
  1
DICTIONARYVAR
  2
AcDbDictionaryVar
  3
ObjectDBX Classes
 90
0
 91
0
280
0
281
0
  0
CLASS
  1
CELLSTYLEMAP
  2
AcDbCellStyleMap
  3
ObjectDBX Classes
 90
1152
 91
0
280
0
281
0
  0
CLASS
  1
MENTALRAYRENDERSETTINGS
  2
AcDbMentalRayRenderSettings
  3
SCENEOE
 90
1024
 91
0
280
0
281
0
  0
CLASS
  1
ACDBDETAILVIEWSTYLE
  2
AcDbDetailViewStyle
  3
ObjectDBX Classes
 90
1025
 91
0
280
0
281
0
  0
CLASS
  1
ACDBSECTIONVIEWSTYLE
  2
AcDbSectionViewStyle
  3
ObjectDBX Classes
 90
1025
 91
0
280
0
281
0
  0
CLASS
  1
RASTERVARIABLES
  2
AcDbRasterVariables
  3
ISM
 90
0
 91
0
280
0
281
0
  0
CLASS
  1
ACDBPLACEHOLDER
  2
AcDbPlaceHolder
  3
ObjectDBX Classes
 90
0
 91
0
280
0
281
0
  0
CLASS
  1
LAYOUT
  2
AcDbLayout
  3
ObjectDBX Classes
 90
0
 91
0
280
0
281
0
  0
ENDSEC
  0
SECTION
  2
TABLES
  0
TABLE
  2
VPORT
  5
8
330
0
100
AcDbSymbolTable
 70
1
  0
VPORT
  5
23
330
8
100
AcDbSymbolTableRecord
100
AcDbViewportTableRecord
  2
*Active
 70
0
 10
0.0
 20
0.0
 11
1.0
 21
1.0
 12
0.0
 22
0.0
 13
0.0
 23
0.0
 14
0.5
 24
0.5
 15
0.5
 25
0.5
 16
0.0
 26
0.0
 36
1.0
 17
0.0
 27
0.0
 37
0.0
 40
1000.0
 41
1.34
 42
50.0
 43
0.0
 44
0.0
 50
0.0
 51
0.0
 71
0
 72
1000
 73
1
 74
3
 75
0
 76
0
 77
0
 78
0
281
0
 65
0
146
0.0
  0
ENDTAB
  0
TABLE
  2
LTYPE
  5
2
330
0
100
AcDbSymbolTable
 70
21
  0
LTYPE
  5
24
330
2
100
AcDbSymbolTableRecord
100
AcDbLinetypeTableRecord
  2
ByBlock
 70
0
  3

 72
65
 73
0
 40
0.0
  0
LTYPE
  5
25
330
2
100
AcDbSymbolTableRecord
100
AcDbLinetypeTableRecord
  2
ByLayer
 70
0
  3

 72
65
 73
0
 40
0.0
  0
LTYPE
  5
26
330
2
100
AcDbSymbolTableRecord
100
AcDbLinetypeTableRecord
  2
Continuous
 70
0
  3

 72
65
 73
0
 40
0.0
  0
LTYPE
  5
2F
330
2
100
AcDbSymbolTableRecord
100
AcDbLinetypeTableRecord
  2
CENTER
 70
0
  3
Center ____ _ ____ _ ____ _ ____ _ ____ _ ____
 72
65
 73
4
 40
2.0
 49
1.25
 74
0
 49
-0.25
 74
0
 49
0.25
 74
0
 49
-0.25
 74
0
  0
LTYPE
  5
30
330
2
100
AcDbSymbolTableRecord
100
AcDbLinetypeTableRecord
  2
CENTERX2
 70
0
  3
Center (2x) ________  __  ________  __  ________
 72
65
 73
4
 40
3.5
 49
2.5
 74
0
 49
-0.25
 74
0
 49
0.5
 74
0
 49
-0.25
 74
0
  0
LTYPE
  5
31
330
2
100
AcDbSymbolTableRecord
100
AcDbLinetypeTableRecord
  2
CENTER2
 70
0
  3
Center (.5x) ____ _ ____ _ ____ _ ____ _ ____
 72
65
 73
4
 40
1.0
 49
0.625
 74
0
 49
-0.125
 74
0
 49
0.125
 74
0
 49
-0.125
 74
0
  0
LTYPE
  5
32
330
2
100
AcDbSymbolTableRecord
100
AcDbLinetypeTableRecord
  2
DASHED
 70
0
  3
Dashed __ __ __ __ __ __ __ __ __ __ __ __ __ _
 72
65
 73
2
 40
0.6
 49
0.5
 74
0
 49
-0.1
 74
0
  0
LTYPE
  5
33
330
2
100
AcDbSymbolTableRecord
100
AcDbLinetypeTableRecord
  2
DASHEDX2
 70
0
  3
Dashed (2x) ____  ____  ____  ____  ____  ____
 72
65
 73
2
 40
1.2
 49
1.0
 74
0
 49
-0.2
 74
0
  0
LTYPE
  5
34
330
2
100
AcDbSymbolTableRecord
100
AcDbLinetypeTableRecord
  2
DASHED2
 70
0
  3
Dashed (.5x) _ _ _ _ _ _ _ _ _ _ _ _ _ _
 72
65
 73
2
 40
0.3
 49
0.25
 74
0
 49
-0.05
 74
0
  0
LTYPE
  5
35
330
2
100
AcDbSymbolTableRecord
100
AcDbLinetypeTableRecord
  2
PHANTOM
 70
0
  3
Phantom ______  __  __  ______  __  __  ______
 72
65
 73
6
 40
2.5
 49
1.25
 74
0
 49
-0.25
 74
0
 49
0.25
 74
0
 49
-0.25
 74
0
 49
0.25
 74
0
 49
-0.25
 74
0
  0
LTYPE
  5
36
330
2
100
AcDbSymbolTableRecord
100
AcDbLinetypeTableRecord
  2
PHANTOMX2
 70
0
  3
Phantom (2x)____________    ____    ____    ____________
 72
65
 73
6
 40
4.25
 49
2.5
 74
0
 49
-0.25
 74
0
 49
0.5
 74
0
 49
-0.25
 74
0
 49
0.5
 74
0
 49
-0.25
 74
0
  0
LTYPE
  5
37
330
2
100
AcDbSymbolTableRecord
100
AcDbLinetypeTableRecord
  2
PHANTOM2
 70
0
  3
Phantom (.5x) ___ _ _ ___ _ _ ___ _ _ ___ _ _ ___
 72
65
 73
6
 40
1.25
 49
0.625
 74
0
 49
-0.125
 74
0
 49
0.125
 74
0
 49
-0.125
 74
0
 49
0.125
 74
0
 49
-0.125
 74
0
  0
LTYPE
  5
38
330
2
100
AcDbSymbolTableRecord
100
AcDbLinetypeTableRecord
  2
DASHDOT
 70
0
  3
Dash dot __ . __ . __ . __ . __ . __ . __ . __
 72
65
 73
4
 40
1.4
 49
1.0
 74
0
 49
-0.2
 74
0
 49
0.0
 74
0
 49
-0.2
 74
0
  0
LTYPE
  5
39
330
2
100
AcDbSymbolTableRecord
100
AcDbLinetypeTableRecord
  2
DASHDOTX2
 70
0
  3
Dash dot (2x) ____  .  ____  .  ____  .  ____
 72
65
 73
4
 40
2.4
 49
2.0
 74
0
 49
-0.2
 74
0
 49
0.0
 74
0
 49
-0.2
 74
0
  0
LTYPE
  5
3A
330
2
100
AcDbSymbolTableRecord
100
AcDbLinetypeTableRecord
  2
DASHDOT2
 70
0
  3
Dash dot (.5x) _ . _ . _ . _ . _ . _ . _ . _
 72
65
 73
4
 40
0.7
 49
0.5
 74
0
 49
-0.1
 74
0
 49
0.0
 74
0
 49
-0.1
 74
0
  0
LTYPE
  5
3B
330
2
100
AcDbSymbolTableRecord
100
AcDbLinetypeTableRecord
  2
DOT
 70
0
  3
Dot .  .  .  .  .  .  .  .  .  .  .  .  .  .  .  .
 72
65
 73
2
 40
0.2
 49
0.0
 74
0
 49
-0.2
 74
0
  0
LTYPE
  5
3C
330
2
100
AcDbSymbolTableRecord
100
AcDbLinetypeTableRecord
  2
DOTX2
 70
0
  3
Dot (2x) .    .    .    .    .    .    .    . 
 72
65
 73
2
 40
0.4
 49
0.0
 74
0
 49
-0.4
 74
0
  0
LTYPE
  5
3D
330
2
100
AcDbSymbolTableRecord
100
AcDbLinetypeTableRecord
  2
DOT2
 70
0
  3
Dot (.5) . . . . . . . . . . . . . . . . . . . 
 72
65
 73
2
 40
0.1
 49
0.0
 74
0
 49
-0.1
 74
0
  0
LTYPE
  5
3E
330
2
100
AcDbSymbolTableRecord
100
AcDbLinetypeTableRecord
  2
DIVIDE
 70
0
  3
Divide __ . . __ . . __ . . __ . . __ . . __
 72
65
 73
6
 40
1.6
 49
1.0
 74
0
 49
-0.2
 74
0
 49
0.0
 74
0
 49
-0.2
 74
0
 49
0.0
 74
0
 49
-0.2
 74
0
  0
LTYPE
  5
3F
330
2
100
AcDbSymbolTableRecord
100
AcDbLinetypeTableRecord
  2
DIVIDEX2
 70
0
  3
Divide (2x) ____  . .  ____  . .  ____  . .  ____
 72
65
 73
6
 40
2.6
 49
2.0
 74
0
 49
-0.2
 74
0
 49
0.0
 74
0
 49
-0.2
 74
0
 49
0.0
 74
0
 49
-0.2
 74
0
  0
LTYPE
  5
40
330
2
100
AcDbSymbolTableRecord
100
AcDbLinetypeTableRecord
  2
DIVIDE2
 70
0
  3
Divide(.5x) _ . _ . _ . _ . _ . _ . _ . _
 72
65
 73
6
 40
0.8
 49
0.5
 74
0
 49
-0.1
 74
0
 49
0.0
 74
0
 49
-0.1
 74
0
 49
0.0
 74
0
 49
-0.1
 74
0
  0
ENDTAB
  0
TABLE
  2
LAYER
  5
1
330
0
100
AcDbSymbolTable
 70
6
  0
LAYER
  5
27
330
1
100
AcDbSymbolTableRecord
100
AcDbLayerTableRecord
  2
0
 70
0
 62
7
  6
Continuous
370
-3
390
13
347
21
  0
LAYER
  5
28
330
1
100
AcDbSymbolTableRecord
100
AcDbLayerTableRecord
  2
Defpoints
 70
0
 62
7
  6
Continuous
290
0
370
-3
390
13
347
21
  0
LAYER
  5
8A
330
1
100
AcDbSymbolTableRecord
100
AcDbLayerTableRecord
  2
GEOMETRY
 70
0
 62
7
  6
Continuous
370
-3
390
13
347
21
  0
LAYER
  5
8B
330
1
100
AcDbSymbolTableRecord
100
AcDbLayerTableRecord
  2
DIMENSIONS
 70
0
 62
1
  6
Continuous
370
-3
390
13
347
21
  0
LAYER
  5
8C
330
1
100
AcDbSymbolTableRecord
100
AcDbLayerTableRecord
  2
TEXT
 70
0
 62
7
  6
Continuous
370
-3
390
13
347
21
  0
LAYER
  5
8D
330
1
100
AcDbSymbolTableRecord
100
AcDbLayerTableRecord
  2
HATCH
 70
0
 62
8
  6
Continuous
370
-3
390
13
347
21
  0
ENDTAB
  0
TABLE
  2
STYLE
  5
5
330
0
100
AcDbSymbolTable
 70
26
  0
STYLE
  5
29
330
5
100
AcDbSymbolTableRecord
100
AcDbTextStyleTableRecord
  2
Standard
 70
0
 40
0.0
 41
1.0
 50
0.0
 71
0
 42
2.5
  3
txt
  4

  0
STYLE
  5
41
330
5
100
AcDbSymbolTableRecord
100
AcDbTextStyleTableRecord
  2
OpenSans-Light
 70
0
 40
0.0
 41
1.0
 50
0.0
 71
0
 42
2.5
  3
OpenSans-Light.ttf
  4

  0
STYLE
  5
42
330
5
100
AcDbSymbolTableRecord
100
AcDbTextStyleTableRecord
  2
OpenSans-Light-Italic
 70
0
 40
0.0
 41
1.0
 50
0.0
 71
0
 42
2.5
  3
OpenSans-LightItalic.ttf
  4

  0
STYLE
  5
43
330
5
100
AcDbSymbolTableRecord
100
AcDbTextStyleTableRecord
  2
OpenSans
 70
0
 40
0.0
 41
1.0
 50
0.0
 71
0
 42
2.5
  3
OpenSans-Regular.ttf
  4

  0
STYLE
  5
44
330
5
100
AcDbSymbolTableRecord
100
AcDbTextStyleTableRecord
  2
OpenSans-Italic
 70
0
 40
0.0
 41
1.0
 50
0.0
 71
0
 42
2.5
  3
OpenSans-Italic.ttf
  4

  0
STYLE
  5
45
330
5
100
AcDbSymbolTableRecord
100
AcDbTextStyleTableRecord
  2
OpenSans-SemiBold
 70
0
 40
0.0
 41
1.0
 50
0.0
 71
0
 42
2.5
  3
OpenSans-SemiBold.ttf
  4

  0
STYLE
  5
46
330
5
100
AcDbSymbolTableRecord
100
AcDbTextStyleTableRecord
  2
OpenSans-SemiBoldItalic
 70
0
 40
0.0
 41
1.0
 50
0.0
 71
0
 42
2.5
  3
OpenSans-SemiBoldItalic.ttf
  4

  0
STYLE
  5
47
330
5
100
AcDbSymbolTableRecord
100
AcDbTextStyleTableRecord
  2
OpenSans-Bold
 70
0
 40
0.0
 41
1.0
 50
0.0
 71
0
 42
2.5
  3
OpenSans-Bold.ttf
  4

  0
STYLE
  5
48
330
5
100
AcDbSymbolTableRecord
100
AcDbTextStyleTableRecord
  2
OpenSans-BoldItalic
 70
0
 40
0.0
 41
1.0
 50
0.0
 71
0
 42
2.5
  3
OpenSans-BoldItalic.ttf
  4

  0
STYLE
  5
49
330
5
100
AcDbSymbolTableRecord
100
AcDbTextStyleTableRecord
  2
OpenSans-ExtraBold
 70
0
 40
0.0
 41
1.0
 50
0.0
 71
0
 42
2.5
  3
OpenSans-ExtraBold.ttf
  4

  0
STYLE
  5
4A
330
5
100
AcDbSymbolTableRecord
100
AcDbTextStyleTableRecord
  2
OpenSans-ExtraBoldItalic
 70
0
 40
0.0
 41
1.0
 50
0.0
 71
0
 42
2.5
  3
OpenSans-ExtraBoldItalic.ttf
  4

  0
STYLE
  5
4B
330
5
100
AcDbSymbolTableRecord
100
AcDbTextStyleTableRecord
  2
OpenSansCondensed-Bold
 70
0
 40
0.0
 41
1.0
 50
0.0
 71
0
 42
2.5
  3
OpenSansCondensed-Bold.ttf
  4

  0
STYLE
  5
4C
330
5
100
AcDbSymbolTableRecord
100
AcDbTextStyleTableRecord
  2
OpenSansCondensed-Light
 70
0
 40
0.0
 41
1.0
 50
0.0
 71
0
 42
2.5
  3
OpenSansCondensed-Light.ttf
  4

  0
STYLE
  5
4D
330
5
100
AcDbSymbolTableRecord
100
AcDbTextStyleTableRecord
  2
OpenSansCondensed-Italic
 70
0
 40
0.0
 41
1.0
 50
0.0
 71
0
 42
2.5
  3
OpenSansCondensed-LightItalic.ttf
  4

  0
STYLE
  5
4E
330
5
100
AcDbSymbolTableRecord
100
AcDbTextStyleTableRecord
  2
LiberationSans
 70
0
 40
0.0
 41
1.0
 50
0.0
 71
0
 42
2.5
  3
LiberationSans-Regular.ttf
  4

  0
STYLE
  5
4F
330
5
100
AcDbSymbolTableRecord
100
AcDbTextStyleTableRecord
  2
LiberationSans-Bold
 70
0
 40
0.0
 41
1.0
 50
0.0
 71
0
 42
2.5
  3
LiberationSans-Bold.ttf
  4

  0
STYLE
  5
50
330
5
100
AcDbSymbolTableRecord
100
AcDbTextStyleTableRecord
  2
LiberationSans-BoldItalic
 70
0
 40
0.0
 41
1.0
 50
0.0
 71
0
 42
2.5
  3
LiberationSans-BoldItalic.ttf
  4

  0
STYLE
  5
51
330
5
100
AcDbSymbolTableRecord
100
AcDbTextStyleTableRecord
  2
LiberationSans-Italic
 70
0
 40
0.0
 41
1.0
 50
0.0
 71
0
 42
2.5
  3
LiberationSans-Italic.ttf
  4

  0
STYLE
  5
52
330
5
100
AcDbSymbolTableRecord
100
AcDbTextStyleTableRecord
  2
LiberationSerif
 70
0
 40
0.0
 41
1.0
 50
0.0
 71
0
 42
2.5
  3
LiberationSerif-Regular.ttf
  4

  0
STYLE
  5
53
330
5
100
AcDbSymbolTableRecord
100
AcDbTextStyleTableRecord
  2
LiberationSerif-Bold
 70
0
 40
0.0
 41
1.0
 50
0.0
 71
0
 42
2.5
  3
LiberationSerif-Bold.ttf
  4

  0
STYLE
  5
54
330
5
100
AcDbSymbolTableRecord
100
AcDbTextStyleTableRecord
  2
LiberationSerif-BoldItalic
 70
0
 40
0.0
 41
1.0
 50
0.0
 71
0
 42
2.5
  3
LiberationSerif-BoldItalic.ttf
  4

  0
STYLE
  5
55
330
5
100
AcDbSymbolTableRecord
100
AcDbTextStyleTableRecord
  2
LiberationSerif-Italic
 70
0
 40
0.0
 41
1.0
 50
0.0
 71
0
 42
2.5
  3
LiberationSerif-Italic.ttf
  4

  0
STYLE
  5
56
330
5
100
AcDbSymbolTableRecord
100
AcDbTextStyleTableRecord
  2
LiberationMono
 70
0
 40
0.0
 41
1.0
 50
0.0
 71
0
 42
2.5
  3
LiberationMono-Regular.ttf
  4

  0
STYLE
  5
57
330
5
100
AcDbSymbolTableRecord
100
AcDbTextStyleTableRecord
  2
LiberationMono-Bold
 70
0
 40
0.0
 41
1.0
 50
0.0
 71
0
 42
2.5
  3
LiberationMono-Bold.ttf
  4

  0
STYLE
  5
58
330
5
100
AcDbSymbolTableRecord
100
AcDbTextStyleTableRecord
  2
LiberationMono-BoldItalic
 70
0
 40
0.0
 41
1.0
 50
0.0
 71
0
 42
2.5
  3
LiberationMono-BoldItalic.ttf
  4

  0
STYLE
  5
59
330
5
100
AcDbSymbolTableRecord
100
AcDbTextStyleTableRecord
  2
LiberationMono-Italic
 70
0
 40
0.0
 41
1.0
 50
0.0
 71
0
 42
2.5
  3
LiberationMono-Italic.ttf
  4

  0
ENDTAB
  0
TABLE
  2
VIEW
  5
7
330
0
100
AcDbSymbolTable
 70
0
  0
ENDTAB
  0
TABLE
  2
UCS
  5
6
330
0
100
AcDbSymbolTable
 70
0
  0
ENDTAB
  0
TABLE
  2
APPID
  5
3
330
0
100
AcDbSymbolTable
 70
3
  0
APPID
  5
2A
330
3
100
AcDbSymbolTableRecord
100
AcDbRegAppTableRecord
  2
ACAD
 70
0
  0
APPID
  5
205
330
3
100
AcDbSymbolTableRecord
100
AcDbRegAppTableRecord
  2
HATCHBACKGROUNDCOLOR
 70
0
  0
APPID
  5
206
330
3
100
AcDbSymbolTableRecord
100
AcDbRegAppTableRecord
  2
EZDXF
 70
0
  0
ENDTAB
  0
TABLE
  2
DIMSTYLE
  5
4
330
0
100
AcDbSymbolTable
 70
12
100
AcDbDimStyleTable
  0
DIMSTYLE
105
2B
330
4
100
AcDbSymbolTableRecord
100
AcDbDimStyleTableRecord
  2
Standard
 70
0
 40
1.0
 41
2.5
 42
0.625
 43
3.75
 44
1.25
 45
0.0
 46
0.0
 47
0.0
 48
0.0
 49
2.5
140
2.5
141
2.5
142
0.0
143
0.03937007874
144
1.0
145
0.0
146
1.0
147
0.625
148
0.0
 69
0
 70
0
 71
0
 72
0
 73
0
 74
0
 75
0
 76
0
 77
1
 78
8
 79
3
170
0
171
3
172
1
173
0
174
0
175
0
176
0
177
0
178
0
179
2
271
2
272
2
273
2
274
3
275
0
276
0
277
2
278
44
279
0
280
0
281
0
282
0
283
0
284
8
285
0
286
0
288
0
289
3
290
0
371
-2
372
-2
  0
DIMSTYLE
105
73
330
4
100
AcDbSymbolTableRecord
100
AcDbDimStyleTableRecord
  2
EZDXF
 70
0
 40
1.0
 41
0.175
 42
0.125
 43
3.75
 44
0.375
 45
0.0
 46
0.0
 47
0.0
 48
0.0
 49
2.5
140
0.25
141
2.5
142
0.0
143
0.03937007874
144
100.0
145
0.0
146
0.5
147
0.1
148
0.0
 69
0
 70
0
 71
0
 72
0
 73
0
 74
0
 75
0
 76
0
 77
1
 78
12
 79
3
170
0
171
3
172
1
173
0
174
0
175
0
176
0
177
0
178
0
179
2
271
2
272
2
273
2
274
3
275
0
276
0
277
2
278
46
279
2
280
0
281
0
282
0
283
0
284
8
285
0
286
0
288
1
289
3
290
0
340
4C
342
74
371
-2
372
-2
  0
DIMSTYLE
105
7C
330
4
100
AcDbSymbolTableRecord
100
AcDbDimStyleTableRecord
  2
EZ_M_100_H25_CM
 70
0
 40
1.0
 41
0.25
 42
0.125
 43
3.75
 44
0.375
 45
0.0
 46
0.0
 47
0.0
 48
0.0
 49
2.5
140
0.25
141
2.5
142
0.125
143
0.03937007874
144
100.0
145
0.0
146
0.5
147
0.1
148
0.0
 69
0
 70
0
 71
0
 72
0
 73
0
 74
0
 75
0
 76
0
 77
1
 78
12
 79
3
170
0
171
3
172
1
173
0
174
0
175
0
176
0
177
0
178
0
179
2
271
2
272
2
273
2
274
3
275
0
276
0
277
2
278
46
279
2
280
0
281
0
282
0
283
0
284
8
285
0
286
0
288
1
289
3
290
0
340
4C
371
-2
372
-2
  0
DIMSTYLE
105
7D
330
4
100
AcDbSymbolTableRecord
100
AcDbDimStyleTableRecord
  2
EZ_M_50_H25_CM
 70
0
 40
1.0
 41
0.125
 42
0.0625
 43
3.75
 44
0.1875
 45
0.0
 46
0.0
 47
0.0
 48
0.0
 49
2.5
140
0.125
141
2.5
142
0.0625
143
0.03937007874
144
100.0
145
0.0
146
0.5
147
0.05
148
0.0
 69
0
 70
0
 71
0
 72
0
 73
0
 74
0
 75
0
 76
0
 77
1
 78
12
 79
3
170
0
171
3
172
1
173
0
174
0
175
0
176
0
177
0
178
0
179
2
271
2
272
2
273
2
274
3
275
0
276
0
277
2
278
46
279
2
280
0
281
0
282
0
283
0
284
8
285
0
286
0
288
1
289
3
290
0
340
4C
371
-2
372
-2
  0
DIMSTYLE
105
7E
330
4
100
AcDbSymbolTableRecord
100
AcDbDimStyleTableRecord
  2
EZ_M_25_H25_CM
 70
0
 40
1.0
 41
0.0625
 42
0.03125
 43
3.75
 44
0.09375
 45
0.0
 46
0.0
 47
0.0
 48
0.0
 49
2.5
140
0.0625
141
2.5
142
0.03125
143
0.03937007874
144
100.0
145
0.0
146
0.5
147
0.025
148
0.0
 69
0
 70
0
 71
0
 72
0
 73
0
 74
0
 75
0
 76
0
 77
1
 78
12
 79
3
170
0
171
3
172
1
173
0
174
0
175
0
176
0
177
0
178
0
179
2
271
2
272
2
273
2
274
3
275
0
276
0
277
2
278
46
279
2
280
0
281
0
282
0
283
0
284
8
285
0
286
0
288
1
289
3
290
0
340
4C
371
-2
372
-2
  0
DIMSTYLE
105
7F
330
4
100
AcDbSymbolTableRecord
100
AcDbDimStyleTableRecord
  2
EZ_M_20_H25_CM
 70
0
 40
1.0
 41
0.05
 42
0.025
 43
3.75
 44
0.07500000000000001
 45
0.0
 46
0.0
 47
0.0
 48
0.0
 49
2.5
140
0.05
141
2.5
142
0.025
143
0.03937007874
144
100.0
145
0.0
146
0.5
147
0.020000000000000004
148
0.0
 69
0
 70
0
 71
0
 72
0
 73
0
 74
0
 75
0
 76
0
 77
1
 78
12
 79
3
170
0
171
3
172
1
173
0
174
0
175
0
176
0
177
0
178
0
179
2
271
2
272
2
273
2
274
3
275
0
276
0
277
2
278
46
279
2
280
0
281
0
282
0
283
0
284
8
285
0
286
0
288
1
289
3
290
0
340
4C
371
-2
372
-2
  0
DIMSTYLE
105
80
330
4
100
AcDbSymbolTableRecord
100
AcDbDimStyleTableRecord
  2
EZ_M_10_H25_CM
 70
0
 40
1.0
 41
0.025
 42
0.0125
 43
3.75
 44
0.037500000000000006
 45
0.0
 46
0.0
 47
0.0
 48
0.0
 49
2.5
140
0.025
141
2.5
142
0.0125
143
0.03937007874
144
100.0
145
0.0
146
0.5
147
0.010000000000000002
148
0.0
 69
0
 70
0
 71
0
 72
0
 73
0
 74
0
 75
0
 76
0
 77
1
 78
12
 79
3
170
0
171
3
172
1
173
0
174
0
175
0
176
0
177
0
178
0
179
2
271
2
272
2
273
2
274
3
275
0
276
0
277
2
278
46
279
2
280
0
281
0
282
0
283
0
284
8
285
0
286
0
288
1
289
3
290
0
340
4C
371
-2
372
-2
  0
DIMSTYLE
105
81
330
4
100
AcDbSymbolTableRecord
100
AcDbDimStyleTableRecord
  2
EZ_M_5_H25_CM
 70
0
 40
1.0
 41
0.0125
 42
0.00625
 43
3.75
 44
0.018750000000000003
 45
0.0
 46
0.0
 47
0.0
 48
0.0
 49
2.5
140
0.0125
141
2.5
142
0.00625
143
0.03937007874
144
100.0
145
0.0
146
0.5
147
0.005000000000000001
148
0.0
 69
0
 70
0
 71
0
 72
0
 73
0
 74
0
 75
0
 76
0
 77
1
 78
12
 79
3
170
0
171
3
172
1
173
0
174
0
175
0
176
0
177
0
178
0
179
2
271
2
272
2
273
2
274
3
275
0
276
0
277
2
278
46
279
2
280
0
281
0
282
0
283
0
284
8
285
0
286
0
288
1
289
3
290
0
340
4C
371
-2
372
-2
  0
DIMSTYLE
105
82
330
4
100
AcDbSymbolTableRecord
100
AcDbDimStyleTableRecord
  2
EZ_M_1_H25_CM
 70
0
 40
1.0
 41
0.0025
 42
0.00125
 43
3.75
 44
0.00375
 45
0.0
 46
0.0
 47
0.0
 48
0.0
 49
2.5
140
0.0025
141
2.5
142
0.00125
143
0.03937007874
144
100.0
145
0.0
146
0.5
147
0.001
148
0.0
 69
0
 70
0
 71
0
 72
0
 73
0
 74
0
 75
0
 76
0
 77
1
 78
12
 79
3
170
0
171
3
172
1
173
0
174
0
175
0
176
0
177
0
178
0
179
2
271
2
272
2
273
2
274
3
275
0
276
0
277
2
278
46
279
2
280
0
281
0
282
0
283
0
284
8
285
0
286
0
288
1
289
3
290
0
340
4C
371
-2
372
-2
  0
DIMSTYLE
105
83
330
4
100
AcDbSymbolTableRecord
100
AcDbDimStyleTableRecord
  2
EZ_RADIUS
 70
0
 40
1.0
 41
0.25
 42
0.125
 43
3.75
 44
0.375
 45
0.0
 46
0.0
 47
0.0
 48
0.0
 49
2.5
140
0.25
141
0.0
142
0.0
143
0.03937007874
144
100.0
145
0.0
146
0.5
147
0.1
148
0.0
 69
0
 70
0
 71
0
 72
0
 73
0
 74
0
 75
0
 76
0
 77
1
 78
12
 79
3
170
0
171
3
172
0
173
0
174
0
175
0
176
0
177
0
178
0
179
2
271
2
272
2
273
2
274
3
275
0
276
0
277
2
278
46
279
1
280
0
281
0
282
0
283
0
284
8
285
0
286
0
288
1
289
3
290
0
340
4C
342
84
371
-2
372
-2
  0
DIMSTYLE
105
88
330
4
100
AcDbSymbolTableRecord
100
AcDbDimStyleTableRecord
  2
EZ_RADIUS_INSIDE
 70
0
 40
1.0
 41
0.25
 42
0.125
 43
3.75
 44
0.375
 45
0.0
 46
0.0
 47
0.0
 48
0.0
 49
2.5
140
0.25
141
0.0
142
0.0
143
0.03937007874
144
100.0
145
0.0
146
0.5
147
0.1
148
0.0
 69
0
 70
0
 71
0
 72
0
 73
0
 74
0
 75
0
 76
0
 77
0
 78
12
 79
3
170
0
171
3
172
0
173
0
174
1
175
0
176
0
177
0
178
0
179
2
271
2
272
2
273
2
274
3
275
0
276
0
277
2
278
46
279
0
280
0
281
0
282
0
283
0
284
8
285
0
286
0
288
1
289
0
290
0
340
4C
342
84
371
-2
372
-2
  0
DIMSTYLE
105
89
330
4
100
AcDbSymbolTableRecord
100
AcDbDimStyleTableRecord
  2
EZ_CURVED
 70
0
 40
1.0
 41
0.25
 42
0.125
 43
3.75
 44
0.375
 45
0.0
 46
0.0
 47
0.0
 48
0.0
 49
2.5
140
0.25
141
2.5
142
0.0
143
0.03937007874
144
100.0
145
0.0
146
0.5
147
0.1
148
0.0
 69
0
 70
0
 71
0
 72
0
 73
0
 74
0
 75
0
 76
0
 77
1
 78
12
 79
2
 90
2
170
0
171
3
172
1
173
0
174
0
175
0
176
0
177
0
178
0
179
2
271
2
272
2
273
2
274
3
275
0
276
0
277
2
278
46
279
2
280
0
281
0
282
0
283
0
284
8
285
0
286
0
288
1
289
3
290
0
340
4C
371
-2
372
-2
  0
ENDTAB
  0
TABLE
  2
BLOCK_RECORD
  5
9
330
0
100
AcDbSymbolTable
 70
5
  0
BLOCK_RECORD
  5
17
330
9
100
AcDbSymbolTableRecord
100
AcDbBlockTableRecord
  2
*Model_Space
340
1A
 70
0
280
1
281
0
  0
BLOCK_RECORD
  5
1B
330
9
100
AcDbSymbolTableRecord
100
AcDbBlockTableRecord
  2
*Paper_Space
340
1E
 70
0
280
1
281
0
  0
BLOCK_RECORD
  5
74
330
9
100
AcDbSymbolTableRecord
100
AcDbBlockTableRecord
  2
_ARCHTICK
340
0
 70
0
280
1
281
0
  0
BLOCK_RECORD
  5
78
330
9
100
AcDbSymbolTableRecord
100
AcDbBlockTableRecord
  2
_CLOSEDFILLED
340
0
 70
0
280
1
281
0
  0
BLOCK_RECORD
  5
84
330
9
100
AcDbSymbolTableRecord
100
AcDbBlockTableRecord
  2
_CLOSEDBLANK
340
0
 70
0
280
1
281
0
  0
ENDTAB
  0
ENDSEC
  0
SECTION
  2
BLOCKS
  0
BLOCK
  5
18
330
17
100
AcDbEntity
  8
0
100
AcDbBlockBegin
  2
*Model_Space
 70
0
 10
0.0
 20
0.0
 30
0.0
  3
*Model_Space
  1

  0
ENDBLK
  5
19
330
17
100
AcDbEntity
  8
0
100
AcDbBlockEnd
  0
BLOCK
  5
1C
330
1B
100
AcDbEntity
  8
0
100
AcDbBlockBegin
  2
*Paper_Space
 70
0
 10
0.0
 20
0.0
 30
0.0
  3
*Paper_Space
  1

  0
ENDBLK
  5
1D
330
1B
100
AcDbEntity
  8
0
100
AcDbBlockEnd
  0
BLOCK
  5
75
330
74
100
AcDbEntity
  8
0
100
AcDbBlockBegin
  2
_ARCHTICK
 70
0
 10
0.0
 20
0.0
 30
0.0
  3
_ARCHTICK
  1

  0
LWPOLYLINE
  5
77
330
74
100
AcDbEntity
  8
0
  6
BYBLOCK
 62
0
100
AcDbPolyline
 90
2
 70
0
 43
0.15
 10
-0.5
 20
-0.5
 10
0.5
 20
0.5
  0
ENDBLK
  5
76
330
74
100
AcDbEntity
  8
0
100
AcDbBlockEnd
  0
BLOCK
  5
79
330
78
100
AcDbEntity
  8
0
100
AcDbBlockBegin
  2
_CLOSEDFILLED
 70
0
 10
0.0
 20
0.0
 30
0.0
  3
_CLOSEDFILLED
  1

  0
SOLID
  5
7B
330
78
100
AcDbEntity
  8
0
  6
BYBLOCK
 62
0
100
AcDbTrace
 10
-1.0
 20
0.16439898372402537
 30
0.0
 11
0.0
 21
0.0
 31
0.0
 12
-1.0
 22
-0.16439898372402537
 32
0.0
 13
-1.0
 23
-0.16439898372402537
 33
0.0
  0
ENDBLK
  5
7A
330
78
100
AcDbEntity
  8
0
100
AcDbBlockEnd
  0
BLOCK
  5
85
330
84
100
AcDbEntity
  8
0
100
AcDbBlockBegin
  2
_CLOSEDBLANK
 70
0
 10
0.0
 20
0.0
 30
0.0
  3
_CLOSEDBLANK
  1

  0
LWPOLYLINE
  5
87
330
84
100
AcDbEntity
  8
0
  6
BYBLOCK
 62
0
100
AcDbPolyline
 90
3
 70
1
 10
-1.0
 20
0.16439898372402537
 10
0.0
 20
0.0
 10
-1.0
 20
-0.16439898372402537
  0
ENDBLK
  5
86
330
84
100
AcDbEntity
  8
0
100
AcDbBlockEnd
  0
ENDSEC
  0
SECTION
  2
ENTITIES
  0
LWPOLYLINE
  5
8E
330
17
100
AcDbEntity
  8
GEOMETRY
100
AcDbPolyline
 90
5
 70
0
 10
0.31496062992125984
 20
11.377952755905513
 10
16.22047244094488
 20
11.377952755905513
 10
16.22047244094488
 20
0.31496062992126106
 10
0.31496062992125984
 20
0.31496062992126106
 10
0.31496062992125984
 20
11.377952755905513
  0
TEXT
  5
8F
330
17
100
AcDbEntity
  8
TEXT
100
AcDbText
 10
0.7086614173228346
 20
11.023622047244094
 30
0.0
 40
0.09070866141732283
  1
D2 · D3
 11
0.7086614173228346
 21
11.023622047244094
 31
0.0
100
AcDbText
  0
LINE
  5
90
330
17
100
AcDbEntity
  8
GEOMETRY
100
AcDbLine
 10
0.7086614173228346
 20
10.964566929133857
 30
0.0
 11
4.015748031496063
 21
10.964566929133857
 31
0.0
  0
TEXT
  5
91
330
17
100
AcDbEntity
  8
TEXT
100
AcDbText
 10
0.7086614173228346
 20
10.834645669291337
 30
0.0
 40
0.048188976377952754
  1
DRESSING AND BATHROOM · 2 FT 6 · AS AST-DR-009
 11
0.7086614173228346
 21
10.834645669291337
 31
0.0
100
AcDbText
  0
LWPOLYLINE
  5
92
330
17
100
AcDbEntity
  8
GEOMETRY
100
AcDbPolyline
 90
5
 70
0
 10
1.0236220472440944
 20
10.354330708661418
 10
3.5236220472440944
 20
10.354330708661418
 10
3.5236220472440944
 20
2.7723097112860913
 10
1.0236220472440944
 20
2.7723097112860913
 10
1.0236220472440944
 20
10.354330708661418
  0
LINE
  5
93
330
17
100
AcDbEntity
  8
GEOMETRY
100
AcDbLine
 10
1.3517060367454066
 20
10.026246719160106
 30
0.0
 11
3.1955380577427817
 21
10.026246719160106
 31
0.0
  0
LINE
  5
94
330
17
100
AcDbEntity
  8
GEOMETRY
100
AcDbLine
 10
1.3517060367454066
 20
3.7401574803149606
 30
0.0
 11
3.1955380577427817
 21
3.7401574803149606
 31
0.0
  0
LINE
  5
95
330
17
100
AcDbEntity
  8
GEOMETRY
100
AcDbLine
 10
1.3517060367454066
 20
6.338582677165355
 30
0.0
 11
1.3517060367454066
 21
5.583989501312336
 31
0.0
  0
LINE
  5
96
330
17
100
AcDbEntity
  8
GEOMETRY
100
AcDbLine
 10
3.1955380577427817
 20
6.338582677165355
 30
0.0
 11
3.1955380577427817
 21
5.583989501312336
 31
0.0
  0
LINE
  5
97
330
17
100
AcDbEntity
  8
GEOMETRY
100
AcDbLine
 10
1.3517060367454066
 20
10.354330708661417
 30
0.0
 11
1.3517060367454066
 21
10.026246719160106
 31
0.0
  0
LINE
  5
98
330
17
100
AcDbEntity
  8
GEOMETRY
100
AcDbLine
 10
3.1955380577427817
 20
10.354330708661417
 30
0.0
 11
3.1955380577427817
 21
10.026246719160106
 31
0.0
  0
LINE
  5
99
330
17
100
AcDbEntity
  8
GEOMETRY
100
AcDbLine
 10
1.3517060367454066
 20
3.7401574803149606
 30
0.0
 11
1.3517060367454066
 21
2.77230971128609
 31
0.0
  0
LINE
  5
9A
330
17
100
AcDbEntity
  8
GEOMETRY
100
AcDbLine
 10
3.1955380577427817
 20
3.7401574803149606
 30
0.0
 11
3.1955380577427817
 21
2.77230971128609
 31
0.0
  0
LWPOLYLINE
  5
9B
330
17
100
AcDbEntity
  8
GEOMETRY
100
AcDbPolyline
 90
5
 70
0
 10
1.3517060367454066
 20
10.026246719160106
 10
3.1955380577427817
 20
10.026246719160106
 10
3.1955380577427817
 20
6.338582677165355
 10
1.3517060367454066
 20
6.338582677165355
 10
1.3517060367454066
 20
10.026246719160106
  0
LWPOLYLINE
  5
9C
330
17
100
AcDbEntity
  8
GEOMETRY
100
AcDbPolyline
 90
5
 70
0
 10
1.4173228346456692
 20
9.960629921259843
 10
3.1299212598425195
 20
9.960629921259843
 10
3.1299212598425195
 20
6.404199475065618
 10
1.4173228346456692
 20
6.404199475065618
 10
1.4173228346456692
 20
9.960629921259843
  0
LINE
  5
9D
330
17
100
AcDbEntity
  8
GEOMETRY
100
AcDbLine
 10
1.3517060367454066
 20
10.026246719160106
 30
0.0
 11
1.4173228346456692
 21
9.960629921259843
 31
0.0
  0
LINE
  5
9E
330
17
100
AcDbEntity
  8
GEOMETRY
100
AcDbLine
 10
3.1955380577427817
 20
10.026246719160106
 30
0.0
 11
3.1299212598425195
 21
9.960629921259843
 31
0.0
  0
LINE
  5
9F
330
17
100
AcDbEntity
  8
GEOMETRY
100
AcDbLine
 10
1.3517060367454066
 20
6.338582677165355
 30
0.0
 11
1.4173228346456692
 21
6.404199475065617
 31
0.0
  0
LINE
  5
A0
330
17
100
AcDbEntity
  8
GEOMETRY
100
AcDbLine
 10
3.1955380577427817
 20
6.338582677165355
 30
0.0
 11
3.1299212598425195
 21
6.404199475065617
 31
0.0
  0
POLYLINE
  5
A1
330
17
100
AcDbEntity
  8
GEOMETRY
100
AcDb2dPolyline
 66
1
 10
0.0
 20
0.0
 30
0.0
 70
0
  0
VERTEX
  5
A2
330
A1
100
AcDbEntity
  8
GEOMETRY
100
AcDbVertex
100
AcDb2dVertex
 10
1.515748031496063
 20
6.725721784776904
 30
0.0
 70
0
  0
VERTEX
  5
A3
330
A1
100
AcDbEntity
  8
GEOMETRY
100
AcDbVertex
100
AcDb2dVertex
 10
1.515748031496063
 20
9.639107611548557
 30
0.0
 70
0
  0
SEQEND
  5
A4
330
A1
100
AcDbEntity
  8
GEOMETRY
  0
SPLINE
  5
A5
330
17
100
AcDbEntity
  8
GEOMETRY
100
AcDbSpline
 70
0
 71
3
 72
14
 73
10
 74
0
 40
0.0
 40
0.0
 40
0.0
 40
0.0
 40
1.0
 40
1.0
 40
1.0
 40
2.0
 40
2.0
 40
2.0
 40
3.0
 40
3.0
 40
3.0
 40
3.0
 10
1.515748031496063
 20
9.639107611548557
 30
0.0
 10
1.5330239758966584
 20
9.639107611548557
 30
0.0
 10
1.5499992231959765
 20
9.643656115353728
 30
0.0
 10
1.5649606299212597
 20
9.652294087554026
 30
0.0
 10
1.5799220366465432
 20
9.660932059754323
 30
0.0
 10
1.5923487801406901
 20
9.67335880324847
 30
0.0
 10
1.6009867523409882
 20
9.688320209973753
 30
0.0
 10
1.609624724541286
 20
9.703281616699037
 30
0.0
 10
1.6141732283464567
 20
9.720256863998355
 30
0.0
 10
1.6141732283464567
 20
9.737532808398951
 30
0.0
  0
SPLINE
  5
A6
330
17
100
AcDbEntity
  8
GEOMETRY
100
AcDbSpline
 70
0
 71
3
 72
11
 73
7
 74
0
 40
0.0
 40
0.0
 40
0.0
 40
0.0
 40
1.0
 40
1.0
 40
1.0
 40
2.0
 40
2.0
 40
2.0
 40
2.0
 10
1.6141732283464567
 20
9.737532808398951
 30
0.0
 10
1.9438976377952755
 20
9.737532808398951
 30
0.0
 10
1.864763779527559
 20
9.86220472440945
 30
0.0
 10
2.2736220472440944
 20
9.86220472440945
 30
0.0
 10
2.6824803149606296
 20
9.86220472440945
 30
0.0
 10
2.6033464566929134
 20
9.737532808398951
 30
0.0
 10
2.9330708661417324
 20
9.737532808398951
 30
0.0
  0
SPLINE
  5
A7
330
17
100
AcDbEntity
  8
GEOMETRY
100
AcDbSpline
 70
0
 71
3
 72
14
 73
10
 74
0
 40
0.0
 40
0.0
 40
0.0
 40
0.0
 40
1.0
 40
1.0
 40
1.0
 40
2.0
 40
2.0
 40
2.0
 40
3.0
 40
3.0
 40
3.0
 40
3.0
 10
2.9330708661417324
 20
9.737532808398951
 30
0.0
 10
2.9330708661417324
 20
9.720256863998355
 30
0.0
 10
2.937619369946903
 20
9.703281616699037
 30
0.0
 10
2.946257342147201
 20
9.688320209973753
 30
0.0
 10
2.9548953143474987
 20
9.67335880324847
 30
0.0
 10
2.9673220578416455
 20
9.660932059754323
 30
0.0
 10
2.982283464566929
 20
9.652294087554026
 30
0.0
 10
2.9972448712922124
 20
9.643656115353728
 30
0.0
 10
3.0142201185915303
 20
9.639107611548557
 30
0.0
 10
3.031496062992126
 20
9.639107611548557
 30
0.0
  0
POLYLINE
  5
A8
330
17
100
AcDbEntity
  8
GEOMETRY
100
AcDb2dPolyline
 66
1
 10
0.0
 20
0.0
 30
0.0
 70
0
  0
VERTEX
  5
A9
330
A8
100
AcDbEntity
  8
GEOMETRY
100
AcDbVertex
100
AcDb2dVertex
 10
3.031496062992126
 20
9.639107611548557
 30
0.0
 70
0
  0
VERTEX
  5
AA
330
A8
100
AcDbEntity
  8
GEOMETRY
100
AcDbVertex
100
AcDb2dVertex
 10
3.031496062992126
 20
6.725721784776904
 30
0.0
 70
0
  0
SEQEND
  5
AB
330
A8
100
AcDbEntity
  8
GEOMETRY
  0
SPLINE
  5
AC
330
17
100
AcDbEntity
  8
GEOMETRY
100
AcDbSpline
 70
0
 71
3
 72
14
 73
10
 74
0
 40
0.0
 40
0.0
 40
0.0
 40
0.0
 40
1.0
 40
1.0
 40
1.0
 40
2.0
 40
2.0
 40
2.0
 40
3.0
 40
3.0
 40
3.0
 40
3.0
 10
3.031496062992126
 20
6.725721784776904
 30
0.0
 10
3.0142201185915303
 20
6.725721784776904
 30
0.0
 10
2.9972448712922124
 20
6.721173280971733
 30
0.0
 10
2.982283464566929
 20
6.712535308771435
 30
0.0
 10
2.9673220578416455
 20
6.703897336571137
 30
0.0
 10
2.9548953143474987
 20
6.69147059307699
 30
0.0
 10
2.946257342147201
 20
6.676509186351707
 30
0.0
 10
2.937619369946903
 20
6.6615477796264235
 30
0.0
 10
2.9330708661417324
 20
6.644572532327106
 30
0.0
 10
2.9330708661417324
 20
6.62729658792651
 30
0.0
  0
SPLINE
  5
AD
330
17
100
AcDbEntity
  8
GEOMETRY
100
AcDbSpline
 70
0
 71
3
 72
11
 73
7
 74
0
 40
0.0
 40
0.0
 40
0.0
 40
0.0
 40
1.0
 40
1.0
 40
1.0
 40
2.0
 40
2.0
 40
2.0
 40
2.0
 10
2.9330708661417324
 20
6.62729658792651
 30
0.0
 10
2.6033464566929134
 20
6.62729658792651
 30
0.0
 10
2.6824803149606296
 20
6.502624671916012
 30
0.0
 10
2.2736220472440944
 20
6.502624671916012
 30
0.0
 10
1.864763779527559
 20
6.502624671916012
 30
0.0
 10
1.9438976377952755
 20
6.62729658792651
 30
0.0
 10
1.6141732283464567
 20
6.62729658792651
 30
0.0
  0
SPLINE
  5
AE
330
17
100
AcDbEntity
  8
GEOMETRY
100
AcDbSpline
 70
0
 71
3
 72
14
 73
10
 74
0
 40
0.0
 40
0.0
 40
0.0
 40
0.0
 40
1.0
 40
1.0
 40
1.0
 40
2.0
 40
2.0
 40
2.0
 40
3.0
 40
3.0
 40
3.0
 40
3.0
 10
1.6141732283464567
 20
6.62729658792651
 30
0.0
 10
1.6141732283464567
 20
6.644572532327106
 30
0.0
 10
1.609624724541286
 20
6.6615477796264235
 30
0.0
 10
1.6009867523409882
 20
6.676509186351707
 30
0.0
 10
1.5923487801406901
 20
6.69147059307699
 30
0.0
 10
1.5799220366465432
 20
6.703897336571137
 30
0.0
 10
1.5649606299212597
 20
6.712535308771435
 30
0.0
 10
1.5499992231959765
 20
6.721173280971733
 30
0.0
 10
1.5330239758966584
 20
6.725721784776904
 30
0.0
 10
1.515748031496063
 20
6.725721784776904
 30
0.0
  0
CIRCLE
  5
AF
330
17
100
AcDbEntity
  8
GEOMETRY
100
AcDbCircle
 10
1.5255905511811023
 20
9.74737532808399
 30
0.0
 40
0.0426509186351706
  0
CIRCLE
  5
B0
330
17
100
AcDbEntity
  8
GEOMETRY
100
AcDbCircle
 10
1.5255905511811023
 20
9.74737532808399
 30
0.0
 40
0.01706036745406824
  0
CIRCLE
  5
B1
330
17
100
AcDbEntity
  8
GEOMETRY
100
AcDbCircle
 10
3.0216535433070866
 20
9.74737532808399
 30
0.0
 40
0.0426509186351706
  0
CIRCLE
  5
B2
330
17
100
AcDbEntity
  8
GEOMETRY
100
AcDbCircle
 10
3.0216535433070866
 20
9.74737532808399
 30
0.0
 40
0.01706036745406824
  0
CIRCLE
  5
B3
330
17
100
AcDbEntity
  8
GEOMETRY
100
AcDbCircle
 10
1.5255905511811023
 20
6.61745406824147
 30
0.0
 40
0.0426509186351706
  0
CIRCLE
  5
B4
330
17
100
AcDbEntity
  8
GEOMETRY
100
AcDbCircle
 10
1.5255905511811023
 20
6.61745406824147
 30
0.0
 40
0.01706036745406824
  0
CIRCLE
  5
B5
330
17
100
AcDbEntity
  8
GEOMETRY
100
AcDbCircle
 10
3.0216535433070866
 20
6.61745406824147
 30
0.0
 40
0.0426509186351706
  0
CIRCLE
  5
B6
330
17
100
AcDbEntity
  8
GEOMETRY
100
AcDbCircle
 10
3.0216535433070866
 20
6.61745406824147
 30
0.0
 40
0.01706036745406824
  0
LWPOLYLINE
  5
B7
330
17
100
AcDbEntity
  8
GEOMETRY
100
AcDbPolyline
 90
5
 70
0
 10
1.3517060367454066
 20
5.583989501312337
 10
3.1955380577427817
 20
5.583989501312337
 10
3.1955380577427817
 20
3.740157480314961
 10
1.3517060367454066
 20
3.740157480314961
 10
1.3517060367454066
 20
5.583989501312337
  0
LWPOLYLINE
  5
B8
330
17
100
AcDbEntity
  8
GEOMETRY
100
AcDbPolyline
 90
5
 70
0
 10
1.4173228346456692
 20
5.518372703412075
 10
3.1299212598425195
 20
5.518372703412075
 10
3.1299212598425195
 20
3.8057742782152246
 10
1.4173228346456692
 20
3.8057742782152246
 10
1.4173228346456692
 20
5.518372703412075
  0
LINE
  5
B9
330
17
100
AcDbEntity
  8
GEOMETRY
100
AcDbLine
 10
1.3517060367454066
 20
5.583989501312336
 30
0.0
 11
1.4173228346456692
 21
5.518372703412074
 31
0.0
  0
LINE
  5
BA
330
17
100
AcDbEntity
  8
GEOMETRY
100
AcDbLine
 10
3.1955380577427817
 20
5.583989501312336
 30
0.0
 11
3.1299212598425195
 21
5.518372703412074
 31
0.0
  0
LINE
  5
BB
330
17
100
AcDbEntity
  8
GEOMETRY
100
AcDbLine
 10
1.3517060367454066
 20
3.7401574803149606
 30
0.0
 11
1.4173228346456692
 21
3.8057742782152237
 31
0.0
  0
LINE
  5
BC
330
17
100
AcDbEntity
  8
GEOMETRY
100
AcDbLine
 10
3.1955380577427817
 20
3.7401574803149606
 30
0.0
 11
3.1299212598425195
 21
3.8057742782152237
 31
0.0
  0
POLYLINE
  5
BD
330
17
100
AcDbEntity
  8
GEOMETRY
100
AcDb2dPolyline
 66
1
 10
0.0
 20
0.0
 30
0.0
 70
0
  0
VERTEX
  5
BE
330
BD
100
AcDbEntity
  8
GEOMETRY
100
AcDbVertex
100
AcDb2dVertex
 10
1.515748031496063
 20
4.12729658792651
 30
0.0
 70
0
  0
VERTEX
  5
BF
330
BD
100
AcDbEntity
  8
GEOMETRY
100
AcDbVertex
100
AcDb2dVertex
 10
1.515748031496063
 20
5.196850393700788
 30
0.0
 70
0
  0
SEQEND
  5
C0
330
BD
100
AcDbEntity
  8
GEOMETRY
  0
SPLINE
  5
C1
330
17
100
AcDbEntity
  8
GEOMETRY
100
AcDbSpline
 70
0
 71
3
 72
14
 73
10
 74
0
 40
0.0
 40
0.0
 40
0.0
 40
0.0
 40
1.0
 40
1.0
 40
1.0
 40
2.0
 40
2.0
 40
2.0
 40
3.0
 40
3.0
 40
3.0
 40
3.0
 10
1.515748031496063
 20
5.196850393700788
 30
0.0
 10
1.5330239758966584
 20
5.196850393700788
 30
0.0
 10
1.5499992231959765
 20
5.201398897505959
 30
0.0
 10
1.5649606299212597
 20
5.210036869706256
 30
0.0
 10
1.5799220366465432
 20
5.218674841906554
 30
0.0
 10
1.5923487801406901
 20
5.231101585400702
 30
0.0
 10
1.6009867523409882
 20
5.246062992125985
 30
0.0
 10
1.609624724541286
 20
5.261024398851268
 30
0.0
 10
1.6141732283464567
 20
5.277999646150586
 30
0.0
 10
1.6141732283464567
 20
5.2952755905511815
 30
0.0
  0
SPLINE
  5
C2
330
17
100
AcDbEntity
  8
GEOMETRY
100
AcDbSpline
 70
0
 71
3
 72
11
 73
7
 74
0
 40
0.0
 40
0.0
 40
0.0
 40
0.0
 40
1.0
 40
1.0
 40
1.0
 40
2.0
 40
2.0
 40
2.0
 40
2.0
 10
1.6141732283464567
 20
5.2952755905511815
 30
0.0
 10
1.9438976377952755
 20
5.2952755905511815
 30
0.0
 10
1.864763779527559
 20
5.419947506561681
 30
0.0
 10
2.2736220472440944
 20
5.419947506561681
 30
0.0
 10
2.6824803149606296
 20
5.419947506561681
 30
0.0
 10
2.6033464566929134
 20
5.2952755905511815
 30
0.0
 10
2.9330708661417324
 20
5.2952755905511815
 30
0.0
  0
SPLINE
  5
C3
330
17
100
AcDbEntity
  8
GEOMETRY
100
AcDbSpline
 70
0
 71
3
 72
14
 73
10
 74
0
 40
0.0
 40
0.0
 40
0.0
 40
0.0
 40
1.0
 40
1.0
 40
1.0
 40
2.0
 40
2.0
 40
2.0
 40
3.0
 40
3.0
 40
3.0
 40
3.0
 10
2.9330708661417324
 20
5.2952755905511815
 30
0.0
 10
2.9330708661417324
 20
5.277999646150586
 30
0.0
 10
2.937619369946903
 20
5.261024398851268
 30
0.0
 10
2.946257342147201
 20
5.246062992125985
 30
0.0
 10
2.9548953143474987
 20
5.231101585400702
 30
0.0
 10
2.9673220578416455
 20
5.218674841906554
 30
0.0
 10
2.982283464566929
 20
5.210036869706256
 30
0.0
 10
2.9972448712922124
 20
5.201398897505959
 30
0.0
 10
3.0142201185915303
 20
5.196850393700788
 30
0.0
 10
3.031496062992126
 20
5.196850393700788
 30
0.0
  0
POLYLINE
  5
C4
330
17
100
AcDbEntity
  8
GEOMETRY
100
AcDb2dPolyline
 66
1
 10
0.0
 20
0.0
 30
0.0
 70
0
  0
VERTEX
  5
C5
330
C4
100
AcDbEntity
  8
GEOMETRY
100
AcDbVertex
100
AcDb2dVertex
 10
3.031496062992126
 20
5.196850393700788
 30
0.0
 70
0
  0
VERTEX
  5
C6
330
C4
100
AcDbEntity
  8
GEOMETRY
100
AcDbVertex
100
AcDb2dVertex
 10
3.031496062992126
 20
4.12729658792651
 30
0.0
 70
0
  0
SEQEND
  5
C7
330
C4
100
AcDbEntity
  8
GEOMETRY
  0
SPLINE
  5
C8
330
17
100
AcDbEntity
  8
GEOMETRY
100
AcDbSpline
 70
0
 71
3
 72
14
 73
10
 74
0
 40
0.0
 40
0.0
 40
0.0
 40
0.0
 40
1.0
 40
1.0
 40
1.0
 40
2.0
 40
2.0
 40
2.0
 40
3.0
 40
3.0
 40
3.0
 40
3.0
 10
3.031496062992126
 20
4.12729658792651
 30
0.0
 10
3.0142201185915303
 20
4.12729658792651
 30
0.0
 10
2.9972448712922124
 20
4.12274808412134
 30
0.0
 10
2.982283464566929
 20
4.114110111921042
 30
0.0
 10
2.9673220578416455
 20
4.105472139720744
 30
0.0
 10
2.9548953143474987
 20
4.0930453962265965
 30
0.0
 10
2.946257342147201
 20
4.078083989501313
 30
0.0
 10
2.937619369946903
 20
4.06312258277603
 30
0.0
 10
2.9330708661417324
 20
4.046147335476713
 30
0.0
 10
2.9330708661417324
 20
4.028871391076117
 30
0.0
  0
SPLINE
  5
C9
330
17
100
AcDbEntity
  8
GEOMETRY
100
AcDbSpline
 70
0
 71
3
 72
11
 73
7
 74
0
 40
0.0
 40
0.0
 40
0.0
 40
0.0
 40
1.0
 40
1.0
 40
1.0
 40
2.0
 40
2.0
 40
2.0
 40
2.0
 10
2.9330708661417324
 20
4.028871391076117
 30
0.0
 10
2.6033464566929134
 20
4.028871391076117
 30
0.0
 10
2.6824803149606296
 20
3.904199475065618
 30
0.0
 10
2.2736220472440944
 20
3.904199475065618
 30
0.0
 10
1.864763779527559
 20
3.904199475065618
 30
0.0
 10
1.9438976377952755
 20
4.028871391076117
 30
0.0
 10
1.6141732283464567
 20
4.028871391076117
 30
0.0
  0
SPLINE
  5
CA
330
17
100
AcDbEntity
  8
GEOMETRY
100
AcDbSpline
 70
0
 71
3
 72
14
 73
10
 74
0
 40
0.0
 40
0.0
 40
0.0
 40
0.0
 40
1.0
 40
1.0
 40
1.0
 40
2.0
 40
2.0
 40
2.0
 40
3.0
 40
3.0
 40
3.0
 40
3.0
 10
1.6141732283464567
 20
4.028871391076117
 30
0.0
 10
1.6141732283464567
 20
4.046147335476713
 30
0.0
 10
1.609624724541286
 20
4.06312258277603
 30
0.0
 10
1.6009867523409882
 20
4.078083989501313
 30
0.0
 10
1.5923487801406901
 20
4.0930453962265965
 30
0.0
 10
1.5799220366465432
 20
4.105472139720744
 30
0.0
 10
1.5649606299212597
 20
4.114110111921042
 30
0.0
 10
1.5499992231959765
 20
4.12274808412134
 30
0.0
 10
1.5330239758966584
 20
4.12729658792651
 30
0.0
 10
1.515748031496063
 20
4.12729658792651
 30
0.0
  0
CIRCLE
  5
CB
330
17
100
AcDbEntity
  8
GEOMETRY
100
AcDbCircle
 10
1.5255905511811023
 20
5.30511811023622
 30
0.0
 40
0.0426509186351706
  0
CIRCLE
  5
CC
330
17
100
AcDbEntity
  8
GEOMETRY
100
AcDbCircle
 10
1.5255905511811023
 20
5.30511811023622
 30
0.0
 40
0.01706036745406824
  0
CIRCLE
  5
CD
330
17
100
AcDbEntity
  8
GEOMETRY
100
AcDbCircle
 10
3.0216535433070866
 20
5.30511811023622
 30
0.0
 40
0.0426509186351706
  0
CIRCLE
  5
CE
330
17
100
AcDbEntity
  8
GEOMETRY
100
AcDbCircle
 10
3.0216535433070866
 20
5.30511811023622
 30
0.0
 40
0.01706036745406824
  0
CIRCLE
  5
CF
330
17
100
AcDbEntity
  8
GEOMETRY
100
AcDbCircle
 10
1.5255905511811023
 20
4.019028871391076
 30
0.0
 40
0.0426509186351706
  0
CIRCLE
  5
D0
330
17
100
AcDbEntity
  8
GEOMETRY
100
AcDbCircle
 10
1.5255905511811023
 20
4.019028871391076
 30
0.0
 40
0.01706036745406824
  0
CIRCLE
  5
D1
330
17
100
AcDbEntity
  8
GEOMETRY
100
AcDbCircle
 10
3.0216535433070866
 20
4.019028871391076
 30
0.0
 40
0.0426509186351706
  0
CIRCLE
  5
D2
330
17
100
AcDbEntity
  8
GEOMETRY
100
AcDbCircle
 10
3.0216535433070866
 20
4.019028871391076
 30
0.0
 40
0.01706036745406824
  0
CIRCLE
  5
D3
330
17
100
AcDbEntity
  8
GEOMETRY
100
AcDbCircle
 10
1.4501312335958003
 20
5.961286089238846
 30
0.0
 40
0.09022309711286089
  0
CIRCLE
  5
D4
330
17
100
AcDbEntity
  8
GEOMETRY
100
AcDbCircle
 10
1.4501312335958003
 20
5.961286089238846
 30
0.0
 40
0.057414698162729656
  0
CIRCLE
  5
D5
330
17
100
AcDbEntity
  8
GEOMETRY
100
AcDbCircle
 10
1.1614173228346456
 20
5.961286089238846
 30
0.0
 40
0.05577427821522309
  0
SPLINE
  5
D6
330
17
100
AcDbEntity
  8
GEOMETRY
100
AcDbSpline
 70
0
 71
3
 72
35
 73
31
 74
0
 40
0.0
 40
0.0
 40
0.0
 40
0.0
 40
1.0
 40
1.0
 40
1.0
 40
2.0
 40
2.0
 40
2.0
 40
3.0
 40
3.0
 40
3.0
 40
4.0
 40
4.0
 40
4.0
 40
5.0
 40
5.0
 40
5.0
 40
6.0
 40
6.0
 40
6.0
 40
7.0
 40
7.0
 40
7.0
 40
8.0
 40
8.0
 40
8.0
 40
9.0
 40
9.0
 40
9.0
 40
10.0
 40
10.0
 40
10.0
 40
10.0
 10
1.1515748031496063
 20
5.964566929133859
 30
0.0
 10
1.1497968830395668
 20
5.966157149223704
 30
0.0
 10
1.1484305543584346
 20
5.9681548113708525
 30
0.0
 10
1.147593176541769
 20
5.9703883283830965
 30
0.0
 10
1.1467557987251036
 20
5.9726218453953415
 30
0.0
 10
1.1464720536925306
 20
5.975025383802674
 30
0.0
 10
1.1467663134398407
 20
5.977392494077448
 30
0.0
 10
1.147060573187151
 20
5.979759604352222
 30
0.0
 10
1.1479241643350313
 20
5.982020515329757
 30
0.0
 10
1.1492829095855384
 20
5.983981028322841
 30
0.0
 10
1.1506416548360456
 20
5.985941541315925
 30
0.0
 10
1.1524555048346379
 20
5.987543869715986
 30
0.0
 10
1.1545686607497723
 20
5.988650383127635
 30
0.0
 10
1.1566818166649069
 20
5.989756896539285
 30
0.0
 10
1.1590319926998787
 20
5.990334980204231
 30
0.0
 10
1.1614173228346458
 20
5.990334980204231
 30
0.0
 10
1.1638026529694132
 20
5.990334980204231
 30
0.0
 10
1.1661528290043852
 20
5.989756896539285
 30
0.0
 10
1.1682659849195196
 20
5.988650383127635
 30
0.0
 10
1.170379140834654
 20
5.987543869715986
 30
0.0
 10
1.1721929908332462
 20
5.985941541315924
 30
0.0
 10
1.1735517360837533
 20
5.98398102832284
 30
0.0
 10
1.1749104813342601
 20
5.982020515329756
 30
0.0
 10
1.1757740724821406
 20
5.979759604352221
 30
0.0
 10
1.1760683322294507
 20
5.977392494077447
 30
0.0
 10
1.1763625919767609
 20
5.975025383802673
 30
0.0
 10
1.1760788469441876
 20
5.972621845395341
 30
0.0
 10
1.1752414691275221
 20
5.970388328383096
 30
0.0
 10
1.1744040913108567
 20
5.968154811370851
 30
0.0
 10
1.1730377626297246
 20
5.966157149223704
 30
0.0
 10
1.171259842519685
 20
5.964566929133859
 30
0.0
  0
POLYLINE
  5
D7
330
17
100
AcDbEntity
  8
GEOMETRY
100
AcDb2dPolyline
 66
1
 10
0.0
 20
0.0
 30
0.0
 70
0
  0
VERTEX
  5
D8
330
D7
100
AcDbEntity
  8
GEOMETRY
100
AcDbVertex
100
AcDb2dVertex
 10
1.171259842519685
 20
5.964566929133859
 30
0.0
 70
0
  0
VERTEX
  5
D9
330
D7
100
AcDbEntity
  8
GEOMETRY
100
AcDbVertex
100
AcDb2dVertex
 10
1.1761811023622046
 20
5.928477690288715
 30
0.0
 70
0
  0
VERTEX
  5
DA
330
D7
100
AcDbEntity
  8
GEOMETRY
100
AcDbVertex
100
AcDb2dVertex
 10
1.1466535433070866
 20
5.928477690288715
 30
0.0
 70
0
  0
VERTEX
  5
DB
330
D7
100
AcDbEntity
  8
GEOMETRY
100
AcDbVertex
100
AcDb2dVertex
 10
1.1515748031496063
 20
5.964566929133859
 30
0.0
 70
0
  0
SEQEND
  5
DC
330
D7
100
AcDbEntity
  8
GEOMETRY
  0
LINE
  5
DD
330
17
100
AcDbEntity
  8
GEOMETRY
100
AcDbLine
 10
0.5314960629921259
 20
2.77230971128609
 30
0.0
 11
4.015748031496063
 21
2.77230971128609
 31
0.0
  0
LINE
  5
DE
330
17
100
AcDbEntity
  8
DIMENSIONS
100
AcDbLine
 10
0.9645669291338582
 20
2.5362204724409443
 30
0.0
 11
3.5826771653543306
 21
2.5362204724409443
 31
0.0
  0
LINE
  5
DF
330
17
100
AcDbEntity
  8
DIMENSIONS
100
AcDbLine
 10
1.0236220472440944
 20
2.733070866141732
 30
0.0
 11
1.0236220472440944
 21
2.488976377952756
 31
0.0
  0
LINE
  5
E0
330
17
100
AcDbEntity
  8
DIMENSIONS
100
AcDbLine
 10
0.984251968503937
 20
2.496850393700787
 30
0.0
 11
1.0629921259842519
 21
2.5755905511811017
 31
0.0
  0
LINE
  5
E1
330
17
100
AcDbEntity
  8
DIMENSIONS
100
AcDbLine
 10
3.5236220472440944
 20
2.733070866141732
 30
0.0
 11
3.5236220472440944
 21
2.488976377952756
 31
0.0
  0
LINE
  5
E2
330
17
100
AcDbEntity
  8
DIMENSIONS
100
AcDbLine
 10
3.484251968503937
 20
2.496850393700787
 30
0.0
 11
3.562992125984252
 21
2.5755905511811017
 31
0.0
  0
TEXT
  5
E3
330
17
100
AcDbEntity
  8
TEXT
100
AcDbText
 10
2.2736220472440944
 20
2.5677165354330707
 30
0.0
 40
0.03968503937007874
  1
2'-6"
 72
1
 11
2.2736220472440944
 21
2.5677165354330707
 31
0.0
100
AcDbText
  0
LINE
  5
E4
330
17
100
AcDbEntity
  8
DIMENSIONS
100
AcDbLine
 10
3.7598425196850394
 20
10.413385826771654
 30
0.0
 11
3.7598425196850394
 21
2.713385826771653
 31
0.0
  0
LINE
  5
E5
330
17
100
AcDbEntity
  8
DIMENSIONS
100
AcDbLine
 10
3.562992125984252
 20
10.354330708661417
 30
0.0
 11
3.8070866141732282
 21
10.354330708661417
 31
0.0
  0
LINE
  5
E6
330
17
100
AcDbEntity
  8
DIMENSIONS
100
AcDbLine
 10
3.720472440944882
 20
10.31496062992126
 30
0.0
 11
3.7992125984251968
 21
10.393700787401574
 31
0.0
  0
LINE
  5
E7
330
17
100
AcDbEntity
  8
DIMENSIONS
100
AcDbLine
 10
3.562992125984252
 20
2.772440944881889
 30
0.0
 11
3.8070866141732282
 21
2.772440944881889
 31
0.0
  0
LINE
  5
E8
330
17
100
AcDbEntity
  8
DIMENSIONS
100
AcDbLine
 10
3.720472440944882
 20
2.733070866141732
 30
0.0
 11
3.7992125984251968
 21
2.8118110236220466
 31
0.0
  0
TEXT
  5
E9
330
17
100
AcDbEntity
  8
TEXT
100
AcDbText
 10
3.7283464566929134
 20
6.563385826771654
 30
0.0
 40
0.036850393700787396
  1
7'-7"
 50
90.0
 72
1
 11
3.7283464566929134
 21
6.563385826771654
 31
0.0
100
AcDbText
  0
TEXT
  5
EA
330
17
100
AcDbEntity
  8
TEXT
100
AcDbText
 10
4.330708661417323
 20
11.023622047244094
 30
0.0
 40
0.09070866141732283
  1
D1
 11
4.330708661417323
 21
11.023622047244094
 31
0.0
100
AcDbText
  0
LINE
  5
EB
330
17
100
AcDbEntity
  8
GEOMETRY
100
AcDbLine
 10
4.330708661417323
 20
10.964566929133857
 30
0.0
 11
7.637795275590551
 21
10.964566929133857
 31
0.0
  0
TEXT
  5
EC
330
17
100
AcDbEntity
  8
TEXT
100
AcDbText
 10
4.330708661417323
 20
10.834645669291337
 30
0.0
 40
0.048188976377952754
  1
MAIN DOOR · 3 FT · AS AST-DR-001
 11
4.330708661417323
 21
10.834645669291337
 31
0.0
100
AcDbText
  0
LWPOLYLINE
  5
ED
330
17
100
AcDbEntity
  8
GEOMETRY
100
AcDbPolyline
 90
5
 70
0
 10
4.645669291338582
 20
10.354330708661418
 10
6.145013123359579
 20
10.354330708661418
 10
6.145013123359579
 20
2.7723097112860913
 10
4.645669291338582
 20
2.7723097112860913
 10
4.645669291338582
 20
10.354330708661418
  0
LINE
  5
EE
330
17
100
AcDbEntity
  8
GEOMETRY
100
AcDbLine
 10
4.973753280839895
 20
10.026246719160106
 30
0.0
 11
5.816929133858268
 21
10.026246719160106
 31
0.0
  0
LINE
  5
EF
330
17
100
AcDbEntity
  8
GEOMETRY
100
AcDbLine
 10
4.973753280839895
 20
3.7401574803149606
 30
0.0
 11
5.816929133858268
 21
3.7401574803149606
 31
0.0
  0
LINE
  5
F0
330
17
100
AcDbEntity
  8
GEOMETRY
100
AcDbLine
 10
4.973753280839895
 20
6.338582677165355
 30
0.0
 11
4.973753280839895
 21
5.583989501312336
 31
0.0
  0
LINE
  5
F1
330
17
100
AcDbEntity
  8
GEOMETRY
100
AcDbLine
 10
5.816929133858268
 20
6.338582677165355
 30
0.0
 11
5.816929133858268
 21
5.583989501312336
 31
0.0
  0
LINE
  5
F2
330
17
100
AcDbEntity
  8
GEOMETRY
100
AcDbLine
 10
4.973753280839895
 20
10.354330708661417
 30
0.0
 11
4.973753280839895
 21
10.026246719160106
 31
0.0
  0
LINE
  5
F3
330
17
100
AcDbEntity
  8
GEOMETRY
100
AcDbLine
 10
5.816929133858268
 20
10.354330708661417
 30
0.0
 11
5.816929133858268
 21
10.026246719160106
 31
0.0
  0
LINE
  5
F4
330
17
100
AcDbEntity
  8
GEOMETRY
100
AcDbLine
 10
4.973753280839895
 20
3.7401574803149606
 30
0.0
 11
4.973753280839895
 21
2.77230971128609
 31
0.0
  0
LINE
  5
F5
330
17
100
AcDbEntity
  8
GEOMETRY
100
AcDbLine
 10
5.816929133858268
 20
3.7401574803149606
 30
0.0
 11
5.816929133858268
 21
2.77230971128609
 31
0.0
  0
LWPOLYLINE
  5
F6
330
17
100
AcDbEntity
  8
GEOMETRY
100
AcDbPolyline
 90
5
 70
0
 10
4.973753280839895
 20
10.026246719160106
 10
5.816929133858268
 20
10.026246719160106
 10
5.816929133858268
 20
6.338582677165355
 10
4.973753280839895
 20
6.338582677165355
 10
4.973753280839895
 20
10.026246719160106
  0
LWPOLYLINE
  5
F7
330
17
100
AcDbEntity
  8
GEOMETRY
100
AcDbPolyline
 90
5
 70
0
 10
5.039370078740157
 20
9.960629921259843
 10
5.751312335958006
 20
9.960629921259843
 10
5.751312335958006
 20
6.404199475065618
 10
5.039370078740157
 20
6.404199475065618
 10
5.039370078740157
 20
9.960629921259843
  0
LINE
  5
F8
330
17
100
AcDbEntity
  8
GEOMETRY
100
AcDbLine
 10
4.973753280839895
 20
10.026246719160106
 30
0.0
 11
5.039370078740157
 21
9.960629921259843
 31
0.0
  0
LINE
  5
F9
330
17
100
AcDbEntity
  8
GEOMETRY
100
AcDbLine
 10
5.816929133858268
 20
10.026246719160106
 30
0.0
 11
5.751312335958006
 21
9.960629921259843
 31
0.0
  0
LINE
  5
FA
330
17
100
AcDbEntity
  8
GEOMETRY
100
AcDbLine
 10
4.973753280839895
 20
6.338582677165355
 30
0.0
 11
5.039370078740157
 21
6.404199475065617
 31
0.0
  0
LINE
  5
FB
330
17
100
AcDbEntity
  8
GEOMETRY
100
AcDbLine
 10
5.816929133858268
 20
6.338582677165355
 30
0.0
 11
5.751312335958006
 21
6.404199475065617
 31
0.0
  0
POLYLINE
  5
FC
330
17
100
AcDbEntity
  8
GEOMETRY
100
AcDb2dPolyline
 66
1
 10
0.0
 20
0.0
 30
0.0
 70
0
  0
VERTEX
  5
FD
330
FC
100
AcDbEntity
  8
GEOMETRY
100
AcDbVertex
100
AcDb2dVertex
 10
5.137795275590551
 20
6.725721784776904
 30
0.0
 70
0
  0
VERTEX
  5
FE
330
FC
100
AcDbEntity
  8
GEOMETRY
100
AcDbVertex
100
AcDb2dVertex
 10
5.137795275590551
 20
9.639107611548557
 30
0.0
 70
0
  0
SEQEND
  5
FF
330
FC
100
AcDbEntity
  8
GEOMETRY
  0
SPLINE
  5
100
330
17
100
AcDbEntity
  8
GEOMETRY
100
AcDbSpline
 70
0
 71
3
 72
14
 73
10
 74
0
 40
0.0
 40
0.0
 40
0.0
 40
0.0
 40
1.0
 40
1.0
 40
1.0
 40
2.0
 40
2.0
 40
2.0
 40
3.0
 40
3.0
 40
3.0
 40
3.0
 10
5.137795275590551
 20
9.639107611548557
 30
0.0
 10
5.155071219991147
 20
9.639107611548557
 30
0.0
 10
5.172046467290465
 20
9.643656115353728
 30
0.0
 10
5.187007874015748
 20
9.652294087554026
 30
0.0
 10
5.201969280741031
 20
9.660932059754323
 30
0.0
 10
5.214396024235179
 20
9.67335880324847
 30
0.0
 10
5.223033996435476
 20
9.688320209973753
 30
0.0
 10
5.231671968635775
 20
9.703281616699037
 30
0.0
 10
5.2362204724409445
 20
9.720256863998355
 30
0.0
 10
5.2362204724409445
 20
9.737532808398951
 30
0.0
  0
SPLINE
  5
101
330
17
100
AcDbEntity
  8
GEOMETRY
100
AcDbSpline
 70
0
 71
3
 72
11
 73
7
 74
0
 40
0.0
 40
0.0
 40
0.0
 40
0.0
 40
1.0
 40
1.0
 40
1.0
 40
2.0
 40
2.0
 40
2.0
 40
2.0
 10
5.2362204724409445
 20
9.737532808398951
 30
0.0
 10
5.315780839895013
 20
9.737532808398951
 30
0.0
 10
5.296686351706036
 20
9.86220472440945
 30
0.0
 10
5.395341207349081
 20
9.86220472440945
 30
0.0
 10
5.493996062992126
 20
9.86220472440945
 30
0.0
 10
5.474901574803149
 20
9.737532808398951
 30
0.0
 10
5.554461942257218
 20
9.737532808398951
 30
0.0
  0
SPLINE
  5
102
330
17
100
AcDbEntity
  8
GEOMETRY
100
AcDbSpline
 70
0
 71
3
 72
14
 73
10
 74
0
 40
0.0
 40
0.0
 40
0.0
 40
0.0
 40
1.0
 40
1.0
 40
1.0
 40
2.0
 40
2.0
 40
2.0
 40
3.0
 40
3.0
 40
3.0
 40
3.0
 10
5.554461942257218
 20
9.737532808398951
 30
0.0
 10
5.554461942257218
 20
9.720256863998355
 30
0.0
 10
5.559010446062389
 20
9.703281616699037
 30
0.0
 10
5.567648418262686
 20
9.688320209973753
 30
0.0
 10
5.576286390462984
 20
9.67335880324847
 30
0.0
 10
5.588713133957132
 20
9.660932059754323
 30
0.0
 10
5.603674540682415
 20
9.652294087554026
 30
0.0
 10
5.618635947407698
 20
9.643656115353728
 30
0.0
 10
5.635611194707016
 20
9.639107611548557
 30
0.0
 10
5.652887139107611
 20
9.639107611548557
 30
0.0
  0
POLYLINE
  5
103
330
17
100
AcDbEntity
  8
GEOMETRY
100
AcDb2dPolyline
 66
1
 10
0.0
 20
0.0
 30
0.0
 70
0
  0
VERTEX
  5
104
330
103
100
AcDbEntity
  8
GEOMETRY
100
AcDbVertex
100
AcDb2dVertex
 10
5.652887139107611
 20
9.639107611548557
 30
0.0
 70
0
  0
VERTEX
  5
105
330
103
100
AcDbEntity
  8
GEOMETRY
100
AcDbVertex
100
AcDb2dVertex
 10
5.652887139107611
 20
6.725721784776904
 30
0.0
 70
0
  0
SEQEND
  5
106
330
103
100
AcDbEntity
  8
GEOMETRY
  0
SPLINE
  5
107
330
17
100
AcDbEntity
  8
GEOMETRY
100
AcDbSpline
 70
0
 71
3
 72
14
 73
10
 74
0
 40
0.0
 40
0.0
 40
0.0
 40
0.0
 40
1.0
 40
1.0
 40
1.0
 40
2.0
 40
2.0
 40
2.0
 40
3.0
 40
3.0
 40
3.0
 40
3.0
 10
5.652887139107611
 20
6.725721784776904
 30
0.0
 10
5.635611194707016
 20
6.725721784776904
 30
0.0
 10
5.618635947407698
 20
6.721173280971733
 30
0.0
 10
5.603674540682415
 20
6.712535308771435
 30
0.0
 10
5.588713133957132
 20
6.703897336571137
 30
0.0
 10
5.576286390462984
 20
6.69147059307699
 30
0.0
 10
5.567648418262686
 20
6.676509186351707
 30
0.0
 10
5.559010446062389
 20
6.6615477796264235
 30
0.0
 10
5.554461942257218
 20
6.644572532327106
 30
0.0
 10
5.554461942257218
 20
6.62729658792651
 30
0.0
  0
SPLINE
  5
108
330
17
100
AcDbEntity
  8
GEOMETRY
100
AcDbSpline
 70
0
 71
3
 72
11
 73
7
 74
0
 40
0.0
 40
0.0
 40
0.0
 40
0.0
 40
1.0
 40
1.0
 40
1.0
 40
2.0
 40
2.0
 40
2.0
 40
2.0
 10
5.554461942257218
 20
6.62729658792651
 30
0.0
 10
5.474901574803149
 20
6.62729658792651
 30
0.0
 10
5.493996062992126
 20
6.502624671916012
 30
0.0
 10
5.395341207349081
 20
6.502624671916012
 30
0.0
 10
5.296686351706036
 20
6.502624671916012
 30
0.0
 10
5.315780839895013
 20
6.62729658792651
 30
0.0
 10
5.2362204724409445
 20
6.62729658792651
 30
0.0
  0
SPLINE
  5
109
330
17
100
AcDbEntity
  8
GEOMETRY
100
AcDbSpline
 70
0
 71
3
 72
14
 73
10
 74
0
 40
0.0
 40
0.0
 40
0.0
 40
0.0
 40
1.0
 40
1.0
 40
1.0
 40
2.0
 40
2.0
 40
2.0
 40
3.0
 40
3.0
 40
3.0
 40
3.0
 10
5.2362204724409445
 20
6.62729658792651
 30
0.0
 10
5.2362204724409445
 20
6.644572532327106
 30
0.0
 10
5.231671968635775
 20
6.6615477796264235
 30
0.0
 10
5.223033996435476
 20
6.676509186351707
 30
0.0
 10
5.214396024235179
 20
6.69147059307699
 30
0.0
 10
5.201969280741031
 20
6.703897336571137
 30
0.0
 10
5.187007874015748
 20
6.712535308771435
 30
0.0
 10
5.172046467290465
 20
6.721173280971733
 30
0.0
 10
5.155071219991147
 20
6.725721784776904
 30
0.0
 10
5.137795275590551
 20
6.725721784776904
 30
0.0
  0
CIRCLE
  5
10A
330
17
100
AcDbEntity
  8
GEOMETRY
100
AcDbCircle
 10
5.147637795275591
 20
9.74737532808399
 30
0.0
 40
0.0426509186351706
  0
CIRCLE
  5
10B
330
17
100
AcDbEntity
  8
GEOMETRY
100
AcDbCircle
 10
5.147637795275591
 20
9.74737532808399
 30
0.0
 40
0.01706036745406824
  0
CIRCLE
  5
10C
330
17
100
AcDbEntity
  8
GEOMETRY
100
AcDbCircle
 10
5.6430446194225725
 20
9.74737532808399
 30
0.0
 40
0.0426509186351706
  0
CIRCLE
  5
10D
330
17
100
AcDbEntity
  8
GEOMETRY
100
AcDbCircle
 10
5.6430446194225725
 20
9.74737532808399
 30
0.0
 40
0.01706036745406824
  0
CIRCLE
  5
10E
330
17
100
AcDbEntity
  8
GEOMETRY
100
AcDbCircle
 10
5.147637795275591
 20
6.61745406824147
 30
0.0
 40
0.0426509186351706
  0
CIRCLE
  5
10F
330
17
100
AcDbEntity
  8
GEOMETRY
100
AcDbCircle
 10
5.147637795275591
 20
6.61745406824147
 30
0.0
 40
0.01706036745406824
  0
CIRCLE
  5
110
330
17
100
AcDbEntity
  8
GEOMETRY
100
AcDbCircle
 10
5.6430446194225725
 20
6.61745406824147
 30
0.0
 40
0.0426509186351706
  0
CIRCLE
  5
111
330
17
100
AcDbEntity
  8
GEOMETRY
100
AcDbCircle
 10
5.6430446194225725
 20
6.61745406824147
 30
0.0
 40
0.01706036745406824
  0
LWPOLYLINE
  5
112
330
17
100
AcDbEntity
  8
GEOMETRY
100
AcDbPolyline
 90
5
 70
0
 10
4.973753280839895
 20
5.583989501312337
 10
5.816929133858268
 20
5.583989501312337
 10
5.816929133858268
 20
3.740157480314961
 10
4.973753280839895
 20
3.740157480314961
 10
4.973753280839895
 20
5.583989501312337
  0
LWPOLYLINE
  5
113
330
17
100
AcDbEntity
  8
GEOMETRY
100
AcDbPolyline
 90
5
 70
0
 10
5.039370078740157
 20
5.518372703412075
 10
5.751312335958006
 20
5.518372703412075
 10
5.751312335958006
 20
3.8057742782152246
 10
5.039370078740157
 20
3.8057742782152246
 10
5.039370078740157
 20
5.518372703412075
  0
LINE
  5
114
330
17
100
AcDbEntity
  8
GEOMETRY
100
AcDbLine
 10
4.973753280839895
 20
5.583989501312336
 30
0.0
 11
5.039370078740157
 21
5.518372703412074
 31
0.0
  0
LINE
  5
115
330
17
100
AcDbEntity
  8
GEOMETRY
100
AcDbLine
 10
5.816929133858268
 20
5.583989501312336
 30
0.0
 11
5.751312335958006
 21
5.518372703412074
 31
0.0
  0
LINE
  5
116
330
17
100
AcDbEntity
  8
GEOMETRY
100
AcDbLine
 10
4.973753280839895
 20
3.7401574803149606
 30
0.0
 11
5.039370078740157
 21
3.8057742782152237
 31
0.0
  0
LINE
  5
117
330
17
100
AcDbEntity
  8
GEOMETRY
100
AcDbLine
 10
5.816929133858268
 20
3.7401574803149606
 30
0.0
 11
5.751312335958006
 21
3.8057742782152237
 31
0.0
  0
POLYLINE
  5
118
330
17
100
AcDbEntity
  8
GEOMETRY
100
AcDb2dPolyline
 66
1
 10
0.0
 20
0.0
 30
0.0
 70
0
  0
VERTEX
  5
119
330
118
100
AcDbEntity
  8
GEOMETRY
100
AcDbVertex
100
AcDb2dVertex
 10
5.137795275590551
 20
4.12729658792651
 30
0.0
 70
0
  0
VERTEX
  5
11A
330
118
100
AcDbEntity
  8
GEOMETRY
100
AcDbVertex
100
AcDb2dVertex
 10
5.137795275590551
 20
5.196850393700788
 30
0.0
 70
0
  0
SEQEND
  5
11B
330
118
100
AcDbEntity
  8
GEOMETRY
  0
SPLINE
  5
11C
330
17
100
AcDbEntity
  8
GEOMETRY
100
AcDbSpline
 70
0
 71
3
 72
14
 73
10
 74
0
 40
0.0
 40
0.0
 40
0.0
 40
0.0
 40
1.0
 40
1.0
 40
1.0
 40
2.0
 40
2.0
 40
2.0
 40
3.0
 40
3.0
 40
3.0
 40
3.0
 10
5.137795275590551
 20
5.196850393700788
 30
0.0
 10
5.155071219991147
 20
5.196850393700788
 30
0.0
 10
5.172046467290465
 20
5.201398897505959
 30
0.0
 10
5.187007874015748
 20
5.210036869706256
 30
0.0
 10
5.201969280741031
 20
5.218674841906554
 30
0.0
 10
5.214396024235179
 20
5.231101585400702
 30
0.0
 10
5.223033996435476
 20
5.246062992125985
 30
0.0
 10
5.231671968635775
 20
5.261024398851268
 30
0.0
 10
5.2362204724409445
 20
5.277999646150586
 30
0.0
 10
5.2362204724409445
 20
5.2952755905511815
 30
0.0
  0
SPLINE
  5
11D
330
17
100
AcDbEntity
  8
GEOMETRY
100
AcDbSpline
 70
0
 71
3
 72
11
 73
7
 74
0
 40
0.0
 40
0.0
 40
0.0
 40
0.0
 40
1.0
 40
1.0
 40
1.0
 40
2.0
 40
2.0
 40
2.0
 40
2.0
 10
5.2362204724409445
 20
5.2952755905511815
 30
0.0
 10
5.315780839895013
 20
5.2952755905511815
 30
0.0
 10
5.296686351706036
 20
5.419947506561681
 30
0.0
 10
5.395341207349081
 20
5.419947506561681
 30
0.0
 10
5.493996062992126
 20
5.419947506561681
 30
0.0
 10
5.474901574803149
 20
5.2952755905511815
 30
0.0
 10
5.554461942257218
 20
5.2952755905511815
 30
0.0
  0
SPLINE
  5
11E
330
17
100
AcDbEntity
  8
GEOMETRY
100
AcDbSpline
 70
0
 71
3
 72
14
 73
10
 74
0
 40
0.0
 40
0.0
 40
0.0
 40
0.0
 40
1.0
 40
1.0
 40
1.0
 40
2.0
 40
2.0
 40
2.0
 40
3.0
 40
3.0
 40
3.0
 40
3.0
 10
5.554461942257218
 20
5.2952755905511815
 30
0.0
 10
5.554461942257218
 20
5.277999646150586
 30
0.0
 10
5.559010446062389
 20
5.261024398851268
 30
0.0
 10
5.567648418262686
 20
5.246062992125985
 30
0.0
 10
5.576286390462984
 20
5.231101585400702
 30
0.0
 10
5.588713133957132
 20
5.218674841906554
 30
0.0
 10
5.603674540682415
 20
5.210036869706256
 30
0.0
 10
5.618635947407698
 20
5.201398897505959
 30
0.0
 10
5.635611194707016
 20
5.196850393700788
 30
0.0
 10
5.652887139107611
 20
5.196850393700788
 30
0.0
  0
POLYLINE
  5
11F
330
17
100
AcDbEntity
  8
GEOMETRY
100
AcDb2dPolyline
 66
1
 10
0.0
 20
0.0
 30
0.0
 70
0
  0
VERTEX
  5
120
330
11F
100
AcDbEntity
  8
GEOMETRY
100
AcDbVertex
100
AcDb2dVertex
 10
5.652887139107611
 20
5.196850393700788
 30
0.0
 70
0
  0
VERTEX
  5
121
330
11F
100
AcDbEntity
  8
GEOMETRY
100
AcDbVertex
100
AcDb2dVertex
 10
5.652887139107611
 20
4.12729658792651
 30
0.0
 70
0
  0
SEQEND
  5
122
330
11F
100
AcDbEntity
  8
GEOMETRY
  0
SPLINE
  5
123
330
17
100
AcDbEntity
  8
GEOMETRY
100
AcDbSpline
 70
0
 71
3
 72
14
 73
10
 74
0
 40
0.0
 40
0.0
 40
0.0
 40
0.0
 40
1.0
 40
1.0
 40
1.0
 40
2.0
 40
2.0
 40
2.0
 40
3.0
 40
3.0
 40
3.0
 40
3.0
 10
5.652887139107611
 20
4.12729658792651
 30
0.0
 10
5.635611194707016
 20
4.12729658792651
 30
0.0
 10
5.618635947407698
 20
4.12274808412134
 30
0.0
 10
5.603674540682415
 20
4.114110111921042
 30
0.0
 10
5.588713133957132
 20
4.105472139720744
 30
0.0
 10
5.576286390462984
 20
4.0930453962265965
 30
0.0
 10
5.567648418262686
 20
4.078083989501313
 30
0.0
 10
5.559010446062389
 20
4.06312258277603
 30
0.0
 10
5.554461942257218
 20
4.046147335476713
 30
0.0
 10
5.554461942257218
 20
4.028871391076117
 30
0.0
  0
SPLINE
  5
124
330
17
100
AcDbEntity
  8
GEOMETRY
100
AcDbSpline
 70
0
 71
3
 72
11
 73
7
 74
0
 40
0.0
 40
0.0
 40
0.0
 40
0.0
 40
1.0
 40
1.0
 40
1.0
 40
2.0
 40
2.0
 40
2.0
 40
2.0
 10
5.554461942257218
 20
4.028871391076117
 30
0.0
 10
5.474901574803149
 20
4.028871391076117
 30
0.0
 10
5.493996062992126
 20
3.904199475065618
 30
0.0
 10
5.395341207349081
 20
3.904199475065618
 30
0.0
 10
5.296686351706036
 20
3.904199475065618
 30
0.0
 10
5.315780839895013
 20
4.028871391076117
 30
0.0
 10
5.2362204724409445
 20
4.028871391076117
 30
0.0
  0
SPLINE
  5
125
330
17
100
AcDbEntity
  8
GEOMETRY
100
AcDbSpline
 70
0
 71
3
 72
14
 73
10
 74
0
 40
0.0
 40
0.0
 40
0.0
 40
0.0
 40
1.0
 40
1.0
 40
1.0
 40
2.0
 40
2.0
 40
2.0
 40
3.0
 40
3.0
 40
3.0
 40
3.0
 10
5.2362204724409445
 20
4.028871391076117
 30
0.0
 10
5.2362204724409445
 20
4.046147335476713
 30
0.0
 10
5.231671968635775
 20
4.06312258277603
 30
0.0
 10
5.223033996435476
 20
4.078083989501313
 30
0.0
 10
5.214396024235179
 20
4.0930453962265965
 30
0.0
 10
5.201969280741031
 20
4.105472139720744
 30
0.0
 10
5.187007874015748
 20
4.114110111921042
 30
0.0
 10
5.172046467290465
 20
4.12274808412134
 30
0.0
 10
5.155071219991147
 20
4.12729658792651
 30
0.0
 10
5.137795275590551
 20
4.12729658792651
 30
0.0
  0
CIRCLE
  5
126
330
17
100
AcDbEntity
  8
GEOMETRY
100
AcDbCircle
 10
5.147637795275591
 20
5.30511811023622
 30
0.0
 40
0.0426509186351706
  0
CIRCLE
  5
127
330
17
100
AcDbEntity
  8
GEOMETRY
100
AcDbCircle
 10
5.147637795275591
 20
5.30511811023622
 30
0.0
 40
0.01706036745406824
  0
CIRCLE
  5
128
330
17
100
AcDbEntity
  8
GEOMETRY
100
AcDbCircle
 10
5.6430446194225725
 20
5.30511811023622
 30
0.0
 40
0.0426509186351706
  0
CIRCLE
  5
129
330
17
100
AcDbEntity
  8
GEOMETRY
100
AcDbCircle
 10
5.6430446194225725
 20
5.30511811023622
 30
0.0
 40
0.01706036745406824
  0
CIRCLE
  5
12A
330
17
100
AcDbEntity
  8
GEOMETRY
100
AcDbCircle
 10
5.147637795275591
 20
4.019028871391076
 30
0.0
 40
0.0426509186351706
  0
CIRCLE
  5
12B
330
17
100
AcDbEntity
  8
GEOMETRY
100
AcDbCircle
 10
5.147637795275591
 20
4.019028871391076
 30
0.0
 40
0.01706036745406824
  0
CIRCLE
  5
12C
330
17
100
AcDbEntity
  8
GEOMETRY
100
AcDbCircle
 10
5.6430446194225725
 20
4.019028871391076
 30
0.0
 40
0.0426509186351706
  0
CIRCLE
  5
12D
330
17
100
AcDbEntity
  8
GEOMETRY
100
AcDbCircle
 10
5.6430446194225725
 20
4.019028871391076
 30
0.0
 40
0.01706036745406824
  0
CIRCLE
  5
12E
330
17
100
AcDbEntity
  8
GEOMETRY
100
AcDbCircle
 10
5.072178477690289
 20
5.961286089238846
 30
0.0
 40
0.09022309711286089
  0
CIRCLE
  5
12F
330
17
100
AcDbEntity
  8
GEOMETRY
100
AcDbCircle
 10
5.072178477690289
 20
5.961286089238846
 30
0.0
 40
0.057414698162729656
  0
CIRCLE
  5
130
330
17
100
AcDbEntity
  8
GEOMETRY
100
AcDbCircle
 10
4.783464566929133
 20
5.961286089238846
 30
0.0
 40
0.05577427821522309
  0
SPLINE
  5
131
330
17
100
AcDbEntity
  8
GEOMETRY
100
AcDbSpline
 70
0
 71
3
 72
35
 73
31
 74
0
 40
0.0
 40
0.0
 40
0.0
 40
0.0
 40
1.0
 40
1.0
 40
1.0
 40
2.0
 40
2.0
 40
2.0
 40
3.0
 40
3.0
 40
3.0
 40
4.0
 40
4.0
 40
4.0
 40
5.0
 40
5.0
 40
5.0
 40
6.0
 40
6.0
 40
6.0
 40
7.0
 40
7.0
 40
7.0
 40
8.0
 40
8.0
 40
8.0
 40
9.0
 40
9.0
 40
9.0
 40
10.0
 40
10.0
 40
10.0
 40
10.0
 10
4.7736220472440944
 20
5.964566929133859
 30
0.0
 10
4.771844127134055
 20
5.966157149223704
 30
0.0
 10
4.770477798452923
 20
5.9681548113708525
 30
0.0
 10
4.769640420636257
 20
5.9703883283830965
 30
0.0
 10
4.7688030428195916
 20
5.9726218453953415
 30
0.0
 10
4.7685192977870186
 20
5.975025383802674
 30
0.0
 10
4.768813557534329
 20
5.977392494077448
 30
0.0
 10
4.769107817281639
 20
5.979759604352222
 30
0.0
 10
4.7699714084295195
 20
5.982020515329757
 30
0.0
 10
4.771330153680027
 20
5.983981028322841
 30
0.0
 10
4.772688898930534
 20
5.985941541315925
 30
0.0
 10
4.774502748929126
 20
5.987543869715986
 30
0.0
 10
4.7766159048442605
 20
5.988650383127635
 30
0.0
 10
4.778729060759395
 20
5.989756896539285
 30
0.0
 10
4.781079236794366
 20
5.990334980204231
 30
0.0
 10
4.783464566929133
 20
5.990334980204231
 30
0.0
 10
4.785849897063901
 20
5.990334980204231
 30
0.0
 10
4.788200073098873
 20
5.989756896539285
 30
0.0
 10
4.790313229014008
 20
5.988650383127635
 30
0.0
 10
4.792426384929142
 20
5.987543869715986
 30
0.0
 10
4.794240234927734
 20
5.985941541315925
 30
0.0
 10
4.795598980178242
 20
5.983981028322841
 30
0.0
 10
4.796957725428749
 20
5.982020515329757
 30
0.0
 10
4.797821316576629
 20
5.979759604352221
 30
0.0
 10
4.798115576323939
 20
5.977392494077447
 30
0.0
 10
4.798409836071249
 20
5.975025383802673
 30
0.0
 10
4.798126091038676
 20
5.972621845395341
 30
0.0
 10
4.79728871322201
 20
5.970388328383096
 30
0.0
 10
4.796451335405345
 20
5.968154811370851
 30
0.0
 10
4.795085006724213
 20
5.966157149223704
 30
0.0
 10
4.793307086614173
 20
5.964566929133859
 30
0.0
  0
POLYLINE
  5
132
330
17
100
AcDbEntity
  8
GEOMETRY
100
AcDb2dPolyline
 66
1
 10
0.0
 20
0.0
 30
0.0
 70
0
  0
VERTEX
  5
133
330
132
100
AcDbEntity
  8
GEOMETRY
100
AcDbVertex
100
AcDb2dVertex
 10
4.793307086614173
 20
5.964566929133859
 30
0.0
 70
0
  0
VERTEX
  5
134
330
132
100
AcDbEntity
  8
GEOMETRY
100
AcDbVertex
100
AcDb2dVertex
 10
4.798228346456693
 20
5.928477690288715
 30
0.0
 70
0
  0
VERTEX
  5
135
330
132
100
AcDbEntity
  8
GEOMETRY
100
AcDbVertex
100
AcDb2dVertex
 10
4.768700787401575
 20
5.928477690288715
 30
0.0
 70
0
  0
VERTEX
  5
136
330
132
100
AcDbEntity
  8
GEOMETRY
100
AcDbVertex
100
AcDb2dVertex
 10
4.7736220472440944
 20
5.964566929133859
 30
0.0
 70
0
  0
SEQEND
  5
137
330
132
100
AcDbEntity
  8
GEOMETRY
  0
LWPOLYLINE
  5
138
330
17
100
AcDbEntity
  8
GEOMETRY
100
AcDbPolyline
 90
5
 70
0
 10
6.145013123359579
 20
10.354330708661418
 10
7.644356955380576
 20
10.354330708661418
 10
7.644356955380576
 20
2.7723097112860913
 10
6.145013123359579
 20
2.7723097112860913
 10
6.145013123359579
 20
10.354330708661418
  0
LINE
  5
139
330
17
100
AcDbEntity
  8
GEOMETRY
100
AcDbLine
 10
6.473097112860892
 20
10.026246719160106
 30
0.0
 11
7.316272965879264
 21
10.026246719160106
 31
0.0
  0
LINE
  5
13A
330
17
100
AcDbEntity
  8
GEOMETRY
100
AcDbLine
 10
6.473097112860892
 20
3.7401574803149606
 30
0.0
 11
7.316272965879264
 21
3.7401574803149606
 31
0.0
  0
LINE
  5
13B
330
17
100
AcDbEntity
  8
GEOMETRY
100
AcDbLine
 10
6.473097112860892
 20
6.338582677165355
 30
0.0
 11
6.473097112860892
 21
5.583989501312336
 31
0.0
  0
LINE
  5
13C
330
17
100
AcDbEntity
  8
GEOMETRY
100
AcDbLine
 10
7.316272965879264
 20
6.338582677165355
 30
0.0
 11
7.316272965879264
 21
5.583989501312336
 31
0.0
  0
LINE
  5
13D
330
17
100
AcDbEntity
  8
GEOMETRY
100
AcDbLine
 10
6.473097112860892
 20
10.354330708661417
 30
0.0
 11
6.473097112860892
 21
10.026246719160106
 31
0.0
  0
LINE
  5
13E
330
17
100
AcDbEntity
  8
GEOMETRY
100
AcDbLine
 10
7.316272965879264
 20
10.354330708661417
 30
0.0
 11
7.316272965879264
 21
10.026246719160106
 31
0.0
  0
LINE
  5
13F
330
17
100
AcDbEntity
  8
GEOMETRY
100
AcDbLine
 10
6.473097112860892
 20
3.7401574803149606
 30
0.0
 11
6.473097112860892
 21
2.77230971128609
 31
0.0
  0
LINE
  5
140
330
17
100
AcDbEntity
  8
GEOMETRY
100
AcDbLine
 10
7.316272965879264
 20
3.7401574803149606
 30
0.0
 11
7.316272965879264
 21
2.77230971128609
 31
0.0
  0
LWPOLYLINE
  5
141
330
17
100
AcDbEntity
  8
GEOMETRY
100
AcDbPolyline
 90
5
 70
0
 10
6.473097112860892
 20
10.026246719160106
 10
7.316272965879264
 20
10.026246719160106
 10
7.316272965879264
 20
6.338582677165355
 10
6.473097112860892
 20
6.338582677165355
 10
6.473097112860892
 20
10.026246719160106
  0
LWPOLYLINE
  5
142
330
17
100
AcDbEntity
  8
GEOMETRY
100
AcDbPolyline
 90
5
 70
0
 10
6.538713910761154
 20
9.960629921259843
 10
7.2506561679790025
 20
9.960629921259843
 10
7.2506561679790025
 20
6.404199475065618
 10
6.538713910761154
 20
6.404199475065618
 10
6.538713910761154
 20
9.960629921259843
  0
LINE
  5
143
330
17
100
AcDbEntity
  8
GEOMETRY
100
AcDbLine
 10
6.473097112860892
 20
10.026246719160106
 30
0.0
 11
6.538713910761154
 21
9.960629921259843
 31
0.0
  0
LINE
  5
144
330
17
100
AcDbEntity
  8
GEOMETRY
100
AcDbLine
 10
7.316272965879264
 20
10.026246719160106
 30
0.0
 11
7.2506561679790025
 21
9.960629921259843
 31
0.0
  0
LINE
  5
145
330
17
100
AcDbEntity
  8
GEOMETRY
100
AcDbLine
 10
6.473097112860892
 20
6.338582677165355
 30
0.0
 11
6.538713910761154
 21
6.404199475065617
 31
0.0
  0
LINE
  5
146
330
17
100
AcDbEntity
  8
GEOMETRY
100
AcDbLine
 10
7.316272965879264
 20
6.338582677165355
 30
0.0
 11
7.2506561679790025
 21
6.404199475065617
 31
0.0
  0
POLYLINE
  5
147
330
17
100
AcDbEntity
  8
GEOMETRY
100
AcDb2dPolyline
 66
1
 10
0.0
 20
0.0
 30
0.0
 70
0
  0
VERTEX
  5
148
330
147
100
AcDbEntity
  8
GEOMETRY
100
AcDbVertex
100
AcDb2dVertex
 10
6.637139107611548
 20
6.725721784776904
 30
0.0
 70
0
  0
VERTEX
  5
149
330
147
100
AcDbEntity
  8
GEOMETRY
100
AcDbVertex
100
AcDb2dVertex
 10
6.637139107611548
 20
9.639107611548557
 30
0.0
 70
0
  0
SEQEND
  5
14A
330
147
100
AcDbEntity
  8
GEOMETRY
  0
SPLINE
  5
14B
330
17
100
AcDbEntity
  8
GEOMETRY
100
AcDbSpline
 70
0
 71
3
 72
14
 73
10
 74
0
 40
0.0
 40
0.0
 40
0.0
 40
0.0
 40
1.0
 40
1.0
 40
1.0
 40
2.0
 40
2.0
 40
2.0
 40
3.0
 40
3.0
 40
3.0
 40
3.0
 10
6.637139107611548
 20
9.639107611548557
 30
0.0
 10
6.654415052012143
 20
9.639107611548557
 30
0.0
 10
6.6713902993114615
 20
9.643656115353728
 30
0.0
 10
6.686351706036745
 20
9.652294087554026
 30
0.0
 10
6.701313112762028
 20
9.660932059754323
 30
0.0
 10
6.713739856256176
 20
9.67335880324847
 30
0.0
 10
6.722377828456473
 20
9.688320209973753
 30
0.0
 10
6.731015800656771
 20
9.703281616699037
 30
0.0
 10
6.735564304461941
 20
9.720256863998355
 30
0.0
 10
6.735564304461941
 20
9.737532808398951
 30
0.0
  0
SPLINE
  5
14C
330
17
100
AcDbEntity
  8
GEOMETRY
100
AcDbSpline
 70
0
 71
3
 72
11
 73
7
 74
0
 40
0.0
 40
0.0
 40
0.0
 40
0.0
 40
1.0
 40
1.0
 40
1.0
 40
2.0
 40
2.0
 40
2.0
 40
2.0
 10
6.735564304461941
 20
9.737532808398951
 30
0.0
 10
6.81512467191601
 20
9.737532808398951
 30
0.0
 10
6.7960301837270345
 20
9.86220472440945
 30
0.0
 10
6.894685039370079
 20
9.86220472440945
 30
0.0
 10
6.993339895013123
 20
9.86220472440945
 30
0.0
 10
6.974245406824146
 20
9.737532808398951
 30
0.0
 10
7.0538057742782145
 20
9.737532808398951
 30
0.0
  0
SPLINE
  5
14D
330
17
100
AcDbEntity
  8
GEOMETRY
100
AcDbSpline
 70
0
 71
3
 72
14
 73
10
 74
0
 40
0.0
 40
0.0
 40
0.0
 40
0.0
 40
1.0
 40
1.0
 40
1.0
 40
2.0
 40
2.0
 40
2.0
 40
3.0
 40
3.0
 40
3.0
 40
3.0
 10
7.0538057742782145
 20
9.737532808398951
 30
0.0
 10
7.0538057742782145
 20
9.720256863998355
 30
0.0
 10
7.058354278083385
 20
9.703281616699037
 30
0.0
 10
7.066992250283683
 20
9.688320209973753
 30
0.0
 10
7.075630222483981
 20
9.67335880324847
 30
0.0
 10
7.0880569659781285
 20
9.660932059754323
 30
0.0
 10
7.103018372703412
 20
9.652294087554026
 30
0.0
 10
7.117979779428695
 20
9.643656115353728
 30
0.0
 10
7.134955026728012
 20
9.639107611548557
 30
0.0
 10
7.152230971128608
 20
9.639107611548557
 30
0.0
  0
POLYLINE
  5
14E
330
17
100
AcDbEntity
  8
GEOMETRY
100
AcDb2dPolyline
 66
1
 10
0.0
 20
0.0
 30
0.0
 70
0
  0
VERTEX
  5
14F
330
14E
100
AcDbEntity
  8
GEOMETRY
100
AcDbVertex
100
AcDb2dVertex
 10
7.152230971128608
 20
9.639107611548557
 30
0.0
 70
0
  0
VERTEX
  5
150
330
14E
100
AcDbEntity
  8
GEOMETRY
100
AcDbVertex
100
AcDb2dVertex
 10
7.152230971128608
 20
6.725721784776904
 30
0.0
 70
0
  0
SEQEND
  5
151
330
14E
100
AcDbEntity
  8
GEOMETRY
  0
SPLINE
  5
152
330
17
100
AcDbEntity
  8
GEOMETRY
100
AcDbSpline
 70
0
 71
3
 72
14
 73
10
 74
0
 40
0.0
 40
0.0
 40
0.0
 40
0.0
 40
1.0
 40
1.0
 40
1.0
 40
2.0
 40
2.0
 40
2.0
 40
3.0
 40
3.0
 40
3.0
 40
3.0
 10
7.152230971128608
 20
6.725721784776904
 30
0.0
 10
7.134955026728012
 20
6.725721784776904
 30
0.0
 10
7.117979779428695
 20
6.721173280971733
 30
0.0
 10
7.103018372703412
 20
6.712535308771435
 30
0.0
 10
7.0880569659781285
 20
6.703897336571137
 30
0.0
 10
7.075630222483981
 20
6.69147059307699
 30
0.0
 10
7.066992250283683
 20
6.676509186351707
 30
0.0
 10
7.058354278083385
 20
6.6615477796264235
 30
0.0
 10
7.0538057742782145
 20
6.644572532327106
 30
0.0
 10
7.0538057742782145
 20
6.62729658792651
 30
0.0
  0
SPLINE
  5
153
330
17
100
AcDbEntity
  8
GEOMETRY
100
AcDbSpline
 70
0
 71
3
 72
11
 73
7
 74
0
 40
0.0
 40
0.0
 40
0.0
 40
0.0
 40
1.0
 40
1.0
 40
1.0
 40
2.0
 40
2.0
 40
2.0
 40
2.0
 10
7.0538057742782145
 20
6.62729658792651
 30
0.0
 10
6.974245406824146
 20
6.62729658792651
 30
0.0
 10
6.993339895013123
 20
6.502624671916012
 30
0.0
 10
6.894685039370079
 20
6.502624671916012
 30
0.0
 10
6.7960301837270345
 20
6.502624671916012
 30
0.0
 10
6.81512467191601
 20
6.62729658792651
 30
0.0
 10
6.735564304461941
 20
6.62729658792651
 30
0.0
  0
SPLINE
  5
154
330
17
100
AcDbEntity
  8
GEOMETRY
100
AcDbSpline
 70
0
 71
3
 72
14
 73
10
 74
0
 40
0.0
 40
0.0
 40
0.0
 40
0.0
 40
1.0
 40
1.0
 40
1.0
 40
2.0
 40
2.0
 40
2.0
 40
3.0
 40
3.0
 40
3.0
 40
3.0
 10
6.735564304461941
 20
6.62729658792651
 30
0.0
 10
6.735564304461941
 20
6.644572532327106
 30
0.0
 10
6.731015800656771
 20
6.6615477796264235
 30
0.0
 10
6.722377828456473
 20
6.676509186351707
 30
0.0
 10
6.713739856256176
 20
6.69147059307699
 30
0.0
 10
6.701313112762028
 20
6.703897336571137
 30
0.0
 10
6.686351706036745
 20
6.712535308771435
 30
0.0
 10
6.6713902993114615
 20
6.721173280971733
 30
0.0
 10
6.654415052012143
 20
6.725721784776904
 30
0.0
 10
6.637139107611548
 20
6.725721784776904
 30
0.0
  0
CIRCLE
  5
155
330
17
100
AcDbEntity
  8
GEOMETRY
100
AcDbCircle
 10
6.646981627296587
 20
9.74737532808399
 30
0.0
 40
0.0426509186351706
  0
CIRCLE
  5
156
330
17
100
AcDbEntity
  8
GEOMETRY
100
AcDbCircle
 10
6.646981627296587
 20
9.74737532808399
 30
0.0
 40
0.01706036745406824
  0
CIRCLE
  5
157
330
17
100
AcDbEntity
  8
GEOMETRY
100
AcDbCircle
 10
7.142388451443569
 20
9.74737532808399
 30
0.0
 40
0.0426509186351706
  0
CIRCLE
  5
158
330
17
100
AcDbEntity
  8
GEOMETRY
100
AcDbCircle
 10
7.142388451443569
 20
9.74737532808399
 30
0.0
 40
0.01706036745406824
  0
CIRCLE
  5
159
330
17
100
AcDbEntity
  8
GEOMETRY
100
AcDbCircle
 10
6.646981627296587
 20
6.61745406824147
 30
0.0
 40
0.0426509186351706
  0
CIRCLE
  5
15A
330
17
100
AcDbEntity
  8
GEOMETRY
100
AcDbCircle
 10
6.646981627296587
 20
6.61745406824147
 30
0.0
 40
0.01706036745406824
  0
CIRCLE
  5
15B
330
17
100
AcDbEntity
  8
GEOMETRY
100
AcDbCircle
 10
7.142388451443569
 20
6.61745406824147
 30
0.0
 40
0.0426509186351706
  0
CIRCLE
  5
15C
330
17
100
AcDbEntity
  8
GEOMETRY
100
AcDbCircle
 10
7.142388451443569
 20
6.61745406824147
 30
0.0
 40
0.01706036745406824
  0
LWPOLYLINE
  5
15D
330
17
100
AcDbEntity
  8
GEOMETRY
100
AcDbPolyline
 90
5
 70
0
 10
6.473097112860892
 20
5.583989501312337
 10
7.316272965879264
 20
5.583989501312337
 10
7.316272965879264
 20
3.740157480314961
 10
6.473097112860892
 20
3.740157480314961
 10
6.473097112860892
 20
5.583989501312337
  0
LWPOLYLINE
  5
15E
330
17
100
AcDbEntity
  8
GEOMETRY
100
AcDbPolyline
 90
5
 70
0
 10
6.538713910761154
 20
5.518372703412075
 10
7.2506561679790025
 20
5.518372703412075
 10
7.2506561679790025
 20
3.8057742782152246
 10
6.538713910761154
 20
3.8057742782152246
 10
6.538713910761154
 20
5.518372703412075
  0
LINE
  5
15F
330
17
100
AcDbEntity
  8
GEOMETRY
100
AcDbLine
 10
6.473097112860892
 20
5.583989501312336
 30
0.0
 11
6.538713910761154
 21
5.518372703412074
 31
0.0
  0
LINE
  5
160
330
17
100
AcDbEntity
  8
GEOMETRY
100
AcDbLine
 10
7.316272965879264
 20
5.583989501312336
 30
0.0
 11
7.2506561679790025
 21
5.518372703412074
 31
0.0
  0
LINE
  5
161
330
17
100
AcDbEntity
  8
GEOMETRY
100
AcDbLine
 10
6.473097112860892
 20
3.7401574803149606
 30
0.0
 11
6.538713910761154
 21
3.8057742782152237
 31
0.0
  0
LINE
  5
162
330
17
100
AcDbEntity
  8
GEOMETRY
100
AcDbLine
 10
7.316272965879264
 20
3.7401574803149606
 30
0.0
 11
7.2506561679790025
 21
3.8057742782152237
 31
0.0
  0
POLYLINE
  5
163
330
17
100
AcDbEntity
  8
GEOMETRY
100
AcDb2dPolyline
 66
1
 10
0.0
 20
0.0
 30
0.0
 70
0
  0
VERTEX
  5
164
330
163
100
AcDbEntity
  8
GEOMETRY
100
AcDbVertex
100
AcDb2dVertex
 10
6.637139107611548
 20
4.12729658792651
 30
0.0
 70
0
  0
VERTEX
  5
165
330
163
100
AcDbEntity
  8
GEOMETRY
100
AcDbVertex
100
AcDb2dVertex
 10
6.637139107611548
 20
5.196850393700788
 30
0.0
 70
0
  0
SEQEND
  5
166
330
163
100
AcDbEntity
  8
GEOMETRY
  0
SPLINE
  5
167
330
17
100
AcDbEntity
  8
GEOMETRY
100
AcDbSpline
 70
0
 71
3
 72
14
 73
10
 74
0
 40
0.0
 40
0.0
 40
0.0
 40
0.0
 40
1.0
 40
1.0
 40
1.0
 40
2.0
 40
2.0
 40
2.0
 40
3.0
 40
3.0
 40
3.0
 40
3.0
 10
6.637139107611548
 20
5.196850393700788
 30
0.0
 10
6.654415052012143
 20
5.196850393700788
 30
0.0
 10
6.6713902993114615
 20
5.201398897505959
 30
0.0
 10
6.686351706036745
 20
5.210036869706256
 30
0.0
 10
6.701313112762028
 20
5.218674841906554
 30
0.0
 10
6.713739856256176
 20
5.231101585400702
 30
0.0
 10
6.722377828456473
 20
5.246062992125985
 30
0.0
 10
6.731015800656771
 20
5.261024398851268
 30
0.0
 10
6.735564304461941
 20
5.277999646150586
 30
0.0
 10
6.735564304461941
 20
5.2952755905511815
 30
0.0
  0
SPLINE
  5
168
330
17
100
AcDbEntity
  8
GEOMETRY
100
AcDbSpline
 70
0
 71
3
 72
11
 73
7
 74
0
 40
0.0
 40
0.0
 40
0.0
 40
0.0
 40
1.0
 40
1.0
 40
1.0
 40
2.0
 40
2.0
 40
2.0
 40
2.0
 10
6.735564304461941
 20
5.2952755905511815
 30
0.0
 10
6.81512467191601
 20
5.2952755905511815
 30
0.0
 10
6.7960301837270345
 20
5.419947506561681
 30
0.0
 10
6.894685039370079
 20
5.419947506561681
 30
0.0
 10
6.993339895013123
 20
5.419947506561681
 30
0.0
 10
6.974245406824146
 20
5.2952755905511815
 30
0.0
 10
7.0538057742782145
 20
5.2952755905511815
 30
0.0
  0
SPLINE
  5
169
330
17
100
AcDbEntity
  8
GEOMETRY
100
AcDbSpline
 70
0
 71
3
 72
14
 73
10
 74
0
 40
0.0
 40
0.0
 40
0.0
 40
0.0
 40
1.0
 40
1.0
 40
1.0
 40
2.0
 40
2.0
 40
2.0
 40
3.0
 40
3.0
 40
3.0
 40
3.0
 10
7.0538057742782145
 20
5.2952755905511815
 30
0.0
 10
7.0538057742782145
 20
5.277999646150586
 30
0.0
 10
7.058354278083385
 20
5.261024398851268
 30
0.0
 10
7.066992250283683
 20
5.246062992125985
 30
0.0
 10
7.075630222483981
 20
5.231101585400702
 30
0.0
 10
7.0880569659781285
 20
5.218674841906554
 30
0.0
 10
7.103018372703412
 20
5.210036869706256
 30
0.0
 10
7.117979779428695
 20
5.201398897505959
 30
0.0
 10
7.134955026728012
 20
5.196850393700788
 30
0.0
 10
7.152230971128608
 20
5.196850393700788
 30
0.0
  0
POLYLINE
  5
16A
330
17
100
AcDbEntity
  8
GEOMETRY
100
AcDb2dPolyline
 66
1
 10
0.0
 20
0.0
 30
0.0
 70
0
  0
VERTEX
  5
16B
330
16A
100
AcDbEntity
  8
GEOMETRY
100
AcDbVertex
100
AcDb2dVertex
 10
7.152230971128608
 20
5.196850393700788
 30
0.0
 70
0
  0
VERTEX
  5
16C
330
16A
100
AcDbEntity
  8
GEOMETRY
100
AcDbVertex
100
AcDb2dVertex
 10
7.152230971128608
 20
4.12729658792651
 30
0.0
 70
0
  0
SEQEND
  5
16D
330
16A
100
AcDbEntity
  8
GEOMETRY
  0
SPLINE
  5
16E
330
17
100
AcDbEntity
  8
GEOMETRY
100
AcDbSpline
 70
0
 71
3
 72
14
 73
10
 74
0
 40
0.0
 40
0.0
 40
0.0
 40
0.0
 40
1.0
 40
1.0
 40
1.0
 40
2.0
 40
2.0
 40
2.0
 40
3.0
 40
3.0
 40
3.0
 40
3.0
 10
7.152230971128608
 20
4.12729658792651
 30
0.0
 10
7.134955026728012
 20
4.12729658792651
 30
0.0
 10
7.117979779428695
 20
4.12274808412134
 30
0.0
 10
7.103018372703412
 20
4.114110111921042
 30
0.0
 10
7.0880569659781285
 20
4.105472139720744
 30
0.0
 10
7.075630222483981
 20
4.0930453962265965
 30
0.0
 10
7.066992250283683
 20
4.078083989501313
 30
0.0
 10
7.058354278083385
 20
4.06312258277603
 30
0.0
 10
7.0538057742782145
 20
4.046147335476713
 30
0.0
 10
7.0538057742782145
 20
4.028871391076117
 30
0.0
  0
SPLINE
  5
16F
330
17
100
AcDbEntity
  8
GEOMETRY
100
AcDbSpline
 70
0
 71
3
 72
11
 73
7
 74
0
 40
0.0
 40
0.0
 40
0.0
 40
0.0
 40
1.0
 40
1.0
 40
1.0
 40
2.0
 40
2.0
 40
2.0
 40
2.0
 10
7.0538057742782145
 20
4.028871391076117
 30
0.0
 10
6.974245406824146
 20
4.028871391076117
 30
0.0
 10
6.993339895013123
 20
3.904199475065618
 30
0.0
 10
6.894685039370079
 20
3.904199475065618
 30
0.0
 10
6.7960301837270345
 20
3.904199475065618
 30
0.0
 10
6.81512467191601
 20
4.028871391076117
 30
0.0
 10
6.735564304461941
 20
4.028871391076117
 30
0.0
  0
SPLINE
  5
170
330
17
100
AcDbEntity
  8
GEOMETRY
100
AcDbSpline
 70
0
 71
3
 72
14
 73
10
 74
0
 40
0.0
 40
0.0
 40
0.0
 40
0.0
 40
1.0
 40
1.0
 40
1.0
 40
2.0
 40
2.0
 40
2.0
 40
3.0
 40
3.0
 40
3.0
 40
3.0
 10
6.735564304461941
 20
4.028871391076117
 30
0.0
 10
6.735564304461941
 20
4.046147335476713
 30
0.0
 10
6.731015800656771
 20
4.06312258277603
 30
0.0
 10
6.722377828456473
 20
4.078083989501313
 30
0.0
 10
6.713739856256176
 20
4.0930453962265965
 30
0.0
 10
6.701313112762028
 20
4.105472139720744
 30
0.0
 10
6.686351706036745
 20
4.114110111921042
 30
0.0
 10
6.6713902993114615
 20
4.12274808412134
 30
0.0
 10
6.654415052012143
 20
4.12729658792651
 30
0.0
 10
6.637139107611548
 20
4.12729658792651
 30
0.0
  0
CIRCLE
  5
171
330
17
100
AcDbEntity
  8
GEOMETRY
100
AcDbCircle
 10
6.646981627296587
 20
5.30511811023622
 30
0.0
 40
0.0426509186351706
  0
CIRCLE
  5
172
330
17
100
AcDbEntity
  8
GEOMETRY
100
AcDbCircle
 10
6.646981627296587
 20
5.30511811023622
 30
0.0
 40
0.01706036745406824
  0
CIRCLE
  5
173
330
17
100
AcDbEntity
  8
GEOMETRY
100
AcDbCircle
 10
7.142388451443569
 20
5.30511811023622
 30
0.0
 40
0.0426509186351706
  0
CIRCLE
  5
174
330
17
100
AcDbEntity
  8
GEOMETRY
100
AcDbCircle
 10
7.142388451443569
 20
5.30511811023622
 30
0.0
 40
0.01706036745406824
  0
CIRCLE
  5
175
330
17
100
AcDbEntity
  8
GEOMETRY
100
AcDbCircle
 10
6.646981627296587
 20
4.019028871391076
 30
0.0
 40
0.0426509186351706
  0
CIRCLE
  5
176
330
17
100
AcDbEntity
  8
GEOMETRY
100
AcDbCircle
 10
6.646981627296587
 20
4.019028871391076
 30
0.0
 40
0.01706036745406824
  0
CIRCLE
  5
177
330
17
100
AcDbEntity
  8
GEOMETRY
100
AcDbCircle
 10
7.142388451443569
 20
4.019028871391076
 30
0.0
 40
0.0426509186351706
  0
CIRCLE
  5
178
330
17
100
AcDbEntity
  8
GEOMETRY
100
AcDbCircle
 10
7.142388451443569
 20
4.019028871391076
 30
0.0
 40
0.01706036745406824
  0
LINE
  5
179
330
17
100
AcDbEntity
  8
GEOMETRY
100
AcDbLine
 10
6.164698162729658
 20
10.354330708661417
 30
0.0
 11
6.164698162729658
 21
2.77230971128609
 31
0.0
  0
LINE
  5
17A
330
17
100
AcDbEntity
  8
GEOMETRY
100
AcDbLine
 10
4.153543307086614
 20
2.77230971128609
 30
0.0
 11
8.136482939632545
 21
2.77230971128609
 31
0.0
  0
LINE
  5
17B
330
17
100
AcDbEntity
  8
DIMENSIONS
100
AcDbLine
 10
4.586614173228346
 20
2.5362204724409443
 30
0.0
 11
7.703543307086614
 21
2.5362204724409443
 31
0.0
  0
LINE
  5
17C
330
17
100
AcDbEntity
  8
DIMENSIONS
100
AcDbLine
 10
4.645669291338582
 20
2.733070866141732
 30
0.0
 11
4.645669291338582
 21
2.488976377952756
 31
0.0
  0
LINE
  5
17D
330
17
100
AcDbEntity
  8
DIMENSIONS
100
AcDbLine
 10
4.606299212598425
 20
2.496850393700787
 30
0.0
 11
4.68503937007874
 21
2.5755905511811017
 31
0.0
  0
LINE
  5
17E
330
17
100
AcDbEntity
  8
DIMENSIONS
100
AcDbLine
 10
7.644488188976378
 20
2.733070866141732
 30
0.0
 11
7.644488188976378
 21
2.488976377952756
 31
0.0
  0
LINE
  5
17F
330
17
100
AcDbEntity
  8
DIMENSIONS
100
AcDbLine
 10
7.60511811023622
 20
2.496850393700787
 30
0.0
 11
7.683858267716535
 21
2.5755905511811017
 31
0.0
  0
TEXT
  5
180
330
17
100
AcDbEntity
  8
TEXT
100
AcDbText
 10
6.14488188976378
 20
2.5677165354330707
 30
0.0
 40
0.03968503937007874
  1
3'-0"
 72
1
 11
6.14488188976378
 21
2.5677165354330707
 31
0.0
100
AcDbText
  0
TEXT
  5
181
330
17
100
AcDbEntity
  8
TEXT
100
AcDbText
 10
1.0236220472440944
 20
2.559055118110236
 30
0.0
 40
0.05385826771653543
  1
THE SAME DRAWING AS THE DOOR SHEETS — NOT A REDRAW
 11
1.0236220472440944
 21
2.559055118110236
 31
0.0
100
AcDbText
  0
TEXT
  5
182
330
17
100
AcDbEntity
  8
TEXT
100
AcDbText
 10
1.0236220472440944
 20
2.3385826771653546
 30
0.0
 40
0.04535433070866141
  1
Both elevations are generated from the door sheets' own code, so the design cannot
 11
1.0236220472440944
 21
2.3385826771653546
 31
0.0
100
AcDbText
  0
TEXT
  5
183
330
17
100
AcDbEntity
  8
TEXT
100
AcDbText
 10
1.0236220472440944
 20
2.1653543307086616
 30
0.0
 40
0.04535433070866141
  1
drift. Nothing on this sheet changes how the door LOOKS — only how it is made.
 11
1.0236220472440944
 21
2.1653543307086616
 31
0.0
100
AcDbText
  0
TEXT
  5
184
330
17
100
AcDbEntity
  8
TEXT
100
AcDbText
 10
8.346456692913385
 20
11.023622047244094
 30
0.0
 40
0.09070866141732283
  1
1 · THROUGH THE LEAF
 11
8.346456692913385
 21
11.023622047244094
 31
0.0
100
AcDbText
  0
LINE
  5
185
330
17
100
AcDbEntity
  8
GEOMETRY
100
AcDbLine
 10
8.346456692913385
 20
10.964566929133857
 30
0.0
 11
12.125984251968504
 21
10.964566929133857
 31
0.0
  0
TEXT
  5
186
330
17
100
AcDbEntity
  8
TEXT
100
AcDbText
 10
8.346456692913385
 20
10.834645669291337
 30
0.0
 40
0.048188976377952754
  1
SECTION ACROSS A PANEL · 1:2 · EVERY MEMBER PLANTED ON
 11
8.346456692913385
 21
10.834645669291337
 31
0.0
100
AcDbText
  0
HATCH
  5
187
330
17
100
AcDbEntity
  8
HATCH
 62
7
100
AcDbHatch
 10
0.0
 20
0.0
 30
0.0
210
0.0
220
0.0
230
1.0
  2
ANSI31
 70
0
 71
0
 91
1
 92
3
 72
0
 73
1
 93
5
 10
9.448818897637794
 20
9.094488188976378
 10
14.37007874015748
 20
9.094488188976378
 10
14.37007874015748
 20
8.346456692913385
 10
9.448818897637794
 20
8.346456692913385
 10
9.448818897637794
 20
9.094488188976378
 97
0
 75
1
 76
1
 52
0.0
 41
0.015748031496062992
 77
0
 78
1
 53
45.0
 43
0.0
 44
0.0
 45
-0.0013919425
 46
0.0013919425
 79
0
 98
0
  0
LWPOLYLINE
  5
188
330
17
100
AcDbEntity
  8
GEOMETRY
100
AcDbPolyline
 90
5
 70
0
 10
9.448818897637794
 20
9.094488188976378
 10
14.37007874015748
 20
9.094488188976378
 10
14.37007874015748
 20
8.346456692913387
 10
9.448818897637794
 20
8.346456692913387
 10
9.448818897637794
 20
9.094488188976378
  0
LWPOLYLINE
  5
189
330
17
100
AcDbEntity
  8
GEOMETRY
100
AcDbPolyline
 90
5
 70
0
 10
9.448818897637794
 20
9.137795275590552
 10
14.37007874015748
 20
9.137795275590552
 10
14.37007874015748
 20
9.094488188976378
 10
9.448818897637794
 20
9.094488188976378
 10
9.448818897637794
 20
9.137795275590552
  0
LWPOLYLINE
  5
18A
330
17
100
AcDbEntity
  8
GEOMETRY
100
AcDbPolyline
 90
5
 70
0
 10
9.448818897637794
 20
8.346456692913387
 10
14.37007874015748
 20
8.346456692913387
 10
14.37007874015748
 20
8.303149606299213
 10
9.448818897637794
 20
8.303149606299213
 10
9.448818897637794
 20
8.346456692913387
  0
LWPOLYLINE
  5
18B
330
17
100
AcDbEntity
  8
GEOMETRY
100
AcDbPolyline
 90
5
 70
0
 10
9.21259842519685
 20
9.137795275590552
 10
9.448818897637794
 20
9.137795275590552
 10
9.448818897637794
 20
8.303149606299213
 10
9.21259842519685
 20
8.303149606299213
 10
9.21259842519685
 20
9.137795275590552
  0
POLYLINE
  5
18C
330
17
100
AcDbEntity
  8
GEOMETRY
100
AcDb2dPolyline
 66
1
 10
0.0
 20
0.0
 30
0.0
 70
0
  0
VERTEX
  5
18D
330
18C
100
AcDbEntity
  8
GEOMETRY
100
AcDbVertex
100
AcDb2dVertex
 10
10.984251968503937
 20
9.137795275590552
 30
0.0
 70
0
  0
VERTEX
  5
18E
330
18C
100
AcDbEntity
  8
GEOMETRY
100
AcDbVertex
100
AcDb2dVertex
 10
10.984251968503937
 20
9.220472440944881
 30
0.0
 70
0
  0
SEQEND
  5
18F
330
18C
100
AcDbEntity
  8
GEOMETRY
  0
SPLINE
  5
190
330
17
100
AcDbEntity
  8
GEOMETRY
100
AcDbSpline
 70
0
 71
3
 72
8
 73
4
 74
0
 40
0.0
 40
0.0
 40
0.0
 40
0.0
 40
1.0
 40
1.0
 40
1.0
 40
1.0
 10
10.984251968503937
 20
9.220472440944881
 30
0.0
 10
10.997375328083988
 20
9.32283464566929
 30
0.0
 10
11.06036745406824
 20
9.374015748031496
 30
0.0
 10
11.173228346456693
 20
9.374015748031496
 30
0.0
  0
POLYLINE
  5
191
330
17
100
AcDbEntity
  8
GEOMETRY
100
AcDb2dPolyline
 66
1
 10
0.0
 20
0.0
 30
0.0
 70
0
  0
VERTEX
  5
192
330
191
100
AcDbEntity
  8
GEOMETRY
100
AcDbVertex
100
AcDb2dVertex
 10
11.173228346456693
 20
9.374015748031496
 30
0.0
 70
0
  0
VERTEX
  5
193
330
191
100
AcDbEntity
  8
GEOMETRY
100
AcDbVertex
100
AcDb2dVertex
 10
11.318897637795276
 20
9.374015748031496
 30
0.0
 70
0
  0
VERTEX
  5
194
330
191
100
AcDbEntity
  8
GEOMETRY
100
AcDbVertex
100
AcDb2dVertex
 10
11.377952755905511
 20
9.303149606299213
 30
0.0
 70
0
  0
VERTEX
  5
195
330
191
100
AcDbEntity
  8
GEOMETRY
100
AcDbVertex
100
AcDb2dVertex
 10
11.377952755905511
 20
9.137795275590552
 30
0.0
 70
0
  0
VERTEX
  5
196
330
191
100
AcDbEntity
  8
GEOMETRY
100
AcDbVertex
100
AcDb2dVertex
 10
10.984251968503937
 20
9.137795275590552
 30
0.0
 70
0
  0
SEQEND
  5
197
330
191
100
AcDbEntity
  8
GEOMETRY
  0
SPLINE
  5
198
330
17
100
AcDbEntity
  8
GEOMETRY
100
AcDbSpline
 70
0
 71
3
 72
11
 73
7
 74
0
 40
0.0
 40
0.0
 40
0.0
 40
0.0
 40
1.0
 40
1.0
 40
1.0
 40
2.0
 40
2.0
 40
2.0
 40
2.0
 10
12.283464566929133
 20
9.137795275590552
 30
0.0
 10
12.283464566929133
 20
9.216535433070867
 30
0.0
 10
12.316272965879264
 20
9.255905511811024
 30
0.0
 10
12.381889763779528
 20
9.255905511811024
 30
0.0
 10
12.44750656167979
 20
9.255905511811024
 30
0.0
 10
12.48031496062992
 20
9.216535433070867
 30
0.0
 10
12.48031496062992
 20
9.137795275590552
 30
0.0
  0
POLYLINE
  5
199
330
17
100
AcDbEntity
  8
GEOMETRY
100
AcDb2dPolyline
 66
1
 10
0.0
 20
0.0
 30
0.0
 70
0
  0
VERTEX
  5
19A
330
199
100
AcDbEntity
  8
GEOMETRY
100
AcDbVertex
100
AcDb2dVertex
 10
12.48031496062992
 20
9.137795275590552
 30
0.0
 70
0
  0
VERTEX
  5
19B
330
199
100
AcDbEntity
  8
GEOMETRY
100
AcDbVertex
100
AcDb2dVertex
 10
12.283464566929133
 20
9.137795275590552
 30
0.0
 70
0
  0
SEQEND
  5
19C
330
199
100
AcDbEntity
  8
GEOMETRY
  0
LINE
  5
19D
330
17
100
AcDbEntity
  8
GEOMETRY
100
AcDbLine
 10
8.700787401574804
 20
9.13779527559055
 30
0.0
 11
14.566929133858267
 21
9.13779527559055
 31
0.0
  0
LINE
  5
19E
330
17
100
AcDbEntity
  8
DIMENSIONS
100
AcDbLine
 10
9.153543307086615
 20
7.952755905511811
 30
0.0
 11
11.437007874015748
 21
7.952755905511811
 31
0.0
  0
LINE
  5
19F
330
17
100
AcDbEntity
  8
DIMENSIONS
100
AcDbLine
 10
9.21259842519685
 20
8.248031496062993
 30
0.0
 11
9.21259842519685
 21
7.905511811023622
 31
0.0
  0
LINE
  5
1A0
330
17
100
AcDbEntity
  8
DIMENSIONS
100
AcDbLine
 10
9.173228346456693
 20
7.913385826771654
 30
0.0
 11
9.251968503937007
 21
7.9921259842519685
 31
0.0
  0
LINE
  5
1A1
330
17
100
AcDbEntity
  8
DIMENSIONS
100
AcDbLine
 10
9.448818897637794
 20
8.248031496062993
 30
0.0
 11
9.448818897637794
 21
7.905511811023622
 31
0.0
  0
LINE
  5
1A2
330
17
100
AcDbEntity
  8
DIMENSIONS
100
AcDbLine
 10
9.409448818897637
 20
7.913385826771654
 30
0.0
 11
9.488188976377952
 21
7.9921259842519685
 31
0.0
  0
LINE
  5
1A3
330
17
100
AcDbEntity
  8
DIMENSIONS
100
AcDbLine
 10
10.984251968503937
 20
8.248031496062993
 30
0.0
 11
10.984251968503937
 21
7.905511811023622
 31
0.0
  0
LINE
  5
1A4
330
17
100
AcDbEntity
  8
DIMENSIONS
100
AcDbLine
 10
10.94488188976378
 20
7.913385826771654
 30
0.0
 11
11.023622047244094
 21
7.9921259842519685
 31
0.0
  0
LINE
  5
1A5
330
17
100
AcDbEntity
  8
DIMENSIONS
100
AcDbLine
 10
11.377952755905511
 20
8.248031496062993
 30
0.0
 11
11.377952755905511
 21
7.905511811023622
 31
0.0
  0
LINE
  5
1A6
330
17
100
AcDbEntity
  8
DIMENSIONS
100
AcDbLine
 10
11.338582677165354
 20
7.913385826771654
 30
0.0
 11
11.417322834645669
 21
7.9921259842519685
 31
0.0
  0
TEXT
  5
1A7
330
17
100
AcDbEntity
  8
TEXT
100
AcDbText
 10
9.330708661417322
 20
7.984251968503937
 30
0.0
 40
0.03401574803149606
  1
0½"
 72
1
 11
9.330708661417322
 21
7.984251968503937
 31
0.0
100
AcDbText
  0
TEXT
  5
1A8
330
17
100
AcDbEntity
  8
TEXT
100
AcDbText
 10
10.216535433070867
 20
7.984251968503937
 30
0.0
 40
0.03401574803149606
  1
3⅛"
 72
1
 11
10.216535433070867
 21
7.984251968503937
 31
0.0
100
AcDbText
  0
TEXT
  5
1A9
330
17
100
AcDbEntity
  8
TEXT
100
AcDbText
 10
11.181102362204724
 20
7.984251968503937
 30
0.0
 40
0.03401574803149606
  1
0¾"
 72
1
 11
11.181102362204724
 21
7.984251968503937
 31
0.0
100
AcDbText
  0
LINE
  5
1AA
330
17
100
AcDbEntity
  8
DIMENSIONS
100
AcDbLine
 10
8.976377952755906
 20
9.433070866141732
 30
0.0
 11
8.976377952755906
 21
8.244094488188976
 31
0.0
  0
LINE
  5
1AB
330
17
100
AcDbEntity
  8
DIMENSIONS
100
AcDbLine
 10
9.173228346456693
 20
9.374015748031496
 30
0.0
 11
9.023622047244094
 21
9.374015748031496
 31
0.0
  0
LINE
  5
1AC
330
17
100
AcDbEntity
  8
DIMENSIONS
100
AcDbLine
 10
8.937007874015748
 20
9.334645669291339
 30
0.0
 11
9.015748031496063
 21
9.413385826771654
 31
0.0
  0
LINE
  5
1AD
330
17
100
AcDbEntity
  8
DIMENSIONS
100
AcDbLine
 10
9.173228346456693
 20
9.13779527559055
 30
0.0
 11
9.023622047244094
 21
9.13779527559055
 31
0.0
  0
LINE
  5
1AE
330
17
100
AcDbEntity
  8
DIMENSIONS
100
AcDbLine
 10
8.937007874015748
 20
9.098425196850393
 30
0.0
 11
9.015748031496063
 21
9.177165354330707
 31
0.0
  0
LINE
  5
1AF
330
17
100
AcDbEntity
  8
DIMENSIONS
100
AcDbLine
 10
9.173228346456693
 20
8.303149606299213
 30
0.0
 11
9.023622047244094
 21
8.303149606299213
 31
0.0
  0
LINE
  5
1B0
330
17
100
AcDbEntity
  8
DIMENSIONS
100
AcDbLine
 10
8.937007874015748
 20
8.263779527559056
 30
0.0
 11
9.015748031496063
 21
8.34251968503937
 31
0.0
  0
TEXT
  5
1B1
330
17
100
AcDbEntity
  8
TEXT
100
AcDbText
 10
8.94488188976378
 20
9.255905511811024
 30
0.0
 40
0.03401574803149606
  1
0½"
 50
90.0
 72
1
 11
8.94488188976378
 21
9.255905511811024
 31
0.0
100
AcDbText
  0
TEXT
  5
1B2
330
17
100
AcDbEntity
  8
TEXT
100
AcDbText
 10
8.94488188976378
 20
8.720472440944881
 30
0.0
 40
0.03401574803149606
  1
1¾"
 50
90.0
 72
1
 11
8.94488188976378
 21
8.720472440944881
 31
0.0
100
AcDbText
  0
LINE
  5
1B3
330
17
100
AcDbEntity
  8
GEOMETRY
100
AcDbLine
 10
11.181102362204724
 20
9.374015748031496
 30
0.0
 11
12.401574803149606
 21
9.881889763779528
 31
0.0
  0
TEXT
  5
1B4
330
17
100
AcDbEntity
  8
TEXT
100
AcDbText
 10
12.440944881889763
 20
9.874015748031496
 30
0.0
 40
0.048188976377952754
  1
OVOLO — PLANTED
 11
12.440944881889763
 21
9.874015748031496
 31
0.0
100
AcDbText
  0
TEXT
  5
1B5
330
17
100
AcDbEntity
  8
TEXT
100
AcDbText
 10
12.440944881889763
 20
9.783464566929133
 30
0.0
 40
0.04110236220472441
  1
NOT WORKED INTO THE STILE
 11
12.440944881889763
 21
9.783464566929133
 31
0.0
100
AcDbText
  0
LINE
  5
1B6
330
17
100
AcDbEntity
  8
GEOMETRY
100
AcDbLine
 10
12.440944881889763
 20
9.255905511811024
 30
0.0
 11
13.503937007874015
 21
9.566929133858267
 31
0.0
  0
TEXT
  5
1B7
330
17
100
AcDbEntity
  8
TEXT
100
AcDbText
 10
13.543307086614172
 20
9.559055118110237
 30
0.0
 40
0.048188976377952754
  1
SHAPED BEAD
 11
13.543307086614172
 21
9.559055118110237
 31
0.0
100
AcDbText
  0
TEXT
  5
1B8
330
17
100
AcDbEntity
  8
TEXT
100
AcDbText
 10
13.543307086614172
 20
9.468503937007874
 30
0.0
 40
0.04110236220472441
  1
BANDSAWN, THEN PLANTED
 11
13.543307086614172
 21
9.468503937007874
 31
0.0
100
AcDbText
  0
LINE
  5
1B9
330
17
100
AcDbEntity
  8
GEOMETRY
100
AcDbLine
 10
10.236220472440944
 20
8.720472440944881
 30
0.0
 11
12.204724409448819
 21
7.559055118110236
 31
0.0
  0
TEXT
  5
1BA
330
17
100
AcDbEntity
  8
TEXT
100
AcDbText
 10
12.244094488188976
 20
7.551181102362205
 30
0.0
 40
0.048188976377952754
  1
BLOCKBOARD CORE
 11
12.244094488188976
 21
7.551181102362205
 31
0.0
100
AcDbText
  0
TEXT
  5
1BB
330
17
100
AcDbEntity
  8
TEXT
100
AcDbText
 10
12.244094488188976
 20
7.460629921259843
 30
0.0
 40
0.04110236220472441
  1
VENEERED BOTH FACES
 11
12.244094488188976
 21
7.460629921259843
 31
0.0
100
AcDbText
  0
TEXT
  5
1BC
330
17
100
AcDbEntity
  8
TEXT
100
AcDbText
 10
8.346456692913385
 20
7.283464566929133
 30
0.0
 40
0.09070866141732283
  1
2 · WHAT CHANGES
 11
8.346456692913385
 21
7.283464566929133
 31
0.0
100
AcDbText
  0
LINE
  5
1BD
330
17
100
AcDbEntity
  8
GEOMETRY
100
AcDbLine
 10
8.346456692913385
 20
7.224409448818897
 30
0.0
 11
12.125984251968504
 21
7.224409448818897
 31
0.0
  0
TEXT
  5
1BE
330
17
100
AcDbEntity
  8
TEXT
100
AcDbText
 10
8.346456692913385
 20
7.094488188976378
 30
0.0
 40
0.048188976377952754
  1
THE SAME MEMBERS, MADE SEPARATELY AND GLUED ON
 11
8.346456692913385
 21
7.094488188976378
 31
0.0
100
AcDbText
  0
TEXT
  5
1BF
330
17
100
AcDbEntity
  8
TEXT
100
AcDbText
 10
8.346456692913385
 20
6.732283464566929
 30
0.0
 40
0.049606299212598425
  1
Panel field
 11
8.346456692913385
 21
6.732283464566929
 31
0.0
100
AcDbText
  0
TEXT
  5
1C0
330
17
100
AcDbEntity
  8
TEXT
100
AcDbText
 10
8.346456692913385
 20
6.590551181102362
 30
0.0
 40
0.04251968503937008
  1
was:   sunk 13.5 into the solid
 11
8.346456692913385
 21
6.590551181102362
 31
0.0
100
AcDbText
  0
TEXT
  5
1C1
330
17
100
AcDbEntity
  8
TEXT
100
AcDbText
 10
8.346456692913385
 20
6.464566929133857
 30
0.0
 40
0.04251968503937008
  1
now:  stays FLAT — the ovolo round it does the work
 11
8.346456692913385
 21
6.464566929133857
 31
0.0
100
AcDbText
  0
TEXT
  5
1C2
330
17
100
AcDbEntity
  8
TEXT
100
AcDbText
 10
8.346456692913385
 20
6.377952755905512
 30
0.0
 40
0.049606299212598425
  1
Ovolo sticking
 11
8.346456692913385
 21
6.377952755905512
 31
0.0
100
AcDbText
  0
TEXT
  5
1C3
330
17
100
AcDbEntity
  8
TEXT
100
AcDbText
 10
8.346456692913385
 20
6.236220472440945
 30
0.0
 40
0.04251968503937008
  1
was:   worked on the stile edge
 11
8.346456692913385
 21
6.236220472440945
 31
0.0
100
AcDbText
  0
TEXT
  5
1C4
330
17
100
AcDbEntity
  8
TEXT
100
AcDbText
 10
8.346456692913385
 20
6.110236220472441
 30
0.0
 40
0.04251968503937008
  1
now:  run as a separate 20 × 12 moulding, mitred on
 11
8.346456692913385
 21
6.110236220472441
 31
0.0
100
AcDbText
  0
TEXT
  5
1C5
330
17
100
AcDbEntity
  8
TEXT
100
AcDbText
 10
8.346456692913385
 20
6.0236220472440944
 30
0.0
 40
0.049606299212598425
  1
Shaped bead
 11
8.346456692913385
 21
6.0236220472440944
 31
0.0
100
AcDbText
  0
TEXT
  5
1C6
330
17
100
AcDbEntity
  8
TEXT
100
AcDbText
 10
8.346456692913385
 20
5.881889763779528
 30
0.0
 40
0.04251968503937008
  1
was:   carved into the panel face
 11
8.346456692913385
 21
5.881889763779528
 31
0.0
100
AcDbText
  0
TEXT
  5
1C7
330
17
100
AcDbEntity
  8
TEXT
100
AcDbText
 10
8.346456692913385
 20
5.755905511811023
 30
0.0
 40
0.04251968503937008
  1
now:  bandsawn to the curve in 10 × 6, planted on
 11
8.346456692913385
 21
5.755905511811023
 31
0.0
100
AcDbText
  0
TEXT
  5
1C8
330
17
100
AcDbEntity
  8
TEXT
100
AcDbText
 10
8.346456692913385
 20
5.669291338582677
 30
0.0
 40
0.049606299212598425
  1
Corner roundels
 11
8.346456692913385
 21
5.669291338582677
 31
0.0
100
AcDbText
  0
TEXT
  5
1C9
330
17
100
AcDbEntity
  8
TEXT
100
AcDbText
 10
8.346456692913385
 20
5.52755905511811
 30
0.0
 40
0.04251968503937008
  1
was:   carved bosses
 11
8.346456692913385
 21
5.52755905511811
 31
0.0
100
AcDbText
  0
TEXT
  5
1CA
330
17
100
AcDbEntity
  8
TEXT
100
AcDbText
 10
8.346456692913385
 20
5.401574803149606
 30
0.0
 40
0.04251968503937008
  1
now:  turned discs Ø26 × 5, glued on
 11
8.346456692913385
 21
5.401574803149606
 31
0.0
100
AcDbText
  0
TEXT
  5
1CB
330
17
100
AcDbEntity
  8
TEXT
100
AcDbText
 10
8.346456692913385
 20
5.31496062992126
 30
0.0
 40
0.049606299212598425
  1
The leaf
 11
8.346456692913385
 21
5.31496062992126
 31
0.0
100
AcDbText
  0
TEXT
  5
1CC
330
17
100
AcDbEntity
  8
TEXT
100
AcDbText
 10
8.346456692913385
 20
5.1732283464566935
 30
0.0
 40
0.04251968503937008
  1
was:   solid teak, 45
 11
8.346456692913385
 21
5.1732283464566935
 31
0.0
100
AcDbText
  0
TEXT
  5
1CD
330
17
100
AcDbEntity
  8
TEXT
100
AcDbText
 10
8.346456692913385
 20
5.047244094488189
 30
0.0
 40
0.04251968503937008
  1
now:  38 blockboard, 12 lipping, veneer both sides
 11
8.346456692913385
 21
5.047244094488189
 31
0.0
100
AcDbText
  0
TEXT
  5
1CE
330
17
100
AcDbEntity
  8
TEXT
100
AcDbText
 10
12.204724409448819
 20
11.023622047244094
 30
0.0
 40
0.09070866141732283
  1
RELIEF
 11
12.204724409448819
 21
11.023622047244094
 31
0.0
100
AcDbText
  0
LINE
  5
1CF
330
17
100
AcDbEntity
  8
GEOMETRY
100
AcDbLine
 10
12.204724409448819
 20
10.964566929133857
 30
0.0
 11
16.141732283464567
 21
10.964566929133857
 31
0.0
  0
TEXT
  5
1D0
330
17
100
AcDbEntity
  8
TEXT
100
AcDbText
 10
12.204724409448819
 20
10.834645669291337
 30
0.0
 40
0.048188976377952754
  1
FACE OF THE VENEER = DATUM 0
 11
12.204724409448819
 21
10.834645669291337
 31
0.0
100
AcDbText
  0
TEXT
  5
1D1
330
17
100
AcDbEntity
  8
TEXT
100
AcDbText
 10
12.204724409448819
 20
10.511811023622046
 30
0.0
 40
0.04535433070866141
  1
Blockboard core
 11
12.204724409448819
 21
10.511811023622046
 31
0.0
100
AcDbText
  0
TEXT
  5
1D2
330
17
100
AcDbEntity
  8
TEXT
100
AcDbText
 10
16.141732283464567
 20
10.511811023622046
 30
0.0
 40
0.04535433070866141
  1
38
 72
2
 11
16.141732283464567
 21
10.511811023622046
 31
0.0
100
AcDbText
  0
TEXT
  5
1D3
330
17
100
AcDbEntity
  8
TEXT
100
AcDbText
 10
12.204724409448819
 20
10.338582677165356
 30
0.0
 40
0.04535433070866141
  1
Veneer, each face
 11
12.204724409448819
 21
10.338582677165356
 31
0.0
100
AcDbText
  0
TEXT
  5
1D4
330
17
100
AcDbEntity
  8
TEXT
100
AcDbText
 10
16.141732283464567
 20
10.338582677165356
 30
0.0
 40
0.04535433070866141
  1
0.6
 72
2
 11
16.141732283464567
 21
10.338582677165356
 31
0.0
100
AcDbText
  0
TEXT
  5
1D5
330
17
100
AcDbEntity
  8
TEXT
100
AcDbText
 10
12.204724409448819
 20
10.165354330708661
 30
0.0
 40
0.04535433070866141
  1
Solid lipping, four edges
 11
12.204724409448819
 21
10.165354330708661
 31
0.0
100
AcDbText
  0
TEXT
  5
1D6
330
17
100
AcDbEntity
  8
TEXT
100
AcDbText
 10
16.141732283464567
 20
10.165354330708661
 30
0.0
 40
0.04535433070866141
  1
12 WIDE
 72
2
 11
16.141732283464567
 21
10.165354330708661
 31
0.0
100
AcDbText
  0
TEXT
  5
1D7
330
17
100
AcDbEntity
  8
TEXT
100
AcDbText
 10
12.204724409448819
 20
9.992125984251969
 30
0.0
 40
0.04535433070866141
  1
Leaf overall
 11
12.204724409448819
 21
9.992125984251969
 31
0.0
100
AcDbText
  0
TEXT
  5
1D8
330
17
100
AcDbEntity
  8
TEXT
100
AcDbText
 10
16.141732283464567
 20
9.992125984251969
 30
0.0
 40
0.04535433070866141
  1
45
 72
2
 11
16.141732283464567
 21
9.992125984251969
 31
0.0
100
AcDbText
  0
TEXT
  5
1D9
330
17
100
AcDbEntity
  8
TEXT
100
AcDbText
 10
12.204724409448819
 20
9.818897637795276
 30
0.0
 40
0.04535433070866141
  1
Ovolo, planted
 11
12.204724409448819
 21
9.818897637795276
 31
0.0
100
AcDbText
  0
TEXT
  5
1DA
330
17
100
AcDbEntity
  8
TEXT
100
AcDbText
 10
16.141732283464567
 20
9.818897637795276
 30
0.0
 40
0.04535433070866141
  1
20 W · 12 OUT
 72
2
 11
16.141732283464567
 21
9.818897637795276
 31
0.0
100
AcDbText
  0
TEXT
  5
1DB
330
17
100
AcDbEntity
  8
TEXT
100
AcDbText
 10
12.204724409448819
 20
9.645669291338583
 30
0.0
 40
0.04535433070866141
  1
Shaped bead, planted
 11
12.204724409448819
 21
9.645669291338583
 31
0.0
100
AcDbText
  0
TEXT
  5
1DC
330
17
100
AcDbEntity
  8
TEXT
100
AcDbText
 10
16.141732283464567
 20
9.645669291338583
 30
0.0
 40
0.04535433070866141
  1
10 W · 6 OUT
 72
2
 11
16.141732283464567
 21
9.645669291338583
 31
0.0
100
AcDbText
  0
TEXT
  5
1DD
330
17
100
AcDbEntity
  8
TEXT
100
AcDbText
 10
12.204724409448819
 20
9.472440944881889
 30
0.0
 40
0.04535433070866141
  1
Roundel boss, glued on
 11
12.204724409448819
 21
9.472440944881889
 31
0.0
100
AcDbText
  0
TEXT
  5
1DE
330
17
100
AcDbEntity
  8
TEXT
100
AcDbText
 10
16.141732283464567
 20
9.472440944881889
 30
0.0
 40
0.04535433070866141
  1
Ø26 · 5 OUT
 72
2
 11
16.141732283464567
 21
9.472440944881889
 31
0.0
100
AcDbText
  0
TEXT
  5
1DF
330
17
100
AcDbEntity
  8
TEXT
100
AcDbText
 10
12.204724409448819
 20
9.299212598425196
 30
0.0
 40
0.04535433070866141
  1
Panel field
 11
12.204724409448819
 21
9.299212598425196
 31
0.0
100
AcDbText
  0
TEXT
  5
1E0
330
17
100
AcDbEntity
  8
TEXT
100
AcDbText
 10
16.141732283464567
 20
9.299212598425196
 30
0.0
 40
0.04535433070866141
  1
FLAT · 0
 72
2
 11
16.141732283464567
 21
9.299212598425196
 31
0.0
100
AcDbText
  0
TEXT
  5
1E1
330
17
100
AcDbEntity
  8
TEXT
100
AcDbText
 10
12.204724409448819
 20
9.125984251968504
 30
0.0
 40
0.04535433070866141
  1
Anything cut INTO the face
 11
12.204724409448819
 21
9.125984251968504
 31
0.0
100
AcDbText
  0
TEXT
  5
1E2
330
17
100
AcDbEntity
  8
TEXT
100
AcDbText
 10
16.141732283464567
 20
9.125984251968504
 30
0.0
 40
0.04535433070866141
  1
NONE
 72
2
 11
16.141732283464567
 21
9.125984251968504
 31
0.0
100
AcDbText
  0
TEXT
  5
1E3
330
17
100
AcDbEntity
  8
TEXT
100
AcDbText
 10
12.204724409448819
 20
8.622047244094489
 30
0.0
 40
0.09070866141732283
  1
NOTES
 11
12.204724409448819
 21
8.622047244094489
 31
0.0
100
AcDbText
  0
LINE
  5
1E4
330
17
100
AcDbEntity
  8
GEOMETRY
100
AcDbLine
 10
12.204724409448819
 20
8.562992125984252
 30
0.0
 11
16.141732283464567
 21
8.562992125984252
 31
0.0
  0
TEXT
  5
1E5
330
17
100
AcDbEntity
  8
TEXT
100
AcDbText
 10
12.204724409448819
 20
8.433070866141732
 30
0.0
 40
0.048188976377952754
  1
REVISION 2
 11
12.204724409448819
 21
8.433070866141732
 31
0.0
100
AcDbText
  0
TEXT
  5
1E6
330
17
100
AcDbEntity
  8
TEXT
100
AcDbText
 10
12.204724409448819
 20
8.11023622047244
 30
0.0
 40
0.04535433070866141
  1
The design is not up for change here. If the shaped bead or the
 11
12.204724409448819
 21
8.11023622047244
 31
0.0
100
AcDbText
  0
TEXT
  5
1E7
330
17
100
AcDbEntity
  8
TEXT
100
AcDbText
 10
12.204724409448819
 20
7.940944881889763
 30
0.0
 40
0.04535433070866141
  1
roundels ever change they change on AST-DR-001 and -009, and this
 11
12.204724409448819
 21
7.940944881889763
 31
0.0
100
AcDbText
  0
TEXT
  5
1E8
330
17
100
AcDbEntity
  8
TEXT
100
AcDbText
 10
12.204724409448819
 20
7.771653543307087
 30
0.0
 40
0.04535433070866141
  1
sheet follows — it draws from the same code.
 11
12.204724409448819
 21
7.771653543307087
 31
0.0
100
AcDbText
  0
TEXT
  5
1E9
330
17
100
AcDbEntity
  8
TEXT
100
AcDbText
 10
12.204724409448819
 20
7.433070866141732
 30
0.0
 40
0.04535433070866141
  1
Lipping is solid teak on all four edges so the leaf can be trimmed
 11
12.204724409448819
 21
7.433070866141732
 31
0.0
100
AcDbText
  0
TEXT
  5
1EA
330
17
100
AcDbEntity
  8
TEXT
100
AcDbText
 10
12.204724409448819
 20
7.263779527559055
 30
0.0
 40
0.04535433070866141
  1
on site and the hinges and lock screw into wood, not into board.
 11
12.204724409448819
 21
7.263779527559055
 31
0.0
100
AcDbText
  0
TEXT
  5
1EB
330
17
100
AcDbEntity
  8
TEXT
100
AcDbText
 10
12.204724409448819
 20
6.925196850393701
 30
0.0
 40
0.04535433070866141
  1
Veneer both faces of the core and balance it: same thickness back
 11
12.204724409448819
 21
6.925196850393701
 31
0.0
100
AcDbText
  0
TEXT
  5
1EC
330
17
100
AcDbEntity
  8
TEXT
100
AcDbText
 10
12.204724409448819
 20
6.755905511811023
 30
0.0
 40
0.04535433070866141
  1
and front, or the leaf will bow.
 11
12.204724409448819
 21
6.755905511811023
 31
0.0
100
AcDbText
  0
TEXT
  5
1ED
330
17
100
AcDbEntity
  8
TEXT
100
AcDbText
 10
12.204724409448819
 20
6.417322834645669
 30
0.0
 40
0.04535433070866141
  1
Ovolo, bead and bosses in solid teak, polished to match. They are
 11
12.204724409448819
 21
6.417322834645669
 31
0.0
100
AcDbText
  0
TEXT
  5
1EE
330
17
100
AcDbEntity
  8
TEXT
100
AcDbText
 10
12.204724409448819
 20
6.248031496062992
 30
0.0
 40
0.04535433070866141
  1
small enough to take solid without moving, and they give a crisper
 11
12.204724409448819
 21
6.248031496062992
 31
0.0
100
AcDbText
  0
TEXT
  5
1EF
330
17
100
AcDbEntity
  8
TEXT
100
AcDbText
 10
12.204724409448819
 20
6.078740157480315
 30
0.0
 40
0.04535433070866141
  1
arris than a cut face would.
 11
12.204724409448819
 21
6.078740157480315
 31
0.0
100
AcDbText
  0
TEXT
  5
1F0
330
17
100
AcDbEntity
  8
TEXT
100
AcDbText
 10
12.204724409448819
 20
5.740157480314961
 30
0.0
 40
0.04535433070866141
  1
Set the bead out from the panel opening, not from the leaf edge, so
 11
12.204724409448819
 21
5.740157480314961
 31
0.0
100
AcDbText
  0
TEXT
  5
1F1
330
17
100
AcDbEntity
  8
TEXT
100
AcDbText
 10
12.204724409448819
 20
5.570866141732283
 30
0.0
 40
0.04535433070866141
  1
the four roundels land exactly on the corners of the curve.
 11
12.204724409448819
 21
5.570866141732283
 31
0.0
100
AcDbText
  0
TEXT
  5
1F2
330
17
100
AcDbEntity
  8
TEXT
100
AcDbText
 10
12.204724409448819
 20
5.23228346456693
 30
0.0
 40
0.04535433070866141
  1
OPEN — glue and pin, or glue only? Pins need filling and the filler
 11
12.204724409448819
 21
5.23228346456693
 31
0.0
100
AcDbText
  0
TEXT
  5
1F3
330
17
100
AcDbEntity
  8
TEXT
100
AcDbText
 10
12.204724409448819
 20
5.062992125984252
 30
0.0
 40
0.04535433070866141
  1
shows through polish. Glue and cramp if the shop can.
 11
12.204724409448819
 21
5.062992125984252
 31
0.0
100
AcDbText
  0
LWPOLYLINE
  5
1F4
330
17
100
AcDbEntity
  8
GEOMETRY
100
AcDbPolyline
 90
5
 70
0
 10
11.811023622047244
 20
2.283464566929135
 10
16.22047244094488
 20
2.283464566929135
 10
16.22047244094488
 20
0.31496062992126106
 10
11.811023622047244
 20
0.31496062992126106
 10
11.811023622047244
 20
2.283464566929135
  0
LINE
  5
1F5
330
17
100
AcDbEntity
  8
GEOMETRY
100
AcDbLine
 10
11.811023622047244
 20
1.7322834645669292
 30
0.0
 11
16.22047244094488
 21
1.7322834645669292
 31
0.0
  0
LINE
  5
1F6
330
17
100
AcDbEntity
  8
GEOMETRY
100
AcDbLine
 10
11.811023622047244
 20
1.1023622047244095
 30
0.0
 11
16.22047244094488
 21
1.1023622047244095
 31
0.0
  0
LINE
  5
1F7
330
17
100
AcDbEntity
  8
GEOMETRY
100
AcDbLine
 10
11.811023622047244
 20
0.7086614173228346
 30
0.0
 11
16.22047244094488
 21
0.7086614173228346
 31
0.0
  0
LINE
  5
1F8
330
17
100
AcDbEntity
  8
GEOMETRY
100
AcDbLine
 10
14.015748031496063
 20
1.1023622047244095
 30
0.0
 11
14.015748031496063
 21
0.31496062992125984
 31
0.0
  0
TEXT
  5
1F9
330
17
100
AcDbEntity
  8
TEXT
100
AcDbText
 10
11.929133858267717
 20
2.02755905511811
 30
0.0
 40
0.09637795275590551
  1
A STUDY IN TEAK
 11
11.929133858267717
 21
2.02755905511811
 31
0.0
100
AcDbText
  0
TEXT
  5
1FA
330
17
100
AcDbEntity
  8
TEXT
100
AcDbText
 10
11.929133858267717
 20
1.8503937007874016
 30
0.0
 40
0.05385826771653543
  1
Particulars of the room
 11
11.929133858267717
 21
1.8503937007874016
 31
0.0
100
AcDbText
  0
TEXT
  5
1FB
330
17
100
AcDbEntity
  8
TEXT
100
AcDbText
 10
11.929133858267717
 20
1.4763779527559056
 30
0.0
 40
0.09637795275590551
  1
DOORS — MADE IN VENEER
 11
11.929133858267717
 21
1.4763779527559056
 31
0.0
100
AcDbText
  0
TEXT
  5
1FC
330
17
100
AcDbEntity
  8
TEXT
100
AcDbText
 10
11.929133858267717
 20
1.2598425196850394
 30
0.0
 40
0.05669291338582677
  1
Same design · Planted mouldings · Construction only
 11
11.929133858267717
 21
1.2598425196850394
 31
0.0
100
AcDbText
  0
TEXT
  5
1FD
330
17
100
AcDbEntity
  8
TEXT
100
AcDbText
 10
11.929133858267717
 20
0.9448818897637795
 30
0.0
 40
0.04251968503937008
  1
SCALE
 11
11.929133858267717
 21
0.9448818897637795
 31
0.0
100
AcDbText
  0
TEXT
  5
1FE
330
17
100
AcDbEntity
  8
TEXT
100
AcDbText
 10
11.929133858267717
 20
0.7874015748031495
 30
0.0
 40
0.05952755905511811
  1
AS NOTED @ A3
 11
11.929133858267717
 21
0.7874015748031495
 31
0.0
100
AcDbText
  0
TEXT
  5
1FF
330
17
100
AcDbEntity
  8
TEXT
100
AcDbText
 10
14.133858267716535
 20
0.9448818897637795
 30
0.0
 40
0.04251968503937008
  1
DATE
 11
14.133858267716535
 21
0.9448818897637795
 31
0.0
100
AcDbText
  0
TEXT
  5
200
330
17
100
AcDbEntity
  8
TEXT
100
AcDbText
 10
14.133858267716535
 20
0.7874015748031495
 30
0.0
 40
0.05952755905511811
  1
23.09.2026
 11
14.133858267716535
 21
0.7874015748031495
 31
0.0
100
AcDbText
  0
TEXT
  5
201
330
17
100
AcDbEntity
  8
TEXT
100
AcDbText
 10
11.929133858267717
 20
0.5511811023622047
 30
0.0
 40
0.04251968503937008
  1
REV
 11
11.929133858267717
 21
0.5511811023622047
 31
0.0
100
AcDbText
  0
TEXT
  5
202
330
17
100
AcDbEntity
  8
TEXT
100
AcDbText
 10
11.929133858267717
 20
0.39370078740157477
 30
0.0
 40
0.051023622047244095
  1
2 — the design unchanged; only the construction differs
 11
11.929133858267717
 21
0.39370078740157477
 31
0.0
100
AcDbText
  0
TEXT
  5
203
330
17
100
AcDbEntity
  8
TEXT
100
AcDbText
 10
14.133858267716535
 20
0.5511811023622047
 30
0.0
 40
0.04251968503937008
  1
DWG
 11
14.133858267716535
 21
0.5511811023622047
 31
0.0
100
AcDbText
  0
TEXT
  5
204
330
17
100
AcDbEntity
  8
TEXT
100
AcDbText
 10
14.133858267716535
 20
0.39370078740157477
 30
0.0
 40
0.05952755905511811
  1
AST-DR-015
 11
14.133858267716535
 21
0.39370078740157477
 31
0.0
100
AcDbText
  0
ENDSEC
  0
SECTION
  2
OBJECTS
  0
DICTIONARY
  5
A
330
0
100
AcDbDictionary
281
1
  3
ACAD_COLOR
350
B
  3
ACAD_GROUP
350
C
  3
ACAD_LAYOUT
350
D
  3
ACAD_MATERIAL
350
E
  3
ACAD_MLEADERSTYLE
350
F
  3
ACAD_MLINESTYLE
350
10
  3
ACAD_PLOTSETTINGS
350
11
  3
ACAD_PLOTSTYLENAME
350
12
  3
ACAD_SCALELIST
350
14
  3
ACAD_TABLESTYLE
350
15
  3
ACAD_VISUALSTYLE
350
16
  3
EZDXF_META
350
2D
  0
DICTIONARY
  5
B
330
A
100
AcDbDictionary
281
1
  0
DICTIONARY
  5
C
330
A
100
AcDbDictionary
281
1
  0
DICTIONARY
  5
D
330
A
100
AcDbDictionary
281
1
  3
Model
350
1A
  3
Layout1
350
1E
  0
DICTIONARY
  5
E
330
A
100
AcDbDictionary
281
1
  3
ByBlock
350
1F
  3
ByLayer
350
20
  3
Global
350
21
  0
DICTIONARY
  5
F
330
A
100
AcDbDictionary
281
1
  3
Standard
350
2C
  0
DICTIONARY
  5
10
330
A
100
AcDbDictionary
281
1
  3
Standard
350
22
  0
DICTIONARY
  5
11
330
A
100
AcDbDictionary
281
1
  0
ACDBDICTIONARYWDFLT
  5
12
330
A
100
AcDbDictionary
281
1
  3
Normal
350
13
100
AcDbDictionaryWithDefault
340
13
  0
ACDBPLACEHOLDER
  5
13
330
12
  0
DICTIONARY
  5
14
330
A
100
AcDbDictionary
281
1
  0
DICTIONARY
  5
15
330
A
100
AcDbDictionary
281
1
  0
DICTIONARY
  5
16
330
A
100
AcDbDictionary
281
1
  3
2dWireframe
350
5A
  3
Basic
350
5B
  3
Brighten
350
5C
  3
ColorChange
350
5D
  3
Conceptual
350
5E
  3
Dim
350
5F
  3
EdgeColorOff
350
60
  3
Facepattern
350
61
  3
Flat
350
62
  3
FlatWithEdges
350
63
  3
Gouraud
350
64
  3
GouraudWithEdges
350
65
  3
Hidden
350
66
  3
JitterOff
350
67
  3
Linepattern
350
68
  3
Modeling
350
69
  3
OverhangOff
350
6A
  3
Realistic
350
6B
  3
Shaded
350
6C
  3
Shaded with edges
350
6D
  3
Shades of Gray
350
6E
  3
Sketchy
350
6F
  3
Thicken
350
70
  3
Wireframe
350
71
  3
X-Ray
350
72
  0
LAYOUT
  5
1A
330
D
100
AcDbPlotSettings
  1

  4
A3
  6

 40
7.5
 41
20.0
 42
7.5
 43
20.0
 44
420.0
 45
297.0
 46
0.0
 47
0.0
 48
0.0
 49
0.0
140
0.0
141
0.0
142
1.0
143
1.0
 70
1024
 72
1
 73
0
 74
5
  7

 75
16
 76
0
 77
2
 78
300
147
1.0
148
0.0
149
0.0
100
AcDbLayout
  1
Model
 70
1
 71
0
 10
0.0
 20
0.0
 11
420.0
 21
297.0
 12
0.0
 22
0.0
 32
0.0
 14
1e+20
 24
1e+20
 34
1e+20
 15
-1e+20
 25
-1e+20
 35
-1e+20
146
0.0
 13
0.0
 23
0.0
 33
0.0
 16
1.0
 26
0.0
 36
0.0
 17
0.0
 27
1.0
 37
0.0
 76
1
330
17
  0
LAYOUT
  5
1E
330
D
100
AcDbPlotSettings
  1

  4
A3
  6

 40
7.5
 41
20.0
 42
7.5
 43
20.0
 44
420.0
 45
297.0
 46
0.0
 47
0.0
 48
0.0
 49
0.0
140
0.0
141
0.0
142
1.0
143
1.0
 70
0
 72
1
 73
0
 74
5
  7

 75
16
 76
0
 77
2
 78
300
147
1.0
148
0.0
149
0.0
100
AcDbLayout
  1
Layout1
 70
1
 71
1
 10
0.0
 20
0.0
 11
420.0
 21
297.0
 12
0.0
 22
0.0
 32
0.0
 14
1e+20
 24
1e+20
 34
1e+20
 15
-1e+20
 25
-1e+20
 35
-1e+20
146
0.0
 13
0.0
 23
0.0
 33
0.0
 16
1.0
 26
0.0
 36
0.0
 17
0.0
 27
1.0
 37
0.0
 76
1
330
1B
  0
MATERIAL
  5
1F
102
{ACAD_REACTORS
330
E
102
}
330
E
100
AcDbMaterial
  1
ByBlock
  2

 70
0
 40
1.0
 71
1
 41
1.0
 91
-1023410177
 42
1.0
 72
1
  3

 73
1
 74
1
 75
1
 44
0.5
 73
0
 45
1.0
 46
1.0
 77
1
  4

 78
1
 79
1
170
1
 48
1.0
171
1
  6

172
1
173
1
174
1
140
1.0
141
1.0
175
1
  7

176
1
177
1
178
1
143
1.0
179
1
  8

270
1
271
1
272
1
145
1.0
146
1.0
273
1
  9

274
1
275
1
276
1
 42
1.0
 72
1
  3

 73
1
 74
1
 75
1
 94
63
  0
MATERIAL
  5
20
102
{ACAD_REACTORS
330
E
102
}
330
E
100
AcDbMaterial
  1
ByLayer
  2

 70
0
 40
1.0
 71
1
 41
1.0
 91
-1023410177
 42
1.0
 72
1
  3

 73
1
 74
1
 75
1
 44
0.5
 73
0
 45
1.0
 46
1.0
 77
1
  4

 78
1
 79
1
170
1
 48
1.0
171
1
  6

172
1
173
1
174
1
140
1.0
141
1.0
175
1
  7

176
1
177
1
178
1
143
1.0
179
1
  8

270
1
271
1
272
1
145
1.0
146
1.0
273
1
  9

274
1
275
1
276
1
 42
1.0
 72
1
  3

 73
1
 74
1
 75
1
 94
63
  0
MATERIAL
  5
21
102
{ACAD_REACTORS
330
E
102
}
330
E
100
AcDbMaterial
  1
Global
  2

 70
0
 40
1.0
 71
1
 41
1.0
 91
-1023410177
 42
1.0
 72
1
  3

 73
1
 74
1
 75
1
 44
0.5
 73
0
 45
1.0
 46
1.0
 77
1
  4

 78
1
 79
1
170
1
 48
1.0
171
1
  6

172
1
173
1
174
1
140
1.0
141
1.0
175
1
  7

176
1
177
1
178
1
143
1.0
179
1
  8

270
1
271
1
272
1
145
1.0
146
1.0
273
1
  9

274
1
275
1
276
1
 42
1.0
 72
1
  3

 73
1
 74
1
 75
1
 94
63
  0
MLINESTYLE
  5
22
102
{ACAD_REACTORS
330
10
102
}
330
10
100
AcDbMlineStyle
  2
Standard
 70
0
  3

 62
256
 51
90.0
 52
90.0
 71
2
 49
0.5
 62
256
  6
BYLAYER
 49
-0.5
 62
256
  6
BYLAYER
  0
MLEADERSTYLE
  5
2C
102
{ACAD_REACTORS
330
F
102
}
330
F
100
AcDbMLeaderStyle
179
2
170
2
171
1
172
0
 90
2
 40
0.0
 41
0.0
173
1
 91
-1056964608
 92
-2
290
1
 42
2.0
291
1
 43
8.0
  3
Standard
 44
4.0
300

342
29
174
1
175
1
176
0
178
1
 93
-1056964608
 45
4.0
292
0
297
0
 46
4.0
 94
-1056964608
 47
1.0
 49
1.0
140
1.0
294
1
141
0.0
177
0
142
1.0
295
0
296
0
143
3.75
271
0
272
9
273
9
  0
DICTIONARY
  5
2D
330
A
100
AcDbDictionary
280
1
281
1
  3
CREATED_BY_EZDXF
350
2E
  3
WRITTEN_BY_EZDXF
350
207
  0
DICTIONARYVAR
  5
2E
330
2D
100
DictionaryVariables
280
0
  1
1.4.2 @ 2026-09-23T06:50:25.290304+00:00
  0
VISUALSTYLE
  5
5A
102
{ACAD_REACTORS
330
16
102
}
330
16
100
AcDbVisualStyle
  2
2dWireframe
 70
4
 90
0
 40
0.6
 62
7
290
0
291
0
  0
VISUALSTYLE
  5
5B
102
{ACAD_REACTORS
330
16
102
}
330
16
100
AcDbVisualStyle
  2
Basic
 70
7
 90
1
 40
0.6
 62
7
290
0
291
1
  0
VISUALSTYLE
  5
5C
102
{ACAD_REACTORS
330
16
102
}
330
16
100
AcDbVisualStyle
  2
Brighten
 70
12
 90
2
 40
0.6
 62
7
290
0
291
1
  0
VISUALSTYLE
  5
5D
102
{ACAD_REACTORS
330
16
102
}
330
16
100
AcDbVisualStyle
  2
ColorChange
 70
16
 90
2
 40
0.6
 62
8
290
0
291
1
  0
VISUALSTYLE
  5
5E
102
{ACAD_REACTORS
330
16
102
}
330
16
100
AcDbVisualStyle
  2
Conceptual
 70
9
 90
3
 40
0.6
 62
7
290
0
291
0
  0
VISUALSTYLE
  5
5F
102
{ACAD_REACTORS
330
16
102
}
330
16
100
AcDbVisualStyle
  2
Dim
 70
11
 90
2
 40
0.6
 62
7
290
0
291
1
  0
VISUALSTYLE
  5
60
102
{ACAD_REACTORS
330
16
102
}
330
16
100
AcDbVisualStyle
  2
EdgeColorOff
 70
22
 90
2
 40
0.6
 62
7
290
0
291
1
  0
VISUALSTYLE
  5
61
102
{ACAD_REACTORS
330
16
102
}
330
16
100
AcDbVisualStyle
  2
Facepattern
 70
15
 90
2
 40
0.6
 62
7
290
0
291
1
  0
VISUALSTYLE
  5
62
102
{ACAD_REACTORS
330
16
102
}
330
16
100
AcDbVisualStyle
  2
Flat
 70
0
 90
2
 40
0.6
 62
7
290
0
291
1
  0
VISUALSTYLE
  5
63
102
{ACAD_REACTORS
330
16
102
}
330
16
100
AcDbVisualStyle
  2
FlatWithEdges
 70
1
 90
2
 40
0.6
 62
7
290
0
291
1
  0
VISUALSTYLE
  5
64
102
{ACAD_REACTORS
330
16
102
}
330
16
100
AcDbVisualStyle
  2
Gouraud
 70
2
 90
2
 40
0.6
 62
7
290
0
291
1
  0
VISUALSTYLE
  5
65
102
{ACAD_REACTORS
330
16
102
}
330
16
100
AcDbVisualStyle
  2
GouraudWithEdges
 70
3
 90
2
 40
0.6
 62
7
290
0
291
1
  0
VISUALSTYLE
  5
66
102
{ACAD_REACTORS
330
16
102
}
330
16
100
AcDbVisualStyle
  2
Hidden
 70
6
 90
1
 40
0.6
 62
7
290
0
291
0
  0
VISUALSTYLE
  5
67
102
{ACAD_REACTORS
330
16
102
}
330
16
100
AcDbVisualStyle
  2
JitterOff
 70
20
 90
2
 40
0.6
 62
7
290
0
291
1
  0
VISUALSTYLE
  5
68
102
{ACAD_REACTORS
330
16
102
}
330
16
100
AcDbVisualStyle
  2
Linepattern
 70
14
 90
2
 40
0.6
 62
7
290
0
291
1
  0
VISUALSTYLE
  5
69
102
{ACAD_REACTORS
330
16
102
}
330
16
100
AcDbVisualStyle
  2
Modeling
 70
10
 90
2
 40
0.6
 62
7
290
0
291
0
  0
VISUALSTYLE
  5
6A
102
{ACAD_REACTORS
330
16
102
}
330
16
100
AcDbVisualStyle
  2
OverhangOff
 70
21
 90
2
 40
0.6
 62
7
290
0
291
1
  0
VISUALSTYLE
  5
6B
102
{ACAD_REACTORS
330
16
102
}
330
16
100
AcDbVisualStyle
  2
Realistic
 70
8
 90
2
 40
0.6
 62
7
290
0
291
0
  0
VISUALSTYLE
  5
6C
102
{ACAD_REACTORS
330
16
102
}
330
16
100
AcDbVisualStyle
  2
Shaded
 70
27
 90
2
 40
0.6
 62
7
290
0
291
0
  0
VISUALSTYLE
  5
6D
102
{ACAD_REACTORS
330
16
102
}
330
16
100
AcDbVisualStyle
  2
Shaded with edges
 70
26
 90
2
 40
0.6
 62
7
290
0
291
0
  0
VISUALSTYLE
  5
6E
102
{ACAD_REACTORS
330
16
102
}
330
16
100
AcDbVisualStyle
  2
Shades of Gray
 70
23
 90
2
 40
0.6
 62
7
290
0
291
0
  0
VISUALSTYLE
  5
6F
102
{ACAD_REACTORS
330
16
102
}
330
16
100
AcDbVisualStyle
  2
Sketchy
 70
24
 90
1
 40
0.6
 62
7
290
0
291
0
  0
VISUALSTYLE
  5
70
102
{ACAD_REACTORS
330
16
102
}
330
16
100
AcDbVisualStyle
  2
Thicken
 70
13
 90
2
 40
0.6
 62
7
290
0
291
1
  0
VISUALSTYLE
  5
71
102
{ACAD_REACTORS
330
16
102
}
330
16
100
AcDbVisualStyle
  2
Wireframe
 70
5
 90
0
 40
0.6
 62
7
290
0
291
0
  0
VISUALSTYLE
  5
72
102
{ACAD_REACTORS
330
16
102
}
330
16
100
AcDbVisualStyle
  2
X-Ray
 70
25
 90
2
 40
0.5
 62
7
290
0
291
0
  0
DICTIONARYVAR
  5
207
330
2D
100
DictionaryVariables
280
0
  1
1.4.2 @ 2026-09-23T06:50:25.313115+00:00
  0
ENDSEC
  0
EOF
