  0
SECTION
  2
HEADER
  9
$ACADVER
  1
AC1024
  9
$ACADMAINTVER
 70
6
  9
$DWGCODEPAGE
  3
ANSI_1252
  9
$LASTSAVEDBY
  1
ezdxf
  9
$INSBASE
 10
0.0
 20
0.0
 30
0.0
  9
$EXTMIN
 10
1e+20
 20
1e+20
 30
1e+20
  9
$EXTMAX
 10
-1e+20
 20
-1e+20
 30
-1e+20
  9
$LIMMIN
 10
0.0
 20
0.0
  9
$LIMMAX
 10
420.0
 20
297.0
  9
$ORTHOMODE
 70
0
  9
$REGENMODE
 70
1
  9
$FILLMODE
 70
1
  9
$QTEXTMODE
 70
0
  9
$MIRRTEXT
 70
1
  9
$LTSCALE
 40
0.00984251968503937
  9
$ATTMODE
 70
1
  9
$TEXTSIZE
 40
2.5
  9
$TRACEWID
 40
1.0
  9
$TEXTSTYLE
  7
OpenSans
  9
$CLAYER
  8
0
  9
$CELTYPE
  6
ByLayer
  9
$CECOLOR
 62
256
  9
$CELTSCALE
 40
1.0
  9
$DISPSILH
 70
0
  9
$DIMSCALE
 40
1.0
  9
$DIMASZ
 40
0.175
  9
$DIMEXO
 40
0.125
  9
$DIMDLI
 40
3.75
  9
$DIMRND
 40
0.0
  9
$DIMDLE
 40
0.0
  9
$DIMEXE
 40
0.375
  9
$DIMTP
 40
0.0
  9
$DIMTM
 40
0.0
  9
$DIMTXT
 40
0.25
  9
$DIMCEN
 40
2.5
  9
$DIMTSZ
 40
0.0
  9
$DIMTOL
 70
0
  9
$DIMLIM
 70
0
  9
$DIMTIH
 70
0
  9
$DIMTOH
 70
0
  9
$DIMSE1
 70
0
  9
$DIMSE2
 70
0
  9
$DIMTAD
 70
1
  9
$DIMZIN
 70
12
  9
$DIMBLK
  1
ARCHTICK
  9
$DIMASO
 70
1
  9
$DIMSHO
 70
1
  9
$DIMPOST
  1

  9
$DIMAPOST
  1

  9
$DIMALT
 70
0
  9
$DIMALTD
 70
3
  9
$DIMALTF
 40
0.03937007874
  9
$DIMLFAC
 40
100.0
  9
$DIMTOFL
 70
1
  9
$DIMTVP
 40
0.0
  9
$DIMTIX
 70
0
  9
$DIMSOXD
 70
0
  9
$DIMSAH
 70
0
  9
$DIMBLK1
  1

  9
$DIMBLK2
  1

  9
$DIMSTYLE
  2
EZDXF
  9
$DIMCLRD
 70
0
  9
$DIMCLRE
 70
0
  9
$DIMCLRT
 70
0
  9
$DIMTFAC
 40
0.5
  9
$DIMGAP
 40
0.1
  9
$DIMJUST
 70
0
  9
$DIMSD1
 70
0
  9
$DIMSD2
 70
0
  9
$DIMTOLJ
 70
0
  9
$DIMTZIN
 70
8
  9
$DIMALTZ
 70
0
  9
$DIMALTTZ
 70
0
  9
$DIMUPT
 70
1
  9
$DIMDEC
 70
2
  9
$DIMTDEC
 70
2
  9
$DIMALTU
 70
2
  9
$DIMALTTD
 70
3
  9
$DIMTXSTY
  7
OpenSansCondensed-Light
  9
$DIMAUNIT
 70
0
  9
$DIMADEC
 70
2
  9
$DIMALTRND
 40
0.0
  9
$DIMAZIN
 70
3
  9
$DIMDSEP
 70
46
  9
$DIMATFIT
 70
3
  9
$DIMFRAC
 70
0
  9
$DIMLDRBLK
  1

  9
$DIMLUNIT
 70
2
  9
$DIMLWD
 70
-2
  9
$DIMLWE
 70
-2
  9
$DIMTMOVE
 70
2
  9
$DIMFXL
 40
1.0
  9
$DIMFXLON
 70
0
  9
$DIMJOGANG
 40
0.785398163397
  9
$DIMTFILL
 70
0
  9
$DIMTFILLCLR
 70
0
  9
$DIMARCSYM
 70
0
  9
$DIMLTYPE
  6

  9
$DIMLTEX1
  6

  9
$DIMLTEX2
  6

  9
$DIMTXTDIRECTION
 70
0
  9
$LUNITS
 70
4
  9
$LUPREC
 70
4
  9
$SKETCHINC
 40
1.0
  9
$FILLETRAD
 40
10.0
  9
$AUNITS
 70
0
  9
$AUPREC
 70
3
  9
$MENU
  1
.
  9
$ELEVATION
 40
0.0
  9
$PELEVATION
 40
0.0
  9
$THICKNESS
 40
0.0
  9
$LIMCHECK
 70
0
  9
$CHAMFERA
 40
0.0
  9
$CHAMFERB
 40
0.0
  9
$CHAMFERC
 40
0.0
  9
$CHAMFERD
 40
0.0
  9
$SKPOLY
 70
0
  9
$TDCREATE
 40
2461302.6351736113
  9
$TDUCREATE
 40
2458532.153996898
  9
$TDUPDATE
 40
2461302.6351736113
  9
$TDUUPDATE
 40
2458532.1544311
  9
$TDINDWG
 40
0.0
  9
$TDUSRTIMER
 40
0.0
  9
$USRTIMER
 70
1
  9
$ANGBASE
 50
0.0
  9
$ANGDIR
 70
0
  9
$PDMODE
 70
0
  9
$PDSIZE
 40
0.0
  9
$PLINEWID
 40
0.0
  9
$SPLFRAME
 70
0
  9
$SPLINETYPE
 70
6
  9
$SPLINESEGS
 70
8
  9
$HANDSEED
  5
287
  9
$SURFTAB1
 70
6
  9
$SURFTAB2
 70
6
  9
$SURFTYPE
 70
6
  9
$SURFU
 70
6
  9
$SURFV
 70
6
  9
$UCSBASE
  2

  9
$UCSNAME
  2

  9
$UCSORG
 10
0.0
 20
0.0
 30
0.0
  9
$UCSXDIR
 10
1.0
 20
0.0
 30
0.0
  9
$UCSYDIR
 10
0.0
 20
1.0
 30
0.0
  9
$UCSORTHOREF
  2

  9
$UCSORTHOVIEW
 70
0
  9
$UCSORGTOP
 10
0.0
 20
0.0
 30
0.0
  9
$UCSORGBOTTOM
 10
0.0
 20
0.0
 30
0.0
  9
$UCSORGLEFT
 10
0.0
 20
0.0
 30
0.0
  9
$UCSORGRIGHT
 10
0.0
 20
0.0
 30
0.0
  9
$UCSORGFRONT
 10
0.0
 20
0.0
 30
0.0
  9
$UCSORGBACK
 10
0.0
 20
0.0
 30
0.0
  9
$PUCSBASE
  2

  9
$PUCSNAME
  2

  9
$PUCSORG
 10
0.0
 20
0.0
 30
0.0
  9
$PUCSXDIR
 10
1.0
 20
0.0
 30
0.0
  9
$PUCSYDIR
 10
0.0
 20
1.0
 30
0.0
  9
$PUCSORTHOREF
  2

  9
$PUCSORTHOVIEW
 70
0
  9
$PUCSORGTOP
 10
0.0
 20
0.0
 30
0.0
  9
$PUCSORGBOTTOM
 10
0.0
 20
0.0
 30
0.0
  9
$PUCSORGLEFT
 10
0.0
 20
0.0
 30
0.0
  9
$PUCSORGRIGHT
 10
0.0
 20
0.0
 30
0.0
  9
$PUCSORGFRONT
 10
0.0
 20
0.0
 30
0.0
  9
$PUCSORGBACK
 10
0.0
 20
0.0
 30
0.0
  9
$USERI1
 70
0
  9
$USERI2
 70
0
  9
$USERI3
 70
0
  9
$USERI4
 70
0
  9
$USERI5
 70
0
  9
$USERR1
 40
0.0
  9
$USERR2
 40
0.0
  9
$USERR3
 40
0.0
  9
$USERR4
 40
0.0
  9
$USERR5
 40
0.0
  9
$WORLDVIEW
 70
1
  9
$SHADEDGE
 70
3
  9
$SHADEDIF
 70
70
  9
$TILEMODE
 70
1
  9
$MAXACTVP
 70
64
  9
$PINSBASE
 10
0.0
 20
0.0
 30
0.0
  9
$PLIMCHECK
 70
0
  9
$PEXTMIN
 10
1e+20
 20
1e+20
 30
1e+20
  9
$PEXTMAX
 10
-1e+20
 20
-1e+20
 30
-1e+20
  9
$PLIMMIN
 10
0.0
 20
0.0
  9
$PLIMMAX
 10
420.0
 20
297.0
  9
$UNITMODE
 70
0
  9
$VISRETAIN
 70
1
  9
$PLINEGEN
 70
0
  9
$PSLTSCALE
 70
1
  9
$TREEDEPTH
 70
3020
  9
$CMLSTYLE
  2
Standard
  9
$CMLJUST
 70
0
  9
$CMLSCALE
 40
20.0
  9
$PROXYGRAPHICS
 70
1
  9
$MEASUREMENT
 70
0
  9
$CELWEIGHT
370
-1
  9
$ENDCAPS
280
0
  9
$JOINSTYLE
280
0
  9
$LWDISPLAY
290
0
  9
$INSUNITS
 70
1
  9
$HYPERLINKBASE
  1

  9
$STYLESHEET
  1

  9
$XEDIT
290
1
  9
$CEPSNTYPE
380
0
  9
$PSTYLEMODE
290
1
  9
$FINGERPRINTGUID
  2
{2B0F7011-6349-4D4B-BB36-1CA90185A344}
  9
$VERSIONGUID
  2
{E6B11AA0-EC5C-40C4-AFA3-81C2BDB8D78C}
  9
$EXTNAMES
290
1
  9
$PSVPSCALE
 40
0.0
  9
$OLESTARTUP
290
0
  9
$SORTENTS
280
127
  9
$INDEXCTL
280
0
  9
$HIDETEXT
280
1
  9
$XCLIPFRAME
280
1
  9
$HALOGAP
280
0
  9
$OBSCOLOR
 70
257
  9
$OBSLTYPE
280
0
  9
$INTERSECTIONDISPLAY
280
0
  9
$INTERSECTIONCOLOR
 70
257
  9
$DIMASSOC
280
2
  9
$PROJECTNAME
  1

  9
$CAMERADISPLAY
290
0
  9
$LENSLENGTH
 40
50.0
  9
$CAMERAHEIGHT
 40
0.0
  9
$STEPSPERSEC
 40
24.0
  9
$STEPSIZE
 40
100.0
  9
$3DDWFPREC
 40
2.0
  9
$PSOLWIDTH
 40
0.005
  9
$PSOLHEIGHT
 40
0.08
  9
$LOFTANG1
 40
1.570796326795
  9
$LOFTANG2
 40
1.570796326795
  9
$LOFTMAG1
 40
0.0
  9
$LOFTMAG2
 40
0.0
  9
$LOFTPARAM
 70
7
  9
$LOFTNORMALS
280
1
  9
$LATITUDE
 40
37.795
  9
$LONGITUDE
 40
-122.394
  9
$NORTHDIRECTION
 40
0.0
  9
$TIMEZONE
 70
-8000
  9
$LIGHTGLYPHDISPLAY
280
1
  9
$TILEMODELIGHTSYNCH
280
1
  9
$CMATERIAL
347
20
  9
$SOLIDHIST
280
0
  9
$SHOWHIST
280
1
  9
$DWFFRAME
280
2
  9
$DGNFRAME
280
2
  9
$REALWORLDSCALE
290
1
  9
$INTERFERECOLOR
 62
256
  9
$CSHADOW
280
0
  9
$SHADOWPLANELOCATION
 40
0.0
  0
ENDSEC
  0
SECTION
  2
CLASSES
  0
CLASS
  1
ACDBDICTIONARYWDFLT
  2
AcDbDictionaryWithDefault
  3
ObjectDBX Classes
 90
0
 91
0
280
0
281
0
  0
CLASS
  1
SUN
  2
AcDbSun
  3
SCENEOE
 90
1153
 91
0
280
0
281
0
  0
CLASS
  1
VISUALSTYLE
  2
AcDbVisualStyle
  3
ObjectDBX Classes
 90
4095
 91
0
280
0
281
0
  0
CLASS
  1
MATERIAL
  2
AcDbMaterial
  3
ObjectDBX Classes
 90
1153
 91
0
280
0
281
0
  0
CLASS
  1
SCALE
  2
AcDbScale
  3
ObjectDBX Classes
 90
1153
 91
0
280
0
281
0
  0
CLASS
  1
TABLESTYLE
  2
AcDbTableStyle
  3
ObjectDBX Classes
 90
4095
 91
0
280
0
281
0
  0
CLASS
  1
MLEADERSTYLE
  2
AcDbMLeaderStyle
  3
ACDB_MLEADERSTYLE_CLASS
 90
4095
 91
0
280
0
281
0
  0
CLASS
  1
DICTIONARYVAR
  2
AcDbDictionaryVar
  3
ObjectDBX Classes
 90
0
 91
0
280
0
281
0
  0
CLASS
  1
CELLSTYLEMAP
  2
AcDbCellStyleMap
  3
ObjectDBX Classes
 90
1152
 91
0
280
0
281
0
  0
CLASS
  1
MENTALRAYRENDERSETTINGS
  2
AcDbMentalRayRenderSettings
  3
SCENEOE
 90
1024
 91
0
280
0
281
0
  0
CLASS
  1
ACDBDETAILVIEWSTYLE
  2
AcDbDetailViewStyle
  3
ObjectDBX Classes
 90
1025
 91
0
280
0
281
0
  0
CLASS
  1
ACDBSECTIONVIEWSTYLE
  2
AcDbSectionViewStyle
  3
ObjectDBX Classes
 90
1025
 91
0
280
0
281
0
  0
CLASS
  1
RASTERVARIABLES
  2
AcDbRasterVariables
  3
ISM
 90
0
 91
0
280
0
281
0
  0
CLASS
  1
ACDBPLACEHOLDER
  2
AcDbPlaceHolder
  3
ObjectDBX Classes
 90
0
 91
0
280
0
281
0
  0
CLASS
  1
LAYOUT
  2
AcDbLayout
  3
ObjectDBX Classes
 90
0
 91
0
280
0
281
0
  0
ENDSEC
  0
SECTION
  2
TABLES
  0
TABLE
  2
VPORT
  5
8
330
0
100
AcDbSymbolTable
 70
1
  0
VPORT
  5
23
330
8
100
AcDbSymbolTableRecord
100
AcDbViewportTableRecord
  2
*Active
 70
0
 10
0.0
 20
0.0
 11
1.0
 21
1.0
 12
0.0
 22
0.0
 13
0.0
 23
0.0
 14
0.5
 24
0.5
 15
0.5
 25
0.5
 16
0.0
 26
0.0
 36
1.0
 17
0.0
 27
0.0
 37
0.0
 40
1000.0
 41
1.34
 42
50.0
 43
0.0
 44
0.0
 50
0.0
 51
0.0
 71
0
 72
1000
 73
1
 74
3
 75
0
 76
0
 77
0
 78
0
281
0
 65
0
146
0.0
  0
ENDTAB
  0
TABLE
  2
LTYPE
  5
2
330
0
100
AcDbSymbolTable
 70
21
  0
LTYPE
  5
24
330
2
100
AcDbSymbolTableRecord
100
AcDbLinetypeTableRecord
  2
ByBlock
 70
0
  3

 72
65
 73
0
 40
0.0
  0
LTYPE
  5
25
330
2
100
AcDbSymbolTableRecord
100
AcDbLinetypeTableRecord
  2
ByLayer
 70
0
  3

 72
65
 73
0
 40
0.0
  0
LTYPE
  5
26
330
2
100
AcDbSymbolTableRecord
100
AcDbLinetypeTableRecord
  2
Continuous
 70
0
  3

 72
65
 73
0
 40
0.0
  0
LTYPE
  5
2F
330
2
100
AcDbSymbolTableRecord
100
AcDbLinetypeTableRecord
  2
CENTER
 70
0
  3
Center ____ _ ____ _ ____ _ ____ _ ____ _ ____
 72
65
 73
4
 40
2.0
 49
1.25
 74
0
 49
-0.25
 74
0
 49
0.25
 74
0
 49
-0.25
 74
0
  0
LTYPE
  5
30
330
2
100
AcDbSymbolTableRecord
100
AcDbLinetypeTableRecord
  2
CENTERX2
 70
0
  3
Center (2x) ________  __  ________  __  ________
 72
65
 73
4
 40
3.5
 49
2.5
 74
0
 49
-0.25
 74
0
 49
0.5
 74
0
 49
-0.25
 74
0
  0
LTYPE
  5
31
330
2
100
AcDbSymbolTableRecord
100
AcDbLinetypeTableRecord
  2
CENTER2
 70
0
  3
Center (.5x) ____ _ ____ _ ____ _ ____ _ ____
 72
65
 73
4
 40
1.0
 49
0.625
 74
0
 49
-0.125
 74
0
 49
0.125
 74
0
 49
-0.125
 74
0
  0
LTYPE
  5
32
330
2
100
AcDbSymbolTableRecord
100
AcDbLinetypeTableRecord
  2
DASHED
 70
0
  3
Dashed __ __ __ __ __ __ __ __ __ __ __ __ __ _
 72
65
 73
2
 40
0.6
 49
0.5
 74
0
 49
-0.1
 74
0
  0
LTYPE
  5
33
330
2
100
AcDbSymbolTableRecord
100
AcDbLinetypeTableRecord
  2
DASHEDX2
 70
0
  3
Dashed (2x) ____  ____  ____  ____  ____  ____
 72
65
 73
2
 40
1.2
 49
1.0
 74
0
 49
-0.2
 74
0
  0
LTYPE
  5
34
330
2
100
AcDbSymbolTableRecord
100
AcDbLinetypeTableRecord
  2
DASHED2
 70
0
  3
Dashed (.5x) _ _ _ _ _ _ _ _ _ _ _ _ _ _
 72
65
 73
2
 40
0.3
 49
0.25
 74
0
 49
-0.05
 74
0
  0
LTYPE
  5
35
330
2
100
AcDbSymbolTableRecord
100
AcDbLinetypeTableRecord
  2
PHANTOM
 70
0
  3
Phantom ______  __  __  ______  __  __  ______
 72
65
 73
6
 40
2.5
 49
1.25
 74
0
 49
-0.25
 74
0
 49
0.25
 74
0
 49
-0.25
 74
0
 49
0.25
 74
0
 49
-0.25
 74
0
  0
LTYPE
  5
36
330
2
100
AcDbSymbolTableRecord
100
AcDbLinetypeTableRecord
  2
PHANTOMX2
 70
0
  3
Phantom (2x)____________    ____    ____    ____________
 72
65
 73
6
 40
4.25
 49
2.5
 74
0
 49
-0.25
 74
0
 49
0.5
 74
0
 49
-0.25
 74
0
 49
0.5
 74
0
 49
-0.25
 74
0
  0
LTYPE
  5
37
330
2
100
AcDbSymbolTableRecord
100
AcDbLinetypeTableRecord
  2
PHANTOM2
 70
0
  3
Phantom (.5x) ___ _ _ ___ _ _ ___ _ _ ___ _ _ ___
 72
65
 73
6
 40
1.25
 49
0.625
 74
0
 49
-0.125
 74
0
 49
0.125
 74
0
 49
-0.125
 74
0
 49
0.125
 74
0
 49
-0.125
 74
0
  0
LTYPE
  5
38
330
2
100
AcDbSymbolTableRecord
100
AcDbLinetypeTableRecord
  2
DASHDOT
 70
0
  3
Dash dot __ . __ . __ . __ . __ . __ . __ . __
 72
65
 73
4
 40
1.4
 49
1.0
 74
0
 49
-0.2
 74
0
 49
0.0
 74
0
 49
-0.2
 74
0
  0
LTYPE
  5
39
330
2
100
AcDbSymbolTableRecord
100
AcDbLinetypeTableRecord
  2
DASHDOTX2
 70
0
  3
Dash dot (2x) ____  .  ____  .  ____  .  ____
 72
65
 73
4
 40
2.4
 49
2.0
 74
0
 49
-0.2
 74
0
 49
0.0
 74
0
 49
-0.2
 74
0
  0
LTYPE
  5
3A
330
2
100
AcDbSymbolTableRecord
100
AcDbLinetypeTableRecord
  2
DASHDOT2
 70
0
  3
Dash dot (.5x) _ . _ . _ . _ . _ . _ . _ . _
 72
65
 73
4
 40
0.7
 49
0.5
 74
0
 49
-0.1
 74
0
 49
0.0
 74
0
 49
-0.1
 74
0
  0
LTYPE
  5
3B
330
2
100
AcDbSymbolTableRecord
100
AcDbLinetypeTableRecord
  2
DOT
 70
0
  3
Dot .  .  .  .  .  .  .  .  .  .  .  .  .  .  .  .
 72
65
 73
2
 40
0.2
 49
0.0
 74
0
 49
-0.2
 74
0
  0
LTYPE
  5
3C
330
2
100
AcDbSymbolTableRecord
100
AcDbLinetypeTableRecord
  2
DOTX2
 70
0
  3
Dot (2x) .    .    .    .    .    .    .    . 
 72
65
 73
2
 40
0.4
 49
0.0
 74
0
 49
-0.4
 74
0
  0
LTYPE
  5
3D
330
2
100
AcDbSymbolTableRecord
100
AcDbLinetypeTableRecord
  2
DOT2
 70
0
  3
Dot (.5) . . . . . . . . . . . . . . . . . . . 
 72
65
 73
2
 40
0.1
 49
0.0
 74
0
 49
-0.1
 74
0
  0
LTYPE
  5
3E
330
2
100
AcDbSymbolTableRecord
100
AcDbLinetypeTableRecord
  2
DIVIDE
 70
0
  3
Divide __ . . __ . . __ . . __ . . __ . . __
 72
65
 73
6
 40
1.6
 49
1.0
 74
0
 49
-0.2
 74
0
 49
0.0
 74
0
 49
-0.2
 74
0
 49
0.0
 74
0
 49
-0.2
 74
0
  0
LTYPE
  5
3F
330
2
100
AcDbSymbolTableRecord
100
AcDbLinetypeTableRecord
  2
DIVIDEX2
 70
0
  3
Divide (2x) ____  . .  ____  . .  ____  . .  ____
 72
65
 73
6
 40
2.6
 49
2.0
 74
0
 49
-0.2
 74
0
 49
0.0
 74
0
 49
-0.2
 74
0
 49
0.0
 74
0
 49
-0.2
 74
0
  0
LTYPE
  5
40
330
2
100
AcDbSymbolTableRecord
100
AcDbLinetypeTableRecord
  2
DIVIDE2
 70
0
  3
Divide(.5x) _ . _ . _ . _ . _ . _ . _ . _
 72
65
 73
6
 40
0.8
 49
0.5
 74
0
 49
-0.1
 74
0
 49
0.0
 74
0
 49
-0.1
 74
0
 49
0.0
 74
0
 49
-0.1
 74
0
  0
ENDTAB
  0
TABLE
  2
LAYER
  5
1
330
0
100
AcDbSymbolTable
 70
6
  0
LAYER
  5
27
330
1
100
AcDbSymbolTableRecord
100
AcDbLayerTableRecord
  2
0
 70
0
 62
7
  6
Continuous
370
-3
390
13
347
21
  0
LAYER
  5
28
330
1
100
AcDbSymbolTableRecord
100
AcDbLayerTableRecord
  2
Defpoints
 70
0
 62
7
  6
Continuous
290
0
370
-3
390
13
347
21
  0
LAYER
  5
8A
330
1
100
AcDbSymbolTableRecord
100
AcDbLayerTableRecord
  2
GEOMETRY
 70
0
 62
7
  6
Continuous
370
-3
390
13
347
21
  0
LAYER
  5
8B
330
1
100
AcDbSymbolTableRecord
100
AcDbLayerTableRecord
  2
DIMENSIONS
 70
0
 62
1
  6
Continuous
370
-3
390
13
347
21
  0
LAYER
  5
8C
330
1
100
AcDbSymbolTableRecord
100
AcDbLayerTableRecord
  2
TEXT
 70
0
 62
7
  6
Continuous
370
-3
390
13
347
21
  0
LAYER
  5
8D
330
1
100
AcDbSymbolTableRecord
100
AcDbLayerTableRecord
  2
HATCH
 70
0
 62
8
  6
Continuous
370
-3
390
13
347
21
  0
ENDTAB
  0
TABLE
  2
STYLE
  5
5
330
0
100
AcDbSymbolTable
 70
26
  0
STYLE
  5
29
330
5
100
AcDbSymbolTableRecord
100
AcDbTextStyleTableRecord
  2
Standard
 70
0
 40
0.0
 41
1.0
 50
0.0
 71
0
 42
2.5
  3
txt
  4

  0
STYLE
  5
41
330
5
100
AcDbSymbolTableRecord
100
AcDbTextStyleTableRecord
  2
OpenSans-Light
 70
0
 40
0.0
 41
1.0
 50
0.0
 71
0
 42
2.5
  3
OpenSans-Light.ttf
  4

  0
STYLE
  5
42
330
5
100
AcDbSymbolTableRecord
100
AcDbTextStyleTableRecord
  2
OpenSans-Light-Italic
 70
0
 40
0.0
 41
1.0
 50
0.0
 71
0
 42
2.5
  3
OpenSans-LightItalic.ttf
  4

  0
STYLE
  5
43
330
5
100
AcDbSymbolTableRecord
100
AcDbTextStyleTableRecord
  2
OpenSans
 70
0
 40
0.0
 41
1.0
 50
0.0
 71
0
 42
2.5
  3
OpenSans-Regular.ttf
  4

  0
STYLE
  5
44
330
5
100
AcDbSymbolTableRecord
100
AcDbTextStyleTableRecord
  2
OpenSans-Italic
 70
0
 40
0.0
 41
1.0
 50
0.0
 71
0
 42
2.5
  3
OpenSans-Italic.ttf
  4

  0
STYLE
  5
45
330
5
100
AcDbSymbolTableRecord
100
AcDbTextStyleTableRecord
  2
OpenSans-SemiBold
 70
0
 40
0.0
 41
1.0
 50
0.0
 71
0
 42
2.5
  3
OpenSans-SemiBold.ttf
  4

  0
STYLE
  5
46
330
5
100
AcDbSymbolTableRecord
100
AcDbTextStyleTableRecord
  2
OpenSans-SemiBoldItalic
 70
0
 40
0.0
 41
1.0
 50
0.0
 71
0
 42
2.5
  3
OpenSans-SemiBoldItalic.ttf
  4

  0
STYLE
  5
47
330
5
100
AcDbSymbolTableRecord
100
AcDbTextStyleTableRecord
  2
OpenSans-Bold
 70
0
 40
0.0
 41
1.0
 50
0.0
 71
0
 42
2.5
  3
OpenSans-Bold.ttf
  4

  0
STYLE
  5
48
330
5
100
AcDbSymbolTableRecord
100
AcDbTextStyleTableRecord
  2
OpenSans-BoldItalic
 70
0
 40
0.0
 41
1.0
 50
0.0
 71
0
 42
2.5
  3
OpenSans-BoldItalic.ttf
  4

  0
STYLE
  5
49
330
5
100
AcDbSymbolTableRecord
100
AcDbTextStyleTableRecord
  2
OpenSans-ExtraBold
 70
0
 40
0.0
 41
1.0
 50
0.0
 71
0
 42
2.5
  3
OpenSans-ExtraBold.ttf
  4

  0
STYLE
  5
4A
330
5
100
AcDbSymbolTableRecord
100
AcDbTextStyleTableRecord
  2
OpenSans-ExtraBoldItalic
 70
0
 40
0.0
 41
1.0
 50
0.0
 71
0
 42
2.5
  3
OpenSans-ExtraBoldItalic.ttf
  4

  0
STYLE
  5
4B
330
5
100
AcDbSymbolTableRecord
100
AcDbTextStyleTableRecord
  2
OpenSansCondensed-Bold
 70
0
 40
0.0
 41
1.0
 50
0.0
 71
0
 42
2.5
  3
OpenSansCondensed-Bold.ttf
  4

  0
STYLE
  5
4C
330
5
100
AcDbSymbolTableRecord
100
AcDbTextStyleTableRecord
  2
OpenSansCondensed-Light
 70
0
 40
0.0
 41
1.0
 50
0.0
 71
0
 42
2.5
  3
OpenSansCondensed-Light.ttf
  4

  0
STYLE
  5
4D
330
5
100
AcDbSymbolTableRecord
100
AcDbTextStyleTableRecord
  2
OpenSansCondensed-Italic
 70
0
 40
0.0
 41
1.0
 50
0.0
 71
0
 42
2.5
  3
OpenSansCondensed-LightItalic.ttf
  4

  0
STYLE
  5
4E
330
5
100
AcDbSymbolTableRecord
100
AcDbTextStyleTableRecord
  2
LiberationSans
 70
0
 40
0.0
 41
1.0
 50
0.0
 71
0
 42
2.5
  3
LiberationSans-Regular.ttf
  4

  0
STYLE
  5
4F
330
5
100
AcDbSymbolTableRecord
100
AcDbTextStyleTableRecord
  2
LiberationSans-Bold
 70
0
 40
0.0
 41
1.0
 50
0.0
 71
0
 42
2.5
  3
LiberationSans-Bold.ttf
  4

  0
STYLE
  5
50
330
5
100
AcDbSymbolTableRecord
100
AcDbTextStyleTableRecord
  2
LiberationSans-BoldItalic
 70
0
 40
0.0
 41
1.0
 50
0.0
 71
0
 42
2.5
  3
LiberationSans-BoldItalic.ttf
  4

  0
STYLE
  5
51
330
5
100
AcDbSymbolTableRecord
100
AcDbTextStyleTableRecord
  2
LiberationSans-Italic
 70
0
 40
0.0
 41
1.0
 50
0.0
 71
0
 42
2.5
  3
LiberationSans-Italic.ttf
  4

  0
STYLE
  5
52
330
5
100
AcDbSymbolTableRecord
100
AcDbTextStyleTableRecord
  2
LiberationSerif
 70
0
 40
0.0
 41
1.0
 50
0.0
 71
0
 42
2.5
  3
LiberationSerif-Regular.ttf
  4

  0
STYLE
  5
53
330
5
100
AcDbSymbolTableRecord
100
AcDbTextStyleTableRecord
  2
LiberationSerif-Bold
 70
0
 40
0.0
 41
1.0
 50
0.0
 71
0
 42
2.5
  3
LiberationSerif-Bold.ttf
  4

  0
STYLE
  5
54
330
5
100
AcDbSymbolTableRecord
100
AcDbTextStyleTableRecord
  2
LiberationSerif-BoldItalic
 70
0
 40
0.0
 41
1.0
 50
0.0
 71
0
 42
2.5
  3
LiberationSerif-BoldItalic.ttf
  4

  0
STYLE
  5
55
330
5
100
AcDbSymbolTableRecord
100
AcDbTextStyleTableRecord
  2
LiberationSerif-Italic
 70
0
 40
0.0
 41
1.0
 50
0.0
 71
0
 42
2.5
  3
LiberationSerif-Italic.ttf
  4

  0
STYLE
  5
56
330
5
100
AcDbSymbolTableRecord
100
AcDbTextStyleTableRecord
  2
LiberationMono
 70
0
 40
0.0
 41
1.0
 50
0.0
 71
0
 42
2.5
  3
LiberationMono-Regular.ttf
  4

  0
STYLE
  5
57
330
5
100
AcDbSymbolTableRecord
100
AcDbTextStyleTableRecord
  2
LiberationMono-Bold
 70
0
 40
0.0
 41
1.0
 50
0.0
 71
0
 42
2.5
  3
LiberationMono-Bold.ttf
  4

  0
STYLE
  5
58
330
5
100
AcDbSymbolTableRecord
100
AcDbTextStyleTableRecord
  2
LiberationMono-BoldItalic
 70
0
 40
0.0
 41
1.0
 50
0.0
 71
0
 42
2.5
  3
LiberationMono-BoldItalic.ttf
  4

  0
STYLE
  5
59
330
5
100
AcDbSymbolTableRecord
100
AcDbTextStyleTableRecord
  2
LiberationMono-Italic
 70
0
 40
0.0
 41
1.0
 50
0.0
 71
0
 42
2.5
  3
LiberationMono-Italic.ttf
  4

  0
ENDTAB
  0
TABLE
  2
VIEW
  5
7
330
0
100
AcDbSymbolTable
 70
0
  0
ENDTAB
  0
TABLE
  2
UCS
  5
6
330
0
100
AcDbSymbolTable
 70
0
  0
ENDTAB
  0
TABLE
  2
APPID
  5
3
330
0
100
AcDbSymbolTable
 70
3
  0
APPID
  5
2A
330
3
100
AcDbSymbolTableRecord
100
AcDbRegAppTableRecord
  2
ACAD
 70
0
  0
APPID
  5
284
330
3
100
AcDbSymbolTableRecord
100
AcDbRegAppTableRecord
  2
HATCHBACKGROUNDCOLOR
 70
0
  0
APPID
  5
285
330
3
100
AcDbSymbolTableRecord
100
AcDbRegAppTableRecord
  2
EZDXF
 70
0
  0
ENDTAB
  0
TABLE
  2
DIMSTYLE
  5
4
330
0
100
AcDbSymbolTable
 70
12
100
AcDbDimStyleTable
  0
DIMSTYLE
105
2B
330
4
100
AcDbSymbolTableRecord
100
AcDbDimStyleTableRecord
  2
Standard
 70
0
 40
1.0
 41
2.5
 42
0.625
 43
3.75
 44
1.25
 45
0.0
 46
0.0
 47
0.0
 48
0.0
 49
2.5
140
2.5
141
2.5
142
0.0
143
0.03937007874
144
1.0
145
0.0
146
1.0
147
0.625
148
0.0
 69
0
 70
0
 71
0
 72
0
 73
0
 74
0
 75
0
 76
0
 77
1
 78
8
 79
3
170
0
171
3
172
1
173
0
174
0
175
0
176
0
177
0
178
0
179
2
271
2
272
2
273
2
274
3
275
0
276
0
277
2
278
44
279
0
280
0
281
0
282
0
283
0
284
8
285
0
286
0
288
0
289
3
290
0
371
-2
372
-2
  0
DIMSTYLE
105
73
330
4
100
AcDbSymbolTableRecord
100
AcDbDimStyleTableRecord
  2
EZDXF
 70
0
 40
1.0
 41
0.175
 42
0.125
 43
3.75
 44
0.375
 45
0.0
 46
0.0
 47
0.0
 48
0.0
 49
2.5
140
0.25
141
2.5
142
0.0
143
0.03937007874
144
100.0
145
0.0
146
0.5
147
0.1
148
0.0
 69
0
 70
0
 71
0
 72
0
 73
0
 74
0
 75
0
 76
0
 77
1
 78
12
 79
3
170
0
171
3
172
1
173
0
174
0
175
0
176
0
177
0
178
0
179
2
271
2
272
2
273
2
274
3
275
0
276
0
277
2
278
46
279
2
280
0
281
0
282
0
283
0
284
8
285
0
286
0
288
1
289
3
290
0
340
4C
342
74
371
-2
372
-2
  0
DIMSTYLE
105
7C
330
4
100
AcDbSymbolTableRecord
100
AcDbDimStyleTableRecord
  2
EZ_M_100_H25_CM
 70
0
 40
1.0
 41
0.25
 42
0.125
 43
3.75
 44
0.375
 45
0.0
 46
0.0
 47
0.0
 48
0.0
 49
2.5
140
0.25
141
2.5
142
0.125
143
0.03937007874
144
100.0
145
0.0
146
0.5
147
0.1
148
0.0
 69
0
 70
0
 71
0
 72
0
 73
0
 74
0
 75
0
 76
0
 77
1
 78
12
 79
3
170
0
171
3
172
1
173
0
174
0
175
0
176
0
177
0
178
0
179
2
271
2
272
2
273
2
274
3
275
0
276
0
277
2
278
46
279
2
280
0
281
0
282
0
283
0
284
8
285
0
286
0
288
1
289
3
290
0
340
4C
371
-2
372
-2
  0
DIMSTYLE
105
7D
330
4
100
AcDbSymbolTableRecord
100
AcDbDimStyleTableRecord
  2
EZ_M_50_H25_CM
 70
0
 40
1.0
 41
0.125
 42
0.0625
 43
3.75
 44
0.1875
 45
0.0
 46
0.0
 47
0.0
 48
0.0
 49
2.5
140
0.125
141
2.5
142
0.0625
143
0.03937007874
144
100.0
145
0.0
146
0.5
147
0.05
148
0.0
 69
0
 70
0
 71
0
 72
0
 73
0
 74
0
 75
0
 76
0
 77
1
 78
12
 79
3
170
0
171
3
172
1
173
0
174
0
175
0
176
0
177
0
178
0
179
2
271
2
272
2
273
2
274
3
275
0
276
0
277
2
278
46
279
2
280
0
281
0
282
0
283
0
284
8
285
0
286
0
288
1
289
3
290
0
340
4C
371
-2
372
-2
  0
DIMSTYLE
105
7E
330
4
100
AcDbSymbolTableRecord
100
AcDbDimStyleTableRecord
  2
EZ_M_25_H25_CM
 70
0
 40
1.0
 41
0.0625
 42
0.03125
 43
3.75
 44
0.09375
 45
0.0
 46
0.0
 47
0.0
 48
0.0
 49
2.5
140
0.0625
141
2.5
142
0.03125
143
0.03937007874
144
100.0
145
0.0
146
0.5
147
0.025
148
0.0
 69
0
 70
0
 71
0
 72
0
 73
0
 74
0
 75
0
 76
0
 77
1
 78
12
 79
3
170
0
171
3
172
1
173
0
174
0
175
0
176
0
177
0
178
0
179
2
271
2
272
2
273
2
274
3
275
0
276
0
277
2
278
46
279
2
280
0
281
0
282
0
283
0
284
8
285
0
286
0
288
1
289
3
290
0
340
4C
371
-2
372
-2
  0
DIMSTYLE
105
7F
330
4
100
AcDbSymbolTableRecord
100
AcDbDimStyleTableRecord
  2
EZ_M_20_H25_CM
 70
0
 40
1.0
 41
0.05
 42
0.025
 43
3.75
 44
0.07500000000000001
 45
0.0
 46
0.0
 47
0.0
 48
0.0
 49
2.5
140
0.05
141
2.5
142
0.025
143
0.03937007874
144
100.0
145
0.0
146
0.5
147
0.020000000000000004
148
0.0
 69
0
 70
0
 71
0
 72
0
 73
0
 74
0
 75
0
 76
0
 77
1
 78
12
 79
3
170
0
171
3
172
1
173
0
174
0
175
0
176
0
177
0
178
0
179
2
271
2
272
2
273
2
274
3
275
0
276
0
277
2
278
46
279
2
280
0
281
0
282
0
283
0
284
8
285
0
286
0
288
1
289
3
290
0
340
4C
371
-2
372
-2
  0
DIMSTYLE
105
80
330
4
100
AcDbSymbolTableRecord
100
AcDbDimStyleTableRecord
  2
EZ_M_10_H25_CM
 70
0
 40
1.0
 41
0.025
 42
0.0125
 43
3.75
 44
0.037500000000000006
 45
0.0
 46
0.0
 47
0.0
 48
0.0
 49
2.5
140
0.025
141
2.5
142
0.0125
143
0.03937007874
144
100.0
145
0.0
146
0.5
147
0.010000000000000002
148
0.0
 69
0
 70
0
 71
0
 72
0
 73
0
 74
0
 75
0
 76
0
 77
1
 78
12
 79
3
170
0
171
3
172
1
173
0
174
0
175
0
176
0
177
0
178
0
179
2
271
2
272
2
273
2
274
3
275
0
276
0
277
2
278
46
279
2
280
0
281
0
282
0
283
0
284
8
285
0
286
0
288
1
289
3
290
0
340
4C
371
-2
372
-2
  0
DIMSTYLE
105
81
330
4
100
AcDbSymbolTableRecord
100
AcDbDimStyleTableRecord
  2
EZ_M_5_H25_CM
 70
0
 40
1.0
 41
0.0125
 42
0.00625
 43
3.75
 44
0.018750000000000003
 45
0.0
 46
0.0
 47
0.0
 48
0.0
 49
2.5
140
0.0125
141
2.5
142
0.00625
143
0.03937007874
144
100.0
145
0.0
146
0.5
147
0.005000000000000001
148
0.0
 69
0
 70
0
 71
0
 72
0
 73
0
 74
0
 75
0
 76
0
 77
1
 78
12
 79
3
170
0
171
3
172
1
173
0
174
0
175
0
176
0
177
0
178
0
179
2
271
2
272
2
273
2
274
3
275
0
276
0
277
2
278
46
279
2
280
0
281
0
282
0
283
0
284
8
285
0
286
0
288
1
289
3
290
0
340
4C
371
-2
372
-2
  0
DIMSTYLE
105
82
330
4
100
AcDbSymbolTableRecord
100
AcDbDimStyleTableRecord
  2
EZ_M_1_H25_CM
 70
0
 40
1.0
 41
0.0025
 42
0.00125
 43
3.75
 44
0.00375
 45
0.0
 46
0.0
 47
0.0
 48
0.0
 49
2.5
140
0.0025
141
2.5
142
0.00125
143
0.03937007874
144
100.0
145
0.0
146
0.5
147
0.001
148
0.0
 69
0
 70
0
 71
0
 72
0
 73
0
 74
0
 75
0
 76
0
 77
1
 78
12
 79
3
170
0
171
3
172
1
173
0
174
0
175
0
176
0
177
0
178
0
179
2
271
2
272
2
273
2
274
3
275
0
276
0
277
2
278
46
279
2
280
0
281
0
282
0
283
0
284
8
285
0
286
0
288
1
289
3
290
0
340
4C
371
-2
372
-2
  0
DIMSTYLE
105
83
330
4
100
AcDbSymbolTableRecord
100
AcDbDimStyleTableRecord
  2
EZ_RADIUS
 70
0
 40
1.0
 41
0.25
 42
0.125
 43
3.75
 44
0.375
 45
0.0
 46
0.0
 47
0.0
 48
0.0
 49
2.5
140
0.25
141
0.0
142
0.0
143
0.03937007874
144
100.0
145
0.0
146
0.5
147
0.1
148
0.0
 69
0
 70
0
 71
0
 72
0
 73
0
 74
0
 75
0
 76
0
 77
1
 78
12
 79
3
170
0
171
3
172
0
173
0
174
0
175
0
176
0
177
0
178
0
179
2
271
2
272
2
273
2
274
3
275
0
276
0
277
2
278
46
279
1
280
0
281
0
282
0
283
0
284
8
285
0
286
0
288
1
289
3
290
0
340
4C
342
84
371
-2
372
-2
  0
DIMSTYLE
105
88
330
4
100
AcDbSymbolTableRecord
100
AcDbDimStyleTableRecord
  2
EZ_RADIUS_INSIDE
 70
0
 40
1.0
 41
0.25
 42
0.125
 43
3.75
 44
0.375
 45
0.0
 46
0.0
 47
0.0
 48
0.0
 49
2.5
140
0.25
141
0.0
142
0.0
143
0.03937007874
144
100.0
145
0.0
146
0.5
147
0.1
148
0.0
 69
0
 70
0
 71
0
 72
0
 73
0
 74
0
 75
0
 76
0
 77
0
 78
12
 79
3
170
0
171
3
172
0
173
0
174
1
175
0
176
0
177
0
178
0
179
2
271
2
272
2
273
2
274
3
275
0
276
0
277
2
278
46
279
0
280
0
281
0
282
0
283
0
284
8
285
0
286
0
288
1
289
0
290
0
340
4C
342
84
371
-2
372
-2
  0
DIMSTYLE
105
89
330
4
100
AcDbSymbolTableRecord
100
AcDbDimStyleTableRecord
  2
EZ_CURVED
 70
0
 40
1.0
 41
0.25
 42
0.125
 43
3.75
 44
0.375
 45
0.0
 46
0.0
 47
0.0
 48
0.0
 49
2.5
140
0.25
141
2.5
142
0.0
143
0.03937007874
144
100.0
145
0.0
146
0.5
147
0.1
148
0.0
 69
0
 70
0
 71
0
 72
0
 73
0
 74
0
 75
0
 76
0
 77
1
 78
12
 79
2
 90
2
170
0
171
3
172
1
173
0
174
0
175
0
176
0
177
0
178
0
179
2
271
2
272
2
273
2
274
3
275
0
276
0
277
2
278
46
279
2
280
0
281
0
282
0
283
0
284
8
285
0
286
0
288
1
289
3
290
0
340
4C
371
-2
372
-2
  0
ENDTAB
  0
TABLE
  2
BLOCK_RECORD
  5
9
330
0
100
AcDbSymbolTable
 70
5
  0
BLOCK_RECORD
  5
17
330
9
100
AcDbSymbolTableRecord
100
AcDbBlockTableRecord
  2
*Model_Space
340
1A
 70
0
280
1
281
0
  0
BLOCK_RECORD
  5
1B
330
9
100
AcDbSymbolTableRecord
100
AcDbBlockTableRecord
  2
*Paper_Space
340
1E
 70
0
280
1
281
0
  0
BLOCK_RECORD
  5
74
330
9
100
AcDbSymbolTableRecord
100
AcDbBlockTableRecord
  2
_ARCHTICK
340
0
 70
0
280
1
281
0
  0
BLOCK_RECORD
  5
78
330
9
100
AcDbSymbolTableRecord
100
AcDbBlockTableRecord
  2
_CLOSEDFILLED
340
0
 70
0
280
1
281
0
  0
BLOCK_RECORD
  5
84
330
9
100
AcDbSymbolTableRecord
100
AcDbBlockTableRecord
  2
_CLOSEDBLANK
340
0
 70
0
280
1
281
0
  0
ENDTAB
  0
ENDSEC
  0
SECTION
  2
BLOCKS
  0
BLOCK
  5
18
330
17
100
AcDbEntity
  8
0
100
AcDbBlockBegin
  2
*Model_Space
 70
0
 10
0.0
 20
0.0
 30
0.0
  3
*Model_Space
  1

  0
ENDBLK
  5
19
330
17
100
AcDbEntity
  8
0
100
AcDbBlockEnd
  0
BLOCK
  5
1C
330
1B
100
AcDbEntity
  8
0
100
AcDbBlockBegin
  2
*Paper_Space
 70
0
 10
0.0
 20
0.0
 30
0.0
  3
*Paper_Space
  1

  0
ENDBLK
  5
1D
330
1B
100
AcDbEntity
  8
0
100
AcDbBlockEnd
  0
BLOCK
  5
75
330
74
100
AcDbEntity
  8
0
100
AcDbBlockBegin
  2
_ARCHTICK
 70
0
 10
0.0
 20
0.0
 30
0.0
  3
_ARCHTICK
  1

  0
LWPOLYLINE
  5
77
330
74
100
AcDbEntity
  8
0
  6
BYBLOCK
 62
0
100
AcDbPolyline
 90
2
 70
0
 43
0.15
 10
-0.5
 20
-0.5
 10
0.5
 20
0.5
  0
ENDBLK
  5
76
330
74
100
AcDbEntity
  8
0
100
AcDbBlockEnd
  0
BLOCK
  5
79
330
78
100
AcDbEntity
  8
0
100
AcDbBlockBegin
  2
_CLOSEDFILLED
 70
0
 10
0.0
 20
0.0
 30
0.0
  3
_CLOSEDFILLED
  1

  0
SOLID
  5
7B
330
78
100
AcDbEntity
  8
0
  6
BYBLOCK
 62
0
100
AcDbTrace
 10
-1.0
 20
0.16439898372402537
 30
0.0
 11
0.0
 21
0.0
 31
0.0
 12
-1.0
 22
-0.16439898372402537
 32
0.0
 13
-1.0
 23
-0.16439898372402537
 33
0.0
  0
ENDBLK
  5
7A
330
78
100
AcDbEntity
  8
0
100
AcDbBlockEnd
  0
BLOCK
  5
85
330
84
100
AcDbEntity
  8
0
100
AcDbBlockBegin
  2
_CLOSEDBLANK
 70
0
 10
0.0
 20
0.0
 30
0.0
  3
_CLOSEDBLANK
  1

  0
LWPOLYLINE
  5
87
330
84
100
AcDbEntity
  8
0
  6
BYBLOCK
 62
0
100
AcDbPolyline
 90
3
 70
1
 10
-1.0
 20
0.16439898372402537
 10
0.0
 20
0.0
 10
-1.0
 20
-0.16439898372402537
  0
ENDBLK
  5
86
330
84
100
AcDbEntity
  8
0
100
AcDbBlockEnd
  0
ENDSEC
  0
SECTION
  2
ENTITIES
  0
LWPOLYLINE
  5
8E
330
17
100
AcDbEntity
  8
GEOMETRY
100
AcDbPolyline
 90
5
 70
0
 10
0.31496062992125984
 20
11.377952755905513
 10
16.22047244094488
 20
11.377952755905513
 10
16.22047244094488
 20
0.31496062992126106
 10
0.31496062992125984
 20
0.31496062992126106
 10
0.31496062992125984
 20
11.377952755905513
  0
LWPOLYLINE
  5
8F
330
17
100
AcDbEntity
  8
GEOMETRY
  6
DASHED
100
AcDbPolyline
 90
4
 70
0
 10
1.7224409448818898
 20
2.2769028871391086
 10
1.7224409448818898
 20
10.521653543307087
 10
5.2132545931758525
 20
10.521653543307087
 10
5.2132545931758525
 20
2.2769028871391086
  0
LWPOLYLINE
  5
90
330
17
100
AcDbEntity
  8
GEOMETRY
100
AcDbPolyline
 90
5
 70
0
 10
1.968503937007874
 20
10.275590551181104
 10
3.467847769028871
 20
10.275590551181104
 10
3.467847769028871
 20
2.2769028871391086
 10
1.968503937007874
 20
2.2769028871391086
 10
1.968503937007874
 20
10.275590551181104
  0
LINE
  5
91
330
17
100
AcDbEntity
  8
GEOMETRY
100
AcDbLine
 10
2.296587926509186
 20
9.947506561679791
 30
0.0
 11
3.139763779527559
 21
9.947506561679791
 31
0.0
  0
LINE
  5
92
330
17
100
AcDbEntity
  8
GEOMETRY
100
AcDbLine
 10
2.296587926509186
 20
3.031496062992126
 30
0.0
 11
3.139763779527559
 21
3.031496062992126
 31
0.0
  0
LINE
  5
93
330
17
100
AcDbEntity
  8
GEOMETRY
100
AcDbLine
 10
2.296587926509186
 20
5.93503937007874
 30
0.0
 11
2.296587926509186
 21
5.1804461942257225
 31
0.0
  0
LINE
  5
94
330
17
100
AcDbEntity
  8
GEOMETRY
100
AcDbLine
 10
3.139763779527559
 20
5.93503937007874
 30
0.0
 11
3.139763779527559
 21
5.1804461942257225
 31
0.0
  0
LINE
  5
95
330
17
100
AcDbEntity
  8
GEOMETRY
100
AcDbLine
 10
2.296587926509186
 20
10.275590551181102
 30
0.0
 11
2.296587926509186
 21
9.947506561679791
 31
0.0
  0
LINE
  5
96
330
17
100
AcDbEntity
  8
GEOMETRY
100
AcDbLine
 10
3.139763779527559
 20
10.275590551181102
 30
0.0
 11
3.139763779527559
 21
9.947506561679791
 31
0.0
  0
LINE
  5
97
330
17
100
AcDbEntity
  8
GEOMETRY
100
AcDbLine
 10
2.296587926509186
 20
3.031496062992126
 30
0.0
 11
2.296587926509186
 21
2.276902887139108
 31
0.0
  0
LINE
  5
98
330
17
100
AcDbEntity
  8
GEOMETRY
100
AcDbLine
 10
3.139763779527559
 20
3.031496062992126
 30
0.0
 11
3.139763779527559
 21
2.276902887139108
 31
0.0
  0
LWPOLYLINE
  5
99
330
17
100
AcDbEntity
  8
GEOMETRY
100
AcDbPolyline
 90
5
 70
0
 10
2.296587926509186
 20
9.947506561679791
 10
3.139763779527559
 20
9.947506561679791
 10
3.139763779527559
 20
5.935039370078741
 10
2.296587926509186
 20
5.935039370078741
 10
2.296587926509186
 20
9.947506561679791
  0
LWPOLYLINE
  5
9A
330
17
100
AcDbEntity
  8
GEOMETRY
100
AcDbPolyline
 90
5
 70
0
 10
2.3622047244094486
 20
9.881889763779528
 10
3.074146981627296
 20
9.881889763779528
 10
3.074146981627296
 20
6.000656167979004
 10
2.3622047244094486
 20
6.000656167979004
 10
2.3622047244094486
 20
9.881889763779528
  0
LINE
  5
9B
330
17
100
AcDbEntity
  8
GEOMETRY
100
AcDbLine
 10
2.296587926509186
 20
9.947506561679791
 30
0.0
 11
2.3622047244094486
 21
9.881889763779528
 31
0.0
  0
LINE
  5
9C
330
17
100
AcDbEntity
  8
GEOMETRY
100
AcDbLine
 10
3.139763779527559
 20
9.947506561679791
 30
0.0
 11
3.074146981627296
 21
9.881889763779528
 31
0.0
  0
LINE
  5
9D
330
17
100
AcDbEntity
  8
GEOMETRY
100
AcDbLine
 10
2.296587926509186
 20
5.93503937007874
 30
0.0
 11
2.3622047244094486
 21
6.000656167979003
 31
0.0
  0
LINE
  5
9E
330
17
100
AcDbEntity
  8
GEOMETRY
100
AcDbLine
 10
3.139763779527559
 20
5.93503937007874
 30
0.0
 11
3.074146981627296
 21
6.000656167979003
 31
0.0
  0
POLYLINE
  5
9F
330
17
100
AcDbEntity
  8
GEOMETRY
100
AcDb2dPolyline
 66
1
 10
0.0
 20
0.0
 30
0.0
 70
0
  0
VERTEX
  5
A0
330
9F
100
AcDbEntity
  8
GEOMETRY
100
AcDbVertex
100
AcDb2dVertex
 10
2.44750656167979
 20
6.282808398950133
 30
0.0
 70
0
  0
VERTEX
  5
A1
330
9F
100
AcDbEntity
  8
GEOMETRY
100
AcDbVertex
100
AcDb2dVertex
 10
2.44750656167979
 20
9.5997375328084
 30
0.0
 70
0
  0
SEQEND
  5
A2
330
9F
100
AcDbEntity
  8
GEOMETRY
  0
SPLINE
  5
A3
330
17
100
AcDbEntity
  8
GEOMETRY
100
AcDbSpline
 70
0
 71
3
 72
14
 73
10
 74
0
 40
0.0
 40
0.0
 40
0.0
 40
0.0
 40
1.0
 40
1.0
 40
1.0
 40
2.0
 40
2.0
 40
2.0
 40
3.0
 40
3.0
 40
3.0
 40
3.0
 10
2.44750656167979
 20
9.5997375328084
 30
0.0
 10
2.4624790468269726
 20
9.5997375328084
 30
0.0
 10
2.477190927819715
 20
9.603679569439548
 30
0.0
 10
2.49015748031496
 20
9.61116581201314
 30
0.0
 10
2.503124032810206
 20
9.61865205458673
 30
0.0
 10
2.5138938771718005
 20
9.629421898948324
 30
0.0
 10
2.5213801197453916
 20
9.64238845144357
 30
0.0
 10
2.528866362318983
 20
9.655355003938816
 30
0.0
 10
2.532808398950131
 20
9.670066884931558
 30
0.0
 10
2.532808398950131
 20
9.68503937007874
 30
0.0
  0
SPLINE
  5
A4
330
17
100
AcDbEntity
  8
GEOMETRY
100
AcDbSpline
 70
0
 71
3
 72
11
 73
7
 74
0
 40
0.0
 40
0.0
 40
0.0
 40
0.0
 40
1.0
 40
1.0
 40
1.0
 40
2.0
 40
2.0
 40
2.0
 40
2.0
 10
2.532808398950131
 20
9.68503937007874
 30
0.0
 10
2.625492125984252
 20
9.68503937007874
 30
0.0
 10
2.603248031496063
 20
9.796587926509186
 30
0.0
 10
2.7181758530183724
 20
9.796587926509186
 30
0.0
 10
2.833103674540682
 20
9.796587926509186
 30
0.0
 10
2.8108595800524934
 20
9.68503937007874
 30
0.0
 10
2.9035433070866143
 20
9.68503937007874
 30
0.0
  0
SPLINE
  5
A5
330
17
100
AcDbEntity
  8
GEOMETRY
100
AcDbSpline
 70
0
 71
3
 72
14
 73
10
 74
0
 40
0.0
 40
0.0
 40
0.0
 40
0.0
 40
1.0
 40
1.0
 40
1.0
 40
2.0
 40
2.0
 40
2.0
 40
3.0
 40
3.0
 40
3.0
 40
3.0
 10
2.9035433070866143
 20
9.68503937007874
 30
0.0
 10
2.9035433070866143
 20
9.670066884931558
 30
0.0
 10
2.9074853437177612
 20
9.655355003938816
 30
0.0
 10
2.914971586291353
 20
9.642388451443571
 30
0.0
 10
2.9224578288649443
 20
9.629421898948324
 30
0.0
 10
2.9332276732265385
 20
9.61865205458673
 30
0.0
 10
2.946194225721784
 20
9.61116581201314
 30
0.0
 10
2.9591607782170293
 20
9.603679569439548
 30
0.0
 10
2.973872659209772
 20
9.5997375328084
 30
0.0
 10
2.988845144356955
 20
9.5997375328084
 30
0.0
  0
POLYLINE
  5
A6
330
17
100
AcDbEntity
  8
GEOMETRY
100
AcDb2dPolyline
 66
1
 10
0.0
 20
0.0
 30
0.0
 70
0
  0
VERTEX
  5
A7
330
A6
100
AcDbEntity
  8
GEOMETRY
100
AcDbVertex
100
AcDb2dVertex
 10
2.988845144356955
 20
9.5997375328084
 30
0.0
 70
0
  0
VERTEX
  5
A8
330
A6
100
AcDbEntity
  8
GEOMETRY
100
AcDbVertex
100
AcDb2dVertex
 10
2.988845144356955
 20
6.282808398950133
 30
0.0
 70
0
  0
SEQEND
  5
A9
330
A6
100
AcDbEntity
  8
GEOMETRY
  0
SPLINE
  5
AA
330
17
100
AcDbEntity
  8
GEOMETRY
100
AcDbSpline
 70
0
 71
3
 72
14
 73
10
 74
0
 40
0.0
 40
0.0
 40
0.0
 40
0.0
 40
1.0
 40
1.0
 40
1.0
 40
2.0
 40
2.0
 40
2.0
 40
3.0
 40
3.0
 40
3.0
 40
3.0
 10
2.988845144356955
 20
6.282808398950133
 30
0.0
 10
2.973872659209772
 20
6.282808398950133
 30
0.0
 10
2.9591607782170297
 20
6.278866362318985
 30
0.0
 10
2.9461942257217846
 20
6.271380119745394
 30
0.0
 10
2.933227673226539
 20
6.263893877171803
 30
0.0
 10
2.9224578288649448
 20
6.253124032810208
 30
0.0
 10
2.9149715862913532
 20
6.240157480314962
 30
0.0
 10
2.907485343717762
 20
6.227190927819717
 30
0.0
 10
2.9035433070866143
 20
6.212479046826974
 30
0.0
 10
2.9035433070866143
 20
6.197506561679791
 30
0.0
  0
SPLINE
  5
AB
330
17
100
AcDbEntity
  8
GEOMETRY
100
AcDbSpline
 70
0
 71
3
 72
11
 73
7
 74
0
 40
0.0
 40
0.0
 40
0.0
 40
0.0
 40
1.0
 40
1.0
 40
1.0
 40
2.0
 40
2.0
 40
2.0
 40
2.0
 10
2.9035433070866143
 20
6.197506561679791
 30
0.0
 10
2.8108595800524934
 20
6.197506561679791
 30
0.0
 10
2.833103674540682
 20
6.085958005249345
 30
0.0
 10
2.7181758530183724
 20
6.085958005249345
 30
0.0
 10
2.603248031496063
 20
6.085958005249345
 30
0.0
 10
2.625492125984252
 20
6.197506561679791
 30
0.0
 10
2.532808398950131
 20
6.197506561679791
 30
0.0
  0
SPLINE
  5
AC
330
17
100
AcDbEntity
  8
GEOMETRY
100
AcDbSpline
 70
0
 71
3
 72
14
 73
10
 74
0
 40
0.0
 40
0.0
 40
0.0
 40
0.0
 40
1.0
 40
1.0
 40
1.0
 40
2.0
 40
2.0
 40
2.0
 40
3.0
 40
3.0
 40
3.0
 40
3.0
 10
2.532808398950131
 20
6.197506561679791
 30
0.0
 10
2.532808398950131
 20
6.212479046826974
 30
0.0
 10
2.528866362318983
 20
6.227190927819717
 30
0.0
 10
2.5213801197453916
 20
6.240157480314962
 30
0.0
 10
2.5138938771718005
 20
6.253124032810208
 30
0.0
 10
2.503124032810206
 20
6.263893877171803
 30
0.0
 10
2.4901574803149606
 20
6.271380119745394
 30
0.0
 10
2.477190927819715
 20
6.278866362318985
 30
0.0
 10
2.4624790468269726
 20
6.282808398950133
 30
0.0
 10
2.44750656167979
 20
6.282808398950133
 30
0.0
  0
CIRCLE
  5
AD
330
17
100
AcDbEntity
  8
GEOMETRY
100
AcDbCircle
 10
2.456036745406824
 20
9.693569553805775
 30
0.0
 40
0.75
  0
CIRCLE
  5
AE
330
17
100
AcDbEntity
  8
GEOMETRY
100
AcDbCircle
 10
2.456036745406824
 20
9.693569553805775
 30
0.0
 40
0.3
  0
CIRCLE
  5
AF
330
17
100
AcDbEntity
  8
GEOMETRY
100
AcDbCircle
 10
2.980314960629921
 20
9.693569553805775
 30
0.0
 40
0.75
  0
CIRCLE
  5
B0
330
17
100
AcDbEntity
  8
GEOMETRY
100
AcDbCircle
 10
2.980314960629921
 20
9.693569553805775
 30
0.0
 40
0.3
  0
CIRCLE
  5
B1
330
17
100
AcDbEntity
  8
GEOMETRY
100
AcDbCircle
 10
2.456036745406824
 20
6.1889763779527565
 30
0.0
 40
0.75
  0
CIRCLE
  5
B2
330
17
100
AcDbEntity
  8
GEOMETRY
100
AcDbCircle
 10
2.456036745406824
 20
6.1889763779527565
 30
0.0
 40
0.3
  0
CIRCLE
  5
B3
330
17
100
AcDbEntity
  8
GEOMETRY
100
AcDbCircle
 10
2.980314960629921
 20
6.1889763779527565
 30
0.0
 40
0.75
  0
CIRCLE
  5
B4
330
17
100
AcDbEntity
  8
GEOMETRY
100
AcDbCircle
 10
2.980314960629921
 20
6.1889763779527565
 30
0.0
 40
0.3
  0
LWPOLYLINE
  5
B5
330
17
100
AcDbEntity
  8
GEOMETRY
100
AcDbPolyline
 90
5
 70
0
 10
2.296587926509186
 20
5.1804461942257225
 10
3.139763779527559
 20
5.1804461942257225
 10
3.139763779527559
 20
3.031496062992126
 10
2.296587926509186
 20
3.031496062992126
 10
2.296587926509186
 20
5.1804461942257225
  0
LWPOLYLINE
  5
B6
330
17
100
AcDbEntity
  8
GEOMETRY
100
AcDbPolyline
 90
5
 70
0
 10
2.3622047244094486
 20
5.114829396325461
 10
3.074146981627296
 20
5.114829396325461
 10
3.074146981627296
 20
3.0971128608923895
 10
2.3622047244094486
 20
3.0971128608923895
 10
2.3622047244094486
 20
5.114829396325461
  0
LINE
  5
B7
330
17
100
AcDbEntity
  8
GEOMETRY
100
AcDbLine
 10
2.296587926509186
 20
5.1804461942257225
 30
0.0
 11
2.3622047244094486
 21
5.11482939632546
 31
0.0
  0
LINE
  5
B8
330
17
100
AcDbEntity
  8
GEOMETRY
100
AcDbLine
 10
3.139763779527559
 20
5.1804461942257225
 30
0.0
 11
3.074146981627296
 21
5.11482939632546
 31
0.0
  0
LINE
  5
B9
330
17
100
AcDbEntity
  8
GEOMETRY
100
AcDbLine
 10
2.296587926509186
 20
3.031496062992126
 30
0.0
 11
2.3622047244094486
 21
3.097112860892389
 31
0.0
  0
LINE
  5
BA
330
17
100
AcDbEntity
  8
GEOMETRY
100
AcDbLine
 10
3.139763779527559
 20
3.031496062992126
 30
0.0
 11
3.074146981627296
 21
3.097112860892389
 31
0.0
  0
POLYLINE
  5
BB
330
17
100
AcDbEntity
  8
GEOMETRY
100
AcDb2dPolyline
 66
1
 10
0.0
 20
0.0
 30
0.0
 70
0
  0
VERTEX
  5
BC
330
BB
100
AcDbEntity
  8
GEOMETRY
100
AcDbVertex
100
AcDb2dVertex
 10
2.44750656167979
 20
3.379265091863518
 30
0.0
 70
0
  0
VERTEX
  5
BD
330
BB
100
AcDbEntity
  8
GEOMETRY
100
AcDbVertex
100
AcDb2dVertex
 10
2.44750656167979
 20
4.8326771653543314
 30
0.0
 70
0
  0
SEQEND
  5
BE
330
BB
100
AcDbEntity
  8
GEOMETRY
  0
SPLINE
  5
BF
330
17
100
AcDbEntity
  8
GEOMETRY
100
AcDbSpline
 70
0
 71
3
 72
14
 73
10
 74
0
 40
0.0
 40
0.0
 40
0.0
 40
0.0
 40
1.0
 40
1.0
 40
1.0
 40
2.0
 40
2.0
 40
2.0
 40
3.0
 40
3.0
 40
3.0
 40
3.0
 10
2.44750656167979
 20
4.8326771653543314
 30
0.0
 10
2.4624790468269726
 20
4.8326771653543314
 30
0.0
 10
2.477190927819715
 20
4.836619201985479
 30
0.0
 10
2.49015748031496
 20
4.84410544455907
 30
0.0
 10
2.503124032810206
 20
4.851591687132662
 30
0.0
 10
2.5138938771718005
 20
4.8623615314942565
 30
0.0
 10
2.5213801197453916
 20
4.875328083989502
 30
0.0
 10
2.528866362318983
 20
4.888294636484748
 30
0.0
 10
2.532808398950131
 20
4.903006517477491
 30
0.0
 10
2.532808398950131
 20
4.917979002624674
 30
0.0
  0
SPLINE
  5
C0
330
17
100
AcDbEntity
  8
GEOMETRY
100
AcDbSpline
 70
0
 71
3
 72
11
 73
7
 74
0
 40
0.0
 40
0.0
 40
0.0
 40
0.0
 40
1.0
 40
1.0
 40
1.0
 40
2.0
 40
2.0
 40
2.0
 40
2.0
 10
2.532808398950131
 20
4.917979002624674
 30
0.0
 10
2.625492125984252
 20
4.917979002624674
 30
0.0
 10
2.603248031496063
 20
5.0295275590551185
 30
0.0
 10
2.7181758530183724
 20
5.0295275590551185
 30
0.0
 10
2.833103674540682
 20
5.0295275590551185
 30
0.0
 10
2.8108595800524934
 20
4.917979002624674
 30
0.0
 10
2.9035433070866143
 20
4.917979002624674
 30
0.0
  0
SPLINE
  5
C1
330
17
100
AcDbEntity
  8
GEOMETRY
100
AcDbSpline
 70
0
 71
3
 72
14
 73
10
 74
0
 40
0.0
 40
0.0
 40
0.0
 40
0.0
 40
1.0
 40
1.0
 40
1.0
 40
2.0
 40
2.0
 40
2.0
 40
3.0
 40
3.0
 40
3.0
 40
3.0
 10
2.9035433070866143
 20
4.917979002624674
 30
0.0
 10
2.9035433070866143
 20
4.903006517477491
 30
0.0
 10
2.9074853437177612
 20
4.888294636484748
 30
0.0
 10
2.914971586291353
 20
4.875328083989502
 30
0.0
 10
2.9224578288649443
 20
4.8623615314942565
 30
0.0
 10
2.9332276732265385
 20
4.851591687132662
 30
0.0
 10
2.946194225721784
 20
4.84410544455907
 30
0.0
 10
2.9591607782170293
 20
4.836619201985479
 30
0.0
 10
2.973872659209772
 20
4.8326771653543314
 30
0.0
 10
2.988845144356955
 20
4.8326771653543314
 30
0.0
  0
POLYLINE
  5
C2
330
17
100
AcDbEntity
  8
GEOMETRY
100
AcDb2dPolyline
 66
1
 10
0.0
 20
0.0
 30
0.0
 70
0
  0
VERTEX
  5
C3
330
C2
100
AcDbEntity
  8
GEOMETRY
100
AcDbVertex
100
AcDb2dVertex
 10
2.988845144356955
 20
4.8326771653543314
 30
0.0
 70
0
  0
VERTEX
  5
C4
330
C2
100
AcDbEntity
  8
GEOMETRY
100
AcDbVertex
100
AcDb2dVertex
 10
2.988845144356955
 20
3.379265091863518
 30
0.0
 70
0
  0
SEQEND
  5
C5
330
C2
100
AcDbEntity
  8
GEOMETRY
  0
SPLINE
  5
C6
330
17
100
AcDbEntity
  8
GEOMETRY
100
AcDbSpline
 70
0
 71
3
 72
14
 73
10
 74
0
 40
0.0
 40
0.0
 40
0.0
 40
0.0
 40
1.0
 40
1.0
 40
1.0
 40
2.0
 40
2.0
 40
2.0
 40
3.0
 40
3.0
 40
3.0
 40
3.0
 10
2.988845144356955
 20
3.379265091863518
 30
0.0
 10
2.973872659209772
 20
3.379265091863518
 30
0.0
 10
2.9591607782170297
 20
3.3753230552323714
 30
0.0
 10
2.9461942257217846
 20
3.36783681265878
 30
0.0
 10
2.933227673226539
 20
3.3603505700851883
 30
0.0
 10
2.9224578288649448
 20
3.3495807257235928
 30
0.0
 10
2.9149715862913532
 20
3.336614173228348
 30
0.0
 10
2.907485343717762
 20
3.3236476207331034
 30
0.0
 10
2.9035433070866143
 20
3.3089357397403596
 30
0.0
 10
2.9035433070866143
 20
3.2939632545931765
 30
0.0
  0
SPLINE
  5
C7
330
17
100
AcDbEntity
  8
GEOMETRY
100
AcDbSpline
 70
0
 71
3
 72
11
 73
7
 74
0
 40
0.0
 40
0.0
 40
0.0
 40
0.0
 40
1.0
 40
1.0
 40
1.0
 40
2.0
 40
2.0
 40
2.0
 40
2.0
 10
2.9035433070866143
 20
3.2939632545931765
 30
0.0
 10
2.8108595800524934
 20
3.2939632545931765
 30
0.0
 10
2.833103674540682
 20
3.182414698162731
 30
0.0
 10
2.7181758530183724
 20
3.182414698162731
 30
0.0
 10
2.603248031496063
 20
3.182414698162731
 30
0.0
 10
2.625492125984252
 20
3.2939632545931765
 30
0.0
 10
2.532808398950131
 20
3.2939632545931765
 30
0.0
  0
SPLINE
  5
C8
330
17
100
AcDbEntity
  8
GEOMETRY
100
AcDbSpline
 70
0
 71
3
 72
14
 73
10
 74
0
 40
0.0
 40
0.0
 40
0.0
 40
0.0
 40
1.0
 40
1.0
 40
1.0
 40
2.0
 40
2.0
 40
2.0
 40
3.0
 40
3.0
 40
3.0
 40
3.0
 10
2.532808398950131
 20
3.2939632545931765
 30
0.0
 10
2.532808398950131
 20
3.3089357397403596
 30
0.0
 10
2.528866362318983
 20
3.3236476207331034
 30
0.0
 10
2.5213801197453916
 20
3.336614173228348
 30
0.0
 10
2.5138938771718005
 20
3.3495807257235928
 30
0.0
 10
2.503124032810206
 20
3.3603505700851883
 30
0.0
 10
2.4901574803149606
 20
3.36783681265878
 30
0.0
 10
2.477190927819715
 20
3.3753230552323714
 30
0.0
 10
2.4624790468269726
 20
3.379265091863518
 30
0.0
 10
2.44750656167979
 20
3.379265091863518
 30
0.0
  0
CIRCLE
  5
C9
330
17
100
AcDbEntity
  8
GEOMETRY
100
AcDbCircle
 10
2.456036745406824
 20
4.926509186351706
 30
0.0
 40
0.75
  0
CIRCLE
  5
CA
330
17
100
AcDbEntity
  8
GEOMETRY
100
AcDbCircle
 10
2.456036745406824
 20
4.926509186351706
 30
0.0
 40
0.3
  0
CIRCLE
  5
CB
330
17
100
AcDbEntity
  8
GEOMETRY
100
AcDbCircle
 10
2.980314960629921
 20
4.926509186351706
 30
0.0
 40
0.75
  0
CIRCLE
  5
CC
330
17
100
AcDbEntity
  8
GEOMETRY
100
AcDbCircle
 10
2.980314960629921
 20
4.926509186351706
 30
0.0
 40
0.3
  0
CIRCLE
  5
CD
330
17
100
AcDbEntity
  8
GEOMETRY
100
AcDbCircle
 10
2.456036745406824
 20
3.2854330708661426
 30
0.0
 40
0.75
  0
CIRCLE
  5
CE
330
17
100
AcDbEntity
  8
GEOMETRY
100
AcDbCircle
 10
2.456036745406824
 20
3.2854330708661426
 30
0.0
 40
0.3
  0
CIRCLE
  5
CF
330
17
100
AcDbEntity
  8
GEOMETRY
100
AcDbCircle
 10
2.980314960629921
 20
3.2854330708661426
 30
0.0
 40
0.75
  0
CIRCLE
  5
D0
330
17
100
AcDbEntity
  8
GEOMETRY
100
AcDbCircle
 10
2.980314960629921
 20
3.2854330708661426
 30
0.0
 40
0.3
  0
CIRCLE
  5
D1
330
17
100
AcDbEntity
  8
GEOMETRY
100
AcDbCircle
 10
2.39501312335958
 20
5.557742782152232
 30
0.0
 40
2.2916666666666665
  0
CIRCLE
  5
D2
330
17
100
AcDbEntity
  8
GEOMETRY
100
AcDbCircle
 10
2.39501312335958
 20
5.557742782152232
 30
0.0
 40
1.4583333333333333
  0
CIRCLE
  5
D3
330
17
100
AcDbEntity
  8
GEOMETRY
100
AcDbCircle
 10
2.106299212598425
 20
5.557742782152232
 30
0.0
 40
1.4166666666666665
  0
SPLINE
  5
D4
330
17
100
AcDbEntity
  8
GEOMETRY
100
AcDbSpline
 70
0
 71
3
 72
35
 73
31
 74
0
 40
0.0
 40
0.0
 40
0.0
 40
0.0
 40
1.0
 40
1.0
 40
1.0
 40
2.0
 40
2.0
 40
2.0
 40
3.0
 40
3.0
 40
3.0
 40
4.0
 40
4.0
 40
4.0
 40
5.0
 40
5.0
 40
5.0
 40
6.0
 40
6.0
 40
6.0
 40
7.0
 40
7.0
 40
7.0
 40
8.0
 40
8.0
 40
8.0
 40
9.0
 40
9.0
 40
9.0
 40
10.0
 40
10.0
 40
10.0
 40
10.0
 10
2.0964566929133857
 20
5.561023622047244
 30
0.0
 10
2.0946787728033462
 20
5.56261384213709
 30
0.0
 10
2.093312444122214
 20
5.564611504284238
 30
0.0
 10
2.0924750663055485
 20
5.566845021296483
 30
0.0
 10
2.091637688488883
 20
5.569078538308728
 30
0.0
 10
2.09135394345631
 20
5.57148207671606
 30
0.0
 10
2.0916482032036203
 20
5.573849186990834
 30
0.0
 10
2.0919424629509304
 20
5.576216297265608
 30
0.0
 10
2.0928060540988107
 20
5.578477208243143
 30
0.0
 10
2.094164799349318
 20
5.580437721236227
 30
0.0
 10
2.0955235445998253
 20
5.582398234229311
 30
0.0
 10
2.0973373945984175
 20
5.584000562629372
 30
0.0
 10
2.099450550513552
 20
5.585107076041022
 30
0.0
 10
2.1015637064286863
 20
5.586213589452672
 30
0.0
 10
2.1039138824636585
 20
5.5867916731176175
 30
0.0
 10
2.106299212598426
 20
5.5867916731176175
 30
0.0
 10
2.1086845427331933
 20
5.5867916731176175
 30
0.0
 10
2.1110347187681646
 20
5.586213589452671
 30
0.0
 10
2.1131478746832992
 20
5.585107076041021
 30
0.0
 10
2.1152610305984334
 20
5.584000562629371
 30
0.0
 10
2.1170748805970256
 20
5.58239823422931
 30
0.0
 10
2.118433625847533
 20
5.580437721236226
 30
0.0
 10
2.11979237109804
 20
5.578477208243142
 30
0.0
 10
2.1206559622459205
 20
5.576216297265607
 30
0.0
 10
2.1209502219932306
 20
5.573849186990833
 30
0.0
 10
2.1212444817405403
 20
5.571482076716059
 30
0.0
 10
2.120960736707967
 20
5.569078538308726
 30
0.0
 10
2.1201233588913015
 20
5.566845021296482
 30
0.0
 10
2.119285981074636
 20
5.564611504284237
 30
0.0
 10
2.117919652393504
 20
5.56261384213709
 30
0.0
 10
2.1161417322834644
 20
5.561023622047244
 30
0.0
  0
POLYLINE
  5
D5
330
17
100
AcDbEntity
  8
GEOMETRY
100
AcDb2dPolyline
 66
1
 10
0.0
 20
0.0
 30
0.0
 70
0
  0
VERTEX
  5
D6
330
D5
100
AcDbEntity
  8
GEOMETRY
100
AcDbVertex
100
AcDb2dVertex
 10
2.1161417322834644
 20
5.561023622047244
 30
0.0
 70
0
  0
VERTEX
  5
D7
330
D5
100
AcDbEntity
  8
GEOMETRY
100
AcDbVertex
100
AcDb2dVertex
 10
2.1210629921259843
 20
5.524934383202101
 30
0.0
 70
0
  0
VERTEX
  5
D8
330
D5
100
AcDbEntity
  8
GEOMETRY
100
AcDbVertex
100
AcDb2dVertex
 10
2.091535433070866
 20
5.524934383202101
 30
0.0
 70
0
  0
VERTEX
  5
D9
330
D5
100
AcDbEntity
  8
GEOMETRY
100
AcDbVertex
100
AcDb2dVertex
 10
2.0964566929133857
 20
5.561023622047244
 30
0.0
 70
0
  0
SEQEND
  5
DA
330
D5
100
AcDbEntity
  8
GEOMETRY
  0
LWPOLYLINE
  5
DB
330
17
100
AcDbEntity
  8
GEOMETRY
100
AcDbPolyline
 90
5
 70
0
 10
3.467847769028871
 20
10.275590551181104
 10
4.967191601049868
 20
10.275590551181104
 10
4.967191601049868
 20
2.2769028871391086
 10
3.467847769028871
 20
2.2769028871391086
 10
3.467847769028871
 20
10.275590551181104
  0
LINE
  5
DC
330
17
100
AcDbEntity
  8
GEOMETRY
100
AcDbLine
 10
3.7959317585301835
 20
9.947506561679791
 30
0.0
 11
4.639107611548556
 21
9.947506561679791
 31
0.0
  0
LINE
  5
DD
330
17
100
AcDbEntity
  8
GEOMETRY
100
AcDbLine
 10
3.7959317585301835
 20
3.031496062992126
 30
0.0
 11
4.639107611548556
 21
3.031496062992126
 31
0.0
  0
LINE
  5
DE
330
17
100
AcDbEntity
  8
GEOMETRY
100
AcDbLine
 10
3.7959317585301835
 20
5.93503937007874
 30
0.0
 11
3.7959317585301835
 21
5.1804461942257225
 31
0.0
  0
LINE
  5
DF
330
17
100
AcDbEntity
  8
GEOMETRY
100
AcDbLine
 10
4.639107611548556
 20
5.93503937007874
 30
0.0
 11
4.639107611548556
 21
5.1804461942257225
 31
0.0
  0
LINE
  5
E0
330
17
100
AcDbEntity
  8
GEOMETRY
100
AcDbLine
 10
3.7959317585301835
 20
10.275590551181102
 30
0.0
 11
3.7959317585301835
 21
9.947506561679791
 31
0.0
  0
LINE
  5
E1
330
17
100
AcDbEntity
  8
GEOMETRY
100
AcDbLine
 10
4.639107611548556
 20
10.275590551181102
 30
0.0
 11
4.639107611548556
 21
9.947506561679791
 31
0.0
  0
LINE
  5
E2
330
17
100
AcDbEntity
  8
GEOMETRY
100
AcDbLine
 10
3.7959317585301835
 20
3.031496062992126
 30
0.0
 11
3.7959317585301835
 21
2.276902887139108
 31
0.0
  0
LINE
  5
E3
330
17
100
AcDbEntity
  8
GEOMETRY
100
AcDbLine
 10
4.639107611548556
 20
3.031496062992126
 30
0.0
 11
4.639107611548556
 21
2.276902887139108
 31
0.0
  0
LWPOLYLINE
  5
E4
330
17
100
AcDbEntity
  8
GEOMETRY
100
AcDbPolyline
 90
5
 70
0
 10
3.7959317585301835
 20
9.947506561679791
 10
4.639107611548556
 20
9.947506561679791
 10
4.639107611548556
 20
5.935039370078741
 10
3.7959317585301835
 20
5.935039370078741
 10
3.7959317585301835
 20
9.947506561679791
  0
LWPOLYLINE
  5
E5
330
17
100
AcDbEntity
  8
GEOMETRY
100
AcDbPolyline
 90
5
 70
0
 10
3.861548556430446
 20
9.881889763779528
 10
4.573490813648293
 20
9.881889763779528
 10
4.573490813648293
 20
6.000656167979004
 10
3.861548556430446
 20
6.000656167979004
 10
3.861548556430446
 20
9.881889763779528
  0
LINE
  5
E6
330
17
100
AcDbEntity
  8
GEOMETRY
100
AcDbLine
 10
3.7959317585301835
 20
9.947506561679791
 30
0.0
 11
3.861548556430446
 21
9.881889763779528
 31
0.0
  0
LINE
  5
E7
330
17
100
AcDbEntity
  8
GEOMETRY
100
AcDbLine
 10
4.639107611548556
 20
9.947506561679791
 30
0.0
 11
4.573490813648293
 21
9.881889763779528
 31
0.0
  0
LINE
  5
E8
330
17
100
AcDbEntity
  8
GEOMETRY
100
AcDbLine
 10
3.7959317585301835
 20
5.93503937007874
 30
0.0
 11
3.861548556430446
 21
6.000656167979003
 31
0.0
  0
LINE
  5
E9
330
17
100
AcDbEntity
  8
GEOMETRY
100
AcDbLine
 10
4.639107611548556
 20
5.93503937007874
 30
0.0
 11
4.573490813648293
 21
6.000656167979003
 31
0.0
  0
POLYLINE
  5
EA
330
17
100
AcDbEntity
  8
GEOMETRY
100
AcDb2dPolyline
 66
1
 10
0.0
 20
0.0
 30
0.0
 70
0
  0
VERTEX
  5
EB
330
EA
100
AcDbEntity
  8
GEOMETRY
100
AcDbVertex
100
AcDb2dVertex
 10
3.9468503937007875
 20
6.282808398950133
 30
0.0
 70
0
  0
VERTEX
  5
EC
330
EA
100
AcDbEntity
  8
GEOMETRY
100
AcDbVertex
100
AcDb2dVertex
 10
3.9468503937007875
 20
9.5997375328084
 30
0.0
 70
0
  0
SEQEND
  5
ED
330
EA
100
AcDbEntity
  8
GEOMETRY
  0
SPLINE
  5
EE
330
17
100
AcDbEntity
  8
GEOMETRY
100
AcDbSpline
 70
0
 71
3
 72
14
 73
10
 74
0
 40
0.0
 40
0.0
 40
0.0
 40
0.0
 40
1.0
 40
1.0
 40
1.0
 40
2.0
 40
2.0
 40
2.0
 40
3.0
 40
3.0
 40
3.0
 40
3.0
 10
3.9468503937007875
 20
9.5997375328084
 30
0.0
 10
3.96182287884797
 20
9.5997375328084
 30
0.0
 10
3.9765347598407126
 20
9.603679569439548
 30
0.0
 10
3.9895013123359577
 20
9.61116581201314
 30
0.0
 10
4.002467864831203
 20
9.61865205458673
 30
0.0
 10
4.013237709192797
 20
9.629421898948324
 30
0.0
 10
4.020723951766389
 20
9.64238845144357
 30
0.0
 10
4.02821019433998
 20
9.655355003938816
 30
0.0
 10
4.032152230971128
 20
9.670066884931558
 30
0.0
 10
4.032152230971128
 20
9.68503937007874
 30
0.0
  0
SPLINE
  5
EF
330
17
100
AcDbEntity
  8
GEOMETRY
100
AcDbSpline
 70
0
 71
3
 72
11
 73
7
 74
0
 40
0.0
 40
0.0
 40
0.0
 40
0.0
 40
1.0
 40
1.0
 40
1.0
 40
2.0
 40
2.0
 40
2.0
 40
2.0
 10
4.032152230971128
 20
9.68503937007874
 30
0.0
 10
4.124835958005249
 20
9.68503937007874
 30
0.0
 10
4.10259186351706
 20
9.796587926509186
 30
0.0
 10
4.21751968503937
 20
9.796587926509186
 30
0.0
 10
4.332447506561679
 20
9.796587926509186
 30
0.0
 10
4.3102034120734904
 20
9.68503937007874
 30
0.0
 10
4.402887139107611
 20
9.68503937007874
 30
0.0
  0
SPLINE
  5
F0
330
17
100
AcDbEntity
  8
GEOMETRY
100
AcDbSpline
 70
0
 71
3
 72
14
 73
10
 74
0
 40
0.0
 40
0.0
 40
0.0
 40
0.0
 40
1.0
 40
1.0
 40
1.0
 40
2.0
 40
2.0
 40
2.0
 40
3.0
 40
3.0
 40
3.0
 40
3.0
 10
4.402887139107611
 20
9.68503937007874
 30
0.0
 10
4.402887139107611
 20
9.670066884931558
 30
0.0
 10
4.40682917573876
 20
9.655355003938816
 30
0.0
 10
4.414315418312351
 20
9.642388451443571
 30
0.0
 10
4.421801660885943
 20
9.629421898948324
 30
0.0
 10
4.4325715052475365
 20
9.61865205458673
 30
0.0
 10
4.445538057742782
 20
9.61116581201314
 30
0.0
 10
4.458504610238028
 20
9.603679569439548
 30
0.0
 10
4.47321649123077
 20
9.5997375328084
 30
0.0
 10
4.488188976377953
 20
9.5997375328084
 30
0.0
  0
POLYLINE
  5
F1
330
17
100
AcDbEntity
  8
GEOMETRY
100
AcDb2dPolyline
 66
1
 10
0.0
 20
0.0
 30
0.0
 70
0
  0
VERTEX
  5
F2
330
F1
100
AcDbEntity
  8
GEOMETRY
100
AcDbVertex
100
AcDb2dVertex
 10
4.488188976377953
 20
9.5997375328084
 30
0.0
 70
0
  0
VERTEX
  5
F3
330
F1
100
AcDbEntity
  8
GEOMETRY
100
AcDbVertex
100
AcDb2dVertex
 10
4.488188976377953
 20
6.282808398950133
 30
0.0
 70
0
  0
SEQEND
  5
F4
330
F1
100
AcDbEntity
  8
GEOMETRY
  0
SPLINE
  5
F5
330
17
100
AcDbEntity
  8
GEOMETRY
100
AcDbSpline
 70
0
 71
3
 72
14
 73
10
 74
0
 40
0.0
 40
0.0
 40
0.0
 40
0.0
 40
1.0
 40
1.0
 40
1.0
 40
2.0
 40
2.0
 40
2.0
 40
3.0
 40
3.0
 40
3.0
 40
3.0
 10
4.488188976377953
 20
6.282808398950133
 30
0.0
 10
4.47321649123077
 20
6.282808398950133
 30
0.0
 10
4.458504610238028
 20
6.278866362318985
 30
0.0
 10
4.445538057742782
 20
6.271380119745394
 30
0.0
 10
4.4325715052475365
 20
6.263893877171803
 30
0.0
 10
4.421801660885943
 20
6.253124032810208
 30
0.0
 10
4.414315418312351
 20
6.240157480314962
 30
0.0
 10
4.40682917573876
 20
6.227190927819717
 30
0.0
 10
4.402887139107611
 20
6.212479046826974
 30
0.0
 10
4.402887139107611
 20
6.197506561679791
 30
0.0
  0
SPLINE
  5
F6
330
17
100
AcDbEntity
  8
GEOMETRY
100
AcDbSpline
 70
0
 71
3
 72
11
 73
7
 74
0
 40
0.0
 40
0.0
 40
0.0
 40
0.0
 40
1.0
 40
1.0
 40
1.0
 40
2.0
 40
2.0
 40
2.0
 40
2.0
 10
4.402887139107611
 20
6.197506561679791
 30
0.0
 10
4.3102034120734904
 20
6.197506561679791
 30
0.0
 10
4.332447506561679
 20
6.085958005249345
 30
0.0
 10
4.21751968503937
 20
6.085958005249345
 30
0.0
 10
4.10259186351706
 20
6.085958005249345
 30
0.0
 10
4.124835958005249
 20
6.197506561679791
 30
0.0
 10
4.032152230971128
 20
6.197506561679791
 30
0.0
  0
SPLINE
  5
F7
330
17
100
AcDbEntity
  8
GEOMETRY
100
AcDbSpline
 70
0
 71
3
 72
14
 73
10
 74
0
 40
0.0
 40
0.0
 40
0.0
 40
0.0
 40
1.0
 40
1.0
 40
1.0
 40
2.0
 40
2.0
 40
2.0
 40
3.0
 40
3.0
 40
3.0
 40
3.0
 10
4.032152230971128
 20
6.197506561679791
 30
0.0
 10
4.032152230971128
 20
6.212479046826974
 30
0.0
 10
4.02821019433998
 20
6.227190927819717
 30
0.0
 10
4.020723951766389
 20
6.240157480314962
 30
0.0
 10
4.013237709192797
 20
6.253124032810208
 30
0.0
 10
4.002467864831203
 20
6.263893877171803
 30
0.0
 10
3.9895013123359577
 20
6.271380119745394
 30
0.0
 10
3.9765347598407126
 20
6.278866362318985
 30
0.0
 10
3.96182287884797
 20
6.282808398950133
 30
0.0
 10
3.9468503937007875
 20
6.282808398950133
 30
0.0
  0
CIRCLE
  5
F8
330
17
100
AcDbEntity
  8
GEOMETRY
100
AcDbCircle
 10
3.9553805774278215
 20
9.693569553805775
 30
0.0
 40
0.75
  0
CIRCLE
  5
F9
330
17
100
AcDbEntity
  8
GEOMETRY
100
AcDbCircle
 10
3.9553805774278215
 20
9.693569553805775
 30
0.0
 40
0.3
  0
CIRCLE
  5
FA
330
17
100
AcDbEntity
  8
GEOMETRY
100
AcDbCircle
 10
4.479658792650919
 20
9.693569553805775
 30
0.0
 40
0.75
  0
CIRCLE
  5
FB
330
17
100
AcDbEntity
  8
GEOMETRY
100
AcDbCircle
 10
4.479658792650919
 20
9.693569553805775
 30
0.0
 40
0.3
  0
CIRCLE
  5
FC
330
17
100
AcDbEntity
  8
GEOMETRY
100
AcDbCircle
 10
3.9553805774278215
 20
6.1889763779527565
 30
0.0
 40
0.75
  0
CIRCLE
  5
FD
330
17
100
AcDbEntity
  8
GEOMETRY
100
AcDbCircle
 10
3.9553805774278215
 20
6.1889763779527565
 30
0.0
 40
0.3
  0
CIRCLE
  5
FE
330
17
100
AcDbEntity
  8
GEOMETRY
100
AcDbCircle
 10
4.479658792650919
 20
6.1889763779527565
 30
0.0
 40
0.75
  0
CIRCLE
  5
FF
330
17
100
AcDbEntity
  8
GEOMETRY
100
AcDbCircle
 10
4.479658792650919
 20
6.1889763779527565
 30
0.0
 40
0.3
  0
LWPOLYLINE
  5
100
330
17
100
AcDbEntity
  8
GEOMETRY
100
AcDbPolyline
 90
5
 70
0
 10
3.7959317585301835
 20
5.1804461942257225
 10
4.639107611548556
 20
5.1804461942257225
 10
4.639107611548556
 20
3.031496062992126
 10
3.7959317585301835
 20
3.031496062992126
 10
3.7959317585301835
 20
5.1804461942257225
  0
LWPOLYLINE
  5
101
330
17
100
AcDbEntity
  8
GEOMETRY
100
AcDbPolyline
 90
5
 70
0
 10
3.861548556430446
 20
5.114829396325461
 10
4.573490813648293
 20
5.114829396325461
 10
4.573490813648293
 20
3.0971128608923895
 10
3.861548556430446
 20
3.0971128608923895
 10
3.861548556430446
 20
5.114829396325461
  0
LINE
  5
102
330
17
100
AcDbEntity
  8
GEOMETRY
100
AcDbLine
 10
3.7959317585301835
 20
5.1804461942257225
 30
0.0
 11
3.861548556430446
 21
5.11482939632546
 31
0.0
  0
LINE
  5
103
330
17
100
AcDbEntity
  8
GEOMETRY
100
AcDbLine
 10
4.639107611548556
 20
5.1804461942257225
 30
0.0
 11
4.573490813648293
 21
5.11482939632546
 31
0.0
  0
LINE
  5
104
330
17
100
AcDbEntity
  8
GEOMETRY
100
AcDbLine
 10
3.7959317585301835
 20
3.031496062992126
 30
0.0
 11
3.861548556430446
 21
3.097112860892389
 31
0.0
  0
LINE
  5
105
330
17
100
AcDbEntity
  8
GEOMETRY
100
AcDbLine
 10
4.639107611548556
 20
3.031496062992126
 30
0.0
 11
4.573490813648293
 21
3.097112860892389
 31
0.0
  0
POLYLINE
  5
106
330
17
100
AcDbEntity
  8
GEOMETRY
100
AcDb2dPolyline
 66
1
 10
0.0
 20
0.0
 30
0.0
 70
0
  0
VERTEX
  5
107
330
106
100
AcDbEntity
  8
GEOMETRY
100
AcDbVertex
100
AcDb2dVertex
 10
3.9468503937007875
 20
3.379265091863518
 30
0.0
 70
0
  0
VERTEX
  5
108
330
106
100
AcDbEntity
  8
GEOMETRY
100
AcDbVertex
100
AcDb2dVertex
 10
3.9468503937007875
 20
4.8326771653543314
 30
0.0
 70
0
  0
SEQEND
  5
109
330
106
100
AcDbEntity
  8
GEOMETRY
  0
SPLINE
  5
10A
330
17
100
AcDbEntity
  8
GEOMETRY
100
AcDbSpline
 70
0
 71
3
 72
14
 73
10
 74
0
 40
0.0
 40
0.0
 40
0.0
 40
0.0
 40
1.0
 40
1.0
 40
1.0
 40
2.0
 40
2.0
 40
2.0
 40
3.0
 40
3.0
 40
3.0
 40
3.0
 10
3.9468503937007875
 20
4.8326771653543314
 30
0.0
 10
3.96182287884797
 20
4.8326771653543314
 30
0.0
 10
3.9765347598407126
 20
4.836619201985479
 30
0.0
 10
3.9895013123359577
 20
4.84410544455907
 30
0.0
 10
4.002467864831203
 20
4.851591687132662
 30
0.0
 10
4.013237709192797
 20
4.8623615314942565
 30
0.0
 10
4.020723951766389
 20
4.875328083989502
 30
0.0
 10
4.02821019433998
 20
4.888294636484748
 30
0.0
 10
4.032152230971128
 20
4.903006517477491
 30
0.0
 10
4.032152230971128
 20
4.917979002624674
 30
0.0
  0
SPLINE
  5
10B
330
17
100
AcDbEntity
  8
GEOMETRY
100
AcDbSpline
 70
0
 71
3
 72
11
 73
7
 74
0
 40
0.0
 40
0.0
 40
0.0
 40
0.0
 40
1.0
 40
1.0
 40
1.0
 40
2.0
 40
2.0
 40
2.0
 40
2.0
 10
4.032152230971128
 20
4.917979002624674
 30
0.0
 10
4.124835958005249
 20
4.917979002624674
 30
0.0
 10
4.10259186351706
 20
5.0295275590551185
 30
0.0
 10
4.21751968503937
 20
5.0295275590551185
 30
0.0
 10
4.332447506561679
 20
5.0295275590551185
 30
0.0
 10
4.3102034120734904
 20
4.917979002624674
 30
0.0
 10
4.402887139107611
 20
4.917979002624674
 30
0.0
  0
SPLINE
  5
10C
330
17
100
AcDbEntity
  8
GEOMETRY
100
AcDbSpline
 70
0
 71
3
 72
14
 73
10
 74
0
 40
0.0
 40
0.0
 40
0.0
 40
0.0
 40
1.0
 40
1.0
 40
1.0
 40
2.0
 40
2.0
 40
2.0
 40
3.0
 40
3.0
 40
3.0
 40
3.0
 10
4.402887139107611
 20
4.917979002624674
 30
0.0
 10
4.402887139107611
 20
4.903006517477491
 30
0.0
 10
4.40682917573876
 20
4.888294636484748
 30
0.0
 10
4.414315418312351
 20
4.875328083989502
 30
0.0
 10
4.421801660885943
 20
4.8623615314942565
 30
0.0
 10
4.4325715052475365
 20
4.851591687132662
 30
0.0
 10
4.445538057742782
 20
4.84410544455907
 30
0.0
 10
4.458504610238028
 20
4.836619201985479
 30
0.0
 10
4.47321649123077
 20
4.8326771653543314
 30
0.0
 10
4.488188976377953
 20
4.8326771653543314
 30
0.0
  0
POLYLINE
  5
10D
330
17
100
AcDbEntity
  8
GEOMETRY
100
AcDb2dPolyline
 66
1
 10
0.0
 20
0.0
 30
0.0
 70
0
  0
VERTEX
  5
10E
330
10D
100
AcDbEntity
  8
GEOMETRY
100
AcDbVertex
100
AcDb2dVertex
 10
4.488188976377953
 20
4.8326771653543314
 30
0.0
 70
0
  0
VERTEX
  5
10F
330
10D
100
AcDbEntity
  8
GEOMETRY
100
AcDbVertex
100
AcDb2dVertex
 10
4.488188976377953
 20
3.379265091863518
 30
0.0
 70
0
  0
SEQEND
  5
110
330
10D
100
AcDbEntity
  8
GEOMETRY
  0
SPLINE
  5
111
330
17
100
AcDbEntity
  8
GEOMETRY
100
AcDbSpline
 70
0
 71
3
 72
14
 73
10
 74
0
 40
0.0
 40
0.0
 40
0.0
 40
0.0
 40
1.0
 40
1.0
 40
1.0
 40
2.0
 40
2.0
 40
2.0
 40
3.0
 40
3.0
 40
3.0
 40
3.0
 10
4.488188976377953
 20
3.379265091863518
 30
0.0
 10
4.47321649123077
 20
3.379265091863518
 30
0.0
 10
4.458504610238028
 20
3.3753230552323714
 30
0.0
 10
4.445538057742782
 20
3.36783681265878
 30
0.0
 10
4.4325715052475365
 20
3.3603505700851883
 30
0.0
 10
4.421801660885943
 20
3.3495807257235928
 30
0.0
 10
4.414315418312351
 20
3.336614173228348
 30
0.0
 10
4.40682917573876
 20
3.3236476207331034
 30
0.0
 10
4.402887139107611
 20
3.3089357397403596
 30
0.0
 10
4.402887139107611
 20
3.2939632545931765
 30
0.0
  0
SPLINE
  5
112
330
17
100
AcDbEntity
  8
GEOMETRY
100
AcDbSpline
 70
0
 71
3
 72
11
 73
7
 74
0
 40
0.0
 40
0.0
 40
0.0
 40
0.0
 40
1.0
 40
1.0
 40
1.0
 40
2.0
 40
2.0
 40
2.0
 40
2.0
 10
4.402887139107611
 20
3.2939632545931765
 30
0.0
 10
4.3102034120734904
 20
3.2939632545931765
 30
0.0
 10
4.332447506561679
 20
3.182414698162731
 30
0.0
 10
4.21751968503937
 20
3.182414698162731
 30
0.0
 10
4.10259186351706
 20
3.182414698162731
 30
0.0
 10
4.124835958005249
 20
3.2939632545931765
 30
0.0
 10
4.032152230971128
 20
3.2939632545931765
 30
0.0
  0
SPLINE
  5
113
330
17
100
AcDbEntity
  8
GEOMETRY
100
AcDbSpline
 70
0
 71
3
 72
14
 73
10
 74
0
 40
0.0
 40
0.0
 40
0.0
 40
0.0
 40
1.0
 40
1.0
 40
1.0
 40
2.0
 40
2.0
 40
2.0
 40
3.0
 40
3.0
 40
3.0
 40
3.0
 10
4.032152230971128
 20
3.2939632545931765
 30
0.0
 10
4.032152230971128
 20
3.3089357397403596
 30
0.0
 10
4.02821019433998
 20
3.3236476207331034
 30
0.0
 10
4.020723951766389
 20
3.336614173228348
 30
0.0
 10
4.013237709192797
 20
3.3495807257235928
 30
0.0
 10
4.002467864831203
 20
3.3603505700851883
 30
0.0
 10
3.9895013123359577
 20
3.36783681265878
 30
0.0
 10
3.9765347598407126
 20
3.3753230552323714
 30
0.0
 10
3.96182287884797
 20
3.379265091863518
 30
0.0
 10
3.9468503937007875
 20
3.379265091863518
 30
0.0
  0
CIRCLE
  5
114
330
17
100
AcDbEntity
  8
GEOMETRY
100
AcDbCircle
 10
3.9553805774278215
 20
4.926509186351706
 30
0.0
 40
0.75
  0
CIRCLE
  5
115
330
17
100
AcDbEntity
  8
GEOMETRY
100
AcDbCircle
 10
3.9553805774278215
 20
4.926509186351706
 30
0.0
 40
0.3
  0
CIRCLE
  5
116
330
17
100
AcDbEntity
  8
GEOMETRY
100
AcDbCircle
 10
4.479658792650919
 20
4.926509186351706
 30
0.0
 40
0.75
  0
CIRCLE
  5
117
330
17
100
AcDbEntity
  8
GEOMETRY
100
AcDbCircle
 10
4.479658792650919
 20
4.926509186351706
 30
0.0
 40
0.3
  0
CIRCLE
  5
118
330
17
100
AcDbEntity
  8
GEOMETRY
100
AcDbCircle
 10
3.9553805774278215
 20
3.2854330708661426
 30
0.0
 40
0.75
  0
CIRCLE
  5
119
330
17
100
AcDbEntity
  8
GEOMETRY
100
AcDbCircle
 10
3.9553805774278215
 20
3.2854330708661426
 30
0.0
 40
0.3
  0
CIRCLE
  5
11A
330
17
100
AcDbEntity
  8
GEOMETRY
100
AcDbCircle
 10
4.479658792650919
 20
3.2854330708661426
 30
0.0
 40
0.75
  0
CIRCLE
  5
11B
330
17
100
AcDbEntity
  8
GEOMETRY
100
AcDbCircle
 10
4.479658792650919
 20
3.2854330708661426
 30
0.0
 40
0.3
  0
LINE
  5
11C
330
17
100
AcDbEntity
  8
GEOMETRY
100
AcDbLine
 10
3.48753280839895
 20
10.275590551181102
 30
0.0
 11
3.48753280839895
 21
2.276902887139108
 31
0.0
  0
LINE
  5
11D
330
17
100
AcDbEntity
  8
GEOMETRY
100
AcDbLine
 10
1.1318897637795275
 20
2.276902887139108
 30
0.0
 11
5.8038057742782145
 21
2.276902887139108
 31
0.0
  0
TEXT
  5
11E
330
17
100
AcDbEntity
  8
TEXT
100
AcDbText
 10
0.8661417322834646
 20
11.023622047244094
 30
0.0
 40
0.09637795275590551
  1
FRONT ELEVATION
 11
0.8661417322834646
 21
11.023622047244094
 31
0.0
100
AcDbText
  0
LINE
  5
11F
330
17
100
AcDbEntity
  8
GEOMETRY
100
AcDbLine
 10
0.8661417322834646
 20
10.96062992125984
 30
0.0
 11
3.2283464566929134
 21
10.96062992125984
 31
0.0
  0
TEXT
  5
120
330
17
100
AcDbEntity
  8
TEXT
100
AcDbText
 10
0.8661417322834646
 20
10.826771653543307
 30
0.0
 40
0.051023622047244095
  1
PAIR OF LEAVES · SCALE 1:12
 11
0.8661417322834646
 21
10.826771653543307
 31
0.0
100
AcDbText
  0
TEXT
  5
121
330
17
100
AcDbEntity
  8
TEXT
100
AcDbText
 10
1.1318897637795275
 20
2.316141732283465
 30
0.0
 40
0.04535433070866141
  1
FFL ±0
 11
1.1318897637795275
 21
2.316141732283465
 31
0.0
100
AcDbText
  0
LINE
  5
122
330
17
100
AcDbEntity
  8
GEOMETRY
100
AcDbLine
 10
1.4468503937007873
 20
8.11023622047244
 30
0.0
 11
1.6437007874015748
 21
8.11023622047244
 31
0.0
  0
LINE
  5
123
330
17
100
AcDbEntity
  8
GEOMETRY
100
AcDbLine
 10
5.292125984251968
 20
8.11023622047244
 30
0.0
 11
5.488976377952755
 21
8.11023622047244
 31
0.0
  0
TEXT
  5
124
330
17
100
AcDbEntity
  8
TEXT
100
AcDbText
 10
1.4074803149606299
 20
8.070866141732283
 30
0.0
 40
0.07937007874015747
  1
B
 72
2
 11
1.4074803149606299
 21
8.070866141732283
 31
0.0
100
AcDbText
  0
TEXT
  5
125
330
17
100
AcDbEntity
  8
TEXT
100
AcDbText
 10
5.528346456692913
 20
8.070866141732283
 30
0.0
 40
0.07937007874015747
  1
B
 11
5.528346456692913
 21
8.070866141732283
 31
0.0
100
AcDbText
  0
CIRCLE
  5
126
330
17
100
AcDbEntity
  8
GEOMETRY
  6
DASHED
100
AcDbCircle
 10
2.7181102362204728
 20
9.65236220472441
 30
0.0
 40
5.5
  0
TEXT
  5
127
330
17
100
AcDbEntity
  8
TEXT
100
AcDbText
 10
2.4622047244094487
 20
9.80984251968504
 30
0.0
 40
0.07370078740157479
  1
A
 72
2
 11
2.4622047244094487
 21
9.80984251968504
 31
0.0
100
AcDbText
  0
LWPOLYLINE
  5
128
330
17
100
AcDbEntity
  8
GEOMETRY
  6
DASHED
100
AcDbPolyline
 90
5
 70
0
 10
1.9094488188976377
 20
5.994094488188977
 10
3.526902887139108
 20
5.994094488188977
 10
3.526902887139108
 20
5.121391076115486
 10
1.9094488188976377
 20
5.121391076115486
 10
1.9094488188976377
 20
5.994094488188977
  0
TEXT
  5
129
330
17
100
AcDbEntity
  8
TEXT
100
AcDbText
 10
1.8700787401574803
 20
5.9547244094488185
 30
0.0
 40
0.07370078740157479
  1
C
 72
2
 11
1.8700787401574803
 21
5.9547244094488185
 31
0.0
100
AcDbText
  0
LINE
  5
12A
330
17
100
AcDbEntity
  8
DIMENSIONS
100
AcDbLine
 10
1.9094488188976377
 20
2.0011811023622053
 30
0.0
 11
3.526771653543307
 21
2.0011811023622053
 31
0.0
  0
LINE
  5
12B
330
17
100
AcDbEntity
  8
DIMENSIONS
100
AcDbLine
 10
1.968503937007874
 20
2.1980314960629928
 30
0.0
 11
1.968503937007874
 21
1.9539370078740166
 31
0.0
  0
LINE
  5
12C
330
17
100
AcDbEntity
  8
DIMENSIONS
100
AcDbLine
 10
1.9291338582677164
 20
1.9618110236220476
 30
0.0
 11
2.0078740157480315
 21
2.0405511811023627
 31
0.0
  0
LINE
  5
12D
330
17
100
AcDbEntity
  8
DIMENSIONS
100
AcDbLine
 10
2.296456692913386
 20
2.1980314960629928
 30
0.0
 11
2.296456692913386
 21
1.9539370078740166
 31
0.0
  0
LINE
  5
12E
330
17
100
AcDbEntity
  8
DIMENSIONS
100
AcDbLine
 10
2.2570866141732284
 20
1.9618110236220476
 30
0.0
 11
2.3358267716535432
 21
2.0405511811023627
 31
0.0
  0
LINE
  5
12F
330
17
100
AcDbEntity
  8
DIMENSIONS
100
AcDbLine
 10
3.139763779527559
 20
2.1980314960629928
 30
0.0
 11
3.139763779527559
 21
1.9539370078740166
 31
0.0
  0
LINE
  5
130
330
17
100
AcDbEntity
  8
DIMENSIONS
100
AcDbLine
 10
3.1003937007874014
 20
1.9618110236220476
 30
0.0
 11
3.1791338582677167
 21
2.0405511811023627
 31
0.0
  0
LINE
  5
131
330
17
100
AcDbEntity
  8
DIMENSIONS
100
AcDbLine
 10
3.4677165354330706
 20
2.1980314960629928
 30
0.0
 11
3.4677165354330706
 21
1.9539370078740166
 31
0.0
  0
LINE
  5
132
330
17
100
AcDbEntity
  8
DIMENSIONS
100
AcDbLine
 10
3.428346456692913
 20
1.9618110236220476
 30
0.0
 11
3.5070866141732284
 21
2.0405511811023627
 31
0.0
  0
TEXT
  5
133
330
17
100
AcDbEntity
  8
TEXT
100
AcDbText
 10
2.132283464566929
 20
2.0326771653543303
 30
0.0
 40
0.048188976377952754
  1
100
 72
1
 11
2.132283464566929
 21
2.0326771653543303
 31
0.0
100
AcDbText
  0
TEXT
  5
134
330
17
100
AcDbEntity
  8
TEXT
100
AcDbText
 10
2.7181102362204728
 20
2.0326771653543303
 30
0.0
 40
0.048188976377952754
  1
257
 72
1
 11
2.7181102362204728
 21
2.0326771653543303
 31
0.0
100
AcDbText
  0
TEXT
  5
135
330
17
100
AcDbEntity
  8
TEXT
100
AcDbText
 10
3.303543307086614
 20
2.0326771653543303
 30
0.0
 40
0.048188976377952754
  1
100
 72
1
 11
3.303543307086614
 21
2.0326771653543303
 31
0.0
100
AcDbText
  0
LINE
  5
136
330
17
100
AcDbEntity
  8
DIMENSIONS
100
AcDbLine
 10
1.9094488188976377
 20
1.7649606299212603
 30
0.0
 11
5.026377952755905
 21
1.7649606299212603
 31
0.0
  0
LINE
  5
137
330
17
100
AcDbEntity
  8
DIMENSIONS
100
AcDbLine
 10
1.968503937007874
 20
2.1980314960629928
 30
0.0
 11
1.968503937007874
 21
1.7177165354330717
 31
0.0
  0
LINE
  5
138
330
17
100
AcDbEntity
  8
DIMENSIONS
100
AcDbLine
 10
1.9291338582677164
 20
1.725590551181103
 30
0.0
 11
2.0078740157480315
 21
1.8043307086614178
 31
0.0
  0
LINE
  5
139
330
17
100
AcDbEntity
  8
DIMENSIONS
100
AcDbLine
 10
3.4677165354330706
 20
2.1980314960629928
 30
0.0
 11
3.4677165354330706
 21
1.7177165354330717
 31
0.0
  0
LINE
  5
13A
330
17
100
AcDbEntity
  8
DIMENSIONS
100
AcDbLine
 10
3.428346456692913
 20
1.725590551181103
 30
0.0
 11
3.5070866141732284
 21
1.8043307086614178
 31
0.0
  0
LINE
  5
13B
330
17
100
AcDbEntity
  8
DIMENSIONS
100
AcDbLine
 10
4.967322834645669
 20
2.1980314960629928
 30
0.0
 11
4.967322834645669
 21
1.7177165354330717
 31
0.0
  0
LINE
  5
13C
330
17
100
AcDbEntity
  8
DIMENSIONS
100
AcDbLine
 10
4.927952755905512
 20
1.725590551181103
 30
0.0
 11
5.006692913385827
 21
1.8043307086614178
 31
0.0
  0
TEXT
  5
13D
330
17
100
AcDbEntity
  8
TEXT
100
AcDbText
 10
2.7181102362204728
 20
1.7964566929133856
 30
0.0
 40
0.048188976377952754
  1
457
 72
1
 11
2.7181102362204728
 21
1.7964566929133856
 31
0.0
100
AcDbText
  0
TEXT
  5
13E
330
17
100
AcDbEntity
  8
TEXT
100
AcDbText
 10
4.217716535433071
 20
1.7964566929133856
 30
0.0
 40
0.048188976377952754
  1
457
 72
1
 11
4.217716535433071
 21
1.7964566929133856
 31
0.0
100
AcDbText
  0
LINE
  5
13F
330
17
100
AcDbEntity
  8
DIMENSIONS
100
AcDbLine
 10
1.9094488188976377
 20
1.5287401574803166
 30
0.0
 11
5.026377952755905
 21
1.5287401574803166
 31
0.0
  0
LINE
  5
140
330
17
100
AcDbEntity
  8
DIMENSIONS
100
AcDbLine
 10
1.968503937007874
 20
2.1980314960629928
 30
0.0
 11
1.968503937007874
 21
1.481496062992128
 31
0.0
  0
LINE
  5
141
330
17
100
AcDbEntity
  8
DIMENSIONS
100
AcDbLine
 10
1.9291338582677164
 20
1.489370078740157
 30
0.0
 11
2.0078740157480315
 21
1.5681102362204717
 31
0.0
  0
LINE
  5
142
330
17
100
AcDbEntity
  8
DIMENSIONS
100
AcDbLine
 10
4.967322834645669
 20
2.1980314960629928
 30
0.0
 11
4.967322834645669
 21
1.481496062992128
 31
0.0
  0
LINE
  5
143
330
17
100
AcDbEntity
  8
DIMENSIONS
100
AcDbLine
 10
4.927952755905512
 20
1.489370078740157
 30
0.0
 11
5.006692913385827
 21
1.5681102362204717
 31
0.0
  0
TEXT
  5
144
330
17
100
AcDbEntity
  8
TEXT
100
AcDbText
 10
3.4681102362204723
 20
1.5602362204724407
 30
0.0
 40
0.048188976377952754
  1
914 D1 · 3 FT (D2, D3: 762)
 72
1
 11
3.4681102362204723
 21
1.5602362204724407
 31
0.0
100
AcDbText
  0
LINE
  5
145
330
17
100
AcDbEntity
  8
DIMENSIONS
100
AcDbLine
 10
5.685826771653542
 20
10.334645669291339
 30
0.0
 11
5.685826771653542
 21
2.2177165354330715
 31
0.0
  0
LINE
  5
146
330
17
100
AcDbEntity
  8
DIMENSIONS
100
AcDbLine
 10
5.046062992125985
 20
10.275590551181102
 30
0.0
 11
5.733070866141731
 21
10.275590551181102
 31
0.0
  0
LINE
  5
147
330
17
100
AcDbEntity
  8
DIMENSIONS
100
AcDbLine
 10
5.646456692913385
 20
10.236220472440944
 30
0.0
 11
5.7251968503937
 21
10.31496062992126
 31
0.0
  0
LINE
  5
148
330
17
100
AcDbEntity
  8
DIMENSIONS
100
AcDbLine
 10
5.046062992125985
 20
9.947637795275591
 30
0.0
 11
5.733070866141731
 21
9.947637795275591
 31
0.0
  0
LINE
  5
149
330
17
100
AcDbEntity
  8
DIMENSIONS
100
AcDbLine
 10
5.646456692913385
 20
9.908267716535434
 30
0.0
 11
5.7251968503937
 21
9.987007874015749
 31
0.0
  0
LINE
  5
14A
330
17
100
AcDbEntity
  8
DIMENSIONS
100
AcDbLine
 10
5.046062992125985
 20
5.93503937007874
 30
0.0
 11
5.733070866141731
 21
5.93503937007874
 31
0.0
  0
LINE
  5
14B
330
17
100
AcDbEntity
  8
DIMENSIONS
100
AcDbLine
 10
5.646456692913385
 20
5.895669291338582
 30
0.0
 11
5.7251968503937
 21
5.974409448818897
 31
0.0
  0
LINE
  5
14C
330
17
100
AcDbEntity
  8
DIMENSIONS
100
AcDbLine
 10
5.046062992125985
 20
5.1803149606299215
 30
0.0
 11
5.733070866141731
 21
5.1803149606299215
 31
0.0
  0
LINE
  5
14D
330
17
100
AcDbEntity
  8
DIMENSIONS
100
AcDbLine
 10
5.646456692913385
 20
5.140944881889764
 30
0.0
 11
5.7251968503937
 21
5.219685039370079
 31
0.0
  0
LINE
  5
14E
330
17
100
AcDbEntity
  8
DIMENSIONS
100
AcDbLine
 10
5.046062992125985
 20
3.031496062992126
 30
0.0
 11
5.733070866141731
 21
3.031496062992126
 31
0.0
  0
LINE
  5
14F
330
17
100
AcDbEntity
  8
DIMENSIONS
100
AcDbLine
 10
5.646456692913385
 20
2.9921259842519685
 30
0.0
 11
5.7251968503937
 21
3.0708661417322833
 31
0.0
  0
LINE
  5
150
330
17
100
AcDbEntity
  8
DIMENSIONS
100
AcDbLine
 10
5.046062992125985
 20
2.2767716535433076
 30
0.0
 11
5.733070866141731
 21
2.2767716535433076
 31
0.0
  0
LINE
  5
151
330
17
100
AcDbEntity
  8
DIMENSIONS
100
AcDbLine
 10
5.646456692913385
 20
2.23740157480315
 30
0.0
 11
5.7251968503937
 21
2.316141732283465
 31
0.0
  0
TEXT
  5
152
330
17
100
AcDbEntity
  8
TEXT
100
AcDbText
 10
5.654330708661417
 20
10.111811023622048
 30
0.0
 40
0.048188976377952754
  1
100
 50
90.0
 72
1
 11
5.654330708661417
 21
10.111811023622048
 31
0.0
100
AcDbText
  0
TEXT
  5
153
330
17
100
AcDbEntity
  8
TEXT
100
AcDbText
 10
5.654330708661417
 20
7.941338582677164
 30
0.0
 40
0.048188976377952754
  1
1223
 50
90.0
 72
1
 11
5.654330708661417
 21
7.941338582677164
 31
0.0
100
AcDbText
  0
TEXT
  5
154
330
17
100
AcDbEntity
  8
TEXT
100
AcDbText
 10
5.654330708661417
 20
5.5578740157480295
 30
0.0
 40
0.048188976377952754
  1
230
 50
90.0
 72
1
 11
5.654330708661417
 21
5.5578740157480295
 31
0.0
100
AcDbText
  0
TEXT
  5
155
330
17
100
AcDbEntity
  8
TEXT
100
AcDbText
 10
5.654330708661417
 20
4.105905511811022
 30
0.0
 40
0.048188976377952754
  1
655
 50
90.0
 72
1
 11
5.654330708661417
 21
4.105905511811022
 31
0.0
100
AcDbText
  0
TEXT
  5
156
330
17
100
AcDbEntity
  8
TEXT
100
AcDbText
 10
5.654330708661417
 20
2.6543307086614156
 30
0.0
 40
0.048188976377952754
  1
230
 50
90.0
 72
1
 11
5.654330708661417
 21
2.6543307086614156
 31
0.0
100
AcDbText
  0
LINE
  5
157
330
17
100
AcDbEntity
  8
DIMENSIONS
100
AcDbLine
 10
5.961417322834645
 20
10.334645669291339
 30
0.0
 11
5.961417322834645
 21
2.2177165354330715
 31
0.0
  0
LINE
  5
158
330
17
100
AcDbEntity
  8
DIMENSIONS
100
AcDbLine
 10
5.046062992125985
 20
10.275590551181102
 30
0.0
 11
6.008661417322833
 21
10.275590551181102
 31
0.0
  0
LINE
  5
159
330
17
100
AcDbEntity
  8
DIMENSIONS
100
AcDbLine
 10
5.922047244094488
 20
10.236220472440944
 30
0.0
 11
6.000787401574803
 21
10.31496062992126
 31
0.0
  0
LINE
  5
15A
330
17
100
AcDbEntity
  8
DIMENSIONS
100
AcDbLine
 10
5.046062992125985
 20
2.2767716535433076
 30
0.0
 11
6.008661417322833
 21
2.2767716535433076
 31
0.0
  0
LINE
  5
15B
330
17
100
AcDbEntity
  8
DIMENSIONS
100
AcDbLine
 10
5.922047244094488
 20
2.23740157480315
 30
0.0
 11
6.000787401574803
 21
2.316141732283465
 31
0.0
  0
TEXT
  5
15C
330
17
100
AcDbEntity
  8
TEXT
100
AcDbText
 10
5.92992125984252
 20
6.276377952755904
 30
0.0
 40
0.048188976377952754
  1
2438 LEAF · 8 FT
 50
90.0
 72
1
 11
5.92992125984252
 21
6.276377952755904
 31
0.0
100
AcDbText
  0
LINE
  5
15D
330
17
100
AcDbEntity
  8
DIMENSIONS
100
AcDbLine
 10
1.171259842519685
 20
5.616929133858267
 30
0.0
 11
1.171259842519685
 21
2.2177165354330715
 31
0.0
  0
LINE
  5
15E
330
17
100
AcDbEntity
  8
DIMENSIONS
100
AcDbLine
 10
2.3948818897637794
 20
5.557874015748031
 30
0.0
 11
1.218503937007874
 21
5.557874015748031
 31
0.0
  0
LINE
  5
15F
330
17
100
AcDbEntity
  8
DIMENSIONS
100
AcDbLine
 10
1.1318897637795275
 20
5.518503937007873
 30
0.0
 11
1.2106299212598426
 21
5.597244094488189
 31
0.0
  0
LINE
  5
160
330
17
100
AcDbEntity
  8
DIMENSIONS
100
AcDbLine
 10
2.3948818897637794
 20
2.2767716535433076
 30
0.0
 11
1.218503937007874
 21
2.2767716535433076
 31
0.0
  0
LINE
  5
161
330
17
100
AcDbEntity
  8
DIMENSIONS
100
AcDbLine
 10
1.1318897637795275
 20
2.23740157480315
 30
0.0
 11
1.2106299212598426
 21
2.316141732283465
 31
0.0
  0
TEXT
  5
162
330
17
100
AcDbEntity
  8
TEXT
100
AcDbText
 10
1.1397637795275586
 20
3.9173228346456694
 30
0.0
 40
0.048188976377952754
  1
1000 KNOB C/L
 50
90.0
 72
1
 11
1.1397637795275586
 21
3.9173228346456694
 31
0.0
100
AcDbText
  0
CIRCLE
  5
163
330
17
100
AcDbEntity
  8
GEOMETRY
100
AcDbCircle
 10
4.803149606299213
 20
7.322834645669292
 30
0.0
 40
2.0
  0
TEXT
  5
164
330
17
100
AcDbEntity
  8
TEXT
100
AcDbText
 10
4.803149606299213
 20
7.293307086614173
 30
0.0
 40
0.05669291338582677
  1
1
 72
1
 11
4.803149606299213
 21
7.293307086614173
 31
0.0
100
AcDbText
  0
CIRCLE
  5
165
330
17
100
AcDbEntity
  8
GEOMETRY
100
AcDbCircle
 10
4.217716535433071
 20
10.111417322834646
 30
0.0
 40
2.0
  0
TEXT
  5
166
330
17
100
AcDbEntity
  8
TEXT
100
AcDbText
 10
4.217716535433071
 20
10.081889763779527
 30
0.0
 40
0.05669291338582677
  1
2
 72
1
 11
4.217716535433071
 21
10.081889763779527
 31
0.0
100
AcDbText
  0
CIRCLE
  5
167
330
17
100
AcDbEntity
  8
GEOMETRY
100
AcDbCircle
 10
4.217716535433071
 20
7.979133858267717
 30
0.0
 40
2.0
  0
TEXT
  5
168
330
17
100
AcDbEntity
  8
TEXT
100
AcDbText
 10
4.217716535433071
 20
7.949606299212599
 30
0.0
 40
0.05669291338582677
  1
3
 72
1
 11
4.217716535433071
 21
7.949606299212599
 31
0.0
100
AcDbText
  0
CIRCLE
  5
169
330
17
100
AcDbEntity
  8
GEOMETRY
100
AcDbCircle
 10
4.217716535433071
 20
5.557874015748031
 30
0.0
 40
2.0
  0
TEXT
  5
16A
330
17
100
AcDbEntity
  8
TEXT
100
AcDbText
 10
4.217716535433071
 20
5.528346456692913
 30
0.0
 40
0.05669291338582677
  1
4
 72
1
 11
4.217716535433071
 21
5.528346456692913
 31
0.0
100
AcDbText
  0
CIRCLE
  5
16B
330
17
100
AcDbEntity
  8
GEOMETRY
100
AcDbCircle
 10
4.217716535433071
 20
4.105905511811023
 30
0.0
 40
2.0
  0
TEXT
  5
16C
330
17
100
AcDbEntity
  8
TEXT
100
AcDbText
 10
4.217716535433071
 20
4.076377952755905
 30
0.0
 40
0.05669291338582677
  1
5
 72
1
 11
4.217716535433071
 21
4.076377952755905
 31
0.0
100
AcDbText
  0
CIRCLE
  5
16D
330
17
100
AcDbEntity
  8
GEOMETRY
100
AcDbCircle
 10
4.217716535433071
 20
2.654330708661417
 30
0.0
 40
2.0
  0
TEXT
  5
16E
330
17
100
AcDbEntity
  8
TEXT
100
AcDbText
 10
4.217716535433071
 20
2.624803149606299
 30
0.0
 40
0.05669291338582677
  1
6
 72
1
 11
4.217716535433071
 21
2.624803149606299
 31
0.0
100
AcDbText
  0
CIRCLE
  5
16F
330
17
100
AcDbEntity
  8
GEOMETRY
100
AcDbCircle
 10
3.4874015748031493
 20
4.862204724409449
 30
0.0
 40
2.0
  0
TEXT
  5
170
330
17
100
AcDbEntity
  8
TEXT
100
AcDbText
 10
3.4874015748031493
 20
4.832677165354331
 30
0.0
 40
0.05669291338582677
  1
9
 72
1
 11
3.4874015748031493
 21
4.832677165354331
 31
0.0
100
AcDbText
  0
CIRCLE
  5
171
330
17
100
AcDbEntity
  8
GEOMETRY
100
AcDbCircle
 10
1.8456692913385828
 20
7.322834645669292
 30
0.0
 40
2.0
  0
TEXT
  5
172
330
17
100
AcDbEntity
  8
TEXT
100
AcDbText
 10
1.8456692913385828
 20
7.293307086614173
 30
0.0
 40
0.05669291338582677
  1
10
 72
1
 11
1.8456692913385828
 21
7.293307086614173
 31
0.0
100
AcDbText
  0
LINE
  5
173
330
17
100
AcDbEntity
  8
GEOMETRY
100
AcDbLine
 10
2.3948818897637794
 20
5.557874015748031
 30
0.0
 11
1.6043307086614174
 21
6.109055118110236
 31
0.0
  0
CIRCLE
  5
174
330
17
100
AcDbEntity
  8
GEOMETRY
100
AcDbCircle
 10
1.5255905511811023
 20
6.109055118110236
 30
0.0
 40
2.0
  0
TEXT
  5
175
330
17
100
AcDbEntity
  8
TEXT
100
AcDbText
 10
1.5255905511811023
 20
6.079527559055117
 30
0.0
 40
0.05669291338582677
  1
7
 72
1
 11
1.5255905511811023
 21
6.079527559055117
 31
0.0
100
AcDbText
  0
LINE
  5
176
330
17
100
AcDbEntity
  8
GEOMETRY
100
AcDbLine
 10
2.106299212598425
 20
5.518503937007873
 30
0.0
 11
1.6043307086614174
 21
5.0854330708661415
 31
0.0
  0
CIRCLE
  5
177
330
17
100
AcDbEntity
  8
GEOMETRY
100
AcDbCircle
 10
1.5255905511811023
 20
5.0854330708661415
 30
0.0
 40
2.0
  0
TEXT
  5
178
330
17
100
AcDbEntity
  8
TEXT
100
AcDbText
 10
1.5255905511811023
 20
5.055905511811023
 30
0.0
 40
0.05669291338582677
  1
8
 72
1
 11
1.5255905511811023
 21
5.055905511811023
 31
0.0
100
AcDbText
  0
LWPOLYLINE
  5
179
330
17
100
AcDbEntity
  8
GEOMETRY
100
AcDbPolyline
 90
2
 70
0
 10
7.913385826771654
 20
9.960629921259843
 10
7.913385826771654
 20
9.435695538057743
  0
LWPOLYLINE
  5
17A
330
17
100
AcDbEntity
  8
GEOMETRY
100
AcDbPolyline
 90
2
 70
0
 10
11.286089238845143
 20
9.960629921259843
 10
11.286089238845143
 20
9.435695538057743
  0
LWPOLYLINE
  5
17B
330
17
100
AcDbEntity
  8
GEOMETRY
100
AcDbPolyline
 90
3
 70
0
 10
7.913385826771654
 20
9.435695538057743
 10
11.286089238845143
 20
9.435695538057743
 10
11.286089238845143
 20
7.139107611548557
  0
LWPOLYLINE
  5
17C
330
17
100
AcDbEntity
  8
GEOMETRY
100
AcDbPolyline
 90
2
 70
0
 10
7.913385826771654
 20
7.139107611548557
 10
7.913385826771654
 20
9.435695538057743
  0
LWPOLYLINE
  5
17D
330
17
100
AcDbEntity
  8
GEOMETRY
100
AcDbPolyline
 90
3
 70
0
 10
8.175853018372703
 20
9.173228346456693
 10
11.023622047244094
 20
9.173228346456693
 10
11.023622047244094
 20
7.139107611548557
  0
LWPOLYLINE
  5
17E
330
17
100
AcDbEntity
  8
GEOMETRY
100
AcDbPolyline
 90
2
 70
0
 10
8.175853018372703
 20
7.139107611548557
 10
8.175853018372703
 20
9.173228346456693
  0
LWPOLYLINE
  5
17F
330
17
100
AcDbEntity
  8
GEOMETRY
100
AcDbPolyline
 90
2
 70
0
 10
7.913385826771654
 20
9.435695538057743
 10
8.175853018372703
 20
9.173228346456693
  0
LWPOLYLINE
  5
180
330
17
100
AcDbEntity
  8
GEOMETRY
100
AcDbPolyline
 90
2
 70
0
 10
11.286089238845143
 20
9.435695538057743
 10
11.023622047244094
 20
9.173228346456693
  0
LWPOLYLINE
  5
181
330
17
100
AcDbEntity
  8
GEOMETRY
100
AcDbPolyline
 90
47
 70
0
 10
8.517060367454068
 20
7.139107611548557
 10
8.517060367454068
 20
8.044619422572179
 10
8.561689574508344
 20
8.047551085627497
 10
8.605371103702314
 20
8.056246617121271
 10
8.647548183407332
 20
8.070556830545238
 10
8.68766404199475
 20
8.090332539391136
 10
8.724848237526851
 20
8.115186037599516
 10
8.758329785738093
 20
8.144557353369517
 10
8.787701101508095
 20
8.17803890158076
 10
8.812554599716474
 20
8.215223097112862
 10
8.832330308562373
 20
8.25533895570028
 10
8.846640521986341
 20
8.297516035405296
 10
8.855336053480116
 20
8.341197564599266
 10
8.858267716535433
 20
8.385826771653543
 10
8.9226394613271
 20
8.390837741961942
 10
8.977713869750657
 20
8.404999179790027
 10
9.065879265091862
 20
8.455544619422572
 10
9.134581077755906
 20
8.527005413385826
 10
9.195636482939632
 20
8.608923884514436
 10
9.260862655839894
 20
8.690842355643046
 10
9.342076771653543
 20
8.7623031496063
 10
9.451096005577428
 20
8.812848589238845
 10
9.519725409079722
 20
8.82701002706693
 10
9.599737532808398
 20
8.832020997375329
 10
9.679749656537073
 20
8.82701002706693
 10
9.748379060039369
 20
8.812848589238845
 10
9.857398293963254
 20
8.7623031496063
 10
9.938612409776901
 20
8.690842355643046
 10
10.003838582677165
 20
8.608923884514436
 10
10.064893987860891
 20
8.527005413385826
 10
10.133595800524933
 20
8.455544619422572
 10
10.221761195866142
 20
8.404999179790027
 10
10.276835604289698
 20
8.390837741961942
 10
10.341207349081364
 20
8.385826771653543
 10
10.34413901213668
 20
8.341197564599266
 10
10.352834543630456
 20
8.297516035405296
 10
10.367144757054422
 20
8.25533895570028
 10
10.386920465900321
 20
8.215223097112862
 10
10.4117739641087
 20
8.17803890158076
 10
10.441145279878702
 20
8.144557353369517
 10
10.474626828089944
 20
8.115186037599516
 10
10.511811023622045
 20
8.090332539391136
 10
10.551926882209463
 20
8.070556830545238
 10
10.59410396191448
 20
8.056246617121271
 10
10.63778549110845
 20
8.047551085627497
 10
10.682414698162729
 20
8.044619422572179
 10
10.682414698162729
 20
7.139107611548557
  0
LWPOLYLINE
  5
182
330
17
100
AcDbEntity
  8
GEOMETRY
100
AcDbPolyline
 90
49
 70
0
 10
8.669291338582676
 20
8.41994750656168
 10
8.668276532140451
 20
8.404498934889046
 10
8.66526654046953
 20
8.389378405552671
 10
8.66031300505354
 20
8.374778647193242
 10
8.653467567376115
 20
8.360892388451443
 10
8.644864433380906
 20
8.34802093615187
 10
8.63469743946052
 20
8.336431169463363
 10
8.623107672772013
 20
8.326264175542978
 10
8.61023622047244
 20
8.31766104154777
 10
8.596349961730642
 20
8.310815603870344
 10
8.581750203371213
 20
8.305862068454354
 10
8.566629674034838
 20
8.302852076783433
 10
8.551181102362204
 20
8.301837270341208
 10
8.53573253068957
 20
8.302852076783433
 10
8.520612001353195
 20
8.305862068454354
 10
8.506012242993766
 20
8.310815603870344
 10
8.492125984251969
 20
8.31766104154777
 10
8.479254531952394
 20
8.326264175542978
 10
8.467664765263887
 20
8.336431169463363
 10
8.457497771343503
 20
8.34802093615187
 10
8.448894637348294
 20
8.360892388451443
 10
8.442049199670867
 20
8.374778647193242
 10
8.437095664254878
 20
8.389378405552671
 10
8.434085672583956
 20
8.404498934889046
 10
8.433070866141732
 20
8.41994750656168
 10
8.434085672583956
 20
8.435396078234314
 10
8.437095664254878
 20
8.45051660757069
 10
8.442049199670867
 20
8.465116365930118
 10
8.448894637348294
 20
8.479002624671915
 10
8.457497771343503
 20
8.49187407697149
 10
8.467664765263887
 20
8.503463843659995
 10
8.479254531952394
 20
8.513630837580383
 10
8.492125984251969
 20
8.52223397157559
 10
8.506012242993766
 20
8.529079409253017
 10
8.520612001353195
 20
8.534032944669006
 10
8.53573253068957
 20
8.537042936339926
 10
8.551181102362204
 20
8.538057742782152
 10
8.566629674034838
 20
8.537042936339926
 10
8.581750203371213
 20
8.534032944669006
 10
8.596349961730642
 20
8.529079409253017
 10
8.61023622047244
 20
8.52223397157559
 10
8.623107672772013
 20
8.513630837580383
 10
8.63469743946052
 20
8.503463843659995
 10
8.644864433380906
 20
8.49187407697149
 10
8.653467567376115
 20
8.479002624671915
 10
8.66031300505354
 20
8.465116365930118
 10
8.66526654046953
 20
8.45051660757069
 10
8.668276532140451
 20
8.435396078234314
 10
8.669291338582676
 20
8.41994750656168
  0
LWPOLYLINE
  5
183
330
17
100
AcDbEntity
  8
GEOMETRY
100
AcDbPolyline
 90
49
 70
0
 10
8.598425196850393
 20
8.41994750656168
 10
8.598019274273502
 20
8.413768077892627
 10
8.596815277605135
 20
8.407719866158077
 10
8.594833863438739
 20
8.401879962814304
 10
8.592095688367769
 20
8.396325459317586
 10
8.588654434769685
 20
8.391176878397756
 10
8.584587637201532
 20
8.386540971722354
 10
8.579951730526128
 20
8.382474174154199
 10
8.574803149606298
 20
8.379032920556115
 10
8.56924864610958
 20
8.376294745485145
 10
8.563408742765807
 20
8.37431333131875
 10
8.557360531031257
 20
8.373109334650382
 10
8.551181102362204
 20
8.372703412073491
 10
8.54500167369315
 20
8.373109334650382
 10
8.5389534619586
 20
8.37431333131875
 10
8.53311355861483
 20
8.376294745485145
 10
8.52755905511811
 20
8.379032920556115
 10
8.52241047419828
 20
8.382474174154199
 10
8.517774567522878
 20
8.386540971722352
 10
8.513707769954724
 20
8.391176878397756
 10
8.51026651635664
 20
8.396325459317584
 10
8.50752834128567
 20
8.401879962814304
 10
8.505546927119275
 20
8.407719866158077
 10
8.504342930450907
 20
8.413768077892627
 10
8.503937007874015
 20
8.41994750656168
 10
8.504342930450907
 20
8.426126935230734
 10
8.505546927119275
 20
8.432175146965283
 10
8.50752834128567
 20
8.438015050309055
 10
8.51026651635664
 20
8.443569553805775
 10
8.513707769954724
 20
8.448718134725603
 10
8.517774567522878
 20
8.453354041401006
 10
8.52241047419828
 20
8.457420838969162
 10
8.52755905511811
 20
8.460862092567245
 10
8.53311355861483
 20
8.463600267638215
 10
8.5389534619586
 20
8.465581681804611
 10
8.54500167369315
 20
8.466785678472979
 10
8.551181102362204
 20
8.46719160104987
 10
8.557360531031257
 20
8.466785678472979
 10
8.563408742765807
 20
8.465581681804611
 10
8.56924864610958
 20
8.463600267638215
 10
8.574803149606298
 20
8.460862092567245
 10
8.579951730526128
 20
8.457420838969162
 10
8.584587637201532
 20
8.453354041401008
 10
8.588654434769685
 20
8.448718134725604
 10
8.592095688367769
 20
8.443569553805775
 10
8.594833863438739
 20
8.438015050309055
 10
8.596815277605135
 20
8.432175146965283
 10
8.598019274273502
 20
8.426126935230734
 10
8.598425196850393
 20
8.41994750656168
  0
LWPOLYLINE
  5
184
330
17
100
AcDbEntity
  8
GEOMETRY
100
AcDbPolyline
 90
49
 70
0
 10
10.766404199475064
 20
8.41994750656168
 10
10.765389393032839
 20
8.404498934889046
 10
10.762379401361915
 20
8.389378405552671
 10
10.757425865945928
 20
8.374778647193242
 10
10.750580428268503
 20
8.360892388451443
 10
10.741977294273294
 20
8.34802093615187
 10
10.73181030035291
 20
8.336431169463363
 10
10.720220533664403
 20
8.326264175542978
 10
10.707349081364828
 20
8.31766104154777
 10
10.69346282262303
 20
8.310815603870344
 10
10.6788630642636
 20
8.305862068454354
 10
10.663742534927225
 20
8.302852076783433
 10
10.648293963254591
 20
8.301837270341208
 10
10.632845391581958
 20
8.302852076783433
 10
10.617724862245584
 20
8.305862068454354
 10
10.603125103886153
 20
8.310815603870344
 10
10.589238845144356
 20
8.31766104154777
 10
10.576367392844782
 20
8.326264175542978
 10
10.564777626156275
 20
8.336431169463363
 10
10.55461063223589
 20
8.34802093615187
 10
10.546007498240682
 20
8.360892388451443
 10
10.539162060563257
 20
8.374778647193242
 10
10.534208525147267
 20
8.389378405552671
 10
10.531198533476346
 20
8.404498934889046
 10
10.53018372703412
 20
8.41994750656168
 10
10.531198533476346
 20
8.435396078234314
 10
10.534208525147267
 20
8.45051660757069
 10
10.539162060563257
 20
8.465116365930118
 10
10.546007498240682
 20
8.479002624671915
 10
10.55461063223589
 20
8.49187407697149
 10
10.564777626156275
 20
8.503463843659995
 10
10.576367392844782
 20
8.513630837580383
 10
10.589238845144356
 20
8.52223397157559
 10
10.603125103886153
 20
8.529079409253017
 10
10.617724862245584
 20
8.534032944669006
 10
10.632845391581958
 20
8.537042936339926
 10
10.648293963254591
 20
8.538057742782152
 10
10.663742534927225
 20
8.537042936339926
 10
10.6788630642636
 20
8.534032944669006
 10
10.69346282262303
 20
8.529079409253017
 10
10.707349081364828
 20
8.52223397157559
 10
10.720220533664403
 20
8.513630837580383
 10
10.73181030035291
 20
8.503463843659995
 10
10.741977294273294
 20
8.49187407697149
 10
10.750580428268503
 20
8.479002624671915
 10
10.757425865945928
 20
8.465116365930118
 10
10.762379401361915
 20
8.45051660757069
 10
10.765389393032839
 20
8.435396078234314
 10
10.766404199475064
 20
8.41994750656168
  0
LWPOLYLINE
  5
185
330
17
100
AcDbEntity
  8
GEOMETRY
100
AcDbPolyline
 90
49
 70
0
 10
10.69553805774278
 20
8.41994750656168
 10
10.69513213516589
 20
8.413768077892627
 10
10.69392813849752
 20
8.407719866158077
 10
10.691946724331126
 20
8.401879962814304
 10
10.689208549260155
 20
8.396325459317586
 10
10.685767295662073
 20
8.391176878397756
 10
10.68170049809392
 20
8.386540971722354
 10
10.677064591418517
 20
8.382474174154199
 10
10.671916010498688
 20
8.379032920556115
 10
10.666361507001968
 20
8.376294745485145
 10
10.660521603658195
 20
8.37431333131875
 10
10.654473391923647
 20
8.373109334650382
 10
10.648293963254591
 20
8.372703412073491
 10
10.64211453458554
 20
8.373109334650382
 10
10.636066322850988
 20
8.37431333131875
 10
10.630226419507219
 20
8.376294745485145
 10
10.624671916010499
 20
8.379032920556115
 10
10.619523335090669
 20
8.382474174154199
 10
10.614887428415267
 20
8.386540971722352
 10
10.610820630847114
 20
8.391176878397756
 10
10.60737937724903
 20
8.396325459317584
 10
10.604641202178058
 20
8.401879962814304
 10
10.602659788011664
 20
8.407719866158077
 10
10.601455791343295
 20
8.413768077892627
 10
10.601049868766404
 20
8.41994750656168
 10
10.601455791343295
 20
8.426126935230734
 10
10.602659788011664
 20
8.432175146965283
 10
10.604641202178058
 20
8.438015050309055
 10
10.60737937724903
 20
8.443569553805775
 10
10.61082063084711
 20
8.448718134725603
 10
10.614887428415264
 20
8.453354041401006
 10
10.619523335090667
 20
8.457420838969162
 10
10.624671916010497
 20
8.460862092567245
 10
10.630226419507217
 20
8.463600267638215
 10
10.636066322850988
 20
8.465581681804611
 10
10.642114534585538
 20
8.466785678472979
 10
10.648293963254591
 20
8.46719160104987
 10
10.654473391923645
 20
8.466785678472979
 10
10.660521603658195
 20
8.465581681804611
 10
10.666361507001964
 20
8.463600267638215
 10
10.671916010498686
 20
8.460862092567245
 10
10.677064591418516
 20
8.457420838969162
 10
10.681700498093917
 20
8.453354041401008
 10
10.685767295662071
 20
8.448718134725604
 10
10.689208549260155
 20
8.443569553805775
 10
10.691946724331126
 20
8.438015050309055
 10
10.69392813849752
 20
8.432175146965283
 10
10.69513213516589
 20
8.426126935230734
 10
10.69553805774278
 20
8.41994750656168
  0
LWPOLYLINE
  5
186
330
17
100
AcDbEntity
  8
GEOMETRY
100
AcDbPolyline
 90
6
 70
0
 10
7.322834645669292
 20
7.139107611548558
 10
9.442257217847768
 20
7.139107611548558
 10
9.547244094488189
 20
7.296587926509187
 10
9.652230971128608
 20
6.981627296587927
 10
9.757217847769027
 20
7.139107611548558
 10
11.876640419947504
 20
7.139107611548558
  0
TEXT
  5
187
330
17
100
AcDbEntity
  8
TEXT
100
AcDbText
 10
6.692913385826771
 20
11.023622047244094
 30
0.0
 40
0.09637795275590551
  1
DETAIL A — PANEL HEAD
 11
6.692913385826771
 21
11.023622047244094
 31
0.0
100
AcDbText
  0
LINE
  5
188
330
17
100
AcDbEntity
  8
GEOMETRY
100
AcDbLine
 10
6.692913385826771
 20
10.96062992125984
 30
0.0
 11
9.05511811023622
 21
10.96062992125984
 31
0.0
  0
TEXT
  5
189
330
17
100
AcDbEntity
  8
TEXT
100
AcDbText
 10
6.692913385826771
 20
10.826771653543307
 30
0.0
 40
0.051023622047244095
  1
SCALE 1:3 · FOOT OF PANEL IS THE MIRROR
 11
6.692913385826771
 21
10.826771653543307
 31
0.0
100
AcDbText
  0
LINE
  5
18A
330
17
100
AcDbEntity
  8
DIMENSIONS
100
AcDbLine
 10
7.854330708661418
 20
10.078740157480315
 30
0.0
 11
11.345275590551182
 21
10.078740157480315
 31
0.0
  0
LINE
  5
18B
330
17
100
AcDbEntity
  8
DIMENSIONS
100
AcDbLine
 10
7.913385826771654
 20
9.4751968503937
 30
0.0
 11
7.913385826771654
 21
10.031496062992126
 31
0.0
  0
LINE
  5
18C
330
17
100
AcDbEntity
  8
DIMENSIONS
100
AcDbLine
 10
7.874015748031496
 20
10.039370078740157
 30
0.0
 11
7.952755905511811
 21
10.118110236220472
 31
0.0
  0
LINE
  5
18D
330
17
100
AcDbEntity
  8
DIMENSIONS
100
AcDbLine
 10
8.175984251968503
 20
9.4751968503937
 30
0.0
 11
8.175984251968503
 21
10.031496062992126
 31
0.0
  0
LINE
  5
18E
330
17
100
AcDbEntity
  8
DIMENSIONS
100
AcDbLine
 10
8.136614173228345
 20
10.039370078740157
 30
0.0
 11
8.21535433070866
 21
10.118110236220472
 31
0.0
  0
LINE
  5
18F
330
17
100
AcDbEntity
  8
DIMENSIONS
100
AcDbLine
 10
8.516929133858268
 20
9.4751968503937
 30
0.0
 11
8.516929133858268
 21
10.031496062992126
 31
0.0
  0
LINE
  5
190
330
17
100
AcDbEntity
  8
DIMENSIONS
100
AcDbLine
 10
8.47755905511811
 20
10.039370078740157
 30
0.0
 11
8.556299212598425
 21
10.118110236220472
 31
0.0
  0
LINE
  5
191
330
17
100
AcDbEntity
  8
DIMENSIONS
100
AcDbLine
 10
10.682283464566929
 20
9.4751968503937
 30
0.0
 11
10.682283464566929
 21
10.031496062992126
 31
0.0
  0
LINE
  5
192
330
17
100
AcDbEntity
  8
DIMENSIONS
100
AcDbLine
 10
10.642913385826771
 20
10.039370078740157
 30
0.0
 11
10.721653543307086
 21
10.118110236220472
 31
0.0
  0
LINE
  5
193
330
17
100
AcDbEntity
  8
DIMENSIONS
100
AcDbLine
 10
11.023622047244094
 20
9.4751968503937
 30
0.0
 11
11.023622047244094
 21
10.031496062992126
 31
0.0
  0
LINE
  5
194
330
17
100
AcDbEntity
  8
DIMENSIONS
100
AcDbLine
 10
10.984251968503937
 20
10.039370078740157
 30
0.0
 11
11.062992125984252
 21
10.118110236220472
 31
0.0
  0
LINE
  5
195
330
17
100
AcDbEntity
  8
DIMENSIONS
100
AcDbLine
 10
11.286220472440945
 20
9.4751968503937
 30
0.0
 11
11.286220472440945
 21
10.031496062992126
 31
0.0
  0
LINE
  5
196
330
17
100
AcDbEntity
  8
DIMENSIONS
100
AcDbLine
 10
11.246850393700788
 20
10.039370078740157
 30
0.0
 11
11.325590551181103
 21
10.118110236220472
 31
0.0
  0
TEXT
  5
197
330
17
100
AcDbEntity
  8
TEXT
100
AcDbText
 10
8.044488188976379
 20
10.11023622047244
 30
0.0
 40
0.04251968503937008
  1
20
 72
1
 11
8.044488188976379
 21
10.11023622047244
 31
0.0
100
AcDbText
  0
TEXT
  5
198
330
17
100
AcDbEntity
  8
TEXT
100
AcDbText
 10
8.346456692913385
 20
10.11023622047244
 30
0.0
 40
0.04251968503937008
  1
26
 72
1
 11
8.346456692913385
 21
10.11023622047244
 31
0.0
100
AcDbText
  0
TEXT
  5
199
330
17
100
AcDbEntity
  8
TEXT
100
AcDbText
 10
9.5996062992126
 20
10.11023622047244
 30
0.0
 40
0.04251968503937008
  1
165
 72
1
 11
9.5996062992126
 21
10.11023622047244
 31
0.0
100
AcDbText
  0
TEXT
  5
19A
330
17
100
AcDbEntity
  8
TEXT
100
AcDbText
 10
10.852755905511811
 20
10.11023622047244
 30
0.0
 40
0.04251968503937008
  1
26
 72
1
 11
10.852755905511811
 21
10.11023622047244
 31
0.0
100
AcDbText
  0
TEXT
  5
19B
330
17
100
AcDbEntity
  8
TEXT
100
AcDbText
 10
11.15511811023622
 20
10.11023622047244
 30
0.0
 40
0.04251968503937008
  1
20
 72
1
 11
11.15511811023622
 21
10.11023622047244
 31
0.0
100
AcDbText
  0
LINE
  5
19C
330
17
100
AcDbEntity
  8
DIMENSIONS
100
AcDbLine
 10
7.854330708661418
 20
10.31496062992126
 30
0.0
 11
11.345275590551182
 21
10.31496062992126
 31
0.0
  0
LINE
  5
19D
330
17
100
AcDbEntity
  8
DIMENSIONS
100
AcDbLine
 10
7.913385826771654
 20
10.118110236220472
 30
0.0
 11
7.913385826771654
 21
10.26771653543307
 31
0.0
  0
LINE
  5
19E
330
17
100
AcDbEntity
  8
DIMENSIONS
100
AcDbLine
 10
7.874015748031496
 20
10.275590551181102
 30
0.0
 11
7.952755905511811
 21
10.354330708661417
 31
0.0
  0
LINE
  5
19F
330
17
100
AcDbEntity
  8
DIMENSIONS
100
AcDbLine
 10
11.286220472440945
 20
10.118110236220472
 30
0.0
 11
11.286220472440945
 21
10.26771653543307
 31
0.0
  0
LINE
  5
1A0
330
17
100
AcDbEntity
  8
DIMENSIONS
100
AcDbLine
 10
11.246850393700788
 20
10.275590551181102
 30
0.0
 11
11.325590551181103
 21
10.354330708661417
 31
0.0
  0
TEXT
  5
1A1
330
17
100
AcDbEntity
  8
TEXT
100
AcDbText
 10
9.6
 20
10.346456692913387
 30
0.0
 40
0.048188976377952754
  1
257 PANEL OPENING
 72
1
 11
9.6
 21
10.346456692913387
 31
0.0
100
AcDbText
  0
LINE
  5
1A2
330
17
100
AcDbEntity
  8
DIMENSIONS
100
AcDbLine
 10
12.112992125984253
 20
9.49488188976378
 30
0.0
 11
12.112992125984253
 21
7.985433070866141
 31
0.0
  0
LINE
  5
1A3
330
17
100
AcDbEntity
  8
DIMENSIONS
100
AcDbLine
 10
11.325590551181103
 20
9.435826771653543
 30
0.0
 11
12.160236220472441
 21
9.435826771653543
 31
0.0
  0
LINE
  5
1A4
330
17
100
AcDbEntity
  8
DIMENSIONS
100
AcDbLine
 10
12.073622047244095
 20
9.396456692913386
 30
0.0
 11
12.15236220472441
 21
9.4751968503937
 31
0.0
  0
LINE
  5
1A5
330
17
100
AcDbEntity
  8
DIMENSIONS
100
AcDbLine
 10
11.325590551181103
 20
8.831889763779527
 30
0.0
 11
12.160236220472441
 21
8.831889763779527
 31
0.0
  0
LINE
  5
1A6
330
17
100
AcDbEntity
  8
DIMENSIONS
100
AcDbLine
 10
12.073622047244095
 20
8.79251968503937
 30
0.0
 11
12.15236220472441
 21
8.871259842519684
 31
0.0
  0
LINE
  5
1A7
330
17
100
AcDbEntity
  8
DIMENSIONS
100
AcDbLine
 10
11.325590551181103
 20
8.385826771653543
 30
0.0
 11
12.160236220472441
 21
8.385826771653543
 31
0.0
  0
LINE
  5
1A8
330
17
100
AcDbEntity
  8
DIMENSIONS
100
AcDbLine
 10
12.073622047244095
 20
8.346456692913385
 30
0.0
 11
12.15236220472441
 21
8.4251968503937
 31
0.0
  0
LINE
  5
1A9
330
17
100
AcDbEntity
  8
DIMENSIONS
100
AcDbLine
 10
11.325590551181103
 20
8.044488188976377
 30
0.0
 11
12.160236220472441
 21
8.044488188976377
 31
0.0
  0
LINE
  5
1AA
330
17
100
AcDbEntity
  8
DIMENSIONS
100
AcDbLine
 10
12.073622047244095
 20
8.00511811023622
 30
0.0
 11
12.15236220472441
 21
8.083858267716534
 31
0.0
  0
TEXT
  5
1AB
330
17
100
AcDbEntity
  8
TEXT
100
AcDbText
 10
12.081496062992127
 20
9.133858267716535
 30
0.0
 40
0.04251968503937008
  1
46
 50
90.0
 72
1
 11
12.081496062992127
 21
9.133858267716535
 31
0.0
100
AcDbText
  0
TEXT
  5
1AC
330
17
100
AcDbEntity
  8
TEXT
100
AcDbText
 10
12.081496062992127
 20
8.608661417322834
 30
0.0
 40
0.04251968503937008
  1
34
 50
90.0
 72
1
 11
12.081496062992127
 21
8.608661417322834
 31
0.0
100
AcDbText
  0
TEXT
  5
1AD
330
17
100
AcDbEntity
  8
TEXT
100
AcDbText
 10
12.081496062992127
 20
8.214960629921258
 30
0.0
 40
0.04251968503937008
  1
R26
 50
90.0
 72
1
 11
12.081496062992127
 21
8.214960629921258
 31
0.0
100
AcDbText
  0
LINE
  5
1AE
330
17
100
AcDbEntity
  8
GEOMETRY
100
AcDbLine
 10
8.468503937007874
 20
8.50275590551181
 30
0.0
 11
7.165354330708661
 21
9.304330708661416
 31
0.0
  0
TEXT
  5
1AF
330
17
100
AcDbEntity
  8
TEXT
100
AcDbText
 10
7.125984251968504
 20
9.296456692913386
 30
0.0
 40
0.048188976377952754
  1
ROUNDEL Ø18
 72
2
 11
7.125984251968504
 21
9.296456692913386
 31
0.0
100
AcDbText
  0
TEXT
  5
1B0
330
17
100
AcDbEntity
  8
TEXT
100
AcDbText
 10
7.125984251968504
 20
9.205905511811023
 30
0.0
 40
0.04110236220472441
  1
CARVED BOSS, 4 PER PANEL
 72
2
 11
7.125984251968504
 21
9.205905511811023
 31
0.0
100
AcDbText
  0
LINE
  5
1B1
330
17
100
AcDbEntity
  8
GEOMETRY
100
AcDbLine
 10
9.337401574803149
 20
8.79251968503937
 30
0.0
 11
7.165354330708661
 21
8.713779527559055
 31
0.0
  0
TEXT
  5
1B2
330
17
100
AcDbEntity
  8
TEXT
100
AcDbText
 10
7.125984251968504
 20
8.705905511811023
 30
0.0
 40
0.048188976377952754
  1
ROUNDED CROWN
 72
2
 11
7.125984251968504
 21
8.705905511811023
 31
0.0
100
AcDbText
  0
TEXT
  5
1B3
330
17
100
AcDbEntity
  8
TEXT
100
AcDbText
 10
7.125984251968504
 20
8.61535433070866
 30
0.0
 40
0.04110236220472441
  1
SHAPED BEAD LINE
 72
2
 11
7.125984251968504
 21
8.61535433070866
 31
0.0
100
AcDbText
  0
LINE
  5
1B4
330
17
100
AcDbEntity
  8
GEOMETRY
100
AcDbLine
 10
8.619291338582677
 20
8.146850393700788
 30
0.0
 11
7.165354330708661
 21
8.123228346456692
 31
0.0
  0
TEXT
  5
1B5
330
17
100
AcDbEntity
  8
TEXT
100
AcDbText
 10
7.125984251968504
 20
8.11535433070866
 30
0.0
 40
0.048188976377952754
  1
CONCAVE SHOULDER R26
 72
2
 11
7.125984251968504
 21
8.11535433070866
 31
0.0
100
AcDbText
  0
TEXT
  5
1B6
330
17
100
AcDbEntity
  8
TEXT
100
AcDbText
 10
7.125984251968504
 20
8.0248031496063
 30
0.0
 40
0.04110236220472441
  1
WRAPS THE ROUNDEL
 72
2
 11
7.125984251968504
 21
8.0248031496063
 31
0.0
100
AcDbText
  0
LINE
  5
1B7
330
17
100
AcDbEntity
  8
GEOMETRY
100
AcDbLine
 10
8.044488188976379
 20
7.46732283464567
 30
0.0
 11
7.165354330708661
 21
7.5984251968503935
 31
0.0
  0
TEXT
  5
1B8
330
17
100
AcDbEntity
  8
TEXT
100
AcDbText
 10
7.125984251968504
 20
7.590551181102363
 30
0.0
 40
0.048188976377952754
  1
OVOLO STICKING 20
 72
2
 11
7.125984251968504
 21
7.590551181102363
 31
0.0
100
AcDbText
  0
TEXT
  5
1B9
330
17
100
AcDbEntity
  8
TEXT
100
AcDbText
 10
7.125984251968504
 20
7.5
 30
0.0
 40
0.04110236220472441
  1
MITRED AT CORNERS
 72
2
 11
7.125984251968504
 21
7.5
 31
0.0
100
AcDbText
  0
LINE
  5
1BA
330
17
100
AcDbEntity
  8
GEOMETRY
100
AcDbLine
 10
10.255905511811024
 20
7.46732283464567
 30
0.0
 11
11.99488188976378
 21
7.335826771653543
 31
0.0
  0
TEXT
  5
1BB
330
17
100
AcDbEntity
  8
TEXT
100
AcDbText
 10
12.034251968503938
 20
7.327952755905511
 30
0.0
 40
0.048188976377952754
  1
SUNK FIELD
 11
12.034251968503938
 21
7.327952755905511
 31
0.0
100
AcDbText
  0
TEXT
  5
1BC
330
17
100
AcDbEntity
  8
TEXT
100
AcDbText
 10
12.034251968503938
 20
7.237401574803149
 30
0.0
 40
0.04110236220472441
  1
PANEL 18 THK
 11
12.034251968503938
 21
7.237401574803149
 31
0.0
100
AcDbText
  0
POLYLINE
  5
1BD
330
17
100
AcDbEntity
  8
GEOMETRY
100
AcDb2dPolyline
 66
1
 10
0.0
 20
0.0
 30
0.0
 70
0
  0
VERTEX
  5
1BE
330
1BD
100
AcDbEntity
  8
GEOMETRY
100
AcDbVertex
100
AcDb2dVertex
 10
7.559055118110236
 20
5.393700787401576
 30
0.0
 70
0
  0
VERTEX
  5
1BF
330
1BD
100
AcDbEntity
  8
GEOMETRY
100
AcDbVertex
100
AcDb2dVertex
 10
8.346456692913385
 20
5.393700787401576
 30
0.0
 70
0
  0
VERTEX
  5
1C0
330
1BD
100
AcDbEntity
  8
GEOMETRY
100
AcDbVertex
100
AcDb2dVertex
 10
8.346456692913385
 20
5.374015748031496
 30
0.0
 70
0
  0
SEQEND
  5
1C1
330
1BD
100
AcDbEntity
  8
GEOMETRY
  0
SPLINE
  5
1C2
330
17
100
AcDbEntity
  8
GEOMETRY
100
AcDbSpline
 70
0
 71
3
 72
8
 73
4
 74
0
 40
0.0
 40
0.0
 40
0.0
 40
0.0
 40
1.0
 40
1.0
 40
1.0
 40
1.0
 10
8.346456692913385
 20
5.374015748031496
 30
0.0
 10
8.47769028871391
 20
5.374015748031496
 30
0.0
 10
8.543307086614172
 20
5.336286089238845
 30
0.0
 10
8.543307086614172
 20
5.2608267716535435
 30
0.0
  0
POLYLINE
  5
1C3
330
17
100
AcDbEntity
  8
GEOMETRY
100
AcDb2dPolyline
 66
1
 10
0.0
 20
0.0
 30
0.0
 70
0
  0
VERTEX
  5
1C4
330
1C3
100
AcDbEntity
  8
GEOMETRY
100
AcDbVertex
100
AcDb2dVertex
 10
8.543307086614172
 20
5.2608267716535435
 30
0.0
 70
0
  0
VERTEX
  5
1C5
330
1C3
100
AcDbEntity
  8
GEOMETRY
100
AcDbVertex
100
AcDb2dVertex
 10
8.543307086614172
 20
5.083661417322835
 30
0.0
 70
0
  0
SEQEND
  5
1C6
330
1C3
100
AcDbEntity
  8
GEOMETRY
  0
SPLINE
  5
1C7
330
17
100
AcDbEntity
  8
GEOMETRY
100
AcDbSpline
 70
0
 71
3
 72
8
 73
4
 74
0
 40
0.0
 40
0.0
 40
0.0
 40
0.0
 40
1.0
 40
1.0
 40
1.0
 40
1.0
 10
8.543307086614172
 20
5.083661417322835
 30
0.0
 10
8.543307086614172
 20
5.008202099737534
 30
0.0
 10
8.47769028871391
 20
4.970472440944882
 30
0.0
 10
8.346456692913385
 20
4.970472440944882
 30
0.0
  0
POLYLINE
  5
1C8
330
17
100
AcDbEntity
  8
GEOMETRY
100
AcDb2dPolyline
 66
1
 10
0.0
 20
0.0
 30
0.0
 70
0
  0
VERTEX
  5
1C9
330
1C8
100
AcDbEntity
  8
GEOMETRY
100
AcDbVertex
100
AcDb2dVertex
 10
8.346456692913385
 20
4.970472440944882
 30
0.0
 70
0
  0
VERTEX
  5
1CA
330
1C8
100
AcDbEntity
  8
GEOMETRY
100
AcDbVertex
100
AcDb2dVertex
 10
8.346456692913385
 20
4.950787401574804
 30
0.0
 70
0
  0
VERTEX
  5
1CB
330
1C8
100
AcDbEntity
  8
GEOMETRY
100
AcDbVertex
100
AcDb2dVertex
 10
7.559055118110236
 20
4.950787401574804
 30
0.0
 70
0
  0
VERTEX
  5
1CC
330
1C8
100
AcDbEntity
  8
GEOMETRY
100
AcDbVertex
100
AcDb2dVertex
 10
7.559055118110236
 20
5.393700787401576
 30
0.0
 70
0
  0
SEQEND
  5
1CD
330
1C8
100
AcDbEntity
  8
GEOMETRY
  0
LWPOLYLINE
  5
1CE
330
17
100
AcDbEntity
  8
GEOMETRY
  6
DASHED
100
AcDbPolyline
 90
5
 70
0
 10
8.543307086614172
 20
5.2608267716535435
 10
8.661417322834646
 20
5.2608267716535435
 10
8.661417322834646
 20
5.083661417322835
 10
8.543307086614172
 20
5.083661417322835
 10
8.543307086614172
 20
5.2608267716535435
  0
POLYLINE
  5
1CF
330
17
100
AcDbEntity
  8
GEOMETRY
100
AcDb2dPolyline
 66
1
 10
0.0
 20
0.0
 30
0.0
 70
0
  0
VERTEX
  5
1D0
330
1CF
100
AcDbEntity
  8
GEOMETRY
100
AcDbVertex
100
AcDb2dVertex
 10
12.1751968503937
 20
5.393700787401576
 30
0.0
 70
0
  0
VERTEX
  5
1D1
330
1CF
100
AcDbEntity
  8
GEOMETRY
100
AcDbVertex
100
AcDb2dVertex
 10
11.269685039370078
 20
5.393700787401576
 30
0.0
 70
0
  0
VERTEX
  5
1D2
330
1CF
100
AcDbEntity
  8
GEOMETRY
100
AcDbVertex
100
AcDb2dVertex
 10
11.269685039370078
 20
5.374015748031496
 30
0.0
 70
0
  0
SEQEND
  5
1D3
330
1CF
100
AcDbEntity
  8
GEOMETRY
  0
SPLINE
  5
1D4
330
17
100
AcDbEntity
  8
GEOMETRY
100
AcDbSpline
 70
0
 71
3
 72
8
 73
4
 74
0
 40
0.0
 40
0.0
 40
0.0
 40
0.0
 40
1.0
 40
1.0
 40
1.0
 40
1.0
 10
11.269685039370078
 20
5.374015748031496
 30
0.0
 10
11.138451443569553
 20
5.374015748031496
 30
0.0
 10
11.07283464566929
 20
5.336286089238845
 30
0.0
 10
11.07283464566929
 20
5.2608267716535435
 30
0.0
  0
POLYLINE
  5
1D5
330
17
100
AcDbEntity
  8
GEOMETRY
100
AcDb2dPolyline
 66
1
 10
0.0
 20
0.0
 30
0.0
 70
0
  0
VERTEX
  5
1D6
330
1D5
100
AcDbEntity
  8
GEOMETRY
100
AcDbVertex
100
AcDb2dVertex
 10
11.07283464566929
 20
5.2608267716535435
 30
0.0
 70
0
  0
VERTEX
  5
1D7
330
1D5
100
AcDbEntity
  8
GEOMETRY
100
AcDbVertex
100
AcDb2dVertex
 10
11.07283464566929
 20
5.083661417322835
 30
0.0
 70
0
  0
SEQEND
  5
1D8
330
1D5
100
AcDbEntity
  8
GEOMETRY
  0
SPLINE
  5
1D9
330
17
100
AcDbEntity
  8
GEOMETRY
100
AcDbSpline
 70
0
 71
3
 72
8
 73
4
 74
0
 40
0.0
 40
0.0
 40
0.0
 40
0.0
 40
1.0
 40
1.0
 40
1.0
 40
1.0
 10
11.07283464566929
 20
5.083661417322835
 30
0.0
 10
11.07283464566929
 20
5.008202099737534
 30
0.0
 10
11.138451443569553
 20
4.970472440944882
 30
0.0
 10
11.269685039370078
 20
4.970472440944882
 30
0.0
  0
POLYLINE
  5
1DA
330
17
100
AcDbEntity
  8
GEOMETRY
100
AcDb2dPolyline
 66
1
 10
0.0
 20
0.0
 30
0.0
 70
0
  0
VERTEX
  5
1DB
330
1DA
100
AcDbEntity
  8
GEOMETRY
100
AcDbVertex
100
AcDb2dVertex
 10
11.269685039370078
 20
4.970472440944882
 30
0.0
 70
0
  0
VERTEX
  5
1DC
330
1DA
100
AcDbEntity
  8
GEOMETRY
100
AcDbVertex
100
AcDb2dVertex
 10
11.269685039370078
 20
4.950787401574804
 30
0.0
 70
0
  0
VERTEX
  5
1DD
330
1DA
100
AcDbEntity
  8
GEOMETRY
100
AcDbVertex
100
AcDb2dVertex
 10
12.057086614173228
 20
4.950787401574804
 30
0.0
 70
0
  0
VERTEX
  5
1DE
330
1DA
100
AcDbEntity
  8
GEOMETRY
100
AcDbVertex
100
AcDb2dVertex
 10
12.057086614173228
 20
5.17224409448819
 30
0.0
 70
0
  0
VERTEX
  5
1DF
330
1DA
100
AcDbEntity
  8
GEOMETRY
100
AcDbVertex
100
AcDb2dVertex
 10
12.1751968503937
 20
5.17224409448819
 30
0.0
 70
0
  0
VERTEX
  5
1E0
330
1DA
100
AcDbEntity
  8
GEOMETRY
100
AcDbVertex
100
AcDb2dVertex
 10
12.1751968503937
 20
5.393700787401576
 30
0.0
 70
0
  0
SEQEND
  5
1E1
330
1DA
100
AcDbEntity
  8
GEOMETRY
  0
LWPOLYLINE
  5
1E2
330
17
100
AcDbEntity
  8
GEOMETRY
  6
DASHED
100
AcDbPolyline
 90
5
 70
0
 10
10.954724409448819
 20
5.2608267716535435
 10
11.07283464566929
 20
5.2608267716535435
 10
11.07283464566929
 20
5.083661417322835
 10
10.954724409448819
 20
5.083661417322835
 10
10.954724409448819
 20
5.2608267716535435
  0
LWPOLYLINE
  5
1E3
330
17
100
AcDbEntity
  8
GEOMETRY
100
AcDbPolyline
 90
5
 70
0
 10
8.553149606299213
 20
5.2608267716535435
 10
11.062992125984252
 20
5.2608267716535435
 10
11.062992125984252
 20
5.083661417322835
 10
8.553149606299213
 20
5.083661417322835
 10
8.553149606299213
 20
5.2608267716535435
  0
LWPOLYLINE
  5
1E4
330
17
100
AcDbEntity
  8
GEOMETRY
100
AcDbPolyline
 90
3
 70
0
 10
8.966535433070867
 20
5.2608267716535435
 10
8.996062992125983
 20
5.236220472440945
 10
9.025590551181102
 20
5.2608267716535435
  0
LWPOLYLINE
  5
1E5
330
17
100
AcDbEntity
  8
GEOMETRY
100
AcDbPolyline
 90
3
 70
0
 10
10.590551181102363
 20
5.2608267716535435
 10
10.62007874015748
 20
5.236220472440945
 10
10.649606299212598
 20
5.2608267716535435
  0
LWPOLYLINE
  5
1E6
330
17
100
AcDbEntity
  8
GEOMETRY
100
AcDbPolyline
 90
17
 70
0
 10
12.057086614173228
 20
5.393700787401575
 10
12.844488188976378
 20
5.393700787401575
 10
12.844488188976378
 20
5.374015748031496
 10
12.930610236220472
 20
5.366941437007874
 10
12.992125984251969
 20
5.345718503937007
 10
13.029035433070867
 20
5.310346948818897
 10
13.041338582677165
 20
5.2608267716535435
 10
13.041338582677165
 20
5.083661417322834
 10
13.029035433070867
 20
5.0341412401574805
 10
12.992125984251969
 20
4.99876968503937
 10
12.930610236220472
 20
4.977546751968504
 10
12.844488188976378
 20
4.9704724409448815
 10
12.844488188976378
 20
4.950787401574803
 10
11.938976377952756
 20
4.950787401574803
 10
11.938976377952756
 20
5.172244094488189
 10
12.057086614173228
 20
5.172244094488189
 10
12.057086614173228
 20
5.393700787401575
  0
LWPOLYLINE
  5
1E7
330
17
100
AcDbEntity
  8
GEOMETRY
  6
DASHED
100
AcDbPolyline
 90
5
 70
0
 10
13.041338582677165
 20
5.2608267716535435
 10
13.159448818897637
 20
5.2608267716535435
 10
13.159448818897637
 20
5.083661417322834
 10
13.041338582677165
 20
5.083661417322834
 10
13.041338582677165
 20
5.2608267716535435
  0
LWPOLYLINE
  5
1E8
330
17
100
AcDbEntity
  8
GEOMETRY
100
AcDbPolyline
 90
2
 70
0
 10
13.051181102362204
 20
5.2608267716535435
 10
14.51771653543307
 20
5.2608267716535435
  0
LWPOLYLINE
  5
1E9
330
17
100
AcDbEntity
  8
GEOMETRY
100
AcDbPolyline
 90
3
 70
0
 10
14.51771653543307
 20
5.083661417322834
 10
13.051181102362204
 20
5.083661417322834
 10
13.051181102362204
 20
5.2608267716535435
  0
CIRCLE
  5
1EA
330
17
100
AcDbEntity
  8
GEOMETRY
100
AcDbCircle
 10
11.988188976377952
 20
5.433070866141732
 30
0.0
 40
1.25
  0
LWPOLYLINE
  5
1EB
330
17
100
AcDbEntity
  8
GEOMETRY
100
AcDbPolyline
 90
6
 70
0
 10
14.51771653543307
 20
5.511811023622048
 10
14.51771653543307
 20
5.250984251968505
 10
14.438976377952756
 20
5.201771653543307
 10
14.596456692913385
 20
5.142716535433071
 10
14.51771653543307
 20
5.093503937007875
 10
14.51771653543307
 20
4.8326771653543314
  0
TEXT
  5
1EC
330
17
100
AcDbEntity
  8
TEXT
100
AcDbText
 10
6.692913385826771
 20
6.653543307086614
 30
0.0
 40
0.09637795275590551
  1
SECTION B–B
 11
6.692913385826771
 21
6.653543307086614
 31
0.0
100
AcDbText
  0
LINE
  5
1ED
330
17
100
AcDbEntity
  8
GEOMETRY
100
AcDbLine
 10
6.692913385826771
 20
6.590551181102362
 30
0.0
 11
9.05511811023622
 21
6.590551181102362
 31
0.0
  0
TEXT
  5
1EE
330
17
100
AcDbEntity
  8
TEXT
100
AcDbText
 10
6.692913385826771
 20
6.456692913385827
 30
0.0
 40
0.051023622047244095
  1
HORIZONTAL THROUGH UPPER PANELS · SCALE 1:4
 11
6.692913385826771
 21
6.456692913385827
 31
0.0
100
AcDbText
  0
TEXT
  5
1EF
330
17
100
AcDbEntity
  8
TEXT
100
AcDbText
 10
7.559055118110236
 20
4.399606299212598
 30
0.0
 40
0.04110236220472441
  1
↑ ROOM SIDE (FACE SHOWN IN ELEVATION)
 11
7.559055118110236
 21
4.399606299212598
 31
0.0
100
AcDbText
  0
LINE
  5
1F0
330
17
100
AcDbEntity
  8
DIMENSIONS
100
AcDbLine
 10
7.322834645669292
 20
5.452755905511811
 30
0.0
 11
7.322834645669292
 21
4.891732283464567
 31
0.0
  0
LINE
  5
1F1
330
17
100
AcDbEntity
  8
DIMENSIONS
100
AcDbLine
 10
7.519685039370079
 20
5.393700787401575
 30
0.0
 11
7.37007874015748
 21
5.393700787401575
 31
0.0
  0
LINE
  5
1F2
330
17
100
AcDbEntity
  8
DIMENSIONS
100
AcDbLine
 10
7.283464566929133
 20
5.354330708661418
 30
0.0
 11
7.362204724409449
 21
5.433070866141732
 31
0.0
  0
LINE
  5
1F3
330
17
100
AcDbEntity
  8
DIMENSIONS
100
AcDbLine
 10
7.519685039370079
 20
5.260629921259842
 30
0.0
 11
7.37007874015748
 21
5.260629921259842
 31
0.0
  0
LINE
  5
1F4
330
17
100
AcDbEntity
  8
DIMENSIONS
100
AcDbLine
 10
7.283464566929133
 20
5.221259842519685
 30
0.0
 11
7.362204724409449
 21
5.3
 31
0.0
  0
LINE
  5
1F5
330
17
100
AcDbEntity
  8
DIMENSIONS
100
AcDbLine
 10
7.519685039370079
 20
5.083464566929134
 30
0.0
 11
7.37007874015748
 21
5.083464566929134
 31
0.0
  0
LINE
  5
1F6
330
17
100
AcDbEntity
  8
DIMENSIONS
100
AcDbLine
 10
7.283464566929133
 20
5.044094488188977
 30
0.0
 11
7.362204724409449
 21
5.1228346456692915
 31
0.0
  0
LINE
  5
1F7
330
17
100
AcDbEntity
  8
DIMENSIONS
100
AcDbLine
 10
7.519685039370079
 20
4.950787401574803
 30
0.0
 11
7.37007874015748
 21
4.950787401574803
 31
0.0
  0
LINE
  5
1F8
330
17
100
AcDbEntity
  8
DIMENSIONS
100
AcDbLine
 10
7.283464566929133
 20
4.911417322834645
 30
0.0
 11
7.362204724409449
 21
4.99015748031496
 31
0.0
  0
TEXT
  5
1F9
330
17
100
AcDbEntity
  8
TEXT
100
AcDbText
 10
7.291338582677165
 20
5.172047244094489
 30
0.0
 40
0.03968503937007874
  1
18
 50
90.0
 72
1
 11
7.291338582677165
 21
5.172047244094489
 31
0.0
100
AcDbText
  0
LINE
  5
1FA
330
17
100
AcDbEntity
  8
DIMENSIONS
100
AcDbLine
 10
7.086614173228346
 20
5.452755905511811
 30
0.0
 11
7.086614173228346
 21
4.891732283464567
 31
0.0
  0
LINE
  5
1FB
330
17
100
AcDbEntity
  8
DIMENSIONS
100
AcDbLine
 10
7.519685039370079
 20
5.393700787401575
 30
0.0
 11
7.133858267716535
 21
5.393700787401575
 31
0.0
  0
LINE
  5
1FC
330
17
100
AcDbEntity
  8
DIMENSIONS
100
AcDbLine
 10
7.047244094488189
 20
5.354330708661418
 30
0.0
 11
7.125984251968504
 21
5.433070866141732
 31
0.0
  0
LINE
  5
1FD
330
17
100
AcDbEntity
  8
DIMENSIONS
100
AcDbLine
 10
7.519685039370079
 20
4.950787401574803
 30
0.0
 11
7.133858267716535
 21
4.950787401574803
 31
0.0
  0
LINE
  5
1FE
330
17
100
AcDbEntity
  8
DIMENSIONS
100
AcDbLine
 10
7.047244094488189
 20
4.911417322834645
 30
0.0
 11
7.125984251968504
 21
4.99015748031496
 31
0.0
  0
TEXT
  5
1FF
330
17
100
AcDbEntity
  8
TEXT
100
AcDbText
 10
7.0551181102362195
 20
5.172047244094489
 30
0.0
 40
0.04251968503937008
  1
45
 50
90.0
 72
1
 11
7.0551181102362195
 21
5.172047244094489
 31
0.0
100
AcDbText
  0
LINE
  5
200
330
17
100
AcDbEntity
  8
DIMENSIONS
100
AcDbLine
 10
7.5
 20
4.675196850393701
 30
0.0
 11
12.116141732283465
 21
4.675196850393701
 31
0.0
  0
LINE
  5
201
330
17
100
AcDbEntity
  8
DIMENSIONS
100
AcDbLine
 10
7.559055118110236
 20
4.911417322834645
 30
0.0
 11
7.559055118110236
 21
4.627952755905512
 31
0.0
  0
LINE
  5
202
330
17
100
AcDbEntity
  8
DIMENSIONS
100
AcDbLine
 10
7.519685039370079
 20
4.6358267716535435
 30
0.0
 11
7.5984251968503935
 21
4.714566929133858
 31
0.0
  0
LINE
  5
203
330
17
100
AcDbEntity
  8
DIMENSIONS
100
AcDbLine
 10
8.543307086614172
 20
4.911417322834645
 30
0.0
 11
8.543307086614172
 21
4.627952755905512
 31
0.0
  0
LINE
  5
204
330
17
100
AcDbEntity
  8
DIMENSIONS
100
AcDbLine
 10
8.503937007874015
 20
4.6358267716535435
 30
0.0
 11
8.582677165354331
 21
4.714566929133858
 31
0.0
  0
LINE
  5
205
330
17
100
AcDbEntity
  8
DIMENSIONS
100
AcDbLine
 10
11.07283464566929
 20
4.911417322834645
 30
0.0
 11
11.07283464566929
 21
4.627952755905512
 31
0.0
  0
LINE
  5
206
330
17
100
AcDbEntity
  8
DIMENSIONS
100
AcDbLine
 10
11.033464566929133
 20
4.6358267716535435
 30
0.0
 11
11.112204724409448
 21
4.714566929133858
 31
0.0
  0
LINE
  5
207
330
17
100
AcDbEntity
  8
DIMENSIONS
100
AcDbLine
 10
12.057086614173228
 20
4.911417322834645
 30
0.0
 11
12.057086614173228
 21
4.627952755905512
 31
0.0
  0
LINE
  5
208
330
17
100
AcDbEntity
  8
DIMENSIONS
100
AcDbLine
 10
12.01771653543307
 20
4.6358267716535435
 30
0.0
 11
12.096456692913385
 21
4.714566929133858
 31
0.0
  0
TEXT
  5
209
330
17
100
AcDbEntity
  8
TEXT
100
AcDbText
 10
8.051181102362204
 20
4.706692913385827
 30
0.0
 40
0.048188976377952754
  1
100
 72
1
 11
8.051181102362204
 21
4.706692913385827
 31
0.0
100
AcDbText
  0
TEXT
  5
20A
330
17
100
AcDbEntity
  8
TEXT
100
AcDbText
 10
9.808267716535433
 20
4.706692913385827
 30
0.0
 40
0.048188976377952754
  1
257
 72
1
 11
9.808267716535433
 21
4.706692913385827
 31
0.0
100
AcDbText
  0
TEXT
  5
20B
330
17
100
AcDbEntity
  8
TEXT
100
AcDbText
 10
11.56496062992126
 20
4.706692913385827
 30
0.0
 40
0.048188976377952754
  1
100
 72
1
 11
11.56496062992126
 21
4.706692913385827
 31
0.0
100
AcDbText
  0
LINE
  5
20C
330
17
100
AcDbEntity
  8
GEOMETRY
100
AcDbLine
 10
8.484251968503937
 20
5.3641732283464565
 30
0.0
 11
8.248031496062993
 21
5.866141732283465
 31
0.0
  0
TEXT
  5
20D
330
17
100
AcDbEntity
  8
TEXT
100
AcDbText
 10
8.208661417322835
 20
5.858267716535433
 30
0.0
 40
0.048188976377952754
  1
OVOLO STICKING
 72
2
 11
8.208661417322835
 21
5.858267716535433
 31
0.0
100
AcDbText
  0
TEXT
  5
20E
330
17
100
AcDbEntity
  8
TEXT
100
AcDbText
 10
8.208661417322835
 20
5.76771653543307
 30
0.0
 40
0.04110236220472441
  1
20 × 13.5 BOTH FACES
 72
2
 11
8.208661417322835
 21
5.76771653543307
 31
0.0
100
AcDbText
  0
LINE
  5
20F
330
17
100
AcDbEntity
  8
GEOMETRY
100
AcDbLine
 10
8.582677165354331
 20
5.172047244094489
 30
0.0
 11
10.019685039370078
 21
5.590551181102362
 31
0.0
  0
TEXT
  5
210
330
17
100
AcDbEntity
  8
TEXT
100
AcDbText
 10
10.059055118110235
 20
5.5826771653543314
 30
0.0
 40
0.048188976377952754
  1
PANEL 18 IN 12 GROOVE
 11
10.059055118110235
 21
5.5826771653543314
 31
0.0
100
AcDbText
  0
TEXT
  5
211
330
17
100
AcDbEntity
  8
TEXT
100
AcDbText
 10
10.059055118110235
 20
5.4921259842519685
 30
0.0
 40
0.04110236220472441
  1
LOOSE — ALLOWS MOVEMENT
 11
10.059055118110235
 21
5.4921259842519685
 31
0.0
100
AcDbText
  0
LINE
  5
212
330
17
100
AcDbEntity
  8
GEOMETRY
100
AcDbLine
 10
8.996062992125983
 20
5.2507874015748035
 30
0.0
 11
9.291338582677165
 21
5.866141732283465
 31
0.0
  0
TEXT
  5
213
330
17
100
AcDbEntity
  8
TEXT
100
AcDbText
 10
9.330708661417322
 20
5.858267716535433
 30
0.0
 40
0.048188976377952754
  1
V-GROOVE (SHAPED BEAD)
 11
9.330708661417322
 21
5.858267716535433
 31
0.0
100
AcDbText
  0
TEXT
  5
214
330
17
100
AcDbEntity
  8
TEXT
100
AcDbText
 10
9.330708661417322
 20
5.76771653543307
 30
0.0
 40
0.04110236220472441
  1
3 WIDE × 2.5 DEEP, BOTH FACES
 11
9.330708661417322
 21
5.76771653543307
 31
0.0
100
AcDbText
  0
LINE
  5
215
330
17
100
AcDbEntity
  8
GEOMETRY
100
AcDbLine
 10
11.988188976377952
 20
5.47244094488189
 30
0.0
 11
12.253937007874015
 21
5.866141732283465
 31
0.0
  0
TEXT
  5
216
330
17
100
AcDbEntity
  8
TEXT
100
AcDbText
 10
12.293307086614172
 20
5.858267716535433
 30
0.0
 40
0.048188976377952754
  1
MEETING BEAD Ø10
 11
12.293307086614172
 21
5.858267716535433
 31
0.0
100
AcDbText
  0
TEXT
  5
217
330
17
100
AcDbEntity
  8
TEXT
100
AcDbText
 10
12.293307086614172
 20
5.76771653543307
 30
0.0
 40
0.04110236220472441
  1
12 REBATE, HALF THICKNESS
 11
12.293307086614172
 21
5.76771653543307
 31
0.0
100
AcDbText
  0
LWPOLYLINE
  5
218
330
17
100
AcDbEntity
  8
GEOMETRY
100
AcDbPolyline
 90
2
 70
0
 10
10.08530183727034
 20
3.425196850393701
 10
10.08530183727034
 20
1.1286089238845152
  0
LWPOLYLINE
  5
219
330
17
100
AcDbEntity
  8
GEOMETRY
100
AcDbPolyline
 90
2
 70
0
 10
7.086614173228346
 20
1.1286089238845152
 10
7.086614173228346
 20
3.425196850393701
  0
LWPOLYLINE
  5
21A
330
17
100
AcDbEntity
  8
GEOMETRY
100
AcDbPolyline
 90
2
 70
0
 10
7.742782152230971
 20
3.031496062992126
 10
7.742782152230971
 20
1.52230971128609
  0
LWPOLYLINE
  5
21B
330
17
100
AcDbEntity
  8
GEOMETRY
100
AcDbPolyline
 90
2
 70
0
 10
9.429133858267717
 20
3.031496062992126
 10
9.429133858267717
 20
1.52230971128609
  0
LWPOLYLINE
  5
21C
330
17
100
AcDbEntity
  8
GEOMETRY
100
AcDbPolyline
 90
4
 70
0
 10
9.429133858267717
 20
3.425196850393701
 10
9.429133858267717
 20
3.0314960629921273
 10
7.742782152230971
 20
3.0314960629921273
 10
7.742782152230971
 20
3.425196850393701
  0
LWPOLYLINE
  5
21D
330
17
100
AcDbEntity
  8
GEOMETRY
100
AcDbPolyline
 90
4
 70
0
 10
9.297900262467191
 20
3.425196850393701
 10
9.297900262467191
 20
3.162729658792651
 10
7.874015748031496
 20
3.162729658792651
 10
7.874015748031496
 20
3.425196850393701
  0
LWPOLYLINE
  5
21E
330
17
100
AcDbEntity
  8
GEOMETRY
100
AcDbPolyline
 90
2
 70
0
 10
7.742782152230971
 20
3.031496062992126
 10
7.874015748031496
 20
3.162729658792651
  0
LWPOLYLINE
  5
21F
330
17
100
AcDbEntity
  8
GEOMETRY
100
AcDbPolyline
 90
2
 70
0
 10
9.429133858267717
 20
3.031496062992126
 10
9.297900262467191
 20
3.162729658792651
  0
LWPOLYLINE
  5
220
330
17
100
AcDbEntity
  8
GEOMETRY
100
AcDbPolyline
 90
7
 70
0
 10
8.769214054626861
 20
3.425196850393701
 10
8.71478838582677
 20
3.368192257217848
 10
8.66027876886483
 20
3.342919537401576
 10
8.585958005249344
 20
3.333333333333334
 10
8.511637241633858
 20
3.342919537401576
 10
8.457127624671916
 20
3.368192257217848
 10
8.402701955871825
 20
3.425196850393701
  0
LWPOLYLINE
  5
221
330
17
100
AcDbEntity
  8
GEOMETRY
100
AcDbPolyline
 90
3
 70
0
 10
7.742782152230971
 20
1.52230971128609
 10
9.429133858267717
 20
1.52230971128609
 10
9.429133858267717
 20
1.1286089238845152
  0
LWPOLYLINE
  5
222
330
17
100
AcDbEntity
  8
GEOMETRY
100
AcDbPolyline
 90
2
 70
0
 10
7.742782152230971
 20
1.1286089238845152
 10
7.742782152230971
 20
1.52230971128609
  0
LWPOLYLINE
  5
223
330
17
100
AcDbEntity
  8
GEOMETRY
100
AcDbPolyline
 90
3
 70
0
 10
7.874015748031496
 20
1.3910761154855658
 10
9.297900262467191
 20
1.3910761154855658
 10
9.297900262467191
 20
1.1286089238845152
  0
LWPOLYLINE
  5
224
330
17
100
AcDbEntity
  8
GEOMETRY
100
AcDbPolyline
 90
2
 70
0
 10
7.874015748031496
 20
1.1286089238845152
 10
7.874015748031496
 20
1.3910761154855658
  0
LWPOLYLINE
  5
225
330
17
100
AcDbEntity
  8
GEOMETRY
100
AcDbPolyline
 90
2
 70
0
 10
7.742782152230971
 20
1.52230971128609
 10
7.874015748031496
 20
1.3910761154855658
  0
LWPOLYLINE
  5
226
330
17
100
AcDbEntity
  8
GEOMETRY
100
AcDbPolyline
 90
2
 70
0
 10
9.429133858267717
 20
1.52230971128609
 10
9.297900262467191
 20
1.3910761154855658
  0
LWPOLYLINE
  5
227
330
17
100
AcDbEntity
  8
GEOMETRY
100
AcDbPolyline
 90
7
 70
0
 10
8.402701955871827
 20
1.1286089238845152
 10
8.457127624671916
 20
1.1856135170603668
 10
8.511637241633858
 20
1.210886236876641
 10
8.585958005249344
 20
1.220472440944882
 10
8.66027876886483
 20
1.210886236876641
 10
8.71478838582677
 20
1.1856135170603668
 10
8.769214054626861
 20
1.1286089238845152
  0
LWPOLYLINE
  5
228
330
17
100
AcDbEntity
  8
GEOMETRY
100
AcDbPolyline
 90
49
 70
0
 10
8.12007874015748
 20
2.276902887139108
 10
8.118528341426304
 20
2.2533009026392503
 10
8.113929743040172
 20
2.2302000939309004
 10
8.10636184171019
 20
2.2078949075484404
 10
8.095903534147455
 20
2.1866797900262473
 10
8.082759857210332
 20
2.1670150712352325
 10
8.067226949831966
 20
2.1493084832389022
 10
8.049520361835635
 20
2.1337755758605357
 10
8.02985564304462
 20
2.120631898923411
 10
8.008640525522427
 20
2.110173591360677
 10
7.986335339139965
 20
2.1026056900306935
 10
7.963234530431616
 20
2.0980070916445626
 10
7.939632545931758
 20
2.0964566929133857
 10
7.9160305614319
 20
2.0980070916445626
 10
7.892929752723551
 20
2.1026056900306935
 10
7.870624566341091
 20
2.110173591360677
 10
7.849409448818897
 20
2.120631898923411
 10
7.829744730027882
 20
2.1337755758605343
 10
7.812038142031552
 20
2.149308483238901
 10
7.796505234653186
 20
2.1670150712352316
 10
7.783361557716061
 20
2.1866797900262465
 10
7.772903250153327
 20
2.207894907548439
 10
7.765335348823344
 20
2.2302000939309004
 10
7.7607367504372125
 20
2.2533009026392503
 10
7.7591863517060355
 20
2.276902887139108
 10
7.7607367504372125
 20
2.3005048716389656
 10
7.765335348823344
 20
2.3236056803473155
 10
7.772903250153327
 20
2.3459108667297754
 10
7.783361557716061
 20
2.3671259842519685
 10
7.796505234653185
 20
2.3867907030429834
 10
7.812038142031551
 20
2.4044972910393136
 10
7.8297447300278815
 20
2.42003019841768
 10
7.849409448818896
 20
2.4331738753548047
 10
7.870624566341089
 20
2.443632182917539
 10
7.892929752723551
 20
2.451200084247523
 10
7.9160305614319
 20
2.4557986826336533
 10
7.939632545931758
 20
2.45734908136483
 10
7.963234530431616
 20
2.4557986826336533
 10
7.986335339139965
 20
2.451200084247523
 10
8.008640525522425
 20
2.443632182917539
 10
8.029855643044618
 20
2.4331738753548047
 10
8.049520361835633
 20
2.4200301984176815
 10
8.067226949831964
 20
2.404497291039315
 10
8.08275985721033
 20
2.3867907030429847
 10
8.095903534147455
 20
2.3671259842519694
 10
8.10636184171019
 20
2.345910866729777
 10
8.113929743040172
 20
2.3236056803473155
 10
8.118528341426304
 20
2.3005048716389656
 10
8.12007874015748
 20
2.276902887139108
  0
LWPOLYLINE
  5
229
330
17
100
AcDbEntity
  8
GEOMETRY
100
AcDbPolyline
 90
49
 70
0
 10
8.054461942257216
 20
2.276902887139108
 10
8.053475324882832
 20
2.2618834424573806
 10
8.050548944091657
 20
2.2471829278247943
 10
8.045733006881669
 20
2.232988718308683
 10
8.039077720250837
 20
2.219488188976379
 10
8.03071356219994
 20
2.2069742770184604
 10
8.020828984777344
 20
2.195706448293523
 10
8.009561156052406
 20
2.1858218708709263
 10
7.997047244094488
 20
2.177457712820029
 10
7.983546714762184
 20
2.170802426189198
 10
7.969352505246071
 20
2.1659864889792084
 10
7.954651990613486
 20
2.1630601081880343
 10
7.939632545931758
 20
2.162073490813649
 10
7.9246131012500305
 20
2.1630601081880343
 10
7.909912586617445
 20
2.1659864889792084
 10
7.895718377101333
 20
2.170802426189198
 10
7.882217847769029
 20
2.177457712820029
 10
7.869703935811111
 20
2.1858218708709263
 10
7.858436107086173
 20
2.1957064482935222
 10
7.848551529663577
 20
2.2069742770184595
 10
7.8401873716126795
 20
2.219488188976378
 10
7.833532084981848
 20
2.232988718308682
 10
7.828716147771859
 20
2.2471829278247943
 10
7.825789766980685
 20
2.2618834424573806
 10
7.824803149606299
 20
2.276902887139108
 10
7.825789766980685
 20
2.2919223318208353
 10
7.828716147771859
 20
2.3066228464534215
 10
7.833532084981848
 20
2.320817055969533
 10
7.8401873716126795
 20
2.3343175853018368
 10
7.848551529663577
 20
2.3468314972597555
 10
7.858436107086172
 20
2.3580993259846927
 10
7.86970393581111
 20
2.3679839034072896
 10
7.882217847769028
 20
2.3763480614581867
 10
7.895718377101332
 20
2.383003348089018
 10
7.909912586617445
 20
2.3878192852990074
 10
7.9246131012500305
 20
2.3907456660901816
 10
7.939632545931758
 20
2.3917322834645667
 10
7.954651990613486
 20
2.3907456660901816
 10
7.969352505246071
 20
2.3878192852990074
 10
7.983546714762183
 20
2.383003348089018
 10
7.997047244094487
 20
2.3763480614581867
 10
8.009561156052406
 20
2.3679839034072896
 10
8.020828984777342
 20
2.3580993259846936
 10
8.03071356219994
 20
2.3468314972597564
 10
8.039077720250837
 20
2.334317585301838
 10
8.045733006881669
 20
2.320817055969534
 10
8.050548944091657
 20
2.3066228464534215
 10
8.053475324882832
 20
2.2919223318208353
 10
8.054461942257216
 20
2.276902887139108
  0
LWPOLYLINE
  5
22A
330
17
100
AcDbEntity
  8
GEOMETRY
100
AcDbPolyline
 90
49
 70
0
 10
7.473753280839896
 20
2.276902887139108
 10
7.472794852533349
 20
2.262312569448287
 10
7.469952082621924
 20
2.248032069519489
 10
7.465273743617934
 20
2.234243408846695
 10
7.458808608033698
 20
2.2211286089238853
 10
7.450683425927112
 20
2.2089722373076217
 10
7.441081265002304
 20
2.1980263465462535
 10
7.430135374240936
 20
2.1884241856214457
 10
7.417979002624673
 20
2.1802990035148597
 10
7.404864202701863
 20
2.1738338679306235
 10
7.391075542029069
 20
2.1691555289266344
 10
7.37679504210027
 20
2.1663127590152076
 10
7.362204724409449
 20
2.1653543307086616
 10
7.347614406718628
 20
2.1663127590152076
 10
7.3333339067898295
 20
2.169155528926633
 10
7.319545246117036
 20
2.1738338679306226
 10
7.306430446194226
 20
2.180299003514859
 10
7.294274074577961
 20
2.1884241856214444
 10
7.283328183816594
 20
2.198026346546252
 10
7.273726022891785
 20
2.2089722373076204
 10
7.2656008407852
 20
2.221128608923884
 10
7.259135705200963
 20
2.234243408846694
 10
7.2544573661969745
 20
2.2480320695194878
 10
7.251614596285548
 20
2.262312569448286
 10
7.2506561679790025
 20
2.276902887139108
 10
7.251614596285548
 20
2.291493204829929
 10
7.2544573661969745
 20
2.305773704758727
 10
7.259135705200963
 20
2.319562365431521
 10
7.2656008407852
 20
2.3326771653543306
 10
7.273726022891785
 20
2.344833536970594
 10
7.283328183816593
 20
2.3557794277319624
 10
7.294274074577961
 20
2.36538158865677
 10
7.306430446194224
 20
2.373506770763356
 10
7.319545246117035
 20
2.3799719063475924
 10
7.333333906789829
 20
2.3846502453515814
 10
7.347614406718627
 20
2.3874930152630083
 10
7.362204724409449
 20
2.3884514435695543
 10
7.3767950421002695
 20
2.3874930152630083
 10
7.391075542029068
 20
2.3846502453515828
 10
7.404864202701861
 20
2.3799719063475933
 10
7.417979002624671
 20
2.373506770763357
 10
7.430135374240936
 20
2.3653815886567715
 10
7.441081265002303
 20
2.3557794277319637
 10
7.450683425927112
 20
2.3448335369705955
 10
7.458808608033698
 20
2.332677165354332
 10
7.465273743617934
 20
2.319562365431522
 10
7.469952082621924
 20
2.305773704758728
 10
7.472794852533349
 20
2.29149320482993
 10
7.473753280839896
 20
2.276902887139108
  0
LWPOLYLINE
  5
22B
330
17
100
AcDbEntity
  8
GEOMETRY
100
AcDbPolyline
 90
44
 70
0
 10
7.34251968503937
 20
2.283464566929134
 10
7.340010819142512
 20
2.285997325735633
 10
7.337832651711501
 20
2.288803493486571
 10
7.336007187640507
 20
2.291850897583409
 10
7.334556431823696
 20
2.2951073654276084
 10
7.3335087390176
 20
2.298514947421394
 10
7.3328808405487855
 20
2.302011336175063
 10
7.3326773061664605
 20
2.305557822402179
 10
7.332902705619838
 20
2.309115696816311
 10
7.333555276475456
 20
2.3126204687830323
 10
7.334620937638138
 20
2.3160091790229718
 10
7.336085780864519
 20
2.3192454152822783
 10
7.337935897911234
 20
2.3222927653070986
 10
7.3401398113540415
 20
2.3250949146244855
 10
7.342655841076998
 20
2.3276026197979696
 10
7.345454774799189
 20
2.329790075128415
 10
7.3485074002397015
 20
2.331631474916688
 10
7.3517597083442165
 20
2.3330915321942034
 10
7.355151931659851
 20
2.334145957052021
 10
7.358646220307847
 20
2.33478543938047
 10
7.362204724409449
 20
2.335000669069879
 10
7.36576322851105
 20
2.334785439380469
 10
7.369257517159047
 20
2.334145957052021
 10
7.372649740474682
 20
2.333091532194202
 10
7.375902048579197
 20
2.3316314749166867
 10
7.378954674019709
 20
2.329790075128414
 10
7.381753607741901
 20
2.3276026197979687
 10
7.384269637464857
 20
2.3250949146244846
 10
7.386473550907664
 20
2.3222927653070973
 10
7.38832366795438
 20
2.319245415282277
 10
7.389788511180759
 20
2.3160091790229718
 10
7.390854172343441
 20
2.3126204687830323
 10
7.391506743199059
 20
2.309115696816311
 10
7.391732142652437
 20
2.305557822402179
 10
7.391528608270112
 20
2.3020113361750623
 10
7.390900709801297
 20
2.2985149474213933
 10
7.389853016995202
 20
2.2951073654276075
 10
7.38840226117839
 20
2.291850897583408
 10
7.386576797107396
 20
2.288803493486571
 10
7.384398629676385
 20
2.285997325735633
 10
7.381889763779528
 20
2.283464566929134
 10
7.391732283464567
 20
2.211286089238846
 10
7.332677165354331
 20
2.211286089238846
 10
7.34251968503937
 20
2.283464566929134
  0
TEXT
  5
22C
330
17
100
AcDbEntity
  8
TEXT
100
AcDbText
 10
6.692913385826771
 20
3.858267716535433
 30
0.0
 40
0.09637795275590551
  1
DETAIL C — LOCK RAIL
 11
6.692913385826771
 21
3.858267716535433
 31
0.0
100
AcDbText
  0
LINE
  5
22D
330
17
100
AcDbEntity
  8
GEOMETRY
100
AcDbLine
 10
6.692913385826771
 20
3.7952755905511815
 30
0.0
 11
9.05511811023622
 21
3.7952755905511815
 31
0.0
  0
TEXT
  5
22E
330
17
100
AcDbEntity
  8
TEXT
100
AcDbText
 10
6.692913385826771
 20
3.661417322834646
 30
0.0
 40
0.051023622047244095
  1
SCALE 1:6 · ACTIVE LEAF
 11
6.692913385826771
 21
3.661417322834646
 31
0.0
100
AcDbText
  0
LINE
  5
22F
330
17
100
AcDbEntity
  8
DIMENSIONS
100
AcDbLine
 10
7.02755905511811
 20
0.9318897637795281
 30
0.0
 11
7.998818897637794
 21
0.9318897637795281
 31
0.0
  0
LINE
  5
230
330
17
100
AcDbEntity
  8
DIMENSIONS
100
AcDbLine
 10
7.086614173228346
 20
2.2767716535433076
 30
0.0
 11
7.086614173228346
 21
0.8846456692913397
 31
0.0
  0
LINE
  5
231
330
17
100
AcDbEntity
  8
DIMENSIONS
100
AcDbLine
 10
7.047244094488189
 20
0.8925196850393707
 30
0.0
 11
7.125984251968504
 21
0.9712598425196857
 31
0.0
  0
LINE
  5
232
330
17
100
AcDbEntity
  8
DIMENSIONS
100
AcDbLine
 10
7.362204724409449
 20
2.2767716535433076
 30
0.0
 11
7.362204724409449
 21
0.8846456692913397
 31
0.0
  0
LINE
  5
233
330
17
100
AcDbEntity
  8
DIMENSIONS
100
AcDbLine
 10
7.322834645669292
 20
0.8925196850393707
 30
0.0
 11
7.4015748031496065
 21
0.9712598425196857
 31
0.0
  0
LINE
  5
234
330
17
100
AcDbEntity
  8
DIMENSIONS
100
AcDbLine
 10
7.939763779527558
 20
2.2767716535433076
 30
0.0
 11
7.939763779527558
 21
0.8846456692913397
 31
0.0
  0
LINE
  5
235
330
17
100
AcDbEntity
  8
DIMENSIONS
100
AcDbLine
 10
7.900393700787401
 20
0.8925196850393707
 30
0.0
 11
7.979133858267716
 21
0.9712598425196857
 31
0.0
  0
TEXT
  5
236
330
17
100
AcDbEntity
  8
TEXT
100
AcDbText
 10
7.224409448818897
 20
0.9633858267716546
 30
0.0
 40
0.048188976377952754
  1
42
 72
1
 11
7.224409448818897
 21
0.9633858267716546
 31
0.0
100
AcDbText
  0
TEXT
  5
237
330
17
100
AcDbEntity
  8
TEXT
100
AcDbText
 10
7.650787401574804
 20
0.9633858267716546
 30
0.0
 40
0.048188976377952754
  1
88
 72
1
 11
7.650787401574804
 21
0.9633858267716546
 31
0.0
100
AcDbText
  0
LINE
  5
238
330
17
100
AcDbEntity
  8
DIMENSIONS
100
AcDbLine
 10
10.321653543307088
 20
3.090551181102362
 30
0.0
 11
10.321653543307088
 21
1.4633858267716542
 31
0.0
  0
LINE
  5
239
330
17
100
AcDbEntity
  8
DIMENSIONS
100
AcDbLine
 10
10.124803149606299
 20
3.031496062992126
 30
0.0
 11
10.368897637795275
 21
3.031496062992126
 31
0.0
  0
LINE
  5
23A
330
17
100
AcDbEntity
  8
DIMENSIONS
100
AcDbLine
 10
10.28228346456693
 20
2.9921259842519685
 30
0.0
 11
10.361023622047245
 21
3.0708661417322833
 31
0.0
  0
LINE
  5
23B
330
17
100
AcDbEntity
  8
DIMENSIONS
100
AcDbLine
 10
10.124803149606299
 20
2.2767716535433076
 30
0.0
 11
10.368897637795275
 21
2.2767716535433076
 31
0.0
  0
LINE
  5
23C
330
17
100
AcDbEntity
  8
DIMENSIONS
100
AcDbLine
 10
10.28228346456693
 20
2.23740157480315
 30
0.0
 11
10.361023622047245
 21
2.316141732283465
 31
0.0
  0
LINE
  5
23D
330
17
100
AcDbEntity
  8
DIMENSIONS
100
AcDbLine
 10
10.124803149606299
 20
1.5224409448818903
 30
0.0
 11
10.368897637795275
 21
1.5224409448818903
 31
0.0
  0
LINE
  5
23E
330
17
100
AcDbEntity
  8
DIMENSIONS
100
AcDbLine
 10
10.28228346456693
 20
1.483070866141733
 30
0.0
 11
10.361023622047245
 21
1.561811023622048
 31
0.0
  0
TEXT
  5
23F
330
17
100
AcDbEntity
  8
TEXT
100
AcDbText
 10
10.29015748031496
 20
2.6543307086614156
 30
0.0
 40
0.048188976377952754
  1
115
 50
90.0
 72
1
 11
10.29015748031496
 21
2.6543307086614156
 31
0.0
100
AcDbText
  0
TEXT
  5
240
330
17
100
AcDbEntity
  8
TEXT
100
AcDbText
 10
10.29015748031496
 20
1.8996062992125984
 30
0.0
 40
0.048188976377952754
  1
115
 50
90.0
 72
1
 11
10.29015748031496
 21
1.8996062992125984
 31
0.0
100
AcDbText
  0
LINE
  5
241
330
17
100
AcDbEntity
  8
GEOMETRY
100
AcDbLine
 10
8.093700787401575
 20
2.39488188976378
 30
0.0
 11
10.557874015748032
 21
2.6704724409448826
 31
0.0
  0
TEXT
  5
242
330
17
100
AcDbEntity
  8
TEXT
100
AcDbText
 10
10.59724409448819
 20
2.66259842519685
 30
0.0
 40
0.048188976377952754
  1
KNOB Ø55
 11
10.59724409448819
 21
2.66259842519685
 31
0.0
100
AcDbText
  0
TEXT
  5
243
330
17
100
AcDbEntity
  8
TEXT
100
AcDbText
 10
10.59724409448819
 20
2.5720472440944886
 30
0.0
 40
0.04110236220472441
  1
EBONISED / BRASS — TBC
 11
10.59724409448819
 21
2.5720472440944886
 31
0.0
100
AcDbText
  0
LINE
  5
244
330
17
100
AcDbEntity
  8
GEOMETRY
100
AcDbLine
 10
7.362204724409449
 20
2.1850393700787403
 30
0.0
 11
10.557874015748032
 21
1.8830708661417328
 31
0.0
  0
TEXT
  5
245
330
17
100
AcDbEntity
  8
TEXT
100
AcDbText
 10
10.59724409448819
 20
1.8751968503937007
 30
0.0
 40
0.048188976377952754
  1
ESCUTCHEON Ø34
 11
10.59724409448819
 21
1.8751968503937007
 31
0.0
100
AcDbText
  0
TEXT
  5
246
330
17
100
AcDbEntity
  8
TEXT
100
AcDbText
 10
10.59724409448819
 20
1.784645669291339
 30
0.0
 40
0.04110236220472441
  1
KEYHOLE, MORTICE LOCK
 11
10.59724409448819
 21
1.784645669291339
 31
0.0
100
AcDbText
  0
TEXT
  5
247
330
17
100
AcDbEntity
  8
TEXT
100
AcDbText
 10
13.700787401574804
 20
11.023622047244094
 30
0.0
 40
0.09637795275590551
  1
KEY
 11
13.700787401574804
 21
11.023622047244094
 31
0.0
100
AcDbText
  0
LINE
  5
248
330
17
100
AcDbEntity
  8
GEOMETRY
100
AcDbLine
 10
13.700787401574804
 20
10.96062992125984
 30
0.0
 11
16.062992125984252
 21
10.96062992125984
 31
0.0
  0
TEXT
  5
249
330
17
100
AcDbEntity
  8
TEXT
100
AcDbText
 10
13.700787401574804
 20
10.826771653543307
 30
0.0
 40
0.051023622047244095
  1
PARTS OF THE LEAF
 11
13.700787401574804
 21
10.826771653543307
 31
0.0
100
AcDbText
  0
CIRCLE
  5
24A
330
17
100
AcDbEntity
  8
GEOMETRY
100
AcDbCircle
 10
13.779527559055119
 20
10.551181102362204
 30
0.0
 40
2.0
  0
TEXT
  5
24B
330
17
100
AcDbEntity
  8
TEXT
100
AcDbText
 10
13.779527559055119
 20
10.521653543307087
 30
0.0
 40
0.05669291338582677
  1
1
 72
1
 11
13.779527559055119
 21
10.521653543307087
 31
0.0
100
AcDbText
  0
TEXT
  5
24C
330
17
100
AcDbEntity
  8
TEXT
100
AcDbText
 10
13.937007874015748
 20
10.523622047244094
 30
0.0
 40
0.051023622047244095
  1
Stile
 11
13.937007874015748
 21
10.523622047244094
 31
0.0
100
AcDbText
  0
CIRCLE
  5
24D
330
17
100
AcDbEntity
  8
GEOMETRY
100
AcDbCircle
 10
13.779527559055119
 20
10.330708661417322
 30
0.0
 40
2.0
  0
TEXT
  5
24E
330
17
100
AcDbEntity
  8
TEXT
100
AcDbText
 10
13.779527559055119
 20
10.301181102362204
 30
0.0
 40
0.05669291338582677
  1
2
 72
1
 11
13.779527559055119
 21
10.301181102362204
 31
0.0
100
AcDbText
  0
TEXT
  5
24F
330
17
100
AcDbEntity
  8
TEXT
100
AcDbText
 10
13.937007874015748
 20
10.303149606299211
 30
0.0
 40
0.051023622047244095
  1
Top rail
 11
13.937007874015748
 21
10.303149606299211
 31
0.0
100
AcDbText
  0
CIRCLE
  5
250
330
17
100
AcDbEntity
  8
GEOMETRY
100
AcDbCircle
 10
13.779527559055119
 20
10.11023622047244
 30
0.0
 40
2.0
  0
TEXT
  5
251
330
17
100
AcDbEntity
  8
TEXT
100
AcDbText
 10
13.779527559055119
 20
10.080708661417324
 30
0.0
 40
0.05669291338582677
  1
3
 72
1
 11
13.779527559055119
 21
10.080708661417324
 31
0.0
100
AcDbText
  0
TEXT
  5
252
330
17
100
AcDbEntity
  8
TEXT
100
AcDbText
 10
13.937007874015748
 20
10.082677165354331
 30
0.0
 40
0.051023622047244095
  1
Upper panel — shaped bead, 4 roundels
 11
13.937007874015748
 21
10.082677165354331
 31
0.0
100
AcDbText
  0
CIRCLE
  5
253
330
17
100
AcDbEntity
  8
GEOMETRY
100
AcDbCircle
 10
13.779527559055119
 20
9.88976377952756
 30
0.0
 40
2.0
  0
TEXT
  5
254
330
17
100
AcDbEntity
  8
TEXT
100
AcDbText
 10
13.779527559055119
 20
9.86023622047244
 30
0.0
 40
0.05669291338582677
  1
4
 72
1
 11
13.779527559055119
 21
9.86023622047244
 31
0.0
100
AcDbText
  0
TEXT
  5
255
330
17
100
AcDbEntity
  8
TEXT
100
AcDbText
 10
13.937007874015748
 20
9.862204724409448
 30
0.0
 40
0.051023622047244095
  1
Lock rail
 11
13.937007874015748
 21
9.862204724409448
 31
0.0
100
AcDbText
  0
CIRCLE
  5
256
330
17
100
AcDbEntity
  8
GEOMETRY
100
AcDbCircle
 10
13.779527559055119
 20
9.669291338582676
 30
0.0
 40
2.0
  0
TEXT
  5
257
330
17
100
AcDbEntity
  8
TEXT
100
AcDbText
 10
13.779527559055119
 20
9.63976377952756
 30
0.0
 40
0.05669291338582677
  1
5
 72
1
 11
13.779527559055119
 21
9.63976377952756
 31
0.0
100
AcDbText
  0
TEXT
  5
258
330
17
100
AcDbEntity
  8
TEXT
100
AcDbText
 10
13.937007874015748
 20
9.641732283464567
 30
0.0
 40
0.051023622047244095
  1
Lower panel — same pattern
 11
13.937007874015748
 21
9.641732283464567
 31
0.0
100
AcDbText
  0
CIRCLE
  5
259
330
17
100
AcDbEntity
  8
GEOMETRY
100
AcDbCircle
 10
13.779527559055119
 20
9.448818897637794
 30
0.0
 40
2.0
  0
TEXT
  5
25A
330
17
100
AcDbEntity
  8
TEXT
100
AcDbText
 10
13.779527559055119
 20
9.419291338582678
 30
0.0
 40
0.05669291338582677
  1
6
 72
1
 11
13.779527559055119
 21
9.419291338582678
 31
0.0
100
AcDbText
  0
TEXT
  5
25B
330
17
100
AcDbEntity
  8
TEXT
100
AcDbText
 10
13.937007874015748
 20
9.421259842519685
 30
0.0
 40
0.051023622047244095
  1
Bottom rail
 11
13.937007874015748
 21
9.421259842519685
 31
0.0
100
AcDbText
  0
CIRCLE
  5
25C
330
17
100
AcDbEntity
  8
GEOMETRY
100
AcDbCircle
 10
13.779527559055119
 20
9.228346456692913
 30
0.0
 40
2.0
  0
TEXT
  5
25D
330
17
100
AcDbEntity
  8
TEXT
100
AcDbText
 10
13.779527559055119
 20
9.198818897637796
 30
0.0
 40
0.05669291338582677
  1
7
 72
1
 11
13.779527559055119
 21
9.198818897637796
 31
0.0
100
AcDbText
  0
TEXT
  5
25E
330
17
100
AcDbEntity
  8
TEXT
100
AcDbText
 10
13.937007874015748
 20
9.200787401574802
 30
0.0
 40
0.051023622047244095
  1
Knob Ø55
 11
13.937007874015748
 21
9.200787401574802
 31
0.0
100
AcDbText
  0
CIRCLE
  5
25F
330
17
100
AcDbEntity
  8
GEOMETRY
100
AcDbCircle
 10
13.779527559055119
 20
9.007874015748031
 30
0.0
 40
2.0
  0
TEXT
  5
260
330
17
100
AcDbEntity
  8
TEXT
100
AcDbText
 10
13.779527559055119
 20
8.978346456692913
 30
0.0
 40
0.05669291338582677
  1
8
 72
1
 11
13.779527559055119
 21
8.978346456692913
 31
0.0
100
AcDbText
  0
TEXT
  5
261
330
17
100
AcDbEntity
  8
TEXT
100
AcDbText
 10
13.937007874015748
 20
8.98031496062992
 30
0.0
 40
0.051023622047244095
  1
Keyhole escutcheon
 11
13.937007874015748
 21
8.98031496062992
 31
0.0
100
AcDbText
  0
CIRCLE
  5
262
330
17
100
AcDbEntity
  8
GEOMETRY
100
AcDbCircle
 10
13.779527559055119
 20
8.787401574803148
 30
0.0
 40
2.0
  0
TEXT
  5
263
330
17
100
AcDbEntity
  8
TEXT
100
AcDbText
 10
13.779527559055119
 20
8.757874015748031
 30
0.0
 40
0.05669291338582677
  1
9
 72
1
 11
13.779527559055119
 21
8.757874015748031
 31
0.0
100
AcDbText
  0
TEXT
  5
264
330
17
100
AcDbEntity
  8
TEXT
100
AcDbText
 10
13.937007874015748
 20
8.759842519685039
 30
0.0
 40
0.051023622047244095
  1
Meeting bead (pair only)
 11
13.937007874015748
 21
8.759842519685039
 31
0.0
100
AcDbText
  0
CIRCLE
  5
265
330
17
100
AcDbEntity
  8
GEOMETRY
100
AcDbCircle
 10
13.779527559055119
 20
8.566929133858267
 30
0.0
 40
2.0
  0
TEXT
  5
266
330
17
100
AcDbEntity
  8
TEXT
100
AcDbText
 10
13.779527559055119
 20
8.53740157480315
 30
0.0
 40
0.05669291338582677
  1
10
 72
1
 11
13.779527559055119
 21
8.53740157480315
 31
0.0
100
AcDbText
  0
TEXT
  5
267
330
17
100
AcDbEntity
  8
TEXT
100
AcDbText
 10
13.937007874015748
 20
8.539370078740157
 30
0.0
 40
0.051023622047244095
  1
Architrave — to design
 11
13.937007874015748
 21
8.539370078740157
 31
0.0
100
AcDbText
  0
TEXT
  5
268
330
17
100
AcDbEntity
  8
TEXT
100
AcDbText
 10
13.700787401574804
 20
7.9921259842519685
 30
0.0
 40
0.09637795275590551
  1
NOTES
 11
13.700787401574804
 21
7.9921259842519685
 31
0.0
100
AcDbText
  0
LINE
  5
269
330
17
100
AcDbEntity
  8
GEOMETRY
100
AcDbLine
 10
13.700787401574804
 20
7.929133858267717
 30
0.0
 11
16.062992125984252
 21
7.929133858267717
 31
0.0
  0
TEXT
  5
26A
330
17
100
AcDbEntity
  8
TEXT
100
AcDbText
 10
13.700787401574804
 20
7.795275590551181
 30
0.0
 40
0.051023622047244095
  1
READ BEFORE MAKING
 11
13.700787401574804
 21
7.795275590551181
 31
0.0
100
AcDbText
  0
TEXT
  5
26B
330
17
100
AcDbEntity
  8
TEXT
100
AcDbText
 10
13.700787401574804
 20
7.559055118110236
 30
0.0
 40
0.048188976377952754
  1
Dimensions in feet and inches. Do not scale.
 11
13.700787401574804
 21
7.559055118110236
 31
0.0
100
AcDbText
  0
TEXT
  5
26C
330
17
100
AcDbEntity
  8
TEXT
100
AcDbText
 10
13.700787401574804
 20
7.393700787401575
 30
0.0
 40
0.048188976377952754
  1
Proportions taken from a film-still reference;
 11
13.700787401574804
 21
7.393700787401575
 31
0.0
100
AcDbText
  0
TEXT
  5
26D
330
17
100
AcDbEntity
  8
TEXT
100
AcDbText
 10
13.700787401574804
 20
7.228346456692913
 30
0.0
 40
0.048188976377952754
  1
leaf size, opening and thickness are ASSUMED.
 11
13.700787401574804
 21
7.228346456692913
 31
0.0
100
AcDbText
  0
TEXT
  5
26E
330
17
100
AcDbEntity
  8
TEXT
100
AcDbText
 10
13.700787401574804
 20
7.062992125984252
 30
0.0
 40
0.048188976377952754
  1
Knob height follows reference (low) — to confirm.
 11
13.700787401574804
 21
7.062992125984252
 31
0.0
100
AcDbText
  0
TEXT
  5
26F
330
17
100
AcDbEntity
  8
TEXT
100
AcDbText
 10
13.700787401574804
 20
6.89763779527559
 30
0.0
 40
0.048188976377952754
  1
D1, D2, D3 identical.
 11
13.700787401574804
 21
6.89763779527559
 31
0.0
100
AcDbText
  0
TEXT
  5
270
330
17
100
AcDbEntity
  8
TEXT
100
AcDbText
 10
13.700787401574804
 20
6.732283464566929
 30
0.0
 40
0.048188976377952754
  1
Solid teak frame. Veneer and polish per
 11
13.700787401574804
 21
6.732283464566929
 31
0.0
100
AcDbText
  0
TEXT
  5
271
330
17
100
AcDbEntity
  8
TEXT
100
AcDbText
 10
13.700787401574804
 20
6.5669291338582685
 30
0.0
 40
0.048188976377952754
  1
Materials; polish to match the teak desk.
 11
13.700787401574804
 21
6.5669291338582685
 31
0.0
100
AcDbText
  0
TEXT
  5
272
330
17
100
AcDbEntity
  8
TEXT
100
AcDbText
 10
13.700787401574804
 20
6.401574803149606
 30
0.0
 40
0.048188976377952754
  1
Architrave, hinges and lock not yet designed.
 11
13.700787401574804
 21
6.401574803149606
 31
0.0
100
AcDbText
  0
LWPOLYLINE
  5
273
330
17
100
AcDbEntity
  8
GEOMETRY
100
AcDbPolyline
 90
5
 70
0
 10
11.811023622047244
 20
2.283464566929135
 10
16.22047244094488
 20
2.283464566929135
 10
16.22047244094488
 20
0.31496062992126106
 10
11.811023622047244
 20
0.31496062992126106
 10
11.811023622047244
 20
2.283464566929135
  0
LINE
  5
274
330
17
100
AcDbEntity
  8
GEOMETRY
100
AcDbLine
 10
11.811023622047244
 20
1.7322834645669292
 30
0.0
 11
16.22047244094488
 21
1.7322834645669292
 31
0.0
  0
LINE
  5
275
330
17
100
AcDbEntity
  8
GEOMETRY
100
AcDbLine
 10
11.811023622047244
 20
1.1023622047244095
 30
0.0
 11
16.22047244094488
 21
1.1023622047244095
 31
0.0
  0
LINE
  5
276
330
17
100
AcDbEntity
  8
GEOMETRY
100
AcDbLine
 10
11.811023622047244
 20
0.7086614173228346
 30
0.0
 11
16.22047244094488
 21
0.7086614173228346
 31
0.0
  0
LINE
  5
277
330
17
100
AcDbEntity
  8
GEOMETRY
100
AcDbLine
 10
14.015748031496063
 20
1.1023622047244095
 30
0.0
 11
14.015748031496063
 21
0.31496062992125984
 31
0.0
  0
TEXT
  5
278
330
17
100
AcDbEntity
  8
TEXT
100
AcDbText
 10
11.929133858267717
 20
2.02755905511811
 30
0.0
 40
0.09637795275590551
  1
A STUDY IN TEAK
 11
11.929133858267717
 21
2.02755905511811
 31
0.0
100
AcDbText
  0
TEXT
  5
279
330
17
100
AcDbEntity
  8
TEXT
100
AcDbText
 10
11.929133858267717
 20
1.8503937007874016
 30
0.0
 40
0.05385826771653543
  1
Particulars of the room
 11
11.929133858267717
 21
1.8503937007874016
 31
0.0
100
AcDbText
  0
TEXT
  5
27A
330
17
100
AcDbEntity
  8
TEXT
100
AcDbText
 10
11.929133858267717
 20
1.4763779527559056
 30
0.0
 40
0.09637795275590551
  1
DOORS D1 – D3
 11
11.929133858267717
 21
1.4763779527559056
 31
0.0
100
AcDbText
  0
TEXT
  5
27B
330
17
100
AcDbEntity
  8
TEXT
100
AcDbText
 10
11.929133858267717
 20
1.2598425196850394
 30
0.0
 40
0.05669291338582677
  1
Elevation · Panel head · Section · Lock rail
 11
11.929133858267717
 21
1.2598425196850394
 31
0.0
100
AcDbText
  0
TEXT
  5
27C
330
17
100
AcDbEntity
  8
TEXT
100
AcDbText
 10
11.929133858267717
 20
0.9448818897637795
 30
0.0
 40
0.04251968503937008
  1
SCALE
 11
11.929133858267717
 21
0.9448818897637795
 31
0.0
100
AcDbText
  0
TEXT
  5
27D
330
17
100
AcDbEntity
  8
TEXT
100
AcDbText
 10
11.929133858267717
 20
0.7874015748031495
 30
0.0
 40
0.05952755905511811
  1
AS NOTED @ A3
 11
11.929133858267717
 21
0.7874015748031495
 31
0.0
100
AcDbText
  0
TEXT
  5
27E
330
17
100
AcDbEntity
  8
TEXT
100
AcDbText
 10
14.133858267716535
 20
0.9448818897637795
 30
0.0
 40
0.04251968503937008
  1
DATE
 11
14.133858267716535
 21
0.9448818897637795
 31
0.0
100
AcDbText
  0
TEXT
  5
27F
330
17
100
AcDbEntity
  8
TEXT
100
AcDbText
 10
14.133858267716535
 20
0.7874015748031495
 30
0.0
 40
0.05952755905511811
  1
17.09.2026
 11
14.133858267716535
 21
0.7874015748031495
 31
0.0
100
AcDbText
  0
TEXT
  5
280
330
17
100
AcDbEntity
  8
TEXT
100
AcDbText
 10
11.929133858267717
 20
0.5511811023622047
 30
0.0
 40
0.04251968503937008
  1
REV
 11
11.929133858267717
 21
0.5511811023622047
 31
0.0
100
AcDbText
  0
TEXT
  5
281
330
17
100
AcDbEntity
  8
TEXT
100
AcDbText
 10
11.929133858267717
 20
0.39370078740157477
 30
0.0
 40
0.051023622047244095
  1
1 — main door 8 ft × 3 ft
 11
11.929133858267717
 21
0.39370078740157477
 31
0.0
100
AcDbText
  0
TEXT
  5
282
330
17
100
AcDbEntity
  8
TEXT
100
AcDbText
 10
14.133858267716535
 20
0.5511811023622047
 30
0.0
 40
0.04251968503937008
  1
DWG
 11
14.133858267716535
 21
0.5511811023622047
 31
0.0
100
AcDbText
  0
TEXT
  5
283
330
17
100
AcDbEntity
  8
TEXT
100
AcDbText
 10
14.133858267716535
 20
0.39370078740157477
 30
0.0
 40
0.05952755905511811
  1
AST-DR-001
 11
14.133858267716535
 21
0.39370078740157477
 31
0.0
100
AcDbText
  0
ENDSEC
  0
SECTION
  2
OBJECTS
  0
DICTIONARY
  5
A
330
0
100
AcDbDictionary
281
1
  3
ACAD_COLOR
350
B
  3
ACAD_GROUP
350
C
  3
ACAD_LAYOUT
350
D
  3
ACAD_MATERIAL
350
E
  3
ACAD_MLEADERSTYLE
350
F
  3
ACAD_MLINESTYLE
350
10
  3
ACAD_PLOTSETTINGS
350
11
  3
ACAD_PLOTSTYLENAME
350
12
  3
ACAD_SCALELIST
350
14
  3
ACAD_TABLESTYLE
350
15
  3
ACAD_VISUALSTYLE
350
16
  3
EZDXF_META
350
2D
  0
DICTIONARY
  5
B
330
A
100
AcDbDictionary
281
1
  0
DICTIONARY
  5
C
330
A
100
AcDbDictionary
281
1
  0
DICTIONARY
  5
D
330
A
100
AcDbDictionary
281
1
  3
Model
350
1A
  3
Layout1
350
1E
  0
DICTIONARY
  5
E
330
A
100
AcDbDictionary
281
1
  3
ByBlock
350
1F
  3
ByLayer
350
20
  3
Global
350
21
  0
DICTIONARY
  5
F
330
A
100
AcDbDictionary
281
1
  3
Standard
350
2C
  0
DICTIONARY
  5
10
330
A
100
AcDbDictionary
281
1
  3
Standard
350
22
  0
DICTIONARY
  5
11
330
A
100
AcDbDictionary
281
1
  0
ACDBDICTIONARYWDFLT
  5
12
330
A
100
AcDbDictionary
281
1
  3
Normal
350
13
100
AcDbDictionaryWithDefault
340
13
  0
ACDBPLACEHOLDER
  5
13
330
12
  0
DICTIONARY
  5
14
330
A
100
AcDbDictionary
281
1
  0
DICTIONARY
  5
15
330
A
100
AcDbDictionary
281
1
  0
DICTIONARY
  5
16
330
A
100
AcDbDictionary
281
1
  3
2dWireframe
350
5A
  3
Basic
350
5B
  3
Brighten
350
5C
  3
ColorChange
350
5D
  3
Conceptual
350
5E
  3
Dim
350
5F
  3
EdgeColorOff
350
60
  3
Facepattern
350
61
  3
Flat
350
62
  3
FlatWithEdges
350
63
  3
Gouraud
350
64
  3
GouraudWithEdges
350
65
  3
Hidden
350
66
  3
JitterOff
350
67
  3
Linepattern
350
68
  3
Modeling
350
69
  3
OverhangOff
350
6A
  3
Realistic
350
6B
  3
Shaded
350
6C
  3
Shaded with edges
350
6D
  3
Shades of Gray
350
6E
  3
Sketchy
350
6F
  3
Thicken
350
70
  3
Wireframe
350
71
  3
X-Ray
350
72
  0
LAYOUT
  5
1A
330
D
100
AcDbPlotSettings
  1

  4
A3
  6

 40
7.5
 41
20.0
 42
7.5
 43
20.0
 44
420.0
 45
297.0
 46
0.0
 47
0.0
 48
0.0
 49
0.0
140
0.0
141
0.0
142
1.0
143
1.0
 70
1024
 72
1
 73
0
 74
5
  7

 75
16
 76
0
 77
2
 78
300
147
1.0
148
0.0
149
0.0
100
AcDbLayout
  1
Model
 70
1
 71
0
 10
0.0
 20
0.0
 11
420.0
 21
297.0
 12
0.0
 22
0.0
 32
0.0
 14
1e+20
 24
1e+20
 34
1e+20
 15
-1e+20
 25
-1e+20
 35
-1e+20
146
0.0
 13
0.0
 23
0.0
 33
0.0
 16
1.0
 26
0.0
 36
0.0
 17
0.0
 27
1.0
 37
0.0
 76
1
330
17
  0
LAYOUT
  5
1E
330
D
100
AcDbPlotSettings
  1

  4
A3
  6

 40
7.5
 41
20.0
 42
7.5
 43
20.0
 44
420.0
 45
297.0
 46
0.0
 47
0.0
 48
0.0
 49
0.0
140
0.0
141
0.0
142
1.0
143
1.0
 70
0
 72
1
 73
0
 74
5
  7

 75
16
 76
0
 77
2
 78
300
147
1.0
148
0.0
149
0.0
100
AcDbLayout
  1
Layout1
 70
1
 71
1
 10
0.0
 20
0.0
 11
420.0
 21
297.0
 12
0.0
 22
0.0
 32
0.0
 14
1e+20
 24
1e+20
 34
1e+20
 15
-1e+20
 25
-1e+20
 35
-1e+20
146
0.0
 13
0.0
 23
0.0
 33
0.0
 16
1.0
 26
0.0
 36
0.0
 17
0.0
 27
1.0
 37
0.0
 76
1
330
1B
  0
MATERIAL
  5
1F
102
{ACAD_REACTORS
330
E
102
}
330
E
100
AcDbMaterial
  1
ByBlock
  2

 70
0
 40
1.0
 71
1
 41
1.0
 91
-1023410177
 42
1.0
 72
1
  3

 73
1
 74
1
 75
1
 44
0.5
 73
0
 45
1.0
 46
1.0
 77
1
  4

 78
1
 79
1
170
1
 48
1.0
171
1
  6

172
1
173
1
174
1
140
1.0
141
1.0
175
1
  7

176
1
177
1
178
1
143
1.0
179
1
  8

270
1
271
1
272
1
145
1.0
146
1.0
273
1
  9

274
1
275
1
276
1
 42
1.0
 72
1
  3

 73
1
 74
1
 75
1
 94
63
  0
MATERIAL
  5
20
102
{ACAD_REACTORS
330
E
102
}
330
E
100
AcDbMaterial
  1
ByLayer
  2

 70
0
 40
1.0
 71
1
 41
1.0
 91
-1023410177
 42
1.0
 72
1
  3

 73
1
 74
1
 75
1
 44
0.5
 73
0
 45
1.0
 46
1.0
 77
1
  4

 78
1
 79
1
170
1
 48
1.0
171
1
  6

172
1
173
1
174
1
140
1.0
141
1.0
175
1
  7

176
1
177
1
178
1
143
1.0
179
1
  8

270
1
271
1
272
1
145
1.0
146
1.0
273
1
  9

274
1
275
1
276
1
 42
1.0
 72
1
  3

 73
1
 74
1
 75
1
 94
63
  0
MATERIAL
  5
21
102
{ACAD_REACTORS
330
E
102
}
330
E
100
AcDbMaterial
  1
Global
  2

 70
0
 40
1.0
 71
1
 41
1.0
 91
-1023410177
 42
1.0
 72
1
  3

 73
1
 74
1
 75
1
 44
0.5
 73
0
 45
1.0
 46
1.0
 77
1
  4

 78
1
 79
1
170
1
 48
1.0
171
1
  6

172
1
173
1
174
1
140
1.0
141
1.0
175
1
  7

176
1
177
1
178
1
143
1.0
179
1
  8

270
1
271
1
272
1
145
1.0
146
1.0
273
1
  9

274
1
275
1
276
1
 42
1.0
 72
1
  3

 73
1
 74
1
 75
1
 94
63
  0
MLINESTYLE
  5
22
102
{ACAD_REACTORS
330
10
102
}
330
10
100
AcDbMlineStyle
  2
Standard
 70
0
  3

 62
256
 51
90.0
 52
90.0
 71
2
 49
0.5
 62
256
  6
BYLAYER
 49
-0.5
 62
256
  6
BYLAYER
  0
MLEADERSTYLE
  5
2C
102
{ACAD_REACTORS
330
F
102
}
330
F
100
AcDbMLeaderStyle
179
2
170
2
171
1
172
0
 90
2
 40
0.0
 41
0.0
173
1
 91
-1056964608
 92
-2
290
1
 42
2.0
291
1
 43
8.0
  3
Standard
 44
4.0
300

342
29
174
1
175
1
176
0
178
1
 93
-1056964608
 45
4.0
292
0
297
0
 46
4.0
 94
-1056964608
 47
1.0
 49
1.0
140
1.0
294
1
141
0.0
177
0
142
1.0
295
0
296
0
143
3.75
271
0
272
9
273
9
  0
DICTIONARY
  5
2D
330
A
100
AcDbDictionary
280
1
281
1
  3
CREATED_BY_EZDXF
350
2E
  3
WRITTEN_BY_EZDXF
350
286
  0
DICTIONARYVAR
  5
2E
330
2D
100
DictionaryVariables
280
0
  1
1.4.2 @ 2026-09-18T09:44:39.582588+00:00
  0
VISUALSTYLE
  5
5A
102
{ACAD_REACTORS
330
16
102
}
330
16
100
AcDbVisualStyle
  2
2dWireframe
 70
4
 90
0
 40
0.6
 62
7
290
0
291
0
  0
VISUALSTYLE
  5
5B
102
{ACAD_REACTORS
330
16
102
}
330
16
100
AcDbVisualStyle
  2
Basic
 70
7
 90
1
 40
0.6
 62
7
290
0
291
1
  0
VISUALSTYLE
  5
5C
102
{ACAD_REACTORS
330
16
102
}
330
16
100
AcDbVisualStyle
  2
Brighten
 70
12
 90
2
 40
0.6
 62
7
290
0
291
1
  0
VISUALSTYLE
  5
5D
102
{ACAD_REACTORS
330
16
102
}
330
16
100
AcDbVisualStyle
  2
ColorChange
 70
16
 90
2
 40
0.6
 62
8
290
0
291
1
  0
VISUALSTYLE
  5
5E
102
{ACAD_REACTORS
330
16
102
}
330
16
100
AcDbVisualStyle
  2
Conceptual
 70
9
 90
3
 40
0.6
 62
7
290
0
291
0
  0
VISUALSTYLE
  5
5F
102
{ACAD_REACTORS
330
16
102
}
330
16
100
AcDbVisualStyle
  2
Dim
 70
11
 90
2
 40
0.6
 62
7
290
0
291
1
  0
VISUALSTYLE
  5
60
102
{ACAD_REACTORS
330
16
102
}
330
16
100
AcDbVisualStyle
  2
EdgeColorOff
 70
22
 90
2
 40
0.6
 62
7
290
0
291
1
  0
VISUALSTYLE
  5
61
102
{ACAD_REACTORS
330
16
102
}
330
16
100
AcDbVisualStyle
  2
Facepattern
 70
15
 90
2
 40
0.6
 62
7
290
0
291
1
  0
VISUALSTYLE
  5
62
102
{ACAD_REACTORS
330
16
102
}
330
16
100
AcDbVisualStyle
  2
Flat
 70
0
 90
2
 40
0.6
 62
7
290
0
291
1
  0
VISUALSTYLE
  5
63
102
{ACAD_REACTORS
330
16
102
}
330
16
100
AcDbVisualStyle
  2
FlatWithEdges
 70
1
 90
2
 40
0.6
 62
7
290
0
291
1
  0
VISUALSTYLE
  5
64
102
{ACAD_REACTORS
330
16
102
}
330
16
100
AcDbVisualStyle
  2
Gouraud
 70
2
 90
2
 40
0.6
 62
7
290
0
291
1
  0
VISUALSTYLE
  5
65
102
{ACAD_REACTORS
330
16
102
}
330
16
100
AcDbVisualStyle
  2
GouraudWithEdges
 70
3
 90
2
 40
0.6
 62
7
290
0
291
1
  0
VISUALSTYLE
  5
66
102
{ACAD_REACTORS
330
16
102
}
330
16
100
AcDbVisualStyle
  2
Hidden
 70
6
 90
1
 40
0.6
 62
7
290
0
291
0
  0
VISUALSTYLE
  5
67
102
{ACAD_REACTORS
330
16
102
}
330
16
100
AcDbVisualStyle
  2
JitterOff
 70
20
 90
2
 40
0.6
 62
7
290
0
291
1
  0
VISUALSTYLE
  5
68
102
{ACAD_REACTORS
330
16
102
}
330
16
100
AcDbVisualStyle
  2
Linepattern
 70
14
 90
2
 40
0.6
 62
7
290
0
291
1
  0
VISUALSTYLE
  5
69
102
{ACAD_REACTORS
330
16
102
}
330
16
100
AcDbVisualStyle
  2
Modeling
 70
10
 90
2
 40
0.6
 62
7
290
0
291
0
  0
VISUALSTYLE
  5
6A
102
{ACAD_REACTORS
330
16
102
}
330
16
100
AcDbVisualStyle
  2
OverhangOff
 70
21
 90
2
 40
0.6
 62
7
290
0
291
1
  0
VISUALSTYLE
  5
6B
102
{ACAD_REACTORS
330
16
102
}
330
16
100
AcDbVisualStyle
  2
Realistic
 70
8
 90
2
 40
0.6
 62
7
290
0
291
0
  0
VISUALSTYLE
  5
6C
102
{ACAD_REACTORS
330
16
102
}
330
16
100
AcDbVisualStyle
  2
Shaded
 70
27
 90
2
 40
0.6
 62
7
290
0
291
0
  0
VISUALSTYLE
  5
6D
102
{ACAD_REACTORS
330
16
102
}
330
16
100
AcDbVisualStyle
  2
Shaded with edges
 70
26
 90
2
 40
0.6
 62
7
290
0
291
0
  0
VISUALSTYLE
  5
6E
102
{ACAD_REACTORS
330
16
102
}
330
16
100
AcDbVisualStyle
  2
Shades of Gray
 70
23
 90
2
 40
0.6
 62
7
290
0
291
0
  0
VISUALSTYLE
  5
6F
102
{ACAD_REACTORS
330
16
102
}
330
16
100
AcDbVisualStyle
  2
Sketchy
 70
24
 90
1
 40
0.6
 62
7
290
0
291
0
  0
VISUALSTYLE
  5
70
102
{ACAD_REACTORS
330
16
102
}
330
16
100
AcDbVisualStyle
  2
Thicken
 70
13
 90
2
 40
0.6
 62
7
290
0
291
1
  0
VISUALSTYLE
  5
71
102
{ACAD_REACTORS
330
16
102
}
330
16
100
AcDbVisualStyle
  2
Wireframe
 70
5
 90
0
 40
0.6
 62
7
290
0
291
0
  0
VISUALSTYLE
  5
72
102
{ACAD_REACTORS
330
16
102
}
330
16
100
AcDbVisualStyle
  2
X-Ray
 70
25
 90
2
 40
0.5
 62
7
290
0
291
0
  0
DICTIONARYVAR
  5
286
330
2D
100
DictionaryVariables
280
0
  1
1.4.2 @ 2026-09-18T09:44:39.627056+00:00
  0
ENDSEC
  0
EOF
