  0
SECTION
  2
HEADER
  9
$ACADVER
  1
AC1024
  9
$ACADMAINTVER
 70
6
  9
$DWGCODEPAGE
  3
ANSI_1252
  9
$LASTSAVEDBY
  1
ezdxf
  9
$INSBASE
 10
0.0
 20
0.0
 30
0.0
  9
$EXTMIN
 10
1e+20
 20
1e+20
 30
1e+20
  9
$EXTMAX
 10
-1e+20
 20
-1e+20
 30
-1e+20
  9
$LIMMIN
 10
0.0
 20
0.0
  9
$LIMMAX
 10
420.0
 20
297.0
  9
$ORTHOMODE
 70
0
  9
$REGENMODE
 70
1
  9
$FILLMODE
 70
1
  9
$QTEXTMODE
 70
0
  9
$MIRRTEXT
 70
1
  9
$LTSCALE
 40
0.00984251968503937
  9
$ATTMODE
 70
1
  9
$TEXTSIZE
 40
2.5
  9
$TRACEWID
 40
1.0
  9
$TEXTSTYLE
  7
OpenSans
  9
$CLAYER
  8
0
  9
$CELTYPE
  6
ByLayer
  9
$CECOLOR
 62
256
  9
$CELTSCALE
 40
1.0
  9
$DISPSILH
 70
0
  9
$DIMSCALE
 40
1.0
  9
$DIMASZ
 40
0.175
  9
$DIMEXO
 40
0.125
  9
$DIMDLI
 40
3.75
  9
$DIMRND
 40
0.0
  9
$DIMDLE
 40
0.0
  9
$DIMEXE
 40
0.375
  9
$DIMTP
 40
0.0
  9
$DIMTM
 40
0.0
  9
$DIMTXT
 40
0.25
  9
$DIMCEN
 40
2.5
  9
$DIMTSZ
 40
0.0
  9
$DIMTOL
 70
0
  9
$DIMLIM
 70
0
  9
$DIMTIH
 70
0
  9
$DIMTOH
 70
0
  9
$DIMSE1
 70
0
  9
$DIMSE2
 70
0
  9
$DIMTAD
 70
1
  9
$DIMZIN
 70
12
  9
$DIMBLK
  1
ARCHTICK
  9
$DIMASO
 70
1
  9
$DIMSHO
 70
1
  9
$DIMPOST
  1

  9
$DIMAPOST
  1

  9
$DIMALT
 70
0
  9
$DIMALTD
 70
3
  9
$DIMALTF
 40
0.03937007874
  9
$DIMLFAC
 40
100.0
  9
$DIMTOFL
 70
1
  9
$DIMTVP
 40
0.0
  9
$DIMTIX
 70
0
  9
$DIMSOXD
 70
0
  9
$DIMSAH
 70
0
  9
$DIMBLK1
  1

  9
$DIMBLK2
  1

  9
$DIMSTYLE
  2
EZDXF
  9
$DIMCLRD
 70
0
  9
$DIMCLRE
 70
0
  9
$DIMCLRT
 70
0
  9
$DIMTFAC
 40
0.5
  9
$DIMGAP
 40
0.1
  9
$DIMJUST
 70
0
  9
$DIMSD1
 70
0
  9
$DIMSD2
 70
0
  9
$DIMTOLJ
 70
0
  9
$DIMTZIN
 70
8
  9
$DIMALTZ
 70
0
  9
$DIMALTTZ
 70
0
  9
$DIMUPT
 70
1
  9
$DIMDEC
 70
2
  9
$DIMTDEC
 70
2
  9
$DIMALTU
 70
2
  9
$DIMALTTD
 70
3
  9
$DIMTXSTY
  7
OpenSansCondensed-Light
  9
$DIMAUNIT
 70
0
  9
$DIMADEC
 70
2
  9
$DIMALTRND
 40
0.0
  9
$DIMAZIN
 70
3
  9
$DIMDSEP
 70
46
  9
$DIMATFIT
 70
3
  9
$DIMFRAC
 70
0
  9
$DIMLDRBLK
  1

  9
$DIMLUNIT
 70
2
  9
$DIMLWD
 70
-2
  9
$DIMLWE
 70
-2
  9
$DIMTMOVE
 70
2
  9
$DIMFXL
 40
1.0
  9
$DIMFXLON
 70
0
  9
$DIMJOGANG
 40
0.785398163397
  9
$DIMTFILL
 70
0
  9
$DIMTFILLCLR
 70
0
  9
$DIMARCSYM
 70
0
  9
$DIMLTYPE
  6

  9
$DIMLTEX1
  6

  9
$DIMLTEX2
  6

  9
$DIMTXTDIRECTION
 70
0
  9
$LUNITS
 70
4
  9
$LUPREC
 70
4
  9
$SKETCHINC
 40
1.0
  9
$FILLETRAD
 40
10.0
  9
$AUNITS
 70
0
  9
$AUPREC
 70
3
  9
$MENU
  1
.
  9
$ELEVATION
 40
0.0
  9
$PELEVATION
 40
0.0
  9
$THICKNESS
 40
0.0
  9
$LIMCHECK
 70
0
  9
$CHAMFERA
 40
0.0
  9
$CHAMFERB
 40
0.0
  9
$CHAMFERC
 40
0.0
  9
$CHAMFERD
 40
0.0
  9
$SKPOLY
 70
0
  9
$TDCREATE
 40
2461307.804849537
  9
$TDUCREATE
 40
2458532.153996898
  9
$TDUPDATE
 40
2461307.804849537
  9
$TDUUPDATE
 40
2458532.1544311
  9
$TDINDWG
 40
0.0
  9
$TDUSRTIMER
 40
0.0
  9
$USRTIMER
 70
1
  9
$ANGBASE
 50
0.0
  9
$ANGDIR
 70
0
  9
$PDMODE
 70
0
  9
$PDSIZE
 40
0.0
  9
$PLINEWID
 40
0.0
  9
$SPLFRAME
 70
0
  9
$SPLINETYPE
 70
6
  9
$SPLINESEGS
 70
8
  9
$HANDSEED
  5
1A7
  9
$SURFTAB1
 70
6
  9
$SURFTAB2
 70
6
  9
$SURFTYPE
 70
6
  9
$SURFU
 70
6
  9
$SURFV
 70
6
  9
$UCSBASE
  2

  9
$UCSNAME
  2

  9
$UCSORG
 10
0.0
 20
0.0
 30
0.0
  9
$UCSXDIR
 10
1.0
 20
0.0
 30
0.0
  9
$UCSYDIR
 10
0.0
 20
1.0
 30
0.0
  9
$UCSORTHOREF
  2

  9
$UCSORTHOVIEW
 70
0
  9
$UCSORGTOP
 10
0.0
 20
0.0
 30
0.0
  9
$UCSORGBOTTOM
 10
0.0
 20
0.0
 30
0.0
  9
$UCSORGLEFT
 10
0.0
 20
0.0
 30
0.0
  9
$UCSORGRIGHT
 10
0.0
 20
0.0
 30
0.0
  9
$UCSORGFRONT
 10
0.0
 20
0.0
 30
0.0
  9
$UCSORGBACK
 10
0.0
 20
0.0
 30
0.0
  9
$PUCSBASE
  2

  9
$PUCSNAME
  2

  9
$PUCSORG
 10
0.0
 20
0.0
 30
0.0
  9
$PUCSXDIR
 10
1.0
 20
0.0
 30
0.0
  9
$PUCSYDIR
 10
0.0
 20
1.0
 30
0.0
  9
$PUCSORTHOREF
  2

  9
$PUCSORTHOVIEW
 70
0
  9
$PUCSORGTOP
 10
0.0
 20
0.0
 30
0.0
  9
$PUCSORGBOTTOM
 10
0.0
 20
0.0
 30
0.0
  9
$PUCSORGLEFT
 10
0.0
 20
0.0
 30
0.0
  9
$PUCSORGRIGHT
 10
0.0
 20
0.0
 30
0.0
  9
$PUCSORGFRONT
 10
0.0
 20
0.0
 30
0.0
  9
$PUCSORGBACK
 10
0.0
 20
0.0
 30
0.0
  9
$USERI1
 70
0
  9
$USERI2
 70
0
  9
$USERI3
 70
0
  9
$USERI4
 70
0
  9
$USERI5
 70
0
  9
$USERR1
 40
0.0
  9
$USERR2
 40
0.0
  9
$USERR3
 40
0.0
  9
$USERR4
 40
0.0
  9
$USERR5
 40
0.0
  9
$WORLDVIEW
 70
1
  9
$SHADEDGE
 70
3
  9
$SHADEDIF
 70
70
  9
$TILEMODE
 70
1
  9
$MAXACTVP
 70
64
  9
$PINSBASE
 10
0.0
 20
0.0
 30
0.0
  9
$PLIMCHECK
 70
0
  9
$PEXTMIN
 10
1e+20
 20
1e+20
 30
1e+20
  9
$PEXTMAX
 10
-1e+20
 20
-1e+20
 30
-1e+20
  9
$PLIMMIN
 10
0.0
 20
0.0
  9
$PLIMMAX
 10
420.0
 20
297.0
  9
$UNITMODE
 70
0
  9
$VISRETAIN
 70
1
  9
$PLINEGEN
 70
0
  9
$PSLTSCALE
 70
1
  9
$TREEDEPTH
 70
3020
  9
$CMLSTYLE
  2
Standard
  9
$CMLJUST
 70
0
  9
$CMLSCALE
 40
20.0
  9
$PROXYGRAPHICS
 70
1
  9
$MEASUREMENT
 70
0
  9
$CELWEIGHT
370
-1
  9
$ENDCAPS
280
0
  9
$JOINSTYLE
280
0
  9
$LWDISPLAY
290
0
  9
$INSUNITS
 70
1
  9
$HYPERLINKBASE
  1

  9
$STYLESHEET
  1

  9
$XEDIT
290
1
  9
$CEPSNTYPE
380
0
  9
$PSTYLEMODE
290
1
  9
$FINGERPRINTGUID
  2
{26338F6F-ACF1-40BC-8F5B-E175D94F270C}
  9
$VERSIONGUID
  2
{CC65E0A1-FB72-4921-B87F-00DB4EEF9DEA}
  9
$EXTNAMES
290
1
  9
$PSVPSCALE
 40
0.0
  9
$OLESTARTUP
290
0
  9
$SORTENTS
280
127
  9
$INDEXCTL
280
0
  9
$HIDETEXT
280
1
  9
$XCLIPFRAME
280
1
  9
$HALOGAP
280
0
  9
$OBSCOLOR
 70
257
  9
$OBSLTYPE
280
0
  9
$INTERSECTIONDISPLAY
280
0
  9
$INTERSECTIONCOLOR
 70
257
  9
$DIMASSOC
280
2
  9
$PROJECTNAME
  1

  9
$CAMERADISPLAY
290
0
  9
$LENSLENGTH
 40
50.0
  9
$CAMERAHEIGHT
 40
0.0
  9
$STEPSPERSEC
 40
24.0
  9
$STEPSIZE
 40
100.0
  9
$3DDWFPREC
 40
2.0
  9
$PSOLWIDTH
 40
0.005
  9
$PSOLHEIGHT
 40
0.08
  9
$LOFTANG1
 40
1.570796326795
  9
$LOFTANG2
 40
1.570796326795
  9
$LOFTMAG1
 40
0.0
  9
$LOFTMAG2
 40
0.0
  9
$LOFTPARAM
 70
7
  9
$LOFTNORMALS
280
1
  9
$LATITUDE
 40
37.795
  9
$LONGITUDE
 40
-122.394
  9
$NORTHDIRECTION
 40
0.0
  9
$TIMEZONE
 70
-8000
  9
$LIGHTGLYPHDISPLAY
280
1
  9
$TILEMODELIGHTSYNCH
280
1
  9
$CMATERIAL
347
20
  9
$SOLIDHIST
280
0
  9
$SHOWHIST
280
1
  9
$DWFFRAME
280
2
  9
$DGNFRAME
280
2
  9
$REALWORLDSCALE
290
1
  9
$INTERFERECOLOR
 62
256
  9
$CSHADOW
280
0
  9
$SHADOWPLANELOCATION
 40
0.0
  0
ENDSEC
  0
SECTION
  2
CLASSES
  0
CLASS
  1
ACDBDICTIONARYWDFLT
  2
AcDbDictionaryWithDefault
  3
ObjectDBX Classes
 90
0
 91
0
280
0
281
0
  0
CLASS
  1
SUN
  2
AcDbSun
  3
SCENEOE
 90
1153
 91
0
280
0
281
0
  0
CLASS
  1
VISUALSTYLE
  2
AcDbVisualStyle
  3
ObjectDBX Classes
 90
4095
 91
0
280
0
281
0
  0
CLASS
  1
MATERIAL
  2
AcDbMaterial
  3
ObjectDBX Classes
 90
1153
 91
0
280
0
281
0
  0
CLASS
  1
SCALE
  2
AcDbScale
  3
ObjectDBX Classes
 90
1153
 91
0
280
0
281
0
  0
CLASS
  1
TABLESTYLE
  2
AcDbTableStyle
  3
ObjectDBX Classes
 90
4095
 91
0
280
0
281
0
  0
CLASS
  1
MLEADERSTYLE
  2
AcDbMLeaderStyle
  3
ACDB_MLEADERSTYLE_CLASS
 90
4095
 91
0
280
0
281
0
  0
CLASS
  1
DICTIONARYVAR
  2
AcDbDictionaryVar
  3
ObjectDBX Classes
 90
0
 91
0
280
0
281
0
  0
CLASS
  1
CELLSTYLEMAP
  2
AcDbCellStyleMap
  3
ObjectDBX Classes
 90
1152
 91
0
280
0
281
0
  0
CLASS
  1
MENTALRAYRENDERSETTINGS
  2
AcDbMentalRayRenderSettings
  3
SCENEOE
 90
1024
 91
0
280
0
281
0
  0
CLASS
  1
ACDBDETAILVIEWSTYLE
  2
AcDbDetailViewStyle
  3
ObjectDBX Classes
 90
1025
 91
0
280
0
281
0
  0
CLASS
  1
ACDBSECTIONVIEWSTYLE
  2
AcDbSectionViewStyle
  3
ObjectDBX Classes
 90
1025
 91
0
280
0
281
0
  0
CLASS
  1
RASTERVARIABLES
  2
AcDbRasterVariables
  3
ISM
 90
0
 91
0
280
0
281
0
  0
CLASS
  1
LAYOUT
  2
AcDbLayout
  3
ObjectDBX Classes
 90
0
 91
0
280
0
281
0
  0
CLASS
  1
ACDBPLACEHOLDER
  2
AcDbPlaceHolder
  3
ObjectDBX Classes
 90
0
 91
0
280
0
281
0
  0
ENDSEC
  0
SECTION
  2
TABLES
  0
TABLE
  2
VPORT
  5
8
330
0
100
AcDbSymbolTable
 70
1
  0
VPORT
  5
23
330
8
100
AcDbSymbolTableRecord
100
AcDbViewportTableRecord
  2
*Active
 70
0
 10
0.0
 20
0.0
 11
1.0
 21
1.0
 12
0.0
 22
0.0
 13
0.0
 23
0.0
 14
0.5
 24
0.5
 15
0.5
 25
0.5
 16
0.0
 26
0.0
 36
1.0
 17
0.0
 27
0.0
 37
0.0
 40
1000.0
 41
1.34
 42
50.0
 43
0.0
 44
0.0
 50
0.0
 51
0.0
 71
0
 72
1000
 73
1
 74
3
 75
0
 76
0
 77
0
 78
0
281
0
 65
0
146
0.0
  0
ENDTAB
  0
TABLE
  2
LTYPE
  5
2
330
0
100
AcDbSymbolTable
 70
21
  0
LTYPE
  5
24
330
2
100
AcDbSymbolTableRecord
100
AcDbLinetypeTableRecord
  2
ByBlock
 70
0
  3

 72
65
 73
0
 40
0.0
  0
LTYPE
  5
25
330
2
100
AcDbSymbolTableRecord
100
AcDbLinetypeTableRecord
  2
ByLayer
 70
0
  3

 72
65
 73
0
 40
0.0
  0
LTYPE
  5
26
330
2
100
AcDbSymbolTableRecord
100
AcDbLinetypeTableRecord
  2
Continuous
 70
0
  3

 72
65
 73
0
 40
0.0
  0
LTYPE
  5
2F
330
2
100
AcDbSymbolTableRecord
100
AcDbLinetypeTableRecord
  2
CENTER
 70
0
  3
Center ____ _ ____ _ ____ _ ____ _ ____ _ ____
 72
65
 73
4
 40
2.0
 49
1.25
 74
0
 49
-0.25
 74
0
 49
0.25
 74
0
 49
-0.25
 74
0
  0
LTYPE
  5
30
330
2
100
AcDbSymbolTableRecord
100
AcDbLinetypeTableRecord
  2
CENTERX2
 70
0
  3
Center (2x) ________  __  ________  __  ________
 72
65
 73
4
 40
3.5
 49
2.5
 74
0
 49
-0.25
 74
0
 49
0.5
 74
0
 49
-0.25
 74
0
  0
LTYPE
  5
31
330
2
100
AcDbSymbolTableRecord
100
AcDbLinetypeTableRecord
  2
CENTER2
 70
0
  3
Center (.5x) ____ _ ____ _ ____ _ ____ _ ____
 72
65
 73
4
 40
1.0
 49
0.625
 74
0
 49
-0.125
 74
0
 49
0.125
 74
0
 49
-0.125
 74
0
  0
LTYPE
  5
32
330
2
100
AcDbSymbolTableRecord
100
AcDbLinetypeTableRecord
  2
DASHED
 70
0
  3
Dashed __ __ __ __ __ __ __ __ __ __ __ __ __ _
 72
65
 73
2
 40
0.6
 49
0.5
 74
0
 49
-0.1
 74
0
  0
LTYPE
  5
33
330
2
100
AcDbSymbolTableRecord
100
AcDbLinetypeTableRecord
  2
DASHEDX2
 70
0
  3
Dashed (2x) ____  ____  ____  ____  ____  ____
 72
65
 73
2
 40
1.2
 49
1.0
 74
0
 49
-0.2
 74
0
  0
LTYPE
  5
34
330
2
100
AcDbSymbolTableRecord
100
AcDbLinetypeTableRecord
  2
DASHED2
 70
0
  3
Dashed (.5x) _ _ _ _ _ _ _ _ _ _ _ _ _ _
 72
65
 73
2
 40
0.3
 49
0.25
 74
0
 49
-0.05
 74
0
  0
LTYPE
  5
35
330
2
100
AcDbSymbolTableRecord
100
AcDbLinetypeTableRecord
  2
PHANTOM
 70
0
  3
Phantom ______  __  __  ______  __  __  ______
 72
65
 73
6
 40
2.5
 49
1.25
 74
0
 49
-0.25
 74
0
 49
0.25
 74
0
 49
-0.25
 74
0
 49
0.25
 74
0
 49
-0.25
 74
0
  0
LTYPE
  5
36
330
2
100
AcDbSymbolTableRecord
100
AcDbLinetypeTableRecord
  2
PHANTOMX2
 70
0
  3
Phantom (2x)____________    ____    ____    ____________
 72
65
 73
6
 40
4.25
 49
2.5
 74
0
 49
-0.25
 74
0
 49
0.5
 74
0
 49
-0.25
 74
0
 49
0.5
 74
0
 49
-0.25
 74
0
  0
LTYPE
  5
37
330
2
100
AcDbSymbolTableRecord
100
AcDbLinetypeTableRecord
  2
PHANTOM2
 70
0
  3
Phantom (.5x) ___ _ _ ___ _ _ ___ _ _ ___ _ _ ___
 72
65
 73
6
 40
1.25
 49
0.625
 74
0
 49
-0.125
 74
0
 49
0.125
 74
0
 49
-0.125
 74
0
 49
0.125
 74
0
 49
-0.125
 74
0
  0
LTYPE
  5
38
330
2
100
AcDbSymbolTableRecord
100
AcDbLinetypeTableRecord
  2
DASHDOT
 70
0
  3
Dash dot __ . __ . __ . __ . __ . __ . __ . __
 72
65
 73
4
 40
1.4
 49
1.0
 74
0
 49
-0.2
 74
0
 49
0.0
 74
0
 49
-0.2
 74
0
  0
LTYPE
  5
39
330
2
100
AcDbSymbolTableRecord
100
AcDbLinetypeTableRecord
  2
DASHDOTX2
 70
0
  3
Dash dot (2x) ____  .  ____  .  ____  .  ____
 72
65
 73
4
 40
2.4
 49
2.0
 74
0
 49
-0.2
 74
0
 49
0.0
 74
0
 49
-0.2
 74
0
  0
LTYPE
  5
3A
330
2
100
AcDbSymbolTableRecord
100
AcDbLinetypeTableRecord
  2
DASHDOT2
 70
0
  3
Dash dot (.5x) _ . _ . _ . _ . _ . _ . _ . _
 72
65
 73
4
 40
0.7
 49
0.5
 74
0
 49
-0.1
 74
0
 49
0.0
 74
0
 49
-0.1
 74
0
  0
LTYPE
  5
3B
330
2
100
AcDbSymbolTableRecord
100
AcDbLinetypeTableRecord
  2
DOT
 70
0
  3
Dot .  .  .  .  .  .  .  .  .  .  .  .  .  .  .  .
 72
65
 73
2
 40
0.2
 49
0.0
 74
0
 49
-0.2
 74
0
  0
LTYPE
  5
3C
330
2
100
AcDbSymbolTableRecord
100
AcDbLinetypeTableRecord
  2
DOTX2
 70
0
  3
Dot (2x) .    .    .    .    .    .    .    . 
 72
65
 73
2
 40
0.4
 49
0.0
 74
0
 49
-0.4
 74
0
  0
LTYPE
  5
3D
330
2
100
AcDbSymbolTableRecord
100
AcDbLinetypeTableRecord
  2
DOT2
 70
0
  3
Dot (.5) . . . . . . . . . . . . . . . . . . . 
 72
65
 73
2
 40
0.1
 49
0.0
 74
0
 49
-0.1
 74
0
  0
LTYPE
  5
3E
330
2
100
AcDbSymbolTableRecord
100
AcDbLinetypeTableRecord
  2
DIVIDE
 70
0
  3
Divide __ . . __ . . __ . . __ . . __ . . __
 72
65
 73
6
 40
1.6
 49
1.0
 74
0
 49
-0.2
 74
0
 49
0.0
 74
0
 49
-0.2
 74
0
 49
0.0
 74
0
 49
-0.2
 74
0
  0
LTYPE
  5
3F
330
2
100
AcDbSymbolTableRecord
100
AcDbLinetypeTableRecord
  2
DIVIDEX2
 70
0
  3
Divide (2x) ____  . .  ____  . .  ____  . .  ____
 72
65
 73
6
 40
2.6
 49
2.0
 74
0
 49
-0.2
 74
0
 49
0.0
 74
0
 49
-0.2
 74
0
 49
0.0
 74
0
 49
-0.2
 74
0
  0
LTYPE
  5
40
330
2
100
AcDbSymbolTableRecord
100
AcDbLinetypeTableRecord
  2
DIVIDE2
 70
0
  3
Divide(.5x) _ . _ . _ . _ . _ . _ . _ . _
 72
65
 73
6
 40
0.8
 49
0.5
 74
0
 49
-0.1
 74
0
 49
0.0
 74
0
 49
-0.1
 74
0
 49
0.0
 74
0
 49
-0.1
 74
0
  0
ENDTAB
  0
TABLE
  2
LAYER
  5
1
330
0
100
AcDbSymbolTable
 70
6
  0
LAYER
  5
27
330
1
100
AcDbSymbolTableRecord
100
AcDbLayerTableRecord
  2
0
 70
0
 62
7
  6
Continuous
370
-3
390
13
347
21
  0
LAYER
  5
28
330
1
100
AcDbSymbolTableRecord
100
AcDbLayerTableRecord
  2
Defpoints
 70
0
 62
7
  6
Continuous
290
0
370
-3
390
13
347
21
  0
LAYER
  5
8A
330
1
100
AcDbSymbolTableRecord
100
AcDbLayerTableRecord
  2
GEOMETRY
 70
0
 62
7
  6
Continuous
370
-3
390
13
347
21
  0
LAYER
  5
8B
330
1
100
AcDbSymbolTableRecord
100
AcDbLayerTableRecord
  2
DIMENSIONS
 70
0
 62
1
  6
Continuous
370
-3
390
13
347
21
  0
LAYER
  5
8C
330
1
100
AcDbSymbolTableRecord
100
AcDbLayerTableRecord
  2
TEXT
 70
0
 62
7
  6
Continuous
370
-3
390
13
347
21
  0
LAYER
  5
8D
330
1
100
AcDbSymbolTableRecord
100
AcDbLayerTableRecord
  2
HATCH
 70
0
 62
8
  6
Continuous
370
-3
390
13
347
21
  0
ENDTAB
  0
TABLE
  2
STYLE
  5
5
330
0
100
AcDbSymbolTable
 70
26
  0
STYLE
  5
29
330
5
100
AcDbSymbolTableRecord
100
AcDbTextStyleTableRecord
  2
Standard
 70
0
 40
0.0
 41
1.0
 50
0.0
 71
0
 42
2.5
  3
txt
  4

  0
STYLE
  5
41
330
5
100
AcDbSymbolTableRecord
100
AcDbTextStyleTableRecord
  2
OpenSans-Light
 70
0
 40
0.0
 41
1.0
 50
0.0
 71
0
 42
2.5
  3
OpenSans-Light.ttf
  4

  0
STYLE
  5
42
330
5
100
AcDbSymbolTableRecord
100
AcDbTextStyleTableRecord
  2
OpenSans-Light-Italic
 70
0
 40
0.0
 41
1.0
 50
0.0
 71
0
 42
2.5
  3
OpenSans-LightItalic.ttf
  4

  0
STYLE
  5
43
330
5
100
AcDbSymbolTableRecord
100
AcDbTextStyleTableRecord
  2
OpenSans
 70
0
 40
0.0
 41
1.0
 50
0.0
 71
0
 42
2.5
  3
OpenSans-Regular.ttf
  4

  0
STYLE
  5
44
330
5
100
AcDbSymbolTableRecord
100
AcDbTextStyleTableRecord
  2
OpenSans-Italic
 70
0
 40
0.0
 41
1.0
 50
0.0
 71
0
 42
2.5
  3
OpenSans-Italic.ttf
  4

  0
STYLE
  5
45
330
5
100
AcDbSymbolTableRecord
100
AcDbTextStyleTableRecord
  2
OpenSans-SemiBold
 70
0
 40
0.0
 41
1.0
 50
0.0
 71
0
 42
2.5
  3
OpenSans-SemiBold.ttf
  4

  0
STYLE
  5
46
330
5
100
AcDbSymbolTableRecord
100
AcDbTextStyleTableRecord
  2
OpenSans-SemiBoldItalic
 70
0
 40
0.0
 41
1.0
 50
0.0
 71
0
 42
2.5
  3
OpenSans-SemiBoldItalic.ttf
  4

  0
STYLE
  5
47
330
5
100
AcDbSymbolTableRecord
100
AcDbTextStyleTableRecord
  2
OpenSans-Bold
 70
0
 40
0.0
 41
1.0
 50
0.0
 71
0
 42
2.5
  3
OpenSans-Bold.ttf
  4

  0
STYLE
  5
48
330
5
100
AcDbSymbolTableRecord
100
AcDbTextStyleTableRecord
  2
OpenSans-BoldItalic
 70
0
 40
0.0
 41
1.0
 50
0.0
 71
0
 42
2.5
  3
OpenSans-BoldItalic.ttf
  4

  0
STYLE
  5
49
330
5
100
AcDbSymbolTableRecord
100
AcDbTextStyleTableRecord
  2
OpenSans-ExtraBold
 70
0
 40
0.0
 41
1.0
 50
0.0
 71
0
 42
2.5
  3
OpenSans-ExtraBold.ttf
  4

  0
STYLE
  5
4A
330
5
100
AcDbSymbolTableRecord
100
AcDbTextStyleTableRecord
  2
OpenSans-ExtraBoldItalic
 70
0
 40
0.0
 41
1.0
 50
0.0
 71
0
 42
2.5
  3
OpenSans-ExtraBoldItalic.ttf
  4

  0
STYLE
  5
4B
330
5
100
AcDbSymbolTableRecord
100
AcDbTextStyleTableRecord
  2
OpenSansCondensed-Bold
 70
0
 40
0.0
 41
1.0
 50
0.0
 71
0
 42
2.5
  3
OpenSansCondensed-Bold.ttf
  4

  0
STYLE
  5
4C
330
5
100
AcDbSymbolTableRecord
100
AcDbTextStyleTableRecord
  2
OpenSansCondensed-Light
 70
0
 40
0.0
 41
1.0
 50
0.0
 71
0
 42
2.5
  3
OpenSansCondensed-Light.ttf
  4

  0
STYLE
  5
4D
330
5
100
AcDbSymbolTableRecord
100
AcDbTextStyleTableRecord
  2
OpenSansCondensed-Italic
 70
0
 40
0.0
 41
1.0
 50
0.0
 71
0
 42
2.5
  3
OpenSansCondensed-LightItalic.ttf
  4

  0
STYLE
  5
4E
330
5
100
AcDbSymbolTableRecord
100
AcDbTextStyleTableRecord
  2
LiberationSans
 70
0
 40
0.0
 41
1.0
 50
0.0
 71
0
 42
2.5
  3
LiberationSans-Regular.ttf
  4

  0
STYLE
  5
4F
330
5
100
AcDbSymbolTableRecord
100
AcDbTextStyleTableRecord
  2
LiberationSans-Bold
 70
0
 40
0.0
 41
1.0
 50
0.0
 71
0
 42
2.5
  3
LiberationSans-Bold.ttf
  4

  0
STYLE
  5
50
330
5
100
AcDbSymbolTableRecord
100
AcDbTextStyleTableRecord
  2
LiberationSans-BoldItalic
 70
0
 40
0.0
 41
1.0
 50
0.0
 71
0
 42
2.5
  3
LiberationSans-BoldItalic.ttf
  4

  0
STYLE
  5
51
330
5
100
AcDbSymbolTableRecord
100
AcDbTextStyleTableRecord
  2
LiberationSans-Italic
 70
0
 40
0.0
 41
1.0
 50
0.0
 71
0
 42
2.5
  3
LiberationSans-Italic.ttf
  4

  0
STYLE
  5
52
330
5
100
AcDbSymbolTableRecord
100
AcDbTextStyleTableRecord
  2
LiberationSerif
 70
0
 40
0.0
 41
1.0
 50
0.0
 71
0
 42
2.5
  3
LiberationSerif-Regular.ttf
  4

  0
STYLE
  5
53
330
5
100
AcDbSymbolTableRecord
100
AcDbTextStyleTableRecord
  2
LiberationSerif-Bold
 70
0
 40
0.0
 41
1.0
 50
0.0
 71
0
 42
2.5
  3
LiberationSerif-Bold.ttf
  4

  0
STYLE
  5
54
330
5
100
AcDbSymbolTableRecord
100
AcDbTextStyleTableRecord
  2
LiberationSerif-BoldItalic
 70
0
 40
0.0
 41
1.0
 50
0.0
 71
0
 42
2.5
  3
LiberationSerif-BoldItalic.ttf
  4

  0
STYLE
  5
55
330
5
100
AcDbSymbolTableRecord
100
AcDbTextStyleTableRecord
  2
LiberationSerif-Italic
 70
0
 40
0.0
 41
1.0
 50
0.0
 71
0
 42
2.5
  3
LiberationSerif-Italic.ttf
  4

  0
STYLE
  5
56
330
5
100
AcDbSymbolTableRecord
100
AcDbTextStyleTableRecord
  2
LiberationMono
 70
0
 40
0.0
 41
1.0
 50
0.0
 71
0
 42
2.5
  3
LiberationMono-Regular.ttf
  4

  0
STYLE
  5
57
330
5
100
AcDbSymbolTableRecord
100
AcDbTextStyleTableRecord
  2
LiberationMono-Bold
 70
0
 40
0.0
 41
1.0
 50
0.0
 71
0
 42
2.5
  3
LiberationMono-Bold.ttf
  4

  0
STYLE
  5
58
330
5
100
AcDbSymbolTableRecord
100
AcDbTextStyleTableRecord
  2
LiberationMono-BoldItalic
 70
0
 40
0.0
 41
1.0
 50
0.0
 71
0
 42
2.5
  3
LiberationMono-BoldItalic.ttf
  4

  0
STYLE
  5
59
330
5
100
AcDbSymbolTableRecord
100
AcDbTextStyleTableRecord
  2
LiberationMono-Italic
 70
0
 40
0.0
 41
1.0
 50
0.0
 71
0
 42
2.5
  3
LiberationMono-Italic.ttf
  4

  0
ENDTAB
  0
TABLE
  2
VIEW
  5
7
330
0
100
AcDbSymbolTable
 70
0
  0
ENDTAB
  0
TABLE
  2
UCS
  5
6
330
0
100
AcDbSymbolTable
 70
0
  0
ENDTAB
  0
TABLE
  2
APPID
  5
3
330
0
100
AcDbSymbolTable
 70
3
  0
APPID
  5
2A
330
3
100
AcDbSymbolTableRecord
100
AcDbRegAppTableRecord
  2
ACAD
 70
0
  0
APPID
  5
1A4
330
3
100
AcDbSymbolTableRecord
100
AcDbRegAppTableRecord
  2
HATCHBACKGROUNDCOLOR
 70
0
  0
APPID
  5
1A5
330
3
100
AcDbSymbolTableRecord
100
AcDbRegAppTableRecord
  2
EZDXF
 70
0
  0
ENDTAB
  0
TABLE
  2
DIMSTYLE
  5
4
330
0
100
AcDbSymbolTable
 70
12
100
AcDbDimStyleTable
  0
DIMSTYLE
105
2B
330
4
100
AcDbSymbolTableRecord
100
AcDbDimStyleTableRecord
  2
Standard
 70
0
 40
1.0
 41
2.5
 42
0.625
 43
3.75
 44
1.25
 45
0.0
 46
0.0
 47
0.0
 48
0.0
 49
2.5
140
2.5
141
2.5
142
0.0
143
0.03937007874
144
1.0
145
0.0
146
1.0
147
0.625
148
0.0
 69
0
 70
0
 71
0
 72
0
 73
0
 74
0
 75
0
 76
0
 77
1
 78
8
 79
3
170
0
171
3
172
1
173
0
174
0
175
0
176
0
177
0
178
0
179
2
271
2
272
2
273
2
274
3
275
0
276
0
277
2
278
44
279
0
280
0
281
0
282
0
283
0
284
8
285
0
286
0
288
0
289
3
290
0
371
-2
372
-2
  0
DIMSTYLE
105
73
330
4
100
AcDbSymbolTableRecord
100
AcDbDimStyleTableRecord
  2
EZDXF
 70
0
 40
1.0
 41
0.175
 42
0.125
 43
3.75
 44
0.375
 45
0.0
 46
0.0
 47
0.0
 48
0.0
 49
2.5
140
0.25
141
2.5
142
0.0
143
0.03937007874
144
100.0
145
0.0
146
0.5
147
0.1
148
0.0
 69
0
 70
0
 71
0
 72
0
 73
0
 74
0
 75
0
 76
0
 77
1
 78
12
 79
3
170
0
171
3
172
1
173
0
174
0
175
0
176
0
177
0
178
0
179
2
271
2
272
2
273
2
274
3
275
0
276
0
277
2
278
46
279
2
280
0
281
0
282
0
283
0
284
8
285
0
286
0
288
1
289
3
290
0
340
4C
342
74
371
-2
372
-2
  0
DIMSTYLE
105
7C
330
4
100
AcDbSymbolTableRecord
100
AcDbDimStyleTableRecord
  2
EZ_M_100_H25_CM
 70
0
 40
1.0
 41
0.25
 42
0.125
 43
3.75
 44
0.375
 45
0.0
 46
0.0
 47
0.0
 48
0.0
 49
2.5
140
0.25
141
2.5
142
0.125
143
0.03937007874
144
100.0
145
0.0
146
0.5
147
0.1
148
0.0
 69
0
 70
0
 71
0
 72
0
 73
0
 74
0
 75
0
 76
0
 77
1
 78
12
 79
3
170
0
171
3
172
1
173
0
174
0
175
0
176
0
177
0
178
0
179
2
271
2
272
2
273
2
274
3
275
0
276
0
277
2
278
46
279
2
280
0
281
0
282
0
283
0
284
8
285
0
286
0
288
1
289
3
290
0
340
4C
371
-2
372
-2
  0
DIMSTYLE
105
7D
330
4
100
AcDbSymbolTableRecord
100
AcDbDimStyleTableRecord
  2
EZ_M_50_H25_CM
 70
0
 40
1.0
 41
0.125
 42
0.0625
 43
3.75
 44
0.1875
 45
0.0
 46
0.0
 47
0.0
 48
0.0
 49
2.5
140
0.125
141
2.5
142
0.0625
143
0.03937007874
144
100.0
145
0.0
146
0.5
147
0.05
148
0.0
 69
0
 70
0
 71
0
 72
0
 73
0
 74
0
 75
0
 76
0
 77
1
 78
12
 79
3
170
0
171
3
172
1
173
0
174
0
175
0
176
0
177
0
178
0
179
2
271
2
272
2
273
2
274
3
275
0
276
0
277
2
278
46
279
2
280
0
281
0
282
0
283
0
284
8
285
0
286
0
288
1
289
3
290
0
340
4C
371
-2
372
-2
  0
DIMSTYLE
105
7E
330
4
100
AcDbSymbolTableRecord
100
AcDbDimStyleTableRecord
  2
EZ_M_25_H25_CM
 70
0
 40
1.0
 41
0.0625
 42
0.03125
 43
3.75
 44
0.09375
 45
0.0
 46
0.0
 47
0.0
 48
0.0
 49
2.5
140
0.0625
141
2.5
142
0.03125
143
0.03937007874
144
100.0
145
0.0
146
0.5
147
0.025
148
0.0
 69
0
 70
0
 71
0
 72
0
 73
0
 74
0
 75
0
 76
0
 77
1
 78
12
 79
3
170
0
171
3
172
1
173
0
174
0
175
0
176
0
177
0
178
0
179
2
271
2
272
2
273
2
274
3
275
0
276
0
277
2
278
46
279
2
280
0
281
0
282
0
283
0
284
8
285
0
286
0
288
1
289
3
290
0
340
4C
371
-2
372
-2
  0
DIMSTYLE
105
7F
330
4
100
AcDbSymbolTableRecord
100
AcDbDimStyleTableRecord
  2
EZ_M_20_H25_CM
 70
0
 40
1.0
 41
0.05
 42
0.025
 43
3.75
 44
0.07500000000000001
 45
0.0
 46
0.0
 47
0.0
 48
0.0
 49
2.5
140
0.05
141
2.5
142
0.025
143
0.03937007874
144
100.0
145
0.0
146
0.5
147
0.020000000000000004
148
0.0
 69
0
 70
0
 71
0
 72
0
 73
0
 74
0
 75
0
 76
0
 77
1
 78
12
 79
3
170
0
171
3
172
1
173
0
174
0
175
0
176
0
177
0
178
0
179
2
271
2
272
2
273
2
274
3
275
0
276
0
277
2
278
46
279
2
280
0
281
0
282
0
283
0
284
8
285
0
286
0
288
1
289
3
290
0
340
4C
371
-2
372
-2
  0
DIMSTYLE
105
80
330
4
100
AcDbSymbolTableRecord
100
AcDbDimStyleTableRecord
  2
EZ_M_10_H25_CM
 70
0
 40
1.0
 41
0.025
 42
0.0125
 43
3.75
 44
0.037500000000000006
 45
0.0
 46
0.0
 47
0.0
 48
0.0
 49
2.5
140
0.025
141
2.5
142
0.0125
143
0.03937007874
144
100.0
145
0.0
146
0.5
147
0.010000000000000002
148
0.0
 69
0
 70
0
 71
0
 72
0
 73
0
 74
0
 75
0
 76
0
 77
1
 78
12
 79
3
170
0
171
3
172
1
173
0
174
0
175
0
176
0
177
0
178
0
179
2
271
2
272
2
273
2
274
3
275
0
276
0
277
2
278
46
279
2
280
0
281
0
282
0
283
0
284
8
285
0
286
0
288
1
289
3
290
0
340
4C
371
-2
372
-2
  0
DIMSTYLE
105
81
330
4
100
AcDbSymbolTableRecord
100
AcDbDimStyleTableRecord
  2
EZ_M_5_H25_CM
 70
0
 40
1.0
 41
0.0125
 42
0.00625
 43
3.75
 44
0.018750000000000003
 45
0.0
 46
0.0
 47
0.0
 48
0.0
 49
2.5
140
0.0125
141
2.5
142
0.00625
143
0.03937007874
144
100.0
145
0.0
146
0.5
147
0.005000000000000001
148
0.0
 69
0
 70
0
 71
0
 72
0
 73
0
 74
0
 75
0
 76
0
 77
1
 78
12
 79
3
170
0
171
3
172
1
173
0
174
0
175
0
176
0
177
0
178
0
179
2
271
2
272
2
273
2
274
3
275
0
276
0
277
2
278
46
279
2
280
0
281
0
282
0
283
0
284
8
285
0
286
0
288
1
289
3
290
0
340
4C
371
-2
372
-2
  0
DIMSTYLE
105
82
330
4
100
AcDbSymbolTableRecord
100
AcDbDimStyleTableRecord
  2
EZ_M_1_H25_CM
 70
0
 40
1.0
 41
0.0025
 42
0.00125
 43
3.75
 44
0.00375
 45
0.0
 46
0.0
 47
0.0
 48
0.0
 49
2.5
140
0.0025
141
2.5
142
0.00125
143
0.03937007874
144
100.0
145
0.0
146
0.5
147
0.001
148
0.0
 69
0
 70
0
 71
0
 72
0
 73
0
 74
0
 75
0
 76
0
 77
1
 78
12
 79
3
170
0
171
3
172
1
173
0
174
0
175
0
176
0
177
0
178
0
179
2
271
2
272
2
273
2
274
3
275
0
276
0
277
2
278
46
279
2
280
0
281
0
282
0
283
0
284
8
285
0
286
0
288
1
289
3
290
0
340
4C
371
-2
372
-2
  0
DIMSTYLE
105
83
330
4
100
AcDbSymbolTableRecord
100
AcDbDimStyleTableRecord
  2
EZ_RADIUS
 70
0
 40
1.0
 41
0.25
 42
0.125
 43
3.75
 44
0.375
 45
0.0
 46
0.0
 47
0.0
 48
0.0
 49
2.5
140
0.25
141
0.0
142
0.0
143
0.03937007874
144
100.0
145
0.0
146
0.5
147
0.1
148
0.0
 69
0
 70
0
 71
0
 72
0
 73
0
 74
0
 75
0
 76
0
 77
1
 78
12
 79
3
170
0
171
3
172
0
173
0
174
0
175
0
176
0
177
0
178
0
179
2
271
2
272
2
273
2
274
3
275
0
276
0
277
2
278
46
279
1
280
0
281
0
282
0
283
0
284
8
285
0
286
0
288
1
289
3
290
0
340
4C
342
84
371
-2
372
-2
  0
DIMSTYLE
105
88
330
4
100
AcDbSymbolTableRecord
100
AcDbDimStyleTableRecord
  2
EZ_RADIUS_INSIDE
 70
0
 40
1.0
 41
0.25
 42
0.125
 43
3.75
 44
0.375
 45
0.0
 46
0.0
 47
0.0
 48
0.0
 49
2.5
140
0.25
141
0.0
142
0.0
143
0.03937007874
144
100.0
145
0.0
146
0.5
147
0.1
148
0.0
 69
0
 70
0
 71
0
 72
0
 73
0
 74
0
 75
0
 76
0
 77
0
 78
12
 79
3
170
0
171
3
172
0
173
0
174
1
175
0
176
0
177
0
178
0
179
2
271
2
272
2
273
2
274
3
275
0
276
0
277
2
278
46
279
0
280
0
281
0
282
0
283
0
284
8
285
0
286
0
288
1
289
0
290
0
340
4C
342
84
371
-2
372
-2
  0
DIMSTYLE
105
89
330
4
100
AcDbSymbolTableRecord
100
AcDbDimStyleTableRecord
  2
EZ_CURVED
 70
0
 40
1.0
 41
0.25
 42
0.125
 43
3.75
 44
0.375
 45
0.0
 46
0.0
 47
0.0
 48
0.0
 49
2.5
140
0.25
141
2.5
142
0.0
143
0.03937007874
144
100.0
145
0.0
146
0.5
147
0.1
148
0.0
 69
0
 70
0
 71
0
 72
0
 73
0
 74
0
 75
0
 76
0
 77
1
 78
12
 79
2
 90
2
170
0
171
3
172
1
173
0
174
0
175
0
176
0
177
0
178
0
179
2
271
2
272
2
273
2
274
3
275
0
276
0
277
2
278
46
279
2
280
0
281
0
282
0
283
0
284
8
285
0
286
0
288
1
289
3
290
0
340
4C
371
-2
372
-2
  0
ENDTAB
  0
TABLE
  2
BLOCK_RECORD
  5
9
330
0
100
AcDbSymbolTable
 70
5
  0
BLOCK_RECORD
  5
17
330
9
100
AcDbSymbolTableRecord
100
AcDbBlockTableRecord
  2
*Model_Space
340
1A
 70
0
280
1
281
0
  0
BLOCK_RECORD
  5
1B
330
9
100
AcDbSymbolTableRecord
100
AcDbBlockTableRecord
  2
*Paper_Space
340
1E
 70
0
280
1
281
0
  0
BLOCK_RECORD
  5
74
330
9
100
AcDbSymbolTableRecord
100
AcDbBlockTableRecord
  2
_ARCHTICK
340
0
 70
0
280
1
281
0
  0
BLOCK_RECORD
  5
78
330
9
100
AcDbSymbolTableRecord
100
AcDbBlockTableRecord
  2
_CLOSEDFILLED
340
0
 70
0
280
1
281
0
  0
BLOCK_RECORD
  5
84
330
9
100
AcDbSymbolTableRecord
100
AcDbBlockTableRecord
  2
_CLOSEDBLANK
340
0
 70
0
280
1
281
0
  0
ENDTAB
  0
ENDSEC
  0
SECTION
  2
BLOCKS
  0
BLOCK
  5
18
330
17
100
AcDbEntity
  8
0
100
AcDbBlockBegin
  2
*Model_Space
 70
0
 10
0.0
 20
0.0
 30
0.0
  3
*Model_Space
  1

  0
ENDBLK
  5
19
330
17
100
AcDbEntity
  8
0
100
AcDbBlockEnd
  0
BLOCK
  5
1C
330
1B
100
AcDbEntity
  8
0
100
AcDbBlockBegin
  2
*Paper_Space
 70
0
 10
0.0
 20
0.0
 30
0.0
  3
*Paper_Space
  1

  0
ENDBLK
  5
1D
330
1B
100
AcDbEntity
  8
0
100
AcDbBlockEnd
  0
BLOCK
  5
75
330
74
100
AcDbEntity
  8
0
100
AcDbBlockBegin
  2
_ARCHTICK
 70
0
 10
0.0
 20
0.0
 30
0.0
  3
_ARCHTICK
  1

  0
LWPOLYLINE
  5
77
330
74
100
AcDbEntity
  8
0
  6
BYBLOCK
 62
0
100
AcDbPolyline
 90
2
 70
0
 43
0.15
 10
-0.5
 20
-0.5
 10
0.5
 20
0.5
  0
ENDBLK
  5
76
330
74
100
AcDbEntity
  8
0
100
AcDbBlockEnd
  0
BLOCK
  5
79
330
78
100
AcDbEntity
  8
0
100
AcDbBlockBegin
  2
_CLOSEDFILLED
 70
0
 10
0.0
 20
0.0
 30
0.0
  3
_CLOSEDFILLED
  1

  0
SOLID
  5
7B
330
78
100
AcDbEntity
  8
0
  6
BYBLOCK
 62
0
100
AcDbTrace
 10
-1.0
 20
0.16439898372402537
 30
0.0
 11
0.0
 21
0.0
 31
0.0
 12
-1.0
 22
-0.16439898372402537
 32
0.0
 13
-1.0
 23
-0.16439898372402537
 33
0.0
  0
ENDBLK
  5
7A
330
78
100
AcDbEntity
  8
0
100
AcDbBlockEnd
  0
BLOCK
  5
85
330
84
100
AcDbEntity
  8
0
100
AcDbBlockBegin
  2
_CLOSEDBLANK
 70
0
 10
0.0
 20
0.0
 30
0.0
  3
_CLOSEDBLANK
  1

  0
LWPOLYLINE
  5
87
330
84
100
AcDbEntity
  8
0
  6
BYBLOCK
 62
0
100
AcDbPolyline
 90
3
 70
1
 10
-1.0
 20
0.16439898372402537
 10
0.0
 20
0.0
 10
-1.0
 20
-0.16439898372402537
  0
ENDBLK
  5
86
330
84
100
AcDbEntity
  8
0
100
AcDbBlockEnd
  0
ENDSEC
  0
SECTION
  2
ENTITIES
  0
LWPOLYLINE
  5
8E
330
17
100
AcDbEntity
  8
GEOMETRY
100
AcDbPolyline
 90
5
 70
0
 10
0.31496062992125984
 20
11.377952755905513
 10
16.22047244094488
 20
11.377952755905513
 10
16.22047244094488
 20
0.31496062992126106
 10
0.31496062992125984
 20
0.31496062992126106
 10
0.31496062992125984
 20
11.377952755905513
  0
TEXT
  5
8F
330
17
100
AcDbEntity
  8
TEXT
100
AcDbText
 10
0.7086614173228346
 20
11.023622047244094
 30
0.0
 40
0.09070866141732283
  1
ELEVATION — LEFT WALL
 11
0.7086614173228346
 21
11.023622047244094
 31
0.0
100
AcDbText
  0
LINE
  5
90
330
17
100
AcDbEntity
  8
GEOMETRY
100
AcDbLine
 10
0.7086614173228346
 20
10.964566929133857
 30
0.0
 11
5.354330708661418
 21
10.964566929133857
 31
0.0
  0
TEXT
  5
91
330
17
100
AcDbEntity
  8
TEXT
100
AcDbText
 10
0.7086614173228346
 20
10.834645669291337
 30
0.0
 40
0.048188976377952754
  1
SCALE 1:30 · SEEN FROM THE ROOM · STUDY CORNER LEFT, BED CORNER RIGHT
 11
0.7086614173228346
 21
10.834645669291337
 31
0.0
100
AcDbText
  0
LWPOLYLINE
  5
92
330
17
100
AcDbEntity
  8
GEOMETRY
100
AcDbPolyline
 90
5
 70
0
 10
1.574803149606299
 20
10.275590551181104
 10
9.174540682414698
 20
10.275590551181104
 10
9.174540682414698
 20
6.641732283464567
 10
1.574803149606299
 20
6.641732283464567
 10
1.574803149606299
 20
10.275590551181104
  0
LINE
  5
93
330
17
100
AcDbEntity
  8
GEOMETRY
100
AcDbLine
 10
7.611548556430447
 20
6.641732283464567
 30
0.0
 11
7.611548556430447
 21
10.275590551181102
 31
0.0
  0
LINE
  5
94
330
17
100
AcDbEntity
  8
GEOMETRY
  6
DASHED
100
AcDbLine
 10
7.664041994750655
 20
6.641732283464567
 30
0.0
 11
7.664041994750655
 21
10.275590551181102
 31
0.0
  0
LWPOLYLINE
  5
95
330
17
100
AcDbEntity
  8
GEOMETRY
100
AcDbPolyline
 90
5
 70
0
 10
1.574803149606299
 20
6.775590551181103
 10
7.9750656167979
 20
6.775590551181103
 10
7.9750656167979
 20
6.641732283464567
 10
1.574803149606299
 20
6.641732283464567
 10
1.574803149606299
 20
6.775590551181103
  0
LINE
  5
96
330
17
100
AcDbEntity
  8
GEOMETRY
100
AcDbLine
 10
1.574803149606299
 20
6.74278215223097
 30
0.0
 11
7.9750656167979
 21
6.74278215223097
 31
0.0
  0
LWPOLYLINE
  5
97
330
17
100
AcDbEntity
  8
GEOMETRY
100
AcDbPolyline
 90
5
 70
0
 10
7.908136482939633
 20
9.741469816272966
 10
7.9750656167979
 20
9.741469816272966
 10
7.9750656167979
 20
6.641732283464567
 10
7.908136482939633
 20
6.641732283464567
 10
7.908136482939633
 20
9.741469816272966
  0
LWPOLYLINE
  5
98
330
17
100
AcDbEntity
  8
GEOMETRY
100
AcDbPolyline
 90
5
 70
0
 10
7.774278215223097
 20
9.875328083989501
 10
7.908136482939633
 20
9.875328083989501
 10
7.908136482939633
 20
6.943569553805776
 10
7.774278215223097
 20
6.943569553805776
 10
7.774278215223097
 20
9.875328083989501
  0
LWPOLYLINE
  5
99
330
17
100
AcDbEntity
  8
GEOMETRY
100
AcDbPolyline
 90
5
 70
0
 10
7.774278215223097
 20
6.943569553805776
 10
7.9750656167979
 20
6.943569553805776
 10
7.9750656167979
 20
6.6417322834645685
 10
7.774278215223097
 20
6.6417322834645685
 10
7.774278215223097
 20
6.943569553805776
  0
LINE
  5
9A
330
17
100
AcDbEntity
  8
GEOMETRY
100
AcDbLine
 10
7.774278215223097
 20
6.925196850393701
 30
0.0
 11
7.9750656167979
 21
6.925196850393701
 31
0.0
  0
LINE
  5
9B
330
17
100
AcDbEntity
  8
GEOMETRY
100
AcDbLine
 10
7.774278215223097
 20
6.775590551181102
 30
0.0
 11
7.9750656167979
 21
6.775590551181102
 31
0.0
  0
LWPOLYLINE
  5
9C
330
17
100
AcDbEntity
  8
GEOMETRY
100
AcDbPolyline
 90
5
 70
0
 10
9.174540682414698
 20
9.741469816272966
 10
9.241469816272966
 20
9.741469816272966
 10
9.241469816272966
 20
6.641732283464567
 10
9.174540682414698
 20
6.641732283464567
 10
9.174540682414698
 20
9.741469816272966
  0
LWPOLYLINE
  5
9D
330
17
100
AcDbEntity
  8
GEOMETRY
100
AcDbPolyline
 90
5
 70
0
 10
9.241469816272966
 20
9.875328083989501
 10
9.375328083989501
 20
9.875328083989501
 10
9.375328083989501
 20
6.943569553805776
 10
9.241469816272966
 20
6.943569553805776
 10
9.241469816272966
 20
9.875328083989501
  0
LWPOLYLINE
  5
9E
330
17
100
AcDbEntity
  8
GEOMETRY
100
AcDbPolyline
 90
5
 70
0
 10
9.174540682414698
 20
6.943569553805776
 10
9.375328083989501
 20
6.943569553805776
 10
9.375328083989501
 20
6.6417322834645685
 10
9.174540682414698
 20
6.6417322834645685
 10
9.174540682414698
 20
6.943569553805776
  0
LINE
  5
9F
330
17
100
AcDbEntity
  8
GEOMETRY
100
AcDbLine
 10
9.174540682414698
 20
6.925196850393701
 30
0.0
 11
9.375328083989501
 21
6.925196850393701
 31
0.0
  0
LINE
  5
A0
330
17
100
AcDbEntity
  8
GEOMETRY
100
AcDbLine
 10
9.174540682414698
 20
6.775590551181102
 30
0.0
 11
9.375328083989501
 21
6.775590551181102
 31
0.0
  0
LWPOLYLINE
  5
A1
330
17
100
AcDbEntity
  8
GEOMETRY
100
AcDbPolyline
 90
5
 70
0
 10
7.9750656167979
 20
9.6745406824147
 10
9.174540682414698
 20
9.6745406824147
 10
9.174540682414698
 20
6.641732283464567
 10
7.9750656167979
 20
6.641732283464567
 10
7.9750656167979
 20
9.6745406824147
  0
LWPOLYLINE
  5
A2
330
17
100
AcDbEntity
  8
GEOMETRY
100
AcDbPolyline
 90
5
 70
0
 10
7.9750656167979
 20
9.6745406824147
 10
8.574803149606298
 20
9.6745406824147
 10
8.574803149606298
 20
6.641732283464567
 10
7.9750656167979
 20
6.641732283464567
 10
7.9750656167979
 20
9.6745406824147
  0
LINE
  5
A3
330
17
100
AcDbEntity
  8
GEOMETRY
100
AcDbLine
 10
8.106299212598426
 20
9.543307086614174
 30
0.0
 11
8.443569553805775
 21
9.543307086614174
 31
0.0
  0
LINE
  5
A4
330
17
100
AcDbEntity
  8
GEOMETRY
100
AcDbLine
 10
8.106299212598426
 20
7.028871391076115
 30
0.0
 11
8.443569553805775
 21
7.028871391076115
 31
0.0
  0
LINE
  5
A5
330
17
100
AcDbEntity
  8
GEOMETRY
100
AcDbLine
 10
8.106299212598426
 20
8.068241469816273
 30
0.0
 11
8.106299212598426
 21
7.7664041994750646
 31
0.0
  0
LINE
  5
A6
330
17
100
AcDbEntity
  8
GEOMETRY
100
AcDbLine
 10
8.443569553805775
 20
8.068241469816273
 30
0.0
 11
8.443569553805775
 21
7.7664041994750646
 31
0.0
  0
LINE
  5
A7
330
17
100
AcDbEntity
  8
GEOMETRY
100
AcDbLine
 10
8.106299212598426
 20
9.6745406824147
 30
0.0
 11
8.106299212598426
 21
9.543307086614174
 31
0.0
  0
LINE
  5
A8
330
17
100
AcDbEntity
  8
GEOMETRY
100
AcDbLine
 10
8.443569553805775
 20
9.6745406824147
 30
0.0
 11
8.443569553805775
 21
9.543307086614174
 31
0.0
  0
LINE
  5
A9
330
17
100
AcDbEntity
  8
GEOMETRY
100
AcDbLine
 10
8.106299212598426
 20
7.028871391076115
 30
0.0
 11
8.106299212598426
 21
6.641732283464567
 31
0.0
  0
LINE
  5
AA
330
17
100
AcDbEntity
  8
GEOMETRY
100
AcDbLine
 10
8.443569553805775
 20
7.028871391076115
 30
0.0
 11
8.443569553805775
 21
6.641732283464567
 31
0.0
  0
LWPOLYLINE
  5
AB
330
17
100
AcDbEntity
  8
GEOMETRY
100
AcDbPolyline
 90
5
 70
0
 10
8.106299212598426
 20
9.543307086614174
 10
8.443569553805775
 20
9.543307086614174
 10
8.443569553805775
 20
8.068241469816273
 10
8.106299212598426
 20
8.068241469816273
 10
8.106299212598426
 20
9.543307086614174
  0
LWPOLYLINE
  5
AC
330
17
100
AcDbEntity
  8
GEOMETRY
100
AcDbPolyline
 90
5
 70
0
 10
8.13254593175853
 20
9.517060367454068
 10
8.417322834645669
 20
9.517060367454068
 10
8.417322834645669
 20
8.094488188976378
 10
8.13254593175853
 20
8.094488188976378
 10
8.13254593175853
 20
9.517060367454068
  0
LINE
  5
AD
330
17
100
AcDbEntity
  8
GEOMETRY
100
AcDbLine
 10
8.106299212598426
 20
9.543307086614174
 30
0.0
 11
8.13254593175853
 21
9.517060367454068
 31
0.0
  0
LINE
  5
AE
330
17
100
AcDbEntity
  8
GEOMETRY
100
AcDbLine
 10
8.443569553805775
 20
9.543307086614174
 30
0.0
 11
8.417322834645669
 21
9.517060367454068
 31
0.0
  0
LINE
  5
AF
330
17
100
AcDbEntity
  8
GEOMETRY
100
AcDbLine
 10
8.106299212598426
 20
8.068241469816273
 30
0.0
 11
8.13254593175853
 21
8.094488188976378
 31
0.0
  0
LINE
  5
B0
330
17
100
AcDbEntity
  8
GEOMETRY
100
AcDbLine
 10
8.443569553805775
 20
8.068241469816273
 30
0.0
 11
8.417322834645669
 21
8.094488188976378
 31
0.0
  0
POLYLINE
  5
B1
330
17
100
AcDbEntity
  8
GEOMETRY
100
AcDb2dPolyline
 66
1
 10
0.0
 20
0.0
 30
0.0
 70
0
  0
VERTEX
  5
B2
330
B1
100
AcDbEntity
  8
GEOMETRY
100
AcDbVertex
100
AcDb2dVertex
 10
8.171916010498688
 20
8.223097112860893
 30
0.0
 70
0
  0
VERTEX
  5
B3
330
B1
100
AcDbEntity
  8
GEOMETRY
100
AcDbVertex
100
AcDb2dVertex
 10
8.171916010498688
 20
9.388451443569554
 30
0.0
 70
0
  0
SEQEND
  5
B4
330
B1
100
AcDbEntity
  8
GEOMETRY
  0
SPLINE
  5
B5
330
17
100
AcDbEntity
  8
GEOMETRY
100
AcDbSpline
 70
0
 71
3
 72
14
 73
10
 74
0
 40
0.0
 40
0.0
 40
0.0
 40
0.0
 40
1.0
 40
1.0
 40
1.0
 40
2.0
 40
2.0
 40
2.0
 40
3.0
 40
3.0
 40
3.0
 40
3.0
 10
8.171916010498688
 20
9.388451443569554
 30
0.0
 10
8.178826388258926
 20
9.388451443569554
 30
0.0
 10
8.185616487178653
 20
9.390270845091623
 30
0.0
 10
8.191601049868765
 20
9.393726033971742
 30
0.0
 10
8.197585612558878
 20
9.397181222851861
 30
0.0
 10
8.202556309956538
 20
9.40215192024952
 30
0.0
 10
8.206011498836657
 20
9.408136482939632
 30
0.0
 10
8.209466687716777
 20
9.414121045629747
 30
0.0
 10
8.211286089238845
 20
9.420911144549473
 30
0.0
 10
8.211286089238845
 20
9.427821522309712
 30
0.0
  0
SPLINE
  5
B6
330
17
100
AcDbEntity
  8
GEOMETRY
100
AcDbSpline
 70
0
 71
3
 72
11
 73
7
 74
0
 40
0.0
 40
0.0
 40
0.0
 40
0.0
 40
1.0
 40
1.0
 40
1.0
 40
2.0
 40
2.0
 40
2.0
 40
2.0
 10
8.211286089238845
 20
9.427821522309712
 30
0.0
 10
8.243110236220472
 20
9.427821522309712
 30
0.0
 10
8.23547244094488
 20
9.477690288713912
 30
0.0
 10
8.2749343832021
 20
9.477690288713912
 30
0.0
 10
8.314396325459317
 20
9.477690288713912
 30
0.0
 10
8.306758530183727
 20
9.427821522309712
 30
0.0
 10
8.338582677165354
 20
9.427821522309712
 30
0.0
  0
SPLINE
  5
B7
330
17
100
AcDbEntity
  8
GEOMETRY
100
AcDbSpline
 70
0
 71
3
 72
14
 73
10
 74
0
 40
0.0
 40
0.0
 40
0.0
 40
0.0
 40
1.0
 40
1.0
 40
1.0
 40
2.0
 40
2.0
 40
2.0
 40
3.0
 40
3.0
 40
3.0
 40
3.0
 10
8.338582677165354
 20
9.427821522309712
 30
0.0
 10
8.338582677165354
 20
9.420911144549473
 30
0.0
 10
8.340402078687422
 20
9.414121045629747
 30
0.0
 10
8.343857267567541
 20
9.408136482939632
 30
0.0
 10
8.34731245644766
 20
9.40215192024952
 30
0.0
 10
8.352283153845319
 20
9.397181222851861
 30
0.0
 10
8.358267716535432
 20
9.393726033971742
 30
0.0
 10
8.364252279225544
 20
9.390270845091623
 30
0.0
 10
8.371042378145273
 20
9.388451443569554
 30
0.0
 10
8.377952755905511
 20
9.388451443569554
 30
0.0
  0
POLYLINE
  5
B8
330
17
100
AcDbEntity
  8
GEOMETRY
100
AcDb2dPolyline
 66
1
 10
0.0
 20
0.0
 30
0.0
 70
0
  0
VERTEX
  5
B9
330
B8
100
AcDbEntity
  8
GEOMETRY
100
AcDbVertex
100
AcDb2dVertex
 10
8.377952755905511
 20
9.388451443569554
 30
0.0
 70
0
  0
VERTEX
  5
BA
330
B8
100
AcDbEntity
  8
GEOMETRY
100
AcDbVertex
100
AcDb2dVertex
 10
8.377952755905511
 20
8.223097112860893
 30
0.0
 70
0
  0
SEQEND
  5
BB
330
B8
100
AcDbEntity
  8
GEOMETRY
  0
SPLINE
  5
BC
330
17
100
AcDbEntity
  8
GEOMETRY
100
AcDbSpline
 70
0
 71
3
 72
14
 73
10
 74
0
 40
0.0
 40
0.0
 40
0.0
 40
0.0
 40
1.0
 40
1.0
 40
1.0
 40
2.0
 40
2.0
 40
2.0
 40
3.0
 40
3.0
 40
3.0
 40
3.0
 10
8.377952755905511
 20
8.223097112860893
 30
0.0
 10
8.371042378145273
 20
8.223097112860893
 30
0.0
 10
8.364252279225544
 20
8.221277711338825
 30
0.0
 10
8.358267716535432
 20
8.217822522458706
 30
0.0
 10
8.352283153845319
 20
8.214367333578586
 30
0.0
 10
8.34731245644766
 20
8.209396636180928
 30
0.0
 10
8.343857267567541
 20
8.203412073490814
 30
0.0
 10
8.340402078687422
 20
8.1974275108007
 30
0.0
 10
8.338582677165354
 20
8.190637411880974
 30
0.0
 10
8.338582677165354
 20
8.183727034120736
 30
0.0
  0
SPLINE
  5
BD
330
17
100
AcDbEntity
  8
GEOMETRY
100
AcDbSpline
 70
0
 71
3
 72
11
 73
7
 74
0
 40
0.0
 40
0.0
 40
0.0
 40
0.0
 40
1.0
 40
1.0
 40
1.0
 40
2.0
 40
2.0
 40
2.0
 40
2.0
 10
8.338582677165354
 20
8.183727034120736
 30
0.0
 10
8.306758530183727
 20
8.183727034120736
 30
0.0
 10
8.314396325459317
 20
8.133858267716535
 30
0.0
 10
8.2749343832021
 20
8.133858267716535
 30
0.0
 10
8.23547244094488
 20
8.133858267716535
 30
0.0
 10
8.243110236220472
 20
8.183727034120736
 30
0.0
 10
8.211286089238845
 20
8.183727034120736
 30
0.0
  0
SPLINE
  5
BE
330
17
100
AcDbEntity
  8
GEOMETRY
100
AcDbSpline
 70
0
 71
3
 72
14
 73
10
 74
0
 40
0.0
 40
0.0
 40
0.0
 40
0.0
 40
1.0
 40
1.0
 40
1.0
 40
2.0
 40
2.0
 40
2.0
 40
3.0
 40
3.0
 40
3.0
 40
3.0
 10
8.211286089238845
 20
8.183727034120736
 30
0.0
 10
8.211286089238845
 20
8.190637411880974
 30
0.0
 10
8.209466687716777
 20
8.1974275108007
 30
0.0
 10
8.206011498836657
 20
8.203412073490814
 30
0.0
 10
8.202556309956538
 20
8.209396636180928
 30
0.0
 10
8.197585612558878
 20
8.214367333578586
 30
0.0
 10
8.191601049868765
 20
8.217822522458706
 30
0.0
 10
8.185616487178653
 20
8.221277711338825
 30
0.0
 10
8.178826388258926
 20
8.223097112860893
 30
0.0
 10
8.171916010498688
 20
8.223097112860893
 30
0.0
  0
CIRCLE
  5
BF
330
17
100
AcDbEntity
  8
GEOMETRY
100
AcDbCircle
 10
8.175853018372703
 20
9.431758530183727
 30
0.0
 40
0.01706036745406824
  0
CIRCLE
  5
C0
330
17
100
AcDbEntity
  8
GEOMETRY
100
AcDbCircle
 10
8.175853018372703
 20
9.431758530183727
 30
0.0
 40
0.0068241469816272965
  0
CIRCLE
  5
C1
330
17
100
AcDbEntity
  8
GEOMETRY
100
AcDbCircle
 10
8.374015748031496
 20
9.431758530183727
 30
0.0
 40
0.01706036745406824
  0
CIRCLE
  5
C2
330
17
100
AcDbEntity
  8
GEOMETRY
100
AcDbCircle
 10
8.374015748031496
 20
9.431758530183727
 30
0.0
 40
0.0068241469816272965
  0
CIRCLE
  5
C3
330
17
100
AcDbEntity
  8
GEOMETRY
100
AcDbCircle
 10
8.175853018372703
 20
8.17979002624672
 30
0.0
 40
0.01706036745406824
  0
CIRCLE
  5
C4
330
17
100
AcDbEntity
  8
GEOMETRY
100
AcDbCircle
 10
8.175853018372703
 20
8.17979002624672
 30
0.0
 40
0.0068241469816272965
  0
CIRCLE
  5
C5
330
17
100
AcDbEntity
  8
GEOMETRY
100
AcDbCircle
 10
8.374015748031496
 20
8.17979002624672
 30
0.0
 40
0.01706036745406824
  0
CIRCLE
  5
C6
330
17
100
AcDbEntity
  8
GEOMETRY
100
AcDbCircle
 10
8.374015748031496
 20
8.17979002624672
 30
0.0
 40
0.0068241469816272965
  0
LWPOLYLINE
  5
C7
330
17
100
AcDbEntity
  8
GEOMETRY
100
AcDbPolyline
 90
5
 70
0
 10
8.106299212598426
 20
7.766404199475066
 10
8.443569553805775
 20
7.766404199475066
 10
8.443569553805775
 20
7.028871391076116
 10
8.106299212598426
 20
7.028871391076116
 10
8.106299212598426
 20
7.766404199475066
  0
LWPOLYLINE
  5
C8
330
17
100
AcDbEntity
  8
GEOMETRY
100
AcDbPolyline
 90
5
 70
0
 10
8.13254593175853
 20
7.740157480314961
 10
8.417322834645669
 20
7.740157480314961
 10
8.417322834645669
 20
7.05511811023622
 10
8.13254593175853
 20
7.05511811023622
 10
8.13254593175853
 20
7.740157480314961
  0
LINE
  5
C9
330
17
100
AcDbEntity
  8
GEOMETRY
100
AcDbLine
 10
8.106299212598426
 20
7.7664041994750646
 30
0.0
 11
8.13254593175853
 21
7.74015748031496
 31
0.0
  0
LINE
  5
CA
330
17
100
AcDbEntity
  8
GEOMETRY
100
AcDbLine
 10
8.443569553805775
 20
7.7664041994750646
 30
0.0
 11
8.417322834645669
 21
7.74015748031496
 31
0.0
  0
LINE
  5
CB
330
17
100
AcDbEntity
  8
GEOMETRY
100
AcDbLine
 10
8.106299212598426
 20
7.028871391076115
 30
0.0
 11
8.13254593175853
 21
7.0551181102362195
 31
0.0
  0
LINE
  5
CC
330
17
100
AcDbEntity
  8
GEOMETRY
100
AcDbLine
 10
8.443569553805775
 20
7.028871391076115
 30
0.0
 11
8.417322834645669
 21
7.0551181102362195
 31
0.0
  0
POLYLINE
  5
CD
330
17
100
AcDbEntity
  8
GEOMETRY
100
AcDb2dPolyline
 66
1
 10
0.0
 20
0.0
 30
0.0
 70
0
  0
VERTEX
  5
CE
330
CD
100
AcDbEntity
  8
GEOMETRY
100
AcDbVertex
100
AcDb2dVertex
 10
8.171916010498688
 20
7.183727034120736
 30
0.0
 70
0
  0
VERTEX
  5
CF
330
CD
100
AcDbEntity
  8
GEOMETRY
100
AcDbVertex
100
AcDb2dVertex
 10
8.171916010498688
 20
7.6115485564304475
 30
0.0
 70
0
  0
SEQEND
  5
D0
330
CD
100
AcDbEntity
  8
GEOMETRY
  0
SPLINE
  5
D1
330
17
100
AcDbEntity
  8
GEOMETRY
100
AcDbSpline
 70
0
 71
3
 72
14
 73
10
 74
0
 40
0.0
 40
0.0
 40
0.0
 40
0.0
 40
1.0
 40
1.0
 40
1.0
 40
2.0
 40
2.0
 40
2.0
 40
3.0
 40
3.0
 40
3.0
 40
3.0
 10
8.171916010498688
 20
7.6115485564304475
 30
0.0
 10
8.178826388258926
 20
7.6115485564304475
 30
0.0
 10
8.185616487178653
 20
7.613367957952516
 30
0.0
 10
8.191601049868765
 20
7.616823146832635
 30
0.0
 10
8.197585612558878
 20
7.620278335712754
 30
0.0
 10
8.202556309956538
 20
7.625249033110412
 30
0.0
 10
8.206011498836657
 20
7.631233595800526
 30
0.0
 10
8.209466687716777
 20
7.637218158490639
 30
0.0
 10
8.211286089238845
 20
7.644008257410366
 30
0.0
 10
8.211286089238845
 20
7.650918635170605
 30
0.0
  0
SPLINE
  5
D2
330
17
100
AcDbEntity
  8
GEOMETRY
100
AcDbSpline
 70
0
 71
3
 72
11
 73
7
 74
0
 40
0.0
 40
0.0
 40
0.0
 40
0.0
 40
1.0
 40
1.0
 40
1.0
 40
2.0
 40
2.0
 40
2.0
 40
2.0
 10
8.211286089238845
 20
7.650918635170605
 30
0.0
 10
8.243110236220472
 20
7.650918635170605
 30
0.0
 10
8.23547244094488
 20
7.700787401574804
 30
0.0
 10
8.2749343832021
 20
7.700787401574804
 30
0.0
 10
8.314396325459317
 20
7.700787401574804
 30
0.0
 10
8.306758530183727
 20
7.650918635170605
 30
0.0
 10
8.338582677165354
 20
7.650918635170605
 30
0.0
  0
SPLINE
  5
D3
330
17
100
AcDbEntity
  8
GEOMETRY
100
AcDbSpline
 70
0
 71
3
 72
14
 73
10
 74
0
 40
0.0
 40
0.0
 40
0.0
 40
0.0
 40
1.0
 40
1.0
 40
1.0
 40
2.0
 40
2.0
 40
2.0
 40
3.0
 40
3.0
 40
3.0
 40
3.0
 10
8.338582677165354
 20
7.650918635170605
 30
0.0
 10
8.338582677165354
 20
7.644008257410366
 30
0.0
 10
8.340402078687422
 20
7.637218158490639
 30
0.0
 10
8.343857267567541
 20
7.631233595800526
 30
0.0
 10
8.34731245644766
 20
7.625249033110412
 30
0.0
 10
8.352283153845319
 20
7.620278335712754
 30
0.0
 10
8.358267716535432
 20
7.616823146832635
 30
0.0
 10
8.364252279225544
 20
7.613367957952516
 30
0.0
 10
8.371042378145273
 20
7.6115485564304475
 30
0.0
 10
8.377952755905511
 20
7.6115485564304475
 30
0.0
  0
POLYLINE
  5
D4
330
17
100
AcDbEntity
  8
GEOMETRY
100
AcDb2dPolyline
 66
1
 10
0.0
 20
0.0
 30
0.0
 70
0
  0
VERTEX
  5
D5
330
D4
100
AcDbEntity
  8
GEOMETRY
100
AcDbVertex
100
AcDb2dVertex
 10
8.377952755905511
 20
7.6115485564304475
 30
0.0
 70
0
  0
VERTEX
  5
D6
330
D4
100
AcDbEntity
  8
GEOMETRY
100
AcDbVertex
100
AcDb2dVertex
 10
8.377952755905511
 20
7.183727034120736
 30
0.0
 70
0
  0
SEQEND
  5
D7
330
D4
100
AcDbEntity
  8
GEOMETRY
  0
SPLINE
  5
D8
330
17
100
AcDbEntity
  8
GEOMETRY
100
AcDbSpline
 70
0
 71
3
 72
14
 73
10
 74
0
 40
0.0
 40
0.0
 40
0.0
 40
0.0
 40
1.0
 40
1.0
 40
1.0
 40
2.0
 40
2.0
 40
2.0
 40
3.0
 40
3.0
 40
3.0
 40
3.0
 10
8.377952755905511
 20
7.183727034120736
 30
0.0
 10
8.371042378145273
 20
7.183727034120736
 30
0.0
 10
8.364252279225544
 20
7.1819076325986675
 30
0.0
 10
8.358267716535432
 20
7.178452443718548
 30
0.0
 10
8.352283153845319
 20
7.174997254838429
 30
0.0
 10
8.34731245644766
 20
7.17002655744077
 30
0.0
 10
8.343857267567541
 20
7.164041994750657
 30
0.0
 10
8.340402078687422
 20
7.158057432060543
 30
0.0
 10
8.338582677165354
 20
7.151267333140816
 30
0.0
 10
8.338582677165354
 20
7.144356955380578
 30
0.0
  0
SPLINE
  5
D9
330
17
100
AcDbEntity
  8
GEOMETRY
100
AcDbSpline
 70
0
 71
3
 72
11
 73
7
 74
0
 40
0.0
 40
0.0
 40
0.0
 40
0.0
 40
1.0
 40
1.0
 40
1.0
 40
2.0
 40
2.0
 40
2.0
 40
2.0
 10
8.338582677165354
 20
7.144356955380578
 30
0.0
 10
8.306758530183727
 20
7.144356955380578
 30
0.0
 10
8.314396325459317
 20
7.094488188976379
 30
0.0
 10
8.2749343832021
 20
7.094488188976379
 30
0.0
 10
8.23547244094488
 20
7.094488188976379
 30
0.0
 10
8.243110236220472
 20
7.144356955380578
 30
0.0
 10
8.211286089238845
 20
7.144356955380578
 30
0.0
  0
SPLINE
  5
DA
330
17
100
AcDbEntity
  8
GEOMETRY
100
AcDbSpline
 70
0
 71
3
 72
14
 73
10
 74
0
 40
0.0
 40
0.0
 40
0.0
 40
0.0
 40
1.0
 40
1.0
 40
1.0
 40
2.0
 40
2.0
 40
2.0
 40
3.0
 40
3.0
 40
3.0
 40
3.0
 10
8.211286089238845
 20
7.144356955380578
 30
0.0
 10
8.211286089238845
 20
7.151267333140816
 30
0.0
 10
8.209466687716777
 20
7.158057432060543
 30
0.0
 10
8.206011498836657
 20
7.164041994750657
 30
0.0
 10
8.202556309956538
 20
7.17002655744077
 30
0.0
 10
8.197585612558878
 20
7.174997254838429
 30
0.0
 10
8.191601049868765
 20
7.178452443718548
 30
0.0
 10
8.185616487178653
 20
7.1819076325986675
 30
0.0
 10
8.178826388258926
 20
7.183727034120736
 30
0.0
 10
8.171916010498688
 20
7.183727034120736
 30
0.0
  0
CIRCLE
  5
DB
330
17
100
AcDbEntity
  8
GEOMETRY
100
AcDbCircle
 10
8.175853018372703
 20
7.65485564304462
 30
0.0
 40
0.01706036745406824
  0
CIRCLE
  5
DC
330
17
100
AcDbEntity
  8
GEOMETRY
100
AcDbCircle
 10
8.175853018372703
 20
7.65485564304462
 30
0.0
 40
0.0068241469816272965
  0
CIRCLE
  5
DD
330
17
100
AcDbEntity
  8
GEOMETRY
100
AcDbCircle
 10
8.374015748031496
 20
7.65485564304462
 30
0.0
 40
0.01706036745406824
  0
CIRCLE
  5
DE
330
17
100
AcDbEntity
  8
GEOMETRY
100
AcDbCircle
 10
8.374015748031496
 20
7.65485564304462
 30
0.0
 40
0.0068241469816272965
  0
CIRCLE
  5
DF
330
17
100
AcDbEntity
  8
GEOMETRY
100
AcDbCircle
 10
8.175853018372703
 20
7.140419947506562
 30
0.0
 40
0.01706036745406824
  0
CIRCLE
  5
E0
330
17
100
AcDbEntity
  8
GEOMETRY
100
AcDbCircle
 10
8.175853018372703
 20
7.140419947506562
 30
0.0
 40
0.0068241469816272965
  0
CIRCLE
  5
E1
330
17
100
AcDbEntity
  8
GEOMETRY
100
AcDbCircle
 10
8.374015748031496
 20
7.140419947506562
 30
0.0
 40
0.01706036745406824
  0
CIRCLE
  5
E2
330
17
100
AcDbEntity
  8
GEOMETRY
100
AcDbCircle
 10
8.374015748031496
 20
7.140419947506562
 30
0.0
 40
0.0068241469816272965
  0
CIRCLE
  5
E3
330
17
100
AcDbEntity
  8
GEOMETRY
100
AcDbCircle
 10
8.145669291338583
 20
7.9173228346456686
 30
0.0
 40
0.03608923884514435
  0
CIRCLE
  5
E4
330
17
100
AcDbEntity
  8
GEOMETRY
100
AcDbCircle
 10
8.145669291338583
 20
7.9173228346456686
 30
0.0
 40
0.022965879265091863
  0
CIRCLE
  5
E5
330
17
100
AcDbEntity
  8
GEOMETRY
100
AcDbCircle
 10
8.030183727034121
 20
7.9173228346456686
 30
0.0
 40
0.02230971128608924
  0
SPLINE
  5
E6
330
17
100
AcDbEntity
  8
GEOMETRY
100
AcDbSpline
 70
0
 71
3
 72
35
 73
31
 74
0
 40
0.0
 40
0.0
 40
0.0
 40
0.0
 40
1.0
 40
1.0
 40
1.0
 40
2.0
 40
2.0
 40
2.0
 40
3.0
 40
3.0
 40
3.0
 40
4.0
 40
4.0
 40
4.0
 40
5.0
 40
5.0
 40
5.0
 40
6.0
 40
6.0
 40
6.0
 40
7.0
 40
7.0
 40
7.0
 40
8.0
 40
8.0
 40
8.0
 40
9.0
 40
9.0
 40
9.0
 40
10.0
 40
10.0
 40
10.0
 40
10.0
 10
8.026246719160104
 20
7.918635170603675
 30
0.0
 10
8.02553555111609
 20
7.919271258639613
 30
0.0
 10
8.024989019643636
 20
7.9200703234984715
 30
0.0
 10
8.02465406851697
 20
7.92096373030337
 30
0.0
 10
8.024319117390304
 20
7.921857137108267
 30
0.0
 10
8.024205619377273
 20
7.922818552471201
 30
0.0
 10
8.024323323276198
 20
7.923765396581111
 30
0.0
 10
8.024441027175122
 20
7.92471224069102
 30
0.0
 10
8.024786463634273
 20
7.925616605082034
 30
0.0
 10
8.025329961734476
 20
7.926400810279268
 30
0.0
 10
8.02587345983468
 20
7.927185015476502
 30
0.0
 10
8.026598999834118
 20
7.927825946836526
 30
0.0
 10
8.02744426220017
 20
7.928268552201186
 30
0.0
 10
8.028289524566224
 20
7.928711157565846
 30
0.0
 10
8.029229594980213
 20
7.928942391031825
 30
0.0
 10
8.030183727034121
 20
7.928942391031825
 30
0.0
 10
8.031137859088027
 20
7.928942391031825
 30
0.0
 10
8.032077929502016
 20
7.928711157565846
 30
0.0
 10
8.03292319186807
 20
7.928268552201186
 30
0.0
 10
8.033768454234123
 20
7.927825946836526
 30
0.0
 10
8.03449399423356
 20
7.927185015476502
 30
0.0
 10
8.035037492333764
 20
7.926400810279269
 30
0.0
 10
8.035580990433967
 20
7.925616605082034
 30
0.0
 10
8.035926426893118
 20
7.92471224069102
 30
0.0
 10
8.036044130792042
 20
7.923765396581111
 30
0.0
 10
8.036161834690967
 20
7.922818552471201
 30
0.0
 10
8.036048336677938
 20
7.921857137108269
 30
0.0
 10
8.035713385551272
 20
7.92096373030337
 30
0.0
 10
8.035378434424604
 20
7.920070323498473
 30
0.0
 10
8.034831902952153
 20
7.919271258639613
 30
0.0
 10
8.034120734908136
 20
7.918635170603675
 30
0.0
  0
POLYLINE
  5
E7
330
17
100
AcDbEntity
  8
GEOMETRY
100
AcDb2dPolyline
 66
1
 10
0.0
 20
0.0
 30
0.0
 70
0
  0
VERTEX
  5
E8
330
E7
100
AcDbEntity
  8
GEOMETRY
100
AcDbVertex
100
AcDb2dVertex
 10
8.034120734908136
 20
7.918635170603675
 30
0.0
 70
0
  0
VERTEX
  5
E9
330
E7
100
AcDbEntity
  8
GEOMETRY
100
AcDbVertex
100
AcDb2dVertex
 10
8.036089238845145
 20
7.904199475065617
 30
0.0
 70
0
  0
VERTEX
  5
EA
330
E7
100
AcDbEntity
  8
GEOMETRY
100
AcDbVertex
100
AcDb2dVertex
 10
8.024278215223097
 20
7.904199475065617
 30
0.0
 70
0
  0
VERTEX
  5
EB
330
E7
100
AcDbEntity
  8
GEOMETRY
100
AcDbVertex
100
AcDb2dVertex
 10
8.026246719160104
 20
7.918635170603675
 30
0.0
 70
0
  0
SEQEND
  5
EC
330
E7
100
AcDbEntity
  8
GEOMETRY
  0
LWPOLYLINE
  5
ED
330
17
100
AcDbEntity
  8
GEOMETRY
100
AcDbPolyline
 90
5
 70
0
 10
8.574803149606298
 20
9.6745406824147
 10
9.174540682414698
 20
9.6745406824147
 10
9.174540682414698
 20
6.641732283464567
 10
8.574803149606298
 20
6.641732283464567
 10
8.574803149606298
 20
9.6745406824147
  0
LINE
  5
EE
330
17
100
AcDbEntity
  8
GEOMETRY
100
AcDbLine
 10
8.706036745406823
 20
9.543307086614174
 30
0.0
 11
9.043307086614172
 21
9.543307086614174
 31
0.0
  0
LINE
  5
EF
330
17
100
AcDbEntity
  8
GEOMETRY
100
AcDbLine
 10
8.706036745406823
 20
7.028871391076115
 30
0.0
 11
9.043307086614172
 21
7.028871391076115
 31
0.0
  0
LINE
  5
F0
330
17
100
AcDbEntity
  8
GEOMETRY
100
AcDbLine
 10
8.706036745406823
 20
8.068241469816273
 30
0.0
 11
8.706036745406823
 21
7.7664041994750646
 31
0.0
  0
LINE
  5
F1
330
17
100
AcDbEntity
  8
GEOMETRY
100
AcDbLine
 10
9.043307086614172
 20
8.068241469816273
 30
0.0
 11
9.043307086614172
 21
7.7664041994750646
 31
0.0
  0
LINE
  5
F2
330
17
100
AcDbEntity
  8
GEOMETRY
100
AcDbLine
 10
8.706036745406823
 20
9.6745406824147
 30
0.0
 11
8.706036745406823
 21
9.543307086614174
 31
0.0
  0
LINE
  5
F3
330
17
100
AcDbEntity
  8
GEOMETRY
100
AcDbLine
 10
9.043307086614172
 20
9.6745406824147
 30
0.0
 11
9.043307086614172
 21
9.543307086614174
 31
0.0
  0
LINE
  5
F4
330
17
100
AcDbEntity
  8
GEOMETRY
100
AcDbLine
 10
8.706036745406823
 20
7.028871391076115
 30
0.0
 11
8.706036745406823
 21
6.641732283464567
 31
0.0
  0
LINE
  5
F5
330
17
100
AcDbEntity
  8
GEOMETRY
100
AcDbLine
 10
9.043307086614172
 20
7.028871391076115
 30
0.0
 11
9.043307086614172
 21
6.641732283464567
 31
0.0
  0
LWPOLYLINE
  5
F6
330
17
100
AcDbEntity
  8
GEOMETRY
100
AcDbPolyline
 90
5
 70
0
 10
8.706036745406823
 20
9.543307086614174
 10
9.043307086614172
 20
9.543307086614174
 10
9.043307086614172
 20
8.068241469816273
 10
8.706036745406823
 20
8.068241469816273
 10
8.706036745406823
 20
9.543307086614174
  0
LWPOLYLINE
  5
F7
330
17
100
AcDbEntity
  8
GEOMETRY
100
AcDbPolyline
 90
5
 70
0
 10
8.73228346456693
 20
9.517060367454068
 10
9.017060367454068
 20
9.517060367454068
 10
9.017060367454068
 20
8.094488188976378
 10
8.73228346456693
 20
8.094488188976378
 10
8.73228346456693
 20
9.517060367454068
  0
LINE
  5
F8
330
17
100
AcDbEntity
  8
GEOMETRY
100
AcDbLine
 10
8.706036745406823
 20
9.543307086614174
 30
0.0
 11
8.73228346456693
 21
9.517060367454068
 31
0.0
  0
LINE
  5
F9
330
17
100
AcDbEntity
  8
GEOMETRY
100
AcDbLine
 10
9.043307086614172
 20
9.543307086614174
 30
0.0
 11
9.017060367454068
 21
9.517060367454068
 31
0.0
  0
LINE
  5
FA
330
17
100
AcDbEntity
  8
GEOMETRY
100
AcDbLine
 10
8.706036745406823
 20
8.068241469816273
 30
0.0
 11
8.73228346456693
 21
8.094488188976378
 31
0.0
  0
LINE
  5
FB
330
17
100
AcDbEntity
  8
GEOMETRY
100
AcDbLine
 10
9.043307086614172
 20
8.068241469816273
 30
0.0
 11
9.017060367454068
 21
8.094488188976378
 31
0.0
  0
POLYLINE
  5
FC
330
17
100
AcDbEntity
  8
GEOMETRY
100
AcDb2dPolyline
 66
1
 10
0.0
 20
0.0
 30
0.0
 70
0
  0
VERTEX
  5
FD
330
FC
100
AcDbEntity
  8
GEOMETRY
100
AcDbVertex
100
AcDb2dVertex
 10
8.771653543307087
 20
8.223097112860893
 30
0.0
 70
0
  0
VERTEX
  5
FE
330
FC
100
AcDbEntity
  8
GEOMETRY
100
AcDbVertex
100
AcDb2dVertex
 10
8.771653543307087
 20
9.388451443569554
 30
0.0
 70
0
  0
SEQEND
  5
FF
330
FC
100
AcDbEntity
  8
GEOMETRY
  0
SPLINE
  5
100
330
17
100
AcDbEntity
  8
GEOMETRY
100
AcDbSpline
 70
0
 71
3
 72
14
 73
10
 74
0
 40
0.0
 40
0.0
 40
0.0
 40
0.0
 40
1.0
 40
1.0
 40
1.0
 40
2.0
 40
2.0
 40
2.0
 40
3.0
 40
3.0
 40
3.0
 40
3.0
 10
8.771653543307087
 20
9.388451443569554
 30
0.0
 10
8.778563921067326
 20
9.388451443569554
 30
0.0
 10
8.785354019987052
 20
9.390270845091623
 30
0.0
 10
8.791338582677165
 20
9.393726033971742
 30
0.0
 10
8.797323145367278
 20
9.397181222851861
 30
0.0
 10
8.802293842764938
 20
9.40215192024952
 30
0.0
 10
8.805749031645057
 20
9.408136482939632
 30
0.0
 10
8.809204220525176
 20
9.414121045629747
 30
0.0
 10
8.811023622047244
 20
9.420911144549473
 30
0.0
 10
8.811023622047244
 20
9.427821522309712
 30
0.0
  0
SPLINE
  5
101
330
17
100
AcDbEntity
  8
GEOMETRY
100
AcDbSpline
 70
0
 71
3
 72
11
 73
7
 74
0
 40
0.0
 40
0.0
 40
0.0
 40
0.0
 40
1.0
 40
1.0
 40
1.0
 40
2.0
 40
2.0
 40
2.0
 40
2.0
 10
8.811023622047244
 20
9.427821522309712
 30
0.0
 10
8.842847769028872
 20
9.427821522309712
 30
0.0
 10
8.835209973753281
 20
9.477690288713912
 30
0.0
 10
8.874671916010499
 20
9.477690288713912
 30
0.0
 10
8.914133858267716
 20
9.477690288713912
 30
0.0
 10
8.906496062992126
 20
9.427821522309712
 30
0.0
 10
8.938320209973753
 20
9.427821522309712
 30
0.0
  0
SPLINE
  5
102
330
17
100
AcDbEntity
  8
GEOMETRY
100
AcDbSpline
 70
0
 71
3
 72
14
 73
10
 74
0
 40
0.0
 40
0.0
 40
0.0
 40
0.0
 40
1.0
 40
1.0
 40
1.0
 40
2.0
 40
2.0
 40
2.0
 40
3.0
 40
3.0
 40
3.0
 40
3.0
 10
8.938320209973753
 20
9.427821522309712
 30
0.0
 10
8.938320209973753
 20
9.420911144549473
 30
0.0
 10
8.940139611495821
 20
9.414121045629747
 30
0.0
 10
8.94359480037594
 20
9.408136482939632
 30
0.0
 10
8.94704998925606
 20
9.40215192024952
 30
0.0
 10
8.95202068665372
 20
9.397181222851861
 30
0.0
 10
8.958005249343833
 20
9.393726033971742
 30
0.0
 10
8.963989812033944
 20
9.390270845091623
 30
0.0
 10
8.970779910953672
 20
9.388451443569554
 30
0.0
 10
8.97769028871391
 20
9.388451443569554
 30
0.0
  0
POLYLINE
  5
103
330
17
100
AcDbEntity
  8
GEOMETRY
100
AcDb2dPolyline
 66
1
 10
0.0
 20
0.0
 30
0.0
 70
0
  0
VERTEX
  5
104
330
103
100
AcDbEntity
  8
GEOMETRY
100
AcDbVertex
100
AcDb2dVertex
 10
8.97769028871391
 20
9.388451443569554
 30
0.0
 70
0
  0
VERTEX
  5
105
330
103
100
AcDbEntity
  8
GEOMETRY
100
AcDbVertex
100
AcDb2dVertex
 10
8.97769028871391
 20
8.223097112860893
 30
0.0
 70
0
  0
SEQEND
  5
106
330
103
100
AcDbEntity
  8
GEOMETRY
  0
SPLINE
  5
107
330
17
100
AcDbEntity
  8
GEOMETRY
100
AcDbSpline
 70
0
 71
3
 72
14
 73
10
 74
0
 40
0.0
 40
0.0
 40
0.0
 40
0.0
 40
1.0
 40
1.0
 40
1.0
 40
2.0
 40
2.0
 40
2.0
 40
3.0
 40
3.0
 40
3.0
 40
3.0
 10
8.97769028871391
 20
8.223097112860893
 30
0.0
 10
8.970779910953672
 20
8.223097112860893
 30
0.0
 10
8.963989812033944
 20
8.221277711338825
 30
0.0
 10
8.958005249343833
 20
8.217822522458706
 30
0.0
 10
8.95202068665372
 20
8.214367333578586
 30
0.0
 10
8.94704998925606
 20
8.209396636180928
 30
0.0
 10
8.94359480037594
 20
8.203412073490814
 30
0.0
 10
8.940139611495821
 20
8.1974275108007
 30
0.0
 10
8.938320209973753
 20
8.190637411880974
 30
0.0
 10
8.938320209973753
 20
8.183727034120736
 30
0.0
  0
SPLINE
  5
108
330
17
100
AcDbEntity
  8
GEOMETRY
100
AcDbSpline
 70
0
 71
3
 72
11
 73
7
 74
0
 40
0.0
 40
0.0
 40
0.0
 40
0.0
 40
1.0
 40
1.0
 40
1.0
 40
2.0
 40
2.0
 40
2.0
 40
2.0
 10
8.938320209973753
 20
8.183727034120736
 30
0.0
 10
8.906496062992126
 20
8.183727034120736
 30
0.0
 10
8.914133858267716
 20
8.133858267716535
 30
0.0
 10
8.874671916010499
 20
8.133858267716535
 30
0.0
 10
8.835209973753281
 20
8.133858267716535
 30
0.0
 10
8.842847769028872
 20
8.183727034120736
 30
0.0
 10
8.811023622047244
 20
8.183727034120736
 30
0.0
  0
SPLINE
  5
109
330
17
100
AcDbEntity
  8
GEOMETRY
100
AcDbSpline
 70
0
 71
3
 72
14
 73
10
 74
0
 40
0.0
 40
0.0
 40
0.0
 40
0.0
 40
1.0
 40
1.0
 40
1.0
 40
2.0
 40
2.0
 40
2.0
 40
3.0
 40
3.0
 40
3.0
 40
3.0
 10
8.811023622047244
 20
8.183727034120736
 30
0.0
 10
8.811023622047244
 20
8.190637411880974
 30
0.0
 10
8.809204220525176
 20
8.1974275108007
 30
0.0
 10
8.805749031645057
 20
8.203412073490814
 30
0.0
 10
8.802293842764938
 20
8.209396636180928
 30
0.0
 10
8.797323145367278
 20
8.214367333578586
 30
0.0
 10
8.791338582677165
 20
8.217822522458706
 30
0.0
 10
8.785354019987052
 20
8.221277711338825
 30
0.0
 10
8.778563921067326
 20
8.223097112860893
 30
0.0
 10
8.771653543307087
 20
8.223097112860893
 30
0.0
  0
CIRCLE
  5
10A
330
17
100
AcDbEntity
  8
GEOMETRY
100
AcDbCircle
 10
8.775590551181102
 20
9.431758530183727
 30
0.0
 40
0.01706036745406824
  0
CIRCLE
  5
10B
330
17
100
AcDbEntity
  8
GEOMETRY
100
AcDbCircle
 10
8.775590551181102
 20
9.431758530183727
 30
0.0
 40
0.0068241469816272965
  0
CIRCLE
  5
10C
330
17
100
AcDbEntity
  8
GEOMETRY
100
AcDbCircle
 10
8.973753280839896
 20
9.431758530183727
 30
0.0
 40
0.01706036745406824
  0
CIRCLE
  5
10D
330
17
100
AcDbEntity
  8
GEOMETRY
100
AcDbCircle
 10
8.973753280839896
 20
9.431758530183727
 30
0.0
 40
0.0068241469816272965
  0
CIRCLE
  5
10E
330
17
100
AcDbEntity
  8
GEOMETRY
100
AcDbCircle
 10
8.775590551181102
 20
8.17979002624672
 30
0.0
 40
0.01706036745406824
  0
CIRCLE
  5
10F
330
17
100
AcDbEntity
  8
GEOMETRY
100
AcDbCircle
 10
8.775590551181102
 20
8.17979002624672
 30
0.0
 40
0.0068241469816272965
  0
CIRCLE
  5
110
330
17
100
AcDbEntity
  8
GEOMETRY
100
AcDbCircle
 10
8.973753280839896
 20
8.17979002624672
 30
0.0
 40
0.01706036745406824
  0
CIRCLE
  5
111
330
17
100
AcDbEntity
  8
GEOMETRY
100
AcDbCircle
 10
8.973753280839896
 20
8.17979002624672
 30
0.0
 40
0.0068241469816272965
  0
LWPOLYLINE
  5
112
330
17
100
AcDbEntity
  8
GEOMETRY
100
AcDbPolyline
 90
5
 70
0
 10
8.706036745406823
 20
7.766404199475066
 10
9.043307086614172
 20
7.766404199475066
 10
9.043307086614172
 20
7.028871391076116
 10
8.706036745406823
 20
7.028871391076116
 10
8.706036745406823
 20
7.766404199475066
  0
LWPOLYLINE
  5
113
330
17
100
AcDbEntity
  8
GEOMETRY
100
AcDbPolyline
 90
5
 70
0
 10
8.73228346456693
 20
7.740157480314961
 10
9.017060367454068
 20
7.740157480314961
 10
9.017060367454068
 20
7.05511811023622
 10
8.73228346456693
 20
7.05511811023622
 10
8.73228346456693
 20
7.740157480314961
  0
LINE
  5
114
330
17
100
AcDbEntity
  8
GEOMETRY
100
AcDbLine
 10
8.706036745406823
 20
7.7664041994750646
 30
0.0
 11
8.73228346456693
 21
7.74015748031496
 31
0.0
  0
LINE
  5
115
330
17
100
AcDbEntity
  8
GEOMETRY
100
AcDbLine
 10
9.043307086614172
 20
7.7664041994750646
 30
0.0
 11
9.017060367454068
 21
7.74015748031496
 31
0.0
  0
LINE
  5
116
330
17
100
AcDbEntity
  8
GEOMETRY
100
AcDbLine
 10
8.706036745406823
 20
7.028871391076115
 30
0.0
 11
8.73228346456693
 21
7.0551181102362195
 31
0.0
  0
LINE
  5
117
330
17
100
AcDbEntity
  8
GEOMETRY
100
AcDbLine
 10
9.043307086614172
 20
7.028871391076115
 30
0.0
 11
9.017060367454068
 21
7.0551181102362195
 31
0.0
  0
POLYLINE
  5
118
330
17
100
AcDbEntity
  8
GEOMETRY
100
AcDb2dPolyline
 66
1
 10
0.0
 20
0.0
 30
0.0
 70
0
  0
VERTEX
  5
119
330
118
100
AcDbEntity
  8
GEOMETRY
100
AcDbVertex
100
AcDb2dVertex
 10
8.771653543307087
 20
7.183727034120736
 30
0.0
 70
0
  0
VERTEX
  5
11A
330
118
100
AcDbEntity
  8
GEOMETRY
100
AcDbVertex
100
AcDb2dVertex
 10
8.771653543307087
 20
7.6115485564304475
 30
0.0
 70
0
  0
SEQEND
  5
11B
330
118
100
AcDbEntity
  8
GEOMETRY
  0
SPLINE
  5
11C
330
17
100
AcDbEntity
  8
GEOMETRY
100
AcDbSpline
 70
0
 71
3
 72
14
 73
10
 74
0
 40
0.0
 40
0.0
 40
0.0
 40
0.0
 40
1.0
 40
1.0
 40
1.0
 40
2.0
 40
2.0
 40
2.0
 40
3.0
 40
3.0
 40
3.0
 40
3.0
 10
8.771653543307087
 20
7.6115485564304475
 30
0.0
 10
8.778563921067326
 20
7.6115485564304475
 30
0.0
 10
8.785354019987052
 20
7.613367957952516
 30
0.0
 10
8.791338582677165
 20
7.616823146832635
 30
0.0
 10
8.797323145367278
 20
7.620278335712754
 30
0.0
 10
8.802293842764938
 20
7.625249033110412
 30
0.0
 10
8.805749031645057
 20
7.631233595800526
 30
0.0
 10
8.809204220525176
 20
7.637218158490639
 30
0.0
 10
8.811023622047244
 20
7.644008257410366
 30
0.0
 10
8.811023622047244
 20
7.650918635170605
 30
0.0
  0
SPLINE
  5
11D
330
17
100
AcDbEntity
  8
GEOMETRY
100
AcDbSpline
 70
0
 71
3
 72
11
 73
7
 74
0
 40
0.0
 40
0.0
 40
0.0
 40
0.0
 40
1.0
 40
1.0
 40
1.0
 40
2.0
 40
2.0
 40
2.0
 40
2.0
 10
8.811023622047244
 20
7.650918635170605
 30
0.0
 10
8.842847769028872
 20
7.650918635170605
 30
0.0
 10
8.835209973753281
 20
7.700787401574804
 30
0.0
 10
8.874671916010499
 20
7.700787401574804
 30
0.0
 10
8.914133858267716
 20
7.700787401574804
 30
0.0
 10
8.906496062992126
 20
7.650918635170605
 30
0.0
 10
8.938320209973753
 20
7.650918635170605
 30
0.0
  0
SPLINE
  5
11E
330
17
100
AcDbEntity
  8
GEOMETRY
100
AcDbSpline
 70
0
 71
3
 72
14
 73
10
 74
0
 40
0.0
 40
0.0
 40
0.0
 40
0.0
 40
1.0
 40
1.0
 40
1.0
 40
2.0
 40
2.0
 40
2.0
 40
3.0
 40
3.0
 40
3.0
 40
3.0
 10
8.938320209973753
 20
7.650918635170605
 30
0.0
 10
8.938320209973753
 20
7.644008257410366
 30
0.0
 10
8.940139611495821
 20
7.637218158490639
 30
0.0
 10
8.94359480037594
 20
7.631233595800526
 30
0.0
 10
8.94704998925606
 20
7.625249033110412
 30
0.0
 10
8.95202068665372
 20
7.620278335712754
 30
0.0
 10
8.958005249343833
 20
7.616823146832635
 30
0.0
 10
8.963989812033944
 20
7.613367957952516
 30
0.0
 10
8.970779910953672
 20
7.6115485564304475
 30
0.0
 10
8.97769028871391
 20
7.6115485564304475
 30
0.0
  0
POLYLINE
  5
11F
330
17
100
AcDbEntity
  8
GEOMETRY
100
AcDb2dPolyline
 66
1
 10
0.0
 20
0.0
 30
0.0
 70
0
  0
VERTEX
  5
120
330
11F
100
AcDbEntity
  8
GEOMETRY
100
AcDbVertex
100
AcDb2dVertex
 10
8.97769028871391
 20
7.6115485564304475
 30
0.0
 70
0
  0
VERTEX
  5
121
330
11F
100
AcDbEntity
  8
GEOMETRY
100
AcDbVertex
100
AcDb2dVertex
 10
8.97769028871391
 20
7.183727034120736
 30
0.0
 70
0
  0
SEQEND
  5
122
330
11F
100
AcDbEntity
  8
GEOMETRY
  0
SPLINE
  5
123
330
17
100
AcDbEntity
  8
GEOMETRY
100
AcDbSpline
 70
0
 71
3
 72
14
 73
10
 74
0
 40
0.0
 40
0.0
 40
0.0
 40
0.0
 40
1.0
 40
1.0
 40
1.0
 40
2.0
 40
2.0
 40
2.0
 40
3.0
 40
3.0
 40
3.0
 40
3.0
 10
8.97769028871391
 20
7.183727034120736
 30
0.0
 10
8.970779910953672
 20
7.183727034120736
 30
0.0
 10
8.963989812033944
 20
7.1819076325986675
 30
0.0
 10
8.958005249343833
 20
7.178452443718548
 30
0.0
 10
8.95202068665372
 20
7.174997254838429
 30
0.0
 10
8.94704998925606
 20
7.17002655744077
 30
0.0
 10
8.94359480037594
 20
7.164041994750657
 30
0.0
 10
8.940139611495821
 20
7.158057432060543
 30
0.0
 10
8.938320209973753
 20
7.151267333140816
 30
0.0
 10
8.938320209973753
 20
7.144356955380578
 30
0.0
  0
SPLINE
  5
124
330
17
100
AcDbEntity
  8
GEOMETRY
100
AcDbSpline
 70
0
 71
3
 72
11
 73
7
 74
0
 40
0.0
 40
0.0
 40
0.0
 40
0.0
 40
1.0
 40
1.0
 40
1.0
 40
2.0
 40
2.0
 40
2.0
 40
2.0
 10
8.938320209973753
 20
7.144356955380578
 30
0.0
 10
8.906496062992126
 20
7.144356955380578
 30
0.0
 10
8.914133858267716
 20
7.094488188976379
 30
0.0
 10
8.874671916010499
 20
7.094488188976379
 30
0.0
 10
8.835209973753281
 20
7.094488188976379
 30
0.0
 10
8.842847769028872
 20
7.144356955380578
 30
0.0
 10
8.811023622047244
 20
7.144356955380578
 30
0.0
  0
SPLINE
  5
125
330
17
100
AcDbEntity
  8
GEOMETRY
100
AcDbSpline
 70
0
 71
3
 72
14
 73
10
 74
0
 40
0.0
 40
0.0
 40
0.0
 40
0.0
 40
1.0
 40
1.0
 40
1.0
 40
2.0
 40
2.0
 40
2.0
 40
3.0
 40
3.0
 40
3.0
 40
3.0
 10
8.811023622047244
 20
7.144356955380578
 30
0.0
 10
8.811023622047244
 20
7.151267333140816
 30
0.0
 10
8.809204220525176
 20
7.158057432060543
 30
0.0
 10
8.805749031645057
 20
7.164041994750657
 30
0.0
 10
8.802293842764938
 20
7.17002655744077
 30
0.0
 10
8.797323145367278
 20
7.174997254838429
 30
0.0
 10
8.791338582677165
 20
7.178452443718548
 30
0.0
 10
8.785354019987052
 20
7.1819076325986675
 30
0.0
 10
8.778563921067326
 20
7.183727034120736
 30
0.0
 10
8.771653543307087
 20
7.183727034120736
 30
0.0
  0
CIRCLE
  5
126
330
17
100
AcDbEntity
  8
GEOMETRY
100
AcDbCircle
 10
8.775590551181102
 20
7.65485564304462
 30
0.0
 40
0.01706036745406824
  0
CIRCLE
  5
127
330
17
100
AcDbEntity
  8
GEOMETRY
100
AcDbCircle
 10
8.775590551181102
 20
7.65485564304462
 30
0.0
 40
0.0068241469816272965
  0
CIRCLE
  5
128
330
17
100
AcDbEntity
  8
GEOMETRY
100
AcDbCircle
 10
8.973753280839896
 20
7.65485564304462
 30
0.0
 40
0.01706036745406824
  0
CIRCLE
  5
129
330
17
100
AcDbEntity
  8
GEOMETRY
100
AcDbCircle
 10
8.973753280839896
 20
7.65485564304462
 30
0.0
 40
0.0068241469816272965
  0
CIRCLE
  5
12A
330
17
100
AcDbEntity
  8
GEOMETRY
100
AcDbCircle
 10
8.775590551181102
 20
7.140419947506562
 30
0.0
 40
0.01706036745406824
  0
CIRCLE
  5
12B
330
17
100
AcDbEntity
  8
GEOMETRY
100
AcDbCircle
 10
8.775590551181102
 20
7.140419947506562
 30
0.0
 40
0.0068241469816272965
  0
CIRCLE
  5
12C
330
17
100
AcDbEntity
  8
GEOMETRY
100
AcDbCircle
 10
8.973753280839896
 20
7.140419947506562
 30
0.0
 40
0.01706036745406824
  0
CIRCLE
  5
12D
330
17
100
AcDbEntity
  8
GEOMETRY
100
AcDbCircle
 10
8.973753280839896
 20
7.140419947506562
 30
0.0
 40
0.0068241469816272965
  0
LINE
  5
12E
330
17
100
AcDbEntity
  8
GEOMETRY
100
AcDbLine
 10
8.582677165354331
 20
9.6745406824147
 30
0.0
 11
8.582677165354331
 21
6.641732283464567
 31
0.0
  0
LWPOLYLINE
  5
12F
330
17
100
AcDbEntity
  8
GEOMETRY
100
AcDbPolyline
 90
5
 70
0
 10
7.774278215223097
 20
9.875328083989501
 10
9.375328083989501
 20
9.875328083989501
 10
9.375328083989501
 20
9.741469816272966
 10
7.774278215223097
 20
9.741469816272966
 10
7.774278215223097
 20
9.875328083989501
  0
LINE
  5
130
330
17
100
AcDbEntity
  8
GEOMETRY
100
AcDbLine
 10
7.774278215223097
 20
9.741469816272966
 30
0.0
 11
9.375328083989501
 21
9.741469816272966
 31
0.0
  0
LWPOLYLINE
  5
131
330
17
100
AcDbEntity
  8
GEOMETRY
100
AcDbPolyline
 90
5
 70
0
 10
3.6929133858267713
 20
9.376640419947508
 10
5.4934383202099735
 20
9.376640419947508
 10
5.4934383202099735
 20
7.376640419947507
 10
3.6929133858267713
 20
7.376640419947507
 10
3.6929133858267713
 20
9.376640419947508
  0
LWPOLYLINE
  5
132
330
17
100
AcDbEntity
  8
GEOMETRY
100
AcDbPolyline
 90
5
 70
0
 10
3.7716535433070866
 20
9.297900262467191
 10
5.414698162729659
 20
9.297900262467191
 10
5.414698162729659
 20
7.455380577427823
 10
3.7716535433070866
 20
7.455380577427823
 10
3.7716535433070866
 20
9.297900262467191
  0
LWPOLYLINE
  5
133
330
17
100
AcDbEntity
  8
GEOMETRY
100
AcDbPolyline
 90
5
 70
0
 10
3.8267716535433065
 20
10.065616797900264
 10
5.359580052493438
 20
10.065616797900264
 10
5.359580052493438
 20
9.665354330708663
 10
3.8267716535433065
 20
9.665354330708663
 10
3.8267716535433065
 20
10.065616797900264
  0
LINE
  5
134
330
17
100
AcDbEntity
  8
GEOMETRY
100
AcDbLine
 10
3.866141732283464
 20
9.745406824146981
 30
0.0
 11
5.320209973753281
 21
9.745406824146981
 31
0.0
  0
LINE
  5
135
330
17
100
AcDbEntity
  8
GEOMETRY
100
AcDbLine
 10
3.866141732283464
 20
9.8254593175853
 30
0.0
 11
5.320209973753281
 21
9.8254593175853
 31
0.0
  0
LINE
  5
136
330
17
100
AcDbEntity
  8
GEOMETRY
100
AcDbLine
 10
3.866141732283464
 20
9.905511811023622
 30
0.0
 11
5.320209973753281
 21
9.905511811023622
 31
0.0
  0
LINE
  5
137
330
17
100
AcDbEntity
  8
GEOMETRY
100
AcDbLine
 10
3.866141732283464
 20
9.985564304461942
 30
0.0
 11
5.320209973753281
 21
9.985564304461942
 31
0.0
  0
LINE
  5
138
330
17
100
AcDbEntity
  8
GEOMETRY
100
AcDbLine
 10
1.3385826771653544
 20
6.641732283464567
 30
0.0
 11
9.410761154855642
 21
6.641732283464567
 31
0.0
  0
LINE
  5
139
330
17
100
AcDbEntity
  8
GEOMETRY
  6
DASHED
100
AcDbLine
 10
1.3385826771653544
 20
10.275590551181102
 30
0.0
 11
9.410761154855642
 21
10.275590551181102
 31
0.0
  0
LINE
  5
13A
330
17
100
AcDbEntity
  8
DIMENSIONS
100
AcDbLine
 10
1.515748031496063
 20
6.444881889763779
 30
0.0
 11
9.233464566929134
 21
6.444881889763779
 31
0.0
  0
LINE
  5
13B
330
17
100
AcDbEntity
  8
DIMENSIONS
100
AcDbLine
 10
1.574803149606299
 20
6.602362204724409
 30
0.0
 11
1.574803149606299
 21
6.397637795275591
 31
0.0
  0
LINE
  5
13C
330
17
100
AcDbEntity
  8
DIMENSIONS
100
AcDbLine
 10
1.5354330708661417
 20
6.405511811023621
 30
0.0
 11
1.6141732283464567
 21
6.484251968503936
 31
0.0
  0
LINE
  5
13D
330
17
100
AcDbEntity
  8
DIMENSIONS
100
AcDbLine
 10
3.6929133858267713
 20
6.602362204724409
 30
0.0
 11
3.6929133858267713
 21
6.397637795275591
 31
0.0
  0
LINE
  5
13E
330
17
100
AcDbEntity
  8
DIMENSIONS
100
AcDbLine
 10
3.653543307086614
 20
6.405511811023621
 30
0.0
 11
3.732283464566929
 21
6.484251968503936
 31
0.0
  0
LINE
  5
13F
330
17
100
AcDbEntity
  8
DIMENSIONS
100
AcDbLine
 10
5.493307086614173
 20
6.602362204724409
 30
0.0
 11
5.493307086614173
 21
6.397637795275591
 31
0.0
  0
LINE
  5
140
330
17
100
AcDbEntity
  8
DIMENSIONS
100
AcDbLine
 10
5.453937007874016
 20
6.405511811023621
 30
0.0
 11
5.532677165354331
 21
6.484251968503936
 31
0.0
  0
LINE
  5
141
330
17
100
AcDbEntity
  8
DIMENSIONS
100
AcDbLine
 10
7.6114173228346464
 20
6.602362204724409
 30
0.0
 11
7.6114173228346464
 21
6.397637795275591
 31
0.0
  0
LINE
  5
142
330
17
100
AcDbEntity
  8
DIMENSIONS
100
AcDbLine
 10
7.572047244094488
 20
6.405511811023621
 30
0.0
 11
7.650787401574804
 21
6.484251968503936
 31
0.0
  0
LINE
  5
143
330
17
100
AcDbEntity
  8
DIMENSIONS
100
AcDbLine
 10
7.975196850393701
 20
6.602362204724409
 30
0.0
 11
7.975196850393701
 21
6.397637795275591
 31
0.0
  0
LINE
  5
144
330
17
100
AcDbEntity
  8
DIMENSIONS
100
AcDbLine
 10
7.935826771653543
 20
6.405511811023621
 30
0.0
 11
8.014566929133858
 21
6.484251968503936
 31
0.0
  0
LINE
  5
145
330
17
100
AcDbEntity
  8
DIMENSIONS
100
AcDbLine
 10
9.174409448818897
 20
6.602362204724409
 30
0.0
 11
9.174409448818897
 21
6.397637795275591
 31
0.0
  0
LINE
  5
146
330
17
100
AcDbEntity
  8
DIMENSIONS
100
AcDbLine
 10
9.13503937007874
 20
6.405511811023621
 30
0.0
 11
9.213779527559055
 21
6.484251968503936
 31
0.0
  0
TEXT
  5
147
330
17
100
AcDbEntity
  8
TEXT
100
AcDbText
 10
2.6338582677165356
 20
6.4763779527559056
 30
0.0
 40
0.035433070866141725
  1
5'-3½"
 72
1
 11
2.6338582677165356
 21
6.4763779527559056
 31
0.0
100
AcDbText
  0
TEXT
  5
148
330
17
100
AcDbEntity
  8
TEXT
100
AcDbText
 10
4.592913385826772
 20
6.4763779527559056
 30
0.0
 40
0.035433070866141725
  1
4'-6"
 72
1
 11
4.592913385826772
 21
6.4763779527559056
 31
0.0
100
AcDbText
  0
TEXT
  5
149
330
17
100
AcDbEntity
  8
TEXT
100
AcDbText
 10
6.5523622047244094
 20
6.4763779527559056
 30
0.0
 40
0.035433070866141725
  1
5'-3½"
 72
1
 11
6.5523622047244094
 21
6.4763779527559056
 31
0.0
100
AcDbText
  0
TEXT
  5
14A
330
17
100
AcDbEntity
  8
TEXT
100
AcDbText
 10
7.793307086614172
 20
6.4763779527559056
 30
0.0
 40
0.035433070866141725
  1
10⅞"
 72
1
 11
7.793307086614172
 21
6.4763779527559056
 31
0.0
100
AcDbText
  0
TEXT
  5
14B
330
17
100
AcDbEntity
  8
TEXT
100
AcDbText
 10
8.5748031496063
 20
6.4763779527559056
 30
0.0
 40
0.035433070866141725
  1
3'-0"
 72
1
 11
8.5748031496063
 21
6.4763779527559056
 31
0.0
100
AcDbText
  0
LINE
  5
14C
330
17
100
AcDbEntity
  8
DIMENSIONS
100
AcDbLine
 10
1.515748031496063
 20
6.208661417322834
 30
0.0
 11
9.233464566929134
 21
6.208661417322834
 31
0.0
  0
LINE
  5
14D
330
17
100
AcDbEntity
  8
DIMENSIONS
100
AcDbLine
 10
1.574803149606299
 20
6.602362204724409
 30
0.0
 11
1.574803149606299
 21
6.161417322834645
 31
0.0
  0
LINE
  5
14E
330
17
100
AcDbEntity
  8
DIMENSIONS
100
AcDbLine
 10
1.5354330708661417
 20
6.169291338582677
 30
0.0
 11
1.6141732283464567
 21
6.248031496062992
 31
0.0
  0
LINE
  5
14F
330
17
100
AcDbEntity
  8
DIMENSIONS
100
AcDbLine
 10
9.174409448818897
 20
6.602362204724409
 30
0.0
 11
9.174409448818897
 21
6.161417322834645
 31
0.0
  0
LINE
  5
150
330
17
100
AcDbEntity
  8
DIMENSIONS
100
AcDbLine
 10
9.13503937007874
 20
6.169291338582677
 30
0.0
 11
9.213779527559055
 21
6.248031496062992
 31
0.0
  0
TEXT
  5
151
330
17
100
AcDbEntity
  8
TEXT
100
AcDbText
 10
5.374409448818898
 20
6.24015748031496
 30
0.0
 40
0.04251968503937008
  1
19'-0" OVERALL — 19 ft 0 in
 72
1
 11
5.374409448818898
 21
6.24015748031496
 31
0.0
100
AcDbText
  0
LINE
  5
152
330
17
100
AcDbEntity
  8
DIMENSIONS
100
AcDbLine
 10
9.410629921259842
 20
6.700787401574803
 30
0.0
 11
9.410629921259842
 21
10.216535433070867
 31
0.0
  0
LINE
  5
153
330
17
100
AcDbEntity
  8
DIMENSIONS
100
AcDbLine
 10
9.213779527559055
 20
6.641732283464567
 30
0.0
 11
9.45787401574803
 21
6.641732283464567
 31
0.0
  0
LINE
  5
154
330
17
100
AcDbEntity
  8
DIMENSIONS
100
AcDbLine
 10
9.371259842519684
 20
6.602362204724409
 30
0.0
 11
9.45
 21
6.681102362204724
 31
0.0
  0
LINE
  5
155
330
17
100
AcDbEntity
  8
DIMENSIONS
100
AcDbLine
 10
9.213779527559055
 20
7.376771653543307
 30
0.0
 11
9.45787401574803
 21
7.376771653543307
 31
0.0
  0
LINE
  5
156
330
17
100
AcDbEntity
  8
DIMENSIONS
100
AcDbLine
 10
9.371259842519684
 20
7.33740157480315
 30
0.0
 11
9.45
 21
7.416141732283465
 31
0.0
  0
LINE
  5
157
330
17
100
AcDbEntity
  8
DIMENSIONS
100
AcDbLine
 10
9.213779527559055
 20
9.376771653543308
 30
0.0
 11
9.45787401574803
 21
9.376771653543308
 31
0.0
  0
LINE
  5
158
330
17
100
AcDbEntity
  8
DIMENSIONS
100
AcDbLine
 10
9.371259842519684
 20
9.33740157480315
 30
0.0
 11
9.45
 21
9.416141732283466
 31
0.0
  0
LINE
  5
159
330
17
100
AcDbEntity
  8
DIMENSIONS
100
AcDbLine
 10
9.213779527559055
 20
9.665354330708661
 30
0.0
 11
9.45787401574803
 21
9.665354330708661
 31
0.0
  0
LINE
  5
15A
330
17
100
AcDbEntity
  8
DIMENSIONS
100
AcDbLine
 10
9.371259842519684
 20
9.625984251968504
 30
0.0
 11
9.45
 21
9.704724409448819
 31
0.0
  0
LINE
  5
15B
330
17
100
AcDbEntity
  8
DIMENSIONS
100
AcDbLine
 10
9.213779527559055
 20
10.065748031496064
 30
0.0
 11
9.45787401574803
 21
10.065748031496064
 31
0.0
  0
LINE
  5
15C
330
17
100
AcDbEntity
  8
DIMENSIONS
100
AcDbLine
 10
9.371259842519684
 20
10.026377952755906
 30
0.0
 11
9.45
 21
10.105118110236221
 31
0.0
  0
LINE
  5
15D
330
17
100
AcDbEntity
  8
DIMENSIONS
100
AcDbLine
 10
9.213779527559055
 20
10.275590551181102
 30
0.0
 11
9.45787401574803
 21
10.275590551181102
 31
0.0
  0
LINE
  5
15E
330
17
100
AcDbEntity
  8
DIMENSIONS
100
AcDbLine
 10
9.371259842519684
 20
10.236220472440944
 30
0.0
 11
9.45
 21
10.31496062992126
 31
0.0
  0
TEXT
  5
15F
330
17
100
AcDbEntity
  8
TEXT
100
AcDbText
 10
9.379133858267716
 20
7.009055118110236
 30
0.0
 40
0.035433070866141725
  1
1'-10"
 50
90.0
 72
1
 11
9.379133858267716
 21
7.009055118110236
 31
0.0
100
AcDbText
  0
TEXT
  5
160
330
17
100
AcDbEntity
  8
TEXT
100
AcDbText
 10
9.379133858267716
 20
8.376771653543308
 30
0.0
 40
0.035433070866141725
  1
5'-0"
 50
90.0
 72
1
 11
9.379133858267716
 21
8.376771653543308
 31
0.0
100
AcDbText
  0
TEXT
  5
161
330
17
100
AcDbEntity
  8
TEXT
100
AcDbText
 10
9.379133858267718
 20
9.521259842519685
 30
0.0
 40
0.035433070866141725
  1
8⅝"
 50
90.0
 72
1
 11
9.379133858267718
 21
9.521259842519685
 31
0.0
100
AcDbText
  0
TEXT
  5
162
330
17
100
AcDbEntity
  8
TEXT
100
AcDbText
 10
9.379133858267718
 20
9.865748031496063
 30
0.0
 40
0.035433070866141725
  1
1'-0"
 50
90.0
 72
1
 11
9.379133858267718
 21
9.865748031496063
 31
0.0
100
AcDbText
  0
TEXT
  5
163
330
17
100
AcDbEntity
  8
TEXT
100
AcDbText
 10
9.379133858267718
 20
10.170866141732285
 30
0.0
 40
0.035433070866141725
  1
6¼"
 50
90.0
 72
1
 11
9.379133858267718
 21
10.170866141732285
 31
0.0
100
AcDbText
  0
LWPOLYLINE
  5
164
330
17
100
AcDbEntity
  8
GEOMETRY
100
AcDbPolyline
 90
3
 70
0
 10
3.826771653543307
 20
9.865354330708662
 10
1.7322834645669292
 20
9.896850393700788
 10
1.4960629921259843
 20
9.896850393700788
  0
TEXT
  5
165
330
17
100
AcDbEntity
  8
TEXT
100
AcDbText
 10
1.4330708661417322
 20
9.873228346456694
 30
0.0
 40
0.051023622047244095
  1
AIR CONDITIONER
 72
2
 11
1.4330708661417322
 21
9.873228346456694
 31
0.0
100
AcDbText
  0
TEXT
  5
166
330
17
100
AcDbEntity
  8
TEXT
100
AcDbText
 10
1.4330708661417322
 20
9.762992125984251
 30
0.0
 40
0.04110236220472441
  1
3 FT 10 IN × 1 FT
 72
2
 11
1.4330708661417322
 21
9.762992125984251
 31
0.0
100
AcDbText
  0
LWPOLYLINE
  5
167
330
17
100
AcDbEntity
  8
GEOMETRY
100
AcDbPolyline
 90
3
 70
0
 10
7.6114173228346464
 20
9.13503937007874
 10
1.7322834645669292
 20
9.166535433070866
 10
1.4960629921259843
 20
9.166535433070866
  0
TEXT
  5
168
330
17
100
AcDbEntity
  8
TEXT
100
AcDbText
 10
1.4330708661417322
 20
9.142913385826771
 30
0.0
 40
0.051023622047244095
  1
THE STEP
 72
2
 11
1.4330708661417322
 21
9.142913385826771
 31
0.0
100
AcDbText
  0
TEXT
  5
169
330
17
100
AcDbEntity
  8
TEXT
100
AcDbText
 10
1.4330708661417322
 20
9.03267716535433
 30
0.0
 40
0.04110236220472441
  1
5 IN FURTHER IN PAST HERE
 72
2
 11
1.4330708661417322
 21
9.03267716535433
 31
0.0
100
AcDbText
  0
LWPOLYLINE
  5
16A
330
17
100
AcDbEntity
  8
GEOMETRY
100
AcDbPolyline
 90
3
 70
0
 10
4.593307086614173
 20
8.376771653543308
 10
1.7322834645669292
 20
8.779527559055119
 10
1.4960629921259843
 20
8.779527559055119
  0
TEXT
  5
16B
330
17
100
AcDbEntity
  8
TEXT
100
AcDbText
 10
1.4330708661417322
 20
8.755905511811024
 30
0.0
 40
0.051023622047244095
  1
PAINTING
 72
2
 11
1.4330708661417322
 21
8.755905511811024
 31
0.0
100
AcDbText
  0
TEXT
  5
16C
330
17
100
AcDbEntity
  8
TEXT
100
AcDbText
 10
1.4330708661417322
 20
8.645669291338582
 30
0.0
 40
0.04110236220472441
  1
SIZE AND HEIGHT TO CONFIRM
 72
2
 11
1.4330708661417322
 21
8.645669291338582
 31
0.0
100
AcDbText
  0
LWPOLYLINE
  5
16D
330
17
100
AcDbEntity
  8
GEOMETRY
100
AcDbPolyline
 90
3
 70
0
 10
8.5748031496063
 20
8.216535433070867
 10
1.7322834645669292
 20
8.433070866141733
 10
1.4960629921259843
 20
8.433070866141733
  0
TEXT
  5
16E
330
17
100
AcDbEntity
  8
TEXT
100
AcDbText
 10
1.4330708661417322
 20
8.409448818897637
 30
0.0
 40
0.051023622047244095
  1
ENTRANCE · PLAIN CASING
 72
2
 11
1.4330708661417322
 21
8.409448818897637
 31
0.0
100
AcDbText
  0
TEXT
  5
16F
330
17
100
AcDbEntity
  8
TEXT
100
AcDbText
 10
1.4330708661417322
 20
8.299212598425196
 30
0.0
 40
0.04110236220472441
  1
3 FT · OPENS FLAT ON THE BED WALL
 72
2
 11
1.4330708661417322
 21
8.299212598425196
 31
0.0
100
AcDbText
  0
LWPOLYLINE
  5
170
330
17
100
AcDbEntity
  8
GEOMETRY
100
AcDbPolyline
 90
3
 70
0
 10
1.968503937007874
 20
6.720472440944882
 10
1.7322834645669292
 20
8.086614173228348
 10
1.4960629921259843
 20
8.086614173228348
  0
TEXT
  5
171
330
17
100
AcDbEntity
  8
TEXT
100
AcDbText
 10
1.4330708661417322
 20
8.062992125984252
 30
0.0
 40
0.051023622047244095
  1
MARBLE SKIRTING
 72
2
 11
1.4330708661417322
 21
8.062992125984252
 31
0.0
100
AcDbText
  0
TEXT
  5
172
330
17
100
AcDbEntity
  8
TEXT
100
AcDbText
 10
1.4330708661417322
 20
7.952755905511811
 30
0.0
 40
0.04110236220472441
  1
4 IN
 72
2
 11
1.4330708661417322
 21
7.952755905511811
 31
0.0
100
AcDbText
  0
TEXT
  5
173
330
17
100
AcDbEntity
  8
TEXT
100
AcDbText
 10
0.7086614173228346
 20
5.787401574803149
 30
0.0
 40
0.09070866141732283
  1
PLAN
 11
0.7086614173228346
 21
5.787401574803149
 31
0.0
100
AcDbText
  0
LINE
  5
174
330
17
100
AcDbEntity
  8
GEOMETRY
100
AcDbLine
 10
0.7086614173228346
 20
5.728346456692913
 30
0.0
 11
3.4645669291338583
 21
5.728346456692913
 31
0.0
  0
TEXT
  5
175
330
17
100
AcDbEntity
  8
TEXT
100
AcDbText
 10
0.7086614173228346
 20
5.5984251968503935
 30
0.0
 40
0.048188976377952754
  1
CUT AT 1200 · SCALE 1:30 · ROOM BELOW THE WALL
 11
0.7086614173228346
 21
5.5984251968503935
 31
0.0
100
AcDbText
  0
HATCH
  5
176
330
17
100
AcDbEntity
  8
HATCH
 62
7
100
AcDbHatch
 10
0.0
 20
0.0
 30
0.0
210
0.0
220
0.0
230
1.0
  2
ANSI31
 70
0
 71
0
 91
1
 92
3
 72
0
 73
1
 93
5
 10
1.574803149606299
 20
4.763779527559055
 10
7.611548556430447
 20
4.763779527559055
 10
7.611548556430447
 20
4.461942257217848
 10
1.574803149606299
 20
4.461942257217848
 10
1.574803149606299
 20
4.763779527559055
 97
0
 75
1
 76
1
 52
0.0
 41
0.015748031496062992
 77
0
 78
1
 53
45.0
 43
0.0
 44
0.0
 45
-0.0013919425
 46
0.0013919425
 79
0
 98
0
  0
HATCH
  5
177
330
17
100
AcDbEntity
  8
HATCH
 62
7
100
AcDbHatch
 10
0.0
 20
0.0
 30
0.0
210
0.0
220
0.0
230
1.0
  2
ANSI31
 70
0
 71
0
 91
1
 92
3
 72
0
 73
1
 93
5
 10
7.611548556430447
 20
4.930446194225722
 10
9.1745406824147
 20
4.930446194225722
 10
9.1745406824147
 20
4.461942257217847
 10
7.611548556430447
 20
4.461942257217847
 10
7.611548556430447
 20
4.930446194225722
 97
0
 75
1
 76
1
 52
0.0
 41
0.015748031496062992
 77
0
 78
1
 53
45.0
 43
0.0
 44
0.0
 45
-0.0013919425
 46
0.0013919425
 79
0
 98
0
  0
LWPOLYLINE
  5
178
330
17
100
AcDbEntity
  8
GEOMETRY
100
AcDbPolyline
 90
4
 70
0
 10
1.574803149606299
 20
4.7637795275590555
 10
7.611548556430447
 20
4.7637795275590555
 10
7.611548556430447
 20
4.930446194225722
 10
7.9750656167979
 20
4.930446194225722
  0
LWPOLYLINE
  5
179
330
17
100
AcDbEntity
  8
GEOMETRY
100
AcDbPolyline
 90
2
 70
0
 10
1.574803149606299
 20
4.461942257217848
 10
9.174540682414698
 20
4.461942257217848
  0
LINE
  5
17A
330
17
100
AcDbEntity
  8
GEOMETRY
100
AcDbLine
 10
9.174540682414698
 20
4.930446194225722
 30
0.0
 11
9.174540682414698
 21
6.1299212598425195
 31
0.0
  0
SPLINE
  5
17B
330
17
100
AcDbEntity
  8
GEOMETRY
  6
DASHED
100
AcDbSpline
 70
0
 71
3
 72
14
 73
10
 74
0
 40
0.0
 40
0.0
 40
0.0
 40
0.0
 40
1.0
 40
1.0
 40
1.0
 40
2.0
 40
2.0
 40
2.0
 40
3.0
 40
3.0
 40
3.0
 40
3.0
 10
9.174540682414698
 20
6.1299212598425195
 30
0.0
 10
9.174540682414698
 20
5.919385084080595
 30
0.0
 10
9.119109582709017
 20
5.712513403659574
 30
0.0
 10
9.013841494828053
 20
5.530183727034122
 30
0.0
 10
8.908573406947092
 20
5.347854050408669
 30
0.0
 10
8.757132826231752
 20
5.19641346969333
 30
0.0
 10
8.5748031496063
 20
5.091145381812367
 30
0.0
 10
8.392473472980846
 20
4.985877293931404
 30
0.0
 10
8.185601792559824
 20
4.930446194225722
 30
0.0
 10
7.9750656167979
 20
4.930446194225722
 30
0.0
  0
LWPOLYLINE
  5
17C
330
17
100
AcDbEntity
  8
GEOMETRY
  6
DASHED
100
AcDbPolyline
 90
5
 70
0
 10
3.8267716535433065
 20
5.192913385826772
 10
5.359580052493438
 20
5.192913385826772
 10
5.359580052493438
 20
4.930446194225723
 10
3.8267716535433065
 20
4.930446194225723
 10
3.8267716535433065
 20
5.192913385826772
  0
TEXT
  5
17D
330
17
100
AcDbEntity
  8
TEXT
100
AcDbText
 10
0.7086614173228346
 20
3.267716535433071
 30
0.0
 40
0.09070866141732283
  1
NOTES
 11
0.7086614173228346
 21
3.267716535433071
 31
0.0
100
AcDbText
  0
LINE
  5
17E
330
17
100
AcDbEntity
  8
GEOMETRY
100
AcDbLine
 10
0.7086614173228346
 20
3.2086614173228347
 30
0.0
 11
5.354330708661418
 21
3.2086614173228347
 31
0.0
  0
TEXT
  5
17F
330
17
100
AcDbEntity
  8
TEXT
100
AcDbText
 10
0.7086614173228346
 20
3.0787401574803144
 30
0.0
 40
0.048188976377952754
  1
REVISION 5
 11
0.7086614173228346
 21
3.0787401574803144
 31
0.0
100
AcDbText
  0
TEXT
  5
180
330
17
100
AcDbEntity
  8
TEXT
100
AcDbText
 10
0.7086614173228346
 20
2.795275590551181
 30
0.0
 40
0.04535433070866141
  1
This wall stays plain. Paint, the marble skirting, one painting and the
 11
0.7086614173228346
 21
2.795275590551181
 31
0.0
100
AcDbText
  0
TEXT
  5
181
330
17
100
AcDbEntity
  8
TEXT
100
AcDbText
 10
0.7086614173228346
 20
2.614173228346457
 30
0.0
 40
0.04535433070866141
  1
air conditioner over it — nothing is built into it and nothing is panelled.
 11
0.7086614173228346
 21
2.614173228346457
 31
0.0
100
AcDbText
  0
TEXT
  5
182
330
17
100
AcDbEntity
  8
TEXT
100
AcDbText
 10
0.7086614173228346
 20
2.433070866141733
 30
0.0
 40
0.04535433070866141
  1
It is the quiet side of the room, opposite the panelled right wall, and it
 11
0.7086614173228346
 21
2.433070866141733
 31
0.0
100
AcDbText
  0
TEXT
  5
183
330
17
100
AcDbEntity
  8
TEXT
100
AcDbText
 10
0.7086614173228346
 20
2.2519685039370074
 30
0.0
 40
0.04535433070866141
  1
is the wall that carries the splay and the step, so anything fitted to it
 11
0.7086614173228346
 21
2.2519685039370074
 31
0.0
100
AcDbText
  0
TEXT
  5
184
330
17
100
AcDbEntity
  8
TEXT
100
AcDbText
 10
0.7086614173228346
 20
2.0708661417322833
 30
0.0
 40
0.04535433070866141
  1
would have to be scribed twice.
 11
0.7086614173228346
 21
2.0708661417322833
 31
0.0
100
AcDbText
  0
TEXT
  5
185
330
17
100
AcDbEntity
  8
TEXT
100
AcDbText
 10
0.7086614173228346
 20
1.889763779527559
 30
0.0
 40
0.04535433070866141
  1
The painting is centred on the 15 ft 1⅛ in of wall before the step, the only
 11
0.7086614173228346
 21
1.889763779527559
 31
0.0
100
AcDbText
  0
TEXT
  5
186
330
17
100
AcDbEntity
  8
TEXT
100
AcDbText
 10
0.7086614173228346
 20
1.708661417322835
 30
0.0
 40
0.04535433070866141
  1
uninterrupted run. Centre line 7 ft 6½ in from the study corner, 1 ft 10 in off the floor.
 11
0.7086614173228346
 21
1.708661417322835
 31
0.0
100
AcDbText
  0
TEXT
  5
187
330
17
100
AcDbEntity
  8
TEXT
100
AcDbText
 10
5.118110236220472
 20
2.795275590551181
 30
0.0
 40
0.04535433070866141
  1
OPEN — the painting is drawn 4 ft 6 in × 5 ft 0 in, centred at 4 ft 4 in.
 11
5.118110236220472
 21
2.795275590551181
 31
0.0
100
AcDbText
  0
TEXT
  5
188
330
17
100
AcDbEntity
  8
TEXT
100
AcDbText
 10
5.118110236220472
 20
2.614173228346457
 30
0.0
 40
0.04535433070866141
  1
Still assumed. Send the real size and it is a one-line change.
 11
5.118110236220472
 21
2.614173228346457
 31
0.0
100
AcDbText
  0
TEXT
  5
189
330
17
100
AcDbEntity
  8
TEXT
100
AcDbText
 10
5.118110236220472
 20
2.433070866141733
 30
0.0
 40
0.04535433070866141
  1
Sized to the wall it has: 8⅝ in clear under the air conditioner, and
 11
5.118110236220472
 21
2.433070866141733
 31
0.0
100
AcDbText
  0
TEXT
  5
18A
330
17
100
AcDbEntity
  8
TEXT
100
AcDbText
 10
5.118110236220472
 20
2.2519685039370074
 30
0.0
 40
0.04535433070866141
  1
8 in wider than the unit, so the AC sits within its width.
 11
5.118110236220472
 21
2.2519685039370074
 31
0.0
100
AcDbText
  0
TEXT
  5
18B
330
17
100
AcDbEntity
  8
TEXT
100
AcDbText
 10
5.118110236220472
 20
2.0708661417322833
 30
0.0
 40
0.04535433070866141
  1
The air conditioner is 3 ft 10 in × 1 ft 0 in — MEASURED. Its depth (7⅞ in)
 11
5.118110236220472
 21
2.0708661417322833
 31
0.0
100
AcDbText
  0
TEXT
  5
18C
330
17
100
AcDbEntity
  8
TEXT
100
AcDbText
 10
5.118110236220472
 20
1.889763779527559
 30
0.0
 40
0.04535433070866141
  1
and its height off the ceiling (6¼ in) are still assumed.
 11
5.118110236220472
 21
1.889763779527559
 31
0.0
100
AcDbText
  0
TEXT
  5
18D
330
17
100
AcDbEntity
  8
TEXT
100
AcDbText
 10
5.118110236220472
 20
1.708661417322835
 30
0.0
 40
0.04535433070866141
  1
The AC needs a power point and a drain run before the wall is painted —
 11
5.118110236220472
 21
1.708661417322835
 31
0.0
100
AcDbText
  0
TEXT
  5
18E
330
17
100
AcDbEntity
  8
TEXT
100
AcDbText
 10
5.118110236220472
 20
1.5275590551181106
 30
0.0
 40
0.04535433070866141
  1
decide the side the pipework leaves on.
 11
5.118110236220472
 21
1.5275590551181106
 31
0.0
100
AcDbText
  0
TEXT
  5
18F
330
17
100
AcDbEntity
  8
TEXT
100
AcDbText
 10
5.118110236220472
 20
1.3464566929133854
 30
0.0
 40
0.04535433070866141
  1
The entrance takes the PLAIN casing: same 2 in lining and 4 in moulding as
 11
5.118110236220472
 21
1.3464566929133854
 31
0.0
100
AcDbText
  0
TEXT
  5
190
330
17
100
AcDbEntity
  8
TEXT
100
AcDbText
 10
5.118110236220472
 20
1.1653543307086622
 30
0.0
 40
0.04535433070866141
  1
every opening, running straight across the head and stopping. The carved
 11
5.118110236220472
 21
1.1653543307086622
 31
0.0
100
AcDbText
  0
TEXT
  5
191
330
17
100
AcDbEntity
  8
TEXT
100
AcDbText
 10
5.118110236220472
 20
0.984251968503937
 30
0.0
 40
0.04535433070866141
  1
head on AST-DR-011 is the DRESSING door's alone.
 11
5.118110236220472
 21
0.984251968503937
 31
0.0
100
AcDbText
  0
TEXT
  5
192
330
17
100
AcDbEntity
  8
TEXT
100
AcDbText
 10
5.118110236220472
 20
0.8031496062992117
 30
0.0
 40
0.04535433070866141
  1
OPEN — the profile of that 4 in plain band is not settled. Drawn flat.
 11
5.118110236220472
 21
0.8031496062992117
 31
0.0
100
AcDbText
  0
LWPOLYLINE
  5
193
330
17
100
AcDbEntity
  8
GEOMETRY
100
AcDbPolyline
 90
5
 70
0
 10
11.811023622047244
 20
2.283464566929135
 10
16.22047244094488
 20
2.283464566929135
 10
16.22047244094488
 20
0.31496062992126106
 10
11.811023622047244
 20
0.31496062992126106
 10
11.811023622047244
 20
2.283464566929135
  0
LINE
  5
194
330
17
100
AcDbEntity
  8
GEOMETRY
100
AcDbLine
 10
11.811023622047244
 20
1.7322834645669292
 30
0.0
 11
16.22047244094488
 21
1.7322834645669292
 31
0.0
  0
LINE
  5
195
330
17
100
AcDbEntity
  8
GEOMETRY
100
AcDbLine
 10
11.811023622047244
 20
1.1023622047244095
 30
0.0
 11
16.22047244094488
 21
1.1023622047244095
 31
0.0
  0
LINE
  5
196
330
17
100
AcDbEntity
  8
GEOMETRY
100
AcDbLine
 10
11.811023622047244
 20
0.7086614173228346
 30
0.0
 11
16.22047244094488
 21
0.7086614173228346
 31
0.0
  0
LINE
  5
197
330
17
100
AcDbEntity
  8
GEOMETRY
100
AcDbLine
 10
14.015748031496063
 20
1.1023622047244095
 30
0.0
 11
14.015748031496063
 21
0.31496062992125984
 31
0.0
  0
TEXT
  5
198
330
17
100
AcDbEntity
  8
TEXT
100
AcDbText
 10
11.929133858267717
 20
2.02755905511811
 30
0.0
 40
0.09637795275590551
  1
A STUDY IN TEAK
 11
11.929133858267717
 21
2.02755905511811
 31
0.0
100
AcDbText
  0
TEXT
  5
199
330
17
100
AcDbEntity
  8
TEXT
100
AcDbText
 10
11.929133858267717
 20
1.8503937007874016
 30
0.0
 40
0.05385826771653543
  1
Particulars of the room
 11
11.929133858267717
 21
1.8503937007874016
 31
0.0
100
AcDbText
  0
TEXT
  5
19A
330
17
100
AcDbEntity
  8
TEXT
100
AcDbText
 10
11.929133858267717
 20
1.4763779527559056
 30
0.0
 40
0.09637795275590551
  1
LEFT WALL
 11
11.929133858267717
 21
1.4763779527559056
 31
0.0
100
AcDbText
  0
TEXT
  5
19B
330
17
100
AcDbEntity
  8
TEXT
100
AcDbText
 10
11.929133858267717
 20
1.2598425196850394
 30
0.0
 40
0.05669291338582677
  1
Elevation · Plan · The plain wall
 11
11.929133858267717
 21
1.2598425196850394
 31
0.0
100
AcDbText
  0
TEXT
  5
19C
330
17
100
AcDbEntity
  8
TEXT
100
AcDbText
 10
11.929133858267717
 20
0.9448818897637795
 30
0.0
 40
0.04251968503937008
  1
SCALE
 11
11.929133858267717
 21
0.9448818897637795
 31
0.0
100
AcDbText
  0
TEXT
  5
19D
330
17
100
AcDbEntity
  8
TEXT
100
AcDbText
 10
11.929133858267717
 20
0.7874015748031495
 30
0.0
 40
0.05952755905511811
  1
1:30 @ A3
 11
11.929133858267717
 21
0.7874015748031495
 31
0.0
100
AcDbText
  0
TEXT
  5
19E
330
17
100
AcDbEntity
  8
TEXT
100
AcDbText
 10
14.133858267716535
 20
0.9448818897637795
 30
0.0
 40
0.04251968503937008
  1
DATE
 11
14.133858267716535
 21
0.9448818897637795
 31
0.0
100
AcDbText
  0
TEXT
  5
19F
330
17
100
AcDbEntity
  8
TEXT
100
AcDbText
 10
14.133858267716535
 20
0.7874015748031495
 30
0.0
 40
0.05952755905511811
  1
23.09.2026
 11
14.133858267716535
 21
0.7874015748031495
 31
0.0
100
AcDbText
  0
TEXT
  5
1A0
330
17
100
AcDbEntity
  8
TEXT
100
AcDbText
 10
11.929133858267717
 20
0.5511811023622047
 30
0.0
 40
0.04251968503937008
  1
REV
 11
11.929133858267717
 21
0.5511811023622047
 31
0.0
100
AcDbText
  0
TEXT
  5
1A1
330
17
100
AcDbEntity
  8
TEXT
100
AcDbText
 10
11.929133858267717
 20
0.39370078740157477
 30
0.0
 40
0.051023622047244095
  1
5 — the painting widened to 4 ft 6 in
 11
11.929133858267717
 21
0.39370078740157477
 31
0.0
100
AcDbText
  0
TEXT
  5
1A2
330
17
100
AcDbEntity
  8
TEXT
100
AcDbText
 10
14.133858267716535
 20
0.5511811023622047
 30
0.0
 40
0.04251968503937008
  1
DWG
 11
14.133858267716535
 21
0.5511811023622047
 31
0.0
100
AcDbText
  0
TEXT
  5
1A3
330
17
100
AcDbEntity
  8
TEXT
100
AcDbText
 10
14.133858267716535
 20
0.39370078740157477
 30
0.0
 40
0.05952755905511811
  1
AST-DR-014
 11
14.133858267716535
 21
0.39370078740157477
 31
0.0
100
AcDbText
  0
ENDSEC
  0
SECTION
  2
OBJECTS
  0
DICTIONARY
  5
A
330
0
100
AcDbDictionary
281
1
  3
ACAD_COLOR
350
B
  3
ACAD_GROUP
350
C
  3
ACAD_LAYOUT
350
D
  3
ACAD_MATERIAL
350
E
  3
ACAD_MLEADERSTYLE
350
F
  3
ACAD_MLINESTYLE
350
10
  3
ACAD_PLOTSETTINGS
350
11
  3
ACAD_PLOTSTYLENAME
350
12
  3
ACAD_SCALELIST
350
14
  3
ACAD_TABLESTYLE
350
15
  3
ACAD_VISUALSTYLE
350
16
  3
EZDXF_META
350
2D
  0
DICTIONARY
  5
B
330
A
100
AcDbDictionary
281
1
  0
DICTIONARY
  5
C
330
A
100
AcDbDictionary
281
1
  0
DICTIONARY
  5
D
330
A
100
AcDbDictionary
281
1
  3
Model
350
1A
  3
Layout1
350
1E
  0
DICTIONARY
  5
E
330
A
100
AcDbDictionary
281
1
  3
ByBlock
350
1F
  3
ByLayer
350
20
  3
Global
350
21
  0
DICTIONARY
  5
F
330
A
100
AcDbDictionary
281
1
  3
Standard
350
2C
  0
DICTIONARY
  5
10
330
A
100
AcDbDictionary
281
1
  3
Standard
350
22
  0
DICTIONARY
  5
11
330
A
100
AcDbDictionary
281
1
  0
ACDBDICTIONARYWDFLT
  5
12
330
A
100
AcDbDictionary
281
1
  3
Normal
350
13
100
AcDbDictionaryWithDefault
340
13
  0
ACDBPLACEHOLDER
  5
13
330
12
  0
DICTIONARY
  5
14
330
A
100
AcDbDictionary
281
1
  0
DICTIONARY
  5
15
330
A
100
AcDbDictionary
281
1
  0
DICTIONARY
  5
16
330
A
100
AcDbDictionary
281
1
  3
2dWireframe
350
5A
  3
Basic
350
5B
  3
Brighten
350
5C
  3
ColorChange
350
5D
  3
Conceptual
350
5E
  3
Dim
350
5F
  3
EdgeColorOff
350
60
  3
Facepattern
350
61
  3
Flat
350
62
  3
FlatWithEdges
350
63
  3
Gouraud
350
64
  3
GouraudWithEdges
350
65
  3
Hidden
350
66
  3
JitterOff
350
67
  3
Linepattern
350
68
  3
Modeling
350
69
  3
OverhangOff
350
6A
  3
Realistic
350
6B
  3
Shaded
350
6C
  3
Shaded with edges
350
6D
  3
Shades of Gray
350
6E
  3
Sketchy
350
6F
  3
Thicken
350
70
  3
Wireframe
350
71
  3
X-Ray
350
72
  0
LAYOUT
  5
1A
330
D
100
AcDbPlotSettings
  1

  4
A3
  6

 40
7.5
 41
20.0
 42
7.5
 43
20.0
 44
420.0
 45
297.0
 46
0.0
 47
0.0
 48
0.0
 49
0.0
140
0.0
141
0.0
142
1.0
143
1.0
 70
1024
 72
1
 73
0
 74
5
  7

 75
16
 76
0
 77
2
 78
300
147
1.0
148
0.0
149
0.0
100
AcDbLayout
  1
Model
 70
1
 71
0
 10
0.0
 20
0.0
 11
420.0
 21
297.0
 12
0.0
 22
0.0
 32
0.0
 14
1e+20
 24
1e+20
 34
1e+20
 15
-1e+20
 25
-1e+20
 35
-1e+20
146
0.0
 13
0.0
 23
0.0
 33
0.0
 16
1.0
 26
0.0
 36
0.0
 17
0.0
 27
1.0
 37
0.0
 76
1
330
17
  0
LAYOUT
  5
1E
330
D
100
AcDbPlotSettings
  1

  4
A3
  6

 40
7.5
 41
20.0
 42
7.5
 43
20.0
 44
420.0
 45
297.0
 46
0.0
 47
0.0
 48
0.0
 49
0.0
140
0.0
141
0.0
142
1.0
143
1.0
 70
0
 72
1
 73
0
 74
5
  7

 75
16
 76
0
 77
2
 78
300
147
1.0
148
0.0
149
0.0
100
AcDbLayout
  1
Layout1
 70
1
 71
1
 10
0.0
 20
0.0
 11
420.0
 21
297.0
 12
0.0
 22
0.0
 32
0.0
 14
1e+20
 24
1e+20
 34
1e+20
 15
-1e+20
 25
-1e+20
 35
-1e+20
146
0.0
 13
0.0
 23
0.0
 33
0.0
 16
1.0
 26
0.0
 36
0.0
 17
0.0
 27
1.0
 37
0.0
 76
1
330
1B
  0
MATERIAL
  5
1F
102
{ACAD_REACTORS
330
E
102
}
330
E
100
AcDbMaterial
  1
ByBlock
  2

 70
0
 40
1.0
 71
1
 41
1.0
 91
-1023410177
 42
1.0
 72
1
  3

 73
1
 74
1
 75
1
 44
0.5
 73
0
 45
1.0
 46
1.0
 77
1
  4

 78
1
 79
1
170
1
 48
1.0
171
1
  6

172
1
173
1
174
1
140
1.0
141
1.0
175
1
  7

176
1
177
1
178
1
143
1.0
179
1
  8

270
1
271
1
272
1
145
1.0
146
1.0
273
1
  9

274
1
275
1
276
1
 42
1.0
 72
1
  3

 73
1
 74
1
 75
1
 94
63
  0
MATERIAL
  5
20
102
{ACAD_REACTORS
330
E
102
}
330
E
100
AcDbMaterial
  1
ByLayer
  2

 70
0
 40
1.0
 71
1
 41
1.0
 91
-1023410177
 42
1.0
 72
1
  3

 73
1
 74
1
 75
1
 44
0.5
 73
0
 45
1.0
 46
1.0
 77
1
  4

 78
1
 79
1
170
1
 48
1.0
171
1
  6

172
1
173
1
174
1
140
1.0
141
1.0
175
1
  7

176
1
177
1
178
1
143
1.0
179
1
  8

270
1
271
1
272
1
145
1.0
146
1.0
273
1
  9

274
1
275
1
276
1
 42
1.0
 72
1
  3

 73
1
 74
1
 75
1
 94
63
  0
MATERIAL
  5
21
102
{ACAD_REACTORS
330
E
102
}
330
E
100
AcDbMaterial
  1
Global
  2

 70
0
 40
1.0
 71
1
 41
1.0
 91
-1023410177
 42
1.0
 72
1
  3

 73
1
 74
1
 75
1
 44
0.5
 73
0
 45
1.0
 46
1.0
 77
1
  4

 78
1
 79
1
170
1
 48
1.0
171
1
  6

172
1
173
1
174
1
140
1.0
141
1.0
175
1
  7

176
1
177
1
178
1
143
1.0
179
1
  8

270
1
271
1
272
1
145
1.0
146
1.0
273
1
  9

274
1
275
1
276
1
 42
1.0
 72
1
  3

 73
1
 74
1
 75
1
 94
63
  0
MLINESTYLE
  5
22
102
{ACAD_REACTORS
330
10
102
}
330
10
100
AcDbMlineStyle
  2
Standard
 70
0
  3

 62
256
 51
90.0
 52
90.0
 71
2
 49
0.5
 62
256
  6
BYLAYER
 49
-0.5
 62
256
  6
BYLAYER
  0
MLEADERSTYLE
  5
2C
102
{ACAD_REACTORS
330
F
102
}
330
F
100
AcDbMLeaderStyle
179
2
170
2
171
1
172
0
 90
2
 40
0.0
 41
0.0
173
1
 91
-1056964608
 92
-2
290
1
 42
2.0
291
1
 43
8.0
  3
Standard
 44
4.0
300

342
29
174
1
175
1
176
0
178
1
 93
-1056964608
 45
4.0
292
0
297
0
 46
4.0
 94
-1056964608
 47
1.0
 49
1.0
140
1.0
294
1
141
0.0
177
0
142
1.0
295
0
296
0
143
3.75
271
0
272
9
273
9
  0
DICTIONARY
  5
2D
330
A
100
AcDbDictionary
280
1
281
1
  3
CREATED_BY_EZDXF
350
2E
  3
WRITTEN_BY_EZDXF
350
1A6
  0
DICTIONARYVAR
  5
2E
330
2D
100
DictionaryVariables
280
0
  1
1.4.2 @ 2026-09-23T13:48:59.339881+00:00
  0
VISUALSTYLE
  5
5A
102
{ACAD_REACTORS
330
16
102
}
330
16
100
AcDbVisualStyle
  2
2dWireframe
 70
4
 90
0
 40
0.6
 62
7
290
0
291
0
  0
VISUALSTYLE
  5
5B
102
{ACAD_REACTORS
330
16
102
}
330
16
100
AcDbVisualStyle
  2
Basic
 70
7
 90
1
 40
0.6
 62
7
290
0
291
1
  0
VISUALSTYLE
  5
5C
102
{ACAD_REACTORS
330
16
102
}
330
16
100
AcDbVisualStyle
  2
Brighten
 70
12
 90
2
 40
0.6
 62
7
290
0
291
1
  0
VISUALSTYLE
  5
5D
102
{ACAD_REACTORS
330
16
102
}
330
16
100
AcDbVisualStyle
  2
ColorChange
 70
16
 90
2
 40
0.6
 62
8
290
0
291
1
  0
VISUALSTYLE
  5
5E
102
{ACAD_REACTORS
330
16
102
}
330
16
100
AcDbVisualStyle
  2
Conceptual
 70
9
 90
3
 40
0.6
 62
7
290
0
291
0
  0
VISUALSTYLE
  5
5F
102
{ACAD_REACTORS
330
16
102
}
330
16
100
AcDbVisualStyle
  2
Dim
 70
11
 90
2
 40
0.6
 62
7
290
0
291
1
  0
VISUALSTYLE
  5
60
102
{ACAD_REACTORS
330
16
102
}
330
16
100
AcDbVisualStyle
  2
EdgeColorOff
 70
22
 90
2
 40
0.6
 62
7
290
0
291
1
  0
VISUALSTYLE
  5
61
102
{ACAD_REACTORS
330
16
102
}
330
16
100
AcDbVisualStyle
  2
Facepattern
 70
15
 90
2
 40
0.6
 62
7
290
0
291
1
  0
VISUALSTYLE
  5
62
102
{ACAD_REACTORS
330
16
102
}
330
16
100
AcDbVisualStyle
  2
Flat
 70
0
 90
2
 40
0.6
 62
7
290
0
291
1
  0
VISUALSTYLE
  5
63
102
{ACAD_REACTORS
330
16
102
}
330
16
100
AcDbVisualStyle
  2
FlatWithEdges
 70
1
 90
2
 40
0.6
 62
7
290
0
291
1
  0
VISUALSTYLE
  5
64
102
{ACAD_REACTORS
330
16
102
}
330
16
100
AcDbVisualStyle
  2
Gouraud
 70
2
 90
2
 40
0.6
 62
7
290
0
291
1
  0
VISUALSTYLE
  5
65
102
{ACAD_REACTORS
330
16
102
}
330
16
100
AcDbVisualStyle
  2
GouraudWithEdges
 70
3
 90
2
 40
0.6
 62
7
290
0
291
1
  0
VISUALSTYLE
  5
66
102
{ACAD_REACTORS
330
16
102
}
330
16
100
AcDbVisualStyle
  2
Hidden
 70
6
 90
1
 40
0.6
 62
7
290
0
291
0
  0
VISUALSTYLE
  5
67
102
{ACAD_REACTORS
330
16
102
}
330
16
100
AcDbVisualStyle
  2
JitterOff
 70
20
 90
2
 40
0.6
 62
7
290
0
291
1
  0
VISUALSTYLE
  5
68
102
{ACAD_REACTORS
330
16
102
}
330
16
100
AcDbVisualStyle
  2
Linepattern
 70
14
 90
2
 40
0.6
 62
7
290
0
291
1
  0
VISUALSTYLE
  5
69
102
{ACAD_REACTORS
330
16
102
}
330
16
100
AcDbVisualStyle
  2
Modeling
 70
10
 90
2
 40
0.6
 62
7
290
0
291
0
  0
VISUALSTYLE
  5
6A
102
{ACAD_REACTORS
330
16
102
}
330
16
100
AcDbVisualStyle
  2
OverhangOff
 70
21
 90
2
 40
0.6
 62
7
290
0
291
1
  0
VISUALSTYLE
  5
6B
102
{ACAD_REACTORS
330
16
102
}
330
16
100
AcDbVisualStyle
  2
Realistic
 70
8
 90
2
 40
0.6
 62
7
290
0
291
0
  0
VISUALSTYLE
  5
6C
102
{ACAD_REACTORS
330
16
102
}
330
16
100
AcDbVisualStyle
  2
Shaded
 70
27
 90
2
 40
0.6
 62
7
290
0
291
0
  0
VISUALSTYLE
  5
6D
102
{ACAD_REACTORS
330
16
102
}
330
16
100
AcDbVisualStyle
  2
Shaded with edges
 70
26
 90
2
 40
0.6
 62
7
290
0
291
0
  0
VISUALSTYLE
  5
6E
102
{ACAD_REACTORS
330
16
102
}
330
16
100
AcDbVisualStyle
  2
Shades of Gray
 70
23
 90
2
 40
0.6
 62
7
290
0
291
0
  0
VISUALSTYLE
  5
6F
102
{ACAD_REACTORS
330
16
102
}
330
16
100
AcDbVisualStyle
  2
Sketchy
 70
24
 90
1
 40
0.6
 62
7
290
0
291
0
  0
VISUALSTYLE
  5
70
102
{ACAD_REACTORS
330
16
102
}
330
16
100
AcDbVisualStyle
  2
Thicken
 70
13
 90
2
 40
0.6
 62
7
290
0
291
1
  0
VISUALSTYLE
  5
71
102
{ACAD_REACTORS
330
16
102
}
330
16
100
AcDbVisualStyle
  2
Wireframe
 70
5
 90
0
 40
0.6
 62
7
290
0
291
0
  0
VISUALSTYLE
  5
72
102
{ACAD_REACTORS
330
16
102
}
330
16
100
AcDbVisualStyle
  2
X-Ray
 70
25
 90
2
 40
0.5
 62
7
290
0
291
0
  0
DICTIONARYVAR
  5
1A6
330
2D
100
DictionaryVariables
280
0
  1
1.4.2 @ 2026-09-23T13:48:59.360448+00:00
  0
ENDSEC
  0
EOF
