  0
SECTION
  2
HEADER
  9
$ACADVER
  1
AC1024
  9
$ACADMAINTVER
 70
6
  9
$DWGCODEPAGE
  3
ANSI_1252
  9
$LASTSAVEDBY
  1
ezdxf
  9
$INSBASE
 10
0.0
 20
0.0
 30
0.0
  9
$EXTMIN
 10
1e+20
 20
1e+20
 30
1e+20
  9
$EXTMAX
 10
-1e+20
 20
-1e+20
 30
-1e+20
  9
$LIMMIN
 10
0.0
 20
0.0
  9
$LIMMAX
 10
420.0
 20
297.0
  9
$ORTHOMODE
 70
0
  9
$REGENMODE
 70
1
  9
$FILLMODE
 70
1
  9
$QTEXTMODE
 70
0
  9
$MIRRTEXT
 70
1
  9
$LTSCALE
 40
1.0
  9
$ATTMODE
 70
1
  9
$TEXTSIZE
 40
2.5
  9
$TRACEWID
 40
1.0
  9
$TEXTSTYLE
  7
OpenSans
  9
$CLAYER
  8
0
  9
$CELTYPE
  6
ByLayer
  9
$CECOLOR
 62
256
  9
$CELTSCALE
 40
1.0
  9
$DISPSILH
 70
0
  9
$DIMSCALE
 40
1.0
  9
$DIMASZ
 40
0.175
  9
$DIMEXO
 40
0.125
  9
$DIMDLI
 40
3.75
  9
$DIMRND
 40
0.0
  9
$DIMDLE
 40
0.0
  9
$DIMEXE
 40
0.375
  9
$DIMTP
 40
0.0
  9
$DIMTM
 40
0.0
  9
$DIMTXT
 40
0.25
  9
$DIMCEN
 40
2.5
  9
$DIMTSZ
 40
0.0
  9
$DIMTOL
 70
0
  9
$DIMLIM
 70
0
  9
$DIMTIH
 70
0
  9
$DIMTOH
 70
0
  9
$DIMSE1
 70
0
  9
$DIMSE2
 70
0
  9
$DIMTAD
 70
1
  9
$DIMZIN
 70
12
  9
$DIMBLK
  1
ARCHTICK
  9
$DIMASO
 70
1
  9
$DIMSHO
 70
1
  9
$DIMPOST
  1

  9
$DIMAPOST
  1

  9
$DIMALT
 70
0
  9
$DIMALTD
 70
3
  9
$DIMALTF
 40
0.03937007874
  9
$DIMLFAC
 40
100.0
  9
$DIMTOFL
 70
1
  9
$DIMTVP
 40
0.0
  9
$DIMTIX
 70
0
  9
$DIMSOXD
 70
0
  9
$DIMSAH
 70
0
  9
$DIMBLK1
  1

  9
$DIMBLK2
  1

  9
$DIMSTYLE
  2
EZDXF
  9
$DIMCLRD
 70
0
  9
$DIMCLRE
 70
0
  9
$DIMCLRT
 70
0
  9
$DIMTFAC
 40
0.5
  9
$DIMGAP
 40
0.1
  9
$DIMJUST
 70
0
  9
$DIMSD1
 70
0
  9
$DIMSD2
 70
0
  9
$DIMTOLJ
 70
0
  9
$DIMTZIN
 70
8
  9
$DIMALTZ
 70
0
  9
$DIMALTTZ
 70
0
  9
$DIMUPT
 70
1
  9
$DIMDEC
 70
2
  9
$DIMTDEC
 70
2
  9
$DIMALTU
 70
2
  9
$DIMALTTD
 70
3
  9
$DIMTXSTY
  7
OpenSansCondensed-Light
  9
$DIMAUNIT
 70
0
  9
$DIMADEC
 70
2
  9
$DIMALTRND
 40
0.0
  9
$DIMAZIN
 70
3
  9
$DIMDSEP
 70
46
  9
$DIMATFIT
 70
3
  9
$DIMFRAC
 70
0
  9
$DIMLDRBLK
  1

  9
$DIMLUNIT
 70
2
  9
$DIMLWD
 70
-2
  9
$DIMLWE
 70
-2
  9
$DIMTMOVE
 70
2
  9
$DIMFXL
 40
1.0
  9
$DIMFXLON
 70
0
  9
$DIMJOGANG
 40
0.785398163397
  9
$DIMTFILL
 70
0
  9
$DIMTFILLCLR
 70
0
  9
$DIMARCSYM
 70
0
  9
$DIMLTYPE
  6

  9
$DIMLTEX1
  6

  9
$DIMLTEX2
  6

  9
$DIMTXTDIRECTION
 70
0
  9
$LUNITS
 70
4
  9
$LUPREC
 70
4
  9
$SKETCHINC
 40
1.0
  9
$FILLETRAD
 40
10.0
  9
$AUNITS
 70
0
  9
$AUPREC
 70
3
  9
$MENU
  1
.
  9
$ELEVATION
 40
0.0
  9
$PELEVATION
 40
0.0
  9
$THICKNESS
 40
0.0
  9
$LIMCHECK
 70
0
  9
$CHAMFERA
 40
0.0
  9
$CHAMFERB
 40
0.0
  9
$CHAMFERC
 40
0.0
  9
$CHAMFERD
 40
0.0
  9
$SKPOLY
 70
0
  9
$TDCREATE
 40
2461302.9975578706
  9
$TDUCREATE
 40
2458532.153996898
  9
$TDUPDATE
 40
2461302.9975578706
  9
$TDUUPDATE
 40
2458532.1544311
  9
$TDINDWG
 40
0.0
  9
$TDUSRTIMER
 40
0.0
  9
$USRTIMER
 70
1
  9
$ANGBASE
 50
0.0
  9
$ANGDIR
 70
0
  9
$PDMODE
 70
0
  9
$PDSIZE
 40
0.0
  9
$PLINEWID
 40
0.0
  9
$SPLFRAME
 70
0
  9
$SPLINETYPE
 70
6
  9
$SPLINESEGS
 70
8
  9
$HANDSEED
  5
136
  9
$SURFTAB1
 70
6
  9
$SURFTAB2
 70
6
  9
$SURFTYPE
 70
6
  9
$SURFU
 70
6
  9
$SURFV
 70
6
  9
$UCSBASE
  2

  9
$UCSNAME
  2

  9
$UCSORG
 10
0.0
 20
0.0
 30
0.0
  9
$UCSXDIR
 10
1.0
 20
0.0
 30
0.0
  9
$UCSYDIR
 10
0.0
 20
1.0
 30
0.0
  9
$UCSORTHOREF
  2

  9
$UCSORTHOVIEW
 70
0
  9
$UCSORGTOP
 10
0.0
 20
0.0
 30
0.0
  9
$UCSORGBOTTOM
 10
0.0
 20
0.0
 30
0.0
  9
$UCSORGLEFT
 10
0.0
 20
0.0
 30
0.0
  9
$UCSORGRIGHT
 10
0.0
 20
0.0
 30
0.0
  9
$UCSORGFRONT
 10
0.0
 20
0.0
 30
0.0
  9
$UCSORGBACK
 10
0.0
 20
0.0
 30
0.0
  9
$PUCSBASE
  2

  9
$PUCSNAME
  2

  9
$PUCSORG
 10
0.0
 20
0.0
 30
0.0
  9
$PUCSXDIR
 10
1.0
 20
0.0
 30
0.0
  9
$PUCSYDIR
 10
0.0
 20
1.0
 30
0.0
  9
$PUCSORTHOREF
  2

  9
$PUCSORTHOVIEW
 70
0
  9
$PUCSORGTOP
 10
0.0
 20
0.0
 30
0.0
  9
$PUCSORGBOTTOM
 10
0.0
 20
0.0
 30
0.0
  9
$PUCSORGLEFT
 10
0.0
 20
0.0
 30
0.0
  9
$PUCSORGRIGHT
 10
0.0
 20
0.0
 30
0.0
  9
$PUCSORGFRONT
 10
0.0
 20
0.0
 30
0.0
  9
$PUCSORGBACK
 10
0.0
 20
0.0
 30
0.0
  9
$USERI1
 70
0
  9
$USERI2
 70
0
  9
$USERI3
 70
0
  9
$USERI4
 70
0
  9
$USERI5
 70
0
  9
$USERR1
 40
0.0
  9
$USERR2
 40
0.0
  9
$USERR3
 40
0.0
  9
$USERR4
 40
0.0
  9
$USERR5
 40
0.0
  9
$WORLDVIEW
 70
1
  9
$SHADEDGE
 70
3
  9
$SHADEDIF
 70
70
  9
$TILEMODE
 70
1
  9
$MAXACTVP
 70
64
  9
$PINSBASE
 10
0.0
 20
0.0
 30
0.0
  9
$PLIMCHECK
 70
0
  9
$PEXTMIN
 10
1e+20
 20
1e+20
 30
1e+20
  9
$PEXTMAX
 10
-1e+20
 20
-1e+20
 30
-1e+20
  9
$PLIMMIN
 10
0.0
 20
0.0
  9
$PLIMMAX
 10
420.0
 20
297.0
  9
$UNITMODE
 70
0
  9
$VISRETAIN
 70
1
  9
$PLINEGEN
 70
0
  9
$PSLTSCALE
 70
1
  9
$TREEDEPTH
 70
3020
  9
$CMLSTYLE
  2
Standard
  9
$CMLJUST
 70
0
  9
$CMLSCALE
 40
20.0
  9
$PROXYGRAPHICS
 70
1
  9
$MEASUREMENT
 70
0
  9
$CELWEIGHT
370
-1
  9
$ENDCAPS
280
0
  9
$JOINSTYLE
280
0
  9
$LWDISPLAY
290
0
  9
$INSUNITS
 70
1
  9
$HYPERLINKBASE
  1

  9
$STYLESHEET
  1

  9
$XEDIT
290
1
  9
$CEPSNTYPE
380
0
  9
$PSTYLEMODE
290
1
  9
$FINGERPRINTGUID
  2
{067D8A25-6BDE-4909-B09E-493C29B24724}
  9
$VERSIONGUID
  2
{0F076756-FDFC-4216-9B52-533D9E93393C}
  9
$EXTNAMES
290
1
  9
$PSVPSCALE
 40
0.0
  9
$OLESTARTUP
290
0
  9
$SORTENTS
280
127
  9
$INDEXCTL
280
0
  9
$HIDETEXT
280
1
  9
$XCLIPFRAME
280
1
  9
$HALOGAP
280
0
  9
$OBSCOLOR
 70
257
  9
$OBSLTYPE
280
0
  9
$INTERSECTIONDISPLAY
280
0
  9
$INTERSECTIONCOLOR
 70
257
  9
$DIMASSOC
280
2
  9
$PROJECTNAME
  1

  9
$CAMERADISPLAY
290
0
  9
$LENSLENGTH
 40
50.0
  9
$CAMERAHEIGHT
 40
0.0
  9
$STEPSPERSEC
 40
24.0
  9
$STEPSIZE
 40
100.0
  9
$3DDWFPREC
 40
2.0
  9
$PSOLWIDTH
 40
0.005
  9
$PSOLHEIGHT
 40
0.08
  9
$LOFTANG1
 40
1.570796326795
  9
$LOFTANG2
 40
1.570796326795
  9
$LOFTMAG1
 40
0.0
  9
$LOFTMAG2
 40
0.0
  9
$LOFTPARAM
 70
7
  9
$LOFTNORMALS
280
1
  9
$LATITUDE
 40
37.795
  9
$LONGITUDE
 40
-122.394
  9
$NORTHDIRECTION
 40
0.0
  9
$TIMEZONE
 70
-8000
  9
$LIGHTGLYPHDISPLAY
280
1
  9
$TILEMODELIGHTSYNCH
280
1
  9
$CMATERIAL
347
20
  9
$SOLIDHIST
280
0
  9
$SHOWHIST
280
1
  9
$DWFFRAME
280
2
  9
$DGNFRAME
280
2
  9
$REALWORLDSCALE
290
1
  9
$INTERFERECOLOR
 62
256
  9
$CSHADOW
280
0
  9
$SHADOWPLANELOCATION
 40
0.0
  0
ENDSEC
  0
SECTION
  2
CLASSES
  0
CLASS
  1
ACDBDICTIONARYWDFLT
  2
AcDbDictionaryWithDefault
  3
ObjectDBX Classes
 90
0
 91
0
280
0
281
0
  0
CLASS
  1
SUN
  2
AcDbSun
  3
SCENEOE
 90
1153
 91
0
280
0
281
0
  0
CLASS
  1
VISUALSTYLE
  2
AcDbVisualStyle
  3
ObjectDBX Classes
 90
4095
 91
0
280
0
281
0
  0
CLASS
  1
MATERIAL
  2
AcDbMaterial
  3
ObjectDBX Classes
 90
1153
 91
0
280
0
281
0
  0
CLASS
  1
SCALE
  2
AcDbScale
  3
ObjectDBX Classes
 90
1153
 91
0
280
0
281
0
  0
CLASS
  1
TABLESTYLE
  2
AcDbTableStyle
  3
ObjectDBX Classes
 90
4095
 91
0
280
0
281
0
  0
CLASS
  1
MLEADERSTYLE
  2
AcDbMLeaderStyle
  3
ACDB_MLEADERSTYLE_CLASS
 90
4095
 91
0
280
0
281
0
  0
CLASS
  1
DICTIONARYVAR
  2
AcDbDictionaryVar
  3
ObjectDBX Classes
 90
0
 91
0
280
0
281
0
  0
CLASS
  1
CELLSTYLEMAP
  2
AcDbCellStyleMap
  3
ObjectDBX Classes
 90
1152
 91
0
280
0
281
0
  0
CLASS
  1
MENTALRAYRENDERSETTINGS
  2
AcDbMentalRayRenderSettings
  3
SCENEOE
 90
1024
 91
0
280
0
281
0
  0
CLASS
  1
ACDBDETAILVIEWSTYLE
  2
AcDbDetailViewStyle
  3
ObjectDBX Classes
 90
1025
 91
0
280
0
281
0
  0
CLASS
  1
ACDBSECTIONVIEWSTYLE
  2
AcDbSectionViewStyle
  3
ObjectDBX Classes
 90
1025
 91
0
280
0
281
0
  0
CLASS
  1
RASTERVARIABLES
  2
AcDbRasterVariables
  3
ISM
 90
0
 91
0
280
0
281
0
  0
CLASS
  1
LAYOUT
  2
AcDbLayout
  3
ObjectDBX Classes
 90
0
 91
0
280
0
281
0
  0
CLASS
  1
ACDBPLACEHOLDER
  2
AcDbPlaceHolder
  3
ObjectDBX Classes
 90
0
 91
0
280
0
281
0
  0
ENDSEC
  0
SECTION
  2
TABLES
  0
TABLE
  2
VPORT
  5
8
330
0
100
AcDbSymbolTable
 70
1
  0
VPORT
  5
23
330
8
100
AcDbSymbolTableRecord
100
AcDbViewportTableRecord
  2
*Active
 70
0
 10
0.0
 20
0.0
 11
1.0
 21
1.0
 12
0.0
 22
0.0
 13
0.0
 23
0.0
 14
0.5
 24
0.5
 15
0.5
 25
0.5
 16
0.0
 26
0.0
 36
1.0
 17
0.0
 27
0.0
 37
0.0
 40
1000.0
 41
1.34
 42
50.0
 43
0.0
 44
0.0
 50
0.0
 51
0.0
 71
0
 72
1000
 73
1
 74
3
 75
0
 76
0
 77
0
 78
0
281
0
 65
0
146
0.0
  0
ENDTAB
  0
TABLE
  2
LTYPE
  5
2
330
0
100
AcDbSymbolTable
 70
21
  0
LTYPE
  5
24
330
2
100
AcDbSymbolTableRecord
100
AcDbLinetypeTableRecord
  2
ByBlock
 70
0
  3

 72
65
 73
0
 40
0.0
  0
LTYPE
  5
25
330
2
100
AcDbSymbolTableRecord
100
AcDbLinetypeTableRecord
  2
ByLayer
 70
0
  3

 72
65
 73
0
 40
0.0
  0
LTYPE
  5
26
330
2
100
AcDbSymbolTableRecord
100
AcDbLinetypeTableRecord
  2
Continuous
 70
0
  3

 72
65
 73
0
 40
0.0
  0
LTYPE
  5
2F
330
2
100
AcDbSymbolTableRecord
100
AcDbLinetypeTableRecord
  2
CENTER
 70
0
  3
Center ____ _ ____ _ ____ _ ____ _ ____ _ ____
 72
65
 73
4
 40
2.0
 49
1.25
 74
0
 49
-0.25
 74
0
 49
0.25
 74
0
 49
-0.25
 74
0
  0
LTYPE
  5
30
330
2
100
AcDbSymbolTableRecord
100
AcDbLinetypeTableRecord
  2
CENTERX2
 70
0
  3
Center (2x) ________  __  ________  __  ________
 72
65
 73
4
 40
3.5
 49
2.5
 74
0
 49
-0.25
 74
0
 49
0.5
 74
0
 49
-0.25
 74
0
  0
LTYPE
  5
31
330
2
100
AcDbSymbolTableRecord
100
AcDbLinetypeTableRecord
  2
CENTER2
 70
0
  3
Center (.5x) ____ _ ____ _ ____ _ ____ _ ____
 72
65
 73
4
 40
1.0
 49
0.625
 74
0
 49
-0.125
 74
0
 49
0.125
 74
0
 49
-0.125
 74
0
  0
LTYPE
  5
32
330
2
100
AcDbSymbolTableRecord
100
AcDbLinetypeTableRecord
  2
DASHED
 70
0
  3
Dashed __ __ __ __ __ __ __ __ __ __ __ __ __ _
 72
65
 73
2
 40
0.6
 49
0.5
 74
0
 49
-0.1
 74
0
  0
LTYPE
  5
33
330
2
100
AcDbSymbolTableRecord
100
AcDbLinetypeTableRecord
  2
DASHEDX2
 70
0
  3
Dashed (2x) ____  ____  ____  ____  ____  ____
 72
65
 73
2
 40
1.2
 49
1.0
 74
0
 49
-0.2
 74
0
  0
LTYPE
  5
34
330
2
100
AcDbSymbolTableRecord
100
AcDbLinetypeTableRecord
  2
DASHED2
 70
0
  3
Dashed (.5x) _ _ _ _ _ _ _ _ _ _ _ _ _ _
 72
65
 73
2
 40
0.3
 49
0.25
 74
0
 49
-0.05
 74
0
  0
LTYPE
  5
35
330
2
100
AcDbSymbolTableRecord
100
AcDbLinetypeTableRecord
  2
PHANTOM
 70
0
  3
Phantom ______  __  __  ______  __  __  ______
 72
65
 73
6
 40
2.5
 49
1.25
 74
0
 49
-0.25
 74
0
 49
0.25
 74
0
 49
-0.25
 74
0
 49
0.25
 74
0
 49
-0.25
 74
0
  0
LTYPE
  5
36
330
2
100
AcDbSymbolTableRecord
100
AcDbLinetypeTableRecord
  2
PHANTOMX2
 70
0
  3
Phantom (2x)____________    ____    ____    ____________
 72
65
 73
6
 40
4.25
 49
2.5
 74
0
 49
-0.25
 74
0
 49
0.5
 74
0
 49
-0.25
 74
0
 49
0.5
 74
0
 49
-0.25
 74
0
  0
LTYPE
  5
37
330
2
100
AcDbSymbolTableRecord
100
AcDbLinetypeTableRecord
  2
PHANTOM2
 70
0
  3
Phantom (.5x) ___ _ _ ___ _ _ ___ _ _ ___ _ _ ___
 72
65
 73
6
 40
1.25
 49
0.625
 74
0
 49
-0.125
 74
0
 49
0.125
 74
0
 49
-0.125
 74
0
 49
0.125
 74
0
 49
-0.125
 74
0
  0
LTYPE
  5
38
330
2
100
AcDbSymbolTableRecord
100
AcDbLinetypeTableRecord
  2
DASHDOT
 70
0
  3
Dash dot __ . __ . __ . __ . __ . __ . __ . __
 72
65
 73
4
 40
1.4
 49
1.0
 74
0
 49
-0.2
 74
0
 49
0.0
 74
0
 49
-0.2
 74
0
  0
LTYPE
  5
39
330
2
100
AcDbSymbolTableRecord
100
AcDbLinetypeTableRecord
  2
DASHDOTX2
 70
0
  3
Dash dot (2x) ____  .  ____  .  ____  .  ____
 72
65
 73
4
 40
2.4
 49
2.0
 74
0
 49
-0.2
 74
0
 49
0.0
 74
0
 49
-0.2
 74
0
  0
LTYPE
  5
3A
330
2
100
AcDbSymbolTableRecord
100
AcDbLinetypeTableRecord
  2
DASHDOT2
 70
0
  3
Dash dot (.5x) _ . _ . _ . _ . _ . _ . _ . _
 72
65
 73
4
 40
0.7
 49
0.5
 74
0
 49
-0.1
 74
0
 49
0.0
 74
0
 49
-0.1
 74
0
  0
LTYPE
  5
3B
330
2
100
AcDbSymbolTableRecord
100
AcDbLinetypeTableRecord
  2
DOT
 70
0
  3
Dot .  .  .  .  .  .  .  .  .  .  .  .  .  .  .  .
 72
65
 73
2
 40
0.2
 49
0.0
 74
0
 49
-0.2
 74
0
  0
LTYPE
  5
3C
330
2
100
AcDbSymbolTableRecord
100
AcDbLinetypeTableRecord
  2
DOTX2
 70
0
  3
Dot (2x) .    .    .    .    .    .    .    . 
 72
65
 73
2
 40
0.4
 49
0.0
 74
0
 49
-0.4
 74
0
  0
LTYPE
  5
3D
330
2
100
AcDbSymbolTableRecord
100
AcDbLinetypeTableRecord
  2
DOT2
 70
0
  3
Dot (.5) . . . . . . . . . . . . . . . . . . . 
 72
65
 73
2
 40
0.1
 49
0.0
 74
0
 49
-0.1
 74
0
  0
LTYPE
  5
3E
330
2
100
AcDbSymbolTableRecord
100
AcDbLinetypeTableRecord
  2
DIVIDE
 70
0
  3
Divide __ . . __ . . __ . . __ . . __ . . __
 72
65
 73
6
 40
1.6
 49
1.0
 74
0
 49
-0.2
 74
0
 49
0.0
 74
0
 49
-0.2
 74
0
 49
0.0
 74
0
 49
-0.2
 74
0
  0
LTYPE
  5
3F
330
2
100
AcDbSymbolTableRecord
100
AcDbLinetypeTableRecord
  2
DIVIDEX2
 70
0
  3
Divide (2x) ____  . .  ____  . .  ____  . .  ____
 72
65
 73
6
 40
2.6
 49
2.0
 74
0
 49
-0.2
 74
0
 49
0.0
 74
0
 49
-0.2
 74
0
 49
0.0
 74
0
 49
-0.2
 74
0
  0
LTYPE
  5
40
330
2
100
AcDbSymbolTableRecord
100
AcDbLinetypeTableRecord
  2
DIVIDE2
 70
0
  3
Divide(.5x) _ . _ . _ . _ . _ . _ . _ . _
 72
65
 73
6
 40
0.8
 49
0.5
 74
0
 49
-0.1
 74
0
 49
0.0
 74
0
 49
-0.1
 74
0
 49
0.0
 74
0
 49
-0.1
 74
0
  0
ENDTAB
  0
TABLE
  2
LAYER
  5
1
330
0
100
AcDbSymbolTable
 70
10
  0
LAYER
  5
27
330
1
100
AcDbSymbolTableRecord
100
AcDbLayerTableRecord
  2
0
 70
0
 62
7
  6
Continuous
370
-3
390
13
347
21
  0
LAYER
  5
28
330
1
100
AcDbSymbolTableRecord
100
AcDbLayerTableRecord
  2
Defpoints
 70
0
 62
7
  6
Continuous
290
0
370
-3
390
13
347
21
  0
LAYER
  5
8A
330
1
100
AcDbSymbolTableRecord
100
AcDbLayerTableRecord
  2
Partition plan
 70
0
 62
7
  6
Continuous
370
-3
390
13
347
21
  0
LAYER
  5
8B
330
1
100
AcDbSymbolTableRecord
100
AcDbLayerTableRecord
  2
Partition plan hatch
 70
0
 62
8
  6
Continuous
370
-3
390
13
347
21
  0
LAYER
  5
95
330
1
100
AcDbSymbolTableRecord
100
AcDbLayerTableRecord
  2
Partition elevation
 70
0
 62
7
  6
Continuous
370
-3
390
13
347
21
  0
LAYER
  5
96
330
1
100
AcDbSymbolTableRecord
100
AcDbLayerTableRecord
  2
Partition elevation hatch
 70
0
 62
8
  6
Continuous
370
-3
390
13
347
21
  0
LAYER
  5
E1
330
1
100
AcDbSymbolTableRecord
100
AcDbLayerTableRecord
  2
Elevation with television
 70
0
 62
7
  6
Continuous
370
-3
390
13
347
21
  0
LAYER
  5
E2
330
1
100
AcDbSymbolTableRecord
100
AcDbLayerTableRecord
  2
Elevation with television hatch
 70
0
 62
8
  6
Continuous
370
-3
390
13
347
21
  0
LAYER
  5
12D
330
1
100
AcDbSymbolTableRecord
100
AcDbLayerTableRecord
  2
Curve detail
 70
0
 62
7
  6
Continuous
370
-3
390
13
347
21
  0
LAYER
  5
12E
330
1
100
AcDbSymbolTableRecord
100
AcDbLayerTableRecord
  2
Curve detail hatch
 70
0
 62
8
  6
Continuous
370
-3
390
13
347
21
  0
ENDTAB
  0
TABLE
  2
STYLE
  5
5
330
0
100
AcDbSymbolTable
 70
26
  0
STYLE
  5
29
330
5
100
AcDbSymbolTableRecord
100
AcDbTextStyleTableRecord
  2
Standard
 70
0
 40
0.0
 41
1.0
 50
0.0
 71
0
 42
2.5
  3
txt
  4

  0
STYLE
  5
41
330
5
100
AcDbSymbolTableRecord
100
AcDbTextStyleTableRecord
  2
OpenSans-Light
 70
0
 40
0.0
 41
1.0
 50
0.0
 71
0
 42
2.5
  3
OpenSans-Light.ttf
  4

  0
STYLE
  5
42
330
5
100
AcDbSymbolTableRecord
100
AcDbTextStyleTableRecord
  2
OpenSans-Light-Italic
 70
0
 40
0.0
 41
1.0
 50
0.0
 71
0
 42
2.5
  3
OpenSans-LightItalic.ttf
  4

  0
STYLE
  5
43
330
5
100
AcDbSymbolTableRecord
100
AcDbTextStyleTableRecord
  2
OpenSans
 70
0
 40
0.0
 41
1.0
 50
0.0
 71
0
 42
2.5
  3
OpenSans-Regular.ttf
  4

  0
STYLE
  5
44
330
5
100
AcDbSymbolTableRecord
100
AcDbTextStyleTableRecord
  2
OpenSans-Italic
 70
0
 40
0.0
 41
1.0
 50
0.0
 71
0
 42
2.5
  3
OpenSans-Italic.ttf
  4

  0
STYLE
  5
45
330
5
100
AcDbSymbolTableRecord
100
AcDbTextStyleTableRecord
  2
OpenSans-SemiBold
 70
0
 40
0.0
 41
1.0
 50
0.0
 71
0
 42
2.5
  3
OpenSans-SemiBold.ttf
  4

  0
STYLE
  5
46
330
5
100
AcDbSymbolTableRecord
100
AcDbTextStyleTableRecord
  2
OpenSans-SemiBoldItalic
 70
0
 40
0.0
 41
1.0
 50
0.0
 71
0
 42
2.5
  3
OpenSans-SemiBoldItalic.ttf
  4

  0
STYLE
  5
47
330
5
100
AcDbSymbolTableRecord
100
AcDbTextStyleTableRecord
  2
OpenSans-Bold
 70
0
 40
0.0
 41
1.0
 50
0.0
 71
0
 42
2.5
  3
OpenSans-Bold.ttf
  4

  0
STYLE
  5
48
330
5
100
AcDbSymbolTableRecord
100
AcDbTextStyleTableRecord
  2
OpenSans-BoldItalic
 70
0
 40
0.0
 41
1.0
 50
0.0
 71
0
 42
2.5
  3
OpenSans-BoldItalic.ttf
  4

  0
STYLE
  5
49
330
5
100
AcDbSymbolTableRecord
100
AcDbTextStyleTableRecord
  2
OpenSans-ExtraBold
 70
0
 40
0.0
 41
1.0
 50
0.0
 71
0
 42
2.5
  3
OpenSans-ExtraBold.ttf
  4

  0
STYLE
  5
4A
330
5
100
AcDbSymbolTableRecord
100
AcDbTextStyleTableRecord
  2
OpenSans-ExtraBoldItalic
 70
0
 40
0.0
 41
1.0
 50
0.0
 71
0
 42
2.5
  3
OpenSans-ExtraBoldItalic.ttf
  4

  0
STYLE
  5
4B
330
5
100
AcDbSymbolTableRecord
100
AcDbTextStyleTableRecord
  2
OpenSansCondensed-Bold
 70
0
 40
0.0
 41
1.0
 50
0.0
 71
0
 42
2.5
  3
OpenSansCondensed-Bold.ttf
  4

  0
STYLE
  5
4C
330
5
100
AcDbSymbolTableRecord
100
AcDbTextStyleTableRecord
  2
OpenSansCondensed-Light
 70
0
 40
0.0
 41
1.0
 50
0.0
 71
0
 42
2.5
  3
OpenSansCondensed-Light.ttf
  4

  0
STYLE
  5
4D
330
5
100
AcDbSymbolTableRecord
100
AcDbTextStyleTableRecord
  2
OpenSansCondensed-Italic
 70
0
 40
0.0
 41
1.0
 50
0.0
 71
0
 42
2.5
  3
OpenSansCondensed-LightItalic.ttf
  4

  0
STYLE
  5
4E
330
5
100
AcDbSymbolTableRecord
100
AcDbTextStyleTableRecord
  2
LiberationSans
 70
0
 40
0.0
 41
1.0
 50
0.0
 71
0
 42
2.5
  3
LiberationSans-Regular.ttf
  4

  0
STYLE
  5
4F
330
5
100
AcDbSymbolTableRecord
100
AcDbTextStyleTableRecord
  2
LiberationSans-Bold
 70
0
 40
0.0
 41
1.0
 50
0.0
 71
0
 42
2.5
  3
LiberationSans-Bold.ttf
  4

  0
STYLE
  5
50
330
5
100
AcDbSymbolTableRecord
100
AcDbTextStyleTableRecord
  2
LiberationSans-BoldItalic
 70
0
 40
0.0
 41
1.0
 50
0.0
 71
0
 42
2.5
  3
LiberationSans-BoldItalic.ttf
  4

  0
STYLE
  5
51
330
5
100
AcDbSymbolTableRecord
100
AcDbTextStyleTableRecord
  2
LiberationSans-Italic
 70
0
 40
0.0
 41
1.0
 50
0.0
 71
0
 42
2.5
  3
LiberationSans-Italic.ttf
  4

  0
STYLE
  5
52
330
5
100
AcDbSymbolTableRecord
100
AcDbTextStyleTableRecord
  2
LiberationSerif
 70
0
 40
0.0
 41
1.0
 50
0.0
 71
0
 42
2.5
  3
LiberationSerif-Regular.ttf
  4

  0
STYLE
  5
53
330
5
100
AcDbSymbolTableRecord
100
AcDbTextStyleTableRecord
  2
LiberationSerif-Bold
 70
0
 40
0.0
 41
1.0
 50
0.0
 71
0
 42
2.5
  3
LiberationSerif-Bold.ttf
  4

  0
STYLE
  5
54
330
5
100
AcDbSymbolTableRecord
100
AcDbTextStyleTableRecord
  2
LiberationSerif-BoldItalic
 70
0
 40
0.0
 41
1.0
 50
0.0
 71
0
 42
2.5
  3
LiberationSerif-BoldItalic.ttf
  4

  0
STYLE
  5
55
330
5
100
AcDbSymbolTableRecord
100
AcDbTextStyleTableRecord
  2
LiberationSerif-Italic
 70
0
 40
0.0
 41
1.0
 50
0.0
 71
0
 42
2.5
  3
LiberationSerif-Italic.ttf
  4

  0
STYLE
  5
56
330
5
100
AcDbSymbolTableRecord
100
AcDbTextStyleTableRecord
  2
LiberationMono
 70
0
 40
0.0
 41
1.0
 50
0.0
 71
0
 42
2.5
  3
LiberationMono-Regular.ttf
  4

  0
STYLE
  5
57
330
5
100
AcDbSymbolTableRecord
100
AcDbTextStyleTableRecord
  2
LiberationMono-Bold
 70
0
 40
0.0
 41
1.0
 50
0.0
 71
0
 42
2.5
  3
LiberationMono-Bold.ttf
  4

  0
STYLE
  5
58
330
5
100
AcDbSymbolTableRecord
100
AcDbTextStyleTableRecord
  2
LiberationMono-BoldItalic
 70
0
 40
0.0
 41
1.0
 50
0.0
 71
0
 42
2.5
  3
LiberationMono-BoldItalic.ttf
  4

  0
STYLE
  5
59
330
5
100
AcDbSymbolTableRecord
100
AcDbTextStyleTableRecord
  2
LiberationMono-Italic
 70
0
 40
0.0
 41
1.0
 50
0.0
 71
0
 42
2.5
  3
LiberationMono-Italic.ttf
  4

  0
ENDTAB
  0
TABLE
  2
VIEW
  5
7
330
0
100
AcDbSymbolTable
 70
0
  0
ENDTAB
  0
TABLE
  2
UCS
  5
6
330
0
100
AcDbSymbolTable
 70
0
  0
ENDTAB
  0
TABLE
  2
APPID
  5
3
330
0
100
AcDbSymbolTable
 70
3
  0
APPID
  5
2A
330
3
100
AcDbSymbolTableRecord
100
AcDbRegAppTableRecord
  2
ACAD
 70
0
  0
APPID
  5
133
330
3
100
AcDbSymbolTableRecord
100
AcDbRegAppTableRecord
  2
HATCHBACKGROUNDCOLOR
 70
0
  0
APPID
  5
134
330
3
100
AcDbSymbolTableRecord
100
AcDbRegAppTableRecord
  2
EZDXF
 70
0
  0
ENDTAB
  0
TABLE
  2
DIMSTYLE
  5
4
330
0
100
AcDbSymbolTable
 70
12
100
AcDbDimStyleTable
  0
DIMSTYLE
105
2B
330
4
100
AcDbSymbolTableRecord
100
AcDbDimStyleTableRecord
  2
Standard
 70
0
 40
1.0
 41
2.5
 42
0.625
 43
3.75
 44
1.25
 45
0.0
 46
0.0
 47
0.0
 48
0.0
 49
2.5
140
2.5
141
2.5
142
0.0
143
0.03937007874
144
1.0
145
0.0
146
1.0
147
0.625
148
0.0
 69
0
 70
0
 71
0
 72
0
 73
0
 74
0
 75
0
 76
0
 77
1
 78
8
 79
3
170
0
171
3
172
1
173
0
174
0
175
0
176
0
177
0
178
0
179
2
271
2
272
2
273
2
274
3
275
0
276
0
277
2
278
44
279
0
280
0
281
0
282
0
283
0
284
8
285
0
286
0
288
0
289
3
290
0
371
-2
372
-2
  0
DIMSTYLE
105
73
330
4
100
AcDbSymbolTableRecord
100
AcDbDimStyleTableRecord
  2
EZDXF
 70
0
 40
1.0
 41
0.175
 42
0.125
 43
3.75
 44
0.375
 45
0.0
 46
0.0
 47
0.0
 48
0.0
 49
2.5
140
0.25
141
2.5
142
0.0
143
0.03937007874
144
100.0
145
0.0
146
0.5
147
0.1
148
0.0
 69
0
 70
0
 71
0
 72
0
 73
0
 74
0
 75
0
 76
0
 77
1
 78
12
 79
3
170
0
171
3
172
1
173
0
174
0
175
0
176
0
177
0
178
0
179
2
271
2
272
2
273
2
274
3
275
0
276
0
277
2
278
46
279
2
280
0
281
0
282
0
283
0
284
8
285
0
286
0
288
1
289
3
290
0
340
4C
342
74
371
-2
372
-2
  0
DIMSTYLE
105
7C
330
4
100
AcDbSymbolTableRecord
100
AcDbDimStyleTableRecord
  2
EZ_M_100_H25_CM
 70
0
 40
1.0
 41
0.25
 42
0.125
 43
3.75
 44
0.375
 45
0.0
 46
0.0
 47
0.0
 48
0.0
 49
2.5
140
0.25
141
2.5
142
0.125
143
0.03937007874
144
100.0
145
0.0
146
0.5
147
0.1
148
0.0
 69
0
 70
0
 71
0
 72
0
 73
0
 74
0
 75
0
 76
0
 77
1
 78
12
 79
3
170
0
171
3
172
1
173
0
174
0
175
0
176
0
177
0
178
0
179
2
271
2
272
2
273
2
274
3
275
0
276
0
277
2
278
46
279
2
280
0
281
0
282
0
283
0
284
8
285
0
286
0
288
1
289
3
290
0
340
4C
371
-2
372
-2
  0
DIMSTYLE
105
7D
330
4
100
AcDbSymbolTableRecord
100
AcDbDimStyleTableRecord
  2
EZ_M_50_H25_CM
 70
0
 40
1.0
 41
0.125
 42
0.0625
 43
3.75
 44
0.1875
 45
0.0
 46
0.0
 47
0.0
 48
0.0
 49
2.5
140
0.125
141
2.5
142
0.0625
143
0.03937007874
144
100.0
145
0.0
146
0.5
147
0.05
148
0.0
 69
0
 70
0
 71
0
 72
0
 73
0
 74
0
 75
0
 76
0
 77
1
 78
12
 79
3
170
0
171
3
172
1
173
0
174
0
175
0
176
0
177
0
178
0
179
2
271
2
272
2
273
2
274
3
275
0
276
0
277
2
278
46
279
2
280
0
281
0
282
0
283
0
284
8
285
0
286
0
288
1
289
3
290
0
340
4C
371
-2
372
-2
  0
DIMSTYLE
105
7E
330
4
100
AcDbSymbolTableRecord
100
AcDbDimStyleTableRecord
  2
EZ_M_25_H25_CM
 70
0
 40
1.0
 41
0.0625
 42
0.03125
 43
3.75
 44
0.09375
 45
0.0
 46
0.0
 47
0.0
 48
0.0
 49
2.5
140
0.0625
141
2.5
142
0.03125
143
0.03937007874
144
100.0
145
0.0
146
0.5
147
0.025
148
0.0
 69
0
 70
0
 71
0
 72
0
 73
0
 74
0
 75
0
 76
0
 77
1
 78
12
 79
3
170
0
171
3
172
1
173
0
174
0
175
0
176
0
177
0
178
0
179
2
271
2
272
2
273
2
274
3
275
0
276
0
277
2
278
46
279
2
280
0
281
0
282
0
283
0
284
8
285
0
286
0
288
1
289
3
290
0
340
4C
371
-2
372
-2
  0
DIMSTYLE
105
7F
330
4
100
AcDbSymbolTableRecord
100
AcDbDimStyleTableRecord
  2
EZ_M_20_H25_CM
 70
0
 40
1.0
 41
0.05
 42
0.025
 43
3.75
 44
0.07500000000000001
 45
0.0
 46
0.0
 47
0.0
 48
0.0
 49
2.5
140
0.05
141
2.5
142
0.025
143
0.03937007874
144
100.0
145
0.0
146
0.5
147
0.020000000000000004
148
0.0
 69
0
 70
0
 71
0
 72
0
 73
0
 74
0
 75
0
 76
0
 77
1
 78
12
 79
3
170
0
171
3
172
1
173
0
174
0
175
0
176
0
177
0
178
0
179
2
271
2
272
2
273
2
274
3
275
0
276
0
277
2
278
46
279
2
280
0
281
0
282
0
283
0
284
8
285
0
286
0
288
1
289
3
290
0
340
4C
371
-2
372
-2
  0
DIMSTYLE
105
80
330
4
100
AcDbSymbolTableRecord
100
AcDbDimStyleTableRecord
  2
EZ_M_10_H25_CM
 70
0
 40
1.0
 41
0.025
 42
0.0125
 43
3.75
 44
0.037500000000000006
 45
0.0
 46
0.0
 47
0.0
 48
0.0
 49
2.5
140
0.025
141
2.5
142
0.0125
143
0.03937007874
144
100.0
145
0.0
146
0.5
147
0.010000000000000002
148
0.0
 69
0
 70
0
 71
0
 72
0
 73
0
 74
0
 75
0
 76
0
 77
1
 78
12
 79
3
170
0
171
3
172
1
173
0
174
0
175
0
176
0
177
0
178
0
179
2
271
2
272
2
273
2
274
3
275
0
276
0
277
2
278
46
279
2
280
0
281
0
282
0
283
0
284
8
285
0
286
0
288
1
289
3
290
0
340
4C
371
-2
372
-2
  0
DIMSTYLE
105
81
330
4
100
AcDbSymbolTableRecord
100
AcDbDimStyleTableRecord
  2
EZ_M_5_H25_CM
 70
0
 40
1.0
 41
0.0125
 42
0.00625
 43
3.75
 44
0.018750000000000003
 45
0.0
 46
0.0
 47
0.0
 48
0.0
 49
2.5
140
0.0125
141
2.5
142
0.00625
143
0.03937007874
144
100.0
145
0.0
146
0.5
147
0.005000000000000001
148
0.0
 69
0
 70
0
 71
0
 72
0
 73
0
 74
0
 75
0
 76
0
 77
1
 78
12
 79
3
170
0
171
3
172
1
173
0
174
0
175
0
176
0
177
0
178
0
179
2
271
2
272
2
273
2
274
3
275
0
276
0
277
2
278
46
279
2
280
0
281
0
282
0
283
0
284
8
285
0
286
0
288
1
289
3
290
0
340
4C
371
-2
372
-2
  0
DIMSTYLE
105
82
330
4
100
AcDbSymbolTableRecord
100
AcDbDimStyleTableRecord
  2
EZ_M_1_H25_CM
 70
0
 40
1.0
 41
0.0025
 42
0.00125
 43
3.75
 44
0.00375
 45
0.0
 46
0.0
 47
0.0
 48
0.0
 49
2.5
140
0.0025
141
2.5
142
0.00125
143
0.03937007874
144
100.0
145
0.0
146
0.5
147
0.001
148
0.0
 69
0
 70
0
 71
0
 72
0
 73
0
 74
0
 75
0
 76
0
 77
1
 78
12
 79
3
170
0
171
3
172
1
173
0
174
0
175
0
176
0
177
0
178
0
179
2
271
2
272
2
273
2
274
3
275
0
276
0
277
2
278
46
279
2
280
0
281
0
282
0
283
0
284
8
285
0
286
0
288
1
289
3
290
0
340
4C
371
-2
372
-2
  0
DIMSTYLE
105
83
330
4
100
AcDbSymbolTableRecord
100
AcDbDimStyleTableRecord
  2
EZ_RADIUS
 70
0
 40
1.0
 41
0.25
 42
0.125
 43
3.75
 44
0.375
 45
0.0
 46
0.0
 47
0.0
 48
0.0
 49
2.5
140
0.25
141
0.0
142
0.0
143
0.03937007874
144
100.0
145
0.0
146
0.5
147
0.1
148
0.0
 69
0
 70
0
 71
0
 72
0
 73
0
 74
0
 75
0
 76
0
 77
1
 78
12
 79
3
170
0
171
3
172
0
173
0
174
0
175
0
176
0
177
0
178
0
179
2
271
2
272
2
273
2
274
3
275
0
276
0
277
2
278
46
279
1
280
0
281
0
282
0
283
0
284
8
285
0
286
0
288
1
289
3
290
0
340
4C
342
84
371
-2
372
-2
  0
DIMSTYLE
105
88
330
4
100
AcDbSymbolTableRecord
100
AcDbDimStyleTableRecord
  2
EZ_RADIUS_INSIDE
 70
0
 40
1.0
 41
0.25
 42
0.125
 43
3.75
 44
0.375
 45
0.0
 46
0.0
 47
0.0
 48
0.0
 49
2.5
140
0.25
141
0.0
142
0.0
143
0.03937007874
144
100.0
145
0.0
146
0.5
147
0.1
148
0.0
 69
0
 70
0
 71
0
 72
0
 73
0
 74
0
 75
0
 76
0
 77
0
 78
12
 79
3
170
0
171
3
172
0
173
0
174
1
175
0
176
0
177
0
178
0
179
2
271
2
272
2
273
2
274
3
275
0
276
0
277
2
278
46
279
0
280
0
281
0
282
0
283
0
284
8
285
0
286
0
288
1
289
0
290
0
340
4C
342
84
371
-2
372
-2
  0
DIMSTYLE
105
89
330
4
100
AcDbSymbolTableRecord
100
AcDbDimStyleTableRecord
  2
EZ_CURVED
 70
0
 40
1.0
 41
0.25
 42
0.125
 43
3.75
 44
0.375
 45
0.0
 46
0.0
 47
0.0
 48
0.0
 49
2.5
140
0.25
141
2.5
142
0.0
143
0.03937007874
144
100.0
145
0.0
146
0.5
147
0.1
148
0.0
 69
0
 70
0
 71
0
 72
0
 73
0
 74
0
 75
0
 76
0
 77
1
 78
12
 79
2
 90
2
170
0
171
3
172
1
173
0
174
0
175
0
176
0
177
0
178
0
179
2
271
2
272
2
273
2
274
3
275
0
276
0
277
2
278
46
279
2
280
0
281
0
282
0
283
0
284
8
285
0
286
0
288
1
289
3
290
0
340
4C
371
-2
372
-2
  0
ENDTAB
  0
TABLE
  2
BLOCK_RECORD
  5
9
330
0
100
AcDbSymbolTable
 70
5
  0
BLOCK_RECORD
  5
17
330
9
100
AcDbSymbolTableRecord
100
AcDbBlockTableRecord
  2
*Model_Space
340
1A
 70
0
280
1
281
0
  0
BLOCK_RECORD
  5
1B
330
9
100
AcDbSymbolTableRecord
100
AcDbBlockTableRecord
  2
*Paper_Space
340
1E
 70
0
280
1
281
0
  0
BLOCK_RECORD
  5
74
330
9
100
AcDbSymbolTableRecord
100
AcDbBlockTableRecord
  2
_ARCHTICK
340
0
 70
0
280
1
281
0
  0
BLOCK_RECORD
  5
78
330
9
100
AcDbSymbolTableRecord
100
AcDbBlockTableRecord
  2
_CLOSEDFILLED
340
0
 70
0
280
1
281
0
  0
BLOCK_RECORD
  5
84
330
9
100
AcDbSymbolTableRecord
100
AcDbBlockTableRecord
  2
_CLOSEDBLANK
340
0
 70
0
280
1
281
0
  0
ENDTAB
  0
ENDSEC
  0
SECTION
  2
BLOCKS
  0
BLOCK
  5
18
330
17
100
AcDbEntity
  8
0
100
AcDbBlockBegin
  2
*Model_Space
 70
0
 10
0.0
 20
0.0
 30
0.0
  3
*Model_Space
  1

  0
ENDBLK
  5
19
330
17
100
AcDbEntity
  8
0
100
AcDbBlockEnd
  0
BLOCK
  5
1C
330
1B
100
AcDbEntity
  8
0
100
AcDbBlockBegin
  2
*Paper_Space
 70
0
 10
0.0
 20
0.0
 30
0.0
  3
*Paper_Space
  1

  0
ENDBLK
  5
1D
330
1B
100
AcDbEntity
  8
0
100
AcDbBlockEnd
  0
BLOCK
  5
75
330
74
100
AcDbEntity
  8
0
100
AcDbBlockBegin
  2
_ARCHTICK
 70
0
 10
0.0
 20
0.0
 30
0.0
  3
_ARCHTICK
  1

  0
LWPOLYLINE
  5
77
330
74
100
AcDbEntity
  8
0
  6
BYBLOCK
 62
0
100
AcDbPolyline
 90
2
 70
0
 43
0.15
 10
-0.5
 20
-0.5
 10
0.5
 20
0.5
  0
ENDBLK
  5
76
330
74
100
AcDbEntity
  8
0
100
AcDbBlockEnd
  0
BLOCK
  5
79
330
78
100
AcDbEntity
  8
0
100
AcDbBlockBegin
  2
_CLOSEDFILLED
 70
0
 10
0.0
 20
0.0
 30
0.0
  3
_CLOSEDFILLED
  1

  0
SOLID
  5
7B
330
78
100
AcDbEntity
  8
0
  6
BYBLOCK
 62
0
100
AcDbTrace
 10
-1.0
 20
0.16439898372402537
 30
0.0
 11
0.0
 21
0.0
 31
0.0
 12
-1.0
 22
-0.16439898372402537
 32
0.0
 13
-1.0
 23
-0.16439898372402537
 33
0.0
  0
ENDBLK
  5
7A
330
78
100
AcDbEntity
  8
0
100
AcDbBlockEnd
  0
BLOCK
  5
85
330
84
100
AcDbEntity
  8
0
100
AcDbBlockBegin
  2
_CLOSEDBLANK
 70
0
 10
0.0
 20
0.0
 30
0.0
  3
_CLOSEDBLANK
  1

  0
LWPOLYLINE
  5
87
330
84
100
AcDbEntity
  8
0
  6
BYBLOCK
 62
0
100
AcDbPolyline
 90
3
 70
1
 10
-1.0
 20
0.16439898372402537
 10
0.0
 20
0.0
 10
-1.0
 20
-0.16439898372402537
  0
ENDBLK
  5
86
330
84
100
AcDbEntity
  8
0
100
AcDbBlockEnd
  0
ENDSEC
  0
SECTION
  2
ENTITIES
  0
LWPOLYLINE
  5
8C
330
17
100
AcDbEntity
  8
Partition plan
100
AcDbPolyline
 90
141
 70
0
 10
0.0
 20
1.3968503937007881
 10
0.43622047244095086
 20
1.9921259842519667
 10
0.9157480314960651
 20
2.619291338582677
 10
1.3779527559055111
 20
3.19527559055118
 10
1.8952755905511864
 20
3.791338582677165
 10
2.4255905511811093
 20
4.376377952755905
 10
2.935826771653552
 20
4.909842519685039
 10
3.501574803149609
 20
5.460629921259843
 10
4.078740157480318
 20
5.999606299212599
 10
4.633858267716533
 20
6.4862204724409445
 10
5.243307086614173
 20
6.988188976377952
 10
5.863385826771655
 20
7.476771653543307
 10
6.45866141732283
 20
7.913385826771653
 10
7.107874015748031
 20
8.36259842519685
 10
7.766535433070864
 20
8.797637795275591
 10
8.397637795275585
 20
9.180708661417322
 10
9.082283464566927
 20
9.574015748031496
 10
9.775196850393705
 20
9.953149606299212
 10
10.437007874015748
 20
10.279527559055119
 10
11.151968503937013
 20
10.614566929133858
 10
11.827559055118115
 20
10.911811023622047
 10
12.562204724409447
 20
11.201574803149606
 10
13.302755905511816
 20
11.475984251968503
 10
14.001574803149609
 20
11.712992125984252
 10
14.757480314960631
 20
11.94055118110236
 10
15.518503937007878
 20
12.151968503937008
 10
16.235433070866144
 20
12.32755905511811
 10
17.00787401574803
 20
12.491338582677164
 10
17.783464566929137
 20
12.638188976377952
 10
18.51299212598425
 20
12.750787401574803
 10
19.296456692913388
 20
12.849212598425197
 10
20.08188976377953
 20
12.931102362204724
 10
20.818503937007875
 20
12.979527559055118
 10
21.60708661417323
 20
13.012204724409449
 10
22.370866141732282
 20
13.028740157480314
 10
23.109055118110238
 20
13.028740157480314
 10
23.84724409448819
 20
13.028740157480314
 10
24.58543307086614
 20
13.028740157480314
 10
25.323622047244093
 20
13.028740157480314
 10
26.06181102362205
 20
13.028740157480314
 10
26.8
 20
13.028740157480314
 10
27.53779527559055
 20
13.028740157480314
 10
28.275984251968506
 20
13.028740157480314
 10
29.014173228346458
 20
13.028740157480314
 10
29.75236220472441
 20
13.028740157480314
 10
30.49055118110236
 20
13.028740157480314
 10
31.228740157480317
 20
13.028740157480314
 10
31.96692913385827
 20
13.028740157480314
 10
32.70511811023622
 20
13.028740157480314
 10
33.443307086614176
 20
13.028740157480314
 10
34.181496062992125
 20
13.028740157480314
 10
34.91968503937008
 20
13.028740157480314
 10
35.657874015748035
 20
13.028740157480314
 10
36.395669291338585
 20
13.028740157480314
 10
37.13385826771653
 20
13.028740157480314
 10
37.87204724409449
 20
13.028740157480314
 10
38.610236220472444
 20
13.028740157480314
 10
39.34842519685039
 20
13.028740157480314
 10
40.08661417322835
 20
13.028740157480314
 10
40.824803149606296
 20
13.028740157480314
 10
41.56299212598425
 20
13.028740157480314
 10
42.30118110236221
 20
13.028740157480314
 10
43.039370078740156
 20
13.028740157480314
 10
43.77755905511811
 20
13.028740157480314
 10
44.51574803149607
 20
13.028740157480314
 10
45.253543307086616
 20
13.028740157480314
 10
45.99173228346457
 20
13.028740157480314
 10
46.72992125984252
 20
13.028740157480314
 10
47.468110236220475
 20
13.028740157480314
 10
48.206299212598424
 20
13.028740157480314
 10
48.94448818897638
 20
13.028740157480314
 10
49.682677165354335
 20
13.028740157480314
 10
50.42086614173228
 20
13.028740157480314
 10
51.15905511811024
 20
13.028740157480314
 10
51.89724409448819
 20
13.028740157480314
 10
52.63543307086614
 20
13.028740157480314
 10
53.37322834645669
 20
13.028740157480314
 10
54.11141732283465
 20
13.028740157480314
 10
54.8496062992126
 20
13.028740157480314
 10
55.58779527559055
 20
13.028740157480314
 10
56.32598425196851
 20
13.028740157480314
 10
57.06417322834646
 20
13.028740157480314
 10
57.80236220472441
 20
13.028740157480314
 10
58.540551181102366
 20
13.028740157480314
 10
59.278740157480314
 20
13.028740157480314
 10
60.01692913385827
 20
13.028740157480314
 10
60.755118110236225
 20
13.028740157480314
 10
61.49330708661417
 20
13.028740157480314
 10
62.23110236220472
 20
13.028740157480314
 10
62.96929133858268
 20
13.028740157480314
 10
63.707480314960634
 20
13.028740157480314
 10
64.44566929133859
 20
13.028740157480314
 10
65.18385826771654
 20
13.028740157480314
 10
65.92204724409449
 20
13.028740157480314
 10
66.66023622047244
 20
13.028740157480314
 10
67.3984251968504
 20
13.028740157480314
 10
68.13661417322835
 20
13.028740157480314
 10
68.8748031496063
 20
13.028740157480314
 10
69.61299212598425
 20
13.028740157480314
 10
70.3511811023622
 20
13.028740157480314
 10
71.08897637795276
 20
13.028740157480314
 10
71.8271653543307
 20
13.028740157480314
 10
72.56535433070866
 20
13.028740157480314
 10
73.30354330708661
 20
13.028740157480314
 10
74.04173228346457
 20
13.028740157480314
 10
74.77992125984252
 20
13.028740157480314
 10
75.51811023622048
 20
13.028740157480314
 10
76.28188976377953
 20
13.012204724409449
 10
77.07047244094488
 20
12.979527559055118
 10
77.80708661417323
 20
12.931102362204724
 10
78.59251968503938
 20
12.849212598425197
 10
79.3759842519685
 20
12.750787401574803
 10
80.10551181102362
 20
12.638188976377952
 10
80.88110236220473
 20
12.491338582677164
 10
81.65354330708661
 20
12.32755905511811
 10
82.37047244094488
 20
12.151968503937008
 10
83.13149606299213
 20
11.94055118110236
 10
83.88740157480315
 20
11.712992125984252
 10
84.58622047244094
 20
11.475984251968503
 10
85.32677165354332
 20
11.201574803149606
 10
86.06141732283464
 20
10.911811023622047
 10
86.73700787401575
 20
10.614566929133858
 10
87.45196850393701
 20
10.279527559055119
 10
88.11377952755905
 20
9.953149606299212
 10
88.80669291338583
 20
9.574015748031496
 10
89.49133858267717
 20
9.180708661417322
 10
90.1224409448819
 20
8.797637795275591
 10
90.78110236220473
 20
8.36259842519685
 10
91.43031496062993
 20
7.913385826771653
 10
92.0255905511811
 20
7.476771653543307
 10
92.64566929133858
 20
6.988188976377952
 10
93.25511811023622
 20
6.4862204724409445
 10
93.81023622047243
 20
5.999606299212599
 10
94.38740157480315
 20
5.460629921259843
 10
94.9531496062992
 20
4.909842519685039
 10
95.46338582677166
 20
4.376377952755905
 10
95.99370078740156
 20
3.791338582677165
 10
96.51102362204725
 20
3.19527559055118
 10
96.9732283464567
 20
2.619291338582677
 10
97.45275590551181
 20
1.9921259842519667
 10
97.88897637795276
 20
1.3968503937007881
  0
LWPOLYLINE
  5
8D
330
17
100
AcDbEntity
  8
Partition plan
100
AcDbPolyline
 90
141
 70
0
 10
1.904724409448825
 20
0.0
 10
2.3413385826771673
 20
0.5952755905511804
 10
2.7578740157480297
 20
1.140944881889764
 10
3.2200787401574757
 20
1.7165354330708666
 10
3.6712598425196816
 20
2.233858267716535
 10
4.131889763779526
 20
2.742913385826771
 10
4.642519685039375
 20
3.2763779527559045
 10
5.135039370078744
 20
3.754330708661417
 10
5.636220472440947
 20
4.223622047244094
 10
6.191338582677162
 20
4.71023622047244
 10
6.7216535433070845
 20
5.145669291338582
 10
7.260236220472443
 20
5.571653543307086
 10
7.855511811023618
 20
6.008267716535433
 10
8.420078740157486
 20
6.398425196850393
 10
8.99212598425197
 20
6.778346456692914
 10
9.623228346456692
 20
7.161417322834645
 10
10.218503937007874
 20
7.503149606299212
 10
10.819685039370079
 20
7.834251968503937
 10
11.481889763779535
 20
8.161023622047244
 10
12.103543307086618
 20
8.452362204724409
 10
12.77913385826772
 20
8.749606299212598
 10
13.418503937007877
 20
9.0
 10
14.061811023622049
 20
9.238976377952756
 10
14.761023622047247
 20
9.476377952755906
 10
15.418503937007877
 20
9.67283464566929
 10
16.07992125984252
 20
9.857480314960629
 10
16.796850393700794
 20
10.033070866141731
 10
17.468503937007874
 20
10.174409448818897
 10
18.142913385826773
 20
10.303543307086613
 10
18.87244094488189
 20
10.415748031496063
 10
19.553543307086617
 20
10.501181102362205
 10
20.236220472440944
 20
10.574015748031496
 10
20.97283464566929
 20
10.62244094488189
 10
21.65866141732284
 20
10.650787401574803
 10
22.370866141732282
 20
10.666535433070866
 10
23.109055118110238
 20
10.666535433070866
 10
23.84724409448819
 20
10.666535433070866
 10
24.58543307086614
 20
10.666535433070866
 10
25.323622047244093
 20
10.666535433070866
 10
26.06181102362205
 20
10.666535433070866
 10
26.8
 20
10.666535433070866
 10
27.53779527559055
 20
10.666535433070866
 10
28.275984251968506
 20
10.666535433070866
 10
29.014173228346458
 20
10.666535433070866
 10
29.75236220472441
 20
10.666535433070866
 10
30.49055118110236
 20
10.666535433070866
 10
31.228740157480317
 20
10.666535433070866
 10
31.96692913385827
 20
10.666535433070866
 10
32.70511811023622
 20
10.666535433070866
 10
33.443307086614176
 20
10.666535433070866
 10
34.181496062992125
 20
10.666535433070866
 10
34.91968503937008
 20
10.666535433070866
 10
35.657874015748035
 20
10.666535433070866
 10
36.395669291338585
 20
10.666535433070866
 10
37.13385826771653
 20
10.666535433070866
 10
37.87204724409449
 20
10.666535433070866
 10
38.610236220472444
 20
10.666535433070866
 10
39.34842519685039
 20
10.666535433070866
 10
40.08661417322835
 20
10.666535433070866
 10
40.824803149606296
 20
10.666535433070866
 10
41.56299212598425
 20
10.666535433070866
 10
42.30118110236221
 20
10.666535433070866
 10
43.039370078740156
 20
10.666535433070866
 10
43.77755905511811
 20
10.666535433070866
 10
44.51574803149607
 20
10.666535433070866
 10
45.253543307086616
 20
10.666535433070866
 10
45.99173228346457
 20
10.666535433070866
 10
46.72992125984252
 20
10.666535433070866
 10
47.468110236220475
 20
10.666535433070866
 10
48.206299212598424
 20
10.666535433070866
 10
48.94448818897638
 20
10.666535433070866
 10
49.682677165354335
 20
10.666535433070866
 10
50.42086614173228
 20
10.666535433070866
 10
51.15905511811024
 20
10.666535433070866
 10
51.89724409448819
 20
10.666535433070866
 10
52.63543307086614
 20
10.666535433070866
 10
53.37322834645669
 20
10.666535433070866
 10
54.11141732283465
 20
10.666535433070866
 10
54.8496062992126
 20
10.666535433070866
 10
55.58779527559055
 20
10.666535433070866
 10
56.32598425196851
 20
10.666535433070866
 10
57.06417322834646
 20
10.666535433070866
 10
57.80236220472441
 20
10.666535433070866
 10
58.540551181102366
 20
10.666535433070866
 10
59.278740157480314
 20
10.666535433070866
 10
60.01692913385827
 20
10.666535433070866
 10
60.755118110236225
 20
10.666535433070866
 10
61.49330708661417
 20
10.666535433070866
 10
62.23110236220472
 20
10.666535433070866
 10
62.96929133858268
 20
10.666535433070866
 10
63.707480314960634
 20
10.666535433070866
 10
64.44566929133859
 20
10.666535433070866
 10
65.18385826771654
 20
10.666535433070866
 10
65.92204724409449
 20
10.666535433070866
 10
66.66023622047244
 20
10.666535433070866
 10
67.3984251968504
 20
10.666535433070866
 10
68.13661417322835
 20
10.666535433070866
 10
68.8748031496063
 20
10.666535433070866
 10
69.61299212598425
 20
10.666535433070866
 10
70.3511811023622
 20
10.666535433070866
 10
71.08897637795276
 20
10.666535433070866
 10
71.8271653543307
 20
10.666535433070866
 10
72.56535433070866
 20
10.666535433070866
 10
73.30354330708661
 20
10.666535433070866
 10
74.04173228346457
 20
10.666535433070866
 10
74.77992125984252
 20
10.666535433070866
 10
75.51811023622048
 20
10.666535433070866
 10
76.23031496062993
 20
10.650787401574803
 10
76.91614173228346
 20
10.62244094488189
 10
77.65275590551181
 20
10.574015748031496
 10
78.33543307086615
 20
10.501181102362205
 10
79.01653543307087
 20
10.415748031496063
 10
79.74606299212599
 20
10.303543307086613
 10
80.42047244094488
 20
10.174409448818897
 10
81.09212598425196
 20
10.033070866141731
 10
81.80905511811024
 20
9.857480314960629
 10
82.47047244094489
 20
9.67283464566929
 10
83.12795275590551
 20
9.476377952755906
 10
83.8271653543307
 20
9.238976377952756
 10
84.47047244094489
 20
9.0
 10
85.10984251968503
 20
8.749606299212598
 10
85.78543307086613
 20
8.452362204724409
 10
86.40708661417322
 20
8.161023622047244
 10
87.06929133858267
 20
7.834251968503937
 10
87.67047244094488
 20
7.503149606299212
 10
88.26574803149606
 20
7.161417322834645
 10
88.89685039370079
 20
6.778346456692914
 10
89.46889763779527
 20
6.398425196850393
 10
90.03346456692914
 20
6.008267716535433
 10
90.62874015748031
 20
5.571653543307086
 10
91.16732283464567
 20
5.145669291338582
 10
91.6976377952756
 20
4.71023622047244
 10
92.2527559055118
 20
4.223622047244094
 10
92.75393700787401
 20
3.754330708661417
 10
93.24645669291338
 20
3.2763779527559045
 10
93.75708661417323
 20
2.742913385826771
 10
94.21771653543308
 20
2.233858267716535
 10
94.66889763779528
 20
1.7165354330708666
 10
95.13110236220473
 20
1.140944881889764
 10
95.54763779527559
 20
0.5952755905511804
 10
95.98425196850394
 20
0.0
  0
LINE
  5
8E
330
17
100
AcDbEntity
  8
Partition plan
100
AcDbLine
 10
0.0
 20
1.3968503937007881
 30
0.0
 11
1.9047244094488232
 21
0.0
 31
0.0
  0
LINE
  5
8F
330
17
100
AcDbEntity
  8
Partition plan
100
AcDbLine
 10
97.88897637795276
 20
1.3968503937007881
 30
0.0
 11
95.98425196850394
 21
0.0
 31
0.0
  0
LINE
  5
90
330
17
100
AcDbEntity
  8
Partition plan
100
AcDbLine
 10
17.784251968503938
 20
12.638582677165353
 30
0.0
 11
18.143700787401574
 21
10.303937007874017
 31
0.0
  0
LINE
  5
91
330
17
100
AcDbEntity
  8
Partition plan
100
AcDbLine
 10
38.611811023622046
 20
13.028740157480316
 30
0.0
 11
38.611811023622046
 21
10.666535433070866
 31
0.0
  0
LINE
  5
92
330
17
100
AcDbEntity
  8
Partition plan
100
AcDbLine
 10
59.28110236220473
 20
13.028740157480316
 30
0.0
 11
59.28110236220473
 21
10.666535433070866
 31
0.0
  0
LINE
  5
93
330
17
100
AcDbEntity
  8
Partition plan
100
AcDbLine
 10
80.10866141732284
 20
12.637795275590552
 30
0.0
 11
79.7492125984252
 21
10.303149606299211
 31
0.0
  0
TEXT
  5
94
330
17
100
AcDbEntity
  8
LABELS
100
AcDbText
 10
0.0
 20
15.390944881889764
 30
0.0
 40
1.9577795275590553
  1
PARTITION PLAN  (1:1, inches)
 11
0.0
 21
15.390944881889764
 31
0.0
100
AcDbText
  0
LWPOLYLINE
  5
97
330
17
100
AcDbEntity
  8
Partition elevation
100
AcDbPolyline
 90
5
 70
0
 10
112.57232283464566
 20
109.01574803149606
 10
215.91799212598426
 20
109.01574803149606
 10
215.91799212598426
 20
0.0
 10
112.57232283464566
 20
0.0
 10
112.57232283464566
 20
109.01574803149606
  0
LINE
  5
98
330
17
100
AcDbEntity
  8
Partition elevation
100
AcDbLine
 10
133.24161417322836
 20
109.01574803149606
 30
0.0
 11
133.24161417322836
 21
0.0
 31
0.0
  0
LINE
  5
99
330
17
100
AcDbEntity
  8
Partition elevation
100
AcDbLine
 10
153.91051181102364
 20
109.01574803149606
 30
0.0
 11
153.91051181102364
 21
0.0
 31
0.0
  0
LINE
  5
9A
330
17
100
AcDbEntity
  8
Partition elevation
100
AcDbLine
 10
174.5798031496063
 20
109.01574803149606
 30
0.0
 11
174.5798031496063
 21
0.0
 31
0.0
  0
LINE
  5
9B
330
17
100
AcDbEntity
  8
Partition elevation
100
AcDbLine
 10
195.24909448818894
 20
109.01574803149606
 30
0.0
 11
195.24909448818894
 21
0.0
 31
0.0
  0
LWPOLYLINE
  5
9C
330
17
100
AcDbEntity
  8
Partition elevation
100
AcDbPolyline
 90
5
 70
0
 10
118.47783464566928
 20
103.11023622047244
 10
210.0124803149606
 20
103.11023622047244
 10
210.0124803149606
 20
5.905511811023615
 10
118.47783464566928
 20
5.905511811023615
 10
118.47783464566928
 20
103.11023622047244
  0
LWPOLYLINE
  5
9D
330
17
100
AcDbEntity
  8
Partition elevation
100
AcDbPolyline
 90
5
 70
0
 10
129.1077559055118
 20
90.90551181102362
 10
199.38255905511812
 20
90.90551181102362
 10
199.38255905511812
 20
18.110236220472444
 10
129.1077559055118
 20
18.110236220472444
 10
129.1077559055118
 20
90.90551181102362
  0
LINE
  5
9E
330
17
100
AcDbEntity
  8
Partition elevation
100
AcDbLine
 10
129.91956692913385
 20
103.11023622047244
 30
0.0
 11
129.91956692913385
 21
90.90551181102362
 31
0.0
  0
LINE
  5
9F
330
17
100
AcDbEntity
  8
Partition elevation
100
AcDbLine
 10
129.91956692913385
 20
18.11023622047244
 30
0.0
 11
129.91956692913385
 21
5.905511811023622
 31
0.0
  0
LINE
  5
A0
330
17
100
AcDbEntity
  8
Partition elevation
100
AcDbLine
 10
141.36169291338584
 20
103.11023622047244
 30
0.0
 11
141.36169291338584
 21
90.90551181102362
 31
0.0
  0
LINE
  5
A1
330
17
100
AcDbEntity
  8
Partition elevation
100
AcDbLine
 10
141.36169291338584
 20
18.11023622047244
 30
0.0
 11
141.36169291338584
 21
5.905511811023622
 31
0.0
  0
LINE
  5
A2
330
17
100
AcDbEntity
  8
Partition elevation
100
AcDbLine
 10
152.80342519685038
 20
103.11023622047244
 30
0.0
 11
152.80342519685038
 21
90.90551181102362
 31
0.0
  0
LINE
  5
A3
330
17
100
AcDbEntity
  8
Partition elevation
100
AcDbLine
 10
152.80342519685038
 20
18.11023622047244
 30
0.0
 11
152.80342519685038
 21
5.905511811023622
 31
0.0
  0
LINE
  5
A4
330
17
100
AcDbEntity
  8
Partition elevation
100
AcDbLine
 10
164.24515748031496
 20
103.11023622047244
 30
0.0
 11
164.24515748031496
 21
90.90551181102362
 31
0.0
  0
LINE
  5
A5
330
17
100
AcDbEntity
  8
Partition elevation
100
AcDbLine
 10
164.24515748031496
 20
18.11023622047244
 30
0.0
 11
164.24515748031496
 21
5.905511811023622
 31
0.0
  0
LINE
  5
A6
330
17
100
AcDbEntity
  8
Partition elevation
100
AcDbLine
 10
175.68688976377953
 20
103.11023622047244
 30
0.0
 11
175.68688976377953
 21
90.90551181102362
 31
0.0
  0
LINE
  5
A7
330
17
100
AcDbEntity
  8
Partition elevation
100
AcDbLine
 10
175.68688976377953
 20
18.11023622047244
 30
0.0
 11
175.68688976377953
 21
5.905511811023622
 31
0.0
  0
LINE
  5
A8
330
17
100
AcDbEntity
  8
Partition elevation
100
AcDbLine
 10
187.1290157480315
 20
103.11023622047244
 30
0.0
 11
187.1290157480315
 21
90.90551181102362
 31
0.0
  0
LINE
  5
A9
330
17
100
AcDbEntity
  8
Partition elevation
100
AcDbLine
 10
187.1290157480315
 20
18.11023622047244
 30
0.0
 11
187.1290157480315
 21
5.905511811023622
 31
0.0
  0
LINE
  5
AA
330
17
100
AcDbEntity
  8
Partition elevation
100
AcDbLine
 10
198.57074803149607
 20
103.11023622047244
 30
0.0
 11
198.57074803149607
 21
90.90551181102362
 31
0.0
  0
LINE
  5
AB
330
17
100
AcDbEntity
  8
Partition elevation
100
AcDbLine
 10
198.57074803149607
 20
18.11023622047244
 30
0.0
 11
198.57074803149607
 21
5.905511811023622
 31
0.0
  0
LINE
  5
AC
330
17
100
AcDbEntity
  8
Partition elevation
100
AcDbLine
 10
118.47783464566929
 20
92.30984251968503
 30
0.0
 11
129.10775590551182
 21
92.30984251968503
 31
0.0
  0
LINE
  5
AD
330
17
100
AcDbEntity
  8
Partition elevation
100
AcDbLine
 10
199.3825590551181
 20
92.30984251968503
 30
0.0
 11
210.01248031496064
 21
92.30984251968503
 31
0.0
  0
LINE
  5
AE
330
17
100
AcDbEntity
  8
Partition elevation
100
AcDbLine
 10
118.47783464566929
 20
81.50905511811023
 30
0.0
 11
129.10775590551182
 21
81.50905511811023
 31
0.0
  0
LINE
  5
AF
330
17
100
AcDbEntity
  8
Partition elevation
100
AcDbLine
 10
199.3825590551181
 20
81.50905511811023
 30
0.0
 11
210.01248031496064
 21
81.50905511811023
 31
0.0
  0
LINE
  5
B0
330
17
100
AcDbEntity
  8
Partition elevation
100
AcDbLine
 10
118.47783464566929
 20
70.70866141732283
 30
0.0
 11
129.10775590551182
 21
70.70866141732283
 31
0.0
  0
LINE
  5
B1
330
17
100
AcDbEntity
  8
Partition elevation
100
AcDbLine
 10
199.3825590551181
 20
70.70866141732283
 30
0.0
 11
210.01248031496064
 21
70.70866141732283
 31
0.0
  0
LINE
  5
B2
330
17
100
AcDbEntity
  8
Partition elevation
100
AcDbLine
 10
118.47783464566929
 20
59.908267716535434
 30
0.0
 11
129.10775590551182
 21
59.908267716535434
 31
0.0
  0
LINE
  5
B3
330
17
100
AcDbEntity
  8
Partition elevation
100
AcDbLine
 10
199.3825590551181
 20
59.908267716535434
 30
0.0
 11
210.01248031496064
 21
59.908267716535434
 31
0.0
  0
LINE
  5
B4
330
17
100
AcDbEntity
  8
Partition elevation
100
AcDbLine
 10
118.47783464566929
 20
49.107480314960625
 30
0.0
 11
129.10775590551182
 21
49.107480314960625
 31
0.0
  0
LINE
  5
B5
330
17
100
AcDbEntity
  8
Partition elevation
100
AcDbLine
 10
199.3825590551181
 20
49.107480314960625
 30
0.0
 11
210.01248031496064
 21
49.107480314960625
 31
0.0
  0
LINE
  5
B6
330
17
100
AcDbEntity
  8
Partition elevation
100
AcDbLine
 10
118.47783464566929
 20
38.30708661417323
 30
0.0
 11
129.10775590551182
 21
38.30708661417323
 31
0.0
  0
LINE
  5
B7
330
17
100
AcDbEntity
  8
Partition elevation
100
AcDbLine
 10
199.3825590551181
 20
38.30708661417323
 30
0.0
 11
210.01248031496064
 21
38.30708661417323
 31
0.0
  0
LINE
  5
B8
330
17
100
AcDbEntity
  8
Partition elevation
100
AcDbLine
 10
118.47783464566929
 20
27.50669291338583
 30
0.0
 11
129.10775590551182
 21
27.50669291338583
 31
0.0
  0
LINE
  5
B9
330
17
100
AcDbEntity
  8
Partition elevation
100
AcDbLine
 10
199.3825590551181
 20
27.50669291338583
 30
0.0
 11
210.01248031496064
 21
27.50669291338583
 31
0.0
  0
LINE
  5
BA
330
17
100
AcDbEntity
  8
Partition elevation
100
AcDbLine
 10
118.47783464566929
 20
16.70590551181102
 30
0.0
 11
129.10775590551182
 21
16.70590551181102
 31
0.0
  0
LINE
  5
BB
330
17
100
AcDbEntity
  8
Partition elevation
100
AcDbLine
 10
199.3825590551181
 20
16.70590551181102
 30
0.0
 11
210.01248031496064
 21
16.70590551181102
 31
0.0
  0
LINE
  5
BC
330
17
100
AcDbEntity
  8
Partition elevation
100
AcDbLine
 10
123.79279527559055
 20
103.11023622047244
 30
0.0
 11
123.79279527559055
 21
5.905511811023622
 31
0.0
  0
LINE
  5
BD
330
17
100
AcDbEntity
  8
Partition elevation
100
AcDbLine
 10
204.69751968503937
 20
103.11023622047244
 30
0.0
 11
204.69751968503937
 21
5.905511811023622
 31
0.0
  0
LINE
  5
BE
330
17
100
AcDbEntity
  8
Partition elevation
100
AcDbLine
 10
118.47783464566929
 20
97.00787401574803
 30
0.0
 11
210.01248031496064
 21
97.00787401574803
 31
0.0
  0
LINE
  5
BF
330
17
100
AcDbEntity
  8
Partition elevation
100
AcDbLine
 10
118.47783464566929
 20
12.007874015748031
 30
0.0
 11
210.01248031496064
 21
12.007874015748031
 31
0.0
  0
LWPOLYLINE
  5
C0
330
17
100
AcDbEntity
  8
Partition elevation
100
AcDbPolyline
 90
5
 70
0
 10
126.35185039370077
 20
93.66141732283464
 10
131.86366141732282
 20
93.66141732283464
 10
131.86366141732282
 20
88.14960629921259
 10
126.35185039370077
 20
88.14960629921259
 10
126.35185039370077
 20
93.66141732283464
  0
LINE
  5
C1
330
17
100
AcDbEntity
  8
Partition elevation
100
AcDbLine
 10
126.35185039370079
 20
93.66141732283464
 30
0.0
 11
131.86366141732285
 21
88.14960629921259
 31
0.0
  0
LINE
  5
C2
330
17
100
AcDbEntity
  8
Partition elevation
100
AcDbLine
 10
131.86366141732285
 20
93.66141732283464
 30
0.0
 11
126.35185039370079
 21
88.14960629921259
 31
0.0
  0
LWPOLYLINE
  5
C3
330
17
100
AcDbEntity
  8
Partition elevation
100
AcDbPolyline
 90
5
 70
0
 10
128.39122047244095
 20
91.62204724409449
 10
129.82429133858267
 20
91.62204724409449
 10
129.82429133858267
 20
90.18897637795276
 10
128.39122047244095
 20
90.18897637795276
 10
128.39122047244095
 20
91.62204724409449
  0
LWPOLYLINE
  5
C4
330
17
100
AcDbEntity
  8
Partition elevation
100
AcDbPolyline
 90
5
 70
0
 10
196.62665354330707
 20
93.66141732283464
 10
202.13846456692914
 20
93.66141732283464
 10
202.13846456692914
 20
88.14960629921259
 10
196.62665354330707
 20
88.14960629921259
 10
196.62665354330707
 20
93.66141732283464
  0
LINE
  5
C5
330
17
100
AcDbEntity
  8
Partition elevation
100
AcDbLine
 10
196.62665354330707
 20
93.66141732283464
 30
0.0
 11
202.13846456692914
 21
88.14960629921259
 31
0.0
  0
LINE
  5
C6
330
17
100
AcDbEntity
  8
Partition elevation
100
AcDbLine
 10
202.13846456692914
 20
93.66141732283464
 30
0.0
 11
196.62665354330707
 21
88.14960629921259
 31
0.0
  0
LWPOLYLINE
  5
C7
330
17
100
AcDbEntity
  8
Partition elevation
100
AcDbPolyline
 90
5
 70
0
 10
198.66602362204725
 20
91.62204724409449
 10
200.099094488189
 20
91.62204724409449
 10
200.099094488189
 20
90.18897637795276
 10
198.66602362204725
 20
90.18897637795276
 10
198.66602362204725
 20
91.62204724409449
  0
LWPOLYLINE
  5
C8
330
17
100
AcDbEntity
  8
Partition elevation
100
AcDbPolyline
 90
5
 70
0
 10
126.35185039370077
 20
20.866141732283467
 10
131.86366141732282
 20
20.866141732283467
 10
131.86366141732282
 20
15.354330708661422
 10
126.35185039370077
 20
15.354330708661422
 10
126.35185039370077
 20
20.866141732283467
  0
LINE
  5
C9
330
17
100
AcDbEntity
  8
Partition elevation
100
AcDbLine
 10
126.35185039370079
 20
20.866141732283463
 30
0.0
 11
131.86366141732285
 21
15.354330708661417
 31
0.0
  0
LINE
  5
CA
330
17
100
AcDbEntity
  8
Partition elevation
100
AcDbLine
 10
131.86366141732285
 20
20.866141732283463
 30
0.0
 11
126.35185039370079
 21
15.354330708661417
 31
0.0
  0
LWPOLYLINE
  5
CB
330
17
100
AcDbEntity
  8
Partition elevation
100
AcDbPolyline
 90
5
 70
0
 10
128.39122047244095
 20
18.826771653543304
 10
129.82429133858267
 20
18.826771653543304
 10
129.82429133858267
 20
17.393700787401556
 10
128.39122047244095
 20
17.393700787401556
 10
128.39122047244095
 20
18.826771653543304
  0
LWPOLYLINE
  5
CC
330
17
100
AcDbEntity
  8
Partition elevation
100
AcDbPolyline
 90
5
 70
0
 10
196.62665354330707
 20
20.866141732283467
 10
202.13846456692914
 20
20.866141732283467
 10
202.13846456692914
 20
15.354330708661422
 10
196.62665354330707
 20
15.354330708661422
 10
196.62665354330707
 20
20.866141732283467
  0
LINE
  5
CD
330
17
100
AcDbEntity
  8
Partition elevation
100
AcDbLine
 10
196.62665354330707
 20
20.866141732283463
 30
0.0
 11
202.13846456692914
 21
15.354330708661417
 31
0.0
  0
LINE
  5
CE
330
17
100
AcDbEntity
  8
Partition elevation
100
AcDbLine
 10
202.13846456692914
 20
20.866141732283463
 30
0.0
 11
196.62665354330707
 21
15.354330708661417
 31
0.0
  0
LWPOLYLINE
  5
CF
330
17
100
AcDbEntity
  8
Partition elevation
100
AcDbPolyline
 90
5
 70
0
 10
198.66602362204725
 20
18.826771653543304
 10
200.099094488189
 20
18.826771653543304
 10
200.099094488189
 20
17.393700787401556
 10
198.66602362204725
 20
17.393700787401556
 10
198.66602362204725
 20
18.826771653543304
  0
LWPOLYLINE
  5
D0
330
17
100
AcDbEntity
  8
Partition elevation
100
AcDbPolyline
 90
5
 70
0
 10
161.7097244094488
 20
99.54330708661416
 10
166.7805905511811
 20
99.54330708661416
 10
166.7805905511811
 20
94.47244094488188
 10
161.7097244094488
 20
94.47244094488188
 10
161.7097244094488
 20
99.54330708661416
  0
LINE
  5
D1
330
17
100
AcDbEntity
  8
Partition elevation
100
AcDbLine
 10
161.7097244094488
 20
99.54330708661418
 30
0.0
 11
166.7805905511811
 21
94.47244094488188
 31
0.0
  0
LINE
  5
D2
330
17
100
AcDbEntity
  8
Partition elevation
100
AcDbLine
 10
166.7805905511811
 20
99.54330708661418
 30
0.0
 11
161.7097244094488
 21
94.47244094488188
 31
0.0
  0
LWPOLYLINE
  5
D3
330
17
100
AcDbEntity
  8
Partition elevation
100
AcDbPolyline
 90
5
 70
0
 10
163.5861023622047
 20
97.66692913385826
 10
164.9046062992126
 20
97.66692913385826
 10
164.9046062992126
 20
96.34842519685039
 10
163.5861023622047
 20
96.34842519685039
 10
163.5861023622047
 20
97.66692913385826
  0
LWPOLYLINE
  5
D4
330
17
100
AcDbEntity
  8
Partition elevation
100
AcDbPolyline
 90
5
 70
0
 10
161.7097244094488
 20
14.543307086614178
 10
166.7805905511811
 20
14.543307086614178
 10
166.7805905511811
 20
9.472440944881882
 10
161.7097244094488
 20
9.472440944881882
 10
161.7097244094488
 20
14.543307086614178
  0
LINE
  5
D5
330
17
100
AcDbEntity
  8
Partition elevation
100
AcDbLine
 10
161.7097244094488
 20
14.543307086614176
 30
0.0
 11
166.7805905511811
 21
9.472440944881885
 31
0.0
  0
LINE
  5
D6
330
17
100
AcDbEntity
  8
Partition elevation
100
AcDbLine
 10
166.7805905511811
 20
14.543307086614176
 30
0.0
 11
161.7097244094488
 21
9.472440944881885
 31
0.0
  0
LWPOLYLINE
  5
D7
330
17
100
AcDbEntity
  8
Partition elevation
100
AcDbPolyline
 90
5
 70
0
 10
163.5861023622047
 20
12.666929133858261
 10
164.9046062992126
 20
12.666929133858261
 10
164.9046062992126
 20
11.348425196850386
 10
163.5861023622047
 20
11.348425196850386
 10
163.5861023622047
 20
12.666929133858261
  0
LWPOLYLINE
  5
D8
330
17
100
AcDbEntity
  8
Partition elevation
100
AcDbPolyline
 90
5
 70
0
 10
121.2573622047244
 20
57.04330708661417
 10
126.32822834645668
 20
57.04330708661417
 10
126.32822834645668
 20
51.97244094488189
 10
121.2573622047244
 20
51.97244094488189
 10
121.2573622047244
 20
57.04330708661417
  0
LINE
  5
D9
330
17
100
AcDbEntity
  8
Partition elevation
100
AcDbLine
 10
121.2573622047244
 20
57.04330708661418
 30
0.0
 11
126.3282283464567
 21
51.97244094488189
 31
0.0
  0
LINE
  5
DA
330
17
100
AcDbEntity
  8
Partition elevation
100
AcDbLine
 10
126.3282283464567
 20
57.04330708661418
 30
0.0
 11
121.2573622047244
 21
51.97244094488189
 31
0.0
  0
LWPOLYLINE
  5
DB
330
17
100
AcDbEntity
  8
Partition elevation
100
AcDbPolyline
 90
5
 70
0
 10
123.1337401574803
 20
55.16692913385827
 10
124.45224409448818
 20
55.16692913385827
 10
124.45224409448818
 20
53.84842519685039
 10
123.1337401574803
 20
53.84842519685039
 10
123.1337401574803
 20
55.16692913385827
  0
LWPOLYLINE
  5
DC
330
17
100
AcDbEntity
  8
Partition elevation
100
AcDbPolyline
 90
5
 70
0
 10
202.16208661417323
 20
57.04330708661417
 10
207.2329527559055
 20
57.04330708661417
 10
207.2329527559055
 20
51.97244094488189
 10
202.16208661417323
 20
51.97244094488189
 10
202.16208661417323
 20
57.04330708661417
  0
LINE
  5
DD
330
17
100
AcDbEntity
  8
Partition elevation
100
AcDbLine
 10
202.1620866141732
 20
57.04330708661418
 30
0.0
 11
207.23295275590553
 21
51.97244094488189
 31
0.0
  0
LINE
  5
DE
330
17
100
AcDbEntity
  8
Partition elevation
100
AcDbLine
 10
207.23295275590553
 20
57.04330708661418
 30
0.0
 11
202.1620866141732
 21
51.97244094488189
 31
0.0
  0
LWPOLYLINE
  5
DF
330
17
100
AcDbEntity
  8
Partition elevation
100
AcDbPolyline
 90
5
 70
0
 10
204.03846456692912
 20
55.16692913385827
 10
205.35696850393697
 20
55.16692913385827
 10
205.35696850393697
 20
53.84842519685039
 10
204.03846456692912
 20
53.84842519685039
 10
204.03846456692912
 20
55.16692913385827
  0
TEXT
  5
E0
330
17
100
AcDbEntity
  8
LABELS
100
AcDbText
 10
112.57232283464566
 20
111.37795275590551
 30
0.0
 40
2.066913385826772
  1
PARTITION ELEVATION  (1:1, inches)
 11
112.57232283464566
 21
111.37795275590551
 31
0.0
100
AcDbText
  0
LWPOLYLINE
  5
E3
330
17
100
AcDbEntity
  8
Elevation with television
100
AcDbPolyline
 90
5
 70
0
 10
231.41984251968506
 20
109.01574803149606
 10
334.76551181102366
 20
109.01574803149606
 10
334.76551181102366
 20
0.0
 10
231.41984251968506
 20
0.0
 10
231.41984251968506
 20
109.01574803149606
  0
LINE
  5
E4
330
17
100
AcDbEntity
  8
Elevation with television
100
AcDbLine
 10
252.08913385826773
 20
109.01574803149606
 30
0.0
 11
252.08913385826773
 21
0.0
 31
0.0
  0
LINE
  5
E5
330
17
100
AcDbEntity
  8
Elevation with television
100
AcDbLine
 10
272.758031496063
 20
109.01574803149606
 30
0.0
 11
272.758031496063
 21
0.0
 31
0.0
  0
LINE
  5
E6
330
17
100
AcDbEntity
  8
Elevation with television
100
AcDbLine
 10
293.4273228346457
 20
109.01574803149606
 30
0.0
 11
293.4273228346457
 21
0.0
 31
0.0
  0
LINE
  5
E7
330
17
100
AcDbEntity
  8
Elevation with television
100
AcDbLine
 10
314.0966141732283
 20
109.01574803149606
 30
0.0
 11
314.0966141732283
 21
0.0
 31
0.0
  0
LWPOLYLINE
  5
E8
330
17
100
AcDbEntity
  8
Elevation with television
100
AcDbPolyline
 90
5
 70
0
 10
237.32535433070868
 20
103.11023622047244
 10
328.86
 20
103.11023622047244
 10
328.86
 20
5.905511811023615
 10
237.32535433070868
 20
5.905511811023615
 10
237.32535433070868
 20
103.11023622047244
  0
LWPOLYLINE
  5
E9
330
17
100
AcDbEntity
  8
Elevation with television
100
AcDbPolyline
 90
5
 70
0
 10
247.9552755905512
 20
90.90551181102362
 10
318.2300787401575
 20
90.90551181102362
 10
318.2300787401575
 20
18.110236220472444
 10
247.9552755905512
 20
18.110236220472444
 10
247.9552755905512
 20
90.90551181102362
  0
LINE
  5
EA
330
17
100
AcDbEntity
  8
Elevation with television
100
AcDbLine
 10
248.76708661417322
 20
103.11023622047244
 30
0.0
 11
248.76708661417322
 21
90.90551181102362
 31
0.0
  0
LINE
  5
EB
330
17
100
AcDbEntity
  8
Elevation with television
100
AcDbLine
 10
248.76708661417322
 20
18.11023622047244
 30
0.0
 11
248.76708661417322
 21
5.905511811023622
 31
0.0
  0
LINE
  5
EC
330
17
100
AcDbEntity
  8
Elevation with television
100
AcDbLine
 10
260.2092125984252
 20
103.11023622047244
 30
0.0
 11
260.2092125984252
 21
90.90551181102362
 31
0.0
  0
LINE
  5
ED
330
17
100
AcDbEntity
  8
Elevation with television
100
AcDbLine
 10
260.2092125984252
 20
18.11023622047244
 30
0.0
 11
260.2092125984252
 21
5.905511811023622
 31
0.0
  0
LINE
  5
EE
330
17
100
AcDbEntity
  8
Elevation with television
100
AcDbLine
 10
271.65094488188976
 20
103.11023622047244
 30
0.0
 11
271.65094488188976
 21
90.90551181102362
 31
0.0
  0
LINE
  5
EF
330
17
100
AcDbEntity
  8
Elevation with television
100
AcDbLine
 10
271.65094488188976
 20
18.11023622047244
 30
0.0
 11
271.65094488188976
 21
5.905511811023622
 31
0.0
  0
LINE
  5
F0
330
17
100
AcDbEntity
  8
Elevation with television
100
AcDbLine
 10
283.0926771653543
 20
103.11023622047244
 30
0.0
 11
283.0926771653543
 21
90.90551181102362
 31
0.0
  0
LINE
  5
F1
330
17
100
AcDbEntity
  8
Elevation with television
100
AcDbLine
 10
283.0926771653543
 20
18.11023622047244
 30
0.0
 11
283.0926771653543
 21
5.905511811023622
 31
0.0
  0
LINE
  5
F2
330
17
100
AcDbEntity
  8
Elevation with television
100
AcDbLine
 10
294.5344094488189
 20
103.11023622047244
 30
0.0
 11
294.5344094488189
 21
90.90551181102362
 31
0.0
  0
LINE
  5
F3
330
17
100
AcDbEntity
  8
Elevation with television
100
AcDbLine
 10
294.5344094488189
 20
18.11023622047244
 30
0.0
 11
294.5344094488189
 21
5.905511811023622
 31
0.0
  0
LINE
  5
F4
330
17
100
AcDbEntity
  8
Elevation with television
100
AcDbLine
 10
305.97653543307086
 20
103.11023622047244
 30
0.0
 11
305.97653543307086
 21
90.90551181102362
 31
0.0
  0
LINE
  5
F5
330
17
100
AcDbEntity
  8
Elevation with television
100
AcDbLine
 10
305.97653543307086
 20
18.11023622047244
 30
0.0
 11
305.97653543307086
 21
5.905511811023622
 31
0.0
  0
LINE
  5
F6
330
17
100
AcDbEntity
  8
Elevation with television
100
AcDbLine
 10
317.41826771653547
 20
103.11023622047244
 30
0.0
 11
317.41826771653547
 21
90.90551181102362
 31
0.0
  0
LINE
  5
F7
330
17
100
AcDbEntity
  8
Elevation with television
100
AcDbLine
 10
317.41826771653547
 20
18.11023622047244
 30
0.0
 11
317.41826771653547
 21
5.905511811023622
 31
0.0
  0
LINE
  5
F8
330
17
100
AcDbEntity
  8
Elevation with television
100
AcDbLine
 10
237.32535433070868
 20
92.30984251968503
 30
0.0
 11
247.9552755905512
 21
92.30984251968503
 31
0.0
  0
LINE
  5
F9
330
17
100
AcDbEntity
  8
Elevation with television
100
AcDbLine
 10
318.23007874015747
 20
92.30984251968503
 30
0.0
 11
328.86
 21
92.30984251968503
 31
0.0
  0
LINE
  5
FA
330
17
100
AcDbEntity
  8
Elevation with television
100
AcDbLine
 10
237.32535433070868
 20
81.50905511811023
 30
0.0
 11
247.9552755905512
 21
81.50905511811023
 31
0.0
  0
LINE
  5
FB
330
17
100
AcDbEntity
  8
Elevation with television
100
AcDbLine
 10
318.23007874015747
 20
81.50905511811023
 30
0.0
 11
328.86
 21
81.50905511811023
 31
0.0
  0
LINE
  5
FC
330
17
100
AcDbEntity
  8
Elevation with television
100
AcDbLine
 10
237.32535433070868
 20
70.70866141732283
 30
0.0
 11
247.9552755905512
 21
70.70866141732283
 31
0.0
  0
LINE
  5
FD
330
17
100
AcDbEntity
  8
Elevation with television
100
AcDbLine
 10
318.23007874015747
 20
70.70866141732283
 30
0.0
 11
328.86
 21
70.70866141732283
 31
0.0
  0
LINE
  5
FE
330
17
100
AcDbEntity
  8
Elevation with television
100
AcDbLine
 10
237.32535433070868
 20
59.908267716535434
 30
0.0
 11
247.9552755905512
 21
59.908267716535434
 31
0.0
  0
LINE
  5
FF
330
17
100
AcDbEntity
  8
Elevation with television
100
AcDbLine
 10
318.23007874015747
 20
59.908267716535434
 30
0.0
 11
328.86
 21
59.908267716535434
 31
0.0
  0
LINE
  5
100
330
17
100
AcDbEntity
  8
Elevation with television
100
AcDbLine
 10
237.32535433070868
 20
49.107480314960625
 30
0.0
 11
247.9552755905512
 21
49.107480314960625
 31
0.0
  0
LINE
  5
101
330
17
100
AcDbEntity
  8
Elevation with television
100
AcDbLine
 10
318.23007874015747
 20
49.107480314960625
 30
0.0
 11
328.86
 21
49.107480314960625
 31
0.0
  0
LINE
  5
102
330
17
100
AcDbEntity
  8
Elevation with television
100
AcDbLine
 10
237.32535433070868
 20
38.30708661417323
 30
0.0
 11
247.9552755905512
 21
38.30708661417323
 31
0.0
  0
LINE
  5
103
330
17
100
AcDbEntity
  8
Elevation with television
100
AcDbLine
 10
318.23007874015747
 20
38.30708661417323
 30
0.0
 11
328.86
 21
38.30708661417323
 31
0.0
  0
LINE
  5
104
330
17
100
AcDbEntity
  8
Elevation with television
100
AcDbLine
 10
237.32535433070868
 20
27.50669291338583
 30
0.0
 11
247.9552755905512
 21
27.50669291338583
 31
0.0
  0
LINE
  5
105
330
17
100
AcDbEntity
  8
Elevation with television
100
AcDbLine
 10
318.23007874015747
 20
27.50669291338583
 30
0.0
 11
328.86
 21
27.50669291338583
 31
0.0
  0
LINE
  5
106
330
17
100
AcDbEntity
  8
Elevation with television
100
AcDbLine
 10
237.32535433070868
 20
16.70590551181102
 30
0.0
 11
247.9552755905512
 21
16.70590551181102
 31
0.0
  0
LINE
  5
107
330
17
100
AcDbEntity
  8
Elevation with television
100
AcDbLine
 10
318.23007874015747
 20
16.70590551181102
 30
0.0
 11
328.86
 21
16.70590551181102
 31
0.0
  0
LINE
  5
108
330
17
100
AcDbEntity
  8
Elevation with television
100
AcDbLine
 10
242.64031496062992
 20
103.11023622047244
 30
0.0
 11
242.64031496062992
 21
5.905511811023622
 31
0.0
  0
LINE
  5
109
330
17
100
AcDbEntity
  8
Elevation with television
100
AcDbLine
 10
323.5450393700787
 20
103.11023622047244
 30
0.0
 11
323.5450393700787
 21
5.905511811023622
 31
0.0
  0
LINE
  5
10A
330
17
100
AcDbEntity
  8
Elevation with television
100
AcDbLine
 10
237.32535433070868
 20
97.00787401574803
 30
0.0
 11
328.86
 21
97.00787401574803
 31
0.0
  0
LINE
  5
10B
330
17
100
AcDbEntity
  8
Elevation with television
100
AcDbLine
 10
237.32535433070868
 20
12.007874015748031
 30
0.0
 11
328.86
 21
12.007874015748031
 31
0.0
  0
LWPOLYLINE
  5
10C
330
17
100
AcDbEntity
  8
Elevation with television
100
AcDbPolyline
 90
5
 70
0
 10
245.19937007874017
 20
93.66141732283464
 10
250.71118110236222
 20
93.66141732283464
 10
250.71118110236222
 20
88.14960629921259
 10
245.19937007874017
 20
88.14960629921259
 10
245.19937007874017
 20
93.66141732283464
  0
LINE
  5
10D
330
17
100
AcDbEntity
  8
Elevation with television
100
AcDbLine
 10
245.19937007874017
 20
93.66141732283464
 30
0.0
 11
250.71118110236222
 21
88.14960629921259
 31
0.0
  0
LINE
  5
10E
330
17
100
AcDbEntity
  8
Elevation with television
100
AcDbLine
 10
250.71118110236222
 20
93.66141732283464
 30
0.0
 11
245.19937007874017
 21
88.14960629921259
 31
0.0
  0
LWPOLYLINE
  5
10F
330
17
100
AcDbEntity
  8
Elevation with television
100
AcDbPolyline
 90
5
 70
0
 10
247.23874015748035
 20
91.62204724409449
 10
248.67181102362207
 20
91.62204724409449
 10
248.67181102362207
 20
90.18897637795276
 10
247.23874015748035
 20
90.18897637795276
 10
247.23874015748035
 20
91.62204724409449
  0
LWPOLYLINE
  5
110
330
17
100
AcDbEntity
  8
Elevation with television
100
AcDbPolyline
 90
5
 70
0
 10
315.47417322834644
 20
93.66141732283464
 10
320.98598425196855
 20
93.66141732283464
 10
320.98598425196855
 20
88.14960629921259
 10
315.47417322834644
 20
88.14960629921259
 10
315.47417322834644
 20
93.66141732283464
  0
LINE
  5
111
330
17
100
AcDbEntity
  8
Elevation with television
100
AcDbLine
 10
315.47417322834644
 20
93.66141732283464
 30
0.0
 11
320.9859842519685
 21
88.14960629921259
 31
0.0
  0
LINE
  5
112
330
17
100
AcDbEntity
  8
Elevation with television
100
AcDbLine
 10
320.9859842519685
 20
93.66141732283464
 30
0.0
 11
315.47417322834644
 21
88.14960629921259
 31
0.0
  0
LWPOLYLINE
  5
113
330
17
100
AcDbEntity
  8
Elevation with television
100
AcDbPolyline
 90
5
 70
0
 10
317.51354330708665
 20
91.62204724409449
 10
318.9466141732284
 20
91.62204724409449
 10
318.9466141732284
 20
90.18897637795276
 10
317.51354330708665
 20
90.18897637795276
 10
317.51354330708665
 20
91.62204724409449
  0
LWPOLYLINE
  5
114
330
17
100
AcDbEntity
  8
Elevation with television
100
AcDbPolyline
 90
5
 70
0
 10
245.19937007874017
 20
20.866141732283467
 10
250.71118110236222
 20
20.866141732283467
 10
250.71118110236222
 20
15.354330708661422
 10
245.19937007874017
 20
15.354330708661422
 10
245.19937007874017
 20
20.866141732283467
  0
LINE
  5
115
330
17
100
AcDbEntity
  8
Elevation with television
100
AcDbLine
 10
245.19937007874017
 20
20.866141732283463
 30
0.0
 11
250.71118110236222
 21
15.354330708661417
 31
0.0
  0
LINE
  5
116
330
17
100
AcDbEntity
  8
Elevation with television
100
AcDbLine
 10
250.71118110236222
 20
20.866141732283463
 30
0.0
 11
245.19937007874017
 21
15.354330708661417
 31
0.0
  0
LWPOLYLINE
  5
117
330
17
100
AcDbEntity
  8
Elevation with television
100
AcDbPolyline
 90
5
 70
0
 10
247.23874015748035
 20
18.826771653543304
 10
248.67181102362207
 20
18.826771653543304
 10
248.67181102362207
 20
17.393700787401556
 10
247.23874015748035
 20
17.393700787401556
 10
247.23874015748035
 20
18.826771653543304
  0
LWPOLYLINE
  5
118
330
17
100
AcDbEntity
  8
Elevation with television
100
AcDbPolyline
 90
5
 70
0
 10
315.47417322834644
 20
20.866141732283467
 10
320.98598425196855
 20
20.866141732283467
 10
320.98598425196855
 20
15.354330708661422
 10
315.47417322834644
 20
15.354330708661422
 10
315.47417322834644
 20
20.866141732283467
  0
LINE
  5
119
330
17
100
AcDbEntity
  8
Elevation with television
100
AcDbLine
 10
315.47417322834644
 20
20.866141732283463
 30
0.0
 11
320.9859842519685
 21
15.354330708661417
 31
0.0
  0
LINE
  5
11A
330
17
100
AcDbEntity
  8
Elevation with television
100
AcDbLine
 10
320.9859842519685
 20
20.866141732283463
 30
0.0
 11
315.47417322834644
 21
15.354330708661417
 31
0.0
  0
LWPOLYLINE
  5
11B
330
17
100
AcDbEntity
  8
Elevation with television
100
AcDbPolyline
 90
5
 70
0
 10
317.51354330708665
 20
18.826771653543304
 10
318.9466141732284
 20
18.826771653543304
 10
318.9466141732284
 20
17.393700787401556
 10
317.51354330708665
 20
17.393700787401556
 10
317.51354330708665
 20
18.826771653543304
  0
LWPOLYLINE
  5
11C
330
17
100
AcDbEntity
  8
Elevation with television
100
AcDbPolyline
 90
5
 70
0
 10
280.5572440944882
 20
99.54330708661416
 10
285.6281102362205
 20
99.54330708661416
 10
285.6281102362205
 20
94.47244094488188
 10
280.5572440944882
 20
94.47244094488188
 10
280.5572440944882
 20
99.54330708661416
  0
LINE
  5
11D
330
17
100
AcDbEntity
  8
Elevation with television
100
AcDbLine
 10
280.5572440944882
 20
99.54330708661418
 30
0.0
 11
285.6281102362205
 21
94.47244094488188
 31
0.0
  0
LINE
  5
11E
330
17
100
AcDbEntity
  8
Elevation with television
100
AcDbLine
 10
285.6281102362205
 20
99.54330708661418
 30
0.0
 11
280.5572440944882
 21
94.47244094488188
 31
0.0
  0
LWPOLYLINE
  5
11F
330
17
100
AcDbEntity
  8
Elevation with television
100
AcDbPolyline
 90
5
 70
0
 10
282.4336220472441
 20
97.66692913385826
 10
283.75212598425196
 20
97.66692913385826
 10
283.75212598425196
 20
96.34842519685039
 10
282.4336220472441
 20
96.34842519685039
 10
282.4336220472441
 20
97.66692913385826
  0
LWPOLYLINE
  5
120
330
17
100
AcDbEntity
  8
Elevation with television
100
AcDbPolyline
 90
5
 70
0
 10
280.5572440944882
 20
14.543307086614178
 10
285.6281102362205
 20
14.543307086614178
 10
285.6281102362205
 20
9.472440944881882
 10
280.5572440944882
 20
9.472440944881882
 10
280.5572440944882
 20
14.543307086614178
  0
LINE
  5
121
330
17
100
AcDbEntity
  8
Elevation with television
100
AcDbLine
 10
280.5572440944882
 20
14.543307086614176
 30
0.0
 11
285.6281102362205
 21
9.472440944881885
 31
0.0
  0
LINE
  5
122
330
17
100
AcDbEntity
  8
Elevation with television
100
AcDbLine
 10
285.6281102362205
 20
14.543307086614176
 30
0.0
 11
280.5572440944882
 21
9.472440944881885
 31
0.0
  0
LWPOLYLINE
  5
123
330
17
100
AcDbEntity
  8
Elevation with television
100
AcDbPolyline
 90
5
 70
0
 10
282.4336220472441
 20
12.666929133858261
 10
283.75212598425196
 20
12.666929133858261
 10
283.75212598425196
 20
11.348425196850386
 10
282.4336220472441
 20
11.348425196850386
 10
282.4336220472441
 20
12.666929133858261
  0
LWPOLYLINE
  5
124
330
17
100
AcDbEntity
  8
Elevation with television
100
AcDbPolyline
 90
5
 70
0
 10
240.1048818897638
 20
57.04330708661417
 10
245.17574803149608
 20
57.04330708661417
 10
245.17574803149608
 20
51.97244094488189
 10
240.1048818897638
 20
51.97244094488189
 10
240.1048818897638
 20
57.04330708661417
  0
LINE
  5
125
330
17
100
AcDbEntity
  8
Elevation with television
100
AcDbLine
 10
240.1048818897638
 20
57.04330708661418
 30
0.0
 11
245.17574803149606
 21
51.97244094488189
 31
0.0
  0
LINE
  5
126
330
17
100
AcDbEntity
  8
Elevation with television
100
AcDbLine
 10
245.17574803149606
 20
57.04330708661418
 30
0.0
 11
240.1048818897638
 21
51.97244094488189
 31
0.0
  0
LWPOLYLINE
  5
127
330
17
100
AcDbEntity
  8
Elevation with television
100
AcDbPolyline
 90
5
 70
0
 10
241.9812598425197
 20
55.16692913385827
 10
243.29976377952758
 20
55.16692913385827
 10
243.29976377952758
 20
53.84842519685039
 10
241.9812598425197
 20
53.84842519685039
 10
241.9812598425197
 20
55.16692913385827
  0
LWPOLYLINE
  5
128
330
17
100
AcDbEntity
  8
Elevation with television
100
AcDbPolyline
 90
5
 70
0
 10
321.00960629921263
 20
57.04330708661417
 10
326.0804724409449
 20
57.04330708661417
 10
326.0804724409449
 20
51.97244094488189
 10
321.00960629921263
 20
51.97244094488189
 10
321.00960629921263
 20
57.04330708661417
  0
LINE
  5
129
330
17
100
AcDbEntity
  8
Elevation with television
100
AcDbLine
 10
321.0096062992126
 20
57.04330708661418
 30
0.0
 11
326.08047244094485
 21
51.97244094488189
 31
0.0
  0
LINE
  5
12A
330
17
100
AcDbEntity
  8
Elevation with television
100
AcDbLine
 10
326.08047244094485
 20
57.04330708661418
 30
0.0
 11
321.0096062992126
 21
51.97244094488189
 31
0.0
  0
LWPOLYLINE
  5
12B
330
17
100
AcDbEntity
  8
Elevation with television
100
AcDbPolyline
 90
5
 70
0
 10
322.8859842519685
 20
55.16692913385827
 10
324.20448818897637
 20
55.16692913385827
 10
324.20448818897637
 20
53.84842519685039
 10
322.8859842519685
 20
53.84842519685039
 10
322.8859842519685
 20
55.16692913385827
  0
TEXT
  5
12C
330
17
100
AcDbEntity
  8
LABELS
100
AcDbText
 10
231.41984251968506
 20
111.37795275590551
 30
0.0
 40
2.066913385826772
  1
ELEVATION WITH TELEVISION  (1:1, inches)
 11
231.41984251968506
 21
111.37795275590551
 31
0.0
100
AcDbText
  0
LWPOLYLINE
  5
12F
330
17
100
AcDbEntity
  8
Curve detail
100
AcDbPolyline
 90
5
 70
0
 10
350.3779921259843
 20
1.7614173228346455
 10
368.16224409448824
 20
13.00314960629921
 10
368.5216929133859
 20
10.668110236220473
 10
352.2827165354331
 20
0.36456692913385824
 10
350.3779921259843
 20
1.7614173228346455
  0
LWPOLYLINE
  5
130
330
17
100
AcDbEntity
  8
Curve detail
100
AcDbPolyline
 90
5
 70
0
 10
368.16224409448824
 20
13.00314960629921
 10
388.98980314960636
 20
13.393307086614174
 10
388.98980314960636
 20
11.031102362204724
 10
368.5216929133859
 20
10.668110236220473
 10
368.16224409448824
 20
13.00314960629921
  0
TEXT
  5
131
330
17
100
AcDbEntity
  8
LABELS
100
AcDbText
 10
350.26736220472446
 20
15.755511811023622
 30
0.0
 40
0.7957086614173228
  1
CURVE DETAIL  (1:1, inches)
 11
350.26736220472446
 21
15.755511811023622
 31
0.0
100
AcDbText
  0
TEXT
  5
132
330
17
100
AcDbEntity
  8
LABELS
100
AcDbText
 10
0.0
 20
-8.661417322834646
 30
0.0
 40
1.574803149606299
  1
Partition — leaded glass · AST-DR-010
 11
0.0
 21
-8.661417322834646
 31
0.0
100
AcDbText
  0
ENDSEC
  0
SECTION
  2
OBJECTS
  0
DICTIONARY
  5
A
330
0
100
AcDbDictionary
281
1
  3
ACAD_COLOR
350
B
  3
ACAD_GROUP
350
C
  3
ACAD_LAYOUT
350
D
  3
ACAD_MATERIAL
350
E
  3
ACAD_MLEADERSTYLE
350
F
  3
ACAD_MLINESTYLE
350
10
  3
ACAD_PLOTSETTINGS
350
11
  3
ACAD_PLOTSTYLENAME
350
12
  3
ACAD_SCALELIST
350
14
  3
ACAD_TABLESTYLE
350
15
  3
ACAD_VISUALSTYLE
350
16
  3
EZDXF_META
350
2D
  0
DICTIONARY
  5
B
330
A
100
AcDbDictionary
281
1
  0
DICTIONARY
  5
C
330
A
100
AcDbDictionary
281
1
  0
DICTIONARY
  5
D
330
A
100
AcDbDictionary
281
1
  3
Model
350
1A
  3
Layout1
350
1E
  0
DICTIONARY
  5
E
330
A
100
AcDbDictionary
281
1
  3
ByBlock
350
1F
  3
ByLayer
350
20
  3
Global
350
21
  0
DICTIONARY
  5
F
330
A
100
AcDbDictionary
281
1
  3
Standard
350
2C
  0
DICTIONARY
  5
10
330
A
100
AcDbDictionary
281
1
  3
Standard
350
22
  0
DICTIONARY
  5
11
330
A
100
AcDbDictionary
281
1
  0
ACDBDICTIONARYWDFLT
  5
12
330
A
100
AcDbDictionary
281
1
  3
Normal
350
13
100
AcDbDictionaryWithDefault
340
13
  0
ACDBPLACEHOLDER
  5
13
330
12
  0
DICTIONARY
  5
14
330
A
100
AcDbDictionary
281
1
  0
DICTIONARY
  5
15
330
A
100
AcDbDictionary
281
1
  0
DICTIONARY
  5
16
330
A
100
AcDbDictionary
281
1
  3
2dWireframe
350
5A
  3
Basic
350
5B
  3
Brighten
350
5C
  3
ColorChange
350
5D
  3
Conceptual
350
5E
  3
Dim
350
5F
  3
EdgeColorOff
350
60
  3
Facepattern
350
61
  3
Flat
350
62
  3
FlatWithEdges
350
63
  3
Gouraud
350
64
  3
GouraudWithEdges
350
65
  3
Hidden
350
66
  3
JitterOff
350
67
  3
Linepattern
350
68
  3
Modeling
350
69
  3
OverhangOff
350
6A
  3
Realistic
350
6B
  3
Shaded
350
6C
  3
Shaded with edges
350
6D
  3
Shades of Gray
350
6E
  3
Sketchy
350
6F
  3
Thicken
350
70
  3
Wireframe
350
71
  3
X-Ray
350
72
  0
LAYOUT
  5
1A
330
D
100
AcDbPlotSettings
  1

  4
A3
  6

 40
7.5
 41
20.0
 42
7.5
 43
20.0
 44
420.0
 45
297.0
 46
0.0
 47
0.0
 48
0.0
 49
0.0
140
0.0
141
0.0
142
1.0
143
1.0
 70
1024
 72
1
 73
0
 74
5
  7

 75
16
 76
0
 77
2
 78
300
147
1.0
148
0.0
149
0.0
100
AcDbLayout
  1
Model
 70
1
 71
0
 10
0.0
 20
0.0
 11
420.0
 21
297.0
 12
0.0
 22
0.0
 32
0.0
 14
1e+20
 24
1e+20
 34
1e+20
 15
-1e+20
 25
-1e+20
 35
-1e+20
146
0.0
 13
0.0
 23
0.0
 33
0.0
 16
1.0
 26
0.0
 36
0.0
 17
0.0
 27
1.0
 37
0.0
 76
1
330
17
  0
LAYOUT
  5
1E
330
D
100
AcDbPlotSettings
  1

  4
A3
  6

 40
7.5
 41
20.0
 42
7.5
 43
20.0
 44
420.0
 45
297.0
 46
0.0
 47
0.0
 48
0.0
 49
0.0
140
0.0
141
0.0
142
1.0
143
1.0
 70
0
 72
1
 73
0
 74
5
  7

 75
16
 76
0
 77
2
 78
300
147
1.0
148
0.0
149
0.0
100
AcDbLayout
  1
Layout1
 70
1
 71
1
 10
0.0
 20
0.0
 11
420.0
 21
297.0
 12
0.0
 22
0.0
 32
0.0
 14
1e+20
 24
1e+20
 34
1e+20
 15
-1e+20
 25
-1e+20
 35
-1e+20
146
0.0
 13
0.0
 23
0.0
 33
0.0
 16
1.0
 26
0.0
 36
0.0
 17
0.0
 27
1.0
 37
0.0
 76
1
330
1B
  0
MATERIAL
  5
1F
102
{ACAD_REACTORS
330
E
102
}
330
E
100
AcDbMaterial
  1
ByBlock
  2

 70
0
 40
1.0
 71
1
 41
1.0
 91
-1023410177
 42
1.0
 72
1
  3

 73
1
 74
1
 75
1
 44
0.5
 73
0
 45
1.0
 46
1.0
 77
1
  4

 78
1
 79
1
170
1
 48
1.0
171
1
  6

172
1
173
1
174
1
140
1.0
141
1.0
175
1
  7

176
1
177
1
178
1
143
1.0
179
1
  8

270
1
271
1
272
1
145
1.0
146
1.0
273
1
  9

274
1
275
1
276
1
 42
1.0
 72
1
  3

 73
1
 74
1
 75
1
 94
63
  0
MATERIAL
  5
20
102
{ACAD_REACTORS
330
E
102
}
330
E
100
AcDbMaterial
  1
ByLayer
  2

 70
0
 40
1.0
 71
1
 41
1.0
 91
-1023410177
 42
1.0
 72
1
  3

 73
1
 74
1
 75
1
 44
0.5
 73
0
 45
1.0
 46
1.0
 77
1
  4

 78
1
 79
1
170
1
 48
1.0
171
1
  6

172
1
173
1
174
1
140
1.0
141
1.0
175
1
  7

176
1
177
1
178
1
143
1.0
179
1
  8

270
1
271
1
272
1
145
1.0
146
1.0
273
1
  9

274
1
275
1
276
1
 42
1.0
 72
1
  3

 73
1
 74
1
 75
1
 94
63
  0
MATERIAL
  5
21
102
{ACAD_REACTORS
330
E
102
}
330
E
100
AcDbMaterial
  1
Global
  2

 70
0
 40
1.0
 71
1
 41
1.0
 91
-1023410177
 42
1.0
 72
1
  3

 73
1
 74
1
 75
1
 44
0.5
 73
0
 45
1.0
 46
1.0
 77
1
  4

 78
1
 79
1
170
1
 48
1.0
171
1
  6

172
1
173
1
174
1
140
1.0
141
1.0
175
1
  7

176
1
177
1
178
1
143
1.0
179
1
  8

270
1
271
1
272
1
145
1.0
146
1.0
273
1
  9

274
1
275
1
276
1
 42
1.0
 72
1
  3

 73
1
 74
1
 75
1
 94
63
  0
MLINESTYLE
  5
22
102
{ACAD_REACTORS
330
10
102
}
330
10
100
AcDbMlineStyle
  2
Standard
 70
0
  3

 62
256
 51
90.0
 52
90.0
 71
2
 49
0.5
 62
256
  6
BYLAYER
 49
-0.5
 62
256
  6
BYLAYER
  0
MLEADERSTYLE
  5
2C
102
{ACAD_REACTORS
330
F
102
}
330
F
100
AcDbMLeaderStyle
179
2
170
2
171
1
172
0
 90
2
 40
0.0
 41
0.0
173
1
 91
-1056964608
 92
-2
290
1
 42
2.0
291
1
 43
8.0
  3
Standard
 44
4.0
300

342
29
174
1
175
1
176
0
178
1
 93
-1056964608
 45
4.0
292
0
297
0
 46
4.0
 94
-1056964608
 47
1.0
 49
1.0
140
1.0
294
1
141
0.0
177
0
142
1.0
295
0
296
0
143
3.75
271
0
272
9
273
9
  0
DICTIONARY
  5
2D
330
A
100
AcDbDictionary
280
1
281
1
  3
CREATED_BY_EZDXF
350
2E
  3
WRITTEN_BY_EZDXF
350
135
  0
DICTIONARYVAR
  5
2E
330
2D
100
DictionaryVariables
280
0
  1
1.4.2 @ 2026-09-18T18:26:29.114562+00:00
  0
VISUALSTYLE
  5
5A
102
{ACAD_REACTORS
330
16
102
}
330
16
100
AcDbVisualStyle
  2
2dWireframe
 70
4
 90
0
 40
0.6
 62
7
290
0
291
0
  0
VISUALSTYLE
  5
5B
102
{ACAD_REACTORS
330
16
102
}
330
16
100
AcDbVisualStyle
  2
Basic
 70
7
 90
1
 40
0.6
 62
7
290
0
291
1
  0
VISUALSTYLE
  5
5C
102
{ACAD_REACTORS
330
16
102
}
330
16
100
AcDbVisualStyle
  2
Brighten
 70
12
 90
2
 40
0.6
 62
7
290
0
291
1
  0
VISUALSTYLE
  5
5D
102
{ACAD_REACTORS
330
16
102
}
330
16
100
AcDbVisualStyle
  2
ColorChange
 70
16
 90
2
 40
0.6
 62
8
290
0
291
1
  0
VISUALSTYLE
  5
5E
102
{ACAD_REACTORS
330
16
102
}
330
16
100
AcDbVisualStyle
  2
Conceptual
 70
9
 90
3
 40
0.6
 62
7
290
0
291
0
  0
VISUALSTYLE
  5
5F
102
{ACAD_REACTORS
330
16
102
}
330
16
100
AcDbVisualStyle
  2
Dim
 70
11
 90
2
 40
0.6
 62
7
290
0
291
1
  0
VISUALSTYLE
  5
60
102
{ACAD_REACTORS
330
16
102
}
330
16
100
AcDbVisualStyle
  2
EdgeColorOff
 70
22
 90
2
 40
0.6
 62
7
290
0
291
1
  0
VISUALSTYLE
  5
61
102
{ACAD_REACTORS
330
16
102
}
330
16
100
AcDbVisualStyle
  2
Facepattern
 70
15
 90
2
 40
0.6
 62
7
290
0
291
1
  0
VISUALSTYLE
  5
62
102
{ACAD_REACTORS
330
16
102
}
330
16
100
AcDbVisualStyle
  2
Flat
 70
0
 90
2
 40
0.6
 62
7
290
0
291
1
  0
VISUALSTYLE
  5
63
102
{ACAD_REACTORS
330
16
102
}
330
16
100
AcDbVisualStyle
  2
FlatWithEdges
 70
1
 90
2
 40
0.6
 62
7
290
0
291
1
  0
VISUALSTYLE
  5
64
102
{ACAD_REACTORS
330
16
102
}
330
16
100
AcDbVisualStyle
  2
Gouraud
 70
2
 90
2
 40
0.6
 62
7
290
0
291
1
  0
VISUALSTYLE
  5
65
102
{ACAD_REACTORS
330
16
102
}
330
16
100
AcDbVisualStyle
  2
GouraudWithEdges
 70
3
 90
2
 40
0.6
 62
7
290
0
291
1
  0
VISUALSTYLE
  5
66
102
{ACAD_REACTORS
330
16
102
}
330
16
100
AcDbVisualStyle
  2
Hidden
 70
6
 90
1
 40
0.6
 62
7
290
0
291
0
  0
VISUALSTYLE
  5
67
102
{ACAD_REACTORS
330
16
102
}
330
16
100
AcDbVisualStyle
  2
JitterOff
 70
20
 90
2
 40
0.6
 62
7
290
0
291
1
  0
VISUALSTYLE
  5
68
102
{ACAD_REACTORS
330
16
102
}
330
16
100
AcDbVisualStyle
  2
Linepattern
 70
14
 90
2
 40
0.6
 62
7
290
0
291
1
  0
VISUALSTYLE
  5
69
102
{ACAD_REACTORS
330
16
102
}
330
16
100
AcDbVisualStyle
  2
Modeling
 70
10
 90
2
 40
0.6
 62
7
290
0
291
0
  0
VISUALSTYLE
  5
6A
102
{ACAD_REACTORS
330
16
102
}
330
16
100
AcDbVisualStyle
  2
OverhangOff
 70
21
 90
2
 40
0.6
 62
7
290
0
291
1
  0
VISUALSTYLE
  5
6B
102
{ACAD_REACTORS
330
16
102
}
330
16
100
AcDbVisualStyle
  2
Realistic
 70
8
 90
2
 40
0.6
 62
7
290
0
291
0
  0
VISUALSTYLE
  5
6C
102
{ACAD_REACTORS
330
16
102
}
330
16
100
AcDbVisualStyle
  2
Shaded
 70
27
 90
2
 40
0.6
 62
7
290
0
291
0
  0
VISUALSTYLE
  5
6D
102
{ACAD_REACTORS
330
16
102
}
330
16
100
AcDbVisualStyle
  2
Shaded with edges
 70
26
 90
2
 40
0.6
 62
7
290
0
291
0
  0
VISUALSTYLE
  5
6E
102
{ACAD_REACTORS
330
16
102
}
330
16
100
AcDbVisualStyle
  2
Shades of Gray
 70
23
 90
2
 40
0.6
 62
7
290
0
291
0
  0
VISUALSTYLE
  5
6F
102
{ACAD_REACTORS
330
16
102
}
330
16
100
AcDbVisualStyle
  2
Sketchy
 70
24
 90
1
 40
0.6
 62
7
290
0
291
0
  0
VISUALSTYLE
  5
70
102
{ACAD_REACTORS
330
16
102
}
330
16
100
AcDbVisualStyle
  2
Thicken
 70
13
 90
2
 40
0.6
 62
7
290
0
291
1
  0
VISUALSTYLE
  5
71
102
{ACAD_REACTORS
330
16
102
}
330
16
100
AcDbVisualStyle
  2
Wireframe
 70
5
 90
0
 40
0.6
 62
7
290
0
291
0
  0
VISUALSTYLE
  5
72
102
{ACAD_REACTORS
330
16
102
}
330
16
100
AcDbVisualStyle
  2
X-Ray
 70
25
 90
2
 40
0.5
 62
7
290
0
291
0
  0
DICTIONARYVAR
  5
135
330
2D
100
DictionaryVariables
280
0
  1
1.4.2 @ 2026-09-18T18:26:29.157263+00:00
  0
ENDSEC
  0
EOF
