  0
SECTION
  2
HEADER
  9
$ACADVER
  1
AC1024
  9
$ACADMAINTVER
 70
6
  9
$DWGCODEPAGE
  3
ANSI_1252
  9
$LASTSAVEDBY
  1
ezdxf
  9
$INSBASE
 10
0.0
 20
0.0
 30
0.0
  9
$EXTMIN
 10
1e+20
 20
1e+20
 30
1e+20
  9
$EXTMAX
 10
-1e+20
 20
-1e+20
 30
-1e+20
  9
$LIMMIN
 10
0.0
 20
0.0
  9
$LIMMAX
 10
420.0
 20
297.0
  9
$ORTHOMODE
 70
0
  9
$REGENMODE
 70
1
  9
$FILLMODE
 70
1
  9
$QTEXTMODE
 70
0
  9
$MIRRTEXT
 70
1
  9
$LTSCALE
 40
0.00984251968503937
  9
$ATTMODE
 70
1
  9
$TEXTSIZE
 40
2.5
  9
$TRACEWID
 40
1.0
  9
$TEXTSTYLE
  7
OpenSans
  9
$CLAYER
  8
0
  9
$CELTYPE
  6
ByLayer
  9
$CECOLOR
 62
256
  9
$CELTSCALE
 40
1.0
  9
$DISPSILH
 70
0
  9
$DIMSCALE
 40
1.0
  9
$DIMASZ
 40
0.175
  9
$DIMEXO
 40
0.125
  9
$DIMDLI
 40
3.75
  9
$DIMRND
 40
0.0
  9
$DIMDLE
 40
0.0
  9
$DIMEXE
 40
0.375
  9
$DIMTP
 40
0.0
  9
$DIMTM
 40
0.0
  9
$DIMTXT
 40
0.25
  9
$DIMCEN
 40
2.5
  9
$DIMTSZ
 40
0.0
  9
$DIMTOL
 70
0
  9
$DIMLIM
 70
0
  9
$DIMTIH
 70
0
  9
$DIMTOH
 70
0
  9
$DIMSE1
 70
0
  9
$DIMSE2
 70
0
  9
$DIMTAD
 70
1
  9
$DIMZIN
 70
12
  9
$DIMBLK
  1
ARCHTICK
  9
$DIMASO
 70
1
  9
$DIMSHO
 70
1
  9
$DIMPOST
  1

  9
$DIMAPOST
  1

  9
$DIMALT
 70
0
  9
$DIMALTD
 70
3
  9
$DIMALTF
 40
0.03937007874
  9
$DIMLFAC
 40
100.0
  9
$DIMTOFL
 70
1
  9
$DIMTVP
 40
0.0
  9
$DIMTIX
 70
0
  9
$DIMSOXD
 70
0
  9
$DIMSAH
 70
0
  9
$DIMBLK1
  1

  9
$DIMBLK2
  1

  9
$DIMSTYLE
  2
EZDXF
  9
$DIMCLRD
 70
0
  9
$DIMCLRE
 70
0
  9
$DIMCLRT
 70
0
  9
$DIMTFAC
 40
0.5
  9
$DIMGAP
 40
0.1
  9
$DIMJUST
 70
0
  9
$DIMSD1
 70
0
  9
$DIMSD2
 70
0
  9
$DIMTOLJ
 70
0
  9
$DIMTZIN
 70
8
  9
$DIMALTZ
 70
0
  9
$DIMALTTZ
 70
0
  9
$DIMUPT
 70
1
  9
$DIMDEC
 70
2
  9
$DIMTDEC
 70
2
  9
$DIMALTU
 70
2
  9
$DIMALTTD
 70
3
  9
$DIMTXSTY
  7
OpenSansCondensed-Light
  9
$DIMAUNIT
 70
0
  9
$DIMADEC
 70
2
  9
$DIMALTRND
 40
0.0
  9
$DIMAZIN
 70
3
  9
$DIMDSEP
 70
46
  9
$DIMATFIT
 70
3
  9
$DIMFRAC
 70
0
  9
$DIMLDRBLK
  1

  9
$DIMLUNIT
 70
2
  9
$DIMLWD
 70
-2
  9
$DIMLWE
 70
-2
  9
$DIMTMOVE
 70
2
  9
$DIMFXL
 40
1.0
  9
$DIMFXLON
 70
0
  9
$DIMJOGANG
 40
0.785398163397
  9
$DIMTFILL
 70
0
  9
$DIMTFILLCLR
 70
0
  9
$DIMARCSYM
 70
0
  9
$DIMLTYPE
  6

  9
$DIMLTEX1
  6

  9
$DIMLTEX2
  6

  9
$DIMTXTDIRECTION
 70
0
  9
$LUNITS
 70
4
  9
$LUPREC
 70
4
  9
$SKETCHINC
 40
1.0
  9
$FILLETRAD
 40
10.0
  9
$AUNITS
 70
0
  9
$AUPREC
 70
3
  9
$MENU
  1
.
  9
$ELEVATION
 40
0.0
  9
$PELEVATION
 40
0.0
  9
$THICKNESS
 40
0.0
  9
$LIMCHECK
 70
0
  9
$CHAMFERA
 40
0.0
  9
$CHAMFERB
 40
0.0
  9
$CHAMFERC
 40
0.0
  9
$CHAMFERD
 40
0.0
  9
$SKPOLY
 70
0
  9
$TDCREATE
 40
2461307.509085648
  9
$TDUCREATE
 40
2458532.153996898
  9
$TDUPDATE
 40
2461307.509085648
  9
$TDUUPDATE
 40
2458532.1544311
  9
$TDINDWG
 40
0.0
  9
$TDUSRTIMER
 40
0.0
  9
$USRTIMER
 70
1
  9
$ANGBASE
 50
0.0
  9
$ANGDIR
 70
0
  9
$PDMODE
 70
0
  9
$PDSIZE
 40
0.0
  9
$PLINEWID
 40
0.0
  9
$SPLFRAME
 70
0
  9
$SPLINETYPE
 70
6
  9
$SPLINESEGS
 70
8
  9
$HANDSEED
  5
1A1
  9
$SURFTAB1
 70
6
  9
$SURFTAB2
 70
6
  9
$SURFTYPE
 70
6
  9
$SURFU
 70
6
  9
$SURFV
 70
6
  9
$UCSBASE
  2

  9
$UCSNAME
  2

  9
$UCSORG
 10
0.0
 20
0.0
 30
0.0
  9
$UCSXDIR
 10
1.0
 20
0.0
 30
0.0
  9
$UCSYDIR
 10
0.0
 20
1.0
 30
0.0
  9
$UCSORTHOREF
  2

  9
$UCSORTHOVIEW
 70
0
  9
$UCSORGTOP
 10
0.0
 20
0.0
 30
0.0
  9
$UCSORGBOTTOM
 10
0.0
 20
0.0
 30
0.0
  9
$UCSORGLEFT
 10
0.0
 20
0.0
 30
0.0
  9
$UCSORGRIGHT
 10
0.0
 20
0.0
 30
0.0
  9
$UCSORGFRONT
 10
0.0
 20
0.0
 30
0.0
  9
$UCSORGBACK
 10
0.0
 20
0.0
 30
0.0
  9
$PUCSBASE
  2

  9
$PUCSNAME
  2

  9
$PUCSORG
 10
0.0
 20
0.0
 30
0.0
  9
$PUCSXDIR
 10
1.0
 20
0.0
 30
0.0
  9
$PUCSYDIR
 10
0.0
 20
1.0
 30
0.0
  9
$PUCSORTHOREF
  2

  9
$PUCSORTHOVIEW
 70
0
  9
$PUCSORGTOP
 10
0.0
 20
0.0
 30
0.0
  9
$PUCSORGBOTTOM
 10
0.0
 20
0.0
 30
0.0
  9
$PUCSORGLEFT
 10
0.0
 20
0.0
 30
0.0
  9
$PUCSORGRIGHT
 10
0.0
 20
0.0
 30
0.0
  9
$PUCSORGFRONT
 10
0.0
 20
0.0
 30
0.0
  9
$PUCSORGBACK
 10
0.0
 20
0.0
 30
0.0
  9
$USERI1
 70
0
  9
$USERI2
 70
0
  9
$USERI3
 70
0
  9
$USERI4
 70
0
  9
$USERI5
 70
0
  9
$USERR1
 40
0.0
  9
$USERR2
 40
0.0
  9
$USERR3
 40
0.0
  9
$USERR4
 40
0.0
  9
$USERR5
 40
0.0
  9
$WORLDVIEW
 70
1
  9
$SHADEDGE
 70
3
  9
$SHADEDIF
 70
70
  9
$TILEMODE
 70
1
  9
$MAXACTVP
 70
64
  9
$PINSBASE
 10
0.0
 20
0.0
 30
0.0
  9
$PLIMCHECK
 70
0
  9
$PEXTMIN
 10
1e+20
 20
1e+20
 30
1e+20
  9
$PEXTMAX
 10
-1e+20
 20
-1e+20
 30
-1e+20
  9
$PLIMMIN
 10
0.0
 20
0.0
  9
$PLIMMAX
 10
420.0
 20
297.0
  9
$UNITMODE
 70
0
  9
$VISRETAIN
 70
1
  9
$PLINEGEN
 70
0
  9
$PSLTSCALE
 70
1
  9
$TREEDEPTH
 70
3020
  9
$CMLSTYLE
  2
Standard
  9
$CMLJUST
 70
0
  9
$CMLSCALE
 40
20.0
  9
$PROXYGRAPHICS
 70
1
  9
$MEASUREMENT
 70
0
  9
$CELWEIGHT
370
-1
  9
$ENDCAPS
280
0
  9
$JOINSTYLE
280
0
  9
$LWDISPLAY
290
0
  9
$INSUNITS
 70
1
  9
$HYPERLINKBASE
  1

  9
$STYLESHEET
  1

  9
$XEDIT
290
1
  9
$CEPSNTYPE
380
0
  9
$PSTYLEMODE
290
1
  9
$FINGERPRINTGUID
  2
{B8A6D1F4-B361-4FA8-B4EA-86BC419E5493}
  9
$VERSIONGUID
  2
{6D141A2E-B2B0-4EF8-B552-FE97A682C786}
  9
$EXTNAMES
290
1
  9
$PSVPSCALE
 40
0.0
  9
$OLESTARTUP
290
0
  9
$SORTENTS
280
127
  9
$INDEXCTL
280
0
  9
$HIDETEXT
280
1
  9
$XCLIPFRAME
280
1
  9
$HALOGAP
280
0
  9
$OBSCOLOR
 70
257
  9
$OBSLTYPE
280
0
  9
$INTERSECTIONDISPLAY
280
0
  9
$INTERSECTIONCOLOR
 70
257
  9
$DIMASSOC
280
2
  9
$PROJECTNAME
  1

  9
$CAMERADISPLAY
290
0
  9
$LENSLENGTH
 40
50.0
  9
$CAMERAHEIGHT
 40
0.0
  9
$STEPSPERSEC
 40
24.0
  9
$STEPSIZE
 40
100.0
  9
$3DDWFPREC
 40
2.0
  9
$PSOLWIDTH
 40
0.005
  9
$PSOLHEIGHT
 40
0.08
  9
$LOFTANG1
 40
1.570796326795
  9
$LOFTANG2
 40
1.570796326795
  9
$LOFTMAG1
 40
0.0
  9
$LOFTMAG2
 40
0.0
  9
$LOFTPARAM
 70
7
  9
$LOFTNORMALS
280
1
  9
$LATITUDE
 40
37.795
  9
$LONGITUDE
 40
-122.394
  9
$NORTHDIRECTION
 40
0.0
  9
$TIMEZONE
 70
-8000
  9
$LIGHTGLYPHDISPLAY
280
1
  9
$TILEMODELIGHTSYNCH
280
1
  9
$CMATERIAL
347
20
  9
$SOLIDHIST
280
0
  9
$SHOWHIST
280
1
  9
$DWFFRAME
280
2
  9
$DGNFRAME
280
2
  9
$REALWORLDSCALE
290
1
  9
$INTERFERECOLOR
 62
256
  9
$CSHADOW
280
0
  9
$SHADOWPLANELOCATION
 40
0.0
  0
ENDSEC
  0
SECTION
  2
CLASSES
  0
CLASS
  1
ACDBDICTIONARYWDFLT
  2
AcDbDictionaryWithDefault
  3
ObjectDBX Classes
 90
0
 91
0
280
0
281
0
  0
CLASS
  1
SUN
  2
AcDbSun
  3
SCENEOE
 90
1153
 91
0
280
0
281
0
  0
CLASS
  1
VISUALSTYLE
  2
AcDbVisualStyle
  3
ObjectDBX Classes
 90
4095
 91
0
280
0
281
0
  0
CLASS
  1
MATERIAL
  2
AcDbMaterial
  3
ObjectDBX Classes
 90
1153
 91
0
280
0
281
0
  0
CLASS
  1
SCALE
  2
AcDbScale
  3
ObjectDBX Classes
 90
1153
 91
0
280
0
281
0
  0
CLASS
  1
TABLESTYLE
  2
AcDbTableStyle
  3
ObjectDBX Classes
 90
4095
 91
0
280
0
281
0
  0
CLASS
  1
MLEADERSTYLE
  2
AcDbMLeaderStyle
  3
ACDB_MLEADERSTYLE_CLASS
 90
4095
 91
0
280
0
281
0
  0
CLASS
  1
DICTIONARYVAR
  2
AcDbDictionaryVar
  3
ObjectDBX Classes
 90
0
 91
0
280
0
281
0
  0
CLASS
  1
CELLSTYLEMAP
  2
AcDbCellStyleMap
  3
ObjectDBX Classes
 90
1152
 91
0
280
0
281
0
  0
CLASS
  1
MENTALRAYRENDERSETTINGS
  2
AcDbMentalRayRenderSettings
  3
SCENEOE
 90
1024
 91
0
280
0
281
0
  0
CLASS
  1
ACDBDETAILVIEWSTYLE
  2
AcDbDetailViewStyle
  3
ObjectDBX Classes
 90
1025
 91
0
280
0
281
0
  0
CLASS
  1
ACDBSECTIONVIEWSTYLE
  2
AcDbSectionViewStyle
  3
ObjectDBX Classes
 90
1025
 91
0
280
0
281
0
  0
CLASS
  1
RASTERVARIABLES
  2
AcDbRasterVariables
  3
ISM
 90
0
 91
0
280
0
281
0
  0
CLASS
  1
ACDBPLACEHOLDER
  2
AcDbPlaceHolder
  3
ObjectDBX Classes
 90
0
 91
0
280
0
281
0
  0
CLASS
  1
LAYOUT
  2
AcDbLayout
  3
ObjectDBX Classes
 90
0
 91
0
280
0
281
0
  0
ENDSEC
  0
SECTION
  2
TABLES
  0
TABLE
  2
VPORT
  5
8
330
0
100
AcDbSymbolTable
 70
1
  0
VPORT
  5
23
330
8
100
AcDbSymbolTableRecord
100
AcDbViewportTableRecord
  2
*Active
 70
0
 10
0.0
 20
0.0
 11
1.0
 21
1.0
 12
0.0
 22
0.0
 13
0.0
 23
0.0
 14
0.5
 24
0.5
 15
0.5
 25
0.5
 16
0.0
 26
0.0
 36
1.0
 17
0.0
 27
0.0
 37
0.0
 40
1000.0
 41
1.34
 42
50.0
 43
0.0
 44
0.0
 50
0.0
 51
0.0
 71
0
 72
1000
 73
1
 74
3
 75
0
 76
0
 77
0
 78
0
281
0
 65
0
146
0.0
  0
ENDTAB
  0
TABLE
  2
LTYPE
  5
2
330
0
100
AcDbSymbolTable
 70
21
  0
LTYPE
  5
24
330
2
100
AcDbSymbolTableRecord
100
AcDbLinetypeTableRecord
  2
ByBlock
 70
0
  3

 72
65
 73
0
 40
0.0
  0
LTYPE
  5
25
330
2
100
AcDbSymbolTableRecord
100
AcDbLinetypeTableRecord
  2
ByLayer
 70
0
  3

 72
65
 73
0
 40
0.0
  0
LTYPE
  5
26
330
2
100
AcDbSymbolTableRecord
100
AcDbLinetypeTableRecord
  2
Continuous
 70
0
  3

 72
65
 73
0
 40
0.0
  0
LTYPE
  5
2F
330
2
100
AcDbSymbolTableRecord
100
AcDbLinetypeTableRecord
  2
CENTER
 70
0
  3
Center ____ _ ____ _ ____ _ ____ _ ____ _ ____
 72
65
 73
4
 40
2.0
 49
1.25
 74
0
 49
-0.25
 74
0
 49
0.25
 74
0
 49
-0.25
 74
0
  0
LTYPE
  5
30
330
2
100
AcDbSymbolTableRecord
100
AcDbLinetypeTableRecord
  2
CENTERX2
 70
0
  3
Center (2x) ________  __  ________  __  ________
 72
65
 73
4
 40
3.5
 49
2.5
 74
0
 49
-0.25
 74
0
 49
0.5
 74
0
 49
-0.25
 74
0
  0
LTYPE
  5
31
330
2
100
AcDbSymbolTableRecord
100
AcDbLinetypeTableRecord
  2
CENTER2
 70
0
  3
Center (.5x) ____ _ ____ _ ____ _ ____ _ ____
 72
65
 73
4
 40
1.0
 49
0.625
 74
0
 49
-0.125
 74
0
 49
0.125
 74
0
 49
-0.125
 74
0
  0
LTYPE
  5
32
330
2
100
AcDbSymbolTableRecord
100
AcDbLinetypeTableRecord
  2
DASHED
 70
0
  3
Dashed __ __ __ __ __ __ __ __ __ __ __ __ __ _
 72
65
 73
2
 40
0.6
 49
0.5
 74
0
 49
-0.1
 74
0
  0
LTYPE
  5
33
330
2
100
AcDbSymbolTableRecord
100
AcDbLinetypeTableRecord
  2
DASHEDX2
 70
0
  3
Dashed (2x) ____  ____  ____  ____  ____  ____
 72
65
 73
2
 40
1.2
 49
1.0
 74
0
 49
-0.2
 74
0
  0
LTYPE
  5
34
330
2
100
AcDbSymbolTableRecord
100
AcDbLinetypeTableRecord
  2
DASHED2
 70
0
  3
Dashed (.5x) _ _ _ _ _ _ _ _ _ _ _ _ _ _
 72
65
 73
2
 40
0.3
 49
0.25
 74
0
 49
-0.05
 74
0
  0
LTYPE
  5
35
330
2
100
AcDbSymbolTableRecord
100
AcDbLinetypeTableRecord
  2
PHANTOM
 70
0
  3
Phantom ______  __  __  ______  __  __  ______
 72
65
 73
6
 40
2.5
 49
1.25
 74
0
 49
-0.25
 74
0
 49
0.25
 74
0
 49
-0.25
 74
0
 49
0.25
 74
0
 49
-0.25
 74
0
  0
LTYPE
  5
36
330
2
100
AcDbSymbolTableRecord
100
AcDbLinetypeTableRecord
  2
PHANTOMX2
 70
0
  3
Phantom (2x)____________    ____    ____    ____________
 72
65
 73
6
 40
4.25
 49
2.5
 74
0
 49
-0.25
 74
0
 49
0.5
 74
0
 49
-0.25
 74
0
 49
0.5
 74
0
 49
-0.25
 74
0
  0
LTYPE
  5
37
330
2
100
AcDbSymbolTableRecord
100
AcDbLinetypeTableRecord
  2
PHANTOM2
 70
0
  3
Phantom (.5x) ___ _ _ ___ _ _ ___ _ _ ___ _ _ ___
 72
65
 73
6
 40
1.25
 49
0.625
 74
0
 49
-0.125
 74
0
 49
0.125
 74
0
 49
-0.125
 74
0
 49
0.125
 74
0
 49
-0.125
 74
0
  0
LTYPE
  5
38
330
2
100
AcDbSymbolTableRecord
100
AcDbLinetypeTableRecord
  2
DASHDOT
 70
0
  3
Dash dot __ . __ . __ . __ . __ . __ . __ . __
 72
65
 73
4
 40
1.4
 49
1.0
 74
0
 49
-0.2
 74
0
 49
0.0
 74
0
 49
-0.2
 74
0
  0
LTYPE
  5
39
330
2
100
AcDbSymbolTableRecord
100
AcDbLinetypeTableRecord
  2
DASHDOTX2
 70
0
  3
Dash dot (2x) ____  .  ____  .  ____  .  ____
 72
65
 73
4
 40
2.4
 49
2.0
 74
0
 49
-0.2
 74
0
 49
0.0
 74
0
 49
-0.2
 74
0
  0
LTYPE
  5
3A
330
2
100
AcDbSymbolTableRecord
100
AcDbLinetypeTableRecord
  2
DASHDOT2
 70
0
  3
Dash dot (.5x) _ . _ . _ . _ . _ . _ . _ . _
 72
65
 73
4
 40
0.7
 49
0.5
 74
0
 49
-0.1
 74
0
 49
0.0
 74
0
 49
-0.1
 74
0
  0
LTYPE
  5
3B
330
2
100
AcDbSymbolTableRecord
100
AcDbLinetypeTableRecord
  2
DOT
 70
0
  3
Dot .  .  .  .  .  .  .  .  .  .  .  .  .  .  .  .
 72
65
 73
2
 40
0.2
 49
0.0
 74
0
 49
-0.2
 74
0
  0
LTYPE
  5
3C
330
2
100
AcDbSymbolTableRecord
100
AcDbLinetypeTableRecord
  2
DOTX2
 70
0
  3
Dot (2x) .    .    .    .    .    .    .    . 
 72
65
 73
2
 40
0.4
 49
0.0
 74
0
 49
-0.4
 74
0
  0
LTYPE
  5
3D
330
2
100
AcDbSymbolTableRecord
100
AcDbLinetypeTableRecord
  2
DOT2
 70
0
  3
Dot (.5) . . . . . . . . . . . . . . . . . . . 
 72
65
 73
2
 40
0.1
 49
0.0
 74
0
 49
-0.1
 74
0
  0
LTYPE
  5
3E
330
2
100
AcDbSymbolTableRecord
100
AcDbLinetypeTableRecord
  2
DIVIDE
 70
0
  3
Divide __ . . __ . . __ . . __ . . __ . . __
 72
65
 73
6
 40
1.6
 49
1.0
 74
0
 49
-0.2
 74
0
 49
0.0
 74
0
 49
-0.2
 74
0
 49
0.0
 74
0
 49
-0.2
 74
0
  0
LTYPE
  5
3F
330
2
100
AcDbSymbolTableRecord
100
AcDbLinetypeTableRecord
  2
DIVIDEX2
 70
0
  3
Divide (2x) ____  . .  ____  . .  ____  . .  ____
 72
65
 73
6
 40
2.6
 49
2.0
 74
0
 49
-0.2
 74
0
 49
0.0
 74
0
 49
-0.2
 74
0
 49
0.0
 74
0
 49
-0.2
 74
0
  0
LTYPE
  5
40
330
2
100
AcDbSymbolTableRecord
100
AcDbLinetypeTableRecord
  2
DIVIDE2
 70
0
  3
Divide(.5x) _ . _ . _ . _ . _ . _ . _ . _
 72
65
 73
6
 40
0.8
 49
0.5
 74
0
 49
-0.1
 74
0
 49
0.0
 74
0
 49
-0.1
 74
0
 49
0.0
 74
0
 49
-0.1
 74
0
  0
ENDTAB
  0
TABLE
  2
LAYER
  5
1
330
0
100
AcDbSymbolTable
 70
6
  0
LAYER
  5
27
330
1
100
AcDbSymbolTableRecord
100
AcDbLayerTableRecord
  2
0
 70
0
 62
7
  6
Continuous
370
-3
390
13
347
21
  0
LAYER
  5
28
330
1
100
AcDbSymbolTableRecord
100
AcDbLayerTableRecord
  2
Defpoints
 70
0
 62
7
  6
Continuous
290
0
370
-3
390
13
347
21
  0
LAYER
  5
8A
330
1
100
AcDbSymbolTableRecord
100
AcDbLayerTableRecord
  2
GEOMETRY
 70
0
 62
7
  6
Continuous
370
-3
390
13
347
21
  0
LAYER
  5
8B
330
1
100
AcDbSymbolTableRecord
100
AcDbLayerTableRecord
  2
DIMENSIONS
 70
0
 62
1
  6
Continuous
370
-3
390
13
347
21
  0
LAYER
  5
8C
330
1
100
AcDbSymbolTableRecord
100
AcDbLayerTableRecord
  2
TEXT
 70
0
 62
7
  6
Continuous
370
-3
390
13
347
21
  0
LAYER
  5
8D
330
1
100
AcDbSymbolTableRecord
100
AcDbLayerTableRecord
  2
HATCH
 70
0
 62
8
  6
Continuous
370
-3
390
13
347
21
  0
ENDTAB
  0
TABLE
  2
STYLE
  5
5
330
0
100
AcDbSymbolTable
 70
26
  0
STYLE
  5
29
330
5
100
AcDbSymbolTableRecord
100
AcDbTextStyleTableRecord
  2
Standard
 70
0
 40
0.0
 41
1.0
 50
0.0
 71
0
 42
2.5
  3
txt
  4

  0
STYLE
  5
41
330
5
100
AcDbSymbolTableRecord
100
AcDbTextStyleTableRecord
  2
OpenSans-Light
 70
0
 40
0.0
 41
1.0
 50
0.0
 71
0
 42
2.5
  3
OpenSans-Light.ttf
  4

  0
STYLE
  5
42
330
5
100
AcDbSymbolTableRecord
100
AcDbTextStyleTableRecord
  2
OpenSans-Light-Italic
 70
0
 40
0.0
 41
1.0
 50
0.0
 71
0
 42
2.5
  3
OpenSans-LightItalic.ttf
  4

  0
STYLE
  5
43
330
5
100
AcDbSymbolTableRecord
100
AcDbTextStyleTableRecord
  2
OpenSans
 70
0
 40
0.0
 41
1.0
 50
0.0
 71
0
 42
2.5
  3
OpenSans-Regular.ttf
  4

  0
STYLE
  5
44
330
5
100
AcDbSymbolTableRecord
100
AcDbTextStyleTableRecord
  2
OpenSans-Italic
 70
0
 40
0.0
 41
1.0
 50
0.0
 71
0
 42
2.5
  3
OpenSans-Italic.ttf
  4

  0
STYLE
  5
45
330
5
100
AcDbSymbolTableRecord
100
AcDbTextStyleTableRecord
  2
OpenSans-SemiBold
 70
0
 40
0.0
 41
1.0
 50
0.0
 71
0
 42
2.5
  3
OpenSans-SemiBold.ttf
  4

  0
STYLE
  5
46
330
5
100
AcDbSymbolTableRecord
100
AcDbTextStyleTableRecord
  2
OpenSans-SemiBoldItalic
 70
0
 40
0.0
 41
1.0
 50
0.0
 71
0
 42
2.5
  3
OpenSans-SemiBoldItalic.ttf
  4

  0
STYLE
  5
47
330
5
100
AcDbSymbolTableRecord
100
AcDbTextStyleTableRecord
  2
OpenSans-Bold
 70
0
 40
0.0
 41
1.0
 50
0.0
 71
0
 42
2.5
  3
OpenSans-Bold.ttf
  4

  0
STYLE
  5
48
330
5
100
AcDbSymbolTableRecord
100
AcDbTextStyleTableRecord
  2
OpenSans-BoldItalic
 70
0
 40
0.0
 41
1.0
 50
0.0
 71
0
 42
2.5
  3
OpenSans-BoldItalic.ttf
  4

  0
STYLE
  5
49
330
5
100
AcDbSymbolTableRecord
100
AcDbTextStyleTableRecord
  2
OpenSans-ExtraBold
 70
0
 40
0.0
 41
1.0
 50
0.0
 71
0
 42
2.5
  3
OpenSans-ExtraBold.ttf
  4

  0
STYLE
  5
4A
330
5
100
AcDbSymbolTableRecord
100
AcDbTextStyleTableRecord
  2
OpenSans-ExtraBoldItalic
 70
0
 40
0.0
 41
1.0
 50
0.0
 71
0
 42
2.5
  3
OpenSans-ExtraBoldItalic.ttf
  4

  0
STYLE
  5
4B
330
5
100
AcDbSymbolTableRecord
100
AcDbTextStyleTableRecord
  2
OpenSansCondensed-Bold
 70
0
 40
0.0
 41
1.0
 50
0.0
 71
0
 42
2.5
  3
OpenSansCondensed-Bold.ttf
  4

  0
STYLE
  5
4C
330
5
100
AcDbSymbolTableRecord
100
AcDbTextStyleTableRecord
  2
OpenSansCondensed-Light
 70
0
 40
0.0
 41
1.0
 50
0.0
 71
0
 42
2.5
  3
OpenSansCondensed-Light.ttf
  4

  0
STYLE
  5
4D
330
5
100
AcDbSymbolTableRecord
100
AcDbTextStyleTableRecord
  2
OpenSansCondensed-Italic
 70
0
 40
0.0
 41
1.0
 50
0.0
 71
0
 42
2.5
  3
OpenSansCondensed-LightItalic.ttf
  4

  0
STYLE
  5
4E
330
5
100
AcDbSymbolTableRecord
100
AcDbTextStyleTableRecord
  2
LiberationSans
 70
0
 40
0.0
 41
1.0
 50
0.0
 71
0
 42
2.5
  3
LiberationSans-Regular.ttf
  4

  0
STYLE
  5
4F
330
5
100
AcDbSymbolTableRecord
100
AcDbTextStyleTableRecord
  2
LiberationSans-Bold
 70
0
 40
0.0
 41
1.0
 50
0.0
 71
0
 42
2.5
  3
LiberationSans-Bold.ttf
  4

  0
STYLE
  5
50
330
5
100
AcDbSymbolTableRecord
100
AcDbTextStyleTableRecord
  2
LiberationSans-BoldItalic
 70
0
 40
0.0
 41
1.0
 50
0.0
 71
0
 42
2.5
  3
LiberationSans-BoldItalic.ttf
  4

  0
STYLE
  5
51
330
5
100
AcDbSymbolTableRecord
100
AcDbTextStyleTableRecord
  2
LiberationSans-Italic
 70
0
 40
0.0
 41
1.0
 50
0.0
 71
0
 42
2.5
  3
LiberationSans-Italic.ttf
  4

  0
STYLE
  5
52
330
5
100
AcDbSymbolTableRecord
100
AcDbTextStyleTableRecord
  2
LiberationSerif
 70
0
 40
0.0
 41
1.0
 50
0.0
 71
0
 42
2.5
  3
LiberationSerif-Regular.ttf
  4

  0
STYLE
  5
53
330
5
100
AcDbSymbolTableRecord
100
AcDbTextStyleTableRecord
  2
LiberationSerif-Bold
 70
0
 40
0.0
 41
1.0
 50
0.0
 71
0
 42
2.5
  3
LiberationSerif-Bold.ttf
  4

  0
STYLE
  5
54
330
5
100
AcDbSymbolTableRecord
100
AcDbTextStyleTableRecord
  2
LiberationSerif-BoldItalic
 70
0
 40
0.0
 41
1.0
 50
0.0
 71
0
 42
2.5
  3
LiberationSerif-BoldItalic.ttf
  4

  0
STYLE
  5
55
330
5
100
AcDbSymbolTableRecord
100
AcDbTextStyleTableRecord
  2
LiberationSerif-Italic
 70
0
 40
0.0
 41
1.0
 50
0.0
 71
0
 42
2.5
  3
LiberationSerif-Italic.ttf
  4

  0
STYLE
  5
56
330
5
100
AcDbSymbolTableRecord
100
AcDbTextStyleTableRecord
  2
LiberationMono
 70
0
 40
0.0
 41
1.0
 50
0.0
 71
0
 42
2.5
  3
LiberationMono-Regular.ttf
  4

  0
STYLE
  5
57
330
5
100
AcDbSymbolTableRecord
100
AcDbTextStyleTableRecord
  2
LiberationMono-Bold
 70
0
 40
0.0
 41
1.0
 50
0.0
 71
0
 42
2.5
  3
LiberationMono-Bold.ttf
  4

  0
STYLE
  5
58
330
5
100
AcDbSymbolTableRecord
100
AcDbTextStyleTableRecord
  2
LiberationMono-BoldItalic
 70
0
 40
0.0
 41
1.0
 50
0.0
 71
0
 42
2.5
  3
LiberationMono-BoldItalic.ttf
  4

  0
STYLE
  5
59
330
5
100
AcDbSymbolTableRecord
100
AcDbTextStyleTableRecord
  2
LiberationMono-Italic
 70
0
 40
0.0
 41
1.0
 50
0.0
 71
0
 42
2.5
  3
LiberationMono-Italic.ttf
  4

  0
ENDTAB
  0
TABLE
  2
VIEW
  5
7
330
0
100
AcDbSymbolTable
 70
0
  0
ENDTAB
  0
TABLE
  2
UCS
  5
6
330
0
100
AcDbSymbolTable
 70
0
  0
ENDTAB
  0
TABLE
  2
APPID
  5
3
330
0
100
AcDbSymbolTable
 70
3
  0
APPID
  5
2A
330
3
100
AcDbSymbolTableRecord
100
AcDbRegAppTableRecord
  2
ACAD
 70
0
  0
APPID
  5
19E
330
3
100
AcDbSymbolTableRecord
100
AcDbRegAppTableRecord
  2
HATCHBACKGROUNDCOLOR
 70
0
  0
APPID
  5
19F
330
3
100
AcDbSymbolTableRecord
100
AcDbRegAppTableRecord
  2
EZDXF
 70
0
  0
ENDTAB
  0
TABLE
  2
DIMSTYLE
  5
4
330
0
100
AcDbSymbolTable
 70
12
100
AcDbDimStyleTable
  0
DIMSTYLE
105
2B
330
4
100
AcDbSymbolTableRecord
100
AcDbDimStyleTableRecord
  2
Standard
 70
0
 40
1.0
 41
2.5
 42
0.625
 43
3.75
 44
1.25
 45
0.0
 46
0.0
 47
0.0
 48
0.0
 49
2.5
140
2.5
141
2.5
142
0.0
143
0.03937007874
144
1.0
145
0.0
146
1.0
147
0.625
148
0.0
 69
0
 70
0
 71
0
 72
0
 73
0
 74
0
 75
0
 76
0
 77
1
 78
8
 79
3
170
0
171
3
172
1
173
0
174
0
175
0
176
0
177
0
178
0
179
2
271
2
272
2
273
2
274
3
275
0
276
0
277
2
278
44
279
0
280
0
281
0
282
0
283
0
284
8
285
0
286
0
288
0
289
3
290
0
371
-2
372
-2
  0
DIMSTYLE
105
73
330
4
100
AcDbSymbolTableRecord
100
AcDbDimStyleTableRecord
  2
EZDXF
 70
0
 40
1.0
 41
0.175
 42
0.125
 43
3.75
 44
0.375
 45
0.0
 46
0.0
 47
0.0
 48
0.0
 49
2.5
140
0.25
141
2.5
142
0.0
143
0.03937007874
144
100.0
145
0.0
146
0.5
147
0.1
148
0.0
 69
0
 70
0
 71
0
 72
0
 73
0
 74
0
 75
0
 76
0
 77
1
 78
12
 79
3
170
0
171
3
172
1
173
0
174
0
175
0
176
0
177
0
178
0
179
2
271
2
272
2
273
2
274
3
275
0
276
0
277
2
278
46
279
2
280
0
281
0
282
0
283
0
284
8
285
0
286
0
288
1
289
3
290
0
340
4C
342
74
371
-2
372
-2
  0
DIMSTYLE
105
7C
330
4
100
AcDbSymbolTableRecord
100
AcDbDimStyleTableRecord
  2
EZ_M_100_H25_CM
 70
0
 40
1.0
 41
0.25
 42
0.125
 43
3.75
 44
0.375
 45
0.0
 46
0.0
 47
0.0
 48
0.0
 49
2.5
140
0.25
141
2.5
142
0.125
143
0.03937007874
144
100.0
145
0.0
146
0.5
147
0.1
148
0.0
 69
0
 70
0
 71
0
 72
0
 73
0
 74
0
 75
0
 76
0
 77
1
 78
12
 79
3
170
0
171
3
172
1
173
0
174
0
175
0
176
0
177
0
178
0
179
2
271
2
272
2
273
2
274
3
275
0
276
0
277
2
278
46
279
2
280
0
281
0
282
0
283
0
284
8
285
0
286
0
288
1
289
3
290
0
340
4C
371
-2
372
-2
  0
DIMSTYLE
105
7D
330
4
100
AcDbSymbolTableRecord
100
AcDbDimStyleTableRecord
  2
EZ_M_50_H25_CM
 70
0
 40
1.0
 41
0.125
 42
0.0625
 43
3.75
 44
0.1875
 45
0.0
 46
0.0
 47
0.0
 48
0.0
 49
2.5
140
0.125
141
2.5
142
0.0625
143
0.03937007874
144
100.0
145
0.0
146
0.5
147
0.05
148
0.0
 69
0
 70
0
 71
0
 72
0
 73
0
 74
0
 75
0
 76
0
 77
1
 78
12
 79
3
170
0
171
3
172
1
173
0
174
0
175
0
176
0
177
0
178
0
179
2
271
2
272
2
273
2
274
3
275
0
276
0
277
2
278
46
279
2
280
0
281
0
282
0
283
0
284
8
285
0
286
0
288
1
289
3
290
0
340
4C
371
-2
372
-2
  0
DIMSTYLE
105
7E
330
4
100
AcDbSymbolTableRecord
100
AcDbDimStyleTableRecord
  2
EZ_M_25_H25_CM
 70
0
 40
1.0
 41
0.0625
 42
0.03125
 43
3.75
 44
0.09375
 45
0.0
 46
0.0
 47
0.0
 48
0.0
 49
2.5
140
0.0625
141
2.5
142
0.03125
143
0.03937007874
144
100.0
145
0.0
146
0.5
147
0.025
148
0.0
 69
0
 70
0
 71
0
 72
0
 73
0
 74
0
 75
0
 76
0
 77
1
 78
12
 79
3
170
0
171
3
172
1
173
0
174
0
175
0
176
0
177
0
178
0
179
2
271
2
272
2
273
2
274
3
275
0
276
0
277
2
278
46
279
2
280
0
281
0
282
0
283
0
284
8
285
0
286
0
288
1
289
3
290
0
340
4C
371
-2
372
-2
  0
DIMSTYLE
105
7F
330
4
100
AcDbSymbolTableRecord
100
AcDbDimStyleTableRecord
  2
EZ_M_20_H25_CM
 70
0
 40
1.0
 41
0.05
 42
0.025
 43
3.75
 44
0.07500000000000001
 45
0.0
 46
0.0
 47
0.0
 48
0.0
 49
2.5
140
0.05
141
2.5
142
0.025
143
0.03937007874
144
100.0
145
0.0
146
0.5
147
0.020000000000000004
148
0.0
 69
0
 70
0
 71
0
 72
0
 73
0
 74
0
 75
0
 76
0
 77
1
 78
12
 79
3
170
0
171
3
172
1
173
0
174
0
175
0
176
0
177
0
178
0
179
2
271
2
272
2
273
2
274
3
275
0
276
0
277
2
278
46
279
2
280
0
281
0
282
0
283
0
284
8
285
0
286
0
288
1
289
3
290
0
340
4C
371
-2
372
-2
  0
DIMSTYLE
105
80
330
4
100
AcDbSymbolTableRecord
100
AcDbDimStyleTableRecord
  2
EZ_M_10_H25_CM
 70
0
 40
1.0
 41
0.025
 42
0.0125
 43
3.75
 44
0.037500000000000006
 45
0.0
 46
0.0
 47
0.0
 48
0.0
 49
2.5
140
0.025
141
2.5
142
0.0125
143
0.03937007874
144
100.0
145
0.0
146
0.5
147
0.010000000000000002
148
0.0
 69
0
 70
0
 71
0
 72
0
 73
0
 74
0
 75
0
 76
0
 77
1
 78
12
 79
3
170
0
171
3
172
1
173
0
174
0
175
0
176
0
177
0
178
0
179
2
271
2
272
2
273
2
274
3
275
0
276
0
277
2
278
46
279
2
280
0
281
0
282
0
283
0
284
8
285
0
286
0
288
1
289
3
290
0
340
4C
371
-2
372
-2
  0
DIMSTYLE
105
81
330
4
100
AcDbSymbolTableRecord
100
AcDbDimStyleTableRecord
  2
EZ_M_5_H25_CM
 70
0
 40
1.0
 41
0.0125
 42
0.00625
 43
3.75
 44
0.018750000000000003
 45
0.0
 46
0.0
 47
0.0
 48
0.0
 49
2.5
140
0.0125
141
2.5
142
0.00625
143
0.03937007874
144
100.0
145
0.0
146
0.5
147
0.005000000000000001
148
0.0
 69
0
 70
0
 71
0
 72
0
 73
0
 74
0
 75
0
 76
0
 77
1
 78
12
 79
3
170
0
171
3
172
1
173
0
174
0
175
0
176
0
177
0
178
0
179
2
271
2
272
2
273
2
274
3
275
0
276
0
277
2
278
46
279
2
280
0
281
0
282
0
283
0
284
8
285
0
286
0
288
1
289
3
290
0
340
4C
371
-2
372
-2
  0
DIMSTYLE
105
82
330
4
100
AcDbSymbolTableRecord
100
AcDbDimStyleTableRecord
  2
EZ_M_1_H25_CM
 70
0
 40
1.0
 41
0.0025
 42
0.00125
 43
3.75
 44
0.00375
 45
0.0
 46
0.0
 47
0.0
 48
0.0
 49
2.5
140
0.0025
141
2.5
142
0.00125
143
0.03937007874
144
100.0
145
0.0
146
0.5
147
0.001
148
0.0
 69
0
 70
0
 71
0
 72
0
 73
0
 74
0
 75
0
 76
0
 77
1
 78
12
 79
3
170
0
171
3
172
1
173
0
174
0
175
0
176
0
177
0
178
0
179
2
271
2
272
2
273
2
274
3
275
0
276
0
277
2
278
46
279
2
280
0
281
0
282
0
283
0
284
8
285
0
286
0
288
1
289
3
290
0
340
4C
371
-2
372
-2
  0
DIMSTYLE
105
83
330
4
100
AcDbSymbolTableRecord
100
AcDbDimStyleTableRecord
  2
EZ_RADIUS
 70
0
 40
1.0
 41
0.25
 42
0.125
 43
3.75
 44
0.375
 45
0.0
 46
0.0
 47
0.0
 48
0.0
 49
2.5
140
0.25
141
0.0
142
0.0
143
0.03937007874
144
100.0
145
0.0
146
0.5
147
0.1
148
0.0
 69
0
 70
0
 71
0
 72
0
 73
0
 74
0
 75
0
 76
0
 77
1
 78
12
 79
3
170
0
171
3
172
0
173
0
174
0
175
0
176
0
177
0
178
0
179
2
271
2
272
2
273
2
274
3
275
0
276
0
277
2
278
46
279
1
280
0
281
0
282
0
283
0
284
8
285
0
286
0
288
1
289
3
290
0
340
4C
342
84
371
-2
372
-2
  0
DIMSTYLE
105
88
330
4
100
AcDbSymbolTableRecord
100
AcDbDimStyleTableRecord
  2
EZ_RADIUS_INSIDE
 70
0
 40
1.0
 41
0.25
 42
0.125
 43
3.75
 44
0.375
 45
0.0
 46
0.0
 47
0.0
 48
0.0
 49
2.5
140
0.25
141
0.0
142
0.0
143
0.03937007874
144
100.0
145
0.0
146
0.5
147
0.1
148
0.0
 69
0
 70
0
 71
0
 72
0
 73
0
 74
0
 75
0
 76
0
 77
0
 78
12
 79
3
170
0
171
3
172
0
173
0
174
1
175
0
176
0
177
0
178
0
179
2
271
2
272
2
273
2
274
3
275
0
276
0
277
2
278
46
279
0
280
0
281
0
282
0
283
0
284
8
285
0
286
0
288
1
289
0
290
0
340
4C
342
84
371
-2
372
-2
  0
DIMSTYLE
105
89
330
4
100
AcDbSymbolTableRecord
100
AcDbDimStyleTableRecord
  2
EZ_CURVED
 70
0
 40
1.0
 41
0.25
 42
0.125
 43
3.75
 44
0.375
 45
0.0
 46
0.0
 47
0.0
 48
0.0
 49
2.5
140
0.25
141
2.5
142
0.0
143
0.03937007874
144
100.0
145
0.0
146
0.5
147
0.1
148
0.0
 69
0
 70
0
 71
0
 72
0
 73
0
 74
0
 75
0
 76
0
 77
1
 78
12
 79
2
 90
2
170
0
171
3
172
1
173
0
174
0
175
0
176
0
177
0
178
0
179
2
271
2
272
2
273
2
274
3
275
0
276
0
277
2
278
46
279
2
280
0
281
0
282
0
283
0
284
8
285
0
286
0
288
1
289
3
290
0
340
4C
371
-2
372
-2
  0
ENDTAB
  0
TABLE
  2
BLOCK_RECORD
  5
9
330
0
100
AcDbSymbolTable
 70
5
  0
BLOCK_RECORD
  5
17
330
9
100
AcDbSymbolTableRecord
100
AcDbBlockTableRecord
  2
*Model_Space
340
1A
 70
0
280
1
281
0
  0
BLOCK_RECORD
  5
1B
330
9
100
AcDbSymbolTableRecord
100
AcDbBlockTableRecord
  2
*Paper_Space
340
1E
 70
0
280
1
281
0
  0
BLOCK_RECORD
  5
74
330
9
100
AcDbSymbolTableRecord
100
AcDbBlockTableRecord
  2
_ARCHTICK
340
0
 70
0
280
1
281
0
  0
BLOCK_RECORD
  5
78
330
9
100
AcDbSymbolTableRecord
100
AcDbBlockTableRecord
  2
_CLOSEDFILLED
340
0
 70
0
280
1
281
0
  0
BLOCK_RECORD
  5
84
330
9
100
AcDbSymbolTableRecord
100
AcDbBlockTableRecord
  2
_CLOSEDBLANK
340
0
 70
0
280
1
281
0
  0
ENDTAB
  0
ENDSEC
  0
SECTION
  2
BLOCKS
  0
BLOCK
  5
18
330
17
100
AcDbEntity
  8
0
100
AcDbBlockBegin
  2
*Model_Space
 70
0
 10
0.0
 20
0.0
 30
0.0
  3
*Model_Space
  1

  0
ENDBLK
  5
19
330
17
100
AcDbEntity
  8
0
100
AcDbBlockEnd
  0
BLOCK
  5
1C
330
1B
100
AcDbEntity
  8
0
100
AcDbBlockBegin
  2
*Paper_Space
 70
0
 10
0.0
 20
0.0
 30
0.0
  3
*Paper_Space
  1

  0
ENDBLK
  5
1D
330
1B
100
AcDbEntity
  8
0
100
AcDbBlockEnd
  0
BLOCK
  5
75
330
74
100
AcDbEntity
  8
0
100
AcDbBlockBegin
  2
_ARCHTICK
 70
0
 10
0.0
 20
0.0
 30
0.0
  3
_ARCHTICK
  1

  0
LWPOLYLINE
  5
77
330
74
100
AcDbEntity
  8
0
  6
BYBLOCK
 62
0
100
AcDbPolyline
 90
2
 70
0
 43
0.15
 10
-0.5
 20
-0.5
 10
0.5
 20
0.5
  0
ENDBLK
  5
76
330
74
100
AcDbEntity
  8
0
100
AcDbBlockEnd
  0
BLOCK
  5
79
330
78
100
AcDbEntity
  8
0
100
AcDbBlockBegin
  2
_CLOSEDFILLED
 70
0
 10
0.0
 20
0.0
 30
0.0
  3
_CLOSEDFILLED
  1

  0
SOLID
  5
7B
330
78
100
AcDbEntity
  8
0
  6
BYBLOCK
 62
0
100
AcDbTrace
 10
-1.0
 20
0.16439898372402537
 30
0.0
 11
0.0
 21
0.0
 31
0.0
 12
-1.0
 22
-0.16439898372402537
 32
0.0
 13
-1.0
 23
-0.16439898372402537
 33
0.0
  0
ENDBLK
  5
7A
330
78
100
AcDbEntity
  8
0
100
AcDbBlockEnd
  0
BLOCK
  5
85
330
84
100
AcDbEntity
  8
0
100
AcDbBlockBegin
  2
_CLOSEDBLANK
 70
0
 10
0.0
 20
0.0
 30
0.0
  3
_CLOSEDBLANK
  1

  0
LWPOLYLINE
  5
87
330
84
100
AcDbEntity
  8
0
  6
BYBLOCK
 62
0
100
AcDbPolyline
 90
3
 70
1
 10
-1.0
 20
0.16439898372402537
 10
0.0
 20
0.0
 10
-1.0
 20
-0.16439898372402537
  0
ENDBLK
  5
86
330
84
100
AcDbEntity
  8
0
100
AcDbBlockEnd
  0
ENDSEC
  0
SECTION
  2
ENTITIES
  0
LWPOLYLINE
  5
8E
330
17
100
AcDbEntity
  8
GEOMETRY
100
AcDbPolyline
 90
5
 70
0
 10
0.31496062992125984
 20
11.377952755905513
 10
16.22047244094488
 20
11.377952755905513
 10
16.22047244094488
 20
0.31496062992126106
 10
0.31496062992125984
 20
0.31496062992126106
 10
0.31496062992125984
 20
11.377952755905513
  0
TEXT
  5
8F
330
17
100
AcDbEntity
  8
TEXT
100
AcDbText
 10
0.7874015748031495
 20
10.905511811023622
 30
0.0
 40
0.09070866141732283
  1
PLAN
 11
0.7874015748031495
 21
10.905511811023622
 31
0.0
100
AcDbText
  0
LINE
  5
90
330
17
100
AcDbEntity
  8
GEOMETRY
100
AcDbLine
 10
0.7874015748031495
 20
10.846456692913385
 30
0.0
 11
4.881889763779528
 21
10.846456692913385
 31
0.0
  0
TEXT
  5
91
330
17
100
AcDbEntity
  8
TEXT
100
AcDbText
 10
0.7874015748031495
 20
10.716535433070865
 30
0.0
 40
0.048188976377952754
  1
AN ALL-GLASS WALL · BOTH ENDS TURN 55° TOWARDS THE BED · 1:20
 11
0.7874015748031495
 21
10.716535433070865
 31
0.0
100
AcDbText
  0
LWPOLYLINE
  5
92
330
17
100
AcDbEntity
  8
GEOMETRY
100
AcDbPolyline
 90
141
 70
0
 10
3.4582874015748026
 20
9.359350393700788
 10
3.48009842519685
 20
9.389114173228347
 10
3.5040748031496065
 20
9.420472440944883
 10
3.5271850393700785
 20
9.449271653543308
 10
3.5530511811023624
 20
9.479074803149608
 10
3.579566929133858
 20
9.508326771653543
 10
3.6050787401574804
 20
9.535
 10
3.6333661417322833
 20
9.56253937007874
 10
3.662224409448819
 20
9.589488188976379
 10
3.68998031496063
 20
9.613818897637795
 10
3.720452755905512
 20
9.638917322834647
 10
3.751456692913386
 20
9.663346456692913
 10
3.7812204724409444
 20
9.685177165354332
 10
3.8136811023622044
 20
9.707637795275591
 10
3.846614173228346
 20
9.729389763779528
 10
3.878169291338582
 20
9.748543307086615
 10
3.9124015748031495
 20
9.768208661417324
 10
3.947047244094488
 20
9.787165354330709
 10
3.98013779527559
 20
9.803484251968504
 10
4.015885826771654
 20
9.820236220472442
 10
4.049665354330709
 20
9.83509842519685
 10
4.086397637795275
 20
9.849586614173228
 10
4.123425196850394
 20
9.863307086614174
 10
4.158366141732284
 20
9.87515748031496
 10
4.196161417322834
 20
9.886535433070867
 10
4.234212598425197
 20
9.897106299212599
 10
4.27005905511811
 20
9.905885826771653
 10
4.308681102362204
 20
9.914074803149607
 10
4.34746062992126
 20
9.921417322834646
 10
4.383937007874016
 20
9.927047244094489
 10
4.423110236220473
 20
9.931968503937009
 10
4.46238188976378
 20
9.936062992125985
 10
4.4992125984251965
 20
9.938484251968504
 10
4.538641732283464
 20
9.94011811023622
 10
4.576830708661417
 20
9.940944881889765
 10
4.613740157480315
 20
9.940944881889765
 10
4.650649606299212
 20
9.940944881889765
 10
4.68755905511811
 20
9.940944881889765
 10
4.724468503937008
 20
9.940944881889765
 10
4.761377952755905
 20
9.940944881889765
 10
4.798287401574803
 20
9.940944881889765
 10
4.835177165354331
 20
9.940944881889765
 10
4.872086614173228
 20
9.940944881889765
 10
4.908996062992126
 20
9.940944881889765
 10
4.945905511811024
 20
9.940944881889765
 10
4.982814960629922
 20
9.940944881889765
 10
5.019724409448819
 20
9.940944881889765
 10
5.056633858267717
 20
9.940944881889765
 10
5.093543307086614
 20
9.940944881889765
 10
5.1304527559055115
 20
9.940944881889765
 10
5.16736220472441
 20
9.940944881889765
 10
5.204271653543307
 20
9.940944881889765
 10
5.241181102362205
 20
9.940944881889765
 10
5.278070866141732
 20
9.940944881889765
 10
5.314980314960629
 20
9.940944881889765
 10
5.351889763779527
 20
9.940944881889765
 10
5.388799212598425
 20
9.940944881889765
 10
5.425708661417322
 20
9.940944881889765
 10
5.46261811023622
 20
9.940944881889765
 10
5.499527559055117
 20
9.940944881889765
 10
5.5364370078740155
 20
9.940944881889765
 10
5.573346456692913
 20
9.940944881889765
 10
5.610255905511811
 20
9.940944881889765
 10
5.647165354330708
 20
9.940944881889765
 10
5.684074803149605
 20
9.940944881889765
 10
5.720964566929133
 20
9.940944881889765
 10
5.7578740157480315
 20
9.940944881889765
 10
5.794783464566929
 20
9.940944881889765
 10
5.831692913385827
 20
9.940944881889765
 10
5.868602362204724
 20
9.940944881889765
 10
5.905511811023622
 20
9.940944881889765
 10
5.9424212598425195
 20
9.940944881889765
 10
5.979330708661418
 20
9.940944881889765
 10
6.016240157480315
 20
9.940944881889765
 10
6.053149606299213
 20
9.940944881889765
 10
6.09005905511811
 20
9.940944881889765
 10
6.126948818897638
 20
9.940944881889765
 10
6.163858267716535
 20
9.940944881889765
 10
6.200767716535434
 20
9.940944881889765
 10
6.237677165354331
 20
9.940944881889765
 10
6.274586614173229
 20
9.940944881889765
 10
6.311496062992126
 20
9.940944881889765
 10
6.348405511811024
 20
9.940944881889765
 10
6.3853149606299215
 20
9.940944881889765
 10
6.42222440944882
 20
9.940944881889765
 10
6.459133858267717
 20
9.940944881889765
 10
6.496043307086614
 20
9.940944881889765
 10
6.532952755905512
 20
9.940944881889765
 10
6.569842519685039
 20
9.940944881889765
 10
6.606751968503937
 20
9.940944881889765
 10
6.643661417322835
 20
9.940944881889765
 10
6.680570866141732
 20
9.940944881889765
 10
6.717480314960629
 20
9.940944881889765
 10
6.754389763779527
 20
9.940944881889765
 10
6.791299212598425
 20
9.940944881889765
 10
6.828208661417323
 20
9.940944881889765
 10
6.86511811023622
 20
9.940944881889765
 10
6.902027559055118
 20
9.940944881889765
 10
6.938937007874015
 20
9.940944881889765
 10
6.9758464566929135
 20
9.940944881889765
 10
7.0127362204724415
 20
9.940944881889765
 10
7.049645669291339
 20
9.940944881889765
 10
7.086555118110236
 20
9.940944881889765
 10
7.123464566929134
 20
9.940944881889765
 10
7.160374015748031
 20
9.940944881889765
 10
7.1972834645669295
 20
9.940944881889765
 10
7.234192913385827
 20
9.940944881889765
 10
7.272381889763779
 20
9.94011811023622
 10
7.311811023622047
 20
9.938484251968504
 10
7.348641732283465
 20
9.936062992125985
 10
7.387913385826772
 20
9.931968503937009
 10
7.427086614173228
 20
9.927047244094489
 10
7.4635629921259845
 20
9.921417322834646
 10
7.5023425196850395
 20
9.914074803149607
 10
7.5409645669291345
 20
9.905885826771653
 10
7.576811023622047
 20
9.897106299212599
 10
7.61486220472441
 20
9.886535433070867
 10
7.652657480314961
 20
9.87515748031496
 10
7.68759842519685
 20
9.863307086614174
 10
7.7246259842519684
 20
9.849586614173228
 10
7.761358267716535
 20
9.83509842519685
 10
7.795137795275591
 20
9.820236220472442
 10
7.830885826771654
 20
9.803484251968504
 10
7.863976377952756
 20
9.787165354330709
 10
7.8986220472440944
 20
9.768208661417324
 10
7.932854330708662
 20
9.748543307086615
 10
7.9644094488188975
 20
9.729389763779528
 10
7.997342519685039
 20
9.707637795275591
 10
8.029803149606298
 20
9.685177165354332
 10
8.059566929133858
 20
9.663346456692913
 10
8.090570866141732
 20
9.638917322834647
 10
8.121043307086614
 20
9.613818897637795
 10
8.148799212598425
 20
9.589488188976379
 10
8.177657480314961
 20
9.56253937007874
 10
8.205944881889764
 20
9.535
 10
8.231456692913387
 20
9.508326771653543
 10
8.257972440944881
 20
9.479074803149608
 10
8.283838582677166
 20
9.449271653543308
 10
8.306948818897638
 20
9.420472440944883
 10
8.330925196850394
 20
9.389114173228347
 10
8.35273622047244
 20
9.359350393700788
  0
LWPOLYLINE
  5
93
330
17
100
AcDbEntity
  8
GEOMETRY
100
AcDbPolyline
 90
141
 70
0
 10
3.553523622047244
 20
9.289507874015749
 10
3.5753543307086613
 20
9.319271653543307
 10
3.596181102362204
 20
9.346555118110237
 10
3.619291338582677
 20
9.375334645669291
 10
3.641850393700787
 20
9.401200787401574
 10
3.6648818897637794
 20
9.426653543307086
 10
3.690413385826772
 20
9.453326771653543
 10
3.71503937007874
 20
9.47722440944882
 10
3.7400984251968508
 20
9.500688976377953
 10
3.767854330708661
 20
9.525019685039371
 10
3.7943700787401573
 20
9.546791338582677
 10
3.8212992125984253
 20
9.568090551181102
 10
3.851062992125984
 20
9.58992125984252
 10
3.879291338582677
 20
9.609429133858267
 10
3.907893700787402
 20
9.628425196850394
 10
3.9394488188976378
 20
9.647578740157481
 10
3.9692125984251967
 20
9.66466535433071
 10
3.9992716535433073
 20
9.681220472440945
 10
4.032381889763779
 20
9.697559055118111
 10
4.063464566929134
 20
9.71212598425197
 10
4.097244094488189
 20
9.726988188976378
 10
4.129212598425197
 20
9.739507874015748
 10
4.161377952755905
 20
9.751456692913386
 10
4.196338582677165
 20
9.763326771653544
 10
4.229212598425197
 20
9.773149606299214
 10
4.262283464566929
 20
9.78238188976378
 10
4.298129921259842
 20
9.791161417322835
 10
4.331712598425197
 20
9.798228346456693
 10
4.365433070866142
 20
9.80468503937008
 10
4.4019094488188975
 20
9.810295275590551
 10
4.435964566929133
 20
9.814566929133859
 10
4.47009842519685
 20
9.818208661417323
 10
4.506929133858268
 20
9.820629921259844
 10
4.541220472440945
 20
9.822047244094488
 10
4.576830708661417
 20
9.822834645669293
 10
4.613740157480315
 20
9.822834645669293
 10
4.650649606299212
 20
9.822834645669293
 10
4.68755905511811
 20
9.822834645669293
 10
4.724468503937008
 20
9.822834645669293
 10
4.761377952755905
 20
9.822834645669293
 10
4.798287401574803
 20
9.822834645669293
 10
4.835177165354331
 20
9.822834645669293
 10
4.872086614173228
 20
9.822834645669293
 10
4.908996062992126
 20
9.822834645669293
 10
4.945905511811024
 20
9.822834645669293
 10
4.982814960629922
 20
9.822834645669293
 10
5.019724409448819
 20
9.822834645669293
 10
5.056633858267717
 20
9.822834645669293
 10
5.093543307086614
 20
9.822834645669293
 10
5.1304527559055115
 20
9.822834645669293
 10
5.16736220472441
 20
9.822834645669293
 10
5.204271653543307
 20
9.822834645669293
 10
5.241181102362205
 20
9.822834645669293
 10
5.278070866141732
 20
9.822834645669293
 10
5.314980314960629
 20
9.822834645669293
 10
5.351889763779527
 20
9.822834645669293
 10
5.388799212598425
 20
9.822834645669293
 10
5.425708661417322
 20
9.822834645669293
 10
5.46261811023622
 20
9.822834645669293
 10
5.499527559055117
 20
9.822834645669293
 10
5.5364370078740155
 20
9.822834645669293
 10
5.573346456692913
 20
9.822834645669293
 10
5.610255905511811
 20
9.822834645669293
 10
5.647165354330708
 20
9.822834645669293
 10
5.684074803149605
 20
9.822834645669293
 10
5.720964566929133
 20
9.822834645669293
 10
5.7578740157480315
 20
9.822834645669293
 10
5.794783464566929
 20
9.822834645669293
 10
5.831692913385827
 20
9.822834645669293
 10
5.868602362204724
 20
9.822834645669293
 10
5.905511811023622
 20
9.822834645669293
 10
5.9424212598425195
 20
9.822834645669293
 10
5.979330708661418
 20
9.822834645669293
 10
6.016240157480315
 20
9.822834645669293
 10
6.053149606299213
 20
9.822834645669293
 10
6.09005905511811
 20
9.822834645669293
 10
6.126948818897638
 20
9.822834645669293
 10
6.163858267716535
 20
9.822834645669293
 10
6.200767716535434
 20
9.822834645669293
 10
6.237677165354331
 20
9.822834645669293
 10
6.274586614173229
 20
9.822834645669293
 10
6.311496062992126
 20
9.822834645669293
 10
6.348405511811024
 20
9.822834645669293
 10
6.3853149606299215
 20
9.822834645669293
 10
6.42222440944882
 20
9.822834645669293
 10
6.459133858267717
 20
9.822834645669293
 10
6.496043307086614
 20
9.822834645669293
 10
6.532952755905512
 20
9.822834645669293
 10
6.569842519685039
 20
9.822834645669293
 10
6.606751968503937
 20
9.822834645669293
 10
6.643661417322835
 20
9.822834645669293
 10
6.680570866141732
 20
9.822834645669293
 10
6.717480314960629
 20
9.822834645669293
 10
6.754389763779527
 20
9.822834645669293
 10
6.791299212598425
 20
9.822834645669293
 10
6.828208661417323
 20
9.822834645669293
 10
6.86511811023622
 20
9.822834645669293
 10
6.902027559055118
 20
9.822834645669293
 10
6.938937007874015
 20
9.822834645669293
 10
6.9758464566929135
 20
9.822834645669293
 10
7.0127362204724415
 20
9.822834645669293
 10
7.049645669291339
 20
9.822834645669293
 10
7.086555118110236
 20
9.822834645669293
 10
7.123464566929134
 20
9.822834645669293
 10
7.160374015748031
 20
9.822834645669293
 10
7.1972834645669295
 20
9.822834645669293
 10
7.234192913385827
 20
9.822834645669293
 10
7.2698031496062985
 20
9.822047244094488
 10
7.304094488188976
 20
9.820629921259844
 10
7.340925196850393
 20
9.818208661417323
 10
7.37505905511811
 20
9.814566929133859
 10
7.409114173228347
 20
9.810295275590551
 10
7.445590551181102
 20
9.80468503937008
 10
7.4793110236220475
 20
9.798228346456693
 10
7.512893700787401
 20
9.791161417322835
 10
7.548740157480315
 20
9.78238188976378
 10
7.5818110236220475
 20
9.773149606299214
 10
7.614685039370079
 20
9.763326771653544
 10
7.649645669291338
 20
9.751456692913386
 10
7.681811023622047
 20
9.739507874015748
 10
7.713779527559056
 20
9.726988188976378
 10
7.747559055118111
 20
9.71212598425197
 10
7.778641732283464
 20
9.697559055118111
 10
7.811751968503937
 20
9.681220472440945
 10
7.841811023622048
 20
9.66466535433071
 10
7.871574803149605
 20
9.647578740157481
 10
7.9031299212598425
 20
9.628425196850394
 10
7.931732283464567
 20
9.609429133858267
 10
7.95996062992126
 20
9.58992125984252
 10
7.989724409448819
 20
9.568090551181102
 10
8.016653543307086
 20
9.546791338582677
 10
8.043169291338582
 20
9.525019685039371
 10
8.070925196850393
 20
9.500688976377953
 10
8.095984251968504
 20
9.47722440944882
 10
8.120610236220472
 20
9.453326771653543
 10
8.146141732283464
 20
9.426653543307086
 10
8.169173228346457
 20
9.401200787401574
 10
8.191732283464567
 20
9.375334645669291
 10
8.214842519685039
 20
9.346555118110237
 10
8.235669291338583
 20
9.319271653543307
 10
8.2575
 20
9.289507874015749
  0
LINE
  5
94
330
17
100
AcDbEntity
  8
GEOMETRY
100
AcDbLine
 10
3.4582874015748026
 20
9.359350393700787
 30
0.0
 11
3.553523622047244
 21
9.289507874015747
 31
0.0
  0
LINE
  5
95
330
17
100
AcDbEntity
  8
GEOMETRY
100
AcDbLine
 10
8.35273622047244
 20
9.359350393700787
 30
0.0
 11
8.2575
 21
9.289507874015747
 31
0.0
  0
LINE
  5
96
330
17
100
AcDbEntity
  8
GEOMETRY
100
AcDbLine
 10
4.3475
 20
9.921437007874015
 30
0.0
 11
4.365472440944882
 21
9.804704724409449
 31
0.0
  0
LINE
  5
97
330
17
100
AcDbEntity
  8
GEOMETRY
100
AcDbLine
 10
5.388877952755905
 20
9.940944881889763
 30
0.0
 11
5.388877952755905
 21
9.82283464566929
 31
0.0
  0
LINE
  5
98
330
17
100
AcDbEntity
  8
GEOMETRY
100
AcDbLine
 10
6.422342519685039
 20
9.940944881889763
 30
0.0
 11
6.422342519685039
 21
9.82283464566929
 31
0.0
  0
LINE
  5
99
330
17
100
AcDbEntity
  8
GEOMETRY
100
AcDbLine
 10
7.463720472440945
 20
9.921397637795275
 30
0.0
 11
7.445748031496064
 21
9.804665354330709
 31
0.0
  0
LINE
  5
9A
330
17
100
AcDbEntity
  8
DIMENSIONS
100
AcDbLine
 10
3.446850393700787
 20
8.851968503937007
 30
0.0
 11
8.364173228346456
 21
8.851968503937007
 31
0.0
  0
LINE
  5
9B
330
17
100
AcDbEntity
  8
DIMENSIONS
100
AcDbLine
 10
3.5059055118110236
 20
9.245669291338583
 30
0.0
 11
3.5059055118110236
 21
8.804724409448818
 31
0.0
  0
LINE
  5
9C
330
17
100
AcDbEntity
  8
DIMENSIONS
100
AcDbLine
 10
3.466535433070866
 20
8.81259842519685
 30
0.0
 11
3.545275590551181
 21
8.891338582677164
 31
0.0
  0
LINE
  5
9D
330
17
100
AcDbEntity
  8
DIMENSIONS
100
AcDbLine
 10
8.30511811023622
 20
9.245669291338583
 30
0.0
 11
8.30511811023622
 21
8.804724409448818
 31
0.0
  0
LINE
  5
9E
330
17
100
AcDbEntity
  8
DIMENSIONS
100
AcDbLine
 10
8.265748031496063
 20
8.81259842519685
 30
0.0
 11
8.344488188976378
 21
8.891338582677164
 31
0.0
  0
TEXT
  5
9F
330
17
100
AcDbEntity
  8
TEXT
100
AcDbText
 10
5.905511811023622
 20
8.883464566929133
 30
0.0
 40
0.04251968503937008
  1
8'-0" OVERALL — 8 FT
 72
1
 11
5.905511811023622
 21
8.883464566929133
 31
0.0
100
AcDbText
  0
TEXT
  5
A0
330
17
100
AcDbEntity
  8
TEXT
100
AcDbText
 10
5.905511811023622
 20
8.379527559055118
 30
0.0
 40
0.05669291338582677
  1
▼  BED
 72
1
 11
5.905511811023622
 21
8.379527559055118
 31
0.0
100
AcDbText
  0
TEXT
  5
A1
330
17
100
AcDbEntity
  8
TEXT
100
AcDbText
 10
5.905511811023622
 20
10.275590551181102
 30
0.0
 40
0.05669291338582677
  1
▲  DESK
 72
1
 11
5.905511811023622
 21
10.275590551181102
 31
0.0
100
AcDbText
  0
LWPOLYLINE
  5
A2
330
17
100
AcDbEntity
  8
GEOMETRY
100
AcDbPolyline
 90
3
 70
0
 10
4.356299212598425
 20
9.862992125984253
 10
11.574803149606298
 20
9.894488188976378
 10
11.811023622047244
 20
9.894488188976378
  0
TEXT
  5
A3
330
17
100
AcDbEntity
  8
TEXT
100
AcDbText
 10
11.874015748031496
 20
9.870866141732284
 30
0.0
 40
0.051023622047244095
  1
5 EQUAL BAYS
 11
11.874015748031496
 21
9.870866141732284
 31
0.0
100
AcDbText
  0
TEXT
  5
A4
330
17
100
AcDbEntity
  8
TEXT
100
AcDbText
 10
11.874015748031496
 20
9.760629921259843
 30
0.0
 40
0.04110236220472441
  1
525 EACH, SET OUT ROUND THE CURVE
 11
11.874015748031496
 21
9.760629921259843
 31
0.0
100
AcDbText
  0
LWPOLYLINE
  5
A5
330
17
100
AcDbEntity
  8
GEOMETRY
100
AcDbPolyline
 90
3
 70
0
 10
3.712204724409449
 20
9.55472440944882
 10
11.574803149606298
 20
9.548031496062993
 10
11.811023622047244
 20
9.548031496062993
  0
TEXT
  5
A6
330
17
100
AcDbEntity
  8
TEXT
100
AcDbText
 10
11.874015748031496
 20
9.524409448818899
 30
0.0
 40
0.051023622047244095
  1
THE CURVE COMES TOWARDS THE BED
 11
11.874015748031496
 21
9.524409448818899
 31
0.0
100
AcDbText
  0
TEXT
  5
A7
330
17
100
AcDbEntity
  8
TEXT
100
AcDbText
 10
11.874015748031496
 20
9.414173228346456
 30
0.0
 40
0.04110236220472441
  1
283 DEEP · RADIUS 664
 11
11.874015748031496
 21
9.414173228346456
 31
0.0
100
AcDbText
  0
TEXT
  5
A8
330
17
100
AcDbEntity
  8
TEXT
100
AcDbText
 10
0.7874015748031495
 20
8.228346456692913
 30
0.0
 40
0.09070866141732283
  1
ELEVATION
 11
0.7874015748031495
 21
8.228346456692913
 31
0.0
100
AcDbText
  0
LINE
  5
A9
330
17
100
AcDbEntity
  8
GEOMETRY
100
AcDbLine
 10
0.7874015748031495
 20
8.169291338582678
 30
0.0
 11
4.724409448818897
 21
8.169291338582678
 31
0.0
  0
TEXT
  5
AA
330
17
100
AcDbEntity
  8
TEXT
100
AcDbText
 10
0.7874015748031495
 20
8.039370078740157
 30
0.0
 40
0.048188976377952754
  1
THE CURVE UNROLLED FLAT · BOTH FACES THE SAME · 1:22
 11
0.7874015748031495
 21
8.039370078740157
 31
0.0
100
AcDbText
  0
LWPOLYLINE
  5
AB
330
17
100
AcDbEntity
  8
GEOMETRY
100
AcDbPolyline
 90
5
 70
0
 10
1.0236220472440944
 20
7.755905511811024
 10
5.7211524695776665
 20
7.755905511811024
 10
5.7211524695776665
 20
2.8006442376521115
 10
1.0236220472440944
 20
2.8006442376521115
 10
1.0236220472440944
 20
7.755905511811024
  0
LINE
  5
AC
330
17
100
AcDbEntity
  8
GEOMETRY
100
AcDbLine
 10
1.9631352899069432
 20
7.755905511811023
 30
0.0
 11
1.9631352899069432
 21
2.800644237652111
 31
0.0
  0
LINE
  5
AD
330
17
100
AcDbEntity
  8
GEOMETRY
100
AcDbLine
 10
2.9026306370794557
 20
7.755905511811023
 30
0.0
 11
2.9026306370794557
 21
2.800644237652111
 31
0.0
  0
LINE
  5
AE
330
17
100
AcDbEntity
  8
GEOMETRY
100
AcDbLine
 10
3.842143879742305
 20
7.755905511811023
 30
0.0
 11
3.842143879742305
 21
2.800644237652111
 31
0.0
  0
LINE
  5
AF
330
17
100
AcDbEntity
  8
GEOMETRY
100
AcDbLine
 10
4.781657122405154
 20
7.755905511811023
 30
0.0
 11
4.781657122405154
 21
2.800644237652111
 31
0.0
  0
LWPOLYLINE
  5
B0
330
17
100
AcDbEntity
  8
GEOMETRY
100
AcDbPolyline
 90
5
 70
0
 10
1.2920544022906228
 20
7.487473156764496
 10
5.452720114531138
 20
7.487473156764496
 10
5.452720114531138
 20
3.0690765926986394
 10
1.2920544022906228
 20
3.0690765926986394
 10
1.2920544022906228
 20
7.487473156764496
  0
LWPOLYLINE
  5
B1
330
17
100
AcDbEntity
  8
GEOMETRY
100
AcDbPolyline
 90
5
 70
0
 10
1.7752326413743738
 20
6.9327129563350045
 10
4.969541875447388
 20
6.9327129563350045
 10
4.969541875447388
 20
3.623836793128133
 10
1.7752326413743738
 20
3.623836793128133
 10
1.7752326413743738
 20
6.9327129563350045
  0
LINE
  5
B2
330
17
100
AcDbEntity
  8
GEOMETRY
100
AcDbLine
 10
1.812133142448103
 20
7.487473156764495
 30
0.0
 11
1.812133142448103
 21
6.932712956335004
 31
0.0
  0
LINE
  5
B3
330
17
100
AcDbEntity
  8
GEOMETRY
100
AcDbLine
 10
1.812133142448103
 20
3.6238367931281323
 30
0.0
 11
1.812133142448103
 21
3.0690765926986394
 31
0.0
  0
LINE
  5
B4
330
17
100
AcDbEntity
  8
GEOMETRY
100
AcDbLine
 10
2.33222977809592
 20
7.487473156764495
 30
0.0
 11
2.33222977809592
 21
6.932712956335004
 31
0.0
  0
LINE
  5
B5
330
17
100
AcDbEntity
  8
GEOMETRY
100
AcDbLine
 10
2.33222977809592
 20
3.6238367931281323
 30
0.0
 11
2.33222977809592
 21
3.0690765926986394
 31
0.0
  0
LINE
  5
B6
330
17
100
AcDbEntity
  8
GEOMETRY
100
AcDbLine
 10
2.8523085182534005
 20
7.487473156764495
 30
0.0
 11
2.8523085182534005
 21
6.932712956335004
 31
0.0
  0
LINE
  5
B7
330
17
100
AcDbEntity
  8
GEOMETRY
100
AcDbLine
 10
2.8523085182534005
 20
3.6238367931281323
 30
0.0
 11
2.8523085182534005
 21
3.0690765926986394
 31
0.0
  0
LINE
  5
B8
330
17
100
AcDbEntity
  8
GEOMETRY
100
AcDbLine
 10
3.3723872584108805
 20
7.487473156764495
 30
0.0
 11
3.3723872584108805
 21
6.932712956335004
 31
0.0
  0
LINE
  5
B9
330
17
100
AcDbEntity
  8
GEOMETRY
100
AcDbLine
 10
3.3723872584108805
 20
3.6238367931281323
 30
0.0
 11
3.3723872584108805
 21
3.0690765926986394
 31
0.0
  0
LINE
  5
BA
330
17
100
AcDbEntity
  8
GEOMETRY
100
AcDbLine
 10
3.8924659985683605
 20
7.487473156764495
 30
0.0
 11
3.8924659985683605
 21
6.932712956335004
 31
0.0
  0
LINE
  5
BB
330
17
100
AcDbEntity
  8
GEOMETRY
100
AcDbLine
 10
3.8924659985683605
 20
3.6238367931281323
 30
0.0
 11
3.8924659985683605
 21
3.0690765926986394
 31
0.0
  0
LINE
  5
BC
330
17
100
AcDbEntity
  8
GEOMETRY
100
AcDbLine
 10
4.412562634216178
 20
7.487473156764495
 30
0.0
 11
4.412562634216178
 21
6.932712956335004
 31
0.0
  0
LINE
  5
BD
330
17
100
AcDbEntity
  8
GEOMETRY
100
AcDbLine
 10
4.412562634216178
 20
3.6238367931281323
 30
0.0
 11
4.412562634216178
 21
3.0690765926986394
 31
0.0
  0
LINE
  5
BE
330
17
100
AcDbEntity
  8
GEOMETRY
100
AcDbLine
 10
4.932641374373658
 20
7.487473156764495
 30
0.0
 11
4.932641374373658
 21
6.932712956335004
 31
0.0
  0
LINE
  5
BF
330
17
100
AcDbEntity
  8
GEOMETRY
100
AcDbLine
 10
4.932641374373658
 20
3.6238367931281323
 30
0.0
 11
4.932641374373658
 21
3.0690765926986394
 31
0.0
  0
LINE
  5
C0
330
17
100
AcDbEntity
  8
GEOMETRY
100
AcDbLine
 10
1.2920544022906228
 20
6.996546170365068
 30
0.0
 11
1.7752326413743738
 21
6.996546170365068
 31
0.0
  0
LINE
  5
C1
330
17
100
AcDbEntity
  8
GEOMETRY
100
AcDbLine
 10
4.969541875447388
 20
6.996546170365068
 30
0.0
 11
5.452720114531138
 21
6.996546170365068
 31
0.0
  0
LINE
  5
C2
330
17
100
AcDbEntity
  8
GEOMETRY
100
AcDbLine
 10
1.2920544022906228
 20
6.5056012884753045
 30
0.0
 11
1.7752326413743738
 21
6.5056012884753045
 31
0.0
  0
LINE
  5
C3
330
17
100
AcDbEntity
  8
GEOMETRY
100
AcDbLine
 10
4.969541875447388
 20
6.5056012884753045
 30
0.0
 11
5.452720114531138
 21
6.5056012884753045
 31
0.0
  0
LINE
  5
C4
330
17
100
AcDbEntity
  8
GEOMETRY
100
AcDbLine
 10
1.2920544022906228
 20
6.0146743020758775
 30
0.0
 11
1.7752326413743738
 21
6.0146743020758775
 31
0.0
  0
LINE
  5
C5
330
17
100
AcDbEntity
  8
GEOMETRY
100
AcDbLine
 10
4.969541875447388
 20
6.0146743020758775
 30
0.0
 11
5.452720114531138
 21
6.0146743020758775
 31
0.0
  0
LINE
  5
C6
330
17
100
AcDbEntity
  8
GEOMETRY
100
AcDbLine
 10
1.2920544022906228
 20
5.52374731567645
 30
0.0
 11
1.7752326413743738
 21
5.52374731567645
 31
0.0
  0
LINE
  5
C7
330
17
100
AcDbEntity
  8
GEOMETRY
100
AcDbLine
 10
4.969541875447388
 20
5.52374731567645
 30
0.0
 11
5.452720114531138
 21
5.52374731567645
 31
0.0
  0
LINE
  5
C8
330
17
100
AcDbEntity
  8
GEOMETRY
100
AcDbLine
 10
1.2920544022906228
 20
5.032802433786685
 30
0.0
 11
1.7752326413743738
 21
5.032802433786685
 31
0.0
  0
LINE
  5
C9
330
17
100
AcDbEntity
  8
GEOMETRY
100
AcDbLine
 10
4.969541875447388
 20
5.032802433786685
 30
0.0
 11
5.452720114531138
 21
5.032802433786685
 31
0.0
  0
LINE
  5
CA
330
17
100
AcDbEntity
  8
GEOMETRY
100
AcDbLine
 10
1.2920544022906228
 20
4.541875447387259
 30
0.0
 11
1.7752326413743738
 21
4.541875447387259
 31
0.0
  0
LINE
  5
CB
330
17
100
AcDbEntity
  8
GEOMETRY
100
AcDbLine
 10
4.969541875447388
 20
4.541875447387259
 30
0.0
 11
5.452720114531138
 21
4.541875447387259
 31
0.0
  0
LINE
  5
CC
330
17
100
AcDbEntity
  8
GEOMETRY
100
AcDbLine
 10
1.2920544022906228
 20
4.05094846098783
 30
0.0
 11
1.7752326413743738
 21
4.05094846098783
 31
0.0
  0
LINE
  5
CD
330
17
100
AcDbEntity
  8
GEOMETRY
100
AcDbLine
 10
4.969541875447388
 20
4.05094846098783
 30
0.0
 11
5.452720114531138
 21
4.05094846098783
 31
0.0
  0
LINE
  5
CE
330
17
100
AcDbEntity
  8
GEOMETRY
100
AcDbLine
 10
1.2920544022906228
 20
3.5600035790980677
 30
0.0
 11
1.7752326413743738
 21
3.5600035790980677
 31
0.0
  0
LINE
  5
CF
330
17
100
AcDbEntity
  8
GEOMETRY
100
AcDbLine
 10
4.969541875447388
 20
3.5600035790980677
 30
0.0
 11
5.452720114531138
 21
3.5600035790980677
 31
0.0
  0
LINE
  5
D0
330
17
100
AcDbEntity
  8
GEOMETRY
100
AcDbLine
 10
1.5336435218324982
 20
7.487473156764495
 30
0.0
 11
1.5336435218324982
 21
3.0690765926986394
 31
0.0
  0
LINE
  5
D1
330
17
100
AcDbEntity
  8
GEOMETRY
100
AcDbLine
 10
5.211130994989263
 20
7.487473156764495
 30
0.0
 11
5.211130994989263
 21
3.0690765926986394
 31
0.0
  0
LINE
  5
D2
330
17
100
AcDbEntity
  8
GEOMETRY
100
AcDbLine
 10
1.2920544022906228
 20
7.2100930565497485
 30
0.0
 11
5.452720114531138
 21
7.2100930565497485
 31
0.0
  0
LINE
  5
D3
330
17
100
AcDbEntity
  8
GEOMETRY
100
AcDbLine
 10
1.2920544022906228
 20
3.3464566929133857
 30
0.0
 11
5.452720114531138
 21
3.3464566929133857
 31
0.0
  0
LWPOLYLINE
  5
D4
330
17
100
AcDbEntity
  8
GEOMETRY
100
AcDbPolyline
 90
5
 70
0
 10
1.649964209019327
 20
7.057981388690051
 10
1.9005010737294201
 20
7.057981388690051
 10
1.9005010737294201
 20
6.807444523979958
 10
1.649964209019327
 20
6.807444523979958
 10
1.649964209019327
 20
7.057981388690051
  0
LINE
  5
D5
330
17
100
AcDbEntity
  8
GEOMETRY
100
AcDbLine
 10
1.649964209019327
 20
7.057981388690051
 30
0.0
 11
1.9005010737294201
 21
6.807444523979957
 31
0.0
  0
LINE
  5
D6
330
17
100
AcDbEntity
  8
GEOMETRY
100
AcDbLine
 10
1.9005010737294201
 20
7.057981388690051
 30
0.0
 11
1.649964209019327
 21
6.807444523979957
 31
0.0
  0
LWPOLYLINE
  5
D7
330
17
100
AcDbEntity
  8
GEOMETRY
100
AcDbPolyline
 90
5
 70
0
 10
1.7426628489620617
 20
6.965282748747317
 10
1.8078024337866858
 20
6.965282748747317
 10
1.8078024337866858
 20
6.900143163922692
 10
1.7426628489620617
 20
6.900143163922692
 10
1.7426628489620617
 20
6.965282748747317
  0
LWPOLYLINE
  5
D8
330
17
100
AcDbEntity
  8
GEOMETRY
100
AcDbPolyline
 90
5
 70
0
 10
4.844273443092341
 20
7.057981388690051
 10
5.094810307802434
 20
7.057981388690051
 10
5.094810307802434
 20
6.807444523979958
 10
4.844273443092341
 20
6.807444523979958
 10
4.844273443092341
 20
7.057981388690051
  0
LINE
  5
D9
330
17
100
AcDbEntity
  8
GEOMETRY
100
AcDbLine
 10
4.844273443092341
 20
7.057981388690051
 30
0.0
 11
5.094810307802434
 21
6.807444523979957
 31
0.0
  0
LINE
  5
DA
330
17
100
AcDbEntity
  8
GEOMETRY
100
AcDbLine
 10
5.094810307802434
 20
7.057981388690051
 30
0.0
 11
4.844273443092341
 21
6.807444523979957
 31
0.0
  0
LWPOLYLINE
  5
DB
330
17
100
AcDbEntity
  8
GEOMETRY
100
AcDbPolyline
 90
5
 70
0
 10
4.936972083035076
 20
6.965282748747317
 10
5.002111667859699
 20
6.965282748747317
 10
5.002111667859699
 20
6.900143163922692
 10
4.936972083035076
 20
6.900143163922692
 10
4.936972083035076
 20
6.965282748747317
  0
LWPOLYLINE
  5
DC
330
17
100
AcDbEntity
  8
GEOMETRY
100
AcDbPolyline
 90
5
 70
0
 10
1.649964209019327
 20
3.749105225483179
 10
1.9005010737294201
 20
3.749105225483179
 10
1.9005010737294201
 20
3.498568360773085
 10
1.649964209019327
 20
3.498568360773085
 10
1.649964209019327
 20
3.749105225483179
  0
LINE
  5
DD
330
17
100
AcDbEntity
  8
GEOMETRY
100
AcDbLine
 10
1.649964209019327
 20
3.749105225483178
 30
0.0
 11
1.9005010737294201
 21
3.4985683607730858
 31
0.0
  0
LINE
  5
DE
330
17
100
AcDbEntity
  8
GEOMETRY
100
AcDbLine
 10
1.9005010737294201
 20
3.749105225483178
 30
0.0
 11
1.649964209019327
 21
3.4985683607730858
 31
0.0
  0
LWPOLYLINE
  5
DF
330
17
100
AcDbEntity
  8
GEOMETRY
100
AcDbPolyline
 90
5
 70
0
 10
1.7426628489620617
 20
3.656406585540445
 10
1.8078024337866858
 20
3.656406585540445
 10
1.8078024337866858
 20
3.5912670007158205
 10
1.7426628489620617
 20
3.5912670007158205
 10
1.7426628489620617
 20
3.656406585540445
  0
LWPOLYLINE
  5
E0
330
17
100
AcDbEntity
  8
GEOMETRY
100
AcDbPolyline
 90
5
 70
0
 10
4.844273443092341
 20
3.749105225483179
 10
5.094810307802434
 20
3.749105225483179
 10
5.094810307802434
 20
3.498568360773085
 10
4.844273443092341
 20
3.498568360773085
 10
4.844273443092341
 20
3.749105225483179
  0
LINE
  5
E1
330
17
100
AcDbEntity
  8
GEOMETRY
100
AcDbLine
 10
4.844273443092341
 20
3.749105225483178
 30
0.0
 11
5.094810307802434
 21
3.4985683607730858
 31
0.0
  0
LINE
  5
E2
330
17
100
AcDbEntity
  8
GEOMETRY
100
AcDbLine
 10
5.094810307802434
 20
3.749105225483178
 30
0.0
 11
4.844273443092341
 21
3.4985683607730858
 31
0.0
  0
LWPOLYLINE
  5
E3
330
17
100
AcDbEntity
  8
GEOMETRY
100
AcDbPolyline
 90
5
 70
0
 10
4.936972083035076
 20
3.656406585540445
 10
5.002111667859699
 20
3.656406585540445
 10
5.002111667859699
 20
3.5912670007158205
 10
4.936972083035076
 20
3.5912670007158205
 10
4.936972083035076
 20
3.656406585540445
  0
LWPOLYLINE
  5
E4
330
17
100
AcDbEntity
  8
GEOMETRY
100
AcDbPolyline
 90
5
 70
0
 10
3.257140300644237
 20
7.325340014316393
 10
3.487634216177523
 20
7.325340014316393
 10
3.487634216177523
 20
7.0948460987831075
 10
3.257140300644237
 20
7.0948460987831075
 10
3.257140300644237
 20
7.325340014316393
  0
LINE
  5
E5
330
17
100
AcDbEntity
  8
GEOMETRY
100
AcDbLine
 10
3.257140300644237
 20
7.325340014316392
 30
0.0
 11
3.4876342161775233
 21
7.094846098783107
 31
0.0
  0
LINE
  5
E6
330
17
100
AcDbEntity
  8
GEOMETRY
100
AcDbLine
 10
3.4876342161775233
 20
7.325340014316392
 30
0.0
 11
3.257140300644237
 21
7.094846098783107
 31
0.0
  0
LWPOLYLINE
  5
E7
330
17
100
AcDbEntity
  8
GEOMETRY
100
AcDbPolyline
 90
5
 70
0
 10
3.342430207587688
 20
7.240050107372943
 10
3.4023622047244095
 20
7.240050107372943
 10
3.4023622047244095
 20
7.180118110236221
 10
3.342430207587688
 20
7.180118110236221
 10
3.342430207587688
 20
7.240050107372943
  0
LWPOLYLINE
  5
E8
330
17
100
AcDbEntity
  8
GEOMETRY
100
AcDbPolyline
 90
5
 70
0
 10
3.257140300644237
 20
3.461703650680029
 10
3.487634216177523
 20
3.461703650680029
 10
3.487634216177523
 20
3.231209735146745
 10
3.257140300644237
 20
3.231209735146745
 10
3.257140300644237
 20
3.461703650680029
  0
LINE
  5
E9
330
17
100
AcDbEntity
  8
GEOMETRY
100
AcDbLine
 10
3.257140300644237
 20
3.461703650680029
 30
0.0
 11
3.4876342161775233
 21
3.231209735146743
 31
0.0
  0
LINE
  5
EA
330
17
100
AcDbEntity
  8
GEOMETRY
100
AcDbLine
 10
3.4876342161775233
 20
3.461703650680029
 30
0.0
 11
3.257140300644237
 21
3.231209735146743
 31
0.0
  0
LWPOLYLINE
  5
EB
330
17
100
AcDbEntity
  8
GEOMETRY
100
AcDbPolyline
 90
5
 70
0
 10
3.342430207587688
 20
3.3764137437365793
 10
3.4023622047244095
 20
3.3764137437365793
 10
3.4023622047244095
 20
3.316481746599857
 10
3.342430207587688
 20
3.316481746599857
 10
3.342430207587688
 20
3.3764137437365793
  0
LWPOLYLINE
  5
EC
330
17
100
AcDbEntity
  8
GEOMETRY
100
AcDbPolyline
 90
5
 70
0
 10
1.4183965640658556
 20
5.3935218324982115
 10
1.6488904795991413
 20
5.3935218324982115
 10
1.6488904795991413
 20
5.163027916964926
 10
1.4183965640658556
 20
5.163027916964926
 10
1.4183965640658556
 20
5.3935218324982115
  0
LINE
  5
ED
330
17
100
AcDbEntity
  8
GEOMETRY
100
AcDbLine
 10
1.4183965640658556
 20
5.393521832498211
 30
0.0
 11
1.648890479599141
 21
5.163027916964924
 31
0.0
  0
LINE
  5
EE
330
17
100
AcDbEntity
  8
GEOMETRY
100
AcDbLine
 10
1.648890479599141
 20
5.393521832498211
 30
0.0
 11
1.4183965640658556
 21
5.163027916964924
 31
0.0
  0
LWPOLYLINE
  5
EF
330
17
100
AcDbEntity
  8
GEOMETRY
100
AcDbPolyline
 90
5
 70
0
 10
1.5036864710093056
 20
5.30823192555476
 10
1.5636184681460272
 20
5.30823192555476
 10
1.5636184681460272
 20
5.248299928418039
 10
1.5036864710093056
 20
5.248299928418039
 10
1.5036864710093056
 20
5.30823192555476
  0
LWPOLYLINE
  5
F0
330
17
100
AcDbEntity
  8
GEOMETRY
100
AcDbPolyline
 90
5
 70
0
 10
5.0958840372226195
 20
5.3935218324982115
 10
5.326377952755905
 20
5.3935218324982115
 10
5.326377952755905
 20
5.163027916964926
 10
5.0958840372226195
 20
5.163027916964926
 10
5.0958840372226195
 20
5.3935218324982115
  0
LINE
  5
F1
330
17
100
AcDbEntity
  8
GEOMETRY
100
AcDbLine
 10
5.0958840372226195
 20
5.393521832498211
 30
0.0
 11
5.326377952755906
 21
5.163027916964924
 31
0.0
  0
LINE
  5
F2
330
17
100
AcDbEntity
  8
GEOMETRY
100
AcDbLine
 10
5.326377952755906
 20
5.393521832498211
 30
0.0
 11
5.0958840372226195
 21
5.163027916964924
 31
0.0
  0
LWPOLYLINE
  5
F3
330
17
100
AcDbEntity
  8
GEOMETRY
100
AcDbPolyline
 90
5
 70
0
 10
5.18117394416607
 20
5.30823192555476
 10
5.241105941302791
 20
5.30823192555476
 10
5.241105941302791
 20
5.248299928418039
 10
5.18117394416607
 20
5.248299928418039
 10
5.18117394416607
 20
5.30823192555476
  0
LINE
  5
F4
330
17
100
AcDbEntity
  8
DIMENSIONS
100
AcDbLine
 10
0.9645669291338582
 20
2.5251968503937
 30
0.0
 11
5.780314960629921
 21
2.5251968503937
 31
0.0
  0
LINE
  5
F5
330
17
100
AcDbEntity
  8
DIMENSIONS
100
AcDbLine
 10
1.0236220472440944
 20
2.761417322834645
 30
0.0
 11
1.0236220472440944
 21
2.4779527559055117
 31
0.0
  0
LINE
  5
F6
330
17
100
AcDbEntity
  8
DIMENSIONS
100
AcDbLine
 10
0.984251968503937
 20
2.4858267716535427
 30
0.0
 11
1.0629921259842519
 21
2.5645669291338575
 31
0.0
  0
LINE
  5
F7
330
17
100
AcDbEntity
  8
DIMENSIONS
100
AcDbLine
 10
1.962992125984252
 20
2.761417322834645
 30
0.0
 11
1.962992125984252
 21
2.4779527559055117
 31
0.0
  0
LINE
  5
F8
330
17
100
AcDbEntity
  8
DIMENSIONS
100
AcDbLine
 10
1.9236220472440944
 20
2.4858267716535427
 30
0.0
 11
2.002362204724409
 21
2.5645669291338575
 31
0.0
  0
LINE
  5
F9
330
17
100
AcDbEntity
  8
DIMENSIONS
100
AcDbLine
 10
2.9027559055118113
 20
2.761417322834645
 30
0.0
 11
2.9027559055118113
 21
2.4779527559055117
 31
0.0
  0
LINE
  5
FA
330
17
100
AcDbEntity
  8
DIMENSIONS
100
AcDbLine
 10
2.863385826771654
 20
2.4858267716535427
 30
0.0
 11
2.9421259842519687
 21
2.5645669291338575
 31
0.0
  0
LINE
  5
FB
330
17
100
AcDbEntity
  8
DIMENSIONS
100
AcDbLine
 10
3.8421259842519686
 20
2.761417322834645
 30
0.0
 11
3.8421259842519686
 21
2.4779527559055117
 31
0.0
  0
LINE
  5
FC
330
17
100
AcDbEntity
  8
DIMENSIONS
100
AcDbLine
 10
3.802755905511811
 20
2.4858267716535427
 30
0.0
 11
3.881496062992126
 21
2.5645669291338575
 31
0.0
  0
LINE
  5
FD
330
17
100
AcDbEntity
  8
DIMENSIONS
100
AcDbLine
 10
4.781496062992126
 20
2.761417322834645
 30
0.0
 11
4.781496062992126
 21
2.4779527559055117
 31
0.0
  0
LINE
  5
FE
330
17
100
AcDbEntity
  8
DIMENSIONS
100
AcDbLine
 10
4.7421259842519685
 20
2.4858267716535427
 30
0.0
 11
4.820866141732283
 21
2.5645669291338575
 31
0.0
  0
LINE
  5
FF
330
17
100
AcDbEntity
  8
DIMENSIONS
100
AcDbLine
 10
5.721259842519685
 20
2.761417322834645
 30
0.0
 11
5.721259842519685
 21
2.4779527559055117
 31
0.0
  0
LINE
  5
100
330
17
100
AcDbEntity
  8
DIMENSIONS
100
AcDbLine
 10
5.681889763779528
 20
2.4858267716535427
 30
0.0
 11
5.760629921259842
 21
2.5645669291338575
 31
0.0
  0
TEXT
  5
101
330
17
100
AcDbEntity
  8
TEXT
100
AcDbText
 10
1.493307086614173
 20
2.5566929133858265
 30
0.0
 40
0.036850393700787396
  1
1'-8⅝"
 72
1
 11
1.493307086614173
 21
2.5566929133858265
 31
0.0
100
AcDbText
  0
TEXT
  5
102
330
17
100
AcDbEntity
  8
TEXT
100
AcDbText
 10
2.433070866141732
 20
2.5566929133858265
 30
0.0
 40
0.036850393700787396
  1
1'-8⅝"
 72
1
 11
2.433070866141732
 21
2.5566929133858265
 31
0.0
100
AcDbText
  0
TEXT
  5
103
330
17
100
AcDbEntity
  8
TEXT
100
AcDbText
 10
3.3724409448818897
 20
2.5566929133858265
 30
0.0
 40
0.036850393700787396
  1
1'-8⅝"
 72
1
 11
3.3724409448818897
 21
2.5566929133858265
 31
0.0
100
AcDbText
  0
TEXT
  5
104
330
17
100
AcDbEntity
  8
TEXT
100
AcDbText
 10
4.311811023622047
 20
2.5566929133858265
 30
0.0
 40
0.036850393700787396
  1
1'-8⅝"
 72
1
 11
4.311811023622047
 21
2.5566929133858265
 31
0.0
100
AcDbText
  0
TEXT
  5
105
330
17
100
AcDbEntity
  8
TEXT
100
AcDbText
 10
5.251181102362205
 20
2.5566929133858265
 30
0.0
 40
0.036850393700787396
  1
1'-8⅝"
 72
1
 11
5.251181102362205
 21
2.5566929133858265
 31
0.0
100
AcDbText
  0
LINE
  5
106
330
17
100
AcDbEntity
  8
DIMENSIONS
100
AcDbLine
 10
0.9645669291338582
 20
2.249606299212598
 30
0.0
 11
5.780314960629921
 21
2.249606299212598
 31
0.0
  0
LINE
  5
107
330
17
100
AcDbEntity
  8
DIMENSIONS
100
AcDbLine
 10
1.0236220472440944
 20
2.4858267716535427
 30
0.0
 11
1.0236220472440944
 21
2.2023622047244094
 31
0.0
  0
LINE
  5
108
330
17
100
AcDbEntity
  8
DIMENSIONS
100
AcDbLine
 10
0.984251968503937
 20
2.2102362204724404
 30
0.0
 11
1.0629921259842519
 21
2.288976377952755
 31
0.0
  0
LINE
  5
109
330
17
100
AcDbEntity
  8
DIMENSIONS
100
AcDbLine
 10
5.721259842519685
 20
2.4858267716535427
 30
0.0
 11
5.721259842519685
 21
2.2023622047244094
 31
0.0
  0
LINE
  5
10A
330
17
100
AcDbEntity
  8
DIMENSIONS
100
AcDbLine
 10
5.681889763779528
 20
2.2102362204724404
 30
0.0
 11
5.760629921259842
 21
2.288976377952755
 31
0.0
  0
TEXT
  5
10B
330
17
100
AcDbEntity
  8
TEXT
100
AcDbText
 10
3.3724409448818897
 20
2.281102362204724
 30
0.0
 40
0.04251968503937008
  1
8'-7⅜" DEVELOPED
 72
1
 11
3.3724409448818897
 21
2.281102362204724
 31
0.0
100
AcDbText
  0
LINE
  5
10C
330
17
100
AcDbEntity
  8
DIMENSIONS
100
AcDbLine
 10
0.8267716535433071
 20
7.81496062992126
 30
0.0
 11
0.8267716535433071
 21
2.7417322834645663
 31
0.0
  0
LINE
  5
10D
330
17
100
AcDbEntity
  8
DIMENSIONS
100
AcDbLine
 10
0.984251968503937
 20
7.755905511811023
 30
0.0
 11
0.8740157480314961
 21
7.755905511811023
 31
0.0
  0
LINE
  5
10E
330
17
100
AcDbEntity
  8
DIMENSIONS
100
AcDbLine
 10
0.7874015748031495
 20
7.716535433070866
 30
0.0
 11
0.8661417322834646
 21
7.795275590551181
 31
0.0
  0
LINE
  5
10F
330
17
100
AcDbEntity
  8
DIMENSIONS
100
AcDbLine
 10
0.984251968503937
 20
7.48740157480315
 30
0.0
 11
0.8740157480314961
 21
7.48740157480315
 31
0.0
  0
LINE
  5
110
330
17
100
AcDbEntity
  8
DIMENSIONS
100
AcDbLine
 10
0.7874015748031495
 20
7.448031496062992
 30
0.0
 11
0.8661417322834646
 21
7.526771653543308
 31
0.0
  0
LINE
  5
111
330
17
100
AcDbEntity
  8
DIMENSIONS
100
AcDbLine
 10
0.984251968503937
 20
6.932677165354331
 30
0.0
 11
0.8740157480314961
 21
6.932677165354331
 31
0.0
  0
LINE
  5
112
330
17
100
AcDbEntity
  8
DIMENSIONS
100
AcDbLine
 10
0.7874015748031495
 20
6.893307086614174
 30
0.0
 11
0.8661417322834646
 21
6.9720472440944885
 31
0.0
  0
LINE
  5
113
330
17
100
AcDbEntity
  8
DIMENSIONS
100
AcDbLine
 10
0.984251968503937
 20
3.6240157480314963
 30
0.0
 11
0.8740157480314961
 21
3.6240157480314963
 31
0.0
  0
LINE
  5
114
330
17
100
AcDbEntity
  8
DIMENSIONS
100
AcDbLine
 10
0.7874015748031495
 20
3.584645669291339
 30
0.0
 11
0.8661417322834646
 21
3.663385826771654
 31
0.0
  0
LINE
  5
115
330
17
100
AcDbEntity
  8
DIMENSIONS
100
AcDbLine
 10
0.984251968503937
 20
3.068897637795275
 30
0.0
 11
0.8740157480314961
 21
3.068897637795275
 31
0.0
  0
LINE
  5
116
330
17
100
AcDbEntity
  8
DIMENSIONS
100
AcDbLine
 10
0.7874015748031495
 20
3.0295275590551176
 30
0.0
 11
0.8661417322834646
 21
3.1082677165354324
 31
0.0
  0
LINE
  5
117
330
17
100
AcDbEntity
  8
DIMENSIONS
100
AcDbLine
 10
0.984251968503937
 20
2.8007874015748024
 30
0.0
 11
0.8740157480314961
 21
2.8007874015748024
 31
0.0
  0
LINE
  5
118
330
17
100
AcDbEntity
  8
DIMENSIONS
100
AcDbLine
 10
0.7874015748031495
 20
2.761417322834645
 30
0.0
 11
0.8661417322834646
 21
2.84015748031496
 31
0.0
  0
TEXT
  5
119
330
17
100
AcDbEntity
  8
TEXT
100
AcDbText
 10
0.7952755905511812
 20
7.621653543307087
 30
0.0
 40
0.035433070866141725
  1
5⅞"
 50
90.0
 72
1
 11
0.7952755905511812
 21
7.621653543307087
 31
0.0
100
AcDbText
  0
TEXT
  5
11A
330
17
100
AcDbEntity
  8
TEXT
100
AcDbText
 10
0.7952755905511812
 20
7.21023622047244
 30
0.0
 40
0.035433070866141725
  1
1'-0¼"
 50
90.0
 72
1
 11
0.7952755905511812
 21
7.21023622047244
 31
0.0
100
AcDbText
  0
TEXT
  5
11B
330
17
100
AcDbEntity
  8
TEXT
100
AcDbText
 10
0.7952755905511807
 20
5.278346456692913
 30
0.0
 40
0.035433070866141725
  1
6'-0¾"
 50
90.0
 72
1
 11
0.7952755905511807
 21
5.278346456692913
 31
0.0
100
AcDbText
  0
TEXT
  5
11C
330
17
100
AcDbEntity
  8
TEXT
100
AcDbText
 10
0.7952755905511807
 20
3.3464566929133857
 30
0.0
 40
0.035433070866141725
  1
1'-0¼"
 50
90.0
 72
1
 11
0.7952755905511807
 21
3.3464566929133857
 31
0.0
100
AcDbText
  0
TEXT
  5
11D
330
17
100
AcDbEntity
  8
TEXT
100
AcDbText
 10
0.7952755905511807
 20
2.934645669291338
 30
0.0
 40
0.035433070866141725
  1
5⅞"
 50
90.0
 72
1
 11
0.7952755905511807
 21
2.934645669291338
 31
0.0
100
AcDbText
  0
TEXT
  5
11E
330
17
100
AcDbEntity
  8
TEXT
100
AcDbText
 10
6.299212598425196
 20
8.228346456692913
 30
0.0
 40
0.09070866141732283
  1
WITH THE TELEVISION
 11
6.299212598425196
 21
8.228346456692913
 31
0.0
100
AcDbText
  0
LINE
  5
11F
330
17
100
AcDbEntity
  8
GEOMETRY
100
AcDbLine
 10
6.299212598425196
 20
8.169291338582678
 30
0.0
 11
9.921259842519685
 21
8.169291338582678
 31
0.0
  0
TEXT
  5
120
330
17
100
AcDbEntity
  8
TEXT
100
AcDbText
 10
6.299212598425196
 20
8.039370078740157
 30
0.0
 40
0.048188976377952754
  1
THE SAME WALL · THE SET CENTRED · 1:22
 11
6.299212598425196
 21
8.039370078740157
 31
0.0
100
AcDbText
  0
LWPOLYLINE
  5
121
330
17
100
AcDbEntity
  8
GEOMETRY
100
AcDbPolyline
 90
5
 70
0
 10
6.535433070866142
 20
7.755905511811024
 10
11.232963493199714
 20
7.755905511811024
 10
11.232963493199714
 20
2.8006442376521115
 10
6.535433070866142
 20
2.8006442376521115
 10
6.535433070866142
 20
7.755905511811024
  0
LINE
  5
122
330
17
100
AcDbEntity
  8
GEOMETRY
100
AcDbLine
 10
7.474946313528991
 20
7.755905511811023
 30
0.0
 11
7.474946313528991
 21
2.800644237652111
 31
0.0
  0
LINE
  5
123
330
17
100
AcDbEntity
  8
GEOMETRY
100
AcDbLine
 10
8.414441660701502
 20
7.755905511811023
 30
0.0
 11
8.414441660701502
 21
2.800644237652111
 31
0.0
  0
LINE
  5
124
330
17
100
AcDbEntity
  8
GEOMETRY
100
AcDbLine
 10
9.353954903364352
 20
7.755905511811023
 30
0.0
 11
9.353954903364352
 21
2.800644237652111
 31
0.0
  0
LINE
  5
125
330
17
100
AcDbEntity
  8
GEOMETRY
100
AcDbLine
 10
10.2934681460272
 20
7.755905511811023
 30
0.0
 11
10.2934681460272
 21
2.800644237652111
 31
0.0
  0
LWPOLYLINE
  5
126
330
17
100
AcDbEntity
  8
GEOMETRY
100
AcDbPolyline
 90
5
 70
0
 10
6.80386542591267
 20
7.487473156764496
 10
10.964531138153186
 20
7.487473156764496
 10
10.964531138153186
 20
3.0690765926986394
 10
6.80386542591267
 20
3.0690765926986394
 10
6.80386542591267
 20
7.487473156764496
  0
LWPOLYLINE
  5
127
330
17
100
AcDbEntity
  8
GEOMETRY
100
AcDbPolyline
 90
5
 70
0
 10
7.287043664996421
 20
6.9327129563350045
 10
10.481352899069435
 20
6.9327129563350045
 10
10.481352899069435
 20
3.623836793128133
 10
7.287043664996421
 20
3.623836793128133
 10
7.287043664996421
 20
6.9327129563350045
  0
LINE
  5
128
330
17
100
AcDbEntity
  8
GEOMETRY
100
AcDbLine
 10
7.3239441660701505
 20
7.487473156764495
 30
0.0
 11
7.3239441660701505
 21
6.932712956335004
 31
0.0
  0
LINE
  5
129
330
17
100
AcDbEntity
  8
GEOMETRY
100
AcDbLine
 10
7.3239441660701505
 20
3.6238367931281323
 30
0.0
 11
7.3239441660701505
 21
3.0690765926986394
 31
0.0
  0
LINE
  5
12A
330
17
100
AcDbEntity
  8
GEOMETRY
100
AcDbLine
 10
7.844040801717967
 20
7.487473156764495
 30
0.0
 11
7.844040801717967
 21
6.932712956335004
 31
0.0
  0
LINE
  5
12B
330
17
100
AcDbEntity
  8
GEOMETRY
100
AcDbLine
 10
7.844040801717967
 20
3.6238367931281323
 30
0.0
 11
7.844040801717967
 21
3.0690765926986394
 31
0.0
  0
LINE
  5
12C
330
17
100
AcDbEntity
  8
GEOMETRY
100
AcDbLine
 10
8.364119541875446
 20
7.487473156764495
 30
0.0
 11
8.364119541875446
 21
6.932712956335004
 31
0.0
  0
LINE
  5
12D
330
17
100
AcDbEntity
  8
GEOMETRY
100
AcDbLine
 10
8.364119541875446
 20
3.6238367931281323
 30
0.0
 11
8.364119541875446
 21
3.0690765926986394
 31
0.0
  0
LINE
  5
12E
330
17
100
AcDbEntity
  8
GEOMETRY
100
AcDbLine
 10
8.884198282032928
 20
7.487473156764495
 30
0.0
 11
8.884198282032928
 21
6.932712956335004
 31
0.0
  0
LINE
  5
12F
330
17
100
AcDbEntity
  8
GEOMETRY
100
AcDbLine
 10
8.884198282032928
 20
3.6238367931281323
 30
0.0
 11
8.884198282032928
 21
3.0690765926986394
 31
0.0
  0
LINE
  5
130
330
17
100
AcDbEntity
  8
GEOMETRY
100
AcDbLine
 10
9.404277022190408
 20
7.487473156764495
 30
0.0
 11
9.404277022190408
 21
6.932712956335004
 31
0.0
  0
LINE
  5
131
330
17
100
AcDbEntity
  8
GEOMETRY
100
AcDbLine
 10
9.404277022190408
 20
3.6238367931281323
 30
0.0
 11
9.404277022190408
 21
3.0690765926986394
 31
0.0
  0
LINE
  5
132
330
17
100
AcDbEntity
  8
GEOMETRY
100
AcDbLine
 10
9.924373657838224
 20
7.487473156764495
 30
0.0
 11
9.924373657838224
 21
6.932712956335004
 31
0.0
  0
LINE
  5
133
330
17
100
AcDbEntity
  8
GEOMETRY
100
AcDbLine
 10
9.924373657838224
 20
3.6238367931281323
 30
0.0
 11
9.924373657838224
 21
3.0690765926986394
 31
0.0
  0
LINE
  5
134
330
17
100
AcDbEntity
  8
GEOMETRY
100
AcDbLine
 10
10.444452397995706
 20
7.487473156764495
 30
0.0
 11
10.444452397995706
 21
6.932712956335004
 31
0.0
  0
LINE
  5
135
330
17
100
AcDbEntity
  8
GEOMETRY
100
AcDbLine
 10
10.444452397995706
 20
3.6238367931281323
 30
0.0
 11
10.444452397995706
 21
3.0690765926986394
 31
0.0
  0
LINE
  5
136
330
17
100
AcDbEntity
  8
GEOMETRY
100
AcDbLine
 10
6.80386542591267
 20
6.996546170365068
 30
0.0
 11
7.287043664996421
 21
6.996546170365068
 31
0.0
  0
LINE
  5
137
330
17
100
AcDbEntity
  8
GEOMETRY
100
AcDbLine
 10
10.481352899069435
 20
6.996546170365068
 30
0.0
 11
10.964531138153186
 21
6.996546170365068
 31
0.0
  0
LINE
  5
138
330
17
100
AcDbEntity
  8
GEOMETRY
100
AcDbLine
 10
6.80386542591267
 20
6.5056012884753045
 30
0.0
 11
7.287043664996421
 21
6.5056012884753045
 31
0.0
  0
LINE
  5
139
330
17
100
AcDbEntity
  8
GEOMETRY
100
AcDbLine
 10
10.481352899069435
 20
6.5056012884753045
 30
0.0
 11
10.964531138153186
 21
6.5056012884753045
 31
0.0
  0
LINE
  5
13A
330
17
100
AcDbEntity
  8
GEOMETRY
100
AcDbLine
 10
6.80386542591267
 20
6.0146743020758775
 30
0.0
 11
7.287043664996421
 21
6.0146743020758775
 31
0.0
  0
LINE
  5
13B
330
17
100
AcDbEntity
  8
GEOMETRY
100
AcDbLine
 10
10.481352899069435
 20
6.0146743020758775
 30
0.0
 11
10.964531138153186
 21
6.0146743020758775
 31
0.0
  0
LINE
  5
13C
330
17
100
AcDbEntity
  8
GEOMETRY
100
AcDbLine
 10
6.80386542591267
 20
5.52374731567645
 30
0.0
 11
7.287043664996421
 21
5.52374731567645
 31
0.0
  0
LINE
  5
13D
330
17
100
AcDbEntity
  8
GEOMETRY
100
AcDbLine
 10
10.481352899069435
 20
5.52374731567645
 30
0.0
 11
10.964531138153186
 21
5.52374731567645
 31
0.0
  0
LINE
  5
13E
330
17
100
AcDbEntity
  8
GEOMETRY
100
AcDbLine
 10
6.80386542591267
 20
5.032802433786685
 30
0.0
 11
7.287043664996421
 21
5.032802433786685
 31
0.0
  0
LINE
  5
13F
330
17
100
AcDbEntity
  8
GEOMETRY
100
AcDbLine
 10
10.481352899069435
 20
5.032802433786685
 30
0.0
 11
10.964531138153186
 21
5.032802433786685
 31
0.0
  0
LINE
  5
140
330
17
100
AcDbEntity
  8
GEOMETRY
100
AcDbLine
 10
6.80386542591267
 20
4.541875447387259
 30
0.0
 11
7.287043664996421
 21
4.541875447387259
 31
0.0
  0
LINE
  5
141
330
17
100
AcDbEntity
  8
GEOMETRY
100
AcDbLine
 10
10.481352899069435
 20
4.541875447387259
 30
0.0
 11
10.964531138153186
 21
4.541875447387259
 31
0.0
  0
LINE
  5
142
330
17
100
AcDbEntity
  8
GEOMETRY
100
AcDbLine
 10
6.80386542591267
 20
4.05094846098783
 30
0.0
 11
7.287043664996421
 21
4.05094846098783
 31
0.0
  0
LINE
  5
143
330
17
100
AcDbEntity
  8
GEOMETRY
100
AcDbLine
 10
10.481352899069435
 20
4.05094846098783
 30
0.0
 11
10.964531138153186
 21
4.05094846098783
 31
0.0
  0
LINE
  5
144
330
17
100
AcDbEntity
  8
GEOMETRY
100
AcDbLine
 10
6.80386542591267
 20
3.5600035790980677
 30
0.0
 11
7.287043664996421
 21
3.5600035790980677
 31
0.0
  0
LINE
  5
145
330
17
100
AcDbEntity
  8
GEOMETRY
100
AcDbLine
 10
10.481352899069435
 20
3.5600035790980677
 30
0.0
 11
10.964531138153186
 21
3.5600035790980677
 31
0.0
  0
LINE
  5
146
330
17
100
AcDbEntity
  8
GEOMETRY
100
AcDbLine
 10
7.045454545454546
 20
7.487473156764495
 30
0.0
 11
7.045454545454546
 21
3.0690765926986394
 31
0.0
  0
LINE
  5
147
330
17
100
AcDbEntity
  8
GEOMETRY
100
AcDbLine
 10
10.72294201861131
 20
7.487473156764495
 30
0.0
 11
10.72294201861131
 21
3.0690765926986394
 31
0.0
  0
LINE
  5
148
330
17
100
AcDbEntity
  8
GEOMETRY
100
AcDbLine
 10
6.80386542591267
 20
7.2100930565497485
 30
0.0
 11
10.964531138153186
 21
7.2100930565497485
 31
0.0
  0
LINE
  5
149
330
17
100
AcDbEntity
  8
GEOMETRY
100
AcDbLine
 10
6.80386542591267
 20
3.3464566929133857
 30
0.0
 11
10.964531138153186
 21
3.3464566929133857
 31
0.0
  0
LWPOLYLINE
  5
14A
330
17
100
AcDbEntity
  8
GEOMETRY
100
AcDbPolyline
 90
5
 70
0
 10
7.161775232641374
 20
7.057981388690051
 10
7.412312097351467
 20
7.057981388690051
 10
7.412312097351467
 20
6.807444523979958
 10
7.161775232641374
 20
6.807444523979958
 10
7.161775232641374
 20
7.057981388690051
  0
LINE
  5
14B
330
17
100
AcDbEntity
  8
GEOMETRY
100
AcDbLine
 10
7.161775232641374
 20
7.057981388690051
 30
0.0
 11
7.412312097351467
 21
6.807444523979957
 31
0.0
  0
LINE
  5
14C
330
17
100
AcDbEntity
  8
GEOMETRY
100
AcDbLine
 10
7.412312097351467
 20
7.057981388690051
 30
0.0
 11
7.161775232641374
 21
6.807444523979957
 31
0.0
  0
LWPOLYLINE
  5
14D
330
17
100
AcDbEntity
  8
GEOMETRY
100
AcDbPolyline
 90
5
 70
0
 10
7.254473872584108
 20
6.965282748747317
 10
7.319613457408733
 20
6.965282748747317
 10
7.319613457408733
 20
6.900143163922692
 10
7.254473872584108
 20
6.900143163922692
 10
7.254473872584108
 20
6.965282748747317
  0
LWPOLYLINE
  5
14E
330
17
100
AcDbEntity
  8
GEOMETRY
100
AcDbPolyline
 90
5
 70
0
 10
10.356084466714389
 20
7.057981388690051
 10
10.606621331424481
 20
7.057981388690051
 10
10.606621331424481
 20
6.807444523979958
 10
10.356084466714389
 20
6.807444523979958
 10
10.356084466714389
 20
7.057981388690051
  0
LINE
  5
14F
330
17
100
AcDbEntity
  8
GEOMETRY
100
AcDbLine
 10
10.356084466714389
 20
7.057981388690051
 30
0.0
 11
10.60662133142448
 21
6.807444523979957
 31
0.0
  0
LINE
  5
150
330
17
100
AcDbEntity
  8
GEOMETRY
100
AcDbLine
 10
10.60662133142448
 20
7.057981388690051
 30
0.0
 11
10.356084466714389
 21
6.807444523979957
 31
0.0
  0
LWPOLYLINE
  5
151
330
17
100
AcDbEntity
  8
GEOMETRY
100
AcDbPolyline
 90
5
 70
0
 10
10.448783106657121
 20
6.965282748747317
 10
10.513922691481744
 20
6.965282748747317
 10
10.513922691481744
 20
6.900143163922692
 10
10.448783106657121
 20
6.900143163922692
 10
10.448783106657121
 20
6.965282748747317
  0
LWPOLYLINE
  5
152
330
17
100
AcDbEntity
  8
GEOMETRY
100
AcDbPolyline
 90
5
 70
0
 10
7.161775232641374
 20
3.749105225483179
 10
7.412312097351467
 20
3.749105225483179
 10
7.412312097351467
 20
3.498568360773085
 10
7.161775232641374
 20
3.498568360773085
 10
7.161775232641374
 20
3.749105225483179
  0
LINE
  5
153
330
17
100
AcDbEntity
  8
GEOMETRY
100
AcDbLine
 10
7.161775232641374
 20
3.749105225483178
 30
0.0
 11
7.412312097351467
 21
3.4985683607730858
 31
0.0
  0
LINE
  5
154
330
17
100
AcDbEntity
  8
GEOMETRY
100
AcDbLine
 10
7.412312097351467
 20
3.749105225483178
 30
0.0
 11
7.161775232641374
 21
3.4985683607730858
 31
0.0
  0
LWPOLYLINE
  5
155
330
17
100
AcDbEntity
  8
GEOMETRY
100
AcDbPolyline
 90
5
 70
0
 10
7.254473872584108
 20
3.656406585540445
 10
7.319613457408733
 20
3.656406585540445
 10
7.319613457408733
 20
3.5912670007158205
 10
7.254473872584108
 20
3.5912670007158205
 10
7.254473872584108
 20
3.656406585540445
  0
LWPOLYLINE
  5
156
330
17
100
AcDbEntity
  8
GEOMETRY
100
AcDbPolyline
 90
5
 70
0
 10
10.356084466714389
 20
3.749105225483179
 10
10.606621331424481
 20
3.749105225483179
 10
10.606621331424481
 20
3.498568360773085
 10
10.356084466714389
 20
3.498568360773085
 10
10.356084466714389
 20
3.749105225483179
  0
LINE
  5
157
330
17
100
AcDbEntity
  8
GEOMETRY
100
AcDbLine
 10
10.356084466714389
 20
3.749105225483178
 30
0.0
 11
10.60662133142448
 21
3.4985683607730858
 31
0.0
  0
LINE
  5
158
330
17
100
AcDbEntity
  8
GEOMETRY
100
AcDbLine
 10
10.60662133142448
 20
3.749105225483178
 30
0.0
 11
10.356084466714389
 21
3.4985683607730858
 31
0.0
  0
LWPOLYLINE
  5
159
330
17
100
AcDbEntity
  8
GEOMETRY
100
AcDbPolyline
 90
5
 70
0
 10
10.448783106657121
 20
3.656406585540445
 10
10.513922691481744
 20
3.656406585540445
 10
10.513922691481744
 20
3.5912670007158205
 10
10.448783106657121
 20
3.5912670007158205
 10
10.448783106657121
 20
3.656406585540445
  0
LWPOLYLINE
  5
15A
330
17
100
AcDbEntity
  8
GEOMETRY
100
AcDbPolyline
 90
5
 70
0
 10
8.768951324266284
 20
7.325340014316393
 10
8.99944523979957
 20
7.325340014316393
 10
8.99944523979957
 20
7.0948460987831075
 10
8.768951324266284
 20
7.0948460987831075
 10
8.768951324266284
 20
7.325340014316393
  0
LINE
  5
15B
330
17
100
AcDbEntity
  8
GEOMETRY
100
AcDbLine
 10
8.768951324266284
 20
7.325340014316392
 30
0.0
 11
8.99944523979957
 21
7.094846098783107
 31
0.0
  0
LINE
  5
15C
330
17
100
AcDbEntity
  8
GEOMETRY
100
AcDbLine
 10
8.99944523979957
 20
7.325340014316392
 30
0.0
 11
8.768951324266284
 21
7.094846098783107
 31
0.0
  0
LWPOLYLINE
  5
15D
330
17
100
AcDbEntity
  8
GEOMETRY
100
AcDbPolyline
 90
5
 70
0
 10
8.854241231209736
 20
7.240050107372943
 10
8.914173228346456
 20
7.240050107372943
 10
8.914173228346456
 20
7.180118110236221
 10
8.854241231209736
 20
7.180118110236221
 10
8.854241231209736
 20
7.240050107372943
  0
LWPOLYLINE
  5
15E
330
17
100
AcDbEntity
  8
GEOMETRY
100
AcDbPolyline
 90
5
 70
0
 10
8.768951324266284
 20
3.461703650680029
 10
8.99944523979957
 20
3.461703650680029
 10
8.99944523979957
 20
3.231209735146745
 10
8.768951324266284
 20
3.231209735146745
 10
8.768951324266284
 20
3.461703650680029
  0
LINE
  5
15F
330
17
100
AcDbEntity
  8
GEOMETRY
100
AcDbLine
 10
8.768951324266284
 20
3.461703650680029
 30
0.0
 11
8.99944523979957
 21
3.231209735146743
 31
0.0
  0
LINE
  5
160
330
17
100
AcDbEntity
  8
GEOMETRY
100
AcDbLine
 10
8.99944523979957
 20
3.461703650680029
 30
0.0
 11
8.768951324266284
 21
3.231209735146743
 31
0.0
  0
LWPOLYLINE
  5
161
330
17
100
AcDbEntity
  8
GEOMETRY
100
AcDbPolyline
 90
5
 70
0
 10
8.854241231209736
 20
3.3764137437365793
 10
8.914173228346456
 20
3.3764137437365793
 10
8.914173228346456
 20
3.316481746599857
 10
8.854241231209736
 20
3.316481746599857
 10
8.854241231209736
 20
3.3764137437365793
  0
LWPOLYLINE
  5
162
330
17
100
AcDbEntity
  8
GEOMETRY
100
AcDbPolyline
 90
5
 70
0
 10
6.930207587687903
 20
5.3935218324982115
 10
7.160701503221188
 20
5.3935218324982115
 10
7.160701503221188
 20
5.163027916964926
 10
6.930207587687903
 20
5.163027916964926
 10
6.930207587687903
 20
5.3935218324982115
  0
LINE
  5
163
330
17
100
AcDbEntity
  8
GEOMETRY
100
AcDbLine
 10
6.930207587687903
 20
5.393521832498211
 30
0.0
 11
7.160701503221188
 21
5.163027916964924
 31
0.0
  0
LINE
  5
164
330
17
100
AcDbEntity
  8
GEOMETRY
100
AcDbLine
 10
7.160701503221188
 20
5.393521832498211
 30
0.0
 11
6.930207587687903
 21
5.163027916964924
 31
0.0
  0
LWPOLYLINE
  5
165
330
17
100
AcDbEntity
  8
GEOMETRY
100
AcDbPolyline
 90
5
 70
0
 10
7.015497494631353
 20
5.30823192555476
 10
7.075429491768074
 20
5.30823192555476
 10
7.075429491768074
 20
5.248299928418039
 10
7.015497494631353
 20
5.248299928418039
 10
7.015497494631353
 20
5.30823192555476
  0
LWPOLYLINE
  5
166
330
17
100
AcDbEntity
  8
GEOMETRY
100
AcDbPolyline
 90
5
 70
0
 10
10.607695060844668
 20
5.3935218324982115
 10
10.838188976377953
 20
5.3935218324982115
 10
10.838188976377953
 20
5.163027916964926
 10
10.607695060844668
 20
5.163027916964926
 10
10.607695060844668
 20
5.3935218324982115
  0
LINE
  5
167
330
17
100
AcDbEntity
  8
GEOMETRY
100
AcDbLine
 10
10.607695060844668
 20
5.393521832498211
 30
0.0
 11
10.838188976377953
 21
5.163027916964924
 31
0.0
  0
LINE
  5
168
330
17
100
AcDbEntity
  8
GEOMETRY
100
AcDbLine
 10
10.838188976377953
 20
5.393521832498211
 30
0.0
 11
10.607695060844668
 21
5.163027916964924
 31
0.0
  0
LWPOLYLINE
  5
169
330
17
100
AcDbEntity
  8
GEOMETRY
100
AcDbPolyline
 90
5
 70
0
 10
10.692984967788117
 20
5.30823192555476
 10
10.75291696492484
 20
5.30823192555476
 10
10.75291696492484
 20
5.248299928418039
 10
10.692984967788117
 20
5.248299928418039
 10
10.692984967788117
 20
5.30823192555476
  0
LINE
  5
16A
330
17
100
AcDbEntity
  8
DIMENSIONS
100
AcDbLine
 10
7.727165354330709
 20
2.5251968503937
 30
0.0
 11
10.041338582677165
 21
2.5251968503937
 31
0.0
  0
LINE
  5
16B
330
17
100
AcDbEntity
  8
DIMENSIONS
100
AcDbLine
 10
7.786220472440945
 20
2.761417322834645
 30
0.0
 11
7.786220472440945
 21
2.4779527559055117
 31
0.0
  0
LINE
  5
16C
330
17
100
AcDbEntity
  8
DIMENSIONS
100
AcDbLine
 10
7.746850393700788
 20
2.4858267716535427
 30
0.0
 11
7.825590551181103
 21
2.5645669291338575
 31
0.0
  0
LINE
  5
16D
330
17
100
AcDbEntity
  8
DIMENSIONS
100
AcDbLine
 10
9.98228346456693
 20
2.761417322834645
 30
0.0
 11
9.98228346456693
 21
2.4779527559055117
 31
0.0
  0
LINE
  5
16E
330
17
100
AcDbEntity
  8
DIMENSIONS
100
AcDbLine
 10
9.942913385826772
 20
2.4858267716535427
 30
0.0
 11
10.021653543307087
 21
2.5645669291338575
 31
0.0
  0
TEXT
  5
16F
330
17
100
AcDbEntity
  8
TEXT
100
AcDbText
 10
8.884251968503937
 20
2.5566929133858265
 30
0.0
 40
0.036850393700787396
  1
4'-0¼" — 55 IN
 72
1
 11
8.884251968503937
 21
2.5566929133858265
 31
0.0
100
AcDbText
  0
TEXT
  5
170
330
17
100
AcDbEntity
  8
TEXT
100
AcDbText
 10
11.811023622047244
 20
8.228346456692913
 30
0.0
 40
0.09070866141732283
  1
THE CURVE
 11
11.811023622047244
 21
8.228346456692913
 31
0.0
100
AcDbText
  0
LINE
  5
171
330
17
100
AcDbEntity
  8
GEOMETRY
100
AcDbLine
 10
11.811023622047244
 20
8.169291338582678
 30
0.0
 11
14.015748031496063
 21
8.169291338582678
 31
0.0
  0
TEXT
  5
172
330
17
100
AcDbEntity
  8
TEXT
100
AcDbText
 10
11.811023622047244
 20
8.039370078740157
 30
0.0
 40
0.048188976377952754
  1
PLAN · 1:10
 11
11.811023622047244
 21
8.039370078740157
 31
0.0
100
AcDbText
  0
LWPOLYLINE
  5
173
330
17
100
AcDbEntity
  8
GEOMETRY
100
AcDbPolyline
 90
5
 70
0
 10
11.975303973018455
 20
6.353878156302491
 10
13.753729169868848
 20
7.478051384648947
 10
13.789674051758613
 20
7.244547447641073
 10
12.165776413963336
 20
6.214193116932412
 10
11.975303973018455
 20
6.353878156302491
  0
LWPOLYLINE
  5
174
330
17
100
AcDbEntity
  8
GEOMETRY
100
AcDbPolyline
 90
5
 70
0
 10
13.753729169868848
 20
7.478051384648947
 10
15.836485075380661
 20
7.5170671326804435
 10
15.836485075380661
 20
7.280846660239499
 10
13.789674051758613
 20
7.244547447641073
 10
13.753729169868848
 20
7.478051384648947
  0
TEXT
  5
175
330
17
100
AcDbEntity
  8
TEXT
100
AcDbText
 10
11.811023622047244
 20
5.94488188976378
 30
0.0
 40
0.048188976377952754
  1
Every bay is flat. The came at each joint
 11
11.811023622047244
 21
5.94488188976378
 31
0.0
100
AcDbText
  0
TEXT
  5
176
330
17
100
AcDbEntity
  8
TEXT
100
AcDbText
 10
11.811023622047244
 20
5.771653543307086
 30
0.0
 40
0.048188976377952754
  1
takes the angle — no glass is bent.
 11
11.811023622047244
 21
5.771653543307086
 31
0.0
100
AcDbText
  0
TEXT
  5
177
330
17
100
AcDbEntity
  8
TEXT
100
AcDbText
 10
11.811023622047244
 20
5.15748031496063
 30
0.0
 40
0.09070866141732283
  1
AXONOMETRIC
 11
11.811023622047244
 21
5.15748031496063
 31
0.0
100
AcDbText
  0
LINE
  5
178
330
17
100
AcDbEntity
  8
GEOMETRY
100
AcDbLine
 10
11.811023622047244
 20
5.0984251968503935
 30
0.0
 11
14.015748031496063
 21
5.0984251968503935
 31
0.0
  0
TEXT
  5
179
330
17
100
AcDbEntity
  8
TEXT
100
AcDbText
 10
11.811023622047244
 20
4.968503937007873
 30
0.0
 40
0.048188976377952754
  1
FROM THE BED SIDE
 11
11.811023622047244
 21
4.968503937007873
 31
0.0
100
AcDbText
  0
LWPOLYLINE
  5
17A
330
17
100
AcDbEntity
  8
GEOMETRY
100
AcDbPolyline
 90
51
 70
0
 10
12.705905511811023
 20
2.3267716535433074
 10
12.76220472440945
 20
2.3244094488188978
 10
12.819291338582678
 20
2.323622047244095
 10
12.875984251968504
 20
2.3240157480314974
 10
12.932677165354331
 20
2.3255905511811026
 10
12.988582677165356
 20
2.329133858267717
 10
13.043700787401574
 20
2.3338582677165363
 10
13.09724409448819
 20
2.3401574803149607
 10
13.149606299212598
 20
2.347637795275592
 10
13.199606299212597
 20
2.356299212598426
 10
13.24724409448819
 20
2.366141732283465
 10
13.29251968503937
 20
2.3775590551181107
 10
13.334645669291337
 20
2.3897637795275593
 10
13.375196850393701
 20
2.402755905511812
 10
13.415354330708661
 20
2.4157480314960633
 10
13.455511811023621
 20
2.4287401574803162
 10
13.495669291338583
 20
2.4417322834645674
 10
13.536220472440945
 20
2.4547244094488185
 10
13.576377952755905
 20
2.4677165354330715
 10
13.616535433070867
 20
2.481102362204725
 10
13.657086614173227
 20
2.494094488188976
 10
13.69724409448819
 20
2.507086614173229
 10
13.73740157480315
 20
2.52007874015748
 10
13.77755905511811
 20
2.533070866141733
 10
13.818110236220473
 20
2.546062992125984
 10
13.858267716535433
 20
2.559055118110237
 10
13.898425196850393
 20
2.57204724409449
 10
13.938976377952756
 20
2.585039370078741
 10
13.979133858267716
 20
2.598031496062994
 10
14.019291338582676
 20
2.611023622047245
 10
14.059448818897637
 20
2.6240157480314963
 10
14.1
 20
2.6370078740157474
 10
14.140157480314961
 20
2.6503937007874026
 10
14.180314960629921
 20
2.6633858267716537
 10
14.220866141732282
 20
2.6763779527559066
 10
14.261023622047245
 20
2.6893700787401578
 10
14.301181102362204
 20
2.702362204724409
 10
14.341338582677164
 20
2.715354330708662
 10
14.381496062992127
 20
2.7283464566929148
 10
14.420078740157479
 20
2.7421259842519685
 10
14.454724409448819
 20
2.7566929133858284
 10
14.485433070866142
 20
2.772047244094489
 10
14.51259842519685
 20
2.7881889763779526
 10
14.535826771653543
 20
2.8051181102362204
 10
14.554724409448818
 20
2.8224409448818903
 10
14.569685039370079
 20
2.8401574803149607
 10
14.57992125984252
 20
2.8582677165354333
 10
14.585433070866143
 20
2.876771653543308
 10
14.587007874015747
 20
2.8948818897637807
 10
14.583858267716536
 20
2.9133858267716537
 10
14.575984251968505
 20
2.9314960629921263
  0
LWPOLYLINE
  5
17B
330
17
100
AcDbEntity
  8
GEOMETRY
100
AcDbPolyline
 90
51
 70
0
 10
12.705905511811023
 20
2.401181102362205
 10
12.76220472440945
 20
2.3988188976377955
 10
12.819291338582678
 20
2.398031496062993
 10
12.875984251968504
 20
2.3984251968503933
 10
12.932677165354331
 20
2.4000000000000004
 10
12.988582677165356
 20
2.403543307086615
 10
13.043700787401574
 20
2.408267716535434
 10
13.09724409448819
 20
2.4145669291338603
 10
13.149606299212598
 20
2.4220472440944896
 10
13.199606299212597
 20
2.4307086614173237
 10
13.24724409448819
 20
2.4405511811023626
 10
13.29251968503937
 20
2.4519685039370085
 10
13.334645669291337
 20
2.464173228346457
 10
13.375196850393701
 20
2.477165354330708
 10
13.415354330708661
 20
2.490157480314961
 10
13.455511811023621
 20
2.503149606299214
 10
13.495669291338583
 20
2.516141732283465
 10
13.536220472440945
 20
2.529133858267718
 10
13.576377952755905
 20
2.5421259842519692
 10
13.616535433070867
 20
2.5555118110236226
 10
13.657086614173227
 20
2.5685039370078755
 10
13.69724409448819
 20
2.5814960629921266
 10
13.73740157480315
 20
2.5944881889763796
 10
13.77755905511811
 20
2.6074803149606307
 10
13.818110236220473
 20
2.620472440944882
 10
13.858267716535433
 20
2.6334645669291348
 10
13.898425196850393
 20
2.646456692913386
 10
13.938976377952756
 20
2.659448818897639
 10
13.979133858267716
 20
2.67244094488189
 10
14.019291338582676
 20
2.685433070866143
 10
14.059448818897637
 20
2.698425196850394
 10
14.1
 20
2.711417322834647
 10
14.140157480314961
 20
2.7248031496063003
 10
14.180314960629921
 20
2.7377952755905515
 10
14.220866141732282
 20
2.7507874015748044
 10
14.261023622047245
 20
2.7637795275590555
 10
14.301181102362204
 20
2.7767716535433085
 10
14.341338582677164
 20
2.7897637795275596
 10
14.381496062992127
 20
2.8027559055118108
 10
14.420078740157479
 20
2.8165354330708663
 10
14.454724409448819
 20
2.8311023622047244
 10
14.485433070866142
 20
2.846456692913387
 10
14.51259842519685
 20
2.862598425196852
 10
14.535826771653543
 20
2.879527559055118
 10
14.554724409448818
 20
2.896850393700788
 10
14.569685039370079
 20
2.9145669291338585
 10
14.57992125984252
 20
2.932677165354331
 10
14.585433070866143
 20
2.951181102362206
 10
14.587007874015747
 20
2.9692913385826767
 10
14.583858267716536
 20
2.9877952755905515
 10
14.575984251968505
 20
3.005905511811024
  0
LWPOLYLINE
  5
17C
330
17
100
AcDbEntity
  8
GEOMETRY
100
AcDbPolyline
 90
51
 70
0
 10
12.705905511811023
 20
2.555118110236222
 10
12.76220472440945
 20
2.5527559055118125
 10
12.819291338582678
 20
2.5515748031496077
 10
12.875984251968504
 20
2.551968503937008
 10
12.932677165354331
 20
2.5539370078740173
 10
12.988582677165356
 20
2.557086614173228
 10
13.043700787401574
 20
2.5622047244094492
 10
13.09724409448819
 20
2.5681102362204733
 10
13.149606299212598
 20
2.5755905511811026
 10
13.199606299212597
 20
2.5842519685039367
 10
13.24724409448819
 20
2.5944881889763796
 10
13.29251968503937
 20
2.6055118110236233
 10
13.334645669291337
 20
2.6181102362204722
 10
13.375196850393701
 20
2.631102362204725
 10
13.415354330708661
 20
2.6440944881889763
 10
13.455511811023621
 20
2.6570866141732292
 10
13.495669291338583
 20
2.6700787401574804
 10
13.536220472440945
 20
2.6830708661417333
 10
13.576377952755905
 20
2.6960629921259844
 10
13.616535433070867
 20
2.7090551181102374
 10
13.657086614173227
 20
2.7220472440944885
 10
13.69724409448819
 20
2.7350393700787414
 10
13.73740157480315
 20
2.7480314960629926
 10
13.77755905511811
 20
2.7610236220472437
 10
13.818110236220473
 20
2.774409448818899
 10
13.858267716535433
 20
2.78740157480315
 10
13.898425196850393
 20
2.800393700787403
 10
13.938976377952756
 20
2.813385826771654
 10
13.979133858267716
 20
2.826377952755905
 10
14.019291338582676
 20
2.839370078740158
 10
14.059448818897637
 20
2.8523622047244093
 10
14.1
 20
2.865354330708662
 10
14.140157480314961
 20
2.878346456692915
 10
14.180314960629921
 20
2.8913385826771663
 10
14.220866141732282
 20
2.904330708661419
 10
14.261023622047245
 20
2.9173228346456703
 10
14.301181102362204
 20
2.9303149606299215
 10
14.341338582677164
 20
2.9433070866141744
 10
14.381496062992127
 20
2.9566929133858277
 10
14.420078740157479
 20
2.970078740157481
 10
14.454724409448819
 20
2.9846456692913392
 10
14.485433070866142
 20
3.000393700787402
 10
14.51259842519685
 20
3.0165354330708674
 10
14.535826771653543
 20
3.033070866141733
 10
14.554724409448818
 20
3.0507874015748033
 10
14.569685039370079
 20
3.0685039370078737
 10
14.57992125984252
 20
3.086614173228348
 10
14.585433070866143
 20
3.1047244094488207
 10
14.587007874015747
 20
3.1232283464566937
 10
14.583858267716536
 20
3.1417322834645685
 10
14.575984251968505
 20
3.1598425196850393
  0
LWPOLYLINE
  5
17D
330
17
100
AcDbEntity
  8
GEOMETRY
100
AcDbPolyline
 90
51
 70
0
 10
12.705905511811023
 20
3.0137795275590555
 10
12.76220472440945
 20
3.011417322834646
 10
12.819291338582678
 20
3.010236220472441
 10
12.875984251968504
 20
3.0106299212598433
 10
12.932677165354331
 20
3.0125984251968507
 10
12.988582677165356
 20
3.015748031496063
 10
13.043700787401574
 20
3.020472440944882
 10
13.09724409448819
 20
3.0267716535433085
 10
13.149606299212598
 20
3.0342519685039377
 10
13.199606299212597
 20
3.042913385826772
 10
13.24724409448819
 20
3.053149606299213
 10
13.29251968503937
 20
3.0641732283464584
 10
13.334645669291337
 20
3.0767716535433074
 10
13.375196850393701
 20
3.0897637795275585
 10
13.415354330708661
 20
3.1027559055118115
 10
13.455511811023621
 20
3.1157480314960626
 10
13.495669291338583
 20
3.1287401574803155
 10
13.536220472440945
 20
3.1417322834645685
 10
13.576377952755905
 20
3.1547244094488196
 10
13.616535433070867
 20
3.1677165354330725
 10
13.657086614173227
 20
3.1807086614173237
 10
13.69724409448819
 20
3.193700787401575
 10
13.73740157480315
 20
3.2066929133858277
 10
13.77755905511811
 20
3.219685039370079
 10
13.818110236220473
 20
3.232677165354332
 10
13.858267716535433
 20
3.245669291338583
 10
13.898425196850393
 20
3.2590551181102363
 10
13.938976377952756
 20
3.272047244094489
 10
13.979133858267716
 20
3.2850393700787404
 10
14.019291338582676
 20
3.2980314960629933
 10
14.059448818897637
 20
3.3110236220472444
 10
14.1
 20
3.3240157480314974
 10
14.140157480314961
 20
3.3370078740157485
 10
14.180314960629921
 20
3.3500000000000014
 10
14.220866141732282
 20
3.3629921259842526
 10
14.261023622047245
 20
3.3759842519685037
 10
14.301181102362204
 20
3.3889763779527566
 10
14.341338582677164
 20
3.401968503937008
 10
14.381496062992127
 20
3.415354330708663
 10
14.420078740157479
 20
3.4287401574803162
 10
14.454724409448819
 20
3.4433070866141744
 10
14.485433070866142
 20
3.458661417322835
 10
14.51259842519685
 20
3.4751968503937025
 10
14.535826771653543
 20
3.491732283464568
 10
14.554724409448818
 20
3.5090551181102363
 10
14.569685039370079
 20
3.527165354330709
 10
14.57992125984252
 20
3.5452755905511815
 10
14.585433070866143
 20
3.563385826771654
 10
14.587007874015747
 20
3.581889763779527
 10
14.583858267716536
 20
3.600393700787402
 10
14.575984251968505
 20
3.6185039370078744
  0
LWPOLYLINE
  5
17E
330
17
100
AcDbEntity
  8
GEOMETRY
100
AcDbPolyline
 90
51
 70
0
 10
12.705905511811023
 20
3.4724409448818907
 10
12.76220472440945
 20
3.470078740157481
 10
12.819291338582678
 20
3.4688976377952763
 10
12.875984251968504
 20
3.4692913385826785
 10
12.932677165354331
 20
3.471259842519686
 10
12.988582677165356
 20
3.474409448818898
 10
13.043700787401574
 20
3.4791338582677174
 10
13.09724409448819
 20
3.485433070866142
 10
13.149606299212598
 20
3.492913385826773
 10
13.199606299212597
 20
3.501574803149607
 10
13.24724409448819
 20
3.511811023622048
 10
13.29251968503937
 20
3.522834645669292
 10
13.334645669291337
 20
3.5350393700787404
 10
13.375196850393701
 20
3.5480314960629933
 10
13.415354330708661
 20
3.5614173228346466
 10
13.455511811023621
 20
3.5744094488188978
 10
13.495669291338583
 20
3.5874015748031507
 10
13.536220472440945
 20
3.600393700787402
 10
13.576377952755905
 20
3.6133858267716548
 10
13.616535433070867
 20
3.626377952755906
 10
13.657086614173227
 20
3.639370078740159
 10
13.69724409448819
 20
3.65236220472441
 10
13.73740157480315
 20
3.665354330708661
 10
13.77755905511811
 20
3.678346456692914
 10
13.818110236220473
 20
3.691338582677165
 10
13.858267716535433
 20
3.704330708661418
 10
13.898425196850393
 20
3.7173228346456693
 10
13.938976377952756
 20
3.730314960629922
 10
13.979133858267716
 20
3.7437007874015755
 10
14.019291338582676
 20
3.7566929133858267
 10
14.059448818897637
 20
3.7696850393700796
 10
14.1
 20
3.7826771653543316
 10
14.140157480314961
 20
3.7956692913385828
 10
14.180314960629921
 20
3.8086614173228357
 10
14.220866141732282
 20
3.821653543307087
 10
14.261023622047245
 20
3.8346456692913398
 10
14.301181102362204
 20
3.847637795275591
 10
14.341338582677164
 20
3.860629921259843
 10
14.381496062992127
 20
3.873622047244095
 10
14.420078740157479
 20
3.8874015748031505
 10
14.454724409448819
 20
3.9019685039370087
 10
14.485433070866142
 20
3.9173228346456703
 10
14.51259842519685
 20
3.9334645669291346
 10
14.535826771653543
 20
3.9503937007874024
 10
14.554724409448818
 20
3.9677165354330715
 10
14.569685039370079
 20
3.985433070866142
 10
14.57992125984252
 20
4.003543307086614
 10
14.585433070866143
 20
4.022047244094488
 10
14.587007874015747
 20
4.040551181102363
 10
14.583858267716536
 20
4.058661417322836
 10
14.575984251968505
 20
4.07716535433071
  0
LWPOLYLINE
  5
17F
330
17
100
AcDbEntity
  8
GEOMETRY
100
AcDbPolyline
 90
51
 70
0
 10
12.705905511811023
 20
3.6259842519685037
 10
12.76220472440945
 20
3.623622047244094
 10
12.819291338582678
 20
3.6228346456692933
 10
12.875984251968504
 20
3.6232283464566937
 10
12.932677165354331
 20
3.624803149606299
 10
12.988582677165356
 20
3.6283464566929133
 10
13.043700787401574
 20
3.6330708661417326
 10
13.09724409448819
 20
3.6389763779527566
 10
13.149606299212598
 20
3.646456692913386
 10
13.199606299212597
 20
3.655511811023622
 10
13.24724409448819
 20
3.665354330708661
 10
13.29251968503937
 20
3.676771653543307
 10
13.334645669291337
 20
3.6889763779527556
 10
13.375196850393701
 20
3.7019685039370085
 10
13.415354330708661
 20
3.7149606299212614
 10
13.455511811023621
 20
3.7279527559055126
 10
13.495669291338583
 20
3.7409448818897646
 10
13.536220472440945
 20
3.7539370078740157
 10
13.576377952755905
 20
3.7669291338582687
 10
13.616535433070867
 20
3.77992125984252
 10
13.657086614173227
 20
3.793307086614174
 10
13.69724409448819
 20
3.806299212598426
 10
13.73740157480315
 20
3.819291338582677
 10
13.77755905511811
 20
3.83228346456693
 10
13.818110236220473
 20
3.8452755905511813
 10
13.858267716535433
 20
3.8582677165354333
 10
13.898425196850393
 20
3.8712598425196862
 10
13.938976377952756
 20
3.8842519685039374
 10
13.979133858267716
 20
3.8972440944881903
 10
14.019291338582676
 20
3.9102362204724415
 10
14.059448818897637
 20
3.9232283464566935
 10
14.1
 20
3.9362204724409455
 10
14.140157480314961
 20
3.9492125984251976
 10
14.180314960629921
 20
3.962598425196851
 10
14.220866141732282
 20
3.975590551181103
 10
14.261023622047245
 20
3.988582677165355
 10
14.301181102362204
 20
4.001574803149606
 10
14.341338582677164
 20
4.014566929133859
 10
14.381496062992127
 20
4.027559055118111
 10
14.420078740157479
 20
4.041338582677167
 10
14.454724409448819
 20
4.055905511811025
 10
14.485433070866142
 20
4.0712598425196855
 10
14.51259842519685
 20
4.08740157480315
 10
14.535826771653543
 20
4.104330708661418
 10
14.554724409448818
 20
4.1216535433070876
 10
14.569685039370079
 20
4.139370078740158
 10
14.57992125984252
 20
4.1574803149606305
 10
14.585433070866143
 20
4.175984251968504
 10
14.587007874015747
 20
4.194094488188977
 10
14.583858267716536
 20
4.212598425196851
 10
14.575984251968505
 20
4.2307086614173235
  0
LWPOLYLINE
  5
180
330
17
100
AcDbEntity
  8
GEOMETRY
100
AcDbPolyline
 90
51
 70
0
 10
12.705905511811023
 20
3.7003937007874024
 10
12.76220472440945
 20
3.6980314960629928
 10
12.819291338582678
 20
3.6972440944881892
 10
12.875984251968504
 20
3.6976377952755906
 10
12.932677165354331
 20
3.6992125984251976
 10
12.988582677165356
 20
3.702755905511812
 10
13.043700787401574
 20
3.7074803149606304
 10
13.09724409448819
 20
3.7133858267716535
 10
13.149606299212598
 20
3.7208661417322837
 10
13.199606299212597
 20
3.729921259842521
 10
13.24724409448819
 20
3.73976377952756
 10
13.29251968503937
 20
3.7511811023622057
 10
13.334645669291337
 20
3.7633858267716542
 10
13.375196850393701
 20
3.7763779527559054
 10
13.415354330708661
 20
3.7893700787401583
 10
13.455511811023621
 20
3.8023622047244103
 10
13.495669291338583
 20
3.8153543307086624
 10
13.536220472440945
 20
3.8283464566929144
 10
13.576377952755905
 20
3.8413385826771655
 10
13.616535433070867
 20
3.8543307086614185
 10
13.657086614173227
 20
3.867716535433072
 10
13.69724409448819
 20
3.880708661417323
 10
13.73740157480315
 20
3.893700787401576
 10
13.77755905511811
 20
3.906692913385827
 10
13.818110236220473
 20
3.919685039370079
 10
13.858267716535433
 20
3.932677165354331
 10
13.898425196850393
 20
3.945669291338583
 10
13.938976377952756
 20
3.958661417322836
 10
13.979133858267716
 20
3.971653543307087
 10
14.019291338582676
 20
3.9846456692913392
 10
14.059448818897637
 20
3.9976377952755913
 10
14.1
 20
4.010629921259843
 10
14.140157480314961
 20
4.0236220472440944
 10
14.180314960629921
 20
4.037007874015749
 10
14.220866141732282
 20
4.050000000000001
 10
14.261023622047245
 20
4.062992125984252
 10
14.301181102362204
 20
4.075984251968505
 10
14.341338582677164
 20
4.088976377952757
 10
14.381496062992127
 20
4.101968503937009
 10
14.420078740157479
 20
4.1157480314960635
 10
14.454724409448819
 20
4.130314960629922
 10
14.485433070866142
 20
4.145669291338584
 10
14.51259842519685
 20
4.1618110236220485
 10
14.535826771653543
 20
4.178740157480315
 10
14.554724409448818
 20
4.196062992125985
 10
14.569685039370079
 20
4.213779527559056
 10
14.57992125984252
 20
4.231889763779528
 10
14.585433070866143
 20
4.250393700787402
 10
14.587007874015747
 20
4.268503937007874
 10
14.583858267716536
 20
4.287007874015748
 10
14.575984251968505
 20
4.305118110236221
  0
LINE
  5
181
330
17
100
AcDbEntity
  8
GEOMETRY
100
AcDbLine
 10
12.705905511811023
 20
2.326771653543307
 30
0.0
 11
12.705905511811023
 21
3.700393700787402
 31
0.0
  0
LINE
  5
182
330
17
100
AcDbEntity
  8
GEOMETRY
100
AcDbLine
 10
12.868110236220474
 20
2.3236220472440947
 30
0.0
 11
12.868110236220474
 21
3.697244094488189
 31
0.0
  0
LINE
  5
183
330
17
100
AcDbEntity
  8
GEOMETRY
100
AcDbLine
 10
13.149606299212598
 20
2.3476377952755905
 30
0.0
 11
13.149606299212598
 21
3.7208661417322832
 31
0.0
  0
LINE
  5
184
330
17
100
AcDbEntity
  8
GEOMETRY
100
AcDbLine
 10
13.858267716535433
 20
2.559055118110236
 30
0.0
 11
13.858267716535433
 21
3.93267716535433
 31
0.0
  0
LINE
  5
185
330
17
100
AcDbEntity
  8
GEOMETRY
100
AcDbLine
 10
14.51259842519685
 20
2.7881889763779526
 30
0.0
 11
14.51259842519685
 21
4.161811023622048
 31
0.0
  0
LINE
  5
186
330
17
100
AcDbEntity
  8
GEOMETRY
100
AcDbLine
 10
14.586220472440946
 20
2.8791338582677164
 30
0.0
 11
14.586220472440946
 21
4.252755905511811
 31
0.0
  0
LINE
  5
187
330
17
100
AcDbEntity
  8
GEOMETRY
100
AcDbLine
 10
14.575984251968505
 20
2.9314960629921263
 30
0.0
 11
14.575984251968505
 21
4.30511811023622
 31
0.0
  0
TEXT
  5
188
330
17
100
AcDbEntity
  8
TEXT
100
AcDbText
 10
0.7874015748031495
 20
1.889763779527559
 30
0.0
 40
0.05669291338582677
  1
ALL GLASS. One composition across the whole wall — the border runs straight through the bay joints.
 11
0.7874015748031495
 21
1.889763779527559
 31
0.0
100
AcDbText
  0
TEXT
  5
189
330
17
100
AcDbEntity
  8
TEXT
100
AcDbText
 10
0.7874015748031495
 20
1.6535433070866141
 30
0.0
 40
0.048188976377952754
  1
Border: an outer rectangle 150 in from every edge and an inner one 420 in at the sides, 460 at head and foot,
 11
0.7874015748031495
 21
1.6535433070866141
 31
0.0
100
AcDbText
  0
TEXT
  5
18A
330
17
100
AcDbEntity
  8
TEXT
100
AcDbText
 10
0.7874015748031495
 20
1.4566929133858268
 30
0.0
 40
0.048188976377952754
  1
joined by a short bar at the middle of each side, with a cross at each corner of the inner rectangle.
 11
0.7874015748031495
 21
1.4566929133858268
 31
0.0
100
AcDbText
  0
TEXT
  5
18B
330
17
100
AcDbEntity
  8
TEXT
100
AcDbText
 10
0.7874015748031495
 20
1.2598425196850394
 30
0.0
 40
0.048188976377952754
  1
All the leading is in the ring between them. The field inside the inner rectangle is one clear sheet.
 11
0.7874015748031495
 21
1.2598425196850394
 31
0.0
100
AcDbText
  0
TEXT
  5
18C
330
17
100
AcDbEntity
  8
TEXT
100
AcDbText
 10
0.7874015748031495
 20
0.984251968503937
 30
0.0
 40
0.048188976377952754
  1
White textured glass in lead came. No colour. The television is shown for position only — how it is carried is not drawn.
 11
0.7874015748031495
 21
0.984251968503937
 31
0.0
100
AcDbText
  0
LWPOLYLINE
  5
18D
330
17
100
AcDbEntity
  8
GEOMETRY
100
AcDbPolyline
 90
5
 70
0
 10
11.811023622047244
 20
2.283464566929135
 10
16.22047244094488
 20
2.283464566929135
 10
16.22047244094488
 20
0.31496062992126106
 10
11.811023622047244
 20
0.31496062992126106
 10
11.811023622047244
 20
2.283464566929135
  0
LINE
  5
18E
330
17
100
AcDbEntity
  8
GEOMETRY
100
AcDbLine
 10
11.811023622047244
 20
1.7322834645669292
 30
0.0
 11
16.22047244094488
 21
1.7322834645669292
 31
0.0
  0
LINE
  5
18F
330
17
100
AcDbEntity
  8
GEOMETRY
100
AcDbLine
 10
11.811023622047244
 20
1.1023622047244095
 30
0.0
 11
16.22047244094488
 21
1.1023622047244095
 31
0.0
  0
LINE
  5
190
330
17
100
AcDbEntity
  8
GEOMETRY
100
AcDbLine
 10
11.811023622047244
 20
0.7086614173228346
 30
0.0
 11
16.22047244094488
 21
0.7086614173228346
 31
0.0
  0
LINE
  5
191
330
17
100
AcDbEntity
  8
GEOMETRY
100
AcDbLine
 10
14.015748031496063
 20
1.1023622047244095
 30
0.0
 11
14.015748031496063
 21
0.31496062992125984
 31
0.0
  0
TEXT
  5
192
330
17
100
AcDbEntity
  8
TEXT
100
AcDbText
 10
11.929133858267717
 20
2.02755905511811
 30
0.0
 40
0.09637795275590551
  1
A STUDY IN TEAK
 11
11.929133858267717
 21
2.02755905511811
 31
0.0
100
AcDbText
  0
TEXT
  5
193
330
17
100
AcDbEntity
  8
TEXT
100
AcDbText
 10
11.929133858267717
 20
1.8503937007874016
 30
0.0
 40
0.05385826771653543
  1
Particulars of the room
 11
11.929133858267717
 21
1.8503937007874016
 31
0.0
100
AcDbText
  0
TEXT
  5
194
330
17
100
AcDbEntity
  8
TEXT
100
AcDbText
 10
11.929133858267717
 20
1.4763779527559056
 30
0.0
 40
0.09637795275590551
  1
PARTITION — LEADED GLASS
 11
11.929133858267717
 21
1.4763779527559056
 31
0.0
100
AcDbText
  0
TEXT
  5
195
330
17
100
AcDbEntity
  8
TEXT
100
AcDbText
 10
11.929133858267717
 20
1.2598425196850394
 30
0.0
 40
0.05669291338582677
  1
Plan · Elevation · With the television · Curve · Axonometric
 11
11.929133858267717
 21
1.2598425196850394
 31
0.0
100
AcDbText
  0
TEXT
  5
196
330
17
100
AcDbEntity
  8
TEXT
100
AcDbText
 10
11.929133858267717
 20
0.9448818897637795
 30
0.0
 40
0.04251968503937008
  1
SCALE
 11
11.929133858267717
 21
0.9448818897637795
 31
0.0
100
AcDbText
  0
TEXT
  5
197
330
17
100
AcDbEntity
  8
TEXT
100
AcDbText
 10
11.929133858267717
 20
0.7874015748031495
 30
0.0
 40
0.05952755905511811
  1
AS NOTED @ A3
 11
11.929133858267717
 21
0.7874015748031495
 31
0.0
100
AcDbText
  0
TEXT
  5
198
330
17
100
AcDbEntity
  8
TEXT
100
AcDbText
 10
14.133858267716535
 20
0.9448818897637795
 30
0.0
 40
0.04251968503937008
  1
DATE
 11
14.133858267716535
 21
0.9448818897637795
 31
0.0
100
AcDbText
  0
TEXT
  5
199
330
17
100
AcDbEntity
  8
TEXT
100
AcDbText
 10
14.133858267716535
 20
0.7874015748031495
 30
0.0
 40
0.05952755905511811
  1
18.09.2026
 11
14.133858267716535
 21
0.7874015748031495
 31
0.0
100
AcDbText
  0
TEXT
  5
19A
330
17
100
AcDbEntity
  8
TEXT
100
AcDbText
 10
11.929133858267717
 20
0.5511811023622047
 30
0.0
 40
0.04251968503937008
  1
REV
 11
11.929133858267717
 21
0.5511811023622047
 31
0.0
100
AcDbText
  0
TEXT
  5
19B
330
17
100
AcDbEntity
  8
TEXT
100
AcDbText
 10
11.929133858267717
 20
0.39370078740157477
 30
0.0
 40
0.051023622047244095
  1
2 — the border only; the field inside stays clear
 11
11.929133858267717
 21
0.39370078740157477
 31
0.0
100
AcDbText
  0
TEXT
  5
19C
330
17
100
AcDbEntity
  8
TEXT
100
AcDbText
 10
14.133858267716535
 20
0.5511811023622047
 30
0.0
 40
0.04251968503937008
  1
DWG
 11
14.133858267716535
 21
0.5511811023622047
 31
0.0
100
AcDbText
  0
TEXT
  5
19D
330
17
100
AcDbEntity
  8
TEXT
100
AcDbText
 10
14.133858267716535
 20
0.39370078740157477
 30
0.0
 40
0.05952755905511811
  1
AST-DR-010
 11
14.133858267716535
 21
0.39370078740157477
 31
0.0
100
AcDbText
  0
ENDSEC
  0
SECTION
  2
OBJECTS
  0
DICTIONARY
  5
A
330
0
100
AcDbDictionary
281
1
  3
ACAD_COLOR
350
B
  3
ACAD_GROUP
350
C
  3
ACAD_LAYOUT
350
D
  3
ACAD_MATERIAL
350
E
  3
ACAD_MLEADERSTYLE
350
F
  3
ACAD_MLINESTYLE
350
10
  3
ACAD_PLOTSETTINGS
350
11
  3
ACAD_PLOTSTYLENAME
350
12
  3
ACAD_SCALELIST
350
14
  3
ACAD_TABLESTYLE
350
15
  3
ACAD_VISUALSTYLE
350
16
  3
EZDXF_META
350
2D
  0
DICTIONARY
  5
B
330
A
100
AcDbDictionary
281
1
  0
DICTIONARY
  5
C
330
A
100
AcDbDictionary
281
1
  0
DICTIONARY
  5
D
330
A
100
AcDbDictionary
281
1
  3
Model
350
1A
  3
Layout1
350
1E
  0
DICTIONARY
  5
E
330
A
100
AcDbDictionary
281
1
  3
ByBlock
350
1F
  3
ByLayer
350
20
  3
Global
350
21
  0
DICTIONARY
  5
F
330
A
100
AcDbDictionary
281
1
  3
Standard
350
2C
  0
DICTIONARY
  5
10
330
A
100
AcDbDictionary
281
1
  3
Standard
350
22
  0
DICTIONARY
  5
11
330
A
100
AcDbDictionary
281
1
  0
ACDBDICTIONARYWDFLT
  5
12
330
A
100
AcDbDictionary
281
1
  3
Normal
350
13
100
AcDbDictionaryWithDefault
340
13
  0
ACDBPLACEHOLDER
  5
13
330
12
  0
DICTIONARY
  5
14
330
A
100
AcDbDictionary
281
1
  0
DICTIONARY
  5
15
330
A
100
AcDbDictionary
281
1
  0
DICTIONARY
  5
16
330
A
100
AcDbDictionary
281
1
  3
2dWireframe
350
5A
  3
Basic
350
5B
  3
Brighten
350
5C
  3
ColorChange
350
5D
  3
Conceptual
350
5E
  3
Dim
350
5F
  3
EdgeColorOff
350
60
  3
Facepattern
350
61
  3
Flat
350
62
  3
FlatWithEdges
350
63
  3
Gouraud
350
64
  3
GouraudWithEdges
350
65
  3
Hidden
350
66
  3
JitterOff
350
67
  3
Linepattern
350
68
  3
Modeling
350
69
  3
OverhangOff
350
6A
  3
Realistic
350
6B
  3
Shaded
350
6C
  3
Shaded with edges
350
6D
  3
Shades of Gray
350
6E
  3
Sketchy
350
6F
  3
Thicken
350
70
  3
Wireframe
350
71
  3
X-Ray
350
72
  0
LAYOUT
  5
1A
330
D
100
AcDbPlotSettings
  1

  4
A3
  6

 40
7.5
 41
20.0
 42
7.5
 43
20.0
 44
420.0
 45
297.0
 46
0.0
 47
0.0
 48
0.0
 49
0.0
140
0.0
141
0.0
142
1.0
143
1.0
 70
1024
 72
1
 73
0
 74
5
  7

 75
16
 76
0
 77
2
 78
300
147
1.0
148
0.0
149
0.0
100
AcDbLayout
  1
Model
 70
1
 71
0
 10
0.0
 20
0.0
 11
420.0
 21
297.0
 12
0.0
 22
0.0
 32
0.0
 14
1e+20
 24
1e+20
 34
1e+20
 15
-1e+20
 25
-1e+20
 35
-1e+20
146
0.0
 13
0.0
 23
0.0
 33
0.0
 16
1.0
 26
0.0
 36
0.0
 17
0.0
 27
1.0
 37
0.0
 76
1
330
17
  0
LAYOUT
  5
1E
330
D
100
AcDbPlotSettings
  1

  4
A3
  6

 40
7.5
 41
20.0
 42
7.5
 43
20.0
 44
420.0
 45
297.0
 46
0.0
 47
0.0
 48
0.0
 49
0.0
140
0.0
141
0.0
142
1.0
143
1.0
 70
0
 72
1
 73
0
 74
5
  7

 75
16
 76
0
 77
2
 78
300
147
1.0
148
0.0
149
0.0
100
AcDbLayout
  1
Layout1
 70
1
 71
1
 10
0.0
 20
0.0
 11
420.0
 21
297.0
 12
0.0
 22
0.0
 32
0.0
 14
1e+20
 24
1e+20
 34
1e+20
 15
-1e+20
 25
-1e+20
 35
-1e+20
146
0.0
 13
0.0
 23
0.0
 33
0.0
 16
1.0
 26
0.0
 36
0.0
 17
0.0
 27
1.0
 37
0.0
 76
1
330
1B
  0
MATERIAL
  5
1F
102
{ACAD_REACTORS
330
E
102
}
330
E
100
AcDbMaterial
  1
ByBlock
  2

 70
0
 40
1.0
 71
1
 41
1.0
 91
-1023410177
 42
1.0
 72
1
  3

 73
1
 74
1
 75
1
 44
0.5
 73
0
 45
1.0
 46
1.0
 77
1
  4

 78
1
 79
1
170
1
 48
1.0
171
1
  6

172
1
173
1
174
1
140
1.0
141
1.0
175
1
  7

176
1
177
1
178
1
143
1.0
179
1
  8

270
1
271
1
272
1
145
1.0
146
1.0
273
1
  9

274
1
275
1
276
1
 42
1.0
 72
1
  3

 73
1
 74
1
 75
1
 94
63
  0
MATERIAL
  5
20
102
{ACAD_REACTORS
330
E
102
}
330
E
100
AcDbMaterial
  1
ByLayer
  2

 70
0
 40
1.0
 71
1
 41
1.0
 91
-1023410177
 42
1.0
 72
1
  3

 73
1
 74
1
 75
1
 44
0.5
 73
0
 45
1.0
 46
1.0
 77
1
  4

 78
1
 79
1
170
1
 48
1.0
171
1
  6

172
1
173
1
174
1
140
1.0
141
1.0
175
1
  7

176
1
177
1
178
1
143
1.0
179
1
  8

270
1
271
1
272
1
145
1.0
146
1.0
273
1
  9

274
1
275
1
276
1
 42
1.0
 72
1
  3

 73
1
 74
1
 75
1
 94
63
  0
MATERIAL
  5
21
102
{ACAD_REACTORS
330
E
102
}
330
E
100
AcDbMaterial
  1
Global
  2

 70
0
 40
1.0
 71
1
 41
1.0
 91
-1023410177
 42
1.0
 72
1
  3

 73
1
 74
1
 75
1
 44
0.5
 73
0
 45
1.0
 46
1.0
 77
1
  4

 78
1
 79
1
170
1
 48
1.0
171
1
  6

172
1
173
1
174
1
140
1.0
141
1.0
175
1
  7

176
1
177
1
178
1
143
1.0
179
1
  8

270
1
271
1
272
1
145
1.0
146
1.0
273
1
  9

274
1
275
1
276
1
 42
1.0
 72
1
  3

 73
1
 74
1
 75
1
 94
63
  0
MLINESTYLE
  5
22
102
{ACAD_REACTORS
330
10
102
}
330
10
100
AcDbMlineStyle
  2
Standard
 70
0
  3

 62
256
 51
90.0
 52
90.0
 71
2
 49
0.5
 62
256
  6
BYLAYER
 49
-0.5
 62
256
  6
BYLAYER
  0
MLEADERSTYLE
  5
2C
102
{ACAD_REACTORS
330
F
102
}
330
F
100
AcDbMLeaderStyle
179
2
170
2
171
1
172
0
 90
2
 40
0.0
 41
0.0
173
1
 91
-1056964608
 92
-2
290
1
 42
2.0
291
1
 43
8.0
  3
Standard
 44
4.0
300

342
29
174
1
175
1
176
0
178
1
 93
-1056964608
 45
4.0
292
0
297
0
 46
4.0
 94
-1056964608
 47
1.0
 49
1.0
140
1.0
294
1
141
0.0
177
0
142
1.0
295
0
296
0
143
3.75
271
0
272
9
273
9
  0
DICTIONARY
  5
2D
330
A
100
AcDbDictionary
280
1
281
1
  3
CREATED_BY_EZDXF
350
2E
  3
WRITTEN_BY_EZDXF
350
1A0
  0
DICTIONARYVAR
  5
2E
330
2D
100
DictionaryVariables
280
0
  1
1.4.2 @ 2026-09-23T06:43:05.732311+00:00
  0
VISUALSTYLE
  5
5A
102
{ACAD_REACTORS
330
16
102
}
330
16
100
AcDbVisualStyle
  2
2dWireframe
 70
4
 90
0
 40
0.6
 62
7
290
0
291
0
  0
VISUALSTYLE
  5
5B
102
{ACAD_REACTORS
330
16
102
}
330
16
100
AcDbVisualStyle
  2
Basic
 70
7
 90
1
 40
0.6
 62
7
290
0
291
1
  0
VISUALSTYLE
  5
5C
102
{ACAD_REACTORS
330
16
102
}
330
16
100
AcDbVisualStyle
  2
Brighten
 70
12
 90
2
 40
0.6
 62
7
290
0
291
1
  0
VISUALSTYLE
  5
5D
102
{ACAD_REACTORS
330
16
102
}
330
16
100
AcDbVisualStyle
  2
ColorChange
 70
16
 90
2
 40
0.6
 62
8
290
0
291
1
  0
VISUALSTYLE
  5
5E
102
{ACAD_REACTORS
330
16
102
}
330
16
100
AcDbVisualStyle
  2
Conceptual
 70
9
 90
3
 40
0.6
 62
7
290
0
291
0
  0
VISUALSTYLE
  5
5F
102
{ACAD_REACTORS
330
16
102
}
330
16
100
AcDbVisualStyle
  2
Dim
 70
11
 90
2
 40
0.6
 62
7
290
0
291
1
  0
VISUALSTYLE
  5
60
102
{ACAD_REACTORS
330
16
102
}
330
16
100
AcDbVisualStyle
  2
EdgeColorOff
 70
22
 90
2
 40
0.6
 62
7
290
0
291
1
  0
VISUALSTYLE
  5
61
102
{ACAD_REACTORS
330
16
102
}
330
16
100
AcDbVisualStyle
  2
Facepattern
 70
15
 90
2
 40
0.6
 62
7
290
0
291
1
  0
VISUALSTYLE
  5
62
102
{ACAD_REACTORS
330
16
102
}
330
16
100
AcDbVisualStyle
  2
Flat
 70
0
 90
2
 40
0.6
 62
7
290
0
291
1
  0
VISUALSTYLE
  5
63
102
{ACAD_REACTORS
330
16
102
}
330
16
100
AcDbVisualStyle
  2
FlatWithEdges
 70
1
 90
2
 40
0.6
 62
7
290
0
291
1
  0
VISUALSTYLE
  5
64
102
{ACAD_REACTORS
330
16
102
}
330
16
100
AcDbVisualStyle
  2
Gouraud
 70
2
 90
2
 40
0.6
 62
7
290
0
291
1
  0
VISUALSTYLE
  5
65
102
{ACAD_REACTORS
330
16
102
}
330
16
100
AcDbVisualStyle
  2
GouraudWithEdges
 70
3
 90
2
 40
0.6
 62
7
290
0
291
1
  0
VISUALSTYLE
  5
66
102
{ACAD_REACTORS
330
16
102
}
330
16
100
AcDbVisualStyle
  2
Hidden
 70
6
 90
1
 40
0.6
 62
7
290
0
291
0
  0
VISUALSTYLE
  5
67
102
{ACAD_REACTORS
330
16
102
}
330
16
100
AcDbVisualStyle
  2
JitterOff
 70
20
 90
2
 40
0.6
 62
7
290
0
291
1
  0
VISUALSTYLE
  5
68
102
{ACAD_REACTORS
330
16
102
}
330
16
100
AcDbVisualStyle
  2
Linepattern
 70
14
 90
2
 40
0.6
 62
7
290
0
291
1
  0
VISUALSTYLE
  5
69
102
{ACAD_REACTORS
330
16
102
}
330
16
100
AcDbVisualStyle
  2
Modeling
 70
10
 90
2
 40
0.6
 62
7
290
0
291
0
  0
VISUALSTYLE
  5
6A
102
{ACAD_REACTORS
330
16
102
}
330
16
100
AcDbVisualStyle
  2
OverhangOff
 70
21
 90
2
 40
0.6
 62
7
290
0
291
1
  0
VISUALSTYLE
  5
6B
102
{ACAD_REACTORS
330
16
102
}
330
16
100
AcDbVisualStyle
  2
Realistic
 70
8
 90
2
 40
0.6
 62
7
290
0
291
0
  0
VISUALSTYLE
  5
6C
102
{ACAD_REACTORS
330
16
102
}
330
16
100
AcDbVisualStyle
  2
Shaded
 70
27
 90
2
 40
0.6
 62
7
290
0
291
0
  0
VISUALSTYLE
  5
6D
102
{ACAD_REACTORS
330
16
102
}
330
16
100
AcDbVisualStyle
  2
Shaded with edges
 70
26
 90
2
 40
0.6
 62
7
290
0
291
0
  0
VISUALSTYLE
  5
6E
102
{ACAD_REACTORS
330
16
102
}
330
16
100
AcDbVisualStyle
  2
Shades of Gray
 70
23
 90
2
 40
0.6
 62
7
290
0
291
0
  0
VISUALSTYLE
  5
6F
102
{ACAD_REACTORS
330
16
102
}
330
16
100
AcDbVisualStyle
  2
Sketchy
 70
24
 90
1
 40
0.6
 62
7
290
0
291
0
  0
VISUALSTYLE
  5
70
102
{ACAD_REACTORS
330
16
102
}
330
16
100
AcDbVisualStyle
  2
Thicken
 70
13
 90
2
 40
0.6
 62
7
290
0
291
1
  0
VISUALSTYLE
  5
71
102
{ACAD_REACTORS
330
16
102
}
330
16
100
AcDbVisualStyle
  2
Wireframe
 70
5
 90
0
 40
0.6
 62
7
290
0
291
0
  0
VISUALSTYLE
  5
72
102
{ACAD_REACTORS
330
16
102
}
330
16
100
AcDbVisualStyle
  2
X-Ray
 70
25
 90
2
 40
0.5
 62
7
290
0
291
0
  0
DICTIONARYVAR
  5
1A0
330
2D
100
DictionaryVariables
280
0
  1
1.4.2 @ 2026-09-23T06:43:05.757776+00:00
  0
ENDSEC
  0
EOF
