  0
SECTION
  2
HEADER
  9
$ACADVER
  1
AC1024
  9
$ACADMAINTVER
 70
6
  9
$DWGCODEPAGE
  3
ANSI_1252
  9
$LASTSAVEDBY
  1
ezdxf
  9
$INSBASE
 10
0.0
 20
0.0
 30
0.0
  9
$EXTMIN
 10
1e+20
 20
1e+20
 30
1e+20
  9
$EXTMAX
 10
-1e+20
 20
-1e+20
 30
-1e+20
  9
$LIMMIN
 10
0.0
 20
0.0
  9
$LIMMAX
 10
420.0
 20
297.0
  9
$ORTHOMODE
 70
0
  9
$REGENMODE
 70
1
  9
$FILLMODE
 70
1
  9
$QTEXTMODE
 70
0
  9
$MIRRTEXT
 70
1
  9
$LTSCALE
 40
0.25
  9
$ATTMODE
 70
1
  9
$TEXTSIZE
 40
2.5
  9
$TRACEWID
 40
1.0
  9
$TEXTSTYLE
  7
OpenSans
  9
$CLAYER
  8
0
  9
$CELTYPE
  6
ByLayer
  9
$CECOLOR
 62
256
  9
$CELTSCALE
 40
1.0
  9
$DISPSILH
 70
0
  9
$DIMSCALE
 40
1.0
  9
$DIMASZ
 40
0.175
  9
$DIMEXO
 40
0.125
  9
$DIMDLI
 40
3.75
  9
$DIMRND
 40
0.0
  9
$DIMDLE
 40
0.0
  9
$DIMEXE
 40
0.375
  9
$DIMTP
 40
0.0
  9
$DIMTM
 40
0.0
  9
$DIMTXT
 40
0.25
  9
$DIMCEN
 40
2.5
  9
$DIMTSZ
 40
0.0
  9
$DIMTOL
 70
0
  9
$DIMLIM
 70
0
  9
$DIMTIH
 70
0
  9
$DIMTOH
 70
0
  9
$DIMSE1
 70
0
  9
$DIMSE2
 70
0
  9
$DIMTAD
 70
1
  9
$DIMZIN
 70
12
  9
$DIMBLK
  1
ARCHTICK
  9
$DIMASO
 70
1
  9
$DIMSHO
 70
1
  9
$DIMPOST
  1

  9
$DIMAPOST
  1

  9
$DIMALT
 70
0
  9
$DIMALTD
 70
3
  9
$DIMALTF
 40
0.03937007874
  9
$DIMLFAC
 40
100.0
  9
$DIMTOFL
 70
1
  9
$DIMTVP
 40
0.0
  9
$DIMTIX
 70
0
  9
$DIMSOXD
 70
0
  9
$DIMSAH
 70
0
  9
$DIMBLK1
  1

  9
$DIMBLK2
  1

  9
$DIMSTYLE
  2
EZDXF
  9
$DIMCLRD
 70
0
  9
$DIMCLRE
 70
0
  9
$DIMCLRT
 70
0
  9
$DIMTFAC
 40
0.5
  9
$DIMGAP
 40
0.1
  9
$DIMJUST
 70
0
  9
$DIMSD1
 70
0
  9
$DIMSD2
 70
0
  9
$DIMTOLJ
 70
0
  9
$DIMTZIN
 70
8
  9
$DIMALTZ
 70
0
  9
$DIMALTTZ
 70
0
  9
$DIMUPT
 70
1
  9
$DIMDEC
 70
2
  9
$DIMTDEC
 70
2
  9
$DIMALTU
 70
2
  9
$DIMALTTD
 70
3
  9
$DIMTXSTY
  7
OpenSansCondensed-Light
  9
$DIMAUNIT
 70
0
  9
$DIMADEC
 70
2
  9
$DIMALTRND
 40
0.0
  9
$DIMAZIN
 70
3
  9
$DIMDSEP
 70
46
  9
$DIMATFIT
 70
3
  9
$DIMFRAC
 70
0
  9
$DIMLDRBLK
  1

  9
$DIMLUNIT
 70
2
  9
$DIMLWD
 70
-2
  9
$DIMLWE
 70
-2
  9
$DIMTMOVE
 70
2
  9
$DIMFXL
 40
1.0
  9
$DIMFXLON
 70
0
  9
$DIMJOGANG
 40
0.785398163397
  9
$DIMTFILL
 70
0
  9
$DIMTFILLCLR
 70
0
  9
$DIMARCSYM
 70
0
  9
$DIMLTYPE
  6

  9
$DIMLTEX1
  6

  9
$DIMLTEX2
  6

  9
$DIMTXTDIRECTION
 70
0
  9
$LUNITS
 70
2
  9
$LUPREC
 70
4
  9
$SKETCHINC
 40
1.0
  9
$FILLETRAD
 40
10.0
  9
$AUNITS
 70
0
  9
$AUPREC
 70
2
  9
$MENU
  1
.
  9
$ELEVATION
 40
0.0
  9
$PELEVATION
 40
0.0
  9
$THICKNESS
 40
0.0
  9
$LIMCHECK
 70
0
  9
$CHAMFERA
 40
0.0
  9
$CHAMFERB
 40
0.0
  9
$CHAMFERC
 40
0.0
  9
$CHAMFERD
 40
0.0
  9
$SKPOLY
 70
0
  9
$TDCREATE
 40
2461302.6178587964
  9
$TDUCREATE
 40
2458532.153996898
  9
$TDUPDATE
 40
2461302.6178587964
  9
$TDUUPDATE
 40
2458532.1544311
  9
$TDINDWG
 40
0.0
  9
$TDUSRTIMER
 40
0.0
  9
$USRTIMER
 70
1
  9
$ANGBASE
 50
0.0
  9
$ANGDIR
 70
0
  9
$PDMODE
 70
0
  9
$PDSIZE
 40
0.0
  9
$PLINEWID
 40
0.0
  9
$SPLFRAME
 70
0
  9
$SPLINETYPE
 70
6
  9
$SPLINESEGS
 70
8
  9
$HANDSEED
  5
2EB
  9
$SURFTAB1
 70
6
  9
$SURFTAB2
 70
6
  9
$SURFTYPE
 70
6
  9
$SURFU
 70
6
  9
$SURFV
 70
6
  9
$UCSBASE
  2

  9
$UCSNAME
  2

  9
$UCSORG
 10
0.0
 20
0.0
 30
0.0
  9
$UCSXDIR
 10
1.0
 20
0.0
 30
0.0
  9
$UCSYDIR
 10
0.0
 20
1.0
 30
0.0
  9
$UCSORTHOREF
  2

  9
$UCSORTHOVIEW
 70
0
  9
$UCSORGTOP
 10
0.0
 20
0.0
 30
0.0
  9
$UCSORGBOTTOM
 10
0.0
 20
0.0
 30
0.0
  9
$UCSORGLEFT
 10
0.0
 20
0.0
 30
0.0
  9
$UCSORGRIGHT
 10
0.0
 20
0.0
 30
0.0
  9
$UCSORGFRONT
 10
0.0
 20
0.0
 30
0.0
  9
$UCSORGBACK
 10
0.0
 20
0.0
 30
0.0
  9
$PUCSBASE
  2

  9
$PUCSNAME
  2

  9
$PUCSORG
 10
0.0
 20
0.0
 30
0.0
  9
$PUCSXDIR
 10
1.0
 20
0.0
 30
0.0
  9
$PUCSYDIR
 10
0.0
 20
1.0
 30
0.0
  9
$PUCSORTHOREF
  2

  9
$PUCSORTHOVIEW
 70
0
  9
$PUCSORGTOP
 10
0.0
 20
0.0
 30
0.0
  9
$PUCSORGBOTTOM
 10
0.0
 20
0.0
 30
0.0
  9
$PUCSORGLEFT
 10
0.0
 20
0.0
 30
0.0
  9
$PUCSORGRIGHT
 10
0.0
 20
0.0
 30
0.0
  9
$PUCSORGFRONT
 10
0.0
 20
0.0
 30
0.0
  9
$PUCSORGBACK
 10
0.0
 20
0.0
 30
0.0
  9
$USERI1
 70
0
  9
$USERI2
 70
0
  9
$USERI3
 70
0
  9
$USERI4
 70
0
  9
$USERI5
 70
0
  9
$USERR1
 40
0.0
  9
$USERR2
 40
0.0
  9
$USERR3
 40
0.0
  9
$USERR4
 40
0.0
  9
$USERR5
 40
0.0
  9
$WORLDVIEW
 70
1
  9
$SHADEDGE
 70
3
  9
$SHADEDIF
 70
70
  9
$TILEMODE
 70
1
  9
$MAXACTVP
 70
64
  9
$PINSBASE
 10
0.0
 20
0.0
 30
0.0
  9
$PLIMCHECK
 70
0
  9
$PEXTMIN
 10
1e+20
 20
1e+20
 30
1e+20
  9
$PEXTMAX
 10
-1e+20
 20
-1e+20
 30
-1e+20
  9
$PLIMMIN
 10
0.0
 20
0.0
  9
$PLIMMAX
 10
420.0
 20
297.0
  9
$UNITMODE
 70
0
  9
$VISRETAIN
 70
1
  9
$PLINEGEN
 70
0
  9
$PSLTSCALE
 70
1
  9
$TREEDEPTH
 70
3020
  9
$CMLSTYLE
  2
Standard
  9
$CMLJUST
 70
0
  9
$CMLSCALE
 40
20.0
  9
$PROXYGRAPHICS
 70
1
  9
$MEASUREMENT
 70
1
  9
$CELWEIGHT
370
-1
  9
$ENDCAPS
280
0
  9
$JOINSTYLE
280
0
  9
$LWDISPLAY
290
0
  9
$INSUNITS
 70
4
  9
$HYPERLINKBASE
  1

  9
$STYLESHEET
  1

  9
$XEDIT
290
1
  9
$CEPSNTYPE
380
0
  9
$PSTYLEMODE
290
1
  9
$FINGERPRINTGUID
  2
{05B6C5A8-454A-4DE6-9003-6F97BA9CCEBB}
  9
$VERSIONGUID
  2
{92E19BCC-03E4-48CC-BE2A-886CE679AA0A}
  9
$EXTNAMES
290
1
  9
$PSVPSCALE
 40
0.0
  9
$OLESTARTUP
290
0
  9
$SORTENTS
280
127
  9
$INDEXCTL
280
0
  9
$HIDETEXT
280
1
  9
$XCLIPFRAME
280
1
  9
$HALOGAP
280
0
  9
$OBSCOLOR
 70
257
  9
$OBSLTYPE
280
0
  9
$INTERSECTIONDISPLAY
280
0
  9
$INTERSECTIONCOLOR
 70
257
  9
$DIMASSOC
280
2
  9
$PROJECTNAME
  1

  9
$CAMERADISPLAY
290
0
  9
$LENSLENGTH
 40
50.0
  9
$CAMERAHEIGHT
 40
0.0
  9
$STEPSPERSEC
 40
24.0
  9
$STEPSIZE
 40
100.0
  9
$3DDWFPREC
 40
2.0
  9
$PSOLWIDTH
 40
0.005
  9
$PSOLHEIGHT
 40
0.08
  9
$LOFTANG1
 40
1.570796326795
  9
$LOFTANG2
 40
1.570796326795
  9
$LOFTMAG1
 40
0.0
  9
$LOFTMAG2
 40
0.0
  9
$LOFTPARAM
 70
7
  9
$LOFTNORMALS
280
1
  9
$LATITUDE
 40
37.795
  9
$LONGITUDE
 40
-122.394
  9
$NORTHDIRECTION
 40
0.0
  9
$TIMEZONE
 70
-8000
  9
$LIGHTGLYPHDISPLAY
280
1
  9
$TILEMODELIGHTSYNCH
280
1
  9
$CMATERIAL
347
20
  9
$SOLIDHIST
280
0
  9
$SHOWHIST
280
1
  9
$DWFFRAME
280
2
  9
$DGNFRAME
280
2
  9
$REALWORLDSCALE
290
1
  9
$INTERFERECOLOR
 62
256
  9
$CSHADOW
280
0
  9
$SHADOWPLANELOCATION
 40
0.0
  0
ENDSEC
  0
SECTION
  2
CLASSES
  0
CLASS
  1
ACDBDICTIONARYWDFLT
  2
AcDbDictionaryWithDefault
  3
ObjectDBX Classes
 90
0
 91
0
280
0
281
0
  0
CLASS
  1
SUN
  2
AcDbSun
  3
SCENEOE
 90
1153
 91
0
280
0
281
0
  0
CLASS
  1
VISUALSTYLE
  2
AcDbVisualStyle
  3
ObjectDBX Classes
 90
4095
 91
0
280
0
281
0
  0
CLASS
  1
MATERIAL
  2
AcDbMaterial
  3
ObjectDBX Classes
 90
1153
 91
0
280
0
281
0
  0
CLASS
  1
SCALE
  2
AcDbScale
  3
ObjectDBX Classes
 90
1153
 91
0
280
0
281
0
  0
CLASS
  1
TABLESTYLE
  2
AcDbTableStyle
  3
ObjectDBX Classes
 90
4095
 91
0
280
0
281
0
  0
CLASS
  1
MLEADERSTYLE
  2
AcDbMLeaderStyle
  3
ACDB_MLEADERSTYLE_CLASS
 90
4095
 91
0
280
0
281
0
  0
CLASS
  1
DICTIONARYVAR
  2
AcDbDictionaryVar
  3
ObjectDBX Classes
 90
0
 91
0
280
0
281
0
  0
CLASS
  1
CELLSTYLEMAP
  2
AcDbCellStyleMap
  3
ObjectDBX Classes
 90
1152
 91
0
280
0
281
0
  0
CLASS
  1
MENTALRAYRENDERSETTINGS
  2
AcDbMentalRayRenderSettings
  3
SCENEOE
 90
1024
 91
0
280
0
281
0
  0
CLASS
  1
ACDBDETAILVIEWSTYLE
  2
AcDbDetailViewStyle
  3
ObjectDBX Classes
 90
1025
 91
0
280
0
281
0
  0
CLASS
  1
ACDBSECTIONVIEWSTYLE
  2
AcDbSectionViewStyle
  3
ObjectDBX Classes
 90
1025
 91
0
280
0
281
0
  0
CLASS
  1
RASTERVARIABLES
  2
AcDbRasterVariables
  3
ISM
 90
0
 91
0
280
0
281
0
  0
CLASS
  1
ACDBPLACEHOLDER
  2
AcDbPlaceHolder
  3
ObjectDBX Classes
 90
0
 91
0
280
0
281
0
  0
CLASS
  1
LAYOUT
  2
AcDbLayout
  3
ObjectDBX Classes
 90
0
 91
0
280
0
281
0
  0
ENDSEC
  0
SECTION
  2
TABLES
  0
TABLE
  2
VPORT
  5
8
330
0
100
AcDbSymbolTable
 70
1
  0
VPORT
  5
23
330
8
100
AcDbSymbolTableRecord
100
AcDbViewportTableRecord
  2
*Active
 70
0
 10
0.0
 20
0.0
 11
1.0
 21
1.0
 12
0.0
 22
0.0
 13
0.0
 23
0.0
 14
0.5
 24
0.5
 15
0.5
 25
0.5
 16
0.0
 26
0.0
 36
1.0
 17
0.0
 27
0.0
 37
0.0
 40
1000.0
 41
1.34
 42
50.0
 43
0.0
 44
0.0
 50
0.0
 51
0.0
 71
0
 72
1000
 73
1
 74
3
 75
0
 76
0
 77
0
 78
0
281
0
 65
0
146
0.0
  0
ENDTAB
  0
TABLE
  2
LTYPE
  5
2
330
0
100
AcDbSymbolTable
 70
21
  0
LTYPE
  5
24
330
2
100
AcDbSymbolTableRecord
100
AcDbLinetypeTableRecord
  2
ByBlock
 70
0
  3

 72
65
 73
0
 40
0.0
  0
LTYPE
  5
25
330
2
100
AcDbSymbolTableRecord
100
AcDbLinetypeTableRecord
  2
ByLayer
 70
0
  3

 72
65
 73
0
 40
0.0
  0
LTYPE
  5
26
330
2
100
AcDbSymbolTableRecord
100
AcDbLinetypeTableRecord
  2
Continuous
 70
0
  3

 72
65
 73
0
 40
0.0
  0
LTYPE
  5
2F
330
2
100
AcDbSymbolTableRecord
100
AcDbLinetypeTableRecord
  2
CENTER
 70
0
  3
Center ____ _ ____ _ ____ _ ____ _ ____ _ ____
 72
65
 73
4
 40
5.08
 49
3.175
 74
0
 49
-0.635
 74
0
 49
0.635
 74
0
 49
-0.635
 74
0
  0
LTYPE
  5
30
330
2
100
AcDbSymbolTableRecord
100
AcDbLinetypeTableRecord
  2
CENTERX2
 70
0
  3
Center (2x) ________  __  ________  __  ________
 72
65
 73
4
 40
8.89
 49
6.35
 74
0
 49
-0.635
 74
0
 49
1.27
 74
0
 49
-0.635
 74
0
  0
LTYPE
  5
31
330
2
100
AcDbSymbolTableRecord
100
AcDbLinetypeTableRecord
  2
CENTER2
 70
0
  3
Center (.5x) ____ _ ____ _ ____ _ ____ _ ____
 72
65
 73
4
 40
2.54
 49
1.587
 74
0
 49
-0.318
 74
0
 49
0.318
 74
0
 49
-0.318
 74
0
  0
LTYPE
  5
32
330
2
100
AcDbSymbolTableRecord
100
AcDbLinetypeTableRecord
  2
DASHED
 70
0
  3
Dashed __ __ __ __ __ __ __ __ __ __ __ __ __ _
 72
65
 73
2
 40
1.524
 49
1.27
 74
0
 49
-0.254
 74
0
  0
LTYPE
  5
33
330
2
100
AcDbSymbolTableRecord
100
AcDbLinetypeTableRecord
  2
DASHEDX2
 70
0
  3
Dashed (2x) ____  ____  ____  ____  ____  ____
 72
65
 73
2
 40
3.048
 49
2.54
 74
0
 49
-0.508
 74
0
  0
LTYPE
  5
34
330
2
100
AcDbSymbolTableRecord
100
AcDbLinetypeTableRecord
  2
DASHED2
 70
0
  3
Dashed (.5x) _ _ _ _ _ _ _ _ _ _ _ _ _ _
 72
65
 73
2
 40
0.762
 49
0.635
 74
0
 49
-0.127
 74
0
  0
LTYPE
  5
35
330
2
100
AcDbSymbolTableRecord
100
AcDbLinetypeTableRecord
  2
PHANTOM
 70
0
  3
Phantom ______  __  __  ______  __  __  ______
 72
65
 73
6
 40
6.35
 49
3.175
 74
0
 49
-0.635
 74
0
 49
0.635
 74
0
 49
-0.635
 74
0
 49
0.635
 74
0
 49
-0.635
 74
0
  0
LTYPE
  5
36
330
2
100
AcDbSymbolTableRecord
100
AcDbLinetypeTableRecord
  2
PHANTOMX2
 70
0
  3
Phantom (2x)____________    ____    ____    ____________
 72
65
 73
6
 40
10.795
 49
6.35
 74
0
 49
-0.635
 74
0
 49
1.27
 74
0
 49
-0.635
 74
0
 49
1.27
 74
0
 49
-0.635
 74
0
  0
LTYPE
  5
37
330
2
100
AcDbSymbolTableRecord
100
AcDbLinetypeTableRecord
  2
PHANTOM2
 70
0
  3
Phantom (.5x) ___ _ _ ___ _ _ ___ _ _ ___ _ _ ___
 72
65
 73
6
 40
3.175
 49
1.587
 74
0
 49
-0.318
 74
0
 49
0.318
 74
0
 49
-0.318
 74
0
 49
0.318
 74
0
 49
-0.318
 74
0
  0
LTYPE
  5
38
330
2
100
AcDbSymbolTableRecord
100
AcDbLinetypeTableRecord
  2
DASHDOT
 70
0
  3
Dash dot __ . __ . __ . __ . __ . __ . __ . __
 72
65
 73
4
 40
3.556
 49
2.54
 74
0
 49
-0.508
 74
0
 49
0.0
 74
0
 49
-0.508
 74
0
  0
LTYPE
  5
39
330
2
100
AcDbSymbolTableRecord
100
AcDbLinetypeTableRecord
  2
DASHDOTX2
 70
0
  3
Dash dot (2x) ____  .  ____  .  ____  .  ____
 72
65
 73
4
 40
6.096
 49
5.08
 74
0
 49
-0.508
 74
0
 49
0.0
 74
0
 49
-0.508
 74
0
  0
LTYPE
  5
3A
330
2
100
AcDbSymbolTableRecord
100
AcDbLinetypeTableRecord
  2
DASHDOT2
 70
0
  3
Dash dot (.5x) _ . _ . _ . _ . _ . _ . _ . _
 72
65
 73
4
 40
1.778
 49
1.27
 74
0
 49
-0.254
 74
0
 49
0.0
 74
0
 49
-0.254
 74
0
  0
LTYPE
  5
3B
330
2
100
AcDbSymbolTableRecord
100
AcDbLinetypeTableRecord
  2
DOT
 70
0
  3
Dot .  .  .  .  .  .  .  .  .  .  .  .  .  .  .  .
 72
65
 73
2
 40
0.508
 49
0.0
 74
0
 49
-0.508
 74
0
  0
LTYPE
  5
3C
330
2
100
AcDbSymbolTableRecord
100
AcDbLinetypeTableRecord
  2
DOTX2
 70
0
  3
Dot (2x) .    .    .    .    .    .    .    . 
 72
65
 73
2
 40
1.016
 49
0.0
 74
0
 49
-1.016
 74
0
  0
LTYPE
  5
3D
330
2
100
AcDbSymbolTableRecord
100
AcDbLinetypeTableRecord
  2
DOT2
 70
0
  3
Dot (.5) . . . . . . . . . . . . . . . . . . . 
 72
65
 73
2
 40
0.254
 49
0.0
 74
0
 49
-0.254
 74
0
  0
LTYPE
  5
3E
330
2
100
AcDbSymbolTableRecord
100
AcDbLinetypeTableRecord
  2
DIVIDE
 70
0
  3
Divide __ . . __ . . __ . . __ . . __ . . __
 72
65
 73
6
 40
4.064
 49
2.54
 74
0
 49
-0.508
 74
0
 49
0.0
 74
0
 49
-0.508
 74
0
 49
0.0
 74
0
 49
-0.508
 74
0
  0
LTYPE
  5
3F
330
2
100
AcDbSymbolTableRecord
100
AcDbLinetypeTableRecord
  2
DIVIDEX2
 70
0
  3
Divide (2x) ____  . .  ____  . .  ____  . .  ____
 72
65
 73
6
 40
6.604
 49
5.08
 74
0
 49
-0.508
 74
0
 49
0.0
 74
0
 49
-0.508
 74
0
 49
0.0
 74
0
 49
-0.508
 74
0
  0
LTYPE
  5
40
330
2
100
AcDbSymbolTableRecord
100
AcDbLinetypeTableRecord
  2
DIVIDE2
 70
0
  3
Divide(.5x) _ . _ . _ . _ . _ . _ . _ . _
 72
65
 73
6
 40
2.032
 49
1.27
 74
0
 49
-0.254
 74
0
 49
0.0
 74
0
 49
-0.254
 74
0
 49
0.0
 74
0
 49
-0.254
 74
0
  0
ENDTAB
  0
TABLE
  2
LAYER
  5
1
330
0
100
AcDbSymbolTable
 70
6
  0
LAYER
  5
27
330
1
100
AcDbSymbolTableRecord
100
AcDbLayerTableRecord
  2
0
 70
0
 62
7
  6
Continuous
370
-3
390
13
347
21
  0
LAYER
  5
28
330
1
100
AcDbSymbolTableRecord
100
AcDbLayerTableRecord
  2
Defpoints
 70
0
 62
7
  6
Continuous
290
0
370
-3
390
13
347
21
  0
LAYER
  5
8A
330
1
100
AcDbSymbolTableRecord
100
AcDbLayerTableRecord
  2
GEOMETRY
 70
0
 62
7
  6
Continuous
370
-3
390
13
347
21
  0
LAYER
  5
8B
330
1
100
AcDbSymbolTableRecord
100
AcDbLayerTableRecord
  2
DIMENSIONS
 70
0
 62
1
  6
Continuous
370
-3
390
13
347
21
  0
LAYER
  5
8C
330
1
100
AcDbSymbolTableRecord
100
AcDbLayerTableRecord
  2
TEXT
 70
0
 62
7
  6
Continuous
370
-3
390
13
347
21
  0
LAYER
  5
8D
330
1
100
AcDbSymbolTableRecord
100
AcDbLayerTableRecord
  2
HATCH
 70
0
 62
8
  6
Continuous
370
-3
390
13
347
21
  0
ENDTAB
  0
TABLE
  2
STYLE
  5
5
330
0
100
AcDbSymbolTable
 70
26
  0
STYLE
  5
29
330
5
100
AcDbSymbolTableRecord
100
AcDbTextStyleTableRecord
  2
Standard
 70
0
 40
0.0
 41
1.0
 50
0.0
 71
0
 42
2.5
  3
txt
  4

  0
STYLE
  5
41
330
5
100
AcDbSymbolTableRecord
100
AcDbTextStyleTableRecord
  2
OpenSans-Light
 70
0
 40
0.0
 41
1.0
 50
0.0
 71
0
 42
2.5
  3
OpenSans-Light.ttf
  4

  0
STYLE
  5
42
330
5
100
AcDbSymbolTableRecord
100
AcDbTextStyleTableRecord
  2
OpenSans-Light-Italic
 70
0
 40
0.0
 41
1.0
 50
0.0
 71
0
 42
2.5
  3
OpenSans-LightItalic.ttf
  4

  0
STYLE
  5
43
330
5
100
AcDbSymbolTableRecord
100
AcDbTextStyleTableRecord
  2
OpenSans
 70
0
 40
0.0
 41
1.0
 50
0.0
 71
0
 42
2.5
  3
OpenSans-Regular.ttf
  4

  0
STYLE
  5
44
330
5
100
AcDbSymbolTableRecord
100
AcDbTextStyleTableRecord
  2
OpenSans-Italic
 70
0
 40
0.0
 41
1.0
 50
0.0
 71
0
 42
2.5
  3
OpenSans-Italic.ttf
  4

  0
STYLE
  5
45
330
5
100
AcDbSymbolTableRecord
100
AcDbTextStyleTableRecord
  2
OpenSans-SemiBold
 70
0
 40
0.0
 41
1.0
 50
0.0
 71
0
 42
2.5
  3
OpenSans-SemiBold.ttf
  4

  0
STYLE
  5
46
330
5
100
AcDbSymbolTableRecord
100
AcDbTextStyleTableRecord
  2
OpenSans-SemiBoldItalic
 70
0
 40
0.0
 41
1.0
 50
0.0
 71
0
 42
2.5
  3
OpenSans-SemiBoldItalic.ttf
  4

  0
STYLE
  5
47
330
5
100
AcDbSymbolTableRecord
100
AcDbTextStyleTableRecord
  2
OpenSans-Bold
 70
0
 40
0.0
 41
1.0
 50
0.0
 71
0
 42
2.5
  3
OpenSans-Bold.ttf
  4

  0
STYLE
  5
48
330
5
100
AcDbSymbolTableRecord
100
AcDbTextStyleTableRecord
  2
OpenSans-BoldItalic
 70
0
 40
0.0
 41
1.0
 50
0.0
 71
0
 42
2.5
  3
OpenSans-BoldItalic.ttf
  4

  0
STYLE
  5
49
330
5
100
AcDbSymbolTableRecord
100
AcDbTextStyleTableRecord
  2
OpenSans-ExtraBold
 70
0
 40
0.0
 41
1.0
 50
0.0
 71
0
 42
2.5
  3
OpenSans-ExtraBold.ttf
  4

  0
STYLE
  5
4A
330
5
100
AcDbSymbolTableRecord
100
AcDbTextStyleTableRecord
  2
OpenSans-ExtraBoldItalic
 70
0
 40
0.0
 41
1.0
 50
0.0
 71
0
 42
2.5
  3
OpenSans-ExtraBoldItalic.ttf
  4

  0
STYLE
  5
4B
330
5
100
AcDbSymbolTableRecord
100
AcDbTextStyleTableRecord
  2
OpenSansCondensed-Bold
 70
0
 40
0.0
 41
1.0
 50
0.0
 71
0
 42
2.5
  3
OpenSansCondensed-Bold.ttf
  4

  0
STYLE
  5
4C
330
5
100
AcDbSymbolTableRecord
100
AcDbTextStyleTableRecord
  2
OpenSansCondensed-Light
 70
0
 40
0.0
 41
1.0
 50
0.0
 71
0
 42
2.5
  3
OpenSansCondensed-Light.ttf
  4

  0
STYLE
  5
4D
330
5
100
AcDbSymbolTableRecord
100
AcDbTextStyleTableRecord
  2
OpenSansCondensed-Italic
 70
0
 40
0.0
 41
1.0
 50
0.0
 71
0
 42
2.5
  3
OpenSansCondensed-LightItalic.ttf
  4

  0
STYLE
  5
4E
330
5
100
AcDbSymbolTableRecord
100
AcDbTextStyleTableRecord
  2
LiberationSans
 70
0
 40
0.0
 41
1.0
 50
0.0
 71
0
 42
2.5
  3
LiberationSans-Regular.ttf
  4

  0
STYLE
  5
4F
330
5
100
AcDbSymbolTableRecord
100
AcDbTextStyleTableRecord
  2
LiberationSans-Bold
 70
0
 40
0.0
 41
1.0
 50
0.0
 71
0
 42
2.5
  3
LiberationSans-Bold.ttf
  4

  0
STYLE
  5
50
330
5
100
AcDbSymbolTableRecord
100
AcDbTextStyleTableRecord
  2
LiberationSans-BoldItalic
 70
0
 40
0.0
 41
1.0
 50
0.0
 71
0
 42
2.5
  3
LiberationSans-BoldItalic.ttf
  4

  0
STYLE
  5
51
330
5
100
AcDbSymbolTableRecord
100
AcDbTextStyleTableRecord
  2
LiberationSans-Italic
 70
0
 40
0.0
 41
1.0
 50
0.0
 71
0
 42
2.5
  3
LiberationSans-Italic.ttf
  4

  0
STYLE
  5
52
330
5
100
AcDbSymbolTableRecord
100
AcDbTextStyleTableRecord
  2
LiberationSerif
 70
0
 40
0.0
 41
1.0
 50
0.0
 71
0
 42
2.5
  3
LiberationSerif-Regular.ttf
  4

  0
STYLE
  5
53
330
5
100
AcDbSymbolTableRecord
100
AcDbTextStyleTableRecord
  2
LiberationSerif-Bold
 70
0
 40
0.0
 41
1.0
 50
0.0
 71
0
 42
2.5
  3
LiberationSerif-Bold.ttf
  4

  0
STYLE
  5
54
330
5
100
AcDbSymbolTableRecord
100
AcDbTextStyleTableRecord
  2
LiberationSerif-BoldItalic
 70
0
 40
0.0
 41
1.0
 50
0.0
 71
0
 42
2.5
  3
LiberationSerif-BoldItalic.ttf
  4

  0
STYLE
  5
55
330
5
100
AcDbSymbolTableRecord
100
AcDbTextStyleTableRecord
  2
LiberationSerif-Italic
 70
0
 40
0.0
 41
1.0
 50
0.0
 71
0
 42
2.5
  3
LiberationSerif-Italic.ttf
  4

  0
STYLE
  5
56
330
5
100
AcDbSymbolTableRecord
100
AcDbTextStyleTableRecord
  2
LiberationMono
 70
0
 40
0.0
 41
1.0
 50
0.0
 71
0
 42
2.5
  3
LiberationMono-Regular.ttf
  4

  0
STYLE
  5
57
330
5
100
AcDbSymbolTableRecord
100
AcDbTextStyleTableRecord
  2
LiberationMono-Bold
 70
0
 40
0.0
 41
1.0
 50
0.0
 71
0
 42
2.5
  3
LiberationMono-Bold.ttf
  4

  0
STYLE
  5
58
330
5
100
AcDbSymbolTableRecord
100
AcDbTextStyleTableRecord
  2
LiberationMono-BoldItalic
 70
0
 40
0.0
 41
1.0
 50
0.0
 71
0
 42
2.5
  3
LiberationMono-BoldItalic.ttf
  4

  0
STYLE
  5
59
330
5
100
AcDbSymbolTableRecord
100
AcDbTextStyleTableRecord
  2
LiberationMono-Italic
 70
0
 40
0.0
 41
1.0
 50
0.0
 71
0
 42
2.5
  3
LiberationMono-Italic.ttf
  4

  0
ENDTAB
  0
TABLE
  2
VIEW
  5
7
330
0
100
AcDbSymbolTable
 70
0
  0
ENDTAB
  0
TABLE
  2
UCS
  5
6
330
0
100
AcDbSymbolTable
 70
0
  0
ENDTAB
  0
TABLE
  2
APPID
  5
3
330
0
100
AcDbSymbolTable
 70
3
  0
APPID
  5
2A
330
3
100
AcDbSymbolTableRecord
100
AcDbRegAppTableRecord
  2
ACAD
 70
0
  0
APPID
  5
2E8
330
3
100
AcDbSymbolTableRecord
100
AcDbRegAppTableRecord
  2
HATCHBACKGROUNDCOLOR
 70
0
  0
APPID
  5
2E9
330
3
100
AcDbSymbolTableRecord
100
AcDbRegAppTableRecord
  2
EZDXF
 70
0
  0
ENDTAB
  0
TABLE
  2
DIMSTYLE
  5
4
330
0
100
AcDbSymbolTable
 70
12
100
AcDbDimStyleTable
  0
DIMSTYLE
105
2B
330
4
100
AcDbSymbolTableRecord
100
AcDbDimStyleTableRecord
  2
Standard
 70
0
 40
1.0
 41
2.5
 42
0.625
 43
3.75
 44
1.25
 45
0.0
 46
0.0
 47
0.0
 48
0.0
 49
2.5
140
2.5
141
2.5
142
0.0
143
0.03937007874
144
1.0
145
0.0
146
1.0
147
0.625
148
0.0
 69
0
 70
0
 71
0
 72
0
 73
0
 74
0
 75
0
 76
0
 77
1
 78
8
 79
3
170
0
171
3
172
1
173
0
174
0
175
0
176
0
177
0
178
0
179
2
271
2
272
2
273
2
274
3
275
0
276
0
277
2
278
44
279
0
280
0
281
0
282
0
283
0
284
8
285
0
286
0
288
0
289
3
290
0
371
-2
372
-2
  0
DIMSTYLE
105
73
330
4
100
AcDbSymbolTableRecord
100
AcDbDimStyleTableRecord
  2
EZDXF
 70
0
 40
1.0
 41
0.175
 42
0.125
 43
3.75
 44
0.375
 45
0.0
 46
0.0
 47
0.0
 48
0.0
 49
2.5
140
0.25
141
2.5
142
0.0
143
0.03937007874
144
100.0
145
0.0
146
0.5
147
0.1
148
0.0
 69
0
 70
0
 71
0
 72
0
 73
0
 74
0
 75
0
 76
0
 77
1
 78
12
 79
3
170
0
171
3
172
1
173
0
174
0
175
0
176
0
177
0
178
0
179
2
271
2
272
2
273
2
274
3
275
0
276
0
277
2
278
46
279
2
280
0
281
0
282
0
283
0
284
8
285
0
286
0
288
1
289
3
290
0
340
4C
342
74
371
-2
372
-2
  0
DIMSTYLE
105
7C
330
4
100
AcDbSymbolTableRecord
100
AcDbDimStyleTableRecord
  2
EZ_M_100_H25_CM
 70
0
 40
1.0
 41
0.25
 42
0.125
 43
3.75
 44
0.375
 45
0.0
 46
0.0
 47
0.0
 48
0.0
 49
2.5
140
0.25
141
2.5
142
0.125
143
0.03937007874
144
100.0
145
0.0
146
0.5
147
0.1
148
0.0
 69
0
 70
0
 71
0
 72
0
 73
0
 74
0
 75
0
 76
0
 77
1
 78
12
 79
3
170
0
171
3
172
1
173
0
174
0
175
0
176
0
177
0
178
0
179
2
271
2
272
2
273
2
274
3
275
0
276
0
277
2
278
46
279
2
280
0
281
0
282
0
283
0
284
8
285
0
286
0
288
1
289
3
290
0
340
4C
371
-2
372
-2
  0
DIMSTYLE
105
7D
330
4
100
AcDbSymbolTableRecord
100
AcDbDimStyleTableRecord
  2
EZ_M_50_H25_CM
 70
0
 40
1.0
 41
0.125
 42
0.0625
 43
3.75
 44
0.1875
 45
0.0
 46
0.0
 47
0.0
 48
0.0
 49
2.5
140
0.125
141
2.5
142
0.0625
143
0.03937007874
144
100.0
145
0.0
146
0.5
147
0.05
148
0.0
 69
0
 70
0
 71
0
 72
0
 73
0
 74
0
 75
0
 76
0
 77
1
 78
12
 79
3
170
0
171
3
172
1
173
0
174
0
175
0
176
0
177
0
178
0
179
2
271
2
272
2
273
2
274
3
275
0
276
0
277
2
278
46
279
2
280
0
281
0
282
0
283
0
284
8
285
0
286
0
288
1
289
3
290
0
340
4C
371
-2
372
-2
  0
DIMSTYLE
105
7E
330
4
100
AcDbSymbolTableRecord
100
AcDbDimStyleTableRecord
  2
EZ_M_25_H25_CM
 70
0
 40
1.0
 41
0.0625
 42
0.03125
 43
3.75
 44
0.09375
 45
0.0
 46
0.0
 47
0.0
 48
0.0
 49
2.5
140
0.0625
141
2.5
142
0.03125
143
0.03937007874
144
100.0
145
0.0
146
0.5
147
0.025
148
0.0
 69
0
 70
0
 71
0
 72
0
 73
0
 74
0
 75
0
 76
0
 77
1
 78
12
 79
3
170
0
171
3
172
1
173
0
174
0
175
0
176
0
177
0
178
0
179
2
271
2
272
2
273
2
274
3
275
0
276
0
277
2
278
46
279
2
280
0
281
0
282
0
283
0
284
8
285
0
286
0
288
1
289
3
290
0
340
4C
371
-2
372
-2
  0
DIMSTYLE
105
7F
330
4
100
AcDbSymbolTableRecord
100
AcDbDimStyleTableRecord
  2
EZ_M_20_H25_CM
 70
0
 40
1.0
 41
0.05
 42
0.025
 43
3.75
 44
0.07500000000000001
 45
0.0
 46
0.0
 47
0.0
 48
0.0
 49
2.5
140
0.05
141
2.5
142
0.025
143
0.03937007874
144
100.0
145
0.0
146
0.5
147
0.020000000000000004
148
0.0
 69
0
 70
0
 71
0
 72
0
 73
0
 74
0
 75
0
 76
0
 77
1
 78
12
 79
3
170
0
171
3
172
1
173
0
174
0
175
0
176
0
177
0
178
0
179
2
271
2
272
2
273
2
274
3
275
0
276
0
277
2
278
46
279
2
280
0
281
0
282
0
283
0
284
8
285
0
286
0
288
1
289
3
290
0
340
4C
371
-2
372
-2
  0
DIMSTYLE
105
80
330
4
100
AcDbSymbolTableRecord
100
AcDbDimStyleTableRecord
  2
EZ_M_10_H25_CM
 70
0
 40
1.0
 41
0.025
 42
0.0125
 43
3.75
 44
0.037500000000000006
 45
0.0
 46
0.0
 47
0.0
 48
0.0
 49
2.5
140
0.025
141
2.5
142
0.0125
143
0.03937007874
144
100.0
145
0.0
146
0.5
147
0.010000000000000002
148
0.0
 69
0
 70
0
 71
0
 72
0
 73
0
 74
0
 75
0
 76
0
 77
1
 78
12
 79
3
170
0
171
3
172
1
173
0
174
0
175
0
176
0
177
0
178
0
179
2
271
2
272
2
273
2
274
3
275
0
276
0
277
2
278
46
279
2
280
0
281
0
282
0
283
0
284
8
285
0
286
0
288
1
289
3
290
0
340
4C
371
-2
372
-2
  0
DIMSTYLE
105
81
330
4
100
AcDbSymbolTableRecord
100
AcDbDimStyleTableRecord
  2
EZ_M_5_H25_CM
 70
0
 40
1.0
 41
0.0125
 42
0.00625
 43
3.75
 44
0.018750000000000003
 45
0.0
 46
0.0
 47
0.0
 48
0.0
 49
2.5
140
0.0125
141
2.5
142
0.00625
143
0.03937007874
144
100.0
145
0.0
146
0.5
147
0.005000000000000001
148
0.0
 69
0
 70
0
 71
0
 72
0
 73
0
 74
0
 75
0
 76
0
 77
1
 78
12
 79
3
170
0
171
3
172
1
173
0
174
0
175
0
176
0
177
0
178
0
179
2
271
2
272
2
273
2
274
3
275
0
276
0
277
2
278
46
279
2
280
0
281
0
282
0
283
0
284
8
285
0
286
0
288
1
289
3
290
0
340
4C
371
-2
372
-2
  0
DIMSTYLE
105
82
330
4
100
AcDbSymbolTableRecord
100
AcDbDimStyleTableRecord
  2
EZ_M_1_H25_CM
 70
0
 40
1.0
 41
0.0025
 42
0.00125
 43
3.75
 44
0.00375
 45
0.0
 46
0.0
 47
0.0
 48
0.0
 49
2.5
140
0.0025
141
2.5
142
0.00125
143
0.03937007874
144
100.0
145
0.0
146
0.5
147
0.001
148
0.0
 69
0
 70
0
 71
0
 72
0
 73
0
 74
0
 75
0
 76
0
 77
1
 78
12
 79
3
170
0
171
3
172
1
173
0
174
0
175
0
176
0
177
0
178
0
179
2
271
2
272
2
273
2
274
3
275
0
276
0
277
2
278
46
279
2
280
0
281
0
282
0
283
0
284
8
285
0
286
0
288
1
289
3
290
0
340
4C
371
-2
372
-2
  0
DIMSTYLE
105
83
330
4
100
AcDbSymbolTableRecord
100
AcDbDimStyleTableRecord
  2
EZ_RADIUS
 70
0
 40
1.0
 41
0.25
 42
0.125
 43
3.75
 44
0.375
 45
0.0
 46
0.0
 47
0.0
 48
0.0
 49
2.5
140
0.25
141
0.0
142
0.0
143
0.03937007874
144
100.0
145
0.0
146
0.5
147
0.1
148
0.0
 69
0
 70
0
 71
0
 72
0
 73
0
 74
0
 75
0
 76
0
 77
1
 78
12
 79
3
170
0
171
3
172
0
173
0
174
0
175
0
176
0
177
0
178
0
179
2
271
2
272
2
273
2
274
3
275
0
276
0
277
2
278
46
279
1
280
0
281
0
282
0
283
0
284
8
285
0
286
0
288
1
289
3
290
0
340
4C
342
84
371
-2
372
-2
  0
DIMSTYLE
105
88
330
4
100
AcDbSymbolTableRecord
100
AcDbDimStyleTableRecord
  2
EZ_RADIUS_INSIDE
 70
0
 40
1.0
 41
0.25
 42
0.125
 43
3.75
 44
0.375
 45
0.0
 46
0.0
 47
0.0
 48
0.0
 49
2.5
140
0.25
141
0.0
142
0.0
143
0.03937007874
144
100.0
145
0.0
146
0.5
147
0.1
148
0.0
 69
0
 70
0
 71
0
 72
0
 73
0
 74
0
 75
0
 76
0
 77
0
 78
12
 79
3
170
0
171
3
172
0
173
0
174
1
175
0
176
0
177
0
178
0
179
2
271
2
272
2
273
2
274
3
275
0
276
0
277
2
278
46
279
0
280
0
281
0
282
0
283
0
284
8
285
0
286
0
288
1
289
0
290
0
340
4C
342
84
371
-2
372
-2
  0
DIMSTYLE
105
89
330
4
100
AcDbSymbolTableRecord
100
AcDbDimStyleTableRecord
  2
EZ_CURVED
 70
0
 40
1.0
 41
0.25
 42
0.125
 43
3.75
 44
0.375
 45
0.0
 46
0.0
 47
0.0
 48
0.0
 49
2.5
140
0.25
141
2.5
142
0.0
143
0.03937007874
144
100.0
145
0.0
146
0.5
147
0.1
148
0.0
 69
0
 70
0
 71
0
 72
0
 73
0
 74
0
 75
0
 76
0
 77
1
 78
12
 79
2
 90
2
170
0
171
3
172
1
173
0
174
0
175
0
176
0
177
0
178
0
179
2
271
2
272
2
273
2
274
3
275
0
276
0
277
2
278
46
279
2
280
0
281
0
282
0
283
0
284
8
285
0
286
0
288
1
289
3
290
0
340
4C
371
-2
372
-2
  0
ENDTAB
  0
TABLE
  2
BLOCK_RECORD
  5
9
330
0
100
AcDbSymbolTable
 70
5
  0
BLOCK_RECORD
  5
17
330
9
100
AcDbSymbolTableRecord
100
AcDbBlockTableRecord
  2
*Model_Space
340
1A
 70
0
280
1
281
0
  0
BLOCK_RECORD
  5
1B
330
9
100
AcDbSymbolTableRecord
100
AcDbBlockTableRecord
  2
*Paper_Space
340
1E
 70
0
280
1
281
0
  0
BLOCK_RECORD
  5
74
330
9
100
AcDbSymbolTableRecord
100
AcDbBlockTableRecord
  2
_ARCHTICK
340
0
 70
0
280
1
281
0
  0
BLOCK_RECORD
  5
78
330
9
100
AcDbSymbolTableRecord
100
AcDbBlockTableRecord
  2
_CLOSEDFILLED
340
0
 70
0
280
1
281
0
  0
BLOCK_RECORD
  5
84
330
9
100
AcDbSymbolTableRecord
100
AcDbBlockTableRecord
  2
_CLOSEDBLANK
340
0
 70
0
280
1
281
0
  0
ENDTAB
  0
ENDSEC
  0
SECTION
  2
BLOCKS
  0
BLOCK
  5
18
330
17
100
AcDbEntity
  8
0
100
AcDbBlockBegin
  2
*Model_Space
 70
0
 10
0.0
 20
0.0
 30
0.0
  3
*Model_Space
  1

  0
ENDBLK
  5
19
330
17
100
AcDbEntity
  8
0
100
AcDbBlockEnd
  0
BLOCK
  5
1C
330
1B
100
AcDbEntity
  8
0
100
AcDbBlockBegin
  2
*Paper_Space
 70
0
 10
0.0
 20
0.0
 30
0.0
  3
*Paper_Space
  1

  0
ENDBLK
  5
1D
330
1B
100
AcDbEntity
  8
0
100
AcDbBlockEnd
  0
BLOCK
  5
75
330
74
100
AcDbEntity
  8
0
100
AcDbBlockBegin
  2
_ARCHTICK
 70
0
 10
0.0
 20
0.0
 30
0.0
  3
_ARCHTICK
  1

  0
LWPOLYLINE
  5
77
330
74
100
AcDbEntity
  8
0
  6
BYBLOCK
 62
0
100
AcDbPolyline
 90
2
 70
0
 43
0.15
 10
-0.5
 20
-0.5
 10
0.5
 20
0.5
  0
ENDBLK
  5
76
330
74
100
AcDbEntity
  8
0
100
AcDbBlockEnd
  0
BLOCK
  5
79
330
78
100
AcDbEntity
  8
0
100
AcDbBlockBegin
  2
_CLOSEDFILLED
 70
0
 10
0.0
 20
0.0
 30
0.0
  3
_CLOSEDFILLED
  1

  0
SOLID
  5
7B
330
78
100
AcDbEntity
  8
0
  6
BYBLOCK
 62
0
100
AcDbTrace
 10
-1.0
 20
0.16439898372402537
 30
0.0
 11
0.0
 21
0.0
 31
0.0
 12
-1.0
 22
-0.16439898372402537
 32
0.0
 13
-1.0
 23
-0.16439898372402537
 33
0.0
  0
ENDBLK
  5
7A
330
78
100
AcDbEntity
  8
0
100
AcDbBlockEnd
  0
BLOCK
  5
85
330
84
100
AcDbEntity
  8
0
100
AcDbBlockBegin
  2
_CLOSEDBLANK
 70
0
 10
0.0
 20
0.0
 30
0.0
  3
_CLOSEDBLANK
  1

  0
LWPOLYLINE
  5
87
330
84
100
AcDbEntity
  8
0
  6
BYBLOCK
 62
0
100
AcDbPolyline
 90
3
 70
1
 10
-1.0
 20
0.16439898372402537
 10
0.0
 20
0.0
 10
-1.0
 20
-0.16439898372402537
  0
ENDBLK
  5
86
330
84
100
AcDbEntity
  8
0
100
AcDbBlockEnd
  0
ENDSEC
  0
SECTION
  2
ENTITIES
  0
LWPOLYLINE
  5
8E
330
17
100
AcDbEntity
  8
GEOMETRY
100
AcDbPolyline
 90
5
 70
0
 10
8.0
 20
289.0
 10
412.0
 20
289.0
 10
412.0
 20
8.0
 10
8.0
 20
8.0
 10
8.0
 20
289.0
  0
TEXT
  5
8F
330
17
100
AcDbEntity
  8
TEXT
100
AcDbText
 10
18.0
 20
280.0
 30
0.0
 40
2.304
  1
ELEVATION — RIGHT WALL
 11
18.0
 21
280.0
 31
0.0
100
AcDbText
  0
LINE
  5
90
330
17
100
AcDbEntity
  8
GEOMETRY
100
AcDbLine
 10
18.0
 20
278.5
 30
0.0
 11
128.0
 21
278.5
 31
0.0
  0
TEXT
  5
91
330
17
100
AcDbEntity
  8
TEXT
100
AcDbText
 10
18.0
 20
275.2
 30
0.0
 40
1.224
  1
SCALE 1:25 · SEEN FROM THE ROOM · STUDY WALL ON THE LEFT · OPTION C
 11
18.0
 21
275.2
 31
0.0
100
AcDbText
  0
LWPOLYLINE
  5
92
330
17
100
AcDbEntity
  8
GEOMETRY
100
AcDbPolyline
 90
5
 70
0
 10
73.2
 20
158.32
 10
227.64
 20
158.32
 10
227.64
 20
154.23999999999998
 10
73.2
 20
154.23999999999998
 10
73.2
 20
158.32
  0
LINE
  5
93
330
17
100
AcDbEntity
  8
GEOMETRY
100
AcDbLine
 10
73.2
 20
157.32
 30
0.0
 11
227.64000000000001
 21
157.32
 31
0.0
  0
LWPOLYLINE
  5
94
330
17
100
AcDbEntity
  8
GEOMETRY
100
AcDbPolyline
 90
5
 70
0
 10
264.20000000000005
 20
158.32
 10
292.64000000000004
 20
158.32
 10
292.64000000000004
 20
154.23999999999998
 10
264.20000000000005
 20
154.23999999999998
 10
264.20000000000005
 20
158.32
  0
LINE
  5
95
330
17
100
AcDbEntity
  8
GEOMETRY
100
AcDbLine
 10
264.20000000000005
 20
157.32
 30
0.0
 11
292.64
 21
157.32
 31
0.0
  0
LWPOLYLINE
  5
96
330
17
100
AcDbEntity
  8
GEOMETRY
100
AcDbPolyline
 90
5
 70
0
 10
62.0
 20
180.07999999999998
 10
73.2
 20
180.07999999999998
 10
73.2
 20
154.24
 10
62.0
 20
154.24
 10
62.0
 20
180.07999999999998
  0
LWPOLYLINE
  5
97
330
17
100
AcDbEntity
  8
GEOMETRY
100
AcDbPolyline
 90
5
 70
0
 10
63.6
 20
178.48000000000002
 10
71.6
 20
178.48000000000002
 10
71.6
 20
155.84
 10
63.6
 20
155.84
 10
63.6
 20
178.48000000000002
  0
LWPOLYLINE
  5
98
330
17
100
AcDbEntity
  8
GEOMETRY
100
AcDbPolyline
 90
5
 70
0
 10
62.0
 20
181.68
 10
227.64000000000001
 20
181.68
 10
227.64000000000001
 20
180.07999999999998
 10
62.0
 20
180.07999999999998
 10
62.0
 20
181.68
  0
LINE
  5
99
330
17
100
AcDbEntity
  8
GEOMETRY
100
AcDbLine
 10
62.0
 20
180.48000000000002
 30
0.0
 11
227.64000000000001
 21
180.48000000000002
 31
0.0
  0
LINE
  5
9A
330
17
100
AcDbEntity
  8
GEOMETRY
100
AcDbLine
 10
62.0
 20
180.88
 30
0.0
 11
227.64000000000001
 21
180.88
 31
0.0
  0
LINE
  5
9B
330
17
100
AcDbEntity
  8
GEOMETRY
100
AcDbLine
 10
62.0
 20
181.28
 30
0.0
 11
227.64000000000001
 21
181.28
 31
0.0
  0
LWPOLYLINE
  5
9C
330
17
100
AcDbEntity
  8
GEOMETRY
100
AcDbPolyline
 90
5
 70
0
 10
264.20000000000005
 20
181.68
 10
292.64000000000004
 20
181.68
 10
292.64000000000004
 20
180.07999999999998
 10
264.20000000000005
 20
180.07999999999998
 10
264.20000000000005
 20
181.68
  0
LINE
  5
9D
330
17
100
AcDbEntity
  8
GEOMETRY
100
AcDbLine
 10
264.20000000000005
 20
180.48000000000002
 30
0.0
 11
292.64
 21
180.48000000000002
 31
0.0
  0
LINE
  5
9E
330
17
100
AcDbEntity
  8
GEOMETRY
100
AcDbLine
 10
264.20000000000005
 20
180.88
 30
0.0
 11
292.64
 21
180.88
 31
0.0
  0
LINE
  5
9F
330
17
100
AcDbEntity
  8
GEOMETRY
100
AcDbLine
 10
264.20000000000005
 20
181.28
 30
0.0
 11
292.64
 21
181.28
 31
0.0
  0
LWPOLYLINE
  5
A0
330
17
100
AcDbEntity
  8
GEOMETRY
100
AcDbPolyline
 90
5
 70
0
 10
79.2
 20
176.07999999999998
 10
103.28800000000001
 20
176.07999999999998
 10
103.28800000000001
 20
162.72
 10
79.2
 20
162.72
 10
79.2
 20
176.07999999999998
  0
LWPOLYLINE
  5
A1
330
17
100
AcDbEntity
  8
GEOMETRY
100
AcDbPolyline
 90
5
 70
0
 10
79.92
 20
175.36
 10
102.56800000000001
 20
175.36
 10
102.56800000000001
 20
163.44
 10
79.92
 20
163.44
 10
79.92
 20
175.36
  0
LWPOLYLINE
  5
A2
330
17
100
AcDbEntity
  8
GEOMETRY
100
AcDbPolyline
 90
5
 70
0
 10
80.56
 20
174.72
 10
101.928
 20
174.72
 10
101.928
 20
164.07999999999998
 10
80.56
 20
164.07999999999998
 10
80.56
 20
174.72
  0
LWPOLYLINE
  5
A3
330
17
100
AcDbEntity
  8
GEOMETRY
100
AcDbPolyline
 90
5
 70
0
 10
81.4
 20
173.88
 10
101.08800000000001
 20
173.88
 10
101.08800000000001
 20
164.92
 10
81.4
 20
164.92
 10
81.4
 20
173.88
  0
LWPOLYLINE
  5
A4
330
17
100
AcDbEntity
  8
GEOMETRY
100
AcDbPolyline
 90
5
 70
0
 10
79.2
 20
251.76
 10
103.28800000000001
 20
251.76
 10
103.28800000000001
 20
186.07999999999998
 10
79.2
 20
186.07999999999998
 10
79.2
 20
251.76
  0
LWPOLYLINE
  5
A5
330
17
100
AcDbEntity
  8
GEOMETRY
100
AcDbPolyline
 90
5
 70
0
 10
79.92
 20
251.04
 10
102.56800000000001
 20
251.04
 10
102.56800000000001
 20
186.8
 10
79.92
 20
186.8
 10
79.92
 20
251.04
  0
LWPOLYLINE
  5
A6
330
17
100
AcDbEntity
  8
GEOMETRY
100
AcDbPolyline
 90
5
 70
0
 10
80.56
 20
250.4
 10
101.928
 20
250.4
 10
101.928
 20
187.44
 10
80.56
 20
187.44
 10
80.56
 20
250.4
  0
LWPOLYLINE
  5
A7
330
17
100
AcDbEntity
  8
GEOMETRY
100
AcDbPolyline
 90
5
 70
0
 10
81.4
 20
249.56
 10
101.08800000000001
 20
249.56
 10
101.08800000000001
 20
188.28
 10
81.4
 20
188.28
 10
81.4
 20
249.56
  0
LWPOLYLINE
  5
A8
330
17
100
AcDbEntity
  8
GEOMETRY
100
AcDbPolyline
 90
5
 70
0
 10
109.28800000000001
 20
176.07999999999998
 10
133.376
 20
176.07999999999998
 10
133.376
 20
162.72
 10
109.28800000000001
 20
162.72
 10
109.28800000000001
 20
176.07999999999998
  0
LWPOLYLINE
  5
A9
330
17
100
AcDbEntity
  8
GEOMETRY
100
AcDbPolyline
 90
5
 70
0
 10
110.00800000000001
 20
175.36
 10
132.656
 20
175.36
 10
132.656
 20
163.44
 10
110.00800000000001
 20
163.44
 10
110.00800000000001
 20
175.36
  0
LWPOLYLINE
  5
AA
330
17
100
AcDbEntity
  8
GEOMETRY
100
AcDbPolyline
 90
5
 70
0
 10
110.648
 20
174.72
 10
132.016
 20
174.72
 10
132.016
 20
164.07999999999998
 10
110.648
 20
164.07999999999998
 10
110.648
 20
174.72
  0
LWPOLYLINE
  5
AB
330
17
100
AcDbEntity
  8
GEOMETRY
100
AcDbPolyline
 90
5
 70
0
 10
111.488
 20
173.88
 10
131.176
 20
173.88
 10
131.176
 20
164.92
 10
111.488
 20
164.92
 10
111.488
 20
173.88
  0
LWPOLYLINE
  5
AC
330
17
100
AcDbEntity
  8
GEOMETRY
100
AcDbPolyline
 90
5
 70
0
 10
109.28800000000001
 20
251.76
 10
133.376
 20
251.76
 10
133.376
 20
186.07999999999998
 10
109.28800000000001
 20
186.07999999999998
 10
109.28800000000001
 20
251.76
  0
LWPOLYLINE
  5
AD
330
17
100
AcDbEntity
  8
GEOMETRY
100
AcDbPolyline
 90
5
 70
0
 10
110.00800000000001
 20
251.04
 10
132.656
 20
251.04
 10
132.656
 20
186.8
 10
110.00800000000001
 20
186.8
 10
110.00800000000001
 20
251.04
  0
LWPOLYLINE
  5
AE
330
17
100
AcDbEntity
  8
GEOMETRY
100
AcDbPolyline
 90
5
 70
0
 10
110.648
 20
250.4
 10
132.016
 20
250.4
 10
132.016
 20
187.44
 10
110.648
 20
187.44
 10
110.648
 20
250.4
  0
LWPOLYLINE
  5
AF
330
17
100
AcDbEntity
  8
GEOMETRY
100
AcDbPolyline
 90
5
 70
0
 10
111.488
 20
249.56
 10
131.176
 20
249.56
 10
131.176
 20
188.28
 10
111.488
 20
188.28
 10
111.488
 20
249.56
  0
LWPOLYLINE
  5
B0
330
17
100
AcDbEntity
  8
GEOMETRY
100
AcDbPolyline
 90
5
 70
0
 10
139.376
 20
176.07999999999998
 10
163.464
 20
176.07999999999998
 10
163.464
 20
162.72
 10
139.376
 20
162.72
 10
139.376
 20
176.07999999999998
  0
LWPOLYLINE
  5
B1
330
17
100
AcDbEntity
  8
GEOMETRY
100
AcDbPolyline
 90
5
 70
0
 10
140.096
 20
175.36
 10
162.744
 20
175.36
 10
162.744
 20
163.44
 10
140.096
 20
163.44
 10
140.096
 20
175.36
  0
LWPOLYLINE
  5
B2
330
17
100
AcDbEntity
  8
GEOMETRY
100
AcDbPolyline
 90
5
 70
0
 10
140.736
 20
174.72
 10
162.10399999999998
 20
174.72
 10
162.10399999999998
 20
164.07999999999998
 10
140.736
 20
164.07999999999998
 10
140.736
 20
174.72
  0
LWPOLYLINE
  5
B3
330
17
100
AcDbEntity
  8
GEOMETRY
100
AcDbPolyline
 90
5
 70
0
 10
141.57600000000002
 20
173.88
 10
161.264
 20
173.88
 10
161.264
 20
164.92
 10
141.57600000000002
 20
164.92
 10
141.57600000000002
 20
173.88
  0
LWPOLYLINE
  5
B4
330
17
100
AcDbEntity
  8
GEOMETRY
100
AcDbPolyline
 90
5
 70
0
 10
139.376
 20
251.76
 10
163.464
 20
251.76
 10
163.464
 20
186.07999999999998
 10
139.376
 20
186.07999999999998
 10
139.376
 20
251.76
  0
LWPOLYLINE
  5
B5
330
17
100
AcDbEntity
  8
GEOMETRY
100
AcDbPolyline
 90
5
 70
0
 10
140.096
 20
251.04
 10
162.744
 20
251.04
 10
162.744
 20
186.8
 10
140.096
 20
186.8
 10
140.096
 20
251.04
  0
LWPOLYLINE
  5
B6
330
17
100
AcDbEntity
  8
GEOMETRY
100
AcDbPolyline
 90
5
 70
0
 10
140.736
 20
250.4
 10
162.10399999999998
 20
250.4
 10
162.10399999999998
 20
187.44
 10
140.736
 20
187.44
 10
140.736
 20
250.4
  0
LWPOLYLINE
  5
B7
330
17
100
AcDbEntity
  8
GEOMETRY
100
AcDbPolyline
 90
5
 70
0
 10
141.57600000000002
 20
249.56
 10
161.264
 20
249.56
 10
161.264
 20
188.28
 10
141.57600000000002
 20
188.28
 10
141.57600000000002
 20
249.56
  0
LWPOLYLINE
  5
B8
330
17
100
AcDbEntity
  8
GEOMETRY
100
AcDbPolyline
 90
5
 70
0
 10
169.464
 20
176.07999999999998
 10
193.552
 20
176.07999999999998
 10
193.552
 20
162.72
 10
169.464
 20
162.72
 10
169.464
 20
176.07999999999998
  0
LWPOLYLINE
  5
B9
330
17
100
AcDbEntity
  8
GEOMETRY
100
AcDbPolyline
 90
5
 70
0
 10
170.184
 20
175.36
 10
192.832
 20
175.36
 10
192.832
 20
163.44
 10
170.184
 20
163.44
 10
170.184
 20
175.36
  0
LWPOLYLINE
  5
BA
330
17
100
AcDbEntity
  8
GEOMETRY
100
AcDbPolyline
 90
5
 70
0
 10
170.824
 20
174.72
 10
192.192
 20
174.72
 10
192.192
 20
164.07999999999998
 10
170.824
 20
164.07999999999998
 10
170.824
 20
174.72
  0
LWPOLYLINE
  5
BB
330
17
100
AcDbEntity
  8
GEOMETRY
100
AcDbPolyline
 90
5
 70
0
 10
171.664
 20
173.88
 10
191.35199999999998
 20
173.88
 10
191.35199999999998
 20
164.92
 10
171.664
 20
164.92
 10
171.664
 20
173.88
  0
LWPOLYLINE
  5
BC
330
17
100
AcDbEntity
  8
GEOMETRY
100
AcDbPolyline
 90
5
 70
0
 10
169.464
 20
251.76
 10
193.552
 20
251.76
 10
193.552
 20
186.07999999999998
 10
169.464
 20
186.07999999999998
 10
169.464
 20
251.76
  0
LWPOLYLINE
  5
BD
330
17
100
AcDbEntity
  8
GEOMETRY
100
AcDbPolyline
 90
5
 70
0
 10
170.184
 20
251.04
 10
192.832
 20
251.04
 10
192.832
 20
186.8
 10
170.184
 20
186.8
 10
170.184
 20
251.04
  0
LWPOLYLINE
  5
BE
330
17
100
AcDbEntity
  8
GEOMETRY
100
AcDbPolyline
 90
5
 70
0
 10
170.824
 20
250.4
 10
192.192
 20
250.4
 10
192.192
 20
187.44
 10
170.824
 20
187.44
 10
170.824
 20
250.4
  0
LWPOLYLINE
  5
BF
330
17
100
AcDbEntity
  8
GEOMETRY
100
AcDbPolyline
 90
5
 70
0
 10
171.664
 20
249.56
 10
191.35199999999998
 20
249.56
 10
191.35199999999998
 20
188.28
 10
171.664
 20
188.28
 10
171.664
 20
249.56
  0
LWPOLYLINE
  5
C0
330
17
100
AcDbEntity
  8
GEOMETRY
100
AcDbPolyline
 90
5
 70
0
 10
199.55200000000002
 20
176.07999999999998
 10
223.64000000000001
 20
176.07999999999998
 10
223.64000000000001
 20
162.72
 10
199.55200000000002
 20
162.72
 10
199.55200000000002
 20
176.07999999999998
  0
LWPOLYLINE
  5
C1
330
17
100
AcDbEntity
  8
GEOMETRY
100
AcDbPolyline
 90
5
 70
0
 10
200.27200000000002
 20
175.36
 10
222.92000000000002
 20
175.36
 10
222.92000000000002
 20
163.44
 10
200.27200000000002
 20
163.44
 10
200.27200000000002
 20
175.36
  0
LWPOLYLINE
  5
C2
330
17
100
AcDbEntity
  8
GEOMETRY
100
AcDbPolyline
 90
5
 70
0
 10
200.912
 20
174.72
 10
222.28
 20
174.72
 10
222.28
 20
164.07999999999998
 10
200.912
 20
164.07999999999998
 10
200.912
 20
174.72
  0
LWPOLYLINE
  5
C3
330
17
100
AcDbEntity
  8
GEOMETRY
100
AcDbPolyline
 90
5
 70
0
 10
201.752
 20
173.88
 10
221.44
 20
173.88
 10
221.44
 20
164.92
 10
201.752
 20
164.92
 10
201.752
 20
173.88
  0
LWPOLYLINE
  5
C4
330
17
100
AcDbEntity
  8
GEOMETRY
100
AcDbPolyline
 90
5
 70
0
 10
199.55200000000002
 20
251.76
 10
223.64000000000001
 20
251.76
 10
223.64000000000001
 20
186.07999999999998
 10
199.55200000000002
 20
186.07999999999998
 10
199.55200000000002
 20
251.76
  0
LWPOLYLINE
  5
C5
330
17
100
AcDbEntity
  8
GEOMETRY
100
AcDbPolyline
 90
5
 70
0
 10
200.27200000000002
 20
251.04
 10
222.92000000000002
 20
251.04
 10
222.92000000000002
 20
186.8
 10
200.27200000000002
 20
186.8
 10
200.27200000000002
 20
251.04
  0
LWPOLYLINE
  5
C6
330
17
100
AcDbEntity
  8
GEOMETRY
100
AcDbPolyline
 90
5
 70
0
 10
200.912
 20
250.4
 10
222.28
 20
250.4
 10
222.28
 20
187.44
 10
200.912
 20
187.44
 10
200.912
 20
250.4
  0
LWPOLYLINE
  5
C7
330
17
100
AcDbEntity
  8
GEOMETRY
100
AcDbPolyline
 90
5
 70
0
 10
201.752
 20
249.56
 10
221.44
 20
249.56
 10
221.44
 20
188.28
 10
201.752
 20
188.28
 10
201.752
 20
249.56
  0
LWPOLYLINE
  5
C8
330
17
100
AcDbEntity
  8
GEOMETRY
100
AcDbPolyline
 90
5
 70
0
 10
268.20000000000005
 20
176.07999999999998
 10
288.64000000000004
 20
176.07999999999998
 10
288.64000000000004
 20
162.72
 10
268.20000000000005
 20
162.72
 10
268.20000000000005
 20
176.07999999999998
  0
LWPOLYLINE
  5
C9
330
17
100
AcDbEntity
  8
GEOMETRY
100
AcDbPolyline
 90
5
 70
0
 10
268.92
 20
175.36
 10
287.92
 20
175.36
 10
287.92
 20
163.44
 10
268.92
 20
163.44
 10
268.92
 20
175.36
  0
LWPOLYLINE
  5
CA
330
17
100
AcDbEntity
  8
GEOMETRY
100
AcDbPolyline
 90
5
 70
0
 10
269.56
 20
174.72
 10
287.28
 20
174.72
 10
287.28
 20
164.07999999999998
 10
269.56
 20
164.07999999999998
 10
269.56
 20
174.72
  0
LWPOLYLINE
  5
CB
330
17
100
AcDbEntity
  8
GEOMETRY
100
AcDbPolyline
 90
5
 70
0
 10
270.4
 20
173.88
 10
286.44
 20
173.88
 10
286.44
 20
164.92
 10
270.4
 20
164.92
 10
270.4
 20
173.88
  0
LWPOLYLINE
  5
CC
330
17
100
AcDbEntity
  8
GEOMETRY
100
AcDbPolyline
 90
5
 70
0
 10
268.20000000000005
 20
251.76
 10
288.64000000000004
 20
251.76
 10
288.64000000000004
 20
186.07999999999998
 10
268.20000000000005
 20
186.07999999999998
 10
268.20000000000005
 20
251.76
  0
LWPOLYLINE
  5
CD
330
17
100
AcDbEntity
  8
GEOMETRY
100
AcDbPolyline
 90
5
 70
0
 10
268.92
 20
251.04
 10
287.92
 20
251.04
 10
287.92
 20
186.8
 10
268.92
 20
186.8
 10
268.92
 20
251.04
  0
LWPOLYLINE
  5
CE
330
17
100
AcDbEntity
  8
GEOMETRY
100
AcDbPolyline
 90
5
 70
0
 10
269.56
 20
250.4
 10
287.28
 20
250.4
 10
287.28
 20
187.44
 10
269.56
 20
187.44
 10
269.56
 20
250.4
  0
LWPOLYLINE
  5
CF
330
17
100
AcDbEntity
  8
GEOMETRY
100
AcDbPolyline
 90
5
 70
0
 10
270.4
 20
249.56
 10
286.44
 20
249.56
 10
286.44
 20
188.28
 10
270.4
 20
188.28
 10
270.4
 20
249.56
  0
SPLINE
  5
D0
330
17
100
AcDbEntity
  8
GEOMETRY
100
AcDbSpline
 70
0
 71
3
 72
41
 73
37
 74
0
 40
0.0
 40
0.0
 40
0.0
 40
0.0
 40
1.0
 40
1.0
 40
1.0
 40
2.0
 40
2.0
 40
2.0
 40
3.0
 40
3.0
 40
3.0
 40
4.0
 40
4.0
 40
4.0
 40
5.0
 40
5.0
 40
5.0
 40
6.0
 40
6.0
 40
6.0
 40
7.0
 40
7.0
 40
7.0
 40
8.0
 40
8.0
 40
8.0
 40
9.0
 40
9.0
 40
9.0
 40
10.0
 40
10.0
 40
10.0
 40
11.0
 40
11.0
 40
11.0
 40
12.0
 40
12.0
 40
12.0
 40
12.0
 10
92.364
 20
205.84
 30
0.0
 10
92.364
 20
205.4187433717359
 30
0.0
 10
92.3122416655002
 20
205.0048189415893
 30
0.0
 10
92.21394845223857
 20
204.64
 30
0.0
 10
92.11565523897694
 20
204.27518105841068
 30
0.0
 10
91.97424883940835
 20
203.9721673450494
 30
0.0
 10
91.804
 20
203.76153903091733
 30
0.0
 10
91.63375116059166
 20
203.55091071678527
 30
0.0
 10
91.44058642652325
 20
203.44
 30
0.0
 10
91.244
 20
203.44
 30
0.0
 10
91.04741357347675
 20
203.44
 30
0.0
 10
90.85424883940834
 20
203.55091071678527
 30
0.0
 10
90.684
 20
203.76153903091733
 30
0.0
 10
90.51375116059165
 20
203.9721673450494
 30
0.0
 10
90.37234476102306
 20
204.27518105841068
 30
0.0
 10
90.27405154776143
 20
204.64
 30
0.0
 10
90.1757583344998
 20
205.0048189415893
 30
0.0
 10
90.124
 20
205.4187433717359
 30
0.0
 10
90.124
 20
205.84
 30
0.0
 10
90.124
 20
206.2612566282641
 30
0.0
 10
90.1757583344998
 20
206.67518105841071
 30
0.0
 10
90.27405154776143
 20
207.04000000000002
 30
0.0
 10
90.37234476102306
 20
207.40481894158933
 30
0.0
 10
90.51375116059165
 20
207.7078326549506
 30
0.0
 10
90.684
 20
207.91846096908267
 30
0.0
 10
90.85424883940834
 20
208.12908928321474
 30
0.0
 10
91.04741357347675
 20
208.24
 30
0.0
 10
91.244
 20
208.24
 30
0.0
 10
91.44058642652325
 20
208.24
 30
0.0
 10
91.63375116059166
 20
208.12908928321474
 30
0.0
 10
91.804
 20
207.91846096908267
 30
0.0
 10
91.97424883940835
 20
207.7078326549506
 30
0.0
 10
92.11565523897694
 20
207.40481894158933
 30
0.0
 10
92.21394845223857
 20
207.04000000000002
 30
0.0
 10
92.3122416655002
 20
206.67518105841071
 30
0.0
 10
92.364
 20
206.2612566282641
 30
0.0
 10
92.364
 20
205.84
 30
0.0
  0
SPLINE
  5
D1
330
17
100
AcDbEntity
  8
GEOMETRY
100
AcDbSpline
 70
0
 71
3
 72
41
 73
37
 74
0
 40
0.0
 40
0.0
 40
0.0
 40
0.0
 40
1.0
 40
1.0
 40
1.0
 40
2.0
 40
2.0
 40
2.0
 40
3.0
 40
3.0
 40
3.0
 40
4.0
 40
4.0
 40
4.0
 40
5.0
 40
5.0
 40
5.0
 40
6.0
 40
6.0
 40
6.0
 40
7.0
 40
7.0
 40
7.0
 40
8.0
 40
8.0
 40
8.0
 40
9.0
 40
9.0
 40
9.0
 40
10.0
 40
10.0
 40
10.0
 40
11.0
 40
11.0
 40
11.0
 40
12.0
 40
12.0
 40
12.0
 40
12.0
 10
91.964
 20
205.84
 30
0.0
 10
91.964
 20
205.5310784726063
 30
0.0
 10
91.9307267849644
 20
205.22753389049882
 30
0.0
 10
91.8675382907248
 20
204.96
 30
0.0
 10
91.80434979648518
 20
204.6924661095012
 30
0.0
 10
91.71344568247679
 20
204.47025605303622
 30
0.0
 10
91.604
 20
204.3157952893394
 30
0.0
 10
91.49455431752321
 20
204.16133452564253
 30
0.0
 10
91.37037698847924
 20
204.07999999999998
 30
0.0
 10
91.244
 20
204.07999999999998
 30
0.0
 10
91.11762301152076
 20
204.07999999999998
 30
0.0
 10
90.99344568247679
 20
204.16133452564253
 30
0.0
 10
90.884
 20
204.3157952893394
 30
0.0
 10
90.77455431752321
 20
204.47025605303622
 30
0.0
 10
90.68365020351482
 20
204.69246610950117
 30
0.0
 10
90.6204617092752
 20
204.95999999999998
 30
0.0
 10
90.5572732150356
 20
205.22753389049882
 30
0.0
 10
90.524
 20
205.5310784726063
 30
0.0
 10
90.524
 20
205.84
 30
0.0
 10
90.524
 20
206.1489215273937
 30
0.0
 10
90.5572732150356
 20
206.4524661095012
 30
0.0
 10
90.6204617092752
 20
206.72
 30
0.0
 10
90.68365020351482
 20
206.9875338904988
 30
0.0
 10
90.77455431752321
 20
207.20974394696378
 30
0.0
 10
90.884
 20
207.3642047106606
 30
0.0
 10
90.99344568247679
 20
207.51866547435748
 30
0.0
 10
91.11762301152076
 20
207.60000000000002
 30
0.0
 10
91.244
 20
207.60000000000002
 30
0.0
 10
91.37037698847924
 20
207.60000000000002
 30
0.0
 10
91.49455431752321
 20
207.51866547435748
 30
0.0
 10
91.604
 20
207.3642047106606
 30
0.0
 10
91.71344568247679
 20
207.20974394696378
 30
0.0
 10
91.80434979648518
 20
206.98753389049884
 30
0.0
 10
91.8675382907248
 20
206.72000000000003
 30
0.0
 10
91.9307267849644
 20
206.4524661095012
 30
0.0
 10
91.964
 20
206.1489215273937
 30
0.0
 10
91.964
 20
205.84
 30
0.0
  0
CIRCLE
  5
D2
330
17
100
AcDbEntity
  8
GEOMETRY
100
AcDbCircle
 10
91.244
 20
205.84
 30
0.0
 40
0.36
  0
SPLINE
  5
D3
330
17
100
AcDbEntity
  8
GEOMETRY
100
AcDbSpline
 70
0
 71
3
 72
8
 73
4
 74
0
 40
0.0
 40
0.0
 40
0.0
 40
0.0
 40
1.0
 40
1.0
 40
1.0
 40
1.0
 10
90.76400000000001
 20
205.44
 30
0.0
 10
88.444
 20
202.64
 30
0.0
 10
85.644
 20
203.84
 30
0.0
 10
85.244
 20
206.64
 30
0.0
  0
SPLINE
  5
D4
330
17
100
AcDbEntity
  8
GEOMETRY
100
AcDbSpline
 70
0
 71
3
 72
8
 73
4
 74
0
 40
0.0
 40
0.0
 40
0.0
 40
0.0
 40
1.0
 40
1.0
 40
1.0
 40
1.0
 10
90.76400000000001
 20
205.04
 30
0.0
 10
88.844
 20
202.96
 30
0.0
 10
85.884
 20
204.07999999999998
 30
0.0
 10
85.404
 20
206.4
 30
0.0
  0
SPLINE
  5
D5
330
17
100
AcDbEntity
  8
GEOMETRY
100
AcDbSpline
 70
0
 71
3
 72
8
 73
4
 74
0
 40
0.0
 40
0.0
 40
0.0
 40
0.0
 40
1.0
 40
1.0
 40
1.0
 40
1.0
 10
84.20400000000001
 20
206.64
 30
0.0
 10
84.89733333333334
 20
206.16
 30
0.0
 10
85.59066666666666
 20
206.16
 30
0.0
 10
86.284
 20
206.64
 30
0.0
  0
POLYLINE
  5
D6
330
17
100
AcDbEntity
  8
GEOMETRY
100
AcDb2dPolyline
 66
1
 10
0.0
 20
0.0
 30
0.0
 70
0
  0
VERTEX
  5
D7
330
D6
100
AcDbEntity
  8
GEOMETRY
100
AcDbVertex
100
AcDb2dVertex
 10
86.284
 20
206.64
 30
0.0
 70
0
  0
VERTEX
  5
D8
330
D6
100
AcDbEntity
  8
GEOMETRY
100
AcDbVertex
100
AcDb2dVertex
 10
85.964
 20
207.28
 30
0.0
 70
0
  0
VERTEX
  5
D9
330
D6
100
AcDbEntity
  8
GEOMETRY
100
AcDbVertex
100
AcDb2dVertex
 10
84.524
 20
207.28
 30
0.0
 70
0
  0
VERTEX
  5
DA
330
D6
100
AcDbEntity
  8
GEOMETRY
100
AcDbVertex
100
AcDb2dVertex
 10
84.20400000000001
 20
206.64
 30
0.0
 70
0
  0
SEQEND
  5
DB
330
D6
100
AcDbEntity
  8
GEOMETRY
  0
LWPOLYLINE
  5
DC
330
17
100
AcDbEntity
  8
GEOMETRY
100
AcDbPolyline
 90
5
 70
0
 10
84.924
 20
209.44
 10
85.56400000000001
 20
209.44
 10
85.56400000000001
 20
207.28
 10
84.924
 20
207.28
 10
84.924
 20
209.44
  0
LWPOLYLINE
  5
DD
330
17
100
AcDbEntity
  8
GEOMETRY
100
AcDbPolyline
 90
5
 70
0
 10
82.844
 20
209.44
 10
87.644
 20
209.44
 10
86.684
 20
213.44
 10
83.804
 20
213.44
 10
82.844
 20
209.44
  0
LINE
  5
DE
330
17
100
AcDbEntity
  8
GEOMETRY
100
AcDbLine
 10
83.644
 20
209.51999999999998
 30
0.0
 11
84.284
 21
213.36
 31
0.0
  0
LINE
  5
DF
330
17
100
AcDbEntity
  8
GEOMETRY
100
AcDbLine
 10
84.444
 20
209.51999999999998
 30
0.0
 11
84.76400000000001
 21
213.36
 31
0.0
  0
LINE
  5
E0
330
17
100
AcDbEntity
  8
GEOMETRY
100
AcDbLine
 10
85.244
 20
209.51999999999998
 30
0.0
 11
85.244
 21
213.36
 31
0.0
  0
LINE
  5
E1
330
17
100
AcDbEntity
  8
GEOMETRY
100
AcDbLine
 10
86.044
 20
209.51999999999998
 30
0.0
 11
85.724
 21
213.36
 31
0.0
  0
LINE
  5
E2
330
17
100
AcDbEntity
  8
GEOMETRY
100
AcDbLine
 10
86.844
 20
209.51999999999998
 30
0.0
 11
86.20400000000001
 21
213.36
 31
0.0
  0
SPLINE
  5
E3
330
17
100
AcDbEntity
  8
GEOMETRY
100
AcDbSpline
 70
0
 71
3
 72
8
 73
4
 74
0
 40
0.0
 40
0.0
 40
0.0
 40
0.0
 40
1.0
 40
1.0
 40
1.0
 40
1.0
 10
91.724
 20
205.44
 30
0.0
 10
94.04400000000001
 20
202.64
 30
0.0
 10
96.844
 20
203.84
 30
0.0
 10
97.244
 20
206.64
 30
0.0
  0
SPLINE
  5
E4
330
17
100
AcDbEntity
  8
GEOMETRY
100
AcDbSpline
 70
0
 71
3
 72
8
 73
4
 74
0
 40
0.0
 40
0.0
 40
0.0
 40
0.0
 40
1.0
 40
1.0
 40
1.0
 40
1.0
 10
91.724
 20
205.04
 30
0.0
 10
93.644
 20
202.96
 30
0.0
 10
96.604
 20
204.07999999999998
 30
0.0
 10
97.084
 20
206.4
 30
0.0
  0
SPLINE
  5
E5
330
17
100
AcDbEntity
  8
GEOMETRY
100
AcDbSpline
 70
0
 71
3
 72
8
 73
4
 74
0
 40
0.0
 40
0.0
 40
0.0
 40
0.0
 40
1.0
 40
1.0
 40
1.0
 40
1.0
 10
96.20400000000001
 20
206.64
 30
0.0
 10
96.89733333333334
 20
206.16
 30
0.0
 10
97.59066666666666
 20
206.16
 30
0.0
 10
98.28399999999999
 20
206.64
 30
0.0
  0
POLYLINE
  5
E6
330
17
100
AcDbEntity
  8
GEOMETRY
100
AcDb2dPolyline
 66
1
 10
0.0
 20
0.0
 30
0.0
 70
0
  0
VERTEX
  5
E7
330
E6
100
AcDbEntity
  8
GEOMETRY
100
AcDbVertex
100
AcDb2dVertex
 10
98.28399999999999
 20
206.64
 30
0.0
 70
0
  0
VERTEX
  5
E8
330
E6
100
AcDbEntity
  8
GEOMETRY
100
AcDbVertex
100
AcDb2dVertex
 10
97.964
 20
207.28
 30
0.0
 70
0
  0
VERTEX
  5
E9
330
E6
100
AcDbEntity
  8
GEOMETRY
100
AcDbVertex
100
AcDb2dVertex
 10
96.524
 20
207.28
 30
0.0
 70
0
  0
VERTEX
  5
EA
330
E6
100
AcDbEntity
  8
GEOMETRY
100
AcDbVertex
100
AcDb2dVertex
 10
96.20400000000001
 20
206.64
 30
0.0
 70
0
  0
SEQEND
  5
EB
330
E6
100
AcDbEntity
  8
GEOMETRY
  0
LWPOLYLINE
  5
EC
330
17
100
AcDbEntity
  8
GEOMETRY
100
AcDbPolyline
 90
5
 70
0
 10
96.924
 20
209.44
 10
97.56400000000001
 20
209.44
 10
97.56400000000001
 20
207.28
 10
96.924
 20
207.28
 10
96.924
 20
209.44
  0
LWPOLYLINE
  5
ED
330
17
100
AcDbEntity
  8
GEOMETRY
100
AcDbPolyline
 90
5
 70
0
 10
94.844
 20
209.44
 10
99.644
 20
209.44
 10
98.684
 20
213.44
 10
95.804
 20
213.44
 10
94.844
 20
209.44
  0
LINE
  5
EE
330
17
100
AcDbEntity
  8
GEOMETRY
100
AcDbLine
 10
95.644
 20
209.51999999999998
 30
0.0
 11
96.28399999999999
 21
213.36
 31
0.0
  0
LINE
  5
EF
330
17
100
AcDbEntity
  8
GEOMETRY
100
AcDbLine
 10
96.444
 20
209.51999999999998
 30
0.0
 11
96.76400000000001
 21
213.36
 31
0.0
  0
LINE
  5
F0
330
17
100
AcDbEntity
  8
GEOMETRY
100
AcDbLine
 10
97.244
 20
209.51999999999998
 30
0.0
 11
97.244
 21
213.36
 31
0.0
  0
LINE
  5
F1
330
17
100
AcDbEntity
  8
GEOMETRY
100
AcDbLine
 10
98.04400000000001
 20
209.51999999999998
 30
0.0
 11
97.724
 21
213.36
 31
0.0
  0
LINE
  5
F2
330
17
100
AcDbEntity
  8
GEOMETRY
100
AcDbLine
 10
98.844
 20
209.51999999999998
 30
0.0
 11
98.20400000000001
 21
213.36
 31
0.0
  0
SPLINE
  5
F3
330
17
100
AcDbEntity
  8
GEOMETRY
100
AcDbSpline
 70
0
 71
3
 72
41
 73
37
 74
0
 40
0.0
 40
0.0
 40
0.0
 40
0.0
 40
1.0
 40
1.0
 40
1.0
 40
2.0
 40
2.0
 40
2.0
 40
3.0
 40
3.0
 40
3.0
 40
4.0
 40
4.0
 40
4.0
 40
5.0
 40
5.0
 40
5.0
 40
6.0
 40
6.0
 40
6.0
 40
7.0
 40
7.0
 40
7.0
 40
8.0
 40
8.0
 40
8.0
 40
9.0
 40
9.0
 40
9.0
 40
10.0
 40
10.0
 40
10.0
 40
11.0
 40
11.0
 40
11.0
 40
12.0
 40
12.0
 40
12.0
 40
12.0
 10
152.54000000000002
 20
205.84
 30
0.0
 10
152.54000000000002
 20
205.4187433717359
 30
0.0
 10
152.48824166550023
 20
205.0048189415893
 30
0.0
 10
152.3899484522386
 20
204.64
 30
0.0
 10
152.29165523897697
 20
204.27518105841068
 30
0.0
 10
152.15024883940836
 20
203.9721673450494
 30
0.0
 10
151.98000000000002
 20
203.76153903091733
 30
0.0
 10
151.80975116059167
 20
203.55091071678527
 30
0.0
 10
151.61658642652327
 20
203.44
 30
0.0
 10
151.42000000000002
 20
203.44
 30
0.0
 10
151.22341357347676
 20
203.44
 30
0.0
 10
151.03024883940836
 20
203.55091071678527
 30
0.0
 10
150.86
 20
203.76153903091733
 30
0.0
 10
150.68975116059167
 20
203.9721673450494
 30
0.0
 10
150.54834476102306
 20
204.27518105841068
 30
0.0
 10
150.45005154776143
 20
204.64
 30
0.0
 10
150.3517583344998
 20
205.0048189415893
 30
0.0
 10
150.3
 20
205.4187433717359
 30
0.0
 10
150.3
 20
205.84
 30
0.0
 10
150.3
 20
206.2612566282641
 30
0.0
 10
150.3517583344998
 20
206.67518105841071
 30
0.0
 10
150.45005154776143
 20
207.04000000000002
 30
0.0
 10
150.54834476102306
 20
207.40481894158933
 30
0.0
 10
150.68975116059167
 20
207.7078326549506
 30
0.0
 10
150.86
 20
207.91846096908267
 30
0.0
 10
151.03024883940836
 20
208.12908928321474
 30
0.0
 10
151.22341357347676
 20
208.24
 30
0.0
 10
151.42000000000002
 20
208.24
 30
0.0
 10
151.61658642652327
 20
208.24
 30
0.0
 10
151.80975116059167
 20
208.12908928321474
 30
0.0
 10
151.98000000000002
 20
207.91846096908267
 30
0.0
 10
152.15024883940836
 20
207.7078326549506
 30
0.0
 10
152.29165523897697
 20
207.40481894158933
 30
0.0
 10
152.3899484522386
 20
207.04000000000002
 30
0.0
 10
152.48824166550023
 20
206.67518105841071
 30
0.0
 10
152.54000000000002
 20
206.2612566282641
 30
0.0
 10
152.54000000000002
 20
205.84
 30
0.0
  0
SPLINE
  5
F4
330
17
100
AcDbEntity
  8
GEOMETRY
100
AcDbSpline
 70
0
 71
3
 72
41
 73
37
 74
0
 40
0.0
 40
0.0
 40
0.0
 40
0.0
 40
1.0
 40
1.0
 40
1.0
 40
2.0
 40
2.0
 40
2.0
 40
3.0
 40
3.0
 40
3.0
 40
4.0
 40
4.0
 40
4.0
 40
5.0
 40
5.0
 40
5.0
 40
6.0
 40
6.0
 40
6.0
 40
7.0
 40
7.0
 40
7.0
 40
8.0
 40
8.0
 40
8.0
 40
9.0
 40
9.0
 40
9.0
 40
10.0
 40
10.0
 40
10.0
 40
11.0
 40
11.0
 40
11.0
 40
12.0
 40
12.0
 40
12.0
 40
12.0
 10
152.14000000000001
 20
205.84
 30
0.0
 10
152.14000000000001
 20
205.5310784726063
 30
0.0
 10
152.10672678496442
 20
205.22753389049882
 30
0.0
 10
152.0435382907248
 20
204.96
 30
0.0
 10
151.98034979648517
 20
204.6924661095012
 30
0.0
 10
151.88944568247683
 20
204.47025605303622
 30
0.0
 10
151.78000000000003
 20
204.3157952893394
 30
0.0
 10
151.67055431752323
 20
204.16133452564253
 30
0.0
 10
151.54637698847924
 20
204.07999999999998
 30
0.0
 10
151.42000000000002
 20
204.07999999999998
 30
0.0
 10
151.2936230115208
 20
204.07999999999998
 30
0.0
 10
151.16944568247683
 20
204.16133452564253
 30
0.0
 10
151.06000000000003
 20
204.3157952893394
 30
0.0
 10
150.95055431752323
 20
204.47025605303622
 30
0.0
 10
150.85965020351486
 20
204.69246610950117
 30
0.0
 10
150.79646170927523
 20
204.95999999999998
 30
0.0
 10
150.7332732150356
 20
205.22753389049882
 30
0.0
 10
150.70000000000002
 20
205.5310784726063
 30
0.0
 10
150.70000000000002
 20
205.84
 30
0.0
 10
150.70000000000002
 20
206.1489215273937
 30
0.0
 10
150.7332732150356
 20
206.4524661095012
 30
0.0
 10
150.79646170927523
 20
206.72
 30
0.0
 10
150.85965020351486
 20
206.9875338904988
 30
0.0
 10
150.9505543175232
 20
207.20974394696378
 30
0.0
 10
151.06
 20
207.3642047106606
 30
0.0
 10
151.1694456824768
 20
207.51866547435748
 30
0.0
 10
151.2936230115208
 20
207.60000000000002
 30
0.0
 10
151.42000000000002
 20
207.60000000000002
 30
0.0
 10
151.54637698847924
 20
207.60000000000002
 30
0.0
 10
151.6705543175232
 20
207.51866547435748
 30
0.0
 10
151.78
 20
207.3642047106606
 30
0.0
 10
151.8894456824768
 20
207.20974394696378
 30
0.0
 10
151.98034979648517
 20
206.98753389049884
 30
0.0
 10
152.0435382907248
 20
206.72000000000003
 30
0.0
 10
152.10672678496442
 20
206.4524661095012
 30
0.0
 10
152.14000000000001
 20
206.1489215273937
 30
0.0
 10
152.14000000000001
 20
205.84
 30
0.0
  0
CIRCLE
  5
F5
330
17
100
AcDbEntity
  8
GEOMETRY
100
AcDbCircle
 10
151.42000000000002
 20
205.84
 30
0.0
 40
0.36
  0
SPLINE
  5
F6
330
17
100
AcDbEntity
  8
GEOMETRY
100
AcDbSpline
 70
0
 71
3
 72
8
 73
4
 74
0
 40
0.0
 40
0.0
 40
0.0
 40
0.0
 40
1.0
 40
1.0
 40
1.0
 40
1.0
 10
150.94
 20
205.44
 30
0.0
 10
148.62
 20
202.64
 30
0.0
 10
145.82
 20
203.84
 30
0.0
 10
145.42000000000002
 20
206.64
 30
0.0
  0
SPLINE
  5
F7
330
17
100
AcDbEntity
  8
GEOMETRY
100
AcDbSpline
 70
0
 71
3
 72
8
 73
4
 74
0
 40
0.0
 40
0.0
 40
0.0
 40
0.0
 40
1.0
 40
1.0
 40
1.0
 40
1.0
 10
150.94
 20
205.04
 30
0.0
 10
149.01999999999998
 20
202.96
 30
0.0
 10
146.06
 20
204.07999999999998
 30
0.0
 10
145.57999999999998
 20
206.4
 30
0.0
  0
SPLINE
  5
F8
330
17
100
AcDbEntity
  8
GEOMETRY
100
AcDbSpline
 70
0
 71
3
 72
8
 73
4
 74
0
 40
0.0
 40
0.0
 40
0.0
 40
0.0
 40
1.0
 40
1.0
 40
1.0
 40
1.0
 10
144.38
 20
206.64
 30
0.0
 10
145.07333333333335
 20
206.16
 30
0.0
 10
145.76666666666668
 20
206.16
 30
0.0
 10
146.46
 20
206.64
 30
0.0
  0
POLYLINE
  5
F9
330
17
100
AcDbEntity
  8
GEOMETRY
100
AcDb2dPolyline
 66
1
 10
0.0
 20
0.0
 30
0.0
 70
0
  0
VERTEX
  5
FA
330
F9
100
AcDbEntity
  8
GEOMETRY
100
AcDbVertex
100
AcDb2dVertex
 10
146.46
 20
206.64
 30
0.0
 70
0
  0
VERTEX
  5
FB
330
F9
100
AcDbEntity
  8
GEOMETRY
100
AcDbVertex
100
AcDb2dVertex
 10
146.14
 20
207.28
 30
0.0
 70
0
  0
VERTEX
  5
FC
330
F9
100
AcDbEntity
  8
GEOMETRY
100
AcDbVertex
100
AcDb2dVertex
 10
144.7
 20
207.28
 30
0.0
 70
0
  0
VERTEX
  5
FD
330
F9
100
AcDbEntity
  8
GEOMETRY
100
AcDbVertex
100
AcDb2dVertex
 10
144.38
 20
206.64
 30
0.0
 70
0
  0
SEQEND
  5
FE
330
F9
100
AcDbEntity
  8
GEOMETRY
  0
LWPOLYLINE
  5
FF
330
17
100
AcDbEntity
  8
GEOMETRY
100
AcDbPolyline
 90
5
 70
0
 10
145.10000000000002
 20
209.44
 10
145.74
 20
209.44
 10
145.74
 20
207.28
 10
145.10000000000002
 20
207.28
 10
145.10000000000002
 20
209.44
  0
LWPOLYLINE
  5
100
330
17
100
AcDbEntity
  8
GEOMETRY
100
AcDbPolyline
 90
5
 70
0
 10
143.01999999999998
 20
209.44
 10
147.82
 20
209.44
 10
146.86
 20
213.44
 10
143.98000000000002
 20
213.44
 10
143.01999999999998
 20
209.44
  0
LINE
  5
101
330
17
100
AcDbEntity
  8
GEOMETRY
100
AcDbLine
 10
143.82
 20
209.51999999999998
 30
0.0
 11
144.46
 21
213.36
 31
0.0
  0
LINE
  5
102
330
17
100
AcDbEntity
  8
GEOMETRY
100
AcDbLine
 10
144.62
 20
209.51999999999998
 30
0.0
 11
144.94
 21
213.36
 31
0.0
  0
LINE
  5
103
330
17
100
AcDbEntity
  8
GEOMETRY
100
AcDbLine
 10
145.42000000000002
 20
209.51999999999998
 30
0.0
 11
145.42000000000002
 21
213.36
 31
0.0
  0
LINE
  5
104
330
17
100
AcDbEntity
  8
GEOMETRY
100
AcDbLine
 10
146.22
 20
209.51999999999998
 30
0.0
 11
145.9
 21
213.36
 31
0.0
  0
LINE
  5
105
330
17
100
AcDbEntity
  8
GEOMETRY
100
AcDbLine
 10
147.01999999999998
 20
209.51999999999998
 30
0.0
 11
146.38
 21
213.36
 31
0.0
  0
SPLINE
  5
106
330
17
100
AcDbEntity
  8
GEOMETRY
100
AcDbSpline
 70
0
 71
3
 72
8
 73
4
 74
0
 40
0.0
 40
0.0
 40
0.0
 40
0.0
 40
1.0
 40
1.0
 40
1.0
 40
1.0
 10
151.9
 20
205.44
 30
0.0
 10
154.22
 20
202.64
 30
0.0
 10
157.01999999999998
 20
203.84
 30
0.0
 10
157.42000000000002
 20
206.64
 30
0.0
  0
SPLINE
  5
107
330
17
100
AcDbEntity
  8
GEOMETRY
100
AcDbSpline
 70
0
 71
3
 72
8
 73
4
 74
0
 40
0.0
 40
0.0
 40
0.0
 40
0.0
 40
1.0
 40
1.0
 40
1.0
 40
1.0
 10
151.9
 20
205.04
 30
0.0
 10
153.82
 20
202.96
 30
0.0
 10
156.78
 20
204.07999999999998
 30
0.0
 10
157.26
 20
206.4
 30
0.0
  0
SPLINE
  5
108
330
17
100
AcDbEntity
  8
GEOMETRY
100
AcDbSpline
 70
0
 71
3
 72
8
 73
4
 74
0
 40
0.0
 40
0.0
 40
0.0
 40
0.0
 40
1.0
 40
1.0
 40
1.0
 40
1.0
 10
156.38
 20
206.64
 30
0.0
 10
157.07333333333335
 20
206.16
 30
0.0
 10
157.76666666666668
 20
206.16
 30
0.0
 10
158.46
 20
206.64
 30
0.0
  0
POLYLINE
  5
109
330
17
100
AcDbEntity
  8
GEOMETRY
100
AcDb2dPolyline
 66
1
 10
0.0
 20
0.0
 30
0.0
 70
0
  0
VERTEX
  5
10A
330
109
100
AcDbEntity
  8
GEOMETRY
100
AcDbVertex
100
AcDb2dVertex
 10
158.46
 20
206.64
 30
0.0
 70
0
  0
VERTEX
  5
10B
330
109
100
AcDbEntity
  8
GEOMETRY
100
AcDbVertex
100
AcDb2dVertex
 10
158.14
 20
207.28
 30
0.0
 70
0
  0
VERTEX
  5
10C
330
109
100
AcDbEntity
  8
GEOMETRY
100
AcDbVertex
100
AcDb2dVertex
 10
156.7
 20
207.28
 30
0.0
 70
0
  0
VERTEX
  5
10D
330
109
100
AcDbEntity
  8
GEOMETRY
100
AcDbVertex
100
AcDb2dVertex
 10
156.38
 20
206.64
 30
0.0
 70
0
  0
SEQEND
  5
10E
330
109
100
AcDbEntity
  8
GEOMETRY
  0
LWPOLYLINE
  5
10F
330
17
100
AcDbEntity
  8
GEOMETRY
100
AcDbPolyline
 90
5
 70
0
 10
157.10000000000002
 20
209.44
 10
157.74
 20
209.44
 10
157.74
 20
207.28
 10
157.10000000000002
 20
207.28
 10
157.10000000000002
 20
209.44
  0
LWPOLYLINE
  5
110
330
17
100
AcDbEntity
  8
GEOMETRY
100
AcDbPolyline
 90
5
 70
0
 10
155.01999999999998
 20
209.44
 10
159.82
 20
209.44
 10
158.86
 20
213.44
 10
155.98000000000002
 20
213.44
 10
155.01999999999998
 20
209.44
  0
LINE
  5
111
330
17
100
AcDbEntity
  8
GEOMETRY
100
AcDbLine
 10
155.82
 20
209.51999999999998
 30
0.0
 11
156.46
 21
213.36
 31
0.0
  0
LINE
  5
112
330
17
100
AcDbEntity
  8
GEOMETRY
100
AcDbLine
 10
156.62
 20
209.51999999999998
 30
0.0
 11
156.94
 21
213.36
 31
0.0
  0
LINE
  5
113
330
17
100
AcDbEntity
  8
GEOMETRY
100
AcDbLine
 10
157.42000000000002
 20
209.51999999999998
 30
0.0
 11
157.42000000000002
 21
213.36
 31
0.0
  0
LINE
  5
114
330
17
100
AcDbEntity
  8
GEOMETRY
100
AcDbLine
 10
158.22
 20
209.51999999999998
 30
0.0
 11
157.9
 21
213.36
 31
0.0
  0
LINE
  5
115
330
17
100
AcDbEntity
  8
GEOMETRY
100
AcDbLine
 10
159.01999999999998
 20
209.51999999999998
 30
0.0
 11
158.38
 21
213.36
 31
0.0
  0
SPLINE
  5
116
330
17
100
AcDbEntity
  8
GEOMETRY
100
AcDbSpline
 70
0
 71
3
 72
41
 73
37
 74
0
 40
0.0
 40
0.0
 40
0.0
 40
0.0
 40
1.0
 40
1.0
 40
1.0
 40
2.0
 40
2.0
 40
2.0
 40
3.0
 40
3.0
 40
3.0
 40
4.0
 40
4.0
 40
4.0
 40
5.0
 40
5.0
 40
5.0
 40
6.0
 40
6.0
 40
6.0
 40
7.0
 40
7.0
 40
7.0
 40
8.0
 40
8.0
 40
8.0
 40
9.0
 40
9.0
 40
9.0
 40
10.0
 40
10.0
 40
10.0
 40
11.0
 40
11.0
 40
11.0
 40
12.0
 40
12.0
 40
12.0
 40
12.0
 10
212.716
 20
205.84
 30
0.0
 10
212.716
 20
205.4187433717359
 30
0.0
 10
212.6642416655002
 20
205.0048189415893
 30
0.0
 10
212.5659484522386
 20
204.64
 30
0.0
 10
212.46765523897696
 20
204.27518105841068
 30
0.0
 10
212.32624883940835
 20
203.9721673450494
 30
0.0
 10
212.156
 20
203.76153903091733
 30
0.0
 10
211.98575116059166
 20
203.55091071678527
 30
0.0
 10
211.79258642652326
 20
203.44
 30
0.0
 10
211.596
 20
203.44
 30
0.0
 10
211.39941357347675
 20
203.44
 30
0.0
 10
211.20624883940835
 20
203.55091071678527
 30
0.0
 10
211.036
 20
203.76153903091733
 30
0.0
 10
210.86575116059166
 20
203.9721673450494
 30
0.0
 10
210.72434476102305
 20
204.27518105841068
 30
0.0
 10
210.62605154776142
 20
204.64
 30
0.0
 10
210.5277583344998
 20
205.0048189415893
 30
0.0
 10
210.476
 20
205.4187433717359
 30
0.0
 10
210.476
 20
205.84
 30
0.0
 10
210.476
 20
206.2612566282641
 30
0.0
 10
210.5277583344998
 20
206.67518105841071
 30
0.0
 10
210.62605154776142
 20
207.04000000000002
 30
0.0
 10
210.72434476102305
 20
207.40481894158933
 30
0.0
 10
210.86575116059166
 20
207.7078326549506
 30
0.0
 10
211.036
 20
207.91846096908267
 30
0.0
 10
211.20624883940835
 20
208.12908928321474
 30
0.0
 10
211.39941357347675
 20
208.24
 30
0.0
 10
211.596
 20
208.24
 30
0.0
 10
211.79258642652326
 20
208.24
 30
0.0
 10
211.98575116059166
 20
208.12908928321474
 30
0.0
 10
212.156
 20
207.91846096908267
 30
0.0
 10
212.32624883940835
 20
207.7078326549506
 30
0.0
 10
212.46765523897696
 20
207.40481894158933
 30
0.0
 10
212.5659484522386
 20
207.04000000000002
 30
0.0
 10
212.6642416655002
 20
206.67518105841071
 30
0.0
 10
212.716
 20
206.2612566282641
 30
0.0
 10
212.716
 20
205.84
 30
0.0
  0
SPLINE
  5
117
330
17
100
AcDbEntity
  8
GEOMETRY
100
AcDbSpline
 70
0
 71
3
 72
41
 73
37
 74
0
 40
0.0
 40
0.0
 40
0.0
 40
0.0
 40
1.0
 40
1.0
 40
1.0
 40
2.0
 40
2.0
 40
2.0
 40
3.0
 40
3.0
 40
3.0
 40
4.0
 40
4.0
 40
4.0
 40
5.0
 40
5.0
 40
5.0
 40
6.0
 40
6.0
 40
6.0
 40
7.0
 40
7.0
 40
7.0
 40
8.0
 40
8.0
 40
8.0
 40
9.0
 40
9.0
 40
9.0
 40
10.0
 40
10.0
 40
10.0
 40
11.0
 40
11.0
 40
11.0
 40
12.0
 40
12.0
 40
12.0
 40
12.0
 10
212.316
 20
205.84
 30
0.0
 10
212.316
 20
205.5310784726063
 30
0.0
 10
212.2827267849644
 20
205.22753389049882
 30
0.0
 10
212.21953829072478
 20
204.96
 30
0.0
 10
212.15634979648516
 20
204.6924661095012
 30
0.0
 10
212.06544568247682
 20
204.47025605303622
 30
0.0
 10
211.95600000000002
 20
204.3157952893394
 30
0.0
 10
211.8465543175232
 20
204.16133452564253
 30
0.0
 10
211.72237698847923
 20
204.07999999999998
 30
0.0
 10
211.596
 20
204.07999999999998
 30
0.0
 10
211.46962301152078
 20
204.07999999999998
 30
0.0
 10
211.34544568247682
 20
204.16133452564253
 30
0.0
 10
211.23600000000002
 20
204.3157952893394
 30
0.0
 10
211.12655431752322
 20
204.47025605303622
 30
0.0
 10
211.03565020351485
 20
204.69246610950117
 30
0.0
 10
210.97246170927522
 20
204.95999999999998
 30
0.0
 10
210.9092732150356
 20
205.22753389049882
 30
0.0
 10
210.876
 20
205.5310784726063
 30
0.0
 10
210.876
 20
205.84
 30
0.0
 10
210.876
 20
206.1489215273937
 30
0.0
 10
210.9092732150356
 20
206.4524661095012
 30
0.0
 10
210.97246170927522
 20
206.72
 30
0.0
 10
211.03565020351485
 20
206.9875338904988
 30
0.0
 10
211.1265543175232
 20
207.20974394696378
 30
0.0
 10
211.236
 20
207.3642047106606
 30
0.0
 10
211.3454456824768
 20
207.51866547435748
 30
0.0
 10
211.46962301152078
 20
207.60000000000002
 30
0.0
 10
211.596
 20
207.60000000000002
 30
0.0
 10
211.72237698847923
 20
207.60000000000002
 30
0.0
 10
211.84655431752319
 20
207.51866547435748
 30
0.0
 10
211.956
 20
207.3642047106606
 30
0.0
 10
212.0654456824768
 20
207.20974394696378
 30
0.0
 10
212.15634979648516
 20
206.98753389049884
 30
0.0
 10
212.21953829072478
 20
206.72000000000003
 30
0.0
 10
212.2827267849644
 20
206.4524661095012
 30
0.0
 10
212.316
 20
206.1489215273937
 30
0.0
 10
212.316
 20
205.84
 30
0.0
  0
CIRCLE
  5
118
330
17
100
AcDbEntity
  8
GEOMETRY
100
AcDbCircle
 10
211.596
 20
205.84
 30
0.0
 40
0.36
  0
SPLINE
  5
119
330
17
100
AcDbEntity
  8
GEOMETRY
100
AcDbSpline
 70
0
 71
3
 72
8
 73
4
 74
0
 40
0.0
 40
0.0
 40
0.0
 40
0.0
 40
1.0
 40
1.0
 40
1.0
 40
1.0
 10
211.116
 20
205.44
 30
0.0
 10
208.79600000000002
 20
202.64
 30
0.0
 10
205.996
 20
203.84
 30
0.0
 10
205.596
 20
206.64
 30
0.0
  0
SPLINE
  5
11A
330
17
100
AcDbEntity
  8
GEOMETRY
100
AcDbSpline
 70
0
 71
3
 72
8
 73
4
 74
0
 40
0.0
 40
0.0
 40
0.0
 40
0.0
 40
1.0
 40
1.0
 40
1.0
 40
1.0
 10
211.116
 20
205.04
 30
0.0
 10
209.196
 20
202.96
 30
0.0
 10
206.23600000000002
 20
204.07999999999998
 30
0.0
 10
205.756
 20
206.4
 30
0.0
  0
SPLINE
  5
11B
330
17
100
AcDbEntity
  8
GEOMETRY
100
AcDbSpline
 70
0
 71
3
 72
8
 73
4
 74
0
 40
0.0
 40
0.0
 40
0.0
 40
0.0
 40
1.0
 40
1.0
 40
1.0
 40
1.0
 10
204.556
 20
206.64
 30
0.0
 10
205.24933333333334
 20
206.16
 30
0.0
 10
205.94266666666667
 20
206.16
 30
0.0
 10
206.636
 20
206.64
 30
0.0
  0
POLYLINE
  5
11C
330
17
100
AcDbEntity
  8
GEOMETRY
100
AcDb2dPolyline
 66
1
 10
0.0
 20
0.0
 30
0.0
 70
0
  0
VERTEX
  5
11D
330
11C
100
AcDbEntity
  8
GEOMETRY
100
AcDbVertex
100
AcDb2dVertex
 10
206.636
 20
206.64
 30
0.0
 70
0
  0
VERTEX
  5
11E
330
11C
100
AcDbEntity
  8
GEOMETRY
100
AcDbVertex
100
AcDb2dVertex
 10
206.316
 20
207.28
 30
0.0
 70
0
  0
VERTEX
  5
11F
330
11C
100
AcDbEntity
  8
GEOMETRY
100
AcDbVertex
100
AcDb2dVertex
 10
204.876
 20
207.28
 30
0.0
 70
0
  0
VERTEX
  5
120
330
11C
100
AcDbEntity
  8
GEOMETRY
100
AcDbVertex
100
AcDb2dVertex
 10
204.556
 20
206.64
 30
0.0
 70
0
  0
SEQEND
  5
121
330
11C
100
AcDbEntity
  8
GEOMETRY
  0
LWPOLYLINE
  5
122
330
17
100
AcDbEntity
  8
GEOMETRY
100
AcDbPolyline
 90
5
 70
0
 10
205.276
 20
209.44
 10
205.916
 20
209.44
 10
205.916
 20
207.28
 10
205.276
 20
207.28
 10
205.276
 20
209.44
  0
LWPOLYLINE
  5
123
330
17
100
AcDbEntity
  8
GEOMETRY
100
AcDbPolyline
 90
5
 70
0
 10
203.196
 20
209.44
 10
207.996
 20
209.44
 10
207.036
 20
213.44
 10
204.156
 20
213.44
 10
203.196
 20
209.44
  0
LINE
  5
124
330
17
100
AcDbEntity
  8
GEOMETRY
100
AcDbLine
 10
203.996
 20
209.51999999999998
 30
0.0
 11
204.636
 21
213.36
 31
0.0
  0
LINE
  5
125
330
17
100
AcDbEntity
  8
GEOMETRY
100
AcDbLine
 10
204.79600000000002
 20
209.51999999999998
 30
0.0
 11
205.116
 21
213.36
 31
0.0
  0
LINE
  5
126
330
17
100
AcDbEntity
  8
GEOMETRY
100
AcDbLine
 10
205.596
 20
209.51999999999998
 30
0.0
 11
205.596
 21
213.36
 31
0.0
  0
LINE
  5
127
330
17
100
AcDbEntity
  8
GEOMETRY
100
AcDbLine
 10
206.39600000000002
 20
209.51999999999998
 30
0.0
 11
206.076
 21
213.36
 31
0.0
  0
LINE
  5
128
330
17
100
AcDbEntity
  8
GEOMETRY
100
AcDbLine
 10
207.196
 20
209.51999999999998
 30
0.0
 11
206.556
 21
213.36
 31
0.0
  0
SPLINE
  5
129
330
17
100
AcDbEntity
  8
GEOMETRY
100
AcDbSpline
 70
0
 71
3
 72
8
 73
4
 74
0
 40
0.0
 40
0.0
 40
0.0
 40
0.0
 40
1.0
 40
1.0
 40
1.0
 40
1.0
 10
212.076
 20
205.44
 30
0.0
 10
214.39600000000002
 20
202.64
 30
0.0
 10
217.196
 20
203.84
 30
0.0
 10
217.596
 20
206.64
 30
0.0
  0
SPLINE
  5
12A
330
17
100
AcDbEntity
  8
GEOMETRY
100
AcDbSpline
 70
0
 71
3
 72
8
 73
4
 74
0
 40
0.0
 40
0.0
 40
0.0
 40
0.0
 40
1.0
 40
1.0
 40
1.0
 40
1.0
 10
212.076
 20
205.04
 30
0.0
 10
213.996
 20
202.96
 30
0.0
 10
216.95600000000002
 20
204.07999999999998
 30
0.0
 10
217.436
 20
206.4
 30
0.0
  0
SPLINE
  5
12B
330
17
100
AcDbEntity
  8
GEOMETRY
100
AcDbSpline
 70
0
 71
3
 72
8
 73
4
 74
0
 40
0.0
 40
0.0
 40
0.0
 40
0.0
 40
1.0
 40
1.0
 40
1.0
 40
1.0
 10
216.556
 20
206.64
 30
0.0
 10
217.24933333333334
 20
206.16
 30
0.0
 10
217.94266666666667
 20
206.16
 30
0.0
 10
218.636
 20
206.64
 30
0.0
  0
POLYLINE
  5
12C
330
17
100
AcDbEntity
  8
GEOMETRY
100
AcDb2dPolyline
 66
1
 10
0.0
 20
0.0
 30
0.0
 70
0
  0
VERTEX
  5
12D
330
12C
100
AcDbEntity
  8
GEOMETRY
100
AcDbVertex
100
AcDb2dVertex
 10
218.636
 20
206.64
 30
0.0
 70
0
  0
VERTEX
  5
12E
330
12C
100
AcDbEntity
  8
GEOMETRY
100
AcDbVertex
100
AcDb2dVertex
 10
218.316
 20
207.28
 30
0.0
 70
0
  0
VERTEX
  5
12F
330
12C
100
AcDbEntity
  8
GEOMETRY
100
AcDbVertex
100
AcDb2dVertex
 10
216.876
 20
207.28
 30
0.0
 70
0
  0
VERTEX
  5
130
330
12C
100
AcDbEntity
  8
GEOMETRY
100
AcDbVertex
100
AcDb2dVertex
 10
216.556
 20
206.64
 30
0.0
 70
0
  0
SEQEND
  5
131
330
12C
100
AcDbEntity
  8
GEOMETRY
  0
LWPOLYLINE
  5
132
330
17
100
AcDbEntity
  8
GEOMETRY
100
AcDbPolyline
 90
5
 70
0
 10
217.276
 20
209.44
 10
217.916
 20
209.44
 10
217.916
 20
207.28
 10
217.276
 20
207.28
 10
217.276
 20
209.44
  0
LWPOLYLINE
  5
133
330
17
100
AcDbEntity
  8
GEOMETRY
100
AcDbPolyline
 90
5
 70
0
 10
215.196
 20
209.44
 10
219.996
 20
209.44
 10
219.036
 20
213.44
 10
216.156
 20
213.44
 10
215.196
 20
209.44
  0
LINE
  5
134
330
17
100
AcDbEntity
  8
GEOMETRY
100
AcDbLine
 10
215.996
 20
209.51999999999998
 30
0.0
 11
216.636
 21
213.36
 31
0.0
  0
LINE
  5
135
330
17
100
AcDbEntity
  8
GEOMETRY
100
AcDbLine
 10
216.79600000000002
 20
209.51999999999998
 30
0.0
 11
217.116
 21
213.36
 31
0.0
  0
LINE
  5
136
330
17
100
AcDbEntity
  8
GEOMETRY
100
AcDbLine
 10
217.596
 20
209.51999999999998
 30
0.0
 11
217.596
 21
213.36
 31
0.0
  0
LINE
  5
137
330
17
100
AcDbEntity
  8
GEOMETRY
100
AcDbLine
 10
218.39600000000002
 20
209.51999999999998
 30
0.0
 11
218.076
 21
213.36
 31
0.0
  0
LINE
  5
138
330
17
100
AcDbEntity
  8
GEOMETRY
100
AcDbLine
 10
219.196
 20
209.51999999999998
 30
0.0
 11
218.556
 21
213.36
 31
0.0
  0
LWPOLYLINE
  5
139
330
17
100
AcDbEntity
  8
GEOMETRY
100
AcDbPolyline
 90
5
 70
0
 10
227.64000000000001
 20
254.8
 10
264.20000000000005
 20
254.8
 10
264.20000000000005
 20
154.24
 10
227.64000000000001
 20
154.24
 10
227.64000000000001
 20
254.8
  0
LWPOLYLINE
  5
13A
330
17
100
AcDbEntity
  8
GEOMETRY
100
AcDbPolyline
 90
5
 70
0
 10
228.44
 20
254.0
 10
263.4
 20
254.0
 10
263.4
 20
154.24
 10
228.44
 20
154.24
 10
228.44
 20
254.0
  0
LWPOLYLINE
  5
13B
330
17
100
AcDbEntity
  8
GEOMETRY
100
AcDbPolyline
 90
5
 70
0
 10
229.24
 20
253.2
 10
262.6
 20
253.2
 10
262.6
 20
154.24
 10
229.24
 20
154.24
 10
229.24
 20
253.2
  0
LWPOLYLINE
  5
13C
330
17
100
AcDbEntity
  8
GEOMETRY
100
AcDbPolyline
 90
5
 70
0
 10
230.68
 20
251.76
 10
261.16
 20
251.76
 10
261.16
 20
154.24
 10
230.68
 20
154.24
 10
230.68
 20
251.76
  0
LWPOLYLINE
  5
13D
330
17
100
AcDbEntity
  8
GEOMETRY
100
AcDbPolyline
 90
5
 70
0
 10
235.08
 20
245.76
 10
256.76
 20
245.76
 10
256.76
 20
206.24
 10
235.08
 20
206.24
 10
235.08
 20
245.76
  0
LWPOLYLINE
  5
13E
330
17
100
AcDbEntity
  8
GEOMETRY
100
AcDbPolyline
 90
5
 70
0
 10
236.28
 20
244.56
 10
255.56
 20
244.56
 10
255.56
 20
207.44
 10
236.28
 20
207.44
 10
236.28
 20
244.56
  0
LWPOLYLINE
  5
13F
330
17
100
AcDbEntity
  8
GEOMETRY
100
AcDbPolyline
 90
5
 70
0
 10
235.08
 20
200.24
 10
256.76
 20
200.24
 10
256.76
 20
160.24
 10
235.08
 20
160.24
 10
235.08
 20
200.24
  0
LWPOLYLINE
  5
140
330
17
100
AcDbEntity
  8
GEOMETRY
100
AcDbPolyline
 90
5
 70
0
 10
236.28
 20
199.04
 10
255.56
 20
199.04
 10
255.56
 20
161.44
 10
236.28
 20
161.44
 10
236.28
 20
199.04
  0
LWPOLYLINE
  5
141
330
17
100
AcDbEntity
  8
GEOMETRY
100
AcDbPolyline
 90
5
 70
0
 10
257.96000000000004
 20
196.64
 10
258.76000000000005
 20
196.64
 10
258.76000000000005
 20
194.24
 10
257.96000000000004
 20
194.24
 10
257.96000000000004
 20
196.64
  0
LINE
  5
142
330
17
100
AcDbEntity
  8
GEOMETRY
100
AcDbLine
 10
258.36
 20
195.44
 30
0.0
 11
253.56
 21
195.44
 31
0.0
  0
LINE
  5
143
330
17
100
AcDbEntity
  8
GEOMETRY
100
AcDbLine
 10
56.0
 20
154.24
 30
0.0
 11
298.64
 21
154.24
 31
0.0
  0
LINE
  5
144
330
17
100
AcDbEntity
  8
GEOMETRY
  6
DASHED
100
AcDbLine
 10
56.0
 20
265.0
 30
0.0
 11
298.64
 21
265.0
 31
0.0
  0
LINE
  5
145
330
17
100
AcDbEntity
  8
DIMENSIONS
100
AcDbLine
 10
60.5
 20
149.24
 30
0.0
 11
232.18
 21
149.24
 31
0.0
  0
LINE
  5
146
330
17
100
AcDbEntity
  8
DIMENSIONS
100
AcDbLine
 10
62.0
 20
153.24
 30
0.0
 11
62.0
 21
148.04
 31
0.0
  0
LINE
  5
147
330
17
100
AcDbEntity
  8
DIMENSIONS
100
AcDbLine
 10
61.0
 20
148.24
 30
0.0
 11
63.0
 21
150.24
 31
0.0
  0
LINE
  5
148
330
17
100
AcDbEntity
  8
DIMENSIONS
100
AcDbLine
 10
73.2
 20
153.24
 30
0.0
 11
73.2
 21
148.04
 31
0.0
  0
LINE
  5
149
330
17
100
AcDbEntity
  8
DIMENSIONS
100
AcDbLine
 10
72.2
 20
148.24
 30
0.0
 11
74.2
 21
150.24
 31
0.0
  0
LINE
  5
14A
330
17
100
AcDbEntity
  8
DIMENSIONS
100
AcDbLine
 10
79.2
 20
153.24
 30
0.0
 11
79.2
 21
148.04
 31
0.0
  0
LINE
  5
14B
330
17
100
AcDbEntity
  8
DIMENSIONS
100
AcDbLine
 10
78.2
 20
148.24
 30
0.0
 11
80.2
 21
150.24
 31
0.0
  0
LINE
  5
14C
330
17
100
AcDbEntity
  8
DIMENSIONS
100
AcDbLine
 10
103.29
 20
153.24
 30
0.0
 11
103.29
 21
148.04
 31
0.0
  0
LINE
  5
14D
330
17
100
AcDbEntity
  8
DIMENSIONS
100
AcDbLine
 10
102.29
 20
148.24
 30
0.0
 11
104.29
 21
150.24
 31
0.0
  0
LINE
  5
14E
330
17
100
AcDbEntity
  8
DIMENSIONS
100
AcDbLine
 10
109.29
 20
153.24
 30
0.0
 11
109.29
 21
148.04
 31
0.0
  0
LINE
  5
14F
330
17
100
AcDbEntity
  8
DIMENSIONS
100
AcDbLine
 10
108.29
 20
148.24
 30
0.0
 11
110.29
 21
150.24
 31
0.0
  0
LINE
  5
150
330
17
100
AcDbEntity
  8
DIMENSIONS
100
AcDbLine
 10
133.38
 20
153.24
 30
0.0
 11
133.38
 21
148.04
 31
0.0
  0
LINE
  5
151
330
17
100
AcDbEntity
  8
DIMENSIONS
100
AcDbLine
 10
132.38
 20
148.24
 30
0.0
 11
134.38
 21
150.24
 31
0.0
  0
LINE
  5
152
330
17
100
AcDbEntity
  8
DIMENSIONS
100
AcDbLine
 10
139.38
 20
153.24
 30
0.0
 11
139.38
 21
148.04
 31
0.0
  0
LINE
  5
153
330
17
100
AcDbEntity
  8
DIMENSIONS
100
AcDbLine
 10
138.38
 20
148.24
 30
0.0
 11
140.38
 21
150.24
 31
0.0
  0
LINE
  5
154
330
17
100
AcDbEntity
  8
DIMENSIONS
100
AcDbLine
 10
163.46
 20
153.24
 30
0.0
 11
163.46
 21
148.04
 31
0.0
  0
LINE
  5
155
330
17
100
AcDbEntity
  8
DIMENSIONS
100
AcDbLine
 10
162.46
 20
148.24
 30
0.0
 11
164.46
 21
150.24
 31
0.0
  0
LINE
  5
156
330
17
100
AcDbEntity
  8
DIMENSIONS
100
AcDbLine
 10
169.46
 20
153.24
 30
0.0
 11
169.46
 21
148.04
 31
0.0
  0
LINE
  5
157
330
17
100
AcDbEntity
  8
DIMENSIONS
100
AcDbLine
 10
168.46
 20
148.24
 30
0.0
 11
170.46
 21
150.24
 31
0.0
  0
LINE
  5
158
330
17
100
AcDbEntity
  8
DIMENSIONS
100
AcDbLine
 10
193.55
 20
153.24
 30
0.0
 11
193.55
 21
148.04
 31
0.0
  0
LINE
  5
159
330
17
100
AcDbEntity
  8
DIMENSIONS
100
AcDbLine
 10
192.55
 20
148.24
 30
0.0
 11
194.55
 21
150.24
 31
0.0
  0
LINE
  5
15A
330
17
100
AcDbEntity
  8
DIMENSIONS
100
AcDbLine
 10
199.55
 20
153.24
 30
0.0
 11
199.55
 21
148.04
 31
0.0
  0
LINE
  5
15B
330
17
100
AcDbEntity
  8
DIMENSIONS
100
AcDbLine
 10
198.55
 20
148.24
 30
0.0
 11
200.55
 21
150.24
 31
0.0
  0
LINE
  5
15C
330
17
100
AcDbEntity
  8
DIMENSIONS
100
AcDbLine
 10
223.64
 20
153.24
 30
0.0
 11
223.64
 21
148.04
 31
0.0
  0
LINE
  5
15D
330
17
100
AcDbEntity
  8
DIMENSIONS
100
AcDbLine
 10
222.64
 20
148.24
 30
0.0
 11
224.64
 21
150.24
 31
0.0
  0
LINE
  5
15E
330
17
100
AcDbEntity
  8
DIMENSIONS
100
AcDbLine
 10
227.64
 20
153.24
 30
0.0
 11
227.64
 21
148.04
 31
0.0
  0
LINE
  5
15F
330
17
100
AcDbEntity
  8
DIMENSIONS
100
AcDbLine
 10
226.64
 20
148.24
 30
0.0
 11
228.64
 21
150.24
 31
0.0
  0
LINE
  5
160
330
17
100
AcDbEntity
  8
DIMENSIONS
100
AcDbLine
 10
230.68
 20
153.24
 30
0.0
 11
230.68
 21
148.04
 31
0.0
  0
LINE
  5
161
330
17
100
AcDbEntity
  8
DIMENSIONS
100
AcDbLine
 10
229.68
 20
148.24
 30
0.0
 11
231.68
 21
150.24
 31
0.0
  0
TEXT
  5
162
330
17
100
AcDbEntity
  8
TEXT
100
AcDbText
 10
67.6
 20
150.04
 30
0.0
 40
0.864
  1
280
 72
1
 11
67.6
 21
150.04
 31
0.0
100
AcDbText
  0
TEXT
  5
163
330
17
100
AcDbEntity
  8
TEXT
100
AcDbText
 10
76.2
 20
150.04
 30
0.0
 40
0.864
  1
150
 72
1
 11
76.2
 21
150.04
 31
0.0
100
AcDbText
  0
TEXT
  5
164
330
17
100
AcDbEntity
  8
TEXT
100
AcDbText
 10
91.25
 20
150.04
 30
0.0
 40
0.864
  1
602
 72
1
 11
91.25
 21
150.04
 31
0.0
100
AcDbText
  0
TEXT
  5
165
330
17
100
AcDbEntity
  8
TEXT
100
AcDbText
 10
106.29
 20
150.04
 30
0.0
 40
0.864
  1
150
 72
1
 11
106.29
 21
150.04
 31
0.0
100
AcDbText
  0
TEXT
  5
166
330
17
100
AcDbEntity
  8
TEXT
100
AcDbText
 10
121.34
 20
150.04
 30
0.0
 40
0.864
  1
602
 72
1
 11
121.34
 21
150.04
 31
0.0
100
AcDbText
  0
TEXT
  5
167
330
17
100
AcDbEntity
  8
TEXT
100
AcDbText
 10
136.38
 20
150.04
 30
0.0
 40
0.864
  1
150
 72
1
 11
136.38
 21
150.04
 31
0.0
100
AcDbText
  0
TEXT
  5
168
330
17
100
AcDbEntity
  8
TEXT
100
AcDbText
 10
151.42
 20
150.04
 30
0.0
 40
0.864
  1
602
 72
1
 11
151.42
 21
150.04
 31
0.0
100
AcDbText
  0
TEXT
  5
169
330
17
100
AcDbEntity
  8
TEXT
100
AcDbText
 10
166.46
 20
150.04
 30
0.0
 40
0.864
  1
150
 72
1
 11
166.46
 21
150.04
 31
0.0
100
AcDbText
  0
TEXT
  5
16A
330
17
100
AcDbEntity
  8
TEXT
100
AcDbText
 10
181.5
 20
150.04
 30
0.0
 40
0.864
  1
602
 72
1
 11
181.5
 21
150.04
 31
0.0
100
AcDbText
  0
TEXT
  5
16B
330
17
100
AcDbEntity
  8
TEXT
100
AcDbText
 10
196.55
 20
150.04
 30
0.0
 40
0.864
  1
150
 72
1
 11
196.55
 21
150.04
 31
0.0
100
AcDbText
  0
TEXT
  5
16C
330
17
100
AcDbEntity
  8
TEXT
100
AcDbText
 10
211.59
 20
150.04
 30
0.0
 40
0.864
  1
602
 72
1
 11
211.59
 21
150.04
 31
0.0
100
AcDbText
  0
TEXT
  5
16D
330
17
100
AcDbEntity
  8
TEXT
100
AcDbText
 10
225.64
 20
150.04
 30
0.0
 40
0.864
  1
100
 72
1
 11
225.64
 21
150.04
 31
0.0
100
AcDbText
  0
TEXT
  5
16E
330
17
100
AcDbEntity
  8
TEXT
100
AcDbText
 10
229.16
 20
150.04
 30
0.0
 40
0.864
  1
76
 72
1
 11
229.16
 21
150.04
 31
0.0
100
AcDbText
  0
LINE
  5
16F
330
17
100
AcDbEntity
  8
DIMENSIONS
100
AcDbLine
 10
259.66
 20
149.24
 30
0.0
 11
294.14
 21
149.24
 31
0.0
  0
LINE
  5
170
330
17
100
AcDbEntity
  8
DIMENSIONS
100
AcDbLine
 10
261.16
 20
153.24
 30
0.0
 11
261.16
 21
148.04
 31
0.0
  0
LINE
  5
171
330
17
100
AcDbEntity
  8
DIMENSIONS
100
AcDbLine
 10
260.16
 20
148.24
 30
0.0
 11
262.16
 21
150.24
 31
0.0
  0
LINE
  5
172
330
17
100
AcDbEntity
  8
DIMENSIONS
100
AcDbLine
 10
264.2
 20
153.24
 30
0.0
 11
264.2
 21
148.04
 31
0.0
  0
LINE
  5
173
330
17
100
AcDbEntity
  8
DIMENSIONS
100
AcDbLine
 10
263.2
 20
148.24
 30
0.0
 11
265.2
 21
150.24
 31
0.0
  0
LINE
  5
174
330
17
100
AcDbEntity
  8
DIMENSIONS
100
AcDbLine
 10
268.2
 20
153.24
 30
0.0
 11
268.2
 21
148.04
 31
0.0
  0
LINE
  5
175
330
17
100
AcDbEntity
  8
DIMENSIONS
100
AcDbLine
 10
267.2
 20
148.24
 30
0.0
 11
269.2
 21
150.24
 31
0.0
  0
LINE
  5
176
330
17
100
AcDbEntity
  8
DIMENSIONS
100
AcDbLine
 10
288.64
 20
153.24
 30
0.0
 11
288.64
 21
148.04
 31
0.0
  0
LINE
  5
177
330
17
100
AcDbEntity
  8
DIMENSIONS
100
AcDbLine
 10
287.64
 20
148.24
 30
0.0
 11
289.64
 21
150.24
 31
0.0
  0
LINE
  5
178
330
17
100
AcDbEntity
  8
DIMENSIONS
100
AcDbLine
 10
292.64
 20
153.24
 30
0.0
 11
292.64
 21
148.04
 31
0.0
  0
LINE
  5
179
330
17
100
AcDbEntity
  8
DIMENSIONS
100
AcDbLine
 10
291.64
 20
148.24
 30
0.0
 11
293.64
 21
150.24
 31
0.0
  0
TEXT
  5
17A
330
17
100
AcDbEntity
  8
TEXT
100
AcDbText
 10
262.68
 20
150.04
 30
0.0
 40
0.864
  1
76
 72
1
 11
262.68
 21
150.04
 31
0.0
100
AcDbText
  0
TEXT
  5
17B
330
17
100
AcDbEntity
  8
TEXT
100
AcDbText
 10
266.2
 20
150.04
 30
0.0
 40
0.864
  1
100
 72
1
 11
266.2
 21
150.04
 31
0.0
100
AcDbText
  0
TEXT
  5
17C
330
17
100
AcDbEntity
  8
TEXT
100
AcDbText
 10
278.42
 20
150.04
 30
0.0
 40
0.864
  1
511
 72
1
 11
278.42
 21
150.04
 31
0.0
100
AcDbText
  0
TEXT
  5
17D
330
17
100
AcDbEntity
  8
TEXT
100
AcDbText
 10
290.64
 20
150.04
 30
0.0
 40
0.864
  1
100
 72
1
 11
290.64
 21
150.04
 31
0.0
100
AcDbText
  0
LINE
  5
17E
330
17
100
AcDbEntity
  8
DIMENSIONS
100
AcDbLine
 10
60.5
 20
143.24
 30
0.0
 11
294.14
 21
143.24
 31
0.0
  0
LINE
  5
17F
330
17
100
AcDbEntity
  8
DIMENSIONS
100
AcDbLine
 10
62.0
 20
153.24
 30
0.0
 11
62.0
 21
142.04
 31
0.0
  0
LINE
  5
180
330
17
100
AcDbEntity
  8
DIMENSIONS
100
AcDbLine
 10
61.0
 20
142.24
 30
0.0
 11
63.0
 21
144.24
 31
0.0
  0
LINE
  5
181
330
17
100
AcDbEntity
  8
DIMENSIONS
100
AcDbLine
 10
73.2
 20
153.24
 30
0.0
 11
73.2
 21
142.04
 31
0.0
  0
LINE
  5
182
330
17
100
AcDbEntity
  8
DIMENSIONS
100
AcDbLine
 10
72.2
 20
142.24
 30
0.0
 11
74.2
 21
144.24
 31
0.0
  0
LINE
  5
183
330
17
100
AcDbEntity
  8
DIMENSIONS
100
AcDbLine
 10
230.68
 20
153.24
 30
0.0
 11
230.68
 21
142.04
 31
0.0
  0
LINE
  5
184
330
17
100
AcDbEntity
  8
DIMENSIONS
100
AcDbLine
 10
229.68
 20
142.24
 30
0.0
 11
231.68
 21
144.24
 31
0.0
  0
LINE
  5
185
330
17
100
AcDbEntity
  8
DIMENSIONS
100
AcDbLine
 10
261.16
 20
153.24
 30
0.0
 11
261.16
 21
142.04
 31
0.0
  0
LINE
  5
186
330
17
100
AcDbEntity
  8
DIMENSIONS
100
AcDbLine
 10
260.16
 20
142.24
 30
0.0
 11
262.16
 21
144.24
 31
0.0
  0
LINE
  5
187
330
17
100
AcDbEntity
  8
DIMENSIONS
100
AcDbLine
 10
292.64
 20
153.24
 30
0.0
 11
292.64
 21
142.04
 31
0.0
  0
LINE
  5
188
330
17
100
AcDbEntity
  8
DIMENSIONS
100
AcDbLine
 10
291.64
 20
142.24
 30
0.0
 11
293.64
 21
144.24
 31
0.0
  0
TEXT
  5
189
330
17
100
AcDbEntity
  8
TEXT
100
AcDbText
 10
67.6
 20
144.04
 30
0.0
 40
1.008
  1
280 (11 IN)
 72
1
 11
67.6
 21
144.04
 31
0.0
100
AcDbText
  0
TEXT
  5
18A
330
17
100
AcDbEntity
  8
TEXT
100
AcDbText
 10
151.94
 20
144.04
 30
0.0
 40
1.008
  1
3937 PANELLED
 72
1
 11
151.94
 21
144.04
 31
0.0
100
AcDbText
  0
TEXT
  5
18B
330
17
100
AcDbEntity
  8
TEXT
100
AcDbText
 10
245.92
 20
144.04
 30
0.0
 40
1.008
  1
762 DOOR
 72
1
 11
245.92
 21
144.04
 31
0.0
100
AcDbText
  0
TEXT
  5
18C
330
17
100
AcDbEntity
  8
TEXT
100
AcDbText
 10
276.9
 20
144.04
 30
0.0
 40
1.008
  1
787
 72
1
 11
276.9
 21
144.04
 31
0.0
100
AcDbText
  0
LINE
  5
18D
330
17
100
AcDbEntity
  8
DIMENSIONS
100
AcDbLine
 10
60.5
 20
137.24
 30
0.0
 11
294.14
 21
137.24
 31
0.0
  0
LINE
  5
18E
330
17
100
AcDbEntity
  8
DIMENSIONS
100
AcDbLine
 10
62.0
 20
153.24
 30
0.0
 11
62.0
 21
136.04
 31
0.0
  0
LINE
  5
18F
330
17
100
AcDbEntity
  8
DIMENSIONS
100
AcDbLine
 10
61.0
 20
136.24
 30
0.0
 11
63.0
 21
138.24
 31
0.0
  0
LINE
  5
190
330
17
100
AcDbEntity
  8
DIMENSIONS
100
AcDbLine
 10
292.64
 20
153.24
 30
0.0
 11
292.64
 21
136.04
 31
0.0
  0
LINE
  5
191
330
17
100
AcDbEntity
  8
DIMENSIONS
100
AcDbLine
 10
291.64
 20
136.24
 30
0.0
 11
293.64
 21
138.24
 31
0.0
  0
TEXT
  5
192
330
17
100
AcDbEntity
  8
TEXT
100
AcDbText
 10
177.32
 20
138.04
 30
0.0
 40
1.08
  1
5766 OVERALL — 18 FT 11 IN · FRAME AT 4141 (13 FT 6 IN) · FRAME 914 (3 FT) · RETURN 711 (2 FT 4 IN)
 72
1
 11
177.32
 21
138.04
 31
0.0
100
AcDbText
  0
LINE
  5
193
330
17
100
AcDbEntity
  8
DIMENSIONS
100
AcDbLine
 10
298.64
 20
155.74
 30
0.0
 11
298.64
 21
263.5
 31
0.0
  0
LINE
  5
194
330
17
100
AcDbEntity
  8
DIMENSIONS
100
AcDbLine
 10
293.64
 20
154.24
 30
0.0
 11
299.84
 21
154.24
 31
0.0
  0
LINE
  5
195
330
17
100
AcDbEntity
  8
DIMENSIONS
100
AcDbLine
 10
297.64
 20
153.24
 30
0.0
 11
299.64
 21
155.24
 31
0.0
  0
LINE
  5
196
330
17
100
AcDbEntity
  8
DIMENSIONS
100
AcDbLine
 10
293.64
 20
158.32
 30
0.0
 11
299.84
 21
158.32
 31
0.0
  0
LINE
  5
197
330
17
100
AcDbEntity
  8
DIMENSIONS
100
AcDbLine
 10
297.64
 20
157.32
 30
0.0
 11
299.64
 21
159.32
 31
0.0
  0
LINE
  5
198
330
17
100
AcDbEntity
  8
DIMENSIONS
100
AcDbLine
 10
293.64
 20
162.72
 30
0.0
 11
299.84
 21
162.72
 31
0.0
  0
LINE
  5
199
330
17
100
AcDbEntity
  8
DIMENSIONS
100
AcDbLine
 10
297.64
 20
161.72
 30
0.0
 11
299.64
 21
163.72
 31
0.0
  0
LINE
  5
19A
330
17
100
AcDbEntity
  8
DIMENSIONS
100
AcDbLine
 10
293.64
 20
176.07999999999998
 30
0.0
 11
299.84
 21
176.07999999999998
 31
0.0
  0
LINE
  5
19B
330
17
100
AcDbEntity
  8
DIMENSIONS
100
AcDbLine
 10
297.64
 20
175.07999999999998
 30
0.0
 11
299.64
 21
177.07999999999998
 31
0.0
  0
LINE
  5
19C
330
17
100
AcDbEntity
  8
DIMENSIONS
100
AcDbLine
 10
293.64
 20
180.07999999999998
 30
0.0
 11
299.84
 21
180.07999999999998
 31
0.0
  0
LINE
  5
19D
330
17
100
AcDbEntity
  8
DIMENSIONS
100
AcDbLine
 10
297.64
 20
179.07999999999998
 30
0.0
 11
299.64
 21
181.07999999999998
 31
0.0
  0
LINE
  5
19E
330
17
100
AcDbEntity
  8
DIMENSIONS
100
AcDbLine
 10
293.64
 20
181.68
 30
0.0
 11
299.84
 21
181.68
 31
0.0
  0
LINE
  5
19F
330
17
100
AcDbEntity
  8
DIMENSIONS
100
AcDbLine
 10
297.64
 20
180.68
 30
0.0
 11
299.64
 21
182.68
 31
0.0
  0
LINE
  5
1A0
330
17
100
AcDbEntity
  8
DIMENSIONS
100
AcDbLine
 10
293.64
 20
186.07999999999998
 30
0.0
 11
299.84
 21
186.07999999999998
 31
0.0
  0
LINE
  5
1A1
330
17
100
AcDbEntity
  8
DIMENSIONS
100
AcDbLine
 10
297.64
 20
185.07999999999998
 30
0.0
 11
299.64
 21
187.07999999999998
 31
0.0
  0
LINE
  5
1A2
330
17
100
AcDbEntity
  8
DIMENSIONS
100
AcDbLine
 10
293.64
 20
251.76
 30
0.0
 11
299.84
 21
251.76
 31
0.0
  0
LINE
  5
1A3
330
17
100
AcDbEntity
  8
DIMENSIONS
100
AcDbLine
 10
297.64
 20
250.76
 30
0.0
 11
299.64
 21
252.76
 31
0.0
  0
LINE
  5
1A4
330
17
100
AcDbEntity
  8
DIMENSIONS
100
AcDbLine
 10
293.64
 20
265.0
 30
0.0
 11
299.84
 21
265.0
 31
0.0
  0
LINE
  5
1A5
330
17
100
AcDbEntity
  8
DIMENSIONS
100
AcDbLine
 10
297.64
 20
264.0
 30
0.0
 11
299.64
 21
266.0
 31
0.0
  0
TEXT
  5
1A6
330
17
100
AcDbEntity
  8
TEXT
100
AcDbText
 10
297.84
 20
156.28000000000003
 30
0.0
 40
0.864
  1
102
 50
90.0
 72
1
 11
297.84
 21
156.28000000000003
 31
0.0
100
AcDbText
  0
TEXT
  5
1A7
330
17
100
AcDbEntity
  8
TEXT
100
AcDbText
 10
297.84
 20
160.52000000000004
 30
0.0
 40
0.864
  1
110
 50
90.0
 72
1
 11
297.84
 21
160.52000000000004
 31
0.0
100
AcDbText
  0
TEXT
  5
1A8
330
17
100
AcDbEntity
  8
TEXT
100
AcDbText
 10
297.84
 20
169.40000000000003
 30
0.0
 40
0.864
  1
334
 50
90.0
 72
1
 11
297.84
 21
169.40000000000003
 31
0.0
100
AcDbText
  0
TEXT
  5
1A9
330
17
100
AcDbEntity
  8
TEXT
100
AcDbText
 10
297.84
 20
178.07999999999998
 30
0.0
 40
0.864
  1
100
 50
90.0
 72
1
 11
297.84
 21
178.07999999999998
 31
0.0
100
AcDbText
  0
TEXT
  5
1AA
330
17
100
AcDbEntity
  8
TEXT
100
AcDbText
 10
297.84
 20
180.88
 30
0.0
 40
0.864
  1
40
 50
90.0
 72
1
 11
297.84
 21
180.88
 31
0.0
100
AcDbText
  0
TEXT
  5
1AB
330
17
100
AcDbEntity
  8
TEXT
100
AcDbText
 10
297.84
 20
183.88
 30
0.0
 40
0.864
  1
110
 50
90.0
 72
1
 11
297.84
 21
183.88
 31
0.0
100
AcDbText
  0
TEXT
  5
1AC
330
17
100
AcDbEntity
  8
TEXT
100
AcDbText
 10
297.84
 20
218.92000000000002
 30
0.0
 40
0.864
  1
1642
 50
90.0
 72
1
 11
297.84
 21
218.92000000000002
 31
0.0
100
AcDbText
  0
TEXT
  5
1AD
330
17
100
AcDbEntity
  8
TEXT
100
AcDbText
 10
297.84
 20
258.38
 30
0.0
 40
0.864
  1
331
 50
90.0
 72
1
 11
297.84
 21
258.38
 31
0.0
100
AcDbText
  0
LINE
  5
1AE
330
17
100
AcDbEntity
  8
DIMENSIONS
100
AcDbLine
 10
305.64
 20
266.5
 30
0.0
 11
305.64
 21
152.74
 31
0.0
  0
LINE
  5
1AF
330
17
100
AcDbEntity
  8
DIMENSIONS
100
AcDbLine
 10
293.64
 20
265.0
 30
0.0
 11
306.84
 21
265.0
 31
0.0
  0
LINE
  5
1B0
330
17
100
AcDbEntity
  8
DIMENSIONS
100
AcDbLine
 10
304.64
 20
264.0
 30
0.0
 11
306.64
 21
266.0
 31
0.0
  0
LINE
  5
1B1
330
17
100
AcDbEntity
  8
DIMENSIONS
100
AcDbLine
 10
293.64
 20
154.24
 30
0.0
 11
306.84
 21
154.24
 31
0.0
  0
LINE
  5
1B2
330
17
100
AcDbEntity
  8
DIMENSIONS
100
AcDbLine
 10
304.64
 20
153.24
 30
0.0
 11
306.64
 21
155.24
 31
0.0
  0
TEXT
  5
1B3
330
17
100
AcDbEntity
  8
TEXT
100
AcDbText
 10
304.84
 20
209.62
 30
0.0
 40
1.008
  1
2769 (9 FT)
 50
90.0
 72
1
 11
304.84
 21
209.62
 31
0.0
100
AcDbText
  0
LINE
  5
1B4
330
17
100
AcDbEntity
  8
DIMENSIONS
100
AcDbLine
 10
234.68
 20
253.26
 30
0.0
 11
234.68
 21
152.74
 31
0.0
  0
LINE
  5
1B5
330
17
100
AcDbEntity
  8
DIMENSIONS
100
AcDbLine
 10
231.68
 20
251.76
 30
0.0
 11
235.88
 21
251.76
 31
0.0
  0
LINE
  5
1B6
330
17
100
AcDbEntity
  8
DIMENSIONS
100
AcDbLine
 10
233.68
 20
250.76
 30
0.0
 11
235.68
 21
252.76
 31
0.0
  0
LINE
  5
1B7
330
17
100
AcDbEntity
  8
DIMENSIONS
100
AcDbLine
 10
231.68
 20
154.24
 30
0.0
 11
235.88
 21
154.24
 31
0.0
  0
LINE
  5
1B8
330
17
100
AcDbEntity
  8
DIMENSIONS
100
AcDbLine
 10
233.68
 20
153.24
 30
0.0
 11
235.68
 21
155.24
 31
0.0
  0
TEXT
  5
1B9
330
17
100
AcDbEntity
  8
TEXT
100
AcDbText
 10
233.88
 20
203.0
 30
0.0
 40
0.864
  1
2438
 50
90.0
 72
1
 11
233.88
 21
203.0
 31
0.0
100
AcDbText
  0
TEXT
  5
1BA
330
17
100
AcDbEntity
  8
TEXT
100
AcDbText
 10
245.92
 20
203.24
 30
0.0
 40
1.08
  1
DRESSING
 72
1
 11
245.92
 21
203.24
 31
0.0
100
AcDbText
  0
LINE
  5
1BB
330
17
100
AcDbEntity
  8
GEOMETRY
100
AcDbLine
 10
74.0
 20
265.0
 30
0.0
 11
57.0
 21
266.6
 31
0.0
  0
TEXT
  5
1BC
330
17
100
AcDbEntity
  8
TEXT
100
AcDbText
 10
56.0
 20
266.4
 30
0.0
 40
1.224
  1
CEILING
 72
2
 11
56.0
 21
266.4
 31
0.0
100
AcDbText
  0
TEXT
  5
1BD
330
17
100
AcDbEntity
  8
TEXT
100
AcDbText
 10
56.0
 20
264.1
 30
0.0
 40
1.044
  1
COVE LIGHT ABOVE
 72
2
 11
56.0
 21
264.1
 31
0.0
100
AcDbText
  0
LINE
  5
1BE
330
17
100
AcDbEntity
  8
GEOMETRY
100
AcDbLine
 10
79.92
 20
230.24
 30
0.0
 11
57.0
 21
230.24
 31
0.0
  0
TEXT
  5
1BF
330
17
100
AcDbEntity
  8
TEXT
100
AcDbText
 10
56.0
 20
230.04000000000002
 30
0.0
 40
1.224
  1
TALL PANEL ×6
 72
2
 11
56.0
 21
230.04000000000002
 31
0.0
100
AcDbText
  0
TEXT
  5
1C0
330
17
100
AcDbEntity
  8
TEXT
100
AcDbText
 10
56.0
 20
227.74
 30
0.0
 40
1.044
  1
WALL COLOUR
 72
2
 11
56.0
 21
227.74
 31
0.0
100
AcDbText
  0
LINE
  5
1C1
330
17
100
AcDbEntity
  8
GEOMETRY
100
AcDbLine
 10
82.84
 20
211.44
 30
0.0
 11
57.0
 21
213.84
 31
0.0
  0
TEXT
  5
1C2
330
17
100
AcDbEntity
  8
TEXT
100
AcDbText
 10
56.0
 20
213.64
 30
0.0
 40
1.224
  1
WALL LAMP ×3
 72
2
 11
56.0
 21
213.64
 31
0.0
100
AcDbText
  0
TEXT
  5
1C3
330
17
100
AcDbEntity
  8
TEXT
100
AcDbText
 10
56.0
 20
211.34
 30
0.0
 40
1.044
  1
PANELS 1, 3, 5
 72
2
 11
56.0
 21
211.34
 31
0.0
100
AcDbText
  0
LINE
  5
1C4
330
17
100
AcDbEntity
  8
GEOMETRY
100
AcDbLine
 10
75.6
 20
181.28
 30
0.0
 11
57.0
 21
187.68
 31
0.0
  0
TEXT
  5
1C5
330
17
100
AcDbEntity
  8
TEXT
100
AcDbText
 10
56.0
 20
187.48000000000002
 30
0.0
 40
1.224
  1
RAIL = STUDY COUNTER
 72
2
 11
56.0
 21
187.48000000000002
 31
0.0
100
AcDbText
  0
TEXT
  5
1C6
330
17
100
AcDbEntity
  8
TEXT
100
AcDbText
 10
56.0
 20
185.18
 30
0.0
 40
1.044
  1
SAME 646–686 BAND
 72
2
 11
56.0
 21
185.18
 31
0.0
100
AcDbText
  0
LINE
  5
1C7
330
17
100
AcDbEntity
  8
GEOMETRY
100
AcDbLine
 10
70.8
 20
166.24
 30
0.0
 11
57.0
 21
171.84
 31
0.0
  0
TEXT
  5
1C8
330
17
100
AcDbEntity
  8
TEXT
100
AcDbText
 10
56.0
 20
171.64
 30
0.0
 40
1.224
  1
STUDY CUPBOARDS
 72
2
 11
56.0
 21
171.64
 31
0.0
100
AcDbText
  0
TEXT
  5
1C9
330
17
100
AcDbEntity
  8
TEXT
100
AcDbText
 10
56.0
 20
169.34
 30
0.0
 40
1.044
  1
END, 280 DEEP
 72
2
 11
56.0
 21
169.34
 31
0.0
100
AcDbText
  0
LINE
  5
1CA
330
17
100
AcDbEntity
  8
GEOMETRY
100
AcDbLine
 10
79.92
 20
165.44
 30
0.0
 11
57.0
 21
164.24
 31
0.0
  0
TEXT
  5
1CB
330
17
100
AcDbEntity
  8
TEXT
100
AcDbText
 10
56.0
 20
164.04
 30
0.0
 40
1.224
  1
SHORT PANEL ×6
 72
2
 11
56.0
 21
164.04
 31
0.0
100
AcDbText
  0
LINE
  5
1CC
330
17
100
AcDbEntity
  8
GEOMETRY
100
AcDbLine
 10
75.6
 20
156.64
 30
0.0
 11
57.0
 21
155.04
 31
0.0
  0
TEXT
  5
1CD
330
17
100
AcDbEntity
  8
TEXT
100
AcDbText
 10
56.0
 20
154.84
 30
0.0
 40
1.224
  1
SKIRTING
 72
2
 11
56.0
 21
154.84
 31
0.0
100
AcDbText
  0
TEXT
  5
1CE
330
17
100
AcDbEntity
  8
TEXT
100
AcDbText
 10
18.0
 20
127.0
 30
0.0
 40
2.304
  1
PLAN
 11
18.0
 21
127.0
 31
0.0
100
AcDbText
  0
LINE
  5
1CF
330
17
100
AcDbEntity
  8
GEOMETRY
100
AcDbLine
 10
18.0
 20
125.5
 30
0.0
 11
78.0
 21
125.5
 31
0.0
  0
TEXT
  5
1D0
330
17
100
AcDbEntity
  8
TEXT
100
AcDbText
 10
18.0
 20
122.19999999999999
 30
0.0
 40
1.224
  1
CUT AT 1000 · SCALE 1:25 · ROOM BELOW, WALL ABOVE
 11
18.0
 21
122.19999999999999
 31
0.0
100
AcDbText
  0
HATCH
  5
1D1
330
17
100
AcDbEntity
  8
HATCH
 62
7
100
AcDbHatch
 10
0.0
 20
0.0
 30
0.0
210
0.0
220
0.0
230
1.0
  2
ANSI31
 70
0
 71
0
 91
1
 92
3
 72
0
 73
1
 93
5
 10
52.8
 20
101.19999999999999
 10
230.68
 20
101.19999999999999
 10
230.68
 20
92.0
 10
52.8
 20
92.0
 10
52.8
 20
101.19999999999999
 97
0
 75
1
 76
1
 52
0.0
 41
0.4
 77
0
 78
1
 53
45.0
 43
0.0
 44
0.0
 45
-0.8980256121
 46
0.8980256121
 79
0
 98
0
  0
HATCH
  5
1D2
330
17
100
AcDbEntity
  8
HATCH
 62
7
100
AcDbHatch
 10
0.0
 20
0.0
 30
0.0
210
0.0
220
0.0
230
1.0
  2
ANSI31
 70
0
 71
0
 91
1
 92
3
 72
0
 73
1
 93
5
 10
261.15999999999997
 20
101.19999999999999
 10
301.84
 20
101.19999999999999
 10
301.84
 20
92.0
 10
261.15999999999997
 20
92.0
 10
261.15999999999997
 20
101.19999999999999
 97
0
 75
1
 76
1
 52
0.0
 41
0.4
 77
0
 78
1
 53
45.0
 43
0.0
 44
0.0
 45
-0.8980256121
 46
0.8980256121
 79
0
 98
0
  0
HATCH
  5
1D3
330
17
100
AcDbEntity
  8
HATCH
 62
7
100
AcDbHatch
 10
0.0
 20
0.0
 30
0.0
210
0.0
220
0.0
230
1.0
  2
ANSI31
 70
0
 71
0
 91
1
 92
3
 72
0
 73
1
 93
5
 10
52.8
 20
101.19999999999999
 10
62.0
 20
101.19999999999999
 10
62.0
 20
68.0
 10
52.8
 20
68.0
 10
52.8
 20
101.19999999999999
 97
0
 75
1
 76
1
 52
0.0
 41
0.4
 77
0
 78
1
 53
45.0
 43
0.0
 44
0.0
 45
-0.8980256121
 46
0.8980256121
 79
0
 98
0
  0
HATCH
  5
1D4
330
17
100
AcDbEntity
  8
HATCH
 62
7
100
AcDbHatch
 10
0.0
 20
0.0
 30
0.0
210
0.0
220
0.0
230
1.0
  2
ANSI31
 70
0
 71
0
 91
1
 92
3
 72
0
 73
1
 93
5
 10
292.64
 20
101.19999999999999
 10
301.84
 20
101.19999999999999
 10
301.84
 20
68.0
 10
292.64
 20
68.0
 10
292.64
 20
101.19999999999999
 97
0
 75
1
 76
1
 52
0.0
 41
0.4
 77
0
 78
1
 53
45.0
 43
0.0
 44
0.0
 45
-0.8980256121
 46
0.8980256121
 79
0
 98
0
  0
LWPOLYLINE
  5
1D5
330
17
100
AcDbEntity
  8
GEOMETRY
100
AcDbPolyline
 90
4
 70
0
 10
62.0
 20
68.0
 10
62.0
 20
92.0
 10
230.68
 20
92.0
 10
230.68
 20
101.19999999999999
  0
LWPOLYLINE
  5
1D6
330
17
100
AcDbEntity
  8
GEOMETRY
100
AcDbPolyline
 90
4
 70
0
 10
261.15999999999997
 20
101.19999999999999
 10
261.15999999999997
 20
92.0
 10
292.64
 20
92.0
 10
292.64
 20
68.0
  0
LWPOLYLINE
  5
1D7
330
17
100
AcDbEntity
  8
GEOMETRY
100
AcDbPolyline
 90
5
 70
0
 10
259.56
 20
131.68
 10
261.16
 20
131.68
 10
261.16
 20
101.20000000000002
 10
259.56
 20
101.20000000000002
 10
259.56
 20
131.68
  0
SPLINE
  5
1D8
330
17
100
AcDbEntity
  8
GEOMETRY
  6
DASHED
100
AcDbSpline
 70
0
 71
3
 72
14
 73
10
 74
0
 40
0.0
 40
0.0
 40
0.0
 40
0.0
 40
1.0
 40
1.0
 40
1.0
 40
2.0
 40
2.0
 40
2.0
 40
3.0
 40
3.0
 40
3.0
 40
3.0
 10
259.56
 20
131.68
 30
0.0
 10
254.39320402487485
 20
131.40840758528321
 30
0.0
 10
249.3796479279381
 20
129.8256526641242
 30
0.0
 10
244.99345435692126
 20
127.08141341692436
 30
0.0
 10
240.60726078590443
 20
124.33717416972453
 30
0.0
 10
236.9911947971434
 20
120.5207721151042
 30
0.0
 10
234.4872210057366
 20
115.9931172762004
 30
0.0
 10
231.98324721432977
 20
111.4654624372966
 30
0.0
 10
230.67286680202074
 20
106.37392425589974
 30
0.0
 10
230.68
 20
101.19999999999999
 30
0.0
  0
LWPOLYLINE
  5
1D9
330
17
100
AcDbEntity
  8
GEOMETRY
100
AcDbPolyline
 90
5
 70
0
 10
227.64000000000001
 20
92.0
 10
230.68
 20
92.0
 10
230.68
 20
91.12
 10
227.64000000000001
 20
91.12
 10
227.64000000000001
 20
92.0
  0
LWPOLYLINE
  5
1DA
330
17
100
AcDbEntity
  8
GEOMETRY
100
AcDbPolyline
 90
5
 70
0
 10
261.15999999999997
 20
92.0
 10
264.2
 20
92.0
 10
264.2
 20
91.12
 10
261.15999999999997
 20
91.12
 10
261.15999999999997
 20
92.0
  0
LWPOLYLINE
  5
1DB
330
17
100
AcDbEntity
  8
GEOMETRY
100
AcDbPolyline
 90
5
 70
0
 10
62.0
 20
92.0
 10
73.2
 20
92.0
 10
73.2
 20
68.0
 10
62.0
 20
68.0
 10
62.0
 20
92.0
  0
LINE
  5
1DC
330
17
100
AcDbEntity
  8
GEOMETRY
  6
DASHED
100
AcDbLine
 10
62.0
 20
68.0
 30
0.0
 11
73.2
 21
68.0
 31
0.0
  0
LWPOLYLINE
  5
1DD
330
17
100
AcDbEntity
  8
GEOMETRY
100
AcDbPolyline
 90
5
 70
0
 10
73.2
 20
92.0
 10
227.64
 20
92.0
 10
227.64
 20
91.19999999999999
 10
73.2
 20
91.19999999999999
 10
73.2
 20
92.0
  0
LINE
  5
1DE
330
17
100
AcDbEntity
  8
GEOMETRY
  6
DASHED
100
AcDbLine
 10
73.2
 20
90.88
 30
0.0
 11
227.64000000000001
 21
90.88
 31
0.0
  0
LWPOLYLINE
  5
1DF
330
17
100
AcDbEntity
  8
GEOMETRY
100
AcDbPolyline
 90
5
 70
0
 10
264.20000000000005
 20
92.0
 10
292.64000000000004
 20
92.0
 10
292.64000000000004
 20
91.19999999999999
 10
264.20000000000005
 20
91.19999999999999
 10
264.20000000000005
 20
92.0
  0
LINE
  5
1E0
330
17
100
AcDbEntity
  8
GEOMETRY
  6
DASHED
100
AcDbLine
 10
264.20000000000005
 20
90.88
 30
0.0
 11
292.64
 21
90.88
 31
0.0
  0
LWPOLYLINE
  5
1E1
330
17
100
AcDbEntity
  8
GEOMETRY
100
AcDbPolyline
 90
5
 70
0
 10
79.2
 20
92.0
 10
81.4
 20
92.0
 10
81.4
 20
91.03999999999999
 10
79.2
 20
91.03999999999999
 10
79.2
 20
92.0
  0
LWPOLYLINE
  5
1E2
330
17
100
AcDbEntity
  8
GEOMETRY
100
AcDbPolyline
 90
5
 70
0
 10
101.088
 20
92.0
 10
103.288
 20
92.0
 10
103.288
 20
91.03999999999999
 10
101.088
 20
91.03999999999999
 10
101.088
 20
92.0
  0
LWPOLYLINE
  5
1E3
330
17
100
AcDbEntity
  8
GEOMETRY
100
AcDbPolyline
 90
5
 70
0
 10
109.28800000000001
 20
92.0
 10
111.48800000000001
 20
92.0
 10
111.48800000000001
 20
91.03999999999999
 10
109.28800000000001
 20
91.03999999999999
 10
109.28800000000001
 20
92.0
  0
LWPOLYLINE
  5
1E4
330
17
100
AcDbEntity
  8
GEOMETRY
100
AcDbPolyline
 90
5
 70
0
 10
131.176
 20
92.0
 10
133.37599999999998
 20
92.0
 10
133.37599999999998
 20
91.03999999999999
 10
131.176
 20
91.03999999999999
 10
131.176
 20
92.0
  0
LWPOLYLINE
  5
1E5
330
17
100
AcDbEntity
  8
GEOMETRY
100
AcDbPolyline
 90
5
 70
0
 10
139.376
 20
92.0
 10
141.576
 20
92.0
 10
141.576
 20
91.03999999999999
 10
139.376
 20
91.03999999999999
 10
139.376
 20
92.0
  0
LWPOLYLINE
  5
1E6
330
17
100
AcDbEntity
  8
GEOMETRY
100
AcDbPolyline
 90
5
 70
0
 10
161.264
 20
92.0
 10
163.464
 20
92.0
 10
163.464
 20
91.03999999999999
 10
161.264
 20
91.03999999999999
 10
161.264
 20
92.0
  0
LWPOLYLINE
  5
1E7
330
17
100
AcDbEntity
  8
GEOMETRY
100
AcDbPolyline
 90
5
 70
0
 10
169.464
 20
92.0
 10
171.664
 20
92.0
 10
171.664
 20
91.03999999999999
 10
169.464
 20
91.03999999999999
 10
169.464
 20
92.0
  0
LWPOLYLINE
  5
1E8
330
17
100
AcDbEntity
  8
GEOMETRY
100
AcDbPolyline
 90
5
 70
0
 10
191.352
 20
92.0
 10
193.552
 20
92.0
 10
193.552
 20
91.03999999999999
 10
191.352
 20
91.03999999999999
 10
191.352
 20
92.0
  0
LWPOLYLINE
  5
1E9
330
17
100
AcDbEntity
  8
GEOMETRY
100
AcDbPolyline
 90
5
 70
0
 10
199.55200000000002
 20
92.0
 10
201.752
 20
92.0
 10
201.752
 20
91.03999999999999
 10
199.55200000000002
 20
91.03999999999999
 10
199.55200000000002
 20
92.0
  0
LWPOLYLINE
  5
1EA
330
17
100
AcDbEntity
  8
GEOMETRY
100
AcDbPolyline
 90
5
 70
0
 10
221.44
 20
92.0
 10
223.64
 20
92.0
 10
223.64
 20
91.03999999999999
 10
221.44
 20
91.03999999999999
 10
221.44
 20
92.0
  0
LWPOLYLINE
  5
1EB
330
17
100
AcDbEntity
  8
GEOMETRY
100
AcDbPolyline
 90
5
 70
0
 10
268.20000000000005
 20
92.0
 10
270.40000000000003
 20
92.0
 10
270.40000000000003
 20
91.03999999999999
 10
268.20000000000005
 20
91.03999999999999
 10
268.20000000000005
 20
92.0
  0
LWPOLYLINE
  5
1EC
330
17
100
AcDbEntity
  8
GEOMETRY
100
AcDbPolyline
 90
5
 70
0
 10
286.44
 20
92.0
 10
288.64
 20
92.0
 10
288.64
 20
91.03999999999999
 10
286.44
 20
91.03999999999999
 10
286.44
 20
92.0
  0
POLYLINE
  5
1ED
330
17
100
AcDbEntity
  8
GEOMETRY
  6
DASHED
100
AcDb2dPolyline
 66
1
 10
0.0
 20
0.0
 30
0.0
 70
0
  0
VERTEX
  5
1EE
330
1ED
100
AcDbEntity
  8
GEOMETRY
  6
DASHED
100
AcDbVertex
100
AcDb2dVertex
 10
91.244
 20
92.0
 30
0.0
 70
0
  0
VERTEX
  5
1EF
330
1ED
100
AcDbEntity
  8
GEOMETRY
  6
DASHED
100
AcDbVertex
100
AcDb2dVertex
 10
91.244
 20
89.6
 30
0.0
 70
0
  0
SEQEND
  5
1F0
330
1ED
100
AcDbEntity
  8
GEOMETRY
  0
SPLINE
  5
1F1
330
17
100
AcDbEntity
  8
GEOMETRY
  6
DASHED
100
AcDbSpline
 70
0
 71
3
 72
8
 73
4
 74
0
 40
0.0
 40
0.0
 40
0.0
 40
0.0
 40
1.0
 40
1.0
 40
1.0
 40
1.0
 10
91.244
 20
89.6
 30
0.0
 10
91.244
 20
87.46666666666667
 30
0.0
 10
89.244
 20
86.0
 30
0.0
 10
85.244
 20
85.19999999999999
 30
0.0
  0
SPLINE
  5
1F2
330
17
100
AcDbEntity
  8
GEOMETRY
  6
DASHED
100
AcDbSpline
 70
0
 71
3
 72
8
 73
4
 74
0
 40
0.0
 40
0.0
 40
0.0
 40
0.0
 40
1.0
 40
1.0
 40
1.0
 40
1.0
 10
91.244
 20
89.6
 30
0.0
 10
91.244
 20
87.46666666666667
 30
0.0
 10
93.244
 20
86.0
 30
0.0
 10
97.244
 20
85.19999999999999
 30
0.0
  0
CIRCLE
  5
1F3
330
17
100
AcDbEntity
  8
GEOMETRY
  6
DASHED
100
AcDbCircle
 10
85.244
 20
85.19999999999999
 30
0.0
 40
2.4
  0
CIRCLE
  5
1F4
330
17
100
AcDbEntity
  8
GEOMETRY
  6
DASHED
100
AcDbCircle
 10
97.244
 20
85.19999999999999
 30
0.0
 40
2.4
  0
POLYLINE
  5
1F5
330
17
100
AcDbEntity
  8
GEOMETRY
  6
DASHED
100
AcDb2dPolyline
 66
1
 10
0.0
 20
0.0
 30
0.0
 70
0
  0
VERTEX
  5
1F6
330
1F5
100
AcDbEntity
  8
GEOMETRY
  6
DASHED
100
AcDbVertex
100
AcDb2dVertex
 10
151.42000000000002
 20
92.0
 30
0.0
 70
0
  0
VERTEX
  5
1F7
330
1F5
100
AcDbEntity
  8
GEOMETRY
  6
DASHED
100
AcDbVertex
100
AcDb2dVertex
 10
151.42000000000002
 20
89.6
 30
0.0
 70
0
  0
SEQEND
  5
1F8
330
1F5
100
AcDbEntity
  8
GEOMETRY
  0
SPLINE
  5
1F9
330
17
100
AcDbEntity
  8
GEOMETRY
  6
DASHED
100
AcDbSpline
 70
0
 71
3
 72
8
 73
4
 74
0
 40
0.0
 40
0.0
 40
0.0
 40
0.0
 40
1.0
 40
1.0
 40
1.0
 40
1.0
 10
151.42000000000002
 20
89.6
 30
0.0
 10
151.42000000000002
 20
87.46666666666667
 30
0.0
 10
149.42000000000002
 20
86.0
 30
0.0
 10
145.42000000000002
 20
85.19999999999999
 30
0.0
  0
SPLINE
  5
1FA
330
17
100
AcDbEntity
  8
GEOMETRY
  6
DASHED
100
AcDbSpline
 70
0
 71
3
 72
8
 73
4
 74
0
 40
0.0
 40
0.0
 40
0.0
 40
0.0
 40
1.0
 40
1.0
 40
1.0
 40
1.0
 10
151.42000000000002
 20
89.6
 30
0.0
 10
151.42000000000002
 20
87.46666666666667
 30
0.0
 10
153.42000000000002
 20
86.0
 30
0.0
 10
157.42000000000002
 20
85.19999999999999
 30
0.0
  0
CIRCLE
  5
1FB
330
17
100
AcDbEntity
  8
GEOMETRY
  6
DASHED
100
AcDbCircle
 10
145.42000000000002
 20
85.19999999999999
 30
0.0
 40
2.4
  0
CIRCLE
  5
1FC
330
17
100
AcDbEntity
  8
GEOMETRY
  6
DASHED
100
AcDbCircle
 10
157.42000000000002
 20
85.19999999999999
 30
0.0
 40
2.4
  0
POLYLINE
  5
1FD
330
17
100
AcDbEntity
  8
GEOMETRY
  6
DASHED
100
AcDb2dPolyline
 66
1
 10
0.0
 20
0.0
 30
0.0
 70
0
  0
VERTEX
  5
1FE
330
1FD
100
AcDbEntity
  8
GEOMETRY
  6
DASHED
100
AcDbVertex
100
AcDb2dVertex
 10
211.596
 20
92.0
 30
0.0
 70
0
  0
VERTEX
  5
1FF
330
1FD
100
AcDbEntity
  8
GEOMETRY
  6
DASHED
100
AcDbVertex
100
AcDb2dVertex
 10
211.596
 20
89.6
 30
0.0
 70
0
  0
SEQEND
  5
200
330
1FD
100
AcDbEntity
  8
GEOMETRY
  0
SPLINE
  5
201
330
17
100
AcDbEntity
  8
GEOMETRY
  6
DASHED
100
AcDbSpline
 70
0
 71
3
 72
8
 73
4
 74
0
 40
0.0
 40
0.0
 40
0.0
 40
0.0
 40
1.0
 40
1.0
 40
1.0
 40
1.0
 10
211.596
 20
89.6
 30
0.0
 10
211.596
 20
87.46666666666667
 30
0.0
 10
209.596
 20
86.0
 30
0.0
 10
205.596
 20
85.19999999999999
 30
0.0
  0
SPLINE
  5
202
330
17
100
AcDbEntity
  8
GEOMETRY
  6
DASHED
100
AcDbSpline
 70
0
 71
3
 72
8
 73
4
 74
0
 40
0.0
 40
0.0
 40
0.0
 40
0.0
 40
1.0
 40
1.0
 40
1.0
 40
1.0
 10
211.596
 20
89.6
 30
0.0
 10
211.596
 20
87.46666666666667
 30
0.0
 10
213.596
 20
86.0
 30
0.0
 10
217.596
 20
85.19999999999999
 30
0.0
  0
CIRCLE
  5
203
330
17
100
AcDbEntity
  8
GEOMETRY
  6
DASHED
100
AcDbCircle
 10
205.596
 20
85.19999999999999
 30
0.0
 40
2.4
  0
CIRCLE
  5
204
330
17
100
AcDbEntity
  8
GEOMETRY
  6
DASHED
100
AcDbCircle
 10
217.596
 20
85.19999999999999
 30
0.0
 40
2.4
  0
LINE
  5
205
330
17
100
AcDbEntity
  8
GEOMETRY
100
AcDbLine
 10
245.92
 20
116.44
 30
0.0
 11
197.64
 21
116.44
 31
0.0
  0
TEXT
  5
206
330
17
100
AcDbEntity
  8
TEXT
100
AcDbText
 10
196.64
 20
116.24000000000001
 30
0.0
 40
1.224
  1
DRESSING DOOR 2′6″ × 8′
 72
2
 11
196.64
 21
116.24000000000001
 31
0.0
100
AcDbText
  0
TEXT
  5
207
330
17
100
AcDbEntity
  8
TEXT
100
AcDbText
 10
196.64
 20
113.94
 30
0.0
 40
1.044
  1
INWARD, HINGED RIGHT
 72
2
 11
196.64
 21
113.94
 31
0.0
100
AcDbText
  0
LINE
  5
208
330
17
100
AcDbEntity
  8
GEOMETRY
100
AcDbLine
 10
67.6
 20
76.0
 30
0.0
 11
57.0
 21
76.0
 31
0.0
  0
TEXT
  5
209
330
17
100
AcDbEntity
  8
TEXT
100
AcDbText
 10
56.0
 20
75.80000000000001
 30
0.0
 40
1.224
  1
STUDY CUPBOARDS
 72
2
 11
56.0
 21
75.80000000000001
 31
0.0
100
AcDbText
  0
LINE
  5
20A
330
17
100
AcDbEntity
  8
GEOMETRY
100
AcDbLine
 10
145.42
 20
85.19999999999999
 30
0.0
 11
154.42
 21
69.6
 31
0.0
  0
TEXT
  5
20B
330
17
100
AcDbEntity
  8
TEXT
100
AcDbText
 10
155.42
 20
69.4
 30
0.0
 40
1.224
  1
LAMP ABOVE, 230 OFF THE WALL
 11
155.42
 21
69.4
 31
0.0
100
AcDbText
  0
TEXT
  5
20C
330
17
100
AcDbEntity
  8
TEXT
100
AcDbText
 10
318.0
 20
280.0
 30
0.0
 40
2.304
  1
SECTION A–A
 11
318.0
 21
280.0
 31
0.0
100
AcDbText
  0
LINE
  5
20D
330
17
100
AcDbEntity
  8
GEOMETRY
100
AcDbLine
 10
318.0
 20
278.5
 30
0.0
 11
368.0
 21
278.5
 31
0.0
  0
TEXT
  5
20E
330
17
100
AcDbEntity
  8
TEXT
100
AcDbText
 10
318.0
 20
275.2
 30
0.0
 40
1.224
  1
THROUGH PANEL 1 · 1:20
 11
318.0
 21
275.2
 31
0.0
100
AcDbText
  0
HATCH
  5
20F
330
17
100
AcDbEntity
  8
HATCH
 62
7
100
AcDbHatch
 10
0.0
 20
0.0
 30
0.0
210
0.0
220
0.0
230
1.0
  2
ANSI31
 70
0
 71
0
 91
1
 92
3
 72
0
 73
1
 93
5
 10
340.5
 20
267.0
 10
352.0
 20
267.0
 10
352.0
 20
128.54999999999998
 10
340.5
 20
128.54999999999998
 10
340.5
 20
267.0
 97
0
 75
1
 76
1
 52
0.0
 41
0.4
 77
0
 78
1
 53
45.0
 43
0.0
 44
0.0
 45
-0.8980256121
 46
0.8980256121
 79
0
 98
0
  0
LWPOLYLINE
  5
210
330
17
100
AcDbEntity
  8
GEOMETRY
100
AcDbPolyline
 90
5
 70
0
 10
340.5
 20
267.0
 10
352.0
 20
267.0
 10
352.0
 20
128.54999999999998
 10
340.5
 20
128.54999999999998
 10
340.5
 20
267.0
  0
HATCH
  5
211
330
17
100
AcDbEntity
  8
HATCH
 62
7
100
AcDbHatch
 10
0.0
 20
0.0
 30
0.0
210
0.0
220
0.0
230
1.0
  2
ANSI31
 70
0
 71
0
 91
1
 92
3
 72
0
 73
1
 93
6
 10
352.0
 20
128.54999999999998
 10
353.0
 20
128.54999999999998
 10
353.0
 20
133.15
 10
352.5
 20
133.65
 10
352.0
 20
133.65
 10
352.0
 20
128.54999999999998
 97
0
 75
1
 76
1
 52
0.0
 41
0.4
 77
0
 78
1
 53
45.0
 43
0.0
 44
0.0
 45
-0.8980256121
 46
0.8980256121
 79
0
 98
0
  0
LWPOLYLINE
  5
212
330
17
100
AcDbEntity
  8
GEOMETRY
100
AcDbPolyline
 90
6
 70
0
 10
352.0
 20
128.54999999999998
 10
353.0
 20
128.54999999999998
 10
353.0
 20
133.15
 10
352.5
 20
133.65
 10
352.0
 20
133.65
 10
352.0
 20
128.54999999999998
  0
HATCH
  5
213
330
17
100
AcDbEntity
  8
HATCH
 62
7
100
AcDbHatch
 10
0.0
 20
0.0
 30
0.0
210
0.0
220
0.0
230
1.0
  2
ANSI31
 70
0
 71
0
 91
1
 92
3
 72
0
 73
1
 93
100
 10
352.0
 20
160.85
 10
353.15
 20
160.85
 10
353.18269947670706
 20
160.85214800696937
 10
353.2147045971357
 20
160.85851915600617
 10
353.2456074189965
 20
160.86900413930334
 10
353.275
 20
160.8834936490539
 10
353.3022445740341
 20
160.90170361601042
 10
353.3267762468581
 20
160.92322375314188
 10
353.3482963839896
 20
160.94775542596588
 10
353.3665063509461
 20
160.975
 10
353.38099586069666
 20
161.0043925810035
 10
353.3914808439938
 20
161.03529540286428
 10
353.3978519930306
 20
161.06730052329291
 10
353.4
 20
161.1
 10
353.3978519930306
 20
161.13269947670707
 10
353.3914808439938
 20
161.1647045971357
 10
353.38099586069666
 20
161.1956074189965
 10
353.3665063509461
 20
161.225
 10
353.3482963839896
 20
161.2522445740341
 10
353.3267762468581
 20
161.2767762468581
 10
353.3022445740341
 20
161.29829638398957
 10
353.275
 20
161.3165063509461
 10
353.2456074189965
 20
161.33099586069665
 10
353.2147045971357
 20
161.34148084399382
 10
353.18269947670706
 20
161.34785199303062
 10
353.15
 20
161.35
 10
353.18269947670706
 20
161.35214800696937
 10
353.2147045971357
 20
161.35851915600617
 10
353.2456074189965
 20
161.36900413930334
 10
353.275
 20
161.3834936490539
 10
353.3022445740341
 20
161.40170361601042
 10
353.3267762468581
 20
161.42322375314188
 10
353.3482963839896
 20
161.44775542596588
 10
353.3665063509461
 20
161.475
 10
353.38099586069666
 20
161.5043925810035
 10
353.3914808439938
 20
161.53529540286428
 10
353.3978519930306
 20
161.56730052329291
 10
353.4
 20
161.6
 10
353.3978519930306
 20
161.63269947670707
 10
353.3914808439938
 20
161.6647045971357
 10
353.38099586069666
 20
161.6956074189965
 10
353.3665063509461
 20
161.725
 10
353.3482963839896
 20
161.7522445740341
 10
353.3267762468581
 20
161.7767762468581
 10
353.3022445740341
 20
161.79829638398957
 10
353.275
 20
161.8165063509461
 10
353.2456074189965
 20
161.83099586069665
 10
353.2147045971357
 20
161.84148084399382
 10
353.18269947670706
 20
161.84785199303062
 10
353.15
 20
161.85
 10
353.18269947670706
 20
161.85214800696937
 10
353.2147045971357
 20
161.85851915600617
 10
353.2456074189965
 20
161.86900413930334
 10
353.275
 20
161.8834936490539
 10
353.3022445740341
 20
161.90170361601042
 10
353.3267762468581
 20
161.92322375314188
 10
353.3482963839896
 20
161.94775542596588
 10
353.3665063509461
 20
161.975
 10
353.38099586069666
 20
162.0043925810035
 10
353.3914808439938
 20
162.03529540286428
 10
353.3978519930306
 20
162.06730052329291
 10
353.4
 20
162.1
 10
353.3978519930306
 20
162.13269947670707
 10
353.3914808439938
 20
162.1647045971357
 10
353.38099586069666
 20
162.1956074189965
 10
353.3665063509461
 20
162.225
 10
353.3482963839896
 20
162.2522445740341
 10
353.3267762468581
 20
162.2767762468581
 10
353.3022445740341
 20
162.29829638398957
 10
353.275
 20
162.3165063509461
 10
353.2456074189965
 20
162.33099586069665
 10
353.2147045971357
 20
162.34148084399382
 10
353.18269947670706
 20
162.34785199303062
 10
353.15
 20
162.35
 10
353.18269947670706
 20
162.35214800696937
 10
353.2147045971357
 20
162.35851915600617
 10
353.2456074189965
 20
162.36900413930334
 10
353.275
 20
162.3834936490539
 10
353.3022445740341
 20
162.40170361601042
 10
353.3267762468581
 20
162.42322375314188
 10
353.3482963839896
 20
162.44775542596588
 10
353.3665063509461
 20
162.475
 10
353.38099586069666
 20
162.5043925810035
 10
353.3914808439938
 20
162.53529540286428
 10
353.3978519930306
 20
162.56730052329291
 10
353.4
 20
162.6
 10
353.3978519930306
 20
162.63269947670707
 10
353.3914808439938
 20
162.6647045971357
 10
353.38099586069666
 20
162.6956074189965
 10
353.3665063509461
 20
162.725
 10
353.3482963839896
 20
162.7522445740341
 10
353.3267762468581
 20
162.7767762468581
 10
353.3022445740341
 20
162.79829638398957
 10
353.275
 20
162.8165063509461
 10
353.2456074189965
 20
162.83099586069665
 10
353.2147045971357
 20
162.84148084399382
 10
353.18269947670706
 20
162.84785199303062
 10
353.15
 20
162.85
 10
352.0
 20
162.85
 10
352.0
 20
160.85
 97
0
 75
1
 76
1
 52
0.0
 41
0.4
 77
0
 78
1
 53
45.0
 43
0.0
 44
0.0
 45
-0.8980256121
 46
0.8980256121
 79
0
 98
0
  0
POLYLINE
  5
214
330
17
100
AcDbEntity
  8
GEOMETRY
100
AcDb2dPolyline
 66
1
 10
0.0
 20
0.0
 30
0.0
 70
0
  0
VERTEX
  5
215
330
214
100
AcDbEntity
  8
GEOMETRY
100
AcDbVertex
100
AcDb2dVertex
 10
352.0
 20
160.85
 30
0.0
 70
0
  0
VERTEX
  5
216
330
214
100
AcDbEntity
  8
GEOMETRY
100
AcDbVertex
100
AcDb2dVertex
 10
353.15
 20
160.85
 30
0.0
 70
0
  0
SEQEND
  5
217
330
214
100
AcDbEntity
  8
GEOMETRY
  0
SPLINE
  5
218
330
17
100
AcDbEntity
  8
GEOMETRY
100
AcDbSpline
 70
0
 71
3
 72
23
 73
19
 74
0
 40
0.0
 40
0.0
 40
0.0
 40
0.0
 40
1.0
 40
1.0
 40
1.0
 40
2.0
 40
2.0
 40
2.0
 40
3.0
 40
3.0
 40
3.0
 40
4.0
 40
4.0
 40
4.0
 40
5.0
 40
5.0
 40
5.0
 40
6.0
 40
6.0
 40
6.0
 40
6.0
 10
353.15
 20
160.85
 30
0.0
 10
353.1938808987775
 20
160.85
 30
0.0
 10
353.2369980269178
 20
160.86155319966514
 30
0.0
 10
353.275
 20
160.8834936490539
 30
0.0
 10
353.3130019730822
 20
160.90543409844264
 30
0.0
 10
353.34456590155736
 20
160.93699802691776
 30
0.0
 10
353.3665063509461
 20
160.975
 30
0.0
 10
353.38844680033486
 20
161.01300197308223
 30
0.0
 10
353.4
 20
161.0561191012225
 30
0.0
 10
353.4
 20
161.1
 30
0.0
 10
353.4
 20
161.1438808987775
 30
0.0
 10
353.38844680033486
 20
161.18699802691776
 30
0.0
 10
353.3665063509461
 20
161.225
 30
0.0
 10
353.34456590155736
 20
161.26300197308223
 30
0.0
 10
353.3130019730822
 20
161.29456590155735
 30
0.0
 10
353.275
 20
161.3165063509461
 30
0.0
 10
353.2369980269178
 20
161.33844680033485
 30
0.0
 10
353.1938808987775
 20
161.35
 30
0.0
 10
353.15
 20
161.35
 30
0.0
  0
SPLINE
  5
219
330
17
100
AcDbEntity
  8
GEOMETRY
100
AcDbSpline
 70
0
 71
3
 72
23
 73
19
 74
0
 40
0.0
 40
0.0
 40
0.0
 40
0.0
 40
1.0
 40
1.0
 40
1.0
 40
2.0
 40
2.0
 40
2.0
 40
3.0
 40
3.0
 40
3.0
 40
4.0
 40
4.0
 40
4.0
 40
5.0
 40
5.0
 40
5.0
 40
6.0
 40
6.0
 40
6.0
 40
6.0
 10
353.15
 20
161.35
 30
0.0
 10
353.1938808987775
 20
161.35
 30
0.0
 10
353.2369980269178
 20
161.36155319966514
 30
0.0
 10
353.275
 20
161.3834936490539
 30
0.0
 10
353.3130019730822
 20
161.40543409844264
 30
0.0
 10
353.34456590155736
 20
161.43699802691776
 30
0.0
 10
353.3665063509461
 20
161.475
 30
0.0
 10
353.38844680033486
 20
161.51300197308223
 30
0.0
 10
353.4
 20
161.5561191012225
 30
0.0
 10
353.4
 20
161.6
 30
0.0
 10
353.4
 20
161.6438808987775
 30
0.0
 10
353.38844680033486
 20
161.68699802691776
 30
0.0
 10
353.3665063509461
 20
161.725
 30
0.0
 10
353.34456590155736
 20
161.76300197308223
 30
0.0
 10
353.3130019730822
 20
161.79456590155735
 30
0.0
 10
353.275
 20
161.8165063509461
 30
0.0
 10
353.2369980269178
 20
161.83844680033485
 30
0.0
 10
353.1938808987775
 20
161.85
 30
0.0
 10
353.15
 20
161.85
 30
0.0
  0
SPLINE
  5
21A
330
17
100
AcDbEntity
  8
GEOMETRY
100
AcDbSpline
 70
0
 71
3
 72
23
 73
19
 74
0
 40
0.0
 40
0.0
 40
0.0
 40
0.0
 40
1.0
 40
1.0
 40
1.0
 40
2.0
 40
2.0
 40
2.0
 40
3.0
 40
3.0
 40
3.0
 40
4.0
 40
4.0
 40
4.0
 40
5.0
 40
5.0
 40
5.0
 40
6.0
 40
6.0
 40
6.0
 40
6.0
 10
353.15
 20
161.85
 30
0.0
 10
353.1938808987775
 20
161.85
 30
0.0
 10
353.2369980269178
 20
161.86155319966514
 30
0.0
 10
353.275
 20
161.8834936490539
 30
0.0
 10
353.3130019730822
 20
161.90543409844264
 30
0.0
 10
353.34456590155736
 20
161.93699802691776
 30
0.0
 10
353.3665063509461
 20
161.975
 30
0.0
 10
353.38844680033486
 20
162.01300197308223
 30
0.0
 10
353.4
 20
162.0561191012225
 30
0.0
 10
353.4
 20
162.1
 30
0.0
 10
353.4
 20
162.1438808987775
 30
0.0
 10
353.38844680033486
 20
162.18699802691776
 30
0.0
 10
353.3665063509461
 20
162.225
 30
0.0
 10
353.34456590155736
 20
162.26300197308223
 30
0.0
 10
353.3130019730822
 20
162.29456590155735
 30
0.0
 10
353.275
 20
162.3165063509461
 30
0.0
 10
353.2369980269178
 20
162.33844680033485
 30
0.0
 10
353.1938808987775
 20
162.35
 30
0.0
 10
353.15
 20
162.35
 30
0.0
  0
SPLINE
  5
21B
330
17
100
AcDbEntity
  8
GEOMETRY
100
AcDbSpline
 70
0
 71
3
 72
23
 73
19
 74
0
 40
0.0
 40
0.0
 40
0.0
 40
0.0
 40
1.0
 40
1.0
 40
1.0
 40
2.0
 40
2.0
 40
2.0
 40
3.0
 40
3.0
 40
3.0
 40
4.0
 40
4.0
 40
4.0
 40
5.0
 40
5.0
 40
5.0
 40
6.0
 40
6.0
 40
6.0
 40
6.0
 10
353.15
 20
162.35
 30
0.0
 10
353.1938808987775
 20
162.35
 30
0.0
 10
353.2369980269178
 20
162.36155319966514
 30
0.0
 10
353.275
 20
162.3834936490539
 30
0.0
 10
353.3130019730822
 20
162.40543409844264
 30
0.0
 10
353.34456590155736
 20
162.43699802691776
 30
0.0
 10
353.3665063509461
 20
162.475
 30
0.0
 10
353.38844680033486
 20
162.51300197308223
 30
0.0
 10
353.4
 20
162.5561191012225
 30
0.0
 10
353.4
 20
162.6
 30
0.0
 10
353.4
 20
162.6438808987775
 30
0.0
 10
353.38844680033486
 20
162.68699802691776
 30
0.0
 10
353.3665063509461
 20
162.725
 30
0.0
 10
353.34456590155736
 20
162.76300197308223
 30
0.0
 10
353.3130019730822
 20
162.79456590155735
 30
0.0
 10
353.275
 20
162.8165063509461
 30
0.0
 10
353.2369980269178
 20
162.83844680033485
 30
0.0
 10
353.1938808987775
 20
162.85
 30
0.0
 10
353.15
 20
162.85
 30
0.0
  0
POLYLINE
  5
21C
330
17
100
AcDbEntity
  8
GEOMETRY
100
AcDb2dPolyline
 66
1
 10
0.0
 20
0.0
 30
0.0
 70
0
  0
VERTEX
  5
21D
330
21C
100
AcDbEntity
  8
GEOMETRY
100
AcDbVertex
100
AcDb2dVertex
 10
353.15
 20
162.85
 30
0.0
 70
0
  0
VERTEX
  5
21E
330
21C
100
AcDbEntity
  8
GEOMETRY
100
AcDbVertex
100
AcDb2dVertex
 10
352.0
 20
162.85
 30
0.0
 70
0
  0
VERTEX
  5
21F
330
21C
100
AcDbEntity
  8
GEOMETRY
100
AcDbVertex
100
AcDb2dVertex
 10
352.0
 20
160.85
 30
0.0
 70
0
  0
SEQEND
  5
220
330
21C
100
AcDbEntity
  8
GEOMETRY
  0
LWPOLYLINE
  5
221
330
17
100
AcDbEntity
  8
GEOMETRY
  6
DASHED
100
AcDbPolyline
 90
3
 70
0
 10
352.0
 20
267.0
 10
352.0
 20
273.0
 10
369.5
 20
273.0
  0
HATCH
  5
222
330
17
100
AcDbEntity
  8
HATCH
 62
7
100
AcDbHatch
 10
0.0
 20
0.0
 30
0.0
210
0.0
220
0.0
230
1.0
  2
ANSI31
 70
0
 71
0
 91
1
 92
3
 72
0
 73
1
 93
5
 10
352.0
 20
141.89999999999998
 10
353.2
 20
141.89999999999998
 10
353.2
 20
139.14999999999998
 10
352.0
 20
139.14999999999998
 10
352.0
 20
141.89999999999998
 97
0
 75
1
 76
1
 52
0.0
 41
0.4
 77
0
 78
1
 53
45.0
 43
0.0
 44
0.0
 45
-0.8980256121
 46
0.8980256121
 79
0
 98
0
  0
LWPOLYLINE
  5
223
330
17
100
AcDbEntity
  8
GEOMETRY
100
AcDbPolyline
 90
5
 70
0
 10
352.0
 20
141.89999999999998
 10
353.2
 20
141.89999999999998
 10
353.2
 20
139.14999999999998
 10
352.0
 20
139.14999999999998
 10
352.0
 20
141.89999999999998
  0
HATCH
  5
224
330
17
100
AcDbEntity
  8
HATCH
 62
7
100
AcDbHatch
 10
0.0
 20
0.0
 30
0.0
210
0.0
220
0.0
230
1.0
  2
ANSI31
 70
0
 71
0
 91
1
 92
3
 72
0
 73
1
 93
5
 10
352.0
 20
155.85
 10
353.2
 20
155.85
 10
353.2
 20
153.1
 10
352.0
 20
153.1
 10
352.0
 20
155.85
 97
0
 75
1
 76
1
 52
0.0
 41
0.4
 77
0
 78
1
 53
45.0
 43
0.0
 44
0.0
 45
-0.8980256121
 46
0.8980256121
 79
0
 98
0
  0
LWPOLYLINE
  5
225
330
17
100
AcDbEntity
  8
GEOMETRY
100
AcDbPolyline
 90
5
 70
0
 10
352.0
 20
155.85
 10
353.2
 20
155.85
 10
353.2
 20
153.1
 10
352.0
 20
153.1
 10
352.0
 20
155.85
  0
HATCH
  5
226
330
17
100
AcDbEntity
  8
HATCH
 62
7
100
AcDbHatch
 10
0.0
 20
0.0
 30
0.0
210
0.0
220
0.0
230
1.0
  2
ANSI31
 70
0
 71
0
 91
1
 92
3
 72
0
 73
1
 93
5
 10
352.0
 20
171.1
 10
353.2
 20
171.1
 10
353.2
 20
168.35
 10
352.0
 20
168.35
 10
352.0
 20
171.1
 97
0
 75
1
 76
1
 52
0.0
 41
0.4
 77
0
 78
1
 53
45.0
 43
0.0
 44
0.0
 45
-0.8980256121
 46
0.8980256121
 79
0
 98
0
  0
LWPOLYLINE
  5
227
330
17
100
AcDbEntity
  8
GEOMETRY
100
AcDbPolyline
 90
5
 70
0
 10
352.0
 20
171.1
 10
353.2
 20
171.1
 10
353.2
 20
168.35
 10
352.0
 20
168.35
 10
352.0
 20
171.1
  0
HATCH
  5
228
330
17
100
AcDbEntity
  8
HATCH
 62
7
100
AcDbHatch
 10
0.0
 20
0.0
 30
0.0
210
0.0
220
0.0
230
1.0
  2
ANSI31
 70
0
 71
0
 91
1
 92
3
 72
0
 73
1
 93
5
 10
352.0
 20
250.45
 10
353.2
 20
250.45
 10
353.2
 20
247.7
 10
352.0
 20
247.7
 10
352.0
 20
250.45
 97
0
 75
1
 76
1
 52
0.0
 41
0.4
 77
0
 78
1
 53
45.0
 43
0.0
 44
0.0
 45
-0.8980256121
 46
0.8980256121
 79
0
 98
0
  0
LWPOLYLINE
  5
229
330
17
100
AcDbEntity
  8
GEOMETRY
100
AcDbPolyline
 90
5
 70
0
 10
352.0
 20
250.45
 10
353.2
 20
250.45
 10
353.2
 20
247.7
 10
352.0
 20
247.7
 10
352.0
 20
250.45
  0
LWPOLYLINE
  5
22A
330
17
100
AcDbEntity
  8
GEOMETRY
100
AcDbPolyline
 90
5
 70
0
 10
352.0
 20
196.05
 10
352.9
 20
196.05
 10
352.9
 20
190.05
 10
352.0
 20
190.05
 10
352.0
 20
196.05
  0
SPLINE
  5
22B
330
17
100
AcDbEntity
  8
GEOMETRY
100
AcDbSpline
 70
0
 71
3
 72
8
 73
4
 74
0
 40
0.0
 40
0.0
 40
0.0
 40
0.0
 40
1.0
 40
1.0
 40
1.0
 40
1.0
 10
352.9
 20
192.55
 30
0.0
 10
356.5
 20
189.55
 30
0.0
 10
362.5
 20
190.55
 30
0.0
 10
363.5
 20
194.05
 30
0.0
  0
LWPOLYLINE
  5
22C
330
17
100
AcDbEntity
  8
GEOMETRY
100
AcDbPolyline
 90
5
 70
0
 10
363.1
 20
197.55
 10
363.90000000000003
 20
197.55
 10
363.90000000000003
 20
194.05
 10
363.1
 20
194.05
 10
363.1
 20
197.55
  0
LWPOLYLINE
  5
22D
330
17
100
AcDbEntity
  8
GEOMETRY
100
AcDbPolyline
 90
5
 70
0
 10
360.5
 20
197.55
 10
366.5
 20
197.55
 10
365.3
 20
202.55
 10
361.7
 20
202.55
 10
360.5
 20
197.55
  0
LINE
  5
22E
330
17
100
AcDbEntity
  8
GEOMETRY
100
AcDbLine
 10
336.5
 20
128.54999999999998
 30
0.0
 11
376.0
 21
128.54999999999998
 31
0.0
  0
LINE
  5
22F
330
17
100
AcDbEntity
  8
GEOMETRY
100
AcDbLine
 10
336.5
 20
267.0
 30
0.0
 11
376.0
 21
267.0
 31
0.0
  0
LINE
  5
230
330
17
100
AcDbEntity
  8
GEOMETRY
100
AcDbLine
 10
362.0
 20
273.0
 30
0.0
 11
378.0
 21
265.5
 31
0.0
  0
TEXT
  5
231
330
17
100
AcDbEntity
  8
TEXT
100
AcDbText
 10
379.0
 20
265.3
 30
0.0
 40
1.224
  1
CEILING COVE LIGHT
 11
379.0
 21
265.3
 31
0.0
100
AcDbText
  0
TEXT
  5
232
330
17
100
AcDbEntity
  8
TEXT
100
AcDbText
 10
379.0
 20
263.0
 30
0.0
 40
1.044
  1
NOTHING FIXED AT THE TOP
 11
379.0
 21
263.0
 31
0.0
100
AcDbText
  0
LINE
  5
233
330
17
100
AcDbEntity
  8
GEOMETRY
100
AcDbLine
 10
353.2
 20
248.95
 30
0.0
 11
378.0
 21
241.45
 31
0.0
  0
TEXT
  5
234
330
17
100
AcDbEntity
  8
TEXT
100
AcDbText
 10
379.0
 20
241.25
 30
0.0
 40
1.224
  1
PANEL MOULDING
 11
379.0
 21
241.25
 31
0.0
100
AcDbText
  0
TEXT
  5
235
330
17
100
AcDbEntity
  8
TEXT
100
AcDbText
 10
379.0
 20
238.95
 30
0.0
 40
1.044
  1
DET. 1
 11
379.0
 21
238.95
 31
0.0
100
AcDbText
  0
LINE
  5
236
330
17
100
AcDbEntity
  8
GEOMETRY
100
AcDbLine
 10
365.0
 20
200.05
 30
0.0
 11
378.0
 21
207.05
 31
0.0
  0
TEXT
  5
237
330
17
100
AcDbEntity
  8
TEXT
100
AcDbText
 10
379.0
 20
206.85
 30
0.0
 40
1.224
  1
WALL LAMP
 11
379.0
 21
206.85
 31
0.0
100
AcDbText
  0
TEXT
  5
238
330
17
100
AcDbEntity
  8
TEXT
100
AcDbText
 10
379.0
 20
204.55
 30
0.0
 40
1.044
  1
DET. 4
 11
379.0
 21
204.55
 31
0.0
100
AcDbText
  0
LINE
  5
239
330
17
100
AcDbEntity
  8
GEOMETRY
100
AcDbLine
 10
353.4
 20
161.95
 30
0.0
 11
378.0
 21
168.35
 31
0.0
  0
TEXT
  5
23A
330
17
100
AcDbEntity
  8
TEXT
100
AcDbText
 10
379.0
 20
168.15
 30
0.0
 40
1.224
  1
RAIL
 11
379.0
 21
168.15
 31
0.0
100
AcDbText
  0
TEXT
  5
23B
330
17
100
AcDbEntity
  8
TEXT
100
AcDbText
 10
379.0
 20
165.85
 30
0.0
 40
1.044
  1
DET. 2
 11
379.0
 21
165.85
 31
0.0
100
AcDbText
  0
LINE
  5
23C
330
17
100
AcDbEntity
  8
DIMENSIONS
100
AcDbLine
 10
336.5
 20
194.55
 30
0.0
 11
336.5
 21
127.05000000000001
 31
0.0
  0
LINE
  5
23D
330
17
100
AcDbEntity
  8
DIMENSIONS
100
AcDbLine
 10
339.5
 20
193.05
 30
0.0
 11
337.7
 21
193.05
 31
0.0
  0
LINE
  5
23E
330
17
100
AcDbEntity
  8
DIMENSIONS
100
AcDbLine
 10
335.5
 20
192.05
 30
0.0
 11
337.5
 21
194.05
 31
0.0
  0
LINE
  5
23F
330
17
100
AcDbEntity
  8
DIMENSIONS
100
AcDbLine
 10
339.5
 20
128.55
 30
0.0
 11
337.7
 21
128.55
 31
0.0
  0
LINE
  5
240
330
17
100
AcDbEntity
  8
DIMENSIONS
100
AcDbLine
 10
335.5
 20
127.55000000000001
 30
0.0
 11
337.5
 21
129.55
 31
0.0
  0
TEXT
  5
241
330
17
100
AcDbEntity
  8
TEXT
100
AcDbText
 10
335.7
 20
160.8
 30
0.0
 40
0.864
  1
1290 TO LAMP CENTRE
 50
90.0
 72
1
 11
335.7
 21
160.8
 31
0.0
100
AcDbText
  0
LINE
  5
242
330
17
100
AcDbEntity
  8
GEOMETRY
100
AcDbLine
 10
353.0
 20
131.05
 30
0.0
 11
378.0
 21
134.55
 31
0.0
  0
TEXT
  5
243
330
17
100
AcDbEntity
  8
TEXT
100
AcDbText
 10
379.0
 20
134.35
 30
0.0
 40
1.224
  1
MARBLE SKIRTING
 11
379.0
 21
134.35
 31
0.0
100
AcDbText
  0
TEXT
  5
244
330
17
100
AcDbEntity
  8
TEXT
100
AcDbText
 10
379.0
 20
132.05
 30
0.0
 40
1.044
  1
4 IN · LAID
 11
379.0
 21
132.05
 31
0.0
100
AcDbText
  0
TEXT
  5
245
330
17
100
AcDbEntity
  8
TEXT
100
AcDbText
 10
318.0
 20
117.0
 30
0.0
 40
2.304
  1
NOTES
 11
318.0
 21
117.0
 31
0.0
100
AcDbText
  0
LINE
  5
246
330
17
100
AcDbEntity
  8
GEOMETRY
100
AcDbLine
 10
318.0
 20
115.5
 30
0.0
 11
358.0
 21
115.5
 31
0.0
  0
TEXT
  5
247
330
17
100
AcDbEntity
  8
TEXT
100
AcDbText
 10
318.0
 20
112.19999999999999
 30
0.0
 40
1.224
  1
REVISION 9
 11
318.0
 21
112.19999999999999
 31
0.0
100
AcDbText
  0
TEXT
  5
248
330
17
100
AcDbEntity
  8
TEXT
100
AcDbText
 10
318.0
 20
106.0
 30
0.0
 40
1.1159999999999999
  1
Option C: 5 equal panels, lamps in 1, 3 and 5.
 11
318.0
 21
106.0
 31
0.0
100
AcDbText
  0
TEXT
  5
249
330
17
100
AcDbEntity
  8
TEXT
100
AcDbText
 10
318.0
 20
101.69999999999999
 30
0.0
 40
1.1159999999999999
  1
Skirting is white marble, 4 in, already laid.
 11
318.0
 21
101.69999999999999
 31
0.0
100
AcDbText
  0
TEXT
  5
24A
330
17
100
AcDbEntity
  8
TEXT
100
AcDbText
 10
318.0
 20
97.4
 30
0.0
 40
1.1159999999999999
  1
One narrow panel on the 2 ft 4 in wall past the door.
 11
318.0
 21
97.4
 31
0.0
100
AcDbText
  0
TEXT
  5
24B
330
17
100
AcDbEntity
  8
TEXT
100
AcDbText
 10
318.0
 20
93.1
 30
0.0
 40
1.1159999999999999
  1
Moulding, rail and skirting painted the wall colour.
 11
318.0
 21
93.1
 31
0.0
100
AcDbText
  0
TEXT
  5
24C
330
17
100
AcDbEntity
  8
TEXT
100
AcDbText
 10
318.0
 20
88.80000000000001
 30
0.0
 40
1.1159999999999999
  1
Rail is the study counter band carried round the
 11
318.0
 21
88.80000000000001
 31
0.0
100
AcDbText
  0
TEXT
  5
24D
330
17
100
AcDbEntity
  8
TEXT
100
AcDbText
 10
318.0
 20
84.5
 30
0.0
 40
1.1159999999999999
  1
corner — same 646–686 height, same 4 reeds.
 11
318.0
 21
84.5
 31
0.0
100
AcDbText
  0
TEXT
  5
24E
330
17
100
AcDbEntity
  8
TEXT
100
AcDbText
 10
318.0
 20
80.19999999999999
 30
0.0
 40
1.1159999999999999
  1
Short and tall panels share the same centres.
 11
318.0
 21
80.19999999999999
 31
0.0
100
AcDbText
  0
TEXT
  5
24F
330
17
100
AcDbEntity
  8
TEXT
100
AcDbText
 10
318.0
 20
75.9
 30
0.0
 40
1.1159999999999999
  1
Measured: 13 ft 6 in corner to frame, 3 ft frame,
 11
318.0
 21
75.9
 31
0.0
100
AcDbText
  0
TEXT
  5
250
330
17
100
AcDbEntity
  8
TEXT
100
AcDbText
 10
318.0
 20
71.6
 30
0.0
 40
1.1159999999999999
  1
2 ft 4 in return, overall 18 ft 11 in. The 1 in goes
 11
318.0
 21
71.6
 31
0.0
100
AcDbText
  0
TEXT
  5
251
330
17
100
AcDbEntity
  8
TEXT
100
AcDbText
 10
318.0
 20
67.30000000000001
 30
0.0
 40
1.1159999999999999
  1
into the long run to the frame.
 11
318.0
 21
67.30000000000001
 31
0.0
100
AcDbText
  0
TEXT
  5
252
330
17
100
AcDbEntity
  8
TEXT
100
AcDbText
 10
318.0
 20
63.0
 30
0.0
 40
1.1159999999999999
  1
Panelling starts clear of the study unit: 280 (11 in)
 11
318.0
 21
63.0
 31
0.0
100
AcDbText
  0
TEXT
  5
253
330
17
100
AcDbEntity
  8
TEXT
100
AcDbText
 10
318.0
 20
58.69999999999999
 30
0.0
 40
1.1159999999999999
  1
return, then a 150 (6 in) gap, then panel 1.
 11
318.0
 21
58.69999999999999
 31
0.0
100
AcDbText
  0
TEXT
  5
254
330
17
100
AcDbEntity
  8
TEXT
100
AcDbText
 10
318.0
 20
54.400000000000006
 30
0.0
 40
1.1159999999999999
  1
Rail datum 686 is PROVISIONAL, pending the sill.
 11
318.0
 21
54.400000000000006
 31
0.0
100
AcDbText
  0
TEXT
  5
255
330
17
100
AcDbEntity
  8
TEXT
100
AcDbText
 10
318.0
 20
50.099999999999994
 30
0.0
 40
1.1159999999999999
  1
keeping the stiles 150 and the panels equal.
 11
318.0
 21
50.099999999999994
 31
0.0
100
AcDbText
  0
TEXT
  5
256
330
17
100
AcDbEntity
  8
TEXT
100
AcDbText
 10
18.0
 20
59.0
 30
0.0
 40
2.304
  1
1 · PANEL MOULDING
 11
18.0
 21
59.0
 31
0.0
100
AcDbText
  0
LINE
  5
257
330
17
100
AcDbEntity
  8
GEOMETRY
100
AcDbLine
 10
18.0
 20
57.5
 30
0.0
 11
58.0
 21
57.5
 31
0.0
  0
TEXT
  5
258
330
17
100
AcDbEntity
  8
TEXT
100
AcDbText
 10
18.0
 20
54.19999999999999
 30
0.0
 40
1.224
  1
SECTION · 1:1
 11
18.0
 21
54.19999999999999
 31
0.0
100
AcDbText
  0
HATCH
  5
259
330
17
100
AcDbEntity
  8
HATCH
 62
7
100
AcDbHatch
 10
0.0
 20
0.0
 30
0.0
210
0.0
220
0.0
230
1.0
  2
ANSI31
 70
0
 71
0
 91
1
 92
3
 72
0
 73
1
 93
21
 10
22.0
 20
29.0
 10
22.0
 20
34.0
 10
23.5
 20
38.0
 10
26.0
 20
41.0
 10
29.5
 20
43.0
 10
34.0
 20
44.0
 10
38.625
 20
44.8125
 10
42.5
 20
46.25
 10
45.625
 20
48.3125
 10
48.0
 20
51.0
 10
50.9375
 20
51.625
 10
53.75
 20
51.5
 10
56.4375
 20
50.625
 10
59.0
 20
49.0
 10
62.4375
 20
44.125
 10
65.75
 20
40.5
 10
68.9375
 20
38.125
 10
72.0
 20
37.0
 10
77.0
 20
37.0
 10
77.0
 20
29.0
 10
22.0
 20
29.0
 97
0
 75
1
 76
1
 52
0.0
 41
0.4
 77
0
 78
1
 53
45.0
 43
0.0
 44
0.0
 45
-0.8980256121
 46
0.8980256121
 79
0
 98
0
  0
POLYLINE
  5
25A
330
17
100
AcDbEntity
  8
GEOMETRY
100
AcDb2dPolyline
 66
1
 10
0.0
 20
0.0
 30
0.0
 70
0
  0
VERTEX
  5
25B
330
25A
100
AcDbEntity
  8
GEOMETRY
100
AcDbVertex
100
AcDb2dVertex
 10
22.0
 20
29.0
 30
0.0
 70
0
  0
VERTEX
  5
25C
330
25A
100
AcDbEntity
  8
GEOMETRY
100
AcDbVertex
100
AcDb2dVertex
 10
22.0
 20
34.0
 30
0.0
 70
0
  0
SEQEND
  5
25D
330
25A
100
AcDbEntity
  8
GEOMETRY
  0
SPLINE
  5
25E
330
17
100
AcDbEntity
  8
GEOMETRY
100
AcDbSpline
 70
0
 71
3
 72
11
 73
7
 74
0
 40
0.0
 40
0.0
 40
0.0
 40
0.0
 40
1.0
 40
1.0
 40
1.0
 40
2.0
 40
2.0
 40
2.0
 40
2.0
 10
22.0
 20
34.0
 30
0.0
 10
23.333333333333332
 20
40.0
 30
0.0
 10
27.333333333333336
 20
43.333333333333336
 30
0.0
 10
34.0
 20
44.0
 30
0.0
 10
40.666666666666664
 20
44.666666666666664
 30
0.0
 10
45.333333333333336
 20
47.0
 30
0.0
 10
48.0
 20
51.0
 30
0.0
  0
SPLINE
  5
25F
330
17
100
AcDbEntity
  8
GEOMETRY
100
AcDbSpline
 70
0
 71
3
 72
8
 73
4
 74
0
 40
0.0
 40
0.0
 40
0.0
 40
0.0
 40
1.0
 40
1.0
 40
1.0
 40
1.0
 10
48.0
 20
51.0
 30
0.0
 10
52.0
 20
52.333333333333336
 30
0.0
 10
55.666666666666664
 20
51.666666666666664
 30
0.0
 10
59.0
 20
49.0
 30
0.0
  0
SPLINE
  5
260
330
17
100
AcDbEntity
  8
GEOMETRY
100
AcDbSpline
 70
0
 71
3
 72
8
 73
4
 74
0
 40
0.0
 40
0.0
 40
0.0
 40
0.0
 40
1.0
 40
1.0
 40
1.0
 40
1.0
 10
59.0
 20
49.0
 30
0.0
 10
63.666666666666664
 20
41.666666666666664
 30
0.0
 10
68.0
 20
37.666666666666664
 30
0.0
 10
72.0
 20
37.0
 30
0.0
  0
POLYLINE
  5
261
330
17
100
AcDbEntity
  8
GEOMETRY
100
AcDb2dPolyline
 66
1
 10
0.0
 20
0.0
 30
0.0
 70
0
  0
VERTEX
  5
262
330
261
100
AcDbEntity
  8
GEOMETRY
100
AcDbVertex
100
AcDb2dVertex
 10
72.0
 20
37.0
 30
0.0
 70
0
  0
VERTEX
  5
263
330
261
100
AcDbEntity
  8
GEOMETRY
100
AcDbVertex
100
AcDb2dVertex
 10
77.0
 20
37.0
 30
0.0
 70
0
  0
VERTEX
  5
264
330
261
100
AcDbEntity
  8
GEOMETRY
100
AcDbVertex
100
AcDb2dVertex
 10
77.0
 20
29.0
 30
0.0
 70
0
  0
VERTEX
  5
265
330
261
100
AcDbEntity
  8
GEOMETRY
100
AcDbVertex
100
AcDb2dVertex
 10
22.0
 20
29.0
 30
0.0
 70
0
  0
SEQEND
  5
266
330
261
100
AcDbEntity
  8
GEOMETRY
  0
LINE
  5
267
330
17
100
AcDbEntity
  8
GEOMETRY
100
AcDbLine
 10
16.0
 20
29.0
 30
0.0
 11
84.0
 21
29.0
 31
0.0
  0
LINE
  5
268
330
17
100
AcDbEntity
  8
DIMENSIONS
100
AcDbLine
 10
20.5
 20
21.0
 30
0.0
 11
78.5
 21
21.0
 31
0.0
  0
LINE
  5
269
330
17
100
AcDbEntity
  8
DIMENSIONS
100
AcDbLine
 10
22.0
 20
28.0
 30
0.0
 11
22.0
 21
19.80000000000001
 31
0.0
  0
LINE
  5
26A
330
17
100
AcDbEntity
  8
DIMENSIONS
100
AcDbLine
 10
21.0
 20
20.0
 30
0.0
 11
23.0
 21
22.0
 31
0.0
  0
LINE
  5
26B
330
17
100
AcDbEntity
  8
DIMENSIONS
100
AcDbLine
 10
77.0
 20
28.0
 30
0.0
 11
77.0
 21
19.80000000000001
 31
0.0
  0
LINE
  5
26C
330
17
100
AcDbEntity
  8
DIMENSIONS
100
AcDbLine
 10
76.0
 20
20.0
 30
0.0
 11
78.0
 21
22.0
 31
0.0
  0
TEXT
  5
26D
330
17
100
AcDbEntity
  8
TEXT
100
AcDbText
 10
49.5
 20
21.80000000000001
 30
0.0
 40
0.9359999999999999
  1
55
 72
1
 11
49.5
 21
21.80000000000001
 31
0.0
100
AcDbText
  0
LINE
  5
26E
330
17
100
AcDbEntity
  8
DIMENSIONS
100
AcDbLine
 10
82.0
 20
54.5
 30
0.0
 11
82.0
 21
27.5
 31
0.0
  0
LINE
  5
26F
330
17
100
AcDbEntity
  8
DIMENSIONS
100
AcDbLine
 10
78.0
 20
53.0
 30
0.0
 11
83.2
 21
53.0
 31
0.0
  0
LINE
  5
270
330
17
100
AcDbEntity
  8
DIMENSIONS
100
AcDbLine
 10
81.0
 20
52.0
 30
0.0
 11
83.0
 21
54.0
 31
0.0
  0
LINE
  5
271
330
17
100
AcDbEntity
  8
DIMENSIONS
100
AcDbLine
 10
78.0
 20
29.0
 30
0.0
 11
83.2
 21
29.0
 31
0.0
  0
LINE
  5
272
330
17
100
AcDbEntity
  8
DIMENSIONS
100
AcDbLine
 10
81.0
 20
28.0
 30
0.0
 11
83.0
 21
30.0
 31
0.0
  0
TEXT
  5
273
330
17
100
AcDbEntity
  8
TEXT
100
AcDbText
 10
81.19999999999999
 20
41.0
 30
0.0
 40
0.9359999999999999
  1
24
 50
90.0
 72
1
 11
81.19999999999999
 21
41.0
 31
0.0
100
AcDbText
  0
TEXT
  5
274
330
17
100
AcDbEntity
  8
TEXT
100
AcDbText
 10
22.0
 20
14.0
 30
0.0
 40
0.9359999999999999
  1
WALL FACE BELOW · MITRED CORNERS
 11
22.0
 21
14.0
 31
0.0
100
AcDbText
  0
TEXT
  5
275
330
17
100
AcDbEntity
  8
TEXT
100
AcDbText
 10
88.0
 20
59.0
 30
0.0
 40
2.304
  1
2 · RAIL
 11
88.0
 21
59.0
 31
0.0
100
AcDbText
  0
LINE
  5
276
330
17
100
AcDbEntity
  8
GEOMETRY
100
AcDbLine
 10
88.0
 20
57.5
 30
0.0
 11
120.0
 21
57.5
 31
0.0
  0
TEXT
  5
277
330
17
100
AcDbEntity
  8
TEXT
100
AcDbText
 10
88.0
 20
54.19999999999999
 30
0.0
 40
1.224
  1
SECTION · 1:2
 11
88.0
 21
54.19999999999999
 31
0.0
100
AcDbText
  0
HATCH
  5
278
330
17
100
AcDbEntity
  8
HATCH
 62
7
100
AcDbHatch
 10
0.0
 20
0.0
 30
0.0
210
0.0
220
0.0
230
1.0
  2
ANSI31
 70
0
 71
0
 91
1
 92
3
 72
0
 73
1
 93
5
 10
86.0
 20
52.5
 10
98.0
 20
52.5
 10
98.0
 20
17.5
 10
86.0
 20
17.5
 10
86.0
 20
52.5
 97
0
 75
1
 76
1
 52
0.0
 41
0.4
 77
0
 78
1
 53
45.0
 43
0.0
 44
0.0
 45
-0.8980256121
 46
0.8980256121
 79
0
 98
0
  0
HATCH
  5
279
330
17
100
AcDbEntity
  8
HATCH
 62
7
100
AcDbHatch
 10
0.0
 20
0.0
 30
0.0
210
0.0
220
0.0
230
1.0
  2
ANSI31
 70
0
 71
0
 91
1
 92
3
 72
0
 73
1
 93
100
 10
98.0
 20
25.0
 10
109.5
 20
25.0
 10
109.82699476707076
 20
25.02148006969378
 10
110.14704597135736
 20
25.085191560061617
 10
110.45607418996526
 20
25.19004139303337
 10
110.75
 20
25.334936490538894
 10
111.02244574034097
 20
25.517036160104112
 10
111.26776246858103
 20
25.732237531418946
 10
111.48296383989585
 20
25.97755425965903
 10
111.66506350946109
 20
26.25
 10
111.80995860696662
 20
26.54392581003475
 10
111.91480843993838
 20
26.85295402864267
 10
111.97851993030623
 20
27.173005232929256
 10
112.0
 20
27.5
 10
111.97851993030623
 20
27.826994767070744
 10
111.91480843993838
 20
28.14704597135733
 10
111.80995860696662
 20
28.45607418996525
 10
111.66506350946109
 20
28.75
 10
111.48296383989585
 20
29.02244574034097
 10
111.26776246858103
 20
29.267762468581054
 10
111.02244574034097
 20
29.482963839895888
 10
110.75
 20
29.665063509461106
 10
110.45607418996526
 20
29.80995860696663
 10
110.14704597135736
 20
29.914808439938383
 10
109.82699476707076
 20
29.97851993030622
 10
109.5
 20
30.0
 10
109.82699476707076
 20
30.02148006969378
 10
110.14704597135736
 20
30.085191560061617
 10
110.45607418996526
 20
30.19004139303337
 10
110.75
 20
30.334936490538894
 10
111.02244574034097
 20
30.517036160104112
 10
111.26776246858103
 20
30.732237531418946
 10
111.48296383989585
 20
30.97755425965903
 10
111.66506350946109
 20
31.25
 10
111.80995860696662
 20
31.54392581003475
 10
111.91480843993838
 20
31.85295402864267
 10
111.97851993030623
 20
32.173005232929256
 10
112.0
 20
32.5
 10
111.97851993030623
 20
32.826994767070744
 10
111.91480843993838
 20
33.14704597135733
 10
111.80995860696662
 20
33.45607418996525
 10
111.66506350946109
 20
33.75
 10
111.48296383989585
 20
34.02244574034097
 10
111.26776246858103
 20
34.267762468581054
 10
111.02244574034097
 20
34.48296383989589
 10
110.75
 20
34.665063509461106
 10
110.45607418996526
 20
34.80995860696663
 10
110.14704597135736
 20
34.91480843993838
 10
109.82699476707076
 20
34.97851993030622
 10
109.5
 20
35.0
 10
109.82699476707076
 20
35.02148006969378
 10
110.14704597135736
 20
35.08519156006162
 10
110.45607418996526
 20
35.19004139303337
 10
110.75
 20
35.334936490538894
 10
111.02244574034097
 20
35.51703616010411
 10
111.26776246858103
 20
35.732237531418946
 10
111.48296383989585
 20
35.97755425965903
 10
111.66506350946109
 20
36.25
 10
111.80995860696662
 20
36.54392581003475
 10
111.91480843993838
 20
36.85295402864267
 10
111.97851993030623
 20
37.173005232929256
 10
112.0
 20
37.5
 10
111.97851993030623
 20
37.826994767070744
 10
111.91480843993838
 20
38.14704597135733
 10
111.80995860696662
 20
38.45607418996525
 10
111.66506350946109
 20
38.75
 10
111.48296383989585
 20
39.02244574034097
 10
111.26776246858103
 20
39.267762468581054
 10
111.02244574034097
 20
39.48296383989589
 10
110.75
 20
39.665063509461106
 10
110.45607418996526
 20
39.80995860696663
 10
110.14704597135736
 20
39.91480843993838
 10
109.82699476707076
 20
39.97851993030622
 10
109.5
 20
40.0
 10
109.82699476707076
 20
40.02148006969378
 10
110.14704597135736
 20
40.08519156006162
 10
110.45607418996526
 20
40.19004139303337
 10
110.75
 20
40.334936490538894
 10
111.02244574034097
 20
40.51703616010411
 10
111.26776246858103
 20
40.732237531418946
 10
111.48296383989585
 20
40.97755425965903
 10
111.66506350946109
 20
41.25
 10
111.80995860696662
 20
41.54392581003475
 10
111.91480843993838
 20
41.85295402864264
 10
111.97851993030623
 20
42.17300523292923
 10
112.0
 20
42.5
 10
111.97851993030623
 20
42.82699476707077
 10
111.91480843993838
 20
43.14704597135736
 10
111.80995860696662
 20
43.45607418996525
 10
111.66506350946109
 20
43.75
 10
111.48296383989585
 20
44.02244574034097
 10
111.26776246858103
 20
44.267762468581054
 10
111.02244574034097
 20
44.48296383989586
 10
110.75
 20
44.665063509461106
 10
110.45607418996526
 20
44.80995860696663
 10
110.14704597135736
 20
44.91480843993838
 10
109.82699476707076
 20
44.97851993030625
 10
109.5
 20
45.0
 10
98.0
 20
45.0
 10
98.0
 20
25.0
 97
0
 75
1
 76
1
 52
0.0
 41
0.4
 77
0
 78
1
 53
45.0
 43
0.0
 44
0.0
 45
-0.8980256121
 46
0.8980256121
 79
0
 98
0
  0
POLYLINE
  5
27A
330
17
100
AcDbEntity
  8
GEOMETRY
100
AcDb2dPolyline
 66
1
 10
0.0
 20
0.0
 30
0.0
 70
0
  0
VERTEX
  5
27B
330
27A
100
AcDbEntity
  8
GEOMETRY
100
AcDbVertex
100
AcDb2dVertex
 10
98.0
 20
25.0
 30
0.0
 70
0
  0
VERTEX
  5
27C
330
27A
100
AcDbEntity
  8
GEOMETRY
100
AcDbVertex
100
AcDb2dVertex
 10
109.5
 20
25.0
 30
0.0
 70
0
  0
SEQEND
  5
27D
330
27A
100
AcDbEntity
  8
GEOMETRY
  0
SPLINE
  5
27E
330
17
100
AcDbEntity
  8
GEOMETRY
100
AcDbSpline
 70
0
 71
3
 72
23
 73
19
 74
0
 40
0.0
 40
0.0
 40
0.0
 40
0.0
 40
1.0
 40
1.0
 40
1.0
 40
2.0
 40
2.0
 40
2.0
 40
3.0
 40
3.0
 40
3.0
 40
4.0
 40
4.0
 40
4.0
 40
5.0
 40
5.0
 40
5.0
 40
6.0
 40
6.0
 40
6.0
 40
6.0
 10
109.5
 20
25.0
 30
0.0
 10
109.93880898777513
 20
25.0
 30
0.0
 10
110.3699802691778
 20
25.115531996651328
 30
0.0
 10
110.75
 20
25.334936490538894
 30
0.0
 10
111.1300197308222
 20
25.55434098442646
 30
0.0
 10
111.44565901557353
 20
25.869980269177802
 30
0.0
 10
111.66506350946109
 20
26.25
 30
0.0
 10
111.88446800334866
 20
26.630019730822198
 30
0.0
 10
112.0
 20
27.061191012224867
 30
0.0
 10
112.0
 20
27.5
 30
0.0
 10
112.0
 20
27.938808987775133
 30
0.0
 10
111.88446800334866
 20
28.369980269177802
 30
0.0
 10
111.66506350946109
 20
28.75
 30
0.0
 10
111.44565901557353
 20
29.130019730822198
 30
0.0
 10
111.1300197308222
 20
29.44565901557354
 30
0.0
 10
110.75
 20
29.665063509461106
 30
0.0
 10
110.3699802691778
 20
29.884468003348672
 30
0.0
 10
109.93880898777513
 20
30.0
 30
0.0
 10
109.5
 20
30.0
 30
0.0
  0
SPLINE
  5
27F
330
17
100
AcDbEntity
  8
GEOMETRY
100
AcDbSpline
 70
0
 71
3
 72
23
 73
19
 74
0
 40
0.0
 40
0.0
 40
0.0
 40
0.0
 40
1.0
 40
1.0
 40
1.0
 40
2.0
 40
2.0
 40
2.0
 40
3.0
 40
3.0
 40
3.0
 40
4.0
 40
4.0
 40
4.0
 40
5.0
 40
5.0
 40
5.0
 40
6.0
 40
6.0
 40
6.0
 40
6.0
 10
109.5
 20
30.0
 30
0.0
 10
109.93880898777513
 20
30.0
 30
0.0
 10
110.3699802691778
 20
30.115531996651328
 30
0.0
 10
110.75
 20
30.334936490538894
 30
0.0
 10
111.1300197308222
 20
30.55434098442646
 30
0.0
 10
111.44565901557353
 20
30.869980269177802
 30
0.0
 10
111.66506350946109
 20
31.25
 30
0.0
 10
111.88446800334866
 20
31.630019730822198
 30
0.0
 10
112.0
 20
32.06119101222487
 30
0.0
 10
112.0
 20
32.5
 30
0.0
 10
112.0
 20
32.93880898777513
 30
0.0
 10
111.88446800334866
 20
33.3699802691778
 30
0.0
 10
111.66506350946109
 20
33.75
 30
0.0
 10
111.44565901557353
 20
34.1300197308222
 30
0.0
 10
111.1300197308222
 20
34.44565901557354
 30
0.0
 10
110.75
 20
34.665063509461106
 30
0.0
 10
110.3699802691778
 20
34.88446800334867
 30
0.0
 10
109.93880898777513
 20
35.0
 30
0.0
 10
109.5
 20
35.0
 30
0.0
  0
SPLINE
  5
280
330
17
100
AcDbEntity
  8
GEOMETRY
100
AcDbSpline
 70
0
 71
3
 72
23
 73
19
 74
0
 40
0.0
 40
0.0
 40
0.0
 40
0.0
 40
1.0
 40
1.0
 40
1.0
 40
2.0
 40
2.0
 40
2.0
 40
3.0
 40
3.0
 40
3.0
 40
4.0
 40
4.0
 40
4.0
 40
5.0
 40
5.0
 40
5.0
 40
6.0
 40
6.0
 40
6.0
 40
6.0
 10
109.5
 20
35.0
 30
0.0
 10
109.93880898777513
 20
35.0
 30
0.0
 10
110.3699802691778
 20
35.11553199665133
 30
0.0
 10
110.75
 20
35.334936490538894
 30
0.0
 10
111.1300197308222
 20
35.55434098442646
 30
0.0
 10
111.44565901557353
 20
35.8699802691778
 30
0.0
 10
111.66506350946109
 20
36.25
 30
0.0
 10
111.88446800334866
 20
36.6300197308222
 30
0.0
 10
112.0
 20
37.06119101222487
 30
0.0
 10
112.0
 20
37.5
 30
0.0
 10
112.0
 20
37.93880898777513
 30
0.0
 10
111.88446800334866
 20
38.3699802691778
 30
0.0
 10
111.66506350946109
 20
38.75
 30
0.0
 10
111.44565901557353
 20
39.1300197308222
 30
0.0
 10
111.1300197308222
 20
39.44565901557354
 30
0.0
 10
110.75
 20
39.665063509461106
 30
0.0
 10
110.3699802691778
 20
39.88446800334867
 30
0.0
 10
109.93880898777513
 20
40.0
 30
0.0
 10
109.5
 20
40.0
 30
0.0
  0
SPLINE
  5
281
330
17
100
AcDbEntity
  8
GEOMETRY
100
AcDbSpline
 70
0
 71
3
 72
23
 73
19
 74
0
 40
0.0
 40
0.0
 40
0.0
 40
0.0
 40
1.0
 40
1.0
 40
1.0
 40
2.0
 40
2.0
 40
2.0
 40
3.0
 40
3.0
 40
3.0
 40
4.0
 40
4.0
 40
4.0
 40
5.0
 40
5.0
 40
5.0
 40
6.0
 40
6.0
 40
6.0
 40
6.0
 10
109.5
 20
40.0
 30
0.0
 10
109.93880898777513
 20
40.0
 30
0.0
 10
110.3699802691778
 20
40.11553199665133
 30
0.0
 10
110.75
 20
40.334936490538894
 30
0.0
 10
111.1300197308222
 20
40.55434098442646
 30
0.0
 10
111.44565901557353
 20
40.8699802691778
 30
0.0
 10
111.66506350946109
 20
41.25
 30
0.0
 10
111.88446800334866
 20
41.6300197308222
 30
0.0
 10
112.0
 20
42.06119101222487
 30
0.0
 10
112.0
 20
42.5
 30
0.0
 10
112.0
 20
42.93880898777513
 30
0.0
 10
111.88446800334866
 20
43.3699802691778
 30
0.0
 10
111.66506350946109
 20
43.75
 30
0.0
 10
111.44565901557353
 20
44.1300197308222
 30
0.0
 10
111.1300197308222
 20
44.44565901557354
 30
0.0
 10
110.75
 20
44.665063509461106
 30
0.0
 10
110.3699802691778
 20
44.88446800334867
 30
0.0
 10
109.93880898777513
 20
45.0
 30
0.0
 10
109.5
 20
45.0
 30
0.0
  0
POLYLINE
  5
282
330
17
100
AcDbEntity
  8
GEOMETRY
100
AcDb2dPolyline
 66
1
 10
0.0
 20
0.0
 30
0.0
 70
0
  0
VERTEX
  5
283
330
282
100
AcDbEntity
  8
GEOMETRY
100
AcDbVertex
100
AcDb2dVertex
 10
109.5
 20
45.0
 30
0.0
 70
0
  0
VERTEX
  5
284
330
282
100
AcDbEntity
  8
GEOMETRY
100
AcDbVertex
100
AcDb2dVertex
 10
98.0
 20
45.0
 30
0.0
 70
0
  0
VERTEX
  5
285
330
282
100
AcDbEntity
  8
GEOMETRY
100
AcDbVertex
100
AcDb2dVertex
 10
98.0
 20
25.0
 30
0.0
 70
0
  0
SEQEND
  5
286
330
282
100
AcDbEntity
  8
GEOMETRY
  0
LINE
  5
287
330
17
100
AcDbEntity
  8
GEOMETRY
100
AcDbLine
 10
98.0
 20
52.5
 30
0.0
 11
98.0
 21
17.5
 31
0.0
  0
LINE
  5
288
330
17
100
AcDbEntity
  8
DIMENSIONS
100
AcDbLine
 10
117.0
 20
46.5
 30
0.0
 11
117.0
 21
23.5
 31
0.0
  0
LINE
  5
289
330
17
100
AcDbEntity
  8
DIMENSIONS
100
AcDbLine
 10
113.0
 20
45.0
 30
0.0
 11
118.2
 21
45.0
 31
0.0
  0
LINE
  5
28A
330
17
100
AcDbEntity
  8
DIMENSIONS
100
AcDbLine
 10
116.0
 20
44.0
 30
0.0
 11
118.0
 21
46.0
 31
0.0
  0
LINE
  5
28B
330
17
100
AcDbEntity
  8
DIMENSIONS
100
AcDbLine
 10
113.0
 20
25.0
 30
0.0
 11
118.2
 21
25.0
 31
0.0
  0
LINE
  5
28C
330
17
100
AcDbEntity
  8
DIMENSIONS
100
AcDbLine
 10
116.0
 20
24.0
 30
0.0
 11
118.0
 21
26.0
 31
0.0
  0
TEXT
  5
28D
330
17
100
AcDbEntity
  8
TEXT
100
AcDbText
 10
116.19999999999999
 20
35.0
 30
0.0
 40
0.9359999999999999
  1
40
 50
90.0
 72
1
 11
116.19999999999999
 21
35.0
 31
0.0
100
AcDbText
  0
LINE
  5
28E
330
17
100
AcDbEntity
  8
DIMENSIONS
100
AcDbLine
 10
96.5
 20
49.0
 30
0.0
 11
113.5
 21
49.0
 31
0.0
  0
LINE
  5
28F
330
17
100
AcDbEntity
  8
DIMENSIONS
100
AcDbLine
 10
98.0
 20
46.0
 30
0.0
 11
98.0
 21
47.80000000000001
 31
0.0
  0
LINE
  5
290
330
17
100
AcDbEntity
  8
DIMENSIONS
100
AcDbLine
 10
97.0
 20
48.0
 30
0.0
 11
99.0
 21
50.0
 31
0.0
  0
LINE
  5
291
330
17
100
AcDbEntity
  8
DIMENSIONS
100
AcDbLine
 10
112.0
 20
46.0
 30
0.0
 11
112.0
 21
47.80000000000001
 31
0.0
  0
LINE
  5
292
330
17
100
AcDbEntity
  8
DIMENSIONS
100
AcDbLine
 10
111.0
 20
48.0
 30
0.0
 11
113.0
 21
50.0
 31
0.0
  0
TEXT
  5
293
330
17
100
AcDbEntity
  8
TEXT
100
AcDbText
 10
105.0
 20
49.80000000000001
 30
0.0
 40
0.9359999999999999
  1
28
 72
1
 11
105.0
 21
49.80000000000001
 31
0.0
100
AcDbText
  0
TEXT
  5
294
330
17
100
AcDbEntity
  8
TEXT
100
AcDbText
 10
88.0
 20
14.0
 30
0.0
 40
0.9359999999999999
  1
MATCHES THE COUNTER EDGE
 11
88.0
 21
14.0
 31
0.0
100
AcDbText
  0
TEXT
  5
295
330
17
100
AcDbEntity
  8
TEXT
100
AcDbText
 10
145.0
 20
59.0
 30
0.0
 40
2.304
  1
3 · SKIRTING
 11
145.0
 21
59.0
 31
0.0
100
AcDbText
  0
LINE
  5
296
330
17
100
AcDbEntity
  8
GEOMETRY
100
AcDbLine
 10
145.0
 20
57.5
 30
0.0
 11
185.0
 21
57.5
 31
0.0
  0
TEXT
  5
297
330
17
100
AcDbEntity
  8
TEXT
100
AcDbText
 10
145.0
 20
54.19999999999999
 30
0.0
 40
1.224
  1
MARBLE · SECTION · 1:4
 11
145.0
 21
54.19999999999999
 31
0.0
100
AcDbText
  0
HATCH
  5
298
330
17
100
AcDbEntity
  8
HATCH
 62
7
100
AcDbHatch
 10
0.0
 20
0.0
 30
0.0
210
0.0
220
0.0
230
1.0
  2
ANSI31
 70
0
 71
0
 91
1
 92
3
 72
0
 73
1
 93
5
 10
155.0
 20
47.0
 10
165.0
 20
47.0
 10
165.0
 20
17.75
 10
155.0
 20
17.75
 10
155.0
 20
47.0
 97
0
 75
1
 76
1
 52
0.0
 41
0.4
 77
0
 78
1
 53
45.0
 43
0.0
 44
0.0
 45
-0.8980256121
 46
0.8980256121
 79
0
 98
0
  0
HATCH
  5
299
330
17
100
AcDbEntity
  8
HATCH
 62
7
100
AcDbHatch
 10
0.0
 20
0.0
 30
0.0
210
0.0
220
0.0
230
1.0
  2
ANSI31
 70
0
 71
0
 91
1
 92
3
 72
0
 73
1
 93
6
 10
165.0
 20
17.75
 10
170.0
 20
17.75
 10
170.0
 20
40.75
 10
167.5
 20
43.25
 10
165.0
 20
43.25
 10
165.0
 20
17.75
 97
0
 75
1
 76
1
 52
0.0
 41
0.4
 77
0
 78
1
 53
45.0
 43
0.0
 44
0.0
 45
-0.8980256121
 46
0.8980256121
 79
0
 98
0
  0
LWPOLYLINE
  5
29A
330
17
100
AcDbEntity
  8
GEOMETRY
100
AcDbPolyline
 90
6
 70
0
 10
165.0
 20
17.75
 10
170.0
 20
17.75
 10
170.0
 20
40.75
 10
167.5
 20
43.25
 10
165.0
 20
43.25
 10
165.0
 20
17.75
  0
LINE
  5
29B
330
17
100
AcDbEntity
  8
GEOMETRY
100
AcDbLine
 10
165.0
 20
47.0
 30
0.0
 11
165.0
 21
17.75
 31
0.0
  0
LINE
  5
29C
330
17
100
AcDbEntity
  8
GEOMETRY
100
AcDbLine
 10
155.0
 20
17.75
 30
0.0
 11
180.0
 21
17.75
 31
0.0
  0
LINE
  5
29D
330
17
100
AcDbEntity
  8
DIMENSIONS
100
AcDbLine
 10
176.0
 20
44.75
 30
0.0
 11
176.0
 21
16.25
 31
0.0
  0
LINE
  5
29E
330
17
100
AcDbEntity
  8
DIMENSIONS
100
AcDbLine
 10
171.0
 20
43.25
 30
0.0
 11
177.2
 21
43.25
 31
0.0
  0
LINE
  5
29F
330
17
100
AcDbEntity
  8
DIMENSIONS
100
AcDbLine
 10
175.0
 20
42.25
 30
0.0
 11
177.0
 21
44.25
 31
0.0
  0
LINE
  5
2A0
330
17
100
AcDbEntity
  8
DIMENSIONS
100
AcDbLine
 10
171.0
 20
17.75
 30
0.0
 11
177.2
 21
17.75
 31
0.0
  0
LINE
  5
2A1
330
17
100
AcDbEntity
  8
DIMENSIONS
100
AcDbLine
 10
175.0
 20
16.75
 30
0.0
 11
177.0
 21
18.75
 31
0.0
  0
TEXT
  5
2A2
330
17
100
AcDbEntity
  8
TEXT
100
AcDbText
 10
175.2
 20
30.5
 30
0.0
 40
0.9359999999999999
  1
102
 50
90.0
 72
1
 11
175.2
 21
30.5
 31
0.0
100
AcDbText
  0
LINE
  5
2A3
330
17
100
AcDbEntity
  8
DIMENSIONS
100
AcDbLine
 10
163.5
 20
13.75
 30
0.0
 11
171.5
 21
13.75
 31
0.0
  0
LINE
  5
2A4
330
17
100
AcDbEntity
  8
DIMENSIONS
100
AcDbLine
 10
165.0
 20
16.75
 30
0.0
 11
165.0
 21
12.550000000000011
 31
0.0
  0
LINE
  5
2A5
330
17
100
AcDbEntity
  8
DIMENSIONS
100
AcDbLine
 10
164.0
 20
12.75
 30
0.0
 11
166.0
 21
14.75
 31
0.0
  0
LINE
  5
2A6
330
17
100
AcDbEntity
  8
DIMENSIONS
100
AcDbLine
 10
170.0
 20
16.75
 30
0.0
 11
170.0
 21
12.550000000000011
 31
0.0
  0
LINE
  5
2A7
330
17
100
AcDbEntity
  8
DIMENSIONS
100
AcDbLine
 10
169.0
 20
12.75
 30
0.0
 11
171.0
 21
14.75
 31
0.0
  0
TEXT
  5
2A8
330
17
100
AcDbEntity
  8
TEXT
100
AcDbText
 10
167.5
 20
14.550000000000011
 30
0.0
 40
0.9359999999999999
  1
20
 72
1
 11
167.5
 21
14.550000000000011
 31
0.0
100
AcDbText
  0
TEXT
  5
2A9
330
17
100
AcDbEntity
  8
TEXT
100
AcDbText
 10
145.0
 20
14.0
 30
0.0
 40
0.9359999999999999
  1
WHITE MARBLE, ALREADY LAID · SQUARE WITH A SMALL TOP CHAMFER
 11
145.0
 21
14.0
 31
0.0
100
AcDbText
  0
TEXT
  5
2AA
330
17
100
AcDbEntity
  8
TEXT
100
AcDbText
 10
222.0
 20
59.0
 30
0.0
 40
2.304
  1
4 · WALL LAMP
 11
222.0
 21
59.0
 31
0.0
100
AcDbText
  0
LINE
  5
2AB
330
17
100
AcDbEntity
  8
GEOMETRY
100
AcDbLine
 10
222.0
 20
57.5
 30
0.0
 11
262.0
 21
57.5
 31
0.0
  0
TEXT
  5
2AC
330
17
100
AcDbEntity
  8
TEXT
100
AcDbText
 10
222.0
 20
54.19999999999999
 30
0.0
 40
1.224
  1
ELEVATION · 1:10 · ×3
 11
222.0
 21
54.19999999999999
 31
0.0
100
AcDbText
  0
SPLINE
  5
2AD
330
17
100
AcDbEntity
  8
GEOMETRY
100
AcDbSpline
 70
0
 71
3
 72
41
 73
37
 74
0
 40
0.0
 40
0.0
 40
0.0
 40
0.0
 40
1.0
 40
1.0
 40
1.0
 40
2.0
 40
2.0
 40
2.0
 40
3.0
 40
3.0
 40
3.0
 40
4.0
 40
4.0
 40
4.0
 40
5.0
 40
5.0
 40
5.0
 40
6.0
 40
6.0
 40
6.0
 40
7.0
 40
7.0
 40
7.0
 40
8.0
 40
8.0
 40
8.0
 40
9.0
 40
9.0
 40
9.0
 40
10.0
 40
10.0
 40
10.0
 40
11.0
 40
11.0
 40
11.0
 40
12.0
 40
12.0
 40
12.0
 40
12.0
 10
265.8
 20
27.0
 30
0.0
 10
265.8
 20
25.94685842933967
 30
0.0
 10
265.6706041637505
 20
24.912047353973264
 30
0.0
 10
265.42487113059644
 20
24.0
 30
0.0
 10
265.1791380974424
 20
23.087952646026736
 30
0.0
 10
264.8256220985209
 20
22.330418362623504
 30
0.0
 10
264.40000000000003
 20
21.803847577293368
 30
0.0
 10
263.97437790147916
 20
21.27727679196323
 30
0.0
 10
263.49146606630813
 20
21.0
 30
0.0
 10
263.0
 20
21.0
 30
0.0
 10
262.50853393369187
 20
21.0
 30
0.0
 10
262.0256220985209
 20
21.27727679196323
 30
0.0
 10
261.6
 20
21.803847577293368
 30
0.0
 10
261.17437790147915
 20
22.330418362623504
 30
0.0
 10
260.8208619025576
 20
23.087952646026736
 30
0.0
 10
260.57512886940356
 20
24.0
 30
0.0
 10
260.3293958362495
 20
24.912047353973264
 30
0.0
 10
260.2
 20
25.94685842933967
 30
0.0
 10
260.2
 20
27.0
 30
0.0
 10
260.2
 20
28.05314157066033
 30
0.0
 10
260.3293958362495
 20
29.087952646026736
 30
0.0
 10
260.57512886940356
 20
30.0
 30
0.0
 10
260.8208619025576
 20
30.912047353973264
 30
0.0
 10
261.1743779014791
 20
31.669581637376496
 30
0.0
 10
261.59999999999997
 20
32.19615242270663
 30
0.0
 10
262.02562209852084
 20
32.72272320803677
 30
0.0
 10
262.50853393369187
 20
33.0
 30
0.0
 10
263.0
 20
33.0
 30
0.0
 10
263.49146606630813
 20
33.0
 30
0.0
 10
263.9743779014791
 20
32.72272320803677
 30
0.0
 10
264.4
 20
32.19615242270663
 30
0.0
 10
264.82562209852085
 20
31.669581637376496
 30
0.0
 10
265.1791380974424
 20
30.912047353973264
 30
0.0
 10
265.42487113059644
 20
30.0
 30
0.0
 10
265.6706041637505
 20
29.087952646026736
 30
0.0
 10
265.8
 20
28.05314157066033
 30
0.0
 10
265.8
 20
27.0
 30
0.0
  0
SPLINE
  5
2AE
330
17
100
AcDbEntity
  8
GEOMETRY
100
AcDbSpline
 70
0
 71
3
 72
41
 73
37
 74
0
 40
0.0
 40
0.0
 40
0.0
 40
0.0
 40
1.0
 40
1.0
 40
1.0
 40
2.0
 40
2.0
 40
2.0
 40
3.0
 40
3.0
 40
3.0
 40
4.0
 40
4.0
 40
4.0
 40
5.0
 40
5.0
 40
5.0
 40
6.0
 40
6.0
 40
6.0
 40
7.0
 40
7.0
 40
7.0
 40
8.0
 40
8.0
 40
8.0
 40
9.0
 40
9.0
 40
9.0
 40
10.0
 40
10.0
 40
10.0
 40
11.0
 40
11.0
 40
11.0
 40
12.0
 40
12.0
 40
12.0
 40
12.0
 10
264.8
 20
27.0
 30
0.0
 10
264.8
 20
26.227696181515796
 30
0.0
 10
264.7168169624111
 20
25.468834726247053
 30
0.0
 10
264.558845726812
 20
24.80000000000001
 30
0.0
 10
264.40087449121296
 20
24.13116527375297
 30
0.0
 10
264.17361420619204
 20
23.575640132590593
 30
0.0
 10
263.90000000000003
 20
23.189488223348462
 30
0.0
 10
263.626385793808
 20
22.803336314106332
 30
0.0
 10
263.31594247119807
 20
22.600000000000023
 30
0.0
 10
263.0
 20
22.600000000000023
 30
0.0
 10
262.68405752880193
 20
22.600000000000023
 30
0.0
 10
262.37361420619203
 20
22.803336314106332
 30
0.0
 10
262.1
 20
23.189488223348462
 30
0.0
 10
261.826385793808
 20
23.575640132590593
 30
0.0
 10
261.59912550878704
 20
24.13116527375297
 30
0.0
 10
261.441154273188
 20
24.80000000000001
 30
0.0
 10
261.2831830375889
 20
25.468834726247053
 30
0.0
 10
261.2
 20
26.227696181515796
 30
0.0
 10
261.2
 20
27.0
 30
0.0
 10
261.2
 20
27.772303818484204
 30
0.0
 10
261.2831830375889
 20
28.531165273752947
 30
0.0
 10
261.441154273188
 20
29.19999999999999
 30
0.0
 10
261.59912550878704
 20
29.86883472624703
 30
0.0
 10
261.82638579380796
 20
30.424359867409407
 30
0.0
 10
262.09999999999997
 20
30.810511776651538
 30
0.0
 10
262.373614206192
 20
31.196663685893668
 30
0.0
 10
262.68405752880193
 20
31.399999999999977
 30
0.0
 10
263.0
 20
31.399999999999977
 30
0.0
 10
263.31594247119807
 20
31.399999999999977
 30
0.0
 10
263.62638579380797
 20
31.196663685893668
 30
0.0
 10
263.9
 20
30.810511776651538
 30
0.0
 10
264.173614206192
 20
30.424359867409407
 30
0.0
 10
264.40087449121296
 20
29.86883472624703
 30
0.0
 10
264.558845726812
 20
29.19999999999999
 30
0.0
 10
264.7168169624111
 20
28.531165273752947
 30
0.0
 10
264.8
 20
27.772303818484204
 30
0.0
 10
264.8
 20
27.0
 30
0.0
  0
CIRCLE
  5
2AF
330
17
100
AcDbEntity
  8
GEOMETRY
100
AcDbCircle
 10
263.0
 20
27.0
 30
0.0
 40
0.9
  0
SPLINE
  5
2B0
330
17
100
AcDbEntity
  8
GEOMETRY
100
AcDbSpline
 70
0
 71
3
 72
8
 73
4
 74
0
 40
0.0
 40
0.0
 40
0.0
 40
0.0
 40
1.0
 40
1.0
 40
1.0
 40
1.0
 10
261.8
 20
26.0
 30
0.0
 10
256.0
 20
19.0
 30
0.0
 10
249.0
 20
22.0
 30
0.0
 10
248.0
 20
29.0
 30
0.0
  0
SPLINE
  5
2B1
330
17
100
AcDbEntity
  8
GEOMETRY
100
AcDbSpline
 70
0
 71
3
 72
8
 73
4
 74
0
 40
0.0
 40
0.0
 40
0.0
 40
0.0
 40
1.0
 40
1.0
 40
1.0
 40
1.0
 10
261.8
 20
25.0
 30
0.0
 10
257.0
 20
19.799999999999955
 30
0.0
 10
249.6
 20
22.600000000000023
 30
0.0
 10
248.4
 20
28.399999999999977
 30
0.0
  0
SPLINE
  5
2B2
330
17
100
AcDbEntity
  8
GEOMETRY
100
AcDbSpline
 70
0
 71
3
 72
8
 73
4
 74
0
 40
0.0
 40
0.0
 40
0.0
 40
0.0
 40
1.0
 40
1.0
 40
1.0
 40
1.0
 10
245.4
 20
29.0
 30
0.0
 10
247.13333333333333
 20
27.799999999999994
 30
0.0
 10
248.86666666666667
 20
27.799999999999994
 30
0.0
 10
250.6
 20
29.0
 30
0.0
  0
POLYLINE
  5
2B3
330
17
100
AcDbEntity
  8
GEOMETRY
100
AcDb2dPolyline
 66
1
 10
0.0
 20
0.0
 30
0.0
 70
0
  0
VERTEX
  5
2B4
330
2B3
100
AcDbEntity
  8
GEOMETRY
100
AcDbVertex
100
AcDb2dVertex
 10
250.6
 20
29.0
 30
0.0
 70
0
  0
VERTEX
  5
2B5
330
2B3
100
AcDbEntity
  8
GEOMETRY
100
AcDbVertex
100
AcDb2dVertex
 10
249.8
 20
30.600000000000023
 30
0.0
 70
0
  0
VERTEX
  5
2B6
330
2B3
100
AcDbEntity
  8
GEOMETRY
100
AcDbVertex
100
AcDb2dVertex
 10
246.2
 20
30.600000000000023
 30
0.0
 70
0
  0
VERTEX
  5
2B7
330
2B3
100
AcDbEntity
  8
GEOMETRY
100
AcDbVertex
100
AcDb2dVertex
 10
245.4
 20
29.0
 30
0.0
 70
0
  0
SEQEND
  5
2B8
330
2B3
100
AcDbEntity
  8
GEOMETRY
  0
LWPOLYLINE
  5
2B9
330
17
100
AcDbEntity
  8
GEOMETRY
100
AcDbPolyline
 90
5
 70
0
 10
247.2
 20
36.0
 10
248.79999999999998
 20
36.0
 10
248.79999999999998
 20
30.600000000000023
 10
247.2
 20
30.600000000000023
 10
247.2
 20
36.0
  0
LWPOLYLINE
  5
2BA
330
17
100
AcDbEntity
  8
GEOMETRY
100
AcDbPolyline
 90
5
 70
0
 10
242.0
 20
36.0
 10
254.0
 20
36.0
 10
251.6
 20
46.0
 10
244.4
 20
46.0
 10
242.0
 20
36.0
  0
LINE
  5
2BB
330
17
100
AcDbEntity
  8
GEOMETRY
100
AcDbLine
 10
244.0
 20
36.19999999999999
 30
0.0
 11
245.6
 21
45.80000000000001
 31
0.0
  0
LINE
  5
2BC
330
17
100
AcDbEntity
  8
GEOMETRY
100
AcDbLine
 10
246.0
 20
36.19999999999999
 30
0.0
 11
246.8
 21
45.80000000000001
 31
0.0
  0
LINE
  5
2BD
330
17
100
AcDbEntity
  8
GEOMETRY
100
AcDbLine
 10
248.0
 20
36.19999999999999
 30
0.0
 11
248.0
 21
45.80000000000001
 31
0.0
  0
LINE
  5
2BE
330
17
100
AcDbEntity
  8
GEOMETRY
100
AcDbLine
 10
250.0
 20
36.19999999999999
 30
0.0
 11
249.2
 21
45.80000000000001
 31
0.0
  0
LINE
  5
2BF
330
17
100
AcDbEntity
  8
GEOMETRY
100
AcDbLine
 10
252.0
 20
36.19999999999999
 30
0.0
 11
250.4
 21
45.80000000000001
 31
0.0
  0
SPLINE
  5
2C0
330
17
100
AcDbEntity
  8
GEOMETRY
100
AcDbSpline
 70
0
 71
3
 72
8
 73
4
 74
0
 40
0.0
 40
0.0
 40
0.0
 40
0.0
 40
1.0
 40
1.0
 40
1.0
 40
1.0
 10
264.2
 20
26.0
 30
0.0
 10
270.0
 20
19.0
 30
0.0
 10
277.0
 20
22.0
 30
0.0
 10
278.0
 20
29.0
 30
0.0
  0
SPLINE
  5
2C1
330
17
100
AcDbEntity
  8
GEOMETRY
100
AcDbSpline
 70
0
 71
3
 72
8
 73
4
 74
0
 40
0.0
 40
0.0
 40
0.0
 40
0.0
 40
1.0
 40
1.0
 40
1.0
 40
1.0
 10
264.2
 20
25.0
 30
0.0
 10
269.0
 20
19.799999999999955
 30
0.0
 10
276.4
 20
22.600000000000023
 30
0.0
 10
277.6
 20
28.399999999999977
 30
0.0
  0
SPLINE
  5
2C2
330
17
100
AcDbEntity
  8
GEOMETRY
100
AcDbSpline
 70
0
 71
3
 72
8
 73
4
 74
0
 40
0.0
 40
0.0
 40
0.0
 40
0.0
 40
1.0
 40
1.0
 40
1.0
 40
1.0
 10
275.4
 20
29.0
 30
0.0
 10
277.1333333333333
 20
27.799999999999994
 30
0.0
 10
278.8666666666667
 20
27.799999999999994
 30
0.0
 10
280.6
 20
29.0
 30
0.0
  0
POLYLINE
  5
2C3
330
17
100
AcDbEntity
  8
GEOMETRY
100
AcDb2dPolyline
 66
1
 10
0.0
 20
0.0
 30
0.0
 70
0
  0
VERTEX
  5
2C4
330
2C3
100
AcDbEntity
  8
GEOMETRY
100
AcDbVertex
100
AcDb2dVertex
 10
280.6
 20
29.0
 30
0.0
 70
0
  0
VERTEX
  5
2C5
330
2C3
100
AcDbEntity
  8
GEOMETRY
100
AcDbVertex
100
AcDb2dVertex
 10
279.8
 20
30.600000000000023
 30
0.0
 70
0
  0
VERTEX
  5
2C6
330
2C3
100
AcDbEntity
  8
GEOMETRY
100
AcDbVertex
100
AcDb2dVertex
 10
276.2
 20
30.600000000000023
 30
0.0
 70
0
  0
VERTEX
  5
2C7
330
2C3
100
AcDbEntity
  8
GEOMETRY
100
AcDbVertex
100
AcDb2dVertex
 10
275.4
 20
29.0
 30
0.0
 70
0
  0
SEQEND
  5
2C8
330
2C3
100
AcDbEntity
  8
GEOMETRY
  0
LWPOLYLINE
  5
2C9
330
17
100
AcDbEntity
  8
GEOMETRY
100
AcDbPolyline
 90
5
 70
0
 10
277.2
 20
36.0
 10
278.8
 20
36.0
 10
278.8
 20
30.600000000000023
 10
277.2
 20
30.600000000000023
 10
277.2
 20
36.0
  0
LWPOLYLINE
  5
2CA
330
17
100
AcDbEntity
  8
GEOMETRY
100
AcDbPolyline
 90
5
 70
0
 10
272.0
 20
36.0
 10
284.0
 20
36.0
 10
281.6
 20
46.0
 10
274.4
 20
46.0
 10
272.0
 20
36.0
  0
LINE
  5
2CB
330
17
100
AcDbEntity
  8
GEOMETRY
100
AcDbLine
 10
274.0
 20
36.19999999999999
 30
0.0
 11
275.6
 21
45.80000000000001
 31
0.0
  0
LINE
  5
2CC
330
17
100
AcDbEntity
  8
GEOMETRY
100
AcDbLine
 10
276.0
 20
36.19999999999999
 30
0.0
 11
276.8
 21
45.80000000000001
 31
0.0
  0
LINE
  5
2CD
330
17
100
AcDbEntity
  8
GEOMETRY
100
AcDbLine
 10
278.0
 20
36.19999999999999
 30
0.0
 11
278.0
 21
45.80000000000001
 31
0.0
  0
LINE
  5
2CE
330
17
100
AcDbEntity
  8
GEOMETRY
100
AcDbLine
 10
280.0
 20
36.19999999999999
 30
0.0
 11
279.2
 21
45.80000000000001
 31
0.0
  0
LINE
  5
2CF
330
17
100
AcDbEntity
  8
GEOMETRY
100
AcDbLine
 10
282.0
 20
36.19999999999999
 30
0.0
 11
280.4
 21
45.80000000000001
 31
0.0
  0
LINE
  5
2D0
330
17
100
AcDbEntity
  8
DIMENSIONS
100
AcDbLine
 10
240.5
 20
15.0
 30
0.0
 11
285.5
 21
15.0
 31
0.0
  0
LINE
  5
2D1
330
17
100
AcDbEntity
  8
DIMENSIONS
100
AcDbLine
 10
242.0
 20
21.0
 30
0.0
 11
242.0
 21
13.800000000000011
 31
0.0
  0
LINE
  5
2D2
330
17
100
AcDbEntity
  8
DIMENSIONS
100
AcDbLine
 10
241.0
 20
14.0
 30
0.0
 11
243.0
 21
16.0
 31
0.0
  0
LINE
  5
2D3
330
17
100
AcDbEntity
  8
DIMENSIONS
100
AcDbLine
 10
284.0
 20
21.0
 30
0.0
 11
284.0
 21
13.800000000000011
 31
0.0
  0
LINE
  5
2D4
330
17
100
AcDbEntity
  8
DIMENSIONS
100
AcDbLine
 10
283.0
 20
14.0
 30
0.0
 11
285.0
 21
16.0
 31
0.0
  0
TEXT
  5
2D5
330
17
100
AcDbEntity
  8
TEXT
100
AcDbText
 10
263.0
 20
15.800000000000011
 30
0.0
 40
0.9359999999999999
  1
420
 72
1
 11
263.0
 21
15.800000000000011
 31
0.0
100
AcDbText
  0
TEXT
  5
2D6
330
17
100
AcDbEntity
  8
TEXT
100
AcDbText
 10
263.0
 20
14.0
 30
0.0
 40
0.9359999999999999
  1
BRASS, FABRIC SHADES · CENTRED IN PANEL
 72
1
 11
263.0
 21
14.0
 31
0.0
100
AcDbText
  0
LWPOLYLINE
  5
2D7
330
17
100
AcDbEntity
  8
GEOMETRY
100
AcDbPolyline
 90
5
 70
0
 10
300.0
 20
58.0
 10
412.0
 20
58.0
 10
412.0
 20
8.0
 10
300.0
 20
8.0
 10
300.0
 20
58.0
  0
LINE
  5
2D8
330
17
100
AcDbEntity
  8
GEOMETRY
100
AcDbLine
 10
300.0
 20
44.0
 30
0.0
 11
412.0
 21
44.0
 31
0.0
  0
LINE
  5
2D9
330
17
100
AcDbEntity
  8
GEOMETRY
100
AcDbLine
 10
300.0
 20
28.0
 30
0.0
 11
412.0
 21
28.0
 31
0.0
  0
LINE
  5
2DA
330
17
100
AcDbEntity
  8
GEOMETRY
100
AcDbLine
 10
300.0
 20
18.0
 30
0.0
 11
412.0
 21
18.0
 31
0.0
  0
LINE
  5
2DB
330
17
100
AcDbEntity
  8
GEOMETRY
100
AcDbLine
 10
356.0
 20
28.0
 30
0.0
 11
356.0
 21
8.0
 31
0.0
  0
TEXT
  5
2DC
330
17
100
AcDbEntity
  8
TEXT
100
AcDbText
 10
303.0
 20
51.5
 30
0.0
 40
2.448
  1
A STUDY IN TEAK
 11
303.0
 21
51.5
 31
0.0
100
AcDbText
  0
TEXT
  5
2DD
330
17
100
AcDbEntity
  8
TEXT
100
AcDbText
 10
303.0
 20
47.0
 30
0.0
 40
1.3679999999999999
  1
Particulars of the room
 11
303.0
 21
47.0
 31
0.0
100
AcDbText
  0
TEXT
  5
2DE
330
17
100
AcDbEntity
  8
TEXT
100
AcDbText
 10
303.0
 20
37.5
 30
0.0
 40
2.448
  1
RIGHT WALL — PANEL MOULDING
 11
303.0
 21
37.5
 31
0.0
100
AcDbText
  0
TEXT
  5
2DF
330
17
100
AcDbEntity
  8
TEXT
100
AcDbText
 10
303.0
 20
32.0
 30
0.0
 40
1.44
  1
Elevation · Plan · Section · Details
 11
303.0
 21
32.0
 31
0.0
100
AcDbText
  0
TEXT
  5
2E0
330
17
100
AcDbEntity
  8
TEXT
100
AcDbText
 10
303.0
 20
24.0
 30
0.0
 40
1.08
  1
SCALE
 11
303.0
 21
24.0
 31
0.0
100
AcDbText
  0
TEXT
  5
2E1
330
17
100
AcDbEntity
  8
TEXT
100
AcDbText
 10
303.0
 20
20.0
 30
0.0
 40
1.512
  1
AS NOTED @ A3
 11
303.0
 21
20.0
 31
0.0
100
AcDbText
  0
TEXT
  5
2E2
330
17
100
AcDbEntity
  8
TEXT
100
AcDbText
 10
359.0
 20
24.0
 30
0.0
 40
1.08
  1
DATE
 11
359.0
 21
24.0
 31
0.0
100
AcDbText
  0
TEXT
  5
2E3
330
17
100
AcDbEntity
  8
TEXT
100
AcDbText
 10
359.0
 20
20.0
 30
0.0
 40
1.512
  1
18.09.2026
 11
359.0
 21
20.0
 31
0.0
100
AcDbText
  0
TEXT
  5
2E4
330
17
100
AcDbEntity
  8
TEXT
100
AcDbText
 10
303.0
 20
14.0
 30
0.0
 40
1.08
  1
REV
 11
303.0
 21
14.0
 31
0.0
100
AcDbText
  0
TEXT
  5
2E5
330
17
100
AcDbEntity
  8
TEXT
100
AcDbText
 10
303.0
 20
10.0
 30
0.0
 40
1.296
  1
9 — measured setting out; chain closed to 18 ft 11 in; ceiling 9 ft 1
 11
303.0
 21
10.0
 31
0.0
100
AcDbText
  0
TEXT
  5
2E6
330
17
100
AcDbEntity
  8
TEXT
100
AcDbText
 10
359.0
 20
14.0
 30
0.0
 40
1.08
  1
DWG
 11
359.0
 21
14.0
 31
0.0
100
AcDbText
  0
TEXT
  5
2E7
330
17
100
AcDbEntity
  8
TEXT
100
AcDbText
 10
359.0
 20
10.0
 30
0.0
 40
1.512
  1
AST-DR-007
 11
359.0
 21
10.0
 31
0.0
100
AcDbText
  0
ENDSEC
  0
SECTION
  2
OBJECTS
  0
DICTIONARY
  5
A
330
0
100
AcDbDictionary
281
1
  3
ACAD_COLOR
350
B
  3
ACAD_GROUP
350
C
  3
ACAD_LAYOUT
350
D
  3
ACAD_MATERIAL
350
E
  3
ACAD_MLEADERSTYLE
350
F
  3
ACAD_MLINESTYLE
350
10
  3
ACAD_PLOTSETTINGS
350
11
  3
ACAD_PLOTSTYLENAME
350
12
  3
ACAD_SCALELIST
350
14
  3
ACAD_TABLESTYLE
350
15
  3
ACAD_VISUALSTYLE
350
16
  3
EZDXF_META
350
2D
  0
DICTIONARY
  5
B
330
A
100
AcDbDictionary
281
1
  0
DICTIONARY
  5
C
330
A
100
AcDbDictionary
281
1
  0
DICTIONARY
  5
D
330
A
100
AcDbDictionary
281
1
  3
Model
350
1A
  3
Layout1
350
1E
  0
DICTIONARY
  5
E
330
A
100
AcDbDictionary
281
1
  3
ByBlock
350
1F
  3
ByLayer
350
20
  3
Global
350
21
  0
DICTIONARY
  5
F
330
A
100
AcDbDictionary
281
1
  3
Standard
350
2C
  0
DICTIONARY
  5
10
330
A
100
AcDbDictionary
281
1
  3
Standard
350
22
  0
DICTIONARY
  5
11
330
A
100
AcDbDictionary
281
1
  0
ACDBDICTIONARYWDFLT
  5
12
330
A
100
AcDbDictionary
281
1
  3
Normal
350
13
100
AcDbDictionaryWithDefault
340
13
  0
ACDBPLACEHOLDER
  5
13
330
12
  0
DICTIONARY
  5
14
330
A
100
AcDbDictionary
281
1
  0
DICTIONARY
  5
15
330
A
100
AcDbDictionary
281
1
  0
DICTIONARY
  5
16
330
A
100
AcDbDictionary
281
1
  3
2dWireframe
350
5A
  3
Basic
350
5B
  3
Brighten
350
5C
  3
ColorChange
350
5D
  3
Conceptual
350
5E
  3
Dim
350
5F
  3
EdgeColorOff
350
60
  3
Facepattern
350
61
  3
Flat
350
62
  3
FlatWithEdges
350
63
  3
Gouraud
350
64
  3
GouraudWithEdges
350
65
  3
Hidden
350
66
  3
JitterOff
350
67
  3
Linepattern
350
68
  3
Modeling
350
69
  3
OverhangOff
350
6A
  3
Realistic
350
6B
  3
Shaded
350
6C
  3
Shaded with edges
350
6D
  3
Shades of Gray
350
6E
  3
Sketchy
350
6F
  3
Thicken
350
70
  3
Wireframe
350
71
  3
X-Ray
350
72
  0
LAYOUT
  5
1A
330
D
100
AcDbPlotSettings
  1

  4
A3
  6

 40
7.5
 41
20.0
 42
7.5
 43
20.0
 44
420.0
 45
297.0
 46
0.0
 47
0.0
 48
0.0
 49
0.0
140
0.0
141
0.0
142
1.0
143
1.0
 70
1024
 72
1
 73
0
 74
5
  7

 75
16
 76
0
 77
2
 78
300
147
1.0
148
0.0
149
0.0
100
AcDbLayout
  1
Model
 70
1
 71
0
 10
0.0
 20
0.0
 11
420.0
 21
297.0
 12
0.0
 22
0.0
 32
0.0
 14
1e+20
 24
1e+20
 34
1e+20
 15
-1e+20
 25
-1e+20
 35
-1e+20
146
0.0
 13
0.0
 23
0.0
 33
0.0
 16
1.0
 26
0.0
 36
0.0
 17
0.0
 27
1.0
 37
0.0
 76
1
330
17
  0
LAYOUT
  5
1E
330
D
100
AcDbPlotSettings
  1

  4
A3
  6

 40
7.5
 41
20.0
 42
7.5
 43
20.0
 44
420.0
 45
297.0
 46
0.0
 47
0.0
 48
0.0
 49
0.0
140
0.0
141
0.0
142
1.0
143
1.0
 70
0
 72
1
 73
0
 74
5
  7

 75
16
 76
0
 77
2
 78
300
147
1.0
148
0.0
149
0.0
100
AcDbLayout
  1
Layout1
 70
1
 71
1
 10
0.0
 20
0.0
 11
420.0
 21
297.0
 12
0.0
 22
0.0
 32
0.0
 14
1e+20
 24
1e+20
 34
1e+20
 15
-1e+20
 25
-1e+20
 35
-1e+20
146
0.0
 13
0.0
 23
0.0
 33
0.0
 16
1.0
 26
0.0
 36
0.0
 17
0.0
 27
1.0
 37
0.0
 76
1
330
1B
  0
MATERIAL
  5
1F
102
{ACAD_REACTORS
330
E
102
}
330
E
100
AcDbMaterial
  1
ByBlock
  2

 70
0
 40
1.0
 71
1
 41
1.0
 91
-1023410177
 42
1.0
 72
1
  3

 73
1
 74
1
 75
1
 44
0.5
 73
0
 45
1.0
 46
1.0
 77
1
  4

 78
1
 79
1
170
1
 48
1.0
171
1
  6

172
1
173
1
174
1
140
1.0
141
1.0
175
1
  7

176
1
177
1
178
1
143
1.0
179
1
  8

270
1
271
1
272
1
145
1.0
146
1.0
273
1
  9

274
1
275
1
276
1
 42
1.0
 72
1
  3

 73
1
 74
1
 75
1
 94
63
  0
MATERIAL
  5
20
102
{ACAD_REACTORS
330
E
102
}
330
E
100
AcDbMaterial
  1
ByLayer
  2

 70
0
 40
1.0
 71
1
 41
1.0
 91
-1023410177
 42
1.0
 72
1
  3

 73
1
 74
1
 75
1
 44
0.5
 73
0
 45
1.0
 46
1.0
 77
1
  4

 78
1
 79
1
170
1
 48
1.0
171
1
  6

172
1
173
1
174
1
140
1.0
141
1.0
175
1
  7

176
1
177
1
178
1
143
1.0
179
1
  8

270
1
271
1
272
1
145
1.0
146
1.0
273
1
  9

274
1
275
1
276
1
 42
1.0
 72
1
  3

 73
1
 74
1
 75
1
 94
63
  0
MATERIAL
  5
21
102
{ACAD_REACTORS
330
E
102
}
330
E
100
AcDbMaterial
  1
Global
  2

 70
0
 40
1.0
 71
1
 41
1.0
 91
-1023410177
 42
1.0
 72
1
  3

 73
1
 74
1
 75
1
 44
0.5
 73
0
 45
1.0
 46
1.0
 77
1
  4

 78
1
 79
1
170
1
 48
1.0
171
1
  6

172
1
173
1
174
1
140
1.0
141
1.0
175
1
  7

176
1
177
1
178
1
143
1.0
179
1
  8

270
1
271
1
272
1
145
1.0
146
1.0
273
1
  9

274
1
275
1
276
1
 42
1.0
 72
1
  3

 73
1
 74
1
 75
1
 94
63
  0
MLINESTYLE
  5
22
102
{ACAD_REACTORS
330
10
102
}
330
10
100
AcDbMlineStyle
  2
Standard
 70
0
  3

 62
256
 51
90.0
 52
90.0
 71
2
 49
0.5
 62
256
  6
BYLAYER
 49
-0.5
 62
256
  6
BYLAYER
  0
MLEADERSTYLE
  5
2C
102
{ACAD_REACTORS
330
F
102
}
330
F
100
AcDbMLeaderStyle
179
2
170
2
171
1
172
0
 90
2
 40
0.0
 41
0.0
173
1
 91
-1056964608
 92
-2
290
1
 42
2.0
291
1
 43
8.0
  3
Standard
 44
4.0
300

342
29
174
1
175
1
176
0
178
1
 93
-1056964608
 45
4.0
292
0
297
0
 46
4.0
 94
-1056964608
 47
1.0
 49
1.0
140
1.0
294
1
141
0.0
177
0
142
1.0
295
0
296
0
143
3.75
271
0
272
9
273
9
  0
DICTIONARY
  5
2D
330
A
100
AcDbDictionary
280
1
281
1
  3
CREATED_BY_EZDXF
350
2E
  3
WRITTEN_BY_EZDXF
350
2EA
  0
DICTIONARYVAR
  5
2E
330
2D
100
DictionaryVariables
280
0
  1
1.4.2 @ 2026-09-18T09:19:43.428949+00:00
  0
VISUALSTYLE
  5
5A
102
{ACAD_REACTORS
330
16
102
}
330
16
100
AcDbVisualStyle
  2
2dWireframe
 70
4
 90
0
 40
0.6
 62
7
290
0
291
0
  0
VISUALSTYLE
  5
5B
102
{ACAD_REACTORS
330
16
102
}
330
16
100
AcDbVisualStyle
  2
Basic
 70
7
 90
1
 40
0.6
 62
7
290
0
291
1
  0
VISUALSTYLE
  5
5C
102
{ACAD_REACTORS
330
16
102
}
330
16
100
AcDbVisualStyle
  2
Brighten
 70
12
 90
2
 40
0.6
 62
7
290
0
291
1
  0
VISUALSTYLE
  5
5D
102
{ACAD_REACTORS
330
16
102
}
330
16
100
AcDbVisualStyle
  2
ColorChange
 70
16
 90
2
 40
0.6
 62
8
290
0
291
1
  0
VISUALSTYLE
  5
5E
102
{ACAD_REACTORS
330
16
102
}
330
16
100
AcDbVisualStyle
  2
Conceptual
 70
9
 90
3
 40
0.6
 62
7
290
0
291
0
  0
VISUALSTYLE
  5
5F
102
{ACAD_REACTORS
330
16
102
}
330
16
100
AcDbVisualStyle
  2
Dim
 70
11
 90
2
 40
0.6
 62
7
290
0
291
1
  0
VISUALSTYLE
  5
60
102
{ACAD_REACTORS
330
16
102
}
330
16
100
AcDbVisualStyle
  2
EdgeColorOff
 70
22
 90
2
 40
0.6
 62
7
290
0
291
1
  0
VISUALSTYLE
  5
61
102
{ACAD_REACTORS
330
16
102
}
330
16
100
AcDbVisualStyle
  2
Facepattern
 70
15
 90
2
 40
0.6
 62
7
290
0
291
1
  0
VISUALSTYLE
  5
62
102
{ACAD_REACTORS
330
16
102
}
330
16
100
AcDbVisualStyle
  2
Flat
 70
0
 90
2
 40
0.6
 62
7
290
0
291
1
  0
VISUALSTYLE
  5
63
102
{ACAD_REACTORS
330
16
102
}
330
16
100
AcDbVisualStyle
  2
FlatWithEdges
 70
1
 90
2
 40
0.6
 62
7
290
0
291
1
  0
VISUALSTYLE
  5
64
102
{ACAD_REACTORS
330
16
102
}
330
16
100
AcDbVisualStyle
  2
Gouraud
 70
2
 90
2
 40
0.6
 62
7
290
0
291
1
  0
VISUALSTYLE
  5
65
102
{ACAD_REACTORS
330
16
102
}
330
16
100
AcDbVisualStyle
  2
GouraudWithEdges
 70
3
 90
2
 40
0.6
 62
7
290
0
291
1
  0
VISUALSTYLE
  5
66
102
{ACAD_REACTORS
330
16
102
}
330
16
100
AcDbVisualStyle
  2
Hidden
 70
6
 90
1
 40
0.6
 62
7
290
0
291
0
  0
VISUALSTYLE
  5
67
102
{ACAD_REACTORS
330
16
102
}
330
16
100
AcDbVisualStyle
  2
JitterOff
 70
20
 90
2
 40
0.6
 62
7
290
0
291
1
  0
VISUALSTYLE
  5
68
102
{ACAD_REACTORS
330
16
102
}
330
16
100
AcDbVisualStyle
  2
Linepattern
 70
14
 90
2
 40
0.6
 62
7
290
0
291
1
  0
VISUALSTYLE
  5
69
102
{ACAD_REACTORS
330
16
102
}
330
16
100
AcDbVisualStyle
  2
Modeling
 70
10
 90
2
 40
0.6
 62
7
290
0
291
0
  0
VISUALSTYLE
  5
6A
102
{ACAD_REACTORS
330
16
102
}
330
16
100
AcDbVisualStyle
  2
OverhangOff
 70
21
 90
2
 40
0.6
 62
7
290
0
291
1
  0
VISUALSTYLE
  5
6B
102
{ACAD_REACTORS
330
16
102
}
330
16
100
AcDbVisualStyle
  2
Realistic
 70
8
 90
2
 40
0.6
 62
7
290
0
291
0
  0
VISUALSTYLE
  5
6C
102
{ACAD_REACTORS
330
16
102
}
330
16
100
AcDbVisualStyle
  2
Shaded
 70
27
 90
2
 40
0.6
 62
7
290
0
291
0
  0
VISUALSTYLE
  5
6D
102
{ACAD_REACTORS
330
16
102
}
330
16
100
AcDbVisualStyle
  2
Shaded with edges
 70
26
 90
2
 40
0.6
 62
7
290
0
291
0
  0
VISUALSTYLE
  5
6E
102
{ACAD_REACTORS
330
16
102
}
330
16
100
AcDbVisualStyle
  2
Shades of Gray
 70
23
 90
2
 40
0.6
 62
7
290
0
291
0
  0
VISUALSTYLE
  5
6F
102
{ACAD_REACTORS
330
16
102
}
330
16
100
AcDbVisualStyle
  2
Sketchy
 70
24
 90
1
 40
0.6
 62
7
290
0
291
0
  0
VISUALSTYLE
  5
70
102
{ACAD_REACTORS
330
16
102
}
330
16
100
AcDbVisualStyle
  2
Thicken
 70
13
 90
2
 40
0.6
 62
7
290
0
291
1
  0
VISUALSTYLE
  5
71
102
{ACAD_REACTORS
330
16
102
}
330
16
100
AcDbVisualStyle
  2
Wireframe
 70
5
 90
0
 40
0.6
 62
7
290
0
291
0
  0
VISUALSTYLE
  5
72
102
{ACAD_REACTORS
330
16
102
}
330
16
100
AcDbVisualStyle
  2
X-Ray
 70
25
 90
2
 40
0.5
 62
7
290
0
291
0
  0
DICTIONARYVAR
  5
2EA
330
2D
100
DictionaryVariables
280
0
  1
1.4.2 @ 2026-09-18T09:19:43.470528+00:00
  0
ENDSEC
  0
EOF
