  0
SECTION
  2
HEADER
  9
$ACADVER
  1
AC1024
  9
$ACADMAINTVER
 70
6
  9
$DWGCODEPAGE
  3
ANSI_1252
  9
$LASTSAVEDBY
  1
ezdxf
  9
$INSBASE
 10
0.0
 20
0.0
 30
0.0
  9
$EXTMIN
 10
1e+20
 20
1e+20
 30
1e+20
  9
$EXTMAX
 10
-1e+20
 20
-1e+20
 30
-1e+20
  9
$LIMMIN
 10
0.0
 20
0.0
  9
$LIMMAX
 10
420.0
 20
297.0
  9
$ORTHOMODE
 70
0
  9
$REGENMODE
 70
1
  9
$FILLMODE
 70
1
  9
$QTEXTMODE
 70
0
  9
$MIRRTEXT
 70
1
  9
$LTSCALE
 40
1.0
  9
$ATTMODE
 70
1
  9
$TEXTSIZE
 40
2.5
  9
$TRACEWID
 40
1.0
  9
$TEXTSTYLE
  7
OpenSans
  9
$CLAYER
  8
0
  9
$CELTYPE
  6
ByLayer
  9
$CECOLOR
 62
256
  9
$CELTSCALE
 40
1.0
  9
$DISPSILH
 70
0
  9
$DIMSCALE
 40
1.0
  9
$DIMASZ
 40
0.175
  9
$DIMEXO
 40
0.125
  9
$DIMDLI
 40
3.75
  9
$DIMRND
 40
0.0
  9
$DIMDLE
 40
0.0
  9
$DIMEXE
 40
0.375
  9
$DIMTP
 40
0.0
  9
$DIMTM
 40
0.0
  9
$DIMTXT
 40
0.25
  9
$DIMCEN
 40
2.5
  9
$DIMTSZ
 40
0.0
  9
$DIMTOL
 70
0
  9
$DIMLIM
 70
0
  9
$DIMTIH
 70
0
  9
$DIMTOH
 70
0
  9
$DIMSE1
 70
0
  9
$DIMSE2
 70
0
  9
$DIMTAD
 70
1
  9
$DIMZIN
 70
12
  9
$DIMBLK
  1
ARCHTICK
  9
$DIMASO
 70
1
  9
$DIMSHO
 70
1
  9
$DIMPOST
  1

  9
$DIMAPOST
  1

  9
$DIMALT
 70
0
  9
$DIMALTD
 70
3
  9
$DIMALTF
 40
0.03937007874
  9
$DIMLFAC
 40
100.0
  9
$DIMTOFL
 70
1
  9
$DIMTVP
 40
0.0
  9
$DIMTIX
 70
0
  9
$DIMSOXD
 70
0
  9
$DIMSAH
 70
0
  9
$DIMBLK1
  1

  9
$DIMBLK2
  1

  9
$DIMSTYLE
  2
EZDXF
  9
$DIMCLRD
 70
0
  9
$DIMCLRE
 70
0
  9
$DIMCLRT
 70
0
  9
$DIMTFAC
 40
0.5
  9
$DIMGAP
 40
0.1
  9
$DIMJUST
 70
0
  9
$DIMSD1
 70
0
  9
$DIMSD2
 70
0
  9
$DIMTOLJ
 70
0
  9
$DIMTZIN
 70
8
  9
$DIMALTZ
 70
0
  9
$DIMALTTZ
 70
0
  9
$DIMUPT
 70
1
  9
$DIMDEC
 70
2
  9
$DIMTDEC
 70
2
  9
$DIMALTU
 70
2
  9
$DIMALTTD
 70
3
  9
$DIMTXSTY
  7
OpenSansCondensed-Light
  9
$DIMAUNIT
 70
0
  9
$DIMADEC
 70
2
  9
$DIMALTRND
 40
0.0
  9
$DIMAZIN
 70
3
  9
$DIMDSEP
 70
46
  9
$DIMATFIT
 70
3
  9
$DIMFRAC
 70
0
  9
$DIMLDRBLK
  1

  9
$DIMLUNIT
 70
2
  9
$DIMLWD
 70
-2
  9
$DIMLWE
 70
-2
  9
$DIMTMOVE
 70
2
  9
$DIMFXL
 40
1.0
  9
$DIMFXLON
 70
0
  9
$DIMJOGANG
 40
0.785398163397
  9
$DIMTFILL
 70
0
  9
$DIMTFILLCLR
 70
0
  9
$DIMARCSYM
 70
0
  9
$DIMLTYPE
  6

  9
$DIMLTEX1
  6

  9
$DIMLTEX2
  6

  9
$DIMTXTDIRECTION
 70
0
  9
$LUNITS
 70
4
  9
$LUPREC
 70
4
  9
$SKETCHINC
 40
1.0
  9
$FILLETRAD
 40
10.0
  9
$AUNITS
 70
0
  9
$AUPREC
 70
3
  9
$MENU
  1
.
  9
$ELEVATION
 40
0.0
  9
$PELEVATION
 40
0.0
  9
$THICKNESS
 40
0.0
  9
$LIMCHECK
 70
0
  9
$CHAMFERA
 40
0.0
  9
$CHAMFERB
 40
0.0
  9
$CHAMFERC
 40
0.0
  9
$CHAMFERD
 40
0.0
  9
$SKPOLY
 70
0
  9
$TDCREATE
 40
2461302.980613426
  9
$TDUCREATE
 40
2458532.153996898
  9
$TDUPDATE
 40
2461302.980613426
  9
$TDUUPDATE
 40
2458532.1544311
  9
$TDINDWG
 40
0.0
  9
$TDUSRTIMER
 40
0.0
  9
$USRTIMER
 70
1
  9
$ANGBASE
 50
0.0
  9
$ANGDIR
 70
0
  9
$PDMODE
 70
0
  9
$PDSIZE
 40
0.0
  9
$PLINEWID
 40
0.0
  9
$SPLFRAME
 70
0
  9
$SPLINETYPE
 70
6
  9
$SPLINESEGS
 70
8
  9
$HANDSEED
  5
1F2
  9
$SURFTAB1
 70
6
  9
$SURFTAB2
 70
6
  9
$SURFTYPE
 70
6
  9
$SURFU
 70
6
  9
$SURFV
 70
6
  9
$UCSBASE
  2

  9
$UCSNAME
  2

  9
$UCSORG
 10
0.0
 20
0.0
 30
0.0
  9
$UCSXDIR
 10
1.0
 20
0.0
 30
0.0
  9
$UCSYDIR
 10
0.0
 20
1.0
 30
0.0
  9
$UCSORTHOREF
  2

  9
$UCSORTHOVIEW
 70
0
  9
$UCSORGTOP
 10
0.0
 20
0.0
 30
0.0
  9
$UCSORGBOTTOM
 10
0.0
 20
0.0
 30
0.0
  9
$UCSORGLEFT
 10
0.0
 20
0.0
 30
0.0
  9
$UCSORGRIGHT
 10
0.0
 20
0.0
 30
0.0
  9
$UCSORGFRONT
 10
0.0
 20
0.0
 30
0.0
  9
$UCSORGBACK
 10
0.0
 20
0.0
 30
0.0
  9
$PUCSBASE
  2

  9
$PUCSNAME
  2

  9
$PUCSORG
 10
0.0
 20
0.0
 30
0.0
  9
$PUCSXDIR
 10
1.0
 20
0.0
 30
0.0
  9
$PUCSYDIR
 10
0.0
 20
1.0
 30
0.0
  9
$PUCSORTHOREF
  2

  9
$PUCSORTHOVIEW
 70
0
  9
$PUCSORGTOP
 10
0.0
 20
0.0
 30
0.0
  9
$PUCSORGBOTTOM
 10
0.0
 20
0.0
 30
0.0
  9
$PUCSORGLEFT
 10
0.0
 20
0.0
 30
0.0
  9
$PUCSORGRIGHT
 10
0.0
 20
0.0
 30
0.0
  9
$PUCSORGFRONT
 10
0.0
 20
0.0
 30
0.0
  9
$PUCSORGBACK
 10
0.0
 20
0.0
 30
0.0
  9
$USERI1
 70
0
  9
$USERI2
 70
0
  9
$USERI3
 70
0
  9
$USERI4
 70
0
  9
$USERI5
 70
0
  9
$USERR1
 40
0.0
  9
$USERR2
 40
0.0
  9
$USERR3
 40
0.0
  9
$USERR4
 40
0.0
  9
$USERR5
 40
0.0
  9
$WORLDVIEW
 70
1
  9
$SHADEDGE
 70
3
  9
$SHADEDIF
 70
70
  9
$TILEMODE
 70
1
  9
$MAXACTVP
 70
64
  9
$PINSBASE
 10
0.0
 20
0.0
 30
0.0
  9
$PLIMCHECK
 70
0
  9
$PEXTMIN
 10
1e+20
 20
1e+20
 30
1e+20
  9
$PEXTMAX
 10
-1e+20
 20
-1e+20
 30
-1e+20
  9
$PLIMMIN
 10
0.0
 20
0.0
  9
$PLIMMAX
 10
420.0
 20
297.0
  9
$UNITMODE
 70
0
  9
$VISRETAIN
 70
1
  9
$PLINEGEN
 70
0
  9
$PSLTSCALE
 70
1
  9
$TREEDEPTH
 70
3020
  9
$CMLSTYLE
  2
Standard
  9
$CMLJUST
 70
0
  9
$CMLSCALE
 40
20.0
  9
$PROXYGRAPHICS
 70
1
  9
$MEASUREMENT
 70
0
  9
$CELWEIGHT
370
-1
  9
$ENDCAPS
280
0
  9
$JOINSTYLE
280
0
  9
$LWDISPLAY
290
0
  9
$INSUNITS
 70
1
  9
$HYPERLINKBASE
  1

  9
$STYLESHEET
  1

  9
$XEDIT
290
1
  9
$CEPSNTYPE
380
0
  9
$PSTYLEMODE
290
1
  9
$FINGERPRINTGUID
  2
{85DAB648-22BC-470D-B2D6-4EA17609BADB}
  9
$VERSIONGUID
  2
{14FE5410-D5B5-4373-86FC-AE2118B03ECA}
  9
$EXTNAMES
290
1
  9
$PSVPSCALE
 40
0.0
  9
$OLESTARTUP
290
0
  9
$SORTENTS
280
127
  9
$INDEXCTL
280
0
  9
$HIDETEXT
280
1
  9
$XCLIPFRAME
280
1
  9
$HALOGAP
280
0
  9
$OBSCOLOR
 70
257
  9
$OBSLTYPE
280
0
  9
$INTERSECTIONDISPLAY
280
0
  9
$INTERSECTIONCOLOR
 70
257
  9
$DIMASSOC
280
2
  9
$PROJECTNAME
  1

  9
$CAMERADISPLAY
290
0
  9
$LENSLENGTH
 40
50.0
  9
$CAMERAHEIGHT
 40
0.0
  9
$STEPSPERSEC
 40
24.0
  9
$STEPSIZE
 40
100.0
  9
$3DDWFPREC
 40
2.0
  9
$PSOLWIDTH
 40
0.005
  9
$PSOLHEIGHT
 40
0.08
  9
$LOFTANG1
 40
1.570796326795
  9
$LOFTANG2
 40
1.570796326795
  9
$LOFTMAG1
 40
0.0
  9
$LOFTMAG2
 40
0.0
  9
$LOFTPARAM
 70
7
  9
$LOFTNORMALS
280
1
  9
$LATITUDE
 40
37.795
  9
$LONGITUDE
 40
-122.394
  9
$NORTHDIRECTION
 40
0.0
  9
$TIMEZONE
 70
-8000
  9
$LIGHTGLYPHDISPLAY
280
1
  9
$TILEMODELIGHTSYNCH
280
1
  9
$CMATERIAL
347
20
  9
$SOLIDHIST
280
0
  9
$SHOWHIST
280
1
  9
$DWFFRAME
280
2
  9
$DGNFRAME
280
2
  9
$REALWORLDSCALE
290
1
  9
$INTERFERECOLOR
 62
256
  9
$CSHADOW
280
0
  9
$SHADOWPLANELOCATION
 40
0.0
  0
ENDSEC
  0
SECTION
  2
CLASSES
  0
CLASS
  1
ACDBDICTIONARYWDFLT
  2
AcDbDictionaryWithDefault
  3
ObjectDBX Classes
 90
0
 91
0
280
0
281
0
  0
CLASS
  1
SUN
  2
AcDbSun
  3
SCENEOE
 90
1153
 91
0
280
0
281
0
  0
CLASS
  1
VISUALSTYLE
  2
AcDbVisualStyle
  3
ObjectDBX Classes
 90
4095
 91
0
280
0
281
0
  0
CLASS
  1
MATERIAL
  2
AcDbMaterial
  3
ObjectDBX Classes
 90
1153
 91
0
280
0
281
0
  0
CLASS
  1
SCALE
  2
AcDbScale
  3
ObjectDBX Classes
 90
1153
 91
0
280
0
281
0
  0
CLASS
  1
TABLESTYLE
  2
AcDbTableStyle
  3
ObjectDBX Classes
 90
4095
 91
0
280
0
281
0
  0
CLASS
  1
MLEADERSTYLE
  2
AcDbMLeaderStyle
  3
ACDB_MLEADERSTYLE_CLASS
 90
4095
 91
0
280
0
281
0
  0
CLASS
  1
DICTIONARYVAR
  2
AcDbDictionaryVar
  3
ObjectDBX Classes
 90
0
 91
0
280
0
281
0
  0
CLASS
  1
CELLSTYLEMAP
  2
AcDbCellStyleMap
  3
ObjectDBX Classes
 90
1152
 91
0
280
0
281
0
  0
CLASS
  1
MENTALRAYRENDERSETTINGS
  2
AcDbMentalRayRenderSettings
  3
SCENEOE
 90
1024
 91
0
280
0
281
0
  0
CLASS
  1
ACDBDETAILVIEWSTYLE
  2
AcDbDetailViewStyle
  3
ObjectDBX Classes
 90
1025
 91
0
280
0
281
0
  0
CLASS
  1
ACDBSECTIONVIEWSTYLE
  2
AcDbSectionViewStyle
  3
ObjectDBX Classes
 90
1025
 91
0
280
0
281
0
  0
CLASS
  1
RASTERVARIABLES
  2
AcDbRasterVariables
  3
ISM
 90
0
 91
0
280
0
281
0
  0
CLASS
  1
LAYOUT
  2
AcDbLayout
  3
ObjectDBX Classes
 90
0
 91
0
280
0
281
0
  0
CLASS
  1
ACDBPLACEHOLDER
  2
AcDbPlaceHolder
  3
ObjectDBX Classes
 90
0
 91
0
280
0
281
0
  0
ENDSEC
  0
SECTION
  2
TABLES
  0
TABLE
  2
VPORT
  5
8
330
0
100
AcDbSymbolTable
 70
1
  0
VPORT
  5
23
330
8
100
AcDbSymbolTableRecord
100
AcDbViewportTableRecord
  2
*Active
 70
0
 10
0.0
 20
0.0
 11
1.0
 21
1.0
 12
0.0
 22
0.0
 13
0.0
 23
0.0
 14
0.5
 24
0.5
 15
0.5
 25
0.5
 16
0.0
 26
0.0
 36
1.0
 17
0.0
 27
0.0
 37
0.0
 40
1000.0
 41
1.34
 42
50.0
 43
0.0
 44
0.0
 50
0.0
 51
0.0
 71
0
 72
1000
 73
1
 74
3
 75
0
 76
0
 77
0
 78
0
281
0
 65
0
146
0.0
  0
ENDTAB
  0
TABLE
  2
LTYPE
  5
2
330
0
100
AcDbSymbolTable
 70
21
  0
LTYPE
  5
24
330
2
100
AcDbSymbolTableRecord
100
AcDbLinetypeTableRecord
  2
ByBlock
 70
0
  3

 72
65
 73
0
 40
0.0
  0
LTYPE
  5
25
330
2
100
AcDbSymbolTableRecord
100
AcDbLinetypeTableRecord
  2
ByLayer
 70
0
  3

 72
65
 73
0
 40
0.0
  0
LTYPE
  5
26
330
2
100
AcDbSymbolTableRecord
100
AcDbLinetypeTableRecord
  2
Continuous
 70
0
  3

 72
65
 73
0
 40
0.0
  0
LTYPE
  5
2F
330
2
100
AcDbSymbolTableRecord
100
AcDbLinetypeTableRecord
  2
CENTER
 70
0
  3
Center ____ _ ____ _ ____ _ ____ _ ____ _ ____
 72
65
 73
4
 40
2.0
 49
1.25
 74
0
 49
-0.25
 74
0
 49
0.25
 74
0
 49
-0.25
 74
0
  0
LTYPE
  5
30
330
2
100
AcDbSymbolTableRecord
100
AcDbLinetypeTableRecord
  2
CENTERX2
 70
0
  3
Center (2x) ________  __  ________  __  ________
 72
65
 73
4
 40
3.5
 49
2.5
 74
0
 49
-0.25
 74
0
 49
0.5
 74
0
 49
-0.25
 74
0
  0
LTYPE
  5
31
330
2
100
AcDbSymbolTableRecord
100
AcDbLinetypeTableRecord
  2
CENTER2
 70
0
  3
Center (.5x) ____ _ ____ _ ____ _ ____ _ ____
 72
65
 73
4
 40
1.0
 49
0.625
 74
0
 49
-0.125
 74
0
 49
0.125
 74
0
 49
-0.125
 74
0
  0
LTYPE
  5
32
330
2
100
AcDbSymbolTableRecord
100
AcDbLinetypeTableRecord
  2
DASHED
 70
0
  3
Dashed __ __ __ __ __ __ __ __ __ __ __ __ __ _
 72
65
 73
2
 40
0.6
 49
0.5
 74
0
 49
-0.1
 74
0
  0
LTYPE
  5
33
330
2
100
AcDbSymbolTableRecord
100
AcDbLinetypeTableRecord
  2
DASHEDX2
 70
0
  3
Dashed (2x) ____  ____  ____  ____  ____  ____
 72
65
 73
2
 40
1.2
 49
1.0
 74
0
 49
-0.2
 74
0
  0
LTYPE
  5
34
330
2
100
AcDbSymbolTableRecord
100
AcDbLinetypeTableRecord
  2
DASHED2
 70
0
  3
Dashed (.5x) _ _ _ _ _ _ _ _ _ _ _ _ _ _
 72
65
 73
2
 40
0.3
 49
0.25
 74
0
 49
-0.05
 74
0
  0
LTYPE
  5
35
330
2
100
AcDbSymbolTableRecord
100
AcDbLinetypeTableRecord
  2
PHANTOM
 70
0
  3
Phantom ______  __  __  ______  __  __  ______
 72
65
 73
6
 40
2.5
 49
1.25
 74
0
 49
-0.25
 74
0
 49
0.25
 74
0
 49
-0.25
 74
0
 49
0.25
 74
0
 49
-0.25
 74
0
  0
LTYPE
  5
36
330
2
100
AcDbSymbolTableRecord
100
AcDbLinetypeTableRecord
  2
PHANTOMX2
 70
0
  3
Phantom (2x)____________    ____    ____    ____________
 72
65
 73
6
 40
4.25
 49
2.5
 74
0
 49
-0.25
 74
0
 49
0.5
 74
0
 49
-0.25
 74
0
 49
0.5
 74
0
 49
-0.25
 74
0
  0
LTYPE
  5
37
330
2
100
AcDbSymbolTableRecord
100
AcDbLinetypeTableRecord
  2
PHANTOM2
 70
0
  3
Phantom (.5x) ___ _ _ ___ _ _ ___ _ _ ___ _ _ ___
 72
65
 73
6
 40
1.25
 49
0.625
 74
0
 49
-0.125
 74
0
 49
0.125
 74
0
 49
-0.125
 74
0
 49
0.125
 74
0
 49
-0.125
 74
0
  0
LTYPE
  5
38
330
2
100
AcDbSymbolTableRecord
100
AcDbLinetypeTableRecord
  2
DASHDOT
 70
0
  3
Dash dot __ . __ . __ . __ . __ . __ . __ . __
 72
65
 73
4
 40
1.4
 49
1.0
 74
0
 49
-0.2
 74
0
 49
0.0
 74
0
 49
-0.2
 74
0
  0
LTYPE
  5
39
330
2
100
AcDbSymbolTableRecord
100
AcDbLinetypeTableRecord
  2
DASHDOTX2
 70
0
  3
Dash dot (2x) ____  .  ____  .  ____  .  ____
 72
65
 73
4
 40
2.4
 49
2.0
 74
0
 49
-0.2
 74
0
 49
0.0
 74
0
 49
-0.2
 74
0
  0
LTYPE
  5
3A
330
2
100
AcDbSymbolTableRecord
100
AcDbLinetypeTableRecord
  2
DASHDOT2
 70
0
  3
Dash dot (.5x) _ . _ . _ . _ . _ . _ . _ . _
 72
65
 73
4
 40
0.7
 49
0.5
 74
0
 49
-0.1
 74
0
 49
0.0
 74
0
 49
-0.1
 74
0
  0
LTYPE
  5
3B
330
2
100
AcDbSymbolTableRecord
100
AcDbLinetypeTableRecord
  2
DOT
 70
0
  3
Dot .  .  .  .  .  .  .  .  .  .  .  .  .  .  .  .
 72
65
 73
2
 40
0.2
 49
0.0
 74
0
 49
-0.2
 74
0
  0
LTYPE
  5
3C
330
2
100
AcDbSymbolTableRecord
100
AcDbLinetypeTableRecord
  2
DOTX2
 70
0
  3
Dot (2x) .    .    .    .    .    .    .    . 
 72
65
 73
2
 40
0.4
 49
0.0
 74
0
 49
-0.4
 74
0
  0
LTYPE
  5
3D
330
2
100
AcDbSymbolTableRecord
100
AcDbLinetypeTableRecord
  2
DOT2
 70
0
  3
Dot (.5) . . . . . . . . . . . . . . . . . . . 
 72
65
 73
2
 40
0.1
 49
0.0
 74
0
 49
-0.1
 74
0
  0
LTYPE
  5
3E
330
2
100
AcDbSymbolTableRecord
100
AcDbLinetypeTableRecord
  2
DIVIDE
 70
0
  3
Divide __ . . __ . . __ . . __ . . __ . . __
 72
65
 73
6
 40
1.6
 49
1.0
 74
0
 49
-0.2
 74
0
 49
0.0
 74
0
 49
-0.2
 74
0
 49
0.0
 74
0
 49
-0.2
 74
0
  0
LTYPE
  5
3F
330
2
100
AcDbSymbolTableRecord
100
AcDbLinetypeTableRecord
  2
DIVIDEX2
 70
0
  3
Divide (2x) ____  . .  ____  . .  ____  . .  ____
 72
65
 73
6
 40
2.6
 49
2.0
 74
0
 49
-0.2
 74
0
 49
0.0
 74
0
 49
-0.2
 74
0
 49
0.0
 74
0
 49
-0.2
 74
0
  0
LTYPE
  5
40
330
2
100
AcDbSymbolTableRecord
100
AcDbLinetypeTableRecord
  2
DIVIDE2
 70
0
  3
Divide(.5x) _ . _ . _ . _ . _ . _ . _ . _
 72
65
 73
6
 40
0.8
 49
0.5
 74
0
 49
-0.1
 74
0
 49
0.0
 74
0
 49
-0.1
 74
0
 49
0.0
 74
0
 49
-0.1
 74
0
  0
ENDTAB
  0
TABLE
  2
LAYER
  5
1
330
0
100
AcDbSymbolTable
 70
16
  0
LAYER
  5
27
330
1
100
AcDbSymbolTableRecord
100
AcDbLayerTableRecord
  2
0
 70
0
 62
7
  6
Continuous
370
-3
390
13
347
21
  0
LAYER
  5
28
330
1
100
AcDbSymbolTableRecord
100
AcDbLayerTableRecord
  2
Defpoints
 70
0
 62
7
  6
Continuous
290
0
370
-3
390
13
347
21
  0
LAYER
  5
8A
330
1
100
AcDbSymbolTableRecord
100
AcDbLayerTableRecord
  2
Right wall elevation
 70
0
 62
7
  6
Continuous
370
-3
390
13
347
21
  0
LAYER
  5
8B
330
1
100
AcDbSymbolTableRecord
100
AcDbLayerTableRecord
  2
Right wall elevation hatch
 70
0
 62
8
  6
Continuous
370
-3
390
13
347
21
  0
LAYER
  5
140
330
1
100
AcDbSymbolTableRecord
100
AcDbLayerTableRecord
  2
Right wall plan
 70
0
 62
7
  6
Continuous
370
-3
390
13
347
21
  0
LAYER
  5
141
330
1
100
AcDbSymbolTableRecord
100
AcDbLayerTableRecord
  2
Right wall plan hatch
 70
0
 62
8
  6
Continuous
370
-3
390
13
347
21
  0
LAYER
  5
177
330
1
100
AcDbSymbolTableRecord
100
AcDbLayerTableRecord
  2
Right wall section
 70
0
 62
7
  6
Continuous
370
-3
390
13
347
21
  0
LAYER
  5
178
330
1
100
AcDbSymbolTableRecord
100
AcDbLayerTableRecord
  2
Right wall section hatch
 70
0
 62
8
  6
Continuous
370
-3
390
13
347
21
  0
LAYER
  5
19B
330
1
100
AcDbSymbolTableRecord
100
AcDbLayerTableRecord
  2
Panel moulding section
 70
0
 62
7
  6
Continuous
370
-3
390
13
347
21
  0
LAYER
  5
19C
330
1
100
AcDbSymbolTableRecord
100
AcDbLayerTableRecord
  2
Panel moulding section hatch
 70
0
 62
8
  6
Continuous
370
-3
390
13
347
21
  0
LAYER
  5
1AD
330
1
100
AcDbSymbolTableRecord
100
AcDbLayerTableRecord
  2
Dado rail section
 70
0
 62
7
  6
Continuous
370
-3
390
13
347
21
  0
LAYER
  5
1AE
330
1
100
AcDbSymbolTableRecord
100
AcDbLayerTableRecord
  2
Dado rail section hatch
 70
0
 62
8
  6
Continuous
370
-3
390
13
347
21
  0
LAYER
  5
1C0
330
1
100
AcDbSymbolTableRecord
100
AcDbLayerTableRecord
  2
Skirting section
 70
0
 62
7
  6
Continuous
370
-3
390
13
347
21
  0
LAYER
  5
1C1
330
1
100
AcDbSymbolTableRecord
100
AcDbLayerTableRecord
  2
Skirting section hatch
 70
0
 62
8
  6
Continuous
370
-3
390
13
347
21
  0
LAYER
  5
1C8
330
1
100
AcDbSymbolTableRecord
100
AcDbLayerTableRecord
  2
Wall lamp elevation
 70
0
 62
7
  6
Continuous
370
-3
390
13
347
21
  0
LAYER
  5
1C9
330
1
100
AcDbSymbolTableRecord
100
AcDbLayerTableRecord
  2
Wall lamp elevation hatch
 70
0
 62
8
  6
Continuous
370
-3
390
13
347
21
  0
ENDTAB
  0
TABLE
  2
STYLE
  5
5
330
0
100
AcDbSymbolTable
 70
26
  0
STYLE
  5
29
330
5
100
AcDbSymbolTableRecord
100
AcDbTextStyleTableRecord
  2
Standard
 70
0
 40
0.0
 41
1.0
 50
0.0
 71
0
 42
2.5
  3
txt
  4

  0
STYLE
  5
41
330
5
100
AcDbSymbolTableRecord
100
AcDbTextStyleTableRecord
  2
OpenSans-Light
 70
0
 40
0.0
 41
1.0
 50
0.0
 71
0
 42
2.5
  3
OpenSans-Light.ttf
  4

  0
STYLE
  5
42
330
5
100
AcDbSymbolTableRecord
100
AcDbTextStyleTableRecord
  2
OpenSans-Light-Italic
 70
0
 40
0.0
 41
1.0
 50
0.0
 71
0
 42
2.5
  3
OpenSans-LightItalic.ttf
  4

  0
STYLE
  5
43
330
5
100
AcDbSymbolTableRecord
100
AcDbTextStyleTableRecord
  2
OpenSans
 70
0
 40
0.0
 41
1.0
 50
0.0
 71
0
 42
2.5
  3
OpenSans-Regular.ttf
  4

  0
STYLE
  5
44
330
5
100
AcDbSymbolTableRecord
100
AcDbTextStyleTableRecord
  2
OpenSans-Italic
 70
0
 40
0.0
 41
1.0
 50
0.0
 71
0
 42
2.5
  3
OpenSans-Italic.ttf
  4

  0
STYLE
  5
45
330
5
100
AcDbSymbolTableRecord
100
AcDbTextStyleTableRecord
  2
OpenSans-SemiBold
 70
0
 40
0.0
 41
1.0
 50
0.0
 71
0
 42
2.5
  3
OpenSans-SemiBold.ttf
  4

  0
STYLE
  5
46
330
5
100
AcDbSymbolTableRecord
100
AcDbTextStyleTableRecord
  2
OpenSans-SemiBoldItalic
 70
0
 40
0.0
 41
1.0
 50
0.0
 71
0
 42
2.5
  3
OpenSans-SemiBoldItalic.ttf
  4

  0
STYLE
  5
47
330
5
100
AcDbSymbolTableRecord
100
AcDbTextStyleTableRecord
  2
OpenSans-Bold
 70
0
 40
0.0
 41
1.0
 50
0.0
 71
0
 42
2.5
  3
OpenSans-Bold.ttf
  4

  0
STYLE
  5
48
330
5
100
AcDbSymbolTableRecord
100
AcDbTextStyleTableRecord
  2
OpenSans-BoldItalic
 70
0
 40
0.0
 41
1.0
 50
0.0
 71
0
 42
2.5
  3
OpenSans-BoldItalic.ttf
  4

  0
STYLE
  5
49
330
5
100
AcDbSymbolTableRecord
100
AcDbTextStyleTableRecord
  2
OpenSans-ExtraBold
 70
0
 40
0.0
 41
1.0
 50
0.0
 71
0
 42
2.5
  3
OpenSans-ExtraBold.ttf
  4

  0
STYLE
  5
4A
330
5
100
AcDbSymbolTableRecord
100
AcDbTextStyleTableRecord
  2
OpenSans-ExtraBoldItalic
 70
0
 40
0.0
 41
1.0
 50
0.0
 71
0
 42
2.5
  3
OpenSans-ExtraBoldItalic.ttf
  4

  0
STYLE
  5
4B
330
5
100
AcDbSymbolTableRecord
100
AcDbTextStyleTableRecord
  2
OpenSansCondensed-Bold
 70
0
 40
0.0
 41
1.0
 50
0.0
 71
0
 42
2.5
  3
OpenSansCondensed-Bold.ttf
  4

  0
STYLE
  5
4C
330
5
100
AcDbSymbolTableRecord
100
AcDbTextStyleTableRecord
  2
OpenSansCondensed-Light
 70
0
 40
0.0
 41
1.0
 50
0.0
 71
0
 42
2.5
  3
OpenSansCondensed-Light.ttf
  4

  0
STYLE
  5
4D
330
5
100
AcDbSymbolTableRecord
100
AcDbTextStyleTableRecord
  2
OpenSansCondensed-Italic
 70
0
 40
0.0
 41
1.0
 50
0.0
 71
0
 42
2.5
  3
OpenSansCondensed-LightItalic.ttf
  4

  0
STYLE
  5
4E
330
5
100
AcDbSymbolTableRecord
100
AcDbTextStyleTableRecord
  2
LiberationSans
 70
0
 40
0.0
 41
1.0
 50
0.0
 71
0
 42
2.5
  3
LiberationSans-Regular.ttf
  4

  0
STYLE
  5
4F
330
5
100
AcDbSymbolTableRecord
100
AcDbTextStyleTableRecord
  2
LiberationSans-Bold
 70
0
 40
0.0
 41
1.0
 50
0.0
 71
0
 42
2.5
  3
LiberationSans-Bold.ttf
  4

  0
STYLE
  5
50
330
5
100
AcDbSymbolTableRecord
100
AcDbTextStyleTableRecord
  2
LiberationSans-BoldItalic
 70
0
 40
0.0
 41
1.0
 50
0.0
 71
0
 42
2.5
  3
LiberationSans-BoldItalic.ttf
  4

  0
STYLE
  5
51
330
5
100
AcDbSymbolTableRecord
100
AcDbTextStyleTableRecord
  2
LiberationSans-Italic
 70
0
 40
0.0
 41
1.0
 50
0.0
 71
0
 42
2.5
  3
LiberationSans-Italic.ttf
  4

  0
STYLE
  5
52
330
5
100
AcDbSymbolTableRecord
100
AcDbTextStyleTableRecord
  2
LiberationSerif
 70
0
 40
0.0
 41
1.0
 50
0.0
 71
0
 42
2.5
  3
LiberationSerif-Regular.ttf
  4

  0
STYLE
  5
53
330
5
100
AcDbSymbolTableRecord
100
AcDbTextStyleTableRecord
  2
LiberationSerif-Bold
 70
0
 40
0.0
 41
1.0
 50
0.0
 71
0
 42
2.5
  3
LiberationSerif-Bold.ttf
  4

  0
STYLE
  5
54
330
5
100
AcDbSymbolTableRecord
100
AcDbTextStyleTableRecord
  2
LiberationSerif-BoldItalic
 70
0
 40
0.0
 41
1.0
 50
0.0
 71
0
 42
2.5
  3
LiberationSerif-BoldItalic.ttf
  4

  0
STYLE
  5
55
330
5
100
AcDbSymbolTableRecord
100
AcDbTextStyleTableRecord
  2
LiberationSerif-Italic
 70
0
 40
0.0
 41
1.0
 50
0.0
 71
0
 42
2.5
  3
LiberationSerif-Italic.ttf
  4

  0
STYLE
  5
56
330
5
100
AcDbSymbolTableRecord
100
AcDbTextStyleTableRecord
  2
LiberationMono
 70
0
 40
0.0
 41
1.0
 50
0.0
 71
0
 42
2.5
  3
LiberationMono-Regular.ttf
  4

  0
STYLE
  5
57
330
5
100
AcDbSymbolTableRecord
100
AcDbTextStyleTableRecord
  2
LiberationMono-Bold
 70
0
 40
0.0
 41
1.0
 50
0.0
 71
0
 42
2.5
  3
LiberationMono-Bold.ttf
  4

  0
STYLE
  5
58
330
5
100
AcDbSymbolTableRecord
100
AcDbTextStyleTableRecord
  2
LiberationMono-BoldItalic
 70
0
 40
0.0
 41
1.0
 50
0.0
 71
0
 42
2.5
  3
LiberationMono-BoldItalic.ttf
  4

  0
STYLE
  5
59
330
5
100
AcDbSymbolTableRecord
100
AcDbTextStyleTableRecord
  2
LiberationMono-Italic
 70
0
 40
0.0
 41
1.0
 50
0.0
 71
0
 42
2.5
  3
LiberationMono-Italic.ttf
  4

  0
ENDTAB
  0
TABLE
  2
VIEW
  5
7
330
0
100
AcDbSymbolTable
 70
0
  0
ENDTAB
  0
TABLE
  2
UCS
  5
6
330
0
100
AcDbSymbolTable
 70
0
  0
ENDTAB
  0
TABLE
  2
APPID
  5
3
330
0
100
AcDbSymbolTable
 70
3
  0
APPID
  5
2A
330
3
100
AcDbSymbolTableRecord
100
AcDbRegAppTableRecord
  2
ACAD
 70
0
  0
APPID
  5
1EF
330
3
100
AcDbSymbolTableRecord
100
AcDbRegAppTableRecord
  2
HATCHBACKGROUNDCOLOR
 70
0
  0
APPID
  5
1F0
330
3
100
AcDbSymbolTableRecord
100
AcDbRegAppTableRecord
  2
EZDXF
 70
0
  0
ENDTAB
  0
TABLE
  2
DIMSTYLE
  5
4
330
0
100
AcDbSymbolTable
 70
12
100
AcDbDimStyleTable
  0
DIMSTYLE
105
2B
330
4
100
AcDbSymbolTableRecord
100
AcDbDimStyleTableRecord
  2
Standard
 70
0
 40
1.0
 41
2.5
 42
0.625
 43
3.75
 44
1.25
 45
0.0
 46
0.0
 47
0.0
 48
0.0
 49
2.5
140
2.5
141
2.5
142
0.0
143
0.03937007874
144
1.0
145
0.0
146
1.0
147
0.625
148
0.0
 69
0
 70
0
 71
0
 72
0
 73
0
 74
0
 75
0
 76
0
 77
1
 78
8
 79
3
170
0
171
3
172
1
173
0
174
0
175
0
176
0
177
0
178
0
179
2
271
2
272
2
273
2
274
3
275
0
276
0
277
2
278
44
279
0
280
0
281
0
282
0
283
0
284
8
285
0
286
0
288
0
289
3
290
0
371
-2
372
-2
  0
DIMSTYLE
105
73
330
4
100
AcDbSymbolTableRecord
100
AcDbDimStyleTableRecord
  2
EZDXF
 70
0
 40
1.0
 41
0.175
 42
0.125
 43
3.75
 44
0.375
 45
0.0
 46
0.0
 47
0.0
 48
0.0
 49
2.5
140
0.25
141
2.5
142
0.0
143
0.03937007874
144
100.0
145
0.0
146
0.5
147
0.1
148
0.0
 69
0
 70
0
 71
0
 72
0
 73
0
 74
0
 75
0
 76
0
 77
1
 78
12
 79
3
170
0
171
3
172
1
173
0
174
0
175
0
176
0
177
0
178
0
179
2
271
2
272
2
273
2
274
3
275
0
276
0
277
2
278
46
279
2
280
0
281
0
282
0
283
0
284
8
285
0
286
0
288
1
289
3
290
0
340
4C
342
74
371
-2
372
-2
  0
DIMSTYLE
105
7C
330
4
100
AcDbSymbolTableRecord
100
AcDbDimStyleTableRecord
  2
EZ_M_100_H25_CM
 70
0
 40
1.0
 41
0.25
 42
0.125
 43
3.75
 44
0.375
 45
0.0
 46
0.0
 47
0.0
 48
0.0
 49
2.5
140
0.25
141
2.5
142
0.125
143
0.03937007874
144
100.0
145
0.0
146
0.5
147
0.1
148
0.0
 69
0
 70
0
 71
0
 72
0
 73
0
 74
0
 75
0
 76
0
 77
1
 78
12
 79
3
170
0
171
3
172
1
173
0
174
0
175
0
176
0
177
0
178
0
179
2
271
2
272
2
273
2
274
3
275
0
276
0
277
2
278
46
279
2
280
0
281
0
282
0
283
0
284
8
285
0
286
0
288
1
289
3
290
0
340
4C
371
-2
372
-2
  0
DIMSTYLE
105
7D
330
4
100
AcDbSymbolTableRecord
100
AcDbDimStyleTableRecord
  2
EZ_M_50_H25_CM
 70
0
 40
1.0
 41
0.125
 42
0.0625
 43
3.75
 44
0.1875
 45
0.0
 46
0.0
 47
0.0
 48
0.0
 49
2.5
140
0.125
141
2.5
142
0.0625
143
0.03937007874
144
100.0
145
0.0
146
0.5
147
0.05
148
0.0
 69
0
 70
0
 71
0
 72
0
 73
0
 74
0
 75
0
 76
0
 77
1
 78
12
 79
3
170
0
171
3
172
1
173
0
174
0
175
0
176
0
177
0
178
0
179
2
271
2
272
2
273
2
274
3
275
0
276
0
277
2
278
46
279
2
280
0
281
0
282
0
283
0
284
8
285
0
286
0
288
1
289
3
290
0
340
4C
371
-2
372
-2
  0
DIMSTYLE
105
7E
330
4
100
AcDbSymbolTableRecord
100
AcDbDimStyleTableRecord
  2
EZ_M_25_H25_CM
 70
0
 40
1.0
 41
0.0625
 42
0.03125
 43
3.75
 44
0.09375
 45
0.0
 46
0.0
 47
0.0
 48
0.0
 49
2.5
140
0.0625
141
2.5
142
0.03125
143
0.03937007874
144
100.0
145
0.0
146
0.5
147
0.025
148
0.0
 69
0
 70
0
 71
0
 72
0
 73
0
 74
0
 75
0
 76
0
 77
1
 78
12
 79
3
170
0
171
3
172
1
173
0
174
0
175
0
176
0
177
0
178
0
179
2
271
2
272
2
273
2
274
3
275
0
276
0
277
2
278
46
279
2
280
0
281
0
282
0
283
0
284
8
285
0
286
0
288
1
289
3
290
0
340
4C
371
-2
372
-2
  0
DIMSTYLE
105
7F
330
4
100
AcDbSymbolTableRecord
100
AcDbDimStyleTableRecord
  2
EZ_M_20_H25_CM
 70
0
 40
1.0
 41
0.05
 42
0.025
 43
3.75
 44
0.07500000000000001
 45
0.0
 46
0.0
 47
0.0
 48
0.0
 49
2.5
140
0.05
141
2.5
142
0.025
143
0.03937007874
144
100.0
145
0.0
146
0.5
147
0.020000000000000004
148
0.0
 69
0
 70
0
 71
0
 72
0
 73
0
 74
0
 75
0
 76
0
 77
1
 78
12
 79
3
170
0
171
3
172
1
173
0
174
0
175
0
176
0
177
0
178
0
179
2
271
2
272
2
273
2
274
3
275
0
276
0
277
2
278
46
279
2
280
0
281
0
282
0
283
0
284
8
285
0
286
0
288
1
289
3
290
0
340
4C
371
-2
372
-2
  0
DIMSTYLE
105
80
330
4
100
AcDbSymbolTableRecord
100
AcDbDimStyleTableRecord
  2
EZ_M_10_H25_CM
 70
0
 40
1.0
 41
0.025
 42
0.0125
 43
3.75
 44
0.037500000000000006
 45
0.0
 46
0.0
 47
0.0
 48
0.0
 49
2.5
140
0.025
141
2.5
142
0.0125
143
0.03937007874
144
100.0
145
0.0
146
0.5
147
0.010000000000000002
148
0.0
 69
0
 70
0
 71
0
 72
0
 73
0
 74
0
 75
0
 76
0
 77
1
 78
12
 79
3
170
0
171
3
172
1
173
0
174
0
175
0
176
0
177
0
178
0
179
2
271
2
272
2
273
2
274
3
275
0
276
0
277
2
278
46
279
2
280
0
281
0
282
0
283
0
284
8
285
0
286
0
288
1
289
3
290
0
340
4C
371
-2
372
-2
  0
DIMSTYLE
105
81
330
4
100
AcDbSymbolTableRecord
100
AcDbDimStyleTableRecord
  2
EZ_M_5_H25_CM
 70
0
 40
1.0
 41
0.0125
 42
0.00625
 43
3.75
 44
0.018750000000000003
 45
0.0
 46
0.0
 47
0.0
 48
0.0
 49
2.5
140
0.0125
141
2.5
142
0.00625
143
0.03937007874
144
100.0
145
0.0
146
0.5
147
0.005000000000000001
148
0.0
 69
0
 70
0
 71
0
 72
0
 73
0
 74
0
 75
0
 76
0
 77
1
 78
12
 79
3
170
0
171
3
172
1
173
0
174
0
175
0
176
0
177
0
178
0
179
2
271
2
272
2
273
2
274
3
275
0
276
0
277
2
278
46
279
2
280
0
281
0
282
0
283
0
284
8
285
0
286
0
288
1
289
3
290
0
340
4C
371
-2
372
-2
  0
DIMSTYLE
105
82
330
4
100
AcDbSymbolTableRecord
100
AcDbDimStyleTableRecord
  2
EZ_M_1_H25_CM
 70
0
 40
1.0
 41
0.0025
 42
0.00125
 43
3.75
 44
0.00375
 45
0.0
 46
0.0
 47
0.0
 48
0.0
 49
2.5
140
0.0025
141
2.5
142
0.00125
143
0.03937007874
144
100.0
145
0.0
146
0.5
147
0.001
148
0.0
 69
0
 70
0
 71
0
 72
0
 73
0
 74
0
 75
0
 76
0
 77
1
 78
12
 79
3
170
0
171
3
172
1
173
0
174
0
175
0
176
0
177
0
178
0
179
2
271
2
272
2
273
2
274
3
275
0
276
0
277
2
278
46
279
2
280
0
281
0
282
0
283
0
284
8
285
0
286
0
288
1
289
3
290
0
340
4C
371
-2
372
-2
  0
DIMSTYLE
105
83
330
4
100
AcDbSymbolTableRecord
100
AcDbDimStyleTableRecord
  2
EZ_RADIUS
 70
0
 40
1.0
 41
0.25
 42
0.125
 43
3.75
 44
0.375
 45
0.0
 46
0.0
 47
0.0
 48
0.0
 49
2.5
140
0.25
141
0.0
142
0.0
143
0.03937007874
144
100.0
145
0.0
146
0.5
147
0.1
148
0.0
 69
0
 70
0
 71
0
 72
0
 73
0
 74
0
 75
0
 76
0
 77
1
 78
12
 79
3
170
0
171
3
172
0
173
0
174
0
175
0
176
0
177
0
178
0
179
2
271
2
272
2
273
2
274
3
275
0
276
0
277
2
278
46
279
1
280
0
281
0
282
0
283
0
284
8
285
0
286
0
288
1
289
3
290
0
340
4C
342
84
371
-2
372
-2
  0
DIMSTYLE
105
88
330
4
100
AcDbSymbolTableRecord
100
AcDbDimStyleTableRecord
  2
EZ_RADIUS_INSIDE
 70
0
 40
1.0
 41
0.25
 42
0.125
 43
3.75
 44
0.375
 45
0.0
 46
0.0
 47
0.0
 48
0.0
 49
2.5
140
0.25
141
0.0
142
0.0
143
0.03937007874
144
100.0
145
0.0
146
0.5
147
0.1
148
0.0
 69
0
 70
0
 71
0
 72
0
 73
0
 74
0
 75
0
 76
0
 77
0
 78
12
 79
3
170
0
171
3
172
0
173
0
174
1
175
0
176
0
177
0
178
0
179
2
271
2
272
2
273
2
274
3
275
0
276
0
277
2
278
46
279
0
280
0
281
0
282
0
283
0
284
8
285
0
286
0
288
1
289
0
290
0
340
4C
342
84
371
-2
372
-2
  0
DIMSTYLE
105
89
330
4
100
AcDbSymbolTableRecord
100
AcDbDimStyleTableRecord
  2
EZ_CURVED
 70
0
 40
1.0
 41
0.25
 42
0.125
 43
3.75
 44
0.375
 45
0.0
 46
0.0
 47
0.0
 48
0.0
 49
2.5
140
0.25
141
2.5
142
0.0
143
0.03937007874
144
100.0
145
0.0
146
0.5
147
0.1
148
0.0
 69
0
 70
0
 71
0
 72
0
 73
0
 74
0
 75
0
 76
0
 77
1
 78
12
 79
2
 90
2
170
0
171
3
172
1
173
0
174
0
175
0
176
0
177
0
178
0
179
2
271
2
272
2
273
2
274
3
275
0
276
0
277
2
278
46
279
2
280
0
281
0
282
0
283
0
284
8
285
0
286
0
288
1
289
3
290
0
340
4C
371
-2
372
-2
  0
ENDTAB
  0
TABLE
  2
BLOCK_RECORD
  5
9
330
0
100
AcDbSymbolTable
 70
5
  0
BLOCK_RECORD
  5
17
330
9
100
AcDbSymbolTableRecord
100
AcDbBlockTableRecord
  2
*Model_Space
340
1A
 70
0
280
1
281
0
  0
BLOCK_RECORD
  5
1B
330
9
100
AcDbSymbolTableRecord
100
AcDbBlockTableRecord
  2
*Paper_Space
340
1E
 70
0
280
1
281
0
  0
BLOCK_RECORD
  5
74
330
9
100
AcDbSymbolTableRecord
100
AcDbBlockTableRecord
  2
_ARCHTICK
340
0
 70
0
280
1
281
0
  0
BLOCK_RECORD
  5
78
330
9
100
AcDbSymbolTableRecord
100
AcDbBlockTableRecord
  2
_CLOSEDFILLED
340
0
 70
0
280
1
281
0
  0
BLOCK_RECORD
  5
84
330
9
100
AcDbSymbolTableRecord
100
AcDbBlockTableRecord
  2
_CLOSEDBLANK
340
0
 70
0
280
1
281
0
  0
ENDTAB
  0
ENDSEC
  0
SECTION
  2
BLOCKS
  0
BLOCK
  5
18
330
17
100
AcDbEntity
  8
0
100
AcDbBlockBegin
  2
*Model_Space
 70
0
 10
0.0
 20
0.0
 30
0.0
  3
*Model_Space
  1

  0
ENDBLK
  5
19
330
17
100
AcDbEntity
  8
0
100
AcDbBlockEnd
  0
BLOCK
  5
1C
330
1B
100
AcDbEntity
  8
0
100
AcDbBlockBegin
  2
*Paper_Space
 70
0
 10
0.0
 20
0.0
 30
0.0
  3
*Paper_Space
  1

  0
ENDBLK
  5
1D
330
1B
100
AcDbEntity
  8
0
100
AcDbBlockEnd
  0
BLOCK
  5
75
330
74
100
AcDbEntity
  8
0
100
AcDbBlockBegin
  2
_ARCHTICK
 70
0
 10
0.0
 20
0.0
 30
0.0
  3
_ARCHTICK
  1

  0
LWPOLYLINE
  5
77
330
74
100
AcDbEntity
  8
0
  6
BYBLOCK
 62
0
100
AcDbPolyline
 90
2
 70
0
 43
0.15
 10
-0.5
 20
-0.5
 10
0.5
 20
0.5
  0
ENDBLK
  5
76
330
74
100
AcDbEntity
  8
0
100
AcDbBlockEnd
  0
BLOCK
  5
79
330
78
100
AcDbEntity
  8
0
100
AcDbBlockBegin
  2
_CLOSEDFILLED
 70
0
 10
0.0
 20
0.0
 30
0.0
  3
_CLOSEDFILLED
  1

  0
SOLID
  5
7B
330
78
100
AcDbEntity
  8
0
  6
BYBLOCK
 62
0
100
AcDbTrace
 10
-1.0
 20
0.16439898372402537
 30
0.0
 11
0.0
 21
0.0
 31
0.0
 12
-1.0
 22
-0.16439898372402537
 32
0.0
 13
-1.0
 23
-0.16439898372402537
 33
0.0
  0
ENDBLK
  5
7A
330
78
100
AcDbEntity
  8
0
100
AcDbBlockEnd
  0
BLOCK
  5
85
330
84
100
AcDbEntity
  8
0
100
AcDbBlockBegin
  2
_CLOSEDBLANK
 70
0
 10
0.0
 20
0.0
 30
0.0
  3
_CLOSEDBLANK
  1

  0
LWPOLYLINE
  5
87
330
84
100
AcDbEntity
  8
0
  6
BYBLOCK
 62
0
100
AcDbPolyline
 90
3
 70
1
 10
-1.0
 20
0.16439898372402537
 10
0.0
 20
0.0
 10
-1.0
 20
-0.16439898372402537
  0
ENDBLK
  5
86
330
84
100
AcDbEntity
  8
0
100
AcDbBlockEnd
  0
ENDSEC
  0
SECTION
  2
ENTITIES
  0
LWPOLYLINE
  5
8C
330
17
100
AcDbEntity
  8
Right wall elevation
100
AcDbPolyline
 90
5
 70
0
 10
16.92913385826772
 20
4.015748031496059
 10
164.92125984251967
 20
4.015748031496059
 10
164.92125984251967
 20
0.0
 10
16.92913385826772
 20
0.0
 10
16.92913385826772
 20
4.015748031496059
  0
LINE
  5
8D
330
17
100
AcDbEntity
  8
Right wall elevation
100
AcDbLine
 10
16.929133858267715
 20
3.031496062992126
 30
0.0
 11
164.92125984251967
 21
3.031496062992126
 31
0.0
  0
LWPOLYLINE
  5
8E
330
17
100
AcDbEntity
  8
Right wall elevation
100
AcDbPolyline
 90
5
 70
0
 10
206.96850393700785
 20
4.015748031496059
 10
232.91338582677164
 20
4.015748031496059
 10
232.91338582677164
 20
0.0
 10
206.96850393700785
 20
0.0
 10
206.96850393700785
 20
4.015748031496059
  0
LINE
  5
8F
330
17
100
AcDbEntity
  8
Right wall elevation
100
AcDbLine
 10
206.96850393700788
 20
3.031496062992126
 30
0.0
 11
232.91338582677164
 21
3.031496062992126
 31
0.0
  0
LWPOLYLINE
  5
90
330
17
100
AcDbEntity
  8
Right wall elevation
100
AcDbPolyline
 90
5
 70
0
 10
5.905511811023622
 20
25.433070866141733
 10
16.92913385826772
 20
25.433070866141733
 10
16.92913385826772
 20
0.0
 10
5.905511811023622
 20
0.0
 10
5.905511811023622
 20
25.433070866141733
  0
LWPOLYLINE
  5
91
330
17
100
AcDbEntity
  8
Right wall elevation
100
AcDbPolyline
 90
5
 70
0
 10
7.480314960629921
 20
23.858267716535437
 10
15.354330708661417
 20
23.858267716535437
 10
15.354330708661417
 20
1.5748031496062964
 10
7.480314960629921
 20
1.5748031496062964
 10
7.480314960629921
 20
23.858267716535437
  0
LWPOLYLINE
  5
92
330
17
100
AcDbEntity
  8
Right wall elevation
100
AcDbPolyline
 90
5
 70
0
 10
5.905511811023622
 20
27.00787401574803
 10
164.92125984251967
 20
27.00787401574803
 10
164.92125984251967
 20
25.433070866141733
 10
5.905511811023622
 20
25.433070866141733
 10
5.905511811023622
 20
27.00787401574803
  0
LINE
  5
93
330
17
100
AcDbEntity
  8
Right wall elevation
100
AcDbLine
 10
5.905511811023622
 20
25.826771653543307
 30
0.0
 11
164.92125984251967
 21
25.826771653543307
 31
0.0
  0
LINE
  5
94
330
17
100
AcDbEntity
  8
Right wall elevation
100
AcDbLine
 10
5.905511811023622
 20
26.22047244094488
 30
0.0
 11
164.92125984251967
 21
26.22047244094488
 31
0.0
  0
LINE
  5
95
330
17
100
AcDbEntity
  8
Right wall elevation
100
AcDbLine
 10
5.905511811023622
 20
26.614173228346456
 30
0.0
 11
164.92125984251967
 21
26.614173228346456
 31
0.0
  0
LWPOLYLINE
  5
96
330
17
100
AcDbEntity
  8
Right wall elevation
100
AcDbPolyline
 90
5
 70
0
 10
206.96850393700785
 20
27.00787401574803
 10
232.91338582677164
 20
27.00787401574803
 10
232.91338582677164
 20
25.433070866141733
 10
206.96850393700785
 20
25.433070866141733
 10
206.96850393700785
 20
27.00787401574803
  0
LINE
  5
97
330
17
100
AcDbEntity
  8
Right wall elevation
100
AcDbLine
 10
206.96850393700788
 20
25.826771653543307
 30
0.0
 11
232.91338582677164
 21
25.826771653543307
 31
0.0
  0
LINE
  5
98
330
17
100
AcDbEntity
  8
Right wall elevation
100
AcDbLine
 10
206.96850393700788
 20
26.22047244094488
 30
0.0
 11
232.91338582677164
 21
26.22047244094488
 31
0.0
  0
LINE
  5
99
330
17
100
AcDbEntity
  8
Right wall elevation
100
AcDbLine
 10
206.96850393700788
 20
26.614173228346456
 30
0.0
 11
232.91338582677164
 21
26.614173228346456
 31
0.0
  0
LWPOLYLINE
  5
9A
330
17
100
AcDbEntity
  8
Right wall elevation
100
AcDbPolyline
 90
5
 70
0
 10
22.834645669291337
 20
21.496062992125985
 10
45.740157480314956
 20
21.496062992125985
 10
45.740157480314956
 20
8.346456692913378
 10
22.834645669291337
 20
8.346456692913378
 10
22.834645669291337
 20
21.496062992125985
  0
LWPOLYLINE
  5
9B
330
17
100
AcDbEntity
  8
Right wall elevation
100
AcDbPolyline
 90
5
 70
0
 10
23.543307086614174
 20
20.78740157480314
 10
45.031496062992126
 20
20.78740157480314
 10
45.031496062992126
 20
9.055118110236222
 10
23.543307086614174
 20
9.055118110236222
 10
23.543307086614174
 20
20.78740157480314
  0
LWPOLYLINE
  5
9C
330
17
100
AcDbEntity
  8
Right wall elevation
100
AcDbPolyline
 90
5
 70
0
 10
24.173228346456693
 20
20.157480314960623
 10
44.40157480314961
 20
20.157480314960623
 10
44.40157480314961
 20
9.68503937007874
 10
24.173228346456693
 20
9.68503937007874
 10
24.173228346456693
 20
20.157480314960623
  0
LWPOLYLINE
  5
9D
330
17
100
AcDbEntity
  8
Right wall elevation
100
AcDbPolyline
 90
5
 70
0
 10
25.0
 20
19.33070866141732
 10
43.574803149606296
 20
19.33070866141732
 10
43.574803149606296
 20
10.511811023622045
 10
25.0
 20
10.511811023622045
 10
25.0
 20
19.33070866141732
  0
LWPOLYLINE
  5
9E
330
17
100
AcDbEntity
  8
Right wall elevation
100
AcDbPolyline
 90
5
 70
0
 10
22.834645669291337
 20
97.00787401574803
 10
45.740157480314956
 20
97.00787401574803
 10
45.740157480314956
 20
31.33858267716535
 10
22.834645669291337
 20
31.33858267716535
 10
22.834645669291337
 20
97.00787401574803
  0
LWPOLYLINE
  5
9F
330
17
100
AcDbEntity
  8
Right wall elevation
100
AcDbPolyline
 90
5
 70
0
 10
23.543307086614174
 20
96.29921259842519
 10
45.031496062992126
 20
96.29921259842519
 10
45.031496062992126
 20
32.04724409448819
 10
23.543307086614174
 20
32.04724409448819
 10
23.543307086614174
 20
96.29921259842519
  0
LWPOLYLINE
  5
A0
330
17
100
AcDbEntity
  8
Right wall elevation
100
AcDbPolyline
 90
5
 70
0
 10
24.173228346456693
 20
95.66929133858267
 10
44.40157480314961
 20
95.66929133858267
 10
44.40157480314961
 20
32.67716535433071
 10
24.173228346456693
 20
32.67716535433071
 10
24.173228346456693
 20
95.66929133858267
  0
LWPOLYLINE
  5
A1
330
17
100
AcDbEntity
  8
Right wall elevation
100
AcDbPolyline
 90
5
 70
0
 10
25.0
 20
94.84251968503936
 10
43.574803149606296
 20
94.84251968503936
 10
43.574803149606296
 20
33.503937007874015
 10
25.0
 20
33.503937007874015
 10
25.0
 20
94.84251968503936
  0
LWPOLYLINE
  5
A2
330
17
100
AcDbEntity
  8
Right wall elevation
100
AcDbPolyline
 90
5
 70
0
 10
51.64566929133858
 20
21.496062992125985
 10
74.5511811023622
 20
21.496062992125985
 10
74.5511811023622
 20
8.346456692913378
 10
51.64566929133858
 20
8.346456692913378
 10
51.64566929133858
 20
21.496062992125985
  0
LWPOLYLINE
  5
A3
330
17
100
AcDbEntity
  8
Right wall elevation
100
AcDbPolyline
 90
5
 70
0
 10
52.354330708661415
 20
20.78740157480314
 10
73.84251968503938
 20
20.78740157480314
 10
73.84251968503938
 20
9.055118110236222
 10
52.354330708661415
 20
9.055118110236222
 10
52.354330708661415
 20
20.78740157480314
  0
LWPOLYLINE
  5
A4
330
17
100
AcDbEntity
  8
Right wall elevation
100
AcDbPolyline
 90
5
 70
0
 10
52.98425196850393
 20
20.157480314960623
 10
73.21259842519686
 20
20.157480314960623
 10
73.21259842519686
 20
9.68503937007874
 10
52.98425196850393
 20
9.68503937007874
 10
52.98425196850393
 20
20.157480314960623
  0
LWPOLYLINE
  5
A5
330
17
100
AcDbEntity
  8
Right wall elevation
100
AcDbPolyline
 90
5
 70
0
 10
53.811023622047244
 20
19.33070866141732
 10
72.38582677165354
 20
19.33070866141732
 10
72.38582677165354
 20
10.511811023622045
 10
53.811023622047244
 20
10.511811023622045
 10
53.811023622047244
 20
19.33070866141732
  0
LWPOLYLINE
  5
A6
330
17
100
AcDbEntity
  8
Right wall elevation
100
AcDbPolyline
 90
5
 70
0
 10
51.64566929133858
 20
97.00787401574803
 10
74.5511811023622
 20
97.00787401574803
 10
74.5511811023622
 20
31.33858267716535
 10
51.64566929133858
 20
31.33858267716535
 10
51.64566929133858
 20
97.00787401574803
  0
LWPOLYLINE
  5
A7
330
17
100
AcDbEntity
  8
Right wall elevation
100
AcDbPolyline
 90
5
 70
0
 10
52.354330708661415
 20
96.29921259842519
 10
73.84251968503938
 20
96.29921259842519
 10
73.84251968503938
 20
32.04724409448819
 10
52.354330708661415
 20
32.04724409448819
 10
52.354330708661415
 20
96.29921259842519
  0
LWPOLYLINE
  5
A8
330
17
100
AcDbEntity
  8
Right wall elevation
100
AcDbPolyline
 90
5
 70
0
 10
52.98425196850393
 20
95.66929133858267
 10
73.21259842519686
 20
95.66929133858267
 10
73.21259842519686
 20
32.67716535433071
 10
52.98425196850393
 20
32.67716535433071
 10
52.98425196850393
 20
95.66929133858267
  0
LWPOLYLINE
  5
A9
330
17
100
AcDbEntity
  8
Right wall elevation
100
AcDbPolyline
 90
5
 70
0
 10
53.811023622047244
 20
94.84251968503936
 10
72.38582677165354
 20
94.84251968503936
 10
72.38582677165354
 20
33.503937007874015
 10
53.811023622047244
 20
33.503937007874015
 10
53.811023622047244
 20
94.84251968503936
  0
LWPOLYLINE
  5
AA
330
17
100
AcDbEntity
  8
Right wall elevation
100
AcDbPolyline
 90
5
 70
0
 10
80.45669291338581
 20
21.496062992125985
 10
103.36220472440942
 20
21.496062992125985
 10
103.36220472440942
 20
8.346456692913378
 10
80.45669291338581
 20
8.346456692913378
 10
80.45669291338581
 20
21.496062992125985
  0
LWPOLYLINE
  5
AB
330
17
100
AcDbEntity
  8
Right wall elevation
100
AcDbPolyline
 90
5
 70
0
 10
81.16535433070865
 20
20.78740157480314
 10
102.65354330708661
 20
20.78740157480314
 10
102.65354330708661
 20
9.055118110236222
 10
81.16535433070865
 20
9.055118110236222
 10
81.16535433070865
 20
20.78740157480314
  0
LWPOLYLINE
  5
AC
330
17
100
AcDbEntity
  8
Right wall elevation
100
AcDbPolyline
 90
5
 70
0
 10
81.79527559055117
 20
20.157480314960623
 10
102.02362204724409
 20
20.157480314960623
 10
102.02362204724409
 20
9.68503937007874
 10
81.79527559055117
 20
9.68503937007874
 10
81.79527559055117
 20
20.157480314960623
  0
LWPOLYLINE
  5
AD
330
17
100
AcDbEntity
  8
Right wall elevation
100
AcDbPolyline
 90
5
 70
0
 10
82.62204724409449
 20
19.33070866141732
 10
101.1968503937008
 20
19.33070866141732
 10
101.1968503937008
 20
10.511811023622045
 10
82.62204724409449
 20
10.511811023622045
 10
82.62204724409449
 20
19.33070866141732
  0
LWPOLYLINE
  5
AE
330
17
100
AcDbEntity
  8
Right wall elevation
100
AcDbPolyline
 90
5
 70
0
 10
80.45669291338581
 20
97.00787401574803
 10
103.36220472440942
 20
97.00787401574803
 10
103.36220472440942
 20
31.33858267716535
 10
80.45669291338581
 20
31.33858267716535
 10
80.45669291338581
 20
97.00787401574803
  0
LWPOLYLINE
  5
AF
330
17
100
AcDbEntity
  8
Right wall elevation
100
AcDbPolyline
 90
5
 70
0
 10
81.16535433070865
 20
96.29921259842519
 10
102.65354330708661
 20
96.29921259842519
 10
102.65354330708661
 20
32.04724409448819
 10
81.16535433070865
 20
32.04724409448819
 10
81.16535433070865
 20
96.29921259842519
  0
LWPOLYLINE
  5
B0
330
17
100
AcDbEntity
  8
Right wall elevation
100
AcDbPolyline
 90
5
 70
0
 10
81.79527559055117
 20
95.66929133858267
 10
102.02362204724409
 20
95.66929133858267
 10
102.02362204724409
 20
32.67716535433071
 10
81.79527559055117
 20
32.67716535433071
 10
81.79527559055117
 20
95.66929133858267
  0
LWPOLYLINE
  5
B1
330
17
100
AcDbEntity
  8
Right wall elevation
100
AcDbPolyline
 90
5
 70
0
 10
82.62204724409449
 20
94.84251968503936
 10
101.1968503937008
 20
94.84251968503936
 10
101.1968503937008
 20
33.503937007874015
 10
82.62204724409449
 20
33.503937007874015
 10
82.62204724409449
 20
94.84251968503936
  0
LWPOLYLINE
  5
B2
330
17
100
AcDbEntity
  8
Right wall elevation
100
AcDbPolyline
 90
5
 70
0
 10
109.26771653543307
 20
21.496062992125985
 10
132.17322834645668
 20
21.496062992125985
 10
132.17322834645668
 20
8.346456692913378
 10
109.26771653543307
 20
8.346456692913378
 10
109.26771653543307
 20
21.496062992125985
  0
LWPOLYLINE
  5
B3
330
17
100
AcDbEntity
  8
Right wall elevation
100
AcDbPolyline
 90
5
 70
0
 10
109.97637795275591
 20
20.78740157480314
 10
131.46456692913384
 20
20.78740157480314
 10
131.46456692913384
 20
9.055118110236222
 10
109.97637795275591
 20
9.055118110236222
 10
109.97637795275591
 20
20.78740157480314
  0
LWPOLYLINE
  5
B4
330
17
100
AcDbEntity
  8
Right wall elevation
100
AcDbPolyline
 90
5
 70
0
 10
110.60629921259843
 20
20.157480314960623
 10
130.83464566929132
 20
20.157480314960623
 10
130.83464566929132
 20
9.68503937007874
 10
110.60629921259843
 20
9.68503937007874
 10
110.60629921259843
 20
20.157480314960623
  0
LWPOLYLINE
  5
B5
330
17
100
AcDbEntity
  8
Right wall elevation
100
AcDbPolyline
 90
5
 70
0
 10
111.43307086614175
 20
19.33070866141732
 10
130.00787401574803
 20
19.33070866141732
 10
130.00787401574803
 20
10.511811023622045
 10
111.43307086614175
 20
10.511811023622045
 10
111.43307086614175
 20
19.33070866141732
  0
LWPOLYLINE
  5
B6
330
17
100
AcDbEntity
  8
Right wall elevation
100
AcDbPolyline
 90
5
 70
0
 10
109.26771653543307
 20
97.00787401574803
 10
132.17322834645668
 20
97.00787401574803
 10
132.17322834645668
 20
31.33858267716535
 10
109.26771653543307
 20
31.33858267716535
 10
109.26771653543307
 20
97.00787401574803
  0
LWPOLYLINE
  5
B7
330
17
100
AcDbEntity
  8
Right wall elevation
100
AcDbPolyline
 90
5
 70
0
 10
109.97637795275591
 20
96.29921259842519
 10
131.46456692913384
 20
96.29921259842519
 10
131.46456692913384
 20
32.04724409448819
 10
109.97637795275591
 20
32.04724409448819
 10
109.97637795275591
 20
96.29921259842519
  0
LWPOLYLINE
  5
B8
330
17
100
AcDbEntity
  8
Right wall elevation
100
AcDbPolyline
 90
5
 70
0
 10
110.60629921259843
 20
95.66929133858267
 10
130.83464566929132
 20
95.66929133858267
 10
130.83464566929132
 20
32.67716535433071
 10
110.60629921259843
 20
32.67716535433071
 10
110.60629921259843
 20
95.66929133858267
  0
LWPOLYLINE
  5
B9
330
17
100
AcDbEntity
  8
Right wall elevation
100
AcDbPolyline
 90
5
 70
0
 10
111.43307086614175
 20
94.84251968503936
 10
130.00787401574803
 20
94.84251968503936
 10
130.00787401574803
 20
33.503937007874015
 10
111.43307086614175
 20
33.503937007874015
 10
111.43307086614175
 20
94.84251968503936
  0
LWPOLYLINE
  5
BA
330
17
100
AcDbEntity
  8
Right wall elevation
100
AcDbPolyline
 90
5
 70
0
 10
138.0787401574803
 20
21.496062992125985
 10
160.98425196850394
 20
21.496062992125985
 10
160.98425196850394
 20
8.346456692913378
 10
138.0787401574803
 20
8.346456692913378
 10
138.0787401574803
 20
21.496062992125985
  0
LWPOLYLINE
  5
BB
330
17
100
AcDbEntity
  8
Right wall elevation
100
AcDbPolyline
 90
5
 70
0
 10
138.78740157480314
 20
20.78740157480314
 10
160.2755905511811
 20
20.78740157480314
 10
160.2755905511811
 20
9.055118110236222
 10
138.78740157480314
 20
9.055118110236222
 10
138.78740157480314
 20
20.78740157480314
  0
LWPOLYLINE
  5
BC
330
17
100
AcDbEntity
  8
Right wall elevation
100
AcDbPolyline
 90
5
 70
0
 10
139.41732283464566
 20
20.157480314960623
 10
159.64566929133858
 20
20.157480314960623
 10
159.64566929133858
 20
9.68503937007874
 10
139.41732283464566
 20
9.68503937007874
 10
139.41732283464566
 20
20.157480314960623
  0
LWPOLYLINE
  5
BD
330
17
100
AcDbEntity
  8
Right wall elevation
100
AcDbPolyline
 90
5
 70
0
 10
140.24409448818895
 20
19.33070866141732
 10
158.81889763779526
 20
19.33070866141732
 10
158.81889763779526
 20
10.511811023622045
 10
140.24409448818895
 20
10.511811023622045
 10
140.24409448818895
 20
19.33070866141732
  0
LWPOLYLINE
  5
BE
330
17
100
AcDbEntity
  8
Right wall elevation
100
AcDbPolyline
 90
5
 70
0
 10
138.0787401574803
 20
97.00787401574803
 10
160.98425196850394
 20
97.00787401574803
 10
160.98425196850394
 20
31.33858267716535
 10
138.0787401574803
 20
31.33858267716535
 10
138.0787401574803
 20
97.00787401574803
  0
LWPOLYLINE
  5
BF
330
17
100
AcDbEntity
  8
Right wall elevation
100
AcDbPolyline
 90
5
 70
0
 10
138.78740157480314
 20
96.29921259842519
 10
160.2755905511811
 20
96.29921259842519
 10
160.2755905511811
 20
32.04724409448819
 10
138.78740157480314
 20
32.04724409448819
 10
138.78740157480314
 20
96.29921259842519
  0
LWPOLYLINE
  5
C0
330
17
100
AcDbEntity
  8
Right wall elevation
100
AcDbPolyline
 90
5
 70
0
 10
139.41732283464566
 20
95.66929133858267
 10
159.64566929133858
 20
95.66929133858267
 10
159.64566929133858
 20
32.67716535433071
 10
139.41732283464566
 20
32.67716535433071
 10
139.41732283464566
 20
95.66929133858267
  0
LWPOLYLINE
  5
C1
330
17
100
AcDbEntity
  8
Right wall elevation
100
AcDbPolyline
 90
5
 70
0
 10
140.24409448818895
 20
94.84251968503936
 10
158.81889763779526
 20
94.84251968503936
 10
158.81889763779526
 20
33.503937007874015
 10
140.24409448818895
 20
33.503937007874015
 10
140.24409448818895
 20
94.84251968503936
  0
LWPOLYLINE
  5
C2
330
17
100
AcDbEntity
  8
Right wall elevation
100
AcDbPolyline
 90
5
 70
0
 10
210.90551181102362
 20
21.496062992125985
 10
228.97637795275588
 20
21.496062992125985
 10
228.97637795275588
 20
8.346456692913378
 10
210.90551181102362
 20
8.346456692913378
 10
210.90551181102362
 20
21.496062992125985
  0
LWPOLYLINE
  5
C3
330
17
100
AcDbEntity
  8
Right wall elevation
100
AcDbPolyline
 90
5
 70
0
 10
211.61417322834646
 20
20.78740157480314
 10
228.26771653543307
 20
20.78740157480314
 10
228.26771653543307
 20
9.055118110236222
 10
211.61417322834646
 20
9.055118110236222
 10
211.61417322834646
 20
20.78740157480314
  0
LWPOLYLINE
  5
C4
330
17
100
AcDbEntity
  8
Right wall elevation
100
AcDbPolyline
 90
5
 70
0
 10
212.24409448818898
 20
20.157480314960623
 10
227.63779527559055
 20
20.157480314960623
 10
227.63779527559055
 20
9.68503937007874
 10
212.24409448818898
 20
9.68503937007874
 10
212.24409448818898
 20
20.157480314960623
  0
LWPOLYLINE
  5
C5
330
17
100
AcDbEntity
  8
Right wall elevation
100
AcDbPolyline
 90
5
 70
0
 10
213.07086614173227
 20
19.33070866141732
 10
226.81102362204723
 20
19.33070866141732
 10
226.81102362204723
 20
10.511811023622045
 10
213.07086614173227
 20
10.511811023622045
 10
213.07086614173227
 20
19.33070866141732
  0
LWPOLYLINE
  5
C6
330
17
100
AcDbEntity
  8
Right wall elevation
100
AcDbPolyline
 90
5
 70
0
 10
210.90551181102362
 20
97.00787401574803
 10
228.97637795275588
 20
97.00787401574803
 10
228.97637795275588
 20
31.33858267716535
 10
210.90551181102362
 20
31.33858267716535
 10
210.90551181102362
 20
97.00787401574803
  0
LWPOLYLINE
  5
C7
330
17
100
AcDbEntity
  8
Right wall elevation
100
AcDbPolyline
 90
5
 70
0
 10
211.61417322834646
 20
96.29921259842519
 10
228.26771653543307
 20
96.29921259842519
 10
228.26771653543307
 20
32.04724409448819
 10
211.61417322834646
 20
32.04724409448819
 10
211.61417322834646
 20
96.29921259842519
  0
LWPOLYLINE
  5
C8
330
17
100
AcDbEntity
  8
Right wall elevation
100
AcDbPolyline
 90
5
 70
0
 10
212.24409448818898
 20
95.66929133858267
 10
227.63779527559055
 20
95.66929133858267
 10
227.63779527559055
 20
32.67716535433071
 10
212.24409448818898
 20
32.67716535433071
 10
212.24409448818898
 20
95.66929133858267
  0
LWPOLYLINE
  5
C9
330
17
100
AcDbEntity
  8
Right wall elevation
100
AcDbPolyline
 90
5
 70
0
 10
213.07086614173227
 20
94.84251968503936
 10
226.81102362204723
 20
94.84251968503936
 10
226.81102362204723
 20
33.503937007874015
 10
213.07086614173227
 20
33.503937007874015
 10
213.07086614173227
 20
94.84251968503936
  0
SPLINE
  5
CA
330
17
100
AcDbEntity
  8
Right wall elevation
100
AcDbSpline
 70
0
 71
3
 72
41
 73
37
 74
0
 40
0.0
 40
0.0
 40
0.0
 40
0.0
 40
1.0
 40
1.0
 40
1.0
 40
2.0
 40
2.0
 40
2.0
 40
3.0
 40
3.0
 40
3.0
 40
4.0
 40
4.0
 40
4.0
 40
5.0
 40
5.0
 40
5.0
 40
6.0
 40
6.0
 40
6.0
 40
7.0
 40
7.0
 40
7.0
 40
8.0
 40
8.0
 40
8.0
 40
9.0
 40
9.0
 40
9.0
 40
10.0
 40
10.0
 40
10.0
 40
11.0
 40
11.0
 40
11.0
 40
12.0
 40
12.0
 40
12.0
 40
12.0
 10
35.389763779527556
 20
50.78740157480315
 30
0.0
 10
35.389763779527556
 20
50.37277890918886
 30
0.0
 10
35.338820536909644
 20
49.96537297400523
 30
0.0
 10
35.24207524826631
 20
49.60629921259842
 30
0.0
 10
35.14532995962298
 20
49.24722545119162
 30
0.0
 10
35.006150432488525
 20
48.948983607332096
 30
0.0
 10
34.83858267716535
 20
48.741672274524944
 30
0.0
 10
34.67101492184218
 20
48.53436094171779
 30
0.0
 10
34.48089215208982
 20
48.4251968503937
 30
0.0
 10
34.28740157480315
 20
48.4251968503937
 30
0.0
 10
34.093910997516474
 20
48.4251968503937
 30
0.0
 10
33.90378822776412
 20
48.53436094171779
 30
0.0
 10
33.73622047244095
 20
48.741672274524944
 30
0.0
 10
33.56865271711777
 20
48.948983607332096
 30
0.0
 10
33.42947318998332
 20
49.24722545119162
 30
0.0
 10
33.332727901339986
 20
49.60629921259842
 30
0.0
 10
33.23598261269665
 20
49.96537297400523
 30
0.0
 10
33.18503937007874
 20
50.37277890918886
 30
0.0
 10
33.18503937007874
 20
50.78740157480315
 30
0.0
 10
33.18503937007874
 20
51.20202424041744
 30
0.0
 10
33.23598261269665
 20
51.60943017560107
 30
0.0
 10
33.332727901339986
 20
51.968503937007874
 30
0.0
 10
33.42947318998332
 20
52.32757769841467
 30
0.0
 10
33.56865271711777
 20
52.6258195422742
 30
0.0
 10
33.73622047244095
 20
52.833130875081345
 30
0.0
 10
33.90378822776412
 20
53.040442207888496
 30
0.0
 10
34.093910997516474
 20
53.14960629921259
 30
0.0
 10
34.28740157480315
 20
53.14960629921259
 30
0.0
 10
34.48089215208982
 20
53.14960629921259
 30
0.0
 10
34.67101492184218
 20
53.040442207888496
 30
0.0
 10
34.83858267716535
 20
52.833130875081345
 30
0.0
 10
35.006150432488525
 20
52.6258195422742
 30
0.0
 10
35.14532995962298
 20
52.32757769841467
 30
0.0
 10
35.24207524826631
 20
51.968503937007874
 30
0.0
 10
35.338820536909644
 20
51.60943017560107
 30
0.0
 10
35.389763779527556
 20
51.20202424041744
 30
0.0
 10
35.389763779527556
 20
50.78740157480315
 30
0.0
  0
SPLINE
  5
CB
330
17
100
AcDbEntity
  8
Right wall elevation
100
AcDbSpline
 70
0
 71
3
 72
41
 73
37
 74
0
 40
0.0
 40
0.0
 40
0.0
 40
0.0
 40
1.0
 40
1.0
 40
1.0
 40
2.0
 40
2.0
 40
2.0
 40
3.0
 40
3.0
 40
3.0
 40
4.0
 40
4.0
 40
4.0
 40
5.0
 40
5.0
 40
5.0
 40
6.0
 40
6.0
 40
6.0
 40
7.0
 40
7.0
 40
7.0
 40
8.0
 40
8.0
 40
8.0
 40
9.0
 40
9.0
 40
9.0
 40
10.0
 40
10.0
 40
10.0
 40
11.0
 40
11.0
 40
11.0
 40
12.0
 40
12.0
 40
12.0
 40
12.0
 10
34.996062992125985
 20
50.78740157480315
 30
0.0
 10
34.996062992125985
 20
50.48334495335267
 30
0.0
 10
34.96331376472875
 20
50.184580600884665
 30
0.0
 10
34.90112036488661
 20
49.92125984251968
 30
0.0
 10
34.838926965044465
 20
49.6579390841547
 30
0.0
 10
34.7494544118866
 20
49.439228398657704
 30
0.0
 10
34.64173228346456
 20
49.28720008793246
 30
0.0
 10
34.53401015504252
 20
49.135171777207226
 30
0.0
 10
34.411788374487436
 20
49.055118110236215
 30
0.0
 10
34.28740157480315
 20
49.055118110236215
 30
0.0
 10
34.16301477511886
 20
49.055118110236215
 30
0.0
 10
34.04079299456377
 20
49.135171777207226
 30
0.0
 10
33.93307086614173
 20
49.28720008793246
 30
0.0
 10
33.82534873771969
 20
49.439228398657704
 30
0.0
 10
33.73587618456183
 20
49.6579390841547
 30
0.0
 10
33.67368278471969
 20
49.92125984251968
 30
0.0
 10
33.611489384877544
 20
50.184580600884665
 30
0.0
 10
33.57874015748031
 20
50.48334495335267
 30
0.0
 10
33.57874015748031
 20
50.78740157480315
 30
0.0
 10
33.57874015748031
 20
51.091458196253626
 30
0.0
 10
33.611489384877544
 20
51.390222548721624
 30
0.0
 10
33.67368278471969
 20
51.653543307086615
 30
0.0
 10
33.73587618456183
 20
51.9168640654516
 30
0.0
 10
33.82534873771969
 20
52.13557475094859
 30
0.0
 10
33.93307086614173
 20
52.28760306167383
 30
0.0
 10
34.04079299456377
 20
52.43963137239907
 30
0.0
 10
34.16301477511886
 20
52.519685039370074
 30
0.0
 10
34.28740157480315
 20
52.519685039370074
 30
0.0
 10
34.411788374487436
 20
52.519685039370074
 30
0.0
 10
34.53401015504252
 20
52.43963137239907
 30
0.0
 10
34.64173228346456
 20
52.28760306167383
 30
0.0
 10
34.7494544118866
 20
52.13557475094859
 30
0.0
 10
34.838926965044465
 20
51.9168640654516
 30
0.0
 10
34.90112036488661
 20
51.653543307086615
 30
0.0
 10
34.96331376472875
 20
51.390222548721624
 30
0.0
 10
34.996062992125985
 20
51.091458196253626
 30
0.0
 10
34.996062992125985
 20
50.78740157480315
 30
0.0
  0
CIRCLE
  5
CC
330
17
100
AcDbEntity
  8
Right wall elevation
100
AcDbCircle
 10
34.28740157480315
 20
50.78740157480315
 30
0.0
 40
9.0
  0
SPLINE
  5
CD
330
17
100
AcDbEntity
  8
Right wall elevation
100
AcDbSpline
 70
0
 71
3
 72
8
 73
4
 74
0
 40
0.0
 40
0.0
 40
0.0
 40
0.0
 40
1.0
 40
1.0
 40
1.0
 40
1.0
 10
33.81496062992126
 20
50.39370078740157
 30
0.0
 10
31.531496062992126
 20
47.63779527559055
 30
0.0
 10
28.7755905511811
 20
48.818897637795274
 30
0.0
 10
28.381889763779526
 20
51.574803149606296
 30
0.0
  0
SPLINE
  5
CE
330
17
100
AcDbEntity
  8
Right wall elevation
100
AcDbSpline
 70
0
 71
3
 72
8
 73
4
 74
0
 40
0.0
 40
0.0
 40
0.0
 40
0.0
 40
1.0
 40
1.0
 40
1.0
 40
1.0
 10
33.81496062992126
 20
50.0
 30
0.0
 10
31.9251968503937
 20
47.95275590551181
 30
0.0
 10
29.011811023622045
 20
49.055118110236215
 30
0.0
 10
28.539370078740156
 20
51.33858267716535
 30
0.0
  0
SPLINE
  5
CF
330
17
100
AcDbEntity
  8
Right wall elevation
100
AcDbSpline
 70
0
 71
3
 72
8
 73
4
 74
0
 40
0.0
 40
0.0
 40
0.0
 40
0.0
 40
1.0
 40
1.0
 40
1.0
 40
1.0
 10
27.358267716535433
 20
51.574803149606296
 30
0.0
 10
28.04068241469816
 20
51.10236220472441
 30
0.0
 10
28.72309711286089
 20
51.10236220472441
 30
0.0
 10
29.405511811023622
 20
51.574803149606296
 30
0.0
  0
POLYLINE
  5
D0
330
17
100
AcDbEntity
  8
Right wall elevation
100
AcDb2dPolyline
 66
1
 10
0.0
 20
0.0
 30
0.0
 70
0
  0
VERTEX
  5
D1
330
D0
100
AcDbEntity
  8
Right wall elevation
100
AcDbVertex
100
AcDb2dVertex
 10
29.405511811023622
 20
51.574803149606296
 30
0.0
 70
0
  0
VERTEX
  5
D2
330
D0
100
AcDbEntity
  8
Right wall elevation
100
AcDbVertex
100
AcDb2dVertex
 10
29.09055118110236
 20
52.204724409448815
 30
0.0
 70
0
  0
VERTEX
  5
D3
330
D0
100
AcDbEntity
  8
Right wall elevation
100
AcDbVertex
100
AcDb2dVertex
 10
27.673228346456693
 20
52.204724409448815
 30
0.0
 70
0
  0
VERTEX
  5
D4
330
D0
100
AcDbEntity
  8
Right wall elevation
100
AcDbVertex
100
AcDb2dVertex
 10
27.358267716535433
 20
51.574803149606296
 30
0.0
 70
0
  0
SEQEND
  5
D5
330
D0
100
AcDbEntity
  8
Right wall elevation
  0
LWPOLYLINE
  5
D6
330
17
100
AcDbEntity
  8
Right wall elevation
100
AcDbPolyline
 90
5
 70
0
 10
28.066929133858267
 20
54.33070866141732
 10
28.696850393700785
 20
54.33070866141732
 10
28.696850393700785
 20
52.204724409448815
 10
28.066929133858267
 20
52.204724409448815
 10
28.066929133858267
 20
54.33070866141732
  0
LWPOLYLINE
  5
D7
330
17
100
AcDbEntity
  8
Right wall elevation
100
AcDbPolyline
 90
5
 70
0
 10
26.019685039370078
 20
54.33070866141732
 10
30.744094488188974
 20
54.33070866141732
 10
29.799212598425196
 20
58.26771653543307
 10
26.964566929133856
 20
58.26771653543307
 10
26.019685039370078
 20
54.33070866141732
  0
LINE
  5
D8
330
17
100
AcDbEntity
  8
Right wall elevation
100
AcDbLine
 10
26.807086614173226
 20
54.40944881889764
 30
0.0
 11
27.437007874015748
 21
58.188976377952756
 31
0.0
  0
LINE
  5
D9
330
17
100
AcDbEntity
  8
Right wall elevation
100
AcDbLine
 10
27.594488188976378
 20
54.40944881889764
 30
0.0
 11
27.909448818897637
 21
58.188976377952756
 31
0.0
  0
LINE
  5
DA
330
17
100
AcDbEntity
  8
Right wall elevation
100
AcDbLine
 10
28.381889763779526
 20
54.40944881889764
 30
0.0
 11
28.381889763779526
 21
58.188976377952756
 31
0.0
  0
LINE
  5
DB
330
17
100
AcDbEntity
  8
Right wall elevation
100
AcDbLine
 10
29.169291338582674
 20
54.40944881889764
 30
0.0
 11
28.854330708661415
 21
58.188976377952756
 31
0.0
  0
LINE
  5
DC
330
17
100
AcDbEntity
  8
Right wall elevation
100
AcDbLine
 10
29.956692913385826
 20
54.40944881889764
 30
0.0
 11
29.326771653543307
 21
58.188976377952756
 31
0.0
  0
SPLINE
  5
DD
330
17
100
AcDbEntity
  8
Right wall elevation
100
AcDbSpline
 70
0
 71
3
 72
8
 73
4
 74
0
 40
0.0
 40
0.0
 40
0.0
 40
0.0
 40
1.0
 40
1.0
 40
1.0
 40
1.0
 10
34.75984251968504
 20
50.39370078740157
 30
0.0
 10
37.04330708661417
 20
47.63779527559055
 30
0.0
 10
39.79921259842519
 20
48.818897637795274
 30
0.0
 10
40.19291338582677
 20
51.574803149606296
 30
0.0
  0
SPLINE
  5
DE
330
17
100
AcDbEntity
  8
Right wall elevation
100
AcDbSpline
 70
0
 71
3
 72
8
 73
4
 74
0
 40
0.0
 40
0.0
 40
0.0
 40
0.0
 40
1.0
 40
1.0
 40
1.0
 40
1.0
 10
34.75984251968504
 20
50.0
 30
0.0
 10
36.64960629921259
 20
47.95275590551181
 30
0.0
 10
39.56299212598425
 20
49.055118110236215
 30
0.0
 10
40.03543307086614
 20
51.33858267716535
 30
0.0
  0
SPLINE
  5
DF
330
17
100
AcDbEntity
  8
Right wall elevation
100
AcDbSpline
 70
0
 71
3
 72
8
 73
4
 74
0
 40
0.0
 40
0.0
 40
0.0
 40
0.0
 40
1.0
 40
1.0
 40
1.0
 40
1.0
 10
39.169291338582674
 20
51.574803149606296
 30
0.0
 10
39.851706036745405
 20
51.10236220472441
 30
0.0
 10
40.534120734908136
 20
51.10236220472441
 30
0.0
 10
41.21653543307087
 20
51.574803149606296
 30
0.0
  0
POLYLINE
  5
E0
330
17
100
AcDbEntity
  8
Right wall elevation
100
AcDb2dPolyline
 66
1
 10
0.0
 20
0.0
 30
0.0
 70
0
  0
VERTEX
  5
E1
330
E0
100
AcDbEntity
  8
Right wall elevation
100
AcDbVertex
100
AcDb2dVertex
 10
41.21653543307087
 20
51.574803149606296
 30
0.0
 70
0
  0
VERTEX
  5
E2
330
E0
100
AcDbEntity
  8
Right wall elevation
100
AcDbVertex
100
AcDb2dVertex
 10
40.90157480314961
 20
52.204724409448815
 30
0.0
 70
0
  0
VERTEX
  5
E3
330
E0
100
AcDbEntity
  8
Right wall elevation
100
AcDbVertex
100
AcDb2dVertex
 10
39.48425196850393
 20
52.204724409448815
 30
0.0
 70
0
  0
VERTEX
  5
E4
330
E0
100
AcDbEntity
  8
Right wall elevation
100
AcDbVertex
100
AcDb2dVertex
 10
39.169291338582674
 20
51.574803149606296
 30
0.0
 70
0
  0
SEQEND
  5
E5
330
E0
100
AcDbEntity
  8
Right wall elevation
  0
LWPOLYLINE
  5
E6
330
17
100
AcDbEntity
  8
Right wall elevation
100
AcDbPolyline
 90
5
 70
0
 10
39.87795275590551
 20
54.33070866141732
 10
40.50787401574803
 20
54.33070866141732
 10
40.50787401574803
 20
52.204724409448815
 10
39.87795275590551
 20
52.204724409448815
 10
39.87795275590551
 20
54.33070866141732
  0
LWPOLYLINE
  5
E7
330
17
100
AcDbEntity
  8
Right wall elevation
100
AcDbPolyline
 90
5
 70
0
 10
37.83070866141732
 20
54.33070866141732
 10
42.55511811023622
 20
54.33070866141732
 10
41.61023622047244
 20
58.26771653543307
 10
38.775590551181104
 20
58.26771653543307
 10
37.83070866141732
 20
54.33070866141732
  0
LINE
  5
E8
330
17
100
AcDbEntity
  8
Right wall elevation
100
AcDbLine
 10
38.618110236220474
 20
54.40944881889764
 30
0.0
 11
39.24803149606299
 21
58.188976377952756
 31
0.0
  0
LINE
  5
E9
330
17
100
AcDbEntity
  8
Right wall elevation
100
AcDbLine
 10
39.40551181102362
 20
54.40944881889764
 30
0.0
 11
39.72047244094488
 21
58.188976377952756
 31
0.0
  0
LINE
  5
EA
330
17
100
AcDbEntity
  8
Right wall elevation
100
AcDbLine
 10
40.19291338582677
 20
54.40944881889764
 30
0.0
 11
40.19291338582677
 21
58.188976377952756
 31
0.0
  0
LINE
  5
EB
330
17
100
AcDbEntity
  8
Right wall elevation
100
AcDbLine
 10
40.980314960629926
 20
54.40944881889764
 30
0.0
 11
40.66535433070867
 21
58.188976377952756
 31
0.0
  0
LINE
  5
EC
330
17
100
AcDbEntity
  8
Right wall elevation
100
AcDbLine
 10
41.767716535433074
 20
54.40944881889764
 30
0.0
 11
41.137795275590555
 21
58.188976377952756
 31
0.0
  0
SPLINE
  5
ED
330
17
100
AcDbEntity
  8
Right wall elevation
100
AcDbSpline
 70
0
 71
3
 72
41
 73
37
 74
0
 40
0.0
 40
0.0
 40
0.0
 40
0.0
 40
1.0
 40
1.0
 40
1.0
 40
2.0
 40
2.0
 40
2.0
 40
3.0
 40
3.0
 40
3.0
 40
4.0
 40
4.0
 40
4.0
 40
5.0
 40
5.0
 40
5.0
 40
6.0
 40
6.0
 40
6.0
 40
7.0
 40
7.0
 40
7.0
 40
8.0
 40
8.0
 40
8.0
 40
9.0
 40
9.0
 40
9.0
 40
10.0
 40
10.0
 40
10.0
 40
11.0
 40
11.0
 40
11.0
 40
12.0
 40
12.0
 40
12.0
 40
12.0
 10
93.01181102362204
 20
50.78740157480315
 30
0.0
 10
93.01181102362204
 20
50.37277890918886
 30
0.0
 10
92.96086778100411
 20
49.96537297400523
 30
0.0
 10
92.86412249236079
 20
49.60629921259842
 30
0.0
 10
92.76737720371747
 20
49.24722545119162
 30
0.0
 10
92.628197676583
 20
48.948983607332096
 30
0.0
 10
92.46062992125985
 20
48.741672274524944
 30
0.0
 10
92.29306216593668
 20
48.53436094171779
 30
0.0
 10
92.10293939618433
 20
48.4251968503937
 30
0.0
 10
91.90944881889763
 20
48.4251968503937
 30
0.0
 10
91.71595824161096
 20
48.4251968503937
 30
0.0
 10
91.52583547185861
 20
48.53436094171779
 30
0.0
 10
91.35826771653544
 20
48.741672274524944
 30
0.0
 10
91.19069996121226
 20
48.948983607332096
 30
0.0
 10
91.05152043407782
 20
49.24722545119162
 30
0.0
 10
90.95477514543447
 20
49.60629921259842
 30
0.0
 10
90.85802985679115
 20
49.96537297400523
 30
0.0
 10
90.80708661417322
 20
50.37277890918886
 30
0.0
 10
90.80708661417322
 20
50.78740157480315
 30
0.0
 10
90.80708661417322
 20
51.20202424041744
 30
0.0
 10
90.85802985679115
 20
51.60943017560107
 30
0.0
 10
90.95477514543447
 20
51.968503937007874
 30
0.0
 10
91.05152043407782
 20
52.32757769841467
 30
0.0
 10
91.19069996121226
 20
52.6258195422742
 30
0.0
 10
91.35826771653544
 20
52.833130875081345
 30
0.0
 10
91.52583547185861
 20
53.040442207888496
 30
0.0
 10
91.71595824161096
 20
53.14960629921259
 30
0.0
 10
91.90944881889763
 20
53.14960629921259
 30
0.0
 10
92.10293939618433
 20
53.14960629921259
 30
0.0
 10
92.29306216593668
 20
53.040442207888496
 30
0.0
 10
92.46062992125985
 20
52.833130875081345
 30
0.0
 10
92.628197676583
 20
52.6258195422742
 30
0.0
 10
92.76737720371747
 20
52.32757769841467
 30
0.0
 10
92.86412249236079
 20
51.968503937007874
 30
0.0
 10
92.96086778100411
 20
51.60943017560107
 30
0.0
 10
93.01181102362204
 20
51.20202424041744
 30
0.0
 10
93.01181102362204
 20
50.78740157480315
 30
0.0
  0
SPLINE
  5
EE
330
17
100
AcDbEntity
  8
Right wall elevation
100
AcDbSpline
 70
0
 71
3
 72
41
 73
37
 74
0
 40
0.0
 40
0.0
 40
0.0
 40
0.0
 40
1.0
 40
1.0
 40
1.0
 40
2.0
 40
2.0
 40
2.0
 40
3.0
 40
3.0
 40
3.0
 40
4.0
 40
4.0
 40
4.0
 40
5.0
 40
5.0
 40
5.0
 40
6.0
 40
6.0
 40
6.0
 40
7.0
 40
7.0
 40
7.0
 40
8.0
 40
8.0
 40
8.0
 40
9.0
 40
9.0
 40
9.0
 40
10.0
 40
10.0
 40
10.0
 40
11.0
 40
11.0
 40
11.0
 40
12.0
 40
12.0
 40
12.0
 40
12.0
 10
92.61811023622047
 20
50.78740157480315
 30
0.0
 10
92.61811023622047
 20
50.48334495335267
 30
0.0
 10
92.58536100882324
 20
50.184580600884665
 30
0.0
 10
92.52316760898108
 20
49.92125984251968
 30
0.0
 10
92.46097420913895
 20
49.6579390841547
 30
0.0
 10
92.37150165598109
 20
49.439228398657704
 30
0.0
 10
92.26377952755905
 20
49.28720008793246
 30
0.0
 10
92.15605739913701
 20
49.135171777207226
 30
0.0
 10
92.03383561858192
 20
49.055118110236215
 30
0.0
 10
91.90944881889763
 20
49.055118110236215
 30
0.0
 10
91.78506201921334
 20
49.055118110236215
 30
0.0
 10
91.66284023865828
 20
49.135171777207226
 30
0.0
 10
91.55511811023621
 20
49.28720008793246
 30
0.0
 10
91.44739598181417
 20
49.439228398657704
 30
0.0
 10
91.35792342865633
 20
49.6579390841547
 30
0.0
 10
91.29573002881418
 20
49.92125984251968
 30
0.0
 10
91.23353662897205
 20
50.184580600884665
 30
0.0
 10
91.20078740157481
 20
50.48334495335267
 30
0.0
 10
91.20078740157481
 20
50.78740157480315
 30
0.0
 10
91.20078740157481
 20
51.091458196253626
 30
0.0
 10
91.23353662897205
 20
51.390222548721624
 30
0.0
 10
91.29573002881418
 20
51.653543307086615
 30
0.0
 10
91.35792342865633
 20
51.9168640654516
 30
0.0
 10
91.44739598181417
 20
52.13557475094859
 30
0.0
 10
91.55511811023621
 20
52.28760306167383
 30
0.0
 10
91.66284023865828
 20
52.43963137239907
 30
0.0
 10
91.78506201921334
 20
52.519685039370074
 30
0.0
 10
91.90944881889763
 20
52.519685039370074
 30
0.0
 10
92.03383561858192
 20
52.519685039370074
 30
0.0
 10
92.15605739913701
 20
52.43963137239907
 30
0.0
 10
92.26377952755905
 20
52.28760306167383
 30
0.0
 10
92.37150165598109
 20
52.13557475094859
 30
0.0
 10
92.46097420913895
 20
51.9168640654516
 30
0.0
 10
92.52316760898108
 20
51.653543307086615
 30
0.0
 10
92.58536100882324
 20
51.390222548721624
 30
0.0
 10
92.61811023622047
 20
51.091458196253626
 30
0.0
 10
92.61811023622047
 20
50.78740157480315
 30
0.0
  0
CIRCLE
  5
EF
330
17
100
AcDbEntity
  8
Right wall elevation
100
AcDbCircle
 10
91.90944881889763
 20
50.78740157480315
 30
0.0
 40
9.0
  0
SPLINE
  5
F0
330
17
100
AcDbEntity
  8
Right wall elevation
100
AcDbSpline
 70
0
 71
3
 72
8
 73
4
 74
0
 40
0.0
 40
0.0
 40
0.0
 40
0.0
 40
1.0
 40
1.0
 40
1.0
 40
1.0
 10
91.43700787401573
 20
50.39370078740157
 30
0.0
 10
89.15354330708661
 20
47.63779527559055
 30
0.0
 10
86.39763779527559
 20
48.818897637795274
 30
0.0
 10
86.00393700787401
 20
51.574803149606296
 30
0.0
  0
SPLINE
  5
F1
330
17
100
AcDbEntity
  8
Right wall elevation
100
AcDbSpline
 70
0
 71
3
 72
8
 73
4
 74
0
 40
0.0
 40
0.0
 40
0.0
 40
0.0
 40
1.0
 40
1.0
 40
1.0
 40
1.0
 10
91.43700787401573
 20
50.0
 30
0.0
 10
89.54724409448818
 20
47.95275590551181
 30
0.0
 10
86.63385826771653
 20
49.055118110236215
 30
0.0
 10
86.16141732283464
 20
51.33858267716535
 30
0.0
  0
SPLINE
  5
F2
330
17
100
AcDbEntity
  8
Right wall elevation
100
AcDbSpline
 70
0
 71
3
 72
8
 73
4
 74
0
 40
0.0
 40
0.0
 40
0.0
 40
0.0
 40
1.0
 40
1.0
 40
1.0
 40
1.0
 10
84.98031496062993
 20
51.574803149606296
 30
0.0
 10
85.66272965879266
 20
51.10236220472441
 30
0.0
 10
86.34514435695537
 20
51.10236220472441
 30
0.0
 10
87.0275590551181
 20
51.574803149606296
 30
0.0
  0
POLYLINE
  5
F3
330
17
100
AcDbEntity
  8
Right wall elevation
100
AcDb2dPolyline
 66
1
 10
0.0
 20
0.0
 30
0.0
 70
0
  0
VERTEX
  5
F4
330
F3
100
AcDbEntity
  8
Right wall elevation
100
AcDbVertex
100
AcDb2dVertex
 10
87.0275590551181
 20
51.574803149606296
 30
0.0
 70
0
  0
VERTEX
  5
F5
330
F3
100
AcDbEntity
  8
Right wall elevation
100
AcDbVertex
100
AcDb2dVertex
 10
86.71259842519686
 20
52.204724409448815
 30
0.0
 70
0
  0
VERTEX
  5
F6
330
F3
100
AcDbEntity
  8
Right wall elevation
100
AcDbVertex
100
AcDb2dVertex
 10
85.29527559055117
 20
52.204724409448815
 30
0.0
 70
0
  0
VERTEX
  5
F7
330
F3
100
AcDbEntity
  8
Right wall elevation
100
AcDbVertex
100
AcDb2dVertex
 10
84.98031496062993
 20
51.574803149606296
 30
0.0
 70
0
  0
SEQEND
  5
F8
330
F3
100
AcDbEntity
  8
Right wall elevation
  0
LWPOLYLINE
  5
F9
330
17
100
AcDbEntity
  8
Right wall elevation
100
AcDbPolyline
 90
5
 70
0
 10
85.68897637795274
 20
54.33070866141732
 10
86.31889763779529
 20
54.33070866141732
 10
86.31889763779529
 20
52.204724409448815
 10
85.68897637795274
 20
52.204724409448815
 10
85.68897637795274
 20
54.33070866141732
  0
LWPOLYLINE
  5
FA
330
17
100
AcDbEntity
  8
Right wall elevation
100
AcDbPolyline
 90
5
 70
0
 10
83.64173228346456
 20
54.33070866141732
 10
88.36614173228347
 20
54.33070866141732
 10
87.42125984251967
 20
58.26771653543307
 10
84.58661417322836
 20
58.26771653543307
 10
83.64173228346456
 20
54.33070866141732
  0
LINE
  5
FB
330
17
100
AcDbEntity
  8
Right wall elevation
100
AcDbLine
 10
84.42913385826772
 20
54.40944881889764
 30
0.0
 11
85.05905511811024
 21
58.188976377952756
 31
0.0
  0
LINE
  5
FC
330
17
100
AcDbEntity
  8
Right wall elevation
100
AcDbLine
 10
85.21653543307086
 20
54.40944881889764
 30
0.0
 11
85.53149606299212
 21
58.188976377952756
 31
0.0
  0
LINE
  5
FD
330
17
100
AcDbEntity
  8
Right wall elevation
100
AcDbLine
 10
86.00393700787401
 20
54.40944881889764
 30
0.0
 11
86.00393700787401
 21
58.188976377952756
 31
0.0
  0
LINE
  5
FE
330
17
100
AcDbEntity
  8
Right wall elevation
100
AcDbLine
 10
86.79133858267717
 20
54.40944881889764
 30
0.0
 11
86.47637795275591
 21
58.188976377952756
 31
0.0
  0
LINE
  5
FF
330
17
100
AcDbEntity
  8
Right wall elevation
100
AcDbLine
 10
87.57874015748031
 20
54.40944881889764
 30
0.0
 11
86.94881889763779
 21
58.188976377952756
 31
0.0
  0
SPLINE
  5
100
330
17
100
AcDbEntity
  8
Right wall elevation
100
AcDbSpline
 70
0
 71
3
 72
8
 73
4
 74
0
 40
0.0
 40
0.0
 40
0.0
 40
0.0
 40
1.0
 40
1.0
 40
1.0
 40
1.0
 10
92.38188976377953
 20
50.39370078740157
 30
0.0
 10
94.66535433070865
 20
47.63779527559055
 30
0.0
 10
97.42125984251967
 20
48.818897637795274
 30
0.0
 10
97.81496062992125
 20
51.574803149606296
 30
0.0
  0
SPLINE
  5
101
330
17
100
AcDbEntity
  8
Right wall elevation
100
AcDbSpline
 70
0
 71
3
 72
8
 73
4
 74
0
 40
0.0
 40
0.0
 40
0.0
 40
0.0
 40
1.0
 40
1.0
 40
1.0
 40
1.0
 10
92.38188976377953
 20
50.0
 30
0.0
 10
94.27165354330708
 20
47.95275590551181
 30
0.0
 10
97.18503937007873
 20
49.055118110236215
 30
0.0
 10
97.65748031496062
 20
51.33858267716535
 30
0.0
  0
SPLINE
  5
102
330
17
100
AcDbEntity
  8
Right wall elevation
100
AcDbSpline
 70
0
 71
3
 72
8
 73
4
 74
0
 40
0.0
 40
0.0
 40
0.0
 40
0.0
 40
1.0
 40
1.0
 40
1.0
 40
1.0
 10
96.79133858267716
 20
51.574803149606296
 30
0.0
 10
97.47375328083989
 20
51.10236220472441
 30
0.0
 10
98.15616797900262
 20
51.10236220472441
 30
0.0
 10
98.83858267716536
 20
51.574803149606296
 30
0.0
  0
POLYLINE
  5
103
330
17
100
AcDbEntity
  8
Right wall elevation
100
AcDb2dPolyline
 66
1
 10
0.0
 20
0.0
 30
0.0
 70
0
  0
VERTEX
  5
104
330
103
100
AcDbEntity
  8
Right wall elevation
100
AcDbVertex
100
AcDb2dVertex
 10
98.83858267716536
 20
51.574803149606296
 30
0.0
 70
0
  0
VERTEX
  5
105
330
103
100
AcDbEntity
  8
Right wall elevation
100
AcDbVertex
100
AcDb2dVertex
 10
98.52362204724409
 20
52.204724409448815
 30
0.0
 70
0
  0
VERTEX
  5
106
330
103
100
AcDbEntity
  8
Right wall elevation
100
AcDbVertex
100
AcDb2dVertex
 10
97.10629921259843
 20
52.204724409448815
 30
0.0
 70
0
  0
VERTEX
  5
107
330
103
100
AcDbEntity
  8
Right wall elevation
100
AcDbVertex
100
AcDb2dVertex
 10
96.79133858267716
 20
51.574803149606296
 30
0.0
 70
0
  0
SEQEND
  5
108
330
103
100
AcDbEntity
  8
Right wall elevation
  0
LWPOLYLINE
  5
109
330
17
100
AcDbEntity
  8
Right wall elevation
100
AcDbPolyline
 90
5
 70
0
 10
97.5
 20
54.33070866141732
 10
98.12992125984252
 20
54.33070866141732
 10
98.12992125984252
 20
52.204724409448815
 10
97.5
 20
52.204724409448815
 10
97.5
 20
54.33070866141732
  0
LWPOLYLINE
  5
10A
330
17
100
AcDbEntity
  8
Right wall elevation
100
AcDbPolyline
 90
5
 70
0
 10
95.45275590551182
 20
54.33070866141732
 10
100.1771653543307
 20
54.33070866141732
 10
99.23228346456693
 20
58.26771653543307
 10
96.39763779527559
 20
58.26771653543307
 10
95.45275590551182
 20
54.33070866141732
  0
LINE
  5
10B
330
17
100
AcDbEntity
  8
Right wall elevation
100
AcDbLine
 10
96.24015748031496
 20
54.40944881889764
 30
0.0
 11
96.87007874015748
 21
58.188976377952756
 31
0.0
  0
LINE
  5
10C
330
17
100
AcDbEntity
  8
Right wall elevation
100
AcDbLine
 10
97.0275590551181
 20
54.40944881889764
 30
0.0
 11
97.34251968503936
 21
58.188976377952756
 31
0.0
  0
LINE
  5
10D
330
17
100
AcDbEntity
  8
Right wall elevation
100
AcDbLine
 10
97.81496062992126
 20
54.40944881889764
 30
0.0
 11
97.81496062992126
 21
58.188976377952756
 31
0.0
  0
LINE
  5
10E
330
17
100
AcDbEntity
  8
Right wall elevation
100
AcDbLine
 10
98.60236220472441
 20
54.40944881889764
 30
0.0
 11
98.28740157480316
 21
58.188976377952756
 31
0.0
  0
LINE
  5
10F
330
17
100
AcDbEntity
  8
Right wall elevation
100
AcDbLine
 10
99.38976377952756
 20
54.40944881889764
 30
0.0
 11
98.75984251968504
 21
58.188976377952756
 31
0.0
  0
SPLINE
  5
110
330
17
100
AcDbEntity
  8
Right wall elevation
100
AcDbSpline
 70
0
 71
3
 72
41
 73
37
 74
0
 40
0.0
 40
0.0
 40
0.0
 40
0.0
 40
1.0
 40
1.0
 40
1.0
 40
2.0
 40
2.0
 40
2.0
 40
3.0
 40
3.0
 40
3.0
 40
4.0
 40
4.0
 40
4.0
 40
5.0
 40
5.0
 40
5.0
 40
6.0
 40
6.0
 40
6.0
 40
7.0
 40
7.0
 40
7.0
 40
8.0
 40
8.0
 40
8.0
 40
9.0
 40
9.0
 40
9.0
 40
10.0
 40
10.0
 40
10.0
 40
11.0
 40
11.0
 40
11.0
 40
12.0
 40
12.0
 40
12.0
 40
12.0
 10
150.63385826771653
 20
50.78740157480315
 30
0.0
 10
150.63385826771653
 20
50.37277890918886
 30
0.0
 10
150.5829150250986
 20
49.96537297400523
 30
0.0
 10
150.48616973645528
 20
49.60629921259842
 30
0.0
 10
150.38942444781193
 20
49.24722545119162
 30
0.0
 10
150.2502449206775
 20
48.948983607332096
 30
0.0
 10
150.0826771653543
 20
48.741672274524944
 30
0.0
 10
149.91510941003114
 20
48.53436094171779
 30
0.0
 10
149.7249866402788
 20
48.4251968503937
 30
0.0
 10
149.53149606299212
 20
48.4251968503937
 30
0.0
 10
149.33800548570542
 20
48.4251968503937
 30
0.0
 10
149.14788271595307
 20
48.53436094171779
 30
0.0
 10
148.9803149606299
 20
48.741672274524944
 30
0.0
 10
148.81274720530675
 20
48.948983607332096
 30
0.0
 10
148.67356767817228
 20
49.24722545119162
 30
0.0
 10
148.57682238952896
 20
49.60629921259842
 30
0.0
 10
148.48007710088564
 20
49.96537297400523
 30
0.0
 10
148.4291338582677
 20
50.37277890918886
 30
0.0
 10
148.4291338582677
 20
50.78740157480315
 30
0.0
 10
148.4291338582677
 20
51.20202424041744
 30
0.0
 10
148.48007710088564
 20
51.60943017560107
 30
0.0
 10
148.57682238952896
 20
51.968503937007874
 30
0.0
 10
148.67356767817228
 20
52.32757769841467
 30
0.0
 10
148.81274720530675
 20
52.6258195422742
 30
0.0
 10
148.9803149606299
 20
52.833130875081345
 30
0.0
 10
149.14788271595307
 20
53.040442207888496
 30
0.0
 10
149.33800548570542
 20
53.14960629921259
 30
0.0
 10
149.53149606299212
 20
53.14960629921259
 30
0.0
 10
149.7249866402788
 20
53.14960629921259
 30
0.0
 10
149.91510941003114
 20
53.040442207888496
 30
0.0
 10
150.0826771653543
 20
52.833130875081345
 30
0.0
 10
150.2502449206775
 20
52.6258195422742
 30
0.0
 10
150.38942444781193
 20
52.32757769841467
 30
0.0
 10
150.48616973645528
 20
51.968503937007874
 30
0.0
 10
150.5829150250986
 20
51.60943017560107
 30
0.0
 10
150.63385826771653
 20
51.20202424041744
 30
0.0
 10
150.63385826771653
 20
50.78740157480315
 30
0.0
  0
SPLINE
  5
111
330
17
100
AcDbEntity
  8
Right wall elevation
100
AcDbSpline
 70
0
 71
3
 72
41
 73
37
 74
0
 40
0.0
 40
0.0
 40
0.0
 40
0.0
 40
1.0
 40
1.0
 40
1.0
 40
2.0
 40
2.0
 40
2.0
 40
3.0
 40
3.0
 40
3.0
 40
4.0
 40
4.0
 40
4.0
 40
5.0
 40
5.0
 40
5.0
 40
6.0
 40
6.0
 40
6.0
 40
7.0
 40
7.0
 40
7.0
 40
8.0
 40
8.0
 40
8.0
 40
9.0
 40
9.0
 40
9.0
 40
10.0
 40
10.0
 40
10.0
 40
11.0
 40
11.0
 40
11.0
 40
12.0
 40
12.0
 40
12.0
 40
12.0
 10
150.24015748031493
 20
50.78740157480315
 30
0.0
 10
150.24015748031493
 20
50.48334495335267
 30
0.0
 10
150.2074082529177
 20
50.184580600884665
 30
0.0
 10
150.14521485307557
 20
49.92125984251968
 30
0.0
 10
150.0830214532334
 20
49.6579390841547
 30
0.0
 10
149.99354890007558
 20
49.439228398657704
 30
0.0
 10
149.88582677165354
 20
49.28720008793246
 30
0.0
 10
149.77810464323147
 20
49.135171777207226
 30
0.0
 10
149.6558828626764
 20
49.055118110236215
 30
0.0
 10
149.53149606299212
 20
49.055118110236215
 30
0.0
 10
149.40710926330783
 20
49.055118110236215
 30
0.0
 10
149.28488748275274
 20
49.135171777207226
 30
0.0
 10
149.1771653543307
 20
49.28720008793246
 30
0.0
 10
149.06944322590866
 20
49.439228398657704
 30
0.0
 10
148.9799706727508
 20
49.6579390841547
 30
0.0
 10
148.91777727290867
 20
49.92125984251968
 30
0.0
 10
148.8555838730665
 20
50.184580600884665
 30
0.0
 10
148.82283464566927
 20
50.48334495335267
 30
0.0
 10
148.82283464566927
 20
50.78740157480315
 30
0.0
 10
148.82283464566927
 20
51.091458196253626
 30
0.0
 10
148.8555838730665
 20
51.390222548721624
 30
0.0
 10
148.91777727290867
 20
51.653543307086615
 30
0.0
 10
148.9799706727508
 20
51.9168640654516
 30
0.0
 10
149.06944322590866
 20
52.13557475094859
 30
0.0
 10
149.1771653543307
 20
52.28760306167383
 30
0.0
 10
149.28488748275274
 20
52.43963137239907
 30
0.0
 10
149.40710926330783
 20
52.519685039370074
 30
0.0
 10
149.53149606299212
 20
52.519685039370074
 30
0.0
 10
149.6558828626764
 20
52.519685039370074
 30
0.0
 10
149.77810464323147
 20
52.43963137239907
 30
0.0
 10
149.88582677165354
 20
52.28760306167383
 30
0.0
 10
149.99354890007558
 20
52.13557475094859
 30
0.0
 10
150.0830214532334
 20
51.9168640654516
 30
0.0
 10
150.14521485307557
 20
51.653543307086615
 30
0.0
 10
150.2074082529177
 20
51.390222548721624
 30
0.0
 10
150.24015748031493
 20
51.091458196253626
 30
0.0
 10
150.24015748031493
 20
50.78740157480315
 30
0.0
  0
CIRCLE
  5
112
330
17
100
AcDbEntity
  8
Right wall elevation
100
AcDbCircle
 10
149.53149606299212
 20
50.78740157480315
 30
0.0
 40
9.0
  0
SPLINE
  5
113
330
17
100
AcDbEntity
  8
Right wall elevation
100
AcDbSpline
 70
0
 71
3
 72
8
 73
4
 74
0
 40
0.0
 40
0.0
 40
0.0
 40
0.0
 40
1.0
 40
1.0
 40
1.0
 40
1.0
 10
149.05905511811022
 20
50.39370078740157
 30
0.0
 10
146.7755905511811
 20
47.63779527559055
 30
0.0
 10
144.01968503937007
 20
48.818897637795274
 30
0.0
 10
143.6259842519685
 20
51.574803149606296
 30
0.0
  0
SPLINE
  5
114
330
17
100
AcDbEntity
  8
Right wall elevation
100
AcDbSpline
 70
0
 71
3
 72
8
 73
4
 74
0
 40
0.0
 40
0.0
 40
0.0
 40
0.0
 40
1.0
 40
1.0
 40
1.0
 40
1.0
 10
149.05905511811022
 20
50.0
 30
0.0
 10
147.16929133858267
 20
47.95275590551181
 30
0.0
 10
144.25590551181102
 20
49.055118110236215
 30
0.0
 10
143.78346456692913
 20
51.33858267716535
 30
0.0
  0
SPLINE
  5
115
330
17
100
AcDbEntity
  8
Right wall elevation
100
AcDbSpline
 70
0
 71
3
 72
8
 73
4
 74
0
 40
0.0
 40
0.0
 40
0.0
 40
0.0
 40
1.0
 40
1.0
 40
1.0
 40
1.0
 10
142.6023622047244
 20
51.574803149606296
 30
0.0
 10
143.28477690288713
 20
51.10236220472441
 30
0.0
 10
143.96719160104988
 20
51.10236220472441
 30
0.0
 10
144.6496062992126
 20
51.574803149606296
 30
0.0
  0
POLYLINE
  5
116
330
17
100
AcDbEntity
  8
Right wall elevation
100
AcDb2dPolyline
 66
1
 10
0.0
 20
0.0
 30
0.0
 70
0
  0
VERTEX
  5
117
330
116
100
AcDbEntity
  8
Right wall elevation
100
AcDbVertex
100
AcDb2dVertex
 10
144.6496062992126
 20
51.574803149606296
 30
0.0
 70
0
  0
VERTEX
  5
118
330
116
100
AcDbEntity
  8
Right wall elevation
100
AcDbVertex
100
AcDb2dVertex
 10
144.33464566929132
 20
52.204724409448815
 30
0.0
 70
0
  0
VERTEX
  5
119
330
116
100
AcDbEntity
  8
Right wall elevation
100
AcDbVertex
100
AcDb2dVertex
 10
142.91732283464566
 20
52.204724409448815
 30
0.0
 70
0
  0
VERTEX
  5
11A
330
116
100
AcDbEntity
  8
Right wall elevation
100
AcDbVertex
100
AcDb2dVertex
 10
142.6023622047244
 20
51.574803149606296
 30
0.0
 70
0
  0
SEQEND
  5
11B
330
116
100
AcDbEntity
  8
Right wall elevation
  0
LWPOLYLINE
  5
11C
330
17
100
AcDbEntity
  8
Right wall elevation
100
AcDbPolyline
 90
5
 70
0
 10
143.31102362204723
 20
54.33070866141732
 10
143.94094488188975
 20
54.33070866141732
 10
143.94094488188975
 20
52.204724409448815
 10
143.31102362204723
 20
52.204724409448815
 10
143.31102362204723
 20
54.33070866141732
  0
LWPOLYLINE
  5
11D
330
17
100
AcDbEntity
  8
Right wall elevation
100
AcDbPolyline
 90
5
 70
0
 10
141.26377952755905
 20
54.33070866141732
 10
145.98818897637793
 20
54.33070866141732
 10
145.04330708661416
 20
58.26771653543307
 10
142.20866141732282
 20
58.26771653543307
 10
141.26377952755905
 20
54.33070866141732
  0
LINE
  5
11E
330
17
100
AcDbEntity
  8
Right wall elevation
100
AcDbLine
 10
142.0511811023622
 20
54.40944881889764
 30
0.0
 11
142.6811023622047
 21
58.188976377952756
 31
0.0
  0
LINE
  5
11F
330
17
100
AcDbEntity
  8
Right wall elevation
100
AcDbLine
 10
142.83858267716536
 20
54.40944881889764
 30
0.0
 11
143.1535433070866
 21
58.188976377952756
 31
0.0
  0
LINE
  5
120
330
17
100
AcDbEntity
  8
Right wall elevation
100
AcDbLine
 10
143.6259842519685
 20
54.40944881889764
 30
0.0
 11
143.6259842519685
 21
58.188976377952756
 31
0.0
  0
LINE
  5
121
330
17
100
AcDbEntity
  8
Right wall elevation
100
AcDbLine
 10
144.41338582677164
 20
54.40944881889764
 30
0.0
 11
144.0984251968504
 21
58.188976377952756
 31
0.0
  0
LINE
  5
122
330
17
100
AcDbEntity
  8
Right wall elevation
100
AcDbLine
 10
145.2007874015748
 20
54.40944881889764
 30
0.0
 11
144.57086614173227
 21
58.188976377952756
 31
0.0
  0
SPLINE
  5
123
330
17
100
AcDbEntity
  8
Right wall elevation
100
AcDbSpline
 70
0
 71
3
 72
8
 73
4
 74
0
 40
0.0
 40
0.0
 40
0.0
 40
0.0
 40
1.0
 40
1.0
 40
1.0
 40
1.0
 10
150.00393700787401
 20
50.39370078740157
 30
0.0
 10
152.28740157480314
 20
47.63779527559055
 30
0.0
 10
155.04330708661416
 20
48.818897637795274
 30
0.0
 10
155.43700787401573
 20
51.574803149606296
 30
0.0
  0
SPLINE
  5
124
330
17
100
AcDbEntity
  8
Right wall elevation
100
AcDbSpline
 70
0
 71
3
 72
8
 73
4
 74
0
 40
0.0
 40
0.0
 40
0.0
 40
0.0
 40
1.0
 40
1.0
 40
1.0
 40
1.0
 10
150.00393700787401
 20
50.0
 30
0.0
 10
151.89370078740157
 20
47.95275590551181
 30
0.0
 10
154.80708661417322
 20
49.055118110236215
 30
0.0
 10
155.2795275590551
 20
51.33858267716535
 30
0.0
  0
SPLINE
  5
125
330
17
100
AcDbEntity
  8
Right wall elevation
100
AcDbSpline
 70
0
 71
3
 72
8
 73
4
 74
0
 40
0.0
 40
0.0
 40
0.0
 40
0.0
 40
1.0
 40
1.0
 40
1.0
 40
1.0
 10
154.41338582677164
 20
51.574803149606296
 30
0.0
 10
155.09580052493436
 20
51.10236220472441
 30
0.0
 10
155.7782152230971
 20
51.10236220472441
 30
0.0
 10
156.46062992125982
 20
51.574803149606296
 30
0.0
  0
POLYLINE
  5
126
330
17
100
AcDbEntity
  8
Right wall elevation
100
AcDb2dPolyline
 66
1
 10
0.0
 20
0.0
 30
0.0
 70
0
  0
VERTEX
  5
127
330
126
100
AcDbEntity
  8
Right wall elevation
100
AcDbVertex
100
AcDb2dVertex
 10
156.46062992125982
 20
51.574803149606296
 30
0.0
 70
0
  0
VERTEX
  5
128
330
126
100
AcDbEntity
  8
Right wall elevation
100
AcDbVertex
100
AcDb2dVertex
 10
156.14566929133858
 20
52.204724409448815
 30
0.0
 70
0
  0
VERTEX
  5
129
330
126
100
AcDbEntity
  8
Right wall elevation
100
AcDbVertex
100
AcDb2dVertex
 10
154.7283464566929
 20
52.204724409448815
 30
0.0
 70
0
  0
VERTEX
  5
12A
330
126
100
AcDbEntity
  8
Right wall elevation
100
AcDbVertex
100
AcDb2dVertex
 10
154.41338582677164
 20
51.574803149606296
 30
0.0
 70
0
  0
SEQEND
  5
12B
330
126
100
AcDbEntity
  8
Right wall elevation
  0
LWPOLYLINE
  5
12C
330
17
100
AcDbEntity
  8
Right wall elevation
100
AcDbPolyline
 90
5
 70
0
 10
155.1220472440945
 20
54.33070866141732
 10
155.751968503937
 20
54.33070866141732
 10
155.751968503937
 20
52.204724409448815
 10
155.1220472440945
 20
52.204724409448815
 10
155.1220472440945
 20
54.33070866141732
  0
LWPOLYLINE
  5
12D
330
17
100
AcDbEntity
  8
Right wall elevation
100
AcDbPolyline
 90
5
 70
0
 10
153.07480314960628
 20
54.33070866141732
 10
157.79921259842519
 20
54.33070866141732
 10
156.8543307086614
 20
58.26771653543307
 10
154.01968503937007
 20
58.26771653543307
 10
153.07480314960628
 20
54.33070866141732
  0
LINE
  5
12E
330
17
100
AcDbEntity
  8
Right wall elevation
100
AcDbLine
 10
153.86220472440945
 20
54.40944881889764
 30
0.0
 11
154.49212598425197
 21
58.188976377952756
 31
0.0
  0
LINE
  5
12F
330
17
100
AcDbEntity
  8
Right wall elevation
100
AcDbLine
 10
154.6496062992126
 20
54.40944881889764
 30
0.0
 11
154.96456692913387
 21
58.188976377952756
 31
0.0
  0
LINE
  5
130
330
17
100
AcDbEntity
  8
Right wall elevation
100
AcDbLine
 10
155.43700787401573
 20
54.40944881889764
 30
0.0
 11
155.43700787401573
 21
58.188976377952756
 31
0.0
  0
LINE
  5
131
330
17
100
AcDbEntity
  8
Right wall elevation
100
AcDbLine
 10
156.2244094488189
 20
54.40944881889764
 30
0.0
 11
155.90944881889763
 21
58.188976377952756
 31
0.0
  0
LINE
  5
132
330
17
100
AcDbEntity
  8
Right wall elevation
100
AcDbLine
 10
157.01181102362204
 20
54.40944881889764
 30
0.0
 11
156.38188976377953
 21
58.188976377952756
 31
0.0
  0
LWPOLYLINE
  5
133
330
17
100
AcDbEntity
  8
Right wall elevation
100
AcDbPolyline
 90
5
 70
0
 10
164.92125984251967
 20
97.00787401574803
 10
206.96850393700785
 20
97.00787401574803
 10
206.96850393700785
 20
0.0
 10
164.92125984251967
 20
0.0
 10
164.92125984251967
 20
97.00787401574803
  0
LWPOLYLINE
  5
134
330
17
100
AcDbEntity
  8
Right wall elevation
100
AcDbPolyline
 90
5
 70
0
 10
165.70866141732282
 20
96.22047244094487
 10
206.1811023622047
 20
96.22047244094487
 10
206.1811023622047
 20
0.0
 10
165.70866141732282
 20
0.0
 10
165.70866141732282
 20
96.22047244094487
  0
LWPOLYLINE
  5
135
330
17
100
AcDbEntity
  8
Right wall elevation
100
AcDbPolyline
 90
5
 70
0
 10
166.49606299212599
 20
95.43307086614173
 10
205.39370078740157
 20
95.43307086614173
 10
205.39370078740157
 20
0.0
 10
166.49606299212599
 20
0.0
 10
166.49606299212599
 20
95.43307086614173
  0
LWPOLYLINE
  5
136
330
17
100
AcDbEntity
  8
Right wall elevation
100
AcDbPolyline
 90
5
 70
0
 10
170.94488188976376
 20
90.98425196850394
 10
200.94488188976376
 20
90.98425196850394
 10
200.94488188976376
 20
0.0
 10
170.94488188976376
 20
0.0
 10
170.94488188976376
 20
90.98425196850394
  0
LWPOLYLINE
  5
137
330
17
100
AcDbEntity
  8
Right wall elevation
100
AcDbPolyline
 90
5
 70
0
 10
175.2755905511811
 20
85.07874015748031
 10
196.61417322834646
 20
85.07874015748031
 10
196.61417322834646
 20
51.18110236220472
 10
175.2755905511811
 20
51.18110236220472
 10
175.2755905511811
 20
85.07874015748031
  0
LWPOLYLINE
  5
138
330
17
100
AcDbEntity
  8
Right wall elevation
100
AcDbPolyline
 90
5
 70
0
 10
176.4566929133858
 20
83.89763779527559
 10
195.43307086614172
 20
83.89763779527559
 10
195.43307086614172
 20
52.362204724409445
 10
176.4566929133858
 20
52.362204724409445
 10
176.4566929133858
 20
83.89763779527559
  0
LWPOLYLINE
  5
139
330
17
100
AcDbEntity
  8
Right wall elevation
100
AcDbPolyline
 90
5
 70
0
 10
175.2755905511811
 20
45.2755905511811
 10
196.61417322834646
 20
45.2755905511811
 10
196.61417322834646
 20
5.905511811023615
 10
175.2755905511811
 20
5.905511811023615
 10
175.2755905511811
 20
45.2755905511811
  0
LWPOLYLINE
  5
13A
330
17
100
AcDbEntity
  8
Right wall elevation
100
AcDbPolyline
 90
5
 70
0
 10
176.4566929133858
 20
44.09448818897637
 10
195.43307086614172
 20
44.09448818897637
 10
195.43307086614172
 20
7.086614173228341
 10
176.4566929133858
 20
7.086614173228341
 10
176.4566929133858
 20
44.09448818897637
  0
LWPOLYLINE
  5
13B
330
17
100
AcDbEntity
  8
Right wall elevation
100
AcDbPolyline
 90
5
 70
0
 10
197.79527559055117
 20
41.73228346456693
 10
198.5826771653543
 20
41.73228346456693
 10
198.5826771653543
 20
39.37007874015748
 10
197.79527559055117
 20
39.37007874015748
 10
197.79527559055117
 20
41.73228346456693
  0
LINE
  5
13C
330
17
100
AcDbEntity
  8
Right wall elevation
100
AcDbLine
 10
198.18897637795274
 20
40.55118110236221
 30
0.0
 11
193.46456692913387
 21
40.55118110236221
 31
0.0
  0
LINE
  5
13D
330
17
100
AcDbEntity
  8
Right wall elevation
100
AcDbLine
 10
0.0
 20
0.0
 30
0.0
 11
238.81889763779526
 21
0.0
 31
0.0
  0
LINE
  5
13E
330
17
100
AcDbEntity
  8
Right wall elevation
  6
DASHED
100
AcDbLine
 10
0.0
 20
109.01574803149606
 30
0.0
 11
238.81889763779526
 21
109.01574803149606
 31
0.0
  0
TEXT
  5
13F
330
17
100
AcDbEntity
  8
LABELS
100
AcDbText
 10
0.0
 20
111.37795275590551
 30
0.0
 40
4.776377952755905
  1
RIGHT WALL ELEVATION  (1:1, inches)
 11
0.0
 21
111.37795275590551
 31
0.0
100
AcDbText
  0
HATCH
  5
142
330
17
100
AcDbEntity
  8
Right wall plan hatch
 62
7
100
AcDbHatch
 10
0.0
 20
0.0
 30
0.0
210
0.0
220
0.0
230
1.0
  2
ANSI31
 70
0
 71
0
 91
1
 92
3
 72
0
 73
1
 93
5
 10
274.64173228346453
 20
32.67716535433071
 10
448.73622047244095
 20
32.67716535433071
 10
448.73622047244095
 20
23.62204724409449
 10
274.64173228346453
 20
23.62204724409449
 10
274.64173228346453
 20
32.67716535433071
 97
0
 75
1
 76
1
 52
0.0
 41
0.15748031496062992
 77
0
 78
1
 53
45.0
 43
0.0
 44
0.0
 45
-0.0139194248
 46
0.0139194248
 79
0
 98
0
  0
HATCH
  5
143
330
17
100
AcDbEntity
  8
Right wall plan hatch
 62
7
100
AcDbHatch
 10
0.0
 20
0.0
 30
0.0
210
0.0
220
0.0
230
1.0
  2
ANSI31
 70
0
 71
0
 91
1
 92
3
 72
0
 73
1
 93
5
 10
478.73622047244095
 20
32.67716535433071
 10
519.759842519685
 20
32.67716535433071
 10
519.759842519685
 20
23.62204724409449
 10
478.73622047244095
 20
23.62204724409449
 10
478.73622047244095
 20
32.67716535433071
 97
0
 75
1
 76
1
 52
0.0
 41
0.15748031496062992
 77
0
 78
1
 53
45.0
 43
0.0
 44
0.0
 45
-0.0139194248
 46
0.0139194248
 79
0
 98
0
  0
HATCH
  5
144
330
17
100
AcDbEntity
  8
Right wall plan hatch
 62
7
100
AcDbHatch
 10
0.0
 20
0.0
 30
0.0
210
0.0
220
0.0
230
1.0
  2
ANSI31
 70
0
 71
0
 91
1
 92
3
 72
0
 73
1
 93
5
 10
274.64173228346453
 20
32.67716535433071
 10
283.69685039370074
 20
32.67716535433071
 10
283.69685039370074
 20
0.0
 10
274.64173228346453
 20
0.0
 10
274.64173228346453
 20
32.67716535433071
 97
0
 75
1
 76
1
 52
0.0
 41
0.15748031496062992
 77
0
 78
1
 53
45.0
 43
0.0
 44
0.0
 45
-0.0139194248
 46
0.0139194248
 79
0
 98
0
  0
HATCH
  5
145
330
17
100
AcDbEntity
  8
Right wall plan hatch
 62
7
100
AcDbHatch
 10
0.0
 20
0.0
 30
0.0
210
0.0
220
0.0
230
1.0
  2
ANSI31
 70
0
 71
0
 91
1
 92
3
 72
0
 73
1
 93
5
 10
510.7047244094488
 20
32.67716535433071
 10
519.759842519685
 20
32.67716535433071
 10
519.759842519685
 20
0.0
 10
510.7047244094488
 20
0.0
 10
510.7047244094488
 20
32.67716535433071
 97
0
 75
1
 76
1
 52
0.0
 41
0.15748031496062992
 77
0
 78
1
 53
45.0
 43
0.0
 44
0.0
 45
-0.0139194248
 46
0.0139194248
 79
0
 98
0
  0
LWPOLYLINE
  5
146
330
17
100
AcDbEntity
  8
Right wall plan
100
AcDbPolyline
 90
4
 70
0
 10
283.69685039370074
 20
0.0
 10
283.69685039370074
 20
23.62204724409449
 10
448.7362204724409
 20
23.62204724409449
 10
448.7362204724409
 20
32.67716535433071
  0
LWPOLYLINE
  5
147
330
17
100
AcDbEntity
  8
Right wall plan
100
AcDbPolyline
 90
4
 70
0
 10
478.7362204724409
 20
32.67716535433071
 10
478.7362204724409
 20
23.62204724409449
 10
510.7047244094488
 20
23.62204724409449
 10
510.7047244094488
 20
0.0
  0
LWPOLYLINE
  5
148
330
17
100
AcDbEntity
  8
Right wall plan
100
AcDbPolyline
 90
5
 70
0
 10
477.1614173228346
 20
62.67716535433071
 10
478.7362204724409
 20
62.67716535433071
 10
478.7362204724409
 20
32.67716535433071
 10
477.1614173228346
 20
32.67716535433071
 10
477.1614173228346
 20
62.67716535433071
  0
SPLINE
  5
149
330
17
100
AcDbEntity
  8
Right wall plan
  6
DASHED
100
AcDbSpline
 70
0
 71
3
 72
14
 73
10
 74
0
 40
0.0
 40
0.0
 40
0.0
 40
0.0
 40
1.0
 40
1.0
 40
1.0
 40
2.0
 40
2.0
 40
2.0
 40
3.0
 40
3.0
 40
3.0
 40
3.0
 10
477.1614173228346
 20
62.67716535433071
 30
0.0
 10
472.0759882134594
 20
62.40984998551495
 30
0.0
 10
467.14138575584457
 20
60.85202033870488
 30
0.0
 10
462.8242660993319
 20
58.15099745760269
 30
0.0
 10
458.5071464428193
 20
55.44997457650051
 30
0.0
 10
454.9480263751411
 20
51.69367334163795
 30
0.0
 10
452.4834852418667
 20
47.23732015374051
 30
0.0
 10
450.0189441085922
 20
42.780966965843064
 30
0.0
 10
448.72919960828807
 20
37.76961048809031
 30
0.0
 10
448.7362204724409
 20
32.67716535433071
 30
0.0
  0
LWPOLYLINE
  5
14A
330
17
100
AcDbEntity
  8
Right wall plan
100
AcDbPolyline
 90
5
 70
0
 10
442.7125984251968
 20
23.62204724409449
 10
448.7362204724409
 20
23.62204724409449
 10
448.7362204724409
 20
22.755905511811026
 10
442.7125984251968
 20
22.755905511811026
 10
442.7125984251968
 20
23.62204724409449
  0
LWPOLYLINE
  5
14B
330
17
100
AcDbEntity
  8
Right wall plan
100
AcDbPolyline
 90
5
 70
0
 10
478.7362204724409
 20
23.62204724409449
 10
484.759842519685
 20
23.62204724409449
 10
484.759842519685
 20
22.755905511811026
 10
478.7362204724409
 20
22.755905511811026
 10
478.7362204724409
 20
23.62204724409449
  0
LWPOLYLINE
  5
14C
330
17
100
AcDbEntity
  8
Right wall plan
100
AcDbPolyline
 90
5
 70
0
 10
283.69685039370074
 20
23.62204724409449
 10
294.72047244094483
 20
23.62204724409449
 10
294.72047244094483
 20
0.0
 10
283.69685039370074
 20
0.0
 10
283.69685039370074
 20
23.62204724409449
  0
LINE
  5
14D
330
17
100
AcDbEntity
  8
Right wall plan
  6
DASHED
100
AcDbLine
 10
283.69685039370074
 20
0.0
 30
0.0
 11
294.7204724409449
 21
0.0
 31
0.0
  0
LWPOLYLINE
  5
14E
330
17
100
AcDbEntity
  8
Right wall plan
100
AcDbPolyline
 90
5
 70
0
 10
294.72047244094483
 20
23.62204724409449
 10
442.7125984251968
 20
23.62204724409449
 10
442.7125984251968
 20
22.83464566929134
 10
294.72047244094483
 20
22.83464566929134
 10
294.72047244094483
 20
23.62204724409449
  0
LINE
  5
14F
330
17
100
AcDbEntity
  8
Right wall plan
  6
DASHED
100
AcDbLine
 10
294.7204724409449
 20
22.519685039370078
 30
0.0
 11
442.7125984251968
 21
22.519685039370078
 31
0.0
  0
LWPOLYLINE
  5
150
330
17
100
AcDbEntity
  8
Right wall plan
100
AcDbPolyline
 90
5
 70
0
 10
484.759842519685
 20
23.62204724409449
 10
510.7047244094488
 20
23.62204724409449
 10
510.7047244094488
 20
22.83464566929134
 10
484.759842519685
 20
22.83464566929134
 10
484.759842519685
 20
23.62204724409449
  0
LINE
  5
151
330
17
100
AcDbEntity
  8
Right wall plan
  6
DASHED
100
AcDbLine
 10
484.75984251968504
 20
22.519685039370078
 30
0.0
 11
510.7047244094488
 21
22.519685039370078
 31
0.0
  0
LWPOLYLINE
  5
152
330
17
100
AcDbEntity
  8
Right wall plan
100
AcDbPolyline
 90
5
 70
0
 10
300.6259842519685
 20
23.62204724409449
 10
302.7913385826771
 20
23.62204724409449
 10
302.7913385826771
 20
22.67716535433071
 10
300.6259842519685
 20
22.67716535433071
 10
300.6259842519685
 20
23.62204724409449
  0
LWPOLYLINE
  5
153
330
17
100
AcDbEntity
  8
Right wall plan
100
AcDbPolyline
 90
5
 70
0
 10
321.36614173228344
 20
23.62204724409449
 10
323.53149606299206
 20
23.62204724409449
 10
323.53149606299206
 20
22.67716535433071
 10
321.36614173228344
 20
22.67716535433071
 10
321.36614173228344
 20
23.62204724409449
  0
LWPOLYLINE
  5
154
330
17
100
AcDbEntity
  8
Right wall plan
100
AcDbPolyline
 90
5
 70
0
 10
329.4370078740157
 20
23.62204724409449
 10
331.6023622047244
 20
23.62204724409449
 10
331.6023622047244
 20
22.67716535433071
 10
329.4370078740157
 20
22.67716535433071
 10
329.4370078740157
 20
23.62204724409449
  0
LWPOLYLINE
  5
155
330
17
100
AcDbEntity
  8
Right wall plan
100
AcDbPolyline
 90
5
 70
0
 10
350.17716535433067
 20
23.62204724409449
 10
352.3425196850393
 20
23.62204724409449
 10
352.3425196850393
 20
22.67716535433071
 10
350.17716535433067
 20
22.67716535433071
 10
350.17716535433067
 20
23.62204724409449
  0
LWPOLYLINE
  5
156
330
17
100
AcDbEntity
  8
Right wall plan
100
AcDbPolyline
 90
5
 70
0
 10
358.24803149606294
 20
23.62204724409449
 10
360.4133858267716
 20
23.62204724409449
 10
360.4133858267716
 20
22.67716535433071
 10
358.24803149606294
 20
22.67716535433071
 10
358.24803149606294
 20
23.62204724409449
  0
LWPOLYLINE
  5
157
330
17
100
AcDbEntity
  8
Right wall plan
100
AcDbPolyline
 90
5
 70
0
 10
378.9881889763779
 20
23.62204724409449
 10
381.1535433070866
 20
23.62204724409449
 10
381.1535433070866
 20
22.67716535433071
 10
378.9881889763779
 20
22.67716535433071
 10
378.9881889763779
 20
23.62204724409449
  0
LWPOLYLINE
  5
158
330
17
100
AcDbEntity
  8
Right wall plan
100
AcDbPolyline
 90
5
 70
0
 10
387.05905511811017
 20
23.62204724409449
 10
389.22440944881885
 20
23.62204724409449
 10
389.22440944881885
 20
22.67716535433071
 10
387.05905511811017
 20
22.67716535433071
 10
387.05905511811017
 20
23.62204724409449
  0
LWPOLYLINE
  5
159
330
17
100
AcDbEntity
  8
Right wall plan
100
AcDbPolyline
 90
5
 70
0
 10
407.79921259842513
 20
23.62204724409449
 10
409.9645669291338
 20
23.62204724409449
 10
409.9645669291338
 20
22.67716535433071
 10
407.79921259842513
 20
22.67716535433071
 10
407.79921259842513
 20
23.62204724409449
  0
LWPOLYLINE
  5
15A
330
17
100
AcDbEntity
  8
Right wall plan
100
AcDbPolyline
 90
5
 70
0
 10
415.8700787401574
 20
23.62204724409449
 10
418.0354330708661
 20
23.62204724409449
 10
418.0354330708661
 20
22.67716535433071
 10
415.8700787401574
 20
22.67716535433071
 10
415.8700787401574
 20
23.62204724409449
  0
LWPOLYLINE
  5
15B
330
17
100
AcDbEntity
  8
Right wall plan
100
AcDbPolyline
 90
5
 70
0
 10
436.6102362204724
 20
23.62204724409449
 10
438.77559055118104
 20
23.62204724409449
 10
438.77559055118104
 20
22.67716535433071
 10
436.6102362204724
 20
22.67716535433071
 10
436.6102362204724
 20
23.62204724409449
  0
LWPOLYLINE
  5
15C
330
17
100
AcDbEntity
  8
Right wall plan
100
AcDbPolyline
 90
5
 70
0
 10
488.69685039370074
 20
23.62204724409449
 10
490.86220472440937
 20
23.62204724409449
 10
490.86220472440937
 20
22.67716535433071
 10
488.69685039370074
 20
22.67716535433071
 10
488.69685039370074
 20
23.62204724409449
  0
LWPOLYLINE
  5
15D
330
17
100
AcDbEntity
  8
Right wall plan
100
AcDbPolyline
 90
5
 70
0
 10
504.6023622047244
 20
23.62204724409449
 10
506.767716535433
 20
23.62204724409449
 10
506.767716535433
 20
22.67716535433071
 10
504.6023622047244
 20
22.67716535433071
 10
504.6023622047244
 20
23.62204724409449
  0
POLYLINE
  5
15E
330
17
100
AcDbEntity
  8
Right wall plan
  6
DASHED
100
AcDb2dPolyline
 66
1
 10
0.0
 20
0.0
 30
0.0
 70
0
  0
VERTEX
  5
15F
330
15E
100
AcDbEntity
  8
Right wall plan
  6
DASHED
100
AcDbVertex
100
AcDb2dVertex
 10
312.0787401574803
 20
23.62204724409449
 30
0.0
 70
0
  0
VERTEX
  5
160
330
15E
100
AcDbEntity
  8
Right wall plan
  6
DASHED
100
AcDbVertex
100
AcDb2dVertex
 10
312.0787401574803
 20
21.25984251968504
 30
0.0
 70
0
  0
SEQEND
  5
161
330
15E
100
AcDbEntity
  8
Right wall plan
  0
SPLINE
  5
162
330
17
100
AcDbEntity
  8
Right wall plan
  6
DASHED
100
AcDbSpline
 70
0
 71
3
 72
8
 73
4
 74
0
 40
0.0
 40
0.0
 40
0.0
 40
0.0
 40
1.0
 40
1.0
 40
1.0
 40
1.0
 10
312.0787401574803
 20
21.25984251968504
 30
0.0
 10
312.0787401574803
 20
19.16010498687664
 30
0.0
 10
310.1102362204724
 20
17.716535433070867
 30
0.0
 10
306.17322834645665
 20
16.92913385826772
 30
0.0
  0
SPLINE
  5
163
330
17
100
AcDbEntity
  8
Right wall plan
  6
DASHED
100
AcDbSpline
 70
0
 71
3
 72
8
 73
4
 74
0
 40
0.0
 40
0.0
 40
0.0
 40
0.0
 40
1.0
 40
1.0
 40
1.0
 40
1.0
 10
312.0787401574803
 20
21.25984251968504
 30
0.0
 10
312.0787401574803
 20
19.16010498687664
 30
0.0
 10
314.0472440944882
 20
17.716535433070867
 30
0.0
 10
317.9842519685039
 20
16.92913385826772
 30
0.0
  0
CIRCLE
  5
164
330
17
100
AcDbEntity
  8
Right wall plan
  6
DASHED
100
AcDbCircle
 10
306.17322834645665
 20
16.929133858267715
 30
0.0
 40
60.0
  0
CIRCLE
  5
165
330
17
100
AcDbEntity
  8
Right wall plan
  6
DASHED
100
AcDbCircle
 10
317.9842519685039
 20
16.929133858267715
 30
0.0
 40
60.0
  0
POLYLINE
  5
166
330
17
100
AcDbEntity
  8
Right wall plan
  6
DASHED
100
AcDb2dPolyline
 66
1
 10
0.0
 20
0.0
 30
0.0
 70
0
  0
VERTEX
  5
167
330
166
100
AcDbEntity
  8
Right wall plan
  6
DASHED
100
AcDbVertex
100
AcDb2dVertex
 10
369.70078740157476
 20
23.62204724409449
 30
0.0
 70
0
  0
VERTEX
  5
168
330
166
100
AcDbEntity
  8
Right wall plan
  6
DASHED
100
AcDbVertex
100
AcDb2dVertex
 10
369.70078740157476
 20
21.25984251968504
 30
0.0
 70
0
  0
SEQEND
  5
169
330
166
100
AcDbEntity
  8
Right wall plan
  0
SPLINE
  5
16A
330
17
100
AcDbEntity
  8
Right wall plan
  6
DASHED
100
AcDbSpline
 70
0
 71
3
 72
8
 73
4
 74
0
 40
0.0
 40
0.0
 40
0.0
 40
0.0
 40
1.0
 40
1.0
 40
1.0
 40
1.0
 10
369.70078740157476
 20
21.25984251968504
 30
0.0
 10
369.70078740157476
 20
19.16010498687664
 30
0.0
 10
367.7322834645669
 20
17.716535433070867
 30
0.0
 10
363.7952755905511
 20
16.92913385826772
 30
0.0
  0
SPLINE
  5
16B
330
17
100
AcDbEntity
  8
Right wall plan
  6
DASHED
100
AcDbSpline
 70
0
 71
3
 72
8
 73
4
 74
0
 40
0.0
 40
0.0
 40
0.0
 40
0.0
 40
1.0
 40
1.0
 40
1.0
 40
1.0
 10
369.70078740157476
 20
21.25984251968504
 30
0.0
 10
369.70078740157476
 20
19.16010498687664
 30
0.0
 10
371.66929133858264
 20
17.716535433070867
 30
0.0
 10
375.6062992125984
 20
16.92913385826772
 30
0.0
  0
CIRCLE
  5
16C
330
17
100
AcDbEntity
  8
Right wall plan
  6
DASHED
100
AcDbCircle
 10
363.79527559055117
 20
16.929133858267715
 30
0.0
 40
60.0
  0
CIRCLE
  5
16D
330
17
100
AcDbEntity
  8
Right wall plan
  6
DASHED
100
AcDbCircle
 10
375.6062992125984
 20
16.929133858267715
 30
0.0
 40
60.0
  0
POLYLINE
  5
16E
330
17
100
AcDbEntity
  8
Right wall plan
  6
DASHED
100
AcDb2dPolyline
 66
1
 10
0.0
 20
0.0
 30
0.0
 70
0
  0
VERTEX
  5
16F
330
16E
100
AcDbEntity
  8
Right wall plan
  6
DASHED
100
AcDbVertex
100
AcDb2dVertex
 10
427.3228346456692
 20
23.62204724409449
 30
0.0
 70
0
  0
VERTEX
  5
170
330
16E
100
AcDbEntity
  8
Right wall plan
  6
DASHED
100
AcDbVertex
100
AcDb2dVertex
 10
427.3228346456692
 20
21.25984251968504
 30
0.0
 70
0
  0
SEQEND
  5
171
330
16E
100
AcDbEntity
  8
Right wall plan
  0
SPLINE
  5
172
330
17
100
AcDbEntity
  8
Right wall plan
  6
DASHED
100
AcDbSpline
 70
0
 71
3
 72
8
 73
4
 74
0
 40
0.0
 40
0.0
 40
0.0
 40
0.0
 40
1.0
 40
1.0
 40
1.0
 40
1.0
 10
427.3228346456692
 20
21.25984251968504
 30
0.0
 10
427.3228346456692
 20
19.16010498687664
 30
0.0
 10
425.35433070866134
 20
17.716535433070867
 30
0.0
 10
421.41732283464563
 20
16.92913385826772
 30
0.0
  0
SPLINE
  5
173
330
17
100
AcDbEntity
  8
Right wall plan
  6
DASHED
100
AcDbSpline
 70
0
 71
3
 72
8
 73
4
 74
0
 40
0.0
 40
0.0
 40
0.0
 40
0.0
 40
1.0
 40
1.0
 40
1.0
 40
1.0
 10
427.3228346456692
 20
21.25984251968504
 30
0.0
 10
427.3228346456692
 20
19.16010498687664
 30
0.0
 10
429.2913385826771
 20
17.716535433070867
 30
0.0
 10
433.22834645669286
 20
16.92913385826772
 30
0.0
  0
CIRCLE
  5
174
330
17
100
AcDbEntity
  8
Right wall plan
  6
DASHED
100
AcDbCircle
 10
421.4173228346457
 20
16.929133858267715
 30
0.0
 40
60.0
  0
CIRCLE
  5
175
330
17
100
AcDbEntity
  8
Right wall plan
  6
DASHED
100
AcDbCircle
 10
433.2283464566929
 20
16.929133858267715
 30
0.0
 40
60.0
  0
TEXT
  5
176
330
17
100
AcDbEntity
  8
LABELS
100
AcDbText
 10
274.64173228346453
 20
65.03937007874016
 30
0.0
 40
4.902362204724409
  1
RIGHT WALL PLAN  (1:1, inches)
 11
274.64173228346453
 21
65.03937007874016
 31
0.0
100
AcDbText
  0
HATCH
  5
179
330
17
100
AcDbEntity
  8
Right wall section hatch
 62
7
100
AcDbHatch
 10
0.0
 20
0.0
 30
0.0
210
0.0
220
0.0
230
1.0
  2
ANSI31
 70
0
 71
0
 91
1
 92
3
 72
0
 73
1
 93
5
 10
559.6771653543307
 20
109.01574803149606
 10
568.7322834645669
 20
109.01574803149606
 10
568.7322834645669
 20
0.0
 10
559.6771653543307
 20
0.0
 10
559.6771653543307
 20
109.01574803149606
 97
0
 75
1
 76
1
 52
0.0
 41
0.15748031496062992
 77
0
 78
1
 53
45.0
 43
0.0
 44
0.0
 45
-0.0139194248
 46
0.0139194248
 79
0
 98
0
  0
LWPOLYLINE
  5
17A
330
17
100
AcDbEntity
  8
Right wall section
100
AcDbPolyline
 90
5
 70
0
 10
559.6771653543307
 20
109.01574803149606
 10
568.7322834645669
 20
109.01574803149606
 10
568.7322834645669
 20
0.0
 10
559.6771653543307
 20
0.0
 10
559.6771653543307
 20
109.01574803149606
  0
HATCH
  5
17B
330
17
100
AcDbEntity
  8
Right wall section hatch
 62
7
100
AcDbHatch
 10
0.0
 20
0.0
 30
0.0
210
0.0
220
0.0
230
1.0
  2
ANSI31
 70
0
 71
0
 91
1
 92
3
 72
0
 73
1
 93
6
 10
568.7322834645669
 20
0.0
 10
569.5196850393701
 20
0.0
 10
569.5196850393701
 20
3.622047244094488
 10
569.1259842519685
 20
4.015748031496063
 10
568.7322834645669
 20
4.015748031496063
 10
568.7322834645669
 20
0.0
 97
0
 75
1
 76
1
 52
0.0
 41
0.15748031496062992
 77
0
 78
1
 53
45.0
 43
0.0
 44
0.0
 45
-0.0139194248
 46
0.0139194248
 79
0
 98
0
  0
LWPOLYLINE
  5
17C
330
17
100
AcDbEntity
  8
Right wall section
100
AcDbPolyline
 90
6
 70
0
 10
568.7322834645669
 20
0.0
 10
569.5196850393701
 20
0.0
 10
569.5196850393701
 20
3.622047244094489
 10
569.1259842519685
 20
4.015748031496059
 10
568.7322834645669
 20
4.015748031496059
 10
568.7322834645669
 20
0.0
  0
HATCH
  5
17D
330
17
100
AcDbEntity
  8
Right wall section hatch
 62
7
100
AcDbHatch
 10
0.0
 20
0.0
 30
0.0
210
0.0
220
0.0
230
1.0
  2
ANSI31
 70
0
 71
0
 91
1
 92
3
 72
0
 73
1
 93
100
 10
568.7322834645669
 20
25.433070866141733
 10
569.6377952755905
 20
25.433070866141733
 10
569.6635428950449
 20
25.43476221021211
 10
569.6887437772722
 20
25.439778862996967
 10
569.7130767078712
 20
25.44803475535696
 10
569.7362204724409
 20
25.459443818152668
 10
569.7576728929401
 20
25.473782374811357
 10
569.7769891707544
 20
25.490727364678666
 10
569.7939341606217
 20
25.510043642492832
 10
569.8082727172804
 20
25.531496062992126
 10
569.819681780076
 20
25.554639827561797
 10
569.8279376724361
 20
25.57897275816084
 10
569.832954325221
 20
25.604173640388126
 10
569.8346456692913
 20
25.62992125984252
 10
569.832954325221
 20
25.655668879296915
 10
569.8279376724361
 20
25.6808697615242
 10
569.819681780076
 20
25.705202692123244
 10
569.8082727172804
 20
25.728346456692915
 10
569.7939341606217
 20
25.749798877192205
 10
569.7769891707544
 20
25.76911515500637
 10
569.7576728929401
 20
25.786060144873684
 10
569.7362204724409
 20
25.80039870153237
 10
569.7130767078712
 20
25.811807764328076
 10
569.6887437772722
 20
25.82006365668807
 10
569.6635428950449
 20
25.82508030947293
 10
569.6377952755905
 20
25.826771653543307
 10
569.6635428950449
 20
25.828462997613684
 10
569.6887437772722
 20
25.833479650398544
 10
569.7130767078712
 20
25.84173554275854
 10
569.7362204724409
 20
25.85314460555424
 10
569.7576728929401
 20
25.86748316221293
 10
569.7769891707544
 20
25.88442815208024
 10
569.7939341606217
 20
25.903744429894406
 10
569.8082727172804
 20
25.9251968503937
 10
569.819681780076
 20
25.94834061496337
 10
569.8279376724361
 20
25.972673545562415
 10
569.832954325221
 20
25.9978744277897
 10
569.8346456692913
 20
26.023622047244093
 10
569.832954325221
 20
26.04936966669849
 10
569.8279376724361
 20
26.074570548925774
 10
569.819681780076
 20
26.098903479524818
 10
569.8082727172804
 20
26.12204724409449
 10
569.7939341606217
 20
26.143499664593783
 10
569.7769891707544
 20
26.16281594240795
 10
569.7576728929401
 20
26.179760932275258
 10
569.7362204724409
 20
26.194099488933944
 10
569.7130767078712
 20
26.20550855172965
 10
569.6887437772722
 20
26.213764444089644
 10
569.6635428950449
 20
26.218781096874505
 10
569.6377952755905
 20
26.22047244094488
 10
569.6635428950449
 20
26.22216378501526
 10
569.6887437772722
 20
26.22718043780012
 10
569.7130767078712
 20
26.235436330160113
 10
569.7362204724409
 20
26.24684539295582
 10
569.7576728929401
 20
26.261183949614505
 10
569.7769891707544
 20
26.278128939481814
 10
569.7939341606217
 20
26.29744521729598
 10
569.8082727172804
 20
26.318897637795274
 10
569.819681780076
 20
26.342041402364945
 10
569.8279376724361
 20
26.36637433296399
 10
569.832954325221
 20
26.391575215191274
 10
569.8346456692913
 20
26.41732283464567
 10
569.832954325221
 20
26.443070454100063
 10
569.8279376724361
 20
26.468271336327348
 10
569.819681780076
 20
26.492604266926392
 10
569.8082727172804
 20
26.515748031496063
 10
569.7939341606217
 20
26.537200451995357
 10
569.7769891707544
 20
26.556516729809523
 10
569.7576728929401
 20
26.573461719676832
 10
569.7362204724409
 20
26.58780027633552
 10
569.7130767078712
 20
26.599209339131225
 10
569.6887437772722
 20
26.60746523149122
 10
569.6635428950449
 20
26.61248188427608
 10
569.6377952755905
 20
26.614173228346456
 10
569.6635428950449
 20
26.615864572416832
 10
569.6887437772722
 20
26.620881225201693
 10
569.7130767078712
 20
26.629137117561687
 10
569.7362204724409
 20
26.640546180357394
 10
569.7576728929401
 20
26.65488473701608
 10
569.7769891707544
 20
26.67182972688339
 10
569.7939341606217
 20
26.691146004697558
 10
569.8082727172804
 20
26.712598425196852
 10
569.819681780076
 20
26.73574218976652
 10
569.8279376724361
 20
26.760075120365563
 10
569.832954325221
 20
26.78527600259285
 10
569.8346456692913
 20
26.811023622047244
 10
569.832954325221
 20
26.836771241501637
 10
569.8279376724361
 20
26.861972123728922
 10
569.819681780076
 20
26.886305054327966
 10
569.8082727172804
 20
26.909448818897637
 10
569.7939341606217
 20
26.93090123939693
 10
569.7769891707544
 20
26.950217517211097
 10
569.7576728929401
 20
26.967162507078406
 10
569.7362204724409
 20
26.981501063737095
 10
569.7130767078712
 20
26.992910126532802
 10
569.6887437772722
 20
27.001166018892796
 10
569.6635428950449
 20
27.006182671677657
 10
569.6377952755905
 20
27.00787401574803
 10
568.7322834645669
 20
27.00787401574803
 10
568.7322834645669
 20
25.433070866141733
 97
0
 75
1
 76
1
 52
0.0
 41
0.15748031496062992
 77
0
 78
1
 53
45.0
 43
0.0
 44
0.0
 45
-0.0139194248
 46
0.0139194248
 79
0
 98
0
  0
POLYLINE
  5
17E
330
17
100
AcDbEntity
  8
Right wall section
100
AcDb2dPolyline
 66
1
 10
0.0
 20
0.0
 30
0.0
 70
0
  0
VERTEX
  5
17F
330
17E
100
AcDbEntity
  8
Right wall section
100
AcDbVertex
100
AcDb2dVertex
 10
568.7322834645669
 20
25.433070866141733
 30
0.0
 70
0
  0
VERTEX
  5
180
330
17E
100
AcDbEntity
  8
Right wall section
100
AcDbVertex
100
AcDb2dVertex
 10
569.6377952755905
 20
25.433070866141733
 30
0.0
 70
0
  0
SEQEND
  5
181
330
17E
100
AcDbEntity
  8
Right wall section
  0
SPLINE
  5
182
330
17
100
AcDbEntity
  8
Right wall section
100
AcDbSpline
 70
0
 71
3
 72
23
 73
19
 74
0
 40
0.0
 40
0.0
 40
0.0
 40
0.0
 40
1.0
 40
1.0
 40
1.0
 40
2.0
 40
2.0
 40
2.0
 40
3.0
 40
3.0
 40
3.0
 40
4.0
 40
4.0
 40
4.0
 40
5.0
 40
5.0
 40
5.0
 40
6.0
 40
6.0
 40
6.0
 40
6.0
 10
569.6377952755905
 20
25.433070866141733
 30
0.0
 10
569.6723471643917
 20
25.433070866141733
 30
0.0
 10
569.7062976589904
 20
25.44216787375207
 30
0.0
 10
569.7362204724409
 20
25.459443818152664
 30
0.0
 10
569.7661432858914
 20
25.476719762553273
 30
0.0
 10
569.7909967728798
 20
25.501573249541565
 30
0.0
 10
569.8082727172804
 20
25.53149606299212
 30
0.0
 10
569.825548661681
 20
25.561418876442687
 30
0.0
 10
569.8346456692913
 20
25.59536937104133
 30
0.0
 10
569.8346456692913
 20
25.62992125984252
 30
0.0
 10
569.8346456692913
 20
25.664473148643694
 30
0.0
 10
569.825548661681
 20
25.69842364324235
 30
0.0
 10
569.8082727172804
 20
25.728346456692904
 30
0.0
 10
569.7909967728798
 20
25.758269270143472
 30
0.0
 10
569.7661432858914
 20
25.783122757131764
 30
0.0
 10
569.7362204724409
 20
25.800398701532373
 30
0.0
 10
569.7062976589904
 20
25.817674645932968
 30
0.0
 10
569.6723471643917
 20
25.826771653543304
 30
0.0
 10
569.6377952755905
 20
25.826771653543304
 30
0.0
  0
SPLINE
  5
183
330
17
100
AcDbEntity
  8
Right wall section
100
AcDbSpline
 70
0
 71
3
 72
23
 73
19
 74
0
 40
0.0
 40
0.0
 40
0.0
 40
0.0
 40
1.0
 40
1.0
 40
1.0
 40
2.0
 40
2.0
 40
2.0
 40
3.0
 40
3.0
 40
3.0
 40
4.0
 40
4.0
 40
4.0
 40
5.0
 40
5.0
 40
5.0
 40
6.0
 40
6.0
 40
6.0
 40
6.0
 10
569.6377952755905
 20
25.826771653543304
 30
0.0
 10
569.6723471643917
 20
25.826771653543304
 30
0.0
 10
569.7062976589904
 20
25.83586866115364
 30
0.0
 10
569.7362204724409
 20
25.853144605554235
 30
0.0
 10
569.7661432858914
 20
25.870420549954844
 30
0.0
 10
569.7909967728798
 20
25.895274036943135
 30
0.0
 10
569.8082727172804
 20
25.925196850393704
 30
0.0
 10
569.825548661681
 20
25.955119663844258
 30
0.0
 10
569.8346456692913
 20
25.989070158442914
 30
0.0
 10
569.8346456692913
 20
26.02362204724409
 30
0.0
 10
569.8346456692913
 20
26.05817393604528
 30
0.0
 10
569.825548661681
 20
26.09212443064392
 30
0.0
 10
569.8082727172804
 20
26.12204724409449
 30
0.0
 10
569.7909967728798
 20
26.151970057545043
 30
0.0
 10
569.7661432858914
 20
26.17682354453335
 30
0.0
 10
569.7362204724409
 20
26.194099488933944
 30
0.0
 10
569.7062976589904
 20
26.21137543333454
 30
0.0
 10
569.6723471643917
 20
26.220472440944874
 30
0.0
 10
569.6377952755905
 20
26.220472440944874
 30
0.0
  0
SPLINE
  5
184
330
17
100
AcDbEntity
  8
Right wall section
100
AcDbSpline
 70
0
 71
3
 72
23
 73
19
 74
0
 40
0.0
 40
0.0
 40
0.0
 40
0.0
 40
1.0
 40
1.0
 40
1.0
 40
2.0
 40
2.0
 40
2.0
 40
3.0
 40
3.0
 40
3.0
 40
4.0
 40
4.0
 40
4.0
 40
5.0
 40
5.0
 40
5.0
 40
6.0
 40
6.0
 40
6.0
 40
6.0
 10
569.6377952755905
 20
26.220472440944874
 30
0.0
 10
569.6723471643917
 20
26.220472440944874
 30
0.0
 10
569.7062976589904
 20
26.22956944855521
 30
0.0
 10
569.7362204724409
 20
26.24684539295582
 30
0.0
 10
569.7661432858914
 20
26.264121337356414
 30
0.0
 10
569.7909967728798
 20
26.288974824344706
 30
0.0
 10
569.8082727172804
 20
26.318897637795274
 30
0.0
 10
569.825548661681
 20
26.348820451245842
 30
0.0
 10
569.8346456692913
 20
26.382770945844484
 30
0.0
 10
569.8346456692913
 20
26.417322834645674
 30
0.0
 10
569.8346456692913
 20
26.45187472344685
 30
0.0
 10
569.825548661681
 20
26.48582521804549
 30
0.0
 10
569.8082727172804
 20
26.51574803149606
 30
0.0
 10
569.7909967728798
 20
26.545670844946628
 30
0.0
 10
569.7661432858914
 20
26.57052433193492
 30
0.0
 10
569.7362204724409
 20
26.587800276335514
 30
0.0
 10
569.7062976589904
 20
26.605076220736123
 30
0.0
 10
569.6723471643917
 20
26.61417322834646
 30
0.0
 10
569.6377952755905
 20
26.61417322834646
 30
0.0
  0
SPLINE
  5
185
330
17
100
AcDbEntity
  8
Right wall section
100
AcDbSpline
 70
0
 71
3
 72
23
 73
19
 74
0
 40
0.0
 40
0.0
 40
0.0
 40
0.0
 40
1.0
 40
1.0
 40
1.0
 40
2.0
 40
2.0
 40
2.0
 40
3.0
 40
3.0
 40
3.0
 40
4.0
 40
4.0
 40
4.0
 40
5.0
 40
5.0
 40
5.0
 40
6.0
 40
6.0
 40
6.0
 40
6.0
 10
569.6377952755905
 20
26.61417322834646
 30
0.0
 10
569.6723471643917
 20
26.61417322834646
 30
0.0
 10
569.7062976589904
 20
26.623270235956795
 30
0.0
 10
569.7362204724409
 20
26.64054618035739
 30
0.0
 10
569.7661432858914
 20
26.657822124757985
 30
0.0
 10
569.7909967728798
 20
26.68267561174629
 30
0.0
 10
569.8082727172804
 20
26.712598425196845
 30
0.0
 10
569.825548661681
 20
26.742521238647413
 30
0.0
 10
569.8346456692913
 20
26.776471733246055
 30
0.0
 10
569.8346456692913
 20
26.811023622047244
 30
0.0
 10
569.8346456692913
 20
26.84557551084842
 30
0.0
 10
569.825548661681
 20
26.879526005447076
 30
0.0
 10
569.8082727172804
 20
26.90944881889763
 30
0.0
 10
569.7909967728798
 20
26.939371632348198
 30
0.0
 10
569.7661432858914
 20
26.96422511933649
 30
0.0
 10
569.7362204724409
 20
26.9815010637371
 30
0.0
 10
569.7062976589904
 20
26.998777008137694
 30
0.0
 10
569.6723471643917
 20
27.00787401574803
 30
0.0
 10
569.6377952755905
 20
27.00787401574803
 30
0.0
  0
POLYLINE
  5
186
330
17
100
AcDbEntity
  8
Right wall section
100
AcDb2dPolyline
 66
1
 10
0.0
 20
0.0
 30
0.0
 70
0
  0
VERTEX
  5
187
330
186
100
AcDbEntity
  8
Right wall section
100
AcDbVertex
100
AcDb2dVertex
 10
569.6377952755905
 20
27.00787401574803
 30
0.0
 70
0
  0
VERTEX
  5
188
330
186
100
AcDbEntity
  8
Right wall section
100
AcDbVertex
100
AcDb2dVertex
 10
568.7322834645669
 20
27.00787401574803
 30
0.0
 70
0
  0
VERTEX
  5
189
330
186
100
AcDbEntity
  8
Right wall section
100
AcDbVertex
100
AcDb2dVertex
 10
568.7322834645669
 20
25.433070866141733
 30
0.0
 70
0
  0
SEQEND
  5
18A
330
186
100
AcDbEntity
  8
Right wall section
  0
LWPOLYLINE
  5
18B
330
17
100
AcDbEntity
  8
Right wall section
  6
DASHED
100
AcDbPolyline
 90
3
 70
0
 10
568.7322834645669
 20
109.01574803149606
 10
568.7322834645669
 20
113.74015748031496
 10
582.511811023622
 20
113.74015748031496
  0
HATCH
  5
18C
330
17
100
AcDbEntity
  8
Right wall section hatch
 62
7
100
AcDbHatch
 10
0.0
 20
0.0
 30
0.0
210
0.0
220
0.0
230
1.0
  2
ANSI31
 70
0
 71
0
 91
1
 92
3
 72
0
 73
1
 93
5
 10
568.7322834645669
 20
10.511811023622046
 10
569.6771653543307
 20
10.511811023622046
 10
569.6771653543307
 20
8.346456692913385
 10
568.7322834645669
 20
8.346456692913385
 10
568.7322834645669
 20
10.511811023622046
 97
0
 75
1
 76
1
 52
0.0
 41
0.15748031496062992
 77
0
 78
1
 53
45.0
 43
0.0
 44
0.0
 45
-0.0139194248
 46
0.0139194248
 79
0
 98
0
  0
LWPOLYLINE
  5
18D
330
17
100
AcDbEntity
  8
Right wall section
100
AcDbPolyline
 90
5
 70
0
 10
568.7322834645669
 20
10.511811023622045
 10
569.6771653543307
 20
10.511811023622045
 10
569.6771653543307
 20
8.346456692913378
 10
568.7322834645669
 20
8.346456692913378
 10
568.7322834645669
 20
10.511811023622045
  0
HATCH
  5
18E
330
17
100
AcDbEntity
  8
Right wall section hatch
 62
7
100
AcDbHatch
 10
0.0
 20
0.0
 30
0.0
210
0.0
220
0.0
230
1.0
  2
ANSI31
 70
0
 71
0
 91
1
 92
3
 72
0
 73
1
 93
5
 10
568.7322834645669
 20
21.496062992125985
 10
569.6771653543307
 20
21.496062992125985
 10
569.6771653543307
 20
19.330708661417322
 10
568.7322834645669
 20
19.330708661417322
 10
568.7322834645669
 20
21.496062992125985
 97
0
 75
1
 76
1
 52
0.0
 41
0.15748031496062992
 77
0
 78
1
 53
45.0
 43
0.0
 44
0.0
 45
-0.0139194248
 46
0.0139194248
 79
0
 98
0
  0
LWPOLYLINE
  5
18F
330
17
100
AcDbEntity
  8
Right wall section
100
AcDbPolyline
 90
5
 70
0
 10
568.7322834645669
 20
21.496062992125985
 10
569.6771653543307
 20
21.496062992125985
 10
569.6771653543307
 20
19.33070866141732
 10
568.7322834645669
 20
19.33070866141732
 10
568.7322834645669
 20
21.496062992125985
  0
HATCH
  5
190
330
17
100
AcDbEntity
  8
Right wall section hatch
 62
7
100
AcDbHatch
 10
0.0
 20
0.0
 30
0.0
210
0.0
220
0.0
230
1.0
  2
ANSI31
 70
0
 71
0
 91
1
 92
3
 72
0
 73
1
 93
5
 10
568.7322834645669
 20
33.503937007874015
 10
569.6771653543307
 20
33.503937007874015
 10
569.6771653543307
 20
31.338582677165356
 10
568.7322834645669
 20
31.338582677165356
 10
568.7322834645669
 20
33.503937007874015
 97
0
 75
1
 76
1
 52
0.0
 41
0.15748031496062992
 77
0
 78
1
 53
45.0
 43
0.0
 44
0.0
 45
-0.0139194248
 46
0.0139194248
 79
0
 98
0
  0
LWPOLYLINE
  5
191
330
17
100
AcDbEntity
  8
Right wall section
100
AcDbPolyline
 90
5
 70
0
 10
568.7322834645669
 20
33.503937007874015
 10
569.6771653543307
 20
33.503937007874015
 10
569.6771653543307
 20
31.33858267716535
 10
568.7322834645669
 20
31.33858267716535
 10
568.7322834645669
 20
33.503937007874015
  0
HATCH
  5
192
330
17
100
AcDbEntity
  8
Right wall section hatch
 62
7
100
AcDbHatch
 10
0.0
 20
0.0
 30
0.0
210
0.0
220
0.0
230
1.0
  2
ANSI31
 70
0
 71
0
 91
1
 92
3
 72
0
 73
1
 93
5
 10
568.7322834645669
 20
97.00787401574803
 10
569.6771653543307
 20
97.00787401574803
 10
569.6771653543307
 20
94.84251968503936
 10
568.7322834645669
 20
94.84251968503936
 10
568.7322834645669
 20
97.00787401574803
 97
0
 75
1
 76
1
 52
0.0
 41
0.15748031496062992
 77
0
 78
1
 53
45.0
 43
0.0
 44
0.0
 45
-0.0139194248
 46
0.0139194248
 79
0
 98
0
  0
LWPOLYLINE
  5
193
330
17
100
AcDbEntity
  8
Right wall section
100
AcDbPolyline
 90
5
 70
0
 10
568.7322834645669
 20
97.00787401574803
 10
569.6771653543307
 20
97.00787401574803
 10
569.6771653543307
 20
94.84251968503936
 10
568.7322834645669
 20
94.84251968503936
 10
568.7322834645669
 20
97.00787401574803
  0
LWPOLYLINE
  5
194
330
17
100
AcDbEntity
  8
Right wall section
100
AcDbPolyline
 90
5
 70
0
 10
568.7322834645669
 20
53.14960629921259
 10
569.4409448818897
 20
53.14960629921259
 10
569.4409448818897
 20
48.4251968503937
 10
568.7322834645669
 20
48.4251968503937
 10
568.7322834645669
 20
53.14960629921259
  0
SPLINE
  5
195
330
17
100
AcDbEntity
  8
Right wall section
100
AcDbSpline
 70
0
 71
3
 72
8
 73
4
 74
0
 40
0.0
 40
0.0
 40
0.0
 40
0.0
 40
1.0
 40
1.0
 40
1.0
 40
1.0
 10
569.4409448818897
 20
50.39370078740157
 30
0.0
 10
572.275590551181
 20
48.031496062992126
 30
0.0
 10
577.0
 20
48.818897637795274
 30
0.0
 10
577.7874015748031
 20
51.574803149606296
 30
0.0
  0
LWPOLYLINE
  5
196
330
17
100
AcDbEntity
  8
Right wall section
100
AcDbPolyline
 90
5
 70
0
 10
577.4724409448818
 20
54.33070866141732
 10
578.1023622047244
 20
54.33070866141732
 10
578.1023622047244
 20
51.574803149606296
 10
577.4724409448818
 20
51.574803149606296
 10
577.4724409448818
 20
54.33070866141732
  0
LWPOLYLINE
  5
197
330
17
100
AcDbEntity
  8
Right wall section
100
AcDbPolyline
 90
5
 70
0
 10
575.4251968503936
 20
54.33070866141732
 10
580.1496062992126
 20
54.33070866141732
 10
579.2047244094488
 20
58.26771653543307
 10
576.3700787401574
 20
58.26771653543307
 10
575.4251968503936
 20
54.33070866141732
  0
LINE
  5
198
330
17
100
AcDbEntity
  8
Right wall section
100
AcDbLine
 10
556.5275590551181
 20
0.0
 30
0.0
 11
587.6299212598425
 21
0.0
 31
0.0
  0
LINE
  5
199
330
17
100
AcDbEntity
  8
Right wall section
100
AcDbLine
 10
556.5275590551181
 20
109.01574803149606
 30
0.0
 11
587.6299212598425
 21
109.01574803149606
 31
0.0
  0
TEXT
  5
19A
330
17
100
AcDbEntity
  8
LABELS
100
AcDbText
 10
556.5275590551181
 20
116.10236220472441
 30
0.0
 40
0.7086614173228346
  1
RIGHT WALL SECTION  (1:1, inches)
 11
556.5275590551181
 21
116.10236220472441
 31
0.0
100
AcDbText
  0
HATCH
  5
19D
330
17
100
AcDbEntity
  8
Panel moulding section hatch
 62
7
100
AcDbHatch
 10
0.0
 20
0.0
 30
0.0
210
0.0
220
0.0
230
1.0
  2
ANSI31
 70
0
 71
0
 91
1
 92
3
 72
0
 73
1
 93
21
 10
597.7086614173228
 20
0.0
 10
597.7086614173228
 20
0.19685039370078738
 10
597.767716535433
 20
0.3543307086614173
 10
597.8661417322834
 20
0.47244094488188976
 10
598.003937007874
 20
0.5511811023622047
 10
598.1811023622047
 20
0.5905511811023622
 10
598.363188976378
 20
0.6225393700787402
 10
598.5157480314961
 20
0.6791338582677166
 10
598.638779527559
 20
0.7603346456692913
 10
598.7322834645669
 20
0.8661417322834646
 10
598.8479330708661
 20
0.890748031496063
 10
598.9586614173228
 20
0.8858267716535433
 10
599.064468503937
 20
0.8513779527559056
 10
599.1653543307086
 20
0.7874015748031495
 10
599.300688976378
 20
0.5954724409448818
 10
599.4311023622047
 20
0.452755905511811
 10
599.5565944881889
 20
0.359251968503937
 10
599.6771653543307
 20
0.31496062992125984
 10
599.8740157480314
 20
0.31496062992125984
 10
599.8740157480314
 20
0.0
 10
597.7086614173228
 20
0.0
 97
0
 75
1
 76
1
 52
0.0
 41
0.15748031496062992
 77
0
 78
1
 53
45.0
 43
0.0
 44
0.0
 45
-0.0139194248
 46
0.0139194248
 79
0
 98
0
  0
POLYLINE
  5
19E
330
17
100
AcDbEntity
  8
Panel moulding section
100
AcDb2dPolyline
 66
1
 10
0.0
 20
0.0
 30
0.0
 70
0
  0
VERTEX
  5
19F
330
19E
100
AcDbEntity
  8
Panel moulding section
100
AcDbVertex
100
AcDb2dVertex
 10
597.7086614173228
 20
0.0
 30
0.0
 70
0
  0
VERTEX
  5
1A0
330
19E
100
AcDbEntity
  8
Panel moulding section
100
AcDbVertex
100
AcDb2dVertex
 10
597.7086614173228
 20
0.19685039370078738
 30
0.0
 70
0
  0
SEQEND
  5
1A1
330
19E
100
AcDbEntity
  8
Panel moulding section
  0
SPLINE
  5
1A2
330
17
100
AcDbEntity
  8
Panel moulding section
100
AcDbSpline
 70
0
 71
3
 72
11
 73
7
 74
0
 40
0.0
 40
0.0
 40
0.0
 40
0.0
 40
1.0
 40
1.0
 40
1.0
 40
2.0
 40
2.0
 40
2.0
 40
2.0
 10
597.7086614173228
 20
0.19685039370078738
 30
0.0
 10
597.761154855643
 20
0.4330708661417323
 30
0.0
 10
597.9186351706036
 20
0.5643044619422573
 30
0.0
 10
598.1811023622047
 20
0.5905511811023622
 30
0.0
 10
598.4435695538058
 20
0.6167979002624672
 30
0.0
 10
598.6272965879265
 20
0.7086614173228347
 30
0.0
 10
598.7322834645669
 20
0.8661417322834646
 30
0.0
  0
SPLINE
  5
1A3
330
17
100
AcDbEntity
  8
Panel moulding section
100
AcDbSpline
 70
0
 71
3
 72
8
 73
4
 74
0
 40
0.0
 40
0.0
 40
0.0
 40
0.0
 40
1.0
 40
1.0
 40
1.0
 40
1.0
 10
598.7322834645669
 20
0.8661417322834646
 30
0.0
 10
598.8897637795276
 20
0.9186351706036745
 30
0.0
 10
599.0341207349081
 20
0.8923884514435695
 30
0.0
 10
599.1653543307086
 20
0.7874015748031495
 30
0.0
  0
SPLINE
  5
1A4
330
17
100
AcDbEntity
  8
Panel moulding section
100
AcDbSpline
 70
0
 71
3
 72
8
 73
4
 74
0
 40
0.0
 40
0.0
 40
0.0
 40
0.0
 40
1.0
 40
1.0
 40
1.0
 40
1.0
 10
599.1653543307086
 20
0.7874015748031495
 30
0.0
 10
599.3490813648293
 20
0.4986876640419947
 30
0.0
 10
599.51968503937
 20
0.3412073490813648
 30
0.0
 10
599.6771653543307
 20
0.31496062992125984
 30
0.0
  0
POLYLINE
  5
1A5
330
17
100
AcDbEntity
  8
Panel moulding section
100
AcDb2dPolyline
 66
1
 10
0.0
 20
0.0
 30
0.0
 70
0
  0
VERTEX
  5
1A6
330
1A5
100
AcDbEntity
  8
Panel moulding section
100
AcDbVertex
100
AcDb2dVertex
 10
599.6771653543307
 20
0.31496062992125984
 30
0.0
 70
0
  0
VERTEX
  5
1A7
330
1A5
100
AcDbEntity
  8
Panel moulding section
100
AcDbVertex
100
AcDb2dVertex
 10
599.8740157480314
 20
0.31496062992125984
 30
0.0
 70
0
  0
VERTEX
  5
1A8
330
1A5
100
AcDbEntity
  8
Panel moulding section
100
AcDbVertex
100
AcDb2dVertex
 10
599.8740157480314
 20
0.0
 30
0.0
 70
0
  0
VERTEX
  5
1A9
330
1A5
100
AcDbEntity
  8
Panel moulding section
100
AcDbVertex
100
AcDb2dVertex
 10
597.7086614173228
 20
0.0
 30
0.0
 70
0
  0
SEQEND
  5
1AA
330
1A5
100
AcDbEntity
  8
Panel moulding section
  0
LINE
  5
1AB
330
17
100
AcDbEntity
  8
Panel moulding section
100
AcDbLine
 10
597.4724409448819
 20
0.0
 30
0.0
 11
600.1496062992126
 21
0.0
 31
0.0
  0
TEXT
  5
1AC
330
17
100
AcDbEntity
  8
LABELS
100
AcDbText
 10
597.4724409448819
 20
3.2545931758530187
 30
0.0
 40
0.7086614173228346
  1
PANEL MOULDING SECTION  (1:1, inches)
 11
597.4724409448819
 21
3.2545931758530187
 31
0.0
100
AcDbText
  0
HATCH
  5
1AF
330
17
100
AcDbEntity
  8
Dado rail section hatch
 62
7
100
AcDbHatch
 10
0.0
 20
0.0
 30
0.0
210
0.0
220
0.0
230
1.0
  2
ANSI31
 70
0
 71
0
 91
1
 92
3
 72
0
 73
1
 93
5
 10
609.992125984252
 20
2.7559055118110236
 10
610.9370078740158
 20
2.7559055118110236
 10
610.9370078740158
 20
0.0
 10
609.992125984252
 20
0.0
 10
609.992125984252
 20
2.7559055118110236
 97
0
 75
1
 76
1
 52
0.0
 41
0.15748031496062992
 77
0
 78
1
 53
45.0
 43
0.0
 44
0.0
 45
-0.0139194248
 46
0.0139194248
 79
0
 98
0
  0
HATCH
  5
1B0
330
17
100
AcDbEntity
  8
Dado rail section hatch
 62
7
100
AcDbHatch
 10
0.0
 20
0.0
 30
0.0
210
0.0
220
0.0
230
1.0
  2
ANSI31
 70
0
 71
0
 91
1
 92
3
 72
0
 73
1
 93
100
 10
610.9370078740158
 20
0.5905511811023622
 10
611.8425196850393
 20
0.5905511811023622
 10
611.8682673044937
 20
0.5922425251727386
 10
611.8934681867211
 20
0.5972591779575986
 10
611.9178011173201
 20
0.6055150703175926
 10
611.9409448818898
 20
0.6169241331132987
 10
611.962397302389
 20
0.6312626897719863
 10
611.9817135802032
 20
0.648207679639296
 10
611.9986585700705
 20
0.6675239574534624
 10
612.0129971267291
 20
0.6889763779527559
 10
612.0244061895249
 20
0.7121201425224257
 10
612.0326620818848
 20
0.7364530731214701
 10
612.0376787346697
 20
0.7616539553487558
 10
612.0393700787401
 20
0.7874015748031495
 10
612.0376787346697
 20
0.8131491942575434
 10
612.0326620818848
 20
0.8383500764848291
 10
612.0244061895249
 20
0.8626830070838735
 10
612.0129971267291
 20
0.8858267716535433
 10
611.9986585700705
 20
0.9072791921528368
 10
611.9817135802032
 20
0.9265954699670031
 10
611.962397302389
 20
0.9435404598343129
 10
611.9409448818898
 20
0.9578790164930004
 10
611.9178011173201
 20
0.9692880792887066
 10
611.8934681867211
 20
0.9775439716487005
 10
611.8682673044937
 20
0.9825606244335606
 10
611.8425196850393
 20
0.984251968503937
 10
611.8682673044937
 20
0.9859433125743133
 10
611.8934681867211
 20
0.9909599653591734
 10
611.9178011173201
 20
0.9992158577191673
 10
611.9409448818898
 20
1.0106249205148736
 10
611.962397302389
 20
1.0249634771735612
 10
611.9817135802032
 20
1.0419084670408707
 10
611.9986585700705
 20
1.0612247448550371
 10
612.0129971267291
 20
1.0826771653543308
 10
612.0244061895249
 20
1.1058209299240005
 10
612.0326620818848
 20
1.130153860523045
 10
612.0376787346697
 20
1.1553547427503306
 10
612.0393700787401
 20
1.1811023622047243
 10
612.0376787346697
 20
1.206849981659118
 10
612.0326620818848
 20
1.2320508638864038
 10
612.0244061895249
 20
1.2563837944854483
 10
612.0129971267291
 20
1.279527559055118
 10
611.9986585700705
 20
1.3009799795544115
 10
611.9817135802032
 20
1.320296257368578
 10
611.962397302389
 20
1.3372412472358877
 10
611.9409448818898
 20
1.3515798038945752
 10
611.9178011173201
 20
1.3629888666902814
 10
611.8934681867211
 20
1.3712447590502754
 10
611.8682673044937
 20
1.3762614118351355
 10
611.8425196850393
 20
1.3779527559055118
 10
611.8682673044937
 20
1.379644099975888
 10
611.8934681867211
 20
1.3846607527607482
 10
611.9178011173201
 20
1.3929166451207422
 10
611.9409448818898
 20
1.4043257079164484
 10
611.962397302389
 20
1.418664264575136
 10
611.9817135802032
 20
1.4356092544424457
 10
611.9986585700705
 20
1.454925532256612
 10
612.0129971267291
 20
1.4763779527559056
 10
612.0244061895249
 20
1.4995217173255753
 10
612.0326620818848
 20
1.5238546479246198
 10
612.0376787346697
 20
1.5490555301519053
 10
612.0393700787401
 20
1.574803149606299
 10
612.0376787346697
 20
1.600550769060693
 10
612.0326620818848
 20
1.6257516512879786
 10
612.0244061895249
 20
1.6500845818870231
 10
612.0129971267291
 20
1.6732283464566928
 10
611.9986585700705
 20
1.6946807669559865
 10
611.9817135802032
 20
1.7139970447701527
 10
611.962397302389
 20
1.7309420346374624
 10
611.9409448818898
 20
1.74528059129615
 10
611.9178011173201
 20
1.7566896540918562
 10
611.8934681867211
 20
1.7649455464518502
 10
611.8682673044937
 20
1.7699621992367103
 10
611.8425196850393
 20
1.7716535433070866
 10
611.8682673044937
 20
1.7733448873774629
 10
611.8934681867211
 20
1.778361540162323
 10
611.9178011173201
 20
1.786617432522317
 10
611.9409448818898
 20
1.7980264953180232
 10
611.962397302389
 20
1.8123650519767107
 10
611.9817135802032
 20
1.8293100418440205
 10
611.9986585700705
 20
1.848626319658187
 10
612.0129971267291
 20
1.8700787401574803
 10
612.0244061895249
 20
1.89322250472715
 10
612.0326620818848
 20
1.9175554353261945
 10
612.0376787346697
 20
1.9427563175534803
 10
612.0393700787401
 20
1.968503937007874
 10
612.0376787346697
 20
1.9942515564622678
 10
612.0326620818848
 20
2.0194524386895534
 10
612.0244061895249
 20
2.0437853692885977
 10
612.0129971267291
 20
2.0669291338582676
 10
611.9986585700705
 20
2.0883815543575612
 10
611.9817135802032
 20
2.1076978321717275
 10
611.962397302389
 20
2.1246428220390374
 10
611.9409448818898
 20
2.138981378697725
 10
611.9178011173201
 20
2.150390441493431
 10
611.8934681867211
 20
2.158646333853425
 10
611.8682673044937
 20
2.163662986638285
 10
611.8425196850393
 20
2.1653543307086616
 10
610.9370078740158
 20
2.1653543307086616
 10
610.9370078740158
 20
0.5905511811023622
 97
0
 75
1
 76
1
 52
0.0
 41
0.15748031496062992
 77
0
 78
1
 53
45.0
 43
0.0
 44
0.0
 45
-0.0139194248
 46
0.0139194248
 79
0
 98
0
  0
POLYLINE
  5
1B1
330
17
100
AcDbEntity
  8
Dado rail section
100
AcDb2dPolyline
 66
1
 10
0.0
 20
0.0
 30
0.0
 70
0
  0
VERTEX
  5
1B2
330
1B1
100
AcDbEntity
  8
Dado rail section
100
AcDbVertex
100
AcDb2dVertex
 10
610.9370078740158
 20
0.59055118110237
 30
0.0
 70
0
  0
VERTEX
  5
1B3
330
1B1
100
AcDbEntity
  8
Dado rail section
100
AcDbVertex
100
AcDb2dVertex
 10
611.8425196850394
 20
0.59055118110237
 30
0.0
 70
0
  0
SEQEND
  5
1B4
330
1B1
100
AcDbEntity
  8
Dado rail section
  0
SPLINE
  5
1B5
330
17
100
AcDbEntity
  8
Dado rail section
100
AcDbSpline
 70
0
 71
3
 72
23
 73
19
 74
0
 40
0.0
 40
0.0
 40
0.0
 40
0.0
 40
1.0
 40
1.0
 40
1.0
 40
2.0
 40
2.0
 40
2.0
 40
3.0
 40
3.0
 40
3.0
 40
4.0
 40
4.0
 40
4.0
 40
5.0
 40
5.0
 40
5.0
 40
6.0
 40
6.0
 40
6.0
 40
6.0
 10
611.8425196850394
 20
0.59055118110237
 30
0.0
 10
611.8770715738406
 20
0.59055118110237
 30
0.0
 10
611.9110220684393
 20
0.5996481887127061
 30
0.0
 10
611.9409448818898
 20
0.6169241331133009
 30
0.0
 10
611.9708676953403
 20
0.6342000775139098
 30
0.0
 10
611.9957211823287
 20
0.6590535645022015
 30
0.0
 10
612.0129971267293
 20
0.6889763779527556
 30
0.0
 10
612.0302730711298
 20
0.7188991914033238
 30
0.0
 10
612.0393700787401
 20
0.7528496860019658
 30
0.0
 10
612.0393700787401
 20
0.7874015748031553
 30
0.0
 10
612.0393700787401
 20
0.8219534636043306
 30
0.0
 10
612.0302730711298
 20
0.8559039582029868
 30
0.0
 10
612.0129971267293
 20
0.8858267716535408
 30
0.0
 10
611.9957211823287
 20
0.9157495851041091
 30
0.0
 10
611.9708676953403
 20
0.9406030720924008
 30
0.0
 10
611.9409448818898
 20
0.9578790164930098
 30
0.0
 10
611.9110220684393
 20
0.9751549608936045
 30
0.0
 10
611.8770715738406
 20
0.9842519685039406
 30
0.0
 10
611.8425196850394
 20
0.9842519685039406
 30
0.0
  0
SPLINE
  5
1B6
330
17
100
AcDbEntity
  8
Dado rail section
100
AcDbSpline
 70
0
 71
3
 72
23
 73
19
 74
0
 40
0.0
 40
0.0
 40
0.0
 40
0.0
 40
1.0
 40
1.0
 40
1.0
 40
2.0
 40
2.0
 40
2.0
 40
3.0
 40
3.0
 40
3.0
 40
4.0
 40
4.0
 40
4.0
 40
5.0
 40
5.0
 40
5.0
 40
6.0
 40
6.0
 40
6.0
 40
6.0
 10
611.8425196850394
 20
0.9842519685039406
 30
0.0
 10
611.8770715738406
 20
0.9842519685039406
 30
0.0
 10
611.9110220684393
 20
0.9933489761142766
 30
0.0
 10
611.9409448818898
 20
1.0106249205148714
 30
0.0
 10
611.9708676953403
 20
1.0279008649154804
 30
0.0
 10
611.9957211823287
 20
1.052754351903772
 30
0.0
 10
612.0129971267293
 20
1.0826771653543403
 30
0.0
 10
612.0302730711298
 20
1.1125999788048944
 30
0.0
 10
612.0393700787401
 20
1.1465504734035505
 30
0.0
 10
612.0393700787401
 20
1.1811023622047259
 30
0.0
 10
612.0393700787401
 20
1.2156542510059154
 30
0.0
 10
612.0302730711298
 20
1.2496047456045574
 30
0.0
 10
612.0129971267293
 20
1.2795275590551256
 30
0.0
 10
611.9957211823287
 20
1.3094503725056796
 30
0.0
 10
611.9708676953403
 20
1.3343038594939856
 30
0.0
 10
611.9409448818898
 20
1.3515798038945803
 30
0.0
 10
611.9110220684393
 20
1.368855748295175
 30
0.0
 10
611.8770715738406
 20
1.3779527559055111
 30
0.0
 10
611.8425196850394
 20
1.3779527559055111
 30
0.0
  0
SPLINE
  5
1B7
330
17
100
AcDbEntity
  8
Dado rail section
100
AcDbSpline
 70
0
 71
3
 72
23
 73
19
 74
0
 40
0.0
 40
0.0
 40
0.0
 40
0.0
 40
1.0
 40
1.0
 40
1.0
 40
2.0
 40
2.0
 40
2.0
 40
3.0
 40
3.0
 40
3.0
 40
4.0
 40
4.0
 40
4.0
 40
5.0
 40
5.0
 40
5.0
 40
6.0
 40
6.0
 40
6.0
 40
6.0
 10
611.8425196850394
 20
1.3779527559055111
 30
0.0
 10
611.8770715738406
 20
1.3779527559055111
 30
0.0
 10
611.9110220684393
 20
1.3870497635158472
 30
0.0
 10
611.9409448818898
 20
1.4043257079164562
 30
0.0
 10
611.9708676953403
 20
1.421601652317051
 30
0.0
 10
611.9957211823287
 20
1.4464551393053426
 30
0.0
 10
612.0129971267293
 20
1.4763779527559109
 30
0.0
 10
612.0302730711298
 20
1.5063007662064791
 30
0.0
 10
612.0393700787401
 20
1.540251260805121
 30
0.0
 10
612.0393700787401
 20
1.5748031496063106
 30
0.0
 10
612.0393700787401
 20
1.609355038407486
 30
0.0
 10
612.0302730711298
 20
1.643305533006128
 30
0.0
 10
612.0129971267293
 20
1.6732283464566962
 30
0.0
 10
611.9957211823287
 20
1.7031511599072644
 30
0.0
 10
611.9708676953403
 20
1.728004646895556
 30
0.0
 10
611.9409448818898
 20
1.7452805912961509
 30
0.0
 10
611.9110220684393
 20
1.7625565356967599
 30
0.0
 10
611.8770715738406
 20
1.771653543307096
 30
0.0
 10
611.8425196850394
 20
1.771653543307096
 30
0.0
  0
SPLINE
  5
1B8
330
17
100
AcDbEntity
  8
Dado rail section
100
AcDbSpline
 70
0
 71
3
 72
23
 73
19
 74
0
 40
0.0
 40
0.0
 40
0.0
 40
0.0
 40
1.0
 40
1.0
 40
1.0
 40
2.0
 40
2.0
 40
2.0
 40
3.0
 40
3.0
 40
3.0
 40
4.0
 40
4.0
 40
4.0
 40
5.0
 40
5.0
 40
5.0
 40
6.0
 40
6.0
 40
6.0
 40
6.0
 10
611.8425196850394
 20
1.771653543307096
 30
0.0
 10
611.8770715738406
 20
1.771653543307096
 30
0.0
 10
611.9110220684393
 20
1.780750550917432
 30
0.0
 10
611.9409448818898
 20
1.7980264953180267
 30
0.0
 10
611.9708676953403
 20
1.8153024397186215
 30
0.0
 10
611.9957211823287
 20
1.8401559267069274
 30
0.0
 10
612.0129971267293
 20
1.8700787401574814
 30
0.0
 10
612.0302730711298
 20
1.9000015536080497
 30
0.0
 10
612.0393700787401
 20
1.9339520482066916
 30
0.0
 10
612.0393700787401
 20
1.9685039370078812
 30
0.0
 10
612.0393700787401
 20
2.0030558258090565
 30
0.0
 10
612.0302730711298
 20
2.0370063204077127
 30
0.0
 10
612.0129971267293
 20
2.0669291338582667
 30
0.0
 10
611.9957211823287
 20
2.096851947308835
 30
0.0
 10
611.9708676953403
 20
2.1217054342971267
 30
0.0
 10
611.9409448818898
 20
2.1389813786977356
 30
0.0
 10
611.9110220684393
 20
2.1562573230983304
 30
0.0
 10
611.8770715738406
 20
2.1653543307086665
 30
0.0
 10
611.8425196850394
 20
2.1653543307086665
 30
0.0
  0
POLYLINE
  5
1B9
330
17
100
AcDbEntity
  8
Dado rail section
100
AcDb2dPolyline
 66
1
 10
0.0
 20
0.0
 30
0.0
 70
0
  0
VERTEX
  5
1BA
330
1B9
100
AcDbEntity
  8
Dado rail section
100
AcDbVertex
100
AcDb2dVertex
 10
611.8425196850394
 20
2.1653543307086665
 30
0.0
 70
0
  0
VERTEX
  5
1BB
330
1B9
100
AcDbEntity
  8
Dado rail section
100
AcDbVertex
100
AcDb2dVertex
 10
610.9370078740158
 20
2.1653543307086665
 30
0.0
 70
0
  0
VERTEX
  5
1BC
330
1B9
100
AcDbEntity
  8
Dado rail section
100
AcDbVertex
100
AcDb2dVertex
 10
610.9370078740158
 20
0.59055118110237
 30
0.0
 70
0
  0
SEQEND
  5
1BD
330
1B9
100
AcDbEntity
  8
Dado rail section
  0
LINE
  5
1BE
330
17
100
AcDbEntity
  8
Dado rail section
100
AcDbLine
 10
610.9370078740158
 20
2.7559055118110236
 30
0.0
 11
610.9370078740158
 21
0.0
 31
0.0
  0
TEXT
  5
1BF
330
17
100
AcDbEntity
  8
LABELS
100
AcDbText
 10
609.992125984252
 20
5.118110236220472
 30
0.0
 40
0.7086614173228346
  1
DADO RAIL SECTION  (1:1, inches)
 11
609.992125984252
 21
5.118110236220472
 31
0.0
100
AcDbText
  0
HATCH
  5
1C2
330
17
100
AcDbEntity
  8
Skirting section hatch
 62
7
100
AcDbHatch
 10
0.0
 20
0.0
 30
0.0
210
0.0
220
0.0
230
1.0
  2
ANSI31
 70
0
 71
0
 91
1
 92
3
 72
0
 73
1
 93
5
 10
621.8818897637794
 20
4.606299212598425
 10
623.4566929133858
 20
4.606299212598425
 10
623.4566929133858
 20
0.0
 10
621.8818897637794
 20
0.0
 10
621.8818897637794
 20
4.606299212598425
 97
0
 75
1
 76
1
 52
0.0
 41
0.15748031496062992
 77
0
 78
1
 53
45.0
 43
0.0
 44
0.0
 45
-0.0139194248
 46
0.0139194248
 79
0
 98
0
  0
HATCH
  5
1C3
330
17
100
AcDbEntity
  8
Skirting section hatch
 62
7
100
AcDbHatch
 10
0.0
 20
0.0
 30
0.0
210
0.0
220
0.0
230
1.0
  2
ANSI31
 70
0
 71
0
 91
1
 92
3
 72
0
 73
1
 93
6
 10
623.4566929133858
 20
0.0
 10
624.2440944881889
 20
0.0
 10
624.2440944881889
 20
3.622047244094488
 10
623.8503937007873
 20
4.015748031496063
 10
623.4566929133858
 20
4.015748031496063
 10
623.4566929133858
 20
0.0
 97
0
 75
1
 76
1
 52
0.0
 41
0.15748031496062992
 77
0
 78
1
 53
45.0
 43
0.0
 44
0.0
 45
-0.0139194248
 46
0.0139194248
 79
0
 98
0
  0
LWPOLYLINE
  5
1C4
330
17
100
AcDbEntity
  8
Skirting section
100
AcDbPolyline
 90
6
 70
0
 10
623.4566929133858
 20
0.0
 10
624.244094488189
 20
0.0
 10
624.244094488189
 20
3.622047244094489
 10
623.8503937007874
 20
4.015748031496059
 10
623.4566929133858
 20
4.015748031496059
 10
623.4566929133858
 20
0.0
  0
LINE
  5
1C5
330
17
100
AcDbEntity
  8
Skirting section
100
AcDbLine
 10
623.4566929133858
 20
4.606299212598425
 30
0.0
 11
623.4566929133858
 21
0.0
 31
0.0
  0
LINE
  5
1C6
330
17
100
AcDbEntity
  8
Skirting section
100
AcDbLine
 10
621.8818897637794
 20
0.0
 30
0.0
 11
625.8188976377952
 21
0.0
 31
0.0
  0
TEXT
  5
1C7
330
17
100
AcDbEntity
  8
LABELS
100
AcDbText
 10
621.8818897637794
 20
6.968503937007874
 30
0.0
 40
0.7086614173228346
  1
SKIRTING SECTION  (1:1, inches)
 11
621.8818897637794
 21
6.968503937007874
 31
0.0
100
AcDbText
  0
SPLINE
  5
1CA
330
17
100
AcDbEntity
  8
Wall lamp elevation
100
AcDbSpline
 70
0
 71
3
 72
41
 73
37
 74
0
 40
0.0
 40
0.0
 40
0.0
 40
0.0
 40
1.0
 40
1.0
 40
1.0
 40
2.0
 40
2.0
 40
2.0
 40
3.0
 40
3.0
 40
3.0
 40
4.0
 40
4.0
 40
4.0
 40
5.0
 40
5.0
 40
5.0
 40
6.0
 40
6.0
 40
6.0
 40
7.0
 40
7.0
 40
7.0
 40
8.0
 40
8.0
 40
8.0
 40
9.0
 40
9.0
 40
9.0
 40
10.0
 40
10.0
 40
10.0
 40
11.0
 40
11.0
 40
11.0
 40
12.0
 40
12.0
 40
12.0
 40
12.0
 10
645.0314960629921
 20
2.3622047244094517
 30
0.0
 10
645.0314960629921
 20
1.947582058795163
 30
0.0
 10
644.9805528203742
 20
1.5401761236115306
 30
0.0
 10
644.8838075317309
 20
1.1811023622047259
 30
0.0
 10
644.7870622430876
 20
0.8220286007979212
 30
0.0
 10
644.6478827159531
 20
0.5237867569383994
 30
0.0
 10
644.4803149606299
 20
0.31647542413124796
 30
0.0
 10
644.3127472053068
 20
0.10916409132409655
 30
0.0
 10
644.1226244355544
 20
0.0
 30
0.0
 10
643.9291338582677
 20
0.0
 30
0.0
 10
643.7356432809811
 20
0.0
 30
0.0
 10
643.5455205112287
 20
0.10916409132409655
 30
0.0
 10
643.3779527559055
 20
0.31647542413124796
 30
0.0
 10
643.2103850005824
 20
0.5237867569383994
 30
0.0
 10
643.0712054734479
 20
0.8220286007979212
 30
0.0
 10
642.9744601848046
 20
1.1811023622047259
 30
0.0
 10
642.8777148961613
 20
1.5401761236115306
 30
0.0
 10
642.8267716535433
 20
1.947582058795163
 30
0.0
 10
642.8267716535433
 20
2.3622047244094517
 30
0.0
 10
642.8267716535433
 20
2.7768273900237403
 30
0.0
 10
642.8777148961613
 20
3.184233325207373
 30
0.0
 10
642.9744601848046
 20
3.5433070866141776
 30
0.0
 10
643.0712054734479
 20
3.902380848020975
 30
0.0
 10
643.2103850005824
 20
4.200622691880504
 30
0.0
 10
643.3779527559055
 20
4.407934024687648
 30
0.0
 10
643.5455205112287
 20
4.6152453574948
 30
0.0
 10
643.7356432809811
 20
4.724409448818896
 30
0.0
 10
643.9291338582677
 20
4.724409448818896
 30
0.0
 10
644.1226244355544
 20
4.724409448818896
 30
0.0
 10
644.3127472053068
 20
4.6152453574948
 30
0.0
 10
644.4803149606299
 20
4.407934024687648
 30
0.0
 10
644.6478827159531
 20
4.200622691880504
 30
0.0
 10
644.7870622430876
 20
3.902380848020975
 30
0.0
 10
644.8838075317309
 20
3.5433070866141776
 30
0.0
 10
644.9805528203742
 20
3.184233325207373
 30
0.0
 10
645.0314960629921
 20
2.7768273900237403
 30
0.0
 10
645.0314960629921
 20
2.3622047244094517
 30
0.0
  0
SPLINE
  5
1CB
330
17
100
AcDbEntity
  8
Wall lamp elevation
100
AcDbSpline
 70
0
 71
3
 72
41
 73
37
 74
0
 40
0.0
 40
0.0
 40
0.0
 40
0.0
 40
1.0
 40
1.0
 40
1.0
 40
2.0
 40
2.0
 40
2.0
 40
3.0
 40
3.0
 40
3.0
 40
4.0
 40
4.0
 40
4.0
 40
5.0
 40
5.0
 40
5.0
 40
6.0
 40
6.0
 40
6.0
 40
7.0
 40
7.0
 40
7.0
 40
8.0
 40
8.0
 40
8.0
 40
9.0
 40
9.0
 40
9.0
 40
10.0
 40
10.0
 40
10.0
 40
11.0
 40
11.0
 40
11.0
 40
12.0
 40
12.0
 40
12.0
 40
12.0
 10
644.6377952755905
 20
2.3622047244094517
 30
0.0
 10
644.6377952755905
 20
2.058148102958974
 30
0.0
 10
644.6050460481933
 20
1.7593837504909686
 30
0.0
 10
644.5428526483512
 20
1.4960629921259851
 30
0.0
 10
644.480659248509
 20
1.2327422337610017
 30
0.0
 10
644.3911866953512
 20
1.0140315482640077
 30
0.0
 10
644.2834645669292
 20
0.8620032375387652
 30
0.0
 10
644.1757424385071
 20
0.7099749268135298
 30
0.0
 10
644.053520657952
 20
0.6299212598425186
 30
0.0
 10
643.9291338582677
 20
0.6299212598425186
 30
0.0
 10
643.8047470585834
 20
0.6299212598425186
 30
0.0
 10
643.6825252780284
 20
0.7099749268135298
 30
0.0
 10
643.5748031496063
 20
0.8620032375387652
 30
0.0
 10
643.4670810211843
 20
1.0140315482640077
 30
0.0
 10
643.3776084680264
 20
1.2327422337610017
 30
0.0
 10
643.3154150681843
 20
1.4960629921259851
 30
0.0
 10
643.2532216683421
 20
1.7593837504909686
 30
0.0
 10
643.220472440945
 20
2.058148102958974
 30
0.0
 10
643.220472440945
 20
2.3622047244094517
 30
0.0
 10
643.220472440945
 20
2.6662613458599296
 30
0.0
 10
643.2532216683421
 20
2.9650256983279277
 30
0.0
 10
643.3154150681843
 20
3.2283464566929183
 30
0.0
 10
643.3776084680264
 20
3.491667215057902
 30
0.0
 10
643.4670810211843
 20
3.710377900554896
 30
0.0
 10
643.5748031496063
 20
3.862406211280131
 30
0.0
 10
643.6825252780284
 20
4.014434522005374
 30
0.0
 10
643.8047470585834
 20
4.094488188976378
 30
0.0
 10
643.9291338582677
 20
4.094488188976378
 30
0.0
 10
644.053520657952
 20
4.094488188976378
 30
0.0
 10
644.1757424385071
 20
4.014434522005374
 30
0.0
 10
644.2834645669292
 20
3.862406211280131
 30
0.0
 10
644.3911866953512
 20
3.710377900554896
 30
0.0
 10
644.480659248509
 20
3.491667215057902
 30
0.0
 10
644.5428526483512
 20
3.2283464566929183
 30
0.0
 10
644.6050460481933
 20
2.9650256983279277
 30
0.0
 10
644.6377952755905
 20
2.6662613458599296
 30
0.0
 10
644.6377952755905
 20
2.3622047244094517
 30
0.0
  0
CIRCLE
  5
1CC
330
17
100
AcDbEntity
  8
Wall lamp elevation
100
AcDbCircle
 10
643.9291338582677
 20
2.3622047244094486
 30
0.0
 40
9.0
  0
SPLINE
  5
1CD
330
17
100
AcDbEntity
  8
Wall lamp elevation
100
AcDbSpline
 70
0
 71
3
 72
8
 73
4
 74
0
 40
0.0
 40
0.0
 40
0.0
 40
0.0
 40
1.0
 40
1.0
 40
1.0
 40
1.0
 10
643.4566929133858
 20
1.968503937007874
 30
0.0
 10
641.1732283464567
 20
-0.7874015748031482
 30
0.0
 10
638.4173228346457
 20
0.39370078740157766
 30
0.0
 10
638.0236220472441
 20
3.1496062992126
 30
0.0
  0
SPLINE
  5
1CE
330
17
100
AcDbEntity
  8
Wall lamp elevation
100
AcDbSpline
 70
0
 71
3
 72
8
 73
4
 74
0
 40
0.0
 40
0.0
 40
0.0
 40
0.0
 40
1.0
 40
1.0
 40
1.0
 40
1.0
 10
643.4566929133858
 20
1.5748031496063035
 30
0.0
 10
641.5669291338583
 20
-0.4724409448818889
 30
0.0
 10
638.6535433070866
 20
0.6299212598425186
 30
0.0
 10
638.1811023622048
 20
2.913385826771652
 30
0.0
  0
SPLINE
  5
1CF
330
17
100
AcDbEntity
  8
Wall lamp elevation
100
AcDbSpline
 70
0
 71
3
 72
8
 73
4
 74
0
 40
0.0
 40
0.0
 40
0.0
 40
0.0
 40
1.0
 40
1.0
 40
1.0
 40
1.0
 10
637.0
 20
3.1496062992126
 30
0.0
 10
637.6824146981627
 20
2.677165354330709
 30
0.0
 10
638.3648293963255
 20
2.677165354330709
 30
0.0
 10
639.0472440944882
 20
3.1496062992126
 30
0.0
  0
POLYLINE
  5
1D0
330
17
100
AcDbEntity
  8
Wall lamp elevation
100
AcDb2dPolyline
 66
1
 10
0.0
 20
0.0
 30
0.0
 70
0
  0
VERTEX
  5
1D1
330
1D0
100
AcDbEntity
  8
Wall lamp elevation
100
AcDbVertex
100
AcDb2dVertex
 10
639.0472440944882
 20
3.1496062992126
 30
0.0
 70
0
  0
VERTEX
  5
1D2
330
1D0
100
AcDbEntity
  8
Wall lamp elevation
100
AcDbVertex
100
AcDb2dVertex
 10
638.732283464567
 20
3.7795275590551185
 30
0.0
 70
0
  0
VERTEX
  5
1D3
330
1D0
100
AcDbEntity
  8
Wall lamp elevation
100
AcDbVertex
100
AcDb2dVertex
 10
637.3149606299213
 20
3.7795275590551185
 30
0.0
 70
0
  0
VERTEX
  5
1D4
330
1D0
100
AcDbEntity
  8
Wall lamp elevation
100
AcDbVertex
100
AcDb2dVertex
 10
637.0
 20
3.1496062992126
 30
0.0
 70
0
  0
SEQEND
  5
1D5
330
1D0
100
AcDbEntity
  8
Wall lamp elevation
  0
LWPOLYLINE
  5
1D6
330
17
100
AcDbEntity
  8
Wall lamp elevation
100
AcDbPolyline
 90
5
 70
0
 10
637.7086614173229
 20
5.905511811023622
 10
638.3385826771654
 20
5.905511811023622
 10
638.3385826771654
 20
3.7795275590551185
 10
637.7086614173229
 20
3.7795275590551185
 10
637.7086614173229
 20
5.905511811023622
  0
LWPOLYLINE
  5
1D7
330
17
100
AcDbEntity
  8
Wall lamp elevation
100
AcDbPolyline
 90
5
 70
0
 10
635.6614173228346
 20
5.905511811023622
 10
640.3858267716536
 20
5.905511811023622
 10
639.4409448818898
 20
9.84251968503937
 10
636.6062992125984
 20
9.84251968503937
 10
635.6614173228346
 20
5.905511811023622
  0
LINE
  5
1D8
330
17
100
AcDbEntity
  8
Wall lamp elevation
100
AcDbLine
 10
636.4488188976378
 20
5.984251968503937
 30
0.0
 11
637.0787401574803
 21
9.763779527559056
 31
0.0
  0
LINE
  5
1D9
330
17
100
AcDbEntity
  8
Wall lamp elevation
100
AcDbLine
 10
637.2362204724409
 20
5.984251968503937
 30
0.0
 11
637.5511811023622
 21
9.763779527559056
 31
0.0
  0
LINE
  5
1DA
330
17
100
AcDbEntity
  8
Wall lamp elevation
100
AcDbLine
 10
638.0236220472441
 20
5.984251968503937
 30
0.0
 11
638.0236220472441
 21
9.763779527559056
 31
0.0
  0
LINE
  5
1DB
330
17
100
AcDbEntity
  8
Wall lamp elevation
100
AcDbLine
 10
638.8110236220472
 20
5.984251968503937
 30
0.0
 11
638.496062992126
 21
9.763779527559056
 31
0.0
  0
LINE
  5
1DC
330
17
100
AcDbEntity
  8
Wall lamp elevation
100
AcDbLine
 10
639.5984251968504
 20
5.984251968503937
 30
0.0
 11
638.9685039370079
 21
9.763779527559056
 31
0.0
  0
SPLINE
  5
1DD
330
17
100
AcDbEntity
  8
Wall lamp elevation
100
AcDbSpline
 70
0
 71
3
 72
8
 73
4
 74
0
 40
0.0
 40
0.0
 40
0.0
 40
0.0
 40
1.0
 40
1.0
 40
1.0
 40
1.0
 10
644.4015748031496
 20
1.968503937007874
 30
0.0
 10
646.6850393700788
 20
-0.7874015748031482
 30
0.0
 10
649.4409448818898
 20
0.39370078740157766
 30
0.0
 10
649.8346456692914
 20
3.1496062992126
 30
0.0
  0
SPLINE
  5
1DE
330
17
100
AcDbEntity
  8
Wall lamp elevation
100
AcDbSpline
 70
0
 71
3
 72
8
 73
4
 74
0
 40
0.0
 40
0.0
 40
0.0
 40
0.0
 40
1.0
 40
1.0
 40
1.0
 40
1.0
 10
644.4015748031496
 20
1.5748031496063035
 30
0.0
 10
646.2913385826772
 20
-0.4724409448818889
 30
0.0
 10
649.2047244094489
 20
0.6299212598425186
 30
0.0
 10
649.6771653543307
 20
2.913385826771652
 30
0.0
  0
SPLINE
  5
1DF
330
17
100
AcDbEntity
  8
Wall lamp elevation
100
AcDbSpline
 70
0
 71
3
 72
8
 73
4
 74
0
 40
0.0
 40
0.0
 40
0.0
 40
0.0
 40
1.0
 40
1.0
 40
1.0
 40
1.0
 10
648.8110236220473
 20
3.1496062992126
 30
0.0
 10
649.49343832021
 20
2.677165354330709
 30
0.0
 10
650.1758530183728
 20
2.677165354330709
 30
0.0
 10
650.8582677165355
 20
3.1496062992126
 30
0.0
  0
POLYLINE
  5
1E0
330
17
100
AcDbEntity
  8
Wall lamp elevation
100
AcDb2dPolyline
 66
1
 10
0.0
 20
0.0
 30
0.0
 70
0
  0
VERTEX
  5
1E1
330
1E0
100
AcDbEntity
  8
Wall lamp elevation
100
AcDbVertex
100
AcDb2dVertex
 10
650.8582677165355
 20
3.1496062992126
 30
0.0
 70
0
  0
VERTEX
  5
1E2
330
1E0
100
AcDbEntity
  8
Wall lamp elevation
100
AcDbVertex
100
AcDb2dVertex
 10
650.5433070866142
 20
3.7795275590551185
 30
0.0
 70
0
  0
VERTEX
  5
1E3
330
1E0
100
AcDbEntity
  8
Wall lamp elevation
100
AcDbVertex
100
AcDb2dVertex
 10
649.1259842519685
 20
3.7795275590551185
 30
0.0
 70
0
  0
VERTEX
  5
1E4
330
1E0
100
AcDbEntity
  8
Wall lamp elevation
100
AcDbVertex
100
AcDb2dVertex
 10
648.8110236220473
 20
3.1496062992126
 30
0.0
 70
0
  0
SEQEND
  5
1E5
330
1E0
100
AcDbEntity
  8
Wall lamp elevation
  0
LWPOLYLINE
  5
1E6
330
17
100
AcDbEntity
  8
Wall lamp elevation
100
AcDbPolyline
 90
5
 70
0
 10
649.5196850393701
 20
5.905511811023622
 10
650.1496062992126
 20
5.905511811023622
 10
650.1496062992126
 20
3.7795275590551185
 10
649.5196850393701
 20
3.7795275590551185
 10
649.5196850393701
 20
5.905511811023622
  0
LWPOLYLINE
  5
1E7
330
17
100
AcDbEntity
  8
Wall lamp elevation
100
AcDbPolyline
 90
5
 70
0
 10
647.4724409448819
 20
5.905511811023622
 10
652.1968503937009
 20
5.905511811023622
 10
651.2519685039371
 20
9.84251968503937
 10
648.4173228346457
 20
9.84251968503937
 10
647.4724409448819
 20
5.905511811023622
  0
LINE
  5
1E8
330
17
100
AcDbEntity
  8
Wall lamp elevation
100
AcDbLine
 10
648.259842519685
 20
5.984251968503937
 30
0.0
 11
648.8897637795275
 21
9.763779527559056
 31
0.0
  0
LINE
  5
1E9
330
17
100
AcDbEntity
  8
Wall lamp elevation
100
AcDbLine
 10
649.0472440944882
 20
5.984251968503937
 30
0.0
 11
649.3622047244094
 21
9.763779527559056
 31
0.0
  0
LINE
  5
1EA
330
17
100
AcDbEntity
  8
Wall lamp elevation
100
AcDbLine
 10
649.8346456692913
 20
5.984251968503937
 30
0.0
 11
649.8346456692913
 21
9.763779527559056
 31
0.0
  0
LINE
  5
1EB
330
17
100
AcDbEntity
  8
Wall lamp elevation
100
AcDbLine
 10
650.6220472440945
 20
5.984251968503937
 30
0.0
 11
650.3070866141732
 21
9.763779527559056
 31
0.0
  0
LINE
  5
1EC
330
17
100
AcDbEntity
  8
Wall lamp elevation
100
AcDbLine
 10
651.4094488188975
 20
5.984251968503937
 30
0.0
 11
650.779527559055
 21
9.763779527559056
 31
0.0
  0
TEXT
  5
1ED
330
17
100
AcDbEntity
  8
LABELS
100
AcDbText
 10
635.6614173228346
 20
12.204724409448819
 30
0.0
 40
0.7086614173228346
  1
WALL LAMP ELEVATION  (1:1, inches)
 11
635.6614173228346
 21
12.204724409448819
 31
0.0
100
AcDbText
  0
TEXT
  5
1EE
330
17
100
AcDbEntity
  8
LABELS
100
AcDbText
 10
0.0
 20
-8.661417322834646
 30
0.0
 40
1.574803149606299
  1
Right wall — Panel moulding · AST-DR-007
 11
0.0
 21
-8.661417322834646
 31
0.0
100
AcDbText
  0
ENDSEC
  0
SECTION
  2
OBJECTS
  0
DICTIONARY
  5
A
330
0
100
AcDbDictionary
281
1
  3
ACAD_COLOR
350
B
  3
ACAD_GROUP
350
C
  3
ACAD_LAYOUT
350
D
  3
ACAD_MATERIAL
350
E
  3
ACAD_MLEADERSTYLE
350
F
  3
ACAD_MLINESTYLE
350
10
  3
ACAD_PLOTSETTINGS
350
11
  3
ACAD_PLOTSTYLENAME
350
12
  3
ACAD_SCALELIST
350
14
  3
ACAD_TABLESTYLE
350
15
  3
ACAD_VISUALSTYLE
350
16
  3
EZDXF_META
350
2D
  0
DICTIONARY
  5
B
330
A
100
AcDbDictionary
281
1
  0
DICTIONARY
  5
C
330
A
100
AcDbDictionary
281
1
  0
DICTIONARY
  5
D
330
A
100
AcDbDictionary
281
1
  3
Model
350
1A
  3
Layout1
350
1E
  0
DICTIONARY
  5
E
330
A
100
AcDbDictionary
281
1
  3
ByBlock
350
1F
  3
ByLayer
350
20
  3
Global
350
21
  0
DICTIONARY
  5
F
330
A
100
AcDbDictionary
281
1
  3
Standard
350
2C
  0
DICTIONARY
  5
10
330
A
100
AcDbDictionary
281
1
  3
Standard
350
22
  0
DICTIONARY
  5
11
330
A
100
AcDbDictionary
281
1
  0
ACDBDICTIONARYWDFLT
  5
12
330
A
100
AcDbDictionary
281
1
  3
Normal
350
13
100
AcDbDictionaryWithDefault
340
13
  0
ACDBPLACEHOLDER
  5
13
330
12
  0
DICTIONARY
  5
14
330
A
100
AcDbDictionary
281
1
  0
DICTIONARY
  5
15
330
A
100
AcDbDictionary
281
1
  0
DICTIONARY
  5
16
330
A
100
AcDbDictionary
281
1
  3
2dWireframe
350
5A
  3
Basic
350
5B
  3
Brighten
350
5C
  3
ColorChange
350
5D
  3
Conceptual
350
5E
  3
Dim
350
5F
  3
EdgeColorOff
350
60
  3
Facepattern
350
61
  3
Flat
350
62
  3
FlatWithEdges
350
63
  3
Gouraud
350
64
  3
GouraudWithEdges
350
65
  3
Hidden
350
66
  3
JitterOff
350
67
  3
Linepattern
350
68
  3
Modeling
350
69
  3
OverhangOff
350
6A
  3
Realistic
350
6B
  3
Shaded
350
6C
  3
Shaded with edges
350
6D
  3
Shades of Gray
350
6E
  3
Sketchy
350
6F
  3
Thicken
350
70
  3
Wireframe
350
71
  3
X-Ray
350
72
  0
LAYOUT
  5
1A
330
D
100
AcDbPlotSettings
  1

  4
A3
  6

 40
7.5
 41
20.0
 42
7.5
 43
20.0
 44
420.0
 45
297.0
 46
0.0
 47
0.0
 48
0.0
 49
0.0
140
0.0
141
0.0
142
1.0
143
1.0
 70
1024
 72
1
 73
0
 74
5
  7

 75
16
 76
0
 77
2
 78
300
147
1.0
148
0.0
149
0.0
100
AcDbLayout
  1
Model
 70
1
 71
0
 10
0.0
 20
0.0
 11
420.0
 21
297.0
 12
0.0
 22
0.0
 32
0.0
 14
1e+20
 24
1e+20
 34
1e+20
 15
-1e+20
 25
-1e+20
 35
-1e+20
146
0.0
 13
0.0
 23
0.0
 33
0.0
 16
1.0
 26
0.0
 36
0.0
 17
0.0
 27
1.0
 37
0.0
 76
1
330
17
  0
LAYOUT
  5
1E
330
D
100
AcDbPlotSettings
  1

  4
A3
  6

 40
7.5
 41
20.0
 42
7.5
 43
20.0
 44
420.0
 45
297.0
 46
0.0
 47
0.0
 48
0.0
 49
0.0
140
0.0
141
0.0
142
1.0
143
1.0
 70
0
 72
1
 73
0
 74
5
  7

 75
16
 76
0
 77
2
 78
300
147
1.0
148
0.0
149
0.0
100
AcDbLayout
  1
Layout1
 70
1
 71
1
 10
0.0
 20
0.0
 11
420.0
 21
297.0
 12
0.0
 22
0.0
 32
0.0
 14
1e+20
 24
1e+20
 34
1e+20
 15
-1e+20
 25
-1e+20
 35
-1e+20
146
0.0
 13
0.0
 23
0.0
 33
0.0
 16
1.0
 26
0.0
 36
0.0
 17
0.0
 27
1.0
 37
0.0
 76
1
330
1B
  0
MATERIAL
  5
1F
102
{ACAD_REACTORS
330
E
102
}
330
E
100
AcDbMaterial
  1
ByBlock
  2

 70
0
 40
1.0
 71
1
 41
1.0
 91
-1023410177
 42
1.0
 72
1
  3

 73
1
 74
1
 75
1
 44
0.5
 73
0
 45
1.0
 46
1.0
 77
1
  4

 78
1
 79
1
170
1
 48
1.0
171
1
  6

172
1
173
1
174
1
140
1.0
141
1.0
175
1
  7

176
1
177
1
178
1
143
1.0
179
1
  8

270
1
271
1
272
1
145
1.0
146
1.0
273
1
  9

274
1
275
1
276
1
 42
1.0
 72
1
  3

 73
1
 74
1
 75
1
 94
63
  0
MATERIAL
  5
20
102
{ACAD_REACTORS
330
E
102
}
330
E
100
AcDbMaterial
  1
ByLayer
  2

 70
0
 40
1.0
 71
1
 41
1.0
 91
-1023410177
 42
1.0
 72
1
  3

 73
1
 74
1
 75
1
 44
0.5
 73
0
 45
1.0
 46
1.0
 77
1
  4

 78
1
 79
1
170
1
 48
1.0
171
1
  6

172
1
173
1
174
1
140
1.0
141
1.0
175
1
  7

176
1
177
1
178
1
143
1.0
179
1
  8

270
1
271
1
272
1
145
1.0
146
1.0
273
1
  9

274
1
275
1
276
1
 42
1.0
 72
1
  3

 73
1
 74
1
 75
1
 94
63
  0
MATERIAL
  5
21
102
{ACAD_REACTORS
330
E
102
}
330
E
100
AcDbMaterial
  1
Global
  2

 70
0
 40
1.0
 71
1
 41
1.0
 91
-1023410177
 42
1.0
 72
1
  3

 73
1
 74
1
 75
1
 44
0.5
 73
0
 45
1.0
 46
1.0
 77
1
  4

 78
1
 79
1
170
1
 48
1.0
171
1
  6

172
1
173
1
174
1
140
1.0
141
1.0
175
1
  7

176
1
177
1
178
1
143
1.0
179
1
  8

270
1
271
1
272
1
145
1.0
146
1.0
273
1
  9

274
1
275
1
276
1
 42
1.0
 72
1
  3

 73
1
 74
1
 75
1
 94
63
  0
MLINESTYLE
  5
22
102
{ACAD_REACTORS
330
10
102
}
330
10
100
AcDbMlineStyle
  2
Standard
 70
0
  3

 62
256
 51
90.0
 52
90.0
 71
2
 49
0.5
 62
256
  6
BYLAYER
 49
-0.5
 62
256
  6
BYLAYER
  0
MLEADERSTYLE
  5
2C
102
{ACAD_REACTORS
330
F
102
}
330
F
100
AcDbMLeaderStyle
179
2
170
2
171
1
172
0
 90
2
 40
0.0
 41
0.0
173
1
 91
-1056964608
 92
-2
290
1
 42
2.0
291
1
 43
8.0
  3
Standard
 44
4.0
300

342
29
174
1
175
1
176
0
178
1
 93
-1056964608
 45
4.0
292
0
297
0
 46
4.0
 94
-1056964608
 47
1.0
 49
1.0
140
1.0
294
1
141
0.0
177
0
142
1.0
295
0
296
0
143
3.75
271
0
272
9
273
9
  0
DICTIONARY
  5
2D
330
A
100
AcDbDictionary
280
1
281
1
  3
CREATED_BY_EZDXF
350
2E
  3
WRITTEN_BY_EZDXF
350
1F1
  0
DICTIONARYVAR
  5
2E
330
2D
100
DictionaryVariables
280
0
  1
1.4.2 @ 2026-09-18T18:02:05.845098+00:00
  0
VISUALSTYLE
  5
5A
102
{ACAD_REACTORS
330
16
102
}
330
16
100
AcDbVisualStyle
  2
2dWireframe
 70
4
 90
0
 40
0.6
 62
7
290
0
291
0
  0
VISUALSTYLE
  5
5B
102
{ACAD_REACTORS
330
16
102
}
330
16
100
AcDbVisualStyle
  2
Basic
 70
7
 90
1
 40
0.6
 62
7
290
0
291
1
  0
VISUALSTYLE
  5
5C
102
{ACAD_REACTORS
330
16
102
}
330
16
100
AcDbVisualStyle
  2
Brighten
 70
12
 90
2
 40
0.6
 62
7
290
0
291
1
  0
VISUALSTYLE
  5
5D
102
{ACAD_REACTORS
330
16
102
}
330
16
100
AcDbVisualStyle
  2
ColorChange
 70
16
 90
2
 40
0.6
 62
8
290
0
291
1
  0
VISUALSTYLE
  5
5E
102
{ACAD_REACTORS
330
16
102
}
330
16
100
AcDbVisualStyle
  2
Conceptual
 70
9
 90
3
 40
0.6
 62
7
290
0
291
0
  0
VISUALSTYLE
  5
5F
102
{ACAD_REACTORS
330
16
102
}
330
16
100
AcDbVisualStyle
  2
Dim
 70
11
 90
2
 40
0.6
 62
7
290
0
291
1
  0
VISUALSTYLE
  5
60
102
{ACAD_REACTORS
330
16
102
}
330
16
100
AcDbVisualStyle
  2
EdgeColorOff
 70
22
 90
2
 40
0.6
 62
7
290
0
291
1
  0
VISUALSTYLE
  5
61
102
{ACAD_REACTORS
330
16
102
}
330
16
100
AcDbVisualStyle
  2
Facepattern
 70
15
 90
2
 40
0.6
 62
7
290
0
291
1
  0
VISUALSTYLE
  5
62
102
{ACAD_REACTORS
330
16
102
}
330
16
100
AcDbVisualStyle
  2
Flat
 70
0
 90
2
 40
0.6
 62
7
290
0
291
1
  0
VISUALSTYLE
  5
63
102
{ACAD_REACTORS
330
16
102
}
330
16
100
AcDbVisualStyle
  2
FlatWithEdges
 70
1
 90
2
 40
0.6
 62
7
290
0
291
1
  0
VISUALSTYLE
  5
64
102
{ACAD_REACTORS
330
16
102
}
330
16
100
AcDbVisualStyle
  2
Gouraud
 70
2
 90
2
 40
0.6
 62
7
290
0
291
1
  0
VISUALSTYLE
  5
65
102
{ACAD_REACTORS
330
16
102
}
330
16
100
AcDbVisualStyle
  2
GouraudWithEdges
 70
3
 90
2
 40
0.6
 62
7
290
0
291
1
  0
VISUALSTYLE
  5
66
102
{ACAD_REACTORS
330
16
102
}
330
16
100
AcDbVisualStyle
  2
Hidden
 70
6
 90
1
 40
0.6
 62
7
290
0
291
0
  0
VISUALSTYLE
  5
67
102
{ACAD_REACTORS
330
16
102
}
330
16
100
AcDbVisualStyle
  2
JitterOff
 70
20
 90
2
 40
0.6
 62
7
290
0
291
1
  0
VISUALSTYLE
  5
68
102
{ACAD_REACTORS
330
16
102
}
330
16
100
AcDbVisualStyle
  2
Linepattern
 70
14
 90
2
 40
0.6
 62
7
290
0
291
1
  0
VISUALSTYLE
  5
69
102
{ACAD_REACTORS
330
16
102
}
330
16
100
AcDbVisualStyle
  2
Modeling
 70
10
 90
2
 40
0.6
 62
7
290
0
291
0
  0
VISUALSTYLE
  5
6A
102
{ACAD_REACTORS
330
16
102
}
330
16
100
AcDbVisualStyle
  2
OverhangOff
 70
21
 90
2
 40
0.6
 62
7
290
0
291
1
  0
VISUALSTYLE
  5
6B
102
{ACAD_REACTORS
330
16
102
}
330
16
100
AcDbVisualStyle
  2
Realistic
 70
8
 90
2
 40
0.6
 62
7
290
0
291
0
  0
VISUALSTYLE
  5
6C
102
{ACAD_REACTORS
330
16
102
}
330
16
100
AcDbVisualStyle
  2
Shaded
 70
27
 90
2
 40
0.6
 62
7
290
0
291
0
  0
VISUALSTYLE
  5
6D
102
{ACAD_REACTORS
330
16
102
}
330
16
100
AcDbVisualStyle
  2
Shaded with edges
 70
26
 90
2
 40
0.6
 62
7
290
0
291
0
  0
VISUALSTYLE
  5
6E
102
{ACAD_REACTORS
330
16
102
}
330
16
100
AcDbVisualStyle
  2
Shades of Gray
 70
23
 90
2
 40
0.6
 62
7
290
0
291
0
  0
VISUALSTYLE
  5
6F
102
{ACAD_REACTORS
330
16
102
}
330
16
100
AcDbVisualStyle
  2
Sketchy
 70
24
 90
1
 40
0.6
 62
7
290
0
291
0
  0
VISUALSTYLE
  5
70
102
{ACAD_REACTORS
330
16
102
}
330
16
100
AcDbVisualStyle
  2
Thicken
 70
13
 90
2
 40
0.6
 62
7
290
0
291
1
  0
VISUALSTYLE
  5
71
102
{ACAD_REACTORS
330
16
102
}
330
16
100
AcDbVisualStyle
  2
Wireframe
 70
5
 90
0
 40
0.6
 62
7
290
0
291
0
  0
VISUALSTYLE
  5
72
102
{ACAD_REACTORS
330
16
102
}
330
16
100
AcDbVisualStyle
  2
X-Ray
 70
25
 90
2
 40
0.5
 62
7
290
0
291
0
  0
DICTIONARYVAR
  5
1F1
330
2D
100
DictionaryVariables
280
0
  1
1.4.2 @ 2026-09-18T18:02:05.953345+00:00
  0
ENDSEC
  0
EOF
