<svg xmlns="http://www.w3.org/2000/svg" viewBox="0 0 420 297" class="sheet"><style>.dk-mm{display:none}</style><rect x="0" y="0" width="420" height="297" fill="#fff"/><rect x="8" y="8" width="404" height="281" fill="none" stroke="#1b1b1b" stroke-width="0.5"/><defs><pattern id="hatchST" patternUnits="userSpaceOnUse" width="3" height="3" patternTransform="rotate(45)"><rect width="3" height="3" fill="#fff"/><line x1="0" y1="0" x2="0" y2="3" stroke="#8c8c8c" stroke-width="0.3"/></pattern>
    <pattern id="hatchST2" patternUnits="userSpaceOnUse" width="2" height="2" patternTransform="rotate(-45)"><rect width="2" height="2" fill="#fff"/><line x1="0" y1="0" x2="0" y2="2" stroke="#8c8c8c" stroke-width="0.25"/></pattern></defs><text x="18" y="17" font-size="3.2" text-anchor="start" fill="#1b1b1b" font-weight="700" letter-spacing="0.3" font-family="Helvetica, Arial, sans-serif">FRONT</text><line x1="18" y1="18.5" x2="128" y2="18.5" stroke="#1b1b1b" stroke-width="0.35"/><text x="18" y="21.8" font-size="1.7" text-anchor="start" fill="#666" font-weight="400" letter-spacing="0.2" font-family="Helvetica, Arial, sans-serif">SCALE 1:5 · AS THE OWNER'S PHOTO</text><g transform="translate(30 34) scale(0.2)" stroke="#1b1b1b" stroke-width="1.5" fill="none" stroke-linejoin="round" stroke-linecap="round"><line x1="-60" y1="610" x2="466" y2="610" stroke-width="1.7999999999999998"/><path d="M 34 122 C 24 136 16 168 16 218 C 16 292 30 352 38 380 C 43 440 45 500 42 544 C 39 574 30 592 24 602 C 22 606 24 610 28 610 L 46 610 C 50 600 55 574 57 540 C 59 494 60 434 58 374 C 55 342 52 262 56 192 C 60 152 68 132 68 122 Z" fill="#fff" stroke-width="0.72"/><path d="M 38 132 C 29 158 23 192 23 222 C 23 292 35 348 43 378 C 48 438 50 498 48 538" fill="none" stroke-width="0.27"/><path d="M 372 122 C 382 136 390 168 390 218 C 390 292 376 352 368 380 C 363 440 361 500 364 544 C 367 574 376 592 382 602 C 384 606 382 610 378 610 L 360 610 C 356 600 351 574 349 540 C 347 494 346 434 348 374 C 351 342 354 262 350 192 C 346 152 338 132 338 122 Z" fill="#fff" stroke-width="0.72"/><path d="M 368 132 C 377 158 383 192 383 222 C 383 292 371 348 363 378 C 358 438 356 498 358 538" fill="none" stroke-width="0.27"/><rect x="34" y="22" width="338" height="100" fill="#fff" stroke-width="0.72"/><rect x="70" y="34" width="266" height="76" fill="#fff" stroke-width="0.6"/><rect x="74" y="38" width="258" height="68" fill="none" stroke-width="0.27"/><ellipse cx="135.35" cy="66.4" rx="22.14" ry="9.96" fill="none" stroke-width="0.18" transform="rotate(-16.5 135.35 66.4)"/><ellipse cx="264.5" cy="79" rx="17.22" ry="7.75" fill="none" stroke-width="0.18" transform="rotate(15 264.5 79)"/><ellipse cx="184.55" cy="81.8" rx="12.3" ry="5.54" fill="none" stroke-width="0.18" transform="rotate(-4.5 184.55 81.8)"/><ellipse cx="227.6" cy="60.8" rx="11.07" ry="4.98" fill="none" stroke-width="0.18" transform="rotate(6 227.6 60.8)"/><circle cx="203" cy="72" r="15" fill="#fff" stroke-width="0.48"/><circle cx="214.5" cy="72" r="2.6" fill="none" stroke-width="0.21"/><circle cx="212.96" cy="77.75" r="2.6" fill="none" stroke-width="0.21"/><circle cx="208.75" cy="81.96" r="2.6" fill="none" stroke-width="0.21"/><circle cx="203" cy="83.5" r="2.6" fill="none" stroke-width="0.21"/><circle cx="197.25" cy="81.96" r="2.6" fill="none" stroke-width="0.21"/><circle cx="193.04" cy="77.75" r="2.6" fill="none" stroke-width="0.21"/><circle cx="191.5" cy="72" r="2.6" fill="none" stroke-width="0.21"/><circle cx="193.04" cy="66.25" r="2.6" fill="none" stroke-width="0.21"/><circle cx="197.25" cy="62.04" r="2.6" fill="none" stroke-width="0.21"/><circle cx="203" cy="60.5" r="2.6" fill="none" stroke-width="0.21"/><circle cx="208.75" cy="62.04" r="2.6" fill="none" stroke-width="0.21"/><circle cx="212.96" cy="66.25" r="2.6" fill="none" stroke-width="0.21"/><circle cx="203" cy="72" r="8" fill="#fff" stroke-width="0.6"/><circle cx="203" cy="72" r="3" fill="none" stroke-width="0.3"/><path d="M 35 22 L 56 22 L 56 132 C 56 152 42 162 36 150 C 32 142 35 130 35 122 Z" fill="#fff" stroke-width="0.6"/><circle cx="45.5" cy="36" r="7" fill="#fff" stroke-width="0.48"/><circle cx="45.5" cy="36" r="3" fill="none" stroke-width="0.3"/><line x1="40" y1="48" x2="40" y2="118" stroke-width="0.24"/><line x1="45" y1="48" x2="45" y2="118" stroke-width="0.24"/><line x1="50" y1="48" x2="50" y2="118" stroke-width="0.24"/><path d="M 48 136 C 50 148 40 152 40 144 C 40 139 45 139 45 143" fill="none" stroke-width="0.36"/><path d="M 371 22 L 350 22 L 350 132 C 350 152 364 162 370 150 C 374 142 371 130 371 122 Z" fill="#fff" stroke-width="0.6"/><circle cx="360.5" cy="36" r="7" fill="#fff" stroke-width="0.48"/><circle cx="360.5" cy="36" r="3" fill="none" stroke-width="0.3"/><line x1="366" y1="48" x2="366" y2="118" stroke-width="0.24"/><line x1="361" y1="48" x2="361" y2="118" stroke-width="0.24"/><line x1="356" y1="48" x2="356" y2="118" stroke-width="0.24"/><path d="M 358 136 C 356 148 366 152 366 144 C 366 139 361 139 361 143" fill="none" stroke-width="0.36"/><rect x="0" y="0" width="406" height="22" fill="#fff" stroke-width="0.72"/><line x1="3" y1="9" x2="403" y2="9" stroke-width="0.27"/><line x1="3" y1="15" x2="403" y2="15" stroke-width="0.27"/><line x1="3" y1="19" x2="403" y2="19" stroke-width="0.27"/></g><g class="dk-dim"><g stroke="#1b1b1b" stroke-width="0.13"><line x1="28.5" y1="161" x2="112.7" y2="161"/><line x1="30" y1="157" x2="30" y2="162.2"/><line x1="29" y1="162" x2="31" y2="160" stroke-width="0.3"/><line x1="36.8" y1="157" x2="36.8" y2="162.2"/><line x1="35.8" y1="162" x2="37.8" y2="160" stroke-width="0.3"/><line x1="44" y1="157" x2="44" y2="162.2"/><line x1="43" y1="162" x2="45" y2="160" stroke-width="0.3"/><line x1="97.2" y1="157" x2="97.2" y2="162.2"/><line x1="96.2" y1="162" x2="98.2" y2="160" stroke-width="0.3"/><line x1="104.4" y1="157" x2="104.4" y2="162.2"/><line x1="103.4" y1="162" x2="105.4" y2="160" stroke-width="0.3"/><line x1="111.2" y1="157" x2="111.2" y2="162.2"/><line x1="110.2" y1="162" x2="112.2" y2="160" stroke-width="0.3"/></g><text x="33.4" y="160.2" font-size="1.1" text-anchor="middle" fill="#1b1b1b" font-weight="400" letter-spacing="0" font-family="Helvetica, Arial, sans-serif" class="dk-mm">34</text><text x="33.4" y="160.2" font-size="1.1" text-anchor="middle" fill="#1b1b1b" font-weight="400" letter-spacing="0" font-family="Helvetica, Arial, sans-serif" class="dk-in">1⅜"</text><text x="40.4" y="160.2" font-size="1.1" text-anchor="middle" fill="#1b1b1b" font-weight="400" letter-spacing="0" font-family="Helvetica, Arial, sans-serif" class="dk-mm">36</text><text x="40.4" y="160.2" font-size="1.1" text-anchor="middle" fill="#1b1b1b" font-weight="400" letter-spacing="0" font-family="Helvetica, Arial, sans-serif" class="dk-in">1⅜"</text><text x="70.6" y="160.2" font-size="1.1" text-anchor="middle" fill="#1b1b1b" font-weight="400" letter-spacing="0" font-family="Helvetica, Arial, sans-serif" class="dk-mm">266 DRAWER</text><text x="70.6" y="160.2" font-size="1.1" text-anchor="middle" fill="#1b1b1b" font-weight="400" letter-spacing="0" font-family="Helvetica, Arial, sans-serif" class="dk-in">10½" DRAWER</text><text x="100.8" y="160.2" font-size="1.1" text-anchor="middle" fill="#1b1b1b" font-weight="400" letter-spacing="0" font-family="Helvetica, Arial, sans-serif" class="dk-mm">36</text><text x="100.8" y="160.2" font-size="1.1" text-anchor="middle" fill="#1b1b1b" font-weight="400" letter-spacing="0" font-family="Helvetica, Arial, sans-serif" class="dk-in">1⅜"</text><text x="107.8" y="160.2" font-size="1.1" text-anchor="middle" fill="#1b1b1b" font-weight="400" letter-spacing="0" font-family="Helvetica, Arial, sans-serif" class="dk-mm">34</text><text x="107.8" y="160.2" font-size="1.1" text-anchor="middle" fill="#1b1b1b" font-weight="400" letter-spacing="0" font-family="Helvetica, Arial, sans-serif" class="dk-in">1⅜"</text></g><g class="dk-dim"><g stroke="#1b1b1b" stroke-width="0.13"><line x1="28.5" y1="167" x2="112.7" y2="167"/><line x1="30" y1="157" x2="30" y2="168.2"/><line x1="29" y1="168" x2="31" y2="166" stroke-width="0.3"/><line x1="111.2" y1="157" x2="111.2" y2="168.2"/><line x1="110.2" y1="168" x2="112.2" y2="166" stroke-width="0.3"/></g><text x="70.6" y="166.2" font-size="1.3" text-anchor="middle" fill="#1b1b1b" font-weight="400" letter-spacing="0" font-family="Helvetica, Arial, sans-serif" class="dk-mm">406 TOP</text><text x="70.6" y="166.2" font-size="1.3" text-anchor="middle" fill="#1b1b1b" font-weight="400" letter-spacing="0" font-family="Helvetica, Arial, sans-serif" class="dk-in">1'-4" TOP</text></g><g class="dk-dim"><g stroke="#1b1b1b" stroke-width="0.13"><line x1="119.2" y1="154.5" x2="119.2" y2="35.5"/><line x1="112.2" y1="156" x2="120.4" y2="156"/><line x1="118.2" y1="157" x2="120.2" y2="155" stroke-width="0.3"/><line x1="112.2" y1="58.4" x2="120.4" y2="58.4"/><line x1="118.2" y1="59.4" x2="120.2" y2="57.4" stroke-width="0.3"/><line x1="112.2" y1="38.4" x2="120.4" y2="38.4"/><line x1="118.2" y1="39.4" x2="120.2" y2="37.4" stroke-width="0.3"/><line x1="112.2" y1="34" x2="120.4" y2="34"/><line x1="118.2" y1="35" x2="120.2" y2="33" stroke-width="0.3"/></g><text x="118.4" y="107.2" font-size="1.1" text-anchor="middle" fill="#1b1b1b" font-weight="400" letter-spacing="0" font-family="Helvetica, Arial, sans-serif" class="dk-mm" transform="rotate(-90 118.4 107.2)">488</text><text x="118.4" y="107.2" font-size="1.1" text-anchor="middle" fill="#1b1b1b" font-weight="400" letter-spacing="0" font-family="Helvetica, Arial, sans-serif" class="dk-in" transform="rotate(-90 118.4 107.2)">1'-7¼"</text><text x="118.4" y="48.4" font-size="1.1" text-anchor="middle" fill="#1b1b1b" font-weight="400" letter-spacing="0" font-family="Helvetica, Arial, sans-serif" class="dk-mm" transform="rotate(-90 118.4 48.4)">100</text><text x="118.4" y="48.4" font-size="1.1" text-anchor="middle" fill="#1b1b1b" font-weight="400" letter-spacing="0" font-family="Helvetica, Arial, sans-serif" class="dk-in" transform="rotate(-90 118.4 48.4)">3⅞"</text><text x="118.4" y="36.2" font-size="1.1" text-anchor="middle" fill="#1b1b1b" font-weight="400" letter-spacing="0" font-family="Helvetica, Arial, sans-serif" class="dk-mm" transform="rotate(-90 118.4 36.2)">22</text><text x="118.4" y="36.2" font-size="1.1" text-anchor="middle" fill="#1b1b1b" font-weight="400" letter-spacing="0" font-family="Helvetica, Arial, sans-serif" class="dk-in" transform="rotate(-90 118.4 36.2)">⅞"</text></g><g class="dk-dim"><g stroke="#1b1b1b" stroke-width="0.13"><line x1="126.2" y1="154.5" x2="126.2" y2="35.5"/><line x1="112.2" y1="156" x2="127.4" y2="156"/><line x1="125.2" y1="157" x2="127.2" y2="155" stroke-width="0.3"/><line x1="112.2" y1="34" x2="127.4" y2="34"/><line x1="125.2" y1="35" x2="127.2" y2="33" stroke-width="0.3"/></g><text x="125.4" y="95" font-size="1.3" text-anchor="middle" fill="#1b1b1b" font-weight="400" letter-spacing="0" font-family="Helvetica, Arial, sans-serif" class="dk-mm" transform="rotate(-90 125.4 95)">610 HIGH</text><text x="125.4" y="95" font-size="1.3" text-anchor="middle" fill="#1b1b1b" font-weight="400" letter-spacing="0" font-family="Helvetica, Arial, sans-serif" class="dk-in" transform="rotate(-90 125.4 95)">2'-0" HIGH</text></g><g stroke="#1b1b1b" stroke-width="0.13" fill="none"><path d="M 103.2 36.4 L 126.2 35.6 L 132.2 35.6"/></g><circle cx="103.2" cy="36.4" r="0.45" fill="#1b1b1b"/><text x="133.8" y="36.2" font-size="1.8" text-anchor="start" fill="#1b1b1b" font-weight="400" letter-spacing="0" font-family="Helvetica, Arial, sans-serif">SHAPED TOP, MOULDED EDGE</text><text x="133.8" y="39" font-size="1.45" text-anchor="start" fill="#666" font-weight="400" letter-spacing="0" font-family="Helvetica, Arial, sans-serif">WOOD, POLISHED DARK — NO STONE</text><g stroke="#1b1b1b" stroke-width="0.13" fill="none"><path d="M 102.2 41.2 L 126.2 44.4 L 132.2 44.4"/></g><circle cx="102.2" cy="41.2" r="0.45" fill="#1b1b1b"/><text x="133.8" y="45" font-size="1.8" text-anchor="start" fill="#1b1b1b" font-weight="400" letter-spacing="0" font-family="Helvetica, Arial, sans-serif">CARVED CONSOLE, EACH CORNER</text><text x="133.8" y="47.8" font-size="1.45" text-anchor="start" fill="#666" font-weight="400" letter-spacing="0" font-family="Helvetica, Arial, sans-serif">ROUNDEL, REEDED STEM, VOLUTE</text><g stroke="#1b1b1b" stroke-width="0.13" fill="none"><path d="M 82.6 48.4 L 126.2 53.2 L 132.2 53.2"/></g><circle cx="82.6" cy="48.4" r="0.45" fill="#1b1b1b"/><text x="133.8" y="53.8" font-size="1.8" text-anchor="start" fill="#1b1b1b" font-weight="400" letter-spacing="0" font-family="Helvetica, Arial, sans-serif">ONE DRAWER, BURL FRONT</text><text x="133.8" y="56.6" font-size="1.45" text-anchor="start" fill="#666" font-weight="400" letter-spacing="0" font-family="Helvetica, Arial, sans-serif">COCK-BEADED · SOFT-CLOSE RUNNERS</text><g stroke="#1b1b1b" stroke-width="0.13" fill="none"><path d="M 72.6 48.4 L 126.2 62 L 132.2 62"/></g><circle cx="72.6" cy="48.4" r="0.45" fill="#1b1b1b"/><text x="133.8" y="62.6" font-size="1.8" text-anchor="start" fill="#1b1b1b" font-weight="400" letter-spacing="0" font-family="Helvetica, Arial, sans-serif">BRASS ROSETTE KNOB</text><text x="133.8" y="65.4" font-size="1.45" text-anchor="start" fill="#666" font-weight="400" letter-spacing="0" font-family="Helvetica, Arial, sans-serif">DETAIL 3</text><g stroke="#1b1b1b" stroke-width="0.13" fill="none"><path d="M 107.6 76.8 L 126.2 76 L 132.2 76"/></g><circle cx="107.6" cy="76.8" r="0.45" fill="#1b1b1b"/><text x="133.8" y="76.6" font-size="1.8" text-anchor="start" fill="#1b1b1b" font-weight="400" letter-spacing="0" font-family="Helvetica, Arial, sans-serif">CABRIOLE LEG</text><text x="133.8" y="79.4" font-size="1.45" text-anchor="start" fill="#666" font-weight="400" letter-spacing="0" font-family="Helvetica, Arial, sans-serif">SOLID, A BEAD DOWN ITS FRONT EDGE</text><g stroke="#1b1b1b" stroke-width="0.13" fill="none"><path d="M 106.8 154.8 L 126.2 152.8 L 132.2 152.8"/></g><circle cx="106.8" cy="154.8" r="0.45" fill="#1b1b1b"/><text x="133.8" y="153.4" font-size="1.8" text-anchor="start" fill="#1b1b1b" font-weight="400" letter-spacing="0" font-family="Helvetica, Arial, sans-serif">SCROLL TOE</text><text x="186" y="17" font-size="3.2" text-anchor="start" fill="#1b1b1b" font-weight="700" letter-spacing="0.3" font-family="Helvetica, Arial, sans-serif">SIDE</text><line x1="186" y1="18.5" x2="276" y2="18.5" stroke="#1b1b1b" stroke-width="0.35"/><text x="186" y="21.8" font-size="1.7" text-anchor="start" fill="#666" font-weight="400" letter-spacing="0.2" font-family="Helvetica, Arial, sans-serif">SCALE 1:5 · THE WALL ON THE LEFT</text><g transform="translate(196 34) scale(0.2)" stroke="#1b1b1b" stroke-width="1.5" fill="none" stroke-linejoin="round" stroke-linecap="round"><line x1="-60" y1="610" x2="416" y2="610" stroke-width="1.7999999999999998"/><line x1="0" y1="610" x2="0" y2="-15" stroke-width="0.84" stroke-dasharray="4.8 3"/><path d="M 24 122 C 14 136 6 168 6 218 C 6 292 20 352 28 380 C 33 440 35 500 32 544 C 29 574 20 592 14 602 C 12 606 14 610 18 610 L 36 610 C 40 600 45 574 47 540 C 49 494 50 434 48 374 C 45 342 42 262 46 192 C 50 152 58 132 58 122 Z" fill="#fff" stroke-width="0.72"/><path d="M 28 132 C 19 158 13 192 13 222 C 13 292 25 348 33 378 C 38 438 40 498 38 538" fill="none" stroke-width="0.27"/><path d="M 326 122 C 336 136 344 168 344 218 C 344 292 330 352 322 380 C 317 440 315 500 318 544 C 321 574 330 592 336 602 C 338 606 336 610 332 610 L 314 610 C 310 600 305 574 303 540 C 301 494 300 434 302 374 C 305 342 308 262 304 192 C 300 152 292 132 292 122 Z" fill="#fff" stroke-width="0.72"/><path d="M 322 132 C 331 158 337 192 337 222 C 337 292 325 348 317 378 C 312 438 310 498 312 538" fill="none" stroke-width="0.27"/><rect x="24" y="22" width="302" height="100" fill="#fff" stroke-width="0.72"/><ellipse cx="102.95" cy="64.8" rx="23.58" ry="10.61" fill="none" stroke-width="0.18" transform="rotate(-16.5 102.95 64.8)"/><ellipse cx="240.5" cy="81" rx="18.34" ry="8.25" fill="none" stroke-width="0.18" transform="rotate(15 240.5 81)"/><ellipse cx="155.35" cy="84.6" rx="13.1" ry="5.9" fill="none" stroke-width="0.18" transform="rotate(-4.5 155.35 84.6)"/><ellipse cx="201.2" cy="57.6" rx="11.79" ry="5.31" fill="none" stroke-width="0.18" transform="rotate(6 201.2 57.6)"/><path d="M 25 22 L 46 22 L 46 132 C 46 152 32 162 26 150 C 22 142 25 130 25 122 Z" fill="#fff" stroke-width="0.6"/><circle cx="35.5" cy="36" r="7" fill="#fff" stroke-width="0.48"/><circle cx="35.5" cy="36" r="3" fill="none" stroke-width="0.3"/><line x1="30" y1="48" x2="30" y2="118" stroke-width="0.24"/><line x1="35" y1="48" x2="35" y2="118" stroke-width="0.24"/><line x1="40" y1="48" x2="40" y2="118" stroke-width="0.24"/><path d="M 38 136 C 40 148 30 152 30 144 C 30 139 35 139 35 143" fill="none" stroke-width="0.36"/><path d="M 325 22 L 304 22 L 304 132 C 304 152 318 162 324 150 C 328 142 325 130 325 122 Z" fill="#fff" stroke-width="0.6"/><circle cx="314.5" cy="36" r="7" fill="#fff" stroke-width="0.48"/><circle cx="314.5" cy="36" r="3" fill="none" stroke-width="0.3"/><line x1="320" y1="48" x2="320" y2="118" stroke-width="0.24"/><line x1="315" y1="48" x2="315" y2="118" stroke-width="0.24"/><line x1="310" y1="48" x2="310" y2="118" stroke-width="0.24"/><path d="M 312 136 C 310 148 320 152 320 144 C 320 139 315 139 315 143" fill="none" stroke-width="0.36"/><rect x="0" y="0" width="356" height="22" fill="#fff" stroke-width="0.72"/><line x1="3" y1="9" x2="353" y2="9" stroke-width="0.27"/><line x1="3" y1="15" x2="353" y2="15" stroke-width="0.27"/><line x1="3" y1="19" x2="353" y2="19" stroke-width="0.27"/></g><g class="dk-dim"><g stroke="#1b1b1b" stroke-width="0.13"><line x1="194.5" y1="161" x2="268.7" y2="161"/><line x1="196" y1="157" x2="196" y2="162.2"/><line x1="195" y1="162" x2="197" y2="160" stroke-width="0.3"/><line x1="200.8" y1="157" x2="200.8" y2="162.2"/><line x1="199.8" y1="162" x2="201.8" y2="160" stroke-width="0.3"/><line x1="261.2" y1="157" x2="261.2" y2="162.2"/><line x1="260.2" y1="162" x2="262.2" y2="160" stroke-width="0.3"/><line x1="267.2" y1="157" x2="267.2" y2="162.2"/><line x1="266.2" y1="162" x2="268.2" y2="160" stroke-width="0.3"/></g><text x="198.4" y="160.2" font-size="1.1" text-anchor="middle" fill="#1b1b1b" font-weight="400" letter-spacing="0" font-family="Helvetica, Arial, sans-serif" class="dk-mm">24</text><text x="198.4" y="160.2" font-size="1.1" text-anchor="middle" fill="#1b1b1b" font-weight="400" letter-spacing="0" font-family="Helvetica, Arial, sans-serif" class="dk-in">1"</text><text x="231" y="160.2" font-size="1.1" text-anchor="middle" fill="#1b1b1b" font-weight="400" letter-spacing="0" font-family="Helvetica, Arial, sans-serif" class="dk-mm">302 APRON</text><text x="231" y="160.2" font-size="1.1" text-anchor="middle" fill="#1b1b1b" font-weight="400" letter-spacing="0" font-family="Helvetica, Arial, sans-serif" class="dk-in">11⅞" APRON</text><text x="264.2" y="160.2" font-size="1.1" text-anchor="middle" fill="#1b1b1b" font-weight="400" letter-spacing="0" font-family="Helvetica, Arial, sans-serif" class="dk-mm">30</text><text x="264.2" y="160.2" font-size="1.1" text-anchor="middle" fill="#1b1b1b" font-weight="400" letter-spacing="0" font-family="Helvetica, Arial, sans-serif" class="dk-in">1⅛"</text></g><g class="dk-dim"><g stroke="#1b1b1b" stroke-width="0.13"><line x1="194.5" y1="167" x2="268.7" y2="167"/><line x1="196" y1="157" x2="196" y2="168.2"/><line x1="195" y1="168" x2="197" y2="166" stroke-width="0.3"/><line x1="267.2" y1="157" x2="267.2" y2="168.2"/><line x1="266.2" y1="168" x2="268.2" y2="166" stroke-width="0.3"/></g><text x="231.6" y="166.2" font-size="1.3" text-anchor="middle" fill="#1b1b1b" font-weight="400" letter-spacing="0" font-family="Helvetica, Arial, sans-serif" class="dk-mm">356 TOP</text><text x="231.6" y="166.2" font-size="1.3" text-anchor="middle" fill="#1b1b1b" font-weight="400" letter-spacing="0" font-family="Helvetica, Arial, sans-serif" class="dk-in">1'-2" TOP</text></g><text x="300" y="17" font-size="3.2" text-anchor="start" fill="#1b1b1b" font-weight="700" letter-spacing="0.3" font-family="Helvetica, Arial, sans-serif">PLAN</text><line x1="300" y1="18.5" x2="408" y2="18.5" stroke="#1b1b1b" stroke-width="0.35"/><text x="300" y="21.8" font-size="1.7" text-anchor="start" fill="#666" font-weight="400" letter-spacing="0.2" font-family="Helvetica, Arial, sans-serif">SCALE 1:5 · THE WALL AT THE TOP · APRON AND LEGS DASHED</text><g transform="translate(312 36) scale(0.2)" stroke="#1b1b1b" stroke-width="1.5" fill="none" stroke-linejoin="round" stroke-linecap="round"><line x1="-40" y1="0" x2="446" y2="0" stroke-width="0.8" stroke-dasharray="4 2.5"/><path d="M 0 0 L 0.06 9.64 L 0.23 19.28 L 0.51 28.92 L 0.89 38.56 L 1.36 48.19 L 1.91 57.83 L 2.52 67.47 L 3.17 77.11 L 3.84 86.75 L 4.52 96.39 L 5.18 106.03 L 5.81 115.67 L 6.39 125.31 L 6.9 134.94 L 7.32 144.58 L 7.65 154.22 L 7.88 163.86 L 7.99 173.5 L 7.98 183.14 L 7.86 192.78 L 7.63 202.42 L 7.3 212.06 L 6.87 221.69 L 6.35 231.33 L 5.77 240.97 L 5.14 250.61 L 4.48 260.25 L 3.8 269.89 L 3.12 279.53 L 2.47 289.17 L 1.87 298.81 L 1.33 308.44 L 0.86 318.08 L 0.49 327.72 L 0.21 337.36 L 0.05 347 L 0.69 350.44 L 2.64 353.36 L 5.56 355.31 L 9 355.69 L 19.78 354.55 L 30.56 352.68 L 41.33 350.3 L 52.11 347.66 L 62.89 345.06 L 73.67 342.79 L 84.44 341.09 L 95.22 340.15 L 106 340.08 L 116.78 340.88 L 127.56 342.46 L 138.33 344.66 L 149.11 347.22 L 159.89 349.87 L 170.67 352.32 L 181.44 354.28 L 192.22 355.56 L 203 356 L 213.78 355.56 L 224.56 354.28 L 235.33 352.32 L 246.11 349.87 L 256.89 347.22 L 267.67 344.66 L 278.44 342.46 L 289.22 340.88 L 300 340.08 L 310.78 340.15 L 321.56 341.09 L 332.33 342.79 L 343.11 345.06 L 353.89 347.66 L 364.67 350.3 L 375.44 352.68 L 386.22 354.55 L 397 355.69 L 400.44 355.31 L 403.36 353.36 L 405.31 350.44 L 405.95 347 L 405.79 337.36 L 405.51 327.72 L 405.14 318.08 L 404.67 308.44 L 404.13 298.81 L 403.53 289.17 L 402.88 279.53 L 402.2 269.89 L 401.52 260.25 L 400.86 250.61 L 400.23 240.97 L 399.65 231.33 L 399.13 221.69 L 398.7 212.06 L 398.37 202.42 L 398.14 192.78 L 398.02 183.14 L 398.01 173.5 L 398.12 163.86 L 398.35 154.22 L 398.68 144.58 L 399.1 134.94 L 399.61 125.31 L 400.19 115.67 L 400.82 106.03 L 401.48 96.39 L 402.16 86.75 L 402.83 77.11 L 403.48 67.47 L 404.09 57.83 L 404.64 48.19 L 405.11 38.56 L 405.49 28.92 L 405.77 19.28 L 405.94 9.64 L 406 0 Z" fill="#fff" stroke-width="0.65"/><path d="M 9 0 L 9.06 9.4 L 9.22 18.79 L 9.49 28.19 L 9.85 37.58 L 10.3 46.98 L 10.82 56.37 L 11.4 65.77 L 12.03 75.16 L 12.67 84.56 L 13.32 93.95 L 13.95 103.35 L 14.56 112.74 L 15.11 122.14 L 15.59 131.53 L 16 140.93 L 16.31 150.32 L 16.53 159.72 L 16.63 169.11 L 16.63 178.51 L 16.52 187.9 L 16.3 197.3 L 15.98 206.69 L 15.56 216.09 L 15.07 225.49 L 14.52 234.88 L 13.91 244.28 L 13.28 253.67 L 12.63 263.07 L 11.98 272.46 L 11.36 281.86 L 10.79 291.25 L 10.27 300.65 L 9.82 310.04 L 9.47 319.44 L 9.2 328.83 L 9.05 338.23 L 9.65 341.58 L 11.52 344.43 L 14.31 346.33 L 17.6 346.7 L 27.9 345.58 L 38.2 343.77 L 48.5 341.44 L 58.8 338.87 L 69.1 336.34 L 79.4 334.12 L 89.7 332.47 L 100 331.55 L 110.3 331.48 L 120.6 332.26 L 130.9 333.81 L 141.2 335.95 L 151.5 338.45 L 161.8 341.03 L 172.1 343.41 L 182.4 345.33 L 192.7 346.57 L 203 347 L 213.3 346.57 L 223.6 345.33 L 233.9 343.41 L 244.2 341.03 L 254.5 338.45 L 264.8 335.95 L 275.1 333.81 L 285.4 332.26 L 295.7 331.48 L 306 331.55 L 316.3 332.47 L 326.6 334.12 L 336.9 336.34 L 347.2 338.87 L 357.5 341.44 L 367.8 343.77 L 378.1 345.58 L 388.4 346.7 L 391.69 346.33 L 394.48 344.43 L 396.35 341.58 L 396.95 338.23 L 396.8 328.83 L 396.53 319.44 L 396.18 310.04 L 395.73 300.65 L 395.21 291.25 L 394.64 281.86 L 394.02 272.46 L 393.37 263.07 L 392.72 253.67 L 392.09 244.28 L 391.48 234.88 L 390.93 225.49 L 390.44 216.09 L 390.02 206.69 L 389.7 197.3 L 389.48 187.9 L 389.37 178.51 L 389.37 169.11 L 389.47 159.72 L 389.69 150.32 L 390 140.93 L 390.41 131.53 L 390.89 122.14 L 391.44 112.74 L 392.05 103.35 L 392.68 93.95 L 393.33 84.56 L 393.97 75.16 L 394.6 65.77 L 395.18 56.37 L 395.7 46.98 L 396.15 37.58 L 396.51 28.19 L 396.78 18.79 L 396.94 9.4 L 397 0" fill="none" stroke-width="0.225"/><g fill="none" stroke-width="0.35" stroke-dasharray="6 4"><rect x="34" y="24" width="338" height="302"/><rect x="34" y="24" width="34" height="34"/><ellipse cx="42" cy="41" rx="13" ry="10"/><rect x="338" y="24" width="34" height="34"/><ellipse cx="364" cy="41" rx="13" ry="10"/><rect x="34" y="292" width="34" height="34"/><ellipse cx="42" cy="318" rx="13" ry="10"/><rect x="338" y="292" width="34" height="34"/><ellipse cx="364" cy="318" rx="13" ry="10"/></g></g><g class="dk-dim"><g stroke="#1b1b1b" stroke-width="0.13"><line x1="398.2" y1="34.5" x2="398.2" y2="108.7"/><line x1="394.2" y1="36" x2="399.4" y2="36"/><line x1="397.2" y1="37" x2="399.2" y2="35" stroke-width="0.3"/><line x1="394.2" y1="104" x2="399.4" y2="104"/><line x1="397.2" y1="105" x2="399.2" y2="103" stroke-width="0.3"/><line x1="394.2" y1="107.2" x2="399.4" y2="107.2"/><line x1="397.2" y1="108.2" x2="399.2" y2="106.2" stroke-width="0.3"/></g><text x="397.4" y="70" font-size="1" text-anchor="middle" fill="#1b1b1b" font-weight="400" letter-spacing="0" font-family="Helvetica, Arial, sans-serif" class="dk-mm" transform="rotate(-90 397.4 70)">340</text><text x="397.4" y="70" font-size="1" text-anchor="middle" fill="#1b1b1b" font-weight="400" letter-spacing="0" font-family="Helvetica, Arial, sans-serif" class="dk-in" transform="rotate(-90 397.4 70)">1'-1⅜"</text><text x="397.4" y="105.6" font-size="1" text-anchor="middle" fill="#1b1b1b" font-weight="400" letter-spacing="0" font-family="Helvetica, Arial, sans-serif" class="dk-mm" transform="rotate(-90 397.4 105.6)">16</text><text x="397.4" y="105.6" font-size="1" text-anchor="middle" fill="#1b1b1b" font-weight="400" letter-spacing="0" font-family="Helvetica, Arial, sans-serif" class="dk-in" transform="rotate(-90 397.4 105.6)">⅝"</text></g><g class="dk-dim"><g stroke="#1b1b1b" stroke-width="0.13"><line x1="310.5" y1="112.2" x2="354.1" y2="112.2"/><line x1="312" y1="108.2" x2="312" y2="113.4"/><line x1="311" y1="113.2" x2="313" y2="111.2" stroke-width="0.3"/><line x1="332.3" y1="108.2" x2="332.3" y2="113.4"/><line x1="331.3" y1="113.2" x2="333.3" y2="111.2" stroke-width="0.3"/><line x1="352.6" y1="108.2" x2="352.6" y2="113.4"/><line x1="351.6" y1="113.2" x2="353.6" y2="111.2" stroke-width="0.3"/></g><text x="322.15" y="111.4" font-size="1" text-anchor="middle" fill="#1b1b1b" font-weight="400" letter-spacing="0" font-family="Helvetica, Arial, sans-serif" class="dk-mm">101.5 TO THE DIP</text><text x="322.15" y="111.4" font-size="1" text-anchor="middle" fill="#1b1b1b" font-weight="400" letter-spacing="0" font-family="Helvetica, Arial, sans-serif" class="dk-in">4" TO THE DIP</text><text x="342.45" y="111.4" font-size="1" text-anchor="middle" fill="#1b1b1b" font-weight="400" letter-spacing="0" font-family="Helvetica, Arial, sans-serif" class="dk-mm">101.5 TO THE FULL CENTRE</text><text x="342.45" y="111.4" font-size="1" text-anchor="middle" fill="#1b1b1b" font-weight="400" letter-spacing="0" font-family="Helvetica, Arial, sans-serif" class="dk-in">4" TO THE FULL CENTRE</text></g><text x="352.6" y="71.6" font-size="1.4" text-anchor="middle" fill="#666" font-weight="400" letter-spacing="0" font-family="Helvetica, Arial, sans-serif">TOP — WOOD, NO STONE</text><text x="300" y="128" font-size="3.2" text-anchor="start" fill="#1b1b1b" font-weight="700" letter-spacing="0.3" font-family="Helvetica, Arial, sans-serif">2 · TOP EDGE</text><line x1="300" y1="129.5" x2="350" y2="129.5" stroke="#1b1b1b" stroke-width="0.35"/><text x="300" y="132.8" font-size="1.7" text-anchor="start" fill="#666" font-weight="400" letter-spacing="0.2" font-family="Helvetica, Arial, sans-serif">SECTION · SCALE 1:1</text><g transform="translate(362 140) scale(1)" stroke="#1b1b1b" stroke-width="0.3" fill="none" stroke-linejoin="round" stroke-linecap="round"><path d="M -62 0 L -6 0 C -1 0 5 2 8 7 C 10 10 10 13 7 15 L 5 16 L 5 19 C 5 21 3 22 0 22 L -62 22" fill="url(#hatchST)" stroke-width="0.195"/><path d="M -62 -3 L -62 25" stroke-width="0.09" stroke-dasharray="3 2"/><rect x="-52" y="22" width="18" height="24" fill="url(#hatchST2)" stroke-width="0.15"/><line x1="-34.6" y1="22" x2="-34.6" y2="46" stroke-width="0.06"/><rect x="-62" y="24" width="10" height="16" fill="#fff" stroke-width="0.12"/><path d="M -64 46 L -32 46" stroke-width="0.09" stroke-dasharray="3 2"/></g><g class="dk-dim"><g stroke="#1b1b1b" stroke-width="0.13"><line x1="371" y1="138.5" x2="371" y2="163.5"/><line x1="367.5" y1="140" x2="372.2" y2="140"/><line x1="370" y1="141" x2="372" y2="139" stroke-width="0.3"/><line x1="367.5" y1="162" x2="372.2" y2="162"/><line x1="370" y1="163" x2="372" y2="161" stroke-width="0.3"/></g><text x="370.2" y="151" font-size="1" text-anchor="middle" fill="#1b1b1b" font-weight="400" letter-spacing="0" font-family="Helvetica, Arial, sans-serif" class="dk-mm" transform="rotate(-90 370.2 151)">22</text><text x="370.2" y="151" font-size="1" text-anchor="middle" fill="#1b1b1b" font-weight="400" letter-spacing="0" font-family="Helvetica, Arial, sans-serif" class="dk-in" transform="rotate(-90 370.2 151)">⅞"</text></g><g stroke="#1b1b1b" stroke-width="0.13" fill="none"><path d="M 369 146 L 372 145.2 L 378 145.2"/></g><circle cx="369" cy="146" r="0.45" fill="#1b1b1b"/><text x="379.6" y="145.8" font-size="1.8" text-anchor="start" fill="#1b1b1b" font-weight="400" letter-spacing="0" font-family="Helvetica, Arial, sans-serif">THUMBNAIL MOULDING</text><text x="379.6" y="148.6" font-size="1.45" text-anchor="start" fill="#666" font-weight="400" letter-spacing="0" font-family="Helvetica, Arial, sans-serif">AND A FILLET UNDER</text><g stroke="#1b1b1b" stroke-width="0.13" fill="none"><path d="M 332 151 L 372 154 L 378 154"/></g><circle cx="332" cy="151" r="0.45" fill="#1b1b1b"/><text x="379.6" y="154.6" font-size="1.8" text-anchor="start" fill="#1b1b1b" font-weight="400" letter-spacing="0" font-family="Helvetica, Arial, sans-serif">THE TOP, SOLID</text><text x="379.6" y="157.4" font-size="1.45" text-anchor="start" fill="#666" font-weight="400" letter-spacing="0" font-family="Helvetica, Arial, sans-serif">⅞ IN, POLISHED DARK</text><g stroke="#1b1b1b" stroke-width="0.13" fill="none"><path d="M 305 172 L 372 170.8 L 378 170.8"/></g><circle cx="305" cy="172" r="0.45" fill="#1b1b1b"/><text x="379.6" y="171.4" font-size="1.8" text-anchor="start" fill="#1b1b1b" font-weight="400" letter-spacing="0" font-family="Helvetica, Arial, sans-serif">WOODEN BUTTON</text><text x="379.6" y="174.2" font-size="1.45" text-anchor="start" fill="#666" font-weight="400" letter-spacing="0" font-family="Helvetica, Arial, sans-serif">LETS THE TOP MOVE</text><g stroke="#1b1b1b" stroke-width="0.13" fill="none"><path d="M 319 178 L 372 179.6 L 378 179.6"/></g><circle cx="319" cy="178" r="0.45" fill="#1b1b1b"/><text x="379.6" y="180.2" font-size="1.8" text-anchor="start" fill="#1b1b1b" font-weight="400" letter-spacing="0" font-family="Helvetica, Arial, sans-serif">THE APRON SIDE</text><text x="379.6" y="183" font-size="1.45" text-anchor="start" fill="#666" font-weight="400" letter-spacing="0" font-family="Helvetica, Arial, sans-serif">BURL OUTSIDE</text><text x="300" y="194" font-size="3.2" text-anchor="start" fill="#1b1b1b" font-weight="700" letter-spacing="0.3" font-family="Helvetica, Arial, sans-serif">3 · KNOB</text><line x1="300" y1="195.5" x2="350" y2="195.5" stroke="#1b1b1b" stroke-width="0.35"/><text x="300" y="198.8" font-size="1.7" text-anchor="start" fill="#666" font-weight="400" letter-spacing="0.2" font-family="Helvetica, Arial, sans-serif">FACE AND SECTION · SCALE 1:1</text><g transform="translate(318 218) scale(1)" stroke="#1b1b1b" stroke-width="0.3" fill="none" stroke-linejoin="round" stroke-linecap="round"><circle cx="0" cy="0" r="15" fill="#fff" stroke-width="0.12"/><circle cx="11.5" cy="0" r="2.6" fill="none" stroke-width="0.0525"/><circle cx="9.96" cy="5.75" r="2.6" fill="none" stroke-width="0.0525"/><circle cx="5.75" cy="9.96" r="2.6" fill="none" stroke-width="0.0525"/><circle cx="0" cy="11.5" r="2.6" fill="none" stroke-width="0.0525"/><circle cx="-5.75" cy="9.96" r="2.6" fill="none" stroke-width="0.0525"/><circle cx="-9.96" cy="5.75" r="2.6" fill="none" stroke-width="0.0525"/><circle cx="-11.5" cy="0" r="2.6" fill="none" stroke-width="0.0525"/><circle cx="-9.96" cy="-5.75" r="2.6" fill="none" stroke-width="0.0525"/><circle cx="-5.75" cy="-9.96" r="2.6" fill="none" stroke-width="0.0525"/><circle cx="0" cy="-11.5" r="2.6" fill="none" stroke-width="0.0525"/><circle cx="5.75" cy="-9.96" r="2.6" fill="none" stroke-width="0.0525"/><circle cx="9.96" cy="-5.75" r="2.6" fill="none" stroke-width="0.0525"/><circle cx="0" cy="0" r="8" fill="#fff" stroke-width="0.15"/><circle cx="0" cy="0" r="3" fill="none" stroke-width="0.075"/></g><g transform="translate(352 218) scale(1)" stroke="#1b1b1b" stroke-width="0.3" fill="none" stroke-linejoin="round" stroke-linecap="round"><rect x="0" y="-15" width="3" height="30" fill="#fff" stroke-width="0.15"/><path d="M 3 -8 L 8 -6 L 8 6 L 3 8 Z" fill="#fff" stroke-width="0.15"/><path d="M 8 -4 C 12 -9 22 -9 24 0 C 22 9 12 9 8 4 Z" fill="#fff" stroke-width="0.165"/><rect x="-18" y="-15" width="18" height="30" fill="url(#hatchST2)" stroke-width="0.15"/><line x1="-14" y1="0" x2="20" y2="0" stroke-width="0.075" stroke-dasharray="2 1.5"/></g><text x="380" y="214" font-size="1.4" text-anchor="start" fill="#1b1b1b" font-weight="400" letter-spacing="0" font-family="Helvetica, Arial, sans-serif">BRASS, CAST ROSETTE</text><text x="380" y="217.5" font-size="1.25" text-anchor="start" fill="#666" font-weight="400" letter-spacing="0" font-family="Helvetica, Arial, sans-serif">30 BACKPLATE, 16 KNOB</text><text x="380" y="221" font-size="1.25" text-anchor="start" fill="#666" font-weight="400" letter-spacing="0" font-family="Helvetica, Arial, sans-serif">BOLTED THROUGH THE DRAWER</text><text x="18" y="194" font-size="3.2" text-anchor="start" fill="#1b1b1b" font-weight="700" letter-spacing="0.3" font-family="Helvetica, Arial, sans-serif">NOTES</text><line x1="18" y1="195.5" x2="138" y2="195.5" stroke="#1b1b1b" stroke-width="0.35"/><text x="18" y="198.8" font-size="1.7" text-anchor="start" fill="#666" font-weight="400" letter-spacing="0.2" font-family="Helvetica, Arial, sans-serif">REVISION 1</text><text x="18" y="204" font-size="1.42" text-anchor="start" fill="#1b1b1b" font-weight="400" letter-spacing="0" font-family="Helvetica, Arial, sans-serif">After the owner's photo (7 Oct): a shaped serpentine top with a moulded edge and eared front corners — wood, no</text><text x="18" y="208.2" font-size="1.42" text-anchor="start" fill="#1b1b1b" font-weight="400" letter-spacing="0" font-family="Helvetica, Arial, sans-serif">stone (owner); a deep apron with one drawer, its front in burl, a brass rosette knob in the middle; a carved console</text><text x="18" y="212.4" font-size="1.42" text-anchor="start" fill="#1b1b1b" font-weight="400" letter-spacing="0" font-family="Helvetica, Arial, sans-serif">at each corner; tall slim cabriole legs with a bead down the front edge, ending in a scroll toe. Two the same.</text><text x="18" y="216.6" font-size="1.42" text-anchor="start" fill="#1b1b1b" font-weight="400" letter-spacing="0" font-family="Helvetica, Arial, sans-serif">16 × 14 in and 24 in high — the photo's table is taller; its proportions are kept, the height is set by the bed</text><text x="18" y="220.8" font-size="1.42" text-anchor="start" fill="#1b1b1b" font-weight="400" letter-spacing="0" font-family="Helvetica, Arial, sans-serif">(3 in above the mattress). The back legs turn their knees sideways only, so the table stands tight to the parchment.</text><text x="18" y="225" font-size="1.42" text-anchor="start" fill="#1b1b1b" font-weight="400" letter-spacing="0" font-family="Helvetica, Arial, sans-serif">Top and legs polished dark, as the photo; apron and drawer in the room's burl. Finish to confirm with the bed's.</text><g data-tb="1"><g stroke="#1b1b1b" stroke-width="0.3" fill="none"><rect x="300" y="239" width="112" height="50" fill="#fff"/>
      <line x1="300" y1="253" x2="412" y2="253"/><line x1="300" y1="269" x2="412" y2="269"/>
      <line x1="300" y1="279" x2="412" y2="279"/><line x1="356" y1="269" x2="356" y2="289"/></g><text x="303" y="245.5" font-size="3.4" text-anchor="start" fill="#1b1b1b" font-weight="700" letter-spacing="0.6" font-family="Helvetica, Arial, sans-serif">A STUDY IN TEAK</text><text x="303" y="250" font-size="1.9" text-anchor="start" fill="#666" font-weight="400" letter-spacing="0" font-family="Helvetica, Arial, sans-serif">Particulars of the room</text><text x="303" y="259.5" font-size="3.4" text-anchor="start" fill="#1b1b1b" font-weight="700" letter-spacing="0.3" font-family="Helvetica, Arial, sans-serif">THE SIDE TABLES</text><text x="303" y="265" font-size="2" text-anchor="start" fill="#666" font-weight="400" letter-spacing="0" font-family="Helvetica, Arial, sans-serif">Front · Side · Plan · Top edge · Knob</text><text x="303" y="273" font-size="1.5" text-anchor="start" fill="#666" font-weight="400" letter-spacing="0" font-family="Helvetica, Arial, sans-serif">SCALE</text><text x="303" y="277" font-size="2.1" text-anchor="start" fill="#1b1b1b" font-weight="400" letter-spacing="0" font-family="Helvetica, Arial, sans-serif">AS NOTED @ A3</text><text x="359" y="273" font-size="1.5" text-anchor="start" fill="#666" font-weight="400" letter-spacing="0" font-family="Helvetica, Arial, sans-serif">DATE</text><text x="359" y="277" font-size="2.1" text-anchor="start" fill="#1b1b1b" font-weight="400" letter-spacing="0" font-family="Helvetica, Arial, sans-serif">07.10.2026</text><text x="303" y="283" font-size="1.5" text-anchor="start" fill="#666" font-weight="400" letter-spacing="0" font-family="Helvetica, Arial, sans-serif">REV</text><text x="303" y="287" font-size="1.309090909090909" text-anchor="start" fill="#1b1b1b" font-weight="400" letter-spacing="0" font-family="Helvetica, Arial, sans-serif">1 — after the owner's photo: shaped top, burl drawer, cabriole legs; no stone</text><text x="359" y="283" font-size="1.5" text-anchor="start" fill="#666" font-weight="400" letter-spacing="0" font-family="Helvetica, Arial, sans-serif">DWG</text><text x="359" y="287" font-size="2.1" text-anchor="start" fill="#1b1b1b" font-weight="700" letter-spacing="0" font-family="Helvetica, Arial, sans-serif">AST-DR-049</text></g></svg>