  0
SECTION
  2
HEADER
  9
$ACADVER
  1
AC1024
  9
$ACADMAINTVER
 70
6
  9
$DWGCODEPAGE
  3
ANSI_1252
  9
$LASTSAVEDBY
  1
ezdxf
  9
$INSBASE
 10
0.0
 20
0.0
 30
0.0
  9
$EXTMIN
 10
1e+20
 20
1e+20
 30
1e+20
  9
$EXTMAX
 10
-1e+20
 20
-1e+20
 30
-1e+20
  9
$LIMMIN
 10
0.0
 20
0.0
  9
$LIMMAX
 10
420.0
 20
297.0
  9
$ORTHOMODE
 70
0
  9
$REGENMODE
 70
1
  9
$FILLMODE
 70
1
  9
$QTEXTMODE
 70
0
  9
$MIRRTEXT
 70
1
  9
$LTSCALE
 40
0.00984251968503937
  9
$ATTMODE
 70
1
  9
$TEXTSIZE
 40
2.5
  9
$TRACEWID
 40
1.0
  9
$TEXTSTYLE
  7
OpenSans
  9
$CLAYER
  8
0
  9
$CELTYPE
  6
ByLayer
  9
$CECOLOR
 62
256
  9
$CELTSCALE
 40
1.0
  9
$DISPSILH
 70
0
  9
$DIMSCALE
 40
1.0
  9
$DIMASZ
 40
0.175
  9
$DIMEXO
 40
0.125
  9
$DIMDLI
 40
3.75
  9
$DIMRND
 40
0.0
  9
$DIMDLE
 40
0.0
  9
$DIMEXE
 40
0.375
  9
$DIMTP
 40
0.0
  9
$DIMTM
 40
0.0
  9
$DIMTXT
 40
0.25
  9
$DIMCEN
 40
2.5
  9
$DIMTSZ
 40
0.0
  9
$DIMTOL
 70
0
  9
$DIMLIM
 70
0
  9
$DIMTIH
 70
0
  9
$DIMTOH
 70
0
  9
$DIMSE1
 70
0
  9
$DIMSE2
 70
0
  9
$DIMTAD
 70
1
  9
$DIMZIN
 70
12
  9
$DIMBLK
  1
ARCHTICK
  9
$DIMASO
 70
1
  9
$DIMSHO
 70
1
  9
$DIMPOST
  1

  9
$DIMAPOST
  1

  9
$DIMALT
 70
0
  9
$DIMALTD
 70
3
  9
$DIMALTF
 40
0.03937007874
  9
$DIMLFAC
 40
100.0
  9
$DIMTOFL
 70
1
  9
$DIMTVP
 40
0.0
  9
$DIMTIX
 70
0
  9
$DIMSOXD
 70
0
  9
$DIMSAH
 70
0
  9
$DIMBLK1
  1

  9
$DIMBLK2
  1

  9
$DIMSTYLE
  2
EZDXF
  9
$DIMCLRD
 70
0
  9
$DIMCLRE
 70
0
  9
$DIMCLRT
 70
0
  9
$DIMTFAC
 40
0.5
  9
$DIMGAP
 40
0.1
  9
$DIMJUST
 70
0
  9
$DIMSD1
 70
0
  9
$DIMSD2
 70
0
  9
$DIMTOLJ
 70
0
  9
$DIMTZIN
 70
8
  9
$DIMALTZ
 70
0
  9
$DIMALTTZ
 70
0
  9
$DIMUPT
 70
1
  9
$DIMDEC
 70
2
  9
$DIMTDEC
 70
2
  9
$DIMALTU
 70
2
  9
$DIMALTTD
 70
3
  9
$DIMTXSTY
  7
OpenSansCondensed-Light
  9
$DIMAUNIT
 70
0
  9
$DIMADEC
 70
2
  9
$DIMALTRND
 40
0.0
  9
$DIMAZIN
 70
3
  9
$DIMDSEP
 70
46
  9
$DIMATFIT
 70
3
  9
$DIMFRAC
 70
0
  9
$DIMLDRBLK
  1

  9
$DIMLUNIT
 70
2
  9
$DIMLWD
 70
-2
  9
$DIMLWE
 70
-2
  9
$DIMTMOVE
 70
2
  9
$DIMFXL
 40
1.0
  9
$DIMFXLON
 70
0
  9
$DIMJOGANG
 40
0.785398163397
  9
$DIMTFILL
 70
0
  9
$DIMTFILLCLR
 70
0
  9
$DIMARCSYM
 70
0
  9
$DIMLTYPE
  6

  9
$DIMLTEX1
  6

  9
$DIMLTEX2
  6

  9
$DIMTXTDIRECTION
 70
0
  9
$LUNITS
 70
4
  9
$LUPREC
 70
4
  9
$SKETCHINC
 40
1.0
  9
$FILLETRAD
 40
10.0
  9
$AUNITS
 70
0
  9
$AUPREC
 70
3
  9
$MENU
  1
.
  9
$ELEVATION
 40
0.0
  9
$PELEVATION
 40
0.0
  9
$THICKNESS
 40
0.0
  9
$LIMCHECK
 70
0
  9
$CHAMFERA
 40
0.0
  9
$CHAMFERB
 40
0.0
  9
$CHAMFERC
 40
0.0
  9
$CHAMFERD
 40
0.0
  9
$SKPOLY
 70
0
  9
$TDCREATE
 40
2461307.804849537
  9
$TDUCREATE
 40
2458532.153996898
  9
$TDUPDATE
 40
2461307.804849537
  9
$TDUUPDATE
 40
2458532.1544311
  9
$TDINDWG
 40
0.0
  9
$TDUSRTIMER
 40
0.0
  9
$USRTIMER
 70
1
  9
$ANGBASE
 50
0.0
  9
$ANGDIR
 70
0
  9
$PDMODE
 70
0
  9
$PDSIZE
 40
0.0
  9
$PLINEWID
 40
0.0
  9
$SPLFRAME
 70
0
  9
$SPLINETYPE
 70
6
  9
$SPLINESEGS
 70
8
  9
$HANDSEED
  5
241
  9
$SURFTAB1
 70
6
  9
$SURFTAB2
 70
6
  9
$SURFTYPE
 70
6
  9
$SURFU
 70
6
  9
$SURFV
 70
6
  9
$UCSBASE
  2

  9
$UCSNAME
  2

  9
$UCSORG
 10
0.0
 20
0.0
 30
0.0
  9
$UCSXDIR
 10
1.0
 20
0.0
 30
0.0
  9
$UCSYDIR
 10
0.0
 20
1.0
 30
0.0
  9
$UCSORTHOREF
  2

  9
$UCSORTHOVIEW
 70
0
  9
$UCSORGTOP
 10
0.0
 20
0.0
 30
0.0
  9
$UCSORGBOTTOM
 10
0.0
 20
0.0
 30
0.0
  9
$UCSORGLEFT
 10
0.0
 20
0.0
 30
0.0
  9
$UCSORGRIGHT
 10
0.0
 20
0.0
 30
0.0
  9
$UCSORGFRONT
 10
0.0
 20
0.0
 30
0.0
  9
$UCSORGBACK
 10
0.0
 20
0.0
 30
0.0
  9
$PUCSBASE
  2

  9
$PUCSNAME
  2

  9
$PUCSORG
 10
0.0
 20
0.0
 30
0.0
  9
$PUCSXDIR
 10
1.0
 20
0.0
 30
0.0
  9
$PUCSYDIR
 10
0.0
 20
1.0
 30
0.0
  9
$PUCSORTHOREF
  2

  9
$PUCSORTHOVIEW
 70
0
  9
$PUCSORGTOP
 10
0.0
 20
0.0
 30
0.0
  9
$PUCSORGBOTTOM
 10
0.0
 20
0.0
 30
0.0
  9
$PUCSORGLEFT
 10
0.0
 20
0.0
 30
0.0
  9
$PUCSORGRIGHT
 10
0.0
 20
0.0
 30
0.0
  9
$PUCSORGFRONT
 10
0.0
 20
0.0
 30
0.0
  9
$PUCSORGBACK
 10
0.0
 20
0.0
 30
0.0
  9
$USERI1
 70
0
  9
$USERI2
 70
0
  9
$USERI3
 70
0
  9
$USERI4
 70
0
  9
$USERI5
 70
0
  9
$USERR1
 40
0.0
  9
$USERR2
 40
0.0
  9
$USERR3
 40
0.0
  9
$USERR4
 40
0.0
  9
$USERR5
 40
0.0
  9
$WORLDVIEW
 70
1
  9
$SHADEDGE
 70
3
  9
$SHADEDIF
 70
70
  9
$TILEMODE
 70
1
  9
$MAXACTVP
 70
64
  9
$PINSBASE
 10
0.0
 20
0.0
 30
0.0
  9
$PLIMCHECK
 70
0
  9
$PEXTMIN
 10
1e+20
 20
1e+20
 30
1e+20
  9
$PEXTMAX
 10
-1e+20
 20
-1e+20
 30
-1e+20
  9
$PLIMMIN
 10
0.0
 20
0.0
  9
$PLIMMAX
 10
420.0
 20
297.0
  9
$UNITMODE
 70
0
  9
$VISRETAIN
 70
1
  9
$PLINEGEN
 70
0
  9
$PSLTSCALE
 70
1
  9
$TREEDEPTH
 70
3020
  9
$CMLSTYLE
  2
Standard
  9
$CMLJUST
 70
0
  9
$CMLSCALE
 40
20.0
  9
$PROXYGRAPHICS
 70
1
  9
$MEASUREMENT
 70
0
  9
$CELWEIGHT
370
-1
  9
$ENDCAPS
280
0
  9
$JOINSTYLE
280
0
  9
$LWDISPLAY
290
0
  9
$INSUNITS
 70
1
  9
$HYPERLINKBASE
  1

  9
$STYLESHEET
  1

  9
$XEDIT
290
1
  9
$CEPSNTYPE
380
0
  9
$PSTYLEMODE
290
1
  9
$FINGERPRINTGUID
  2
{B8B7A811-6344-4402-AB29-57AE8A79721B}
  9
$VERSIONGUID
  2
{61F242EC-05D2-40CE-9562-82513B1A748B}
  9
$EXTNAMES
290
1
  9
$PSVPSCALE
 40
0.0
  9
$OLESTARTUP
290
0
  9
$SORTENTS
280
127
  9
$INDEXCTL
280
0
  9
$HIDETEXT
280
1
  9
$XCLIPFRAME
280
1
  9
$HALOGAP
280
0
  9
$OBSCOLOR
 70
257
  9
$OBSLTYPE
280
0
  9
$INTERSECTIONDISPLAY
280
0
  9
$INTERSECTIONCOLOR
 70
257
  9
$DIMASSOC
280
2
  9
$PROJECTNAME
  1

  9
$CAMERADISPLAY
290
0
  9
$LENSLENGTH
 40
50.0
  9
$CAMERAHEIGHT
 40
0.0
  9
$STEPSPERSEC
 40
24.0
  9
$STEPSIZE
 40
100.0
  9
$3DDWFPREC
 40
2.0
  9
$PSOLWIDTH
 40
0.005
  9
$PSOLHEIGHT
 40
0.08
  9
$LOFTANG1
 40
1.570796326795
  9
$LOFTANG2
 40
1.570796326795
  9
$LOFTMAG1
 40
0.0
  9
$LOFTMAG2
 40
0.0
  9
$LOFTPARAM
 70
7
  9
$LOFTNORMALS
280
1
  9
$LATITUDE
 40
37.795
  9
$LONGITUDE
 40
-122.394
  9
$NORTHDIRECTION
 40
0.0
  9
$TIMEZONE
 70
-8000
  9
$LIGHTGLYPHDISPLAY
280
1
  9
$TILEMODELIGHTSYNCH
280
1
  9
$CMATERIAL
347
20
  9
$SOLIDHIST
280
0
  9
$SHOWHIST
280
1
  9
$DWFFRAME
280
2
  9
$DGNFRAME
280
2
  9
$REALWORLDSCALE
290
1
  9
$INTERFERECOLOR
 62
256
  9
$CSHADOW
280
0
  9
$SHADOWPLANELOCATION
 40
0.0
  0
ENDSEC
  0
SECTION
  2
CLASSES
  0
CLASS
  1
ACDBDICTIONARYWDFLT
  2
AcDbDictionaryWithDefault
  3
ObjectDBX Classes
 90
0
 91
0
280
0
281
0
  0
CLASS
  1
SUN
  2
AcDbSun
  3
SCENEOE
 90
1153
 91
0
280
0
281
0
  0
CLASS
  1
VISUALSTYLE
  2
AcDbVisualStyle
  3
ObjectDBX Classes
 90
4095
 91
0
280
0
281
0
  0
CLASS
  1
MATERIAL
  2
AcDbMaterial
  3
ObjectDBX Classes
 90
1153
 91
0
280
0
281
0
  0
CLASS
  1
SCALE
  2
AcDbScale
  3
ObjectDBX Classes
 90
1153
 91
0
280
0
281
0
  0
CLASS
  1
TABLESTYLE
  2
AcDbTableStyle
  3
ObjectDBX Classes
 90
4095
 91
0
280
0
281
0
  0
CLASS
  1
MLEADERSTYLE
  2
AcDbMLeaderStyle
  3
ACDB_MLEADERSTYLE_CLASS
 90
4095
 91
0
280
0
281
0
  0
CLASS
  1
DICTIONARYVAR
  2
AcDbDictionaryVar
  3
ObjectDBX Classes
 90
0
 91
0
280
0
281
0
  0
CLASS
  1
CELLSTYLEMAP
  2
AcDbCellStyleMap
  3
ObjectDBX Classes
 90
1152
 91
0
280
0
281
0
  0
CLASS
  1
MENTALRAYRENDERSETTINGS
  2
AcDbMentalRayRenderSettings
  3
SCENEOE
 90
1024
 91
0
280
0
281
0
  0
CLASS
  1
ACDBDETAILVIEWSTYLE
  2
AcDbDetailViewStyle
  3
ObjectDBX Classes
 90
1025
 91
0
280
0
281
0
  0
CLASS
  1
ACDBSECTIONVIEWSTYLE
  2
AcDbSectionViewStyle
  3
ObjectDBX Classes
 90
1025
 91
0
280
0
281
0
  0
CLASS
  1
RASTERVARIABLES
  2
AcDbRasterVariables
  3
ISM
 90
0
 91
0
280
0
281
0
  0
CLASS
  1
LAYOUT
  2
AcDbLayout
  3
ObjectDBX Classes
 90
0
 91
0
280
0
281
0
  0
CLASS
  1
ACDBPLACEHOLDER
  2
AcDbPlaceHolder
  3
ObjectDBX Classes
 90
0
 91
0
280
0
281
0
  0
ENDSEC
  0
SECTION
  2
TABLES
  0
TABLE
  2
VPORT
  5
8
330
0
100
AcDbSymbolTable
 70
1
  0
VPORT
  5
23
330
8
100
AcDbSymbolTableRecord
100
AcDbViewportTableRecord
  2
*Active
 70
0
 10
0.0
 20
0.0
 11
1.0
 21
1.0
 12
0.0
 22
0.0
 13
0.0
 23
0.0
 14
0.5
 24
0.5
 15
0.5
 25
0.5
 16
0.0
 26
0.0
 36
1.0
 17
0.0
 27
0.0
 37
0.0
 40
1000.0
 41
1.34
 42
50.0
 43
0.0
 44
0.0
 50
0.0
 51
0.0
 71
0
 72
1000
 73
1
 74
3
 75
0
 76
0
 77
0
 78
0
281
0
 65
0
146
0.0
  0
ENDTAB
  0
TABLE
  2
LTYPE
  5
2
330
0
100
AcDbSymbolTable
 70
21
  0
LTYPE
  5
24
330
2
100
AcDbSymbolTableRecord
100
AcDbLinetypeTableRecord
  2
ByBlock
 70
0
  3

 72
65
 73
0
 40
0.0
  0
LTYPE
  5
25
330
2
100
AcDbSymbolTableRecord
100
AcDbLinetypeTableRecord
  2
ByLayer
 70
0
  3

 72
65
 73
0
 40
0.0
  0
LTYPE
  5
26
330
2
100
AcDbSymbolTableRecord
100
AcDbLinetypeTableRecord
  2
Continuous
 70
0
  3

 72
65
 73
0
 40
0.0
  0
LTYPE
  5
2F
330
2
100
AcDbSymbolTableRecord
100
AcDbLinetypeTableRecord
  2
CENTER
 70
0
  3
Center ____ _ ____ _ ____ _ ____ _ ____ _ ____
 72
65
 73
4
 40
2.0
 49
1.25
 74
0
 49
-0.25
 74
0
 49
0.25
 74
0
 49
-0.25
 74
0
  0
LTYPE
  5
30
330
2
100
AcDbSymbolTableRecord
100
AcDbLinetypeTableRecord
  2
CENTERX2
 70
0
  3
Center (2x) ________  __  ________  __  ________
 72
65
 73
4
 40
3.5
 49
2.5
 74
0
 49
-0.25
 74
0
 49
0.5
 74
0
 49
-0.25
 74
0
  0
LTYPE
  5
31
330
2
100
AcDbSymbolTableRecord
100
AcDbLinetypeTableRecord
  2
CENTER2
 70
0
  3
Center (.5x) ____ _ ____ _ ____ _ ____ _ ____
 72
65
 73
4
 40
1.0
 49
0.625
 74
0
 49
-0.125
 74
0
 49
0.125
 74
0
 49
-0.125
 74
0
  0
LTYPE
  5
32
330
2
100
AcDbSymbolTableRecord
100
AcDbLinetypeTableRecord
  2
DASHED
 70
0
  3
Dashed __ __ __ __ __ __ __ __ __ __ __ __ __ _
 72
65
 73
2
 40
0.6
 49
0.5
 74
0
 49
-0.1
 74
0
  0
LTYPE
  5
33
330
2
100
AcDbSymbolTableRecord
100
AcDbLinetypeTableRecord
  2
DASHEDX2
 70
0
  3
Dashed (2x) ____  ____  ____  ____  ____  ____
 72
65
 73
2
 40
1.2
 49
1.0
 74
0
 49
-0.2
 74
0
  0
LTYPE
  5
34
330
2
100
AcDbSymbolTableRecord
100
AcDbLinetypeTableRecord
  2
DASHED2
 70
0
  3
Dashed (.5x) _ _ _ _ _ _ _ _ _ _ _ _ _ _
 72
65
 73
2
 40
0.3
 49
0.25
 74
0
 49
-0.05
 74
0
  0
LTYPE
  5
35
330
2
100
AcDbSymbolTableRecord
100
AcDbLinetypeTableRecord
  2
PHANTOM
 70
0
  3
Phantom ______  __  __  ______  __  __  ______
 72
65
 73
6
 40
2.5
 49
1.25
 74
0
 49
-0.25
 74
0
 49
0.25
 74
0
 49
-0.25
 74
0
 49
0.25
 74
0
 49
-0.25
 74
0
  0
LTYPE
  5
36
330
2
100
AcDbSymbolTableRecord
100
AcDbLinetypeTableRecord
  2
PHANTOMX2
 70
0
  3
Phantom (2x)____________    ____    ____    ____________
 72
65
 73
6
 40
4.25
 49
2.5
 74
0
 49
-0.25
 74
0
 49
0.5
 74
0
 49
-0.25
 74
0
 49
0.5
 74
0
 49
-0.25
 74
0
  0
LTYPE
  5
37
330
2
100
AcDbSymbolTableRecord
100
AcDbLinetypeTableRecord
  2
PHANTOM2
 70
0
  3
Phantom (.5x) ___ _ _ ___ _ _ ___ _ _ ___ _ _ ___
 72
65
 73
6
 40
1.25
 49
0.625
 74
0
 49
-0.125
 74
0
 49
0.125
 74
0
 49
-0.125
 74
0
 49
0.125
 74
0
 49
-0.125
 74
0
  0
LTYPE
  5
38
330
2
100
AcDbSymbolTableRecord
100
AcDbLinetypeTableRecord
  2
DASHDOT
 70
0
  3
Dash dot __ . __ . __ . __ . __ . __ . __ . __
 72
65
 73
4
 40
1.4
 49
1.0
 74
0
 49
-0.2
 74
0
 49
0.0
 74
0
 49
-0.2
 74
0
  0
LTYPE
  5
39
330
2
100
AcDbSymbolTableRecord
100
AcDbLinetypeTableRecord
  2
DASHDOTX2
 70
0
  3
Dash dot (2x) ____  .  ____  .  ____  .  ____
 72
65
 73
4
 40
2.4
 49
2.0
 74
0
 49
-0.2
 74
0
 49
0.0
 74
0
 49
-0.2
 74
0
  0
LTYPE
  5
3A
330
2
100
AcDbSymbolTableRecord
100
AcDbLinetypeTableRecord
  2
DASHDOT2
 70
0
  3
Dash dot (.5x) _ . _ . _ . _ . _ . _ . _ . _
 72
65
 73
4
 40
0.7
 49
0.5
 74
0
 49
-0.1
 74
0
 49
0.0
 74
0
 49
-0.1
 74
0
  0
LTYPE
  5
3B
330
2
100
AcDbSymbolTableRecord
100
AcDbLinetypeTableRecord
  2
DOT
 70
0
  3
Dot .  .  .  .  .  .  .  .  .  .  .  .  .  .  .  .
 72
65
 73
2
 40
0.2
 49
0.0
 74
0
 49
-0.2
 74
0
  0
LTYPE
  5
3C
330
2
100
AcDbSymbolTableRecord
100
AcDbLinetypeTableRecord
  2
DOTX2
 70
0
  3
Dot (2x) .    .    .    .    .    .    .    . 
 72
65
 73
2
 40
0.4
 49
0.0
 74
0
 49
-0.4
 74
0
  0
LTYPE
  5
3D
330
2
100
AcDbSymbolTableRecord
100
AcDbLinetypeTableRecord
  2
DOT2
 70
0
  3
Dot (.5) . . . . . . . . . . . . . . . . . . . 
 72
65
 73
2
 40
0.1
 49
0.0
 74
0
 49
-0.1
 74
0
  0
LTYPE
  5
3E
330
2
100
AcDbSymbolTableRecord
100
AcDbLinetypeTableRecord
  2
DIVIDE
 70
0
  3
Divide __ . . __ . . __ . . __ . . __ . . __
 72
65
 73
6
 40
1.6
 49
1.0
 74
0
 49
-0.2
 74
0
 49
0.0
 74
0
 49
-0.2
 74
0
 49
0.0
 74
0
 49
-0.2
 74
0
  0
LTYPE
  5
3F
330
2
100
AcDbSymbolTableRecord
100
AcDbLinetypeTableRecord
  2
DIVIDEX2
 70
0
  3
Divide (2x) ____  . .  ____  . .  ____  . .  ____
 72
65
 73
6
 40
2.6
 49
2.0
 74
0
 49
-0.2
 74
0
 49
0.0
 74
0
 49
-0.2
 74
0
 49
0.0
 74
0
 49
-0.2
 74
0
  0
LTYPE
  5
40
330
2
100
AcDbSymbolTableRecord
100
AcDbLinetypeTableRecord
  2
DIVIDE2
 70
0
  3
Divide(.5x) _ . _ . _ . _ . _ . _ . _ . _
 72
65
 73
6
 40
0.8
 49
0.5
 74
0
 49
-0.1
 74
0
 49
0.0
 74
0
 49
-0.1
 74
0
 49
0.0
 74
0
 49
-0.1
 74
0
  0
ENDTAB
  0
TABLE
  2
LAYER
  5
1
330
0
100
AcDbSymbolTable
 70
6
  0
LAYER
  5
27
330
1
100
AcDbSymbolTableRecord
100
AcDbLayerTableRecord
  2
0
 70
0
 62
7
  6
Continuous
370
-3
390
13
347
21
  0
LAYER
  5
28
330
1
100
AcDbSymbolTableRecord
100
AcDbLayerTableRecord
  2
Defpoints
 70
0
 62
7
  6
Continuous
290
0
370
-3
390
13
347
21
  0
LAYER
  5
8A
330
1
100
AcDbSymbolTableRecord
100
AcDbLayerTableRecord
  2
GEOMETRY
 70
0
 62
7
  6
Continuous
370
-3
390
13
347
21
  0
LAYER
  5
8B
330
1
100
AcDbSymbolTableRecord
100
AcDbLayerTableRecord
  2
DIMENSIONS
 70
0
 62
1
  6
Continuous
370
-3
390
13
347
21
  0
LAYER
  5
8C
330
1
100
AcDbSymbolTableRecord
100
AcDbLayerTableRecord
  2
TEXT
 70
0
 62
7
  6
Continuous
370
-3
390
13
347
21
  0
LAYER
  5
8D
330
1
100
AcDbSymbolTableRecord
100
AcDbLayerTableRecord
  2
HATCH
 70
0
 62
8
  6
Continuous
370
-3
390
13
347
21
  0
ENDTAB
  0
TABLE
  2
STYLE
  5
5
330
0
100
AcDbSymbolTable
 70
26
  0
STYLE
  5
29
330
5
100
AcDbSymbolTableRecord
100
AcDbTextStyleTableRecord
  2
Standard
 70
0
 40
0.0
 41
1.0
 50
0.0
 71
0
 42
2.5
  3
txt
  4

  0
STYLE
  5
41
330
5
100
AcDbSymbolTableRecord
100
AcDbTextStyleTableRecord
  2
OpenSans-Light
 70
0
 40
0.0
 41
1.0
 50
0.0
 71
0
 42
2.5
  3
OpenSans-Light.ttf
  4

  0
STYLE
  5
42
330
5
100
AcDbSymbolTableRecord
100
AcDbTextStyleTableRecord
  2
OpenSans-Light-Italic
 70
0
 40
0.0
 41
1.0
 50
0.0
 71
0
 42
2.5
  3
OpenSans-LightItalic.ttf
  4

  0
STYLE
  5
43
330
5
100
AcDbSymbolTableRecord
100
AcDbTextStyleTableRecord
  2
OpenSans
 70
0
 40
0.0
 41
1.0
 50
0.0
 71
0
 42
2.5
  3
OpenSans-Regular.ttf
  4

  0
STYLE
  5
44
330
5
100
AcDbSymbolTableRecord
100
AcDbTextStyleTableRecord
  2
OpenSans-Italic
 70
0
 40
0.0
 41
1.0
 50
0.0
 71
0
 42
2.5
  3
OpenSans-Italic.ttf
  4

  0
STYLE
  5
45
330
5
100
AcDbSymbolTableRecord
100
AcDbTextStyleTableRecord
  2
OpenSans-SemiBold
 70
0
 40
0.0
 41
1.0
 50
0.0
 71
0
 42
2.5
  3
OpenSans-SemiBold.ttf
  4

  0
STYLE
  5
46
330
5
100
AcDbSymbolTableRecord
100
AcDbTextStyleTableRecord
  2
OpenSans-SemiBoldItalic
 70
0
 40
0.0
 41
1.0
 50
0.0
 71
0
 42
2.5
  3
OpenSans-SemiBoldItalic.ttf
  4

  0
STYLE
  5
47
330
5
100
AcDbSymbolTableRecord
100
AcDbTextStyleTableRecord
  2
OpenSans-Bold
 70
0
 40
0.0
 41
1.0
 50
0.0
 71
0
 42
2.5
  3
OpenSans-Bold.ttf
  4

  0
STYLE
  5
48
330
5
100
AcDbSymbolTableRecord
100
AcDbTextStyleTableRecord
  2
OpenSans-BoldItalic
 70
0
 40
0.0
 41
1.0
 50
0.0
 71
0
 42
2.5
  3
OpenSans-BoldItalic.ttf
  4

  0
STYLE
  5
49
330
5
100
AcDbSymbolTableRecord
100
AcDbTextStyleTableRecord
  2
OpenSans-ExtraBold
 70
0
 40
0.0
 41
1.0
 50
0.0
 71
0
 42
2.5
  3
OpenSans-ExtraBold.ttf
  4

  0
STYLE
  5
4A
330
5
100
AcDbSymbolTableRecord
100
AcDbTextStyleTableRecord
  2
OpenSans-ExtraBoldItalic
 70
0
 40
0.0
 41
1.0
 50
0.0
 71
0
 42
2.5
  3
OpenSans-ExtraBoldItalic.ttf
  4

  0
STYLE
  5
4B
330
5
100
AcDbSymbolTableRecord
100
AcDbTextStyleTableRecord
  2
OpenSansCondensed-Bold
 70
0
 40
0.0
 41
1.0
 50
0.0
 71
0
 42
2.5
  3
OpenSansCondensed-Bold.ttf
  4

  0
STYLE
  5
4C
330
5
100
AcDbSymbolTableRecord
100
AcDbTextStyleTableRecord
  2
OpenSansCondensed-Light
 70
0
 40
0.0
 41
1.0
 50
0.0
 71
0
 42
2.5
  3
OpenSansCondensed-Light.ttf
  4

  0
STYLE
  5
4D
330
5
100
AcDbSymbolTableRecord
100
AcDbTextStyleTableRecord
  2
OpenSansCondensed-Italic
 70
0
 40
0.0
 41
1.0
 50
0.0
 71
0
 42
2.5
  3
OpenSansCondensed-LightItalic.ttf
  4

  0
STYLE
  5
4E
330
5
100
AcDbSymbolTableRecord
100
AcDbTextStyleTableRecord
  2
LiberationSans
 70
0
 40
0.0
 41
1.0
 50
0.0
 71
0
 42
2.5
  3
LiberationSans-Regular.ttf
  4

  0
STYLE
  5
4F
330
5
100
AcDbSymbolTableRecord
100
AcDbTextStyleTableRecord
  2
LiberationSans-Bold
 70
0
 40
0.0
 41
1.0
 50
0.0
 71
0
 42
2.5
  3
LiberationSans-Bold.ttf
  4

  0
STYLE
  5
50
330
5
100
AcDbSymbolTableRecord
100
AcDbTextStyleTableRecord
  2
LiberationSans-BoldItalic
 70
0
 40
0.0
 41
1.0
 50
0.0
 71
0
 42
2.5
  3
LiberationSans-BoldItalic.ttf
  4

  0
STYLE
  5
51
330
5
100
AcDbSymbolTableRecord
100
AcDbTextStyleTableRecord
  2
LiberationSans-Italic
 70
0
 40
0.0
 41
1.0
 50
0.0
 71
0
 42
2.5
  3
LiberationSans-Italic.ttf
  4

  0
STYLE
  5
52
330
5
100
AcDbSymbolTableRecord
100
AcDbTextStyleTableRecord
  2
LiberationSerif
 70
0
 40
0.0
 41
1.0
 50
0.0
 71
0
 42
2.5
  3
LiberationSerif-Regular.ttf
  4

  0
STYLE
  5
53
330
5
100
AcDbSymbolTableRecord
100
AcDbTextStyleTableRecord
  2
LiberationSerif-Bold
 70
0
 40
0.0
 41
1.0
 50
0.0
 71
0
 42
2.5
  3
LiberationSerif-Bold.ttf
  4

  0
STYLE
  5
54
330
5
100
AcDbSymbolTableRecord
100
AcDbTextStyleTableRecord
  2
LiberationSerif-BoldItalic
 70
0
 40
0.0
 41
1.0
 50
0.0
 71
0
 42
2.5
  3
LiberationSerif-BoldItalic.ttf
  4

  0
STYLE
  5
55
330
5
100
AcDbSymbolTableRecord
100
AcDbTextStyleTableRecord
  2
LiberationSerif-Italic
 70
0
 40
0.0
 41
1.0
 50
0.0
 71
0
 42
2.5
  3
LiberationSerif-Italic.ttf
  4

  0
STYLE
  5
56
330
5
100
AcDbSymbolTableRecord
100
AcDbTextStyleTableRecord
  2
LiberationMono
 70
0
 40
0.0
 41
1.0
 50
0.0
 71
0
 42
2.5
  3
LiberationMono-Regular.ttf
  4

  0
STYLE
  5
57
330
5
100
AcDbSymbolTableRecord
100
AcDbTextStyleTableRecord
  2
LiberationMono-Bold
 70
0
 40
0.0
 41
1.0
 50
0.0
 71
0
 42
2.5
  3
LiberationMono-Bold.ttf
  4

  0
STYLE
  5
58
330
5
100
AcDbSymbolTableRecord
100
AcDbTextStyleTableRecord
  2
LiberationMono-BoldItalic
 70
0
 40
0.0
 41
1.0
 50
0.0
 71
0
 42
2.5
  3
LiberationMono-BoldItalic.ttf
  4

  0
STYLE
  5
59
330
5
100
AcDbSymbolTableRecord
100
AcDbTextStyleTableRecord
  2
LiberationMono-Italic
 70
0
 40
0.0
 41
1.0
 50
0.0
 71
0
 42
2.5
  3
LiberationMono-Italic.ttf
  4

  0
ENDTAB
  0
TABLE
  2
VIEW
  5
7
330
0
100
AcDbSymbolTable
 70
0
  0
ENDTAB
  0
TABLE
  2
UCS
  5
6
330
0
100
AcDbSymbolTable
 70
0
  0
ENDTAB
  0
TABLE
  2
APPID
  5
3
330
0
100
AcDbSymbolTable
 70
3
  0
APPID
  5
2A
330
3
100
AcDbSymbolTableRecord
100
AcDbRegAppTableRecord
  2
ACAD
 70
0
  0
APPID
  5
23E
330
3
100
AcDbSymbolTableRecord
100
AcDbRegAppTableRecord
  2
HATCHBACKGROUNDCOLOR
 70
0
  0
APPID
  5
23F
330
3
100
AcDbSymbolTableRecord
100
AcDbRegAppTableRecord
  2
EZDXF
 70
0
  0
ENDTAB
  0
TABLE
  2
DIMSTYLE
  5
4
330
0
100
AcDbSymbolTable
 70
12
100
AcDbDimStyleTable
  0
DIMSTYLE
105
2B
330
4
100
AcDbSymbolTableRecord
100
AcDbDimStyleTableRecord
  2
Standard
 70
0
 40
1.0
 41
2.5
 42
0.625
 43
3.75
 44
1.25
 45
0.0
 46
0.0
 47
0.0
 48
0.0
 49
2.5
140
2.5
141
2.5
142
0.0
143
0.03937007874
144
1.0
145
0.0
146
1.0
147
0.625
148
0.0
 69
0
 70
0
 71
0
 72
0
 73
0
 74
0
 75
0
 76
0
 77
1
 78
8
 79
3
170
0
171
3
172
1
173
0
174
0
175
0
176
0
177
0
178
0
179
2
271
2
272
2
273
2
274
3
275
0
276
0
277
2
278
44
279
0
280
0
281
0
282
0
283
0
284
8
285
0
286
0
288
0
289
3
290
0
371
-2
372
-2
  0
DIMSTYLE
105
73
330
4
100
AcDbSymbolTableRecord
100
AcDbDimStyleTableRecord
  2
EZDXF
 70
0
 40
1.0
 41
0.175
 42
0.125
 43
3.75
 44
0.375
 45
0.0
 46
0.0
 47
0.0
 48
0.0
 49
2.5
140
0.25
141
2.5
142
0.0
143
0.03937007874
144
100.0
145
0.0
146
0.5
147
0.1
148
0.0
 69
0
 70
0
 71
0
 72
0
 73
0
 74
0
 75
0
 76
0
 77
1
 78
12
 79
3
170
0
171
3
172
1
173
0
174
0
175
0
176
0
177
0
178
0
179
2
271
2
272
2
273
2
274
3
275
0
276
0
277
2
278
46
279
2
280
0
281
0
282
0
283
0
284
8
285
0
286
0
288
1
289
3
290
0
340
4C
342
74
371
-2
372
-2
  0
DIMSTYLE
105
7C
330
4
100
AcDbSymbolTableRecord
100
AcDbDimStyleTableRecord
  2
EZ_M_100_H25_CM
 70
0
 40
1.0
 41
0.25
 42
0.125
 43
3.75
 44
0.375
 45
0.0
 46
0.0
 47
0.0
 48
0.0
 49
2.5
140
0.25
141
2.5
142
0.125
143
0.03937007874
144
100.0
145
0.0
146
0.5
147
0.1
148
0.0
 69
0
 70
0
 71
0
 72
0
 73
0
 74
0
 75
0
 76
0
 77
1
 78
12
 79
3
170
0
171
3
172
1
173
0
174
0
175
0
176
0
177
0
178
0
179
2
271
2
272
2
273
2
274
3
275
0
276
0
277
2
278
46
279
2
280
0
281
0
282
0
283
0
284
8
285
0
286
0
288
1
289
3
290
0
340
4C
371
-2
372
-2
  0
DIMSTYLE
105
7D
330
4
100
AcDbSymbolTableRecord
100
AcDbDimStyleTableRecord
  2
EZ_M_50_H25_CM
 70
0
 40
1.0
 41
0.125
 42
0.0625
 43
3.75
 44
0.1875
 45
0.0
 46
0.0
 47
0.0
 48
0.0
 49
2.5
140
0.125
141
2.5
142
0.0625
143
0.03937007874
144
100.0
145
0.0
146
0.5
147
0.05
148
0.0
 69
0
 70
0
 71
0
 72
0
 73
0
 74
0
 75
0
 76
0
 77
1
 78
12
 79
3
170
0
171
3
172
1
173
0
174
0
175
0
176
0
177
0
178
0
179
2
271
2
272
2
273
2
274
3
275
0
276
0
277
2
278
46
279
2
280
0
281
0
282
0
283
0
284
8
285
0
286
0
288
1
289
3
290
0
340
4C
371
-2
372
-2
  0
DIMSTYLE
105
7E
330
4
100
AcDbSymbolTableRecord
100
AcDbDimStyleTableRecord
  2
EZ_M_25_H25_CM
 70
0
 40
1.0
 41
0.0625
 42
0.03125
 43
3.75
 44
0.09375
 45
0.0
 46
0.0
 47
0.0
 48
0.0
 49
2.5
140
0.0625
141
2.5
142
0.03125
143
0.03937007874
144
100.0
145
0.0
146
0.5
147
0.025
148
0.0
 69
0
 70
0
 71
0
 72
0
 73
0
 74
0
 75
0
 76
0
 77
1
 78
12
 79
3
170
0
171
3
172
1
173
0
174
0
175
0
176
0
177
0
178
0
179
2
271
2
272
2
273
2
274
3
275
0
276
0
277
2
278
46
279
2
280
0
281
0
282
0
283
0
284
8
285
0
286
0
288
1
289
3
290
0
340
4C
371
-2
372
-2
  0
DIMSTYLE
105
7F
330
4
100
AcDbSymbolTableRecord
100
AcDbDimStyleTableRecord
  2
EZ_M_20_H25_CM
 70
0
 40
1.0
 41
0.05
 42
0.025
 43
3.75
 44
0.07500000000000001
 45
0.0
 46
0.0
 47
0.0
 48
0.0
 49
2.5
140
0.05
141
2.5
142
0.025
143
0.03937007874
144
100.0
145
0.0
146
0.5
147
0.020000000000000004
148
0.0
 69
0
 70
0
 71
0
 72
0
 73
0
 74
0
 75
0
 76
0
 77
1
 78
12
 79
3
170
0
171
3
172
1
173
0
174
0
175
0
176
0
177
0
178
0
179
2
271
2
272
2
273
2
274
3
275
0
276
0
277
2
278
46
279
2
280
0
281
0
282
0
283
0
284
8
285
0
286
0
288
1
289
3
290
0
340
4C
371
-2
372
-2
  0
DIMSTYLE
105
80
330
4
100
AcDbSymbolTableRecord
100
AcDbDimStyleTableRecord
  2
EZ_M_10_H25_CM
 70
0
 40
1.0
 41
0.025
 42
0.0125
 43
3.75
 44
0.037500000000000006
 45
0.0
 46
0.0
 47
0.0
 48
0.0
 49
2.5
140
0.025
141
2.5
142
0.0125
143
0.03937007874
144
100.0
145
0.0
146
0.5
147
0.010000000000000002
148
0.0
 69
0
 70
0
 71
0
 72
0
 73
0
 74
0
 75
0
 76
0
 77
1
 78
12
 79
3
170
0
171
3
172
1
173
0
174
0
175
0
176
0
177
0
178
0
179
2
271
2
272
2
273
2
274
3
275
0
276
0
277
2
278
46
279
2
280
0
281
0
282
0
283
0
284
8
285
0
286
0
288
1
289
3
290
0
340
4C
371
-2
372
-2
  0
DIMSTYLE
105
81
330
4
100
AcDbSymbolTableRecord
100
AcDbDimStyleTableRecord
  2
EZ_M_5_H25_CM
 70
0
 40
1.0
 41
0.0125
 42
0.00625
 43
3.75
 44
0.018750000000000003
 45
0.0
 46
0.0
 47
0.0
 48
0.0
 49
2.5
140
0.0125
141
2.5
142
0.00625
143
0.03937007874
144
100.0
145
0.0
146
0.5
147
0.005000000000000001
148
0.0
 69
0
 70
0
 71
0
 72
0
 73
0
 74
0
 75
0
 76
0
 77
1
 78
12
 79
3
170
0
171
3
172
1
173
0
174
0
175
0
176
0
177
0
178
0
179
2
271
2
272
2
273
2
274
3
275
0
276
0
277
2
278
46
279
2
280
0
281
0
282
0
283
0
284
8
285
0
286
0
288
1
289
3
290
0
340
4C
371
-2
372
-2
  0
DIMSTYLE
105
82
330
4
100
AcDbSymbolTableRecord
100
AcDbDimStyleTableRecord
  2
EZ_M_1_H25_CM
 70
0
 40
1.0
 41
0.0025
 42
0.00125
 43
3.75
 44
0.00375
 45
0.0
 46
0.0
 47
0.0
 48
0.0
 49
2.5
140
0.0025
141
2.5
142
0.00125
143
0.03937007874
144
100.0
145
0.0
146
0.5
147
0.001
148
0.0
 69
0
 70
0
 71
0
 72
0
 73
0
 74
0
 75
0
 76
0
 77
1
 78
12
 79
3
170
0
171
3
172
1
173
0
174
0
175
0
176
0
177
0
178
0
179
2
271
2
272
2
273
2
274
3
275
0
276
0
277
2
278
46
279
2
280
0
281
0
282
0
283
0
284
8
285
0
286
0
288
1
289
3
290
0
340
4C
371
-2
372
-2
  0
DIMSTYLE
105
83
330
4
100
AcDbSymbolTableRecord
100
AcDbDimStyleTableRecord
  2
EZ_RADIUS
 70
0
 40
1.0
 41
0.25
 42
0.125
 43
3.75
 44
0.375
 45
0.0
 46
0.0
 47
0.0
 48
0.0
 49
2.5
140
0.25
141
0.0
142
0.0
143
0.03937007874
144
100.0
145
0.0
146
0.5
147
0.1
148
0.0
 69
0
 70
0
 71
0
 72
0
 73
0
 74
0
 75
0
 76
0
 77
1
 78
12
 79
3
170
0
171
3
172
0
173
0
174
0
175
0
176
0
177
0
178
0
179
2
271
2
272
2
273
2
274
3
275
0
276
0
277
2
278
46
279
1
280
0
281
0
282
0
283
0
284
8
285
0
286
0
288
1
289
3
290
0
340
4C
342
84
371
-2
372
-2
  0
DIMSTYLE
105
88
330
4
100
AcDbSymbolTableRecord
100
AcDbDimStyleTableRecord
  2
EZ_RADIUS_INSIDE
 70
0
 40
1.0
 41
0.25
 42
0.125
 43
3.75
 44
0.375
 45
0.0
 46
0.0
 47
0.0
 48
0.0
 49
2.5
140
0.25
141
0.0
142
0.0
143
0.03937007874
144
100.0
145
0.0
146
0.5
147
0.1
148
0.0
 69
0
 70
0
 71
0
 72
0
 73
0
 74
0
 75
0
 76
0
 77
0
 78
12
 79
3
170
0
171
3
172
0
173
0
174
1
175
0
176
0
177
0
178
0
179
2
271
2
272
2
273
2
274
3
275
0
276
0
277
2
278
46
279
0
280
0
281
0
282
0
283
0
284
8
285
0
286
0
288
1
289
0
290
0
340
4C
342
84
371
-2
372
-2
  0
DIMSTYLE
105
89
330
4
100
AcDbSymbolTableRecord
100
AcDbDimStyleTableRecord
  2
EZ_CURVED
 70
0
 40
1.0
 41
0.25
 42
0.125
 43
3.75
 44
0.375
 45
0.0
 46
0.0
 47
0.0
 48
0.0
 49
2.5
140
0.25
141
2.5
142
0.0
143
0.03937007874
144
100.0
145
0.0
146
0.5
147
0.1
148
0.0
 69
0
 70
0
 71
0
 72
0
 73
0
 74
0
 75
0
 76
0
 77
1
 78
12
 79
2
 90
2
170
0
171
3
172
1
173
0
174
0
175
0
176
0
177
0
178
0
179
2
271
2
272
2
273
2
274
3
275
0
276
0
277
2
278
46
279
2
280
0
281
0
282
0
283
0
284
8
285
0
286
0
288
1
289
3
290
0
340
4C
371
-2
372
-2
  0
ENDTAB
  0
TABLE
  2
BLOCK_RECORD
  5
9
330
0
100
AcDbSymbolTable
 70
5
  0
BLOCK_RECORD
  5
17
330
9
100
AcDbSymbolTableRecord
100
AcDbBlockTableRecord
  2
*Model_Space
340
1A
 70
0
280
1
281
0
  0
BLOCK_RECORD
  5
1B
330
9
100
AcDbSymbolTableRecord
100
AcDbBlockTableRecord
  2
*Paper_Space
340
1E
 70
0
280
1
281
0
  0
BLOCK_RECORD
  5
74
330
9
100
AcDbSymbolTableRecord
100
AcDbBlockTableRecord
  2
_ARCHTICK
340
0
 70
0
280
1
281
0
  0
BLOCK_RECORD
  5
78
330
9
100
AcDbSymbolTableRecord
100
AcDbBlockTableRecord
  2
_CLOSEDFILLED
340
0
 70
0
280
1
281
0
  0
BLOCK_RECORD
  5
84
330
9
100
AcDbSymbolTableRecord
100
AcDbBlockTableRecord
  2
_CLOSEDBLANK
340
0
 70
0
280
1
281
0
  0
ENDTAB
  0
ENDSEC
  0
SECTION
  2
BLOCKS
  0
BLOCK
  5
18
330
17
100
AcDbEntity
  8
0
100
AcDbBlockBegin
  2
*Model_Space
 70
0
 10
0.0
 20
0.0
 30
0.0
  3
*Model_Space
  1

  0
ENDBLK
  5
19
330
17
100
AcDbEntity
  8
0
100
AcDbBlockEnd
  0
BLOCK
  5
1C
330
1B
100
AcDbEntity
  8
0
100
AcDbBlockBegin
  2
*Paper_Space
 70
0
 10
0.0
 20
0.0
 30
0.0
  3
*Paper_Space
  1

  0
ENDBLK
  5
1D
330
1B
100
AcDbEntity
  8
0
100
AcDbBlockEnd
  0
BLOCK
  5
75
330
74
100
AcDbEntity
  8
0
100
AcDbBlockBegin
  2
_ARCHTICK
 70
0
 10
0.0
 20
0.0
 30
0.0
  3
_ARCHTICK
  1

  0
LWPOLYLINE
  5
77
330
74
100
AcDbEntity
  8
0
  6
BYBLOCK
 62
0
100
AcDbPolyline
 90
2
 70
0
 43
0.15
 10
-0.5
 20
-0.5
 10
0.5
 20
0.5
  0
ENDBLK
  5
76
330
74
100
AcDbEntity
  8
0
100
AcDbBlockEnd
  0
BLOCK
  5
79
330
78
100
AcDbEntity
  8
0
100
AcDbBlockBegin
  2
_CLOSEDFILLED
 70
0
 10
0.0
 20
0.0
 30
0.0
  3
_CLOSEDFILLED
  1

  0
SOLID
  5
7B
330
78
100
AcDbEntity
  8
0
  6
BYBLOCK
 62
0
100
AcDbTrace
 10
-1.0
 20
0.16439898372402537
 30
0.0
 11
0.0
 21
0.0
 31
0.0
 12
-1.0
 22
-0.16439898372402537
 32
0.0
 13
-1.0
 23
-0.16439898372402537
 33
0.0
  0
ENDBLK
  5
7A
330
78
100
AcDbEntity
  8
0
100
AcDbBlockEnd
  0
BLOCK
  5
85
330
84
100
AcDbEntity
  8
0
100
AcDbBlockBegin
  2
_CLOSEDBLANK
 70
0
 10
0.0
 20
0.0
 30
0.0
  3
_CLOSEDBLANK
  1

  0
LWPOLYLINE
  5
87
330
84
100
AcDbEntity
  8
0
  6
BYBLOCK
 62
0
100
AcDbPolyline
 90
3
 70
1
 10
-1.0
 20
0.16439898372402537
 10
0.0
 20
0.0
 10
-1.0
 20
-0.16439898372402537
  0
ENDBLK
  5
86
330
84
100
AcDbEntity
  8
0
100
AcDbBlockEnd
  0
ENDSEC
  0
SECTION
  2
ENTITIES
  0
LWPOLYLINE
  5
8E
330
17
100
AcDbEntity
  8
GEOMETRY
100
AcDbPolyline
 90
5
 70
0
 10
0.31496062992125984
 20
11.377952755905513
 10
16.22047244094488
 20
11.377952755905513
 10
16.22047244094488
 20
0.31496062992126106
 10
0.31496062992125984
 20
0.31496062992126106
 10
0.31496062992125984
 20
11.377952755905513
  0
TEXT
  5
8F
330
17
100
AcDbEntity
  8
TEXT
100
AcDbText
 10
0.7086614173228346
 20
11.023622047244094
 30
0.0
 40
0.09070866141732283
  1
FRONT
 11
0.7086614173228346
 21
11.023622047244094
 31
0.0
100
AcDbText
  0
LINE
  5
90
330
17
100
AcDbEntity
  8
GEOMETRY
100
AcDbLine
 10
0.7086614173228346
 20
10.964566929133857
 30
0.0
 11
7.4015748031496065
 21
10.964566929133857
 31
0.0
  0
TEXT
  5
91
330
17
100
AcDbEntity
  8
TEXT
100
AcDbText
 10
0.7086614173228346
 20
10.834645669291337
 30
0.0
 40
0.048188976377952754
  1
1:10 · MARBLE THE FULL 5 FT · THE BOWL SITS UNDER THE FAUCET, 6 IN RIGHT OF CENTRE
 11
0.7086614173228346
 21
10.834645669291337
 31
0.0
100
AcDbText
  0
LWPOLYLINE
  5
92
330
17
100
AcDbEntity
  8
GEOMETRY
  6
DASHED
100
AcDbPolyline
 90
5
 70
0
 10
3.1377952755905514
 20
6.661417322834646
 10
5.5393700787401565
 20
6.661417322834646
 10
5.5393700787401565
 20
6.062992125984253
 10
3.1377952755905514
 20
6.062992125984253
 10
3.1377952755905514
 20
6.661417322834646
  0
LWPOLYLINE
  5
93
330
17
100
AcDbEntity
  8
GEOMETRY
100
AcDbPolyline
 90
5
 70
0
 10
1.3385826771653544
 20
9.212598425196852
 10
7.338582677165355
 20
9.212598425196852
 10
7.338582677165355
 20
6.661417322834646
 10
1.3385826771653544
 20
6.661417322834646
 10
1.3385826771653544
 20
9.212598425196852
  0
LWPOLYLINE
  5
94
330
17
100
AcDbEntity
  8
GEOMETRY
100
AcDbPolyline
 90
5
 70
0
 10
1.3385826771653544
 20
9.362204724409448
 10
7.338582677165355
 20
9.362204724409448
 10
7.338582677165355
 20
9.212598425196852
 10
1.3385826771653544
 20
9.212598425196852
 10
1.3385826771653544
 20
9.362204724409448
  0
LWPOLYLINE
  5
95
330
17
100
AcDbEntity
  8
GEOMETRY
100
AcDbPolyline
 90
5
 70
0
 10
1.5
 20
9.051181102362206
 10
2.677165354330709
 20
9.051181102362206
 10
2.677165354330709
 20
6.8228346456692925
 10
1.5
 20
6.8228346456692925
 10
1.5
 20
9.051181102362206
  0
SPLINE
  5
96
330
17
100
AcDbEntity
  8
GEOMETRY
100
AcDbSpline
 70
0
 71
3
 72
8
 73
4
 74
0
 40
0.0
 40
0.0
 40
0.0
 40
0.0
 40
1.0
 40
1.0
 40
1.0
 40
1.0
 10
2.236220472440945
 20
8.78740157480315
 30
0.0
 10
2.354330708661417
 20
8.708661417322835
 30
0.0
 10
2.4724409448818894
 20
8.708661417322835
 30
0.0
 10
2.590551181102362
 20
8.78740157480315
 30
0.0
  0
LWPOLYLINE
  5
97
330
17
100
AcDbEntity
  8
GEOMETRY
100
AcDbPolyline
 90
5
 70
0
 10
6.0
 20
9.051181102362206
 10
7.177165354330709
 20
9.051181102362206
 10
7.177165354330709
 20
6.8228346456692925
 10
6.0
 20
6.8228346456692925
 10
6.0
 20
9.051181102362206
  0
SPLINE
  5
98
330
17
100
AcDbEntity
  8
GEOMETRY
100
AcDbSpline
 70
0
 71
3
 72
8
 73
4
 74
0
 40
0.0
 40
0.0
 40
0.0
 40
0.0
 40
1.0
 40
1.0
 40
1.0
 40
1.0
 10
6.086614173228347
 20
8.78740157480315
 30
0.0
 10
6.204724409448819
 20
8.708661417322835
 30
0.0
 10
6.322834645669292
 20
8.708661417322835
 30
0.0
 10
6.440944881889764
 20
8.78740157480315
 30
0.0
  0
LWPOLYLINE
  5
99
330
17
100
AcDbEntity
  8
GEOMETRY
100
AcDbPolyline
 90
5
 70
0
 10
3.0
 20
9.051181102362206
 10
4.27755905511811
 20
9.051181102362206
 10
4.27755905511811
 20
8.476377952755907
 10
3.0
 20
8.476377952755907
 10
3.0
 20
9.051181102362206
  0
LWPOLYLINE
  5
9A
330
17
100
AcDbEntity
  8
GEOMETRY
100
AcDbPolyline
 90
5
 70
0
 10
4.399606299212598
 20
9.051181102362206
 10
5.677165354330708
 20
9.051181102362206
 10
5.677165354330708
 20
8.476377952755907
 10
4.399606299212598
 20
8.476377952755907
 10
4.399606299212598
 20
9.051181102362206
  0
LWPOLYLINE
  5
9B
330
17
100
AcDbEntity
  8
GEOMETRY
100
AcDbPolyline
 90
5
 70
0
 10
3.0
 20
8.350393700787402
 10
5.677165354330708
 20
8.350393700787402
 10
5.677165354330708
 20
6.822834645669292
 10
3.0
 20
6.822834645669292
 10
3.0
 20
8.350393700787402
  0
LWPOLYLINE
  5
9C
330
17
100
AcDbEntity
  8
GEOMETRY
  6
DASHED
100
AcDbPolyline
 90
5
 70
0
 10
3.1102362204724407
 20
8.248031496062993
 10
5.566929133858268
 20
8.248031496062993
 10
5.566929133858268
 20
7.874015748031496
 10
3.1102362204724407
 20
7.874015748031496
 10
3.1102362204724407
 20
8.248031496062993
  0
POLYLINE
  5
9D
330
17
100
AcDbEntity
  8
GEOMETRY
100
AcDb2dPolyline
 66
1
 10
0.0
 20
0.0
 30
0.0
 70
0
  0
VERTEX
  5
9E
330
9D
100
AcDbEntity
  8
GEOMETRY
100
AcDbVertex
100
AcDb2dVertex
 10
4.137795275590552
 20
9.86220472440945
 30
0.0
 70
0
  0
VERTEX
  5
9F
330
9D
100
AcDbEntity
  8
GEOMETRY
100
AcDbVertex
100
AcDb2dVertex
 10
5.7362204724409445
 20
9.86220472440945
 30
0.0
 70
0
  0
SEQEND
  5
A0
330
9D
100
AcDbEntity
  8
GEOMETRY
  0
SPLINE
  5
A1
330
17
100
AcDbEntity
  8
GEOMETRY
100
AcDbSpline
 70
0
 71
3
 72
8
 73
4
 74
0
 40
0.0
 40
0.0
 40
0.0
 40
0.0
 40
1.0
 40
1.0
 40
1.0
 40
1.0
 10
5.7362204724409445
 20
9.86220472440945
 30
0.0
 10
5.7362204724409445
 20
9.537204724409449
 30
0.0
 10
5.376574803149606
 20
9.362204724409448
 30
0.0
 10
5.176771653543307
 20
9.362204724409448
 30
0.0
  0
POLYLINE
  5
A2
330
17
100
AcDbEntity
  8
GEOMETRY
100
AcDb2dPolyline
 66
1
 10
0.0
 20
0.0
 30
0.0
 70
0
  0
VERTEX
  5
A3
330
A2
100
AcDbEntity
  8
GEOMETRY
100
AcDbVertex
100
AcDb2dVertex
 10
5.176771653543307
 20
9.362204724409448
 30
0.0
 70
0
  0
VERTEX
  5
A4
330
A2
100
AcDbEntity
  8
GEOMETRY
100
AcDbVertex
100
AcDb2dVertex
 10
4.697244094488189
 20
9.362204724409448
 30
0.0
 70
0
  0
SEQEND
  5
A5
330
A2
100
AcDbEntity
  8
GEOMETRY
  0
SPLINE
  5
A6
330
17
100
AcDbEntity
  8
GEOMETRY
100
AcDbSpline
 70
0
 71
3
 72
8
 73
4
 74
0
 40
0.0
 40
0.0
 40
0.0
 40
0.0
 40
1.0
 40
1.0
 40
1.0
 40
1.0
 10
4.697244094488189
 20
9.362204724409448
 30
0.0
 10
4.49744094488189
 20
9.362204724409448
 30
0.0
 10
4.137795275590552
 20
9.537204724409449
 30
0.0
 10
4.137795275590552
 20
9.86220472440945
 30
0.0
  0
LINE
  5
A7
330
17
100
AcDbEntity
  8
GEOMETRY
100
AcDbLine
 10
4.18503937007874
 20
9.81496062992126
 30
0.0
 11
5.688976377952756
 21
9.81496062992126
 31
0.0
  0
LWPOLYLINE
  5
A8
330
17
100
AcDbEntity
  8
GEOMETRY
100
AcDbPolyline
 90
5
 70
0
 10
4.818897637795276
 20
10.354330708661418
 10
5.05511811023622
 20
10.354330708661418
 10
5.05511811023622
 20
10.118110236220474
 10
4.818897637795276
 20
10.118110236220474
 10
4.818897637795276
 20
10.354330708661418
  0
LWPOLYLINE
  5
A9
330
17
100
AcDbEntity
  8
GEOMETRY
100
AcDbPolyline
 90
5
 70
0
 10
4.893700787401575
 20
10.118110236220474
 10
4.980314960629922
 20
10.118110236220474
 10
4.980314960629922
 20
10.01968503937008
 10
4.893700787401575
 20
10.01968503937008
 10
4.893700787401575
 20
10.118110236220474
  0
LINE
  5
AA
330
17
100
AcDbEntity
  8
GEOMETRY
100
AcDbLine
 10
0.7480314960629921
 20
6.062992125984252
 30
0.0
 11
7.929133858267717
 21
6.062992125984252
 31
0.0
  0
LINE
  5
AB
330
17
100
AcDbEntity
  8
DIMENSIONS
  6
DASHED
100
AcDbLine
 10
4.937007874015748
 20
10.531496062992126
 30
0.0
 11
4.937007874015748
 21
9.283464566929133
 31
0.0
  0
LINE
  5
AC
330
17
100
AcDbEntity
  8
GEOMETRY
  6
DASHED
100
AcDbLine
 10
4.338582677165355
 20
10.531496062992126
 30
0.0
 11
4.338582677165355
 21
9.283464566929133
 31
0.0
  0
LINE
  5
AD
330
17
100
AcDbEntity
  8
DIMENSIONS
100
AcDbLine
 10
1.279527559055118
 20
5.846456692913386
 30
0.0
 11
7.397637795275591
 21
5.846456692913386
 31
0.0
  0
LINE
  5
AE
330
17
100
AcDbEntity
  8
DIMENSIONS
100
AcDbLine
 10
1.3385826771653544
 20
6.0236220472440944
 30
0.0
 11
1.3385826771653544
 21
5.799212598425197
 31
0.0
  0
LINE
  5
AF
330
17
100
AcDbEntity
  8
DIMENSIONS
100
AcDbLine
 10
1.2992125984251968
 20
5.807086614173229
 30
0.0
 11
1.3779527559055118
 21
5.8858267716535435
 31
0.0
  0
LINE
  5
B0
330
17
100
AcDbEntity
  8
DIMENSIONS
100
AcDbLine
 10
2.838582677165354
 20
6.0236220472440944
 30
0.0
 11
2.838582677165354
 21
5.799212598425197
 31
0.0
  0
LINE
  5
B1
330
17
100
AcDbEntity
  8
DIMENSIONS
100
AcDbLine
 10
2.7992125984251968
 20
5.807086614173229
 30
0.0
 11
2.8779527559055116
 21
5.8858267716535435
 31
0.0
  0
LINE
  5
B2
330
17
100
AcDbEntity
  8
DIMENSIONS
100
AcDbLine
 10
5.838582677165355
 20
6.0236220472440944
 30
0.0
 11
5.838582677165355
 21
5.799212598425197
 31
0.0
  0
LINE
  5
B3
330
17
100
AcDbEntity
  8
DIMENSIONS
100
AcDbLine
 10
5.799212598425197
 20
5.807086614173229
 30
0.0
 11
5.877952755905512
 21
5.8858267716535435
 31
0.0
  0
LINE
  5
B4
330
17
100
AcDbEntity
  8
DIMENSIONS
100
AcDbLine
 10
7.338582677165355
 20
6.0236220472440944
 30
0.0
 11
7.338582677165355
 21
5.799212598425197
 31
0.0
  0
LINE
  5
B5
330
17
100
AcDbEntity
  8
DIMENSIONS
100
AcDbLine
 10
7.299212598425197
 20
5.807086614173229
 30
0.0
 11
7.377952755905512
 21
5.8858267716535435
 31
0.0
  0
TEXT
  5
B6
330
17
100
AcDbEntity
  8
TEXT
100
AcDbText
 10
2.088582677165354
 20
5.877952755905512
 30
0.0
 40
0.035433070866141725
  1
1'-3"
 72
1
 11
2.088582677165354
 21
5.877952755905512
 31
0.0
100
AcDbText
  0
TEXT
  5
B7
330
17
100
AcDbEntity
  8
TEXT
100
AcDbText
 10
4.338582677165355
 20
5.877952755905512
 30
0.0
 40
0.035433070866141725
  1
2'-6"
 72
1
 11
4.338582677165355
 21
5.877952755905512
 31
0.0
100
AcDbText
  0
TEXT
  5
B8
330
17
100
AcDbEntity
  8
TEXT
100
AcDbText
 10
6.588582677165354
 20
5.877952755905512
 30
0.0
 40
0.035433070866141725
  1
1'-3"
 72
1
 11
6.588582677165354
 21
5.877952755905512
 31
0.0
100
AcDbText
  0
LINE
  5
B9
330
17
100
AcDbEntity
  8
DIMENSIONS
100
AcDbLine
 10
2.779527559055118
 20
5.610236220472441
 30
0.0
 11
5.897637795275591
 21
5.610236220472441
 31
0.0
  0
LINE
  5
BA
330
17
100
AcDbEntity
  8
DIMENSIONS
100
AcDbLine
 10
2.838582677165354
 20
6.0236220472440944
 30
0.0
 11
2.838582677165354
 21
5.562992125984253
 31
0.0
  0
LINE
  5
BB
330
17
100
AcDbEntity
  8
DIMENSIONS
100
AcDbLine
 10
2.7992125984251968
 20
5.570866141732283
 30
0.0
 11
2.8779527559055116
 21
5.649606299212598
 31
0.0
  0
LINE
  5
BC
330
17
100
AcDbEntity
  8
DIMENSIONS
100
AcDbLine
 10
2.9881889763779528
 20
6.0236220472440944
 30
0.0
 11
2.9881889763779528
 21
5.562992125984253
 31
0.0
  0
LINE
  5
BD
330
17
100
AcDbEntity
  8
DIMENSIONS
100
AcDbLine
 10
2.9488188976377954
 20
5.570866141732283
 30
0.0
 11
3.0275590551181106
 21
5.649606299212598
 31
0.0
  0
LINE
  5
BE
330
17
100
AcDbEntity
  8
DIMENSIONS
100
AcDbLine
 10
4.289370078740157
 20
6.0236220472440944
 30
0.0
 11
4.289370078740157
 21
5.562992125984253
 31
0.0
  0
LINE
  5
BF
330
17
100
AcDbEntity
  8
DIMENSIONS
100
AcDbLine
 10
4.25
 20
5.570866141732283
 30
0.0
 11
4.328740157480315
 21
5.649606299212598
 31
0.0
  0
LINE
  5
C0
330
17
100
AcDbEntity
  8
DIMENSIONS
100
AcDbLine
 10
4.387795275590551
 20
6.0236220472440944
 30
0.0
 11
4.387795275590551
 21
5.562992125984253
 31
0.0
  0
LINE
  5
C1
330
17
100
AcDbEntity
  8
DIMENSIONS
100
AcDbLine
 10
4.3484251968503935
 20
5.570866141732283
 30
0.0
 11
4.427165354330708
 21
5.649606299212598
 31
0.0
  0
LINE
  5
C2
330
17
100
AcDbEntity
  8
DIMENSIONS
100
AcDbLine
 10
5.688976377952756
 20
6.0236220472440944
 30
0.0
 11
5.688976377952756
 21
5.562992125984253
 31
0.0
  0
LINE
  5
C3
330
17
100
AcDbEntity
  8
DIMENSIONS
100
AcDbLine
 10
5.649606299212598
 20
5.570866141732283
 30
0.0
 11
5.728346456692913
 21
5.649606299212598
 31
0.0
  0
LINE
  5
C4
330
17
100
AcDbEntity
  8
DIMENSIONS
100
AcDbLine
 10
5.838582677165355
 20
6.0236220472440944
 30
0.0
 11
5.838582677165355
 21
5.562992125984253
 31
0.0
  0
LINE
  5
C5
330
17
100
AcDbEntity
  8
DIMENSIONS
100
AcDbLine
 10
5.799212598425197
 20
5.570866141732283
 30
0.0
 11
5.877952755905512
 21
5.649606299212598
 31
0.0
  0
TEXT
  5
C6
330
17
100
AcDbEntity
  8
TEXT
100
AcDbText
 10
2.9133858267716537
 20
5.641732283464568
 30
0.0
 40
0.03259842519685039
  1
1½"
 72
1
 11
2.9133858267716537
 21
5.641732283464568
 31
0.0
100
AcDbText
  0
TEXT
  5
C7
330
17
100
AcDbEntity
  8
TEXT
100
AcDbText
 10
3.638976377952756
 20
5.641732283464568
 30
0.0
 40
0.03259842519685039
  1
1'-1"
 72
1
 11
3.638976377952756
 21
5.641732283464568
 31
0.0
100
AcDbText
  0
TEXT
  5
C8
330
17
100
AcDbEntity
  8
TEXT
100
AcDbText
 10
4.338582677165355
 20
5.641732283464568
 30
0.0
 40
0.03259842519685039
  1
1"
 72
1
 11
4.338582677165355
 21
5.641732283464568
 31
0.0
100
AcDbText
  0
TEXT
  5
C9
330
17
100
AcDbEntity
  8
TEXT
100
AcDbText
 10
5.038188976377953
 20
5.641732283464568
 30
0.0
 40
0.03259842519685039
  1
1'-1"
 72
1
 11
5.038188976377953
 21
5.641732283464568
 31
0.0
100
AcDbText
  0
TEXT
  5
CA
330
17
100
AcDbEntity
  8
TEXT
100
AcDbText
 10
5.7637795275590555
 20
5.641732283464568
 30
0.0
 40
0.03259842519685039
  1
1½"
 72
1
 11
5.7637795275590555
 21
5.641732283464568
 31
0.0
100
AcDbText
  0
LINE
  5
CB
330
17
100
AcDbEntity
  8
DIMENSIONS
100
AcDbLine
 10
1.279527559055118
 20
5.374015748031496
 30
0.0
 11
7.397637795275591
 21
5.374015748031496
 31
0.0
  0
LINE
  5
CC
330
17
100
AcDbEntity
  8
DIMENSIONS
100
AcDbLine
 10
1.3385826771653544
 20
6.0236220472440944
 30
0.0
 11
1.3385826771653544
 21
5.326771653543307
 31
0.0
  0
LINE
  5
CD
330
17
100
AcDbEntity
  8
DIMENSIONS
100
AcDbLine
 10
1.2992125984251968
 20
5.334645669291339
 30
0.0
 11
1.3779527559055118
 21
5.413385826771654
 31
0.0
  0
LINE
  5
CE
330
17
100
AcDbEntity
  8
DIMENSIONS
100
AcDbLine
 10
7.338582677165355
 20
6.0236220472440944
 30
0.0
 11
7.338582677165355
 21
5.326771653543307
 31
0.0
  0
LINE
  5
CF
330
17
100
AcDbEntity
  8
DIMENSIONS
100
AcDbLine
 10
7.299212598425197
 20
5.334645669291339
 30
0.0
 11
7.377952755905512
 21
5.413385826771654
 31
0.0
  0
TEXT
  5
D0
330
17
100
AcDbEntity
  8
TEXT
100
AcDbText
 10
4.338582677165355
 20
5.405511811023622
 30
0.0
 40
0.038267716535433066
  1
5'-0" OVERALL
 72
1
 11
4.338582677165355
 21
5.405511811023622
 31
0.0
100
AcDbText
  0
LINE
  5
D1
330
17
100
AcDbEntity
  8
DIMENSIONS
100
AcDbLine
 10
7.574803149606299
 20
6.122047244094488
 30
0.0
 11
7.574803149606299
 21
9.303149606299213
 31
0.0
  0
LINE
  5
D2
330
17
100
AcDbEntity
  8
DIMENSIONS
100
AcDbLine
 10
7.377952755905512
 20
6.062992125984252
 30
0.0
 11
7.622047244094488
 21
6.062992125984252
 31
0.0
  0
LINE
  5
D3
330
17
100
AcDbEntity
  8
DIMENSIONS
100
AcDbLine
 10
7.535433070866142
 20
6.0236220472440944
 30
0.0
 11
7.6141732283464565
 21
6.102362204724409
 31
0.0
  0
LINE
  5
D4
330
17
100
AcDbEntity
  8
DIMENSIONS
100
AcDbLine
 10
7.377952755905512
 20
6.661417322834645
 30
0.0
 11
7.622047244094488
 21
6.661417322834645
 31
0.0
  0
LINE
  5
D5
330
17
100
AcDbEntity
  8
DIMENSIONS
100
AcDbLine
 10
7.535433070866142
 20
6.622047244094488
 30
0.0
 11
7.6141732283464565
 21
6.700787401574803
 31
0.0
  0
LINE
  5
D6
330
17
100
AcDbEntity
  8
DIMENSIONS
100
AcDbLine
 10
7.377952755905512
 20
6.811023622047244
 30
0.0
 11
7.622047244094488
 21
6.811023622047244
 31
0.0
  0
LINE
  5
D7
330
17
100
AcDbEntity
  8
DIMENSIONS
100
AcDbLine
 10
7.535433070866142
 20
6.771653543307086
 30
0.0
 11
7.6141732283464565
 21
6.850393700787402
 31
0.0
  0
LINE
  5
D8
330
17
100
AcDbEntity
  8
DIMENSIONS
100
AcDbLine
 10
7.377952755905512
 20
8.362204724409448
 30
0.0
 11
7.622047244094488
 21
8.362204724409448
 31
0.0
  0
LINE
  5
D9
330
17
100
AcDbEntity
  8
DIMENSIONS
100
AcDbLine
 10
7.535433070866142
 20
8.32283464566929
 30
0.0
 11
7.6141732283464565
 21
8.401574803149606
 31
0.0
  0
LINE
  5
DA
330
17
100
AcDbEntity
  8
DIMENSIONS
100
AcDbLine
 10
7.377952755905512
 20
8.464566929133857
 30
0.0
 11
7.622047244094488
 21
8.464566929133857
 31
0.0
  0
LINE
  5
DB
330
17
100
AcDbEntity
  8
DIMENSIONS
100
AcDbLine
 10
7.535433070866142
 20
8.4251968503937
 30
0.0
 11
7.6141732283464565
 21
8.503937007874015
 31
0.0
  0
LINE
  5
DC
330
17
100
AcDbEntity
  8
DIMENSIONS
100
AcDbLine
 10
7.377952755905512
 20
9.062992125984252
 30
0.0
 11
7.622047244094488
 21
9.062992125984252
 31
0.0
  0
LINE
  5
DD
330
17
100
AcDbEntity
  8
DIMENSIONS
100
AcDbLine
 10
7.535433070866142
 20
9.023622047244094
 30
0.0
 11
7.6141732283464565
 21
9.10236220472441
 31
0.0
  0
LINE
  5
DE
330
17
100
AcDbEntity
  8
DIMENSIONS
100
AcDbLine
 10
7.377952755905512
 20
9.21259842519685
 30
0.0
 11
7.622047244094488
 21
9.21259842519685
 31
0.0
  0
LINE
  5
DF
330
17
100
AcDbEntity
  8
DIMENSIONS
100
AcDbLine
 10
7.535433070866142
 20
9.173228346456693
 30
0.0
 11
7.6141732283464565
 21
9.251968503937007
 31
0.0
  0
LINE
  5
E0
330
17
100
AcDbEntity
  8
DIMENSIONS
100
AcDbLine
 10
7.377952755905512
 20
9.36220472440945
 30
0.0
 11
7.622047244094488
 21
9.36220472440945
 31
0.0
  0
LINE
  5
E1
330
17
100
AcDbEntity
  8
DIMENSIONS
100
AcDbLine
 10
7.535433070866142
 20
9.322834645669293
 30
0.0
 11
7.6141732283464565
 21
9.401574803149607
 31
0.0
  0
TEXT
  5
E2
330
17
100
AcDbEntity
  8
TEXT
100
AcDbText
 10
7.543307086614173
 20
6.362204724409448
 30
0.0
 40
0.03259842519685039
  1
6"
 50
90.0
 72
1
 11
7.543307086614173
 21
6.362204724409448
 31
0.0
100
AcDbText
  0
TEXT
  5
E3
330
17
100
AcDbEntity
  8
TEXT
100
AcDbText
 10
7.543307086614173
 20
6.7362204724409445
 30
0.0
 40
0.03259842519685039
  1
1½"
 50
90.0
 72
1
 11
7.543307086614173
 21
6.7362204724409445
 31
0.0
100
AcDbText
  0
TEXT
  5
E4
330
17
100
AcDbEntity
  8
TEXT
100
AcDbText
 10
7.543307086614173
 20
7.586614173228347
 30
0.0
 40
0.03259842519685039
  1
1'-3½"
 50
90.0
 72
1
 11
7.543307086614173
 21
7.586614173228347
 31
0.0
100
AcDbText
  0
TEXT
  5
E5
330
17
100
AcDbEntity
  8
TEXT
100
AcDbText
 10
7.543307086614173
 20
8.413385826771654
 30
0.0
 40
0.03259842519685039
  1
1"
 50
90.0
 72
1
 11
7.543307086614173
 21
8.413385826771654
 31
0.0
100
AcDbText
  0
TEXT
  5
E6
330
17
100
AcDbEntity
  8
TEXT
100
AcDbText
 10
7.543307086614173
 20
8.763779527559056
 30
0.0
 40
0.03259842519685039
  1
6"
 50
90.0
 72
1
 11
7.543307086614173
 21
8.763779527559056
 31
0.0
100
AcDbText
  0
TEXT
  5
E7
330
17
100
AcDbEntity
  8
TEXT
100
AcDbText
 10
7.543307086614173
 20
9.13779527559055
 30
0.0
 40
0.03259842519685039
  1
1½"
 50
90.0
 72
1
 11
7.543307086614173
 21
9.13779527559055
 31
0.0
100
AcDbText
  0
TEXT
  5
E8
330
17
100
AcDbEntity
  8
TEXT
100
AcDbText
 10
7.543307086614173
 20
9.28740157480315
 30
0.0
 40
0.03259842519685039
  1
1½"
 50
90.0
 72
1
 11
7.543307086614173
 21
9.28740157480315
 31
0.0
100
AcDbText
  0
LINE
  5
E9
330
17
100
AcDbEntity
  8
DIMENSIONS
100
AcDbLine
 10
7.889763779527559
 20
6.122047244094488
 30
0.0
 11
7.889763779527559
 21
9.803149606299213
 31
0.0
  0
LINE
  5
EA
330
17
100
AcDbEntity
  8
DIMENSIONS
100
AcDbLine
 10
7.377952755905512
 20
6.062992125984252
 30
0.0
 11
7.937007874015747
 21
6.062992125984252
 31
0.0
  0
LINE
  5
EB
330
17
100
AcDbEntity
  8
DIMENSIONS
100
AcDbLine
 10
7.850393700787402
 20
6.0236220472440944
 30
0.0
 11
7.929133858267717
 21
6.102362204724409
 31
0.0
  0
LINE
  5
EC
330
17
100
AcDbEntity
  8
DIMENSIONS
100
AcDbLine
 10
7.377952755905512
 20
9.36220472440945
 30
0.0
 11
7.937007874015747
 21
9.36220472440945
 31
0.0
  0
LINE
  5
ED
330
17
100
AcDbEntity
  8
DIMENSIONS
100
AcDbLine
 10
7.850393700787402
 20
9.322834645669293
 30
0.0
 11
7.929133858267717
 21
9.401574803149607
 31
0.0
  0
LINE
  5
EE
330
17
100
AcDbEntity
  8
DIMENSIONS
100
AcDbLine
 10
7.377952755905512
 20
9.862204724409448
 30
0.0
 11
7.937007874015747
 21
9.862204724409448
 31
0.0
  0
LINE
  5
EF
330
17
100
AcDbEntity
  8
DIMENSIONS
100
AcDbLine
 10
7.850393700787402
 20
9.82283464566929
 30
0.0
 11
7.929133858267717
 21
9.901574803149606
 31
0.0
  0
TEXT
  5
F0
330
17
100
AcDbEntity
  8
TEXT
100
AcDbText
 10
7.858267716535432
 20
7.712598425196851
 30
0.0
 40
0.036850393700787396
  1
2'-9" COUNTER
 50
90.0
 72
1
 11
7.858267716535432
 21
7.712598425196851
 31
0.0
100
AcDbText
  0
TEXT
  5
F1
330
17
100
AcDbEntity
  8
TEXT
100
AcDbText
 10
7.858267716535432
 20
9.612204724409448
 30
0.0
 40
0.036850393700787396
  1
5"
 50
90.0
 72
1
 11
7.858267716535432
 21
9.612204724409448
 31
0.0
100
AcDbText
  0
CIRCLE
  5
F2
330
17
100
AcDbEntity
  8
GEOMETRY
100
AcDbCircle
 10
2.088582677165354
 20
7.937007874015747
 30
0.0
 40
0.07874015748031496
  0
TEXT
  5
F3
330
17
100
AcDbEntity
  8
TEXT
100
AcDbText
 10
2.088582677165354
 20
7.90748031496063
 30
0.0
 40
0.05669291338582677
  1
1
 72
1
 11
2.088582677165354
 21
7.90748031496063
 31
0.0
100
AcDbText
  0
CIRCLE
  5
F4
330
17
100
AcDbEntity
  8
GEOMETRY
100
AcDbCircle
 10
6.588582677165354
 20
7.937007874015747
 30
0.0
 40
0.07874015748031496
  0
TEXT
  5
F5
330
17
100
AcDbEntity
  8
TEXT
100
AcDbText
 10
6.588582677165354
 20
7.90748031496063
 30
0.0
 40
0.05669291338582677
  1
2
 72
1
 11
6.588582677165354
 21
7.90748031496063
 31
0.0
100
AcDbText
  0
CIRCLE
  5
F6
330
17
100
AcDbEntity
  8
GEOMETRY
100
AcDbCircle
 10
3.6385826771653544
 20
8.763779527559056
 30
0.0
 40
0.07874015748031496
  0
TEXT
  5
F7
330
17
100
AcDbEntity
  8
TEXT
100
AcDbText
 10
3.6385826771653544
 20
8.734251968503937
 30
0.0
 40
0.05669291338582677
  1
3
 72
1
 11
3.6385826771653544
 21
8.734251968503937
 31
0.0
100
AcDbText
  0
CIRCLE
  5
F8
330
17
100
AcDbEntity
  8
GEOMETRY
100
AcDbCircle
 10
5.038188976377953
 20
8.763779527559056
 30
0.0
 40
0.07874015748031496
  0
TEXT
  5
F9
330
17
100
AcDbEntity
  8
TEXT
100
AcDbText
 10
5.038188976377953
 20
8.734251968503937
 30
0.0
 40
0.05669291338582677
  1
4
 72
1
 11
5.038188976377953
 21
8.734251968503937
 31
0.0
100
AcDbText
  0
CIRCLE
  5
FA
330
17
100
AcDbEntity
  8
GEOMETRY
100
AcDbCircle
 10
4.338582677165355
 20
7.586614173228346
 30
0.0
 40
0.07874015748031496
  0
TEXT
  5
FB
330
17
100
AcDbEntity
  8
TEXT
100
AcDbText
 10
4.338582677165355
 20
7.557086614173228
 30
0.0
 40
0.05669291338582677
  1
5
 72
1
 11
4.338582677165355
 21
7.557086614173228
 31
0.0
100
AcDbText
  0
TEXT
  5
FC
330
17
100
AcDbEntity
  8
TEXT
100
AcDbText
 10
4.984251968503937
 20
10.472440944881889
 30
0.0
 40
0.038267716535433066
  1
FAUCET AXIS
 11
4.984251968503937
 21
10.472440944881889
 31
0.0
100
AcDbText
  0
TEXT
  5
FD
330
17
100
AcDbEntity
  8
TEXT
100
AcDbText
 10
4.291338582677166
 20
10.472440944881889
 30
0.0
 40
0.038267716535433066
  1
VANITY CENTRE
 72
2
 11
4.291338582677166
 21
10.472440944881889
 31
0.0
100
AcDbText
  0
TEXT
  5
FE
330
17
100
AcDbEntity
  8
TEXT
100
AcDbText
 10
8.4251968503937
 20
11.023622047244094
 30
0.0
 40
0.09070866141732283
  1
SECTION A–A
 11
8.4251968503937
 21
11.023622047244094
 31
0.0
100
AcDbText
  0
LINE
  5
FF
330
17
100
AcDbEntity
  8
GEOMETRY
100
AcDbLine
 10
8.4251968503937
 20
10.964566929133857
 30
0.0
 11
11.417322834645669
 21
10.964566929133857
 31
0.0
  0
TEXT
  5
100
330
17
100
AcDbEntity
  8
TEXT
100
AcDbText
 10
8.4251968503937
 20
10.834645669291337
 30
0.0
 40
0.048188976377952754
  1
ON THE FAUCET AXIS · 1:10
 11
8.4251968503937
 21
10.834645669291337
 31
0.0
100
AcDbText
  0
HATCH
  5
101
330
17
100
AcDbEntity
  8
HATCH
 62
7
100
AcDbHatch
 10
0.0
 20
0.0
 30
0.0
210
0.0
220
0.0
230
1.0
  2
ANSI31
 70
0
 71
0
 91
1
 92
3
 72
0
 73
1
 93
5
 10
8.740157480314961
 20
10.649606299212598
 10
8.976377952755906
 20
10.649606299212598
 10
8.976377952755906
 20
6.062992125984252
 10
8.740157480314961
 20
6.062992125984252
 10
8.740157480314961
 20
10.649606299212598
 97
0
 75
1
 76
1
 52
0.0
 41
0.015748031496062992
 77
0
 78
1
 53
45.0
 43
0.0
 44
0.0
 45
-0.0013919425
 46
0.0013919425
 79
0
 98
0
  0
LINE
  5
102
330
17
100
AcDbEntity
  8
GEOMETRY
100
AcDbLine
 10
8.976377952755906
 20
10.649606299212598
 30
0.0
 11
8.976377952755906
 21
6.062992125984252
 31
0.0
  0
LINE
  5
103
330
17
100
AcDbEntity
  8
GEOMETRY
100
AcDbLine
 10
8.740157480314961
 20
6.062992125984252
 30
0.0
 11
11.614173228346457
 21
6.062992125984252
 31
0.0
  0
LWPOLYLINE
  5
104
330
17
100
AcDbEntity
  8
GEOMETRY
100
AcDbPolyline
 90
5
 70
0
 10
8.976377952755906
 20
9.055118110236222
 10
9.047244094488189
 20
9.055118110236222
 10
9.047244094488189
 20
8.818897637795276
 10
8.976377952755906
 20
8.818897637795276
 10
8.976377952755906
 20
9.055118110236222
  0
LWPOLYLINE
  5
105
330
17
100
AcDbEntity
  8
GEOMETRY
100
AcDbPolyline
 90
5
 70
0
 10
9.047244094488189
 20
9.141732283464567
 10
9.094488188976378
 20
9.141732283464567
 10
9.094488188976378
 20
6.73228346456693
 10
9.047244094488189
 20
6.73228346456693
 10
9.047244094488189
 20
9.141732283464567
  0
LWPOLYLINE
  5
106
330
17
100
AcDbEntity
  8
GEOMETRY
100
AcDbPolyline
 90
5
 70
0
 10
8.976377952755906
 20
9.212598425196852
 10
11.377952755905511
 20
9.212598425196852
 10
11.377952755905511
 20
9.141732283464567
 10
8.976377952755906
 20
9.141732283464567
 10
8.976377952755906
 20
9.212598425196852
  0
LWPOLYLINE
  5
107
330
17
100
AcDbEntity
  8
GEOMETRY
100
AcDbPolyline
 90
5
 70
0
 10
8.976377952755906
 20
6.73228346456693
 10
11.377952755905511
 20
6.73228346456693
 10
11.377952755905511
 20
6.661417322834646
 10
8.976377952755906
 20
6.661417322834646
 10
8.976377952755906
 20
6.73228346456693
  0
LWPOLYLINE
  5
108
330
17
100
AcDbEntity
  8
GEOMETRY
100
AcDbPolyline
 90
5
 70
0
 10
8.976377952755906
 20
9.291338582677167
 10
11.405511811023622
 20
9.291338582677167
 10
11.405511811023622
 20
9.212598425196852
 10
8.976377952755906
 20
9.212598425196852
 10
8.976377952755906
 20
9.291338582677167
  0
LWPOLYLINE
  5
109
330
17
100
AcDbEntity
  8
GEOMETRY
100
AcDbPolyline
 90
7
 70
0
 10
8.976377952755906
 20
9.362204724409448
 10
11.476377952755906
 20
9.362204724409448
 10
11.476377952755906
 20
9.212598425196852
 10
11.405511811023622
 20
9.212598425196852
 10
11.405511811023622
 20
9.291338582677167
 10
8.976377952755906
 20
9.291338582677167
 10
8.976377952755906
 20
9.362204724409448
  0
LINE
  5
10A
330
17
100
AcDbEntity
  8
GEOMETRY
100
AcDbLine
 10
11.405511811023622
 20
9.291338582677165
 30
0.0
 11
11.476377952755906
 21
9.36220472440945
 31
0.0
  0
LWPOLYLINE
  5
10B
330
17
100
AcDbEntity
  8
GEOMETRY
100
AcDbPolyline
 90
5
 70
0
 10
11.307086614173228
 20
9.141732283464567
 10
11.377952755905511
 20
9.141732283464567
 10
11.377952755905511
 20
9.062992125984252
 10
11.307086614173228
 20
9.062992125984252
 10
11.307086614173228
 20
9.141732283464567
  0
LWPOLYLINE
  5
10C
330
17
100
AcDbEntity
  8
GEOMETRY
100
AcDbPolyline
 90
5
 70
0
 10
11.307086614173228
 20
8.46456692913386
 10
11.377952755905511
 20
8.46456692913386
 10
11.377952755905511
 20
8.36220472440945
 10
11.307086614173228
 20
8.36220472440945
 10
11.307086614173228
 20
8.46456692913386
  0
LWPOLYLINE
  5
10D
330
17
100
AcDbEntity
  8
GEOMETRY
100
AcDbPolyline
 90
5
 70
0
 10
11.307086614173228
 20
6.811023622047244
 10
11.377952755905511
 20
6.811023622047244
 10
11.377952755905511
 20
6.73228346456693
 10
11.307086614173228
 20
6.73228346456693
 10
11.307086614173228
 20
6.811023622047244
  0
LWPOLYLINE
  5
10E
330
17
100
AcDbEntity
  8
GEOMETRY
100
AcDbPolyline
 90
5
 70
0
 10
11.307086614173228
 20
9.051181102362206
 10
11.377952755905511
 20
9.051181102362206
 10
11.377952755905511
 20
8.476377952755907
 10
11.307086614173228
 20
8.476377952755907
 10
11.307086614173228
 20
9.051181102362206
  0
LWPOLYLINE
  5
10F
330
17
100
AcDbEntity
  8
GEOMETRY
100
AcDbPolyline
 90
5
 70
0
 10
10.275590551181102
 20
8.590551181102363
 10
11.307086614173228
 20
8.590551181102363
 10
11.307086614173228
 20
8.543307086614174
 10
10.275590551181102
 20
8.543307086614174
 10
10.275590551181102
 20
8.590551181102363
  0
LWPOLYLINE
  5
110
330
17
100
AcDbEntity
  8
GEOMETRY
100
AcDbPolyline
 90
5
 70
0
 10
10.275590551181102
 20
8.976377952755906
 10
10.334645669291339
 20
8.976377952755906
 10
10.334645669291339
 20
8.543307086614174
 10
10.275590551181102
 20
8.543307086614174
 10
10.275590551181102
 20
8.976377952755906
  0
LWPOLYLINE
  5
111
330
17
100
AcDbEntity
  8
GEOMETRY
  6
DASHED
100
AcDbPolyline
 90
5
 70
0
 10
9.338582677165354
 20
8.976377952755906
 10
10.275590551181102
 20
8.976377952755906
 10
10.275590551181102
 20
8.543307086614174
 10
9.338582677165354
 20
8.543307086614174
 10
9.338582677165354
 20
8.976377952755906
  0
LWPOLYLINE
  5
112
330
17
100
AcDbEntity
  8
GEOMETRY
100
AcDbPolyline
 90
5
 70
0
 10
11.307086614173228
 20
8.350393700787402
 10
11.377952755905511
 20
8.350393700787402
 10
11.377952755905511
 20
6.822834645669292
 10
11.307086614173228
 20
6.822834645669292
 10
11.307086614173228
 20
8.350393700787402
  0
LWPOLYLINE
  5
113
330
17
100
AcDbEntity
  8
GEOMETRY
100
AcDbPolyline
 90
5
 70
0
 10
10.275590551181102
 20
6.937007874015748
 10
11.307086614173228
 20
6.937007874015748
 10
11.307086614173228
 20
6.889763779527559
 10
10.275590551181102
 20
6.889763779527559
 10
10.275590551181102
 20
6.937007874015748
  0
LWPOLYLINE
  5
114
330
17
100
AcDbEntity
  8
GEOMETRY
100
AcDbPolyline
 90
5
 70
0
 10
10.275590551181102
 20
7.755905511811024
 10
10.334645669291339
 20
7.755905511811024
 10
10.334645669291339
 20
6.889763779527559
 10
10.275590551181102
 20
6.889763779527559
 10
10.275590551181102
 20
7.755905511811024
  0
LWPOLYLINE
  5
115
330
17
100
AcDbEntity
  8
GEOMETRY
  6
DASHED
100
AcDbPolyline
 90
5
 70
0
 10
9.338582677165354
 20
7.755905511811024
 10
10.275590551181102
 20
7.755905511811024
 10
10.275590551181102
 20
6.889763779527559
 10
9.338582677165354
 20
6.889763779527559
 10
9.338582677165354
 20
7.755905511811024
  0
LWPOLYLINE
  5
116
330
17
100
AcDbEntity
  8
GEOMETRY
100
AcDbPolyline
 90
5
 70
0
 10
11.149606299212598
 20
8.248031496062993
 10
11.220472440944881
 20
8.248031496062993
 10
11.220472440944881
 20
7.874015748031496
 10
11.149606299212598
 20
7.874015748031496
 10
11.149606299212598
 20
8.248031496062993
  0
LWPOLYLINE
  5
117
330
17
100
AcDbEntity
  8
GEOMETRY
100
AcDbPolyline
 90
5
 70
0
 10
10.374015748031496
 20
7.960629921259843
 10
11.149606299212598
 20
7.960629921259843
 10
11.149606299212598
 20
7.913385826771654
 10
10.374015748031496
 20
7.913385826771654
 10
10.374015748031496
 20
7.960629921259843
  0
LWPOLYLINE
  5
118
330
17
100
AcDbEntity
  8
GEOMETRY
100
AcDbPolyline
 90
5
 70
0
 10
10.374015748031496
 20
8.208661417322835
 10
10.421259842519685
 20
8.208661417322835
 10
10.421259842519685
 20
7.913385826771654
 10
10.374015748031496
 20
7.913385826771654
 10
10.374015748031496
 20
8.208661417322835
  0
LWPOLYLINE
  5
119
330
17
100
AcDbEntity
  8
GEOMETRY
  6
DASHED
100
AcDbPolyline
 90
5
 70
0
 10
9.429133858267717
 20
8.208661417322835
 10
10.374015748031496
 20
8.208661417322835
 10
10.374015748031496
 20
7.913385826771654
 10
9.429133858267717
 20
7.913385826771654
 10
9.429133858267717
 20
8.208661417322835
  0
POLYLINE
  5
11A
330
17
100
AcDbEntity
  8
GEOMETRY
100
AcDb2dPolyline
 66
1
 10
0.0
 20
0.0
 30
0.0
 70
0
  0
VERTEX
  5
11B
330
11A
100
AcDbEntity
  8
GEOMETRY
100
AcDbVertex
100
AcDb2dVertex
 10
9.89763779527559
 20
9.362204724409448
 30
0.0
 70
0
  0
VERTEX
  5
11C
330
11A
100
AcDbEntity
  8
GEOMETRY
100
AcDbVertex
100
AcDb2dVertex
 10
9.89763779527559
 20
7.755905511811024
 30
0.0
 70
0
  0
SEQEND
  5
11D
330
11A
100
AcDbEntity
  8
GEOMETRY
  0
SPLINE
  5
11E
330
17
100
AcDbEntity
  8
GEOMETRY
100
AcDbSpline
 70
0
 71
3
 72
17
 73
13
 74
0
 40
0.0
 40
0.0
 40
0.0
 40
0.0
 40
1.0
 40
1.0
 40
1.0
 40
2.0
 40
2.0
 40
2.0
 40
3.0
 40
3.0
 40
3.0
 40
4.0
 40
4.0
 40
4.0
 40
4.0
 10
9.89763779527559
 20
7.755905511811024
 30
0.0
 10
9.871978694986623
 20
7.782093721380555
 30
0.0
 10
9.841349715861726
 20
7.802900182873669
 30
0.0
 10
9.807549094549955
 20
7.817103342628995
 30
0.0
 10
9.773748473238186
 20
7.831306502384321
 30
0.0
 10
9.737450894972145
 20
7.838622854898963
 30
0.0
 10
9.700787401574804
 20
7.838622854898963
 30
0.0
 10
9.664123908177462
 20
7.838622854898963
 30
0.0
 10
9.627826329911422
 20
7.831306502384322
 30
0.0
 10
9.594025708599652
 20
7.817103342628996
 30
0.0
 10
9.560225087287883
 20
7.802900182873669
 30
0.0
 10
9.529596108162984
 20
7.782093721380555
 30
0.0
 10
9.503937007874017
 20
7.755905511811024
 30
0.0
  0
POLYLINE
  5
11F
330
17
100
AcDbEntity
  8
GEOMETRY
100
AcDb2dPolyline
 66
1
 10
0.0
 20
0.0
 30
0.0
 70
0
  0
VERTEX
  5
120
330
11F
100
AcDbEntity
  8
GEOMETRY
100
AcDbVertex
100
AcDb2dVertex
 10
9.503937007874017
 20
7.755905511811024
 30
0.0
 70
0
  0
VERTEX
  5
121
330
11F
100
AcDbEntity
  8
GEOMETRY
100
AcDbVertex
100
AcDb2dVertex
 10
9.503937007874017
 20
7.783464566929135
 30
0.0
 70
0
  0
VERTEX
  5
122
330
11F
100
AcDbEntity
  8
GEOMETRY
100
AcDbVertex
100
AcDb2dVertex
 10
8.976377952755906
 20
7.783464566929135
 30
0.0
 70
0
  0
SEQEND
  5
123
330
11F
100
AcDbEntity
  8
GEOMETRY
  0
POLYLINE
  5
124
330
17
100
AcDbEntity
  8
GEOMETRY
100
AcDb2dPolyline
 66
1
 10
0.0
 20
0.0
 30
0.0
 70
0
  0
VERTEX
  5
125
330
124
100
AcDbEntity
  8
GEOMETRY
100
AcDbVertex
100
AcDb2dVertex
 10
10.05511811023622
 20
9.362204724409448
 30
0.0
 70
0
  0
VERTEX
  5
126
330
124
100
AcDbEntity
  8
GEOMETRY
100
AcDbVertex
100
AcDb2dVertex
 10
10.05511811023622
 20
7.755905511811024
 30
0.0
 70
0
  0
SEQEND
  5
127
330
124
100
AcDbEntity
  8
GEOMETRY
  0
SPLINE
  5
128
330
17
100
AcDbEntity
  8
GEOMETRY
100
AcDbSpline
 70
0
 71
3
 72
17
 73
13
 74
0
 40
0.0
 40
0.0
 40
0.0
 40
0.0
 40
1.0
 40
1.0
 40
1.0
 40
2.0
 40
2.0
 40
2.0
 40
3.0
 40
3.0
 40
3.0
 40
4.0
 40
4.0
 40
4.0
 40
4.0
 10
10.05511811023622
 20
7.755905511811024
 30
0.0
 10
10.015162166557024
 20
7.699047207171574
 30
0.0
 10
9.962101258506321
 20
7.652632852015083
 30
0.0
 10
9.900432701070235
 20
7.62059641548541
 30
0.0
 10
9.83876414363415
 20
7.588559978955736
 30
0.0
 10
9.770280885023022
 20
7.571832886627432
 30
0.0
 10
9.700787401574804
 20
7.571832886627432
 30
0.0
 10
9.631293918126588
 20
7.571832886627432
 30
0.0
 10
9.56281065951546
 20
7.588559978955736
 30
0.0
 10
9.501142102079374
 20
7.620596415485409
 30
0.0
 10
9.439473544643288
 20
7.652632852015081
 30
0.0
 10
9.386412636592581
 20
7.699047207171574
 30
0.0
 10
9.346456692913385
 20
7.755905511811024
 30
0.0
  0
POLYLINE
  5
129
330
17
100
AcDbEntity
  8
GEOMETRY
100
AcDb2dPolyline
 66
1
 10
0.0
 20
0.0
 30
0.0
 70
0
  0
VERTEX
  5
12A
330
129
100
AcDbEntity
  8
GEOMETRY
100
AcDbVertex
100
AcDb2dVertex
 10
9.346456692913385
 20
7.755905511811024
 30
0.0
 70
0
  0
VERTEX
  5
12B
330
129
100
AcDbEntity
  8
GEOMETRY
100
AcDbVertex
100
AcDb2dVertex
 10
9.346456692913385
 20
7.940944881889765
 30
0.0
 70
0
  0
VERTEX
  5
12C
330
129
100
AcDbEntity
  8
GEOMETRY
100
AcDbVertex
100
AcDb2dVertex
 10
8.976377952755906
 20
7.940944881889765
 30
0.0
 70
0
  0
SEQEND
  5
12D
330
129
100
AcDbEntity
  8
GEOMETRY
  0
POLYLINE
  5
12E
330
17
100
AcDbEntity
  8
GEOMETRY
100
AcDb2dPolyline
 66
1
 10
0.0
 20
0.0
 30
0.0
 70
0
  0
VERTEX
  5
12F
330
12E
100
AcDbEntity
  8
GEOMETRY
100
AcDbVertex
100
AcDb2dVertex
 10
9.177165354330707
 20
9.86220472440945
 30
0.0
 70
0
  0
VERTEX
  5
130
330
12E
100
AcDbEntity
  8
GEOMETRY
100
AcDbVertex
100
AcDb2dVertex
 10
10.775590551181102
 20
9.86220472440945
 30
0.0
 70
0
  0
SEQEND
  5
131
330
12E
100
AcDbEntity
  8
GEOMETRY
  0
SPLINE
  5
132
330
17
100
AcDbEntity
  8
GEOMETRY
100
AcDbSpline
 70
0
 71
3
 72
8
 73
4
 74
0
 40
0.0
 40
0.0
 40
0.0
 40
0.0
 40
1.0
 40
1.0
 40
1.0
 40
1.0
 10
10.775590551181102
 20
9.86220472440945
 30
0.0
 10
10.775590551181102
 20
9.537204724409449
 30
0.0
 10
10.415944881889764
 20
9.362204724409448
 30
0.0
 10
10.216141732283464
 20
9.362204724409448
 30
0.0
  0
POLYLINE
  5
133
330
17
100
AcDbEntity
  8
GEOMETRY
100
AcDb2dPolyline
 66
1
 10
0.0
 20
0.0
 30
0.0
 70
0
  0
VERTEX
  5
134
330
133
100
AcDbEntity
  8
GEOMETRY
100
AcDbVertex
100
AcDb2dVertex
 10
10.216141732283464
 20
9.362204724409448
 30
0.0
 70
0
  0
VERTEX
  5
135
330
133
100
AcDbEntity
  8
GEOMETRY
100
AcDbVertex
100
AcDb2dVertex
 10
9.736614173228347
 20
9.362204724409448
 30
0.0
 70
0
  0
SEQEND
  5
136
330
133
100
AcDbEntity
  8
GEOMETRY
  0
SPLINE
  5
137
330
17
100
AcDbEntity
  8
GEOMETRY
100
AcDbSpline
 70
0
 71
3
 72
8
 73
4
 74
0
 40
0.0
 40
0.0
 40
0.0
 40
0.0
 40
1.0
 40
1.0
 40
1.0
 40
1.0
 10
9.736614173228347
 20
9.362204724409448
 30
0.0
 10
9.536811023622048
 20
9.362204724409448
 30
0.0
 10
9.177165354330707
 20
9.537204724409449
 30
0.0
 10
9.177165354330707
 20
9.86220472440945
 30
0.0
  0
LINE
  5
138
330
17
100
AcDbEntity
  8
GEOMETRY
100
AcDbLine
 10
9.224409448818898
 20
9.81496062992126
 30
0.0
 11
10.728346456692913
 21
9.81496062992126
 31
0.0
  0
POLYLINE
  5
139
330
17
100
AcDbEntity
  8
GEOMETRY
100
AcDb2dPolyline
 66
1
 10
0.0
 20
0.0
 30
0.0
 70
0
  0
VERTEX
  5
13A
330
139
100
AcDbEntity
  8
GEOMETRY
100
AcDbVertex
100
AcDb2dVertex
 10
8.976377952755906
 20
10.295275590551181
 30
0.0
 70
0
  0
VERTEX
  5
13B
330
139
100
AcDbEntity
  8
GEOMETRY
100
AcDbVertex
100
AcDb2dVertex
 10
9.779527559055119
 20
10.295275590551181
 30
0.0
 70
0
  0
SEQEND
  5
13C
330
139
100
AcDbEntity
  8
GEOMETRY
  0
SPLINE
  5
13D
330
17
100
AcDbEntity
  8
GEOMETRY
100
AcDbSpline
 70
0
 71
3
 72
8
 73
4
 74
0
 40
0.0
 40
0.0
 40
0.0
 40
0.0
 40
1.0
 40
1.0
 40
1.0
 40
1.0
 10
9.779527559055119
 20
10.295275590551181
 30
0.0
 10
9.84514435695538
 20
10.295275590551181
 30
0.0
 10
9.877952755905511
 20
10.255905511811024
 30
0.0
 10
9.877952755905511
 20
10.17716535433071
 30
0.0
  0
POLYLINE
  5
13E
330
17
100
AcDbEntity
  8
GEOMETRY
100
AcDb2dPolyline
 66
1
 10
0.0
 20
0.0
 30
0.0
 70
0
  0
VERTEX
  5
13F
330
13E
100
AcDbEntity
  8
GEOMETRY
100
AcDbVertex
100
AcDb2dVertex
 10
9.877952755905511
 20
10.17716535433071
 30
0.0
 70
0
  0
VERTEX
  5
140
330
13E
100
AcDbEntity
  8
GEOMETRY
100
AcDbVertex
100
AcDb2dVertex
 10
9.877952755905511
 20
10.078740157480315
 30
0.0
 70
0
  0
VERTEX
  5
141
330
13E
100
AcDbEntity
  8
GEOMETRY
100
AcDbVertex
100
AcDb2dVertex
 10
9.791338582677165
 20
10.078740157480315
 30
0.0
 70
0
  0
VERTEX
  5
142
330
13E
100
AcDbEntity
  8
GEOMETRY
100
AcDbVertex
100
AcDb2dVertex
 10
9.791338582677165
 20
10.208661417322835
 30
0.0
 70
0
  0
VERTEX
  5
143
330
13E
100
AcDbEntity
  8
GEOMETRY
100
AcDbVertex
100
AcDb2dVertex
 10
8.976377952755906
 20
10.208661417322835
 30
0.0
 70
0
  0
VERTEX
  5
144
330
13E
100
AcDbEntity
  8
GEOMETRY
100
AcDbVertex
100
AcDb2dVertex
 10
8.976377952755906
 20
10.295275590551181
 30
0.0
 70
0
  0
SEQEND
  5
145
330
13E
100
AcDbEntity
  8
GEOMETRY
  0
LWPOLYLINE
  5
146
330
17
100
AcDbEntity
  8
GEOMETRY
  6
DASHED
100
AcDbPolyline
 90
5
 70
0
 10
8.976377952755906
 20
6.661417322834646
 10
11.078740157480313
 20
6.661417322834646
 10
11.078740157480313
 20
6.062992125984253
 10
8.976377952755906
 20
6.062992125984253
 10
8.976377952755906
 20
6.661417322834646
  0
LINE
  5
147
330
17
100
AcDbEntity
  8
DIMENSIONS
100
AcDbLine
 10
8.917322834645669
 20
5.846456692913386
 30
0.0
 11
11.53543307086614
 21
5.846456692913386
 31
0.0
  0
LINE
  5
148
330
17
100
AcDbEntity
  8
DIMENSIONS
100
AcDbLine
 10
8.976377952755906
 20
6.0236220472440944
 30
0.0
 11
8.976377952755906
 21
5.799212598425197
 31
0.0
  0
LINE
  5
149
330
17
100
AcDbEntity
  8
DIMENSIONS
100
AcDbLine
 10
8.937007874015748
 20
5.807086614173229
 30
0.0
 11
9.015748031496063
 21
5.8858267716535435
 31
0.0
  0
LINE
  5
14A
330
17
100
AcDbEntity
  8
DIMENSIONS
100
AcDbLine
 10
11.078740157480313
 20
6.0236220472440944
 30
0.0
 11
11.078740157480313
 21
5.799212598425197
 31
0.0
  0
LINE
  5
14B
330
17
100
AcDbEntity
  8
DIMENSIONS
100
AcDbLine
 10
11.039370078740156
 20
5.807086614173229
 30
0.0
 11
11.118110236220472
 21
5.8858267716535435
 31
0.0
  0
LINE
  5
14C
330
17
100
AcDbEntity
  8
DIMENSIONS
100
AcDbLine
 10
11.377952755905511
 20
6.0236220472440944
 30
0.0
 11
11.377952755905511
 21
5.799212598425197
 31
0.0
  0
LINE
  5
14D
330
17
100
AcDbEntity
  8
DIMENSIONS
100
AcDbLine
 10
11.338582677165354
 20
5.807086614173229
 30
0.0
 11
11.417322834645669
 21
5.8858267716535435
 31
0.0
  0
LINE
  5
14E
330
17
100
AcDbEntity
  8
DIMENSIONS
100
AcDbLine
 10
11.476377952755906
 20
6.0236220472440944
 30
0.0
 11
11.476377952755906
 21
5.799212598425197
 31
0.0
  0
LINE
  5
14F
330
17
100
AcDbEntity
  8
DIMENSIONS
100
AcDbLine
 10
11.437007874015748
 20
5.807086614173229
 30
0.0
 11
11.515748031496063
 21
5.8858267716535435
 31
0.0
  0
TEXT
  5
150
330
17
100
AcDbEntity
  8
TEXT
100
AcDbText
 10
10.02755905511811
 20
5.877952755905512
 30
0.0
 40
0.03401574803149606
  1
1'-9"
 72
1
 11
10.02755905511811
 21
5.877952755905512
 31
0.0
100
AcDbText
  0
TEXT
  5
151
330
17
100
AcDbEntity
  8
TEXT
100
AcDbText
 10
11.228346456692913
 20
5.877952755905512
 30
0.0
 40
0.03401574803149606
  1
3"
 72
1
 11
11.228346456692913
 21
5.877952755905512
 31
0.0
100
AcDbText
  0
TEXT
  5
152
330
17
100
AcDbEntity
  8
TEXT
100
AcDbText
 10
11.42716535433071
 20
5.877952755905512
 30
0.0
 40
0.03401574803149606
  1
1"
 72
1
 11
11.42716535433071
 21
5.877952755905512
 31
0.0
100
AcDbText
  0
LINE
  5
153
330
17
100
AcDbEntity
  8
DIMENSIONS
100
AcDbLine
 10
8.917322834645669
 20
5.610236220472441
 30
0.0
 11
11.437007874015748
 21
5.610236220472441
 31
0.0
  0
LINE
  5
154
330
17
100
AcDbEntity
  8
DIMENSIONS
100
AcDbLine
 10
8.976377952755906
 20
6.0236220472440944
 30
0.0
 11
8.976377952755906
 21
5.562992125984253
 31
0.0
  0
LINE
  5
155
330
17
100
AcDbEntity
  8
DIMENSIONS
100
AcDbLine
 10
8.937007874015748
 20
5.570866141732283
 30
0.0
 11
9.015748031496063
 21
5.649606299212598
 31
0.0
  0
LINE
  5
156
330
17
100
AcDbEntity
  8
DIMENSIONS
100
AcDbLine
 10
11.377952755905511
 20
6.0236220472440944
 30
0.0
 11
11.377952755905511
 21
5.562992125984253
 31
0.0
  0
LINE
  5
157
330
17
100
AcDbEntity
  8
DIMENSIONS
100
AcDbLine
 10
11.338582677165354
 20
5.570866141732283
 30
0.0
 11
11.417322834645669
 21
5.649606299212598
 31
0.0
  0
TEXT
  5
158
330
17
100
AcDbEntity
  8
TEXT
100
AcDbText
 10
10.17716535433071
 20
5.641732283464568
 30
0.0
 40
0.036850393700787396
  1
2'-0" DEEP
 72
1
 11
10.17716535433071
 21
5.641732283464568
 31
0.0
100
AcDbText
  0
LINE
  5
159
330
17
100
AcDbEntity
  8
DIMENSIONS
100
AcDbLine
 10
8.622047244094489
 20
6.122047244094488
 30
0.0
 11
8.622047244094489
 21
8.996062992125983
 31
0.0
  0
LINE
  5
15A
330
17
100
AcDbEntity
  8
DIMENSIONS
100
AcDbLine
 10
8.700787401574804
 20
6.062992125984252
 30
0.0
 11
8.669291338582676
 21
6.062992125984252
 31
0.0
  0
LINE
  5
15B
330
17
100
AcDbEntity
  8
DIMENSIONS
100
AcDbLine
 10
8.582677165354331
 20
6.0236220472440944
 30
0.0
 11
8.661417322834646
 21
6.102362204724409
 31
0.0
  0
LINE
  5
15C
330
17
100
AcDbEntity
  8
DIMENSIONS
100
AcDbLine
 10
8.700787401574804
 20
7.862204724409448
 30
0.0
 11
8.669291338582676
 21
7.862204724409448
 31
0.0
  0
LINE
  5
15D
330
17
100
AcDbEntity
  8
DIMENSIONS
100
AcDbLine
 10
8.582677165354331
 20
7.822834645669291
 30
0.0
 11
8.661417322834646
 21
7.901574803149606
 31
0.0
  0
LINE
  5
15E
330
17
100
AcDbEntity
  8
DIMENSIONS
100
AcDbLine
 10
8.700787401574804
 20
8.818897637795276
 30
0.0
 11
8.669291338582676
 21
8.818897637795276
 31
0.0
  0
LINE
  5
15F
330
17
100
AcDbEntity
  8
DIMENSIONS
100
AcDbLine
 10
8.582677165354331
 20
8.779527559055119
 30
0.0
 11
8.661417322834646
 21
8.858267716535433
 31
0.0
  0
LINE
  5
160
330
17
100
AcDbEntity
  8
DIMENSIONS
100
AcDbLine
 10
8.700787401574804
 20
9.05511811023622
 30
0.0
 11
8.669291338582676
 21
9.05511811023622
 31
0.0
  0
LINE
  5
161
330
17
100
AcDbEntity
  8
DIMENSIONS
100
AcDbLine
 10
8.582677165354331
 20
9.015748031496063
 30
0.0
 11
8.661417322834646
 21
9.094488188976378
 31
0.0
  0
TEXT
  5
162
330
17
100
AcDbEntity
  8
TEXT
100
AcDbText
 10
8.590551181102361
 20
6.962598425196849
 30
0.0
 40
0.03259842519685039
  1
1'-6"
 50
90.0
 72
1
 11
8.590551181102361
 21
6.962598425196849
 31
0.0
100
AcDbText
  0
TEXT
  5
163
330
17
100
AcDbEntity
  8
TEXT
100
AcDbText
 10
8.590551181102361
 20
8.937007874015748
 30
0.0
 40
0.03259842519685039
  1
2⅜"
 50
90.0
 72
1
 11
8.590551181102361
 21
8.937007874015748
 31
0.0
100
AcDbText
  0
CIRCLE
  5
164
330
17
100
AcDbEntity
  8
GEOMETRY
100
AcDbCircle
 10
9.011811023622048
 20
8.937007874015748
 30
0.0
 40
0.07874015748031496
  0
TEXT
  5
165
330
17
100
AcDbEntity
  8
TEXT
100
AcDbText
 10
9.011811023622048
 20
8.90748031496063
 30
0.0
 40
0.05669291338582677
  1
A
 72
1
 11
9.011811023622048
 21
8.90748031496063
 31
0.0
100
AcDbText
  0
CIRCLE
  5
166
330
17
100
AcDbEntity
  8
GEOMETRY
100
AcDbCircle
 10
10.826771653543307
 20
7.362204724409449
 30
0.0
 40
0.07874015748031496
  0
TEXT
  5
167
330
17
100
AcDbEntity
  8
TEXT
100
AcDbText
 10
10.826771653543307
 20
7.332677165354331
 30
0.0
 40
0.05669291338582677
  1
B
 72
1
 11
10.826771653543307
 21
7.332677165354331
 31
0.0
100
AcDbText
  0
CIRCLE
  5
168
330
17
100
AcDbEntity
  8
GEOMETRY
100
AcDbCircle
 10
9.566929133858267
 20
8.11023622047244
 30
0.0
 40
0.07874015748031496
  0
TEXT
  5
169
330
17
100
AcDbEntity
  8
TEXT
100
AcDbText
 10
9.566929133858267
 20
8.080708661417322
 30
0.0
 40
0.05669291338582677
  1
C
 72
1
 11
9.566929133858267
 21
8.080708661417322
 31
0.0
100
AcDbText
  0
CIRCLE
  5
16A
330
17
100
AcDbEntity
  8
GEOMETRY
100
AcDbCircle
 10
10.0
 20
6.437007874015748
 30
0.0
 40
0.07874015748031496
  0
TEXT
  5
16B
330
17
100
AcDbEntity
  8
TEXT
100
AcDbText
 10
10.0
 20
6.40748031496063
 30
0.0
 40
0.05669291338582677
  1
D
 72
1
 11
10.0
 21
6.40748031496063
 31
0.0
100
AcDbText
  0
CIRCLE
  5
16C
330
17
100
AcDbEntity
  8
GEOMETRY
100
AcDbCircle
 10
9.566929133858267
 20
10.452755905511811
 30
0.0
 40
0.07874015748031496
  0
TEXT
  5
16D
330
17
100
AcDbEntity
  8
TEXT
100
AcDbText
 10
9.566929133858267
 20
10.423228346456693
 30
0.0
 40
0.05669291338582677
  1
E
 72
1
 11
9.566929133858267
 21
10.423228346456693
 31
0.0
100
AcDbText
  0
CIRCLE
  5
16E
330
17
100
AcDbEntity
  8
GEOMETRY
100
AcDbCircle
 10
10.551181102362204
 20
9.251968503937007
 30
0.0
 40
0.07874015748031496
  0
TEXT
  5
16F
330
17
100
AcDbEntity
  8
TEXT
100
AcDbText
 10
10.551181102362204
 20
9.222440944881889
 30
0.0
 40
0.05669291338582677
  1
F
 72
1
 11
10.551181102362204
 21
9.222440944881889
 31
0.0
100
AcDbText
  0
CIRCLE
  5
170
330
17
100
AcDbEntity
  8
GEOMETRY
100
AcDbCircle
 10
10.826771653543307
 20
8.062992125984252
 30
0.0
 40
0.07874015748031496
  0
TEXT
  5
171
330
17
100
AcDbEntity
  8
TEXT
100
AcDbText
 10
10.826771653543307
 20
8.033464566929133
 30
0.0
 40
0.05669291338582677
  1
G
 72
1
 11
10.826771653543307
 21
8.033464566929133
 31
0.0
100
AcDbText
  0
TEXT
  5
172
330
17
100
AcDbEntity
  8
TEXT
100
AcDbText
 10
0.7086614173228346
 20
5.0
 30
0.0
 40
0.09070866141732283
  1
PLAN
 11
0.7086614173228346
 21
5.0
 31
0.0
100
AcDbText
  0
LINE
  5
173
330
17
100
AcDbEntity
  8
GEOMETRY
100
AcDbLine
 10
0.7086614173228346
 20
4.940944881889764
 30
0.0
 11
7.4015748031496065
 21
4.940944881889764
 31
0.0
  0
TEXT
  5
174
330
17
100
AcDbEntity
  8
TEXT
100
AcDbText
 10
0.7086614173228346
 20
4.8110236220472435
 30
0.0
 40
0.048188976377952754
  1
1:10 · FROM ABOVE · WALL AT THE TOP
 11
0.7086614173228346
 21
4.8110236220472435
 31
0.0
100
AcDbText
  0
HATCH
  5
175
330
17
100
AcDbEntity
  8
HATCH
 62
7
100
AcDbHatch
 10
0.0
 20
0.0
 30
0.0
210
0.0
220
0.0
230
1.0
  2
ANSI31
 70
0
 71
0
 91
1
 92
3
 72
0
 73
1
 93
5
 10
0.7480314960629921
 20
4.606299212598425
 10
7.929133858267717
 20
4.606299212598425
 10
7.929133858267717
 20
4.448818897637795
 10
0.7480314960629921
 20
4.448818897637795
 10
0.7480314960629921
 20
4.606299212598425
 97
0
 75
1
 76
1
 52
0.0
 41
0.015748031496062992
 77
0
 78
1
 53
45.0
 43
0.0
 44
0.0
 45
-0.0013919425
 46
0.0013919425
 79
0
 98
0
  0
LINE
  5
176
330
17
100
AcDbEntity
  8
GEOMETRY
100
AcDbLine
 10
0.7480314960629921
 20
4.448818897637795
 30
0.0
 11
7.929133858267717
 21
4.448818897637795
 31
0.0
  0
LWPOLYLINE
  5
177
330
17
100
AcDbEntity
  8
GEOMETRY
100
AcDbPolyline
 90
5
 70
0
 10
1.3385826771653544
 20
4.448818897637796
 10
7.338582677165355
 20
4.448818897637796
 10
7.338582677165355
 20
2.047244094488189
 10
1.3385826771653544
 20
2.047244094488189
 10
1.3385826771653544
 20
4.448818897637796
  0
LWPOLYLINE
  5
178
330
17
100
AcDbEntity
  8
GEOMETRY
100
AcDbPolyline
 90
5
 70
0
 10
1.3385826771653544
 20
4.448818897637796
 10
7.338582677165355
 20
4.448818897637796
 10
7.338582677165355
 20
1.9488188976377963
 10
1.3385826771653544
 20
1.9488188976377963
 10
1.3385826771653544
 20
4.448818897637796
  0
LWPOLYLINE
  5
179
330
17
100
AcDbEntity
  8
GEOMETRY
  6
DASHED
100
AcDbPolyline
 90
5
 70
0
 10
3.1377952755905514
 20
4.448818897637796
 10
5.5393700787401565
 20
4.448818897637796
 10
5.5393700787401565
 20
2.346456692913387
 10
3.1377952755905514
 20
2.346456692913387
 10
3.1377952755905514
 20
4.448818897637796
  0
CIRCLE
  5
17A
330
17
100
AcDbEntity
  8
GEOMETRY
100
AcDbCircle
 10
4.937007874015748
 20
3.448818897637795
 30
0.0
 40
0.7992125984251969
  0
CIRCLE
  5
17B
330
17
100
AcDbEntity
  8
GEOMETRY
100
AcDbCircle
 10
4.937007874015748
 20
3.448818897637795
 30
0.0
 40
0.7519685039370079
  0
CIRCLE
  5
17C
330
17
100
AcDbEntity
  8
GEOMETRY
100
AcDbCircle
 10
4.937007874015748
 20
3.448818897637795
 30
0.0
 40
0.08661417322834647
  0
LWPOLYLINE
  5
17D
330
17
100
AcDbEntity
  8
GEOMETRY
100
AcDbPolyline
 90
5
 70
0
 10
4.893700787401575
 20
4.448818897637796
 10
4.980314960629922
 20
4.448818897637796
 10
4.980314960629922
 20
3.547244094488189
 10
4.893700787401575
 20
3.547244094488189
 10
4.893700787401575
 20
4.448818897637796
  0
LINE
  5
17E
330
17
100
AcDbEntity
  8
DIMENSIONS
  6
DASHED
100
AcDbLine
 10
4.937007874015748
 20
4.803149606299213
 30
0.0
 11
4.937007874015748
 21
1.594488188976378
 31
0.0
  0
LINE
  5
17F
330
17
100
AcDbEntity
  8
GEOMETRY
  6
DASHED
100
AcDbLine
 10
4.338582677165355
 20
4.803149606299213
 30
0.0
 11
4.338582677165355
 21
1.594488188976378
 31
0.0
  0
LWPOLYLINE
  5
180
330
17
100
AcDbEntity
  8
GEOMETRY
100
AcDbPolyline
 90
2
 70
0
 10
4.700787401574804
 20
4.665354330708662
 10
4.937007874015748
 20
4.665354330708662
  0
LWPOLYLINE
  5
181
330
17
100
AcDbEntity
  8
GEOMETRY
100
AcDbPolyline
 90
3
 70
0
 10
4.818897637795276
 20
4.665354330708662
 10
4.818897637795276
 20
4.783464566929134
 10
4.7795275590551185
 20
4.736220472440946
  0
LWPOLYLINE
  5
182
330
17
100
AcDbEntity
  8
GEOMETRY
100
AcDbPolyline
 90
2
 70
0
 10
4.818897637795276
 20
4.783464566929134
 10
4.858267716535433
 20
4.736220472440946
  0
TEXT
  5
183
330
17
100
AcDbEntity
  8
TEXT
100
AcDbText
 10
4.9763779527559056
 20
4.625984251968504
 30
0.0
 40
0.07370078740157479
  1
A
 11
4.9763779527559056
 21
4.625984251968504
 31
0.0
100
AcDbText
  0
LWPOLYLINE
  5
184
330
17
100
AcDbEntity
  8
GEOMETRY
100
AcDbPolyline
 90
2
 70
0
 10
4.700787401574804
 20
1.771653543307087
 10
4.937007874015748
 20
1.771653543307087
  0
LWPOLYLINE
  5
185
330
17
100
AcDbEntity
  8
GEOMETRY
100
AcDbPolyline
 90
3
 70
0
 10
4.818897637795276
 20
1.771653543307087
 10
4.818897637795276
 20
1.6535433070866148
 10
4.7795275590551185
 20
1.7007874015748037
  0
LWPOLYLINE
  5
186
330
17
100
AcDbEntity
  8
GEOMETRY
100
AcDbPolyline
 90
2
 70
0
 10
4.818897637795276
 20
1.6535433070866148
 10
4.858267716535433
 20
1.7007874015748037
  0
TEXT
  5
187
330
17
100
AcDbEntity
  8
TEXT
100
AcDbText
 10
4.9763779527559056
 20
1.7322834645669292
 30
0.0
 40
0.07370078740157479
  1
A
 11
4.9763779527559056
 21
1.7322834645669292
 31
0.0
100
AcDbText
  0
LINE
  5
188
330
17
100
AcDbEntity
  8
DIMENSIONS
100
AcDbLine
 10
1.141732283464567
 20
4.5078740157480315
 30
0.0
 11
1.141732283464567
 21
1.889763779527559
 31
0.0
  0
LINE
  5
189
330
17
100
AcDbEntity
  8
DIMENSIONS
100
AcDbLine
 10
1.2992125984251968
 20
4.448818897637795
 30
0.0
 11
1.1889763779527558
 21
4.448818897637795
 31
0.0
  0
LINE
  5
18A
330
17
100
AcDbEntity
  8
DIMENSIONS
100
AcDbLine
 10
1.1023622047244095
 20
4.409448818897638
 30
0.0
 11
1.1811023622047243
 21
4.488188976377953
 31
0.0
  0
LINE
  5
18B
330
17
100
AcDbEntity
  8
DIMENSIONS
100
AcDbLine
 10
1.2992125984251968
 20
2.047244094488189
 30
0.0
 11
1.1889763779527558
 21
2.047244094488189
 31
0.0
  0
LINE
  5
18C
330
17
100
AcDbEntity
  8
DIMENSIONS
100
AcDbLine
 10
1.1023622047244095
 20
2.0078740157480315
 30
0.0
 11
1.1811023622047243
 21
2.0866141732283463
 31
0.0
  0
LINE
  5
18D
330
17
100
AcDbEntity
  8
DIMENSIONS
100
AcDbLine
 10
1.2992125984251968
 20
1.9488188976377951
 30
0.0
 11
1.1889763779527558
 21
1.9488188976377951
 31
0.0
  0
LINE
  5
18E
330
17
100
AcDbEntity
  8
DIMENSIONS
100
AcDbLine
 10
1.1023622047244095
 20
1.9094488188976377
 30
0.0
 11
1.1811023622047243
 21
1.9881889763779528
 31
0.0
  0
TEXT
  5
18F
330
17
100
AcDbEntity
  8
TEXT
100
AcDbText
 10
1.1102362204724405
 20
3.248031496062992
 30
0.0
 40
0.03401574803149606
  1
2'-0"
 50
90.0
 72
1
 11
1.1102362204724405
 21
3.248031496062992
 31
0.0
100
AcDbText
  0
TEXT
  5
190
330
17
100
AcDbEntity
  8
TEXT
100
AcDbText
 10
1.1102362204724405
 20
1.9980314960629921
 30
0.0
 40
0.03401574803149606
  1
1"
 50
90.0
 72
1
 11
1.1102362204724405
 21
1.9980314960629921
 31
0.0
100
AcDbText
  0
LINE
  5
191
330
17
100
AcDbEntity
  8
DIMENSIONS
100
AcDbLine
 10
4.2795275590551185
 20
2.204724409448819
 30
0.0
 11
4.996062992125984
 21
2.204724409448819
 31
0.0
  0
LINE
  5
192
330
17
100
AcDbEntity
  8
DIMENSIONS
100
AcDbLine
 10
4.338582677165355
 20
2.2440944881889764
 30
0.0
 11
4.338582677165355
 21
2.1574803149606305
 31
0.0
  0
LINE
  5
193
330
17
100
AcDbEntity
  8
DIMENSIONS
100
AcDbLine
 10
4.299212598425197
 20
2.1653543307086616
 30
0.0
 11
4.377952755905512
 21
2.2440944881889764
 31
0.0
  0
LINE
  5
194
330
17
100
AcDbEntity
  8
DIMENSIONS
100
AcDbLine
 10
4.937007874015748
 20
2.2440944881889764
 30
0.0
 11
4.937007874015748
 21
2.1574803149606305
 31
0.0
  0
LINE
  5
195
330
17
100
AcDbEntity
  8
DIMENSIONS
100
AcDbLine
 10
4.897637795275591
 20
2.1653543307086616
 30
0.0
 11
4.9763779527559056
 21
2.2440944881889764
 31
0.0
  0
TEXT
  5
196
330
17
100
AcDbEntity
  8
TEXT
100
AcDbText
 10
4.637795275590551
 20
2.2362204724409454
 30
0.0
 40
0.035433070866141725
  1
6" OFF CENTRE
 72
1
 11
4.637795275590551
 21
2.2362204724409454
 31
0.0
100
AcDbText
  0
TEXT
  5
197
330
17
100
AcDbEntity
  8
TEXT
100
AcDbText
 10
8.4251968503937
 20
5.0
 30
0.0
 40
0.09070866141732283
  1
DETAIL 2 · THE BIG DRAWER
 11
8.4251968503937
 21
5.0
 31
0.0
100
AcDbText
  0
LINE
  5
198
330
17
100
AcDbEntity
  8
GEOMETRY
100
AcDbLine
 10
8.4251968503937
 20
4.940944881889764
 30
0.0
 11
11.417322834645669
 21
4.940944881889764
 31
0.0
  0
TEXT
  5
199
330
17
100
AcDbEntity
  8
TEXT
100
AcDbText
 10
8.4251968503937
 20
4.8110236220472435
 30
0.0
 40
0.048188976377952754
  1
PLAN · 1:15 · INNER DRAWER DASHED
 11
8.4251968503937
 21
4.8110236220472435
 31
0.0
100
AcDbText
  0
LWPOLYLINE
  5
19A
330
17
100
AcDbEntity
  8
GEOMETRY
100
AcDbPolyline
 90
9
 70
0
 10
9.05511811023622
 20
3.9711286089238857
 10
10.05774278215223
 20
3.9711286089238857
 10
10.05774278215223
 20
3.346456692913387
 10
10.582677165354328
 20
3.346456692913387
 10
10.582677165354328
 20
3.9711286089238857
 10
10.78740157480315
 20
3.9711286089238857
 10
10.78740157480315
 20
2.6587926509186364
 10
9.05511811023622
 20
2.6587926509186364
 10
9.05511811023622
 20
3.9711286089238857
  0
LWPOLYLINE
  5
19B
330
17
100
AcDbEntity
  8
GEOMETRY
100
AcDbPolyline
 90
9
 70
0
 10
9.094488188976378
 20
3.9317585301837283
 10
10.018372703412073
 20
3.9317585301837283
 10
10.018372703412073
 20
3.3070866141732296
 10
10.622047244094487
 20
3.3070866141732296
 10
10.622047244094487
 20
3.9317585301837283
 10
10.748031496062993
 20
3.9317585301837283
 10
10.748031496062993
 20
2.698162729658794
 10
9.094488188976378
 20
2.698162729658794
 10
9.094488188976378
 20
3.9317585301837283
  0
LWPOLYLINE
  5
19C
330
17
100
AcDbEntity
  8
GEOMETRY
100
AcDbPolyline
 90
5
 70
0
 10
9.013123359580053
 20
2.6587926509186364
 10
10.829396325459317
 20
2.6587926509186364
 10
10.829396325459317
 20
2.6115485564304475
 10
9.013123359580053
 20
2.6115485564304475
 10
9.013123359580053
 20
2.6587926509186364
  0
LWPOLYLINE
  5
19D
330
17
100
AcDbEntity
  8
DIMENSIONS
  6
DASHED
100
AcDbPolyline
 90
7
 70
0
 10
9.128608923884514
 20
3.910761154855644
 10
9.992125984251969
 20
3.910761154855644
 10
9.992125984251969
 20
3.2808398950131252
 10
10.713910761154855
 20
3.2808398950131252
 10
10.713910761154855
 20
2.7637795275590555
 10
9.128608923884514
 20
2.7637795275590555
 10
9.128608923884514
 20
3.910761154855644
  0
LWPOLYLINE
  5
19E
330
17
100
AcDbEntity
  8
DIMENSIONS
100
AcDbPolyline
 90
5
 70
0
 10
9.10236220472441
 20
2.7637795275590555
 10
10.740157480314961
 20
2.7637795275590555
 10
10.740157480314961
 20
2.7165354330708666
 10
9.10236220472441
 20
2.7165354330708666
 10
9.10236220472441
 20
2.7637795275590555
  0
CIRCLE
  5
19F
330
17
100
AcDbEntity
  8
GEOMETRY
100
AcDbCircle
 10
10.32020997375328
 20
3.5459317585301835
 30
0.0
 40
0.05249343832020997
  0
LWPOLYLINE
  5
1A0
330
17
100
AcDbEntity
  8
GEOMETRY
100
AcDbPolyline
 90
3
 70
0
 10
10.32020997375328
 20
3.545931758530184
 10
10.32020997375328
 20
3.9133858267716546
 10
10.32020997375328
 20
4.212598425196851
  0
LINE
  5
1A1
330
17
100
AcDbEntity
  8
GEOMETRY
100
AcDbLine
 10
8.863517060367453
 20
4.21259842519685
 30
0.0
 11
10.979002624671915
 21
4.21259842519685
 31
0.0
  0
LINE
  5
1A2
330
17
100
AcDbEntity
  8
DIMENSIONS
  6
DASHED
100
AcDbLine
 10
10.32020997375328
 20
4.31758530183727
 30
0.0
 11
10.32020997375328
 21
2.5065616797900256
 31
0.0
  0
LINE
  5
1A3
330
17
100
AcDbEntity
  8
DIMENSIONS
100
AcDbLine
 10
9.998818897637795
 20
4.311023622047244
 30
0.0
 11
10.641732283464567
 21
4.311023622047244
 31
0.0
  0
LINE
  5
1A4
330
17
100
AcDbEntity
  8
DIMENSIONS
100
AcDbLine
 10
10.057874015748032
 20
4.232283464566929
 30
0.0
 11
10.057874015748032
 21
4.2637795275590555
 31
0.0
  0
LINE
  5
1A5
330
17
100
AcDbEntity
  8
DIMENSIONS
100
AcDbLine
 10
10.018503937007873
 20
4.271653543307086
 30
0.0
 11
10.09724409448819
 21
4.350393700787402
 31
0.0
  0
LINE
  5
1A6
330
17
100
AcDbEntity
  8
DIMENSIONS
100
AcDbLine
 10
10.582677165354331
 20
4.232283464566929
 30
0.0
 11
10.582677165354331
 21
4.2637795275590555
 31
0.0
  0
LINE
  5
1A7
330
17
100
AcDbEntity
  8
DIMENSIONS
100
AcDbLine
 10
10.543307086614174
 20
4.271653543307086
 30
0.0
 11
10.622047244094489
 21
4.350393700787402
 31
0.0
  0
TEXT
  5
1A8
330
17
100
AcDbEntity
  8
TEXT
100
AcDbText
 10
10.32007874015748
 20
4.34251968503937
 30
0.0
 40
0.031181102362204727
  1
7⅞"
 72
1
 11
10.32007874015748
 21
4.34251968503937
 31
0.0
100
AcDbText
  0
LINE
  5
1A9
330
17
100
AcDbEntity
  8
DIMENSIONS
100
AcDbLine
 10
11.012992125984253
 20
4.030314960629921
 30
0.0
 11
11.012992125984253
 21
3.2874015748031495
 31
0.0
  0
LINE
  5
1AA
330
17
100
AcDbEntity
  8
DIMENSIONS
100
AcDbLine
 10
10.826771653543307
 20
3.971259842519685
 30
0.0
 11
11.060236220472442
 21
3.971259842519685
 31
0.0
  0
LINE
  5
1AB
330
17
100
AcDbEntity
  8
DIMENSIONS
100
AcDbLine
 10
10.973622047244096
 20
3.9318897637795276
 30
0.0
 11
11.05236220472441
 21
4.010629921259842
 31
0.0
  0
LINE
  5
1AC
330
17
100
AcDbEntity
  8
DIMENSIONS
100
AcDbLine
 10
10.826771653543307
 20
3.3464566929133857
 30
0.0
 11
11.060236220472442
 21
3.3464566929133857
 31
0.0
  0
LINE
  5
1AD
330
17
100
AcDbEntity
  8
DIMENSIONS
100
AcDbLine
 10
10.973622047244096
 20
3.3070866141732282
 30
0.0
 11
11.05236220472441
 21
3.385826771653543
 31
0.0
  0
TEXT
  5
1AE
330
17
100
AcDbEntity
  8
TEXT
100
AcDbText
 10
10.981496062992125
 20
3.659055118110236
 30
0.0
 40
0.031181102362204727
  1
9⅜"
 50
90.0
 72
1
 11
10.981496062992125
 21
3.659055118110236
 31
0.0
100
AcDbText
  0
TEXT
  5
1AF
330
17
100
AcDbEntity
  8
TEXT
100
AcDbText
 10
11.88976377952756
 20
11.023622047244094
 30
0.0
 40
0.09070866141732283
  1
DETAIL 1 · THE MARBLE EDGE
 11
11.88976377952756
 21
11.023622047244094
 31
0.0
100
AcDbText
  0
LINE
  5
1B0
330
17
100
AcDbEntity
  8
GEOMETRY
100
AcDbLine
 10
11.88976377952756
 20
10.964566929133857
 30
0.0
 11
16.141732283464567
 21
10.964566929133857
 31
0.0
  0
TEXT
  5
1B1
330
17
100
AcDbEntity
  8
TEXT
100
AcDbText
 10
11.88976377952756
 20
10.834645669291337
 30
0.0
 40
0.048188976377952754
  1
SECTION · 1:2
 11
11.88976377952756
 21
10.834645669291337
 31
0.0
100
AcDbText
  0
LWPOLYLINE
  5
1B2
330
17
100
AcDbEntity
  8
GEOMETRY
100
AcDbPolyline
 90
5
 70
0
 10
12.047244094488189
 20
9.566929133858268
 10
13.4251968503937
 20
9.566929133858268
 10
13.4251968503937
 20
9.212598425196852
 10
12.047244094488189
 20
9.212598425196852
 10
12.047244094488189
 20
9.566929133858268
  0
LWPOLYLINE
  5
1B3
330
17
100
AcDbEntity
  8
GEOMETRY
100
AcDbPolyline
 90
5
 70
0
 10
13.070866141732283
 20
9.212598425196852
 10
13.4251968503937
 20
9.212598425196852
 10
13.4251968503937
 20
8.818897637795276
 10
13.070866141732283
 20
8.818897637795276
 10
13.070866141732283
 20
9.212598425196852
  0
LWPOLYLINE
  5
1B4
330
17
100
AcDbEntity
  8
GEOMETRY
  6
DASHED
100
AcDbPolyline
 90
5
 70
0
 10
13.070866141732283
 20
8.75984251968504
 10
13.4251968503937
 20
8.75984251968504
 10
13.4251968503937
 20
8.484251968503937
 10
13.070866141732283
 20
8.484251968503937
 10
13.070866141732283
 20
8.75984251968504
  0
LWPOLYLINE
  5
1B5
330
17
100
AcDbEntity
  8
GEOMETRY
100
AcDbPolyline
 90
5
 70
0
 10
12.047244094488189
 20
9.960629921259843
 10
13.562992125984252
 20
9.960629921259843
 10
13.562992125984252
 20
9.566929133858268
 10
12.047244094488189
 20
9.566929133858268
 10
12.047244094488189
 20
9.960629921259843
  0
LWPOLYLINE
  5
1B6
330
17
100
AcDbEntity
  8
GEOMETRY
100
AcDbPolyline
 90
6
 70
0
 10
12.047244094488189
 20
10.314960629921261
 10
13.917322834645669
 20
10.314960629921261
 10
13.917322834645669
 20
9.566929133858268
 10
13.562992125984252
 20
9.566929133858268
 10
13.562992125984252
 20
9.960629921259843
 10
12.047244094488189
 20
9.960629921259843
  0
LINE
  5
1B7
330
17
100
AcDbEntity
  8
GEOMETRY
100
AcDbLine
 10
13.562992125984252
 20
9.960629921259843
 30
0.0
 11
13.917322834645669
 21
10.31496062992126
 31
0.0
  0
LINE
  5
1B8
330
17
100
AcDbEntity
  8
GEOMETRY
  6
DASHED
100
AcDbLine
 10
12.047244094488189
 20
10.433070866141732
 30
0.0
 11
12.047244094488189
 21
8.385826771653543
 31
0.0
  0
LINE
  5
1B9
330
17
100
AcDbEntity
  8
DIMENSIONS
100
AcDbLine
 10
14.114173228346457
 20
9.625984251968504
 30
0.0
 11
14.114173228346457
 21
10.255905511811024
 31
0.0
  0
LINE
  5
1BA
330
17
100
AcDbEntity
  8
DIMENSIONS
100
AcDbLine
 10
13.956692913385826
 20
9.566929133858267
 30
0.0
 11
14.161417322834644
 21
9.566929133858267
 31
0.0
  0
LINE
  5
1BB
330
17
100
AcDbEntity
  8
DIMENSIONS
100
AcDbLine
 10
14.074803149606298
 20
9.52755905511811
 30
0.0
 11
14.153543307086615
 21
9.606299212598426
 31
0.0
  0
LINE
  5
1BC
330
17
100
AcDbEntity
  8
DIMENSIONS
100
AcDbLine
 10
13.956692913385826
 20
9.960629921259843
 30
0.0
 11
14.161417322834644
 21
9.960629921259843
 31
0.0
  0
LINE
  5
1BD
330
17
100
AcDbEntity
  8
DIMENSIONS
100
AcDbLine
 10
14.074803149606298
 20
9.921259842519685
 30
0.0
 11
14.153543307086615
 21
10.0
 31
0.0
  0
LINE
  5
1BE
330
17
100
AcDbEntity
  8
DIMENSIONS
100
AcDbLine
 10
13.956692913385826
 20
10.31496062992126
 30
0.0
 11
14.161417322834644
 21
10.31496062992126
 31
0.0
  0
LINE
  5
1BF
330
17
100
AcDbEntity
  8
DIMENSIONS
100
AcDbLine
 10
14.074803149606298
 20
10.275590551181102
 30
0.0
 11
14.153543307086615
 21
10.354330708661417
 31
0.0
  0
TEXT
  5
1C0
330
17
100
AcDbEntity
  8
TEXT
100
AcDbText
 10
14.08267716535433
 20
9.763779527559056
 30
0.0
 40
0.03259842519685039
  1
0¾"
 50
90.0
 72
1
 11
14.08267716535433
 21
9.763779527559056
 31
0.0
100
AcDbText
  0
TEXT
  5
1C1
330
17
100
AcDbEntity
  8
TEXT
100
AcDbText
 10
14.08267716535433
 20
10.137795275590552
 30
0.0
 40
0.03259842519685039
  1
0¾"
 50
90.0
 72
1
 11
14.08267716535433
 21
10.137795275590552
 31
0.0
100
AcDbText
  0
LINE
  5
1C2
330
17
100
AcDbEntity
  8
DIMENSIONS
100
AcDbLine
 10
14.350393700787402
 20
9.625984251968504
 30
0.0
 11
14.350393700787402
 21
10.255905511811024
 31
0.0
  0
LINE
  5
1C3
330
17
100
AcDbEntity
  8
DIMENSIONS
100
AcDbLine
 10
13.956692913385826
 20
9.566929133858267
 30
0.0
 11
14.39763779527559
 21
9.566929133858267
 31
0.0
  0
LINE
  5
1C4
330
17
100
AcDbEntity
  8
DIMENSIONS
100
AcDbLine
 10
14.311023622047244
 20
9.52755905511811
 30
0.0
 11
14.38976377952756
 21
9.606299212598426
 31
0.0
  0
LINE
  5
1C5
330
17
100
AcDbEntity
  8
DIMENSIONS
100
AcDbLine
 10
13.956692913385826
 20
10.31496062992126
 30
0.0
 11
14.39763779527559
 21
10.31496062992126
 31
0.0
  0
LINE
  5
1C6
330
17
100
AcDbEntity
  8
DIMENSIONS
100
AcDbLine
 10
14.311023622047244
 20
10.275590551181102
 30
0.0
 11
14.38976377952756
 21
10.354330708661417
 31
0.0
  0
TEXT
  5
1C7
330
17
100
AcDbEntity
  8
TEXT
100
AcDbText
 10
14.318897637795274
 20
9.940944881889763
 30
0.0
 40
0.03401574803149606
  1
1½"
 50
90.0
 72
1
 11
14.318897637795274
 21
9.940944881889763
 31
0.0
100
AcDbText
  0
LINE
  5
1C8
330
17
100
AcDbEntity
  8
DIMENSIONS
100
AcDbLine
 10
13.366141732283465
 20
9.37007874015748
 30
0.0
 11
13.976377952755906
 21
9.37007874015748
 31
0.0
  0
LINE
  5
1C9
330
17
100
AcDbEntity
  8
DIMENSIONS
100
AcDbLine
 10
13.4251968503937
 20
9.52755905511811
 30
0.0
 11
13.4251968503937
 21
9.322834645669293
 31
0.0
  0
LINE
  5
1CA
330
17
100
AcDbEntity
  8
DIMENSIONS
100
AcDbLine
 10
13.385826771653543
 20
9.330708661417322
 30
0.0
 11
13.464566929133857
 21
9.409448818897637
 31
0.0
  0
LINE
  5
1CB
330
17
100
AcDbEntity
  8
DIMENSIONS
100
AcDbLine
 10
13.917322834645669
 20
9.52755905511811
 30
0.0
 11
13.917322834645669
 21
9.322834645669293
 31
0.0
  0
LINE
  5
1CC
330
17
100
AcDbEntity
  8
DIMENSIONS
100
AcDbLine
 10
13.877952755905511
 20
9.330708661417322
 30
0.0
 11
13.956692913385826
 21
9.409448818897637
 31
0.0
  0
TEXT
  5
1CD
330
17
100
AcDbEntity
  8
TEXT
100
AcDbText
 10
13.671259842519685
 20
9.401574803149607
 30
0.0
 40
0.03259842519685039
  1
1"
 72
1
 11
13.671259842519685
 21
9.401574803149607
 31
0.0
100
AcDbText
  0
LWPOLYLINE
  5
1CE
330
17
100
AcDbEntity
  8
GEOMETRY
100
AcDbPolyline
 90
3
 70
0
 10
12.637795275590552
 20
10.137795275590552
 10
14.488188976377952
 20
10.299212598425198
 10
14.606299212598424
 20
10.299212598425198
  0
TEXT
  5
1CF
330
17
100
AcDbEntity
  8
TEXT
100
AcDbText
 10
14.645669291338583
 20
10.275590551181102
 30
0.0
 40
0.04110236220472441
  1
MARBLE SLAB 18
 11
14.645669291338583
 21
10.275590551181102
 31
0.0
100
AcDbText
  0
LWPOLYLINE
  5
1D0
330
17
100
AcDbEntity
  8
GEOMETRY
100
AcDbPolyline
 90
3
 70
0
 10
12.637795275590552
 20
9.763779527559056
 10
14.488188976377952
 20
10.102362204724411
 10
14.606299212598424
 20
10.102362204724411
  0
TEXT
  5
1D1
330
17
100
AcDbEntity
  8
TEXT
100
AcDbText
 10
14.645669291338583
 20
10.078740157480315
 30
0.0
 40
0.04110236220472441
  1
BWP PLY SUB-TOP 20
 11
14.645669291338583
 21
10.078740157480315
 31
0.0
100
AcDbText
  0
LWPOLYLINE
  5
1D2
330
17
100
AcDbEntity
  8
GEOMETRY
100
AcDbPolyline
 90
3
 70
0
 10
13.740157480314961
 20
9.803149606299213
 10
14.488188976377952
 20
9.905511811023622
 10
14.606299212598424
 20
9.905511811023622
  0
TEXT
  5
1D3
330
17
100
AcDbEntity
  8
TEXT
100
AcDbText
 10
14.645669291338583
 20
9.881889763779528
 30
0.0
 40
0.04110236220472441
  1
MITRED APRON, 18 × 38
 11
14.645669291338583
 21
9.881889763779528
 31
0.0
100
AcDbText
  0
LWPOLYLINE
  5
1D4
330
17
100
AcDbEntity
  8
GEOMETRY
100
AcDbPolyline
 90
3
 70
0
 10
12.637795275590552
 20
9.38976377952756
 10
14.488188976377952
 20
9.708661417322835
 10
14.606299212598424
 20
9.708661417322835
  0
TEXT
  5
1D5
330
17
100
AcDbEntity
  8
TEXT
100
AcDbText
 10
14.645669291338583
 20
9.68503937007874
 30
0.0
 40
0.04110236220472441
  1
CARCASS TOP 18
 11
14.645669291338583
 21
9.68503937007874
 31
0.0
100
AcDbText
  0
LWPOLYLINE
  5
1D6
330
17
100
AcDbEntity
  8
GEOMETRY
100
AcDbPolyline
 90
3
 70
0
 10
13.248031496062993
 20
9.015748031496063
 10
14.488188976377952
 20
9.511811023622048
 10
14.606299212598424
 20
9.511811023622048
  0
TEXT
  5
1D7
330
17
100
AcDbEntity
  8
TEXT
100
AcDbText
 10
14.645669291338583
 20
9.488188976377952
 30
0.0
 40
0.04110236220472441
  1
TOP RAIL
 11
14.645669291338583
 21
9.488188976377952
 31
0.0
100
AcDbText
  0
TEXT
  5
1D8
330
17
100
AcDbEntity
  8
TEXT
100
AcDbText
 10
11.88976377952756
 20
8.149606299212598
 30
0.0
 40
0.09070866141732283
  1
FRONTS
 11
11.88976377952756
 21
8.149606299212598
 31
0.0
100
AcDbText
  0
LINE
  5
1D9
330
17
100
AcDbEntity
  8
GEOMETRY
100
AcDbLine
 10
11.88976377952756
 20
8.090551181102363
 30
0.0
 11
16.141732283464567
 21
8.090551181102363
 31
0.0
  0
TEXT
  5
1DA
330
17
100
AcDbEntity
  8
TEXT
100
AcDbText
 10
11.88976377952756
 20
7.960629921259842
 30
0.0
 40
0.048188976377952754
  1
SIZES ARE THE FRONT ITSELF · 3 MM GAP ALL ROUND
 11
11.88976377952756
 21
7.960629921259842
 31
0.0
100
AcDbText
  0
TEXT
  5
1DB
330
17
100
AcDbEntity
  8
TEXT
100
AcDbText
 10
11.88976377952756
 20
7.677165354330708
 30
0.0
 40
0.03968503937007874
  1
No.
 11
11.88976377952756
 21
7.677165354330708
 31
0.0
100
AcDbText
  0
TEXT
  5
1DC
330
17
100
AcDbEntity
  8
TEXT
100
AcDbText
 10
12.204724409448819
 20
7.677165354330708
 30
0.0
 40
0.03968503937007874
  1
WHAT
 11
12.204724409448819
 21
7.677165354330708
 31
0.0
100
AcDbText
  0
TEXT
  5
1DD
330
17
100
AcDbEntity
  8
TEXT
100
AcDbText
 10
14.251968503937007
 20
7.677165354330708
 30
0.0
 40
0.03968503937007874
  1
W × H
 11
14.251968503937007
 21
7.677165354330708
 31
0.0
100
AcDbText
  0
TEXT
  5
1DE
330
17
100
AcDbEntity
  8
TEXT
100
AcDbText
 10
16.141732283464567
 20
7.677165354330708
 30
0.0
 40
0.03968503937007874
  1
FT-IN
 72
2
 11
16.141732283464567
 21
7.677165354330708
 31
0.0
100
AcDbText
  0
TEXT
  5
1DF
330
17
100
AcDbEntity
  8
TEXT
100
AcDbText
 10
11.88976377952756
 20
7.5
 30
0.0
 40
0.04393700787401574
  1
1
 11
11.88976377952756
 21
7.5
 31
0.0
100
AcDbText
  0
TEXT
  5
1E0
330
17
100
AcDbEntity
  8
TEXT
100
AcDbText
 10
12.204724409448819
 20
7.5
 30
0.0
 40
0.04393700787401574
  1
Door, cup pull
 11
12.204724409448819
 21
7.5
 31
0.0
100
AcDbText
  0
TEXT
  5
1E1
330
17
100
AcDbEntity
  8
TEXT
100
AcDbText
 10
14.251968503937007
 20
7.5
 30
0.0
 40
0.04393700787401574
  1
299 × 566
 11
14.251968503937007
 21
7.5
 31
0.0
100
AcDbText
  0
TEXT
  5
1E2
330
17
100
AcDbEntity
  8
TEXT
100
AcDbText
 10
16.141732283464567
 20
7.5
 30
0.0
 40
0.04110236220472441
  1
11¾" × 1'-10¼"
 72
2
 11
16.141732283464567
 21
7.5
 31
0.0
100
AcDbText
  0
TEXT
  5
1E3
330
17
100
AcDbEntity
  8
TEXT
100
AcDbText
 10
11.88976377952756
 20
7.338582677165355
 30
0.0
 40
0.04393700787401574
  1
2
 11
11.88976377952756
 21
7.338582677165355
 31
0.0
100
AcDbText
  0
TEXT
  5
1E4
330
17
100
AcDbEntity
  8
TEXT
100
AcDbText
 10
12.204724409448819
 20
7.338582677165355
 30
0.0
 40
0.04393700787401574
  1
Door, cup pull
 11
12.204724409448819
 21
7.338582677165355
 31
0.0
100
AcDbText
  0
TEXT
  5
1E5
330
17
100
AcDbEntity
  8
TEXT
100
AcDbText
 10
14.251968503937007
 20
7.338582677165355
 30
0.0
 40
0.04393700787401574
  1
299 × 566
 11
14.251968503937007
 21
7.338582677165355
 31
0.0
100
AcDbText
  0
TEXT
  5
1E6
330
17
100
AcDbEntity
  8
TEXT
100
AcDbText
 10
16.141732283464567
 20
7.338582677165355
 30
0.0
 40
0.04110236220472441
  1
11¾" × 1'-10¼"
 72
2
 11
16.141732283464567
 21
7.338582677165355
 31
0.0
100
AcDbText
  0
TEXT
  5
1E7
330
17
100
AcDbEntity
  8
TEXT
100
AcDbText
 10
11.88976377952756
 20
7.177165354330709
 30
0.0
 40
0.04393700787401574
  1
3
 11
11.88976377952756
 21
7.177165354330709
 31
0.0
100
AcDbText
  0
TEXT
  5
1E8
330
17
100
AcDbEntity
  8
TEXT
100
AcDbText
 10
12.204724409448819
 20
7.177165354330709
 30
0.0
 40
0.04393700787401574
  1
Top drawer, push-open
 11
12.204724409448819
 21
7.177165354330709
 31
0.0
100
AcDbText
  0
TEXT
  5
1E9
330
17
100
AcDbEntity
  8
TEXT
100
AcDbText
 10
14.251968503937007
 20
7.177165354330709
 30
0.0
 40
0.04393700787401574
  1
325 × 146
 11
14.251968503937007
 21
7.177165354330709
 31
0.0
100
AcDbText
  0
TEXT
  5
1EA
330
17
100
AcDbEntity
  8
TEXT
100
AcDbText
 10
16.141732283464567
 20
7.177165354330709
 30
0.0
 40
0.04110236220472441
  1
1'-0¾" × 5¾"
 72
2
 11
16.141732283464567
 21
7.177165354330709
 31
0.0
100
AcDbText
  0
TEXT
  5
1EB
330
17
100
AcDbEntity
  8
TEXT
100
AcDbText
 10
11.88976377952756
 20
7.015748031496062
 30
0.0
 40
0.04393700787401574
  1
4
 11
11.88976377952756
 21
7.015748031496062
 31
0.0
100
AcDbText
  0
TEXT
  5
1EC
330
17
100
AcDbEntity
  8
TEXT
100
AcDbText
 10
12.204724409448819
 20
7.015748031496062
 30
0.0
 40
0.04393700787401574
  1
Top drawer, push-open
 11
12.204724409448819
 21
7.015748031496062
 31
0.0
100
AcDbText
  0
TEXT
  5
1ED
330
17
100
AcDbEntity
  8
TEXT
100
AcDbText
 10
14.251968503937007
 20
7.015748031496062
 30
0.0
 40
0.04393700787401574
  1
325 × 146
 11
14.251968503937007
 21
7.015748031496062
 31
0.0
100
AcDbText
  0
TEXT
  5
1EE
330
17
100
AcDbEntity
  8
TEXT
100
AcDbText
 10
16.141732283464567
 20
7.015748031496062
 30
0.0
 40
0.04110236220472441
  1
1'-0¾" × 5¾"
 72
2
 11
16.141732283464567
 21
7.015748031496062
 31
0.0
100
AcDbText
  0
TEXT
  5
1EF
330
17
100
AcDbEntity
  8
TEXT
100
AcDbText
 10
11.88976377952756
 20
6.854330708661417
 30
0.0
 40
0.04393700787401574
  1
5
 11
11.88976377952756
 21
6.854330708661417
 31
0.0
100
AcDbText
  0
TEXT
  5
1F0
330
17
100
AcDbEntity
  8
TEXT
100
AcDbText
 10
12.204724409448819
 20
6.854330708661417
 30
0.0
 40
0.04393700787401574
  1
Big drawer, U-box, push-open
 11
12.204724409448819
 21
6.854330708661417
 31
0.0
100
AcDbText
  0
TEXT
  5
1F1
330
17
100
AcDbEntity
  8
TEXT
100
AcDbText
 10
14.251968503937007
 20
6.854330708661417
 30
0.0
 40
0.04393700787401574
  1
680 × 388
 11
14.251968503937007
 21
6.854330708661417
 31
0.0
100
AcDbText
  0
TEXT
  5
1F2
330
17
100
AcDbEntity
  8
TEXT
100
AcDbText
 10
16.141732283464567
 20
6.854330708661417
 30
0.0
 40
0.04110236220472441
  1
2'-2¾" × 1'-3¼"
 72
2
 11
16.141732283464567
 21
6.854330708661417
 31
0.0
100
AcDbText
  0
TEXT
  5
1F3
330
17
100
AcDbEntity
  8
TEXT
100
AcDbText
 10
11.88976377952756
 20
6.692913385826771
 30
0.0
 40
0.04393700787401574
  1
5a
 11
11.88976377952756
 21
6.692913385826771
 31
0.0
100
AcDbText
  0
TEXT
  5
1F4
330
17
100
AcDbEntity
  8
TEXT
100
AcDbText
 10
12.204724409448819
 20
6.692913385826771
 30
0.0
 40
0.04393700787401574
  1
Inner drawer, finger scoop
 11
12.204724409448819
 21
6.692913385826771
 31
0.0
100
AcDbText
  0
TEXT
  5
1F5
330
17
100
AcDbEntity
  8
TEXT
100
AcDbText
 10
14.251968503937007
 20
6.692913385826771
 30
0.0
 40
0.04393700787401574
  1
624 × 95
 11
14.251968503937007
 21
6.692913385826771
 31
0.0
100
AcDbText
  0
TEXT
  5
1F6
330
17
100
AcDbEntity
  8
TEXT
100
AcDbText
 10
16.141732283464567
 20
6.692913385826771
 30
0.0
 40
0.04110236220472441
  1
2'-0⅝" × 3¾"
 72
2
 11
16.141732283464567
 21
6.692913385826771
 31
0.0
100
AcDbText
  0
TEXT
  5
1F7
330
17
100
AcDbEntity
  8
TEXT
100
AcDbText
 10
11.88976377952756
 20
6.15748031496063
 30
0.0
 40
0.09070866141732283
  1
MATERIALS
 11
11.88976377952756
 21
6.15748031496063
 31
0.0
100
AcDbText
  0
LINE
  5
1F8
330
17
100
AcDbEntity
  8
GEOMETRY
100
AcDbLine
 10
11.88976377952756
 20
6.0984251968503935
 30
0.0
 11
16.141732283464567
 21
6.0984251968503935
 31
0.0
  0
TEXT
  5
1F9
330
17
100
AcDbEntity
  8
TEXT
100
AcDbText
 10
11.88976377952756
 20
5.968503937007874
 30
0.0
 40
0.048188976377952754
  1
THE ROOM'S PALETTE — NOTHING NEW
 11
11.88976377952756
 21
5.968503937007874
 31
0.0
100
AcDbText
  0
TEXT
  5
1FA
330
17
100
AcDbEntity
  8
TEXT
100
AcDbText
 10
11.88976377952756
 20
5.724409448818898
 30
0.0
 40
0.04251968503937008
  1
Top
 11
11.88976377952756
 21
5.724409448818898
 31
0.0
100
AcDbText
  0
TEXT
  5
1FB
330
17
100
AcDbEntity
  8
TEXT
100
AcDbText
 10
12.48031496062992
 20
5.724409448818898
 30
0.0
 40
0.04251968503937008
  1
Beige-gold marble, the bathroom stone. 18 slab
 11
12.48031496062992
 21
5.724409448818898
 31
0.0
100
AcDbText
  0
TEXT
  5
1FC
330
17
100
AcDbEntity
  8
TEXT
100
AcDbText
 10
12.48031496062992
 20
5.570866141732283
 30
0.0
 40
0.04251968503937008
  1
on a 20 BWP sub-top, mitred 38 apron, polished.
 11
12.48031496062992
 21
5.570866141732283
 31
0.0
100
AcDbText
  0
TEXT
  5
1FD
330
17
100
AcDbEntity
  8
TEXT
100
AcDbText
 10
11.88976377952756
 20
5.4173228346456686
 30
0.0
 40
0.04251968503937008
  1
Carcass
 11
11.88976377952756
 21
5.4173228346456686
 31
0.0
100
AcDbText
  0
TEXT
  5
1FE
330
17
100
AcDbEntity
  8
TEXT
100
AcDbText
 10
12.48031496062992
 20
5.4173228346456686
 30
0.0
 40
0.04251968503937008
  1
18 BWP / marine ply, teak veneer both faces.
 11
12.48031496062992
 21
5.4173228346456686
 31
0.0
100
AcDbText
  0
TEXT
  5
1FF
330
17
100
AcDbEntity
  8
TEXT
100
AcDbText
 10
12.48031496062992
 20
5.263779527559055
 30
0.0
 40
0.04251968503937008
  1
Every edge sealed — it stands in a wet room.
 11
12.48031496062992
 21
5.263779527559055
 31
0.0
100
AcDbText
  0
TEXT
  5
200
330
17
100
AcDbEntity
  8
TEXT
100
AcDbText
 10
11.88976377952756
 20
5.110236220472442
 30
0.0
 40
0.04251968503937008
  1
Fronts
 11
11.88976377952756
 21
5.110236220472442
 31
0.0
100
AcDbText
  0
TEXT
  5
201
330
17
100
AcDbEntity
  8
TEXT
100
AcDbText
 10
12.48031496062992
 20
5.110236220472442
 30
0.0
 40
0.04251968503937008
  1
18 BWP, teak veneer, 6 solid teak lipping.
 11
12.48031496062992
 21
5.110236220472442
 31
0.0
100
AcDbText
  0
TEXT
  5
202
330
17
100
AcDbEntity
  8
TEXT
100
AcDbText
 10
11.88976377952756
 20
4.956692913385827
 30
0.0
 40
0.04251968503937008
  1
Runners
 11
11.88976377952756
 21
4.956692913385827
 31
0.0
100
AcDbText
  0
TEXT
  5
203
330
17
100
AcDbEntity
  8
TEXT
100
AcDbText
 10
12.48031496062992
 20
4.956692913385827
 30
0.0
 40
0.04251968503937008
  1
Undermount, full extension. Drawers push-to-open —
 11
12.48031496062992
 21
4.956692913385827
 31
0.0
100
AcDbText
  0
TEXT
  5
204
330
17
100
AcDbEntity
  8
TEXT
100
AcDbText
 10
12.48031496062992
 20
4.803149606299213
 30
0.0
 40
0.04251968503937008
  1
no handles on them; the doors keep cup pulls.
 11
12.48031496062992
 21
4.803149606299213
 31
0.0
100
AcDbText
  0
TEXT
  5
205
330
17
100
AcDbEntity
  8
TEXT
100
AcDbText
 10
11.88976377952756
 20
4.649606299212598
 30
0.0
 40
0.04251968503937008
  1
Fittings
 11
11.88976377952756
 21
4.649606299212598
 31
0.0
100
AcDbText
  0
TEXT
  5
206
330
17
100
AcDbEntity
  8
TEXT
100
AcDbText
 10
12.48031496062992
 20
4.649606299212598
 30
0.0
 40
0.04251968503937008
  1
Chrome — already bought. Door cup pulls to match.
 11
12.48031496062992
 21
4.649606299212598
 31
0.0
100
AcDbText
  0
TEXT
  5
207
330
17
100
AcDbEntity
  8
TEXT
100
AcDbText
 10
11.88976377952756
 20
4.496062992125983
 30
0.0
 40
0.04251968503937008
  1
Hanging
 11
11.88976377952756
 21
4.496062992125983
 31
0.0
100
AcDbText
  0
TEXT
  5
208
330
17
100
AcDbEntity
  8
TEXT
100
AcDbText
 10
12.48031496062992
 20
4.496062992125983
 30
0.0
 40
0.04251968503937008
  1
18 ply cleat on the wall, 700–760 high.
 11
12.48031496062992
 21
4.496062992125983
 31
0.0
100
AcDbText
  0
TEXT
  5
209
330
17
100
AcDbEntity
  8
TEXT
100
AcDbText
 10
11.88976377952756
 20
4.34251968503937
 30
0.0
 40
0.04251968503937008
  1
Inner
 11
11.88976377952756
 21
4.34251968503937
 31
0.0
100
AcDbText
  0
TEXT
  5
20A
330
17
100
AcDbEntity
  8
TEXT
100
AcDbText
 10
12.48031496062992
 20
4.34251968503937
 30
0.0
 40
0.04251968503937008
  1
A U-box on its own runners, above the big
 11
12.48031496062992
 21
4.34251968503937
 31
0.0
100
AcDbText
  0
TEXT
  5
20B
330
17
100
AcDbEntity
  8
TEXT
100
AcDbText
 10
12.48031496062992
 20
4.1889763779527565
 30
0.0
 40
0.04251968503937008
  1
drawer's low sides — see AST-DR-022.
 11
12.48031496062992
 21
4.1889763779527565
 31
0.0
100
AcDbText
  0
TEXT
  5
20C
330
17
100
AcDbEntity
  8
TEXT
100
AcDbText
 10
0.7086614173228346
 20
1.3779527559055118
 30
0.0
 40
0.09070866141732283
  1
SECTION KEY
 11
0.7086614173228346
 21
1.3779527559055118
 31
0.0
100
AcDbText
  0
LINE
  5
20D
330
17
100
AcDbEntity
  8
GEOMETRY
100
AcDbLine
 10
0.7086614173228346
 20
1.3188976377952755
 30
0.0
 11
3.4645669291338583
 21
1.3188976377952755
 31
0.0
  0
CIRCLE
  5
20E
330
17
100
AcDbEntity
  8
GEOMETRY
100
AcDbCircle
 10
0.7874015748031495
 20
1.0629921259842519
 30
0.0
 40
0.07874015748031496
  0
TEXT
  5
20F
330
17
100
AcDbEntity
  8
TEXT
100
AcDbText
 10
0.7874015748031495
 20
1.0334645669291338
 30
0.0
 40
0.05669291338582677
  1
A
 72
1
 11
0.7874015748031495
 21
1.0334645669291338
 31
0.0
100
AcDbText
  0
TEXT
  5
210
330
17
100
AcDbEntity
  8
TEXT
100
AcDbText
 10
0.9251968503937008
 20
1.0354330708661421
 30
0.0
 40
0.03968503937007874
  1
Hanging cleat
 11
0.9251968503937008
 21
1.0354330708661421
 31
0.0
100
AcDbText
  0
CIRCLE
  5
211
330
17
100
AcDbEntity
  8
GEOMETRY
100
AcDbCircle
 10
1.7322834645669292
 20
1.0629921259842519
 30
0.0
 40
0.07874015748031496
  0
TEXT
  5
212
330
17
100
AcDbEntity
  8
TEXT
100
AcDbText
 10
1.7322834645669292
 20
1.0334645669291338
 30
0.0
 40
0.05669291338582677
  1
B
 72
1
 11
1.7322834645669292
 21
1.0334645669291338
 31
0.0
100
AcDbText
  0
TEXT
  5
213
330
17
100
AcDbEntity
  8
TEXT
100
AcDbText
 10
1.8700787401574803
 20
1.0354330708661421
 30
0.0
 40
0.03968503937007874
  1
Big drawer, U-box
 11
1.8700787401574803
 21
1.0354330708661421
 31
0.0
100
AcDbText
  0
CIRCLE
  5
214
330
17
100
AcDbEntity
  8
GEOMETRY
100
AcDbCircle
 10
2.677165354330709
 20
1.0629921259842519
 30
0.0
 40
0.07874015748031496
  0
TEXT
  5
215
330
17
100
AcDbEntity
  8
TEXT
100
AcDbText
 10
2.677165354330709
 20
1.0334645669291338
 30
0.0
 40
0.05669291338582677
  1
C
 72
1
 11
2.677165354330709
 21
1.0334645669291338
 31
0.0
100
AcDbText
  0
TEXT
  5
216
330
17
100
AcDbEntity
  8
TEXT
100
AcDbText
 10
2.8149606299212597
 20
1.0354330708661421
 30
0.0
 40
0.03968503937007874
  1
Waste Ø40 and P-trap
 11
2.8149606299212597
 21
1.0354330708661421
 31
0.0
100
AcDbText
  0
CIRCLE
  5
217
330
17
100
AcDbEntity
  8
GEOMETRY
100
AcDbCircle
 10
0.7874015748031495
 20
0.8267716535433071
 30
0.0
 40
0.07874015748031496
  0
TEXT
  5
218
330
17
100
AcDbEntity
  8
TEXT
100
AcDbText
 10
0.7874015748031495
 20
0.797244094488189
 30
0.0
 40
0.05669291338582677
  1
D
 72
1
 11
0.7874015748031495
 21
0.797244094488189
 31
0.0
100
AcDbText
  0
TEXT
  5
219
330
17
100
AcDbEntity
  8
TEXT
100
AcDbText
 10
0.9251968503937008
 20
0.7992125984251973
 30
0.0
 40
0.03968503937007874
  1
Support, set back 76
 11
0.9251968503937008
 21
0.7992125984251973
 31
0.0
100
AcDbText
  0
CIRCLE
  5
21A
330
17
100
AcDbEntity
  8
GEOMETRY
100
AcDbCircle
 10
1.7322834645669292
 20
0.8267716535433071
 30
0.0
 40
0.07874015748031496
  0
TEXT
  5
21B
330
17
100
AcDbEntity
  8
TEXT
100
AcDbText
 10
1.7322834645669292
 20
0.797244094488189
 30
0.0
 40
0.05669291338582677
  1
E
 72
1
 11
1.7322834645669292
 21
0.797244094488189
 31
0.0
100
AcDbText
  0
TEXT
  5
21C
330
17
100
AcDbEntity
  8
TEXT
100
AcDbText
 10
1.8700787401574803
 20
0.7992125984251973
 30
0.0
 40
0.03968503937007874
  1
Wall spout
 11
1.8700787401574803
 21
0.7992125984251973
 31
0.0
100
AcDbText
  0
CIRCLE
  5
21D
330
17
100
AcDbEntity
  8
GEOMETRY
100
AcDbCircle
 10
2.677165354330709
 20
0.8267716535433071
 30
0.0
 40
0.07874015748031496
  0
TEXT
  5
21E
330
17
100
AcDbEntity
  8
TEXT
100
AcDbText
 10
2.677165354330709
 20
0.797244094488189
 30
0.0
 40
0.05669291338582677
  1
F
 72
1
 11
2.677165354330709
 21
0.797244094488189
 31
0.0
100
AcDbText
  0
TEXT
  5
21F
330
17
100
AcDbEntity
  8
TEXT
100
AcDbText
 10
2.8149606299212597
 20
0.7992125984251973
 30
0.0
 40
0.03968503937007874
  1
Ply sub-top
 11
2.8149606299212597
 21
0.7992125984251973
 31
0.0
100
AcDbText
  0
CIRCLE
  5
220
330
17
100
AcDbEntity
  8
GEOMETRY
100
AcDbCircle
 10
0.7874015748031495
 20
0.5905511811023622
 30
0.0
 40
0.07874015748031496
  0
TEXT
  5
221
330
17
100
AcDbEntity
  8
TEXT
100
AcDbText
 10
0.7874015748031495
 20
0.5610236220472441
 30
0.0
 40
0.05669291338582677
  1
G
 72
1
 11
0.7874015748031495
 21
0.5610236220472441
 31
0.0
100
AcDbText
  0
TEXT
  5
222
330
17
100
AcDbEntity
  8
TEXT
100
AcDbText
 10
0.9251968503937008
 20
0.5629921259842524
 30
0.0
 40
0.03968503937007874
  1
Inner drawer
 11
0.9251968503937008
 21
0.5629921259842524
 31
0.0
100
AcDbText
  0
TEXT
  5
223
330
17
100
AcDbEntity
  8
TEXT
100
AcDbText
 10
3.779527559055118
 20
1.3779527559055118
 30
0.0
 40
0.09070866141732283
  1
NOTES
 11
3.779527559055118
 21
1.3779527559055118
 31
0.0
100
AcDbText
  0
LINE
  5
224
330
17
100
AcDbEntity
  8
GEOMETRY
100
AcDbLine
 10
3.779527559055118
 20
1.3188976377952755
 30
0.0
 11
11.259842519685039
 21
1.3188976377952755
 31
0.0
  0
TEXT
  5
225
330
17
100
AcDbEntity
  8
TEXT
100
AcDbText
 10
3.779527559055118
 20
1.1889763779527553
 30
0.0
 40
0.048188976377952754
  1
REVISION 1
 11
3.779527559055118
 21
1.1889763779527553
 31
0.0
100
AcDbText
  0
TEXT
  5
226
330
17
100
AcDbEntity
  8
TEXT
100
AcDbText
 10
3.779527559055118
 20
1.0629921259842519
 30
0.0
 40
0.04110236220472441
  1
Symmetric about the vanity's centre — except the bowl,
 11
3.779527559055118
 21
1.0629921259842519
 31
0.0
100
AcDbText
  0
TEXT
  5
227
330
17
100
AcDbEntity
  8
TEXT
100
AcDbText
 10
3.779527559055118
 20
0.897637795275591
 30
0.0
 40
0.04110236220472441
  1
which has to sit under the faucet, 152 right of it.
 11
3.779527559055118
 21
0.897637795275591
 31
0.0
100
AcDbText
  0
TEXT
  5
228
330
17
100
AcDbEntity
  8
TEXT
100
AcDbText
 10
3.779527559055118
 20
0.73228346456693
 30
0.0
 40
0.04110236220472441
  1
The waste drops through the right-hand TOP drawer as
 11
3.779527559055118
 21
0.73228346456693
 31
0.0
100
AcDbText
  0
TEXT
  5
229
330
17
100
AcDbEntity
  8
TEXT
100
AcDbText
 10
3.779527559055118
 20
0.5669291338582668
 30
0.0
 40
0.04110236220472441
  1
well as the big one: both are U-boxes (see section).
 11
3.779527559055118
 21
0.5669291338582668
 31
0.0
100
AcDbText
  0
TEXT
  5
22A
330
17
100
AcDbEntity
  8
TEXT
100
AcDbText
 10
7.559055118110236
 20
1.0629921259842519
 30
0.0
 40
0.04110236220472441
  1
OPEN — bowl Ø406 × 127 and the spout are assumed.
 11
7.559055118110236
 21
1.0629921259842519
 31
0.0
100
AcDbText
  0
TEXT
  5
22B
330
17
100
AcDbEntity
  8
TEXT
100
AcDbText
 10
7.559055118110236
 20
0.897637795275591
 30
0.0
 40
0.04110236220472441
  1
With the bowl on a 838 counter its rim is at 965 (38 in).
 11
7.559055118110236
 21
0.897637795275591
 31
0.0
100
AcDbText
  0
TEXT
  5
22C
330
17
100
AcDbEntity
  8
TEXT
100
AcDbText
 10
7.559055118110236
 20
0.73228346456693
 30
0.0
 40
0.04110236220472441
  1
OPEN — the support's design: reference photos to come.
 11
7.559055118110236
 21
0.73228346456693
 31
0.0
100
AcDbText
  0
LWPOLYLINE
  5
22D
330
17
100
AcDbEntity
  8
GEOMETRY
100
AcDbPolyline
 90
5
 70
0
 10
11.811023622047244
 20
2.283464566929135
 10
16.22047244094488
 20
2.283464566929135
 10
16.22047244094488
 20
0.31496062992126106
 10
11.811023622047244
 20
0.31496062992126106
 10
11.811023622047244
 20
2.283464566929135
  0
LINE
  5
22E
330
17
100
AcDbEntity
  8
GEOMETRY
100
AcDbLine
 10
11.811023622047244
 20
1.7322834645669292
 30
0.0
 11
16.22047244094488
 21
1.7322834645669292
 31
0.0
  0
LINE
  5
22F
330
17
100
AcDbEntity
  8
GEOMETRY
100
AcDbLine
 10
11.811023622047244
 20
1.1023622047244095
 30
0.0
 11
16.22047244094488
 21
1.1023622047244095
 31
0.0
  0
LINE
  5
230
330
17
100
AcDbEntity
  8
GEOMETRY
100
AcDbLine
 10
11.811023622047244
 20
0.7086614173228346
 30
0.0
 11
16.22047244094488
 21
0.7086614173228346
 31
0.0
  0
LINE
  5
231
330
17
100
AcDbEntity
  8
GEOMETRY
100
AcDbLine
 10
14.015748031496063
 20
1.1023622047244095
 30
0.0
 11
14.015748031496063
 21
0.31496062992125984
 31
0.0
  0
TEXT
  5
232
330
17
100
AcDbEntity
  8
TEXT
100
AcDbText
 10
11.929133858267717
 20
2.02755905511811
 30
0.0
 40
0.09637795275590551
  1
A STUDY IN TEAK
 11
11.929133858267717
 21
2.02755905511811
 31
0.0
100
AcDbText
  0
TEXT
  5
233
330
17
100
AcDbEntity
  8
TEXT
100
AcDbText
 10
11.929133858267717
 20
1.8503937007874016
 30
0.0
 40
0.05385826771653543
  1
Particulars of the room
 11
11.929133858267717
 21
1.8503937007874016
 31
0.0
100
AcDbText
  0
TEXT
  5
234
330
17
100
AcDbEntity
  8
TEXT
100
AcDbText
 10
11.929133858267717
 20
1.4763779527559056
 30
0.0
 40
0.09637795275590551
  1
VANITY — NORMAL
 11
11.929133858267717
 21
1.4763779527559056
 31
0.0
100
AcDbText
  0
TEXT
  5
235
330
17
100
AcDbEntity
  8
TEXT
100
AcDbText
 10
11.929133858267717
 20
1.2598425196850394
 30
0.0
 40
0.05669291338582677
  1
Marble full length · Door · Drawers · Door
 11
11.929133858267717
 21
1.2598425196850394
 31
0.0
100
AcDbText
  0
TEXT
  5
236
330
17
100
AcDbEntity
  8
TEXT
100
AcDbText
 10
11.929133858267717
 20
0.9448818897637795
 30
0.0
 40
0.04251968503937008
  1
SCALE
 11
11.929133858267717
 21
0.9448818897637795
 31
0.0
100
AcDbText
  0
TEXT
  5
237
330
17
100
AcDbEntity
  8
TEXT
100
AcDbText
 10
11.929133858267717
 20
0.7874015748031495
 30
0.0
 40
0.05952755905511811
  1
AS NOTED @ A3
 11
11.929133858267717
 21
0.7874015748031495
 31
0.0
100
AcDbText
  0
TEXT
  5
238
330
17
100
AcDbEntity
  8
TEXT
100
AcDbText
 10
14.133858267716535
 20
0.9448818897637795
 30
0.0
 40
0.04251968503937008
  1
DATE
 11
14.133858267716535
 21
0.9448818897637795
 31
0.0
100
AcDbText
  0
TEXT
  5
239
330
17
100
AcDbEntity
  8
TEXT
100
AcDbText
 10
14.133858267716535
 20
0.7874015748031495
 30
0.0
 40
0.05952755905511811
  1
23.09.2026
 11
14.133858267716535
 21
0.7874015748031495
 31
0.0
100
AcDbText
  0
TEXT
  5
23A
330
17
100
AcDbEntity
  8
TEXT
100
AcDbText
 10
11.929133858267717
 20
0.5511811023622047
 30
0.0
 40
0.04251968503937008
  1
REV
 11
11.929133858267717
 21
0.5511811023622047
 31
0.0
100
AcDbText
  0
TEXT
  5
23B
330
17
100
AcDbEntity
  8
TEXT
100
AcDbText
 10
11.929133858267717
 20
0.39370078740157477
 30
0.0
 40
0.051023622047244095
  1
1 — as sketched
 11
11.929133858267717
 21
0.39370078740157477
 31
0.0
100
AcDbText
  0
TEXT
  5
23C
330
17
100
AcDbEntity
  8
TEXT
100
AcDbText
 10
14.133858267716535
 20
0.5511811023622047
 30
0.0
 40
0.04251968503937008
  1
DWG
 11
14.133858267716535
 21
0.5511811023622047
 31
0.0
100
AcDbText
  0
TEXT
  5
23D
330
17
100
AcDbEntity
  8
TEXT
100
AcDbText
 10
14.133858267716535
 20
0.39370078740157477
 30
0.0
 40
0.05952755905511811
  1
AST-DR-019
 11
14.133858267716535
 21
0.39370078740157477
 31
0.0
100
AcDbText
  0
ENDSEC
  0
SECTION
  2
OBJECTS
  0
DICTIONARY
  5
A
330
0
100
AcDbDictionary
281
1
  3
ACAD_COLOR
350
B
  3
ACAD_GROUP
350
C
  3
ACAD_LAYOUT
350
D
  3
ACAD_MATERIAL
350
E
  3
ACAD_MLEADERSTYLE
350
F
  3
ACAD_MLINESTYLE
350
10
  3
ACAD_PLOTSETTINGS
350
11
  3
ACAD_PLOTSTYLENAME
350
12
  3
ACAD_SCALELIST
350
14
  3
ACAD_TABLESTYLE
350
15
  3
ACAD_VISUALSTYLE
350
16
  3
EZDXF_META
350
2D
  0
DICTIONARY
  5
B
330
A
100
AcDbDictionary
281
1
  0
DICTIONARY
  5
C
330
A
100
AcDbDictionary
281
1
  0
DICTIONARY
  5
D
330
A
100
AcDbDictionary
281
1
  3
Model
350
1A
  3
Layout1
350
1E
  0
DICTIONARY
  5
E
330
A
100
AcDbDictionary
281
1
  3
ByBlock
350
1F
  3
ByLayer
350
20
  3
Global
350
21
  0
DICTIONARY
  5
F
330
A
100
AcDbDictionary
281
1
  3
Standard
350
2C
  0
DICTIONARY
  5
10
330
A
100
AcDbDictionary
281
1
  3
Standard
350
22
  0
DICTIONARY
  5
11
330
A
100
AcDbDictionary
281
1
  0
ACDBDICTIONARYWDFLT
  5
12
330
A
100
AcDbDictionary
281
1
  3
Normal
350
13
100
AcDbDictionaryWithDefault
340
13
  0
ACDBPLACEHOLDER
  5
13
330
12
  0
DICTIONARY
  5
14
330
A
100
AcDbDictionary
281
1
  0
DICTIONARY
  5
15
330
A
100
AcDbDictionary
281
1
  0
DICTIONARY
  5
16
330
A
100
AcDbDictionary
281
1
  3
2dWireframe
350
5A
  3
Basic
350
5B
  3
Brighten
350
5C
  3
ColorChange
350
5D
  3
Conceptual
350
5E
  3
Dim
350
5F
  3
EdgeColorOff
350
60
  3
Facepattern
350
61
  3
Flat
350
62
  3
FlatWithEdges
350
63
  3
Gouraud
350
64
  3
GouraudWithEdges
350
65
  3
Hidden
350
66
  3
JitterOff
350
67
  3
Linepattern
350
68
  3
Modeling
350
69
  3
OverhangOff
350
6A
  3
Realistic
350
6B
  3
Shaded
350
6C
  3
Shaded with edges
350
6D
  3
Shades of Gray
350
6E
  3
Sketchy
350
6F
  3
Thicken
350
70
  3
Wireframe
350
71
  3
X-Ray
350
72
  0
LAYOUT
  5
1A
330
D
100
AcDbPlotSettings
  1

  4
A3
  6

 40
7.5
 41
20.0
 42
7.5
 43
20.0
 44
420.0
 45
297.0
 46
0.0
 47
0.0
 48
0.0
 49
0.0
140
0.0
141
0.0
142
1.0
143
1.0
 70
1024
 72
1
 73
0
 74
5
  7

 75
16
 76
0
 77
2
 78
300
147
1.0
148
0.0
149
0.0
100
AcDbLayout
  1
Model
 70
1
 71
0
 10
0.0
 20
0.0
 11
420.0
 21
297.0
 12
0.0
 22
0.0
 32
0.0
 14
1e+20
 24
1e+20
 34
1e+20
 15
-1e+20
 25
-1e+20
 35
-1e+20
146
0.0
 13
0.0
 23
0.0
 33
0.0
 16
1.0
 26
0.0
 36
0.0
 17
0.0
 27
1.0
 37
0.0
 76
1
330
17
  0
LAYOUT
  5
1E
330
D
100
AcDbPlotSettings
  1

  4
A3
  6

 40
7.5
 41
20.0
 42
7.5
 43
20.0
 44
420.0
 45
297.0
 46
0.0
 47
0.0
 48
0.0
 49
0.0
140
0.0
141
0.0
142
1.0
143
1.0
 70
0
 72
1
 73
0
 74
5
  7

 75
16
 76
0
 77
2
 78
300
147
1.0
148
0.0
149
0.0
100
AcDbLayout
  1
Layout1
 70
1
 71
1
 10
0.0
 20
0.0
 11
420.0
 21
297.0
 12
0.0
 22
0.0
 32
0.0
 14
1e+20
 24
1e+20
 34
1e+20
 15
-1e+20
 25
-1e+20
 35
-1e+20
146
0.0
 13
0.0
 23
0.0
 33
0.0
 16
1.0
 26
0.0
 36
0.0
 17
0.0
 27
1.0
 37
0.0
 76
1
330
1B
  0
MATERIAL
  5
1F
102
{ACAD_REACTORS
330
E
102
}
330
E
100
AcDbMaterial
  1
ByBlock
  2

 70
0
 40
1.0
 71
1
 41
1.0
 91
-1023410177
 42
1.0
 72
1
  3

 73
1
 74
1
 75
1
 44
0.5
 73
0
 45
1.0
 46
1.0
 77
1
  4

 78
1
 79
1
170
1
 48
1.0
171
1
  6

172
1
173
1
174
1
140
1.0
141
1.0
175
1
  7

176
1
177
1
178
1
143
1.0
179
1
  8

270
1
271
1
272
1
145
1.0
146
1.0
273
1
  9

274
1
275
1
276
1
 42
1.0
 72
1
  3

 73
1
 74
1
 75
1
 94
63
  0
MATERIAL
  5
20
102
{ACAD_REACTORS
330
E
102
}
330
E
100
AcDbMaterial
  1
ByLayer
  2

 70
0
 40
1.0
 71
1
 41
1.0
 91
-1023410177
 42
1.0
 72
1
  3

 73
1
 74
1
 75
1
 44
0.5
 73
0
 45
1.0
 46
1.0
 77
1
  4

 78
1
 79
1
170
1
 48
1.0
171
1
  6

172
1
173
1
174
1
140
1.0
141
1.0
175
1
  7

176
1
177
1
178
1
143
1.0
179
1
  8

270
1
271
1
272
1
145
1.0
146
1.0
273
1
  9

274
1
275
1
276
1
 42
1.0
 72
1
  3

 73
1
 74
1
 75
1
 94
63
  0
MATERIAL
  5
21
102
{ACAD_REACTORS
330
E
102
}
330
E
100
AcDbMaterial
  1
Global
  2

 70
0
 40
1.0
 71
1
 41
1.0
 91
-1023410177
 42
1.0
 72
1
  3

 73
1
 74
1
 75
1
 44
0.5
 73
0
 45
1.0
 46
1.0
 77
1
  4

 78
1
 79
1
170
1
 48
1.0
171
1
  6

172
1
173
1
174
1
140
1.0
141
1.0
175
1
  7

176
1
177
1
178
1
143
1.0
179
1
  8

270
1
271
1
272
1
145
1.0
146
1.0
273
1
  9

274
1
275
1
276
1
 42
1.0
 72
1
  3

 73
1
 74
1
 75
1
 94
63
  0
MLINESTYLE
  5
22
102
{ACAD_REACTORS
330
10
102
}
330
10
100
AcDbMlineStyle
  2
Standard
 70
0
  3

 62
256
 51
90.0
 52
90.0
 71
2
 49
0.5
 62
256
  6
BYLAYER
 49
-0.5
 62
256
  6
BYLAYER
  0
MLEADERSTYLE
  5
2C
102
{ACAD_REACTORS
330
F
102
}
330
F
100
AcDbMLeaderStyle
179
2
170
2
171
1
172
0
 90
2
 40
0.0
 41
0.0
173
1
 91
-1056964608
 92
-2
290
1
 42
2.0
291
1
 43
8.0
  3
Standard
 44
4.0
300

342
29
174
1
175
1
176
0
178
1
 93
-1056964608
 45
4.0
292
0
297
0
 46
4.0
 94
-1056964608
 47
1.0
 49
1.0
140
1.0
294
1
141
0.0
177
0
142
1.0
295
0
296
0
143
3.75
271
0
272
9
273
9
  0
DICTIONARY
  5
2D
330
A
100
AcDbDictionary
280
1
281
1
  3
CREATED_BY_EZDXF
350
2E
  3
WRITTEN_BY_EZDXF
350
240
  0
DICTIONARYVAR
  5
2E
330
2D
100
DictionaryVariables
280
0
  1
1.4.2 @ 2026-09-23T13:48:59.691528+00:00
  0
VISUALSTYLE
  5
5A
102
{ACAD_REACTORS
330
16
102
}
330
16
100
AcDbVisualStyle
  2
2dWireframe
 70
4
 90
0
 40
0.6
 62
7
290
0
291
0
  0
VISUALSTYLE
  5
5B
102
{ACAD_REACTORS
330
16
102
}
330
16
100
AcDbVisualStyle
  2
Basic
 70
7
 90
1
 40
0.6
 62
7
290
0
291
1
  0
VISUALSTYLE
  5
5C
102
{ACAD_REACTORS
330
16
102
}
330
16
100
AcDbVisualStyle
  2
Brighten
 70
12
 90
2
 40
0.6
 62
7
290
0
291
1
  0
VISUALSTYLE
  5
5D
102
{ACAD_REACTORS
330
16
102
}
330
16
100
AcDbVisualStyle
  2
ColorChange
 70
16
 90
2
 40
0.6
 62
8
290
0
291
1
  0
VISUALSTYLE
  5
5E
102
{ACAD_REACTORS
330
16
102
}
330
16
100
AcDbVisualStyle
  2
Conceptual
 70
9
 90
3
 40
0.6
 62
7
290
0
291
0
  0
VISUALSTYLE
  5
5F
102
{ACAD_REACTORS
330
16
102
}
330
16
100
AcDbVisualStyle
  2
Dim
 70
11
 90
2
 40
0.6
 62
7
290
0
291
1
  0
VISUALSTYLE
  5
60
102
{ACAD_REACTORS
330
16
102
}
330
16
100
AcDbVisualStyle
  2
EdgeColorOff
 70
22
 90
2
 40
0.6
 62
7
290
0
291
1
  0
VISUALSTYLE
  5
61
102
{ACAD_REACTORS
330
16
102
}
330
16
100
AcDbVisualStyle
  2
Facepattern
 70
15
 90
2
 40
0.6
 62
7
290
0
291
1
  0
VISUALSTYLE
  5
62
102
{ACAD_REACTORS
330
16
102
}
330
16
100
AcDbVisualStyle
  2
Flat
 70
0
 90
2
 40
0.6
 62
7
290
0
291
1
  0
VISUALSTYLE
  5
63
102
{ACAD_REACTORS
330
16
102
}
330
16
100
AcDbVisualStyle
  2
FlatWithEdges
 70
1
 90
2
 40
0.6
 62
7
290
0
291
1
  0
VISUALSTYLE
  5
64
102
{ACAD_REACTORS
330
16
102
}
330
16
100
AcDbVisualStyle
  2
Gouraud
 70
2
 90
2
 40
0.6
 62
7
290
0
291
1
  0
VISUALSTYLE
  5
65
102
{ACAD_REACTORS
330
16
102
}
330
16
100
AcDbVisualStyle
  2
GouraudWithEdges
 70
3
 90
2
 40
0.6
 62
7
290
0
291
1
  0
VISUALSTYLE
  5
66
102
{ACAD_REACTORS
330
16
102
}
330
16
100
AcDbVisualStyle
  2
Hidden
 70
6
 90
1
 40
0.6
 62
7
290
0
291
0
  0
VISUALSTYLE
  5
67
102
{ACAD_REACTORS
330
16
102
}
330
16
100
AcDbVisualStyle
  2
JitterOff
 70
20
 90
2
 40
0.6
 62
7
290
0
291
1
  0
VISUALSTYLE
  5
68
102
{ACAD_REACTORS
330
16
102
}
330
16
100
AcDbVisualStyle
  2
Linepattern
 70
14
 90
2
 40
0.6
 62
7
290
0
291
1
  0
VISUALSTYLE
  5
69
102
{ACAD_REACTORS
330
16
102
}
330
16
100
AcDbVisualStyle
  2
Modeling
 70
10
 90
2
 40
0.6
 62
7
290
0
291
0
  0
VISUALSTYLE
  5
6A
102
{ACAD_REACTORS
330
16
102
}
330
16
100
AcDbVisualStyle
  2
OverhangOff
 70
21
 90
2
 40
0.6
 62
7
290
0
291
1
  0
VISUALSTYLE
  5
6B
102
{ACAD_REACTORS
330
16
102
}
330
16
100
AcDbVisualStyle
  2
Realistic
 70
8
 90
2
 40
0.6
 62
7
290
0
291
0
  0
VISUALSTYLE
  5
6C
102
{ACAD_REACTORS
330
16
102
}
330
16
100
AcDbVisualStyle
  2
Shaded
 70
27
 90
2
 40
0.6
 62
7
290
0
291
0
  0
VISUALSTYLE
  5
6D
102
{ACAD_REACTORS
330
16
102
}
330
16
100
AcDbVisualStyle
  2
Shaded with edges
 70
26
 90
2
 40
0.6
 62
7
290
0
291
0
  0
VISUALSTYLE
  5
6E
102
{ACAD_REACTORS
330
16
102
}
330
16
100
AcDbVisualStyle
  2
Shades of Gray
 70
23
 90
2
 40
0.6
 62
7
290
0
291
0
  0
VISUALSTYLE
  5
6F
102
{ACAD_REACTORS
330
16
102
}
330
16
100
AcDbVisualStyle
  2
Sketchy
 70
24
 90
1
 40
0.6
 62
7
290
0
291
0
  0
VISUALSTYLE
  5
70
102
{ACAD_REACTORS
330
16
102
}
330
16
100
AcDbVisualStyle
  2
Thicken
 70
13
 90
2
 40
0.6
 62
7
290
0
291
1
  0
VISUALSTYLE
  5
71
102
{ACAD_REACTORS
330
16
102
}
330
16
100
AcDbVisualStyle
  2
Wireframe
 70
5
 90
0
 40
0.6
 62
7
290
0
291
0
  0
VISUALSTYLE
  5
72
102
{ACAD_REACTORS
330
16
102
}
330
16
100
AcDbVisualStyle
  2
X-Ray
 70
25
 90
2
 40
0.5
 62
7
290
0
291
0
  0
DICTIONARYVAR
  5
240
330
2D
100
DictionaryVariables
280
0
  1
1.4.2 @ 2026-09-23T13:48:59.717101+00:00
  0
ENDSEC
  0
EOF
