  0
SECTION
  2
HEADER
  9
$ACADVER
  1
AC1024
  9
$ACADMAINTVER
 70
6
  9
$DWGCODEPAGE
  3
ANSI_1252
  9
$LASTSAVEDBY
  1
ezdxf
  9
$INSBASE
 10
0.0
 20
0.0
 30
0.0
  9
$EXTMIN
 10
1e+20
 20
1e+20
 30
1e+20
  9
$EXTMAX
 10
-1e+20
 20
-1e+20
 30
-1e+20
  9
$LIMMIN
 10
0.0
 20
0.0
  9
$LIMMAX
 10
420.0
 20
297.0
  9
$ORTHOMODE
 70
0
  9
$REGENMODE
 70
1
  9
$FILLMODE
 70
1
  9
$QTEXTMODE
 70
0
  9
$MIRRTEXT
 70
1
  9
$LTSCALE
 40
1.0
  9
$ATTMODE
 70
1
  9
$TEXTSIZE
 40
2.5
  9
$TRACEWID
 40
1.0
  9
$TEXTSTYLE
  7
OpenSans
  9
$CLAYER
  8
0
  9
$CELTYPE
  6
ByLayer
  9
$CECOLOR
 62
256
  9
$CELTSCALE
 40
1.0
  9
$DISPSILH
 70
0
  9
$DIMSCALE
 40
1.0
  9
$DIMASZ
 40
0.175
  9
$DIMEXO
 40
0.125
  9
$DIMDLI
 40
3.75
  9
$DIMRND
 40
0.0
  9
$DIMDLE
 40
0.0
  9
$DIMEXE
 40
0.375
  9
$DIMTP
 40
0.0
  9
$DIMTM
 40
0.0
  9
$DIMTXT
 40
0.25
  9
$DIMCEN
 40
2.5
  9
$DIMTSZ
 40
0.0
  9
$DIMTOL
 70
0
  9
$DIMLIM
 70
0
  9
$DIMTIH
 70
0
  9
$DIMTOH
 70
0
  9
$DIMSE1
 70
0
  9
$DIMSE2
 70
0
  9
$DIMTAD
 70
1
  9
$DIMZIN
 70
12
  9
$DIMBLK
  1
ARCHTICK
  9
$DIMASO
 70
1
  9
$DIMSHO
 70
1
  9
$DIMPOST
  1

  9
$DIMAPOST
  1

  9
$DIMALT
 70
0
  9
$DIMALTD
 70
3
  9
$DIMALTF
 40
0.03937007874
  9
$DIMLFAC
 40
100.0
  9
$DIMTOFL
 70
1
  9
$DIMTVP
 40
0.0
  9
$DIMTIX
 70
0
  9
$DIMSOXD
 70
0
  9
$DIMSAH
 70
0
  9
$DIMBLK1
  1

  9
$DIMBLK2
  1

  9
$DIMSTYLE
  2
EZDXF
  9
$DIMCLRD
 70
0
  9
$DIMCLRE
 70
0
  9
$DIMCLRT
 70
0
  9
$DIMTFAC
 40
0.5
  9
$DIMGAP
 40
0.1
  9
$DIMJUST
 70
0
  9
$DIMSD1
 70
0
  9
$DIMSD2
 70
0
  9
$DIMTOLJ
 70
0
  9
$DIMTZIN
 70
8
  9
$DIMALTZ
 70
0
  9
$DIMALTTZ
 70
0
  9
$DIMUPT
 70
1
  9
$DIMDEC
 70
2
  9
$DIMTDEC
 70
2
  9
$DIMALTU
 70
2
  9
$DIMALTTD
 70
3
  9
$DIMTXSTY
  7
OpenSansCondensed-Light
  9
$DIMAUNIT
 70
0
  9
$DIMADEC
 70
2
  9
$DIMALTRND
 40
0.0
  9
$DIMAZIN
 70
3
  9
$DIMDSEP
 70
46
  9
$DIMATFIT
 70
3
  9
$DIMFRAC
 70
0
  9
$DIMLDRBLK
  1

  9
$DIMLUNIT
 70
2
  9
$DIMLWD
 70
-2
  9
$DIMLWE
 70
-2
  9
$DIMTMOVE
 70
2
  9
$DIMFXL
 40
1.0
  9
$DIMFXLON
 70
0
  9
$DIMJOGANG
 40
0.785398163397
  9
$DIMTFILL
 70
0
  9
$DIMTFILLCLR
 70
0
  9
$DIMARCSYM
 70
0
  9
$DIMLTYPE
  6

  9
$DIMLTEX1
  6

  9
$DIMLTEX2
  6

  9
$DIMTXTDIRECTION
 70
0
  9
$LUNITS
 70
4
  9
$LUPREC
 70
4
  9
$SKETCHINC
 40
1.0
  9
$FILLETRAD
 40
10.0
  9
$AUNITS
 70
0
  9
$AUPREC
 70
3
  9
$MENU
  1
.
  9
$ELEVATION
 40
0.0
  9
$PELEVATION
 40
0.0
  9
$THICKNESS
 40
0.0
  9
$LIMCHECK
 70
0
  9
$CHAMFERA
 40
0.0
  9
$CHAMFERB
 40
0.0
  9
$CHAMFERC
 40
0.0
  9
$CHAMFERD
 40
0.0
  9
$SKPOLY
 70
0
  9
$TDCREATE
 40
2461307.78755787
  9
$TDUCREATE
 40
2458532.153996898
  9
$TDUPDATE
 40
2461307.78755787
  9
$TDUUPDATE
 40
2458532.1544311
  9
$TDINDWG
 40
0.0
  9
$TDUSRTIMER
 40
0.0
  9
$USRTIMER
 70
1
  9
$ANGBASE
 50
0.0
  9
$ANGDIR
 70
0
  9
$PDMODE
 70
0
  9
$PDSIZE
 40
0.0
  9
$PLINEWID
 40
0.0
  9
$SPLFRAME
 70
0
  9
$SPLINETYPE
 70
6
  9
$SPLINESEGS
 70
8
  9
$HANDSEED
  5
115
  9
$SURFTAB1
 70
6
  9
$SURFTAB2
 70
6
  9
$SURFTYPE
 70
6
  9
$SURFU
 70
6
  9
$SURFV
 70
6
  9
$UCSBASE
  2

  9
$UCSNAME
  2

  9
$UCSORG
 10
0.0
 20
0.0
 30
0.0
  9
$UCSXDIR
 10
1.0
 20
0.0
 30
0.0
  9
$UCSYDIR
 10
0.0
 20
1.0
 30
0.0
  9
$UCSORTHOREF
  2

  9
$UCSORTHOVIEW
 70
0
  9
$UCSORGTOP
 10
0.0
 20
0.0
 30
0.0
  9
$UCSORGBOTTOM
 10
0.0
 20
0.0
 30
0.0
  9
$UCSORGLEFT
 10
0.0
 20
0.0
 30
0.0
  9
$UCSORGRIGHT
 10
0.0
 20
0.0
 30
0.0
  9
$UCSORGFRONT
 10
0.0
 20
0.0
 30
0.0
  9
$UCSORGBACK
 10
0.0
 20
0.0
 30
0.0
  9
$PUCSBASE
  2

  9
$PUCSNAME
  2

  9
$PUCSORG
 10
0.0
 20
0.0
 30
0.0
  9
$PUCSXDIR
 10
1.0
 20
0.0
 30
0.0
  9
$PUCSYDIR
 10
0.0
 20
1.0
 30
0.0
  9
$PUCSORTHOREF
  2

  9
$PUCSORTHOVIEW
 70
0
  9
$PUCSORGTOP
 10
0.0
 20
0.0
 30
0.0
  9
$PUCSORGBOTTOM
 10
0.0
 20
0.0
 30
0.0
  9
$PUCSORGLEFT
 10
0.0
 20
0.0
 30
0.0
  9
$PUCSORGRIGHT
 10
0.0
 20
0.0
 30
0.0
  9
$PUCSORGFRONT
 10
0.0
 20
0.0
 30
0.0
  9
$PUCSORGBACK
 10
0.0
 20
0.0
 30
0.0
  9
$USERI1
 70
0
  9
$USERI2
 70
0
  9
$USERI3
 70
0
  9
$USERI4
 70
0
  9
$USERI5
 70
0
  9
$USERR1
 40
0.0
  9
$USERR2
 40
0.0
  9
$USERR3
 40
0.0
  9
$USERR4
 40
0.0
  9
$USERR5
 40
0.0
  9
$WORLDVIEW
 70
1
  9
$SHADEDGE
 70
3
  9
$SHADEDIF
 70
70
  9
$TILEMODE
 70
1
  9
$MAXACTVP
 70
64
  9
$PINSBASE
 10
0.0
 20
0.0
 30
0.0
  9
$PLIMCHECK
 70
0
  9
$PEXTMIN
 10
1e+20
 20
1e+20
 30
1e+20
  9
$PEXTMAX
 10
-1e+20
 20
-1e+20
 30
-1e+20
  9
$PLIMMIN
 10
0.0
 20
0.0
  9
$PLIMMAX
 10
420.0
 20
297.0
  9
$UNITMODE
 70
0
  9
$VISRETAIN
 70
1
  9
$PLINEGEN
 70
0
  9
$PSLTSCALE
 70
1
  9
$TREEDEPTH
 70
3020
  9
$CMLSTYLE
  2
Standard
  9
$CMLJUST
 70
0
  9
$CMLSCALE
 40
20.0
  9
$PROXYGRAPHICS
 70
1
  9
$MEASUREMENT
 70
0
  9
$CELWEIGHT
370
-1
  9
$ENDCAPS
280
0
  9
$JOINSTYLE
280
0
  9
$LWDISPLAY
290
0
  9
$INSUNITS
 70
1
  9
$HYPERLINKBASE
  1

  9
$STYLESHEET
  1

  9
$XEDIT
290
1
  9
$CEPSNTYPE
380
0
  9
$PSTYLEMODE
290
1
  9
$FINGERPRINTGUID
  2
{302839E7-CBA2-4F56-806B-58C9F611E9AA}
  9
$VERSIONGUID
  2
{B6210567-6971-4EF8-97E3-6B6F7B1A74BE}
  9
$EXTNAMES
290
1
  9
$PSVPSCALE
 40
0.0
  9
$OLESTARTUP
290
0
  9
$SORTENTS
280
127
  9
$INDEXCTL
280
0
  9
$HIDETEXT
280
1
  9
$XCLIPFRAME
280
1
  9
$HALOGAP
280
0
  9
$OBSCOLOR
 70
257
  9
$OBSLTYPE
280
0
  9
$INTERSECTIONDISPLAY
280
0
  9
$INTERSECTIONCOLOR
 70
257
  9
$DIMASSOC
280
2
  9
$PROJECTNAME
  1

  9
$CAMERADISPLAY
290
0
  9
$LENSLENGTH
 40
50.0
  9
$CAMERAHEIGHT
 40
0.0
  9
$STEPSPERSEC
 40
24.0
  9
$STEPSIZE
 40
100.0
  9
$3DDWFPREC
 40
2.0
  9
$PSOLWIDTH
 40
0.005
  9
$PSOLHEIGHT
 40
0.08
  9
$LOFTANG1
 40
1.570796326795
  9
$LOFTANG2
 40
1.570796326795
  9
$LOFTMAG1
 40
0.0
  9
$LOFTMAG2
 40
0.0
  9
$LOFTPARAM
 70
7
  9
$LOFTNORMALS
280
1
  9
$LATITUDE
 40
37.795
  9
$LONGITUDE
 40
-122.394
  9
$NORTHDIRECTION
 40
0.0
  9
$TIMEZONE
 70
-8000
  9
$LIGHTGLYPHDISPLAY
280
1
  9
$TILEMODELIGHTSYNCH
280
1
  9
$CMATERIAL
347
20
  9
$SOLIDHIST
280
0
  9
$SHOWHIST
280
1
  9
$DWFFRAME
280
2
  9
$DGNFRAME
280
2
  9
$REALWORLDSCALE
290
1
  9
$INTERFERECOLOR
 62
256
  9
$CSHADOW
280
0
  9
$SHADOWPLANELOCATION
 40
0.0
  0
ENDSEC
  0
SECTION
  2
CLASSES
  0
CLASS
  1
ACDBDICTIONARYWDFLT
  2
AcDbDictionaryWithDefault
  3
ObjectDBX Classes
 90
0
 91
0
280
0
281
0
  0
CLASS
  1
SUN
  2
AcDbSun
  3
SCENEOE
 90
1153
 91
0
280
0
281
0
  0
CLASS
  1
VISUALSTYLE
  2
AcDbVisualStyle
  3
ObjectDBX Classes
 90
4095
 91
0
280
0
281
0
  0
CLASS
  1
MATERIAL
  2
AcDbMaterial
  3
ObjectDBX Classes
 90
1153
 91
0
280
0
281
0
  0
CLASS
  1
SCALE
  2
AcDbScale
  3
ObjectDBX Classes
 90
1153
 91
0
280
0
281
0
  0
CLASS
  1
TABLESTYLE
  2
AcDbTableStyle
  3
ObjectDBX Classes
 90
4095
 91
0
280
0
281
0
  0
CLASS
  1
MLEADERSTYLE
  2
AcDbMLeaderStyle
  3
ACDB_MLEADERSTYLE_CLASS
 90
4095
 91
0
280
0
281
0
  0
CLASS
  1
DICTIONARYVAR
  2
AcDbDictionaryVar
  3
ObjectDBX Classes
 90
0
 91
0
280
0
281
0
  0
CLASS
  1
CELLSTYLEMAP
  2
AcDbCellStyleMap
  3
ObjectDBX Classes
 90
1152
 91
0
280
0
281
0
  0
CLASS
  1
MENTALRAYRENDERSETTINGS
  2
AcDbMentalRayRenderSettings
  3
SCENEOE
 90
1024
 91
0
280
0
281
0
  0
CLASS
  1
ACDBDETAILVIEWSTYLE
  2
AcDbDetailViewStyle
  3
ObjectDBX Classes
 90
1025
 91
0
280
0
281
0
  0
CLASS
  1
ACDBSECTIONVIEWSTYLE
  2
AcDbSectionViewStyle
  3
ObjectDBX Classes
 90
1025
 91
0
280
0
281
0
  0
CLASS
  1
RASTERVARIABLES
  2
AcDbRasterVariables
  3
ISM
 90
0
 91
0
280
0
281
0
  0
CLASS
  1
ACDBPLACEHOLDER
  2
AcDbPlaceHolder
  3
ObjectDBX Classes
 90
0
 91
0
280
0
281
0
  0
CLASS
  1
LAYOUT
  2
AcDbLayout
  3
ObjectDBX Classes
 90
0
 91
0
280
0
281
0
  0
ENDSEC
  0
SECTION
  2
TABLES
  0
TABLE
  2
VPORT
  5
8
330
0
100
AcDbSymbolTable
 70
1
  0
VPORT
  5
23
330
8
100
AcDbSymbolTableRecord
100
AcDbViewportTableRecord
  2
*Active
 70
0
 10
0.0
 20
0.0
 11
1.0
 21
1.0
 12
0.0
 22
0.0
 13
0.0
 23
0.0
 14
0.5
 24
0.5
 15
0.5
 25
0.5
 16
0.0
 26
0.0
 36
1.0
 17
0.0
 27
0.0
 37
0.0
 40
1000.0
 41
1.34
 42
50.0
 43
0.0
 44
0.0
 50
0.0
 51
0.0
 71
0
 72
1000
 73
1
 74
3
 75
0
 76
0
 77
0
 78
0
281
0
 65
0
146
0.0
  0
ENDTAB
  0
TABLE
  2
LTYPE
  5
2
330
0
100
AcDbSymbolTable
 70
21
  0
LTYPE
  5
24
330
2
100
AcDbSymbolTableRecord
100
AcDbLinetypeTableRecord
  2
ByBlock
 70
0
  3

 72
65
 73
0
 40
0.0
  0
LTYPE
  5
25
330
2
100
AcDbSymbolTableRecord
100
AcDbLinetypeTableRecord
  2
ByLayer
 70
0
  3

 72
65
 73
0
 40
0.0
  0
LTYPE
  5
26
330
2
100
AcDbSymbolTableRecord
100
AcDbLinetypeTableRecord
  2
Continuous
 70
0
  3

 72
65
 73
0
 40
0.0
  0
LTYPE
  5
2F
330
2
100
AcDbSymbolTableRecord
100
AcDbLinetypeTableRecord
  2
CENTER
 70
0
  3
Center ____ _ ____ _ ____ _ ____ _ ____ _ ____
 72
65
 73
4
 40
2.0
 49
1.25
 74
0
 49
-0.25
 74
0
 49
0.25
 74
0
 49
-0.25
 74
0
  0
LTYPE
  5
30
330
2
100
AcDbSymbolTableRecord
100
AcDbLinetypeTableRecord
  2
CENTERX2
 70
0
  3
Center (2x) ________  __  ________  __  ________
 72
65
 73
4
 40
3.5
 49
2.5
 74
0
 49
-0.25
 74
0
 49
0.5
 74
0
 49
-0.25
 74
0
  0
LTYPE
  5
31
330
2
100
AcDbSymbolTableRecord
100
AcDbLinetypeTableRecord
  2
CENTER2
 70
0
  3
Center (.5x) ____ _ ____ _ ____ _ ____ _ ____
 72
65
 73
4
 40
1.0
 49
0.625
 74
0
 49
-0.125
 74
0
 49
0.125
 74
0
 49
-0.125
 74
0
  0
LTYPE
  5
32
330
2
100
AcDbSymbolTableRecord
100
AcDbLinetypeTableRecord
  2
DASHED
 70
0
  3
Dashed __ __ __ __ __ __ __ __ __ __ __ __ __ _
 72
65
 73
2
 40
0.6
 49
0.5
 74
0
 49
-0.1
 74
0
  0
LTYPE
  5
33
330
2
100
AcDbSymbolTableRecord
100
AcDbLinetypeTableRecord
  2
DASHEDX2
 70
0
  3
Dashed (2x) ____  ____  ____  ____  ____  ____
 72
65
 73
2
 40
1.2
 49
1.0
 74
0
 49
-0.2
 74
0
  0
LTYPE
  5
34
330
2
100
AcDbSymbolTableRecord
100
AcDbLinetypeTableRecord
  2
DASHED2
 70
0
  3
Dashed (.5x) _ _ _ _ _ _ _ _ _ _ _ _ _ _
 72
65
 73
2
 40
0.3
 49
0.25
 74
0
 49
-0.05
 74
0
  0
LTYPE
  5
35
330
2
100
AcDbSymbolTableRecord
100
AcDbLinetypeTableRecord
  2
PHANTOM
 70
0
  3
Phantom ______  __  __  ______  __  __  ______
 72
65
 73
6
 40
2.5
 49
1.25
 74
0
 49
-0.25
 74
0
 49
0.25
 74
0
 49
-0.25
 74
0
 49
0.25
 74
0
 49
-0.25
 74
0
  0
LTYPE
  5
36
330
2
100
AcDbSymbolTableRecord
100
AcDbLinetypeTableRecord
  2
PHANTOMX2
 70
0
  3
Phantom (2x)____________    ____    ____    ____________
 72
65
 73
6
 40
4.25
 49
2.5
 74
0
 49
-0.25
 74
0
 49
0.5
 74
0
 49
-0.25
 74
0
 49
0.5
 74
0
 49
-0.25
 74
0
  0
LTYPE
  5
37
330
2
100
AcDbSymbolTableRecord
100
AcDbLinetypeTableRecord
  2
PHANTOM2
 70
0
  3
Phantom (.5x) ___ _ _ ___ _ _ ___ _ _ ___ _ _ ___
 72
65
 73
6
 40
1.25
 49
0.625
 74
0
 49
-0.125
 74
0
 49
0.125
 74
0
 49
-0.125
 74
0
 49
0.125
 74
0
 49
-0.125
 74
0
  0
LTYPE
  5
38
330
2
100
AcDbSymbolTableRecord
100
AcDbLinetypeTableRecord
  2
DASHDOT
 70
0
  3
Dash dot __ . __ . __ . __ . __ . __ . __ . __
 72
65
 73
4
 40
1.4
 49
1.0
 74
0
 49
-0.2
 74
0
 49
0.0
 74
0
 49
-0.2
 74
0
  0
LTYPE
  5
39
330
2
100
AcDbSymbolTableRecord
100
AcDbLinetypeTableRecord
  2
DASHDOTX2
 70
0
  3
Dash dot (2x) ____  .  ____  .  ____  .  ____
 72
65
 73
4
 40
2.4
 49
2.0
 74
0
 49
-0.2
 74
0
 49
0.0
 74
0
 49
-0.2
 74
0
  0
LTYPE
  5
3A
330
2
100
AcDbSymbolTableRecord
100
AcDbLinetypeTableRecord
  2
DASHDOT2
 70
0
  3
Dash dot (.5x) _ . _ . _ . _ . _ . _ . _ . _
 72
65
 73
4
 40
0.7
 49
0.5
 74
0
 49
-0.1
 74
0
 49
0.0
 74
0
 49
-0.1
 74
0
  0
LTYPE
  5
3B
330
2
100
AcDbSymbolTableRecord
100
AcDbLinetypeTableRecord
  2
DOT
 70
0
  3
Dot .  .  .  .  .  .  .  .  .  .  .  .  .  .  .  .
 72
65
 73
2
 40
0.2
 49
0.0
 74
0
 49
-0.2
 74
0
  0
LTYPE
  5
3C
330
2
100
AcDbSymbolTableRecord
100
AcDbLinetypeTableRecord
  2
DOTX2
 70
0
  3
Dot (2x) .    .    .    .    .    .    .    . 
 72
65
 73
2
 40
0.4
 49
0.0
 74
0
 49
-0.4
 74
0
  0
LTYPE
  5
3D
330
2
100
AcDbSymbolTableRecord
100
AcDbLinetypeTableRecord
  2
DOT2
 70
0
  3
Dot (.5) . . . . . . . . . . . . . . . . . . . 
 72
65
 73
2
 40
0.1
 49
0.0
 74
0
 49
-0.1
 74
0
  0
LTYPE
  5
3E
330
2
100
AcDbSymbolTableRecord
100
AcDbLinetypeTableRecord
  2
DIVIDE
 70
0
  3
Divide __ . . __ . . __ . . __ . . __ . . __
 72
65
 73
6
 40
1.6
 49
1.0
 74
0
 49
-0.2
 74
0
 49
0.0
 74
0
 49
-0.2
 74
0
 49
0.0
 74
0
 49
-0.2
 74
0
  0
LTYPE
  5
3F
330
2
100
AcDbSymbolTableRecord
100
AcDbLinetypeTableRecord
  2
DIVIDEX2
 70
0
  3
Divide (2x) ____  . .  ____  . .  ____  . .  ____
 72
65
 73
6
 40
2.6
 49
2.0
 74
0
 49
-0.2
 74
0
 49
0.0
 74
0
 49
-0.2
 74
0
 49
0.0
 74
0
 49
-0.2
 74
0
  0
LTYPE
  5
40
330
2
100
AcDbSymbolTableRecord
100
AcDbLinetypeTableRecord
  2
DIVIDE2
 70
0
  3
Divide(.5x) _ . _ . _ . _ . _ . _ . _ . _
 72
65
 73
6
 40
0.8
 49
0.5
 74
0
 49
-0.1
 74
0
 49
0.0
 74
0
 49
-0.1
 74
0
 49
0.0
 74
0
 49
-0.1
 74
0
  0
ENDTAB
  0
TABLE
  2
LAYER
  5
1
330
0
100
AcDbSymbolTable
 70
12
  0
LAYER
  5
27
330
1
100
AcDbSymbolTableRecord
100
AcDbLayerTableRecord
  2
0
 70
0
 62
7
  6
Continuous
370
-3
390
13
347
21
  0
LAYER
  5
28
330
1
100
AcDbSymbolTableRecord
100
AcDbLayerTableRecord
  2
Defpoints
 70
0
 62
7
  6
Continuous
290
0
370
-3
390
13
347
21
  0
LAYER
  5
8A
330
1
100
AcDbSymbolTableRecord
100
AcDbLayerTableRecord
  2
Vanity front
 70
0
 62
7
  6
Continuous
370
-3
390
13
347
21
  0
LAYER
  5
8B
330
1
100
AcDbSymbolTableRecord
100
AcDbLayerTableRecord
  2
Vanity front hatch
 70
0
 62
8
  6
Continuous
370
-3
390
13
347
21
  0
LAYER
  5
AA
330
1
100
AcDbSymbolTableRecord
100
AcDbLayerTableRecord
  2
Vanity section
 70
0
 62
7
  6
Continuous
370
-3
390
13
347
21
  0
LAYER
  5
AB
330
1
100
AcDbSymbolTableRecord
100
AcDbLayerTableRecord
  2
Vanity section hatch
 70
0
 62
8
  6
Continuous
370
-3
390
13
347
21
  0
LAYER
  5
EF
330
1
100
AcDbSymbolTableRecord
100
AcDbLayerTableRecord
  2
Vanity plan
 70
0
 62
7
  6
Continuous
370
-3
390
13
347
21
  0
LAYER
  5
F0
330
1
100
AcDbSymbolTableRecord
100
AcDbLayerTableRecord
  2
Vanity plan hatch
 70
0
 62
8
  6
Continuous
370
-3
390
13
347
21
  0
LAYER
  5
FD
330
1
100
AcDbSymbolTableRecord
100
AcDbLayerTableRecord
  2
Vanity drawer
 70
0
 62
7
  6
Continuous
370
-3
390
13
347
21
  0
LAYER
  5
FE
330
1
100
AcDbSymbolTableRecord
100
AcDbLayerTableRecord
  2
Vanity drawer hatch
 70
0
 62
8
  6
Continuous
370
-3
390
13
347
21
  0
LAYER
  5
107
330
1
100
AcDbSymbolTableRecord
100
AcDbLayerTableRecord
  2
Vanity edge
 70
0
 62
7
  6
Continuous
370
-3
390
13
347
21
  0
LAYER
  5
108
330
1
100
AcDbSymbolTableRecord
100
AcDbLayerTableRecord
  2
Vanity edge hatch
 70
0
 62
8
  6
Continuous
370
-3
390
13
347
21
  0
ENDTAB
  0
TABLE
  2
STYLE
  5
5
330
0
100
AcDbSymbolTable
 70
26
  0
STYLE
  5
29
330
5
100
AcDbSymbolTableRecord
100
AcDbTextStyleTableRecord
  2
Standard
 70
0
 40
0.0
 41
1.0
 50
0.0
 71
0
 42
2.5
  3
txt
  4

  0
STYLE
  5
41
330
5
100
AcDbSymbolTableRecord
100
AcDbTextStyleTableRecord
  2
OpenSans-Light
 70
0
 40
0.0
 41
1.0
 50
0.0
 71
0
 42
2.5
  3
OpenSans-Light.ttf
  4

  0
STYLE
  5
42
330
5
100
AcDbSymbolTableRecord
100
AcDbTextStyleTableRecord
  2
OpenSans-Light-Italic
 70
0
 40
0.0
 41
1.0
 50
0.0
 71
0
 42
2.5
  3
OpenSans-LightItalic.ttf
  4

  0
STYLE
  5
43
330
5
100
AcDbSymbolTableRecord
100
AcDbTextStyleTableRecord
  2
OpenSans
 70
0
 40
0.0
 41
1.0
 50
0.0
 71
0
 42
2.5
  3
OpenSans-Regular.ttf
  4

  0
STYLE
  5
44
330
5
100
AcDbSymbolTableRecord
100
AcDbTextStyleTableRecord
  2
OpenSans-Italic
 70
0
 40
0.0
 41
1.0
 50
0.0
 71
0
 42
2.5
  3
OpenSans-Italic.ttf
  4

  0
STYLE
  5
45
330
5
100
AcDbSymbolTableRecord
100
AcDbTextStyleTableRecord
  2
OpenSans-SemiBold
 70
0
 40
0.0
 41
1.0
 50
0.0
 71
0
 42
2.5
  3
OpenSans-SemiBold.ttf
  4

  0
STYLE
  5
46
330
5
100
AcDbSymbolTableRecord
100
AcDbTextStyleTableRecord
  2
OpenSans-SemiBoldItalic
 70
0
 40
0.0
 41
1.0
 50
0.0
 71
0
 42
2.5
  3
OpenSans-SemiBoldItalic.ttf
  4

  0
STYLE
  5
47
330
5
100
AcDbSymbolTableRecord
100
AcDbTextStyleTableRecord
  2
OpenSans-Bold
 70
0
 40
0.0
 41
1.0
 50
0.0
 71
0
 42
2.5
  3
OpenSans-Bold.ttf
  4

  0
STYLE
  5
48
330
5
100
AcDbSymbolTableRecord
100
AcDbTextStyleTableRecord
  2
OpenSans-BoldItalic
 70
0
 40
0.0
 41
1.0
 50
0.0
 71
0
 42
2.5
  3
OpenSans-BoldItalic.ttf
  4

  0
STYLE
  5
49
330
5
100
AcDbSymbolTableRecord
100
AcDbTextStyleTableRecord
  2
OpenSans-ExtraBold
 70
0
 40
0.0
 41
1.0
 50
0.0
 71
0
 42
2.5
  3
OpenSans-ExtraBold.ttf
  4

  0
STYLE
  5
4A
330
5
100
AcDbSymbolTableRecord
100
AcDbTextStyleTableRecord
  2
OpenSans-ExtraBoldItalic
 70
0
 40
0.0
 41
1.0
 50
0.0
 71
0
 42
2.5
  3
OpenSans-ExtraBoldItalic.ttf
  4

  0
STYLE
  5
4B
330
5
100
AcDbSymbolTableRecord
100
AcDbTextStyleTableRecord
  2
OpenSansCondensed-Bold
 70
0
 40
0.0
 41
1.0
 50
0.0
 71
0
 42
2.5
  3
OpenSansCondensed-Bold.ttf
  4

  0
STYLE
  5
4C
330
5
100
AcDbSymbolTableRecord
100
AcDbTextStyleTableRecord
  2
OpenSansCondensed-Light
 70
0
 40
0.0
 41
1.0
 50
0.0
 71
0
 42
2.5
  3
OpenSansCondensed-Light.ttf
  4

  0
STYLE
  5
4D
330
5
100
AcDbSymbolTableRecord
100
AcDbTextStyleTableRecord
  2
OpenSansCondensed-Italic
 70
0
 40
0.0
 41
1.0
 50
0.0
 71
0
 42
2.5
  3
OpenSansCondensed-LightItalic.ttf
  4

  0
STYLE
  5
4E
330
5
100
AcDbSymbolTableRecord
100
AcDbTextStyleTableRecord
  2
LiberationSans
 70
0
 40
0.0
 41
1.0
 50
0.0
 71
0
 42
2.5
  3
LiberationSans-Regular.ttf
  4

  0
STYLE
  5
4F
330
5
100
AcDbSymbolTableRecord
100
AcDbTextStyleTableRecord
  2
LiberationSans-Bold
 70
0
 40
0.0
 41
1.0
 50
0.0
 71
0
 42
2.5
  3
LiberationSans-Bold.ttf
  4

  0
STYLE
  5
50
330
5
100
AcDbSymbolTableRecord
100
AcDbTextStyleTableRecord
  2
LiberationSans-BoldItalic
 70
0
 40
0.0
 41
1.0
 50
0.0
 71
0
 42
2.5
  3
LiberationSans-BoldItalic.ttf
  4

  0
STYLE
  5
51
330
5
100
AcDbSymbolTableRecord
100
AcDbTextStyleTableRecord
  2
LiberationSans-Italic
 70
0
 40
0.0
 41
1.0
 50
0.0
 71
0
 42
2.5
  3
LiberationSans-Italic.ttf
  4

  0
STYLE
  5
52
330
5
100
AcDbSymbolTableRecord
100
AcDbTextStyleTableRecord
  2
LiberationSerif
 70
0
 40
0.0
 41
1.0
 50
0.0
 71
0
 42
2.5
  3
LiberationSerif-Regular.ttf
  4

  0
STYLE
  5
53
330
5
100
AcDbSymbolTableRecord
100
AcDbTextStyleTableRecord
  2
LiberationSerif-Bold
 70
0
 40
0.0
 41
1.0
 50
0.0
 71
0
 42
2.5
  3
LiberationSerif-Bold.ttf
  4

  0
STYLE
  5
54
330
5
100
AcDbSymbolTableRecord
100
AcDbTextStyleTableRecord
  2
LiberationSerif-BoldItalic
 70
0
 40
0.0
 41
1.0
 50
0.0
 71
0
 42
2.5
  3
LiberationSerif-BoldItalic.ttf
  4

  0
STYLE
  5
55
330
5
100
AcDbSymbolTableRecord
100
AcDbTextStyleTableRecord
  2
LiberationSerif-Italic
 70
0
 40
0.0
 41
1.0
 50
0.0
 71
0
 42
2.5
  3
LiberationSerif-Italic.ttf
  4

  0
STYLE
  5
56
330
5
100
AcDbSymbolTableRecord
100
AcDbTextStyleTableRecord
  2
LiberationMono
 70
0
 40
0.0
 41
1.0
 50
0.0
 71
0
 42
2.5
  3
LiberationMono-Regular.ttf
  4

  0
STYLE
  5
57
330
5
100
AcDbSymbolTableRecord
100
AcDbTextStyleTableRecord
  2
LiberationMono-Bold
 70
0
 40
0.0
 41
1.0
 50
0.0
 71
0
 42
2.5
  3
LiberationMono-Bold.ttf
  4

  0
STYLE
  5
58
330
5
100
AcDbSymbolTableRecord
100
AcDbTextStyleTableRecord
  2
LiberationMono-BoldItalic
 70
0
 40
0.0
 41
1.0
 50
0.0
 71
0
 42
2.5
  3
LiberationMono-BoldItalic.ttf
  4

  0
STYLE
  5
59
330
5
100
AcDbSymbolTableRecord
100
AcDbTextStyleTableRecord
  2
LiberationMono-Italic
 70
0
 40
0.0
 41
1.0
 50
0.0
 71
0
 42
2.5
  3
LiberationMono-Italic.ttf
  4

  0
ENDTAB
  0
TABLE
  2
VIEW
  5
7
330
0
100
AcDbSymbolTable
 70
0
  0
ENDTAB
  0
TABLE
  2
UCS
  5
6
330
0
100
AcDbSymbolTable
 70
0
  0
ENDTAB
  0
TABLE
  2
APPID
  5
3
330
0
100
AcDbSymbolTable
 70
3
  0
APPID
  5
2A
330
3
100
AcDbSymbolTableRecord
100
AcDbRegAppTableRecord
  2
ACAD
 70
0
  0
APPID
  5
112
330
3
100
AcDbSymbolTableRecord
100
AcDbRegAppTableRecord
  2
HATCHBACKGROUNDCOLOR
 70
0
  0
APPID
  5
113
330
3
100
AcDbSymbolTableRecord
100
AcDbRegAppTableRecord
  2
EZDXF
 70
0
  0
ENDTAB
  0
TABLE
  2
DIMSTYLE
  5
4
330
0
100
AcDbSymbolTable
 70
12
100
AcDbDimStyleTable
  0
DIMSTYLE
105
2B
330
4
100
AcDbSymbolTableRecord
100
AcDbDimStyleTableRecord
  2
Standard
 70
0
 40
1.0
 41
2.5
 42
0.625
 43
3.75
 44
1.25
 45
0.0
 46
0.0
 47
0.0
 48
0.0
 49
2.5
140
2.5
141
2.5
142
0.0
143
0.03937007874
144
1.0
145
0.0
146
1.0
147
0.625
148
0.0
 69
0
 70
0
 71
0
 72
0
 73
0
 74
0
 75
0
 76
0
 77
1
 78
8
 79
3
170
0
171
3
172
1
173
0
174
0
175
0
176
0
177
0
178
0
179
2
271
2
272
2
273
2
274
3
275
0
276
0
277
2
278
44
279
0
280
0
281
0
282
0
283
0
284
8
285
0
286
0
288
0
289
3
290
0
371
-2
372
-2
  0
DIMSTYLE
105
73
330
4
100
AcDbSymbolTableRecord
100
AcDbDimStyleTableRecord
  2
EZDXF
 70
0
 40
1.0
 41
0.175
 42
0.125
 43
3.75
 44
0.375
 45
0.0
 46
0.0
 47
0.0
 48
0.0
 49
2.5
140
0.25
141
2.5
142
0.0
143
0.03937007874
144
100.0
145
0.0
146
0.5
147
0.1
148
0.0
 69
0
 70
0
 71
0
 72
0
 73
0
 74
0
 75
0
 76
0
 77
1
 78
12
 79
3
170
0
171
3
172
1
173
0
174
0
175
0
176
0
177
0
178
0
179
2
271
2
272
2
273
2
274
3
275
0
276
0
277
2
278
46
279
2
280
0
281
0
282
0
283
0
284
8
285
0
286
0
288
1
289
3
290
0
340
4C
342
74
371
-2
372
-2
  0
DIMSTYLE
105
7C
330
4
100
AcDbSymbolTableRecord
100
AcDbDimStyleTableRecord
  2
EZ_M_100_H25_CM
 70
0
 40
1.0
 41
0.25
 42
0.125
 43
3.75
 44
0.375
 45
0.0
 46
0.0
 47
0.0
 48
0.0
 49
2.5
140
0.25
141
2.5
142
0.125
143
0.03937007874
144
100.0
145
0.0
146
0.5
147
0.1
148
0.0
 69
0
 70
0
 71
0
 72
0
 73
0
 74
0
 75
0
 76
0
 77
1
 78
12
 79
3
170
0
171
3
172
1
173
0
174
0
175
0
176
0
177
0
178
0
179
2
271
2
272
2
273
2
274
3
275
0
276
0
277
2
278
46
279
2
280
0
281
0
282
0
283
0
284
8
285
0
286
0
288
1
289
3
290
0
340
4C
371
-2
372
-2
  0
DIMSTYLE
105
7D
330
4
100
AcDbSymbolTableRecord
100
AcDbDimStyleTableRecord
  2
EZ_M_50_H25_CM
 70
0
 40
1.0
 41
0.125
 42
0.0625
 43
3.75
 44
0.1875
 45
0.0
 46
0.0
 47
0.0
 48
0.0
 49
2.5
140
0.125
141
2.5
142
0.0625
143
0.03937007874
144
100.0
145
0.0
146
0.5
147
0.05
148
0.0
 69
0
 70
0
 71
0
 72
0
 73
0
 74
0
 75
0
 76
0
 77
1
 78
12
 79
3
170
0
171
3
172
1
173
0
174
0
175
0
176
0
177
0
178
0
179
2
271
2
272
2
273
2
274
3
275
0
276
0
277
2
278
46
279
2
280
0
281
0
282
0
283
0
284
8
285
0
286
0
288
1
289
3
290
0
340
4C
371
-2
372
-2
  0
DIMSTYLE
105
7E
330
4
100
AcDbSymbolTableRecord
100
AcDbDimStyleTableRecord
  2
EZ_M_25_H25_CM
 70
0
 40
1.0
 41
0.0625
 42
0.03125
 43
3.75
 44
0.09375
 45
0.0
 46
0.0
 47
0.0
 48
0.0
 49
2.5
140
0.0625
141
2.5
142
0.03125
143
0.03937007874
144
100.0
145
0.0
146
0.5
147
0.025
148
0.0
 69
0
 70
0
 71
0
 72
0
 73
0
 74
0
 75
0
 76
0
 77
1
 78
12
 79
3
170
0
171
3
172
1
173
0
174
0
175
0
176
0
177
0
178
0
179
2
271
2
272
2
273
2
274
3
275
0
276
0
277
2
278
46
279
2
280
0
281
0
282
0
283
0
284
8
285
0
286
0
288
1
289
3
290
0
340
4C
371
-2
372
-2
  0
DIMSTYLE
105
7F
330
4
100
AcDbSymbolTableRecord
100
AcDbDimStyleTableRecord
  2
EZ_M_20_H25_CM
 70
0
 40
1.0
 41
0.05
 42
0.025
 43
3.75
 44
0.07500000000000001
 45
0.0
 46
0.0
 47
0.0
 48
0.0
 49
2.5
140
0.05
141
2.5
142
0.025
143
0.03937007874
144
100.0
145
0.0
146
0.5
147
0.020000000000000004
148
0.0
 69
0
 70
0
 71
0
 72
0
 73
0
 74
0
 75
0
 76
0
 77
1
 78
12
 79
3
170
0
171
3
172
1
173
0
174
0
175
0
176
0
177
0
178
0
179
2
271
2
272
2
273
2
274
3
275
0
276
0
277
2
278
46
279
2
280
0
281
0
282
0
283
0
284
8
285
0
286
0
288
1
289
3
290
0
340
4C
371
-2
372
-2
  0
DIMSTYLE
105
80
330
4
100
AcDbSymbolTableRecord
100
AcDbDimStyleTableRecord
  2
EZ_M_10_H25_CM
 70
0
 40
1.0
 41
0.025
 42
0.0125
 43
3.75
 44
0.037500000000000006
 45
0.0
 46
0.0
 47
0.0
 48
0.0
 49
2.5
140
0.025
141
2.5
142
0.0125
143
0.03937007874
144
100.0
145
0.0
146
0.5
147
0.010000000000000002
148
0.0
 69
0
 70
0
 71
0
 72
0
 73
0
 74
0
 75
0
 76
0
 77
1
 78
12
 79
3
170
0
171
3
172
1
173
0
174
0
175
0
176
0
177
0
178
0
179
2
271
2
272
2
273
2
274
3
275
0
276
0
277
2
278
46
279
2
280
0
281
0
282
0
283
0
284
8
285
0
286
0
288
1
289
3
290
0
340
4C
371
-2
372
-2
  0
DIMSTYLE
105
81
330
4
100
AcDbSymbolTableRecord
100
AcDbDimStyleTableRecord
  2
EZ_M_5_H25_CM
 70
0
 40
1.0
 41
0.0125
 42
0.00625
 43
3.75
 44
0.018750000000000003
 45
0.0
 46
0.0
 47
0.0
 48
0.0
 49
2.5
140
0.0125
141
2.5
142
0.00625
143
0.03937007874
144
100.0
145
0.0
146
0.5
147
0.005000000000000001
148
0.0
 69
0
 70
0
 71
0
 72
0
 73
0
 74
0
 75
0
 76
0
 77
1
 78
12
 79
3
170
0
171
3
172
1
173
0
174
0
175
0
176
0
177
0
178
0
179
2
271
2
272
2
273
2
274
3
275
0
276
0
277
2
278
46
279
2
280
0
281
0
282
0
283
0
284
8
285
0
286
0
288
1
289
3
290
0
340
4C
371
-2
372
-2
  0
DIMSTYLE
105
82
330
4
100
AcDbSymbolTableRecord
100
AcDbDimStyleTableRecord
  2
EZ_M_1_H25_CM
 70
0
 40
1.0
 41
0.0025
 42
0.00125
 43
3.75
 44
0.00375
 45
0.0
 46
0.0
 47
0.0
 48
0.0
 49
2.5
140
0.0025
141
2.5
142
0.00125
143
0.03937007874
144
100.0
145
0.0
146
0.5
147
0.001
148
0.0
 69
0
 70
0
 71
0
 72
0
 73
0
 74
0
 75
0
 76
0
 77
1
 78
12
 79
3
170
0
171
3
172
1
173
0
174
0
175
0
176
0
177
0
178
0
179
2
271
2
272
2
273
2
274
3
275
0
276
0
277
2
278
46
279
2
280
0
281
0
282
0
283
0
284
8
285
0
286
0
288
1
289
3
290
0
340
4C
371
-2
372
-2
  0
DIMSTYLE
105
83
330
4
100
AcDbSymbolTableRecord
100
AcDbDimStyleTableRecord
  2
EZ_RADIUS
 70
0
 40
1.0
 41
0.25
 42
0.125
 43
3.75
 44
0.375
 45
0.0
 46
0.0
 47
0.0
 48
0.0
 49
2.5
140
0.25
141
0.0
142
0.0
143
0.03937007874
144
100.0
145
0.0
146
0.5
147
0.1
148
0.0
 69
0
 70
0
 71
0
 72
0
 73
0
 74
0
 75
0
 76
0
 77
1
 78
12
 79
3
170
0
171
3
172
0
173
0
174
0
175
0
176
0
177
0
178
0
179
2
271
2
272
2
273
2
274
3
275
0
276
0
277
2
278
46
279
1
280
0
281
0
282
0
283
0
284
8
285
0
286
0
288
1
289
3
290
0
340
4C
342
84
371
-2
372
-2
  0
DIMSTYLE
105
88
330
4
100
AcDbSymbolTableRecord
100
AcDbDimStyleTableRecord
  2
EZ_RADIUS_INSIDE
 70
0
 40
1.0
 41
0.25
 42
0.125
 43
3.75
 44
0.375
 45
0.0
 46
0.0
 47
0.0
 48
0.0
 49
2.5
140
0.25
141
0.0
142
0.0
143
0.03937007874
144
100.0
145
0.0
146
0.5
147
0.1
148
0.0
 69
0
 70
0
 71
0
 72
0
 73
0
 74
0
 75
0
 76
0
 77
0
 78
12
 79
3
170
0
171
3
172
0
173
0
174
1
175
0
176
0
177
0
178
0
179
2
271
2
272
2
273
2
274
3
275
0
276
0
277
2
278
46
279
0
280
0
281
0
282
0
283
0
284
8
285
0
286
0
288
1
289
0
290
0
340
4C
342
84
371
-2
372
-2
  0
DIMSTYLE
105
89
330
4
100
AcDbSymbolTableRecord
100
AcDbDimStyleTableRecord
  2
EZ_CURVED
 70
0
 40
1.0
 41
0.25
 42
0.125
 43
3.75
 44
0.375
 45
0.0
 46
0.0
 47
0.0
 48
0.0
 49
2.5
140
0.25
141
2.5
142
0.0
143
0.03937007874
144
100.0
145
0.0
146
0.5
147
0.1
148
0.0
 69
0
 70
0
 71
0
 72
0
 73
0
 74
0
 75
0
 76
0
 77
1
 78
12
 79
2
 90
2
170
0
171
3
172
1
173
0
174
0
175
0
176
0
177
0
178
0
179
2
271
2
272
2
273
2
274
3
275
0
276
0
277
2
278
46
279
2
280
0
281
0
282
0
283
0
284
8
285
0
286
0
288
1
289
3
290
0
340
4C
371
-2
372
-2
  0
ENDTAB
  0
TABLE
  2
BLOCK_RECORD
  5
9
330
0
100
AcDbSymbolTable
 70
5
  0
BLOCK_RECORD
  5
17
330
9
100
AcDbSymbolTableRecord
100
AcDbBlockTableRecord
  2
*Model_Space
340
1A
 70
0
280
1
281
0
  0
BLOCK_RECORD
  5
1B
330
9
100
AcDbSymbolTableRecord
100
AcDbBlockTableRecord
  2
*Paper_Space
340
1E
 70
0
280
1
281
0
  0
BLOCK_RECORD
  5
74
330
9
100
AcDbSymbolTableRecord
100
AcDbBlockTableRecord
  2
_ARCHTICK
340
0
 70
0
280
1
281
0
  0
BLOCK_RECORD
  5
78
330
9
100
AcDbSymbolTableRecord
100
AcDbBlockTableRecord
  2
_CLOSEDFILLED
340
0
 70
0
280
1
281
0
  0
BLOCK_RECORD
  5
84
330
9
100
AcDbSymbolTableRecord
100
AcDbBlockTableRecord
  2
_CLOSEDBLANK
340
0
 70
0
280
1
281
0
  0
ENDTAB
  0
ENDSEC
  0
SECTION
  2
BLOCKS
  0
BLOCK
  5
18
330
17
100
AcDbEntity
  8
0
100
AcDbBlockBegin
  2
*Model_Space
 70
0
 10
0.0
 20
0.0
 30
0.0
  3
*Model_Space
  1

  0
ENDBLK
  5
19
330
17
100
AcDbEntity
  8
0
100
AcDbBlockEnd
  0
BLOCK
  5
1C
330
1B
100
AcDbEntity
  8
0
100
AcDbBlockBegin
  2
*Paper_Space
 70
0
 10
0.0
 20
0.0
 30
0.0
  3
*Paper_Space
  1

  0
ENDBLK
  5
1D
330
1B
100
AcDbEntity
  8
0
100
AcDbBlockEnd
  0
BLOCK
  5
75
330
74
100
AcDbEntity
  8
0
100
AcDbBlockBegin
  2
_ARCHTICK
 70
0
 10
0.0
 20
0.0
 30
0.0
  3
_ARCHTICK
  1

  0
LWPOLYLINE
  5
77
330
74
100
AcDbEntity
  8
0
  6
BYBLOCK
 62
0
100
AcDbPolyline
 90
2
 70
0
 43
0.15
 10
-0.5
 20
-0.5
 10
0.5
 20
0.5
  0
ENDBLK
  5
76
330
74
100
AcDbEntity
  8
0
100
AcDbBlockEnd
  0
BLOCK
  5
79
330
78
100
AcDbEntity
  8
0
100
AcDbBlockBegin
  2
_CLOSEDFILLED
 70
0
 10
0.0
 20
0.0
 30
0.0
  3
_CLOSEDFILLED
  1

  0
SOLID
  5
7B
330
78
100
AcDbEntity
  8
0
  6
BYBLOCK
 62
0
100
AcDbTrace
 10
-1.0
 20
0.16439898372402537
 30
0.0
 11
0.0
 21
0.0
 31
0.0
 12
-1.0
 22
-0.16439898372402537
 32
0.0
 13
-1.0
 23
-0.16439898372402537
 33
0.0
  0
ENDBLK
  5
7A
330
78
100
AcDbEntity
  8
0
100
AcDbBlockEnd
  0
BLOCK
  5
85
330
84
100
AcDbEntity
  8
0
100
AcDbBlockBegin
  2
_CLOSEDBLANK
 70
0
 10
0.0
 20
0.0
 30
0.0
  3
_CLOSEDBLANK
  1

  0
LWPOLYLINE
  5
87
330
84
100
AcDbEntity
  8
0
  6
BYBLOCK
 62
0
100
AcDbPolyline
 90
3
 70
1
 10
-1.0
 20
0.16439898372402537
 10
0.0
 20
0.0
 10
-1.0
 20
-0.16439898372402537
  0
ENDBLK
  5
86
330
84
100
AcDbEntity
  8
0
100
AcDbBlockEnd
  0
ENDSEC
  0
SECTION
  2
ENTITIES
  0
LWPOLYLINE
  5
8C
330
17
100
AcDbEntity
  8
Vanity front
  6
DASHED
100
AcDbPolyline
 90
5
 70
0
 10
23.89763779527559
 20
5.984251968503941
 10
47.91338582677165
 20
5.984251968503941
 10
47.91338582677165
 20
0.0
 10
23.89763779527559
 20
0.0
 10
23.89763779527559
 20
5.984251968503941
  0
LWPOLYLINE
  5
8D
330
17
100
AcDbEntity
  8
Vanity front
100
AcDbPolyline
 90
5
 70
0
 10
5.905511811023622
 20
31.496062992125985
 10
65.90551181102362
 20
31.496062992125985
 10
65.90551181102362
 20
5.984251968503941
 10
5.905511811023622
 20
5.984251968503941
 10
5.905511811023622
 20
31.496062992125985
  0
LWPOLYLINE
  5
8E
330
17
100
AcDbEntity
  8
Vanity front
100
AcDbPolyline
 90
5
 70
0
 10
5.905511811023622
 20
32.99212598425197
 10
65.90551181102362
 20
32.99212598425197
 10
65.90551181102362
 20
31.496062992125985
 10
5.905511811023622
 20
31.496062992125985
 10
5.905511811023622
 20
32.99212598425197
  0
LWPOLYLINE
  5
8F
330
17
100
AcDbEntity
  8
Vanity front
100
AcDbPolyline
 90
5
 70
0
 10
7.519685039370079
 20
29.881889763779533
 10
19.291338582677163
 20
29.881889763779533
 10
19.291338582677163
 20
7.5984251968504
 10
7.519685039370079
 20
7.5984251968504
 10
7.519685039370079
 20
29.881889763779533
  0
SPLINE
  5
90
330
17
100
AcDbEntity
  8
Vanity front
100
AcDbSpline
 70
0
 71
3
 72
8
 73
4
 74
0
 40
0.0
 40
0.0
 40
0.0
 40
0.0
 40
1.0
 40
1.0
 40
1.0
 40
1.0
 10
14.881889763779528
 20
27.244094488188978
 30
0.0
 10
16.062992125984252
 20
26.45669291338583
 30
0.0
 10
17.244094488188978
 20
26.45669291338583
 30
0.0
 10
18.4251968503937
 20
27.244094488188978
 30
0.0
  0
LWPOLYLINE
  5
91
330
17
100
AcDbEntity
  8
Vanity front
100
AcDbPolyline
 90
5
 70
0
 10
52.51968503937008
 20
29.881889763779533
 10
64.29133858267716
 20
29.881889763779533
 10
64.29133858267716
 20
7.5984251968504
 10
52.51968503937008
 20
7.5984251968504
 10
52.51968503937008
 20
29.881889763779533
  0
SPLINE
  5
92
330
17
100
AcDbEntity
  8
Vanity front
100
AcDbSpline
 70
0
 71
3
 72
8
 73
4
 74
0
 40
0.0
 40
0.0
 40
0.0
 40
0.0
 40
1.0
 40
1.0
 40
1.0
 40
1.0
 10
53.38582677165354
 20
27.244094488188978
 30
0.0
 10
54.56692913385827
 20
26.45669291338583
 30
0.0
 10
55.74803149606299
 20
26.45669291338583
 30
0.0
 10
56.92913385826772
 20
27.244094488188978
 30
0.0
  0
LWPOLYLINE
  5
93
330
17
100
AcDbEntity
  8
Vanity front
100
AcDbPolyline
 90
5
 70
0
 10
22.519685039370078
 20
29.881889763779533
 10
35.295275590551185
 20
29.881889763779533
 10
35.295275590551185
 20
24.133858267716537
 10
22.519685039370078
 20
24.133858267716537
 10
22.519685039370078
 20
29.881889763779533
  0
SPLINE
  5
94
330
17
100
AcDbEntity
  8
Vanity front
100
AcDbSpline
 70
0
 71
3
 72
8
 73
4
 74
0
 40
0.0
 40
0.0
 40
0.0
 40
0.0
 40
1.0
 40
1.0
 40
1.0
 40
1.0
 10
27.135826771653544
 20
27.795275590551185
 30
0.0
 10
28.316929133858267
 20
27.007874015748033
 30
0.0
 10
29.498031496062993
 20
27.007874015748033
 30
0.0
 10
30.679133858267715
 20
27.795275590551185
 30
0.0
  0
LWPOLYLINE
  5
95
330
17
100
AcDbEntity
  8
Vanity front
100
AcDbPolyline
 90
5
 70
0
 10
36.51574803149606
 20
29.881889763779533
 10
49.29133858267716
 20
29.881889763779533
 10
49.29133858267716
 20
24.133858267716537
 10
36.51574803149606
 20
24.133858267716537
 10
36.51574803149606
 20
29.881889763779533
  0
SPLINE
  5
96
330
17
100
AcDbEntity
  8
Vanity front
100
AcDbSpline
 70
0
 71
3
 72
8
 73
4
 74
0
 40
0.0
 40
0.0
 40
0.0
 40
0.0
 40
1.0
 40
1.0
 40
1.0
 40
1.0
 10
41.131889763779526
 20
27.795275590551185
 30
0.0
 10
42.31299212598425
 20
27.007874015748033
 30
0.0
 10
43.49409448818898
 20
27.007874015748033
 30
0.0
 10
44.675196850393704
 20
27.795275590551185
 30
0.0
  0
LWPOLYLINE
  5
97
330
17
100
AcDbEntity
  8
Vanity front
100
AcDbPolyline
 90
5
 70
0
 10
22.519685039370078
 20
22.8740157480315
 10
49.29133858267716
 20
22.8740157480315
 10
49.29133858267716
 20
7.5984251968504
 10
22.519685039370078
 20
7.5984251968504
 10
22.519685039370078
 20
22.8740157480315
  0
SPLINE
  5
98
330
17
100
AcDbEntity
  8
Vanity front
100
AcDbSpline
 70
0
 71
3
 72
8
 73
4
 74
0
 40
0.0
 40
0.0
 40
0.0
 40
0.0
 40
1.0
 40
1.0
 40
1.0
 40
1.0
 10
34.13385826771653
 20
19.842519685039374
 30
0.0
 10
35.31496062992126
 20
19.055118110236222
 30
0.0
 10
36.496062992125985
 20
19.055118110236222
 30
0.0
 10
37.67716535433071
 20
19.842519685039374
 30
0.0
  0
POLYLINE
  5
99
330
17
100
AcDbEntity
  8
Vanity front
100
AcDb2dPolyline
 66
1
 10
0.0
 20
0.0
 30
0.0
 70
0
  0
VERTEX
  5
9A
330
99
100
AcDbEntity
  8
Vanity front
100
AcDbVertex
100
AcDb2dVertex
 10
33.897637795275585
 20
37.99212598425197
 30
0.0
 70
0
  0
VERTEX
  5
9B
330
99
100
AcDbEntity
  8
Vanity front
100
AcDbVertex
100
AcDb2dVertex
 10
49.881889763779526
 20
37.99212598425197
 30
0.0
 70
0
  0
SEQEND
  5
9C
330
99
100
AcDbEntity
  8
Vanity front
  0
SPLINE
  5
9D
330
17
100
AcDbEntity
  8
Vanity front
100
AcDbSpline
 70
0
 71
3
 72
8
 73
4
 74
0
 40
0.0
 40
0.0
 40
0.0
 40
0.0
 40
1.0
 40
1.0
 40
1.0
 40
1.0
 10
49.881889763779526
 20
37.99212598425197
 30
0.0
 10
49.881889763779526
 20
34.74212598425197
 30
0.0
 10
46.28543307086615
 20
32.99212598425197
 30
0.0
 10
44.28740157480315
 20
32.99212598425197
 30
0.0
  0
POLYLINE
  5
9E
330
17
100
AcDbEntity
  8
Vanity front
100
AcDb2dPolyline
 66
1
 10
0.0
 20
0.0
 30
0.0
 70
0
  0
VERTEX
  5
9F
330
9E
100
AcDbEntity
  8
Vanity front
100
AcDbVertex
100
AcDb2dVertex
 10
44.28740157480315
 20
32.99212598425197
 30
0.0
 70
0
  0
VERTEX
  5
A0
330
9E
100
AcDbEntity
  8
Vanity front
100
AcDbVertex
100
AcDb2dVertex
 10
39.49212598425197
 20
32.99212598425197
 30
0.0
 70
0
  0
SEQEND
  5
A1
330
9E
100
AcDbEntity
  8
Vanity front
  0
SPLINE
  5
A2
330
17
100
AcDbEntity
  8
Vanity front
100
AcDbSpline
 70
0
 71
3
 72
8
 73
4
 74
0
 40
0.0
 40
0.0
 40
0.0
 40
0.0
 40
1.0
 40
1.0
 40
1.0
 40
1.0
 10
39.49212598425197
 20
32.99212598425197
 30
0.0
 10
37.49409448818898
 20
32.99212598425197
 30
0.0
 10
33.897637795275585
 20
34.74212598425197
 30
0.0
 10
33.897637795275585
 20
37.99212598425197
 30
0.0
  0
LINE
  5
A3
330
17
100
AcDbEntity
  8
Vanity front
100
AcDbLine
 10
34.37007874015748
 20
37.51968503937008
 30
0.0
 11
49.40944881889764
 21
37.51968503937008
 31
0.0
  0
LWPOLYLINE
  5
A4
330
17
100
AcDbEntity
  8
Vanity front
100
AcDbPolyline
 90
5
 70
0
 10
40.70866141732284
 20
42.91338582677166
 10
43.07086614173228
 20
42.91338582677166
 10
43.07086614173228
 20
40.55118110236221
 10
40.70866141732284
 20
40.55118110236221
 10
40.70866141732284
 20
42.91338582677166
  0
LWPOLYLINE
  5
A5
330
17
100
AcDbEntity
  8
Vanity front
100
AcDbPolyline
 90
5
 70
0
 10
41.45669291338583
 20
40.55118110236221
 10
42.32283464566929
 20
40.55118110236221
 10
42.32283464566929
 20
39.56692913385827
 10
41.45669291338583
 20
39.56692913385827
 10
41.45669291338583
 20
40.55118110236221
  0
LINE
  5
A6
330
17
100
AcDbEntity
  8
Vanity front
100
AcDbLine
 10
0.0
 20
0.0
 30
0.0
 11
71.81102362204724
 21
0.0
 31
0.0
  0
LINE
  5
A7
330
17
100
AcDbEntity
  8
Vanity front
  6
DASHED
100
AcDbLine
 10
41.889763779527556
 20
44.68503937007874
 30
0.0
 11
41.889763779527556
 21
32.204724409448815
 31
0.0
  0
LINE
  5
A8
330
17
100
AcDbEntity
  8
Vanity front
  6
DASHED
100
AcDbLine
 10
35.90551181102362
 20
44.68503937007874
 30
0.0
 11
35.90551181102362
 21
32.204724409448815
 31
0.0
  0
TEXT
  5
A9
330
17
100
AcDbEntity
  8
LABELS
100
AcDbText
 10
0.0
 20
47.047244094488185
 30
0.0
 40
1.436220472440945
  1
VANITY FRONT  (1:1, inches)
 11
0.0
 21
47.047244094488185
 31
0.0
100
AcDbText
  0
HATCH
  5
AC
330
17
100
AcDbEntity
  8
Vanity section hatch
 62
7
100
AcDbHatch
 10
0.0
 20
0.0
 30
0.0
210
0.0
220
0.0
230
1.0
  2
ANSI31
 70
0
 71
0
 91
1
 92
3
 72
0
 73
1
 93
5
 10
82.58267716535433
 20
45.86614173228347
 10
84.94488188976378
 20
45.86614173228347
 10
84.94488188976378
 20
0.0
 10
82.58267716535433
 20
0.0
 10
82.58267716535433
 20
45.86614173228347
 97
0
 75
1
 76
1
 52
0.0
 41
0.15748031496062992
 77
0
 78
1
 53
45.0
 43
0.0
 44
0.0
 45
-0.0139194248
 46
0.0139194248
 79
0
 98
0
  0
LINE
  5
AD
330
17
100
AcDbEntity
  8
Vanity section
100
AcDbLine
 10
84.94488188976378
 20
45.86614173228347
 30
0.0
 11
84.94488188976378
 21
0.0
 31
0.0
  0
LINE
  5
AE
330
17
100
AcDbEntity
  8
Vanity section
100
AcDbLine
 10
82.58267716535433
 20
0.0
 30
0.0
 11
111.32283464566929
 21
0.0
 31
0.0
  0
LWPOLYLINE
  5
AF
330
17
100
AcDbEntity
  8
Vanity section
100
AcDbPolyline
 90
5
 70
0
 10
84.94488188976378
 20
29.92125984251969
 10
85.65354330708661
 20
29.92125984251969
 10
85.65354330708661
 20
27.55905511811024
 10
84.94488188976378
 20
27.55905511811024
 10
84.94488188976378
 20
29.92125984251969
  0
LWPOLYLINE
  5
B0
330
17
100
AcDbEntity
  8
Vanity section
100
AcDbPolyline
 90
5
 70
0
 10
85.65354330708661
 20
30.78740157480315
 10
86.1259842519685
 20
30.78740157480315
 10
86.1259842519685
 20
6.6929133858267775
 10
85.65354330708661
 20
6.6929133858267775
 10
85.65354330708661
 20
30.78740157480315
  0
LWPOLYLINE
  5
B1
330
17
100
AcDbEntity
  8
Vanity section
100
AcDbPolyline
 90
5
 70
0
 10
84.94488188976378
 20
31.496062992125985
 10
108.96062992125984
 20
31.496062992125985
 10
108.96062992125984
 20
30.78740157480315
 10
84.94488188976378
 20
30.78740157480315
 10
84.94488188976378
 20
31.496062992125985
  0
LWPOLYLINE
  5
B2
330
17
100
AcDbEntity
  8
Vanity section
100
AcDbPolyline
 90
5
 70
0
 10
84.94488188976378
 20
6.6929133858267775
 10
108.96062992125984
 20
6.6929133858267775
 10
108.96062992125984
 20
5.984251968503941
 10
84.94488188976378
 20
5.984251968503941
 10
84.94488188976378
 20
6.6929133858267775
  0
LWPOLYLINE
  5
B3
330
17
100
AcDbEntity
  8
Vanity section
100
AcDbPolyline
 90
5
 70
0
 10
84.94488188976378
 20
32.28346456692914
 10
109.23622047244095
 20
32.28346456692914
 10
109.23622047244095
 20
31.496062992125985
 10
84.94488188976378
 20
31.496062992125985
 10
84.94488188976378
 20
32.28346456692914
  0
LWPOLYLINE
  5
B4
330
17
100
AcDbEntity
  8
Vanity section
100
AcDbPolyline
 90
7
 70
0
 10
84.94488188976378
 20
32.99212598425197
 10
109.94488188976378
 20
32.99212598425197
 10
109.94488188976378
 20
31.496062992125985
 10
109.23622047244095
 20
31.496062992125985
 10
109.23622047244095
 20
32.28346456692914
 10
84.94488188976378
 20
32.28346456692914
 10
84.94488188976378
 20
32.99212598425197
  0
LINE
  5
B5
330
17
100
AcDbEntity
  8
Vanity section
100
AcDbLine
 10
109.23622047244093
 20
32.28346456692913
 30
0.0
 11
109.94488188976378
 21
32.99212598425197
 31
0.0
  0
LWPOLYLINE
  5
B6
330
17
100
AcDbEntity
  8
Vanity section
100
AcDbPolyline
 90
5
 70
0
 10
108.25196850393701
 20
30.78740157480315
 10
108.96062992125984
 20
30.78740157480315
 10
108.96062992125984
 20
30.000000000000004
 10
108.25196850393701
 20
30.000000000000004
 10
108.25196850393701
 20
30.78740157480315
  0
LWPOLYLINE
  5
B7
330
17
100
AcDbEntity
  8
Vanity section
100
AcDbPolyline
 90
5
 70
0
 10
108.25196850393701
 20
24.015748031496067
 10
108.96062992125984
 20
24.015748031496067
 10
108.96062992125984
 20
22.99212598425197
 10
108.25196850393701
 20
22.99212598425197
 10
108.25196850393701
 20
24.015748031496067
  0
LWPOLYLINE
  5
B8
330
17
100
AcDbEntity
  8
Vanity section
100
AcDbPolyline
 90
5
 70
0
 10
108.25196850393701
 20
7.480314960629926
 10
108.96062992125984
 20
7.480314960629926
 10
108.96062992125984
 20
6.6929133858267775
 10
108.25196850393701
 20
6.6929133858267775
 10
108.25196850393701
 20
7.480314960629926
  0
LWPOLYLINE
  5
B9
330
17
100
AcDbEntity
  8
Vanity section
100
AcDbPolyline
 90
5
 70
0
 10
108.25196850393701
 20
29.881889763779533
 10
108.96062992125984
 20
29.881889763779533
 10
108.96062992125984
 20
24.133858267716537
 10
108.25196850393701
 20
24.133858267716537
 10
108.25196850393701
 20
29.881889763779533
  0
LWPOLYLINE
  5
BA
330
17
100
AcDbEntity
  8
Vanity section
100
AcDbPolyline
 90
5
 70
0
 10
97.93700787401575
 20
25.275590551181104
 10
108.25196850393701
 20
25.275590551181104
 10
108.25196850393701
 20
24.803149606299215
 10
97.93700787401575
 20
24.803149606299215
 10
97.93700787401575
 20
25.275590551181104
  0
LWPOLYLINE
  5
BB
330
17
100
AcDbEntity
  8
Vanity section
100
AcDbPolyline
 90
5
 70
0
 10
97.93700787401575
 20
29.13385826771654
 10
98.5275590551181
 20
29.13385826771654
 10
98.5275590551181
 20
24.803149606299215
 10
97.93700787401575
 20
24.803149606299215
 10
97.93700787401575
 20
29.13385826771654
  0
LWPOLYLINE
  5
BC
330
17
100
AcDbEntity
  8
Vanity section
  6
DASHED
100
AcDbPolyline
 90
5
 70
0
 10
88.56692913385827
 20
29.13385826771654
 10
97.93700787401575
 20
29.13385826771654
 10
97.93700787401575
 20
24.803149606299215
 10
88.56692913385827
 20
24.803149606299215
 10
88.56692913385827
 20
29.13385826771654
  0
LWPOLYLINE
  5
BD
330
17
100
AcDbEntity
  8
Vanity section
100
AcDbPolyline
 90
5
 70
0
 10
108.25196850393701
 20
22.8740157480315
 10
108.96062992125984
 20
22.8740157480315
 10
108.96062992125984
 20
7.5984251968504
 10
108.25196850393701
 20
7.5984251968504
 10
108.25196850393701
 20
22.8740157480315
  0
LWPOLYLINE
  5
BE
330
17
100
AcDbEntity
  8
Vanity section
100
AcDbPolyline
 90
5
 70
0
 10
97.93700787401575
 20
8.740157480314963
 10
108.25196850393701
 20
8.740157480314963
 10
108.25196850393701
 20
8.267716535433074
 10
97.93700787401575
 20
8.267716535433074
 10
97.93700787401575
 20
8.740157480314963
  0
LWPOLYLINE
  5
BF
330
17
100
AcDbEntity
  8
Vanity section
100
AcDbPolyline
 90
5
 70
0
 10
97.93700787401575
 20
22.125984251968507
 10
98.5275590551181
 20
22.125984251968507
 10
98.5275590551181
 20
8.267716535433074
 10
97.93700787401575
 20
8.267716535433074
 10
97.93700787401575
 20
22.125984251968507
  0
LWPOLYLINE
  5
C0
330
17
100
AcDbEntity
  8
Vanity section
  6
DASHED
100
AcDbPolyline
 90
5
 70
0
 10
88.56692913385827
 20
22.125984251968507
 10
97.93700787401575
 20
22.125984251968507
 10
97.93700787401575
 20
8.267716535433074
 10
88.56692913385827
 20
8.267716535433074
 10
88.56692913385827
 20
22.125984251968507
  0
POLYLINE
  5
C1
330
17
100
AcDbEntity
  8
Vanity section
100
AcDb2dPolyline
 66
1
 10
0.0
 20
0.0
 30
0.0
 70
0
  0
VERTEX
  5
C2
330
C1
100
AcDbEntity
  8
Vanity section
100
AcDbVertex
100
AcDb2dVertex
 10
94.15748031496062
 20
32.99212598425197
 30
0.0
 70
0
  0
VERTEX
  5
C3
330
C1
100
AcDbEntity
  8
Vanity section
100
AcDbVertex
100
AcDb2dVertex
 10
94.15748031496062
 20
16.92913385826772
 30
0.0
 70
0
  0
SEQEND
  5
C4
330
C1
100
AcDbEntity
  8
Vanity section
  0
SPLINE
  5
C5
330
17
100
AcDbEntity
  8
Vanity section
100
AcDbSpline
 70
0
 71
3
 72
17
 73
13
 74
0
 40
0.0
 40
0.0
 40
0.0
 40
0.0
 40
1.0
 40
1.0
 40
1.0
 40
2.0
 40
2.0
 40
2.0
 40
3.0
 40
3.0
 40
3.0
 40
4.0
 40
4.0
 40
4.0
 40
4.0
 10
94.15748031496062
 20
16.92913385826772
 30
0.0
 10
93.90088931207094
 20
17.19101595396302
 30
0.0
 10
93.59459952082197
 20
17.399080568894163
 30
0.0
 10
93.25659330770428
 20
17.541112166447427
 30
0.0
 10
92.91858709458658
 20
17.683143764000686
 30
0.0
 10
92.55561131192617
 20
17.756307289147106
 30
0.0
 10
92.18897637795276
 20
17.756307289147106
 30
0.0
 10
91.82234144397933
 20
17.756307289147106
 30
0.0
 10
91.45936566131893
 20
17.683143764000686
 30
0.0
 10
91.12135944820123
 20
17.541112166447427
 30
0.0
 10
90.78335323508354
 20
17.399080568894163
 30
0.0
 10
90.47706344383457
 20
17.19101595396302
 30
0.0
 10
90.22047244094487
 20
16.92913385826772
 30
0.0
  0
POLYLINE
  5
C6
330
17
100
AcDbEntity
  8
Vanity section
100
AcDb2dPolyline
 66
1
 10
0.0
 20
0.0
 30
0.0
 70
0
  0
VERTEX
  5
C7
330
C6
100
AcDbEntity
  8
Vanity section
100
AcDbVertex
100
AcDb2dVertex
 10
90.22047244094487
 20
16.92913385826772
 30
0.0
 70
0
  0
VERTEX
  5
C8
330
C6
100
AcDbEntity
  8
Vanity section
100
AcDbVertex
100
AcDb2dVertex
 10
90.22047244094487
 20
17.204724409448822
 30
0.0
 70
0
  0
VERTEX
  5
C9
330
C6
100
AcDbEntity
  8
Vanity section
100
AcDbVertex
100
AcDb2dVertex
 10
84.94488188976378
 20
17.204724409448822
 30
0.0
 70
0
  0
SEQEND
  5
CA
330
C6
100
AcDbEntity
  8
Vanity section
  0
POLYLINE
  5
CB
330
17
100
AcDbEntity
  8
Vanity section
100
AcDb2dPolyline
 66
1
 10
0.0
 20
0.0
 30
0.0
 70
0
  0
VERTEX
  5
CC
330
CB
100
AcDbEntity
  8
Vanity section
100
AcDbVertex
100
AcDb2dVertex
 10
95.73228346456693
 20
32.99212598425197
 30
0.0
 70
0
  0
VERTEX
  5
CD
330
CB
100
AcDbEntity
  8
Vanity section
100
AcDbVertex
100
AcDb2dVertex
 10
95.73228346456693
 20
16.92913385826772
 30
0.0
 70
0
  0
SEQEND
  5
CE
330
CB
100
AcDbEntity
  8
Vanity section
  0
SPLINE
  5
CF
330
17
100
AcDbEntity
  8
Vanity section
100
AcDbSpline
 70
0
 71
3
 72
17
 73
13
 74
0
 40
0.0
 40
0.0
 40
0.0
 40
0.0
 40
1.0
 40
1.0
 40
1.0
 40
2.0
 40
2.0
 40
2.0
 40
3.0
 40
3.0
 40
3.0
 40
4.0
 40
4.0
 40
4.0
 40
4.0
 10
95.73228346456693
 20
16.92913385826772
 30
0.0
 10
95.33272402777497
 20
16.360550811873217
 30
0.0
 10
94.80211494726792
 20
15.896407260308301
 30
0.0
 10
94.18542937290707
 20
15.576042895011572
 30
0.0
 10
93.56874379854621
 20
15.255678529714839
 30
0.0
 10
92.88391121243492
 20
15.088407606431797
 30
0.0
 10
92.18897637795276
 20
15.088407606431797
 30
0.0
 10
91.49404154347059
 20
15.088407606431797
 30
0.0
 10
90.8092089573593
 20
15.255678529714835
 30
0.0
 10
90.19252338299844
 20
15.576042895011565
 30
0.0
 10
89.57583780863759
 20
15.896407260308298
 30
0.0
 10
89.04522872813054
 20
16.360550811873217
 30
0.0
 10
88.64566929133858
 20
16.92913385826772
 30
0.0
  0
POLYLINE
  5
D0
330
17
100
AcDbEntity
  8
Vanity section
100
AcDb2dPolyline
 66
1
 10
0.0
 20
0.0
 30
0.0
 70
0
  0
VERTEX
  5
D1
330
D0
100
AcDbEntity
  8
Vanity section
100
AcDbVertex
100
AcDb2dVertex
 10
88.64566929133858
 20
16.92913385826772
 30
0.0
 70
0
  0
VERTEX
  5
D2
330
D0
100
AcDbEntity
  8
Vanity section
100
AcDbVertex
100
AcDb2dVertex
 10
88.64566929133858
 20
18.779527559055122
 30
0.0
 70
0
  0
VERTEX
  5
D3
330
D0
100
AcDbEntity
  8
Vanity section
100
AcDbVertex
100
AcDb2dVertex
 10
84.94488188976378
 20
18.779527559055122
 30
0.0
 70
0
  0
SEQEND
  5
D4
330
D0
100
AcDbEntity
  8
Vanity section
  0
POLYLINE
  5
D5
330
17
100
AcDbEntity
  8
Vanity section
100
AcDb2dPolyline
 66
1
 10
0.0
 20
0.0
 30
0.0
 70
0
  0
VERTEX
  5
D6
330
D5
100
AcDbEntity
  8
Vanity section
100
AcDbVertex
100
AcDb2dVertex
 10
86.95275590551181
 20
37.99212598425197
 30
0.0
 70
0
  0
VERTEX
  5
D7
330
D5
100
AcDbEntity
  8
Vanity section
100
AcDbVertex
100
AcDb2dVertex
 10
102.93700787401575
 20
37.99212598425197
 30
0.0
 70
0
  0
SEQEND
  5
D8
330
D5
100
AcDbEntity
  8
Vanity section
  0
SPLINE
  5
D9
330
17
100
AcDbEntity
  8
Vanity section
100
AcDbSpline
 70
0
 71
3
 72
8
 73
4
 74
0
 40
0.0
 40
0.0
 40
0.0
 40
0.0
 40
1.0
 40
1.0
 40
1.0
 40
1.0
 10
102.93700787401575
 20
37.99212598425197
 30
0.0
 10
102.93700787401575
 20
34.74212598425197
 30
0.0
 10
99.34055118110236
 20
32.99212598425197
 30
0.0
 10
97.34251968503936
 20
32.99212598425197
 30
0.0
  0
POLYLINE
  5
DA
330
17
100
AcDbEntity
  8
Vanity section
100
AcDb2dPolyline
 66
1
 10
0.0
 20
0.0
 30
0.0
 70
0
  0
VERTEX
  5
DB
330
DA
100
AcDbEntity
  8
Vanity section
100
AcDbVertex
100
AcDb2dVertex
 10
97.34251968503936
 20
32.99212598425197
 30
0.0
 70
0
  0
VERTEX
  5
DC
330
DA
100
AcDbEntity
  8
Vanity section
100
AcDbVertex
100
AcDb2dVertex
 10
92.54724409448819
 20
32.99212598425197
 30
0.0
 70
0
  0
SEQEND
  5
DD
330
DA
100
AcDbEntity
  8
Vanity section
  0
SPLINE
  5
DE
330
17
100
AcDbEntity
  8
Vanity section
100
AcDbSpline
 70
0
 71
3
 72
8
 73
4
 74
0
 40
0.0
 40
0.0
 40
0.0
 40
0.0
 40
1.0
 40
1.0
 40
1.0
 40
1.0
 10
92.54724409448819
 20
32.99212598425197
 30
0.0
 10
90.5492125984252
 20
32.99212598425197
 30
0.0
 10
86.95275590551181
 20
34.74212598425197
 30
0.0
 10
86.95275590551181
 20
37.99212598425197
 30
0.0
  0
LINE
  5
DF
330
17
100
AcDbEntity
  8
Vanity section
100
AcDbLine
 10
87.42519685039369
 20
37.51968503937008
 30
0.0
 11
102.46456692913385
 21
37.51968503937008
 31
0.0
  0
POLYLINE
  5
E0
330
17
100
AcDbEntity
  8
Vanity section
100
AcDb2dPolyline
 66
1
 10
0.0
 20
0.0
 30
0.0
 70
0
  0
VERTEX
  5
E1
330
E0
100
AcDbEntity
  8
Vanity section
100
AcDbVertex
100
AcDb2dVertex
 10
84.94488188976378
 20
42.322834645669296
 30
0.0
 70
0
  0
VERTEX
  5
E2
330
E0
100
AcDbEntity
  8
Vanity section
100
AcDbVertex
100
AcDb2dVertex
 10
92.97637795275591
 20
42.322834645669296
 30
0.0
 70
0
  0
SEQEND
  5
E3
330
E0
100
AcDbEntity
  8
Vanity section
  0
SPLINE
  5
E4
330
17
100
AcDbEntity
  8
Vanity section
100
AcDbSpline
 70
0
 71
3
 72
8
 73
4
 74
0
 40
0.0
 40
0.0
 40
0.0
 40
0.0
 40
1.0
 40
1.0
 40
1.0
 40
1.0
 10
92.97637795275591
 20
42.322834645669296
 30
0.0
 10
93.63254593175853
 20
42.322834645669296
 30
0.0
 10
93.96062992125984
 20
41.92913385826772
 30
0.0
 10
93.96062992125984
 20
41.14173228346457
 30
0.0
  0
POLYLINE
  5
E5
330
17
100
AcDbEntity
  8
Vanity section
100
AcDb2dPolyline
 66
1
 10
0.0
 20
0.0
 30
0.0
 70
0
  0
VERTEX
  5
E6
330
E5
100
AcDbEntity
  8
Vanity section
100
AcDbVertex
100
AcDb2dVertex
 10
93.96062992125984
 20
41.14173228346457
 30
0.0
 70
0
  0
VERTEX
  5
E7
330
E5
100
AcDbEntity
  8
Vanity section
100
AcDbVertex
100
AcDb2dVertex
 10
93.96062992125984
 20
40.15748031496063
 30
0.0
 70
0
  0
VERTEX
  5
E8
330
E5
100
AcDbEntity
  8
Vanity section
100
AcDbVertex
100
AcDb2dVertex
 10
93.09448818897637
 20
40.15748031496063
 30
0.0
 70
0
  0
VERTEX
  5
E9
330
E5
100
AcDbEntity
  8
Vanity section
100
AcDbVertex
100
AcDb2dVertex
 10
93.09448818897637
 20
41.45669291338583
 30
0.0
 70
0
  0
VERTEX
  5
EA
330
E5
100
AcDbEntity
  8
Vanity section
100
AcDbVertex
100
AcDb2dVertex
 10
84.94488188976378
 20
41.45669291338583
 30
0.0
 70
0
  0
VERTEX
  5
EB
330
E5
100
AcDbEntity
  8
Vanity section
100
AcDbVertex
100
AcDb2dVertex
 10
84.94488188976378
 20
42.322834645669296
 30
0.0
 70
0
  0
SEQEND
  5
EC
330
E5
100
AcDbEntity
  8
Vanity section
  0
LWPOLYLINE
  5
ED
330
17
100
AcDbEntity
  8
Vanity section
  6
DASHED
100
AcDbPolyline
 90
5
 70
0
 10
84.94488188976378
 20
5.984251968503941
 10
105.96850393700787
 20
5.984251968503941
 10
105.96850393700787
 20
0.0
 10
84.94488188976378
 20
0.0
 10
84.94488188976378
 20
5.984251968503941
  0
TEXT
  5
EE
330
17
100
AcDbEntity
  8
LABELS
100
AcDbText
 10
82.58267716535433
 20
48.22834645669291
 30
0.0
 40
0.7086614173228346
  1
VANITY SECTION  (1:1, inches)
 11
82.58267716535433
 21
48.22834645669291
 31
0.0
100
AcDbText
  0
HATCH
  5
F1
330
17
100
AcDbEntity
  8
Vanity plan hatch
 62
7
100
AcDbHatch
 10
0.0
 20
0.0
 30
0.0
210
0.0
220
0.0
230
1.0
  2
ANSI31
 70
0
 71
0
 91
1
 92
3
 72
0
 73
1
 93
5
 10
121.16535433070865
 20
30.11811023622047
 10
192.9763779527559
 20
30.11811023622047
 10
192.9763779527559
 20
28.543307086614174
 10
121.16535433070865
 20
28.543307086614174
 10
121.16535433070865
 20
30.11811023622047
 97
0
 75
1
 76
1
 52
0.0
 41
0.15748031496062992
 77
0
 78
1
 53
45.0
 43
0.0
 44
0.0
 45
-0.0139194248
 46
0.0139194248
 79
0
 98
0
  0
LINE
  5
F2
330
17
100
AcDbEntity
  8
Vanity plan
100
AcDbLine
 10
121.16535433070865
 20
28.543307086614174
 30
0.0
 11
192.9763779527559
 21
28.543307086614174
 31
0.0
  0
LWPOLYLINE
  5
F3
330
17
100
AcDbEntity
  8
Vanity plan
100
AcDbPolyline
 90
5
 70
0
 10
127.07086614173228
 20
28.543307086614174
 10
187.07086614173227
 20
28.543307086614174
 10
187.07086614173227
 20
4.527559055118111
 10
127.07086614173228
 20
4.527559055118111
 10
127.07086614173228
 20
28.543307086614174
  0
LWPOLYLINE
  5
F4
330
17
100
AcDbEntity
  8
Vanity plan
100
AcDbPolyline
 90
5
 70
0
 10
127.07086614173228
 20
28.543307086614174
 10
187.07086614173227
 20
28.543307086614174
 10
187.07086614173227
 20
3.543307086614174
 10
127.07086614173228
 20
3.543307086614174
 10
127.07086614173228
 20
28.543307086614174
  0
LWPOLYLINE
  5
F5
330
17
100
AcDbEntity
  8
Vanity plan
  6
DASHED
100
AcDbPolyline
 90
5
 70
0
 10
145.06299212598424
 20
28.543307086614174
 10
169.0787401574803
 20
28.543307086614174
 10
169.0787401574803
 20
7.519685039370081
 10
145.06299212598424
 20
7.519685039370081
 10
145.06299212598424
 20
28.543307086614174
  0
CIRCLE
  5
F6
330
17
100
AcDbEntity
  8
Vanity plan
100
AcDbCircle
 10
163.05511811023624
 20
18.543307086614174
 30
0.0
 40
7.9921259842519685
  0
CIRCLE
  5
F7
330
17
100
AcDbEntity
  8
Vanity plan
100
AcDbCircle
 10
163.05511811023624
 20
18.543307086614174
 30
0.0
 40
7.519685039370079
  0
CIRCLE
  5
F8
330
17
100
AcDbEntity
  8
Vanity plan
100
AcDbCircle
 10
163.05511811023624
 20
18.543307086614174
 30
0.0
 40
0.8661417322834646
  0
LWPOLYLINE
  5
F9
330
17
100
AcDbEntity
  8
Vanity plan
100
AcDbPolyline
 90
5
 70
0
 10
162.6220472440945
 20
28.543307086614174
 10
163.48818897637796
 20
28.543307086614174
 10
163.48818897637796
 20
19.52755905511811
 10
162.6220472440945
 20
19.52755905511811
 10
162.6220472440945
 20
28.543307086614174
  0
LINE
  5
FA
330
17
100
AcDbEntity
  8
Vanity plan
  6
DASHED
100
AcDbLine
 10
163.05511811023624
 20
32.08661417322835
 30
0.0
 11
163.05511811023624
 21
0.0
 31
0.0
  0
LINE
  5
FB
330
17
100
AcDbEntity
  8
Vanity plan
  6
DASHED
100
AcDbLine
 10
157.07086614173227
 20
32.08661417322835
 30
0.0
 11
157.07086614173227
 21
0.0
 31
0.0
  0
TEXT
  5
FC
330
17
100
AcDbEntity
  8
LABELS
100
AcDbText
 10
121.16535433070865
 20
34.44881889763779
 30
0.0
 40
1.436220472440945
  1
VANITY PLAN  (1:1, inches)
 11
121.16535433070865
 21
34.44881889763779
 31
0.0
100
AcDbText
  0
LWPOLYLINE
  5
FF
330
17
100
AcDbEntity
  8
Vanity drawer
100
AcDbPolyline
 90
9
 70
0
 10
206.6220472440945
 20
21.968503937007874
 10
221.66141732283464
 20
21.968503937007874
 10
221.66141732283464
 20
12.598425196850394
 10
229.53543307086613
 20
12.598425196850394
 10
229.53543307086613
 20
21.968503937007874
 10
232.60629921259843
 20
21.968503937007874
 10
232.60629921259843
 20
2.2834645669291334
 10
206.6220472440945
 20
2.2834645669291334
 10
206.6220472440945
 20
21.968503937007874
  0
LWPOLYLINE
  5
100
330
17
100
AcDbEntity
  8
Vanity drawer
100
AcDbPolyline
 90
9
 70
0
 10
207.21259842519686
 20
21.37795275590551
 10
221.0708661417323
 20
21.37795275590551
 10
221.0708661417323
 20
12.007874015748033
 10
230.1259842519685
 20
12.007874015748033
 10
230.1259842519685
 20
21.37795275590551
 10
232.01574803149606
 20
21.37795275590551
 10
232.01574803149606
 20
2.8740157480314963
 10
207.21259842519686
 20
2.8740157480314963
 10
207.21259842519686
 20
21.37795275590551
  0
LWPOLYLINE
  5
101
330
17
100
AcDbEntity
  8
Vanity drawer
100
AcDbPolyline
 90
5
 70
0
 10
205.99212598425197
 20
2.2834645669291334
 10
233.23622047244095
 20
2.2834645669291334
 10
233.23622047244095
 20
1.5748031496063
 10
205.99212598425197
 20
1.5748031496063
 10
205.99212598425197
 20
2.2834645669291334
  0
CIRCLE
  5
102
330
17
100
AcDbEntity
  8
Vanity drawer
100
AcDbCircle
 10
225.59842519685037
 20
15.590551181102361
 30
0.0
 40
0.7874015748031495
  0
LWPOLYLINE
  5
103
330
17
100
AcDbEntity
  8
Vanity drawer
100
AcDbPolyline
 90
3
 70
0
 10
225.5984251968504
 20
15.590551181102363
 10
225.5984251968504
 20
21.10236220472441
 10
225.5984251968504
 20
25.590551181102363
  0
LINE
  5
104
330
17
100
AcDbEntity
  8
Vanity drawer
100
AcDbLine
 10
203.748031496063
 20
25.590551181102363
 30
0.0
 11
235.4803149606299
 21
25.590551181102363
 31
0.0
  0
LINE
  5
105
330
17
100
AcDbEntity
  8
Vanity drawer
  6
DASHED
100
AcDbLine
 10
225.59842519685037
 20
27.16535433070866
 30
0.0
 11
225.59842519685037
 21
0.0
 31
0.0
  0
TEXT
  5
106
330
17
100
AcDbEntity
  8
LABELS
100
AcDbText
 10
203.748031496063
 20
29.52755905511811
 30
0.0
 40
0.7086614173228346
  1
VANITY DRAWER  (1:1, inches)
 11
203.748031496063
 21
29.52755905511811
 31
0.0
100
AcDbText
  0
LWPOLYLINE
  5
109
330
17
100
AcDbEntity
  8
Vanity edge
100
AcDbPolyline
 90
5
 70
0
 10
245.32283464566927
 20
2.362204724409448
 10
248.0787401574803
 20
2.362204724409448
 10
248.0787401574803
 20
1.653543307086613
 10
245.32283464566927
 20
1.653543307086613
 10
245.32283464566927
 20
2.362204724409448
  0
LWPOLYLINE
  5
10A
330
17
100
AcDbEntity
  8
Vanity edge
100
AcDbPolyline
 90
5
 70
0
 10
247.37007874015745
 20
1.653543307086613
 10
248.0787401574803
 20
1.653543307086613
 10
248.0787401574803
 20
0.8661417322834648
 10
247.37007874015745
 20
0.8661417322834648
 10
247.37007874015745
 20
1.653543307086613
  0
LWPOLYLINE
  5
10B
330
17
100
AcDbEntity
  8
Vanity edge
  6
DASHED
100
AcDbPolyline
 90
5
 70
0
 10
247.37007874015745
 20
0.7480314960629926
 10
248.0787401574803
 20
0.7480314960629926
 10
248.0787401574803
 20
0.19685039370078705
 10
247.37007874015745
 20
0.19685039370078705
 10
247.37007874015745
 20
0.7480314960629926
  0
LWPOLYLINE
  5
10C
330
17
100
AcDbEntity
  8
Vanity edge
100
AcDbPolyline
 90
5
 70
0
 10
245.32283464566927
 20
3.149606299212598
 10
248.3543307086614
 20
3.149606299212598
 10
248.3543307086614
 20
2.362204724409448
 10
245.32283464566927
 20
2.362204724409448
 10
245.32283464566927
 20
3.149606299212598
  0
LWPOLYLINE
  5
10D
330
17
100
AcDbEntity
  8
Vanity edge
100
AcDbPolyline
 90
6
 70
0
 10
245.32283464566927
 20
3.8582677165354333
 10
249.06299212598424
 20
3.8582677165354333
 10
249.06299212598424
 20
2.362204724409448
 10
248.3543307086614
 20
2.362204724409448
 10
248.3543307086614
 20
3.149606299212598
 10
245.32283464566927
 20
3.149606299212598
  0
LINE
  5
10E
330
17
100
AcDbEntity
  8
Vanity edge
100
AcDbLine
 10
248.3543307086614
 20
3.149606299212598
 30
0.0
 11
249.06299212598424
 21
3.858267716535433
 31
0.0
  0
LINE
  5
10F
330
17
100
AcDbEntity
  8
Vanity edge
  6
DASHED
100
AcDbLine
 10
245.32283464566927
 20
4.094488188976378
 30
0.0
 11
245.32283464566927
 21
0.0
 31
0.0
  0
TEXT
  5
110
330
17
100
AcDbEntity
  8
LABELS
100
AcDbText
 10
245.32283464566927
 20
6.456692913385827
 30
0.0
 40
0.7086614173228346
  1
VANITY EDGE  (1:1, inches)
 11
245.32283464566927
 21
6.456692913385827
 31
0.0
100
AcDbText
  0
TEXT
  5
111
330
17
100
AcDbEntity
  8
LABELS
100
AcDbText
 10
0.0
 20
-8.661417322834646
 30
0.0
 40
1.574803149606299
  1
Vanity — normal · AST-DR-019
 11
0.0
 21
-8.661417322834646
 31
0.0
100
AcDbText
  0
ENDSEC
  0
SECTION
  2
OBJECTS
  0
DICTIONARY
  5
A
330
0
100
AcDbDictionary
281
1
  3
ACAD_COLOR
350
B
  3
ACAD_GROUP
350
C
  3
ACAD_LAYOUT
350
D
  3
ACAD_MATERIAL
350
E
  3
ACAD_MLEADERSTYLE
350
F
  3
ACAD_MLINESTYLE
350
10
  3
ACAD_PLOTSETTINGS
350
11
  3
ACAD_PLOTSTYLENAME
350
12
  3
ACAD_SCALELIST
350
14
  3
ACAD_TABLESTYLE
350
15
  3
ACAD_VISUALSTYLE
350
16
  3
EZDXF_META
350
2D
  0
DICTIONARY
  5
B
330
A
100
AcDbDictionary
281
1
  0
DICTIONARY
  5
C
330
A
100
AcDbDictionary
281
1
  0
DICTIONARY
  5
D
330
A
100
AcDbDictionary
281
1
  3
Model
350
1A
  3
Layout1
350
1E
  0
DICTIONARY
  5
E
330
A
100
AcDbDictionary
281
1
  3
ByBlock
350
1F
  3
ByLayer
350
20
  3
Global
350
21
  0
DICTIONARY
  5
F
330
A
100
AcDbDictionary
281
1
  3
Standard
350
2C
  0
DICTIONARY
  5
10
330
A
100
AcDbDictionary
281
1
  3
Standard
350
22
  0
DICTIONARY
  5
11
330
A
100
AcDbDictionary
281
1
  0
ACDBDICTIONARYWDFLT
  5
12
330
A
100
AcDbDictionary
281
1
  3
Normal
350
13
100
AcDbDictionaryWithDefault
340
13
  0
ACDBPLACEHOLDER
  5
13
330
12
  0
DICTIONARY
  5
14
330
A
100
AcDbDictionary
281
1
  0
DICTIONARY
  5
15
330
A
100
AcDbDictionary
281
1
  0
DICTIONARY
  5
16
330
A
100
AcDbDictionary
281
1
  3
2dWireframe
350
5A
  3
Basic
350
5B
  3
Brighten
350
5C
  3
ColorChange
350
5D
  3
Conceptual
350
5E
  3
Dim
350
5F
  3
EdgeColorOff
350
60
  3
Facepattern
350
61
  3
Flat
350
62
  3
FlatWithEdges
350
63
  3
Gouraud
350
64
  3
GouraudWithEdges
350
65
  3
Hidden
350
66
  3
JitterOff
350
67
  3
Linepattern
350
68
  3
Modeling
350
69
  3
OverhangOff
350
6A
  3
Realistic
350
6B
  3
Shaded
350
6C
  3
Shaded with edges
350
6D
  3
Shades of Gray
350
6E
  3
Sketchy
350
6F
  3
Thicken
350
70
  3
Wireframe
350
71
  3
X-Ray
350
72
  0
LAYOUT
  5
1A
330
D
100
AcDbPlotSettings
  1

  4
A3
  6

 40
7.5
 41
20.0
 42
7.5
 43
20.0
 44
420.0
 45
297.0
 46
0.0
 47
0.0
 48
0.0
 49
0.0
140
0.0
141
0.0
142
1.0
143
1.0
 70
1024
 72
1
 73
0
 74
5
  7

 75
16
 76
0
 77
2
 78
300
147
1.0
148
0.0
149
0.0
100
AcDbLayout
  1
Model
 70
1
 71
0
 10
0.0
 20
0.0
 11
420.0
 21
297.0
 12
0.0
 22
0.0
 32
0.0
 14
1e+20
 24
1e+20
 34
1e+20
 15
-1e+20
 25
-1e+20
 35
-1e+20
146
0.0
 13
0.0
 23
0.0
 33
0.0
 16
1.0
 26
0.0
 36
0.0
 17
0.0
 27
1.0
 37
0.0
 76
1
330
17
  0
LAYOUT
  5
1E
330
D
100
AcDbPlotSettings
  1

  4
A3
  6

 40
7.5
 41
20.0
 42
7.5
 43
20.0
 44
420.0
 45
297.0
 46
0.0
 47
0.0
 48
0.0
 49
0.0
140
0.0
141
0.0
142
1.0
143
1.0
 70
0
 72
1
 73
0
 74
5
  7

 75
16
 76
0
 77
2
 78
300
147
1.0
148
0.0
149
0.0
100
AcDbLayout
  1
Layout1
 70
1
 71
1
 10
0.0
 20
0.0
 11
420.0
 21
297.0
 12
0.0
 22
0.0
 32
0.0
 14
1e+20
 24
1e+20
 34
1e+20
 15
-1e+20
 25
-1e+20
 35
-1e+20
146
0.0
 13
0.0
 23
0.0
 33
0.0
 16
1.0
 26
0.0
 36
0.0
 17
0.0
 27
1.0
 37
0.0
 76
1
330
1B
  0
MATERIAL
  5
1F
102
{ACAD_REACTORS
330
E
102
}
330
E
100
AcDbMaterial
  1
ByBlock
  2

 70
0
 40
1.0
 71
1
 41
1.0
 91
-1023410177
 42
1.0
 72
1
  3

 73
1
 74
1
 75
1
 44
0.5
 73
0
 45
1.0
 46
1.0
 77
1
  4

 78
1
 79
1
170
1
 48
1.0
171
1
  6

172
1
173
1
174
1
140
1.0
141
1.0
175
1
  7

176
1
177
1
178
1
143
1.0
179
1
  8

270
1
271
1
272
1
145
1.0
146
1.0
273
1
  9

274
1
275
1
276
1
 42
1.0
 72
1
  3

 73
1
 74
1
 75
1
 94
63
  0
MATERIAL
  5
20
102
{ACAD_REACTORS
330
E
102
}
330
E
100
AcDbMaterial
  1
ByLayer
  2

 70
0
 40
1.0
 71
1
 41
1.0
 91
-1023410177
 42
1.0
 72
1
  3

 73
1
 74
1
 75
1
 44
0.5
 73
0
 45
1.0
 46
1.0
 77
1
  4

 78
1
 79
1
170
1
 48
1.0
171
1
  6

172
1
173
1
174
1
140
1.0
141
1.0
175
1
  7

176
1
177
1
178
1
143
1.0
179
1
  8

270
1
271
1
272
1
145
1.0
146
1.0
273
1
  9

274
1
275
1
276
1
 42
1.0
 72
1
  3

 73
1
 74
1
 75
1
 94
63
  0
MATERIAL
  5
21
102
{ACAD_REACTORS
330
E
102
}
330
E
100
AcDbMaterial
  1
Global
  2

 70
0
 40
1.0
 71
1
 41
1.0
 91
-1023410177
 42
1.0
 72
1
  3

 73
1
 74
1
 75
1
 44
0.5
 73
0
 45
1.0
 46
1.0
 77
1
  4

 78
1
 79
1
170
1
 48
1.0
171
1
  6

172
1
173
1
174
1
140
1.0
141
1.0
175
1
  7

176
1
177
1
178
1
143
1.0
179
1
  8

270
1
271
1
272
1
145
1.0
146
1.0
273
1
  9

274
1
275
1
276
1
 42
1.0
 72
1
  3

 73
1
 74
1
 75
1
 94
63
  0
MLINESTYLE
  5
22
102
{ACAD_REACTORS
330
10
102
}
330
10
100
AcDbMlineStyle
  2
Standard
 70
0
  3

 62
256
 51
90.0
 52
90.0
 71
2
 49
0.5
 62
256
  6
BYLAYER
 49
-0.5
 62
256
  6
BYLAYER
  0
MLEADERSTYLE
  5
2C
102
{ACAD_REACTORS
330
F
102
}
330
F
100
AcDbMLeaderStyle
179
2
170
2
171
1
172
0
 90
2
 40
0.0
 41
0.0
173
1
 91
-1056964608
 92
-2
290
1
 42
2.0
291
1
 43
8.0
  3
Standard
 44
4.0
300

342
29
174
1
175
1
176
0
178
1
 93
-1056964608
 45
4.0
292
0
297
0
 46
4.0
 94
-1056964608
 47
1.0
 49
1.0
140
1.0
294
1
141
0.0
177
0
142
1.0
295
0
296
0
143
3.75
271
0
272
9
273
9
  0
DICTIONARY
  5
2D
330
A
100
AcDbDictionary
280
1
281
1
  3
CREATED_BY_EZDXF
350
2E
  3
WRITTEN_BY_EZDXF
350
114
  0
DICTIONARYVAR
  5
2E
330
2D
100
DictionaryVariables
280
0
  1
1.4.2 @ 2026-09-23T13:24:05.544988+00:00
  0
VISUALSTYLE
  5
5A
102
{ACAD_REACTORS
330
16
102
}
330
16
100
AcDbVisualStyle
  2
2dWireframe
 70
4
 90
0
 40
0.6
 62
7
290
0
291
0
  0
VISUALSTYLE
  5
5B
102
{ACAD_REACTORS
330
16
102
}
330
16
100
AcDbVisualStyle
  2
Basic
 70
7
 90
1
 40
0.6
 62
7
290
0
291
1
  0
VISUALSTYLE
  5
5C
102
{ACAD_REACTORS
330
16
102
}
330
16
100
AcDbVisualStyle
  2
Brighten
 70
12
 90
2
 40
0.6
 62
7
290
0
291
1
  0
VISUALSTYLE
  5
5D
102
{ACAD_REACTORS
330
16
102
}
330
16
100
AcDbVisualStyle
  2
ColorChange
 70
16
 90
2
 40
0.6
 62
8
290
0
291
1
  0
VISUALSTYLE
  5
5E
102
{ACAD_REACTORS
330
16
102
}
330
16
100
AcDbVisualStyle
  2
Conceptual
 70
9
 90
3
 40
0.6
 62
7
290
0
291
0
  0
VISUALSTYLE
  5
5F
102
{ACAD_REACTORS
330
16
102
}
330
16
100
AcDbVisualStyle
  2
Dim
 70
11
 90
2
 40
0.6
 62
7
290
0
291
1
  0
VISUALSTYLE
  5
60
102
{ACAD_REACTORS
330
16
102
}
330
16
100
AcDbVisualStyle
  2
EdgeColorOff
 70
22
 90
2
 40
0.6
 62
7
290
0
291
1
  0
VISUALSTYLE
  5
61
102
{ACAD_REACTORS
330
16
102
}
330
16
100
AcDbVisualStyle
  2
Facepattern
 70
15
 90
2
 40
0.6
 62
7
290
0
291
1
  0
VISUALSTYLE
  5
62
102
{ACAD_REACTORS
330
16
102
}
330
16
100
AcDbVisualStyle
  2
Flat
 70
0
 90
2
 40
0.6
 62
7
290
0
291
1
  0
VISUALSTYLE
  5
63
102
{ACAD_REACTORS
330
16
102
}
330
16
100
AcDbVisualStyle
  2
FlatWithEdges
 70
1
 90
2
 40
0.6
 62
7
290
0
291
1
  0
VISUALSTYLE
  5
64
102
{ACAD_REACTORS
330
16
102
}
330
16
100
AcDbVisualStyle
  2
Gouraud
 70
2
 90
2
 40
0.6
 62
7
290
0
291
1
  0
VISUALSTYLE
  5
65
102
{ACAD_REACTORS
330
16
102
}
330
16
100
AcDbVisualStyle
  2
GouraudWithEdges
 70
3
 90
2
 40
0.6
 62
7
290
0
291
1
  0
VISUALSTYLE
  5
66
102
{ACAD_REACTORS
330
16
102
}
330
16
100
AcDbVisualStyle
  2
Hidden
 70
6
 90
1
 40
0.6
 62
7
290
0
291
0
  0
VISUALSTYLE
  5
67
102
{ACAD_REACTORS
330
16
102
}
330
16
100
AcDbVisualStyle
  2
JitterOff
 70
20
 90
2
 40
0.6
 62
7
290
0
291
1
  0
VISUALSTYLE
  5
68
102
{ACAD_REACTORS
330
16
102
}
330
16
100
AcDbVisualStyle
  2
Linepattern
 70
14
 90
2
 40
0.6
 62
7
290
0
291
1
  0
VISUALSTYLE
  5
69
102
{ACAD_REACTORS
330
16
102
}
330
16
100
AcDbVisualStyle
  2
Modeling
 70
10
 90
2
 40
0.6
 62
7
290
0
291
0
  0
VISUALSTYLE
  5
6A
102
{ACAD_REACTORS
330
16
102
}
330
16
100
AcDbVisualStyle
  2
OverhangOff
 70
21
 90
2
 40
0.6
 62
7
290
0
291
1
  0
VISUALSTYLE
  5
6B
102
{ACAD_REACTORS
330
16
102
}
330
16
100
AcDbVisualStyle
  2
Realistic
 70
8
 90
2
 40
0.6
 62
7
290
0
291
0
  0
VISUALSTYLE
  5
6C
102
{ACAD_REACTORS
330
16
102
}
330
16
100
AcDbVisualStyle
  2
Shaded
 70
27
 90
2
 40
0.6
 62
7
290
0
291
0
  0
VISUALSTYLE
  5
6D
102
{ACAD_REACTORS
330
16
102
}
330
16
100
AcDbVisualStyle
  2
Shaded with edges
 70
26
 90
2
 40
0.6
 62
7
290
0
291
0
  0
VISUALSTYLE
  5
6E
102
{ACAD_REACTORS
330
16
102
}
330
16
100
AcDbVisualStyle
  2
Shades of Gray
 70
23
 90
2
 40
0.6
 62
7
290
0
291
0
  0
VISUALSTYLE
  5
6F
102
{ACAD_REACTORS
330
16
102
}
330
16
100
AcDbVisualStyle
  2
Sketchy
 70
24
 90
1
 40
0.6
 62
7
290
0
291
0
  0
VISUALSTYLE
  5
70
102
{ACAD_REACTORS
330
16
102
}
330
16
100
AcDbVisualStyle
  2
Thicken
 70
13
 90
2
 40
0.6
 62
7
290
0
291
1
  0
VISUALSTYLE
  5
71
102
{ACAD_REACTORS
330
16
102
}
330
16
100
AcDbVisualStyle
  2
Wireframe
 70
5
 90
0
 40
0.6
 62
7
290
0
291
0
  0
VISUALSTYLE
  5
72
102
{ACAD_REACTORS
330
16
102
}
330
16
100
AcDbVisualStyle
  2
X-Ray
 70
25
 90
2
 40
0.5
 62
7
290
0
291
0
  0
DICTIONARYVAR
  5
114
330
2D
100
DictionaryVariables
280
0
  1
1.4.2 @ 2026-09-23T13:24:05.562342+00:00
  0
ENDSEC
  0
EOF
