  0
SECTION
  2
HEADER
  9
$ACADVER
  1
AC1024
  9
$ACADMAINTVER
 70
6
  9
$DWGCODEPAGE
  3
ANSI_1252
  9
$LASTSAVEDBY
  1
ezdxf
  9
$INSBASE
 10
0.0
 20
0.0
 30
0.0
  9
$EXTMIN
 10
1e+20
 20
1e+20
 30
1e+20
  9
$EXTMAX
 10
-1e+20
 20
-1e+20
 30
-1e+20
  9
$LIMMIN
 10
0.0
 20
0.0
  9
$LIMMAX
 10
420.0
 20
297.0
  9
$ORTHOMODE
 70
0
  9
$REGENMODE
 70
1
  9
$FILLMODE
 70
1
  9
$QTEXTMODE
 70
0
  9
$MIRRTEXT
 70
1
  9
$LTSCALE
 40
0.00984251968503937
  9
$ATTMODE
 70
1
  9
$TEXTSIZE
 40
2.5
  9
$TRACEWID
 40
1.0
  9
$TEXTSTYLE
  7
OpenSans
  9
$CLAYER
  8
0
  9
$CELTYPE
  6
ByLayer
  9
$CECOLOR
 62
256
  9
$CELTSCALE
 40
1.0
  9
$DISPSILH
 70
0
  9
$DIMSCALE
 40
1.0
  9
$DIMASZ
 40
0.175
  9
$DIMEXO
 40
0.125
  9
$DIMDLI
 40
3.75
  9
$DIMRND
 40
0.0
  9
$DIMDLE
 40
0.0
  9
$DIMEXE
 40
0.375
  9
$DIMTP
 40
0.0
  9
$DIMTM
 40
0.0
  9
$DIMTXT
 40
0.25
  9
$DIMCEN
 40
2.5
  9
$DIMTSZ
 40
0.0
  9
$DIMTOL
 70
0
  9
$DIMLIM
 70
0
  9
$DIMTIH
 70
0
  9
$DIMTOH
 70
0
  9
$DIMSE1
 70
0
  9
$DIMSE2
 70
0
  9
$DIMTAD
 70
1
  9
$DIMZIN
 70
12
  9
$DIMBLK
  1
ARCHTICK
  9
$DIMASO
 70
1
  9
$DIMSHO
 70
1
  9
$DIMPOST
  1

  9
$DIMAPOST
  1

  9
$DIMALT
 70
0
  9
$DIMALTD
 70
3
  9
$DIMALTF
 40
0.03937007874
  9
$DIMLFAC
 40
100.0
  9
$DIMTOFL
 70
1
  9
$DIMTVP
 40
0.0
  9
$DIMTIX
 70
0
  9
$DIMSOXD
 70
0
  9
$DIMSAH
 70
0
  9
$DIMBLK1
  1

  9
$DIMBLK2
  1

  9
$DIMSTYLE
  2
EZDXF
  9
$DIMCLRD
 70
0
  9
$DIMCLRE
 70
0
  9
$DIMCLRT
 70
0
  9
$DIMTFAC
 40
0.5
  9
$DIMGAP
 40
0.1
  9
$DIMJUST
 70
0
  9
$DIMSD1
 70
0
  9
$DIMSD2
 70
0
  9
$DIMTOLJ
 70
0
  9
$DIMTZIN
 70
8
  9
$DIMALTZ
 70
0
  9
$DIMALTTZ
 70
0
  9
$DIMUPT
 70
1
  9
$DIMDEC
 70
2
  9
$DIMTDEC
 70
2
  9
$DIMALTU
 70
2
  9
$DIMALTTD
 70
3
  9
$DIMTXSTY
  7
OpenSansCondensed-Light
  9
$DIMAUNIT
 70
0
  9
$DIMADEC
 70
2
  9
$DIMALTRND
 40
0.0
  9
$DIMAZIN
 70
3
  9
$DIMDSEP
 70
46
  9
$DIMATFIT
 70
3
  9
$DIMFRAC
 70
0
  9
$DIMLDRBLK
  1

  9
$DIMLUNIT
 70
2
  9
$DIMLWD
 70
-2
  9
$DIMLWE
 70
-2
  9
$DIMTMOVE
 70
2
  9
$DIMFXL
 40
1.0
  9
$DIMFXLON
 70
0
  9
$DIMJOGANG
 40
0.785398163397
  9
$DIMTFILL
 70
0
  9
$DIMTFILLCLR
 70
0
  9
$DIMARCSYM
 70
0
  9
$DIMLTYPE
  6

  9
$DIMLTEX1
  6

  9
$DIMLTEX2
  6

  9
$DIMTXTDIRECTION
 70
0
  9
$LUNITS
 70
4
  9
$LUPREC
 70
4
  9
$SKETCHINC
 40
1.0
  9
$FILLETRAD
 40
10.0
  9
$AUNITS
 70
0
  9
$AUPREC
 70
3
  9
$MENU
  1
.
  9
$ELEVATION
 40
0.0
  9
$PELEVATION
 40
0.0
  9
$THICKNESS
 40
0.0
  9
$LIMCHECK
 70
0
  9
$CHAMFERA
 40
0.0
  9
$CHAMFERB
 40
0.0
  9
$CHAMFERC
 40
0.0
  9
$CHAMFERD
 40
0.0
  9
$SKPOLY
 70
0
  9
$TDCREATE
 40
2461322.850821759
  9
$TDUCREATE
 40
2458532.153996898
  9
$TDUPDATE
 40
2461322.850821759
  9
$TDUUPDATE
 40
2458532.1544311
  9
$TDINDWG
 40
0.0
  9
$TDUSRTIMER
 40
0.0
  9
$USRTIMER
 70
1
  9
$ANGBASE
 50
0.0
  9
$ANGDIR
 70
0
  9
$PDMODE
 70
0
  9
$PDSIZE
 40
0.0
  9
$PLINEWID
 40
0.0
  9
$SPLFRAME
 70
0
  9
$SPLINETYPE
 70
6
  9
$SPLINESEGS
 70
8
  9
$HANDSEED
  5
23F
  9
$SURFTAB1
 70
6
  9
$SURFTAB2
 70
6
  9
$SURFTYPE
 70
6
  9
$SURFU
 70
6
  9
$SURFV
 70
6
  9
$UCSBASE
  2

  9
$UCSNAME
  2

  9
$UCSORG
 10
0.0
 20
0.0
 30
0.0
  9
$UCSXDIR
 10
1.0
 20
0.0
 30
0.0
  9
$UCSYDIR
 10
0.0
 20
1.0
 30
0.0
  9
$UCSORTHOREF
  2

  9
$UCSORTHOVIEW
 70
0
  9
$UCSORGTOP
 10
0.0
 20
0.0
 30
0.0
  9
$UCSORGBOTTOM
 10
0.0
 20
0.0
 30
0.0
  9
$UCSORGLEFT
 10
0.0
 20
0.0
 30
0.0
  9
$UCSORGRIGHT
 10
0.0
 20
0.0
 30
0.0
  9
$UCSORGFRONT
 10
0.0
 20
0.0
 30
0.0
  9
$UCSORGBACK
 10
0.0
 20
0.0
 30
0.0
  9
$PUCSBASE
  2

  9
$PUCSNAME
  2

  9
$PUCSORG
 10
0.0
 20
0.0
 30
0.0
  9
$PUCSXDIR
 10
1.0
 20
0.0
 30
0.0
  9
$PUCSYDIR
 10
0.0
 20
1.0
 30
0.0
  9
$PUCSORTHOREF
  2

  9
$PUCSORTHOVIEW
 70
0
  9
$PUCSORGTOP
 10
0.0
 20
0.0
 30
0.0
  9
$PUCSORGBOTTOM
 10
0.0
 20
0.0
 30
0.0
  9
$PUCSORGLEFT
 10
0.0
 20
0.0
 30
0.0
  9
$PUCSORGRIGHT
 10
0.0
 20
0.0
 30
0.0
  9
$PUCSORGFRONT
 10
0.0
 20
0.0
 30
0.0
  9
$PUCSORGBACK
 10
0.0
 20
0.0
 30
0.0
  9
$USERI1
 70
0
  9
$USERI2
 70
0
  9
$USERI3
 70
0
  9
$USERI4
 70
0
  9
$USERI5
 70
0
  9
$USERR1
 40
0.0
  9
$USERR2
 40
0.0
  9
$USERR3
 40
0.0
  9
$USERR4
 40
0.0
  9
$USERR5
 40
0.0
  9
$WORLDVIEW
 70
1
  9
$SHADEDGE
 70
3
  9
$SHADEDIF
 70
70
  9
$TILEMODE
 70
1
  9
$MAXACTVP
 70
64
  9
$PINSBASE
 10
0.0
 20
0.0
 30
0.0
  9
$PLIMCHECK
 70
0
  9
$PEXTMIN
 10
1e+20
 20
1e+20
 30
1e+20
  9
$PEXTMAX
 10
-1e+20
 20
-1e+20
 30
-1e+20
  9
$PLIMMIN
 10
0.0
 20
0.0
  9
$PLIMMAX
 10
420.0
 20
297.0
  9
$UNITMODE
 70
0
  9
$VISRETAIN
 70
1
  9
$PLINEGEN
 70
0
  9
$PSLTSCALE
 70
1
  9
$TREEDEPTH
 70
3020
  9
$CMLSTYLE
  2
Standard
  9
$CMLJUST
 70
0
  9
$CMLSCALE
 40
20.0
  9
$PROXYGRAPHICS
 70
1
  9
$MEASUREMENT
 70
0
  9
$CELWEIGHT
370
-1
  9
$ENDCAPS
280
0
  9
$JOINSTYLE
280
0
  9
$LWDISPLAY
290
0
  9
$INSUNITS
 70
1
  9
$HYPERLINKBASE
  1

  9
$STYLESHEET
  1

  9
$XEDIT
290
1
  9
$CEPSNTYPE
380
0
  9
$PSTYLEMODE
290
1
  9
$FINGERPRINTGUID
  2
{D9534299-C5B8-4AA8-AD3E-F1E6A88FF92F}
  9
$VERSIONGUID
  2
{B03C47CA-1D81-4A02-AD95-14DD6D8BE973}
  9
$EXTNAMES
290
1
  9
$PSVPSCALE
 40
0.0
  9
$OLESTARTUP
290
0
  9
$SORTENTS
280
127
  9
$INDEXCTL
280
0
  9
$HIDETEXT
280
1
  9
$XCLIPFRAME
280
1
  9
$HALOGAP
280
0
  9
$OBSCOLOR
 70
257
  9
$OBSLTYPE
280
0
  9
$INTERSECTIONDISPLAY
280
0
  9
$INTERSECTIONCOLOR
 70
257
  9
$DIMASSOC
280
2
  9
$PROJECTNAME
  1

  9
$CAMERADISPLAY
290
0
  9
$LENSLENGTH
 40
50.0
  9
$CAMERAHEIGHT
 40
0.0
  9
$STEPSPERSEC
 40
24.0
  9
$STEPSIZE
 40
100.0
  9
$3DDWFPREC
 40
2.0
  9
$PSOLWIDTH
 40
0.005
  9
$PSOLHEIGHT
 40
0.08
  9
$LOFTANG1
 40
1.570796326795
  9
$LOFTANG2
 40
1.570796326795
  9
$LOFTMAG1
 40
0.0
  9
$LOFTMAG2
 40
0.0
  9
$LOFTPARAM
 70
7
  9
$LOFTNORMALS
280
1
  9
$LATITUDE
 40
37.795
  9
$LONGITUDE
 40
-122.394
  9
$NORTHDIRECTION
 40
0.0
  9
$TIMEZONE
 70
-8000
  9
$LIGHTGLYPHDISPLAY
280
1
  9
$TILEMODELIGHTSYNCH
280
1
  9
$CMATERIAL
347
20
  9
$SOLIDHIST
280
0
  9
$SHOWHIST
280
1
  9
$DWFFRAME
280
2
  9
$DGNFRAME
280
2
  9
$REALWORLDSCALE
290
1
  9
$INTERFERECOLOR
 62
256
  9
$CSHADOW
280
0
  9
$SHADOWPLANELOCATION
 40
0.0
  0
ENDSEC
  0
SECTION
  2
CLASSES
  0
CLASS
  1
ACDBDICTIONARYWDFLT
  2
AcDbDictionaryWithDefault
  3
ObjectDBX Classes
 90
0
 91
0
280
0
281
0
  0
CLASS
  1
SUN
  2
AcDbSun
  3
SCENEOE
 90
1153
 91
0
280
0
281
0
  0
CLASS
  1
VISUALSTYLE
  2
AcDbVisualStyle
  3
ObjectDBX Classes
 90
4095
 91
0
280
0
281
0
  0
CLASS
  1
MATERIAL
  2
AcDbMaterial
  3
ObjectDBX Classes
 90
1153
 91
0
280
0
281
0
  0
CLASS
  1
SCALE
  2
AcDbScale
  3
ObjectDBX Classes
 90
1153
 91
0
280
0
281
0
  0
CLASS
  1
TABLESTYLE
  2
AcDbTableStyle
  3
ObjectDBX Classes
 90
4095
 91
0
280
0
281
0
  0
CLASS
  1
MLEADERSTYLE
  2
AcDbMLeaderStyle
  3
ACDB_MLEADERSTYLE_CLASS
 90
4095
 91
0
280
0
281
0
  0
CLASS
  1
DICTIONARYVAR
  2
AcDbDictionaryVar
  3
ObjectDBX Classes
 90
0
 91
0
280
0
281
0
  0
CLASS
  1
CELLSTYLEMAP
  2
AcDbCellStyleMap
  3
ObjectDBX Classes
 90
1152
 91
0
280
0
281
0
  0
CLASS
  1
MENTALRAYRENDERSETTINGS
  2
AcDbMentalRayRenderSettings
  3
SCENEOE
 90
1024
 91
0
280
0
281
0
  0
CLASS
  1
ACDBDETAILVIEWSTYLE
  2
AcDbDetailViewStyle
  3
ObjectDBX Classes
 90
1025
 91
0
280
0
281
0
  0
CLASS
  1
ACDBSECTIONVIEWSTYLE
  2
AcDbSectionViewStyle
  3
ObjectDBX Classes
 90
1025
 91
0
280
0
281
0
  0
CLASS
  1
RASTERVARIABLES
  2
AcDbRasterVariables
  3
ISM
 90
0
 91
0
280
0
281
0
  0
CLASS
  1
ACDBPLACEHOLDER
  2
AcDbPlaceHolder
  3
ObjectDBX Classes
 90
0
 91
0
280
0
281
0
  0
CLASS
  1
LAYOUT
  2
AcDbLayout
  3
ObjectDBX Classes
 90
0
 91
0
280
0
281
0
  0
ENDSEC
  0
SECTION
  2
TABLES
  0
TABLE
  2
VPORT
  5
8
330
0
100
AcDbSymbolTable
 70
1
  0
VPORT
  5
23
330
8
100
AcDbSymbolTableRecord
100
AcDbViewportTableRecord
  2
*Active
 70
0
 10
0.0
 20
0.0
 11
1.0
 21
1.0
 12
0.0
 22
0.0
 13
0.0
 23
0.0
 14
0.5
 24
0.5
 15
0.5
 25
0.5
 16
0.0
 26
0.0
 36
1.0
 17
0.0
 27
0.0
 37
0.0
 40
1000.0
 41
1.34
 42
50.0
 43
0.0
 44
0.0
 50
0.0
 51
0.0
 71
0
 72
1000
 73
1
 74
3
 75
0
 76
0
 77
0
 78
0
281
0
 65
0
146
0.0
  0
ENDTAB
  0
TABLE
  2
LTYPE
  5
2
330
0
100
AcDbSymbolTable
 70
21
  0
LTYPE
  5
24
330
2
100
AcDbSymbolTableRecord
100
AcDbLinetypeTableRecord
  2
ByBlock
 70
0
  3

 72
65
 73
0
 40
0.0
  0
LTYPE
  5
25
330
2
100
AcDbSymbolTableRecord
100
AcDbLinetypeTableRecord
  2
ByLayer
 70
0
  3

 72
65
 73
0
 40
0.0
  0
LTYPE
  5
26
330
2
100
AcDbSymbolTableRecord
100
AcDbLinetypeTableRecord
  2
Continuous
 70
0
  3

 72
65
 73
0
 40
0.0
  0
LTYPE
  5
2F
330
2
100
AcDbSymbolTableRecord
100
AcDbLinetypeTableRecord
  2
CENTER
 70
0
  3
Center ____ _ ____ _ ____ _ ____ _ ____ _ ____
 72
65
 73
4
 40
2.0
 49
1.25
 74
0
 49
-0.25
 74
0
 49
0.25
 74
0
 49
-0.25
 74
0
  0
LTYPE
  5
30
330
2
100
AcDbSymbolTableRecord
100
AcDbLinetypeTableRecord
  2
CENTERX2
 70
0
  3
Center (2x) ________  __  ________  __  ________
 72
65
 73
4
 40
3.5
 49
2.5
 74
0
 49
-0.25
 74
0
 49
0.5
 74
0
 49
-0.25
 74
0
  0
LTYPE
  5
31
330
2
100
AcDbSymbolTableRecord
100
AcDbLinetypeTableRecord
  2
CENTER2
 70
0
  3
Center (.5x) ____ _ ____ _ ____ _ ____ _ ____
 72
65
 73
4
 40
1.0
 49
0.625
 74
0
 49
-0.125
 74
0
 49
0.125
 74
0
 49
-0.125
 74
0
  0
LTYPE
  5
32
330
2
100
AcDbSymbolTableRecord
100
AcDbLinetypeTableRecord
  2
DASHED
 70
0
  3
Dashed __ __ __ __ __ __ __ __ __ __ __ __ __ _
 72
65
 73
2
 40
0.6
 49
0.5
 74
0
 49
-0.1
 74
0
  0
LTYPE
  5
33
330
2
100
AcDbSymbolTableRecord
100
AcDbLinetypeTableRecord
  2
DASHEDX2
 70
0
  3
Dashed (2x) ____  ____  ____  ____  ____  ____
 72
65
 73
2
 40
1.2
 49
1.0
 74
0
 49
-0.2
 74
0
  0
LTYPE
  5
34
330
2
100
AcDbSymbolTableRecord
100
AcDbLinetypeTableRecord
  2
DASHED2
 70
0
  3
Dashed (.5x) _ _ _ _ _ _ _ _ _ _ _ _ _ _
 72
65
 73
2
 40
0.3
 49
0.25
 74
0
 49
-0.05
 74
0
  0
LTYPE
  5
35
330
2
100
AcDbSymbolTableRecord
100
AcDbLinetypeTableRecord
  2
PHANTOM
 70
0
  3
Phantom ______  __  __  ______  __  __  ______
 72
65
 73
6
 40
2.5
 49
1.25
 74
0
 49
-0.25
 74
0
 49
0.25
 74
0
 49
-0.25
 74
0
 49
0.25
 74
0
 49
-0.25
 74
0
  0
LTYPE
  5
36
330
2
100
AcDbSymbolTableRecord
100
AcDbLinetypeTableRecord
  2
PHANTOMX2
 70
0
  3
Phantom (2x)____________    ____    ____    ____________
 72
65
 73
6
 40
4.25
 49
2.5
 74
0
 49
-0.25
 74
0
 49
0.5
 74
0
 49
-0.25
 74
0
 49
0.5
 74
0
 49
-0.25
 74
0
  0
LTYPE
  5
37
330
2
100
AcDbSymbolTableRecord
100
AcDbLinetypeTableRecord
  2
PHANTOM2
 70
0
  3
Phantom (.5x) ___ _ _ ___ _ _ ___ _ _ ___ _ _ ___
 72
65
 73
6
 40
1.25
 49
0.625
 74
0
 49
-0.125
 74
0
 49
0.125
 74
0
 49
-0.125
 74
0
 49
0.125
 74
0
 49
-0.125
 74
0
  0
LTYPE
  5
38
330
2
100
AcDbSymbolTableRecord
100
AcDbLinetypeTableRecord
  2
DASHDOT
 70
0
  3
Dash dot __ . __ . __ . __ . __ . __ . __ . __
 72
65
 73
4
 40
1.4
 49
1.0
 74
0
 49
-0.2
 74
0
 49
0.0
 74
0
 49
-0.2
 74
0
  0
LTYPE
  5
39
330
2
100
AcDbSymbolTableRecord
100
AcDbLinetypeTableRecord
  2
DASHDOTX2
 70
0
  3
Dash dot (2x) ____  .  ____  .  ____  .  ____
 72
65
 73
4
 40
2.4
 49
2.0
 74
0
 49
-0.2
 74
0
 49
0.0
 74
0
 49
-0.2
 74
0
  0
LTYPE
  5
3A
330
2
100
AcDbSymbolTableRecord
100
AcDbLinetypeTableRecord
  2
DASHDOT2
 70
0
  3
Dash dot (.5x) _ . _ . _ . _ . _ . _ . _ . _
 72
65
 73
4
 40
0.7
 49
0.5
 74
0
 49
-0.1
 74
0
 49
0.0
 74
0
 49
-0.1
 74
0
  0
LTYPE
  5
3B
330
2
100
AcDbSymbolTableRecord
100
AcDbLinetypeTableRecord
  2
DOT
 70
0
  3
Dot .  .  .  .  .  .  .  .  .  .  .  .  .  .  .  .
 72
65
 73
2
 40
0.2
 49
0.0
 74
0
 49
-0.2
 74
0
  0
LTYPE
  5
3C
330
2
100
AcDbSymbolTableRecord
100
AcDbLinetypeTableRecord
  2
DOTX2
 70
0
  3
Dot (2x) .    .    .    .    .    .    .    . 
 72
65
 73
2
 40
0.4
 49
0.0
 74
0
 49
-0.4
 74
0
  0
LTYPE
  5
3D
330
2
100
AcDbSymbolTableRecord
100
AcDbLinetypeTableRecord
  2
DOT2
 70
0
  3
Dot (.5) . . . . . . . . . . . . . . . . . . . 
 72
65
 73
2
 40
0.1
 49
0.0
 74
0
 49
-0.1
 74
0
  0
LTYPE
  5
3E
330
2
100
AcDbSymbolTableRecord
100
AcDbLinetypeTableRecord
  2
DIVIDE
 70
0
  3
Divide __ . . __ . . __ . . __ . . __ . . __
 72
65
 73
6
 40
1.6
 49
1.0
 74
0
 49
-0.2
 74
0
 49
0.0
 74
0
 49
-0.2
 74
0
 49
0.0
 74
0
 49
-0.2
 74
0
  0
LTYPE
  5
3F
330
2
100
AcDbSymbolTableRecord
100
AcDbLinetypeTableRecord
  2
DIVIDEX2
 70
0
  3
Divide (2x) ____  . .  ____  . .  ____  . .  ____
 72
65
 73
6
 40
2.6
 49
2.0
 74
0
 49
-0.2
 74
0
 49
0.0
 74
0
 49
-0.2
 74
0
 49
0.0
 74
0
 49
-0.2
 74
0
  0
LTYPE
  5
40
330
2
100
AcDbSymbolTableRecord
100
AcDbLinetypeTableRecord
  2
DIVIDE2
 70
0
  3
Divide(.5x) _ . _ . _ . _ . _ . _ . _ . _
 72
65
 73
6
 40
0.8
 49
0.5
 74
0
 49
-0.1
 74
0
 49
0.0
 74
0
 49
-0.1
 74
0
 49
0.0
 74
0
 49
-0.1
 74
0
  0
ENDTAB
  0
TABLE
  2
LAYER
  5
1
330
0
100
AcDbSymbolTable
 70
6
  0
LAYER
  5
27
330
1
100
AcDbSymbolTableRecord
100
AcDbLayerTableRecord
  2
0
 70
0
 62
7
  6
Continuous
370
-3
390
13
347
21
  0
LAYER
  5
28
330
1
100
AcDbSymbolTableRecord
100
AcDbLayerTableRecord
  2
Defpoints
 70
0
 62
7
  6
Continuous
290
0
370
-3
390
13
347
21
  0
LAYER
  5
8A
330
1
100
AcDbSymbolTableRecord
100
AcDbLayerTableRecord
  2
GEOMETRY
 70
0
 62
7
  6
Continuous
370
-3
390
13
347
21
  0
LAYER
  5
8B
330
1
100
AcDbSymbolTableRecord
100
AcDbLayerTableRecord
  2
DIMENSIONS
 70
0
 62
1
  6
Continuous
370
-3
390
13
347
21
  0
LAYER
  5
8C
330
1
100
AcDbSymbolTableRecord
100
AcDbLayerTableRecord
  2
TEXT
 70
0
 62
7
  6
Continuous
370
-3
390
13
347
21
  0
LAYER
  5
8D
330
1
100
AcDbSymbolTableRecord
100
AcDbLayerTableRecord
  2
HATCH
 70
0
 62
8
  6
Continuous
370
-3
390
13
347
21
  0
ENDTAB
  0
TABLE
  2
STYLE
  5
5
330
0
100
AcDbSymbolTable
 70
26
  0
STYLE
  5
29
330
5
100
AcDbSymbolTableRecord
100
AcDbTextStyleTableRecord
  2
Standard
 70
0
 40
0.0
 41
1.0
 50
0.0
 71
0
 42
2.5
  3
txt
  4

  0
STYLE
  5
41
330
5
100
AcDbSymbolTableRecord
100
AcDbTextStyleTableRecord
  2
OpenSans-Light
 70
0
 40
0.0
 41
1.0
 50
0.0
 71
0
 42
2.5
  3
OpenSans-Light.ttf
  4

  0
STYLE
  5
42
330
5
100
AcDbSymbolTableRecord
100
AcDbTextStyleTableRecord
  2
OpenSans-Light-Italic
 70
0
 40
0.0
 41
1.0
 50
0.0
 71
0
 42
2.5
  3
OpenSans-LightItalic.ttf
  4

  0
STYLE
  5
43
330
5
100
AcDbSymbolTableRecord
100
AcDbTextStyleTableRecord
  2
OpenSans
 70
0
 40
0.0
 41
1.0
 50
0.0
 71
0
 42
2.5
  3
OpenSans-Regular.ttf
  4

  0
STYLE
  5
44
330
5
100
AcDbSymbolTableRecord
100
AcDbTextStyleTableRecord
  2
OpenSans-Italic
 70
0
 40
0.0
 41
1.0
 50
0.0
 71
0
 42
2.5
  3
OpenSans-Italic.ttf
  4

  0
STYLE
  5
45
330
5
100
AcDbSymbolTableRecord
100
AcDbTextStyleTableRecord
  2
OpenSans-SemiBold
 70
0
 40
0.0
 41
1.0
 50
0.0
 71
0
 42
2.5
  3
OpenSans-SemiBold.ttf
  4

  0
STYLE
  5
46
330
5
100
AcDbSymbolTableRecord
100
AcDbTextStyleTableRecord
  2
OpenSans-SemiBoldItalic
 70
0
 40
0.0
 41
1.0
 50
0.0
 71
0
 42
2.5
  3
OpenSans-SemiBoldItalic.ttf
  4

  0
STYLE
  5
47
330
5
100
AcDbSymbolTableRecord
100
AcDbTextStyleTableRecord
  2
OpenSans-Bold
 70
0
 40
0.0
 41
1.0
 50
0.0
 71
0
 42
2.5
  3
OpenSans-Bold.ttf
  4

  0
STYLE
  5
48
330
5
100
AcDbSymbolTableRecord
100
AcDbTextStyleTableRecord
  2
OpenSans-BoldItalic
 70
0
 40
0.0
 41
1.0
 50
0.0
 71
0
 42
2.5
  3
OpenSans-BoldItalic.ttf
  4

  0
STYLE
  5
49
330
5
100
AcDbSymbolTableRecord
100
AcDbTextStyleTableRecord
  2
OpenSans-ExtraBold
 70
0
 40
0.0
 41
1.0
 50
0.0
 71
0
 42
2.5
  3
OpenSans-ExtraBold.ttf
  4

  0
STYLE
  5
4A
330
5
100
AcDbSymbolTableRecord
100
AcDbTextStyleTableRecord
  2
OpenSans-ExtraBoldItalic
 70
0
 40
0.0
 41
1.0
 50
0.0
 71
0
 42
2.5
  3
OpenSans-ExtraBoldItalic.ttf
  4

  0
STYLE
  5
4B
330
5
100
AcDbSymbolTableRecord
100
AcDbTextStyleTableRecord
  2
OpenSansCondensed-Bold
 70
0
 40
0.0
 41
1.0
 50
0.0
 71
0
 42
2.5
  3
OpenSansCondensed-Bold.ttf
  4

  0
STYLE
  5
4C
330
5
100
AcDbSymbolTableRecord
100
AcDbTextStyleTableRecord
  2
OpenSansCondensed-Light
 70
0
 40
0.0
 41
1.0
 50
0.0
 71
0
 42
2.5
  3
OpenSansCondensed-Light.ttf
  4

  0
STYLE
  5
4D
330
5
100
AcDbSymbolTableRecord
100
AcDbTextStyleTableRecord
  2
OpenSansCondensed-Italic
 70
0
 40
0.0
 41
1.0
 50
0.0
 71
0
 42
2.5
  3
OpenSansCondensed-LightItalic.ttf
  4

  0
STYLE
  5
4E
330
5
100
AcDbSymbolTableRecord
100
AcDbTextStyleTableRecord
  2
LiberationSans
 70
0
 40
0.0
 41
1.0
 50
0.0
 71
0
 42
2.5
  3
LiberationSans-Regular.ttf
  4

  0
STYLE
  5
4F
330
5
100
AcDbSymbolTableRecord
100
AcDbTextStyleTableRecord
  2
LiberationSans-Bold
 70
0
 40
0.0
 41
1.0
 50
0.0
 71
0
 42
2.5
  3
LiberationSans-Bold.ttf
  4

  0
STYLE
  5
50
330
5
100
AcDbSymbolTableRecord
100
AcDbTextStyleTableRecord
  2
LiberationSans-BoldItalic
 70
0
 40
0.0
 41
1.0
 50
0.0
 71
0
 42
2.5
  3
LiberationSans-BoldItalic.ttf
  4

  0
STYLE
  5
51
330
5
100
AcDbSymbolTableRecord
100
AcDbTextStyleTableRecord
  2
LiberationSans-Italic
 70
0
 40
0.0
 41
1.0
 50
0.0
 71
0
 42
2.5
  3
LiberationSans-Italic.ttf
  4

  0
STYLE
  5
52
330
5
100
AcDbSymbolTableRecord
100
AcDbTextStyleTableRecord
  2
LiberationSerif
 70
0
 40
0.0
 41
1.0
 50
0.0
 71
0
 42
2.5
  3
LiberationSerif-Regular.ttf
  4

  0
STYLE
  5
53
330
5
100
AcDbSymbolTableRecord
100
AcDbTextStyleTableRecord
  2
LiberationSerif-Bold
 70
0
 40
0.0
 41
1.0
 50
0.0
 71
0
 42
2.5
  3
LiberationSerif-Bold.ttf
  4

  0
STYLE
  5
54
330
5
100
AcDbSymbolTableRecord
100
AcDbTextStyleTableRecord
  2
LiberationSerif-BoldItalic
 70
0
 40
0.0
 41
1.0
 50
0.0
 71
0
 42
2.5
  3
LiberationSerif-BoldItalic.ttf
  4

  0
STYLE
  5
55
330
5
100
AcDbSymbolTableRecord
100
AcDbTextStyleTableRecord
  2
LiberationSerif-Italic
 70
0
 40
0.0
 41
1.0
 50
0.0
 71
0
 42
2.5
  3
LiberationSerif-Italic.ttf
  4

  0
STYLE
  5
56
330
5
100
AcDbSymbolTableRecord
100
AcDbTextStyleTableRecord
  2
LiberationMono
 70
0
 40
0.0
 41
1.0
 50
0.0
 71
0
 42
2.5
  3
LiberationMono-Regular.ttf
  4

  0
STYLE
  5
57
330
5
100
AcDbSymbolTableRecord
100
AcDbTextStyleTableRecord
  2
LiberationMono-Bold
 70
0
 40
0.0
 41
1.0
 50
0.0
 71
0
 42
2.5
  3
LiberationMono-Bold.ttf
  4

  0
STYLE
  5
58
330
5
100
AcDbSymbolTableRecord
100
AcDbTextStyleTableRecord
  2
LiberationMono-BoldItalic
 70
0
 40
0.0
 41
1.0
 50
0.0
 71
0
 42
2.5
  3
LiberationMono-BoldItalic.ttf
  4

  0
STYLE
  5
59
330
5
100
AcDbSymbolTableRecord
100
AcDbTextStyleTableRecord
  2
LiberationMono-Italic
 70
0
 40
0.0
 41
1.0
 50
0.0
 71
0
 42
2.5
  3
LiberationMono-Italic.ttf
  4

  0
ENDTAB
  0
TABLE
  2
VIEW
  5
7
330
0
100
AcDbSymbolTable
 70
0
  0
ENDTAB
  0
TABLE
  2
UCS
  5
6
330
0
100
AcDbSymbolTable
 70
0
  0
ENDTAB
  0
TABLE
  2
APPID
  5
3
330
0
100
AcDbSymbolTable
 70
3
  0
APPID
  5
2A
330
3
100
AcDbSymbolTableRecord
100
AcDbRegAppTableRecord
  2
ACAD
 70
0
  0
APPID
  5
23C
330
3
100
AcDbSymbolTableRecord
100
AcDbRegAppTableRecord
  2
HATCHBACKGROUNDCOLOR
 70
0
  0
APPID
  5
23D
330
3
100
AcDbSymbolTableRecord
100
AcDbRegAppTableRecord
  2
EZDXF
 70
0
  0
ENDTAB
  0
TABLE
  2
DIMSTYLE
  5
4
330
0
100
AcDbSymbolTable
 70
12
100
AcDbDimStyleTable
  0
DIMSTYLE
105
2B
330
4
100
AcDbSymbolTableRecord
100
AcDbDimStyleTableRecord
  2
Standard
 70
0
 40
1.0
 41
2.5
 42
0.625
 43
3.75
 44
1.25
 45
0.0
 46
0.0
 47
0.0
 48
0.0
 49
2.5
140
2.5
141
2.5
142
0.0
143
0.03937007874
144
1.0
145
0.0
146
1.0
147
0.625
148
0.0
 69
0
 70
0
 71
0
 72
0
 73
0
 74
0
 75
0
 76
0
 77
1
 78
8
 79
3
170
0
171
3
172
1
173
0
174
0
175
0
176
0
177
0
178
0
179
2
271
2
272
2
273
2
274
3
275
0
276
0
277
2
278
44
279
0
280
0
281
0
282
0
283
0
284
8
285
0
286
0
288
0
289
3
290
0
371
-2
372
-2
  0
DIMSTYLE
105
73
330
4
100
AcDbSymbolTableRecord
100
AcDbDimStyleTableRecord
  2
EZDXF
 70
0
 40
1.0
 41
0.175
 42
0.125
 43
3.75
 44
0.375
 45
0.0
 46
0.0
 47
0.0
 48
0.0
 49
2.5
140
0.25
141
2.5
142
0.0
143
0.03937007874
144
100.0
145
0.0
146
0.5
147
0.1
148
0.0
 69
0
 70
0
 71
0
 72
0
 73
0
 74
0
 75
0
 76
0
 77
1
 78
12
 79
3
170
0
171
3
172
1
173
0
174
0
175
0
176
0
177
0
178
0
179
2
271
2
272
2
273
2
274
3
275
0
276
0
277
2
278
46
279
2
280
0
281
0
282
0
283
0
284
8
285
0
286
0
288
1
289
3
290
0
340
4C
342
74
371
-2
372
-2
  0
DIMSTYLE
105
7C
330
4
100
AcDbSymbolTableRecord
100
AcDbDimStyleTableRecord
  2
EZ_M_100_H25_CM
 70
0
 40
1.0
 41
0.25
 42
0.125
 43
3.75
 44
0.375
 45
0.0
 46
0.0
 47
0.0
 48
0.0
 49
2.5
140
0.25
141
2.5
142
0.125
143
0.03937007874
144
100.0
145
0.0
146
0.5
147
0.1
148
0.0
 69
0
 70
0
 71
0
 72
0
 73
0
 74
0
 75
0
 76
0
 77
1
 78
12
 79
3
170
0
171
3
172
1
173
0
174
0
175
0
176
0
177
0
178
0
179
2
271
2
272
2
273
2
274
3
275
0
276
0
277
2
278
46
279
2
280
0
281
0
282
0
283
0
284
8
285
0
286
0
288
1
289
3
290
0
340
4C
371
-2
372
-2
  0
DIMSTYLE
105
7D
330
4
100
AcDbSymbolTableRecord
100
AcDbDimStyleTableRecord
  2
EZ_M_50_H25_CM
 70
0
 40
1.0
 41
0.125
 42
0.0625
 43
3.75
 44
0.1875
 45
0.0
 46
0.0
 47
0.0
 48
0.0
 49
2.5
140
0.125
141
2.5
142
0.0625
143
0.03937007874
144
100.0
145
0.0
146
0.5
147
0.05
148
0.0
 69
0
 70
0
 71
0
 72
0
 73
0
 74
0
 75
0
 76
0
 77
1
 78
12
 79
3
170
0
171
3
172
1
173
0
174
0
175
0
176
0
177
0
178
0
179
2
271
2
272
2
273
2
274
3
275
0
276
0
277
2
278
46
279
2
280
0
281
0
282
0
283
0
284
8
285
0
286
0
288
1
289
3
290
0
340
4C
371
-2
372
-2
  0
DIMSTYLE
105
7E
330
4
100
AcDbSymbolTableRecord
100
AcDbDimStyleTableRecord
  2
EZ_M_25_H25_CM
 70
0
 40
1.0
 41
0.0625
 42
0.03125
 43
3.75
 44
0.09375
 45
0.0
 46
0.0
 47
0.0
 48
0.0
 49
2.5
140
0.0625
141
2.5
142
0.03125
143
0.03937007874
144
100.0
145
0.0
146
0.5
147
0.025
148
0.0
 69
0
 70
0
 71
0
 72
0
 73
0
 74
0
 75
0
 76
0
 77
1
 78
12
 79
3
170
0
171
3
172
1
173
0
174
0
175
0
176
0
177
0
178
0
179
2
271
2
272
2
273
2
274
3
275
0
276
0
277
2
278
46
279
2
280
0
281
0
282
0
283
0
284
8
285
0
286
0
288
1
289
3
290
0
340
4C
371
-2
372
-2
  0
DIMSTYLE
105
7F
330
4
100
AcDbSymbolTableRecord
100
AcDbDimStyleTableRecord
  2
EZ_M_20_H25_CM
 70
0
 40
1.0
 41
0.05
 42
0.025
 43
3.75
 44
0.07500000000000001
 45
0.0
 46
0.0
 47
0.0
 48
0.0
 49
2.5
140
0.05
141
2.5
142
0.025
143
0.03937007874
144
100.0
145
0.0
146
0.5
147
0.020000000000000004
148
0.0
 69
0
 70
0
 71
0
 72
0
 73
0
 74
0
 75
0
 76
0
 77
1
 78
12
 79
3
170
0
171
3
172
1
173
0
174
0
175
0
176
0
177
0
178
0
179
2
271
2
272
2
273
2
274
3
275
0
276
0
277
2
278
46
279
2
280
0
281
0
282
0
283
0
284
8
285
0
286
0
288
1
289
3
290
0
340
4C
371
-2
372
-2
  0
DIMSTYLE
105
80
330
4
100
AcDbSymbolTableRecord
100
AcDbDimStyleTableRecord
  2
EZ_M_10_H25_CM
 70
0
 40
1.0
 41
0.025
 42
0.0125
 43
3.75
 44
0.037500000000000006
 45
0.0
 46
0.0
 47
0.0
 48
0.0
 49
2.5
140
0.025
141
2.5
142
0.0125
143
0.03937007874
144
100.0
145
0.0
146
0.5
147
0.010000000000000002
148
0.0
 69
0
 70
0
 71
0
 72
0
 73
0
 74
0
 75
0
 76
0
 77
1
 78
12
 79
3
170
0
171
3
172
1
173
0
174
0
175
0
176
0
177
0
178
0
179
2
271
2
272
2
273
2
274
3
275
0
276
0
277
2
278
46
279
2
280
0
281
0
282
0
283
0
284
8
285
0
286
0
288
1
289
3
290
0
340
4C
371
-2
372
-2
  0
DIMSTYLE
105
81
330
4
100
AcDbSymbolTableRecord
100
AcDbDimStyleTableRecord
  2
EZ_M_5_H25_CM
 70
0
 40
1.0
 41
0.0125
 42
0.00625
 43
3.75
 44
0.018750000000000003
 45
0.0
 46
0.0
 47
0.0
 48
0.0
 49
2.5
140
0.0125
141
2.5
142
0.00625
143
0.03937007874
144
100.0
145
0.0
146
0.5
147
0.005000000000000001
148
0.0
 69
0
 70
0
 71
0
 72
0
 73
0
 74
0
 75
0
 76
0
 77
1
 78
12
 79
3
170
0
171
3
172
1
173
0
174
0
175
0
176
0
177
0
178
0
179
2
271
2
272
2
273
2
274
3
275
0
276
0
277
2
278
46
279
2
280
0
281
0
282
0
283
0
284
8
285
0
286
0
288
1
289
3
290
0
340
4C
371
-2
372
-2
  0
DIMSTYLE
105
82
330
4
100
AcDbSymbolTableRecord
100
AcDbDimStyleTableRecord
  2
EZ_M_1_H25_CM
 70
0
 40
1.0
 41
0.0025
 42
0.00125
 43
3.75
 44
0.00375
 45
0.0
 46
0.0
 47
0.0
 48
0.0
 49
2.5
140
0.0025
141
2.5
142
0.00125
143
0.03937007874
144
100.0
145
0.0
146
0.5
147
0.001
148
0.0
 69
0
 70
0
 71
0
 72
0
 73
0
 74
0
 75
0
 76
0
 77
1
 78
12
 79
3
170
0
171
3
172
1
173
0
174
0
175
0
176
0
177
0
178
0
179
2
271
2
272
2
273
2
274
3
275
0
276
0
277
2
278
46
279
2
280
0
281
0
282
0
283
0
284
8
285
0
286
0
288
1
289
3
290
0
340
4C
371
-2
372
-2
  0
DIMSTYLE
105
83
330
4
100
AcDbSymbolTableRecord
100
AcDbDimStyleTableRecord
  2
EZ_RADIUS
 70
0
 40
1.0
 41
0.25
 42
0.125
 43
3.75
 44
0.375
 45
0.0
 46
0.0
 47
0.0
 48
0.0
 49
2.5
140
0.25
141
0.0
142
0.0
143
0.03937007874
144
100.0
145
0.0
146
0.5
147
0.1
148
0.0
 69
0
 70
0
 71
0
 72
0
 73
0
 74
0
 75
0
 76
0
 77
1
 78
12
 79
3
170
0
171
3
172
0
173
0
174
0
175
0
176
0
177
0
178
0
179
2
271
2
272
2
273
2
274
3
275
0
276
0
277
2
278
46
279
1
280
0
281
0
282
0
283
0
284
8
285
0
286
0
288
1
289
3
290
0
340
4C
342
84
371
-2
372
-2
  0
DIMSTYLE
105
88
330
4
100
AcDbSymbolTableRecord
100
AcDbDimStyleTableRecord
  2
EZ_RADIUS_INSIDE
 70
0
 40
1.0
 41
0.25
 42
0.125
 43
3.75
 44
0.375
 45
0.0
 46
0.0
 47
0.0
 48
0.0
 49
2.5
140
0.25
141
0.0
142
0.0
143
0.03937007874
144
100.0
145
0.0
146
0.5
147
0.1
148
0.0
 69
0
 70
0
 71
0
 72
0
 73
0
 74
0
 75
0
 76
0
 77
0
 78
12
 79
3
170
0
171
3
172
0
173
0
174
1
175
0
176
0
177
0
178
0
179
2
271
2
272
2
273
2
274
3
275
0
276
0
277
2
278
46
279
0
280
0
281
0
282
0
283
0
284
8
285
0
286
0
288
1
289
0
290
0
340
4C
342
84
371
-2
372
-2
  0
DIMSTYLE
105
89
330
4
100
AcDbSymbolTableRecord
100
AcDbDimStyleTableRecord
  2
EZ_CURVED
 70
0
 40
1.0
 41
0.25
 42
0.125
 43
3.75
 44
0.375
 45
0.0
 46
0.0
 47
0.0
 48
0.0
 49
2.5
140
0.25
141
2.5
142
0.0
143
0.03937007874
144
100.0
145
0.0
146
0.5
147
0.1
148
0.0
 69
0
 70
0
 71
0
 72
0
 73
0
 74
0
 75
0
 76
0
 77
1
 78
12
 79
2
 90
2
170
0
171
3
172
1
173
0
174
0
175
0
176
0
177
0
178
0
179
2
271
2
272
2
273
2
274
3
275
0
276
0
277
2
278
46
279
2
280
0
281
0
282
0
283
0
284
8
285
0
286
0
288
1
289
3
290
0
340
4C
371
-2
372
-2
  0
ENDTAB
  0
TABLE
  2
BLOCK_RECORD
  5
9
330
0
100
AcDbSymbolTable
 70
5
  0
BLOCK_RECORD
  5
17
330
9
100
AcDbSymbolTableRecord
100
AcDbBlockTableRecord
  2
*Model_Space
340
1A
 70
0
280
1
281
0
  0
BLOCK_RECORD
  5
1B
330
9
100
AcDbSymbolTableRecord
100
AcDbBlockTableRecord
  2
*Paper_Space
340
1E
 70
0
280
1
281
0
  0
BLOCK_RECORD
  5
74
330
9
100
AcDbSymbolTableRecord
100
AcDbBlockTableRecord
  2
_ARCHTICK
340
0
 70
0
280
1
281
0
  0
BLOCK_RECORD
  5
78
330
9
100
AcDbSymbolTableRecord
100
AcDbBlockTableRecord
  2
_CLOSEDFILLED
340
0
 70
0
280
1
281
0
  0
BLOCK_RECORD
  5
84
330
9
100
AcDbSymbolTableRecord
100
AcDbBlockTableRecord
  2
_CLOSEDBLANK
340
0
 70
0
280
1
281
0
  0
ENDTAB
  0
ENDSEC
  0
SECTION
  2
BLOCKS
  0
BLOCK
  5
18
330
17
100
AcDbEntity
  8
0
100
AcDbBlockBegin
  2
*Model_Space
 70
0
 10
0.0
 20
0.0
 30
0.0
  3
*Model_Space
  1

  0
ENDBLK
  5
19
330
17
100
AcDbEntity
  8
0
100
AcDbBlockEnd
  0
BLOCK
  5
1C
330
1B
100
AcDbEntity
  8
0
100
AcDbBlockBegin
  2
*Paper_Space
 70
0
 10
0.0
 20
0.0
 30
0.0
  3
*Paper_Space
  1

  0
ENDBLK
  5
1D
330
1B
100
AcDbEntity
  8
0
100
AcDbBlockEnd
  0
BLOCK
  5
75
330
74
100
AcDbEntity
  8
0
100
AcDbBlockBegin
  2
_ARCHTICK
 70
0
 10
0.0
 20
0.0
 30
0.0
  3
_ARCHTICK
  1

  0
LWPOLYLINE
  5
77
330
74
100
AcDbEntity
  8
0
  6
BYBLOCK
 62
0
100
AcDbPolyline
 90
2
 70
0
 43
0.15
 10
-0.5
 20
-0.5
 10
0.5
 20
0.5
  0
ENDBLK
  5
76
330
74
100
AcDbEntity
  8
0
100
AcDbBlockEnd
  0
BLOCK
  5
79
330
78
100
AcDbEntity
  8
0
100
AcDbBlockBegin
  2
_CLOSEDFILLED
 70
0
 10
0.0
 20
0.0
 30
0.0
  3
_CLOSEDFILLED
  1

  0
SOLID
  5
7B
330
78
100
AcDbEntity
  8
0
  6
BYBLOCK
 62
0
100
AcDbTrace
 10
-1.0
 20
0.16439898372402537
 30
0.0
 11
0.0
 21
0.0
 31
0.0
 12
-1.0
 22
-0.16439898372402537
 32
0.0
 13
-1.0
 23
-0.16439898372402537
 33
0.0
  0
ENDBLK
  5
7A
330
78
100
AcDbEntity
  8
0
100
AcDbBlockEnd
  0
BLOCK
  5
85
330
84
100
AcDbEntity
  8
0
100
AcDbBlockBegin
  2
_CLOSEDBLANK
 70
0
 10
0.0
 20
0.0
 30
0.0
  3
_CLOSEDBLANK
  1

  0
LWPOLYLINE
  5
87
330
84
100
AcDbEntity
  8
0
  6
BYBLOCK
 62
0
100
AcDbPolyline
 90
3
 70
1
 10
-1.0
 20
0.16439898372402537
 10
0.0
 20
0.0
 10
-1.0
 20
-0.16439898372402537
  0
ENDBLK
  5
86
330
84
100
AcDbEntity
  8
0
100
AcDbBlockEnd
  0
ENDSEC
  0
SECTION
  2
ENTITIES
  0
LWPOLYLINE
  5
8E
330
17
100
AcDbEntity
  8
GEOMETRY
100
AcDbPolyline
 90
5
 70
0
 10
0.31496062992125984
 20
11.377952755905513
 10
16.22047244094488
 20
11.377952755905513
 10
16.22047244094488
 20
0.31496062992126106
 10
0.31496062992125984
 20
0.31496062992126106
 10
0.31496062992125984
 20
11.377952755905513
  0
TEXT
  5
8F
330
17
100
AcDbEntity
  8
TEXT
100
AcDbText
 10
0.7086614173228346
 20
10.984251968503937
 30
0.0
 40
0.09070866141732283
  1
DRESSING ROOM — THE WARDROBES
 11
0.7086614173228346
 21
10.984251968503937
 31
0.0
100
AcDbText
  0
LINE
  5
90
330
17
100
AcDbEntity
  8
GEOMETRY
100
AcDbLine
 10
0.7086614173228346
 20
10.9251968503937
 30
0.0
 11
8.976377952755906
 21
10.9251968503937
 31
0.0
  0
TEXT
  5
91
330
17
100
AcDbEntity
  8
TEXT
100
AcDbText
 10
0.7086614173228346
 20
10.79527559055118
 30
0.0
 40
0.048188976377952754
  1
DEVELOPED ELEVATION · 1:40 · THE THREE WALLS UNFOLDED, LEFT TO RIGHT AS YOU WALK IN
 11
0.7086614173228346
 21
10.79527559055118
 31
0.0
100
AcDbText
  0
LINE
  5
92
330
17
100
AcDbEntity
  8
GEOMETRY
100
AcDbLine
 10
2.5984251968503935
 20
7.23523622047244
 30
0.0
 11
6.2982283464566935
 21
7.23523622047244
 31
0.0
  0
LINE
  5
93
330
17
100
AcDbEntity
  8
GEOMETRY
100
AcDbLine
 10
2.5984251968503935
 20
9.960629921259843
 30
0.0
 11
6.2982283464566935
 21
9.960629921259843
 31
0.0
  0
LWPOLYLINE
  5
94
330
17
100
AcDbEntity
  8
GEOMETRY
100
AcDbPolyline
 90
5
 70
0
 10
2.5984251968503935
 20
9.50984251968504
 10
3.4980314960629917
 20
9.50984251968504
 10
3.4980314960629917
 20
7.235236220472442
 10
2.5984251968503935
 20
7.235236220472442
 10
2.5984251968503935
 20
9.50984251968504
  0
LINE
  5
95
330
17
100
AcDbEntity
  8
GEOMETRY
100
AcDbLine
 10
3.6536023622047247
 20
9.383858267716535
 30
0.0
 11
3.6536023622047247
 21
7.23523622047244
 31
0.0
  0
LINE
  5
96
330
17
100
AcDbEntity
  8
GEOMETRY
100
AcDbLine
 10
3.8091633858267713
 20
9.383858267716535
 30
0.0
 11
3.8091633858267713
 21
7.23523622047244
 31
0.0
  0
LINE
  5
97
330
17
100
AcDbEntity
  8
GEOMETRY
100
AcDbLine
 10
3.4980314960629917
 20
7.609251968503937
 30
0.0
 11
3.964734251968504
 21
7.609251968503937
 31
0.0
  0
LINE
  5
98
330
17
100
AcDbEntity
  8
GEOMETRY
100
AcDbLine
 10
3.4980314960629917
 20
7.983267716535433
 30
0.0
 11
3.964734251968504
 21
7.983267716535433
 31
0.0
  0
LINE
  5
99
330
17
100
AcDbEntity
  8
GEOMETRY
100
AcDbLine
 10
3.4980314960629917
 20
8.35728346456693
 30
0.0
 11
3.964734251968504
 21
8.35728346456693
 31
0.0
  0
LINE
  5
9A
330
17
100
AcDbEntity
  8
GEOMETRY
100
AcDbLine
 10
3.4980314960629917
 20
8.731299212598426
 30
0.0
 11
3.964734251968504
 21
8.731299212598426
 31
0.0
  0
LINE
  5
9B
330
17
100
AcDbEntity
  8
GEOMETRY
100
AcDbLine
 10
3.4980314960629917
 20
9.105314960629922
 30
0.0
 11
3.964734251968504
 21
9.105314960629922
 31
0.0
  0
LWPOLYLINE
  5
9C
330
17
100
AcDbEntity
  8
GEOMETRY
100
AcDbPolyline
 90
5
 70
0
 10
3.4980314960629917
 20
9.383858267716537
 10
3.964734251968504
 20
9.383858267716537
 10
3.964734251968504
 20
7.235236220472442
 10
3.4980314960629917
 20
7.235236220472442
 10
3.4980314960629917
 20
9.383858267716537
  0
LWPOLYLINE
  5
9D
330
17
100
AcDbEntity
  8
GEOMETRY
100
AcDbPolyline
 90
5
 70
0
 10
3.5354330708661417
 20
9.346456692913387
 10
3.9273326771653543
 20
9.346456692913387
 10
3.9273326771653543
 20
7.272637795275591
 10
3.5354330708661417
 20
7.272637795275591
 10
3.5354330708661417
 20
9.346456692913387
  0
LINE
  5
9E
330
17
100
AcDbEntity
  8
GEOMETRY
100
AcDbLine
 10
3.8958366141732284
 20
8.121062992125985
 30
0.0
 11
3.8958366141732284
 21
8.416338582677165
 31
0.0
  0
LINE
  5
9F
330
17
100
AcDbEntity
  8
GEOMETRY
100
AcDbLine
 10
4.120295275590551
 20
9.383858267716535
 30
0.0
 11
4.120295275590551
 21
7.23523622047244
 31
0.0
  0
LINE
  5
A0
330
17
100
AcDbEntity
  8
GEOMETRY
100
AcDbLine
 10
4.275866141732283
 20
9.383858267716535
 30
0.0
 11
4.275866141732283
 21
7.23523622047244
 31
0.0
  0
LINE
  5
A1
330
17
100
AcDbEntity
  8
GEOMETRY
100
AcDbLine
 10
3.964734251968504
 20
7.609251968503937
 30
0.0
 11
4.4314271653543305
 21
7.609251968503937
 31
0.0
  0
LINE
  5
A2
330
17
100
AcDbEntity
  8
GEOMETRY
100
AcDbLine
 10
3.964734251968504
 20
7.983267716535433
 30
0.0
 11
4.4314271653543305
 21
7.983267716535433
 31
0.0
  0
LINE
  5
A3
330
17
100
AcDbEntity
  8
GEOMETRY
100
AcDbLine
 10
3.964734251968504
 20
8.35728346456693
 30
0.0
 11
4.4314271653543305
 21
8.35728346456693
 31
0.0
  0
LINE
  5
A4
330
17
100
AcDbEntity
  8
GEOMETRY
100
AcDbLine
 10
3.964734251968504
 20
8.731299212598426
 30
0.0
 11
4.4314271653543305
 21
8.731299212598426
 31
0.0
  0
LINE
  5
A5
330
17
100
AcDbEntity
  8
GEOMETRY
100
AcDbLine
 10
3.964734251968504
 20
9.105314960629922
 30
0.0
 11
4.4314271653543305
 21
9.105314960629922
 31
0.0
  0
LWPOLYLINE
  5
A6
330
17
100
AcDbEntity
  8
GEOMETRY
100
AcDbPolyline
 90
5
 70
0
 10
3.964734251968504
 20
9.383858267716537
 10
4.431437007874016
 20
9.383858267716537
 10
4.431437007874016
 20
7.235236220472442
 10
3.964734251968504
 20
7.235236220472442
 10
3.964734251968504
 20
9.383858267716537
  0
LWPOLYLINE
  5
A7
330
17
100
AcDbEntity
  8
GEOMETRY
100
AcDbPolyline
 90
5
 70
0
 10
4.002135826771654
 20
9.346456692913387
 10
4.394035433070866
 20
9.346456692913387
 10
4.394035433070866
 20
7.272637795275591
 10
4.002135826771654
 20
7.272637795275591
 10
4.002135826771654
 20
9.346456692913387
  0
LINE
  5
A8
330
17
100
AcDbEntity
  8
GEOMETRY
100
AcDbLine
 10
4.03363188976378
 20
8.121062992125985
 30
0.0
 11
4.03363188976378
 21
8.416338582677165
 31
0.0
  0
LINE
  5
A9
330
17
100
AcDbEntity
  8
GEOMETRY
100
AcDbLine
 10
3.6536023622047247
 20
9.935039370078739
 30
0.0
 11
3.6536023622047247
 21
9.383858267716535
 31
0.0
  0
LINE
  5
AA
330
17
100
AcDbEntity
  8
GEOMETRY
100
AcDbLine
 10
3.8091633858267713
 20
9.935039370078739
 30
0.0
 11
3.8091633858267713
 21
9.383858267716535
 31
0.0
  0
LINE
  5
AB
330
17
100
AcDbEntity
  8
GEOMETRY
100
AcDbLine
 10
3.4980314960629917
 20
9.757874015748031
 30
0.0
 11
3.964734251968504
 21
9.757874015748031
 31
0.0
  0
LWPOLYLINE
  5
AC
330
17
100
AcDbEntity
  8
GEOMETRY
100
AcDbPolyline
 90
5
 70
0
 10
3.4980314960629917
 20
9.93503937007874
 10
3.964734251968504
 20
9.93503937007874
 10
3.964734251968504
 20
9.383858267716537
 10
3.4980314960629917
 20
9.383858267716537
 10
3.4980314960629917
 20
9.93503937007874
  0
LWPOLYLINE
  5
AD
330
17
100
AcDbEntity
  8
GEOMETRY
100
AcDbPolyline
 90
5
 70
0
 10
3.5354330708661417
 20
9.89763779527559
 10
3.9273326771653543
 20
9.89763779527559
 10
3.9273326771653543
 20
9.421259842519685
 10
3.5354330708661417
 20
9.421259842519685
 10
3.5354330708661417
 20
9.89763779527559
  0
LINE
  5
AE
330
17
100
AcDbEntity
  8
GEOMETRY
100
AcDbLine
 10
3.8958366141732284
 20
9.561023622047244
 30
0.0
 11
3.8958366141732284
 21
9.757874015748031
 31
0.0
  0
LINE
  5
AF
330
17
100
AcDbEntity
  8
GEOMETRY
100
AcDbLine
 10
4.120295275590551
 20
9.935039370078739
 30
0.0
 11
4.120295275590551
 21
9.383858267716535
 31
0.0
  0
LINE
  5
B0
330
17
100
AcDbEntity
  8
GEOMETRY
100
AcDbLine
 10
4.275866141732283
 20
9.935039370078739
 30
0.0
 11
4.275866141732283
 21
9.383858267716535
 31
0.0
  0
LINE
  5
B1
330
17
100
AcDbEntity
  8
GEOMETRY
100
AcDbLine
 10
3.964734251968504
 20
9.757874015748031
 30
0.0
 11
4.4314271653543305
 21
9.757874015748031
 31
0.0
  0
LWPOLYLINE
  5
B2
330
17
100
AcDbEntity
  8
GEOMETRY
100
AcDbPolyline
 90
5
 70
0
 10
3.964734251968504
 20
9.93503937007874
 10
4.431437007874016
 20
9.93503937007874
 10
4.431437007874016
 20
9.383858267716537
 10
3.964734251968504
 20
9.383858267716537
 10
3.964734251968504
 20
9.93503937007874
  0
LWPOLYLINE
  5
B3
330
17
100
AcDbEntity
  8
GEOMETRY
100
AcDbPolyline
 90
5
 70
0
 10
4.002135826771654
 20
9.89763779527559
 10
4.394035433070866
 20
9.89763779527559
 10
4.394035433070866
 20
9.421259842519685
 10
4.002135826771654
 20
9.421259842519685
 10
4.002135826771654
 20
9.89763779527559
  0
LINE
  5
B4
330
17
100
AcDbEntity
  8
GEOMETRY
100
AcDbLine
 10
4.03363188976378
 20
9.561023622047244
 30
0.0
 11
4.03363188976378
 21
9.757874015748031
 31
0.0
  0
LINE
  5
B5
330
17
100
AcDbEntity
  8
GEOMETRY
100
AcDbLine
 10
4.586998031496063
 20
9.383858267716535
 30
0.0
 11
4.586998031496063
 21
7.23523622047244
 31
0.0
  0
LINE
  5
B6
330
17
100
AcDbEntity
  8
GEOMETRY
100
AcDbLine
 10
4.742559055118111
 20
9.383858267716535
 30
0.0
 11
4.742559055118111
 21
7.23523622047244
 31
0.0
  0
LINE
  5
B7
330
17
100
AcDbEntity
  8
GEOMETRY
100
AcDbLine
 10
4.4314271653543305
 20
7.609251968503937
 30
0.0
 11
4.898129921259843
 21
7.609251968503937
 31
0.0
  0
LINE
  5
B8
330
17
100
AcDbEntity
  8
GEOMETRY
100
AcDbLine
 10
4.4314271653543305
 20
7.983267716535433
 30
0.0
 11
4.898129921259843
 21
7.983267716535433
 31
0.0
  0
LINE
  5
B9
330
17
100
AcDbEntity
  8
GEOMETRY
100
AcDbLine
 10
4.4314271653543305
 20
8.35728346456693
 30
0.0
 11
4.898129921259843
 21
8.35728346456693
 31
0.0
  0
LINE
  5
BA
330
17
100
AcDbEntity
  8
GEOMETRY
100
AcDbLine
 10
4.4314271653543305
 20
8.731299212598426
 30
0.0
 11
4.898129921259843
 21
8.731299212598426
 31
0.0
  0
LINE
  5
BB
330
17
100
AcDbEntity
  8
GEOMETRY
100
AcDbLine
 10
4.4314271653543305
 20
9.105314960629922
 30
0.0
 11
4.898129921259843
 21
9.105314960629922
 31
0.0
  0
LWPOLYLINE
  5
BC
330
17
100
AcDbEntity
  8
GEOMETRY
100
AcDbPolyline
 90
5
 70
0
 10
4.4314271653543305
 20
9.383858267716537
 10
4.898129921259843
 20
9.383858267716537
 10
4.898129921259843
 20
7.235236220472442
 10
4.4314271653543305
 20
7.235236220472442
 10
4.4314271653543305
 20
9.383858267716537
  0
LWPOLYLINE
  5
BD
330
17
100
AcDbEntity
  8
GEOMETRY
100
AcDbPolyline
 90
5
 70
0
 10
4.46882874015748
 20
9.346456692913387
 10
4.8607283464566935
 20
9.346456692913387
 10
4.8607283464566935
 20
7.272637795275591
 10
4.46882874015748
 20
7.272637795275591
 10
4.46882874015748
 20
9.346456692913387
  0
LINE
  5
BE
330
17
100
AcDbEntity
  8
GEOMETRY
100
AcDbLine
 10
4.829232283464567
 20
8.121062992125985
 30
0.0
 11
4.829232283464567
 21
8.416338582677165
 31
0.0
  0
LINE
  5
BF
330
17
100
AcDbEntity
  8
GEOMETRY
100
AcDbLine
 10
5.053700787401575
 20
9.383858267716535
 30
0.0
 11
5.053700787401575
 21
7.23523622047244
 31
0.0
  0
LINE
  5
C0
330
17
100
AcDbEntity
  8
GEOMETRY
100
AcDbLine
 10
5.209261811023621
 20
9.383858267716535
 30
0.0
 11
5.209261811023621
 21
7.23523622047244
 31
0.0
  0
LINE
  5
C1
330
17
100
AcDbEntity
  8
GEOMETRY
100
AcDbLine
 10
4.898129921259843
 20
7.609251968503937
 30
0.0
 11
5.364832677165355
 21
7.609251968503937
 31
0.0
  0
LINE
  5
C2
330
17
100
AcDbEntity
  8
GEOMETRY
100
AcDbLine
 10
4.898129921259843
 20
7.983267716535433
 30
0.0
 11
5.364832677165355
 21
7.983267716535433
 31
0.0
  0
LINE
  5
C3
330
17
100
AcDbEntity
  8
GEOMETRY
100
AcDbLine
 10
4.898129921259843
 20
8.35728346456693
 30
0.0
 11
5.364832677165355
 21
8.35728346456693
 31
0.0
  0
LINE
  5
C4
330
17
100
AcDbEntity
  8
GEOMETRY
100
AcDbLine
 10
4.898129921259843
 20
8.731299212598426
 30
0.0
 11
5.364832677165355
 21
8.731299212598426
 31
0.0
  0
LINE
  5
C5
330
17
100
AcDbEntity
  8
GEOMETRY
100
AcDbLine
 10
4.898129921259843
 20
9.105314960629922
 30
0.0
 11
5.364832677165355
 21
9.105314960629922
 31
0.0
  0
LWPOLYLINE
  5
C6
330
17
100
AcDbEntity
  8
GEOMETRY
100
AcDbPolyline
 90
5
 70
0
 10
4.898129921259843
 20
9.383858267716537
 10
5.364832677165355
 20
9.383858267716537
 10
5.364832677165355
 20
7.235236220472442
 10
4.898129921259843
 20
7.235236220472442
 10
4.898129921259843
 20
9.383858267716537
  0
LWPOLYLINE
  5
C7
330
17
100
AcDbEntity
  8
GEOMETRY
100
AcDbPolyline
 90
5
 70
0
 10
4.935531496062993
 20
9.346456692913387
 10
5.327431102362205
 20
9.346456692913387
 10
5.327431102362205
 20
7.272637795275591
 10
4.935531496062993
 20
7.272637795275591
 10
4.935531496062993
 20
9.346456692913387
  0
LINE
  5
C8
330
17
100
AcDbEntity
  8
GEOMETRY
100
AcDbLine
 10
4.967027559055118
 20
8.121062992125985
 30
0.0
 11
4.967027559055118
 21
8.416338582677165
 31
0.0
  0
LINE
  5
C9
330
17
100
AcDbEntity
  8
GEOMETRY
100
AcDbLine
 10
4.586998031496063
 20
9.935039370078739
 30
0.0
 11
4.586998031496063
 21
9.383858267716535
 31
0.0
  0
LINE
  5
CA
330
17
100
AcDbEntity
  8
GEOMETRY
100
AcDbLine
 10
4.742559055118111
 20
9.935039370078739
 30
0.0
 11
4.742559055118111
 21
9.383858267716535
 31
0.0
  0
LINE
  5
CB
330
17
100
AcDbEntity
  8
GEOMETRY
100
AcDbLine
 10
4.4314271653543305
 20
9.757874015748031
 30
0.0
 11
4.898129921259843
 21
9.757874015748031
 31
0.0
  0
LWPOLYLINE
  5
CC
330
17
100
AcDbEntity
  8
GEOMETRY
100
AcDbPolyline
 90
5
 70
0
 10
4.4314271653543305
 20
9.93503937007874
 10
4.898129921259843
 20
9.93503937007874
 10
4.898129921259843
 20
9.383858267716537
 10
4.4314271653543305
 20
9.383858267716537
 10
4.4314271653543305
 20
9.93503937007874
  0
LWPOLYLINE
  5
CD
330
17
100
AcDbEntity
  8
GEOMETRY
100
AcDbPolyline
 90
5
 70
0
 10
4.46882874015748
 20
9.89763779527559
 10
4.8607283464566935
 20
9.89763779527559
 10
4.8607283464566935
 20
9.421259842519685
 10
4.46882874015748
 20
9.421259842519685
 10
4.46882874015748
 20
9.89763779527559
  0
LINE
  5
CE
330
17
100
AcDbEntity
  8
GEOMETRY
100
AcDbLine
 10
4.829232283464567
 20
9.561023622047244
 30
0.0
 11
4.829232283464567
 21
9.757874015748031
 31
0.0
  0
LINE
  5
CF
330
17
100
AcDbEntity
  8
GEOMETRY
100
AcDbLine
 10
5.053700787401575
 20
9.935039370078739
 30
0.0
 11
5.053700787401575
 21
9.383858267716535
 31
0.0
  0
LINE
  5
D0
330
17
100
AcDbEntity
  8
GEOMETRY
100
AcDbLine
 10
5.209261811023621
 20
9.935039370078739
 30
0.0
 11
5.209261811023621
 21
9.383858267716535
 31
0.0
  0
LINE
  5
D1
330
17
100
AcDbEntity
  8
GEOMETRY
100
AcDbLine
 10
4.898129921259843
 20
9.757874015748031
 30
0.0
 11
5.364832677165355
 21
9.757874015748031
 31
0.0
  0
LWPOLYLINE
  5
D2
330
17
100
AcDbEntity
  8
GEOMETRY
100
AcDbPolyline
 90
5
 70
0
 10
4.898129921259843
 20
9.93503937007874
 10
5.364832677165355
 20
9.93503937007874
 10
5.364832677165355
 20
9.383858267716537
 10
4.898129921259843
 20
9.383858267716537
 10
4.898129921259843
 20
9.93503937007874
  0
LWPOLYLINE
  5
D3
330
17
100
AcDbEntity
  8
GEOMETRY
100
AcDbPolyline
 90
5
 70
0
 10
4.935531496062993
 20
9.89763779527559
 10
5.327431102362205
 20
9.89763779527559
 10
5.327431102362205
 20
9.421259842519685
 10
4.935531496062993
 20
9.421259842519685
 10
4.935531496062993
 20
9.89763779527559
  0
LINE
  5
D4
330
17
100
AcDbEntity
  8
GEOMETRY
100
AcDbLine
 10
4.967027559055118
 20
9.561023622047244
 30
0.0
 11
4.967027559055118
 21
9.757874015748031
 31
0.0
  0
LINE
  5
D5
330
17
100
AcDbEntity
  8
GEOMETRY
100
AcDbLine
 10
5.520393700787402
 20
9.383858267716535
 30
0.0
 11
5.520393700787402
 21
7.23523622047244
 31
0.0
  0
LINE
  5
D6
330
17
100
AcDbEntity
  8
GEOMETRY
100
AcDbLine
 10
5.675964566929135
 20
9.383858267716535
 30
0.0
 11
5.675964566929135
 21
7.23523622047244
 31
0.0
  0
LINE
  5
D7
330
17
100
AcDbEntity
  8
GEOMETRY
100
AcDbLine
 10
5.364832677165355
 20
7.609251968503937
 30
0.0
 11
5.8315255905511805
 21
7.609251968503937
 31
0.0
  0
LINE
  5
D8
330
17
100
AcDbEntity
  8
GEOMETRY
100
AcDbLine
 10
5.364832677165355
 20
7.983267716535433
 30
0.0
 11
5.8315255905511805
 21
7.983267716535433
 31
0.0
  0
LINE
  5
D9
330
17
100
AcDbEntity
  8
GEOMETRY
100
AcDbLine
 10
5.364832677165355
 20
8.35728346456693
 30
0.0
 11
5.8315255905511805
 21
8.35728346456693
 31
0.0
  0
LINE
  5
DA
330
17
100
AcDbEntity
  8
GEOMETRY
100
AcDbLine
 10
5.364832677165355
 20
8.731299212598426
 30
0.0
 11
5.8315255905511805
 21
8.731299212598426
 31
0.0
  0
LINE
  5
DB
330
17
100
AcDbEntity
  8
GEOMETRY
100
AcDbLine
 10
5.364832677165355
 20
9.105314960629922
 30
0.0
 11
5.8315255905511805
 21
9.105314960629922
 31
0.0
  0
LWPOLYLINE
  5
DC
330
17
100
AcDbEntity
  8
GEOMETRY
100
AcDbPolyline
 90
5
 70
0
 10
5.364832677165355
 20
9.383858267716537
 10
5.831535433070867
 20
9.383858267716537
 10
5.831535433070867
 20
7.235236220472442
 10
5.364832677165355
 20
7.235236220472442
 10
5.364832677165355
 20
9.383858267716537
  0
LWPOLYLINE
  5
DD
330
17
100
AcDbEntity
  8
GEOMETRY
100
AcDbPolyline
 90
5
 70
0
 10
5.402234251968504
 20
9.346456692913387
 10
5.794133858267716
 20
9.346456692913387
 10
5.794133858267716
 20
7.272637795275591
 10
5.402234251968504
 20
7.272637795275591
 10
5.402234251968504
 20
9.346456692913387
  0
LINE
  5
DE
330
17
100
AcDbEntity
  8
GEOMETRY
100
AcDbLine
 10
5.762627952755905
 20
8.121062992125985
 30
0.0
 11
5.762627952755905
 21
8.416338582677165
 31
0.0
  0
LINE
  5
DF
330
17
100
AcDbEntity
  8
GEOMETRY
100
AcDbLine
 10
5.987096456692913
 20
9.383858267716535
 30
0.0
 11
5.987096456692913
 21
7.23523622047244
 31
0.0
  0
LINE
  5
E0
330
17
100
AcDbEntity
  8
GEOMETRY
100
AcDbLine
 10
6.142657480314961
 20
9.383858267716535
 30
0.0
 11
6.142657480314961
 21
7.23523622047244
 31
0.0
  0
LINE
  5
E1
330
17
100
AcDbEntity
  8
GEOMETRY
100
AcDbLine
 10
5.8315255905511805
 20
7.609251968503937
 30
0.0
 11
6.2982283464566935
 21
7.609251968503937
 31
0.0
  0
LINE
  5
E2
330
17
100
AcDbEntity
  8
GEOMETRY
100
AcDbLine
 10
5.8315255905511805
 20
7.983267716535433
 30
0.0
 11
6.2982283464566935
 21
7.983267716535433
 31
0.0
  0
LINE
  5
E3
330
17
100
AcDbEntity
  8
GEOMETRY
100
AcDbLine
 10
5.8315255905511805
 20
8.35728346456693
 30
0.0
 11
6.2982283464566935
 21
8.35728346456693
 31
0.0
  0
LINE
  5
E4
330
17
100
AcDbEntity
  8
GEOMETRY
100
AcDbLine
 10
5.8315255905511805
 20
8.731299212598426
 30
0.0
 11
6.2982283464566935
 21
8.731299212598426
 31
0.0
  0
LINE
  5
E5
330
17
100
AcDbEntity
  8
GEOMETRY
100
AcDbLine
 10
5.8315255905511805
 20
9.105314960629922
 30
0.0
 11
6.2982283464566935
 21
9.105314960629922
 31
0.0
  0
LWPOLYLINE
  5
E6
330
17
100
AcDbEntity
  8
GEOMETRY
100
AcDbPolyline
 90
5
 70
0
 10
5.8315255905511805
 20
9.383858267716537
 10
6.298228346456693
 20
9.383858267716537
 10
6.298228346456693
 20
7.235236220472442
 10
5.8315255905511805
 20
7.235236220472442
 10
5.8315255905511805
 20
9.383858267716537
  0
LWPOLYLINE
  5
E7
330
17
100
AcDbEntity
  8
GEOMETRY
100
AcDbPolyline
 90
5
 70
0
 10
5.8689271653543305
 20
9.346456692913387
 10
6.2608267716535435
 20
9.346456692913387
 10
6.2608267716535435
 20
7.272637795275591
 10
5.8689271653543305
 20
7.272637795275591
 10
5.8689271653543305
 20
9.346456692913387
  0
LINE
  5
E8
330
17
100
AcDbEntity
  8
GEOMETRY
100
AcDbLine
 10
5.900423228346456
 20
8.121062992125985
 30
0.0
 11
5.900423228346456
 21
8.416338582677165
 31
0.0
  0
LINE
  5
E9
330
17
100
AcDbEntity
  8
GEOMETRY
100
AcDbLine
 10
5.520393700787402
 20
9.935039370078739
 30
0.0
 11
5.520393700787402
 21
9.383858267716535
 31
0.0
  0
LINE
  5
EA
330
17
100
AcDbEntity
  8
GEOMETRY
100
AcDbLine
 10
5.675964566929135
 20
9.935039370078739
 30
0.0
 11
5.675964566929135
 21
9.383858267716535
 31
0.0
  0
LINE
  5
EB
330
17
100
AcDbEntity
  8
GEOMETRY
100
AcDbLine
 10
5.364832677165355
 20
9.757874015748031
 30
0.0
 11
5.8315255905511805
 21
9.757874015748031
 31
0.0
  0
LWPOLYLINE
  5
EC
330
17
100
AcDbEntity
  8
GEOMETRY
100
AcDbPolyline
 90
5
 70
0
 10
5.364832677165355
 20
9.93503937007874
 10
5.831535433070867
 20
9.93503937007874
 10
5.831535433070867
 20
9.383858267716537
 10
5.364832677165355
 20
9.383858267716537
 10
5.364832677165355
 20
9.93503937007874
  0
LWPOLYLINE
  5
ED
330
17
100
AcDbEntity
  8
GEOMETRY
100
AcDbPolyline
 90
5
 70
0
 10
5.402234251968504
 20
9.89763779527559
 10
5.794133858267716
 20
9.89763779527559
 10
5.794133858267716
 20
9.421259842519685
 10
5.402234251968504
 20
9.421259842519685
 10
5.402234251968504
 20
9.89763779527559
  0
LINE
  5
EE
330
17
100
AcDbEntity
  8
GEOMETRY
100
AcDbLine
 10
5.762627952755905
 20
9.561023622047244
 30
0.0
 11
5.762627952755905
 21
9.757874015748031
 31
0.0
  0
LINE
  5
EF
330
17
100
AcDbEntity
  8
GEOMETRY
100
AcDbLine
 10
5.987096456692913
 20
9.935039370078739
 30
0.0
 11
5.987096456692913
 21
9.383858267716535
 31
0.0
  0
LINE
  5
F0
330
17
100
AcDbEntity
  8
GEOMETRY
100
AcDbLine
 10
6.142657480314961
 20
9.935039370078739
 30
0.0
 11
6.142657480314961
 21
9.383858267716535
 31
0.0
  0
LINE
  5
F1
330
17
100
AcDbEntity
  8
GEOMETRY
100
AcDbLine
 10
5.8315255905511805
 20
9.757874015748031
 30
0.0
 11
6.2982283464566935
 21
9.757874015748031
 31
0.0
  0
LWPOLYLINE
  5
F2
330
17
100
AcDbEntity
  8
GEOMETRY
100
AcDbPolyline
 90
5
 70
0
 10
5.8315255905511805
 20
9.93503937007874
 10
6.298228346456693
 20
9.93503937007874
 10
6.298228346456693
 20
9.383858267716537
 10
5.8315255905511805
 20
9.383858267716537
 10
5.8315255905511805
 20
9.93503937007874
  0
LWPOLYLINE
  5
F3
330
17
100
AcDbEntity
  8
GEOMETRY
100
AcDbPolyline
 90
5
 70
0
 10
5.8689271653543305
 20
9.89763779527559
 10
6.2608267716535435
 20
9.89763779527559
 10
6.2608267716535435
 20
9.421259842519685
 10
5.8689271653543305
 20
9.421259842519685
 10
5.8689271653543305
 20
9.89763779527559
  0
LINE
  5
F4
330
17
100
AcDbEntity
  8
GEOMETRY
100
AcDbLine
 10
5.900423228346456
 20
9.561023622047244
 30
0.0
 11
5.900423228346456
 21
9.757874015748031
 31
0.0
  0
LWPOLYLINE
  5
F5
330
17
100
AcDbEntity
  8
GEOMETRY
  6
DASHED
100
AcDbPolyline
 90
5
 70
0
 10
3.4980314960629917
 20
9.960629921259843
 10
6.298228346456693
 20
9.960629921259843
 10
6.298228346456693
 20
9.93503937007874
 10
3.4980314960629917
 20
9.93503937007874
 10
3.4980314960629917
 20
9.960629921259843
  0
LINE
  5
F6
330
17
100
AcDbEntity
  8
GEOMETRY
100
AcDbLine
 10
6.770669291338582
 20
7.23523622047244
 30
0.0
 11
9.54527559055118
 21
7.23523622047244
 31
0.0
  0
LINE
  5
F7
330
17
100
AcDbEntity
  8
GEOMETRY
100
AcDbLine
 10
6.770669291338582
 20
9.960629921259843
 30
0.0
 11
9.54527559055118
 21
9.960629921259843
 31
0.0
  0
LWPOLYLINE
  5
F8
330
17
100
AcDbEntity
  8
GEOMETRY
100
AcDbPolyline
 90
5
 70
0
 10
6.770669291338582
 20
9.93503937007874
 10
7.445866141732283
 20
9.93503937007874
 10
7.445866141732283
 20
7.235236220472442
 10
6.770669291338582
 20
7.235236220472442
 10
6.770669291338582
 20
9.93503937007874
  0
LWPOLYLINE
  5
F9
330
17
100
AcDbEntity
  8
GEOMETRY
100
AcDbPolyline
 90
5
 70
0
 10
8.870078740157481
 20
9.93503937007874
 10
9.545275590551181
 20
9.93503937007874
 10
9.545275590551181
 20
7.235236220472442
 10
8.870078740157481
 20
7.235236220472442
 10
8.870078740157481
 20
9.93503937007874
  0
LWPOLYLINE
  5
FA
330
17
100
AcDbEntity
  8
GEOMETRY
100
AcDbPolyline
 90
5
 70
0
 10
7.6328740157480315
 20
9.93503937007874
 10
7.826279527559055
 20
9.93503937007874
 10
7.826279527559055
 20
7.235236220472442
 10
7.6328740157480315
 20
7.235236220472442
 10
7.6328740157480315
 20
9.93503937007874
  0
LWPOLYLINE
  5
FB
330
17
100
AcDbEntity
  8
GEOMETRY
100
AcDbPolyline
 90
5
 70
0
 10
7.687007874015748
 20
9.880905511811024
 10
7.772145669291338
 20
9.880905511811024
 10
7.772145669291338
 20
7.323818897637796
 10
7.687007874015748
 20
7.323818897637796
 10
7.687007874015748
 20
9.880905511811024
  0
LWPOLYLINE
  5
FC
330
17
100
AcDbEntity
  8
GEOMETRY
100
AcDbPolyline
 90
5
 70
0
 10
7.826279527559055
 20
9.93503937007874
 10
8.489665354330707
 20
9.93503937007874
 10
8.489665354330707
 20
7.235236220472442
 10
7.826279527559055
 20
7.235236220472442
 10
7.826279527559055
 20
9.93503937007874
  0
LWPOLYLINE
  5
FD
330
17
100
AcDbEntity
  8
GEOMETRY
100
AcDbPolyline
 90
5
 70
0
 10
7.880413385826771
 20
9.880905511811024
 10
8.43553149606299
 20
9.880905511811024
 10
8.43553149606299
 20
7.323818897637796
 10
7.880413385826771
 20
7.323818897637796
 10
7.880413385826771
 20
9.880905511811024
  0
LWPOLYLINE
  5
FE
330
17
100
AcDbEntity
  8
GEOMETRY
100
AcDbPolyline
 90
5
 70
0
 10
8.489665354330707
 20
9.93503937007874
 10
8.683070866141732
 20
9.93503937007874
 10
8.683070866141732
 20
7.235236220472442
 10
8.489665354330707
 20
7.235236220472442
 10
8.489665354330707
 20
9.93503937007874
  0
LWPOLYLINE
  5
FF
330
17
100
AcDbEntity
  8
GEOMETRY
100
AcDbPolyline
 90
5
 70
0
 10
8.543799212598424
 20
9.880905511811024
 10
8.628937007874015
 20
9.880905511811024
 10
8.628937007874015
 20
7.323818897637796
 10
8.543799212598424
 20
7.323818897637796
 10
8.543799212598424
 20
9.880905511811024
  0
LWPOLYLINE
  5
100
330
17
100
AcDbEntity
  8
GEOMETRY
100
AcDbPolyline
 90
5
 70
0
 10
7.6328740157480315
 20
7.323818897637795
 10
8.683070866141733
 20
7.323818897637795
 10
8.683070866141733
 20
7.235236220472442
 10
7.6328740157480315
 20
7.235236220472442
 10
7.6328740157480315
 20
7.323818897637795
  0
LINE
  5
101
330
17
100
AcDbEntity
  8
GEOMETRY
  6
DASHED
100
AcDbLine
 10
7.445866141732283
 20
7.2391732283464565
 30
0.0
 11
7.6328740157480315
 21
7.2391732283464565
 31
0.0
  0
LINE
  5
102
330
17
100
AcDbEntity
  8
GEOMETRY
  6
DASHED
100
AcDbLine
 10
8.683070866141733
 20
7.2391732283464565
 30
0.0
 11
8.870078740157481
 21
7.2391732283464565
 31
0.0
  0
LINE
  5
103
330
17
100
AcDbEntity
  8
GEOMETRY
100
AcDbLine
 10
10.01771653543307
 20
7.23523622047244
 30
0.0
 11
13.71751968503937
 21
7.23523622047244
 31
0.0
  0
LINE
  5
104
330
17
100
AcDbEntity
  8
GEOMETRY
100
AcDbLine
 10
10.01771653543307
 20
9.960629921259843
 30
0.0
 11
13.71751968503937
 21
9.960629921259843
 31
0.0
  0
LINE
  5
105
330
17
100
AcDbEntity
  8
GEOMETRY
100
AcDbLine
 10
10.171879921259842
 20
9.383858267716535
 30
0.0
 11
10.171879921259842
 21
7.23523622047244
 31
0.0
  0
LINE
  5
106
330
17
100
AcDbEntity
  8
GEOMETRY
100
AcDbLine
 10
10.32603346456693
 20
9.383858267716535
 30
0.0
 11
10.32603346456693
 21
7.23523622047244
 31
0.0
  0
LINE
  5
107
330
17
100
AcDbEntity
  8
GEOMETRY
100
AcDbLine
 10
10.01771653543307
 20
7.609251968503937
 30
0.0
 11
10.480196850393702
 21
7.609251968503937
 31
0.0
  0
LINE
  5
108
330
17
100
AcDbEntity
  8
GEOMETRY
100
AcDbLine
 10
10.01771653543307
 20
7.983267716535433
 30
0.0
 11
10.480196850393702
 21
7.983267716535433
 31
0.0
  0
LINE
  5
109
330
17
100
AcDbEntity
  8
GEOMETRY
100
AcDbLine
 10
10.01771653543307
 20
8.35728346456693
 30
0.0
 11
10.480196850393702
 21
8.35728346456693
 31
0.0
  0
LINE
  5
10A
330
17
100
AcDbEntity
  8
GEOMETRY
100
AcDbLine
 10
10.01771653543307
 20
8.731299212598426
 30
0.0
 11
10.480196850393702
 21
8.731299212598426
 31
0.0
  0
LINE
  5
10B
330
17
100
AcDbEntity
  8
GEOMETRY
100
AcDbLine
 10
10.01771653543307
 20
9.105314960629922
 30
0.0
 11
10.480196850393702
 21
9.105314960629922
 31
0.0
  0
LWPOLYLINE
  5
10C
330
17
100
AcDbEntity
  8
GEOMETRY
100
AcDbPolyline
 90
5
 70
0
 10
10.01771653543307
 20
9.383858267716537
 10
10.480196850393702
 20
9.383858267716537
 10
10.480196850393702
 20
7.235236220472442
 10
10.01771653543307
 20
7.235236220472442
 10
10.01771653543307
 20
9.383858267716537
  0
LWPOLYLINE
  5
10D
330
17
100
AcDbEntity
  8
GEOMETRY
100
AcDbPolyline
 90
5
 70
0
 10
10.055118110236219
 20
9.346456692913387
 10
10.44279527559055
 20
9.346456692913387
 10
10.44279527559055
 20
7.272637795275591
 10
10.055118110236219
 20
7.272637795275591
 10
10.055118110236219
 20
9.346456692913387
  0
LINE
  5
10E
330
17
100
AcDbEntity
  8
GEOMETRY
100
AcDbLine
 10
10.411299212598426
 20
8.121062992125985
 30
0.0
 11
10.411299212598426
 21
8.416338582677165
 31
0.0
  0
LINE
  5
10F
330
17
100
AcDbEntity
  8
GEOMETRY
100
AcDbLine
 10
10.634350393700787
 20
9.383858267716535
 30
0.0
 11
10.634350393700787
 21
7.23523622047244
 31
0.0
  0
LINE
  5
110
330
17
100
AcDbEntity
  8
GEOMETRY
100
AcDbLine
 10
10.788513779527559
 20
9.383858267716535
 30
0.0
 11
10.788513779527559
 21
7.23523622047244
 31
0.0
  0
LINE
  5
111
330
17
100
AcDbEntity
  8
GEOMETRY
100
AcDbLine
 10
10.480196850393702
 20
7.609251968503937
 30
0.0
 11
10.942667322834644
 21
7.609251968503937
 31
0.0
  0
LINE
  5
112
330
17
100
AcDbEntity
  8
GEOMETRY
100
AcDbLine
 10
10.480196850393702
 20
7.983267716535433
 30
0.0
 11
10.942667322834644
 21
7.983267716535433
 31
0.0
  0
LINE
  5
113
330
17
100
AcDbEntity
  8
GEOMETRY
100
AcDbLine
 10
10.480196850393702
 20
8.35728346456693
 30
0.0
 11
10.942667322834644
 21
8.35728346456693
 31
0.0
  0
LINE
  5
114
330
17
100
AcDbEntity
  8
GEOMETRY
100
AcDbLine
 10
10.480196850393702
 20
8.731299212598426
 30
0.0
 11
10.942667322834644
 21
8.731299212598426
 31
0.0
  0
LINE
  5
115
330
17
100
AcDbEntity
  8
GEOMETRY
100
AcDbLine
 10
10.480196850393702
 20
9.105314960629922
 30
0.0
 11
10.942667322834644
 21
9.105314960629922
 31
0.0
  0
LWPOLYLINE
  5
116
330
17
100
AcDbEntity
  8
GEOMETRY
100
AcDbPolyline
 90
5
 70
0
 10
10.480196850393702
 20
9.383858267716537
 10
10.94267716535433
 20
9.383858267716537
 10
10.94267716535433
 20
7.235236220472442
 10
10.480196850393702
 20
7.235236220472442
 10
10.480196850393702
 20
9.383858267716537
  0
LWPOLYLINE
  5
117
330
17
100
AcDbEntity
  8
GEOMETRY
100
AcDbPolyline
 90
5
 70
0
 10
10.51759842519685
 20
9.346456692913387
 10
10.90527559055118
 20
9.346456692913387
 10
10.90527559055118
 20
7.272637795275591
 10
10.51759842519685
 20
7.272637795275591
 10
10.51759842519685
 20
9.346456692913387
  0
LINE
  5
118
330
17
100
AcDbEntity
  8
GEOMETRY
100
AcDbLine
 10
10.549094488188976
 20
8.121062992125985
 30
0.0
 11
10.549094488188976
 21
8.416338582677165
 31
0.0
  0
LINE
  5
119
330
17
100
AcDbEntity
  8
GEOMETRY
100
AcDbLine
 10
10.171879921259842
 20
9.935039370078739
 30
0.0
 11
10.171879921259842
 21
9.383858267716535
 31
0.0
  0
LINE
  5
11A
330
17
100
AcDbEntity
  8
GEOMETRY
100
AcDbLine
 10
10.32603346456693
 20
9.935039370078739
 30
0.0
 11
10.32603346456693
 21
9.383858267716535
 31
0.0
  0
LINE
  5
11B
330
17
100
AcDbEntity
  8
GEOMETRY
100
AcDbLine
 10
10.01771653543307
 20
9.757874015748031
 30
0.0
 11
10.480196850393702
 21
9.757874015748031
 31
0.0
  0
LWPOLYLINE
  5
11C
330
17
100
AcDbEntity
  8
GEOMETRY
100
AcDbPolyline
 90
5
 70
0
 10
10.01771653543307
 20
9.93503937007874
 10
10.480196850393702
 20
9.93503937007874
 10
10.480196850393702
 20
9.383858267716537
 10
10.01771653543307
 20
9.383858267716537
 10
10.01771653543307
 20
9.93503937007874
  0
LWPOLYLINE
  5
11D
330
17
100
AcDbEntity
  8
GEOMETRY
100
AcDbPolyline
 90
5
 70
0
 10
10.055118110236219
 20
9.89763779527559
 10
10.44279527559055
 20
9.89763779527559
 10
10.44279527559055
 20
9.421259842519685
 10
10.055118110236219
 20
9.421259842519685
 10
10.055118110236219
 20
9.89763779527559
  0
LINE
  5
11E
330
17
100
AcDbEntity
  8
GEOMETRY
100
AcDbLine
 10
10.411299212598426
 20
9.561023622047244
 30
0.0
 11
10.411299212598426
 21
9.757874015748031
 31
0.0
  0
LINE
  5
11F
330
17
100
AcDbEntity
  8
GEOMETRY
100
AcDbLine
 10
10.634350393700787
 20
9.935039370078739
 30
0.0
 11
10.634350393700787
 21
9.383858267716535
 31
0.0
  0
LINE
  5
120
330
17
100
AcDbEntity
  8
GEOMETRY
100
AcDbLine
 10
10.788513779527559
 20
9.935039370078739
 30
0.0
 11
10.788513779527559
 21
9.383858267716535
 31
0.0
  0
LINE
  5
121
330
17
100
AcDbEntity
  8
GEOMETRY
100
AcDbLine
 10
10.480196850393702
 20
9.757874015748031
 30
0.0
 11
10.942667322834644
 21
9.757874015748031
 31
0.0
  0
LWPOLYLINE
  5
122
330
17
100
AcDbEntity
  8
GEOMETRY
100
AcDbPolyline
 90
5
 70
0
 10
10.480196850393702
 20
9.93503937007874
 10
10.94267716535433
 20
9.93503937007874
 10
10.94267716535433
 20
9.383858267716537
 10
10.480196850393702
 20
9.383858267716537
 10
10.480196850393702
 20
9.93503937007874
  0
LWPOLYLINE
  5
123
330
17
100
AcDbEntity
  8
GEOMETRY
100
AcDbPolyline
 90
5
 70
0
 10
10.51759842519685
 20
9.89763779527559
 10
10.90527559055118
 20
9.89763779527559
 10
10.90527559055118
 20
9.421259842519685
 10
10.51759842519685
 20
9.421259842519685
 10
10.51759842519685
 20
9.89763779527559
  0
LINE
  5
124
330
17
100
AcDbEntity
  8
GEOMETRY
100
AcDbLine
 10
10.549094488188976
 20
9.561023622047244
 30
0.0
 11
10.549094488188976
 21
9.757874015748031
 31
0.0
  0
LINE
  5
125
330
17
100
AcDbEntity
  8
GEOMETRY
100
AcDbLine
 10
11.096830708661416
 20
9.383858267716535
 30
0.0
 11
11.096830708661416
 21
7.23523622047244
 31
0.0
  0
LINE
  5
126
330
17
100
AcDbEntity
  8
GEOMETRY
100
AcDbLine
 10
11.250984251968504
 20
9.383858267716535
 30
0.0
 11
11.250984251968504
 21
7.23523622047244
 31
0.0
  0
LINE
  5
127
330
17
100
AcDbEntity
  8
GEOMETRY
100
AcDbLine
 10
10.942667322834644
 20
7.609251968503937
 30
0.0
 11
11.405147637795274
 21
7.609251968503937
 31
0.0
  0
LINE
  5
128
330
17
100
AcDbEntity
  8
GEOMETRY
100
AcDbLine
 10
10.942667322834644
 20
7.983267716535433
 30
0.0
 11
11.405147637795274
 21
7.983267716535433
 31
0.0
  0
LINE
  5
129
330
17
100
AcDbEntity
  8
GEOMETRY
100
AcDbLine
 10
10.942667322834644
 20
8.35728346456693
 30
0.0
 11
11.405147637795274
 21
8.35728346456693
 31
0.0
  0
LINE
  5
12A
330
17
100
AcDbEntity
  8
GEOMETRY
100
AcDbLine
 10
10.942667322834644
 20
8.731299212598426
 30
0.0
 11
11.405147637795274
 21
8.731299212598426
 31
0.0
  0
LINE
  5
12B
330
17
100
AcDbEntity
  8
GEOMETRY
100
AcDbLine
 10
10.942667322834644
 20
9.105314960629922
 30
0.0
 11
11.405147637795274
 21
9.105314960629922
 31
0.0
  0
LWPOLYLINE
  5
12C
330
17
100
AcDbEntity
  8
GEOMETRY
100
AcDbPolyline
 90
5
 70
0
 10
10.942667322834644
 20
9.383858267716537
 10
11.405147637795274
 20
9.383858267716537
 10
11.405147637795274
 20
7.235236220472442
 10
10.942667322834644
 20
7.235236220472442
 10
10.942667322834644
 20
9.383858267716537
  0
LWPOLYLINE
  5
12D
330
17
100
AcDbEntity
  8
GEOMETRY
100
AcDbPolyline
 90
5
 70
0
 10
10.980068897637796
 20
9.346456692913387
 10
11.367746062992126
 20
9.346456692913387
 10
11.367746062992126
 20
7.272637795275591
 10
10.980068897637796
 20
7.272637795275591
 10
10.980068897637796
 20
9.346456692913387
  0
LINE
  5
12E
330
17
100
AcDbEntity
  8
GEOMETRY
100
AcDbLine
 10
11.33625
 20
8.121062992125985
 30
0.0
 11
11.33625
 21
8.416338582677165
 31
0.0
  0
LINE
  5
12F
330
17
100
AcDbEntity
  8
GEOMETRY
100
AcDbLine
 10
11.559301181102361
 20
9.383858267716535
 30
0.0
 11
11.559301181102361
 21
7.23523622047244
 31
0.0
  0
LINE
  5
130
330
17
100
AcDbEntity
  8
GEOMETRY
100
AcDbLine
 10
11.713464566929133
 20
9.383858267716535
 30
0.0
 11
11.713464566929133
 21
7.23523622047244
 31
0.0
  0
LINE
  5
131
330
17
100
AcDbEntity
  8
GEOMETRY
100
AcDbLine
 10
11.405147637795274
 20
7.609251968503937
 30
0.0
 11
11.86761811023622
 21
7.609251968503937
 31
0.0
  0
LINE
  5
132
330
17
100
AcDbEntity
  8
GEOMETRY
100
AcDbLine
 10
11.405147637795274
 20
7.983267716535433
 30
0.0
 11
11.86761811023622
 21
7.983267716535433
 31
0.0
  0
LINE
  5
133
330
17
100
AcDbEntity
  8
GEOMETRY
100
AcDbLine
 10
11.405147637795274
 20
8.35728346456693
 30
0.0
 11
11.86761811023622
 21
8.35728346456693
 31
0.0
  0
LINE
  5
134
330
17
100
AcDbEntity
  8
GEOMETRY
100
AcDbLine
 10
11.405147637795274
 20
8.731299212598426
 30
0.0
 11
11.86761811023622
 21
8.731299212598426
 31
0.0
  0
LINE
  5
135
330
17
100
AcDbEntity
  8
GEOMETRY
100
AcDbLine
 10
11.405147637795274
 20
9.105314960629922
 30
0.0
 11
11.86761811023622
 21
9.105314960629922
 31
0.0
  0
LWPOLYLINE
  5
136
330
17
100
AcDbEntity
  8
GEOMETRY
100
AcDbPolyline
 90
5
 70
0
 10
11.405147637795274
 20
9.383858267716537
 10
11.867627952755905
 20
9.383858267716537
 10
11.867627952755905
 20
7.235236220472442
 10
11.405147637795274
 20
7.235236220472442
 10
11.405147637795274
 20
9.383858267716537
  0
LWPOLYLINE
  5
137
330
17
100
AcDbEntity
  8
GEOMETRY
100
AcDbPolyline
 90
5
 70
0
 10
11.442549212598424
 20
9.346456692913387
 10
11.830226377952753
 20
9.346456692913387
 10
11.830226377952753
 20
7.272637795275591
 10
11.442549212598424
 20
7.272637795275591
 10
11.442549212598424
 20
9.346456692913387
  0
LINE
  5
138
330
17
100
AcDbEntity
  8
GEOMETRY
100
AcDbLine
 10
11.47404527559055
 20
8.121062992125985
 30
0.0
 11
11.47404527559055
 21
8.416338582677165
 31
0.0
  0
LINE
  5
139
330
17
100
AcDbEntity
  8
GEOMETRY
100
AcDbLine
 10
11.096830708661416
 20
9.935039370078739
 30
0.0
 11
11.096830708661416
 21
9.383858267716535
 31
0.0
  0
LINE
  5
13A
330
17
100
AcDbEntity
  8
GEOMETRY
100
AcDbLine
 10
11.250984251968504
 20
9.935039370078739
 30
0.0
 11
11.250984251968504
 21
9.383858267716535
 31
0.0
  0
LINE
  5
13B
330
17
100
AcDbEntity
  8
GEOMETRY
100
AcDbLine
 10
10.942667322834644
 20
9.757874015748031
 30
0.0
 11
11.405147637795274
 21
9.757874015748031
 31
0.0
  0
LWPOLYLINE
  5
13C
330
17
100
AcDbEntity
  8
GEOMETRY
100
AcDbPolyline
 90
5
 70
0
 10
10.942667322834644
 20
9.93503937007874
 10
11.405147637795274
 20
9.93503937007874
 10
11.405147637795274
 20
9.383858267716537
 10
10.942667322834644
 20
9.383858267716537
 10
10.942667322834644
 20
9.93503937007874
  0
LWPOLYLINE
  5
13D
330
17
100
AcDbEntity
  8
GEOMETRY
100
AcDbPolyline
 90
5
 70
0
 10
10.980068897637796
 20
9.89763779527559
 10
11.367746062992126
 20
9.89763779527559
 10
11.367746062992126
 20
9.421259842519685
 10
10.980068897637796
 20
9.421259842519685
 10
10.980068897637796
 20
9.89763779527559
  0
LINE
  5
13E
330
17
100
AcDbEntity
  8
GEOMETRY
100
AcDbLine
 10
11.33625
 20
9.561023622047244
 30
0.0
 11
11.33625
 21
9.757874015748031
 31
0.0
  0
LINE
  5
13F
330
17
100
AcDbEntity
  8
GEOMETRY
100
AcDbLine
 10
11.559301181102361
 20
9.935039370078739
 30
0.0
 11
11.559301181102361
 21
9.383858267716535
 31
0.0
  0
LINE
  5
140
330
17
100
AcDbEntity
  8
GEOMETRY
100
AcDbLine
 10
11.713464566929133
 20
9.935039370078739
 30
0.0
 11
11.713464566929133
 21
9.383858267716535
 31
0.0
  0
LINE
  5
141
330
17
100
AcDbEntity
  8
GEOMETRY
100
AcDbLine
 10
11.405147637795274
 20
9.757874015748031
 30
0.0
 11
11.86761811023622
 21
9.757874015748031
 31
0.0
  0
LWPOLYLINE
  5
142
330
17
100
AcDbEntity
  8
GEOMETRY
100
AcDbPolyline
 90
5
 70
0
 10
11.405147637795274
 20
9.93503937007874
 10
11.867627952755905
 20
9.93503937007874
 10
11.867627952755905
 20
9.383858267716537
 10
11.405147637795274
 20
9.383858267716537
 10
11.405147637795274
 20
9.93503937007874
  0
LWPOLYLINE
  5
143
330
17
100
AcDbEntity
  8
GEOMETRY
100
AcDbPolyline
 90
5
 70
0
 10
11.442549212598424
 20
9.89763779527559
 10
11.830226377952753
 20
9.89763779527559
 10
11.830226377952753
 20
9.421259842519685
 10
11.442549212598424
 20
9.421259842519685
 10
11.442549212598424
 20
9.89763779527559
  0
LINE
  5
144
330
17
100
AcDbEntity
  8
GEOMETRY
100
AcDbLine
 10
11.47404527559055
 20
9.561023622047244
 30
0.0
 11
11.47404527559055
 21
9.757874015748031
 31
0.0
  0
LINE
  5
145
330
17
100
AcDbEntity
  8
GEOMETRY
100
AcDbLine
 10
12.021781496062992
 20
9.383858267716535
 30
0.0
 11
12.021781496062992
 21
7.23523622047244
 31
0.0
  0
LINE
  5
146
330
17
100
AcDbEntity
  8
GEOMETRY
100
AcDbLine
 10
12.17593503937008
 20
9.383858267716535
 30
0.0
 11
12.17593503937008
 21
7.23523622047244
 31
0.0
  0
LINE
  5
147
330
17
100
AcDbEntity
  8
GEOMETRY
100
AcDbLine
 10
11.86761811023622
 20
7.609251968503937
 30
0.0
 11
12.330098425196852
 21
7.609251968503937
 31
0.0
  0
LINE
  5
148
330
17
100
AcDbEntity
  8
GEOMETRY
100
AcDbLine
 10
11.86761811023622
 20
7.983267716535433
 30
0.0
 11
12.330098425196852
 21
7.983267716535433
 31
0.0
  0
LINE
  5
149
330
17
100
AcDbEntity
  8
GEOMETRY
100
AcDbLine
 10
11.86761811023622
 20
8.35728346456693
 30
0.0
 11
12.330098425196852
 21
8.35728346456693
 31
0.0
  0
LINE
  5
14A
330
17
100
AcDbEntity
  8
GEOMETRY
100
AcDbLine
 10
11.86761811023622
 20
8.731299212598426
 30
0.0
 11
12.330098425196852
 21
8.731299212598426
 31
0.0
  0
LINE
  5
14B
330
17
100
AcDbEntity
  8
GEOMETRY
100
AcDbLine
 10
11.86761811023622
 20
9.105314960629922
 30
0.0
 11
12.330098425196852
 21
9.105314960629922
 31
0.0
  0
LWPOLYLINE
  5
14C
330
17
100
AcDbEntity
  8
GEOMETRY
100
AcDbPolyline
 90
5
 70
0
 10
11.86761811023622
 20
9.383858267716537
 10
12.330098425196852
 20
9.383858267716537
 10
12.330098425196852
 20
7.235236220472442
 10
11.86761811023622
 20
7.235236220472442
 10
11.86761811023622
 20
9.383858267716537
  0
LWPOLYLINE
  5
14D
330
17
100
AcDbEntity
  8
GEOMETRY
100
AcDbPolyline
 90
5
 70
0
 10
11.905019685039369
 20
9.346456692913387
 10
12.2926968503937
 20
9.346456692913387
 10
12.2926968503937
 20
7.272637795275591
 10
11.905019685039369
 20
7.272637795275591
 10
11.905019685039369
 20
9.346456692913387
  0
LINE
  5
14E
330
17
100
AcDbEntity
  8
GEOMETRY
100
AcDbLine
 10
12.261200787401576
 20
8.121062992125985
 30
0.0
 11
12.261200787401576
 21
8.416338582677165
 31
0.0
  0
LINE
  5
14F
330
17
100
AcDbEntity
  8
GEOMETRY
100
AcDbLine
 10
12.484251968503937
 20
9.383858267716535
 30
0.0
 11
12.484251968503937
 21
7.23523622047244
 31
0.0
  0
LINE
  5
150
330
17
100
AcDbEntity
  8
GEOMETRY
100
AcDbLine
 10
12.638415354330709
 20
9.383858267716535
 30
0.0
 11
12.638415354330709
 21
7.23523622047244
 31
0.0
  0
LINE
  5
151
330
17
100
AcDbEntity
  8
GEOMETRY
100
AcDbLine
 10
12.330098425196852
 20
7.609251968503937
 30
0.0
 11
12.792568897637794
 21
7.609251968503937
 31
0.0
  0
LINE
  5
152
330
17
100
AcDbEntity
  8
GEOMETRY
100
AcDbLine
 10
12.330098425196852
 20
7.983267716535433
 30
0.0
 11
12.792568897637794
 21
7.983267716535433
 31
0.0
  0
LINE
  5
153
330
17
100
AcDbEntity
  8
GEOMETRY
100
AcDbLine
 10
12.330098425196852
 20
8.35728346456693
 30
0.0
 11
12.792568897637794
 21
8.35728346456693
 31
0.0
  0
LINE
  5
154
330
17
100
AcDbEntity
  8
GEOMETRY
100
AcDbLine
 10
12.330098425196852
 20
8.731299212598426
 30
0.0
 11
12.792568897637794
 21
8.731299212598426
 31
0.0
  0
LINE
  5
155
330
17
100
AcDbEntity
  8
GEOMETRY
100
AcDbLine
 10
12.330098425196852
 20
9.105314960629922
 30
0.0
 11
12.792568897637794
 21
9.105314960629922
 31
0.0
  0
LWPOLYLINE
  5
156
330
17
100
AcDbEntity
  8
GEOMETRY
100
AcDbPolyline
 90
5
 70
0
 10
12.330098425196852
 20
9.383858267716537
 10
12.79257874015748
 20
9.383858267716537
 10
12.79257874015748
 20
7.235236220472442
 10
12.330098425196852
 20
7.235236220472442
 10
12.330098425196852
 20
9.383858267716537
  0
LWPOLYLINE
  5
157
330
17
100
AcDbEntity
  8
GEOMETRY
100
AcDbPolyline
 90
5
 70
0
 10
12.3675
 20
9.346456692913387
 10
12.755177165354329
 20
9.346456692913387
 10
12.755177165354329
 20
7.272637795275591
 10
12.3675
 20
7.272637795275591
 10
12.3675
 20
9.346456692913387
  0
LINE
  5
158
330
17
100
AcDbEntity
  8
GEOMETRY
100
AcDbLine
 10
12.398996062992126
 20
8.121062992125985
 30
0.0
 11
12.398996062992126
 21
8.416338582677165
 31
0.0
  0
LINE
  5
159
330
17
100
AcDbEntity
  8
GEOMETRY
100
AcDbLine
 10
12.021781496062992
 20
9.935039370078739
 30
0.0
 11
12.021781496062992
 21
9.383858267716535
 31
0.0
  0
LINE
  5
15A
330
17
100
AcDbEntity
  8
GEOMETRY
100
AcDbLine
 10
12.17593503937008
 20
9.935039370078739
 30
0.0
 11
12.17593503937008
 21
9.383858267716535
 31
0.0
  0
LINE
  5
15B
330
17
100
AcDbEntity
  8
GEOMETRY
100
AcDbLine
 10
11.86761811023622
 20
9.757874015748031
 30
0.0
 11
12.330098425196852
 21
9.757874015748031
 31
0.0
  0
LWPOLYLINE
  5
15C
330
17
100
AcDbEntity
  8
GEOMETRY
100
AcDbPolyline
 90
5
 70
0
 10
11.86761811023622
 20
9.93503937007874
 10
12.330098425196852
 20
9.93503937007874
 10
12.330098425196852
 20
9.383858267716537
 10
11.86761811023622
 20
9.383858267716537
 10
11.86761811023622
 20
9.93503937007874
  0
LWPOLYLINE
  5
15D
330
17
100
AcDbEntity
  8
GEOMETRY
100
AcDbPolyline
 90
5
 70
0
 10
11.905019685039369
 20
9.89763779527559
 10
12.2926968503937
 20
9.89763779527559
 10
12.2926968503937
 20
9.421259842519685
 10
11.905019685039369
 20
9.421259842519685
 10
11.905019685039369
 20
9.89763779527559
  0
LINE
  5
15E
330
17
100
AcDbEntity
  8
GEOMETRY
100
AcDbLine
 10
12.261200787401576
 20
9.561023622047244
 30
0.0
 11
12.261200787401576
 21
9.757874015748031
 31
0.0
  0
LINE
  5
15F
330
17
100
AcDbEntity
  8
GEOMETRY
100
AcDbLine
 10
12.484251968503937
 20
9.935039370078739
 30
0.0
 11
12.484251968503937
 21
9.383858267716535
 31
0.0
  0
LINE
  5
160
330
17
100
AcDbEntity
  8
GEOMETRY
100
AcDbLine
 10
12.638415354330709
 20
9.935039370078739
 30
0.0
 11
12.638415354330709
 21
9.383858267716535
 31
0.0
  0
LINE
  5
161
330
17
100
AcDbEntity
  8
GEOMETRY
100
AcDbLine
 10
12.330098425196852
 20
9.757874015748031
 30
0.0
 11
12.792568897637794
 21
9.757874015748031
 31
0.0
  0
LWPOLYLINE
  5
162
330
17
100
AcDbEntity
  8
GEOMETRY
100
AcDbPolyline
 90
5
 70
0
 10
12.330098425196852
 20
9.93503937007874
 10
12.79257874015748
 20
9.93503937007874
 10
12.79257874015748
 20
9.383858267716537
 10
12.330098425196852
 20
9.383858267716537
 10
12.330098425196852
 20
9.93503937007874
  0
LWPOLYLINE
  5
163
330
17
100
AcDbEntity
  8
GEOMETRY
100
AcDbPolyline
 90
5
 70
0
 10
12.3675
 20
9.89763779527559
 10
12.755177165354329
 20
9.89763779527559
 10
12.755177165354329
 20
9.421259842519685
 10
12.3675
 20
9.421259842519685
 10
12.3675
 20
9.89763779527559
  0
LINE
  5
164
330
17
100
AcDbEntity
  8
GEOMETRY
100
AcDbLine
 10
12.398996062992126
 20
9.561023622047244
 30
0.0
 11
12.398996062992126
 21
9.757874015748031
 31
0.0
  0
LINE
  5
165
330
17
100
AcDbEntity
  8
GEOMETRY
100
AcDbLine
 10
12.946732283464566
 20
9.383858267716535
 30
0.0
 11
12.946732283464566
 21
7.23523622047244
 31
0.0
  0
LINE
  5
166
330
17
100
AcDbEntity
  8
GEOMETRY
100
AcDbLine
 10
13.100885826771654
 20
9.383858267716535
 30
0.0
 11
13.100885826771654
 21
7.23523622047244
 31
0.0
  0
LINE
  5
167
330
17
100
AcDbEntity
  8
GEOMETRY
100
AcDbLine
 10
12.792568897637794
 20
7.609251968503937
 30
0.0
 11
13.255049212598424
 21
7.609251968503937
 31
0.0
  0
LINE
  5
168
330
17
100
AcDbEntity
  8
GEOMETRY
100
AcDbLine
 10
12.792568897637794
 20
7.983267716535433
 30
0.0
 11
13.255049212598424
 21
7.983267716535433
 31
0.0
  0
LINE
  5
169
330
17
100
AcDbEntity
  8
GEOMETRY
100
AcDbLine
 10
12.792568897637794
 20
8.35728346456693
 30
0.0
 11
13.255049212598424
 21
8.35728346456693
 31
0.0
  0
LINE
  5
16A
330
17
100
AcDbEntity
  8
GEOMETRY
100
AcDbLine
 10
12.792568897637794
 20
8.731299212598426
 30
0.0
 11
13.255049212598424
 21
8.731299212598426
 31
0.0
  0
LINE
  5
16B
330
17
100
AcDbEntity
  8
GEOMETRY
100
AcDbLine
 10
12.792568897637794
 20
9.105314960629922
 30
0.0
 11
13.255049212598424
 21
9.105314960629922
 31
0.0
  0
LWPOLYLINE
  5
16C
330
17
100
AcDbEntity
  8
GEOMETRY
100
AcDbPolyline
 90
5
 70
0
 10
12.792568897637794
 20
9.383858267716537
 10
13.255049212598424
 20
9.383858267716537
 10
13.255049212598424
 20
7.235236220472442
 10
12.792568897637794
 20
7.235236220472442
 10
12.792568897637794
 20
9.383858267716537
  0
LWPOLYLINE
  5
16D
330
17
100
AcDbEntity
  8
GEOMETRY
100
AcDbPolyline
 90
5
 70
0
 10
12.829970472440946
 20
9.346456692913387
 10
13.217647637795276
 20
9.346456692913387
 10
13.217647637795276
 20
7.272637795275591
 10
12.829970472440946
 20
7.272637795275591
 10
12.829970472440946
 20
9.346456692913387
  0
LINE
  5
16E
330
17
100
AcDbEntity
  8
GEOMETRY
100
AcDbLine
 10
13.18615157480315
 20
8.121062992125985
 30
0.0
 11
13.18615157480315
 21
8.416338582677165
 31
0.0
  0
LINE
  5
16F
330
17
100
AcDbEntity
  8
GEOMETRY
100
AcDbLine
 10
13.409202755905511
 20
9.383858267716535
 30
0.0
 11
13.409202755905511
 21
7.23523622047244
 31
0.0
  0
LINE
  5
170
330
17
100
AcDbEntity
  8
GEOMETRY
100
AcDbLine
 10
13.563366141732283
 20
9.383858267716535
 30
0.0
 11
13.563366141732283
 21
7.23523622047244
 31
0.0
  0
LINE
  5
171
330
17
100
AcDbEntity
  8
GEOMETRY
100
AcDbLine
 10
13.255049212598424
 20
7.609251968503937
 30
0.0
 11
13.71751968503937
 21
7.609251968503937
 31
0.0
  0
LINE
  5
172
330
17
100
AcDbEntity
  8
GEOMETRY
100
AcDbLine
 10
13.255049212598424
 20
7.983267716535433
 30
0.0
 11
13.71751968503937
 21
7.983267716535433
 31
0.0
  0
LINE
  5
173
330
17
100
AcDbEntity
  8
GEOMETRY
100
AcDbLine
 10
13.255049212598424
 20
8.35728346456693
 30
0.0
 11
13.71751968503937
 21
8.35728346456693
 31
0.0
  0
LINE
  5
174
330
17
100
AcDbEntity
  8
GEOMETRY
100
AcDbLine
 10
13.255049212598424
 20
8.731299212598426
 30
0.0
 11
13.71751968503937
 21
8.731299212598426
 31
0.0
  0
LINE
  5
175
330
17
100
AcDbEntity
  8
GEOMETRY
100
AcDbLine
 10
13.255049212598424
 20
9.105314960629922
 30
0.0
 11
13.71751968503937
 21
9.105314960629922
 31
0.0
  0
LWPOLYLINE
  5
176
330
17
100
AcDbEntity
  8
GEOMETRY
100
AcDbPolyline
 90
5
 70
0
 10
13.255049212598424
 20
9.383858267716537
 10
13.717529527559055
 20
9.383858267716537
 10
13.717529527559055
 20
7.235236220472442
 10
13.255049212598424
 20
7.235236220472442
 10
13.255049212598424
 20
9.383858267716537
  0
LWPOLYLINE
  5
177
330
17
100
AcDbEntity
  8
GEOMETRY
100
AcDbPolyline
 90
5
 70
0
 10
13.292450787401574
 20
9.346456692913387
 10
13.680127952755903
 20
9.346456692913387
 10
13.680127952755903
 20
7.272637795275591
 10
13.292450787401574
 20
7.272637795275591
 10
13.292450787401574
 20
9.346456692913387
  0
LINE
  5
178
330
17
100
AcDbEntity
  8
GEOMETRY
100
AcDbLine
 10
13.3239468503937
 20
8.121062992125985
 30
0.0
 11
13.3239468503937
 21
8.416338582677165
 31
0.0
  0
LINE
  5
179
330
17
100
AcDbEntity
  8
GEOMETRY
100
AcDbLine
 10
12.946732283464566
 20
9.935039370078739
 30
0.0
 11
12.946732283464566
 21
9.383858267716535
 31
0.0
  0
LINE
  5
17A
330
17
100
AcDbEntity
  8
GEOMETRY
100
AcDbLine
 10
13.100885826771654
 20
9.935039370078739
 30
0.0
 11
13.100885826771654
 21
9.383858267716535
 31
0.0
  0
LINE
  5
17B
330
17
100
AcDbEntity
  8
GEOMETRY
100
AcDbLine
 10
12.792568897637794
 20
9.757874015748031
 30
0.0
 11
13.255049212598424
 21
9.757874015748031
 31
0.0
  0
LWPOLYLINE
  5
17C
330
17
100
AcDbEntity
  8
GEOMETRY
100
AcDbPolyline
 90
5
 70
0
 10
12.792568897637794
 20
9.93503937007874
 10
13.255049212598424
 20
9.93503937007874
 10
13.255049212598424
 20
9.383858267716537
 10
12.792568897637794
 20
9.383858267716537
 10
12.792568897637794
 20
9.93503937007874
  0
LWPOLYLINE
  5
17D
330
17
100
AcDbEntity
  8
GEOMETRY
100
AcDbPolyline
 90
5
 70
0
 10
12.829970472440946
 20
9.89763779527559
 10
13.217647637795276
 20
9.89763779527559
 10
13.217647637795276
 20
9.421259842519685
 10
12.829970472440946
 20
9.421259842519685
 10
12.829970472440946
 20
9.89763779527559
  0
LINE
  5
17E
330
17
100
AcDbEntity
  8
GEOMETRY
100
AcDbLine
 10
13.18615157480315
 20
9.561023622047244
 30
0.0
 11
13.18615157480315
 21
9.757874015748031
 31
0.0
  0
LINE
  5
17F
330
17
100
AcDbEntity
  8
GEOMETRY
100
AcDbLine
 10
13.409202755905511
 20
9.935039370078739
 30
0.0
 11
13.409202755905511
 21
9.383858267716535
 31
0.0
  0
LINE
  5
180
330
17
100
AcDbEntity
  8
GEOMETRY
100
AcDbLine
 10
13.563366141732283
 20
9.935039370078739
 30
0.0
 11
13.563366141732283
 21
9.383858267716535
 31
0.0
  0
LINE
  5
181
330
17
100
AcDbEntity
  8
GEOMETRY
100
AcDbLine
 10
13.255049212598424
 20
9.757874015748031
 30
0.0
 11
13.71751968503937
 21
9.757874015748031
 31
0.0
  0
LWPOLYLINE
  5
182
330
17
100
AcDbEntity
  8
GEOMETRY
100
AcDbPolyline
 90
5
 70
0
 10
13.255049212598424
 20
9.93503937007874
 10
13.717529527559055
 20
9.93503937007874
 10
13.717529527559055
 20
9.383858267716537
 10
13.255049212598424
 20
9.383858267716537
 10
13.255049212598424
 20
9.93503937007874
  0
LWPOLYLINE
  5
183
330
17
100
AcDbEntity
  8
GEOMETRY
100
AcDbPolyline
 90
5
 70
0
 10
13.292450787401574
 20
9.89763779527559
 10
13.680127952755903
 20
9.89763779527559
 10
13.680127952755903
 20
9.421259842519685
 10
13.292450787401574
 20
9.421259842519685
 10
13.292450787401574
 20
9.89763779527559
  0
LINE
  5
184
330
17
100
AcDbEntity
  8
GEOMETRY
100
AcDbLine
 10
13.3239468503937
 20
9.561023622047244
 30
0.0
 11
13.3239468503937
 21
9.757874015748031
 31
0.0
  0
LWPOLYLINE
  5
185
330
17
100
AcDbEntity
  8
GEOMETRY
  6
DASHED
100
AcDbPolyline
 90
5
 70
0
 10
10.01771653543307
 20
9.960629921259843
 10
13.71751968503937
 20
9.960629921259843
 10
13.71751968503937
 20
9.93503937007874
 10
10.01771653543307
 20
9.93503937007874
 10
10.01771653543307
 20
9.960629921259843
  0
TEXT
  5
186
330
17
100
AcDbEntity
  8
TEXT
100
AcDbText
 10
3.048031496062992
 20
8.36732283464567
 30
0.0
 40
0.08503937007874016
  1
D3
 72
1
 11
3.048031496062992
 21
8.36732283464567
 31
0.0
100
AcDbText
  0
TEXT
  5
187
330
17
100
AcDbEntity
  8
TEXT
100
AcDbText
 10
7.108267716535433
 20
8.58503937007874
 30
0.0
 40
0.048188976377952754
  1
RUN END
 50
90.0
 72
1
 11
7.108267716535433
 21
8.58503937007874
 31
0.0
100
AcDbText
  0
TEXT
  5
188
330
17
100
AcDbEntity
  8
TEXT
100
AcDbText
 10
9.20787401574803
 20
8.58503937007874
 30
0.0
 40
0.048188976377952754
  1
RUN END
 50
90.0
 72
1
 11
9.20787401574803
 21
8.58503937007874
 31
0.0
100
AcDbText
  0
TEXT
  5
189
330
17
100
AcDbEntity
  8
TEXT
100
AcDbText
 10
3.9645669291338583
 20
7.383070866141733
 30
0.0
 40
0.05669291338582677
  1
1
 72
1
 11
3.9645669291338583
 21
7.383070866141733
 31
0.0
100
AcDbText
  0
TEXT
  5
18A
330
17
100
AcDbEntity
  8
TEXT
100
AcDbText
 10
4.898031496062992
 20
7.383070866141733
 30
0.0
 40
0.05669291338582677
  1
2
 72
1
 11
4.898031496062992
 21
7.383070866141733
 31
0.0
100
AcDbText
  0
TEXT
  5
18B
330
17
100
AcDbEntity
  8
TEXT
100
AcDbText
 10
5.831496062992126
 20
7.383070866141733
 30
0.0
 40
0.05669291338582677
  1
3
 72
1
 11
5.831496062992126
 21
7.383070866141733
 31
0.0
100
AcDbText
  0
TEXT
  5
18C
330
17
100
AcDbEntity
  8
TEXT
100
AcDbText
 10
10.48031496062992
 20
7.383070866141733
 30
0.0
 40
0.05669291338582677
  1
T
 72
1
 11
10.48031496062992
 21
7.383070866141733
 31
0.0
100
AcDbText
  0
TEXT
  5
18D
330
17
100
AcDbEntity
  8
TEXT
100
AcDbText
 10
11.40511811023622
 20
7.383070866141733
 30
0.0
 40
0.05669291338582677
  1
1
 72
1
 11
11.40511811023622
 21
7.383070866141733
 31
0.0
100
AcDbText
  0
TEXT
  5
18E
330
17
100
AcDbEntity
  8
TEXT
100
AcDbText
 10
12.32992125984252
 20
7.383070866141733
 30
0.0
 40
0.05669291338582677
  1
2
 72
1
 11
12.32992125984252
 21
7.383070866141733
 31
0.0
100
AcDbText
  0
TEXT
  5
18F
330
17
100
AcDbEntity
  8
TEXT
100
AcDbText
 10
13.255118110236221
 20
7.383070866141733
 30
0.0
 40
0.05669291338582677
  1
3
 72
1
 11
13.255118110236221
 21
7.383070866141733
 31
0.0
100
AcDbText
  0
LINE
  5
190
330
17
100
AcDbEntity
  8
DIMENSIONS
100
AcDbLine
 10
2.5393700787401574
 20
6.959842519685039
 30
0.0
 11
6.3570866141732285
 21
6.959842519685039
 31
0.0
  0
LINE
  5
191
330
17
100
AcDbEntity
  8
DIMENSIONS
100
AcDbLine
 10
2.5984251968503935
 20
7.235433070866142
 30
0.0
 11
2.5984251968503935
 21
6.912598425196849
 31
0.0
  0
LINE
  5
192
330
17
100
AcDbEntity
  8
DIMENSIONS
100
AcDbLine
 10
2.559055118110236
 20
6.920472440944882
 30
0.0
 11
2.637795275590551
 21
6.9992125984251965
 31
0.0
  0
LINE
  5
193
330
17
100
AcDbEntity
  8
DIMENSIONS
100
AcDbLine
 10
3.4980314960629917
 20
7.235433070866142
 30
0.0
 11
3.4980314960629917
 21
6.912598425196849
 31
0.0
  0
LINE
  5
194
330
17
100
AcDbEntity
  8
DIMENSIONS
100
AcDbLine
 10
3.4586614173228343
 20
6.920472440944882
 30
0.0
 11
3.5374015748031495
 21
6.9992125984251965
 31
0.0
  0
LINE
  5
195
330
17
100
AcDbEntity
  8
DIMENSIONS
100
AcDbLine
 10
6.298031496062992
 20
7.235433070866142
 30
0.0
 11
6.298031496062992
 21
6.912598425196849
 31
0.0
  0
LINE
  5
196
330
17
100
AcDbEntity
  8
DIMENSIONS
100
AcDbLine
 10
6.258661417322834
 20
6.920472440944882
 30
0.0
 11
6.33740157480315
 21
6.9992125984251965
 31
0.0
  0
TEXT
  5
197
330
17
100
AcDbEntity
  8
TEXT
100
AcDbText
 10
3.048031496062992
 20
6.991338582677165
 30
0.0
 40
0.036850393700787396
  1
3'-0" D3
 72
1
 11
3.048031496062992
 21
6.991338582677165
 31
0.0
100
AcDbText
  0
TEXT
  5
198
330
17
100
AcDbEntity
  8
TEXT
100
AcDbText
 10
4.898031496062992
 20
6.991338582677165
 30
0.0
 40
0.036850393700787396
  1
9'-4" — 3 BAYS
 72
1
 11
4.898031496062992
 21
6.991338582677165
 31
0.0
100
AcDbText
  0
LINE
  5
199
330
17
100
AcDbEntity
  8
DIMENSIONS
100
AcDbLine
 10
3.4389763779527556
 20
6.684251968503937
 30
0.0
 11
6.3570866141732285
 21
6.684251968503937
 31
0.0
  0
LINE
  5
19A
330
17
100
AcDbEntity
  8
DIMENSIONS
100
AcDbLine
 10
3.4980314960629917
 20
6.841732283464567
 30
0.0
 11
3.4980314960629917
 21
6.637007874015748
 31
0.0
  0
LINE
  5
19B
330
17
100
AcDbEntity
  8
DIMENSIONS
100
AcDbLine
 10
3.4586614173228343
 20
6.64488188976378
 30
0.0
 11
3.5374015748031495
 21
6.723622047244095
 31
0.0
  0
LINE
  5
19C
330
17
100
AcDbEntity
  8
DIMENSIONS
100
AcDbLine
 10
4.431496062992126
 20
6.841732283464567
 30
0.0
 11
4.431496062992126
 21
6.637007874015748
 31
0.0
  0
LINE
  5
19D
330
17
100
AcDbEntity
  8
DIMENSIONS
100
AcDbLine
 10
4.392125984251969
 20
6.64488188976378
 30
0.0
 11
4.470866141732284
 21
6.723622047244095
 31
0.0
  0
LINE
  5
19E
330
17
100
AcDbEntity
  8
DIMENSIONS
100
AcDbLine
 10
5.36496062992126
 20
6.841732283464567
 30
0.0
 11
5.36496062992126
 21
6.637007874015748
 31
0.0
  0
LINE
  5
19F
330
17
100
AcDbEntity
  8
DIMENSIONS
100
AcDbLine
 10
5.325590551181103
 20
6.64488188976378
 30
0.0
 11
5.404330708661417
 21
6.723622047244095
 31
0.0
  0
LINE
  5
1A0
330
17
100
AcDbEntity
  8
DIMENSIONS
100
AcDbLine
 10
6.298031496062992
 20
6.841732283464567
 30
0.0
 11
6.298031496062992
 21
6.637007874015748
 31
0.0
  0
LINE
  5
1A1
330
17
100
AcDbEntity
  8
DIMENSIONS
100
AcDbLine
 10
6.258661417322834
 20
6.64488188976378
 30
0.0
 11
6.33740157480315
 21
6.723622047244095
 31
0.0
  0
TEXT
  5
1A2
330
17
100
AcDbEntity
  8
TEXT
100
AcDbText
 10
3.9645669291338583
 20
6.715748031496062
 30
0.0
 40
0.03401574803149606
  1
3'-1⅜"
 72
1
 11
3.9645669291338583
 21
6.715748031496062
 31
0.0
100
AcDbText
  0
TEXT
  5
1A3
330
17
100
AcDbEntity
  8
TEXT
100
AcDbText
 10
4.898425196850393
 20
6.715748031496062
 30
0.0
 40
0.03401574803149606
  1
3'-1⅜"
 72
1
 11
4.898425196850393
 21
6.715748031496062
 31
0.0
100
AcDbText
  0
TEXT
  5
1A4
330
17
100
AcDbEntity
  8
TEXT
100
AcDbText
 10
5.831496062992126
 20
6.715748031496062
 30
0.0
 40
0.03401574803149606
  1
3'-1⅜"
 72
1
 11
5.831496062992126
 21
6.715748031496062
 31
0.0
100
AcDbText
  0
LINE
  5
1A5
330
17
100
AcDbEntity
  8
DIMENSIONS
100
AcDbLine
 10
6.711417322834645
 20
6.959842519685039
 30
0.0
 11
9.604330708661417
 21
6.959842519685039
 31
0.0
  0
LINE
  5
1A6
330
17
100
AcDbEntity
  8
DIMENSIONS
100
AcDbLine
 10
6.770472440944881
 20
7.235433070866142
 30
0.0
 11
6.770472440944881
 21
6.912598425196849
 31
0.0
  0
LINE
  5
1A7
330
17
100
AcDbEntity
  8
DIMENSIONS
100
AcDbLine
 10
6.731102362204724
 20
6.920472440944882
 30
0.0
 11
6.80984251968504
 21
6.9992125984251965
 31
0.0
  0
LINE
  5
1A8
330
17
100
AcDbEntity
  8
DIMENSIONS
100
AcDbLine
 10
7.4460629921259835
 20
7.235433070866142
 30
0.0
 11
7.4460629921259835
 21
6.912598425196849
 31
0.0
  0
LINE
  5
1A9
330
17
100
AcDbEntity
  8
DIMENSIONS
100
AcDbLine
 10
7.406692913385826
 20
6.920472440944882
 30
0.0
 11
7.485433070866142
 21
6.9992125984251965
 31
0.0
  0
LINE
  5
1AA
330
17
100
AcDbEntity
  8
DIMENSIONS
100
AcDbLine
 10
7.633070866141732
 20
7.235433070866142
 30
0.0
 11
7.633070866141732
 21
6.912598425196849
 31
0.0
  0
LINE
  5
1AB
330
17
100
AcDbEntity
  8
DIMENSIONS
100
AcDbLine
 10
7.593700787401574
 20
6.920472440944882
 30
0.0
 11
7.672440944881889
 21
6.9992125984251965
 31
0.0
  0
LINE
  5
1AC
330
17
100
AcDbEntity
  8
DIMENSIONS
100
AcDbLine
 10
8.683070866141733
 20
7.235433070866142
 30
0.0
 11
8.683070866141733
 21
6.912598425196849
 31
0.0
  0
LINE
  5
1AD
330
17
100
AcDbEntity
  8
DIMENSIONS
100
AcDbLine
 10
8.643700787401576
 20
6.920472440944882
 30
0.0
 11
8.72244094488189
 21
6.9992125984251965
 31
0.0
  0
LINE
  5
1AE
330
17
100
AcDbEntity
  8
DIMENSIONS
100
AcDbLine
 10
8.870078740157481
 20
7.235433070866142
 30
0.0
 11
8.870078740157481
 21
6.912598425196849
 31
0.0
  0
LINE
  5
1AF
330
17
100
AcDbEntity
  8
DIMENSIONS
100
AcDbLine
 10
8.830708661417324
 20
6.920472440944882
 30
0.0
 11
8.909448818897639
 21
6.9992125984251965
 31
0.0
  0
LINE
  5
1B0
330
17
100
AcDbEntity
  8
DIMENSIONS
100
AcDbLine
 10
9.54527559055118
 20
7.235433070866142
 30
0.0
 11
9.54527559055118
 21
6.912598425196849
 31
0.0
  0
LINE
  5
1B1
330
17
100
AcDbEntity
  8
DIMENSIONS
100
AcDbLine
 10
9.505905511811022
 20
6.920472440944882
 30
0.0
 11
9.584645669291339
 21
6.9992125984251965
 31
0.0
  0
LINE
  5
1B2
330
17
100
AcDbEntity
  8
DIMENSIONS
  6
DASHED
100
AcDbLine
 10
7.539370078740157
 20
6.9992125984251965
 30
0.0
 11
7.539370078740157
 21
7.077952755905511
 31
0.0
  0
LINE
  5
1B3
330
17
100
AcDbEntity
  8
DIMENSIONS
  6
DASHED
100
AcDbLine
 10
8.776771653543307
 20
6.9992125984251965
 30
0.0
 11
8.776771653543307
 21
7.2275590551181095
 31
0.0
  0
TEXT
  5
1B4
330
17
100
AcDbEntity
  8
TEXT
100
AcDbText
 10
7.108267716535433
 20
6.991338582677165
 30
0.0
 40
0.03401574803149606
  1
2'-3"
 72
1
 11
7.108267716535433
 21
6.991338582677165
 31
0.0
100
AcDbText
  0
TEXT
  5
1B5
330
17
100
AcDbEntity
  8
TEXT
100
AcDbText
 10
7.539370078740157
 20
7.133070866141733
 30
0.0
 40
0.03401574803149606
  1
7½" CLEAR
 72
1
 11
7.539370078740157
 21
7.133070866141733
 31
0.0
100
AcDbText
  0
TEXT
  5
1B6
330
17
100
AcDbEntity
  8
TEXT
100
AcDbText
 10
8.158267716535432
 20
6.991338582677165
 30
0.0
 40
0.03401574803149606
  1
3'-6" MIRROR
 72
1
 11
8.158267716535432
 21
6.991338582677165
 31
0.0
100
AcDbText
  0
TEXT
  5
1B7
330
17
100
AcDbEntity
  8
TEXT
100
AcDbText
 10
8.776771653543307
 20
7.282677165354332
 30
0.0
 40
0.03401574803149606
  1
7½" CLEAR
 72
1
 11
8.776771653543307
 21
7.282677165354332
 31
0.0
100
AcDbText
  0
TEXT
  5
1B8
330
17
100
AcDbEntity
  8
TEXT
100
AcDbText
 10
9.20787401574803
 20
6.991338582677165
 30
0.0
 40
0.03401574803149606
  1
2'-3"
 72
1
 11
9.20787401574803
 21
6.991338582677165
 31
0.0
100
AcDbText
  0
LINE
  5
1B9
330
17
100
AcDbEntity
  8
DIMENSIONS
100
AcDbLine
 10
9.958661417322833
 20
6.959842519685039
 30
0.0
 11
13.776377952755906
 21
6.959842519685039
 31
0.0
  0
LINE
  5
1BA
330
17
100
AcDbEntity
  8
DIMENSIONS
100
AcDbLine
 10
10.01771653543307
 20
7.235433070866142
 30
0.0
 11
10.01771653543307
 21
6.912598425196849
 31
0.0
  0
LINE
  5
1BB
330
17
100
AcDbEntity
  8
DIMENSIONS
100
AcDbLine
 10
9.978346456692913
 20
6.920472440944882
 30
0.0
 11
10.057086614173228
 21
6.9992125984251965
 31
0.0
  0
LINE
  5
1BC
330
17
100
AcDbEntity
  8
DIMENSIONS
100
AcDbLine
 10
10.94251968503937
 20
7.235433070866142
 30
0.0
 11
10.94251968503937
 21
6.912598425196849
 31
0.0
  0
LINE
  5
1BD
330
17
100
AcDbEntity
  8
DIMENSIONS
100
AcDbLine
 10
10.903149606299213
 20
6.920472440944882
 30
0.0
 11
10.981889763779527
 21
6.9992125984251965
 31
0.0
  0
LINE
  5
1BE
330
17
100
AcDbEntity
  8
DIMENSIONS
100
AcDbLine
 10
11.86771653543307
 20
7.235433070866142
 30
0.0
 11
11.86771653543307
 21
6.912598425196849
 31
0.0
  0
LINE
  5
1BF
330
17
100
AcDbEntity
  8
DIMENSIONS
100
AcDbLine
 10
11.828346456692913
 20
6.920472440944882
 30
0.0
 11
11.907086614173227
 21
6.9992125984251965
 31
0.0
  0
LINE
  5
1C0
330
17
100
AcDbEntity
  8
DIMENSIONS
100
AcDbLine
 10
12.79251968503937
 20
7.235433070866142
 30
0.0
 11
12.79251968503937
 21
6.912598425196849
 31
0.0
  0
LINE
  5
1C1
330
17
100
AcDbEntity
  8
DIMENSIONS
100
AcDbLine
 10
12.753149606299212
 20
6.920472440944882
 30
0.0
 11
12.831889763779527
 21
6.9992125984251965
 31
0.0
  0
LINE
  5
1C2
330
17
100
AcDbEntity
  8
DIMENSIONS
100
AcDbLine
 10
13.71732283464567
 20
7.235433070866142
 30
0.0
 11
13.71732283464567
 21
6.912598425196849
 31
0.0
  0
LINE
  5
1C3
330
17
100
AcDbEntity
  8
DIMENSIONS
100
AcDbLine
 10
13.677952755905512
 20
6.920472440944882
 30
0.0
 11
13.756692913385827
 21
6.9992125984251965
 31
0.0
  0
TEXT
  5
1C4
330
17
100
AcDbEntity
  8
TEXT
100
AcDbText
 10
10.47992125984252
 20
6.991338582677165
 30
0.0
 40
0.03401574803149606
  1
3'-1"
 72
1
 11
10.47992125984252
 21
6.991338582677165
 31
0.0
100
AcDbText
  0
TEXT
  5
1C5
330
17
100
AcDbEntity
  8
TEXT
100
AcDbText
 10
11.40511811023622
 20
6.991338582677165
 30
0.0
 40
0.03401574803149606
  1
3'-1"
 72
1
 11
11.40511811023622
 21
6.991338582677165
 31
0.0
100
AcDbText
  0
TEXT
  5
1C6
330
17
100
AcDbEntity
  8
TEXT
100
AcDbText
 10
12.330314960629922
 20
6.991338582677165
 30
0.0
 40
0.03401574803149606
  1
3'-1"
 72
1
 11
12.330314960629922
 21
6.991338582677165
 31
0.0
100
AcDbText
  0
TEXT
  5
1C7
330
17
100
AcDbEntity
  8
TEXT
100
AcDbText
 10
13.255118110236221
 20
6.991338582677165
 30
0.0
 40
0.03401574803149606
  1
3'-1"
 72
1
 11
13.255118110236221
 21
6.991338582677165
 31
0.0
100
AcDbText
  0
LINE
  5
1C8
330
17
100
AcDbEntity
  8
DIMENSIONS
100
AcDbLine
 10
9.958661417322833
 20
6.684251968503937
 30
0.0
 11
13.776377952755906
 21
6.684251968503937
 31
0.0
  0
LINE
  5
1C9
330
17
100
AcDbEntity
  8
DIMENSIONS
100
AcDbLine
 10
10.01771653543307
 20
6.841732283464567
 30
0.0
 11
10.01771653543307
 21
6.637007874015748
 31
0.0
  0
LINE
  5
1CA
330
17
100
AcDbEntity
  8
DIMENSIONS
100
AcDbLine
 10
9.978346456692913
 20
6.64488188976378
 30
0.0
 11
10.057086614173228
 21
6.723622047244095
 31
0.0
  0
LINE
  5
1CB
330
17
100
AcDbEntity
  8
DIMENSIONS
100
AcDbLine
 10
13.71732283464567
 20
6.841732283464567
 30
0.0
 11
13.71732283464567
 21
6.637007874015748
 31
0.0
  0
LINE
  5
1CC
330
17
100
AcDbEntity
  8
DIMENSIONS
100
AcDbLine
 10
13.677952755905512
 20
6.64488188976378
 30
0.0
 11
13.756692913385827
 21
6.723622047244095
 31
0.0
  0
TEXT
  5
1CD
330
17
100
AcDbEntity
  8
TEXT
100
AcDbText
 10
11.86771653543307
 20
6.715748031496062
 30
0.0
 40
0.03968503937007874
  1
12'-4" — 4 BAYS, ONE OF THEM THE TUNNEL
 72
1
 11
11.86771653543307
 21
6.715748031496062
 31
0.0
100
AcDbText
  0
LINE
  5
1CE
330
17
100
AcDbEntity
  8
DIMENSIONS
100
AcDbLine
 10
2.3622047244094486
 20
10.019685039370078
 30
0.0
 11
2.3622047244094486
 21
7.176377952755906
 31
0.0
  0
LINE
  5
1CF
330
17
100
AcDbEntity
  8
DIMENSIONS
100
AcDbLine
 10
2.559055118110236
 20
9.960629921259843
 30
0.0
 11
2.409448818897638
 21
9.960629921259843
 31
0.0
  0
LINE
  5
1D0
330
17
100
AcDbEntity
  8
DIMENSIONS
100
AcDbLine
 10
2.322834645669291
 20
9.921259842519685
 30
0.0
 11
2.4015748031496065
 21
10.0
 31
0.0
  0
LINE
  5
1D1
330
17
100
AcDbEntity
  8
DIMENSIONS
100
AcDbLine
 10
2.559055118110236
 20
9.935039370078739
 30
0.0
 11
2.409448818897638
 21
9.935039370078739
 31
0.0
  0
LINE
  5
1D2
330
17
100
AcDbEntity
  8
DIMENSIONS
100
AcDbLine
 10
2.322834645669291
 20
9.895669291338582
 30
0.0
 11
2.4015748031496065
 21
9.974409448818898
 31
0.0
  0
LINE
  5
1D3
330
17
100
AcDbEntity
  8
DIMENSIONS
100
AcDbLine
 10
2.559055118110236
 20
9.383858267716535
 30
0.0
 11
2.409448818897638
 21
9.383858267716535
 31
0.0
  0
LINE
  5
1D4
330
17
100
AcDbEntity
  8
DIMENSIONS
100
AcDbLine
 10
2.322834645669291
 20
9.344488188976378
 30
0.0
 11
2.4015748031496065
 21
9.423228346456693
 31
0.0
  0
LINE
  5
1D5
330
17
100
AcDbEntity
  8
DIMENSIONS
100
AcDbLine
 10
2.559055118110236
 20
7.235433070866142
 30
0.0
 11
2.409448818897638
 21
7.235433070866142
 31
0.0
  0
LINE
  5
1D6
330
17
100
AcDbEntity
  8
DIMENSIONS
100
AcDbLine
 10
2.322834645669291
 20
7.196062992125984
 30
0.0
 11
2.4015748031496065
 21
7.274803149606299
 31
0.0
  0
TEXT
  5
1D7
330
17
100
AcDbEntity
  8
TEXT
100
AcDbText
 10
2.330708661417323
 20
9.659448818897639
 30
0.0
 40
0.03401574803149606
  1
1'-10" TRANSOM
 50
90.0
 72
1
 11
2.330708661417323
 21
9.659448818897639
 31
0.0
100
AcDbText
  0
TEXT
  5
1D8
330
17
100
AcDbEntity
  8
TEXT
100
AcDbText
 10
2.330708661417323
 20
8.309448818897637
 30
0.0
 40
0.03401574803149606
  1
7'-2" DOOR
 50
90.0
 72
1
 11
2.330708661417323
 21
8.309448818897637
 31
0.0
100
AcDbText
  0
LINE
  5
1D9
330
17
100
AcDbEntity
  8
DIMENSIONS
100
AcDbLine
 10
2.0866141732283463
 20
10.019685039370078
 30
0.0
 11
2.0866141732283463
 21
7.176377952755906
 31
0.0
  0
LINE
  5
1DA
330
17
100
AcDbEntity
  8
DIMENSIONS
100
AcDbLine
 10
2.2440944881889764
 20
9.960629921259843
 30
0.0
 11
2.1338582677165356
 21
9.960629921259843
 31
0.0
  0
LINE
  5
1DB
330
17
100
AcDbEntity
  8
DIMENSIONS
100
AcDbLine
 10
2.047244094488189
 20
9.921259842519685
 30
0.0
 11
2.1259842519685037
 21
10.0
 31
0.0
  0
LINE
  5
1DC
330
17
100
AcDbEntity
  8
DIMENSIONS
100
AcDbLine
 10
2.2440944881889764
 20
7.235433070866142
 30
0.0
 11
2.1338582677165356
 21
7.235433070866142
 31
0.0
  0
LINE
  5
1DD
330
17
100
AcDbEntity
  8
DIMENSIONS
100
AcDbLine
 10
2.047244094488189
 20
7.196062992125984
 30
0.0
 11
2.1259842519685037
 21
7.274803149606299
 31
0.0
  0
TEXT
  5
1DE
330
17
100
AcDbEntity
  8
TEXT
100
AcDbText
 10
2.0551181102362204
 20
8.598031496062992
 30
0.0
 40
0.03968503937007874
  1
9'-1" CEILING
 50
90.0
 72
1
 11
2.0551181102362204
 21
8.598031496062992
 31
0.0
100
AcDbText
  0
TEXT
  5
1DF
330
17
100
AcDbEntity
  8
TEXT
100
AcDbText
 10
4.448425196850393
 20
10.275590551181102
 30
0.0
 40
0.06519685039370078
  1
LEFT WALL
 72
1
 11
4.448425196850393
 21
10.275590551181102
 31
0.0
100
AcDbText
  0
TEXT
  5
1E0
330
17
100
AcDbEntity
  8
TEXT
100
AcDbText
 10
8.157874015748032
 20
10.275590551181102
 30
0.0
 40
0.06519685039370078
  1
BACK WALL
 72
1
 11
8.157874015748032
 21
10.275590551181102
 31
0.0
100
AcDbText
  0
TEXT
  5
1E1
330
17
100
AcDbEntity
  8
TEXT
100
AcDbText
 10
11.86771653543307
 20
10.275590551181102
 30
0.0
 40
0.06519685039370078
  1
RIGHT WALL
 72
1
 11
11.86771653543307
 21
10.275590551181102
 31
0.0
100
AcDbText
  0
TEXT
  5
1E2
330
17
100
AcDbEntity
  8
TEXT
100
AcDbText
 10
4.448425196850393
 20
10.141732283464568
 30
0.0
 40
0.04251968503937008
  1
BATHROOM DOOR, THEN 3 BAYS
 72
1
 11
4.448425196850393
 21
10.141732283464568
 31
0.0
100
AcDbText
  0
TEXT
  5
1E3
330
17
100
AcDbEntity
  8
TEXT
100
AcDbText
 10
8.157874015748032
 20
10.141732283464568
 30
0.0
 40
0.04251968503937008
  1
THE MIRROR, BACK TO THE WALL
 72
1
 11
8.157874015748032
 21
10.141732283464568
 31
0.0
100
AcDbText
  0
TEXT
  5
1E4
330
17
100
AcDbEntity
  8
TEXT
100
AcDbText
 10
11.86771653543307
 20
10.141732283464568
 30
0.0
 40
0.04251968503937008
  1
4 BAYS — THE FAR ONE IS THE TUNNEL
 72
1
 11
11.86771653543307
 21
10.141732283464568
 31
0.0
100
AcDbText
  0
LWPOLYLINE
  5
1E5
330
17
100
AcDbEntity
  8
GEOMETRY
100
AcDbPolyline
 90
5
 70
0
 10
1.0236220472440944
 20
5.9448818897637805
 10
2.410925196850394
 20
5.9448818897637805
 10
2.410925196850394
 20
4.0949803149606305
 10
1.0236220472440944
 20
4.0949803149606305
 10
1.0236220472440944
 20
5.9448818897637805
  0
TEXT
  5
1E6
330
17
100
AcDbEntity
  8
TEXT
100
AcDbText
 10
1.0236220472440944
 20
6.102362204724409
 30
0.0
 40
0.05385826771653543
  1
KEY PLAN
 11
1.0236220472440944
 21
6.102362204724409
 31
0.0
100
AcDbText
  0
TEXT
  5
1E7
330
17
100
AcDbEntity
  8
TEXT
100
AcDbText
 10
1.7173228346456693
 20
3.937401574803149
 30
0.0
 40
0.038267716535433066
  1
MIRROR AT THE TOP · FREE-STANDING
 72
1
 11
1.7173228346456693
 21
3.937401574803149
 31
0.0
100
AcDbText
  0
LINE
  5
1E8
330
17
100
AcDbEntity
  8
GEOMETRY
100
AcDbLine
 10
3.622047244094488
 20
5.881889763779528
 30
0.0
 11
10.94488188976378
 21
5.881889763779528
 31
0.0
  0
TEXT
  5
1E9
330
17
100
AcDbEntity
  8
TEXT
100
AcDbText
 10
5.433070866141732
 20
5.94488188976378
 30
0.0
 40
0.038267716535433066
  1
BAYS
 11
5.433070866141732
 21
5.94488188976378
 31
0.0
100
AcDbText
  0
TEXT
  5
1EA
330
17
100
AcDbEntity
  8
TEXT
100
AcDbText
 10
6.2204724409448815
 20
5.94488188976378
 30
0.0
 40
0.038267716535433066
  1
DOORS BELOW
 11
6.2204724409448815
 21
5.94488188976378
 31
0.0
100
AcDbText
  0
TEXT
  5
1EB
330
17
100
AcDbEntity
  8
TEXT
100
AcDbText
 10
7.4015748031496065
 20
5.94488188976378
 30
0.0
 40
0.038267716535433066
  1
DOORS ABOVE
 11
7.4015748031496065
 21
5.94488188976378
 31
0.0
100
AcDbText
  0
TEXT
  5
1EC
330
17
100
AcDbEntity
  8
TEXT
100
AcDbText
 10
8.582677165354331
 20
5.94488188976378
 30
0.0
 40
0.038267716535433066
  1
BAY WIDTH
 11
8.582677165354331
 21
5.94488188976378
 31
0.0
100
AcDbText
  0
LINE
  5
1ED
330
17
100
AcDbEntity
  8
GEOMETRY
100
AcDbLine
 10
3.622047244094488
 20
5.6299212598425195
 30
0.0
 11
10.94488188976378
 21
5.6299212598425195
 31
0.0
  0
TEXT
  5
1EE
330
17
100
AcDbEntity
  8
TEXT
100
AcDbText
 10
3.622047244094488
 20
5.692913385826771
 30
0.0
 40
0.048188976377952754
  1
LEFT WALL
 11
3.622047244094488
 21
5.692913385826771
 31
0.0
100
AcDbText
  0
TEXT
  5
1EF
330
17
100
AcDbEntity
  8
TEXT
100
AcDbText
 10
5.433070866141732
 20
5.692913385826771
 30
0.0
 40
0.048188976377952754
  1
3
 11
5.433070866141732
 21
5.692913385826771
 31
0.0
100
AcDbText
  0
TEXT
  5
1F0
330
17
100
AcDbEntity
  8
TEXT
100
AcDbText
 10
6.2204724409448815
 20
5.692913385826771
 30
0.0
 40
0.048188976377952754
  1
6
 11
6.2204724409448815
 21
5.692913385826771
 31
0.0
100
AcDbText
  0
TEXT
  5
1F1
330
17
100
AcDbEntity
  8
TEXT
100
AcDbText
 10
7.4015748031496065
 20
5.692913385826771
 30
0.0
 40
0.048188976377952754
  1
6
 11
7.4015748031496065
 21
5.692913385826771
 31
0.0
100
AcDbText
  0
TEXT
  5
1F2
330
17
100
AcDbEntity
  8
TEXT
100
AcDbText
 10
8.582677165354331
 20
5.692913385826771
 30
0.0
 40
0.048188976377952754
  1
948 · 3 FT 1 IN
 11
8.582677165354331
 21
5.692913385826771
 31
0.0
100
AcDbText
  0
LINE
  5
1F3
330
17
100
AcDbEntity
  8
GEOMETRY
100
AcDbLine
 10
3.622047244094488
 20
5.377952755905511
 30
0.0
 11
10.94488188976378
 21
5.377952755905511
 31
0.0
  0
TEXT
  5
1F4
330
17
100
AcDbEntity
  8
TEXT
100
AcDbText
 10
3.622047244094488
 20
5.440944881889763
 30
0.0
 40
0.048188976377952754
  1
RIGHT WALL
 11
3.622047244094488
 21
5.440944881889763
 31
0.0
100
AcDbText
  0
TEXT
  5
1F5
330
17
100
AcDbEntity
  8
TEXT
100
AcDbText
 10
5.433070866141732
 20
5.440944881889763
 30
0.0
 40
0.048188976377952754
  1
4
 11
5.433070866141732
 21
5.440944881889763
 31
0.0
100
AcDbText
  0
TEXT
  5
1F6
330
17
100
AcDbEntity
  8
TEXT
100
AcDbText
 10
6.2204724409448815
 20
5.440944881889763
 30
0.0
 40
0.048188976377952754
  1
8
 11
6.2204724409448815
 21
5.440944881889763
 31
0.0
100
AcDbText
  0
TEXT
  5
1F7
330
17
100
AcDbEntity
  8
TEXT
100
AcDbText
 10
7.4015748031496065
 20
5.440944881889763
 30
0.0
 40
0.048188976377952754
  1
8
 11
7.4015748031496065
 21
5.440944881889763
 31
0.0
100
AcDbText
  0
TEXT
  5
1F8
330
17
100
AcDbEntity
  8
TEXT
100
AcDbText
 10
8.582677165354331
 20
5.440944881889763
 30
0.0
 40
0.048188976377952754
  1
940 · 3 FT 1 IN
 11
8.582677165354331
 21
5.440944881889763
 31
0.0
100
AcDbText
  0
LINE
  5
1F9
330
17
100
AcDbEntity
  8
GEOMETRY
100
AcDbLine
 10
3.622047244094488
 20
5.125984251968504
 30
0.0
 11
10.94488188976378
 21
5.125984251968504
 31
0.0
  0
TEXT
  5
1FA
330
17
100
AcDbEntity
  8
TEXT
100
AcDbText
 10
3.622047244094488
 20
5.1889763779527565
 30
0.0
 40
0.048188976377952754
  1
— of which tunnel
 11
3.622047244094488
 21
5.1889763779527565
 31
0.0
100
AcDbText
  0
TEXT
  5
1FB
330
17
100
AcDbEntity
  8
TEXT
100
AcDbText
 10
5.433070866141732
 20
5.1889763779527565
 30
0.0
 40
0.048188976377952754
  1
1
 11
5.433070866141732
 21
5.1889763779527565
 31
0.0
100
AcDbText
  0
TEXT
  5
1FC
330
17
100
AcDbEntity
  8
TEXT
100
AcDbText
 10
6.2204724409448815
 20
5.1889763779527565
 30
0.0
 40
0.048188976377952754
  1
2
 11
6.2204724409448815
 21
5.1889763779527565
 31
0.0
100
AcDbText
  0
TEXT
  5
1FD
330
17
100
AcDbEntity
  8
TEXT
100
AcDbText
 10
7.4015748031496065
 20
5.1889763779527565
 30
0.0
 40
0.048188976377952754
  1
—
 11
7.4015748031496065
 21
5.1889763779527565
 31
0.0
100
AcDbText
  0
TEXT
  5
1FE
330
17
100
AcDbEntity
  8
TEXT
100
AcDbText
 10
8.582677165354331
 20
5.1889763779527565
 30
0.0
 40
0.048188976377952754
  1
the far bay, right
 11
8.582677165354331
 21
5.1889763779527565
 31
0.0
100
AcDbText
  0
LINE
  5
1FF
330
17
100
AcDbEntity
  8
GEOMETRY
100
AcDbLine
 10
3.622047244094488
 20
4.874015748031496
 30
0.0
 11
10.94488188976378
 21
4.874015748031496
 31
0.0
  0
TEXT
  5
200
330
17
100
AcDbEntity
  8
TEXT
100
AcDbText
 10
3.622047244094488
 20
4.937007874015748
 30
0.0
 40
0.048188976377952754
  1
TOTAL
 11
3.622047244094488
 21
4.937007874015748
 31
0.0
100
AcDbText
  0
TEXT
  5
201
330
17
100
AcDbEntity
  8
TEXT
100
AcDbText
 10
5.433070866141732
 20
4.937007874015748
 30
0.0
 40
0.048188976377952754
  1
7
 11
5.433070866141732
 21
4.937007874015748
 31
0.0
100
AcDbText
  0
TEXT
  5
202
330
17
100
AcDbEntity
  8
TEXT
100
AcDbText
 10
6.2204724409448815
 20
4.937007874015748
 30
0.0
 40
0.048188976377952754
  1
14
 11
6.2204724409448815
 21
4.937007874015748
 31
0.0
100
AcDbText
  0
TEXT
  5
203
330
17
100
AcDbEntity
  8
TEXT
100
AcDbText
 10
7.4015748031496065
 20
4.937007874015748
 30
0.0
 40
0.048188976377952754
  1
14
 11
7.4015748031496065
 21
4.937007874015748
 31
0.0
100
AcDbText
  0
TEXT
  5
204
330
17
100
AcDbEntity
  8
TEXT
100
AcDbText
 10
8.582677165354331
 20
4.937007874015748
 30
0.0
 40
0.048188976377952754
  1
28 leaves in all
 11
8.582677165354331
 21
4.937007874015748
 31
0.0
100
AcDbText
  0
TEXT
  5
205
330
17
100
AcDbEntity
  8
TEXT
100
AcDbText
 10
3.622047244094488
 20
6.259842519685039
 30
0.0
 40
0.05385826771653543
  1
WHAT THAT COMES TO
 11
3.622047244094488
 21
6.259842519685039
 31
0.0
100
AcDbText
  0
LWPOLYLINE
  5
206
330
17
100
AcDbEntity
  8
GEOMETRY
100
AcDbPolyline
 90
3
 70
0
 10
3.793307086614173
 20
9.659448818897639
 10
2.047244094488189
 20
9.690944881889765
 10
1.811023622047244
 20
9.690944881889765
  0
TEXT
  5
207
330
17
100
AcDbEntity
  8
TEXT
100
AcDbText
 10
1.7480314960629921
 20
9.66732283464567
 30
0.0
 40
0.051023622047244095
  1
TRANSOM BAND
 72
2
 11
1.7480314960629921
 21
9.66732283464567
 31
0.0
100
AcDbText
  0
TEXT
  5
208
330
17
100
AcDbEntity
  8
TEXT
100
AcDbText
 10
1.7480314960629921
 20
9.557086614173228
 30
0.0
 40
0.04110236220472441
  1
OPENS — SO IT STORES
 72
2
 11
1.7480314960629921
 21
9.557086614173228
 31
0.0
100
AcDbText
  0
LWPOLYLINE
  5
209
330
17
100
AcDbEntity
  8
GEOMETRY
100
AcDbPolyline
 90
3
 70
0
 10
3.048031496062992
 20
9.105511811023623
 10
2.047244094488189
 20
9.13700787401575
 10
1.811023622047244
 20
9.13700787401575
  0
TEXT
  5
20A
330
17
100
AcDbEntity
  8
TEXT
100
AcDbText
 10
1.7480314960629921
 20
9.113385826771655
 30
0.0
 40
0.051023622047244095
  1
D3 · BATHROOM DOOR
 72
2
 11
1.7480314960629921
 21
9.113385826771655
 31
0.0
100
AcDbText
  0
TEXT
  5
20B
330
17
100
AcDbEntity
  8
TEXT
100
AcDbText
 10
1.7480314960629921
 20
9.003149606299212
 30
0.0
 40
0.04110236220472441
  1
3 FT ZONE · LEAF NOT YET FIXED
 72
2
 11
1.7480314960629921
 21
9.003149606299212
 31
0.0
100
AcDbText
  0
LWPOLYLINE
  5
20C
330
17
100
AcDbEntity
  8
GEOMETRY
100
AcDbPolyline
 90
3
 70
0
 10
8.157874015748032
 20
9.59724409448819
 10
13.779527559055119
 20
9.628740157480316
 10
14.015748031496063
 20
9.628740157480316
  0
TEXT
  5
20D
330
17
100
AcDbEntity
  8
TEXT
100
AcDbText
 10
14.078740157480315
 20
9.605118110236221
 30
0.0
 40
0.051023622047244095
  1
THE MIRROR
 11
14.078740157480315
 21
9.605118110236221
 31
0.0
100
AcDbText
  0
TEXT
  5
20E
330
17
100
AcDbEntity
  8
TEXT
100
AcDbText
 10
14.078740157480315
 20
9.49488188976378
 30
0.0
 40
0.04110236220472441
  1
9 FT TALL · FREE-STANDING · NOT FIXED EITHER SIDE
 11
14.078740157480315
 21
9.49488188976378
 31
0.0
100
AcDbText
  0
LWPOLYLINE
  5
20F
330
17
100
AcDbEntity
  8
GEOMETRY
100
AcDbPolyline
 90
3
 70
0
 10
10.48031496062992
 20
8.810236220472442
 10
13.779527559055119
 20
8.841732283464568
 10
14.015748031496063
 20
8.841732283464568
  0
TEXT
  5
210
330
17
100
AcDbEntity
  8
TEXT
100
AcDbText
 10
14.078740157480315
 20
8.818110236220473
 30
0.0
 40
0.051023622047244095
  1
THE HIDDEN DOOR
 11
14.078740157480315
 21
8.818110236220473
 31
0.0
100
AcDbText
  0
TEXT
  5
211
330
17
100
AcDbEntity
  8
TEXT
100
AcDbText
 10
14.078740157480315
 20
8.70787401574803
 30
0.0
 40
0.04110236220472441
  1
BAY T · SAME DOORS · SHELVED BEHIND
 11
14.078740157480315
 21
8.70787401574803
 31
0.0
100
AcDbText
  0
LWPOLYLINE
  5
212
330
17
100
AcDbEntity
  8
GEOMETRY
100
AcDbPolyline
 90
3
 70
0
 10
13.520472440944882
 20
8.268897637795277
 10
13.779527559055119
 20
8.300393700787403
 10
14.015748031496063
 20
8.300393700787403
  0
TEXT
  5
213
330
17
100
AcDbEntity
  8
TEXT
100
AcDbText
 10
14.078740157480315
 20
8.276771653543308
 30
0.0
 40
0.051023622047244095
  1
BRASS BAR PULL
 11
14.078740157480315
 21
8.276771653543308
 31
0.0
100
AcDbText
  0
TEXT
  5
214
330
17
100
AcDbEntity
  8
TEXT
100
AcDbText
 10
14.078740157480315
 20
8.166535433070866
 30
0.0
 40
0.04110236220472441
  1
ON EVERY LEAF
 11
14.078740157480315
 21
8.166535433070866
 31
0.0
100
AcDbText
  0
TEXT
  5
215
330
17
100
AcDbEntity
  8
TEXT
100
AcDbText
 10
0.7086614173228346
 20
2.795275590551181
 30
0.0
 40
0.09070866141732283
  1
NOTES
 11
0.7086614173228346
 21
2.795275590551181
 31
0.0
100
AcDbText
  0
LINE
  5
216
330
17
100
AcDbEntity
  8
GEOMETRY
100
AcDbLine
 10
0.7086614173228346
 20
2.736220472440945
 30
0.0
 11
8.976377952755906
 21
2.736220472440945
 31
0.0
  0
TEXT
  5
217
330
17
100
AcDbEntity
  8
TEXT
100
AcDbText
 10
0.7086614173228346
 20
2.6062992125984246
 30
0.0
 40
0.048188976377952754
  1
REVISION 1
 11
0.7086614173228346
 21
2.6062992125984246
 31
0.0
100
AcDbText
  0
TEXT
  5
218
330
17
100
AcDbEntity
  8
TEXT
100
AcDbText
 10
0.7086614173228346
 20
2.322834645669291
 30
0.0
 40
0.04535433070866141
  1
Depth 2 ft 3 in, as instructed. On the right that is what lets the run reach the bedroom wall: the
 11
0.7086614173228346
 21
2.322834645669291
 31
0.0
100
AcDbText
  0
TEXT
  5
219
330
17
100
AcDbEntity
  8
TEXT
100
AcDbText
 10
0.7086614173228346
 20
2.141732283464567
 30
0.0
 40
0.04535433070866141
  1
door frame stands 2 ft 4 in off that corner, so the end of the run clears it by 1 in.
 11
0.7086614173228346
 21
2.141732283464567
 31
0.0
100
AcDbText
  0
TEXT
  5
21A
330
17
100
AcDbEntity
  8
TEXT
100
AcDbText
 10
0.7086614173228346
 20
1.960629921259843
 30
0.0
 40
0.04535433070866141
  1
Bays are the wall divided equally, so nothing is left over and there are no filler strips: the right
 11
0.7086614173228346
 21
1.960629921259843
 31
0.0
100
AcDbText
  0
TEXT
  5
21B
330
17
100
AcDbEntity
  8
TEXT
100
AcDbText
 10
0.7086614173228346
 20
1.7795275590551176
 30
0.0
 40
0.04535433070866141
  1
wall is 12 ft 4 in over 4 bays, the left is 9 ft 4 in over 3. Both come out at about 3 ft 1 in —
 11
0.7086614173228346
 21
1.7795275590551176
 31
0.0
100
AcDbText
  0
TEXT
  5
21C
330
17
100
AcDbEntity
  8
TEXT
100
AcDbText
 10
0.7086614173228346
 20
1.5984251968503946
 30
0.0
 40
0.04535433070866141
  1
an inch over the 3 ft you asked for, which is what makes them land exactly.
 11
0.7086614173228346
 21
1.5984251968503946
 31
0.0
100
AcDbText
  0
TEXT
  5
21D
330
17
100
AcDbEntity
  8
TEXT
100
AcDbText
 10
0.7086614173228346
 20
1.4173228346456692
 30
0.0
 40
0.04535433070866141
  1
Each bay is a pair of doors with a pair of transom lights over, all glazed and all opening — so the
 11
0.7086614173228346
 21
1.4173228346456692
 31
0.0
100
AcDbText
  0
TEXT
  5
21E
330
17
100
AcDbEntity
  8
TEXT
100
AcDbText
 10
0.7086614173228346
 20
1.236220472440944
 30
0.0
 40
0.04535433070866141
  1
transom is storage, not just a band of glass. 7 bays, 14 cupboards, 28 leaves.
 11
0.7086614173228346
 21
1.236220472440944
 31
0.0
100
AcDbText
  0
TEXT
  5
21F
330
17
100
AcDbEntity
  8
TEXT
100
AcDbText
 10
0.7086614173228346
 20
1.0551181102362208
 30
0.0
 40
0.04535433070866141
  1
Doors as the Wardrobes brief: blackened steel T-section, 38 face, white textured glass in linear
 11
0.7086614173228346
 21
1.0551181102362208
 31
0.0
100
AcDbText
  0
TEXT
  5
220
330
17
100
AcDbEntity
  8
TEXT
100
AcDbText
 10
0.7086614173228346
 20
0.8740157480314956
 30
0.0
 40
0.04535433070866141
  1
lead came, lit from inside, brass bar pulls, transom bar 560 down from the top.
 11
0.7086614173228346
 21
0.8740157480314956
 31
0.0
100
AcDbText
  0
TEXT
  5
221
330
17
100
AcDbEntity
  8
TEXT
100
AcDbText
 10
7.480314960629921
 20
2.322834645669291
 30
0.0
 40
0.04535433070866141
  1
SETTLED — the mirror is a trifold, 3 ft 6 in across with its wings at 45°, free-standing and fixed
 11
7.480314960629921
 21
2.322834645669291
 31
0.0
100
AcDbText
  0
TEXT
  5
222
330
17
100
AcDbEntity
  8
TEXT
100
AcDbText
 10
7.480314960629921
 20
2.141732283464567
 30
0.0
 40
0.04535433070866141
  1
to neither run. Centred in the 4 ft 9 in gap it leaves 7½ in of floor either side, and it is 9 ft tall —
 11
7.480314960629921
 21
2.141732283464567
 31
0.0
100
AcDbText
  0
TEXT
  5
223
330
17
100
AcDbEntity
  8
TEXT
100
AcDbText
 10
7.480314960629921
 20
1.960629921259843
 30
0.0
 40
0.04535433070866141
  1
level with the top of the wardrobes. That narrow gap is why the two end bays cannot hinge open
 11
7.480314960629921
 21
1.960629921259843
 31
0.0
100
AcDbText
  0
TEXT
  5
224
330
17
100
AcDbEntity
  8
TEXT
100
AcDbText
 10
7.480314960629921
 20
1.7795275590551176
 30
0.0
 40
0.04535433070866141
  1
in the ordinary way — see AST-DR-026 for the fold-slide doors that solve it.
 11
7.480314960629921
 21
1.7795275590551176
 31
0.0
100
AcDbText
  0
TEXT
  5
225
330
17
100
AcDbEntity
  8
TEXT
100
AcDbText
 10
7.480314960629921
 20
1.5984251968503946
 30
0.0
 40
0.04535433070866141
  1
OPEN — D3, the bathroom door. 3 ft of wall is left for it, but the leaf is still not fixed. It is
 11
7.480314960629921
 21
1.5984251968503946
 31
0.0
100
AcDbText
  0
TEXT
  5
226
330
17
100
AcDbEntity
  8
TEXT
100
AcDbText
 10
7.480314960629921
 20
1.4173228346456692
 30
0.0
 40
0.04535433070866141
  1
drawn as an opening only.
 11
7.480314960629921
 21
1.4173228346456692
 31
0.0
100
AcDbText
  0
TEXT
  5
227
330
17
100
AcDbEntity
  8
TEXT
100
AcDbText
 10
7.480314960629921
 20
1.236220472440944
 30
0.0
 40
0.04535433070866141
  1
OPEN — the tunnel bay reads as one more cupboard, but it is a door onto a passage, so the
 11
7.480314960629921
 21
1.236220472440944
 31
0.0
100
AcDbText
  0
TEXT
  5
228
330
17
100
AcDbEntity
  8
TEXT
100
AcDbText
 10
7.480314960629921
 20
1.0551181102362208
 30
0.0
 40
0.04535433070866141
  1
transom over it cannot be storage in the ordinary way. Decide whether it is a dummy.
 11
7.480314960629921
 21
1.0551181102362208
 31
0.0
100
AcDbText
  0
TEXT
  5
229
330
17
100
AcDbEntity
  8
TEXT
100
AcDbText
 10
7.480314960629921
 20
0.8740157480314956
 30
0.0
 40
0.04535433070866141
  1
OPEN — 4 ft 9 in is what you are left standing in once both runs are built. Open one 1 ft 6 in
 11
7.480314960629921
 21
0.8740157480314956
 31
0.0
100
AcDbText
  0
TEXT
  5
22A
330
17
100
AcDbEntity
  8
TEXT
100
AcDbText
 10
7.480314960629921
 20
0.6929133858267725
 30
0.0
 40
0.04535433070866141
  1
leaf and there is still 3 ft 3 in. Workable, not generous — worth feeling on site first.
 11
7.480314960629921
 21
0.6929133858267725
 31
0.0
100
AcDbText
  0
LWPOLYLINE
  5
22B
330
17
100
AcDbEntity
  8
GEOMETRY
100
AcDbPolyline
 90
5
 70
0
 10
11.811023622047244
 20
2.283464566929135
 10
16.22047244094488
 20
2.283464566929135
 10
16.22047244094488
 20
0.31496062992126106
 10
11.811023622047244
 20
0.31496062992126106
 10
11.811023622047244
 20
2.283464566929135
  0
LINE
  5
22C
330
17
100
AcDbEntity
  8
GEOMETRY
100
AcDbLine
 10
11.811023622047244
 20
1.7322834645669292
 30
0.0
 11
16.22047244094488
 21
1.7322834645669292
 31
0.0
  0
LINE
  5
22D
330
17
100
AcDbEntity
  8
GEOMETRY
100
AcDbLine
 10
11.811023622047244
 20
1.1023622047244095
 30
0.0
 11
16.22047244094488
 21
1.1023622047244095
 31
0.0
  0
LINE
  5
22E
330
17
100
AcDbEntity
  8
GEOMETRY
100
AcDbLine
 10
11.811023622047244
 20
0.7086614173228346
 30
0.0
 11
16.22047244094488
 21
0.7086614173228346
 31
0.0
  0
LINE
  5
22F
330
17
100
AcDbEntity
  8
GEOMETRY
100
AcDbLine
 10
14.015748031496063
 20
1.1023622047244095
 30
0.0
 11
14.015748031496063
 21
0.31496062992125984
 31
0.0
  0
TEXT
  5
230
330
17
100
AcDbEntity
  8
TEXT
100
AcDbText
 10
11.929133858267717
 20
2.02755905511811
 30
0.0
 40
0.09637795275590551
  1
A STUDY IN TEAK
 11
11.929133858267717
 21
2.02755905511811
 31
0.0
100
AcDbText
  0
TEXT
  5
231
330
17
100
AcDbEntity
  8
TEXT
100
AcDbText
 10
11.929133858267717
 20
1.8503937007874016
 30
0.0
 40
0.05385826771653543
  1
Particulars of the room
 11
11.929133858267717
 21
1.8503937007874016
 31
0.0
100
AcDbText
  0
TEXT
  5
232
330
17
100
AcDbEntity
  8
TEXT
100
AcDbText
 10
11.929133858267717
 20
1.4763779527559056
 30
0.0
 40
0.09637795275590551
  1
THE WARDROBES
 11
11.929133858267717
 21
1.4763779527559056
 31
0.0
100
AcDbText
  0
TEXT
  5
233
330
17
100
AcDbEntity
  8
TEXT
100
AcDbText
 10
11.929133858267717
 20
1.2598425196850394
 30
0.0
 40
0.05669291338582677
  1
Dressing room · developed elevation
 11
11.929133858267717
 21
1.2598425196850394
 31
0.0
100
AcDbText
  0
TEXT
  5
234
330
17
100
AcDbEntity
  8
TEXT
100
AcDbText
 10
11.929133858267717
 20
0.9448818897637795
 30
0.0
 40
0.04251968503937008
  1
SCALE
 11
11.929133858267717
 21
0.9448818897637795
 31
0.0
100
AcDbText
  0
TEXT
  5
235
330
17
100
AcDbEntity
  8
TEXT
100
AcDbText
 10
11.929133858267717
 20
0.7874015748031495
 30
0.0
 40
0.05952755905511811
  1
1:40 @ A3
 11
11.929133858267717
 21
0.7874015748031495
 31
0.0
100
AcDbText
  0
TEXT
  5
236
330
17
100
AcDbEntity
  8
TEXT
100
AcDbText
 10
14.133858267716535
 20
0.9448818897637795
 30
0.0
 40
0.04251968503937008
  1
DATE
 11
14.133858267716535
 21
0.9448818897637795
 31
0.0
100
AcDbText
  0
TEXT
  5
237
330
17
100
AcDbEntity
  8
TEXT
100
AcDbText
 10
14.133858267716535
 20
0.7874015748031495
 30
0.0
 40
0.05952755905511811
  1
25.09.2026
 11
14.133858267716535
 21
0.7874015748031495
 31
0.0
100
AcDbText
  0
TEXT
  5
238
330
17
100
AcDbEntity
  8
TEXT
100
AcDbText
 10
11.929133858267717
 20
0.5511811023622047
 30
0.0
 40
0.04251968503937008
  1
REV
 11
11.929133858267717
 21
0.5511811023622047
 31
0.0
100
AcDbText
  0
TEXT
  5
239
330
17
100
AcDbEntity
  8
TEXT
100
AcDbText
 10
11.929133858267717
 20
0.39370078740157477
 30
0.0
 40
0.03616864347652746
  1
1 — first setting out of the bays, off the owner's 2 ft 3 in depth and 3 ft bay
 11
11.929133858267717
 21
0.39370078740157477
 31
0.0
100
AcDbText
  0
TEXT
  5
23A
330
17
100
AcDbEntity
  8
TEXT
100
AcDbText
 10
14.133858267716535
 20
0.5511811023622047
 30
0.0
 40
0.04251968503937008
  1
DWG
 11
14.133858267716535
 21
0.5511811023622047
 31
0.0
100
AcDbText
  0
TEXT
  5
23B
330
17
100
AcDbEntity
  8
TEXT
100
AcDbText
 10
14.133858267716535
 20
0.39370078740157477
 30
0.0
 40
0.05952755905511811
  1
AST-DR-025
 11
14.133858267716535
 21
0.39370078740157477
 31
0.0
100
AcDbText
  0
ENDSEC
  0
SECTION
  2
OBJECTS
  0
DICTIONARY
  5
A
330
0
100
AcDbDictionary
281
1
  3
ACAD_COLOR
350
B
  3
ACAD_GROUP
350
C
  3
ACAD_LAYOUT
350
D
  3
ACAD_MATERIAL
350
E
  3
ACAD_MLEADERSTYLE
350
F
  3
ACAD_MLINESTYLE
350
10
  3
ACAD_PLOTSETTINGS
350
11
  3
ACAD_PLOTSTYLENAME
350
12
  3
ACAD_SCALELIST
350
14
  3
ACAD_TABLESTYLE
350
15
  3
ACAD_VISUALSTYLE
350
16
  3
EZDXF_META
350
2D
  0
DICTIONARY
  5
B
330
A
100
AcDbDictionary
281
1
  0
DICTIONARY
  5
C
330
A
100
AcDbDictionary
281
1
  0
DICTIONARY
  5
D
330
A
100
AcDbDictionary
281
1
  3
Model
350
1A
  3
Layout1
350
1E
  0
DICTIONARY
  5
E
330
A
100
AcDbDictionary
281
1
  3
ByBlock
350
1F
  3
ByLayer
350
20
  3
Global
350
21
  0
DICTIONARY
  5
F
330
A
100
AcDbDictionary
281
1
  3
Standard
350
2C
  0
DICTIONARY
  5
10
330
A
100
AcDbDictionary
281
1
  3
Standard
350
22
  0
DICTIONARY
  5
11
330
A
100
AcDbDictionary
281
1
  0
ACDBDICTIONARYWDFLT
  5
12
330
A
100
AcDbDictionary
281
1
  3
Normal
350
13
100
AcDbDictionaryWithDefault
340
13
  0
ACDBPLACEHOLDER
  5
13
330
12
  0
DICTIONARY
  5
14
330
A
100
AcDbDictionary
281
1
  0
DICTIONARY
  5
15
330
A
100
AcDbDictionary
281
1
  0
DICTIONARY
  5
16
330
A
100
AcDbDictionary
281
1
  3
2dWireframe
350
5A
  3
Basic
350
5B
  3
Brighten
350
5C
  3
ColorChange
350
5D
  3
Conceptual
350
5E
  3
Dim
350
5F
  3
EdgeColorOff
350
60
  3
Facepattern
350
61
  3
Flat
350
62
  3
FlatWithEdges
350
63
  3
Gouraud
350
64
  3
GouraudWithEdges
350
65
  3
Hidden
350
66
  3
JitterOff
350
67
  3
Linepattern
350
68
  3
Modeling
350
69
  3
OverhangOff
350
6A
  3
Realistic
350
6B
  3
Shaded
350
6C
  3
Shaded with edges
350
6D
  3
Shades of Gray
350
6E
  3
Sketchy
350
6F
  3
Thicken
350
70
  3
Wireframe
350
71
  3
X-Ray
350
72
  0
LAYOUT
  5
1A
330
D
100
AcDbPlotSettings
  1

  4
A3
  6

 40
7.5
 41
20.0
 42
7.5
 43
20.0
 44
420.0
 45
297.0
 46
0.0
 47
0.0
 48
0.0
 49
0.0
140
0.0
141
0.0
142
1.0
143
1.0
 70
1024
 72
1
 73
0
 74
5
  7

 75
16
 76
0
 77
2
 78
300
147
1.0
148
0.0
149
0.0
100
AcDbLayout
  1
Model
 70
1
 71
0
 10
0.0
 20
0.0
 11
420.0
 21
297.0
 12
0.0
 22
0.0
 32
0.0
 14
1e+20
 24
1e+20
 34
1e+20
 15
-1e+20
 25
-1e+20
 35
-1e+20
146
0.0
 13
0.0
 23
0.0
 33
0.0
 16
1.0
 26
0.0
 36
0.0
 17
0.0
 27
1.0
 37
0.0
 76
1
330
17
  0
LAYOUT
  5
1E
330
D
100
AcDbPlotSettings
  1

  4
A3
  6

 40
7.5
 41
20.0
 42
7.5
 43
20.0
 44
420.0
 45
297.0
 46
0.0
 47
0.0
 48
0.0
 49
0.0
140
0.0
141
0.0
142
1.0
143
1.0
 70
0
 72
1
 73
0
 74
5
  7

 75
16
 76
0
 77
2
 78
300
147
1.0
148
0.0
149
0.0
100
AcDbLayout
  1
Layout1
 70
1
 71
1
 10
0.0
 20
0.0
 11
420.0
 21
297.0
 12
0.0
 22
0.0
 32
0.0
 14
1e+20
 24
1e+20
 34
1e+20
 15
-1e+20
 25
-1e+20
 35
-1e+20
146
0.0
 13
0.0
 23
0.0
 33
0.0
 16
1.0
 26
0.0
 36
0.0
 17
0.0
 27
1.0
 37
0.0
 76
1
330
1B
  0
MATERIAL
  5
1F
102
{ACAD_REACTORS
330
E
102
}
330
E
100
AcDbMaterial
  1
ByBlock
  2

 70
0
 40
1.0
 71
1
 41
1.0
 91
-1023410177
 42
1.0
 72
1
  3

 73
1
 74
1
 75
1
 44
0.5
 73
0
 45
1.0
 46
1.0
 77
1
  4

 78
1
 79
1
170
1
 48
1.0
171
1
  6

172
1
173
1
174
1
140
1.0
141
1.0
175
1
  7

176
1
177
1
178
1
143
1.0
179
1
  8

270
1
271
1
272
1
145
1.0
146
1.0
273
1
  9

274
1
275
1
276
1
 42
1.0
 72
1
  3

 73
1
 74
1
 75
1
 94
63
  0
MATERIAL
  5
20
102
{ACAD_REACTORS
330
E
102
}
330
E
100
AcDbMaterial
  1
ByLayer
  2

 70
0
 40
1.0
 71
1
 41
1.0
 91
-1023410177
 42
1.0
 72
1
  3

 73
1
 74
1
 75
1
 44
0.5
 73
0
 45
1.0
 46
1.0
 77
1
  4

 78
1
 79
1
170
1
 48
1.0
171
1
  6

172
1
173
1
174
1
140
1.0
141
1.0
175
1
  7

176
1
177
1
178
1
143
1.0
179
1
  8

270
1
271
1
272
1
145
1.0
146
1.0
273
1
  9

274
1
275
1
276
1
 42
1.0
 72
1
  3

 73
1
 74
1
 75
1
 94
63
  0
MATERIAL
  5
21
102
{ACAD_REACTORS
330
E
102
}
330
E
100
AcDbMaterial
  1
Global
  2

 70
0
 40
1.0
 71
1
 41
1.0
 91
-1023410177
 42
1.0
 72
1
  3

 73
1
 74
1
 75
1
 44
0.5
 73
0
 45
1.0
 46
1.0
 77
1
  4

 78
1
 79
1
170
1
 48
1.0
171
1
  6

172
1
173
1
174
1
140
1.0
141
1.0
175
1
  7

176
1
177
1
178
1
143
1.0
179
1
  8

270
1
271
1
272
1
145
1.0
146
1.0
273
1
  9

274
1
275
1
276
1
 42
1.0
 72
1
  3

 73
1
 74
1
 75
1
 94
63
  0
MLINESTYLE
  5
22
102
{ACAD_REACTORS
330
10
102
}
330
10
100
AcDbMlineStyle
  2
Standard
 70
0
  3

 62
256
 51
90.0
 52
90.0
 71
2
 49
0.5
 62
256
  6
BYLAYER
 49
-0.5
 62
256
  6
BYLAYER
  0
MLEADERSTYLE
  5
2C
102
{ACAD_REACTORS
330
F
102
}
330
F
100
AcDbMLeaderStyle
179
2
170
2
171
1
172
0
 90
2
 40
0.0
 41
0.0
173
1
 91
-1056964608
 92
-2
290
1
 42
2.0
291
1
 43
8.0
  3
Standard
 44
4.0
300

342
29
174
1
175
1
176
0
178
1
 93
-1056964608
 45
4.0
292
0
297
0
 46
4.0
 94
-1056964608
 47
1.0
 49
1.0
140
1.0
294
1
141
0.0
177
0
142
1.0
295
0
296
0
143
3.75
271
0
272
9
273
9
  0
DICTIONARY
  5
2D
330
A
100
AcDbDictionary
280
1
281
1
  3
CREATED_BY_EZDXF
350
2E
  3
WRITTEN_BY_EZDXF
350
23E
  0
DICTIONARYVAR
  5
2E
330
2D
100
DictionaryVariables
280
0
  1
1.4.2 @ 2026-10-08T14:55:11.268261+00:00
  0
VISUALSTYLE
  5
5A
102
{ACAD_REACTORS
330
16
102
}
330
16
100
AcDbVisualStyle
  2
2dWireframe
 70
4
 90
0
 40
0.6
 62
7
290
0
291
0
  0
VISUALSTYLE
  5
5B
102
{ACAD_REACTORS
330
16
102
}
330
16
100
AcDbVisualStyle
  2
Basic
 70
7
 90
1
 40
0.6
 62
7
290
0
291
1
  0
VISUALSTYLE
  5
5C
102
{ACAD_REACTORS
330
16
102
}
330
16
100
AcDbVisualStyle
  2
Brighten
 70
12
 90
2
 40
0.6
 62
7
290
0
291
1
  0
VISUALSTYLE
  5
5D
102
{ACAD_REACTORS
330
16
102
}
330
16
100
AcDbVisualStyle
  2
ColorChange
 70
16
 90
2
 40
0.6
 62
8
290
0
291
1
  0
VISUALSTYLE
  5
5E
102
{ACAD_REACTORS
330
16
102
}
330
16
100
AcDbVisualStyle
  2
Conceptual
 70
9
 90
3
 40
0.6
 62
7
290
0
291
0
  0
VISUALSTYLE
  5
5F
102
{ACAD_REACTORS
330
16
102
}
330
16
100
AcDbVisualStyle
  2
Dim
 70
11
 90
2
 40
0.6
 62
7
290
0
291
1
  0
VISUALSTYLE
  5
60
102
{ACAD_REACTORS
330
16
102
}
330
16
100
AcDbVisualStyle
  2
EdgeColorOff
 70
22
 90
2
 40
0.6
 62
7
290
0
291
1
  0
VISUALSTYLE
  5
61
102
{ACAD_REACTORS
330
16
102
}
330
16
100
AcDbVisualStyle
  2
Facepattern
 70
15
 90
2
 40
0.6
 62
7
290
0
291
1
  0
VISUALSTYLE
  5
62
102
{ACAD_REACTORS
330
16
102
}
330
16
100
AcDbVisualStyle
  2
Flat
 70
0
 90
2
 40
0.6
 62
7
290
0
291
1
  0
VISUALSTYLE
  5
63
102
{ACAD_REACTORS
330
16
102
}
330
16
100
AcDbVisualStyle
  2
FlatWithEdges
 70
1
 90
2
 40
0.6
 62
7
290
0
291
1
  0
VISUALSTYLE
  5
64
102
{ACAD_REACTORS
330
16
102
}
330
16
100
AcDbVisualStyle
  2
Gouraud
 70
2
 90
2
 40
0.6
 62
7
290
0
291
1
  0
VISUALSTYLE
  5
65
102
{ACAD_REACTORS
330
16
102
}
330
16
100
AcDbVisualStyle
  2
GouraudWithEdges
 70
3
 90
2
 40
0.6
 62
7
290
0
291
1
  0
VISUALSTYLE
  5
66
102
{ACAD_REACTORS
330
16
102
}
330
16
100
AcDbVisualStyle
  2
Hidden
 70
6
 90
1
 40
0.6
 62
7
290
0
291
0
  0
VISUALSTYLE
  5
67
102
{ACAD_REACTORS
330
16
102
}
330
16
100
AcDbVisualStyle
  2
JitterOff
 70
20
 90
2
 40
0.6
 62
7
290
0
291
1
  0
VISUALSTYLE
  5
68
102
{ACAD_REACTORS
330
16
102
}
330
16
100
AcDbVisualStyle
  2
Linepattern
 70
14
 90
2
 40
0.6
 62
7
290
0
291
1
  0
VISUALSTYLE
  5
69
102
{ACAD_REACTORS
330
16
102
}
330
16
100
AcDbVisualStyle
  2
Modeling
 70
10
 90
2
 40
0.6
 62
7
290
0
291
0
  0
VISUALSTYLE
  5
6A
102
{ACAD_REACTORS
330
16
102
}
330
16
100
AcDbVisualStyle
  2
OverhangOff
 70
21
 90
2
 40
0.6
 62
7
290
0
291
1
  0
VISUALSTYLE
  5
6B
102
{ACAD_REACTORS
330
16
102
}
330
16
100
AcDbVisualStyle
  2
Realistic
 70
8
 90
2
 40
0.6
 62
7
290
0
291
0
  0
VISUALSTYLE
  5
6C
102
{ACAD_REACTORS
330
16
102
}
330
16
100
AcDbVisualStyle
  2
Shaded
 70
27
 90
2
 40
0.6
 62
7
290
0
291
0
  0
VISUALSTYLE
  5
6D
102
{ACAD_REACTORS
330
16
102
}
330
16
100
AcDbVisualStyle
  2
Shaded with edges
 70
26
 90
2
 40
0.6
 62
7
290
0
291
0
  0
VISUALSTYLE
  5
6E
102
{ACAD_REACTORS
330
16
102
}
330
16
100
AcDbVisualStyle
  2
Shades of Gray
 70
23
 90
2
 40
0.6
 62
7
290
0
291
0
  0
VISUALSTYLE
  5
6F
102
{ACAD_REACTORS
330
16
102
}
330
16
100
AcDbVisualStyle
  2
Sketchy
 70
24
 90
1
 40
0.6
 62
7
290
0
291
0
  0
VISUALSTYLE
  5
70
102
{ACAD_REACTORS
330
16
102
}
330
16
100
AcDbVisualStyle
  2
Thicken
 70
13
 90
2
 40
0.6
 62
7
290
0
291
1
  0
VISUALSTYLE
  5
71
102
{ACAD_REACTORS
330
16
102
}
330
16
100
AcDbVisualStyle
  2
Wireframe
 70
5
 90
0
 40
0.6
 62
7
290
0
291
0
  0
VISUALSTYLE
  5
72
102
{ACAD_REACTORS
330
16
102
}
330
16
100
AcDbVisualStyle
  2
X-Ray
 70
25
 90
2
 40
0.5
 62
7
290
0
291
0
  0
DICTIONARYVAR
  5
23E
330
2D
100
DictionaryVariables
280
0
  1
1.4.2 @ 2026-10-08T14:55:11.305110+00:00
  0
ENDSEC
  0
EOF
