  0
SECTION
  2
HEADER
  9
$ACADVER
  1
AC1024
  9
$ACADMAINTVER
 70
6
  9
$DWGCODEPAGE
  3
ANSI_1252
  9
$LASTSAVEDBY
  1
ezdxf
  9
$INSBASE
 10
0.0
 20
0.0
 30
0.0
  9
$EXTMIN
 10
1e+20
 20
1e+20
 30
1e+20
  9
$EXTMAX
 10
-1e+20
 20
-1e+20
 30
-1e+20
  9
$LIMMIN
 10
0.0
 20
0.0
  9
$LIMMAX
 10
420.0
 20
297.0
  9
$ORTHOMODE
 70
0
  9
$REGENMODE
 70
1
  9
$FILLMODE
 70
1
  9
$QTEXTMODE
 70
0
  9
$MIRRTEXT
 70
1
  9
$LTSCALE
 40
1.0
  9
$ATTMODE
 70
1
  9
$TEXTSIZE
 40
2.5
  9
$TRACEWID
 40
1.0
  9
$TEXTSTYLE
  7
OpenSans
  9
$CLAYER
  8
0
  9
$CELTYPE
  6
ByLayer
  9
$CECOLOR
 62
256
  9
$CELTSCALE
 40
1.0
  9
$DISPSILH
 70
0
  9
$DIMSCALE
 40
1.0
  9
$DIMASZ
 40
0.175
  9
$DIMEXO
 40
0.125
  9
$DIMDLI
 40
3.75
  9
$DIMRND
 40
0.0
  9
$DIMDLE
 40
0.0
  9
$DIMEXE
 40
0.375
  9
$DIMTP
 40
0.0
  9
$DIMTM
 40
0.0
  9
$DIMTXT
 40
0.25
  9
$DIMCEN
 40
2.5
  9
$DIMTSZ
 40
0.0
  9
$DIMTOL
 70
0
  9
$DIMLIM
 70
0
  9
$DIMTIH
 70
0
  9
$DIMTOH
 70
0
  9
$DIMSE1
 70
0
  9
$DIMSE2
 70
0
  9
$DIMTAD
 70
1
  9
$DIMZIN
 70
12
  9
$DIMBLK
  1
ARCHTICK
  9
$DIMASO
 70
1
  9
$DIMSHO
 70
1
  9
$DIMPOST
  1

  9
$DIMAPOST
  1

  9
$DIMALT
 70
0
  9
$DIMALTD
 70
3
  9
$DIMALTF
 40
0.03937007874
  9
$DIMLFAC
 40
100.0
  9
$DIMTOFL
 70
1
  9
$DIMTVP
 40
0.0
  9
$DIMTIX
 70
0
  9
$DIMSOXD
 70
0
  9
$DIMSAH
 70
0
  9
$DIMBLK1
  1

  9
$DIMBLK2
  1

  9
$DIMSTYLE
  2
EZDXF
  9
$DIMCLRD
 70
0
  9
$DIMCLRE
 70
0
  9
$DIMCLRT
 70
0
  9
$DIMTFAC
 40
0.5
  9
$DIMGAP
 40
0.1
  9
$DIMJUST
 70
0
  9
$DIMSD1
 70
0
  9
$DIMSD2
 70
0
  9
$DIMTOLJ
 70
0
  9
$DIMTZIN
 70
8
  9
$DIMALTZ
 70
0
  9
$DIMALTTZ
 70
0
  9
$DIMUPT
 70
1
  9
$DIMDEC
 70
2
  9
$DIMTDEC
 70
2
  9
$DIMALTU
 70
2
  9
$DIMALTTD
 70
3
  9
$DIMTXSTY
  7
OpenSansCondensed-Light
  9
$DIMAUNIT
 70
0
  9
$DIMADEC
 70
2
  9
$DIMALTRND
 40
0.0
  9
$DIMAZIN
 70
3
  9
$DIMDSEP
 70
46
  9
$DIMATFIT
 70
3
  9
$DIMFRAC
 70
0
  9
$DIMLDRBLK
  1

  9
$DIMLUNIT
 70
2
  9
$DIMLWD
 70
-2
  9
$DIMLWE
 70
-2
  9
$DIMTMOVE
 70
2
  9
$DIMFXL
 40
1.0
  9
$DIMFXLON
 70
0
  9
$DIMJOGANG
 40
0.785398163397
  9
$DIMTFILL
 70
0
  9
$DIMTFILLCLR
 70
0
  9
$DIMARCSYM
 70
0
  9
$DIMLTYPE
  6

  9
$DIMLTEX1
  6

  9
$DIMLTEX2
  6

  9
$DIMTXTDIRECTION
 70
0
  9
$LUNITS
 70
4
  9
$LUPREC
 70
4
  9
$SKETCHINC
 40
1.0
  9
$FILLETRAD
 40
10.0
  9
$AUNITS
 70
0
  9
$AUPREC
 70
3
  9
$MENU
  1
.
  9
$ELEVATION
 40
0.0
  9
$PELEVATION
 40
0.0
  9
$THICKNESS
 40
0.0
  9
$LIMCHECK
 70
0
  9
$CHAMFERA
 40
0.0
  9
$CHAMFERB
 40
0.0
  9
$CHAMFERC
 40
0.0
  9
$CHAMFERD
 40
0.0
  9
$SKPOLY
 70
0
  9
$TDCREATE
 40
2461323.727164352
  9
$TDUCREATE
 40
2458532.153996898
  9
$TDUPDATE
 40
2461323.727164352
  9
$TDUUPDATE
 40
2458532.1544311
  9
$TDINDWG
 40
0.0
  9
$TDUSRTIMER
 40
0.0
  9
$USRTIMER
 70
1
  9
$ANGBASE
 50
0.0
  9
$ANGDIR
 70
0
  9
$PDMODE
 70
0
  9
$PDSIZE
 40
0.0
  9
$PLINEWID
 40
0.0
  9
$SPLFRAME
 70
0
  9
$SPLINETYPE
 70
6
  9
$SPLINESEGS
 70
8
  9
$HANDSEED
  5
160
  9
$SURFTAB1
 70
6
  9
$SURFTAB2
 70
6
  9
$SURFTYPE
 70
6
  9
$SURFU
 70
6
  9
$SURFV
 70
6
  9
$UCSBASE
  2

  9
$UCSNAME
  2

  9
$UCSORG
 10
0.0
 20
0.0
 30
0.0
  9
$UCSXDIR
 10
1.0
 20
0.0
 30
0.0
  9
$UCSYDIR
 10
0.0
 20
1.0
 30
0.0
  9
$UCSORTHOREF
  2

  9
$UCSORTHOVIEW
 70
0
  9
$UCSORGTOP
 10
0.0
 20
0.0
 30
0.0
  9
$UCSORGBOTTOM
 10
0.0
 20
0.0
 30
0.0
  9
$UCSORGLEFT
 10
0.0
 20
0.0
 30
0.0
  9
$UCSORGRIGHT
 10
0.0
 20
0.0
 30
0.0
  9
$UCSORGFRONT
 10
0.0
 20
0.0
 30
0.0
  9
$UCSORGBACK
 10
0.0
 20
0.0
 30
0.0
  9
$PUCSBASE
  2

  9
$PUCSNAME
  2

  9
$PUCSORG
 10
0.0
 20
0.0
 30
0.0
  9
$PUCSXDIR
 10
1.0
 20
0.0
 30
0.0
  9
$PUCSYDIR
 10
0.0
 20
1.0
 30
0.0
  9
$PUCSORTHOREF
  2

  9
$PUCSORTHOVIEW
 70
0
  9
$PUCSORGTOP
 10
0.0
 20
0.0
 30
0.0
  9
$PUCSORGBOTTOM
 10
0.0
 20
0.0
 30
0.0
  9
$PUCSORGLEFT
 10
0.0
 20
0.0
 30
0.0
  9
$PUCSORGRIGHT
 10
0.0
 20
0.0
 30
0.0
  9
$PUCSORGFRONT
 10
0.0
 20
0.0
 30
0.0
  9
$PUCSORGBACK
 10
0.0
 20
0.0
 30
0.0
  9
$USERI1
 70
0
  9
$USERI2
 70
0
  9
$USERI3
 70
0
  9
$USERI4
 70
0
  9
$USERI5
 70
0
  9
$USERR1
 40
0.0
  9
$USERR2
 40
0.0
  9
$USERR3
 40
0.0
  9
$USERR4
 40
0.0
  9
$USERR5
 40
0.0
  9
$WORLDVIEW
 70
1
  9
$SHADEDGE
 70
3
  9
$SHADEDIF
 70
70
  9
$TILEMODE
 70
1
  9
$MAXACTVP
 70
64
  9
$PINSBASE
 10
0.0
 20
0.0
 30
0.0
  9
$PLIMCHECK
 70
0
  9
$PEXTMIN
 10
1e+20
 20
1e+20
 30
1e+20
  9
$PEXTMAX
 10
-1e+20
 20
-1e+20
 30
-1e+20
  9
$PLIMMIN
 10
0.0
 20
0.0
  9
$PLIMMAX
 10
420.0
 20
297.0
  9
$UNITMODE
 70
0
  9
$VISRETAIN
 70
1
  9
$PLINEGEN
 70
0
  9
$PSLTSCALE
 70
1
  9
$TREEDEPTH
 70
3020
  9
$CMLSTYLE
  2
Standard
  9
$CMLJUST
 70
0
  9
$CMLSCALE
 40
20.0
  9
$PROXYGRAPHICS
 70
1
  9
$MEASUREMENT
 70
0
  9
$CELWEIGHT
370
-1
  9
$ENDCAPS
280
0
  9
$JOINSTYLE
280
0
  9
$LWDISPLAY
290
0
  9
$INSUNITS
 70
1
  9
$HYPERLINKBASE
  1

  9
$STYLESHEET
  1

  9
$XEDIT
290
1
  9
$CEPSNTYPE
380
0
  9
$PSTYLEMODE
290
1
  9
$FINGERPRINTGUID
  2
{782417A5-C3B5-418E-BDA3-8264F8FB2408}
  9
$VERSIONGUID
  2
{A1D83945-918B-4FB3-8845-A927C224A290}
  9
$EXTNAMES
290
1
  9
$PSVPSCALE
 40
0.0
  9
$OLESTARTUP
290
0
  9
$SORTENTS
280
127
  9
$INDEXCTL
280
0
  9
$HIDETEXT
280
1
  9
$XCLIPFRAME
280
1
  9
$HALOGAP
280
0
  9
$OBSCOLOR
 70
257
  9
$OBSLTYPE
280
0
  9
$INTERSECTIONDISPLAY
280
0
  9
$INTERSECTIONCOLOR
 70
257
  9
$DIMASSOC
280
2
  9
$PROJECTNAME
  1

  9
$CAMERADISPLAY
290
0
  9
$LENSLENGTH
 40
50.0
  9
$CAMERAHEIGHT
 40
0.0
  9
$STEPSPERSEC
 40
24.0
  9
$STEPSIZE
 40
100.0
  9
$3DDWFPREC
 40
2.0
  9
$PSOLWIDTH
 40
0.005
  9
$PSOLHEIGHT
 40
0.08
  9
$LOFTANG1
 40
1.570796326795
  9
$LOFTANG2
 40
1.570796326795
  9
$LOFTMAG1
 40
0.0
  9
$LOFTMAG2
 40
0.0
  9
$LOFTPARAM
 70
7
  9
$LOFTNORMALS
280
1
  9
$LATITUDE
 40
37.795
  9
$LONGITUDE
 40
-122.394
  9
$NORTHDIRECTION
 40
0.0
  9
$TIMEZONE
 70
-8000
  9
$LIGHTGLYPHDISPLAY
280
1
  9
$TILEMODELIGHTSYNCH
280
1
  9
$CMATERIAL
347
20
  9
$SOLIDHIST
280
0
  9
$SHOWHIST
280
1
  9
$DWFFRAME
280
2
  9
$DGNFRAME
280
2
  9
$REALWORLDSCALE
290
1
  9
$INTERFERECOLOR
 62
256
  9
$CSHADOW
280
0
  9
$SHADOWPLANELOCATION
 40
0.0
  0
ENDSEC
  0
SECTION
  2
CLASSES
  0
CLASS
  1
ACDBDICTIONARYWDFLT
  2
AcDbDictionaryWithDefault
  3
ObjectDBX Classes
 90
0
 91
0
280
0
281
0
  0
CLASS
  1
SUN
  2
AcDbSun
  3
SCENEOE
 90
1153
 91
0
280
0
281
0
  0
CLASS
  1
VISUALSTYLE
  2
AcDbVisualStyle
  3
ObjectDBX Classes
 90
4095
 91
0
280
0
281
0
  0
CLASS
  1
MATERIAL
  2
AcDbMaterial
  3
ObjectDBX Classes
 90
1153
 91
0
280
0
281
0
  0
CLASS
  1
SCALE
  2
AcDbScale
  3
ObjectDBX Classes
 90
1153
 91
0
280
0
281
0
  0
CLASS
  1
TABLESTYLE
  2
AcDbTableStyle
  3
ObjectDBX Classes
 90
4095
 91
0
280
0
281
0
  0
CLASS
  1
MLEADERSTYLE
  2
AcDbMLeaderStyle
  3
ACDB_MLEADERSTYLE_CLASS
 90
4095
 91
0
280
0
281
0
  0
CLASS
  1
DICTIONARYVAR
  2
AcDbDictionaryVar
  3
ObjectDBX Classes
 90
0
 91
0
280
0
281
0
  0
CLASS
  1
CELLSTYLEMAP
  2
AcDbCellStyleMap
  3
ObjectDBX Classes
 90
1152
 91
0
280
0
281
0
  0
CLASS
  1
MENTALRAYRENDERSETTINGS
  2
AcDbMentalRayRenderSettings
  3
SCENEOE
 90
1024
 91
0
280
0
281
0
  0
CLASS
  1
ACDBDETAILVIEWSTYLE
  2
AcDbDetailViewStyle
  3
ObjectDBX Classes
 90
1025
 91
0
280
0
281
0
  0
CLASS
  1
ACDBSECTIONVIEWSTYLE
  2
AcDbSectionViewStyle
  3
ObjectDBX Classes
 90
1025
 91
0
280
0
281
0
  0
CLASS
  1
RASTERVARIABLES
  2
AcDbRasterVariables
  3
ISM
 90
0
 91
0
280
0
281
0
  0
CLASS
  1
ACDBPLACEHOLDER
  2
AcDbPlaceHolder
  3
ObjectDBX Classes
 90
0
 91
0
280
0
281
0
  0
CLASS
  1
LAYOUT
  2
AcDbLayout
  3
ObjectDBX Classes
 90
0
 91
0
280
0
281
0
  0
ENDSEC
  0
SECTION
  2
TABLES
  0
TABLE
  2
VPORT
  5
8
330
0
100
AcDbSymbolTable
 70
1
  0
VPORT
  5
23
330
8
100
AcDbSymbolTableRecord
100
AcDbViewportTableRecord
  2
*Active
 70
0
 10
0.0
 20
0.0
 11
1.0
 21
1.0
 12
0.0
 22
0.0
 13
0.0
 23
0.0
 14
0.5
 24
0.5
 15
0.5
 25
0.5
 16
0.0
 26
0.0
 36
1.0
 17
0.0
 27
0.0
 37
0.0
 40
1000.0
 41
1.34
 42
50.0
 43
0.0
 44
0.0
 50
0.0
 51
0.0
 71
0
 72
1000
 73
1
 74
3
 75
0
 76
0
 77
0
 78
0
281
0
 65
0
146
0.0
  0
ENDTAB
  0
TABLE
  2
LTYPE
  5
2
330
0
100
AcDbSymbolTable
 70
21
  0
LTYPE
  5
24
330
2
100
AcDbSymbolTableRecord
100
AcDbLinetypeTableRecord
  2
ByBlock
 70
0
  3

 72
65
 73
0
 40
0.0
  0
LTYPE
  5
25
330
2
100
AcDbSymbolTableRecord
100
AcDbLinetypeTableRecord
  2
ByLayer
 70
0
  3

 72
65
 73
0
 40
0.0
  0
LTYPE
  5
26
330
2
100
AcDbSymbolTableRecord
100
AcDbLinetypeTableRecord
  2
Continuous
 70
0
  3

 72
65
 73
0
 40
0.0
  0
LTYPE
  5
2F
330
2
100
AcDbSymbolTableRecord
100
AcDbLinetypeTableRecord
  2
CENTER
 70
0
  3
Center ____ _ ____ _ ____ _ ____ _ ____ _ ____
 72
65
 73
4
 40
2.0
 49
1.25
 74
0
 49
-0.25
 74
0
 49
0.25
 74
0
 49
-0.25
 74
0
  0
LTYPE
  5
30
330
2
100
AcDbSymbolTableRecord
100
AcDbLinetypeTableRecord
  2
CENTERX2
 70
0
  3
Center (2x) ________  __  ________  __  ________
 72
65
 73
4
 40
3.5
 49
2.5
 74
0
 49
-0.25
 74
0
 49
0.5
 74
0
 49
-0.25
 74
0
  0
LTYPE
  5
31
330
2
100
AcDbSymbolTableRecord
100
AcDbLinetypeTableRecord
  2
CENTER2
 70
0
  3
Center (.5x) ____ _ ____ _ ____ _ ____ _ ____
 72
65
 73
4
 40
1.0
 49
0.625
 74
0
 49
-0.125
 74
0
 49
0.125
 74
0
 49
-0.125
 74
0
  0
LTYPE
  5
32
330
2
100
AcDbSymbolTableRecord
100
AcDbLinetypeTableRecord
  2
DASHED
 70
0
  3
Dashed __ __ __ __ __ __ __ __ __ __ __ __ __ _
 72
65
 73
2
 40
0.6
 49
0.5
 74
0
 49
-0.1
 74
0
  0
LTYPE
  5
33
330
2
100
AcDbSymbolTableRecord
100
AcDbLinetypeTableRecord
  2
DASHEDX2
 70
0
  3
Dashed (2x) ____  ____  ____  ____  ____  ____
 72
65
 73
2
 40
1.2
 49
1.0
 74
0
 49
-0.2
 74
0
  0
LTYPE
  5
34
330
2
100
AcDbSymbolTableRecord
100
AcDbLinetypeTableRecord
  2
DASHED2
 70
0
  3
Dashed (.5x) _ _ _ _ _ _ _ _ _ _ _ _ _ _
 72
65
 73
2
 40
0.3
 49
0.25
 74
0
 49
-0.05
 74
0
  0
LTYPE
  5
35
330
2
100
AcDbSymbolTableRecord
100
AcDbLinetypeTableRecord
  2
PHANTOM
 70
0
  3
Phantom ______  __  __  ______  __  __  ______
 72
65
 73
6
 40
2.5
 49
1.25
 74
0
 49
-0.25
 74
0
 49
0.25
 74
0
 49
-0.25
 74
0
 49
0.25
 74
0
 49
-0.25
 74
0
  0
LTYPE
  5
36
330
2
100
AcDbSymbolTableRecord
100
AcDbLinetypeTableRecord
  2
PHANTOMX2
 70
0
  3
Phantom (2x)____________    ____    ____    ____________
 72
65
 73
6
 40
4.25
 49
2.5
 74
0
 49
-0.25
 74
0
 49
0.5
 74
0
 49
-0.25
 74
0
 49
0.5
 74
0
 49
-0.25
 74
0
  0
LTYPE
  5
37
330
2
100
AcDbSymbolTableRecord
100
AcDbLinetypeTableRecord
  2
PHANTOM2
 70
0
  3
Phantom (.5x) ___ _ _ ___ _ _ ___ _ _ ___ _ _ ___
 72
65
 73
6
 40
1.25
 49
0.625
 74
0
 49
-0.125
 74
0
 49
0.125
 74
0
 49
-0.125
 74
0
 49
0.125
 74
0
 49
-0.125
 74
0
  0
LTYPE
  5
38
330
2
100
AcDbSymbolTableRecord
100
AcDbLinetypeTableRecord
  2
DASHDOT
 70
0
  3
Dash dot __ . __ . __ . __ . __ . __ . __ . __
 72
65
 73
4
 40
1.4
 49
1.0
 74
0
 49
-0.2
 74
0
 49
0.0
 74
0
 49
-0.2
 74
0
  0
LTYPE
  5
39
330
2
100
AcDbSymbolTableRecord
100
AcDbLinetypeTableRecord
  2
DASHDOTX2
 70
0
  3
Dash dot (2x) ____  .  ____  .  ____  .  ____
 72
65
 73
4
 40
2.4
 49
2.0
 74
0
 49
-0.2
 74
0
 49
0.0
 74
0
 49
-0.2
 74
0
  0
LTYPE
  5
3A
330
2
100
AcDbSymbolTableRecord
100
AcDbLinetypeTableRecord
  2
DASHDOT2
 70
0
  3
Dash dot (.5x) _ . _ . _ . _ . _ . _ . _ . _
 72
65
 73
4
 40
0.7
 49
0.5
 74
0
 49
-0.1
 74
0
 49
0.0
 74
0
 49
-0.1
 74
0
  0
LTYPE
  5
3B
330
2
100
AcDbSymbolTableRecord
100
AcDbLinetypeTableRecord
  2
DOT
 70
0
  3
Dot .  .  .  .  .  .  .  .  .  .  .  .  .  .  .  .
 72
65
 73
2
 40
0.2
 49
0.0
 74
0
 49
-0.2
 74
0
  0
LTYPE
  5
3C
330
2
100
AcDbSymbolTableRecord
100
AcDbLinetypeTableRecord
  2
DOTX2
 70
0
  3
Dot (2x) .    .    .    .    .    .    .    . 
 72
65
 73
2
 40
0.4
 49
0.0
 74
0
 49
-0.4
 74
0
  0
LTYPE
  5
3D
330
2
100
AcDbSymbolTableRecord
100
AcDbLinetypeTableRecord
  2
DOT2
 70
0
  3
Dot (.5) . . . . . . . . . . . . . . . . . . . 
 72
65
 73
2
 40
0.1
 49
0.0
 74
0
 49
-0.1
 74
0
  0
LTYPE
  5
3E
330
2
100
AcDbSymbolTableRecord
100
AcDbLinetypeTableRecord
  2
DIVIDE
 70
0
  3
Divide __ . . __ . . __ . . __ . . __ . . __
 72
65
 73
6
 40
1.6
 49
1.0
 74
0
 49
-0.2
 74
0
 49
0.0
 74
0
 49
-0.2
 74
0
 49
0.0
 74
0
 49
-0.2
 74
0
  0
LTYPE
  5
3F
330
2
100
AcDbSymbolTableRecord
100
AcDbLinetypeTableRecord
  2
DIVIDEX2
 70
0
  3
Divide (2x) ____  . .  ____  . .  ____  . .  ____
 72
65
 73
6
 40
2.6
 49
2.0
 74
0
 49
-0.2
 74
0
 49
0.0
 74
0
 49
-0.2
 74
0
 49
0.0
 74
0
 49
-0.2
 74
0
  0
LTYPE
  5
40
330
2
100
AcDbSymbolTableRecord
100
AcDbLinetypeTableRecord
  2
DIVIDE2
 70
0
  3
Divide(.5x) _ . _ . _ . _ . _ . _ . _ . _
 72
65
 73
6
 40
0.8
 49
0.5
 74
0
 49
-0.1
 74
0
 49
0.0
 74
0
 49
-0.1
 74
0
 49
0.0
 74
0
 49
-0.1
 74
0
  0
ENDTAB
  0
TABLE
  2
LAYER
  5
1
330
0
100
AcDbSymbolTable
 70
18
  0
LAYER
  5
27
330
1
100
AcDbSymbolTableRecord
100
AcDbLayerTableRecord
  2
0
 70
0
 62
7
  6
Continuous
370
-3
390
13
347
21
  0
LAYER
  5
28
330
1
100
AcDbSymbolTableRecord
100
AcDbLayerTableRecord
  2
Defpoints
 70
0
 62
7
  6
Continuous
290
0
370
-3
390
13
347
21
  0
LAYER
  5
8A
330
1
100
AcDbSymbolTableRecord
100
AcDbLayerTableRecord
  2
Wardrobe L1
 70
0
 62
7
  6
Continuous
370
-3
390
13
347
21
  0
LAYER
  5
8B
330
1
100
AcDbSymbolTableRecord
100
AcDbLayerTableRecord
  2
Wardrobe L1 hatch
 70
0
 62
8
  6
Continuous
370
-3
390
13
347
21
  0
LAYER
  5
A9
330
1
100
AcDbSymbolTableRecord
100
AcDbLayerTableRecord
  2
Wardrobe L2
 70
0
 62
7
  6
Continuous
370
-3
390
13
347
21
  0
LAYER
  5
AA
330
1
100
AcDbSymbolTableRecord
100
AcDbLayerTableRecord
  2
Wardrobe L2 hatch
 70
0
 62
8
  6
Continuous
370
-3
390
13
347
21
  0
LAYER
  5
CE
330
1
100
AcDbSymbolTableRecord
100
AcDbLayerTableRecord
  2
Wardrobe L3
 70
0
 62
7
  6
Continuous
370
-3
390
13
347
21
  0
LAYER
  5
CF
330
1
100
AcDbSymbolTableRecord
100
AcDbLayerTableRecord
  2
Wardrobe L3 hatch
 70
0
 62
8
  6
Continuous
370
-3
390
13
347
21
  0
LAYER
  5
F2
330
1
100
AcDbSymbolTableRecord
100
AcDbLayerTableRecord
  2
Wardrobe R1
 70
0
 62
7
  6
Continuous
370
-3
390
13
347
21
  0
LAYER
  5
F3
330
1
100
AcDbSymbolTableRecord
100
AcDbLayerTableRecord
  2
Wardrobe R1 hatch
 70
0
 62
8
  6
Continuous
370
-3
390
13
347
21
  0
LAYER
  5
107
330
1
100
AcDbSymbolTableRecord
100
AcDbLayerTableRecord
  2
Wardrobe R2
 70
0
 62
7
  6
Continuous
370
-3
390
13
347
21
  0
LAYER
  5
108
330
1
100
AcDbSymbolTableRecord
100
AcDbLayerTableRecord
  2
Wardrobe R2 hatch
 70
0
 62
8
  6
Continuous
370
-3
390
13
347
21
  0
LAYER
  5
11F
330
1
100
AcDbSymbolTableRecord
100
AcDbLayerTableRecord
  2
Wardrobe R3
 70
0
 62
7
  6
Continuous
370
-3
390
13
347
21
  0
LAYER
  5
120
330
1
100
AcDbSymbolTableRecord
100
AcDbLayerTableRecord
  2
Wardrobe R3 hatch
 70
0
 62
8
  6
Continuous
370
-3
390
13
347
21
  0
LAYER
  5
13D
330
1
100
AcDbSymbolTableRecord
100
AcDbLayerTableRecord
  2
Wardrobe R4
 70
0
 62
7
  6
Continuous
370
-3
390
13
347
21
  0
LAYER
  5
13E
330
1
100
AcDbSymbolTableRecord
100
AcDbLayerTableRecord
  2
Wardrobe R4 hatch
 70
0
 62
8
  6
Continuous
370
-3
390
13
347
21
  0
LAYER
  5
14B
330
1
100
AcDbSymbolTableRecord
100
AcDbLayerTableRecord
  2
Wardrobe lit back
 70
0
 62
7
  6
Continuous
370
-3
390
13
347
21
  0
LAYER
  5
14C
330
1
100
AcDbSymbolTableRecord
100
AcDbLayerTableRecord
  2
Wardrobe lit back hatch
 70
0
 62
8
  6
Continuous
370
-3
390
13
347
21
  0
ENDTAB
  0
TABLE
  2
STYLE
  5
5
330
0
100
AcDbSymbolTable
 70
26
  0
STYLE
  5
29
330
5
100
AcDbSymbolTableRecord
100
AcDbTextStyleTableRecord
  2
Standard
 70
0
 40
0.0
 41
1.0
 50
0.0
 71
0
 42
2.5
  3
txt
  4

  0
STYLE
  5
41
330
5
100
AcDbSymbolTableRecord
100
AcDbTextStyleTableRecord
  2
OpenSans-Light
 70
0
 40
0.0
 41
1.0
 50
0.0
 71
0
 42
2.5
  3
OpenSans-Light.ttf
  4

  0
STYLE
  5
42
330
5
100
AcDbSymbolTableRecord
100
AcDbTextStyleTableRecord
  2
OpenSans-Light-Italic
 70
0
 40
0.0
 41
1.0
 50
0.0
 71
0
 42
2.5
  3
OpenSans-LightItalic.ttf
  4

  0
STYLE
  5
43
330
5
100
AcDbSymbolTableRecord
100
AcDbTextStyleTableRecord
  2
OpenSans
 70
0
 40
0.0
 41
1.0
 50
0.0
 71
0
 42
2.5
  3
OpenSans-Regular.ttf
  4

  0
STYLE
  5
44
330
5
100
AcDbSymbolTableRecord
100
AcDbTextStyleTableRecord
  2
OpenSans-Italic
 70
0
 40
0.0
 41
1.0
 50
0.0
 71
0
 42
2.5
  3
OpenSans-Italic.ttf
  4

  0
STYLE
  5
45
330
5
100
AcDbSymbolTableRecord
100
AcDbTextStyleTableRecord
  2
OpenSans-SemiBold
 70
0
 40
0.0
 41
1.0
 50
0.0
 71
0
 42
2.5
  3
OpenSans-SemiBold.ttf
  4

  0
STYLE
  5
46
330
5
100
AcDbSymbolTableRecord
100
AcDbTextStyleTableRecord
  2
OpenSans-SemiBoldItalic
 70
0
 40
0.0
 41
1.0
 50
0.0
 71
0
 42
2.5
  3
OpenSans-SemiBoldItalic.ttf
  4

  0
STYLE
  5
47
330
5
100
AcDbSymbolTableRecord
100
AcDbTextStyleTableRecord
  2
OpenSans-Bold
 70
0
 40
0.0
 41
1.0
 50
0.0
 71
0
 42
2.5
  3
OpenSans-Bold.ttf
  4

  0
STYLE
  5
48
330
5
100
AcDbSymbolTableRecord
100
AcDbTextStyleTableRecord
  2
OpenSans-BoldItalic
 70
0
 40
0.0
 41
1.0
 50
0.0
 71
0
 42
2.5
  3
OpenSans-BoldItalic.ttf
  4

  0
STYLE
  5
49
330
5
100
AcDbSymbolTableRecord
100
AcDbTextStyleTableRecord
  2
OpenSans-ExtraBold
 70
0
 40
0.0
 41
1.0
 50
0.0
 71
0
 42
2.5
  3
OpenSans-ExtraBold.ttf
  4

  0
STYLE
  5
4A
330
5
100
AcDbSymbolTableRecord
100
AcDbTextStyleTableRecord
  2
OpenSans-ExtraBoldItalic
 70
0
 40
0.0
 41
1.0
 50
0.0
 71
0
 42
2.5
  3
OpenSans-ExtraBoldItalic.ttf
  4

  0
STYLE
  5
4B
330
5
100
AcDbSymbolTableRecord
100
AcDbTextStyleTableRecord
  2
OpenSansCondensed-Bold
 70
0
 40
0.0
 41
1.0
 50
0.0
 71
0
 42
2.5
  3
OpenSansCondensed-Bold.ttf
  4

  0
STYLE
  5
4C
330
5
100
AcDbSymbolTableRecord
100
AcDbTextStyleTableRecord
  2
OpenSansCondensed-Light
 70
0
 40
0.0
 41
1.0
 50
0.0
 71
0
 42
2.5
  3
OpenSansCondensed-Light.ttf
  4

  0
STYLE
  5
4D
330
5
100
AcDbSymbolTableRecord
100
AcDbTextStyleTableRecord
  2
OpenSansCondensed-Italic
 70
0
 40
0.0
 41
1.0
 50
0.0
 71
0
 42
2.5
  3
OpenSansCondensed-LightItalic.ttf
  4

  0
STYLE
  5
4E
330
5
100
AcDbSymbolTableRecord
100
AcDbTextStyleTableRecord
  2
LiberationSans
 70
0
 40
0.0
 41
1.0
 50
0.0
 71
0
 42
2.5
  3
LiberationSans-Regular.ttf
  4

  0
STYLE
  5
4F
330
5
100
AcDbSymbolTableRecord
100
AcDbTextStyleTableRecord
  2
LiberationSans-Bold
 70
0
 40
0.0
 41
1.0
 50
0.0
 71
0
 42
2.5
  3
LiberationSans-Bold.ttf
  4

  0
STYLE
  5
50
330
5
100
AcDbSymbolTableRecord
100
AcDbTextStyleTableRecord
  2
LiberationSans-BoldItalic
 70
0
 40
0.0
 41
1.0
 50
0.0
 71
0
 42
2.5
  3
LiberationSans-BoldItalic.ttf
  4

  0
STYLE
  5
51
330
5
100
AcDbSymbolTableRecord
100
AcDbTextStyleTableRecord
  2
LiberationSans-Italic
 70
0
 40
0.0
 41
1.0
 50
0.0
 71
0
 42
2.5
  3
LiberationSans-Italic.ttf
  4

  0
STYLE
  5
52
330
5
100
AcDbSymbolTableRecord
100
AcDbTextStyleTableRecord
  2
LiberationSerif
 70
0
 40
0.0
 41
1.0
 50
0.0
 71
0
 42
2.5
  3
LiberationSerif-Regular.ttf
  4

  0
STYLE
  5
53
330
5
100
AcDbSymbolTableRecord
100
AcDbTextStyleTableRecord
  2
LiberationSerif-Bold
 70
0
 40
0.0
 41
1.0
 50
0.0
 71
0
 42
2.5
  3
LiberationSerif-Bold.ttf
  4

  0
STYLE
  5
54
330
5
100
AcDbSymbolTableRecord
100
AcDbTextStyleTableRecord
  2
LiberationSerif-BoldItalic
 70
0
 40
0.0
 41
1.0
 50
0.0
 71
0
 42
2.5
  3
LiberationSerif-BoldItalic.ttf
  4

  0
STYLE
  5
55
330
5
100
AcDbSymbolTableRecord
100
AcDbTextStyleTableRecord
  2
LiberationSerif-Italic
 70
0
 40
0.0
 41
1.0
 50
0.0
 71
0
 42
2.5
  3
LiberationSerif-Italic.ttf
  4

  0
STYLE
  5
56
330
5
100
AcDbSymbolTableRecord
100
AcDbTextStyleTableRecord
  2
LiberationMono
 70
0
 40
0.0
 41
1.0
 50
0.0
 71
0
 42
2.5
  3
LiberationMono-Regular.ttf
  4

  0
STYLE
  5
57
330
5
100
AcDbSymbolTableRecord
100
AcDbTextStyleTableRecord
  2
LiberationMono-Bold
 70
0
 40
0.0
 41
1.0
 50
0.0
 71
0
 42
2.5
  3
LiberationMono-Bold.ttf
  4

  0
STYLE
  5
58
330
5
100
AcDbSymbolTableRecord
100
AcDbTextStyleTableRecord
  2
LiberationMono-BoldItalic
 70
0
 40
0.0
 41
1.0
 50
0.0
 71
0
 42
2.5
  3
LiberationMono-BoldItalic.ttf
  4

  0
STYLE
  5
59
330
5
100
AcDbSymbolTableRecord
100
AcDbTextStyleTableRecord
  2
LiberationMono-Italic
 70
0
 40
0.0
 41
1.0
 50
0.0
 71
0
 42
2.5
  3
LiberationMono-Italic.ttf
  4

  0
ENDTAB
  0
TABLE
  2
VIEW
  5
7
330
0
100
AcDbSymbolTable
 70
0
  0
ENDTAB
  0
TABLE
  2
UCS
  5
6
330
0
100
AcDbSymbolTable
 70
0
  0
ENDTAB
  0
TABLE
  2
APPID
  5
3
330
0
100
AcDbSymbolTable
 70
3
  0
APPID
  5
2A
330
3
100
AcDbSymbolTableRecord
100
AcDbRegAppTableRecord
  2
ACAD
 70
0
  0
APPID
  5
15D
330
3
100
AcDbSymbolTableRecord
100
AcDbRegAppTableRecord
  2
HATCHBACKGROUNDCOLOR
 70
0
  0
APPID
  5
15E
330
3
100
AcDbSymbolTableRecord
100
AcDbRegAppTableRecord
  2
EZDXF
 70
0
  0
ENDTAB
  0
TABLE
  2
DIMSTYLE
  5
4
330
0
100
AcDbSymbolTable
 70
12
100
AcDbDimStyleTable
  0
DIMSTYLE
105
2B
330
4
100
AcDbSymbolTableRecord
100
AcDbDimStyleTableRecord
  2
Standard
 70
0
 40
1.0
 41
2.5
 42
0.625
 43
3.75
 44
1.25
 45
0.0
 46
0.0
 47
0.0
 48
0.0
 49
2.5
140
2.5
141
2.5
142
0.0
143
0.03937007874
144
1.0
145
0.0
146
1.0
147
0.625
148
0.0
 69
0
 70
0
 71
0
 72
0
 73
0
 74
0
 75
0
 76
0
 77
1
 78
8
 79
3
170
0
171
3
172
1
173
0
174
0
175
0
176
0
177
0
178
0
179
2
271
2
272
2
273
2
274
3
275
0
276
0
277
2
278
44
279
0
280
0
281
0
282
0
283
0
284
8
285
0
286
0
288
0
289
3
290
0
371
-2
372
-2
  0
DIMSTYLE
105
73
330
4
100
AcDbSymbolTableRecord
100
AcDbDimStyleTableRecord
  2
EZDXF
 70
0
 40
1.0
 41
0.175
 42
0.125
 43
3.75
 44
0.375
 45
0.0
 46
0.0
 47
0.0
 48
0.0
 49
2.5
140
0.25
141
2.5
142
0.0
143
0.03937007874
144
100.0
145
0.0
146
0.5
147
0.1
148
0.0
 69
0
 70
0
 71
0
 72
0
 73
0
 74
0
 75
0
 76
0
 77
1
 78
12
 79
3
170
0
171
3
172
1
173
0
174
0
175
0
176
0
177
0
178
0
179
2
271
2
272
2
273
2
274
3
275
0
276
0
277
2
278
46
279
2
280
0
281
0
282
0
283
0
284
8
285
0
286
0
288
1
289
3
290
0
340
4C
342
74
371
-2
372
-2
  0
DIMSTYLE
105
7C
330
4
100
AcDbSymbolTableRecord
100
AcDbDimStyleTableRecord
  2
EZ_M_100_H25_CM
 70
0
 40
1.0
 41
0.25
 42
0.125
 43
3.75
 44
0.375
 45
0.0
 46
0.0
 47
0.0
 48
0.0
 49
2.5
140
0.25
141
2.5
142
0.125
143
0.03937007874
144
100.0
145
0.0
146
0.5
147
0.1
148
0.0
 69
0
 70
0
 71
0
 72
0
 73
0
 74
0
 75
0
 76
0
 77
1
 78
12
 79
3
170
0
171
3
172
1
173
0
174
0
175
0
176
0
177
0
178
0
179
2
271
2
272
2
273
2
274
3
275
0
276
0
277
2
278
46
279
2
280
0
281
0
282
0
283
0
284
8
285
0
286
0
288
1
289
3
290
0
340
4C
371
-2
372
-2
  0
DIMSTYLE
105
7D
330
4
100
AcDbSymbolTableRecord
100
AcDbDimStyleTableRecord
  2
EZ_M_50_H25_CM
 70
0
 40
1.0
 41
0.125
 42
0.0625
 43
3.75
 44
0.1875
 45
0.0
 46
0.0
 47
0.0
 48
0.0
 49
2.5
140
0.125
141
2.5
142
0.0625
143
0.03937007874
144
100.0
145
0.0
146
0.5
147
0.05
148
0.0
 69
0
 70
0
 71
0
 72
0
 73
0
 74
0
 75
0
 76
0
 77
1
 78
12
 79
3
170
0
171
3
172
1
173
0
174
0
175
0
176
0
177
0
178
0
179
2
271
2
272
2
273
2
274
3
275
0
276
0
277
2
278
46
279
2
280
0
281
0
282
0
283
0
284
8
285
0
286
0
288
1
289
3
290
0
340
4C
371
-2
372
-2
  0
DIMSTYLE
105
7E
330
4
100
AcDbSymbolTableRecord
100
AcDbDimStyleTableRecord
  2
EZ_M_25_H25_CM
 70
0
 40
1.0
 41
0.0625
 42
0.03125
 43
3.75
 44
0.09375
 45
0.0
 46
0.0
 47
0.0
 48
0.0
 49
2.5
140
0.0625
141
2.5
142
0.03125
143
0.03937007874
144
100.0
145
0.0
146
0.5
147
0.025
148
0.0
 69
0
 70
0
 71
0
 72
0
 73
0
 74
0
 75
0
 76
0
 77
1
 78
12
 79
3
170
0
171
3
172
1
173
0
174
0
175
0
176
0
177
0
178
0
179
2
271
2
272
2
273
2
274
3
275
0
276
0
277
2
278
46
279
2
280
0
281
0
282
0
283
0
284
8
285
0
286
0
288
1
289
3
290
0
340
4C
371
-2
372
-2
  0
DIMSTYLE
105
7F
330
4
100
AcDbSymbolTableRecord
100
AcDbDimStyleTableRecord
  2
EZ_M_20_H25_CM
 70
0
 40
1.0
 41
0.05
 42
0.025
 43
3.75
 44
0.07500000000000001
 45
0.0
 46
0.0
 47
0.0
 48
0.0
 49
2.5
140
0.05
141
2.5
142
0.025
143
0.03937007874
144
100.0
145
0.0
146
0.5
147
0.020000000000000004
148
0.0
 69
0
 70
0
 71
0
 72
0
 73
0
 74
0
 75
0
 76
0
 77
1
 78
12
 79
3
170
0
171
3
172
1
173
0
174
0
175
0
176
0
177
0
178
0
179
2
271
2
272
2
273
2
274
3
275
0
276
0
277
2
278
46
279
2
280
0
281
0
282
0
283
0
284
8
285
0
286
0
288
1
289
3
290
0
340
4C
371
-2
372
-2
  0
DIMSTYLE
105
80
330
4
100
AcDbSymbolTableRecord
100
AcDbDimStyleTableRecord
  2
EZ_M_10_H25_CM
 70
0
 40
1.0
 41
0.025
 42
0.0125
 43
3.75
 44
0.037500000000000006
 45
0.0
 46
0.0
 47
0.0
 48
0.0
 49
2.5
140
0.025
141
2.5
142
0.0125
143
0.03937007874
144
100.0
145
0.0
146
0.5
147
0.010000000000000002
148
0.0
 69
0
 70
0
 71
0
 72
0
 73
0
 74
0
 75
0
 76
0
 77
1
 78
12
 79
3
170
0
171
3
172
1
173
0
174
0
175
0
176
0
177
0
178
0
179
2
271
2
272
2
273
2
274
3
275
0
276
0
277
2
278
46
279
2
280
0
281
0
282
0
283
0
284
8
285
0
286
0
288
1
289
3
290
0
340
4C
371
-2
372
-2
  0
DIMSTYLE
105
81
330
4
100
AcDbSymbolTableRecord
100
AcDbDimStyleTableRecord
  2
EZ_M_5_H25_CM
 70
0
 40
1.0
 41
0.0125
 42
0.00625
 43
3.75
 44
0.018750000000000003
 45
0.0
 46
0.0
 47
0.0
 48
0.0
 49
2.5
140
0.0125
141
2.5
142
0.00625
143
0.03937007874
144
100.0
145
0.0
146
0.5
147
0.005000000000000001
148
0.0
 69
0
 70
0
 71
0
 72
0
 73
0
 74
0
 75
0
 76
0
 77
1
 78
12
 79
3
170
0
171
3
172
1
173
0
174
0
175
0
176
0
177
0
178
0
179
2
271
2
272
2
273
2
274
3
275
0
276
0
277
2
278
46
279
2
280
0
281
0
282
0
283
0
284
8
285
0
286
0
288
1
289
3
290
0
340
4C
371
-2
372
-2
  0
DIMSTYLE
105
82
330
4
100
AcDbSymbolTableRecord
100
AcDbDimStyleTableRecord
  2
EZ_M_1_H25_CM
 70
0
 40
1.0
 41
0.0025
 42
0.00125
 43
3.75
 44
0.00375
 45
0.0
 46
0.0
 47
0.0
 48
0.0
 49
2.5
140
0.0025
141
2.5
142
0.00125
143
0.03937007874
144
100.0
145
0.0
146
0.5
147
0.001
148
0.0
 69
0
 70
0
 71
0
 72
0
 73
0
 74
0
 75
0
 76
0
 77
1
 78
12
 79
3
170
0
171
3
172
1
173
0
174
0
175
0
176
0
177
0
178
0
179
2
271
2
272
2
273
2
274
3
275
0
276
0
277
2
278
46
279
2
280
0
281
0
282
0
283
0
284
8
285
0
286
0
288
1
289
3
290
0
340
4C
371
-2
372
-2
  0
DIMSTYLE
105
83
330
4
100
AcDbSymbolTableRecord
100
AcDbDimStyleTableRecord
  2
EZ_RADIUS
 70
0
 40
1.0
 41
0.25
 42
0.125
 43
3.75
 44
0.375
 45
0.0
 46
0.0
 47
0.0
 48
0.0
 49
2.5
140
0.25
141
0.0
142
0.0
143
0.03937007874
144
100.0
145
0.0
146
0.5
147
0.1
148
0.0
 69
0
 70
0
 71
0
 72
0
 73
0
 74
0
 75
0
 76
0
 77
1
 78
12
 79
3
170
0
171
3
172
0
173
0
174
0
175
0
176
0
177
0
178
0
179
2
271
2
272
2
273
2
274
3
275
0
276
0
277
2
278
46
279
1
280
0
281
0
282
0
283
0
284
8
285
0
286
0
288
1
289
3
290
0
340
4C
342
84
371
-2
372
-2
  0
DIMSTYLE
105
88
330
4
100
AcDbSymbolTableRecord
100
AcDbDimStyleTableRecord
  2
EZ_RADIUS_INSIDE
 70
0
 40
1.0
 41
0.25
 42
0.125
 43
3.75
 44
0.375
 45
0.0
 46
0.0
 47
0.0
 48
0.0
 49
2.5
140
0.25
141
0.0
142
0.0
143
0.03937007874
144
100.0
145
0.0
146
0.5
147
0.1
148
0.0
 69
0
 70
0
 71
0
 72
0
 73
0
 74
0
 75
0
 76
0
 77
0
 78
12
 79
3
170
0
171
3
172
0
173
0
174
1
175
0
176
0
177
0
178
0
179
2
271
2
272
2
273
2
274
3
275
0
276
0
277
2
278
46
279
0
280
0
281
0
282
0
283
0
284
8
285
0
286
0
288
1
289
0
290
0
340
4C
342
84
371
-2
372
-2
  0
DIMSTYLE
105
89
330
4
100
AcDbSymbolTableRecord
100
AcDbDimStyleTableRecord
  2
EZ_CURVED
 70
0
 40
1.0
 41
0.25
 42
0.125
 43
3.75
 44
0.375
 45
0.0
 46
0.0
 47
0.0
 48
0.0
 49
2.5
140
0.25
141
2.5
142
0.0
143
0.03937007874
144
100.0
145
0.0
146
0.5
147
0.1
148
0.0
 69
0
 70
0
 71
0
 72
0
 73
0
 74
0
 75
0
 76
0
 77
1
 78
12
 79
2
 90
2
170
0
171
3
172
1
173
0
174
0
175
0
176
0
177
0
178
0
179
2
271
2
272
2
273
2
274
3
275
0
276
0
277
2
278
46
279
2
280
0
281
0
282
0
283
0
284
8
285
0
286
0
288
1
289
3
290
0
340
4C
371
-2
372
-2
  0
ENDTAB
  0
TABLE
  2
BLOCK_RECORD
  5
9
330
0
100
AcDbSymbolTable
 70
5
  0
BLOCK_RECORD
  5
17
330
9
100
AcDbSymbolTableRecord
100
AcDbBlockTableRecord
  2
*Model_Space
340
1A
 70
0
280
1
281
0
  0
BLOCK_RECORD
  5
1B
330
9
100
AcDbSymbolTableRecord
100
AcDbBlockTableRecord
  2
*Paper_Space
340
1E
 70
0
280
1
281
0
  0
BLOCK_RECORD
  5
74
330
9
100
AcDbSymbolTableRecord
100
AcDbBlockTableRecord
  2
_ARCHTICK
340
0
 70
0
280
1
281
0
  0
BLOCK_RECORD
  5
78
330
9
100
AcDbSymbolTableRecord
100
AcDbBlockTableRecord
  2
_CLOSEDFILLED
340
0
 70
0
280
1
281
0
  0
BLOCK_RECORD
  5
84
330
9
100
AcDbSymbolTableRecord
100
AcDbBlockTableRecord
  2
_CLOSEDBLANK
340
0
 70
0
280
1
281
0
  0
ENDTAB
  0
ENDSEC
  0
SECTION
  2
BLOCKS
  0
BLOCK
  5
18
330
17
100
AcDbEntity
  8
0
100
AcDbBlockBegin
  2
*Model_Space
 70
0
 10
0.0
 20
0.0
 30
0.0
  3
*Model_Space
  1

  0
ENDBLK
  5
19
330
17
100
AcDbEntity
  8
0
100
AcDbBlockEnd
  0
BLOCK
  5
1C
330
1B
100
AcDbEntity
  8
0
100
AcDbBlockBegin
  2
*Paper_Space
 70
0
 10
0.0
 20
0.0
 30
0.0
  3
*Paper_Space
  1

  0
ENDBLK
  5
1D
330
1B
100
AcDbEntity
  8
0
100
AcDbBlockEnd
  0
BLOCK
  5
75
330
74
100
AcDbEntity
  8
0
100
AcDbBlockBegin
  2
_ARCHTICK
 70
0
 10
0.0
 20
0.0
 30
0.0
  3
_ARCHTICK
  1

  0
LWPOLYLINE
  5
77
330
74
100
AcDbEntity
  8
0
  6
BYBLOCK
 62
0
100
AcDbPolyline
 90
2
 70
0
 43
0.15
 10
-0.5
 20
-0.5
 10
0.5
 20
0.5
  0
ENDBLK
  5
76
330
74
100
AcDbEntity
  8
0
100
AcDbBlockEnd
  0
BLOCK
  5
79
330
78
100
AcDbEntity
  8
0
100
AcDbBlockBegin
  2
_CLOSEDFILLED
 70
0
 10
0.0
 20
0.0
 30
0.0
  3
_CLOSEDFILLED
  1

  0
SOLID
  5
7B
330
78
100
AcDbEntity
  8
0
  6
BYBLOCK
 62
0
100
AcDbTrace
 10
-1.0
 20
0.16439898372402537
 30
0.0
 11
0.0
 21
0.0
 31
0.0
 12
-1.0
 22
-0.16439898372402537
 32
0.0
 13
-1.0
 23
-0.16439898372402537
 33
0.0
  0
ENDBLK
  5
7A
330
78
100
AcDbEntity
  8
0
100
AcDbBlockEnd
  0
BLOCK
  5
85
330
84
100
AcDbEntity
  8
0
100
AcDbBlockBegin
  2
_CLOSEDBLANK
 70
0
 10
0.0
 20
0.0
 30
0.0
  3
_CLOSEDBLANK
  1

  0
LWPOLYLINE
  5
87
330
84
100
AcDbEntity
  8
0
  6
BYBLOCK
 62
0
100
AcDbPolyline
 90
3
 70
1
 10
-1.0
 20
0.16439898372402537
 10
0.0
 20
0.0
 10
-1.0
 20
-0.16439898372402537
  0
ENDBLK
  5
86
330
84
100
AcDbEntity
  8
0
100
AcDbBlockEnd
  0
ENDSEC
  0
SECTION
  2
ENTITIES
  0
LWPOLYLINE
  5
8C
330
17
100
AcDbEntity
  8
Wardrobe L1
100
AcDbPolyline
 90
5
 70
0
 10
0.0
 20
107.99212598425197
 10
36.61417322834646
 20
107.99212598425197
 10
36.61417322834646
 20
0.0
 10
0.0
 20
0.0
 10
0.0
 20
107.99212598425197
  0
LWPOLYLINE
  5
8D
330
17
100
AcDbEntity
  8
Wardrobe L1
100
AcDbPolyline
 90
5
 70
0
 10
0.7086614173228346
 20
107.28346456692914
 10
35.90551181102362
 20
107.28346456692914
 10
35.90551181102362
 20
3.937007874015748
 10
0.7086614173228346
 20
3.937007874015748
 10
0.7086614173228346
 20
107.28346456692914
  0
LWPOLYLINE
  5
8E
330
17
100
AcDbEntity
  8
Wardrobe L1
100
AcDbPolyline
 90
5
 70
0
 10
0.0
 20
3.937007874015748
 10
36.61417322834646
 20
3.937007874015748
 10
36.61417322834646
 20
0.0
 10
0.0
 20
0.0
 10
0.0
 20
3.937007874015748
  0
LWPOLYLINE
  5
8F
330
17
100
AcDbEntity
  8
Wardrobe L1
100
AcDbPolyline
 90
5
 70
0
 10
0.7086614173228346
 20
86.81102362204724
 10
35.90551181102362
 20
86.81102362204724
 10
35.90551181102362
 20
85.94488188976378
 10
0.7086614173228346
 20
85.94488188976378
 10
0.7086614173228346
 20
86.81102362204724
  0
LWPOLYLINE
  5
90
330
17
100
AcDbEntity
  8
Wardrobe L1
100
AcDbPolyline
 90
5
 70
0
 10
3.149606299212598
 20
97.63779527559055
 10
16.53543307086614
 20
97.63779527559055
 10
16.53543307086614
 20
86.81102362204724
 10
3.149606299212598
 20
86.81102362204724
 10
3.149606299212598
 20
97.63779527559055
  0
LWPOLYLINE
  5
91
330
17
100
AcDbEntity
  8
Wardrobe L1
100
AcDbPolyline
 90
5
 70
0
 10
18.89763779527559
 20
94.48818897637796
 10
33.85826771653543
 20
94.48818897637796
 10
33.85826771653543
 20
86.81102362204724
 10
18.89763779527559
 20
86.81102362204724
 10
18.89763779527559
 20
94.48818897637796
  0
LWPOLYLINE
  5
92
330
17
100
AcDbEntity
  8
Wardrobe L1
100
AcDbPolyline
 90
5
 70
0
 10
5.511811023622047
 20
103.93700787401575
 10
15.748031496062993
 20
103.93700787401575
 10
15.748031496062993
 20
97.63779527559055
 10
5.511811023622047
 20
97.63779527559055
 10
5.511811023622047
 20
103.93700787401575
  0
LINE
  5
93
330
17
100
AcDbEntity
  8
Wardrobe L1
100
AcDbLine
 10
0.7086614173228346
 20
81.10236220472441
 30
0.0
 11
35.90551181102362
 21
81.10236220472441
 31
0.0
  0
LINE
  5
94
330
17
100
AcDbEntity
  8
Wardrobe L1
100
AcDbLine
 10
3.543307086614173
 20
81.10236220472441
 30
0.0
 11
4.724409448818897
 21
31.88976377952756
 31
0.0
  0
LINE
  5
95
330
17
100
AcDbEntity
  8
Wardrobe L1
100
AcDbLine
 10
5.905511811023622
 20
81.10236220472441
 30
0.0
 11
7.086614173228346
 21
31.88976377952756
 31
0.0
  0
LINE
  5
96
330
17
100
AcDbEntity
  8
Wardrobe L1
100
AcDbLine
 10
8.26771653543307
 20
81.10236220472441
 30
0.0
 11
9.448818897637794
 21
31.88976377952756
 31
0.0
  0
LINE
  5
97
330
17
100
AcDbEntity
  8
Wardrobe L1
100
AcDbLine
 10
10.62992125984252
 20
81.10236220472441
 30
0.0
 11
11.811023622047244
 21
31.88976377952756
 31
0.0
  0
LINE
  5
98
330
17
100
AcDbEntity
  8
Wardrobe L1
100
AcDbLine
 10
12.992125984251969
 20
81.10236220472441
 30
0.0
 11
14.173228346456693
 21
31.88976377952756
 31
0.0
  0
LINE
  5
99
330
17
100
AcDbEntity
  8
Wardrobe L1
100
AcDbLine
 10
15.354330708661417
 20
81.10236220472441
 30
0.0
 11
16.53543307086614
 21
31.88976377952756
 31
0.0
  0
LINE
  5
9A
330
17
100
AcDbEntity
  8
Wardrobe L1
100
AcDbLine
 10
17.716535433070867
 20
81.10236220472441
 30
0.0
 11
18.89763779527559
 21
31.88976377952756
 31
0.0
  0
LINE
  5
9B
330
17
100
AcDbEntity
  8
Wardrobe L1
100
AcDbLine
 10
20.078740157480315
 20
81.10236220472441
 30
0.0
 11
21.25984251968504
 21
31.88976377952756
 31
0.0
  0
LINE
  5
9C
330
17
100
AcDbEntity
  8
Wardrobe L1
100
AcDbLine
 10
22.440944881889763
 20
81.10236220472441
 30
0.0
 11
23.62204724409449
 21
31.88976377952756
 31
0.0
  0
LINE
  5
9D
330
17
100
AcDbEntity
  8
Wardrobe L1
100
AcDbLine
 10
24.80314960629921
 20
81.10236220472441
 30
0.0
 11
25.984251968503937
 21
31.88976377952756
 31
0.0
  0
LINE
  5
9E
330
17
100
AcDbEntity
  8
Wardrobe L1
100
AcDbLine
 10
27.16535433070866
 20
81.10236220472441
 30
0.0
 11
28.346456692913385
 21
31.88976377952756
 31
0.0
  0
LINE
  5
9F
330
17
100
AcDbEntity
  8
Wardrobe L1
100
AcDbLine
 10
29.52755905511811
 20
81.10236220472441
 30
0.0
 11
30.708661417322833
 21
31.88976377952756
 31
0.0
  0
LINE
  5
A0
330
17
100
AcDbEntity
  8
Wardrobe L1
100
AcDbLine
 10
31.88976377952756
 20
81.10236220472441
 30
0.0
 11
33.07086614173228
 21
31.88976377952756
 31
0.0
  0
LWPOLYLINE
  5
A1
330
17
100
AcDbEntity
  8
Wardrobe L1
100
AcDbPolyline
 90
5
 70
0
 10
0.7086614173228346
 20
26.062992125984252
 10
35.90551181102362
 20
26.062992125984252
 10
35.90551181102362
 20
25.196850393700785
 10
0.7086614173228346
 20
25.196850393700785
 10
0.7086614173228346
 20
26.062992125984252
  0
LWPOLYLINE
  5
A2
330
17
100
AcDbEntity
  8
Wardrobe L1
100
AcDbPolyline
 90
5
 70
0
 10
1.4173228346456692
 20
24.409448818897644
 10
35.196850393700785
 20
24.409448818897644
 10
35.196850393700785
 20
16.92913385826772
 10
1.4173228346456692
 20
16.92913385826772
 10
1.4173228346456692
 20
24.409448818897644
  0
LINE
  5
A3
330
17
100
AcDbEntity
  8
Wardrobe L1
100
AcDbLine
 10
13.188976377952756
 20
20.669291338582678
 30
0.0
 11
23.4251968503937
 21
20.669291338582678
 31
0.0
  0
LWPOLYLINE
  5
A4
330
17
100
AcDbEntity
  8
Wardrobe L1
100
AcDbPolyline
 90
5
 70
0
 10
1.4173228346456692
 20
16.141732283464563
 10
35.196850393700785
 20
16.141732283464563
 10
35.196850393700785
 20
9.842519685039377
 10
1.4173228346456692
 20
9.842519685039377
 10
1.4173228346456692
 20
16.141732283464563
  0
LINE
  5
A5
330
17
100
AcDbEntity
  8
Wardrobe L1
100
AcDbLine
 10
13.188976377952756
 20
12.992125984251969
 30
0.0
 11
23.4251968503937
 21
12.992125984251969
 31
0.0
  0
LWPOLYLINE
  5
A6
330
17
100
AcDbEntity
  8
Wardrobe L1
100
AcDbPolyline
 90
5
 70
0
 10
1.4173228346456692
 20
9.055118110236222
 10
35.196850393700785
 20
9.055118110236222
 10
35.196850393700785
 20
4.330708661417333
 10
1.4173228346456692
 20
4.330708661417333
 10
1.4173228346456692
 20
9.055118110236222
  0
LINE
  5
A7
330
17
100
AcDbEntity
  8
Wardrobe L1
100
AcDbLine
 10
13.188976377952756
 20
6.692913385826771
 30
0.0
 11
23.4251968503937
 21
6.692913385826771
 31
0.0
  0
TEXT
  5
A8
330
17
100
AcDbEntity
  8
LABELS
100
AcDbText
 10
0.0
 20
110.35433070866142
 30
0.0
 40
0.7322834645669292
  1
WARDROBE L1  (1:1, inches)
 11
0.0
 21
110.35433070866142
 31
0.0
100
AcDbText
  0
LWPOLYLINE
  5
AB
330
17
100
AcDbEntity
  8
Wardrobe L2
100
AcDbPolyline
 90
5
 70
0
 10
46.45669291338583
 20
107.99212598425197
 10
83.0708661417323
 20
107.99212598425197
 10
83.0708661417323
 20
0.0
 10
46.45669291338583
 20
0.0
 10
46.45669291338583
 20
107.99212598425197
  0
LWPOLYLINE
  5
AC
330
17
100
AcDbEntity
  8
Wardrobe L2
100
AcDbPolyline
 90
5
 70
0
 10
47.16535433070867
 20
107.28346456692914
 10
82.36220472440945
 20
107.28346456692914
 10
82.36220472440945
 20
3.937007874015748
 10
47.16535433070867
 20
3.937007874015748
 10
47.16535433070867
 20
107.28346456692914
  0
LWPOLYLINE
  5
AD
330
17
100
AcDbEntity
  8
Wardrobe L2
100
AcDbPolyline
 90
5
 70
0
 10
46.45669291338583
 20
3.937007874015748
 10
83.0708661417323
 20
3.937007874015748
 10
83.0708661417323
 20
0.0
 10
46.45669291338583
 20
0.0
 10
46.45669291338583
 20
3.937007874015748
  0
LWPOLYLINE
  5
AE
330
17
100
AcDbEntity
  8
Wardrobe L2
100
AcDbPolyline
 90
5
 70
0
 10
47.16535433070867
 20
86.81102362204724
 10
82.36220472440945
 20
86.81102362204724
 10
82.36220472440945
 20
85.94488188976378
 10
47.16535433070867
 20
85.94488188976378
 10
47.16535433070867
 20
86.81102362204724
  0
LWPOLYLINE
  5
AF
330
17
100
AcDbEntity
  8
Wardrobe L2
100
AcDbPolyline
 90
5
 70
0
 10
49.60629921259843
 20
97.63779527559055
 10
62.99212598425197
 20
97.63779527559055
 10
62.99212598425197
 20
86.81102362204724
 10
49.60629921259843
 20
86.81102362204724
 10
49.60629921259843
 20
97.63779527559055
  0
LWPOLYLINE
  5
B0
330
17
100
AcDbEntity
  8
Wardrobe L2
100
AcDbPolyline
 90
5
 70
0
 10
65.35433070866142
 20
94.48818897637796
 10
80.31496062992126
 20
94.48818897637796
 10
80.31496062992126
 20
86.81102362204724
 10
65.35433070866142
 20
86.81102362204724
 10
65.35433070866142
 20
94.48818897637796
  0
LWPOLYLINE
  5
B1
330
17
100
AcDbEntity
  8
Wardrobe L2
100
AcDbPolyline
 90
5
 70
0
 10
51.968503937007874
 20
103.93700787401575
 10
62.20472440944882
 20
103.93700787401575
 10
62.20472440944882
 20
97.63779527559055
 10
51.968503937007874
 20
97.63779527559055
 10
51.968503937007874
 20
103.93700787401575
  0
LINE
  5
B2
330
17
100
AcDbEntity
  8
Wardrobe L2
100
AcDbLine
 10
47.16535433070866
 20
74.80314960629921
 30
0.0
 11
82.36220472440945
 21
74.80314960629921
 31
0.0
  0
LINE
  5
B3
330
17
100
AcDbEntity
  8
Wardrobe L2
100
AcDbLine
 10
50.0
 20
74.80314960629921
 30
0.0
 11
51.181102362204726
 21
44.09448818897638
 31
0.0
  0
LINE
  5
B4
330
17
100
AcDbEntity
  8
Wardrobe L2
100
AcDbLine
 10
52.362204724409445
 20
74.80314960629921
 30
0.0
 11
53.54330708661417
 21
44.09448818897638
 31
0.0
  0
LINE
  5
B5
330
17
100
AcDbEntity
  8
Wardrobe L2
100
AcDbLine
 10
54.724409448818896
 20
74.80314960629921
 30
0.0
 11
55.90551181102362
 21
44.09448818897638
 31
0.0
  0
LINE
  5
B6
330
17
100
AcDbEntity
  8
Wardrobe L2
100
AcDbLine
 10
57.08661417322835
 20
74.80314960629921
 30
0.0
 11
58.26771653543307
 21
44.09448818897638
 31
0.0
  0
LINE
  5
B7
330
17
100
AcDbEntity
  8
Wardrobe L2
100
AcDbLine
 10
59.44881889763779
 20
74.80314960629921
 30
0.0
 11
60.62992125984252
 21
44.09448818897638
 31
0.0
  0
LINE
  5
B8
330
17
100
AcDbEntity
  8
Wardrobe L2
100
AcDbLine
 10
61.811023622047244
 20
74.80314960629921
 30
0.0
 11
62.99212598425197
 21
44.09448818897638
 31
0.0
  0
LINE
  5
B9
330
17
100
AcDbEntity
  8
Wardrobe L2
100
AcDbLine
 10
64.1732283464567
 20
74.80314960629921
 30
0.0
 11
65.35433070866142
 21
44.09448818897638
 31
0.0
  0
LINE
  5
BA
330
17
100
AcDbEntity
  8
Wardrobe L2
100
AcDbLine
 10
66.53543307086615
 20
74.80314960629921
 30
0.0
 11
67.71653543307086
 21
44.09448818897638
 31
0.0
  0
LINE
  5
BB
330
17
100
AcDbEntity
  8
Wardrobe L2
100
AcDbLine
 10
68.89763779527559
 20
74.80314960629921
 30
0.0
 11
70.07874015748031
 21
44.09448818897638
 31
0.0
  0
LINE
  5
BC
330
17
100
AcDbEntity
  8
Wardrobe L2
100
AcDbLine
 10
71.25984251968504
 20
74.80314960629921
 30
0.0
 11
72.44094488188976
 21
44.09448818897638
 31
0.0
  0
LINE
  5
BD
330
17
100
AcDbEntity
  8
Wardrobe L2
100
AcDbLine
 10
73.62204724409449
 20
74.80314960629921
 30
0.0
 11
74.80314960629921
 21
44.09448818897638
 31
0.0
  0
LINE
  5
BE
330
17
100
AcDbEntity
  8
Wardrobe L2
100
AcDbLine
 10
75.98425196850394
 20
74.80314960629921
 30
0.0
 11
77.16535433070867
 21
44.09448818897638
 31
0.0
  0
LINE
  5
BF
330
17
100
AcDbEntity
  8
Wardrobe L2
100
AcDbLine
 10
78.34645669291338
 20
74.80314960629921
 30
0.0
 11
79.5275590551181
 21
44.09448818897638
 31
0.0
  0
LWPOLYLINE
  5
C0
330
17
100
AcDbEntity
  8
Wardrobe L2
100
AcDbPolyline
 90
5
 70
0
 10
47.16535433070867
 20
42.5984251968504
 10
82.36220472440945
 20
42.5984251968504
 10
82.36220472440945
 20
41.73228346456693
 10
47.16535433070867
 20
41.73228346456693
 10
47.16535433070867
 20
42.5984251968504
  0
LWPOLYLINE
  5
C1
330
17
100
AcDbEntity
  8
Wardrobe L2
100
AcDbPolyline
 90
5
 70
0
 10
47.874015748031496
 20
41.33858267716536
 10
81.65354330708661
 20
41.33858267716536
 10
81.65354330708661
 20
37.00787401574803
 10
47.874015748031496
 20
37.00787401574803
 10
47.874015748031496
 20
41.33858267716536
  0
LWPOLYLINE
  5
C2
330
17
100
AcDbEntity
  8
Wardrobe L2
100
AcDbPolyline
 90
5
 70
0
 10
49.21259842519685
 20
40.74803149606299
 10
55.90551181102362
 20
40.74803149606299
 10
55.90551181102362
 20
37.5984251968504
 10
49.21259842519685
 20
37.5984251968504
 10
49.21259842519685
 20
40.74803149606299
  0
LWPOLYLINE
  5
C3
330
17
100
AcDbEntity
  8
Wardrobe L2
100
AcDbPolyline
 90
5
 70
0
 10
57.08661417322835
 20
40.74803149606299
 10
63.779527559055126
 20
40.74803149606299
 10
63.779527559055126
 20
37.5984251968504
 10
57.08661417322835
 20
37.5984251968504
 10
57.08661417322835
 20
40.74803149606299
  0
LWPOLYLINE
  5
C4
330
17
100
AcDbEntity
  8
Wardrobe L2
100
AcDbPolyline
 90
5
 70
0
 10
64.96062992125985
 20
40.74803149606299
 10
71.65354330708661
 20
40.74803149606299
 10
71.65354330708661
 20
37.5984251968504
 10
64.96062992125985
 20
37.5984251968504
 10
64.96062992125985
 20
40.74803149606299
  0
LWPOLYLINE
  5
C5
330
17
100
AcDbEntity
  8
Wardrobe L2
100
AcDbPolyline
 90
5
 70
0
 10
72.83464566929135
 20
40.74803149606299
 10
79.5275590551181
 20
40.74803149606299
 10
79.5275590551181
 20
37.5984251968504
 10
72.83464566929135
 20
37.5984251968504
 10
72.83464566929135
 20
40.74803149606299
  0
LWPOLYLINE
  5
C6
330
17
100
AcDbEntity
  8
Wardrobe L2
100
AcDbPolyline
 90
5
 70
0
 10
47.874015748031496
 20
35.826771653543304
 10
81.65354330708661
 20
35.826771653543304
 10
81.65354330708661
 20
34.64566929133859
 10
47.874015748031496
 20
34.64566929133859
 10
47.874015748031496
 20
35.826771653543304
  0
LINE
  5
C7
330
17
100
AcDbEntity
  8
Wardrobe L2
100
AcDbLine
 10
47.874015748031496
 20
35.23622047244094
 30
0.0
 11
81.65354330708661
 21
35.23622047244094
 31
0.0
  0
LINE
  5
C8
330
17
100
AcDbEntity
  8
Wardrobe L2
100
AcDbLine
 10
50.39370078740157
 20
34.645669291338585
 30
0.0
 11
50.39370078740157
 21
7.874015748031496
 31
0.0
  0
LINE
  5
C9
330
17
100
AcDbEntity
  8
Wardrobe L2
100
AcDbLine
 10
57.08661417322835
 20
34.645669291338585
 30
0.0
 11
57.08661417322835
 21
7.874015748031496
 31
0.0
  0
LINE
  5
CA
330
17
100
AcDbEntity
  8
Wardrobe L2
100
AcDbLine
 10
63.77952755905512
 20
34.645669291338585
 30
0.0
 11
63.77952755905512
 21
7.874015748031496
 31
0.0
  0
LINE
  5
CB
330
17
100
AcDbEntity
  8
Wardrobe L2
100
AcDbLine
 10
70.47244094488188
 20
34.645669291338585
 30
0.0
 11
70.47244094488188
 21
7.874015748031496
 31
0.0
  0
LINE
  5
CC
330
17
100
AcDbEntity
  8
Wardrobe L2
100
AcDbLine
 10
77.16535433070867
 20
34.645669291338585
 30
0.0
 11
77.16535433070867
 21
7.874015748031496
 31
0.0
  0
TEXT
  5
CD
330
17
100
AcDbEntity
  8
LABELS
100
AcDbText
 10
46.45669291338583
 20
110.35433070866142
 30
0.0
 40
0.7322834645669292
  1
WARDROBE L2  (1:1, inches)
 11
46.45669291338583
 21
110.35433070866142
 31
0.0
100
AcDbText
  0
LWPOLYLINE
  5
D0
330
17
100
AcDbEntity
  8
Wardrobe L3
100
AcDbPolyline
 90
5
 70
0
 10
92.91338582677166
 20
107.99212598425197
 10
129.5275590551181
 20
107.99212598425197
 10
129.5275590551181
 20
0.0
 10
92.91338582677166
 20
0.0
 10
92.91338582677166
 20
107.99212598425197
  0
LWPOLYLINE
  5
D1
330
17
100
AcDbEntity
  8
Wardrobe L3
100
AcDbPolyline
 90
5
 70
0
 10
93.62204724409449
 20
107.28346456692914
 10
128.8188976377953
 20
107.28346456692914
 10
128.8188976377953
 20
3.937007874015748
 10
93.62204724409449
 20
3.937007874015748
 10
93.62204724409449
 20
107.28346456692914
  0
LWPOLYLINE
  5
D2
330
17
100
AcDbEntity
  8
Wardrobe L3
100
AcDbPolyline
 90
5
 70
0
 10
92.91338582677166
 20
3.937007874015748
 10
129.5275590551181
 20
3.937007874015748
 10
129.5275590551181
 20
0.0
 10
92.91338582677166
 20
0.0
 10
92.91338582677166
 20
3.937007874015748
  0
LWPOLYLINE
  5
D3
330
17
100
AcDbEntity
  8
Wardrobe L3
100
AcDbPolyline
 90
5
 70
0
 10
93.62204724409449
 20
86.81102362204724
 10
128.8188976377953
 20
86.81102362204724
 10
128.8188976377953
 20
85.94488188976378
 10
93.62204724409449
 20
85.94488188976378
 10
93.62204724409449
 20
86.81102362204724
  0
LWPOLYLINE
  5
D4
330
17
100
AcDbEntity
  8
Wardrobe L3
100
AcDbPolyline
 90
5
 70
0
 10
96.06299212598425
 20
97.63779527559055
 10
109.4488188976378
 20
97.63779527559055
 10
109.4488188976378
 20
86.81102362204724
 10
96.06299212598425
 20
86.81102362204724
 10
96.06299212598425
 20
97.63779527559055
  0
LWPOLYLINE
  5
D5
330
17
100
AcDbEntity
  8
Wardrobe L3
100
AcDbPolyline
 90
5
 70
0
 10
111.81102362204724
 20
94.48818897637796
 10
126.77165354330708
 20
94.48818897637796
 10
126.77165354330708
 20
86.81102362204724
 10
111.81102362204724
 20
86.81102362204724
 10
111.81102362204724
 20
94.48818897637796
  0
LWPOLYLINE
  5
D6
330
17
100
AcDbEntity
  8
Wardrobe L3
100
AcDbPolyline
 90
5
 70
0
 10
98.4251968503937
 20
103.93700787401575
 10
108.66141732283465
 20
103.93700787401575
 10
108.66141732283465
 20
97.63779527559055
 10
98.4251968503937
 20
97.63779527559055
 10
98.4251968503937
 20
103.93700787401575
  0
LWPOLYLINE
  5
D7
330
17
100
AcDbEntity
  8
Wardrobe L3
100
AcDbPolyline
 90
5
 70
0
 10
93.62204724409449
 20
74.88188976377953
 10
128.8188976377953
 20
74.88188976377953
 10
128.8188976377953
 20
74.01574803149606
 10
93.62204724409449
 20
74.01574803149606
 10
93.62204724409449
 20
74.88188976377953
  0
LWPOLYLINE
  5
D8
330
17
100
AcDbEntity
  8
Wardrobe L3
100
AcDbPolyline
 90
5
 70
0
 10
93.62204724409449
 20
63.85826771653544
 10
128.8188976377953
 20
63.85826771653544
 10
128.8188976377953
 20
62.99212598425197
 10
93.62204724409449
 20
62.99212598425197
 10
93.62204724409449
 20
63.85826771653544
  0
LWPOLYLINE
  5
D9
330
17
100
AcDbEntity
  8
Wardrobe L3
100
AcDbPolyline
 90
5
 70
0
 10
93.62204724409449
 20
52.83464566929134
 10
128.8188976377953
 20
52.83464566929134
 10
128.8188976377953
 20
51.968503937007874
 10
93.62204724409449
 20
51.968503937007874
 10
93.62204724409449
 20
52.83464566929134
  0
LWPOLYLINE
  5
DA
330
17
100
AcDbEntity
  8
Wardrobe L3
100
AcDbPolyline
 90
5
 70
0
 10
95.66929133858268
 20
80.0
 10
98.03149606299213
 20
80.0
 10
98.03149606299213
 20
74.88188976377953
 10
95.66929133858268
 20
74.88188976377953
 10
95.66929133858268
 20
80.0
  0
LWPOLYLINE
  5
DB
330
17
100
AcDbEntity
  8
Wardrobe L3
100
AcDbPolyline
 90
5
 70
0
 10
100.78740157480316
 20
81.18110236220473
 10
103.70078740157481
 20
81.18110236220473
 10
103.70078740157481
 20
74.88188976377953
 10
100.78740157480316
 20
74.88188976377953
 10
100.78740157480316
 20
81.18110236220473
  0
LWPOLYLINE
  5
DC
330
17
100
AcDbEntity
  8
Wardrobe L3
100
AcDbPolyline
 90
5
 70
0
 10
105.90551181102363
 20
82.36220472440945
 10
108.26771653543308
 20
82.36220472440945
 10
108.26771653543308
 20
74.88188976377953
 10
105.90551181102363
 20
74.88188976377953
 10
105.90551181102363
 20
82.36220472440945
  0
LWPOLYLINE
  5
DD
330
17
100
AcDbEntity
  8
Wardrobe L3
100
AcDbPolyline
 90
5
 70
0
 10
111.0236220472441
 20
80.0
 10
113.93700787401575
 20
80.0
 10
113.93700787401575
 20
74.88188976377953
 10
111.0236220472441
 20
74.88188976377953
 10
111.0236220472441
 20
80.0
  0
LWPOLYLINE
  5
DE
330
17
100
AcDbEntity
  8
Wardrobe L3
100
AcDbPolyline
 90
5
 70
0
 10
116.14173228346458
 20
81.18110236220473
 10
118.50393700787401
 20
81.18110236220473
 10
118.50393700787401
 20
74.88188976377953
 10
116.14173228346458
 20
74.88188976377953
 10
116.14173228346458
 20
81.18110236220473
  0
LWPOLYLINE
  5
DF
330
17
100
AcDbEntity
  8
Wardrobe L3
100
AcDbPolyline
 90
5
 70
0
 10
121.25984251968504
 20
82.36220472440945
 10
124.1732283464567
 20
82.36220472440945
 10
124.1732283464567
 20
74.88188976377953
 10
121.25984251968504
 20
74.88188976377953
 10
121.25984251968504
 20
82.36220472440945
  0
LWPOLYLINE
  5
E0
330
17
100
AcDbEntity
  8
Wardrobe L3
100
AcDbPolyline
 90
5
 70
0
 10
95.66929133858268
 20
68.97637795275591
 10
98.03149606299213
 20
68.97637795275591
 10
98.03149606299213
 20
63.85826771653544
 10
95.66929133858268
 20
63.85826771653544
 10
95.66929133858268
 20
68.97637795275591
  0
LWPOLYLINE
  5
E1
330
17
100
AcDbEntity
  8
Wardrobe L3
100
AcDbPolyline
 90
5
 70
0
 10
100.78740157480316
 20
70.15748031496062
 10
103.70078740157481
 20
70.15748031496062
 10
103.70078740157481
 20
63.85826771653544
 10
100.78740157480316
 20
63.85826771653544
 10
100.78740157480316
 20
70.15748031496062
  0
LWPOLYLINE
  5
E2
330
17
100
AcDbEntity
  8
Wardrobe L3
100
AcDbPolyline
 90
5
 70
0
 10
105.90551181102363
 20
71.33858267716536
 10
108.26771653543308
 20
71.33858267716536
 10
108.26771653543308
 20
63.85826771653544
 10
105.90551181102363
 20
63.85826771653544
 10
105.90551181102363
 20
71.33858267716536
  0
LWPOLYLINE
  5
E3
330
17
100
AcDbEntity
  8
Wardrobe L3
100
AcDbPolyline
 90
5
 70
0
 10
111.0236220472441
 20
68.97637795275591
 10
113.93700787401575
 20
68.97637795275591
 10
113.93700787401575
 20
63.85826771653544
 10
111.0236220472441
 20
63.85826771653544
 10
111.0236220472441
 20
68.97637795275591
  0
LWPOLYLINE
  5
E4
330
17
100
AcDbEntity
  8
Wardrobe L3
100
AcDbPolyline
 90
5
 70
0
 10
116.14173228346458
 20
70.15748031496062
 10
118.50393700787401
 20
70.15748031496062
 10
118.50393700787401
 20
63.85826771653544
 10
116.14173228346458
 20
63.85826771653544
 10
116.14173228346458
 20
70.15748031496062
  0
LWPOLYLINE
  5
E5
330
17
100
AcDbEntity
  8
Wardrobe L3
100
AcDbPolyline
 90
5
 70
0
 10
121.25984251968504
 20
71.33858267716536
 10
124.1732283464567
 20
71.33858267716536
 10
124.1732283464567
 20
63.85826771653544
 10
121.25984251968504
 20
63.85826771653544
 10
121.25984251968504
 20
71.33858267716536
  0
LWPOLYLINE
  5
E6
330
17
100
AcDbEntity
  8
Wardrobe L3
100
AcDbPolyline
 90
5
 70
0
 10
95.66929133858268
 20
57.952755905511815
 10
98.03149606299213
 20
57.952755905511815
 10
98.03149606299213
 20
52.83464566929134
 10
95.66929133858268
 20
52.83464566929134
 10
95.66929133858268
 20
57.952755905511815
  0
LWPOLYLINE
  5
E7
330
17
100
AcDbEntity
  8
Wardrobe L3
100
AcDbPolyline
 90
5
 70
0
 10
100.78740157480316
 20
59.13385826771654
 10
103.70078740157481
 20
59.13385826771654
 10
103.70078740157481
 20
52.83464566929134
 10
100.78740157480316
 20
52.83464566929134
 10
100.78740157480316
 20
59.13385826771654
  0
LWPOLYLINE
  5
E8
330
17
100
AcDbEntity
  8
Wardrobe L3
100
AcDbPolyline
 90
5
 70
0
 10
105.90551181102363
 20
60.31496062992126
 10
108.26771653543308
 20
60.31496062992126
 10
108.26771653543308
 20
52.83464566929134
 10
105.90551181102363
 20
52.83464566929134
 10
105.90551181102363
 20
60.31496062992126
  0
LWPOLYLINE
  5
E9
330
17
100
AcDbEntity
  8
Wardrobe L3
100
AcDbPolyline
 90
5
 70
0
 10
111.0236220472441
 20
57.952755905511815
 10
113.93700787401575
 20
57.952755905511815
 10
113.93700787401575
 20
52.83464566929134
 10
111.0236220472441
 20
52.83464566929134
 10
111.0236220472441
 20
57.952755905511815
  0
LWPOLYLINE
  5
EA
330
17
100
AcDbEntity
  8
Wardrobe L3
100
AcDbPolyline
 90
5
 70
0
 10
116.14173228346458
 20
59.13385826771654
 10
118.50393700787401
 20
59.13385826771654
 10
118.50393700787401
 20
52.83464566929134
 10
116.14173228346458
 20
52.83464566929134
 10
116.14173228346458
 20
59.13385826771654
  0
LWPOLYLINE
  5
EB
330
17
100
AcDbEntity
  8
Wardrobe L3
100
AcDbPolyline
 90
5
 70
0
 10
121.25984251968504
 20
60.31496062992126
 10
124.1732283464567
 20
60.31496062992126
 10
124.1732283464567
 20
52.83464566929134
 10
121.25984251968504
 20
52.83464566929134
 10
121.25984251968504
 20
60.31496062992126
  0
LWPOLYLINE
  5
EC
330
17
100
AcDbEntity
  8
Wardrobe L3
  6
DASHED
100
AcDbPolyline
 90
5
 70
0
 10
93.62204724409449
 20
51.181102362204726
 10
128.8188976377953
 20
51.181102362204726
 10
128.8188976377953
 20
30.708661417322844
 10
93.62204724409449
 20
30.708661417322844
 10
93.62204724409449
 20
51.181102362204726
  0
LWPOLYLINE
  5
ED
330
17
100
AcDbEntity
  8
Wardrobe L3
100
AcDbPolyline
 90
5
 70
0
 10
94.33070866141733
 20
29.133858267716533
 10
128.11023622047244
 20
29.133858267716533
 10
128.11023622047244
 20
16.92913385826772
 10
94.33070866141733
 20
16.92913385826772
 10
94.33070866141733
 20
29.133858267716533
  0
LINE
  5
EE
330
17
100
AcDbEntity
  8
Wardrobe L3
100
AcDbLine
 10
106.10236220472441
 20
23.031496062992126
 30
0.0
 11
116.33858267716535
 21
23.031496062992126
 31
0.0
  0
LWPOLYLINE
  5
EF
330
17
100
AcDbEntity
  8
Wardrobe L3
100
AcDbPolyline
 90
5
 70
0
 10
94.33070866141733
 20
16.535433070866148
 10
128.11023622047244
 20
16.535433070866148
 10
128.11023622047244
 20
4.527559055118118
 10
94.33070866141733
 20
4.527559055118118
 10
94.33070866141733
 20
16.535433070866148
  0
LINE
  5
F0
330
17
100
AcDbEntity
  8
Wardrobe L3
100
AcDbLine
 10
106.10236220472441
 20
10.531496062992126
 30
0.0
 11
116.33858267716535
 21
10.531496062992126
 31
0.0
  0
TEXT
  5
F1
330
17
100
AcDbEntity
  8
LABELS
100
AcDbText
 10
92.91338582677166
 20
110.35433070866142
 30
0.0
 40
0.7322834645669292
  1
WARDROBE L3  (1:1, inches)
 11
92.91338582677166
 21
110.35433070866142
 31
0.0
100
AcDbText
  0
LWPOLYLINE
  5
F4
330
17
100
AcDbEntity
  8
Wardrobe R1
100
AcDbPolyline
 90
5
 70
0
 10
139.37007874015748
 20
107.99212598425197
 10
175.98425196850394
 20
107.99212598425197
 10
175.98425196850394
 20
0.0
 10
139.37007874015748
 20
0.0
 10
139.37007874015748
 20
107.99212598425197
  0
LWPOLYLINE
  5
F5
330
17
100
AcDbEntity
  8
Wardrobe R1
100
AcDbPolyline
 90
5
 70
0
 10
140.07874015748033
 20
107.28346456692914
 10
175.2755905511811
 20
107.28346456692914
 10
175.2755905511811
 20
3.937007874015748
 10
140.07874015748033
 20
3.937007874015748
 10
140.07874015748033
 20
107.28346456692914
  0
LWPOLYLINE
  5
F6
330
17
100
AcDbEntity
  8
Wardrobe R1
100
AcDbPolyline
 90
5
 70
0
 10
139.37007874015748
 20
3.937007874015748
 10
175.98425196850394
 20
3.937007874015748
 10
175.98425196850394
 20
0.0
 10
139.37007874015748
 20
0.0
 10
139.37007874015748
 20
3.937007874015748
  0
LWPOLYLINE
  5
F7
330
17
100
AcDbEntity
  8
Wardrobe R1
100
AcDbPolyline
 90
5
 70
0
 10
140.07874015748033
 20
86.81102362204724
 10
175.2755905511811
 20
86.81102362204724
 10
175.2755905511811
 20
85.94488188976378
 10
140.07874015748033
 20
85.94488188976378
 10
140.07874015748033
 20
86.81102362204724
  0
LWPOLYLINE
  5
F8
330
17
100
AcDbEntity
  8
Wardrobe R1
100
AcDbPolyline
 90
5
 70
0
 10
142.51968503937007
 20
97.63779527559055
 10
155.90551181102362
 20
97.63779527559055
 10
155.90551181102362
 20
86.81102362204724
 10
142.51968503937007
 20
86.81102362204724
 10
142.51968503937007
 20
97.63779527559055
  0
LWPOLYLINE
  5
F9
330
17
100
AcDbEntity
  8
Wardrobe R1
100
AcDbPolyline
 90
5
 70
0
 10
158.26771653543307
 20
94.48818897637796
 10
173.22834645669292
 20
94.48818897637796
 10
173.22834645669292
 20
86.81102362204724
 10
158.26771653543307
 20
86.81102362204724
 10
158.26771653543307
 20
94.48818897637796
  0
LWPOLYLINE
  5
FA
330
17
100
AcDbEntity
  8
Wardrobe R1
100
AcDbPolyline
 90
5
 70
0
 10
144.88188976377953
 20
103.93700787401575
 10
155.11811023622047
 20
103.93700787401575
 10
155.11811023622047
 20
97.63779527559055
 10
144.88188976377953
 20
97.63779527559055
 10
144.88188976377953
 20
103.93700787401575
  0
LWPOLYLINE
  5
FB
330
17
100
AcDbEntity
  8
Wardrobe R1
100
AcDbPolyline
 90
5
 70
0
 10
140.07874015748033
 20
30.787401574803155
 10
175.2755905511811
 20
30.787401574803155
 10
175.2755905511811
 20
29.92125984251969
 10
140.07874015748033
 20
29.92125984251969
 10
140.07874015748033
 20
30.787401574803155
  0
LWPOLYLINE
  5
FC
330
17
100
AcDbEntity
  8
Wardrobe R1
100
AcDbPolyline
 90
5
 70
0
 10
140.07874015748033
 20
43.779527559055126
 10
175.2755905511811
 20
43.779527559055126
 10
175.2755905511811
 20
42.91338582677166
 10
140.07874015748033
 20
42.91338582677166
 10
140.07874015748033
 20
43.779527559055126
  0
LWPOLYLINE
  5
FD
330
17
100
AcDbEntity
  8
Wardrobe R1
100
AcDbPolyline
 90
5
 70
0
 10
140.07874015748033
 20
56.77165354330709
 10
175.2755905511811
 20
56.77165354330709
 10
175.2755905511811
 20
55.90551181102362
 10
140.07874015748033
 20
55.90551181102362
 10
140.07874015748033
 20
56.77165354330709
  0
LWPOLYLINE
  5
FE
330
17
100
AcDbEntity
  8
Wardrobe R1
100
AcDbPolyline
 90
5
 70
0
 10
140.07874015748033
 20
69.76377952755905
 10
175.2755905511811
 20
69.76377952755905
 10
175.2755905511811
 20
68.89763779527559
 10
140.07874015748033
 20
68.89763779527559
 10
140.07874015748033
 20
69.76377952755905
  0
LWPOLYLINE
  5
FF
330
17
100
AcDbEntity
  8
Wardrobe R1
100
AcDbPolyline
 90
5
 70
0
 10
140.07874015748033
 20
82.75590551181102
 10
175.2755905511811
 20
82.75590551181102
 10
175.2755905511811
 20
81.88976377952756
 10
140.07874015748033
 20
81.88976377952756
 10
140.07874015748033
 20
82.75590551181102
  0
LWPOLYLINE
  5
100
330
17
100
AcDbEntity
  8
Wardrobe R1
100
AcDbPolyline
 90
5
 70
0
 10
140.78740157480314
 20
12.401574803149614
 10
174.56692913385825
 20
12.401574803149614
 10
174.56692913385825
 20
4.527559055118118
 10
140.78740157480314
 20
4.527559055118118
 10
140.78740157480314
 20
12.401574803149614
  0
LINE
  5
101
330
17
100
AcDbEntity
  8
Wardrobe R1
100
AcDbLine
 10
152.55905511811022
 20
8.464566929133857
 30
0.0
 11
162.79527559055117
 21
8.464566929133857
 31
0.0
  0
LWPOLYLINE
  5
102
330
17
100
AcDbEntity
  8
Wardrobe R1
100
AcDbPolyline
 90
5
 70
0
 10
140.78740157480314
 20
20.866141732283467
 10
174.56692913385825
 20
20.866141732283467
 10
174.56692913385825
 20
12.99212598425197
 10
140.78740157480314
 20
12.99212598425197
 10
140.78740157480314
 20
20.866141732283467
  0
LINE
  5
103
330
17
100
AcDbEntity
  8
Wardrobe R1
100
AcDbLine
 10
152.55905511811022
 20
16.929133858267715
 30
0.0
 11
162.79527559055117
 21
16.929133858267715
 31
0.0
  0
LWPOLYLINE
  5
104
330
17
100
AcDbEntity
  8
Wardrobe R1
100
AcDbPolyline
 90
5
 70
0
 10
140.78740157480314
 20
29.33070866141732
 10
174.56692913385825
 20
29.33070866141732
 10
174.56692913385825
 20
21.456692913385837
 10
140.78740157480314
 20
21.456692913385837
 10
140.78740157480314
 20
29.33070866141732
  0
LINE
  5
105
330
17
100
AcDbEntity
  8
Wardrobe R1
100
AcDbLine
 10
152.55905511811022
 20
25.393700787401574
 30
0.0
 11
162.79527559055117
 21
25.393700787401574
 31
0.0
  0
TEXT
  5
106
330
17
100
AcDbEntity
  8
LABELS
100
AcDbText
 10
139.37007874015748
 20
110.35433070866142
 30
0.0
 40
0.7322834645669292
  1
WARDROBE R1  (1:1, inches)
 11
139.37007874015748
 21
110.35433070866142
 31
0.0
100
AcDbText
  0
LWPOLYLINE
  5
109
330
17
100
AcDbEntity
  8
Wardrobe R2
100
AcDbPolyline
 90
5
 70
0
 10
185.82677165354332
 20
107.99212598425197
 10
222.44094488188978
 20
107.99212598425197
 10
222.44094488188978
 20
0.0
 10
185.82677165354332
 20
0.0
 10
185.82677165354332
 20
107.99212598425197
  0
LWPOLYLINE
  5
10A
330
17
100
AcDbEntity
  8
Wardrobe R2
100
AcDbPolyline
 90
5
 70
0
 10
186.53543307086616
 20
107.28346456692914
 10
221.73228346456693
 20
107.28346456692914
 10
221.73228346456693
 20
3.937007874015748
 10
186.53543307086616
 20
3.937007874015748
 10
186.53543307086616
 20
107.28346456692914
  0
LWPOLYLINE
  5
10B
330
17
100
AcDbEntity
  8
Wardrobe R2
100
AcDbPolyline
 90
5
 70
0
 10
185.82677165354332
 20
3.937007874015748
 10
222.44094488188978
 20
3.937007874015748
 10
222.44094488188978
 20
0.0
 10
185.82677165354332
 20
0.0
 10
185.82677165354332
 20
3.937007874015748
  0
LWPOLYLINE
  5
10C
330
17
100
AcDbEntity
  8
Wardrobe R2
100
AcDbPolyline
 90
5
 70
0
 10
186.53543307086616
 20
86.81102362204724
 10
221.73228346456693
 20
86.81102362204724
 10
221.73228346456693
 20
85.94488188976378
 10
186.53543307086616
 20
85.94488188976378
 10
186.53543307086616
 20
86.81102362204724
  0
LWPOLYLINE
  5
10D
330
17
100
AcDbEntity
  8
Wardrobe R2
100
AcDbPolyline
 90
5
 70
0
 10
188.9763779527559
 20
97.63779527559055
 10
202.36220472440945
 20
97.63779527559055
 10
202.36220472440945
 20
86.81102362204724
 10
188.9763779527559
 20
86.81102362204724
 10
188.9763779527559
 20
97.63779527559055
  0
LWPOLYLINE
  5
10E
330
17
100
AcDbEntity
  8
Wardrobe R2
100
AcDbPolyline
 90
5
 70
0
 10
204.7244094488189
 20
94.48818897637796
 10
219.68503937007875
 20
94.48818897637796
 10
219.68503937007875
 20
86.81102362204724
 10
204.7244094488189
 20
86.81102362204724
 10
204.7244094488189
 20
94.48818897637796
  0
LWPOLYLINE
  5
10F
330
17
100
AcDbEntity
  8
Wardrobe R2
100
AcDbPolyline
 90
5
 70
0
 10
191.33858267716536
 20
103.93700787401575
 10
201.5748031496063
 20
103.93700787401575
 10
201.5748031496063
 20
97.63779527559055
 10
191.33858267716536
 20
97.63779527559055
 10
191.33858267716536
 20
103.93700787401575
  0
LWPOLYLINE
  5
110
330
17
100
AcDbEntity
  8
Wardrobe R2
100
AcDbPolyline
 90
5
 70
0
 10
186.53543307086616
 20
77.24409448818898
 10
221.73228346456693
 20
77.24409448818898
 10
221.73228346456693
 20
76.37795275590551
 10
186.53543307086616
 20
76.37795275590551
 10
186.53543307086616
 20
77.24409448818898
  0
LWPOLYLINE
  5
111
330
17
100
AcDbEntity
  8
Wardrobe R2
100
AcDbPolyline
 90
5
 70
0
 10
186.53543307086616
 20
64.64566929133858
 10
221.73228346456693
 20
64.64566929133858
 10
221.73228346456693
 20
63.77952755905512
 10
186.53543307086616
 20
63.77952755905512
 10
186.53543307086616
 20
64.64566929133858
  0
LWPOLYLINE
  5
112
330
17
100
AcDbEntity
  8
Wardrobe R2
100
AcDbPolyline
 90
5
 70
0
 10
187.24409448818898
 20
53.54330708661418
 10
221.0236220472441
 20
53.54330708661418
 10
221.0236220472441
 20
52.36220472440945
 10
187.24409448818898
 20
52.36220472440945
 10
187.24409448818898
 20
53.54330708661418
  0
LINE
  5
113
330
17
100
AcDbEntity
  8
Wardrobe R2
100
AcDbLine
 10
187.24409448818898
 20
52.95275590551181
 30
0.0
 11
221.0236220472441
 21
52.95275590551181
 31
0.0
  0
LINE
  5
114
330
17
100
AcDbEntity
  8
Wardrobe R2
100
AcDbLine
 10
189.76377952755905
 20
52.362204724409445
 30
0.0
 11
189.76377952755905
 21
31.496062992125985
 31
0.0
  0
LINE
  5
115
330
17
100
AcDbEntity
  8
Wardrobe R2
100
AcDbLine
 10
196.45669291338584
 20
52.362204724409445
 30
0.0
 11
196.45669291338584
 21
31.496062992125985
 31
0.0
  0
LINE
  5
116
330
17
100
AcDbEntity
  8
Wardrobe R2
100
AcDbLine
 10
203.1496062992126
 20
52.362204724409445
 30
0.0
 11
203.1496062992126
 21
31.496062992125985
 31
0.0
  0
LINE
  5
117
330
17
100
AcDbEntity
  8
Wardrobe R2
100
AcDbLine
 10
209.84251968503938
 20
52.362204724409445
 30
0.0
 11
209.84251968503938
 21
31.496062992125985
 31
0.0
  0
LINE
  5
118
330
17
100
AcDbEntity
  8
Wardrobe R2
100
AcDbLine
 10
216.53543307086613
 20
52.362204724409445
 30
0.0
 11
216.53543307086613
 21
31.496062992125985
 31
0.0
  0
LWPOLYLINE
  5
119
330
17
100
AcDbEntity
  8
Wardrobe R2
100
AcDbPolyline
 90
5
 70
0
 10
187.24409448818898
 20
29.92125984251969
 10
221.0236220472441
 20
29.92125984251969
 10
221.0236220472441
 20
23.22834645669292
 10
187.24409448818898
 20
23.22834645669292
 10
187.24409448818898
 20
29.92125984251969
  0
LINE
  5
11A
330
17
100
AcDbEntity
  8
Wardrobe R2
100
AcDbLine
 10
199.01574803149606
 20
26.5748031496063
 30
0.0
 11
209.251968503937
 21
26.5748031496063
 31
0.0
  0
LWPOLYLINE
  5
11B
330
17
100
AcDbEntity
  8
Wardrobe R2
100
AcDbPolyline
 90
5
 70
0
 10
187.24409448818898
 20
22.440944881889763
 10
221.0236220472441
 20
22.440944881889763
 10
221.0236220472441
 20
4.527559055118118
 10
187.24409448818898
 20
4.527559055118118
 10
187.24409448818898
 20
22.440944881889763
  0
LINE
  5
11C
330
17
100
AcDbEntity
  8
Wardrobe R2
100
AcDbLine
 10
204.13385826771653
 20
4.52755905511811
 30
0.0
 11
204.13385826771653
 21
22.440944881889763
 31
0.0
  0
LINE
  5
11D
330
17
100
AcDbEntity
  8
Wardrobe R2
100
AcDbLine
 10
199.40944881889763
 20
13.779527559055119
 30
0.0
 11
208.85826771653544
 21
13.779527559055119
 31
0.0
  0
TEXT
  5
11E
330
17
100
AcDbEntity
  8
LABELS
100
AcDbText
 10
185.82677165354332
 20
110.35433070866142
 30
0.0
 40
0.7322834645669292
  1
WARDROBE R2  (1:1, inches)
 11
185.82677165354332
 21
110.35433070866142
 31
0.0
100
AcDbText
  0
LWPOLYLINE
  5
121
330
17
100
AcDbEntity
  8
Wardrobe R3
100
AcDbPolyline
 90
5
 70
0
 10
232.28346456692913
 20
107.99212598425197
 10
268.8976377952756
 20
107.99212598425197
 10
268.8976377952756
 20
0.0
 10
232.28346456692913
 20
0.0
 10
232.28346456692913
 20
107.99212598425197
  0
LWPOLYLINE
  5
122
330
17
100
AcDbEntity
  8
Wardrobe R3
100
AcDbPolyline
 90
5
 70
0
 10
232.99212598425197
 20
107.28346456692914
 10
268.18897637795277
 20
107.28346456692914
 10
268.18897637795277
 20
3.937007874015748
 10
232.99212598425197
 20
3.937007874015748
 10
232.99212598425197
 20
107.28346456692914
  0
LWPOLYLINE
  5
123
330
17
100
AcDbEntity
  8
Wardrobe R3
100
AcDbPolyline
 90
5
 70
0
 10
232.28346456692913
 20
3.937007874015748
 10
268.8976377952756
 20
3.937007874015748
 10
268.8976377952756
 20
0.0
 10
232.28346456692913
 20
0.0
 10
232.28346456692913
 20
3.937007874015748
  0
LWPOLYLINE
  5
124
330
17
100
AcDbEntity
  8
Wardrobe R3
100
AcDbPolyline
 90
5
 70
0
 10
232.99212598425197
 20
86.81102362204724
 10
268.18897637795277
 20
86.81102362204724
 10
268.18897637795277
 20
85.94488188976378
 10
232.99212598425197
 20
85.94488188976378
 10
232.99212598425197
 20
86.81102362204724
  0
LWPOLYLINE
  5
125
330
17
100
AcDbEntity
  8
Wardrobe R3
100
AcDbPolyline
 90
5
 70
0
 10
235.43307086614172
 20
97.63779527559055
 10
248.81889763779526
 20
97.63779527559055
 10
248.81889763779526
 20
86.81102362204724
 10
235.43307086614172
 20
86.81102362204724
 10
235.43307086614172
 20
97.63779527559055
  0
LWPOLYLINE
  5
126
330
17
100
AcDbEntity
  8
Wardrobe R3
100
AcDbPolyline
 90
5
 70
0
 10
251.1811023622047
 20
94.48818897637796
 10
266.14173228346453
 20
94.48818897637796
 10
266.14173228346453
 20
86.81102362204724
 10
251.1811023622047
 20
86.81102362204724
 10
251.1811023622047
 20
94.48818897637796
  0
LWPOLYLINE
  5
127
330
17
100
AcDbEntity
  8
Wardrobe R3
100
AcDbPolyline
 90
5
 70
0
 10
237.79527559055117
 20
103.93700787401575
 10
248.03149606299212
 20
103.93700787401575
 10
248.03149606299212
 20
97.63779527559055
 10
237.79527559055117
 20
97.63779527559055
 10
237.79527559055117
 20
103.93700787401575
  0
LWPOLYLINE
  5
128
330
17
100
AcDbEntity
  8
Wardrobe R3
100
AcDbPolyline
 90
5
 70
0
 10
232.99212598425197
 20
78.03149606299213
 10
268.18897637795277
 20
78.03149606299213
 10
268.18897637795277
 20
77.16535433070867
 10
232.99212598425197
 20
77.16535433070867
 10
232.99212598425197
 20
78.03149606299213
  0
LWPOLYLINE
  5
129
330
17
100
AcDbEntity
  8
Wardrobe R3
100
AcDbPolyline
 90
5
 70
0
 10
233.7007874015748
 20
85.43307086614173
 10
267.4803149606299
 20
85.43307086614173
 10
267.4803149606299
 20
78.74015748031496
 10
233.7007874015748
 20
78.74015748031496
 10
233.7007874015748
 20
85.43307086614173
  0
LINE
  5
12A
330
17
100
AcDbEntity
  8
Wardrobe R3
100
AcDbLine
 10
233.85826771653544
 20
6.299212598425196
 30
0.0
 11
267.3228346456693
 21
8.464566929133857
 31
0.0
  0
LINE
  5
12B
330
17
100
AcDbEntity
  8
Wardrobe R3
100
AcDbLine
 10
233.85826771653544
 20
6.299212598425196
 30
0.0
 11
233.85826771653544
 21
7.874015748031496
 31
0.0
  0
LINE
  5
12C
330
17
100
AcDbEntity
  8
Wardrobe R3
100
AcDbLine
 10
233.85826771653544
 20
13.58267716535433
 30
0.0
 11
267.3228346456693
 21
15.748031496062993
 31
0.0
  0
LINE
  5
12D
330
17
100
AcDbEntity
  8
Wardrobe R3
100
AcDbLine
 10
233.85826771653544
 20
13.58267716535433
 30
0.0
 11
233.85826771653544
 21
15.15748031496063
 31
0.0
  0
LINE
  5
12E
330
17
100
AcDbEntity
  8
Wardrobe R3
100
AcDbLine
 10
233.85826771653544
 20
20.866141732283463
 30
0.0
 11
267.3228346456693
 21
23.031496062992126
 31
0.0
  0
LINE
  5
12F
330
17
100
AcDbEntity
  8
Wardrobe R3
100
AcDbLine
 10
233.85826771653544
 20
20.866141732283463
 30
0.0
 11
233.85826771653544
 21
22.440944881889763
 31
0.0
  0
LINE
  5
130
330
17
100
AcDbEntity
  8
Wardrobe R3
100
AcDbLine
 10
233.85826771653544
 20
28.149606299212596
 30
0.0
 11
267.3228346456693
 21
30.31496062992126
 31
0.0
  0
LINE
  5
131
330
17
100
AcDbEntity
  8
Wardrobe R3
100
AcDbLine
 10
233.85826771653544
 20
28.149606299212596
 30
0.0
 11
233.85826771653544
 21
29.724409448818896
 31
0.0
  0
LINE
  5
132
330
17
100
AcDbEntity
  8
Wardrobe R3
100
AcDbLine
 10
233.85826771653544
 20
35.43307086614173
 30
0.0
 11
267.3228346456693
 21
37.59842519685039
 31
0.0
  0
LINE
  5
133
330
17
100
AcDbEntity
  8
Wardrobe R3
100
AcDbLine
 10
233.85826771653544
 20
35.43307086614173
 30
0.0
 11
233.85826771653544
 21
37.00787401574803
 31
0.0
  0
LINE
  5
134
330
17
100
AcDbEntity
  8
Wardrobe R3
100
AcDbLine
 10
233.85826771653544
 20
42.71653543307087
 30
0.0
 11
267.3228346456693
 21
44.881889763779526
 31
0.0
  0
LINE
  5
135
330
17
100
AcDbEntity
  8
Wardrobe R3
100
AcDbLine
 10
233.85826771653544
 20
42.71653543307087
 30
0.0
 11
233.85826771653544
 21
44.29133858267716
 31
0.0
  0
LINE
  5
136
330
17
100
AcDbEntity
  8
Wardrobe R3
100
AcDbLine
 10
233.85826771653544
 20
50.0
 30
0.0
 11
267.3228346456693
 21
52.16535433070866
 31
0.0
  0
LINE
  5
137
330
17
100
AcDbEntity
  8
Wardrobe R3
100
AcDbLine
 10
233.85826771653544
 20
50.0
 30
0.0
 11
233.85826771653544
 21
51.574803149606296
 31
0.0
  0
LINE
  5
138
330
17
100
AcDbEntity
  8
Wardrobe R3
100
AcDbLine
 10
233.85826771653544
 20
57.28346456692913
 30
0.0
 11
267.3228346456693
 21
59.44881889763779
 31
0.0
  0
LINE
  5
139
330
17
100
AcDbEntity
  8
Wardrobe R3
100
AcDbLine
 10
233.85826771653544
 20
57.28346456692913
 30
0.0
 11
233.85826771653544
 21
58.85826771653543
 31
0.0
  0
LINE
  5
13A
330
17
100
AcDbEntity
  8
Wardrobe R3
100
AcDbLine
 10
233.85826771653544
 20
64.56692913385827
 30
0.0
 11
267.3228346456693
 21
66.73228346456693
 31
0.0
  0
LINE
  5
13B
330
17
100
AcDbEntity
  8
Wardrobe R3
100
AcDbLine
 10
233.85826771653544
 20
64.56692913385827
 30
0.0
 11
233.85826771653544
 21
66.14173228346456
 31
0.0
  0
TEXT
  5
13C
330
17
100
AcDbEntity
  8
LABELS
100
AcDbText
 10
232.28346456692913
 20
110.35433070866142
 30
0.0
 40
0.7322834645669292
  1
WARDROBE R3  (1:1, inches)
 11
232.28346456692913
 21
110.35433070866142
 31
0.0
100
AcDbText
  0
LWPOLYLINE
  5
13F
330
17
100
AcDbEntity
  8
Wardrobe R4
100
AcDbPolyline
 90
5
 70
0
 10
278.74015748031496
 20
107.99212598425197
 10
315.35433070866145
 20
107.99212598425197
 10
315.35433070866145
 20
0.0
 10
278.74015748031496
 20
0.0
 10
278.74015748031496
 20
107.99212598425197
  0
LWPOLYLINE
  5
140
330
17
100
AcDbEntity
  8
Wardrobe R4
100
AcDbPolyline
 90
5
 70
0
 10
279.4488188976378
 20
107.28346456692914
 10
314.6456692913386
 20
107.28346456692914
 10
314.6456692913386
 20
3.937007874015748
 10
279.4488188976378
 20
3.937007874015748
 10
279.4488188976378
 20
107.28346456692914
  0
LWPOLYLINE
  5
141
330
17
100
AcDbEntity
  8
Wardrobe R4
100
AcDbPolyline
 90
5
 70
0
 10
278.74015748031496
 20
3.937007874015748
 10
315.35433070866145
 20
3.937007874015748
 10
315.35433070866145
 20
0.0
 10
278.74015748031496
 20
0.0
 10
278.74015748031496
 20
3.937007874015748
  0
LWPOLYLINE
  5
142
330
17
100
AcDbEntity
  8
Wardrobe R4
100
AcDbPolyline
 90
5
 70
0
 10
279.4488188976378
 20
81.5748031496063
 10
314.6456692913386
 20
81.5748031496063
 10
314.6456692913386
 20
80.70866141732284
 10
279.4488188976378
 20
80.70866141732284
 10
279.4488188976378
 20
81.5748031496063
  0
LWPOLYLINE
  5
143
330
17
100
AcDbEntity
  8
Wardrobe R4
100
AcDbPolyline
 90
5
 70
0
 10
279.4488188976378
 20
68.97637795275591
 10
314.6456692913386
 20
68.97637795275591
 10
314.6456692913386
 20
68.11023622047244
 10
279.4488188976378
 20
68.11023622047244
 10
279.4488188976378
 20
68.97637795275591
  0
LWPOLYLINE
  5
144
330
17
100
AcDbEntity
  8
Wardrobe R4
100
AcDbPolyline
 90
5
 70
0
 10
279.4488188976378
 20
56.37795275590551
 10
314.6456692913386
 20
56.37795275590551
 10
314.6456692913386
 20
55.51181102362205
 10
279.4488188976378
 20
55.51181102362205
 10
279.4488188976378
 20
56.37795275590551
  0
LWPOLYLINE
  5
145
330
17
100
AcDbEntity
  8
Wardrobe R4
100
AcDbPolyline
 90
5
 70
0
 10
279.4488188976378
 20
43.779527559055126
 10
314.6456692913386
 20
43.779527559055126
 10
314.6456692913386
 20
42.91338582677166
 10
279.4488188976378
 20
42.91338582677166
 10
279.4488188976378
 20
43.779527559055126
  0
LWPOLYLINE
  5
146
330
17
100
AcDbEntity
  8
Wardrobe R4
100
AcDbPolyline
 90
5
 70
0
 10
279.4488188976378
 20
31.181102362204726
 10
314.6456692913386
 20
31.181102362204726
 10
314.6456692913386
 20
30.31496062992126
 10
279.4488188976378
 20
30.31496062992126
 10
279.4488188976378
 20
31.181102362204726
  0
LWPOLYLINE
  5
147
330
17
100
AcDbEntity
  8
Wardrobe R4
100
AcDbPolyline
 90
5
 70
0
 10
279.4488188976378
 20
18.58267716535434
 10
314.6456692913386
 20
18.58267716535434
 10
314.6456692913386
 20
17.716535433070874
 10
279.4488188976378
 20
17.716535433070874
 10
279.4488188976378
 20
18.58267716535434
  0
LWPOLYLINE
  5
148
330
17
100
AcDbEntity
  8
Wardrobe R4
100
AcDbPolyline
 90
5
 70
0
 10
279.4488188976378
 20
85.94488188976378
 10
314.6456692913386
 20
85.94488188976378
 10
314.6456692913386
 20
3.937007874015748
 10
279.4488188976378
 20
3.937007874015748
 10
279.4488188976378
 20
85.94488188976378
  0
LINE
  5
149
330
17
100
AcDbEntity
  8
Wardrobe R4
  6
DASHED
100
AcDbLine
 10
297.0472440944882
 20
85.94488188976378
 30
0.0
 11
297.0472440944882
 21
3.937007874015748
 31
0.0
  0
TEXT
  5
14A
330
17
100
AcDbEntity
  8
LABELS
100
AcDbText
 10
278.74015748031496
 20
110.35433070866142
 30
0.0
 40
0.7322834645669292
  1
WARDROBE R4  (1:1, inches)
 11
278.74015748031496
 21
110.35433070866142
 31
0.0
100
AcDbText
  0
HATCH
  5
14D
330
17
100
AcDbEntity
  8
Wardrobe lit back hatch
 62
7
100
AcDbHatch
 10
0.0
 20
0.0
 30
0.0
210
0.0
220
0.0
230
1.0
  2
ANSI31
 70
0
 71
0
 91
1
 92
3
 72
0
 73
1
 93
5
 10
325.1968503937008
 20
14.566929133858267
 10
337.00787401574803
 20
14.566929133858267
 10
337.00787401574803
 20
11.811023622047244
 10
325.1968503937008
 20
11.811023622047244
 10
325.1968503937008
 20
14.566929133858267
 97
0
 75
1
 76
1
 52
0.0
 41
0.15748031496062992
 77
0
 78
1
 53
45.0
 43
0.0
 44
0.0
 45
-0.0139194248
 46
0.0139194248
 79
0
 98
0
  0
LINE
  5
14E
330
17
100
AcDbEntity
  8
Wardrobe lit back
100
AcDbLine
 10
325.1968503937008
 20
11.811023622047244
 30
0.0
 11
337.00787401574803
 21
11.811023622047244
 31
0.0
  0
LWPOLYLINE
  5
14F
330
17
100
AcDbEntity
  8
Wardrobe lit back
100
AcDbPolyline
 90
5
 70
0
 10
326.7716535433071
 20
11.811023622047244
 10
327.4803149606299
 20
11.811023622047244
 10
327.4803149606299
 20
1.5748031496063
 10
326.7716535433071
 20
1.5748031496063
 10
326.7716535433071
 20
11.811023622047244
  0
LINE
  5
150
330
17
100
AcDbEntity
  8
Wardrobe lit back
100
AcDbLine
 10
327.4409448818898
 20
9.566929133858267
 30
0.0
 11
327.4409448818898
 21
1.574803149606299
 31
0.0
  0
LWPOLYLINE
  5
151
330
17
100
AcDbEntity
  8
Wardrobe lit back
100
AcDbPolyline
 90
5
 70
0
 10
327.4803149606299
 20
11.811023622047244
 10
337.00787401574803
 20
11.811023622047244
 10
337.00787401574803
 20
11.456692913385828
 10
327.4803149606299
 20
11.456692913385828
 10
327.4803149606299
 20
11.811023622047244
  0
LWPOLYLINE
  5
152
330
17
100
AcDbEntity
  8
Wardrobe lit back
  6
DASHED
100
AcDbPolyline
 90
2
 70
0
 10
329.5275590551181
 20
11.338582677165356
 10
328.34645669291336
 20
9.763779527559056
  0
LWPOLYLINE
  5
153
330
17
100
AcDbEntity
  8
Wardrobe lit back
  6
DASHED
100
AcDbPolyline
 90
2
 70
0
 10
329.5275590551181
 20
11.338582677165356
 10
330.70866141732284
 20
9.763779527559056
  0
LWPOLYLINE
  5
154
330
17
100
AcDbEntity
  8
Wardrobe lit back
  6
DASHED
100
AcDbPolyline
 90
2
 70
0
 10
329.5275590551181
 20
11.338582677165356
 10
329.5275590551181
 20
9.763779527559056
  0
LWPOLYLINE
  5
155
330
17
100
AcDbEntity
  8
Wardrobe lit back
  6
DASHED
100
AcDbPolyline
 90
2
 70
0
 10
333.46456692913387
 20
11.338582677165356
 10
332.2834645669291
 20
9.763779527559056
  0
LWPOLYLINE
  5
156
330
17
100
AcDbEntity
  8
Wardrobe lit back
  6
DASHED
100
AcDbPolyline
 90
2
 70
0
 10
333.46456692913387
 20
11.338582677165356
 10
334.64566929133855
 20
9.763779527559056
  0
LWPOLYLINE
  5
157
330
17
100
AcDbEntity
  8
Wardrobe lit back
  6
DASHED
100
AcDbPolyline
 90
2
 70
0
 10
333.46456692913387
 20
11.338582677165356
 10
333.46456692913387
 20
9.763779527559056
  0
LWPOLYLINE
  5
158
330
17
100
AcDbEntity
  8
Wardrobe lit back
100
AcDbPolyline
 90
5
 70
0
 10
327.1653543307087
 20
9.783464566929133
 10
337.00787401574803
 20
9.783464566929133
 10
337.00787401574803
 20
9.625984251968504
 10
327.1653543307087
 20
9.625984251968504
 10
327.1653543307087
 20
9.783464566929133
  0
LWPOLYLINE
  5
159
330
17
100
AcDbEntity
  8
Wardrobe lit back
  6
DASHED
100
AcDbPolyline
 90
5
 70
0
 10
327.4803149606299
 20
9.566929133858268
 10
337.00787401574803
 20
9.566929133858268
 10
337.00787401574803
 20
8.700787401574804
 10
327.4803149606299
 20
8.700787401574804
 10
327.4803149606299
 20
9.566929133858268
  0
LWPOLYLINE
  5
15A
330
17
100
AcDbEntity
  8
Wardrobe lit back
  6
DASHED
100
AcDbPolyline
 90
2
 70
0
 10
337.00787401574803
 20
14.566929133858268
 10
337.00787401574803
 20
0.0
  0
TEXT
  5
15B
330
17
100
AcDbEntity
  8
LABELS
100
AcDbText
 10
325.1968503937008
 20
16.929133858267715
 30
0.0
 40
0.7086614173228346
  1
WARDROBE LIT BACK  (1:1, inches)
 11
325.1968503937008
 21
16.929133858267715
 31
0.0
100
AcDbText
  0
TEXT
  5
15C
330
17
100
AcDbEntity
  8
LABELS
100
AcDbText
 10
0.0
 20
-8.661417322834646
 30
0.0
 40
1.574803149606299
  1
Wardrobe interiors · AST-DR-048
 11
0.0
 21
-8.661417322834646
 31
0.0
100
AcDbText
  0
ENDSEC
  0
SECTION
  2
OBJECTS
  0
DICTIONARY
  5
A
330
0
100
AcDbDictionary
281
1
  3
ACAD_COLOR
350
B
  3
ACAD_GROUP
350
C
  3
ACAD_LAYOUT
350
D
  3
ACAD_MATERIAL
350
E
  3
ACAD_MLEADERSTYLE
350
F
  3
ACAD_MLINESTYLE
350
10
  3
ACAD_PLOTSETTINGS
350
11
  3
ACAD_PLOTSTYLENAME
350
12
  3
ACAD_SCALELIST
350
14
  3
ACAD_TABLESTYLE
350
15
  3
ACAD_VISUALSTYLE
350
16
  3
EZDXF_META
350
2D
  0
DICTIONARY
  5
B
330
A
100
AcDbDictionary
281
1
  0
DICTIONARY
  5
C
330
A
100
AcDbDictionary
281
1
  0
DICTIONARY
  5
D
330
A
100
AcDbDictionary
281
1
  3
Model
350
1A
  3
Layout1
350
1E
  0
DICTIONARY
  5
E
330
A
100
AcDbDictionary
281
1
  3
ByBlock
350
1F
  3
ByLayer
350
20
  3
Global
350
21
  0
DICTIONARY
  5
F
330
A
100
AcDbDictionary
281
1
  3
Standard
350
2C
  0
DICTIONARY
  5
10
330
A
100
AcDbDictionary
281
1
  3
Standard
350
22
  0
DICTIONARY
  5
11
330
A
100
AcDbDictionary
281
1
  0
ACDBDICTIONARYWDFLT
  5
12
330
A
100
AcDbDictionary
281
1
  3
Normal
350
13
100
AcDbDictionaryWithDefault
340
13
  0
ACDBPLACEHOLDER
  5
13
330
12
  0
DICTIONARY
  5
14
330
A
100
AcDbDictionary
281
1
  0
DICTIONARY
  5
15
330
A
100
AcDbDictionary
281
1
  0
DICTIONARY
  5
16
330
A
100
AcDbDictionary
281
1
  3
2dWireframe
350
5A
  3
Basic
350
5B
  3
Brighten
350
5C
  3
ColorChange
350
5D
  3
Conceptual
350
5E
  3
Dim
350
5F
  3
EdgeColorOff
350
60
  3
Facepattern
350
61
  3
Flat
350
62
  3
FlatWithEdges
350
63
  3
Gouraud
350
64
  3
GouraudWithEdges
350
65
  3
Hidden
350
66
  3
JitterOff
350
67
  3
Linepattern
350
68
  3
Modeling
350
69
  3
OverhangOff
350
6A
  3
Realistic
350
6B
  3
Shaded
350
6C
  3
Shaded with edges
350
6D
  3
Shades of Gray
350
6E
  3
Sketchy
350
6F
  3
Thicken
350
70
  3
Wireframe
350
71
  3
X-Ray
350
72
  0
LAYOUT
  5
1A
330
D
100
AcDbPlotSettings
  1

  4
A3
  6

 40
7.5
 41
20.0
 42
7.5
 43
20.0
 44
420.0
 45
297.0
 46
0.0
 47
0.0
 48
0.0
 49
0.0
140
0.0
141
0.0
142
1.0
143
1.0
 70
1024
 72
1
 73
0
 74
5
  7

 75
16
 76
0
 77
2
 78
300
147
1.0
148
0.0
149
0.0
100
AcDbLayout
  1
Model
 70
1
 71
0
 10
0.0
 20
0.0
 11
420.0
 21
297.0
 12
0.0
 22
0.0
 32
0.0
 14
1e+20
 24
1e+20
 34
1e+20
 15
-1e+20
 25
-1e+20
 35
-1e+20
146
0.0
 13
0.0
 23
0.0
 33
0.0
 16
1.0
 26
0.0
 36
0.0
 17
0.0
 27
1.0
 37
0.0
 76
1
330
17
  0
LAYOUT
  5
1E
330
D
100
AcDbPlotSettings
  1

  4
A3
  6

 40
7.5
 41
20.0
 42
7.5
 43
20.0
 44
420.0
 45
297.0
 46
0.0
 47
0.0
 48
0.0
 49
0.0
140
0.0
141
0.0
142
1.0
143
1.0
 70
0
 72
1
 73
0
 74
5
  7

 75
16
 76
0
 77
2
 78
300
147
1.0
148
0.0
149
0.0
100
AcDbLayout
  1
Layout1
 70
1
 71
1
 10
0.0
 20
0.0
 11
420.0
 21
297.0
 12
0.0
 22
0.0
 32
0.0
 14
1e+20
 24
1e+20
 34
1e+20
 15
-1e+20
 25
-1e+20
 35
-1e+20
146
0.0
 13
0.0
 23
0.0
 33
0.0
 16
1.0
 26
0.0
 36
0.0
 17
0.0
 27
1.0
 37
0.0
 76
1
330
1B
  0
MATERIAL
  5
1F
102
{ACAD_REACTORS
330
E
102
}
330
E
100
AcDbMaterial
  1
ByBlock
  2

 70
0
 40
1.0
 71
1
 41
1.0
 91
-1023410177
 42
1.0
 72
1
  3

 73
1
 74
1
 75
1
 44
0.5
 73
0
 45
1.0
 46
1.0
 77
1
  4

 78
1
 79
1
170
1
 48
1.0
171
1
  6

172
1
173
1
174
1
140
1.0
141
1.0
175
1
  7

176
1
177
1
178
1
143
1.0
179
1
  8

270
1
271
1
272
1
145
1.0
146
1.0
273
1
  9

274
1
275
1
276
1
 42
1.0
 72
1
  3

 73
1
 74
1
 75
1
 94
63
  0
MATERIAL
  5
20
102
{ACAD_REACTORS
330
E
102
}
330
E
100
AcDbMaterial
  1
ByLayer
  2

 70
0
 40
1.0
 71
1
 41
1.0
 91
-1023410177
 42
1.0
 72
1
  3

 73
1
 74
1
 75
1
 44
0.5
 73
0
 45
1.0
 46
1.0
 77
1
  4

 78
1
 79
1
170
1
 48
1.0
171
1
  6

172
1
173
1
174
1
140
1.0
141
1.0
175
1
  7

176
1
177
1
178
1
143
1.0
179
1
  8

270
1
271
1
272
1
145
1.0
146
1.0
273
1
  9

274
1
275
1
276
1
 42
1.0
 72
1
  3

 73
1
 74
1
 75
1
 94
63
  0
MATERIAL
  5
21
102
{ACAD_REACTORS
330
E
102
}
330
E
100
AcDbMaterial
  1
Global
  2

 70
0
 40
1.0
 71
1
 41
1.0
 91
-1023410177
 42
1.0
 72
1
  3

 73
1
 74
1
 75
1
 44
0.5
 73
0
 45
1.0
 46
1.0
 77
1
  4

 78
1
 79
1
170
1
 48
1.0
171
1
  6

172
1
173
1
174
1
140
1.0
141
1.0
175
1
  7

176
1
177
1
178
1
143
1.0
179
1
  8

270
1
271
1
272
1
145
1.0
146
1.0
273
1
  9

274
1
275
1
276
1
 42
1.0
 72
1
  3

 73
1
 74
1
 75
1
 94
63
  0
MLINESTYLE
  5
22
102
{ACAD_REACTORS
330
10
102
}
330
10
100
AcDbMlineStyle
  2
Standard
 70
0
  3

 62
256
 51
90.0
 52
90.0
 71
2
 49
0.5
 62
256
  6
BYLAYER
 49
-0.5
 62
256
  6
BYLAYER
  0
MLEADERSTYLE
  5
2C
102
{ACAD_REACTORS
330
F
102
}
330
F
100
AcDbMLeaderStyle
179
2
170
2
171
1
172
0
 90
2
 40
0.0
 41
0.0
173
1
 91
-1056964608
 92
-2
290
1
 42
2.0
291
1
 43
8.0
  3
Standard
 44
4.0
300

342
29
174
1
175
1
176
0
178
1
 93
-1056964608
 45
4.0
292
0
297
0
 46
4.0
 94
-1056964608
 47
1.0
 49
1.0
140
1.0
294
1
141
0.0
177
0
142
1.0
295
0
296
0
143
3.75
271
0
272
9
273
9
  0
DICTIONARY
  5
2D
330
A
100
AcDbDictionary
280
1
281
1
  3
CREATED_BY_EZDXF
350
2E
  3
WRITTEN_BY_EZDXF
350
15F
  0
DICTIONARYVAR
  5
2E
330
2D
100
DictionaryVariables
280
0
  1
1.4.2 @ 2026-10-09T11:57:07.431457+00:00
  0
VISUALSTYLE
  5
5A
102
{ACAD_REACTORS
330
16
102
}
330
16
100
AcDbVisualStyle
  2
2dWireframe
 70
4
 90
0
 40
0.6
 62
7
290
0
291
0
  0
VISUALSTYLE
  5
5B
102
{ACAD_REACTORS
330
16
102
}
330
16
100
AcDbVisualStyle
  2
Basic
 70
7
 90
1
 40
0.6
 62
7
290
0
291
1
  0
VISUALSTYLE
  5
5C
102
{ACAD_REACTORS
330
16
102
}
330
16
100
AcDbVisualStyle
  2
Brighten
 70
12
 90
2
 40
0.6
 62
7
290
0
291
1
  0
VISUALSTYLE
  5
5D
102
{ACAD_REACTORS
330
16
102
}
330
16
100
AcDbVisualStyle
  2
ColorChange
 70
16
 90
2
 40
0.6
 62
8
290
0
291
1
  0
VISUALSTYLE
  5
5E
102
{ACAD_REACTORS
330
16
102
}
330
16
100
AcDbVisualStyle
  2
Conceptual
 70
9
 90
3
 40
0.6
 62
7
290
0
291
0
  0
VISUALSTYLE
  5
5F
102
{ACAD_REACTORS
330
16
102
}
330
16
100
AcDbVisualStyle
  2
Dim
 70
11
 90
2
 40
0.6
 62
7
290
0
291
1
  0
VISUALSTYLE
  5
60
102
{ACAD_REACTORS
330
16
102
}
330
16
100
AcDbVisualStyle
  2
EdgeColorOff
 70
22
 90
2
 40
0.6
 62
7
290
0
291
1
  0
VISUALSTYLE
  5
61
102
{ACAD_REACTORS
330
16
102
}
330
16
100
AcDbVisualStyle
  2
Facepattern
 70
15
 90
2
 40
0.6
 62
7
290
0
291
1
  0
VISUALSTYLE
  5
62
102
{ACAD_REACTORS
330
16
102
}
330
16
100
AcDbVisualStyle
  2
Flat
 70
0
 90
2
 40
0.6
 62
7
290
0
291
1
  0
VISUALSTYLE
  5
63
102
{ACAD_REACTORS
330
16
102
}
330
16
100
AcDbVisualStyle
  2
FlatWithEdges
 70
1
 90
2
 40
0.6
 62
7
290
0
291
1
  0
VISUALSTYLE
  5
64
102
{ACAD_REACTORS
330
16
102
}
330
16
100
AcDbVisualStyle
  2
Gouraud
 70
2
 90
2
 40
0.6
 62
7
290
0
291
1
  0
VISUALSTYLE
  5
65
102
{ACAD_REACTORS
330
16
102
}
330
16
100
AcDbVisualStyle
  2
GouraudWithEdges
 70
3
 90
2
 40
0.6
 62
7
290
0
291
1
  0
VISUALSTYLE
  5
66
102
{ACAD_REACTORS
330
16
102
}
330
16
100
AcDbVisualStyle
  2
Hidden
 70
6
 90
1
 40
0.6
 62
7
290
0
291
0
  0
VISUALSTYLE
  5
67
102
{ACAD_REACTORS
330
16
102
}
330
16
100
AcDbVisualStyle
  2
JitterOff
 70
20
 90
2
 40
0.6
 62
7
290
0
291
1
  0
VISUALSTYLE
  5
68
102
{ACAD_REACTORS
330
16
102
}
330
16
100
AcDbVisualStyle
  2
Linepattern
 70
14
 90
2
 40
0.6
 62
7
290
0
291
1
  0
VISUALSTYLE
  5
69
102
{ACAD_REACTORS
330
16
102
}
330
16
100
AcDbVisualStyle
  2
Modeling
 70
10
 90
2
 40
0.6
 62
7
290
0
291
0
  0
VISUALSTYLE
  5
6A
102
{ACAD_REACTORS
330
16
102
}
330
16
100
AcDbVisualStyle
  2
OverhangOff
 70
21
 90
2
 40
0.6
 62
7
290
0
291
1
  0
VISUALSTYLE
  5
6B
102
{ACAD_REACTORS
330
16
102
}
330
16
100
AcDbVisualStyle
  2
Realistic
 70
8
 90
2
 40
0.6
 62
7
290
0
291
0
  0
VISUALSTYLE
  5
6C
102
{ACAD_REACTORS
330
16
102
}
330
16
100
AcDbVisualStyle
  2
Shaded
 70
27
 90
2
 40
0.6
 62
7
290
0
291
0
  0
VISUALSTYLE
  5
6D
102
{ACAD_REACTORS
330
16
102
}
330
16
100
AcDbVisualStyle
  2
Shaded with edges
 70
26
 90
2
 40
0.6
 62
7
290
0
291
0
  0
VISUALSTYLE
  5
6E
102
{ACAD_REACTORS
330
16
102
}
330
16
100
AcDbVisualStyle
  2
Shades of Gray
 70
23
 90
2
 40
0.6
 62
7
290
0
291
0
  0
VISUALSTYLE
  5
6F
102
{ACAD_REACTORS
330
16
102
}
330
16
100
AcDbVisualStyle
  2
Sketchy
 70
24
 90
1
 40
0.6
 62
7
290
0
291
0
  0
VISUALSTYLE
  5
70
102
{ACAD_REACTORS
330
16
102
}
330
16
100
AcDbVisualStyle
  2
Thicken
 70
13
 90
2
 40
0.6
 62
7
290
0
291
1
  0
VISUALSTYLE
  5
71
102
{ACAD_REACTORS
330
16
102
}
330
16
100
AcDbVisualStyle
  2
Wireframe
 70
5
 90
0
 40
0.6
 62
7
290
0
291
0
  0
VISUALSTYLE
  5
72
102
{ACAD_REACTORS
330
16
102
}
330
16
100
AcDbVisualStyle
  2
X-Ray
 70
25
 90
2
 40
0.5
 62
7
290
0
291
0
  0
DICTIONARYVAR
  5
15F
330
2D
100
DictionaryVariables
280
0
  1
1.4.2 @ 2026-10-09T11:57:07.455264+00:00
  0
ENDSEC
  0
EOF
